<svg id="Capa_1" enable-background="new 0 0 512 512" height="512" viewBox="0 0 512 512" width="512" xmlns="http://www.w3.org/2000/svg"><g><g><path d="m504.5 127.24v297.967c0 7.96-6.457 14.407-14.417 14.407h-468.166c-7.961 0-14.417-6.447-14.417-14.407v-297.967c0-7.961 6.457-14.417 14.417-14.417h468.166c7.96-.001 14.417 6.456 14.417 14.417z" fill="#b5adb6"/><path d="m432.244 154.751h-148.472c-11.018 0-17.706-12.161-11.8-21.465l12.983-20.463h146.106l12.983 20.463c5.906 9.303-.782 21.465-11.8 21.465z" fill="#a79ba7"/><path d="m490.087 112.823h-71.135c7.959 0 14.412 6.452 14.412 14.412v297.972c0 7.959-6.452 14.412-14.412 14.412h71.135c7.959 0 14.412-6.453 14.412-14.412v-297.972c-.001-7.959-6.453-14.412-14.412-14.412z" fill="#a79ba7"/><path d="m35.572 140.895h440.855v254.468h-440.855z" fill="#d8ecfe"/><path d="m446.24 140.895c-.08 7.219-5.855 13.856-13.996 13.856h-148.472c-8.141 0-13.916-6.637-13.996-13.856z" fill="#c4e2ff"/><path d="m433.363 140.896h43.063v238.283h-43.063z" fill="#c4e2ff"/><g><path d="m314.981 242.205v-9.044c0-27.074-21.948-49.022-49.022-49.022h-19.916c-27.074 0-49.022 21.948-49.022 49.022v9.044c-7.732 3.308-5.38 15.701-5.691 22.283 0 11.689 6.064 22.461 15.747 28.509 4.782 17.735 21.507 28.984 36.41 37.924 7.607 4.955 17.421 4.955 25.028 0 14.919-8.954 31.616-20.178 36.41-37.924 9.684-6.048 15.747-16.82 15.747-28.509-.315-6.608 2.043-18.954-5.691-22.283z" fill="#6cf5c2"/></g><path d="m35.574 379.178h440.852v32.368h-440.852z" fill="#8ac9fe"/><path d="m433.363 379.178h43.063v32.368h-43.063z" fill="#60b7ff"/><path d="m168.646 346.727h-133.072v64.82h92.282c9.657 0 18.618-5.021 23.66-13.257l24.029-39.249c3.3-5.391-.579-12.314-6.899-12.314z" fill="#fe7ab6"/><g><g><path d="m152.847 439.619h-40.561l-47.233 62.608h30.367c6.42 0 12.468-3.013 16.334-8.138z" fill="#918291"/></g><g><path d="m152.844 439.614-41.086 54.47c-3.87 5.133-9.916 8.141-16.342 8.141h-21.044c6.427 0 12.472-3.008 16.332-8.141l41.096-54.47z" fill="#837784"/></g><g><path d="m359.153 439.619h40.562l47.233 62.608h-30.368c-6.42 0-12.468-3.013-16.334-8.138z" fill="#918291"/></g><g><path d="m446.952 502.226h-21.054l-47.232-62.612h21.044z" fill="#837784"/></g></g><path d="m462.429 154.749h-148.471c-11.018 0-17.702-12.156-11.8-21.46l74.236-117.028c5.488-8.652 18.113-8.652 23.601 0l74.236 117.028c5.9 9.304-.784 21.46-11.802 21.46z" fill="#ffe177"/><path d="m474.229 133.289-74.235-117.027c-5.488-8.652-18.113-8.652-23.601 0l-12.443 19.615c6.22-4.973 15.878-3.844 20.496 3.436l59.598 93.976c5.902 9.304-.783 21.46-11.8 21.46h30.185c11.018 0 17.702-12.156 11.8-21.46z" fill="#ffd15b"/></g><g><path d="m239.517 337.286c5.015 3.233 10.749 4.849 16.483 4.849s11.469-1.616 16.484-4.849c15.581-9.357 32.542-20.869 38.844-39.573 10.456-7.655 16.844-20.128 16.844-33.224 0-.119-.003-.238-.008-.357-.05-1.054-.008-2.502.037-4.036.184-6.271.472-16.062-5.72-21.851v-5.083c0-31.167-25.355-56.522-56.522-56.522h-19.916c-31.167 0-56.522 25.356-56.522 56.522v5.078c-6.193 5.786-5.905 15.595-5.721 21.877.045 1.528.087 2.97.038 4.016-.005.118-.008.236-.008.355 0 13.096 6.386 25.568 16.842 33.223 6.293 18.708 23.259 30.218 38.845 39.575zm-40.724-77.609c-.194-6.601.202-10.159 1.177-10.576 2.76-1.181 4.55-3.894 4.55-6.896v-9.044c0-22.896 18.627-41.522 41.522-41.522h19.916c22.896 0 41.522 18.627 41.522 41.522v9.044c0 2.996 1.783 5.705 4.535 6.889.984.423 1.385 3.977 1.191 10.561-.051 1.755-.1 3.417-.036 4.987-.053 8.896-4.726 17.312-12.22 21.993-1.606 1.003-2.773 2.577-3.267 4.405-4.055 15.007-19.175 25.135-33.029 33.45-.079.047-.157.096-.235.146-5.114 3.332-11.725 3.332-16.84 0-.078-.05-.156-.1-.235-.147-13.857-8.313-28.981-18.438-33.027-33.445-.493-1.83-1.661-3.405-3.268-4.409-7.495-4.681-12.167-13.098-12.22-21.994.064-1.561.015-3.216-.036-4.964z"/><path d="m214.02 265.569 19.972 17.697c1.428 1.265 3.203 1.887 4.971 1.887 2.072 0 4.134-.854 5.616-2.526 2.747-3.1 2.461-7.84-.639-10.587l-19.972-17.697c-3.101-2.748-7.841-2.461-10.587.639-2.748 3.1-2.462 7.84.639 10.587z"/><path d="m273.038 285.153c1.768 0 3.543-.622 4.971-1.887l19.972-17.697c3.1-2.747 3.386-7.487.639-10.587-2.747-3.099-7.486-3.387-10.587-.639l-19.972 17.697c-3.1 2.747-3.386 7.487-.639 10.587 1.482 1.673 3.544 2.526 5.616 2.526z"/><path d="m115.167 217.431c-3.805-1.632-8.216.13-9.849 3.938-5.166 12.047-7.785 24.839-7.785 38.02 0 13.182 2.619 25.974 7.785 38.021 1.219 2.843 3.987 4.546 6.896 4.546.986 0 1.989-.196 2.953-.609 3.807-1.633 5.569-6.042 3.937-9.849-4.36-10.168-6.571-20.971-6.571-32.108s2.211-21.94 6.571-32.109c1.633-3.808-.129-8.218-3.937-9.85z"/><path d="m157.705 207.066c-3.22-2.604-7.943-2.106-10.548 1.115-12.081 14.937-18.466 32.644-18.466 51.207s6.386 36.271 18.466 51.207c1.482 1.833 3.65 2.784 5.836 2.784 1.657 0 3.324-.546 4.712-1.669 3.221-2.605 3.72-7.328 1.115-10.548-9.898-12.237-15.129-26.683-15.129-41.774s5.231-29.537 15.129-41.774c2.605-3.22 2.106-7.943-1.115-10.548z"/><path d="m396.832 301.346c.964.413 1.966.609 2.953.609 2.909 0 5.677-1.703 6.896-4.546 5.166-12.047 7.785-24.839 7.785-38.021 0-13.181-2.619-25.973-7.785-38.02-1.632-3.808-6.044-5.569-9.849-3.938-3.807 1.632-5.57 6.042-3.938 9.849 4.36 10.169 6.571 20.972 6.571 32.109 0 11.138-2.211 21.94-6.571 32.108-1.631 3.808.131 8.217 3.938 9.85z"/><path d="m354.295 311.71c1.388 1.123 3.055 1.669 4.712 1.669 2.186 0 4.354-.952 5.836-2.784 12.081-14.937 18.466-32.644 18.466-51.207s-6.386-36.27-18.466-51.207c-2.606-3.221-7.328-3.719-10.548-1.115-3.221 2.605-3.72 7.328-1.115 10.548 9.898 12.237 15.129 26.683 15.129 41.774 0 15.092-5.231 29.537-15.129 41.774-2.605 3.221-2.106 7.943 1.115 10.548z"/><path d="m121.864 371.678h-43.884c-4.142 0-7.5 3.358-7.5 7.5s3.358 7.5 7.5 7.5h43.884c4.142 0 7.5-3.358 7.5-7.5s-3.358-7.5-7.5-7.5z"/><path d="m490.083 105.323h-24.713l-59.043-93.078c-3.96-6.244-10.739-9.972-18.133-9.972s-14.173 3.727-18.134 9.971l-74.235 117.028c-.84 1.324-1.518 2.706-2.046 4.123h-258.207c-4.142 0-7.5 3.358-7.5 7.5l.001 270.652c0 4.142 3.358 7.5 7.5 7.5h440.852c4.142 0 7.5-3.358 7.5-7.5l.002-269.934c.175-4.259-.95-8.533-3.365-12.341l-5.677-8.949h15.197c3.814 0 6.917 3.103 6.917 6.917v297.967c0 3.809-3.103 6.907-6.917 6.907h-468.165c-3.814 0-6.917-3.099-6.917-6.907v-297.967c0-3.814 3.103-6.917 6.917-6.917h256.083c4.142 0 7.5-3.358 7.5-7.5s-3.358-7.5-7.5-7.5h-256.083c-12.085 0-21.917 9.832-21.917 21.917v297.967c0 12.08 9.832 21.907 21.917 21.907h75.319l-35.92 47.613h-22.82c-4.142 0-7.5 3.358-7.5 7.5s3.358 7.5 7.5 7.5h56.923c8.724 0 17.068-4.158 22.322-11.121l38.847-51.492h198.824l38.847 51.491c5.253 6.964 13.598 11.122 22.322 11.122h56.923c4.142 0 7.5-3.358 7.5-7.5s-3.358-7.5-7.5-7.5h-22.82l-35.92-47.613h75.319c12.085 0 21.917-9.828 21.917-21.907v-297.967c0-12.085-9.832-21.917-21.917-21.917zm-181.592 31.984 74.235-117.028c1.722-2.713 4.397-3.006 5.468-3.006 1.07 0 3.746.293 5.467 3.006l74.236 117.028c1.851 2.917.761 5.579.206 6.587s-2.218 3.354-5.673 3.354h-148.472c-3.456 0-5.119-2.346-5.673-3.354-.308-.561-.78-1.633-.823-2.975 0-.008.001-.016.001-.025 0-.023-.003-.045-.003-.068-.017-1.05.233-2.26 1.031-3.519zm-180.636 266.74h-84.781v-49.82h125.572c.129 0 .346 0 .514.301.169.301.056.485-.012.596l-24.029 39.25c-3.653 5.966-10.268 9.673-17.264 9.673zm72.707-17.369h268.363v17.369h-312.225c.422-.599 25.242-41.09 25.242-41.09 2.942-4.806 3.059-10.844.305-15.76s-7.965-7.969-13.6-7.969h-125.575v-190.833h250.801c2.616 7.088 10.824 14.111 20.084 13.854h154.97v209.429h-268.365c-4.142 0-7.5 3.358-7.5 7.5s3.358 7.5 7.5 7.5zm-94.795 102.894c-2.435 3.228-6.303 5.155-10.347 5.155h-15.314l35.917-47.608h21.771zm326.127 5.155h-15.313c-4.044 0-7.912-1.927-10.347-5.155l-32.027-42.453h21.771z"/><path d="m388.193 96.377c4.142 0 7.5-3.358 7.5-7.5v-28.918c0-4.142-3.358-7.5-7.5-7.5s-7.5 3.358-7.5 7.5v28.918c0 4.143 3.358 7.5 7.5 7.5z"/><circle cx="388.19" cy="116.254" r="7.5"/></g></g></svg>