<svg id="Capa_1" enable-background="new 0 0 512.055 512.055" height="512" viewBox="0 0 512.055 512.055" width="512" xmlns="http://www.w3.org/2000/svg"><g><g><path d="m480.506 410.774h-448.957c-18.912 0-30.383-20.867-20.249-36.835l224.479-353.685c9.42-14.842 31.078-14.842 40.498 0l224.478 353.685c10.134 15.967-1.337 36.835-20.249 36.835z" fill="#ffe177"/><path d="m500.755 373.939-224.479-353.685c-9.42-14.842-31.078-14.842-40.498 0l-31.551 49.712c10.661-6.982 25.898-4.579 33.392 7.229l188.499 296.744c10.134 15.967-1.337 36.835-20.249 36.835h74.635c18.914 0 30.385-20.868 20.251-36.835z" fill="#ffd15b"/><g><path d="m314.856 248.396v-9.021c0-27.005-21.891-48.896-48.896-48.896h-19.865c-27.005 0-48.896 21.891-48.896 48.896v9.021c-7.712 3.3-5.366 15.661-5.677 22.225 0 11.659 6.048 22.403 15.707 28.436 4.77 17.689 21.451 28.909 36.317 37.827 7.587 4.943 17.376 4.943 24.963 0 14.88-8.931 31.534-20.126 36.317-37.827 9.659-6.033 15.707-16.776 15.707-28.436-.314-6.591 2.038-18.905-5.677-22.225z" fill="#6cf5c2"/></g><path d="m314.856 248.396v-9.021c0-27.005-21.891-48.896-48.896-48.896h-19.865c-1.875 0-3.723.116-5.543.322 24.393 2.754 43.353 23.445 43.353 48.574 0 4.297 1.286 8.478 3.603 12.097 3.255 5.084 1.825 13.918 2.074 19.149 0 10.638-5.035 20.513-13.253 26.744-1.638 1.242-2.802 3.017-3.378 4.991-4.267 14.616-7.535 16.362-21.433 24.703-5.757 3.751-12.781 4.648-19.15 2.707 3.698 2.556 7.494 4.908 11.178 7.118 7.587 4.943 17.376 4.943 24.963 0 14.88-8.93 31.534-20.125 36.317-37.827 9.659-6.033 15.707-16.776 15.707-28.436-.314-6.591 2.038-18.905-5.677-22.225z" fill="#00f2a6"/><path d="m228.913 410.774h54.229v92.159h-54.229z" fill="#d88a55"/><path d="m256.028 410.774h27.115v92.159h-27.115z" fill="#c57a44"/></g><g><path d="m429.454 181.822c1.065 3.115 3.978 5.076 7.096 5.076.805 0 1.623-.13 2.427-.405l33.01-11.285c3.92-1.34 6.011-5.604 4.671-9.523-1.341-3.919-5.604-6.011-9.522-4.67l-33.01 11.285c-3.921 1.339-6.012 5.603-4.672 9.522z"/><path d="m414.475 158.674c1.43 2.246 3.855 3.474 6.334 3.474 1.378 0 2.771-.379 4.02-1.173l28.605-18.204c3.495-2.224 4.524-6.86 2.301-10.354-2.225-3.495-6.86-4.522-10.354-2.301l-28.605 18.204c-3.496 2.224-4.525 6.859-2.301 10.354z"/><path d="m405.051 137.399c1.967 0 3.931-.769 5.402-2.296l24.203-25.124c2.874-2.983 2.785-7.731-.198-10.605-2.984-2.875-7.732-2.785-10.604.198l-24.203 25.124c-2.874 2.983-2.785 7.731.198 10.605 1.455 1.401 3.33 2.098 5.202 2.098z"/><path d="m40.069 175.208 33.009 11.285c.804.275 1.622.405 2.427.405 3.119 0 6.031-1.96 7.096-5.076 1.34-3.919-.751-8.183-4.67-9.523l-33.009-11.285c-3.92-1.341-8.183.751-9.523 4.67-1.341 3.92.75 8.184 4.67 9.524z"/><path d="m58.621 142.771 28.606 18.204c1.249.794 2.642 1.173 4.02 1.173 2.479 0 4.905-1.228 6.335-3.474 2.224-3.495 1.193-8.13-2.301-10.354l-28.606-18.204c-3.496-2.224-8.13-1.193-10.354 2.301-2.225 3.494-1.194 8.13 2.3 10.354z"/><path d="m101.601 135.102c1.472 1.528 3.436 2.297 5.402 2.297 1.872 0 3.748-.697 5.202-2.099 2.983-2.874 3.072-7.622.198-10.604l-24.201-25.124c-2.873-2.983-7.622-3.073-10.604-.198-2.983 2.874-3.072 7.622-.198 10.604z"/><path d="m507.087 369.92-224.478-353.685c-5.807-9.15-15.744-14.612-26.581-14.612s-20.774 5.462-26.582 14.612l-224.478 353.685c-6.248 9.844-6.624 21.821-1.008 32.038 5.617 10.217 15.93 16.316 27.589 16.316h189.863v84.659c0 4.142 3.358 7.5 7.5 7.5s7.5-3.358 7.5-7.5v-84.659h244.093c11.658 0 21.972-6.1 27.589-16.316 5.617-10.217 5.241-22.194-1.007-32.038zm-12.137 24.811c-2.941 5.349-8.341 8.542-14.444 8.542h-448.956c-6.104 0-11.504-3.193-14.444-8.542-2.941-5.349-2.743-11.62.528-16.773l224.477-353.685c3.086-4.862 8.159-7.65 13.917-7.65 5.759 0 10.831 2.789 13.917 7.65l224.479 353.684c3.27 5.155 3.467 11.425.526 16.774z"/><path d="m262.36 40.315c-1.376-2.167-3.765-3.481-6.332-3.481s-4.957 1.313-6.333 3.481l-213.533 336.44c-1.466 2.31-1.558 5.235-.24 7.632s3.836 3.887 6.572 3.887h69.482c4.142 0 7.5-3.358 7.5-7.5s-3.358-7.5-7.5-7.5h-55.838l199.89-314.944 199.89 314.943h-308.805c-4.142 0-7.5 3.358-7.5 7.5s3.358 7.5 7.5 7.5h322.448c2.735 0 5.255-1.49 6.572-3.887 1.318-2.397 1.226-5.322-.24-7.632z"/><path d="m265.96 182.979h-19.865c-31.097 0-56.396 25.299-56.396 56.396v5.056c-6.177 5.777-5.89 15.562-5.706 21.831.045 1.523.087 2.961.038 4.003-.005.118-.008.237-.008.355 0 13.066 6.372 25.51 16.802 33.15 6.282 18.663 23.206 30.145 38.752 39.478 5.006 3.227 10.727 4.839 16.451 4.839 5.722 0 11.447-1.614 16.452-4.839 15.543-9.334 32.462-20.817 38.75-39.476 10.431-7.64 16.803-20.084 16.803-33.151 0-.119-.003-.238-.009-.356-.05-1.05-.007-2.494.038-4.022.184-6.256.471-16.025-5.705-21.805v-5.062c0-31.097-25.3-56.397-56.397-56.397zm47.108 82.822c-.051 1.75-.1 3.407-.035 4.974-.055 8.867-4.711 17.255-12.18 21.921-1.605 1.003-2.772 2.577-3.267 4.405-4.042 14.961-19.12 25.06-32.936 33.352-.079.047-.157.096-.234.146-5.095 3.321-11.681 3.319-16.776 0-.078-.051-.156-.1-.235-.147-13.819-8.29-28.899-18.386-32.934-33.348-.493-1.83-1.661-3.404-3.268-4.408-7.47-4.667-12.126-13.054-12.18-21.921.063-1.558.015-3.209-.036-4.953-.193-6.576.198-10.119 1.163-10.531 2.76-1.181 4.55-3.894 4.55-6.896v-9.021c0-22.826 18.57-41.396 41.396-41.396h19.865c22.826 0 41.396 18.57 41.396 41.396v9.021c0 2.996 1.783 5.705 4.535 6.889.972.42 1.369 3.958 1.176 10.517z"/><path d="m244.011 278.139-19.92-17.651c-3.102-2.748-7.841-2.461-10.587.639-2.747 3.1-2.461 7.84.639 10.587l19.92 17.651c1.428 1.265 3.203 1.887 4.971 1.887 2.072 0 4.134-.854 5.616-2.526 2.747-3.099 2.461-7.839-.639-10.587z"/><path d="m287.966 260.488-19.921 17.651c-3.101 2.747-3.387 7.487-.64 10.587 1.482 1.672 3.544 2.526 5.616 2.526 1.768 0 3.544-.622 4.971-1.887l19.921-17.651c3.101-2.747 3.387-7.487.64-10.587-2.747-3.099-7.487-3.387-10.587-.639z"/><path d="m283.142 438.411c-4.143 0-7.5 3.358-7.5 7.5v57.021c0 4.142 3.357 7.5 7.5 7.5s7.5-3.358 7.5-7.5v-57.021c0-4.142-3.358-7.5-7.5-7.5z"/></g></g></svg>