<svg id="Capa_1" enable-background="new 0 0 512 512" height="512" viewBox="0 0 512 512" width="512" xmlns="http://www.w3.org/2000/svg"><g><g><path d="m447.252 211.229h-382.504c-6.314 0-11.433-5.119-11.433-11.433v-17.785c0-6.314 5.119-11.433 11.433-11.433h94.792l17.415-6.871 16.34 6.871h253.957c6.314 0 11.433 5.119 11.433 11.433v17.785c-.001 6.314-5.119 11.433-11.433 11.433z" fill="#b5adb6"/><path d="m447.252 170.578h-54.856c6.314 0 11.433 5.118 11.433 11.432v17.785c0 6.314-5.119 11.432-11.433 11.432h54.856c6.314 0 11.432-5.119 11.432-11.432v-17.785c0-6.313-5.118-11.432-11.432-11.432z" fill="#a79ba7"/><path d="m429.56 170.58h-347.12l20.97-28.1 7.64-10.25c8.65-11.59 19.64-20.95 32.06-27.6 13.96-7.47 29.71-11.53 45.97-11.53h133.84c1.91 0 3.81.06 5.71.17 20.38 1.19 39.71 8.75 55.37 21.38 6.3 5.06 12.01 10.96 16.95 17.58z" fill="#978ecb"/><g fill="#8379c1"><path d="m258.77 108.57c0 18.54-10.98 33.56-24.52 33.56s-24.52-15.02-24.52-33.56c0-5.58 1-10.84 2.77-15.47h43.51c1.76 4.63 2.76 9.89 2.76 15.47z"/><path d="m143.11 104.63c.06 9-4.67 19.25-13.44 27.15-8.08 7.28-17.78 10.95-26.26 10.7l7.64-10.25c8.65-11.59 19.64-20.95 32.06-27.6z"/><path d="m380.17 136.04c-9.06 10.06-27.57 8.15-41.34-4.26-12.83-11.56-17.02-28.16-10.2-38.51 20.38 1.19 39.71 8.75 55.37 21.38 2.22 8.04 1.1 15.92-3.83 21.39z"/><path d="m400.949 132.232c-18.375-24.628-47.299-39.135-78.027-39.135h-54.856c30.728 0 59.652 14.507 78.027 39.135l28.61 38.346h54.856z"/></g><path d="m494.745 256.566-103.802-45.337h-269.886l-103.802 45.337c-5.925 2.588-9.755 8.44-9.755 14.906v14.378 12.904c0 7.191 4.722 13.529 11.613 15.586l154.53 46.131h158.677l160.417-46.209c6.966-2.007 11.763-8.381 11.763-15.63v-12.782-14.378c0-6.466-3.83-12.318-9.755-14.906z" fill="#d8ecfe"/><path d="m494.745 256.566-103.802-45.337h-63.873l103.802 45.337c5.925 2.588 9.755 8.44 9.755 14.906v14.378 12.782c0 7.249-4.797 13.623-11.763 15.63l-160.417 46.208h63.873l160.417-46.209c6.966-2.007 11.763-8.381 11.763-15.63v-12.782-14.378c0-6.465-3.83-12.317-9.755-14.905z" fill="#c4e2ff"/><path d="m173.643 360.47h158.677l-32.934 69.858c-2.294 4.113-6.635 6.662-11.344 6.662h-64.084c-4.709 0-9.05-2.549-11.344-6.662z" fill="#b5adb6"/><path d="m294.844 360.47-38.971 69.858c-2.294 4.113-6.635 6.662-11.344 6.662h43.514c4.709 0 9.05-2.549 11.344-6.662l32.934-69.858z" fill="#a79ba7"/><ellipse cx="256" cy="108.571" fill="#bbec6c" rx="24.515" ry="33.562"/><path d="m256 75.01c-3.907 0-7.597 1.257-10.875 3.482 8.082 5.487 13.64 16.892 13.64 30.079s-5.558 24.592-13.64 30.079c3.278 2.225 6.968 3.482 10.875 3.482 13.539 0 24.515-15.026 24.515-33.562 0-18.534-10.976-33.56-24.515-33.56z" fill="#8de02b"/><g><ellipse cx="135.01" cy="113.571" fill="#bbec6c" rx="33.562" ry="24.515" transform="matrix(.743 -.669 .669 .743 -41.313 119.584)"/><path d="m159.942 91.104c-6.229-6.912-16.917-8.174-27.464-4.261 2.153 1.043 4.087 2.456 5.714 4.261 9.064 10.058 5.249 28.27-8.521 40.679-4.307 3.882-9.079 6.735-13.88 8.516 9.844 4.769 24.331 1.665 35.63-8.516 13.77-12.409 17.585-30.621 8.521-40.679z" fill="#8de02b"/><ellipse cx="376.99" cy="113.571" fill="#bbec6c" rx="24.515" ry="33.562" transform="matrix(.669 -.743 .743 .669 40.25 317.596)"/><path d="m393.401 95.36c-11.299-10.182-25.785-13.285-35.63-8.516 4.801 1.781 9.572 4.635 13.88 8.516 13.769 12.408 17.584 30.621 8.52 40.679-1.626 1.805-3.561 3.218-5.714 4.261 10.546 3.913 21.235 2.651 27.464-4.261 9.064-10.059 5.25-28.271-8.52-40.679z" fill="#8de02b"/></g><g><path d="m354.79 302.111h-197.58c-8.981 0-16.262-7.281-16.262-16.262 0-8.981 7.281-16.262 16.262-16.262h197.58c8.981 0 16.262 7.281 16.262 16.262-.001 8.982-7.281 16.262-16.262 16.262z" fill="#978ecb"/><path d="m354.79 269.588h-23.75c8.981 0 16.262 7.281 16.262 16.262s-7.281 16.262-16.262 16.262h23.75c8.981 0 16.262-7.281 16.262-16.262s-7.281-16.262-16.262-16.262z" fill="#8379c1"/><path d="m307.192 302.111h-17.685c-8.981 0-16.262-7.281-16.262-16.262 0-8.981 7.281-16.262 16.262-16.262h17.685c8.981 0 16.262 7.281 16.262 16.262 0 8.982-7.281 16.262-16.262 16.262z" fill="#fe7ab6"/><path d="m307.192 269.588h-17.685c-1.278 0-2.516.163-3.71.442 7.191 1.681 12.552 8.117 12.552 15.82s-5.361 14.14-12.552 15.82c1.193.279 2.431.442 3.71.442h17.685c8.981 0 16.262-7.281 16.262-16.262s-7.281-16.262-16.262-16.262z" fill="#fe5ca7"/></g></g><path d="m497.742 249.697-70.898-30.968h20.408c10.439 0 18.933-8.493 18.933-18.933v-17.785c0-10.439-8.493-18.933-18.933-18.933h-13.933l-21.431-28.723c6.093-13.354 1.023-31.51-13.467-44.568-17.547-15.612-41.58-17.441-53.457-1.833-7.24-1.555-14.629-2.354-22.045-2.354h-40.232c-5.687-10.984-15.42-18.091-26.687-18.091s-21 7.107-26.688 18.091h-40.232c-7.416 0-14.805.799-22.045 2.354-11.152-14.949-35.69-14.344-53.457 1.834-14.49 13.057-19.56 31.213-13.467 44.568l-21.431 28.722h-13.932c-10.439 0-18.933 8.493-18.933 18.933v17.785c0 10.439 8.493 18.933 18.933 18.933h20.408l-70.888 30.964c-8.667 3.771-14.268 12.319-14.268 21.777v27.283c0 10.426 6.977 19.79 16.967 22.772l151.61 45.259 37.486 67.198c3.617 6.481 10.474 10.507 17.895 10.507h64.084c7.421 0 14.277-4.026 17.895-10.507.083-.15.161-.302.234-.457l31.487-66.789 157.155-45.27c10.12-2.915 17.188-12.306 17.188-22.837v-27.159c-.001-9.458-5.602-18.006-14.259-21.773zm-109.361-148.766c10.162 9.158 13.906 22.368 8.526 29.416-.011.014-.023.028-.034.042-.166.215-.339.425-.522.628-6.173 6.852-20.256 4.651-30.752-4.807h.001c-10.494-9.458-14.144-23.236-7.97-30.087s20.257-4.648 30.751 4.808zm-132.381-18.422c9.223 0 17.015 11.935 17.015 26.062s-7.792 26.062-17.015 26.062-17.015-11.935-17.015-26.062 7.792-26.062 17.015-26.062zm-132.381 18.422c8.696-7.331 21.511-12.914 30.751-4.807 6.174 6.851 2.524 20.629-7.97 30.087h.001c-10.161 9.177-25.225 11.9-31.31 4.133-5.376-7.049-1.633-20.256 8.528-29.413zm-62.804 98.865v-17.785c0-2.168 1.764-3.933 3.933-3.933h93.828c4.143 0 7.5-3.358 7.5-7.5s-3.357-7.5-7.5-7.5h-61.181l12.884-17.268c4.552 2.74 9.948 4.094 15.666 4.094 10.143 0 21.292-4.254 30.497-12.549h.001c11.303-10.187 16.871-23.476 15.882-35.168 5.518-1.046 11.127-1.586 16.754-1.586h35.49c-.38 2.573-.584 5.235-.584 7.971 0 23.025 14.062 41.062 32.015 41.062s32.015-18.036 32.015-41.062c0-2.736-.204-5.398-.584-7.971h35.49c5.627 0 11.236.54 16.754 1.586-.988 11.692 4.579 24.981 15.882 35.168h.001c9.206 8.296 20.354 12.549 30.497 12.549 5.717 0 11.114-1.354 15.666-4.094l12.885 17.269h-220.7c-4.143 0-7.5 3.358-7.5 7.5s3.357 7.5 7.5 7.5h253.346c2.169 0 3.933 1.764 3.933 3.933v17.785c0 2.168-1.764 3.933-3.933 3.933h-382.504c-2.169-.001-3.933-1.766-3.933-3.934zm231.92 227.053c-.992 1.634-2.772 2.642-4.693 2.642h-64.084c-1.988 0-3.826-1.079-4.795-2.816l-32.749-58.705h23.908l7.801 23.456c1.047 3.146 3.974 5.135 7.116 5.135.784 0 1.583-.124 2.368-.385 3.93-1.307 6.057-5.553 4.75-9.483l-6.227-18.723h22.37v21.089c0 4.142 3.357 7.5 7.5 7.5s7.5-3.358 7.5-7.5v-21.089h22.369l-6.227 18.723c-1.307 3.93.82 8.176 4.75 9.483.786.261 1.584.385 2.368.385 3.142 0 6.07-1.99 7.116-5.135l7.801-23.456h18.816zm197.925-119.795-159.398 45.916h-156.524l-153.48-45.817c-3.685-1.1-6.258-4.554-6.258-8.399v-5.403h119.668c3.148 9.437 12.06 16.261 22.542 16.261h197.58c13.103 0 23.762-10.66 23.762-23.762s-10.659-23.762-23.762-23.762h-197.58c-10.482 0-19.394 6.825-22.542 16.262h-119.668v-6.88c0-3.486 2.062-6.635 5.262-8.027l102.364-44.713h266.748l102.374 44.717c3.19 1.388 5.252 4.537 5.252 8.023v6.88h-90.797c-4.143 0-7.5 3.358-7.5 7.5s3.357 7.5 7.5 7.5h90.797v5.281c0 3.884-2.607 7.348-6.34 8.423zm-174.706-21.204c0 4.831-3.931 8.762-8.762 8.762h-17.685c-4.831 0-8.762-3.931-8.762-8.762s3.931-8.762 8.762-8.762h17.685c4.831 0 8.762 3.931 8.762 8.762zm13.319-8.762h25.517c4.831 0 8.762 3.931 8.762 8.762s-3.931 8.762-8.762 8.762h-25.517c1.081-2.713 1.681-5.668 1.681-8.762s-.6-6.049-1.681-8.762zm-61.846 17.523h-110.217c-4.824 0-8.75-3.92-8.761-8.742 0-.006.001-.013.001-.019 0-.007-.001-.013-.001-.02.01-4.822 3.936-8.743 8.761-8.743h110.217c-1.081 2.713-1.681 5.668-1.681 8.762s.601 6.049 1.681 8.762z"/></g></svg>