<svg id="Capa_1" enable-background="new 0 0 511.981 511.981" height="512" viewBox="0 0 511.981 511.981" width="512" xmlns="http://www.w3.org/2000/svg"><g><g><path d="m370.717 206.075h-229.575l25.605-64.511c2.361-5.949 8.114-9.855 14.515-9.855h149.337c6.401 0 12.153 3.906 14.515 9.855z" fill="#fe7ab6"/><path d="m370.72 206.071h-36.26l-25.61-64.51c-2.36-5.95-8.11-9.85-14.51-9.85h36.26c6.4 0 12.15 3.9 14.51 9.85z" fill="#fe5ca7"/><path d="m286.835 86.102h-61.811c-6.535 0-12.379 4.069-14.646 10.199l-13.096 35.408h117.297l-13.096-35.408c-2.269-6.13-8.113-10.199-14.648-10.199z" fill="#fec0dd"/><path d="m314.579 131.711h-36.26l-13.1-35.41c-2.27-6.13-8.11-10.2-14.65-10.2h36.27c6.53 0 12.37 4.07 14.64 10.2z" fill="#fea3ce"/><path d="m504.43 337.479-271.605 16.537-225.395-16.537 41.82-81.531c21.687-42.281 65.21-68.871 112.729-68.871h187.901c47.518 0 91.041 26.59 112.729 68.871z" fill="#6cf5c2"/><path d="m504.43 337.481h-44.07l-41.82-81.53c-21.69-42.28-65.21-68.87-112.73-68.87h44.07c47.52 0 91.04 26.59 112.73 68.87z" fill="#00f2a6"/><path d="m504.43 337.479h-497l49.89 30.381c17.827 10.856 38.297 16.598 59.17 16.598h278.88c20.872 0 41.343-5.742 59.17-16.598z" fill="#b5adb6"/><path d="m504.43 337.481-49.89 30.38c-17.83 10.85-38.3 16.6-59.17 16.6h-36.26c20.87 0 41.34-5.75 59.17-16.6l49.89-30.38z" fill="#a79ba7"/><path d="m337.105 384.458h-162.351v21.947c0 10.55 8.552 19.102 19.102 19.102h124.147c10.55 0 19.102-8.552 19.102-19.102z" fill="#d8ecfe"/><path d="m337.109 384.461v21.94c0 10.55-8.56 19.11-19.11 19.11h-36.26c10.55 0 19.1-8.56 19.1-19.11v-21.94z" fill="#c4e2ff"/><g><path d="m174.754 384.458-46.183 59.923h-37.501l46.183-59.923z" fill="#918291"/><path d="m174.75 384.461-46.18 59.92h-19.63l46.179-59.92z" fill="#837784"/><path d="m91.07 444.381h37.501l29.622 58.329h-37.502z" fill="#918291"/><path d="m158.19 502.711h-19.63l-29.62-58.33h19.63z" fill="#837784"/></g><g><path d="m337.105 384.458 46.183 59.923h37.501l-46.183-59.923z" fill="#918291"/><path d="m420.789 444.381h-19.629l-46.19-59.92h19.639z" fill="#837784"/><path d="m420.789 444.381h-37.501l-29.621 58.329h37.501z" fill="#918291"/><path d="m420.789 444.381-29.619 58.33h-19.631l29.621-58.33z" fill="#837784"/></g><circle cx="255.93" cy="28.341" fill="#8ac9fe" r="19.07"/><path d="m255.93 9.271c-3.293 0-6.392.835-9.095 2.305 5.942 3.23 9.975 9.527 9.975 16.765 0 7.239-4.033 13.535-9.975 16.765 2.703 1.47 5.802 2.305 9.095 2.305 10.532 0 19.07-8.538 19.07-19.07s-8.538-19.07-19.07-19.07z" fill="#60b7ff"/><g><g><circle cx="135.902" cy="267.406" fill="#d8ecfe" r="42.606"/><path d="m178.51 267.401c0 23.54-19.08 42.61-42.61 42.61-4.79 0-9.4-.79-13.69-2.25 16.81-5.71 28.9-21.62 28.9-40.36s-12.09-34.64-28.9-40.35c4.29-1.46 8.9-2.25 13.69-2.25 23.53 0 42.61 19.07 42.61 42.6z" fill="#c4e2ff"/><path d="m135.902 283.012c-8.604 0-15.605-7.001-15.605-15.606s7.001-15.606 15.605-15.606c8.605 0 15.606 7.001 15.606 15.606s-7 15.606-15.606 15.606z" fill="#60b7ff"/></g><g><circle cx="255.93" cy="267.406" fill="#d8ecfe" r="42.606"/><path d="m298.539 267.401c0 23.54-19.08 42.61-42.61 42.61-4.79 0-9.39-.79-13.69-2.25 16.81-5.71 28.9-21.62 28.9-40.36s-12.09-34.64-28.9-40.35c4.3-1.46 8.9-2.25 13.69-2.25 23.531 0 42.61 19.07 42.61 42.6z" fill="#c4e2ff"/><path d="m255.929 283.012c-8.604 0-15.605-7.001-15.605-15.606s7.001-15.606 15.605-15.606c8.605 0 15.606 7.001 15.606 15.606s-7 15.606-15.606 15.606z" fill="#60b7ff"/></g><g><circle cx="375.957" cy="267.406" fill="#d8ecfe" r="42.606"/><path d="m418.559 267.401c0 23.54-19.07 42.61-42.6 42.61-4.79 0-9.4-.79-13.7-2.25 16.81-5.7 28.91-21.61 28.91-40.36 0-18.74-12.1-34.65-28.91-40.35 4.3-1.46 8.91-2.25 13.7-2.25 23.531 0 42.6 19.07 42.6 42.6z" fill="#c4e2ff"/><path d="m375.956 283.012c-8.604 0-15.605-7.001-15.605-15.606s7.001-15.606 15.605-15.606c8.605 0 15.606 7.001 15.606 15.606s-7 15.606-15.606 15.606z" fill="#60b7ff"/></g></g></g><g><path d="m511.327 340.407c.489-2.125 1.291-2.667-.225-6.351l-41.82-81.531c-20.162-39.307-57.625-65.603-100.487-71.626l-16.714-42.103c-3.514-8.86-11.945-14.585-21.481-14.585h-10.798l-11.287-30.511c-3.339-9.03-12.052-15.098-21.681-15.098h-23.404v-24.775c11.01-3.246 19.07-13.439 19.07-25.486 0-14.651-11.919-26.57-26.57-26.57s-26.57 11.919-26.57 26.57c0 12.046 8.061 22.24 19.07 25.486v24.775h-23.405c-9.629 0-18.342 6.067-21.681 15.097l-11.286 30.513h-10.798c-9.536 0-17.968 5.725-21.48 14.583l-16.715 42.106c-42.862 6.022-80.325 32.319-100.487 71.626l-41.82 81.531c-1.499 2.884-.869 7.926 2.772 9.829l49.89 30.381c19.856 12.349 44.838 18.489 68.585 17.693l-36.875 47.843c-1.482 2.023-2.228 5.055-.747 7.974l24.088 47.433h-21.593c-4.143 0-7.5 3.358-7.5 7.5s3.357 7.5 7.5 7.5h71.314c2.607 0 5.028-1.354 6.393-3.577 1.363-2.222 1.476-4.994.295-7.319l-27.477-54.106 29.853-38.734c.037 14.636 11.955 26.533 26.6 26.533h69.516c4.143 0 7.5-3.358 7.5-7.5s-3.357-7.5-7.5-7.5h-69.516c-6.397 0-11.602-5.205-11.602-11.602v-14.447h147.352v14.447c0 6.397-5.204 11.602-11.602 11.602h-19.468c-4.143 0-7.5 3.358-7.5 7.5s3.357 7.5 7.5 7.5h19.468c14.645 0 26.562-11.897 26.6-26.533l29.853 38.734-27.477 54.106c-1.181 2.325-1.068 5.097.295 7.319 1.364 2.223 3.785 3.577 6.393 3.577h71.314c4.143 0 7.5-3.358 7.5-7.5s-3.357-7.5-7.5-7.5h-21.593l24.088-47.433c1.076-2.192 1.239-5.451-.747-7.974l-36.874-47.845c23.266.886 48.323-5.21 68.585-17.693l49.89-30.381c1.007-.706 2.172-1.541 2.996-3.478zm-266.968-312.066c0-6.38 5.19-11.57 11.57-11.57s11.57 5.19 11.57 11.57-5.19 11.57-11.57 11.57-11.57-5.19-11.57-11.57zm-26.947 70.561c1.173-3.17 4.231-5.3 7.612-5.3h61.811c3.381 0 6.439 2.13 7.612 5.301l9.36 25.306h-95.756zm-43.69 45.424c1.232-3.107 4.191-5.114 7.538-5.114h149.34c3.347 0 6.306 2.007 7.539 5.117l14.009 35.289c-.031-.063-21.79-.033-22.196-.039v-10.686c0-4.142-3.357-7.5-7.5-7.5s-7.5 3.358-7.5 7.5v10.686h-18.262v-10.686c0-4.142-3.357-7.5-7.5-7.5s-7.5 3.358-7.5 7.5v10.686h-18.26v-10.686c0-4.142-3.357-7.5-7.5-7.5s-7.5 3.358-7.5 7.5v10.686h-18.261v-10.686c0-4.142-3.357-7.5-7.5-7.5s-7.5 3.358-7.5 7.5v10.686h-18.261v-10.686c0-4.142-3.357-7.5-7.5-7.5s-7.5 3.358-7.5 7.5v10.686c-6.461.03-16.642-.062-22.196.039zm-48.428 350.884-22.003-43.329h20.678l22.003 43.329zm-.411-58.328h-18.563l34.622-44.923h18.563zm261.682 58.328h-20.678l22.003-43.329h20.678zm18.975-58.328h-18.563l-34.622-44.923h18.563zm45.099-75.428c-16.657 10.143-35.769 15.504-55.27 15.504h-278.88c-19.501 0-38.612-5.361-55.27-15.504l-27.054-16.475h45.425c4.143 0 7.5-3.358 7.5-7.5s-3.357-7.5-7.5-7.5h-59.884l36.217-70.608c20.417-39.969 61.425-64.758 106.056-64.793h187.902c43.624-.364 85.96 24.969 106.056 64.793l36.217 70.608h-377.332c-4.143 0-7.5 3.358-7.5 7.5s3.357 7.5 7.5 7.5h362.872z"/><path d="m186.009 267.406c0-27.628-22.478-50.106-50.106-50.106s-50.105 22.478-50.105 50.106 22.478 50.106 50.105 50.106c27.628 0 50.106-22.478 50.106-50.106zm-85.212 0c0-19.357 15.748-35.106 35.105-35.106s35.106 15.749 35.106 35.106-15.749 35.106-35.106 35.106-35.105-15.749-35.105-35.106z"/><path d="m159.009 267.406c0-12.741-10.365-23.106-23.106-23.106-12.74 0-23.105 10.365-23.105 23.106s10.365 23.106 23.105 23.106 23.106-10.365 23.106-23.106zm-31.212 0c0-4.47 3.636-8.106 8.105-8.106s8.106 3.636 8.106 8.106-3.637 8.106-8.106 8.106-8.105-3.636-8.105-8.106z"/><path d="m255.93 317.512c27.629 0 50.106-22.478 50.106-50.106s-22.478-50.106-50.106-50.106-50.106 22.478-50.106 50.106 22.477 50.106 50.106 50.106zm0-85.212c19.357 0 35.106 15.749 35.106 35.106s-15.749 35.106-35.106 35.106-35.106-15.749-35.106-35.106 15.748-35.106 35.106-35.106z"/><path d="m255.93 290.512c12.741 0 23.106-10.365 23.106-23.106s-10.365-23.106-23.106-23.106c-12.74 0-23.105 10.365-23.105 23.106s10.364 23.106 23.105 23.106zm0-31.212c4.47 0 8.106 3.636 8.106 8.106s-3.637 8.106-8.106 8.106-8.105-3.636-8.105-8.106 3.635-8.106 8.105-8.106z"/><path d="m375.957 317.512c27.628 0 50.105-22.478 50.105-50.106s-22.477-50.106-50.105-50.106c-27.629 0-50.106 22.478-50.106 50.106s22.477 50.106 50.106 50.106zm0-85.212c19.357 0 35.105 15.749 35.105 35.106s-15.748 35.106-35.105 35.106-35.106-15.749-35.106-35.106 15.748-35.106 35.106-35.106z"/><path d="m375.956 290.512c12.741 0 23.106-10.365 23.106-23.106s-10.365-23.106-23.106-23.106c-12.74 0-23.105 10.365-23.105 23.106s10.365 23.106 23.105 23.106zm0-31.212c4.47 0 8.106 3.636 8.106 8.106s-3.637 8.106-8.106 8.106-8.105-3.636-8.105-8.106 3.635-8.106 8.105-8.106z"/></g></g></svg>