<svg id="Capa_1" enable-background="new 0 0 511.99 511.99" height="512" viewBox="0 0 511.99 511.99" width="512" xmlns="http://www.w3.org/2000/svg"><g><g><path d="m469.945 435.528h-427.9c-11.544 0-21.974-6.889-26.504-17.507l-7.273-17.044c-2.676-6.272 1.926-13.24 8.745-13.24h477.964c6.82 0 11.422 6.967 8.745 13.24l-7.273 17.044c-4.531 10.618-14.96 17.507-26.504 17.507z" fill="#978ecb"/><path d="m503.725 400.975-7.28 17.05c-4.53 10.61-14.96 17.5-26.5 17.5h-43.91c11.54 0 21.97-6.89 26.5-17.5l7.28-17.05c2.67-6.27-1.93-13.24-8.75-13.24h43.91c6.82 0 11.42 6.97 8.75 13.24z" fill="#8379c1"/><path d="m422.33 435.528h-332.67l33.601 42.783c7.754 9.873 19.612 15.638 32.166 15.638h201.136c12.553 0 24.412-5.765 32.165-15.638z" fill="#b5adb6"/><path d="m422.325 435.525-33.6 42.79c-7.75 9.87-19.61 15.63-32.16 15.63h-64.61c12.55 0 24.41-5.76 32.16-15.63l33.61-42.79z" fill="#a79ba7"/><path d="m398.981 321.565h-285.972l-76.068 66.172h438.108z" fill="#978ecb"/><path d="m475.045 387.735h-43.91l-76.06-66.17h43.91z" fill="#8379c1"/><path d="m222.961 31.908h66.069c60.725 0 109.952 49.227 109.952 109.952v142.686h-285.973v-142.686c0-60.725 49.227-109.952 109.952-109.952z" fill="#d8ecfe"/><path d="m398.985 141.855v142.69h-43.91v-142.69c0-60.72-49.23-109.95-109.96-109.95h43.91c60.73 0 109.96 49.23 109.96 109.95z" fill="#c4e2ff"/><path d="m113.009 284.546h285.973v37.019h-285.973z" fill="#bbec6c"/><path d="m355.075 284.545h43.91v37.02h-43.91z" fill="#8de02b"/><path d="m315.655 228.908-59.66-18.276-59.66 18.276c-12.448 3.813-22.241 13.479-26.217 25.876l-9.546 29.762h190.846l-9.546-29.762c-3.976-12.397-13.769-22.062-26.217-25.876z" fill="#0ab69f"/><path d="m341.872 254.784c-3.976-12.397-13.769-22.063-26.217-25.876l-59.66-18.276-14.81 4.537 44.85 13.739c12.448 3.813 22.241 13.479 26.217 25.876l9.546 29.762h29.62z" fill="#04a58a"/><g><path d="m314.824 154.801v-9.021c0-27.005-21.891-48.896-48.896-48.896h-19.865c-27.005 0-48.896 21.891-48.896 48.896v9.021c-7.712 3.3-5.366 15.661-5.677 22.225 0 11.659 6.048 22.403 15.707 28.436 4.77 17.689 21.451 28.909 36.317 37.827 7.587 4.943 17.376 4.943 24.963 0 14.88-8.931 31.534-20.126 36.317-37.827 9.659-6.033 15.707-16.776 15.707-28.436-.315-6.591 2.037-18.905-5.677-22.225z" fill="#6cf5c2"/></g><path d="m314.824 154.801v-9.021c0-27.004-21.891-48.896-48.896-48.896h-19.865c-1.646 0-3.273.084-4.878.243 24.714 2.448 44.018 23.295 44.018 48.653 0 4.297 1.286 8.478 3.603 12.097 3.255 5.084 1.825 13.918 2.074 19.149 0 10.688-5.082 20.606-13.369 26.831-1.487 1.117-2.603 2.646-3.153 4.423-4.743 15.327-11.559 19.248-25.614 27.684-3.415 2.225-7.276 3.439-11.182 3.661 1.994 1.267 3.988 2.486 5.951 3.663 7.587 4.943 17.376 4.943 24.963 0 14.88-8.93 31.534-20.125 36.317-37.827 9.659-6.033 15.707-16.776 15.707-28.436-.314-6.59 2.038-18.904-5.676-22.224z" fill="#00f2a6"/><g><circle cx="135.211" cy="387.737" fill="#8ac9fe" r="21.624"/><path d="m135.211 366.114c-3.943 0-7.627 1.072-10.81 2.916 6.458 3.74 10.813 10.708 10.813 18.708s-4.356 14.968-10.813 18.708c3.183 1.843 6.867 2.915 10.81 2.915 11.942 0 21.623-9.681 21.623-21.624s-9.68-21.623-21.623-21.623z" fill="#60b7ff"/><circle cx="255.995" cy="387.737" fill="#8ac9fe" r="21.624"/><path d="m255.995 366.114c-3.943 0-7.627 1.072-10.81 2.916 6.458 3.74 10.814 10.708 10.814 18.708s-4.356 14.968-10.814 18.708c3.183 1.843 6.867 2.915 10.81 2.915 11.942 0 21.624-9.681 21.624-21.624s-9.682-21.623-21.624-21.623z" fill="#60b7ff"/><circle cx="376.779" cy="387.737" fill="#8ac9fe" r="21.624"/><path d="m376.779 366.114c-3.943 0-7.627 1.072-10.81 2.916 6.458 3.74 10.813 10.708 10.813 18.708s-4.356 14.968-10.813 18.708c3.183 1.843 6.867 2.915 10.81 2.915 11.942 0 21.624-9.681 21.624-21.624s-9.682-21.623-21.624-21.623z" fill="#60b7ff"/></g></g><g><path d="m401.683 38.124h5.083v5.083c0 4.142 3.358 7.5 7.5 7.5s7.5-3.358 7.5-7.5v-5.083h5.083c4.142 0 7.5-3.358 7.5-7.5s-3.358-7.5-7.5-7.5h-5.083v-5.083c0-4.142-3.358-7.5-7.5-7.5s-7.5 3.358-7.5 7.5v5.083h-5.083c-4.142 0-7.5 3.358-7.5 7.5s3.358 7.5 7.5 7.5z"/><path d="m509.163 387.865c-3.158-4.777-8.462-7.63-14.188-7.63h-17.122l-71.371-62.086v-176.289c0-64.763-52.689-117.452-117.452-117.452h-66.068c-64.763 0-117.452 52.688-117.452 117.452v107.533c0 4.142 3.358 7.5 7.5 7.5s7.5-3.358 7.5-7.5v-107.533c0-56.492 45.96-102.452 102.452-102.452h66.068c56.492 0 102.452 45.959 102.452 102.452v135.186h-34.594l-7.871-24.553c-4.726-14.723-16.375-26.221-31.164-30.759l-10.41-3.189c1.487-2.622 2.757-5.404 3.756-8.368 10.431-7.64 16.803-20.084 16.803-33.151 0-.119-.003-.238-.008-.357-.05-1.05-.008-2.494.037-4.023.184-6.256.471-16.024-5.706-21.804v-5.062c0-31.097-25.299-56.396-56.396-56.396h-19.865c-31.097 0-56.396 25.299-56.396 56.396v5.057c-6.177 5.777-5.89 15.562-5.706 21.831.045 1.523.087 2.961.038 4.003-.005.118-.008.237-.008.355 0 13.066 6.372 25.51 16.802 33.149.998 2.965 2.267 5.748 3.754 8.371l-10.411 3.189c-14.787 4.537-26.436 16.035-31.162 30.76l-7.87 24.55h-42.094c-4.142 0-7.5 3.358-7.5 7.5v33.603l-71.371 62.086h-17.125c-5.726 0-11.03 2.853-14.188 7.63-3.159 4.779-3.706 10.779-1.459 16.055l7.28 17.049c5.72 13.398 18.83 22.055 33.397 22.055h43.966l31.352 39.919c9.237 11.761 23.11 18.505 38.064 18.505h201.136c14.954 0 28.827-6.745 38.064-18.505l33.602-42.783c3.326-3.913 1.261-11.984-5.898-12.136h-380.286c-8.55 0-16.245-5.081-19.603-12.945l-7.277-17.043c-.35-.822-.099-1.487.174-1.899.272-.412.783-.902 1.675-.902h90.056c3.317 12.436 14.674 21.625 28.14 21.625s24.823-9.189 28.14-21.625h64.504c3.317 12.436 14.674 21.625 28.14 21.625 13.467 0 24.823-9.189 28.14-21.625h64.504c3.317 12.436 14.674 21.625 28.14 21.625s24.823-9.189 28.14-21.625h90.056c.892 0 1.403.49 1.675.902.273.413.524 1.077.177 1.893l-7.28 17.05c-3.358 7.864-11.052 12.945-19.603 12.945h-12.481c-4.142 0-7.5 3.358-7.5 7.5s3.358 7.5 7.5 7.5h12.481c14.568 0 27.677-8.657 33.397-22.055l7.283-17.057c2.246-5.268 1.7-11.267-1.46-16.047zm-167.961 98.584h-21.285l12.516-43.421h29.63zm-58.967 0 4.172-43.421h30.415l-12.516 43.421zm-37.411 0-4.172-43.421h30.686l-4.172 43.421zm-37.141 0-12.516-43.421h30.415l4.172 43.421zm-36.896 0-20.86-43.421h29.63l12.516 43.421zm-41.627-12.77-24.073-30.651h28.199l20.843 43.384c-9.82-.373-18.864-4.959-24.969-12.733zm253.67 0c-6.105 7.773-15.149 12.36-24.969 12.733l20.843-43.384h28.199zm-183.839-296.499c.063-1.558.015-3.209-.036-4.953-.193-6.576.198-10.119 1.163-10.531 2.76-1.181 4.55-3.894 4.55-6.896v-9.021c0-22.826 18.57-41.396 41.396-41.396h19.865c22.826 0 41.396 18.57 41.396 41.396v9.021c0 2.996 1.783 5.705 4.535 6.889.973.419 1.369 3.957 1.177 10.516-.051 1.75-.1 3.408-.036 4.975-.054 8.866-4.71 17.255-12.18 21.92-1.606 1.003-2.773 2.577-3.267 4.405-4.042 14.961-19.12 25.061-32.936 33.352-.079.047-.157.096-.235.146-5.095 3.319-11.68 3.319-16.775 0-.078-.05-.156-.1-.235-.147-13.819-8.29-28.899-18.386-32.934-33.348-.493-1.83-1.661-3.405-3.268-4.409-7.471-4.664-12.127-13.052-12.18-21.919zm-21.735 79.897c3.227-10.053 11.181-17.904 21.275-21.001l15.863-4.859c7.431 7.387 16.502 13.245 25.15 18.436 5.005 3.226 10.729 4.839 16.451 4.839 5.723 0 11.447-1.614 16.452-4.84 8.645-5.192 17.713-11.05 25.144-18.436l15.864 4.86c10.097 3.098 18.052 10.949 21.277 21l6.402 19.97h-29.444l-1.85-11.587c-.653-4.091-4.504-6.88-8.589-6.224-4.09.653-6.877 4.499-6.224 8.589l1.473 9.222h-81.01l1.473-9.222c.653-4.09-2.133-7.936-6.224-8.589-4.09-.654-7.936 2.133-8.589 6.224l-1.85 11.587h-29.445zm214.225 34.969v22.02h-270.972v-22.02zm-275.667 37.02h280.361l58.822 51.17h-50.08c-3.318-12.434-14.674-21.622-28.139-21.622s-24.821 9.188-28.139 21.622h-64.506c-3.318-12.434-14.674-21.622-28.139-21.622s-24.821 9.188-28.139 21.622h-64.505c-3.318-12.434-14.674-21.622-28.139-21.622s-24.821 9.188-28.139 21.622h-50.08zm19.397 72.795c-7.788 0-14.124-6.336-14.124-14.124s6.336-14.124 14.124-14.124 14.124 6.336 14.124 14.124-6.336 14.124-14.124 14.124zm120.784 0c-7.776 0-14.104-6.318-14.122-14.091 0-.012.002-.023.002-.035 0-.011-.002-.022-.002-.033.019-7.771 6.346-14.089 14.122-14.089s14.103 6.317 14.122 14.089c0 .011-.002.022-.002.033 0 .012.002.023.002.035-.018 7.773-6.346 14.091-14.122 14.091zm120.784 0c-7.788 0-14.124-6.336-14.124-14.124s6.336-14.124 14.124-14.124 14.124 6.336 14.124 14.124-6.337 14.124-14.124 14.124z"/><path d="m214.11 178.119 19.92 17.652c1.428 1.265 3.203 1.887 4.971 1.887 2.072 0 4.134-.854 5.616-2.526 2.747-3.1 2.461-7.84-.639-10.587l-19.92-17.652c-3.101-2.748-7.841-2.46-10.587.639-2.748 3.1-2.461 7.84.639 10.587z"/><path d="m272.989 197.658c1.768 0 3.543-.622 4.971-1.887l19.921-17.652c3.1-2.747 3.386-7.487.639-10.587-2.747-3.099-7.486-3.387-10.587-.639l-19.921 17.652c-3.1 2.747-3.386 7.487-.639 10.587 1.482 1.672 3.544 2.526 5.616 2.526z"/><circle cx="457.345" cy="82.515" r="7.5"/></g></g></svg>