<svg id="Capa_1" enable-background="new 0 0 512 512" height="512" viewBox="0 0 512 512" width="512" xmlns="http://www.w3.org/2000/svg"><g><g><path d="m494.761 307.461h-477.522c-5.379 0-9.739 4.36-9.739 9.739v18.665c0 5.379 4.36 9.739 9.739 9.739h477.521c5.379 0 9.739-4.36 9.739-9.739v-18.665c.001-5.378-4.359-9.739-9.738-9.739z" fill="#6cf5c2"/><path d="m504.5 317.198v18.67c0 5.38-4.36 9.74-9.74 9.74h-50.3c5.38 0 9.74-4.36 9.74-9.74v-18.67c0-5.38-4.36-9.74-9.74-9.74h50.3c5.38 0 9.74 4.36 9.74 9.74z" fill="#00f2a6"/><path d="m426.17 400.103h-340.449c-19.593 0-36.772-13.087-41.975-31.977l-6.203-22.521h436.805l-6.203 22.521c-5.203 18.89-22.382 31.977-41.975 31.977z" fill="#918291"/><path d="m474.35 345.608-6.21 22.52c-5.2 18.89-22.38 31.98-41.97 31.98h-50.3c19.59 0 36.77-13.09 41.98-31.98l6.2-22.52z" fill="#837784"/><path d="m474.402 307.461s0-57.863-56.254-92.361h-324.351c-56.254 34.498-56.254 92.361-56.254 92.361z" fill="#b5adb6"/><path d="m418.148 215.1h-50.298c56.254 34.498 56.254 92.361 56.254 92.361h50.299c-.001 0-.001-57.863-56.255-92.361z" fill="#a79ba7"/><path d="m93.797 215.1h324.352v-96.966c0-54.87-44.481-99.352-99.352-99.352h-125.648c-54.87 0-99.352 44.481-99.352 99.352z" fill="#d8ecfe"/><path d="m318.797 18.783h-50.299c54.87 0 99.352 44.481 99.352 99.352v96.965h50.299v-96.966c-.001-54.87-44.482-99.351-99.352-99.351z" fill="#c4e2ff"/><path d="m58.349 493.213h-43.567c-4.022 0-7.282-3.26-7.282-7.282 0-11.768 9.54-21.308 21.308-21.308h36.823v21.308c0 4.021-3.26 7.282-7.282 7.282z" fill="#b5adb6"/><path d="m65.63 464.628v21.3c0 4.02-3.26 7.28-7.28 7.28h-26.06c4.03 0 7.29-3.26 7.29-7.28v-21.3z" fill="#a79ba7"/><path d="m453.651 493.213h43.567c4.022 0 7.282-3.26 7.282-7.282 0-11.768-9.54-21.308-21.308-21.308h-36.823v21.308c0 4.021 3.26 7.282 7.282 7.282z" fill="#b5adb6"/><path d="m504.5 485.927c0 4.02-3.26 7.28-7.28 7.28h-26.06c4.03 0 7.29-3.26 7.29-7.28 0-5.88-2.39-11.21-6.24-15.06-3.86-3.85-9.19-6.24-15.07-6.24h26.05c5.89 0 11.21 2.39 15.07 6.24s6.24 9.181 6.24 15.06z" fill="#a79ba7"/><path d="m286.735 493.213h-61.579c-4.022 0-7.282-3.26-7.282-7.282 0-11.768 9.54-21.308 21.308-21.308h33.528c11.768 0 21.308 9.54 21.308 21.308-.001 4.021-3.261 7.282-7.283 7.282z" fill="#b5adb6"/><path d="m294.02 485.927c0 2.01-.82 3.83-2.13 5.15-1.32 1.32-3.15 2.13-5.16 2.13h-26.05c2.01 0 3.83-.81 5.15-2.13 1.31-1.32 2.13-3.14 2.13-5.15 0-11.76-9.54-21.3-21.31-21.3h26.06c11.77.001 21.31 9.54 21.31 21.3z" fill="#a79ba7"/><path d="m389.68 132.798-21.83 82.3h-245.64v-82.3c0-25.3 20.51-45.81 45.82-45.81h175.83c25.31 0 45.82 20.51 45.82 45.81z" fill="#8ac9fe"/><path d="m364.316 91.807c2.299 8.386 3.533 17.212 3.533 26.328v96.963h21.83v-82.3c.001-17.949-10.327-33.477-25.363-40.991z" fill="#60b7ff"/><g><circle cx="179.286" cy="155.456" fill="#ffe177" r="26"/><path d="m205.29 155.458c0 14.36-11.65 26-26 26-3.19 0-6.25-.58-9.08-1.64 9.88-3.68 16.91-13.2 16.91-24.36s-7.03-20.68-16.91-24.36c2.83-1.06 5.89-1.64 9.08-1.64 14.35 0 26 11.64 26 26z" fill="#ffd15b"/><circle cx="255.945" cy="138.408" fill="#ffe177" r="26"/><path d="m281.94 138.407c0 14.36-11.64 26-25.99 26-3.19 0-6.25-.58-9.08-1.64 9.88-3.68 16.91-13.2 16.91-24.36s-7.03-20.68-16.91-24.36c2.83-1.06 5.89-1.64 9.08-1.64 14.35 0 25.99 11.641 25.99 26z" fill="#ffd15b"/><circle cx="332.605" cy="155.456" fill="#ffe177" r="26"/><path d="m358.6 155.458c0 14.36-11.64 26-26 26-3.19 0-6.25-.58-9.08-1.63 9.88-3.68 16.92-13.2 16.92-24.37s-7.04-20.69-16.92-24.37c2.83-1.05 5.89-1.63 9.08-1.63 14.36 0 26 11.64 26 26z" fill="#ffd15b"/></g><ellipse cx="255.945" cy="37.582" fill="#60b7ff" rx="15.119" ry="18.426"/><path d="m306.189 307.461h-100.488l8.624-21.176c2.511-5.594 8.072-9.192 14.203-9.192h54.835c6.131 0 11.692 3.599 14.203 9.192z" fill="#bbec6c"/><path d="m297.566 286.286c-2.511-5.594-8.072-9.192-14.203-9.192h-29.451c6.131 0 11.692 3.599 14.203 9.192l8.624 21.176h29.451z" fill="#8de02b"/></g><g><path d="m475.375 370.118 4.686-17.012h14.699c9.506 0 17.239-7.733 17.239-17.239v-18.666c0-9.506-7.733-17.239-17.239-17.239h-13.374c-1.947-17.172-11.269-59.817-55.737-88.975v-92.849c0-58.917-47.933-106.85-106.85-106.85h-125.649c-58.917 0-106.85 47.933-106.85 106.85v92.846c-44.472 29.157-53.794 71.805-55.742 88.978h-13.319c-9.506-.001-17.239 7.733-17.239 17.239v18.666c0 9.506 7.733 17.239 17.239 17.239h14.59l4.686 17.012c6.079 22.071 26.313 37.485 49.206 37.485h16.699l-17.014 9.331c-6.973 3.824-12.469 9.984-15.477 17.345l-9.335 22.844h-31.786c-15.885 0-28.808 12.923-28.808 28.808 0 8.151 6.631 14.782 14.782 14.782h43.566c8.151 0 14.782-6.631 14.782-14.782v-19.834l10.684-26.144c1.711-4.188 4.838-7.691 8.804-9.867l40.995-22.483h87.248c4.142 0 7.5-3.358 7.5-7.5s-3.358-7.5-7.5-7.5h-135.14c-16.165 0-30.452-10.884-34.744-26.469l-3.589-13.029h59.953v11.046c0 4.142 3.358 7.5 7.5 7.5s7.5-3.358 7.5-7.5v-11.046h126.159v11.046c0 4.142 3.358 7.5 7.5 7.5s7.5-3.358 7.5-7.5v-11.046h126.16v11.046c0 4.142 3.358 7.5 7.5 7.5s7.5-3.358 7.5-7.5v-11.046h59.843l-3.589 13.029c-4.292 15.584-18.579 26.469-34.744 26.469h-170.17c-4.142 0-7.5 3.358-7.5 7.5 0 .208.014.413.031.617-.017.204-.031.409-.031.617v55.785h-9.319c-15.885 0-28.808 12.923-28.808 28.808 0 8.151 6.631 14.782 14.782 14.782h61.579c8.151 0 14.782-6.631 14.782-14.782 0-15.885-12.923-28.808-28.808-28.808h-9.208v-49.52h114.886l40.995 22.482c3.966 2.176 7.093 5.68 8.804 9.867l10.684 26.144v19.834c0 8.151 6.631 14.782 14.782 14.782h43.566c8.151 0 14.782-6.631 14.782-14.782 0-15.885-12.923-28.808-28.808-28.808h-31.786l-9.335-22.844c-3.008-7.361-8.504-13.521-15.477-17.345l-17.013-9.331h16.589c22.893.002 43.127-15.413 49.206-37.483zm-417.244 115.594h-43.13c.117-7.513 6.266-13.589 13.806-13.589h29.323v13.589zm352.519-367.574v89.46h-280.94v-74.8c0-21.124 17.19-38.31 38.32-38.31h175.83c21.13 0 38.32 17.186 38.32 38.31v47.024c0 4.142 3.358 7.5 7.5 7.5s7.5-3.358 7.5-7.5v-47.024c0-29.396-23.919-53.31-53.32-53.31h-19.977l4.926-13.616c1.409-3.895-.606-8.195-4.501-9.604-3.897-1.41-8.195.606-9.604 4.501l-6.773 18.72h-44.485v-17.45c8.796-3.555 15.119-13.172 15.119-24.455 0-4.047-.814-7.879-2.263-11.295h42.498c50.646-.001 91.85 41.202 91.85 91.849zm-154.705-91.482c4.13 0 7.619 5.004 7.619 10.927s-3.489 10.926-7.619 10.926-7.619-5.003-7.619-10.926 3.489-10.927 7.619-10.927zm-154.645 91.482c0-50.646 41.204-91.85 91.85-91.85h42.439c-1.449 3.416-2.263 7.248-2.263 11.295 0 11.283 6.323 20.9 15.119 24.455v17.45h-44.485l-6.773-18.72c-1.41-3.895-5.708-5.91-9.604-4.501-3.895 1.409-5.91 5.709-4.501 9.604l4.926 13.616h-19.978c-29.401 0-53.32 23.915-53.32 53.31v74.8h-13.41zm-49.487 158.141c8.536-22.423 23.38-40.473 44.133-53.679h320.053c20.753 13.206 35.597 31.256 44.133 53.679 3.64 9.562 5.324 18 6.103 23.682h-155.002l-6.721-16.504c-.033-.082-.068-.163-.104-.243-3.715-8.274-11.976-13.621-21.045-13.621h-54.834c-9.07 0-17.33 5.346-21.045 13.621-.036.08-.071.162-.104.243l-6.721 16.504h-154.949c.779-5.682 2.463-14.119 6.103-23.682zm243.224 23.682h-78.183l4.359-10.705c1.321-2.836 4.18-4.664 7.315-4.664h54.834c3.135 0 5.994 1.827 7.315 4.663zm-277.798 38.144c-1.235 0-2.239-1.004-2.239-2.239v-18.666c0-1.235 1.004-2.239 2.239-2.239h477.521c1.235 0 2.239 1.004 2.239 2.239v18.666c0 1.235-1.004 2.239-2.239 2.239zm269.276 147.607h-61.14c.117-7.513 6.266-13.589 13.806-13.589h33.528c7.541 0 13.689 6.076 13.806 13.589zm210.484 0h-43.129v-13.589h29.323c7.54 0 13.688 6.076 13.806 13.589z"/><path d="m179.286 121.957c-18.472 0-33.5 15.028-33.5 33.5s15.028 33.5 33.5 33.5 33.5-15.028 33.5-33.5-15.029-33.5-33.5-33.5zm0 51.999c-10.201 0-18.5-8.299-18.5-18.5s8.299-18.5 18.5-18.5 18.5 8.299 18.5 18.5-8.3 18.5-18.5 18.5z"/><path d="m255.945 104.909c-18.472 0-33.5 15.028-33.5 33.5s15.028 33.5 33.5 33.5 33.5-15.028 33.5-33.5-15.028-33.5-33.5-33.5zm0 51.999c-10.201 0-18.5-8.299-18.5-18.5s8.299-18.5 18.5-18.5 18.5 8.299 18.5 18.5-8.299 18.5-18.5 18.5z"/><path d="m332.604 121.957c-18.472 0-33.5 15.028-33.5 33.5s15.028 33.5 33.5 33.5 33.5-15.028 33.5-33.5-15.028-33.5-33.5-33.5zm0 51.999c-10.201 0-18.5-8.299-18.5-18.5s8.299-18.5 18.5-18.5 18.5 8.299 18.5 18.5-8.299 18.5-18.5 18.5z"/><path d="m267.03 181.013c-11.576 2.868-21.678.134-21.904.071-3.967-1.136-8.113 1.143-9.27 5.11-1.159 3.977 1.125 8.14 5.101 9.299.374.109 6.411 1.827 15.03 1.827 4.357 0 9.375-.439 14.651-1.747 4.021-.997 6.472-5.063 5.476-9.084s-5.064-6.47-9.084-5.476z"/><path d="m153.627 239.007c-4.142 0-7.5 3.358-7.5 7.5v31.587c0 4.142 3.358 7.5 7.5 7.5s7.5-3.358 7.5-7.5v-31.587c0-4.142-3.357-7.5-7.5-7.5z"/><path d="m128.524 239.099c-4.091-.645-7.933 2.143-8.581 6.234l-5.003 31.587c-.648 4.091 2.143 7.933 6.234 8.581.397.063.792.093 1.183.093 3.625 0 6.813-2.634 7.398-6.328l5.003-31.587c.649-4.09-2.142-7.932-6.234-8.58z"/><path d="m103.543 239.424c-3.913-1.364-8.187.703-9.55 4.615l-11.007 31.587c-1.363 3.911.703 8.187 4.615 9.55.817.285 1.649.419 2.468.419 3.102 0 6.004-1.939 7.083-5.034l11.007-31.587c1.362-3.911-.704-8.186-4.616-9.55z"/><circle cx="397.16" cy="253.788" r="7.5"/><circle cx="179.286" cy="155.456" r="7.5"/><circle cx="255.945" cy="138.407" r="7.5"/><circle cx="332.605" cy="155.456" r="7.5"/></g></g></svg>