<svg id="Capa_1" enable-background="new 0 0 512.002 512.002" height="512" viewBox="0 0 512.002 512.002" width="512" xmlns="http://www.w3.org/2000/svg"><g><g><path d="m311.977 48.219h-111.953c-7.777 0-14.898-4.358-18.436-11.284l-15.038-29.433h178.901l-15.038 29.434c-3.537 6.925-10.658 11.283-18.436 11.283z" fill="#b5adb6"/><path d="m308.706 7.502-15.038 29.434c-3.538 6.926-10.659 11.284-18.436 11.284h36.745c7.777 0 14.898-4.358 18.436-11.284l15.037-29.434z" fill="#a79ba7"/><path d="m217.757 48.219h76.487l173.239 436.69-421.528-3.622z" fill="#6cf5c2"/><path d="m294.244 48.219h-41.745l181.012 456.283h41.745z" fill="#00f2a6"/><path d="m475.256 504.502h-438.51v-28.593c0-6.688 3.071-13.005 8.33-17.136l16.591-13.034c8.957-7.036 21.269-7.988 31.201-2.412l24.118 13.54c9.868 5.54 20.995 8.45 32.312 8.45h63.879c9.495 0 18.878-2.049 27.51-6.006l37.111-17.015c11.29-5.176 24.308-5.005 35.458.467l32.201 15.803c9.051 4.442 18.998 6.751 29.08 6.751h78.928c12.035 0 21.792 9.757 21.792 21.792v17.393z" fill="#d88a55"/><g fill="#c57a44"><path d="m308.711 458.565c9.051 4.442 18.998 6.751 29.08 6.751h36.745c-10.082 0-20.03-2.309-29.08-6.751l-32.201-15.803c-11.15-5.472-24.168-5.643-35.458-.467l-1.157.531z"/><path d="m453.464 465.316h-36.745c12.035 0 21.792 9.756 21.792 21.792v17.394h36.745v-17.394c0-12.035-9.757-21.792-21.792-21.792z"/><path d="m80.241 456.866c9.868 5.54 20.995 8.45 32.312 8.45h36.745c-11.317 0-22.444-2.91-32.312-8.45l-24.118-13.54c-9.932-5.576-22.244-4.624-31.201 2.412l-.52.408z"/></g><g><path d="m309.562 172.516c-2.785 0-5.52.207-8.201.581-10.246-17.278-29.075-28.867-50.62-28.867-23.179 0-43.218 13.412-52.803 32.895-6.188-5.443-14.299-8.751-23.188-8.751-19.403 0-35.132 15.729-35.132 35.132 0 13.5 7.782 22.056 7.782 22.056-5.101 8.71-7.782 27.89-7.782 38.714 0 45.753 37.097 58.82 69.583 58.82 19.118 0 36.099-9.127 46.842-23.255 7.485 13.847 22.131 23.255 38.977 23.255 23.328 0 42.428-18.044 44.14-40.934 17.473-10.198 29.223-29.133 29.223-50.824 0-32.487-26.335-58.822-58.821-58.822z" fill="#0ab69f"/><g><path d="m309.562 172.516c-2.785 0-5.52.207-8.201.581-10.246-17.278-29.075-28.867-50.62-28.867-6.044 0-11.872.92-17.36 2.614 11.444 3.538 21.393 10.477 28.672 19.635 3.062 3.852 7.759 6.041 12.68 6.037h.084c32.486 0 58.821 26.335 58.821 58.821 0 18.979-8.996 35.849-22.95 46.602-3.675 2.832-6.303 6.859-7.399 11.368-3.317 13.647-12.958 24.816-25.642 30.236 5.336 2.28 11.204 3.552 17.374 3.552 23.328 0 42.429-18.044 44.14-40.934 17.473-10.198 29.223-29.133 29.223-50.824-.001-32.486-26.336-58.821-58.822-58.821z" fill="#04a58a"/></g><path d="m237.593 264.274v100.015l-27.514 31.245c-3.883 4.41.396 11.158 6.04 9.527l40.522-11.708 36.653 11.532c5.53 1.74 9.971-4.73 6.359-9.265l-24.692-31.004v-100.342z" fill="#d88a55"/><path d="m299.654 395.621-24.692-31.004v-100.343h-20.159v95.901c0 2.866 1.027 5.636 2.896 7.809l20.586 23.94c2.158 2.709 1.429 6.098-.677 8.026l15.688 4.936c5.528 1.74 9.969-4.73 6.358-9.265z" fill="#c57a44"/><path d="m284.206 219.963c9.073 17.371 2.347 38.808-15.024 47.882-17.371 9.073-38.808 2.347-47.882-15.024" fill="#0ab69f"/></g></g><g><path d="m465.919 460.604-90.078-227.039c.025-.74.04-1.48.04-2.223 0-18.347-7.489-34.976-19.567-46.996l-51.03-128.627h6.693c10.647 0 20.271-5.89 25.115-15.372l15.037-29.434c1.885-3.688.422-8.207-3.267-10.091-3.688-1.885-8.206-.422-10.091 3.267l-15.037 29.434c-2.268 4.439-6.773 7.196-11.758 7.196h-111.952c-4.985 0-9.49-2.757-11.758-7.196l-15.037-29.434c-1.885-3.689-6.404-5.15-10.091-3.267-3.688 1.884-5.151 6.402-3.267 10.091l15.037 29.434c4.844 9.482 14.468 15.372 25.116 15.372h6.693l-42.22 106.407c-18.547 4.598-32.342 21.365-32.374 41.306.11 7.364 1.841 15.199 6.599 22.881-.752 1.837-1.43 3.846-2.048 5.948l-52.621 132.64c-1.527 3.85.356 8.209 4.206 9.737.908.36 1.843.53 2.764.53 2.984 0 5.806-1.793 6.973-4.736l35.707-90.005c2.95 14.259 10.038 25.788 21.205 34.38 11.798 9.077 28.036 14.461 46.958 15.571 4.142.239 7.683-2.914 7.926-7.048.242-4.135-2.914-7.684-7.048-7.926-11.092-.65-26.809-3.344-38.689-12.485-11.236-8.645-16.933-21.648-16.933-38.648 0-7.47 1.323-17.793 3.375-25.735 6.891 4.786 15.248 7.601 24.255 7.601 5.751 0 11.335-1.128 16.596-3.353 3.815-1.613 5.6-6.014 3.987-9.829s-6.014-5.601-9.829-3.987c-3.403 1.439-7.021 2.168-10.754 2.168-15.016-.483-27.217-11.417-27.629-27.636 0-15.235 12.395-27.63 27.63-27.63 6.71 0 13.188 2.445 18.239 6.884 1.754 1.541 4.125 2.177 6.415 1.722 2.29-.456 4.236-1.951 5.267-4.046 8.706-17.703 26.359-28.7 46.07-28.7 18.026 0 34.951 9.655 44.17 25.196 1.545 2.605 4.506 4.024 7.503 3.6 2.416-.342 4.82-.516 7.146-.516 28.298 0 51.32 23.026 51.32 51.33.266 16.824-9.994 35.708-25.501 44.344-2.132 1.244-3.514 3.457-3.698 5.918-1.424 19.059-17.527 33.988-36.661 33.988-4.351 0-8.559-.74-12.561-2.198v-45.942c13.465-12.891 17.448-33.626 8.395-50.959-1.917-3.673-6.448-5.092-10.12-3.176-3.671 1.918-5.093 6.449-3.175 10.12 7.144 13.678 1.828 30.617-11.85 37.762-13.676 7.145-30.617 1.83-37.761-11.849-1.918-3.672-6.449-5.093-10.12-3.176-3.671 1.918-5.093 6.449-3.176 10.12 3.694 7.072 9.102 12.671 15.44 16.592v88.576l-25.647 29.12c-3.962 4.51-4.462 10.944-1.246 16.011 2.513 3.958 6.747 6.217 11.23 6.217 1.248 0 2.516-.175 3.771-.538l24.065-6.956-5.15 10.285c-1.854 3.704-.355 8.209 3.349 10.064 1.078.54 2.224.795 3.352.795 2.75 0 5.397-1.518 6.712-4.144l9.959-19.891 30.567 9.621c5.649 1.77 11.692-.321 15.039-5.204 3.345-4.881 3.114-11.269-.571-15.892l-23.062-28.96v-32.958c4.1 1.021 8.326 1.559 12.561 1.559 11.029 0 21.337-3.531 29.811-9.534l12.899 61.342c.743 3.533 3.86 5.958 7.332 5.958.512 0 1.031-.053 1.551-.162 4.054-.852 6.648-4.829 5.797-8.883l-14.927-70.982c4.439-6.347 7.504-13.728 8.718-21.723 10.378-6.9 18.49-16.537 23.591-27.612l78.883 198.821h-74.139c-8.886 0-17.799-2.069-25.775-5.984l-32.2-15.803c-13.228-6.491-28.495-6.692-41.889-.551l-37.111 17.015c-7.705 3.532-15.908 5.323-24.384 5.323h-63.879c-10.009 0-19.914-2.59-28.641-7.49l-24.118-13.54c-7.238-4.063-15.424-5.388-23.239-4.103l11.76-29.643c1.528-3.85-.355-8.209-4.206-9.737-3.85-1.529-8.21.354-9.737 4.206l-18.021 45.424-12.654 9.941c-7.115 5.59-11.196 13.985-11.196 23.034v28.593c0 4.142 3.358 7.5 7.5 7.5s7.5-3.358 7.5-7.5v-28.593c0-4.415 1.991-8.511 5.463-11.238l16.587-13.031c6.596-5.181 15.583-5.876 22.896-1.771l24.118 13.54c10.965 6.156 23.408 9.41 35.984 9.41h63.879c10.648 0 20.955-2.25 30.635-6.688l37.111-17.015c9.279-4.255 19.86-4.117 29.027.382l32.2 15.803c10.022 4.918 21.221 7.518 32.385 7.518h78.928c7.881 0 14.292 6.411 14.292 14.292v17.394c0 4.142 3.357 7.5 7.5 7.5s7.5-3.358 7.5-7.5v-17.394c.001-11.699-6.896-21.814-16.836-26.504zm-160.757-295.439c-12.333-17.652-32.759-28.433-54.421-28.433-22.547 0-43.008 11.131-55.211 29.552-4.513-2.522-9.457-4.188-14.584-4.942l41.908-105.62h66.295l45.285 114.148c-8.265-3.294-18.806-5.469-29.272-4.705zm-14.683 230.975-31.585-9.941c-.955-.219-2.302-.622-4.334-.051l-35.176 10.167 23.837-27.065c1.206-1.37 1.872-3.132 1.872-4.957v-85.642c2.543.464 5.128.721 7.732.721 4.899 0 9.849-.85 14.635-2.596v87.837c0 1.697.576 3.344 1.633 4.672z"/><path d="m168.597 422.205c3.542 0 6.692-2.52 7.365-6.127l11.947-64.117c.759-4.072-1.927-7.988-5.999-8.747-4.074-.76-7.988 1.927-8.747 5.999l-11.947 64.117c-.759 4.072 1.927 7.988 5.999 8.747.465.086.926.128 1.382.128z"/><path d="m228.537 92.985c-4.07-.759-7.987 1.928-8.747 6l-4.571 24.535c-.759 4.072 1.927 7.988 6 8.747.464.086.926.128 1.382.128 3.542 0 6.692-2.52 7.365-6.128l4.571-24.535c.758-4.072-1.928-7.988-6-8.747z"/><path d="m293.427 98.815c-.853-4.054-4.841-6.649-8.883-5.796-4.054.852-6.648 4.829-5.797 8.883l5.159 24.535c.743 3.533 3.86 5.958 7.332 5.958.512 0 1.031-.053 1.551-.162 4.054-.852 6.648-4.829 5.797-8.883z"/><path d="m136.918 370.383c3.179 0 6.131-2.038 7.146-5.23l8.245-25.935c1.255-3.947-.928-8.165-4.875-9.419-3.945-1.253-8.164.928-9.419 4.875l-8.245 25.935c-1.255 3.947.928 8.165 4.875 9.419.755.241 1.52.355 2.273.355z"/><path d="m386.446 365.214c-1.158-3.977-5.321-6.263-9.298-5.103-3.978 1.159-6.262 5.322-5.103 9.299l9.955 34.167c.954 3.276 3.948 5.404 7.197 5.404.694 0 1.4-.097 2.101-.301 3.978-1.159 6.262-5.322 5.103-9.299z"/><path d="m256.001 73.239c-4.142 0-7.5 3.358-7.5 7.5v39.026c0 4.142 3.358 7.5 7.5 7.5 4.143 0 7.5-3.358 7.5-7.5v-39.026c0-4.142-3.358-7.5-7.5-7.5z"/><circle cx="397.581" cy="428.905" r="7.5"/></g></g></svg>