<svg id="Capa_1" enable-background="new 0 0 512.002 512.002" height="512" viewBox="0 0 512.002 512.002" width="512" xmlns="http://www.w3.org/2000/svg"><g><g><path d="m311.978 48.22h-111.954c-7.777 0-14.898-4.358-18.436-11.284l-15.038-29.434h178.901l-15.038 29.434c-3.537 6.925-10.658 11.284-18.435 11.284z" fill="#b5adb6"/><path d="m345.451 7.502-15.04 29.43c-3.54 6.93-10.66 11.29-18.43 11.29h-36.75c7.78 0 14.9-4.36 18.44-11.29l15.04-29.43z" fill="#a79ba7"/><path d="m217.757 48.22h76.487l175.326 441.948-426.21-2.338z" fill="#6cf5c2"/><path d="m475.261 504.502h-40.75l-181.01-456.28h40.74z" fill="#00f2a6"/><path d="m36.746 504.502v-28.593c0-6.688 3.071-13.005 8.33-17.136l16.591-13.034c8.957-7.036 21.269-7.988 31.201-2.412l24.118 13.54c9.868 5.54 20.995 8.45 32.313 8.45h63.879c9.495 0 18.878-2.049 27.51-6.006l37.111-17.015c11.29-5.176 24.308-5.005 35.458.467l32.201 15.803c9.051 4.442 18.998 6.751 29.08 6.751h78.928c12.035 0 21.792 9.757 21.792 21.792v17.394" fill="#d88a55"/><g fill="#c57a44"><path d="m308.711 458.565c9.051 4.442 18.998 6.751 29.08 6.751h36.745c-10.082 0-20.03-2.309-29.08-6.751l-32.2-15.803c-11.15-5.472-24.168-5.643-35.458-.467l-1.157.531z"/><path d="m80.241 456.866c9.868 5.54 20.995 8.45 32.312 8.45h36.745c-11.317 0-22.444-2.91-32.313-8.45l-24.118-13.54c-9.932-5.576-22.244-4.624-31.201 2.412l-.52.408z"/><path d="m453.464 465.316h-36.745c12.035 0 21.792 9.756 21.792 21.792v17.394h36.745v-17.394c0-12.035-9.757-21.792-21.792-21.792z"/></g><g><path d="m362.271 294.182c0 .85-.08 1.72-.25 2.58-1.22 6.23-6.67 10.73-13.02 10.76-10.61.05-25.7 1.04-29.56 5.98-6.11 7.82-2.73 32.27-16.44 45.13s-87.92 22.04-127.9 23.56c-8.93.34-16.1-1.43-21.75-4.56-5-2.76-8.8-6.59-11.58-10.96-1.65-2.61-2.95-5.42-3.91-8.31-3.75-11.28-2.46-23.85 1.75-31.12 9.53-16.44 38.64-23.12 65.24-24.11 19.77-.74 50.25-9.03 64.61-13.24 5.18-1.52 9.95-4.18 13.96-7.8l23.53-21.2 29.66 15.63 16.22 4.93c5.69 1.73 9.44 6.98 9.44 12.73z" fill="#ffe5c2"/><path d="m352.831 281.452-16.22-4.93-29.66-15.63-6.832 6.156 17.979 9.474 16.22 4.93c5.69 1.73 9.44 6.98 9.44 12.73 0 .85-.08 1.72-.25 2.58-1.22 6.23-6.67 10.73-13.02 10.76-10.61.05-25.7 1.04-29.56 5.98-6.11 7.82-2.73 32.27-16.44 45.13-12.706 11.919-77.376 20.675-118.603 23.103 2.839.416 5.906.583 9.217.457 39.98-1.52 114.19-10.7 127.9-23.56s10.33-37.31 16.44-45.13c3.86-4.94 18.95-5.93 29.56-5.98 6.35-.03 11.8-4.53 13.02-10.76.17-.86.25-1.73.25-2.58-.001-5.75-3.751-11-9.441-12.73z" fill="#fed2a4"/><path d="m190.568 337.582 7.792 14.095c4.006 7.247 4.531 15.913 1.43 23.591l-10.945 27.09 7.949 20.883c1.725 4.077-.439 8.753-4.664 10.077l-10.939 3.428c-3.579 1.122-7.436-.573-9.03-3.968l-34.284-74.392z" fill="#ffe5c2"/><path d="m190.18 363.342c-3.619-.016-6.682 2.609-7.28 6.177-.327 1.952-.868 3.88-1.623 5.749l-10.945 27.09 7.949 20.883c1.725 4.077-.439 8.753-4.664 10.077l-.981.307c1.799 2.818 5.29 4.144 8.555 3.121l10.939-3.428c4.224-1.324 6.388-6 4.664-10.077l-7.949-20.883 10.945-27.09c1.54-3.813 2.186-7.87 1.955-11.876z" fill="#fed2a4"/><path d="m262.203 337.767 10.949 25.364c1.838 4.258 4.395 8.169 7.557 11.562l23.333 25.028c1.968 2.111 4.973 2.905 7.727 2.042l10.137-3.177c4.956-1.553 6.87-7.552 3.73-11.689l-17.932-23.625s7.632-15.324 6.635-30.569z" fill="#ffe5c2"/><path d="m325.638 386.897-17.932-23.625s7.632-15.324 6.635-30.569l-18.439 1.791c.332 14.631-6.709 28.778-6.709 28.778l17.932 23.625c3.14 4.137 1.226 10.136-3.73 11.689l-.317.099.966 1.036c1.968 2.111 4.973 2.905 7.727 2.042l10.137-3.177c4.956-1.553 6.87-7.552 3.73-11.689z" fill="#fed2a4"/></g><g fill="#918291"><path d="m306.952 260.888-13.159 2.642c-8.511 2.455-14.371 10.245-14.371 19.103l4 19.414s14.206-1.131 20.759-10.532 2.771-30.627 2.771-30.627z"/><path d="m204.851 303.132-.098 18.069c-.037 6.918-4.361 13.088-10.852 15.483l-16.249 5.998-18.504 25.614c-4.52 6.256-14.096 5.361-17.377-1.624l-3.89-8.29-.02-.02c-3.75-11.28-2.46-23.85 1.75-31.12 9.53-16.44 38.64-23.12 65.24-24.11z"/></g></g><g><path d="m215.178 205.606 19.355-103.871c.759-4.072-1.927-7.988-5.999-8.747-4.072-.758-7.989 1.927-8.747 5.999l-19.355 103.871c-.759 4.072 1.927 7.988 5.999 8.747.465.086.927.128 1.383.128 3.541.001 6.692-2.519 7.364-6.127z"/><path d="m284.537 93.022c-4.053.853-6.648 4.83-5.796 8.883l28.67 136.31c.743 3.533 3.86 5.958 7.332 5.958.512 0 1.031-.053 1.552-.162 4.053-.853 6.648-4.83 5.796-8.883l-28.67-136.31c-.853-4.054-4.833-6.648-8.884-5.796z"/><path d="m465.92 460.604-33.173-83.614c-1.528-3.85-5.888-5.734-9.737-4.206-3.851 1.527-5.733 5.887-4.206 9.737l29.873 75.295h-74.139c-1.896 0-3.792-.114-5.682-.3l-10.876-51.72c-.853-4.054-4.839-6.646-8.883-5.796-4.054.852-6.648 4.829-5.797 8.883l9.395 44.68c-1.331-.534-2.648-1.099-3.934-1.73l-32.2-15.803c-13.227-6.491-28.496-6.692-41.889-.551l-37.111 17.015c-7.704 3.532-15.907 5.323-24.383 5.323h-28.759c-4.143 0-7.5 3.358-7.5 7.5s3.357 7.5 7.5 7.5h28.759c10.648 0 20.955-2.25 30.635-6.688l37.111-17.015c9.28-4.255 19.859-4.117 29.028.382l32.2 15.803c10.021 4.918 21.22 7.518 32.385 7.518h78.928c7.881 0 14.292 6.411 14.292 14.292v17.394c0 4.142 3.357 7.5 7.5 7.5s7.5-3.358 7.5-7.5v-17.394c-.001-11.7-6.898-21.815-16.837-26.505z"/><path d="m149.298 457.816c-10.01 0-19.913-2.59-28.641-7.49l-24.118-13.54c-7.238-4.063-15.425-5.388-23.239-4.103l149.554-376.961h66.294l116.682 294.1c1.528 3.851 5.89 5.734 9.737 4.205 3.851-1.527 5.733-5.887 4.206-9.737l-114.489-288.57h6.694c10.647 0 20.271-5.89 25.114-15.372l15.038-29.434c1.885-3.688.422-8.207-3.267-10.091-3.688-1.885-8.207-.423-10.091 3.267l-15.038 29.434c-2.268 4.439-6.772 7.196-11.757 7.196h-111.953c-4.984 0-9.489-2.757-11.757-7.196l-15.038-29.434c-1.885-3.689-6.402-5.15-10.091-3.267-3.688 1.884-5.151 6.402-3.267 10.091l15.038 29.434c4.844 9.482 14.467 15.372 25.114 15.372h6.694l-153.622 387.216-12.652 9.939c-7.116 5.59-11.197 13.985-11.197 23.034v28.593c0 4.142 3.357 7.5 7.5 7.5s7.5-3.358 7.5-7.5v-28.593c0-4.415 1.991-8.511 5.463-11.238l16.593-13.034c6.594-5.181 15.582-5.875 22.895-1.77l24.118 13.54c10.966 6.156 23.409 9.41 35.984 9.41 4.143 0 7.5-3.358 7.5-7.5s-3.358-7.501-7.501-7.501z"/><path d="m183.435 443.903 10.938-3.429c4.027-1.262 7.354-4.182 9.127-8.012 1.75-3.782 1.845-8.144.264-11.995l-6.862-18.028 5.88-14.553c26.131-2.291 51.788-6.017 70.561-10.237.607.734 1.229 1.458 1.881 2.157l23.333 25.028c2.872 3.08 6.902 4.763 11.008 4.763 1.49 0 2.99-.222 4.448-.679l10.138-3.177c4.655-1.459 8.319-5.104 9.803-9.752s.608-9.742-2.342-13.628l-15.28-20.13c2.385-6.004 6.061-17.35 5.535-29.041.677-3.704 1.693-11.478 3.381-14.928.623-.421 5.379-3.154 23.788-3.241 9.891-.046 18.447-7.12 20.343-16.806.261-1.317.393-2.674.393-4.034 0-9.078-6.069-17.264-14.759-19.906l-15.537-4.723-28.901-15.23c-.497-.234-2.532-1.128-5.099-.788l-13.158 2.642c-10.657 2.561-19.617 13.268-20.321 24.683-14.48 5.472-46.406 13.514-67.425 14.776-16.934.63-57.677 4.589-71.295 27.599l-.003-.002c-.031.049-.075.122-.126.205-.009.015-.019.029-.027.043-.004.007-.008.015-.012.022-1.282 2.153-7.584 13.974-11.192 43.579-2.271 18.638-2.85 26.587-2.873 26.916-.296 4.131 2.812 7.718 6.943 8.015.183.013.364.02.545.02 3.896 0 7.188-3.015 7.473-6.962.005-.072.501-6.819 2.318-22.141l29.05 63.034c2.518 5.363 7.928 8.619 13.614 8.619 1.479.002 2.977-.218 4.448-.679zm112.176-173.088 4.817-.967c.391 6.701-.085 14.058-2.4 17.379-2.018 2.896-5.541 4.753-8.79 5.88l-1.99-9.661c-1.169-4.634 2.917-10.766 8.363-12.631zm-144.918 94.167c-.559-.052-1.578-.316-2.132-1.496l-3.707-7.901c-8.771-30.605 15.477-41.055 52.454-44.499l-.055 10.074c-.021 3.771-2.411 7.183-5.948 8.489l-16.249 5.998c-1.398.516-2.61 1.437-3.482 2.644l-18.505 25.614c-.766 1.059-1.817 1.132-2.376 1.077zm5.094 14.346c3.74-1.058 7.06-3.345 9.44-6.639l17.167-23.762 14.105-5.207c9.368-3.458 15.699-12.491 15.754-22.479l.06-11.138c19.641-2.01 44.94-8.817 59.268-13.018 1.001-.295 1.985-.63 2.956-.993l1.539 7.468c.723 3.508 3.812 5.987 7.34 5.987.199 0 .399-.008.601-.024 1.815-.145 17.979-1.757 26.317-13.72 4.155-5.961 5.25-14.512 5.249-21.886l17.531 9.238c.42.221.86.402 1.314.541l16.22 4.93c2.427.738 4.122 3.022 4.122 5.554 0 .385-.036.764-.11 1.139-.53 2.711-2.926 4.688-5.695 4.701-13.322.062-29.389 1.126-35.43 8.856-3.922 5.182-5.752 15.524-6.679 24.313.847 12.96-5.804 26.613-5.865 26.737-1.271 2.553-.984 5.606.74 7.878l17.933 23.623-10.136 3.178-23.334-25.029c-1.134-1.589-2.575-2.046-6.157-9.419l-10.948-25.364c-1.642-3.802-6.051-5.554-9.858-3.914-3.803 1.642-5.555 6.055-3.913 9.858l10.052 23.288c-15.842 3.292-35.965 6.218-56.866 8.264.783-3.667.989-7.454.573-11.191-.458-4.116-4.167-7.084-8.283-6.625-4.117.458-7.083 4.167-6.625 8.284.771 3.644-1.443 10.724-3.489 15.036l-8.788 21.752c-.708 1.753-.729 3.71-.056 5.478l7.949 20.883c.033.085.067.168.103.252l-10.914 3.478z"/><path d="m227.366 273.896c.207.017.412.025.617.025 3.865 0 7.147-2.971 7.467-6.893l3.156-38.797c.336-4.128-2.739-7.748-6.867-8.083-4.103-.338-7.748 2.738-8.084 6.867l-3.156 38.797c-.337 4.129 2.739 7.748 6.867 8.084z"/><path d="m248.5 80.74v76.813c0 4.142 3.357 7.5 7.5 7.5s7.5-3.358 7.5-7.5v-76.813c0-4.142-3.357-7.5-7.5-7.5-4.142 0-7.5 3.357-7.5 7.5z"/><circle cx="201.333" cy="240.672" r="7.5"/></g></g></svg>