<svg id="Capa_1" enable-background="new 0 0 512 512" height="512" viewBox="0 0 512 512" width="512" xmlns="http://www.w3.org/2000/svg"><g><g><g><path d="m335.473 92.977h-158.946c-6.308 0-11.914-4.023-13.933-9.999l-4.02-11.897c-1.278-3.782 1.535-7.702 5.527-7.702h183.796c3.992 0 6.805 3.92 5.527 7.702l-4.02 11.897c-2.017 5.976-7.623 9.999-13.931 9.999z" fill="#b5adb6"/><path d="m347.898 63.379h-26.241c3.992 0 6.805 3.92 5.528 7.702l-4.02 11.897c-2.019 5.976-7.625 9.999-13.933 9.999h26.241c6.308 0 11.914-4.023 13.933-9.999l4.02-11.897c1.277-3.782-1.536-7.702-5.528-7.702z" fill="#a79ba7"/><path d="m255.673 8.287c-26.836 0-48.59 21.755-48.59 48.59v6.502h97.181v-6.502c-.001-26.835-21.755-48.59-48.591-48.59z" fill="#d8ecfe"/><path d="m255.673 8.287c-6.842 0-13.351 1.421-19.256 3.973 17.256 7.457 29.335 24.624 29.335 44.617v6.502h38.511v-6.502c0-26.835-21.754-48.59-48.59-48.59z" fill="#c4e2ff"/><path d="m319.121 92.977h-126.242l11.198 22.286c5.235 10.418 15.897 16.993 27.556 16.993h48.734c11.659 0 22.321-6.575 27.556-16.993z" fill="#8ac9fe"/><path d="m292.88 92.977-11.198 22.286c-5.235 10.417-15.897 16.992-27.556 16.992h26.241c11.659 0 22.321-6.575 27.556-16.992l11.199-22.286z" fill="#60b7ff"/></g><path d="m236.477 132.256h39.046l60.906 317.564h-160.858z" fill="#6cf5c2"/><path d="m275.523 132.256h-26.241l60.906 317.564h26.241z" fill="#00f2a6"/><path d="m24.065 503.713h463.871c9.148 0 16.565-7.416 16.565-16.565v-37.328h-386.526l-16.584-6.235-18.146 6.235h-75.745v37.328c0 9.149 7.416 16.565 16.565 16.565z" fill="#918291"/><path d="m504.5 449.82v37.33c0 9.15-7.42 16.56-16.56 16.56h-32.42c9.15 0 16.57-7.41 16.57-16.56v-37.33z" fill="#837784"/><path d="m117.975 449.82h-84.312v-165.091h74.166c5.604 0 10.146 4.543 10.146 10.146z" fill="#8ac9fe"/><path d="m117.97 294.871v154.95h-26.24v-154.95c0-5.6-4.54-10.14-10.14-10.14h26.24c5.6 0 10.14 4.54 10.14 10.14z" fill="#60b7ff"/><path d="m55.342 220.682h-11.533c-5.604 0-10.146 4.543-10.146 10.146v53.901h64.047l-10.151-39.123c-3.808-14.676-17.055-24.924-32.217-24.924z" fill="#d8ecfe"/><path d="m97.71 284.731h-26.24l-10.15-39.13c-2.98-11.47-11.73-20.24-22.65-23.52 1.51-.89 3.27-1.4 5.14-1.4h11.53c15.16 0 28.41 10.25 32.22 24.92z" fill="#c4e2ff"/><path d="m117.975 449.82h85.286v-96.889c0-6.855-5.557-12.412-12.412-12.412h-60.461c-6.855 0-12.412 5.557-12.412 12.412v96.889z" fill="#d8ecfe"/><path d="m190.848 340.519h-26.241c6.855 0 12.412 5.557 12.412 12.412v96.889h26.241v-96.889c.001-6.855-5.556-12.412-12.412-12.412z" fill="#c4e2ff"/><path d="m336.429 449.82h58.541v-186.488c0-4.146-3.361-7.507-7.507-7.507h-43.527c-4.146 0-7.507 3.361-7.507 7.507z" fill="#978ecb"/><path d="m387.463 255.825h-26.241c4.146 0 7.507 3.361 7.507 7.507v186.488h26.241v-186.488c0-4.146-3.361-7.507-7.507-7.507z" fill="#8379c1"/><path d="m426.313 449.82h58.541v-186.488c0-4.146-3.361-7.507-7.507-7.507h-43.527c-4.146 0-7.507 3.361-7.507 7.507z" fill="#978ecb"/><path d="m477.347 255.825h-26.241c4.146 0 7.507 3.361 7.507 7.507v186.488h26.241v-186.488c0-4.146-3.361-7.507-7.507-7.507z" fill="#8379c1"/><path d="m164.674 217.949c2.547-9.121.24-19.312-6.933-26.486-10.588-10.588-27.754-10.588-38.342 0s-10.588 27.754 0 38.342c7.173 7.173 17.365 9.48 26.486 6.933-.309 5.482 1.608 11.065 5.796 15.253 7.8 7.8 20.446 7.8 28.246 0s7.8-20.446 0-28.246c-4.188-4.188-9.771-6.105-15.253-5.796z" fill="#b5adb6"/><path d="m180.991 224.894c-4.276-4.985-10.357-7.281-16.317-6.945 2.547-9.121.24-19.312-6.933-26.486-8.748-8.748-21.983-10.26-32.292-4.553 2.168 1.2 4.21 2.713 6.05 4.553 5.599 5.599 8.233 13.037 7.908 20.37-.136 3.078 1.873 5.92 4.869 6.639 3.448.827 6.717 2.581 9.409 5.273 7.797 7.797 7.555 22-.236 29.802 8.274 6.534 20.516 5.603 27.641-2.821 6.254-7.393 6.205-18.483-.099-25.832z" fill="#a79ba7"/><path d="m119.124 103.318c-5.968 0-11.413 2.229-15.557 5.896-7.086-7.972-17.412-12.999-28.916-12.999 0-12.975-10.519-23.494-23.494-23.494s-23.494 10.519-23.494 23.494c0 9.068 5.141 16.931 12.664 20.847-2.78 5.339-4.36 11.401-4.36 17.837 0 21.364 17.319 38.684 38.684 38.684 16.475 0 30.535-10.303 36.112-24.814 2.598.99 5.415 1.537 8.361 1.537 12.975 0 23.494-10.519 23.494-23.494s-10.519-23.494-23.494-23.494z" fill="#b5adb6"/><g fill="#a79ba7"><path d="m47.943 91.535c.503 2.49 2.892 4.157 5.41 3.818 12.514-1.686 21.298.862 21.298.862 0-12.975-10.519-23.494-23.494-23.494-4.865 0-9.385 1.479-13.135 4.012 5.024 3.387 8.678 8.653 9.921 14.802z"/><path d="m119.124 103.318c-2.504 0-4.907.413-7.17 1.139 3.544 5.379 4.374 13.812 4.42 21.64.076 13.005-10.453 24.19-23.458 24.209-.143 0-.286-.001-.429-.003-4.867-.081-9.366 2.345-12.108 6.366-4.549 6.671-11.13 11.841-18.852 14.626 4.098 1.478 8.516 2.287 13.124 2.287 16.475 0 30.535-10.303 36.112-24.814 2.598.99 5.415 1.537 8.361 1.537 12.975 0 23.494-10.519 23.494-23.494 0-12.974-10.519-23.493-23.494-23.493z"/></g></g><g><path d="m114.097 186.16c-6.538 6.537-10.138 15.229-10.138 24.474s3.6 17.937 10.137 24.474c6.753 6.752 15.897 10.323 25.258 10.12 1.253 4.521 3.651 8.693 7.023 12.066 5.189 5.189 12.088 8.047 19.427 8.047s14.237-2.858 19.426-8.046c5.189-5.189 8.048-12.088 8.048-19.427s-2.858-14.238-8.047-19.426c-3.373-3.373-7.544-5.771-12.066-7.024.204-9.329-3.367-18.505-10.12-25.258-13.495-13.495-35.454-13.495-48.948 0zm43.353 29.772c-.65 2.331-.137 4.832 1.38 6.718s3.844 2.924 6.266 2.788c3.585-.208 6.995 1.079 9.528 3.612 2.355 2.355 3.653 5.488 3.653 8.819s-1.298 6.464-3.654 8.82c-2.355 2.356-5.487 3.653-8.819 3.653s-6.464-1.297-8.819-3.653c-2.532-2.532-3.814-5.916-3.611-9.528.136-2.416-.902-4.749-2.788-6.266-1.348-1.084-3.011-1.656-4.7-1.656-.674 0-1.353.091-2.017.276-6.825 1.904-14.168-.015-19.165-5.013-3.705-3.704-5.744-8.629-5.744-13.868s2.039-10.164 5.744-13.868c7.645-7.647 20.088-7.647 27.734 0 4.998 4.998 6.917 12.341 5.012 19.166z"/><path d="m31.016 119.778c-1.677 4.848-2.549 9.978-2.549 15.121 0 25.466 20.718 46.184 46.184 46.184 16.722 0 32.162-9.244 40.255-23.563 1.392.19 2.8.286 4.219.286 17.09 0 30.994-13.904 30.994-30.994s-13.904-30.994-30.994-30.994c-5.193 0-10.257 1.302-14.756 3.74-6.564-5.518-14.542-9.106-23.018-10.353-3.185-13.726-15.514-23.984-30.194-23.984-17.09 0-30.993 13.904-30.993 30.994-.001 9.211 4.033 17.751 10.852 23.563zm20.14-39.557c8.819 0 15.994 7.175 15.994 15.994 0 4.142 3.357 7.5 7.5 7.5 8.893 0 17.39 3.82 23.311 10.482 2.746 3.09 7.477 3.375 10.574.635 2.926-2.588 6.687-4.013 10.589-4.013 8.819 0 15.994 7.175 15.994 15.994s-7.175 15.994-15.994 15.994c-1.955 0-3.87-.352-5.69-1.045-3.857-1.47-8.188.458-9.672 4.317-4.599 11.966-16.298 20.005-29.111 20.005-17.194 0-31.184-13.989-31.184-31.184 0-5.062 1.182-9.897 3.513-14.372.919-1.765 1.099-3.822.501-5.719-.599-1.897-1.926-3.479-3.69-4.398-5.321-2.77-8.627-8.208-8.627-14.194-.001-8.821 7.174-15.996 15.992-15.996z"/><path d="m248.5 331.225v44.111c0 4.142 3.357 7.5 7.5 7.5s7.5-3.358 7.5-7.5v-44.111c0-4.142-3.357-7.5-7.5-7.5s-7.5 3.358-7.5 7.5z"/><path d="m504.5 442.32h-12.146v-178.988c0-8.275-6.732-15.007-15.007-15.007h-14.264v-23.406c0-4.142-3.357-7.5-7.5-7.5s-7.5 3.358-7.5 7.5v23.406h-14.263c-8.274 0-15.007 6.732-15.007 15.007v178.988h-16.343v-178.988c0-8.275-6.732-15.007-15.008-15.007h-43.526c-8.274 0-15.007 6.732-15.007 15.007v107.567l-28.912-150.742c-.781-4.067-4.702-6.735-8.779-5.953-4.067.78-6.732 4.71-5.953 8.778l42.069 219.338h-116.593v-89.39c0-5.669-2.394-10.78-6.209-14.41l38.126-198.765h26.645l9.323 48.604c.779 4.068 4.712 6.732 8.778 5.953 4.067-.78 6.733-4.71 5.953-8.778l-8.828-46.026c12.874-1.388 24.162-9.108 30.075-20.878l9.122-18.153h11.728c9.532 0 17.986-6.068 21.038-15.099l4.02-11.898c1.371-4.06.698-8.562-1.801-12.043-2.498-3.48-6.548-5.559-10.832-5.559h-36.16c-.536-30.468-25.471-55.092-56.065-55.092-30.593 0-55.528 24.625-56.064 55.092h-35.507c-4.284 0-8.334 2.078-10.832 5.559-2.499 3.481-3.172 7.983-1.801 12.044l4.02 11.897c3.052 9.031 11.506 15.099 21.038 15.099h11.728l9.122 18.153c5.914 11.77 17.201 19.491 30.076 20.878l-37.119 193.51h-64.859v-38.144c0-9.73-7.916-17.646-17.646-17.646h-4.317l-8.694-33.506c-4.665-17.982-20.898-30.541-39.477-30.541h-11.533c-9.729 0-17.646 7.916-17.646 17.646v211.493h-18.663c-4.143 0-7.5 3.358-7.5 7.5v37.328c0 13.269 10.795 24.064 24.064 24.064h463.871c13.27 0 24.064-10.795 24.064-24.064v-37.328c.001-4.142-3.356-7.5-7.499-7.5zm-158.923-371.441-3.276 9.698c-.99 2.931-3.734 4.9-6.827 4.9h-35.716l-6.341-14.598zm-89.904-55.092c22.324 0 40.548 17.894 41.079 40.092h-82.157c.531-22.198 18.754-40.092 41.078-40.092zm27.731 69.691h-54.809l6.341-14.598h42.127zm-106.878 0c-3.093 0-5.837-1.969-6.827-4.9l-3.276-9.698h52.16l-6.341 14.598zm34.252 26.418-5.737-11.418h101.918l-5.737 11.418c-3.986 7.932-11.977 12.86-20.854 12.86h-48.734c-8.879 0-16.869-4.928-20.856-12.86zm223.042 151.429 43.534.007v14.206h-16.012c-4.143 0-7.5 3.358-7.5 7.5s3.357 7.5 7.5 7.5h16.012v12.402h-16.012c-4.143 0-7.5 3.358-7.5 7.5s3.357 7.5 7.5 7.5h16.012v12.402h-16.012c-4.143 0-7.5 3.358-7.5 7.5s3.357 7.5 7.5 7.5h16.012v12.402h-16.012c-4.143 0-7.5 3.358-7.5 7.5s3.357 7.5 7.5 7.5h16.012v12.402h-16.012c-4.143 0-7.5 3.358-7.5 7.5s3.357 7.5 7.5 7.5h16.012v12.402h-16.012c-4.143 0-7.5 3.358-7.5 7.5s3.357 7.5 7.5 7.5h16.012v12.771h-43.541zm-89.883 0 43.534.007v14.206h-17.855c-4.143 0-7.5 3.358-7.5 7.5s3.357 7.5 7.5 7.5h17.855v12.402h-17.855c-4.143 0-7.5 3.358-7.5 7.5s3.357 7.5 7.5 7.5h17.855v12.402h-17.855c-4.143 0-7.5 3.358-7.5 7.5s3.357 7.5 7.5 7.5h17.855v12.402h-17.855c-4.143 0-7.5 3.358-7.5 7.5s3.357 7.5 7.5 7.5h17.855v12.402h-17.855c-4.143 0-7.5 3.358-7.5 7.5s3.357 7.5 7.5 7.5h17.855v12.402h-17.855c-4.143 0-7.5 3.358-7.5 7.5s3.357 7.5 7.5 7.5h17.855v12.771h-43.541zm-213.55 84.694h60.462c2.709 0 4.912 2.204 4.912 4.912v89.389h-70.286v-89.389c0-2.708 2.203-4.912 4.912-4.912zm-89.224-117.191c0-1.459 1.187-2.646 2.646-2.646h11.533c11.745 0 22.008 7.939 24.957 19.308l7.717 29.739h-46.853zm455.837 256.32c0 4.998-4.066 9.064-9.064 9.064h-463.872c-4.998 0-9.064-4.066-9.064-9.064v-29.828h67.758c4.143 0 7.5-3.358 7.5-7.5s-3.357-7.5-7.5-7.5h-41.595v-27.991h15.613c4.143 0 7.5-3.358 7.5-7.5s-3.357-7.5-7.5-7.5h-15.613v-14.463h15.613c4.143 0 7.5-3.358 7.5-7.5s-3.357-7.5-7.5-7.5h-15.613v-14.463h15.613c4.143 0 7.5-3.358 7.5-7.5s-3.357-7.5-7.5-7.5h-15.613v-14.463h15.613c4.143 0 7.5-3.358 7.5-7.5s-3.357-7.5-7.5-7.5h-15.613v-18.711h66.666c1.459 0 2.646 1.187 2.646 2.646v154.945c0 4.142 3.357 7.5 7.5 7.5h379.025z"/><circle cx="256" cy="298.323" r="7.5"/><g><circle cx="145.245" cy="368.434" r="7.5"/><circle cx="145.245" cy="396.449" r="7.5"/><circle cx="145.245" cy="424.464" r="7.5"/></g><g><circle cx="175.99" cy="368.434" r="7.5"/><circle cx="175.99" cy="396.449" r="7.5"/><circle cx="175.99" cy="424.464" r="7.5"/></g></g></g></svg>