<svg id="Capa_1" enable-background="new 0 0 511.997 511.997" height="512" viewBox="0 0 511.997 511.997" width="512" xmlns="http://www.w3.org/2000/svg"><g><g><path d="m85.474 114.439-39.449 69.506-31.71 21.28c-4.259 2.858-6.815 7.651-6.815 12.781v24.198c0 8.501 6.891 15.392 15.392 15.392h221.421l42.649-93.232c3.164-6.916-.703-15.01-8.072-16.894l-169.299-43.287c-9.433-2.412-19.312 1.789-24.117 10.256z" fill="#fe7ab6"/><path d="m278.889 147.469-169.299-43.287c-9.432-2.412-19.311 1.79-24.117 10.257l-7.442 13.113c4.454-2.132 9.617-2.748 14.659-1.459l140.433 35.859c7.369 1.884 11.236 9.978 8.072 16.894l-37.01 78.749h40.127l42.648-93.232c3.165-6.916-.702-15.01-8.071-16.894z" fill="#fe5ca7"/><path d="m244.313 257.595h40.791l17.12-37.391h50.864v-27.837c0-7.467-6.053-13.521-13.521-13.521h-59.231z" fill="#fec0dd"/><g fill="#fea3ce"><path d="m259.62 257.595h25.484l17.12-37.391h-19.874c-3.418 0-6.522 1.993-7.945 5.101z"/><path d="m339.567 178.846h-25.484c7.467 0 13.521 6.053 13.521 13.521v27.837h25.484v-27.837c0-7.467-6.054-13.521-13.521-13.521z"/></g><path d="m285.103 257.591-60.031 137.618c-3.511 8.064-11.474 13.275-20.277 13.275h-126.66l14.924-36.456h101.475l49.782-114.437z" fill="#b5adb6"/><path d="m259.619 257.591-60.031 137.618c-3.511 8.064-11.474 13.275-20.277 13.275h25.484c8.803 0 16.766-5.211 20.277-13.275l60.031-137.618z" fill="#a79ba7"/><path d="m139.007 257.595-26.606 66.259h25.784c4.625 0 9.134-1.444 12.898-4.13l21.42-15.285c5.87-4.189 8.259-11.756 5.859-18.556l-9.985-28.288z" fill="#918291"/><path d="m178.362 285.883-9.985-28.288h-24.942l9.985 28.288c2.4 6.8.011 14.367-5.859 18.556l-21.42 15.285c-3.764 2.686-8.274 4.13-12.898 4.13h24.942c4.625 0 9.134-1.444 12.898-4.13l21.42-15.285c5.869-4.189 8.259-11.756 5.859-18.556z" fill="#837784"/><path d="m46.025 183.945h136.749c7.182 0 13.004-5.822 13.004-13.004 0-7.182-5.822-13.004-13.004-13.004h-121.988z" fill="#ffe177"/><path d="m182.773 157.936h-27.88c7.182 0 13.004 5.822 13.004 13.004 0 7.182-5.822 13.004-13.004 13.004h27.88c7.182 0 13.004-5.822 13.004-13.004.001-7.181-5.822-13.004-13.004-13.004z" fill="#ffd15b"/><path d="m302.224 220.203-17.121 37.392h142.266v-37.392z" fill="#d8ecfe"/><path d="m401.886 220.203h25.484v37.391h-25.484z" fill="#c4e2ff"/><path d="m493.777 257.595h-66.407v-64.347c0-5.138 4.165-9.302 9.302-9.302h34.398c3.655 0 6.971 2.14 8.476 5.47l23.991 53.056c3.205 7.089-1.98 15.123-9.76 15.123z" fill="#fe7ab6"/><path d="m503.536 242.471-23.991-53.056c-1.506-3.33-4.822-5.47-8.476-5.47h-32.459c3.655 0 6.97 2.14 8.476 5.47l23.991 53.056c3.206 7.09-1.979 15.124-9.76 15.124h32.459c7.782 0 12.966-8.034 9.76-15.124z" fill="#fe5ca7"/><path d="m139.006 257.591-45.946 114.437-14.924 36.456h-19.043c-8.236 0-15.754-4.705-19.356-12.112l-10.584-21.795c-2.661-5.474-2.874-11.808-.597-17.454l40.139-99.533h70.311z" fill="#8ac9fe"/><path d="m107.66 257.591-59.631 147.819c3.282 1.969 7.087 3.075 11.064 3.075h19.042l14.924-36.456 45.947-114.437h-31.346z" fill="#60b7ff"/></g><g><path d="m510.37 239.381-23.99-53.057c-2.715-6.001-8.725-9.879-15.311-9.879h-34.397c-9.265 0-16.803 7.538-16.803 16.803v19.456h-59.281v-20.337c0-11.591-9.43-21.021-21.021-21.021h-47.553l1.767-3.863c2.436-5.323 2.385-11.406-.14-16.688-2.523-5.282-7.223-9.143-12.895-10.592l-169.298-43.287c-12.676-3.243-26.039 2.443-32.497 13.821l-38.576 67.966-30.238 20.293c-6.348 4.26-10.137 11.366-10.137 19.009v24.198c0 12.623 10.27 22.892 22.892 22.892h105.02l-54.81 135.89h-14.009c-5.329 0-10.28-3.098-12.609-7.888l-10.585-21.797c-1.727-3.553-1.868-7.697-.387-11.37l26.543-65.817c1.549-3.842-.31-8.211-4.151-9.761-3.842-1.552-8.212.31-9.761 4.15l-26.543 65.818c-3.063 7.599-2.77 16.178.807 23.534l10.586 21.799c4.825 9.921 15.07 16.332 26.101 16.332h145.702c11.792 0 22.45-6.979 27.151-17.777l58.066-133.113h102.094c4.143 0 7.5-3.358 7.5-7.5s-3.357-7.5-7.5-7.5h-95.32l10.252-22.391h112.831v29.891c0 4.142 3.357 7.5 7.5 7.5h66.407c6.213 0 11.934-3.117 15.302-8.337s3.851-11.717 1.291-17.377zm-445.217-73.945h117.62c3.035 0 5.504 2.469 5.504 5.504s-2.469 5.504-5.504 5.504h-123.868zm-50.153 76.767v-24.198c0-2.635 1.307-5.084 3.495-6.553l29.813-20.007h134.465c11.306 0 20.504-9.198 20.504-20.504s-9.198-20.504-20.504-20.504h-109.106l18.33-32.295c2.54-4.475 7.283-7.13 12.265-7.13 1.152 0 2.318.142 3.473.437l169.299 43.287c1.852.474 2.722 1.787 3.075 2.527s.829 2.242.033 3.981l-40.645 88.852h-216.605c-4.352-.001-7.892-3.541-7.892-7.893zm102.472 89.15h20.712c6.223 0 12.189-1.911 17.255-5.525l21.42-15.284c8.541-6.095 12.067-17.263 8.574-27.157l-6.456-18.292h53.896l-43.254 99.434h-85.466zm53.817-42.973c1.28 3.626-.012 7.72-3.143 9.954l-21.42 15.284c-2.508 1.79-5.462 2.735-8.542 2.735h-14.689l20.582-51.259h18.993zm46.907 103.835c-2.32 5.327-7.58 8.77-13.401 8.77h-115.484l8.783-21.456h96.441c2.985 0 5.687-1.771 6.877-4.508l47.819-109.925h24.417zm84.028-179.511c-2.934 0-5.598 1.71-6.819 4.378l-15.114 33.01h-24.297l29.16-63.745h54.415c3.319 0 6.021 2.701 6.021 6.021v20.337h-43.366zm194.251 35.92c-.354.549-1.176 1.47-2.698 1.47h-58.907v-56.847c0-.994.809-1.803 1.803-1.803h34.397c.707 0 1.352.416 1.643 1.06l23.99 53.057c.626 1.387.126 2.515-.228 3.063z"/><path d="m115.659 225.721h45.511c4.143 0 7.5-3.358 7.5-7.5s-3.357-7.5-7.5-7.5h-45.511c-4.143 0-7.5 3.358-7.5 7.5s3.358 7.5 7.5 7.5z"/><circle cx="80.63" cy="218.219" r="7.5"/></g></g></svg>