<svg id="Capa_1" enable-background="new 0 0 512 512" height="512" viewBox="0 0 512 512" width="512" xmlns="http://www.w3.org/2000/svg"><g><g><path d="m222.793 322.692-22.135 18.431-40.804 33.984v-25.998c0-6.691 1.633-13.273 4.759-19.187l16.758-31.694 16.449-31.126z" fill="#918291"/><path d="m222.793 322.692-22.135 18.431c-.07-.119-.129-.249-.189-.378l-19.098-42.517 16.449-31.126z" fill="#837784"/><path d="m217.336 156.109-10.823 108.543-35.706 10.057-129.98 36.602v6.263c0 8.663-5.476 16.37-13.661 19.207l-9.579 3.326c-4.929 1.713-10.087-1.952-10.087-7.179v-61.595c0-9.151 3.644-17.933 10.116-24.405l79.986-79.986c6.93-6.94 16.35-10.833 26.157-10.833z" fill="#d8ecfe"/><path d="m217.336 156.109-10.823 108.543-35.706 10.057-18.729-41.69c-6.552-14.587-6.482-31.285.189-45.813l14.278-31.096h50.791z" fill="#c4e2ff"/><path d="m289.207 322.693 62.94 52.413v-26.001c0-6.687-1.634-13.272-4.759-19.183l-33.211-62.822z" fill="#918291"/><path d="m347.389 329.922-33.212-62.822-10.14 22.576 21.277 40.246c3.125 5.911 4.759 12.497 4.759 19.183v7.618l22.075 18.383v-26.001c-.001-6.687-1.634-13.272-4.759-19.183z" fill="#837784"/><path d="m305.491 264.654 165.678 46.657v6.269c0 8.657 5.483 16.363 13.662 19.201l9.583 3.325c4.933 1.712 10.082-1.952 10.082-7.173v-61.596c0-9.156-3.637-17.937-10.112-24.411l-79.982-79.982c-6.939-6.938-16.349-10.837-26.162-10.837h-93.58z" fill="#d8ecfe"/><path d="m494.384 246.925-79.982-79.982c-6.939-6.939-16.349-10.837-26.162-10.837h-33.306c9.812 0 19.223 3.898 26.162 10.837l79.982 79.982c6.474 6.474 10.112 15.255 10.112 24.411v46.76c.215 8.444 5.627 15.903 13.641 18.683l9.583 3.325c4.933 1.712 10.082-1.952 10.082-7.173v-61.596c-.001-9.155-3.638-17.936-10.112-24.41z" fill="#c4e2ff"/><path d="m269.278 348.396h-26.556c-5.102 0-9.729-2.994-11.82-7.648l-48.388-107.732c-6.549-14.581-6.48-31.281.19-45.807l38.622-84.11c2.214-4.822 7.033-7.912 12.339-7.912h44.669c5.306 0 10.125 3.09 12.339 7.912l38.622 84.11c6.67 14.526 6.74 31.226.19 45.807l-48.388 107.732c-2.09 4.654-6.717 7.648-11.819 7.648z" fill="#b5adb6"/><path d="m329.295 187.209-38.622-84.11c-2.214-4.822-7.033-7.912-12.339-7.912h-19.173c5.306 0 10.125 3.09 12.339 7.912l38.622 84.11c6.67 14.526 6.74 31.226.19 45.807l-48.388 107.732c-2.09 4.654-6.718 7.648-11.82 7.648h19.173c5.102 0 9.729-2.994 11.82-7.648l48.388-107.732c6.55-14.581 6.48-31.281-.19-45.807z" fill="#a79ba7"/><path d="m242.836 123.067-34.795 75.776c-3.313 7.215-3.348 15.507-.095 22.749l44.432 98.924h7.243l44.432-98.924c3.253-7.242 3.219-15.534-.095-22.749l-34.794-75.776z" fill="#bbec6c"/><path d="m303.959 198.843-34.794-75.776h-22.795l34.795 75.776c3.313 7.215 3.348 15.507.095 22.749l-36.656 81.611 7.776 17.312h7.243l44.432-98.924c3.251-7.241 3.217-15.533-.096-22.748z" fill="#8de02b"/><path d="m241.169 95.187h29.661v-22.387c0-8.191-6.64-14.831-14.831-14.831-8.191 0-14.831 6.64-14.831 14.831v22.387z" fill="#978ecb"/><path d="m256 57.969c-2.705 0-5.232.736-7.415 2 4.428 2.566 7.415 7.345 7.415 12.831v22.387h14.831v-22.387c0-8.191-6.64-14.831-14.831-14.831z" fill="#8379c1"/><path d="m242.836 123.067h26.328v79.804h-26.328z" fill="#b5adb6"/></g><g><path d="m310.774 195.714-34.794-75.776c-1.093-2.095-3.226-4.379-6.816-4.37h-26.328c-2.253.064-5.42 1.181-6.816 4.37l-34.794 75.776c-4.217 9.183-4.261 19.736-.121 28.952l44.432 98.923c1.21 2.694 3.889 4.427 6.842 4.427h7.243c2.953 0 5.631-1.733 6.842-4.427l44.431-98.923c4.14-9.217 4.096-19.77-.121-28.952zm-49.11-65.147v64.803h-11.328v-64.803zm-46.807 71.406 20.479-44.599v44.188l-12.529 34.81-8.019-17.853c-2.366-5.267-2.341-11.298.069-16.546zm41.143 108.301-24.343-54.198 16.451-45.705h15.785l16.451 45.705zm41.211-91.754-8.018 17.852-12.529-34.81v-44.188l20.479 44.599c2.41 5.248 2.435 11.279.068 16.547z"/><path d="m499.687 241.625-79.982-79.982c-6.492-6.501-14.956-10.813-23.965-12.373v-15.93c0-4.142-3.358-7.5-7.5-7.5s-7.5 3.358-7.5 7.5v15.27h-14.408v-15.27c0-4.142-3.358-7.5-7.5-7.5s-7.5 3.358-7.5 7.5v15.27h-31.508l-22.335-48.64c-3.426-7.461-10.945-12.282-19.155-12.282h-.004v-14.888c0-12.313-10.018-22.331-22.331-22.331s-22.33 10.018-22.33 22.331v14.888h-.004c-8.21 0-15.729 4.821-19.155 12.282l-22.335 48.64h-31.508v-15.27c0-4.142-3.358-7.5-7.5-7.5s-7.5 3.358-7.5 7.5v15.27h-14.407v-15.27c0-4.142-3.358-7.5-7.5-7.5s-7.5 3.358-7.5 7.5v15.93c-9.009 1.56-17.472 5.871-23.961 12.37l-79.986 79.986c-7.825 7.825-12.313 18.653-12.313 29.707v61.595c0 4.877 2.374 9.477 6.349 12.304 2.587 1.84 5.659 2.792 8.759 2.792 1.662 0 3.333-.274 4.939-.833l9.576-3.325c11.188-3.879 18.704-14.445 18.704-26.293v-.583l134.689-37.929-25.035 47.355c-3.682 6.965-5.628 14.811-5.628 22.688v51.747c0 4.142 3.358 7.5 7.5 7.5s7.5-3.358 7.5-7.5v-22.231l33.067-27.537c3.183-2.65 3.615-7.379.964-10.562-2.65-3.183-7.378-3.615-10.562-.964l-23.469 19.543v-9.996c0-5.444 1.345-10.865 3.889-15.678l26.033-49.243 26.786 59.637c3.295 7.335 10.62 12.075 18.661 12.075h26.556c8.041 0 15.366-4.74 18.662-12.076l4.061-9.042 52.647 43.841v22.231c0 4.142 3.358 7.5 7.5 7.5s7.5-3.358 7.5-7.5v-51.747c0-7.878-1.946-15.724-5.628-22.688l-25.035-47.355 77.33 21.776c.68.191 1.363.283 2.037.283 3.274 0 6.284-2.162 7.215-5.469 1.123-3.987-1.199-8.129-5.187-9.252l-85.798-24.161 6.825-15.196 165.592 45.043-.001 40.882c-.012.023-.062.062-.125.054l-9.582-3.327c-5.155-1.788-8.618-6.659-8.618-12.122v-6.263c0-3.359-2.233-6.309-5.467-7.219l-29.12-8.2c-3.985-1.122-8.129 1.199-9.252 5.187-1.123 3.987 1.199 8.129 5.187 9.252l23.652 6.661v.583c0 11.848 7.517 22.415 18.701 26.292l9.578 3.325c1.607.559 3.278.833 4.941.833 3.099 0 6.172-.953 8.758-2.792 3.975-2.827 6.349-7.427 6.349-12.304v-61.595c0-11.051-4.488-21.879-12.313-29.705zm-251.018-168.825c0-4.042 3.289-7.331 7.331-7.331s7.331 3.289 7.331 7.331v14.888h-14.661v-14.888zm-225.75 179.431 79.99-79.99c5.479-5.486 13.078-8.632 20.85-8.632h61.529l-9.4 20.47c-7.132 15.534-7.613 33.249-1.435 49.089l-159.453 43.372v-5.207c0-7.106 2.887-14.068 7.919-19.102zm15.874 51.861c-3.233.911-5.467 3.86-5.467 7.219v6.263c0 5.463-3.463 10.334-8.621 12.123l-9.613 3.337c-.026-.004-.078-.042-.092-.105v-40.842l165.593-45.043 6.825 15.196zm230.485 36.804h-26.556c-2.145 0-4.099-1.265-4.978-3.221l-48.388-107.732c-5.663-12.608-5.603-27.043.165-39.604l38.622-84.11c.988-2.151 3.156-3.542 5.523-3.542h44.669c2.367 0 4.535 1.39 5.523 3.542l38.622 84.109c5.768 12.561 5.828 26.996.165 39.604l-48.388 107.732c-.88 1.958-2.834 3.222-4.979 3.222zm75.369 8.209v9.996l-46.266-38.528 16.344-36.388 26.033 49.243c2.545 4.812 3.889 10.233 3.889 15.677zm-7.101-115.937c6.178-15.84 5.698-33.555-1.435-49.089l-9.399-20.47h61.529c7.772 0 15.372 3.146 20.854 8.636l79.985 79.986c5.033 5.033 7.92 11.996 7.92 19.102v5.207z"/><path d="m229.274 413.809c-4.024-.974-8.08 1.5-9.053 5.526l-7.966 32.93c-.974 4.026 1.5 8.079 5.526 9.053.592.144 1.185.212 1.769.212 3.383 0 6.454-2.305 7.284-5.739l7.966-32.93c.974-4.025-1.5-8.078-5.526-9.052z"/><path d="m256 393.352c-4.142 0-7.5 3.358-7.5 7.5v53.177c0 4.142 3.358 7.5 7.5 7.5s7.5-3.358 7.5-7.5v-53.177c0-4.143-3.358-7.5-7.5-7.5z"/><path d="m291.779 419.335c-.974-4.026-5.025-6.503-9.053-5.526-4.026.974-6.5 5.027-5.526 9.053l7.966 32.93c.831 3.434 3.9 5.739 7.284 5.739.583 0 1.177-.069 1.769-.212 4.026-.974 6.5-5.027 5.526-9.053z"/></g></g></svg>