<svg id="Capa_1" enable-background="new 0 0 512 512" height="512" viewBox="0 0 512 512" width="512" xmlns="http://www.w3.org/2000/svg"><g><g><path d="m452.509 204.392c0-108.85-88.329-197.069-197.221-196.891-109.385.178-196.869 88.07-196.562 197.455.173 61.664 28.694 116.658 73.217 152.642 46.898 37.903 82.627 87.832 104.959 143.844l1.219 3.058h34.992l1.304-3.271c22.603-56.691 59.708-106.205 106.711-145.134 43.604-36.114 71.381-90.664 71.381-151.703z" fill="#fe7ab6"/><path d="m255.288 7.5c-5.487.009-10.915.249-16.283.691 101.042 8.359 180.444 93.001 180.444 196.201 0 61.04-27.777 115.589-71.38 151.703-47.003 38.93-84.108 88.443-106.711 145.134l-1.304 3.271h33.06l1.304-3.271c22.603-56.692 59.708-106.205 106.711-145.134 43.603-36.113 71.38-90.663 71.38-151.703 0-108.85-88.33-197.07-197.221-196.892z" fill="#fe5ca7"/><circle cx="255.617" cy="204.392" fill="#d8ecfe" r="146.795"/><path d="m255.617 57.597c-8.912 0-17.638.796-26.113 2.317 68.614 12.319 120.682 72.317 120.682 144.477s-52.068 132.158-120.682 144.477c8.474 1.521 17.2 2.317 26.113 2.317 81.072 0 146.795-65.722 146.795-146.795s-65.722-146.793-146.795-146.793z" fill="#c4e2ff"/><g><path d="m314.683 187.184v-9.057c0-27.113-21.98-49.093-49.093-49.093h-19.945c-27.114 0-49.093 21.98-49.093 49.093v9.057c-7.743 3.313-5.387 15.724-5.7 22.315 0 11.706 6.073 22.493 15.77 28.55 4.789 17.761 21.538 29.026 36.463 37.979 7.618 4.963 17.446 4.963 25.064 0 14.94-8.967 31.662-20.207 36.463-37.979 9.698-6.057 15.77-16.844 15.77-28.55-.314-6.618 2.047-18.982-5.699-22.315z" fill="#6cf5c2"/></g><path d="m314.683 187.184v-9.057c0-27.113-21.98-49.093-49.093-49.093h-19.945c-2.225 0-4.411.162-6.558.449 24.011 3.207 42.536 23.756 42.536 48.644 0 4.315 1.291 8.512 3.617 12.146 3.268 5.104 1.832 13.975 2.082 19.226 0 10.346-4.743 19.973-12.54 26.253-2.068 1.665-3.638 3.875-4.392 6.421-4.145 13.996-7.396 16.181-21.092 24.4-4.728 3.08-10.307 4.245-15.681 3.502 3.151 2.11 6.348 4.084 9.466 5.954 7.618 4.963 17.446 4.963 25.064 0 14.94-8.967 31.662-20.207 36.463-37.979 9.698-6.057 15.77-16.844 15.77-28.55-.312-6.619 2.049-18.983-5.697-22.316z" fill="#00f2a6"/></g><g><path d="m292.479 354.254c32.943-8.077 62.774-27.231 83.996-53.935 21.875-27.525 33.438-60.696 33.438-95.928 0-85.079-69.217-154.295-154.295-154.295s-154.295 69.216-154.295 154.295c0 82.563 65.187 150.184 146.795 154.11v84.37c0 4.142 3.357 7.5 7.5 7.5s7.5-3.358 7.5-7.5v-116.468c0-4.142-3.357-7.5-7.5-7.5s-7.5 3.358-7.5 7.5v17.08c-55.916-2.981-103.178-39.092-122.477-89.011l16.22-5.27c3.939-1.28 6.096-5.511 4.815-9.45-1.279-3.94-5.516-6.096-9.45-4.815l-16.227 5.272c-3.045-11.434-4.677-23.437-4.677-35.817 0-43.566 20.109-82.518 51.527-108.08l9.962 13.712c1.467 2.02 3.754 3.092 6.073 3.092 1.528 0 3.071-.466 4.402-1.433 3.352-2.435 4.094-7.125 1.659-10.476l-9.973-13.727c21.797-14.152 47.776-22.384 75.644-22.384s53.847 8.232 75.644 22.383l-9.973 13.727c-2.435 3.351-1.692 8.041 1.659 10.476 1.331.967 2.873 1.433 4.402 1.433 2.318 0 4.606-1.072 6.073-3.092l9.962-13.712c31.418 25.562 51.527 64.514 51.527 108.08 0 12.287-1.564 24.294-4.614 35.838l-16.29-5.293c-3.934-1.281-8.169.875-9.45 4.815-1.28 3.939.876 8.17 4.815 9.451l16.302 5.297c-5.016 13.003-12.028 25.266-20.945 36.487-19.164 24.115-46.093 41.41-75.825 48.699-4.022.986-6.484 5.047-5.498 9.07.989 4.023 5.048 6.485 9.074 5.499z"/><path d="m183.353 209.499c0 13.112 6.396 25.601 16.864 33.265 6.302 18.735 23.292 30.261 38.9 39.63 5.021 3.236 10.76 4.854 16.501 4.854 5.74 0 11.48-1.618 16.501-4.854 15.604-9.371 32.59-20.899 38.897-39.628 10.471-7.664 16.866-20.152 16.866-33.266 0-.119-.003-.238-.009-.357-.05-1.056-.008-2.507.038-4.043.184-6.278.472-16.083-5.729-21.876v-5.096c0-31.206-25.388-56.593-56.594-56.593h-19.944c-31.206 0-56.594 25.388-56.594 56.593v5.09c-6.203 5.792-5.914 15.615-5.729 21.907.045 1.529.087 2.974.038 4.021-.004.116-.006.234-.006.353zm16.149-15.42c2.76-1.181 4.55-3.894 4.55-6.896v-9.057c0-22.935 18.659-41.593 41.594-41.593h19.944c22.935 0 41.594 18.659 41.594 41.593v9.057c0 2.996 1.783 5.705 4.535 6.889.989.426 1.393 3.987 1.199 10.586-.052 1.757-.101 3.421-.035 4.994-.054 8.913-4.734 17.345-12.243 22.035-1.606 1.003-2.774 2.577-3.268 4.405-4.061 15.032-19.205 25.176-33.082 33.505-.079.047-.157.096-.234.146-5.128 3.34-11.75 3.339-16.876 0-.077-.05-.156-.1-.235-.147-13.88-8.326-29.026-18.467-33.081-33.501-.493-1.829-1.661-3.404-3.268-4.408-7.509-4.69-12.189-13.123-12.243-22.036.064-1.563.016-3.22-.036-4.97-.195-6.615.204-10.182 1.185-10.602z"/><path d="m213.583 210.574 20.001 17.723c1.428 1.265 3.202 1.887 4.971 1.887 2.072 0 4.135-.854 5.616-2.526 2.747-3.101 2.461-7.84-.64-10.587l-20.001-17.723c-3.101-2.748-7.841-2.46-10.587.639-2.747 3.1-2.461 7.84.64 10.587z"/><path d="m272.68 230.183c1.768 0 3.544-.622 4.971-1.887l20.001-17.723c3.101-2.747 3.387-7.487.64-10.587-2.747-3.099-7.488-3.388-10.587-.639l-20.001 17.723c-3.101 2.747-3.387 7.487-.64 10.587 1.482 1.673 3.543 2.526 5.616 2.526z"/><path d="m385.913 361.871c47.089-39.001 74.096-96.4 74.096-157.479 0-54.658-21.303-106.028-59.983-144.646-38.601-38.537-89.871-59.746-144.406-59.746-.113 0-.23 0-.345 0-51.582.084-100.703 19.2-138.313 53.825-37.38 34.413-60.437 81.322-64.924 132.087-.365 4.126 2.685 7.767 6.811 8.131 4.119.363 7.766-2.685 8.131-6.811 4.157-47.036 25.517-90.495 60.142-122.372 34.841-32.075 80.362-49.782 128.18-49.86h.318c50.53 0 98.043 19.655 133.808 55.361 35.843 35.784 55.582 83.383 55.582 134.03 0 56.597-25.027 109.785-68.664 145.927-48.26 39.97-85.686 90.662-108.313 146.682h-24.833c-23.229-57.464-60.039-107.651-106.543-145.235-19.646-15.879-35.692-35.163-47.691-57.315-12.327-22.76-19.73-47.398-22.004-73.231-.362-4.126-4.021-7.175-8.128-6.813-4.127.363-7.177 4.002-6.813 8.129 2.454 27.887 10.446 54.486 23.756 79.06 12.946 23.903 30.258 44.708 51.452 61.837 43.003 34.755 77.358 80.816 99.725 133.569h-95.235c-4.143 0-7.5 3.358-7.5 7.5s3.357 7.5 7.5 7.5h247.797c4.143 0 7.5-3.358 7.5-7.5s-3.357-7.5-7.5-7.5h-95.233c21.894-51.491 56.905-98.088 101.63-135.13z"/></g></g></svg>