<svg id="Capa_1" enable-background="new 0 0 512 512" height="512" viewBox="0 0 512 512" width="512" xmlns="http://www.w3.org/2000/svg"><g><g><path d="m7.5 60.193v331.816c0 13.137 10.65 23.787 23.787 23.787h139.274c6.989 0 13.624-3.073 18.143-8.404l20.892-24.64c4.52-5.33 11.155-8.404 18.143-8.404h252.972c13.137 0 23.787-10.65 23.787-23.787v-290.368c0-13.137-10.65-23.787-23.787-23.787h-449.424c-13.137-.001-23.787 10.649-23.787 23.787z" fill="#b5adb6"/><g><path d="m122.1 382.752-20.892 24.64c-4.52 5.33-11.155 8.404-18.143 8.404h87.498c6.989 0 13.624-3.073 18.143-8.404l20.892-24.64c4.52-5.33 11.155-8.404 18.143-8.404h-87.498c-6.989 0-13.624 3.073-18.143 8.404z" fill="#b5adb6"/><path d="m480.713 36.405h-87.498c13.137 0 23.787 10.65 23.787 23.787v290.368c0 13.137-10.65 23.787-23.787 23.787h87.498c13.137 0 23.787-10.65 23.787-23.787v-290.367c0-13.138-10.65-23.788-23.787-23.788z" fill="#a79ba7"/></g><path d="m35.5 64.409h441v281.94h-441z" fill="#d8ecfe"/><path d="m417.002 64.409h59.498v281.94h-59.498z" fill="#c4e2ff"/><g><path d="m83.226 415.796h43.996v59.799h-43.996z" fill="#918291"/><path d="m99.89 415.799h27.33v59.8h-27.33z" fill="#837784"/><path d="m384.778 374.348h43.996v101.247h-43.996z" fill="#918291"/><path d="m401.44 374.349h27.33v101.25h-27.33z" fill="#837784"/></g><path d="m113.436 144.607h-27.67c-4.967 0-8.993-4.026-8.993-8.993v-27.67c0-4.967 4.026-8.993 8.993-8.993h27.67c4.967 0 8.993 4.026 8.993 8.993v27.67c0 4.967-4.027 8.993-8.993 8.993z" fill="#8ac9fe"/><path d="m193.054 144.607h-27.67c-4.967 0-8.993-4.026-8.993-8.993v-27.67c0-4.967 4.026-8.993 8.993-8.993h27.67c4.967 0 8.993 4.026 8.993 8.993v27.67c0 4.967-4.026 8.993-8.993 8.993z" fill="#978ecb"/><path d="m272.673 144.607h-27.67c-4.967 0-8.993-4.026-8.993-8.993v-27.67c0-4.967 4.026-8.993 8.993-8.993h27.67c4.967 0 8.993 4.026 8.993 8.993v27.67c0 4.967-4.026 8.993-8.993 8.993z" fill="#fe7ab6"/><g><path d="m434.607 208.962v-9.021c0-27.005-21.891-48.896-48.896-48.896h-19.865c-27.005 0-48.896 21.891-48.896 48.896v9.021c-7.712 3.3-5.366 15.661-5.677 22.225 0 11.659 6.048 22.403 15.707 28.436 4.77 17.689 21.451 28.909 36.317 37.827 7.587 4.943 17.376 4.943 24.963 0 14.88-8.931 31.534-20.126 36.317-37.827 9.659-6.033 15.707-16.776 15.707-28.436-.314-6.591 2.038-18.905-5.677-22.225z" fill="#6cf5c2"/></g><path d="m434.607 208.962v-9.021c0-15.1-6.848-28.597-17.604-37.567v112.103c3.41-4.4 6.076-9.308 7.574-14.855 9.659-6.033 15.707-16.776 15.707-28.436-.314-6.59 2.038-18.904-5.677-22.224z" fill="#00f2a6"/></g><g><path d="m480.713 28.905h-382.954c-4.142 0-7.5 3.358-7.5 7.5s3.358 7.5 7.5 7.5h382.954c8.981 0 16.287 7.306 16.287 16.287v290.369c0 8.981-7.306 16.287-16.287 16.287h-252.973c-9.209 0-17.907 4.029-23.864 11.053l-20.893 24.641c-3.1 3.657-7.628 5.754-12.422 5.754h-139.274c-8.981 0-16.287-7.306-16.287-16.287v-331.817c0-8.981 7.306-16.287 16.287-16.287h31.354c4.142 0 7.5-3.358 7.5-7.5s-3.358-7.5-7.5-7.5h-31.354c-17.252 0-31.287 14.035-31.287 31.287v331.816c0 17.252 14.035 31.287 31.287 31.287h44.438v52.299c0 4.142 3.358 7.5 7.5 7.5s7.5-3.358 7.5-7.5v-52.299h28.996v52.299c0 4.142 3.358 7.5 7.5 7.5s7.5-3.358 7.5-7.5v-52.299h35.84c9.21 0 17.908-4.029 23.864-11.054l20.892-24.64c3.101-3.657 7.628-5.754 12.423-5.754h149.538v93.747c0 4.142 3.358 7.5 7.5 7.5s7.5-3.358 7.5-7.5v-93.747h28.996v93.747c0 4.142 3.358 7.5 7.5 7.5s7.5-3.358 7.5-7.5v-93.747h44.438c17.252 0 31.287-14.035 31.287-31.287v-290.368c.001-17.252-14.034-31.287-31.286-31.287z"/><path d="m402.29 353.849h74.21c4.142 0 7.5-3.358 7.5-7.5v-281.94c0-4.142-3.358-7.5-7.5-7.5h-441c-4.142 0-7.5 3.358-7.5 7.5v281.94c0 4.142 3.358 7.5 7.5 7.5h331.665c4.142 0 7.5-3.358 7.5-7.5s-3.358-7.5-7.5-7.5h-324.165v-266.94h426v266.94h-66.71c-4.142 0-7.5 3.358-7.5 7.5s3.357 7.5 7.5 7.5z"/><path d="m35.5 372.196c-4.142 0-7.5 3.358-7.5 7.5s3.358 7.5 7.5 7.5h95.156c4.142 0 7.5-3.358 7.5-7.5s-3.358-7.5-7.5-7.5z"/><path d="m69.272 296.47c0 4.142 3.358 7.5 7.5 7.5h204.894c4.142 0 7.5-3.358 7.5-7.5s-3.358-7.5-7.5-7.5h-197.394v-111.96c0-4.142-3.358-7.5-7.5-7.5s-7.5 3.358-7.5 7.5z"/><path d="m139.808 209.024-35.943 47.191c-2.51 3.295-1.873 8.001 1.422 10.511 1.358 1.034 2.955 1.534 4.539 1.534 2.261 0 4.496-1.019 5.972-2.956l32.057-42.088 64.13 34.628c3.011 1.627 6.743 1.007 9.067-1.504l57.942-62.596c2.814-3.04 2.63-7.785-.409-10.599-3.04-2.814-7.785-2.63-10.599.409l-53.992 58.329-64.656-34.913c-3.251-1.756-7.293-.882-9.53 2.054z"/><path d="m113.436 91.451h-27.67c-9.094 0-16.493 7.399-16.493 16.493v27.67c0 9.094 7.399 16.493 16.493 16.493h27.67c9.094 0 16.493-7.399 16.493-16.493v-27.67c0-9.094-7.399-16.493-16.493-16.493zm1.493 44.163c0 .823-.67 1.493-1.493 1.493h-27.67c-.823 0-1.493-.67-1.493-1.493v-27.67c0-.823.67-1.493 1.493-1.493h27.67c.823 0 1.493.67 1.493 1.493z"/><path d="m165.384 152.107h27.67c9.094 0 16.493-7.399 16.493-16.493v-27.67c0-9.094-7.399-16.493-16.493-16.493h-27.67c-9.094 0-16.493 7.399-16.493 16.493v27.67c0 9.094 7.399 16.493 16.493 16.493zm-1.493-44.163c0-.823.67-1.493 1.493-1.493h27.67c.823 0 1.493.67 1.493 1.493v27.67c0 .823-.67 1.493-1.493 1.493h-27.67c-.823 0-1.493-.67-1.493-1.493z"/><path d="m289.166 107.944c0-9.094-7.399-16.493-16.493-16.493h-27.67c-9.094 0-16.493 7.399-16.493 16.493v27.67c0 9.094 7.399 16.493 16.493 16.493h27.67c9.094 0 16.493-7.399 16.493-16.493zm-15 27.67c0 .823-.67 1.493-1.493 1.493h-27.67c-.823 0-1.493-.67-1.493-1.493v-27.67c0-.823.67-1.493 1.493-1.493h27.67c.823 0 1.493.67 1.493 1.493z"/><path d="m303.773 231.187c0 13.066 6.372 25.51 16.802 33.149 6.282 18.663 23.206 30.145 38.752 39.478 5.005 3.226 10.728 4.839 16.451 4.839s11.446-1.613 16.452-4.839c15.542-9.334 32.462-20.816 38.75-39.476 10.431-7.64 16.803-20.084 16.803-33.15 0-.119-.003-.238-.008-.357-.05-1.05-.008-2.494.037-4.023.184-6.256.471-16.024-5.706-21.804v-5.062c0-31.097-25.299-56.396-56.396-56.396h-19.865c-31.097 0-56.396 25.299-56.396 56.396v5.057c-6.177 5.776-5.89 15.562-5.706 21.831.045 1.523.087 2.961.038 4.003-.005.117-.008.236-.008.354zm16.127-15.33c2.76-1.181 4.55-3.894 4.55-6.896v-9.021c0-22.826 18.57-41.396 41.396-41.396h19.865c22.826 0 41.396 18.57 41.396 41.396v9.021c0 2.996 1.783 5.705 4.535 6.889.973.419 1.369 3.957 1.177 10.516-.051 1.75-.1 3.408-.036 4.975-.054 8.866-4.71 17.254-12.18 21.92-1.606 1.003-2.773 2.577-3.267 4.405-4.042 14.961-19.12 25.061-32.936 33.352-.079.047-.157.096-.234.146-5.096 3.319-11.68 3.319-16.776 0-.078-.051-.156-.1-.235-.147-13.819-8.29-28.899-18.386-32.934-33.348-.493-1.83-1.661-3.405-3.268-4.409-7.47-4.666-12.126-13.053-12.18-21.92.063-1.559.015-3.209-.036-4.953-.192-6.574.199-10.117 1.163-10.53z"/><path d="m333.893 232.28 19.92 17.652c1.428 1.265 3.203 1.887 4.971 1.887 2.072 0 4.134-.854 5.616-2.526 2.747-3.1 2.461-7.84-.639-10.587l-19.92-17.652c-3.101-2.748-7.841-2.461-10.587.639-2.747 3.1-2.461 7.84.639 10.587z"/><path d="m392.772 251.819c1.768 0 3.543-.622 4.971-1.887l19.92-17.652c3.1-2.747 3.386-7.487.639-10.587-2.748-3.1-7.486-3.387-10.587-.639l-19.92 17.652c-3.1 2.747-3.386 7.487-.639 10.587 1.483 1.672 3.544 2.526 5.616 2.526z"/><path d="m435.707 106.451c4.142 0 7.5-3.358 7.5-7.5s-3.358-7.5-7.5-7.5h-28.977c-4.142 0-7.5 3.358-7.5 7.5s3.358 7.5 7.5 7.5z"/><circle cx="162.44" cy="379.696" r="7.5"/></g></g></svg>