<svg id="Capa_1" enable-background="new 0 0 512 512" height="512" viewBox="0 0 512 512" width="512" xmlns="http://www.w3.org/2000/svg"><g><g><path d="m485.97 256c0 127.01-102.96 229.97-229.97 229.97s-229.97-102.96-229.97-229.97 102.96-229.97 229.97-229.97c63.5 0 120.99 25.74 162.62 67.35 38.45 38.47 63.35 90.49 66.9 148.28.03.35.05.71.07 1.07.25 4.39.38 8.82.38 13.27z" fill="#bbec6c"/><path d="m485.59 242.73c-.02-.36-.04-.72-.07-1.07-3.55-57.79-28.45-109.81-66.9-148.28-41.63-41.61-99.12-67.35-162.62-67.35-8.471 0-16.831.472-25.065 1.365 114.849 12.563 204.758 111.246 204.345 228.605 0 105.11-70.52 193.76-166.83 221.2-12.204 3.472-24.82 5.958-37.755 7.378 8.311.91 16.751 1.392 25.305 1.392 127.01 0 229.97-102.96 229.97-229.97 0-4.45-.13-8.88-.38-13.27z" fill="#8de02b"/><path d="m320.61 335.14v131.58c0 3.64-.51 7.15-1.47 10.48-20.07 5.71-41.25 8.77-63.14 8.77-49.84 0-95.98-15.86-133.65-42.81v-108.02c0-20.87 16.91-37.78 37.77-37.78h122.71c20.87 0 37.78 16.91 37.78 37.78z" fill="#8de02b"/><path d="m490.162 241.662h-219.824v-219.824c0-7.919-6.42-14.338-14.338-14.338s-14.338 6.419-14.338 14.338v219.823h-219.824c-7.918.001-14.338 6.42-14.338 14.339s6.42 14.338 14.338 14.338h219.823v219.823c0 7.919 6.42 14.338 14.338 14.338s14.338-6.42 14.338-14.338v-219.823h219.823c7.919 0 14.338-6.42 14.338-14.338.002-7.919-6.418-14.338-14.336-14.338z" fill="#978ecb"/><g fill="#8379c1"><path d="m254.348 490.162c0 4.958-2.517 9.328-6.343 11.903 2.438 1.641 5.408 2.554 8.597 2.423 7.751-.317 13.736-6.984 13.736-14.741v-219.409h-8.393c-4.196 0-7.598 3.402-7.598 7.598v212.226z"/><path d="m254.348 21.838v212.225c0 4.196 3.402 7.598 7.598 7.598h8.393v-219.408c0-7.757-5.986-14.424-13.736-14.741-3.189-.131-6.159.782-8.597 2.423 3.824 2.576 6.342 6.945 6.342 11.903z"/><path d="m490.162 241.662h-15.991c7.919 0 14.338 6.419 14.338 14.338s-6.42 14.338-14.338 14.338h15.991c7.919 0 14.338-6.42 14.338-14.338 0-7.919-6.42-14.338-14.338-14.338z"/></g><path d="m485.52 241.66h-215.18l148.28-148.28c38.45 38.47 63.35 90.49 66.9 148.28z" fill="#fe7ab6"/><path d="m434.861 241.66h50.659c-3.55-57.79-28.45-109.81-66.9-148.28l-27.396 27.396c25.161 34.469 40.97 76.066 43.637 120.884z" fill="#fe5ca7"/><path d="m317.355 504.5h-122.71c-20.863 0-37.775-16.913-37.775-37.775v-131.588c0-20.863 16.913-37.775 37.775-37.775h122.711c20.863 0 37.775 16.913 37.775 37.775v131.588c0 20.862-16.913 37.775-37.776 37.775z" fill="#d8ecfe"/><path d="m317.355 297.361h-34.521c20.863 0 37.775 16.913 37.775 37.775v131.588c0 20.863-16.913 37.775-37.775 37.775h34.521c20.863 0 37.775-16.913 37.775-37.775v-131.588c.001-20.862-16.912-37.775-37.775-37.775z" fill="#c4e2ff"/><path d="m152.546 164.684h-14.416c-4.967 0-8.993-4.026-8.993-8.993v-14.416c0-4.967 4.026-8.993 8.993-8.993h14.416c4.967 0 8.993 4.026 8.993 8.993v14.416c0 4.967-4.026 8.993-8.993 8.993z" fill="#978ecb"/><path d="m442.029 417.698h-14.416c-4.967 0-8.993-4.026-8.993-8.993v-14.416c0-4.967 4.026-8.993 8.993-8.993h14.416c4.967 0 8.993 4.026 8.993 8.993v14.416c0 4.967-4.026 8.993-8.993 8.993z" fill="#978ecb"/><path d="m49.439 475.986h-14.416c-4.967 0-8.993-4.026-8.993-8.993v-14.416c0-4.967 4.026-8.993 8.993-8.993h14.416c4.967 0 8.993 4.026 8.993 8.993v14.416c0 4.967-4.026 8.993-8.993 8.993z" fill="#8ac9fe"/><path d="m161.54 141.27v14.42c0 4.97-4.03 8.99-8.99 8.99h-14.42c-.29 0-.59-.01-.87-.05 4.54-.46 8.08-4.28 8.08-8.94v-14.42c0-4.65-3.54-8.48-8.08-8.94.28-.04.58-.05.87-.05h14.42c4.96 0 8.99 4.03 8.99 8.99z" fill="#8379c1"/><path d="m451.02 394.29v14.42c0 4.96-4.02 8.99-8.99 8.99h-14.42c-.29 0-.58-.01-.86-.05 4.53-.46 8.07-4.29 8.07-8.94v-14.42c0-4.66-3.54-8.48-8.07-8.94.28-.04.57-.05.86-.05h14.42c4.97 0 8.99 4.02 8.99 8.99z" fill="#8379c1"/><path d="m58.43 452.58v14.41c0 4.97-4.02 9-8.99 9h-14.42c-.29 0-.58-.01-.86-.05 4.53-.46 8.07-4.29 8.07-8.95v-14.41c0-4.66-3.54-8.49-8.07-8.95.28-.04.57-.05.86-.05h14.42c4.97 0 8.99 4.03 8.99 9z" fill="#60b7ff"/><g><path d="m314.829 383.792v-9.021c0-27.005-21.891-48.896-48.896-48.896h-19.865c-27.005 0-48.896 21.891-48.896 48.896v9.021c-7.712 3.3-5.366 15.661-5.677 22.225 0 11.659 6.048 22.403 15.707 28.436 4.77 17.689 21.451 28.909 36.317 37.827 7.587 4.943 17.376 4.943 24.963 0 14.88-8.931 31.534-20.126 36.317-37.827 9.659-6.033 15.707-16.776 15.707-28.436-.315-6.591 2.037-18.905-5.677-22.225z" fill="#6cf5c2"/></g><path d="m314.829 383.792v-9.021c0-27.005-21.891-48.896-48.896-48.896h-19.865c-1.363 0-2.708.07-4.043.18 25.111 2.057 44.853 23.075 44.853 48.716 0 4.297 1.286 8.478 3.603 12.097 3.255 5.084 1.825 13.919 2.074 19.149 0 10.211-4.639 19.72-12.28 25.977-2.152 1.762-3.826 4.049-4.655 6.704-4.351 13.929-9.007 16.7-22.607 24.862-5.694 3.709-12.628 4.635-18.941 2.776 3.145 2.107 6.336 4.076 9.448 5.943 7.587 4.943 17.376 4.943 24.963 0 14.88-8.931 31.534-20.126 36.317-37.827 9.659-6.033 15.707-16.776 15.707-28.436-.316-6.59 2.036-18.904-5.678-22.224z" fill="#00f2a6"/></g><g><path d="m322.329 374.771c0-31.097-25.299-56.396-56.396-56.396h-19.865c-31.097 0-56.396 25.299-56.396 56.396v5.057c-6.177 5.776-5.89 15.562-5.706 21.831.045 1.523.087 2.961.038 4.003-.005.118-.008.237-.008.355 0 13.066 6.372 25.51 16.802 33.149 6.282 18.663 23.206 30.145 38.752 39.478 5.005 3.226 10.728 4.839 16.451 4.839s11.446-1.613 16.452-4.839c15.542-9.334 32.462-20.816 38.75-39.476 10.431-7.64 16.803-20.084 16.803-33.15 0-.119-.003-.238-.008-.357-.05-1.05-.008-2.494.037-4.023.184-6.256.471-16.024-5.706-21.804zm-9.288 26.426c-.051 1.75-.1 3.408-.036 4.975-.054 8.866-4.71 17.254-12.18 21.92-1.606 1.003-2.773 2.577-3.267 4.405-4.042 14.961-19.12 25.061-32.936 33.352-.079.047-.157.096-.234.146-5.096 3.319-11.68 3.319-16.776 0-.078-.051-.156-.1-.235-.147-13.819-8.29-28.899-18.386-32.934-33.348-.493-1.83-1.661-3.405-3.268-4.409-7.47-4.666-12.126-13.053-12.18-21.92.063-1.559.015-3.209-.036-4.953-.193-6.575.198-10.118 1.163-10.531 2.76-1.181 4.55-3.894 4.55-6.896v-9.021c0-22.826 18.57-41.396 41.396-41.396h19.865c22.826 0 41.396 18.57 41.396 41.396v9.021c0 2.996 1.783 5.705 4.535 6.889.973.42 1.369 3.958 1.177 10.517z"/><path d="m243.983 413.536-19.92-17.652c-3.102-2.748-7.841-2.461-10.587.639-2.747 3.1-2.461 7.84.639 10.587l19.92 17.652c1.428 1.265 3.203 1.887 4.971 1.887 2.072 0 4.134-.854 5.616-2.526 2.748-3.1 2.461-7.84-.639-10.587z"/><path d="m287.938 395.884-19.921 17.652c-3.1 2.747-3.386 7.487-.639 10.587 1.482 1.672 3.544 2.526 5.616 2.526 1.768 0 3.543-.622 4.971-1.887l19.921-17.652c3.1-2.747 3.386-7.487.639-10.587-2.746-3.099-7.486-3.387-10.587-.639z"/><path d="m512 256c0-11.263-8.571-20.561-19.533-21.717-4.752-52.3-27.042-102.208-63.335-140.808l5.044-5.044c2.929-2.929 2.929-7.678 0-10.606-2.929-2.929-7.678-2.929-10.606 0l-5.044 5.044c-38.65-36.278-88.154-58.55-140.808-63.335-1.157-10.963-10.455-19.534-21.718-19.534s-20.56 8.57-21.717 19.532c-113.803 10.313-204.438 100.948-214.751 214.751-10.962 1.157-19.532 10.454-19.532 21.717 0 11.261 8.568 20.557 19.527 21.716 7.401 81.481 56.534 153.647 129.881 190.531.807 24.262 20.782 43.753 45.237 43.753h122.711c24.455 0 44.43-19.492 45.237-43.754 22.407-11.268 42.768-25.923 60.64-43.657 1.397.386 2.862.609 4.381.609h14.417c9.094 0 16.493-7.399 16.493-16.493v-14.416c0-9.094-7.399-16.493-16.493-16.493h-14.417c-9.094 0-16.493 7.399-16.493 16.493v14.416c0 2.015.381 3.937 1.045 5.723-14.8 14.595-31.407 26.943-49.534 36.853v-72.521c30.11-26.138 49.263-61.645 54.519-100.921h60.238c-2.525 26.029-9.525 51.113-20.882 74.669-1.799 3.731-.232 8.214 3.499 10.013 1.05.506 2.159.746 3.252.746 2.79 0 5.469-1.564 6.761-4.245 12.358-25.632 19.891-52.953 22.453-81.307 10.959-1.156 19.528-10.453 19.528-21.715zm-146.396-120.21c-23.817-21.72-54.138-36.436-87.764-40.945v-60.232c48.611 4.747 94.281 25.413 130.073 58.867zm-50.783 50.783c-10.535-8.934-23.131-15.507-36.981-18.918v-57.656c29.482 4.363 56.08 17.384 77.143 36.412zm-36.981-3.387c9.749 2.916 18.665 7.743 26.334 14.034l-26.334 26.334zm36.94 24.64c6.291 7.669 11.117 16.585 14.034 26.334h-40.368zm29.566 26.334c-3.411-13.85-9.985-26.445-18.918-36.981l40.162-40.162c19.029 21.063 32.049 47.661 36.412 77.143zm72.809 0c-4.509-33.626-19.225-63.947-40.945-87.764l42.31-42.31c31.51 33.713 54.188 79.527 58.867 130.073h-60.232zm-182.995-199.547v60.241c-27.5 3.688-53.453 14.323-75.708 31.04-1.837-.708-3.823-1.112-5.906-1.112h-14.416c-9.094 0-16.493 7.399-16.493 16.493v14.417c0 2.373.514 4.625 1.42 6.665-9.155 12.962-16.331 27.116-21.348 42.156-1.311 3.929.812 8.177 4.741 9.488.788.263 1.587.387 2.375.387 3.139 0 6.065-1.987 7.114-5.128 4.446-13.327 10.757-25.893 18.79-37.433 1.099.231 2.236.357 3.403.357h14.416c9.094 0 16.493-7.398 16.493-16.493v-14.417c0-1.437-.204-2.824-.551-4.154 19.423-14.329 41.884-23.586 65.672-27.109v57.642c-32.721 8.059-58.447 33.785-66.506 66.506h-133.043c10.261-105.417 94.129-189.285 199.547-199.546zm-96.03 122.571c-.823 0-1.493-.669-1.493-1.493v-14.417c0-.823.67-1.493 1.493-1.493h14.416c.823 0 1.493.67 1.493 1.493v14.417c0 .823-.67 1.493-1.493 1.493zm96.03 26.002v50.974h-50.974c7.306-24.423 26.551-43.668 50.974-50.974zm-199.558 94.654h60.248c5.256 39.276 24.409 74.782 54.519 100.921v72.531c-64.522-35.269-107.625-100.265-114.767-173.452zm199.558 12.021h-39.516c-2.189 0-4.339.165-6.446.467-2.042-4.016-3.712-8.187-4.998-12.488h50.959v12.021zm-66.496-12.021c1.454 5.915 3.482 11.649 6.096 17.146-14.479 7.562-24.391 22.716-24.391 40.151v22.945c-21.204-22.059-34.888-49.864-39.373-80.242zm149.691 219.16h-122.71c-16.694 0-30.275-13.582-30.275-30.275v-131.588c0-16.694 13.582-30.275 30.275-30.275h122.711c16.694 0 30.275 13.582 30.275 30.275v131.588c0 16.693-13.582 30.275-30.276 30.275zm0-207.139h-39.515v-12.021h50.959c-1.286 4.301-2.956 8.472-4.998 12.488-2.107-.302-4.257-.467-6.446-.467zm108.765 104.428c0-.823.669-1.493 1.493-1.493h14.417c.823 0 1.493.67 1.493 1.493v14.416c0 .823-.67 1.493-1.493 1.493h-14.417c-.823 0-1.493-.67-1.493-1.493zm-63.489-36.208v-22.945c0-17.435-9.912-32.589-24.391-40.151 2.615-5.496 4.642-11.231 6.096-17.146h57.668c-4.485 30.379-18.169 58.184-39.373 80.242zm127.529-95.241h-219.82c-4.142 0-7.5 3.358-7.5 7.5v19.521h-13.68v-19.521c0-4.142-3.358-7.5-7.5-7.5h-219.82c-3.771 0-6.84-3.068-6.84-6.84s3.068-6.84 6.84-6.84h219.82c4.142 0 7.5-3.358 7.5-7.5v-219.82c0-3.771 3.068-6.84 6.84-6.84s6.84 3.068 6.84 6.84v219.82c.246 3.411 2.226 7.34 7.5 7.5h219.82c3.771 0 6.84 3.068 6.84 6.84s-3.068 6.84-6.84 6.84z"/><path d="m451.455 68.045c1.919 0 3.839-.732 5.303-2.197l15.973-15.973c2.929-2.929 2.929-7.678 0-10.606-2.929-2.929-7.678-2.929-10.606 0l-15.973 15.973c-2.929 2.929-2.929 7.678 0 10.606 1.464 1.464 3.384 2.197 5.303 2.197z"/><path d="m490.01 29.49c1.919 0 3.839-.732 5.303-2.197l10.253-10.253c2.929-2.929 2.929-7.678 0-10.606-2.929-2.929-7.678-2.929-10.606 0l-10.253 10.253c-2.929 2.929-2.929 7.678 0 10.606 1.464 1.464 3.384 2.197 5.303 2.197z"/><path d="m49.439 436.084h-14.416c-9.094 0-16.493 7.398-16.493 16.493v14.417c0 9.094 7.398 16.493 16.493 16.493h14.417c9.094 0 16.493-7.399 16.493-16.493v-14.417c0-9.095-7.399-16.493-16.494-16.493zm1.494 30.909c0 .823-.67 1.493-1.493 1.493h-14.417c-.823 0-1.493-.67-1.493-1.493v-14.417c0-.823.669-1.493 1.493-1.493h14.417c.823 0 1.493.669 1.493 1.493z"/></g></g></svg>