<svg id="Capa_1" enable-background="new 0 0 512 512" height="512" viewBox="0 0 512 512" width="512" xmlns="http://www.w3.org/2000/svg"><g><g><path d="m377.37 221.06v283.44h-241.56v-283.44c0-5.13 1.38-9.94 3.8-14.07 4.84-8.31 13.85-13.9 24.17-13.9h185.62c15.45 0 27.97 12.53 27.97 27.97z" fill="#978ecb"/><path d="m323.56 193.09c-3.97 4.88-8.75 9.13-14.18 12.52-6.59 20.24-19.91 37.68-37.82 49.35l-25.53 16.63c-13.23 8.62-30.31 8.62-43.54 0l-25.53-16.63c-17.5-11.4-30.62-28.32-37.35-47.97 4.84-8.31 13.85-13.9 24.17-13.9z" fill="#8379c1"/><path d="m349.398 193.094h-31.78c15.447 0 27.969 12.522 27.969 27.969v283.437h31.78v-283.437c.001-15.447-12.522-27.969-27.969-27.969z" fill="#8379c1"/><path d="m358.653 117.244v-24.456c0-47.103-38.185-85.288-85.288-85.288h-34.65c-47.103 0-85.288 38.185-85.288 85.288v24.456c-5.901 3.258-9.902 9.537-9.902 16.754v22.012c0 20.337 10.55 39.077 27.397 49.6 6.586 20.241 19.903 37.679 37.817 49.349l25.529 16.631c13.234 8.621 30.309 8.621 43.543 0l25.529-16.631c17.914-11.67 31.231-29.108 37.817-49.349 16.847-10.523 27.397-29.263 27.397-49.6v-22.012c0-7.217-4-13.496-9.901-16.754z" fill="#978ecb"/><path d="m358.653 117.244v-24.456c0-47.103-38.185-85.288-85.288-85.288h-31.78c47.103 0 85.288 38.185 85.288 85.288v17.408c0 3.931 1.681 7.611 4.433 10.418 3.382 3.449 5.469 8.172 5.469 13.385v22.012c0 18.889-9.101 36.4-23.896 47.229-2.297 1.682-4.011 4.025-5.023 6.686-7 18.4-19.667 34.201-36.295 45.033l-25.529 16.631c-1.888 1.23-3.86 2.264-5.881 3.143 12.152 5.283 26.315 4.249 37.661-3.143l25.529-16.631c17.914-11.67 31.231-29.108 37.817-49.349 16.847-10.523 27.397-29.263 27.397-49.599v-22.012c-.001-7.218-4.001-13.497-9.902-16.755z" fill="#8379c1"/><path d="m340.107 140.356c-18.127 0-35.383 7.846-47.244 21.554-8.054 9.308-15.061 20.587-15.061 31.654 0 0 21.878 2.452 44.4-7.82 10.961-4.999 17.905-16.041 17.905-28.088z" fill="#bbec6c"/><path d="m340.11 140.36v17.3c0 12.04-6.95 23.09-17.91 28.08-22.52 10.28-44.4 7.82-44.4 7.82 0-.38-.02.39 0 0 6.67-1.16 14.27-4.33 21.92-7.82 10.96-4.99 17.9-16.04 17.9-28.08v-13.13c7.1-2.73 14.71-4.17 22.49-4.17z" fill="#8de02b"/><path d="m171.973 140.356c18.127 0 35.383 7.846 47.244 21.554 8.054 9.308 15.061 20.587 15.061 31.654 0 0-21.878 2.452-44.4-7.82-10.961-4.999-17.906-16.041-17.906-28.088v-17.3z" fill="#bbec6c"/><path d="m234.28 193.56s-9.54 1.07-22.51-1.15c-.46-10.69-7.26-21.51-15.04-30.5-6.77-7.83-15.31-13.75-24.76-17.38v-4.17c18.13 0 35.39 7.84 47.25 21.55 8.05 9.31 15.06 20.59 15.06 31.65z" fill="#8de02b"/><path d="m256.04 468.22v36.28h-240.55v-36.28c0-8.11 3.46-15.42 8.97-20.53 4.99-4.62 11.67-7.44 19-7.44h184.61c15.45 0 27.97 12.52 27.97 27.97z" fill="#6cf5c2"/><path d="m184.86 440.25c-7.24 16.74-19.26 31.09-34.71 41.15l-25.53 16.63c-6.62 4.31-14.19 6.47-21.77 6.47s-15.15-2.16-21.77-6.47l-25.53-16.63c-13.1-8.54-23.75-20.16-31.09-33.71 4.99-4.62 11.67-7.44 19-7.44z" fill="#00f2a6"/><path d="m228.07 440.251h-31.78c15.447 0 27.969 12.522 27.969 27.969v36.28h31.78v-36.28c.001-15.447-12.522-27.969-27.969-27.969z" fill="#00f2a6"/><g><path d="m237.245 343.687v-24.456c0-47.103-38.185-85.288-85.288-85.288h-34.65c-47.103 0-85.288 38.185-85.288 85.288v24.456c-5.901 3.258-9.902 9.537-9.902 16.754v22.012c0 20.337 10.55 39.077 27.397 49.6 6.586 20.241 19.903 37.679 37.817 49.349l25.529 16.631c13.234 8.621 30.309 8.621 43.543 0l25.529-16.631c17.914-11.67 31.231-29.108 37.817-49.349 16.847-10.523 27.397-29.263 27.397-49.6v-22.012c.001-7.217-3.999-13.496-9.901-16.754z" fill="#6cf5c2"/><path d="m237.245 343.687v-24.456c0-47.103-38.185-85.288-85.288-85.288h-31.78c47.103 0 85.288 38.185 85.288 85.288v19.164c0 3.033 1.384 5.849 3.63 7.888 3.852 3.498 6.272 8.544 6.272 14.158v22.012c0 18.314-8.556 35.333-22.561 46.222-3.136 2.439-5.536 5.699-7.02 9.384-7.121 17.676-19.517 32.843-35.633 43.342l-25.529 16.631c-1.888 1.23-3.86 2.264-5.881 3.143 12.152 5.283 26.315 4.249 37.661-3.143l25.529-16.631c17.914-11.67 31.231-29.108 37.817-49.349 16.847-10.523 27.397-29.263 27.397-49.599v-22.012c0-7.217-4-13.496-9.902-16.754z" fill="#00f2a6"/><path d="m218.699 366.799c-18.127 0-35.383 7.846-47.244 21.554-8.054 9.308-15.061 20.587-15.061 31.654 0 0 21.878 2.452 44.4-7.82 10.961-4.999 17.906-16.041 17.906-28.088v-17.3z" fill="#bbec6c"/><path d="m218.7 366.8v17.3c0 12.05-6.95 23.09-17.91 28.09-19.16 8.74-37.86 8.27-43.01 7.94 6.33-.91 13.4-2.69 20.53-5.94 10.96-5 17.91-18.04 17.91-30.09v-13.12c7.09-2.74 14.71-4.18 22.48-4.18z" fill="#8de02b"/><path d="m50.565 366.799c18.127 0 35.383 7.846 47.244 21.554 8.054 9.308 15.061 20.587 15.061 31.654 0 0-21.878 2.452-44.4-7.82-10.961-4.999-17.905-16.041-17.905-28.088z" fill="#bbec6c"/><path d="m112.87 420.01s-9.54 1.07-22.51-1.16c-.46-10.69-7.26-21.51-15.03-30.5-6.77-7.82-15.31-13.74-24.76-17.37v-4.18c18.12 0 35.38 7.85 47.24 21.55 8.05 9.31 15.06 20.59 15.06 31.66z" fill="#8de02b"/></g><g><g><g><circle cx="400.565" cy="56.805" fill="#fe7ab6" r="18.134"/></g></g><g><g><path d="m415.06 67.71c-5.7 7.58-16.2 9.42-24.1 4.48 1.84-1.14 3.51-2.64 4.89-4.48 6.02-8.01 4.41-19.38-3.59-25.4-.42-.32-.86-.62-1.3-.89 6.18-3.86 14.34-3.75 20.51.89 8 6.02 9.61 17.39 3.59 25.4z" fill="#fe5ca7"/></g></g><g><g><circle cx="111.435" cy="56.805" fill="#fe7ab6" r="18.134"/></g></g><g><g><path d="m122.34 71.3c-6.17 4.64-14.33 4.75-20.51.89.44-.27.88-.57 1.3-.89 8-6.02 9.61-17.39 3.59-25.4-1.38-1.84-3.05-3.34-4.89-4.48 7.9-4.94 18.4-3.1 24.1 4.48 6.02 8.01 4.41 19.38-3.59 25.4z" fill="#fe5ca7"/></g></g></g><path d="m496.51 468.22v36.28h-240.47v-36.28c0-8.83 4.09-16.7 10.47-21.81 4.79-3.86 10.87-6.16 17.5-6.16h184.53c15.44 0 27.97 12.52 27.97 27.97z" fill="#bbec6c"/><path d="m427.59 440.25c-7.23 16.74-19.26 31.09-34.7 41.15l-25.53 16.63c-6.62 4.31-14.2 6.47-21.77 6.47-7.58 0-15.15-2.16-21.77-6.47l-25.53-16.63c-13.52-8.8-24.42-20.89-31.78-34.99 4.79-3.86 10.87-6.16 17.5-6.16z" fill="#8de02b"/><path d="m468.536 440.251h-31.78c15.447 0 27.969 12.522 27.969 27.969v36.28h31.78v-36.28c0-15.447-12.522-27.969-27.969-27.969z" fill="#8de02b"/><path d="m292.25 432.054c6.586 20.241 19.903 37.679 37.817 49.349l25.529 16.631c13.234 8.621 30.309 8.621 43.543 0l25.529-16.631c17.914-11.67 31.231-29.108 37.817-49.349 15.322-35.283 18.741-74.704 17.495-112.822 0-47.103-38.185-85.288-85.288-85.288h-34.65c-47.103 0-85.288 38.185-85.288 85.288-1.242 38.138 2.172 77.522 17.496 112.822z" fill="#bbec6c"/><path d="m479.98 319.231c0-47.103-38.185-85.288-85.288-85.288h-31.78c47.103 0 85.288 38.185 85.288 85.288 1.246 38.118-2.174 77.54-17.495 112.822-6.586 20.241-19.903 37.679-37.817 49.349l-25.529 16.631c-1.888 1.23-3.86 2.264-5.881 3.143 12.152 5.283 26.315 4.249 37.661-3.143l25.529-16.631c17.914-11.67 31.231-29.108 37.817-49.349 15.322-35.282 18.741-74.703 17.495-112.822z" fill="#8de02b"/><path d="m445.858 371.562c-14.769 0-28.827 6.392-38.491 17.56-6.562 7.584-12.271 16.772-12.271 25.789 0 0 17.824 1.998 36.173-6.371 8.93-4.073 14.588-13.069 14.588-22.884v-14.094z" fill="#0ab69f"/><path d="m423.391 376.792v8.864c0 9.815-5.658 21.811-14.588 25.884-3.654 1.667-7.285 2.797-10.762 3.548 5.801.18 19.362-.224 33.229-6.548 8.93-4.073 14.588-13.069 14.588-22.884v-14.094c-7.881 0-15.551 1.836-22.467 5.23z" fill="#04a58a"/><path d="m308.877 371.562c14.769 0 28.827 6.392 38.49 17.56 6.562 7.584 12.271 16.772 12.271 25.789 0 0-17.824 1.998-36.173-6.371-8.93-4.073-14.588-13.069-14.588-22.884z" fill="#0ab69f"/><path d="m359.64 414.91s-9.91 1.11-22.55-1.79c-.68-8.44-6.06-16.91-12.19-24-4.51-5.21-9.97-9.38-16.02-12.34v-5.22c14.77 0 28.82 6.39 38.49 17.56 6.56 7.59 12.27 16.77 12.27 25.79z" fill="#04a58a"/></g><g><path d="m325.313 192.568c13.542-6.176 22.293-19.88 22.293-34.912v-17.3c0-4.142-3.357-7.5-7.5-7.5-20.351 0-39.638 8.801-52.916 24.147-11.207 12.953-16.89 25.254-16.89 36.561 0 3.819 2.869 7.028 6.665 7.453.311.035 2.869.306 6.992.306 8.849.001 24.896-1.248 41.356-8.755zm-26.779-25.75c8.779-10.146 20.91-16.65 34.072-18.451v9.29c0 9.172-5.306 17.519-13.518 21.264-12.439 5.673-24.808 7.095-32.531 7.345 1.906-5.892 5.954-12.487 11.977-19.448z"/><path d="m241.778 193.564c0-11.308-5.683-23.609-16.89-36.561-13.277-15.346-32.564-24.147-52.916-24.147-4.142 0-7.5 3.358-7.5 7.5v17.3c0 15.031 8.751 28.735 22.293 34.912 16.462 7.508 32.508 8.756 41.355 8.756 4.122 0 6.682-.271 6.993-.306 3.796-.426 6.665-3.635 6.665-7.454zm-48.787-14.644c-8.212-3.745-13.518-12.092-13.518-21.264v-9.29c13.162 1.801 25.293 8.304 34.073 18.452 6.022 6.96 10.07 13.555 11.976 19.446-7.729-.249-20.096-1.672-32.531-7.344z"/><path d="m238.761 236.595c.557.126 1.112.186 1.66.186 3.428 0 6.522-2.365 7.309-5.849l1.835-8.123c.913-4.041-1.623-8.056-5.663-8.968-4.039-.913-8.056 1.623-8.968 5.663l-1.835 8.123c-.914 4.04 1.622 8.056 5.662 8.968z"/><path d="m268.179 213.842c-4.041.913-6.576 4.928-5.663 8.968l1.835 8.123c.787 3.484 3.881 5.849 7.309 5.849.547 0 1.104-.06 1.659-.186 4.041-.913 6.576-4.928 5.663-8.968l-1.835-8.123c-.914-4.04-4.93-6.578-8.968-5.663z"/><path d="m301.54 47.937c.997-4.021-1.455-8.087-5.476-9.084-42.788-10.604-78.832-.362-80.345.08-3.973 1.158-6.251 5.313-5.099 9.287s5.311 6.263 9.287 5.116c.333-.096 33.838-9.518 72.549.077.605.15 1.212.222 1.81.222 3.367-.001 6.428-2.283 7.274-5.698z"/><path d="m445.857 364.062c-16.982 0-33.079 7.345-44.162 20.153-9.355 10.812-14.099 21.14-14.099 30.696 0 3.819 2.869 7.028 6.665 7.453.258.029 2.39.255 5.821.255 7.35 0 20.661-1.035 34.3-7.255 11.526-5.257 18.975-16.918 18.975-29.708v-14.094c0-4.142-3.357-7.5-7.5-7.5zm-7.5 21.594c0 6.93-4.003 13.234-10.199 16.06-8.888 4.053-17.738 5.386-23.909 5.764 1.687-4.119 4.646-8.661 8.79-13.45 6.578-7.602 15.54-12.613 25.318-14.319z"/><path d="m308.877 364.062c-4.143 0-7.5 3.358-7.5 7.5v14.094c0 12.789 7.448 24.45 18.976 29.708 13.64 6.221 26.95 7.255 34.3 7.255 3.431 0 5.563-.226 5.821-.255 3.796-.425 6.665-3.634 6.665-7.453 0-9.556-4.744-19.883-14.1-30.696-11.082-12.808-27.178-20.153-44.162-20.153zm17.7 37.654c-6.196-2.826-10.2-9.13-10.2-16.06v-5.946c9.779 1.706 18.74 6.716 25.318 14.319 4.145 4.79 7.104 9.331 8.791 13.45-6.174-.378-15.024-1.711-23.909-5.763z"/><path d="m203.906 419.011c13.542-6.176 22.293-19.88 22.293-34.912v-17.3c0-4.142-3.358-7.5-7.5-7.5-20.352 0-39.639 8.801-52.916 24.146-11.208 12.952-16.89 25.253-16.89 36.562 0 3.819 2.87 7.028 6.665 7.453.311.035 2.87.306 6.993.306 8.848.001 24.894-1.248 41.355-8.755zm-26.779-25.75c8.779-10.147 20.91-16.65 34.072-18.451v9.29c0 9.172-5.306 17.519-13.518 21.264-12.439 5.673-24.807 7.095-32.531 7.345 1.906-5.893 5.954-12.487 11.977-19.448z"/><path d="m43.065 366.799v17.3c0 15.032 8.75 28.735 22.293 34.912 16.462 7.508 32.508 8.756 41.355 8.756 4.122 0 6.682-.271 6.993-.306 3.795-.425 6.665-3.634 6.665-7.453 0-11.307-5.683-23.608-16.89-36.561-13.278-15.346-32.565-24.147-52.916-24.147-4.142-.001-7.5 3.357-7.5 7.499zm15 8.011c13.162 1.801 25.293 8.305 34.072 18.451 6.023 6.961 10.07 13.556 11.976 19.447-7.729-.25-20.095-1.673-32.531-7.344-8.211-3.745-13.518-12.092-13.518-21.264v-9.29z"/><path d="m113.526 445.947-1.835 8.123c-.913 4.041 1.623 8.056 5.663 8.968.557.126 1.112.186 1.66.186 3.427 0 6.522-2.365 7.309-5.849l1.835-8.123c.913-4.041-1.623-8.056-5.663-8.968-4.044-.915-8.057 1.623-8.969 5.663z"/><path d="m142.943 457.375c.787 3.484 3.881 5.849 7.309 5.849.547 0 1.103-.06 1.66-.186 4.04-.913 6.576-4.928 5.663-8.968l-1.835-8.123c-.913-4.039-4.925-6.575-8.968-5.663-4.04.913-6.576 4.928-5.663 8.968z"/><path d="m174.657 265.296c-42.79-10.604-78.832-.362-80.345.08-3.973 1.158-6.251 5.313-5.099 9.287s5.31 6.264 9.287 5.116c.334-.095 33.839-9.517 72.548.077.606.15 1.212.222 1.81.222 3.366 0 6.428-2.283 7.274-5.698.997-4.021-1.454-8.088-5.475-9.084z"/><path d="m159.832 307.954c4.02.997 8.087-1.456 9.084-5.476.997-4.021-1.455-8.087-5.476-9.084-30.803-7.634-56.818-.239-57.911.08-3.977 1.159-6.26 5.323-5.101 9.299.955 3.276 3.948 5.403 7.197 5.403.695 0 1.402-.098 2.103-.302.229-.066 23.184-6.592 50.104.08z"/><path d="m148.615 336.052c4.018.992 8.087-1.455 9.084-5.476s-1.455-8.087-5.476-9.084c-18.812-4.662-34.805-.116-35.478.08-3.977 1.16-6.26 5.323-5.101 9.3.955 3.275 3.949 5.402 7.197 5.402.695 0 1.402-.097 2.103-.302.126-.037 12.978-3.563 27.671.08z"/><path d="m313.117 336.505 25.918 18.474c1.32.941 2.841 1.393 4.347 1.393 2.343 0 4.651-1.094 6.114-3.147 2.404-3.373 1.619-8.056-1.754-10.46l-25.918-18.474c-3.375-2.406-8.058-1.619-10.461 1.754-2.404 3.373-1.619 8.056 1.754 10.46z"/><path d="m344.546 321.152c1.467 1.48 3.396 2.221 5.327 2.221 1.908 0 3.817-.724 5.279-2.173 2.942-2.916 2.964-7.664.048-10.606l-16.511-16.661c-2.917-2.943-7.665-2.963-10.606-.048-2.942 2.916-2.964 7.664-.048 10.606z"/><path d="m349.592 286.11c1.288 2.693 3.973 4.266 6.771 4.266 1.085 0 2.188-.237 3.231-.736 3.737-1.788 5.316-6.266 3.529-10.002l-7.104-14.849c-1.787-3.736-6.265-5.315-10.002-3.529-3.737 1.788-5.316 6.266-3.529 10.002z"/><path d="m405.239 353.225c1.464 2.053 3.771 3.147 6.114 3.147 1.506 0 3.026-.452 4.347-1.393l25.918-18.474c3.373-2.404 4.158-7.087 1.754-10.46-2.405-3.373-7.086-4.16-10.461-1.754l-25.918 18.474c-3.373 2.403-4.158 7.087-1.754 10.46z"/><path d="m399.584 321.2c1.463 1.449 3.371 2.172 5.279 2.172 1.931 0 3.861-.741 5.327-2.221l16.51-16.661c2.916-2.942 2.895-7.691-.048-10.606-2.942-2.915-7.691-2.894-10.606.049l-16.51 16.661c-2.916 2.942-2.894 7.691.048 10.606z"/><path d="m395.143 289.639c1.044.5 2.146.736 3.231.736 2.798 0 5.482-1.573 6.771-4.266l7.104-14.849c1.787-3.736.208-8.214-3.529-10.002-3.734-1.788-8.215-.208-10.002 3.529l-7.104 14.849c-1.788 3.738-.209 8.216 3.529 10.003z"/><path d="m470.296 432.795c13.02-31.095 18.657-68.307 17.185-113.688-.066-51.108-41.665-92.664-92.788-92.664h-9.822v-5.383c0-13.13-7.275-24.908-18.296-31.033 6.082-10.151 9.481-21.917 9.481-34.016v-22.013c0-8.119-3.705-15.708-9.902-20.715v-20.495c0-7.995-1.021-15.878-3.02-23.523 5.673-1.671 10.412-2.392 13.744-2.692 1.691 4.12 4.47 7.852 8.279 10.718 4.608 3.466 10.015 5.139 15.379 5.139 7.787 0 15.486-3.526 20.517-10.214h.001c8.496-11.295 6.219-27.397-5.076-35.895-11.298-8.497-27.398-6.219-35.896 5.076-2.362 3.141-3.889 6.654-4.623 10.271-14.724 1.388-48.171 8.969-77.262 47.643-2.49 3.31-1.825 8.012 1.484 10.502 1.352 1.016 2.934 1.507 4.503 1.507 2.276 0 4.525-1.033 5.999-2.992 13.037-17.331 26.861-27.517 38.874-33.501 1.384 5.855 2.098 11.867 2.098 17.963v24.456c0 2.731 1.484 5.246 3.875 6.566 3.718 2.052 6.027 5.956 6.027 10.188v22.013c0 17.473-9.146 34.041-23.871 43.238-1.495.934-2.613 2.364-3.158 4.041-6.052 18.599-18.403 34.717-34.779 45.385l-25.528 16.631c-10.74 6.996-24.618 6.995-35.355 0l-25.529-16.631c-16.375-10.668-28.727-26.786-34.779-45.385-.545-1.676-1.664-3.106-3.159-4.04-14.724-9.197-23.871-25.765-23.871-43.239v-22.013c0-4.232 2.309-8.136 6.026-10.188 2.391-1.32 3.875-3.835 3.875-6.566v-24.458c0-6.168.743-12.162 2.107-17.919 11.994 5.99 25.783 16.169 38.787 33.457 1.474 1.96 3.723 2.992 6 2.992 1.569 0 3.152-.491 4.502-1.507 3.311-2.49 3.975-7.192 1.485-10.502-15.202-20.21-31.593-31.925-45.881-38.707 12.264-26.871 39.37-45.602 70.786-45.602h34.649c21.474 0 42.199 9.005 56.863 24.707 2.828 3.027 7.574 3.19 10.601.362s3.189-7.573.362-10.601c-17.49-18.727-42.211-29.468-67.826-29.468h-34.649c-37.776 0-70.348 22.694-84.809 55.163-7.026-2.134-13.011-3.087-17.362-3.497-.734-3.617-2.261-7.13-4.624-10.271-4.116-5.472-10.117-9.013-16.896-9.972-6.78-.958-13.527.78-18.999 4.896-11.295 8.497-13.573 24.599-5.077 35.895 4.116 5.472 10.117 9.013 16.896 9.972 1.218.172 2.434.257 3.643.257 5.519 0 10.867-1.777 15.355-5.153 3.81-2.866 6.59-6.599 8.28-10.719 3.347.302 8.113 1.028 13.821 2.715-1.967 7.509-3.018 15.384-3.018 23.501v20.496c-6.197 5.007-9.902 12.595-9.902 20.715v22.013c0 12.275 3.498 24.207 9.747 34.458-10.633 6.216-17.462 17.684-17.462 30.591v5.383h-11.002c-46.68 0-86.257 34.877-92.062 81.126-.516 4.11 2.397 7.86 6.507 8.375 4.116.518 7.86-2.398 8.375-6.507 4.865-38.763 38.044-67.995 77.179-67.995h34.649c42.893 0 77.788 34.896 77.788 77.788v24.457c0 2.731 1.485 5.247 3.876 6.566 3.717 2.051 6.026 5.956 6.026 10.188v22.012c0 17.474-9.146 34.042-23.871 43.238-1.495.934-2.613 2.365-3.159 4.041-6.051 18.599-18.403 34.717-34.779 45.385l-25.525 16.633c-10.739 6.996-24.616 6.996-35.355 0l-25.529-16.631c-16.376-10.668-28.728-26.787-34.779-45.386-.545-1.676-1.664-3.106-3.159-4.041-14.724-9.196-23.87-25.764-23.87-43.238v-22.012c0-4.233 2.309-8.137 6.026-10.188 3.626-2.001 4.944-6.564 2.942-10.19s-6.565-4.943-10.19-2.942c-8.499 4.69-13.778 13.626-13.778 23.321v22.012c0 19.576 8.89 38.279 23.661 50.678-17.111 2.515-30.289 17.289-30.289 35.087v36.28c0 4.142 3.358 7.5 7.5 7.5s7.5-3.358 7.5-7.5v-36.28c0-11.287 9.183-20.47 20.47-20.47h4.382c7.979 16.155 20.21 30.043 35.396 39.937l25.529 16.631c7.857 5.119 16.859 7.678 25.865 7.677 9.003 0 18.01-2.56 25.865-7.677l25.529-16.631c15.187-9.894 27.418-23.782 35.396-39.937h6.647c11.287 0 20.47 9.183 20.47 20.47v36.28c0 4.142 3.358 7.5 7.5 7.5 4.143 0 7.5-3.358 7.5-7.5v-36.28c0-11.287 9.183-20.47 20.47-20.47h6.577c7.979 16.154 20.201 30.045 35.386 39.937l25.528 16.631c7.813 5.09 16.763 7.647 25.717 7.675.05.001.099.008.149.008.051 0 .099-.007.15-.008 8.954-.028 17.903-2.585 25.714-7.675l25.529-16.631c15.185-9.892 27.407-23.783 35.386-39.937h4.392c11.287 0 20.47 9.183 20.47 20.47v36.28c0 4.142 3.357 7.5 7.5 7.5s7.5-3.358 7.5-7.5v-36.28c.003-18.969-14.966-34.507-33.711-35.425zm-78.23-382.382c2.088-2.775 5.281-4.238 8.512-4.238 2.226 0 4.469.694 6.38 2.132 4.686 3.525 5.631 10.205 2.106 14.891-3.526 4.687-10.205 5.63-14.892 2.106-4.685-3.526-5.63-10.206-2.106-14.891zm-274.239 14.89c-2.27 1.708-5.067 2.428-7.881 2.031-2.812-.398-5.302-1.867-7.009-4.137-3.524-4.686-2.58-11.366 2.106-14.891 2.27-1.707 5.07-2.428 7.881-2.031 2.812.398 5.302 1.867 7.009 4.137 3.525 4.687 2.58 11.366-2.106 14.891zm229.599 145.165c3.564-2.445 6.846-5.237 9.825-8.305 7.495 3.121 12.619 10.527 12.619 18.897v5.383h-9.827c-7.359 0-14.52.866-21.389 2.493 3.528-5.822 6.476-12.008 8.772-18.468zm-204.116 15.975v-5.383c0-8.144 4.713-15.28 11.844-18.559 2.892 2.936 6.066 5.612 9.499 7.968 2.298 6.467 5.251 12.661 8.784 18.489-6.897-1.641-14.089-2.515-21.481-2.515zm112.73 220.004c-5.882-7.539-14.734-12.647-24.785-13.546 14.608-12.4 23.392-30.991 23.392-50.446v-22.012c0-8.12-3.704-15.708-9.902-20.715v-20.496c0-13.46-2.884-26.258-8.062-37.814 6.151 2.753 12.753 4.135 19.357 4.135 6.568 0 13.135-1.368 19.258-4.092-5.15 11.509-8.026 24.249-8.043 37.648-1.466 45.36 4.164 82.558 17.167 113.642h-.412c-11.355-.001-21.473 5.369-27.97 13.696zm164.534 28.672-25.529 16.631c-3.171 2.066-6.62 3.506-10.177 4.352v-59.108c0-4.142-3.357-7.5-7.5-7.5s-7.5 3.358-7.5 7.5v59.109c-3.558-.846-7.006-2.285-10.179-4.352l-25.528-16.631c-16.376-10.668-28.728-26.787-34.779-45.386-.073-.226-.157-.448-.252-.666-12.801-29.485-18.321-65.333-16.879-109.591.003-.081.004-.163.004-.244 0-25.413 12.251-48.016 31.155-62.22.092-.07.188-.137.28-.208 12.955-9.644 28.998-15.36 46.353-15.36h34.649c42.893 0 77.788 34.896 77.788 77.788 0 .082.001.164.004.245 1.447 44.257-4.074 80.104-16.878 109.59-.095.218-.18.44-.253.667-6.051 18.597-18.403 34.715-34.779 45.384z"/></g></g></svg>