<svg id="Capa_1" enable-background="new 0 0 512 512" height="512" viewBox="0 0 512 512" width="512" xmlns="http://www.w3.org/2000/svg"><g><g><path d="m372.477 378.314h-232.954c-33.525 0-60.702-27.177-60.702-60.702v-94.261c0-33.525 27.177-60.702 60.702-60.702h232.953c33.525 0 60.702 27.177 60.702 60.702v94.261c0 33.525-27.177 60.702-60.701 60.702z" fill="#8ac9fe"/><path d="m372.477 162.65h-47.408c33.525 0 60.702 27.177 60.702 60.702v94.261c0 33.525-27.177 60.702-60.702 60.702h47.408c33.525 0 60.702-27.177 60.702-60.702v-94.261c-.001-33.525-27.178-60.702-60.702-60.702z" fill="#60b7ff"/><path d="m78.822 288.227v-56.236l-35.55 26.35c-12.011 8.903-19.381 22.737-20.069 37.672l-4.5 97.707c-6.753 6.201-11.203 16.78-11.203 28.794 0 19.102 11.247 34.588 25.122 34.588s25.122-15.486 25.122-34.588c0-12.745-5.01-23.872-12.463-29.872l6.111-73.714c.643-7.759 4.708-14.828 11.091-19.287z" fill="#978ecb"/><path d="m61.746 244.649v35.048c0 5.346-2.611 10.355-6.994 13.417l-9.345 6.528c-6.382 4.459-10.448 11.528-11.091 19.287l-5.601 67.56c-.287 3.458.734 6.938 3.001 9.565 5.473 6.343 8.952 15.84 8.952 26.461 0 14.975-6.913 27.724-16.584 32.536 2.666 1.326 5.54 2.052 8.538 2.052 13.875 0 25.122-15.486 25.122-34.588 0-12.745-5.01-23.872-12.463-29.872l6.111-73.714c.643-7.759 4.709-14.828 11.091-19.287l16.339-11.414v-56.236z" fill="#8379c1"/><path d="m433.178 288.227v-56.236l35.55 26.35c12.011 8.903 19.381 22.737 20.069 37.672l4.5 97.707c6.753 6.2 11.203 16.78 11.203 28.793 0 19.102-11.247 34.588-25.122 34.588s-25.122-15.486-25.122-34.588c0-12.745 5.01-23.872 12.463-29.872l-6.112-73.714c-.643-7.759-4.708-14.828-11.091-19.287z" fill="#978ecb"/><path d="m493.297 393.72-4.5-97.707c-.688-14.935-8.057-28.769-20.069-37.672l-35.55-26.35v12.657l18.474 13.693c12.011 8.903 19.381 22.737 20.069 37.672l4.208 91.376c.169 3.663 1.476 7.168 3.699 10.084 4.802 6.299 7.796 15.187 7.796 25.04 0 14.975-6.913 27.724-16.584 32.536 2.666 1.326 5.54 2.052 8.538 2.052 13.874 0 25.122-15.486 25.122-34.588 0-12.013-4.45-22.592-11.203-28.793z" fill="#8379c1"/><path d="m283.944 62.29c0-18.941-12.511-34.295-27.944-34.295s-27.944 15.355-27.944 34.295c0 12.898 5.805 24.128 14.38 29.984l-7.538 70.376h42.202l-7.538-70.376c8.577-5.856 14.382-17.085 14.382-29.984z" fill="#8ac9fe"/><path d="m283.944 62.29c0-18.941-12.511-34.295-27.944-34.295-2.979 0-5.846.577-8.538 1.637 11.256 4.429 19.406 17.373 19.406 32.658 0 10.259-3.672 19.462-9.489 25.745-2.99 3.23-4.538 7.533-4.069 11.909l6.716 62.705h17.076l-7.538-70.376c8.575-5.855 14.38-17.084 14.38-29.983z" fill="#60b7ff"/><g><g><ellipse cx="164.045" cy="109.722" fill="#6cf5c2" rx="18.004" ry="22.096" transform="matrix(.977 -.216 .216 .977 -19.805 37.966)"/></g><g><path d="m168.81 131.3c-4.31.95-8.68-.08-12.44-2.57 6.14-4.47 9.25-13.52 7.18-22.89-1.46-6.62-5.21-12.02-9.91-15.13 1.67-1.22 3.56-2.1 5.64-2.56 9.71-2.15 19.71 5.77 22.35 17.69 2.63 11.91-3.11 23.31-12.82 25.46z" fill="#00f2a6"/></g><g><ellipse cx="347.955" cy="109.722" fill="#6cf5c2" rx="22.096" ry="18.004" transform="matrix(.216 -.977 .977 .216 165.764 425.82)"/></g><g><path d="m365.54 113.61c-2.64 11.91-12.64 19.83-22.35 17.69-2.08-.46-3.97-1.34-5.64-2.57 4.71-3.11 8.45-8.5 9.91-15.12 2.07-9.37-1.04-18.42-7.18-22.9 3.76-2.48 8.13-3.51 12.44-2.56 9.71 2.14 15.45 13.54 12.82 25.46z" fill="#00f2a6"/></g></g><g><path d="m154.167 378.314v87.03c0 10.306 8.355 18.661 18.661 18.661 9.336 0 17.235-6.899 18.491-16.15l12.156-89.541z" fill="#978ecb"/><path d="m181.399 378.314-12.156 89.541c-.703 5.177-3.488 9.615-7.439 12.522 3.091 2.271 6.894 3.628 11.024 3.628 9.336 0 17.235-6.899 18.491-16.15l12.156-89.541z" fill="#8379c1"/><path d="m357.833 378.314v87.03c0 10.306-8.355 18.661-18.661 18.661-9.336 0-17.235-6.899-18.491-16.15l-12.156-89.541z" fill="#978ecb"/><path d="m335.757 378.314v87.03c0 6.177-3.014 11.636-7.637 15.032 3.109 2.288 6.94 3.628 11.052 3.628 10.306 0 18.661-8.355 18.661-18.661v-87.03h-22.076z" fill="#8379c1"/></g><g><g><circle cx="150.157" cy="251.19" fill="#ffe177" r="35.897"/></g><g><path d="m186.05 251.19c0 19.83-16.07 35.9-35.89 35.9-3.85 0-7.56-.61-11.04-1.73 14.43-4.65 24.86-18.19 24.86-34.17s-10.43-29.52-24.86-34.17c3.48-1.12 7.19-1.73 11.04-1.73 19.82 0 35.89 16.07 35.89 35.9z" fill="#ffd15b"/></g><g><circle cx="256" cy="227.653" fill="#ffe177" r="35.897"/></g><g><path d="m291.9 227.65c0 19.83-16.07 35.9-35.9 35.9-3.85 0-7.56-.61-11.04-1.73 14.43-4.65 24.86-18.19 24.86-34.17 0-15.97-10.43-29.51-24.86-34.16 3.48-1.12 7.19-1.73 11.04-1.73 19.83 0 35.9 16.07 35.9 35.89z" fill="#ffd15b"/></g><g><circle cx="361.843" cy="251.19" fill="#ffe177" r="35.897"/></g><g><path d="m397.74 251.19c0 19.83-16.07 35.9-35.9 35.9-3.85 0-7.56-.61-11.03-1.73 14.42-4.66 24.85-18.19 24.85-34.17s-10.43-29.51-24.85-34.17c3.47-1.12 7.18-1.73 11.03-1.73 19.83 0 35.9 16.07 35.9 35.9z" fill="#ffd15b"/></g></g></g><g><path d="m500.656 390.504-4.367-94.835c-.795-17.261-9.212-33.062-23.095-43.353l-32.516-24.101v-4.864c0-37.606-30.596-68.201-68.202-68.201h-29.941l5.825-16.101c4.685-.417 9.314-2.28 13.311-5.445 5.57-4.41 9.543-10.938 11.187-18.381 1.645-7.444.791-15.038-2.402-21.384-3.403-6.762-9.277-11.506-16.117-13.018-13.735-3.033-27.769 7.464-31.287 23.399-2.79 12.631 1.855 24.938 10.738 31.013l-7.206 19.916h-42.742l-6.38-59.565c8.718-7.829 13.982-20.165 13.982-33.294 0-23.046-15.899-41.795-35.443-41.795s-35.443 18.75-35.443 41.795c0 13.129 5.265 25.465 13.982 33.294l-6.38 59.565h-42.742l-7.206-19.916c8.882-6.075 13.527-18.382 10.738-31.013-3.519-15.934-17.546-26.43-31.288-23.398-6.839 1.511-12.713 6.255-16.116 13.017-3.193 6.346-4.047 13.94-2.402 21.384 1.644 7.443 5.616 13.972 11.187 18.381 3.997 3.165 8.626 5.027 13.311 5.445l5.825 16.101h-29.941c-37.606 0-68.202 30.595-68.202 68.201v4.864l-32.516 24.101c-13.883 10.29-22.3 26.091-23.095 43.352l-4.367 94.836c-7.154 7.918-11.346 19.625-11.346 32.01 0 23.601 14.329 42.088 32.622 42.088s32.622-18.487 32.622-42.088c0-13.021-4.494-25.002-12.187-32.911l5.81-70.056c.17-6.698 6.142-13.35 12.454-16.931v14.996c0 37.606 30.596 68.202 68.202 68.202h7.144v79.53c0 14.425 11.735 26.161 26.161 26.161 13.025 0 24.17-9.734 25.922-22.642l11.275-83.049h140.308v79.53c0 6.154-5.007 11.161-11.161 11.161-5.557 0-10.311-4.152-11.059-9.659l-7.391-54.435c-.557-4.105-4.342-6.986-8.44-6.423-4.104.557-6.98 4.336-6.423 8.44l7.391 54.435c1.752 12.908 12.896 22.642 25.922 22.642 14.426 0 26.161-11.736 26.161-26.161v-79.53h7.144c37.606 0 68.202-30.595 68.202-68.202v-14.996l4.543 3.174c4.568 3.191 7.451 8.205 7.911 13.758l5.81 70.055c-7.692 7.909-12.187 19.89-12.187 32.911 0 23.601 14.329 42.088 32.622 42.088s32.622-18.487 32.622-42.088c0-12.385-4.192-24.092-11.344-32.01zm-162.958-283.048c1.707-7.725 7.847-13.211 13.405-11.987 3.309.731 5.15 3.518 5.954 5.114 1.622 3.224 2.043 7.381 1.154 11.405-.889 4.023-3.021 7.616-5.852 9.856-1.4 1.11-4.238 2.862-7.554 2.13-5.558-1.227-8.813-8.792-7.107-16.518zm-81.698-71.961c11.272 0 20.443 12.021 20.443 26.795 0 9.995-4.257 19.11-11.109 23.79-2.282 1.558-3.522 4.245-3.228 6.992l6.648 62.077h-25.51l6.648-62.077c.295-2.748-.945-5.434-3.228-6.992-6.853-4.68-11.109-13.795-11.109-23.79.002-14.774 9.173-26.795 20.445-26.795zm-102.212 76.492c-.889-4.023-.468-8.18 1.154-11.404.804-1.596 2.646-4.383 5.953-5.114.525-.116 1.055-.172 1.586-.172 5.094 0 10.274 5.163 11.82 12.159 1.706 7.726-1.549 15.291-7.109 16.519-3.31.73-6.152-1.021-7.553-2.13-2.829-2.241-4.962-5.834-5.851-9.858zm-95.6 181.506c-8.239 5.755-13.44 14.8-14.271 24.815l-6.112 73.714c-.205 2.48.833 4.901 2.771 6.462 5.963 4.8 9.667 14.008 9.667 24.029 0 14.684-8.07 27.088-17.622 27.088s-17.621-12.404-17.621-27.087c0-9.383 3.362-18.299 8.775-23.269 1.459-1.339 2.329-3.201 2.42-5.179l4.5-97.707c.586-12.737 6.798-24.398 17.042-31.991l23.584-17.481v37.432zm125.699 173.353c-.748 5.507-5.502 9.659-11.059 9.659-6.154 0-11.161-5.007-11.161-11.161v-79.53h33.221zm241.792-149.234c0 29.335-23.866 53.202-53.202 53.202h-232.954c-29.336 0-53.202-23.866-53.202-53.202v-94.261c0-29.335 23.866-53.201 53.202-53.201h232.953c29.336 0 53.202 23.866 53.202 53.201v94.261zm53.699 131.99c-9.552 0-17.622-12.405-17.622-27.088 0-10.021 3.704-19.229 9.667-24.029 1.938-1.561 2.977-3.981 2.771-6.462l-6.112-73.713c-.83-10.016-6.031-19.061-14.271-24.816l-13.133-9.175v-37.432l23.584 17.481c10.244 7.593 16.456 19.254 17.042 31.992l4.5 97.707c.091 1.978.961 3.84 2.42 5.179 5.413 4.97 8.775 13.886 8.775 23.269.001 14.682-8.069 27.087-17.621 27.087z"/><path d="m171.136 213.193c-3.624-2.004-8.188-.691-10.192 2.933-2.005 3.625-.692 8.188 2.933 10.193 9.054 5.008 14.679 14.538 14.679 24.871 0 15.658-12.739 28.397-28.397 28.397s-28.397-12.739-28.397-28.397c0-10.421 5.694-19.989 14.86-24.971 3.64-1.978 4.986-6.532 3.009-10.171-1.977-3.638-6.53-4.987-10.171-3.008-14.001 7.609-22.698 22.228-22.698 38.15 0 23.929 19.468 43.397 43.397 43.397s43.397-19.468 43.397-43.397c-.001-15.789-8.592-30.349-22.42-37.997z"/><path d="m150.157 263.95c4.143 0 7.5-3.358 7.5-7.5v-10.52c0-4.142-3.357-7.5-7.5-7.5s-7.5 3.358-7.5 7.5v10.52c0 4.142 3.358 7.5 7.5 7.5z"/><path d="m256 271.05c23.93 0 43.397-19.468 43.397-43.397s-19.467-43.398-43.397-43.398-43.397 19.468-43.397 43.397 19.467 43.398 43.397 43.398zm0-71.795c15.658 0 28.397 12.739 28.397 28.397s-12.739 28.398-28.397 28.398-28.397-12.739-28.397-28.397 12.739-28.398 28.397-28.398z"/><path d="m256 240.412c4.143 0 7.5-3.358 7.5-7.5v-10.519c0-4.142-3.357-7.5-7.5-7.5s-7.5 3.358-7.5 7.5v10.519c0 4.142 3.357 7.5 7.5 7.5z"/><path d="m361.843 207.792c-23.93 0-43.397 19.468-43.397 43.397s19.468 43.397 43.397 43.397 43.397-19.468 43.397-43.397-19.468-43.397-43.397-43.397zm0 71.795c-15.658 0-28.397-12.739-28.397-28.397s12.739-28.397 28.397-28.397 28.397 12.739 28.397 28.397-12.739 28.397-28.397 28.397z"/><path d="m361.843 238.43c-4.143 0-7.5 3.358-7.5 7.5v10.52c0 4.142 3.357 7.5 7.5 7.5s7.5-3.358 7.5-7.5v-10.52c0-4.142-3.358-7.5-7.5-7.5z"/><path d="m295.537 337.067c-41.937 10.393-78.239.234-78.785.078-3.973-1.154-8.134 1.129-9.293 5.103-1.159 3.977 1.124 8.14 5.101 9.299 1.078.314 18.422 5.246 43.386 5.246 12.787 0 27.575-1.294 43.199-5.167 4.021-.997 6.473-5.063 5.476-9.084-.997-4.02-5.065-6.471-9.084-5.475z"/><path d="m219.592 315.856c-1.159 3.976 1.124 8.14 5.101 9.299.778.227 13.3 3.788 31.294 3.788 9.192 0 19.814-.93 31.025-3.708 4.021-.997 6.473-5.063 5.476-9.084-.996-4.022-5.07-6.473-9.083-5.476-29.079 7.208-54.275.148-54.527.076-3.975-1.15-8.128 1.133-9.286 5.105z"/><path d="m256.027 301.093c5.598 0 12.054-.565 18.853-2.25 4.021-.997 6.473-5.063 5.476-9.084-.996-4.021-5.063-6.474-9.083-5.476-16.055 3.979-30.015.145-30.271.073-3.974-1.146-8.121 1.138-9.278 5.107-1.159 3.977 1.124 8.14 5.101 9.3.477.14 8.177 2.33 19.202 2.33z"/></g></g></svg>