<svg id="Capa_1" enable-background="new 0 0 512.001 512.001" height="512" viewBox="0 0 512.001 512.001" width="512" xmlns="http://www.w3.org/2000/svg"><g><g><g><path d="m191.028 281.6v193.06l-45.699 29.84h-102.281c-2.27-3.96-4.1-8.23-5.4-12.77l-19.53-67.94c-1.503-5.016 2.346-10.424 7.83-10.39 17.8 0 33.85 10.75 40.61 27.23l14.49 35.32c1.63 3.97 4.37 7.24 7.78 9.52 3.4 2.29 7.48 3.58 11.76 3.58 11.66 0 21.11-9.45 21.11-21.11v-186.34z" fill="#978ecb"/><g fill="#8379c1"><path d="m44.828 440.63 14.49 35.32c1.63 3.97 4.37 7.24 7.78 9.52 3.4 2.29 7.48 3.58 11.76 3.58 3.976 0 7.681-1.119 10.856-3.03-.298-.18-.598-.356-.886-.55-3.41-2.28-6.15-5.55-7.78-9.52l-14.49-35.32c-6.76-16.48-22.81-27.23-40.61-27.23-2.527-.016-4.697 1.131-6.166 2.856 11.15 4.23 20.345 12.914 25.046 24.374z"/><path d="m135.83 281.6v193.06l-12.232 29.84h21.731l45.699-29.84v-193.06z"/></g><path d="m320.981 281.6v193.06l45.699 29.84h102.28c2.27-3.96 4.1-8.23 5.4-12.77l19.53-67.94c1.503-5.016-2.346-10.424-7.83-10.39-17.8 0-33.85 10.75-40.61 27.23l-14.49 35.32c-1.63 3.97-4.37 7.24-7.78 9.52-3.4 2.29-7.48 3.58-11.76 3.58-11.66 0-21.11-9.45-21.11-21.11v-186.34z" fill="#978ecb"/><g fill="#8379c1"><path d="m389.69 489.05c3.917 0 7.66-1.091 10.874-3.03-6.136-3.692-10.254-10.396-10.254-18.081v-186.339h-21.73v186.34c0 11.66 9.45 21.11 21.11 21.11z"/><path d="m486.061 413.4c-5.422 0-10.68 1.003-15.564 2.856 1.719 2.018 2.474 4.83 1.664 7.534l-19.53 67.94c-1.3 4.54-3.13 8.81-5.4 12.77h21.73c2.27-3.96 4.1-8.23 5.4-12.77l19.53-67.94c1.503-5.016-2.347-10.424-7.83-10.39z"/></g></g><path d="m403.08 281.598h-294.152c-3.866 0-7-3.134-7-7v-24.689c0-3.866 3.134-7 7-7h294.152c3.866 0 7 3.134 7 7v24.689c.001 3.865-3.133 7-7 7z" fill="#b5adb6"/><path d="m403.08 242.908h-50.842c3.866 0 7 3.134 7 7v24.689c0 3.866-3.134 7-7 7h50.842c3.866 0 7-3.134 7-7v-24.689c.001-3.866-3.133-7-7-7z" fill="#a79ba7"/><path d="m157.56 281.598v157.436c0 11.661-9.453 21.114-21.114 21.114-8.565 0-16.281-5.174-19.533-13.098l-14.498-35.328c-6.76-16.472-22.802-27.229-40.607-27.229-5.416 0-9.324 5.189-7.827 10.395l19.53 67.938c7.094 24.676 29.667 41.674 55.342 41.674h39.293c32.445 0 58.748-26.302 58.748-58.748v-164.154z" fill="#fec0dd"/><g fill="#fea3ce"><path d="m80.685 411.722 14.499 35.328c3.252 7.924 10.968 13.098 19.533 13.098 3.976 0 7.681-1.119 10.856-3.03-3.813-2.293-6.896-5.771-8.659-10.068l-14.499-35.328c-6.76-16.472-22.802-27.229-40.607-27.229-2.518 0-4.701 1.13-6.175 2.853 11.154 4.231 20.349 12.918 25.052 24.376z"/><path d="m218.149 389.794c-9.382 0-16.987 7.605-16.987 16.987v38.971c0 32.445-22.302 58.748-54.748 58.748h21.73c32.445 0 58.748-26.302 58.748-58.748v-55.958z"/></g><path d="m354.45 281.598v157.436c0 11.661 9.453 21.114 21.114 21.114 8.565 0 16.281-5.174 19.533-13.098l14.498-35.328c6.76-16.472 22.802-27.229 40.607-27.229 5.416 0 9.324 5.189 7.827 10.395l-19.53 67.938c-7.094 24.676-29.667 41.674-55.342 41.674h-39.293c-32.445 0-58.748-26.302-58.748-58.748v-164.154z" fill="#fec0dd"/><g fill="#fea3ce"><path d="m353.834 460.147c3.92 0 7.656-1.094 10.874-3.03-6.138-3.693-10.258-10.399-10.258-18.084v-157.435h-21.73v157.436c0 11.66 9.453 21.113 21.114 21.113z"/><path d="m450.203 384.493c-5.42 0-10.674 1.002-15.555 2.853 1.697 1.983 2.453 4.756 1.652 7.542l-19.53 67.938c-7.094 24.676-29.667 41.674-55.342 41.674h21.73c25.675 0 48.248-16.998 55.342-41.674l19.53-67.938c1.496-5.206-2.411-10.395-7.827-10.395z"/></g><path d="m221.338 281.598h69.332v222.902h-69.332z" fill="#fec0dd"/><path d="m268.94 414.491v90.009h21.73v-102.496h-9.244c-6.895 0-12.486 5.591-12.486 12.487z" fill="#fea3ce"/><path d="m299.537 7.5h-87.066c-47.039 0-85.171 38.132-85.171 85.171v114.174c0 19.917 16.146 36.063 36.063 36.063h185.282c19.917 0 36.063-16.146 36.063-36.063v-114.174c0-47.039-38.132-85.171-85.171-85.171z" fill="#d8ecfe"/><path d="m299.538 7.5h-36.666c47.039 0 85.171 38.132 85.171 85.171v114.174c0 19.917-16.146 36.063-36.063 36.063h36.666c19.917 0 36.063-16.146 36.063-36.063v-114.174c-.001-47.039-38.133-85.171-85.171-85.171z" fill="#c4e2ff"/><g><g><path d="m256.004 177.678s-5.837 23.398-29.112 21.755c-24.346-1.719-31.317-24.727-26.116-42.561 0 0-26.281-24.112-14.199-55.312 5.656-14.606 17.914-27.102 41.692-28.992 0 0 7.17-18.981 27.734-17.495v122.605z" fill="#fe7ab6"/></g><path d="m231.274 67.14v110.538s-3.363 13.44-15.127 19.23c3.118 1.348 6.685 2.238 10.745 2.525 23.275 1.643 29.112-21.755 29.112-21.755v-122.606c-13.254-.957-20.937 6.584-24.73 12.068z" fill="#fe5ca7"/><g><path d="m256.004 177.678s5.837 23.398 29.112 21.755c24.346-1.719 31.317-24.727 26.116-42.561 0 0 26.281-24.112 14.199-55.312-5.656-14.606-17.914-27.102-41.692-28.992 0 0-7.17-18.981-27.734-17.495v122.605z" fill="#fe7ab6"/></g><path d="m325.431 101.56c-5.656-14.606-17.914-27.102-41.692-28.992 0 0-7.17-18.981-27.734-17.495v9.019c4.834 4.288 7.383 8.476 7.383 8.476 23.778 1.891 31.657 14.387 37.313 28.992 9.196 23.748-3.834 43.39-10.583 51.418-2.048 2.436-3.024 5.632-2.519 8.775 2.22 13.796-2.561 29.14-16.468 35.155 3.753 1.847 8.355 2.923 13.985 2.525 24.346-1.719 31.317-24.727 26.116-42.56 0-.001 26.281-24.113 14.199-55.313z" fill="#fe5ca7"/></g><path d="m256.004 281.598s-39.254 38.543-63.196 36.548-35.248-36.548-35.248-36.548z" fill="#bbec6c"/><path d="m228.274 281.598s-20.976 26.487-43.842 34.409c2.597 1.133 5.388 1.889 8.376 2.138 23.942 1.995 63.196-36.548 63.196-36.548h-27.73z" fill="#8de02b"/><path d="m256.004 281.598s39.254 38.543 63.196 36.548 35.248-36.548 35.248-36.548z" fill="#bbec6c"/><path d="m330.718 281.598s-6.66 26.465-24.872 34.409c4.717 1.634 9.259 2.48 13.354 2.138 23.942-1.995 35.248-36.548 35.248-36.548h-23.73z" fill="#8de02b"/></g><g><path d="m332.425 98.852c-5.187-13.392-16.979-29.677-43.771-33.298-4.825-8.346-15.531-18.981-32.646-17.989-17.134-1.012-27.829 9.642-32.655 17.989-26.791 3.621-38.584 19.907-43.771 33.298-11.165 28.832 5.562 51.939 12.948 60.255-2.251 11.743-.024 24.005 6.146 32.866 4.339 6.23 12.664 13.88 27.687 14.941.971.068 1.916.102 2.844.102 12.555 0 21.251-6.09 26.796-13.1 5.544 7.01 14.241 13.1 26.797 13.1.926 0 1.875-.033 2.844-.102 15.022-1.061 23.348-8.71 27.687-14.941 6.17-8.861 8.396-21.123 6.146-32.866 7.387-8.316 24.113-31.424 12.948-60.255zm-105.005 93.099c-7.313-.516-12.843-3.393-16.434-8.55-4.406-6.328-5.56-15.689-3.01-24.429.003-.009.003-.019.006-.028.057-.199.108-.401.149-.608.022-.11 2.671-11.064 19.991-13.947 4.086-.68 6.847-4.544 6.167-8.63-.681-4.086-4.547-6.846-8.63-6.167-13.65 2.272-21.626 8.36-26.234 14.056-5.746-8.348-12.313-22.703-5.855-39.38 5.679-14.664 17.553-22.814 35.293-24.224 2.894-.23 5.374-2.055 6.4-4.771.457-1.154 4.097-9.618 13.239-12.1v113.445c-1.157 3.655-6.314 16.373-21.082 15.333zm85.163-48.301c-4.607-5.697-12.583-11.785-26.235-14.058-4.087-.681-7.949 2.081-8.63 6.167-.68 4.086 2.081 7.95 6.167 8.63 17.124 2.85 19.91 13.627 20.021 14.085l-.029-.138.017-.003c.042.213.077.428.138.639 2.55 8.74 1.396 18.101-3.01 24.429-3.591 5.157-9.12 8.034-16.434 8.55-14.793 1.046-19.925-11.679-21.084-15.333v-113.445c9.141 2.48 12.778 10.936 13.218 12.045 1.026 2.716 3.528 4.596 6.422 4.826 17.74 1.41 29.614 9.561 35.293 24.224 6.46 16.681-.112 31.039-5.854 39.382z"/><path d="m498.569 412.164c-3.003-4.008-7.622-6.28-12.505-6.264-9.09 0-17.75 2.362-25.292 6.616l4.468-15.543c.407-1.41.614-2.872.614-4.343 0-8.624-7.021-15.64-15.649-15.64-20.936 0-39.6 12.515-47.549 31.882l-4.842 11.797v-131.571h5.267c7.995 0 14.5-6.505 14.5-14.5v-24.689c0-7.996-6.505-14.5-14.5-14.5h-21.585c6.664-7.654 10.713-17.642 10.713-28.563v-79.127c0-4.142-3.357-7.5-7.5-7.5s-7.5 3.358-7.5 7.5v79.127c0 15.75-12.813 28.563-28.563 28.563h-185.282c-15.75 0-28.563-12.813-28.563-28.563v-114.175c-.001-42.828 34.842-77.671 77.67-77.671h87.066c42.828 0 77.671 34.843 77.671 77.671 0 4.142 3.357 7.5 7.5 7.5s7.5-3.358 7.5-7.5c0-51.099-41.572-92.671-92.67-92.671h-87.066c-51.099 0-92.672 41.572-92.672 92.671v114.174c0 10.921 4.049 20.909 10.713 28.563h-21.585c-7.995 0-14.5 6.505-14.5 14.5v24.689c0 7.996 6.505 14.5 14.5 14.5l41.136.002v149.93c-.154 9.644-11.056 17.481-20.869 11.518v-133.791c0-4.142-3.357-7.5-7.5-7.5s-7.5 3.358-7.5 7.5v103.914l-4.842-11.797c-7.949-19.368-26.613-31.882-47.549-31.882-8.624 0-15.64 7.012-15.64 15.63 0 1.482.208 2.949.612 4.342l4.472 15.556c-7.537-4.256-16.188-6.618-25.263-6.618-.029 0-.059 0-.088 0-4.937 0-9.474 2.28-12.458 6.264-2.966 3.959-3.905 9.108-2.533 13.698l19.527 67.934c1.439 5.025 3.493 9.882 6.104 14.435 1.387 2.417 3.914 3.771 6.514 3.771 1.265 0 2.548-.321 3.724-.995 3.594-2.06 4.836-6.644 2.776-10.237-2.01-3.505-3.59-7.241-4.699-11.111l-19.551-68.015c-.044-.145.041-.349.144-.486.194-.259.374-.257.5-.257 14.828 0 28.045 8.862 33.67 22.575 1.65 2.894 5.703 18.195 6.691 21.427 7.97 27.73 33.69 47.098 62.548 47.098h39.29c17.237 0 33.552-6.808 45.69-18.335v10.833c0 4.142 3.357 7.5 7.5 7.5s7.5-3.358 7.5-7.5v-10.778h9.283c4.143 0 7.5-3.358 7.5-7.5s-3.357-7.5-7.5-7.5h-9.283v-13.072h9.283c4.143 0 7.5-3.358 7.5-7.5s-3.357-7.5-7.5-7.5h-9.283v-13.073h9.283c4.143 0 7.5-3.358 7.5-7.5s-3.357-7.5-7.5-7.5h-9.283v-13.073h9.283c4.143 0 7.5-3.358 7.5-7.5s-3.357-7.5-7.5-7.5h-9.283v-2.605c0-4.142-3.357-7.5-7.5-7.5s-7.5 3.358-7.5 7.5v77.087c-8.704 17.069-26.46 28.014-45.69 28.014h-39.29c-22.207 0-41.999-14.903-48.132-36.242l-19.534-67.959c-.011-.037-.023-.09-.023-.179 0-.22.188-.63.64-.63 14.826 0 28.043 8.862 33.672 22.578l14.503 35.336c3.707 9.377 14.275 17.839 26.466 17.746 12.651 0 23.404-8.255 27.174-19.659h10.724c4.143 0 7.5-3.358 7.5-7.5s-3.357-7.5-7.5-7.5h-9.279v-13.073h9.279c4.143 0 7.5-3.358 7.5-7.5s-3.357-7.5-7.5-7.5h-9.279v-13.073h9.279c4.143 0 7.5-3.358 7.5-7.5s-3.357-7.5-7.5-7.5h-9.279v-13.072h9.279c4.143 0 7.5-3.358 7.5-7.5s-3.357-7.5-7.5-7.5h-9.279v-38.672c6.459 7.647 17.047 15.654 29.486 15.614 21.595 0 49.638-23.135 61.454-33.836 11.816 10.701 39.859 33.836 61.454 33.836 10.899.234 23.073-7.43 29.496-15.625v38.683h-9.289c-4.143 0-7.5 3.358-7.5 7.5s3.357 7.5 7.5 7.5h9.289v13.072h-9.289c-4.143 0-7.5 3.358-7.5 7.5s3.357 7.5 7.5 7.5h9.289v13.073h-9.289c-4.143 0-7.5 3.358-7.5 7.5s3.357 7.5 7.5 7.5h9.289v13.073h-9.289c-4.143 0-7.5 3.358-7.5 7.5s3.357 7.5 7.5 7.5h10.733c3.769 11.404 14.518 19.659 27.165 19.659 10.621-.074 21.498-6.164 26.469-17.752l14.5-35.33c5.629-13.715 18.846-22.578 33.672-22.578.453 0 .649.423.649.64 0 .063-.008.12-.027.188l-14.457 50.294c.002-.008-4.954 17.236-5.072 17.644-6.142 21.34-25.939 36.244-48.143 36.244h-39.29c-19.239 0-36.995-10.951-45.69-28.032v-77.069c0-4.142-3.357-7.5-7.5-7.5s-7.5 3.358-7.5 7.5v2.605h-9.283c-4.143 0-7.5 3.358-7.5 7.5s3.357 7.5 7.5 7.5h9.283v13.073h-9.283c-4.143 0-7.5 3.358-7.5 7.5s3.357 7.5 7.5 7.5h9.283v13.073h-9.283c-4.143 0-7.5 3.358-7.5 7.5s3.357 7.5 7.5 7.5h9.283v13.072h-9.283c-4.143 0-7.5 3.358-7.5 7.5s3.357 7.5 7.5 7.5h9.283v10.778c0 4.142 3.357 7.5 7.5 7.5s7.5-3.358 7.5-7.5v-10.838c12.135 11.529 28.449 18.338 45.69 18.338h39.29c28.853 0 54.577-19.367 62.558-47.098 1.013-3.407 5.195-18.906 6.681-21.426 5.626-13.714 18.843-22.576 33.712-22.576.073.003.266-.001.459.257.103.137.188.341.122.561l-19.531 67.946c-1.107 3.864-2.688 7.601-4.697 11.105-2.06 3.593-.817 8.177 2.776 10.237 1.176.674 2.458.995 3.724.995 2.6 0 5.127-1.354 6.514-3.771 2.61-4.553 4.664-9.409 6.102-14.429l19.508-67.864c1.391-4.665.452-9.813-2.514-13.773zm-389.141-161.756h293.152v23.69h-293.152zm84.003 60.263c-10.977-.914-19.458-12.153-24.443-21.571 0 0 57.938-.002 57.954-.002h9.2c-14.34 11.452-31.959 22.456-42.711 21.573zm125.147 0c-10.745.899-28.371-10.12-42.711-21.573h67.154c-4.986 9.421-13.468 20.658-24.443 21.573zm43.377 128.359v-149.932h20.859v161.45c-2.172 1.372-4.668 2.103-7.25 2.103-7.504-.001-13.609-6.111-13.609-13.621z"/><path d="m244.913 317.621c-4.041-.916-8.056 1.622-8.969 5.663l-1.985 8.786c-.913 4.04 1.622 8.056 5.662 8.968.557.126 1.112.186 1.66.186 3.428 0 6.521-2.365 7.309-5.849l1.985-8.786c.913-4.04-1.622-8.056-5.662-8.968z"/><path d="m272.388 341.038c4.04-.913 6.575-4.928 5.662-8.968l-1.985-8.786c-.912-4.04-4.923-6.58-8.969-5.663-4.04.913-6.575 4.928-5.662 8.968l1.985 8.786c.787 3.484 3.881 5.849 7.309 5.849.547 0 1.104-.06 1.66-.186z"/><circle cx="339.334" cy="207.639" r="7.5"/><circle cx="157.564" cy="166.524" r="7.5"/><circle cx="314.974" cy="40.149" r="7.5"/></g></g></svg>