<svg id="Capa_1" enable-background="new 0 0 512.003 512.003" height="512" viewBox="0 0 512.003 512.003" width="512" xmlns="http://www.w3.org/2000/svg"><g><g><path d="m401.424 504.441c-9.6.56-18.32-2.8-23.9-8.41h-273.88c-5.66 0-10.79-2.29-14.5-6.01-3.72-3.71-6.01-8.84-6.01-14.5 0-7.15 3.72-13.79 9.83-17.51l51.76-31.59s-36.34-216.17 43.49-294.69l-72.47-124.23h151.25l16.14 31.27s37.825-7.71 46.954 31.282c9.139 39.035-31.284 52.588-31.284 52.588l-81.995 278.508c-2.016 6.849-.504 14.253 4.037 19.762 5.226 6.34 13.605 9.151 21.597 7.245l124.221-29.635c2.91-8.62 11.3-15.98 22.35-18.44 15.55-3.47 30.46 4.05 33.31 16.8 2.84 12.75-7.45 25.9-23 29.37-8.12 1.82-16.06.63-22.2-2.73l-99.04 37.46 97.48 7.81c4.83-6.46 13.27-11.01 23.09-11.58 15.91-.93 29.42 8.88 30.18 21.92.77 13.05-11.5 24.38-27.41 25.31z" fill="#6cf5c2"/><g fill="#00f2a6"><path d="m396.064 396.882c2.467 11.075-4.976 22.447-17.164 27.52 5.858 2.67 13.064 3.5 20.424 1.85 15.55-3.47 25.84-16.62 23-29.37-2.85-12.75-17.76-20.27-33.31-16.8-2.042.455-3.993 1.079-5.836 1.845 6.53 2.971 11.384 8.235 12.886 14.955z"/><path d="m303.828 70.054c6.728 28.736-13.403 43.662-24.495 49.538-4.453 2.359-7.774 6.395-9.198 11.229l-79.587 270.327c-2.016 6.849-.504 14.253 4.037 19.762 13.335 15.38 37.633 9.739 45.625 7.833l1.383-.417c-7.732 1.519-15.707-1.299-20.748-7.415-4.541-5.51-6.053-12.913-4.037-19.762l81.995-278.508s40.424-13.552 31.284-52.588c-9.129-38.992-46.954-31.282-46.954-31.282l-16.14-31.27h-26.26l20.6 42.769c0 .001 35.104-11.781 42.495 19.784z"/><path d="m428.834 479.131c-.76-13.04-14.27-22.85-30.18-21.92-3.992.232-7.749 1.13-11.135 2.539 8.562 3.651 14.557 10.82 15.055 19.381.576 9.767-6.153 18.57-16.245 22.771 4.472 1.907 9.641 2.857 15.095 2.539 15.91-.93 28.18-12.26 27.41-25.31z"/></g><path d="m230.414 164.082c-14.43 75.88-52.68 259.21-85.69 262.34 0 0-36.34-216.17 43.49-294.69h15.42c17.1 0 29.98 15.55 26.78 32.35z" fill="#0ab69f"/><path d="m203.634 131.732h-15.42c-.281.277-.556.561-.834.841 13.582 3.434 22.814 17.001 20.051 31.509-11.56 60.786-38.405 190.52-65.598 241.339 1.578 13.187 2.891 21 2.891 21 33.01-3.13 71.26-186.46 85.69-262.34 3.2-16.799-9.68-32.349-26.78-32.349z" fill="#04a58a"/></g><g><path d="m436.321 478.695c-.5-8.593-4.936-16.346-12.489-21.831-7.098-5.155-16.191-7.698-25.613-7.141-10.041.583-19.401 4.727-25.838 11.288l-60.387-4.838 64.783-24.503c7.347 3.096 15.8 3.778 24.18 1.901 19.552-4.364 32.421-21.555 28.686-38.326-3.747-16.763-22.708-26.852-42.259-22.485-13.298 2.96-23.961 11.912-27.826 23.361-1.325 3.925.782 8.181 4.707 9.506 3.922 1.323 8.18-.782 9.505-4.707 2.165-6.413 8.788-11.719 16.877-13.52 11.484-2.563 22.415 2.423 24.356 11.111 1.937 8.696-5.83 17.856-17.319 20.421-6.007 1.345-12.189.62-16.96-1.991-1.921-1.053-4.207-1.21-6.254-.436l-97.756 36.975h-18.415c-4.142 0-7.5 3.357-7.5 7.5s3.358 7.5 7.5 7.5h19.491l97.175 7.785c2.561.212 5.062-.921 6.606-2.984 3.703-4.953 10.252-8.162 17.521-8.584 5.97-.349 11.625 1.179 15.926 4.303 3.847 2.794 6.094 6.547 6.329 10.572.237 4.026-1.556 8.021-5.051 11.248-3.905 3.606-9.342 5.784-15.308 6.133-7.083.409-13.867-1.909-18.146-6.212-1.408-1.415-3.322-2.211-5.318-2.211h-273.88c-3.478 0-6.742-1.352-9.204-3.82-2.455-2.448-3.806-5.711-3.806-9.189 0-4.51 2.387-8.764 6.237-11.107l50.473-30.805c10.467-2.074 24.885-14.459 45.129-77.803 11.088-34.693 22.684-80.544 34.466-136.279.856-4.052-1.734-8.032-5.787-8.889-4.053-.856-8.033 1.733-8.889 5.787-30.34 143.526-51.625 185.378-61.762 197.557-2.613-20.099-4.581-40.874-5.666-64.121h8.908c4.142 0 7.5-3.357 7.5-7.5s-3.358-7.5-7.5-7.5h-9.453c-.131-5.432-.262-11.908-.227-20.18h18.29c4.142 0 7.5-3.357 7.5-7.5s-3.358-7.5-7.5-7.5h-18.051c.237-6.437.134-6.959.937-20.17h25.724c4.142 0 7.5-3.357 7.5-7.5s-3.358-7.5-7.5-7.5h-24.515c.742-6.899.547-6.664 2.432-20.18h29.693c4.142 0 7.5-3.357 7.5-7.5s-3.358-7.5-7.5-7.5h-27.183c1.005-5.065 1.801-9.592 4.537-20.17h31.256c4.142 0 7.5-3.357 7.5-7.5s-3.358-7.5-7.5-7.5h-26.803c2.018-5.558 2.304-7.605 7.975-20.181h27.439c4.142 0 7.5-3.357 7.5-7.5s-3.358-7.5-7.5-7.5h-19.449c3.338-5.491 8.677-13.224 15.012-19.75h12.277c5.912 0 11.462 2.61 15.229 7.162 3.764 4.549 5.288 10.484 4.183 16.287-1.198 6.3-2.441 12.712-3.695 19.061-.803 4.063 1.841 8.008 5.904 8.811 4.065.809 8.009-1.839 8.812-5.904 1.261-6.383 2.511-12.83 3.715-19.162 1.944-10.207-.739-20.65-7.362-28.654-6.626-8.007-16.389-12.6-26.786-12.6h-11.112l-70.3-120.509c-2.086-3.579-6.679-4.787-10.257-2.699-3.578 2.087-4.786 6.68-2.699 10.258l69.609 119.325c-1.676 1.053-17.326 21.036-23.415 35.413-19.685 41.605-26.161 95.057-26.471 146.812-.131 35.867 2.171 71.635 7.564 109.79l-47.489 28.983c-8.284 5.043-13.43 14.207-13.43 23.916 0 7.492 2.917 14.528 8.2 19.796 5.283 5.297 12.318 8.214 19.811 8.214h270.988c6.617 5.465 15.354 8.472 24.682 8.472.845 0 1.694-.024 2.547-.074 9.422-.551 18.162-4.133 24.61-10.087 6.858-6.332 10.356-14.554 9.849-23.146z"/><path d="m253.128 79.158c.365.053.727.078 1.085.078 3.666 0 6.872-2.69 7.413-6.425 3.368-23.237 20.458-26.319 22.456-26.601 17.294-3.378 35.084 6.282 38.703 25.554 7.441 31.781-25.004 43.299-26.365 43.766-2.323.779-4.119 2.643-4.811 4.993l-81.996 278.508c-2.722 9.249-.687 19.212 5.444 26.649 5.557 6.743 13.915 10.55 22.481 10.55 2.215 0 4.445-.255 6.644-.779l90.116-21.499c4.029-.961 6.516-5.006 5.555-9.035s-5.008-6.517-9.036-5.555l-90.116 21.499c-5.169 1.231-10.69-.62-14.07-4.721-2.961-3.593-3.944-8.405-2.629-12.873l80.974-275.039c4.244-1.896 11.38-5.642 17.981-11.729 9.645-8.896 19.978-24.471 14.433-48.154-8.408-31.186-27.877-37.65-49.955-37.59l-13.777-26.693c-1.9-3.68-6.424-5.123-10.104-3.225-3.681 1.9-5.125 6.424-3.225 10.105l12.055 23.355c-1.963.881-4.087 2.007-6.261 3.466-7.364 4.94-16.698 14.658-19.341 32.896-.595 4.1 2.246 7.905 6.346 8.499z"/><circle cx="183.687" cy="36.361" r="7.5"/><circle cx="199.756" cy="62.141" r="7.5"/></g></g></svg>