<svg id="Capa_1" enable-background="new 0 0 512.002 512.002" height="512" viewBox="0 0 512.002 512.002" width="512" xmlns="http://www.w3.org/2000/svg"><g><g><path d="m457.821 490.87v13.63h-43.98v-26.47l-43.98-134.22-37.25 91.21c-3.38 8.29-3.64 17.53-.72 26l15 43.48h-181.78l15-43.48c2.92-8.47 2.66-17.71-.72-26l-37.25-91.21-43.98 134.22v26.47h-43.98v-13.63c0-7.9.84-15.77 2.51-23.49l27.75-128.5c3.16-14.62 10.33-27.7 20.34-38.03 10.01-10.34 22.86-17.93 37.36-21.55l30.05-6.15 83.81-17.15 36.26 7.42 77.6 15.88c29.01 7.25 51.39 30.35 57.7 59.58l27.75 128.5c1.67 7.72 2.51 15.59 2.51 23.49z" fill="#6cf5c2"/><path d="m292.261 263.42c-4.52 4.34-9.46 8.27-14.78 11.74l-27.62 17.99c-14.31 9.32-32.78 9.32-47.09 0l-27.62-17.99c-1-.65-1.99-1.32-2.96-2.01l83.81-17.15z" fill="#00f2a6"/><g fill="#00f2a6"><path d="m126.393 343.806c-5.893 0-11.119 3.787-12.954 9.387l-40.902 124.833v26.474h25.623v-26.474l43.978-134.22z"/><path d="m369.863 343.806h-16.466c-5.538 0-10.526 3.351-12.619 8.478l-33.788 82.736c-3.387 8.293-3.643 17.534-.722 26.002l14.997 43.478h25.623l-14.997-43.478c-2.921-8.468-2.664-17.709.722-26.002z"/><path d="m455.312 467.38-27.752-128.496c-6.313-29.23-28.685-52.335-57.697-59.586l-113.862-23.298-12.812 2.621 101.051 20.677c29.012 7.251 51.384 30.356 57.697 59.586l27.752 128.495c1.667 7.719 2.508 15.594 2.508 23.492v13.629h25.623v-13.628c0-7.898-.841-15.773-2.508-23.492z"/></g><g><path d="m366.99 126.203v-26.453c0-50.948-41.302-92.25-92.25-92.25h-37.478c-50.948 0-92.25 41.302-92.25 92.25v26.452c-6.383 3.523-10.71 10.315-10.71 18.122v23.809c0 21.997 11.411 42.266 29.634 53.648 7.124 21.893 21.528 40.755 40.904 53.377l27.613 17.989c14.314 9.325 32.783 9.325 47.097 0l27.613-17.989c19.376-12.623 33.781-31.484 40.904-53.377 18.222-11.382 29.634-31.651 29.634-53.648v-23.809c-.001-7.806-4.327-14.598-10.711-18.121z" fill="#6cf5c2"/><path d="m366.99 126.202v-26.452c0-50.948-41.302-92.25-92.25-92.25h-29.684c50.948 0 92.25 41.302 92.25 92.25v18.987c0 4.011 1.512 7.928 4.396 10.715 3.892 3.761 6.314 9.033 6.314 14.873v23.809c0 21.94-11.352 42.162-29.492 53.56-.091.057-.159.144-.193.247-7.141 21.826-21.523 40.627-40.852 53.219l-27.613 17.989c-2.766 1.802-5.69 3.247-8.706 4.352 12.593 4.615 26.843 3.171 38.391-4.352l27.613-17.989c19.376-12.623 33.781-31.484 40.904-53.377 18.222-11.382 29.634-31.651 29.634-53.648v-23.809c-.002-7.808-4.328-14.6-10.712-18.124z" fill="#00f2a6"/><g><path d="m348.016 151.201c-19.607 0-38.271 8.486-51.101 23.314-8.711 10.068-16.291 22.267-16.291 34.238 0 0 23.664 2.652 48.024-8.458 11.856-5.407 19.367-17.35 19.367-30.381v-18.713z" fill="#bbec6c"/><path d="m323.393 155.837v14.077c0 13.03-7.512 24.974-19.367 30.381-8.15 3.717-16.267 7.207-23.401 8.458-.02.44 0-.439 0 0 0 0 23.664 2.652 48.024-8.458 11.856-5.407 19.367-17.35 19.367-30.381v-18.712c-8.52-.001-16.861 1.606-24.623 4.635z" fill="#8de02b"/><path d="m163.986 151.201c19.607 0 38.271 8.486 51.101 23.314 8.711 10.068 16.291 22.267 16.291 34.238 0 0-23.664 2.652-48.024-8.458-11.856-5.407-19.367-17.35-19.367-30.381v-18.713z" fill="#bbec6c"/><path d="m215.087 174.515c-12.829-14.827-31.493-23.314-51.101-23.314v4.635c10.101 3.941 19.223 10.294 26.477 18.678 8.392 9.699 15.712 21.374 16.24 32.919 14.19 2.488 24.675 1.319 24.675 1.319 0-11.97-7.58-24.169-16.291-34.237z" fill="#8de02b"/></g></g></g><g><path d="m287.3 216.534c9.508 0 26.757-1.342 44.461-9.416 14.431-6.582 23.755-21.186 23.755-37.205v-18.712c0-4.143-3.357-7.5-7.5-7.5-21.834 0-42.527 9.442-56.772 25.906-12.023 13.896-18.119 27.066-18.119 39.145 0 3.819 2.869 7.028 6.665 7.453.332.038 3.081.329 7.51.329zm15.287-37.112c9.748-11.267 23.278-18.423 37.929-20.254v10.745c0 10.16-5.88 19.407-14.979 23.557-14.011 6.391-27.936 7.829-36.275 8.023 1.971-6.665 6.481-14.161 13.325-22.071z"/><path d="m156.487 151.201v18.712c0 16.02 9.324 30.623 23.754 37.205 17.706 8.074 34.954 9.416 44.461 9.416 4.426 0 7.177-.291 7.511-.329 3.795-.425 6.665-3.634 6.665-7.453 0-12.078-6.096-25.248-18.119-39.145-14.246-16.464-34.938-25.906-56.772-25.906-4.143 0-7.5 3.358-7.5 7.5zm15 7.967c14.65 1.831 28.18 8.987 37.929 20.254 6.844 7.91 11.354 15.405 13.326 22.07-8.345-.194-22.268-1.634-36.275-8.022-9.1-4.149-14.979-13.396-14.979-23.557v-10.745z"/><path d="m235.94 236.945-1.984 8.786c-.913 4.04 1.623 8.056 5.664 8.968.557.126 1.112.187 1.659.187 3.428 0 6.522-2.365 7.309-5.85l1.984-8.786c.913-4.04-1.623-8.056-5.664-8.968-4.043-.916-8.056 1.622-8.968 5.663z"/><path d="m263.416 249.037c.787 3.483 3.881 5.849 7.309 5.849.547 0 1.104-.061 1.66-.187 4.04-.913 6.575-4.928 5.662-8.969l-1.985-8.786c-.913-4.039-4.922-6.577-8.969-5.662-4.04.913-6.575 4.928-5.662 8.969z"/><path d="m299.146 42.007c-46.125-11.433-84.955-.396-86.584.079-3.973 1.158-6.252 5.313-5.099 9.288s5.312 6.262 9.288 5.115c.362-.105 36.743-10.344 78.788.076.605.15 1.212.223 1.81.223 3.366 0 6.428-2.283 7.273-5.698.996-4.021-1.456-8.087-5.476-9.083z"/><path d="m283.406 86.958c4.014.991 8.087-1.455 9.083-5.477.997-4.021-1.455-8.087-5.476-9.084-33.156-8.215-61.143-.262-62.319.08-3.977 1.159-6.26 5.323-5.101 9.3.955 3.275 3.948 5.402 7.197 5.402.695 0 1.402-.098 2.103-.302.248-.071 25.236-7.177 54.513.081z"/><path d="m271.272 117.349c.606.15 1.213.223 1.811.223 3.366 0 6.428-2.283 7.273-5.697.997-4.021-1.454-8.088-5.475-9.084-20.193-5.005-37.335-.132-38.055.079-3.967 1.156-6.238 5.301-5.095 9.271s5.293 6.268 9.27 5.136c.139-.041 14.152-3.923 30.271.072z"/><path d="m143.814 286.613 49.858-10.202c2.286 1.768 4.644 3.449 7.074 5.033l27.613 17.989c8.396 5.47 18.019 8.204 27.642 8.204s19.246-2.734 27.643-8.204l27.612-17.989c19.942-12.991 35.16-32.378 43.08-54.8 19.105-13.024 30.864-35.19 30.864-58.51v-23.81c0-8.694-4.012-16.813-10.71-22.111v-22.463c0-55.002-44.748-99.75-99.75-99.75h-37.478c-24.996 0-48.908 9.288-67.333 26.152-18.306 16.756-29.662 39.539-31.976 64.151-.388 4.124 2.641 7.781 6.765 8.169 4.119.382 7.781-2.642 8.169-6.765 1.965-20.9 11.614-40.252 27.169-54.49 15.654-14.326 35.97-22.217 57.206-22.217h37.478c46.731 0 84.75 38.019 84.75 84.75v26.452c0 2.731 1.484 5.246 3.875 6.566 4.216 2.327 6.835 6.755 6.835 11.556v23.81c0 19.109-10.004 37.229-26.107 47.287-1.495.934-2.613 2.364-3.158 4.041-6.588 20.249-20.036 37.798-37.866 49.413l-27.612 17.989c-11.819 7.698-27.091 7.7-38.91 0l-27.613-17.989c-17.829-11.614-31.276-29.163-37.866-49.413-.545-1.677-1.664-3.107-3.159-4.041-16.104-10.058-26.107-28.178-26.107-47.287v-23.81c0-4.801 2.619-9.229 6.834-11.556 3.626-2.002 4.943-6.564 2.941-10.191-2.003-3.625-6.565-4.943-10.19-2.941-8.997 4.967-14.585 14.427-14.585 24.688v23.81c0 23.319 11.759 45.485 30.864 58.51 4.887 13.835 12.56 26.507 22.398 37.241l-39.426 8.068c-.038.008-.073.02-.111.029-.069.015-.138.024-.207.041-32.021 8.004-56.241 33.018-63.209 65.28l-27.752 128.494c-1.776 8.226-2.677 16.662-2.677 25.075v13.628c0 4.143 3.358 7.5 7.5 7.5s7.5-3.357 7.5-7.5v-13.628c0-7.351.787-14.723 2.339-21.909l27.752-128.495c5.743-26.586 25.677-47.209 52.041-53.855z"/><path d="m225.953 414.689c-16.083-4.755-21.589-13.495-21.816-13.867l-.536-1.007c-1.945-3.657-6.528-4.981-10.123-2.925-3.688 2.109-4.822 6.895-2.473 10.435 5.323 8.021 13.922 16.857 30.967 21.829.701.204 1.408.302 2.104.302 3.39 0 6.503-2.318 7.311-5.84.892-3.898-1.6-7.794-5.434-8.927z"/><path d="m225.953 377.229c-16.083-4.755-21.589-13.495-21.816-13.867l-2.493-3.514c-2.233-3.147-6.49-4.086-9.839-2.171-3.896 2.228-4.957 7.339-2.312 10.965 6.449 8.84 15.047 17.967 32.479 23.052.701.204 1.408.302 2.104.302 3.39 0 6.503-2.318 7.311-5.84.892-3.898-1.6-7.794-5.434-8.927z"/><path d="m149.085 340.974c-1.999-5.48-11.153-6.95-14.073.497l-43.979 134.22c-.247.754-.373 1.542-.373 2.335v26.474c0 4.143 3.358 7.5 7.5 7.5s7.5-3.357 7.5-7.5v-25.276l37.251-113.69 29.535 72.319c2.697 6.614 2.901 13.974.575 20.722l-15 43.479c-1.351 3.916.728 8.186 4.644 9.536.81.279 1.635.412 2.446.412 3.11 0 6.018-1.95 7.089-5.056l15-43.481c3.512-10.188 3.205-21.295-.867-31.28z"/><path d="m462.643 465.797-27.752-128.495c-6.967-32.262-31.188-57.275-63.209-65.28-.066-.016-.132-.024-.198-.039-.04-.009-.078-.022-.118-.03l-15.723-3.217c-4.055-.829-8.021 1.786-8.851 5.845-.83 4.058 1.786 8.021 5.844 8.851l15.552 3.182c26.365 6.647 46.3 27.269 52.041 53.855l27.752 128.496c1.552 7.182 2.339 14.553 2.339 21.908v13.627c0 4.143 3.357 7.5 7.5 7.5s7.5-3.357 7.5-7.5v-13.628c0-8.418-.901-16.854-2.677-25.075z"/><path d="m376.99 341.471c-1.371-5.581-11.071-7.622-14.072-.497l-37.251 91.215c-4.071 9.98-4.379 21.088-.866 31.278l15 43.479c1.071 3.105 3.979 5.056 7.09 5.056.811 0 1.636-.133 2.446-.412 3.915-1.351 5.994-5.62 4.644-9.536l-14.999-43.478c-2.327-6.75-2.123-14.109.573-20.72l29.536-72.322 37.251 113.69v25.276c0 4.143 3.357 7.5 7.5 7.5s7.5-3.357 7.5-7.5v-26.474c0-.793-.126-1.581-.373-2.335z"/><path d="m307.865 400.821c-.227.372-5.733 9.112-21.815 13.867-3.836 1.134-6.328 5.031-5.434 8.93.808 3.522 3.92 5.837 7.31 5.837.694 0 1.402-.098 2.103-.302 16.241-4.737 24.814-12.982 31.223-20.097 3.242-3.599 2.341-9.267-1.865-11.673-2.883-1.649-6.503-1.231-8.935 1.031z"/><path d="m307.865 363.361c-.227.371-5.733 9.112-21.815 13.867-3.836 1.134-6.328 5.031-5.434 8.93.808 3.522 3.92 5.837 7.31 5.837.694 0 1.402-.098 2.103-.302 17.311-5.049 25.91-14.084 32.051-22.67 2.584-3.613 1.499-8.661-2.357-10.866-3.402-1.946-7.73-.935-9.918 2.318z"/><path d="m256.001 458.634c-4.142 0-7.5 3.357-7.5 7.5v38.366c0 4.143 3.358 7.5 7.5 7.5 4.143 0 7.5-3.357 7.5-7.5v-38.366c0-4.143-3.357-7.5-7.5-7.5z"/></g></g></svg>