<svg id="Capa_1" enable-background="new 0 0 511.991 511.991" height="512" viewBox="0 0 511.991 511.991" width="512" xmlns="http://www.w3.org/2000/svg"><g><g><path d="m287.82 7.5h-63.65c-86.527 0-156.67 70.144-156.67 156.67v89.27l29.65 109.672c11.006 40.71 36.622 75.94 71.957 98.959l46.896 30.551c24.31 15.837 55.676 15.837 79.986 0l46.896-30.551c35.335-23.019 60.951-58.247 71.957-98.957 13.348-49.376 29.65-109.674 29.65-109.674v-89.27c-.001-86.526-70.145-156.67-156.672-156.67z" fill="#6cf5c2"/><path d="m287.82 7.5h-42.274c86.527 0 156.67 70.144 156.67 156.67v89.27s-16.301 60.298-29.65 109.674c-11.006 40.71-36.622 75.937-71.957 98.957l-39.161 24.023c-10.979 7.153-23.399 11.064-35.957 11.755 22.607 10.358 49.247 8.616 70.497-5.227l46.896-30.551c35.335-23.019 60.951-58.247 71.957-98.957 13.348-49.376 29.65-109.674 29.65-109.674v-89.27c0-86.526-70.144-156.67-156.671-156.67z" fill="#00f2a6"/><g><path d="m427.539 204.731c-52.684 0-102.619 22.79-137.001 62.527-15.748 18.201-27.278 36.125-34.542 53.629-7.264-17.504-18.794-35.428-34.542-53.629-34.382-39.737-84.317-62.527-137.001-62.527-19.408 0-35.141 15.733-35.141 35.141v40.436c0 42.014 24.497 80.334 62.411 97.625 42.057 19.181 83.223 22.045 104.019 22.045h80.507.006c20.797 0 61.96-2.866 104.014-22.045 37.913-17.291 62.411-55.611 62.411-97.625v-40.436c0-19.408-15.734-35.141-35.141-35.141z" fill="#6cf5c2"/><g><path d="m462.676 239.87v40.44c0 42.01-24.49 80.33-62.41 97.62-28.593 13.039-56.776 18.544-78.428 20.73-.58.059-.746-.768-.187-.933 8.58-2.529 18.531-5.944 27.615-9.227 9.08-2.8 18.42-6.27 27.8-10.54.04-.02.06-.03.06-.03 37.91-17.29 62.41-55.61 62.41-97.62v-40.44c0-16.97-12.03-31.13-28.03-34.42 5.395-.478 10.842-.729 16.319-.72 19.294.032 34.851 15.846 34.851 35.14z" fill="#00f2a6"/></g><path d="m84.453 239.872c42.37 0 82.703 18.338 110.427 50.38 18.825 21.757 35.204 48.119 35.204 73.986 0 0-51.136 5.731-103.779-18.278-25.619-11.685-41.852-37.494-41.852-65.652z" fill="#0ab69f"/><path d="m194.879 290.252c-27.724-32.041-68.056-50.38-110.427-50.38v.834c36.549 3.912 70.529 21.466 94.824 49.545 18.825 21.757 35.204 48.119 35.204 73.986 0 0-2.407.269-6.709.447 13.737.513 22.312-.447 22.312-.447 0-25.866-16.379-52.229-35.204-73.985z" fill="#04a58a"/><path d="m427.538 239.872c-42.37 0-82.703 18.338-110.427 50.38-18.825 21.757-35.204 48.119-35.204 73.986 0 0 51.136 5.731 103.779-18.278 25.619-11.685 41.852-37.494 41.852-65.652z" fill="#0ab69f"/><path d="m427.538 239.872c-5.239 0-10.446.283-15.602.834v39.601c0 28.158-16.232 53.967-41.852 65.652-31.09 14.18-61.652 17.985-81.468 18.725 15.54.64 55.841.078 97.07-18.725 25.62-11.685 41.852-37.494 41.852-65.652z" fill="#04a58a"/></g><path d="m192.982 335.477c-15.725-1.843-35.343-6-55.059-14.992-15.473-7.057-25.471-22.827-25.471-40.177v-9.088c23.618 5.738 45.085 18.667 61.253 37.354 8.084 9.341 14.562 18.413 19.277 26.903z" fill="#bbec6c"/><path d="m145.706 308.573c6.081 7.028 11.253 13.904 15.45 20.493 11.467 3.34 22.355 5.3 31.826 6.41-4.715-8.489-11.193-17.562-19.276-26.903-16.168-18.687-37.635-31.615-61.253-37.354v9.088c0 .559.011 1.117.032 1.672 12.465 6.706 23.756 15.655 33.221 26.594z" fill="#8de02b"/><path d="m319.008 335.477c4.716-8.489 11.194-17.562 19.277-26.903 16.168-18.687 37.635-31.615 61.253-37.354v9.088c0 17.35-9.998 33.12-25.471 40.177-19.717 8.993-39.334 13.15-55.059 14.992z" fill="#bbec6c"/><path d="m371.02 282.239c-.711 16.581-10.529 31.452-25.425 38.246-7.641 3.485-15.263 6.236-22.653 8.416-1.422 2.226-2.736 4.421-3.934 6.577 15.725-1.842 35.342-5.999 55.06-14.992 15.473-7.057 25.471-22.827 25.471-40.177v-9.088c-9.972 2.421-19.552 6.14-28.519 11.018z" fill="#8de02b"/></g><g><path d="m231.671 37.5c0-4.143-3.357-7.5-7.5-7.5-73.982 0-134.171 60.188-134.171 134.17 0 4.143 3.357 7.5 7.5 7.5s7.5-3.357 7.5-7.5c0-65.711 53.46-119.17 119.171-119.17 4.143 0 7.5-3.357 7.5-7.5z"/><path d="m406.991 164.17c0 4.143 3.357 7.5 7.5 7.5s7.5-3.357 7.5-7.5c0-73.982-60.189-134.17-134.171-134.17-4.143 0-7.5 3.357-7.5 7.5s3.357 7.5 7.5 7.5c65.711 0 119.171 53.459 119.171 119.17z"/><path d="m197.044 371.555c7.202.592 13.533.784 18.717.784 9.22 0 14.801-.607 15.157-.647 3.796-.425 6.665-3.634 6.665-7.453 0-23.95-12.46-50.494-37.032-78.894-29.129-33.665-71.445-52.973-116.099-52.973-4.143 0-7.5 3.357-7.5 7.5v40.436c0 31.217 18.15 59.665 46.239 72.477 11.832 5.396 24.529 9.759 37.738 12.966 4.025.979 8.08-1.493 9.058-5.519s-1.493-8.08-5.519-9.058c-12.288-2.984-24.082-7.034-35.053-12.038-22.759-10.379-37.464-33.471-37.464-58.828v-32.734c37.505 2.018 72.613 19.107 97.255 47.586 19.63 22.687 30.683 43.524 32.941 62.062-5.454.194-13.757.215-23.876-.616-4.113-.341-7.749 2.731-8.089 6.86-.338 4.128 2.735 7.75 6.862 8.089z"/><path d="m192.984 342.977c2.481 0 4.827-1.232 6.229-3.326 1.565-2.338 1.691-5.355.325-7.815-5.01-9.02-11.793-18.497-20.161-28.169-17.132-19.801-39.662-33.541-65.154-39.734-2.237-.545-4.597-.03-6.405 1.392-1.81 1.422-2.865 3.596-2.865 5.896v9.088c0 20.279 11.72 38.729 29.858 47.001 17.431 7.949 36.709 13.204 57.298 15.617.293.033.584.05.875.05zm-51.948-29.317c-12.546-5.722-20.743-18.401-21.072-32.471 18.63 6.268 35.106 17.308 48.07 32.291 3.499 4.044 6.687 8.032 9.547 11.943-12.951-2.647-25.191-6.583-36.545-11.763z"/><path d="m427.536 197.23c-54.866 0-106.868 23.736-142.672 65.122-2.71 3.133-2.367 7.869.765 10.579 3.134 2.711 7.87 2.368 10.579-.765 32.953-38.091 80.82-59.937 131.328-59.937 15.24 0 27.64 12.399 27.64 27.64v40.439c0 34.259-17.926 66.736-46.782 84.759-1.214.846-2.473 1.93-3.159 4.04-11.555 35.503-35.151 66.286-66.442 86.678l-46.9 30.55c-21.804 14.209-49.984 14.209-71.792 0l-46.898-30.549c-31.222-20.347-54.782-51.035-66.364-86.437-.88-1.695-.067-1.729-3.239-4.293-28.855-18.013-46.781-50.486-46.781-84.748v-40.438c0-15.24 12.399-27.64 27.64-27.64 50.508 0 98.375 21.846 131.328 59.937 2.711 3.132 7.447 3.473 10.579.765 3.132-2.71 3.475-7.446.765-10.579-35.804-41.386-87.806-65.122-142.672-65.122-3.248 0-6.408.377-9.45 1.069v-34.13c-.004-82.253 66.913-149.17 149.166-149.17h63.641c82.258 0 149.18 66.917 149.18 149.17v8.635c0 4.143 3.357 7.5 7.5 7.5s7.5-3.357 7.5-7.5v-8.635c0-90.524-73.651-164.17-164.18-164.17h-63.641c-90.523 0-164.17 73.646-164.17 164.17v40.798c-10.988 7.721-18.189 20.482-18.189 34.902v40.439c0 38.469 19.684 74.981 51.534 95.978 12.896 37.676 38.258 70.298 71.663 92.067l46.898 30.55c13.393 8.726 28.736 13.088 44.085 13.087 15.346-.001 30.695-4.363 44.084-13.087l46.9-30.551c33.4-21.765 58.759-54.381 71.657-92.051 31.854-21.006 51.539-57.524 51.539-95.993v-40.439c-.001-23.512-19.129-42.64-42.64-42.64z"/><path d="m388.799 352.784c28.089-12.812 46.239-41.26 46.239-72.477v-40.436c0-4.143-3.357-7.5-7.5-7.5-44.653 0-86.97 19.308-116.099 52.973-24.572 28.399-37.032 54.943-37.032 78.894 0 3.819 2.869 7.028 6.665 7.453.688.077 6.338.675 15.45.675 19.662 0 55.441-2.783 92.277-19.582zm-66.015-57.625c24.642-28.479 59.75-45.568 97.255-47.586v32.734c0 25.357-14.705 48.449-37.464 58.828-38.832 17.711-77.275 18.59-92.73 18.073 2.261-18.535 13.313-39.367 32.939-62.049z"/><path d="m319.006 342.977c.29 0 .582-.017.874-.051 20.587-2.411 39.865-7.666 57.3-15.617 18.139-8.272 29.858-26.722 29.858-47.001v-9.088c0-2.301-1.056-4.475-2.865-5.896-1.809-1.422-4.173-1.936-6.405-1.392-25.492 6.193-48.022 19.934-65.154 39.734-8.367 9.67-15.15 19.147-20.162 28.169-1.366 2.459-1.24 5.478.325 7.815 1.402 2.094 3.748 3.327 6.229 3.327zm24.952-29.497c12.964-14.983 29.44-26.023 48.07-32.291-.329 14.069-8.526 26.749-21.072 32.471-11.356 5.18-23.597 9.117-36.545 11.765 2.86-3.911 6.047-7.901 9.547-11.945z"/><path d="m228.908 421.422c1.169.663 2.439.978 3.694.978 2.611 0 5.149-1.366 6.53-3.8l8.466-14.921c2.044-3.603.78-8.181-2.822-10.225-3.601-2.043-8.181-.781-10.225 2.822l-8.466 14.921c-2.043 3.603-.78 8.181 2.823 10.225z"/><path d="m267.215 393.454c-3.603 2.044-4.866 6.622-2.822 10.225l8.466 14.921c1.381 2.434 3.919 3.8 6.53 3.8 1.254 0 2.525-.314 3.694-.978 3.603-2.044 4.866-6.622 2.822-10.225l-8.466-14.921c-2.043-3.601-6.621-4.866-10.224-2.822z"/><path d="m304.616 84.611c.997-4.021-1.455-8.087-5.476-9.083-46.124-11.431-84.954-.396-86.585.079-3.977 1.159-6.26 5.323-5.101 9.3.955 3.275 3.948 5.402 7.197 5.402.694 0 1.401-.098 2.103-.302.36-.104 36.537-10.39 78.778.079 4.016.998 8.088-1.453 9.084-5.475z"/><path d="m298.549 115.347c.997-4.02-1.455-8.087-5.476-9.083-39.638-9.826-73.05-.33-74.452.079-3.972 1.158-6.25 5.312-5.098 9.286 1.151 3.973 5.31 6.266 9.285 5.117.307-.089 31.095-8.736 66.657.076.605.15 1.212.223 1.81.223 3.367 0 6.429-2.283 7.274-5.698z"/><path d="m292.483 146.081c.997-4.021-1.455-8.087-5.476-9.084-33.155-8.215-61.144-.263-62.319.08-3.977 1.159-6.26 5.323-5.101 9.3.955 3.275 3.948 5.402 7.197 5.402.694 0 1.401-.098 2.103-.302.249-.071 25.238-7.177 54.513.08 4.015.989 8.087-1.454 9.083-5.476z"/><path d="m286.417 176.816c.997-4.021-1.455-8.087-5.476-9.083-26.674-6.612-49.239-.197-50.187.079-3.969 1.157-6.244 5.307-5.097 9.279s5.3 6.262 9.277 5.126c.195-.056 19.798-5.526 42.398.074.605.15 1.212.223 1.81.223 3.367.001 6.429-2.283 7.275-5.698z"/><path d="m274.875 198.469c-20.189-5.004-37.335-.132-38.056.079-3.977 1.159-6.26 5.323-5.101 9.3.955 3.275 3.948 5.402 7.197 5.402.694 0 1.401-.098 2.103-.302.138-.04 13.938-3.961 30.249.079 4.015.998 8.087-1.454 9.083-5.476.998-4.02-1.454-8.086-5.475-9.082z"/></g></g></svg>