<svg id="Capa_1" enable-background="new 0 0 512 512" height="512" viewBox="0 0 512 512" width="512" xmlns="http://www.w3.org/2000/svg"><g><g><path d="m442.541 446.837h-214.587l-32.869 20.651-36.144-20.651h-89.482c-7.452 0-13.494-6.041-13.494-13.494v-33.603c0-7.452 6.041-13.494 13.494-13.494h373.082c7.452 0 13.494 6.041 13.494 13.494v33.603c0 7.453-6.042 13.494-13.494 13.494z" fill="#d88a55"/><path d="m456.03 399.74v33.6c0 7.46-6.04 13.5-13.49 13.5h-36.4c7.45 0 13.49-6.04 13.49-13.5v-33.6c0-7.45-6.04-13.49-13.49-13.49h36.4c7.45 0 13.49 6.04 13.49 13.49z" fill="#c57a44"/><path d="m310.413 7.5h-108.826c-66.678 0-120.731 54.053-120.731 120.731v234.416c0 13.034 10.566 23.6 23.6 23.6h303.089c13.034 0 23.6-10.566 23.6-23.6v-234.416c-.001-66.678-54.054-120.731-120.732-120.731z" fill="#d8ecfe"/><path d="m310.413 7.5h-68.571c66.678 0 120.731 54.053 120.731 120.731v234.416c0 13.034-10.566 23.6-23.6 23.6h68.571c13.034 0 23.6-10.566 23.6-23.6v-234.416c0-66.678-54.053-120.731-120.731-120.731z" fill="#c4e2ff"/><path d="m362.674 446.837h-213.348l-16.246 35.572c-4.721 10.336 2.834 22.091 14.197 22.091h217.446c11.363 0 18.917-11.755 14.197-22.091z" fill="#d88a55"/><path d="m364.72 504.5h-36.4c11.36 0 18.92-11.75 14.2-22.09l-16.25-35.57h36.4l16.25 35.57c4.72 10.34-2.83 22.09-14.2 22.09z" fill="#c57a44"/><g><path d="m230.742 386.247v-162.35l38.29-87.652v-42.535c0-14.274 11.572-25.846 25.846-25.846 14.274 0 25.846 11.572 25.846 25.846v28.923c0 10.102-1.99 20.106-5.856 29.439l-31.477 75.984v158.192h-52.649z" fill="#bbec6c"/><path d="m294.878 67.864c-4.071 0-7.92.944-11.346 2.621 8.586 4.202 14.5 13.022 14.5 23.225v28.923c0 10.102-1.99 20.105-5.856 29.439l-30.237 72.99c-.819 1.976-1.24 4.095-1.24 6.234v154.951h22.692v-158.192l31.477-75.984c3.866-9.333 5.856-19.336 5.856-29.439v-28.922c0-14.275-11.572-25.846-25.846-25.846z" fill="#8de02b"/><path d="m230.742 223.897-51.8-44.777c-2.971-2.568-4.678-6.301-4.678-10.227v-25.166c0-13.125-10.64-23.764-23.764-23.764-13.125 0-23.764 10.64-23.764 23.764v28.362c0 17.502 7.542 34.155 20.696 45.699l83.312 73.117v-67.008z" fill="#bbec6c"/><path d="m178.941 179.121c-2.971-2.568-4.678-6.301-4.678-10.227v-25.166c0-13.125-10.64-23.764-23.764-23.764-4.109 0-7.974 1.043-11.346 2.879 7.398 4.027 12.418 11.87 12.418 20.885v25.166c0 3.927 1.707 7.659 4.678 10.227l48.069 41.551c2.369 2.048 3.731 5.025 3.731 8.157v42.161l22.692 19.916v-67.008z" fill="#8de02b"/><path d="m283.391 290.906 57.515-50.449h29.168c8.39 0 15.192 6.802 15.192 15.192 0 4.486-1.983 8.743-5.416 11.629l-96.458 81.087v-57.459z" fill="#bbec6c"/><path d="m370.074 240.457h-22.692c8.391 0 15.192 6.802 15.192 15.192 0 4.486-1.983 8.743-5.416 11.629l-73.766 62.011v19.076l96.458-81.087c3.434-2.886 5.416-7.143 5.416-11.629 0-8.39-6.802-15.192-15.192-15.192z" fill="#8de02b"/></g></g><g><path d="m442.541 378.747h-8.397c2.855-4.699 4.5-10.211 4.5-16.1v-30.097c0-4.143-3.358-7.5-7.5-7.5s-7.5 3.357-7.5 7.5v30.097c0 8.877-7.222 16.1-16.1 16.1h-116.654v-26.884l93.792-78.847c2.51-2.114 4.571-4.805 5.969-7.796 1.406-3.025 2.119-6.245 2.119-9.57 0-12.512-10.183-22.69-22.7-22.69h-18.596l8.762-25.049c1.368-3.91-.693-8.188-4.604-9.556-3.911-1.37-8.188.693-9.556 4.603l-11.603 33.171-43.584 38.227v-44.804l30.91-74.614c4.26-10.297 6.42-21.167 6.42-32.308v-28.92c0-8.909-3.469-17.284-9.767-23.584-6.298-6.297-14.669-9.766-23.573-9.766-18.389 0-33.35 14.961-33.35 33.35v27.219l-17.453-13.547c-3.272-2.54-7.984-1.945-10.523 1.326-2.54 3.272-1.946 7.983 1.326 10.523l24.943 19.36-31.878 72.974-44.098-38.118c-1.324-1.145-2.083-2.804-2.083-4.554v-25.166c0-17.239-14.025-31.265-31.265-31.265s-31.264 14.025-31.264 31.265v28.362c0 19.657 8.474 38.369 23.249 51.336l80.757 70.875v38.93l-32.269-24.56c-3.297-2.51-8.002-1.872-10.511 1.426-2.508 3.296-1.87 8.001 1.426 10.51l41.354 31.474v26.666h-118.785c-8.877 0-16.1-7.223-16.1-16.1v-234.415c0-62.435 50.796-113.231 113.232-113.231h108.826c62.436 0 113.231 50.796 113.231 113.231v169.167c0 4.143 3.358 7.5 7.5 7.5s7.5-3.357 7.5-7.5v-169.167c.001-70.707-57.524-128.231-128.231-128.231h-108.826c-70.707 0-128.232 57.524-128.232 128.231v234.416c0 5.889 1.646 11.4 4.5 16.1h-8.397c-11.576 0-20.994 9.418-20.994 20.994v33.603c0 11.575 9.418 20.993 20.994 20.993h68.197l-11.398 24.957c-3.282 7.187-2.691 15.445 1.58 22.092s11.539 10.614 19.44 10.614h217.446c7.9 0 15.167-3.968 19.439-10.614s4.862-14.905 1.58-22.093l-11.398-24.956h68.196c11.576 0 20.994-9.418 20.994-20.993v-33.603c.001-11.576-9.417-20.994-20.993-20.994zm-290.164-166.595c-11.53-10.12-18.143-24.722-18.143-40.062v-28.362c0-8.969 7.296-16.265 16.264-16.265s16.265 7.296 16.265 16.265v25.166c0 6.109 2.651 11.905 7.273 15.901l49.204 42.532v47.017zm85.863 78.773c0-.007.001-.013.001-.02v-65.442l37.661-86.211c.29-.76.615-1.624.627-3.002v-42.54c0-10.118 8.232-18.35 18.35-18.35 4.897 0 9.502 1.908 12.966 5.372 3.465 3.466 5.374 8.075 5.374 12.978v28.92c0 9.163-1.777 18.104-5.279 26.57l-31.48 75.989c-.377.91-.571 1.885-.571 2.87v62.851c-.224 5.841 7.548 10.139 12.445 5.639l55.398-48.589h26.336c4.246 0 7.7 3.45 7.7 7.69 0 1.126-.243 2.219-.714 3.233-.476 1.019-1.181 1.938-2.032 2.655l-96.46 81.09c-1.456 1.274-2.691 3.268-2.674 5.741v30.377h-37.65v-87.821zm210.295 142.419c0 3.305-2.689 5.993-5.994 5.993h-230.076c-4.142 0-7.5 3.357-7.5 7.5s3.358 7.5 7.5 7.5h145.389l14.244 31.188c1.168 2.56.967 5.385-.555 7.751-1.521 2.367-4.007 3.725-6.82 3.725h-217.446c-2.813 0-5.299-1.357-6.82-3.725-1.521-2.366-1.723-5.191-.555-7.75l14.244-31.188h23.102c4.142 0 7.5-3.357 7.5-7.5s-3.358-7.5-7.5-7.5h-107.789c-3.305 0-5.994-2.688-5.994-5.993v-33.603c0-3.305 2.689-5.994 5.994-5.994h373.082c3.305 0 5.994 2.689 5.994 5.994z"/><path d="m383.902 409.042h-21.511c-4.142 0-7.5 3.357-7.5 7.5s3.358 7.5 7.5 7.5h21.511c4.142 0 7.5-3.357 7.5-7.5s-3.358-7.5-7.5-7.5z"/><circle cx="182.96" cy="59.839" r="7.5"/><circle cx="380.35" cy="143.549" r="7.5"/><circle cx="131.65" cy="331.5" r="7.5"/><circle cx="347.03" cy="353.26" r="7.5"/></g></g></svg>