<svg id="Capa_1" enable-background="new 0 0 512 512" height="512" viewBox="0 0 512 512" width="512" xmlns="http://www.w3.org/2000/svg"><g><g><path d="m182.347 368.396-38.877-38.841c-5.162-5.157-5.162-13.524 0-18.681l37.647-37.613 57.557 57.504-37.665 37.63c-5.153 5.151-13.506 5.151-18.662.001z" fill="#978ecb"/><path d="m181.118 273.262 40.469 40.433-37.665 37.63c-5.151 5.146-13.493 5.15-18.65.013l17.074 17.058c5.155 5.151 13.508 5.151 18.664 0l37.665-37.63z" fill="#8379c1"/><ellipse cx="325.518" cy="186.499" fill="#978ecb" rx="178.982" ry="178.817"/><path d="m452.077 60.056c-38.687-38.651-90.677-55.897-141.245-51.762 40.794 3.336 80.663 20.581 111.872 51.762 69.897 69.832 69.897 183.053 0 252.885-31.209 31.181-71.078 48.427-111.872 51.762 50.568 4.135 102.559-13.111 141.246-51.762 69.896-69.832 69.896-183.052-.001-252.885z" fill="#8379c1"/><ellipse cx="325.519" cy="186.499" fill="#d8ecfe" rx="149.608" ry="149.47"/><path d="m431.308 80.808c-35.952-35.919-85.798-49.689-132.412-41.333 29.019 5.202 56.786 18.973 79.166 41.333 58.332 58.278 58.332 153.104-.001 211.382-22.38 22.36-50.147 36.13-79.165 41.332 46.614 8.356 96.46-5.414 132.412-41.332 58.331-58.278 58.331-153.105 0-211.382z" fill="#c4e2ff"/><g><path d="m389.498 163.768v-9.021c0-27.005-21.892-48.897-48.897-48.897h-19.865c-27.005 0-48.897 21.892-48.897 48.897v9.021c-7.712 3.3-5.366 15.661-5.677 22.226 0 11.66 6.048 22.403 15.707 28.436 4.77 17.69 21.452 28.91 36.317 37.828 7.587 4.943 17.377 4.943 24.964 0 14.881-8.931 31.535-20.126 36.317-37.828 9.659-6.033 15.707-16.777 15.707-28.436-.313-6.591 2.039-18.905-5.676-22.226z" fill="#6cf5c2"/></g><path d="m389.499 163.768v-9.021c0-27.005-21.892-48.897-48.897-48.897h-19.865c-1.533 0-3.046.08-4.543.218 24.874 2.293 44.354 23.207 44.354 48.679 0 4.297 1.286 8.478 3.603 12.097 3.255 5.084 1.825 13.919 2.074 19.149 0 10.449-4.858 20.162-12.818 26.409-1.871 1.468-3.253 3.471-3.979 5.736-4.661 14.537-11.011 18.125-24.789 26.394-3.94 2.567-8.474 3.789-12.985 3.689 2.189 1.402 4.38 2.744 6.535 4.036 7.587 4.943 17.376 4.943 24.964 0 14.881-8.931 31.535-20.126 36.318-37.828 9.659-6.033 15.707-16.777 15.707-28.436-.317-6.59 2.036-18.904-5.679-22.225z" fill="#00f2a6"/><path d="m180.932 366.981-36.062-36.029-129.896 129.776c-9.965 9.956-9.965 26.107 0 36.062 9.952 9.943 26.077 9.943 36.029 0z" fill="#d88a55"/><path d="m180.928 366.977-129.923 129.814c-9.95 9.94-26.081 9.94-36.031 0-3.09-3.09-5.22-6.77-6.4-10.68 8.69 2.59 18.48.46 25.341-6.39l129.933-129.813z" fill="#c57a44"/></g><g><path d="m385.871 219.146c10.432-7.639 16.804-20.084 16.804-33.151 0-.119-.003-.237-.009-.356-.05-1.05-.007-2.494.038-4.022.184-6.257.471-16.026-5.706-21.806v-5.062c0-31.097-25.3-56.396-56.396-56.396h-19.865c-31.098 0-56.397 25.3-56.397 56.396v5.058c-6.178 5.776-5.891 15.563-5.706 21.832.045 1.522.087 2.961.038 4.003-.006.118-.009.236-.009.354 0 13.066 6.371 25.511 16.802 33.149 6.282 18.663 23.206 30.146 38.753 39.479 5.006 3.227 10.729 4.84 16.452 4.839 5.723 0 11.446-1.612 16.451-4.839 15.542-9.336 32.462-20.818 38.75-39.478zm-46.814 26.828c-5.096 3.318-11.681 3.318-16.776 0-.078-.051-.156-.1-.235-.147-13.819-8.29-28.899-18.388-32.935-33.35-.493-1.829-1.661-3.404-3.269-4.408-7.47-4.665-12.126-13.054-12.18-21.921.063-1.558.016-3.208-.036-4.951-.192-6.576.198-10.119 1.163-10.532 2.76-1.181 4.55-3.894 4.55-6.896v-9.021c0-22.826 18.571-41.396 41.397-41.396h19.865c22.826 0 41.396 18.57 41.396 41.396v9.021c0 2.996 1.783 5.705 4.535 6.89.974.419 1.37 3.957 1.177 10.517-.051 1.75-.1 3.406-.035 4.974-.055 8.867-4.711 17.255-12.18 21.92-1.606 1.003-2.773 2.577-3.268 4.405-4.042 14.963-19.121 25.062-32.937 33.354-.077.045-.155.094-.232.145z"/><path d="m318.651 193.513-19.921-17.653c-3.099-2.747-7.84-2.461-10.587.64-2.747 3.1-2.461 7.84.64 10.587l19.921 17.652c1.427 1.265 3.202 1.887 4.971 1.887 2.072 0 4.134-.854 5.616-2.526 2.747-3.1 2.461-7.84-.64-10.587z"/><path d="m373.194 176.5c-2.747-3.1-7.487-3.387-10.587-.64l-19.921 17.652c-3.101 2.747-3.387 7.487-.64 10.587 1.482 1.673 3.544 2.526 5.616 2.526 1.768 0 3.544-.622 4.971-1.887l19.921-17.652c3.101-2.746 3.387-7.486.64-10.586z"/><path d="m457.378 54.751c-72.707-72.641-191.011-72.641-263.72 0-59.303 57.149-71.652 154.529-29.655 225.009l-25.839 25.812c-3.912 3.913-6.066 9.113-6.066 14.644s2.154 10.731 6.069 14.646l32.153 32.12-124.618 124.502c-7.01 7.004-18.418 7.004-25.428 0-3.401-3.398-5.274-7.917-5.274-12.725s1.873-9.326 5.274-12.725l104.98-104.884c2.931-2.928 2.933-7.676.005-10.606-2.927-2.929-7.676-2.934-10.606-.005l-104.98 104.884c-6.237 6.231-9.673 14.519-9.673 23.336s3.436 17.105 9.673 23.337c6.429 6.423 14.871 9.635 23.315 9.634 8.442-.001 16.889-3.212 23.315-9.634l125.159-125.043c3.081 1.756 6.572 2.708 10.216 2.708 5.529 0 10.726-2.152 14.631-6.058l25.904-25.878c28.757 16.593 61.028 24.902 93.305 24.902 47.753 0 95.506-18.16 131.859-54.48 35.225-35.19 54.623-81.979 54.623-131.748s-19.398-96.558-54.622-131.748zm-261.673 308.343c-1.074 1.075-2.504 1.667-4.026 1.667s-2.952-.592-4.029-1.669l-38.878-38.839c-2.227-2.226-2.227-5.848-.003-8.071l23.49-23.467c6.301 9.035 13.442 17.582 21.4 25.532 8.008 8 16.57 15.117 25.562 21.355zm251.071-55.458c-66.862 66.799-175.654 66.799-242.517 0-68.47-68.413-65.409-177.24 0-242.273 33.432-33.399 77.345-50.1 121.259-50.1 43.913 0 87.827 16.7 121.258 50.1 32.388 32.357 50.224 75.377 50.224 121.136s-17.836 88.779-50.224 121.137z"/><path d="m436.608 75.502c-61.256-61.199-160.924-61.199-222.18 0-29.63 29.603-45.948 69.022-45.948 110.997s16.318 81.394 45.949 110.997c26.223 26.198 61.042 42.31 98.042 45.365.21.018.418.025.626.025 3.861 0 7.143-2.965 7.466-6.883.341-4.128-2.729-7.751-6.857-8.092-33.468-2.764-64.959-17.334-88.675-41.027-26.794-26.77-41.551-62.421-41.551-100.386 0-37.966 14.756-73.616 41.55-100.386 55.41-55.357 145.566-55.357 200.977 0 26.794 26.77 41.55 62.42 41.55 100.386 0 37.965-14.757 73.616-41.551 100.386-21.558 21.538-48.877 35.334-79.005 39.897-4.096.62-6.913 4.442-6.292 8.538.62 4.096 4.441 6.906 8.538 6.292 33.314-5.045 63.522-20.301 87.36-44.116 29.631-29.604 45.949-69.022 45.949-110.997s-16.318-81.394-45.948-110.996z"/><path d="m395.279 244.121c-4.143 0-7.5 3.357-7.5 7.5v6.218h-6.218c-4.143 0-7.5 3.357-7.5 7.5s3.357 7.5 7.5 7.5h6.218v6.218c0 4.143 3.357 7.5 7.5 7.5s7.5-3.357 7.5-7.5v-6.218h6.218c4.143 0 7.5-3.357 7.5-7.5s-3.357-7.5-7.5-7.5h-6.218v-6.218c0-4.142-3.357-7.5-7.5-7.5z"/><circle cx="242.689" cy="255.965" r="7.5"/><circle cx="330.67" cy="68.688" r="7.5"/></g></g></svg>