<svg id="Capa_1" enable-background="new 0 0 512.002 512.002" height="512" viewBox="0 0 512.002 512.002" width="512" xmlns="http://www.w3.org/2000/svg"><g><g><path d="m428.301 504.5h-344.6c6.34-29.36 28.8-52.56 57.94-59.85l22.84-4.67 91.52-18.72 28.52 5.83 85.84 17.56c29.14 7.29 51.6 30.49 57.94 59.85z" fill="#6cf5c2"/><path d="m284.521 427.09c-4.98 5-10.5 9.5-16.5 13.41l-27.73 18.07c-14.38 9.36-32.92 9.36-47.3 0l-27.73-18.07c-.26-.17-.52-.34-.78-.52l91.52-18.72z" fill="#00f2a6"/><path d="m370.358 444.655-114.357-23.4-29.716 6.08 84.641 17.319c29.138 7.283 51.607 30.488 57.947 59.845h59.432c-6.34-29.356-28.809-52.561-57.947-59.844z" fill="#00f2a6"/><g><path d="m367.473 290.893v-26.567c0-51.17-41.481-92.651-92.651-92.651h-37.641c-51.17 0-92.651 41.481-92.651 92.651v26.567c-6.411 3.539-10.757 10.36-10.757 18.201v23.913c0 22.093 11.461 42.45 29.763 53.882 7.155 21.988 21.622 40.932 41.082 53.609l27.733 18.067c14.376 9.366 32.925 9.366 47.302 0l27.733-18.067c19.46-12.678 33.928-31.621 41.082-53.609 18.302-11.431 29.762-31.789 29.762-53.882v-23.913c-.001-7.841-4.346-14.662-10.757-18.201z" fill="#6cf5c2"/><path d="m367.473 290.893v-26.567c0-51.17-41.481-92.651-92.651-92.651h-37.641c-.287 0-.573.008-.86.011 50.773.462 91.791 41.758 91.791 92.64v18.863c0 4.16 1.6 8.191 4.563 11.111 3.823 3.767 6.194 9.002 6.194 14.794v23.913c0 22.093-11.461 42.45-29.762 53.881-7.154 21.989-21.621 40.932-41.082 53.609l-27.733 18.067c-1.289.84-2.621 1.577-3.971 2.266 13.708 6.998 30.243 6.26 43.331-2.266l27.733-18.067c19.46-12.678 33.927-31.621 41.082-53.609 18.302-11.431 29.762-31.789 29.762-53.881v-23.913c0-7.841-4.345-14.662-10.756-18.201z" fill="#00f2a6"/><g fill="#bbec6c"><path d="m348.416 316.001c-19.692 0-38.438 8.523-51.323 23.415-8.749 10.112-16.362 22.364-16.362 34.386 0 0 23.767 2.664 48.233-8.495 11.907-5.431 19.451-17.426 19.451-30.513v-18.793z"/><path d="m163.586 316.001c19.692 0 38.438 8.523 51.323 23.415 8.749 10.112 16.362 22.364 16.362 34.386 0 0-23.767 2.664-48.233-8.495-11.907-5.431-19.451-17.426-19.451-30.513v-18.793z"/></g><g fill="#8de02b"><path d="m348.416 316.001c-8.557 0-16.934 1.614-24.73 4.656v17.138c0 13.087-7.544 25.082-19.451 30.513-5.732 2.614-11.421 4.463-16.779 5.771 8.777-.004 24.978-1.232 41.51-8.771 11.907-5.431 19.451-17.426 19.451-30.513z"/><path d="m214.909 339.416c-12.885-14.892-31.63-23.415-51.323-23.415v4.656c10.145 3.958 19.307 10.339 26.593 18.759 8.428 9.741 15.781 21.467 16.31 33.062 14.252 2.499 24.782 1.325 24.782 1.325 0-12.023-7.613-24.276-16.362-34.387z"/></g></g><path d="m44.476 24.622v79.792c0 9.456 7.666 17.122 17.122 17.122h163.743l25.479 41.667c2.368 3.873 7.993 3.873 10.361 0l25.479-41.667h163.743c9.456 0 17.122-7.666 17.122-17.122v-79.792c0-9.456-7.666-17.122-17.122-17.122h-388.805c-9.457 0-17.122 7.666-17.122 17.122z" fill="#ffe5c2"/><g fill="#fed2a4"><path d="m260.88 127.686-15.889 25.984 5.829 9.533c2.368 3.873 7.993 3.873 10.361 0l25.479-41.667h-14.81c-4.478-.001-8.634 2.329-10.97 6.15z"/><path d="m450.404 7.5h-39.335c9.456 0 17.122 7.666 17.122 17.122v79.792c0 9.456-7.666 17.122-17.122 17.122h39.335c9.456 0 17.122-7.666 17.122-17.122v-79.792c0-9.456-7.665-17.122-17.122-17.122z"/></g></g><g><path d="m287.437 381.585c9.546 0 26.865-1.348 44.64-9.454 14.481-6.605 23.839-21.261 23.839-37.337v-18.793c0-4.143-3.358-7.5-7.5-7.5-21.921 0-42.694 9.479-56.994 26.008-12.07 13.948-18.19 27.169-18.19 39.293 0 3.819 2.87 7.028 6.665 7.453.334.038 3.094.33 7.54.33zm15.328-37.262c9.804-11.332 23.414-18.525 38.151-20.358v10.829c0 10.217-5.913 19.516-15.063 23.688-14.101 6.432-28.116 7.871-36.491 8.062 1.974-6.71 6.511-14.256 13.403-22.221z"/><path d="m156.086 316.001v18.793c0 16.076 9.357 30.731 23.839 37.337 17.777 8.107 35.095 9.454 44.64 9.454 4.444 0 7.206-.292 7.541-.33 3.795-.425 6.665-3.634 6.665-7.453 0-12.124-6.12-25.345-18.19-39.293-14.3-16.528-35.074-26.008-56.995-26.008-4.142 0-7.5 3.357-7.5 7.5zm15 7.964c14.737 1.833 28.347 9.026 38.151 20.358 6.891 7.964 11.428 15.511 13.403 22.221-8.379-.191-22.393-1.631-36.491-8.062-9.151-4.173-15.063-13.472-15.063-23.688z"/><path d="m235.885 402.124-1.994 8.823c-.913 4.041 1.622 8.056 5.663 8.969.557.126 1.112.187 1.66.187 3.427 0 6.521-2.365 7.309-5.849l1.994-8.823c.913-4.041-1.622-8.056-5.663-8.969-4.042-.915-8.057 1.622-8.969 5.662z"/><path d="m263.48 414.254c.787 3.483 3.881 5.849 7.309 5.849.547 0 1.104-.061 1.66-.187 4.041-.913 6.576-4.928 5.663-8.969l-1.994-8.823c-.913-4.04-4.929-6.58-8.968-5.662-4.041.913-6.576 4.928-5.663 8.969z"/><path d="m299.326 206.362c-46.317-11.479-85.307-.397-86.944.08-3.977 1.159-6.26 5.323-5.101 9.3.955 3.275 3.948 5.402 7.197 5.402.695 0 1.402-.098 2.103-.302.362-.105 36.705-10.438 79.138.08 4.017.991 8.088-1.455 9.084-5.477.995-4.019-1.457-8.086-5.477-9.083z"/><path d="m283.532 251.446c.606.149 1.212.222 1.81.222 3.366 0 6.428-2.283 7.274-5.698.997-4.021-1.455-8.087-5.476-9.083-33.294-8.253-61.394-.265-62.573.079-3.971 1.158-6.248 5.31-5.098 9.283 1.15 3.975 5.305 6.263 9.283 5.121.252-.071 25.564-7.167 54.78.076z"/><path d="m271.347 281.97c.606.15 1.213.223 1.81.223 3.366 0 6.428-2.283 7.274-5.698.997-4.021-1.455-8.087-5.476-9.083-20.271-5.023-37.48-.132-38.203.079-3.967 1.156-6.239 5.301-5.096 9.271 1.143 3.971 5.298 6.269 9.27 5.136.14-.041 14.22-3.941 30.421.072z"/><path d="m450.404 0h-388.806c-13.577 0-24.622 11.045-24.622 24.622v79.791c0 13.577 11.045 24.622 24.622 24.622h159.539l21.488 35.14h-5.444c-25.103 0-49.116 9.33-67.617 26.271-18.382 16.832-29.78 39.716-32.095 64.436-.386 4.124 2.644 7.78 6.768 8.167 4.12.372 7.781-2.644 8.167-6.769 1.967-21.007 11.659-40.458 27.29-54.771 15.728-14.401 36.144-22.333 57.487-22.333h37.641c46.953 0 85.151 38.199 85.151 85.151v26.567c0 2.731 1.485 5.247 3.876 6.566 4.244 2.342 6.88 6.8 6.88 11.634v23.913c0 19.204-10.053 37.413-26.235 47.521-1.495.934-2.613 2.364-3.159 4.041-6.62 20.345-20.13 37.976-38.043 49.646l-27.733 18.067c-11.88 7.739-27.234 7.739-39.114 0l-27.733-18.067c-17.913-11.67-31.424-29.301-38.044-49.646-.545-1.677-1.664-3.107-3.159-4.041-16.183-10.107-26.235-28.316-26.235-47.521v-23.913c0-4.834 2.636-9.292 6.88-11.634 3.626-2.001 4.944-6.563 2.942-10.19-2.001-3.627-6.565-4.944-10.19-2.942-9.025 4.98-14.632 14.471-14.632 24.767v23.913c0 23.413 11.809 45.669 30.992 58.744 4.913 13.912 12.631 26.655 22.53 37.443l-39.652 8.114c-.038.008-.074.021-.112.029-.069.015-.137.023-.206.041-32.148 8.036-56.464 33.148-63.459 65.539-.875 4.049 1.699 8.04 5.748 8.914.534.115 1.066.171 1.591.171 3.456 0 6.564-2.403 7.324-5.919 5.769-26.714 25.8-47.435 52.291-54.114l50.089-10.25c2.299 1.778 34.849 23.13 34.849 23.13 8.427 5.489 18.086 8.234 27.745 8.234s19.317-2.745 27.745-8.234c0 0 32.55-21.352 34.849-23.13l50.089 10.25c26.491 6.679 46.522 27.4 52.291 54.114.759 3.516 3.868 5.919 7.324 5.919.524 0 1.057-.056 1.591-.171 4.048-.874 6.622-4.865 5.748-8.914-6.995-32.391-31.312-57.503-63.459-65.539-.069-.017-.138-.025-.206-.041-.038-.008-.073-.021-.111-.029l-39.652-8.114c9.899-10.789 17.617-23.531 22.53-37.443 19.183-13.075 30.992-35.331 30.992-58.744v-23.913c0-8.729-4.03-16.878-10.756-22.191v-22.576c0-55.224-44.928-100.151-100.151-100.151h-5.443l21.488-35.14h99.663c4.142 0 7.5-3.357 7.5-7.5s-3.358-7.5-7.5-7.5h-103.875c-2.612 0-5.036 1.359-6.398 3.587l-24.261 39.676-24.261-39.676c-1.363-2.228-3.787-3.587-6.398-3.587h-163.745c-5.306 0-9.622-4.316-9.622-9.622v-79.793c0-5.306 4.316-9.622 9.622-9.622h388.807c5.306 0 9.622 4.316 9.622 9.622v79.791c0 5.306-4.316 9.622-9.622 9.622h-24.835c-4.142 0-7.5 3.357-7.5 7.5s3.358 7.5 7.5 7.5h24.834c13.577 0 24.622-11.045 24.622-24.622v-79.791c0-13.577-11.045-24.622-24.622-24.622z"/><path d="m123.949 97.087c4.142 0 7.5-3.357 7.5-7.5v-19.382l25.346-25.821c2.901-2.956 2.857-7.704-.099-10.606-2.956-2.901-7.705-2.857-10.606.099l-14.642 14.916v-9.663c0-4.143-3.358-7.5-7.5-7.5s-7.5 3.357-7.5 7.5v9.662l-14.642-14.916c-2.901-2.956-7.65-3-10.606-.099-2.956 2.902-3 7.65-.099 10.606l25.346 25.821v19.382c.002 4.143 3.36 7.501 7.502 7.501z"/><path d="m232.213 97.087c4.142 0 7.5-3.357 7.5-7.5v-25.229c0-4.143-3.358-7.5-7.5-7.5h-19.993v-17.728c0-4.143-3.358-7.5-7.5-7.5s-7.5 3.357-7.5 7.5v17.729h-19.994c-4.142 0-7.5 3.357-7.5 7.5v25.229c0 4.143 3.358 7.5 7.5 7.5s7.5-3.357 7.5-7.5v-17.73h12.494v17.729c0 4.143 3.358 7.5 7.5 7.5s7.5-3.357 7.5-7.5v-17.729h12.494v17.729c-.001 4.142 3.357 7.5 7.499 7.5z"/><path d="m260.021 39.13v50.457c0 4.143 3.358 7.5 7.5 7.5s7.5-3.357 7.5-7.5v-50.457c0-4.143-3.358-7.5-7.5-7.5s-7.5 3.357-7.5 7.5z"/><path d="m304.855 32.447c-4.394-2.416-11.032.841-10.904 6.683v50.457c0 4.143 3.358 7.5 7.5 7.5s7.5-3.357 7.5-7.5v-38.22l27.064 13.786c1.091.556 2.253.819 3.398.819 2.731 0 5.364-1.497 6.689-4.098 1.88-3.691.412-8.207-3.279-10.087z"/><path d="m398.038 46.63h17.509c4.142 0 7.5-3.357 7.5-7.5s-3.358-7.5-7.5-7.5h-17.509c-18.973 0-34.409 15.437-34.409 34.41s15.436 34.409 34.409 34.409h17.509c4.142 0 7.5-3.357 7.5-7.5s-3.358-7.5-7.5-7.5h-17.509c-10.702 0-19.409-8.707-19.409-19.409-.001-10.703 8.706-19.41 19.409-19.41z"/></g></g></svg>