<svg id="Capa_1" enable-background="new 0 0 512.001 512.001" height="512" viewBox="0 0 512.001 512.001" width="512" xmlns="http://www.w3.org/2000/svg"><g><g><path d="m504.5 449.491v29.799c0 6.54-5.302 11.841-11.841 11.841h-473.317c-6.54 0-11.841-5.302-11.841-11.841v-29.799c42.97-52.73 138.07-89.39 248.5-89.39 110.429 0 205.529 36.66 248.499 89.39z" fill="#d8ecfe"/><path d="m256 360.101c-11.863 0-23.547.426-35.01 1.246 95.246 6.758 175.618 40.491 213.126 88.144 6.751 8.577 21.037 27.425 31.768 41.64h26.775c6.54 0 11.841-5.302 11.841-11.841v-29.799c-42.97-52.73-138.07-89.39-248.5-89.39z" fill="#c4e2ff"/><ellipse cx="360.371" cy="424.527" fill="#b5adb6" rx="27.652" ry="17.696"/><path d="m388.02 424.531c0 9.77-12.38 17.69-27.65 17.69-4.06 0-7.91-.56-11.38-1.57 9.59-2.77 16.26-8.95 16.26-16.12 0-7.18-6.67-13.35-16.26-16.13 3.47-1.01 7.32-1.57 11.38-1.57 15.27 0 27.65 7.92 27.65 17.7z" fill="#a79ba7"/><ellipse cx="106.36" cy="459.896" fill="#b5adb6" rx="27.652" ry="17.696"/><path d="m134.01 459.901c0 9.77-12.38 17.69-27.65 17.69-4.06 0-7.92-.56-11.39-1.57 9.59-2.77 16.26-8.95 16.26-16.12 0-7.18-6.67-13.35-16.26-16.13 3.47-1.01 7.33-1.57 11.39-1.57 15.27 0 27.65 7.92 27.65 17.7z" fill="#a79ba7"/><path d="m197.185 410.866h-39.025v-372.143c0-5.718 4.635-10.353 10.353-10.353h18.319c5.718 0 10.353 4.635 10.353 10.353z" fill="#d88a55"/><path d="m186.832 28.37h-18.319c-.481 0-.951.044-1.414.108 5.047.691 8.938 5.008 8.938 10.245v372.144h21.148v-372.144c0-5.718-4.635-10.353-10.353-10.353z" fill="#c57a44"/><path d="m197.185 62.459h229.085c15.089 0 26.015 14.396 21.955 28.929l-18.252 65.338c-1.657 5.931-1.657 12.203 0 18.134l18.252 65.338c4.06 14.533-6.866 28.929-21.955 28.929h-229.085z" fill="#fe7ab6"/><path d="m429.973 174.86c-1.657-5.931-1.657-12.203 0-18.134l18.252-65.338c4.06-14.533-6.866-28.929-21.955-28.929h-39.025c15.089 0 26.015 14.396 21.955 28.929l-18.252 65.338c-1.657 5.931-1.657 12.203 0 18.134l18.252 65.338c4.06 14.533-6.866 28.929-21.955 28.929h39.025c15.089 0 26.015-14.396 21.955-28.929z" fill="#fe5ca7"/><g><path d="m375.013 148.654v-9.021c0-27.005-21.891-48.896-48.896-48.896h-19.865c-27.005 0-48.896 21.891-48.896 48.896v9.021c-7.712 3.3-5.366 15.661-5.677 22.225 0 11.659 6.048 22.403 15.707 28.436 4.77 17.689 21.451 28.909 36.317 37.827 7.587 4.943 17.376 4.943 24.963 0 14.88-8.931 31.534-20.126 36.317-37.827 9.659-6.033 15.707-16.776 15.707-28.436-.314-6.591 2.038-18.905-5.677-22.225z" fill="#6cf5c2"/></g><path d="m375.013 148.654v-9.021c0-27.005-21.891-48.896-48.896-48.896h-19.865c-2.069 0-4.104.143-6.106.393 24.12 3.007 42.79 23.568 42.79 48.503 0 4.297 1.285 8.478 3.603 12.097 3.255 5.084 1.825 13.919 2.074 19.149 0 10.202-4.631 19.702-12.259 25.96-2.355 1.932-3.999 4.598-4.869 7.518-3.948 13.239-7.078 16.046-20.414 24.05-4.766 3.104-10.399 4.256-15.811 3.461 2.818 1.857 5.663 3.605 8.443 5.274 7.587 4.943 17.376 4.943 24.963 0 14.88-8.931 31.534-20.125 36.317-37.827 9.659-6.033 15.707-16.776 15.707-28.436-.314-6.591 2.038-18.905-5.677-22.225z" fill="#00f2a6"/></g><g><path d="m510.315 444.752c-22.271-27.328-57.605-50.418-102.184-66.771-45.261-16.604-97.867-25.38-152.131-25.38-8.052 0-16.176.196-24.145.582-4.137.2-7.329 3.717-7.128 7.854.2 4.137 3.706 7.336 7.854 7.128 7.728-.375 15.607-.564 23.418-.564 104.542 0 199.802 34.003 242.686 86.628 1.483 1.819 3.642 2.762 5.819 2.762 1.665 0 3.342-.552 4.733-1.686 3.212-2.617 3.694-7.342 1.078-10.553z"/><path d="m388.024 417.027c-4.143 0-7.5 3.357-7.5 7.5 0 4.715-8.803 10.195-20.152 10.195s-20.151-5.48-20.151-10.195c0-4.143-3.357-7.5-7.5-7.5s-7.5 3.357-7.5 7.5c0 14.128 15.44 25.195 35.151 25.195 19.712 0 35.152-11.067 35.152-25.195 0-4.143-3.358-7.5-7.5-7.5z"/><path d="m134.012 452.396c-4.142 0-7.5 3.357-7.5 7.5 0 4.715-8.803 10.196-20.152 10.196s-20.152-5.481-20.152-10.196c0-4.143-3.358-7.5-7.5-7.5s-7.5 3.357-7.5 7.5c0 14.129 15.44 25.196 35.152 25.196s35.152-11.067 35.152-25.196c0-4.143-3.358-7.5-7.5-7.5z"/><path d="m306.252 83.237c-31.097 0-56.396 25.3-56.396 56.396v5.056c-6.178 5.777-5.891 15.563-5.707 21.832.045 1.522.087 2.961.038 4.003-.005.119-.008.237-.008.355 0 13.065 6.372 25.51 16.802 33.149 6.281 18.663 23.205 30.145 38.752 39.478 5.005 3.226 10.729 4.839 16.451 4.839 5.724 0 11.446-1.613 16.452-4.84 15.542-9.335 32.462-20.816 38.749-39.476 10.432-7.639 16.804-20.084 16.804-33.15 0-.119-.003-.238-.009-.357-.05-1.051-.008-2.495.037-4.024.184-6.256.47-16.023-5.705-21.803v-5.062c0-31.097-25.299-56.396-56.396-56.396zm61.261 56.396v9.021c0 2.996 1.783 5.705 4.535 6.889.973.419 1.369 3.957 1.177 10.516-.052 1.751-.101 3.409-.035 4.977-.055 8.866-4.711 17.254-12.181 21.919-1.605 1.003-2.772 2.577-3.267 4.405-4.042 14.96-19.12 25.06-32.936 33.352-.079.048-.157.097-.235.146-5.094 3.32-11.68 3.32-16.773 0-.078-.051-.157-.1-.236-.147-13.819-8.289-28.899-18.386-32.934-33.347-.493-1.83-1.661-3.405-3.268-4.409-7.471-4.666-12.128-13.055-12.181-21.921.063-1.558.015-3.209-.036-4.952-.193-6.575.198-10.118 1.163-10.531 2.76-1.181 4.55-3.894 4.55-6.896v-9.021c0-22.826 18.57-41.396 41.396-41.396h19.865c22.826-.001 41.396 18.569 41.396 41.395z"/><path d="m304.168 178.398-19.92-17.652c-3.101-2.747-7.84-2.46-10.588.639-2.747 3.101-2.461 7.841.639 10.588l19.92 17.652c1.428 1.265 3.203 1.887 4.972 1.887 2.072 0 4.134-.854 5.616-2.525 2.747-3.102 2.461-7.842-.639-10.589z"/><path d="m327.563 188.986c1.482 1.672 3.544 2.525 5.616 2.525 1.768 0 3.544-.622 4.972-1.887l19.92-17.652c3.1-2.747 3.386-7.487.639-10.588-2.747-3.098-7.486-3.386-10.588-.639l-19.92 17.652c-3.1 2.748-3.386 7.488-.639 10.589z"/><path d="m222.232 403.367h-17.547v-126.74h221.586c9.558 0 18.354-4.367 24.133-11.98 5.778-7.614 7.617-17.261 5.046-26.466l-18.253-65.337c-1.288-4.613-1.288-9.488 0-14.1l18.253-65.338c2.571-9.205.732-18.852-5.046-26.466-5.778-7.613-14.575-11.98-24.133-11.98h-33.122c-4.143 0-7.5 3.357-7.5 7.5s3.357 7.5 7.5 7.5h33.122c4.825 0 9.267 2.205 12.184 6.049 2.918 3.844 3.847 8.715 2.548 13.362l-18.253 65.338c-2.024 7.251-2.024 14.917 0 22.169l18.253 65.338c1.299 4.647.37 9.519-2.548 13.362-2.917 3.844-7.358 6.049-12.184 6.049h-221.586v-191.668h153.402c4.143 0 7.5-3.357 7.5-7.5s-3.357-7.5-7.5-7.5h-153.402v-16.237c0-9.844-8.009-17.853-17.853-17.853h-18.319c-9.844 0-17.853 8.009-17.853 17.853v325.464c-31.565 7.24-60.248 17.593-85.333 30.812-26.858 14.153-48.27 30.893-63.641 49.754-2.617 3.211-2.135 7.936 1.076 10.552 1.392 1.135 3.068 1.687 4.733 1.687 2.177 0 4.336-.943 5.818-2.762 27.071-33.219 76.804-60.154 137.346-74.625v23.763h-16.648c-4.142 0-7.5 3.357-7.5 7.5s3.358 7.5 7.5 7.5h88.22c4.142 0 7.5-3.357 7.5-7.5s-3.357-7.5-7.499-7.5zm-56.572-333.408h24.024v191.667h-24.024zm2.853-34.089h18.319c1.573 0 2.853 1.279 2.853 2.853v16.237h-24.025v-16.238c0-1.573 1.28-2.852 2.853-2.852zm-2.853 367.497v-126.74h24.024v126.74z"/><path d="m66.126 116.44h5.083v5.083c0 4.143 3.358 7.5 7.5 7.5s7.5-3.357 7.5-7.5v-5.083h5.083c4.142 0 7.5-3.357 7.5-7.5s-3.358-7.5-7.5-7.5h-5.083v-5.082c0-4.143-3.358-7.5-7.5-7.5s-7.5 3.357-7.5 7.5v5.082h-5.083c-4.142 0-7.5 3.357-7.5 7.5s3.358 7.5 7.5 7.5z"/><path d="m451.257 324.787v-5.082c0-4.143-3.357-7.5-7.5-7.5s-7.5 3.357-7.5 7.5v5.082h-5.083c-4.143 0-7.5 3.357-7.5 7.5s3.357 7.5 7.5 7.5h5.083v5.083c0 4.143 3.357 7.5 7.5 7.5s7.5-3.357 7.5-7.5v-5.083h5.082c4.143 0 7.5-3.357 7.5-7.5s-3.357-7.5-7.5-7.5z"/><path d="m22.836 204.705h5.083v5.082c0 4.143 3.358 7.5 7.5 7.5s7.5-3.357 7.5-7.5v-5.082h5.083c4.142 0 7.5-3.357 7.5-7.5s-3.358-7.5-7.5-7.5h-5.083v-5.083c0-4.143-3.358-7.5-7.5-7.5s-7.5 3.357-7.5 7.5v5.083h-5.083c-4.142 0-7.5 3.357-7.5 7.5s3.358 7.5 7.5 7.5z"/><circle cx="249.33" cy="436.509" r="7.5"/><circle cx="287.33" cy="455.22" r="7.5"/><circle cx="456.586" cy="456.59" r="7.5"/></g></g></svg>