<svg id="Capa_1" enable-background="new 0 0 512.004 512.004" height="512" viewBox="0 0 512.004 512.004" width="512" xmlns="http://www.w3.org/2000/svg"><g><g><path d="m396.982 266.023-43.71 28.38-105.17-45.75 36.96-47.38 100.29 3.01-12.15 25.62c-2.55 5.39-1.38 11.82 2.91 15.96z" fill="#6cf5c2"/><path d="m396.982 266.023-43.71 28.38-13.76-5.99 34.48-22.39-20.87-20.16c-4.29-4.14-5.46-10.57-2.91-15.96l11.93-26.32 23.21.7-12.15 25.62c-2.55 5.39-1.38 11.82 2.91 15.96z" fill="#00f2a6"/><path d="m504.502 154.753v102.22l-107.52 9.05-20.87-20.16c-4.29-4.14-5.46-10.57-2.91-15.96l12.15-25.62z" fill="#0ab69f"/><path d="m223.882 209.544-10.94 35.92-22.1 72.55h-.01l-13.48 44.27-25.32-10.23-38.93-15.74-70.15-21.82 40.4-108.69 39.6 14.69c5.86 2.17 12.17 2.81 18.35 1.86l55.04-8.54z" fill="#ffe5c2"/><path d="m223.882 209.544-15.22 49.95-38.26 25.23c-.53 7.04-4.15 14.45-10.52 20.14-11.42 10.2-27.34 11.01-35.56 1.8-8.22-9.2-5.63-24.93 5.78-35.13 6.63-5.93 14.79-8.67 22.07-8.14l44.17-49.58z" fill="#fed2a4"/><path d="m365.802 313.904-19.28 65.02c-4.27 14.39-16.46 25.02-31.3 27.29l-18.84 2.87c-7.39 1.13-14.95.1-21.77-2.98l-92.55-41.7-4.71-2.12 13.49-44.27 22.1-72.55 35.16 3.19 103.73 37.57c11.25 4.07 17.38 16.21 13.97 27.68z" fill="#ffe5c2"/><path d="m351.829 286.22-103.726-37.567-35.16-3.189-.618 2.028 12.792 1.16 103.726 37.567c11.252 4.075 17.38 16.213 13.977 27.686l-19.282 65.015c-4.268 14.39-16.463 25.022-31.301 27.287l-12.205 1.864c5.296 1.492 10.87 1.85 16.353 1.013l18.839-2.877c14.838-2.266 27.033-12.897 31.301-27.287l19.282-65.015c3.402-11.472-2.726-23.61-13.978-27.685z" fill="#fed2a4"/><path d="m240.682 321.904c-5.69 5.08-12.65 7.55-19.02 7.65l-39.6 34.85-4.71-2.12-25.32-10.23c.25-.27.52-.52.8-.77l38-33.27h.01l11.65-10.2c.88-6.23 4.25-12.63 9.84-17.63 10.87-9.71 26.02-10.48 33.85-1.72 7.83 8.759 5.36 23.73-5.5 33.44z" fill="#fed2a4"/><g><path d="m263.71 295.465c-7.827-8.76-22.98-7.99-33.847 1.718-5.598 5.001-8.959 11.399-9.839 17.625l-49.668 43.471c-6.008 5.368-6.526 14.589-1.159 20.597 5.368 6.008 14.589 6.526 20.597 1.159l49.398-43.479c6.365-.105 13.333-2.575 19.013-7.65 10.867-9.709 13.331-24.681 5.505-33.441z" fill="#6cf5c2"/><path d="m258.202 328.904c-5.68 5.08-12.65 7.55-19.01 7.65l-49.4 43.48c-6.01 5.37-15.23 4.85-20.6-1.16-.21-.24-.42-.48-.61-.73-4.7-6-3.99-14.71 1.77-19.86l49.67-43.47c.88-6.23 4.24-12.63 9.84-17.63 8.21-7.34 18.87-9.57 26.97-6.44 2.62 1.01 4.97 2.58 6.88 4.72 7.82 8.759 5.36 23.73-5.51 33.44z" fill="#6cf5c2"/><path d="m258.202 328.904c-5.68 5.08-12.65 7.55-19.01 7.65l-49.4 43.48c-6.01 5.37-15.23 4.85-20.6-1.16-.21-.24-.42-.48-.61-.73.82-1.9 2.04-3.65 3.68-5.11l71.59-63c.97-5.88 4.21-11.87 9.49-16.59 1.12-1 2.29-1.9 3.49-2.7 2.62 1.01 4.97 2.58 6.88 4.72 7.82 8.759 5.36 23.73-5.51 33.44z" fill="#00f2a6"/><path d="m303.794 298.774c-7.614-8.522-22.355-7.773-32.927 1.672-5.277 4.715-8.516 10.705-9.491 16.583l-71.583 63.007c-6.008 5.367-6.527 14.589-1.159 20.597 5.368 6.008 14.589 6.526 20.597 1.159l71.475-62.912c6.006-.264 12.4-2.808 17.733-7.574 10.572-9.445 12.969-24.01 5.355-32.532z" fill="#6cf5c2"/><path d="m320.706 323.03c-7.263-8.129-21.325-7.415-31.409 1.595-4.697 4.197-7.453 9.015-8.59 14.255l-51.938 45.699c-6.008 5.367-6.527 14.589-1.159 20.596 5.367 6.008 14.589 6.527 20.597 1.159l51.574-45.139c5.404-.495 11.053-2.876 15.817-7.132 10.084-9.011 12.371-22.904 5.108-31.033z" fill="#6cf5c2"/><g fill="#00f2a6"><path d="m320.706 323.03c-3.986-4.461-10.021-6.242-16.321-5.467 5.749 8.256 3.162 21.033-6.314 29.499-4.764 4.257-10.413 6.637-15.817 7.132l-51.574 45.139c-1.521 1.359-3.249 2.337-5.067 2.948.541 1.018 1.196 1.995 1.998 2.893 5.367 6.008 14.589 6.527 20.597 1.159l51.574-45.139c5.404-.495 11.053-2.876 15.817-7.132 10.083-9.01 12.37-22.903 5.107-31.032z"/><path d="m303.794 298.774c-4.06-4.544-10.15-6.426-16.55-5.785 6.391 8.637 3.753 22.305-6.333 31.317-5.333 4.765-11.727 7.31-17.733 7.574l-71.475 62.912c-1.521 1.359-3.249 2.337-5.067 2.948.541 1.018 1.195 1.995 1.998 2.893 5.368 6.008 14.589 6.527 20.597 1.159l71.475-62.912c6.006-.264 12.4-2.808 17.733-7.574 10.572-9.445 12.969-24.01 5.355-32.532z"/></g></g><path d="m285.06 201.279h-42.74c-7.517 0-14.676 3.21-19.677 8.822l-47.489 53.293c-7.28-.535-15.431 2.214-22.064 8.14-11.417 10.2-14.006 25.93-5.783 35.134 8.223 9.203 24.144 8.395 35.561-1.805 6.369-5.69 9.987-13.101 10.517-20.14l54.715-36.07z" fill="#6cf5c2"/><path d="m221.977 250.719-47.332 31.204c-2.403 1.584-4.207 3.983-4.868 6.784-1.362 5.773-4.721 11.532-9.895 16.155-2.543 2.272-5.311 4.075-8.166 5.409 8.716 5.112 21.533 3.186 31.152-5.409 6.369-5.69 9.987-13.101 10.517-20.14l54.712-36.068-19.226-.002c-2.451 0-4.848.718-6.894 2.067z" fill="#00f2a6"/><path d="m7.502 146.313v180.041l48.594 15.998c4.731 1.558 9.848-.899 11.592-5.564l51.578-138.005c1.785-4.777-.62-10.1-5.386-11.917z" fill="#d8ecfe"/><path d="m113.88 186.866-106.378-40.553v19.049l73.072 27.856c4.766 1.817 7.171 7.14 5.386 11.917l-49.791 125.022c-.709 1.897-1.981 3.42-3.552 4.465l23.479 7.73c4.731 1.558 9.848-.899 11.592-5.564l51.578-138.005c1.785-4.778-.621-10.101-5.386-11.917z" fill="#c4e2ff"/></g><g><path d="m217.005 122.167h5.083v5.082c0 4.143 3.357 7.5 7.5 7.5s7.5-3.357 7.5-7.5v-5.082h5.082c4.143 0 7.5-3.357 7.5-7.5s-3.357-7.5-7.5-7.5h-5.082v-5.083c0-4.143-3.357-7.5-7.5-7.5s-7.5 3.357-7.5 7.5v5.083h-5.083c-4.143 0-7.5 3.357-7.5 7.5s3.357 7.5 7.5 7.5z"/><path d="m417.875 198.268c.959 0 1.935-.186 2.876-.576l86.63-36.01c3.824-1.59 5.637-5.979 4.047-9.805-1.59-3.824-5.977-5.634-9.805-4.047l-86.63 36.01c-3.824 1.59-5.637 5.979-4.047 9.805 1.2 2.884 3.99 4.623 6.929 4.623z"/><path d="m511.976 256.341c-.348-4.128-3.984-7.193-8.103-6.845l-104.132 8.766-18.422-17.791c-1.979-1.91-2.516-4.864-1.337-7.351l12.148-25.624c2.194-4.227-.902-10.704-6.555-10.71l-143.256-3.008c-8.48 0-16.622 3.194-22.826 8.857l-79.345 12.306c-4.495.842-12.225-.137-17.907-2.702l4.048-10.832c3.218-8.609-1.152-18.277-9.739-21.55l-106.376-40.552c-3.871-1.475-8.205.464-9.68 4.336-1.476 3.871.466 8.204 4.336 9.68l106.379 40.553c.909.347 1.372 1.371 1.031 2.283l-51.578 138.006c-.335.896-1.312 1.366-2.221 1.065l-48.593-15.998c-3.939-1.295-8.175.844-9.47 4.778s.845 8.174 4.778 9.47l48.594 15.998c1.755.577 3.536.853 5.285.853 6.815 0 13.16-4.176 15.678-10.915l2.405-6.435 33.46 10.405 22.682 9.168c.921.372 1.872.549 2.808.549 2.967 0 5.776-1.771 6.956-4.691 1.553-3.84-.302-8.212-4.143-9.764-.689-.252-22.542-9.163-23.552-9.493l-32.951-10.247 34.613-92.614c7.406 2.966 15.831 4.95 25.46 3.473l61.065-9.471-31.696 35.57c-8.396.385-16.865 3.947-23.727 10.078-6.794 6.07-11.291 13.995-12.66 22.315-1.468 8.919.763 17.232 6.281 23.408 5.292 5.923 12.851 8.861 20.887 8.86 8.612 0 17.771-3.377 25.264-10.07 6.518-5.823 10.936-13.437 12.479-21.338l48.739-32.131 100.197 36.29c7.508 2.716 11.607 10.839 9.331 18.496l-19.28 65.019c-3.426 11.549-13.335 20.188-25.239 22.009l-18.844 2.87c-5.976.916-12.047.084-17.554-2.404l-6.619-2.983 31.948-27.958c6.331-1.102 12.49-4.125 17.576-8.668 15.728-12.993 16.728-41.196-4.865-48.457.031-6.586-2.182-12.76-6.347-17.422-9.306-10.417-26.014-11.077-39.204-2.26-9.927-12.601-31.05-12.69-45.317.072-5.953 5.314-10.047 12.076-11.73 19.284l-47.781 41.817c-4.396 3.927-7 9.335-7.332 15.227-.331 5.893 1.648 11.558 5.576 15.954 3.621 4.053 8.501 6.559 13.85 7.193.031 5.385 1.973 10.514 5.592 14.565 7.587 8.446 21.445 10.114 31.145 1.792l3.929-3.459c.929 2.21 2.214 4.315 3.904 6.208 7.164 8.186 21.675 10.316 31.122 1.807l5.524-4.834 12.86 5.795c6.003 2.712 12.458 4.094 18.979 4.094 2.333 0 4.676-.178 7.008-.534l18.844-2.87c17.622-2.695 32.285-15.48 37.356-32.572l19.279-65.014c2.446-8.229 1.191-16.728-2.828-23.664l29.324-19.038 105.644-8.893c3.871-.326 6.806-3.536 6.87-7.337.005-.255-.004-.511-.025-.77zm-337.191 117.535c-1.258-1.407-1.892-3.225-1.785-5.116s.94-3.626 2.291-4.833l49.67-43.47c1.353-1.184 2.235-2.813 2.486-4.594.666-4.706 3.366-9.476 7.411-13.087 7.843-6.584 19.799-8.678 24.552-.457-2.222 3.342-3.883 6.96-4.848 10.716l-20.3 17.868c-.008.007-.017.013-.025.02l-49.442 43.518c-1.412 1.262-3.22 1.899-5.121 1.792-1.89-.107-3.626-.943-4.889-2.357zm29.449 22.323c-2.914 2.602-7.403 2.351-10.007-.563-1.262-1.412-1.897-3.23-1.791-5.12.106-1.891.942-3.626 2.312-4.85l71.584-63.007c1.298-1.143 2.161-2.697 2.444-4.403.738-4.453 3.256-8.792 7.089-12.217 4.18-3.734 9.294-5.68 13.804-5.68 3.413 0 6.481 1.115 8.533 3.412 4.863 5.584 1.964 15.987-4.76 21.941-3.814 3.408-8.577 5.477-13.066 5.674-1.227.077-3.4.486-5.579 2.703zm33.859 6.334c-1.889-.106-3.625-.943-4.886-2.354-2.527-2.83-2.392-7.087.284-9.749l50.331-44.301c7.045-.923 13.92-4.143 19.614-9.23 3.6-3.217 6.514-6.99 8.602-11.072 3.327.825 6.467 7.647 5.219 11.175-.678 4.115-3.103 8.297-6.652 11.47-3.384 3.022-7.469 4.888-11.501 5.254-1.578.144-3.069.782-4.262 1.826l-51.642 45.193c-1.406 1.259-3.207 1.904-5.107 1.788zm12.562-160.931c-1.966-.678-4.499-.668-6.684.788l-54.715 36.07c-1.939 1.278-3.177 3.383-3.351 5.699-.406 5.402-3.335 10.909-8.035 15.109-8.174 7.302-19.609 8.402-24.971 2.401-2.436-2.726-3.383-6.625-2.666-10.978.815-4.952 3.604-9.77 7.854-13.566 4.835-4.32 11.01-6.657 16.517-6.253 2.313.167 4.598-.748 6.149-2.49l47.489-53.293c3.573-4.011 8.704-6.312 14.077-6.312l131.342 2.658-7.234 15.259c-3.938 8.312-2.141 18.185 4.474 24.566l14.088 13.606-25.631 16.64c-1.559-.913-3.217-1.701-4.972-2.336z"/><circle cx="295.002" cy="146.312" r="7.5"/></g></g></svg>