<svg id="Capa_1" enable-background="new 0 0 511.997 511.997" height="512" viewBox="0 0 511.997 511.997" width="512" xmlns="http://www.w3.org/2000/svg"><g><g><path d="m439.095 47.436h-360.802s93.659 137.955 93.659 208.575-93.659 208.575-93.659 208.575h360.803s-93.659-137.955-93.659-208.575 93.658-208.575 93.658-208.575z" fill="#ffe5c2"/><path d="m439.096 47.436h-58.702s-93.659 137.955-93.659 208.575 93.659 208.575 93.659 208.575h58.702s-93.659-137.955-93.659-208.575 93.659-208.575 93.659-208.575z" fill="#fed2a4"/><g><path d="m258.694 67.621c-62.141 0-124.338-7.135-184.865-21.206-10.604-2.465-17.202-13.06-14.736-23.664 2.465-10.603 13.06-17.196 23.664-14.736 57.604 13.393 116.798 20.182 175.938 20.182s118.334-6.79 175.937-20.182c10.606-2.462 21.199 4.133 23.664 14.736 2.465 10.604-4.133 21.199-14.736 23.664-60.528 14.071-122.725 21.206-184.866 21.206z" fill="#978ecb"/></g><g><path d="m443.564 46.419c-60.53 14.07-122.73 21.2-184.87 21.2-8.12 0-16.24-.12-24.35-.36 54.01-1.62 107.9-8.61 160.51-20.84 10.61-2.47 17.2-13.06 14.74-23.67-.76-3.26-2.29-6.15-4.36-8.5 9.84-1.88 19.64-3.96 29.4-6.23 10.6-2.47 21.2 4.13 23.66 14.73 2.47 10.61-4.13 21.2-14.73 23.67z" fill="#8379c1"/></g><g><path d="m258.694 444.376c-62.141 0-124.338 7.135-184.865 21.206-10.604 2.465-17.202 13.06-14.736 23.664 2.465 10.603 13.06 17.196 23.664 14.736 57.604-13.393 116.798-20.182 175.938-20.182s118.334 6.79 175.937 20.182c10.606 2.462 21.199-4.133 23.664-14.736 2.465-10.604-4.133-21.199-14.736-23.664-60.528-14.07-122.725-21.206-184.866-21.206z" fill="#978ecb"/></g><g><path d="m458.294 489.249c-2.46 10.6-13.06 17.2-23.66 14.73-9.76-2.27-19.56-4.35-29.4-6.23 2.07-2.35 3.6-5.24 4.36-8.5 2.46-10.61-4.13-21.2-14.74-23.67-52.61-12.23-106.5-19.22-160.51-20.84 8.11-.24 16.23-.36 24.35-.36 62.14 0 124.34 7.13 184.87 21.2 10.6 2.47 17.2 13.06 14.73 23.67z" fill="#8379c1"/></g></g><g><path d="m445.258 458.278c-.531-.124-1.064-.237-1.596-.359-9.811-14.807-61.116-93.813-81.933-157.054-11.341-33.106-11.492-55.948.004-89.719 20.833-63.282 72.187-142.342 81.948-157.072 14.144-2.227 25.752-17.533 21.919-33.022-3.397-14.61-18.052-23.739-32.667-20.343-57.045 13.263-115.668 19.987-174.239 19.987s-117.193-6.724-174.243-19.987c-14.617-3.395-29.267 5.735-32.664 20.343-3.501 13.733 6.246 30.648 21.919 33.022 9.759 14.726 61.115 93.789 81.949 157.073 11.341 33.1 11.5 55.948.004 89.719-20.816 63.24-72.119 142.243-81.932 157.053-14.15 2.22-25.776 17.53-21.94 33.027 3.396 14.607 18.049 23.733 32.667 20.343 39.573-9.2 80.24-15.3 120.871-18.13 4.132-.287 7.249-3.87 6.961-8.003-.288-4.132-3.878-7.246-8.003-6.96-41.422 2.885-82.881 9.104-123.222 18.482-6.56 1.525-13.14-2.573-14.664-9.129-1.509-7.994 3.934-14.694 13.752-15.7 58.515-13.241 118.554-19.972 178.544-19.972s120.03 6.731 178.544 19.972c6.691.511 16.005 5.951 13.751 15.7-1.524 6.558-8.102 10.645-14.661 9.13-58.155-13.522-117.92-20.379-177.633-20.379-6.263 0-12.627.077-18.916.229-4.141.101-7.417 3.539-7.316 7.68s3.568 7.398 7.68 7.316c6.168-.149 12.41-.226 18.552-.226 58.571 0 117.193 6.725 174.241 19.988 2.062.479 4.125.708 6.157.708 12.369 0 23.591-8.503 26.508-21.052 3.377-13.126-5.499-29.573-20.342-32.665zm-78.289-14.233c-8.489-22.295-15.508-42.348-21.309-60.31 13.139 1.421 26.237 3.164 39.262 5.222 13.335 24.888 29.053 50.576 37.924 64.445-18.508-3.762-37.15-6.875-55.877-9.357zm-68.066-6.163c-1.834-14.762-4.292-35.382-6.705-58.158 12.422.519 24.85 1.33 37.256 2.421 7.275 22.936 14.791 43.984 20.713 59.847-17.041-1.904-34.141-3.271-51.264-4.11zm-131.682 4.11c5.922-15.863 13.438-36.911 20.713-59.847 12.406-1.091 24.833-1.902 37.256-2.421-2.413 22.776-4.871 43.396-6.705 58.158-17.124.839-34.223 2.206-51.264 4.11zm25.484-75.309c6.012-20.054 11.553-40.932 15.496-60.61 7.888-.495 15.781-.874 23.669-1.138-1.312 19.403-3.151 40.028-5.125 59.714-11.348.445-22.701 1.121-34.04 2.034zm183.582 5.796c-11.799-1.701-23.648-3.151-35.525-4.341-7.485-24.57-12.506-44.718-15.865-60.921 8.003.658 15.988 1.433 23.943 2.327 6.375 18.539 15.536 39.549 27.447 62.935zm-54.289-80.546c-2.155-12.629-3.107-21.979-3.501-28.421h19.749c.695 9.04 2.603 19.181 5.717 30.4-7.302-.761-14.628-1.413-21.965-1.979zm-38.387-43.422c.137-8.152.484-17.039.991-26.386 7.274-.231 14.555-.551 21.835-.975-1.546 9.665-2.597 18.875-3.001 27.361zm-15.001 0h-19.831c-.133-8.068-.468-16.835-.957-26.044 3.628.049 7.254.081 10.873.081s7.245-.032 10.873-.081c-.49 9.21-.825 17.977-.958 26.044zm-34.833 0h-19.822c-.388-8.184-1.389-17.313-2.996-27.36 7.277.423 14.556.744 21.827.974.507 9.347.854 18.234.991 26.386zm0 15c-.137 8.158-.482 17.042-.987 26.38-7.277.231-14.56.552-21.839.976 1.546-9.664 2.597-18.872 3.001-27.356zm15.002 0h19.831c.133 8.073.466 16.837.954 26.038-3.626-.049-7.251-.081-10.869-.081s-7.243.032-10.869.081c.486-9.2.82-17.965.953-26.038zm34.832 0h19.824c.405 8.485 1.455 17.693 3.001 27.356-7.279-.424-14.562-.745-21.839-.976-.504-9.338-.85-18.221-.986-26.38zm54.636-15h-19.749c.393-6.442 1.345-15.793 3.501-28.424 7.335-.565 14.661-1.216 21.965-1.975-3.114 11.219-5.022 21.359-5.717 30.399zm10.592-46.028c-7.958.891-15.942 1.665-23.943 2.322 3.358-16.202 8.378-36.349 15.863-60.916 11.878-1.188 23.726-2.635 35.521-4.333-11.908 23.382-21.067 44.389-27.441 62.927zm-39.652 3.462c-7.888.494-15.779.873-23.663 1.136 1.313-19.392 3.152-40.019 5.127-59.713 11.346-.443 22.697-1.117 34.03-2.028-6.012 20.053-11.552 40.929-15.494 60.605zm-16.982-73.65c2.411-22.777 4.867-43.406 6.699-58.179 17.126-.839 34.229-2.206 51.272-4.11-5.925 15.87-13.446 36.928-20.724 59.875-12.401 1.087-24.825 1.896-37.247 2.414zm-15.132.485c-6.131.14-12.259.219-18.379.219s-12.248-.078-18.379-.219c-2.361-22.469-4.781-42.96-6.641-58.05 8.338.254 16.68.391 25.02.391s16.682-.137 25.02-.391c-1.86 15.09-4.28 35.581-6.641 58.05zm-18.379 15.219c5.608 0 11.223-.059 16.84-.175-1.959 19.705-3.774 40.287-5.064 59.638-3.93.058-7.856.087-11.776.087s-7.846-.03-11.776-.087c-1.29-19.351-3.105-39.933-5.064-59.638 5.617.115 11.232.175 16.84.175zm-26.829 59.082c-7.883-.263-15.772-.642-23.659-1.136-3.574-17.819-8.752-38.052-15.52-60.607 11.341.912 22.698 1.587 34.051 2.03 1.975 19.694 3.815 40.321 5.128 59.713zm-55.294-63.198c6.904 22.524 12.279 42.964 16.052 60.932-8.045-.659-16.073-1.436-24.074-2.332-6.374-18.538-15.533-39.545-27.442-62.928 11.776 1.696 23.605 3.141 35.464 4.328zm18.978 76.217c1.809 10.579 2.946 20.087 3.386 28.411h-19.793c-.695-9.04-2.603-19.181-5.717-30.399 7.357.765 14.736 1.42 22.124 1.988zm-16.407 43.411h19.748c-.393 6.442-1.346 15.792-3.501 28.421-7.337.566-14.662 1.218-21.965 1.979 3.114-11.218 5.022-21.359 5.718-30.4zm-10.594 46.033c7.956-.893 15.94-1.669 23.943-2.327-3.358 16.204-8.379 36.352-15.865 60.921-11.877 1.19-23.726 2.64-35.524 4.341 11.911-23.386 21.071-44.396 27.446-62.935zm78.376-4.988c3.928-.058 7.852-.088 11.77-.088s7.842.03 11.77.088c1.288 19.362 3.103 39.941 5.062 59.638-5.615-.116-11.227-.176-16.832-.176s-11.217.06-16.833.176c1.96-19.697 3.774-40.276 5.063-59.638zm38.594.379c7.888.264 15.781.643 23.669 1.138 3.942 19.678 9.484 40.556 15.496 60.61-11.339-.913-22.692-1.589-34.04-2.033-1.974-19.686-3.813-40.311-5.125-59.715zm100.15-183.261c-.255.472-.5.936-.754 1.406-13.021 2.055-26.118 3.794-39.257 5.213 5.804-17.971 12.827-38.034 21.321-60.342 18.73-2.482 37.375-5.596 55.885-9.358-9.104 14.286-23.207 37.205-37.195 63.081zm-317.741-88.003c-1.725-2.77-2.268-6.044-1.529-9.222 1.31-5.631 6.347-9.446 11.899-9.446.911 0 1.837.103 2.762.317 58.158 13.521 117.923 20.377 177.636 20.377s119.478-6.856 177.633-20.377c6.56-1.521 13.139 2.572 14.663 9.129 1.182 5.281-1.708 12.851-9.129 14.66-59.972 13.942-121.598 21.012-183.168 21.012s-123.196-7.07-183.167-21.012c-3.177-.738-5.876-2.67-7.6-5.438zm82.482 34.28c3.552 9.349 8.419 22.504 13.67 37.703 1.073 3.104 3.979 5.053 7.088 5.053.812 0 1.639-.133 2.45-.413 3.915-1.353 5.992-5.623 4.64-9.538-4.048-11.715-7.868-22.223-11.049-30.751 17.045 1.905 34.148 3.272 51.275 4.111 1.832 14.773 4.289 35.403 6.7 58.18-31.031-1.293-62.08-4.38-92.71-9.214-13.342-24.902-29.08-50.622-37.95-64.488 18.511 3.761 37.156 6.875 55.886 9.357zm-18.689 322.397c.253-.467.496-.926.746-1.392 13.026-2.058 26.123-3.801 39.262-5.222-5.802 17.962-12.82 38.015-21.309 60.31-18.727 2.482-37.369 5.595-55.876 9.355 9.106-14.287 23.199-37.192 37.177-63.051zm101.956 46.919c1.861-15.08 4.284-35.562 6.646-58.03 6.129-.141 12.255-.219 18.372-.219s12.243.078 18.372.219c2.362 22.468 4.785 42.95 6.646 58.03-8.338-.254-16.678-.391-25.018-.391-8.34.001-16.68.137-25.018.391z"/><path d="m420.465 253.397c4.142 0 7.5-3.357 7.5-7.5v-5.083h5.083c4.142 0 7.5-3.357 7.5-7.5s-3.358-7.5-7.5-7.5h-5.083v-5.082c0-4.143-3.358-7.5-7.5-7.5s-7.5 3.357-7.5 7.5v5.082h-5.083c-4.142 0-7.5 3.357-7.5 7.5s3.358 7.5 7.5 7.5h5.083v5.083c0 4.143 3.358 7.5 7.5 7.5z"/><path d="m58.239 319.877v5.082c0 4.143 3.358 7.5 7.5 7.5s7.5-3.357 7.5-7.5v-5.082h5.083c4.142 0 7.5-3.357 7.5-7.5s-3.358-7.5-7.5-7.5h-5.083v-5.083c0-4.143-3.358-7.5-7.5-7.5s-7.5 3.357-7.5 7.5v5.083h-5.083c-4.142 0-7.5 3.357-7.5 7.5s3.358 7.5 7.5 7.5z"/><path d="m110.462 222.764c-4.142 0-7.5 3.357-7.5 7.5v5.082h-5.082c-4.142 0-7.5 3.357-7.5 7.5s3.358 7.5 7.5 7.5h5.083v5.083c0 4.143 3.358 7.5 7.5 7.5s7.5-3.357 7.5-7.5v-5.083h5.083c4.142 0 7.5-3.357 7.5-7.5s-3.358-7.5-7.5-7.5h-5.083v-5.082c-.001-4.142-3.359-7.5-7.501-7.5z"/><circle cx="458.814" cy="287.137" r="7.5"/></g></g></svg>