<svg id="Capa_1" enable-background="new 0 0 512.001 512.001" height="512" viewBox="0 0 512.001 512.001" width="512" xmlns="http://www.w3.org/2000/svg"><g><g><path d="m156.766 252.328c-22.025-64.806 3.854-130.396 52.87-174.51 4.208-3.787 10.477 1.39 7.477 6.19-17.384 27.809-26.264 60.821-18.696 91.092 39.903-53.204 109.915-80.062 174.892-67.794 5.584 1.054 5.165 9.219-.498 9.694-34.438 2.888-70.096 16.636-85.605 47.655 67.512-13.502 135.024 31.173 162.428 93.919 2.267 5.191-4.674 9.379-8.296 5.024-21.323-25.637-50.813-45.427-86.234-41.491 48.374 52.772 52.315 127.76 21.175 187.553-2.693 5.17-10.514 2.247-9.118-3.413 7.877-31.935 7.385-67.712-22.503-90.128-8.523 63.923-65.725 113.937-129.051 127.346-5.582 1.182-8.377-6.496-3.313-9.127 29.161-15.154 51.916-41.898 59.244-71.213-60.579 34.616-128.327 15.46-182.455-21.83-4.782-3.294-.848-10.718 4.559-8.602 31.555 12.349 64.292 17.868 94.33-.905-65.863-17.564-98.504-86.807-101.025-151.87-.225-5.806 8.068-7.027 9.629-1.43 3.89 13.942 9.022 27.304 16.924 39.373 20.474 27.797 43.266 34.467 43.266 34.467z" fill="#ffe177"/><g fill="#ffd15b"><path d="m184.032 175.099h14.385c-7.568-30.271 1.312-63.282 18.696-91.092 3.007-4.81-3.274-9.973-7.49-6.178-12.882 11.596-24.163 24.677-33.398 38.836-5.018 15.356-7.15 31.282-5.386 46.771.759 6.667 6.482 11.663 13.193 11.663z"/><path d="m198.417 175.099c1.315-1.544 2.589-3.188 3.83-4.912-1.306 1.612-2.583 3.249-3.83 4.912z"/><path d="m449.634 258.573c-27.401-62.739-94.901-107.411-162.405-93.924 44.349 4.474 93.906 31.087 123.269 71.193 11.594 7.365 21.932 17.045 30.839 27.755 3.623 4.355 10.564.167 8.297-5.024z"/><path d="m347.836 107.305c5.584 1.054 5.165 9.219-.498 9.694-31.195 2.616-63.39 14.143-80.705 39.345-2.266 3.298.165 7.796 4.164 7.682 5.355-.153 10.842.061 16.412.622 15.509-31.01 51.156-44.756 85.588-47.647 5.665-.476 6.098-8.64.511-9.695-11.971-2.26-24.112-3.188-36.205-2.872 3.698 1.224 7.292 2.221 10.733 2.871z"/><path d="m338.828 233.092c26.879 35.237 36.164 78.383 30.24 119.913 4.206 17.007 2.418 35.701-1.908 53.241-1.389 5.633 6.43 8.572 9.111 3.426 31.145-59.788 27.211-134.775-21.152-187.55-3.251-.611-6.565-.997-9.94-1.136-6.414-.263-10.245 7.001-6.351 12.106z"/><path d="m317.728 324.727c-10.93 53.249-55.672 95.691-108.049 113.372-.282 2.977 2.19 6.155 5.927 5.364 63.326-13.409 120.528-63.424 129.051-127.346h-16.467c-5.097 0-9.437 3.617-10.462 8.61z"/></g><ellipse cx="258.48" cy="250.996" fill="#fe7ab6" rx="64.309" ry="41.907"/><path d="m258.48 209.089c-5.883 0-11.576.525-16.99 1.489 27.269 4.857 47.319 21.107 47.319 40.417 0 19.311-20.05 35.561-47.319 40.418 5.414.964 11.106 1.489 16.99 1.489 35.517 0 64.309-18.762 64.309-41.907 0-23.144-28.792-41.906-64.309-41.906z" fill="#fe5ca7"/></g><g><path d="m400.807 36.938h5.838v5.839c0 4.143 3.358 7.5 7.5 7.5s7.5-3.357 7.5-7.5v-5.839h5.839c4.142 0 7.5-3.357 7.5-7.5s-3.358-7.5-7.5-7.5h-5.839v-5.839c0-4.143-3.358-7.5-7.5-7.5s-7.5 3.357-7.5 7.5v5.839h-5.838c-4.142 0-7.5 3.357-7.5 7.5s3.358 7.5 7.5 7.5z"/><path d="m142.244 475.063h-5.838v-5.839c0-4.143-3.358-7.5-7.5-7.5s-7.5 3.357-7.5 7.5v5.839h-5.839c-4.142 0-7.5 3.357-7.5 7.5s3.358 7.5 7.5 7.5h5.839v5.839c0 4.143 3.358 7.5 7.5 7.5s7.5-3.357 7.5-7.5v-5.839h5.838c4.142 0 7.5-3.357 7.5-7.5s-3.358-7.5-7.5-7.5z"/><path d="m435.571 268.392c4.001 4.811 10.773 5.916 16.102 2.631 5.287-3.262 7.32-9.76 4.834-15.452-14.251-32.63-38.818-60.677-69.175-78.975-26.582-16.022-56.132-23.438-84.783-21.526 20.458-23.703 55.279-29.288 70.888-30.598 6.242-.523 11.007-5.451 11.33-11.717.323-6.267-3.912-11.658-10.067-12.82-33.313-6.289-68.219-2.929-100.944 9.72-27.319 10.559-51.382 26.925-70.44 47.79-1.246-22.176 5.675-46.295 20.156-69.462 2.323-3.714 2.469-8.15.691-11.849 15.921-11.307 50.137-32.138 91.31-36.595 4.118-.445 7.095-4.146 6.649-8.263-.446-4.119-4.14-7.103-8.264-6.649-61.5 6.656-107.227 45.865-109.143 47.531-.014.012-.026.026-.039.038-.019.016-.039.03-.057.047-26.035 23.432-45.118 52.04-55.185 82.733-8.971 27.353-10.45 55.74-4.439 83.043-7.704-5.134-16.926-13.069-25.334-24.441-6.569-10.079-11.612-21.878-15.862-37.107-1.724-6.179-7.578-9.941-13.915-8.948-6.292.986-10.68 6.32-10.433 12.684 1.369 35.341 11.254 69.909 27.834 97.337 15.511 25.658 36.395 44.505 61.077 55.31-19.907 6.646-42.841 4.261-71.989-7.146-5.957-2.331-12.454.083-15.456 5.735-3.004 5.657-1.36 12.397 3.909 16.026 29.974 20.65 61.735 34.173 91.851 39.105 28.883 4.731 56.195 1.856 81.438-8.54-9.829 20.219-27.605 38.383-49.282 49.647-5.556 2.887-8.058 9.26-5.947 15.153 1.812 5.062 6.466 8.245 11.624 8.245.872 0 1.759-.091 2.648-.279 26.129-5.532 51.344-17.039 72.917-33.276 3.31-2.49 3.973-7.192 1.482-10.502-2.49-3.31-7.193-3.974-10.502-1.482-15.015 11.301-31.939 20.106-49.69 25.925 23.738-16.819 41.001-40.739 47.446-66.522.729-2.915-.352-5.983-2.747-7.798-2.394-1.813-5.641-2.024-8.25-.533-27.102 15.486-81.947 33.307-156.413-10.015 23.81 6.561 52.924 8.81 80.543-8.45 2.533-1.584 3.885-4.52 3.442-7.474s-2.598-5.364-5.484-6.134c-28.608-7.628-52.737-26.562-69.78-54.756-11.889-19.667-20.048-43.401-23.688-68.429 3.146 7.598 6.697 14.363 10.789 20.612.076.115.154.229.236.339 21.727 29.5 46.169 36.919 47.199 37.221 2.686.788 5.586.011 7.522-2.01s2.585-4.952 1.685-7.602c-9.916-29.177-9.978-60.39-.18-90.264 7.545-23.005 20.661-44.789 38.31-63.803-13.309 27.508-17.18 55.776-10.856 81.07.702 2.807 2.955 4.96 5.792 5.532s5.749-.537 7.484-2.852c34.1-45.468 91.93-71.146 148.482-67.343-34.147 6.947-60.018 24.275-72.401 49.043-1.281 2.562-.991 5.631.748 7.907s4.624 3.361 7.431 2.802c30.014-6.002 62.299.188 90.912 17.435 22.454 13.534 41.442 32.917 54.765 55.635-30.046-28.734-59.553-32.71-80.078-30.427-2.807.312-5.201 2.174-6.193 4.818s-.416 5.622 1.493 7.704c22.034 24.036 35.336 54.048 38.468 86.789 2.353 24.592-1.034 49.467-9.83 72.973 3.526-33.475-6.341-59.782-29.055-76.818-2.13-1.597-4.946-1.945-7.402-.916-2.455 1.031-4.18 3.285-4.532 5.925-3.218 24.134-14.136 47.5-31.574 67.572-2.717 3.127-2.384 7.864.743 10.581 3.128 2.717 7.865 2.384 10.581-.743 16.076-18.505 27.175-39.619 32.546-61.731 14.737 17.04 18.228 41.743 10.359 73.645-1.154 4.68.4 9.32 3.796 12.28-10.457 16.966-34.88 50.526-72.797 67.337-3.787 1.679-5.495 6.109-3.816 9.896 1.241 2.799 3.984 4.462 6.86 4.462 1.016 0 2.048-.208 3.036-.646 56.449-25.027 84.446-81.494 86.042-84.792 16.346-31.448 23.254-66.179 19.975-100.452-2.926-30.59-13.93-59.021-32.041-83.105 28.478 2.717 50.473 21.934 64.638 38.964z"/><path d="m224.941 328.022c10.708 2.776 21.992 4.184 33.54 4.184 16.345 0 31.885-2.763 46.189-8.211 3.871-1.475 5.814-5.808 4.339-9.679-1.474-3.87-5.807-5.815-9.678-4.339-12.593 4.797-26.337 7.229-40.851 7.229-10.278 0-20.296-1.246-29.776-3.703-4.008-1.043-8.103 1.368-9.142 5.378-1.039 4.009 1.369 8.102 5.379 9.141z"/><path d="m239.453 203.314c-31.57 5.862-52.782 25.024-52.782 47.682 0 13.814 7.898 26.57 22.241 35.916 13.35 8.7 30.954 13.491 49.568 13.491s36.218-4.791 49.568-13.491c14.342-9.346 22.241-22.102 22.241-35.916 0-22.661-21.216-41.823-52.792-47.683-4.069-.751-7.986 1.933-8.742 6.006-.756 4.072 1.933 7.986 6.006 8.742 23.863 4.428 40.529 17.971 40.529 32.935 0 18.65-26.015 34.407-56.809 34.407s-56.809-15.757-56.809-34.407c0-14.961 16.663-28.504 40.52-32.934 4.073-.756 6.761-4.671 6.005-8.743-.757-4.073-4.673-6.765-8.744-6.005z"/><path d="m235.789 250.996c0 4.143 3.358 7.5 7.5 7.5h30.383c4.142 0 7.5-3.357 7.5-7.5s-3.358-7.5-7.5-7.5h-30.383c-4.142 0-7.5 3.357-7.5 7.5z"/><path d="m437.344 299.216c-3.686 1.882-5.149 6.398-3.27 10.087.274.539 27.295 54.507 14.246 109.605-.954 4.031 1.54 8.072 5.57 9.026.582.138 1.163.204 1.735.204 3.397 0 6.475-2.324 7.292-5.773 14.349-60.59-14.263-117.498-15.487-119.892-1.886-3.683-6.399-5.141-10.086-3.257z"/><path d="m162.431 408.915c-.586.146-59.234 14.396-110.012-10.659-3.715-1.832-8.211-.307-10.044 3.407s-.308 8.211 3.407 10.044c26.334 12.994 54.008 16.492 76.176 16.492 24.836 0 42.761-4.392 44.138-4.739 4.013-1.013 6.443-5.085 5.434-9.1-1.008-4.015-5.078-6.451-9.099-5.445z"/><path d="m62.127 291.185c1.395 1.146 3.078 1.703 4.752 1.703 2.165 0 4.313-.934 5.796-2.736 2.63-3.196 2.17-7.921-1.023-10.555-.466-.384-46.765-39.103-56.769-94.834-.732-4.077-4.63-6.8-8.707-6.057-4.077.731-6.789 4.63-6.057 8.707 11.001 61.286 59.93 102.066 62.008 103.772z"/><path d="m79.92 140.842c.149 0 .299-.005.449-.014 4.132-.244 7.285-3.793 7.045-7.925-.035-.604-3.107-60.88 30.97-106.101 2.493-3.308 1.832-8.011-1.476-10.503-3.308-2.493-8.01-1.832-10.503 1.476-37.473 49.728-34.125 113.336-33.963 116.02.238 3.981 3.541 7.047 7.478 7.047z"/><path d="m509.376 184.16c-47.323-40.466-111.016-41.044-113.705-41.049-.004 0-.009 0-.014 0-4.136 0-7.492 3.349-7.5 7.486-.007 4.143 3.345 7.506 7.487 7.514.603.001 60.813.534 103.982 37.449 1.414 1.209 3.146 1.8 4.871 1.8 2.116 0 4.22-.891 5.704-2.626 2.692-3.147 2.323-7.882-.825-10.574z"/><circle cx="7.501" cy="150.61" r="7.5"/><circle cx="440.751" cy="462.859" r="7.5"/><circle cx="468.136" cy="76.511" r="7.5"/></g></g></svg>