<svg id="Capa_1" enable-background="new 0 0 512.042 512.042" height="512" viewBox="0 0 512.042 512.042" width="512" xmlns="http://www.w3.org/2000/svg"><g><g><g><path d="m406.693 389.546-72.15-56.32 46.289-31.48z" fill="#b5adb6"/><path d="m378.503 367.54 28.19 22.006-25.861-87.8-18.086 12.3z" fill="#a79ba7"/><circle cx="416.718" cy="404.286" fill="#fe5ca7" r="17.826"/></g><circle cx="274.449" cy="181.624" fill="#8ac9fe" r="173.884"/><path d="m274.449 7.74c-10.155 0-20.103.88-29.781 2.55 81.843 14.127 144.102 85.456 144.102 171.334s-62.26 157.206-144.102 171.333c9.678 1.671 19.626 2.551 29.781 2.551 96.033 0 173.884-77.85 173.884-173.884 0-96.033-77.85-173.884-173.884-173.884z" fill="#60b7ff"/><path d="m156.171 429.979c0 7.701-1.175 15.124-3.34 22.113-9.412 30.247-37.629 52.206-70.979 52.206-21.402 0-40.691-9.041-54.248-23.526-12.443-13.289-20.062-31.144-20.062-50.794 0-3.351.216-6.649.66-9.876 4.825-36.371 35.959-64.433 73.649-64.433 41.052.001 74.32 33.269 74.32 74.31z" fill="#bbec6c"/><path d="m81.851 355.67c-4.356 0-8.619.391-12.77 1.11 34.976 6.044 61.579 36.504 61.579 73.199.278 35.787-26.286 67.125-61.474 73.227 4.117.707 8.345 1.093 12.664 1.093 33.351 0 61.567-21.959 70.979-52.206 2.165-6.99 3.34-14.413 3.34-22.114.002-41.041-33.266-74.309-74.318-74.309z" fill="#8de02b"/><ellipse cx="263.303" cy="64.949" fill="#d8ecfe" rx="30.201" ry="15.799"/><path d="m293.502 64.949c0 8.72-13.52 15.8-30.2 15.8-4.28 0-8.36-.47-12.05-1.31 10.69-2.43 18.16-8.01 18.16-14.49 0-6.49-7.47-12.06-18.16-14.49 3.69-.84 7.77-1.31 12.05-1.31 16.68 0 30.2 7.07 30.2 15.8z" fill="#c4e2ff"/><ellipse cx="375.228" cy="142.861" fill="#d8ecfe" rx="30.201" ry="15.799"/><path d="m380.093 127.268c3.188 9.694 5.544 19.763 6.989 30.126 10.787-2.411 18.347-8.01 18.347-14.534 0-7.858-10.97-14.374-25.336-15.592z" fill="#c4e2ff"/><ellipse cx="218.887" cy="273.302" fill="#d8ecfe" rx="30.201" ry="15.799"/><path d="m249.092 273.299c0 8.73-13.53 15.8-30.21 15.8-4.28 0-8.35-.47-12.04-1.31 10.69-2.43 18.16-8 18.16-14.49 0-6.48-7.47-12.06-18.16-14.49 3.69-.84 7.76-1.31 12.04-1.31 16.68 0 30.21 7.081 30.21 15.8z" fill="#c4e2ff"/><ellipse cx="172.302" cy="154.516" fill="#d8ecfe" rx="30.201" ry="15.799"/><path d="m202.502 154.519c0 8.72-13.52 15.8-30.2 15.8-4.28 0-8.36-.47-12.05-1.31 10.69-2.43 18.16-8.01 18.16-14.49 0-6.49-7.47-12.06-18.16-14.49 3.69-.84 7.77-1.31 12.05-1.31 16.68 0 30.2 7.07 30.2 15.8z" fill="#c4e2ff"/><path d="m156.171 429.979c0 7.701-1.175 15.124-3.34 22.113l-34.169-14.349c-5.906-2.48-9.749-8.261-9.749-14.667v-17.53l-12.394-2.917c-6.755-1.59-11.7-7.376-12.219-14.296l-2.448-32.663c41.051 0 74.319 33.268 74.319 74.309z" fill="#0ab69f"/><path d="m156.171 429.979c0 7.701-1.175 15.124-3.34 22.113l-34.169-14.349c-5.906-2.48-9.749-8.261-9.749-14.667v-17.53l-12.394-2.917c-6.755-1.59-11.7-7.376-12.219-14.296l-2.448-32.663c41.051 0 74.319 33.268 74.319 74.309z" fill="#0ab69f"/><path d="m81.851 355.67.347 4.628c28.299 10.501 48.462 37.733 48.462 69.682.033 4.201-.325 8.336-1.003 12.382l23.173 9.732c2.165-6.99 3.34-14.413 3.34-22.114.001-41.042-33.267-74.31-74.319-74.31z" fill="#04a58a"/><path d="m49.161 438.468v13.144c0 4.2-1.616 8.239-4.514 11.28l-17.043 17.882c-12.443-13.289-20.062-31.144-20.062-50.794 0-3.351.216-6.649.66-9.876l25.91 2.067c8.498.677 15.049 7.772 15.049 16.297z" fill="#0ab69f"/></g><g><path d="m336.97 456.689h-6.252v-6.251c0-4.143-3.357-7.5-7.5-7.5s-7.5 3.357-7.5 7.5v6.251h-6.251c-4.143 0-7.5 3.357-7.5 7.5s3.357 7.5 7.5 7.5h6.251v6.251c0 4.143 3.357 7.5 7.5 7.5s7.5-3.357 7.5-7.5v-6.251h6.252c4.143 0 7.5-3.357 7.5-7.5s-3.358-7.5-7.5-7.5z"/><path d="m16.854 56.649h6.251v6.251c0 4.143 3.357 7.5 7.5 7.5s7.5-3.357 7.5-7.5v-6.251h6.251c4.143 0 7.5-3.357 7.5-7.5s-3.357-7.5-7.5-7.5h-6.251v-6.251c0-4.143-3.357-7.5-7.5-7.5s-7.5 3.357-7.5 7.5v6.251h-6.251c-4.143 0-7.5 3.357-7.5 7.5s3.358 7.5 7.5 7.5z"/><path d="m453.436 152.212c-14.096-86.076-88.984-151.972-178.987-151.972s-164.891 65.896-178.986 151.972c-51.798 9.47-58.606 20.65-58.606 29.417 0 8.762 6.808 19.937 58.606 29.408 14.096 86.076 88.985 151.971 178.986 151.971 24.047 0 47.305-4.771 68.697-13.544l52.413 40.911c-5.448 8.311-5.711 19.438.216 28.154 4.896 7.197 12.869 11.076 20.979 11.076 4.902 0 9.854-1.418 14.205-4.376 11.547-7.854 14.553-23.637 6.7-35.185-5.93-8.718-16.377-12.562-26.11-10.547l-18.003-61.115c23.139-20.114 41.319-46.159 51.978-76.34 1.379-3.906-.669-8.19-4.574-9.57-3.905-1.376-8.19.669-9.57 4.574-23.439 66.37-86.506 110.962-156.932 110.962-80.798 0-148.319-57.896-163.283-134.379 43.351 6.481 102.041 10.16 163.283 10.16 66.263 0 129.552-4.304 173.643-11.808 56.682-9.665 63.95-21.298 63.95-30.353.001-8.765-6.807-19.946-58.605-29.416zm-36.74 241.745c.648 0 1.302.062 1.953.186 2.71.516 5.056 2.056 6.606 4.337 1.552 2.28 2.121 5.028 1.605 7.738s-2.056 5.056-4.337 6.606c-2.28 1.553-5.026 2.123-7.738 1.605-2.71-.516-5.056-2.056-6.606-4.337-1.552-2.28-2.121-5.028-1.605-7.738.515-2.705 2.05-5.045 4.324-6.596.004-.003.008-.004.012-.007.005-.003.008-.007.013-.01 1.73-1.174 3.727-1.784 5.773-1.784zm-23.797-24.688-34.481-26.915c7.819-4.089 15.322-8.743 22.456-13.909zm-340.549-187.64c2.087-1.983 10.52-7.786 41.236-13.794-.344 4.552-.521 9.15-.521 13.789s.177 9.238.521 13.791c-30.718-6.007-39.15-11.806-41.236-13.786zm56.531 16.473c-.535-5.422-.815-10.917-.815-16.478 0-91.744 74.64-166.384 166.384-166.384s166.384 74.64 166.384 166.384c0 5.496-.275 11.017-.811 16.477-42.985 6.806-102.857 10.688-165.573 10.688s-122.586-3.882-165.569-10.687zm346.412-2.683c.345-4.588.54-9.199.54-13.795 0-4.639-.177-9.237-.521-13.789 30.717 6.008 39.15 11.811 41.236 13.794-2.086 1.981-10.521 7.781-41.255 13.79z"/><path d="m263.303 41.649c-21.493 0-37.701 10.017-37.701 23.299 0 13.283 16.208 23.3 37.701 23.3 21.494 0 37.702-10.017 37.702-23.3 0-13.282-16.208-23.299-37.702-23.299zm0 31.599c-14.125 0-22.701-5.765-22.701-8.3s8.576-8.299 22.701-8.299 22.702 5.764 22.702 8.299-8.577 8.3-22.702 8.3z"/><path d="m375.228 119.561c-21.493 0-37.701 10.017-37.701 23.299 0 13.283 16.208 23.3 37.701 23.3s37.701-10.017 37.701-23.3c0-13.282-16.208-23.299-37.701-23.299zm0 31.599c-14.125 0-22.701-5.765-22.701-8.3s8.576-8.299 22.701-8.299 22.701 5.764 22.701 8.299-8.576 8.3-22.701 8.3z"/><path d="m181.186 273.303c0 13.282 16.208 23.299 37.701 23.299 21.494 0 37.702-10.017 37.702-23.299s-16.208-23.299-37.702-23.299c-21.493 0-37.701 10.016-37.701 23.299zm60.403 0c0 2.535-8.577 8.299-22.702 8.299s-22.701-5.764-22.701-8.299 8.576-8.299 22.701-8.299 22.702 5.764 22.702 8.299z"/><path d="m172.303 131.218c-21.494 0-37.702 10.017-37.702 23.299s16.208 23.299 37.702 23.299c21.493 0 37.701-10.017 37.701-23.299s-16.208-23.299-37.701-23.299zm0 31.597c-14.125 0-22.702-5.764-22.702-8.299s8.577-8.299 22.702-8.299 22.701 5.764 22.701 8.299-8.576 8.299-22.701 8.299z"/><path d="m293.505 162.815c-3.678 0-6.737 2.647-7.377 6.14-1.008.663-3.676 1.76-7.724 1.76-4.049 0-6.717-1.097-7.725-1.76-.64-3.493-3.699-6.14-7.377-6.14-4.143 0-7.5 3.357-7.5 7.5 0 8.923 9.505 15.399 22.602 15.399 13.096 0 22.601-6.477 22.601-15.399 0-4.142-3.358-7.5-7.5-7.5z"/><path d="m359.794 261.397c-1.008.663-3.676 1.76-7.724 1.76s-6.716-1.097-7.724-1.76c-.641-3.492-3.699-6.14-7.377-6.14-4.143 0-7.5 3.357-7.5 7.5 0 8.923 9.505 15.399 22.601 15.399s22.601-6.477 22.601-15.399c0-4.143-3.357-7.5-7.5-7.5-3.678.001-6.736 2.648-7.377 6.14z"/><path d="m81.852 348.17c-40.861 0-75.72 30.5-81.08 70.912-6.977 50.848 34.436 93.131 81.08 92.717 22.062 0 42.746-8.647 58.243-24.349 2.91-2.948 2.879-7.697-.069-10.606s-7.697-2.878-10.606.069c-12.656 12.823-29.55 19.886-47.567 19.886-16.305 0-31.57-5.723-43.679-16.244l11.904-12.489c4.246-4.457 6.585-10.3 6.585-16.454v-13.144c0-12.348-9.643-22.791-21.953-23.774l-17.541-1.4c6.907-26.848 30.069-46.856 57.753-49.75l1.9 25.35c.767 10.231 7.992 18.686 17.979 21.036l6.613 1.557v11.59c0 9.451 5.631 17.922 14.345 21.582l34.132 14.334c2.924 1.342 8.705.333 10.106-4.681 2.439-7.874 3.676-16.061 3.676-24.332-.002-45.111-36.706-81.81-81.821-81.81zm-40.191 90.298v13.144c0 2.283-.868 4.452-2.443 6.105l-11.227 11.78c-7.972-11.05-13.434-25.103-12.919-41.322l18.443 1.472c4.568.364 8.146 4.239 8.146 8.821zm106.949-5.716c-.121 1.273-.016 3.263-.987 9.019l-26.057-10.943c-3.131-1.314-5.153-4.357-5.153-7.752v-17.529c0-3.48-2.394-6.503-5.781-7.301l-12.396-2.918c-3.587-.844-6.183-3.881-6.457-7.556l-1.806-24.091c32.657 3.498 60.935 34.482 58.637 69.071z"/><circle cx="31.481" cy="294.459" r="7.5"/><circle cx="473.912" cy="62.899" r="7.5"/></g></g></svg>