<svg id="Capa_1" enable-background="new 0 0 512.032 512.032" height="512" viewBox="0 0 512.032 512.032" width="512" xmlns="http://www.w3.org/2000/svg"><g><g><g><path d="m303.107 356.199h-87.693l-21.899-257.745c-.774-9.111 2.045-18.164 7.854-25.225l45.588-55.41c6.373-7.746 18.232-7.746 24.605 0l45.588 55.41c5.809 7.061 8.628 16.114 7.854 25.225z" fill="#bbec6c"/></g><path d="m317.151 73.229-45.588-55.41c-6.373-7.746-18.232-7.746-24.605 0l-8.275 10.058c5.282-.765 10.879 1.096 14.603 5.623l33.285 39.729c5.81 7.061 8.628 16.114 7.854 25.225l-21.898 257.745h30.58l21.898-257.745c.774-9.111-2.045-18.164-7.854-25.225z" fill="#8de02b"/><g><path d="m406.678 426.021-67.734-26.515 61.017-205.701c2.157-7.271 7.071-13.411 13.693-17.109l51.966-29.015c7.264-4.056 16.425-.47 19.005 7.44l18.458 56.583c2.352 7.21 1.792 15.055-1.561 21.858z" fill="#bbec6c"/></g><path d="m503.083 211.705-18.458-56.583c-2.58-7.91-11.74-11.496-19.005-7.44l-18.039 10.072c4.58.831 8.644 4.045 10.228 8.899l14.695 45.051c2.352 7.21 1.792 15.055-1.561 21.858l-89.9 182.424 25.635 10.035 94.845-192.459c3.353-6.803 3.913-14.647 1.56-21.857z" fill="#8de02b"/><path d="m89.406 412.115-19.24 27.18-27.85-10.12-18.33-6.66c-5.95-2.17-10.06-7.64-10.47-13.96l-2.14-32.59c-.36-5.52 5.67-9.12 10.36-6.19l46.43 29.05z" fill="#bbec6c"/><g><path d="m105.355 452.553 67.734-26.515-61.017-205.701c-2.157-7.271-7.071-13.411-13.693-17.109l-51.966-29.015c-7.264-4.056-16.425-.47-19.005 7.44l-18.459 56.583c-2.352 7.21-1.792 15.055 1.561 21.858z" fill="#bbec6c"/></g><path d="m112.071 220.337c-2.157-7.271-7.071-13.411-13.693-17.109l-51.966-29.015c-7.01-3.914-15.767-.699-18.692 6.638l40.078 22.377c6.622 3.697 11.536 9.837 13.693 17.109l61.017 205.701-42.099 16.48 4.945 10.035 67.734-26.515z" fill="#8de02b"/><path d="m78.628 417.03-20.644 54.311c-5.264 13.848 4.965 28.679 19.78 28.679h385.243c14.422 0 24.619-14.111 20.091-27.804l-24.556-74.26c-3.96-11.975-15.152-20.062-27.765-20.062h-83.569l-78.58-41.482c-10.392-5.486-23.058-4.218-32.157 3.218l-71.638 58.547h-58.868c-12.144.001-23.023 7.504-27.337 18.853z" fill="#d88a55"/><path d="m89.406 412.115-19.24 27.18-27.85-10.12 4.61-12.14c3.57-9.41 11.66-16.17 21.24-18.21z" fill="#8de02b"/><g fill="#c57a44"><path d="m334.724 388.216 12.483-10.321-78.58-41.482c-9.194-4.853-20.163-4.411-28.872.902z"/><path d="m483.097 472.217-24.556-74.26c-3.96-11.975-15.152-20.062-27.764-20.062h-37.58c12.613 0 23.805 8.087 27.764 20.062l24.556 74.26c4.528 13.693-5.669 27.804-20.091 27.804h37.58c14.422 0 24.619-14.111 20.091-27.804z"/></g><path d="m372.811 500.021 5.255-43.763c.775-6.451 5.16-11.895 11.297-14.027l27.59-9.583c5.577-1.937 11.112 3.005 9.817 8.765l-13.179 58.608z" fill="#bbec6c"/><path d="m416.953 432.648-19.513 6.778c4.155.542 7.398 4.566 6.375 9.116l-12.178 51.48h21.955l13.179-58.608c1.294-5.761-4.241-10.703-9.818-8.766z" fill="#8de02b"/></g><g><path d="m510.217 209.379-18.46-56.582c-1.927-5.898-6.343-10.582-12.119-12.854-.009-.003-.017-.008-.026-.012-.011-.004-.023-.007-.034-.011-5.781-2.254-12.201-1.811-17.617 1.216l-51.963 29.012c-7.597 4.075-14.7 12.68-17.263 21.667l-51.715 174.332-29.889-15.779 21.349-251.282c.939-11.119-2.449-21.995-9.542-30.626l-45.584-55.415c-4.422-5.365-10.931-8.462-17.883-8.524-.072-.002-.142-.011-.214-.011s-.141.009-.213.011c-6.961.062-13.469 3.161-17.879 8.528l-45.594 55.414c-7.075 8.612-10.458 19.452-9.533 30.531.005.063.008.126.014.189l21.609 254.305-38.849 31.75-49.513-166.896c-.031-.115-.069-.228-.107-.342-2.749-9.103-8.832-16.67-17.158-21.325l-51.959-29.009c-5.431-3.032-11.864-3.472-17.653-1.206-5.79 2.267-10.217 6.956-12.145 12.867l-18.462 56.583c-2.966 9.099-2.28 18.833 1.927 27.421.002.003.003.007.005.01.011.023.021.046.032.069l61.475 124.749-39.544-24.745c-4.567-2.856-10.277-2.912-14.897-.149-4.619 2.761-7.271 7.814-6.92 13.191l2.14 32.584c.603 9.277 6.641 17.332 15.393 20.523l39.025 14.18-9.477 24.933c-3.348 8.809-2.152 18.698 3.197 26.455 5.351 7.758 14.17 12.389 23.594 12.389h168.111c4.143 0 7.5-3.357 7.5-7.5s-3.357-7.5-7.5-7.5h-168.113c-4.559 0-8.657-2.152-11.246-5.905-2.588-3.752-3.144-8.348-1.523-12.608 0 0 20.53-54.012 20.645-54.312 3.188-8.385 11.354-14.018 20.324-14.018h55.651l26.342 27.697c1.475 1.55 3.453 2.331 5.436 2.331 1.856 0 3.717-.686 5.168-2.065 3.001-2.854 3.12-7.602.266-10.604l-22.986-24.169 65.377-53.431c6.78-5.541 16.165-6.48 23.91-2.393l68.637 36.234-37.046 30.632c-5.943 4.914-9.929 11.808-11.22 19.409l-11.808 69.444c-.66 4.135 2.363 8.82 7.424 8.757h181.893c9.311 0 17.777-4.328 23.23-11.875 5.453-7.546 6.903-16.944 3.98-25.783l-24.556-74.26c-3.806-11.508-12.876-20.127-24.017-23.567l66.611-135.16c4.238-8.609 4.934-18.374 1.962-27.495zm-14.261 4.651c1.25 3.835 1.379 7.861.457 11.698l-41.32-2.587 23.909-61.077zm-98.508 156.365 51.902-132.584 40.474 2.534-64.092 130.05zm-42.043 0 48.55-163.661 31.427 25.606-54.043 138.054h-25.934zm61.907-187.152 47.718-26.642-23.906 61.069-32.089-26.146c1.923-3.441 4.752-6.31 8.277-8.281zm-105.96-105.256c3.556 4.327 5.667 9.527 6.161 14.994l-50.757 16.292v-85.499zm-59.595-54.202v85.486l-50.753-16.291c.489-5.464 2.599-10.663 6.154-14.989zm-123.51 366.893-51.598-131.804 31.43-25.609 46.7 157.414h-26.532zm-33.529-180.906c3.527 1.972 6.356 4.84 8.281 8.284l-32.092 26.149-23.909-61.075zm-78.642 30.789 16.953-51.962 23.908 61.073-41.318 2.587c-.923-3.836-.793-7.861.457-11.698zm10.479 174.908c-3.157-1.151-5.338-4.057-5.555-7.405l-2.048-31.184 54.257 33.951c-.918 1.339-6.674 17.018-7.43 18.89zm59.568-18.895-63.913-129.698 40.471-2.534 49.457 126.336h-6.174c-7.171 0-14.025 2.151-19.841 5.896zm180.634-69.095v-38.593c0-4.143-3.357-7.5-7.5-7.5s-7.5 3.357-7.5 7.5v36.786c-10.206.033-22.159 9.293-30.02 16.312l-19.794-232.949 49.814 15.99v128.655c0 4.143 3.357 7.5 7.5 7.5s7.5-3.357 7.5-7.5v-128.653l49.825-15.992-19.859 233.729-24.595-12.983c-1.746-.923-3.544-1.682-5.371-2.302zm114.508 165.042 4.247-35.368c.431-3.578 2.908-6.654 6.312-7.837l27.628-9.549-11.862 52.754zm70.155-92.209 24.556 74.26c1.394 4.214.702 8.692-1.896 12.289-2.599 3.598-6.635 5.66-11.072 5.66h-40.041l11.122-49.463c1.196-5.319-.588-10.879-4.655-14.51-4.065-3.63-9.789-4.773-14.939-2.985l-27.59 9.583c-8.782 3.051-15.174 10.986-16.283 20.218l-4.462 37.157h-76.193l10.319-60.688c.69-4.059 2.817-7.739 5.991-10.363l43.631-36.075h80.449c8.736-.328 18.14 5.974 21.063 14.917z"/><path d="m73.517 127.056h6.251v6.252c0 4.143 3.357 7.5 7.5 7.5s7.5-3.357 7.5-7.5v-6.252h6.252c4.143 0 7.5-3.357 7.5-7.5s-3.357-7.5-7.5-7.5h-6.252v-6.251c0-4.143-3.357-7.5-7.5-7.5s-7.5 3.357-7.5 7.5v6.251h-6.251c-4.143 0-7.5 3.357-7.5 7.5s3.358 7.5 7.5 7.5z"/><path d="m399.886 88.243h6.251v6.251c0 4.143 3.357 7.5 7.5 7.5s7.5-3.357 7.5-7.5v-6.251h6.251c4.143 0 7.5-3.357 7.5-7.5s-3.357-7.5-7.5-7.5h-6.251v-6.252c0-4.143-3.357-7.5-7.5-7.5s-7.5 3.357-7.5 7.5v6.252h-6.251c-4.143 0-7.5 3.357-7.5 7.5s3.358 7.5 7.5 7.5z"/><circle cx="127.776" cy="62.895" r="7.5"/></g></g></svg>