<svg id="Capa_1" enable-background="new 0 0 512.001 512.001" height="512" viewBox="0 0 512.001 512.001" width="512" xmlns="http://www.w3.org/2000/svg"><g><g><path d="m374.556 335.782-130.336-7.5-106.775 7.5v168.718h237.111z" fill="#d8ecfe"/><path d="m346.334 335.782h28.222v168.718h-28.222z" fill="#c4e2ff"/><path d="m137.44 335.78v168.72h-81.3l3.84-29.47 4.17-32.03 4.17-32.02 2.43-18.66c.6-4.63 1.71-9.11 3.28-13.36 7.21-19.65 24.06-34.69 45.12-39.23z" fill="#d8ecfe"/><path d="m119.151 339.73c-3.431.74-6.748 1.763-9.932 3.034v161.736h28.222v-168.72z" fill="#c4e2ff"/><path d="m455.86 504.5h-81.3v-168.72l18.29 3.95c21.06 4.54 37.91 19.58 45.12 39.23 1.57 4.25 2.68 8.73 3.28 13.36l2.43 18.66 4.17 32.02 4.17 32.03z" fill="#d8ecfe"/><path d="m452.021 475.03-4.171-32.03-4.17-32.02-2.43-18.66c-.6-4.63-1.71-9.11-3.28-13.36-7.21-19.65-24.06-34.69-45.12-39.23l-18.29-3.95v6.984c16.36 6.533 29.153 19.747 35.188 36.196 1.57 4.25 5.71 32.02 5.71 32.02l4.17 32.02 4.17 32.03 3.84 29.47h28.222z" fill="#c4e2ff"/><path d="m397.26 139.47v62.21c0 50.11-40.62 90.73-90.72 90.73h-101.08c-50.1 0-90.72-40.62-90.72-90.73v-62.21c0-72.89 59.08-131.97 131.96-131.97h18.6c72.88 0 131.96 59.08 131.96 131.97z" fill="#d8ecfe"/><path d="m265.3 7.5h-18.6c-1.611 0-3.214.039-4.811.096 70.65 2.533 127.149 60.595 127.149 131.874v62.21c0 50.11-40.62 90.73-90.72 90.73h28.222c50.1 0 90.72-40.62 90.72-90.73v-62.21c0-72.89-59.08-131.97-131.96-131.97z" fill="#c4e2ff"/><path d="m372.167 292.409h-232.333c-6.978 0-12.635 5.657-12.635 12.635v18.102c0 6.978 5.657 12.635 12.635 12.635h232.334c6.978 0 12.635-5.657 12.635-12.635v-18.102c0-6.978-5.657-12.635-12.636-12.635z" fill="#bbec6c"/><path d="m372.167 292.409h-39.759c6.978 0 12.635 5.657 12.635 12.635v18.102c0 6.978-5.657 12.635-12.635 12.635h39.759c6.978 0 12.635-5.657 12.635-12.635v-18.102c.001-6.978-5.656-12.635-12.635-12.635z" fill="#8de02b"/><path d="m309.767 464.872h-107.533c-7.083 0-12.825-5.742-12.825-12.825v-49.153c0-7.083 5.742-12.825 12.825-12.825h107.533c7.083 0 12.825 5.742 12.825 12.825v49.153c.001 7.083-5.742 12.825-12.825 12.825z" fill="#978ecb"/><path d="m309.767 390.068h-21.331c7.083 0 12.825 5.742 12.825 12.825v49.154c0 7.083-5.742 12.825-12.825 12.825h21.331c7.083 0 12.825-5.742 12.825-12.825v-49.154c.001-7.083-5.742-12.825-12.825-12.825z" fill="#8379c1"/><path d="m282 464.872h-18.531c-4.125 0-7.468-3.344-7.468-7.468v-29.795c0-4.125 3.344-7.468 7.468-7.468h18.531c4.125 0 7.468 3.344 7.468 7.468v29.795c0 4.125-3.343 7.468-7.468 7.468z" fill="#8ac9fe"/><path d="m282 420.141h-18.531c-.062 0-.122.008-.184.009 4.039.098 7.284 3.396 7.284 7.459v29.795c0 4.062-3.246 7.361-7.284 7.459.062.002.122.009.184.009h18.531c4.125 0 7.468-3.344 7.468-7.468v-29.795c0-4.124-3.343-7.468-7.468-7.468z" fill="#60b7ff"/><path d="m413.539 211.916c-8.989 0-16.275-7.287-16.275-16.275v-40.501c0-8.989 7.287-16.275 16.275-16.275 8.989 0 16.275 7.287 16.275 16.275v40.501c.001 8.989-7.286 16.275-16.275 16.275z" fill="#c4e2ff"/><path d="m98.462 211.916c-8.989 0-16.275-7.287-16.275-16.275v-40.501c0-8.989 7.287-16.275 16.275-16.275 8.989 0 16.275 7.287 16.275 16.275v40.501c0 8.989-7.287 16.275-16.275 16.275z" fill="#c4e2ff"/><path d="m354.26 140.269c0-15.306-12.408-27.713-27.713-27.713h-141.093c-15.306 0-27.713 12.408-27.713 27.713v49.699c0 12.122 9.827 21.949 21.949 21.949h17.347l12.343 34.501c2.58 7.21 9.412 12.022 17.07 12.022h59.103c7.658 0 14.49-4.812 17.07-12.022l12.343-34.501h17.347c12.122 0 21.949-9.827 21.949-21.949v-49.699z" fill="#ffe5c2"/><path d="m326.547 112.555h-28.222c15.306 0 27.713 12.407 27.713 27.713v49.699c0 12.122-9.827 21.949-21.949 21.949h-9.063c-4.968 0-9.401 3.122-11.074 7.8l-9.553 26.701c-2.58 7.21-9.412 12.022-17.07 12.022h28.222c7.658 0 14.49-4.812 17.07-12.022l12.343-34.501h17.347c12.122 0 21.949-9.827 21.949-21.949v-49.699c0-15.305-12.407-27.713-27.713-27.713z" fill="#fed2a4"/><path d="m185.454 112.555h141.094c0 18.02-14.608 32.628-32.628 32.628h-75.838c-18.02 0-32.628-14.608-32.628-32.628z" fill="#d8ecfe"/><path d="m290.714 112.555c0 18.02-14.608 32.628-32.628 32.628h35.834c18.02 0 32.628-14.608 32.628-32.628z" fill="#c4e2ff"/><path d="m397.26 139.47v15.67s-22.34-42.58-70.71-42.58h-141.1c-48.37 0-70.71 42.58-70.71 42.58v-15.67c0-72.89 59.08-131.97 131.96-131.97h18.6c72.88 0 131.96 59.08 131.96 131.97z" fill="#8ac9fe"/><g><path d="m265.3 7.5h-18.6c-1.611 0-3.214.039-4.811.096 65.715 2.356 119.177 52.756 126.327 117.147 19.693 12.583 29.044 30.397 29.044 30.397v-15.67c0-72.89-59.08-131.97-131.96-131.97z" fill="#60b7ff"/></g></g><g><path d="m463.297 503.531-14.609-112.175c-3.326-29.614-28.269-55.313-58.242-59.818 1.18-2.559 1.856-5.395 1.856-8.392v-18.103c0-11.103-9.033-20.135-20.135-20.135h-13.517c23.506-14.771 40.343-39.215 44.885-67.708 3.043 1.418 6.432 2.215 10.005 2.215 13.11 0 23.775-10.666 23.775-23.775v-40.5c0-13.109-10.666-23.775-23.775-23.775-3.156 0-6.168.624-8.926 1.745-3.336-73.963-64.545-133.11-139.316-133.11h-18.596c-74.771 0-135.98 59.147-139.315 133.11-2.758-1.122-5.77-1.745-8.926-1.745-13.11 0-23.775 10.666-23.775 23.775v40.501c0 13.109 10.666 23.775 23.775 23.775 3.573 0 6.962-.797 10.005-2.215 4.541 28.494 21.378 52.938 44.885 67.708h-13.518c-11.103 0-20.135 9.032-20.135 20.135v18.103c0 2.997.676 5.833 1.856 8.392l-3.984.86c-23.42 5.048-42.328 21.488-50.575 43.962-1.304 3.626-2.853 9.019-3.682 14.991l-14.61 112.18c-.535 4.107 2.36 7.871 6.468 8.406.329.043.656.063.979.063 3.711 0 6.936-2.754 7.428-6.532l2.987-22.938h63.375v21.97c0 4.143 3.358 7.5 7.5 7.5h.002s.001 0 .002 0c4.142 0 7.5-3.357 7.5-7.5v-161.219h16.867c4.142 0 7.5-3.357 7.5-7.5s-3.358-7.5-7.5-7.5h-21.979c-2.832 0-5.135-2.304-5.135-5.136v-18.103c0-2.831 2.304-5.135 5.135-5.135h232.334c2.832 0 5.135 2.304 5.135 5.135v18.103c0 2.832-2.304 5.136-5.135 5.136h-75.199v-8.357c0-4.143-3.358-7.5-7.5-7.5s-7.5 3.357-7.5 7.5v8.357h-18.467v-8.357c0-4.143-3.358-7.5-7.5-7.5s-7.5 3.357-7.5 7.5v8.357h-51.559c-4.142 0-7.5 3.357-7.5 7.5s3.358 7.5 7.5 7.5h51.559v39.286h-46.267c-11.208 0-20.326 9.118-20.326 20.325v49.153c0 11.207 9.118 20.325 20.326 20.325h107.533c11.208 0 20.326-9.118 20.326-20.325v-49.153c0-11.207-9.118-20.325-20.326-20.325h-12.799v-39.286h70.088v161.218c0 4.143 3.358 7.5 7.5 7.5h.002s.001 0 .002 0c4.142 0 7.5-3.357 7.5-7.5v-54h59.204l2.218 17.03h-33.825c-4.142 0-7.5 3.357-7.5 7.5s3.358 7.5 7.5 7.5h35.778l2.987 22.938c.492 3.779 3.716 6.532 7.428 6.532.323 0 .65-.021.979-.063 4.109-.535 7.005-4.298 6.469-8.406zm-333.357-117.071v17.021h-53.08c.785-5.395 1.16-11.095 2.679-17.021zm-55.033 32.02h55.034v17.02h-57.251zm45.827-71.418 9.207-1.988v26.387h-43.934c7.701-12.394 20.081-21.243 34.727-24.399zm-52.215 120.468 2.218-17.03h59.204v17.03zm345.021-321.166c4.839 0 8.775 3.937 8.775 8.775v40.501c0 4.839-3.937 8.775-8.775 8.775s-8.775-3.937-8.775-8.775v-40.387c0-.012 0-.024 0-.036v-.078c-.001-4.838 3.936-8.775 8.775-8.775zm-166.837-131.364h18.596c66.321 0 120.688 52.142 124.273 117.584-12.401-12.882-33.081-27.528-63.024-27.528h-141.094c-29.942 0-50.622 14.646-63.024 27.528 3.584-65.442 57.951-117.584 124.273-117.584zm-81.462 125.269c0-8.847 5.723-16.367 13.654-19.099 3.954 17.999 20.018 31.513 39.187 31.513h75.838c19.169 0 35.233-13.514 39.186-31.513 7.931 2.732 13.654 10.252 13.654 19.099v49.699c0 7.967-6.481 14.448-14.449 14.448h-17.347c-3.168 0-5.995 1.99-7.062 4.974l-12.343 34.501c-1.508 4.216-5.53 7.049-10.008 7.049h-59.103c-4.478 0-8.5-2.833-10.008-7.049l-12.343-34.501c-1.067-2.983-3.894-4.974-7.062-4.974h-17.347c-7.967 0-14.449-6.481-14.449-14.448v-49.699zm28.856-20.213h123.808c-3.198 10.203-12.74 17.627-23.984 17.627h-75.838c-11.246 0-20.789-7.424-23.986-17.627zm-95.636 84.36c-4.839 0-8.775-3.937-8.775-8.775v-40.501c0-4.839 3.937-8.775 8.775-8.775s8.775 3.937 8.775 8.775v40.501c.001 4.838-3.936 8.775-8.775 8.775zm107 80.493c-45.89 0-83.224-37.334-83.224-83.225v-44.559c2.848-4.761 12.628-19.38 30.086-28.779-1.345 3.725-2.082 7.739-2.082 11.922v49.699c0 16.238 13.21 29.448 29.449 29.448h12.064l10.564 29.527c3.637 10.166 13.334 16.996 24.131 16.996h59.103c10.797 0 20.495-6.83 24.131-16.996l10.564-29.527h12.064c16.238 0 29.449-13.21 29.449-29.448v-49.699c0-4.183-.737-8.197-2.082-11.922 17.457 9.399 27.237 24.018 30.086 28.779v44.559c0 45.891-37.334 83.225-83.224 83.225zm58.008 142.732 18.5-.031.038 29.763h-18.507zm51.624-24.747v49.153c0 2.937-2.389 5.325-5.326 5.325h-12.799v-29.763c0-8.254-6.715-14.969-14.968-14.969h-18.531c-8.253 0-14.968 6.715-14.968 14.969v29.763h-46.267c-2.937 0-5.326-2.389-5.326-5.325v-49.153c0-2.937 2.389-5.325 5.326-5.325h107.533c2.937-.001 5.326 2.388 5.326 5.325zm-33.125-20.326h-18.468v-39.286h18.468zm100.093 3.892h50.401c.589 2.238 1.052 4.517 1.352 6.829l1.327 10.191h-53.08zm43.931-15h-43.931v-26.387c17.143 2.334 34.804 10.945 43.931 26.387zm-43.931 64.04v-17.02h55.034l2.217 17.02z"/><path d="m256 203.416c4.142 0 7.5-3.357 7.5-7.5v-15.954c0-4.143-3.358-7.5-7.5-7.5s-7.5 3.357-7.5 7.5v15.954c0 4.143 3.358 7.5 7.5 7.5z"/><path d="m267.088 233.475c3.634-1.516 5.758-5.51 4.581-9.267-1.355-4.323-6.1-6.419-10.145-4.666-5.797 2.509-10.386.317-10.578.223l-1.191-.581c-3.597-1.754-7.938-.361-9.842 3.159-2.071 3.828-.44 8.613 3.536 10.381 4.433 1.971 7.983 3.034 12.448 3.034 3.306 0 7.115-.583 11.191-2.283z"/><path d="m228.99 415.481h-8.824c-4.142 0-7.5 3.357-7.5 7.5s3.358 7.5 7.5 7.5h8.824c4.142 0 7.5-3.357 7.5-7.5s-3.358-7.5-7.5-7.5z"/><path d="m299.207 181.728c.193-.095 4.781-2.287 10.579.223.971.42 1.981.619 2.975.619 2.981 0 5.815-1.788 6.985-4.761 1.519-3.86-.586-8.206-4.417-9.799-8.986-3.739-16.703-2.032-23.275 1.039-3.773 1.763-5.233 6.382-3.252 10.045 2.002 3.7 6.71 4.943 10.277 2.714z"/><path d="m202.806 181.664c.043-.025 4.616-2.243 10.457.286.971.42 1.981.619 2.975.619 2.9 0 5.662-1.692 6.887-4.522 1.646-3.802-.103-8.217-3.904-9.862-12.43-5.38-22.45-.31-23.552.286-3.643 1.972-4.999 6.522-3.028 10.165 1.97 3.643 6.52 4.998 10.165 3.028z"/></g></g></svg>