<svg id="Capa_1" enable-background="new 0 0 512 512" height="512" viewBox="0 0 512 512" width="512" xmlns="http://www.w3.org/2000/svg"><g><g><g><path d="m94.87 381.114 15.964-8.393c6.204-3.262 13.455 2.006 12.27 8.915l-3.049 17.776 12.915 12.589c5.019 4.892 2.249 13.416-4.687 14.424l-17.848 2.594-7.982 16.173c-3.102 6.285-12.064 6.285-15.166 0l-7.982-16.173-17.848-2.594c-6.936-1.008-9.706-9.532-4.687-14.424l12.915-12.589-3.049-17.776c-1.185-6.908 6.066-12.176 12.27-8.915z" fill="#ffe177"/><path d="m132.971 412.002-12.915-12.589 3.049-17.776c1.185-6.908-6.066-12.176-12.27-8.915l-10.433 5.485c.258 1.07.321 2.222.114 3.429l-2.285 13.321c-.478 2.789.446 5.635 2.473 7.611l9.678 9.434c5.019 4.892 2.249 13.416-4.687 14.424l-13.375 1.943c-2.801.407-5.222 2.166-6.474 4.704l-2.27 4.6 3.711 7.52c3.102 6.285 12.064 6.285 15.166 0l7.982-16.173 17.848-2.594c6.937-1.008 9.707-9.532 4.688-14.424z" fill="#ffd15b"/><path d="m330.081 67.188 15.964-8.393c6.204-3.262 13.455 2.006 12.27 8.915l-3.049 17.776 12.915 12.589c5.019 4.892 2.249 13.416-4.687 14.424l-17.848 2.594-7.982 16.173c-3.102 6.285-12.064 6.285-15.166 0l-7.982-16.173-17.848-2.594c-6.936-1.008-9.706-9.532-4.687-14.424l12.915-12.589-3.049-17.776c-1.185-6.908 6.066-12.176 12.27-8.915z" fill="#ffe177"/><path d="m368.181 98.075-12.915-12.589 3.049-17.776c1.185-6.908-6.066-12.176-12.27-8.915l-10.433 5.485c.258 1.07.321 2.222.114 3.429l-2.378 13.862c-.42 2.45.392 4.951 2.172 6.686l10.072 9.817c5.019 4.893 2.25 13.416-4.687 14.424l-14.231 2.068c-2.265.329-4.222 1.751-5.235 3.803l-2.653 5.375 3.711 7.52c3.102 6.285 12.064 6.285 15.166 0l7.982-16.173 17.848-2.593c6.938-1.007 9.707-9.531 4.688-14.423z" fill="#ffd15b"/><path d="m495.235 113.584h-14.853c-5.117 0-9.265-4.148-9.265-9.265v-14.853c0-5.117 4.148-9.265 9.265-9.265h14.853c5.117 0 9.265 4.148 9.265 9.265v14.853c0 5.117-4.148 9.265-9.265 9.265z" fill="#978ecb"/><path d="m504.5 89.465v14.85c0 5.12-4.15 9.27-9.27 9.27h-14.85c-.43 0-.85-.03-1.26-.09 4.52-.61 8.01-4.49 8.01-9.18v-14.85c0-4.69-3.49-8.57-8.01-9.18.41-.06.83-.09 1.26-.09h14.85c5.12 0 9.27 4.151 9.27 9.27z" fill="#8379c1"/><path d="m229.633 175.205h-14.853c-5.117 0-9.265-4.148-9.265-9.265v-14.853c0-5.117 4.148-9.265 9.265-9.265h14.853c5.117 0 9.265 4.148 9.265 9.265v14.853c0 5.117-4.148 9.265-9.265 9.265z" fill="#0ab69f"/><path d="m238.9 151.086v14.85c0 5.12-4.15 9.27-9.27 9.27h-14.85c-.43 0-.85-.03-1.26-.09 4.52-.61 8.01-4.49 8.01-9.18v-14.85c0-4.69-3.49-8.57-8.01-9.17.41-.06.83-.09 1.26-.09h14.85c5.12 0 9.27 4.139 9.27 9.26z" fill="#04a58a"/><path d="m229.633 271.308h-14.853c-5.117 0-9.265-4.148-9.265-9.265v-14.853c0-5.117 4.148-9.265 9.265-9.265h14.853c5.117 0 9.265 4.148 9.265 9.265v14.853c0 5.116-4.148 9.265-9.265 9.265z" fill="#fe7ab6"/><path d="m238.9 247.186v14.86c0 5.11-4.15 9.26-9.27 9.26h-14.85c-.43 0-.85-.03-1.26-.09 4.52-.61 8.01-4.48 8.01-9.17v-14.86c0-4.69-3.49-8.56-8.01-9.17.41-.06.83-.09 1.26-.09h14.85c5.12 0 9.27 4.15 9.27 9.26z" fill="#fe5ca7"/><path d="m31.618 294.757h-14.853c-5.117 0-9.265-4.148-9.265-9.265v-14.853c0-5.117 4.148-9.265 9.265-9.265h14.853c5.117 0 9.265 4.148 9.265 9.265v14.853c.001 5.117-4.148 9.265-9.265 9.265z" fill="#978ecb"/><path d="m40.88 270.636v14.86c0 5.11-4.14 9.26-9.26 9.26h-14.85c-.43 0-.85-.03-1.26-.09 4.52-.61 8.01-4.49 8.01-9.17v-14.86c0-4.68-3.49-8.56-8.01-9.17.41-.06.83-.09 1.26-.09h14.85c5.12 0 9.26 4.15 9.26 9.26z" fill="#8379c1"/><path d="m276.132 364.206h-14.853c-5.117 0-9.265-4.148-9.265-9.265v-14.853c0-5.117 4.148-9.265 9.265-9.265h14.853c5.117 0 9.265 4.148 9.265 9.265v14.853c.001 5.117-4.148 9.265-9.265 9.265z" fill="#8ac9fe"/><path d="m285.4 340.086v14.86c0 5.11-4.15 9.26-9.27 9.26h-14.85c-.43 0-.85-.03-1.26-.09 4.52-.61 8.01-4.48 8.01-9.17v-14.86c0-4.69-3.49-8.56-8.01-9.17.41-.06.83-.09 1.26-.09h14.85c5.12 0 9.27 4.15 9.27 9.26z" fill="#60b7ff"/></g></g><g><path d="m384.083 433.356h-5.839v-5.839c0-4.143-3.357-7.5-7.5-7.5s-7.5 3.357-7.5 7.5v5.839h-5.839c-4.143 0-7.5 3.357-7.5 7.5s3.357 7.5 7.5 7.5h5.839v5.838c0 4.143 3.357 7.5 7.5 7.5s7.5-3.357 7.5-7.5v-5.838h5.839c4.143 0 7.5-3.357 7.5-7.5s-3.357-7.5-7.5-7.5z"/><path d="m72.812 82.545h5.838v5.839c0 4.143 3.358 7.5 7.5 7.5s7.5-3.357 7.5-7.5v-5.839h5.839c4.142 0 7.5-3.357 7.5-7.5s-3.358-7.5-7.5-7.5h-5.839v-5.839c0-4.143-3.358-7.5-7.5-7.5s-7.5 3.357-7.5 7.5v5.839h-5.838c-4.142 0-7.5 3.357-7.5 7.5s3.357 7.5 7.5 7.5z"/><path d="m445.308 211.461c-2.203.827-54.03 20.926-60.904 77.904-.496 4.112 2.436 7.849 6.548 8.345.306.036.608.055.908.055 3.74-.001 6.977-2.796 7.437-6.603 2.403-19.927 11.649-36.974 27.481-50.666 12.023-10.398 23.566-14.901 23.819-14.999 3.868-1.462 5.824-5.78 4.369-9.653-1.456-3.878-5.784-5.842-9.658-4.383z"/><path d="m83.027 161.981c9.896 0 20.585-1.63 31.816-5.721 3.892-1.418 5.897-5.722 4.479-9.614s-5.722-5.897-9.614-4.479c-18.858 6.87-38.245 6.336-57.618-1.591-14.765-6.04-24.015-14.334-24.153-14.459-3.054-2.787-7.789-2.578-10.584.472-2.799 3.054-2.593 7.798.46 10.597 1.374 1.258 27.589 24.795 65.214 24.795z"/><path d="m364.574 119.921c6.055-.881 10.989-5.042 12.88-10.86 1.545-4.755.792-9.809-1.925-13.829l29.061 3.158c.275.03.549.045.819.045 3.779 0 7.029-2.849 7.447-6.69.447-4.118-2.528-7.819-6.646-8.267l-42.204-4.586 1.701-9.915c1.033-6.029-1.398-12.01-6.348-15.605-4.952-3.597-11.391-4.062-16.806-1.216l-12.474 6.559-12.475-6.559c-5.416-2.848-11.855-2.38-16.805 1.216-4.949 3.597-7.381 9.577-6.346 15.605l2.382 13.891-10.093 9.837c-.013.013-.024.026-.037.039-.009.009-.018.016-.027.025l-45.896 45.836c-2.967-2.653-6.868-4.282-11.152-4.282h-14.85c-9.244 0-16.765 7.521-16.765 16.766v14.853c0 9.219 7.482 16.722 16.692 16.762v47.726c-9.21.04-16.692 7.542-16.692 16.761v14.854c0 9.244 7.521 16.765 16.765 16.765h10.346l25.648 48.235c-3.812 3.076-6.26 7.778-6.26 13.047v9.466l-114.941 38.732.924-5.387c1.034-6.03-1.398-12.01-6.348-15.605s-11.388-4.062-16.805-1.216l-12.474 6.559-12.475-6.559c-3.135-1.649-6.612-2.179-9.945-1.642l-30.669-65.646c4.004-3.067 6.602-7.881 6.602-13.302v-8.345l123.063-17.529c4.101-.584 6.952-4.382 6.368-8.482-.584-4.101-4.381-6.955-8.483-6.367l-123.181 17.544c-2.896-5.034-8.319-8.44-14.532-8.44h-14.853c-9.244.001-16.765 7.522-16.765 16.766v14.853c0 9.244 7.521 16.766 16.765 16.766h10.079l33.465 71.631c-1.197 2.776-1.601 5.887-1.064 9.015l2.382 13.891-10.092 9.837c-4.381 4.271-5.928 10.538-4.037 16.356s6.826 9.979 12.881 10.859l13.946 2.027 6.237 12.638c2.708 5.486 8.191 8.895 14.309 8.895s11.601-3.408 14.309-8.895l6.237-12.638 13.947-2.027c6.054-.88 10.99-5.041 12.881-10.859s.343-12.086-4.038-16.357l-4.132-4.027 113.373-38.208c3.023 4.41 8.094 7.312 13.833 7.312h14.853c9.244 0 16.766-7.521 16.766-16.766v-14.853c0-9.244-7.521-16.766-16.766-16.766h-10.346l-25.648-48.234c3.812-3.076 6.26-7.778 6.26-13.046v-14.854c0-9.219-7.481-16.721-16.691-16.761v-47.726c9.21-.04 16.691-7.543 16.691-16.762v-11.743l39.532-39.48c2.447 2.774 5.828 4.647 9.66 5.205l13.945 2.026 6.237 12.638c2.707 5.486 8.19 8.895 14.309 8.895s11.602-3.408 14.309-8.895l6.237-12.638zm-349.574 165.571v-14.853c0-.974.792-1.766 1.765-1.766h14.853c.974 0 1.766.792 1.766 1.766v14.853c0 .974-.792 1.766-1.766 1.766h-14.853c-.973-.001-1.765-.793-1.765-1.766zm112.978 132.86c-.184.565-.596.626-.772.651l-17.849 2.594c-2.443.354-4.555 1.889-5.647 4.103l-7.982 16.174c-.079.159-.263.533-.858.533-.594 0-.779-.374-.857-.533l-7.982-16.174c-1.092-2.214-3.204-3.748-5.647-4.103l-17.849-2.594c-.176-.025-.588-.086-.772-.651-.184-.564.115-.855.242-.979l12.916-12.589c1.768-1.724 2.575-4.206 2.157-6.639l-3.049-17.776c-.03-.176-.101-.586.38-.936.21-.152.398-.202.558-.202.205 0 .361.082.449.129l15.964 8.394c2.185 1.148 4.796 1.148 6.98 0l15.963-8.394c.158-.083.526-.276 1.008.073.481.35.411.76.38.936l-3.041 17.733c-.237 2.071-.041 4.571 2.179 6.71l12.885 12.56c.129.125.428.416.244.98zm149.919-78.264v14.853c0 .974-.792 1.766-1.766 1.766h-14.853c-.974 0-1.765-.792-1.765-1.766v-14.853c0-.971.786-1.76 1.756-1.765.005 0 .01.001.016.001.011 0 .022-.002.033-.002h14.813c.974.001 1.766.793 1.766 1.766zm-46.499-92.899v14.854c0 .973-.792 1.765-1.765 1.765h-14.853c-.973 0-1.765-.792-1.765-1.765v-14.854c0-.973.792-1.765 1.765-1.765h14.853c.973 0 1.765.792 1.765 1.765zm0-81.249c0 .974-.792 1.766-1.765 1.766h-14.853c-.973 0-1.765-.792-1.765-1.766v-14.853c0-.974.792-1.766 1.765-1.766h14.853c.973 0 1.765.792 1.765 1.766zm107.523-54.167-7.982 16.174c-.079.16-.263.533-.857.533s-.778-.373-.857-.533l-7.982-16.174c-1.093-2.214-3.204-3.748-5.647-4.103l-17.847-2.593c-.176-.025-.589-.086-.773-.652-.179-.551.099-.839.23-.967l.049-.049 12.879-12.553c1.769-1.724 2.575-4.206 2.157-6.639l-3.049-17.777c-.029-.175-.101-.586.38-.935.211-.152.399-.202.559-.202.205 0 .361.082.449.129l15.964 8.394c2.186 1.148 4.795 1.148 6.98 0l15.963-8.394c.157-.084.527-.275 1.009.073.48.35.41.76.381.936l-3.049 17.776c-.284 1.885.002 4.485 2.156 6.639l12.915 12.588c.127.124.426.415.242.981-.185.565-.597.626-.771.651l-17.849 2.593c-2.446.356-4.557 1.89-5.65 4.104z"/><path d="m495.234 72.701h-14.853c-9.244 0-16.766 7.521-16.766 16.766v.249l-22.472-2.442c-4.126-.449-7.82 2.529-8.267 6.646-.447 4.118 2.528 7.819 6.646 8.267l24.117 2.621c.261 9.018 7.661 16.278 16.741 16.278h14.853c9.244 0 16.766-7.521 16.766-16.766v-14.854c.001-9.244-7.52-16.765-16.765-16.765zm1.766 31.618c0 .974-.792 1.766-1.766 1.766h-14.853c-.974 0-1.766-.792-1.766-1.766v-6.194c0-.005 0-.01 0-.015v-8.644c0-.974.792-1.766 1.766-1.766h14.853c.974 0 1.766.792 1.766 1.766z"/><circle cx="437.79" cy="371.729" r="7.5"/></g></g></svg>