<svg id="Capa_1" enable-background="new 0 0 511.999 511.999" height="512" viewBox="0 0 511.999 511.999" width="512" xmlns="http://www.w3.org/2000/svg"><g><g><path d="m51.633 431.383 12.501-11.553c2.283-2.109 5.969-.334 5.743 2.766l-1.238 16.977 16.827 2.571c3.072.469 3.983 4.458 1.418 6.214l-14.045 9.617 8.481 14.758c1.549 2.695-1.002 5.893-3.974 4.983l-16.276-4.985-6.251 15.833c-1.141 2.891-5.233 2.891-6.374 0l-6.251-15.833-16.276 4.985c-2.972.91-5.523-2.289-3.974-4.983l8.481-14.758-14.045-9.617c-2.564-1.756-1.654-5.745 1.418-6.214l16.827-2.571-1.238-16.977c-.226-3.1 3.46-4.875 5.743-2.766z" fill="#ffe177"/><path d="m85.466 442.144-16.827-2.571 1.238-16.977c.226-3.1-3.46-4.875-5.743-2.766l-12.501 11.553-7.838-7.244-.844 11.582c-.159 2.174 1.381 4.105 3.536 4.434l13.01 1.988c3.073.469 3.983 4.458 1.418 6.214l-10.957 7.502c-1.758 1.204-2.328 3.537-1.325 5.416l3.839 7.187c1.549 2.695-1.095 9.253-1.095 9.253l-3.988 8.17 1.057 2.678c1.141 2.891 5.233 2.891 6.374 0l6.251-15.833 16.276 4.985c2.972.91 5.523-2.289 3.974-4.983l-8.481-14.758 14.045-9.617c2.563-1.755 1.653-5.744-1.419-6.213z" fill="#ffd15b"/><g><path d="m354.391 348.846c-39.442 39.442-82.717 66.569-125.147 78.449-23.593 6.606-46.024 8.2-66.672 4.738-22.842-3.829-43.108-14.046-58.606-29.544s-25.715-35.763-29.544-58.606c-3.462-20.648-1.868-43.079 4.738-66.672 11.881-42.43 39.008-85.705 78.449-125.147s82.717-66.569 125.146-78.449c23.593-6.606 46.026-8.2 66.672-4.738 22.843 3.83 43.108 14.046 58.606 29.544s25.714 35.763 29.544 58.606c3.462 20.647 1.868 43.079-4.738 66.672-11.88 42.431-39.007 85.706-78.448 125.147z" fill="#d8ecfe"/><path d="m437.577 157.028c-3.83-22.843-14.046-43.108-29.544-58.606s-35.763-25.714-58.606-29.544c-13.141-2.203-27.008-2.35-41.435-.468 23.124 3.266 44.635 12.823 61.869 30.012 68.62 77.593 14.211 181.69-53.643 250.424-39.442 39.442-82.717 66.569-125.147 78.449-8.354 2.39-16.798 4.151-25.22 5.235 19.737 2.775 41.041 1.023 63.392-5.235 42.43-11.881 85.705-39.008 125.147-78.449 39.442-39.442 66.569-82.717 78.449-125.146 6.606-23.593 8.2-46.025 4.738-66.672z" fill="#c4e2ff"/><ellipse cx="256" cy="250.456" fill="#8ac9fe" rx="163.392" ry="84.933" transform="matrix(.707 -.707 .707 .707 -102.118 254.376)"/><path d="m371.535 134.921c-13.609-13.609-33.19-18.327-55.995-15.023 11.733 1.989 21.936 6.933 30.026 15.023 34.799 34.799 11.468 108.646-55.478 175.591-40.765 40.765-84.089 65.358-119.597 70.502 38.738 6.567 94.184-19.119 145.567-70.502 66.944-66.946 90.276-140.793 55.477-175.591z" fill="#60b7ff"/><ellipse cx="256" cy="250.456" fill="#978ecb" rx="101.668" ry="49.475" transform="matrix(.707 -.707 .707 .707 -102.119 254.376)"/><path d="m327.889 178.566c-8.117-8.117-21.277-9.885-36.744-6.29 4.044 1.328 7.584 3.4 10.474 6.29 19.321 19.322 2.798 67.171-36.905 106.874-23.025 23.025-48.779 38.232-70.13 43.195 22.991 7.553 62.636-9.43 96.4-43.195 39.704-39.703 56.227-87.553 36.905-106.874z" fill="#8379c1"/></g><circle cx="256" cy="250.456" fill="#ffe177" r="22.27"/><path d="m256 228.185c-4.847 0-9.329 1.553-12.985 4.183 5.621 4.043 9.286 10.635 9.286 18.088s-3.664 14.045-9.286 18.088c3.656 2.629 8.138 4.182 12.985 4.182 12.3 0 22.27-9.971 22.27-22.27 0-12.3-9.971-22.271-22.27-22.271z" fill="#ffd15b"/><circle cx="438.096" cy="432.552" fill="#978ecb" r="22.27"/><path d="m438.096 410.282c-4.202 0-8.131 1.165-11.485 3.188 6.463 3.898 10.786 10.985 10.786 19.083s-4.323 15.185-10.786 19.083c3.354 2.023 7.283 3.188 11.485 3.188 12.3 0 22.27-9.971 22.27-22.27 0-12.302-9.971-22.272-22.27-22.272z" fill="#8379c1"/><circle cx="300.54" cy="72.405" fill="#d88a55" r="22.27"/><path d="m300.54 50.135c-4.202 0-8.131 1.165-11.485 3.188 6.463 3.898 10.786 10.985 10.786 19.083s-4.323 15.184-10.786 19.083c3.354 2.023 7.283 3.188 11.485 3.188 12.3 0 22.27-9.971 22.27-22.27s-9.97-22.272-22.27-22.272z" fill="#c57a44"/><circle cx="109.059" cy="162.222" fill="#bbec6c" r="41.041"/><path d="m109.059 121.181c-4.911 0-9.62.865-13.985 2.448 15.78 5.72 27.056 20.838 27.056 38.593s-11.276 32.873-27.056 38.593c4.365 1.582 9.073 2.448 13.985 2.448 22.666 0 41.041-18.375 41.041-41.041s-18.374-41.041-41.041-41.041z" fill="#8de02b"/></g><g><path d="m475.69 267.984c-3.684-1.896-8.206-.449-10.101 3.235-19.289 37.47-46.444 73.845-80.714 108.113-49.618 49.619-104.305 84.672-158.146 101.37-31.919 9.896-62.351 12.982-90.452 9.172-4.104-.56-7.884 2.318-8.439 6.424-.557 4.104 2.319 7.883 6.424 8.439 8.448 1.146 17.075 1.718 25.866 1.718 22.718 0 46.514-3.82 71.044-11.427 56.159-17.416 112.977-53.755 164.312-105.089 35.368-35.369 63.442-73.002 83.442-111.855 1.896-3.682.447-8.205-3.236-10.1z"/><path d="m510.282 128.72c-4.762-35.164-19.64-66.118-43.027-89.517-2.93-2.931-7.679-2.932-10.606-.003-2.93 2.929-2.931 7.677-.003 10.606 21.048 21.058 34.455 49.041 38.772 80.927 3.811 28.102.725 58.533-9.171 90.45-1.918 6.184-4.11 12.469-6.515 18.679-1.495 3.863.424 8.207 4.286 9.702.891.345 1.806.508 2.706.508 3.007 0 5.845-1.821 6.996-4.794 2.527-6.529 4.833-13.141 6.853-19.652 10.549-34.019 13.815-66.625 9.709-96.906z"/><path d="m81.816 342.646c-.685-4.085-4.545-6.849-8.637-6.156-4.085.685-6.842 4.552-6.156 8.637 4.091 24.395 15.033 46.063 31.642 62.661 16.601 16.611 38.27 27.554 62.666 31.645 7.494 1.256 15.199 1.883 23.088 1.883 15.011 0 30.688-2.27 46.844-6.797 43.67-12.228 88.08-40.019 128.431-80.368 40.351-40.352 68.142-84.762 80.368-128.431 6.907-24.647 8.561-48.177 4.915-69.934-4.091-24.396-15.033-46.064-31.642-62.661-16.602-16.612-38.271-27.555-62.666-31.646-7.504-1.259-15.309-1.875-23.253-1.871-4.795-10.029-15.038-16.974-26.875-16.974-15.404 0-28.113 11.761-29.62 26.775-39.729 13.209-79.873 39.144-116.584 75.348-4.445-11.484-13.129-20.873-24.132-26.22 48.797-48.005 102.335-81.973 155.066-98.328 3.956-1.227 6.169-5.429 4.941-9.385-1.227-3.955-5.427-6.169-9.385-4.941-56.159 17.417-112.978 53.757-164.312 105.09-.971.972-1.925 1.954-2.888 2.931-33.093-3.427-60.472 28.694-51.387 61.108-23.301 32.987-40.404 66.703-50.815 100.274-10.55 34.021-13.815 66.623-9.709 96.898 3.064 22.618 10.199 43.286 21.231 61.587l-6.279.96c-4.465.681-7.998 3.966-9.004 8.368-1.005 4.403.753 8.896 4.479 11.448l8.326 5.701-5.028 8.749c-2.25 3.915-1.885 8.727.931 12.257 2.815 3.529 7.424 4.959 11.742 3.634l9.648-2.954 3.706 9.387c1.658 4.199 5.647 6.913 10.163 6.913 4.515 0 8.504-2.714 10.162-6.914l3.706-9.386 9.648 2.954c4.317 1.325 8.927-.104 11.742-3.634s3.181-8.342.931-12.257l-5.027-8.749 8.325-5.701c3.727-2.552 5.484-7.045 4.479-11.448-1.006-4.402-4.54-7.688-9.002-8.368l-9.975-1.524.733-10.062c.329-4.504-2.088-8.681-6.156-10.64-4.068-1.962-8.841-1.246-12.156 1.819l-7.411 6.849-7.411-6.85c-2.935-2.706-10.189-4.422-14.749-.078-6.42-13.5-10.748-28.246-12.892-44.076-3.811-28.095-.726-58.523 9.171-90.441 9.222-29.733 24-59.67 43.952-89.142 8.825 12.21 23.173 20.177 39.355 20.177 26.567 0 48.206-21.456 48.526-47.948 1.748-1.817 3.522-3.639 5.328-5.445 34.891-34.891 72.906-59.981 110.402-72.941 4.63 10.441 15.088 17.747 27.225 17.747 15.665 0 28.534-12.165 29.678-27.543 6.145.125 12.163.667 17.97 1.64 21.296 3.571 40.154 13.065 54.539 27.459 14.39 14.38 23.884 33.237 27.455 54.534 3.277 19.565 1.742 40.898-4.566 63.408-11.533 41.194-37.998 83.336-76.531 121.869-38.532 38.533-80.674 64.997-121.869 76.531-22.509 6.308-43.842 7.843-63.406 4.565-21.297-3.571-40.155-13.065-54.539-27.458-14.386-14.381-23.881-33.239-27.452-54.535zm-35.272 94.245c2.873 2.656 7.307 2.656 10.18 0l4.923-4.549-.487 6.686c-.284 3.902 2.479 7.368 6.348 7.959l6.625 1.013-5.531 3.787c-3.229 2.211-4.215 6.532-2.266 9.925l3.34 5.812-6.409-1.963c-3.743-1.148-7.736.777-9.172 4.417l-2.462 6.235-2.461-6.235c-1.157-2.93-3.97-4.748-6.976-4.748-.728 0-1.468.107-2.197.331l-6.409 1.963 3.34-5.812c1.949-3.393.963-7.715-2.266-9.926l-5.531-3.786 6.627-1.013c3.868-.591 6.632-4.057 6.348-7.96l-.488-6.686zm62.515-241.129c-18.494 0-33.54-15.046-33.54-33.54s15.046-33.541 33.54-33.541 33.541 15.047 33.541 33.541-15.047 33.54-33.541 33.54zm191.482-108.587c-8.145 0-14.771-6.626-14.771-14.771s6.626-14.771 14.771-14.771 14.771 6.626 14.771 14.771-6.627 14.771-14.771 14.771z"/><path d="m260.109 131.829c-23.594 12.843-46.967 30.765-69.47 53.267-33.213 33.214-57.271 69.756-67.741 102.895-10.999 34.812-6.644 64.397 12.263 83.305 12.071 12.07 28.492 18.21 47.849 18.209 10.963 0 22.868-1.97 35.456-5.946 33.139-10.471 69.681-34.528 102.895-67.741 33.214-33.214 57.271-69.757 67.741-102.896 10.999-34.812 6.644-64.396-12.263-83.304-2.932-2.929-7.679-2.928-10.607 0-2.929 2.93-2.929 7.678 0 10.607 14.754 14.753 17.797 38.966 8.567 68.178-9.758 30.885-32.503 65.265-64.046 96.807-31.542 31.542-65.922 54.287-96.807 64.046-29.214 9.229-53.426 6.187-68.178-8.567-14.754-14.753-17.797-38.966-8.567-68.178 9.759-30.885 32.504-65.265 64.046-96.807 21.183-21.184 44.017-38.715 66.034-50.7 3.638-1.979 4.981-6.534 3.001-10.173-1.98-3.638-6.534-4.984-10.173-3.002z"/><path d="m202.579 322.714c-4.125-.459-7.818 2.528-8.267 6.646-.447 4.118 2.527 7.819 6.646 8.267 1.824.198 3.696.296 5.618.296 26.038-.002 60.502-17.97 89.712-47.179 19.99-19.99 35.038-42.696 42.373-63.936 7.957-23.046 6.016-42.062-5.468-53.546-11.485-11.483-30.502-13.424-53.546-5.467-21.239 7.334-43.945 22.382-63.936 42.372-32.884 32.885-51.489 72.749-46.297 99.197.798 4.065 4.739 6.717 8.804 5.915 4.065-.798 6.713-4.739 5.915-8.804-4.204-21.418 13.143-56.659 42.186-85.701 18.414-18.415 39.092-32.194 58.225-38.801 17.077-5.9 30.94-5.206 38.042 1.896 7.102 7.101 7.793 20.967 1.896 38.042-6.606 19.133-20.387 39.811-38.802 58.225-27.841 27.843-61.223 44.949-83.101 42.578z"/><path d="m285.77 250.456c0-16.415-13.355-29.771-29.771-29.771s-29.771 13.355-29.771 29.771 13.355 29.771 29.771 29.771 29.771-13.356 29.771-29.771zm-44.541 0c0-8.145 6.626-14.771 14.771-14.771s14.771 6.626 14.771 14.771-6.626 14.771-14.771 14.771c-8.145-.001-14.771-6.627-14.771-14.771z"/><path d="m438.095 402.782c-16.415 0-29.77 13.355-29.77 29.771s13.354 29.771 29.77 29.771 29.771-13.355 29.771-29.771-13.356-29.771-29.771-29.771zm0 44.541c-8.144 0-14.77-6.626-14.77-14.771s6.626-14.771 14.77-14.771c8.145 0 14.771 6.626 14.771 14.771s-6.626 14.771-14.771 14.771z"/><path d="m45.966 48.566h5.838v5.839c0 4.143 3.357 7.5 7.5 7.5s7.5-3.357 7.5-7.5v-5.839h5.839c4.143 0 7.5-3.357 7.5-7.5s-3.357-7.5-7.5-7.5h-5.839v-5.838c0-4.143-3.357-7.5-7.5-7.5s-7.5 3.357-7.5 7.5v5.838h-5.838c-4.143 0-7.5 3.357-7.5 7.5s3.357 7.5 7.5 7.5z"/><circle cx="161.99" cy="467.569" r="7.5"/><circle cx="474.84" cy="382.53" r="7.5"/><circle cx="489.929" cy="16.526" r="7.5"/></g></g></svg>