<svg id="Layer_1" enable-background="new 0 0 512 512" viewBox="0 0 512 512" xmlns="http://www.w3.org/2000/svg"><g><g clip-rule="evenodd" fill-rule="evenodd"><path d="m359.994 92.277c-35.174 0-33.182 40.95-3.29 40.95 46.288.017 69.483 43.109 50.022 81.601-8.935 17.673-28.01 29.705-46.792 37.772-17.399 7.473-34.911 15.151-50.807 31.703-15.776 16.427-27.959 40.016-32.862 77.736-1.82 13.697 7.809 26.275 21.505 28.095s41.441 6.391 43.261-7.306c3.313-25.487 7.378-46.297 16.386-55.676 33.306-34.683 68.44-33.59 95.819-87.745 36.463-72.122-10.23-147.13-93.242-147.13z" fill="#fd7da0"/><path d="m271.799 53.322c30.461 17.587 8.261 52.055-17.626 37.109-40.095-23.129-81.729 2.592-84.121 45.658-1.098 19.773 9.405 39.73 21.638 56.107 11.331 15.171 22.659 30.577 28.149 52.859 5.449 22.114 7.719 57.17-6.895 92.288-5.272 12.771-26.805 54.14-47.23 45.709-12.771-5.271-46.397-21.594-23.76-60.803 9.874-23.729 17.751-51.603 14.64-64.23-11.503-46.689-42.476-63.31-39.109-123.899 4.482-80.692 82.424-122.304 154.314-80.798z" fill="#fd7da0"/><path d="m501.999 374.677v100.409h-491.999v-100.409c23.774 0 25.426-12.049 49.2-12.049s25.426 12.049 49.2 12.049 25.426-12.049 49.2-12.049 25.426 12.049 49.2 12.049 25.426-12.049 49.2-12.049 25.426 12.049 49.2 12.049 25.426-12.049 49.2-12.049 25.426 12.049 49.2 12.049 25.426-12.049 49.2-12.049c23.773 0 25.425 12.049 49.199 12.049z" fill="#67ccd1"/><path d="m176.98 147.383c33.975 9.104 21.453 48.143-7.421 40.406-44.715-11.964-78.273 23.657-69.437 65.874 4.057 19.383 19.367 35.942 35.422 48.595 14.872 11.722 29.8 23.67 40.87 43.773 10.212 18.544 15.823 42.264 12.526 75.794-9.398-3.57-15.39-8.994-31.341-8.994-18.572 0-23.644 7.353-36.308 10.57 2.448-21.181 2.859-38.544-2.612-48.48-23.195-42.121-57.415-50.159-69.844-109.555-16.554-79.101 47.962-139.468 128.145-117.983z" fill="#fdbeb9"/><path d="m203.299 256.876c-17.587 30.461 18.873 49.212 33.819 23.324 23.158-40.078 72.075-38.619 95.68-2.52 10.838 16.575 11.72 39.11 9.315 59.409-2.228 18.805-4.334 37.81 2.052 59.852 1.539 5.311 3.551 10.649 6.145 16.019 1.289-.083 2.648-.128 4.09-.128 23.774 0 25.426 12.049 49.2 12.049 17.55 0 23.046-6.565 34.284-10.003-15.808-13.524-29.58-28.377-32.464-38.332-13.383-46.185 5.13-76.066-28.08-126.854-44.229-67.64-132.535-64.706-174.041 7.184z" fill="#fdbeb9"/><path d="m10 424.881v50.205h492v-50.205c-23.774 0-25.426-12.049-49.2-12.049s-25.426 12.049-49.199 12.049c-23.774 0-25.426-12.049-49.2-12.049s-25.425 12.049-49.199 12.049-25.426-12.049-49.2-12.049-25.426 12.049-49.2 12.049-25.426-12.049-49.2-12.049-25.426 12.049-49.2 12.049-25.426-12.049-49.2-12.049c-23.776 0-25.428 12.049-49.202 12.049z" fill="#27a2cc"/><g fill="#fd7da0"><path d="m185.863 369.806c-18.101-8.898-34.949-19.955-50.208-32.835-40.687-34.345-70.075-81.653-81.795-135.554-7.699 18.552-9.948 40.423-5.024 63.951 12.327 58.904 46.084 67.297 69.266 108.517.193.344.386.69.578 1.038 5.472 9.936 5.06 27.299 2.612 48.48 12.664-3.218 17.736-10.57 36.308-10.57 15.951 0 21.943 5.424 31.341 8.994 1.73-17.604 1.006-32.504-1.55-45.371-.41-2.063-.867-4.074-1.369-6.036-.053-.205-.106-.41-.159-.614z"/><path d="m344.165 396.941c1.539 5.311 3.551 10.649 6.145 16.018 1.288-.083 2.648-.127 4.09-.127 23.774 0 25.426 12.049 49.2 12.049 17.55 0 23.045-6.566 34.284-10.003-15.808-13.524-29.58-28.377-32.464-38.332-.183-.63-.359-1.257-.53-1.881-.492-1.796-.936-3.568-1.338-5.318-3.18 1.58-6.399 3.093-9.654 4.537-16.296 7.229-33.523 12.739-51.452 16.301.487 2.222 1.057 4.473 1.719 6.756z"/></g></g><path d="m502 364.677c-9.638 0-14.351-2.233-20.318-5.061-6.912-3.275-14.746-6.988-28.882-6.988-14.137 0-21.971 3.712-28.883 6.988-3.834 1.817-7.04 3.336-11.328 4.226-2.489-12.306-2.839-23.551-3.204-35.313-.265-8.521-.533-17.141-1.664-26.155 19.552-12.383 38.375-26.68 54.44-58.454 18.825-37.234 18.207-77.15-1.695-109.513-20.374-33.129-56.994-52.13-100.471-52.13-14.482 0-26.202 5.914-32.154 16.224-5.197 9.002-5.177 20.223.054 29.282 5.667 9.815 16.168 15.444 28.807 15.444 17.722.006 32.526 7.558 40.616 20.718 8.222 13.376 8.404 30.711.486 46.372-4.012 7.935-11.03 15.298-20.887 21.925-22.515-27.341-53.495-42.246-86.895-41.312-25.672.713-49.551 10.642-69.07 28.146-5.953-12.154-13.313-22.229-20.116-31.349 5.878-7.244 8.023-16.95 5.595-26.011-3.051-11.384-12.676-20.069-26.44-23.878.01-.401.026-.8.048-1.195.974-17.521 9.798-32.443 23.607-39.916 13.586-7.352 30.183-6.489 45.53 2.364 10.95 6.322 22.858 6.697 32.673 1.03 9.06-5.23 14.687-14.937 14.687-25.333 0-11.905-7.193-22.886-19.734-30.127-37.651-21.739-78.866-23.594-113.075-5.09-33.417 18.076-53.91 52.335-56.225 93.993-.101 1.81-.173 3.62-.217 5.41-14.192 4.851-27.152 12.596-38.253 23.098-27.6 26.109-38.528 64.505-29.982 105.343 8.274 39.538 25.864 58.256 42.875 76.357 6.134 6.528 12.063 12.837 17.607 20.093-4.367-.896-7.654-2.453-11.448-4.251-6.912-3.275-14.746-6.988-28.882-6.988-14.137 0-21.97 3.712-28.882 6.988-5.967 2.828-10.68 5.061-20.317 5.061-5.523 0-10 4.477-10 10v100.409c0 5.523 4.477 10 10 10h492c5.523 0 10-4.477 10-10v-100.407c-.003-5.523-4.481-10-10.003-10zm-86.35-145.336c11.076-21.907 10.591-46.531-1.296-65.87-11.809-19.211-32.821-30.235-57.65-30.244-5.383 0-9.463-1.934-11.491-5.445-1.669-2.891-1.689-6.447-.053-9.282 2.317-4.013 7.585-6.224 14.833-6.224 36.373 0 66.783 15.529 83.435 42.606 16.18 26.311 16.502 59.119.883 90.013-12.141 24.014-25.813 36.238-40.944 46.445-3.019-10.149-7.664-20.961-14.901-32.767 12.535-8.506 21.668-18.322 27.184-29.232zm-125.075-8.418c30.876-.842 59.45 15.268 78.395 44.242 19.03 29.103 19.676 49.902 20.424 73.985.479 15.431.975 31.387 6.42 50.179 2.972 10.259 13.323 22.314 23.798 32.461-4.304 1.828-8.767 3.091-16.012 3.091-9.638 0-14.351-2.233-20.318-5.061-6.514-3.087-13.848-6.562-26.505-6.952-1.147-2.853-2.154-5.77-3.006-8.71-5.925-20.449-3.791-38.467-1.727-55.893 3.289-27.765-.37-49.991-10.876-66.058-13.434-20.545-34.994-32.431-57.692-31.812-22.542.622-42.595 13.306-55.017 34.805-2.691 4.662-6.406 7.229-10.461 7.229-3.338 0-6.428-1.761-8.065-4.595-2.317-4.013-1.597-9.681 2.027-15.958 18.186-31.499 46.839-50.071 78.615-50.953zm34.945 148.692c-5.968 2.828-10.682 5.062-20.32 5.062-8.708 0-13.396-1.823-18.62-4.261 4.334-30.209 14.083-52.862 29.76-69.187 2.65-2.759 5.403-5.308 8.327-7.708 7.681 12.025 10.21 29.647 7.516 52.391-.81 6.843-1.661 14.023-2.054 21.586-1.619.7-3.129 1.416-4.609 2.117zm-203.139-152.666c.167-.158.335-.314.504-.469 2.056 4.089 4.184 8.055 6.266 11.935 7.022 13.087 13.656 25.448 17.732 41.996 1.101 4.469.16 15.737-5.39 33.803-18.025-14.259-28.651-28.59-31.583-42.598-3.595-17.177 1.068-33.875 12.471-44.667zm43.922 48.678c-4.68-18.998-12.229-33.064-19.529-46.668-2.19-4.081-4.298-8.009-6.286-11.989 8.126-2.122 17.178-2.01 26.484.479 5.801 1.554 11.464 1.756 16.67.681.012.017.025.033.037.05 8.233 11.023 16.732 22.403 22.436 36.736-4.138 5.238-7.975 10.898-11.475 16.96-7.241 12.541-7.98 25.648-2.027 35.958 4.263 7.384 11.574 12.473 19.837 14.065-1.645 10.997-4.575 21.6-8.748 31.629-1.92 4.65-6.265 13.576-11.906 22.027-1.877-4.961-4.083-9.738-6.62-14.347-7.803-14.17-17.382-24.62-27.095-33.325 5.867-17.17 11.505-38.93 8.222-52.256zm55.873 85.558c5.617-13.498 9.277-27.899 10.891-42.843 5.034-2.941 9.395-7.398 12.709-13.139 8.866-15.345 22.808-24.39 38.25-24.815 9.549-.265 18.893 2.79 26.909 8.539-3.148 2.645-6.134 5.443-9.021 8.449-17.944 18.685-29.27 43.658-34.519 76.182-3.308-.58-7.054-.93-11.395-.93-14.136 0-21.97 3.712-28.882 6.988-5.32 2.521-9.644 4.57-17.351 4.984 5.814-9.049 10.217-18.106 12.409-23.415zm-48.936-284.021c27.958-15.125 62.059-13.367 93.56 4.819 6.277 3.625 9.734 8.172 9.734 12.807 0 3.273-1.796 6.343-4.687 8.012-3.511 2.027-8.013 1.662-12.677-1.032-21.505-12.405-45.212-13.364-65.046-2.631-19.527 10.567-32.134 30.969-33.951 54.792-11.205-1.375-22.166-1.289-32.674.213 2.062-34.322 18.712-62.36 45.741-76.98zm-114.616 206.156c-7.091-33.884 1.711-65.491 24.15-86.717 23.093-21.845 56.485-28.974 91.619-19.56 7.001 1.876 11.518 5.375 12.718 9.851.847 3.161-.093 6.591-2.454 8.951-2.868 2.867-7.312 3.678-12.512 2.285-23.983-6.417-47.131-1.207-63.51 14.293-16.487 15.603-23.329 39.263-18.3 63.29 3.933 18.791 17.061 37.093 39.02 54.4 13.781 10.861 28.03 22.093 38.301 40.743 8.643 15.695 12.657 34.085 12.19 56.002-5.561-2.211-12.363-4.025-22.245-4.025-11.5 0-18.829 2.457-24.884 5.137 1.018-17.828-.656-29.479-5.276-37.87-9.438-17.138-20.37-28.771-30.942-40.021-16.502-17.56-30.753-32.723-37.875-66.759zm433.376 201.766h-472v-81.112c8.219-1.231 13.8-3.876 18.882-6.285 5.967-2.828 10.68-5.061 20.317-5.061 9.638 0 14.351 2.233 20.318 5.061 6.912 3.275 14.746 6.988 28.882 6.988 1.115 0 2.214-.024 3.295-.072 2.173 8.998 1.169 22.717.457 30.15-1.167.082-2.412.125-3.752.125-3.708 0-6.947-.34-9.901-1.04-5.371-1.275-10.763 2.051-12.036 7.425s2.051 10.763 7.425 12.036c4.484 1.062 9.231 1.579 14.513 1.579 14.137 0 21.97-3.712 28.882-6.988 5.967-2.828 10.68-5.061 20.317-5.061s14.351 2.233 20.317 5.061c6.912 3.275 14.746 6.988 28.883 6.988 5.523 0 10-4.477 10-10s-4.477-10-10-10c-2.773 0-5.138-.185-7.243-.516.623-10.67.357-20.693-.808-30.135 2.562.3 5.229.447 8.051.447 14.136 0 21.97-3.712 28.882-6.988 5.967-2.828 10.68-5.061 20.317-5.061 9.638 0 14.351 2.233 20.318 5.061 6.912 3.275 14.746 6.988 28.882 6.988 11.818 0 19.232-2.594 25.385-5.359.68 6.532 1.924 13.327 3.976 20.407.548 1.89 1.149 3.773 1.799 5.641-4.181 1.298-7.613 2.924-10.842 4.454-2.567 1.217-4.992 2.366-7.638 3.235-5.247 1.725-8.102 7.376-6.377 12.623 1.725 5.248 7.38 8.102 12.623 6.377 3.835-1.261 7.087-2.802 9.957-4.162 5.967-2.828 10.681-5.062 20.318-5.062s14.351 2.233 20.318 5.061c6.912 3.275 14.746 6.988 28.882 6.988 14.137 0 21.97-3.712 28.882-6.988 5.967-2.828 10.68-5.061 20.317-5.061 5.523 0 10-4.477 10-10s-4.477-10-10-10c-4.725 0-8.746.415-12.264 1.089-9.722-8.654-16.325-15.887-20.407-21.34 4.911-1.365 8.784-3.201 12.354-4.893 5.967-2.828 10.68-5.061 20.318-5.061s14.351 2.233 20.318 5.061c5.083 2.409 10.663 5.053 18.882 6.285v81.115z" fill="#052a75"/></g><g/><g/><g/><g/><g/><g/><g/><g/><g/><g/><g/><g/><g/><g/><g/></svg>