<svg id="Layer_1" enable-background="new 0 0 512 512" viewBox="0 0 512 512" xmlns="http://www.w3.org/2000/svg"><g><g clip-rule="evenodd" fill-rule="evenodd"><path d="m383.7 148.633c-7.029-59.241-53.217-76.31-105.429-74.302s-78.82-25.242-72.294-64.331c-19.687 8.931-47.929 33.138-41.904 78.322-14.81-4.016-29.385-15.748-35.912-30.056 0 0-14.357 58.547 14.258 105.237l-31.329-2.319s4.016 37.654 26.608 67.274c0 0-39.16 34.139-49.201 96.894l32.131 1.004c-35.143 34.138-35.866 102.918-83.701 114.465 4.895 12.175 19.188 34.139 51.068 29.62l-3.012 31.559h388.828s-24.822-31.956-32.241-70.163c-66.195-92.41-79.355-160.387-57.87-283.204z" fill="#fd6050"/><path d="m305.884 199.842c45.184 24.098 61.249 18.575 90.869 17.572 14.724-.499 34.162 2.971 49.99 6.589 16.013 3.659 28.329 7.468 28.329 7.468-10.543-68.779-60.245-78.318-91.371-82.837-20.083 23.596-47.695 52.714-77.817 51.208z" fill="#fdcb50"/><path d="m396.753 217.414c-29.62 1.003-45.686 6.526-90.869-17.572l12.545 18.247 26.112 37.982s24.329 6.256 50.371 2.02c19.468-3.166 39.895-12.197 51.831-34.089-15.828-3.617-35.266-7.087-49.99-6.588z" fill="#fd8f01"/><path d="m394.912 258.091c-26.042 4.236-50.371-2.02-50.371-2.02l-26.112-37.982c-69.032 38.831-43.424 116.802-43.424 116.802l26.106-9.037c-5.02 28.114 24.098 67.776 24.098 67.776l22.592-20.584c18.147 37.975 64.864 53.004 93.77 58.791 14.277 2.858 24.21 3.462 24.21 3.462-7.029-31.126-46.188-78.82-46.188-78.82l33.135-15.563c-40.165-19.58-51.712-57.234-57.816-82.825z" fill="#fdcb50"/><path d="m388.794 502c-117.52-44.495-201.072-158.089-201.072-291.198 0-53.914 13.707-104.627 37.827-148.843-16.295-11.371-23.279-29.755-19.572-51.959-19.687 8.931-47.929 33.138-41.904 78.322-14.81-4.016-29.385-15.748-35.912-30.056 0 0-14.357 58.547 14.258 105.237l-31.329-2.319s4.016 37.654 26.608 67.274c0 0-39.16 34.139-49.201 96.894l32.131 1.004c-35.143 34.138-35.866 102.918-83.701 114.465 4.895 12.175 19.188 34.139 51.068 29.62l-3.012 31.559z" fill="#bc3c85"/></g><g><path d="m455.072 444.247c5.707.743 9.381.99 10.1 1.033.203.013.405.019.607.019 2.922 0 5.711-1.28 7.617-3.522 2.038-2.396 2.829-5.612 2.137-8.681-5.495-24.333-28.124-56.699-40.348-72.895l21.791-10.235c3.485-1.637 5.721-5.129 5.749-8.979.027-3.85-2.157-7.374-5.618-9.061-31.12-15.171-43.288-42.519-49.903-66.168 16.425-4.438 32.663-13.402 44.264-30.351 11.894 2.932 20.449 5.555 20.649 5.617 3.295 1.018 6.874.268 9.483-1.981 2.608-2.25 3.876-5.683 3.354-9.088-5.045-32.912-19.302-57.259-42.374-72.367-17.158-11.236-36.62-15.531-50.087-17.733-4.882-26.945-18.114-47.075-39.406-59.906-19.15-11.541-44.462-16.793-75.203-15.61-24.239.936-43.285-5.045-53.662-16.83-7.903-8.977-10.803-21.378-8.385-35.862.608-3.644-.841-7.326-3.771-9.576-2.929-2.252-6.862-2.703-10.224-1.178-23.635 10.722-46.999 34.7-48.517 71.548-6.982-4.712-12.836-11.235-16.069-18.325-1.769-3.875-5.801-6.207-10.034-5.806-4.24.398-7.763 3.438-8.776 7.574-.559 2.278-12.036 50.672 7.025 96.337l-13.646-1.01c-2.953-.221-5.859.886-7.923 3.017s-3.073 5.067-2.759 8.016c.163 1.527 3.952 35.132 23.52 65.08-12.195 13.102-37.961 45.936-46.043 96.447-.454 2.838.334 5.733 2.164 7.949s4.525 3.537 7.397 3.626l11.946.374c-8.086 12.2-14.101 25.936-19.98 39.365-11.822 27.009-22.035 50.335-45.565 56.015-2.824.682-5.212 2.558-6.543 5.14-1.33 2.583-1.473 5.616-.389 8.312 3.552 8.831 16.856 35.147 49.291 36.461l-1.913 20.037c-.268 2.805.66 5.592 2.556 7.677s4.582 3.273 7.399 3.273h388.828c3.814 0 7.294-2.174 8.975-5.599s1.263-7.511-1.071-10.528c-.196-.253-17.48-22.815-26.643-51.626zm-23.479-104.455-16.253 7.634c-2.793 1.312-4.823 3.839-5.503 6.848-.68 3.01.067 6.164 2.025 8.549 8.569 10.438 29.108 37.965 39.216 60.577-25.671-4.226-76.334-17.162-94.257-54.667-1.364-2.854-3.999-4.895-7.104-5.502-3.103-.604-6.313.292-8.653 2.422l-13.954 12.715c-8.3-13.693-18.871-35.549-16.155-50.757.623-3.493-.65-7.055-3.349-9.36-2.697-2.306-6.415-3.008-9.768-1.848l-15.646 5.416c-3.464-19.468-5.881-63.04 33.406-90.196l20.702 30.112c1.368 1.99 3.41 3.418 5.75 4.02 1.341.345 15.536 3.871 33.959 3.871 3.653 0 7.471-.139 11.389-.468 6.022 22.238 17.21 50.732 44.195 70.634zm-81.064-92.662-16.514-24.021c20.774 6.729 35.119 5.867 51.151 4.905 3.811-.229 7.751-.465 11.925-.607 9.443-.321 21.172 1.161 32.526 3.251-23.917 24.813-66.625 18.863-79.088 16.472zm111.287-29.752c-16.483-4.274-42.311-10.011-62.192-10.011-1.089 0-2.159.017-3.21.053-4.435.15-8.507.395-12.445.631-15.888.954-28.173 1.692-47.357-5.179 18.855-9.175 35.921-26.125 51.055-43.514 30.404 4.936 61.882 15.317 74.149 58.02zm-365.833 274.622 1.968-20.609c.291-3.05-.832-6.064-3.047-8.181-2.214-2.116-5.276-3.099-8.312-2.67-18.573 2.628-29.321-5.552-35.392-14.175 24.67-11.638 36.135-37.824 47.271-63.257 7.974-18.211 16.218-37.042 29.124-49.579 2.879-2.797 3.807-7.044 2.356-10.788-1.451-3.743-5-6.255-9.012-6.38l-20.385-.637c11.76-51.081 43.391-79.443 43.714-79.728 3.972-3.462 4.575-9.413 1.38-13.602-13.095-17.169-19.484-37.626-22.404-50.283l18.436 1.364c3.742.282 7.323-1.564 9.277-4.768 1.952-3.204 1.947-7.231-.013-10.43-15.511-25.307-17.218-54.953-16.041-74.881 7.669 6.783 16.897 11.96 26.551 14.578 3.231.877 6.688.077 9.205-2.128 2.52-2.206 3.767-5.526 3.324-8.845-4.048-30.359 9.216-48.568 21.359-58.606 1.262 12.35 5.933 23.315 13.87 32.331 14.635 16.623 38.65 24.787 69.441 23.599 55.853-2.148 87.642 18.442 94.518 61.219-20.027 23.127-43.326 45.475-66.792 44.311-3.773-.194-7.376 1.791-9.23 5.112s-1.664 7.406.491 10.541l6.624 9.634c-25.986 17.92-41.002 44.275-43.53 76.572-1.987 25.375 4.489 45.455 4.766 46.297.836 2.546 2.659 4.65 5.061 5.84 2.401 1.19 5.18 1.366 7.712.49l12.692-4.394c3.242 27.567 23.468 55.908 26.18 59.601 1.678 2.286 4.248 3.751 7.069 4.033 2.814.282 5.63-.648 7.727-2.559l13.423-12.23c21.234 31.102 60.1 45.218 87.834 51.535 5.103 20.852 14.504 39.298 21.928 51.674h-359.143z" fill="#052a75"/><g><path d="m331.049 153.832c-.856 0-1.727-.111-2.594-.343l-14.661-3.928c-5.335-1.429-8.501-6.913-7.071-12.247s6.91-8.501 12.247-7.071l14.661 3.928c5.335 1.429 8.501 6.913 7.071 12.247-1.197 4.467-5.238 7.414-9.653 7.414z" fill="#fdcb50"/></g><g><path d="m185.205 437.902c-.184 0-.367-.005-.552-.015-2.71-.15-5.242-1.395-7.017-3.449-9.115-10.555-14.162-25.363-14.211-41.697-.043-14.579 3.904-28.075 10.56-36.1 3.525-4.25 9.828-4.841 14.081-1.314 4.251 3.525 4.839 9.83 1.313 14.081-5.61 6.766-8.832 27.26-2.135 42.959l23.744-22.032c2.406-2.234 5.756-3.145 8.964-2.433 3.207.71 5.86 2.949 7.099 5.99.016.036 2.571 5.946 7.44 9.789l10.174-17.5c2.775-4.775 8.895-6.396 13.672-3.619 4.774 2.776 6.395 8.896 3.619 13.671l-14.678 25.247c-2.157 3.71-6.433 5.634-10.646 4.772-9.436-1.925-16.259-7.645-20.818-13.111l-23.809 22.092c-1.852 1.72-4.284 2.669-6.8 2.669z" fill="#fd8f01"/></g></g></g><g/><g/><g/><g/><g/><g/><g/><g/><g/><g/><g/><g/><g/><g/><g/></svg>