<svg id="Layer_1" enable-background="new 0 0 512 512" viewBox="0 0 512 512" xmlns="http://www.w3.org/2000/svg"><g><g clip-rule="evenodd" fill-rule="evenodd"><path d="m32.895 502c-8.806-26.131-6.459-54.318 8.807-77.806-8.285 3.75-24.289 4.789-31.702 4.79 0-29.561 8.526-51.241 40.672-62.152 7.813-22.045 21.342-37.517 49.286-42.07-11.37-6.561-22.993-20.983-25.781-27.148 30.237 3.229 68.689-40.831 109.75-31.545-.58-12.981 10.583-35.01 17.406-47.555h109.335c6.822 12.544 17.986 34.573 17.406 47.555 41.061-9.285 79.513 34.774 109.75 31.545-2.789 6.165-14.411 20.587-25.781 27.148 27.944 4.553 41.473 20.025 49.287 42.07 32.145 10.911 40.67 32.59 40.67 62.152-7.413 0-23.416-1.039-31.702-4.79 15.265 23.489 17.613 51.675 8.807 77.806z" fill="#d2dcfd"/><path d="m99.959 324.761c-11.37-6.561-22.993-20.983-25.781-27.148 30.237 3.229 68.689-40.831 109.75-31.545-.58-12.981 10.583-35.01 17.406-47.555h109.335c6.822 12.544 17.986 34.573 17.406 47.555 41.061-9.285 79.513 34.774 109.75 31.545-2.789 6.165-14.411 20.587-25.781 27.148h-4.971c-6.739 7.246-15.594 11.874-25.977 13.468-10.337 1.587-20.131-.149-28.705-4.99-6.652 8.854-15.345 16.084-26.855 20.54-24.583 9.516-48.743 9.188-69.533-.368-20.79 9.556-44.95 9.884-69.533.368-11.51-4.456-20.203-11.686-26.855-20.54-8.574 4.841-18.368 6.577-28.705 4.99-10.383-1.594-19.238-6.222-25.977-13.468z" fill="#93b2f4"/><path d="m101.364 174.083s8.535 14.559 24.6 15.563c0 0-33.636 18.576-34.641 53.719 0 0 28.115-4.518 42.172 1.004-4.268 14.057-3.012 35.645 4.267 49.2 10.543-10.292 31.355-20.724 46.165-22.481 3.251 18.628 8.338 36.485 18.851 40.554 21.211 8.211 39.661 4.016 53.222-16.568 13.561 20.584 32.011 24.779 53.222 16.568 10.513-4.069 15.6-21.926 18.851-40.554 14.81 1.757 35.622 12.189 46.165 22.481 7.28-13.556 8.535-35.143 4.267-49.2 14.057-5.522 42.172-1.004 42.172-1.004-1.004-35.143-34.641-53.719-34.641-53.719 16.065-1.004 24.6-15.563 24.6-15.563-54.253-37.812-19.893-96.661-38.155-164.083-17.069 5.607-48.196 30.038-55.727 43.091-12.802-8.284-40.923-16.065-60.754-16.065s-47.952 7.781-60.754 16.065c-7.53-13.053-38.657-37.485-55.727-43.091-18.262 67.422 16.098 126.271-38.155 164.083z" fill="#d2dcfd"/></g><g><g><g><path d="m211.54 460.352c-.184 0-.367-.005-.552-.015-2.71-.15-5.242-1.395-7.017-3.449-9.115-10.554-14.162-25.363-14.211-41.697-.043-14.579 3.904-28.074 10.56-36.1 3.524-4.25 9.828-4.84 14.081-1.313 4.251 3.525 4.839 9.83 1.313 14.081-5.611 6.766-8.832 27.26-2.135 42.958l23.743-22.032c2.406-2.234 5.757-3.142 8.964-2.434 3.206.71 5.859 2.949 7.099 5.99.016.036 2.571 5.947 7.44 9.789l10.176-17.5c2.775-4.774 8.896-6.395 13.671-3.619 4.774 2.776 6.395 8.897 3.618 13.671l-14.679 25.246c-2.156 3.709-6.438 5.633-10.644 4.771-9.436-1.925-16.259-7.645-20.818-13.111l-23.809 22.092c-1.852 1.722-4.283 2.672-6.8 2.672z" fill="#93b2f4"/></g><g><path d="m230.662 154.465c-.184 0-.367-.005-.552-.015-2.71-.15-5.242-1.395-7.017-3.449-19.143-22.164-14.662-57.586-3.298-71.289 3.524-4.25 9.828-4.84 14.081-1.313 4.251 3.525 4.839 9.83 1.313 14.081-4.749 5.726-7.516 22.741-2.323 36.296l20.31-18.845c2.406-2.234 5.756-3.143 8.964-2.434 3.206.71 5.859 2.949 7.099 5.991.008.017 1.954 4.382 5.51 7.626l8.542-14.69c2.775-4.774 8.894-6.395 13.671-3.619 4.774 2.776 6.395 8.897 3.619 13.671l-13.206 22.714c-2.156 3.708-6.435 5.632-10.646 4.771-8.374-1.709-14.474-6.506-18.658-11.289l-20.607 19.122c-1.854 1.722-4.285 2.671-6.802 2.671z" fill="#93b2f4"/></g><g><path d="m256 305.075c-5.522 0-10-4.477-10-10v-49.2c0-5.523 4.478-10 10-10s10 4.477 10 10v49.2c0 5.523-4.477 10-10 10z" fill="#93b2f4"/></g></g><path d="m469.057 359.014c-7.664-18.925-19.344-31.548-35.948-38.643 6.51-6.743 11.716-13.973 13.825-18.637 1.478-3.268 1.093-7.076-1.009-9.982-2.103-2.906-5.6-4.464-9.164-4.083-10.311 1.099-24.034-6.027-38.559-13.574-2.477-1.287-5.012-2.604-7.586-3.91.508-6.131.407-12.35-.343-18.203 9.23-.919 21.488.085 28.816 1.255 2.947.472 5.941-.392 8.181-2.355 2.24-1.965 3.487-4.826 3.402-7.804-.669-23.395-13.39-40.26-24.282-50.48 8.265-5.75 12.589-12.975 12.872-13.459 2.64-4.502 1.372-10.277-2.909-13.261-29.522-20.576-28.918-47.233-28.081-84.127.507-22.361 1.081-47.707-6.14-74.366-.718-2.648-2.491-4.886-4.907-6.188-2.414-1.302-5.259-1.554-7.865-.698-16.124 5.296-42.301 24.503-55.457 39.699-16.069-7.483-40.232-13.172-57.903-13.172s-41.833 5.689-57.903 13.172c-13.156-15.195-39.331-34.402-55.457-39.698-2.605-.857-5.449-.604-7.865.698s-4.189 3.54-4.907 6.188c-7.221 26.659-6.646 52.004-6.14 74.366.837 36.895 1.441 63.551-28.081 84.127-4.281 2.984-5.549 8.759-2.909 13.261.283.484 4.607 7.708 12.872 13.459-10.893 10.22-23.613 27.085-24.282 50.48-.085 2.976 1.163 5.835 3.4 7.799s5.239 2.833 8.177 2.36c7.333-1.169 19.593-2.173 28.822-1.256-.75 5.853-.85 12.071-.343 18.203-2.573 1.306-5.111 2.624-7.584 3.909-14.524 7.547-28.236 14.673-38.561 13.575-3.56-.382-7.062 1.177-9.164 4.083s-2.486 6.714-1.009 9.982c2.109 4.664 7.315 11.894 13.825 18.637-16.604 7.095-28.284 19.717-35.948 38.643-37.943 14.945-42.943 45.078-42.943 69.97 0 5.523 4.478 10 10 10 1.156 0 6.755-.038 13.605-.707-7.572 20.961-7.768 44.426-.188 66.917 1.371 4.067 5.185 6.806 9.477 6.806h446.211c4.292 0 8.105-2.739 9.477-6.806 7.58-22.491 7.385-45.956-.188-66.917 6.851.669 12.449.707 13.605.707 5.522 0 10-4.477 10-10 .001-24.892-4.999-55.025-42.942-69.97zm-365.834-127.02c6.512-21.524 27.356-33.471 27.575-33.594 3.892-2.149 5.897-6.609 4.923-10.947-.976-4.337-4.696-7.51-9.133-7.788-4.338-.271-7.944-2.167-10.675-4.285 29.354-25.865 28.604-59.085 27.81-94.083-.418-18.432-.849-37.386 2.808-57.063 15.454 8.784 35.234 25.5 40.054 33.854 1.37 2.374 3.653 4.082 6.318 4.724 2.664.644 5.476.164 7.776-1.326 10.549-6.826 36.449-14.461 55.321-14.461s44.772 7.635 55.321 14.461c2.301 1.489 5.113 1.968 7.776 1.326 2.664-.643 4.948-2.35 6.318-4.724 4.819-8.354 24.601-25.07 40.054-33.854 3.655 19.676 3.226 38.633 2.808 57.063-.794 35.006-1.547 68.233 27.831 94.101-2.721 2.109-6.326 3.994-10.696 4.267-4.424.276-8.121 3.441-9.109 7.762-.987 4.321 1.004 8.785 4.868 10.956.246.138 21.094 12.086 27.606 33.61-10.324-.723-24.275-.725-33.929 3.068-4.854 1.907-7.428 7.223-5.912 12.212 2.592 8.538 2.637 20.093.537 29.906-9.077-5.949-20.027-11.092-30.018-13.922.526-3.585 1.016-7.165 1.499-10.688 1.202-8.777 2.697-19.7 4.137-22.69 2.396-4.976.305-10.952-4.672-13.348s-10.953-.304-13.348 4.672c-2.677 5.559-3.937 14.077-5.932 28.653-1.6 11.682-3.412 24.921-6.479 35.679-3.946 13.848-7.924 16.345-9.05 16.781-17.808 6.894-30.891 2.892-41.159-12.591-.373-.59-.811-1.145-1.312-1.654-.809-.827-1.741-1.49-2.747-1.981h-.001c-.063-.031-.126-.061-.189-.09-.026-.012-.053-.024-.08-.037-.035-.016-.069-.031-.104-.046-.054-.024-.109-.047-.163-.07-.005-.002-.01-.004-.015-.006-1.2-.501-2.463-.752-3.718-.766-1.409-.019-2.832.26-4.173.856-.014.006-.027.012-.04.018-.047.021-.095.043-.142.065-.043.02-.085.04-.128.061-.019.009-.039.019-.058.028-.968.476-1.868 1.111-2.654 1.899-.529.528-.99 1.107-1.379 1.723-10.267 15.483-23.35 19.487-41.159 12.591-1.126-.436-5.104-2.933-9.05-16.781-3.066-10.757-4.879-23.997-6.479-35.679-1.995-14.576-3.255-23.094-5.932-28.653-2.396-4.976-8.373-7.067-13.348-4.672-4.977 2.396-7.068 8.372-4.672 13.348 1.439 2.99 2.935 13.914 4.137 22.69.482 3.522.972 7.103 1.499 10.688-10.014 2.834-20.944 7.958-30.02 13.913-2.098-9.812-2.052-21.363.539-29.897 1.516-4.989-1.059-10.306-5.912-12.212-9.655-3.792-23.604-3.79-33.928-3.067zm371.199 183.09c-4.043-1.829-8.813-.775-11.708 2.594s-3.22 8.242-.8 11.966c11.946 18.383 15.313 40.292 9.724 62.357h-88.241c-2.324-12.09-2.217-25.261.324-40.214.926-5.445-2.738-10.609-8.184-11.534-5.435-.92-10.608 2.739-11.533 8.184-2.694 15.858-2.997 30.17-.905 43.565h-214.198c2.091-13.395 1.789-27.707-.905-43.565-.925-5.444-6.084-9.107-11.533-8.184-5.445.925-9.109 6.089-8.184 11.534 2.541 14.953 2.648 28.125.324 40.214h-88.241c-5.59-22.065-2.223-43.974 9.725-62.357 2.42-3.724 2.095-8.597-.8-11.965-2.894-3.369-7.66-4.426-11.708-2.594-3.745 1.695-10.593 2.802-17.116 3.389 2.167-22.744 12.109-34.938 33.423-42.172 2.899-.984 5.188-3.242 6.212-6.128 7.589-21.413 19.991-32.042 41.47-35.542 4.173-.68 7.468-3.911 8.229-8.07s-1.177-8.348-4.839-10.461c-4.38-2.527-8.865-6.566-12.633-10.611 10.02-2.903 20.182-8.182 30.697-13.646.841-.437 1.689-.878 2.543-1.32.978 2.782 2.109 5.396 3.389 7.779 1.486 2.768 4.188 4.676 7.293 5.153.506.078 1.013.116 1.517.116 2.591 0 5.104-1.007 6.985-2.844 7.045-6.877 20.015-14.087 31.315-17.648 3.961 17.781 10.334 32.948 23.104 37.891 7.895 3.056 15.483 4.566 22.658 4.566 12.965 0 24.575-4.931 34.174-14.587 9.598 9.656 21.208 14.587 34.174 14.587 7.174 0 14.766-1.511 22.658-4.566 12.77-4.943 19.143-20.109 23.104-37.89 11.289 3.566 24.318 10.815 31.316 17.646 2.248 2.194 5.393 3.206 8.502 2.729 3.105-.477 5.807-2.385 7.293-5.153 1.28-2.383 2.411-4.997 3.389-7.779.854.443 1.703.884 2.546 1.321 10.515 5.463 20.675 10.743 30.693 13.645-3.767 4.046-8.252 8.084-12.632 10.611-3.662 2.113-5.6 6.302-4.839 10.461s4.056 7.391 8.229 8.07c21.479 3.5 33.881 14.129 41.47 35.542 1.023 2.886 3.312 5.145 6.212 6.128 21.313 7.234 31.256 19.428 33.423 42.172-6.524-.589-13.372-1.696-17.116-3.39z" fill="#052a75"/><g><g><g><path d="m304.271 194.018c-3.457 0-6.817-1.793-8.67-5.001-2.762-4.783-1.123-10.899 3.66-13.66l8.657-4.998c4.786-2.761 10.899-1.122 13.66 3.66 2.762 4.783 1.123 10.899-3.66 13.66l-8.657 4.998c-1.575.909-3.294 1.341-4.99 1.341z" fill="#6864f7"/></g><g><path d="m207.73 194.018c-1.696 0-3.415-.432-4.99-1.341l-8.657-4.998c-4.783-2.761-6.422-8.877-3.66-13.66 2.761-4.783 8.875-6.423 13.66-3.66l8.657 4.998c4.783 2.761 6.422 8.877 3.66 13.66-1.852 3.207-5.214 5.001-8.67 5.001z" fill="#6864f7"/></g></g></g></g><path clip-rule="evenodd" d="m256 218.263c-14.834 0-26.859 5.408-26.859 17.885s12.025 27.299 26.859 27.299 26.859-14.822 26.859-27.299-12.025-17.885-26.859-17.885z" fill="#6864f7" fill-rule="evenodd"/></g><g/><g/><g/><g/><g/><g/><g/><g/><g/><g/><g/><g/><g/><g/><g/></svg>