<svg id="Layer_1" enable-background="new 0 0 511.962 511.962" viewBox="0 0 511.962 511.962" xmlns="http://www.w3.org/2000/svg"><g><g clip-rule="evenodd" fill-rule="evenodd"><path d="m260.27 136.224 98.116-124.807c5.725-7.303 16.288-8.582 23.592-2.856 6.101 4.783 7.996 12.942 5.117 19.756l-61.175 152.737z" fill="#fdcb50"/><path d="m336.385 365.592c81.911-21.948 79.296 47.576 118.936 34.444 53.843-17.837 55.225-63.258 33.637-99.405s-37.464-20.816-56.769-40.37l-87.55-102.41c-2.158-2.524-4.374-4.827-6.653-6.923-13.08-12.025-28.228-17.199-46.331-17.979 0 0-4.401-10.06-10.959-22.708-11.464-22.11-29.521-52.128-42.186-50.127-16.591 2.62-28.215 54.592-29.325 85.197-90.493-7.014-132.79 144.618-199.185 216.927v134.743h292.327c0-50.534-49.482-65.652-41.841-133.014v-3.757c18.333 10.355 43.971 13.937 75.899 5.382z" fill="#fff"/><path d="m108.567 212.172c-33.479 47.969-62.461 110.744-98.567 150.066v134.743h292.327c0-25.934-13.032-42.541-24.687-61.667-95.086-31.173-164.622-118.724-169.073-223.142z" fill="#d2dcfd"/><path d="m209.186 145.311c.59-16.264 4.149-38.561 9.845-56.281-9.058-4.003-19.187-5.825-29.349-5.181-21.931 1.388-44.016 14.25-55.829 41.401-41.01-.429-70.467 41.277-57.155 82.717-33.107 7.886-58.325 48.686-43.801 97.51h-22.897v56.761c45.251 26.397 102.383-2.473 104.099-51.157l.083-3.986c1.677.14 3.428.174 5.252.09 38.983-1.797 43.131-54.421 24.53-85.317l3.22-2.507c21.286-12.613 31.52-32.767 32.057-57.893 9.538-6.295 19.522-11.709 29.945-16.157z" fill="#bc9af4"/><path d="m119.895 126.79c-33.396 7.86-54.943 44.619-43.198 81.177-33.107 7.886-58.325 48.686-43.801 97.51h-22.896v56.761c45.251 26.397 102.383-2.473 104.099-51.157l.083-3.986c1.677.14 3.428.174 5.252.09 4.281-.197 8.141-1.008 11.597-2.335-14.564-31.42-22.708-66.422-22.708-103.33 0-26.057 4.065-51.162 11.572-74.73z" fill="#6864f7"/></g><g><path d="m497.543 295.504c-14.831-24.833-28.833-29.076-40.084-32.485-6.683-2.025-11.98-3.631-17.915-9.543l-87.304-102.123c-14.325-16.756-31.581-25.733-53.939-27.956-3.31-7.128-9.584-20.111-17.104-33.065-17.314-29.828-30.958-42.203-44.247-40.096-10.515 1.661-18.305 12.312-23.987 26.065-7.734-2.1-15.914-2.939-23.914-2.433-26.174 1.657-48.802 17.071-61.611 41.619-19.66 1.646-37.472 11.66-49.592 28.103-12.16 16.496-16.799 37.515-13.088 57.801-13.922 5.848-26.129 16.785-34.382 31.069-10.615 18.374-14.075 40.364-10.103 63.016h-10.273c-5.523 0-10 4.477-10 10v191.504c0 5.523 4.477 10 10 10h292.327c5.523 0 10-4.477 10-10 0-25.307-10.903-42.603-21.448-59.33-11.201-17.768-21.845-34.655-21.168-62.418 19.98 6.81 43.855 6.827 69.262.018 42.345-11.347 57.785 3.556 72.716 17.967 9.109 8.792 19.18 18.513 34.028 18.513 3.897 0 8.124-.67 12.748-2.202 31.634-10.479 44.385-29.101 49.512-42.877 7.821-21.016 4.019-46.948-10.434-71.147zm-477.543 19.972h12.896c3.157 0 6.128-1.491 8.016-4.021 1.887-2.531 2.469-5.804 1.569-8.83-6.476-21.768-4.624-43.133 5.213-60.16 7.371-12.757 18.787-21.786 31.321-24.771 2.71-.646 5.028-2.393 6.395-4.819 1.368-2.427 1.661-5.315.809-7.967-5.541-17.248-2.725-35.272 7.727-49.451 9.483-12.865 23.779-20.211 39.289-20.211.171 0 .343.001.515.003 4.005.036 7.671-2.326 9.274-6.01 9.216-21.185 26.453-34.091 47.29-35.411 5.496-.346 11.097.176 16.427 1.516-4.175 16.081-6.325 32.781-7.164 43.306-3.794 1.768-7.556 3.67-11.27 5.699-.012-.095-.023-.191-.035-.286-.689-5.479-5.689-9.36-11.17-8.674-5.479.689-9.363 5.69-8.674 11.17 3.513 27.926-3.919 48.57-22.098 61.449-3.851-4.59-8.303-8.544-13.351-11.601-4.723-2.859-10.872-1.351-13.734 3.373-2.861 4.724-1.351 10.873 3.373 13.734 16.406 9.936 26.133 39.469 20.407 61.96-3.522 13.839-11.614 21.146-24.05 21.72-15.14.687-21.887-9.042-23.07-17.594-.676-4.885.442-11.335 5.816-13.436 5.144-2.011 7.684-7.811 5.673-12.955-2.011-5.145-7.812-7.684-12.955-5.673-13.143 5.138-20.516 19.124-18.347 34.804 1.891 13.672 11.18 27.816 27.659 32.912-2.022 16.58-11.873 30.773-27.54 39.408-17.488 9.639-38.123 10.124-56.211 1.554zm469.233 44.2c-5.236 14.071-17.704 24.457-37.057 30.868-10.353 3.429-15.335-.846-26.597-11.716-16.253-15.687-38.512-37.169-91.783-22.895-50.173 13.443-79.731-5.478-90.663-27.669-9.761-19.815-7.688-48.942 18.947-69.343 4.384-3.358 5.216-9.635 1.858-14.02s-9.635-5.216-14.02-1.858c-15.455 11.838-25.863 27.364-30.098 44.899-3.998 16.554-2.09 34.013 5.372 49.161 5.646 11.461 14.286 21.215 25.07 28.507-3.682 39.273 10.845 62.319 23.697 82.708 8.083 12.822 15.261 24.21 17.583 38.665h-271.542v-109.187c8.697 3.01 17.712 4.518 26.712 4.517 13.458-.001 26.884-3.373 39.153-10.135 21.385-11.787 35.232-32.192 37.828-55.318 19.357-2.321 33.36-15.421 38.713-36.451 4.214-16.557 2.282-37.644-5.582-55.334 19.465-13.276 30.368-33.016 32.178-57.986 7.794-4.847 15.893-9.074 24.109-12.581 3.563-1.521 5.927-4.963 6.068-8.835.54-14.879 3.566-33.547 7.898-48.718 5.387-18.866 10.865-25.566 12.833-26.827 1.728.707 9.828 5.293 25.357 32.626 9.706 17.084 17.152 34.035 17.227 34.204 1.53 3.496 4.917 5.817 8.73 5.982 19.754.852 33.884 7.455 45.813 21.409l87.549 102.41c.155.182.317.357.485.528 9.602 9.725 18.625 12.459 26.586 14.872 9.973 3.022 17.85 5.41 28.714 23.6 11.327 18.964 14.557 38.615 8.862 53.917z" fill="#052a75"/><g><path d="m442.872 326.392c-2.363 0-4.735-.833-6.64-2.526-.796-.708-2.826-1.382-5.921-.957-5.47.755-10.518-3.068-11.272-8.54-.754-5.471 3.069-10.518 8.54-11.272 8.47-1.168 16.466.954 21.941 5.821 4.128 3.669 4.5 9.99.831 14.118-1.977 2.223-4.723 3.356-7.479 3.356z" fill="#93b2f4"/></g><g><path d="m350.994 266.514c-.857 0-1.728-.111-2.595-.343l-21.952-5.882c-5.334-1.429-8.5-6.913-7.071-12.248 1.43-5.334 6.911-8.502 12.248-7.071l21.952 5.882c5.334 1.429 8.5 6.913 7.071 12.248-1.198 4.467-5.238 7.414-9.653 7.414z" fill="#6864f7"/></g></g></g><g/><g/><g/><g/><g/><g/><g/><g/><g/><g/><g/><g/><g/><g/><g/></svg>