<svg id="Layer_1" enable-background="new 0 0 512 512" viewBox="0 0 512 512" xmlns="http://www.w3.org/2000/svg"><g><g clip-rule="evenodd" fill-rule="evenodd"><path d="m256 83.041c20.115 0 36.52-16.406 36.52-36.521.001-20.114-16.405-36.52-36.52-36.52-20.114 0-36.52 16.406-36.52 36.52 0 20.115 16.406 36.521 36.52 36.521z" fill="#d2dcfd"/><path d="m208.902 271.512-10.29 42.765c-26.02 1.791-63.56 25.706-75.893 42.843-51.726.865-77.575 49.85-64.772 93.284-6.271 15.762-12.804 29.433-12.804 51.596h421.714c0-22.163-6.533-35.834-12.804-51.595 12.803-43.434-13.047-92.419-64.772-93.284-12.332-17.137-49.873-41.052-75.893-42.843l-10.08-42.139z" fill="#bc9af4"/><path d="m208.902 271.512-10.29 42.765c-13.724.945-30.651 8.045-45.396 17.058 8.156 34.335 34.424 57.231 67.956 72.652 5.941 2.732 11.98 5.223 18.05 7.65 11.193 4.477 22.364 4.477 33.558 0 26.01-10.403 50.922-22.249 68.706-44.951 8.393-10.714 14.118-22.649 17.211-35.405-14.724-8.988-31.612-16.062-45.308-17.005l-10.08-42.139z" fill="#6864f7"/><path d="m256 321.266c-39.112 0-76.679-26.403-86.85-73.606-28.994-21.316-36.344-67.554-10.218-79.163-6.959-56.531 30.177-108.292 97.068-108.292s104.027 51.761 97.067 108.292c26.126 11.609 18.776 57.847-10.217 79.163-10.171 47.203-47.738 73.606-86.85 73.606z" fill="#bc9af4"/><path d="m245.959 245.201c-27.611 0-50.204 22.592-50.204 50.204v12.551c0 36.14 31.946 50.412 60.245 61.73 28.299-11.318 60.245-25.59 60.245-61.73v-12.551c0-27.612-22.592-50.204-50.204-50.204z" fill="#d2dcfd"/><g fill="#fdcb50"><path d="m55.925 455.425c-5.577 13.777-10.782 26.793-10.782 46.575h97.708l-2.196-3.804c-6.816-11.532-9.184-25.28-9.184-37.162v-5.608h-75.546z"/><path d="m380.529 461.034c0 11.882-2.368 25.631-9.184 37.162l-2.195 3.804h97.708c0-19.782-5.205-32.799-10.782-46.575h-75.546v5.609z"/></g></g><g><g><g><path d="m256 506.98c-5.523 0-10-4.477-10-10v-47.72c0-5.523 4.477-10 10-10s10 4.477 10 10v47.72c0 5.523-4.477 10-10 10z" fill="#6864f7"/></g><g><path d="m256 179.412c-12.436 0-19.535-3.908-25.239-7.049-4.818-2.653-8.299-4.569-15.594-4.569-5.523 0-10-4.477-10-10s4.477-10 10-10c12.437 0 19.536 3.909 25.24 7.049 4.818 2.652 8.298 4.569 15.593 4.569s10.776-1.917 15.594-4.569c5.704-3.14 12.804-7.049 25.24-7.049 5.522 0 10 4.477 10 10s-4.478 10-10 10c-7.295 0-10.776 1.917-15.594 4.569-5.704 3.14-12.804 7.049-25.24 7.049z" fill="#6864f7"/></g><g><path d="m256 132.723c-12.437 0-19.537-3.909-25.241-7.049-.859-.474-1.718-.947-2.601-1.406-4.901-2.546-6.811-8.583-4.265-13.484 2.545-4.901 8.582-6.81 13.483-4.265 1.027.534 2.028 1.084 3.028 1.634 4.819 2.653 8.3 4.57 15.595 4.57 7.294 0 10.775-1.917 15.594-4.569 1.001-.551 2.003-1.102 3.031-1.635 4.902-2.547 10.937-.635 13.483 4.266 2.545 4.901.635 10.938-4.267 13.483-.883.459-1.743.934-2.604 1.407-5.702 3.139-12.801 7.048-25.236 7.048z" fill="#6864f7"/></g><g><path d="m256 304.656c-7.342 0-14.583-1.94-20.94-5.611-4.783-2.762-6.421-8.878-3.66-13.661 2.762-4.783 8.877-6.42 13.661-3.66 3.321 1.917 7.104 2.931 10.939 2.931 3.836 0 7.619-1.014 10.94-2.931 4.783-2.761 10.899-1.123 13.66 3.66 2.762 4.783 1.123 10.898-3.66 13.66-6.357 3.671-13.598 5.612-20.94 5.612z" fill="#93b2f4"/></g><g><path d="m296.038 220.795c-5.522 0-10-4.477-10-10v-9.997c0-5.523 4.478-10 10-10s10 4.477 10 10v9.997c0 5.523-4.478 10-10 10z" fill="#6864f7"/></g><g><path d="m215.962 220.795c-5.523 0-10-4.477-10-10v-9.997c0-5.523 4.477-10 10-10s10 4.477 10 10v9.997c0 5.523-4.477 10-10 10z" fill="#6864f7"/></g></g><path d="m465.205 451.327c-.207-.509-.413-1.02-.62-1.531 6.329-25.097 1.484-51.646-13.229-71.668-13.465-18.325-33.601-29.145-57.085-30.796-13.597-15.802-42.281-34.763-68.026-41.055v-5.271c12.213-12.903 20.983-29.262 25.546-47.641 18.4-15.185 29.418-40.179 27.043-62.104-1.325-12.231-6.648-21.997-15.211-28.18 1.966-29.399-7.129-57.631-25.418-78.311-10.155-11.482-22.827-20.307-37.279-26.165 1.059-3.93 1.594-7.976 1.594-12.083 0-25.653-20.869-46.522-46.52-46.522s-46.521 20.869-46.521 46.521c0 4.113.535 8.157 1.594 12.084-14.452 5.858-27.123 14.683-37.279 26.165-18.289 20.679-27.383 48.912-25.417 78.31-8.562 6.184-13.886 15.949-15.21 28.18-2.375 21.925 8.642 46.92 27.042 62.104 4.564 18.383 13.332 34.734 25.546 47.64v5.278c-25.169 6.21-54.315 25.192-68.018 41.049-23.486 1.649-43.627 12.47-57.093 30.795-14.712 20.023-19.558 46.572-13.229 71.669-.208.513-.415 1.024-.621 1.534-5.728 14.147-11.651 28.776-11.651 50.67 0 5.523 4.477 10 10 10h421.714c5.522 0 10-4.477 10-10 0-21.894-5.924-36.524-11.652-50.672zm-235.725-404.806c0-14.624 11.897-26.521 26.52-26.521s26.52 11.897 26.52 26.521c0 2.132-.253 4.234-.753 6.283-8.226-1.718-16.849-2.599-25.767-2.599s-17.541.881-25.767 2.599c-.5-2.048-.753-4.15-.753-6.283zm-54.406 193.082c-16.434-12.082-23.519-32.381-22.023-46.189.589-5.444 2.793-12.602 9.943-15.779 4.021-1.787 6.402-5.993 5.864-10.36-3.21-26.071 4.05-51.313 19.918-69.255 16.094-18.197 39.339-27.815 67.224-27.815 27.884 0 51.13 9.618 67.223 27.814 15.868 17.942 23.129 43.185 19.919 69.255-.538 4.368 1.843 8.574 5.864 10.36 7.149 3.177 9.354 10.334 9.943 15.779 1.495 13.808-5.589 34.107-22.023 46.189-1.968 1.447-3.338 3.563-3.853 5.951-2.193 10.177-5.903 19.617-10.943 27.973-8.772-22.411-30.608-38.325-56.09-38.325h-20.082c-25.483 0-47.318 15.914-56.09 38.326-5.041-8.355-8.749-17.794-10.943-27.974-.513-2.387-1.883-4.504-3.851-5.95zm131.171 55.802v12.551c0 27.337-22.415 39.587-50.245 50.946-27.83-11.359-50.245-23.609-50.245-50.946v-12.551c0-22.168 18.036-40.204 40.204-40.204h20.082c22.169 0 40.204 18.035 40.204 40.204zm79.051 196.595c4.202-11.356 5.233-22.634 5.233-30.967v-15.649c0-5.523-4.478-10-10-10s-10 4.477-10 10v15.649c0 11.66-2.536 22.595-7.16 30.967h-214.737c-4.625-8.371-7.161-19.307-7.161-30.967v-15.649c0-5.523-4.477-10-10-10s-10 4.477-10 10v15.649c0 8.333 1.032 19.611 5.233 30.967h-71.037c1.374-12.684 5.28-22.332 9.666-33.165.633-1.564 1.271-3.139 1.906-4.734.828-2.08.934-4.377.3-6.524-5.935-20.135-2.487-41.671 9.223-57.608 10.592-14.415 26.973-22.529 46.125-22.85 3.157-.053 6.104-1.594 7.949-4.157 9.127-12.683 35.548-30.612 57.57-36.709 9.55 30.989 42.757 44.269 63.882 52.718 1.192.477 2.453.715 3.713.715s2.521-.238 3.713-.715c21.124-8.448 54.329-21.729 63.88-52.715 22.001 6.112 48.519 24.128 57.57 36.706 1.845 2.563 4.792 4.105 7.95 4.158 19.152.32 35.533 8.436 46.125 22.85 11.711 15.937 15.158 37.472 9.223 57.607-.633 2.147-.527 4.445.3 6.524.635 1.595 1.272 3.168 1.905 4.731 4.386 10.833 8.293 20.482 9.667 33.167h-71.038z" fill="#052a75"/></g></g><g/><g/><g/><g/><g/><g/><g/><g/><g/><g/><g/><g/><g/><g/><g/></svg>