<svg id="Layer_1" enable-background="new 0 0 512 512" viewBox="0 0 512 512" xmlns="http://www.w3.org/2000/svg"><g><g clip-rule="evenodd" fill-rule="evenodd"><path d="m502 401.592v100.408h-492v-100.408c23.774 0 25.426-12.049 49.2-12.049s25.426 12.049 49.2 12.049 25.426-12.049 49.2-12.049 25.426 12.049 49.2 12.049 25.426-12.049 49.2-12.049 25.426 12.049 49.2 12.049 25.426-12.049 49.2-12.049 25.426 12.049 49.2 12.049 25.426-12.049 49.2-12.049 25.426 12.049 49.2 12.049z" fill="#67ccd1"/><path d="m10 451.796v50.204h492v-50.204c-23.774 0-25.426-12.049-49.2-12.049s-25.426 12.049-49.2 12.049-25.426-12.049-49.2-12.049-25.425 12.049-49.199 12.049-25.426-12.049-49.2-12.049-25.426 12.049-49.2 12.049-25.426-12.049-49.2-12.049-25.426 12.049-49.2 12.049-25.426-12.049-49.2-12.049c-23.774 0-25.426 12.049-49.201 12.049z" fill="#27a2cc"/><path d="m157.6 439.747c23.774 0 25.426 12.049 49.2 12.049s25.426-12.049 49.2-12.049 25.426 12.049 49.2 12.049 25.426-12.049 49.2-12.049 25.426 12.049 49.2 12.049c3.569 0 6.639-.272 9.361-.733 112.368-204.671 27.411-441.063-111.383-441.063-78.021 0-83.31 66.278-62.466 87.122 18.89 18.89 56.884 9.786 80.117-24.618 0 0 101.332 29.369 69.202 218.136-31.791 186.775-234.552-88.132-308.894 153.172 8.086 3.498 14.355 7.984 28.863 7.984 23.774 0 25.426-12.049 49.2-12.049z" fill="#bc9af4"/><path d="m229.096 396.649c-3.737-11.629-5.755-24.029-5.755-36.9 0-6.224.472-12.338 1.382-18.308-47.221-8.289-94.674-4.456-127.817 59.003-6.349 12.156-12.172 26.501-17.369 43.367 8.086 3.498 14.355 7.984 28.863 7.984 23.774 0 25.426-12.049 49.2-12.049s25.426 12.049 49.2 12.049c23.005 0 25.296-11.282 46.961-12.012-10.995-12.364-19.483-27.008-24.665-43.134z" fill="#6864f7"/></g><g><path d="m502 391.591c-9.638 0-14.351-2.233-20.318-5.061-6.607-3.131-14.058-6.661-27.052-6.966 13.332-41.412 20.25-84.377 20.291-127.084.059-62.516-14.914-122.06-42.161-167.664-15.694-26.269-34.709-46.981-56.515-61.562-23.077-15.43-48.199-23.254-74.668-23.254-38.257 0-66.699 15.694-78.033 43.058-8.934 21.567-5.36 47.278 8.496 61.136 9.361 9.36 22.573 13.742 37.187 12.338 19.377-1.86 38.865-13.562 53.388-31.758 8.16 4.115 22.949 13.629 35.9 32.967 17.897 26.723 35.904 78.12 20.058 171.222-4.755 27.939-13.519 45.747-26.789 54.442-20.166 13.211-52.015 5.342-85.734-2.989-33.58-8.297-71.641-17.699-106.504-8.123-27.702 7.61-49.993 26.1-67.409 56.099-1.348-.58-2.68-1.21-4.051-1.86-6.912-3.275-14.747-6.988-28.885-6.988-14.136 0-21.97 3.712-28.882 6.987-5.967 2.828-10.681 5.061-20.318 5.061-5.522 0-10 4.477-10 10v100.408c0 5.523 4.478 10 10 10h492c5.522 0 10-4.477 10-10v-100.409c-.001-5.523-4.478-10-10.001-10zm-337.157-40.013c29.836-8.198 63.678.166 96.409 8.253 38.072 9.406 74.034 18.293 101.491.303 18.179-11.91 29.806-34.093 35.546-67.815 7.518-44.169 8.44-83.559 2.742-117.074-4.653-27.367-13.71-50.963-26.918-70.133-23.076-33.492-50.926-41.872-52.1-42.212-4.17-1.208-8.642.411-11.071 4.008-11.542 17.092-27.851 28.2-43.626 29.715-6.058.581-14.646-.085-21.133-6.572-7.11-7.111-10.611-23.77-4.161-39.34 8.203-19.804 29.353-30.711 59.555-30.711 44.599 0 85.089 26.662 114.014 75.074 46.346 77.57 61.443 214.68-8.942 346.641-.961.053-1.974.081-3.049.081-9.637 0-14.351-2.233-20.317-5.061-6.912-3.275-14.746-6.988-28.883-6.988s-21.97 3.712-28.882 6.988c-5.967 2.828-10.681 5.061-20.317 5.061-9.638 0-14.351-2.233-20.317-5.061-6.912-3.275-14.746-6.988-28.883-6.988-14.136 0-21.97 3.712-28.882 6.988-5.967 2.828-10.681 5.061-20.318 5.061s-14.351-2.233-20.317-5.061c-6.912-3.275-14.745-6.988-28.882-6.988s-21.971 3.712-28.883 6.988c-5.967 2.828-10.681 5.061-20.317 5.061-7.588 0-12.124-1.385-16.622-3.354 16.753-49.534 40.683-77.969 73.063-86.864zm327.157 140.422h-472v-81.112c8.22-1.231 13.8-3.876 18.883-6.284 5.967-2.828 10.681-5.061 20.317-5.061 9.639 0 14.353 2.234 20.32 5.062 1.094.518 2.241 1.062 3.454 1.606-3.525 7.73-6.807 16.051-9.852 24.97-3.901-.875-8.437-1.434-13.922-1.434-5.522 0-10 4.477-10 10s4.478 10 10 10c9.638 0 14.351 2.233 20.317 5.061 6.912 3.275 14.746 6.988 28.883 6.988 14.136 0 21.97-3.712 28.882-6.988 5.967-2.828 10.681-5.061 20.318-5.061s14.351 2.233 20.317 5.061c6.912 3.275 14.745 6.988 28.882 6.988s21.971-3.712 28.883-6.988c5.967-2.828 10.681-5.061 20.317-5.061 9.638 0 14.351 2.233 20.317 5.061 6.912 3.275 14.746 6.988 28.883 6.988s21.97-3.712 28.882-6.988c5.967-2.828 10.681-5.061 20.317-5.061 9.638 0 14.352 2.233 20.318 5.061 6.912 3.275 14.746 6.988 28.882 6.988 14.137 0 21.971-3.712 28.883-6.988 5.967-2.828 10.681-5.061 20.317-5.061 5.522 0 10-4.477 10-10s-4.478-10-10-10c-8.157 0-14.215 1.236-19.209 2.911 5.117-10.792 9.776-21.756 13.966-32.857 1.642-.173 3.374-.258 5.243-.258 9.638 0 14.351 2.233 20.318 5.061 5.082 2.408 10.662 5.053 18.882 6.284v81.112z" fill="#052a75"/><g><path d="m281.613 61.542c-5.522 0-10.004-4.477-10.004-10s4.475-10 9.997-10h.007c5.522 0 10 4.477 10 10s-4.478 10-10 10z" fill="#fff"/></g></g></g><g/><g/><g/><g/><g/><g/><g/><g/><g/><g/><g/><g/><g/><g/><g/></svg>