<svg id="Layer_1" enable-background="new 0 0 512 512" viewBox="0 0 512 512" xmlns="http://www.w3.org/2000/svg"><g><g clip-rule="evenodd" fill-rule="evenodd"><path d="m11.685 185.639c52.079-7.29 106.833 9.082 146.883 49.131 40.049 40.049 56.421 94.804 49.131 146.883-52.079 7.291-106.834-9.081-146.883-49.131-40.049-40.049-56.422-94.804-49.131-146.883z" fill="#d2dcfd"/><path d="m500.315 185.639c-52.079-7.29-106.834 9.082-146.883 49.131s-56.421 94.804-49.131 146.883c52.079 7.291 106.834-9.081 146.883-49.131 40.049-40.049 56.422-94.804 49.131-146.883z" fill="#d2dcfd"/><path d="m256 350.844h-115.674c0-71.29 30.645-86.676 30.645-157.966 0-23.215-20.604-42.088-20.604-90.404 0-51.072 36.381-92.474 87.453-92.474 6.223 0 12.302.619 18.18 1.792 5.878-1.173 11.957-1.792 18.18-1.792 51.072 0 87.453 41.402 87.453 92.474 0 48.317-20.604 67.19-20.604 90.404 0 71.29 30.645 86.676 30.645 157.966z" fill="#b1d952"/><path d="m288.365 263.549 2.719 52.693c28.911 9.766 57.822 19.533 86.733 29.299 31.592 10.672 53.898 36.527 53.898 74.14v82.319h-351.43v-82.32c0-37.613 22.306-63.467 53.898-74.14 28.911-9.767 57.821-19.533 86.732-29.299l2.719-52.693z" fill="#d46b5c"/><path d="m288.365 263.549 2.556 49.544c-11.092 3.236-22.81 4.978-34.921 4.978-12.112 0-23.83-1.742-34.922-4.978l2.556-49.544z" fill="#b55348"/><path d="m372.925 444.265c-18.12-15.482-66.427-32.727-116.925 13.376-50.499-46.103-98.805-28.859-116.926-13.376 0 0-13.857 35.473-1.004 57.735h235.859c12.854-22.262-1.004-57.735-1.004-57.735z" fill="#fdcb50"/><path d="m175.991 143.846h59.792l20.217-43.478 20.217 43.478h59.792v49.033c0 44.002-36.004 80.009-80.009 80.009s-80.009-36.004-80.009-80.009z" fill="#d46b5c"/><path d="m256 100.368-20.217 43.478h-59.792v45h160.018v-45h-59.792z" fill="#b55348"/></g><g><g><path d="m256 110.367c-5.523 0-10-4.477-10-10v-37.379c0-5.523 4.477-10 10-10s10 4.477 10 10v37.379c0 5.523-4.477 10-10 10z" fill="#91b706"/></g><g fill="#93b2f4"><path d="m114.737 274.549v-24.325c0-5.523-4.477-10-10-10s-10 4.477-10 10v4.326l-14.374-14.374c-3.904-3.905-10.237-3.904-14.142 0-3.905 3.905-3.905 10.237 0 14.143l14.373 14.373h-4.325c-5.523 0-10 4.477-10 10s4.477 10 10 10h24.325l32.377 32.377c1.953 1.953 4.512 2.929 7.071 2.929s5.119-.977 7.071-2.929c3.905-3.905 3.905-10.237 0-14.143z"/><path d="m445.78 240.175c-3.905-3.904-10.236-3.904-14.143 0l-14.374 14.374v-4.326c0-5.523-4.477-10-10-10s-10 4.477-10 10v24.326l-32.376 32.376c-3.905 3.905-3.906 10.237 0 14.143 1.953 1.953 4.512 2.929 7.071 2.929s5.119-.977 7.071-2.929l32.377-32.377h24.325c5.523 0 10-4.477 10-10s-4.477-10-10-10h-4.324l14.373-14.373c3.904-3.905 3.905-10.237 0-14.143z"/></g><path d="m510.219 184.253c-.619-4.422-4.095-7.898-8.517-8.517-27.544-3.857-56.047-1.364-82.429 7.206-24.786 8.052-47.053 20.974-66.311 38.466-1.217-8.459-1.932-17.813-1.932-28.53 0-7.607 3.018-15.276 6.837-24.985 6.133-15.587 13.766-34.986 13.766-65.419 0-27.56-9.672-53.193-27.233-72.179-18.071-19.536-43.009-30.295-70.22-30.295-6.092 0-12.198.543-18.18 1.614-5.982-1.071-12.088-1.614-18.18-1.614-27.211 0-52.149 10.759-70.219 30.294-17.562 18.986-27.234 44.62-27.234 72.179 0 30.433 7.633 49.833 13.766 65.419 3.82 9.709 6.838 17.378 6.838 24.985 0 10.717-.715 20.071-1.932 28.53-19.258-17.492-41.525-30.414-66.312-38.466-26.381-8.569-54.886-11.061-82.428-7.206-4.422.619-7.898 4.095-8.517 8.517-3.856 27.544-1.364 56.047 7.206 82.428 8.989 27.671 24.048 52.202 44.757 72.912 10.241 10.241 21.581 19.197 33.805 26.708-11.167 14.631-17.264 32.895-17.264 53.379v82.321c0 5.523 4.477 10 10 10h351.428c5.523 0 10-4.477 10-10v-82.319c0-20.484-6.097-38.749-17.264-53.38 12.225-7.512 23.569-16.47 33.805-26.707 20.71-20.71 35.769-45.241 44.757-72.912 8.571-26.381 11.062-54.885 7.207-82.429zm-345.141 90.946c4.304-12.177 8.688-24.582 11.759-39.514 8.333 15.348 20.999 28.016 36.346 36.351l-1.904 36.906-59.864 20.222c2.281-21.763 7.832-37.467 13.663-53.965zm20.913-82.321v-39.033h49.792c3.89 0 7.427-2.256 9.067-5.784l11.15-23.977 11.15 23.978c1.64 3.528 5.177 5.784 9.067 5.784h49.792v39.033c0 38.603-31.406 70.009-70.009 70.009s-70.009-31.407-70.009-70.01zm149.172 42.807c3.07 14.932 7.455 27.337 11.758 39.513 5.832 16.498 11.383 32.203 13.663 53.967l-59.864-20.222-1.904-36.906c15.347-8.336 28.014-21.004 36.347-36.352zm-174.797-133.211c0-47.018 33.298-82.474 77.454-82.474 5.448 0 10.906.538 16.224 1.598 1.291.257 2.62.257 3.912 0 5.318-1.06 10.777-1.598 16.224-1.598 44.155 0 77.453 35.456 77.453 82.474 0 16.39-2.489 29.022-5.756 39.75-.775-4.752-4.898-8.379-9.868-8.379h-53.414l-17.528-37.694c-1.64-3.528-5.177-5.784-9.067-5.784s-7.427 2.256-9.067 5.784l-17.528 37.694h-53.413c-4.971 0-9.094 3.627-9.869 8.379-3.267-10.728-5.757-23.36-5.757-39.75zm-139.669 92.177c48.695-4.575 96.002 12.393 130.799 47.189.879.879 1.753 1.774 2.613 2.673-2.346 8.342-5.088 16.1-7.887 24.02-6.717 19.002-13.656 38.636-15.449 67.605-10.926 3.716-20.581 8.957-28.79 15.481-12.41-7.146-23.865-15.936-34.096-26.168-34.799-34.798-51.767-82.102-47.19-130.8zm126.835 255.638c17.249-13.106 57.943-25.234 101.725 14.738 3.818 3.486 9.666 3.486 13.484 0 43.782-39.972 84.475-27.845 101.725-14.739 3.002 8.927 7.493 28.022 3.009 41.712h-222.95c-4.485-13.694.006-32.79 3.007-41.711zm274.182 41.711h-33.615c4.736-23.783-5.368-50.116-5.859-51.374-.599-1.533-1.567-2.895-2.818-3.964-13.239-11.312-32.896-18.34-52.583-18.801-17.328-.39-43.155 4.073-70.839 26.58-27.683-22.507-53.516-26.981-70.838-26.58-19.687.461-39.344 7.489-52.583 18.801-1.251 1.069-2.22 2.431-2.818 3.964-.493 1.261-10.594 27.589-5.859 51.374h-33.616v-72.319c0-30.984 17.167-54.554 47.098-64.666l86.732-29.299c3.885-1.312 6.575-4.864 6.787-8.959l1.904-36.899c7.402 1.976 15.177 3.029 23.193 3.029s15.791-1.054 23.193-3.029l1.904 36.899c.211 4.095 2.901 7.646 6.787 8.959l86.732 29.299c29.932 10.112 47.099 33.682 47.099 64.666v72.319zm22.399-166.548c-10.227 10.227-21.686 19.02-34.096 26.167-8.208-6.524-17.864-11.765-28.789-15.481-1.792-28.97-8.732-48.602-15.449-67.605-2.799-7.92-5.541-15.677-7.887-24.02.857-.896 1.731-1.79 2.612-2.671 34.798-34.798 82.103-51.77 130.8-47.19 4.576 48.697-12.393 96.001-47.191 130.8z" fill="#052a75"/><g><g><path d="m431.687 90.286h-10.014c-5.523 0-10-4.477-10-10s4.477-10 10-10h10.014c5.523 0 10 4.477 10 10s-4.477 10-10 10z" fill="#fdcb50"/></g><g><path d="m502 90.286h-10.014c-5.523 0-10-4.477-10-10s4.477-10 10-10h10.014c5.523 0 10 4.477 10 10s-4.477 10-10 10z" fill="#fdcb50"/></g><g><path d="m461.836 60.136c-5.523 0-10-4.477-10-10v-10.013c0-5.523 4.477-10 10-10s10 4.477 10 10v10.014c0 5.522-4.477 9.999-10 9.999z" fill="#fdcb50"/></g><g><path d="m461.836 130.449c-5.523 0-10-4.477-10-10v-10.014c0-5.523 4.477-10 10-10s10 4.477 10 10v10.014c0 5.523-4.477 10-10 10z" fill="#fdcb50"/></g><g><path d="m20.014 90.286h-10.014c-5.523 0-10-4.477-10-10s4.477-10 10-10h10.014c5.523 0 10 4.477 10 10s-4.477 10-10 10z" fill="#fdcb50"/></g><g><path d="m90.327 90.286h-10.014c-5.523 0-10-4.477-10-10s4.477-10 10-10h10.014c5.523 0 10 4.477 10 10s-4.477 10-10 10z" fill="#fdcb50"/></g><g><path d="m50.163 60.136c-5.523 0-10-4.477-10-10v-10.013c0-5.523 4.477-10 10-10s10 4.477 10 10v10.014c0 5.522-4.477 9.999-10 9.999z" fill="#fdcb50"/></g><g><path d="m50.163 130.449c-5.523 0-10-4.477-10-10v-10.014c0-5.523 4.477-10 10-10s10 4.477 10 10v10.014c0 5.523-4.477 10-10 10z" fill="#fdcb50"/></g></g><g><path d="m256 232.115c-10.084 0-19.564-3.927-26.695-11.058-3.905-3.905-3.905-10.237 0-14.143 3.905-3.905 10.237-3.905 14.143 0 3.353 3.354 7.811 5.2 12.553 5.2s9.2-1.847 12.553-5.2c3.905-3.905 10.237-3.906 14.142 0 3.905 3.905 3.906 10.237 0 14.142-7.131 7.132-16.612 11.059-26.696 11.059z" fill="#b55348"/></g></g></g><g/><g/><g/><g/><g/><g/><g/><g/><g/><g/><g/><g/><g/><g/><g/></svg>