<svg id="Layer_1" enable-background="new 0 0 512 512" viewBox="0 0 512 512" xmlns="http://www.w3.org/2000/svg"><g><g clip-rule="evenodd" fill-rule="evenodd"><path d="m361.446 109.211c.357 1.018 15.577 43.866 49.339 53.48.005.008.01.016.015.025 16.968 28.157 25.935 60.409 25.935 93.284 0 99.817-80.918 180.734-180.734 180.734s-180.736-80.918-180.736-180.734c0-99.817 80.918-180.734 180.734-180.734 37.83 0 74.706 11.871 105.432 33.939zm15.468-67.444c-36.897-20.824-78.547-31.767-120.914-31.767-135.862 0-246 110.138-246 246s110.138 246 246 246 246-110.138 246-246c0-43.388-11.475-86.004-33.262-123.525.007-.015.013-.03.02-.045 12.123-27.116 8.141-52.135-12.743-67.611-19.866-14.723-61.95-36.112-79.081-23.089.018.03.035.06.053.09z" fill="#b1d952"/><path d="m295.933 432.298c-12.848 2.897-26.21 4.436-39.934 4.436-99.817 0-180.734-80.918-180.734-180.734 0-64.035 33.304-120.29 83.535-152.395 6.511-30.134 17.383-58.641 31.925-84.833-104.177 28.601-180.725 123.968-180.725 237.228 0 135.861 110.138 246 246 246 44.643 0 86.508-11.894 122.601-32.683-29.573-8.317-57.364-20.888-82.668-37.019z" fill="#91b706"/><path d="m193.743 17.946c3.905 30.907 30.29 54.809 62.256 54.809 31.946 0 58.317-23.871 62.249-54.748-20.239-5.295-41.155-8.007-62.248-8.007-21.509 0-42.373 2.76-62.257 7.946z" fill="#fd8f01"/><g fill="#fd6050"><path d="m43.648 131.692c24.616 19.093 60.174 17.338 82.778-5.266 22.589-22.589 24.357-58.116 5.304-82.73-18.055 10.568-34.762 23.44-49.678 38.355-15.209 15.209-28.01 31.914-38.404 49.641z"/><path d="m17.946 318.256c30.907-3.905 54.809-30.29 54.809-62.256 0-31.946-23.871-58.317-54.748-62.249-5.294 20.239-8.007 41.155-8.007 62.248 0 21.509 2.76 42.373 7.946 62.257z"/><path d="m131.693 468.351c19.093-24.616 17.338-60.174-5.266-82.778-22.589-22.589-58.116-24.357-82.73-5.304 10.568 18.055 23.44 34.762 38.355 49.678 15.208 15.209 31.913 28.01 49.641 38.404z"/><path d="m318.256 494.053c-3.905-30.907-30.29-54.809-62.256-54.809-31.946 0-58.317 23.871-62.249 54.748 20.239 5.294 41.155 8.007 62.249 8.007 21.508 0 42.372-2.76 62.256-7.946z"/></g><path d="m468.351 380.307c-24.616-19.093-60.174-17.337-82.778 5.267-22.589 22.589-24.357 58.116-5.304 82.73 18.055-10.568 34.762-23.44 49.678-38.355 15.209-15.21 28.011-31.915 38.404-49.642z" fill="#fd8f01"/><path d="m494.053 193.743c-30.907 3.905-54.809 30.29-54.809 62.257 0 31.946 23.871 58.317 54.748 62.249 5.294-20.239 8.007-41.155 8.007-62.249 0-21.509-2.76-42.373-7.946-62.257z" fill="#fd8f01"/></g><g><path d="m479.853 131.801c11.688-30.151 5.172-57.931-17.884-75.017-15.787-11.7-59.378-37.187-85.097-26.451-37.094-19.861-78.758-30.333-120.872-30.333-68.38 0-132.667 26.629-181.019 74.98-48.352 48.353-74.981 112.64-74.981 181.02s26.628 132.667 74.98 181.019 112.64 74.981 181.02 74.981 132.667-26.629 181.019-74.981 74.98-112.639 74.98-181.019c0-43.429-11.101-86.26-32.146-124.199zm-223.853 360.199c-130.131 0-236-105.87-236-236s105.869-236 236-236c39.683 0 78.934 10.086 113.695 29.193 7.275 12.929 12.002 26.414 13.834 39.425-4.607 3.379-12.277 7.903-19.893 9.919-31.832-21.781-68.951-33.272-107.636-33.272-105.172 0-190.735 85.563-190.735 190.735s85.563 190.734 190.735 190.734 190.735-85.563 190.735-190.734c0-34.691-9.465-68.733-27.331-98.379-1.303-2.215-3.408-3.843-5.881-4.547-19.49-5.55-32.132-25.195-38.266-37.31 11.897-4.528 21.967-11.961 25.861-15.842 2.089-2.081 3.152-4.977 2.908-7.915-1.218-14.603-5.525-29.729-12.573-44.331 5.377.067 12.47 1.616 20.549 4.582 15.017 5.512 29.887 14.54 38.059 20.596 22.469 16.651 15.639 41.917 9.563 55.507-1.329 2.942-1.156 6.345.466 9.137 20.875 35.952 31.909 76.93 31.909 118.503 0 130.129-105.869 235.999-235.999 235.999zm148.09-320.967c14.826 25.839 22.645 55.134 22.645 84.966 0 94.144-76.592 170.735-170.735 170.735s-170.735-76.591-170.735-170.734 76.591-170.734 170.734-170.734c34.976 0 68.518 10.491 97.201 30.37 4.305 10.602 20.108 44.295 50.89 55.397z" fill="#052a75"/><g><path d="m433.229 112.376c-5.522 0-10.004-4.477-10.004-10s4.475-10 9.997-10h.007c5.522 0 10 4.477 10 10s-4.478 10-10 10z" fill="#6864f7"/></g></g></g><g/><g/><g/><g/><g/><g/><g/><g/><g/><g/><g/><g/><g/><g/><g/></svg>