<svg id="Layer_1" enable-background="new 0 0 511.962 511.962" viewBox="0 0 511.962 511.962" xmlns="http://www.w3.org/2000/svg"><g><g clip-rule="evenodd" fill-rule="evenodd"><path d="m10 496.981h311.405c-32.901-56.986-45.184-80.128-38.892-128.589-43.548-9.182-62.927-48.488-51.547-83.105-51.282-11.076-77.742 23.125-77.742 23.125 6.554-33.559-8.25-54.658-23.892-67.159-70.62 40.773-119.332 155.121-119.332 255.728z" fill="#fd7da0"/><path d="m283.17 414.315c-2.771-13.85-2.959-28.191-.657-45.922-43.548-9.182-62.927-48.488-51.547-83.105-51.282-11.076-77.742 23.125-77.742 23.125 6.554-33.559-8.25-54.658-23.892-67.159-13.126 7.579-25.494 17.703-36.935 29.805 3.174 1.578 6.335 3.58 8.726 5.491 8.145 6.509 9.754 12.968 7.755 23.202-4.064 20.808 6.385 41.066 25.697 49.816 18.656 8.454 39.933 3.609 53.046-11.854.286.901.585 1.799.895 2.694 13.221 38.105 45.651 63.967 84.676 72.195 3.313.699 6.641 1.267 9.978 1.712z" fill="#db4b86"/><path d="m94.591 88.979 56.377 80.315c7.138 10.2 21.194 12.682 31.394 5.544s12.682-21.194 5.544-31.394l-53.743-76.565 11.147-31.964c4.065-11.781-2.19-24.628-13.971-28.693s-24.627 2.189-28.693 13.971l-7.296 20.921-52.172-19.635c-11.647-4.383-24.642 1.506-29.025 13.153s1.506 24.642 13.153 29.025z" fill="#fdcb50"/><path d="m133.896 180.392h-67.777c-12.425 0-22.592 10.166-22.592 22.592 0 12.425 10.166 22.592 22.592 22.592h67.776c12.425 0 22.592-10.166 22.592-22.592 0-12.426-10.166-22.592-22.591-22.592z" fill="#fdcb50"/><path d="m153.224 308.413s26.46-34.201 77.742-23.125c-4.407 13.408-4.201 27.519.237 40.311 7.021 20.235 24.629 37.168 51.31 42.794 15.132 3.19 33.181 2.744 53.872-2.8 81.911-21.948 79.296 47.576 118.936 34.444 53.843-17.837 55.224-63.258 33.637-99.405-21.588-36.147-37.464-20.816-56.769-40.37l-220.86-223.704s9.671 75.556-92.746 86.602c0 0 33.636 57.735-18.576 102.417 0 0 15.013 4.24 29.324 15.678 15.643 12.5 30.447 33.599 23.893 67.158z" fill="#fd7da0"/><path d="m202.66 367.769c-18.624 42.753-20.234 95.416-17.308 129.212h136.053c-20.863-36.135-33.432-58.663-38.235-82.667-23.977-35.144-53.467-46.617-80.51-46.545z" fill="#fde0be"/><path d="m231.203 325.598c-12.309 11.688-21.604 26.243-28.543 42.171 16.547 23.098 41.744 38.765 70.532 44.834 3.313.698 6.641 1.266 9.978 1.711-2.771-13.85-2.959-28.191-.657-45.922-26.681-5.625-44.289-22.559-51.31-42.794z" fill="#f7b073"/></g><g><g fill="#db4b86"><path d="m190.857 148.367-58.031-29.23c-4.933-2.483-10.944-.501-13.43 4.433-2.484 4.933-.5 10.945 4.432 13.43l58.031 29.23c1.443.727 2.979 1.071 4.491 1.071 3.657 0 7.181-2.014 8.938-5.503 2.485-4.934.501-10.946-4.431-13.431z"/><path d="m110.526 233.686c.587 0 1.183-.052 1.78-.16l53.73-9.655c5.436-.977 9.051-6.175 8.074-11.611-.978-5.436-6.18-9.047-11.611-8.074l-53.73 9.655c-5.436.977-9.051 6.175-8.074 11.611.87 4.838 5.083 8.234 9.831 8.234z"/><path d="m184.782 252.588c-4.837-2.666-10.92-.904-13.584 3.934l-20.972 38.07c-2.665 4.837-.903 10.919 3.934 13.584 1.53.843 3.185 1.243 4.816 1.243 3.526 0 6.946-1.87 8.768-5.177l20.972-38.07c2.665-4.837.903-10.919-3.934-13.584z"/><path d="m449.519 308.919c-5.478-4.868-13.477-6.99-21.941-5.821-5.471.755-9.294 5.802-8.539 11.273.756 5.471 5.802 9.292 11.273 8.539 3.096-.428 5.124.248 5.92.957 1.905 1.693 4.276 2.526 6.64 2.526 2.757 0 5.502-1.134 7.478-3.356 3.669-4.128 3.296-10.449-.831-14.118z"/><path d="m126.631 429.086c-2.198 2.199-5.122 3.41-8.232 3.41s-6.034-1.211-8.232-3.41c-3.906-3.905-10.236-3.905-14.143 0-2.198 2.199-5.122 3.41-8.232 3.41s-6.034-1.211-8.232-3.41c-3.906-3.905-10.236-3.905-14.143 0-3.905 3.905-3.905 10.237 0 14.143 5.977 5.976 13.923 9.267 22.375 9.267 5.441 0 10.673-1.364 15.304-3.93 4.631 2.566 9.862 3.93 15.304 3.93 8.452 0 16.398-3.291 22.375-9.267 3.905-3.905 3.905-10.237 0-14.143-3.908-3.905-10.238-3.905-14.144 0z"/><path d="m103.095 404.294c8.452 0 16.398-3.292 22.375-9.268 3.905-3.905 3.905-10.237 0-14.143-3.906-3.905-10.236-3.905-14.143 0-2.198 2.199-5.122 3.41-8.232 3.41-3.109 0-6.033-1.211-8.233-3.411-3.906-3.905-10.236-3.904-14.143.001-3.904 3.906-3.903 10.237.002 14.142 5.977 5.978 13.923 9.269 22.374 9.269z"/></g><path d="m497.543 295.504c-14.83-24.832-28.832-29.076-40.083-32.485-6.773-2.052-12.122-3.673-18.154-9.783l-220.861-223.704c-3.014-3.053-7.643-3.868-11.497-1.991-3.856 1.878-6.089 5.98-5.545 10.234.027.232 2.537 23.48-13.661 43.785-13.947 17.484-37.577 28.135-70.231 31.656-3.357.362-6.296 2.409-7.829 5.417s-1.436 6.602.244 9.531c1.19 2.075 28.633 51.258-16.42 89.813-2.794 2.391-4.036 6.125-3.257 9.719.778 3.594 3.48 6.474 7.013 7.494.728.21 6.577 1.964 13.939 5.945-30.437 22.091-57.82 58.251-77.943 103.229-21.446 47.939-33.258 102.139-33.258 152.617 0 5.523 4.478 10 10 10h311.405c3.572 0 6.874-1.906 8.66-5s1.786-6.906 0-10c-30.945-53.598-41.679-74.345-38.702-112.158 14.751 1.441 30.847-.08 47.61-4.572 42.342-11.348 57.785 3.555 72.717 17.967 9.109 8.792 19.18 18.513 34.028 18.513 3.896 0 8.123-.67 12.747-2.202 31.634-10.479 44.385-29.101 49.512-42.877 7.822-21.017 4.019-46.949-10.434-71.148zm-193.4 191.477h-283.982c1.439-44.827 12.443-92.182 31.353-134.448 19.926-44.537 47.075-79.464 76.773-98.898 11.181 11.088 19.979 27.996 15.122 52.861-.889 4.548 1.465 9.111 5.685 11.024 4.22 1.912 9.202.677 12.039-2.988.201-.26 19.657-24.758 57.578-21.068-2.397 14.866-.154 30.166 6.482 43.638 8.346 16.941 23.23 30.151 41.914 37.197 1.485.56 2.993 1.081 4.522 1.563-3.706 41.288 6.882 65.951 32.514 111.119zm185.09-127.305c-5.236 14.071-17.704 24.456-37.057 30.867-10.354 3.431-15.336-.847-26.597-11.716-12.508-12.072-28.565-27.575-59.586-27.575-9.288 0-19.922 1.391-32.196 4.68-50.172 13.443-79.732-5.478-90.663-27.669-9.762-19.815-7.688-48.942 18.946-69.344 4.384-3.358 5.216-9.635 1.857-14.02-3.359-4.386-9.636-5.215-14.02-1.857-11.225 8.598-19.786 19.139-25.255 30.984-26.74-3.669-46.831 3.744-60.112 11.902-2.015-24.125-14.801-40.464-26.743-50.643-6.867-5.854-14.021-10.163-20.066-13.208 20.009-23.008 22.756-47.675 21.089-65.402-.944-10.044-3.373-18.827-5.767-25.463 31.597-5.567 55.306-18.159 70.586-37.524 9.289-11.773 13.855-24.128 16.038-34.43l205.385 208.029c9.602 9.726 18.625 12.46 26.586 14.873 9.973 3.022 17.85 5.409 28.714 23.6 11.326 18.963 14.556 38.615 8.861 53.916z" fill="#052a75"/><g><path d="m350.993 266.514c-.856 0-1.728-.111-2.594-.343l-21.952-5.882c-5.335-1.429-8.501-6.913-7.071-12.248 1.43-5.333 6.917-8.5 12.247-7.071l21.952 5.882c5.335 1.429 8.501 6.913 7.071 12.248-1.197 4.467-5.238 7.414-9.653 7.414z" fill="#fff"/></g></g></g><g/><g/><g/><g/><g/><g/><g/><g/><g/><g/><g/><g/><g/><g/><g/></svg>