<svg id="Layer_1" enable-background="new 0 0 512 512" viewBox="0 0 512 512" xmlns="http://www.w3.org/2000/svg"><g><g clip-rule="evenodd" fill-rule="evenodd"><path d="m288.63 268.689 2.453 47.553c28.911 9.766 57.822 19.533 86.733 29.299 31.592 10.673 53.898 36.527 53.898 74.14v82.319h-351.428v-82.32c0-37.613 22.306-63.467 53.898-74.14 28.911-9.766 57.821-19.533 86.732-29.299l2.422-46.934z" fill="#b1d952"/><path d="m288.63 268.689 2.453 47.553 10.835 3.66c-14.278 5.119-29.707 7.891-45.919 7.891s-31.641-2.772-45.919-7.891l10.835-3.66 2.422-46.934z" fill="#91b706"/><path d="m141.308 343.134v158.866h229.383v-34.434s-193.142-18.815-193.142-136.675c-12.08 4.081-24.16 8.162-36.241 12.243z" fill="#d46b5c"/><path d="m256 10c-69.85 0-108.629 54.05-101.361 113.082-12.216-7.262-21.739-9.367-33.658-9.607-1.786 51.205 25.379 78.341 44.328 92.272 10.621 49.291 49.849 76.862 90.691 76.862s80.07-27.571 90.691-76.862c18.949-13.931 46.114-41.067 44.328-92.272-11.919.24-21.443 2.345-33.658 9.607 7.268-59.032-31.511-113.082-101.361-113.082z" fill="#b1d952"/></g><g><g><g><path d="m296.038 175.175c-5.522 0-10-4.477-10-10v-9.997c0-5.523 4.478-10 10-10s10 4.477 10 10v9.997c0 5.523-4.477 10-10 10z" fill="#6864f7"/></g><g><path d="m215.962 175.175c-5.522 0-10-4.477-10-10v-9.997c0-5.523 4.478-10 10-10s10 4.477 10 10v9.997c0 5.523-4.478 10-10 10z" fill="#6864f7"/></g></g><path d="m381.017 336.066-80.296-27.125-1.351-26.188c6.947-3.318 13.526-7.436 19.574-12.298 18.101-14.549 30.727-34.861 36.671-58.918 31.552-24.481 46.823-57.572 45.398-98.412-.19-5.462-4.779-9.765-10.195-9.649-8.385.169-15.614 1.273-22.621 3.58-.476-26.797-9.821-52.044-26.686-71.113-20.5-23.178-50.868-35.943-85.511-35.943s-65.011 12.765-85.511 35.944c-16.864 19.069-26.21 44.316-26.686 71.113-7.007-2.307-14.236-3.411-22.621-3.58-5.443-.117-10.005 4.188-10.195 9.649-1.425 40.838 13.847 73.93 45.397 98.411 5.944 24.057 18.571 44.369 36.672 58.918 6.048 4.862 12.627 8.98 19.574 12.298l-1.352 26.188-80.296 27.125c-38.007 12.84-60.697 44.098-60.697 83.614v82.32c0 5.523 4.478 10 10 10h351.428c5.522 0 10-4.477 10-10v-82.319c.001-39.517-22.69-70.774-60.696-83.615zm-205.933-132.425c-.514-2.387-1.885-4.504-3.852-5.95-25.466-18.723-38.681-42.782-40.191-73.314 5.738 1.026 11.461 3.124 18.489 7.301 3.276 1.949 7.382 1.863 10.577-.223 3.194-2.086 4.924-5.808 4.457-9.595-3.367-27.35 4.253-53.835 20.906-72.666 16.892-19.099 41.281-29.194 70.53-29.194s53.638 10.095 70.529 29.194c16.653 18.83 24.273 45.316 20.906 72.666-.467 3.787 1.263 7.509 4.457 9.595 3.195 2.086 7.3 2.172 10.577.223 7.028-4.178 12.751-6.275 18.489-7.301-1.511 30.533-14.726 54.592-40.192 73.313-1.967 1.447-3.338 3.563-3.852 5.951-10.266 47.643-48.036 68.968-80.915 68.968s-70.648-21.326-80.915-68.968zm185.607 288.359h-209.382v-141.689l17.063-5.764c5.745 46.788 41.576 84.362 104.176 109.016 36.385 14.33 71.949 20.553 88.144 22.835v15.602zm-270.405-72.319c0-28.823 14.856-51.23 41.022-62.356v134.675h-41.022zm331.428 72.319h-41.022v-24.434c0-5.147-3.907-9.454-9.03-9.953-1.775-.173-176.169-18.334-183.848-119.634l36.303-12.263c3.885-1.312 6.575-4.864 6.786-8.959l1.393-27c7.725 1.88 15.686 2.852 23.704 2.852 8.019 0 15.98-.972 23.705-2.852l1.393 27c.211 4.095 2.901 7.646 6.786 8.959l86.732 29.299c29.931 10.112 47.098 33.682 47.098 64.666z" fill="#052a75"/><g fill="#91b706"><path d="m291.454 197.819c-1.074.941-2.898 2.063-5.49 2.063-.729 0-1.455-.095-2.156-.283-2.978-.799-6.168-.177-8.63 1.689-2.461 1.865-3.923 4.763-3.959 7.852-.113 9.57-7.367 18.285-15.219 18.285s-15.105-8.716-15.219-18.286c-.036-3.088-1.498-5.986-3.959-7.852s-5.647-2.489-8.63-1.689c-.702.188-1.428.284-2.156.284-2.592 0-4.416-1.123-5.49-2.064-4.151-3.642-10.472-3.225-14.111.927-3.641 4.153-3.226 10.471.928 14.112 4.208 3.689 9.389 6.029 14.88 6.77 4.393 15.835 18.142 27.797 33.758 27.797s29.365-11.962 33.758-27.797c5.492-.741 10.672-3.08 14.88-6.77 4.153-3.641 4.568-9.958.928-14.112-3.641-4.151-9.961-4.566-14.113-.926z"/><path d="m219.965 112.175c4.304.659 7.168 2.235 10.795 4.231 5.705 3.14 12.804 7.048 25.24 7.048s19.535-3.908 25.24-7.048c3.627-1.996 6.491-3.573 10.795-4.231 5.459-.835 9.208-5.938 8.372-11.397-.834-5.459-5.935-9.208-11.397-8.372-7.812 1.195-13.136 4.125-17.414 6.48-4.818 2.652-8.3 4.569-15.596 4.569s-10.777-1.917-15.596-4.569c-4.278-2.354-9.602-5.285-17.414-6.48-5.451-.834-10.562 2.913-11.397 8.372s2.913 10.562 8.372 11.397z"/><path d="m321.567 143.791c-6.494-3.568-13.272-6.771-24.734-6.771-12.437 0-19.536 3.909-25.24 7.049-4.817 2.653-8.299 4.569-15.593 4.569-7.295 0-10.776-1.917-15.594-4.569-5.704-3.141-12.803-7.049-25.239-7.049-11.46 0-18.239 3.203-24.734 6.771-4.841 2.659-6.609 8.739-3.95 13.58s8.741 6.608 13.579 3.95c4.2-2.308 7.828-4.3 15.105-4.3 7.294 0 10.775 1.917 15.593 4.569 5.704 3.141 12.804 7.049 25.24 7.049s19.535-3.909 25.239-7.049c4.817-2.653 8.299-4.569 15.594-4.569 7.278 0 10.904 1.993 15.104 4.3 4.84 2.659 10.921.892 13.579-3.949 2.66-4.842.892-10.921-3.949-13.581z"/></g></g></g><g/><g/><g/><g/><g/><g/><g/><g/><g/><g/><g/><g/><g/><g/><g/></svg>