<svg id="Layer_1" enable-background="new 0 0 512.001 512.001" viewBox="0 0 512.001 512.001" xmlns="http://www.w3.org/2000/svg"><g><g clip-rule="evenodd" fill-rule="evenodd"><path d="m450.552 263.75c-24.707 25.098-27.959 47.979-31.086 70.01-3.975 28.003-7.808 54.997-37.094 84.283-8.822 8.821-23.125 8.821-31.947 0-8.821-8.822-8.821-23.125 0-31.947 18.74-18.74 21.511-38.262 24.386-58.514 4.228-29.787 8.628-60.733 43.458-95.503l-29.957-17.687 118.688-37.876-37.877 118.688z" fill="#bc3c85"/><path d="m179.205 269.659-10.736 44.62c-26.02 1.792-63.561 25.706-75.893 42.843-51.725.865-77.576 49.85-64.772 93.284-6.271 15.761-12.804 29.431-12.804 51.595h421.714c0-22.163-6.533-35.834-12.804-51.595 12.803-43.434-13.046-92.419-64.772-93.284-12.332-17.137-49.873-41.052-75.893-42.843l-10.681-44.653c-14.141 8.527-30.293 12.984-46.707 12.984-16.393 0-32.524-4.446-46.652-12.951z" fill="#fd6050"/><path d="m179.205 269.659-10.736 44.62c-.525.036-1.057.085-1.592.139 17.753 8.598 37.693 13.376 58.98 13.376s41.227-4.778 58.98-13.376c-.534-.054-1.066-.103-1.591-.139l-10.681-44.653c-14.141 8.527-30.293 12.984-46.707 12.984-16.394 0-32.525-4.446-46.653-12.951z" fill="#bc3c85"/><path d="m225.857 282.61c-40.842 0-80.07-27.571-90.691-76.862-30.276-22.259-37.952-70.542-10.67-82.665-7.267-59.032 31.511-113.083 101.361-113.083s108.628 54.05 101.36 113.082c27.282 12.123 19.607 60.406-10.67 82.665-10.619 49.291-49.848 76.863-90.69 76.863z" fill="#fd6050"/><g fill="#bc3c85"><path d="m97.83 10c-2.008 27.111 12.299 65.768 37.904 70.788 14.559 1.004 33.386-12.551 32.884-37.653-23.931-9.873-47.36-19.998-70.788-33.135z"/><path d="m353.886 10c2.008 27.111-12.299 65.768-37.903 70.788-14.559 1.004-33.386-12.551-32.884-37.653 23.93-9.873 47.359-19.998 70.787-33.135z"/></g></g><g><g><g><path d="m265.896 175.449c-5.523 0-10-4.477-10-10v-9.997c0-5.523 4.477-10 10-10s10 4.477 10 10v9.997c0 5.523-4.477 10-10 10z" fill="#fff"/></g><g><path d="m185.82 175.449c-5.523 0-10-4.477-10-10v-9.997c0-5.523 4.477-10 10-10s10 4.477 10 10v9.997c0 5.523-4.477 10-10 10z" fill="#fff"/></g></g><g><path d="m225.858 506.98c-5.523 0-10-4.477-10-10v-47.72c0-5.523 4.477-10 10-10s10 4.477 10 10v47.72c0 5.523-4.477 10-10 10z" fill="#bc3c85"/></g><path d="m435.062 451.327c-.206-.509-.413-1.02-.62-1.531 6.329-25.098 1.484-51.646-13.229-71.669-13.464-18.323-33.599-29.143-57.082-30.795-14.827-17.25-46.805-37.229-72.758-42.062l-7.448-31.135c1.66-1.174 3.286-2.4 4.875-3.678 18.121-14.566 30.756-34.909 36.692-59.002 19.173-15.756 30.661-41.756 28.191-64.555-1.379-12.732-6.945-22.875-15.897-29.253.836-11.912-.046-23.602-2.636-34.879 20.978-15.818 30.445-50.042 28.707-73.505-.252-3.409-2.229-6.453-5.241-8.071-3.012-1.617-6.642-1.586-9.623.087-16.433 9.214-33.137 17.012-48.827 23.816-19.777-16.431-45.39-25.095-74.308-25.095-28.946 0-54.536 8.659-74.312 25.092-15.69-6.803-32.393-14.601-48.825-23.815-2.981-1.672-6.61-1.705-9.623-.087-3.012 1.618-4.988 4.662-5.241 8.071-1.738 23.463 7.728 57.686 28.706 73.505-2.59 11.277-3.472 22.967-2.636 34.88-8.951 6.378-14.517 16.521-15.896 29.253-2.47 22.799 9.018 48.799 28.191 64.555 5.936 24.093 18.571 44.436 36.692 59.002 1.604 1.289 3.245 2.526 4.921 3.71l-7.483 31.101c-25.956 4.83-57.939 24.812-72.768 42.064-23.482 1.652-43.618 12.472-57.082 30.795-14.713 20.022-19.558 46.571-13.229 71.668-.207.512-.414 1.022-.62 1.531-5.729 14.148-11.653 28.778-11.653 50.674 0 5.523 4.477 10 10 10h421.714c5.523 0 10-4.477 10-10 .001-21.894-5.923-36.524-11.652-50.672zm-120.365-380.488c-4.45.074-9.5-2.122-13.431-5.866-3.067-2.921-6.574-7.786-7.76-15.326 15.451-6.438 32.414-13.796 49.626-22.567-3.173 20.156-14.029 40.411-28.435 43.759zm-206.113-43.76c17.212 8.771 34.175 16.129 49.626 22.568-1.186 7.54-4.692 12.405-7.76 15.326-3.932 3.745-9.003 5.944-13.431 5.866-14.406-3.348-25.262-23.603-28.435-43.76zm36.358 176.562c-.514-2.387-1.884-4.504-3.852-5.95-17.296-12.716-24.751-34.093-23.175-48.638.628-5.8 2.985-13.429 10.643-16.833 4.021-1.787 6.402-5.993 5.864-10.36-1.309-10.635-1.007-21.057.892-31.079.635.038 1.272.057 1.912.057 9.48 0 19.433-4.161 27.016-11.383 9.557-9.101 14.661-22.071 14.372-36.521-.075-3.754-2.244-7.129-5.581-8.771 14.772-9.304 32.767-14.163 52.825-14.163 20.041 0 38.046 4.861 52.821 14.165-3.335 1.643-5.503 5.016-5.578 8.77-.289 14.449 4.815 27.419 14.373 36.521 7.584 7.222 17.535 11.383 27.016 11.383.639 0 1.277-.019 1.911-.057 1.9 10.022 2.202 20.445.893 31.079-.538 4.368 1.843 8.574 5.865 10.36 7.658 3.403 10.015 11.032 10.643 16.833 1.576 14.544-5.879 35.921-23.175 48.637-1.968 1.446-3.338 3.563-3.852 5.95-10.266 47.643-48.037 68.968-80.916 68.968s-70.651-21.325-80.917-68.968zm210.212 288.36c4.201-11.356 5.233-22.634 5.233-30.967 0-5.523-4.477-10-10-10s-10 4.477-10 10c0 11.66-2.536 22.595-7.16 30.967h-214.739c-4.624-8.372-7.16-19.307-7.16-30.967 0-5.523-4.477-10-10-10s-10 4.477-10 10c0 8.332 1.032 19.611 5.233 30.967h-71.037c1.374-12.685 5.281-22.334 9.667-33.167.633-1.563 1.27-3.137 1.904-4.731.828-2.08.934-4.377.3-6.525-5.935-20.135-2.488-41.671 9.223-57.608 10.592-14.415 26.973-22.529 46.125-22.85 3.158-.053 6.105-1.594 7.95-4.158 11.238-15.617 46.457-37.192 68.462-38.708 4.356-.3 8.014-3.392 9.036-7.637l7.768-32.285c12.527 5.412 26.128 8.277 39.898 8.277 13.785 0 27.401-2.872 39.939-8.295l7.724 32.289c1.017 4.252 4.678 7.35 9.039 7.65 22.006 1.515 57.225 23.091 68.463 38.708 1.845 2.563 4.792 4.104 7.949 4.157 19.152.32 35.533 8.435 46.125 22.85 11.71 15.937 15.158 37.472 9.223 57.608-.633 2.147-.527 4.445.3 6.525.634 1.594 1.271 3.168 1.904 4.731 4.387 10.833 8.293 20.482 9.667 33.167h-71.036z" fill="#052a75"/><g fill="#bc3c85"><path d="m189.822 112.45c4.304.658 7.168 2.235 10.795 4.231 5.705 3.14 12.804 7.048 25.24 7.048s19.535-3.908 25.24-7.047c3.627-1.997 6.492-3.573 10.796-4.231 5.459-.835 9.208-5.938 8.373-11.397s-5.936-9.205-11.397-8.373c-7.813 1.195-13.137 4.126-17.415 6.48-4.819 2.652-8.301 4.569-15.596 4.569s-10.777-1.917-15.595-4.569c-4.278-2.354-9.602-5.285-17.415-6.48-5.46-.832-10.562 2.914-11.397 8.373-.837 5.458 2.912 10.56 8.371 11.396z"/><path d="m201.738 70.605c5.966 3.255 12.743 6.434 24.119 6.434 11.378 0 18.154-3.178 24.12-6.434 4.848-2.646 6.633-8.72 3.987-13.568-2.645-4.847-8.72-6.632-13.568-3.987-4.416 2.41-7.814 3.99-14.539 3.99-6.724 0-10.122-1.58-14.539-3.99-4.849-2.646-10.923-.861-13.568 3.988-2.646 4.847-.86 10.922 3.988 13.567z"/><path d="m225.858 214.277c-10.084 0-19.564 3.927-26.695 11.057-3.905 3.905-3.905 10.237 0 14.143 3.905 3.905 10.237 3.905 14.143 0 3.353-3.353 7.811-5.2 12.553-5.2s9.2 1.847 12.553 5.2c1.953 1.953 4.512 2.929 7.071 2.929s5.119-.976 7.071-2.929c3.905-3.905 3.905-10.237 0-14.143-7.132-7.131-16.612-11.057-26.696-11.057z"/><path d="m169.92 161.594c4.199-2.307 7.826-4.3 15.104-4.3 7.295 0 10.776 1.917 15.594 4.569 5.704 3.141 12.803 7.049 25.239 7.049 12.437 0 19.536-3.909 25.24-7.049 4.818-2.653 8.299-4.569 15.593-4.569 7.277 0 10.904 1.993 15.104 4.3 4.841 2.659 10.92.891 13.58-3.95 2.659-4.84.891-10.92-3.95-13.58-6.495-3.568-13.274-6.771-24.734-6.771-12.437 0-19.535 3.909-25.239 7.049-4.818 2.653-8.299 4.569-15.594 4.569-7.294 0-10.775-1.917-15.593-4.569-5.705-3.141-12.804-7.049-25.24-7.049-11.461 0-18.24 3.203-24.735 6.771-4.84 2.659-6.608 8.739-3.949 13.58 2.66 4.842 8.738 6.61 13.58 3.95z"/><path d="m182.103 384.481-30.122-6.024c-5.413-1.084-10.684 2.428-11.767 7.845-1.083 5.416 2.429 10.684 7.845 11.767l30.122 6.024c.662.132 1.321.196 1.972.196 4.669 0 8.844-3.287 9.795-8.041 1.083-5.416-2.429-10.684-7.845-11.767z"/><path d="m311.501 386.301c-1.083-5.416-6.35-8.925-11.767-7.845l-30.122 6.024c-5.416 1.083-8.928 6.351-7.845 11.767.951 4.754 5.125 8.041 9.795 8.041.65 0 1.31-.064 1.972-.196l30.122-6.024c5.416-1.083 8.928-6.351 7.845-11.767z"/></g></g></g><g/><g/><g/><g/><g/><g/><g/><g/><g/><g/><g/><g/><g/><g/><g/></svg>