<svg id="Layer_1" enable-background="new 0 0 512 512" viewBox="0 0 512 512" xmlns="http://www.w3.org/2000/svg"><g><g clip-rule="evenodd" fill-rule="evenodd"><path d="m256 234.79 90.691-24.022c18.948-13.931 46.114-46.087 44.328-97.292-11.919.24-21.443 2.345-33.658 9.607 7.268-59.032-31.511-113.083-101.361-113.083s-108.629 54.051-101.361 113.083c-12.216-7.262-21.74-9.367-33.658-9.607-1.786 51.205 25.379 83.361 44.328 97.292z" fill="#b1d952"/><path d="m390.951 124.542c.171-3.585.201-7.272.069-11.066-11.919.24-21.443 2.345-33.658 9.607 5.7-46.295-16.924-89.521-60.641-106.021-13.62 3.092-29.752 3.43-40.72 3.43s-27.1-.338-40.72-3.43c-43.717 16.5-66.341 59.727-60.641 106.021-12.216-7.262-21.74-9.367-33.658-9.607-.132 3.794-.102 7.481.069 11.066 7.652 8.734 18.185 13.948 30.369 14.851l2.846.211c8.424 12.488 20.125 22.588 34.669 27.889 9.708 3.539 19.532 3.792 28.792.839 6.669 4.98 13.759 9.12 20.87 12.088 11.562 4.826 23.246 4.826 34.808 0 7.111-2.968 14.201-7.107 20.87-12.088 9.26 2.954 19.083 2.7 28.792-.839 14.545-5.302 26.245-15.401 34.669-27.889l2.846-.211c12.184-.903 22.717-6.118 30.369-14.851z" fill="#91b706"/><path d="m222.773 270.213-1.857 46.029c-28.911 9.766-57.822 19.533-86.732 29.299-31.592 10.673-53.898 36.527-53.898 74.14v82.319h351.429v-82.32c0-37.613-22.306-63.467-53.898-74.14-28.911-9.766-57.821-19.533-86.733-29.299l-1.806-45.051z" fill="#b1d952"/><path d="m222.773 270.213-1.857 46.029-7.659 2.587c14.107 5.399 29.067 8.964 42.743 8.964s28.635-3.565 42.743-8.964l-7.659-2.587-1.806-45.051z" fill="#91b706"/><path d="m256 386.107c-48.945 0-69.532 50.065-69.532 111.823v4.07h139.064v-4.07c0-61.758-20.587-111.823-69.532-111.823z" fill="#91b706"/><path d="m165.309 210.768c10.621 49.291 68.927 71.842 90.691 71.842s80.07-22.551 90.691-71.842c-44.909 0-58.676-23.798-90.691-23.798s-45.782 23.798-90.691 23.798z" fill="#fdcb50"/><path d="m256 65.675c31.065 0 60.828-3.095 82.597-17.5 17.32 4.268 29.685 25.999 18.646 46.157l-29.947 2.218c-1.154 6.595-6.276 23.596-19.705 28.491l-22.021-14.281c-3.617 8.079-15.137 21.937-29.571 27.961-14.434-6.024-25.954-19.883-29.571-27.961l-22.021 14.281c-13.429-4.895-18.551-21.896-19.705-28.491l-29.947-2.218c-11.039-20.158 1.326-41.89 18.646-46.157 21.771 14.405 51.534 17.5 82.599 17.5z" fill="#bc9af4"/><path d="m256 65.675c31.065 0 60.828-3.095 82.597-17.5-17.339-23.022-45.613-38.175-82.597-38.175s-65.258 15.153-82.597 38.175c21.769 14.405 51.532 17.5 82.597 17.5z" fill="#fde0be"/></g><g><path d="m381.017 336.066-80.216-27.098-1.161-28.956c3.739-1.901 7.505-4.029 11.236-6.393 16.474-10.437 37.252-28.688 44.716-57.085 14.316-11.469 47.474-44.56 45.422-103.409-.191-5.462-4.769-9.78-10.196-9.649-8.379.169-15.607 1.273-22.609 3.577-.061-3.671-.289-7.322-.682-10.941 5.028-11.074 5.198-23.442.374-34.418-4.598-10.463-13.175-18.531-23.366-22.163-20.542-25.522-51.841-39.531-88.535-39.531-36.695 0-67.995 14.01-88.536 39.533-10.19 3.632-18.766 11.7-23.364 22.162-4.822 10.972-4.655 23.336.368 34.407-.393 3.62-.62 7.275-.68 10.951-7.001-2.303-14.228-3.407-22.606-3.576-5.471-.12-10.005 4.188-10.196 9.649-2.052 58.85 31.107 91.941 45.422 103.41 7.464 28.396 28.242 46.648 44.715 57.084 3.734 2.366 7.503 4.496 11.246 6.398l-1.168 28.95-80.219 27.098c-38.006 12.84-60.697 44.098-60.697 83.614v82.32c0 5.523 4.477 10 10 10h351.428c5.523 0 10-4.477 10-10v-82.32c.001-39.516-22.689-70.773-60.696-83.614zm-58.109-290.699c-20.246 9.007-45.88 10.308-66.908 10.308s-46.662-1.301-66.908-10.308c16.572-16.441 39.899-25.367 66.908-25.367 27.008 0 50.336 8.926 66.908 25.367zm-160.498 24.375c2.042-4.646 5.64-8.443 9.826-10.537 25.16 14.525 57.748 16.47 83.764 16.47 26.018 0 58.603-1.942 83.765-16.469 4.186 2.093 7.784 5.891 9.826 10.537 1.313 2.987 2.882 8.473.883 15.064l-23.915 1.771c-4.568.338-8.322 3.737-9.112 8.25-.693 3.962-3.597 13.668-9.447 18.56l-16.987-11.016c-2.45-1.589-5.474-2.028-8.274-1.2-2.801.828-5.1 2.838-6.294 5.504-2.589 5.783-10.77 15.502-20.444 20.932-9.674-5.43-17.854-15.149-20.444-20.932-1.193-2.666-3.493-4.676-6.294-5.504-.929-.274-1.883-.41-2.833-.41-1.912 0-3.804.548-5.441 1.61l-16.987 11.016c-5.851-4.892-8.754-14.598-9.447-18.56-.79-4.512-4.544-7.911-9.112-8.25l-23.915-1.771c-2-6.592-.431-12.078.882-15.065zm-31.363 54.635c5.736 1.027 11.458 3.125 18.482 7.301 3.282 1.95 7.384 1.864 10.578-.223 3.195-2.086 4.924-5.808 4.458-9.595-.695-5.645-.932-11.275-.712-16.827l12.997.963c2.966 9.045 9.765 23.203 24.133 28.441 2.949 1.073 6.232.703 8.866-1.005l13.449-8.722c6.783 9.015 17.266 18.405 28.85 23.241 1.233.514 2.542.771 3.852.771s2.62-.257 3.852-.771c11.585-4.835 22.068-14.226 28.851-23.241l13.449 8.722c2.633 1.708 5.917 2.078 8.866 1.005 14.368-5.238 21.167-19.396 24.133-28.441l12.993-.962c.222 5.557-.013 11.187-.708 16.826-.466 3.787 1.263 7.509 4.458 9.595 3.193 2.085 7.298 2.172 10.577.223 7.025-4.176 12.747-6.273 18.483-7.3-2.133 43.017-26.503 67.408-37.6 76.34-20.23-.6-33.287-6.612-45.936-12.436-12.079-5.562-24.569-11.312-41.417-11.312s-29.338 5.751-41.417 11.312c-12.648 5.823-25.705 11.835-45.935 12.436-11.098-8.931-35.469-33.322-37.602-76.341zm47.664 95.701c19.023-2.019 32.283-8.125 44.236-13.629 11.047-5.086 20.587-9.479 33.053-9.479s22.006 4.393 33.053 9.479c11.954 5.504 25.213 11.61 44.236 13.629-7.404 17.398-21.55 29.32-33.116 36.647-18.396 11.654-36.495 15.884-44.173 15.884-7.677 0-25.777-4.23-44.172-15.884-11.566-7.327-25.713-19.249-33.117-36.647zm243.003 271.922h-44.511v-31.723c0-5.523-4.477-10-10-10s-10 4.477-10 10v31.723h-202.406v-31.723c0-5.523-4.477-10-10-10s-10 4.477-10 10v31.723h-44.511v-72.32c0-30.984 17.167-54.554 47.098-64.666l86.733-29.299c3.924-1.326 6.625-4.933 6.792-9.071l1.15-28.489c9.428 3.024 17.827 4.453 23.942 4.453 6.117 0 14.52-1.43 23.95-4.456l1.142 28.489c.166 4.14 2.867 7.748 6.792 9.074l86.732 29.299c29.932 10.112 47.098 33.682 47.098 64.666v72.32z" fill="#052a75"/><g><g><path d="m196.282 172.822c-5.523 0-10.003-4.477-10.003-10s4.473-10 9.996-10h.007c5.523 0 10 4.477 10 10s-4.477 10-10 10z" fill="#6864f7"/></g><g><path d="m315.726 172.822h-.008c-5.523 0-10-4.477-10-10s4.477-10 10-10 10.004 4.477 10.004 10-4.473 10-9.996 10z" fill="#6864f7"/></g></g></g></g><g/><g/><g/><g/><g/><g/><g/><g/><g/><g/><g/><g/><g/><g/><g/></svg>