<svg id="Layer_1" enable-background="new 0 0 512.01 512.01" viewBox="0 0 512.01 512.01" xmlns="http://www.w3.org/2000/svg"><g><g clip-rule="evenodd" fill-rule="evenodd"><path d="m223.343 269.313h65.325l8.202 41.409c28.585-6.183 63.056 12.625 80.125 12.625-2.384 5.271-9.185 12.96-17.778 18.947 21.534.972 47.054 12.831 53.736 31.681 31.567 9.115 36.838 40.995 38.344 65.595-6.339 0-15.002-.889-22.087-4.096 12.049 29.875 0 37.159 7.53 66.531h-361.47c7.531-29.373-4.519-36.656 7.531-66.531-7.085 3.207-15.749 4.096-22.087 4.096 1.506-24.6 6.777-56.48 38.344-65.595 6.681-18.851 32.202-30.709 53.736-31.681-8.593-5.987-15.394-13.675-17.778-18.947 17.069 0 51.541-18.808 80.126-12.625z" fill="#fde0be"/><path d="m223.343 269.313h65.325l8.202 41.409c11.213-2.425 23.332-1.005 34.951 1.617l-1.295 1.101c-11.28 9.572-22.166 18.264-35.769 24.472-12.283 5.606-25.242 8.461-38.752 8.461s-26.469-2.855-38.752-8.461c-13.602-6.208-24.488-14.9-35.768-24.472l-1.295-1.101c11.619-2.622 23.738-4.042 34.951-1.617z" fill="#f7b073"/><path d="m256.005 10.005c-51.433 0-93.129 41.695-93.129 93.129 0 48.251-56.499 110.767 19.178 154.459 29.973 17.305 43.984 43.597 73.951 43.597s43.977-26.292 73.951-43.597c75.677-43.692 19.178-106.208 19.178-154.459 0-51.434-41.695-93.129-93.129-93.129z" fill="#fde0be"/><g fill="#f7b073"><path d="m349.134 103.134c0 29.665 21.356 64.723 20.222 97.483 35.478 5.177 44.47-32.97 44.47-32.97 41.669-6.527 38.657-51.71 38.657-51.71 70.221-18.816 45.183-105.931 45.183-105.931-55.014 56.978-107.144 6.307-153.739 62.35 3.373 9.634 5.207 19.992 5.207 30.778z"/><path d="m162.876 103.134c0-10.786 1.834-21.144 5.206-30.778-46.595-56.044-98.725-5.372-153.739-62.35 0 0-25.038 87.115 45.183 105.931 0 0-3.012 45.184 38.657 51.71 0 0 8.992 38.147 44.47 32.97-1.133-32.761 20.223-67.818 20.223-97.483z"/></g></g><g><g><g><path d="m156.859 137.223c-2.956 0-5.882-1.304-7.856-3.804-13.233-16.763-30.843-28.334-49.586-32.582-5.386-1.221-8.763-6.577-7.542-11.963 1.221-5.387 6.579-8.764 11.963-7.542 23.189 5.255 44.804 19.353 60.863 39.694 3.422 4.335 2.682 10.623-1.653 14.045-1.835 1.449-4.021 2.152-6.189 2.152z" fill="#d46b5c"/></g><g><path d="m355.151 137.223c-2.17 0-4.354-.703-6.189-2.151-4.335-3.422-5.075-9.71-1.652-14.045 16.059-20.342 37.674-34.439 60.863-39.694 5.386-1.224 10.742 2.157 11.963 7.542 1.221 5.386-2.156 10.742-7.543 11.963-18.742 4.248-36.353 15.819-49.586 32.582-1.974 2.498-4.9 3.803-7.856 3.803z" fill="#d46b5c"/></g></g><path d="m507.278 7.243c-.987-3.433-3.729-6.079-7.195-6.941s-7.129.188-9.61 2.758c-24.847 25.734-48.511 27.076-73.564 28.497-23.169 1.314-47.031 2.668-69.876 23.136-17.373-32.514-51.659-54.688-91.027-54.688-39.369 0-73.655 22.174-91.027 54.689-22.846-20.47-46.708-21.823-69.876-23.137-25.053-1.421-48.717-2.763-73.564-28.497-2.48-2.57-6.145-3.621-9.61-2.758-3.467.862-6.21 3.508-7.196 6.941-.568 1.976-13.684 48.821 6.382 84.315 8.468 14.979 21.43 25.646 38.589 31.785.398 5.136 1.46 12.17 4.14 19.454 6.42 17.452 18.987 28.912 36.546 33.444 5.353 14.271 18.826 33.532 43.26 34.793 3.28 19.693 15.064 38.858 43.403 55.22 10.047 5.801 18.296 12.805 26.272 19.578 1.878 1.595 3.743 3.178 5.613 4.73l-1.79 9.038c-17.447-1.001-35.265 4.273-50.056 8.652-8.852 2.621-17.212 5.096-22.079 5.096-3.397 0-6.562 1.725-8.403 4.579-1.842 2.854-2.108 6.449-.708 9.543 1.213 2.681 3.091 5.589 5.452 8.523-16.699 5.101-32.368 15.282-39.703 29.905-37.304 13.96-39.913 56.612-40.92 73.062-.168 2.753.808 5.454 2.698 7.463s4.526 3.148 7.285 3.148c1.975 0 4.587-.079 7.56-.364-1.677 9.063-1.201 16.155-.734 23.095.537 7.981 1.043 15.52-1.956 27.221-.768 2.993-.108 6.173 1.786 8.614s4.811 3.87 7.9 3.87h361.47c3.09 0 6.006-1.428 7.9-3.87 1.895-2.441 2.554-5.621 1.786-8.614-2.999-11.701-2.492-19.239-1.956-27.221.467-6.939.943-14.032-.734-23.095 2.973.285 5.585.364 7.56.364h.001c2.758 0 5.394-1.139 7.284-3.148s2.866-4.709 2.697-7.463c-1.008-16.45-3.618-59.102-40.921-73.062-7.334-14.622-23.004-24.804-39.702-29.905 2.36-2.935 4.238-5.843 5.451-8.525 1.399-3.095 1.133-6.688-.709-9.542s-5.006-4.578-8.402-4.578c-4.867 0-13.228-2.475-22.079-5.096-14.792-4.379-32.622-9.658-50.055-8.652l-1.791-9.038c1.869-1.552 3.735-3.136 5.613-4.73 7.977-6.773 16.225-13.776 26.272-19.578 28.339-16.362 40.122-35.526 43.403-55.219 24.423-1.26 37.903-20.485 43.263-34.794 17.557-4.532 30.124-15.993 36.544-33.443 2.679-7.284 3.741-14.318 4.14-19.454 17.159-6.139 30.121-16.806 38.589-31.785 20.068-35.495 6.951-82.34 6.384-84.316zm-399.36 158.109c-.933-3.958-4.169-6.956-8.186-7.585-13.421-2.103-22.226-9.083-26.917-21.343-3.829-10.006-3.313-19.767-3.31-19.823.317-4.764-2.777-9.088-7.39-10.324-15.596-4.179-26.57-12.19-33.55-24.493-9.538-16.81-9.359-38.047-7.649-52.494 25.558 19.539 50.578 20.96 73.053 22.234 23.281 1.32 43.51 2.468 62.886 23.204-2.59 9.027-3.978 18.557-3.978 28.405 0 12.542-4.509 26.877-9.282 42.055-4.501 14.312-9.413 29.931-10.66 45.703-19.089-2.374-24.778-24.566-25.017-25.539zm179.142 147.313c.521 2.631 2.078 4.943 4.32 6.416 2.242 1.472 4.98 1.98 7.604 1.415 15.508-3.354 33.968 2.111 50.254 6.933 3.25.962 6.365 1.884 9.345 2.703-1.524 1.324-3.221 2.661-5.082 3.957-3.516 2.45-5.08 6.868-3.889 10.985s4.873 7.017 9.154 7.21c17.54.792 39.641 10.588 44.761 25.033 1.077 3.039 3.554 5.372 6.651 6.267 17.336 5.006 26.63 18.667 30.047 44.921-2.592-.533-4.936-1.254-6.892-2.14-3.724-1.684-8.096-.936-11.046 1.894-2.949 2.829-3.881 7.167-2.353 10.957 5.755 14.27 5.236 21.981 4.58 31.746-.407 6.054-.852 12.665.159 21.045h-53.339l-4.631-35.658c-.712-5.477-5.726-9.339-11.205-8.628-5.477.711-9.34 5.728-8.629 11.205l4.296 33.082h-190.323l4.296-33.082c.711-5.477-3.152-10.494-8.628-11.205-5.475-.711-10.494 3.151-11.205 8.628l-4.631 35.658h-53.338c1.01-8.38.566-14.992.159-21.046-.656-9.764-1.175-17.476 4.58-31.746 1.529-3.79.598-8.128-2.352-10.957-2.95-2.83-7.325-3.58-11.046-1.894-1.957.886-4.301 1.607-6.893 2.14 3.417-26.254 12.71-39.915 30.047-44.921 3.098-.895 5.574-3.228 6.651-6.267 5.12-14.445 27.221-24.241 44.762-25.033 4.281-.193 7.963-3.093 9.155-7.21s-.373-8.535-3.89-10.985c-1.861-1.296-3.557-2.633-5.083-3.957 2.98-.818 6.095-1.741 9.344-2.703 16.287-4.822 34.746-10.286 50.255-6.933 2.623.567 5.362.058 7.604-1.416 2.242-1.472 3.799-3.784 4.32-6.415l1.844-9.308c8.418 4.734 17.77 7.833 29.211 7.833s20.793-3.099 29.211-7.833zm37.896-63.732c-11.613 6.705-20.966 14.646-29.218 21.652-13.559 11.512-24.268 20.605-39.733 20.605-15.466 0-26.175-9.093-39.733-20.605-8.251-7.006-17.604-14.947-29.217-21.652-46.652-26.935-36.331-59.749-24.381-97.744 5.017-15.95 10.204-32.442 10.204-48.055 0-45.837 37.291-83.129 83.128-83.129s83.128 37.292 83.128 83.129c0 15.613 5.188 32.105 10.203 48.055 11.95 37.995 22.27 70.809-24.381 97.744zm158.489-167.149c-6.98 12.302-17.954 20.313-33.55 24.493-4.582 1.228-7.668 5.548-7.393 10.283.006.098.522 9.858-3.308 19.864-4.691 12.26-13.496 19.241-26.917 21.343-3.982.624-7.212 3.625-8.175 7.54-.25 1.021-5.915 23.204-25.029 25.583-1.246-15.772-6.158-31.389-10.659-45.701-4.773-15.177-9.282-29.512-9.282-42.055 0-9.848-1.388-19.379-3.978-28.406 19.376-20.736 39.607-21.884 62.885-23.204 22.476-1.275 47.495-2.695 73.053-22.233 1.712 14.45 1.889 35.685-7.647 52.493z" fill="#052a75"/><g><g><path d="m296.043 194.512c-5.522 0-10-4.477-10-10v-9.997c0-5.523 4.478-10 10-10s10 4.477 10 10v9.997c0 5.523-4.478 10-10 10z" fill="#6864f7"/></g><g><path d="m215.967 194.512c-5.523 0-10-4.477-10-10v-9.997c0-5.523 4.477-10 10-10s10 4.477 10 10v9.997c0 5.523-4.477 10-10 10z" fill="#6864f7"/></g></g><g fill="#f7b073"><path d="m282.7 235.349c3.905-3.905 3.905-10.237-.001-14.142-3.904-3.905-10.237-3.905-14.142 0-3.353 3.353-7.811 5.2-12.552 5.2-4.742 0-9.2-1.847-12.553-5.2-3.905-3.905-10.237-3.905-14.143 0-3.905 3.905-3.905 10.237 0 14.143 7.131 7.13 16.611 11.058 26.695 11.058 10.085-.001 19.566-3.928 26.696-11.059z"/><path d="m295.186 84.77c-4.777-2.776-10.896-1.156-13.672 3.619l-7.805 13.425c-3.007-2.944-4.658-6.641-4.663-6.65-1.239-3.041-3.893-5.28-7.099-5.991-3.207-.709-6.557.2-8.964 2.434l-18.767 17.415c-4.538-12.584-1.974-28.058 2.391-33.321 3.526-4.251 2.938-10.556-1.313-14.081-4.251-3.524-10.555-2.938-14.081 1.313-12.41 14.963-13.775 48.809 3.141 68.396 1.774 2.054 4.307 3.299 7.017 3.449.185.01.369.015.552.015 2.516 0 4.948-.949 6.802-2.67l19.215-17.831c4.023 4.484 9.805 8.904 17.67 10.509 4.204.862 8.488-1.062 10.645-4.772l12.551-21.588c2.775-4.775 1.155-10.896-3.62-13.671z"/><path d="m281.251 417.818c-4.777-2.776-10.896-1.156-13.672 3.619l-7.805 13.425c-3.007-2.944-4.658-6.641-4.663-6.65-1.239-3.041-3.893-5.28-7.099-5.99-3.207-.71-6.557.2-8.964 2.434l-18.767 17.415c-4.538-12.584-1.974-28.058 2.391-33.322 3.526-4.251 2.938-10.555-1.314-14.081-4.25-3.525-10.555-2.938-14.081 1.314-12.409 14.963-13.775 48.809 3.141 68.396 1.774 2.054 4.307 3.299 7.017 3.449.185.01.369.015.552.015 2.516 0 4.947-.949 6.802-2.67l19.216-17.831c4.023 4.484 9.804 8.904 17.668 10.509 4.211.863 8.489-1.062 10.646-4.772l12.551-21.588c2.775-4.775 1.155-10.896-3.619-13.672z"/></g></g></g><g/><g/><g/><g/><g/><g/><g/><g/><g/><g/><g/><g/><g/><g/><g/></svg>