<svg xmlns="http://www.w3.org/2000/svg" viewBox="0 0 256 256"><title>icon</title><path d="M184.543,71.315l5.54,1.846a.116.116,0,0,0,.156-.116c-.138-1.958-1.776-20.182-15.648-31.552a.114.114,0,0,1,.089-.2l5.386.9a.116.116,0,0,0,.135-.145c-.912-3.216-14.912-49.4-50.01-37.624a6.9,6.9,0,0,1-4.382,0c-35.1-11.773-49.1,34.408-50.01,37.624a.116.116,0,0,0,.135.145l5.386-.9a.114.114,0,0,1,.089.2C67.537,52.863,65.9,71.087,65.761,73.045a.116.116,0,0,0,.156.116l5.54-1.846a.114.114,0,0,1,.135.168c-7.969,13.594-5.472,33.53-4.933,37.157a.113.113,0,0,0,.222,0,14.677,14.677,0,0,1,4.645-7.243.115.115,0,0,1,.185.111C69.1,121.705,82.49,134.247,84.5,136a.115.115,0,0,0,.188-.111,29.058,29.058,0,0,1,0-9.3.112.112,0,0,1,.214-.028c.929,2.128,6.408,13.426,20.853,20.648a48.049,48.049,0,0,1,18.376,16.835,4.613,4.613,0,0,0,7.748,0,48.049,48.049,0,0,1,18.376-16.835C164.7,140,170.174,128.7,171.1,126.569a.112.112,0,0,1,.214.028,29.058,29.058,0,0,1,0,9.3.115.115,0,0,0,.188.111c2.01-1.757,15.4-14.3,12.789-34.5a.115.115,0,0,1,.185-.111,14.677,14.677,0,0,1,4.645,7.243.113.113,0,0,0,.222,0c.539-3.627,3.036-23.563-4.933-37.157A.114.114,0,0,1,184.543,71.315Z" fill="#b77035"/><path d="M128,168.661a7.106,7.106,0,0,1-5.968-3.244,45.647,45.647,0,0,0-17.4-15.964,49.679,49.679,0,0,1-17.566-14.49q.037.24.081.48a2.614,2.614,0,0,1-4.3,2.44A42.806,42.806,0,0,1,69,109.983a2.61,2.61,0,0,1-4.81-.979c-.521-3.5-2.549-19.924,2.735-33.542l-.213.071a2.616,2.616,0,0,1-3.441-2.661C63.4,71,64.743,56.183,74.824,44.453a2.62,2.62,0,0,1-1.432-3.087A86.013,86.013,0,0,1,80.081,25.32c5.579-10.315,12.31-17.6,20.006-21.663,8.077-4.261,17-4.8,26.517-1.611a4.415,4.415,0,0,0,2.792,0c9.517-3.192,18.439-2.65,26.517,1.611,7.7,4.06,14.427,11.348,20.006,21.663a86.014,86.014,0,0,1,6.687,16.039,2.62,2.62,0,0,1-1.43,3.094C191.257,56.184,192.6,71,192.733,72.87a2.615,2.615,0,0,1-3.445,2.661l-.211-.07c5.284,13.622,3.258,30.039,2.736,33.547a2.609,2.609,0,0,1-4.808.976,42.821,42.821,0,0,1-13.859,27.9,2.615,2.615,0,0,1-4.295-2.432c.03-.164.057-.328.083-.491a49.7,49.7,0,0,1-17.566,14.49,45.655,45.655,0,0,0-17.4,15.964A7.106,7.106,0,0,1,128,168.661ZM84.8,124a2.594,2.594,0,0,1,2.385,1.567c.893,2.047,6.032,12.59,19.68,19.413a50.654,50.654,0,0,1,19.352,17.706,2.112,2.112,0,0,0,3.56,0,50.644,50.644,0,0,1,19.352-17.705c13.644-6.822,18.787-17.368,19.68-19.412a2.612,2.612,0,0,1,4.972.624,31.985,31.985,0,0,1,.355,3.248,37.123,37.123,0,0,0,7.671-27.613,2.614,2.614,0,0,1,4.264-2.351,16.233,16.233,0,0,1,1.483,1.423c.36-7.679-.159-19.372-5.306-28.153a2.615,2.615,0,0,1,3.093-3.8l1.934.645c-1.046-6.045-4.309-18-14.272-26.164a2.615,2.615,0,0,1,2.079-4.606l1.51.252c-2.677-7.426-9.925-24.088-23.015-30.994-6.822-3.6-14.423-4.033-22.594-1.292a9.444,9.444,0,0,1-5.972,0c-8.172-2.742-15.774-2.306-22.594,1.292-13.088,6.9-20.336,23.564-23.014,30.994l1.5-.25A2.614,2.614,0,0,1,83,43.424c-9.964,8.167-13.229,20.12-14.275,26.167l1.944-.648a2.615,2.615,0,0,1,3.081,3.808c-5.148,8.781-5.665,20.473-5.305,28.15a16.228,16.228,0,0,1,1.479-1.421,2.615,2.615,0,0,1,4.27,2.347,37.113,37.113,0,0,0,7.67,27.614,32.047,32.047,0,0,1,.355-3.249,2.6,2.6,0,0,1,2.253-2.171A2.711,2.711,0,0,1,84.8,124Zm1.338,10.117,0,.005ZM72.254,73.685l-.013,0Zm-7.125-2.9-.007,0Zm125.737,0,.007,0Zm-4.308-.58.014.024Zm-117.122.012-.005.008ZM176.174,39.558l0,0Z"/><path d="M162.168,60.328a14.575,14.575,0,0,0-7.417-7.416s3.709-2.649,7.417-2.119c0,0-3.179-6.357-13.773-7.416a14.67,14.67,0,0,1,6.356-7.417s-7.416-2.119-12.713,0A43.129,43.129,0,0,1,144.687,25.9s-6.887.53-10.065,5.827l-6.887-6.356-6.357,6.356c-3.178-5.3-10.065-5.827-10.065-5.827a43.129,43.129,0,0,1,2.649,10.065c-5.3-2.119-12.713,0-12.713,0a14.67,14.67,0,0,1,6.356,7.417c-10.594,1.059-13.773,7.416-13.773,7.416,3.708-.53,7.417,2.119,7.417,2.119a14.575,14.575,0,0,0-7.417,7.416s4.238-1.06,4.238,2.119-7.416,19.07,0,24.367,7.416,10.6,8.476,21.19,21.189,9.535,21.189,9.535S148.4,118.6,149.454,108s1.06-15.892,8.476-21.19,0-21.189,0-24.367S162.168,60.328,162.168,60.328Z" fill="#f9d0b4"/><path d="M226.094,214.423a7.727,7.727,0,0,1-1.139-5.242c.809-5.482,2.445-17.275,2.445-23.071,0,0,0-20.217-5.776-25.993H227.4s-3.851-16.366-20.217-24.068L212,133.161a79.026,79.026,0,0,0-29.341-14.372A41.235,41.235,0,0,1,171.5,136a.115.115,0,0,1-.188-.111,29.058,29.058,0,0,0,0-9.3.112.112,0,0,0-.214-.028C170.174,128.7,164.7,140,150.25,147.217a48.041,48.041,0,0,0-18.376,16.835,4.613,4.613,0,0,1-7.748,0,48.041,48.041,0,0,0-18.376-16.835C91.305,140,85.826,128.7,84.9,126.569a.112.112,0,0,0-.214.028,29.058,29.058,0,0,0,0,9.3A.115.115,0,0,1,84.5,136a41.235,41.235,0,0,1-11.156-17.215A79.026,79.026,0,0,0,44,133.161l4.814,2.888c-16.366,7.7-20.217,24.068-20.217,24.068h5.776C28.6,165.893,28.6,186.11,28.6,186.11c0,5.8,1.636,17.589,2.445,23.071a7.727,7.727,0,0,1-1.139,5.242c-9.536,15.183-9.97,39.077-9.97,39.077H236.064S235.63,229.606,226.094,214.423Z" fill="#b77035"/><path d="M146.049,65.488c-3.275.93-6.446,2.354-9,3.095a4.592,4.592,0,0,0-.211,2.4c.516,2.8,3.556,4.592,6.789,4s5.438-3.35,4.922-6.153A4.843,4.843,0,0,0,146.049,65.488Z" fill="#edf4fc"/><path d="M109.451,65.488c3.275.93,6.446,2.354,9,3.095a4.592,4.592,0,0,1,.211,2.4c-.516,2.8-3.556,4.592-6.789,4s-5.438-3.35-4.922-6.153A4.843,4.843,0,0,1,109.451,65.488Z" fill="#edf4fc"/><path d="M212.705,32.882a11.1,11.1,0,0,1-8.9-8.716.2.2,0,0,0-.395,0,11.1,11.1,0,0,1-8.9,8.716.2.2,0,0,0,0,.387,11.1,11.1,0,0,1,8.9,8.717.2.2,0,0,0,.395,0,11.1,11.1,0,0,1,8.9-8.717A.2.2,0,0,0,212.705,32.882Z" fill="#f5c84c"/><path d="M33.941,114.117h-2.33v-2.33a3.158,3.158,0,1,0-6.315,0v2.33H22.967a3.157,3.157,0,0,0,0,6.314H25.3v2.33a3.158,3.158,0,1,0,6.315,0v-2.33h2.33a3.157,3.157,0,0,0,0-6.314Z" fill="#70d6f9"/><circle cx="16.662" cy="148.377" r="3.377" fill="#f5c84c"/><circle cx="226.662" cy="129.377" r="3.377" fill="#87d147"/><circle cx="58.662" cy="38.377" r="3.377" fill="#ef4460"/><circle cx="185.662" cy="12.377" r="3.377" fill="#70d6f9"/><path d="M126.206,120.071c-5.262,0-21.057-.914-22.148-11.818l-.207-2.125c-.862-8.932-1.255-13.008-7.234-17.279-7.057-5.041-3.853-16.207-1.938-22.878.342-1.194.759-2.645.866-3.306a4.221,4.221,0,0,0-1.106.088A2.5,2.5,0,0,1,91.511,59.4a17.812,17.812,0,0,1,4.419-6.072,5.541,5.541,0,0,0-1.744-.06,2.5,2.5,0,0,1-2.59-3.593c.138-.276,3.144-6.084,12.145-8.192a11.591,11.591,0,0,0-3.706-3.337,2.5,2.5,0,0,1,.527-4.589,29.789,29.789,0,0,1,10.25-.9,41.038,41.038,0,0,0-1.82-5.835,2.5,2.5,0,0,1,2.513-3.421,17.5,17.5,0,0,1,10.09,4.568l4.373-4.373a2.5,2.5,0,0,1,3.463-.069l4.9,4.52A17.461,17.461,0,0,1,144.5,23.4a2.5,2.5,0,0,1,2.513,3.421,40.948,40.948,0,0,0-1.822,5.836,29.82,29.82,0,0,1,10.251.9,2.5,2.5,0,0,1,.528,4.589,11.568,11.568,0,0,0-3.706,3.337c9,2.108,12.007,7.916,12.145,8.192a2.5,2.5,0,0,1-2.59,3.593,5.544,5.544,0,0,0-1.744.06,17.823,17.823,0,0,1,4.419,6.071,2.5,2.5,0,0,1-2.913,3.358,4.215,4.215,0,0,0-1.109-.093c.116.734.52,2.142.854,3.307,1.914,6.671,5.119,17.837-1.938,22.878-5.98,4.271-6.372,8.347-7.234,17.279l-.208,2.125c-1.246,12.454-22.166,11.874-24.2,11.789C127.486,120.053,126.951,120.071,126.206,120.071ZM98.091,58.25a4.458,4.458,0,0,1,2.479,4.2,20.468,20.468,0,0,1-1.085,4.9c-1.449,5.047-4.145,14.442.038,17.43,7.831,5.594,8.386,11.343,9.305,20.868l.206,2.107c.671,6.711,13.965,7.527,18.57,7.287a2.467,2.467,0,0,1,.258,0c4.745.238,18.435-.594,19.105-7.287l.2-2.107c.919-9.525,1.474-15.274,9.305-20.868,4.183-2.988,1.487-12.383.039-17.43a20.434,20.434,0,0,1-1.086-4.9,4.458,4.458,0,0,1,2.479-4.2,10.657,10.657,0,0,0-4.087-3.017,2.5,2.5,0,0,1-.524-4.356,16.029,16.029,0,0,1,3.792-1.919,18.114,18.114,0,0,0-8.944-3.094,2.5,2.5,0,0,1-2.124-3.278,16.952,16.952,0,0,1,2.966-5.032,14.319,14.319,0,0,0-6.021.728,2.5,2.5,0,0,1-3.413-2.6,42.078,42.078,0,0,1,1.27-6.143,9.072,9.072,0,0,0-4.058,3.467,2.5,2.5,0,0,1-3.839.551l-5.122-4.728-4.659,4.658a2.5,2.5,0,0,1-3.911-.481,9.077,9.077,0,0,0-4.058-3.463,42.513,42.513,0,0,1,1.27,6.139,2.5,2.5,0,0,1-3.414,2.6,14.35,14.35,0,0,0-6.022-.728,16.887,16.887,0,0,1,2.966,5.032,2.5,2.5,0,0,1-2.123,3.278,18.115,18.115,0,0,0-8.924,3.1,16.072,16.072,0,0,1,3.772,1.913,2.5,2.5,0,0,1-.525,4.356A10.663,10.663,0,0,0,98.091,58.25Z"/><path d="M127.751,92.687a2.5,2.5,0,0,1,0-5,6.672,6.672,0,0,0,6.013-3.819,5.409,5.409,0,0,1,9.657-.171l.076.151a2.5,2.5,0,0,1-4.484,2.21.4.4,0,0,0-.4-.248.319.319,0,0,0-.324.185A11.693,11.693,0,0,1,127.751,92.687Z"/><path d="M127.749,92.687A11.694,11.694,0,0,1,117.21,86a.318.318,0,0,0-.324-.185.359.359,0,0,0-.373.2,2.521,2.521,0,0,1-3.36,1.162A2.476,2.476,0,0,1,112,83.848l.078-.153a5.409,5.409,0,0,1,9.656.173,6.671,6.671,0,0,0,6.013,3.819,2.5,2.5,0,0,1,0,5Z"/><path d="M136.16,104.821a2.474,2.474,0,0,1-.82-.139,27.476,27.476,0,0,0-15.179,0,2.5,2.5,0,1,1-1.641-4.723,32.32,32.32,0,0,1,18.46,0,2.5,2.5,0,0,1-.82,4.862Z"/><path d="M136.16,54.821a2.474,2.474,0,0,1-.82-.139,27.476,27.476,0,0,0-15.179,0,2.5,2.5,0,1,1-1.641-4.723,32.32,32.32,0,0,1,18.46,0,2.5,2.5,0,0,1-.82,4.862Z"/><path d="M122.866,44.677a2.5,2.5,0,0,1-.679-4.906,23.566,23.566,0,0,1,11.126,0,2.5,2.5,0,1,1-1.361,4.811,18.742,18.742,0,0,0-8.4,0A2.523,2.523,0,0,1,122.866,44.677Z"/><path d="M134.7,71.518a4.984,4.984,0,0,1-3.777-1.532c-2.324-2.47-1.35-6.668-1.131-7.484a2.5,2.5,0,0,1,4.832,1.288,5.571,5.571,0,0,0-.085,2.718,2.351,2.351,0,0,0,.772-.062,36.382,36.382,0,0,0,4.725-1.545,39.9,39.9,0,0,1,9.868-2.719,2.5,2.5,0,0,1,.477,4.978,36.186,36.186,0,0,0-8.6,2.427,39.407,39.407,0,0,1-5.468,1.758A8.041,8.041,0,0,1,134.7,71.518Z"/><path d="M120.8,71.518a8.048,8.048,0,0,1-1.612-.173,39.449,39.449,0,0,1-5.468-1.758,36.16,36.16,0,0,0-8.6-2.427,2.5,2.5,0,0,1,.477-4.978,39.892,39.892,0,0,1,9.868,2.719,36.389,36.389,0,0,0,4.726,1.545,2.379,2.379,0,0,0,.771.062,5.638,5.638,0,0,0-.082-2.711,2.5,2.5,0,1,1,4.829-1.295c.219.817,1.194,5.015-1.131,7.484A4.984,4.984,0,0,1,120.8,71.518Z"/><path d="M75.289,256a2.5,2.5,0,0,1-2.141-3.786c3.537-5.9,3.473-14.874,3.056-20.1l-.375.281a2.5,2.5,0,0,1-4-2c0-6.717-1.639-14.344-2.747-18.732l-2.316,1.894a2.5,2.5,0,0,1-3.954-1.144c-6.885-20.653-3.115-37.25-2.951-37.947a2.5,2.5,0,0,1,4.868,1.144c-.051.223-3.151,14.145,1.754,31.719l2.412-1.974a2.5,2.5,0,0,1,3.973,1.2,103.7,103.7,0,0,1,3.739,19.007l.073-.055a2.5,2.5,0,0,1,3.962,1.565c.124.706,2.979,17.405-3.207,27.714A2.5,2.5,0,0,1,75.289,256Z"/><path d="M180.71,256a2.5,2.5,0,0,1-2.146-1.214c-6.184-10.309-3.331-27.008-3.206-27.714a2.5,2.5,0,0,1,3.962-1.565l.073.054a103.565,103.565,0,0,1,3.74-19.006,2.5,2.5,0,0,1,3.972-1.2l2.413,1.974c4.918-17.622,1.787-31.573,1.753-31.721a2.5,2.5,0,0,1,4.868-1.142c.164.7,3.933,17.294-2.95,37.947a2.5,2.5,0,0,1-3.955,1.144l-2.314-1.894c-1.109,4.393-2.749,12.025-2.749,18.732a2.5,2.5,0,0,1-4,2l-.374-.281c-.418,5.226-.482,14.2,3.055,20.1A2.5,2.5,0,0,1,180.71,256Z"/><path d="M236.064,256H19.936a2.5,2.5,0,0,1-2.5-2.545c.018-1,.56-24.769,10.353-40.362a5.245,5.245,0,0,0,.783-3.546c-.924-6.255-2.472-17.616-2.472-23.437,0-1.8.126-15.305,3.755-23.493H28.6a2.5,2.5,0,0,1-2.433-3.073,41.168,41.168,0,0,1,17.611-23.6l-1.061-.636a2.5,2.5,0,0,1-.333-4.049,80.907,80.907,0,0,1,30.358-14.893A2.5,2.5,0,0,1,75.716,118a39.078,39.078,0,0,0,6.144,11.461,31.994,31.994,0,0,1,.356-3.269,2.612,2.612,0,0,1,4.972-.625c.893,2.047,6.034,12.591,19.68,19.414a50.652,50.652,0,0,1,19.352,17.705,2.112,2.112,0,0,0,3.56,0,50.644,50.644,0,0,1,19.352-17.705c13.645-6.823,18.787-17.368,19.68-19.412a2.612,2.612,0,0,1,4.972.624,31.933,31.933,0,0,1,.356,3.268A39.07,39.07,0,0,0,180.284,118a2.5,2.5,0,0,1,2.975-1.637,80.9,80.9,0,0,1,30.356,14.893,2.5,2.5,0,0,1-.333,4.049l-1.06.636a41.183,41.183,0,0,1,17.612,23.6,2.5,2.5,0,0,1-2.434,3.073h-1.255c3.63,8.188,3.755,21.693,3.755,23.493,0,5.827-1.548,17.184-2.471,23.436a5.241,5.241,0,0,0,.782,3.547c9.793,15.593,10.335,39.358,10.353,40.362a2.5,2.5,0,0,1-2.5,2.545ZM22.558,251H233.44c-.419-6.438-2.193-23.671-9.463-35.248h0a10.245,10.245,0,0,1-1.5-6.937c.727-4.923,2.418-16.992,2.418-22.7,0-7.419-1.375-20.557-5.044-24.225a2.5,2.5,0,0,1,1.768-4.268h2.3c-1.94-4.834-6.932-14.191-17.8-19.3a2.5,2.5,0,0,1-.222-4.406l1.632-.979a79.326,79.326,0,0,0-23.306-11.135,43.971,43.971,0,0,1-11.076,16.094,2.615,2.615,0,0,1-4.291-2.455c.03-.157.056-.313.081-.47a49.691,49.691,0,0,1-17.568,14.492,45.655,45.655,0,0,0-17.4,15.964,7.112,7.112,0,0,1-11.936,0,45.641,45.641,0,0,0-17.4-15.965,49.7,49.7,0,0,1-17.567-14.49c.026.16.053.32.082.48a2.614,2.614,0,0,1-4.3,2.44,43.92,43.92,0,0,1-11.073-16.091,79.022,79.022,0,0,0-23.311,11.132l1.635.982a2.5,2.5,0,0,1-.222,4.406,36.021,36.021,0,0,0-17.812,19.3h2.307a2.5,2.5,0,0,1,1.768,4.268c-3.668,3.668-5.041,16.806-5.044,24.226,0,5.706,1.691,17.779,2.418,22.705a10.244,10.244,0,0,1-1.495,6.936C24.741,227.347,22.974,244.565,22.558,251ZM173.776,136.317l-.005.027Zm-87.635-2.2,0,.005Z"/><path d="M142.4,77.593a7.907,7.907,0,0,1-8.017-6.158,7.143,7.143,0,0,1,.317-3.7,2.5,2.5,0,0,1,1.656-1.555c1.085-.315,2.35-.785,3.688-1.283,1.622-.6,3.46-1.287,5.324-1.816a2.5,2.5,0,0,1,1.9.219,7.367,7.367,0,0,1,3.747,5.074,7.266,7.266,0,0,1-1.561,5.917,8.9,8.9,0,0,1-5.367,3.145A9.241,9.241,0,0,1,142.4,77.593Zm-3.106-7.1c0,.013,0,.027.007.04.261,1.418,2.037,2.331,3.879,1.991a3.957,3.957,0,0,0,2.366-1.351,2.389,2.389,0,0,0,.548-1.89,2.08,2.08,0,0,0-.525-1.035c-1.279.409-2.546.881-3.782,1.34C140.925,69.905,140.093,70.215,139.292,70.49Z"/><path d="M113.1,77.593a9.339,9.339,0,0,1-1.685-.154c-4.584-.844-7.692-4.91-6.928-9.064a7.371,7.371,0,0,1,3.747-5.073,2.5,2.5,0,0,1,1.9-.219c1.866.529,3.7,1.213,5.325,1.816,1.338.5,2.6.968,3.687,1.283a2.5,2.5,0,0,1,1.654,1.553,7.117,7.117,0,0,1,.319,3.7A7.907,7.907,0,0,1,113.1,77.593Zm-3.17-9.348a2.1,2.1,0,0,0-.526,1.035c-.261,1.418,1.075,2.9,2.916,3.241s3.617-.573,3.879-1.991l.006-.04c-.8-.275-1.632-.584-2.492-.9C112.48,69.126,111.213,68.654,109.933,68.245Z"/><path d="M97.723,209.464a24.747,24.747,0,0,1-10.42-2.3L71.51,199.832a2.5,2.5,0,0,1,2.1-4.536l15.794,7.333a19.762,19.762,0,0,0,18.234-.834l14.3-8.3a7.158,7.158,0,0,0,3.553-6.172V177.5a2.5,2.5,0,0,1,5,0v9.818a12.176,12.176,0,0,1-6.042,10.5l-14.3,8.306A24.75,24.75,0,0,1,97.723,209.464Z"/><path d="M158.276,209.464a24.756,24.756,0,0,1-12.43-3.344l-14.3-8.306a12.175,12.175,0,0,1-6.043-10.5V180.5a2.5,2.5,0,0,1,5,0v6.818a7.157,7.157,0,0,0,3.554,6.172l14.3,8.3a19.759,19.759,0,0,0,18.234.834l15.794-7.333a2.5,2.5,0,0,1,2.105,4.536L168.7,207.165A24.744,24.744,0,0,1,158.276,209.464Z"/><path d="M111.922,234.975c-1.263,0-2.486-.052-3.631-.135a20.852,20.852,0,0,1-17.145-11.615,2.5,2.5,0,1,1,4.49-2.2,15.837,15.837,0,0,0,13.016,8.827c7,.507,12.268-.533,14.845-2.93a6.565,6.565,0,0,0,2-5.1,2.5,2.5,0,0,1,5,0,11.451,11.451,0,0,1-3.6,8.759C123.173,234.053,117.208,234.975,111.922,234.975Z"/><path d="M144.078,234.975c-5.286,0-11.251-.922-14.98-4.391a11.451,11.451,0,0,1-3.6-8.759V209.779a2.5,2.5,0,0,1,5,0v12.046a6.565,6.565,0,0,0,2,5.1c2.576,2.4,7.854,3.441,14.846,2.93a15.836,15.836,0,0,0,13.015-8.827,2.5,2.5,0,1,1,4.49,2.2A20.853,20.853,0,0,1,147.71,234.84C146.565,234.923,145.341,234.975,144.078,234.975Z"/></svg>