<svg xmlns="http://www.w3.org/2000/svg" viewBox="0 0 256 256"><title>icon</title><rect x="59.459" y="89.522" width="131.183" height="15.373" rx="6.148" ry="6.148" fill="#818182"/><path d="M182.844,117.694a10.928,10.928,0,0,1-4.7-12.8H71.955a10.928,10.928,0,0,1-4.7,12.8C46.606,130.135,33.41,149.1,33.41,170.349c0,37.48,41.029,67.863,91.64,67.863s91.64-30.383,91.64-67.863C216.69,149.1,203.494,130.135,182.844,117.694Z" fill="#5b5d60"/><path d="M125.05,238.212q-3.883,0-7.686-.239v2.2a7.687,7.687,0,0,0,15.373,0v-2.2Q128.935,238.207,125.05,238.212Z" fill="#414344"/><path d="M184.492,241.2a12.134,12.134,0,0,1-10.311-5.8l-3.7-6.1a107.859,107.859,0,0,1-11.832,4.208l5.024,8.275A24.5,24.5,0,0,0,184.492,253.5a6.149,6.149,0,1,0,0-12.3Z" fill="#414344"/><path d="M79.623,229.3l-3.7,6.1a12.136,12.136,0,0,1-10.312,5.8,6.149,6.149,0,0,0,0,12.3,24.5,24.5,0,0,0,20.824-11.718l5.024-8.275A107.95,107.95,0,0,1,79.623,229.3Z" fill="#414344"/><path d="M200.536,28.514a8.062,8.062,0,0,0-10.241.132c-20.52,17.367-35.3,42.516-44.2,60.876h11.442C172.71,63.987,190.027,48.8,200.273,41.3A8.053,8.053,0,0,0,200.536,28.514Z" fill="#b77035"/><path d="M144.928,29.52a3.371,3.371,0,0,1-3.191-1.657,6.5,6.5,0,1,0-8.313,9.077,3.4,3.4,0,0,1,2.133,2.932,10,10,0,1,0,9.371-10.352Z" fill="#87d147"/><circle cx="124.55" cy="62.5" r="5" fill="#87d147"/><circle cx="98.05" cy="42" r="9.5" fill="#87d147"/><circle cx="117.05" cy="15" r="4.5" fill="#87d147"/><path d="M118.094,89.522a17.986,17.986,0,0,0-35.088,0Z" fill="#87d147"/><path d="M145.525,52a12.773,12.773,0,0,1-2.084-.171,12.489,12.489,0,0,1-10.382-11.863c-.013-.339-.354-.608-.643-.735a9,9,0,1,1,11.51-12.572.9.9,0,0,0,.845.368,12.336,12.336,0,0,1,9.314,3.388A12.475,12.475,0,0,1,145.525,52Zm-9.486-25a4.243,4.243,0,0,0-.622.047,4,4,0,0,0-.983,7.605,5.879,5.879,0,0,1,3.622,5.128,7.5,7.5,0,1,0,12.6-5.733,7.372,7.372,0,0,0-5.568-2.033h0a5.879,5.879,0,0,1-5.538-2.946A3.975,3.975,0,0,0,136.039,27Zm8.889,2.519h0Z"/><path d="M124.55,70a7.5,7.5,0,1,1,7.5-7.5A7.509,7.509,0,0,1,124.55,70Zm0-10a2.5,2.5,0,1,0,2.5,2.5A2.5,2.5,0,0,0,124.55,60Z"/><path d="M98.05,54a12,12,0,1,1,12-12A12.014,12.014,0,0,1,98.05,54Zm0-19a7,7,0,1,0,7,7A7.008,7.008,0,0,0,98.05,35Z"/><path d="M117.05,22a7,7,0,1,1,7-7A7.008,7.008,0,0,1,117.05,22Zm0-9a2,2,0,1,0,2,2A2,2,0,0,0,117.05,13Z"/><path d="M219.991,109.487h-2.33v-2.33a3.157,3.157,0,0,0-6.314,0v2.33h-2.329a3.158,3.158,0,1,0,0,6.315h2.329v2.33a3.157,3.157,0,0,0,6.314,0V115.8h2.33a3.158,3.158,0,1,0,0-6.315Z" fill="#70d6f9"/><path d="M77.755,63.654a11.1,11.1,0,0,1-8.9-8.717.2.2,0,0,0-.394,0,11.1,11.1,0,0,1-8.9,8.717.2.2,0,0,0,0,.386,11.1,11.1,0,0,1,8.9,8.717.2.2,0,0,0,.394,0,11.1,11.1,0,0,1,8.9-8.717A.2.2,0,0,0,77.755,63.654Z" fill="#f5c84c"/><circle cx="46.712" cy="80.494" r="3.377" fill="#fc657e"/><circle cx="143.712" cy="3.377" r="3.377" fill="#87d147"/><circle cx="221.712" cy="135.377" r="3.377" fill="#f5c84c"/><path d="M184.494,107.4H65.607a8.658,8.658,0,0,1-8.648-8.648V95.67a8.658,8.658,0,0,1,8.648-8.648H184.494a8.658,8.658,0,0,1,8.648,8.648v3.077A8.658,8.658,0,0,1,184.494,107.4ZM65.607,92.022a3.652,3.652,0,0,0-3.648,3.648v3.077a3.653,3.653,0,0,0,3.648,3.648H184.494a3.653,3.653,0,0,0,3.648-3.648V95.67a3.652,3.652,0,0,0-3.648-3.648Z"/><path d="M125.05,240.712c-51.908,0-94.139-31.564-94.139-70.362,0-21.4,12.777-41.376,35.056-54.8a8.382,8.382,0,0,0,3.614-9.873,2.5,2.5,0,0,1,2.374-3.284H178.146a2.5,2.5,0,0,1,2.374,3.284,8.382,8.382,0,0,0,3.614,9.873h0c22.279,13.422,35.056,33.395,35.056,54.8C219.19,209.148,176.959,240.712,125.05,240.712ZM74.986,107.4a13.322,13.322,0,0,1-6.439,12.44c-20.741,12.5-32.636,30.907-32.636,50.515,0,36.041,39.987,65.362,89.139,65.362s89.14-29.321,89.14-65.362c0-19.607-11.9-38.019-32.636-50.515a13.318,13.318,0,0,1-6.439-12.44Z"/><path d="M199.994,190.438a2.5,2.5,0,0,1-2.293-3.493,39.586,39.586,0,0,0,3.322-15.787c0-11.571-5.117-22.612-14.8-31.929a2.5,2.5,0,0,1,3.467-3.6c10.685,10.282,16.333,22.569,16.333,35.532a44.549,44.549,0,0,1-3.733,17.772A2.5,2.5,0,0,1,199.994,190.438Z"/><path d="M125.05,250.363a10.2,10.2,0,0,1-10.186-10.186v-2.2a2.5,2.5,0,0,1,2.653-2.5,121.759,121.759,0,0,0,15.066,0,2.5,2.5,0,0,1,2.654,2.5v2.2A10.2,10.2,0,0,1,125.05,250.363Zm-5.169-9.758a5.187,5.187,0,0,0,10.338,0C126.736,240.748,123.365,240.748,119.881,240.605Z"/><path d="M184.492,256a27.017,27.017,0,0,1-22.96-12.92l-5.024-8.275a2.5,2.5,0,0,1,1.436-3.7A105.54,105.54,0,0,0,169.5,227a2.5,2.5,0,0,1,3.113,1l3.7,6.1a9.619,9.619,0,0,0,8.174,4.6,8.649,8.649,0,1,1,0,17.3Zm-22.045-21.047,3.359,5.532A21.986,21.986,0,0,0,184.492,251a3.649,3.649,0,1,0,0-7.3,14.648,14.648,0,0,1-12.448-7l-2.593-4.272C167.164,233.339,164.822,234.184,162.447,234.953Z"/><path d="M65.608,256a8.649,8.649,0,0,1,0-17.3,9.62,9.62,0,0,0,8.175-4.6l3.7-6.1a2.5,2.5,0,0,1,3.113-1,105.554,105.554,0,0,0,11.558,4.11,2.5,2.5,0,0,1,1.436,3.7l-5.024,8.274A27.017,27.017,0,0,1,65.608,256ZM80.65,232.425,78.057,236.7A14.648,14.648,0,0,1,65.608,243.7a3.649,3.649,0,0,0,0,7.3A21.988,21.988,0,0,0,84.3,240.484l3.359-5.531C85.279,234.185,82.937,233.339,80.65,232.425Z"/><path d="M118.094,92.022H83.006a2.5,2.5,0,0,1-2.438-3.051,20.486,20.486,0,0,1,39.965,0,2.5,2.5,0,0,1-2.439,3.051Zm-31.625-5h28.162a15.5,15.5,0,0,0-28.162,0Z"/><path d="M157.536,92.022H146.094a2.5,2.5,0,0,1-2.25-3.59c8.906-18.371,23.913-43.986,44.835-61.7a10.584,10.584,0,0,1,13.419-.175h0a10.554,10.554,0,0,1-.35,16.758c-9.149,6.693-26.78,21.761-42.064,47.479A2.5,2.5,0,0,1,157.536,92.022Zm-7.418-5h6C170.886,62.589,187.433,47.6,198.8,39.285a5.555,5.555,0,0,0,.178-8.819,5.574,5.574,0,0,0-7.065.088C172.974,46.581,158.966,69.456,150.118,87.022Z"/></svg>