<svg xmlns="http://www.w3.org/2000/svg" viewBox="0 0 256 256"><title>icon</title><circle cx="182.974" cy="42.078" r="6.283" fill="#70d6f9"/><path d="M240.511,69.423a5.155,5.155,0,0,0-6.386-4.51l-18.248,4.562a15.362,15.362,0,0,1-5.445.366c-9.256-1.033-39.3-4.867-57.55-12.861a27.8,27.8,0,0,0-6.331-1.941,1.025,1.025,0,0,1-.507-1.77c5.96-5.49,9.414-18.194,8.433-27.136a26.645,26.645,0,0,0-53.12,3.009c0,7.752,3.315,19.261,8.6,24.128a1.024,1.024,0,0,1-.508,1.769,27.8,27.8,0,0,0-6.331,1.941c-18.25,7.994-48.294,11.828-57.55,12.861a15.362,15.362,0,0,1-5.445-.366L21.875,64.913a5.155,5.155,0,0,0-6.386,4.51c-1.243,13.392,3.5,26.476,6.918,33.918a5.154,5.154,0,0,0,8.219,1.605L45.336,91.1a15.318,15.318,0,0,1,6.7-3.7c11.3-2.887,26.248-3.74,34.1-3.993a7.384,7.384,0,0,1,7.361,5.519c3.812,14.335,3.4,39.541,3.271,44.754a13.357,13.357,0,0,1-.185,1.882c-4.524,26.793-3.181,43.03-2.041,50.133a10.847,10.847,0,0,1-1.047,6.825c-2.373,4.446-1.171,9.686-.2,12.5a11.055,11.055,0,0,1,.5,5.437c-1.693,10.042-9.8,24.541-14.1,31.716a3.677,3.677,0,0,0,2.358,5.484l25.965,5.77a3.232,3.232,0,0,0,3.905-3.537c-1.68-15.015-.46-31.886.229-39.172a11.451,11.451,0,0,1,2.325-5.7c2.488-3.363,2.366-7.365,1.8-10.187a10.954,10.954,0,0,1,.9-6.608c2.667-5.976,1.776-15.645,1.1-20.432a4.842,4.842,0,0,1,1.755-4.36,21.989,21.989,0,0,0,5.4-7.777,2.817,2.817,0,0,1,5.16,0,21.989,21.989,0,0,0,5.4,7.777,4.844,4.844,0,0,1,1.755,4.36c-.691,4.893-1.606,14.891,1.285,20.829a9.946,9.946,0,0,1,.7,6.284c-.553,2.817-.652,6.78,1.815,10.114a11.451,11.451,0,0,1,2.325,5.7c.689,7.286,1.909,24.157.229,39.172a3.232,3.232,0,0,0,3.905,3.537l25.963-5.77a3.679,3.679,0,0,0,2.359-5.486c-4.28-7.138-12.318-21.518-14.07-31.551a10.765,10.765,0,0,1,.419-5.443c.974-2.764,2.265-8.106-.137-12.632a11.037,11.037,0,0,1-1.046-6.92c1.137-7.144,2.454-23.366-2.057-50.077a13.164,13.164,0,0,1-.182-1.859c-.13-5.2-.542-30.428,3.273-44.767a7.374,7.374,0,0,1,7.351-5.511c7.842.252,22.782,1.1,34.084,3.988a15.352,15.352,0,0,1,6.72,3.708l14.71,13.845a5.154,5.154,0,0,0,8.219-1.6C237.015,95.9,241.755,82.816,240.511,69.423Z" fill="#f5c84c"/><path d="M150.7,93.542v10.8a5.216,5.216,0,0,1-.966,3.029L160,105.009a108.577,108.577,0,0,1,2.018-14.069Z" fill="#edf4fc"/><path d="M48.907,88.614a15.648,15.648,0,0,1,3.273-1.253c7.963-2.016,17.693-3.029,25.483-3.54l3.079-19.856a325.943,325.943,0,0,1-35.177,5.876,14.932,14.932,0,0,1-1.508.088C44.446,74.352,45.584,81.949,48.907,88.614Z" fill="#edf4fc"/><path d="M86.114,83.406a7.382,7.382,0,0,1,4.532,1.377c-.279-6.435-5.857-13.1-10.418-17.5L77.663,83.821C80.9,83.608,83.817,83.48,86.114,83.406Z" fill="#edf4fc"/><path d="M118.189,185.067l-24.5-7.259c.217,3.3.536,5.928.845,7.859a11.96,11.96,0,0,1-1.207,7.171c-2.151,4.375-.983,9.433-.039,12.176a11.055,11.055,0,0,1,.5,5.437c-.095.565-.217,1.149-.351,1.74l18.326,3.055c.132-1.747.265-3.29.383-4.534a11.451,11.451,0,0,1,2.325-5.7c2.488-3.363,2.366-7.366,1.8-10.187a10.95,10.95,0,0,1,.9-6.607A17.483,17.483,0,0,0,118.189,185.067Z" fill="#edf4fc"/><path d="M118.189,185.067a42.83,42.83,0,0,0,.622-12.155l-19.6,6.533Z" fill="#edf4fc"/><path d="M207.093,88.614a15.648,15.648,0,0,0-3.273-1.253c-7.963-2.016-17.693-3.029-25.483-3.54l-3.079-19.856a325.943,325.943,0,0,0,35.177,5.876,14.932,14.932,0,0,0,1.508.088C211.554,74.352,210.416,81.949,207.093,88.614Z" fill="#edf4fc"/><path d="M169.886,83.406a7.382,7.382,0,0,0-4.532,1.377c.279-6.435,5.857-13.1,10.418-17.5l2.565,16.539C175.1,83.608,172.183,83.48,169.886,83.406Z" fill="#edf4fc"/><path d="M137.811,185.067l24.5-7.259c-.217,3.3-.536,5.928-.845,7.859a11.96,11.96,0,0,0,1.207,7.171c2.151,4.375.983,9.433.039,12.176a11.044,11.044,0,0,0-.5,5.437c.095.565.217,1.149.351,1.74l-18.326,3.055c-.132-1.747-.265-3.29-.383-4.534a11.451,11.451,0,0,0-2.325-5.7c-2.488-3.363-2.366-7.366-1.8-10.187a10.95,10.95,0,0,0-.9-6.607A17.483,17.483,0,0,1,137.811,185.067Z" fill="#edf4fc"/><path d="M137.811,185.067a42.794,42.794,0,0,1-.622-12.155l19.6,6.533Z" fill="#edf4fc"/><path d="M153.347,39.231a41.2,41.2,0,0,0,1.288-9.92c-20.4-1.437-37.384-10.8-46.972-17.369a26.52,26.52,0,0,0-6.034,13.451C111.361,31.033,130.823,40.175,153.347,39.231Z" fill="#edf4fc"/><path d="M149.1,49.529a35.886,35.886,0,0,0,4.252-10.3c-22.524.944-41.986-8.2-51.718-13.838a26.8,26.8,0,0,0-.272,3.749,43.216,43.216,0,0,0,2.073,12.363C113.344,45.679,130.257,51.059,149.1,49.529Z" fill="#edf4fc"/><path d="M142.376,27.483a86.834,86.834,0,0,0,9.823-9.468,26.833,26.833,0,0,0-6.46-8.718A90.213,90.213,0,0,1,127.17,22.583,93.122,93.122,0,0,0,142.376,27.483Z" fill="#edf4fc"/><path d="M93.584,192.268c-.084.191-.165.382-.258.57-1.939,3.943-1.181,8.436-.321,11.293l22.385-.634a13.466,13.466,0,0,0,.882-8.67,9.75,9.75,0,0,1-.086-3.2Z" fill="#edf4fc"/><path d="M162.416,192.268c.084.191.165.382.258.57,1.939,3.943,1.181,8.436.321,11.293L140.61,203.5a13.466,13.466,0,0,1-.882-8.67,9.75,9.75,0,0,0,.086-3.2Z" fill="#edf4fc"/><path d="M194.763,85.564c-4.052-.631-8.181-1.083-12.055-1.411l10.059-16.764c4.477.738,8.546,1.317,11.852,1.747Z" fill="#edf4fc"/><path d="M61.237,85.564c4.052-.631,8.181-1.083,12.054-1.411L63.233,67.389c-4.477.738-8.546,1.317-11.852,1.747Z" fill="#edf4fc"/><path d="M140.207,104.114V97.788a2.181,2.181,0,0,0-.771-1.66l-43.345,9.958c.373,4.629.572,9.283.67,13.451l46.2-10.613A5.556,5.556,0,0,1,140.207,104.114Z" fill="#edf4fc"/><path d="M93.757,89.977a107.341,107.341,0,0,1,2.334,16.109L129.984,98.3Z" fill="#edf4fc"/><path d="M160,105.009,96.761,119.537c.155,6.628.056,12.027,0,14.141a13.359,13.359,0,0,1-.129,1.468h44.537a5.192,5.192,0,0,1-.914-2.946v-6.959a5.219,5.219,0,0,1,10.438,0V132.2a5.185,5.185,0,0,1-.915,2.946h9.584a13.181,13.181,0,0,1-.129-1.468A281.291,281.291,0,0,1,160,105.009Z" fill="#edf4fc"/><path d="M139.1,71.31a11.48,11.48,0,0,0-9.9,5.847.923.923,0,0,1-1.133.382,6.38,6.38,0,1,0-2.3,12.328,6.362,6.362,0,0,0,2.308-.431.95.95,0,0,1,1.16.435,11.514,11.514,0,0,0,9.024,5.761,2.146,2.146,0,0,1,1.955,2.156v6.326a5.4,5.4,0,0,0,4.729,5.445,5.246,5.246,0,0,0,5.76-5.22V83.488C150.7,76.762,145.5,71.31,139.1,71.31Z" fill="#ef4460"/><rect x="140.258" y="120.022" width="10.438" height="17.397" rx="5.219" ry="5.219" fill="#ef4460"/><path d="M87.8,18.487H85.469v-2.33a3.158,3.158,0,0,0-6.315,0v2.33H76.825a3.158,3.158,0,1,0,0,6.315h2.329v2.33a3.158,3.158,0,0,0,6.315,0V24.8H87.8a3.158,3.158,0,1,0,0-6.315Z" fill="#70d6f9"/><path d="M192.562,139.882a11.1,11.1,0,0,1-8.9-8.716.2.2,0,0,0-.395,0,11.1,11.1,0,0,1-8.9,8.716.2.2,0,0,0,0,.387,11.1,11.1,0,0,1,8.9,8.717.2.2,0,0,0,.395,0,11.1,11.1,0,0,1,8.9-8.717A.2.2,0,0,0,192.562,139.882Z" fill="#f5c84c"/><circle cx="71.52" cy="44.494" r="3.377" fill="#f5c84c"/><circle cx="176.52" cy="169.494" r="3.377" fill="#70d6f9"/><circle cx="204.52" cy="46.494" r="3.377" fill="#87d147"/><circle cx="77.52" cy="209.494" r="3.377" fill="#ef4460"/><path d="M108.708,256a5.649,5.649,0,0,1-1.237-.136l-25.965-5.769a6.179,6.179,0,0,1-3.961-9.211c3.588-5.983,12.112-20.964,13.779-30.845a8.6,8.6,0,0,0-.4-4.208c-1.079-3.136-2.467-9.186.36-14.487a8.378,8.378,0,0,0,.784-5.252c-1.192-7.435-2.513-23.941,2.046-50.945a10.991,10.991,0,0,0,.151-1.528c.123-4.893.546-30.007-3.188-44.049A4.853,4.853,0,0,0,86.212,85.9c-7.789.25-22.506,1.092-33.559,3.916a12.878,12.878,0,0,0-5.6,3.1L32.34,106.766a7.654,7.654,0,0,1-12.205-2.38C16.187,95.8,11.743,82.721,13,69.191a7.654,7.654,0,0,1,9.481-6.7L40.729,67.05a12.888,12.888,0,0,0,4.563.306c8.784-.98,38.846-4.792,56.823-12.667a31.476,31.476,0,0,1,4.34-1.538c-4.793-6-7.6-16.414-7.6-24.008a29.145,29.145,0,0,1,58.1-3.283c.9,8.23-1.689,20.331-7.394,27.3a31.5,31.5,0,0,1,4.317,1.531c17.982,7.877,48.04,11.687,56.824,12.667a12.862,12.862,0,0,0,4.562-.306l18.248-4.562a7.654,7.654,0,0,1,9.481,6.7h0c1.257,13.53-3.187,26.608-7.136,35.2a7.654,7.654,0,0,1-12.2,2.379L208.95,92.921a12.876,12.876,0,0,0-5.624-3.106c-11.055-2.821-25.764-3.662-33.547-3.912a4.892,4.892,0,0,0-4.853,3.656c-3.738,14.048-3.314,39.168-3.191,44.061a10.887,10.887,0,0,0,.148,1.506c4.553,26.95,3.245,43.449,2.06,50.886a8.606,8.606,0,0,0,.786,5.355c2.846,5.363,1.4,11.471.288,14.634a8.317,8.317,0,0,0-.315,4.183c1.726,9.883,10.192,24.758,13.751,30.695a6.179,6.179,0,0,1-3.961,9.213l-25.963,5.769a5.732,5.732,0,0,1-6.931-6.255c1.673-14.954.394-32.017-.234-38.659a8.915,8.915,0,0,0-1.846-4.446c-3.024-4.088-2.9-8.827-2.258-12.082a7.51,7.51,0,0,0-.491-4.709c-3.143-6.453-2.3-16.725-1.513-22.272a2.368,2.368,0,0,0-.9-2.1,24.087,24.087,0,0,1-6.06-8.663.318.318,0,0,0-.6,0,24.092,24.092,0,0,1-6.06,8.662,2.367,2.367,0,0,0-.9,2.1c.757,5.362,1.6,15.325-1.293,21.8a8.608,8.608,0,0,0-.727,5.1c.657,3.278.8,8.05-2.242,12.164a8.91,8.91,0,0,0-1.845,4.447c-.629,6.639-1.909,23.7-.235,38.658A5.732,5.732,0,0,1,108.708,256ZM128,151.463a5.274,5.274,0,0,1,4.861,3.164,19.275,19.275,0,0,0,4.731,6.894,7.329,7.329,0,0,1,2.615,6.615c-.567,4.012-1.6,13.931,1.058,19.385a12.375,12.375,0,0,1,.9,7.862c-.445,2.267-.568,5.521,1.371,8.144a13.844,13.844,0,0,1,2.806,6.949c.641,6.8,1.949,24.269.223,39.686a.744.744,0,0,0,.245.654.69.69,0,0,0,.634.164l25.963-5.769a1.179,1.179,0,0,0,.757-1.76c-4.6-7.673-12.586-22.084-14.389-32.407a13.339,13.339,0,0,1,.524-6.7c.843-2.391,1.965-6.951.012-10.629a13.438,13.438,0,0,1-1.306-8.485c1.136-7.134,2.38-23.021-2.053-49.268a15.8,15.8,0,0,1-.216-2.212c-.126-5.013-.557-30.765,3.357-45.473a9.811,9.811,0,0,1,9.845-7.367c7.988.257,23.107,1.126,34.623,4.064a17.9,17.9,0,0,1,7.816,4.311l14.71,13.844a2.652,2.652,0,0,0,4.233-.827c3.025-6.576,7.915-19.562,6.7-32.644h0a2.593,2.593,0,0,0-1.1-1.9,2.662,2.662,0,0,0-2.189-.413L216.483,71.9a17.823,17.823,0,0,1-6.329.425c-8.961-1-39.647-4.9-58.275-13.055a25.476,25.476,0,0,0-5.763-1.77,3.523,3.523,0,0,1-1.765-6.069c5.025-4.629,8.595-16.323,7.64-25.025a24.145,24.145,0,0,0-48.134,2.737c0,7.3,3.132,17.995,7.793,22.289a3.524,3.524,0,0,1-1.767,6.069,25.43,25.43,0,0,0-5.762,1.769C85.5,67.427,54.808,71.326,45.846,72.326a17.887,17.887,0,0,1-6.329-.426L21.269,67.338a2.664,2.664,0,0,0-2.189.413,2.593,2.593,0,0,0-1.1,1.9c-1.215,13.082,3.675,26.067,6.7,32.643a2.653,2.653,0,0,0,4.234.828l14.71-13.844a17.881,17.881,0,0,1,7.792-4.305c11.515-2.942,26.644-3.812,34.638-4.069a9.893,9.893,0,0,1,9.857,7.375c3.909,14.7,3.48,40.447,3.354,45.459a15.8,15.8,0,0,1-.219,2.237c-4.44,26.3-3.183,42.188-2.038,49.319a13.4,13.4,0,0,1-1.311,8.4c-1.935,3.628-.858,8.139-.044,10.5a13.621,13.621,0,0,1,.6,6.667c-1.742,10.336-9.783,24.852-14.421,32.585a1.18,1.18,0,0,0,.757,1.759l25.965,5.769a.682.682,0,0,0,.635-.164.745.745,0,0,0,.244-.654c-1.727-15.426-.418-32.892.224-39.685a13.838,13.838,0,0,1,2.8-6.951c1.953-2.64,1.816-5.921,1.358-8.207a13.438,13.438,0,0,1,1.064-8.118c2.469-5.532,1.457-15.175.908-19.064a7.33,7.33,0,0,1,2.616-6.617,19.277,19.277,0,0,0,4.73-6.892A5.274,5.274,0,0,1,128,151.463Z"/><path d="M235.135,94.565a2.477,2.477,0,0,1-1.032-.225l-12.471-5.669A2.5,2.5,0,1,1,223.7,84.12l12.471,5.669a2.5,2.5,0,0,1-1.036,4.776Z"/><path d="M239.675,82.094a2.427,2.427,0,0,1-.414-.035l-6.8-1.134a2.5,2.5,0,1,1,.822-4.931l6.8,1.133a2.5,2.5,0,0,1-.408,4.967Z"/><path d="M20.865,94.565a2.5,2.5,0,0,1-1.036-4.776L32.3,84.12a2.5,2.5,0,1,1,2.068,4.551L21.9,94.34A2.477,2.477,0,0,1,20.865,94.565Z"/><path d="M16.325,82.094a2.5,2.5,0,0,1-.408-4.967l6.8-1.133a2.5,2.5,0,1,1,.822,4.931l-6.8,1.134A2.427,2.427,0,0,1,16.325,82.094Z"/><path d="M157.293,253.475a2.5,2.5,0,0,1-2.421-1.884l-3.219-12.66A2.5,2.5,0,0,1,156.5,237.7l3.219,12.659a2.5,2.5,0,0,1-2.425,3.117Z"/><path d="M166.545,249.885a2.5,2.5,0,0,1-2.424-1.894l-1.134-4.535a2.5,2.5,0,0,1,4.852-1.213l1.134,4.535a2.5,2.5,0,0,1-2.428,3.107Z"/><path d="M98.707,253.475a2.5,2.5,0,0,1-2.425-3.117L99.5,237.7a2.5,2.5,0,0,1,4.846,1.232l-3.22,12.66A2.5,2.5,0,0,1,98.707,253.475Z"/><path d="M89.455,249.885a2.5,2.5,0,0,1-2.428-3.107l1.134-4.535a2.5,2.5,0,0,1,4.852,1.213l-1.134,4.535A2.5,2.5,0,0,1,89.455,249.885Z"/><path d="M140.6,84.863a2.5,2.5,0,0,1-1.723-4.312L176.42,44.859a2.5,2.5,0,0,1,3.445,3.624L142.317,84.175A2.49,2.49,0,0,1,140.6,84.863Z"/><path d="M182.974,50.861a8.783,8.783,0,1,1,8.783-8.783A8.793,8.793,0,0,1,182.974,50.861Zm0-12.566a3.783,3.783,0,1,0,3.783,3.783A3.787,3.787,0,0,0,182.974,38.3Z"/><path d="M149.729,109.869a2.5,2.5,0,0,1-2.039-3.947,2.719,2.719,0,0,0,.506-1.583v-10.8a2.5,2.5,0,0,1,1.941-2.437l11.322-2.6a2.5,2.5,0,0,1,3,2.986,105.515,105.515,0,0,0-1.967,13.735,2.5,2.5,0,0,1-1.93,2.221l-10.271,2.359A2.487,2.487,0,0,1,149.729,109.869ZM153.2,95.532v8.475l4.481-1.029c.311-3.191.694-6.113,1.145-8.738Z"/><path d="M48.907,91.114a2.5,2.5,0,0,1-2.237-1.385c-3.574-7.168-4.732-15.345-5.1-19.582a2.5,2.5,0,0,1,2.459-2.718c.464-.006.876-.029,1.262-.072a324.294,324.294,0,0,0,34.89-5.828,2.5,2.5,0,0,1,3.035,2.819L80.134,84.2a2.5,2.5,0,0,1-2.307,2.111A145.787,145.787,0,0,0,52.8,89.785a13.267,13.267,0,0,0-2.752,1.056A2.505,2.505,0,0,1,48.907,91.114Zm-2.087-18.9a52.561,52.561,0,0,0,3.349,13.143q.7-.243,1.4-.42A142.966,142.966,0,0,1,75.5,81.465L77.71,67.2C64.93,69.955,52.6,71.549,46.82,72.215Z"/><path d="M90.646,87.283a2.5,2.5,0,0,1-1.453-.465,4.861,4.861,0,0,0-3-.914c-2.715.088-5.609.23-8.368.411a2.5,2.5,0,0,1-2.634-2.878L77.757,66.9a2.5,2.5,0,0,1,4.206-1.416C86.89,70.234,92.829,77.42,93.144,84.675a2.5,2.5,0,0,1-2.5,2.608Zm-8.726-14.6-1.312,8.457c1.828-.1,3.663-.177,5.425-.234h0a10.024,10.024,0,0,1,1.2.033A29.722,29.722,0,0,0,81.92,72.684Z"/><path d="M111.765,217.746a2.47,2.47,0,0,1-.411-.035l-18.328-3.054A2.5,2.5,0,0,1,91,211.639c.124-.545.237-1.084.325-1.605a8.6,8.6,0,0,0-.4-4.206c-1.042-3.025-2.406-8.877.159-14.093a9.479,9.479,0,0,0,.981-5.673c-.376-2.356-.677-5.153-.871-8.09a2.5,2.5,0,0,1,3.2-2.561l24.5,7.259a2.5,2.5,0,0,1,1.725,2.964,19.767,19.767,0,0,1-1.173,3.605,8.6,8.6,0,0,0-.727,5.1c.657,3.279.8,8.05-2.243,12.164a8.917,8.917,0,0,0-1.844,4.447c-.117,1.233-.249,2.758-.379,4.487a2.5,2.5,0,0,1-2.493,2.312Zm-15.411-7.6,13.137,2.189c.058-.673.114-1.295.167-1.856a13.846,13.846,0,0,1,2.8-6.949c1.954-2.641,1.817-5.922,1.359-8.208a13.438,13.438,0,0,1,1.064-8.118q.1-.216.188-.45l-18.59-5.507c.177,1.726.367,3.075.519,4.028a14.44,14.44,0,0,1-1.433,8.669c-1.765,3.592-.707,7.969.082,10.259A13.767,13.767,0,0,1,96.354,210.143Z"/><path d="M118.189,187.567a2.5,2.5,0,0,1-.71-.1L98.5,181.842a2.5,2.5,0,0,1-.081-4.768l19.6-6.533a2.5,2.5,0,0,1,3.285,2.195,44.275,44.275,0,0,1-.682,12.9,2.5,2.5,0,0,1-2.435,1.934Zm-10.648-8.262,8.665,2.567a41.135,41.135,0,0,0,.255-5.54Z"/><path d="M207.093,91.114a2.5,2.5,0,0,1-1.136-.273,13.281,13.281,0,0,0-2.751-1.056,145.815,145.815,0,0,0-25.033-3.47,2.5,2.5,0,0,1-2.307-2.111l-3.079-19.856a2.5,2.5,0,0,1,3.035-2.819,324.254,324.254,0,0,0,34.89,5.828c.386.043.8.066,1.262.072a2.5,2.5,0,0,1,2.459,2.719c-.455,5.177-1.709,12.777-5.1,19.581a2.5,2.5,0,0,1-2.237,1.385ZM180.5,81.465a143,143,0,0,1,23.932,3.473c.462.117.929.258,1.4.42a52.562,52.562,0,0,0,3.349-13.143c-5.785-.666-18.11-2.26-30.89-5.011Z"/><path d="M165.354,87.283a2.5,2.5,0,0,1-2.5-2.608c.315-7.255,6.254-14.441,11.181-19.193a2.5,2.5,0,0,1,4.206,1.416l2.565,16.539a2.5,2.5,0,0,1-2.634,2.878c-2.759-.181-5.653-.323-8.368-.411h0a4.888,4.888,0,0,0-3,.914A2.5,2.5,0,0,1,165.354,87.283Zm4.287-6.381c.108,0,.216,0,.325,0h0c1.762.057,3.6.136,5.425.234l-1.312-8.457a29.722,29.722,0,0,0-5.317,8.256Q169.2,80.9,169.641,80.9Z"/><path d="M144.235,217.746a2.5,2.5,0,0,1-2.493-2.312c-.13-1.729-.262-3.254-.379-4.486a8.917,8.917,0,0,0-1.844-4.448c-3.044-4.114-2.9-8.885-2.243-12.164a8.608,8.608,0,0,0-.727-5.1,19.73,19.73,0,0,1-1.173-3.6,2.5,2.5,0,0,1,1.725-2.964l24.5-7.259a2.5,2.5,0,0,1,3.2,2.561c-.194,2.937-.495,5.734-.871,8.09a9.474,9.474,0,0,0,.981,5.672c2.565,5.217,1.2,11.069.16,14.094a8.593,8.593,0,0,0-.4,4.208c.088.518.2,1.055.324,1.6a2.5,2.5,0,0,1-2.026,3.022l-18.328,3.054A2.47,2.47,0,0,1,144.235,217.746Zm-3.308-31q.092.234.188.449a13.442,13.442,0,0,1,1.064,8.119c-.458,2.286-.595,5.567,1.359,8.208a13.846,13.846,0,0,1,2.8,6.95c.053.561.109,1.182.167,1.855l13.137-2.189a13.749,13.749,0,0,1,.7-5.943c.788-2.29,1.846-6.667.081-10.259A14.44,14.44,0,0,1,159,185.272c.152-.953.342-2.3.519-4.028Z"/><path d="M137.811,187.567a2.5,2.5,0,0,1-2.435-1.934,44.275,44.275,0,0,1-.682-12.9,2.5,2.5,0,0,1,3.285-2.195l19.6,6.533a2.5,2.5,0,0,1-.081,4.768l-18.975,5.622A2.5,2.5,0,0,1,137.811,187.567Zm1.728-11.235a41.135,41.135,0,0,0,.255,5.54l8.665-2.567Z"/><path d="M150.107,41.8c-21.79,0-40.353-8.807-49.732-14.242a2.5,2.5,0,0,1-1.222-2.512,29.016,29.016,0,0,1,6.6-14.718,2.5,2.5,0,0,1,3.321-.447c10.177,6.974,26.371,15.573,45.735,16.937a2.5,2.5,0,0,1,2.324,2.494,43.707,43.707,0,0,1-1.364,10.533,2.5,2.5,0,0,1-2.32,1.885C152.33,41.776,151.213,41.8,150.107,41.8Zm3.24-2.568h0ZM104.4,24.09c9.522,5.3,26.933,13.029,46.946,12.7a39.463,39.463,0,0,0,.713-5.189c-18.216-1.827-33.539-9.524-43.842-16.28A24,24,0,0,0,104.4,24.09Z"/><path d="M142.4,52.3c-16.13,0-30.368-4.46-39.937-8.488a2.5,2.5,0,0,1-1.415-1.555,45.931,45.931,0,0,1-2.189-13.112,29.546,29.546,0,0,1,.3-4.1,2.5,2.5,0,0,1,3.73-1.814c9.384,5.438,28.415,14.429,50.359,13.5a2.464,2.464,0,0,1,2.044.921,2.5,2.5,0,0,1,.485,2.19A38.233,38.233,0,0,1,151.2,50.872a2.5,2.5,0,0,1-1.906,1.149C146.966,52.21,144.663,52.3,142.4,52.3Zm6.7-2.769h0ZM105.484,39.65c10.164,4.153,25.325,8.571,42.136,7.48a31.66,31.66,0,0,0,2.36-5.331c-19.3-.029-36.053-6.958-46.121-12.309A40.434,40.434,0,0,0,105.484,39.65Z"/><path d="M142.376,29.983a2.493,2.493,0,0,1-.555-.063,95.924,95.924,0,0,1-15.615-5.03,2.5,2.5,0,0,1-.232-4.5A87.689,87.689,0,0,0,144.029,7.473a2.5,2.5,0,0,1,3.378-.039,29.147,29.147,0,0,1,7.062,9.532,2.5,2.5,0,0,1-.4,2.706,89.615,89.615,0,0,1-10.1,9.741A2.5,2.5,0,0,1,142.376,29.983Zm-9.438-7.851a89.384,89.384,0,0,0,8.793,2.631,84.432,84.432,0,0,0,7.466-7.154,24.063,24.063,0,0,0-3.519-4.876A91.518,91.518,0,0,1,132.938,22.132Z"/><path d="M93,206.631a2.5,2.5,0,0,1-2.394-1.78c-1.034-3.441-1.792-8.509.473-13.116.059-.12.11-.239.162-.358l.051-.116a2.5,2.5,0,0,1,2.218-1.492l22.6-.641a2.537,2.537,0,0,1,1.927.825,2.5,2.5,0,0,1,.622,2,7.255,7.255,0,0,0,.06,2.381,15.99,15.99,0,0,1-1.1,10.287A2.5,2.5,0,0,1,115.46,206l-22.385.634Zm2.228-11.909a12.639,12.639,0,0,0-.3,6.853l18.75-.531a11.989,11.989,0,0,0,.134-5.725q-.111-.552-.168-1.119Z"/><path d="M163,206.631h-.071L140.54,206a2.5,2.5,0,0,1-2.162-1.374,15.987,15.987,0,0,1-1.1-10.286,7.262,7.262,0,0,0,.06-2.382,2.5,2.5,0,0,1,2.549-2.826l22.6.641a2.5,2.5,0,0,1,2.218,1.492l.051.116c.052.119.1.238.161.354,2.266,4.611,1.508,9.679.474,13.12A2.5,2.5,0,0,1,163,206.631Zm-20.683-5.587,18.75.531a12.64,12.64,0,0,0-.295-6.853l-18.421-.522q-.057.567-.168,1.12A11.973,11.973,0,0,0,142.313,201.044Z"/><path d="M194.764,88.064a2.519,2.519,0,0,1-.386-.03c-3.592-.559-7.589-1.027-11.881-1.389a2.5,2.5,0,0,1-1.933-3.778L190.624,66.1a2.5,2.5,0,0,1,2.55-1.181c3.89.641,7.85,1.225,11.767,1.735a2.5,2.5,0,0,1,1.822,3.765L196.906,86.85A2.5,2.5,0,0,1,194.764,88.064Zm-7.87-6.028c2.3.239,4.5.509,6.585.808l7.044-11.74c-2.165-.306-4.333-.632-6.484-.976Z"/><path d="M61.236,88.064a2.5,2.5,0,0,1-2.142-1.214L49.237,70.422a2.5,2.5,0,0,1,1.822-3.765c3.917-.51,7.877-1.094,11.767-1.735a2.509,2.509,0,0,1,2.55,1.181L75.435,82.867A2.5,2.5,0,0,1,73.5,86.645c-4.292.362-8.289.83-11.88,1.389A2.519,2.519,0,0,1,61.236,88.064ZM55.477,71.1l7.044,11.74c2.084-.3,4.286-.569,6.584-.808L61.961,70.128C59.81,70.472,57.642,70.8,55.477,71.1Z"/><path d="M96.761,122.037a2.5,2.5,0,0,1-2.5-2.442c-.112-4.756-.334-9.234-.662-13.309a2.5,2.5,0,0,1,1.932-2.637l43.345-9.957a2.5,2.5,0,0,1,2.181.533,4.68,4.68,0,0,1,1.649,3.563v6.326a3.054,3.054,0,0,0,1.486,2.636,2.5,2.5,0,0,1-.675,4.61l-46.2,10.613A2.472,2.472,0,0,1,96.761,122.037Zm1.984-14c.185,2.656.327,5.458.427,8.375l39.229-9.011a8.139,8.139,0,0,1-.694-3.292V99.091Z"/><path d="M96.092,108.586a2.5,2.5,0,0,1-2.492-2.3,104.2,104.2,0,0,0-2.272-15.719,2.5,2.5,0,0,1,2.988-3.027l36.228,8.322a2.5,2.5,0,0,1,0,4.873l-33.893,7.786A2.472,2.472,0,0,1,96.092,108.586Zm.918-15.3c.525,2.867.966,6.116,1.317,9.717L118.818,98.3Z"/><path d="M159.365,137.646h-9.584a2.5,2.5,0,0,1-2.061-3.915,2.7,2.7,0,0,0,.476-1.531v-6.959a2.719,2.719,0,0,0-5.438,0V132.2a2.7,2.7,0,0,0,.475,1.531,2.5,2.5,0,0,1-2.061,3.915H96.635a2.5,2.5,0,0,1-2.477-2.843,10.6,10.6,0,0,0,.107-1.19c.049-2.02.151-7.435,0-14.018a2.5,2.5,0,0,1,1.939-2.5l63.239-14.527a2.5,2.5,0,0,1,3.05,2.652,278.745,278.745,0,0,0-.755,28.39,10.574,10.574,0,0,0,.107,1.188,2.5,2.5,0,0,1-2.477,2.843Zm-6.181-5h3.529c-.085-4.218-.173-14.175.532-24.438L99.3,121.518c.08,4.835.031,8.867-.014,11.128h38.484c-.009-.148-.013-.3-.013-.446v-6.959a7.719,7.719,0,0,1,15.438,0V132.2C153.2,132.349,153.192,132.5,153.184,132.646Z"/><path d="M145.438,112.083q-.37,0-.739-.035a7.929,7.929,0,0,1-6.992-7.934V98.093a14,14,0,0,1-9.983-5.944,8.882,8.882,0,1,1-3.56-17.4,9.077,9.077,0,0,1,3.558.078A13.808,13.808,0,0,1,139.1,68.81c7.773,0,14.1,6.585,14.1,14.678v20.851a7.743,7.743,0,0,1-7.757,7.744ZM128.4,86.874a3.466,3.466,0,0,1,2.988,1.734,9.041,9.041,0,0,0,7.054,4.531,4.659,4.659,0,0,1,4.267,4.649v6.326a2.892,2.892,0,0,0,2.467,2.956,2.743,2.743,0,0,0,3.021-2.731V83.488c0-5.336-4.081-9.678-9.1-9.678a8.943,8.943,0,0,0-7.739,4.6,3.4,3.4,0,0,1-4.2,1.456A3.876,3.876,0,0,0,121.911,83a3.861,3.861,0,0,0,.945,3.065,3.96,3.96,0,0,0,4.306,1.046A3.413,3.413,0,0,1,128.4,86.874Zm-1.327,4.262,0,0Zm1.9-15.93,0,0Z"/><path d="M145.477,139.919a7.728,7.728,0,0,1-7.719-7.719v-6.959a7.719,7.719,0,1,1,15.437,0V132.2A7.728,7.728,0,0,1,145.477,139.919Zm0-17.4a2.722,2.722,0,0,0-2.719,2.719V132.2a2.719,2.719,0,1,0,5.437,0v-6.959A2.722,2.722,0,0,0,145.477,122.522Z"/></svg>