<svg xmlns="http://www.w3.org/2000/svg" viewBox="0 0 256 256"><title>icon</title><path d="M237.83,174.137l-2.379-8.924a3.821,3.821,0,0,0-4.68-2.706l-52.133,13.965v17.345l56.482-15A3.819,3.819,0,0,0,237.83,174.137Z" fill="#edf4fc"/><path d="M18.17,174.137l2.379-8.924a3.821,3.821,0,0,1,4.68-2.706l52.133,13.965v17.345l-56.482-15A3.819,3.819,0,0,1,18.17,174.137Z" fill="#edf4fc"/><path d="M182.836,106.378c9.118,13.592,6.425,39.683-14.958,52.92a1.266,1.266,0,0,1-1.672-.324l-3.6-4.679a1.272,1.272,0,0,0-2.257.486,31.133,31.133,0,0,1-14.476,19.173,75.066,75.066,0,0,0-15.436,11.327,3.42,3.42,0,0,1-4.882,0,75.066,75.066,0,0,0-15.436-11.327,31.141,31.141,0,0,1-14.476-19.173,1.272,1.272,0,0,0-2.257-.486l-3.6,4.679a1.266,1.266,0,0,1-1.672.324c-21.383-13.237-24.076-39.328-14.958-52.92-11.149,4.884-37.007,19.942-45.043,56.9l49.241,13.19V253.5H178.638V176.472l49.241-13.19C219.843,126.32,193.985,111.262,182.836,106.378Z" fill="#c7d7e5"/><path d="M86.754,70.4h2.178a55.809,55.809,0,0,1,.638-5.956c1.35-8.1,24.387-10.906,34.281-11.741a52.844,52.844,0,0,1,8.913,0c9.894.835,32.932,3.643,34.281,11.741a55.875,55.875,0,0,1,.638,5.958v0h1.5a8.483,8.483,0,0,1,6.168,2.672l.281.016C185.218,48.9,159.777,48.9,150.817,39.936s-22.4-8.064-22.4-8.064-13.44-.9-22.4,8.064c-8.9,8.9-34.056,8.971-24.982,32.7A8.467,8.467,0,0,1,86.754,70.4Z" fill="#b77035"/><path d="M106.018,39.936c8.96-8.96,22.4-8.064,22.4-8.064s13.44-.9,22.4,8.064c5.361,5.36,16.615,7.518,22.744,13.563V48.1a45.6,45.6,0,0,0-45.6-45.6h0a45.6,45.6,0,0,0-45.6,45.6v6.4C88.213,47.679,100.375,45.578,106.018,39.936Z" fill="#b77035"/><path d="M116.327,33.684a14.4,14.4,0,0,1-1.807-3.413A84.063,84.063,0,0,0,82.743,42.325a45.979,45.979,0,0,0-.376,5.772v6.4c5.846-6.818,18.008-8.919,23.651-14.561a26.51,26.51,0,0,1,10.309-6.252Z" fill="#965622"/><path d="M173.184,42.325a84.062,84.062,0,0,0-31.77-12.053,14.324,14.324,0,0,1-1.633,3.171h0a26.8,26.8,0,0,1,11.039,6.493c5.361,5.36,16.615,7.518,22.744,13.563V48.1A45.791,45.791,0,0,0,173.184,42.325Z" fill="#965622"/><path d="M128.418,31.872a34.462,34.462,0,0,1,11.363,1.571,14.342,14.342,0,1,0-23.454.241A34.568,34.568,0,0,1,128.418,31.872Z" fill="#fcdd86"/><circle cx="127.964" cy="25.333" r="6.372" fill="#f5c84c"/><path d="M167.045,64.444c-1.349-8.1-24.387-10.906-34.281-11.741a52.844,52.844,0,0,0-8.913,0c-9.894.835-32.931,3.643-34.281,11.741-1.722,10.33,0,23.242,0,23.242s2.449,15.72,9.673,28.054a1.16,1.16,0,0,0,2.15-.431,11.8,11.8,0,0,1,.647-2.549c1.22-3.252,6.495-8.089,14.2-8.845h0a4.656,4.656,0,0,0,1.233.683,4.752,4.752,0,0,0,2.356.244,1.478,1.478,0,0,1,1.446.674,8.428,8.428,0,0,0,14.067,0,1.479,1.479,0,0,1,1.447-.674,4.749,4.749,0,0,0,2.355-.244,4.653,4.653,0,0,0,1.233-.682h0c7.7.756,12.978,5.593,14.2,8.845a11.74,11.74,0,0,1,.647,2.549,1.16,1.16,0,0,0,2.15.431c7.224-12.334,9.673-28.054,9.673-28.054S168.767,74.774,167.045,64.444Z" fill="#f9d0b4"/><path d="M180.425,103.35c-4.3-4.477-6.673-10.589-7.952-16.592a8.429,8.429,0,0,1-3.288.665h-2.106v-.011c-.022.175-.035.274-.035.274s-2.449,15.72-9.673,28.054a1.16,1.16,0,0,1-2.15-.431,11.74,11.74,0,0,0-.647-2.549c-1.22-3.252-6.494-8.09-14.2-8.845h0a4.64,4.64,0,0,1-1.233.683,4.749,4.749,0,0,1-2.355.244,1.479,1.479,0,0,0-1.447.674,8.428,8.428,0,0,1-14.067,0,1.478,1.478,0,0,0-1.446-.674,4.752,4.752,0,0,1-2.356-.244,4.656,4.656,0,0,1-1.233-.683h0c-7.7.755-12.979,5.593-14.2,8.845a11.8,11.8,0,0,0-.647,2.549,1.16,1.16,0,0,1-2.15.431c-7.224-12.334-9.673-28.054-9.673-28.054s-.013-.1-.033-.263H86.754a8.433,8.433,0,0,1-3.232-.644c-1.28,6-3.65,12.1-7.947,16.571C63.723,115.686,65.022,145,88.122,159.3a1.266,1.266,0,0,0,1.672-.324l3.6-4.679a1.272,1.272,0,0,1,2.257.486,31.141,31.141,0,0,0,14.476,19.173,75.066,75.066,0,0,1,15.436,11.327,3.42,3.42,0,0,0,4.882,0,75.066,75.066,0,0,1,15.436-11.327,31.133,31.133,0,0,0,14.476-19.173,1.272,1.272,0,0,1,2.257-.486l3.6,4.679a1.266,1.266,0,0,0,1.672.324C190.978,145,192.277,115.686,180.425,103.35Z" fill="#fc8c48"/><path d="M158.485,75.862c-1.358-4.516-6.6-14.067-25.776-3.495a1.628,1.628,0,0,0-.749,1.943l1.88,5.64a1.632,1.632,0,0,0,2.327.924c4.194-2.269,15.14-7.515,21.221-4.118A.764.764,0,0,0,158.485,75.862Z" fill="#fc8c48"/><path d="M98.13,75.862c1.358-4.516,6.6-14.067,25.777-3.495a1.629,1.629,0,0,1,.748,1.943l-1.88,5.64a1.632,1.632,0,0,1-2.327.924c-4.194-2.269-15.14-7.515-21.22-4.118A.764.764,0,0,1,98.13,75.862Z" fill="#fc8c48"/><path d="M88.932,70.4H86.754a8.512,8.512,0,1,0,0,17.023h2.783A104.065,104.065,0,0,1,88.932,70.4Z" fill="#f9d0b4"/><path d="M169.185,70.4h-1.5a104.065,104.065,0,0,1-.6,17.023h2.107a8.512,8.512,0,1,0,0-17.023Z" fill="#f9d0b4"/><path d="M232.03,211.232a4.9,4.9,0,0,1-.58-3.134c1.4-10.523-.09-21.144-1.486-27.914l-51.326,13.633V253.5h44.284a3.715,3.715,0,0,0,3.681-3.215l3.363-24.8a4.924,4.924,0,0,1,1.1-2.485A9.775,9.775,0,0,0,232.03,211.232Z" fill="#f9d0b4"/><path d="M24.55,208.1a4.9,4.9,0,0,1-.58,3.134A9.775,9.775,0,0,0,24.93,223a4.924,4.924,0,0,1,1.1,2.485l3.363,24.8a3.715,3.715,0,0,0,3.681,3.215H77.362V193.817L26.036,180.184C24.64,186.954,23.154,197.575,24.55,208.1Z" fill="#f9d0b4"/><path d="M129.593,129.032a4.123,4.123,0,0,0-2.571,0c-9.79,3.214-17.205-.26-22.745-6.334a.92.92,0,0,0,.159-.25c1.672-3.937,8.53-4.657,16.826-4.657a7.27,7.27,0,0,0,5.431-1.989,2.286,2.286,0,0,1,3.23,0,7.266,7.266,0,0,0,5.43,1.989c8.3,0,15.154.72,16.826,4.657a.92.92,0,0,0,.159.25C146.8,128.772,139.384,132.246,129.593,129.032Z" fill="#f9d0b4"/><path d="M38.372,106.738H36.106v-2.266a3.071,3.071,0,0,0-6.142,0v2.266H27.7a3.071,3.071,0,0,0,0,6.142h2.265v2.267a3.071,3.071,0,0,0,6.142,0V112.88h2.266a3.071,3.071,0,0,0,0-6.142Z" fill="#ef4460"/><path d="M199.857,23.782A10.8,10.8,0,0,1,191.2,15.3a.2.2,0,0,0-.384,0,10.8,10.8,0,0,1-8.654,8.478.19.19,0,0,0,0,.376,10.8,10.8,0,0,1,8.654,8.478.2.2,0,0,0,.384,0,10.8,10.8,0,0,1,8.654-8.478A.19.19,0,0,0,199.857,23.782Z" fill="#f5c84c"/><circle cx="214.019" cy="109.285" r="3.285" fill="#87d147"/><circle cx="169.019" cy="3.285" r="3.285" fill="#70d6f9"/><circle cx="21.019" cy="133.285" r="3.285" fill="#f5c84c"/><path d="M128,188.814a5.94,5.94,0,0,1-4.206-1.762,72.5,72.5,0,0,0-14.922-10.934,33.262,33.262,0,0,1-14.957-18.4L91.776,160.5a3.759,3.759,0,0,1-4.971.927,44.024,44.024,0,0,1-20.75-31.955c-1.385-10.969,1.5-21.381,7.717-27.851,3.435-3.575,5.892-8.743,7.3-15.361a2.5,2.5,0,0,1,3.4-1.788,5.91,5.91,0,0,0,2.275.454h2.783a2.5,2.5,0,0,1,2.482,2.2l.03.239c.014.087,2.084,13,7.772,24.218,1.839-4.387,8.021-9.349,16.173-10.149a2.5,2.5,0,0,1,1.757.5,2.187,2.187,0,0,0,.571.323,2.262,2.262,0,0,0,1.129.124,4,4,0,0,1,3.906,1.763,5.928,5.928,0,0,0,9.9,0,3.983,3.983,0,0,1,3.906-1.764,2.262,2.262,0,0,0,1.129-.124,2.2,2.2,0,0,0,.57-.321,2.5,2.5,0,0,1,1.758-.5c8.154.8,14.336,5.763,16.174,10.149A93.724,93.724,0,0,0,164.575,87.3l.016-.131c.007-.064.015-.128.027-.191a2.626,2.626,0,0,1,.09-.357,2.493,2.493,0,0,1,2.611-1.7h1.867a5.916,5.916,0,0,0,2.315-.468,2.5,2.5,0,0,1,3.418,1.782c1.411,6.627,3.87,11.8,7.309,15.381h0c6.216,6.47,9.1,16.882,7.717,27.851a44.024,44.024,0,0,1-20.75,31.955,3.759,3.759,0,0,1-4.971-.927l-2.139-2.782a33.27,33.27,0,0,1-14.957,18.4,72.5,72.5,0,0,0-14.922,10.934A5.942,5.942,0,0,1,128,188.814ZM94.394,151.285a3.793,3.793,0,0,1,3.673,2.869,28.526,28.526,0,0,0,13.307,17.636,77.425,77.425,0,0,1,15.949,11.72.919.919,0,0,0,1.354,0,77.425,77.425,0,0,1,15.949-11.72,28.525,28.525,0,0,0,13.307-17.637,3.772,3.772,0,0,1,6.659-1.382l2.919,3.8a38.985,38.985,0,0,0,17.473-27.725c1.18-9.344-1.258-18.449-6.362-23.761-3.622-3.77-6.3-8.893-7.986-15.254a10.933,10.933,0,0,1-1.45.095h0c-.9,4.648-3.676,16.873-9.655,27.081a3.661,3.661,0,0,1-6.785-1.36,9.233,9.233,0,0,0-.511-2.007c-.786-2.1-4.857-6.2-11.262-7.132a6.933,6.933,0,0,1-.977.444,7.261,7.261,0,0,1-2.911.435,10.925,10.925,0,0,1-17.55,0,7.312,7.312,0,0,1-2.913-.436,6.792,6.792,0,0,1-.974-.443c-6.407.93-10.478,5.034-11.265,7.133a9.264,9.264,0,0,0-.51,2.006A3.661,3.661,0,0,1,97.085,117c-5.987-10.224-8.765-22.472-9.654-27.08h-.677a10.93,10.93,0,0,1-1.392-.088c-1.684,6.358-4.364,11.479-7.984,15.247-5.1,5.312-7.542,14.417-6.362,23.761a38.985,38.985,0,0,0,17.473,27.725l2.919-3.8A3.759,3.759,0,0,1,94.394,151.285Z"/><path d="M151.96,89.307a2.5,2.5,0,0,1-2.5-2.5,3.331,3.331,0,0,0-6.662,0,2.5,2.5,0,1,1-5,0,8.331,8.331,0,0,1,16.662,0A2.5,2.5,0,0,1,151.96,89.307Z"/><path d="M116.317,89.307a2.5,2.5,0,0,1-2.5-2.5,3.331,3.331,0,1,0-6.662,0,2.5,2.5,0,0,1-5,0,8.331,8.331,0,1,1,16.662,0A2.5,2.5,0,0,1,116.317,89.307Z"/><path d="M156.373,118.812a3.661,3.661,0,0,1-3.629-3.168,9.233,9.233,0,0,0-.511-2.007c-.786-2.1-4.856-6.2-11.262-7.132a6.944,6.944,0,0,1-.977.444,7.309,7.309,0,0,1-2.911.435,10.925,10.925,0,0,1-17.55,0,7.312,7.312,0,0,1-2.913-.436,6.8,6.8,0,0,1-.975-.443c-6.406.93-10.477,5.034-11.264,7.133a9.264,9.264,0,0,0-.51,2.006A3.661,3.661,0,0,1,97.085,117c-7.378-12.6-9.882-28.271-9.984-28.932-.081-.6-1.76-13.46,0-24.039,1.2-7.225,13.5-11.875,36.538-13.821a55.708,55.708,0,0,1,9.332,0c23.04,1.946,35.333,6.6,36.537,13.821,1.763,10.579.085,23.442.012,23.985-.111.715-2.615,16.388-9.994,28.987A3.659,3.659,0,0,1,156.373,118.812Zm-16-17.4c.081,0,.162,0,.244.011,8.154.8,14.336,5.763,16.174,10.149A93.724,93.724,0,0,0,164.575,87.3c.008-.071,1.642-12.619,0-22.447-.586-3.512-10.715-7.861-32.025-9.66a50.589,50.589,0,0,0-8.492,0c-21.311,1.8-31.44,6.148-32.026,9.66-1.64,9.847,0,22.376.013,22.5.014.09,2.084,13,7.772,24.221,1.839-4.387,8.021-9.349,16.174-10.149a2.5,2.5,0,0,1,1.759.5,2.175,2.175,0,0,0,.568.321,2.262,2.262,0,0,0,1.129.124,4,4,0,0,1,3.906,1.763,5.928,5.928,0,0,0,9.9,0,3.983,3.983,0,0,1,3.906-1.764,2.258,2.258,0,0,0,1.129-.124,2.185,2.185,0,0,0,.569-.32A2.5,2.5,0,0,1,140.376,101.416Z"/><path d="M89.537,89.923H86.754a11.012,11.012,0,1,1,0-22.024h2.179a2.5,2.5,0,0,1,2.5,2.643,100.963,100.963,0,0,0,.59,16.575,2.5,2.5,0,0,1-2.482,2.806ZM86.33,72.914a6.012,6.012,0,0,0,.424,12.009h.008A108.906,108.906,0,0,1,86.33,72.914Z"/><path d="M169.186,89.923h-2.108a2.5,2.5,0,0,1-2.481-2.806,101.2,101.2,0,0,0,.59-16.575,2.5,2.5,0,0,1,2.5-2.643h1.5a11.012,11.012,0,0,1,0,22.024ZM170.287,73a108.677,108.677,0,0,1-.431,11.886A6.013,6.013,0,0,0,170.287,73Z"/><path d="M175.635,75.587c-.048,0-.1,0-.144,0l-.281-.016a2.5,2.5,0,0,1-1.672-.776,5.951,5.951,0,0,0-4.352-1.892h-1.5a2.5,2.5,0,0,1-2.5-2.357,53.622,53.622,0,0,0-.609-5.688c-.586-3.513-10.715-7.862-32.025-9.661a50.589,50.589,0,0,0-8.492,0c-21.311,1.8-31.44,6.148-32.026,9.66a53.069,53.069,0,0,0-.607,5.688,2.5,2.5,0,0,1-2.5,2.357H86.754a5.982,5.982,0,0,0-4.033,1.581,2.5,2.5,0,0,1-4.02-.954c-7.252-18.961,5.919-25.05,15.535-29.5,3.971-1.836,7.722-3.57,10.014-5.862,9.209-9.208,22.46-8.881,24.168-8.8,1.719-.082,14.963-.4,24.167,8.8,2.293,2.293,6.047,4.026,10.021,5.862,9.714,4.485,23.018,10.629,15.352,29.978A2.5,2.5,0,0,1,175.635,75.587Zm-5.628-7.656a11.024,11.024,0,0,1,4.332,1.267c3.679-12.544-4.482-16.313-13.828-20.629-4.391-2.027-8.538-3.943-11.461-6.865-8.018-8.018-20.344-7.344-20.471-7.337a2.549,2.549,0,0,1-.327,0c-.117-.011-12.446-.683-20.467,7.337-2.921,2.921-7.064,4.837-11.451,6.864-9.25,4.277-17.327,8.012-13.937,20.24a10.892,10.892,0,0,1,4.214-.908c.126-1.364.291-2.658.493-3.869,1.2-7.224,13.5-11.874,36.538-13.82a55.708,55.708,0,0,1,9.332,0c23.04,1.946,35.333,6.6,36.537,13.821C169.714,65.25,169.88,66.555,170.007,67.931Z"/><path d="M82.366,57a2.5,2.5,0,0,1-2.5-2.5V48.1a48.1,48.1,0,0,1,96.194,0v5.4a2.5,2.5,0,0,1-4.256,1.78c-2.837-2.8-7.138-4.786-11.3-6.708-4.389-2.029-8.535-3.945-11.457-6.867-8.066-8.066-20.34-7.345-20.466-7.337a2.627,2.627,0,0,1-.332,0c-.117-.011-12.446-.683-20.467,7.337h0c-2.92,2.92-7.06,4.837-11.444,6.866-4.565,2.114-9.284,4.3-12.075,7.555A2.5,2.5,0,0,1,82.366,57Zm45.6-52a43.146,43.146,0,0,0-43.1,43.1v.913a64.375,64.375,0,0,1,9.373-4.977c3.969-1.837,7.718-3.573,10.01-5.865,9.209-9.208,22.46-8.881,24.168-8.8,1.719-.082,14.963-.4,24.167,8.8,2.293,2.293,6.046,4.027,10.019,5.864a72.257,72.257,0,0,1,8.457,4.365v-.3A43.146,43.146,0,0,0,127.964,5ZM106.018,39.936h0Z"/><path d="M178.638,196.317a2.5,2.5,0,0,1-2.5-2.5V176.472a2.5,2.5,0,0,1,1.853-2.415l52.133-13.965a6.321,6.321,0,0,1,7.742,4.476l2.38,8.926a6.32,6.32,0,0,1-4.484,7.736l-56.483,15A2.459,2.459,0,0,1,178.638,196.317Zm2.5-17.927v12.176L234.479,176.4a1.319,1.319,0,0,0,.936-1.615h0l-2.379-8.925a1.322,1.322,0,0,0-1.618-.935Z"/><path d="M77.362,196.317a2.459,2.459,0,0,1-.641-.084l-56.483-15a6.32,6.32,0,0,1-4.484-7.736l2.379-8.925a6.322,6.322,0,0,1,7.743-4.477l52.133,13.965a2.5,2.5,0,0,1,1.853,2.415v17.345a2.5,2.5,0,0,1-2.5,2.5ZM24.238,164.876a1.328,1.328,0,0,0-1.274.982l-2.378,8.924h0a1.319,1.319,0,0,0,.936,1.615l53.341,14.168V178.39L24.583,164.922A1.352,1.352,0,0,0,24.238,164.876Zm-6.068,9.262h0Z"/><path d="M222.922,256H178.638a2.5,2.5,0,0,1-2.5-2.5V193.817A2.5,2.5,0,0,1,178,191.4l51.326-13.633a2.5,2.5,0,0,1,3.09,1.911c1.481,7.175,2.944,17.986,1.517,28.749a2.427,2.427,0,0,0,.259,1.541h0a12.271,12.271,0,0,1-1.2,14.629,2.423,2.423,0,0,0-.546,1.22l-3.363,24.8A6.237,6.237,0,0,1,222.922,256Zm-41.784-5h41.784a1.219,1.219,0,0,0,1.2-1.051l3.363-24.8a7.432,7.432,0,0,1,1.66-3.75,7.27,7.27,0,0,0,.724-8.9,7.345,7.345,0,0,1-.9-4.725,81.623,81.623,0,0,0-.955-24.48L181.138,195.74Z"/><path d="M77.362,256H33.078a6.237,6.237,0,0,1-6.158-5.378l-3.363-24.8a2.416,2.416,0,0,0-.547-1.22,12.273,12.273,0,0,1-1.2-14.629,2.429,2.429,0,0,0,.259-1.541h0c-1.427-10.763.036-21.574,1.517-28.749a2.5,2.5,0,0,1,3.09-1.911L78,191.4a2.5,2.5,0,0,1,1.858,2.416V253.5A2.5,2.5,0,0,1,77.362,256ZM27.028,207.77a7.349,7.349,0,0,1-.9,4.724,7.27,7.27,0,0,0,.723,8.9,7.425,7.425,0,0,1,1.661,3.75l3.363,24.8a1.219,1.219,0,0,0,1.2,1.051H74.862V195.74L27.983,183.288a81.633,81.633,0,0,0-.955,24.482Z"/><path d="M178.638,256H77.362a2.5,2.5,0,0,1-2.5-2.5V178.39L27.475,165.7a2.5,2.5,0,0,1-1.8-2.947C33.985,124.541,60.952,109,72.161,104.088a2.5,2.5,0,0,1,3.079,3.683c-4.226,6.3-5.592,15.417-3.653,24.39a38.886,38.886,0,0,0,16.9,24.407l2.919-3.8a3.75,3.75,0,0,1,3.741-1.409,3.788,3.788,0,0,1,2.918,2.792,28.526,28.526,0,0,0,13.307,17.636,77.425,77.425,0,0,1,15.949,11.72.919.919,0,0,0,1.354,0,77.425,77.425,0,0,1,15.949-11.72,28.525,28.525,0,0,0,13.307-17.637,3.772,3.772,0,0,1,6.659-1.382l2.919,3.8a38.886,38.886,0,0,0,16.9-24.407c1.939-8.973.573-18.09-3.653-24.39a2.5,2.5,0,0,1,3.079-3.683c11.209,4.91,38.176,20.453,46.483,58.662a2.5,2.5,0,0,1-1.8,2.947L181.138,178.39V253.5A2.5,2.5,0,0,1,178.638,256Zm-98.776-5h96.276V176.472a2.5,2.5,0,0,1,1.853-2.415L224.9,161.492c-6.921-28.315-24.79-42.827-36.588-49.555a40.293,40.293,0,0,1,.989,21.28A43.919,43.919,0,0,1,169.2,161.424a3.76,3.76,0,0,1-4.971-.927l-2.139-2.782a33.27,33.27,0,0,1-14.957,18.4,72.5,72.5,0,0,0-14.922,10.934,5.9,5.9,0,0,1-8.412,0,72.5,72.5,0,0,0-14.922-10.934,33.262,33.262,0,0,1-14.957-18.4L91.776,160.5a3.759,3.759,0,0,1-4.971.927A43.919,43.919,0,0,1,66.7,133.217a40.3,40.3,0,0,1,.988-21.28c-11.8,6.728-29.666,21.24-36.587,49.555l46.909,12.565a2.5,2.5,0,0,1,1.853,2.415Z"/><path d="M128.308,111.8a10.911,10.911,0,0,1-8.775-4.417,7.312,7.312,0,0,1-2.913-.436,7.273,7.273,0,0,1,4.068-13.93,7.414,7.414,0,0,0,1.448-4.278,2.5,2.5,0,1,1,5,0,12.672,12.672,0,0,1-3.222,8.247,3.614,3.614,0,0,1-4,1,2.311,2.311,0,0,0-2.529.677,2.277,2.277,0,0,0-.487,1.9,2.275,2.275,0,0,0,2.555,1.8,4,4,0,0,1,3.906,1.763,5.928,5.928,0,0,0,9.9,0,3.983,3.983,0,0,1,3.906-1.764,2.27,2.27,0,0,0,2.069-3.7,2.314,2.314,0,0,0-2.529-.678,3.611,3.611,0,0,1-4-1,12.673,12.673,0,0,1-3.223-8.248,2.5,2.5,0,1,1,5,0,7.4,7.4,0,0,0,1.449,4.278,7.273,7.273,0,1,1,1.155,14.366A10.909,10.909,0,0,1,128.308,111.8Z"/><path d="M178.638,180.954a2.5,2.5,0,0,1-2.5-2.5V166.447a2.5,2.5,0,0,1,5,0v12.007A2.5,2.5,0,0,1,178.638,180.954Z"/><path d="M77.362,180.954a2.5,2.5,0,0,1-2.5-2.5V166.447a2.5,2.5,0,0,1,5,0v12.007A2.5,2.5,0,0,1,77.362,180.954Z"/><path d="M135.391,83.572a4.138,4.138,0,0,1-3.922-2.83L129.588,75.1a4.129,4.129,0,0,1,1.914-4.924c8.924-4.918,16.2-6.29,21.622-4.077a13.815,13.815,0,0,1,7.756,9.042h0a3.264,3.264,0,0,1-4.712,3.8c-4.052-2.265-12.374.652-18.812,4.135A4.119,4.119,0,0,1,135.391,83.572Zm-.83-9.366,1.328,3.985c4.868-2.538,12.42-5.713,18.581-4.925a7.572,7.572,0,0,0-3.236-2.537C147.449,69.183,141.693,70.386,134.561,74.206Zm21.53,2.374v0Z"/><path d="M121.225,83.572a4.12,4.12,0,0,1-1.966-.5c-6.437-3.483-14.756-6.4-18.813-4.135a3.264,3.264,0,0,1-4.711-3.8h0a13.815,13.815,0,0,1,7.756-9.042c5.424-2.214,12.7-.841,21.622,4.077a4.127,4.127,0,0,1,1.913,4.925l-1.879,5.639a4.139,4.139,0,0,1-3.922,2.831ZM104.14,73.144c5.734,0,12.232,2.776,16.587,5.047l1.328-3.985c-7.133-3.821-12.89-5.022-16.674-3.477a7.563,7.563,0,0,0-3.235,2.537A15.759,15.759,0,0,1,104.14,73.144Zm-3.616,3.438v0Z"/><path d="M119.887,132.738c-6.471,0-12.406-2.817-17.456-8.355a2.5,2.5,0,0,1-.21-3.106c2.516-5.518,11.14-5.986,19.042-5.986a4.878,4.878,0,0,0,3.652-1.247,4.786,4.786,0,0,1,6.785,0,4.881,4.881,0,0,0,3.653,1.247c7.894,0,16.508.467,19.043,5.988a2.5,2.5,0,0,1-.211,3.1c-7.05,7.73-15.821,10.161-25.372,7.024a1.635,1.635,0,0,0-1.012,0A25.329,25.329,0,0,1,119.887,132.738Zm8.421-6.409a6.645,6.645,0,0,1,2.065.327h0c7.127,2.34,13.27.967,18.712-4.206-2.765-2.16-10.851-2.16-13.733-2.16a9.781,9.781,0,0,1-7.045-2.571,9.784,9.784,0,0,1-7.045,2.571c-2.883,0-10.968,0-13.733,2.16,5.443,5.174,11.584,6.545,18.711,4.206A6.629,6.629,0,0,1,128.308,126.329Z"/><path d="M82.366,57a2.5,2.5,0,0,1-2.5-2.5V48.1a48.65,48.65,0,0,1,.4-6.086,2.5,2.5,0,0,1,1.14-1.8A86.169,86.169,0,0,1,114.124,27.8a2.5,2.5,0,0,1,2.741,1.6,11.908,11.908,0,0,0,1.491,2.821,2.5,2.5,0,0,1-1.223,3.826,23.94,23.94,0,0,0-9.348,5.653c-2.92,2.92-7.06,4.837-11.444,6.866-4.565,2.114-9.284,4.3-12.076,7.555A2.5,2.5,0,0,1,82.366,57Zm2.725-13.192a42.54,42.54,0,0,0-.224,4.291v.913a64.375,64.375,0,0,1,9.373-4.977c3.969-1.837,7.718-3.573,10.01-5.865a27.311,27.311,0,0,1,6.072-4.557A81.051,81.051,0,0,0,85.091,43.806Z"/><path d="M173.562,56a2.5,2.5,0,0,1-1.757-.72c-2.837-2.8-7.138-4.786-11.3-6.708-4.389-2.029-8.535-3.945-11.457-6.867a24.189,24.189,0,0,0-10.02-5.876,2.5,2.5,0,0,1-1.308-3.8,11.815,11.815,0,0,0,1.346-2.619,2.5,2.5,0,0,1,2.743-1.6,86.151,86.151,0,0,1,32.713,12.41,2.5,2.5,0,0,1,1.141,1.8,48.65,48.65,0,0,1,.4,6.086v5.4a2.5,2.5,0,0,1-2.5,2.5ZM147.125,33.958a27.243,27.243,0,0,1,5.46,4.21c2.293,2.293,6.046,4.027,10.019,5.864a72.257,72.257,0,0,1,8.457,4.365v-.3a42.835,42.835,0,0,0-.224-4.291A81.1,81.1,0,0,0,147.125,33.958Z"/><path d="M116.327,36.184a2.5,2.5,0,0,1-2.029-1.04,16.831,16.831,0,1,1,27.543-.284,2.5,2.5,0,0,1-2.809.969,31.862,31.862,0,0,0-10.448-1.462,2.954,2.954,0,0,1-.326,0h0a32.4,32.4,0,0,0-11.125,1.684A2.5,2.5,0,0,1,116.327,36.184ZM127.964,13.5a11.85,11.85,0,0,0-11.837,11.837,11.706,11.706,0,0,0,1.31,5.394,37.018,37.018,0,0,1,10.981-1.358,36.851,36.851,0,0,1,10.188,1.144A11.835,11.835,0,0,0,127.964,13.5Z"/><path d="M127.964,34.205a8.872,8.872,0,1,1,8.872-8.872A8.882,8.882,0,0,1,127.964,34.205Zm0-12.744a3.872,3.872,0,1,0,3.872,3.872A3.876,3.876,0,0,0,127.964,21.461Z"/></svg>