<svg xmlns="http://www.w3.org/2000/svg" viewBox="0 0 256 256"><title>icon</title><rect x="99.513" y="71.203" width="56.975" height="18.858" rx="4.066" ry="4.066" fill="#bef0fc"/><path d="M183.855,162.146l-32.891-32.892a19.434,19.434,0,0,1-5.692-13.741V90.061H110.728v25.452a19.434,19.434,0,0,1-5.692,13.741L72.145,162.146a35.646,35.646,0,0,0,0,50.264l30.723,30.723a35.646,35.646,0,0,0,50.264,0l30.723-30.723A35.646,35.646,0,0,0,183.855,162.146Z" fill="#9be5f9"/><path d="M155.837,46.562a6.948,6.948,0,0,1-.618-4.977,27.726,27.726,0,0,0,.894-6.972,28.116,28.116,0,1,0-55.345,7,6.968,6.968,0,0,1-.613,4.962A11.027,11.027,0,0,0,109.7,62.61a2.544,2.544,0,0,1,2.556,2.507V65.3A6.286,6.286,0,0,0,116.4,71.2H139.6a6.286,6.286,0,0,0,4.146-5.907v-.179A2.544,2.544,0,0,1,146.3,62.61a10.983,10.983,0,0,0,9.538-16.048Z" fill="#edf4fc"/><ellipse cx="116.054" cy="38.713" rx="5.622" ry="6.324" fill="#fc657e"/><ellipse cx="139.946" cy="38.713" rx="5.622" ry="6.324" fill="#fc657e"/><path d="M117.144,90.061l4.591,25.764a2.785,2.785,0,0,0,2.742,2.3h7.046a2.785,2.785,0,0,0,2.742-2.3l4.591-25.764Z" fill="#b77035"/><path d="M127.5,178c-29.661-19.628-57.585-5.011-64.231-.96a35.633,35.633,0,0,0,8.876,35.37l30.723,30.723a35.646,35.646,0,0,0,50.264,0l30.723-30.723a35.607,35.607,0,0,0,9.318-33.743C187.336,182.229,157.932,198.139,127.5,178Z" fill="#87d147"/><circle cx="150" cy="169" r="6.5" fill="#b2e26d"/><circle cx="113" cy="200" r="10.5" fill="#b2e26d"/><circle cx="137.5" cy="151.5" r="4" fill="#b2e26d"/><circle cx="139" cy="212" r="5.5" fill="#b2e26d"/><path d="M132.1,56.617a2.5,2.5,0,0,1-2.238-1.382L128,51.5l-1.866,3.732A2.5,2.5,0,1,1,121.662,53l2.152-4.3a4.68,4.68,0,0,1,8.372,0L134.338,53a2.5,2.5,0,0,1-2.234,3.618Z"/><path d="M122.378,73.7a2.5,2.5,0,0,1-2.5-2.5V64.331a2.5,2.5,0,0,1,5,0V71.2A2.5,2.5,0,0,1,122.378,73.7Z"/><path d="M133.622,73.7a2.5,2.5,0,0,1-2.5-2.5V64.331a2.5,2.5,0,0,1,5,0V71.2A2.5,2.5,0,0,1,133.622,73.7Z"/><path d="M152.421,92.561H103.579A6.573,6.573,0,0,1,97.013,86V75.269a6.573,6.573,0,0,1,6.566-6.566h48.842a6.573,6.573,0,0,1,6.566,6.566V86A6.573,6.573,0,0,1,152.421,92.561ZM103.579,73.7a1.567,1.567,0,0,0-1.566,1.566V86a1.568,1.568,0,0,0,1.566,1.566h48.842A1.568,1.568,0,0,0,153.987,86V75.269a1.567,1.567,0,0,0-1.566-1.566Z"/><path d="M128,256.025A37.924,37.924,0,0,1,101.1,244.9L70.377,214.178a38.085,38.085,0,0,1,0-53.8l32.892-32.891a16.823,16.823,0,0,0,4.959-11.974V90.061a2.5,2.5,0,0,1,2.5-2.5h34.544a2.5,2.5,0,0,1,2.5,2.5v25.452a16.823,16.823,0,0,0,4.959,11.974l32.892,32.891a38.085,38.085,0,0,1,0,53.8L154.9,244.9A37.924,37.924,0,0,1,128,256.025ZM113.228,92.561v22.952a21.788,21.788,0,0,1-6.424,15.509L73.913,163.913a33.081,33.081,0,0,0,0,46.73l30.722,30.723a33.083,33.083,0,0,0,46.73,0l30.722-30.723a33.08,33.08,0,0,0,0-46.73L149.2,131.022a21.788,21.788,0,0,1-6.424-15.509V92.561Z"/><path d="M139.6,73.7H116.4a2.508,2.508,0,0,1-.853-.15,8.813,8.813,0,0,1-5.793-8.257v-.173c-.006.009-.044-.012-.109-.013a13.58,13.58,0,0,1-5.313-1.23,13.449,13.449,0,0,1-6.4-18.455,4.447,4.447,0,0,0,.41-3.19,30.615,30.615,0,1,1,60.267-7.622,30.309,30.309,0,0,1-.974,7.6,4.426,4.426,0,0,0,.415,3.194h0a13.529,13.529,0,0,1-11.7,19.7.182.182,0,0,0-.123.038l.013.148a8.813,8.813,0,0,1-5.793,8.257A2.508,2.508,0,0,1,139.6,73.7Zm-22.7-5h22.2a3.8,3.8,0,0,0,2.144-3.407v-.179a5.025,5.025,0,0,1,5-5.006,8.609,8.609,0,0,0,3.357-.786,8.451,8.451,0,0,0,4.017-11.609h0a9.474,9.474,0,0,1-.821-6.759,25.286,25.286,0,0,0,.814-6.344,25.615,25.615,0,1,0-50.424,6.38,9.5,9.5,0,0,1-.814,6.734,8.447,8.447,0,0,0,4.019,11.6,8.605,8.605,0,0,0,3.361.788,5.025,5.025,0,0,1,5,5.006V65.3A3.8,3.8,0,0,0,116.9,68.7Z"/><path d="M93.941,5.487h-2.33V3.157a3.158,3.158,0,0,0-6.315,0v2.33H82.967a3.158,3.158,0,0,0,0,6.315H85.3v2.33a3.158,3.158,0,0,0,6.315,0V11.8h2.33a3.158,3.158,0,0,0,0-6.315Z" fill="#ef4460"/><path d="M195.705,133.654a11.1,11.1,0,0,1-8.9-8.717.2.2,0,0,0-.395,0,11.1,11.1,0,0,1-8.9,8.717.2.2,0,0,0,0,.386,11.1,11.1,0,0,1,8.9,8.717.2.2,0,0,0,.395,0,11.1,11.1,0,0,1,8.9-8.717A.2.2,0,0,0,195.705,133.654Z" fill="#f5c84c"/><circle cx="174.662" cy="110.494" r="3.377" fill="#87d147"/><circle cx="71.662" cy="144.494" r="3.377" fill="#70d6f9"/><circle cx="78.662" cy="34.494" r="3.377" fill="#f5c84c"/><path d="M116.054,47.538c-4.478,0-8.121-3.959-8.121-8.825s3.643-8.824,8.121-8.824,8.122,3.959,8.122,8.824S120.532,47.538,116.054,47.538Zm0-12.649c-1.721,0-3.121,1.715-3.121,3.824s1.4,3.825,3.121,3.825,3.122-1.716,3.122-3.825S117.775,34.889,116.054,34.889Z"/><path d="M139.946,47.538c-4.478,0-8.122-3.959-8.122-8.825s3.644-8.824,8.122-8.824,8.121,3.959,8.121,8.824S144.424,47.538,139.946,47.538Zm0-12.649c-1.721,0-3.122,1.715-3.122,3.824s1.4,3.825,3.122,3.825,3.121-1.716,3.121-3.825S141.667,34.889,139.946,34.889Z"/><path d="M131.523,120.622h-7.046a5.282,5.282,0,0,1-5.2-4.357L114.683,90.5a2.5,2.5,0,0,1,2.461-2.939h21.712a2.5,2.5,0,0,1,2.461,2.939l-4.59,25.764A5.282,5.282,0,0,1,131.523,120.622ZM120.129,92.561l4.067,22.826a.285.285,0,0,0,.281.235h7.046a.287.287,0,0,0,.282-.236l4.066-22.825Z"/><path d="M128,256.025A37.924,37.924,0,0,1,101.1,244.9L70.377,214.178a38.077,38.077,0,0,1-9.5-37.852,2.5,2.5,0,0,1,1.094-1.421c7.984-4.866,36.4-19.178,66.912,1.01h0a55.375,55.375,0,0,0,31.038,9.563,64.243,64.243,0,0,0,31.953-8.945,2.5,2.5,0,0,1,3.729,1.535,38.319,38.319,0,0,1-9.977,36.11L154.9,244.9A37.924,37.924,0,0,1,128,256.025ZM65.4,178.677a33.073,33.073,0,0,0,8.509,31.966l30.722,30.723a33.083,33.083,0,0,0,46.73,0l30.722-30.723a33.278,33.278,0,0,0,9.294-28.1c-10.068,5.265-37.282,16.058-65.261-2.457h0C99.048,162.169,73.74,173.818,65.4,178.677Z"/><path d="M150,178a9,9,0,1,1,9-9A9.011,9.011,0,0,1,150,178Zm0-13a4,4,0,1,0,4,4A4,4,0,0,0,150,165Z"/><path d="M113,213a13,13,0,1,1,13-13A13.015,13.015,0,0,1,113,213Zm0-21a8,8,0,1,0,8,8A8.009,8.009,0,0,0,113,192Z"/><path d="M137.5,158a6.5,6.5,0,1,1,6.5-6.5A6.508,6.508,0,0,1,137.5,158Zm0-8a1.5,1.5,0,1,0,1.5,1.5A1.5,1.5,0,0,0,137.5,150Z"/><path d="M139,220a8,8,0,1,1,8-8A8.009,8.009,0,0,1,139,220Zm0-11a3,3,0,1,0,3,3A3,3,0,0,0,139,209Z"/></svg>