<svg xmlns="http://www.w3.org/2000/svg" viewBox="0 0 256 256"><title>icon</title><rect x="21.5" y="243.5" width="214" height="10" rx="2.46" ry="2.46" fill="#b77035"/><path d="M224.486,233.5H32.514a3.013,3.013,0,0,0-3.014,3.014V243.5h198v-6.986A3.013,3.013,0,0,0,224.486,233.5Z" fill="#965622"/><path d="M198.225,233.5V105.559a61.152,61.152,0,0,0-43.788-58.848c-10.833-3.25-17.445-11.835-20.421-16.662a7.062,7.062,0,0,0-12.032,0c-2.976,4.827-9.588,13.412-20.421,16.662a61.152,61.152,0,0,0-43.788,58.848V233.5Z" fill="#b77035"/><path d="M198.225,233.5h22.65V204.439a1.939,1.939,0,0,0-1.939-1.939H198.225Z" fill="#dae6f1"/><rect x="193.125" y="54.667" width="27.5" height="10.11" rx="1.939" ry="1.939" fill="#b77035"/><polygon points="198.375 64.777 198.225 202.5 215.375 202.5 215.375 64.777 198.375 64.777" fill="#965622"/><circle cx="206.875" cy="9" r="6.5" fill="#edf4fc"/><path d="M216.875,54.667V29.987a13.462,13.462,0,0,0-1.693-6.535l-4.943-8.9a6.454,6.454,0,0,1-6.728,0l-4.943,8.9a13.462,13.462,0,0,0-1.693,6.535v24.68Z" fill="#dae6f1"/><path d="M57.775,233.5H35.125V204.439a1.939,1.939,0,0,1,1.939-1.939H57.775Z" fill="#dae6f1"/><rect x="35.375" y="54.667" width="27.5" height="10.11" rx="1.939" ry="1.939" fill="#b77035"/><polygon points="57.625 64.777 57.775 202.5 40.625 202.5 40.625 64.777 57.625 64.777" fill="#965622"/><circle cx="49.125" cy="9" r="6.5" fill="#edf4fc"/><path d="M39.125,54.667V29.987a13.462,13.462,0,0,1,1.693-6.535l4.943-8.9a6.454,6.454,0,0,0,6.728,0l4.943,8.9a13.462,13.462,0,0,1,1.693,6.535v24.68Z" fill="#dae6f1"/><path d="M188,233.5V105.559a51.014,51.014,0,0,0-36.437-49.27c-11.455-3.436-19.117-11.258-23.563-17.3-4.446,6.038-12.108,13.86-23.563,17.3A51.013,51.013,0,0,0,68,105.559V233.5Z" fill="#9be5f9"/><path d="M94.705,26.882a11.1,11.1,0,0,1-8.9-8.716.2.2,0,0,0-.395,0,11.1,11.1,0,0,1-8.9,8.716.2.2,0,0,0,0,.387,11.1,11.1,0,0,1,8.9,8.717.2.2,0,0,0,.395,0,11.1,11.1,0,0,1,8.9-8.717A.2.2,0,0,0,94.705,26.882Z" fill="#f5c84c"/><path d="M181.186,37.968a6.207,6.207,0,0,1-4.976-4.875.112.112,0,0,0-.221,0,6.209,6.209,0,0,1-4.976,4.875.109.109,0,0,0,0,.216,6.207,6.207,0,0,1,4.976,4.875.112.112,0,0,0,.221,0,6.206,6.206,0,0,1,4.976-4.875A.109.109,0,0,0,181.186,37.968Z" fill="#87d147"/><path d="M239.941,133.117h-2.33v-2.33a3.158,3.158,0,1,0-6.315,0v2.33h-2.329a3.157,3.157,0,0,0,0,6.314H231.3v2.33a3.158,3.158,0,1,0,6.315,0v-2.33h2.33a3.157,3.157,0,0,0,0-6.314Z" fill="#70d6f9"/><circle cx="103.662" cy="7.377" r="3.377" fill="#ef4460"/><circle cx="228.662" cy="161.377" r="3.377" fill="#f5c84c"/><circle cx="25.662" cy="100.377" r="3.377" fill="#70d6f9"/><path d="M233.039,256H23.961A4.966,4.966,0,0,1,19,251.04v-5.08A4.966,4.966,0,0,1,23.961,241H233.039A4.966,4.966,0,0,1,238,245.96v5.08A4.966,4.966,0,0,1,233.039,256ZM23.961,246,24,251.04,233.039,251,233,246Zm209.078,0h0Z"/><path d="M227.5,246H29.5a2.5,2.5,0,0,1-2.5-2.5v-6.986A5.521,5.521,0,0,1,32.514,231H224.486A5.521,5.521,0,0,1,230,236.514V243.5A2.5,2.5,0,0,1,227.5,246ZM32,241H225v-4.486a.514.514,0,0,0-.514-.514H32.514a.514.514,0,0,0-.514.514Z"/><path d="M198.225,236H57.775a2.5,2.5,0,0,1-2.5-2.5V105.559a63.548,63.548,0,0,1,45.57-61.243c10.041-3.012,16.221-11.054,19.011-15.579a9.562,9.562,0,0,1,16.288,0c2.79,4.525,8.97,12.567,19.011,15.579a63.548,63.548,0,0,1,45.57,61.243V233.5A2.5,2.5,0,0,1,198.225,236Zm-137.95-5h135.45V105.559a58.578,58.578,0,0,0-42.007-56.454c-11.625-3.487-18.667-12.614-21.83-17.744a4.563,4.563,0,0,0-7.776,0c-3.163,5.131-10.2,14.258-21.83,17.745a58.578,58.578,0,0,0-42.007,56.454Z"/><path d="M220.875,236h-22.65a2.5,2.5,0,0,1-2.5-2.5v-31a2.5,2.5,0,0,1,2.5-2.5h20.711a4.444,4.444,0,0,1,4.439,4.439V233.5A2.5,2.5,0,0,1,220.875,236Zm-20.15-5h17.65V205h-17.65Z"/><path d="M218.686,67.277H195.064a4.444,4.444,0,0,1-4.439-4.439V56.606a4.444,4.444,0,0,1,4.439-4.439h23.622a4.444,4.444,0,0,1,4.439,4.439v6.232A4.444,4.444,0,0,1,218.686,67.277Zm-23.061-5h22.5v-5.11h-22.5Z"/><path d="M215.375,205h-17.15a2.5,2.5,0,0,1-2.5-2.5l.15-137.723a2.5,2.5,0,0,1,2.5-2.5h17a2.5,2.5,0,0,1,2.5,2.5V202.5A2.5,2.5,0,0,1,215.375,205Zm-14.647-5h12.147V67.277h-12Z"/><path d="M206.875,18a9,9,0,1,1,9-9A9.01,9.01,0,0,1,206.875,18Zm0-13a4,4,0,1,0,4,4A4,4,0,0,0,206.875,5Z"/><path d="M216.875,57.167h-20a2.5,2.5,0,0,1-2.5-2.5V29.987a16,16,0,0,1,2.008-7.749l4.943-8.9a2.5,2.5,0,0,1,3.483-.923,4.014,4.014,0,0,0,4.131,0,2.5,2.5,0,0,1,3.484.923l4.943,8.9a16,16,0,0,1,2.008,7.749v24.68A2.5,2.5,0,0,1,216.875,57.167Zm-17.5-5h15V29.987A10.986,10.986,0,0,0,213,24.666l-3.864-6.956a8.988,8.988,0,0,1-4.514,0l-3.864,6.957a10.979,10.979,0,0,0-1.379,5.32Z"/><path d="M57.775,236H35.125a2.5,2.5,0,0,1-2.5-2.5V204.439A4.444,4.444,0,0,1,37.064,200H57.775a2.5,2.5,0,0,1,2.5,2.5v31A2.5,2.5,0,0,1,57.775,236Zm-20.15-5h17.65V205H37.625Z"/><path d="M60.936,67.277H37.314a4.444,4.444,0,0,1-4.439-4.439V56.606a4.444,4.444,0,0,1,4.439-4.439H60.936a4.444,4.444,0,0,1,4.439,4.439v6.232A4.444,4.444,0,0,1,60.936,67.277Zm-23.061-5h22.5v-5.11h-22.5Z"/><path d="M57.775,205H40.625a2.5,2.5,0,0,1-2.5-2.5V64.777a2.5,2.5,0,0,1,2.5-2.5h17a2.5,2.5,0,0,1,2.5,2.5l.15,137.723a2.5,2.5,0,0,1-2.5,2.5Zm-14.65-5H55.272L55.128,67.277h-12Z"/><path d="M49.125,18a9,9,0,1,1,9-9A9.01,9.01,0,0,1,49.125,18Zm0-13a4,4,0,1,0,4,4A4,4,0,0,0,49.125,5Z"/><path d="M59.125,57.167h-20a2.5,2.5,0,0,1-2.5-2.5V29.987a15.992,15.992,0,0,1,2.008-7.749l4.943-8.9a2.5,2.5,0,0,1,3.483-.923,4.014,4.014,0,0,0,4.131,0,2.5,2.5,0,0,1,3.484.923l4.943,8.9a16,16,0,0,1,2.008,7.749v24.68A2.5,2.5,0,0,1,59.125,57.167Zm-17.5-5h15V29.987a10.986,10.986,0,0,0-1.379-5.321L51.382,17.71a8.988,8.988,0,0,1-4.514,0L43,24.667a10.976,10.976,0,0,0-1.379,5.32Z"/><path d="M170.456,127.108a2.494,2.494,0,0,1-1.768-.732L129.072,86.76a2.5,2.5,0,1,1,3.535-3.535l39.617,39.616a2.5,2.5,0,0,1-1.768,4.267Z"/><path d="M172.61,107.984a2.489,2.489,0,0,1-1.767-.733L147.2,83.605a2.5,2.5,0,0,1,3.535-3.535l23.647,23.646a2.5,2.5,0,0,1-1.768,4.268Z"/><path d="M162.33,140.454a2.494,2.494,0,0,1-1.768-.732L148.41,127.57a2.5,2.5,0,0,1,3.535-3.535L164.1,136.187a2.5,2.5,0,0,1-1.768,4.267Z"/><path d="M188,236H68a2.5,2.5,0,0,1-2.5-2.5V105.559A53.5,53.5,0,0,1,103.718,53.9c10.825-3.248,18.085-10.7,22.269-16.384a2.5,2.5,0,0,1,4.026,0c4.184,5.681,11.444,13.136,22.269,16.384A53.5,53.5,0,0,1,190.5,105.559V233.5A2.5,2.5,0,0,1,188,236ZM70.5,231h115V105.559a48.528,48.528,0,0,0-34.655-46.875A47.781,47.781,0,0,1,128,43.052a47.781,47.781,0,0,1-22.845,15.632A48.528,48.528,0,0,0,70.5,105.559Z"/></svg>