<svg xmlns="http://www.w3.org/2000/svg" viewBox="0 0 256 256"><title>icon</title><path d="M90.241,97.24a1.7,1.7,0,0,0-1.679-1.532h-.016a15.8,15.8,0,0,1-5.761-1.094,38.208,38.208,0,0,1-1.336,4.169c-1.685,4.36-5.417,8.621-9.452,12.264a1.324,1.324,0,0,0,.13,2.062l.217.155a14.151,14.151,0,0,1,4.736,5.766l.12.269a1.332,1.332,0,0,0,2.135.419,57.035,57.035,0,0,0,12.192-16.153A37.515,37.515,0,0,1,90.241,97.24Z" fill="#edf4fc"/><path d="M177.117,67.267a3.39,3.39,0,0,1-1.344-2.684V56.211c0-25.144-19.337-46.473-44.437-47.96A47.4,47.4,0,0,0,81.227,55.44v8.413a3.434,3.434,0,0,1-1.553,2.835,15.864,15.864,0,0,0,8.872,29.02h.016a1.659,1.659,0,0,1,1.672,1.475,38,38,0,0,0,75.532,0,1.659,1.659,0,0,1,1.672-1.475h.016a15.857,15.857,0,0,0,9.663-28.441Z" fill="#edf4fc"/><path d="M165.05,100.167c-12.934,6.863-21.589-2.294-37.606-3.574a107.95,107.95,0,0,0-17.8,3.62S133.5,110.5,145.5,126.5l.128.077a38.245,38.245,0,0,0,19.645-26.267Z" fill="#5290db"/><path d="M92.068,72.6c.777.317,1.585.621,2.432.9,7.919,2.64,19.757.054,26.893-2.011a21.978,21.978,0,0,1,12.214,0c5.954,1.723,15.175,3.8,22.668,2.907l4.225-.9c1.214-.405,2.348-.854,3.42-1.327A96.2,96.2,0,0,1,165.8,50.939c-14.216,2.842-28.121-2.257-35.464-5.754a22.7,22.7,0,0,0-11.394-2.148c-.365.026-.757.048-1.148.071L118,43.1a22.6,22.6,0,0,0-3.112,1.856c-5.027,3.594-13.628,8.751-23.825,10.891A95.277,95.277,0,0,1,92.068,72.6Z" fill="#5290db"/><path d="M153.3,60.921c-4.527,1.286-8.91,3.255-12.439,4.279a6.345,6.345,0,0,0-.292,3.318c.714,3.874,4.916,6.348,9.387,5.526s7.517-4.631,6.8-8.506A6.7,6.7,0,0,0,153.3,60.921Z" fill="#f5c84c"/><path d="M102.7,60.921c4.527,1.286,8.91,3.255,12.439,4.279a6.345,6.345,0,0,1,.292,3.318c-.714,3.874-4.916,6.348-9.387,5.526s-7.517-4.631-6.8-8.506A6.7,6.7,0,0,1,102.7,60.921Z" fill="#f5c84c"/><path d="M207.736,247.241l-3.624-76.348A15,15,0,0,0,192.8,157.18l-26.466-6.662a29.6,29.6,0,0,1-5.882-2.163l-11.933-5.883a5.381,5.381,0,0,1-3-4.826V126.639a37.712,37.712,0,0,1-35.026,0v11.007a5.381,5.381,0,0,1-3,4.826l-11.933,5.884a29.694,29.694,0,0,1-5.881,2.162L63.205,157.18a15,15,0,0,0-11.317,13.713l-3.624,76.348a5.928,5.928,0,0,0,5.919,6.259H70.229A4.771,4.771,0,0,0,75,248.729V192.5l10.806,57.115a4.771,4.771,0,0,0,4.688,3.885h75.012a4.771,4.771,0,0,0,4.688-3.885L181,192.5v56.229a4.771,4.771,0,0,0,4.771,4.771h16.046A5.928,5.928,0,0,0,207.736,247.241Z" fill="#dae6f1"/><path d="M128,133.452A40.476,40.476,0,0,1,87.839,98.194a18.364,18.364,0,0,1-9.565-33.578.937.937,0,0,0,.453-.763V55.439A49.961,49.961,0,0,1,94.414,19.248,49.337,49.337,0,0,1,131.483,5.755c26.238,1.555,46.789,23.718,46.789,50.456v8.372a.894.894,0,0,0,.37.7A18.357,18.357,0,0,1,168.161,98.2,40.478,40.478,0,0,1,128,133.452ZM88.556,93.209A4.17,4.17,0,0,1,92.719,96.9a35.5,35.5,0,0,0,70.562,0,4.166,4.166,0,0,1,4.154-3.695h.009a13.358,13.358,0,0,0,8.15-23.959h0a5.856,5.856,0,0,1-2.321-4.666V56.211c0-24.1-18.485-44.066-42.084-45.464a44.269,44.269,0,0,0-33.344,12.14A44.939,44.939,0,0,0,83.727,55.439v8.414a5.937,5.937,0,0,1-2.655,4.907,13.365,13.365,0,0,0,7.474,24.449Zm78.9,5h0Zm-78.895,0h0Z"/><path d="M201.816,256H185.771a7.28,7.28,0,0,1-7.271-7.271V219.163l-5.85,30.917a7.275,7.275,0,0,1-7.144,5.92H90.494a7.276,7.276,0,0,1-7.145-5.921L77.5,219.163v29.566A7.28,7.28,0,0,1,70.229,256H54.184a8.429,8.429,0,0,1-8.416-8.9l3.624-76.328a17.43,17.43,0,0,1,13.2-16.02l26.467-6.662a27.218,27.218,0,0,0,5.385-1.98l11.934-5.884a2.86,2.86,0,0,0,1.605-2.583V126.639a2.5,2.5,0,0,1,3.66-2.215,35.213,35.213,0,0,0,32.708,0,2.5,2.5,0,0,1,3.66,2.215v11.007a2.86,2.86,0,0,0,1.6,2.583l11.933,5.884a27.186,27.186,0,0,0,5.387,1.981l26.466,6.661a17.424,17.424,0,0,1,13.2,16l3.626,76.361A8.429,8.429,0,0,1,201.816,256ZM181,190c.078,0,.156,0,.235.011A2.5,2.5,0,0,1,183.5,192.5v56.229A2.274,2.274,0,0,0,185.771,251h16.045a3.427,3.427,0,0,0,3.424-3.62v-.021l-3.625-76.347a12.437,12.437,0,0,0-9.429-11.408l-26.466-6.661a32.215,32.215,0,0,1-6.378-2.345l-11.933-5.884a7.828,7.828,0,0,1-4.394-7.068V130.54a40.713,40.713,0,0,1-30.028,0v7.106a7.828,7.828,0,0,1-4.394,7.068L96.658,150.6a32.13,32.13,0,0,1-6.377,2.344L63.815,159.6a12.443,12.443,0,0,0-9.43,11.428l-3.624,76.327A3.428,3.428,0,0,0,54.184,251H70.229a2.274,2.274,0,0,0,2.271-2.271V192.5a2.5,2.5,0,0,1,4.956-.465L88.262,249.15A2.273,2.273,0,0,0,90.494,251h75.012a2.271,2.271,0,0,0,2.231-1.849l10.807-57.116A2.5,2.5,0,0,1,181,190Z"/><path d="M80.188,219.987a2.5,2.5,0,0,1-.472-4.954l98.73-19.134a2.5,2.5,0,1,1,.951,4.909l-98.73,19.133A2.436,2.436,0,0,1,80.188,219.987Z"/><path d="M82.938,234.621a2.5,2.5,0,0,1-.473-4.954l93.07-18.036a2.5,2.5,0,1,1,.951,4.908l-93.07,18.036A2.512,2.512,0,0,1,82.938,234.621Z"/><path d="M86.07,250.085a2.5,2.5,0,0,1-.472-4.954l86.96-16.853a2.5,2.5,0,0,1,.951,4.909l-86.96,16.852A2.515,2.515,0,0,1,86.07,250.085Z"/><path d="M143.253,206.711a2.5,2.5,0,0,1-2.2-1.313L107,142.325a2.5,2.5,0,0,1,4.4-2.375l34.053,63.073a2.5,2.5,0,0,1-2.2,3.688Z"/><path d="M168.546,253.561a2.5,2.5,0,0,1-2.2-1.313l-9.248-17.13a2.5,2.5,0,1,1,4.4-2.375l9.248,17.13a2.5,2.5,0,0,1-2.2,3.688Z"/><path d="M96.8,215.9a2.5,2.5,0,0,1-2.2-1.313L64.048,158a2.5,2.5,0,1,1,4.4-2.375L99,212.208a2.5,2.5,0,0,1-2.2,3.688Z"/><path d="M118.223,255.576a2.5,2.5,0,0,1-2.2-1.312l-5.3-9.817a2.5,2.5,0,0,1,4.4-2.375l5.3,9.817a2.5,2.5,0,0,1-2.2,3.687Z"/><path d="M127.78,209.8a2.5,2.5,0,0,1-2.2-1.313l-31.9-59.094a2.5,2.5,0,1,1,4.4-2.375l31.905,59.094a2.5,2.5,0,0,1-2.2,3.688Z"/><path d="M152.5,255.579a2.5,2.5,0,0,1-2.2-1.312l-8.684-16.086a2.5,2.5,0,0,1,4.4-2.375l8.683,16.086a2.5,2.5,0,0,1-2.2,3.687Z"/><path d="M112.229,212.733a2.5,2.5,0,0,1-2.2-1.312L79.132,154.194a2.5,2.5,0,0,1,4.4-2.375l30.9,57.227a2.5,2.5,0,0,1-2.2,3.687Z"/><path d="M135.363,255.583a2.5,2.5,0,0,1-2.2-1.312l-7.178-13.3a2.5,2.5,0,0,1,4.4-2.375l7.178,13.3a2.5,2.5,0,0,1-2.2,3.687Z"/><path d="M155.751,204.2a2.5,2.5,0,0,1-1.94-4.073l35.59-43.94a2.5,2.5,0,1,1,3.885,3.146L157.7,203.273A2.492,2.492,0,0,1,155.751,204.2Z"/><path d="M124.1,169.631a2.5,2.5,0,0,1-1.941-4.073l21.494-26.537a2.5,2.5,0,0,1,3.885,3.147L126.046,168.7A2.5,2.5,0,0,1,124.1,169.631Z"/><path d="M139.94,199.172A2.5,2.5,0,0,1,138,195.1l35.192-43.449a2.5,2.5,0,1,1,3.885,3.147l-35.192,43.448A2.5,2.5,0,0,1,139.94,199.172Z"/><path d="M131.865,184.6a2.5,2.5,0,0,1-1.94-4.074l27.453-33.894a2.5,2.5,0,0,1,3.885,3.146l-27.453,33.9A2.5,2.5,0,0,1,131.865,184.6Z"/><path d="M181,197.579a2.5,2.5,0,0,1-1.94-4.073l22.159-27.359a2.5,2.5,0,0,1,3.885,3.147l-22.16,27.358A2.491,2.491,0,0,1,181,197.579Z"/><path d="M143.5,141h-33a2.5,2.5,0,0,1,0-5h33a2.5,2.5,0,0,1,0,5Z"/><path d="M136.6,153H114.92a2.5,2.5,0,0,1,0-5H136.6a2.5,2.5,0,0,1,0,5Z"/><path d="M204.463,191.563a2.589,2.589,0,0,1-.3-.017l-16.4-1.981a2.5,2.5,0,1,1,.6-4.964l16.4,1.98a2.5,2.5,0,0,1-.3,4.982Z"/><path d="M74.82,175.9a2.572,2.572,0,0,1-.3-.017l-22.075-2.667a2.5,2.5,0,0,1,.6-4.965l22.074,2.667a2.5,2.5,0,0,1-.3,4.982Z"/><path d="M204.456,206.053a2.592,2.592,0,0,1-.3-.018l-22.387-2.7a2.5,2.5,0,0,1,.6-4.965l22.388,2.7a2.5,2.5,0,0,1-.3,4.983Z"/><path d="M83.072,191.385a2.575,2.575,0,0,1-.3-.018l-31.3-3.782a2.5,2.5,0,0,1,.6-4.965l31.3,3.782a2.5,2.5,0,0,1-.3,4.983Z"/><path d="M205.617,220.683a2.6,2.6,0,0,1-.3-.018l-23.555-2.847a2.5,2.5,0,1,1,.6-4.964l23.556,2.846a2.5,2.5,0,0,1-.3,4.983Z"/><path d="M91.262,206.864a2.826,2.826,0,0,1-.3-.017l-40.177-4.855a2.5,2.5,0,0,1,.6-4.965l40.177,4.855a2.5,2.5,0,0,1-.3,4.982Z"/><path d="M206.162,235.237a2.826,2.826,0,0,1-.3-.017l-24.1-2.912a2.5,2.5,0,1,1,.6-4.965l24.1,2.912a2.5,2.5,0,0,1-.3,4.982Z"/><path d="M74.35,219.311a2.579,2.579,0,0,1-.3-.018L50.126,216.4a2.5,2.5,0,1,1,.6-4.964l23.92,2.89a2.5,2.5,0,0,1-.3,4.983Z"/><path d="M206.942,249.821a2.808,2.808,0,0,1-.3-.017L181.758,246.8a2.5,2.5,0,0,1,.6-4.965l24.882,3.006a2.5,2.5,0,0,1-.3,4.982Z"/><path d="M74.35,233.8a2.579,2.579,0,0,1-.3-.018l-24.62-2.975a2.5,2.5,0,1,1,.6-4.965l24.62,2.975a2.5,2.5,0,0,1-.3,4.983Z"/><path d="M74.326,248.286a2.84,2.84,0,0,1-.3-.017l-25.335-3.062a2.5,2.5,0,0,1,.6-4.965L74.623,243.3a2.5,2.5,0,0,1-.3,4.982Z"/><path d="M137.626,68.3a5.974,5.974,0,0,1-4.539-1.815c-2.866-3.045-1.616-8.4-1.337-9.442a2.5,2.5,0,0,1,4.831,1.291c-.443,1.693-.492,4.05.148,4.726.257.27.974.318,1.919.124a50.972,50.972,0,0,0,6.676-2.177c4.1-1.527,8.752-3.258,13.4-3.7a2.5,2.5,0,1,1,.476,4.976c-3.994.383-8.317,1.991-12.131,3.411a53.755,53.755,0,0,1-7.418,2.39A10.13,10.13,0,0,1,137.626,68.3Z"/><path d="M118.374,68.3a10.138,10.138,0,0,1-2.024-.218,53.755,53.755,0,0,1-7.418-2.39c-3.814-1.42-8.137-3.028-12.131-3.411a2.5,2.5,0,1,1,.476-4.976c4.647.444,9.3,2.175,13.4,3.7a50.972,50.972,0,0,0,6.676,2.177c.946.193,1.665.145,1.92-.125.682-.725.546-3.238.148-4.721a2.5,2.5,0,1,1,4.83-1.3c.279,1.042,1.529,6.4-1.337,9.442A5.975,5.975,0,0,1,118.374,68.3Z"/><path d="M103.956,88.3c-16.553,0-26.838-6.905-32.1-11.887a2.5,2.5,0,0,1-.641-2.644,18.518,18.518,0,0,1,7.061-9.149,1.055,1.055,0,0,0,.351-.395,2.5,2.5,0,0,1,3.951-.645,33.611,33.611,0,0,0,12.715,7.553c7.421,2.474,19.1-.216,25.407-2.04a24.449,24.449,0,0,1,13.6,0c6.3,1.824,17.987,4.516,25.407,2.04A32.826,32.826,0,0,0,173.9,62.043a2.5,2.5,0,0,1,4.371,1.658v.882a.894.894,0,0,0,.37.7,18.438,18.438,0,0,1,5.836,7.662,2.5,2.5,0,0,1-.552,2.713c-16.921,16.852-41.491,12.666-51.268,10.084a20.244,20.244,0,0,0-10.317,0A71.977,71.977,0,0,1,103.956,88.3ZM127.5,80.077a25.207,25.207,0,0,1,6.435.834c24.249,6.4,38.368-1.454,45.186-7.585a13.412,13.412,0,0,0-3.527-4.076,6.006,6.006,0,0,1-.961-.922,39.113,39.113,0,0,1-13.343,7.544c-8.269,2.754-20,.443-28.377-1.981a19.46,19.46,0,0,0-10.826,0c-8.381,2.425-20.109,4.736-28.378,1.981a39.247,39.247,0,0,1-12.748-7.036,13.506,13.506,0,0,0-4.4,5.085c6.8,5.819,20.8,13.247,44.5,6.99A25.207,25.207,0,0,1,127.5,80.077Z"/><path d="M105.754,24.22a56.422,56.422,0,0,1-9.889-.845A2.5,2.5,0,0,1,94.6,19.087,49.348,49.348,0,0,1,131.483,5.755h0A49.238,49.238,0,0,1,162.5,19.335a2.5,2.5,0,0,1-1.359,4.281,68.092,68.092,0,0,1-26.753-1.871,20.248,20.248,0,0,0-10.318,0A72.7,72.7,0,0,1,105.754,24.22Zm-3.353-5.1a65.671,65.671,0,0,0,20.391-2.209,25.265,25.265,0,0,1,12.87,0,66.65,66.65,0,0,0,18.887,2.279,44.266,44.266,0,0,0-52.148-.07Z"/><path d="M157.179,54.293c-11.294,0-21.56-3.822-27.92-6.852A20.284,20.284,0,0,0,119.12,45.53c-7.692.553-22.474.38-35.11-7a2.5,2.5,0,0,1-1.024-3.175,49.933,49.933,0,0,1,6.193-10.336,2.5,2.5,0,0,1,3.378-.537c.99.672,1.844,1.205,2.688,1.673,6.834,3.807,18.815,3.327,25.346,2.7a24.428,24.428,0,0,1,13.368,2.52c5.858,2.96,16.853,7.768,24.59,6.712a34.121,34.121,0,0,0,11.822-3.824,2.5,2.5,0,0,1,3.483,1.174,51.021,51.021,0,0,1,3.65,12.005,2.5,2.5,0,0,1-1.382,2.683A43.377,43.377,0,0,1,157.179,54.293ZM120.562,40.479a25.251,25.251,0,0,1,10.846,2.449c8.7,4.142,25.291,9.926,40.8,3.475a46.106,46.106,0,0,0-1.925-6.509,39.7,39.7,0,0,1-11.057,3.15c-8.636,1.178-19.733-3.269-27.521-7.2a19.482,19.482,0,0,0-10.638-2.006c-8.685.831-20.638.93-28.253-3.31-.344-.191-.688-.391-1.039-.6a45.061,45.061,0,0,0-3.231,5.389c11.017,5.617,23.517,5.712,30.218,5.233C119.36,40.5,119.962,40.479,120.562,40.479Z"/><path d="M81.844,59.343c-.218,0-.436,0-.656-.005a2.5,2.5,0,0,1-2.461-2.5v-1.4a49.564,49.564,0,0,1,1.15-10.6,2.483,2.483,0,0,1,2.576-1.961c1.276.067,2.36.08,3.412.037,3.171-.129,7.036-1.339,11.489-3.595a2.5,2.5,0,0,1,1.7-.2A66.455,66.455,0,0,0,117.852,40.6a2.5,2.5,0,0,1,1.26,4.734,20.56,20.56,0,0,0-2.772,1.651C109.846,51.631,96.8,59.342,81.844,59.343Zm2.521-11.406a44.838,44.838,0,0,0-.624,6.36c10.234-.492,19.443-4.866,25.647-8.691A67.128,67.128,0,0,1,98.8,44.184c-4.767,2.322-9.045,3.574-12.729,3.724C85.512,47.932,84.951,47.938,84.365,47.937Z"/><path d="M92.068,75.1a2.5,2.5,0,0,1-.945-.186,38.353,38.353,0,0,1-12.016-7.734,2.5,2.5,0,0,1-.482-2.956.814.814,0,0,0,.1-.368V56.838a2.5,2.5,0,0,1,.745-1.781,2.54,2.54,0,0,1,1.792-.719,41.912,41.912,0,0,0,9.284-.939,2.5,2.5,0,0,1,2.986,2.079,97.076,97.076,0,0,1,1.033,17.194,2.5,2.5,0,0,1-2.5,2.425ZM83.68,64.584A32.893,32.893,0,0,0,89.6,68.668a92.752,92.752,0,0,0-.667-9.893,47.09,47.09,0,0,1-5.208.525v4.553A5.728,5.728,0,0,1,83.68,64.584Z"/><path d="M87.862,98.174l-.107,0a18.342,18.342,0,0,1-14.6-28.344,2.5,2.5,0,0,1,4.189,2.731,13.449,13.449,0,0,0-.779,1.365,37.189,37.189,0,0,0,14.989,7.765,2.5,2.5,0,0,1,1.827,2.851,71.205,71.205,0,0,1-3.167,11.987A2.5,2.5,0,0,1,87.862,98.174ZM75.188,79.244q-.014.3-.013.593A13.325,13.325,0,0,0,86.147,92.976a66.39,66.39,0,0,0,1.885-7.1A42.011,42.011,0,0,1,75.188,79.244Z"/><path d="M163.92,74.673a2.5,2.5,0,0,1-2.5-2.437,98.379,98.379,0,0,1,1.928-21.8,2.5,2.5,0,0,1,1.959-1.952,36.554,36.554,0,0,0,8.649-2.868,2.5,2.5,0,0,1,3.544,1.824,51.186,51.186,0,0,1,.771,8.767V63.7a2.5,2.5,0,0,1-.628,1.658,36.785,36.785,0,0,1-12.713,9.1A2.5,2.5,0,0,1,163.92,74.673Zm4.019-21.646a94.147,94.147,0,0,0-1.53,15.076,31.049,31.049,0,0,0,6.863-5.374V56.211a44.982,44.982,0,0,0-.254-4.753A41.918,41.918,0,0,1,167.939,53.027ZM175.772,63.7h0Z"/><path d="M168.138,98.174a2.5,2.5,0,0,1-2.349-1.647,71.249,71.249,0,0,1-3.2-12.258,2.5,2.5,0,0,1,1.775-2.827A36.785,36.785,0,0,0,180.4,72.118a2.5,2.5,0,0,1,4.081.831,18.342,18.342,0,0,1-16.234,25.223Zm-.223-12.608a66.462,66.462,0,0,0,1.938,7.409,13.322,13.322,0,0,0,10.972-13.138c0-.445-.022-.889-.066-1.329A41.714,41.714,0,0,1,167.915,85.566Z"/><path d="M131.624,35.551a2.5,2.5,0,0,1-.991-.205,19.53,19.53,0,0,0-9.567-1.512,89.186,89.186,0,0,1-12.969.338,2.5,2.5,0,0,1-.758-4.831l.206-.08c.246-.1.492-.191.743-.275,5.8-1.945,16.274-6.082,21.343-11.922a2.475,2.475,0,0,1,2.139-.848,25.261,25.261,0,0,1,3.892.7,71.6,71.6,0,0,0,8.56,1.7,2.5,2.5,0,0,1,1.709,3.913A51.514,51.514,0,0,1,133.052,35.1,2.5,2.5,0,0,1,131.624,35.551Zm-8.729-6.8a24.555,24.555,0,0,1,8.385,1.479,48.218,48.218,0,0,0,8.047-7.352c-1.665-.323-3.316-.7-4.94-1.129a19.292,19.292,0,0,0-1.907-.4,41.234,41.234,0,0,1-10.625,7.422C122.2,28.755,122.549,28.747,122.9,28.747Z"/><path d="M156.234,43.237c-5.467,0-12.21-1.773-20.1-5.292a2.5,2.5,0,0,1,.849-4.777c7.417-.5,18.068-2.5,26.686-9.161a2.5,2.5,0,0,1,3.484.42,51.042,51.042,0,0,1,6.7,11.013,2.5,2.5,0,0,1-1.084,3.211,39.117,39.117,0,0,1-13.545,4.393h0A22.253,22.253,0,0,1,156.234,43.237Zm2.653-2.671h0Zm-11.672-3.814c4.467,1.29,8.307,1.751,11.334,1.337h0a34.67,34.67,0,0,0,9.709-2.768,46.155,46.155,0,0,0-3.577-5.876A50.408,50.408,0,0,1,147.215,36.752Z"/><path d="M158.484,27.019a2.371,2.371,0,0,1-.313-.02A2.5,2.5,0,0,1,156,24.208c1.357-10.856,11.824-14.9,12.27-15.067a2.5,2.5,0,0,1,1.762,4.678c-.358.139-8.095,3.207-9.071,11.01A2.5,2.5,0,0,1,158.484,27.019Z"/><path d="M160.677,28.88a2.5,2.5,0,0,1-1.839-4.192c5.554-6.038,13.686-3.957,14.029-3.865a2.5,2.5,0,0,1-1.277,4.835c-.248-.062-5.6-1.363-9.072,2.414A2.5,2.5,0,0,1,160.677,28.88Z"/><path d="M98.22,27.019a2.5,2.5,0,0,1-2.478-2.19c-.986-7.891-8.983-10.976-9.064-11.007a2.5,2.5,0,1,1,1.756-4.681c.445.167,10.912,4.211,12.269,15.067A2.5,2.5,0,0,1,98.533,27,2.371,2.371,0,0,1,98.22,27.019Z"/><path d="M96.027,28.88a2.494,2.494,0,0,1-1.84-.808c-3.532-3.837-9.006-2.433-9.061-2.417a2.5,2.5,0,1,1-1.289-4.832c.343-.092,8.474-2.174,14.029,3.865a2.5,2.5,0,0,1-1.839,4.192Z"/><path d="M137.431,12.807a2.5,2.5,0,0,1-2.371-3.292,17.431,17.431,0,0,1,7.909-9.24,2.5,2.5,0,0,1,2.29,4.445A12.491,12.491,0,0,0,139.8,11.1,2.5,2.5,0,0,1,137.431,12.807Z"/><path d="M155.382,105.186c-4.576,0-8.887-1.362-13.339-2.767-5.692-1.8-12.14-3.843-20.418-3.422-20.647,1.034-32.729-7.476-33.234-7.838A2.5,2.5,0,0,1,91.3,87.1c.15.105,11.3,7.842,30.071,6.908,9.177-.46,16.08,1.724,22.174,3.647,7.609,2.4,13.1,4.139,20.33.309a2.5,2.5,0,0,1,2.344,4.416A22.577,22.577,0,0,1,155.382,105.186Z"/><path d="M93.238,110.729a2.5,2.5,0,0,1-1.634-4.392c11.2-9.675,34.605-12.132,35.6-12.232a2.5,2.5,0,1,1,.5,4.975c-.226.024-22.823,2.4-32.83,11.042A2.5,2.5,0,0,1,93.238,110.729Z"/><path d="M145.5,129a2.5,2.5,0,0,1-2-1c-11.468-15.291-34.614-25.392-34.847-25.491a2.5,2.5,0,0,1,1.981-4.592c1,.431,24.608,10.738,36.866,27.083a2.5,2.5,0,0,1-2,4Z"/><path d="M120.876,132.876a2.5,2.5,0,0,1-2.285-1.484,65.594,65.594,0,0,0-20.285-25.277,2.5,2.5,0,0,1,2.81-4.135,69.826,69.826,0,0,1,22.043,27.378,2.5,2.5,0,0,1-2.283,3.518Z"/><path d="M78.411,122.585a3.756,3.756,0,0,1-.745-.073,3.835,3.835,0,0,1-2.748-2.192l-.12-.269a11.652,11.652,0,0,0-3.9-4.747l-.22-.158a3.823,3.823,0,0,1-.358-5.954c4.51-4.072,7.47-7.877,8.8-11.31a35.4,35.4,0,0,0,1.249-3.9,2.5,2.5,0,0,1,3.327-1.7,13.317,13.317,0,0,0,4.853.924,4.207,4.207,0,0,1,4.179,3.75,35.21,35.21,0,0,0,1.2,5.9,2.5,2.5,0,0,1-.153,1.8,59.022,59.022,0,0,1-12.722,16.875A3.849,3.849,0,0,1,78.411,122.585Zm-3.69-10.65A16.664,16.664,0,0,1,78.76,116.8a53.683,53.683,0,0,0,10.1-13.487,40.259,40.259,0,0,1-1.02-5.116,18.077,18.077,0,0,1-3.366-.449c-.216.658-.446,1.3-.692,1.94C82.282,103.562,79.236,107.679,74.721,111.935Zm-1.15-.867,0,0Z"/><path d="M145.628,129.076a2.509,2.509,0,0,1-1.279-.351l-.128-.077A2.483,2.483,0,0,1,143.5,128c-11.468-15.291-34.614-25.392-34.847-25.491a2.5,2.5,0,0,1,.274-4.692,110.232,110.232,0,0,1,18.279-3.712,2.55,2.55,0,0,1,.437,0,69.25,69.25,0,0,1,15.9,3.551c7.611,2.4,13.113,4.139,20.34.3a2.5,2.5,0,0,1,2.526.106l.223.144a2.5,2.5,0,0,1,1.1,2.589,40.482,40.482,0,0,1-20.931,27.99A2.5,2.5,0,0,1,145.628,129.076Zm-28.79-28.146c7.684,4.023,20.778,11.876,29.386,22.438a36.141,36.141,0,0,0,15.4-19.088c-7.045,2.1-13.168.166-19.584-1.858a64.726,64.726,0,0,0-14.56-3.318A106.315,106.315,0,0,0,116.838,100.93Z"/><path d="M102.571,77.123a28.257,28.257,0,0,1-8.862-1.251c-.855-.286-1.7-.6-2.586-.961a2.5,2.5,0,0,1-1.554-2.39,92.1,92.1,0,0,0-.98-16.306A2.5,2.5,0,0,1,90.548,53.4c9.628-2.021,17.759-6.814,22.885-10.479a24.755,24.755,0,0,1,2.67-1.656,2.491,2.491,0,0,1,1.543-.653h.009c.377-.02.754-.042,1.106-.067a25.191,25.191,0,0,1,12.647,2.384c6.815,3.245,20.28,8.28,33.9,5.56a2.5,2.5,0,0,1,2.939,2.95,93.392,93.392,0,0,0-1.828,20.671,2.5,2.5,0,0,1-1.489,2.351c-1.238.547-2.428,1.009-3.64,1.412a2.582,2.582,0,0,1-.271.073l-4.225.9c-.074.015-.148.028-.224.037-7.809.925-17.176-1.113-23.657-2.988a19.46,19.46,0,0,0-10.826,0C116.412,75.533,109.2,77.123,102.571,77.123ZM94.6,70.892q.343.121.687.236c7.421,2.474,19.1-.216,25.407-2.04a24.449,24.449,0,0,1,13.6,0c4.918,1.423,14.236,3.675,21.568,2.839l3.971-.843c.518-.175,1.033-.362,1.553-.565A98.8,98.8,0,0,1,162.7,53.954c-13.736,1.587-26.656-3.28-33.443-6.513A20.284,20.284,0,0,0,119.12,45.53l-.447.031a19.9,19.9,0,0,0-2.333,1.426A69.019,69.019,0,0,1,93.848,57.764,97.392,97.392,0,0,1,94.6,70.892Z"/><path d="M148.249,76.7c-4.97,0-9.3-3.158-10.142-7.73a8.9,8.9,0,0,1,.4-4.617,2.493,2.493,0,0,1,1.654-1.553c1.534-.446,3.3-1.1,5.165-1.8,2.334-.868,4.747-1.766,7.288-2.488a2.507,2.507,0,0,1,1.9.219,9.243,9.243,0,0,1,4.7,6.351c.961,5.224-2.991,10.345-8.81,11.417A11.978,11.978,0,0,1,148.249,76.7Zm-5.276-9.541a3.71,3.71,0,0,0,.052.906c.463,2.514,3.374,4.091,6.476,3.52s5.26-3.082,4.8-5.595a3.974,3.974,0,0,0-1.415-2.339c-1.975.611-3.921,1.335-5.815,2.039C145.643,66.221,144.273,66.729,142.973,67.159Z"/><path d="M107.752,76.7a11.88,11.88,0,0,1-2.157-.2c-5.82-1.072-9.772-6.193-8.811-11.417a9.243,9.243,0,0,1,4.7-6.351,2.515,2.515,0,0,1,1.9-.219c2.541.722,4.954,1.62,7.288,2.488,1.867.694,3.631,1.35,5.165,1.8a2.493,2.493,0,0,1,1.654,1.553,8.9,8.9,0,0,1,.4,4.617C117.052,73.541,112.721,76.7,107.752,76.7Zm-4.635-13.049A3.974,3.974,0,0,0,101.7,65.99c-.463,2.513,1.69,5.023,4.8,5.595s6.013-1.007,6.475-3.52a3.661,3.661,0,0,0,.052-.906c-1.3-.43-2.67-.938-4.095-1.469C107.038,64.986,105.092,64.262,103.117,63.651Z"/><path d="M54.941,118.487h-2.33v-2.33a3.158,3.158,0,0,0-6.315,0v2.33H43.967a3.158,3.158,0,0,0,0,6.315H46.3v2.33a3.158,3.158,0,0,0,6.315,0V124.8h2.33a3.158,3.158,0,0,0,0-6.315Z" fill="#87d147"/><path d="M212.705,38.654a11.1,11.1,0,0,1-8.9-8.717.2.2,0,0,0-.395,0,11.1,11.1,0,0,1-8.9,8.717.2.2,0,0,0,0,.386,11.1,11.1,0,0,1,8.9,8.717.2.2,0,0,0,.395,0,11.1,11.1,0,0,1,8.9-8.717A.2.2,0,0,0,212.705,38.654Z" fill="#f5c84c"/><circle cx="191.662" cy="11.494" r="3.377" fill="#70d6f9"/><circle cx="67.662" cy="38.494" r="3.377" fill="#ef4460"/><circle cx="40.662" cy="153.494" r="3.377" fill="#f5c84c"/><circle cx="202.662" cy="141.494" r="3.377" fill="#ef4460"/><path d="M138.6,111.172a2.482,2.482,0,0,1-.821-.14A30.147,30.147,0,0,0,128,109.649c-1.4,0-2.745.063-3.993.187a2.5,2.5,0,1,1-.492-4.977c1.411-.139,2.92-.21,4.485-.21a35.04,35.04,0,0,1,11.416,1.661,2.5,2.5,0,0,1-.82,4.862Z"/></svg>