<svg xmlns="http://www.w3.org/2000/svg" viewBox="0 0 256 256"><title>icon</title><path d="M171.277,57.425a9.815,9.815,0,0,1-1.363-4.164C166.993,22,149.853,2.5,128.527,2.5S89.059,22,86.087,53.261a9.9,9.9,0,0,1-1.372,4.178,27.064,27.064,0,0,0-3.608,14.294c0,15.457,13.715,29.435,20.155,35.147a33.87,33.87,0,0,1,5.083,5.853,27.812,27.812,0,0,0,11.278,8.811,24.956,24.956,0,0,0,20.754,0,27.815,27.815,0,0,0,11.279-8.811,33.644,33.644,0,0,1,5.063-5.836c6.432-5.7,20.174-19.692,20.174-35.164A27.062,27.062,0,0,0,171.277,57.425Z" fill="#edf4fc"/><path d="M180.324,34.239c-4.738-2.369-9.317.474-13,4.481a86.134,86.134,0,0,1,2.588,14.541,9.815,9.815,0,0,0,1.363,4.164,25.751,25.751,0,0,1,3.466,11.213c8.617-3.016,7.985-10.119,6.773-14.21a6.9,6.9,0,0,1,.928-5.733C184.723,45.215,186.375,37.264,180.324,34.239Z" fill="#edf4fc"/><path d="M84.715,57.439a9.9,9.9,0,0,0,1.372-4.178A81.99,81.99,0,0,1,88.748,38.8c-3.694-4.049-8.3-6.945-13.072-4.56-6.051,3.025-4.4,10.976-2.12,14.456a6.9,6.9,0,0,1,.928,5.733c-1.212,4.091-1.844,11.194,6.773,14.21A25.74,25.74,0,0,1,84.715,57.439Z" fill="#edf4fc"/><path d="M231.528,194.719a14.746,14.746,0,0,1-1.055-10.685,47.323,47.323,0,0,0-6.24-39.689,38.581,38.581,0,0,0-27.488-17.156,11.324,11.324,0,0,1-8.249-5.43c-4.928-8.135-12.693-12.595-17.629-14.748a11.028,11.028,0,0,1-6.187-7.064l-.75-2.6a84.248,84.248,0,0,1-9.1,9.458,34.522,34.522,0,0,0-5.171,5.931,27.8,27.8,0,0,1-11.279,8.812,24.956,24.956,0,0,1-20.754,0,27.808,27.808,0,0,1-11.28-8.813,34.412,34.412,0,0,0-5.155-5.916,84.33,84.33,0,0,1-9.118-9.472l-.75,2.6a11.027,11.027,0,0,1-6.186,7.064c-4.936,2.153-12.7,6.613-17.63,14.748a11.324,11.324,0,0,1-8.249,5.43,38.581,38.581,0,0,0-27.488,17.156,47.323,47.323,0,0,0-6.24,39.689,14.746,14.746,0,0,1-1.055,10.685c-4.217,8.24-10.477,26.5-3.089,53.933a6.519,6.519,0,0,0,6.282,4.845h200.67a6.519,6.519,0,0,0,6.282-4.845C242.005,221.218,235.745,202.959,231.528,194.719Z" fill="#dae6f1"/><path d="M151.242,47.98a57.814,57.814,0,0,1-10.023,4.449,6.6,6.6,0,1,0,10.023-4.449Z" fill="#f5c84c"/><path d="M104.758,47.98a57.814,57.814,0,0,0,10.023,4.449,6.6,6.6,0,1,1-10.023-4.449Z" fill="#f5c84c"/><path d="M111.492,96.352a6.123,6.123,0,0,1-6.578,1.794,23.648,23.648,0,0,1,3.52-16.551,1.224,1.224,0,0,1,2.227.327,62,62,0,0,0,4.766,12.865A5.473,5.473,0,0,0,111.492,96.352Z" fill="#fcdd86"/><path d="M144.508,96.352a6.123,6.123,0,0,0,6.578,1.794,23.648,23.648,0,0,0-3.52-16.551,1.224,1.224,0,0,0-2.227.327,62,62,0,0,1-4.766,12.865A5.473,5.473,0,0,1,144.508,96.352Z" fill="#fcdd86"/><path d="M230.473,184.034c.023-.082.045-.17.068-.254A29.238,29.238,0,0,1,215.5,134.929a37.857,37.857,0,0,0-9.373-5.331,39.773,39.773,0,0,0,25.354,65.026A14.75,14.75,0,0,1,230.473,184.034Z" fill="#818182"/><path d="M59.187,155.155A39.623,39.623,0,0,0,49.869,129.6a37.857,37.857,0,0,0-9.373,5.331A29.238,29.238,0,0,1,25.459,183.78c.023.084.045.172.068.254a14.75,14.75,0,0,1-1.012,10.59A39.864,39.864,0,0,0,59.187,155.155Z" fill="#818182"/><path d="M237,211.693a52.914,52.914,0,0,1-24.131-7.2,1.38,1.38,0,0,0-1.846,1.956c8.875,13.273,19.465,18.143,26.979,19.873A75.111,75.111,0,0,0,237,211.693Z" fill="#818182"/><path d="M18.993,211.693a52.923,52.923,0,0,0,24.132-7.2,1.38,1.38,0,0,1,1.846,1.956c-8.876,13.273-19.466,18.143-26.98,19.873A75.111,75.111,0,0,1,18.993,211.693Z" fill="#818182"/><path d="M84.075,107.49c-4.934,2.307-11.982,6.693-16.571,14.269a11.533,11.533,0,0,1-4.042,3.977C78.806,157.849,112.476,215.425,170.27,253.5h18.9c1.023-5.317,1.885-10.791,2.613-16.164C121.021,197.948,89.4,121.525,84.075,107.49Z" fill="#b77035"/><path d="M144.289,200.83a356.124,356.124,0,0,0,48.249-75.094,11.533,11.533,0,0,1-4.042-3.977c-4.589-7.576-11.637-11.962-16.571-14.269C168.6,116.261,155,149.4,128,182.63,132.968,188.744,138.4,194.86,144.289,200.83Z" fill="#965622"/><path d="M111.711,200.83a211.6,211.6,0,0,1-47.491,36.5c.728,5.373,1.59,10.847,2.613,16.164h18.9A264.534,264.534,0,0,0,128,218.641C122.2,212.79,116.773,206.823,111.711,200.83Z" fill="#965622"/><path d="M183.705,8.882a11.1,11.1,0,0,1-8.9-8.716.2.2,0,0,0-.395,0,11.1,11.1,0,0,1-8.9,8.716.2.2,0,0,0,0,.387,11.1,11.1,0,0,1,8.9,8.717.2.2,0,0,0,.395,0,11.1,11.1,0,0,1,8.9-8.717A.2.2,0,0,0,183.705,8.882Z" fill="#f5c84c"/><path d="M64.941,90.117h-2.33v-2.33a3.158,3.158,0,1,0-6.315,0v2.33H53.967a3.157,3.157,0,1,0,0,6.314H56.3v2.33a3.158,3.158,0,1,0,6.315,0v-2.33h2.33a3.157,3.157,0,0,0,0-6.314Z" fill="#70d6f9"/><circle cx="31.662" cy="116.377" r="3.377" fill="#f5c84c"/><circle cx="210.662" cy="113.377" r="3.377" fill="#70d6f9"/><circle cx="8.662" cy="194.377" r="3.377" fill="#87d147"/><circle cx="196.662" cy="30.377" r="3.377" fill="#ef4460"/><path d="M132.154,108.2a2.485,2.485,0,0,1-.874-.158,9.545,9.545,0,0,0-6.56,0,2.5,2.5,0,1,1-1.748-4.684,14.563,14.563,0,0,1,10.056,0,2.5,2.5,0,0,1-.874,4.842Z"/><path d="M128,78.062a2.5,2.5,0,0,1,0-5,8.462,8.462,0,0,0,7.626-4.843,5.876,5.876,0,0,1,5.241-3.373,5.947,5.947,0,0,1,5.424,3.187l.053.1a2.519,2.519,0,0,1-1.083,3.379,2.482,2.482,0,0,1-3.351-1.067l2.164-1.259-2.217,1.156a.946.946,0,0,0-.888-.5.885.885,0,0,0-.819.5A13.479,13.479,0,0,1,128,78.062Z"/><path d="M128,78.062a13.478,13.478,0,0,1-12.15-7.716.886.886,0,0,0-.819-.5.943.943,0,0,0-.888.5,2.558,2.558,0,0,1-3.395,1.125,2.444,2.444,0,0,1-1.108-3.3l.072-.141a5.975,5.975,0,0,1,10.662.192A8.462,8.462,0,0,0,128,73.062a2.5,2.5,0,0,1,0,5Z"/><path d="M138.687,55.729a2.5,2.5,0,0,1-.7-4.9c3.01-.876,10.616-3.393,16.2-7.831a2.5,2.5,0,1,1,3.11,3.915c-6.281,4.99-14.621,7.758-17.916,8.717A2.5,2.5,0,0,1,138.687,55.729Z"/><path d="M117.312,55.729a2.5,2.5,0,0,1-.7-.1c-3.3-.959-11.635-3.727-17.916-8.717A2.5,2.5,0,1,1,101.807,43c5.587,4.438,13.193,6.955,16.2,7.831a2.5,2.5,0,0,1-.7,4.9Z"/><path d="M189.17,256a2.579,2.579,0,0,1-.475-.045,2.5,2.5,0,0,1-1.983-2.928c5.177-26.916,6.274-58.355,6.285-58.67a2.475,2.475,0,0,1,2.582-2.415,2.5,2.5,0,0,1,2.415,2.582c-.011.319-1.122,32.151-6.371,59.448A2.5,2.5,0,0,1,189.17,256Z"/><path d="M66.83,256a2.5,2.5,0,0,1-2.453-2.028c-5.249-27.3-6.36-59.129-6.371-59.448a2.5,2.5,0,0,1,5-.167c.011.315,1.111,31.767,6.285,58.67a2.5,2.5,0,0,1-1.983,2.928A2.579,2.579,0,0,1,66.83,256Z"/><path d="M109.959,243.505c-1.411,0-2.778-.058-4.059-.151-.742-.054-1.483-.145-2.205-.269a2.5,2.5,0,1,1,.846-4.927c.563.1,1.142.167,1.722.209,7.94.575,13.937-.621,16.892-3.37a7.659,7.659,0,0,0,2.345-5.945,2.5,2.5,0,0,1,5,0,12.56,12.56,0,0,1-3.94,9.606C122.444,242.487,115.83,243.505,109.959,243.505Z"/><path d="M146.041,243.505c-5.872,0-12.485-1.018-16.6-4.847a12.56,12.56,0,0,1-3.94-9.606v-9.3a2.5,2.5,0,0,1,5,0v9.3A7.659,7.659,0,0,0,132.845,235c2.955,2.749,8.951,3.946,16.893,3.37.375-.028.749-.066,1.119-.117a2.5,2.5,0,0,1,.681,4.953q-.714.1-1.437.151C148.82,243.447,147.452,243.505,146.041,243.505Z"/><path d="M128,184.812a2.5,2.5,0,0,1-2.5-2.5V160.691c0-6.835-9.963-14.2-27.334-20.213a2.5,2.5,0,0,1,1.635-4.726c14,4.846,30.7,13.106,30.7,24.939v21.621A2.5,2.5,0,0,1,128,184.812Z"/><path d="M94.012,211.691a27.465,27.465,0,0,1-11.56-2.536l-17.727-8.23c-8.916-3.963-9.646-13.2-8.781-17.522a2.5,2.5,0,0,1,4.9.971c-.071.374-1.546,8.67,5.944,12l17.764,8.247a22.608,22.608,0,0,0,19.87-.465,2.5,2.5,0,1,1,2.316,4.432A27.516,27.516,0,0,1,94.012,211.691Z"/><path d="M128,184.35a2.5,2.5,0,0,1-2.5-2.5V160.691c0-11.834,16.695-20.093,30.7-24.939a2.5,2.5,0,0,1,1.635,4.726c-17.372,6.009-27.335,13.377-27.335,20.213V181.85A2.5,2.5,0,0,1,128,184.35Z"/><path d="M161.988,211.691a27.507,27.507,0,0,1-12.737-3.108,2.5,2.5,0,1,1,2.317-4.43,22.606,22.606,0,0,0,19.875.467l17.726-8.23c7.613-3.384,6.054-11.656,5.984-12.007a2.5,2.5,0,1,1,4.9-.98c.865,4.326.135,13.559-8.818,17.539l-17.69,8.213A27.468,27.468,0,0,1,161.988,211.691Z"/><path d="M128,126.309a27.387,27.387,0,0,1-11.418-2.492,29.9,29.9,0,0,1-12.278-9.639,31.056,31.056,0,0,0-4.7-5.427c-18.951-16.808-21-31.487-21-37.018a29.7,29.7,0,0,1,3.968-15.587A7.421,7.421,0,0,0,83.6,53.025C86.565,21.805,105.041,0,128.527,0c23.28,0,40.913,21.311,43.877,53.029a7.33,7.33,0,0,0,1.012,3.1h0a29.7,29.7,0,0,1,3.977,15.6c0,5.535-2.048,20.223-21.016,37.035a30.871,30.871,0,0,0-4.68,5.409,29.89,29.89,0,0,1-12.279,9.64A27.4,27.4,0,0,1,128,126.309ZM128.527,5C107.718,5,91.29,24.943,88.576,53.5a12.45,12.45,0,0,1-1.722,5.233,24.811,24.811,0,0,0-3.247,13c0,14.573,13.507,28.126,19.314,33.277a35.848,35.848,0,0,1,5.464,6.279,25.008,25.008,0,0,0,10.278,7.982,22.41,22.41,0,0,0,18.674,0,25.013,25.013,0,0,0,10.278-7.982,35.684,35.684,0,0,1,5.446-6.263c5.812-5.152,19.332-18.71,19.332-33.293a24.8,24.8,0,0,0-3.255-13.014h0a12.363,12.363,0,0,1-1.713-5.225C164.715,24.488,149.083,5,128.527,5Z"/><path d="M174.743,71.138a2.5,2.5,0,0,1-2.49-2.279,23.392,23.392,0,0,0-3.115-10.14,12.363,12.363,0,0,1-1.713-5.225,84.025,84.025,0,0,0-2.512-14.119,2.5,2.5,0,0,1,.572-2.346c6.767-7.365,12.413-6.8,15.957-5.027h0A9.691,9.691,0,0,1,186.6,38.3a15.758,15.758,0,0,1-2.063,11.767,4.407,4.407,0,0,0-.623,3.653c2.415,8.147-.705,14.607-8.344,17.281A2.5,2.5,0,0,1,174.743,71.138ZM170.1,39.445a89.953,89.953,0,0,1,2.3,13.584,7.33,7.33,0,0,0,1.012,3.1,26.859,26.859,0,0,1,3.315,8.745c4.364-3.072,2.915-7.956,2.388-9.737a9.394,9.394,0,0,1,1.233-7.812,10.689,10.689,0,0,0,1.419-7.726,4.7,4.7,0,0,0-2.565-3.126C178.179,35.962,175.172,34.458,170.1,39.445Z"/><path d="M81.257,71.138a2.5,2.5,0,0,1-.826-.14c-7.639-2.674-10.759-9.134-8.344-17.281a4.411,4.411,0,0,0-.623-3.653A15.758,15.758,0,0,1,69.4,38.3,9.691,9.691,0,0,1,74.558,32c3.564-1.781,9.238-2.341,16.037,5.112a2.5,2.5,0,0,1,.56,2.363A79.733,79.733,0,0,0,88.576,53.5a12.45,12.45,0,0,1-1.722,5.233h0a23.406,23.406,0,0,0-3.107,10.128,2.5,2.5,0,0,1-2.49,2.279ZM79.192,35.857a5.076,5.076,0,0,0-2.4.618A4.693,4.693,0,0,0,74.229,39.6a10.686,10.686,0,0,0,1.419,7.725,9.4,9.4,0,0,1,1.233,7.813c-.527,1.781-1.976,6.665,2.388,9.737a26.857,26.857,0,0,1,3.306-8.729A7.421,7.421,0,0,0,83.6,53.025a85.568,85.568,0,0,1,2.366-13.518C83.022,36.591,80.771,35.857,79.192,35.857Zm5.523,21.581h0Z"/><path d="M149.146,100.979a8.908,8.908,0,0,1-6.406-2.86c-1.468-1.468-4.077-.807-7.892.37a23.511,23.511,0,0,1-6.654,1.383,2.5,2.5,0,1,1,0-5,19.945,19.945,0,0,0,5.18-1.161c4.095-1.263,9.192-2.836,12.9.873,2.476,2.474,4.65.968,4.89.788a2.5,2.5,0,1,1,3,4A8.674,8.674,0,0,1,149.146,100.979Z"/><path d="M106.854,100.979a8.674,8.674,0,0,1-5.019-1.607,2.5,2.5,0,0,1,2.976-4.019c.578.405,2.619,1.525,4.914-.769,3.707-3.709,8.805-2.136,12.9-.873a19.945,19.945,0,0,0,5.18,1.161,2.5,2.5,0,1,1,0,5,23.511,23.511,0,0,1-6.654-1.383c-3.816-1.177-6.423-1.839-7.892-.37A8.912,8.912,0,0,1,106.854,100.979Z"/><path d="M128.527,88.314a10.412,10.412,0,0,1-9-15.639,2.5,2.5,0,0,1,4.322,2.514A5.41,5.41,0,1,0,133,74.855a2.5,2.5,0,0,1,4.126-2.825,10.411,10.411,0,0,1-8.6,16.284Z"/><path d="M128,41.912a2.5,2.5,0,0,1-2.5-2.5V20.428a2.5,2.5,0,1,1,5,0V39.412A2.5,2.5,0,0,1,128,41.912Z"/><path d="M117.839,40.671a2.5,2.5,0,0,1-1.976-.965l-7.093-9.121a2.5,2.5,0,1,1,3.947-3.069l7.094,9.121a2.5,2.5,0,0,1-1.972,4.034Z"/><path d="M138.161,40.671a2.5,2.5,0,0,1-1.972-4.034l7.094-9.121a2.5,2.5,0,1,1,3.947,3.069l-7.093,9.121A2.5,2.5,0,0,1,138.161,40.671Z"/><path d="M228.335,256H27.665a9.036,9.036,0,0,1-8.7-6.7c-7.571-28.115-1.2-46.98,3.278-55.722a12.2,12.2,0,0,0,.873-8.872,49.841,49.841,0,0,1,6.574-41.761,41.241,41.241,0,0,1,29.244-18.238,8.813,8.813,0,0,0,6.427-4.246c5.144-8.49,13.047-13.248,18.77-15.744a8.506,8.506,0,0,0,4.782-5.464l.751-2.6a2.5,2.5,0,0,1,4.338-.889,82.059,82.059,0,0,0,8.843,9.185,36.865,36.865,0,0,1,5.535,6.341,25.008,25.008,0,0,0,10.279,7.984,22.41,22.41,0,0,0,18.674,0,25.013,25.013,0,0,0,10.278-7.983,36.933,36.933,0,0,1,5.55-6.355,81.831,81.831,0,0,0,8.829-9.172,2.5,2.5,0,0,1,4.338.889l.751,2.6a8.508,8.508,0,0,0,4.783,5.466c5.723,2.5,13.625,7.253,18.769,15.743a8.813,8.813,0,0,0,6.427,4.246,41.241,41.241,0,0,1,29.244,18.238,49.841,49.841,0,0,1,6.574,41.761,12.2,12.2,0,0,0,.873,8.872h0c4.474,8.742,10.849,27.607,3.278,55.722A9.036,9.036,0,0,1,228.335,256ZM93.1,102.352a13.472,13.472,0,0,1-6.969,6.95c-5.06,2.207-12.028,6.384-16.492,13.752a13.79,13.79,0,0,1-10.071,6.615,36.3,36.3,0,0,0-25.732,16.074,44.9,44.9,0,0,0-5.9,37.618,17.193,17.193,0,0,1-1.237,12.5c-4.146,8.1-10.036,25.648-2.9,52.144a4.028,4.028,0,0,0,3.868,3h200.67a4.028,4.028,0,0,0,3.868-3c7.135-26.5,1.245-44.043-2.9-52.145h0a17.193,17.193,0,0,1-1.237-12.5,44.9,44.9,0,0,0-5.9-37.618,36.3,36.3,0,0,0-25.732-16.074,13.79,13.79,0,0,1-10.071-6.615c-4.463-7.368-11.431-11.545-16.491-13.751a13.479,13.479,0,0,1-6.97-6.951,89.024,89.024,0,0,1-6.409,6.317,32.054,32.054,0,0,0-4.791,5.507,29.9,29.9,0,0,1-12.279,9.641,27.4,27.4,0,0,1-22.836,0,29.885,29.885,0,0,1-12.28-9.642,31.933,31.933,0,0,0-4.775-5.492A88.98,88.98,0,0,1,93.1,102.352Z"/><path d="M147.721,62.668A9.078,9.078,0,0,1,138.755,52a2.5,2.5,0,0,1,1.661-1.94A55.568,55.568,0,0,0,150,45.812a2.5,2.5,0,0,1,2.582.054,9.1,9.1,0,0,1-4.858,16.8Zm-4.054-8.454a4.106,4.106,0,1,0,7.263-3.209A61.236,61.236,0,0,1,143.667,54.214Z"/><path d="M108.279,62.668a9.1,9.1,0,0,1-4.858-16.8A2.5,2.5,0,0,1,106,45.812a55.568,55.568,0,0,0,9.581,4.25A2.5,2.5,0,0,1,117.245,52a9.078,9.078,0,0,1-8.966,10.666ZM105.07,51.005a4.1,4.1,0,1,0,7.263,3.209A61.236,61.236,0,0,1,105.07,51.005Z"/><path d="M106.885,100.973a8.8,8.8,0,0,1-2.762-.455,2.5,2.5,0,0,1-1.682-2.007,26.005,26.005,0,0,1,3.885-18.26,3.745,3.745,0,0,1,3.76-1.691,3.7,3.7,0,0,1,3,2.749,60.088,60.088,0,0,0,4.562,12.328,2.5,2.5,0,0,1-2.161,3.65,3.011,3.011,0,0,0-2.225.832A8.84,8.84,0,0,1,106.885,100.973Zm2.2-15.38a20.866,20.866,0,0,0-1.9,10.36,4.246,4.246,0,0,0,2.535-1.369h0a7.606,7.606,0,0,1,2.114-1.5A64.832,64.832,0,0,1,109.084,85.593Z"/><path d="M149.115,100.973a8.84,8.84,0,0,1-6.375-2.854h0a3.011,3.011,0,0,0-2.225-.832,2.5,2.5,0,0,1-2.161-3.65,60.088,60.088,0,0,0,4.562-12.328,3.7,3.7,0,0,1,3-2.749,3.745,3.745,0,0,1,3.76,1.691,26.005,26.005,0,0,1,3.885,18.26,2.5,2.5,0,0,1-1.682,2.007A8.8,8.8,0,0,1,149.115,100.973Zm-4.954-7.89a7.606,7.606,0,0,1,2.114,1.5h0a4.246,4.246,0,0,0,2.535,1.369,20.866,20.866,0,0,0-1.9-10.36A64.832,64.832,0,0,1,144.161,93.083Z"/><path d="M231.485,197.124a2.472,2.472,0,0,1-.321-.021,42.275,42.275,0,0,1-26.949-69.113,2.5,2.5,0,0,1,2.831-.719,40.434,40.434,0,0,1,9.991,5.684,2.5,2.5,0,0,1,.272,3.7,26.737,26.737,0,0,0,13.752,44.675,2.5,2.5,0,0,1,1.892,3.1l-.073.269a12.208,12.208,0,0,0,.838,8.792,2.5,2.5,0,0,1-2.233,3.624ZM206.9,132.638a37.272,37.272,0,0,0,20.851,58.751,17.233,17.233,0,0,1-.159-5.782,31.935,31.935,0,0,1-22.734-30.452,31.563,31.563,0,0,1,6.951-19.8A35.426,35.426,0,0,0,206.9,132.638Z"/><path d="M24.515,197.124a2.5,2.5,0,0,1-2.233-3.624,12.208,12.208,0,0,0,.838-8.792l-.048-.178a2.605,2.605,0,0,1,.264-2.006,2.543,2.543,0,0,1,1.6-1.19,26.89,26.89,0,0,0,21.2-26.179,26.627,26.627,0,0,0-7.45-18.5,2.5,2.5,0,0,1,.272-3.7,40.434,40.434,0,0,1,9.991-5.684,2.5,2.5,0,0,1,2.831.719A42.275,42.275,0,0,1,24.836,197.1,2.472,2.472,0,0,1,24.515,197.124Zm3.892-11.517a17.233,17.233,0,0,1-.159,5.782A37.272,37.272,0,0,0,49.1,132.638a35.426,35.426,0,0,0-4.909,2.716,31.563,31.563,0,0,1,6.951,19.8A31.935,31.935,0,0,1,28.407,185.607Z"/><path d="M238,228.821a2.482,2.482,0,0,1-.561-.064c-7.823-1.8-19.117-6.893-28.5-20.919a3.881,3.881,0,0,1,5.2-5.494A50.393,50.393,0,0,0,237.14,209.2a2.5,2.5,0,0,1,2.325,2.075,77.758,77.758,0,0,1,1.037,15.114,2.5,2.5,0,0,1-2.5,2.435Zm-22.049-19.863c6.585,8.223,13.772,12.19,19.568,14.081a72.25,72.25,0,0,0-.685-9A55.933,55.933,0,0,1,215.954,208.958Z"/><path d="M17.991,228.821a2.5,2.5,0,0,1-2.5-2.435,77.926,77.926,0,0,1,1.037-15.114,2.5,2.5,0,0,1,2.325-2.075,50.393,50.393,0,0,0,22.992-6.853,3.88,3.88,0,0,1,5.2,5.494c-9.38,14.026-20.674,19.118-28.5,20.919A2.482,2.482,0,0,1,17.991,228.821Zm3.166-14.779a72.649,72.649,0,0,0-.685,9c5.8-1.891,12.984-5.858,19.569-14.081A55.953,55.953,0,0,1,21.157,214.042Z"/><path d="M189.167,256h-18.9a2.5,2.5,0,0,1-1.375-.413c-58.613-38.612-92.629-97.252-107.688-128.771a2.5,2.5,0,0,1,.992-3.235,9.074,9.074,0,0,0,3.166-3.116c4.882-8.057,12.294-12.734,17.652-15.237a2.5,2.5,0,0,1,3.4,1.378C91.972,121.256,123.237,196.32,193,235.149a2.5,2.5,0,0,1,1.262,2.52c-.791,5.834-1.677,11.319-2.635,16.3A2.5,2.5,0,0,1,189.167,256Zm-18.146-5h16.072c.705-3.848,1.368-7.977,1.978-12.32-66.81-37.962-98.55-108.195-106.326-127.714a34.452,34.452,0,0,0-13.1,12.09,14.049,14.049,0,0,1-3.011,3.5C81.847,157.9,114.949,213.809,171.021,251Z"/><path d="M144.289,203.33a2.5,2.5,0,0,1-1.779-.744c-5.682-5.754-11.217-11.938-16.45-18.38a2.5,2.5,0,0,1,0-3.153c26.6-32.746,40.042-65.263,43.527-74.449a2.5,2.5,0,0,1,3.4-1.378c5.359,2.5,12.771,7.181,17.652,15.237a9.074,9.074,0,0,0,3.166,3.116,2.5,2.5,0,0,1,.992,3.235A358.978,358.978,0,0,1,146.2,202.443a2.5,2.5,0,0,1-1.813.885C144.354,203.33,144.321,203.33,144.289,203.33Zm-13.068-20.713c4.154,5.03,8.488,9.889,12.926,14.488a354.575,354.575,0,0,0,45.222-70.551,14.072,14.072,0,0,1-3.011-3.5,34.452,34.452,0,0,0-13.1-12.09A293.21,293.21,0,0,1,131.221,182.617Z"/><path d="M85.73,256h-18.9a2.5,2.5,0,0,1-2.456-2.028c-.958-4.982-1.844-10.467-2.635-16.3A2.5,2.5,0,0,1,63,235.149a209.366,209.366,0,0,0,46.928-36.075,2.46,2.46,0,0,1,1.876-.742,2.5,2.5,0,0,1,1.813.885c5.168,6.118,10.6,12.061,16.155,17.664a2.5,2.5,0,0,1,0,3.52,267.84,267.84,0,0,1-42.671,35.184A2.5,2.5,0,0,1,85.73,256Zm-16.823-5H84.979a262.138,262.138,0,0,0,39.5-32.372c-4.413-4.529-8.742-9.26-12.915-14.112a214.02,214.02,0,0,1-44.636,34.164C67.539,243.021,68.2,247.15,68.907,251Z"/></svg>