<svg xmlns="http://www.w3.org/2000/svg" viewBox="0 0 256 256"><title>icon</title><path d="M160.728,165.493l-4.1-11.766H140.589V102.1a37.343,37.343,0,0,1-25.178,0v51.626H99.376l-4.1,11.766a2.092,2.092,0,0,0,1.487,2.726c1.122.264,2.247.521,3.368.77a128.414,128.414,0,0,0,55.746,0c1.121-.249,2.246-.506,3.368-.77A2.092,2.092,0,0,0,160.728,165.493Z" fill="#fcdd86"/><path d="M128,172.05v37.444h14.2s10.937-24.144,11.735-40.1A128.4,128.4,0,0,1,128,172.05Z" fill="#f5c84c"/><path d="M142.2,209.494s1.071,10.714,6.428,19.286l-7.5-3.214-2.143,6.428-5.357-5.357L128,231.994v-22.5Z" fill="#f5c84c"/><path d="M210.233,95.716H193.626V106.43h16.607a5.357,5.357,0,1,0,0-10.714Z" fill="#b77035"/><path d="M115.411,144.62v9.107h25.178V144.62Z" fill="#edf4fc"/><path d="M113.8,209.494H128V172.05a128.4,128.4,0,0,1-25.932-2.657C102.866,185.35,113.8,209.494,113.8,209.494Z" fill="#f5c84c"/><path d="M113.8,209.494s-1.071,10.714-6.428,19.286l7.5-3.214,2.143,6.428,5.357-5.357L128,231.994v-22.5Z" fill="#f5c84c"/><path d="M45.767,95.716H62.374V106.43H45.767a5.357,5.357,0,1,1,0-10.714Z" fill="#b77035"/><path d="M128,231.994l-5.357-5.1v24.17a2.438,2.438,0,0,0,2.438,2.438h5.838a2.438,2.438,0,0,0,2.438-2.438v-24.17Z" fill="#b77035"/><path d="M151.388,95.716a33.321,33.321,0,0,1-10.8,6.385v51.626H166.84l-4.915-35.993a2.648,2.648,0,0,1,3.273-2.875l24.294,6.073a3.326,3.326,0,0,0,4.134-3.228V95.716Z" fill="#5b5d60"/><path d="M104.612,95.716H62.374V117.7a3.326,3.326,0,0,0,4.134,3.228L90.8,114.859a2.648,2.648,0,0,1,3.273,2.875L89.16,153.727h26.251V102.1A33.321,33.321,0,0,1,104.612,95.716Z" fill="#5b5d60"/><path d="M166.133,59.464c-14.22-11.178-18.761-21.394-18.761-21.394H108.628s-4.541,10.216-18.761,21.394a.973.973,0,0,0,.852,1.711,138.394,138.394,0,0,1,74.562,0A.973.973,0,0,0,166.133,59.464Z" fill="#fcdd86"/><path d="M154.25,8.929,156.393,2.5c-39.643,0-47.765,35.57-47.765,35.57h38.744C147.372,22,163.893,10,163.893,10Z" fill="#fcdd86"/><path d="M128,56.059a140.11,140.11,0,0,0-25.81,2.43,26,26,0,0,0-6.869,17.405c0,15.681,14.631,28.393,32.679,28.393s32.679-12.712,32.679-28.393a26,26,0,0,0-6.869-17.405A140.11,140.11,0,0,0,128,56.059Z" fill="#fc8c48"/><polygon points="142.473 64.86 134.333 73 150.613 73 142.473 64.86" fill="#5b5d60"/><polygon points="113.527 64.86 105.387 73 121.667 73 113.527 64.86" fill="#5b5d60"/><path d="M108.628,38.07h38.744a25.222,25.222,0,0,1,1.161-7.439L113.885,25.8A47.88,47.88,0,0,0,108.628,38.07Z" fill="#ef4460"/><path d="M186.941,168.487h-2.33v-2.33a3.158,3.158,0,0,0-6.315,0v2.33h-2.329a3.158,3.158,0,0,0,0,6.315H178.3v2.33a3.158,3.158,0,0,0,6.315,0V174.8h2.33a3.158,3.158,0,0,0,0-6.315Z" fill="#70d6f9"/><path d="M80.705,37.654a11.1,11.1,0,0,1-8.9-8.717.2.2,0,0,0-.395,0,11.1,11.1,0,0,1-8.9,8.717.2.2,0,0,0,0,.386,11.1,11.1,0,0,1,8.9,8.717.2.2,0,0,0,.395,0,11.1,11.1,0,0,1,8.9-8.717A.2.2,0,0,0,80.705,37.654Z" fill="#f5c84c"/><circle cx="89.662" cy="20.494" r="3.377" fill="#70d6f9"/><circle cx="166.662" cy="197.494" r="3.377" fill="#ef4460"/><circle cx="181.662" cy="73.494" r="3.377" fill="#f5c84c"/><circle cx="71.662" cy="137.494" r="3.377" fill="#87d147"/><path d="M142.2,211.994H128a2.5,2.5,0,0,1-2.5-2.5V172.05a2.5,2.5,0,0,1,2.5-2.5,126.177,126.177,0,0,0,25.427-2.606,2.5,2.5,0,0,1,3,2.574c-.813,16.244-11.5,40-11.955,41.007A2.5,2.5,0,0,1,142.2,211.994Zm-11.7-5h10.062c2.145-4.992,9.006-21.688,10.589-34.519a131.109,131.109,0,0,1-20.651,2.051Z"/><path d="M128,234.494a2.5,2.5,0,0,1-2.5-2.5v-22.5a2.5,2.5,0,0,1,2.5-2.5h14.2a2.5,2.5,0,0,1,2.487,2.249h0c.01.1,1.092,10.261,6.062,18.212a2.5,2.5,0,0,1-3.105,3.623l-5-2.144-1.284,3.851a2.5,2.5,0,0,1-4.139.977l-3.632-3.632-3.859,3.675A2.5,2.5,0,0,1,128,234.494Zm5.625-10.357a2.5,2.5,0,0,1,1.768.732l2.5,2.5.863-2.591a2.5,2.5,0,0,1,3.357-1.507l1.207.517a57.239,57.239,0,0,1-3.292-11.791H130.5v14.167l1.4-1.334A2.494,2.494,0,0,1,133.625,224.137Z"/><path d="M210.233,108.93H193.626a2.5,2.5,0,0,1-2.5-2.5V95.716a2.5,2.5,0,0,1,2.5-2.5h16.607a7.857,7.857,0,1,1,0,15.714Zm-14.107-5h14.107a2.857,2.857,0,1,0,0-5.714H196.126Z"/><path d="M140.589,156.228H115.411a2.5,2.5,0,0,1-2.5-2.5V144.62a2.5,2.5,0,0,1,2.5-2.5h25.178a2.5,2.5,0,0,1,2.5,2.5v9.108A2.5,2.5,0,0,1,140.589,156.228Zm-22.678-5h20.178V147.12H117.911Z"/><path d="M128,211.994H113.8a2.5,2.5,0,0,1-2.277-1.469c-.455-1-11.142-24.763-11.955-41.007a2.5,2.5,0,0,1,3-2.574A126.177,126.177,0,0,0,128,169.55a2.5,2.5,0,0,1,2.5,2.5v37.444A2.5,2.5,0,0,1,128,211.994Zm-12.562-5H125.5V174.526a131.215,131.215,0,0,1-20.651-2.051C106.431,185.314,113.292,202,115.438,206.994Z"/><path d="M128,234.494a2.5,2.5,0,0,1-1.724-.689l-3.859-3.675-3.632,3.632a2.5,2.5,0,0,1-4.139-.977l-1.284-3.851-5,2.144a2.5,2.5,0,0,1-3.1-3.623c4.97-7.951,6.052-18.11,6.062-18.212a2.5,2.5,0,0,1,2.487-2.249H128a2.5,2.5,0,0,1,2.5,2.5v22.5a2.5,2.5,0,0,1-2.5,2.5Zm-13.125-11.429a2.5,2.5,0,0,1,2.372,1.71l.863,2.591,2.5-2.5a2.5,2.5,0,0,1,3.492-.042l1.4,1.334V211.994h-9.525a57.239,57.239,0,0,1-3.292,11.791l1.207-.517A2.5,2.5,0,0,1,114.875,223.065Z"/><path d="M62.374,108.93H45.767a7.857,7.857,0,1,1,0-15.714H62.374a2.5,2.5,0,0,1,2.5,2.5V106.43A2.5,2.5,0,0,1,62.374,108.93ZM45.767,98.216a2.857,2.857,0,1,0,0,5.714H59.874V98.216Z"/><path d="M140.656,173.425a2.5,2.5,0,0,1-2.46-2.074l-1.677-9.7a2.5,2.5,0,0,1,4.927-.851l1.677,9.7a2.5,2.5,0,0,1-2.467,2.926Z"/><path d="M149.968,170.679a2.5,2.5,0,0,1-2.461-2.075l-1.014-5.866a2.5,2.5,0,0,1,4.927-.851l1.014,5.866a2.5,2.5,0,0,1-2.466,2.926Z"/><path d="M130.919,256h-5.838a4.943,4.943,0,0,1-4.938-4.938v-24.17a2.5,2.5,0,0,1,4.224-1.81l3.633,3.46,3.633-3.46a2.5,2.5,0,0,1,4.224,1.81v24.17A4.943,4.943,0,0,1,130.919,256Zm-5.776-23.275v18.337l5.776-.062-.047-18.289-1.148,1.094a2.5,2.5,0,0,1-3.448,0Z"/><path d="M146.214,211.994H109.786a2.5,2.5,0,1,1,0-5h36.428a2.5,2.5,0,0,1,0,5Z"/><path d="M128,92.408a2.482,2.482,0,0,1-1.116-.265L122.9,90.149l-4.8,2.056a2.5,2.5,0,0,1-2.586-.377l-5.025-4.187a2.5,2.5,0,0,1,3.2-3.841l3.848,3.206,4.454-1.909a2.506,2.506,0,0,1,2.1.062l5.024,2.512A2.5,2.5,0,0,1,128,92.408Z"/><path d="M128,92.408a2.5,2.5,0,0,1-1.12-4.737l5.024-2.512a2.506,2.506,0,0,1,2.1-.062l4.454,1.909,3.848-3.206a2.5,2.5,0,1,1,3.2,3.841l-5.025,4.187a2.5,2.5,0,0,1-2.586.377l-4.8-2.056-3.987,1.994A2.485,2.485,0,0,1,128,92.408Z"/><path d="M166.84,156.228H140.589a2.5,2.5,0,0,1-2.5-2.5V102.1a2.5,2.5,0,0,1,1.647-2.351,30.644,30.644,0,0,0,9.989-5.9,2.5,2.5,0,0,1,1.663-.633h42.238a2.5,2.5,0,0,1,2.5,2.5v21.989a5.827,5.827,0,0,1-7.241,5.653l-24.294-6.073a.127.127,0,0,0-.133.032.132.132,0,0,0-.05.129l4.909,35.943a2.5,2.5,0,0,1-2.477,2.839Zm-23.751-5h20.886l-4.527-33.155a5.148,5.148,0,0,1,6.356-5.639l24.294,6.073a.828.828,0,0,0,1.028-.8V98.216H152.319a35.436,35.436,0,0,1-9.23,5.593Z"/><path d="M128,174.53a131.042,131.042,0,0,1-28.416-3.1q-1.7-.376-3.4-.777a4.591,4.591,0,0,1-3.275-5.983l4.1-11.765a2.5,2.5,0,0,1,2.36-1.676h13.535V102.1a2.5,2.5,0,0,1,3.353-2.35,34.843,34.843,0,0,0,23.472,0,2.5,2.5,0,0,1,3.353,2.35v49.127h13.535a2.5,2.5,0,0,1,2.36,1.676l4.1,11.765a4.591,4.591,0,0,1-3.274,5.983q-1.7.4-3.4.777A131.166,131.166,0,0,1,128,174.53Zm-30.219-8.639q1.444.336,2.888.657a126.709,126.709,0,0,0,54.662,0q1.442-.32,2.888-.657l-3.371-9.663H140.589a2.5,2.5,0,0,1-2.5-2.5V105.5a40.256,40.256,0,0,1-20.178,0v48.23a2.5,2.5,0,0,1-2.5,2.5H101.152Zm60.587.426h0Z"/><path d="M115.411,156.228H89.16a2.5,2.5,0,0,1-2.477-2.839L91.6,117.4c0,.016.006-.025-.056-.079a.127.127,0,0,0-.133-.032l-24.294,6.073a5.827,5.827,0,0,1-7.241-5.653V95.716a2.5,2.5,0,0,1,2.5-2.5h42.238a2.5,2.5,0,0,1,1.663.633,30.644,30.644,0,0,0,9.989,5.9,2.5,2.5,0,0,1,1.647,2.351v51.627A2.5,2.5,0,0,1,115.411,156.228Zm-23.386-5h20.886V103.809a35.436,35.436,0,0,1-9.23-5.593H64.874v19.489a.828.828,0,0,0,1.028.8L90.2,112.434a5.149,5.149,0,0,1,6.363,5.589Z"/><path d="M128,82.144a2.5,2.5,0,0,1-2.5-2.5V78.573a2.5,2.5,0,1,1,5,0v1.071A2.5,2.5,0,0,1,128,82.144Z"/><path d="M90.428,63.717A3.477,3.477,0,0,1,88.321,57.5C101.8,46.9,106.3,37.146,106.346,37.049a2.51,2.51,0,0,1,2.281-1.479h38.746a2.5,2.5,0,0,1,2.284,1.485c.041.091,4.541,9.847,18.021,20.444h0a3.472,3.472,0,0,1-3.084,6.079,135.9,135.9,0,0,0-73.19,0A3.562,3.562,0,0,1,90.428,63.717Zm74.158-2.289h0ZM110.156,40.57c-1.538,2.8-5.573,9.2-13.641,16.547a141.086,141.086,0,0,1,62.97,0c-8.068-7.343-12.1-13.748-13.641-16.547Z"/><path d="M147.373,40.57H108.627a2.5,2.5,0,0,1-2.437-3.056C106.276,37.139,115.232,0,156.393,0a2.5,2.5,0,0,1,2.372,3.291L157.6,6.786l6.569.729a2.5,2.5,0,0,1,1.194,4.508c-.153.111-15.49,11.468-15.49,26.047A2.5,2.5,0,0,1,147.373,40.57Zm-35.386-5h33c1-10.547,8.091-19.059,12.923-23.719l-3.939-.437a2.5,2.5,0,0,1-2.1-3.276L152.892,5.1C124.768,6.708,114.793,27.56,111.987,35.57Z"/><path d="M128,106.787c-19.4,0-35.179-13.858-35.179-30.893a28.316,28.316,0,0,1,7.506-19.072,2.494,2.494,0,0,1,1.4-.789,140.77,140.77,0,0,1,52.546,0,2.5,2.5,0,0,1,1.4.79,28.316,28.316,0,0,1,7.506,19.072C163.179,92.929,147.4,106.787,128,106.787Zm-24.5-46a23.252,23.252,0,0,0-5.684,15.106c0,14.277,13.538,25.893,30.179,25.893s30.179-11.616,30.179-25.893A23.252,23.252,0,0,0,152.5,60.788a135.705,135.705,0,0,0-48.99,0Z"/><path d="M150.612,75.5H134.333a2.5,2.5,0,0,1-1.768-4.268l8.14-8.14a2.5,2.5,0,0,1,3.535,0l8.14,8.14a2.5,2.5,0,0,1-1.768,4.268Zm-10.243-5h4.208l-2.1-2.1Z"/><path d="M121.667,75.5H105.388a2.5,2.5,0,0,1-1.768-4.268l8.14-8.14a2.5,2.5,0,0,1,3.535,0l8.14,8.14a2.5,2.5,0,0,1-1.768,4.268Zm-10.244-5h4.208l-2.1-2.1Z"/><path d="M147.373,40.57H108.627a2.5,2.5,0,0,1-2.436-3.061,50.153,50.153,0,0,1,5.543-12.986,2.5,2.5,0,0,1,2.5-1.2l34.647,4.834a2.5,2.5,0,0,1,2.044,3.212,22.814,22.814,0,0,0-1.049,6.7A2.5,2.5,0,0,1,147.373,40.57Zm-35.356-5h32.977a27.708,27.708,0,0,1,.427-2.848l-30.2-4.215A49.817,49.817,0,0,0,112.017,35.57Z"/></svg>