<svg xmlns="http://www.w3.org/2000/svg" viewBox="0 0 256 256"><title>icon</title><path d="M85.909,63.047V92.1a38.326,38.326,0,0,0,38.214,38.214h0A38.326,38.326,0,0,0,162.337,92.1V53.241s-.477-13.712-14.767-12.124a3.923,3.923,0,0,1-3.107-.983c-4.23-3.888-18.268-14.409-30.895,3.269C99.448,63.171,85.909,63.047,85.909,63.047Z" fill="#f9d0b4"/><path d="M163.784,62.971c-.489,0-.97.031-1.447.076V92.1c0,.906-.044,1.8-.106,2.691a14.468,14.468,0,0,0,1.553.095,15.955,15.955,0,0,0,0-31.91Z" fill="#f9d0b4"/><path d="M85.909,92.1V63.047c-.477-.045-.958-.076-1.447-.076a15.955,15.955,0,1,0,0,31.91,14.468,14.468,0,0,0,1.553-.095C85.952,93.9,85.909,93,85.909,92.1Z" fill="#f9d0b4"/><path d="M204.277,247.209l-1.984-41.8a2.563,2.563,0,0,1-1.228-.033c-21.526-5.9-43.429-20.238-58.425-31.606a7.326,7.326,0,0,1-3.948,3.75,7.2,7.2,0,0,1-2.508.517,1.675,1.675,0,0,0-1.685,1.652v.118c0,1.954-1.467,3.893-3.408,3.893H117.154c-1.94,0-3.408-1.938-3.408-3.893v-.118a1.674,1.674,0,0,0-1.684-1.652,7.211,7.211,0,0,1-2.51-.517,7.312,7.312,0,0,1-4.092-4.1c-14.724,11.422-36.529,26-58.279,31.959a2.563,2.563,0,0,1-1.228.033l-1.985,41.8a5.96,5.96,0,0,0,5.951,6.291H198.327A5.959,5.959,0,0,0,204.277,247.209Z" fill="#5b5d60"/><path d="M113.568,43.4c12.633-17.686,26.677-7.148,30.9-3.264a3.9,3.9,0,0,0,3.094.979c14.3-1.594,14.774,12.123,14.774,12.123v9.806c.477-.045.958-.076,1.447-.076a15.86,15.86,0,0,1,9.238,2.963,153.59,153.59,0,0,1,2.871-16.5C181.936,22.671,157.8,19.278,157.8,19.278S143.725-3.843,114.573,4.2C87.688,11.615,86.452,34.422,63.556,33.981a4.25,4.25,0,0,0-4.06,5.851c3.557,8.737,11.673,23.215,26.413,23.215C85.909,63.047,99.448,63.171,113.568,43.4Z" fill="#fcdd86"/><path d="M187.647,120.485a66.491,66.491,0,0,0-26.43-19.249,38.361,38.361,0,0,1-37.094,29.073h0a38.36,38.36,0,0,1-37.094-29.073A66.477,66.477,0,0,0,60.6,120.485a1.835,1.835,0,0,0,.989,2.945c7.641,1.808,29.6,7.972,49.8,22.727a18.46,18.46,0,0,1,25.478-.02c20.2-14.749,42.153-20.9,49.793-22.707A1.835,1.835,0,0,0,187.647,120.485Z" fill="#f5c84c"/><path d="M105.1,172.235a7.252,7.252,0,0,1,.718-4.866,4.369,4.369,0,0,0,.352-3.172,18.737,18.737,0,0,1-.47-6.661,18.435,18.435,0,0,1,5.679-11.374q-3.562-2.6-7.168-4.866l-38.478,9.162A26.3,26.3,0,0,0,45.571,174.5l-1.66,28.221a2.593,2.593,0,0,0,3.27,2.653c21.75-5.962,43.555-20.537,58.279-31.959A6.822,6.822,0,0,1,105.1,172.235Z" fill="#ef4460"/><path d="M202.675,174.5a26.3,26.3,0,0,0-20.165-24.043L144.028,141.3c-2.393,1.5-4.786,3.119-7.156,4.847a18.473,18.473,0,0,1,5.781,13.439,18.275,18.275,0,0,1-.59,4.6,4.364,4.364,0,0,0,.356,3.181,7.252,7.252,0,0,1,.725,4.87,6.826,6.826,0,0,1-.5,1.54c15,11.368,36.9,25.706,58.425,31.606a2.593,2.593,0,0,0,3.27-2.653Z" fill="#ef4460"/><path d="M101.365,74.165a7.346,7.346,0,0,0-.657,3.047,7.429,7.429,0,1,0,14.857,0Z" fill="#818182"/><path d="M146.881,74.165a7.428,7.428,0,1,1-14.2,3.047Z" fill="#818182"/><path d="M142.419,167.36a4.362,4.362,0,0,1-.356-3.182,18.275,18.275,0,0,0,.59-4.6,18.532,18.532,0,0,0-36.95-2.046,18.735,18.735,0,0,0,.47,6.661,4.369,4.369,0,0,1-.352,3.172,7.272,7.272,0,0,0,6.241,10.667,1.674,1.674,0,0,1,1.684,1.652v.118c0,1.955,1.468,3.893,3.408,3.893h13.937c1.941,0,3.408-1.939,3.408-3.893v-.118a1.675,1.675,0,0,1,1.685-1.652,7.24,7.24,0,0,0,6.235-10.676Z" fill="#edf4fc"/><ellipse cx="116.249" cy="162.285" rx="3.705" ry="4.168" fill="#ef4460"/><ellipse cx="131.997" cy="162.285" rx="3.705" ry="4.168" fill="#ef4460"/><path d="M122.034,141.167a18.655,18.655,0,0,1,7.428.673c.444-3.634.782-7.694.982-12.062a37.989,37.989,0,0,1-6.321.531h0a37.984,37.984,0,0,1-7.334-.72c.2,4.57.56,8.806,1.03,12.574A18.067,18.067,0,0,1,122.034,141.167Z" fill="#f9d0b4"/><path d="M202.114,23.487h-2.33v-2.33a3.158,3.158,0,0,0-6.315,0v2.33H191.14a3.158,3.158,0,0,0,0,6.315h2.329v2.33a3.158,3.158,0,0,0,6.315,0V29.8h2.33a3.158,3.158,0,0,0,0-6.315Z" fill="#70d6f9"/><path d="M58.878,100.654a11.1,11.1,0,0,1-8.9-8.717.2.2,0,0,0-.395,0,11.1,11.1,0,0,1-8.9,8.717.2.2,0,0,0,0,.386,11.1,11.1,0,0,1,8.9,8.717.2.2,0,0,0,.395,0,11.1,11.1,0,0,1,8.9-8.717A.2.2,0,0,0,58.878,100.654Z" fill="#f5c84c"/><circle cx="193.5" cy="54.377" r="3.377" fill="#f5c84c"/><circle cx="215.5" cy="170.377" r="3.377" fill="#87d147"/><circle cx="40.5" cy="142.377" r="3.377" fill="#ef4460"/><path d="M124.123,132.809A40.76,40.76,0,0,1,83.409,92.1V63.046a2.5,2.5,0,0,1,2.5-2.5h0c.212,0,12.608-.378,25.62-18.6,4.711-6.6,10.158-10.257,16.192-10.885,8.565-.888,15.741,4.757,18.429,7.227a1.411,1.411,0,0,0,1.141.34c5.045-.563,9.184.516,12.292,3.2,4.948,4.275,5.238,11.034,5.248,11.32l0,38.941A40.76,40.76,0,0,1,124.123,132.809ZM88.409,65.27V92.1a35.714,35.714,0,1,0,71.428,0V53.241h0s-.267-4.839-3.546-7.647c-2.01-1.721-4.853-2.391-8.444-1.992a6.436,6.436,0,0,1-5.076-1.628c-2.189-2.012-8-6.624-14.529-5.935-4.546.472-8.8,3.439-12.64,8.817C104.34,60.623,93.256,64.378,88.409,65.27Zm-2.5-2.224h0Z"/><path d="M163.784,97.38a16.593,16.593,0,0,1-1.821-.109,2.5,2.5,0,0,1-2.227-2.661c.069-.974.1-1.774.1-2.515V63.046a2.5,2.5,0,0,1,2.266-2.488c.615-.058,1.165-.087,1.681-.087a18.455,18.455,0,0,1,0,36.909Zm1.053-31.868V92.1c0,.081,0,.163,0,.245a13.455,13.455,0,0,0,0-26.828Z"/><path d="M84.462,97.38a18.455,18.455,0,1,1,0-36.909c.522,0,1.057.028,1.682.086a2.5,2.5,0,0,1,2.265,2.489V92.1c0,.751.031,1.551.1,2.515a2.5,2.5,0,0,1-2.226,2.661A16.579,16.579,0,0,1,84.462,97.38ZM83.409,65.512a13.455,13.455,0,0,0,0,26.828c0-.082,0-.164,0-.245Z"/><path d="M198.327,256H49.919a8.46,8.46,0,0,1-8.447-8.93l1.983-41.78a2.5,2.5,0,0,1,3.025-2.325c21.478-5.877,43.091-20.387,57.448-31.524a2.5,2.5,0,0,1,3.86,1.064,4.784,4.784,0,0,0,2.686,2.69,4.675,4.675,0,0,0,1.643.341,4.159,4.159,0,0,1,4.129,4.152v.118c0,.7.521,1.393.908,1.393h13.937c.388,0,.908-.689.908-1.393v-.118a4.16,4.16,0,0,1,4.131-4.152,4.652,4.652,0,0,0,1.642-.341,4.83,4.83,0,0,0,2.594-2.464,2.5,2.5,0,0,1,3.785-.955c14.52,11.009,36.295,25.355,57.575,31.188a2.549,2.549,0,0,1,2.071.461,2.522,2.522,0,0,1,.993,1.865l1.984,41.79a8.459,8.459,0,0,1-8.447,8.92ZM48.349,207.646l-1.884,39.681A3.46,3.46,0,0,0,49.919,251H198.327a3.458,3.458,0,0,0,3.454-3.652v-.021L199.9,207.646c-20.867-5.845-41.955-19.363-56.664-30.306a9.809,9.809,0,0,1-6.268,3.151,6.2,6.2,0,0,1-5.873,5.708H117.154a6.2,6.2,0,0,1-5.873-5.708,9.834,9.834,0,0,1-6.5-3.405C90.229,188.149,69.323,201.771,48.349,207.646Z"/><path d="M71.85,255.344a2.5,2.5,0,0,1-2.5-2.5v-47.7a2.5,2.5,0,0,1,5,0v47.7A2.5,2.5,0,0,1,71.85,255.344Z"/><path d="M176.4,255.344a2.5,2.5,0,0,1-2.5-2.5v-47.7a2.5,2.5,0,0,1,5,0v47.7A2.5,2.5,0,0,1,176.4,255.344Z"/><path d="M126.828,174.938a2.5,2.5,0,0,1-2.238-1.383l-.467-.935-.468.936a2.5,2.5,0,0,1-4.472-2.237l1.419-2.837a3.916,3.916,0,0,1,3.519-2.176h0a3.917,3.917,0,0,1,3.521,2.174l1.418,2.84a2.5,2.5,0,0,1-2.234,3.618Z"/><path d="M120.417,186.2a2.5,2.5,0,0,1-2.5-2.5V179.17a2.5,2.5,0,0,1,5,0V183.7A2.5,2.5,0,0,1,120.417,186.2Z"/><path d="M127.828,186.2a2.5,2.5,0,0,1-2.5-2.5V179.17a2.5,2.5,0,0,1,5,0V183.7A2.5,2.5,0,0,1,127.828,186.2Z"/><path d="M124.123,215.79c-12.943,0-24.406-13.484-29.916-35.19a2.5,2.5,0,1,1,4.846-1.231c4.845,19.088,14.685,31.421,25.07,31.421,10.323,0,20.138-12.231,25-31.161a2.5,2.5,0,0,1,4.842,1.244C148.433,202.411,137,215.79,124.123,215.79Z"/><path d="M124.141,242.126c-15.768,0-30.089-19.828-39.293-54.4a2.5,2.5,0,0,1,4.832-1.287c8.449,31.739,21.332,50.687,34.461,50.687,13.072,0,25.92-18.82,34.369-50.345a2.5,2.5,0,0,1,4.83,1.294C154.133,222.425,139.846,242.126,124.141,242.126Z"/><path d="M173.021,68.434a2.505,2.505,0,0,1-1.45-.464,13.35,13.35,0,0,0-7.787-2.5c-.363,0-.748.021-1.213.064a2.5,2.5,0,0,1-2.734-2.489v-9.8h0s-.267-4.839-3.547-7.648c-2.011-1.722-4.854-2.391-8.45-1.99a6.4,6.4,0,0,1-5.064-1.624c-2.189-2.013-8-6.615-14.533-5.941-4.546.473-8.8,3.44-12.641,8.818h0c-14.715,20.6-29.1,20.688-29.716,20.69-16.2,0-24.94-15.52-28.7-24.772a6.717,6.717,0,0,1,.676-6.352,6.863,6.863,0,0,1,5.747-2.94c10.9.2,16.257-5.216,23.06-12.084,6.447-6.51,13.755-13.888,27.244-17.609,27.08-7.467,42.147,10.747,45.369,15.225,2.964.648,11,3.008,16,10.244,4.1,5.93,5.124,13.576,3.058,22.728a152.286,152.286,0,0,0-2.825,16.228,2.5,2.5,0,0,1-2.485,2.22ZM164.837,60.5a18.266,18.266,0,0,1,6.176,1.449c.587-4.092,1.4-8.47,2.441-13.065,1.741-7.712.979-14.018-2.267-18.746-4.813-7.007-13.655-8.374-13.743-8.387a2.516,2.516,0,0,1-1.781-1.175c-.536-.872-13.524-21.4-40.425-13.968-12.2,3.367-18.72,9.945-25.021,16.308-6.909,6.975-13.443,13.57-26.006,13.571-.233,0-.467,0-.7-.007h-.04a1.783,1.783,0,0,0-1.489.772,1.689,1.689,0,0,0-.167,1.637c3.292,8.089,10.8,21.657,24.1,21.657.126,0,12.565-.312,25.624-18.6h0c4.711-6.6,10.16-10.258,16.194-10.885,8.567-.892,15.747,4.762,18.434,7.233a1.405,1.405,0,0,0,1.124.336c5.051-.566,9.191.513,12.3,3.2,4.949,4.275,5.239,11.035,5.249,11.321Z"/><path d="M81.4,45.9a2.5,2.5,0,0,1-.576-4.933c.06-.015,8.515-2.342,21.831-17.323,13.971-15.717,28.737-11.006,34.593-6.323a2.5,2.5,0,0,1-3.116,3.91c-.567-.445-13.512-10.273-27.74,5.735C91.835,43.344,82.373,45.742,81.978,45.835A2.472,2.472,0,0,1,81.4,45.9Z"/><path d="M124.123,109.981a22.282,22.282,0,0,1-9.945-2.323,2.5,2.5,0,0,1,2.213-4.484,17.448,17.448,0,0,0,15.465,0,2.5,2.5,0,0,1,2.213,4.484A22.28,22.28,0,0,1,124.123,109.981Z"/><path d="M111.387,148.657a2.49,2.49,0,0,1-1.474-.481c-19.635-14.341-40.739-20.382-48.9-22.314a4.335,4.335,0,0,1-2.35-6.959,68.835,68.835,0,0,1,27.41-19.978,2.5,2.5,0,0,1,3.383,1.709,35.7,35.7,0,0,0,69.335,0,2.5,2.5,0,0,1,3.383-1.709A68.832,68.832,0,0,1,189.582,118.9a4.334,4.334,0,0,1-2.349,6.96c-8.169,1.934-29.286,7.978-48.893,22.294a2.5,2.5,0,0,1-3.194-.205,15.96,15.96,0,0,0-22.037.019A2.5,2.5,0,0,1,111.387,148.657ZM63.214,121.251a147.794,147.794,0,0,1,48.037,21.73A20.939,20.939,0,0,1,137,142.962c19.081-13.462,39.163-19.522,48.031-21.711a63.358,63.358,0,0,0-22.2-16.584,40.7,40.7,0,0,1-77.423,0A63.358,63.358,0,0,0,63.214,121.251Zm122.5.816h0Z"/><path d="M46.5,207.966a5.091,5.091,0,0,1-5.087-5.392l1.66-28.22a28.628,28.628,0,0,1,22.081-26.328l38.48-9.162a2.509,2.509,0,0,1,1.907.315c2.418,1.516,4.879,3.187,7.312,4.964a2.5,2.5,0,0,1,.249,3.831,15.965,15.965,0,0,0-4.916,9.828,16.2,16.2,0,0,0,.408,5.773,6.88,6.88,0,0,1-.573,4.978,4.764,4.764,0,0,0-.467,3.2,4.461,4.461,0,0,0,.232.751,2.5,2.5,0,0,1-.8,2.886c-14.714,11.416-36.921,26.3-59.15,32.4A5.07,5.07,0,0,1,46.5,207.966Zm57.266-63.993L66.314,152.89a23.658,23.658,0,0,0-18.247,21.757l-1.66,28.222.774,2.506-.661-2.411c20.789-5.7,41.742-19.514,56.083-30.5a9.682,9.682,0,0,1,1.017-6.277,1.892,1.892,0,0,0,.132-1.367,21.142,21.142,0,0,1-.534-7.549,20.816,20.816,0,0,1,4.419-10.708C106.344,145.66,105.05,144.794,103.768,143.973Z"/><path d="M201.743,207.966a5.057,5.057,0,0,1-1.339-.18c-22.048-6.043-44.4-20.751-59.274-32.025a2.5,2.5,0,0,1-.763-3.032,4.352,4.352,0,0,0,.323-.978,4.762,4.762,0,0,0-.471-3.2,6.843,6.843,0,0,1-.575-5,15.952,15.952,0,0,0-4.494-15.594,2.5,2.5,0,0,1,.248-3.834c2.389-1.742,4.846-3.405,7.3-4.945a2.5,2.5,0,0,1,1.907-.314l38.482,9.162a28.632,28.632,0,0,1,22.082,26.328h0l1.66,28.221a5.091,5.091,0,0,1-5.088,5.391ZM145.57,172.845c14.5,10.851,35.559,24.473,56.156,30.119l2.609-.242-2.5.147-1.66-28.222a23.658,23.658,0,0,0-18.248-21.757l-37.456-8.918c-1.29.825-2.579,1.684-3.854,2.57a20.949,20.949,0,0,1,3.862,18.264,1.871,1.871,0,0,0,.135,1.364,9.718,9.718,0,0,1,.981,6.533C145.59,172.75,145.58,172.8,145.57,172.845Z"/><path d="M108.137,87.141a9.94,9.94,0,0,1-9.929-9.929,9.817,9.817,0,0,1,.879-4.078,2.5,2.5,0,0,1,2.8-1.413l14.2,3.047a2.5,2.5,0,0,1,1.975,2.444A9.94,9.94,0,0,1,108.137,87.141Zm-4.928-10.023c0,.031,0,.063,0,.094a4.928,4.928,0,0,0,9.461,1.936Z"/><path d="M140.108,87.141a9.939,9.939,0,0,1-9.927-9.929,2.5,2.5,0,0,1,1.975-2.444l14.2-3.047a2.5,2.5,0,0,1,2.8,1.413,9.817,9.817,0,0,1,.879,4.078A9.94,9.94,0,0,1,140.108,87.141Zm-4.532-7.993a4.928,4.928,0,0,0,9.461-1.936c0-.031,0-.063,0-.094Z"/><path d="M131.091,186.2H117.154a6.2,6.2,0,0,1-5.873-5.707,9.738,9.738,0,0,1-7.662-14.307,1.881,1.881,0,0,0,.133-1.367,21.031,21.031,0,1,1,41.4-5.236,20.786,20.786,0,0,1-.669,5.224,1.871,1.871,0,0,0,.135,1.364v0a9.719,9.719,0,0,1-5.006,13.672,9.83,9.83,0,0,1-2.649.647A6.2,6.2,0,0,1,131.091,186.2Zm-6.95-42.648a16.966,16.966,0,0,0-1.835.1A16.04,16.04,0,0,0,108.188,157.8a16.2,16.2,0,0,0,.408,5.773,6.868,6.868,0,0,1-.575,4.98,4.72,4.72,0,0,0,2.452,6.638,4.645,4.645,0,0,0,1.642.342,4.16,4.16,0,0,1,4.131,4.152v.118c0,.7.521,1.393.908,1.393h13.937c.388,0,.908-.689.908-1.393v-.118a4.16,4.16,0,0,1,4.131-4.152,4.652,4.652,0,0,0,1.642-.341,4.719,4.719,0,0,0,2.448-6.646h0a6.845,6.845,0,0,1-.576-5,15.861,15.861,0,0,0,.508-3.969,16.055,16.055,0,0,0-5.333-11.939A15.85,15.85,0,0,0,124.141,143.551Z"/><path d="M116.249,168.953a6.686,6.686,0,1,1,6.2-6.668A6.456,6.456,0,0,1,116.249,168.953Zm0-8.337c-.642,0-1.2.78-1.2,1.669s.563,1.668,1.2,1.668,1.2-.78,1.2-1.668S116.891,160.616,116.249,160.616Z"/><path d="M132,168.953a6.686,6.686,0,1,1,6.2-6.668A6.457,6.457,0,0,1,132,168.953Zm0-8.337c-.643,0-1.206.78-1.206,1.669s.563,1.668,1.206,1.668,1.2-.78,1.2-1.668S132.639,160.616,132,160.616Z"/><path d="M117.819,144.663a2.5,2.5,0,0,1-2.48-2.19c-.492-3.94-.845-8.237-1.047-12.772a2.5,2.5,0,0,1,2.979-2.565,35.482,35.482,0,0,0,12.757.177,2.5,2.5,0,0,1,2.912,2.579c-.2,4.329-.532,8.451-1,12.251a2.5,2.5,0,0,1-3.2,2.091,16.146,16.146,0,0,0-6.437-.582,15.625,15.625,0,0,0-3.631.86A2.507,2.507,0,0,1,117.819,144.663Zm1.629-12.129c.137,2.22.312,4.368.524,6.428.6-.122,1.194-.215,1.79-.281h0a21.386,21.386,0,0,1,5.524.111c.2-1.977.367-4.032.5-6.15A40.143,40.143,0,0,1,119.448,132.534Z"/></svg>