<svg xmlns="http://www.w3.org/2000/svg" viewBox="0 0 256 256"><title>icon</title><path d="M208.232,89.545C179.465,63.046,128,63.686,128,63.686s-51.465-.64-80.232,25.859a1.641,1.641,0,0,0,1.564,2.794c10.021-3.056,30-7.51,47.426-1.361q4.233,1.5,7.778,2.71a72.245,72.245,0,0,0,46.928,0q3.553-1.219,7.778-2.71c17.423-6.149,37.405-1.695,47.426,1.361A1.641,1.641,0,0,0,208.232,89.545Z" fill="#5b5d60"/><path d="M152.583,22.588C149.885,11.194,139.71,2.522,128,2.522c0,0-17.556-1.211-33.295,14.528-7.87,7.87-13.621,7.87-17.4,5.9A12.39,12.39,0,0,0,63.144,25.18l-6.567,6.239A1.7,1.7,0,0,0,58.435,34.2c5.927-2.6,12.644-4.449,15.688-1.405,4.48,4.48,14.927,10.276,24.962,8.085L92.674,67.948A165.18,165.18,0,0,1,128,63.686a165.18,165.18,0,0,1,35.326,4.262Z" fill="#5b5d60"/><path d="M197.458,247.958,194.3,180.346a13.233,13.233,0,0,0-9.858-12.144l-23.055-5.9a25.405,25.405,0,0,1-2.977-.968,30.907,30.907,0,0,1-3.066-1.4,13.5,13.5,0,0,1-12.874,11.732,3.557,3.557,0,0,0-2.832,1.578,13.476,13.476,0,0,1-22.484.089,3.676,3.676,0,0,0-3.059-1.67,13.47,13.47,0,0,1-13.438-11.73,31.93,31.93,0,0,1-3.069,1.405,25.466,25.466,0,0,1-2.977.968l-11.841,3.03c3.925,7.116,9.74,17.628,19.627,35.814l-7.437,11.562c-.079.124-.169.239-.256.357-13.33-24.57-20.04-36.626-24.362-44.482A13.257,13.257,0,0,0,61.7,180.346l-3.157,67.612A5.213,5.213,0,0,0,63.7,253.5H192.3A5.213,5.213,0,0,0,197.458,247.958Z" fill="#5b5d60"/><path d="M114.1,171.66a3.676,3.676,0,0,1,3.059,1.67,13.476,13.476,0,0,0,22.484-.089,3.557,3.557,0,0,1,2.832-1.578,13.5,13.5,0,0,0,12.874-11.732c-1.577-.791-4.2-2.13-9.475-4.754a4.77,4.77,0,0,1-2.614-4.273v-6a32.409,32.409,0,0,1-15.738,4.071h0a32.367,32.367,0,0,1-14.774-3.568v5.5a4.77,4.77,0,0,1-2.614,4.273c-5.247,2.609-7.872,3.952-9.472,4.753A13.47,13.47,0,0,0,114.1,171.66Z" fill="#70d6f9"/><path d="M159.242,90.979q-4.233,1.494-7.778,2.709a72.245,72.245,0,0,1-46.928,0q-3.553-1.219-7.778-2.709c-.452-.16-.906-.308-1.361-.453a23.67,23.67,0,0,0-.989,6.935l0,17.851c0,18.515,14.9,33.664,33.114,33.664h0c18.213,0,33.115-15.149,33.115-33.664V97.461a23.625,23.625,0,0,0-.9-6.645C159.569,90.871,159.405,90.921,159.242,90.979Z" fill="#70d6f9"/><path d="M160.633,97.461v17.851a33.837,33.837,0,0,1-17.377,29.593v6a4.77,4.77,0,0,0,2.614,4.273c5.276,2.624,7.9,3.963,9.475,4.754a30.907,30.907,0,0,0,3.066,1.4,25.405,25.405,0,0,0,2.977.968l12.02,3.076a26.323,26.323,0,0,0,8.906-6.02.906.906,0,0,0-.619-1.551c-6.447-.291-9.974-3.675-11.791-8.141a18.482,18.482,0,0,1-.471-11.959c.04-.14.079-.28.118-.42a3.005,3.005,0,0,1,2.892-2.2c5.89,0,10.8-4.068,13.013-6.257a.787.787,0,0,0-.548-1.339,16.049,16.049,0,0,1-4.254-.67,11.144,11.144,0,0,1-7.6-11.2,76.693,76.693,0,0,0-3.581-27.1,53.152,53.152,0,0,0-9.739,2.289A23.625,23.625,0,0,1,160.633,97.461Z" fill="#c7d7e5"/><path d="M97.589,161.335a31.93,31.93,0,0,0,3.069-1.405c1.6-.8,4.225-2.144,9.472-4.753a4.77,4.77,0,0,0,2.614-4.273v-5.5a33.816,33.816,0,0,1-18.34-30.1l0-17.851a23.67,23.67,0,0,1,.989-6.935A54.834,54.834,0,0,0,84.677,88.3a76.644,76.644,0,0,0-3.654,27.327,11.144,11.144,0,0,1-7.6,11.2,16.049,16.049,0,0,1-4.254.67.787.787,0,0,0-.548,1.339c2.216,2.189,7.123,6.252,13.013,6.257a3.005,3.005,0,0,1,2.892,2.2,18.627,18.627,0,0,1-.353,12.379,12.344,12.344,0,0,1-6.219,6.859l.006.012.024.045c1.5,2.775,3.261,5.976,4.79,8.75l11.841-3.03A25.466,25.466,0,0,0,97.589,161.335Z" fill="#c7d7e5"/><path d="M140,58.5v1a11.883,11.883,0,0,1-.963,4.693,170.915,170.915,0,0,1,24.289,3.755l-3.248-13.717a173.28,173.28,0,0,0-22.688-3.167A11.92,11.92,0,0,1,140,58.5Z" fill="#b77035"/><path d="M116,59.5v-1a11.92,11.92,0,0,1,2.61-7.436,173.28,173.28,0,0,0-22.688,3.167L92.674,67.948a170.915,170.915,0,0,1,24.289-3.755A11.883,11.883,0,0,1,116,59.5Z" fill="#b77035"/><path d="M140,59.5v-1a12,12,0,0,0-24,0v1a11.883,11.883,0,0,0,.963,4.693c6.763-.558,11.037-.507,11.037-.507s4.274-.051,11.037.507A11.883,11.883,0,0,0,140,59.5Z" fill="#f5c84c"/><path d="M103.573,199.322l-8.612,13.387a7.309,7.309,0,0,1-4.6,3.191l-7.595,1.649a1.481,1.481,0,0,0-.472,2.7l17.831,11.175a5.126,5.126,0,0,1,.506-.36l17.393-9.928c.057-.033.118-.048.176-.079l-4.711-20.82a2.655,2.655,0,0,0-2.555-2.069l-5.093-.067A2.657,2.657,0,0,0,103.573,199.322Z" fill="#fcdd86"/><path d="M37.362,100.542a6.225,6.225,0,0,0-5.641,6.761,56.84,56.84,0,0,0,3.587,15.373,17.682,17.682,0,0,0,7.4,8.778l11.321,6.767a5.147,5.147,0,0,1,2.025,2.24c12.409,25.905,7.779,15.7,38.654,72.6.087-.118.177-.233.256-.357l7.437-11.561C74.784,150.355,78.93,159.414,67.323,135.17a17.558,17.558,0,0,0-6.909-7.637l-11.322-6.767a5.184,5.184,0,0,1-2.168-2.574,44.479,44.479,0,0,1-2.8-12.009A6.226,6.226,0,0,0,37.362,100.542Z" fill="#b77035"/><path d="M118.023,221.138l-17.393,9.928a5.077,5.077,0,1,0,5.034,8.818l17.393-9.928a5.077,5.077,0,1,0-5.034-8.818Z" fill="#edf4fc"/><path d="M101.392,253.5h48.391a45.46,45.46,0,0,0-6.629-9.887c-6.493-6.664-16.331-12.039-19.837-13.842-.09.059-.166.131-.26.185L105.812,239.8A59.147,59.147,0,0,0,101.392,253.5Z" fill="#fcdd86"/><path d="M188.991,32.487h-2.33v-2.33a3.157,3.157,0,0,0-6.314,0v2.33h-2.329a3.158,3.158,0,1,0,0,6.315h2.329v2.33a3.157,3.157,0,0,0,6.314,0V38.8h2.33a3.158,3.158,0,1,0,0-6.315Z" fill="#70d6f9"/><path d="M46.755,159.654a11.1,11.1,0,0,1-8.9-8.717.2.2,0,0,0-.394,0,11.1,11.1,0,0,1-8.9,8.717.2.2,0,0,0,0,.386,11.1,11.1,0,0,1,8.9,8.717.2.2,0,0,0,.394,0,11.1,11.1,0,0,1,8.9-8.717A.2.2,0,0,0,46.755,159.654Z" fill="#f5c84c"/><circle cx="167.377" cy="12.377" r="3.377" fill="#f5c84c"/><circle cx="43.377" cy="64.377" r="3.377" fill="#ef4460"/><circle cx="45.377" cy="184.377" r="3.377" fill="#87d147"/><circle cx="197.377" cy="150.377" r="3.377" fill="#ef4460"/><path d="M97.648,49.453a2.5,2.5,0,0,1-2.434-3.077L98.8,31.239a2.5,2.5,0,0,1,4.865,1.153l-3.585,15.137A2.5,2.5,0,0,1,97.648,49.453Z"/><path d="M128,100.083a74.853,74.853,0,0,1-24.275-4.03q-3.564-1.224-7.8-2.717c-16.653-5.878-35.885-1.649-45.864,1.394a4.1,4.1,0,0,1-4.785-1.891,4.145,4.145,0,0,1,.8-5.132c29.163-26.864,79.825-26.54,81.957-26.521,2.073-.025,52.731-.343,81.895,26.521h0a4.14,4.14,0,0,1-3.988,7.023c-9.979-3.043-29.21-7.272-45.864-1.394q-4.244,1.5-7.8,2.716A74.832,74.832,0,0,1,128,100.083ZM77.226,85.4A61.241,61.241,0,0,1,97.59,88.621c2.815.994,5.395,1.891,7.758,2.7a70.111,70.111,0,0,0,45.3,0c2.363-.811,4.943-1.708,7.758-2.7,16.061-5.67,34.036-2.734,45.233.254C189.456,77.307,170.6,71.766,156.858,69.134a160.653,160.653,0,0,0-28.827-2.948,161.741,161.741,0,0,0-28.992,2.968c-13.71,2.635-32.521,8.175-46.682,19.721A98.35,98.35,0,0,1,77.226,85.4Z"/><path d="M92.674,70.448a2.5,2.5,0,0,1-2.433-3.076l5.577-23.549c-9.813.505-19.161-4.963-23.463-9.266-1.623-1.622-6.451-.9-12.917,1.928a4.2,4.2,0,0,1-4.584-6.879l6.568-6.239a14.849,14.849,0,0,1,17.032-2.633c3.94,2.05,8.815.217,14.483-5.452C108.868-.648,126.467-.066,128.077.021,140.683.06,152.005,9.3,155.016,22.012l10.743,45.36a2.5,2.5,0,0,1-3,3.011,163.857,163.857,0,0,0-34.731-4.2,163.464,163.464,0,0,0-34.791,4.2A2.468,2.468,0,0,1,92.674,70.448Zm35.778-9.264a166.943,166.943,0,0,1,31.526,3.473L150.15,23.164h0C147.661,12.651,138.346,5.021,128,5.021c-.058,0-.114,0-.172,0-.161-.01-16.674-.88-31.355,13.8-9.2,9.2-16.132,8.534-20.326,6.353a9.851,9.851,0,0,0-11.282,1.821l-3.551,3.374c6.925-2.428,11.715-2.206,14.577.655,3.921,3.923,13.548,9.4,22.662,7.412a2.5,2.5,0,0,1,2.966,3.019l-5.5,23.205a164.649,164.649,0,0,1,32.009-3.471C128.078,61.186,128.221,61.184,128.452,61.184Z"/><path d="M192.3,256H63.7a7.556,7.556,0,0,1-5.536-2.391,7.826,7.826,0,0,1-2.116-5.788L59.2,180.23a15.73,15.73,0,0,1,10.286-13.995,2.5,2.5,0,0,1,3.045,1.144l2.839,5.149c4.027,7.3,9.982,18.085,19.527,35.656l4.595-7.143c-8.575-15.766-14.1-25.776-17.786-32.461l-1.126-2.039a2.5,2.5,0,0,1,1.569-3.63l11.841-3.03a23.083,23.083,0,0,0,2.688-.874,29.522,29.522,0,0,0,2.859-1.313,2.5,2.5,0,0,1,3.6,1.911,10.968,10.968,0,0,0,10.841,9.556h.148a6.156,6.156,0,0,1,5.107,2.779,10.976,10.976,0,0,0,18.319-.072,6.036,6.036,0,0,1,4.831-2.7,10.941,10.941,0,0,0,10.483-9.558,2.5,2.5,0,0,1,3.6-1.911,28.641,28.641,0,0,0,2.857,1.312,23.143,23.143,0,0,0,2.685.872l23.056,5.9A15.663,15.663,0,0,1,196.8,180.21l3.158,67.621a7.83,7.83,0,0,1-2.117,5.778A7.556,7.556,0,0,1,192.3,256ZM69.29,171.853a10.785,10.785,0,0,0-5.1,8.63l-3.156,67.591a2.784,2.784,0,0,0,.754,2.1A2.605,2.605,0,0,0,63.7,251H192.3a2.605,2.605,0,0,0,1.905-.828,2.771,2.771,0,0,0,.755-2.078v-.02L191.8,180.463a10.676,10.676,0,0,0-7.981-9.838l-23.055-5.9a28.283,28.283,0,0,1-3.268-1.061c-.155-.061-.3-.119-.44-.176a15.915,15.915,0,0,1-14.5,10.674,1.062,1.062,0,0,0-.832.453,15.977,15.977,0,0,1-26.651.106,1.192,1.192,0,0,0-.953-.561,1,1,0,0,1-.147,0,15.965,15.965,0,0,1-15.03-10.676c-.142.058-.29.117-.446.178a28.4,28.4,0,0,1-3.271,1.062l-8.71,2.229c3.791,6.872,9.423,17.088,18.074,33a2.5,2.5,0,0,1-.094,2.547l-7.438,11.562c-.088.138-.19.279-.293.418a2.57,2.57,0,0,1-2.211,1.047,2.507,2.507,0,0,1-2.051-1.268C81.788,194.5,75.293,182.732,71,174.945Z"/><path d="M128.369,181.831a15.974,15.974,0,0,1-13.291-7.11,1.192,1.192,0,0,0-.953-.561h-.147a15.971,15.971,0,0,1-15.8-13.907,2.5,2.5,0,0,1,1.359-2.56l1.695-.854c1.656-.836,4.061-2.051,7.783-3.9a2.282,2.282,0,0,0,1.227-2.035v-5.5a2.5,2.5,0,0,1,3.638-2.226,29.688,29.688,0,0,0,13.637,3.294,30.074,30.074,0,0,0,14.526-3.759,2.5,2.5,0,0,1,3.711,2.188v6a2.286,2.286,0,0,0,1.234,2.039c3.864,1.92,6.309,3.155,7.96,3.99l1.516.763a2.5,2.5,0,0,1,1.357,2.559,15.925,15.925,0,0,1-15.262,13.907,1.062,1.062,0,0,0-.832.453A15.959,15.959,0,0,1,128.369,181.831ZM114.126,169.16a6.156,6.156,0,0,1,5.107,2.779,10.976,10.976,0,0,0,18.319-.072,6.036,6.036,0,0,1,4.831-2.7A10.933,10.933,0,0,0,152.51,161.3c-1.642-.829-4.038-2.038-7.753-3.884a7.234,7.234,0,0,1-4-6.513v-2.035a35.053,35.053,0,0,1-13.237,2.607,34.53,34.53,0,0,1-12.275-2.23V150.9a7.23,7.23,0,0,1-3.994,6.509c-3.71,1.844-6.1,3.053-7.755,3.887a10.961,10.961,0,0,0,10.483,7.861h.148Z"/><path d="M127.519,151.476c-19.638,0-35.615-16.223-35.615-36.164l0-17.852A26.14,26.14,0,0,1,93,89.8a2.5,2.5,0,0,1,3.155-1.659c.479.153.956.308,1.432.476,2.815.994,5.395,1.891,7.758,2.7a70.111,70.111,0,0,0,45.3,0c2.363-.811,4.943-1.708,7.758-2.7h0l.52-.173a2.5,2.5,0,0,1,3.2,1.68,26.114,26.114,0,0,1,1,7.428l0,17.756C163.133,135.253,147.156,151.476,127.519,151.476ZM97.2,93.786a20.508,20.508,0,0,0-.3,3.581l0,17.945c0,17.184,13.734,31.164,30.615,31.164s30.614-13.98,30.614-31.164V97.461a20.366,20.366,0,0,0-.244-3.357q-2.991,1.05-5.614,1.949a75.131,75.131,0,0,1-48.55,0Q100.7,95.015,97.2,93.786Z"/><path d="M173.408,167.879a2.508,2.508,0,0,1-.62-.078l-12.02-3.076a28.283,28.283,0,0,1-3.268-1.061,33.1,33.1,0,0,1-3.275-1.5l-1.529-.77c-1.646-.832-4.082-2.062-7.939-3.979a7.234,7.234,0,0,1-4-6.513v-6a2.5,2.5,0,0,1,1.289-2.188,31.3,31.3,0,0,0,16.088-27.405V97.461c0-.03,0-.059,0-.089h0a21.4,21.4,0,0,0-.807-5.868,2.5,2.5,0,0,1,1.6-3.054,55.652,55.652,0,0,1,10.2-2.4,2.5,2.5,0,0,1,2.725,1.7,79.337,79.337,0,0,1,3.7,27.976,8.611,8.611,0,0,0,5.844,8.708,13.6,13.6,0,0,0,3.592.559,3.3,3.3,0,0,1,2.974,2.093,3.266,3.266,0,0,1-.746,3.523c-2.637,2.6-8.062,6.974-14.768,6.979a.5.5,0,0,0-.485.365l-.117.422a16.074,16.074,0,0,0,.376,10.348c1.717,4.218,4.853,6.372,9.589,6.585a3.431,3.431,0,0,1,3.061,2.213,3.386,3.386,0,0,1-.82,3.636,28.461,28.461,0,0,1-9.8,6.573A2.5,2.5,0,0,1,173.408,167.879Zm-27.652-21.536V150.9a2.286,2.286,0,0,0,1.234,2.039c3.864,1.92,6.309,3.155,7.96,3.99l1.516.763a28.542,28.542,0,0,0,2.856,1.312,23.143,23.143,0,0,0,2.685.872l11.245,2.878a20.367,20.367,0,0,0,4.782-2.938,14.594,14.594,0,0,1-10.446-9.21,21.074,21.074,0,0,1-.561-13.579l.116-.415a5.518,5.518,0,0,1,5.3-4.026,14.927,14.927,0,0,0,8.4-3.122c-.314-.077-.62-.162-.922-.255a13.611,13.611,0,0,1-9.363-13.692,74.934,74.934,0,0,0-2.83-24.182,50.956,50.956,0,0,0-5.033,1.168,25.583,25.583,0,0,1,.443,4.991v17.814A36.316,36.316,0,0,1,145.756,146.343Z"/><path d="M82.771,167.833a2.5,2.5,0,0,1-2.189-1.293l-.2-.371c-1.484-2.692-3.166-5.742-4.6-8.4-.011-.022-.048-.09-.059-.112a2.512,2.512,0,0,1,1.174-3.4,9.789,9.789,0,0,0,4.959-5.534c1.316-3.233,1.4-6.656.26-10.772a.509.509,0,0,0-.485-.364c-6.709,0-12.132-4.375-14.768-6.979a3.268,3.268,0,0,1-.746-3.523A3.3,3.3,0,0,1,69.089,125a13.639,13.639,0,0,0,3.594-.559,8.61,8.61,0,0,0,5.841-8.708A79.25,79.25,0,0,1,82.3,87.514a2.508,2.508,0,0,1,2.646-1.7,57.43,57.43,0,0,1,11.207,2.333,2.5,2.5,0,0,1,1.633,3.1,21.527,21.527,0,0,0-.884,6.119l0,17.945a31.131,31.131,0,0,0,16.978,27.87,2.5,2.5,0,0,1,1.362,2.226v5.5a7.23,7.23,0,0,1-3.994,6.509c-3.716,1.847-6.112,3.057-7.762,3.89l-1.711.862a34.036,34.036,0,0,1-3.275,1.5h0a28.434,28.434,0,0,1-3.269,1.061l-11.839,3.03A2.5,2.5,0,0,1,82.771,167.833ZM81.3,157.454c.892,1.637,1.833,3.348,2.73,4.977l9.966-2.55a23.083,23.083,0,0,0,2.688-.874,29.547,29.547,0,0,0,2.859-1.313l1.695-.854c1.656-.836,4.061-2.051,7.783-3.9a2.282,2.282,0,0,0,1.227-2.035v-4A36.11,36.11,0,0,1,91.9,115.312l0-17.852a25.306,25.306,0,0,1,.491-5.206,52.741,52.741,0,0,0-5.962-1.213,74.788,74.788,0,0,0-2.916,24.48,13.612,13.612,0,0,1-9.363,13.692c-.3.093-.609.178-.923.255a14.927,14.927,0,0,0,8.4,3.122,5.52,5.52,0,0,1,5.3,4.03,21.061,21.061,0,0,1-.448,13.99A15.316,15.316,0,0,1,81.3,157.454Zm16.294,3.881h0Z"/><path d="M163.326,70.449a2.468,2.468,0,0,1-.565-.065,166.755,166.755,0,0,0-23.929-3.7,2.5,2.5,0,0,1-2.093-3.477A9.36,9.36,0,0,0,137.5,59.5v-1a9.375,9.375,0,0,0-2.067-5.881,2.5,2.5,0,0,1,2.138-4.049,176.829,176.829,0,0,1,23.02,3.215,2.5,2.5,0,0,1,1.92,1.87l3.248,13.718a2.5,2.5,0,0,1-2.433,3.076Zm-21.039-8.471a172.837,172.837,0,0,1,17.691,2.679l-1.964-8.3c-6.12-1.217-11.752-1.959-16.259-2.41A14.364,14.364,0,0,1,142.5,58.5v1A14.392,14.392,0,0,1,142.287,61.978Z"/><path d="M92.674,70.449a2.5,2.5,0,0,1-2.433-3.076l3.248-13.718a2.5,2.5,0,0,1,1.92-1.87,176.829,176.829,0,0,1,23.02-3.215,2.5,2.5,0,0,1,2.138,4.049A9.375,9.375,0,0,0,118.5,58.5v1a9.36,9.36,0,0,0,.761,3.708,2.5,2.5,0,0,1-2.093,3.477,166.755,166.755,0,0,0-23.929,3.7A2.468,2.468,0,0,1,92.674,70.449Zm5.312-14.088-1.964,8.3a172.837,172.837,0,0,1,17.691-2.679A14.392,14.392,0,0,1,113.5,59.5v-1a14.364,14.364,0,0,1,.745-4.549C109.738,54.4,104.106,55.144,97.986,56.361Z"/><path d="M139.038,66.693c-.068,0-.138,0-.206-.008-6.55-.541-10.759-.5-10.8-.5-.1,0-4.316-.042-10.861.5a2.515,2.515,0,0,1-2.5-1.508A14.337,14.337,0,0,1,113.5,59.5v-1a14.5,14.5,0,0,1,29,0v1a14.337,14.337,0,0,1-1.165,5.677A2.5,2.5,0,0,1,139.038,66.693ZM128,49a9.511,9.511,0,0,0-9.5,9.5v1a9.366,9.366,0,0,0,.225,2.05c5.651-.4,9.141-.364,9.305-.363.1,0,3.59-.039,9.245.363a9.366,9.366,0,0,0,.225-2.05v-1A9.511,9.511,0,0,0,128,49Z"/><path d="M100.124,233.926a2.484,2.484,0,0,1-1.327-.382L80.966,222.37a3.981,3.981,0,0,1,1.268-7.264l7.6-1.648a4.785,4.785,0,0,0,3.028-2.1l8.612-13.387v0A5.128,5.128,0,0,1,105.8,195.6h.07l5.091.066a5.144,5.144,0,0,1,4.962,4.016l4.711,20.822a2.5,2.5,0,0,1-1.29,2.772c-.046.024-.12.058-.191.089l-17.545,10.066A2.5,2.5,0,0,1,100.124,233.926ZM85.74,219.461l14.384,9.015,15.224-8.69-4.3-19a.155.155,0,0,0-.151-.121l-5.09-.066a.141.141,0,0,0-.135.072l-8.611,13.386a9.751,9.751,0,0,1-6.172,4.282Z"/><path d="M94.721,215.526c-.055,0-.11,0-.165-.005a2.508,2.508,0,0,1-2.048-1.262C81.793,194.509,75.3,182.74,71,174.952c-8.212-14.879-9.07-16.434-17.2-33.411a2.677,2.677,0,0,0-1.055-1.175L41.423,133.6a20.193,20.193,0,0,1-8.447-10.025,59.411,59.411,0,0,1-3.746-16.048,8.728,8.728,0,0,1,7.906-9.476h0a8.735,8.735,0,0,1,9.475,7.906,41.985,41.985,0,0,0,2.644,11.334,2.678,2.678,0,0,0,1.118,1.327L61.7,125.387a20.052,20.052,0,0,1,7.89,8.72c7.794,16.28,8.452,17.473,16.506,32.07,3.792,6.871,9.521,17.256,18.5,33.776a2.5,2.5,0,0,1-.094,2.547l-7.438,11.562c-.089.141-.191.28-.294.418A2.6,2.6,0,0,1,94.721,215.526ZM37.586,103.032a3.725,3.725,0,0,0-3.375,4.046,54.339,54.339,0,0,0,3.429,14.7,15.173,15.173,0,0,0,6.347,7.533l11.321,6.767a7.644,7.644,0,0,1,3.006,3.322c8.062,16.831,8.914,18.374,17.062,33.139,4.027,7.3,9.981,18.084,19.523,35.648l4.595-7.143c-8.568-15.754-14.092-25.765-17.78-32.449-8.118-14.714-8.781-15.916-16.646-32.342a15.079,15.079,0,0,0-5.936-6.571L47.81,122.912a7.7,7.7,0,0,1-3.218-3.818,47,47,0,0,1-2.96-12.686,3.728,3.728,0,0,0-4.046-3.376Z"/><path d="M103.159,243.056a7.631,7.631,0,0,1-2.009-.271,7.577,7.577,0,0,1-1.759-13.89l17.393-9.929a7.577,7.577,0,0,1,7.513,13.161L106.9,242.056A7.535,7.535,0,0,1,103.159,243.056Zm17.378-20.088a2.556,2.556,0,0,0-1.274.341h0l-17.394,9.928a2.577,2.577,0,0,0,2.556,4.476l17.393-9.928a2.58,2.58,0,0,0-1.281-4.817Zm-2.514-1.83h0Z"/><path d="M149.783,256H101.392a2.5,2.5,0,0,1-2.453-2.986,61.8,61.8,0,0,1,4.61-14.278,2.507,2.507,0,0,1,1.023-1.107l17.152-9.79c.077-.058.145-.108.216-.154a2.5,2.5,0,0,1,2.52-.137c3.936,2.024,13.811,7.472,20.485,14.32a47.2,47.2,0,0,1,7.045,10.458A2.5,2.5,0,0,1,149.783,256Zm-45.273-5H145.5a32.017,32.017,0,0,0-4.136-5.643c-5.622-5.77-14.1-10.651-17.963-12.718l-15.653,8.935A55.741,55.741,0,0,0,104.51,251Z"/><path d="M107.478,105.192a6.541,6.541,0,1,0,12.506,2.684Z" fill="#c7d7e5"/><path d="M147.563,105.192a6.541,6.541,0,1,1-12.506,2.684Z" fill="#c7d7e5"/><path d="M127.521,136.151a19.9,19.9,0,0,1-8.891-2.077,2.5,2.5,0,0,1,2.215-4.483,15.128,15.128,0,0,0,13.354,0,2.5,2.5,0,1,1,2.213,4.483A19.9,19.9,0,0,1,127.521,136.151Z"/><path d="M113.442,116.917a9.053,9.053,0,0,1-9.042-9.042,8.936,8.936,0,0,1,.8-3.716,2.5,2.5,0,0,1,2.8-1.411l12.506,2.683a2.5,2.5,0,0,1,1.975,2.444A9.052,9.052,0,0,1,113.442,116.917Zm-4.032-8.753a4.042,4.042,0,0,0,7.59,1.628Z"/><path d="M141.6,116.917a9.052,9.052,0,0,1-9.042-9.042,2.5,2.5,0,0,1,1.975-2.444l12.506-2.683a2.5,2.5,0,0,1,2.8,1.411,8.936,8.936,0,0,1,.8,3.716A9.053,9.053,0,0,1,141.6,116.917Zm-3.558-7.125a4.042,4.042,0,0,0,7.59-1.628Z"/></svg>