<svg xmlns="http://www.w3.org/2000/svg" viewBox="0 0 256 256"><title>icon</title><path d="M51.705,86.654a11.1,11.1,0,0,1-8.9-8.717.2.2,0,0,0-.4,0,11.1,11.1,0,0,1-8.9,8.717.2.2,0,0,0,0,.386,11.1,11.1,0,0,1,8.9,8.717.2.2,0,0,0,.4,0,11.1,11.1,0,0,1,8.9-8.717A.2.2,0,0,0,51.705,86.654Z" fill="#f5c84c"/><path d="M199.941,5.487h-2.33V3.157a3.158,3.158,0,0,0-6.315,0v2.33h-2.329a3.158,3.158,0,0,0,0,6.315H191.3v2.33a3.158,3.158,0,0,0,6.315,0V11.8h2.33a3.158,3.158,0,0,0,0-6.315Z" fill="#3caadc"/><circle cx="33.662" cy="113.377" r="3.377" fill="#3caadc"/><circle cx="202.662" cy="36.377" r="3.377" fill="#87d147"/><circle cx="239.662" cy="175.377" r="3.377" fill="#f5c84c"/><circle cx="11.662" cy="207.377" r="3.377" fill="#fc657e"/><path d="M225.582,214.626a7.692,7.692,0,0,1-1.133-5.214c.806-5.453,2.433-17.185,2.433-22.951,0,0,0-20.111-5.746-25.857h5.746s-3.831-16.281-20.112-23.943l4.789-2.873s-17.841-15.2-34.961-19.946A78.234,78.234,0,0,0,181.779,95.2a.988.988,0,0,1,1.77-.461l1.716,2.277a.994.994,0,0,0,1.721-.247c13.359-35.878-.892-55.351-6.543-61.267a1.82,1.82,0,0,1,.7-2.974l3.2-1.15a1.826,1.826,0,0,0,.788-2.888,66.664,66.664,0,0,0-5.359-5.6,75.932,75.932,0,0,0-103.54,0,66.664,66.664,0,0,0-5.359,5.605,1.826,1.826,0,0,0,.788,2.888l3.2,1.15a1.82,1.82,0,0,1,.7,2.974c-5.651,5.916-19.9,25.389-6.543,61.267a.994.994,0,0,0,1.721.247l1.716-2.277a.988.988,0,0,1,1.77.461A78.234,78.234,0,0,0,79.4,113.842c-17.12,4.742-34.961,19.946-34.961,19.946l4.789,2.873C32.949,144.323,29.118,160.6,29.118,160.6h5.746c-5.746,5.746-5.746,25.857-5.746,25.857,0,5.766,1.627,17.5,2.433,22.951a7.692,7.692,0,0,1-1.133,5.214C20.931,229.73,20.5,253.5,20.5,253.5h215S235.069,229.73,225.582,214.626Z" fill="#edf4fc"/><path d="M169.693,64.218a88.894,88.894,0,0,0-1.373-9.358,1.63,1.63,0,0,0-2.411-1.079,33.124,33.124,0,0,0-10.477,9.182,1.628,1.628,0,0,1-2.816-.288l-1.939-4.361a1.636,1.636,0,0,0-2.457-.659,38.044,38.044,0,0,0-11.083,12.261,1.63,1.63,0,0,1-2.79.116l-4.986-7.479a1.636,1.636,0,0,0-2.722,0l-4.986,7.479a1.63,1.63,0,0,1-2.79-.116A38.044,38.044,0,0,0,107.78,57.655a1.636,1.636,0,0,0-2.457.659l-1.939,4.361a1.63,1.63,0,0,1-2.817.288,33.077,33.077,0,0,0-10.431-9.155,1.638,1.638,0,0,0-2.419,1.1,84.455,84.455,0,0,0-1.405,9.278,9.992,9.992,0,0,1-1.371,4.222,26.929,26.929,0,0,0-3.589,14.221c0,15.071,13.106,28.729,19.659,34.616a33.372,33.372,0,0,1,5.269,5.917,27.482,27.482,0,0,0,11.4,9.019,24.829,24.829,0,0,0,20.646,0,27.471,27.471,0,0,0,11.4-9.019,33.407,33.407,0,0,1,5.269-5.917c6.554-5.887,19.66-19.545,19.66-34.616a26.94,26.94,0,0,0-3.573-14.194A9.973,9.973,0,0,1,169.693,64.218Z" fill="#9be5f9"/><path d="M180.428,50.563c-5.7-1.9-9.788,1.848-12,4.821a89.186,89.186,0,0,1,1.273,8.868,9.757,9.757,0,0,0,1.355,4.142,25.584,25.584,0,0,1,3.44,11.062c10.183,2.743,9.343-6.56,8.45-10.884a7.108,7.108,0,0,1,.412-4.127C184.892,60.68,187.162,52.808,180.428,50.563Z" fill="#9be5f9"/><path d="M84.943,68.405a9.833,9.833,0,0,0,1.363-4.153,84.661,84.661,0,0,1,1.3-8.823c-2.209-2.98-6.306-6.776-12.038-4.866-6.734,2.245-4.464,10.117-2.925,13.882a7.108,7.108,0,0,1,.412,4.127c-.893,4.324-1.733,13.627,8.45,10.884A25.579,25.579,0,0,1,84.943,68.405Z" fill="#9be5f9"/><path d="M126.324,253.5H168a60.1,60.1,0,0,1-2.289-30.079,24,24,0,0,1,6.581-12.536A35.312,35.312,0,0,0,134.4,153.321a17.992,17.992,0,0,1-12.8,0,35.31,35.31,0,0,0-37.893,57.564,24,24,0,0,1,6.581,12.536A60.1,60.1,0,0,1,88,253.5Z" fill="#9be5f9"/><path d="M111.578,107.119a6.092,6.092,0,0,1-6.544,1.785,23.529,23.529,0,0,1,3.5-16.465,1.217,1.217,0,0,1,2.215.325,61.7,61.7,0,0,0,4.741,12.8A5.447,5.447,0,0,0,111.578,107.119Z" fill="#edf4fc"/><path d="M144.422,107.119a6.092,6.092,0,0,0,6.544,1.785,23.529,23.529,0,0,0-3.5-16.465,1.217,1.217,0,0,0-2.215.325,61.7,61.7,0,0,1-4.741,12.8A5.447,5.447,0,0,1,144.422,107.119Z" fill="#edf4fc"/><path d="M75.564,256a2.5,2.5,0,0,1-2.141-3.786c3.521-5.869,3.46-14.773,3.043-19.967l-.358.269a2.5,2.5,0,0,1-4-2c0-6.661-1.626-14.24-2.728-18.612l-2.286,1.87a2.5,2.5,0,0,1-3.955-1.143c-6.849-20.549-3.1-37.063-2.935-37.755a2.5,2.5,0,0,1,4.868,1.142h0c-.034.147-3.145,14.011,1.739,31.528l2.384-1.95a2.5,2.5,0,0,1,3.972,1.2,102.981,102.981,0,0,1,3.719,18.888l.053-.04a2.5,2.5,0,0,1,3.962,1.565c.124.7,2.965,17.318-3.191,27.578A2.5,2.5,0,0,1,75.564,256Z"/><path d="M180.436,256a2.5,2.5,0,0,1-2.146-1.214c-6.156-10.26-3.315-26.876-3.191-27.578a2.5,2.5,0,0,1,3.962-1.565l.053.04a102.981,102.981,0,0,1,3.719-18.888,2.5,2.5,0,0,1,3.972-1.2l2.384,1.95c4.91-17.58,1.774-31.379,1.74-31.525a2.5,2.5,0,1,1,4.867-1.145c.163.692,3.914,17.206-2.935,37.755a2.5,2.5,0,0,1-3.955,1.143l-2.286-1.87c-1.1,4.372-2.728,11.951-2.728,18.612a2.5,2.5,0,0,1-4,2l-.354-.266c-.414,5.2-.472,14.111,3.039,19.964A2.5,2.5,0,0,1,180.436,256Z"/><path d="M104.531,207.957a19.717,19.717,0,0,1-8.313-1.835l-12.242-5.684a2.5,2.5,0,0,1,2.105-4.535l12.242,5.684a14.755,14.755,0,0,0,13.615-.622l11.088-6.439a4.984,4.984,0,0,0,2.474-4.3v-7.611a2.5,2.5,0,0,1,5,0v7.611a10,10,0,0,1-4.963,8.622l-11.088,6.438A19.75,19.75,0,0,1,104.531,207.957Z"/><path d="M151.469,207.957a19.747,19.747,0,0,1-9.917-2.668l-11.089-6.438a10,10,0,0,1-4.963-8.622v-5.286a2.5,2.5,0,1,1,5,0v5.286a4.984,4.984,0,0,0,2.474,4.3l11.088,6.439a14.756,14.756,0,0,0,13.615.622l12.242-5.684a2.5,2.5,0,1,1,2.1,4.535l-12.242,5.684A19.733,19.733,0,0,1,151.469,207.957Z"/><path d="M115.647,227.737q-1.419,0-2.965-.112a16.727,16.727,0,0,1-13.754-9.316,2.5,2.5,0,1,1,4.49-2.2,11.713,11.713,0,0,0,9.625,6.53c5.267.379,9.2-.372,11.084-2.123a4.5,4.5,0,0,0,1.373-3.539,2.5,2.5,0,1,1,5,0,9.419,9.419,0,0,1-2.968,7.2C124.988,226.544,121,227.737,115.647,227.737Z"/><path d="M140.353,227.737c-5.351,0-9.34-1.193-11.885-3.56a9.419,9.419,0,0,1-2.968-7.2v-9.338a2.5,2.5,0,0,1,5,0v9.338a4.5,4.5,0,0,0,1.373,3.539c1.882,1.751,5.818,2.5,11.084,2.123a11.713,11.713,0,0,0,9.625-6.53,2.5,2.5,0,1,1,4.49,2.2,16.727,16.727,0,0,1-13.754,9.316Q141.773,227.737,140.353,227.737Z"/><path d="M118.139,244.567q-1.149,0-2.4-.09a13.853,13.853,0,0,1-11.391-7.714,2.5,2.5,0,0,1,4.49-2.2,8.837,8.837,0,0,0,7.263,4.927c4,.291,7.085-.278,8.462-1.558a3.056,3.056,0,0,0,.935-2.455,2.5,2.5,0,1,1,5,0,8.111,8.111,0,0,1-2.529,6.116C125.844,243.57,122.543,244.567,118.139,244.567Z"/><path d="M137.86,244.567c-4.4,0-7.7-1-9.831-2.974a8.111,8.111,0,0,1-2.529-6.116V224.048a2.5,2.5,0,0,1,5,0v11.429a3.056,3.056,0,0,0,.935,2.455c1.377,1.28,4.461,1.848,8.461,1.558a8.837,8.837,0,0,0,7.264-4.927,2.5,2.5,0,0,1,4.49,2.2,13.853,13.853,0,0,1-11.392,7.714Q139.01,244.567,137.86,244.567Z"/><path d="M149.034,111.734a8.873,8.873,0,0,1-6.38-2.847c-1.457-1.455-4.049-.8-7.839.37a23.347,23.347,0,0,1-6.622,1.376,2.5,2.5,0,0,1,0-5,19.853,19.853,0,0,0,5.149-1.154c4.077-1.258,9.153-2.824,12.848.873,2.28,2.28,4.309,1.159,4.875.759a2.519,2.519,0,0,1,3.477.566,2.482,2.482,0,0,1-.506,3.456A8.645,8.645,0,0,1,149.034,111.734Z"/><path d="M106.966,111.734a8.645,8.645,0,0,1-5-1.6,2.5,2.5,0,0,1,2.975-4.019c.574.4,2.6,1.512,4.872-.762,3.695-3.7,8.77-2.131,12.847-.873a19.853,19.853,0,0,0,5.149,1.154,2.5,2.5,0,0,1,0,5,23.347,23.347,0,0,1-6.622-1.376c-3.79-1.168-6.383-1.824-7.839-.37A8.873,8.873,0,0,1,106.966,111.734Z"/><path d="M88.781,133.641a2.5,2.5,0,0,1-2.062-1.083A93.656,93.656,0,0,1,75.67,111.1a2.5,2.5,0,0,1,4.707-1.688,88.709,88.709,0,0,0,10.461,20.317,2.5,2.5,0,0,1-2.057,3.917Z"/><path d="M167.219,133.641a2.5,2.5,0,0,1-2.057-3.917,88.709,88.709,0,0,0,10.461-20.317,2.5,2.5,0,0,1,4.707,1.688,93.656,93.656,0,0,1-11.049,21.463A2.5,2.5,0,0,1,167.219,133.641Z"/><path d="M235.5,256H20.5a2.5,2.5,0,0,1-2.5-2.546c.018-1,.556-24.642,10.3-40.158a5.208,5.208,0,0,0,.778-3.519c-.919-6.216-2.46-17.513-2.46-23.316,0-1.79.125-15.208,3.729-23.357H29.118a2.5,2.5,0,0,1-2.433-3.073,40.977,40.977,0,0,1,17.507-23.477l-1.037-.622a2.5,2.5,0,0,1-.335-4.046c.708-.6,16.716-14.143,33.272-19.647a83.554,83.554,0,0,1-3.776-13.26,3.493,3.493,0,0,1-5.645-1.34c-13.187-35.415-.521-55.483,6.373-63.107l-2.232-.8a4.325,4.325,0,0,1-1.854-6.85,68.936,68.936,0,0,1,5.562-5.817,78.305,78.305,0,0,1,106.96,0,68.936,68.936,0,0,1,5.562,5.817,4.325,4.325,0,0,1-1.854,6.85l-2.232.8c6.893,7.623,19.561,27.69,6.372,63.108a3.493,3.493,0,0,1-5.644,1.339,83.633,83.633,0,0,1-3.776,13.26c16.556,5.5,32.564,19.043,33.272,19.647a2.5,2.5,0,0,1-.335,4.046l-1.037.622a40.977,40.977,0,0,1,17.507,23.477,2.5,2.5,0,0,1-2.433,3.073h-1.229c3.6,8.149,3.729,21.567,3.729,23.357,0,5.8-1.541,17.1-2.46,23.316a5.212,5.212,0,0,0,.777,3.519h0c9.744,15.516,10.282,39.16,10.3,40.158A2.5,2.5,0,0,1,235.5,256ZM23.122,251H232.876c-.418-6.415-2.185-23.539-9.411-35.044a10.212,10.212,0,0,1-1.489-6.909c.723-4.9,2.406-16.9,2.406-22.586,0-7.378-1.367-20.443-5.014-24.09a2.5,2.5,0,0,1,1.768-4.267H223.4c-1.936-4.813-6.9-14.1-17.694-19.181a2.5,2.5,0,0,1-.222-4.405l1.709-1.026c-5.569-4.315-18.734-13.77-31.263-17.241a2.5,2.5,0,0,1-1.647-3.355A75.9,75.9,0,0,0,179.3,94.862a3.489,3.489,0,0,1,6.244-1.629l.033.044c11.076-32.339-1.075-49.9-6.944-56.049a4.32,4.32,0,0,1,1.663-7.053l2.279-.821c-1.325-1.513-2.841-3.073-4.518-4.646a73.3,73.3,0,0,0-100.118,0c-1.677,1.573-3.193,3.133-4.519,4.646l2.28.821a4.321,4.321,0,0,1,1.664,7.053c-5.87,6.145-18.024,23.707-6.945,56.049l.033-.044A3.489,3.489,0,0,1,76.7,94.862,75.9,75.9,0,0,0,81.717,112.9a2.5,2.5,0,0,1-1.647,3.355c-12.547,3.476-25.7,12.926-31.264,17.24l1.71,1.027a2.5,2.5,0,0,1-.222,4.405C39.5,144,34.537,153.288,32.6,158.1h2.263a2.5,2.5,0,0,1,1.768,4.267c-3.653,3.652-5.014,16.715-5.014,24.09,0,5.688,1.683,17.689,2.406,22.586a10.207,10.207,0,0,1-1.49,6.909C25.3,227.479,23.537,244.59,23.122,251Z"/><path d="M128,89.931a2.5,2.5,0,0,1,0-5,8.927,8.927,0,0,0,8.047-5.111,6.021,6.021,0,0,1,5.371-3.456,6.117,6.117,0,0,1,5.559,3.267l.082.161a2.5,2.5,0,1,1-4.472,2.236,1.137,1.137,0,0,0-1.067-.665,1.022,1.022,0,0,0-.947.584A13.949,13.949,0,0,1,128,89.931Z"/><path d="M128,89.931a13.949,13.949,0,0,1-12.573-7.984,1.022,1.022,0,0,0-.947-.584,1.122,1.122,0,0,0-1.022.578A2.542,2.542,0,0,1,110.08,83.1a2.459,2.459,0,0,1-1.14-3.311l.1-.188a6.125,6.125,0,0,1,5.545-3.24,6.021,6.021,0,0,1,5.371,3.456A8.927,8.927,0,0,0,128,84.931a2.5,2.5,0,0,1,0,5Z"/><path d="M128,136.933a27.293,27.293,0,0,1-11.364-2.48,29.543,29.543,0,0,1-12.418-9.879,31.027,31.027,0,0,0-4.877-5.47c-7.653-6.875-20.489-20.753-20.489-36.475A29.556,29.556,0,0,1,82.8,67.114a7.55,7.55,0,0,0,1.022-3.168,87.257,87.257,0,0,1,1.446-9.552,4.174,4.174,0,0,1,2.381-2.95,4.131,4.131,0,0,1,3.744.2A36.33,36.33,0,0,1,101.7,60.309l1.338-3.01a4.136,4.136,0,0,1,6.2-1.672,41.306,41.306,0,0,1,11.113,11.844l4.2-6.305a4.136,4.136,0,0,1,6.882,0l4.2,6.306a41.286,41.286,0,0,1,11.113-11.843,4.134,4.134,0,0,1,6.2,1.672l1.338,3.009a36.364,36.364,0,0,1,10.352-8.69,4.133,4.133,0,0,1,6.119,2.743,92.384,92.384,0,0,1,1.411,9.623h0a7.531,7.531,0,0,0,1.034,3.159,29.577,29.577,0,0,1,3.932,15.485c0,15.723-12.837,29.6-20.489,36.475a30.994,30.994,0,0,0-4.878,5.47,29.535,29.535,0,0,1-12.417,9.879A27.293,27.293,0,0,1,128,136.933ZM89.926,56.6c-.493,2.547-.871,5.173-1.125,7.824A12.582,12.582,0,0,1,87.082,69.7a24.646,24.646,0,0,0-3.23,12.929c0,14.3,13.169,27.669,18.83,32.756a35.907,35.907,0,0,1,5.66,6.363,24.666,24.666,0,0,0,10.375,8.158,22.273,22.273,0,0,0,18.565,0,24.66,24.66,0,0,0,10.375-8.158,35.919,35.919,0,0,1,5.661-6.364c5.661-5.085,18.83-18.458,18.83-32.755a24.675,24.675,0,0,0-3.215-12.9,12.536,12.536,0,0,1-1.729-5.272c-.251-2.67-.619-5.312-1.1-7.874a29.57,29.57,0,0,0-8.636,7.831,4.128,4.128,0,0,1-7.14-.72l-1.5-3.374a34.758,34.758,0,0,0-9.487,10.774,4.069,4.069,0,0,1-3.421,2.17,4.133,4.133,0,0,1-3.656-1.84L128,65.018l-4.267,6.4a4.139,4.139,0,0,1-3.656,1.84,4.07,4.07,0,0,1-3.421-2.169,34.762,34.762,0,0,0-9.487-10.775l-1.5,3.375a4.129,4.129,0,0,1-7.14.72A29.538,29.538,0,0,0,89.926,56.6Z"/><path d="M177.828,82.453a15.433,15.433,0,0,1-3.987-.583A2.5,2.5,0,0,1,172,79.685a23.226,23.226,0,0,0-3.089-10,12.31,12.31,0,0,1-1.705-5.2,87.037,87.037,0,0,0-1.238-8.619,2.5,2.5,0,0,1,.449-1.974c4.095-5.493,9.353-7.514,14.8-5.7h0a8.74,8.74,0,0,1,5.386,4.633c1.836,4,.5,9.041-.938,12.568a4.584,4.584,0,0,0-.277,2.673c.823,3.988,1.131,9.374-2.078,12.4A7.689,7.689,0,0,1,177.828,82.453Zm-1.068-5.075a3.871,3.871,0,0,0,3.122-.553c1.142-1.076,1.376-4.045.611-7.748a9.582,9.582,0,0,1,.546-5.579c1.486-3.635,1.859-6.766,1.023-8.587a3.731,3.731,0,0,0-2.424-1.975h0c-3.07-1.024-5.941.02-8.547,3.1.475,2.607.843,5.285,1.094,7.979a7.3,7.3,0,0,0,1,3.079A27.357,27.357,0,0,1,176.76,77.378Z"/><path d="M78.172,82.453a7.689,7.689,0,0,1-5.484-1.989c-3.209-3.025-2.9-8.411-2.078-12.4a4.58,4.58,0,0,0-.277-2.672c-1.442-3.528-2.774-8.571-.938-12.569a8.74,8.74,0,0,1,5.386-4.633c5.47-1.822,10.738.218,14.838,5.748a2.507,2.507,0,0,1,.442,1.987A82.115,82.115,0,0,0,88.8,64.488,12.4,12.4,0,0,1,87.083,69.7h0A23.228,23.228,0,0,0,84,79.685a2.5,2.5,0,0,1-1.84,2.185A15.433,15.433,0,0,1,78.172,82.453Zm3.337-3h0Zm-2.9-26.9a7.073,7.073,0,0,0-2.246.381,3.728,3.728,0,0,0-2.424,1.975c-.836,1.821-.463,4.952,1.023,8.588a9.578,9.578,0,0,1,.546,5.578c-.765,3.7-.531,6.672.611,7.747a3.869,3.869,0,0,0,3.122.554A27.4,27.4,0,0,1,82.8,67.111h0a7.358,7.358,0,0,0,1.014-3.1c.255-2.68.631-5.346,1.12-7.942C82.97,53.731,80.85,52.555,78.608,52.555Z"/><path d="M168,256H88a2.5,2.5,0,0,1-2.36-3.322,57.889,57.889,0,0,0,2.185-28.834,21.475,21.475,0,0,0-5.914-11.221A37.805,37.805,0,0,1,106.976,148.6a37.531,37.531,0,0,1,15.513,2.388,15.526,15.526,0,0,0,11.022,0,37.822,37.822,0,0,1,51.125,32.883,37.95,37.95,0,0,1-10.548,28.756,21.479,21.479,0,0,0-5.914,11.221,57.88,57.88,0,0,0,2.186,28.834A2.5,2.5,0,0,1,168,256Zm-76.592-5h73.187a63.428,63.428,0,0,1-1.347-28,26.432,26.432,0,0,1,7.247-13.851,32.813,32.813,0,0,0-35.209-53.489,20.512,20.512,0,0,1-14.57,0,32.809,32.809,0,0,0-35.209,53.488A26.439,26.439,0,0,1,92.753,223,63.427,63.427,0,0,1,91.407,251Z"/><path d="M107,111.729a8.715,8.715,0,0,1-2.753-.454,2.5,2.5,0,0,1-1.682-2.006A25.884,25.884,0,0,1,106.428,91.1a3.756,3.756,0,0,1,3.754-1.689,3.7,3.7,0,0,1,2.993,2.746,59.727,59.727,0,0,0,4.538,12.261,2.5,2.5,0,0,1-2.162,3.649,2.985,2.985,0,0,0-2.2.825A8.81,8.81,0,0,1,107,111.729Zm2.184-15.276a20.732,20.732,0,0,0-1.87,10.255,4.229,4.229,0,0,0,2.5-1.356,7.579,7.579,0,0,1,2.1-1.491A64.278,64.278,0,0,1,109.18,96.453Z"/><path d="M149,111.729a8.81,8.81,0,0,1-6.35-2.842,2.985,2.985,0,0,0-2.2-.825,2.5,2.5,0,0,1-2.162-3.649,59.71,59.71,0,0,0,4.538-12.262,3.7,3.7,0,0,1,2.993-2.745,3.756,3.756,0,0,1,3.754,1.69,25.88,25.88,0,0,1,3.867,18.173,2.5,2.5,0,0,1-1.682,2.006A8.71,8.71,0,0,1,149,111.729Zm-4.911-7.868a7.579,7.579,0,0,1,2.1,1.491,4.231,4.231,0,0,0,2.5,1.356,20.732,20.732,0,0,0-1.87-10.255A64.278,64.278,0,0,1,144.093,103.861Z"/></svg>