<?xml version="1.0" encoding="UTF-8"?>
<svg id="_07" data-name="07" xmlns="http://www.w3.org/2000/svg" viewBox="0 0 128 128">
  <defs>
    <style>
      .cls-1 {
        fill: #00c672;
      }

      .cls-2 {
        fill: #ffd300;
      }

      .cls-3 {
        fill: #ff5fff;
      }

      .cls-4 {
        fill: #ff74ba;
      }

      .cls-5 {
        fill: #a06507;
      }

      .cls-6 {
        fill: #b6fc00;
      }

      .cls-7 {
        fill: #a3077b;
      }

      .cls-8 {
        fill: #dff2ea;
      }

      .cls-9 {
        fill: #07478c;
      }

      .cls-10 {
        fill: #0f53b7;
      }

      .cls-11 {
        fill: #53e8fc;
      }

      .cls-12 {
        fill: #4c2609;
      }

      .cls-13 {
        fill: #6128dd;
      }

      .cls-14 {
        opacity: .2;
      }
    </style>
  </defs>
  <path class="cls-4" d="M22,65c0,23,25,7,29,19l3-7c-11-14-23,6-32-12Z"/>
  <path class="cls-4" d="M51.28,100l-1-6c-17.437-5.368-28-2-19,19,11-8-11-25,20-13Z"/>
  <path class="cls-4" d="M63,95l-1,6c31-12,9,5,20,13,9-21-1.563-24.368-19-19Z"/>
  <g class="cls-14">
    <path d="M82.89,111.82c-.27,.7-.57,1.43-.89,2.18-7.74-5.63,.85-15.71-4.16-17.01,9.62-1.45,.68,8.19,5.05,14.83Z"/>
  </g>
  <path class="cls-4" d="M73,77l-2,7c16-12,31,7,37-15-14,14-23-6-35,8Z"/>
  <g class="cls-14">
    <path d="M108,69c-6,22-21,3-37,15l1.07-3.75c14.34-9.59,27.73,4.6,34.35-9.79,.52-.44,1.05-.93,1.58-1.46Z"/>
  </g>
  <path class="cls-13" d="M75,65c0,1.75-.07,3.38-.19,4.92-.12,1.5-.29,2.91-.5,4.24-.73,4.54-1.95,8.09-3.26,11.11-.73,1.69-1.49,3.22-2.21,4.65-.16,.32-.32,.63-.47,.94-1.74,3.52-3.03,6.46-3.31,11.78-.04,.74-.06,1.52-.06,2.36,0,.82-.09,1.63-.26,2.4-1.1,4.92-5.48,8.6-10.74,8.6-5.43,0-9.93-3.92-10.83-9.09-.03-.12-.05-.24-.06-.36-.07-.51-.11-1.02-.11-1.55,0-1.29,.04-2.52,.11-3.7,.31-5.5,1.32-9.78,2.56-13.32,.01-.03,.02-.07,.04-.1,.52-1.5,1.1-2.87,1.68-4.14,.59-1.31,1.2-2.51,1.77-3.66,1.1-2.19,2.05-4.08,2.72-6.32,.33-1.09,.6-2.27,.79-3.61,.22-1.49,.33-3.17,.33-5.15,0-6.08,4.92-11,11-11s11,4.92,11,11Z"/>
  <path class="cls-6" d="M74.81,69.92c-.12,1.5-.29,2.91-.5,4.24-5.85,2.58-17.14,2.45-22.43-.4,.33-1.09,.6-2.27,.79-3.61,5.73,2.54,16.72,2.46,22.14-.23Z"/>
  <path class="cls-6" d="M71.05,85.27c-.73,1.69-1.49,3.22-2.21,4.65-.16,.32-.32,.63-.47,.94-6.06,1.8-15.5,1.46-20.31-1-1.03-.53-1.85-1.16-2.39-1.88,.01-.03,.02-.07,.04-.1,.52-1.5,1.1-2.87,1.68-4.14,.62,.55,1.43,1.03,2.37,1.44,5.5,2.4,15.68,2.42,21.29,.09Z"/>
  <path class="cls-11" d="M90,43.25c0,3.77-.5,7.38-1.44,10.75-1.12,4.1-2.88,7.82-5.13,11H44.57c-2.25-3.18-4.01-6.9-5.13-11-.94-3.37-1.44-6.98-1.44-10.75,0-18.09,11.64-32.75,26-32.75s26,14.66,26,32.75Z"/>
  <path class="cls-6" d="M65.06,102.64c-.04,.74-.06,1.52-.06,2.36,0,.82-.09,1.63-.26,2.4-4.82,1.87-12.73,2.1-18.31,.67-1.19-.3-2.28-.68-3.2-1.13l-.06-.03v-.36h-.06c-.07-.51-.11-1.02-.11-1.55,0-1.29,.04-2.52,.11-3.7,.8,.54,1.8,1,2.93,1.37,5.34,1.78,13.72,1.77,19.02-.03Z"/>
  <circle class="cls-1" cx="64" cy="37.379" r="20"/>
  <path class="cls-8" d="M84,37.38c0,2.29-1.76,4.4-4.68,6.03-3.66,2.05-9.16,3.35-15.32,3.35-11.05,0-20-4.2-20-9.38s8.95-9.38,20-9.38c7.01,0,13.18,1.69,16.75,4.25,1.92,1.38,3.1,3.02,3.24,4.78,.01,.12,.01,.23,.01,.35Z"/>
  <circle class="cls-2" cx="64" cy="37.379" r="9.379" transform="translate(16.852 94.565) rotate(-80.783)"/>
  <circle class="cls-3" cx="64" cy="37.379" r="5"/>
  <circle class="cls-8" cx="67.5" cy="33.879" r="2.5"/>
  <g>
    <path class="cls-5" d="M112.088,79.5c.545,.087,.917,.6,.829,1.146-.392,2.45,1.281,4.763,3.732,5.155,.545,.087,.917,.6,.829,1.146-.087,.545-.6,.917-1.146,.829-2.45-.392-4.763,1.281-5.155,3.732-.087,.545-.6,.917-1.146,.829-.545-.087-.917-.6-.829-1.146,.393-2.45-1.281-4.763-3.732-5.155-.545-.087-.917-.6-.829-1.146,.087-.545,.6-.917,1.146-.829,2.45,.392,4.763-1.281,5.155-3.732,.087-.545,.6-.917,1.145-.829Z"/>
    <path class="cls-12" d="M110.191,92.349c-.053,0-.106-.004-.16-.013-.545-.087-.916-.6-.829-1.146,.213-1.333-.171-2.671-1.057-3.669-.367-.414-.329-1.045,.084-1.412,.413-.367,1.045-.329,1.412,.084,.463,.522,.831,1.108,1.1,1.733,.643-.728,1.441-1.305,2.334-1.687-.434-.381-.817-.822-1.138-1.312-.302-.462-.172-1.082,.29-1.384,.463-.302,1.082-.172,1.384,.29,.697,1.066,1.774,1.765,3.034,1.967,.001,0,.002,0,.004,0h0c.545,.087,.916,.6,.829,1.146-.087,.545-.592,.921-1.146,.829-2.458-.397-4.76,1.28-5.154,3.727,0,.002,0,.003,0,.004h0c-.079,.492-.503,.842-.986,.842Z"/>
  </g>
  <g>
    <path class="cls-1" d="M12.519,88.056c-1.725-1.38-2.012-3.887-.642-5.6,1.37-1.712,3.879-1.982,5.604-.601,1.725,1.38,2.012,3.887,.642,5.6-1.37,1.712-3.879,1.982-5.604,.601Z"/>
    <path class="cls-9" d="M15.023,89.932c-1.112,0-2.223-.37-3.129-1.095-1.042-.834-1.699-2.021-1.851-3.342-.152-1.324,.222-2.625,1.053-3.663,1.637-2.044,4.606-2.458,6.759-.942,.452,.318,.56,.942,.242,1.394-.318,.451-.941,.56-1.394,.242-1.292-.909-3.069-.665-4.046,.557-.495,.619-.718,1.395-.627,2.186,.091,.793,.486,1.506,1.114,2.008,.975,.781,2.341,.876,3.398,.238,.473-.286,1.087-.133,1.373,.34,.285,.473,.133,1.088-.34,1.373-.784,.473-1.668,.706-2.551,.706Z"/>
  </g>
  <g>
    <path class="cls-10" d="M100.534,113.777c-.328,0-.649-.161-.84-.457l-1.617-2.498c-.3-.464-.167-1.083,.296-1.383,.464-.301,1.083-.167,1.383,.296l1.617,2.498c.3,.464,.167,1.083-.296,1.383-.168,.109-.356,.161-.542,.161Z"/>
    <path class="cls-10" d="M96.724,107.888c-.328,0-.649-.161-.84-.457l-1.612-2.491c-.3-.464-.168-1.083,.296-1.383,.464-.301,1.083-.166,1.383,.296l1.612,2.491c.3,.464,.167,1.083-.296,1.383-.168,.109-.356,.161-.543,.161Z"/>
    <path class="cls-10" d="M93.627,112.297c-.328,0-.649-.161-.84-.457-.3-.464-.167-1.083,.296-1.383l2.499-1.617c.465-.3,1.083-.167,1.383,.296,.3,.464,.167,1.083-.296,1.383l-2.499,1.617c-.168,.109-.356,.161-.542,.161Z"/>
    <path class="cls-10" d="M99.516,108.486c-.328,0-.649-.161-.841-.457-.3-.463-.167-1.083,.297-1.383l2.491-1.611c.462-.299,1.083-.167,1.383,.297,.3,.463,.167,1.083-.297,1.383l-2.491,1.611c-.167,.108-.356,.16-.542,.16Z"/>
  </g>
  <path class="cls-2" d="M90,60v3.18c0,1.01-1.79,1.82-4,1.82H42c-2.21,0-4-.81-4-1.82v-3.18h52Z"/>
  <g>
    <path class="cls-7" d="M111,39h-16c-.552,0-1-.448-1-1s.448-1,1-1h16c.552,0,1,.448,1,1s-.448,1-1,1Z"/>
    <path class="cls-7" d="M104.98,25.54c-.265,0-.529-.105-.726-.312-.38-.401-.362-1.034,.039-1.413l9.02-8.54c.401-.379,1.033-.362,1.414,.039,.38,.401,.362,1.034-.039,1.414l-9.02,8.54c-.193,.183-.44,.274-.687,.274Z"/>
    <path class="cls-7" d="M95,35c-.265,0-.529-.105-.726-.312-.38-.401-.363-1.034,.039-1.414l5.31-5.03c.401-.379,1.034-.362,1.413,.039,.38,.401,.363,1.034-.038,1.414l-5.31,5.03c-.193,.183-.44,.274-.688,.274Z"/>
    <path class="cls-7" d="M114,61c-.247,0-.494-.091-.688-.274l-7.58-7.18c-.401-.38-.418-1.013-.039-1.414,.38-.402,1.013-.418,1.414-.039l7.58,7.18c.401,.38,.419,1.013,.039,1.414-.197,.208-.461,.312-.726,.312Z"/>
    <path class="cls-7" d="M100.99,48.68c-.247,0-.495-.091-.688-.274l-5.99-5.68c-.401-.38-.417-1.013-.038-1.414,.381-.401,1.013-.417,1.414-.038l5.99,5.68c.401,.38,.417,1.013,.038,1.414-.197,.208-.461,.312-.726,.312Z"/>
  </g>
  <g>
    <path class="cls-7" d="M32,39H16c-.552,0-1-.448-1-1s.448-1,1-1h16c.552,0,1,.448,1,1s-.448,1-1,1Z"/>
    <path class="cls-7" d="M21.73,25.27c-.247,0-.494-.091-.688-.274l-8.73-8.27c-.401-.38-.418-1.013-.039-1.414,.38-.402,1.013-.417,1.414-.039l8.73,8.27c.401,.38,.418,1.013,.039,1.414-.197,.208-.462,.312-.726,.312Z"/>
    <path class="cls-7" d="M32,35c-.247,0-.494-.091-.688-.274l-5.47-5.18c-.401-.38-.419-1.013-.039-1.414,.38-.401,1.013-.418,1.414-.039l5.47,5.18c.401,.38,.418,1.013,.039,1.414-.197,.208-.461,.312-.726,.312Z"/>
    <path class="cls-7" d="M13,61c-.265,0-.529-.105-.726-.312-.38-.401-.363-1.034,.039-1.414l7-6.63c.401-.379,1.034-.363,1.414,.039,.38,.401,.363,1.034-.039,1.414l-7,6.63c-.193,.183-.44,.274-.688,.274Z"/>
    <path class="cls-7" d="M26.47,48.24c-.265,0-.529-.105-.726-.312-.38-.401-.363-1.034,.038-1.414l5.53-5.24c.401-.379,1.035-.363,1.414,.038,.38,.401,.363,1.034-.038,1.414l-5.53,5.24c-.193,.183-.441,.274-.688,.274Z"/>
  </g>
</svg>