<?xml version="1.0" encoding="UTF-8"?>
<svg id="_11" data-name="11" xmlns="http://www.w3.org/2000/svg" xmlns:xlink="http://www.w3.org/1999/xlink" viewBox="0 0 128 128">
  <defs>
    <style>
      .cls-1 {
        fill: none;
      }

      .cls-2 {
        clip-path: url(#clippath);
      }

      .cls-3 {
        fill: #00c4f9;
      }

      .cls-4 {
        fill: #ff5fff;
      }

      .cls-5 {
        fill: #a06507;
      }

      .cls-6 {
        fill: #b6fc00;
      }

      .cls-7 {
        fill: #a3077b;
      }

      .cls-8 {
        fill: #07478c;
      }

      .cls-9 {
        fill: #0f53b7;
      }

      .cls-10 {
        fill: #6e1675;
      }

      .cls-11 {
        fill: #4c2609;
      }

      .cls-12 {
        fill: #6128dd;
      }

      .cls-13 {
        opacity: .2;
      }
    </style>
    <clipPath id="clippath">
      <path class="cls-1" d="M117,59l-6-8-13-15s-15,11-16,12-47,34-47,34l-1,16,9,17s22-4,23-5,52-51,51-51Z"/>
    </clipPath>
  </defs>
  <path class="cls-10" d="M32.023,107.125c-3.438,0-6.253-.94-8.23-2.918-4.19-4.189-3.847-12.287,.968-22.799,4.676-10.211,13.033-21.616,23.532-32.115,22.266-22.267,46.39-33.026,54.914-24.5,4.19,4.189,3.847,12.287-.968,22.799-4.676,10.211-13.033,21.616-23.532,32.115-17.101,17.102-35.299,27.418-46.684,27.418ZM95.062,23.886c-10.666,0-28.975,10.441-45.355,26.821-10.335,10.335-18.549,21.534-23.128,31.533-4.377,9.558-4.877,17.048-1.372,20.553,7.476,7.475,31.329-3.743,52.086-24.5,10.335-10.335,18.549-21.534,23.128-31.533,4.377-9.558,4.877-17.048,1.372-20.553-1.576-1.576-3.881-2.321-6.73-2.321Z"/>
  <circle class="cls-6" cx="64" cy="64" r="36"/>
  <g class="cls-13">
    <path d="M100,64c0,5.92-1.43,11.51-3.96,16.44-5.98,11.61-18.08,19.56-32.04,19.56-8.03,0-15.44-2.63-21.43-7.07,5.39,3.22,11.7,5.07,18.43,5.07,14.09,0,26.3-8.1,32.2-19.9,2.43-4.85,3.8-10.31,3.8-16.1,0-9.77-3.9-18.64-10.22-25.13l.12-.64c8,6.59,13.1,16.58,13.1,27.77Z"/>
  </g>
  <path class="cls-12" d="M104,64c0,7.01-1.81,13.6-4.98,19.33-.97-1.02-1.96-1.99-2.98-2.89-.93-.83-1.88-1.61-2.84-2.34-10.14-7.72-22.39-10.18-36.72-7.4l.52-5.7,26-8,3.78-20.13,.12-.64v-.01l.82-4.42c9.88,7.28,16.28,18.99,16.28,32.2Z"/>
  <path class="cls-12" d="M93.4,84.78c-7.95-8.63-20.18-12.18-37.3-9.93l-1.1,12.15-10.82,7.06-3.61,2.35c6.59,4.78,14.68,7.59,23.43,7.59,13.09,0,24.71-6.29,32-16.01-.81-1.14-1.67-2.21-2.6-3.21Z"/>
  <g class="cls-13">
    <path d="M104,64c0,7.01-1.81,13.6-4.98,19.33-.97-1.02-1.96-1.99-2.98-2.89-.12-.11-.25-.22-.37-.33,2.77-5.44,4.33-11.59,4.33-18.11,0-11.43-4.8-21.75-12.5-29.03l.22-1.17c9.88,7.28,16.28,18.99,16.28,32.2Z"/>
  </g>
  <g class="cls-13">
    <path d="M96,87.99c-7.29,9.72-18.91,16.01-32,16.01-7.21,0-13.97-1.91-19.81-5.25,4.85,2.09,10.19,3.25,15.81,3.25,13.76,0,25.9-6.95,33.1-17.54,.1,.1,.2,.21,.3,.32,.93,1,1.79,2.07,2.6,3.21Z"/>
  </g>
  <path class="cls-12" d="M35.93,41.45c-.112-1.701-.163-3.498-.145-5.373,.003-.271,.113-.535,.307-.724,7.205-7.025,17.06-11.353,27.908-11.353,6.386,0,12.421,1.499,17.784,4.167,.382,.19,.599,.608,.544,1.031l-.458,3.542-2.87,22.26-26,6-.59,6.77c-9.71-3.68-15.48-12.12-16.48-26.32Z"/>
  <path class="cls-12" d="M31.6,48.3c-.24-1.154-.43-2.344-.573-3.573-.112-.958-1.381-1.244-1.856-.404-3.288,5.813-5.171,12.527-5.171,19.677,0,11.127,4.546,21.199,11.895,28.452,.329,.324,.842,.376,1.235,.133l2.851-1.766,11.02-6.82,.99-11.4v-.01c-11.27-4.57-18.07-12.67-20.39-24.29Z"/>
  <circle class="cls-4" cx="102" cy="25" r="5"/>
  <g class="cls-13">
    <path d="M107,25c0,2.76-2.24,5-5,5-1.83,0-3.43-.99-4.3-2.46,.71,.3,1.49,.46,2.3,.46,3.31,0,6-2.69,6-6,.63,.83,1,1.87,1,3Z"/>
  </g>
  <circle class="cls-4" cx="23" cy="90" r="5"/>
  <g class="cls-2">
    <path class="cls-10" d="M32.023,107.125c-3.438,0-6.253-.94-8.23-2.918-4.19-4.189-3.847-12.287,.968-22.799,4.676-10.211,13.033-21.616,23.532-32.115,22.266-22.267,46.39-33.026,54.914-24.5,4.19,4.189,3.847,12.287-.968,22.799-4.676,10.211-13.033,21.616-23.532,32.115-17.101,17.102-35.299,27.418-46.684,27.418ZM95.062,23.886c-10.666,0-28.975,10.441-45.355,26.821-10.335,10.335-18.549,21.534-23.128,31.533-4.377,9.558-4.877,17.048-1.372,20.553,7.476,7.475,31.329-3.743,52.086-24.5,10.335-10.335,18.549-21.534,23.128-31.533,4.377-9.558,4.877-17.048,1.372-20.553-1.576-1.576-3.881-2.321-6.73-2.321Z"/>
  </g>
  <g>
    <path class="cls-7" d="M30.001,35c-.309,0-.614-.143-.81-.412l-5.15-7.08c-.325-.446-.226-1.071,.22-1.397s1.072-.226,1.397,.221l5.15,7.08c.325,.446,.226,1.071-.22,1.397-.178,.129-.384,.191-.587,.191Z"/>
    <path class="cls-7" d="M21.181,22.87c-.309,0-.614-.143-.81-.412l-7.18-9.87c-.325-.446-.226-1.071,.22-1.397s1.072-.227,1.397,.221l7.18,9.87c.325,.446,.226,1.071-.22,1.397-.178,.129-.384,.191-.587,.191Z"/>
    <path class="cls-7" d="M33.998,31c-.493,0-.923-.365-.99-.868l-2-15c-.073-.547,.312-1.05,.859-1.123,.547-.071,1.051,.312,1.124,.859l2,15c.073,.547-.312,1.05-.859,1.123-.045,.006-.089,.009-.134,.009Z"/>
    <path class="cls-7" d="M27.001,38c-.081,0-.162-.01-.244-.03l-16-4c-.536-.134-.861-.677-.727-1.212,.135-.537,.678-.86,1.213-.727l16,4c.536,.134,.861,.677,.727,1.212-.114,.455-.521,.758-.969,.758Z"/>
  </g>
  <g>
    <path class="cls-7" d="M103.66,105.23c-.218,0-.437-.07-.62-.216l-8.35-6.61c-.433-.343-.506-.972-.164-1.405,.343-.433,.972-.506,1.405-.163l8.35,6.61c.433,.343,.506,.972,.163,1.405-.197,.249-.49,.379-.785,.379Z"/>
    <path class="cls-7" d="M116.64,115.5c-.217,0-.436-.07-.62-.216l-8.24-6.52c-.433-.343-.506-.972-.164-1.404,.343-.434,.972-.507,1.405-.164l8.24,6.52c.433,.343,.506,.972,.164,1.404-.197,.25-.49,.38-.785,.38Z"/>
    <path class="cls-7" d="M114.378,97.394c-.057,0-.115-.005-.173-.015l-14.906-2.607c-.544-.096-.908-.613-.812-1.157,.096-.545,.61-.902,1.157-.813l14.906,2.607c.544,.096,.908,.613,.812,1.157-.085,.486-.507,.828-.984,.828Z"/>
    <path class="cls-7" d="M95.54,117.646c-.464,0-.88-.324-.978-.797l-3.348-16.149c-.112-.541,.235-1.07,.776-1.183,.536-.111,1.07,.235,1.182,.776l3.348,16.149c.112,.541-.235,1.07-.776,1.183-.068,.014-.137,.021-.204,.021Z"/>
  </g>
  <g>
    <path class="cls-5" d="M57.229,16.562c-.31-.457-.19-1.079,.268-1.389,2.055-1.391,2.595-4.194,1.205-6.249-.31-.457-.19-1.079,.268-1.389,.457-.309,1.079-.19,1.389,.268,1.391,2.055,4.194,2.595,6.249,1.205,.457-.31,1.079-.19,1.389,.268s.19,1.079-.268,1.389c-2.055,1.391-2.595,4.194-1.205,6.249,.31,.457,.19,1.079-.268,1.389-.457,.31-1.079,.19-1.389-.268-1.391-2.055-4.194-2.595-6.249-1.205-.457,.31-1.079,.19-1.389-.268Z"/>
    <path class="cls-11" d="M64.78,14.855c-.03,0-.061-.001-.092-.004-.55-.051-.955-.537-.904-1.088,.064-.692,.237-1.359,.508-1.981-.482,.017-.959-.024-1.439-.116-.483-.094-.947-.238-1.387-.431,.018,.575-.04,1.154-.178,1.723-.13,.537-.671,.869-1.207,.735-.537-.13-.866-.671-.736-1.208,.3-1.237,.072-2.502-.644-3.56h0c-.31-.459-.19-1.08,.267-1.39,.457-.31,1.079-.19,1.389,.267,.674,.996,1.695,1.671,2.875,1.899,1.178,.223,2.374-.019,3.37-.691,.001,0,.003-.002,.004-.003,.457-.309,1.079-.189,1.388,.268,.31,.458,.19,1.079-.268,1.389-.002,0-.003,.002-.005,.004-1.116,.757-1.825,1.951-1.947,3.278-.047,.519-.483,.908-.995,.908Z"/>
  </g>
  <g>
    <path class="cls-3" d="M48.011,116.796c-2.136,.562-4.321-.701-4.879-2.822-.558-2.121,.721-4.296,2.857-4.858s4.321,.701,4.879,2.822c.558,2.121-.721,4.296-2.857,4.858Z"/>
    <path class="cls-8" d="M46.987,117.929c-2.212,0-4.236-1.475-4.822-3.7-.667-2.533,.77-5.164,3.271-5.989,.524-.178,1.09,.112,1.263,.636,.173,.524-.112,1.09-.636,1.263-1.5,.495-2.363,2.068-1.964,3.581,.417,1.585,2.055,2.528,3.657,2.11,1.207-.318,2.098-1.358,2.216-2.587,.053-.55,.544-.965,1.091-.899,.55,.053,.953,.541,.9,1.091-.199,2.059-1.685,3.799-3.698,4.329-.427,.112-.856,.166-1.278,.166Z"/>
  </g>
  <g>
    <path class="cls-9" d="M16.534,53.777c-.328,0-.649-.161-.841-.457l-1.617-2.499c-.3-.464-.167-1.083,.297-1.383,.463-.299,1.083-.167,1.383,.297l1.617,2.499c.3,.464,.167,1.083-.297,1.383-.168,.108-.356,.16-.542,.16Z"/>
    <path class="cls-9" d="M12.724,47.888c-.328,0-.649-.161-.84-.457l-1.612-2.49c-.3-.463-.167-1.082,.296-1.383,.465-.3,1.083-.167,1.383,.297l1.612,2.49c.3,.463,.168,1.082-.296,1.383-.168,.108-.356,.16-.542,.16Z"/>
    <path class="cls-9" d="M9.627,52.297c-.328,0-.649-.161-.841-.457-.3-.464-.167-1.083,.297-1.383l2.499-1.616c.463-.3,1.082-.167,1.383,.297,.3,.464,.167,1.083-.297,1.383l-2.499,1.616c-.167,.108-.356,.16-.542,.16Z"/>
    <path class="cls-9" d="M15.516,48.486c-.328,0-.649-.161-.841-.457-.3-.464-.167-1.083,.297-1.383l2.491-1.611c.463-.299,1.083-.166,1.383,.297,.3,.464,.167,1.083-.297,1.383l-2.491,1.611c-.168,.108-.356,.16-.542,.16Z"/>
  </g>
</svg>