<?xml version="1.0" encoding="UTF-8"?>
<svg id="_13" data-name="13" xmlns="http://www.w3.org/2000/svg" viewBox="0 0 128 128">
  <defs>
    <style>
      .cls-1 {
        fill: #00c672;
      }

      .cls-2 {
        fill: #ffd300;
      }

      .cls-3 {
        fill: #ff5fff;
      }

      .cls-4 {
        fill: #a06507;
      }

      .cls-5 {
        fill: #b6fc00;
      }

      .cls-6 {
        fill: #a3077b;
      }

      .cls-7 {
        fill: #d86313;
      }

      .cls-8 {
        fill: #07478c;
      }

      .cls-9 {
        fill: #0f53b7;
      }

      .cls-10 {
        fill: #4c2609;
      }

      .cls-11 {
        fill: #6128dd;
      }

      .cls-12 {
        opacity: .2;
      }
    </style>
  </defs>
  <path class="cls-5" d="M27.62,82.52c-7.14,4.6-9.53,13.94-7.75,20.48,.02,.1,.05,.21,.08,.31,.49,1.68,1.53,4.03,3.67,5.69h-7.75c-.69-1.21-1.25-2.55-1.68-4-.19-.64-.35-1.31-.47-2-1.59-8.41,1.43-19.59,10.66-25.52,.5-.33,1.06-.48,1.62-.48,.98,0,1.95,.49,2.52,1.38,.9,1.39,.5,3.25-.9,4.14Z"/>
  <path class="cls-5" d="M97.73,73.76c-8.3,2.87-10.7,9.66-11.4,13.45-.3,1.63-.39,3.28-.29,4.91,.01,.29,.03,.59,.06,.88,.01,.06,.01,.11,.02,.17,.04,.34,.08,.67,.13,1,.05,.31,.1,.63,.17,.94,.04,.2,.08,.4,.13,.61l.03,.12c.06,.24,.12,.49,.19,.73,.12,.45,.26,.9,.41,1.33,.13,.38,.27,.75,.42,1.11,.08,.2,.17,.39,.26,.59,.54,1.21,1.2,2.35,1.97,3.4,.8,1.09,1.71,2.08,2.73,2.93,.95,.79,1.44,1.92,1.44,3.07h-17.63c-.2-.23-.38-.46-.57-.7-.17-.22-.35-.46-.52-.69-.18-.24-.34-.48-.51-.73-.2-.29-.39-.59-.57-.88-.22-.35-.42-.69-.62-1.05-.35-.63-.68-1.28-.99-1.95-.04-.1-.09-.19-.13-.29-.2-.45-.38-.9-.56-1.36-.36-.93-.66-1.88-.92-2.85-.13-.49-.24-.97-.35-1.47-.07-.31-.13-.62-.18-.93-.08-.43-.14-.87-.2-1.31-.04-.29-.08-.59-.1-.89-.03-.21-.04-.41-.06-.62-.2-2.48-.08-5.01,.38-7.51,1.71-9.38,7.53-16.77,24.6-19.55,8.26-1.35,15.2-12.26,13.94-17.99-.77-3.54-5.44-5.46-13.02-5.46-1.45,0-3,.07-4.65,.22-.11,.01-.23,.01-.34,.01-2.06,0-3.81-1.57-3.99-3.66-.18-2.2,1.45-4.14,3.65-4.33,1.87-.16,3.62-.23,5.24-.23,15.83,0,19.93,7.17,20.93,11.74,2.33,10.62-8.35,23.36-19.1,27.24Z"/>
  <g class="cls-12">
    <path d="M99.07,66.22c-17.07,2.78-22.89,10.17-24.6,19.55-.46,2.5-.58,5.03-.38,7.51,.02,.21,.03,.41,.06,.62,.02,.3,.06,.6,.1,.89,.06,.44,.12,.88,.2,1.31,.05,.31,.11,.62,.18,.93,.11,.5,.22,.98,.35,1.47,.26,.97,.56,1.92,.92,2.85,.18,.46,.36,.91,.56,1.36,.04,.1,.09,.19,.13,.29,.31,.67,.64,1.32,.99,1.95,.2,.36,.4,.7,.62,1.05,.18,.29,.37,.59,.57,.88,.17,.25,.33,.49,.51,.73,.17,.23,.35,.47,.52,.69,.19,.24,.37,.47,.57,.7h-4c-.2-.23-.38-.46-.57-.7-.17-.22-.35-.46-.52-.69-.18-.24-.34-.48-.51-.73-.2-.29-.39-.59-.57-.88-.22-.35-.42-.69-.62-1.05-.35-.63-.68-1.28-.99-1.95-.04-.1-.09-.19-.13-.29-.2-.45-.38-.9-.56-1.36-.36-.93-.66-1.88-.92-2.85-.13-.49-.24-.97-.35-1.47-.07-.31-.13-.62-.18-.93-.08-.43-.14-.87-.2-1.31-.04-.29-.08-.59-.1-.89-.03-.21-.04-.41-.06-.62-.2-2.48-.08-5.01,.38-7.51,1.71-9.38,7.53-16.77,24.6-19.55,8.26-1.35,15.2-12.26,13.94-17.99-.7-3.24-4.67-5.12-11.15-5.41,.73-.03,1.44-.05,2.13-.05,7.58,0,12.25,1.92,13.02,5.46,1.26,5.73-5.68,16.64-13.94,17.99Z"/>
  </g>
  <ellipse class="cls-2" cx="92" cy="39" rx="9" ry="5.625"/>
  <path class="cls-11" d="M99.997,40.487l-1.365,3.685c-3.609-1.859-2.721-5.209-7.072-6.82-4.698-1.74-6.087,2.011-10.776,.275s-3.3-5.487-7.979-7.22c-4.689-1.736-6.078,2.015-10.767,.279-4.314-1.597-3.487-4.895-6.966-6.76,1.267-2.442,3.124-4.463,5.355-5.908,2.751-1.786,6.066-2.702,9.503-2.453,8.017,.58,15.625,2.267,22.587,5.698,7.065,3.469,10.213,11.843,7.48,19.224Z"/>
  <path class="cls-11" d="M98.849,43.762l.029,.228c1.031,8.024-4.267,15.511-12.177,17.193-7.272,1.55-14.867,1.367-22.686,.154-6.839-1.047-12.141-6.525-13.022-13.379-.083-.645-.125-1.285-.126-1.92,3.947,.037,4.745,3.342,9.307,2.756,4.959-.637,4.449-4.605,9.408-5.242,4.949-.636,5.459,3.331,10.418,2.694,4.959-.637,4.449-4.605,9.418-5.244,4.602-.592,5.369,2.788,9.429,2.76Z"/>
  <g class="cls-12">
    <path d="M97.3,53.05c-2.07,4.04-5.87,7.12-10.6,8.13-7.27,1.55-14.87,1.37-22.68,.16-6.84-1.05-12.15-6.53-13.03-13.38-.08-.65-.12-1.29-.12-1.92,.96,.01,1.73,.21,2.41,.5,1.43,6.1,6.43,10.83,12.74,11.8,7.81,1.21,15.41,1.39,22.68-.16,3.48-.74,6.45-2.6,8.6-5.13Z"/>
  </g>
  <path class="cls-1" d="M105.289,34.317c-.632-2.999,.038-6.611-1.631-9.101-1.657-2.472-5.165-3.166-7.889-4.727-2.428-1.391-4.684-4.201-7.993-4.562l-.219-.024c1.506,2.633,.981,6.288,1.968,8.865,1.096,2.862,3.778,5.029,4.22,7.819,.475,3.002-1.414,6.074-1.713,8.992-.299,2.922,.924,6.315-.169,9.15-1.013,2.63-4.093,4.166-5.803,6.719-1.526,2.278-1.844,5.957-3.935,8.173l.233,.01c3.309,.361,6.117-1.897,8.788-2.732,2.996-.937,6.57-.858,8.721-2.915,2.166-2.072,2.291-5.743,3.554-8.535,1.234-2.728,3.932-5.181,4.262-8.204,.33-3.024-1.776-5.999-2.394-8.93Z"/>
  <g class="cls-12">
    <path d="M101.87,54.99c.21-.21,.41-.43,.58-.67-.58,2.11-1.11,4.26-2.58,5.67-2.15,2.05-5.73,1.97-8.72,2.91-2.67,.84-5.48,3.09-8.79,2.73l-.23-.01c1.26-1.33,1.87-3.2,2.5-4.97,3.19,.22,5.92-1.93,8.52-2.75,2.99-.94,6.57-.86,8.72-2.91Z"/>
  </g>
  <path class="cls-11" d="M58.964,71.04c-.952,.744-1.636,1.549-3.705,2.069-3.462,.866-3.887-.814-7.349,.052-3.462,.866-4.038,3.545-7.501,4.41-3.462,.866-4.804,2.025-6.405,.424-.727-2.129,1.454-2.276,4.164-4.337,2.709-2.06,4.757-1.675,7.457-3.735,2.709-2.051,1.662-3.436,4.363-5.488,1.87-1.42,2.952-1.195,4.337-1.61-4.198-3.133-10.604-3.921-16.741-1.549-8.691,3.35-13.547,11.772-10.829,18.801,2.709,7.029,11.963,10.006,20.662,6.648,7.436-2.865,12.058-9.444,11.547-15.685Z"/>
  <g class="cls-12">
    <path d="M47.42,86.72c-5.01,1.94-10.21,1.77-14.23-.07,3.44,.8,7.39,.55,11.23-.93,6.28-2.42,10.55-7.49,11.41-12.77,1.64-.52,2.27-1.24,3.13-1.91,.51,6.24-4.11,12.82-11.54,15.68Z"/>
  </g>
  <path class="cls-1" d="M41.4,88.977c-1.948-1.535-2.191-4.603-3.571-6.418-1.453-1.91-4.326-3.01-5.172-5.218-.827-2.158,.557-4.925,.287-7.357-.25-2.25-2.258-4.588-2.05-7.063,.081-.971,.774-2.51,1.535-3.944,.521-.983-.723-1.961-1.548-1.215-1.139,1.03-2.156,2.14-3.076,2.897-2.152,1.769-5.229,2.7-6.203,4.97-1.029,2.4,.475,5.346,.583,7.946,.106,2.563-1.198,5.569-.165,7.968,1.026,2.385,4.113,3.52,5.879,5.394,1.794,1.902,2.805,5.056,5.182,6.068,2.326,.99,5.201-.451,7.912-.661,1.001-.077,2.213-.049,3.471-.091,1.148-.039,1.321-1.677,.21-1.968-1.347-.353-2.622-.795-3.273-1.308Z"/>
  <g class="cls-12">
    <path d="M44.46,92.25c-1.25,.05-2.47,.02-3.47,.09-2.71,.21-5.58,1.66-7.91,.67-2.38-1.02-3.39-4.17-5.18-6.07-1.77-1.88-4.85-3.01-5.88-5.4-.27-.63-.38-1.29-.39-1.98,1.26,2.18,4.32,3.07,6.18,4.76,1.93,1.76,3.19,4.83,5.63,5.65,2.35,.79,5.04-.79,7.68-1.24,.09,.09,.18,.17,.28,.25,.65,.51,1.93,.95,3.27,1.3,1.11,.3,.94,1.93-.21,1.97Z"/>
  </g>
  <path class="cls-7" d="M122,109H7c0-1.66,.67-3.16,1.76-4.24,1.08-1.09,2.58-1.76,4.24-1.76H116c3.31,0,6,2.69,6,6Z"/>
  <g class="cls-12">
    <path d="M122,109h-9c0-3.31-2.69-6-6-6h9c3.31,0,6,2.69,6,6Z"/>
  </g>
  <g>
    <path class="cls-3" d="M115.919,43h-3.919c-.667,2.333,0,4,2,5l2.7-3.375c.524-.655,.058-1.625-.781-1.625Z"/>
    <path class="cls-3" d="M117.586,55.586l-3.586-3.586c-2,2-2.667,4-2,6l5.02-.717c.816-.117,1.148-1.114,.566-1.697Z"/>
    <path class="cls-3" d="M111.146,66.293l-2.146-4.293c-2.667,1-4,2.667-4,5l5.111,.73c.799,.114,1.397-.716,1.036-1.437Z"/>
    <path class="cls-3" d="M101.761,74.33l-.761-5.33c-3.553,.152-5.673,1.691-7,4l6.42,2.408c.711,.267,1.448-.326,1.341-1.078Z"/>
    <path class="cls-3" d="M91.829,78.594l-3.829-4.594c-2.636,1.327-3.982,3.447-3,7l6.184-.773c.785-.098,1.151-1.025,.644-1.632Z"/>
    <path class="cls-3" d="M88.481,88.132l-5.481-3.132c-2.667,2.667-2.667,5.333,0,8l5.481-3.132c.672-.384,.672-1.353,0-1.737Z"/>
    <path class="cls-3" d="M68.846,95.209c-.759,.325-.819,1.378-.102,1.787l5.256,3.004c1.206-2.533,1.461-4.908,0-7l-5.154,2.209Z"/>
    <path class="cls-3" d="M69.068,82.77c-.833,.093-1.19,1.108-.597,1.701l4.529,4.529c2.636-1.327,3.982-3.447,3-7l-6.932,.77Z"/>
    <path class="cls-3" d="M77.163,70.811c-.82-.307-1.611,.513-1.274,1.321l2.326,5.577c2.975-.511,4.88-1.843,4.785-4.709l-5.837-2.189Z"/>
  </g>
  <g>
    <path class="cls-4" d="M36.349,35.38c-.549-.06-.945-.554-.885-1.103,.271-2.467-1.515-4.694-3.981-4.965-.549-.06-.945-.554-.885-1.103,.06-.549,.554-.945,1.103-.885,2.467,.271,4.694-1.515,4.965-3.981,.06-.549,.554-.945,1.103-.885,.549,.06,.945,.554,.885,1.103-.271,2.467,1.515,4.694,3.981,4.965,.549,.06,.945,.554,.885,1.103-.06,.549-.554,.945-1.103,.885-2.467-.271-4.694,1.515-4.965,3.981-.06,.549-.554,.945-1.103,.885Z"/>
    <path class="cls-10" d="M35.424,31.539c-.309,0-.614-.143-.81-.412-.749-1.031-1.861-1.676-3.13-1.816,0,0,0,0,0,0-.549-.06-.945-.555-.885-1.104,.06-.549,.554-.942,1.103-.885h0c1.192,.134,2.371-.21,3.308-.961,.936-.751,1.524-1.821,1.656-3.016,0-.002,0-.003,0-.005h0c.061-.549,.565-.94,1.103-.885,.549,.061,.945,.555,.885,1.103h0s0,.003,0,.005c-.146,1.341,.305,2.656,1.237,3.609,.386,.395,.379,1.027-.016,1.414-.395,.386-1.028,.379-1.414-.016-.486-.497-.883-1.061-1.181-1.672-.298,.373-.639,.716-1.02,1.021-.384,.308-.795,.568-1.226,.778,.45,.358,.853,.778,1.197,1.251,.325,.447,.226,1.072-.221,1.396-.178,.129-.383,.191-.587,.191Z"/>
  </g>
  <g>
    <path class="cls-1" d="M16.042,51.639c.176-2.202,2.091-3.846,4.277-3.671,2.186,.175,3.816,2.101,3.64,4.303-.176,2.202-2.091,3.846-4.277,3.671-2.186-.175-3.816-2.101-3.64-4.303Z"/>
    <path class="cls-8" d="M18.326,56.573c-.141,0-.283-.029-.419-.092-1.877-.867-3.028-2.846-2.863-4.922,.22-2.748,2.625-4.807,5.353-4.589,2.611,.21,4.618,2.436,4.57,5.069-.01,.553-.512,.985-1.018,.981-.552-.01-.992-.466-.982-1.019,.029-1.578-1.17-2.913-2.73-3.038-1.627-.145-3.068,1.105-3.2,2.754-.099,1.245,.587,2.429,1.708,2.946,.501,.231,.72,.826,.488,1.327-.168,.366-.53,.581-.908,.581Z"/>
  </g>
  <g>
    <path class="cls-9" d="M110.534,93.777c-.328,0-.649-.161-.841-.457l-1.617-2.499c-.3-.463-.167-1.082,.297-1.383,.464-.299,1.083-.167,1.383,.297l1.617,2.499c.3,.463,.167,1.082-.297,1.383-.168,.108-.355,.16-.542,.16Z"/>
    <path class="cls-9" d="M106.724,87.888c-.328,0-.649-.161-.841-.457l-1.611-2.49c-.3-.464-.167-1.082,.297-1.383,.464-.299,1.083-.168,1.383,.297l1.611,2.49c.3,.464,.167,1.082-.297,1.383-.168,.108-.355,.16-.542,.16Z"/>
    <path class="cls-9" d="M103.626,92.297c-.328,0-.649-.161-.841-.457-.3-.464-.167-1.083,.297-1.383l2.499-1.616c.465-.301,1.083-.167,1.383,.297s.167,1.083-.297,1.383l-2.499,1.616c-.168,.108-.357,.16-.542,.16Z"/>
    <path class="cls-9" d="M109.516,88.486c-.328,0-.649-.161-.841-.457-.3-.464-.167-1.083,.297-1.383l2.491-1.611c.465-.301,1.083-.167,1.383,.297,.3,.464,.167,1.083-.297,1.383l-2.491,1.611c-.168,.108-.356,.16-.542,.16Z"/>
  </g>
  <g>
    <path class="cls-6" d="M114.279,16.04c-.222,0-.444-.073-.63-.224-.429-.349-.493-.978-.145-1.407l5.72-7.04c.35-.428,.978-.492,1.407-.145,.429,.349,.493,.979,.145,1.407l-5.72,7.04c-.198,.243-.486,.369-.777,.369Z"/>
    <path class="cls-6" d="M106.999,25c-.222,0-.444-.073-.63-.224-.429-.349-.493-.979-.145-1.407l3.9-4.8c.351-.428,.978-.492,1.407-.146,.429,.349,.493,.979,.145,1.407l-3.9,4.8c-.198,.243-.486,.369-.777,.369Z"/>
    <path class="cls-6" d="M108.999,29c-.448,0-.855-.303-.969-.758-.135-.535,.191-1.078,.727-1.212l12-3c.533-.137,1.078,.191,1.212,.727,.135,.535-.191,1.078-.727,1.212l-12,3c-.081,.021-.163,.03-.243,.03Z"/>
    <path class="cls-6" d="M103.999,22c-.512,0-.947-.391-.995-.909l-1-11c-.05-.551,.355-1.037,.905-1.087,.565-.046,1.036,.356,1.087,.905l1,11c.05,.551-.355,1.037-.905,1.087-.031,.003-.061,.004-.092,.004Z"/>
  </g>
</svg>