<?xml version="1.0" encoding="UTF-8"?>
<svg id="_08" data-name="08" xmlns="http://www.w3.org/2000/svg" viewBox="0 0 128 128">
  <defs>
    <style>
      .cls-1 {
        fill: #00c4f9;
      }

      .cls-2 {
        fill: #ed54a8;
      }

      .cls-3 {
        fill: #ffd300;
      }

      .cls-4 {
        fill: #ff809e;
      }

      .cls-5 {
        fill: #a06507;
      }

      .cls-6 {
        fill: #b6fc00;
      }

      .cls-7 {
        fill: #a3077b;
      }

      .cls-8 {
        fill: #07478c;
      }

      .cls-9 {
        fill: #0f53b7;
      }

      .cls-10 {
        fill: #893d09;
      }

      .cls-11 {
        fill: #54660a;
      }

      .cls-12 {
        fill: #4c2609;
      }

      .cls-13 {
        fill: #6128dd;
      }

      .cls-14 {
        opacity: .2;
      }
    </style>
  </defs>
  <path class="cls-6" d="M95.28,101.71c-.2,.19-.47,.29-.75,.29h-7.07c-2.85,0-4.97-2.41-4.35-4.95l5.87-24.11,2.42-9.94h15.44c.5,2.05,.85,4.44,.95,7.04,.4,9.66-2.45,22.29-12.51,31.67Z"/>
  <path class="cls-13" d="M95.81,101.2c-1.35-.92-2.1-2.51-1.7-4.15l8.29-34.05h4.44c2.33,9.53,1.24,26.33-11.03,38.2Z"/>
  <g class="cls-14">
    <path d="M107.79,70.04c-5.18,1.59-11.68,2.64-18.81,2.9l2.42-9.94h15.44c.5,2.05,.85,4.44,.95,7.04Z"/>
  </g>
  <path class="cls-6" d="M114.76,21.98c-.71,2.23-2.3,2.18-2.74,5.08-.5,3.26,1.46,3.73,.96,7-.5,3.26-2.46,2.79-2.96,6.06-.5,3.26,1.46,3.74,.96,7.01-.43,2.8-1.94,2.85-2.67,4.88l-46.31,.99c2.99-24.92,28.83-32.95,52.76-31.02Z"/>
  <g>
    <path class="cls-11" d="M93,75h-4.28c-.553,0-1-.448-1-1s.447-1,1-1h4.28c.553,0,1,.448,1,1s-.447,1-1,1Z"/>
    <path class="cls-11" d="M92,80h-4.5c-.553,0-1-.448-1-1s.447-1,1-1h4.5c.553,0,1,.448,1,1s-.447,1-1,1Z"/>
    <path class="cls-11" d="M91,85h-4.71c-.553,0-1-.448-1-1s.447-1,1-1h4.71c.553,0,1,.448,1,1s-.447,1-1,1Z"/>
    <path class="cls-11" d="M90,90h-4.93c-.553,0-1-.448-1-1s.447-1,1-1h4.93c.553,0,1,.448,1,1s-.447,1-1,1Z"/>
    <path class="cls-11" d="M89,95h-5.15c-.553,0-1-.448-1-1s.447-1,1-1h5.15c.553,0,1,.448,1,1s-.447,1-1,1Z"/>
  </g>
  <path class="cls-4" d="M69.659,46.835c6.414-16.271,27.05-18.803,36.282-19.096-.069,2.342,.563,3.961,.97,5.001,.043,.109,.091,.216,.131,.33-.015,.016-.029,.033-.044,.049-.836,.95-2.394,2.719-2.909,6.094-.494,3.217,.329,5.327,.821,6.587,.035,.092,.075,.184,.111,.278l-35.362,.756Z"/>
  <path class="cls-2" d="M34,44v25c7.18,0,13-5.596,13-12.5s-5.82-12.5-13-12.5Z"/>
  <g class="cls-14">
    <path d="M47,56.5c0,6.9-5.82,12.5-13,12.5v-4c6.47,0,11.84-4.55,12.83-10.5,.11,.65,.17,1.32,.17,2Z"/>
  </g>
  <ellipse class="cls-2" cx="85.5" cy="56.5" rx="34.5" ry="12.5"/>
  <g class="cls-14">
    <path d="M118.31,60.38c-4.51,5-17.5,8.62-32.81,8.62-19.05,0-34.5-5.6-34.5-12.5,0-2.54,2.09-4.91,5.69-6.88-1.1,1.22-1.69,2.53-1.69,3.88,0,6.9,15.45,12.5,34.5,12.5,12.04,0,22.64-2.24,28.81-5.62Z"/>
  </g>
  <ellipse class="cls-3" cx="95.5" cy="56.5" rx="16.5" ry="7.661"/>
  <rect class="cls-3" x="19" y="54" width="15" height="5"/>
  <path class="cls-10" d="M30,67c-.552,0-1-.448-1-1v-19c0-.552,.448-1,1-1s1,.448,1,1v19c0,.552-.448,1-1,1Z"/>
  <path class="cls-10" d="M25,63c-.552,0-1-.448-1-1v-11c0-.552,.448-1,1-1s1,.448,1,1v11c0,.552-.448,1-1,1Z"/>
  <circle class="cls-13" cx="63.5" cy="56.5" r="16.5"/>
  <g class="cls-14">
    <path d="M80,56.5c0,9.11-7.39,16.5-16.5,16.5-4.9,0-9.3-2.14-12.32-5.52,2.74,1.6,5.92,2.52,9.32,2.52,10.22,0,18.5-8.28,18.5-18.5,0-.24,0-.48-.01-.71,.65,1.78,1.01,3.7,1.01,5.71Z"/>
  </g>
  <circle class="cls-3" cx="63.5" cy="56.5" r="11.5"/>
  <g class="cls-14">
    <path d="M75,56.5c0,6.35-5.15,11.5-11.5,11.5-1.61,0-3.14-.33-4.53-.92,3.1-.13,6.87-1.92,10.03-5.08s4.95-6.93,5.08-10.03c.59,1.39,.92,2.92,.92,4.53Z"/>
  </g>
  <circle class="cls-13" cx="17" cy="56.5" r="4.5"/>
  <g class="cls-14">
    <path d="M21.5,56.5c0,2.49-2.01,4.5-4.5,4.5-1.93,0-3.58-1.21-4.21-2.92,.75,.58,1.69,.92,2.71,.92,2.49,0,4.5-2.01,4.5-4.5,0-.56-.1-1.09-.29-1.58,1.09,.81,1.79,2.11,1.79,3.58Z"/>
  </g>
  <g>
    <path class="cls-5" d="M75.088,98.5c.545,.087,.917,.6,.829,1.146-.392,2.45,1.281,4.763,3.732,5.155,.545,.087,.917,.6,.829,1.146-.087,.545-.6,.917-1.146,.829-2.45-.392-4.763,1.281-5.155,3.732-.087,.545-.6,.917-1.146,.829-.545-.087-.917-.6-.829-1.146,.393-2.45-1.281-4.763-3.732-5.155-.545-.087-.917-.6-.829-1.146,.087-.545,.6-.917,1.146-.829,2.45,.392,4.763-1.281,5.155-3.732,.087-.545,.6-.917,1.145-.829Z"/>
    <path class="cls-12" d="M73.19,111.349c-.053,0-.105-.004-.159-.013-.545-.087-.917-.6-.829-1.146,.214-1.334-.172-2.671-1.057-3.669-.366-.413-.329-1.045,.084-1.412,.412-.366,1.045-.33,1.412,.084,.463,.522,.832,1.108,1.1,1.733,.643-.728,1.441-1.306,2.334-1.687-.433-.381-.816-.822-1.138-1.312-.303-.462-.173-1.082,.29-1.384,.461-.303,1.082-.173,1.384,.29,.697,1.066,1.774,1.765,3.034,1.968,0,0,.002,0,.003,0h0c.545,.087,.917,.6,.829,1.146s-.603,.917-1.145,.829c-2.446-.393-4.762,1.28-5.155,3.731h0c-.079,.492-.504,.842-.986,.842Z"/>
  </g>
  <g>
    <path class="cls-1" d="M13.035,32.737c.122-2.206,1.995-3.896,4.185-3.775,2.19,.121,3.866,2.007,3.745,4.213-.122,2.206-1.996,3.896-4.185,3.775-2.19-.121-3.866-2.007-3.745-4.213Z"/>
    <path class="cls-8" d="M15.415,37.614c-.133,0-.268-.027-.397-.083-1.898-.822-3.097-2.771-2.982-4.85,.073-1.332,.658-2.557,1.645-3.448,.989-.893,2.27-1.338,3.593-1.27,2.614,.144,4.676,2.32,4.693,4.955,.003,.552-.441,1.003-.994,1.006h-.006c-.549,0-.997-.443-1-.994-.01-1.58-1.242-2.884-2.804-2.97-.792-.047-1.553,.225-2.144,.759-.593,.535-.944,1.271-.988,2.073-.069,1.247,.646,2.414,1.78,2.904,.507,.219,.74,.808,.52,1.315-.163,.378-.531,.603-.918,.603Z"/>
  </g>
  <g>
    <path class="cls-9" d="M86.534,19.777c-.328,0-.649-.161-.841-.456l-1.617-2.499c-.3-.464-.167-1.083,.297-1.383,.464-.3,1.083-.168,1.383,.296l1.617,2.499c.3,.464,.167,1.083-.297,1.383-.168,.109-.355,.161-.542,.161Z"/>
    <path class="cls-9" d="M82.724,13.888c-.328,0-.649-.161-.841-.457l-1.611-2.491c-.3-.463-.167-1.083,.297-1.383,.464-.299,1.083-.168,1.383,.297l1.611,2.491c.3,.463,.167,1.083-.297,1.383-.168,.108-.355,.16-.542,.16Z"/>
    <path class="cls-9" d="M79.626,18.297c-.328,0-.649-.161-.841-.457-.3-.463-.167-1.082,.297-1.383l2.499-1.617c.463-.299,1.082-.167,1.383,.297,.3,.463,.167,1.082-.297,1.383l-2.499,1.617c-.168,.108-.356,.16-.542,.16Z"/>
    <path class="cls-9" d="M85.516,14.486c-.328,0-.649-.161-.841-.457-.3-.463-.167-1.083,.297-1.383l2.491-1.611c.464-.301,1.083-.167,1.383,.297,.3,.463,.167,1.083-.297,1.383l-2.491,1.611c-.168,.108-.356,.16-.542,.16Z"/>
  </g>
  <g>
    <path class="cls-7" d="M51,39.001c-.402,0-.781-.244-.934-.642l-2.54-6.61c-.198-.516,.059-1.094,.575-1.292,.516-.197,1.094,.059,1.292,.575l2.54,6.61c.198,.516-.06,1.094-.575,1.293-.118,.045-.239,.067-.359,.067Z"/>
    <path class="cls-7" d="M45.74,25.32c-.401,0-.78-.244-.933-.642l-4.74-12.32c-.199-.515,.059-1.094,.574-1.292,.512-.198,1.093,.059,1.292,.574l4.74,12.32c.199,.515-.059,1.094-.574,1.292-.118,.045-.239,.067-.359,.067Z"/>
    <path class="cls-7" d="M56.001,38c-.054,0-.11-.004-.166-.014-.544-.091-.912-.606-.822-1.151l3-18c.091-.544,.601-.91,1.151-.822,.544,.091,.912,.606,.822,1.151l-3,18c-.081,.489-.505,.835-.985,.835Z"/>
    <path class="cls-7" d="M46.999,42c-.219,0-.44-.072-.624-.219l-15-12c-.432-.345-.501-.974-.156-1.405,.345-.431,.976-.501,1.405-.156l15,12c.432,.345,.502,.974,.156,1.405-.197,.247-.488,.376-.781,.376Z"/>
  </g>
  <g>
    <path class="cls-7" d="M48.45,83.63c-.12,0-.241-.022-.359-.067-.516-.198-.773-.776-.575-1.292l2.55-6.63c.199-.516,.778-.772,1.292-.574,.516,.198,.773,.776,.575,1.292l-2.55,6.63c-.153,.397-.532,.642-.934,.642Z"/>
    <path class="cls-7" d="M41,103.001c-.12,0-.241-.022-.359-.067-.516-.199-.773-.777-.574-1.292l4.549-11.83c.199-.516,.778-.771,1.292-.575,.516,.199,.773,.777,.574,1.292l-4.549,11.83c-.153,.397-.532,.642-.934,.642Z"/>
    <path class="cls-7" d="M58.999,96c-.48,0-.904-.347-.985-.835l-3-18c-.091-.545,.277-1.06,.822-1.151,.547-.091,1.06,.278,1.151,.822l3,18c.091,.545-.277,1.06-.822,1.151-.056,.009-.111,.014-.166,.014Z"/>
    <path class="cls-7" d="M32,86c-.293,0-.584-.128-.781-.376-.345-.431-.275-1.06,.156-1.405l15-12c.43-.344,1.061-.276,1.405,.156,.345,.431,.275,1.06-.156,1.405l-15,12c-.184,.147-.405,.219-.624,.219Z"/>
  </g>
</svg>