<?xml version="1.0" encoding="UTF-8"?>
<svg id="_05" data-name="05" xmlns="http://www.w3.org/2000/svg" xmlns:xlink="http://www.w3.org/1999/xlink" viewBox="0 0 128 128">
  <defs>
    <style>
      .cls-1 {
        fill: none;
      }

      .cls-2 {
        clip-path: url(#clippath);
      }

      .cls-3 {
        fill: #00c672;
      }

      .cls-4 {
        fill: #ffd300;
      }

      .cls-5 {
        fill: #ff5fff;
      }

      .cls-6 {
        fill: #a06507;
      }

      .cls-7 {
        fill: #b6fc00;
      }

      .cls-8 {
        fill: #a3077b;
      }

      .cls-9 {
        fill: #07478c;
      }

      .cls-10 {
        fill: #0f53b7;
      }

      .cls-11 {
        fill: #1b0d42;
      }

      .cls-12 {
        fill: #401799;
      }

      .cls-13 {
        fill: #9d31cb;
      }

      .cls-14 {
        fill: #6f43bc;
      }

      .cls-15 {
        fill: #542daa;
      }

      .cls-16 {
        fill: #893d09;
      }

      .cls-17 {
        fill: #4c2609;
      }

      .cls-18 {
        fill: #510b56;
      }

      .cls-19 {
        opacity: .2;
      }
    </style>
    <clipPath id="clippath">
      <path class="cls-1" d="M66.091,54.052c-14.778-16.877-16.861-30.428-14.499-32.497,2.362-2.069,48.63-24.433,63.408-7.556,14.778,16.877-16.248,56.646-18.611,58.715-2.362,2.069-15.52-1.785-30.298-18.662Z"/>
    </clipPath>
  </defs>
  <polygon class="cls-5" points="54 108 26 108 27.03 103 27.45 101 28.69 95 29.1 93 29.72 90 30.75 85 33.23 73 46.77 73 48.84 83 49.25 85 50.08 89 50.49 91 51.73 97 52.76 102 54 108"/>
  <path class="cls-3" d="M52.76,102h-10.76c-.552,0-1-.448-1-1v-3c0-.552,.448-1,1-1h9.73l1.03,5Z"/>
  <g class="cls-19">
    <polygon points="54 108 49 108 47.76 102 46.73 97 41.77 73 46.77 73 51.73 97 52.76 102 54 108"/>
  </g>
  <path class="cls-3" d="M41,86v3c0,.552-.448,1-1,1h-10.28l1.03-5h9.25c.552,0,1,.448,1,1Z"/>
  <g>
    <path class="cls-14" d="M48.298,17.794c-16.412,14.371-18.214,39.158-4.025,55.363,14.189,16.205,38.997,17.691,55.41,3.319L48.298,17.794Z"/>
    <g class="cls-19">
      <path d="M99.68,76.48c-12.65,11.08-30.29,12.73-44.21,5.48,13.71,3.52,28.95,.38,40.51-9.71l3.7,4.23Z"/>
    </g>
    <path class="cls-11" d="M40.269,54.73c-.475,0-.896-.338-.983-.822-1.371-7.573-.19-15.536,3.324-22.423,.25-.492,.851-.688,1.345-.436,.492,.251,.687,.854,.436,1.345-3.316,6.499-4.431,14.013-3.137,21.157,.098,.543-.263,1.064-.807,1.162-.06,.011-.12,.016-.179,.016Z"/>
    <ellipse class="cls-12" cx="73.991" cy="47.135" rx="15.5" ry="39" transform="translate(-12.727 60.417) rotate(-41.207)"/>
    <g class="cls-19">
      <path d="M99.68,76.48c-3.04,2.66-8.36,2.16-14.63-.83,4.33,.75,8.04,.1,10.63-2.17,4.34-3.8,4.6-11.34,1.48-20.09,5.48,10.36,6.78,19.36,2.52,23.09Z"/>
    </g>
    <path class="cls-15" d="M66.091,54.052c-14.778-16.877-16.861-30.428-14.499-32.497,2.362-2.069,15.52,1.785,30.298,18.662,14.778,16.877,16.861,30.428,14.499,32.497-2.362,2.069-15.52-1.785-30.298-18.662Z"/>
    <g class="cls-19">
      <path d="M96.39,72.71c-1.28,1.13-5.77,.5-11.98-3.03,3.75,.32,6.47-.35,7.62-1.5,1.63-1.63,2.28-6.37,.59-12.72,4.94,9.29,5.36,15.87,3.77,17.25Z"/>
    </g>
    <g class="cls-2">
      <polygon class="cls-4" points="95.71 32.1 78 53.06 69.76 62.8 57.91 49.26 63.58 45.63 91.76 27.59 95.71 32.1"/>
      <g class="cls-19">
        <path d="M78,53.06l-8.24,9.74-11.85-13.54,5.67-3.63c2.5,4.01,7.01,8.52,14.42,7.43Z"/>
      </g>
      <path class="cls-3" d="M99.049,31.584c-2.217,1.942-5.589,1.718-7.531-.499-1.942-2.217-1.718-5.589,.499-7.531s5.589-1.718,7.531,.499c1.942,2.218,1.718,5.589-.499,7.531Z"/>
      <g class="cls-19">
        <path d="M99.05,31.58c-2.22,1.95-5.59,1.72-7.53-.5-1.13-1.28-1.52-2.96-1.22-4.51,.16,.91,.57,1.77,1.22,2.51,1.94,2.22,5.31,2.45,7.53,.5,.94-.81,1.52-1.89,1.73-3.02,.34,1.8-.25,3.73-1.73,5.02Z"/>
      </g>
    </g>
  </g>
  <g>
    <path class="cls-7" d="M94.14,102.07c.18,1.88,.79,3.8,1.86,5.93h-6c-.22-.68-.39-1.34-.52-1.98-.2-.94-.32-1.84-.34-2.71,0,0-.01,0,0-.01-.07-2.09,.37-3.98,1.33-5.74,.2-.39,.43-.77,.69-1.14,1.3-1.92,3.25-3.69,5.84-5.42-1.69,3.35-2.69,6.08-2.9,8.72-.06,.79-.05,1.57,.04,2.35Z"/>
    <g class="cls-19">
      <path d="M96,108h-7c.27-.65,.43-1.31,.48-1.98,.07-.89-.05-1.79-.34-2.71,0,0-.01,0,0-.01-.07-2.09,.37-3.98,1.33-5.74,1.44,1.19,2.62,2.6,3.53,4.25,.05,.09,.09,.17,.14,.26,.91,1.72,1.54,3.69,1.86,5.93Z"/>
    </g>
    <path class="cls-7" d="M94,108h-7c.72-1.77,.65-3.58-.14-5.42-1.34-3.11-4.74-6.31-9.86-9.58,4.71,.69,8.54,2.14,11.38,4.48,1.48,1.21,2.69,2.64,3.62,4.33,.99,1.78,1.66,3.84,2,6.19Z"/>
    <g class="cls-19">
      <path d="M94,108h-4c.34-2.35,1.01-4.41,2-6.19,.99,1.78,1.66,3.84,2,6.19Z"/>
    </g>
    <path class="cls-7" d="M108,93c-9.722,1.42-15.721,6.128-17,15h7c-1.927-4.769,1.854-9.788,10-15Z"/>
  </g>
  <path class="cls-16" d="M108,109H20c-.553,0-1-.448-1-1s.447-1,1-1H108c.553,0,1,.448,1,1s-.447,1-1,1Z"/>
  <circle class="cls-4" cx="40" cy="73" r="8"/>
  <g class="cls-19">
    <path d="M48,73c0,4.42-3.58,8-8,8-3.01,0-5.63-1.66-6.99-4.12,1.34,.71,2.87,1.12,4.49,1.12,5.05,0,9.17-3.93,9.48-8.9,.65,1.15,1.02,2.48,1.02,3.9Z"/>
  </g>
  <circle class="cls-13" cx="40" cy="73" r="3"/>
  <g>
    <path class="cls-18" d="M35,102c0,.55-.45,1-1,1h-6.97l.42-2h6.55c.55,0,1,.45,1,1Z"/>
    <path class="cls-18" d="M39,94c0,.55-.45,1-1,1h-9.31l.41-2h8.9c.55,0,1,.45,1,1Z"/>
    <path class="cls-18" d="M50.49,91h-5.49c-.55,0-1-.45-1-1s.45-1,1-1h5.08l.41,2Z"/>
    <path class="cls-18" d="M49.25,85h-4.25c-.55,0-1-.45-1-1s.45-1,1-1h3.84l.41,2Z"/>
  </g>
  <g>
    <path class="cls-6" d="M103.578,39.426c.042-.551,.522-.963,1.073-.921,2.474,.188,4.64-1.672,4.828-4.146,.042-.551,.522-.963,1.073-.921,.551,.042,.963,.522,.921,1.073-.188,2.474,1.672,4.64,4.146,4.828,.551,.042,.963,.522,.921,1.073-.042,.551-.522,.963-1.073,.921-2.474-.188-4.64,1.672-4.828,4.146-.042,.551-.522,.963-1.073,.921-.551-.042-.963-.522-.921-1.073,.188-2.474-1.672-4.64-4.146-4.828-.551-.042-.963-.522-.921-1.073Z"/>
    <path class="cls-17" d="M111.176,42.999c-.248,0-.497-.092-.69-.277-.399-.381-.414-1.014-.033-1.414,.48-.503,1.031-.918,1.631-1.237-.383-.285-.736-.614-1.055-.985-.32-.373-.594-.775-.818-1.199-.344,.461-.75,.879-1.211,1.238-.437,.338-1.064,.261-1.403-.174-.339-.436-.261-1.064,.175-1.404,1.005-.783,1.612-1.916,1.709-3.189,.042-.551,.507-.964,1.073-.921,.551,.042,.963,.522,.921,1.073h0v.002c-.187,2.473,1.673,4.638,4.146,4.826,.551,.042,.963,.522,.921,1.073-.042,.551-.529,.961-1.072,.921-1.363-.105-2.649,.392-3.569,1.357-.197,.206-.46,.309-.724,.309Z"/>
  </g>
  <g>
    <path class="cls-3" d="M16.399,56.95c-.413-2.17,.999-4.262,3.154-4.671,2.154-.41,4.236,1.017,4.648,3.188,.413,2.17-.999,4.262-3.154,4.671-2.155,.41-4.236-1.017-4.648-3.188Z"/>
    <path class="cls-9" d="M19.644,61.14c-.055,0-.109-.004-.165-.014-2.041-.34-3.674-1.943-4.062-3.989-.249-1.311,.023-2.641,.768-3.743,.746-1.105,1.876-1.85,3.183-2.098,2.566-.488,5.097,1.127,5.747,3.679,.137,.535-.187,1.08-.722,1.216-.536,.137-1.08-.186-1.216-.722-.391-1.531-1.897-2.502-3.437-2.208-.778,.148-1.453,.593-1.898,1.253-.446,.662-.61,1.46-.46,2.249,.233,1.227,1.208,2.188,2.426,2.391,.545,.091,.913,.606,.822,1.151-.081,.489-.505,.835-.985,.835Z"/>
  </g>
  <g>
    <path class="cls-10" d="M18.528,90.502c-.328,0-.649-.161-.841-.457l-1.616-2.499c-.3-.463-.167-1.082,.297-1.383,.464-.299,1.083-.167,1.383,.297l1.616,2.499c.3,.463,.167,1.082-.297,1.383-.168,.108-.355,.16-.542,.16Z"/>
    <path class="cls-10" d="M14.718,84.613c-.328,0-.649-.161-.841-.457l-1.611-2.491c-.3-.463-.167-1.083,.297-1.383,.463-.299,1.082-.167,1.383,.297l1.611,2.491c.3,.463,.167,1.083-.297,1.383-.168,.108-.355,.16-.542,.16Z"/>
    <path class="cls-10" d="M11.621,89.022c-.328,0-.649-.161-.841-.457-.3-.463-.167-1.083,.297-1.383l2.499-1.617c.464-.299,1.083-.167,1.383,.297,.3,.463,.167,1.082-.297,1.383l-2.499,1.617c-.168,.108-.355,.16-.542,.16Z"/>
    <path class="cls-10" d="M17.51,85.211c-.328,0-.649-.161-.841-.457-.3-.463-.167-1.083,.297-1.383l2.491-1.611c.465-.3,1.083-.166,1.383,.297,.3,.463,.167,1.083-.297,1.383l-2.491,1.611c-.168,.108-.356,.16-.542,.16Z"/>
  </g>
  <path class="cls-8" d="M30.999,32c-.219,0-.439-.072-.624-.219l-7-5.6c-.431-.345-.501-.974-.156-1.405,.346-.43,.974-.502,1.406-.156l7,5.6c.431,.345,.501,.974,.156,1.405-.198,.247-.488,.376-.782,.376Z"/>
  <path class="cls-8" d="M18.799,22.24c-.219,0-.439-.072-.624-.219l-7.8-6.24c-.431-.345-.501-.974-.156-1.405,.347-.431,.975-.501,1.406-.156l7.8,6.24c.431,.345,.501,.974,.156,1.405-.198,.247-.488,.376-.782,.376Z"/>
  <path class="cls-8" d="M33.999,27c-.467,0-.885-.329-.98-.804l-3-15c-.108-.541,.243-1.068,.784-1.177,.547-.107,1.069,.244,1.177,.784l3,15c.108,.541-.243,1.068-.784,1.177-.066,.013-.133,.02-.197,.02Z"/>
  <path class="cls-8" d="M11.999,38c-.503,0-.937-.378-.993-.89-.061-.549,.335-1.043,.884-1.104l18-2c.554-.066,1.044,.335,1.104,.883,.061,.549-.335,1.043-.884,1.104l-18,2c-.037,.004-.075,.006-.111,.006Z"/>
</svg>