<?xml version="1.0" encoding="UTF-8"?>
<svg id="_03" data-name="03" xmlns="http://www.w3.org/2000/svg" viewBox="0 0 128 128">
  <defs>
    <style>
      .cls-1 {
        fill: #00c672;
      }

      .cls-2 {
        fill: #ffd300;
      }

      .cls-3 {
        fill: #ff5fff;
      }

      .cls-4 {
        fill: #a06507;
      }

      .cls-5 {
        fill: #a3077b;
      }

      .cls-6 {
        fill: #07478c;
      }

      .cls-7 {
        fill: #0f53b7;
      }

      .cls-8 {
        fill: #53e8fc;
      }

      .cls-9 {
        fill: #4c2609;
      }

      .cls-10 {
        fill: #6128dd;
      }

      .cls-11 {
        opacity: .2;
      }
    </style>
  </defs>
  <path class="cls-10" d="M93,53v36H35V53c0-3.57,.65-6.99,1.84-10.15,.12-.36,.26-.71,.41-1.06,.44-1.07,.96-2.12,1.53-3.12,.06-.09,.11-.18,.16-.27,5.02-8.61,14.36-14.4,25.06-14.4,8.01,0,15.26,3.24,20.51,8.49,1.76,1.76,3.29,3.74,4.55,5.91,.05,.09,.1,.18,.16,.27,.57,1,1.09,2.05,1.53,3.12,.15,.35,.29,.7,.41,1.06,1.19,3.16,1.84,6.58,1.84,10.15Z"/>
  <g class="cls-11">
    <path d="M93,53v36h-4.53V53c0-3.57-.65-6.99-1.84-10.15-.12-.36-.26-.71-.41-1.06-.44-1.07-.96-2.12-1.53-3.12-.06-.09-.11-.18-.16-.27-1.26-2.17-2.79-4.15-4.55-5.91-4.76-4.76-11.16-7.86-18.28-8.39,.76-.07,1.53-.1,2.3-.1,8.01,0,15.26,3.24,20.51,8.49,1.76,1.76,3.29,3.74,4.55,5.91,.05,.09,.1,.18,.16,.27,.57,1,1.09,2.05,1.53,3.12,.15,.35,.29,.7,.41,1.06,1.19,3.16,1.84,6.58,1.84,10.15Z"/>
  </g>
  <g>
    <circle class="cls-2" cx="64" cy="43" r="12"/>
    <circle class="cls-8" cx="64" cy="43" r="7"/>
  </g>
  <g>
    <path class="cls-2" d="M46,49c0,4.28-2.44,7.98-6,9.8-1.5,.77-3.2,1.2-5,1.2v-7c0-3.57,.65-6.99,1.84-10.15,.12-.36,.26-.71,.41-1.06,.44-1.07,.96-2.12,1.53-3.12,1.43,.52,2.72,1.33,3.79,2.36,2.11,1.99,3.43,4.83,3.43,7.97Z"/>
    <path class="cls-8" d="M41.42,49c0,3.54-2.88,6.42-6.42,6.42v-2.42c0-3.57,.65-6.99,1.84-10.15,2.65,.79,4.58,3.25,4.58,6.15Z"/>
  </g>
  <path class="cls-3" d="M64,64c-24.3,0-44,8.73-44,19.5,0,.54,.05,1.07,.16,1.61v.01H107.84v-.01c.11-.54,.16-1.07,.16-1.61,0-10.77-19.7-19.5-44-19.5Z"/>
  <path class="cls-3" d="M64,64c-24.3,0-44,8.73-44,19.5,0,.54,.05,1.07,.16,1.61v.01H107.84v-.01c.11-.54,.16-1.07,.16-1.61,0-10.77-19.7-19.5-44-19.5Z"/>
  <path class="cls-1" d="M108,86.5c0,1.56-.58,3.07-1.66,4.5-.95,1.26-2.28,2.46-3.96,3.57-7.54,5.03-21.9,8.43-38.38,8.43s-30.84-3.4-38.38-8.43c-1.68-1.11-3.01-2.31-3.96-3.57-1.08-1.43-1.66-2.94-1.66-4.5,0-9.11,19.7-16.5,44-16.5s44,7.39,44,16.5Z"/>
  <g class="cls-11">
    <path d="M108,86.5c0,1.56-.58,3.07-1.66,4.5-.95,1.26-2.28,2.46-3.96,3.57-7.54,5.03-21.9,8.43-38.38,8.43-.84,0-1.68-.01-2.5-.03,15.43-.32,28.72-3.63,35.88-8.4,1.68-1.11,3.01-2.31,3.96-3.57,1.08-1.43,1.66-2.94,1.66-4.5,0-8.8-18.36-15.99-41.5-16.47,.83-.02,1.66-.03,2.5-.03,24.3,0,44,7.39,44,16.5Z"/>
  </g>
  <path class="cls-10" d="M102.38,94.57c-7.54,5.03-21.9,8.43-38.38,8.43s-30.84-3.4-38.38-8.43c3.26-7.71,19.2-13.57,38.38-13.57s35.12,5.86,38.38,13.57Z"/>
  <g class="cls-11">
    <path d="M102.38,94.57c-7.54,5.03-21.9,8.43-38.38,8.43-.84,0-1.68-.01-2.5-.03,15.43-.32,28.72-3.63,35.88-8.4,1.3-.86,2.38-1.77,3.25-2.72,.77,.88,1.35,1.78,1.75,2.72Z"/>
  </g>
  <path d="M64,104c-.526,0-1.043,0-1.559-.01-.552-.011-.991-.467-.981-1.019,.011-.553,.495-.992,1.019-.981,.51,.01,.985-.013,1.54,.01,.507,0,1.004,0,1.501-.01l1.519-.03c.564,.005,1.01,.428,1.02,.98,.011,.552-.428,1.009-.979,1.02l-1.52,.03c-.517,.01-1.034,.01-1.56,.01Z"/>
  <g>
    <circle class="cls-2" cx="64" cy="75" r="2"/>
    <circle class="cls-2" cx="80" cy="76" r="2"/>
    <circle class="cls-2" cx="94" cy="80" r="2"/>
    <circle class="cls-2" cx="102" cy="86" r="2"/>
    <circle class="cls-2" cx="48" cy="76" r="2"/>
    <circle class="cls-2" cx="35" cy="79" r="2"/>
    <circle class="cls-2" cx="26" cy="86" r="2"/>
  </g>
  <path class="cls-2" d="M90,99.183c0,.679-.343,1.337-.981,1.959-.561,.549-1.347,1.071-2.34,1.554-4.455,2.19-12.941,3.67-22.679,3.67s-18.224-1.48-22.679-3.67c-.993-.483-1.779-1.006-2.34-1.554-.638-.623-.981-1.28-.981-1.959,0-3.966,11.641-7.183,26-7.183s26,3.217,26,7.183Z"/>
  <g class="cls-11">
    <path d="M90,99.18c0,.68-.34,1.34-.98,1.96-.56,.55-1.35,1.07-2.34,1.56-4.46,2.19-12.94,3.67-22.68,3.67s-18.22-1.48-22.68-3.67c-.94-.47-1.71-.96-2.26-1.49,5.99,1.14,12.76,1.79,19.94,1.79,11.99,0,22.85-1.8,30.79-4.72,.14,.29,.21,.59,.21,.9Z"/>
  </g>
  <g>
    <path class="cls-2" d="M93,53v7c-1.62,0-3.15-.35-4.53-.97-3.82-1.73-6.47-5.57-6.47-10.03,0-3.3,1.45-6.26,3.75-8.28,1.01-.88,2.18-1.58,3.47-2.05,.57,1,1.09,2.05,1.53,3.12,.15,.35,.29,.7,.41,1.06,1.19,3.16,1.84,6.58,1.84,10.15Z"/>
    <path class="cls-8" d="M93,53v2.42c-3.54,0-6.42-2.88-6.42-6.42,0-2.9,1.93-5.36,4.58-6.15,1.19,3.16,1.84,6.58,1.84,10.15Z"/>
    <g class="cls-11">
      <path d="M93,53v7c-1.62,0-3.15-.35-4.53-.97v-6.03c0-3.57-.65-6.99-1.84-10.15-.12-.36-.26-.71-.41-1.06-.15-.36-.3-.72-.47-1.07,1.01-.88,2.18-1.58,3.47-2.05,.57,1,1.09,2.05,1.53,3.12,.15,.35,.29,.7,.41,1.06,1.19,3.16,1.84,6.58,1.84,10.15Z"/>
    </g>
  </g>
  <g>
    <path class="cls-4" d="M105.798,63.661c-.148-.532,.163-1.083,.695-1.231,2.391-.665,3.794-3.151,3.129-5.542-.148-.532,.163-1.083,.695-1.231,.532-.148,1.083,.163,1.231,.695,.665,2.391,3.151,3.794,5.542,3.129,.532-.148,1.083,.163,1.231,.695s-.163,1.083-.695,1.231c-2.391,.665-3.794,3.151-3.129,5.542,.148,.532-.163,1.083-.695,1.231-.532,.148-1.083-.163-1.231-.695-.665-2.391-3.151-3.794-5.542-3.129-.532,.148-1.083-.163-1.231-.695Z"/>
    <path class="cls-9" d="M113.815,64.496c-.135,0-.271-.028-.402-.085-.506-.223-.734-.814-.512-1.319,.281-.638,.66-1.217,1.116-1.721-.93-.28-1.787-.766-2.507-1.418-.165,.553-.406,1.086-.718,1.582-.294,.468-.911,.609-1.379,.314-.468-.294-.608-.912-.314-1.379,.679-1.077,.864-2.347,.523-3.577,0-.002,0-.003,0-.004h0c-.147-.532,.164-1.084,.695-1.231,.532-.146,1.083,.163,1.231,.695h0s0,.003,0,.004c.667,2.389,3.155,3.79,5.54,3.126h0c.525-.148,1.083,.164,1.231,.695,.147,.532-.164,1.083-.695,1.231-.002,0-.004,.001-.005,.002-1.299,.362-2.353,1.27-2.891,2.49-.165,.374-.531,.596-.916,.597Z"/>
  </g>
  <g>
    <path class="cls-1" d="M12.029,60.011c-.031-2.209,1.721-4.025,3.914-4.055s3.996,1.735,4.027,3.944c.031,2.209-1.721,4.025-3.914,4.055s-3.996-1.735-4.027-3.944Z"/>
    <path class="cls-6" d="M14.673,64.715c-.11,0-.223-.019-.333-.058-1.951-.688-3.281-2.549-3.311-4.632-.038-2.757,2.16-5.031,4.9-5.07,.023,0,.047,0,.07,0,2.588,0,4.757,2.016,4.954,4.619,.042,.551-.371,1.031-.921,1.073-.56,.041-1.031-.371-1.073-.921-.118-1.561-1.415-2.77-2.961-2.77-.014,0-.027,0-.041,0-1.638,.023-2.952,1.387-2.929,3.041,.018,1.249,.812,2.363,1.976,2.774,.521,.184,.794,.755,.61,1.275-.144,.411-.531,.668-.943,.668Z"/>
  </g>
  <g>
    <path class="cls-7" d="M47.534,119.777c-.328,0-.649-.161-.84-.457l-1.617-2.498c-.3-.464-.167-1.083,.296-1.383,.464-.301,1.083-.167,1.383,.296l1.617,2.498c.3,.464,.167,1.083-.296,1.383-.168,.109-.356,.161-.542,.161Z"/>
    <path class="cls-7" d="M43.724,113.888c-.328,0-.649-.161-.84-.457l-1.612-2.491c-.3-.464-.167-1.083,.296-1.383,.464-.301,1.082-.167,1.383,.296l1.612,2.491c.3,.464,.167,1.083-.296,1.383-.168,.109-.356,.161-.542,.161Z"/>
    <path class="cls-7" d="M40.626,118.297c-.328,0-.649-.161-.84-.457-.3-.464-.167-1.083,.296-1.383l2.499-1.617c.464-.301,1.082-.167,1.383,.296,.3,.464,.167,1.083-.296,1.383l-2.499,1.617c-.168,.109-.356,.161-.542,.161Z"/>
    <path class="cls-7" d="M46.516,114.486c-.328,0-.649-.161-.841-.457-.3-.463-.167-1.083,.297-1.383l2.491-1.611c.462-.299,1.083-.167,1.383,.297,.3,.463,.167,1.083-.297,1.383l-2.491,1.611c-.167,.108-.356,.16-.542,.16Z"/>
  </g>
  <g>
    <path class="cls-5" d="M105.869,24.96c-.225,0-.452-.076-.639-.231-.425-.354-.482-.984-.129-1.409l9.13-10.96c.354-.424,.983-.482,1.408-.129,.425,.354,.482,.984,.129,1.409l-9.13,10.96c-.198,.237-.482,.36-.77,.36Z"/>
    <path class="cls-5" d="M94.999,38c-.226,0-.452-.076-.64-.232-.424-.354-.481-.984-.128-1.408l5.85-7.02c.354-.424,.983-.482,1.409-.128,.424,.354,.481,.984,.128,1.408l-5.85,7.02c-.198,.237-.482,.36-.77,.36Z"/>
    <path class="cls-5" d="M97.999,41c-.506,0-.939-.382-.993-.895-.059-.549,.34-1.041,.89-1.099l19-2c.536-.056,1.041,.341,1.099,.89,.059,.549-.34,1.041-.89,1.099l-19,2c-.035,.003-.07,.005-.105,.005Z"/>
    <path class="cls-5" d="M91,34c-.553,0-1-.448-1-1V16c0-.552,.447-1,1-1s1,.448,1,1v17c0,.552-.447,1-1,1Z"/>
  </g>
  <g>
    <path class="cls-5" d="M22.07,24.88c-.287,0-.571-.123-.768-.36L12.232,13.64c-.353-.424-.296-1.055,.128-1.408,.424-.354,1.055-.297,1.408,.128l9.07,10.88c.353,.424,.296,1.055-.128,1.408-.187,.156-.414,.232-.64,.232Z"/>
    <path class="cls-5" d="M33,38c-.287,0-.571-.123-.769-.36l-5.8-6.96c-.353-.424-.296-1.055,.128-1.408,.424-.355,1.055-.297,1.408,.128l5.8,6.96c.353,.424,.296,1.055-.128,1.408-.187,.156-.414,.232-.64,.232Z"/>
    <path class="cls-5" d="M30.001,41c-.035,0-.07-.002-.106-.005l-19-2c-.549-.058-.948-.55-.89-1.099,.058-.549,.54-.944,1.099-.89l19,2c.549,.058,.948,.55,.89,1.099-.054,.514-.488,.895-.994,.895Z"/>
    <path class="cls-5" d="M37,34c-.552,0-1-.448-1-1V16c0-.552,.448-1,1-1s1,.448,1,1v17c0,.552-.448,1-1,1Z"/>
  </g>
</svg>