<?xml version="1.0" encoding="UTF-8"?>
<svg id="_10" data-name="10" xmlns="http://www.w3.org/2000/svg" viewBox="0 0 128 128">
  <defs>
    <style>
      .cls-1 {
        fill: #00c4f9;
      }

      .cls-2 {
        fill: #ed54a8;
      }

      .cls-3 {
        fill: #fff;
      }

      .cls-4 {
        fill: #ffd300;
      }

      .cls-5 {
        fill: #ff5fff;
      }

      .cls-6 {
        fill: #a06507;
      }

      .cls-7 {
        fill: #a3077b;
      }

      .cls-8 {
        fill: #07478c;
      }

      .cls-9 {
        fill: #0f53b7;
      }

      .cls-10 {
        fill: #0d3463;
      }

      .cls-11 {
        fill: #893d09;
      }

      .cls-12 {
        fill: #6e1675;
      }

      .cls-13 {
        fill: #53e8fc;
      }

      .cls-14 {
        fill: #4c2609;
      }

      .cls-15 {
        fill: #6128dd;
      }

      .cls-16 {
        opacity: .2;
      }
    </style>
  </defs>
  <polygon class="cls-4" points="101 47 83 47 73.57 80 110.43 80 101 47"/>
  <rect class="cls-15" x="27" y="87" width="38" height="21"/>
  <g class="cls-16">
    <rect x="61" y="87" width="4" height="21"/>
  </g>
  <path class="cls-13" d="M65,91v13h-19c-.552,0-1-.448-1-1v-11c0-.552,.448-1,1-1h19Z"/>
  <g>
    <polygon class="cls-3" points="53.02 91 47.77 104 45.62 104 50.87 91 53.02 91"/>
    <polygon class="cls-3" points="55.17 91 49.92 104 48.85 104 54.1 91 55.17 91"/>
  </g>
  <g class="cls-16">
    <rect x="61" y="91" width="4" height="13"/>
  </g>
  <rect class="cls-15" x="27" y="69" width="38" height="14"/>
  <g class="cls-16">
    <rect x="61" y="69" width="4" height="14"/>
  </g>
  <rect class="cls-2" x="24" y="83" width="44" height="4" rx="1" ry="1"/>
  <g class="cls-16">
    <path d="M68,84v2c0,.55-.45,1-1,1h-6v-4h6c.55,0,1,.45,1,1Z"/>
  </g>
  <path class="cls-4" d="M46,54l14.709,5.5,9.587,3.585c1.166,.436,.799,1.915-.474,1.915H22.178c-1.273,0-1.639-1.48-.474-1.915l9.587-3.585,14.709-5.5Z"/>
  <path class="cls-4" d="M32,91h8c.552,0,1,.448,1,1v16h-10v-16c0-.552,.448-1,1-1Z"/>
  <path class="cls-13" d="M61,72.95v6.05c0,.55-.45,1-1,1h-28c-.33,0-.62-.16-.8-.4-.12-.17-.2-.38-.2-.6v-6c0-.55,.45-1,1-1h28c.1,0,.2,.02,.29,.05,.39,.11,.69,.47,.71,.9Z"/>
  <g>
    <path class="cls-3" d="M36.42,72l-3.23,8h-1.19c-.33,0-.62-.16-.8-.4l3.07-7.6h2.15Z"/>
    <polygon class="cls-3" points="38.57 72 35.34 80 34.27 80 37.5 72 38.57 72"/>
  </g>
  <g>
    <polygon class="cls-3" points="59.23 72 56 80 53.85 80 57.08 72 59.23 72"/>
    <path class="cls-3" d="M61,72.95l-2.85,7.05h-1.07l3.21-7.95c.39,.11,.69,.47,.71,.9Z"/>
  </g>
  <g>
    <polygon class="cls-3" points="47.83 72 44.6 80 42.45 80 45.67 72 47.83 72"/>
    <polygon class="cls-3" points="49.98 72 46.75 80 45.68 80 48.91 72 49.98 72"/>
  </g>
  <path class="cls-10" d="M50,72v8h2v-8h-2Zm-10,8h2v-8h-2v8Z"/>
  <g>
    <path class="cls-13" d="M102.5,35.5c0,5.8-4.7,10.5-10.5,10.5-2.42,0-4.65-.82-6.42-2.2-.28-.21-.54-.44-.79-.68-.27-.24-.53-.51-.76-.8-.52-.6-.98-1.27-1.35-1.99-.75-1.44-1.18-3.09-1.18-4.83,0-4.62,2.99-8.55,7.14-9.95,.75-.25,1.54-.42,2.36-.51,.33-.02,.66-.04,1-.04h.1c.35,0,.7,.02,1.04,.06,5.27,.57,9.36,5.03,9.36,10.44Z"/>
    <g>
      <path class="cls-3" d="M91,25.04l-6.97,17.28c-.52-.6-.98-1.27-1.35-1.99l5.96-14.78c.75-.25,1.54-.42,2.36-.51Z"/>
      <path class="cls-3" d="M93.14,25.06l-7.56,18.74c-.28-.21-.54-.44-.79-.68l7.31-18.12c.35,0,.7,.02,1.04,.06Z"/>
    </g>
    <g class="cls-16">
      <path d="M102.5,35.5c0,5.8-4.7,10.5-10.5,10.5-.42,0-.84-.03-1.25-.07,5.21-.62,9.25-5.05,9.25-10.43s-4.04-9.81-9.25-10.43c.41-.04,.83-.07,1.25-.07,5.8,0,10.5,4.7,10.5,10.5Z"/>
    </g>
    <path class="cls-4" d="M82,43c0,5.523,4.477,10,10,10s10-4.477,10-10h-20Z"/>
    <path class="cls-15" d="M110.325,47.378c-12.216,2.163-24.433,2.163-36.649,0-1.312-.232-2.489-.873-3.346-1.782l-2.741-2.91c-.601-.638-.149-1.686,.728-1.686h47.368c.877,0,1.329,1.048,.728,1.686l-2.741,2.91c-.857,.909-2.034,1.55-3.346,1.782Z"/>
    <g class="cls-16">
      <path d="M116.41,42.69l-2.74,2.91c-.86,.91-2.03,1.55-3.35,1.78-7.1,1.26-14.21,1.78-21.32,1.57,5.11-.14,10.22-.67,15.32-1.57,1.32-.23,2.49-.87,3.35-1.78l2.74-2.91c.6-.64,.15-1.69-.73-1.69h6c.88,0,1.33,1.05,.73,1.69Z"/>
    </g>
    <path class="cls-5" d="M103.74,36h-23.481c-1.449,0-2.784,.56-3.491,1.463l-2.768,3.537h36l-2.768-3.537c-.707-.903-2.043-1.463-3.491-1.463Z"/>
    <g class="cls-16">
      <path d="M110,41h-5l-2.77-3.54c-.71-.9-2.04-1.46-3.49-1.46h5c1.45,0,2.78,.56,3.49,1.46l2.77,3.54Z"/>
    </g>
  </g>
  <path class="cls-2" d="M68,65v3c0,.55-.45,1-1,1H25c-.55,0-1-.45-1-1v-3h44Z"/>
  <g class="cls-16">
    <path d="M68,65v3c0,.55-.45,1-1,1h-6v-4h7Z"/>
  </g>
  <g>
    <circle class="cls-5" cx="92" cy="70" r="3"/>
    <path class="cls-12" d="M92,74c-2.206,0-4-1.794-4-4s1.794-4,4-4,4,1.794,4,4-1.794,4-4,4Zm0-6c-1.103,0-2,.897-2,2s.897,2,2,2,2-.897,2-2-.898-2-2-2Z"/>
    <path class="cls-12" d="M92,82.46c-.553,0-1-.448-1-1v-8.46c0-.552,.447-1,1-1s1,.448,1,1v8.46c0,.552-.447,1-1,1Z"/>
    <path class="cls-12" d="M96.001,89c-.337,0-.666-.17-.855-.478l-3.146-5.149-3.147,5.149c-.288,.471-.902,.619-1.375,.331-.472-.288-.62-.903-.332-1.374l4-6.545c.363-.595,1.344-.595,1.707,0l4,6.545c.288,.471,.14,1.087-.332,1.374-.163,.1-.343,.147-.52,.147Z"/>
    <path class="cls-12" d="M96.999,81c-.2,0-.401-.06-.577-.184l-4.422-3.135-4.422,3.135c-.45,.32-1.075,.213-1.393-.238-.319-.45-.214-1.075,.237-1.394l5-3.545c.346-.245,.81-.245,1.156,0l5,3.545c.451,.319,.557,.944,.237,1.394-.194,.275-.503,.422-.816,.422Z"/>
  </g>
  <g>
    <path class="cls-6" d="M16.492,52.226c-.536-.133-.862-.676-.729-1.212,.599-2.408-.873-4.854-3.281-5.453-.536-.133-.862-.676-.729-1.212,.133-.536,.676-.862,1.212-.729,2.408,.599,4.854-.873,5.453-3.281,.133-.536,.676-.862,1.212-.729,.536,.133,.862,.676,.729,1.212-.599,2.408,.873,4.854,3.281,5.453,.536,.133,.862,.676,.729,1.212-.133,.536-.676,.862-1.212,.729-2.408-.599-4.854,.873-5.453,3.281-.133,.536-.676,.863-1.212,.729Z"/>
    <path class="cls-14" d="M16.222,48.306c-.356,0-.7-.19-.881-.526-.605-1.122-1.62-1.91-2.859-2.217h0c-.536-.133-.862-.676-.729-1.212,.133-.537,.675-.862,1.212-.729h0c1.167,.291,2.377,.11,3.406-.51,1.029-.619,1.756-1.604,2.046-2.771,.134-.537,.676-.862,1.212-.729,.536,.133,.862,.676,.729,1.212h0s0,.002,0,.004c-.324,1.31-.054,2.674,.743,3.742,.33,.443,.239,1.069-.204,1.4-.442,.33-1.069,.24-1.399-.204-.416-.558-.733-1.17-.947-1.814-.345,.329-.728,.623-1.147,.875-.421,.253-.863,.456-1.318,.607,.397,.416,.741,.885,1.018,1.4,.263,.486,.081,1.092-.405,1.354-.151,.081-.313,.12-.474,.12Z"/>
  </g>
  <g>
    <path class="cls-1" d="M86,96.911c.722,2.088-.372,4.362-2.444,5.079-2.073,.717-4.338-.394-5.061-2.481-.722-2.088,.372-4.361,2.444-5.079,2.072-.717,4.338,.394,5.061,2.481Z"/>
    <path class="cls-8" d="M82.272,103.206c-1.958,0-3.813-1.171-4.609-3.08-.213-.51,.028-1.095,.538-1.308,.509-.212,1.095,.027,1.308,.538,.607,1.459,2.243,2.199,3.72,1.688,.749-.259,1.352-.797,1.696-1.514,.347-.719,.393-1.534,.13-2.292-.408-1.18-1.512-1.989-2.747-2.014-.552-.011-.99-.468-.979-1.02,.012-.552,.49-.96,1.02-.98,2.068,.042,3.915,1.392,4.597,3.36,.436,1.261,.358,2.616-.218,3.814-.578,1.201-1.589,2.102-2.845,2.536-.531,.184-1.075,.272-1.61,.272Z"/>
  </g>
  <g>
    <path class="cls-9" d="M50.534,47.777c-.328,0-.649-.161-.841-.456l-1.617-2.499c-.3-.464-.167-1.083,.297-1.383,.464-.3,1.083-.167,1.383,.296l1.617,2.499c.3,.464,.167,1.083-.297,1.383-.168,.109-.355,.161-.542,.161Z"/>
    <path class="cls-9" d="M46.724,41.888c-.328,0-.649-.161-.841-.457l-1.611-2.491c-.3-.463-.167-1.083,.297-1.383,.464-.299,1.083-.167,1.383,.297l1.611,2.491c.3,.463,.167,1.083-.297,1.383-.168,.108-.355,.16-.542,.16Z"/>
    <path class="cls-9" d="M43.626,46.297c-.328,0-.649-.161-.841-.457-.3-.463-.167-1.082,.297-1.383l2.499-1.617c.463-.299,1.082-.167,1.383,.297,.3,.463,.167,1.082-.297,1.383l-2.499,1.617c-.168,.108-.356,.16-.542,.16Z"/>
    <path class="cls-9" d="M49.516,42.486c-.328,0-.649-.161-.841-.457-.3-.463-.167-1.083,.297-1.383l2.491-1.611c.465-.3,1.083-.167,1.383,.297,.3,.463,.167,1.083-.297,1.383l-2.491,1.611c-.168,.108-.356,.16-.542,.16Z"/>
  </g>
  <g>
    <path class="cls-7" d="M75.31,26c-.291,0-.58-.127-.777-.37l-4.3-5.3c-.349-.429-.282-1.059,.146-1.406,.43-.349,1.059-.282,1.406,.147l4.3,5.3c.349,.429,.282,1.059-.146,1.406-.186,.15-.408,.224-.629,.224Z"/>
    <path class="cls-7" d="M67.77,16.72c-.291,0-.579-.126-.777-.37l-5.46-6.72c-.348-.428-.283-1.058,.145-1.407,.43-.349,1.059-.282,1.407,.146l5.46,6.72c.348,.428,.283,1.058-.145,1.407-.186,.15-.409,.224-.63,.224Z"/>
    <path class="cls-7" d="M79.308,24c-.518,0-.956-.399-.996-.923l-1-13c-.042-.551,.37-1.031,.92-1.074,.567-.043,1.032,.371,1.074,.92l1,13c.042,.551-.37,1.031-.92,1.074-.026,.002-.053,.003-.078,.003Z"/>
    <path class="cls-7" d="M73.31,29c-.051,0-.102-.004-.153-.012l-13-2c-.546-.084-.92-.594-.836-1.14s.593-.919,1.141-.836l13,2c.546,.084,.92,.594,.836,1.14-.076,.495-.502,.848-.987,.848Z"/>
  </g>
  <g>
    <path class="cls-7" d="M106.999,27c-.221,0-.444-.073-.63-.224-.429-.348-.493-.978-.145-1.407l4.28-5.27c.35-.428,.977-.495,1.407-.146,.429,.348,.493,.978,.145,1.407l-4.28,5.27c-.197,.243-.486,.37-.777,.37Z"/>
    <path class="cls-7" d="M114.909,17.26c-.222,0-.444-.073-.63-.224-.429-.349-.493-.978-.145-1.407l5.09-6.26c.35-.428,.979-.493,1.407-.145,.429,.349,.493,.978,.145,1.407l-5.09,6.26c-.198,.243-.486,.369-.777,.369Z"/>
    <path class="cls-7" d="M103.001,25c-.025,0-.052-.001-.078-.003-.55-.042-.962-.523-.92-1.074l1-13c.042-.55,.51-.962,1.074-.92,.55,.042,.962,.523,.92,1.074l-1,13c-.04,.524-.478,.923-.996,.923Z"/>
    <path class="cls-7" d="M108.999,30c-.485,0-.911-.354-.987-.848-.084-.546,.29-1.056,.836-1.14l13-2c.554-.083,1.057,.291,1.141,.836,.084,.546-.29,1.056-.836,1.14l-13,2c-.052,.008-.103,.012-.153,.012Z"/>
  </g>
  <path class="cls-11" d="M107,109h-23.43c-.553,0-1-.448-1-1s.447-1,1-1h23.43c.553,0,1,.448,1,1s-.447,1-1,1Z"/>
  <path class="cls-11" d="M74.6,109H20c-.553,0-1-.448-1-1s.447-1,1-1h54.6c.553,0,1,.448,1,1s-.447,1-1,1Z"/>
</svg>