<?xml version="1.0" encoding="UTF-8"?>
<svg id="_17" data-name="17" xmlns="http://www.w3.org/2000/svg" viewBox="0 0 128 128">
  <defs>
    <style>
      .cls-1 {
        fill: #f7eec9;
      }

      .cls-2 {
        fill: #00c4f9;
      }

      .cls-3 {
        fill: #ffd300;
      }

      .cls-4 {
        fill: #ff5fff;
      }

      .cls-5 {
        fill: #a06507;
      }

      .cls-6 {
        fill: #b6fc00;
      }

      .cls-7 {
        fill: #a3077b;
      }

      .cls-8 {
        fill: #07478c;
      }

      .cls-9 {
        fill: #0f53b7;
      }

      .cls-10 {
        fill: #893d09;
      }

      .cls-11 {
        fill: #4c2609;
      }

      .cls-12 {
        fill: #6128dd;
      }

      .cls-13 {
        opacity: .2;
      }
    </style>
  </defs>
  <path class="cls-12" d="M83,86h-13c2,23,35.835,29.742,46,12-21.309,8.856-31,0-33-12Z"/>
  <g class="cls-13">
    <path d="M110.43,100c-19.52,7.13-28.51-1.49-30.43-13h-9.88c-.05-.33-.09-.66-.12-1h13c1.82,10.9,9.98,19.21,27.43,14Z"/>
  </g>
  <path class="cls-12" d="M46,86c-3,13-17,18-27,11,7,13,27.954,14.287,40-11h-13Z"/>
  <path class="cls-12" d="M66,86c0,6.76-1.75,11.34-4.34,14.49-4.31,5.23-10.92,6.55-15.66,7.51,18-15,5-13,10-22h10Z"/>
  <g class="cls-13">
    <path d="M66,86c0,6.76-1.75,11.34-4.34,14.49-1.85-4-2.43-8.84-2.66-14.49h7Z"/>
  </g>
  <path class="cls-12" d="M73,86h-11c.539,13.207,3,22,19,26-17-17-6-17-8-26Z"/>
  <path class="cls-12" d="M73,86h-11c.539,13.207,3,22,19,26-17-17-6-17-8-26Z"/>
  <g class="cls-13">
    <path d="M81,112c-1.55-.39-2.97-.82-4.27-1.29-15.17-15.72-4.78-15.94-6.73-24.71h3c2,9-9,9,8,26Z"/>
  </g>
  <rect class="cls-12" x="46" y="78" width="37" height="8"/>
  <path d="M83,87H46c-.552,0-1-.447-1-1v-8c0-.553,.448-1,1-1h37c.552,0,1,.447,1,1v8c0,.553-.448,1-1,1Zm-36-2h35v-6H47v6Z"/>
  <g>
    <path class="cls-4" d="M86,76v15.93c0,.62-.56,1.08-1.18,.99-1.27-.2-1.99-.7-2.82-1.14-.77-.42-1.64-.78-3.16-.78-3.59,0-3.59,2-7.17,2s-3.58-2-7.17-2-3.58,2-7.16,2-3.59-2-7.17-2c-1.52,0-2.39,.36-3.17,.77-.38,.2-.74,.42-1.14,.61-1.32,.65-2.86-.33-2.86-1.8v-14.58h43Z"/>
    <g class="cls-13">
      <path d="M86,76v15.93c0,.62-.56,1.08-1.18,.99-1.27-.2-1.99-.7-2.82-1.14v-15.78h4Z"/>
    </g>
  </g>
  <path class="cls-12" d="M64.5,36h0c-11.618,0-21.144,9.242-21.476,20.855-.213,7.447,.667,14.532,2.976,21.145h37c2.309-6.613,3.189-13.698,2.976-21.145-.332-11.613-9.858-20.855-21.476-20.855Z"/>
  <g class="cls-13">
    <path d="M83,78h-3c2.31-6.61,3.19-13.7,2.98-21.15-.031-1.029-.134-2.036-.302-3.02-.301-1.755,.282-3.539,1.541-4.798l.022-.022c1.05,2.41,1.66,5.06,1.74,7.84,.21,7.45-.67,14.54-2.98,21.15Z"/>
  </g>
  <path class="cls-6" d="M86.81,76.81c-1.56,.71-3.13,1.35-4.69,1.91-6.02,2.18-12.07,3.27-18.12,3.27-5.67,0-11.35-.96-17-2.87-1.94-.66-3.87-1.43-5.81-2.31-1.04-.48-1.48-1.67-.99-2.67,.36-.72,1.11-1.14,1.89-1.14,.3,0,.61,.06,.89,.19,1.34,.61,2.68,1.16,4.02,1.65,5.65,2.09,11.33,3.13,17,3.13,5.82,0,11.65-1.09,17.45-3.3,1.19-.44,2.38-.94,3.57-1.48,.28-.13,.59-.19,.89-.19,.78,0,1.53,.42,1.89,1.14,.49,1,.05,2.19-.99,2.67Z"/>
  <g class="cls-13">
    <path d="M86.81,76.81c-1.56,.71-3.13,1.35-4.69,1.91l-.67-4.05c1.19-.44,2.38-.94,3.57-1.48,.28-.13,.59-.19,.89-.19,.78,0,1.53,.42,1.89,1.14,.49,1,.05,2.19-.99,2.67Z"/>
  </g>
  <ellipse class="cls-1" cx="72.5" cy="51.5" rx="6.5" ry="7.5"/>
  <g class="cls-13">
    <path d="M79,51.5c0,4.14-2.91,7.5-6.5,7.5-2.1,0-3.98-1.15-5.16-2.95,.93,.61,2.01,.95,3.16,.95,3.59,0,6.5-3.36,6.5-7.5,0-1.71-.5-3.29-1.34-4.55,1.99,1.28,3.34,3.73,3.34,6.55Z"/>
  </g>
  <circle class="cls-4" cx="72.5" cy="51.5" r="2.5"/>
  <ellipse class="cls-1" cx="55.5" cy="53" rx="5.5" ry="6"/>
  <g class="cls-13">
    <path d="M61,53c0,3.31-2.46,6-5.5,6-1.93,0-3.62-1.08-4.6-2.71,.77,.45,1.66,.71,2.6,.71,3.04,0,5.5-2.69,5.5-6,0-1.22-.33-2.35-.9-3.29,1.73,1.01,2.9,3,2.9,5.29Z"/>
  </g>
  <circle class="cls-4" cx="55" cy="53" r="2"/>
  <g>
    <path class="cls-3" d="M71.75,66l-2.32,.7c.78-.2,1.55-.43,2.32-.7Z"/>
    <path class="cls-3" d="M71.75,66l5.25,3,1-6c-1.99,1.24-4.09,2.25-6.25,3Z"/>
    <path class="cls-3" d="M58.19,67.13l.81,4.87,3.7-4.44c.82,0,1.63-.04,2.45-.12l-8.36-.63c.46,.12,.93,.23,1.4,.32Z"/>
    <path class="cls-3" d="M52,70l4.79-3.19c-1.64-.42-3.24-1.02-4.79-1.81v5Z"/>
    <path class="cls-3" d="M68,72l1.43-5.3c-1.42,.37-2.85,.62-4.28,.74l2.85,4.56Z"/>
  </g>
  <path class="cls-10" d="M62.7,68.56c-1.539,0-3.118-.15-4.695-.447-.494-.094-.986-.21-1.467-.335-1.72-.44-3.401-1.075-4.992-1.887-.492-.251-.688-.853-.437-1.345,.251-.492,.853-.688,1.345-.436,1.459,.744,3.002,1.326,4.584,1.731,.443,.116,.892,.221,1.34,.307,2.258,.425,4.439,.514,6.676,.298,1.365-.115,2.748-.354,4.124-.713,.782-.201,1.514-.422,2.241-.677,2.084-.723,4.119-1.7,6.052-2.904,.469-.292,1.085-.148,1.377,.319,.292,.469,.149,1.086-.32,1.378-2.059,1.283-4.229,2.324-6.451,3.096-.779,.274-1.565,.511-2.399,.725-1.482,.386-2.979,.645-4.445,.768-.851,.083-1.683,.123-2.533,.123Z"/>
  <path class="cls-10" d="M76.28,30.99c-.121,0-.244-.021-.363-.068-.515-.2-.77-.779-.569-1.294l2.72-6.99c.201-.515,.782-.771,1.295-.569,.515,.2,.769,.779,.569,1.294l-2.72,6.99c-.154,.395-.532,.638-.932,.638Z"/>
  <path class="cls-10" d="M72,42c-.121,0-.243-.021-.362-.068-.515-.2-.77-.779-.57-1.294l3.08-7.92c.2-.515,.78-.772,1.294-.569,.515,.2,.77,.779,.57,1.294l-3.08,7.92c-.154,.396-.532,.638-.932,.638Z"/>
  <path class="cls-10" d="M57.001,42c-.39,0-.761-.23-.922-.612l-8-19c-.214-.509,.025-1.095,.534-1.31,.509-.212,1.095,.024,1.31,.534l8,19c.214,.509-.025,1.095-.534,1.31-.127,.053-.258,.078-.388,.078Z"/>
  <circle class="cls-3" cx="79" cy="21" r="4"/>
  <circle class="cls-3" cx="49" cy="21" r="4"/>
  <g>
    <path class="cls-5" d="M33.013,77.528c-.222,.506-.812,.736-1.317,.515-2.273-.996-4.932,.042-5.928,2.315-.222,.506-.811,.736-1.317,.514s-.736-.811-.515-1.317c.996-2.273-.043-4.932-2.315-5.928-.506-.222-.736-.811-.515-1.317,.222-.506,.812-.736,1.317-.514,2.273,.996,4.932-.043,5.928-2.315,.222-.506,.811-.736,1.317-.514,.506,.222,.736,.811,.515,1.317-.996,2.273,.043,4.932,2.315,5.928,.506,.222,.736,.811,.515,1.317Z"/>
    <path class="cls-11" d="M24.852,80.956c-.134,0-.27-.026-.401-.084-.506-.222-.736-.812-.515-1.317,.483-1.102,.508-2.325,.071-3.444-.437-1.119-1.284-2.001-2.386-2.483h0c-.506-.222-.736-.812-.515-1.317,.222-.505,.81-.739,1.317-.515h.001c1.236,.542,2.627,.505,3.817-.101,.49-.249,1.094-.055,1.345,.438,.251,.492,.055,1.095-.438,1.346-.62,.315-1.277,.524-1.948,.627,.267,.396,.492,.823,.669,1.278,.179,.458,.304,.928,.376,1.402,.477-.321,.998-.581,1.552-.768,.523-.179,1.09,.105,1.267,.628,.176,.523-.105,1.091-.628,1.267-1.207,.407-2.155,1.274-2.668,2.443,0,0,0,0,0,.002h0c-.165,.375-.532,.599-.917,.599Z"/>
  </g>
  <g>
    <ellipse class="cls-2" cx="102" cy="16.955" rx="4" ry="3.971"/>
    <path class="cls-8" d="M102.249,21.916c-.524,0-.964-.408-.997-.939-.034-.551,.385-1.025,.936-1.06,1.577-.098,2.812-1.398,2.812-2.963,0-1.638-1.346-2.971-3-2.971-1.249,0-2.375,.778-2.802,1.936-.19,.519-.767,.783-1.284,.593-.518-.191-.783-.767-.592-1.284,.715-1.941,2.596-3.245,4.678-3.245,2.757,0,5,2.229,5,4.971,0,2.618-2.06,4.797-4.689,4.959-.021,0-.042,.002-.062,.002Z"/>
  </g>
  <g>
    <path class="cls-9" d="M107.374,78.291c-.328,0-.649-.161-.841-.457l-1.617-2.499c-.3-.464-.167-1.083,.297-1.383,.463-.299,1.082-.166,1.383,.297l1.617,2.499c.3,.464,.167,1.083-.297,1.383-.167,.108-.356,.16-.542,.16Z"/>
    <path class="cls-9" d="M103.564,72.401c-.328,0-.649-.161-.84-.457l-1.612-2.49c-.3-.463-.167-1.082,.296-1.383,.465-.3,1.082-.167,1.383,.297l1.612,2.49c.3,.463,.167,1.082-.296,1.383-.168,.108-.356,.16-.542,.16Z"/>
    <path class="cls-9" d="M100.467,76.81c-.328,0-.649-.161-.84-.457-.3-.463-.167-1.082,.296-1.383l2.498-1.617c.463-.3,1.083-.167,1.383,.297,.3,.463,.167,1.082-.296,1.383l-2.498,1.617c-.168,.108-.356,.16-.542,.16Z"/>
    <path class="cls-9" d="M106.356,73c-.328,0-.65-.161-.841-.457-.3-.464-.167-1.083,.297-1.383l2.491-1.611c.463-.299,1.083-.167,1.383,.297,.3,.464,.167,1.083-.297,1.383l-2.491,1.611c-.167,.108-.356,.16-.542,.16Z"/>
  </g>
  <g>
    <path class="cls-7" d="M102.47,43.43c-.239,0-.479-.085-.67-.259-.41-.37-.441-1.003-.071-1.412l8.53-9.43c.37-.409,1.003-.442,1.413-.07,.41,.37,.441,1.003,.071,1.412l-8.53,9.43c-.197,.218-.469,.329-.742,.329Z"/>
    <path class="cls-7" d="M91.999,55c-.239,0-.479-.085-.67-.259-.41-.37-.441-1.003-.07-1.412l5.73-6.33c.37-.409,1.002-.442,1.412-.07,.41,.37,.441,1.003,.07,1.412l-5.73,6.33c-.197,.218-.469,.329-.742,.329Z"/>
    <path class="cls-7" d="M94.998,58c-.502,0-.935-.378-.992-.89-.061-.549,.334-1.043,.883-1.104l18-2c.544-.058,1.043,.334,1.104,.884,.061,.549-.334,1.043-.883,1.104l-18,2c-.038,.004-.075,.006-.112,.006Z"/>
    <path class="cls-7" d="M90.001,49c-.023,0-.045-.001-.067-.002-.551-.037-.968-.514-.931-1.064l1-15c.037-.551,.523-.953,1.064-.932,.551,.037,.968,.514,.931,1.064l-1,15c-.035,.528-.475,.934-.997,.934Z"/>
  </g>
  <g>
    <path class="cls-7" d="M26.46,43.35c-.273,0-.544-.111-.742-.329l-8.46-9.35c-.37-.409-.339-1.042,.071-1.412,.41-.372,1.041-.339,1.413,.07l8.46,9.35c.37,.409,.339,1.042-.071,1.412-.191,.174-.431,.259-.671,.259Z"/>
    <path class="cls-7" d="M37.001,55c-.273,0-.545-.111-.742-.329l-6.14-6.79c-.371-.41-.339-1.042,.071-1.413,.41-.371,1.043-.337,1.413,.071l6.14,6.79c.371,.41,.339,1.042-.071,1.413-.191,.173-.432,.258-.67,.258Z"/>
    <path class="cls-7" d="M34.002,58c-.037,0-.074-.002-.112-.006l-18-2c-.549-.061-.944-.556-.883-1.104,.061-.549,.558-.939,1.104-.884l18,2c.549,.061,.944,.556,.883,1.104-.057,.512-.49,.89-.992,.89Z"/>
    <path class="cls-7" d="M38.999,49c-.522,0-.961-.405-.997-.934l-1-15c-.037-.551,.38-1.027,.931-1.064,.539-.023,1.027,.38,1.064,.932l1,15c.037,.551-.38,1.027-.931,1.064-.023,.001-.045,.002-.067,.002Z"/>
  </g>
  <path class="cls-6" d="M58,85.5c0,.83-.67,1.5-1.5,1.5h-13.5v-3h13.5c.83,0,1.5,.67,1.5,1.5Z"/>
  <circle class="cls-6" cx="79" cy="85" r="3"/>
</svg>