<?xml version="1.0" encoding="UTF-8"?>
<svg id="_12" data-name="12" xmlns="http://www.w3.org/2000/svg" viewBox="0 0 128 128">
  <defs>
    <style>
      .cls-1 {
        fill: #00c672;
      }

      .cls-2 {
        fill: #fff;
      }

      .cls-3 {
        fill: #ffd300;
      }

      .cls-4 {
        fill: #ff5fff;
      }

      .cls-5 {
        fill: #a06507;
      }

      .cls-6 {
        fill: #a3077b;
      }

      .cls-7 {
        fill: #d86313;
      }

      .cls-8 {
        fill: #d43ad8;
      }

      .cls-9 {
        fill: #d6920b;
      }

      .cls-10 {
        fill: #0a4f2f;
      }

      .cls-11 {
        fill: #07478c;
      }

      .cls-12 {
        fill: #0f53b7;
      }

      .cls-13 {
        fill: #1b0d42;
      }

      .cls-14 {
        fill: #53e8fc;
      }

      .cls-15 {
        fill: #4c2609;
      }

      .cls-16 {
        fill: #6128dd;
      }

      .cls-17 {
        opacity: .2;
      }

      .cls-18 {
        opacity: .4;
      }
    </style>
  </defs>
  <g>
    <path class="cls-14" d="M85.161,49.414c-1.627,1.495-4.611,.894-6.667-1.343-2.056-2.236-2.403-5.261-.777-6.756s4.611-.894,6.667,1.343c2.056,2.236,2.403,5.261,.777,6.756Z"/>
    <polygon class="cls-1" points="60.29 68.165 56.941 64.52 75.509 43.345 82.952 51.444 60.29 68.165"/>
    <rect class="cls-16" x="74.351" y="44.667" width="11" height="4.316" transform="translate(60.291 -43.652) rotate(47.414)"/>
    <path class="cls-10" d="M77.971,56.11c-.27,0-.539-.108-.736-.323l-6.54-7.11c-.374-.406-.348-1.039,.059-1.413,.406-.374,1.04-.348,1.413,.059l6.54,7.11c.374,.406,.348,1.039-.059,1.413-.192,.177-.435,.264-.676,.264Z"/>
  </g>
  <path class="cls-4" d="M82,74c0-15.397-12.688-27.464-27.974-27.983-.561-.019-1.026,.445-1.026,1.007v26.975h29Z"/>
  <path class="cls-16" d="M78,74.5c0,.17,0,.33-.01,.5-.01,1.02-.1,2.02-.24,3H28.25c-.14-.98-.23-1.98-.24-3-.01-.17-.01-.33-.01-.5,0-2.05,.25-4.04,.72-5.95,.17-.74,.39-1.47,.64-2.18,.82-2.41,2-4.65,3.49-6.65,.58-.81,1.22-1.58,1.91-2.31,2.59-2.77,5.81-4.95,9.43-6.31,1.62-.61,3.31-1.06,5.06-1.32,1.22-.18,2.48-.28,3.75-.28,.08,0,.15,0,.23,.01,1.46,0,2.89,.14,4.27,.4,5.43,.98,10.25,3.72,13.84,7.6,.69,.74,1.32,1.51,1.9,2.33,1.47,2.01,2.64,4.25,3.44,6.66,.25,.71,.46,1.43,.63,2.17,.45,1.87,.69,3.82,.69,5.83Z"/>
  <g>
    <g>
      <path class="cls-13" d="M38,74.16c0,.16,0,.32,.01,.48,0,1.01,.05,2.01,.17,3.21,0,.05,.01,.1-.01,.15-.02,.51-.39,.94-.89,.99-.03,.01-.07,.01-.1,.01-.51,0-.94-.4-.99-.95v-.05c-.12-1.24-.18-2.29-.18-3.3-.01-.14-.01-.34-.01-.54,0-9.44,3.13-17.92,8.19-23.06,1.62-.61,3.31-1.06,5.06-1.32-6.68,3.76-11.25,13.54-11.25,24.38Z"/>
      <path class="cls-13" d="M67,74.16c0,.2,0,.4-.01,.6,0,.95-.06,2-.18,3.24v.05c-.05,.55-.48,.95-.99,.95-.03,0-.07,0-.1-.01-.5-.05-.87-.48-.89-.99-.02-.05-.01-.1-.01-.15,.12-1.2,.17-2.2,.17-3.15,.01-.22,.01-.38,.01-.54,0-11.2-4.79-21.12-11.77-24.65,1.46,0,2.89,.14,4.27,.4,5.77,4.96,9.5,14.14,9.5,24.25Z"/>
    </g>
    <g>
      <path class="cls-13" d="M77.31,68.67c-16.13-3.5-32.48-3.54-48.59-.12,.17-.74,.39-1.47,.64-2.18,15.7-3.18,31.6-3.14,47.32,.13,.25,.71,.46,1.43,.63,2.17Z"/>
      <path class="cls-13" d="M73.24,59.84h-.04c-.06,0-.13-.01-.2-.02-13.24-2.37-26.67-2.41-39.92-.12-.08,.01-.15,.02-.23,.02,.58-.81,1.22-1.58,1.91-2.31,12.15-1.9,24.44-1.86,36.58,.1,.69,.74,1.32,1.51,1.9,2.33Z"/>
    </g>
  </g>
  <g class="cls-18">
    <path d="M78,74.5c0,.17,0,.33-.01,.5-.01,1.02-.1,2.02-.24,3h-4.99c.13-.98,.22-1.98,.23-3,.01-.17,.01-.33,.01-.5,0-13.04-9.79-23.75-22.28-24.89,.75-.08,1.51-.11,2.28-.11,13.81,0,25,11.19,25,25Z"/>
  </g>
  <path class="cls-8" d="M75,78h28c.552,0,1,.448,1,1v2c0,.552-.448,1-1,1h-28v-4h0Z"/>
  <g class="cls-17">
    <rect x="75" y="78" width="8" height="4"/>
  </g>
  <rect class="cls-9" x="75" y="82" width="24" height="26"/>
  <path class="cls-14" d="M95,88v13c0,.55-.45,1-1,1h-15v-15h15c.2,0,.39,.06,.55,.16,.27,.18,.45,.49,.45,.84Z"/>
  <g>
    <polygon class="cls-2" points="93.49 87 85.25 102 82.97 102 91.21 87 93.49 87"/>
    <path class="cls-2" d="M95,88v.42l-7.46,13.58h-1.15l8.16-14.84c.27,.18,.45,.49,.45,.84Z"/>
  </g>
  <g>
    <rect class="cls-11" x="86" y="87" width="2" height="15"/>
    <rect class="cls-11" x="79" y="93.5" width="16" height="2"/>
  </g>
  <g class="cls-17">
    <rect x="75" y="82" width="8" height="26"/>
  </g>
  <rect class="cls-3" x="27" y="78" width="52" height="30"/>
  <g class="cls-17">
    <rect x="75" y="78" width="4" height="30"/>
  </g>
  <polygon class="cls-1" points="47 108 39 108 41 78 45 78 47 108"/>
  <polygon class="cls-1" points="66 108 58 108 60 78 64 78 66 108"/>
  <path class="cls-4" d="M25,74h57v4H25c-.552,0-1-.448-1-1v-2c0-.552,.448-1,1-1Z"/>
  <g class="cls-17">
    <rect x="73" y="74" width="9" height="4"/>
  </g>
  <path class="cls-7" d="M109,110c0,.55-.22,1.05-.59,1.41-.36,.37-.86,.59-1.41,.59H21c-1.1,0-2-.9-2-2,0-.55,.22-1.05,.59-1.41,.36-.37,.86-.59,1.41-.59H107c1.1,0,2,.9,2,2Z"/>
  <g class="cls-17">
    <path d="M109,110c0,.55-.22,1.05-.59,1.41-.36,.37-.86,.59-1.41,.59h-8v-4h8c1.1,0,2,.9,2,2Z"/>
  </g>
  <path class="cls-16" d="M36,83v3c0,.552-.448,1-1,1h-8v-5h8c.552,0,1,.448,1,1Z"/>
  <path class="cls-16" d="M33,96v3c0,.55-.45,1-1,1h-5v-5h5c.55,0,1,.45,1,1Z"/>
  <path class="cls-16" d="M79,87v5h-8c-.552,0-1-.448-1-1v-3c0-.552,.448-1,1-1h8Z"/>
  <g class="cls-17">
    <rect x="75" y="87" width="4" height="5"/>
  </g>
  <path class="cls-16" d="M79,100v5h-5c-.55,0-1-.45-1-1v-3c0-.55,.45-1,1-1h5Z"/>
  <g class="cls-17">
    <rect x="75" y="100" width="4" height="5"/>
  </g>
  <g>
    <path class="cls-5" d="M94.004,62.556c.201-.514,.781-.769,1.295-.568,2.312,.902,4.926-.245,5.828-2.557,.201-.514,.781-.769,1.295-.568,.514,.201,.769,.781,.568,1.295-.902,2.312,.245,4.926,2.557,5.828,.514,.201,.769,.781,.568,1.295-.201,.514-.781,.769-1.295,.568-2.312-.902-4.926,.245-5.828,2.557-.201,.514-.781,.769-1.295,.568-.514-.201-.769-.781-.568-1.295,.902-2.312-.245-4.926-2.557-5.828-.514-.201-.769-.781-.568-1.295Z"/>
    <path class="cls-15" d="M100.52,68.234c-.35,0-.689-.184-.873-.51-.271-.481-.1-1.091,.381-1.361,.608-.343,1.258-.579,1.926-.709-.575-.781-.971-1.685-1.155-2.638-.464,.343-.976,.625-1.524,.834-.516,.196-1.094-.06-1.291-.576-.197-.516,.061-1.094,.577-1.291,1.189-.456,2.101-1.361,2.565-2.551,0,0,0-.001,0-.001h0c.201-.515,.778-.77,1.295-.568,.514,.201,.768,.78,.568,1.295-.902,2.311,.245,4.926,2.557,5.828h0c.515,.201,.768,.781,.568,1.295-.201,.515-.779,.77-1.295,.568,0-.001-.002-.001-.003-.001-1.256-.492-2.644-.396-3.807,.257-.155,.088-.323,.129-.489,.129Z"/>
  </g>
  <g>
    <path class="cls-1" d="M54.651,24.822c1.187-1.863,3.648-2.418,5.498-1.24,1.85,1.178,2.387,3.644,1.2,5.507-1.187,1.863-3.648,2.419-5.498,1.24s-2.387-3.644-1.2-5.507Z"/>
    <path class="cls-11" d="M54.828,30.368c-.302,0-.6-.136-.797-.395-1.253-1.646-1.342-3.933-.223-5.688,.717-1.126,1.826-1.907,3.124-2.199,1.299-.293,2.634-.062,3.755,.652,2.209,1.406,2.94,4.314,1.664,6.618-.267,.483-.876,.658-1.359,.391-.483-.268-.658-.876-.391-1.359,.765-1.382,.331-3.122-.988-3.962-.668-.426-1.465-.561-2.241-.39-.779,.176-1.445,.645-1.877,1.323-.671,1.053-.62,2.421,.128,3.403,.334,.439,.249,1.067-.19,1.401-.181,.138-.394,.204-.605,.204Z"/>
  </g>
  <g>
    <path class="cls-12" d="M16.534,79.777c-.328,0-.649-.161-.841-.457l-1.617-2.499c-.3-.464-.167-1.083,.297-1.383,.463-.3,1.083-.167,1.383,.297l1.617,2.499c.3,.464,.167,1.083-.297,1.383-.168,.108-.356,.16-.542,.16Z"/>
    <path class="cls-12" d="M12.724,73.888c-.328,0-.649-.161-.84-.457l-1.612-2.49c-.3-.463-.167-1.082,.296-1.383,.465-.3,1.083-.167,1.383,.297l1.612,2.49c.3,.463,.168,1.082-.296,1.383-.168,.108-.356,.16-.542,.16Z"/>
    <path class="cls-12" d="M9.627,78.297c-.328,0-.649-.161-.841-.457-.3-.464-.167-1.083,.297-1.383l2.499-1.616c.463-.3,1.082-.167,1.383,.297,.3,.464,.167,1.083-.297,1.383l-2.499,1.616c-.167,.108-.356,.16-.542,.16Z"/>
    <path class="cls-12" d="M15.516,74.486c-.328,0-.649-.161-.841-.457-.3-.464-.167-1.083,.297-1.383l2.491-1.611c.463-.3,1.083-.167,1.383,.297,.3,.464,.167,1.083-.297,1.383l-2.491,1.611c-.168,.108-.356,.16-.542,.16Z"/>
  </g>
  <g>
    <path class="cls-6" d="M33.001,54c-.327,0-.647-.16-.839-.454l-3.88-5.95c-.301-.462-.171-1.082,.292-1.384,.464-.3,1.083-.171,1.384,.292l3.88,5.95c.301,.462,.171,1.082-.292,1.384-.169,.109-.358,.162-.545,.162Z"/>
    <path class="cls-6" d="M25.461,42.43c-.327,0-.646-.159-.838-.453l-7.46-11.43c-.302-.463-.172-1.082,.291-1.385,.462-.3,1.081-.172,1.384,.291l7.46,11.43c.302,.463,.172,1.082-.291,1.385-.168,.109-.358,.162-.545,.162Z"/>
    <path class="cls-6" d="M37,51c-.552,0-1-.447-1-1v-18c0-.553,.448-1,1-1s1,.447,1,1v18c0,.553-.448,1-1,1Z"/>
    <path class="cls-6" d="M29.001,57c-.094,0-.189-.013-.283-.041l-17-5c-.53-.155-.833-.711-.677-1.241,.156-.529,.713-.833,1.242-.677l17,5c.53,.155,.833,.711,.677,1.241-.128,.436-.527,.718-.959,.718Z"/>
  </g>
  <g>
    <path class="cls-6" d="M99.7,29.3c-.256,0-.512-.098-.707-.293-.391-.391-.391-1.023,0-1.414l9.3-9.3c.391-.391,1.023-.391,1.414,0,.391,.391,.391,1.023,0,1.414l-9.3,9.3c-.195,.195-.451,.293-.707,.293Z"/>
    <path class="cls-6" d="M90,39c-.256,0-.512-.098-.707-.293-.391-.391-.391-1.023,0-1.414l5.88-5.88c.391-.391,1.023-.391,1.414,0s.391,1.023,0,1.414l-5.88,5.88c-.195,.195-.451,.293-.707,.293Z"/>
    <path class="cls-6" d="M92.998,42c-.496,0-.928-.37-.991-.876-.068-.548,.32-1.048,.868-1.116l16-2c.539-.064,1.048,.32,1.116,.868,.068,.548-.32,1.048-.868,1.116l-16,2c-.042,.005-.084,.008-.126,.008Z"/>
    <path class="cls-6" d="M86.001,36c-.021,0-.042-.001-.064-.002-.551-.034-.97-.509-.935-1.06l1-16c.035-.552,.503-.959,1.06-.935,.551,.034,.97,.509,.935,1.06l-1,16c-.033,.53-.473,.938-.997,.938Z"/>
  </g>
</svg>