<?xml version="1.0" encoding="UTF-8"?>
<svg id="_19" data-name="19" xmlns="http://www.w3.org/2000/svg" xmlns:xlink="http://www.w3.org/1999/xlink" viewBox="0 0 128 128">
  <defs>
    <style>
      .cls-1 {
        clip-path: url(#clippath);
      }

      .cls-2 {
        fill: #00c672;
      }

      .cls-3 {
        fill: #ff5fff;
      }

      .cls-4 {
        fill: #a06507;
      }

      .cls-5 {
        fill: #b6fc00;
      }

      .cls-6 {
        fill: #a3077b;
      }

      .cls-7 {
        fill: #32a066;
      }

      .cls-8 {
        fill: #07478c;
      }

      .cls-9 {
        fill: #0f53b7;
      }

      .cls-10 {
        fill: #53e8fc;
      }

      .cls-11 {
        fill: #4c2609;
      }

      .cls-12 {
        opacity: .2;
      }

      .cls-13 {
        opacity: .4;
      }
    </style>
    <clipPath id="clippath">
      <path class="cls-10" d="M92.046,47.954c5.272,5.272,5.272,13.82,0,19.092-5.272,5.272-13.82,5.272-19.092,0-5.272-5.272-5.272-13.82,0-19.092,5.272-5.272,13.82-5.272,19.092,0Z"/>
    </clipPath>
  </defs>
  <g>
    <ellipse class="cls-7" cx="42.5" cy="29" rx="2.5" ry="7"/>
    <path class="cls-7" d="M52.932,34.58c-.384,1.612-1.785,2.659-3.128,2.338-1.343-.32-2.12-1.886-1.736-3.498,.384-1.612,1.785-2.659,3.128-2.338,1.343,.32,2.12,1.886,1.736,3.498Z"/>
    <path class="cls-7" d="M33.068,35.58c.384,1.612,1.785,2.659,3.128,2.338,1.343-.32,2.12-1.886,1.736-3.498-.384-1.612-1.785-2.659-3.128-2.338-1.343,.32-2.12,1.886-1.736,3.498Z"/>
    <path class="cls-2" d="M49,73c-1-14-10-20-12-26-4-10,15-11,12,0-1,7,.667,10.667,5,16,5.417,4.846,6.654,8.378,5,11-1.999,4.513-10,8-10-1Z"/>
    <path class="cls-2" d="M49,73c-1-14-10-20-12-26-4-10,15-11,12,0-1,7,.667,10.667,5,16,5.417,4.846,6.654,8.378,5,11-1.999,4.513-10,8-10-1Z"/>
  </g>
  <g>
    <ellipse class="cls-7" cx="77.152" cy="50" rx="2.5" ry="7"/>
    <path class="cls-7" d="M66.72,55.58c.384,1.612,1.785,2.659,3.128,2.338,1.343-.32,2.12-1.886,1.736-3.498-.384-1.612-1.785-2.659-3.128-2.338-1.343,.32-2.12,1.886-1.736,3.498Z"/>
    <path class="cls-7" d="M86.584,56.58c-.384,1.612-1.785,2.659-3.128,2.338-1.343-.32-2.12-1.886-1.736-3.498,.384-1.612,1.785-2.659,3.128-2.338,1.343,.32,2.12,1.886,1.736,3.498Z"/>
    <path class="cls-2" d="M70.652,94c1-14,10-20,12-26,4-10-15-11-12,0,1,7-.667,10.667-5,16-5.417,4.846-6.654,8.378-5,11,1.998,4.513,10,8,10-1Z"/>
  </g>
  <g class="cls-12">
    <path d="M79.65,50c0,1.76-.23,3.35-.61,4.58-.1,.3-.2,.59-.32,.84,0,.01-.01,.03-.01,.04-.43,.97-.97,1.54-1.56,1.54-.57,0-1.08-.52-1.5-1.41,.61-1.28,1-3.3,1-5.59s-.39-4.31-1-5.59c.42-.89,.93-1.41,1.5-1.41,1.38,0,2.5,3.13,2.5,7Z"/>
    <path d="M69.85,57.92c-.71,.17-1.44-.05-2.03-.52,.71-.67,1.04-1.81,.76-2.98-.18-.75-.58-1.38-1.09-1.81,.27-.26,.6-.44,.97-.53,1.34-.32,2.74,.73,3.12,2.34,.39,1.61-.39,3.18-1.73,3.5Z"/>
    <path d="M86.58,56.58c-.38,1.61-1.78,2.66-3.12,2.34-.37-.09-.7-.27-.97-.53,.51-.43,.91-1.06,1.09-1.81,.28-1.17-.05-2.31-.76-2.98,.59-.47,1.32-.69,2.03-.52,1.34,.32,2.12,1.89,1.73,3.5Z"/>
    <path d="M82.65,68c-2,6-11,12-12,26,0,5.17-2.64,6.22-5.27,5.32,1.32-.6,2.27-2.22,2.27-5.32,1-14,10-20,12-26,1.78-4.46-1.01-7.13-4.39-7.74,4.36-.8,9.7,1.98,7.39,7.74Z"/>
  </g>
  <g class="cls-13">
    <path d="M79.04,54.58c-.1,.3-.2,.59-.32,.84,.07-.3,.18-.58,.32-.84Z"/>
  </g>
  <g>
    <path class="cls-3" d="M117.502,92.502h0c-2.088,2.088-5.518,1.931-7.406-.34l-20.242-24.338,2.97-2.97,24.338,20.242c2.27,1.888,2.427,5.318,.34,7.406Z"/>
    <path class="cls-5" d="M117.5,92.5c-2.09,2.09-5.52,1.93-7.4-.34l-7.4-8.9,5.56-5.56,8.9,7.4c2.27,1.88,2.43,5.31,.34,7.4Z"/>
    <path class="cls-5" d="M103.006,71.642l-6.364,6.364c-.781,.781-2.047,.781-2.828,0h0c-.781-.781-.781-2.047,0-2.828l6.364-6.364c.781-.781,2.047-.781,2.828,0h0c.781,.781,.781,2.047,0,2.828Z"/>
    <circle class="cls-3" cx="82.5" cy="57.5" r="17.5"/>
    <g class="cls-12">
      <path d="M94.87,69.87c-6.83,6.84-17.91,6.84-24.74,0-.51-.51-.98-1.04-1.41-1.59,6.86,5.39,16.83,4.92,23.15-1.41,6.33-6.32,6.8-16.29,1.41-23.15,.55,.43,1.08,.9,1.59,1.41,6.84,6.83,6.84,17.91,0,24.74Z"/>
    </g>
    <g>
      <path class="cls-10" d="M92.046,47.954c5.272,5.272,5.272,13.82,0,19.092-5.272,5.272-13.82,5.272-19.092,0-5.272-5.272-5.272-13.82,0-19.092,5.272-5.272,13.82-5.272,19.092,0Z"/>
      <g class="cls-1">
        <g>
          <g>
            <ellipse class="cls-7" cx="31.075" cy="13.205" rx="3.427" ry="9.596"/>
            <path class="cls-7" d="M45.375,20.855c-.527,2.209-2.447,3.644-4.288,3.205-1.841-.439-2.906-2.586-2.379-4.796s2.447-3.644,4.288-3.205c1.841,.439,2.906,2.586,2.379,4.795Z"/>
            <path class="cls-7" d="M18.145,22.226c.527,2.209,2.447,3.644,4.288,3.205,1.841-.439,2.906-2.586,2.379-4.796-.527-2.209-2.447-3.644-4.288-3.205-1.841,.439-2.906,2.586-2.379,4.796Z"/>
            <path class="cls-2" d="M39.985,73.523c-1.371-19.192-13.708-27.417-16.45-35.642-5.483-13.708,20.563-15.079,16.45,0-1.371,9.596,.914,14.622,6.854,21.934,7.426,6.643,9.122,11.484,6.854,15.079-2.74,6.187-13.708,10.967-13.708-1.371Z"/>
            <path class="cls-2" d="M39.985,73.523c-1.371-19.192-13.708-27.417-16.45-35.642-5.483-13.708,20.563-15.079,16.45,0-1.371,9.596,.914,14.622,6.854,21.934,7.426,6.643,9.122,11.484,6.854,15.079-2.74,6.187-13.708,10.967-13.708-1.371Z"/>
          </g>
          <g>
            <ellipse class="cls-7" cx="78.578" cy="41.993" rx="3.427" ry="9.596"/>
            <path class="cls-7" d="M64.277,49.642c.527,2.209,2.447,3.644,4.288,3.205,1.841-.439,2.906-2.586,2.379-4.796s-2.447-3.644-4.288-3.205c-1.841,.439-2.906,2.586-2.379,4.796Z"/>
            <path class="cls-7" d="M91.507,51.013c-.527,2.209-2.447,3.644-4.288,3.205-1.841-.439-2.906-2.586-2.379-4.796,.527-2.209,2.447-3.644,4.288-3.205,1.841,.439,2.906,2.586,2.379,4.795Z"/>
            <path class="cls-2" d="M69.667,102.31c1.371-19.192,13.708-27.417,16.45-35.642,5.483-13.709-20.563-15.079-16.45,0,1.371,9.596-.914,14.622-6.854,21.934-7.426,6.643-9.122,11.484-6.854,15.079,2.74,6.187,13.708,10.967,13.708-1.371Z"/>
          </g>
          <g class="cls-12">
            <path d="M82.002,41.993c0,2.413-.315,4.592-.836,6.278-.137,.411-.274,.809-.439,1.152,0,.014-.014,.041-.014,.055-.589,1.33-1.33,2.111-2.138,2.111-.781,0-1.48-.713-2.056-1.933,.836-1.755,1.371-4.524,1.371-7.663s-.535-5.908-1.371-7.663c.576-1.22,1.275-1.933,2.056-1.933,1.892,0,3.427,4.291,3.427,9.596Z"/>
            <path d="M68.567,52.85c-.973,.233-1.974-.069-2.783-.713,.973-.918,1.426-2.481,1.042-4.085-.247-1.028-.795-1.892-1.494-2.481,.37-.356,.822-.603,1.33-.727,1.837-.439,3.756,1.001,4.277,3.208,.534,2.207-.535,4.359-2.372,4.798Z"/>
            <path d="M91.502,51.013c-.521,2.207-2.44,3.646-4.277,3.208-.507-.123-.96-.37-1.33-.726,.699-.59,1.247-1.453,1.494-2.481,.384-1.604-.069-3.167-1.042-4.085,.809-.644,1.809-.946,2.783-.713,1.837,.439,2.906,2.591,2.372,4.798Z"/>
            <path d="M86.114,66.668c-2.742,8.225-15.079,16.45-16.45,35.642,0,7.087-3.619,8.527-7.224,7.293,1.809-.823,3.112-3.043,3.112-7.293,1.371-19.192,13.709-27.417,16.45-35.642,2.44-6.114-1.384-9.774-6.018-10.61,5.977-1.097,13.297,2.714,10.131,10.61Z"/>
          </g>
        </g>
      </g>
    </g>
  </g>
  <g>
    <path class="cls-4" d="M86.379,92.826c.533-.143,1.082,.173,1.225,.707,.643,2.397,3.115,3.823,5.512,3.18,.533-.143,1.082,.173,1.225,.707s-.173,1.082-.707,1.225c-2.397,.643-3.823,3.115-3.18,5.512,.143,.533-.173,1.082-.707,1.225s-1.082-.173-1.225-.707c-.643-2.397-3.115-3.823-5.512-3.18-.533,.143-1.082-.173-1.225-.707s.173-1.082,.707-1.225c2.397-.643,3.823-3.115,3.18-5.512-.143-.533,.173-1.082,.707-1.225Z"/>
    <path class="cls-11" d="M89.487,105.417c-.441,0-.845-.294-.965-.74-.351-1.306-1.248-2.369-2.464-2.919-.503-.227-.727-.819-.499-1.323,.227-.503,.818-.728,1.323-.499,.634,.286,1.207,.669,1.706,1.128,.142-.455,.336-.898,.58-1.321,.246-.426,.534-.816,.859-1.17-.549-.171-1.077-.415-1.569-.73-.464-.299-.599-.918-.301-1.382,.3-.466,.918-.601,1.382-.302,1.072,.689,2.342,.885,3.576,.556h0c.534-.144,1.081,.173,1.225,.707,.144,.533-.174,1.082-.707,1.225h0c-1.161,.311-2.132,1.056-2.732,2.097-.6,1.039-.759,2.25-.448,3.41,0,.004,0,.006,0,.006,.144,.533-.173,1.081-.707,1.225-.086,.024-.174,.034-.26,.034Z"/>
  </g>
  <g>
    <path class="cls-2" d="M62.299,17.045c1.619-1.503,4.141-1.418,5.633,.189,1.492,1.607,1.389,4.129-.23,5.632-1.619,1.503-4.141,1.418-5.633-.189-1.492-1.607-1.389-4.129,.23-5.632Z"/>
    <path class="cls-8" d="M67.878,23.689c-.248,0-.496-.092-.689-.275-.4-.381-.416-1.015-.035-1.414,1.09-1.144,1.109-2.938,.045-4.084-.539-.582-1.273-.916-2.069-.943-.801-.023-1.561,.26-2.149,.806-.916,.85-1.212,2.187-.736,3.326,.213,.51-.028,1.095-.538,1.308-.508,.214-1.094-.028-1.308-.538-.797-1.909-.306-4.144,1.221-5.561,.977-.907,2.261-1.379,3.578-1.339,1.332,.045,2.564,.606,3.469,1.582,1.781,1.919,1.754,4.916-.063,6.823-.197,.206-.461,.311-.725,.311Z"/>
  </g>
  <g>
    <path class="cls-9" d="M29.979,66.89c-.328,0-.649-.161-.841-.457l-1.617-2.499c-.3-.463-.167-1.082,.297-1.383,.464-.299,1.083-.167,1.383,.297l1.617,2.499c.3,.463,.167,1.082-.297,1.383-.168,.108-.355,.16-.542,.16Z"/>
    <path class="cls-9" d="M26.169,61c-.328,0-.649-.161-.841-.457l-1.611-2.491c-.3-.464-.167-1.083,.297-1.383,.464-.301,1.083-.167,1.383,.297l1.611,2.491c.3,.464,.167,1.083-.297,1.383-.168,.108-.356,.16-.542,.16Z"/>
    <path class="cls-9" d="M23.071,65.409c-.328,0-.649-.161-.841-.457-.3-.463-.167-1.082,.297-1.383l2.499-1.617c.463-.3,1.082-.167,1.383,.297,.3,.463,.167,1.082-.297,1.383l-2.499,1.617c-.168,.108-.355,.16-.542,.16Z"/>
    <path class="cls-9" d="M28.961,61.599c-.328,0-.649-.161-.841-.457-.3-.464-.167-1.083,.297-1.383l2.491-1.611c.464-.302,1.083-.166,1.383,.297,.3,.464,.167,1.083-.297,1.383l-2.491,1.611c-.168,.108-.356,.16-.542,.16Z"/>
  </g>
  <g>
    <path class="cls-6" d="M98.92,24c-.131,0-.263-.025-.39-.079-.509-.215-.746-.802-.531-1.311l5.08-12c.216-.511,.806-.744,1.31-.531,.509,.215,.746,.802,.531,1.311l-5.08,12c-.161,.382-.532,.61-.921,.61Z"/>
    <path class="cls-6" d="M93,38c-.13,0-.263-.025-.39-.079-.509-.215-.746-.802-.531-1.311l3.48-8.23c.215-.508,.804-.747,1.31-.531,.509,.215,.746,.802,.531,1.311l-3.48,8.23c-.161,.381-.531,.61-.921,.61Z"/>
    <path class="cls-6" d="M96.001,41c-.318,0-.631-.151-.825-.434-.312-.455-.197-1.077,.258-1.391l16-11c.455-.312,1.077-.197,1.391,.258,.312,.455,.197,1.077-.258,1.391l-16,11c-.173,.119-.37,.176-.565,.176Z"/>
    <path class="cls-6" d="M87.999,36c-.448,0-.855-.303-.969-.758l-4-16c-.135-.535,.191-1.078,.727-1.212,.532-.137,1.078,.191,1.212,.727l4,16c.135,.535-.191,1.078-.727,1.212-.081,.021-.163,.03-.243,.03Z"/>
  </g>
  <g>
    <path class="cls-6" d="M28.001,32c-.301,0-.599-.135-.795-.393l-3.65-4.769c-.336-.439-.252-1.065,.186-1.401,.437-.335,1.067-.252,1.401,.186l3.65,4.77c.336,.439,.252,1.065-.186,1.401-.181,.139-.394,.206-.606,.206Z"/>
    <path class="cls-6" d="M21.901,24.02c-.301,0-.599-.135-.795-.392l-6.9-9.02c-.336-.439-.252-1.066,.186-1.401,.437-.335,1.067-.253,1.401,.186l6.9,9.019c.336,.439,.252,1.066-.186,1.401-.181,.139-.394,.206-.606,.206Z"/>
    <path class="cls-6" d="M32,29c-.553,0-1-.447-1-1v-12c0-.553,.447-1,1-1s1,.447,1,1v12c0,.553-.447,1-1,1Z"/>
    <path class="cls-6" d="M25,36c-.105,0-.211-.017-.316-.052l-12-4c-.523-.174-.807-.74-.632-1.265,.175-.523,.735-.808,1.265-.632l12,4c.523,.174,.807,.74,.632,1.265-.14,.419-.529,.684-.948,.684Z"/>
  </g>
</svg>