<?xml version="1.0" encoding="UTF-8"?>
<svg id="_06" data-name="06" xmlns="http://www.w3.org/2000/svg" viewBox="0 0 128 128">
  <defs>
    <style>
      .cls-1 {
        fill: #00c672;
      }

      .cls-2 {
        fill: #ffd300;
      }

      .cls-3 {
        fill: #ff74ba;
      }

      .cls-4 {
        fill: #a06507;
      }

      .cls-5 {
        fill: #a3077b;
      }

      .cls-6 {
        fill: #d2fce7;
      }

      .cls-7 {
        fill: #0a4f2f;
      }

      .cls-8 {
        fill: #07478c;
      }

      .cls-9 {
        fill: #0f53b7;
      }

      .cls-10 {
        fill: #1b0d42;
      }

      .cls-11 {
        fill: #4c2609;
      }

      .cls-12 {
        fill: #6128dd;
      }

      .cls-13 {
        opacity: .2;
      }
    </style>
  </defs>
  <path class="cls-12" d="M96,100.54v7.46H33c-.552,0-1-.448-1-1v-6.46c0-6.926,5.614-12.54,12.54-12.54h38.92c6.926,0,12.54,5.614,12.54,12.54Z"/>
  <g class="cls-13">
    <path d="M96,100.54v7.46h-4v-7.46c0-6.93-5.61-12.54-12.54-12.54h4c6.93,0,12.54,5.61,12.54,12.54Z"/>
  </g>
  <path class="cls-2" d="M54,88v2c0,5.51,4.49,10,10,10s10-4.49,10-10v-2h-20Z"/>
  <path class="cls-1" d="M70,74v16c0,3.31-2.69,6-6,6s-6-2.69-6-6v-16h12Z"/>
  <g class="cls-13">
    <path d="M70,74v9.02c-1.89,.64-3.91,.98-6,.98s-4.11-.34-6-.98v-9.02h12Z"/>
  </g>
  <g>
    <path class="cls-1" d="M45.61,66.39l.15,.56c.15,.56,.32,1.1,.51,1.63,.06,.16,.12,.32,.18,.47,.31,.79,.67,1.55,1.08,2.27,.12,.23,.25,.45,.39,.67,.09,.16,.19,.32,.31,.48,.14,.23,.3,.46,.46,.68,.17,.24,.36,.48,.54,.72,.8,1,1.69,1.92,2.67,2.73,.13,.11,.26,.22,.4,.32,.67,.54,1.37,1.02,2.1,1.45,.24,.15,.49,.28,.73,.41,2.1,1.13,4.43,1.86,6.87,2.11h.01c.02,0,.04,.01,.06,.01,.26,.03,.51,.05,.77,.06,.38,.03,.77,.04,1.16,.04,8.56,0,16.05-5.77,18.24-14.05l4.56-17.27c.04-.17,.09-.33,.12-.5,.02-.06,.03-.12,.04-.18,.08-.34,.15-.67,.2-1.01,.06-.34,.11-.67,.15-1.01v-.01c.04-.31,.07-.63,.09-.94v-.04c.02-.29,.03-.58,.04-.87v-.33c0-.25-.01-.5-.02-.75,0-.08,0-.15-.01-.23-.02-.33-.04-.66-.08-.99-.02-.21-.05-.42-.08-.62l-.06-.39v-.01c0-.01-.01-.03-.01-.04-.05-.31-.11-.62-.18-.92,0-.03-.01-.06-.02-.09-.03-.17-.07-.35-.12-.52q0-.01-.01-.02c-.02-.08-.03-.15-.05-.21-.05-.18-.1-.35-.15-.53-.02-.07-.05-.15-.07-.21-.06-.21-.13-.43-.21-.64-.14-.41-.3-.82-.48-1.21-.07-.18-.15-.36-.24-.54-.71-1.51-1.62-2.92-2.7-4.19-.14-.17-.28-.34-.44-.51-.26-.29-.53-.57-.81-.84-.19-.18-.38-.36-.58-.54s-.41-.36-.62-.53c-.06-.06-.12-.11-.18-.15-.01-.02-.03-.03-.04-.03-.04-.04-.08-.07-.12-.1-.03-.02-.06-.05-.09-.06-.06-.06-.13-.11-.2-.16-.21-.16-.42-.31-.64-.46-.01-.01-.02-.01-.03-.02-.08-.06-.17-.12-.26-.17-.09-.07-.19-.13-.29-.19-.03-.02-.07-.04-.1-.06-.23-.15-.46-.28-.69-.41-.68-.39-1.39-.74-2.12-1.04-.34-.14-.69-.27-1.05-.39-.03-.02-.07-.03-.11-.04-.36-.13-.73-.24-1.11-.34-.09-.02-.18-.05-.26-.07-.54-.14-1.1-.25-1.67-.34-.04-.01-.08-.01-.12-.02-.3-.04-.59-.08-.89-.11-.02,0-.04,0-.07-.01-.3-.03-.61-.05-.91-.06-.33-.02-.66-.03-.99-.03h-9.12c-.33,0-.66,.01-.99,.03-.26,.01-.52,.03-.78,.06-.05,0-.1,0-.15,.01-.17,.01-.33,.03-.49,.05-.08,.01-.15,.02-.22,.03-.15,.02-.3,.04-.45,.07-.48,.08-.95,.17-1.42,.29l-.48,.12c-.37,.1-.73,.21-1.09,.34-.06,.01-.12,.03-.18,.06-.35,.12-.69,.25-1.03,.39-.36,.16-.73,.32-1.09,.5-.35,.18-.71,.37-1.05,.57-.27,.15-.54,.31-.8,.48-.34,.22-.66,.44-.98,.68-.2,.15-.4,.3-.59,.45-.06,.05-.11,.09-.16,.13-.24,.21-.48,.41-.71,.62-.24,.22-.48,.44-.7,.67-.46,.46-.88,.93-1.29,1.43-.46,.57-.89,1.17-1.29,1.79-.13,.21-.26,.42-.38,.63-.13,.22-.25,.44-.37,.67-.09,.16-.17,.31-.24,.47-.09,.17-.17,.33-.24,.5l-.09,.21c-.1,.21-.19,.43-.27,.64-.1,.22-.18,.45-.26,.69-.09,.24-.17,.48-.24,.72-.08,.23-.15,.47-.21,.72-.06,.2-.11,.4-.15,.61-.03,.1-.05,.2-.08,.31-.04,.2-.08,.4-.11,.6-.08,.42-.14,.84-.19,1.28-.04,.33-.06,.66-.08,1-.02,.33-.03,.67-.03,1.01v.29c.01,.29,.02,.58,.04,.87v.04c.02,.31,.05,.61,.09,.91,0,.03,0,.06,.01,.09,.03,.32,.08,.64,.14,.97,.05,.33,.12,.66,.2,1,.01,.06,.02,.12,.04,.18,.03,.17,.08,.33,.12,.5l2.33,8.83,2.08,7.88Z"/>
    <g>
      <path class="cls-6" d="M67.327,60.138c-.567-.458-.547-1.341,.03-1.785,3.082-2.37,12.38-8.858,14.414-2.582,2.029,8.295-9.967,7.989-14.444,4.367Z"/>
      <path class="cls-6" d="M60.673,60.138c.567-.458,.547-1.341-.03-1.785-3.082-2.37-12.38-8.858-14.414-2.582-2.029,8.295,9.967,7.989,14.444,4.367Z"/>
    </g>
    <path class="cls-7" d="M61.038,69.261c1.93,0,1.934-3,0-3s-1.933,3,0,3h0Z"/>
    <g>
      <rect class="cls-2" x="62" y="26" width="4" height="15"/>
      <path class="cls-2" d="M63.79,44.36l-.74,.64-2.27,1.98-1.72-1.98-9.97-11.46-2.31-2.66c.99-.9,2.07-1.7,3.24-2.36l2.17,2.5,11.6,13.34Z"/>
      <path class="cls-2" d="M81.12,30.79l-12.36,14.21-1.72,1.98-2.28-1.98-.74-.64,13.42-15.43,.42-.48c.23,.13,.46,.27,.69,.41,.14,.08,.28,.17,.42,.27,.16,.09,.31,.2,.46,.31,.09,.06,.17,.12,.26,.19,.18,.12,.35,.25,.52,.39,.1,.08,.2,.16,.29,.24,.21,.17,.42,.35,.62,.53Z"/>
      <path class="cls-2" d="M87.44,45c-.01,1.31-.17,2.65-.48,4H41.04c-.31-1.34-.47-2.68-.48-4h46.88Z"/>
    </g>
    <path class="cls-7" d="M67,69.261c1.93,0,1.934-3,0-3s-1.934,3,0,3h0Z"/>
    <g>
      <polygon class="cls-3" points="69 35 59 35 54 43 59 51 69 51 74 43 69 35"/>
      <polygon class="cls-2" points="61.217 47 58.717 43 61.217 39 66.783 39 69.283 43 66.783 47 61.217 47"/>
    </g>
    <path class="cls-3" d="M71,71c-4.667,2.667-9.333,2.667-14,0,4.667,8,9.333,8,14,0Z"/>
    <g class="cls-13">
      <path d="M86.8,40c-1.982,0-3.52,1.682-3.395,3.66,.028,.443,.04,.89,.035,1.34-.01,1.31-.17,2.65-.48,4-.04,.23-.1,.45-.16,.68l-4.071,15.419c-.234-.059-.476-.1-.729-.1-1.657,0-3,1.343-3,3,0,1.221,.733,2.268,1.78,2.736-2.879,5.618-8.417,9.486-14.78,10.154,.66,.07,1.33,.11,2,.11,8.56,0,16.05-5.77,18.24-14.05l4.56-17.27c.06-.23,.12-.45,.16-.68,.31-1.35,.47-2.69,.48-4,.02-1.72-.21-3.4-.64-5Z"/>
    </g>
  </g>
  <g>
    <path class="cls-10" d="M43,102v6h-2v-6c0-.55,.45-1,1-1s1,.45,1,1Z"/>
    <path class="cls-10" d="M87,102v6h-2v-6c0-.55,.45-1,1-1s1,.45,1,1Z"/>
  </g>
  <polygon class="cls-1" points="108 76 106.44 81 105.99 82.42 105.5 84 104.98 85.66 103.94 89 103.26 91.19 98 108 86 108 93.13 89 95 84 96.13 81 98 76 108 76"/>
  <g class="cls-13">
    <path d="M102.5,93.61l-4.5,14.39h-3l3.729-11.925c.506-1.618,2.086-2.65,3.771-2.465h0Z"/>
  </g>
  <polygon class="cls-3" points="108 76 106.44 81 105.99 82.42 105.5 84 104.98 85.66 103.94 89 103.26 91.19 93.13 89 95 84 96.13 81 98 76 108 76"/>
  <polygon class="cls-2" points="105.99 82.42 105.5 84 104.98 85.66 97.82 84.47 95 84 96.13 81 98.98 81.41 105.99 82.42"/>
  <path class="cls-1" d="M117.918,55.505c-3.416,9.035-5.484,18.314-9.146,21.495-.796,.692-1.856,.991-2.905,.875-1.651-.184-4.714-.524-6.491-.721-.944-.105-1.84-.531-2.445-1.263-3.976-4.802-3.22-12.665-3.081-15.903,.033-.783,.677-1.395,1.461-1.395h.038c.815,0,1.478,.628,1.529,1.434,.111,1.755,.448,4.71,1.472,6.468,.597,1.026,2.178,.668,2.346-.507l2.413-16.887c.106-.74,.74-1.29,1.487-1.29h0c.856,0,1.54,.715,1.501,1.571l-1.66,12.815c-.077,1.028,1.352,1.36,1.737,.404l4.622-13.008c.226-.594,.881-.904,1.484-.703h0c.602,.201,.94,.841,.765,1.451l-3.927,13.615c-.189,.686,.74,1.096,1.12,.494l5.462-10.089c.315-.472,.907-.675,1.445-.496h0c.679,.226,1.029,.971,.776,1.64Z"/>
  <g>
    <path class="cls-4" d="M111.376,92.64c.533-.143,1.082,.173,1.225,.707,.643,2.397,3.115,3.823,5.512,3.181,.533-.143,1.082,.173,1.225,.707,.143,.533-.173,1.082-.707,1.225-2.397,.643-3.823,3.115-3.181,5.512,.143,.533-.173,1.082-.707,1.225s-1.082-.173-1.225-.707c-.643-2.397-3.115-3.823-5.512-3.18-.533,.143-1.082-.173-1.225-.707-.143-.533,.173-1.082,.707-1.225,2.397-.643,3.823-3.115,3.181-5.512-.143-.533,.173-1.082,.707-1.225Z"/>
    <path class="cls-11" d="M114.484,105.231c-.441,0-.846-.295-.965-.741-.35-1.305-1.248-2.369-2.464-2.918-.503-.228-.727-.82-.499-1.323,.227-.503,.82-.727,1.323-.499,.636,.287,1.211,.671,1.711,1.132,.289-.927,.782-1.78,1.441-2.494-.551-.171-1.082-.416-1.575-.733-.464-.298-.599-.917-.301-1.382,.298-.465,.917-.6,1.382-.301,1.073,.69,2.344,.885,3.576,.555,.533-.146,1.081,.174,1.225,.707,.143,.534-.173,1.082-.707,1.225h0c-2.395,.643-3.821,3.113-3.181,5.508,0,.002,0,.003,.001,.004h0c.143,.534-.173,1.082-.707,1.225-.087,.023-.174,.035-.26,.035Z"/>
  </g>
  <g>
    <path class="cls-1" d="M27.379,67.938c-1.66-1.458-1.832-3.976-.384-5.623,1.448-1.648,3.966-1.801,5.626-.343,1.66,1.458,1.832,3.976,.384,5.623-1.448,1.648-3.966,1.801-5.626,.343Z"/>
    <path class="cls-8" d="M30.025,69.933c-1.19,0-2.374-.424-3.306-1.243-1.002-.88-1.604-2.096-1.695-3.423-.091-1.33,.342-2.612,1.22-3.611,1.729-1.966,4.713-2.244,6.795-.631,.436,.338,.517,.966,.178,1.403-.34,.437-.967,.515-1.403,.178-1.25-.967-3.036-.804-4.068,.37-.524,.595-.782,1.361-.728,2.155,.054,.797,.416,1.527,1.02,2.057,.938,.824,2.297,.983,3.383,.394,.487-.262,1.093-.082,1.356,.403,.263,.485,.083,1.093-.403,1.356-.735,.398-1.544,.593-2.351,.593Z"/>
  </g>
  <g>
    <path class="cls-9" d="M23.534,96.777c-.328,0-.649-.161-.84-.457l-1.617-2.498c-.3-.464-.167-1.083,.296-1.383,.464-.301,1.083-.167,1.383,.296l1.617,2.498c.3,.464,.167,1.083-.296,1.383-.168,.109-.356,.161-.542,.161Z"/>
    <path class="cls-9" d="M19.724,90.888c-.328,0-.649-.161-.84-.457l-1.612-2.491c-.3-.464-.167-1.083,.296-1.383,.464-.301,1.083-.167,1.383,.296l1.612,2.491c.3,.464,.168,1.083-.296,1.383-.168,.109-.356,.161-.542,.161Z"/>
    <path class="cls-9" d="M16.627,95.297c-.328,0-.649-.161-.84-.457-.3-.464-.167-1.083,.296-1.383l2.499-1.617c.465-.302,1.082-.166,1.383,.296,.3,.464,.168,1.083-.296,1.383l-2.499,1.617c-.168,.109-.356,.161-.542,.161Z"/>
    <path class="cls-9" d="M22.516,91.486c-.328,0-.649-.161-.841-.457-.3-.463-.167-1.083,.297-1.383l2.491-1.611c.463-.3,1.082-.166,1.383,.297,.3,.463,.167,1.083-.297,1.383l-2.491,1.611c-.168,.108-.356,.16-.542,.16Z"/>
  </g>
  <g>
    <path class="cls-5" d="M87,31c-.247,0-.495-.091-.688-.274-.401-.38-.417-1.013-.038-1.414l4.91-5.18c.38-.4,1.013-.418,1.413-.038,.401,.38,.418,1.013,.038,1.414l-4.91,5.18c-.196,.207-.461,.312-.726,.312Z"/>
    <path class="cls-5" d="M96.18,21.31c-.247,0-.494-.091-.688-.274-.401-.38-.419-1.013-.039-1.414l8.82-9.31c.38-.402,1.013-.417,1.414-.039,.401,.38,.418,1.013,.039,1.414l-8.82,9.31c-.197,.208-.461,.312-.726,.312Z"/>
    <path class="cls-5" d="M88.999,34.001c-.443,0-.849-.297-.967-.746-.14-.534,.179-1.081,.713-1.222l19-5.001c.533-.141,1.081,.179,1.222,.713,.14,.534-.179,1.081-.713,1.222l-19,5.001c-.085,.022-.171,.033-.255,.033Z"/>
    <path class="cls-5" d="M84.001,29c-.021,0-.042,0-.064-.002-.551-.035-.97-.509-.935-1.06l1-16c.035-.551,.508-.972,1.06-.935,.551,.035,.97,.509,.935,1.06l-1,16c-.033,.53-.473,.938-.997,.938Z"/>
  </g>
  <g>
    <path class="cls-5" d="M39,31c-.265,0-.529-.105-.726-.312l-4.94-5.21c-.38-.401-.363-1.034,.038-1.413,.401-.38,1.033-.363,1.414,.038l4.94,5.21c.38,.401,.363,1.034-.038,1.414-.193,.184-.441,.274-.688,.274Z"/>
    <path class="cls-5" d="M29.92,21.42c-.265,0-.529-.105-.726-.312l-8.92-9.42c-.38-.401-.362-1.034,.039-1.414,.401-.379,1.034-.362,1.414,.039l8.92,9.42c.38,.401,.362,1.034-.039,1.414-.193,.183-.44,.274-.688,.274Z"/>
    <path class="cls-5" d="M37.001,34.001c-.084,0-.17-.011-.255-.033l-19-5.001c-.534-.141-.853-.688-.713-1.222,.141-.534,.687-.854,1.222-.713l19,5.001c.534,.141,.853,.688,.713,1.222-.118,.449-.524,.746-.967,.746Z"/>
    <path class="cls-5" d="M41.999,29c-.524,0-.964-.408-.997-.938l-1-16c-.035-.551,.384-1.026,.935-1.06,.559-.04,1.026,.385,1.06,.935l1,16c.035,.551-.384,1.026-.935,1.06-.021,.002-.042,.002-.064,.002Z"/>
  </g>
</svg>