<svg xmlns="http://www.w3.org/2000/svg" viewBox="0 0 512 512"><g id="Alchemy"><path d="M431,452.875h-6.6309a21.9465,21.9465,0,0,1-21.3708-17.3376L377.1755,312.875H387.25a13.125,13.125,0,0,0,0-26.25H373.3346A117.4839,117.4839,0,0,0,308.5,193.9681V137.875h8.75a13.125,13.125,0,0,0,0-26.25h-6.3831l10.5787-63.4674A13.1222,13.1222,0,0,0,308.5,32.875h-105a13.1222,13.1222,0,0,0-12.9456,15.2826l10.5787,63.4674H194.75a13.125,13.125,0,0,0,0,26.25h8.75v56.0931a117.4839,117.4839,0,0,0-64.8346,92.6569H124.75a13.125,13.125,0,0,0,0,26.25h10.0745L109.0017,435.5331A21.9365,21.9365,0,0,1,87.6394,452.875H81a13.125,13.125,0,0,0,0,26.25h6.6394a48.3076,48.3076,0,0,0,47.0483-38.1787l17.7735-84.4292a118.3133,118.3133,0,0,0,90.4138,60.5846V466a13.125,13.125,0,0,0,26.25,0V417.1017a118.3148,118.3148,0,0,0,90.4138-60.5835l17.7735,84.4324a48.3176,48.3176,0,0,0,47.0568,38.1744H431a13.125,13.125,0,0,0,0-26.25ZM293.0081,59.125l-8.75,52.5H227.7419l-8.75-52.5ZM221.5554,214.6169a13.1211,13.1211,0,0,0,8.1946-12.1637V137.875h52.5v64.5782a13.1211,13.1211,0,0,0,8.1946,12.1637,91.47,91.47,0,0,1,56.4776,72.0081H165.0778A91.47,91.47,0,0,1,221.5554,214.6169ZM256,391.625a91.94,91.94,0,0,1-90.8282-78.75H346.8282A91.94,91.94,0,0,1,256,391.625Z"/></g></svg>