<svg xmlns="http://www.w3.org/2000/svg" viewBox="0 0 512 512"><g id="Bermuda_triangle"><path d="M85.7766,204.0939l45.1,44.94A13.1236,13.1236,0,0,0,149.4021,230.44l-44.9292-44.7679a36.8311,36.8311,0,0,0,3.1659-11.9661l30.74-8.2074a13.1244,13.1244,0,0,0-6.7676-25.3613l-30.7746,8.2159a37.179,37.179,0,1,0-15.06,55.7407Zm-25.9-33.99a10.9375,10.9375,0,1,1,10.9375,10.9375A10.9476,10.9476,0,0,1,59.877,170.1043Z"/><path d="M478.373,70.9149a37.0888,37.0888,0,0,0-74.0118-3.6007l-18.8373,5.0319a13.1244,13.1244,0,1,0,6.7676,25.3614l18.8715-5.04a37.3926,37.3926,0,0,0,8.8012,8.7094L338.5183,404.2715a36.8217,36.8217,0,0,0-11.6339,3.0228l-10.412-10.3779A13.1236,13.1236,0,1,0,297.947,415.51l10.4077,10.3714a36.7944,36.7944,0,0,0-3.3325,15.2035,37.1877,37.1877,0,1,0,58.866-30.0866L445.45,107.6708A37.1057,37.1057,0,0,0,478.373,70.9149ZM441.1855,59.9774A10.9375,10.9375,0,1,1,430.248,70.9149,10.9475,10.9475,0,0,1,441.1855,59.9774ZM342.21,452.0226a10.9375,10.9375,0,1,1,10.9375-10.9375A10.9476,10.9476,0,0,1,342.21,452.0226Z"/><path d="M272.2012,342.9894h-5.708V296.2145a13.1257,13.1257,0,0,0-13.125-13.125H222.521v-19.179a13.125,13.125,0,0,0-26.25,0V283.09H178.5488v-19.179a13.125,13.125,0,0,0-26.25,0V283.09H121.4517a13.121,13.121,0,0,0-12.9627,11.0871l-7.6733,48.8128H74.3435a13.13,13.13,0,0,0-12.0483,18.3417l28.2666,65.2832a13.1375,13.1375,0,0,0,12.0483,7.9083H272.2012a13.1256,13.1256,0,0,0,13.125-13.125V356.1144A13.1257,13.1257,0,0,0,272.2012,342.9894Zm-13.125,65.2832H111.2319L94.33,369.2394h17.7051a13.1209,13.1209,0,0,0,12.9626-11.087l7.6733-48.8129H240.2432v46.7749a13.1256,13.1256,0,0,0,13.125,13.125h5.708Z"/><path d="M302.7493,221.8566V175.5432l22.5927,28.258a13.1242,13.1242,0,0,0,10.2539,4.93h17.9957a13.1283,13.1283,0,0,0,13.0395-14.6332l-6.8957-59.5666,8.5107-59.5709a13.1335,13.1335,0,0,0-12.9968-14.9793H335.5959a13.1245,13.1245,0,0,0-10.2539,4.93L302.7493,93.17V46.8566a13.1257,13.1257,0,0,0-13.125-13.125H265.126a13.1238,13.1238,0,0,0-11.2537,6.37L220.94,94.9816H193.8613c-21.9775,0-39.862,17.6624-39.862,39.375s17.8845,39.375,39.862,39.375H220.94l32.9321,54.88a13.1239,13.1239,0,0,0,11.2537,6.37h24.4983A13.1256,13.1256,0,0,0,302.7493,221.8566Zm-26.25-61.25v48.125H272.56l-32.9322-54.88a13.1131,13.1131,0,0,0-11.2536-6.37h-34.513a13.1337,13.1337,0,1,1,0-26.25h34.513a13.1132,13.1132,0,0,0,11.2536-6.37l32.9322-54.88h3.9392v48.125a13.1256,13.1256,0,0,0,13.125,13.125h17.987a13.1239,13.1239,0,0,0,10.2539-4.93l21.8579-27.3437-6.2207,43.5449a13.4173,13.4173,0,0,0-.0427,3.3624l4.8792,42.1607L317.8652,152.412a13.1242,13.1242,0,0,0-10.2539-4.93h-17.987A13.1257,13.1257,0,0,0,276.4993,160.6066Z"/></g></svg>