<svg xmlns="http://www.w3.org/2000/svg" viewBox="0 0 512 512"><g id="Crossed_fingers"><path d="M381.448,243.49,354.6938,185.738l32.129-88.27a48.1229,48.1229,0,1,0-90.4395-32.9235l-.3546.97a48.0218,48.0218,0,0,0-78.4467,53.2178l33.086,71.4259-1.9867,5.4506a47.7,47.7,0,0,0-45.4889-22.5137c-16.3208,1.5594-30.1166,11.91-37.5464,26.141a48.343,48.343,0,0,0-32.4536-8.641C108.8308,192.9232,89.75,214.623,89.75,240.0014V395.9975a83.22,83.22,0,0,0,83.125,83.125h166.25a83.22,83.22,0,0,0,83.125-83.125v-105A48.16,48.16,0,0,0,381.448,243.49Zm-32.36-183.0387a21.8827,21.8827,0,0,1,13.0737,28.0359l-23.1055,63.4867L312.9818,95.682l8.0621-22.157A21.9076,21.9076,0,0,1,349.0884,60.4512ZM240.7131,90.9694a21.873,21.873,0,0,1,40.3833-1.6577l71.1322,153.5608h-48.21L241.4053,107.7A21.7358,21.7358,0,0,1,240.7131,90.9694Zm34.4361,152.042a47.7213,47.7213,0,0,0-17.3633,4.313l8.5193-23.4035ZM186,222.5014c0-11.9971,8.6475-22.2211,19.6875-23.2763A21.8817,21.8817,0,0,1,229.75,220.9975v70a21.875,21.875,0,0,1-43.75,0V222.5014Zm-70,17.5c0-11.9971,8.6475-22.2211,19.6875-23.2763A21.8817,21.8817,0,0,1,159.75,238.4975v70a21.875,21.875,0,0,1-43.75,0V240.0014ZM396,395.9975a56.9408,56.9408,0,0,1-56.875,56.875H172.875A56.9408,56.9408,0,0,1,116,395.9975V351.31a47.9452,47.9452,0,0,0,64.5825-20.7214,47.9033,47.9033,0,0,0,62.2925-6.664,48.1155,48.1155,0,0,0,21.9861,13.3611A100.358,100.358,0,0,0,229.75,413.4975a13.125,13.125,0,0,0,26.25,0,74.4609,74.4609,0,0,1,74.375-74.375,13.125,13.125,0,0,0,0-26.25h-52.5a21.875,21.875,0,0,1,0-43.75h94.8785c.0086,0,.0214.0043.03.0043.0129,0,.0257-.0043.0385-.0043h1.3031A21.8981,21.8981,0,0,1,396,290.9975Z"/></g></svg>