<svg xmlns="http://www.w3.org/2000/svg" viewBox="0 0 512 512"><g id="Cursed_gem"><path d="M260.0887,452.2181a12.7835,12.7835,0,0,0,2.1662-.8961c.1623-.0844.3418-.1154.5041-.2073l131.1219-75.7026.064-.0353.0641-.0384c.282-.1634.4956-.4038.7648-.5864a12.6984,12.6984,0,0,0,1.9269-1.4815,12.6118,12.6118,0,0,0,3.3026-5.5937c.0812-.2756.1239-.5565.188-.8385a12.8409,12.8409,0,0,0,.3119-2.3392c.0085-.1794.0683-.346.0683-.5255V148.0264c0-.1795-.06-.3461-.0683-.5255a12.8409,12.8409,0,0,0-.3119-2.3392c-.0641-.282-.1068-.5629-.188-.8385a13.3141,13.3141,0,0,0-1.1707-2.8155c-.017-.0289-.0341-.0545-.0512-.0834a12.8853,12.8853,0,0,0-1.8671-2.4427c-.1794-.187-.38-.3482-.5725-.5255a12.6723,12.6723,0,0,0-1.9611-1.5082c-.1324-.0833-.2349-.2072-.3717-.2863L262.759,60.8853c-.1495-.0855-.3161-.1133-.47-.1934a12.82,12.82,0,0,0-2.2174-.9175c-.2692-.0844-.5256-.1837-.799-.25a13.1433,13.1433,0,0,0-3.0035-.3931h-.1453a13.1433,13.1433,0,0,0-3.0035.3931c-.2735.0662-.53.1655-.8033.25a13.0809,13.0809,0,0,0-2.2131.9165c-.1538.0811-.32.1089-.47.1944l-131.25,75.7763c-.1452.0855-.252.2147-.3973.3044a13.1389,13.1389,0,0,0-1.9055,1.4644c-.2051.19-.4187.3653-.611.5672a12.9732,12.9732,0,0,0-1.8585,2.4257c-.0171.0277-.0342.0555-.0513.0844a13.3137,13.3137,0,0,0-1.1706,2.8155c-.0812.2756-.1239.5565-.188.8385a12.8409,12.8409,0,0,0-.3119,2.3392c-.0086.1794-.0684.346-.0684.5255V363.9736c0,.18.06.3461.0684.5255a12.8409,12.8409,0,0,0,.3119,2.3392c.0641.282.1068.5629.188.8385a12.6093,12.6093,0,0,0,3.3026,5.5937,12.6935,12.6935,0,0,0,1.9269,1.4815c.2691.1826.4828.423.7647.5864l.0641.0384.0641.0353L249.634,451.1147c.1368.0791.2906.1047.4316.1784a13.0165,13.0165,0,0,0,2.2857.9453c.2521.078.4956.1709.7477.2329a13.1062,13.1062,0,0,0,3.089.4037h.0085c.0086,0,.0171-.0043.03-.0043a13.001,13.001,0,0,0,3.0378-.3952C259.5461,452.4072,259.811,452.3046,260.0887,452.2181ZM138.0715,170.758l35,20.2066V321.0354l-35,20.2066Zm236.25,170.484-35-20.2066V190.9646l35-20.2066Zm-48.125-173.0058L269.3215,135.4V94.9816l91.875,53.0469ZM256.188,353.8693l-56.8665-32.8382V190.9689l56.875-32.8382,56.875,32.8382V321.0311ZM243.0715,135.4l-56.875,32.836-35-20.2077,91.875-53.0469Zm-56.875,208.3647,56.8665,32.8339V417.012l-91.8665-53.0405Zm83.1165,32.84,56.8878-32.8392,34.9957,20.2055L269.313,417.0226Z"/><path d="M120.563,94.125A13.1256,13.1256,0,0,0,107.438,81h-17.5V46a13.125,13.125,0,0,0-26.25,0V81h-17.5a13.125,13.125,0,1,0,0,26.25h17.5v35a13.125,13.125,0,0,0,26.25,0v-35h17.5A13.1256,13.1256,0,0,0,120.563,94.125Z"/><path d="M465.812,413.5h-17.5V387.25a13.125,13.125,0,0,0-26.25,0V413.5h-17.5a13.125,13.125,0,0,0,0,26.25h17.5V466a13.125,13.125,0,0,0,26.25,0V439.75h17.5a13.125,13.125,0,0,0,0-26.25Z"/></g></svg>