<svg xmlns="http://www.w3.org/2000/svg" viewBox="0 0 512 512"><g id="Deja_vu"><path d="M282.25,59.125c-98.54,0-180.4,72.7686-194.67,167.3907L55.28,194.22a13.1236,13.1236,0,0,0-18.56,18.56l52.5,52.5A13.1239,13.1239,0,0,0,111.625,256c0-94.0839,76.5454-170.625,170.625-170.625S452.875,161.9161,452.875,256,376.33,426.625,282.25,426.625a13.125,13.125,0,0,0,0,26.25c108.5547,0,196.875-88.316,196.875-196.875S390.8047,59.125,282.25,59.125Z"/><path d="M282.25,356.625h.0085c62.284,0,120.3638-36.1835,151.5613-94.4257a13.1177,13.1177,0,0,0,0-12.3986c-31.1975-58.2422-89.2773-94.4257-151.5613-94.4257H282.25l-.0214.0011c-62.2882.0117-120.3552,36.192-151.5484,94.4246a13.1177,13.1177,0,0,0,0,12.3986c31.1932,58.2326,89.2688,94.4129,151.5484,94.4246ZM207.875,256a74.4618,74.4618,0,0,1,74.3579-74.3739l.0214-.0011a74.375,74.375,0,0,1,0,148.75l-.0214-.0011A74.4618,74.4618,0,0,1,207.875,256Zm199.31,0a158.3748,158.3748,0,0,1-32.0306,38.5846,100.2794,100.2794,0,0,0,0-77.1692A158.3748,158.3748,0,0,1,407.1853,256Zm-249.8706,0a158.2355,158.2355,0,0,1,32.0306-38.58,100.2579,100.2579,0,0,0,0,77.1606A158.2355,158.2355,0,0,1,157.3147,256Z"/><path d="M321.625,256a39.375,39.375,0,1,0-39.375,39.375A39.4181,39.4181,0,0,0,321.625,256Zm-52.5,0a13.125,13.125,0,1,1,13.125,13.125A13.1394,13.1394,0,0,1,269.125,256Z"/></g></svg>