<svg xmlns="http://www.w3.org/2000/svg" viewBox="0 0 512 512"><g id="Demon_pentagram"><path d="M479.125,255.8676a222.5826,222.5826,0,0,0-83.0524-173.4,12.7944,12.7944,0,0,0-2.2-1.7325,222.5159,222.5159,0,0,0-275.8386.0748,12.8758,12.8758,0,0,0-2.0551,1.6171A222.5805,222.5805,0,0,0,32.875,255.8676c0,121.199,97.2668,220.05,217.8784,222.8558,1.7389.1581,3.4564.4016,5.2381.4016H256c1.7859,0,3.5077-.2435,5.2509-.4016C381.8582,475.9164,479.125,377.0645,479.125,255.8676Zm-26.25,0a195.8991,195.8991,0,0,1-8.9252,58.616c-30.6762-41.4375-69.4873-59.587-86.18-65.8237.4187-62.3544,21.3111-112.9895,32.8253-136.1825A196.1247,196.1247,0,0,1,452.875,255.8676ZM260.5886,452.4894c-1.5295.0353-3.05.1164-4.5886.1164s-3.0591-.0811-4.5886-.1164a28.3475,28.3475,0,0,1-23.2678-19.5839L182.0864,296.9644a77.9707,77.9707,0,0,1-3.3923-35.9923c.0726-.4048.1282-.8086.1623-1.2209q.4294-2.7269,1.0468-5.4143a12.484,12.484,0,0,0,.3931-1.49,78.2521,78.2521,0,0,1,75.661-58.9129c.0256.001.0512,0,.0769,0A78.232,78.232,0,0,1,331.7,252.832a13.02,13.02,0,0,0,.4058,1.5252c.41,1.7817.752,3.5782,1.0383,5.3876a11.8917,11.8917,0,0,0,.1709,1.238,78.04,78.04,0,0,1-3.3924,35.9816L283.865,432.9055A28.3684,28.3684,0,0,1,260.5886,452.4894Zm56.7041-264.8573a104.3584,104.3584,0,0,0-38.1659-17.327c14.0735-17.9,41.2293-45.5038,82.967-59.2355a349.2275,349.2275,0,0,0-27.1729,92.7572A105.1648,105.1648,0,0,0,317.2927,187.6321Zm-140.2179,16.19a349.2683,349.2683,0,0,0-27.1515-92.7274c41.52,13.7317,68.7311,41.3254,82.873,59.2249a104.3509,104.3509,0,0,0-38.089,17.312h-.0086A105.4186,105.4186,0,0,0,177.0748,203.8226Zm-25.1605,74.4465a104.8912,104.8912,0,0,0,5.3064,27.12l14.4324,42.5911L86.87,333.1692A172.0442,172.0442,0,0,1,151.9143,278.2691Zm202.8735,27.1163a104.884,104.884,0,0,0,5.3022-27.1942,170.7223,170.7223,0,0,1,65.0653,54.978l-84.8,14.81Zm.1539-219.502c-51.1585,16.42-83.266,50.4685-98.9417,71.3555-15.6757-20.887-47.7832-54.9353-98.9417-71.3555a196.3023,196.3023,0,0,1,197.8834,0Zm-233.537,26.594C132.9232,135.679,153.8113,186.3108,154.23,248.66c-16.6925,6.2367-55.5036,24.3872-86.1756,65.83a196.3863,196.3863,0,0,1,53.35-202.0126Zm-32.18,247.7514,92.0245,16.073,22.0288,65.0247c.5469,1.6129,1.2989,3.0869,1.97,4.6164A197.5667,197.5667,0,0,1,89.2245,360.2288Zm217.5409,85.712c.6665-1.5285,1.4184-2.9993,1.9653-4.61l22.0331-65.03,92.0117-16.072A197.58,197.58,0,0,1,306.7654,445.9408Z"/><path d="M237.3379,312.0376l-18.4656-8.2117a13.1247,13.1247,0,0,0-10.664,23.9856l18.4655,8.2117a13.1247,13.1247,0,0,0,10.6641-23.9856Z"/><path d="M293.1277,303.8259l-18.457,8.2117a13.1247,13.1247,0,1,0,10.664,23.9856l18.457-8.2117a13.1247,13.1247,0,0,0-10.664-23.9856Z"/></g></svg>