<svg xmlns="http://www.w3.org/2000/svg" viewBox="0 0 512 512"><g id="Holy_water"><path d="M308.5,157.2848v-28.16h8.7585A13.1256,13.1256,0,0,0,330.3835,116V46a13.1256,13.1256,0,0,0-13.125-13.125h-122.5A13.1257,13.1257,0,0,0,181.6335,46v70a13.1257,13.1257,0,0,0,13.125,13.125H203.5v28.16A135.5215,135.5215,0,0,0,120.375,282.25V466A13.1256,13.1256,0,0,0,133.5,479.125h245A13.1256,13.1256,0,0,0,391.625,466V282.25A135.5215,135.5215,0,0,0,308.5,157.2848ZM207.8835,59.125h96.25v43.75h-96.25ZM365.375,452.875H146.625V282.25a109.2933,109.2933,0,0,1,74.2212-103.4833,13.1244,13.1244,0,0,0,8.9038-12.4286V129.125h52.5v37.2131a13.1244,13.1244,0,0,0,8.9038,12.4286A109.2933,109.2933,0,0,1,365.375,282.25Z"/><path d="M308.5,278.973H269.125V239.598a13.125,13.125,0,0,0-26.25,0v39.375H203.5a13.125,13.125,0,0,0,0,26.25h39.375v83.125a13.125,13.125,0,0,0,26.25,0V305.223H308.5a13.125,13.125,0,0,0,0-26.25Z"/></g></svg>