<svg xmlns="http://www.w3.org/2000/svg" viewBox="0 0 512 512"><g id="Psychic"><path d="M462.7652,74.6776c-25.9424-44.942-92.61-55.2-148.5876-22.8748-51.167,29.5441-75.8533,84.552-59.9384,128.1141L220.867,199.1814a84.2955,84.2955,0,0,0-30.8044,30.8044l-19.4739,33.7279a53.6851,53.6851,0,0,0-61.0278,24.7237L45.9354,398.6455A53.613,53.613,0,0,0,65.5545,471.884v.0043a53.6523,53.6523,0,0,0,73.2385-19.6234l63.6341-110.2082a53.67,53.67,0,0,0-9.1089-65.2159l19.4739-33.7257a58.0809,58.0809,0,0,1,21.2-21.2l33.3466-19.2527c13.4283,16.1691,33.1457,26.75,56.9647,30.045a115.792,115.792,0,0,0,15.8679,1.0766c22.8748,0,46.5528-6.5368,68.1116-18.9868,26.6-15.3552,47.0227-38.0035,57.4988-63.775C476.7191,124.11,475.651,96.9969,462.7652,74.6776ZM179.6976,328.9317,116.0636,439.14a27.3666,27.3666,0,0,1-47.3987-27.3694L132.29,301.5624a27.37,27.37,0,0,1,47.4072,27.3693Zm261.7651-187.796c-8.2886,20.3925-24.7375,38.4778-46.3049,50.932-21.5759,12.45-45.4932,17.6538-67.2571,14.6332-20.5762-2.8455-36.7261-12.7533-45.4761-27.9034-18.7048-32.4024,1.427-79.1773,44.878-104.2652,18.1237-10.459,37.478-15.5218,55.2429-15.5218,24.84,0,46.5784,9.8993,57.49,28.7921C448.7772,102.9527,449.29,121.8926,441.4627,141.1357Z"/><path d="M99.606,157.4608a13.1236,13.1236,0,0,0,21.3452,4.11L138.7418,143.78l15.9875,37.3028A13.1263,13.1263,0,1,0,178.86,170.7439l-23.6267-55.1233a13.1235,13.1235,0,0,0-21.3452-4.11l-17.7906,17.79L100.11,91.9939a13.1263,13.1263,0,1,0-24.1309,10.3393Z"/><path d="M292.2171,333.9667a13.1057,13.1057,0,0,0-12.2876-.6324l-14.15,6.5967-1.5466-27.6941a13.1285,13.1285,0,0,0-26.2158,1.47l2.6318,47.0484a13.1265,13.1265,0,0,0,18.6536,11.16l14.15-6.5967,1.5466,27.6941a13.1331,13.1331,0,0,0,13.0994,12.39c.2392,0,.4956-.0085.7434-.0214a13.13,13.13,0,0,0,12.373-13.8385l-2.6318-47.0483A13.1433,13.1433,0,0,0,292.2171,333.9667Z"/><path d="M355.7078,263.0333a13.1277,13.1277,0,0,0-21.4648,3.4393l-6.5967,14.15L308.668,260.4057a13.1271,13.1271,0,0,0-19.1406,17.97l32.2486,34.3506a13.1277,13.1277,0,0,0,21.4648-3.4393l6.5967-14.15,18.9868,20.2173a13.1271,13.1271,0,0,0,19.1406-17.97Z"/></g></svg>