<svg xmlns="http://www.w3.org/2000/svg" viewBox="0 0 512 512"><g id="Spellbook"><path d="M413.5,32.875H151A65.6968,65.6968,0,0,0,85.375,98.5V378.4786a13.0574,13.0574,0,0,0,.3033,2.76c-.1794,1.9686-.3033,3.9542-.3033,5.9687V413.5A65.6968,65.6968,0,0,0,151,479.125H413.5A13.1256,13.1256,0,0,0,426.625,466V46A13.1256,13.1256,0,0,0,413.5,32.875ZM164.125,59.125h236.25v262.5H164.125Zm-26.25,2.4182V322.9409a65.21,65.21,0,0,0-26.25,11.9127V98.5A39.3131,39.3131,0,0,1,137.875,61.5432ZM151,452.875A39.4181,39.4181,0,0,1,111.625,413.5V387.2073a39.378,39.378,0,0,1,39.3323-39.3323H400.375v17.5H151a13.125,13.125,0,0,0,0,26.25H400.375v17.5H151a13.125,13.125,0,0,0,0,26.25H400.375v17.5Z"/><path d="M349.9087,190.375l22.456-38.9008A13.125,13.125,0,0,0,361,131.7867H316.0793l-22.4646-38.905a13.1217,13.1217,0,0,0-22.7294,0l-22.4646,38.905H203.5a13.125,13.125,0,0,0-11.3647,19.6875l22.456,38.9008-22.456,38.905A13.125,13.125,0,0,0,203.5,248.9675h44.9207l22.4646,38.9051a13.1217,13.1217,0,0,0,22.7294,0l22.4646-38.9051H361A13.125,13.125,0,0,0,372.3647,229.28ZM308.5,222.7175a13.12,13.12,0,0,0-11.3647,6.5625L282.25,255.06l-14.8853-25.78A13.12,13.12,0,0,0,256,222.7175H226.23l14.8852-25.78a13.0992,13.0992,0,0,0,0-13.125L226.238,158.0367H256a13.12,13.12,0,0,0,11.3647-6.5625l14.8853-25.78,14.8853,25.78A13.12,13.12,0,0,0,308.5,158.0367h29.762l-14.8767,25.7758a13.0992,13.0992,0,0,0,0,13.125l14.8852,25.78Z"/></g></svg>