<svg id="Capa_1" enable-background="new 0 0 512 512" viewBox="0 0 512 512" xmlns="http://www.w3.org/2000/svg"><g><g><circle cx="256" cy="41.712" fill="#d2dcfd" r="31.712"/><path d="m371.29 152.524-29.692-41.399c-16.973-23.665-44.311-37.7-73.433-37.7h-24.329c-29.123 0-56.46 14.035-73.433 37.7l-29.692 41.399c-7.11 9.914-4.837 23.714 5.076 30.824 9.914 7.11 23.714 4.837 30.825-5.076l26.056-36.33 23.435 165.574h59.795l23.435-165.574 26.056 36.33c7.11 9.914 20.911 12.186 30.825 5.076 9.913-7.109 12.186-20.91 5.076-30.824z" fill="#d2dcfd"/><path d="m213.544 78.663c-17.13 6.097-32.266 17.298-43.142 32.463l-29.692 41.399c-7.11 9.914-4.838 23.714 5.076 30.824 9.914 7.11 23.714 4.838 30.825-5.076l26.056-36.33 23.435 165.574h59.795l11.909-84.139c-49.177-29.931-82.462-83.373-84.262-144.715z" fill="#93b2f4"/><path d="m76.573 502h375.006c13.132 0 23.777-10.645 23.777-23.777 0-11.498-8.227-21.348-19.541-23.396l-253.959-45.979c-51.357-9.298-101.69 20.759-117.862 70.382z" fill="#fd6050"/><path d="m455.815 454.827-194.241-35.167v38.16l26.684 7.572.381 28.593-27.065 8.015h190.005c13.132 0 23.777-10.645 23.777-23.777 0-11.497-8.228-21.348-19.541-23.396z" fill="#6864f7"/><circle cx="74.432" cy="464.213" fill="#fde0be" r="37.787"/></g><g><path d="m457.596 444.987-253.96-45.979c-19.545-3.539-39.749-1.922-58.424 4.673-14.803 5.228-28.41 13.484-39.873 24.127-8.339-7.091-19.129-11.383-30.907-11.383-26.35 0-47.787 21.438-47.787 47.788s21.437 47.787 47.787 47.787h377.147c18.625 0 33.777-15.152 33.777-33.777-.001-16.346-11.675-30.324-27.76-33.236zm-410.951 19.226c0-15.322 12.465-27.788 27.787-27.788s27.788 12.465 27.788 27.788c0 15.322-12.465 27.787-27.788 27.787-15.322 0-27.787-12.465-27.787-27.787zm66.628 27.787c5.622-7.836 8.946-17.428 8.946-27.787 0-7.318-1.659-14.255-4.612-20.462 21.678-20.904 52.635-30.463 82.466-25.063l51.5 9.324v19.808h-79.053c-5.523 0-10 4.477-10 10s4.477 10 10 10h99.094c6.667 0 12.09 5.423 12.09 12.09s-5.423 12.09-12.089 12.09zm338.306 0h-150.247c1.525-3.734 2.372-7.814 2.372-12.09 0-17.694-14.396-32.09-32.09-32.09h-.041v-16.187l182.459 33.034c6.561 1.188 11.322 6.889 11.322 13.556.001 7.597-6.179 13.777-13.775 13.777z" fill="#052a75"/><path d="m139.958 191.475c14.378 10.313 34.466 7.005 44.779-7.374l11.523-16.066 19.941 140.884c.698 4.932 4.92 8.599 9.901 8.599h59.795c4.981 0 9.203-3.667 9.901-8.599l19.941-140.884 11.523 16.066c4.996 6.965 12.405 11.568 20.862 12.961 8.458 1.394 16.951-.591 23.917-5.587 6.965-4.995 11.568-12.404 12.961-20.862s-.591-16.951-5.587-23.917l-29.691-41.399c-14.487-20.199-35.911-34.117-59.736-39.448 4.856-6.818 7.725-15.146 7.725-24.136-.001-23.001-18.713-41.713-41.713-41.713s-41.712 18.712-41.712 41.712c0 8.99 2.868 17.318 7.725 24.136-23.826 5.332-45.25 19.25-59.736 39.448l-29.691 41.399c-4.996 6.965-6.98 15.459-5.587 23.917 1.391 8.458 5.994 15.867 12.959 20.863zm116.042-171.475c11.972 0 21.712 9.74 21.712 21.712s-9.74 21.713-21.712 21.713-21.712-9.74-21.712-21.712 9.74-21.713 21.712-21.713zm-107.164 138.353 29.691-41.399c15.058-20.995 39.473-33.529 65.308-33.529h24.329c25.836 0 50.25 12.534 65.308 33.529l29.691 41.399c1.882 2.624 2.629 5.824 2.105 9.01-.525 3.187-2.259 5.978-4.883 7.86-2.625 1.882-5.822 2.631-9.011 2.105-3.186-.525-5.978-2.259-7.86-4.883l-26.056-36.33c-2.381-3.32-6.543-4.859-10.511-3.883-3.968.974-6.944 4.265-7.517 8.31l-22.218 156.975h-42.427l-22.218-156.975c-.573-4.045-3.549-7.336-7.517-8.31-3.967-.976-8.13.563-10.511 3.883l-26.056 36.33c-3.885 5.417-11.454 6.664-16.871 2.778-2.624-1.882-4.358-4.673-4.883-7.86-.522-3.186.226-6.386 2.107-9.01z" fill="#052a75"/><g fill="#fdcb50"><path d="m256 341.696c-5.523 0-10 4.477-10 10v23.784c0 5.523 4.477 10 10 10s10-4.477 10-10v-23.784c0-5.523-4.477-10-10-10z"/><path d="m201.78 331.656c-5.523 0-10 4.477-10 10v23.784c0 5.523 4.477 10 10 10s10-4.477 10-10v-23.784c0-5.523-4.477-10-10-10z"/><path d="m157.6 271.411c-5.523 0-10 4.477-10 10v43.866c0 5.523 4.477 10 10 10s10-4.477 10-10v-43.866c0-5.523-4.477-10-10-10z"/><path d="m310.22 331.656c-5.523 0-10 4.477-10 10v23.784c0 5.523 4.477 10 10 10s10-4.477 10-10v-23.784c0-5.523-4.477-10-10-10z"/><path d="m354.4 271.411c-5.523 0-10 4.477-10 10v43.866c0 5.523 4.477 10 10 10s10-4.477 10-10v-43.866c0-5.523-4.477-10-10-10z"/></g></g></g><g/><g/><g/><g/><g/><g/><g/><g/><g/><g/><g/><g/><g/><g/><g/></svg>