<svg id="Capa_1" enable-background="new 0 0 512 512" viewBox="0 0 512 512" xmlns="http://www.w3.org/2000/svg"><g><g><path d="m206.473 105.408h219.422c16.636 0 30.122 13.486 30.122 30.122v336.347c0 16.636-13.486 30.122-30.122 30.122h-219.3c-16.636 0-30.122-13.486-30.122-30.122v-65.286-271.183c0-16.568 13.431-30 30-30z" fill="#fd6050"/><path d="m206.473 105.408c-16.569 0-30 13.432-30 30v271.183 40h129.054c38.598 0 70-31.402 70-70v-271.183z" fill="#db4b86"/><path d="m220.652 149.588v276.41c17.575 0 31.823 14.247 31.823 31.822h127.54c0-17.575 14.247-31.822 31.822-31.822v-244.588c-17.575 0-31.822-14.247-31.822-31.822z" fill="#d2dcfd"/><path d="m220.652 149.588v276.41c13.622 0 25.239 8.561 29.778 20.594h55.096c38.598 0 70-31.402 70-70v-227.004z" fill="#93b2f4"/><path d="m305.527 406.592h-219.544c-16.569 0-30-13.431-30-30v-336.592c0-16.569 13.431-30 30-30h219.544c16.569 0 30 13.431 30 30v336.592c0 16.568-13.431 30-30 30z" fill="#fd6050"/><path d="m291.348 330.59v-244.588c-17.575 0-31.822-14.247-31.822-31.822h-127.54c0 17.575-14.247 31.822-31.823 31.822v244.588c17.575 0 31.823 14.247 31.823 31.822h127.54c-.001-17.575 14.246-31.822 31.822-31.822z" fill="#d2dcfd"/><circle cx="195.755" cy="208.296" fill="#fdcb50" r="95.592"/><path d="m195.755 116.243 20.667 63.607h66.881l-54.108 39.311 20.667 63.607-54.107-39.311-54.107 39.311 20.667-63.607-54.107-39.311h66.88z" fill="#fd8f01"/></g><g fill="#052a75"><path d="m425.895 95.408h-80.367v-55.408c0-22.056-17.944-40-40-40h-219.545c-22.056 0-40 17.944-40 40v336.592c0 22.056 17.944 40 40 40h80.49v55.286c0 22.124 17.999 40.123 40.123 40.123h219.299c22.124 0 40.123-17.999 40.123-40.123v-336.347c-.001-22.124-18-40.123-40.123-40.123zm-80.368 281.184v-217.004h25.695c3.705 15.042 15.572 26.91 30.615 30.614v227.004c-15.042 3.705-26.91 15.572-30.615 30.614h-109.955c-3.705-15.042-15.572-26.91-30.615-30.614v-.614h74.875c22.056 0 40-17.944 40-40zm-279.544 0v-336.592c0-11.028 8.972-20 20-20h219.544c11.028 0 20 8.972 20 20v336.592c0 11.028-8.972 20-20 20h-219.544c-11.028 0-20-8.972-20-20zm380.034 95.285c0 11.096-9.027 20.123-20.123 20.123h-219.299c-11.096 0-20.123-9.027-20.123-20.123v-55.286h24.18v9.406c0 5.523 4.477 10 10 10 12.033 0 21.823 9.79 21.823 21.822 0 5.523 4.477 10 10 10h127.54c5.523 0 10-4.477 10-10 0-12.033 9.79-21.822 21.823-21.822 5.523 0 10-4.477 10-10v-244.587c0-5.523-4.477-10-10-10-12.033 0-21.823-9.79-21.823-21.822 0-5.523-4.477-10-10-10h-34.487v-24.18h80.367c11.096 0 20.123 9.027 20.123 20.123v336.346z"/><path d="m291.348 76.002c-12.033 0-21.823-9.79-21.823-21.822 0-5.523-4.477-10-10-10h-127.54c-5.523 0-10 4.477-10 10 0 12.033-9.79 21.822-21.823 21.822-5.523 0-10 4.477-10 10v244.587c0 5.523 4.477 10 10 10 12.033 0 21.823 9.79 21.823 21.823 0 5.523 4.477 10 10 10h127.54c5.523 0 10-4.477 10-10 0-12.033 9.79-21.823 21.823-21.823 5.523 0 10-4.477 10-10v-244.587c0-5.523-4.477-10-10-10zm-10 245.795c-15.042 3.705-26.91 15.572-30.615 30.615h-109.956c-3.705-15.042-15.572-26.91-30.615-30.615v-51.741c19.199 26.533 50.412 43.832 85.592 43.832 35.181 0 66.393-17.298 85.593-43.832v51.741zm-171.185-113.501c0-47.196 38.396-85.592 85.592-85.592s85.593 38.396 85.593 85.592-38.397 85.592-85.593 85.592-85.592-38.396-85.592-85.592zm85.592-105.592c-35.181 0-66.393 17.298-85.592 43.832v-51.742c15.042-3.705 26.91-15.572 30.615-30.614h109.956c3.705 15.042 15.572 26.91 30.615 30.614v51.741c-19.201-26.533-50.413-43.831-85.594-43.831z"/></g></g><g/><g/><g/><g/><g/><g/><g/><g/><g/><g/><g/><g/><g/><g/><g/></svg>