<svg id="Capa_1" enable-background="new 0 0 512 512" viewBox="0 0 512 512" xmlns="http://www.w3.org/2000/svg"><g><g><path d="m109.983 202.32c0 12.2 9.89 22.09 22.09 22.09 12.2 0 22.09-9.89 22.09-22.09v-108.178h202.711l72.241 72.241c9.025 9.025 23.656 9.025 32.681 0 8.279-8.279 9.058-21.441 1.813-30.639l-81.386-103.328-189.935-21.925c-43.843-5.061-82.305 29.216-82.305 73.35z" fill="#67ccd1"/><circle cx="76.709" cy="56.355" fill="#fde0be" r="33.274"/><path d="m109.983 202.32c0 12.2 9.89 22.09 22.09 22.09s22.09-9.89 22.09-22.09v-22.09h-44.179v22.09z" fill="#fde0be"/><path d="m463.609 135.744-81.386-103.328-113.858-13.143v74.869h88.509l72.241 72.241c9.025 9.025 23.656 9.025 32.681 0 8.279-8.279 9.058-21.442 1.813-30.639z" fill="#6864f7"/><path d="m85.015 367.496h-53.015c-12.15 0-22-9.85-22-22v-6.818c0-12.15 9.85-22 22-22h53.015c12.15 0 22 9.85 22 22v6.818c0 12.15-9.85 22-22 22z" fill="#fff"/><path d="m502 451.839h-492v-54.343c0-16.569 13.431-30 30-30h432c16.569 0 30 13.431 30 30z" fill="#d2dcfd"/><path d="m502 397.496c0-16.568-13.431-30-30-30h-367.374v84.343h397.374z" fill="#bc9af4"/><g fill="#6864f7"><path d="m222.5 376.837c0-3.152.157-6.267.456-9.341h-118.33v84.343h154.289c-22.176-17.476-36.415-44.576-36.415-75.002z"/><path d="m32.09 451.839h44.18v50.156h-44.18z"/><path d="m437.739 451.839h44.18v50.156h-44.18z"/></g></g><g><g fill="#fd6050"><path d="m256 196.606c-5.522 0-10 4.477-10 10v108.697c0 5.523 4.478 10 10 10s10-4.477 10-10v-108.697c0-5.523-4.478-10-10-10z"/><path d="m310.221 156.443c-5.522 0-10 4.477-10 10v108.697c0 5.523 4.478 10 10 10s10-4.477 10-10v-108.697c0-5.523-4.478-10-10-10z"/><path d="m201.779 156.443c-5.522 0-10 4.477-10 10v108.697c0 5.523 4.478 10 10 10s10-4.477 10-10v-108.697c0-5.523-4.477-10-10-10z"/></g><g fill="#052a75"><path d="m76.709 99.628c8.564 0 16.548-2.511 23.274-6.821v109.513c0 17.694 14.396 32.09 32.09 32.09s32.09-14.396 32.09-32.09v-98.178h188.568l69.312 69.312c6.253 6.254 14.567 9.698 23.411 9.698 8.845 0 17.158-3.444 23.412-9.698 11.854-11.855 12.972-30.727 2.598-43.897l-81.385-103.329c-1.647-2.093-4.062-3.441-6.709-3.747l-189.935-21.924c-23.728-2.738-47.562 4.804-65.394 20.695-4.986 4.444-9.377 9.43-13.116 14.828-7.282-13.669-21.677-23-38.216-23-23.861 0-43.273 19.413-43.273 43.274 0 23.862 19.412 43.274 43.273 43.274zm55.364 114.782c-6.666 0-12.09-5.423-12.09-12.09v-12.09h24.18v12.09c0 6.666-5.424 12.09-12.09 12.09zm323.68-72.479c4.107 5.215 3.665 12.687-1.028 17.381-2.476 2.476-5.768 3.839-9.27 3.839-3.501 0-6.793-1.363-9.269-3.84l-72.241-72.241c-1.876-1.875-4.419-2.929-7.071-2.929h-78.509v-53.647l98.577 11.379zm-314.405-105.747c11.746-10.468 26.913-16.179 42.489-16.179 2.428 0 4.867.139 7.305.42l67.224 7.76v55.957h-104.203c-5.522 0-10 4.477-10 10v76.088h-24.18v-86.389c0-18.187 7.788-35.557 21.365-47.657zm-64.639-3.103c12.834 0 23.274 10.44 23.274 23.274 0 12.833-10.44 23.273-23.274 23.273-12.833 0-23.273-10.44-23.273-23.273 0-12.834 10.44-23.274 23.273-23.274z"/><path d="m472 357.496h-357.328c1.506-3.708 2.343-7.757 2.343-12v-6.817c0-17.645-14.355-32-32-32h-53.015c-17.645 0-32 14.355-32 32v6.817c0 9.708 4.351 18.413 11.198 24.286-6.926 7.195-11.198 16.962-11.198 27.714v54.343c0 5.523 4.478 10 10 10h12.09v40.156c0 5.523 4.478 10 10 10h44.18c5.522 0 10-4.477 10-10v-40.156h341.47v40.156c0 5.523 4.478 10 10 10h44.179c5.522 0 10-4.477 10-10v-40.156h10.081c5.522 0 10-4.477 10-10v-54.343c0-22.056-17.944-40-40-40zm-327.17 20v64.343h-30.204v-64.343zm-124.83-38.817c0-6.617 5.383-12 12-12h53.016c6.617 0 12 5.383 12 12v6.817c0 6.617-5.383 12-12 12h-53.016c-6.617 0-12-5.383-12-12zm0 58.817c0-11.028 8.972-20 20-20h54.626v64.343h-74.626zm46.27 94.499h-24.18v-30.156h24.18zm405.648 0h-24.179v-30.156h24.179zm20.082-50.156h-327.17v-64.343h307.17c11.028 0 20 8.972 20 20z"/></g></g></g><g/><g/><g/><g/><g/><g/><g/><g/><g/><g/><g/><g/><g/><g/><g/></svg>