<svg id="Capa_1" enable-background="new 0 0 512 512" viewBox="0 0 512 512" xmlns="http://www.w3.org/2000/svg"><g><g><path d="m117.212 457.82h277.575v44.18h-277.575z" fill="#6864f7"/><path d="m313.273 457.82 35.541-332.916-92.814-92.814-92.814 92.814 35.541 332.916z" fill="#d2dcfd"/><path d="m167.828 168.383 30.899 289.438h114.546l13.733-128.639c-78.09-20.535-139.415-82.399-159.178-160.799z" fill="#93b2f4"/><path d="m326.565 322.113 42.145-94.549 91.084-25.363 25.363 91.084-114.591 164.535h-57.293z" fill="#b1d952"/><path d="m381.432 224.021-12.722 3.543-42.145 94.549-13.292 135.707h43.199z" fill="#91b706"/><path d="m141.434 457.82-114.591-164.535 25.363-91.084 91.084 25.363 42.633 95.645 12.804 134.611z" fill="#fd6050"/><path d="m130.568 224.021 24.96 233.799h43.199l-12.804-134.611-42.633-95.645z" fill="#db4b86"/></g><g><path d="m494.79 290.603-25.362-91.084c-.711-2.555-2.409-4.723-4.718-6.026s-5.041-1.637-7.598-.925l-91.084 25.363c-2.872.799-5.237 2.839-6.451 5.562l-14.768 33.131 13.949-130.658c.321-3.006-.735-5.995-2.873-8.132l-92.813-92.814c-3.905-3.905-10.237-3.905-14.143 0l-92.813 92.814c-2.138 2.137-3.193 5.126-2.873 8.132l13.949 130.658-14.768-33.131c-1.214-2.723-3.579-4.763-6.451-5.562l-91.084-25.363c-2.556-.713-5.288-.379-7.598.925-2.31 1.303-4.007 3.471-4.718 6.026l-25.363 91.084c-.8 2.872-.276 5.951 1.427 8.397l103.646 148.82h-5.071c-5.523 0-10 4.477-10 10v34.18h-24.883c-5.523 0-10 4.477-10 10s4.477 10 10 10h347.343c5.523 0 10-4.477 10-10s-4.477-10-10-10h-24.884v-34.18c0-5.523-4.477-10-10-10h-5.071l103.646-148.82c1.703-2.446 2.227-5.525 1.427-8.397zm-85.01-20.129-25.007-37.002 54.447-15.161zm46.857-42.333 15.161 54.447-44.601-2.284zm-86.126 19.946 28.284 41.85-70.966 125.738 10.084-94.457zm-104.511-191.855 65.922 65.922-65.922 32.879zm-20 98.801-65.922-32.879 65.922-65.922zm0 22.35v270.437h-38.284l-32.648-305.815zm20 0 70.932-35.378-32.648 305.815h-38.284zm-91.913 143.836 10.084 94.457-70.966-125.738 28.284-41.85zm-101.307-102.908 54.447 15.161-25.007 37.002zm-17.417 9.83 29.44 52.163-44.601 2.284zm-10.02 74.21 50.445-2.584 83.56 148.053h-32.693zm81.869 189.649v-24.18h257.575v24.18zm205.44-44.18 83.56-148.053 50.445 2.584-101.312 145.469z" fill="#052a75"/><g fill="#fdcb50"><path d="m123.961 56.98c-25.905 0-46.981-21.075-46.981-46.98 0-5.523-4.477-10-10-10s-10 4.477-10 10c0 25.905-21.075 46.98-46.98 46.98-5.523 0-10 4.477-10 10s4.477 10 10 10c25.905 0 46.98 21.076 46.98 46.981 0 5.523 4.477 10 10 10s10-4.477 10-10c0-25.905 21.076-46.981 46.981-46.981 5.523 0 10-4.477 10-10s-4.477-10-10-10zm-56.981 31.805c-5.479-8.842-12.961-16.325-21.804-21.804 8.842-5.479 16.325-12.961 21.804-21.804 5.479 8.842 12.962 16.325 21.804 21.804-8.842 5.478-16.325 12.961-21.804 21.804z"/><path d="m502 87.103c-25.905 0-46.98-21.075-46.98-46.98 0-5.523-4.477-10-10-10s-10 4.477-10 10c0 25.905-21.076 46.98-46.981 46.98-5.523 0-10 4.477-10 10s4.477 10 10 10c25.905 0 46.981 21.075 46.981 46.98 0 5.523 4.477 10 10 10s10-4.477 10-10c0-25.905 21.075-46.98 46.98-46.98 5.523 0 10-4.477 10-10s-4.477-10-10-10zm-56.98 31.804c-5.479-8.842-12.962-16.325-21.804-21.804 8.842-5.479 16.325-12.961 21.804-21.804 5.479 8.842 12.961 16.325 21.804 21.804-8.843 5.479-16.325 12.961-21.804 21.804z"/></g></g></g><g/><g/><g/><g/><g/><g/><g/><g/><g/><g/><g/><g/><g/><g/><g/></svg>