<svg id="Capa_1" enable-background="new 0 0 502 502" viewBox="0 0 502 502" xmlns="http://www.w3.org/2000/svg"><g><g><path d="m193.135 196.958v-32.09c0-12.2 9.89-22.09 22.09-22.09 12.2 0 22.09 9.89 22.09 22.09v32.09z" fill="#fdcb50"/><path d="m98.847 251.219v31.733c0 49.909 40.459 90.367 90.367 90.367h52.022c45.685 0 83.446-33.903 89.51-77.921h33.897c24.4 0 44.179-19.78 44.179-44.18h-309.975z" fill="#fdcb50"/><path d="m169.6 251.219h-70.753v31.733c0 49.909 40.459 90.367 90.367 90.367h32.112c-31.505-31.229-51.178-74.365-51.726-122.1z" fill="#fd8f01"/><path d="m493.968 167.909v-49.229c0-24.4-19.78-44.18-44.18-44.18v28.161c0 8.847-7.172 16.019-16.019 16.019-16.636 0-30.123 13.486-30.123 30.122v14.057h-8.881c-16.636 0-30.122 13.486-30.122 30.122v58.237h44.18v-34.138c0-5.545 4.495-10.041 10.041-10.041h61.046c12.2 0 22.09-9.89 22.09-22.09 0-6.859-3.127-12.988-8.032-17.04z" fill="#b1d952"/><path d="m289.823 251.219h-149.196v-7.339c0-31.437 25.485-56.922 56.922-56.922h35.352c31.437 0 56.922 25.485 56.922 56.922z" fill="#fd8f01"/><path d="m271.005 417.499h-111.56v-.18c0-24.301 19.699-44 44-44h23.56c24.301 0 44 19.699 44 44z" fill="#fd6050"/></g><g><path d="m108.847 251.219v-3.375c0-30.009-24.414-54.423-54.423-54.423s-54.424 24.413-54.424 54.423v6.75c0 30.009 24.414 54.423 54.423 54.423h42.28v-20h-42.28c-18.981 0-34.423-15.442-34.423-34.423v-6.75c0-18.981 15.442-34.423 34.423-34.423s34.423 15.442 34.423 34.423v3.375z" fill="#fd8f01"/><path d="m408.823 241.219h-109.067c-1.211-30.768-23.285-56.253-52.441-62.681v-13.67c0-17.694-14.396-32.09-32.09-32.09s-32.09 14.396-32.09 32.09v13.67c-29.156 6.428-51.23 31.913-52.441 62.681h-31.847c-5.523 0-10 4.477-10 10v31.733c0 46.743 32.12 86.125 75.447 97.235-7.047 7.426-12.005 16.842-13.937 27.312h-28.605c-5.523 0-10 4.477-10 10s4.477 10 10 10h186.946c5.522 0 10-4.477 10-10s-4.478-10-10-10h-28.605c-1.935-10.482-6.902-19.908-13.961-27.337 15.187-3.886 29.366-11.283 41.317-21.784 15.916-13.984 26.946-32.553 31.623-52.979h25.571c29.875 0 54.18-24.305 54.18-54.18 0-5.523-4.477-10-10-10zm-193.598-88.441c6.667 0 12.09 5.423 12.09 12.09v12.09h-24.18v-12.09c0-6.666 5.424-12.09 12.09-12.09zm-17.676 44.18h35.352c24.981 0 45.464 19.62 46.848 44.261h-129.047c1.382-24.641 21.866-44.261 46.847-44.261zm-65.722 142.182h166.75c-14.707 14.964-35.136 24.18-57.34 24.18h-52.022c-22.463 0-42.791-9.274-57.388-24.18zm39.064 68.359c4.224-13.975 17.22-24.18 32.555-24.18h23.56c15.334 0 28.331 10.205 32.555 24.18zm193.753-122.1h-33.897c-4.995 0-9.225 3.687-9.906 8.635-1.233 8.947-3.955 17.389-7.873 25.106h-195.478c-5.514-10.885-8.643-23.174-8.643-36.188v-21.733h288.484c-4.286 13.984-17.318 24.18-32.687 24.18z" fill="#052a75"/></g></g><g/><g/><g/><g/><g/><g/><g/><g/><g/><g/><g/><g/><g/><g/><g/></svg>