<svg id="Capa_1" enable-background="new 0 0 512.002 512.002" viewBox="0 0 512.002 512.002" xmlns="http://www.w3.org/2000/svg"><g><g><path d="m356.539 166.233c6.363-13.949 9.911-29.452 9.911-45.785 0-60.998-49.449-110.448-110.449-110.448s-110.449 49.45-110.449 110.449c0 16.333 3.548 31.835 9.911 45.785-11.814 5.787-19.952 17.926-19.952 31.969 0 19.651 15.931 35.582 35.582 35.582h11.61c0 18.3 14.835 33.135 33.135 33.135 7.552 0 14.509-2.531 20.082-6.784 5.573 4.253 12.53 6.784 20.082 6.784s14.509-2.531 20.082-6.784c5.573 4.253 12.53 6.784 20.082 6.784 18.3 0 33.135-14.835 33.135-33.135h11.61c19.651 0 35.582-15.931 35.582-35.582-.002-14.044-8.14-26.182-19.954-31.97z" fill="#fde0be"/><path d="m202.395 120.945c0-43.246 17.57-82.386 45.959-110.677-57.431 3.929-102.801 51.753-102.801 110.181 0 16.333 3.548 31.835 9.911 45.784-11.814 5.787-19.952 17.926-19.952 31.969 0 19.651 15.93 35.582 35.582 35.582h11.61c0 18.3 14.835 33.135 33.135 33.135 7.552 0 14.509-2.531 20.082-6.784 5.573 4.253 12.53 6.784 20.082 6.784s14.509-2.531 20.082-6.784c5.573 4.253 12.53 6.784 20.082 6.784 1.86 0 3.682-.161 5.458-.455-58.095-22.784-99.23-79.346-99.23-145.519z" fill="#f7b073"/><circle cx="211.822" cy="140.531" fill="#b55348" r="22.09"/><circle cx="300.181" cy="140.531" fill="#b55348" r="22.09"/><g fill="#fde0be"><path d="m286.124 338.27c0-17.277-14.545-31.157-32.058-30.062-15.147.947-27.399 13.377-28.149 28.534-.164 3.308.207 6.505 1.034 9.514 5.036 18.338 6.961 37.391 6.961 56.408v99.336h44.18v-102.497c0-18.232 2.778-36.288 7.154-53.988.573-2.32.878-4.747.878-7.245z"/><circle cx="432.688" cy="308.147" r="30.122"/><circle cx="79.352" cy="308.147" r="30.122"/></g></g><g><path d="m246.001 266.919h20v41.229h-20z" fill="#f7b073"/><path d="m284.9 316.241h119.499v20h-119.499z" fill="#f7b073" transform="matrix(.98 -.201 .201 .98 -58.609 76.043)"/><path d="m157.39 266.492h20v119.499h-20z" fill="#f7b073" transform="matrix(.201 -.98 .98 .201 -185.871 424.527)"/><path d="m92.917 366.53c-2.904-4.697-9.066-6.152-13.765-3.247l-14.991 9.269-9.27-14.992c-2.904-4.698-9.069-6.153-13.765-3.247-4.697 2.904-6.151 9.067-3.247 13.764l12.351 19.975-26.336 111.652c-1.269 5.375 2.062 10.761 7.437 12.029.772.182 1.544.27 2.305.27 4.532 0 8.639-3.104 9.724-7.707l26.337-111.652 19.974-12.35c4.696-2.904 6.151-9.067 3.246-13.764z" fill="#f7b073"/><path d="m488.109 499.704-26.337-111.651 12.351-19.975c2.904-4.697 1.45-10.86-3.247-13.764-4.699-2.906-10.86-1.45-13.765 3.247l-9.27 14.992-14.991-9.269c-4.698-2.905-10.86-1.45-13.765 3.247-2.904 4.697-1.45 10.86 3.247 13.764l19.974 12.35 26.337 111.652c1.085 4.604 5.191 7.707 9.724 7.707.761 0 1.532-.087 2.305-.27 5.375-1.269 8.705-6.654 7.437-12.03z" fill="#f7b073"/><path d="m278.094 226.032c-2.698 0-5.388-1.085-7.358-3.226l-14.734-16-14.734 16c-3.739 4.062-10.066 4.324-14.13.582-4.062-3.741-4.323-10.067-.581-14.13l22.09-23.987c1.893-2.056 4.561-3.226 7.355-3.226s5.463 1.17 7.355 3.226l22.09 23.987c3.742 4.063 3.481 10.389-.581 14.13-1.922 1.77-4.351 2.644-6.772 2.644z" fill="#b55348"/><path d="m482.464 148.537h-45.159c-5.522 0-10-4.477-10-10s4.478-10 10-10h45.159c5.522 0 10 4.477 10 10s-4.477 10-10 10z" fill="#67ccd1"/><path d="m420.556 110.709c-3.817 0-7.462-2.197-9.127-5.904-2.264-5.038-.015-10.957 5.022-13.22l36.346-16.331c5.035-2.263 10.957-.015 13.22 5.023 2.264 5.038.015 10.957-5.022 13.22l-36.346 16.331c-1.33.598-2.723.881-4.093.881z" fill="#67ccd1"/><path d="m456.545 202.545c-1.37 0-2.762-.283-4.093-.881l-36.001-16.176c-5.038-2.264-7.286-8.183-5.022-13.22 2.263-5.038 8.179-7.286 13.22-5.023l36.001 16.176c5.037 2.264 7.286 8.183 5.022 13.22-1.665 3.708-5.31 5.904-9.127 5.904z" fill="#67ccd1"/><path d="m74.698 148.537h-45.16c-5.522 0-10-4.477-10-10s4.478-10 10-10h45.159c5.522 0 10 4.477 10 10s-4.477 10-9.999 10z" fill="#67ccd1"/><path d="m91.447 110.709c-1.37 0-2.762-.283-4.093-.881l-36.346-16.33c-5.037-2.264-7.286-8.183-5.022-13.22 2.263-5.038 8.18-7.287 13.22-5.023l36.346 16.331c5.037 2.264 7.286 8.183 5.022 13.22-1.666 3.707-5.311 5.903-9.127 5.903z" fill="#67ccd1"/><path d="m55.457 202.545c-3.817 0-7.462-2.197-9.127-5.904-2.264-5.038-.015-10.957 5.022-13.22l36.001-16.176c5.035-2.264 10.957-.014 13.22 5.023 2.264 5.038.016 10.957-5.022 13.22l-36.001 16.177c-1.33.597-2.723.88-4.093.88z" fill="#67ccd1"/><g fill="#f7b073"><path d="m387.156 398.759c-1.085 0-2.188-.178-3.272-.554-31.719-10.985-64.859-17.822-98.501-20.323-5.508-.41-9.641-5.207-9.231-10.714.409-5.508 5.209-9.641 10.714-9.231 35.367 2.629 70.211 9.819 103.563 21.37 5.219 1.807 7.984 7.503 6.177 12.722-1.433 4.135-5.307 6.73-9.45 6.73z"/><path d="m124.847 398.759c-4.144 0-8.018-2.595-9.449-6.73-1.808-5.219.958-10.915 6.177-12.722 33.365-11.555 68.222-18.746 103.602-21.373 5.489-.403 10.304 3.724 10.713 9.232.409 5.507-3.725 10.304-9.232 10.713-33.654 2.499-66.807 9.337-98.537 20.326-1.085.376-2.189.554-3.274.554z"/><path d="m366.738 450.44c-1.079 0-2.176-.176-3.253-.546-26.621-9.155-54.425-14.859-82.639-16.956-5.508-.409-9.641-5.206-9.231-10.714s5.206-9.638 10.714-9.231c29.924 2.224 59.417 8.275 87.66 17.988 5.223 1.796 8.001 7.486 6.204 12.708-1.425 4.146-5.304 6.751-9.455 6.751z"/><path d="m145.265 450.44c-4.151 0-8.03-2.605-9.455-6.751-1.797-5.223.981-10.913 6.204-12.708 28.685-9.864 58.647-15.95 89.056-18.089 5.508-.388 10.289 3.765 10.677 9.274s-3.765 10.29-9.274 10.677c-28.67 2.016-56.917 7.753-83.954 17.051-1.078.37-2.175.546-3.254.546z"/><path d="m346.317 502.124c-1.068 0-2.155-.173-3.224-.536-20.136-6.854-41.133-11.306-62.407-13.232-5.501-.498-9.556-5.361-9.058-10.861.498-5.501 5.378-9.547 10.86-9.058 22.854 2.069 45.413 6.853 67.05 14.218 5.228 1.78 8.023 7.461 6.244 12.689-1.416 4.16-5.302 6.78-9.465 6.78z"/><path d="m165.686 502.124c-4.163 0-8.05-2.62-9.466-6.781-1.779-5.228 1.017-10.909 6.244-12.689 22.083-7.517 45.114-12.342 68.453-14.341 5.501-.471 10.346 3.607 10.817 9.11.471 5.502-3.607 10.346-9.11 10.817-21.727 1.862-43.164 6.353-63.715 13.348-1.068.363-2.155.536-3.223.536z"/></g><path d="m278.091 512h-44.18c-5.522 0-10-4.477-10-10v-99.336c0-19.994-2.16-37.579-6.604-53.76-1.127-4.104-1.591-8.361-1.38-12.655 1.01-20.403 17.137-36.749 37.514-38.022 11.209-.702 21.87 3.133 30.026 10.795 8.043 7.556 12.655 18.216 12.655 29.247 0 3.262-.394 6.508-1.171 9.647-4.617 18.674-6.861 35.548-6.861 51.585v102.499c.001 5.523-4.476 10-9.999 10zm-34.18-20h24.18v-92.497c0-17.676 2.436-36.121 7.446-56.388.389-1.571.586-3.201.586-4.845 0-5.614-2.255-10.824-6.349-14.67-4.089-3.841-9.442-5.762-15.085-5.411-10.037.627-18.288 8.994-18.786 19.048-.106 2.171.125 4.315.69 6.372 4.924 17.93 7.317 37.248 7.317 59.056v89.335z" fill="#052a75"/><path d="m432.688 348.27c-22.123 0-40.122-17.999-40.122-40.123s17.999-40.123 40.122-40.123 40.122 17.999 40.122 40.123-17.999 40.123-40.122 40.123zm0-60.245c-11.096 0-20.122 9.027-20.122 20.123s9.026 20.123 20.122 20.123 20.122-9.027 20.122-20.123-9.027-20.123-20.122-20.123z" fill="#052a75"/><path d="m79.353 348.27c-22.124 0-40.123-17.999-40.123-40.123s17.999-40.123 40.123-40.123c22.123 0 40.122 17.999 40.122 40.123s-17.999 40.123-40.122 40.123zm0-60.245c-11.096 0-20.123 9.027-20.123 20.123s9.027 20.123 20.123 20.123 20.122-9.027 20.122-20.123-9.027-20.123-20.122-20.123z" fill="#052a75"/><path d="m296.164 276.919c-7.102 0-13.93-1.695-20.081-4.949-6.152 3.253-12.981 4.949-20.082 4.949s-13.93-1.695-20.082-4.949c-6.151 3.254-12.979 4.949-20.081 4.949-20.344 0-37.443-14.155-41.965-33.135h-2.78c-25.134 0-45.582-20.448-45.582-45.582 0-14.318 6.527-27.407 17.502-35.931-4.954-13.347-7.461-27.377-7.461-41.822 0-66.416 54.033-120.449 120.449-120.449s120.449 54.033 120.449 120.449c0 14.445-2.507 28.475-7.461 41.822 10.975 8.524 17.502 21.612 17.502 35.931 0 25.134-20.448 45.582-45.582 45.582h-2.78c-4.521 18.98-21.621 33.135-41.965 33.135zm-20.081-26.785c2.139 0 4.276.684 6.067 2.051 4.057 3.097 8.903 4.733 14.014 4.733 12.757 0 23.135-10.378 23.135-23.135 0-5.523 4.478-10 10-10h11.61c14.106 0 25.582-11.476 25.582-25.582 0-9.843-5.499-18.652-14.352-22.988-4.863-2.382-6.946-8.203-4.699-13.13 5.979-13.106 9.01-27.114 9.01-41.634 0-55.387-45.061-100.449-100.449-100.449s-100.449 45.062-100.449 100.449c0 14.52 3.031 28.528 9.01 41.634 2.247 4.927.164 10.748-4.699 13.13-8.853 4.336-14.352 13.145-14.352 22.988 0 14.106 11.476 25.582 25.582 25.582h11.61c5.522 0 10 4.477 10 10 0 12.756 10.378 23.135 23.135 23.135 5.11 0 9.957-1.637 14.014-4.733 3.582-2.735 8.552-2.735 12.134 0 4.059 3.097 8.905 4.734 14.016 4.734s9.957-1.637 14.016-4.734c1.79-1.367 3.928-2.051 6.065-2.051z" fill="#052a75"/></g></g><g/><g/><g/><g/><g/><g/><g/><g/><g/><g/><g/><g/><g/><g/><g/></svg>