<svg id="Capa_1" enable-background="new 0 0 512 512" viewBox="0 0 512 512" xmlns="http://www.w3.org/2000/svg"><g><g><circle cx="256" cy="302.187" fill="#fdcb50" r="133.543"/><path d="m298.262 389.857c-77.282 0-139.931-62.649-139.931-139.931 0-16.373 2.822-32.085 7.989-46.688-26.942 24.433-43.863 59.715-43.863 98.95 0 73.754 59.789 133.543 133.543 133.543 49.358 0 92.458-26.781 115.572-66.601-21.32 13.14-46.427 20.727-73.31 20.727z" fill="#fd8f01"/><g fill="#bc9af4"><path d="m229.586 313.923c0-12.2-9.89-22.09-22.09-22.09h22.09c12.2 0 22.09-9.89 22.09-22.09s-9.89-22.09-22.09-22.09h-30.122c12.2 0 22.09-9.89 22.09-22.09s-9.89-22.09-22.09-22.09h-33.403c-26.791 24.424-43.604 59.604-43.604 98.714 0 11.687 65.486 33.825 65.486 33.825h19.554c12.199 0 22.089-9.89 22.089-22.089z"/><path d="m388.847 288.476h-82.203c-12.2 0-22.09 9.89-22.09 22.09 0 12.2 9.89 22.09 22.09 22.09h-22.09c-12.2 0-22.09 9.89-22.09 22.09 0 12.2 9.89 22.09 22.09 22.09h82.193c14.392-21.31 22.795-46.997 22.795-74.647.001-4.631-.235-9.205-.695-13.713z"/><path d="m388.847 288.476h-82.203c-12.2 0-22.09 9.89-22.09 22.09 0 12.2 9.89 22.09 22.09 22.09h-22.09c-12.2 0-22.09 9.89-22.09 22.09 0 12.2 9.89 22.09 22.09 22.09h82.193c14.392-21.31 22.795-46.997 22.795-74.647.001-4.631-.235-9.205-.695-13.713z"/></g><path d="m158.331 249.925c0-16.285 2.792-31.916 7.906-46.452h-.176c-26.791 24.424-43.604 59.604-43.604 98.714 0 11.687 1.506 23.022 4.326 33.825h61.159c-18.552-23.741-29.611-53.621-29.611-86.087z" fill="#6864f7"/><path d="m105.682 31.758-72.186 72.187h-23.496v87.449h10.028c21.462 21.462 56.26 21.462 77.722 0 7.503-7.503 12.375-16.638 14.632-26.261l38.546-38.546c14.875-14.875 14.875-38.993 0-53.868l-7.948-7.948c4.329-3.379 9.682-5.247 15.23-5.247h37.61c21.037 0 38.09-17.054 38.09-38.09v-11.434h-75.7c-19.702 0-38.597 7.827-52.528 21.758z" fill="#fde0be"/><path d="m478.505 103.944-72.186-72.187c-13.932-13.93-32.827-21.757-52.529-21.757h-75.7v11.434c0 21.037 17.054 38.09 38.09 38.09h37.61c5.549 0 10.901 1.869 15.23 5.247l-7.948 7.948c-14.875 14.875-14.875 38.993 0 53.868l38.545 38.546c2.256 9.623 7.129 18.758 14.632 26.261 21.462 21.462 56.26 21.462 77.722 0h10.029v-87.449h-23.495z" fill="#fde0be"/><path d="m155.266 413.641h201.468v44.18h-201.468z" fill="#6864f7"/><path d="m373.513 502h-235.026l16.779-44.18h201.468z" fill="#d46b5c"/></g><g><g fill="#67ccd1"><path d="m502 297.608h-45.159c-5.522 0-10 4.477-10 10s4.478 10 10 10h45.159c5.522 0 10-4.477 10-10s-4.478-10-10-10z"/><path d="m440.092 279.781c1.37 0 2.763-.283 4.093-.881l36.346-16.331c5.037-2.264 7.286-8.183 5.022-13.22-2.263-5.037-8.185-7.287-13.22-5.023l-36.346 16.331c-5.037 2.264-7.286 8.183-5.022 13.22 1.665 3.707 5.309 5.904 9.127 5.904z"/><path d="m480.186 352.493-36.001-16.176c-5.039-2.264-10.957-.015-13.22 5.023-2.264 5.038-.016 10.957 5.022 13.22l36.001 16.176c1.331.598 2.723.881 4.093.881 3.816 0 7.462-2.197 9.127-5.904 2.264-5.038.015-10.957-5.022-13.22z"/><path d="m65.159 307.608c0-5.523-4.478-10-10-10h-45.159c-5.522 0-10 4.477-10 10s4.478 10 10 10h45.159c5.523 0 10-4.477 10-10z"/><path d="m31.47 262.569 36.345 16.331c1.331.598 2.723.881 4.093.881 3.816 0 7.462-2.197 9.127-5.904 2.264-5.038.015-10.957-5.022-13.22l-36.346-16.331c-5.039-2.263-10.957-.016-13.22 5.023-2.263 5.037-.014 10.956 5.023 13.22z"/><path d="m67.815 336.316-36.001 16.176c-5.037 2.264-7.286 8.183-5.022 13.22 1.665 3.707 5.31 5.904 9.127 5.904 1.37 0 2.763-.283 4.093-.881l36.001-16.176c5.038-2.264 7.286-8.183 5.022-13.22-2.263-5.037-8.184-7.285-13.22-5.023z"/></g><g fill="#052a75"><path d="m157.999 133.658c17.507-17.507 18.667-45.267 3.48-64.134h34.341c26.517 0 48.09-21.573 48.09-48.09v-11.434c0-5.523-4.478-10-10-10h-75.7c-22.514 0-43.68 8.767-59.6 24.687l-69.257 69.257h-19.353c-5.522 0-10 4.477-10 10v87.449c0 5.523 4.478 10 10 10h6.081c11.849 10.412 26.891 16.097 42.809 16.097 17.351 0 33.663-6.757 45.931-19.025 7.86-7.859 13.546-17.554 16.557-28.185zm-55.353 29.192c-1.904 8.123-6.042 15.548-11.967 21.472-8.491 8.491-19.781 13.167-31.789 13.167-12.018 0-23.317-4.684-31.811-13.188-1.867-1.87-4.408-2.909-7.051-2.909h-.028v-67.449h13.495c2.652 0 5.195-1.054 7.071-2.929l72.187-72.187c12.143-12.14 28.286-18.827 45.457-18.827h65.7v1.434c0 15.514-12.576 28.09-28.09 28.09h-37.61c-.508 0-1.014.011-1.518.032-8.275.353-16.065 4.016-21.972 9.822l-44.485 43.722c-3.905 3.905-3.905 10.237 0 14.142 3.906 3.905 10.236 3.905 14.143 0l38.465-38.465 1.014 1.013c10.972 10.967 10.974 28.752.005 39.721l-38.551 38.55c-1.317 1.317-2.24 2.976-2.665 4.789z"/><path d="m502 93.944h-19.353l-69.257-69.257c-15.92-15.92-37.086-24.687-59.6-24.687h-75.7c-5.522 0-10 4.477-10 10v11.434c0 26.517 21.573 48.09 48.09 48.09h34.341c-15.187 18.867-14.026 46.626 3.48 64.134l36.622 36.621c3.011 10.631 8.696 20.326 16.556 28.185 12.269 12.269 28.581 19.026 45.932 19.026 15.918 0 30.96-5.685 42.809-16.097h6.08c5.522 0 10-4.477 10-10v-87.449c0-5.523-4.478-10-10-10zm-10 87.449h-.028c-2.642 0-5.184 1.039-7.051 2.909-8.494 8.504-19.792 13.188-31.811 13.188-12.008 0-23.298-4.676-31.79-13.168-5.924-5.923-10.062-13.348-11.966-21.471-.426-1.813-1.349-3.472-2.665-4.789l-38.546-38.545c-10.952-10.953-10.952-28.774 0-39.726l1.014-1.014 38.465 38.465c3.906 3.905 10.238 3.905 14.143 0s3.905-10.237 0-14.142l-44.484-43.721c-5.907-5.806-13.697-9.469-21.972-9.822-.504-.022-1.01-.032-1.518-.032h-37.61c-15.514 0-28.09-12.576-28.09-28.09v-1.435h65.7c17.171 0 33.314 6.687 45.457 18.829l72.187 72.187c1.876 1.875 4.419 2.929 7.071 2.929h13.494z"/><path d="m396.645 492h-16.233l-13.677-36.015v-42.345c0-5.261-4.065-9.563-9.224-9.961 26.688-26.657 42.032-62.944 42.032-101.492 0-79.15-64.394-143.543-143.543-143.543s-143.543 64.394-143.543 143.543c0 38.548 15.344 74.835 42.032 101.492-5.158.398-9.223 4.7-9.223 9.961v42.345l-13.678 36.015h-16.233c-5.522 0-10 4.477-10 10s4.478 10 10 10h281.289c5.522 0 10-4.477 10-10s-4.477-10-9.999-10zm-231.379-68.359h181.469v24.18h-181.469zm90.734-244.997c68.122 0 123.543 55.421 123.543 123.543 0 40.605-19.777 78.305-53.042 101.453h-141.003c-33.265-23.148-53.041-60.847-53.041-101.453 0-68.122 55.421-123.543 123.543-123.543zm-103.019 313.356 9.184-24.18h187.67l9.184 24.18z"/></g></g></g><g/><g/><g/><g/><g/><g/><g/><g/><g/><g/><g/><g/><g/><g/><g/></svg>