<svg id="Layer_1" enable-background="new 0 0 512 512" viewBox="0 0 512 512" xmlns="http://www.w3.org/2000/svg"><g><g><path d="m423.438 93.429v45.846h26.462c9.856 0 17.846-7.99 17.846-17.846v-8.308c9.856 0 17.846-7.99 17.846-17.846v-8.308h.892c9.856 0 17.846-7.99 17.846-17.846v-8.308h-48.276c-18.014.001-32.616 14.604-32.616 32.616z" fill="#fff"/><path d="m481.053 60.814h-25c-18.013 0-32.615 14.602-32.615 32.615v45.846h25v-45.846c0-18.012 14.602-32.615 32.615-32.615z" fill="#e3e9ee"/><path d="m321.253 93.429v45.846h-26.462c-9.856 0-17.846-7.99-17.846-17.846v-8.308c-9.856 0-17.846-7.99-17.846-17.846v-8.308h-.892c-9.856 0-17.846-7.99-17.846-17.846v-8.308h48.276c18.013.001 32.616 14.604 32.616 32.616z" fill="#fff"/><path d="m301.945 121.43v-8.308c-9.856 0-17.846-7.99-17.846-17.846v-8.308h-.892c-9.856 0-17.846-7.99-17.846-17.846v-8.308h-25v8.308c0 9.856 7.99 17.846 17.846 17.846h.892v8.308c0 9.856 7.99 17.846 17.846 17.846v8.308c0 9.856 7.99 17.846 17.846 17.846h25c-9.856 0-17.846-7.99-17.846-17.846z" fill="#e3e9ee"/><g fill="#ff6a47"><path d="m215.326 330.954s-17.6-2.354-21.396 13.692c-7.394.416-23.241-18.489-23.241-18.489s1.609-24.405 13.404-30.445c24.894-12.749 37.153-15.768 45.001-48.94 36.893 7.339 51.867 46.133 51.867 46.133s-33.773-8.555-42.186 17.694c-10.948-2.024-21.603-1.183-23.449 20.355z"/><path d="m77.965 330.954s17.6-2.354 21.396 13.692c7.394.416 23.241-18.489 23.241-18.489s-1.609-24.405-13.404-30.445c-24.894-12.749-37.153-15.768-45.001-48.94-36.893 7.339-51.867 46.133-51.867 46.133s33.773-8.555 42.186 17.694c10.947-2.024 21.603-1.183 23.449 20.355z"/><path d="m191.83 504.5h-15.974c-16.569 0-30-13.431-30-30 0 16.569-13.431 30-30 30h-15.975v-103.588c0 8.284-6.716 15-15 15-8.284 0-15-6.716-15-15v-39.026c0-41.959 34.015-75.974 75.974-75.974 41.959 0 75.974 34.015 75.974 75.974v39.026c0 8.284-6.716 15-15 15-8.284 0-15-6.716-15-15v103.588z"/></g><path d="m94.881 400.912v-39.026c0-37.7 27.465-68.969 63.474-74.933-4.069-.674-8.24-1.042-12.5-1.042-41.959 0-75.974 34.015-75.974 75.974v39.026c0 8.284 6.716 15 15 15 5.22 0 9.813-2.669 12.5-6.715-1.577-2.374-2.5-5.22-2.5-8.284z" fill="#fd3501"/><circle cx="145.855" cy="254.718" fill="#ff6a47" r="38.276"/><path d="m132.579 254.718c0-16.761 10.777-30.996 25.776-36.177-3.919-1.354-8.121-2.099-12.5-2.099-21.14 0-38.276 17.137-38.276 38.277 0 21.139 17.137 38.276 38.276 38.276 4.379 0 8.581-.745 12.5-2.099-14.999-5.183-25.776-19.418-25.776-36.178z" fill="#fd3501"/><path d="m418.965 295.559h-15.975c-16.569 0-30-13.431-30-30 0 16.569-13.431 30-30 30h-15.974v-103.588c0 8.284-6.716 15-15 15-8.284 0-15-6.716-15-15v-39.026c0-41.959 34.015-75.974 75.974-75.974 41.959 0 75.974 34.015 75.974 75.974v39.026c0 8.284-6.716 15-15 15-8.284 0-15-6.716-15-15v103.588z" fill="#8ad8f6"/><path d="m322.016 191.971v-39.026c0-37.7 27.465-68.969 63.474-74.933-4.069-.674-8.24-1.042-12.5-1.042-41.959 0-75.974 34.015-75.974 75.974v39.026c0 8.284 6.716 15 15 15 5.22 0 9.813-2.669 12.5-6.715-1.577-2.374-2.5-5.22-2.5-8.284z" fill="#54c9f3"/><circle cx="372.99" cy="45.776" fill="#8ad8f6" r="38.276"/><path d="m359.714 45.777c0-16.761 10.777-30.996 25.776-36.177-3.919-1.354-8.121-2.099-12.5-2.099-21.14 0-38.276 17.137-38.276 38.277 0 21.139 17.137 38.276 38.276 38.276 4.379 0 8.581-.745 12.5-2.099-14.999-5.183-25.776-19.418-25.776-36.178z" fill="#54c9f3"/></g><g fill="#fff"><g><path d="m123.355 344.555h15v15h-15z"/><path d="m153.355 344.555h15v15h-15z"/></g><g><path d="m350.49 135.64h15v15h-15z"/><path d="m380.49 135.64h15v15h-15z"/></g></g><g><path d="m456.05 53.31c-18.278 0-33.729 12.297-38.545 29.051-3.435-2.169-7.017-4.09-10.727-5.734 7.442-8.144 11.99-18.975 11.99-30.851-.001-25.241-20.537-45.776-45.778-45.776s-45.776 20.535-45.776 45.776c0 11.869 4.542 22.695 11.977 30.837-4.142 1.826-8.089 3.973-11.82 6.402-4.597-17.088-20.215-29.706-38.731-29.706h-55.78v15.81c0 11.692 7.957 21.562 18.74 24.476v1.684c0 6.763 2.638 13.125 7.427 17.914 2.963 2.963 6.531 5.103 10.423 6.304v1.933c0 12.267 8.755 22.524 20.342 24.852-.175 2.21-.273 4.439-.273 6.688v39.03c0 6.008 2.339 11.656 6.587 15.903 4.254 4.254 9.905 6.597 15.913 6.597 2.628 0 5.15-.457 7.497-1.289v89.877h23.474c12.253 0 23.152-5.908 29.999-15.025 6.847 9.117 17.746 15.026 30 15.026h23.48v-48.82h-15v33.82h-8.48c-12.404 0-22.495-10.088-22.5-22.491 0-.003 0-.007 0-.01v-63.647-.001h-15v63.65.009c-.006 12.402-10.096 22.49-22.5 22.49h-8.474v-95.954c0-.045.003-.089.003-.135v-65h-15v54.941h-.003v10.126c-.037 4.104-3.384 7.433-7.497 7.433-2.001 0-3.886-.782-5.307-2.203-1.415-1.415-2.193-3.296-2.193-5.297v-39.03c0-30.57 20.083-57.207 49.163-65.703 5.871 2.743 12.411 4.285 19.308 4.285 6.896 0 13.436-1.542 19.307-4.285 10.945 3.203 20.964 9.14 29.111 17.287 12.937 12.927 20.062 30.122 20.062 48.415v39.031c0 4.136-3.364 7.5-7.5 7.5-2.006 0-3.888-.779-5.307-2.203-1.414-1.414-2.193-3.295-2.193-5.297v-65h-15v112.27h15v-26.072c2.379.839 4.9 1.302 7.5 1.302 12.407 0 22.5-10.093 22.5-22.5v-39.03c0-2.343-.118-4.666-.307-6.975 10.959-2.795 19.087-12.748 19.087-24.565v-1.935c3.888-1.201 7.451-3.34 10.413-6.302 4.789-4.789 7.427-11.151 7.427-17.914v-1.684c10.784-2.915 18.74-12.784 18.74-24.476v-15.809zm-142.3 40.785c-10.2 10.268-17.65 23.127-21.428 37.374-4.511-1.112-7.872-5.185-7.872-10.039v-15.81h-7.5c-2.762 0-5.361-1.077-7.317-3.033s-3.033-4.551-3.033-7.307v-15.81h-8.39c-5.707 0-10.35-4.643-10.35-10.35v-.81h40.78c13.846 0 25.11 11.269 25.11 25.12zm59.24-17.542c-16.97 0-30.776-13.806-30.776-30.776s13.806-30.777 30.776-30.777 30.777 13.806 30.777 30.776-13.807 30.777-30.777 30.777zm123.84-7.433c0 5.707-4.643 10.35-10.35 10.35h-8.39v15.81c0 2.756-1.077 5.351-3.033 7.307s-4.551 3.033-7.307 3.033h-7.5v15.81c0 4.415-2.784 8.182-6.684 9.667-3.756-13.921-11.082-26.686-21.553-37.15-.348-.348-.707-.684-1.06-1.025.273-13.616 11.422-24.612 25.097-24.612h40.78z"/><path d="m305.548 382.386 6.228 13.646 14.828-6.768c-15.106 52.747-49.53 71.702-80.487 71.7-2.48 0-4.941-.122-7.365-.357-23.233-2.26-39.423-14.379-39.423-23.843v-14.658c2.38.841 4.901 1.303 7.5 1.303 12.407 0 22.5-10.093 22.5-22.5v-39.02c0-11.176-2.184-22.018-6.347-32.041.68-5.721 2.166-9.7 4.247-11.286 1.807-1.379 4.948-1.561 10.183-.589l6.495 1.204 2.015-6.291c6.138-19.158 32.112-12.976 33.194-12.708l14.062 3.564-5.222-13.534c-.672-1.742-16.921-42.744-57.404-50.796l-7.098-1.412-1.665 7.042c-6.282 26.578-14.467 30.661-34.241 40.526-1.238.618-2.521 1.26-3.831 1.919-1.336-.681-2.687-1.333-4.058-1.94 7.432-8.141 11.971-18.966 11.971-30.832 0-10.578-3.617-20.322-9.665-28.082 2.974-2.511 5.519-5.877 7.341-9.896 4.03-8.889 4.739-22.197-5.359-32.89l-10.905 10.3c6.292 6.663 3.583 14.234 2.603 16.396-1.371 3.024-3.346 4.964-5.004 5.717-7.15-4.625-15.657-7.322-24.787-7.322-9.173 0-17.718 2.722-24.888 7.387-1.695-.687-3.771-2.638-5.197-5.782-.98-2.162-3.689-9.734 2.604-16.396l-10.905-10.3c-10.098 10.692-9.39 24-5.36 32.89 1.858 4.099 4.472 7.514 7.522 10.039-5.981 7.737-9.552 17.426-9.552 27.938 0 11.859 4.535 22.679 11.959 30.819-1.11.49-2.205 1.005-3.287 1.54-1.02-.511-2.021-1.011-2.996-1.498-19.78-9.867-27.968-13.952-34.257-40.535l-1.666-7.041-7.096 1.412c-40.482 8.053-56.732 49.055-57.404 50.796l-5.161 13.435 13.981-3.456c1.102-.272 27.081-6.457 33.227 12.705l2.016 6.286 6.491-1.202c5.166-.955 8.278-.794 10.091.526 1.794 1.306 3.14 4.29 3.938 8.679-4.852 10.636-7.534 22.41-7.534 34.71v39.02c0 5.998 2.336 11.646 6.597 15.923 4.257 4.241 9.905 6.577 15.903 6.577 2.629 0 5.153-.458 7.5-1.29v25.56h15v-111.77h-15v65c0 4.136-3.365 7.5-7.5 7.5-2.002 0-3.89-.783-5.296-2.184-1.421-1.426-2.204-3.314-2.204-5.316v-39.02c0-30.548 20.068-57.182 49.128-65.699 5.881 2.755 12.436 4.303 19.348 4.303 6.911 0 13.464-1.548 19.345-4.302 10.93 3.209 20.938 9.142 29.074 17.269 12.933 12.942 20.055 30.141 20.055 48.429v39.02c0 4.136-3.364 7.5-7.5 7.5-2.001 0-3.882-.779-5.296-2.193-1.421-1.421-2.204-3.306-2.204-5.307v-65h-15v161.09h-8.474c-12.381 0-22.456-10.052-22.498-22.423 0-.026.002-.051.002-.077v-63.65h-15v.003h-.004v63.647c0 .026.002.051.002.077-.042 12.371-10.118 22.423-22.499 22.423h-8.48v-34.32h-15v49.32h23.48c12.253 0 23.151-5.908 29.998-15.023 6.847 9.116 17.745 15.023 29.998 15.023h23.474v-50.128c9.555 7.112 22.935 12.202 37.971 13.665 2.978.29 5.994.439 9.041.439 36.693-.001 77.27-21.724 94.604-82.24l7.157 9.957 12.181-8.755-20.313-28.262zm-226.032-71.219c-1.345-1.887-2.913-3.483-4.714-4.794-4.904-3.568-10.465-4.26-15.577-3.94-7.206-13.827-21.345-18.125-33.685-18.411 6.141-9.56 17.001-22.425 33.35-28.063 7.375 24.568 18.82 32.197 35.081 40.486-5.427 4.301-10.276 9.252-14.455 14.722zm66.339-25.673c-16.97 0-30.777-13.806-30.777-30.776s13.807-30.776 30.777-30.776 30.776 13.806 30.776 30.776-13.805 30.776-30.776 30.776zm67.173 26.808c-2.457-3.316-5.176-6.474-8.147-9.448-2.091-2.089-4.286-4.054-6.569-5.899 16.798-8.494 28.567-15.925 36.089-40.996 16.35 5.638 27.21 18.506 33.349 28.062-12.338.287-26.476 4.585-33.677 18.409-5.244-.327-10.951.405-15.935 4.202-1.994 1.52-3.69 3.41-5.11 5.67z"/></g></g><g/><g/><g/><g/><g/><g/><g/><g/><g/><g/><g/><g/><g/><g/><g/></svg>