<svg id="Layer_1" enable-background="new 0 0 512.159 512.159" viewBox="0 0 512.159 512.159" xmlns="http://www.w3.org/2000/svg"><g><g><path d="m333.534 182.124v81.804h55.953c20.841 0 37.736-14.257 37.736-31.843v-14.824c20.841 0 37.736-14.257 37.736-31.843v-14.824h1.885c20.841 0 37.736-14.257 37.736-31.843v-14.824h-102.08c-38.089.001-68.966 26.056-68.966 58.197z" fill="#fff"/><path d="m427.499 123.928h-25c-38.088 0-68.965 26.055-68.965 58.196v81.804h25v-81.804c0-32.141 30.877-58.196 68.965-58.196z" fill="#e3e9ee"/><path d="m122.595 242.504s24.565-11.707 37.645 9.913c10.981-2.87 39.971-63.114 39.971-63.114s0-15.156-36.446-15.156c-48.45 0-77.038-24.87-77.038-58.752-77.754 16.702-77.754 102.466-77.754 102.466s45.239-28.354 69.85 5.978c15.017-8.1 30.954-11.883 43.772 18.665z" fill="#ff6a47"/><path d="m229.35 175.829c-64.27 8.08-87.08 113.19-87.08 113.19h-62.715c-4.453-5.78-11.439-9.507-19.299-9.507h-24.353v24.353c0 13.45 10.903 24.353 24.353 24.353l117.324.001c-7.95 77.11 6.82 150.87 6.82 183.94h76.547v-336.33z" fill="#ff6a47"/><path d="m296.51 175.829h-35.563v336.33h80.593c0-21.52 9.17-105.94 9.17-105.94 20.73 0 33.12-10.87 32.94-31.59-.47-54.28-12.19-180.18-87.14-198.8z" fill="#8ad8f6"/><path d="m88.019 127.487c-.853-3.875-1.292-7.915-1.292-12.093-77.754 16.703-77.754 102.467-77.754 102.467s15.237-9.547 32.835-10.852c2.363-18.941 11.434-58.06 46.211-79.522z" fill="#fd3501"/><path d="m81.433 289.019h-1.878c-4.453-5.78-11.439-9.507-19.299-9.507h-24.353v24.353c0 13.45 10.903 24.353 24.353 24.353h21.177z" fill="#fd3501"/><path d="m202.929 97.087c0 13.154 7.65 41.454 11.752 53.974 2.746 8.382 4.673 16.98 12.28 21.445 0 0 24.304 15.172 33.985 15.522v-148.958c-32.042 0-58.017 25.975-58.017 58.017z" fill="#ff6a47"/><path d="m260.947 39.07v148.959c.121.004.251.017.367.017 9.296-.025 33.798-15.507 33.798-15.507 7.505-4.49 8.928-13.188 12.1-21.338 4.927-12.658 11.753-40.959 11.753-54.112-.001-32.044-25.976-58.019-58.018-58.019z" fill="#8ad8f6"/><path d="m239.682 162.833c-4.102-15.012-11.752-48.946-11.752-64.718 0-24.704 10.748-46.384 26.934-58.727-29.183 3.041-51.934 27.711-51.934 57.699 0 13.154 7.65 41.454 11.752 53.974 2.746 8.382 4.673 16.98 12.28 21.445 0 0 10.292 6.424 20.15 11.008-3.799-5.614-5.391-13.217-7.43-20.681z" fill="#fd3501"/><path d="m211.269 81.818c-34.402-33.882-14.402-67.765-14.402-67.765s11.524 17.141 23.772 30.913c6.448 7.251 6.616 18.124.317 25.504z" fill="#fff"/></g><g fill="#fff"><path d="m210.58 337.312h15v15h-15z"/><path d="m286.58 337.312h15v15h-15z"/></g><g><path d="m374.182 336.108c1.495 16.205 1.896 29.926 1.968 38.586.067 7.717-1.886 13.634-5.805 17.587-2.991 3.017-7.189 4.961-12.482 5.856 1.878-51.491-1.964-110.287-25.245-164.105l-13.768 5.955c33.799 78.131 24.573 168.988 18.468 229.109-1.757 17.301-3.274 32.243-3.274 43.062h15c0-10.06 1.481-24.651 3.197-41.547 1.725-16.986 3.691-36.368 4.898-57.239 9.86-1.069 18.029-4.651 23.857-10.532 6.743-6.801 10.254-16.58 10.152-28.275-.075-8.944-.488-23.115-2.032-39.837z"/><path d="m183.303 402.546-14.986.646c1.077 25.01 3.464 48.503 5.381 67.38 1.718 16.914 3.202 31.521 3.202 41.587h15c0-10.826-1.52-25.784-3.279-43.103-1.997-19.657-4.26-41.936-5.318-66.51z"/><path d="m402.5 116.429c-41.834 0-75.911 29.015-76.445 64.85-5.83-4.12-12.178-7.518-19.084-10.064 2.617-3.984 4.138-8.431 5.545-12.565.562-1.652 1.094-3.214 1.684-4.73 4.937-12.68 12.261-42.13 12.261-56.831 0-36.128-29.388-65.52-65.51-65.52-11.958 0-23.71 3.316-33.871 9.444-.277-.344-.538-.698-.835-1.031-11.753-13.216-23.04-29.947-23.153-30.114l-6.639-9.868-6.044 10.241c-.242.41-5.938 10.21-6.73 24.577-.614 11.156 1.67 27.08 14.482 43.552-1.803 6.057-2.731 12.332-2.731 18.72 0 14.572 8.167 44.226 12.124 56.308.305.929.599 1.86.892 2.788 1.596 5.052 3.325 10.52 6.611 15.239-4.601 1.533-8.965 3.522-13.107 5.877-5.617-5.495-16.625-10.652-38.18-10.652-42.244 0-69.54-20.117-69.54-51.25v-9.282l-9.075 1.949c-4.693 1.008-9.213 2.288-13.565 3.816v-20.171h19.02c20.678 0 37.5-16.822 37.5-37.5v-34.053h-15v34.053c0 12.407-10.093 22.5-22.5 22.5h-19.02v-76.553h-15v76.553h-19.01c-12.407 0-22.5-10.093-22.5-22.5v-34.053h-15v34.053c0 20.678 16.822 37.5 37.5 37.5h19.01v26.824c-20.009 10.923-35.268 28.344-44.832 51.492-10.172 24.62-10.288 46.895-10.288 47.831l.012 13.483 11.458-7.12c1.237-.769 24.02-14.645 43.649-8.192v55.982h-28.186v31.853c0 16.323 12.344 29.81 28.186 31.635v176.659h15v-176.441h97.774c-1.374 16.508-1.881 33.91-1.522 52.298l14.997-.293c-1.153-59.022 6.781-107.347 24.255-147.735l-13.767-5.956c-11.138 25.742-18.579 54.427-22.445 86.687h-83.614c3.063-4.892 4.842-10.667 4.842-16.853 0-2.529-.305-4.986-.865-7.346h51.025l6.042-.003 1.287-5.903c.218-.999 22.46-100.025 80.688-107.341l-.006-.045c6.588 3.771 15.627 8.503 23.167 10.854v318.078h15v-317.892c7.495-2.26 16.636-7.083 23.301-10.938l3.819-.001c22.248 5.847 40.39 23.065 53.938 51.193 10.964 22.762 18.729 51.975 23.082 86.826l14.885-1.859c-1.933-15.475-4.784-31.912-8.95-48.06h10.968c24.939 0 45.229-17.648 45.229-39.34v-7.864c9.022-1.299 17.362-4.934 24.012-10.55 8.853-7.455 13.729-17.49 13.729-28.257v-7.622c22.303-2.415 39.62-19.005 39.62-39.048v-22.32h-109.58zm-369.265 84.184c-5.828 1.133-11.177 2.897-15.618 4.68 1.161-7.928 3.496-18.761 8.189-29.982 7.09-16.952 17.405-30.049 30.783-39.241v64.379c-7.116-1.507-14.935-1.472-23.354.164zm27.021 120.105c-9.292 0-16.853-7.56-16.853-16.853v-16.853h16.853c9.293 0 16.853 7.56 16.853 16.853s-7.56 16.853-16.853 16.853zm76.124-39.199h-53.452c-3.178-3.224-7.036-5.772-11.339-7.416v-47.393c.383.484.763.98 1.135 1.498l3.846 5.365 5.81-3.133c8.373-4.515 13.865-5.765 18.361-4.176 5.381 1.9 10.409 8.342 14.943 19.146l3.049 7.159 7.06-3.275c.55-.256 12.068-5.468 21.32.044-5.503 13.551-8.958 25.395-10.733 32.181zm16.848-45.999c-9.665-5.089-19.973-3.971-26.649-2.269-5.759-11.288-12.616-18.226-20.844-21.131-8.856-3.126-17.535-.923-24.869 2.339-2.83-3.1-5.933-5.719-9.277-7.873v-78.662c2.686-1.119 5.452-2.134 8.321-3.014 5.022 34.318 37.454 56.739 83.859 56.739 13.532 0 21.316 2.267 25.358 4.63-15.702 13.205-27.438 31.677-35.899 49.241zm45.991-205.233c4.372 5.893 9.986 13.109 15.815 19.663 3.949 4.441 4.042 11.169.216 15.651l-4.184 4.901c-12.708-15.525-13.54-30.29-11.847-40.215zm54.228 147.855c-6.473-2.757-15.273-7.478-22.517-11.996l-.171-.104c-4.052-2.38-5.684-7.014-8.01-14.375-.31-.981-.621-1.965-.941-2.942-4.77-14.565-11.377-40.613-11.377-51.636 0-1.777.102-3.541.284-5.292l15.945-16.457c4.912-5.754 6.975-13.131 6.224-20.266 6.221-4.182 13.187-6.864 20.564-7.948v131.016zm44.868-24.324c-2.137 6.279-3.62 10.231-7.054 12.283l-.156.096c-7.32 4.622-16.258 9.462-22.658 12.174v-131.242c24.308 3.634 43.013 24.651 43.013 49.96 0 11.602-6.331 38.786-11.24 51.391-.708 1.82-1.317 3.608-1.905 5.338zm198.765-15.069c0 13.427-13.565 24.35-30.24 24.35h-47.785v15h38.405v7.32c0 6.267-2.979 12.227-8.398 16.79-5.766 4.869-13.521 7.55-21.842 7.55h-34.492v15h26.992v7.33c0 13.421-13.561 24.34-30.229 24.34h-15.268c-7.452-23.481-18.079-45.464-33.192-61.885v-12.414c0-27.956 27.575-50.7 61.47-50.7h94.58v7.319z"/></g></g><g/><g/><g/><g/><g/><g/><g/><g/><g/><g/><g/><g/><g/><g/><g/></svg>