<svg id="Layer_1" enable-background="new 0 0 512.787 512.787" viewBox="0 0 512.787 512.787" xmlns="http://www.w3.org/2000/svg"><g><g><path d="m127.596 173.361c-122.349-48.003-63.203-152.863-63.203-152.863s18.922 81.701 63.788 82.029c28.338.208 38.75 11.116 38.75 25.546z" fill="#ffc277"/><path d="m62.227 24.806c-9.475 20.196-42.204 106.35 65.369 148.555l15.351-17.674c-74.266-29.627-85.017-87.226-80.72-130.881z" fill="#fcad42"/><path d="m89.585 310.958c-67.758-9.856-34.666-90.241-71.877-117.505 33.312-9.682 73.541-1.324 89.601 34.884 18.264 41.176 5.424 85.988-17.724 82.621z" fill="#ff6a47"/><path d="m41.979 189.757c-8.203.152-16.428 1.416-24.27 3.696 37.211 27.264 4.119 107.649 71.877 117.505 4.794.698 9.144-.677 12.869-3.653-50.999-18.89-34.118-84.747-60.476-117.548z" fill="#fd3501"/><path d="m380.192 173.361c122.349-48.003 63.203-152.863 63.203-152.863s-18.922 81.701-63.788 82.029c-28.338.208-38.75 11.116-38.75 25.546z" fill="#ffc277"/><path d="m381.316 381.404c27.894-16.582 42.633-48.675 37.04-80.64-3.776-21.584-8.014-44.229-11.116-56.33-20.756-80.972-67.763-151.353-151.353-151.353-83.59 0-139.453 68.614-151.353 151.353-1.76 12.239-5.907 35.264-9.97 57.068-5.904 31.677 8.591 63.671 36.289 80.137 15.382 9.145 27.092 23.37 33.11 40.223l18.129 50.77c6.993 19.583 25.541 32.655 46.335 32.655h54.921c20.794 0 39.342-13.072 46.335-32.655l17.975-50.338c6.116-17.132 18.02-31.593 33.658-40.89z" fill="#ff6a47"/><path d="m423.203 310.958c67.758-9.856 34.666-90.241 71.877-117.505-33.312-9.682-73.541-1.324-89.601 34.884-18.264 41.176-5.424 85.988 17.724 82.621z" fill="#ff6a47"/><path d="m370.335 263.846s-86.15 22.177-93.882 47.294c-5.044 16.386 25.65 46.194 60.238 32.782s33.644-80.076 33.644-80.076z" fill="#ffc277"/><path d="m135.91 263.846s86.15 22.177 93.882 47.294c5.044 16.386-25.65 46.194-60.238 32.782s-33.644-80.076-33.644-80.076z" fill="#ffc277"/><path d="m295.444 300.098c.796-3.829 2.955-7.502 6.099-10.997-12.657 6.673-22.681 14.214-25.09 22.04-4.859 15.784 23.445 44.016 56.446 34.081-23.124-6.918-40.392-31.002-37.455-45.124z" fill="#fcad42"/><path d="m194.554 343.922c-27.423-10.633-32.51-54.734-33.441-72.553-14.347-4.727-25.204-7.523-25.204-7.523s-.944 66.664 33.645 80.076c10.74 4.164 21.103 4.16 30.139 1.686-1.701-.461-3.415-1.017-5.139-1.686z" fill="#fcad42"/><path d="m207.091 471.178-18.129-53.031c-6.018-17.604-17.728-32.462-33.11-42.014-27.698-17.199-42.193-50.617-36.289-83.705 4.064-22.775 8.21-46.824 9.97-59.609 6.869-49.885 28.387-94.852 61.429-123.959-47.189 24.921-77.956 76.662-86.429 135.574-1.76 12.239-5.906 35.264-9.97 57.068-5.904 31.677 8.591 63.671 36.289 80.137 15.383 9.145 27.092 23.37 33.11 40.223l18.129 50.77c6.993 19.583 25.541 32.655 46.335 32.655h25c-20.793 0-39.342-13.654-46.335-34.109z" fill="#fd3501"/></g><g fill="#fff"><path d="m248.894 166.052h15v15h-15z"/><path d="m248.894 196.052h15v15h-15z"/></g><g><path d="m497.179 186.255c-30.882-8.98-70.451-3.65-91.636 26.745-4.487-12.702-9.591-24.642-15.26-35.698 35.868-15.626 59.16-37.947 69.288-66.427 16.597-46.668-8.564-92.15-9.644-94.063l-9.47-16.784-4.368 18.773c-4.915 21.122-24.652 75.992-56.537 76.225-24.89.183-36.661 8.128-42.021 17.052-23.682-17.602-51.03-26.502-81.646-26.502-16.036 0-31.588 2.43-46.225 7.223l4.668 14.255c13.127-4.298 27.108-6.478 41.557-6.478 31.979 0 57.364 10.827 77.477 27.244 0 .083-.004.17-.004.252h.305c38.094 31.285 57.193 82.638 66.316 118.226 2.571 10.033 6.37 29.313 10.988 55.76 4.071 23.275-3.999 46.928-20.539 62.983-51.883.946-82.846 33.593-90.241 54.297l14.127 5.045c4.07-11.396 21.028-32.333 51.098-40.743-11.195 9.635-19.807 22.091-24.822 36.134l-17.97 50.34c-5.909 16.551-21.692 27.671-39.276 27.671h-54.92c-17.578 0-33.357-11.12-39.267-27.672l-18.13-50.781c-3.288-9.205-8.107-17.699-14.324-25.245-3.167-3.846-6.645-7.378-10.398-10.58 30.377 8.318 47.501 29.416 51.593 40.875l14.127-5.045c-7.406-20.736-38.454-53.453-90.482-54.302-16.164-15.931-23.876-39.235-19.606-62.158 5.16-27.714 8.531-47.018 10.021-57.375 5.792-40.274 22.422-76.724 46.826-102.636 12.437-13.205 26.669-23.517 42.304-30.648l-6.227-13.647c-8.487 3.872-16.592 8.583-24.269 14.082-5.198-9.155-16.933-17.441-42.356-17.627-31.885-.232-51.622-55.102-56.536-76.22l-4.356-18.806-9.483 16.813c-1.079 1.913-26.24 47.395-9.644 94.063 10.109 28.427 33.335 50.715 69.088 66.337-5.017 10.201-9.267 21.007-12.681 32.268-21.713-27.281-59.369-31.847-89.015-23.226l-14.624 4.253 12.287 9c12.9 9.448 15.971 27.884 19.221 47.401 2.529 15.189 5.145 30.896 12.653 43.988 8.515 14.846 21.849 23.698 40.683 27.034.844 28.44 16.116 55.252 41.194 70.154 6.893 4.095 12.982 9.324 18.102 15.541 5.112 6.205 9.074 13.188 11.776 20.753l18.13 50.78c8.035 22.507 29.492 37.628 53.394 37.628h54.92c23.907 0 45.368-15.122 53.403-37.628l17.97-50.34c5.521-15.46 16.326-28.587 30.428-36.964 24.989-14.85 40.448-41.527 41.757-69.906 16.548-2.914 28.782-10.048 37.324-21.775l-12.125-8.832c-5.898 8.097-14.179 13.063-25.846 15.462-.149-1.109-.319-2.218-.512-3.326-4.75-27.205-8.53-46.35-11.234-56.902-.863-3.367-1.771-6.688-2.712-9.972.168-.394.343-.798.533-1.226 12.529-28.248 41.809-36.749 67.921-33.37-9.166 12.911-11.992 29.887-14.747 46.432-1.737 10.437-3.534 21.228-6.915 30.392l14.072 5.192c3.872-10.494 5.787-21.997 7.639-33.12 3.25-19.515 6.318-37.947 19.217-47.396l12.286-9zm-136.464-52.866c-3.631-4.058-7.375-7.857-11.229-11.402 3.221-7.819 13.331-11.836 30.176-11.959 35.147-.258 55.496-41.455 64.823-67.369 5.049 15.777 9.344 39.597.953 63.192-8.795 24.733-29.794 44.307-62.441 58.252-6.792-11.436-14.244-21.729-22.282-30.714zm-298.324-27.424c-8.406-23.522-4.112-47.414.933-63.25 9.336 25.917 29.68 67.055 64.803 67.312 17.094.125 27.247 4.263 30.309 12.312-3.643 3.219-7.17 6.634-10.572 10.246-8.774 9.316-16.612 19.867-23.407 31.376-32.406-13.913-53.277-33.401-62.066-57.996zm34.719 137.405c-1.46 10.155-4.797 29.253-9.919 56.764-.168.901-.311 1.802-.449 2.704-30.761-6.304-34.812-30.517-39.454-58.392-2.755-16.548-5.583-33.527-14.751-46.439 25.54-3.297 54.072 4.752 67.015 31.448-.947 4.586-1.768 9.225-2.442 13.915z"/><path d="m281.208 339.877c8.711 8.111 22.143 14.948 37.793 14.948 6.479 0 13.339-1.172 20.401-3.91 39.001-15.123 38.474-84.24 38.432-87.175l-.135-9.534-9.234 2.377c-.896.231-22.221 5.754-44.872 14.494-32.571 12.569-50.336 24.952-54.309 37.857-2.927 9.511 1.642 21.368 11.924 30.943zm2.413-26.53c.881-2.861 6.748-13.354 45.256-28.23 12.778-4.936 25.36-8.872 33.646-11.299-1.421 20.797-8.009 55.15-28.543 63.112-17.658 6.846-33.559.341-42.548-8.03-6.43-5.986-8.796-12.355-7.811-15.553z"/><path d="m182.652 271.077c-22.651-8.74-43.976-14.263-44.872-14.494l-9.234-2.377-.135 9.534c-.042 2.935-.569 72.052 38.432 87.175 7.062 2.739 13.922 3.911 20.401 3.911 15.65 0 29.082-6.838 37.793-14.949 10.282-9.575 14.852-21.432 11.923-30.943-3.973-12.905-21.737-25.288-54.308-37.857zm32.163 57.822c-8.991 8.372-24.892 14.878-42.549 8.03-20.534-7.962-27.122-42.315-28.543-63.112 8.285 2.428 20.867 6.363 33.646 11.299 38.508 14.876 44.374 25.369 45.255 28.231.984 3.198-1.382 9.567-7.809 15.552z"/><path d="m233.453 438.522h45.883v15h-45.883z"/></g></g><g/><g/><g/><g/><g/><g/><g/><g/><g/><g/><g/><g/><g/><g/><g/></svg>