<svg id="Layer_1" enable-background="new 0 0 512.001 512.001" viewBox="0 0 512.001 512.001" xmlns="http://www.w3.org/2000/svg"><g><g><path d="m397.502 196.995c2.082 66.368-34.956 100.767-57.063 169.3-24.408 75.666 57.706 115.412 144.826 39.037 8.575-7.518 20.712.597 18.558 11.796-5.09 26.461-76.324 87.373-159.717 87.373-171.844 0-336.167-145.618-336.167-302.177 0-107.412 86.925-194.522 194.268-194.822 105.941-.296 191.974 83.604 195.295 189.493z" fill="#58565b"/><path d="m202.763 92.324c-62.861 0-113.82 50.959-113.82 113.819v59.592c0 17.184 9.87 32.841 25.374 40.252l29.24 13.976c0 17.872 14.488 32.361 32.361 32.361h53.688c17.872 0 32.361-14.488 32.361-32.361l29.24-13.976c15.504-7.41 25.374-23.067 25.374-40.252v-59.592c.002-62.86-50.957-113.819-113.818-113.819z" fill="#fff"/><ellipse cx="465.954" cy="358.883" fill="#bcbcc0" rx="22.279" ry="18"/><path d="m217.059 401.121s-10.21-22.64 12.55-48.8h-53.69s12.61 26.4 41.14 48.8z" fill="#bcbcc0"/><path d="m173.558 308.086-29.24-14.787c-15.504-7.841-25.374-24.406-25.374-42.588v-53.05c0-42.05 20.375-79.058 51.243-100.597-46.985 14.011-81.243 57.542-81.243 109.08v59.592c0 17.184 9.87 32.841 25.374 40.252l29.24 13.976c0 17.872 14.488 32.361 32.361 32.361h18.594c-12.243-8.663-20.955-29.578-20.955-44.239z" fill="#e3e9ee"/><ellipse cx="121.419" cy="226.912" fill="#58565b" rx="32.476" ry="36.622"/><ellipse cx="284.107" cy="226.912" fill="#58565b" rx="32.476" ry="36.622"/><g fill="#474549"><path d="m113.943 226.912c0-15.23 8.246-28.285 19.976-33.807-3.848-1.811-8.07-2.815-12.5-2.815-17.936 0-32.476 16.396-32.476 36.622s14.54 36.622 32.476 36.622c4.43 0 8.652-1.004 12.5-2.815-11.73-5.522-19.976-18.578-19.976-33.807z"/><path d="m276.631 226.912c0-15.23 8.246-28.285 19.976-33.807-3.848-1.811-8.07-2.815-12.5-2.815-17.936 0-32.476 16.396-32.476 36.622s14.54 36.622 32.476 36.622c4.43 0 8.652-1.004 12.5-2.815-11.731-5.522-19.976-18.578-19.976-33.807z"/><path d="m32.939 202.324c0-103.405 80.564-187.98 182.346-194.416-4.324-.273-8.682-.419-13.079-.407-107.342.301-194.267 87.411-194.267 194.823 0 156.559 164.324 302.177 336.167 302.177 3.597 0 7.169-.121 10.716-.34-166.551-7.756-321.883-149.622-321.883-301.837z"/></g><path d="m464.675 358.883c0-6.873 4.77-12.845 11.779-15.877-3.129-1.353-6.703-2.123-10.5-2.123-12.305 0-22.279 8.059-22.279 18s9.975 18 22.279 18c3.797 0 7.371-.77 10.5-2.123-7.01-3.032-11.779-9.003-11.779-15.877z" fill="#9c9a9f"/></g><g fill="#fff"><path d="m180.263 48.148h15v15h-15z"/><path d="m210.263 48.148h15v15h-15z"/></g><g><path d="m195.263 252.478h15v33.167h-15z"/><path d="m501.753 397.372c-6.902-3.958-15.313-3.045-21.428 2.32-22.554 19.774-46.234 32.696-68.479 37.371-19.099 4.013-36.489 1.704-48.971-6.501-18.23-11.983-23.949-35.149-15.296-61.97 3.093-9.598 6.726-19.234 11.105-29.457l-13.788-5.907c-4.565 10.655-8.357 20.717-11.594 30.761-10.847 33.624-2.872 63.196 21.333 79.107 15.845 10.417 37.257 13.488 60.295 8.646 24.763-5.203 50.795-19.301 75.286-40.773 1.336-1.172 2.708-1.369 4.076-.583 1.389.796 2.686 2.613 2.162 5.33-1.96 10.188-19.161 30.723-47.18 48.713-18.947 12.166-57.804 32.574-105.166 32.574-168.942 0-328.67-143.209-328.67-294.68 0-44.532 15.891-87.686 44.746-121.513l-11.412-9.734c-31.168 36.539-48.334 83.15-48.334 131.247 0 76.531 38.687 155.037 106.14 215.39 66.974 59.923 153.55 94.291 237.53 94.291 51.191 0 92.94-21.898 113.27-34.952 29.038-18.644 50.661-42.154 53.805-58.498 1.639-8.498-2.151-17.01-9.43-21.182z"/><path d="m202.23 15.001c.187 0 .364-.001.551-.001 101.822 0 184.015 79.942 187.222 182.227 1.261 40.183-12.595 68.327-28.639 100.915-3.347 6.797-6.807 13.826-10.232 21.17l13.595 6.34c3.357-7.2 6.783-14.157 10.095-20.884 16.226-32.958 31.552-64.088 30.174-108.01-1.668-53.217-23.485-102.833-61.432-139.71-37.869-36.803-87.845-57.048-140.788-57.048-.195 0-.393 0-.588.001-54.01.15-104.741 21.32-142.845 59.609l10.632 10.581c35.28-35.45 82.249-55.05 132.255-55.19z"/><path d="m465.954 384.383c16.42 0 29.779-11.439 29.779-25.5s-13.359-25.5-29.779-25.5-29.779 11.439-29.779 25.5 13.359 25.5 29.779 25.5zm0-36c8.011 0 14.779 4.809 14.779 10.5s-6.768 10.5-14.779 10.5-14.779-4.809-14.779-10.5 6.768-10.5 14.779-10.5z"/><path d="m269.172 324.833 25.271-12.078c18.006-8.606 29.64-27.062 29.64-47.018v-59.592c0-66.896-54.424-121.319-121.319-121.319-66.896 0-121.319 54.424-121.319 121.319v59.592c0 19.956 11.634 38.412 29.64 47.018l25.271 12.078c2.222 18.16 16.708 32.576 34.895 34.709 7.646 13.683 36.302 58.125 93.493 74.208l4.061-14.439c-18.224-5.125-33.31-13.602-45.492-22.924-1.433-4.712-4.034-19.148 9.959-36.731 18.655-1.708 33.637-16.328 35.9-34.823zm-61.718 57.524c-8.217-8.364-14.286-16.433-18.361-22.532h25.951c-4.747 8.272-6.881 15.956-7.59 22.532zm-31.535-37.532c-13.708 0-24.861-11.153-24.861-24.861v-4.728l-33.506-16.014c-12.823-6.129-21.109-19.273-21.109-33.485v-4.411c6.848 6.067 15.532 9.708 24.976 9.708 22.043 0 39.976-19.793 39.976-44.122s-17.933-44.122-39.976-44.122c-8.991 0-17.297 3.295-23.982 8.845 7.098-51.785 51.622-91.81 105.326-91.81 53.703 0 98.227 40.026 105.325 91.81-6.685-5.55-14.991-8.845-23.982-8.845-22.043 0-39.976 19.793-39.976 44.122s17.933 44.122 39.976 44.122c9.444 0 18.128-3.641 24.976-9.708v4.411c0 14.212-8.286 27.355-21.109 33.485l-33.506 16.014v4.728c0 13.708-11.152 24.861-24.861 24.861zm-79.476-117.913c0-16.058 11.204-29.122 24.976-29.122s24.976 13.064 24.976 29.122-11.204 29.122-24.976 29.122-24.976-13.064-24.976-29.122zm212.64 0c0 16.058-11.204 29.122-24.976 29.122s-24.976-13.064-24.976-29.122 11.204-29.122 24.976-29.122 24.976 13.064 24.976 29.122z"/></g></g><g/><g/><g/><g/><g/><g/><g/><g/><g/><g/><g/><g/><g/><g/><g/></svg>