<svg id="Layer_1" enable-background="new 0 0 511.153 511.153" viewBox="0 0 511.153 511.153" xmlns="http://www.w3.org/2000/svg"><g><g><path d="m299.977 59.886h-89.647c-94.343 0-170.823 76.48-170.823 170.823 0 73.291 46.161 135.792 110.991 160.041l16.021 40.811c6.596 16.803 22.807 27.854 40.858 27.854h95.554c18.051 0 34.262-11.051 40.858-27.854l16.021-40.811c64.83-24.248 110.991-86.75 110.991-160.041-.001-94.342-76.481-170.823-170.824-170.823z" fill="#58565b"/><path d="m199.695 381.727 2.878 23.092c1.75 14.05 13.69 24.6 27.84 24.6h49.48c14.15 0 26.09-10.55 27.84-24.6l2.878-23.092c-50.86-33.086-110.747-.093-110.916 0z" fill="#ff6a47"/><path d="m255.153 279.889c-16.68 14.94-44.87 19.76-66.17 15.89l10.712 85.948c.169-.093 60.056-33.086 110.916 0l10.712-85.948c-21.3 3.87-49.49-.95-66.17-15.89z" fill="#ffc277"/><g fill="#ff6a47"><path d="m395.291 177.979s-6.408 30.497-28.575 43.172-51.7 2.728-51.7 2.728 6.408-30.497 28.575-43.172 51.7-2.728 51.7-2.728z"/><path d="m301.389 128.929s-20.7 23.294-46.235 23.294-46.235-23.294-46.235-23.294 20.7-23.294 46.235-23.294c25.534 0 46.235 23.294 46.235 23.294z"/><path d="m115.016 177.979s6.408 30.497 28.575 43.172 51.7 2.728 51.7 2.728-6.408-30.497-28.575-43.172c-22.168-12.675-51.7-2.728-51.7-2.728z"/></g><path d="m277.33 218.181c0 27.044-22.176 37.176-22.176 37.176s-22.176-10.133-22.176-37.176z" fill="#ffc277"/><path d="m123.516 86.538-115.833-32.416c0 20.721 7.831 40.677 21.923 55.868l32.755 35.309z" fill="#58565b"/><path d="m387.82 86.538 115.833-32.416c0 20.721-7.831 40.677-21.923 55.868l-32.755 35.309z" fill="#58565b"/><path d="m201.519 434.808-26.021-63.984c-64.83-26.133-110.991-73.493-110.991-152.482 0-58.072 31.479-109.854 76.05-143.596-59.558 26.685-101.05 86.477-101.05 155.964 0 73.291 46.161 135.792 110.991 160.041l16.021 40.811c6.596 16.803 22.807 27.854 40.858 27.854h14.62c-9.155-5.175-16.535-13.782-20.478-24.608z" fill="#474549"/><path d="m58.545 105.063c-12.686-12.206-21.053-27.335-24.314-43.512l-26.548-7.429c0 20.721 7.831 40.677 21.923 55.868l32.755 35.309 19.015-18.27z" fill="#474549"/><path d="m232.977 128.929s13.87-17.286 32.444-22.069c-3.304-.767-6.737-1.225-10.268-1.225-25.535 0-46.235 23.294-46.235 23.294s20.7 23.294 46.235 23.294c3.531 0 6.964-.457 10.268-1.225-18.574-4.783-32.444-22.069-32.444-22.069z" fill="#fd3501"/><path d="m132.462 187.954s22.022-8.705 40.931-2.531c-2.051-1.739-4.265-3.338-6.677-4.717-22.167-12.675-51.7-2.728-51.7-2.728s6.408 30.497 28.575 43.172c2.412 1.379 4.913 2.476 7.452 3.362-14.913-13.164-18.581-36.558-18.581-36.558z" fill="#fd3501"/><path d="m335.883 211.947s1.434-22.942 13.981-34.185c-2.134.808-4.235 1.779-6.273 2.944-22.167 12.675-28.575 43.172-28.575 43.172s29.533 9.947 51.7-2.728c2.038-1.165 3.94-2.483 5.719-3.912-16.053 5.11-36.552-5.291-36.552-5.291z" fill="#fd3501"/><path d="m215.393 296.324c-9.125 1.139-18.271.934-26.41-.545l10.712 85.948c.064-.035 8.739-4.811 22.254-8.914z" fill="#fcad42"/><path d="m228.502 414.189-5.465-41.703c-14.138 4.172-23.276 9.205-23.341 9.241l2.878 23.092c1.75 14.05 13.69 24.6 27.84 24.6h1.362c-1.444-4.703-2.564-9.811-3.274-15.23z" fill="#fd3501"/><g fill="#fff"><path d="m324.673 295.089v18.44c0 8.28-3.36 15.78-8.79 21.21s-12.93 8.79-21.21 8.79v-47.23c10.48 1.33 21 .89 30-1.21z"/><path d="m215.633 296.299v47.23c-8.28 0-15.78-3.36-21.21-8.79s-8.79-12.93-8.79-21.21v-18.44c9 2.1 19.52 2.54 30 1.21z"/></g></g><g fill="#fff"><path d="m194.153 156.622h15v15h-15z"/><path d="m301.153 156.622h15v15h-15z"/></g><g><path d="m402.63 179.521 1.37-6.522-6.316-2.127c-1.336-.451-33.011-10.859-57.816 3.324-24.806 14.184-31.902 46.76-32.192 48.14l-1.37 6.522 6.316 2.127c.799.27 12.456 4.103 27.005 4.103 9.77 0 20.846-1.729 30.811-7.427 24.807-14.183 31.902-46.76 32.192-48.14zm-78.229 38.991c3.081-8.847 9.976-23.898 22.912-31.295 12.937-7.397 29.405-5.705 38.592-3.872-3.081 8.847-9.976 23.897-22.912 31.294-12.939 7.399-29.41 5.705-38.592 3.873z"/><path d="m255.153 159.723c28.575 0 50.905-24.758 51.842-25.812l4.427-4.982-4.427-4.982c-.937-1.054-23.267-25.812-51.842-25.812s-50.905 24.758-51.842 25.812l-4.427 4.982 4.427 4.982c.937 1.054 23.267 25.812 51.842 25.812zm0-46.588c14.902 0 28.358 9.644 35.424 15.794-7.066 6.151-20.522 15.794-35.424 15.794-14.904 0-28.362-9.646-35.425-15.794 7.067-6.151 20.523-15.794 35.425-15.794z"/><path d="m197.685 230.986 6.316-2.127-1.37-6.522c-.29-1.38-7.386-33.957-32.192-48.14-24.806-14.184-56.48-3.775-57.816-3.324l-6.316 2.127 1.37 6.522c.29 1.38 7.386 33.957 32.192 48.14 9.967 5.699 21.04 7.427 30.811 7.427 14.547 0 26.205-3.834 27.005-4.103zm-50.372-16.346c-12.937-7.397-19.831-22.448-22.912-31.294 9.188-1.832 25.655-3.524 38.592 3.872 12.938 7.398 19.833 22.453 22.913 31.294-9.187 1.832-25.656 3.524-38.593-3.872z"/><path d="m186.587 337.22 8.54 68.531c2.214 17.767 17.385 31.165 35.29 31.165h49.474c17.904 0 33.076-13.398 35.29-31.165l8.54-68.531c5.28-6.463 8.453-14.71 8.453-23.687v-12.771c10.011-3.309 17.508-8.633 21.602-15.511l-12.89-7.672c-3.139 5.273-11.632 9.433-22.721 11.128-16.342 2.499-40.091-.414-55.51-12.342v-16.695c7.559-4.957 22.176-17.624 22.176-41.49v-7.5h-21.082v-33.5h-15v33.5h-23.271v7.5c0 23.866 14.617 36.533 22.176 41.49v16.696c-15.419 11.927-39.166 14.84-55.51 12.342-11.089-1.695-19.583-5.855-22.721-11.128l-12.89 7.672c4.094 6.879 11.59 12.202 21.602 15.511v12.771c-.001 8.976 3.172 17.223 8.452 23.686zm113.708 66.676c-1.28 10.273-10.052 18.02-20.405 18.02h-49.474c-10.353 0-19.125-7.747-20.405-18.02l-2.216-17.78c13.747-6.23 56.732-22.315 94.778-.509zm1.878-99.468c1.512.067 3.014.111 4.495.111 3.632 0 7.157-.198 10.505-.574v9.567c0 9.778-6.27 18.12-15 21.215zm-60.962-78.748h27.884c-2.333 11.476-9.679 18.047-13.938 20.986-4.279-2.951-11.614-9.522-13.946-20.986zm-18.077 125.353v-48.373c11.38-2.201 22.654-6.448 32.02-13.2 9.367 6.753 20.64 10.999 32.02 13.2v48.373h7.5c4.373 0 8.571-.76 12.476-2.142l-2.592 20.802c-20.454-10.012-44.385-12.706-69.931-7.753-11.914 2.31-21.925 5.828-28.764 8.658l-2.705-21.707c3.906 1.382 8.103 2.142 12.476 2.142zm-30-47.067c3.348.376 6.872.573 10.505.573 1.48 0 2.983-.045 4.495-.111v30.32c-8.73-3.095-15-11.437-15-21.215z"/><path d="m173.504 428.817-17.253-43.922-3.132-1.17c-30.833-11.527-57.22-31.905-76.31-58.93-8.477-12.008-15.214-24.944-20.125-38.52l64.794 8.78 2.015-14.864-71.62-9.705c-3.22-12.887-4.87-26.219-4.87-39.776 0-1.252.017-2.501.046-3.748l75.775 40.936 7.13-13.197-81.696-44.135c9.5-76.136 72.077-137.159 150.241-142.745l-1.069-14.962c-27.997 2.001-54.753 10.51-78.406 24.634l-118.841-33.258v9.887c0 22.685 8.497 44.337 23.925 60.968l29.043 31.307c-9.461 17.603-15.876 36.698-18.983 56.556l-27.038-14.607-7.13 13.198 32.39 17.498c-.251 3.87-.386 7.76-.386 11.667 0 12.773 1.339 25.366 3.966 37.621l-33.809-4.581-2.015 14.864 39.955 5.414c5.477 17.513 13.679 34.153 24.456 49.419 20.183 28.574 47.848 50.342 80.162 63.118l14.822 37.732c7.769 19.817 26.544 32.623 47.833 32.623h79.8v-15h-79.8c-15.074 0-28.368-9.067-33.87-23.102zm-138.4-323.928c-10.539-11.361-17.193-25.536-19.244-40.691l86.859 24.307c-8.061 6.114-15.653 12.94-22.677 20.452-7.026 7.514-13.328 15.553-18.885 24.015z"/><path d="m511.153 54.122v-9.887l-119.5 33.442c-27.412-16.485-58.87-25.288-91.68-25.288h-87.01v15h87.01c43.624 0 84.642 16.988 115.497 47.833 26.043 26.043 42.206 59.335 46.608 95.327l-81.726 44.151 7.13 13.197 75.775-40.936c.028 1.247.046 2.496.046 3.748 0 13.602-1.721 26.949-4.979 39.791l-71.511 9.69 2.015 14.864 64.622-8.757c-16.097 44.119-50.846 80.438-96.263 97.427l-3.131 1.171-17.254 43.926c-5.5 14.031-18.794 23.097-33.868 23.097h-.76v15h.76c21.289 0 40.064-12.805 47.831-32.618l14.823-37.738c32.323-12.785 59.988-34.554 80.159-63.118 10.779-15.264 18.982-31.904 24.46-49.418l39.955-5.414-2.015-14.864-33.809 4.581c2.627-12.254 3.966-24.847 3.966-37.621 0-3.911-.138-7.8-.386-11.667l32.389-17.498-7.13-13.197-27.02 14.597c-3.053-19.647-9.333-38.484-18.592-55.876l29.664-31.977c15.428-16.63 23.924-38.283 23.924-60.968zm-61.554 79.477c-6.739-10.337-14.593-20.054-23.523-28.984-5.753-5.751-11.837-11.05-18.197-15.902l87.597-24.514c-2.051 15.155-8.705 29.33-19.244 40.69z"/></g></g><g/><g/><g/><g/><g/><g/><g/><g/><g/><g/><g/><g/><g/><g/><g/></svg>