<svg id="Layer_1" enable-background="new 0 0 512.005 512.005" viewBox="0 0 512.005 512.005" xmlns="http://www.w3.org/2000/svg"><g><g><g><path d="m292.71 126.727s57.969-1.052 59.685-52.228c43.677 0 97.107 62.471 56.166 166l-26.144 152.315h-248.471l-31.765-152.315c-40.941-103.529 12.489-166 56.166-166 1.716 51.176 58.357 52.228 58.357 52.228z" fill="#ff6a47"/><path d="m273.219 118.241c13.205 3.308 24.994 10.16 34.324 19.48 13.419 13.429 21.715 31.963 21.715 52.438v202.654h-148.296v-202.654c0-34.705 23.843-63.837 56.039-71.918z" fill="#ff6a47"/><path d="m262.001 118.241h-25c-32.197 8.081-56.039 37.213-56.039 71.918v202.654h25v-202.654c0-34.705 23.842-63.837 56.039-71.918z" fill="#fd3501"/><circle cx="255.111" cy="80.32" fill="#ff6a47" r="43.35"/><g fill="#fd3501"><path d="m236.761 80.321c0-19.595 13.004-36.146 30.85-41.512-3.959-1.19-8.153-1.838-12.5-1.838-23.942 0-43.35 19.409-43.35 43.35 0 23.942 19.409 43.35 43.35 43.35 4.347 0 8.541-.647 12.5-1.838-17.846-5.367-30.85-21.918-30.85-41.512z"/><path d="m158.861 80.735c-.262-1.994-.441-4.067-.514-6.237-43.677 0-97.107 62.47-56.166 166l31.765 152.315h25l-31.765-152.315c-33.397-84.451-3.996-141.575 31.68-159.763z"/></g></g><path d="m399.507 503.763c57.989 0 104.998-47.009 104.998-104.998 0-80.67-76.078-85.826-87.273-125.764-7.426-26.49 12.339-53.313 12.339-53.313s-28.824-4.941-54.811 31.966c-28.392 40.323-8.806 73.413-8.806 95.36 0 10-5.414 18.731-13.467 23.438-5.057-13.957-23.232-23.438-23.232-23.438s-2.16 28.828-28.016 28.828c-14.986 0-28.02-19.108-19.293-38.873 23.972-54.291-47.059-117.501-47.059-117.501s-12.45 25.586-10.235 73.266c1.096 23.597-11.925 47.141-43.69 54.905-9.882-57.882-45.124-51.696-50.73-74.638-6.168-25.238 10.665-36.364 10.665-36.364s-40.919-7.201-63.137 15.017c-34.871 34.871 1.195 73.413 1.195 95.36 0 14.986-12.148 27.134-27.134 27.134-25.856 0-27.134-27.134-27.134-27.134s-17.499 23.936-17.178 51.751c0 57.989 47.009 104.998 104.998 104.998z" fill="#fde31d"/><g fill="#e7c900"><path d="m63.989 371.265c3.408 1.765 7.612 2.883 12.832 2.883 14.986 0 27.134-12.148 27.134-27.134 0-21.947-36.066-60.488-1.195-95.36 9.862-9.862 23.408-13.926 35.425-15.398-9.485-1.142-41.639-3.389-60.425 15.398-34.871 34.871 1.195 73.413 1.195 95.36 0 10.609-6.093 19.79-14.966 24.251z"/><path d="m32.509 398.765c-.119-10.28 2.198-20.025 5.165-28.233-12.215-7.383-12.988-23.518-12.988-23.518s-17.498 23.936-17.177 51.751c0 57.989 47.009 104.998 104.998 104.998h25c-57.989 0-104.998-47.009-104.998-104.998z"/></g></g><g fill="#fff"><path d="m233.505 169.116h15v15h-15z"/><path d="m263.505 169.116h15v15h-15z"/></g><g><path d="m455.46 303.951c-14.696-10.769-27.389-20.07-31.003-32.973-6.326-22.553 10.989-46.618 11.156-46.846l7.212-9.788-11.983-2.053c-.311-.053-2.225-.353-5.324-.315 3.936-16.385 5.649-32.239 5.082-47.256l-14.99.566c.588 15.547-1.533 32.185-6.3 49.501-11.752 3.849-26.707 12.701-40.677 32.547-22.902 32.515-17.062 61.077-12.798 81.932 1.406 6.876 2.62 12.815 2.62 17.747 0 4.268-1.41 8.367-3.893 11.709-5.504-7.561-13.119-13.068-17.804-16.013v-152.55c0-21.804-8.491-42.31-23.915-57.744-.376-.376-.763-.739-1.146-1.107 4.174-1.096 8.721-2.601 13.3-4.674 16.36-7.407 27.202-19.228 32.037-34.638 11.479 16.669 27.508 49.767 15.581 93.837l14.479 3.919c10.318-38.124 1.822-68.83-7.122-87.876-2.777-5.914-5.758-11.087-8.611-15.476 19.376 8.851 37.74 30.926 42.909 64.737l14.828-2.267c-3.688-24.121-13.612-44.874-28.703-60.016-13.839-13.886-31.335-21.851-48.001-21.851h-7.252l-.244 7.248c-1.277 37.991-38.952 43.899-49.621 44.81-1.515-.857-3.057-1.665-4.623-2.423 9.436-9.237 15.307-22.102 15.307-36.318 0-12.103-4.257-23.225-11.342-31.966 3.576-2.802 6.647-6.708 8.8-11.457 4.431-9.774 5.211-24.405-5.888-36.156l-10.904 10.3c7.551 7.996 4.305 17.071 3.13 19.663-1.626 3.587-4.249 6.327-6.672 7.182-8.031-5.312-17.645-8.416-27.974-8.416-10.372 0-20.024 3.128-28.076 8.481-2.493-.761-5.224-3.545-6.903-7.247-1.175-2.591-4.421-11.667 3.131-19.663l-10.905-10.3c-11.099 11.752-10.318 26.382-5.887 36.156 2.194 4.839 5.341 8.808 9.004 11.62-7.007 8.716-11.214 19.775-11.214 31.803 0 14.211 5.867 27.073 15.297 36.309-1.613.777-3.19 1.61-4.738 2.485-9.46-.73-47.676-6.084-48.977-44.867l-.243-7.249h-7.253c-21.949 0-43.991 13.146-58.961 35.164-11.08 16.297-17.671 36.701-19.06 59.006-1.415 22.731 2.428 47.16 11.402 72.735-6.917 2.772-13.584 6.76-19.267 12.446-27.994 27.986-15.997 58.032-7.237 79.97 3.204 8.024 6.23 15.603 6.23 20.694 0 10.83-8.806 19.64-19.63 19.64-17.958 0-19.53-17.984-19.648-19.993l-1.001-21.235-12.545 17.162c-.775 1.06-18.97 26.3-18.625 56.176 0 62.033 50.467 112.5 112.5 112.5h45.84v-15h-45.84c-53.762 0-97.5-43.738-97.5-97.586-.144-12.485 3.785-24.287 7.751-32.972 5.058 8.547 14.067 15.948 29.069 15.948 19.095 0 34.63-15.54 34.63-34.64 0-7.976-3.545-16.855-7.299-26.256-8.402-21.044-17.091-42.804 3.914-63.802 11.754-11.76 30.273-13.993 42.875-13.922-3.828 7.252-6.421 17.734-2.996 31.749 2.789 11.425 11.088 17.288 19.114 22.958 12.137 8.574 25.893 18.292 31.509 51.167l1.356 7.935 7.819-1.913c38.122-9.326 50.514-38.422 49.399-62.543-1.303-27.988 2.673-48.081 5.872-59.285 17.098 17.966 53.869 62.778 37.066 100.843-5.282 11.957-4.428 25.249 2.287 35.557 5.647 8.669 14.568 13.844 23.863 13.844 19.01 0 28.718-12.549 32.917-24.125 4.554 3.604 9.359 8.476 11.28 13.787l3.063 8.466 7.773-4.542c10.601-6.195 17.186-17.658 17.186-29.916 0-6.449-1.421-13.396-2.925-20.751-4.127-20.188-8.806-43.07 10.367-70.292 12.723-18.074 25.829-25.002 35.033-27.579-5.408 11.438-10.893 28.899-5.917 46.636 5.012 17.891 20.346 29.127 36.58 41.023 24.783 18.161 50.411 36.941 50.411 82.713 0 53.762-43.738 97.5-97.5 97.5h-226.16v15h226.16c62.032 0 112.5-50.467 112.5-112.5.003-53.378-31.35-76.353-56.542-94.814zm-236.199-223.631c0-19.768 16.082-35.85 35.85-35.85s35.85 16.083 35.85 35.85c0 19.768-16.082 35.851-35.85 35.851s-35.85-16.083-35.85-35.851zm-45.799 109.839v116.718c-7.317-10.478-15.726-16.43-22.745-21.389-7.714-5.449-11.804-8.559-13.197-14.266-4.764-19.486 7.082-28.031 7.512-28.333l16.404-10.257-19.241-3.386c-1.117-.196-17.676-2.984-36.021.501-16.43-46.497-14.497-89.569 5.617-119.151 7.474-10.993 17.221-19.37 27.551-24.138-2.841 4.376-5.807 9.53-8.572 15.418-8.944 19.046-17.44 49.752-7.123 87.876l14.479-3.919c-7.271-26.865-5.265-52.78 5.961-77.026 3.092-6.677 6.498-12.306 9.584-16.775 4.748 15.37 15.355 27.169 31.344 34.577 4.611 2.136 9.189 3.67 13.372 4.777-15.527 14.993-24.925 35.963-24.925 58.773zm148.297 156.471c-.292 3.027-2.815 21.713-20.523 21.713-4.204 0-8.427-2.629-11.295-7.032-3.994-6.132-4.408-13.898-1.134-21.31 25.879-58.625-45.869-123.412-48.936-126.141l-7.398-6.583-4.332 8.905c-.542 1.115-13.26 27.873-10.978 76.897.943 20.415-9.631 36.425-28.701 44.275v-147.195c0-29.095 18.709-54.534 46.015-63.38 6.311 2.814 13.289 4.392 20.634 4.392 7.35 0 14.334-1.58 20.649-4.399 9.929 3.23 19.013 8.793 26.478 16.25 12.588 12.597 19.521 29.337 19.521 47.137z"/><path d="m51.82 406.648v15c41.153 0 74.634-33.48 74.634-74.634 0-12.658-3.546-23.817-7.014-33.064l-14.045 5.268c2.996 7.988 6.059 17.536 6.059 27.796.001 32.882-26.751 59.634-59.634 59.634z"/><path d="m457.005 398.765c0 31.705-25.794 57.498-57.498 57.498v15c39.976 0 72.498-32.522 72.498-72.498z"/><path d="m313.369 406.648c-32.583 0-59.333-26.502-59.631-59.077l-14.999.137c.372 40.771 33.851 73.94 74.63 73.94z"/></g></g><g/><g/><g/><g/><g/><g/><g/><g/><g/><g/><g/><g/><g/><g/><g/></svg>