<svg id="Layer_1" enable-background="new 0 0 512 512" viewBox="0 0 512 512" xmlns="http://www.w3.org/2000/svg"><g><g><g><path d="m56 454.437v-246.937c0-110.457 89.543-200 200-200 110.457 0 200 89.543 200 200v246.937z" fill="#bcbcc0"/><path d="m268.5 7.9c-4.135-.255-8.3-.4-12.5-.4-110.457 0-200 89.543-200 200v246.937h25v-246.937c0-106.258 82.868-193.145 187.5-199.6z" fill="#9c9a9f"/></g><path d="m504.5 512v-47.15c0-39.626-32.124-71.75-71.75-71.75-28.397 0-52.936 16.499-64.566 40.432-2.89-.283-5.819-.432-8.784-.432-13.572 0-26.431 3.046-37.938 8.484-11.318-23.424-35.302-39.584-63.062-39.584-5.586 0-11.012.673-16.22 1.91-15.821-24.551-43.401-40.81-74.78-40.81-39.355 0-72.732 25.575-84.431 61.009-42.725 6.475-75.469 43.358-75.469 87.891z" fill="#876c3e"/><path d="m101.235 447.824c5.647-34.588 45.453-77.523 79.736-83.685-4.426-.678-8.956-1.039-13.571-1.039-39.355 0-72.732 25.575-84.431 61.009-42.725 6.475-75.469 43.358-75.469 87.891h25.581c4.483-39.816 28.681-58.194 68.154-64.176z" fill="#6e5732"/></g><g fill="#fff"><path d="m233.5 107.618h15v15h-15z"/><path d="m263.5 107.618h15v15h-15z"/></g><g><path d="m463.5 391.81v-43.47h-15v38.837c-5.092-1.031-10.358-1.577-15.75-1.577-28.879 0-54.84 15.237-68.921 40.102-13.567-.624-26.674 1.528-39.042 6.302-13.916-22.994-39.247-37.504-66.387-37.504-4.28 0-8.577.361-12.83 1.075-18.131-25.127-46.979-39.976-78.17-39.976-40.177 0-75.8 24.682-90.03 61.882-4.733.95-9.364 2.271-13.87 3.909v-159.15h-15v166.108c-9.33 5.35-17.789 12.26-24.953 20.52-15.185 17.509-23.547 39.929-23.547 63.132h15c0-39.909 29.703-74.506 69.093-80.476l4.554-.69 1.444-4.374c11.031-33.412 42.1-55.861 77.31-55.861 27.797 0 53.396 13.971 68.476 37.373l2.875 4.46 5.162-1.226c4.771-1.133 9.646-1.707 14.487-1.707 23.831 0 45.934 13.875 56.31 35.347l3.235 6.695 6.723-3.177c10.902-5.152 22.589-7.765 34.732-7.765 2.664 0 5.372.133 8.051.396l5.196.51 2.281-4.696c10.855-22.335 33.011-36.21 57.821-36.21 35.428 0 64.25 28.822 64.25 64.25v47.151h15v-47.15c0-32.8-20.03-61.008-48.5-73.04z"/><path d="m433.735 427.972c-19.16 0-36.304 11.369-43.998 28.416-2.293-.433-4.631-.651-7.002-.651-20.678 0-37.5 16.822-37.5 37.5h15c0-12.407 10.094-22.5 22.5-22.5 3.032 0 5.971.591 8.735 1.757l7.915 3.339 2.24-8.293c3.907-14.465 17.111-24.568 32.109-24.568 18.342 0 33.265 14.922 33.265 33.265h15c.001-26.613-21.65-48.265-48.264-48.265z"/><path d="m225.275 435.217c-1.312 0-2.61.085-3.893.256-6.204-12.308-18.951-20.415-33.138-20.415-16.869 0-31.134 11.321-35.622 26.762-3.304-.968-6.794-1.496-10.407-1.496-14.188 0-26.935 8.107-33.138 20.415-1.283-.17-2.581-.256-3.893-.256-16.146 0-29.283 13.136-29.283 29.283h15c0-7.875 6.407-14.283 14.283-14.283 1.925 0 3.79.375 5.544 1.115l7.916 3.34 2.239-8.294c2.596-9.609 11.367-16.319 21.331-16.319 12.186 0 22.099 9.914 22.099 22.099h15c0-11.25-5.041-21.339-12.974-28.148 1.418-10.827 10.697-19.216 21.905-19.216 9.964 0 18.735 6.711 21.331 16.32l2.24 8.293 7.915-3.339c1.754-.74 3.619-1.115 5.544-1.115 7.876 0 14.283 6.407 14.283 14.283h15c.002-16.148-13.135-29.285-29.282-29.285z"/><path d="m63.5 207.5c0-106.145 86.355-192.5 192.5-192.5 51.428 0 99.768 20.024 136.117 56.384 36.36 36.349 56.383 84.689 56.383 136.116v125.84h15v-125.84c0-55.435-21.585-107.542-60.776-146.722-39.181-39.194-91.288-60.778-146.724-60.778-114.416 0-207.5 93.084-207.5 207.5v39.74h15z"/><path d="m325.634 194.735v117.5h15v-47.5h29.706c19.299 0 35-15.701 35-35s-15.701-35-35-35zm64.706 35c0 11.028-8.972 20-20 20h-29.706v-40h29.706c11.028 0 20 8.973 20 20z"/><path d="m301.206 209.735v-15h-74.412v15h29.706v88.059h-29.706v15h74.412v-15h-29.706v-88.059z"/><path d="m202.366 229.735c0-19.299-15.701-35-35-35h-44.706v117.5h15v-47.5h28.73l7.006 5.505c6.822 5.36 10.734 13.41 10.734 22.086v19.909h15v-19.909c0-12.428-5.237-24.017-14.451-32.193 10.554-6.034 17.687-17.395 17.687-30.398zm-35 20h-29.706v-40h29.706c11.028 0 20 8.972 20 20s-8.971 20-20 20z"/></g></g><g/><g/><g/><g/><g/><g/><g/><g/><g/><g/><g/><g/><g/><g/><g/></svg>