<svg id="Layer_1" enable-background="new 0 0 512.487 512.487" viewBox="0 0 512.487 512.487" xmlns="http://www.w3.org/2000/svg"><g><g><path d="m7.5 307.394c0-134.118 154.206-134.118 154.206-134.118 0 58.449 25.87 85.822 60.684 92.582 2.845 18.948 9.198 34.124 14.429 46.15-16.775 3.264-38.885 6.802-60.995 41.268-44.471-40.235-90.353-5-90.353-5s-9.177-40.882-77.971-40.882z" fill="#ff6a47"/><path d="m313.471 321.512c-16.216-6.992-42.471-28.857-42.471-56.471s22.421-50 50-50c40.544 0 113.447-1.412 182.8-51.765 0 0-3.035 40.588-30.447 71.647h28.447s-10.918 32.941-49.977 36.706c3.765 17.882 18.824 32 18.824 32s-36.706 10.11-63.059.228c-4.235 17.655 20.235 31.772 20.235 31.772s-66.352 6.578-114.352-14.117z" fill="#fff"/><path d="m338.471 321.276c-16.216-7.101-42.471-29.307-42.471-57.352 0-23.37 15.573-43.039 36.721-48.952-4.151.058-8.069.07-11.721.07-27.579 0-50 22.386-50 50s26.255 49.479 42.471 56.471c35.202 15.177 80.273 15.686 101.806 14.879-22.832-.854-52.225-4.352-76.806-15.116z" fill="#e3e9ee"/><path d="m144.934 174.432c-39.947 4.475-137.434 26.321-137.434 132.962 10.787 0 20.107 1.006 28.157 2.701 3.37-90.788 65.001-123.721 109.277-135.663z" fill="#fd3501"/></g><g fill="#fff"><path d="m41.147 265.509h15v15h-15z"/><path d="m61.147 235.509h15v15h-15z"/></g><g><path d="m229.806 264.745-.788-5.237-5.198-1.009c-16.561-3.215-29.594-11.269-38.738-23.937-9.499-13.159-14.759-31.239-15.702-53.785h19.856v-15h-27.529v.005c-2.922 0-71.052.477-118.287 40.827l9.742 11.405c28.388-24.25 66.346-32.703 89.036-35.651-7.101 7.974-16.006 19.079-24.94 33.142-15.372 24.196-33.262 61.438-38.047 108.532-10.928-11.128-30.258-22.48-64.044-23.979 1.338-29.007 10.709-53.29 27.909-72.259l-11.113-10.075c-21.209 23.391-31.963 53.56-31.963 89.667v7.5h.039v17.209h15v-17.026c54.517 2.63 62.791 33.549 63.113 34.851l2.573 11.372 9.296-7.054c1.681-1.275 41.614-30.829 80.767 4.6l6.565 5.941 4.78-7.453c19.851-30.95 38.477-34.548 54.909-37.723l10.382-2.016-3.727-8.57c-5.593-12.868-11.273-26.884-13.891-44.277zm-117.463 63.625c-7.418 1.647-13.868 4.163-18.967 6.609 2.871-48.463 20.906-86.7 36.251-110.97 6.21-9.823 12.451-18.154 17.991-24.882-9.865 49.101-5.346 86.526.918 110.576 2.198 8.442 4.728 15.777 7.261 22.018-16.514-6.643-31.914-5.914-43.454-3.351zm63.805 11.358c-3.969-7.249-9.296-18.874-13.332-34.72-5.086-19.968-8.842-49.915-2.968-88.855 3.095 10.325 7.456 19.41 13.071 27.188 10.475 14.511 24.894 24.161 42.913 28.736 2.436 13.075 6.327 24.21 10.503 34.415-14.605 3.318-32.373 9.898-50.187 33.236z"/><path d="m511.279 163.841 1.208-16.137-13.094 9.508c-22.891 16.621-48.384 29.244-75.772 37.52l4.338 14.359c23.164-7 45.055-16.94 65.285-29.632-3.49 13.805-10.749 33.764-25.518 50.5l-10.998 12.462h32.667c-5.936 8.523-17.558 19.743-38.296 21.745l-8.348.806 1.729 8.207c2.158 10.235 7.455 19.251 12.196 25.693-12.207 1.982-31.427 3.602-46.455-2.033l-7.943-2.979-1.982 8.249c-2.569 10.697 2.223 20.002 8.166 26.943-18.903.307-49.188-.795-76.433-8.845 7.057-2.301 13.643-6.364 19.177-11.945 15.05-15.18 21.821-41.51 7.102-59.296-8.947-10.811-24.51-14.852-37.842-9.823-13.701 5.166-21.581 18.274-21.08 35.063l14.994-.447c-.311-10.388 3.73-17.697 11.378-20.581 7.312-2.758 16.144-.508 20.993 5.351 9.173 11.083 3.925 28.962-6.196 39.171-13.071 13.182-31.049 12.823-48.152-.926-7.738-8.522-13.903-19.405-13.903-31.733 0-23.435 19.065-42.5 42.5-42.5 18.61 0 53.252 0 91.556-9.281l-3.531-14.578c-36.563 8.859-70.04 8.859-88.024 8.859-31.706 0-57.5 25.794-57.5 57.5 0 31.4 28.829 55.526 47 63.357 30.561 13.179 67.615 15.764 91.983 15.764 14.873 0 25.021-.963 26.077-1.068l23.212-2.302-20.204-11.658c-3.656-2.11-11.905-8.187-15.374-15.135 26.145 5.045 55.057-2.756 56.447-3.138l12.898-3.552-9.76-9.15c-.11-.103-9.22-8.876-14.176-20.474 36.12-7.889 46.843-38.982 47.314-40.404l3.269-9.86h-23.635c19.969-29.855 22.611-62.038 22.727-63.58z"/></g></g><g/><g/><g/><g/><g/><g/><g/><g/><g/><g/><g/><g/><g/><g/><g/></svg>