<svg id="Layer_1" enable-background="new 0 0 512 512" viewBox="0 0 512 512" xmlns="http://www.w3.org/2000/svg"><g><g><path d="m7.5 300.608c0-134.118 154.206-134.118 154.206-134.118 0 58.449 25.87 85.822 60.684 92.582 2.845 18.947 9.198 34.124 14.429 46.15-16.775 3.264-38.885 6.802-60.995 41.268-44.471-40.235-90.353-5-90.353-5s-9.177-40.882-77.971-40.882z" fill="#ff6a47"/><path d="m144.934 167.645c-39.947 4.476-137.434 26.322-137.434 132.963 10.787 0 20.107 1.006 28.157 2.701 3.37-90.788 65.001-123.721 109.277-135.664z" fill="#fd3501"/><g><path d="m504.5 300.608c0-134.118-154.206-134.118-154.206-134.118 0 58.449-25.87 85.822-60.684 92.582-2.845 18.947-9.198 34.124-14.429 46.15 16.775 3.264 38.885 6.802 60.995 41.268 44.471-40.235 90.353-5 90.353-5s9.177-40.882 77.971-40.882z" fill="#ff6a47"/><path d="m367.066 167.645c39.947 4.476 137.434 26.322 137.434 132.962-10.787 0-20.107 1.006-28.157 2.701-3.37-90.787-65.001-123.72-109.277-135.663z" fill="#fd3501"/></g><path d="m112.709 458.737-54.477 12.05 12.05-54.476z" fill="#ff6a47"/><g fill="#fff"><path d="m188.936 113.168c-34.402-33.882-14.402-67.765-14.402-67.765s11.524 17.141 23.772 30.913c6.448 7.251 6.616 18.124.317 25.504z"/><path d="m323.064 113.168c34.402-33.882 14.402-67.765 14.402-67.765s-11.524 17.141-23.772 30.913c-6.448 7.251-6.616 18.124-.317 25.504z"/></g></g><g fill="#fff"><path d="m181.735 273.723h15v15h-15z"/><path d="m313.971 273.723h15v15h-15z"/></g><g><path d="m78.152 343.138 2.574 11.372 9.295-7.054c1.681-1.275 41.614-30.827 80.766 4.6l6.565 5.94 4.78-7.452c19.852-30.949 38.477-34.548 54.909-37.723l10.382-2.016-3.726-8.57c-5.594-12.867-11.274-26.884-13.891-44.276l-.788-5.237-5.199-1.009c-16.561-3.215-29.594-11.269-38.738-23.937-9.499-13.16-14.759-31.239-15.702-53.785h19.856v-15h-27.529v.004c-2.921 0-71.052.477-118.288 40.828l9.743 11.405c28.388-24.25 66.347-32.703 89.037-35.652-7.101 7.973-16.006 19.079-24.941 33.143-15.371 24.196-33.262 61.438-38.047 108.532-10.928-11.128-30.257-22.479-64.044-23.979 1.338-29.007 10.709-53.29 27.909-72.26l-11.112-10.075c-21.209 23.392-31.963 53.561-31.963 89.668v7.5h.04v17.208h15v-17.026c54.516 2.63 62.791 33.549 63.112 34.851zm81.696-133.773c3.095 10.326 7.456 19.411 13.071 27.19 10.474 14.511 24.893 24.161 42.913 28.736 2.435 13.075 6.327 24.21 10.503 34.415-14.604 3.318-32.373 9.899-50.187 33.235-3.969-7.249-9.295-18.874-13.332-34.719-5.086-19.969-8.841-49.916-2.968-88.857zm-30.222 7.858c6.21-9.823 12.452-18.154 17.992-24.882-9.866 49.101-5.346 86.526.917 110.576 2.198 8.442 4.728 15.777 7.261 22.018-16.513-6.643-31.914-5.915-43.454-3.352-7.419 1.647-13.869 4.163-18.967 6.61 2.872-48.463 20.908-86.7 36.251-110.97z"/><path d="m480.036 210.937-11.112 10.075c17.2 18.97 26.571 43.252 27.909 72.26-33.786 1.499-53.116 12.85-64.044 23.979-4.785-47.094-22.676-84.336-38.047-108.532-8.934-14.063-17.84-25.169-24.94-33.142 22.691 2.948 60.648 11.401 89.036 35.652l9.743-11.405c-47.235-40.35-115.366-40.827-118.288-40.828v-.004h-27.529v15h19.856c-.943 22.546-6.203 40.625-15.702 53.785-9.145 12.668-22.178 20.722-38.738 23.937l-5.199 1.009-.788 5.237c-2.617 17.392-8.297 31.409-13.891 44.276l-3.726 8.57 10.382 2.016c16.433 3.175 35.058 6.774 54.909 37.723l4.78 7.452 6.565-5.94c39.152-35.429 79.085-5.875 80.749-4.613l9.296 7.228 2.573-11.459c.338-1.373 8.614-32.294 63.13-34.924v17.026h15v-17.208h.04v-7.5c0-36.109-10.754-66.278-31.964-89.67zm-130.852 87.285c-4.037 15.849-9.365 27.475-13.331 34.72-17.814-23.337-35.583-29.918-50.187-33.236 4.176-10.205 8.068-21.34 10.503-34.415 18.02-4.575 32.439-14.225 42.914-28.736 5.615-7.779 9.975-16.864 13.07-27.189 5.872 38.94 2.117 68.888-2.969 88.856zm50.472 23.361c-11.54-2.562-26.941-3.291-43.454 3.352 2.533-6.241 5.063-13.576 7.262-22.018 6.263-24.05 10.783-61.475.917-110.576 5.541 6.728 11.782 15.06 17.992 24.882 15.344 24.27 33.379 62.507 36.25 110.97-5.098-2.447-11.547-4.963-18.967-6.61z"/><path d="m220.44 429.483c-10.562 5.635-23.119 4.274-35.356-3.833-2.126-1.409-4.416-3.113-6.84-4.916-9.649-7.179-21.657-16.114-37.409-17.01-15.977-.906-32.221 6.663-49.444 23.088l-25.477-25.477-17.544 79.315 79.315-17.544-25.695-25.695c32.228-30.729 50.041-17.484 67.3-4.643 2.593 1.929 5.042 3.751 7.509 5.386 9.748 6.458 20.061 9.729 30.015 9.729 7.201 0 14.214-1.711 20.688-5.166 13.305-7.1 35.673-28.119 35.998-89.128l-15-.08c-.207 38.877-10.434 66.569-28.06 75.974zm-152.345 31.441 6.556-29.638 23.083 23.083z"/><path d="m189.411 124.163 14.917-17.474c8.663-10.148 8.483-25.349-.417-35.357-11.753-13.216-23.04-29.947-23.153-30.114l-6.638-9.868-6.045 10.241c-.242.41-5.938 10.21-6.729 24.577-.723 13.135 2.563 32.878 22.328 52.344zm-12.525-62.526c4.372 5.893 9.986 13.109 15.815 19.663 3.949 4.441 4.042 11.169.217 15.65l-4.185 4.902c-12.708-15.525-13.54-30.29-11.847-40.215z"/><path d="m322.589 124.163 5.738-5.652c19.765-19.466 23.051-39.209 22.328-52.344-.792-14.366-6.488-24.167-6.729-24.577l-6.045-10.24-6.637 9.867c-.113.167-11.399 16.898-23.153 30.114-8.9 10.008-9.08 25.208-.417 35.357zm-3.291-42.863c5.828-6.553 11.441-13.767 15.813-19.659 1.694 9.933.858 24.693-11.846 40.212l-4.184-4.902c-3.825-4.482-3.732-11.21.217-15.651z"/></g></g><g/><g/><g/><g/><g/><g/><g/><g/><g/><g/><g/><g/><g/><g/><g/></svg>