<svg id="Layer_1" enable-background="new 0 0 511.576 511.576" viewBox="0 0 511.576 511.576" xmlns="http://www.w3.org/2000/svg"><g><g><path d="m313.058 369.518c-16.216-6.991-42.471-28.856-42.471-56.471 0-27.614 22.421-50 50-50 40.544 0 113.447-1.412 182.8-51.765 0 0-3.035 40.588-30.447 71.647h28.447s-10.918 32.941-49.977 36.706c3.765 17.882 18.824 32 18.824 32s-36.706 10.11-63.059.228c-4.235 17.655 20.235 31.772 20.235 31.772s-66.352 6.578-114.352-14.117z" fill="#fff"/><path d="m338.059 369.282c-16.216-7.101-42.471-29.307-42.471-57.352 0-23.37 15.573-43.039 36.721-48.952-4.151.058-8.069.07-11.721.07-27.579 0-50 22.386-50 50s26.255 49.479 42.471 56.471c35.202 15.177 80.273 15.686 101.806 14.879-22.832-.854-52.225-4.352-76.806-15.116z" fill="#e3e9ee"/><g><path d="m199.017 369.518c16.216-6.991 42.471-28.856 42.471-56.471 0-27.614-22.421-50-50-50-40.544 0-113.447-1.412-182.8-51.765 0 0 3.035 40.588 30.447 71.647h-28.447s10.918 32.941 49.977 36.706c-3.765 17.882-18.824 32-18.824 32s36.706 10.11 63.059.228c4.235 17.655-20.235 31.772-20.235 31.772s66.352 6.578 114.352-14.117z" fill="#fff"/><path d="m122.61 318.521s-17.787 15.467-39.088 12.442c.621-2.007 2.984-11.748 5.066-19.916-26.471-18.542-40.806-64.67-43.679-77.735-12.056-6.037-24.192-13.296-36.221-22.03 0 0 3.035 40.588 30.447 71.647h-28.447s10.918 32.941 49.977 36.706c-3.765 17.882-18.824 32-18.824 32s36.706 10.11 63.059.228c4.235 17.655-20.235 31.772-20.235 31.772s17.617 1.746 41.262.608c9.606-48.799-3.317-65.722-3.317-65.722z" fill="#e3e9ee"/></g><ellipse cx="255.588" cy="171.907" fill="#fde31d" rx="80" ry="45"/><path d="m200.588 171.907c0-19.436 17.755-36.269 43.671-44.542-38.815 3.097-68.671 21.854-68.671 44.542s29.856 41.446 68.671 44.543c-25.916-8.274-43.671-25.107-43.671-44.543z" fill="#e7c900"/></g><g fill="#fff"><path d="m233.088 164.407h15v15h-15z"/><path d="m263.088 164.407h15v15h-15z"/></g><g><path d="m510.367 211.847 1.209-16.137-13.095 9.508c-22.89 16.621-48.384 29.244-75.772 37.519l4.339 14.359c23.164-7 45.054-16.94 65.285-29.632-3.491 13.805-10.749 33.764-25.518 50.5l-10.998 12.462h32.666c-5.936 8.523-17.557 19.743-38.296 21.745l-8.348.806 1.73 8.207c2.156 10.229 7.449 19.24 12.188 25.681-12.225 1.977-31.468 3.595-46.446-2.021l-7.944-2.979-1.981 8.249c-2.57 10.697 2.222 20.002 8.166 26.942-18.907.315-49.189-.792-76.435-8.845 7.058-2.301 13.644-6.364 19.177-11.945 15.05-15.18 21.821-41.51 7.101-59.296-8.946-10.811-24.507-14.852-37.841-9.823-13.701 5.166-21.581 18.274-21.08 35.063l14.993-.447c-.31-10.388 3.731-17.697 11.379-20.581 7.315-2.758 16.145-.508 20.994 5.351 9.172 11.083 3.925 28.963-6.197 39.172-13.07 13.182-31.049 12.823-48.152-.927-7.737-8.522-13.902-19.405-13.902-31.733 0-23.435 19.065-42.5 42.5-42.5 18.611 0 53.252 0 91.556-9.281l-3.532-14.578c-36.563 8.859-70.039 8.859-88.024 8.859-31.706 0-57.5 25.794-57.5 57.5 0 31.401 28.83 55.527 47 63.357 30.561 13.18 67.616 15.765 91.984 15.765 14.873 0 25.02-.963 26.076-1.068l23.21-2.302-20.202-11.658c-3.656-2.11-11.905-8.187-15.374-15.135 26.145 5.048 55.057-2.755 56.447-3.138l12.826-3.546-9.676-9.146c-.111-.105-9.231-8.823-14.194-20.483 36.126-7.887 46.851-38.984 47.323-40.406l3.269-9.86h-23.635c19.966-29.852 22.608-62.036 22.724-63.578z"/><path d="m191.488 255.547c-17.985 0-51.461 0-88.024-8.859l-3.532 14.578c38.304 9.281 72.945 9.281 91.556 9.281 23.435 0 42.5 19.065 42.5 42.5 0 12.329-6.166 23.212-13.904 31.735-17.104 13.748-35.082 14.106-48.15.925-10.122-10.21-15.37-28.088-6.197-39.172 4.849-5.858 13.678-8.11 20.994-5.351 7.648 2.884 11.689 10.192 11.379 20.581l14.993.447c.501-16.789-7.379-29.897-21.08-35.063-13.335-5.028-28.896-.989-37.842 9.823-14.72 17.787-7.949 44.117 7.101 59.296 5.534 5.581 12.119 9.644 19.177 11.945-27.247 8.052-57.531 9.156-76.435 8.845 5.944-6.941 10.736-16.246 8.166-26.943l-1.981-8.249-7.944 2.979c-14.979 5.616-34.221 3.998-46.446 2.021 4.739-6.441 10.031-15.453 12.188-25.681l1.73-8.207-8.348-.806c-20.747-2.002-32.369-13.228-38.299-21.745h32.669l-10.998-12.462c-14.771-16.738-22.029-36.698-25.519-50.501 20.231 12.692 42.122 22.634 65.286 29.633l4.339-14.359c-27.388-8.275-52.882-20.898-75.772-37.519l-13.095-9.509 1.209 16.137c.115 1.542 2.757 33.726 22.726 63.58h-23.635l3.269 9.86c.472 1.422 11.197 32.519 47.323 40.406-4.963 11.66-14.082 20.377-14.184 20.473l-9.759 9.15 12.898 3.552c1.391.382 30.338 8.193 56.496 3.128-4.159 8.362-15.286 15.064-15.423 15.145l-20.202 11.658 23.21 2.302c1.057.105 11.2 1.068 26.078 1.068 24.367 0 61.424-2.586 91.981-15.764 18.172-7.831 47.001-31.957 47.001-63.358 0-31.706-25.795-57.5-57.5-57.5z"/><path d="m343.088 171.907c0-29.439-38.435-52.5-87.5-52.5s-87.5 23.061-87.5 52.5 38.435 52.5 87.5 52.5 87.5-23.06 87.5-52.5zm-87.5 37.5c-39.299 0-72.5-17.173-72.5-37.5s33.201-37.5 72.5-37.5 72.5 17.173 72.5 37.5-33.201 37.5-72.5 37.5z"/></g></g><g/><g/><g/><g/><g/><g/><g/><g/><g/><g/><g/><g/><g/><g/><g/></svg>