<svg id="Layer_1" enable-background="new 0 0 512 512" viewBox="0 0 512 512" xmlns="http://www.w3.org/2000/svg"><g><g><g fill="#ff6a47"><path d="m43.757 140.46c40.612-34.692 100.815-34.692 100.815-34.692 0 25.973 5.751 45.048 15.368 58.372s23.093 20.915 38.568 23.919c2.533 16.835 8.178 30.328 12.826 41.021-14.915 2.898-34.568 6.044-54.221 36.683-39.528-35.768-80.309-4.444-80.309-4.444s-8.16-36.346-69.305-36.346c0-33.706 10.96-57.883 26.684-75.225z"/><path d="m477.816 149.748c15.724 17.342 26.684 41.519 26.684 75.225-61.145 0-69.305 36.346-69.305 36.346s-40.781-31.324-80.309 4.444c-19.653-30.639-39.306-33.786-54.221-36.683 4.649-10.693 10.293-24.186 12.826-41.021 15.475-3.004 28.95-10.595 38.568-23.919s15.368-32.399 15.368-58.372c0 0 60.203 0 100.815 34.692z"/><path d="m227.5 175.034c-96.01 12.22-93.9 188.07-93.99 198.8-.16 18.35 10.33 28.98 27.14 31.16.23 42.29 5.59 79.49 5.59 106.37h180.15c0-24.74 2.75-63.82 2.76-106.14 18.09-1.51 29.51-12.25 29.34-31.39-.09-10.73 2.02-186.58-93.99-198.8z"/></g><g><g><path d="m209.735 150.266c2.746 8.382 4.673 16.98 12.28 21.445 0 0 24.927 15.565 34.353 15.539 9.296-.025 33.798-15.507 33.798-15.507 7.505-4.49 8.928-13.188 12.1-21.338 4.927-12.658 11.753-40.959 11.753-54.112 0-32.042-25.975-58.018-58.018-58.018s-58.018 25.975-58.018 58.018c-.001 13.152 7.65 41.453 11.752 53.973z" fill="#ff6a47"/></g><path d="m247.015 171.71c-7.607-4.464-9.534-13.063-12.28-21.445-4.102-12.52-11.753-40.821-11.753-53.974 0-27.749 19.486-50.934 45.518-56.653-4.028-.885-8.207-1.365-12.5-1.365-32.042 0-58.018 25.975-58.018 58.018 0 13.153 7.65 41.454 11.752 53.974 2.746 8.382 4.673 16.98 12.28 21.445 0 0 24.927 15.565 34.353 15.539 2.994-.008 7.566-1.623 12.387-3.803-10.308-4.6-21.739-11.736-21.739-11.736z" fill="#fd3501"/></g><g fill="#fff"><path d="m312.064 82.456c34.402-33.882 14.402-67.765 14.402-67.765s-11.524 17.141-23.772 30.913c-6.448 7.251-6.616 18.124-.317 25.504z"/><path d="m199.936 82.456c-34.402-33.882-14.402-67.765-14.402-67.765s11.524 17.141 23.772 30.913c6.448 7.251 6.616 18.124.317 25.504z"/></g><path d="m158.51 362.833c-.05 5.43.84 10.18 2.55 14.23-.33 8.57-.47 17.83-.41 27.93-16.81-2.18-27.3-12.81-27.14-31.16.09-10.73-2.02-186.58 93.99-198.8h14.67c-85.52 22.451-83.57 177.471-83.66 187.8z" fill="#fd3501"/><path d="m32.5 224.973c0-33.706 6.618-61.485 36.257-84.513 22.965-17.843 51.684-28.56 73.085-34.622-12.186.485-62.609 4.317-98.085 34.622l-9.573 9.289c-15.724 17.341-26.684 41.518-26.684 75.224 9.58 0 17.859.893 25.01 2.398-.005-.794-.01-1.59-.01-2.398z" fill="#fd3501"/></g><g fill="#fff"><path d="m233.5 250.805h15v15h-15z"/><path d="m263.5 250.805h15v15h-15z"/></g><g><path d="m511.965 223.105v-1.273h-.024c-.61-30.905-10.193-56.849-28.563-77.124l-11.115 10.071c14.987 16.542 23.229 37.67 24.549 62.883-28.526 1.43-45.457 10.774-55.397 20.294-4.525-41.205-20.245-73.814-33.771-95.105-7.36-11.586-14.702-20.923-20.777-27.893 20.249 2.861 52.324 10.548 76.502 31.207l9.744-11.404c-42.222-36.076-103.088-36.498-105.681-36.498h-24.47v15h16.784c-.928 19.472-5.542 35.094-13.767 46.49-6.798 9.416-16.082 15.918-27.618 19.377-5.22-3.22-10.833-5.894-16.884-7.907 2.954-4.176 4.584-8.939 6.087-13.344.565-1.659 1.1-3.226 1.697-4.758 4.937-12.701 12.26-42.159 12.26-56.827 0-3.95-.358-7.881-1.06-11.737 16.975-18.394 19.878-36.695 19.194-49.1-.791-14.366-6.487-24.167-6.729-24.577l-6.046-10.243-6.637 9.871c-.112.167-11.378 16.873-23.153 30.114-.825.928-1.55 1.914-2.226 2.923-11.169-8.286-24.623-12.77-38.863-12.77s-27.694 4.484-38.863 12.77c-.675-1.009-1.4-1.995-2.226-2.923-11.754-13.217-23.041-29.947-23.153-30.115l-6.638-9.867-6.045 10.24c-.242.41-5.938 10.21-6.729 24.577-.683 12.406 2.219 30.706 19.194 49.1-.702 3.856-1.06 7.788-1.06 11.737 0 14.576 8.167 44.228 12.124 56.308.303.922.595 1.848.886 2.769 1.667 5.271 3.489 10.991 7.056 15.846-6.059 2.014-11.679 4.689-16.906 7.913-11.536-3.459-20.821-9.96-27.617-19.376-8.226-11.397-12.84-27.019-13.768-46.491h16.784v-15h-24.47c-2.593 0-63.459.422-105.681 36.498l9.744 11.404c24.179-20.66 56.256-28.347 76.502-31.208-6.075 6.97-13.417 16.307-20.778 27.893-13.526 21.291-29.246 53.899-33.771 95.105-9.94-9.52-26.871-18.864-55.397-20.294 1.319-25.213 9.562-46.341 24.549-62.883l-11.115-10.071c-18.37 20.275-27.953 46.219-28.563 77.124h-.025v1.273c-.007.626-.035 1.24-.035 1.869v7.5h.035v14.462h15v-14.258c46.98 2.589 54.168 29.179 54.446 30.286l2.571 11.365 9.296-7.043c1.215-.919 28.734-21.29 58.685-4.686-12.189 42.768-13.97 88.36-14.02 110.081l-.004 1.087c-.167 19.175 9.881 32.751 27.209 37.387.356 21.088 1.868 40.809 3.219 58.387 1.235 16.062 2.302 29.934 2.302 41.821h15c0-12.463-1.087-26.601-2.346-42.971-1.462-19.02-3.119-40.577-3.248-63.442-.397-70.597 9.177-99.602 22.428-139.745 2.768-8.385 5.63-17.055 8.64-26.772l-14.328-4.438c-2.969 9.585-5.809 18.188-8.556 26.508-13.073 39.605-22.684 68.724-23.176 134.805-8.149-3.562-12.238-10.722-12.144-21.411l.004-1.182c.08-35.284 4.229-70.593 11.684-99.422 14.076-54.443 38.749-84.849 73.346-90.456 9.136 5.186 22.501 11.917 30.323 11.917h.028c7.694-.025 20.814-6.711 29.813-11.879 34.466 5.713 59.054 36.106 73.095 90.418 7.454 28.83 11.604 64.139 11.684 99.422l.004 1.185c.104 11.668-4.736 19.126-14.385 22.284-.697-61.563-8.787-89.547-18.09-121.715-3.506-12.125-7.132-24.664-10.626-39.928l-14.621 3.347c3.588 15.677 7.273 28.423 10.838 40.748 9.429 32.606 17.571 60.767 17.548 126.589-.008 23.787-.882 46.424-1.652 66.396-.598 15.481-1.113 28.851-1.113 39.743h15c0-10.604.511-23.839 1.103-39.165.706-18.3 1.495-38.827 1.638-60.517 18.694-4.03 29.539-17.795 29.361-37.911l-.004-1.089c-.049-21.721-1.83-67.313-14.02-110.081 29.95-16.606 57.469 3.764 58.665 4.671l9.316 7.157 2.57-11.464c.065-.29 6.775-27.657 54.446-30.287v14.259h15v-14.462h.036v-7.5c0-.63-.028-1.244-.035-1.869zm-414.878 20.549c-4.664 1.268-8.815 2.882-12.344 4.503 2.797-42.222 18.559-75.556 31.983-96.802 4.722-7.473 9.463-13.967 13.816-19.429-9.938 52.175-1.88 89.938 7.274 113.222-12.889-4.75-26.712-5.305-40.729-1.494zm52.808-9.068c-6.813-19.51-12.103-48.482-6.714-87.155 2.684 7.908 6.244 14.958 10.679 21.103 6.782 9.395 15.436 16.522 25.809 21.319-12.661 11.881-22.354 27.497-29.774 44.733zm158.403-183.997c5.81-6.533 11.408-13.725 15.774-19.607 1.659 9.939.81 24.707-11.81 40.156l-4.182-4.898c-3.824-4.482-3.731-11.21.218-15.651zm-108.564 20.552c-12.709-15.525-13.541-30.291-11.849-40.216 4.372 5.893 9.987 13.109 15.816 19.664 3.949 4.441 4.042 11.169.217 15.651zm93.631 81.896c-2.139 6.271-3.624 10.218-7.054 12.269l-.156.097c-10.959 6.919-25.553 14.337-29.801 14.351h-.009c-4.352-.001-19.209-7.445-30.366-14.403l-.167-.101c-4.054-2.384-5.688-7.025-8.02-14.4-.308-.974-.617-1.951-.935-2.92-4.771-14.563-11.378-40.61-11.378-51.635 0-3.361.349-6.698 1.005-9.958l8.842-10.358c4.104-4.807 6.198-10.749 6.346-16.734 9.349-8.704 21.421-13.47 34.326-13.47s24.978 4.766 34.326 13.47c.148 5.986 2.243 11.927 6.346 16.734l8.842 10.359c.656 3.26 1.005 6.596 1.005 9.957 0 11.576-6.332 38.766-11.237 51.384-.711 1.825-1.323 3.622-1.915 5.358zm68.74 81.549c-7.421-17.236-17.114-32.852-29.774-44.733 10.374-4.798 19.027-11.925 25.81-21.32 4.434-6.144 7.994-13.193 10.678-21.101 5.389 38.672.099 67.644-6.714 87.154zm52.808 9.068c-14.018-3.811-27.84-3.256-40.729 1.494 9.154-23.285 17.213-61.047 7.274-113.222 4.353 5.463 9.094 11.956 13.816 19.429 13.424 21.247 29.186 54.581 31.983 96.802-3.529-1.622-7.68-3.235-12.344-4.503z"/><path d="m253.367 436.717h15v74.647h-15z"/></g></g><g/><g/><g/><g/><g/><g/><g/><g/><g/><g/><g/><g/><g/><g/><g/></svg>