<svg id="Layer_1" enable-background="new 0 0 512.408 512.408" viewBox="0 0 512.408 512.408" xmlns="http://www.w3.org/2000/svg"><g><g><path d="m85.594 494.5v-274.333l-.057-.093c-11.732-19.12-17.943-41.114-17.943-63.546v-99.028c0-8.284 6.716-15 15-15 8.284 0 15 6.716 15 15v-20.667c0-8.284 6.716-15 15-15 8.284 0 15 6.716 15 15v-14.333c0-8.284 6.716-15 15-15 8.284 0 15 6.716 15 15v21.667c0-8.284 6.716-15 15-15 8.284 0 15 6.716 15 15v103.333h1.333l12.2-18.577c10.041-15.29 29.275-21.674 46.467-15.423l-42 79.333-30.667 27.333v274.334z" fill="#eb975d"/><path d="m449.997 494.5v-194.333l.057-.093c11.733-19.12 17.943-41.114 17.943-63.546v-99.028c0-8.284-6.716-15-15-15-8.284 0-15 6.716-15 15v-20.667c0-8.284-6.716-15-15-15-8.284 0-15 6.716-15 15v-14.333c0-8.284-6.716-15-15-15-8.284 0-15 6.716-15 15v21.667c0-8.284-6.716-15-15-15-8.284 0-15 6.716-15 15v103.333h-1.333l-12.2-18.577c-10.041-15.29-29.275-21.674-46.467-15.423l42 79.333 30.667 27.333v194.334z" fill="#ffdaaa"/><path d="m377.997 494.5v-370.333c0-8.284-6.716-15-15-15-8.284 0-15 6.716-15 15v103.333h-1.333l-12.2-18.577c-10.041-15.29-29.275-21.674-46.467-15.423l42 79.333 30.667 27.333v194.334z" fill="#ffb680"/><path d="m109.594 494.5-.057-274.427c-11.732-19.12-17.943-41.114-17.943-63.547v-113.154c-1.566-.554-7.244-.872-9-.872-8.284 0-15 6.716-15 15v99.027c0 22.432 6.21 44.427 17.943 63.547l.057.093v274.333z" fill="#b25e1e"/><path d="m504.13 512c3.309-60.689-21.868-83.047-21.868-83.047s-1.912 26.4-23.663 40.478c-30.485-84.699-117.168-89.513-117.168-89.513s31.823 46.643 14.663 79.055c0 0-18.852-26.979-77.151-56.572-48.794-24.768-27.478-78.401-27.478-78.401s-76.573 13.039-77.366 65.695c-1.056 70.116-28.6 74.926-28.6 74.926.263-82.121-81.855-84.797-81.855-84.797s25.383 36.537-2.588 85.412c-9.126-17.944-10.589-40.236-10.589-40.236s-43.244 15.333-42.478 87z" fill="#ff6a47"/><g fill="#fd3501"><path d="m361.132 439.021c14.403 12.001 19.962 19.952 19.962 19.952 13.474-25.45-3.25-59.669-11.057-73.197-16.621-5.188-28.606-5.858-28.606-5.858s20.703 30.354 19.701 59.103z"/><path d="m170.499 464.621s27.544-4.81 28.6-74.926c.473-31.398 27.888-48.707 49.948-57.568 1.191-5.034 2.418-8.127 2.418-8.127s-76.573 13.039-77.365 65.695c-.326 21.637-3.176 37.049-6.958 48.026 2.164 7.855 3.389 16.771 3.357 26.9z"/><path d="m53.206 442.523c-2.236-9.908-2.739-17.523-2.739-17.523s-43.244 15.333-42.478 87h25c-.374-35.013 9.756-56.575 20.217-69.477z"/><path d="m73.915 425.657c.989-.456 1.552-.657 1.552-.657s1.462 22.292 10.588 40.235c21.255-37.14 11.702-67.151 5.889-79.423-15.486-5.566-28.301-5.989-28.301-5.989s12.566 18.088 10.272 45.834z"/></g></g><g fill="#fff"><path d="m213.085 443.594h15v15h-15z"/><path d="m243.085 443.594h15v15h-15z"/></g><path d="m487.241 423.345-11.256-9.965-1.202 15.003c-.016.194-1.471 16.569-13.024 28.735-1.348-3.067-2.778-6.007-4.264-8.851v-146.013c11.783-19.898 18-42.577 18-65.724v-8.62h-15v8.62c0 21.053-5.821 41.669-16.833 59.618l-1.167 1.959v127.223c-16.039-19.852-35.076-31.965-50.763-39.224-8.457-3.913-16.5-6.713-23.567-8.717v-80.581l-32.173-28.679-36.765-69.442c11.33-.828 22.466 4.446 28.968 14.35l14.422 21.963h12.878v-110.83c0-2.003.782-3.891 2.184-5.297 1.426-1.421 3.313-2.203 5.316-2.203 4.136 0 7.5 3.364 7.5 7.5h.002v80.664h15l-.002-102.334c0-2.001.778-3.883 2.193-5.297 1.42-1.42 3.305-2.203 5.307-2.203 4.136 0 7.5 3.364 7.5 7.5l.002 102.333h15v-88.043c.01-1.988.79-3.86 2.182-5.257 1.426-1.42 3.313-2.203 5.316-2.203 4.136 0 7.5 3.365 7.5 7.5l.002 88.003h15v-67.333h-.002c0-2.001.778-3.883 2.193-5.297 1.42-1.42 3.305-2.203 5.307-2.203 4.136 0 7.5 3.364 7.5 7.5v75.41h15v-75.41c0-12.407-10.094-22.5-22.5-22.5-2.597 0-5.127.438-7.507 1.278-.294-12.152-10.271-21.948-22.493-21.948-2.947 0-5.81.563-8.466 1.642-2.803-9.233-11.397-15.972-21.534-15.972-6.008 0-11.66 2.343-15.914 6.597-4.247 4.247-6.586 9.895-6.586 15.903v.455c-2.347-.832-4.872-1.285-7.5-1.285-5.999 0-11.647 2.336-15.923 6.596-4.241 4.256-6.577 9.905-6.577 15.904v80.273c-12.063-18.018-34.638-25.417-55.062-17.991l-8.097 2.944 46.662 88.136 29.167 26v70.38c-6.708-1.2-10.922-1.459-11.318-1.481l-15.14-.835 8.524 12.545c.256.376 22.284 33.231 17.897 60.192-10.937-10.959-32.724-29.295-70.792-48.619-41.98-21.309-24.653-67.025-23.902-68.944l4.93-12.404-13.158 2.241c-.828.141-20.507 3.57-40.542 13.817-11.57 5.918-20.896 12.918-27.878 20.836l.622-127.714 29.184-26.015 46.662-88.136-8.097-2.944c-20.42-7.426-42.998-.028-55.062 17.991v-80.272c0-5.999-2.336-11.647-6.596-15.923-4.257-4.241-9.905-6.577-15.904-6.577-2.628 0-5.153.453-7.5 1.285v-.455c0-6.008-2.339-11.656-6.586-15.903-4.254-4.254-9.906-6.597-15.914-6.597-10.137 0-18.729 6.738-21.534 15.971-2.655-1.077-5.518-1.641-8.466-1.641-12.222 0-22.199 9.796-22.493 21.948-2.38-.84-4.91-1.278-7.507-1.278-12.406 0-22.5 10.093-22.5 22.5v55.83h15v-55.83c0-4.136 3.364-7.5 7.5-7.5 2.002 0 3.887.782 5.307 2.203 1.415 1.414 2.193 3.295 2.193 5.297h-.001v67.333h15l.001-88.003c0-4.135 3.364-7.5 7.5-7.5 2.003 0 3.891.782 5.298 2.184 1.415 1.421 2.196 3.3 2.201 5.296v88.023h15l.001-102.333c0-4.136 3.364-7.5 7.5-7.5 2.002 0 3.887.782 5.307 2.203 1.415 1.414 2.193 3.295 2.193 5.297l-.001 102.333h15v-80.663h.001c0-4.136 3.364-7.5 7.5-7.5 2.003 0 3.891.782 5.298 2.184 1.42 1.425 2.202 3.313 2.202 5.316v110.83h12.878l14.422-21.963c6.503-9.904 17.636-15.177 28.968-14.35l-36.765 69.442-32.156 28.665-.843 172.825c-.545 35.841-8.128 52.886-14.377 60.872-4.308-36.775-25.72-55.918-44.021-65.681-5.135-2.74-10.258-4.873-15.105-6.545v-160.158l-1.167-1.959c-11.013-17.949-16.833-38.564-16.833-59.618v-28.2h-15v28.2c0 23.147 6.217 45.826 18 65.724v151.944c-8.174-1.641-13.754-1.855-14.207-1.87l-14.922-.486 8.519 12.262c.199.287 17.333 25.673 4.304 61.85-3.123-11.442-3.827-21.305-3.836-21.444l-.649-9.89-9.342 3.312c-1.972.699-48.286 18-47.472 94.149l15-.16c-.492-45.927 17.742-66.564 28.971-74.901 1.49 8.635 4.393 20.768 9.911 31.617l6.296 12.379 6.898-12.054c19.884-34.746 14.88-63.77 8.921-79.858 21.501 4.511 61.689 20.325 61.513 75.494l-.028 8.952 8.818-1.54c3.445-.602 33.691-8.02 34.809-82.201.513-34.038 39.232-49.693 59.322-55.529-1.061 5.544-1.856 12.463-1.506 19.983.796 17.048 7.71 40.399 36.134 54.827 55.479 28.162 74.233 53.949 74.398 54.181l7.031 10.063 5.744-10.85c13.04-24.629 1.825-55.225-7.008-72.75 8.094 1.78 18.799 4.879 30.228 10.223 31.658 14.803 53.729 39.032 65.602 72.016l3.2 8.891 7.932-5.135c12.478-8.076 19.238-19.536 22.883-29.03 6.037 11.693 12.854 32.433 11.083 64.895l14.979.816c3.464-63.573-23.242-88.054-24.381-89.065z"/></g><g/><g/><g/><g/><g/><g/><g/><g/><g/><g/><g/><g/><g/><g/><g/></svg>