<svg id="Layer_1" enable-background="new 0 0 510.564 510.564" viewBox="0 0 510.564 510.564" xmlns="http://www.w3.org/2000/svg"><g><g><path d="m375.298 194.099c27.238-35.415 31.077-76.586 31.077-76.586s48.908 37.933 48.908 185.55c0 110.457-89.543 200-200 200s-200-89.543-200-200c0-147.618 49.227-185.55 49.227-185.55s3.839 41.17 31.077 76.586c0 0 50.696-31.241 51.625-110.125.698-59.241 68.071-73.91 68.071-73.91s-18.621 60.135 24.176 88.206c74.258 48.706 95.839 95.829 95.839 95.829z" fill="#ff6a47"/><path d="m255.282 189.446c-68.707 0-124.405 55.698-124.405 124.405v56.781c0 17.965 14.564 32.529 32.529 32.529 17.965 0 32.529 14.564 32.529 32.529 0 13.12 10.636 23.755 23.755 23.755h71.183c13.12 0 23.755-10.636 23.755-23.755 0-17.965 14.564-32.529 32.529-32.529 17.965 0 32.529-14.564 32.529-32.529v-56.781c.001-68.707-55.697-124.405-124.404-124.405z" fill="#fff"/><path d="m230.465 330.093c0 16.569-13.431 30-30 30s-30-13.431-30-30 0-30 0-30 60 13.431 60 30z" fill="#ff6a47"/><path d="m280.465 330.093c0 16.569 13.431 30 30 30s30-13.431 30-30 0-30 0-30-60 13.431-60 30z" fill="#ff6a47"/><g fill="#fd3501"><path d="m97.266 179.135c6.812 15.515 21.206 34.047 32.246 48.073 27.398-19.255 81.307-31.098 82.702-142.937.25-20.049 10.24-46.801 21.911-66.535-19.821 9.468-46.476 29.088-46.914 66.237-.929 78.884-51.625 110.125-51.625 110.125-27.238-35.415-31.077-76.586-31.077-76.586s-49.227 37.933-49.227 185.55c0 86.628 55.079 160.383 132.125 188.178-96.283-62.935-132.206-211.273-90.141-312.105z"/><path d="m195.465 330.093v-22.95c-13.16-4.398-25-7.05-25-7.05s0 13.431 0 30 13.431 30 30 30c4.463 0 8.694-.982 12.5-2.729-10.326-4.742-17.5-15.165-17.5-27.271z"/><path d="m305.465 311.24c0-.158.012-.315.016-.472-13.167 5.22-25.016 11.962-25.016 19.325 0 16.569 13.431 30 30 30 5.036 0 9.778-1.247 13.945-3.439-11.096-7.169-18.945-24.793-18.945-45.414z"/></g><path d="m220.935 438.691c0-17.965-14.564-55.529-32.529-55.529-17.965 0-32.529-14.564-32.529-32.529v-36.781c0-50.406 29.979-99.191 73.079-121.605-56.061 12.08-98.078 61.931-98.078 121.605v56.781c0 17.965 14.564 32.529 32.529 32.529 17.965 0 32.529 14.564 32.529 32.529 0 13.12 10.636 23.755 23.755 23.755h13.446c-7.278-4.06-12.202-11.83-12.202-20.755z" fill="#e3e9ee"/></g><g fill="#fff"><path d="m222.965 110.799h15v15h-15z"/><path d="m222.965 140.799h15v15h-15z"/></g><g><path d="m255.282 495.564c-106.145 0-192.5-86.355-192.5-192.5 0-21.815 1.104-42.484 3.281-61.434l-14.902-1.712c-2.242 19.516-3.379 40.761-3.379 63.146 0 114.416 93.084 207.5 207.5 207.5 54.11 0 105.323-20.704 144.204-58.298l-10.427-10.783c-36.069 34.874-83.578 54.081-133.777 54.081z"/><path d="m410.968 111.587-10.764-8.336-1.299 13.557c-.034.355-3.333 32.562-22.938 63.288-10.872-17.17-37.648-52.191-92.392-88.093-37.49-24.587-21.293-79.183-21.129-79.72l3.803-12.283-12.563 2.736c-.743.162-18.4 4.096-36.282 15.792-24.341 15.919-37.375 38.52-37.692 65.358-.364 30.835-8.542 57.661-24.306 79.732-6.809 9.532-13.646 16.073-18.227 19.91-21.616-31.708-25.166-66.351-25.2-66.71l-1.264-13.553-10.782 8.309c-1.371 1.056-33.717 26.861-46.748 113.08l14.832 2.241c7.688-50.87 22.297-78.946 31.859-92.6 3.699 15.933 11.943 41.205 29.76 64.381l4.123 5.363 5.758-3.549c2.214-1.365 54.227-34.36 55.195-116.426.257-21.777 10.532-39.522 30.539-52.743 7.104-4.694 14.271-7.996 19.982-10.202-.969 6.206-1.731 14.136-1.406 22.806 1.004 26.793 11.904 47.756 31.522 60.622 71.23 46.713 92.931 92.244 93.133 92.681l5.181 11.314 7.584-9.865c17.807-23.163 26.051-48.419 29.753-64.354 3.98 5.702 8.817 13.899 13.636 25.194 10.559 24.75 23.145 69.745 23.145 143.549 0 47.269-17.289 92.709-48.681 127.951l11.201 9.978c33.842-37.993 52.479-86.977 52.479-137.929.002-149.577-49.696-189.838-51.812-191.479z"/><path d="m188.435 435.691c0 17.234 14.021 31.255 31.255 31.255h71.184c17.234 0 31.255-14.021 31.255-31.255 0-13.801 11.228-25.029 25.029-25.029 22.072 0 40.029-17.957 40.029-40.029v-56.781c0-72.733-59.172-131.905-131.905-131.905s-131.905 59.172-131.905 131.905v56.781c0 22.072 17.957 40.029 40.029 40.029 13.801 0 25.029 11.228 25.029 25.029zm-50.058-65.058v-56.781c0-64.462 52.443-116.905 116.905-116.905s116.905 52.443 116.905 116.905v56.781c0 13.801-11.228 25.029-25.029 25.029-22.072 0-40.029 17.957-40.029 40.029 0 8.317-6.281 15.184-14.347 16.133v-28.025h-15v28.147h-15v-28.147h-15v28.147h-15v-28.147h-15v28.025c-8.066-.949-14.347-7.816-14.347-16.133 0-22.072-17.957-40.029-40.029-40.029-13.801 0-25.029-11.228-25.029-25.029z"/><path d="m200.465 367.593c20.678 0 37.5-16.822 37.5-37.5 0-10.654-11.105-19.636-34.948-28.266-15.273-5.527-30.282-8.912-30.914-9.053l-9.138-2.046v39.365c0 20.678 16.822 37.5 37.5 37.5zm-22.5-57.878c5.177 1.399 11.968 3.382 18.79 5.802 23.615 8.377 26.075 14.25 26.21 14.638-.033 12.378-10.114 22.438-22.5 22.438-12.407 0-22.5-10.093-22.5-22.5z"/><path d="m310.465 367.593c20.678 0 37.5-16.822 37.5-37.5v-39.365l-9.138 2.046c-.632.141-15.641 3.526-30.914 9.053-23.843 8.629-34.948 17.611-34.948 28.266 0 20.678 16.822 37.5 37.5 37.5zm3.71-52.076c6.822-2.42 13.613-4.403 18.79-5.802v20.377c0 12.407-10.093 22.5-22.5 22.5-12.386 0-22.467-10.06-22.5-22.438.134-.387 2.594-6.259 26.21-14.637z"/><path d="m247.782 360.093h15v24.06h-15z"/></g></g><g/><g/><g/><g/><g/><g/><g/><g/><g/><g/><g/><g/><g/><g/><g/></svg>