<svg id="Layer_1" enable-background="new 0 0 512.21 512.21" viewBox="0 0 512.21 512.21" xmlns="http://www.w3.org/2000/svg"><g><g><path d="m468.085 504.706-12.227-221.946c0-19.57-12.686-32.569-23.578-40.123-7.367-5.109-8.344-15.634-2.149-22.115l16.186-16.931c12.385-12.954 19.781-29.877 20.876-47.765 1.582-25.836-15.166-45.494-31.05-65.932-28.329-36.451-79.764-50.365-110.131-50.365 0 0 7.721 33.313-18.26 55.93-17.227 14.996-26.92 36.843-25.525 59.64l.045.727c1.095 17.889 8.491 34.811 20.876 47.765l17.285 18.08c6.16 6.443 4.629 16.959-3.113 21.379l-45.352 25.89-27.097-18.809-20.197 41.397 49.397 21.232 38.838-12.76s-31.529 111.529-31.529 204.706z" fill="#58565b"/><path d="m372.556 96.5c-25.052 0-45.361 20.309-45.361 45.361v24.211c0 6.153 2.984 11.923 8.005 15.48 5.021 3.556 8.005 9.327 8.005 15.48v9.469h58.702v-9.469c0-6.153 2.984-11.923 8.005-15.48 5.021-3.556 8.005-9.327 8.005-15.48v-24.212c0-25.052-20.309-45.36-45.361-45.36z" fill="#fff"/><path d="m213.027 7.5h30v497h-30z" fill="#876c3e"/><path d="m275.188 36h-99.012c-57.246 0-108.026 36.743-125.929 91.117 39.088-26.71 95.328-41 142.67-41h82.271z" fill="#bcbcc0"/><path d="m360.2 181.551c-5.021-3.556-8.005-9.327-8.005-15.48v-24.211c0-20.714 13.89-38.173 32.861-43.602-3.972-1.137-8.162-1.758-12.5-1.758-25.052 0-45.361 20.309-45.361 45.361v24.211c0 6.153 2.984 11.923 8.005 15.48 5.021 3.556 8.005 9.327 8.005 15.48v9.469h25v-9.469c0-6.154-2.984-11.924-8.005-15.481z" fill="#e3e9ee"/><path d="m310.491 309.008c-7.377 28.324-29.112 118.333-29.112 195.697h25c0-93.176 28.258-224.706 28.258-224.706l-15.589-4z" fill="#474549"/><path d="m275.188 287.916 64.037-38.925c7.742-4.419 12.367-20.875 6.208-27.319l-17.285-18.08c-12.385-12.954-19.781-29.877-20.876-47.765l-.045-.727c-1.396-22.797 8.298-44.644 25.525-59.64 21.61-18.812 19.905-45.006 18.719-53.293-9.316-1.796-18.021-2.637-25.459-2.637 0 0 7.721 33.313-18.26 55.93-17.227 14.996-26.92 36.843-25.525 59.64l.044.727c1.095 17.889 8.491 34.811 20.876 47.765l17.285 18.08c6.16 6.443 4.629 16.959-3.113 21.379l-45.352 25.89-27.097-18.809-9.528 19.528z" fill="#474549"/><path d="m226.174 287.915h-11.118c-8.284 0-15-6.716-15-15v-16.235c0-8.284 6.716-15 15-15h11.118c12.768 0 23.118 10.35 23.118 23.118-.001 12.767-10.351 23.117-23.118 23.117z" fill="#fff"/><path d="m222.056 272.916v-16.236c0-6.594 4.261-12.182 10.176-14.193-1.931-.523-3.961-.807-6.058-.807h-11.118c-8.284 0-15 6.716-15 15v16.235c0 8.284 6.716 15 15 15h11.118c2.097 0 4.127-.284 6.058-.807-5.915-2.01-10.176-7.598-10.176-14.192z" fill="#e3e9ee"/><path d="m175.321 36.017c-56.895.365-107.261 36.998-125.074 91.1 12.913-8.824 27.705-16.283 43.422-22.329 18.407-34.538 47.799-59.3 81.652-68.771z" fill="#9c9a9f"/></g><g fill="#fff"><path d="m365.056 241.676h15v15h-15z"/><path d="m365.056 271.676h15v15h-15z"/></g><g><path d="m409.407 214v-16.969c0-3.714 1.809-7.212 4.84-9.359 6.994-4.954 11.169-13.029 11.169-21.6v-24.212c0-29.147-23.713-52.861-52.861-52.861s-52.861 23.713-52.861 52.861v24.211c0 8.57 4.175 16.645 11.17 21.601 3.031 2.146 4.84 5.645 4.84 9.359v16.969zm-74.712-47.929v-14.014l21.151 6.601 4.469-14.319-25.229-7.874c2.627-18.33 18.425-32.466 37.47-32.466s34.843 14.137 37.47 32.466l-25.229 7.874 4.469 14.319 21.151-6.601v14.014c0 3.714-1.81 7.213-4.84 9.36-6.994 4.954-11.17 13.029-11.17 21.6v1.969h-43.702v-1.969c0-8.571-4.176-16.646-11.169-21.6-3.031-2.147-4.841-5.646-4.841-9.36z"/><path d="m273.876 512.21h202.134l-3.755-68.212-14.978.824 2.884 52.388h-171.217c1.598-89.491 30.875-194.095 31.18-195.17l3.833-13.565-.391.128 2.749-10.745-14.532-3.718-5.121 20.016-32.241 10.592-23.895-10.269v-11.153c3.422-4.486 5.63-9.941 6.143-15.875l14.907 10.347 49.456-28.234c5.714-3.259 9.535-8.86 10.482-15.368.948-6.505-1.115-12.961-5.658-17.71l-17.289-18.079c-11.146-11.659-17.824-26.942-18.809-43.088l-.046-.676c-1.234-20.244 7.136-39.753 22.968-53.527 20.335-17.706 22.489-40.883 21.83-53.72 28.078 2.297 71.277 15.655 95.713 47.094.958 1.233 1.919 2.463 2.878 3.691 13.728 17.572 26.694 34.17 26.694 54.268 0 1.013-.029 1.995-.086 2.919-.991 16.107-7.672 31.391-18.814 43.037l-16.193 16.933c-4.491 4.702-6.691 11.111-6.038 17.584.649 6.423 4.051 12.21 9.34 15.882 9.284 6.431 20.351 17.542 20.351 33.955v.207l8.091 146.856 14.978-.825-8.069-146.452c-.09-22.786-14.617-37.625-26.802-46.066-2.295-1.593-2.842-3.856-2.964-5.064-.213-2.105.501-4.188 1.957-5.712l16.188-16.928c13.59-14.204 21.739-32.843 22.947-52.483.076-1.229.114-2.522.114-3.842 0-25.262-15.187-44.702-29.874-63.502-.952-1.218-1.904-2.437-2.854-3.661-28.44-36.591-80.094-53.257-116.052-53.257l-9.357.028 2.044 9.138c.266 1.189 6.26 29.337-15.871 48.606-19.374 16.854-29.613 40.821-28.089 65.809l.046.676c1.197 19.627 9.342 38.267 22.936 52.487l17.291 18.081c1.329 1.389 1.932 3.277 1.655 5.181-.278 1.905-1.397 3.545-3.073 4.502l-41.242 23.544-21.83-15.152v-151.313h32.162v-65.117h-32.162v-28.5h-45v28.5h-29.35c-60.624 0-114.094 38.689-133.053 96.272l-6.922 21.028 18.279-12.49c35.286-24.112 89.627-39.692 138.439-39.692h12.608v66.433h15v-66.434h15v142.029c-2.95-.949-6.091-1.466-9.353-1.466h-5.647v-59.13h-15v61.254c-7.655 3.595-12.97 11.374-12.97 20.376v16.235c0 9.002 5.315 16.781 12.97 20.376v218.709h45v-201.193l23.186 9.964 28.425-9.338c-8.301 32.724-28.26 119.129-28.26 193.278v7.499zm-53.35-497.21h15v13.5h-15zm15 482h-15v-201.584h5.647c3.261 0 6.403-.518 9.353-1.466zm-9.352-216.584h-11.118c-4.136 0-7.5-3.364-7.5-7.5v-16.236c0-4.136 3.364-7.5 7.5-7.5h11.118c8.612 0 15.618 7.006 15.618 15.618s-7.007 15.618-15.618 15.618zm-33.256-201.799c-43.793 0-90.288 11.315-126.671 30.253 21.572-39.837 63.389-65.37 109.929-65.37h91.512v35.118h-74.77z"/></g></g><g/><g/><g/><g/><g/><g/><g/><g/><g/><g/><g/><g/><g/><g/><g/></svg>