<svg id="Layer_1" enable-background="new 0 0 512.398 512.398" viewBox="0 0 512.398 512.398" xmlns="http://www.w3.org/2000/svg"><g><g><path d="m207.762 6.142h30v568.258h-30z" fill="#876c3e" transform="matrix(-.707 .707 -.707 -.707 585.532 338.007)"/><path d="m205.452 420.059 38.601 30 37.899-19 57.9 50 50.93-43.982 44.874 12.982 38.607-30v-5.873c0-40.46 30-110.072 30-150.839 0-84.921-79.266-164.405-164.405-164.405s-164.405 79.485-164.405 164.405c0 40.768 30 110.38 30 150.839v5.873z" fill="#58565b"/><path d="m74.449 94.041c6.685-6.685 6.685-17.523 0-24.208l27.865-27.865c46.036-46.036 120.675-46.036 166.711 0l21.213 21.213c-32.666-32.666-102.266-16.028-134.933 16.638l-35.435 35.435c-6.685-6.685-17.523-6.685-24.208 0l-45.172 45.172-21.213-21.213z" fill="#bcbcc0"/><path d="m339.857 134.941c-68.707 0-124.405 55.698-124.405 124.405v56.781c0 17.965 14.564 32.529 32.529 32.529 17.965 0 32.529 14.564 32.529 32.529 0 13.12 10.636 23.755 23.755 23.755h71.183c13.12 0 23.755-10.636 23.755-23.755 0-17.965 14.564-32.529 32.529-32.529 17.965 0 32.529-14.564 32.529-32.529v-56.781c.001-68.707-55.697-124.405-124.404-124.405z" fill="#fff"/><path d="m315.04 275.587c0 16.569-13.431 30-30 30s-30-13.431-30-30 0-30 0-30 60 13.432 60 30z" fill="#ff6a47"/><path d="m365.04 275.587c0 16.569 13.431 30 30 30s30-13.431 30-30 0-30 0-30-60 13.432-60 30z" fill="#ff6a47"/><path d="m305.51 383.422c0-18.165-14.564-52.891-32.529-52.891-17.965 0-32.529-8.726-32.529-26.891v-44.412c0-62.615 45.251-114.537 104.49-124.176-1.687-.068-3.38-.112-5.084-.112-68.707 0-124.405 55.698-124.405 124.405v56.781c0 17.965 14.564 32.529 32.529 32.529 17.965 0 32.529 14.564 32.529 32.529 0 13.12 10.636 23.755 23.755 23.755h14.447c-7.824-3.928-13.203-12.085-13.203-21.517z" fill="#e3e9ee"/><path d="m280.04 275.587v-22.95c-13.16-4.398-25-7.05-25-7.05s0 13.431 0 30 13.431 30 30 30c4.463 0 8.694-.982 12.5-2.729-10.326-4.741-17.5-15.165-17.5-27.271z" fill="#fd3501"/><path d="m390.04 259.793c0-1.243.15-2.475.426-3.693-13.329 5.242-25.426 12.048-25.426 19.487 0 16.569 13.431 30 30 30 4.958 0 9.632-1.21 13.752-3.34-10.994-6.794-18.752-23.236-18.752-42.454z" fill="#fd3501"/><path d="m230.45 439.487c-.079-43.784-29.998-129.85-29.998-173.854 0-87.215 71.572-159.184 151.744-166.135-4.094-.366-8.209-.558-12.339-.558-85.139 0-164.405 79.485-164.405 164.405 0 40.768 30 110.38 30 150.839v5.873z" fill="#474549"/></g><g fill="#fff"><path d="m105.125 68.226h15v15h-15z" transform="matrix(.707 -.707 .707 .707 -20.559 101.818)"/><path d="m126.339 47.013h15v15h-15z" transform="matrix(.707 -.707 .707 .707 .654 110.605)"/></g><g><path d="m339.857 127.441c-72.732 0-131.905 59.172-131.905 131.905v56.781c0 22.072 17.957 40.029 40.029 40.029 13.801 0 25.029 11.228 25.029 25.029 0 17.234 14.021 31.255 31.255 31.255h71.184c17.234 0 31.255-14.021 31.255-31.255 0-13.801 11.229-25.029 25.029-25.029 22.072 0 40.029-17.957 40.029-40.029v-56.781c0-72.733-59.173-131.905-131.905-131.905zm116.905 188.687c0 13.801-11.229 25.029-25.029 25.029-22.072 0-40.029 17.957-40.029 40.029 0 8.317-6.281 15.184-14.347 16.133v-28.025h-15v28.147h-15v-28.147h-15v28.147h-15v-28.147h-15v28.025c-8.065-.949-14.347-7.816-14.347-16.133 0-22.072-17.957-40.029-40.029-40.029-13.801 0-25.029-11.228-25.029-25.029v-56.781c0-64.462 52.443-116.905 116.905-116.905s116.905 52.443 116.905 116.905z"/><path d="m287.592 247.322c-15.273-5.527-30.283-8.912-30.915-9.053l-9.138-2.046v39.365c0 20.678 16.822 37.5 37.5 37.5s37.5-16.822 37.5-37.5c.001-10.655-11.104-19.637-34.947-28.266zm-2.552 50.766c-12.406 0-22.5-10.093-22.5-22.5v-20.378c5.178 1.399 11.968 3.382 18.79 5.802 23.615 8.377 26.075 14.25 26.21 14.638-.034 12.378-10.115 22.438-22.5 22.438z"/><path d="m357.54 275.588c0 20.678 16.822 37.5 37.5 37.5s37.5-16.822 37.5-37.5v-39.365l-9.139 2.046c-.631.141-15.641 3.526-30.914 9.053-23.843 8.629-34.947 17.611-34.947 28.266zm60-20.378v20.377c0 12.407-10.094 22.5-22.5 22.5-12.386 0-22.467-10.06-22.5-22.438.135-.388 2.595-6.26 26.21-14.638 6.822-2.419 13.612-4.402 18.79-5.801z"/><path d="m332.357 305.588h15v24.06h-15z"/><path d="m463.063 147.9-10.903 10.302c28.346 30.001 44.603 68.327 44.603 105.149 0 19.415-7.513 47.017-14.778 73.71-7.483 27.494-15.222 55.925-15.222 77.12v2.209l-32.695 25.404-39.332-11.378-.836-.836h-2.054l-2.886-.835-49.106 42.405-56.786-49.038-38.146 19.123-31.968-24.845v-2.21c0-21.195-7.738-49.626-15.222-77.12-7.266-26.693-14.778-54.295-14.778-73.71 0-80.655 76.25-156.91 156.9-156.91 35.926 0 72.158 14.807 102.021 41.694l10.037-11.147c-32.623-29.371-72.42-45.546-112.059-45.546-42.529 0-86.06 19.156-119.429 52.555-19.989 20.007-34.86 43.654-43.573 68.536l-83.93-83.93 8.045-8.045c3.75-3.751 9.853-3.75 13.602 0l5.303 5.303 40.738-40.738c31.055-31.055 95.778-45.119 124.289-16.675l.037.037 10.607-10.606-21.213-21.213c-48.887-48.887-128.432-48.886-177.318 0l-33.168 33.168 5.303 5.303c3.75 3.75 3.75 9.852 0 13.602l-8.046 8.045-28.638-28.638-31.826 31.826 28.638 28.638-10.603 10.603 31.82 31.82 10.603-10.603 40.925 40.925 10.606-10.606-40.925-40.925 10.613-10.613 89.736 89.735c-1.415 5.993-2.479 12.024-3.163 18.065l-45.652-45.651-10.606 10.606 55.411 55.41c.868 20.902 8.154 47.678 15.217 73.626 7.225 26.543 14.695 53.99 14.695 73.181v9.55l45.232 35.155 37.655-18.877 59.013 50.962 27.787-23.996 45.423 45.423 31.826-31.827-28.183-28.183 20.531 5.939 44.525-34.596v-9.55c0-19.19 7.471-46.637 14.695-73.181 7.524-27.644 15.305-56.229 15.305-77.649.002-40.614-17.748-82.695-48.697-115.452zm-441.214-47.929 10.614-10.613 18.032 18.032-10.613 10.613zm28.642 49.848-10.607-10.607 39.869-39.868c7.75-7.75 9.242-19.424 4.477-28.686l23.387-23.388c39.977-39.978 103.244-42.819 146.535-8.526-10.041-1.297-20.988-1.034-32.585.853-27.406 4.459-54.16 17.512-71.565 34.918l-30.958 30.958c-9.262-4.764-20.937-3.271-28.686 4.478zm373.184 330.752-10.613 10.614-34.039-34.04 11.39-9.836z"/></g></g><g/><g/><g/><g/><g/><g/><g/><g/><g/><g/><g/><g/><g/><g/><g/></svg>