<svg id="Layer_1" enable-background="new 0 0 514.232 514.232" viewBox="0 0 514.232 514.232" xmlns="http://www.w3.org/2000/svg"><g><g><path d="m277.114-27.013h30v568.258h-30z" fill="#876c3e" transform="matrix(.707 -.707 .707 .707 -96.25 281.863)"/><path d="m207.127-27.013h30v568.258h-30z" fill="#876c3e" transform="matrix(-.707 -.707 .707 -.707 197.386 595.993)"/><path d="m95.884 108.803c-6.685 6.685-17.523 6.685-24.208 0l-27.865 27.865c-46.036 46.036-46.036 120.675 0 166.711l21.213 21.213c-32.666-32.666-16.028-102.266 16.638-134.932l35.435-35.435c-6.685-6.685-6.685-17.523 0-24.208l45.172-45.172-21.213-21.213z" fill="#bcbcc0"/><path d="m418.357 108.803c6.685 6.685 17.523 6.685 24.208 0l27.865 27.865c46.036 46.036 46.036 120.675 0 166.711l-21.213 21.213c32.666-32.666 16.028-102.266-16.638-134.932l-35.435-35.435c6.685-6.685 6.685-17.523 0-24.208l-45.172-45.172 21.213-21.213z" fill="#bcbcc0"/><path d="m256.457 146.116c-68.707 0-124.405 55.698-124.405 124.405v56.781c0 17.965 14.564 32.529 32.529 32.529 17.965 0 32.529 14.564 32.529 32.529 0 13.12 10.636 23.755 23.755 23.755h71.183c13.12 0 23.755-10.636 23.755-23.755 0-17.965 14.564-32.529 32.529-32.529 17.965 0 32.529-14.564 32.529-32.529v-56.781c.001-68.707-55.697-124.405-124.404-124.405z" fill="#fff"/><path d="m231.64 286.763c0 16.569-13.431 30-30 30s-30-13.431-30-30 0-30 0-30 60 13.431 60 30z" fill="#ff6a47"/><path d="m281.64 286.763c0 16.569 13.431 30 30 30s30-13.431 30-30 0-30 0-30-60 13.431-60 30z" fill="#ff6a47"/><g><path d="m222.11 394.597c0-18.165-14.564-52.891-32.529-52.891-17.965 0-32.529-8.726-32.529-26.891v-44.412c0-62.615 45.251-114.537 104.49-124.176-1.687-.068-3.38-.112-5.084-.112-68.707 0-124.405 55.698-124.405 124.405v56.781c0 17.965 14.564 32.529 32.529 32.529 17.965 0 32.529 14.564 32.529 32.529 0 13.12 10.636 23.755 23.755 23.755h14.447c-7.824-3.928-13.203-12.085-13.203-21.517z" fill="#e3e9ee"/><g fill="#fd3501"><path d="m196.64 286.763v-22.95c-13.16-4.398-25-7.05-25-7.05s0 13.431 0 30 13.431 30 30 30c4.463 0 8.694-.982 12.5-2.729-10.326-4.742-17.5-15.165-17.5-27.271z"/><path d="m306.64 270.969c0-1.243.15-2.475.426-3.693-13.329 5.242-25.426 12.048-25.426 19.487 0 16.569 13.431 30 30 30 4.958 0 9.632-1.21 13.752-3.34-10.994-6.795-18.752-23.237-18.752-42.454z"/></g></g></g><g fill="#fff"><g><path d="m47.321 164.708h15v15h-15z" transform="matrix(.707 -.707 .707 .707 -105.705 89.188)"/><path d="m68.535 143.494h15v15h-15z" transform="matrix(.707 -.707 .707 .707 -84.502 97.997)"/></g><g><path d="m454.534 164.708h15v15h-15z" transform="matrix(.707 -.707 .707 .707 13.558 377.146)"/><path d="m433.322 143.494h14.999v15.001h-14.999z" transform="matrix(.707 -.707 .707 .707 22.349 355.943)"/></g></g><g><path d="m460.94 394.123-10.607 10.606 42.688 42.688-10.605 10.611-104.168-104.168c3.43-3.859 6.123-8.382 7.865-13.351l53.61 53.61 10.607-10.606-61.969-61.969v-51.023c0-40.408-18.27-76.623-46.975-100.838l42.408-42.409 8.045 8.045c1.816 1.816 2.816 4.231 2.816 6.8s-1 4.984-2.816 6.8l-5.305 5.303 40.739 40.739c31.068 31.068 45.131 95.833 16.638 124.326l10.607 10.606 21.213-21.213c23.682-23.681 36.724-55.167 36.724-88.659 0-33.491-13.042-64.977-36.724-88.658l-33.168-33.168-5.303 5.303c-3.752 3.75-9.854 3.75-13.602 0l-8.046-8.046 28.639-28.638-31.824-31.824-28.638 28.638-10.603-10.603-31.819 31.82 10.603 10.603-50.93 50.93c-13.932-5.019-28.942-7.761-44.582-7.761-15.276 0-29.949 2.619-43.606 7.417l-50.582-50.582 10.606-10.606-31.819-31.82-10.606 10.606-28.644-28.643-31.814 31.83 28.636 28.635-8.049 8.046c-3.748 3.749-9.852 3.75-13.602 0l-5.303-5.303-33.168 33.168c-48.887 48.886-48.887 128.43-.001 177.317l21.214 21.213 10.607-10.606c-28.493-28.493-14.431-93.258 16.638-124.326l40.737-40.738-5.303-5.303c-3.75-3.75-3.75-9.852 0-13.602l8.047-8.047 41.801 41.801c-29.122 24.215-47.696 60.702-47.696 101.447v52.344l-74.229 74.238 10.607 10.605 66.222-66.231c1.858 4.888 4.645 9.318 8.147 13.078l-103.471 103.475-10.612-10.613 29.104-29.097-10.605-10.608-39.714 39.703 31.827 31.828 115.724-115.724c5.171 2.441 10.942 3.813 17.03 3.813 13.801 0 25.029 11.228 25.029 25.029 0 17.234 14.021 31.255 31.255 31.255h71.184c17.234 0 31.255-14.021 31.255-31.255 0-13.801 11.229-25.029 25.029-25.029 6.44 0 12.525-1.538 17.921-4.252l116.164 116.164 31.814-31.83zm-48.513-337.92 10.614 10.614-18.032 18.032-10.614-10.613zm-39.241 18.035 39.868 39.869c7.75 7.75 19.426 9.241 28.686 4.477l23.387 23.388c20.849 20.849 32.331 48.568 32.331 78.052 0 25.18-8.376 49.074-23.806 68.499 1.299-10.044 1.037-20.997-.852-32.601-4.458-27.406-17.512-54.16-34.917-71.565l-30.951-30.95c1.782-3.447 2.726-7.293 2.726-11.286 0-6.576-2.561-12.758-7.21-17.407l-39.868-39.868zm-10.61 31.817 10.613 10.613-43.922 43.922c-4.3-2.858-8.775-5.471-13.408-7.818zm-271.374-39.24 10.605-10.611 18.034 18.034-10.608 10.608zm20.591 57.898c-7.749 7.75-9.242 19.424-4.477 28.686l-30.958 30.958c-17.405 17.406-30.459 44.159-34.917 71.565-1.888 11.599-2.15 22.546-.853 32.586-34.293-43.29-31.452-106.559 8.526-146.536l23.387-23.387c9.261 4.764 20.937 3.272 28.686-4.478l39.868-39.869 10.606 10.607zm29.261-8.047 10.608-10.608 46.274 46.275c-4.658 2.316-9.161 4.898-13.488 7.728zm232.308 210.637c0 13.801-11.229 25.029-25.029 25.029-22.072 0-40.029 17.957-40.029 40.029 0 8.317-6.281 15.184-14.347 16.133v-28.025h-15v28.147h-15v-28.147h-15v28.147h-15v-28.147h-15v28.025c-8.065-.949-14.347-7.816-14.347-16.133 0-22.072-17.957-40.029-40.029-40.029-13.801 0-25.029-11.228-25.029-25.029v-56.781c0-64.462 52.443-116.905 116.905-116.905s116.905 52.443 116.905 116.905z"/><path d="m204.192 258.497c-15.273-5.527-30.283-8.912-30.914-9.053l-9.139-2.046v39.365c0 20.678 16.822 37.5 37.5 37.5s37.5-16.822 37.5-37.5c.001-10.655-11.104-19.637-34.947-28.266zm-2.552 50.766c-12.406 0-22.5-10.093-22.5-22.5v-20.377c5.178 1.399 11.968 3.382 18.79 5.802 23.615 8.377 26.075 14.25 26.21 14.638-.034 12.377-10.115 22.437-22.5 22.437z"/><path d="m274.14 286.763c0 20.678 16.822 37.5 37.5 37.5s37.5-16.822 37.5-37.5v-39.365l-9.139 2.046c-.631.141-15.641 3.526-30.914 9.053-23.843 8.629-34.947 17.611-34.947 28.266zm60-20.378v20.377c0 12.407-10.094 22.5-22.5 22.5-12.386 0-22.467-10.06-22.5-22.438.135-.388 2.595-6.26 26.21-14.638 6.822-2.419 13.612-4.402 18.79-5.801z"/><path d="m248.957 316.763h15v24.06h-15z"/></g></g><g/><g/><g/><g/><g/><g/><g/><g/><g/><g/><g/><g/><g/><g/><g/></svg>