<svg id="Layer_1" enable-background="new 0 0 510.703 510.703" viewBox="0 0 510.703 510.703" xmlns="http://www.w3.org/2000/svg"><g><g><path d="m447.467 166.291s-7.327 26.587-19.027 54.103c-25.171-95.291-86.231-147.279-86.231-147.279s9.762 52.476-4.407 88.941c0 0-15.566-30.353-63.702-63.647-40.288-27.866-22.688-88.206-22.688-88.206s-63.224 14.669-63.879 73.91c-.872 78.884-23.615 84.296-23.615 84.296 0-43.974-18.879-90-18.879-90s-27.819 40.775-50.914 95.762c-7.535-20.187-20.892-34.736-20.892-34.736s-116.979 363.768 178.18 363.768c284.119 0 196.054-336.912 196.054-336.912z" fill="#fde31d"/><g><path d="m177.572 404.31c4.615 14.019 7.853 28.4 20.636 35.867 0 0 41.89 26.032 57.73 25.99 15.623-.042 56.798-25.937 56.798-25.937 12.613-7.509 15.004-22.057 20.335-35.689 8.279-21.171 19.751-68.505 19.751-90.504 0-53.592-43.652-97.036-97.5-97.036s-97.5 43.445-97.5 97.036c0 21.999 12.857 69.334 19.75 90.273z" fill="#ff6a47"/></g><path d="m223.209 440.177c-12.784-7.467-16.021-21.848-20.636-35.867-6.893-20.94-19.75-68.274-19.75-90.273 0-49.377 37.056-90.139 85-96.245-4.093-.521-8.265-.791-12.5-.791-53.848 0-97.5 43.445-97.5 97.036 0 22 12.857 69.334 19.75 90.273 4.615 14.019 7.853 28.4 20.636 35.867 0 0 41.89 26.032 57.73 25.99 3.228-.009 7.548-1.123 12.369-2.882-18.802-6.767-45.099-23.108-45.099-23.108z" fill="#fd3501"/><path d="m352.795 308.271c51.835-51.052 21.7-102.104 21.7-102.104s-17.364 25.826-35.818 46.578c-9.715 10.925-9.969 27.308-.477 38.427z" fill="#fff"/><path d="m158.932 308.271c-51.835-51.052-21.7-102.104-21.7-102.104s17.364 25.826 35.818 46.578c9.715 10.925 9.969 27.308.477 38.427z" fill="#fff"/><path d="m351.576 329.716c-1.571 11.917-4.496 26.217-7.865 39.693-6.424 9.577-15.264 16.954-26.899 16.954-19.435 0-35.187-14.549-35.187-32.5 0-14.884 52.13-22.11 69.951-24.147z" fill="#ffc277"/><path d="m229.246 353.864c0 17.951-15.752 32.5-35.187 32.5-11.278 0-19.933-6.912-26.293-16.055v-.011c-3.521-13.704-6.803-28.405-8.58-40.592 17.714 2.015 70.06 9.24 70.06 24.158z" fill="#ffc277"/><path d="m192.767 370.309v-.011c-3.166-12.324-6.136-25.448-7.995-36.832-10.21-1.875-19.766-3.099-25.585-3.761 1.777 12.188 5.059 26.888 8.58 40.592v.011c6.359 9.143 15.015 16.055 26.293 16.055 4.852 0 9.474-.907 13.678-2.547-5.97-2.808-10.935-7.704-14.971-13.507z" fill="#fcad42"/><path d="m306.625 348.794c0-5.685 5.692-10.402 13.954-14.257-19.299 3.936-38.954 10.187-38.954 19.327 0 17.951 15.752 32.5 35.187 32.5 4.295 0 8.206-1.011 11.758-2.761-12.869-5.586-21.945-19.061-21.945-34.809z" fill="#fcad42"/><path d="m154.491 230.046c-10.054-13.167-17.259-23.879-17.259-23.879s-30.135 51.052 21.7 102.104l12.367-14.488c-17.856-24.226-19.356-47.338-16.808-63.737z" fill="#e3e9ee"/><path d="m363.2 291.173c-9.492-11.12-9.238-27.503.477-38.427 6.571-7.389 13-15.418 18.56-22.699-2.268-14.598-7.741-23.879-7.741-23.879s-17.364 25.826-35.818 46.578c-9.715 10.925-9.969 27.308-.477 38.427l14.595 17.098c4.918-4.844 9.095-9.688 12.633-14.488z" fill="#e3e9ee"/><g fill="#e7c900"><path d="m213.065 85.82c2.4-32.443 23.808-50.795 35.214-58.35 1.103-10.295 3.134-17.268 3.134-17.268s-63.224 14.669-63.879 73.91c-.872 78.884-23.615 84.296-23.615 84.296 37.386.001 45.856-38.117 49.146-82.588z"/><path d="m149.9 91.865c-2.779-8.383-4.859-13.457-4.859-13.457s-27.819 40.775-50.914 95.762v31.997s52.119-62.464 55.773-114.302z"/><path d="m86.472 158.082c-6.57-11.381-13.237-18.648-13.237-18.648s-56.222 174.852 7.653 282.105c-29.941-100.181-3.246-227.107 5.584-263.457z"/></g></g><g fill="#fff"><path d="m247.864 266.409h15v15h-15z"/><path d="m247.864 296.409h15v15h-15z"/></g><g><path d="m251.413 495.703c-64.656 0-113.815-18.035-146.109-53.605-47.961-52.825-51.072-135.832-45.235-196.163l-14.931-1.444c-3.831 39.598-2.821 75.82 3.001 107.661 7.49 40.962 22.986 74.617 46.059 100.03 35.257 38.833 88.151 58.522 157.215 58.522 83.77 0 144.355-28.691 180.072-85.276l-12.685-8.007c-32.787 51.943-89.104 78.282-167.387 78.282z"/><path d="m467.061 249.548c-2.811-48.261-11.953-83.668-12.341-85.152l-7.064-27.023-7.423 26.928c-.054.194-4.092 14.75-10.833 33.191-27.955-83.056-79.951-128.068-82.324-130.089l-16.08-13.688 3.843 20.767c.081.435 6.85 37.92.249 70.034-9.555-12.501-27.224-31.871-56.718-52.27-35.295-24.415-19.914-79.399-19.757-79.942l3.589-12.304-12.484 2.897c-.703.163-17.407 4.129-34.285 15.893-22.86 15.932-35.101 38.491-35.399 65.241-.386 35.016-5.104 54.38-9.669 64.965-3.959-37.895-17.704-71.774-18.382-73.43l-5.286-12.883-7.849 11.502c-1.043 1.53-23.542 34.698-44.948 81.784-7.142-12.818-14.713-21.141-15.143-21.609l-8.719-9.495-3.946 12.272c-.516 1.606-12.72 39.928-19.262 92.144l14.884 1.864c4.048-32.308 10.455-59.569 14.608-75.211 3.646 5.528 7.74 12.729 10.772 20.86l6.613 17.731 7.329-17.447c15.023-35.763 32.23-65.672 42.097-81.733 5.424 16.61 13.289 45.459 13.289 73.068v9.498l9.239-2.202c4.749-1.132 28.481-10.863 29.371-91.512.244-21.851 9.864-39.626 28.593-52.832 6.284-4.431 12.621-7.614 17.801-9.804-3.093 20.827-3.936 60.646 28.41 83.021 45.707 31.614 61.153 60.626 61.293 60.895l7.618 14.85 6.046-15.556c8.943-23.011 8.967-51.438 7.501-70.785 19.274 21.518 52.278 65.407 68.897 128.323l5.59 21.162 8.564-20.144c4.083-9.603 7.626-19.042 10.526-27.316 2.435 14.357 5.001 33.34 6.232 54.72 2.466 42.824-.065 104.34-26.128 154.208l13.294 6.948c27.699-52.996 30.402-117.533 27.792-162.339z"/><path d="m390.572 237.662c-1.142-20.732-9.272-34.722-9.618-35.308l-6.045-10.241-6.637 9.868c-.166.246-16.207 24.027-33.446 43.788-19.84-22.868-48.874-36.267-79.502-36.267-30.285 0-59.132 13.171-78.956 35.645-17.037-19.633-32.746-42.926-32.909-43.169l-6.637-9.871-6.046 10.242c-.342.579-8.385 14.417-9.601 34.954-1.083 18.296 3.207 45.587 29.222 72.969-.046 1.263-.073 2.521-.073 3.761 0 2.185.116 4.586.33 7.153l-.293-.033 1.405 9.635c.383 2.625.828 5.325 1.317 8.051.01.054.02.109.03.163.152.843.307 1.687.466 2.534.138.735.281 1.475.425 2.217.024.121.047.242.07.363 1.737 8.883 3.916 18.233 6.193 27.14v1.406l.577.83c3.454 13.305 7.056 25.418 9.605 33.164.509 1.548 1.001 3.101 1.491 4.648 4.042 12.752 8.62 27.201 22.388 35.292 7.49 4.651 44.48 27.069 61.574 27.068h.061c16.857-.043 53.334-22.413 60.689-27.035 12.339-7.386 16.488-19.51 20.5-31.236.921-2.693 1.874-5.478 2.907-8.118 6.769-17.307 16.246-53.513 19.282-79.076l.926-7.024-.237.027c.19-2.565.294-4.971.294-7.169 0-.898-.019-1.784-.042-2.667 26.786-27.593 31.309-55.197 30.29-73.704zm-251.633-15.991c6.877 9.554 17.434 23.605 28.501 36.045.92 1.038 1.742 2.157 2.444 3.328 1.204 2.005 2.055 4.143 2.56 6.333 1.329 5.766.243 11.885-3.106 16.892-.467.699-.964 1.383-1.519 2.034l-9.191 10.772c-27.178-30.522-24.325-59.765-19.689-75.404zm29.313 116.742c8.152 1.134 18.446 2.823 28.083 5.139 21.279 5.113 24.953 9.819 25.409 10.552-.143 13.675-12.507 24.76-27.685 24.76-7.118 0-13.629-3.957-19.37-11.766-2.048-8.053-4.533-18.508-6.437-28.685zm154.708 72.123c-3.431 10.028-6.395 18.689-14.062 23.251l-.157.096c-16.339 10.275-43.527 24.755-52.821 24.779h-.031c-9.994 0-38.248-15.242-53.727-24.86l-.178-.107c-8.85-5.166-12.045-15.249-15.746-26.924-.506-1.598-1.015-3.202-1.542-4.803-1.049-3.189-2.167-6.759-3.315-10.582 4.037 1.63 8.277 2.478 12.676 2.478 23.538 0 42.687-17.944 42.687-40 0-13.856-19.418-20.438-34.025-24.183-12.818-3.286-27.038-5.461-36.836-6.719-.36-3.326-.562-6.341-.562-8.93 0-.567.006-1.14.017-1.715l3.106-3.641 10.781-12.635c8.919-10.293 11.251-25.517 5.897-38.029 17.014-21.061 42.927-33.51 70.198-33.51 27.729 0 53.93 12.806 70.937 34.45-4.729 12.292-2.677 26.649 6.235 37.089l12.772 14.963c.035.995.056 2.004.056 3.029 0 2.574-.185 5.6-.519 8.953-9.804 1.264-23.995 3.444-36.753 6.722-14.564 3.743-33.926 10.319-33.926 24.156 0 22.056 19.149 40 42.687 40 4.509 0 8.849-.892 12.974-2.605-1.256 3.92-2.502 7.495-3.698 10.552-1.147 2.942-2.152 5.882-3.125 8.725zm13.789-44.239c-5.893 8.34-12.595 12.567-19.937 12.567-15.178 0-27.542-11.084-27.685-24.76.456-.732 4.122-5.425 25.317-10.53 9.663-2.327 20.011-4.025 28.189-5.163-1.524 8.831-3.584 18.507-5.884 27.886zm16.353-69.22-9.197-10.774c-6.99-8.188-6.828-20.473.377-28.574 11.069-12.447 21.627-26.5 28.506-36.053 4.637 15.648 7.476 44.882-19.686 75.401z"/></g></g></svg>