<svg id="Layer_1" enable-background="new 0 0 512 512" viewBox="0 0 512 512" xmlns="http://www.w3.org/2000/svg"><g><g><path d="m186.932 314.012-3.757.956c-8.669-16.082-34.926-47.262-49.847-66.909-29.664-39.062-53.137-42.094-86.836-24.79l95.187 207.89 74.901 73.341h205.978l5.961-8.839c25.61-37.973 39.292-82.73 39.292-128.532v-196.08h-140.44v-94.89-33.549c0-19.391-15.719-35.11-35.11-35.11-19.391 0-35.11 15.719-35.11 35.11v50.714c0-19.391-15.719-35.11-35.11-35.11-19.391 0-35.11 15.719-35.11 35.11v220.688z" fill="#ffdaaa"/><path d="m419.648 368.266s-51.574 70-115.193 70-115.193-70-115.193-70 51.574-70 115.193-70 115.193 70 115.193 70z" fill="#fff"/><circle cx="304.456" cy="368.266" fill="#58565b" r="40"/><path d="m222.042 301.012v-242.798c-19.391 0-35.11 15.719-35.11 35.11v227.688z" fill="#ffb680"/><path d="m66.61 215.19c-6.353 1.688-13.007 4.428-20.118 8.079l95.187 207.89 74.901 73.341h25.462l-74.831-95.5z" fill="#ffb680"/><path d="m289.456 368.266c0-17.724 11.533-32.747 27.5-37.997-3.934-1.294-8.133-2.003-12.5-2.003-22.091 0-40 17.909-40 40s17.909 40 40 40c4.367 0 8.566-.71 12.5-2.003-15.968-5.251-27.5-20.273-27.5-37.997z" fill="#474549"/><path d="m224.152 368.266s39.502-63.174 89.741-69.486c-3.113-.332-6.259-.514-9.437-.514-63.619 0-115.193 70-115.193 70s51.574 70 115.193 70c3.178 0 6.324-.182 9.437-.514-50.239-6.312-89.741-69.486-89.741-69.486z" fill="#e3e9ee"/><path d="m432.702 234.753c19.391 0 35.11-15.719 35.11-35.11v-10.929c0-18.878-15.303-34.181-34.181-34.181h-21.039c-8.284 0-15 6.716-15 15v30.11c-.001 19.391 15.719 35.11 35.11 35.11z" fill="#ffdaaa"/><path d="m362.481 204.753c19.391 0 35.11-15.719 35.11-35.11v-18.04c0-20.474-16.597-37.071-37.071-37.071h-18.149c-8.284 0-15 6.716-15 15v40.111c.001 19.391 15.72 35.11 35.11 35.11z" fill="#ffdaaa"/><g fill="#ffb680"><path d="m352.372 169.643v-40.111c0-8.284 6.716-15 15-15h-25c-8.284 0-15 6.716-15 15v40.111c0 19.391 15.719 35.11 35.11 35.11 4.404 0 8.616-.818 12.5-2.299-13.217-5.038-22.61-17.824-22.61-32.811z"/><path d="m422.591 199.643v-30.11c0-8.284 6.716-15 15-15h-25c-8.284 0-15 6.716-15 15v30.11c0 19.391 15.719 35.11 35.11 35.11 4.404 0 8.616-.818 12.5-2.299-13.216-5.038-22.61-17.824-22.61-32.811z"/></g></g><g fill="#fff"><path d="m289.456 468.206h15v15h-15z"/><path d="m319.456 468.206h15v15h-15z"/></g><g><path d="m460.312 367.13c0 44.477-13.143 87.471-38.009 124.337l-3.73 5.533h-198.93l-71.721-70.226-91.558-199.959c25.382-11.493 44.364-9.279 70.995 25.78 4.247 5.594 9.348 12.043 14.749 18.871 13.38 16.917 28.547 36.091 34.463 47.064l2.773 5.143 5.666-1.431c1.099-.278 1.533-.39 2.011-.513l7.412-1.885v-153.584h-15v129.192c-7.417-10.354-16.855-22.287-25.56-33.292-5.353-6.768-10.409-13.16-14.568-18.637-30.025-39.526-57.007-47.078-96.239-26.925l-6.377 3.275 98.174 214.409.579 1.264 78.079 76.454h213.03l8.188-12.146c26.543-39.353 40.572-85.248 40.572-132.724v-54.42h-15v54.42z"/><path d="m183.225 363.817-3.278 4.449 3.278 4.449c2.198 2.983 54.588 73.051 121.231 73.051s119.033-70.068 121.23-73.051l3.277-4.449-3.277-4.449c-2.197-2.983-54.588-73.051-121.23-73.051-66.644 0-119.034 70.068-121.231 73.051zm121.231-58.051c49.981 0 93.243 47.543 105.617 62.505-12.354 14.969-55.533 62.495-105.617 62.495-49.982 0-93.245-47.545-105.618-62.505 12.354-14.969 55.534-62.495 105.618-62.495z"/><path d="m304.456 415.766c26.191 0 47.5-21.309 47.5-47.5s-21.309-47.5-47.5-47.5-47.5 21.309-47.5 47.5 21.308 47.5 47.5 47.5zm0-80c17.921 0 32.5 14.58 32.5 32.5s-14.579 32.5-32.5 32.5-32.5-14.58-32.5-32.5 14.579-32.5 32.5-32.5z"/><path d="m433.63 147.033h-21.039c-2.677 0-5.246.472-7.63 1.334-1.665-23.07-20.953-41.334-44.441-41.334h-18.148c-2.629 0-5.153.458-7.5 1.29v-65.713c0-23.495-19.114-42.61-42.609-42.61-11.374 0-22.074 4.43-30.138 12.48-8.043 8.056-12.473 18.756-12.473 30.129v18.28c-7.442-6.345-17.087-10.18-27.61-10.18-11.374 0-22.074 4.43-30.137 12.481-8.043 8.056-12.473 18.756-12.473 30.129v57.94h15v-57.939c0-7.371 2.872-14.307 8.08-19.522 5.223-5.216 12.16-8.088 19.531-8.088 15.224 0 27.61 12.386 27.61 27.61v165.357h15v-216.067c0-7.371 2.872-14.308 8.079-19.522 5.224-5.215 12.16-8.087 19.531-8.087 15.224 0 27.609 12.386 27.609 27.61v216.067h15v-56.618c7.443 6.349 17.083 10.194 27.61 10.194s20.167-3.845 27.609-10.194v56.617h15v-26.618c7.443 6.349 17.083 10.195 27.61 10.195s20.167-3.845 27.61-10.195v65.651h15v-108.996c.001-22.983-18.697-41.681-41.681-41.681zm-43.539 22.611c0 15.224-12.386 27.61-27.609 27.61-15.225 0-27.61-12.386-27.61-27.61v-40.111c0-4.136 3.364-7.5 7.5-7.5h18.148c16.306 0 29.571 13.266 29.571 29.571zm70.221 29.999c0 15.225-12.386 27.61-27.61 27.61s-27.61-12.386-27.61-27.61v-30.11c0-4.136 3.364-7.5 7.5-7.5h21.039c14.712 0 26.682 11.969 26.682 26.682v10.928z"/></g></g><g/><g/><g/><g/><g/><g/><g/><g/><g/><g/><g/><g/><g/><g/><g/></svg>