<svg id="Layer_1" enable-background="new 0 0 509 509" viewBox="0 0 509 509" xmlns="http://www.w3.org/2000/svg"><g><g><path d="m354.515 192.535c36.474 0 31.077-76.586 31.077-76.586s68.908 58.996 68.908 185.551c0 110.457-89.543 200-200 200s-200-89.543-200-200c0-114.887 69.227-185.55 69.227-185.55s3.773 76.586 31.077 76.586c0-81.948 99.696-181.036 99.696-181.036s100.015 138.105 100.015 181.035z" fill="#ff6a47"/><path d="m394.377 315.265s-62.625 85-139.877 85-139.877-85-139.877-85 62.625-85 139.877-85 139.877 85 139.877 85z" fill="#fff"/><circle cx="254.5" cy="315.265" fill="#58565b" r="48.571"/><g fill="#fd3501"><path d="m180.353 212.189c2.676-79.366 74.147-200.689 74.147-200.689s-99.696 99.088-99.696 181.035c0 0 7.888 10.876 25.549 19.654z"/><path d="m79.5 301.5c0-44.435 26.009-140.012 43.103-184.353-8.913 9.7-68.103 78.115-68.103 184.353 0 77.36 43.926 144.454 108.193 177.721-49.885-42.7-83.193-114.873-83.193-177.721z"/></g><path d="m230.928 315.265c0-22.502 15.305-41.423 36.071-46.94-3.989-1.06-8.177-1.632-12.5-1.632-26.825 0-48.571 21.746-48.571 48.571s21.746 48.571 48.571 48.571c4.323 0 8.511-.572 12.5-1.632-20.765-5.514-36.071-24.435-36.071-46.938z" fill="#474549"/><path d="m148.794 315.265s34.156-55.109 82.809-82.564c-66.358 13.872-116.98 82.564-116.98 82.564s50.622 68.691 116.98 82.564c-48.653-27.455-82.809-82.564-82.809-82.564z" fill="#e3e9ee"/></g><g fill="#fff"><path d="m247 120.617h15v15h-15z"/><path d="m247 150.617h15v15h-15z"/></g><g><path d="m254.5 494c-106.145 0-192.5-86.355-192.5-192.5 0-57.541 18.19-103.437 33.451-131.807 8.106-15.07 16.271-26.938 22.525-35.162.83 6.392 2.028 13.858 3.738 21.376 6.66 29.284 17.791 44.132 33.085 44.132h7.5v-7.5c0-28.095 12.452-61.74 37.012-99.998l-12.623-8.104c-22.995 35.823-36.018 68.281-38.815 96.688-9.312-10.816-15.475-41.885-16.651-65.547l-.853-17.122-11.996 12.244c-.736.752-18.249 18.794-35.855 51.375-16.204 29.982-35.518 78.508-35.518 139.425 0 114.416 93.084 207.5 207.5 207.5 33.3 0 65.107-7.651 94.54-22.741 28.069-14.391 52.907-35.391 71.83-60.731l-12.02-8.975c-36.753 49.218-93.011 77.447-154.35 77.447z"/><path d="m426.579 157.586c-17.675-31.361-35.367-46.696-36.111-47.333l-13.603-11.643 1.243 17.864c.906 13.023.449 49.831-12.376 63.579-1.453 1.557-2.986 2.733-4.652 3.551-3.962-20.81-20.495-54.255-50.216-101.67-24.851-39.647-50.038-74.487-50.29-74.834l-5.143-7.1-6.219 6.18c-1.129 1.123-27.966 27.926-54.028 65.539l12.33 8.543c17.99-25.963 36.753-47.009 46.146-57.055 30.267 42.655 93.358 138.054 93.358 169.333v7.5h7.5c8.686 0 16.152-3.286 22.192-9.767 12.409-13.314 15.812-37.684 16.542-55.105 19.221 23.52 53.748 78.064 53.748 166.332 0 36.684-10.349 72.344-29.928 103.125l12.656 8.051c21.113-33.192 32.272-71.636 32.272-111.176 0-66.999-19.263-115.241-35.421-143.914z"/><path d="m108.585 310.816-3.277 4.449 3.277 4.449c.661.897 16.482 22.218 42.185 43.795 34.488 28.953 70.357 44.256 103.73 44.256s69.242-15.303 103.73-44.256c25.702-21.577 41.523-42.898 42.185-43.795l3.277-4.449-3.277-4.449c-.661-.897-16.482-22.218-42.185-43.795-34.488-28.953-70.357-44.256-103.73-44.256s-69.242 15.303-103.73 44.256c-25.703 21.577-41.524 42.898-42.185 43.795zm276.239 4.449c-13.97 17.095-67.774 77.5-130.324 77.5-62.555 0-116.36-60.412-130.324-77.5 13.97-17.095 67.774-77.5 130.324-77.5s116.354 60.405 130.324 77.5z"/><path d="m254.5 371.336c30.918 0 56.071-25.153 56.071-56.071s-25.153-56.071-56.071-56.071-56.071 25.153-56.071 56.071 25.153 56.071 56.071 56.071zm0-97.142c22.646 0 41.071 18.424 41.071 41.071s-18.425 41.071-41.071 41.071-41.071-18.424-41.071-41.071 18.424-41.071 41.071-41.071z"/></g></g><g/><g/><g/><g/><g/><g/><g/><g/><g/><g/><g/><g/><g/><g/><g/></svg>