<svg id="Layer_1" enable-background="new 0 0 512.35 512.35" viewBox="0 0 512.35 512.35" xmlns="http://www.w3.org/2000/svg"><g><g><path d="m238.291 211.333s-23.806 70.191-22.071 134.309c1.207 44.622 35.255 95.661 35.255 95.661h260.875v-209.382c-29.647 0-79.941 3.409-83.431-39.33 17.647 2.824 29.608 4.624 39.49-12.713-96.599-32.521-145.412-89.957-173.648-102.663s-90.844 7.364-90.844 7.364v52.058z" fill="#58565b"/><path d="m238.997 308.226c17.353-59.294 49.719-115.749 38.521-151.241-5.155-16.339-35.193-26.601-43.318-37.23-7.255-9.491-5.283-41.677-5.283-41.677-14.42 3.112-25 6.502-25 6.502v52.058l34.374 74.695s-23.806 70.191-22.071 134.309c1.208 44.622 35.254 95.661 35.254 95.661h23.074c-7.213-12.112-46.779-94.712-35.551-133.077z" fill="#474549"/><path d="m21.585 125.921s100.235-52.235 185.647-40.941c-3.315 22.588 4.941 62.377 52.26 81.605 4.742 13.294 2.193 36.278-21.201 44.748-33.177-43.765-216.706-85.412-216.706-85.412z" fill="#bcbcc0"/><path d="m282.761 143.568c-17.543 0-26.412-7.999-31.765-18l41.765-18c16.824 9.338 15.874 36-10 36z" fill="#ff6a47"/><path d="m251.474 441.304c-47.08-43.971-111.301-179.147-9.654-205.265 93.703-24.077 141.176 135.382 192.706 205.265z" fill="#58565b"/><path d="m266.82 236.039c2.081-.535 4.139-.975 6.175-1.331-9.809-1.791-20.173-1.495-31.175 1.331-101.647 26.118-37.426 161.294 9.654 205.265h25c-47.079-43.971-111.301-179.147-9.654-205.265z" fill="#474549"/><path d="m118.802 91.1c-53.925 12.262-97.217 34.821-97.217 34.821s62.259 14.129 120.808 34.575c-34.259-23.611-47.443-54.458-23.591-69.396z" fill="#9c9a9f"/><path d="m272.341 116.369-21.345 9.199c5.353 10.001 14.222 18 31.765 18 2.311 0 4.414-.221 6.333-.615-7.804-5.769-13.017-16.359-16.753-26.584z" fill="#fd3501"/></g><g fill="#fff"><path d="m434.526 293.485h15v15h-15z"/><path d="m464.526 293.485h15v15h-15z"/></g><g><path d="m506.134 224.451c-32.443.231-60.066-1.5-67.77-22.952 13.818 1.431 26.574-.38 36.562-17.906l4.51-7.915-8.634-2.906c-31.466-10.59-60.894-24.887-89.966-43.708l-8.152 12.592c27.091 17.537 54.499 31.292 83.492 41.88-5.517 4.588-12.482 3.819-26.072 1.647l-9.437-1.507.777 9.524c1.69 20.702 13.062 34.582 33.798 41.254 13.873 4.464 29.859 5.03 43.838 5.03 2.457 0 4.853-.018 7.163-.035 2.112-.015 4.154-.03 6.106-.03v-15c-1.987.001-4.065.017-6.215.032z"/><path d="m293.179 99.222-52.646 22.689 3.852 7.196c7.908 14.777 20.462 21.961 38.377 21.961 17.046 0 25.631-9.698 27.98-18.773 3.06-11.817-2.972-24.974-14.341-31.284zm3.043 29.313c-1.258 4.858-6.038 7.534-13.46 7.534-10.229 0-16.342-3.212-20.326-7.263l29.48-12.706c4.025 3.585 5.284 8.653 4.306 12.435z"/><path d="m334.468 265.285c-29.615-32.918-60.236-44.934-93.571-36.734 1.442-5.094 2.656-9.062 3.458-11.602 13.461-6.044 19.487-16.06 22.166-23.699 3.242-9.248 3.256-20.158.036-29.185l-1.129-3.164-3.112-1.265c-47.562-19.326-48.853-58.123-48-70.3 20.729-5.687 59.164-13.473 77.368-5.276 8.157 3.67 18.896 11.981 32.493 22.504 10.312 7.981 22.001 17.027 35.744 26.543l8.539-12.333c-13.417-9.289-24.938-18.206-35.103-26.072-14.382-11.13-25.741-19.922-35.518-24.32-28.258-12.723-84.422 3.445-94.665 6.576-85.525-8.926-180.957 40.178-185.055 42.313l-18.119 9.442 19.925 4.522c48.899 11.099 178.956 46.465 209.948 79.755-1.336 4.255-3.562 11.659-6.096 21.346-16.691 7.369-28.771 18.67-35.979 33.769-17.398 36.447-.977 83.511 10.36 108.322l13.643-6.234c-17.44-38.169-21.256-73.024-10.467-95.626 7.358-15.415 21.607-25.933 42.353-31.262 63.186-16.237 105.689 62.628 143.192 132.211 14.217 26.377 27.645 51.292 41.614 70.236l12.072-8.902c-13.341-18.091-26.524-42.553-40.481-68.451-19.946-37.008-40.57-75.275-65.616-103.114zm-214.702-120.218c-24.249-7.698-47.671-14.15-65.373-18.757 40.182-5.118 73.351 1.327 95.606 8.502 29.575 9.535 46.904 22.386 47.076 22.514l4.51-5.993 4.52-5.985c-.765-.577-19.084-14.253-50.848-24.6-18.327-5.97-43.542-11.489-73.736-11.276 33.442-11.171 77.065-21.466 117.601-17.843-.443 12.979 2.545 26.734 8.54 38.761 9.02 18.093 24.749 32.455 45.622 41.707 2.07 9.308.043 23-12.966 30.129-17.473-18.086-57.961-37.289-120.552-57.159z"/><path d="m218.305 383.354-13.25 7.032c11.93 22.476 26.982 43.031 41.297 56.396l10.236-10.964c-13.149-12.276-27.102-31.399-38.283-52.464z"/><path d="m291.618 295.063c4.755 58.994 82.571 147.475 85.882 151.213l11.229-9.945c-.777-.878-77.802-88.417-82.159-142.473z"/><path d="m255.612 294.983c4.736 67.842 77.873 148.02 80.983 151.399l11.038-10.157c-.727-.79-72.688-79.703-77.059-142.287z"/><path d="m219.618 295.063c2.148 26.661 12.137 56.787 28.884 87.12 13.405 24.282 30.649 47.764 47.309 64.423l10.607-10.606c-26.404-26.404-67.327-86.047-71.849-142.142z"/></g></g><g/><g/><g/><g/><g/><g/><g/><g/><g/><g/><g/><g/><g/><g/><g/></svg>