<svg id="Layer_1" enable-background="new 0 0 511.744 511.744" viewBox="0 0 511.744 511.744" xmlns="http://www.w3.org/2000/svg"><g><g><path d="m393.426 511.67c-.116-13.835-9.644-131.001-101.19-156.752h-73.496c-95.274 25.752-101.074 142.917-101.19 156.752z" fill="#fde31d"/><path d="m243.74 354.918h-25c-95.274 25.752-101.074 142.917-101.19 156.752h25c.116-13.835 5.916-131.001 101.19-156.752z" fill="#e7c900"/><path d="m357.604 104.907 3.148-3.148c14.462-14.462 14.47-37.917.008-52.378l-38.768-38.768-6.673 6.673c-7.917 7.917-7.917 20.749 0 28.666l.715.715-6.673 6.673c-3.951 3.951-5.926 9.138-5.926 14.325s1.975 10.375 5.934 14.333l-6.673 6.673c-7.917 7.917-7.917 20.749-.008 28.658l21.646 21.646z" fill="#fff"/><path d="m327.688 117.329c-7.909-7.909-7.909-20.741.008-28.658l6.673-6.673c-3.959-3.959-5.934-9.146-5.934-14.333s1.975-10.375 5.926-14.325l6.673-6.673-.715-.715c-5.84-5.84-7.358-14.35-4.582-21.594l-13.745-13.745-6.673 6.673c-7.917 7.917-7.917 20.749 0 28.666l.715.715-6.673 6.673c-3.951 3.951-5.926 9.138-5.926 14.325s1.975 10.375 5.934 14.333l-6.673 6.673c-7.917 7.917-7.917 20.749-.008 28.658l21.646 21.646 12.352-12.648z" fill="#e3e9ee"/><path d="m372.741 187.382 21.575 21.575c7.917 7.917 20.749 7.917 28.666 0l6.673-6.673c3.951 3.951 9.138 5.926 14.325 5.926s10.375-1.975 14.325-5.926l6.673-6.673.715.715c7.917 7.917 20.749 7.917 28.666 0l6.673-6.673-38.768-38.768c-14.462-14.462-37.917-14.454-52.378.008l-2.2 2.2z" fill="#fff"/><path d="m415.87 205.511-30.51-30.51-12.619 12.382 21.575 21.575c7.381 7.381 19.029 7.874 26.989 1.493-1.842-1.523-3.662-3.167-5.435-4.94z" fill="#e3e9ee"/><path d="m148.615 102.789c20.874-20.874 24.241-49.654 3.833-82.696 35.645-23.817 78.968-4.617 78.968-4.617s-34.106 20.312-19.732 48.238c-10.458 7.187-18.362 16.461-2.498 35.29 0 0-28.468 9.401-32.178 32.178z" fill="#ff6a47"/><path d="m164.408 118.581c27.643-28.633 33.453-66.234 9.557-108.013-7.211 1.83-14.512 4.844-21.517 9.524 20.409 33.042 17.041 61.822-3.833 82.696z" fill="#fd3501"/><g><path d="m195.834 332.982c3.541 10.807 6.025 21.894 15.833 27.651 0 0 32.14 20.069 44.294 20.036 11.987-.032 43.579-19.995 43.579-19.995 9.678-5.789 11.512-17.005 15.602-27.514 6.352-16.321 15.154-52.812 15.154-69.772 0-41.315-33.492-74.808-74.808-74.808s-74.808 33.493-74.808 74.808c0 16.96 9.865 53.451 15.154 69.594z" fill="#ffdaaa"/></g><circle cx="255.488" cy="336.435" fill="#fff" r="15"/><circle cx="371.1" cy="140.581" fill="#8ad8f6" r="45"/><path d="m102.289 149.115c-20.874 20.874-49.654 24.241-82.696 3.833-23.817 35.645-4.617 78.968-4.617 78.968s20.312-34.106 48.238-19.732c7.187-10.458 16.461-18.362 35.29-2.498 0 0 9.401-28.468 32.178-32.178z" fill="#ff6a47"/><circle cx="136.66" cy="137.16" fill="#ff6a47" r="45"/><path d="m129.84 168.979c-17.574-17.574-17.574-46.066 0-63.64 5.573-5.573 12.246-9.373 19.32-11.411-15.23-4.389-32.32-.589-44.32 11.411-17.574 17.574-17.574 46.066 0 63.64 12 12 29.09 15.799 44.32 11.411-7.073-2.038-13.746-5.837-19.32-11.411z" fill="#fd3501"/><path d="m39.264 162.511c-6.36-2.238-12.925-5.397-19.671-9.564-23.817 35.645-4.617 78.968-4.617 78.968s7.419-12.452 19.452-19.137c-2.537-13.476-3.392-32.256 4.836-50.267z" fill="#fd3501"/><path d="m364.28 172.401c-17.574-17.574-17.574-46.066 0-63.64 5.573-5.573 12.247-9.373 19.32-11.411-15.23-4.389-32.32-.589-44.32 11.411-17.574 17.574-17.574 46.066 0 63.64 12 12 29.09 15.799 44.32 11.411-7.073-2.038-13.746-5.838-19.32-11.411z" fill="#54c9f3"/><path d="m236.667 360.633c-9.808-5.756-12.292-16.843-15.833-27.651-5.289-16.143-15.154-52.634-15.154-69.594 0-37.054 26.946-67.797 62.308-73.748-4.067-.684-8.239-1.06-12.5-1.06-41.315 0-74.808 33.493-74.808 74.808 0 16.96 9.865 53.451 15.154 69.594 3.541 10.807 6.025 21.894 15.833 27.651 0 0 32.14 20.069 44.294 20.036 3.106-.008 7.532-1.361 12.379-3.351-14.076-5.701-31.673-16.685-31.673-16.685z" fill="#ffb680"/></g><g fill="#fff"><path d="m247.988 432.522h15v15h-15z"/><path d="m247.988 462.522h15v15h-15z"/></g><g><path d="m110.049 511.603 14.999.135c.021-2.271.819-56.104 28.656-99.562l-12.631-8.09c-29.632 46.258-30.97 101.383-31.024 107.517z"/><path d="m381.762 479.509c3.197 15.571 4.124 27.895 4.167 32.235l14.999-.148c-.052-5.2-1.052-18.444-4.473-35.104z"/><path d="m314.496 355.3c2.378-4.288 3.955-8.897 5.43-13.229.733-2.154 1.426-4.188 2.206-6.19 6.308-16.206 15.665-53.785 15.665-72.492 0-45.385-36.923-82.308-82.308-82.308s-82.308 36.923-82.308 82.308c0 18.543 10.46 56.468 15.526 71.929.391 1.193.769 2.391 1.146 3.583 1.681 5.324 3.491 11.016 6.44 16.177-17.792 8.172-33.222 20.277-45.949 36.114l11.692 9.396c12.345-15.362 27.529-26.753 45.176-33.907.192.12.369.249.566.365 5.858 3.653 34.585 21.124 48.162 21.123h.043c13.407-.036 41.738-17.477 47.492-21.108.088-.053.167-.112.255-.166 44.868 19.139 65.375 63.838 74.688 98.454l14.485-3.896c-9.859-36.634-31.425-83.683-78.407-106.153zm-8.77-18.065c-2.916 8.563-4.961 13.966-10.037 17.002l-.156.096c-14.323 9.046-33.533 18.819-39.593 18.836h-.016c-6.181-.001-25.715-9.805-40.286-18.898l-.176-.106c-6.214-3.646-8.575-11.123-11.307-19.779-.393-1.244-.787-2.492-1.195-3.737-5.154-15.73-14.78-51.607-14.78-67.259 0-37.113 30.194-67.308 67.308-67.308s67.308 30.194 67.308 67.308c0 15.159-8.25 50.625-14.643 67.052-.896 2.3-1.674 4.584-2.427 6.793z"/><path d="m255.488 213.522c-21.067 0-38.206 17.14-38.206 38.206h15c0-12.796 10.41-23.206 23.206-23.206s23.206 10.41 23.206 23.206-10.41 23.206-23.206 23.206h-7.5v28.323h15v-14.062c17.488-3.495 30.706-18.967 30.706-37.467 0-21.066-17.139-38.206-38.206-38.206z"/><path d="m255.488 313.935c-12.407 0-22.5 10.094-22.5 22.5s10.093 22.5 22.5 22.5 22.5-10.094 22.5-22.5-10.093-22.5-22.5-22.5zm0 30c-4.136 0-7.5-3.364-7.5-7.5s3.364-7.5 7.5-7.5 7.5 3.364 7.5 7.5-3.364 7.5-7.5 7.5z"/><path d="m105.179 236.029-3.234 28.722 24.594 20.292 9.546-11.57-10.968-9.05c30.007-12.17 41.373-34.532 45.508-52.23 3.559-15.23 2.347-29.142 1.294-36.138.632-.573 1.254-1.162 1.864-1.772 9.916-9.916 15.377-23.1 15.377-37.124 0-4.477-.562-8.867-1.643-13.094 7.309-12.2 23.865-17.891 24.025-17.944l10.524-3.479-7.143-8.475c-5.172-6.138-7.65-11.279-7.166-14.87.389-2.885 2.912-5.785 8.179-9.406l5.444-3.742-3.025-5.873c-10.948-21.255 15.773-37.673 16.899-38.352l12.467-7.424-13.266-5.878c-1.923-.852-47.548-20.573-86.174 5.231l-6.018 4.021 3.803 6.157c14.523 23.514 16.426 45.117 5.654 62.848-6.803-2.025-13.937-2.635-20.943-1.852-.228-1.766-.666-3.565-1.345-5.372-3.957-10.521-16.485-22.08-34.642-22.599l-.429 14.994c10.626.304 18.767 6.865 21.031 12.885.467 1.243.822 2.826.334 4.094-5.88 2.548-11.39 6.207-16.19 11.007-4.908 4.908-8.626 10.559-11.181 16.589-.609.333-1.661.538-3.539-.168-5.139-1.933-12.53-10.033-12.872-21.99l-14.994.428c.514 17.99 11.751 31.527 22.585 35.603 1.656.623 3.308 1.018 4.935 1.233-.707 6.862-.076 13.836 1.907 20.494-17.727 10.774-39.329 8.872-62.849-5.654l-6.157-3.803-4.02 6.018c-25.806 38.627-6.083 84.251-5.23 86.174l5.851 13.165 7.44-12.35c.688-1.143 17.109-27.864 38.374-16.925l5.873 3.021 3.74-5.443c3.613-5.259 6.512-7.778 9.398-8.168 3.594-.483 8.739 1.992 14.877 7.166l8.438 7.088 3.511-10.454c.059-.177 5.757-16.775 17.989-24.069 4.275 1.09 8.66 1.645 13.047 1.645 7.242 0 14.479-1.499 21.219-4.468 1.19 17.146-1.697 50.845-39.275 65.693l1.481-13.153zm110.488-217.671c-10.193 10.084-18.991 25.389-13.143 42.898-4.549 3.887-8.684 9.011-9.632 16.034-.79 5.855.782 11.999 4.791 18.616-5.126 2.694-11.557 6.821-17.022 12.602-1.975-3.02-4.268-5.862-6.878-8.473-2.605-2.604-5.419-4.873-8.386-6.814 11.76-20.511 10.83-45.034-2.745-70.438 19.139-9.769 40.038-7.501 53.015-4.425zm-120.254 179.826c-6.619-4.009-12.764-5.577-18.623-4.79-7.023.949-12.144 5.079-16.027 9.624-17.516-5.848-32.82 2.955-42.906 13.15-3.077-12.981-5.346-33.878 4.425-53.015 25.408 13.578 49.932 14.507 70.44 2.745 1.942 2.967 4.21 5.781 6.815 8.385 2.631 2.631 5.478 4.918 8.479 6.873-5.782 5.466-9.91 11.899-12.603 17.028zm14.73-34.508c-14.621-14.621-14.621-38.411 0-53.032 7.312-7.312 16.913-10.966 26.517-10.966 9.602 0 19.207 3.656 26.517 10.966 7.083 7.082 10.983 16.499 10.983 26.516 0 10.018-3.9 19.435-10.983 26.517-14.621 14.62-38.413 14.62-53.034-.001z"/><path d="m467.571 145.586c-11.776-11.777-28.994-15.731-44.368-11.133-1.32-11.334-6.304-22.319-14.98-30.995-8.465-8.465-19.314-13.669-31.03-15.015 4.604-15.371.651-32.582-11.132-44.367l-44.077-44.076-11.966 11.983c-5.25 5.243-8.14 12.215-8.14 19.633 0 5.204 1.423 10.19 4.084 14.515l-1.908 1.905c-5.234 5.234-8.117 12.203-8.117 19.624 0 4.851 1.231 9.51 3.545 13.617l-2.089 2.089c-5.246 5.246-8.136 12.22-8.138 19.636s2.885 14.388 8.128 19.632l21.335 21.335c.807 12.748 6.144 24.623 15.257 33.734 9.112 9.114 20.987 14.451 33.735 15.258l21.306 21.306c5.415 5.408 12.524 8.112 19.633 8.112 7.11-.001 14.22-2.706 19.63-8.115l2.096-2.096c4.102 2.312 8.754 3.542 13.601 3.542 7.434 0 14.409-2.889 19.633-8.126l1.908-1.908c10.688 6.548 24.89 5.199 34.146-4.046l11.965-11.983zm-159.579-33.56c-2.409-2.409-3.735-5.612-3.734-9.021 0-3.411 1.331-6.619 3.744-9.032l11.972-11.973-5.303-5.304c-2.407-2.407-3.733-5.616-3.733-9.036 0-3.414 1.322-6.616 3.719-9.013l11.991-11.974-6.027-6.027c-2.414-2.413-3.743-5.62-3.743-9.03 0-3.407 1.328-6.61 3.747-9.026l1.367-1.369 33.463 33.462c9.122 9.122 11.161 23.139 5.37 34.399-10.107 1.995-19.399 6.928-26.847 14.377-6.12 6.12-10.537 13.488-13.027 21.527zm36.592 55.071c-7.083-7.082-10.983-16.499-10.983-26.516s3.9-19.434 10.983-26.517 16.5-10.983 26.517-10.983 19.434 3.9 26.517 10.984c14.621 14.62 14.621 38.411 0 53.031-7.083 7.084-16.5 10.984-26.517 10.984s-19.434-3.899-26.517-10.983zm144.474 23.926c-4.983 4.975-13.083 4.979-18.057.003l-6.023-6.022-11.98 11.979c-2.396 2.403-5.6 3.727-9.02 3.727-3.414 0-6.613-1.323-9.01-3.727l-5.304-5.316-11.989 11.989c-4.975 4.975-13.074 4.975-18.054 0l-12.926-12.926c8.039-2.489 15.407-6.906 21.528-13.027 7.623-7.624 12.402-17.03 14.347-26.889 11.26-5.783 25.28-3.736 34.395 5.379l33.461 33.461z"/><path d="m447.273 111.835c3.714 1.124 7.244 1.681 10.521 1.681 6.208 0 11.508-1.997 15.422-5.911 5.981-5.981 7.484-15.195 4.23-25.944-2.765-9.138-8.807-18.688-17.012-26.894s-17.756-14.246-26.893-17.012c-10.75-3.254-19.963-1.75-25.944 4.23-11.417 11.418-5.922 34.133 12.782 52.838 8.205 8.205 17.756 14.246 26.894 17.012zm-29.069-59.243c.992-.991 2.713-1.493 4.89-1.493 1.78 0 3.864.335 6.103 1.013 6.716 2.033 14.236 6.867 20.632 13.263s11.229 13.915 13.262 20.632c1.506 4.978 1.322 9.188-.48 10.991v.001c-1.803 1.802-6.014 1.986-10.992.48-6.716-2.033-14.236-6.867-20.632-13.263-13.555-13.554-16.624-27.782-12.783-31.624z"/></g></g><g/><g/><g/><g/><g/><g/><g/><g/><g/><g/><g/><g/><g/><g/><g/></svg>