<svg id="Layer_1" enable-background="new 0 0 510.838 510.838" viewBox="0 0 510.838 510.838" xmlns="http://www.w3.org/2000/svg"><g><g><path d="m436.46 79.888c-12.027 10.167-15.448 24.232-18.225 37.449-2.871 13.663-21.426 16.025-27.548 3.477-24.354-49.917-75.596-84.309-134.876-84.309-58.415 0-109.024 33.394-133.793 82.132-6.286 12.369-24.571 10.123-27.497-3.439-2.715-12.579-6.389-25.69-17.768-35.311-17.887 36.136-24.839 113.422 29.342 114.371 5.762 79.239 98.349 142.246 149.717 142.246 51.363 0 143.937-62.995 149.715-142.224h.591c55.277.002 48.339-78.032 30.342-114.392z" fill="#ff6a47"/><path d="m329.101 394.196c7.89 2.62 15.95 5.43 24.17 8.43 192.98 70.37 195.78-119.8 32.29-150.51l-22.31 28.43c148.56 36.17 117 153.58-34.15 113.65z" fill="#ff6a47"/><g fill="#fde31d"><path d="m316.608 224.83c-16.569 0-40-13.431-40-30l90-30c0 27.614-22.386 60-50 60z"/><path d="m196.608 224.83c16.569 0 40-13.431 40-30l-90-30c0 27.614 22.386 60 50 60z"/></g><path d="m185.881 477.336s-146.36 40.91-174.57-15.48c-7.13-14.25-4.38-33.69 9.86-51.63l.003-.005c-13.649 87.903 166.876 28.486 166.876 28.486l20.762 16.152z" fill="#ff6a47"/><path d="m180.159 494.036 13.424-39.177-13.424-39.176 66.706 39.176z" fill="#fde31d"/><path d="m140.34 179.42c0-58.15 31.959-109.278 80.266-138.737-43.103 10.371-78.962 39.336-98.589 77.955-6.286 12.369-24.571 10.123-27.497-3.439-2.715-12.579-6.389-25.69-17.768-35.31-17.887 36.136-24.839 113.422 29.342 114.371 5.762 79.239 98.349 142.246 149.717 142.246 1.624 0 3.289-.064 4.991-.188-69.98-21.814-120.462-83.812-120.462-156.898z" fill="#fd3501"/><g fill="#fff"><path d="m164.525 99.15-14.59 17.1c-.3-.29-.59-.58-.88-.88-50.62-50.75-20.82-101.23-20.82-101.23s17.36 25.83 35.82 46.58c1.24 1.4 2.33 2.89 3.26 4.44 6.36 10.59 5.49 24.29-2.79 33.99z"/><path d="m343.797 116.248c51.835-51.052 21.7-102.104 21.7-102.104s-17.364 25.826-35.818 46.578c-9.715 10.925-9.969 27.308-.477 38.427z"/></g></g><g fill="#fff"><path d="m248.311 86.094h15v15h-15z"/><path d="m248.311 116.094h15v15h-15z"/></g><g><path d="m493.705 307.763-12.368 8.486c17.368 25.311 19.296 53.652 4.911 72.205-14.708 18.972-43.599 25.791-80.964 20.176 20.82-2.632 37.723-9.737 48.925-21.166 11.968-12.211 15.992-27.923 11.33-44.241-8.085-28.296-40.806-52.773-88.496-66.738 4.413-5.217 8.452-10.557 12.097-15.999 43.889 9.319 69.521 29.271 83.414 44.656l11.133-10.053c-14.845-16.44-41.627-37.554-86.392-48.143 7.916-14.766 13.021-30.081 15.038-45.472 14.997-1.544 26.868-8.794 34.569-21.199 10.143-16.339 10.855-37.682 9.667-52.709-1.412-17.857-6.417-36.927-13.388-51.008l-4.25-8.584-7.314 6.184c-13.447 11.367-17.478 26.181-20.728 41.636-.982 4.676-4.978 5.524-6.179 5.674-1.187.145-5.215.297-7.281-3.94-5.948-12.194-13.449-23.541-22.313-33.806 5.849-14.481 7.027-27.712 6.456-38.082-1.142-20.731-9.272-34.722-9.618-35.308l-6.046-10.241-6.637 9.868c-.149.223-13.272 19.677-28.525 38.008-22.93-12.414-48.699-18.961-74.938-18.961-31.181 0-61.016 8.986-86.754 26.044-17.673-20-34.427-44.843-34.596-45.094l-6.637-9.872-6.046 10.243c-.342.579-8.385 14.417-9.601 34.953-.811 13.708 1.401 32.467 13.497 52.528-3.82 5.593-7.291 11.433-10.339 17.428-2.179 4.285-6.245 4.114-7.443 3.959-1.167-.151-5.051-1.001-6.041-5.584-2.857-13.218-7.016-28.258-20.259-39.453l-7.314-6.184-4.249 8.584c-12.447 25.146-21.904 73.82-3.956 103.306 7.414 12.179 18.801 19.491 33.187 21.398 2.711 21.123 11.165 41.951 25.183 62.009l12.295-8.592c-13.875-19.854-21.67-40.366-23.167-60.968l-.497-6.835-6.852-.12c-12.51-.219-21.452-5.025-27.336-14.692-11.332-18.616-9.077-52.801.109-78.269 4.405 6.955 6.484 15.071 8.194 22.983 2.005 9.286 9.375 16.073 18.775 17.291 9.47 1.235 18.399-3.497 22.742-12.036 1.913-3.763 4.025-7.452 6.284-11.055 2.62 3.208 5.507 6.428 8.714 9.646.335.347.672.684 1.021 1.02l5.738 5.542 19.766-23.168c8.643-10.124 10.971-23.922 6.607-36.127 23.39-15.642 50.561-23.885 78.974-23.885 22.742 0 45.088 5.431 65.158 15.755-8.99 13.481-8.188 31.703 2.529 44.258l19.824 23.225 5.738-5.651c7.922-7.803 14.018-15.625 18.682-23.263 6.305 7.983 11.739 16.615 16.207 25.773 4.205 8.623 13.078 13.43 22.608 12.251 9.568-1.186 17.032-8.046 19.013-17.474 1.967-9.355 4.093-17.91 8.608-25.054 8.411 23.675 12.368 58.583-.02 78.537-6.025 9.705-15.196 14.423-28.038 14.423h-7.562l-.507 6.954c-3.312 45.39-35.965 79.404-55.135 95.64-28.421 24.072-62.612 39.626-87.105 39.626-27.98 0-76.131-22.021-110.256-62.831l-11.507 9.623c16.187 19.357 37.558 36.884 60.175 49.352 22.06 12.159 43.933 18.856 61.588 18.856 27.833 0 65.83-16.949 96.8-43.18 4.575-3.875 8.907-7.865 13.003-11.95 24.396 6.334 44.48 15.126 59.73 26.168 13.646 9.881 22.558 21.05 25.772 32.299 3.162 11.066.527 21.309-7.619 29.62-14.915 15.217-52.215 25.831-112.191 10.058-76.48-25.455-143.687-36.04-200.071-31.469-49.733 4.031-89.734 20.395-112.634 46.073-18.098 20.299-23.461 44.663-13.994 63.586 11.299 22.587 38.849 33.977 82.041 33.976 7.265 0 14.976-.322 23.123-.968 25.928-2.054 50.13-6.925 64.547-10.262l-7.812 22.797 95.173-55.896-95.173-55.895 11.957 34.894c-36.421 10.973-115.457 28.524-141.807 6.167-7.062-5.992-9.791-14.745-8.33-26.705.48-.572.97-1.143 1.475-1.71 38.698-43.394 143.322-66.689 320.905-1.938 97.151 35.428 135.447 3.393 147.401-12.027 18.458-23.807 16.732-59.088-4.398-89.881zm-334.884-213.483-9.191 10.773c-27.178-30.522-24.326-59.766-19.689-75.405 6.877 9.554 17.434 23.605 28.5 36.044.922 1.041 1.745 2.161 2.446 3.33 4.815 8.019 3.986 18.17-2.066 25.258zm185.282 10.775-9.197-10.774c-6.99-8.188-6.828-20.472.377-28.573 11.069-12.447 21.627-26.5 28.506-36.054 4.638 15.648 7.477 44.881-19.686 75.401zm-150.287 327.347 38.239 22.457-38.239 22.458 7.696-22.458zm-113.44 33.438c13.125-.001 28.117-1.407 44.927-4.225 24.904-4.174 47.109-10.33 58.011-13.587l2.341 6.831-5.568 16.249c-10.239 2.615-39.896 9.653-71.506 12.158-34.303 2.719-77.86.628-90.563-24.766-3.249-6.494-3.831-14.097-1.966-21.993 2.332 5.768 5.96 10.77 10.9 14.96 11.287 9.573 29.176 14.373 53.424 14.373z"/><path d="m374.108 164.829v-10.405l-105 35v5.405c0 22.543 28.59 37.5 47.5 37.5 32.383 0 57.5-36.285 57.5-67.5zm-88.801 35.006 72.543-24.181c-4.673 20.786-21.772 41.675-41.242 41.675-11.548 0-26.936-8.186-31.301-17.494z"/><path d="m196.608 232.329c18.91 0 47.5-14.957 47.5-37.5v-5.405l-105-35v10.405c0 31.215 25.117 67.5 57.5 67.5zm31.301-32.494c-4.365 9.308-19.753 17.494-31.301 17.494-19.47 0-36.569-20.889-41.242-41.675z"/></g></g><g/><g/><g/><g/><g/><g/><g/><g/><g/><g/><g/><g/><g/><g/><g/></svg>