<svg id="Layer_1" enable-background="new 0 0 512.445 512.445" viewBox="0 0 512.445 512.445" xmlns="http://www.w3.org/2000/svg"><g><g><path d="m271.287 25.512v438.39h-30v-438.39l15-14.93z" fill="#fde31d"/><path d="m90.067 191.182c40.61-34.7 100.81-34.7 100.81-34.7 0 25.98 5.75 45.05 15.37 58.38 8.88 12.3 21.04 19.71 35.04 23.13v37.914c-23.69 2-46.1 34.066-46.1 34.066-36.76-25.06-72.08 2.07-72.08 2.07s-8.15-36.35-69.3-36.35c0-33.71 10.96-57.88 26.68-75.23z" fill="#ff6a47"/><path d="m422.507 191.182c-40.61-34.7-100.81-34.7-100.81-34.7 0 25.98-5.75 45.05-15.37 58.38-8.88 12.3-21.04 19.71-35.04 23.13v37.914c23.69 2 46.1 34.066 46.1 34.066 36.76-25.06 72.08 2.07 72.08 2.07s8.15-36.35 69.3-36.35c0-33.71-10.96-57.88-26.68-75.23z" fill="#ff6a47"/><path d="m7.801 512.082c-.677-71.249 38.192-85.588 38.192-85.588s6.752 16.044 14.824 33.882c24.739-48.59 10.235-87.118 10.235-87.118s33.792 12.304 76.495 45.952c33.532-33.647-4.145-70.362-4.145-70.362s67.968-11.472 87.532 37.234c22.127 55.089 70.557 55.587 70.557 55.587v70.413z" fill="#ffc277"/><path d="m504.493 512.082c2.458-50.682-23.677-69.353-23.677-69.353s.377 13.379-10.151 33.804c-22.649-70.733-72.191-74.753-72.191-74.753s8.784 38.952-3.965 66.019c0 0-14.006-22.53-57.32-47.244-36.251-20.684-20.414-65.474-20.414-65.474s-56.89 10.889-57.479 54.862c-.784 58.554-21.249 62.571-21.249 62.571 0-32.641-39.937-66.433-39.937-66.433s-2.082 29.895-22.863 70.71c-6.78-14.985-18.799-25.784-18.799-25.784s-21.133 1.225-20.564 61.074h368.609z" fill="#ffc277"/><path d="m413.208 487.082 3.917-8.629c5.018-10.652 7.555-22.255 8.641-33.307 7.634 8.53 15.309 20.951 21.091 39.011l.937 2.925z" fill="#ffc277"/><g fill="#fcad42"><path d="m198.101 406.201c-.161 2.003-2.802 31.209-22.854 70.591-6.78-14.985-18.799-25.784-18.799-25.784s-21.133 1.225-20.564 61.074h50.12c17.969-24.854 17.254-80.846 12.097-105.881z"/><path d="m284.295 410.279c3.429-22.121 15.371-42.515 28.864-54.346-12.527 3.273-53.364 16.787-53.862 54.01-.6 44.819-12.724 57.677-18.382 61.247 9.113-3.424 35.92-12.785 43.38-60.911z"/><path d="m394.509 467.8c22.758-2.465 28.287-33.847 29.277-56.594-14.149-8.514-25.312-9.426-25.312-9.426s8.784 38.952-3.965 66.02z"/><path d="m492.182 456.054c-5.769-9.317-11.365-13.325-11.365-13.325s.377 13.379-10.151 33.804c14.856.841 20.266-12.26 21.516-20.479z"/><path d="m174.335 348.436c-17.035-1.933-30.932.412-30.932.412s37.676 36.715 4.145 70.362c-.001 0 59.936-14.783 26.787-70.774z"/><path d="m45.993 426.494s-38.87 14.339-38.192 85.588h16.941c1.878-16.579 7.802-45.929 26.438-73.486-3.159-7.284-5.187-12.102-5.187-12.102z"/><path d="m109.874 393.034c-23.293-14.114-38.822-19.776-38.822-19.776s14.504 38.528-10.235 87.118c0 0 51.946-8.705 49.057-67.342z"/></g><path d="m192.64 179.628c-1.148-7.018-1.763-14.712-1.763-23.146 0 0-60.2 0-100.81 34.7l-9.58 9.28c-15.72 17.35-26.68 41.52-26.68 75.23 13.396 0 24.247 1.745 33.028 4.469 5.459-29.44 26.866-77.06 105.805-100.533z" fill="#fd3501"/></g><g fill="#fff"><path d="m278.991 463.69h15v15h-15z"/><path d="m308.991 463.69h15v15h-15z"/></g><g><path d="m485.176 436.627-12.283-8.836.426 15.088c0 .076.012 4.99-2.42 13.26-25.847-57.41-69.786-61.669-71.817-61.834l-10.147-.817 2.224 9.937c.068.309 5.767 26.397.6 49.177-8.812-9.413-24.731-23.656-50.851-38.56-30.272-17.272-17.607-54.884-17.06-56.459l4.357-12.323-12.839 2.457c-.631.121-15.634 3.06-30.847 11.806-1.999 1.149-3.909 2.346-5.731 3.587v-77.603c14.007 5.872 27.684 21.965 32.452 28.761l4.246 6.077 6.126-4.176c31.681-21.601 62.03.868 63.287 1.821l9.316 7.156 2.57-11.464c.065-.29 6.775-27.657 54.447-30.286v14.258h15v-14.462h.035v-7.5c0-.629-.028-1.243-.035-1.868v-1.274h-.024c-.61-30.903-10.193-56.847-28.564-77.124l-11.115 10.071c14.988 16.544 23.23 37.671 24.55 62.884-28.525 1.43-45.457 10.773-55.397 20.293-4.525-41.206-20.245-73.814-33.771-95.105-7.36-11.585-14.702-20.922-20.777-27.892 20.249 2.861 52.324 10.548 76.5 31.206l9.744-11.404c-42.221-36.075-103.087-36.497-105.68-36.497v-.001h-24.471v15h16.785c-.928 19.472-5.542 35.094-13.767 46.491-5.544 7.678-12.737 13.424-21.459 17.159v-99.049h43.369c12.406 0 22.5-10.094 22.5-22.5v-27.449l17.339 17.263 10.584-10.629-35.423-35.27-35.423 35.27 10.584 10.629 17.339-17.263v27.449c0 4.136-3.364 7.5-7.5 7.5h-43.369v-70.014l9.058 9.019 10.584-10.629-42.141-41.958-42.143 41.958 10.585 10.629 9.058-9.019v70.014h-43.5c-4.136 0-7.5-3.364-7.5-7.5v-27.449l17.339 17.263 10.583-10.629-35.422-35.27-35.422 35.27 10.583 10.629 17.339-17.263v27.449c0 12.406 10.093 22.5 22.5 22.5h43.5v99.049c-8.722-3.735-15.915-9.481-21.458-17.158-8.226-11.398-12.839-27.02-13.768-46.492h16.784v-15h-24.47v.001c-2.587 0-63.458.42-105.681 36.497l9.744 11.404c24.179-20.659 56.255-28.346 76.502-31.207-6.075 6.97-13.417 16.307-20.777 27.892-13.526 21.291-29.246 53.899-33.771 95.105-9.94-9.52-26.871-18.864-55.397-20.294 1.319-25.213 9.562-46.341 24.55-62.883l-11.116-10.072c-18.37 20.275-27.953 46.22-28.563 77.124h-.024v1.274c-.007.625-.035 1.239-.035 1.868v7.5h.035v14.462h15v-14.258c46.98 2.589 54.169 29.179 54.446 30.286l2.572 11.365 9.296-7.043c1.276-.968 31.622-23.438 63.306-1.836l6.119 4.162 4.25-6.058c4.771-6.801 18.449-22.895 32.457-28.767v89.349c-10.237-17.645-28.274-29.004-52.729-33.054-20.438-3.386-38.156-.472-38.9-.346l-14.457 2.458 10.458 10.296c.157.154 15.699 15.666 15.787 34.045.035 7.293-2.442 14.239-7.376 20.718-40.449-30.736-71.594-42.263-72.958-42.759l-15.176-5.5 5.583 15.166c.116.315 10.108 28.42-3.291 65.846-4.572-10.433-7.771-18.031-7.817-18.141l-2.781-6.611-6.729 2.482c-1.79.66-43.815 17.037-43.104 92.696l14.999-.141c-.449-47.746 17.345-67.549 27.115-74.81 2.761 6.42 6.968 16.089 11.572 26.263l6.435 14.218 7.082-13.907c16.623-32.648 16.544-61.008 14.173-77.616 13.4 6.519 35.758 18.869 61.231 38.943l5.243 4.132 4.711-4.729c10.772-10.811 16.184-23.071 16.086-36.443-.097-13.182-5.642-24.767-10.917-32.825 19.272-.335 53.842 3.507 65.949 33.641 6.362 15.838 15.379 28.918 26.82 38.959-1.551 14.8-4.631 23.849-7.572 29.326-8.678-29.776-38.782-55.548-40.27-56.807l-11.247-9.501-1.079 14.691c-.019.254-1.84 22.95-16.032 55.135-6.332-9.083-12.756-14.912-13.135-15.252l-2.326-2.09-3.122.181c-1.504.087-9.358 1.047-16.294 11.409-7.772 11.612-11.586 30.865-11.335 57.224l14.999-.143c-.323-33.953 6.703-47.704 11.442-52.01 3.709 3.994 9.651 11.181 13.588 19.883l6.435 14.221 7.082-13.909c12.62-24.788 18.566-45.66 21.332-58.78 11.975 12.687 27.285 33.056 27.285 51.101v9.115l8.945-1.756c1.387-.272 8.637-2.164 15.241-12.706 7.66-12.228 11.718-31.447 12.062-57.124.348-25.917 24.829-38.76 39.873-44.211-.604 4.228-.995 9.206-.774 14.539.861 20.746 10.397 36.894 27.578 46.697 40.754 23.253 54.551 44.508 54.667 44.689l7.278 11.709 5.876-12.473c9.341-19.83 8.207-44.798 6.422-59.202 4.197 1.513 9.418 3.896 15.04 7.628 18.068 11.996 32.166 32.536 40.768 59.398l5.519 17.234 8.291-16.085c4.04-7.841 6.598-14.789 8.215-20.507 6.077 9.584 12.717 26.213 11.454 52.256l14.982.727c2.625-54.141-25.606-74.954-26.809-75.813zm-149.45-253.984c4.353 5.463 9.094 11.956 13.816 19.43 13.424 21.247 29.186 54.581 31.983 96.803-3.529-1.622-7.681-3.236-12.345-4.504-14.013-3.809-27.836-3.27-40.721 1.477 9.151-23.287 17.202-61.044 7.267-113.206zm-56.939 61.007c13.908-4.545 25.2-12.733 33.622-24.399 4.434-6.144 7.994-13.193 10.678-21.1 6.177 44.341-1.681 75.935-9.776 95.127-8.251-8.849-20.715-19.812-34.523-23.603v-26.025zm-135.392 50.722c-4.665 1.268-8.816 2.882-12.345 4.504 2.797-42.222 18.559-75.556 31.984-96.802 4.722-7.474 9.463-13.967 13.816-19.429-9.936 52.162-1.884 89.919 7.267 113.205-12.886-4.747-26.708-5.287-40.722-1.478zm90.392-24.697c-13.809 3.79-26.273 14.753-34.524 23.603-8.096-19.191-15.954-50.785-9.776-95.127 2.684 7.908 6.244 14.957 10.679 21.102 8.421 11.665 19.713 19.854 33.621 24.398zm30 107.032c-7.232 8.955-11.266 19.303-11.9 30.717-1.066-1.307-2.101-2.655-3.099-4.047v-374.745l7.5-7.468 7.5 7.468v348.075z"/></g></g><g/><g/><g/><g/><g/><g/><g/><g/><g/><g/><g/><g/><g/><g/><g/></svg>