<svg id="Layer_1" enable-background="new 0 0 511.792 511.792" viewBox="0 0 511.792 511.792" xmlns="http://www.w3.org/2000/svg"><g><g><path d="m151.668 384.036v-11l14.706-19-13.541-76.549c-2.498-14.123 12.879-24.556 25.079-17.015l42.021 25.976v-30h71.735v30l42.021-25.976c12.2-7.541 27.578 2.892 25.079 17.015l-13.541 76.549 14.706 19v11z" fill="#bcbcc0"/><g><path d="m352.819 268.197c82.517-1.577 86.771 113.531 86.771 113.531 112.292-124.569 79.428-373.706-106.337-373.706 53.736 26.806 82.706 139.543-26.591 206.014h-101.507c-109.296-66.471-80.326-179.208-26.59-206.014-185.765 0-218.629 249.137-106.337 373.705 0 0 4.253-115.107 86.771-113.531l46.157 20h101.508z" fill="#bcbcc0"/></g><g fill="#bcbcc0"><path d="m308.631 352.154h-3.253l11.48-104c0-33.722-27.337-61.059-61.059-61.059-33.722 0-61.059 27.337-61.059 61.059l11.48 104h-3.253c-8.936 0-15.89 7.764-14.909 16.646l1.682 15.237h18.075c17.357 0 31.167-14.549 30.263-31.882l-3.337-64c0-17.126 3.933-31.059 21.059-31.059s21.059 13.933 21.059 31.059l-3.337 64c-.904 17.333 12.906 31.882 30.263 31.882h18.074l1.682-15.237c.98-8.883-5.974-16.646-14.91-16.646z"/><path d="m135.506 384.036h240.588v60h-240.588z"/><path d="m158.8 444.036h194v67.235h-194z"/></g><path d="m174.652 10.169c1.29-.761 2.592-1.487 3.913-2.147-185.765 0-218.629 249.137-106.337 373.705 0 0 .438-11.726 3.708-27.635-80.693-122.733-49.526-321.177 98.716-343.923z" fill="#9c9a9f"/><path d="m176.667 373.036 14.706-19-13.541-76.549c-.853-4.82.379-10.373 2.853-15.3l-2.774-1.715c-12.2-7.541-27.577 2.892-25.079 17.015l13.541 76.549-14.706 19v11h25z" fill="#9c9a9f"/><path d="m213.059 380.799c-.98-8.882 5.974-16.646 14.909-16.646h3.253l-11.48-116c0-27.117 17.683-52.031 42.143-60.756-2.001-.198-4.03-.303-6.084-.303-33.722 0-61.059 27.337-61.059 61.059l11.48 104h-3.253c-8.936 0-15.89 7.764-14.909 16.646l1.682 15.237h18.075c1.896 0 3.747-.183 5.544-.515z" fill="#9c9a9f"/><path d="m292.741 91.683-20 42.78c-5.257-1.561-10.965-2.427-16.941-2.427s-11.685.865-16.941 2.427l-20-42.78s-10 13.431-10 30v46.353c0 19.882 46.941 46 46.941 46s46.941-26.118 46.941-46v-46.353c0-16.569-10-30-10-30z" fill="#bcbcc0"/><path d="m228.359 158.036v-36.353c0-2.617.25-5.405.671-8.245l-10.171-21.755s-10 13.431-10 30v46.353c0 19.882 46.941 46 46.941 46s4.042-2.249 9.75-5.927c-13.752-8.861-37.191-36.023-37.191-50.073z" fill="#9c9a9f"/><path d="m135.506 384.036h25v60h-25z" fill="#9c9a9f"/><path d="m158.8 444.036h25v67.235h-25z" fill="#9c9a9f"/></g><g fill="#fff"><path d="m233.3 406.536h15v15h-15z"/><path d="m263.3 406.536h15v15h-15z"/></g><g><path d="m503.742 272.634c18.548-77.187 4.514-157.561-36.625-209.756-32.152-40.794-78.443-62.357-133.867-62.357h-31.835l28.487 14.211c24.647 12.297 42.17 43.534 43.601 77.732 1.067 25.489-6.179 73.213-65.155 111.64-3.39-4.042-7.262-7.708-11.563-10.914 7.695-7.88 13.457-16.625 13.457-25.155v-46.353c0-18.838-11.016-33.85-11.484-34.479l-7.495-10.065-22.718 48.594c-8.318-1.59-17.17-1.59-25.488 0l-22.718-48.594-7.495 10.065c-.469.63-11.484 15.642-11.484 34.479v46.353c0 8.53 5.761 17.275 13.456 25.154-2.64 1.971-5.148 4.134-7.502 6.482-1.396 1.398-2.71 2.856-3.97 4.349-58.858-38.411-66.092-86.086-65.027-111.557 1.43-34.197 18.948-65.436 43.593-77.732l28.48-14.211h-31.83c-32.259 0-61.423 7.254-86.681 21.561-23.405 13.257-42.992 32.252-58.218 56.457l12.697 7.986c17.933-28.508 50.658-61.835 107.573-69.415-17.768 18.275-29.388 45.661-30.604 74.729-.969 23.175 4.664 46.456 16.288 67.327 12.261 22.015 30.878 41.258 55.368 57.294-5.054 9.674-7.744 20.477-7.744 31.692v.413l1.049 9.507-6.436-3.98c-8.195-5.065-18.237-4.852-26.208.558-2.606 1.768-4.769 3.953-6.453 6.418-32.227 2.953-56.824 23.69-71.491 60.533-6.066 15.238-9.314 30.405-11.043 41.665-55.766-73.184-68.345-185.667-27.524-264.122l-13.307-6.924c-22.137 42.546-30.436 95.816-23.37 149.996 7.211 55.28 30.012 106.611 64.203 144.538l12.358 13.703.707-18.442c.01-.278 1.191-28.128 12.041-55.186 11.695-29.169 29.596-45.977 53.407-50.124.063.696.147 1.393.271 2.093l12.962 73.271-14.236 18.4v6.067h-16.164v75h23.295v59.735h15v-59.735h179v59.735h15v-59.735h23.294v-75h-16.164v-6.067l-14.236-18.4 12.962-73.271c.126-.713.21-1.424.274-2.133 23.91 4.076 41.896 20.909 53.625 50.163 10.85 27.058 12.031 54.907 12.041 55.18l.683 18.482 12.383-13.737c24.422-27.091 43.287-61.376 54.557-99.146l-14.373-4.289c-8.845 29.643-22.607 56.968-40.181 79.963-1.728-11.261-4.977-26.436-11.045-41.681-14.704-36.935-39.38-57.681-71.726-60.555-1.682-2.455-3.84-4.632-6.438-6.396-7.972-5.407-18.012-5.623-26.209-.557l-6.435 3.979 1.004-9.097.045-.823c0-11.213-2.723-21.998-7.692-31.579 24.574-16.058 43.247-35.34 55.537-57.408 11.624-20.871 17.256-44.153 16.286-67.328-1.216-29.044-12.82-56.408-30.566-74.684 39.739 5.402 73.088 24.146 97.413 55.01 38.36 48.67 51.319 124.144 33.821 196.967zm-287.383-150.951c0-4.643.962-9.048 2.239-12.85l16.203 34.658 6.193-1.84c4.728-1.404 9.709-2.116 14.806-2.116s10.078.712 14.806 2.116l6.193 1.84 16.203-34.658c1.277 3.803 2.239 8.207 2.239 12.85v46.353c0 9.815-22.339 27.192-39.443 37.348-17.105-10.144-39.439-27.511-39.439-37.348zm-14.118 126.069c.104-14.145 5.665-27.441 15.676-37.471 2.578-2.572 5.396-4.859 8.406-6.846 10.827 8.555 21.921 14.979 25.831 17.154l3.646 2.029 3.646-2.029c3.91-2.175 15.006-8.6 25.834-17.157 14.856 9.795 23.945 26.334 24.078 44.319l-12.352 111.899h11.623c2.16 0 4.144.887 5.585 2.495 1.443 1.611 2.107 3.684 1.87 5.833l-.943 8.552h-11.361c-6.314 0-12.187-2.521-16.534-7.101-4.35-4.58-6.564-10.579-6.236-16.889l3.34-64 .01-.391c0-25.586-9.608-38.56-28.56-38.56s-28.56 12.974-28.56 38.56l3.35 64.389c.328 6.312-1.887 12.311-6.236 16.891-4.348 4.579-10.22 7.101-16.534 7.101h-11.361l-.943-8.552c-.237-2.149.427-4.222 1.87-5.833 1.441-1.608 3.425-2.495 5.585-2.495h11.623zm43.329 104.008-3.33-63.802c.04-21.557 6.719-23.367 13.56-23.367s13.52 1.811 13.56 23.367l-3.33 63.804c-.468 9.04 2.216 17.69 7.605 24.773h-35.668c5.388-7.083 8.072-15.733 7.603-24.775zm-86.4 23.833 15.164-19.6-14.118-79.81c-.645-3.639.796-7.049 3.852-9.122 3.06-2.075 6.759-2.152 9.898-.212l16.413 10.148 7.531 68.23c-4.478 1.035-8.582 3.43-11.698 6.909-4.264 4.761-6.308 11.134-5.607 17.485l.762 6.907h-22.197zm209.424 15.943v45h-225.588v-45zm-47.373-114.537 16.412-10.147c3.144-1.942 6.844-1.862 9.899.211s4.496 5.483 3.852 9.122l-14.118 79.81 15.164 19.6v.938h-22.197l.762-6.907c.7-6.352-1.344-12.725-5.607-17.485-3.116-3.479-7.221-5.874-11.698-6.909z"/></g></g><g/><g/><g/><g/><g/><g/><g/><g/><g/><g/><g/><g/><g/><g/><g/></svg>