<svg id="Layer_1" enable-background="new 0 0 512 512" viewBox="0 0 512 512" xmlns="http://www.w3.org/2000/svg"><g><g><path d="m333.45 308.053v-81.8c0-32.15 30.88-58.2 68.97-58.2h102.08v14.82c0 17.59-16.89 31.85-37.74 31.85h-1.88v14.82c0 8.8-4.22 16.76-11.06 22.52-6.82 5.76-16.26 9.32-26.68 9.32v14.83c0 17.58-16.89 31.84-37.73 31.84z" fill="#fff"/><path d="m427.42 168.053h-25c-38.09 0-68.97 26.05-68.97 58.2v81.8h25v-81.8c0-32.15 30.88-58.2 68.97-58.2z" fill="#e3e9ee"/><path d="m178.55 308.053h-55.96c-20.84 0-37.73-14.26-37.73-31.84v-14.83c-10.42 0-19.86-3.56-26.68-9.32-6.84-5.76-11.06-13.72-11.06-22.52v-14.82h-1.88c-20.85 0-37.74-14.26-37.74-31.85v-14.82h102.08c38.09 0 68.97 26.05 68.97 58.2z" fill="#fff"/><path d="m310.164 224.918c-21.773 0-41.235 9.877-54.164 25.39-12.929-15.513-32.391-25.39-54.164-25.39-38.927 0-70.483 31.556-70.483 70.483 0 58.697 124.647 119.517 124.647 119.517s124.647-60.819 124.647-119.517c0-38.927-31.556-70.483-70.483-70.483z" fill="#ff6a47"/><path d="m109.86 278.938v-25.889c-10.42 0-37.74-4.118-37.74-24.114v-25.879h-1.88c-20.85 0-37.74-5.279-37.74-24.125v-10.879h-25v14.82c0 17.59 16.89 31.85 37.74 31.85h1.88v14.82c0 8.8 4.22 16.76 11.06 22.52 6.82 5.76 16.26 9.32 26.68 9.32v14.83c0 17.58 16.89 31.84 37.73 31.84h5.331c-10.832-5.995-18.061-16.792-18.061-29.114z" fill="#e3e9ee"/><path d="m156.353 295.401c0-34.674 25.045-63.479 58.028-69.364-4.071-.732-8.262-1.119-12.545-1.119-38.927 0-70.483 31.556-70.483 70.483 0 58.697 124.647 119.517 124.647 119.517s4.801-2.345 12.5-6.543c-31.583-17.224-112.147-65.78-112.147-112.974z" fill="#fd3501"/></g><g fill="#fff"><path d="m233.5 311.078h15v15h-15z"/><path d="m263.5 311.078h15v15h-15z"/></g><g><path d="m472.38 160.558v15h24.62v7.319c0 13.427-13.566 24.351-30.24 24.351h-1.88v-.006h-45.905v15h38.405v7.325c0 6.267-2.98 12.228-8.399 16.791-5.764 4.868-13.521 7.549-21.84 7.549v-.005h-34.493v15h26.993v7.335c0 13.422-13.561 24.341-30.23 24.341h-1.532c.178-1.73.269-3.449.269-5.157 0-32.041-19.43-59.62-47.121-71.602 1.561-26.818 28.499-48.24 61.394-48.24h54.96v-15h-54.96c-39.362 0-71.863 25.687-76.012 58.573-5.243-1.115-10.674-1.714-16.244-1.714-20.367 0-39.684 7.887-54.164 21.886-14.48-13.999-33.797-21.886-54.164-21.886-5.57 0-11.002.598-16.244 1.714-4.149-32.886-36.65-58.573-76.012-58.573h-47.461v15h47.46c32.895 0 59.833 21.422 61.394 48.24-27.691 11.982-47.121 39.561-47.121 71.602 0 1.708.091 3.428.269 5.157h-1.532c-16.669 0-30.23-10.919-30.23-24.341v-7.335h26.993v-15h-34.493v.005c-8.32 0-16.076-2.681-21.849-7.557-5.411-4.556-8.391-10.517-8.391-16.783v-7.325h38.405v-15h-45.905v.006h-1.88c-16.674 0-30.24-10.924-30.24-24.351v-7.319h32.12v-15h-47.12v22.319c0 20.043 17.317 36.634 39.62 39.049v7.621c0 10.768 4.876 20.803 13.721 28.25 6.655 5.621 14.996 9.258 24.019 10.556v7.864c0 21.692 20.29 39.341 45.23 39.341h5.2c8.097 21.27 28.675 43.951 61.491 67.689 31.326 22.661 62.134 37.778 63.43 38.41l3.289 1.604 3.289-1.604c1.296-.632 32.104-15.749 63.43-38.41 32.816-23.738 53.394-46.419 61.491-67.689h5.2c24.94 0 45.23-17.648 45.23-39.341v-7.864c9.022-1.298 17.362-4.933 24.01-10.548 8.854-7.455 13.729-17.49 13.729-28.258v-7.621c22.303-2.415 39.62-19.006 39.62-39.049v-22.319zm-216.381 245.984c-35.554-17.959-117.146-68.218-117.146-111.142 0-34.729 28.254-62.983 62.983-62.983 18.741 0 36.383 8.271 48.402 22.692l5.761 6.912 5.761-6.912c12.02-14.421 29.662-22.692 48.402-22.692 34.729 0 62.983 28.254 62.983 62.983.002 42.889-81.595 93.172-117.146 111.142z"/><path d="m256 181.828c43.458 0 77.5-20.445 77.5-46.545s-34.042-46.545-77.5-46.545-77.5 20.445-77.5 46.545 34.042 46.545 77.5 46.545zm-45.844-67.605c12.123-6.762 28.404-10.485 45.844-10.485s33.721 3.724 45.844 10.485c10.585 5.904 16.656 13.58 16.656 21.06 0 7.479-6.071 15.154-16.656 21.059-12.123 6.763-28.404 10.486-45.844 10.486s-33.721-3.724-45.844-10.486c-10.585-5.904-16.656-13.58-16.656-21.059 0-7.48 6.071-15.156 16.656-21.06z"/></g></g><g/><g/><g/><g/><g/><g/><g/><g/><g/><g/><g/><g/><g/><g/><g/></svg>