<svg id="Layer_1" enable-background="new 0 0 512 512" viewBox="0 0 512 512" xmlns="http://www.w3.org/2000/svg"><g><g><g><path d="m43.757 105.505c40.612-34.692 100.815-34.692 100.815-34.692 0 25.973 5.751 45.048 15.368 58.372 9.618 13.324 23.093 20.915 38.568 23.919 2.533 16.835 8.178 30.328 12.826 41.021-14.915 2.898-34.568 6.044-54.221 36.683-39.528-35.768-80.309-4.444-80.309-4.444s-8.16-36.346-69.305-36.346c0-33.706 10.96-57.883 26.684-75.225z" fill="#ff6a47"/><path d="m477.816 114.793c15.724 17.342 26.684 41.519 26.684 75.225-61.145 0-69.305 36.346-69.305 36.346s-40.781-31.324-80.309 4.444c-19.653-30.639-39.306-33.786-54.221-36.683 4.649-10.693 10.293-24.186 12.826-41.021 15.475-3.004 28.95-10.595 38.568-23.919s15.368-32.399 15.368-58.372c0 0 60.203 0 100.815 34.692z" fill="#ff6a47"/><path d="m32.5 190.018c0-33.706 6.618-61.485 36.257-84.513 22.965-17.843 51.684-28.56 73.085-34.622-12.186.485-62.609 4.317-98.085 34.622l-9.573 9.289c-15.724 17.341-26.684 41.518-26.684 75.224 9.58 0 17.859.893 25.01 2.398-.005-.794-.01-1.59-.01-2.398z" fill="#fd3501"/></g><g><path d="m310.164 151.412c-21.773 0-41.235 9.877-54.164 25.39-12.929-15.513-32.391-25.39-54.164-25.39-38.927 0-70.483 31.556-70.483 70.483 0 58.698 124.647 119.517 124.647 119.517s124.647-60.819 124.647-119.517c0-38.926-31.556-70.483-70.483-70.483z" fill="#ff6a47"/></g><path d="m210.691 431.97 13.425-39.176-13.425-39.177 66.706 39.177z" fill="#ff6a47"/><path d="m156.353 221.896c0-34.674 25.045-63.479 58.028-69.364-4.071-.732-8.262-1.12-12.545-1.12-38.927 0-70.483 31.557-70.483 70.483 0 58.698 124.647 119.517 124.647 119.517s4.801-2.345 12.5-6.543c-31.583-17.223-112.147-65.78-112.147-112.973z" fill="#fd3501"/><g fill="#fff"><path d="m199.936 179.155c-34.402-33.882-14.402-67.765-14.402-67.765s11.524 17.14 23.772 30.913c6.448 7.251 6.616 18.124.317 25.504z"/><path d="m312.064 179.155c34.402-33.882 14.402-67.765 14.402-67.765s-11.524 17.14-23.772 30.913c-6.448 7.251-6.616 18.124-.317 25.504z"/></g></g><g fill="#fff"><path d="m300.666 231.385h15v15h-15z"/><path d="m330.666 206.357h15v15h-15z"/></g><g><path d="m483.378 109.755-11.116 10.072c14.988 16.542 23.23 37.668 24.55 62.882-28.526 1.43-45.457 10.774-55.397 20.293-4.525-41.205-20.245-73.812-33.771-95.103-7.361-11.586-14.703-20.925-20.779-27.894 20.248 2.861 52.325 10.548 76.503 31.208l9.744-11.404c-42.229-36.083-103.111-36.498-105.682-36.498h-7.5v.001h-16.968v15h16.784c-.928 19.471-5.542 35.092-13.767 46.489-1.911 2.646-4.029 5.061-6.333 7.25-.813-14.309-6.48-24.064-6.722-24.473l-6.045-10.24-6.637 9.867c-.113.168-11.399 16.898-23.153 30.114-2.332 2.622-4.049 5.605-5.181 8.755-13.488 3.246-25.901 10.071-35.908 19.73-10.007-9.66-22.42-16.485-35.908-19.73-1.132-3.15-2.85-6.133-5.181-8.755-11.753-13.216-23.04-29.946-23.153-30.114l-6.638-9.867-6.044 10.24c-.242.409-5.909 10.164-6.722 24.473-2.303-2.189-4.422-4.603-6.332-7.249-8.226-11.398-12.839-27.019-13.768-46.49h16.784v-15h-16.968v-.001h-7.5c-2.571 0-63.453.415-105.682 36.498l9.744 11.404c24.18-20.661 56.258-28.348 76.504-31.208-6.076 6.97-13.418 16.308-20.779 27.895-13.526 21.291-29.246 53.898-33.771 95.103-9.939-9.52-26.87-18.863-55.397-20.293 1.319-25.214 9.562-46.34 24.549-62.882l-11.115-10.072c-18.993 20.96-28.623 47.966-28.623 80.265v7.5h.035v17.442h15v-17.238c46.98 2.589 54.169 29.179 54.446 30.287l2.572 11.366 9.296-7.045c.206-.156 19.317-14.357 42.501-10.444v.002c0 16.683 8.484 34.396 25.29 52.939-9.774 2.529-18.662 6.008-26.512 10.197-27.027 14.421-41.834 37.746-37.723 59.424 4.54 23.938 29.903 40.588 75.387 49.485 21.161 4.14 41.578 5.584 53.418 6.088l-16.676 48.665 95.173-55.896-95.173-55.895 16.503 48.158c-37.31-1.532-107.76-11.053-113.894-43.402-2.862-15.095 8.932-32.128 30.047-43.396 6.909-3.687 17.639-8.215 32.001-10.846 7.957 7.328 17.147 14.772 27.588 22.325 31.327 22.662 62.136 37.779 63.432 38.411l3.289 1.604 3.289-1.604c.987-.481 19.099-9.371 41.516-23.591 16.719 11.268 33.191 24.826 49.129 40.527 21.092 20.777 44.75 27.164 63.287 17.086 15.59-8.479 23.467-26.782 19.6-45.547-2.049-9.943-8.296-24.41-26.417-36.865-12.94-8.894-29.598-15.096-49.639-18.531 20.852-20.875 31.386-40.745 31.386-59.338 0-.001 0-.002 0-.002 23.177-3.903 42.295 10.289 42.482 10.431l9.297 7.238 2.57-11.462c.296-1.188 7.486-27.781 54.466-30.371v17.238h15v-17.442h.034v-7.5c0-32.297-9.63-59.303-28.622-80.264zm-259.03 260.581 38.239 22.457-38.239 22.458 7.696-22.458zm133.794-236.756c4.406-6.105 7.95-13.101 10.629-20.947 3.157 23.212 2.447 42.681.21 58.13-7.614-8.775-17.186-15.881-28.161-20.579 6.703-4.386 12.513-9.943 17.322-16.604zm-49.844 13.708c5.828-6.553 11.441-13.768 15.813-19.66 1.694 9.934.858 24.693-11.846 40.212l-4.184-4.901c-3.825-4.482-3.732-11.211.217-15.651zm-120.412-19.663c4.372 5.893 9.986 13.108 15.815 19.663 3.949 4.44 4.042 11.169.217 15.65l-4.185 4.901c-12.708-15.525-13.54-30.29-11.847-40.214zm-44.656-14.992c2.678 7.846 6.223 14.842 10.629 20.948 4.808 6.66 10.619 12.217 17.321 16.603-10.975 4.698-20.547 11.805-28.161 20.579-2.236-15.449-2.946-34.918.211-58.13zm-17.907 94.276c-16.472-2.542-30.924 1.83-40.58 6.269 2.802-42.209 18.561-75.532 31.982-96.774 4.744-7.508 9.507-14.027 13.877-19.505-6.194 32.883-6.017 64.225.617 92.008-2.667 5.69-4.661 11.728-5.896 18.002zm130.676 126.127c-18.225-9.205-48.543-26.899-73.771-47.739 11.623-.322 24.82.718 39.554 3.94 21.546 4.713 43.417 13.646 65.011 26.441-11.692 7.209-22.497 13.164-30.794 17.358zm162.129 6.617c2.524 12.25-2.328 24.041-12.074 29.342-12.417 6.754-29.462 1.298-45.594-14.594-15.499-15.268-30.916-28.097-46.085-38.787 2.765-1.896 5.553-3.854 8.346-5.874 7.153-5.174 13.713-10.297 19.701-15.368 62.905 6.7 73.846 36.26 75.706 45.281zm-117.242-33.027c-50.102-31.482-96.873-39.858-134.059-35.161-16.367-16.151-27.977-33.384-27.977-49.574 0-26.073 16.191-49.34 40.074-58.67 3.432 6.901 8.47 14.107 15.75 21.277l5.738 5.651 14.917-17.474c2.741-3.211 4.591-6.929 5.565-10.828 11.369 3.616 21.587 10.452 29.348 19.756l5.758 6.907 5.759-6.905c7.761-9.304 17.979-16.14 29.348-19.756.974 3.898 2.824 7.616 5.565 10.828l14.916 17.474 5.738-5.651c7.28-7.17 12.318-14.376 15.75-21.277 23.882 9.33 40.074 32.596 40.074 58.67 0 28.945-37.168 61.257-72.264 84.733zm85.79-99.718c-1.235-6.273-3.228-12.311-5.896-18.001 6.634-27.783 6.811-59.125.617-92.007 4.37 5.478 9.132 11.997 13.877 19.505 13.422 21.242 29.18 54.566 31.982 96.776-9.657-4.44-24.11-8.812-40.58-6.273z"/></g></g><g/><g/><g/><g/><g/><g/><g/><g/><g/><g/><g/><g/><g/><g/><g/></svg>