<svg id="Layer_1" enable-background="new 0 0 512.059 512.059" viewBox="0 0 512.059 512.059" xmlns="http://www.w3.org/2000/svg"><g><g><path d="m345.697 378.541h51.963c19.351 0 35.035-13.241 35.035-29.566v-13.771c9.676 0 18.441-3.306 24.774-8.654 6.351-5.349 10.27-12.74 10.27-20.911v-13.761h1.746c19.361 0 35.044-13.241 35.044-29.575v-13.761h-94.789c-35.369 0-64.044 24.189-64.044 54.043v75.956z" fill="#fff"/><path d="m434.741 248.541h-25c-35.369 0-64.043 24.189-64.043 54.043v75.957h25v-75.957c-.001-29.854 28.674-54.043 64.043-54.043z" fill="#e3e9ee"/><path d="m166.361 378.541h-51.963c-19.351 0-35.035-13.241-35.035-29.566v-13.771c-9.676 0-18.441-3.306-24.774-8.654-6.351-5.349-10.27-12.74-10.27-20.911v-13.761h-1.746c-19.361 0-35.044-13.241-35.044-29.575v-13.761h94.789c35.369 0 64.044 24.189 64.044 54.043v75.956z" fill="#fff"/><path d="m106.364 350.066v-21.194c-9.676 0-35.044-3.989-35.044-23.476v-24.185s-36.79 1.671-36.79-20.485v-12.185h-27v13.761c0 16.334 15.684 29.575 35.044 29.575h1.746v13.761c0 8.171 3.919 15.563 10.27 20.911 6.333 5.349 15.099 8.654 24.774 8.654v13.771c0 16.324 15.684 29.566 35.035 29.566h14.515c-13.184-4.376-22.55-15.473-22.55-28.474z" fill="#e3e9ee"/><path d="m220.459 277.091c-119.809 16.455-117.178 220.456-117.29 234.909h305.721c-.112-14.453 2.519-218.454-117.29-234.909z" fill="#8ad8f6"/><path d="m245.459 277.091h-25c-119.809 16.455-117.178 220.456-117.29 234.909h25c.112-14.453-2.519-218.454 117.29-234.909z" fill="#54c9f3"/><path d="m235.151 283.588h41.757v48h-41.757z" fill="#fff"/><path d="m276.908 331.588 10 84.941-30.879 30-30.878-30 10-84.941z" fill="#fff"/><g fill="#e3e9ee"><path d="m235.151 283.588h20.878v48h-20.878z"/><path d="m256.029 331.588v114.941l-30.878-30 10-84.941z"/></g><path d="m313.249 239.74c13.84-14.36 22.36-33.89 22.36-55.42 0-44.11-35.75-79.86-79.86-79.86s-79.86 35.75-79.86 79.86c0 21.53 8.52 41.06 22.36 55.42z" fill="#58565b"/><path d="m268.249 105.44c-4.073-.64-8.247-.98-12.5-.98-44.11 0-79.86 35.75-79.86 79.86 0 21.53 8.52 41.06 22.36 55.42h25c-13.84-14.36-22.36-33.89-22.36-55.42 0-39.857 29.191-72.88 67.36-78.88z" fill="#474549"/><g><path d="m198.248 243.729c0 11.881 5.807 22.872 15.262 28.886 0 0 30.98 20.965 42.695 20.931 11.554-.034 42.005-20.888 42.005-20.888 9.328-6.048 15.039-16.962 15.039-28.742v-37.933c0-11.159-8.347-20.205-18.643-20.205h-77.715c-10.296 0-18.642 9.046-18.643 20.205z" fill="#eb975d"/></g><path d="m238.51 266.603c-9.454-6.194-15.262-17.515-15.262-29.752v-51.074h-6.357c-10.296 0-18.642 9.046-18.643 20.205v37.747c0 11.881 5.807 22.872 15.262 28.886 0 0 30.98 20.965 42.695 20.931 4.366-.013 11.43-3 18.53-6.71-13.914-4.684-36.225-20.233-36.225-20.233z" fill="#b25e1e"/></g><g fill="#fff"><path d="m233.529 475.559h15v15h-15z"/><path d="m263.529 475.559h15v15h-15z"/></g><g><path d="m467.739 241.04v15h29.29v6.26c0 12.175-12.354 22.08-27.54 22.08h-1.75v-.002h-42.626v15h35.126v6.262c0 5.655-2.7 11.044-7.611 15.183-5.247 4.436-12.325 6.878-19.929 6.878h-7.5v.005h-24.533v15h24.533v6.275c0 12.164-12.354 22.06-27.54 22.06h-2.058c-9.349-27.247-22.835-52.863-42.252-71.677 2.016-24.163 26.538-43.323 56.39-43.323h43v-15h-43c-33.74 0-62.096 20.219-69.587 47.307-9.188-6.547-19.475-11.715-30.991-15.133 7.28-7.632 11.587-18.214 11.587-29.299v-1.255c14.433-16.061 22.361-36.65 22.361-58.34 0-48.171-39.189-87.36-87.36-87.36-48.17 0-87.359 39.189-87.359 87.36 0 21.69 7.927 42.278 22.358 58.338v1.072c0 11.239 4.406 21.927 11.849 29.574-11.395 3.418-21.583 8.554-30.691 15.043-7.49-27.088-35.846-47.307-69.587-47.307h-36.69v15h36.69c29.853 0 54.375 19.16 56.39 43.323-19.417 18.813-32.903 44.43-42.252 71.677h-2.058c-15.186 0-27.54-9.896-27.54-22.06v-6.275h24.533v-15h-24.533v-.006h-7.5c-7.604 0-14.682-2.442-19.938-6.886-4.901-4.131-7.602-9.52-7.602-15.175v-6.262h35.126v-15h-42.626v.002h-1.75c-15.186 0-27.54-9.905-27.54-22.08v-6.26h35.6v-15h-50.6v21.26c0 18.746 16.043 34.288 36.79 36.743v6.597c0 10.154 4.595 19.617 12.928 26.638 6.139 5.189 13.808 8.578 22.112 9.854v6.85c0 19.667 17.678 35.797 39.917 36.982-13.977 48.891-16.047 99.939-16.103 124.576l-.005 1.402 15 .117.005-1.486c.095-41.869 5.278-83.571 14.596-117.426 17.749-64.492 49.208-100.862 93.512-108.195 2.703 1.671 5.713 3.468 8.869 5.239v40.96l-10.382 88.178 38.76 37.657 38.76-37.657-10.382-88.178v-40.99c3.112-1.768 6.079-3.562 8.74-5.229 44.372 7.283 75.875 43.661 93.641 108.215 9.317 33.854 14.501 75.557 14.596 117.426l.005 1.486 15-.117-.005-1.402c-.056-24.637-2.125-75.686-16.103-124.576 22.239-1.185 39.917-17.316 39.917-36.982v-6.849c8.305-1.275 15.972-4.663 22.103-9.847 8.343-7.028 12.938-16.491 12.938-26.646v-6.597c20.747-2.455 36.79-17.997 36.79-36.743v-21.26h-44.289zm-276.991-35.058v10.141c-4.8-9.794-7.358-20.619-7.358-31.803 0-39.899 32.46-72.36 72.359-72.36s72.36 32.461 72.36 72.36c0 11.185-2.559 22.012-7.361 31.808v-10.146c0-15.276-11.728-27.705-26.143-27.705h-77.715c-14.414 0-26.142 12.429-26.142 27.705zm65.281 230.09-22.996-22.343 8.787-74.642h28.419l8.787 74.642zm-13.378-111.984v-26.49c5.085 2.079 9.836 3.449 13.531 3.448h.043c3.608-.01 8.23-1.352 13.182-3.392v26.434zm63.097-80.173c0 9.201-4.452 17.804-11.619 22.45l-.157.104c-13.736 9.402-32.09 19.56-37.789 19.576h-.015c-5.815 0-24.481-10.19-38.456-19.643l-.177-.116c-7.271-4.625-11.787-13.269-11.787-22.558v-37.747c0-7.006 4.998-12.705 11.143-12.705h77.715c6.145 0 11.143 5.699 11.143 12.705v37.934z"/><path d="m329.522 361.931c.26.76 25.999 76.831 25.999 150.069h15c0-75.799-25.714-151.734-26.808-154.93z"/><path d="m137.638 512h15c0-79.89 30.066-148.607 30.439-149.449 0-.001 0-.002.001-.003l-13.705-6.097c-1.296 2.912-31.735 72.266-31.735 155.549z"/><path d="m256.029 85c40.654 0 72.5-18.668 72.5-42.5s-31.845-42.5-72.5-42.5-72.5 18.668-72.5 42.5 31.846 42.5 72.5 42.5zm0-70c33.886 0 57.5 14.493 57.5 27.5s-23.614 27.5-57.5 27.5-57.5-14.493-57.5-27.5 23.615-27.5 57.5-27.5z"/></g></g><g/><g/><g/><g/><g/><g/><g/><g/><g/><g/><g/><g/><g/><g/><g/></svg>