<svg id="Layer_1" enable-background="new 0 0 511.577 511.577" viewBox="0 0 511.577 511.577" xmlns="http://www.w3.org/2000/svg"><g><g><path d="m24.619 511.056c0-83.088-64.588-272.26 63.529-326.222-13.765 110.326 58.416 107.769 58.416 107.769h218.446s72.181 2.558 58.416-107.769c128.118 53.963 63.529 243.135 63.529 326.222z" fill="#ff6a47"/><path d="m365.895 292.602h24.115s65.545 2.321 59.805-92.929c-7.723-5.681-16.478-10.666-26.388-14.84 12.866 103.126-49.355 107.621-57.532 107.769z" fill="#fd3501"/><path d="m86.76 199.673c.284-4.705.74-9.647 1.388-14.84-128.118 53.963-63.529 243.135-63.529 326.222h25c0-76.66-54.98-243.626 37.141-311.382z" fill="#fd3501"/><path d="m434.97 511.056c-.132-16.937 2.951-255.997-137.447-275.28h-83.368c-140.399 19.282-137.316 258.343-137.448 275.28z" fill="#8ad8f6"/><path d="m234.96 272.644h41.757v48h-41.757z" fill="#fff"/><path d="m276.717 320.644 10 104.941-30.879 30-30.878-30 10-104.941z" fill="#fff"/><path d="m239.155 235.775h-25c-140.399 19.283-137.316 258.344-137.448 275.281h25c.132-16.937-2.951-255.998 137.448-275.281z" fill="#54c9f3"/><path d="m255.838 320.644v134.941l-30.878-30 10-104.941z" fill="#e3e9ee"/><path d="m234.96 272.644h20.878v48h-20.878z" fill="#e3e9ee"/><path d="m328.541 214.765c17.567-18.227 28.381-43.015 28.381-70.342 0-55.987-45.376-101.363-101.363-101.363s-101.364 45.375-101.364 101.362c0 27.327 10.814 52.116 28.381 70.342h145.965z" fill="#58565b"/><path d="m268.059 43.826c-4.096-.504-8.267-.767-12.5-.767-55.987 0-101.363 45.376-101.363 101.363 0 27.327 10.814 52.116 28.381 70.343h25c-17.567-18.227-28.381-43.015-28.381-70.343-.001-51.754 38.775-94.437 88.863-100.596z" fill="#474549"/><g><path d="m182.574 219.828c0 15.08 7.371 29.031 19.371 36.663 0 0 39.321 26.61 54.191 26.567 14.665-.043 53.315-26.513 53.315-26.513 11.84-7.676 19.088-21.529 19.088-36.482v-48.147c0-14.163-10.594-25.645-23.662-25.645h-98.64c-13.068 0-23.662 11.482-23.662 25.645z" fill="#ffdaaa"/></g><g fill="#fff"><path d="m181.379 104.056c-45.69-45-19.128-90-19.128-90s15.306 22.765 31.572 41.057c8.564 9.63 8.787 24.071.42 33.872z"/><path d="m330.298 104.056c45.69-45 19.128-90 19.128-90s-15.306 22.764-31.572 41.056c-8.564 9.63-8.787 24.071-.42 33.872z"/></g><path d="m226.945 250.491c-12-7.632-19.371-21.583-19.371-36.663v-47.911c0-7.888 3.289-14.941 8.458-19.645h-9.795c-13.068 0-23.662 11.482-23.662 25.645v47.911c0 15.08 7.371 29.031 19.371 36.663 0 0 39.321 26.611 54.191 26.567 4.81-.014 12.204-2.878 19.965-6.712-17.187-4.221-49.157-25.855-49.157-25.855z" fill="#ffb680"/></g><g fill="#fff"><path d="m233.338 478.626h15v15h-15z"/><path d="m263.338 478.626h15v15h-15z"/></g><g><path d="m366.929 343.382-14.462 3.98c9.5 34.519 14.897 117.791 14.997 162.155.002.852.004 1.541.008 2.06l15-.115c-.004-.499-.006-1.161-.008-1.979-.104-46.348-5.56-129.857-15.535-166.101z"/><path d="m129.213 509.482c-.002.818-.004 1.48-.008 1.979l15 .115c.004-.519.006-1.208.008-2.061.099-44.363 5.497-127.636 14.997-162.154l-14.462-3.98c-9.975 36.245-15.431 119.754-15.535 166.101z"/><path d="m486.333 441.147c-3.689 27.278-6.875 50.837-6.875 69.908h15c0-18.062 3.123-41.156 6.739-67.897 1.796-13.285 3.654-27.022 5.263-41.208l-14.904-1.689c-1.591 14.024-3.437 27.68-5.223 40.886z"/><path d="m426.339 177.924-11.958-5.036 1.604 12.876c2.473 19.847 2.218 37.147-.761 51.427-5.369 25.851-18.782 37.819-30.688 43.333-14.697-19.311-32.019-33.515-51.706-42.388 2.076-5.699 3.207-11.817 3.207-18.071v-2.341c18.322-20.097 28.379-46.003 28.379-73.298 0-18.703-4.785-36.977-13.856-53.172 12.336-18.847 14.63-36.628 13.922-49.485-1.018-18.488-8.291-31.002-8.6-31.525l-6.044-10.244-6.637 9.871c-.15.224-15.205 22.549-30.953 40.257-.26.292-.507.591-.755.89-16.859-10.133-36.039-15.462-55.935-15.462-19.745 0-38.799 5.252-55.567 15.237-.187-.222-.37-.447-.564-.665-15.727-17.684-30.803-40.033-30.953-40.258l-6.637-9.868-6.045 10.241c-.31.523-7.582 13.037-8.6 31.525-.703 12.754 1.544 30.353 13.621 49.032-9.241 16.31-14.115 34.741-14.115 53.626 0 27.293 10.056 53.197 28.376 73.293v2.109c0 6.411 1.178 12.672 3.346 18.481-8.311 3.787-16.25 8.534-23.676 14.19l9.089 11.934c6.847-5.215 14.181-9.542 21.854-12.938 3.374 4.424 7.451 8.268 12.139 11.265 3.935 2.661 16.474 10.956 29.633 17.799v39.728l-10.308 108.169 38.686 37.586 38.686-37.586-10.308-108.169v-39.64c13.049-6.856 25.512-15.203 29.397-17.861 4.675-3.045 8.733-6.944 12.081-11.422 93.885 41.12 101.658 207.287 101.767 258.031l.006 1.718 15-.113-.006-1.637c-.013-6.066-.118-12.111-.302-18.128 11.676-36.416 56.445-190.222 11.391-278.657 45.025 41.01 45.393 112.097 39.571 172.813l14.932 1.432c7.49-78.086 4.969-172.395-81.713-208.899zm-102.881-117.827c9.215-10.363 18.029-21.983 24.1-30.352 3.65 13.813 4.982 37.89-16.98 63.086l-7.44-8.716c-5.875-6.882-5.737-17.208.32-24.018zm-159.341-30.355c6.071 8.368 14.886 19.99 24.102 30.354 6.057 6.811 6.195 17.137.321 24.019l-7.441 8.716c-21.969-25.203-20.63-49.286-16.982-63.089zm91.721 415.386-23.071-22.414 9.012-94.57h28.118l9.012 94.57zm-13.378-131.984v-25.746c5.155 1.934 9.896 3.161 13.648 3.161h.05c3.605-.01 8.131-1.176 13.059-3.024v25.609zm78.579-93.08c0 12.355-6.003 23.923-15.668 30.188l-.158.105c-15.257 10.448-40.578 25.175-49.099 25.2h-.022c-8.672 0-34.417-14.776-49.944-25.279l-.178-.116c-9.805-6.236-15.896-17.859-15.896-30.335v-47.911c0-10.005 7.251-18.145 16.163-18.145h98.64c8.912 0 16.162 8.14 16.162 18.145zm-16.162-81.292h-98.64c-17.183 0-31.162 14.868-31.163 33.145v20.803c-8.702-14.459-13.376-31.05-13.376-48.294 0-14.116 3.158-27.936 9.183-40.521 1.641 1.831 3.375 3.664 5.234 5.495l5.738 5.651 18.094-21.197c7.138-8.363 9.413-19.499 6.883-29.662 14.649-8.928 31.374-13.635 48.727-13.635 17.549 0 34.442 4.813 49.209 13.938-2.41 10.082-.106 21.08 6.962 29.36l18.094 21.197 5.738-5.651c1.721-1.695 3.338-3.391 4.871-5.086 5.896 12.476 8.986 26.154 8.986 40.112 0 17.246-4.675 33.839-13.379 48.3v-20.809c.001-18.277-13.978-33.146-31.161-33.146zm118.811 224.858c-7.766-27.084-17.782-50.498-29.882-69.744-.192-.305-.392-.595-.585-.898 11.117-5.664 22.854-15.69 30.62-33.389 7.931 26.574 6.035 66.143-.153 104.031zm32.548-11.895c-3.398 35.462-10.544 69.406-17.035 95.054-1.716-16.588-4.1-32.695-7.122-48.068 3.509-15.33 9.296-44.083 11.34-74.607 2.606-38.91-1.752-68.113-12.944-86.897 1.676-9.269 2.379-19.519 2.112-30.655 21.932 31.355 29.89 80.036 23.649 145.173z"/><path d="m153.114 273.676-10.431-10.779c-5.615 5.433-10.795 11.354-15.593 17.654-26.483-12.145-37.654-45.5-31.499-94.785l1.608-12.88-11.961 5.038c-24.785 10.438-44.329 26.512-58.088 47.773-12.032 18.592-19.74 40.814-23.563 67.939-6.852 48.605.394 102.188 6.787 149.461 3.62 26.766 6.746 49.881 6.746 67.958h15c0-19.087-3.188-42.666-6.881-69.969-6.263-46.312-13.361-98.802-6.799-145.356 5.157-36.585 18.261-64.183 39.756-83.469-7.872 15.299-13.465 33.293-16.676 53.904-4.639 29.773-4.395 65.089.726 104.966 7.22 56.23 22.297 106.105 27.233 121.489-.18 6.186-.254 11.815-.264 16.767l-.005 1.613 15 .109.005-1.692c.009-4.422.082-10.023.292-16.559l.753-.26c-.04-.115-.277-.814-.676-2.031 1.902-53.133 12.809-162.97 68.53-216.891zm-73.792 126.034c-3.206 16.606-5.427 32.881-6.952 48.038-16.036-63.676-36.409-179.37 6.594-241.129-.272 11.365.486 21.345 2.026 30.11-26.205 43.182-8.54 133.248-1.668 162.981zm8.172-140.668c7.89 18.278 19.981 28.384 30.908 33.967-13.672 21.436-23.595 46.223-30.781 71.558-6.388-38.5-8.355-78.731-.127-105.525z"/></g></g><g/><g/><g/><g/><g/><g/><g/><g/><g/><g/><g/><g/><g/><g/><g/></svg>