<svg id="Layer_1" enable-background="new 0 0 512 512" viewBox="0 0 512 512" xmlns="http://www.w3.org/2000/svg"><g><g><path d="m437.4 173.639 6.1 22.4 61 20v30.006c0 16.992-12.309 31.483-29.077 34.232l-31.923 5.233-10 47.118h-141.929v-139.489c0-40.99 33.229-74.219 74.219-74.219 33.479.001 62.814 22.415 71.61 54.719z" fill="#58565b"/><path d="m396.918 153.832v-86.764c-32.455 0-58.765 26.31-58.765 58.765 0 15.464 12.536 28 28 28h30.765z" fill="#58565b"/><path d="m316.571 193.139c0-31.234 19.303-47.943 46.622-58.896.549-20.595 12.158-49.338 28.971-66.969-29.706 2.381-53.169 26.842-53.971 56.969-27.319 10.953-46.622 37.662-46.622 68.896v139.487h25z" fill="#474549"/><path d="m74.6 173.639-6.1 22.4-61 20v30.006c0 16.992 12.309 31.483 29.077 34.232l31.923 5.233 10 47.118h141.929v-139.489c0-40.99-33.229-74.219-74.219-74.219-33.479.001-62.814 22.415-71.61 54.719z" fill="#58565b"/><path d="m349.79 187.273c-28.103 0-51.585 19.733-57.38 46.096-11.195-4.72-23.497-7.331-36.41-7.331-12.912 0-25.215 2.611-36.41 7.331-5.795-26.363-29.277-46.096-57.38-46.096v167.657l34.844 20v33.022c0 20.422 16.556 36.978 36.978 36.978h43.936c20.422 0 36.978-16.556 36.978-36.978v-33.022l34.844-20z" fill="#58565b"/><path d="m276.176 382.862c0 10.818-19.588 19.588-19.588 19.588s-19.588-8.77-19.588-19.588 8.77-19.588 19.588-19.588c10.819 0 19.588 8.769 19.588 19.588z" fill="#ffc277"/><path d="m222.054 409.952v-45.022l-34.844-20v-152.077c-7.586-3.574-16.057-5.579-25-5.579v167.656l34.844 20v33.022c0 20.422 16.556 36.978 36.978 36.978h13.006c-14.533-4.982-24.984-18.755-24.984-34.978z" fill="#474549"/><path d="m61.577 265.275c-16.768-2.749-29.077-17.24-29.077-34.231v-5.006l61-20 6.1-32.4c7.679-28.198 31.009-48.858 59.083-53.654-4.057-.687-8.219-1.064-12.472-1.064-33.48 0-62.814 22.415-71.611 54.718l-6.1 22.4-61 20v30.006c0 16.992 12.309 31.483 29.077 34.231l31.923 5.233 10 47.118h25l-10-62.118z" fill="#474549"/><path d="m115.082 153.832v-86.764c32.455 0 58.765 26.31 58.765 58.765 0 15.464-12.536 28-28 28h-30.765z" fill="#58565b"/><path d="m115.082 67.068v86.765h30.026v-78.514c-8.788-5.236-19.053-8.251-30.026-8.251z" fill="#474549"/></g><g fill="#fff"><path d="m248.5 262.146h15v15h-15z"/><path d="m248.5 292.146h15v15h-15z"/></g><g><path d="m271.099 320.597h39.801v15h-39.801z" transform="matrix(.878 -.479 .479 .878 -121.587 179.434)"/><path d="m213.5 308.196h15v39.801h-15z" transform="matrix(.479 -.878 .878 .479 -172.861 365.005)"/><path d="m95.182 188.264h39.801v15h-39.801z" transform="matrix(.878 -.479 .479 .878 -79.69 79.011)"/><path d="m389.418 175.863h15v39.801h-15z" transform="matrix(.479 -.878 .878 .479 34.995 450.477)"/><path d="m449.675 190.171-5.038-18.504c-4.756-17.455-14.865-32.482-29.228-43.453-3.457-2.646-7.142-5.012-10.989-7.079v-61.566h-7.5c-17.694 0-34.336 6.892-46.865 19.409-10.89 10.899-17.561 25.028-19.075 40.203-28.651 13.454-46.909 41.983-46.909 73.957v29.36c-8.917-2.576-18.335-3.96-28.07-3.96s-19.153 1.384-28.07 3.96v-29.359c0-31.974-18.258-60.503-46.909-73.957-1.515-15.175-8.187-29.304-19.08-40.208-12.525-12.513-29.167-19.404-46.861-19.404h-7.5v61.566c-3.847 2.066-7.531 4.43-10.983 7.074-14.369 10.976-24.478 26.003-29.233 43.459l-5.039 18.503-62.326 20.433v35.434c0 20.769 14.874 38.281 35.368 41.642l26.86 4.4 10.197 48.048h34.035v-15h-21.885l-9.803-46.192-36.979-6.059c-13.207-2.166-22.793-13.453-22.793-26.839v-24.566l59.675-19.565 7.161-26.297c3.883-14.252 12.136-26.521 23.873-35.486.611-.467 1.244-.906 1.871-1.352v14.987h15v-78.65c10.846 1.581 20.859 6.582 28.754 14.47 9.318 9.327 14.645 21.704 14.999 34.852l.132 4.924 4.571 1.834c25.449 10.214 41.894 34.53 41.894 61.949v10.27c-1.227-1.459-2.512-2.876-3.869-4.235-12.524-12.514-29.163-19.405-46.851-19.405h-7.5v145.36h-33.25v15h33.25v19.145l34.844 20v28.679c0 24.525 19.953 44.479 44.478 44.479h43.936c24.525 0 44.479-19.953 44.479-44.479v-28.679l34.844-20v-19.145h27.37v-15h-27.37v-145.36h-7.5c-17.688 0-34.327 6.892-46.856 19.41-1.355 1.357-2.638 2.771-3.863 4.228v-10.268c0-27.419 16.444-51.735 41.893-61.949l4.571-1.834.133-4.924c.354-13.147 5.681-25.524 14.994-34.847 7.899-7.892 17.913-12.894 28.759-14.475v78.648h15v-14.986c.629.448 1.264.887 1.877 1.356 11.73 8.961 19.984 21.229 23.867 35.48l7.161 26.298 59.673 19.567v24.566c0 13.386-9.586 24.673-22.793 26.839l-36.979 6.059-9.803 46.192h-27.765v15h39.915l10.197-48.048 26.861-4.4c20.493-3.361 35.367-20.873 35.367-41.642v-35.434zm-279.965 5.14c10.84 1.581 20.85 6.583 28.744 14.469 5.535 5.542 9.685 12.2 12.202 19.494-16.882 8.488-31.078 21.557-40.946 37.568zm143.831 14.474c7.897-7.891 17.909-12.894 28.749-14.475v71.531c-9.868-16.011-24.064-29.08-40.946-37.568 2.516-7.293 6.666-13.95 12.197-19.488zm28.749 110.043v30.76l-34.844 20v37.364c0 16.255-13.224 29.479-29.479 29.479h-13.88v-30.359c7.241-3.981 19.589-12.488 19.589-24.211 0-14.937-12.151-27.088-27.088-27.088s-27.088 12.151-27.088 27.088c0 11.723 12.347 20.229 19.588 24.21v30.359h-15.057c-16.254 0-29.478-13.224-29.478-29.479v-37.364l-34.844-20v-30.76c0-47.58 38.709-86.29 86.29-86.29 47.581.001 86.291 38.711 86.291 86.291zm-85.701 74.238c-6.118-3.366-12.089-8.361-12.089-11.205 0-6.665 5.423-12.088 12.088-12.088s12.088 5.423 12.088 12.088c.001 2.845-5.974 7.842-12.087 11.205z"/></g></g><g/><g/><g/><g/><g/><g/><g/><g/><g/><g/><g/><g/><g/><g/><g/></svg>