<svg id="Layer_1" enable-background="new 0 0 511.874 511.874" viewBox="0 0 511.874 511.874" xmlns="http://www.w3.org/2000/svg"><g><g><path d="m418.041 257.427c3.529 16.804-13.658 32.184-11.294 43.059 6.29 28.93 141.176 203.647-147.529 203.647-307.059 0-152.982-174.717-146.692-203.647 2.364-10.875-14.824-26.255-11.294-43.059z" fill="#876c3e"/><path d="m137.525 300.486c2.364-10.875-14.824-26.255-11.294-43.059h-25c-3.529 16.804 13.658 32.184 11.294 43.059-6.29 28.93-160.366 203.647 146.692 203.647 4.129 0 8.161-.04 12.118-.111-289.787-4.861-140.009-175.02-133.81-203.536z" fill="#6e5732"/><ellipse cx="259.218" cy="257.427" fill="#876c3e" rx="158.824" ry="36.706"/><path d="m148.003 257.427c0-12.381 13.173-23.667 34.802-32.184-49.119 6.242-82.411 18.314-82.411 32.184s33.292 25.942 82.411 32.184c-21.628-8.517-34.802-19.803-34.802-32.184z" fill="#6e5732"/><path d="m259.218 294.133c57.443 0 107.761-7.048 135.652-17.607-17.964-14.949-71.903-25.805-135.652-25.805-63.75 0-117.688 10.856-135.652 25.805 27.891 10.558 78.208 17.607 135.652 17.607z" fill="#ffc277"/><path d="m210.001 287.393c-14.745-2.969-15.341-23.78-.836-27.759 17.539-4.811 39.681-7.973 64.041-8.73-4.604-.116-9.266-.183-13.988-.183-63.75 0-117.688 10.856-135.652 25.805 27.891 10.558 78.209 17.607 135.652 17.607 4.715 0 9.377-.052 13.988-.145-23.419-.582-45.046-2.938-63.205-6.595z" fill="#fcad42"/><path d="m281.768 272.427v-112.647c0-16.91 13.708-30.618 30.618-30.618 16.91 0 30.618 13.708 30.618 30.618 0 19.509 15.815 35.323 35.323 35.323h5.382v-24.765c0-36.646-29.707-66.353-66.353-66.353h-36.206c-8.366 0-15.147-6.782-15.147-15.147 0-44.719-36.252-80.97-80.97-80.97-44.719 0-80.97 36.252-80.97 80.97v45.147h12.5c26.623 0 48.206-21.582 48.206-48.206 0-18.08 14.657-32.736 32.737-32.735 18.079.001 32.734 14.657 32.734 32.735v186.647h51.528z" fill="#ffc277"/><g fill="#fcad42"><path d="m217.505 53.045c-3.489 0-6.848.551-10.001 1.562 13.187 4.227 22.735 16.583 22.735 31.174v186.647h20v-186.648c0-18.079-14.656-32.735-32.734-32.735z"/><path d="m124.062 88.839c0-41.33 30.974-75.404 70.971-80.334-3.279-.404-6.611-.637-10-.637-44.719 0-80.97 36.252-80.97 80.97v45.147h12.5c2.552 0 5.056-.202 7.5-.584v-44.562z"/><path d="m363.003 159.78c0-16.91-13.708-30.618-30.618-30.618-3.503 0-6.865.596-10 1.679 11.997 4.146 20.618 15.532 20.618 28.938 0 19.509 15.815 35.323 35.323 35.323h5.382v-3.168c-12.21-5.559-20.705-17.861-20.705-32.154z"/></g><path d="m7.513 511.104c-.67-65.006 25.49-109.549 25.49-109.549s12.471 22.784 35.346 30.696c-16.876-51.472 0-78.853 0-78.853s36.214 42.274 78.914 72.975c33.53-30.701-4.14-64.194-4.14-64.194s67.96-10.474 87.53 33.967c7.27 16.514 17.38 27.654 27.68 35.162l40.552 79.795h-291.372z" fill="#ff6a47"/><path d="m504.209 511.104c2.458-45.194-23.677-61.843-23.677-61.843s.377 11.931-10.151 30.143c-22.649-63.074-72.191-66.658-72.191-66.658s8.784 34.734-3.965 58.871c0 0-14.006-20.091-57.32-42.128-36.251-18.444-20.414-58.384-20.414-58.384s-56.89 9.71-57.479 48.922c-.784 52.214-21.249 55.796-21.249 55.796 0-29.107-39.937-59.24-39.937-59.24s-2.082 26.658-22.863 63.054c-6.78-13.362-18.799-22.992-18.799-22.992s-21.133 1.092-20.564 54.461h368.609z" fill="#ff6a47"/><g fill="#fd3501"><g><path d="m156.824 414.591c5.011 4.036 10.176 7.996 15.439 11.781 33.53-30.701-4.14-64.194-4.14-64.194s1.652-.255 4.515-.516c-16.381-1.507-29.515.516-29.515.516s28.688 25.512 13.701 52.413z"/><path d="m49.068 420.811c-10.5-9.104-16.065-19.256-16.065-19.256s-26.16 44.543-25.49 109.549h25c-.406-39.407 9.047-71.29 16.555-90.293z"/><path d="m93.35 432.25c-8.435-25.728-8.438-45.436-6.33-58.715-11.588-11.872-18.67-20.138-18.67-20.138s-11.638 18.929-5.889 54.863c5.498 7.367 15.982 18.835 30.889 23.99z"/></g><path d="m400.056 453.266c13.93 10.852 19.169 18.35 19.169 18.35 8.676-16.426 7.38-37.749 5.666-49.703-14.8-8.301-26.7-9.167-26.7-9.167s5.102 20.216 1.865 40.52z"/><path d="m199.964 479.635c9.844-17.24 15.487-32.288 18.706-43.36-10.267-11.713-20.843-19.693-20.843-19.693s-1.368 17.467-12.907 43.423c4.1 3.926 10.663 10.997 15.044 19.63z"/><path d="m167.75 468.573c-5.805-7.296-11.585-11.93-11.585-11.93s-21.133 1.092-20.564 54.461h25c-.231-21.627 3.103-34.668 7.149-42.531z"/><path d="m262.764 475.821s20.464-3.582 21.249-55.796c.302-20.091 15.383-32.434 30.02-39.697 1.018-5.585 2.459-9.224 2.459-9.224s-56.89 9.709-57.479 48.921c-.205 13.624-1.751 23.931-3.922 31.733 4.526 7.643 7.673 15.893 7.673 24.063z"/></g></g><g fill="#fff"><path d="m233.503 326.28h15v15h-15z"/><path d="m263.503 326.28h15v15h-15z"/></g><g><path d="m194.249 191.911c-14.329-33.399-53.362-36.804-55.017-36.933l-1.183 14.953c.315.026 31.701 2.923 42.414 27.894z"/><path d="m109.974 217.516h15c0-33.046-36.066-48.441-60.441-48.441v15c12.133-.001 45.441 7.925 45.441 33.441z"/><path d="m60.85 132.104h15c0-34.724-26.471-50.864-40.468-54.547l-3.851 14.497c1.198.327 29.319 8.382 29.319 40.05z"/><path d="m345.474 41.839v-15c-24.332 0-37.312 11.53-43.915 21.204-9.182 13.449-10.173 28.794-10.173 34.767h15c0-6.842 1.885-40.971 39.088-40.971z"/><path d="m304.091 166.28h15v29.588h-15z"/><path d="m419.856 156.81h15c0-36.146-35.109-54.293-36.604-55.048l-6.78 13.38c.283.145 28.384 14.842 28.384 41.668z"/><path d="m484.562 442.935-11.976-7.717.448 14.191c0 .065-.01 4.318-2.397 11.498-6.443-12.858-14.005-22.751-21.762-30.364 2.813-12.111 3.001-25.598.543-40.177l-14.791 2.494c1.617 9.589 1.929 18.54.949 26.75-18.802-12.807-35.608-14.256-36.845-14.346l-10.331-.739 2.517 10.05c.068.271 5.651 23.108.633 42.998-8.767-8.42-24.786-21.309-51.243-34.771-29.601-15.061-17.369-47.581-16.844-48.935l4.918-12.402-13.151 2.244c-2.486.424-58.944 10.546-63.432 51.691-5.756-6.33-10.538-13.779-14.28-22.278-21.643-49.144-92.53-38.821-95.537-38.356l-15.63 2.424 11.774 10.58c.155.14 15.461 14.08 15.537 30.379.031 6.507-2.341 12.538-7.224 18.311-23.458-17.598-44.643-38.324-57.949-52.218 6.154-14.058 13.472-27.044 19.469-37.674 6.206-11.003 10.69-18.952 11.893-24.487 1.551-7.114-1.731-14.178-5.11-21.028 7.952 3.57 18.092 6.775 30.482 9.639 30.533 7.056 71.016 10.942 113.99 10.942 42.979 0 83.465-3.887 113.999-10.942 12.959-2.995 23.459-6.364 31.565-10.133-3.463 7.002-6.945 14.233-5.362 21.521 1.099 5.044 4.661 12.228 9.591 22.17 7.077 14.273 16.771 33.821 22.438 54.358l14.459-3.99c-6.049-21.923-16.11-42.215-23.458-57.032-3.943-7.953-7.669-15.466-8.372-18.694-.498-2.293 2.189-7.722 4.349-12.085 4.117-8.316 9.198-18.624 7.095-30.145-.559-12.8-15.226-22.831-44.808-30.643-23.966-6.329-56.213-10.598-91.445-12.142v-54.093c0-12.748 10.372-23.12 23.12-23.12 6.173 0 11.979 2.405 16.347 6.774 4.368 4.367 6.773 10.173 6.773 16.346 0 11.431 4.45 22.185 12.541 30.288 8.095 8.082 18.849 12.532 30.279 12.532h12.89v-32.26c0-40.727-33.134-73.86-73.86-73.86h-36.199c-4.219 0-7.65-3.427-7.65-7.64 0-23.633-9.204-45.852-25.915-62.562-16.705-16.714-38.921-25.919-62.556-25.919-23.638 0-45.854 9.205-62.553 25.917-16.714 16.712-25.918 38.931-25.918 62.563v52.64h20c30.713 0 55.7-24.987 55.7-55.7 0-6.74 2.626-13.078 7.394-17.846s11.105-7.394 17.847-7.394 13.079 2.626 17.847 7.394 7.394 11.105 7.394 17.846v54.36h15v-54.36c0-10.747-4.186-20.853-11.786-28.453s-17.706-11.786-28.454-11.786-20.853 4.186-28.454 11.786c-7.601 7.601-11.786 17.706-11.786 28.453 0 22.442-18.258 40.7-40.7 40.7h-5v-37.64c0-19.626 7.644-38.077 21.526-51.958 13.868-13.879 32.315-21.522 51.944-21.522 19.628 0 38.075 7.644 51.947 21.524 13.879 13.878 21.522 32.33 21.522 51.956 0 12.483 10.161 22.64 22.65 22.64h36.199c32.456 0 58.86 26.404 58.86 58.86v17.182c-6.635-.494-12.809-3.315-17.562-8.061-5.254-5.263-8.147-12.253-8.147-19.682 0-10.18-3.966-19.752-11.166-26.953-7.202-7.201-16.774-11.167-26.954-11.167-21.02 0-38.12 17.101-38.12 38.12v112.641h15v-13.359c39.564 2.227 69.157 8.538 86.649 15.525-1.924.498-3.946.994-6.078 1.487-29.459 6.809-68.745 10.558-110.621 10.558-41.872 0-81.154-3.749-110.612-10.558-2.186-.505-4.254-1.014-6.222-1.525 17.926-7.231 46.863-12.748 80.364-15.079v12.952h15v-117.28h-15v59.056c-33.31 1.88-129.851 10.188-129.851 43.225 0 1.232.137 2.438.394 3.621-.335 9.752 3.978 18.51 7.562 25.754 2.159 4.363 4.846 9.794 4.345 12.093-.723 3.327-5.375 11.575-10.301 20.307-5.334 9.457-11.686 20.727-17.477 33.13-2.125-2.364-3.307-3.737-3.371-3.811l-6.688-7.803-5.392 8.747c-.678 1.1-14.715 24.629-5.469 67.749-10.834-8.453-16.839-19.121-16.914-19.257l-6.35-11.601-6.696 11.403c-1.111 1.892-27.206 47.1-26.523 113.424l15-.154c-.451-43.766 11.814-78.216 19.144-94.823 6.561 7.951 17.222 18.114 31.742 23.136l14.288 4.942-4.71-14.367c-9.756-29.754-7.506-50.842-4.51-62.363 13.219 14.329 40.676 42.448 71.918 64.911l4.948 3.558 4.494-4.116c10.931-10.008 16.426-21.424 16.334-33.932-.085-11.649-5.14-21.925-10.218-29.327 19.49-.253 53.437 3.479 65.346 30.522 6.385 14.504 15.409 26.479 26.843 35.673-1.522 13.841-4.726 22.081-7.743 26.938-8.789-26.952-39.048-50.054-40.545-51.184l-10.861-8.174-1.132 13.558c-.019.225-1.851 20.335-15.996 48.864-6.472-8.37-13.112-13.742-13.5-14.052l-2.227-1.785-2.85.147c-2.899.15-28.306 3.163-27.678 62.031l15-.16c-.324-30.337 6.806-42.226 11.488-45.748 3.653 3.476 9.715 9.927 13.686 17.753l6.299 12.415 6.902-12.09c12.615-22.093 18.608-40.766 21.42-52.594 11.916 11.176 27.368 29.271 27.368 45.062v8.927l8.793-1.539c2.721-.477 26.602-6.291 27.455-63.071.339-22.575 24.73-33.846 39.736-38.647-.527 3.629-.843 7.799-.636 12.237.614 13.201 5.952 31.281 27.892 42.444 40.673 20.694 54.458 39.58 54.568 39.733l7.037 10.094 5.747-10.88c9.284-17.577 8.413-39.557 6.684-52.723 14.422 4.53 40.97 18.289 55.783 59.542l5.463 15.213 8.089-13.995c4.11-7.11 6.712-13.382 8.356-18.551 6.037 8.353 12.744 23.002 11.488 46.091l14.979.814c2.667-49.008-25.916-67.801-27.135-68.576zm-195.299-198.894v-15.147c33.92 1.52 64.799 5.602 87.615 11.627 27.48 7.257 33.665 14.823 33.665 16.902 0 1.562-3.18 5.745-14.576 10.594-18.585-12.378-58.311-21.323-106.704-23.976zm-149.663-2.992c21.468-5.897 50.761-10.05 83.144-11.834v15.222c-45.948 3.077-82.522 11.693-100.278 23.58-8.565-3.645-12.487-6.912-13.905-8.973.005-.026.007-.052.013-.078l-.079-.017c-.422-.637-.602-1.155-.602-1.524 0-1.989 5.825-9.265 31.707-16.376z"/></g></g><g/><g/><g/><g/><g/><g/><g/><g/><g/><g/><g/><g/><g/><g/><g/></svg>