<svg id="Layer_1" enable-background="new 0 0 512 512" viewBox="0 0 512 512" xmlns="http://www.w3.org/2000/svg"><g><g><path d="m256 7.5c-137.243 0-248.5 111.257-248.5 248.5s111.257 248.5 248.5 248.5 248.5-111.257 248.5-248.5-111.257-248.5-248.5-248.5zm0 453.5c-113.218 0-205-91.782-205-205s91.782-205 205-205 205 91.782 205 205-91.782 205-205 205z" fill="#ff6a47"/><path d="m110.389 110.389 129.301 43.847 109.423-81.657-1.745 136.522 111.474 78.834-130.379 40.528-40.528 130.379-78.834-111.474-136.522 1.745 81.657-109.423z" fill="#ff6a47"/><path d="m349.113 72.579-109.423 81.657-129.301-43.847 43.847 129.301-81.657 109.423 136.522-1.745-86.19-23.9 59.222-79.36-31.8-93.775 93.775 31.801z" fill="#fd3501"/></g><g fill="#fff"><path d="m233.5 248.5h15v15h-15z"/><path d="m263.5 248.5h15v15h-15z"/></g><g><path d="m256 468.5c117.173 0 212.5-95.327 212.5-212.5s-95.327-212.5-212.5-212.5-212.5 95.327-212.5 212.5 95.327 212.5 212.5 212.5zm-91.978-227.99 77.118-77.117 97.069 49.459-16.349 109.064-108.509 17.186zm33.017 99.512-109.36 1.398 65.885-88.289zm120.68-2.264-32.436 104.346-63.093-89.215zm-18.806 111.033 35.541-114.336 114.336-35.541c-16.574 74.514-75.362 133.302-149.877 149.877zm57.529-362.777c58.052 34.432 97.058 97.735 97.058 169.986 0 6.192-.301 12.314-.861 18.362l-97.721-69.108zm85.662 199.269-104.452 32.469 14.412-96.145zm-102.082-88.343-86.177-43.909 87.574-65.353zm-84.022-138.44c27.665 0 54.015 5.728 77.94 16.044l-95.576 71.323-112.62-38.191c34.794-30.593 80.393-49.176 130.256-49.176zm-30.145 98.964-68.391 68.391-35.092-103.483zm-167.355 98.536c0-49.864 18.583-95.462 49.177-130.257l38.19 112.621-71.323 95.576c-10.316-23.925-16.044-50.274-16.044-77.94zm146.754 98.918 69.108 97.721c-6.048.56-12.17.861-18.362.861-72.251 0-135.553-39.006-169.986-97.058z"/><path d="m256 497c-132.888 0-241-108.112-241-241 0-61.649 23.269-120.314 65.521-165.188l-10.921-10.284c-44.882 47.668-69.6 109.986-69.6 175.472 0 68.379 26.629 132.666 74.981 181.019 48.353 48.352 112.64 74.981 181.019 74.981 65.486 0 127.803-24.718 175.471-69.599l-10.282-10.922c-44.875 42.252-103.54 65.521-165.189 65.521z"/><path d="m437.019 74.981c-48.353-48.352-112.64-74.981-181.019-74.981-65.486 0-127.803 24.718-175.471 69.599l10.282 10.922c44.875-42.252 103.54-65.521 165.189-65.521 132.888 0 241 108.112 241 241 0 61.649-23.269 120.314-65.521 165.188l10.921 10.283c44.882-47.667 69.6-109.985 69.6-175.471 0-68.379-26.629-132.666-74.981-181.019z"/></g></g><g/><g/><g/><g/><g/><g/><g/><g/><g/><g/><g/><g/><g/><g/><g/></svg>