<svg id="Layer_1" enable-background="new 0 0 512.408 512.408" viewBox="0 0 512.408 512.408" xmlns="http://www.w3.org/2000/svg"><g><g><path d="m113.447 412.294v-214.765c0-78.522 63.655-142.176 142.176-142.176 78.522 0 142.176 63.655 142.176 142.176v214.765z" fill="#fde31d"/><path d="m268.124 55.906c-4.12-.359-8.287-.553-12.5-.553-78.522 0-142.176 63.654-142.176 142.176v214.765h25v-214.765c0-74.309 57.01-135.292 129.676-141.623z" fill="#e7c900"/><path d="m90.153 512c0-83.317 15.446-224.759 122.063-240h86.816c106.617 15.241 122.063 165.977 122.063 240z" fill="#58565b"/><path d="m237.216 272h-25c-106.617 15.241-122.063 156.683-122.063 240h25c0-83.317 15.446-224.759 122.063-240z" fill="#474549"/><path d="m314.536 110.086c0 11.642 11.197 19.969 22.369 16.696 30.666-8.984 48.556-35.235 34.724-65.687-16.182-35.624.877-53.595.877-53.595s-54.471 0-36.766 42.262c11.381 27.168 7.48 38.97-7.404 42.407-8.013 1.851-13.801 8.808-13.801 17.032v.885z" fill="#bcbcc0"/><path d="m186.371 110.086c0 11.642-11.197 19.969-22.369 16.696-30.666-8.984-48.556-35.235-34.724-65.687 16.182-35.624-.877-53.595-.877-53.595s54.471 0 36.766 42.262c-11.381 27.168-7.48 38.97 7.404 42.407 8.013 1.851 13.8 8.808 13.8 17.032z" fill="#bcbcc0"/><path d="m182.778 280.226-40.389-33.579c33.227-45.842 193.708-46.175 226.471 0l-42.688 33.579z" fill="#58565b"/><path d="m212.216 272c-10.712 1.531-20.489 4.356-29.438 8.249.01 106.64 71.696 151.81 71.696 151.81s71.697-40.059 71.697-151.833v-.746c-8.318-3.525-17.34-6.079-27.139-7.48z" fill="#ffdaaa"/><g><path d="m180.024 221.134c0 15.545 7.598 29.926 19.968 37.793 0 0 40.533 27.431 55.861 27.386 15.117-.044 54.958-27.33 54.958-27.33 12.205-7.913 19.676-22.193 19.676-37.606v-19.631c-67.511 0-126.072-56.436-126.072-56.436-13.471 0-24.391 11.835-24.392 26.435z" fill="#ffdaaa"/></g><path d="m504.169 512c3.309-60.689-31.868-83.047-31.868-83.047s.507 16.021-13.663 40.478c-30.485-84.699-97.168-89.513-97.168-89.513s11.823 46.643-5.337 79.055c0 0-18.852-26.979-77.151-56.572-48.794-24.768-27.478-78.401-27.478-78.401s-76.573 13.039-77.366 65.695c-1.056 70.116-28.6 74.926-28.6 74.926 0-39.086-61.855-84.797-61.855-84.797s5.383 36.537-22.588 85.412c-9.126-17.944-10.589-40.236-10.589-40.236s-43.244 15.333-42.478 87z" fill="#ff6a47"/><path d="m224.992 255.927c-12.37-7.868-19.968-22.249-19.968-37.793v-49.388c0-6.709 2.311-12.831 6.111-17.492-4.342-3.654-6.719-5.943-6.719-5.943-13.471 0-24.391 11.835-24.392 26.435v49.388c0 15.544 7.598 29.926 19.968 37.793 0 0 40.533 27.43 55.861 27.386 4.03-.012 9.817-1.96 16.137-4.81-18.229-6.107-46.998-25.576-46.998-25.576z" fill="#ffb680"/><g fill="#fd3501"><path d="m170.538 464.621s27.544-4.81 28.6-74.926c.473-31.398 27.888-48.707 49.948-57.568 1.191-5.034 2.418-8.127 2.418-8.127s-76.573 13.039-77.366 65.695c-.382 25.353-4.227 42.164-8.981 53.3 3.336 7.218 5.381 14.531 5.381 21.626z"/><path d="m362.823 440.413c13.177 11.22 18.31 18.561 18.31 18.561 12.926-24.414 9.407-56.899 6.884-71.446-15.331-6.795-26.547-7.609-26.547-7.609s7.94 31.341 1.353 60.494z"/><path d="m53.244 442.523c-2.235-9.908-2.738-17.523-2.738-17.523s-43.244 15.333-42.478 87h25c-.374-35.013 9.756-56.575 20.216-69.477z"/><path d="m76.264 431.732c1.133 7.979 3.818 21.683 9.83 33.503 14.953-26.129 20.371-48.724 22.178-64.103-13.085-12.804-24.589-21.309-24.589-21.309s3.05 20.76-7.419 51.909z"/></g></g><g fill="#fff"><path d="m221.064 453.5h15v15h-15z"/><path d="m251.064 453.5h15v15h-15z"/></g><g><path d="m120.944 197.53c0-25.978 7.325-50.89 21.21-72.533 5.828 3.798 12.474 6.854 19.739 8.983 2.353.689 4.742 1.028 7.109 1.028 5.311 0 10.506-1.708 14.903-5.002 6.334-4.744 9.967-12.005 9.967-19.92v-.885c0-9.886-5.806-18.565-14.604-22.61 22.356-15.38 49.026-23.741 76.356-23.741 26.196 0 51.225 7.41 72.954 21.474-.579.191-1.214.373-1.929.538-11.548 2.667-19.613 12.676-19.613 24.34v.885c0 7.915 3.633 15.176 9.967 19.92 4.397 3.294 9.592 5.002 14.903 5.002 2.367 0 4.756-.339 7.109-1.028 10.314-3.022 19.384-7.909 26.62-14.15 16.166 22.756 24.669 49.446 24.669 77.7v68.18h15v-68.18c0-32.093-10.437-63.536-29.49-89.192 1.396-2.117 2.644-4.308 3.687-6.584 6.188-13.503 5.828-28.636-1.042-43.76-13.415-29.534-1.438-44.257-.479-45.363l12.726-12.632h-18.2c-3.174 0-31.347.508-43.042 18.087-6.158 9.257-6.374 20.889-.641 34.572 3.202 7.644 4.828 13.329 5.538 17.55-23.601-14.663-50.567-22.359-78.737-22.359-32.243 0-63.661 10.472-89.395 29.634-.54-3.999.231-11.395 5.856-24.824 5.733-13.684 5.517-25.315-.641-34.572-11.696-17.58-39.869-18.088-43.043-18.088h-17.46l12.021 12.663c.136.144 13.197 15.15-.512 45.331-6.87 15.124-7.23 30.257-1.042 43.76 2.242 4.892 5.344 9.431 9.146 13.531-16.118 24.432-24.609 52.728-24.609 82.245v23.609h15v-23.609zm226.22-110.206c4.671-9.114 3.239-21.971-4.506-40.461-3.667-8.754-3.909-15.633-.719-20.447 3.469-5.236 10.694-8.188 17.488-9.771-3.21 10.383-4.27 26.324 5.373 47.553 5.019 11.049 5.386 21.874 1.063 31.308-5.039 10.995-16.362 19.771-31.067 24.08-3.057.895-6.264.316-8.801-1.584-2.516-1.886-3.959-4.771-3.959-7.915v-.885c0-4.64 3.285-8.639 7.989-9.725 8.213-1.897 13.979-5.986 17.139-12.153zm-211.057-23.127c9.643-21.229 8.584-37.169 5.374-47.552 6.795 1.584 14.02 4.536 17.488 9.771 3.19 4.814 2.948 11.693-.719 20.448-7.746 18.488-9.178 31.345-4.507 40.46 3.16 6.167 8.927 10.256 17.141 12.152 4.703 1.086 7.988 5.085 7.988 9.725v.885c0 3.145-1.443 6.029-3.959 7.915-2.54 1.9-5.749 2.479-8.801 1.584-14.705-4.309-26.029-13.085-31.067-24.08-4.324-9.434-3.957-20.259 1.062-31.308z"/><path d="m476.324 422.623-11.97-7.671.449 14.173c.001.109.032 8.481-5.521 22.113-12.661-27.323-29.12-44.944-43.944-56.196-2.898-11.55-6.245-22.399-10.033-32.518v-81.814h-15v49.456c-3.763-6.58-7.781-12.699-12.061-18.323-10.885-14.306-23.426-25.501-37.512-33.523l38.379-30.188-4.128-5.821c-7.25-10.223-19.692-18.621-36.995-25.017v-23.049h-7.5c-63.604 0-120.306-53.796-120.867-54.336l-2.179-2.1h-3.026c-17.585 0-31.892 15.224-31.892 33.936v45.997c-16.829 6.334-29.008 14.561-36.214 24.507l-4.116 5.683 36.961 30.729c-13.563 7.667-25.64 18.146-36.123 31.395-4.294 5.427-8.322 11.339-12.088 17.707v-91.623h-15v123.032c-2.77 7.216-5.303 14.814-7.587 22.795-5.653-4.774-9.592-7.713-10.217-8.175l-14.346-10.576 2.465 17.672c.042.307 3.574 27.763-14.151 66.074-3.362-11.867-4.107-22.311-4.117-22.453l-.649-9.89-9.342 3.313c-1.972.699-48.285 17.999-47.472 94.148l14.999-.16c-.491-45.928 17.743-66.564 28.972-74.901 1.49 8.635 4.393 20.768 9.911 31.617l6.296 12.379 6.898-12.054c17.703-30.935 22.627-57.2 23.729-73.294 19.26 16.751 46.705 45.71 46.705 68.954v8.924l8.791-1.536c3.445-.602 33.692-8.02 34.809-82.201.513-34.038 39.232-49.692 59.322-55.528-1.06 5.543-1.856 12.464-1.506 19.982.796 17.049 7.71 40.399 36.133 54.827 55.479 28.163 74.233 53.949 74.398 54.181l7.032 10.063 5.744-10.85c13.141-24.82 10.757-56.475 8.179-73.099 18.729 5.086 59.109 22.762 80.642 82.587l5.461 15.174 8.085-13.954c6.77-11.686 10.422-21.696 12.39-29.248 9.037 10.637 21.118 31.79 19.163 67.648l14.978.816c3.506-64.332-33.748-88.774-35.335-89.784zm-139.601-189.729c8.969 3.688 16.162 7.996 21.284 12.755l-32.42 25.502c-4.285-1.647-8.693-3.034-13.217-4.168 1.073-.717 1.957-1.317 2.603-1.759 11.078-7.216 18.856-19.031 21.75-32.33zm-149.199-61.148c0-9.42 6.167-17.255 14.213-18.697 11.767 10.6 61.942 52.62 121.25 55.983v12.345c0 12.813-6.229 24.812-16.256 31.313l-.158.105c-15.752 10.788-41.909 25.992-50.742 26.018h-.022c-8.989 0-35.584-15.255-51.614-26.099l-.178-.116c-10.173-6.471-16.493-18.527-16.493-31.465zm-34.382 74.096c5.041-4.652 12.065-8.882 20.788-12.527 3.032 13.17 10.862 24.795 21.944 31.88.675.456 1.598 1.075 2.727 1.82-4.978 1.23-9.811 2.753-14.493 4.569zm13.497 143.739c-.57 37.811-8.968 54.711-15.379 62.128-5.81-21.91-24.757-43.604-40.406-58.527 12.865-49.606 34.56-83.362 64.736-100.877.979 19.252 4.305 37.704 9.942 55.047-12.203 11.945-18.652 26.227-18.893 42.229zm115.737 6.133c-41.979-21.31-24.654-67.025-23.903-68.943l4.93-12.404-13.159 2.24c-.828.141-20.506 3.57-40.542 13.817-4.156 2.126-8.018 4.394-11.591 6.791-4.759-16.372-7.37-33.779-7.776-51.942 7.083-2.683 14.555-4.613 22.42-5.773h6.216c12.808 7.227 27.696 14.314 36.852 14.313h.051c9.033-.026 23.704-7.103 36.325-14.313h6.293c7.023 1.038 13.727 2.747 20.133 5.077-.942 53.761-19.216 89.57-36.036 111.246-.072-.037-.141-.073-.213-.109zm79.634-23.276-10.363-.748 2.553 10.071c.099.389 8.626 34.861-.362 63.248-9.382-9.528-27.364-25.069-57.827-42.045 17.15-22.826 35.157-58.99 37.418-111.577 28.249 16.06 49.367 46.806 63.091 91.872-18.999-9.595-33.828-10.772-34.51-10.821z"/></g></g><g/><g/><g/><g/><g/><g/><g/><g/><g/><g/><g/><g/><g/><g/><g/></svg>