<svg id="Layer_1" enable-background="new 0 0 512 512" viewBox="0 0 512 512" xmlns="http://www.w3.org/2000/svg"><g><g><path d="m306 416v88.5h-100v-88.5h-168.5v-100h168.5v-308.5h100v308.5h168.5v100z" fill="#876c3e"/><g fill="#6e5732"><path d="m37.5 316h30v100h-30z"/><path d="m206 7.5h30v315.5h-30z"/><path d="m206 407h30v97.5h-30z"/></g></g><g fill="#fff"><path d="m248.5 342.677h15v15h-15z"/><path d="m248.5 372.677h15v15h-15z"/></g><g><path d="m313.5 308.5v-308.5h-115v167.74h15v-152.74h85v308.5h168.5v85h-65.18v15h80.18v-115z"/><path d="m298.5 497h-85v-88.5h-168.5v-85h168.5v-140.76h-15v125.76h-168.5v115h168.5v88.5h115v-88.5h73.32v-15h-88.32z"/></g></g><g/><g/><g/><g/><g/><g/><g/><g/><g/><g/><g/><g/><g/><g/><g/></svg>