<svg id="Layer_1" enable-background="new 0 0 511 511" viewBox="0 0 511 511" xmlns="http://www.w3.org/2000/svg"><g><g><path d="m7.5 80.5v360h218c6.336 7.604 15.723 12 25.62 12h8.759c9.898 0 19.284-4.396 25.62-12h218v-360z" fill="#ff6a47"/><g><path d="m255.5 407.5h216v-349h-176c-22.091 0-40 17.909-40 40z" fill="#fff"/><path d="m320.5 58.5h-25c-22.091 0-40 17.909-40 40v309h25v-309c0-22.091 17.909-40 40-40z" fill="#e3e9ee"/><path d="m39.5 58.5h176c22.091 0 40 17.909 40 40v309h-216z" fill="#fff"/><path d="m39.5 58.5h25v349h-25z" fill="#e3e9ee"/></g><path d="m7.5 80.5h25v360h-25z" fill="#fd3501"/><circle cx="255.5" cy="218.442" fill="#fde31d" r="110"/></g><g fill="#fff"><path d="m233 208h15v15h-15z"/><path d="m263 208h15v15h-15z"/></g><g><path d="m479 73v-22h-183.5c-16.782 0-31.548 8.756-40 21.932-8.452-13.176-23.218-21.932-40-21.932h-115.38v15h115.38c17.921 0 32.5 14.579 32.5 32.5v2.688c-61.308 3.882-110 54.984-110 117.254s48.692 113.372 110 117.254v35.21c-8.504-7.993-19.936-12.906-32.5-12.906h-168.5v-292h38.12v-15h-53.12v22h-32v375h222.197c3.358 3.373 7.247 6.104 11.597 8.139 5.381 2.526 11.373 3.861 17.326 3.861h8.76c10.929 0 21.28-4.333 28.921-12h132.319v-15h-139.131l-2.248 2.695c-4.934 5.913-12.172 9.305-19.861 9.305h-8.76c-3.765 0-7.553-.844-10.961-2.443-3.457-1.618-6.451-3.926-8.9-6.861l-2.248-2.696h-214.011v-345h17v327h447v-327h17v345h-59.88v15h74.88v-375zm-432 327v-27h168.5c16.046 0 29.403 11.691 32.025 27zm208.5-284.058c12.195 0 23.897 2.145 34.755 6.07l-44.832 33.455-52.811-17.908c17.374-13.539 39.205-21.617 62.888-21.617zm92.104 116.985-44.032 13.687 6.075-40.531zm-35.528-43.497.715-55.943c27.257 18.44 45.209 49.641 45.209 84.955 0 1.145-.026 2.284-.063 3.421zm41.982 57.199c-9.709 33.898-36.473 60.663-70.371 70.371l16.687-53.685zm-143.682-35.812 37.823-37.824 47.605 24.256-8.023 53.527-53.195 8.426zm7.897 49.306-46.094.589 27.77-37.212zm78.909-79.007-36.278-18.484 36.866-27.511zm-64.269-14.051-28.79 28.791-14.772-43.562zm-79.913 51.377c0-23.683 8.077-45.514 21.617-62.889l17.909 52.812-33.456 44.832c-3.925-10.858-6.07-22.56-6.07-34.755zm95 102.225c-32.205-2.34-60.332-19.623-77.455-44.933l55.944-.715 21.511 30.418zm-4.576-47.678 40.215-6.37-13.655 43.927zm220.576 127.011h-200.525c2.622-15.309 15.979-27 32.025-27h168.5zm0-42h-168.5c-12.564 0-23.996 4.913-32.5 12.906v-35.21c61.308-3.882 110-54.984 110-117.254s-48.692-113.372-110-117.254v-2.688c0-17.921 14.579-32.5 32.5-32.5h168.5z"/></g></g><g/><g/><g/><g/><g/><g/><g/><g/><g/><g/><g/><g/><g/><g/><g/></svg>