<svg id="Layer_1" enable-background="new 0 0 513.178 513.178" viewBox="0 0 513.178 513.178" xmlns="http://www.w3.org/2000/svg"><g><g><path d="m255.987 15.489-242.5 390.412h485z" fill="#8ad8f6"/><path d="m279.093 52.688-23.106-37.199-242.5 390.412h46.212z" fill="#54c9f3"/><g><path d="m362.952 288.167s-47.89 65-106.965 65-106.965-65-106.965-65 47.89-65 106.965-65 106.965 65 106.965 65z" fill="#fff"/><circle cx="255.987" cy="288.167" fill="#ff6a47" r="37.143"/><path d="m243.844 288.167c0-16.127 10.28-29.847 24.643-34.98-3.907-1.396-8.113-2.162-12.5-2.162-20.513 0-37.143 16.629-37.143 37.143s16.629 37.143 37.143 37.143c4.387 0 8.593-.766 12.5-2.162-14.362-5.135-24.643-18.856-24.643-34.982z" fill="#fd3501"/><path d="m180.046 288.167s19.752-37.602 48.738-60.581c-45.899 14.627-79.761 60.581-79.761 60.581s33.862 45.954 79.761 60.581c-28.986-22.979-48.738-60.581-48.738-60.581z" fill="#e3e9ee"/></g></g><g fill="#fff"><path d="m248.487 125.872h15v15h-15z"/><path d="m248.487 155.872h15v15h-15z"/></g><g><path d="m0 413.401h81.877v-15h-54.902l229.012-368.696 229.013 368.696h-54.902v15h81.877l-255.988-412.124z"/><path d="m96.877 398.401h318.221v15h-318.221z"/><path d="m255.987 360.667c62.15 0 110.956-65.272 113.003-68.052l3.277-4.448-3.277-4.448c-2.047-2.779-50.853-68.052-113.003-68.052s-110.956 65.272-113.003 68.052l-3.277 4.448 3.277 4.448c2.047 2.779 50.853 68.052 113.003 68.052zm0-130c45.815 0 85.574 43.304 97.378 57.506-11.786 14.21-51.465 57.494-97.378 57.494-45.815 0-85.576-43.307-97.379-57.505 11.788-14.211 51.466-57.495 97.379-57.495z"/><path d="m255.987 332.809c24.616 0 44.643-20.026 44.643-44.643s-20.026-44.643-44.643-44.643-44.643 20.026-44.643 44.643 20.027 44.643 44.643 44.643zm0-74.285c16.345 0 29.643 13.298 29.643 29.643s-13.298 29.643-29.643 29.643-29.643-13.298-29.643-29.643 13.299-29.643 29.643-29.643z"/><path d="m27.564 194.563h15.001v73.107h-15.001z" transform="matrix(.559 -.829 .829 .559 -176.21 131.077)"/><path d="m66.857 136.23h15.001v73.107h-15.001z" transform="matrix(.559 -.829 .829 .559 -110.488 137.924)"/><path d="m106.151 77.897h15.001v73.107h-15.001z" transform="matrix(.559 -.829 .829 .559 -44.767 144.77)"/><path d="m145.445 19.563h15.001v73.108h-15.001z" transform="matrix(.559 -.829 .829 .559 20.954 151.614)"/><path d="m442.117 223.616h73.107v15.001h-73.107z" transform="matrix(.829 -.559 .559 .829 -47.451 306.858)"/><path d="m402.823 165.283h73.107v15.001h-73.107z" transform="matrix(.829 -.559 .559 .829 -21.566 274.952)"/><path d="m363.529 106.95h73.107v15.001h-73.107z" transform="matrix(.829 -.559 .559 .829 4.32 243.047)"/><path d="m324.235 48.617h73.108v15.001h-73.108z" transform="matrix(.829 -.559 .559 .829 30.207 211.144)"/><path d="m184.056 430.548h15v51.353h-15z"/><path d="m248.487 430.548h15v81.353h-15z"/><path d="m312.919 430.548h15v51.353h-15z"/></g></g><g/><g/><g/><g/><g/><g/><g/><g/><g/><g/><g/><g/><g/><g/><g/></svg>