<svg id="Layer_1" enable-background="new 0 0 512.248 512.248" viewBox="0 0 512.248 512.248" xmlns="http://www.w3.org/2000/svg"><g><g><g fill="#bcbcc0"><path d="m320.314 110.245c0 11.642 11.197 19.969 22.369 16.696 30.666-8.984 48.556-35.235 34.724-65.687-16.182-35.625.877-53.595.877-53.595s-54.471 0-36.766 42.262c11.381 27.168 7.48 38.97-7.404 42.407-8.013 1.851-13.8 8.808-13.8 17.032z"/><path d="m192.149 110.245c0 11.642-11.197 19.969-22.369 16.696-30.666-8.984-48.556-35.235-34.724-65.687 16.182-35.625-.877-53.595-.877-53.595s54.471 0 36.766 42.262c-11.381 27.168-7.48 38.97 7.404 42.407 8.013 1.851 13.8 8.808 13.8 17.032z"/></g><path d="m106.232 227.659v277h60v-277c0-49.706 40.294-90 90-90 49.706 0 90 40.294 90 90v277h60v-277c0-82.843-67.157-150-150-150-82.843 0-150 67.157-150 150z" fill="#876c3e"/><g fill="#6e5732"><path d="m281.232 137.659c-4.242 0-8.414.3-12.5.868 43.788 6.085 77.5 43.668 77.5 89.132v277h25v-277c0-49.705-40.295-90-90-90z"/><path d="m268.732 78.182c-4.122-.34-8.29-.522-12.5-.522-82.843 0-150 67.157-150 150v277h25v-277c0-78.633 60.507-143.125 137.5-149.478z"/></g><path d="m245.625 182.553-48.787-48.787c-5.858-5.858-5.858-15.355 0-21.213l48.787-48.787c5.858-5.858 15.355-5.858 21.213 0l48.787 48.787c5.858 5.858 5.858 15.355 0 21.213l-48.787 48.787c-5.858 5.857-15.355 5.857-21.213 0z" fill="#fde31d"/><path d="m504.512 512.159c0-57.868-31.908-75.018-31.908-75.018s.508 14.472-13.68 36.565c-11.81-73.488-52.692-79.832-52.692-79.832s-19.824 45.167-60 69.873c0 0-8.819-23.858-67.191-50.59-48.855-22.374-27.512-70.821-27.512-70.821s-56.669 11.778-57.463 59.343c-1.057 63.337-48.636 67.682-48.636 67.682 0-35.307-53.822-71.859-53.822-71.859s-2.806 32.336-30.812 76.486c-15.328-10.277-13.916-32.54-13.916-32.54s-39.9 5.973-39.133 70.711z" fill="#ff6a47"/><path d="m221.838 133.766c-5.858-5.858-5.858-15.355 0-21.213l46.893-46.893-1.893-1.894c-5.858-5.858-15.355-5.858-21.213 0l-48.787 48.787c-5.858 5.858-5.858 15.355 0 21.213l48.787 48.787c5.858 5.858 15.355 5.858 21.213 0l1.893-1.893z" fill="#e7c900"/><g fill="#fd3501"><path d="m219.062 402.096c2.169-27.29 28.022-53.719 32.466-59.76 0 0-56.669 11.778-57.463 59.343-.545 32.649-13.452 49.622-25.831 58.406 22.432-9.054 48.023-22.705 50.828-57.989z"/><path d="m107.593 410.021c-8.967-7.752-15.986-12.519-15.986-12.519s-2.806 32.336-30.812 76.486c28.108-.258 40.28-38.028 46.798-63.967z"/><path d="m50.64 461.575c-4.409-9.824-3.761-20.128-3.761-20.128s-39.899 5.974-39.132 70.712h31c-.286-24.097 5.065-40.048 11.893-50.584z"/><path d="m426.488 404.759c-10.986-9.44-20.256-10.885-20.256-10.885s-19.824 45.167-60 69.873c40.93 0 66.287-36.571 80.256-58.988z"/></g><path d="m35.424 487.159c.198-.724.405-1.424.62-2.1.597.708 1.221 1.411 1.868 2.1z" fill="#ff6a47"/></g><g fill="#fff"><path d="m233.732 115.659h15v15h-15z"/><path d="m263.732 115.659h15v15h-15z"/></g><g><path d="m476.154 430.535-11.507-6.271.458 13.052c0 .082-.001 5.366-3.302 14.279-12.436-44.62-36.562-58.908-48.072-63.295v-43.72h-15v47.629c-3.159 6.57-18.28 35.968-45 57.117v-221.667c0-26.056-10.142-50.541-28.556-68.942-4.013-4.014-8.361-7.661-12.987-10.908l8.74-8.74c4.25-4.25 6.59-9.9 6.59-15.91s-2.341-11.66-6.59-15.91l-12.096-12.096c53.414 21.116 89.9 73.099 89.9 132.507v101.92h15v-101.92c0-41.231-15.909-79.222-42.362-107.567 7.496-6.44 12.906-14.273 15.825-23.031 4.074-12.227 3.053-25.679-2.955-38.904-13.422-29.538-1.445-44.26-.487-45.365l12.73-12.632h-18.202c-3.174 0-31.347.508-43.04 18.086-6.157 9.257-6.372 20.889-.638 34.571 7.533 17.985 6.361 25.152 4.992 27.824-.68 1.326-2.163 3.224-7.181 4.383-1.835.426-3.626 1.064-5.327 1.881-12.496-6.279-26-10.958-40.268-13.764l-14.679-14.679c-8.772-8.771-23.047-8.771-31.819 0l-14.701 14.701c-14.07 2.77-27.553 7.406-40.176 13.764-1.708-.826-3.512-1.467-5.404-1.907-5.009-1.157-6.492-3.055-7.172-4.381-1.369-2.672-2.541-9.839 4.991-27.823 5.735-13.684 5.521-25.315-.637-34.572-11.693-17.578-39.866-18.086-43.04-18.086l-18.358-.159 12.886 12.791c.958 1.105 12.935 15.827-.487 45.366-6.007 13.225-7.028 26.677-2.954 38.903 2.927 8.783 8.36 16.635 15.889 23.085-27.395 29.263-42.426 67.228-42.426 107.513v19.93h15v-19.93c0-38.065 14.824-73.848 41.745-100.758 13.885-13.892 30.212-24.598 48.107-31.701l-12.049 12.049c-4.25 4.25-6.59 9.9-6.59 15.91s2.341 11.66 6.59 15.91l8.737 8.737c-25.841 18.136-41.54 47.916-41.54 79.853v229.535c-2.455 1.311-4.771 2.272-6.784 2.96-4.495-21.542-23.53-41.839-38.216-54.75v-142.814h-15v130.77c-1.597-1.162-2.632-1.872-2.911-2.062l-10.517-7.121-1.167 12.657c-.026.288-2.756 27.418-24.792 65.122-5.535-8.531-4.988-19.912-4.981-20.033l.588-9.267-9.184 1.375c-1.265.189-12.683 2.166-23.965 13.114-10.069 9.771-21.983 28.996-21.555 65.104l14.999-.178c-.469-39.594 14.994-54.591 24.845-60.12 1.42 8.793 5.44 20.833 16.527 28.267l6.389 4.284 4.121-6.496c18.508-29.178 26.387-53.396 29.678-67.265 16.582 13.323 41.123 37.586 41.123 58.62v8.216l8.182-.747c.572-.052 14.164-1.396 27.734-11.554 12.315-9.22 27.122-27.716 27.719-63.472.282-16.895 8.744-30.706 25.151-41.051 4.799-3.026 9.634-5.325 13.829-7.022-.833 4.647-1.374 10.133-1.07 16.014.811 15.673 7.792 37.11 36.444 50.232 52.213 23.91 62.673 45.073 63.302 46.441l2.824 8.709 8.116-4.991c33.153-20.387 52.842-53.445 59.943-67.104 3.52 1.565 8.506 4.427 13.822 9.521 9.477 9.084 21.958 27.272 27.593 62.343l3.113 19.372 10.603-16.51c6.81-10.603 10.513-19.642 12.521-26.514 8.207 9.11 19.257 27.569 19.257 60.914h15c-.001-61.641-34.395-80.835-35.859-81.622zm-127.715-383.514c-3.668-8.754-3.911-15.633-.721-20.447 3.468-5.234 10.693-8.186 17.486-9.77-3.21 10.384-4.268 26.325 5.38 47.557 7.859 17.302 4.082 33.84-10.003 45.218-5.268-4.66-10.863-8.973-16.746-12.908 4.055-2.21 7.108-5.281 9.111-9.189 4.669-9.114 3.238-21.97-4.507-40.461zm-196.469 62.625c-14.154-11.38-17.965-27.948-10.09-45.284 9.647-21.231 8.59-37.174 5.38-47.558 6.795 1.584 14.018 4.536 17.486 9.77 3.19 4.814 2.947 11.693-.722 20.448-7.744 18.49-9.176 31.347-4.505 40.46 2.013 3.928 5.088 7.009 9.173 9.222-5.831 3.911-11.411 8.237-16.722 12.942zm47.975 13.513c0-2.003.78-3.887 2.197-5.303l48.787-48.787c2.925-2.923 7.683-2.924 10.606 0l48.787 48.787c1.417 1.416 2.197 3.3 2.197 5.303s-.78 3.887-2.197 5.303l-48.787 48.787c-2.924 2.924-7.683 2.924-10.606 0l-48.787-48.787c-1.417-1.416-2.197-3.3-2.197-5.303zm138.787 318.899c-10.332-9.837-27.684-22.492-56.568-35.72-41.394-18.956-24.501-59.292-23.772-60.979l5.873-13.331-14.263 2.965c-.632.131-15.649 3.325-30.874 12.812-20.933 13.044-32.192 31.63-32.562 53.749-.341 20.43-5.887 33.963-12.835 42.929v-216.824c0-27.913 14.173-53.879 37.338-69.055l29.252 29.252c4.386 4.386 10.148 6.579 15.91 6.579s11.523-2.193 15.91-6.579l29.252-29.252c4.736 3.104 9.152 6.695 13.177 10.72 15.581 15.571 24.162 36.288 24.162 58.335z"/></g></g><g/><g/><g/><g/><g/><g/><g/><g/><g/><g/><g/><g/><g/><g/><g/></svg>