<svg id="Layer_1" enable-background="new 0 0 512.251 512.251" viewBox="0 0 512.251 512.251" xmlns="http://www.w3.org/2000/svg"><g><g><path d="m471.136 314.011c-54.754-51.679-136.558-37.427-191.119 21.239v-87.731h157.575l12.903 16.822 47.097-35.995-47.097-35.995-12.903 16.823h-157.575v-52.743h109.723l12.903 16.822 47.097-35.995-47.097-35.995-12.903 16.823h-109.723v-45.733l11.822-12.903-35.995-47.097-35.994 47.096 11.822 12.903v45.733h-109.98l-12.903-16.823-47.097 35.995 47.097 35.995 12.903-16.822h109.981v52.743h-157.834l-12.903-16.823-47.097 35.995 47.097 35.995 12.903-16.822h157.833v87.731c-75.595-87.734-220.678-62.546-223.689 57.92-.499 65.001 52.439 112.502 117.803 111.182 39.147 5.536 107.263-46.89 130.058-79.795 133.686 177.584 326.372 19.643 215.292-110.545zm-355.161 142.489c-45.239 0-59.949-28.355-59.949-63.334 0-34.978 14.71-63.334 59.949-63.334s83.875 63.334 83.875 63.334-38.636 63.334-83.875 63.334zm277.206 0c-45.239 0-83.875-63.334-83.875-63.334s38.636-63.334 83.875-63.334 59.949 28.355 59.949 63.334-14.71 63.334-59.949 63.334z" fill="#58565b"/><g fill="#474549"><path d="m42.983 393.17c1.622-64.913 44.502-102.142 95.527-108.965-64.844-8.429-128.542 29.568-130.527 108.965-.499 65.001 52.439 112.502 117.803 111.182 5.397.763 11.346.42 17.649-.817-57.126-6.58-100.906-51.227-100.452-110.365z"/><path d="m73.839 247.519h.086l-25.086-19.173 25.086-19.172h-.086l-12.903-16.822-47.097 35.994 47.097 35.995z"/><path d="m121.692 156.431h.085l-25.086-19.172 25.086-19.173h-.085l-12.904-16.822-47.097 35.995 47.097 35.994z"/></g></g><g fill="#fff"><path d="m233.345 382.5h15v15h-15z"/><path d="m263.345 382.5h15v15h-15z"/></g><g><path d="m115.975 322.333c-43.495 0-67.448 25.156-67.448 70.834s23.953 70.834 67.448 70.834c48.888 0 88.61-64.195 90.277-66.928l2.383-3.906-2.383-3.906c-1.667-2.733-41.39-66.928-90.277-66.928zm0 126.668c-35.292 0-52.448-18.264-52.448-55.834s17.156-55.834 52.448-55.834c34.321 0 65.893 42.548 74.913 55.834-9.021 13.286-40.592 55.834-74.913 55.834z"/><path d="m393.181 464.001c43.495 0 67.449-25.156 67.449-70.834s-23.954-70.834-67.449-70.834c-48.887 0-88.609 64.195-90.276 66.928l-2.383 3.906 2.383 3.906c1.666 2.733 41.389 66.928 90.276 66.928zm0-126.668c35.293 0 52.449 18.264 52.449 55.834s-17.156 55.834-52.449 55.834c-34.32 0-65.892-42.548-74.912-55.834 9.02-13.286 40.591-55.834 74.912-55.834z"/><path d="m476.84 309.145-.557-.586c-24.581-23.202-55.294-34.89-88.829-33.797-34.93 1.138-70.541 16.485-99.939 42.663v-62.402h89.04v-15h-104.04v114.309l12.992-13.971c28.81-30.979 66.146-49.425 102.436-50.606 29.316-.948 56.19 9.222 77.751 29.437 29.328 34.551 38.418 74.808 24.934 110.503-13.182 34.895-45.385 60.006-84.042 65.534-50.569 7.232-103.333-20.172-144.748-75.186l-6.245-8.295-5.912 8.534c-22.882 33.03-88.387 81.535-122.846 76.645l-.597-.084-.604.013c-31.185.615-59.783-10.324-80.561-30.842-19.28-19.04-29.787-44.862-29.59-72.716 1.184-46.556 25.157-81.572 65.782-96.086 49.272-17.601 107.433-.347 144.728 42.938l13.182 15.299v-115.427h-169.04l-10.595 13.815-33.354-25.493 33.353-25.486 10.596 13.815h169.04v-67.74h-121.179l-10.604 13.816-33.349-25.487 33.35-25.494 10.603 13.815h40.438v-15h-33.042l-15.216-19.825-60.832 46.506 60.833 46.493 15.215-19.824h98.782v37.74h-146.64l-15.204-19.825-60.847 46.494 60.846 46.507 15.205-19.826h146.641v61.702c-18.504-17.04-40.478-29.318-64.438-35.888-28.173-7.726-57.833-6.927-83.518 2.249-21.771 7.777-40.167 21.32-53.2 39.164-14.266 19.534-21.847 43.333-22.533 70.735l-.002.13c-.246 31.965 11.847 61.644 34.049 83.57 23.554 23.261 55.806 35.774 90.819 35.176 2.077.265 4.196.39 6.346.39 24.785-.001 53.611-16.604 69.41-27.145 21.124-14.094 41.634-32.253 54.804-48.263 22.151 27.484 46.781 47.734 73.322 60.266 25.878 12.219 53.357 16.695 79.475 12.968 44.069-6.303 80.836-35.073 95.95-75.083 15.516-41.073 5.376-86.943-27.819-125.849z"/><path d="m239.175 69.437-9.548-10.421 26.218-34.311 26.217 34.311-9.547 10.421v56.146h120.93l10.594-13.814 33.355 25.493-33.354 25.486-10.595-13.815h-120.93v67.74h168.779l10.597-13.816 33.352 25.487-33.353 25.493-10.596-13.815h-49.739v15h42.34l15.206 19.827 60.845-46.507-60.846-46.494-15.205 19.825h-146.38v-37.74h98.53l15.204 19.825 60.848-46.494-60.847-46.507-15.205 19.826h-98.53v-35.314l14.092-15.38-45.762-59.889-45.763 59.889 14.093 15.38v35.314h-50.74v15h65.74z"/></g></g><g/><g/><g/><g/><g/><g/><g/><g/><g/><g/><g/><g/><g/><g/><g/></svg>