<svg id="Layer_1" enable-background="new 0 0 512.017 512.017" viewBox="0 0 512.017 512.017" xmlns="http://www.w3.org/2000/svg"><g><g><path d="m474.051 418.119v20.552c0 11.373-5.051 22.295-14.078 29.215-16.21 12.427-39.357 8.909-51.181-7.557l-46.768-65.127 63.37-63.37c-11.716-11.716-30.711-11.716-42.426 0l-38.676 38.676-49.693-69.201c-11.968-16.666-11.973-39.107-.015-55.779l144.705-201.737c2.429-3.386 4.042-7.33 4.417-11.48 1.217-13.487-9.371-24.81-22.605-24.81h-329.654c-10.973 0-20.723 7.588-22.813 18.36-1.204 6.205.23 12.543 3.837 17.572l144.963 202.097c11.959 16.672 11.953 39.114-.015 55.779l-50.111 69.783-39.258-39.258c-11.716-11.716-30.711-11.716-42.426 0l63.952 63.952-46.35 64.545c-11.6 16.154-34.099 19.845-50.253 8.245-9.42-6.765-15.006-17.652-15.006-29.25v-21.206c0-16.545-13.412-29.957-29.957-29.957v49.714c0 21.124 10.018 40.996 27.001 53.558 29.886 22.108 72.084 15.479 93.752-14.729l42.494-59.242 48.602 48.602c19.531 19.531 51.178 19.592 70.784.137l49.704-49.321 42.912 59.824c21.628 30.152 63.711 36.812 93.587 14.85 17.304-12.72 27.165-33.216 27.165-54.693v-48.701c-16.548 0-29.96 13.412-29.96 29.957zm-368.893-380.619h301.7l-138.666 193.101c-5.985 8.334-18.383 8.334-24.368 0zm130.734 402.175-46.917-46.917 37.034-51.629c14.729-20.534 45.269-20.534 59.998 0l36.616 51.047-47.499 47.499c-10.833 10.834-28.398 10.834-39.232 0z" fill="#bcbcc0"/><path d="m236.251 331.438.019-.024 14.214-95.628c-2.557-1.008-4.891-2.723-6.659-5.185l-138.667-193.101-17.895-29.623c-9.183 1.646-16.81 8.605-18.629 17.983-1.204 6.205.229 12.543 3.837 17.572l144.963 202.097c11.959 16.672 11.953 39.114-.015 55.779l-50.111 69.783-39.258-39.258c-11.716-11.716-30.71-11.716-42.426 0l63.952 63.952-46.35 64.545c-11.6 16.154-34.099 19.845-50.253 8.245-9.42-6.765-15.006-17.652-15.006-29.25v-21.206c0-16.545-13.412-29.957-29.957-29.957v49.714c0 21.124 10.018 40.996 27.001 53.558 29.886 22.108 72.084 15.479 93.752-14.729-.002.001 103.628-142.82 107.488-145.267z" fill="#9c9a9f"/></g><g fill="#fff"><path d="m248.008 261.029h15v15h-15z"/><path d="m248.008 291.029h15v15h-15z"/></g><g><path d="m256.008 318.229c-14.491 0-27.647 6.753-36.093 18.529l-40.745 56.802 51.418 51.419c6.871 6.87 15.896 10.305 24.92 10.305s18.049-3.435 24.92-10.305l52-52.001-40.326-56.22c-8.446-11.777-21.602-18.529-36.094-18.529zm56.811 73.145-42.998 42.997c-3.823 3.823-8.906 5.929-14.312 5.929s-10.489-2.105-14.312-5.929l-42.416-42.415 33.324-46.456c5.594-7.799 14.307-12.271 23.904-12.271s18.311 4.473 23.904 12.271z"/><path d="m504.008 380.66c-10.006 0-19.411 3.895-26.488 10.972-7.075 7.089-10.972 16.496-10.972 26.488v20.55c0 9.222-4.163 17.92-11.132 23.267-6.195 4.747-13.852 6.734-21.55 5.592-7.702-1.141-14.445-5.251-18.986-11.573l-20.4-28.409-12.184 8.748 20.4 28.411c6.931 9.648 17.22 15.921 28.973 17.661 11.75 1.739 23.425-1.286 32.873-8.525 10.648-8.169 17.006-21.316 17.006-35.171v-20.55c0-5.991 2.34-11.635 6.584-15.887 2.404-2.405 5.26-4.197 8.376-5.297v39.924c0 19.372-9.014 37.562-24.112 48.656-12.822 9.426-28.542 13.249-44.265 10.752-15.726-2.494-29.497-10.992-38.778-23.93l-48.04-66.982-56.363 55.926c-16.233 16.107-42.647 16.107-58.881-.001l-55.775-55.344-47.63 66.401c-11.077 15.442-29.053 24.661-48.085 24.661-12.705 0-24.847-4.012-35.11-11.601-15.003-11.097-23.96-28.861-23.96-47.52v-40.932c8.708 3.094 14.96 11.416 14.96 21.172v21.21c0 6.857 1.657 13.721 4.794 19.848 3.133 6.12 7.744 11.475 13.333 15.485 19.49 13.992 46.731 9.523 60.725-9.958l50.066-69.725-62.249-62.239c8.364-3.984 18.696-2.52 25.607 4.393l45.505 45.504 55.261-76.954c13.852-19.29 13.861-45.22.021-64.524l-10.454-14.574 11.723-9.617 12.932 18.009c4.278 5.958 10.939 9.375 18.275 9.375s13.997-3.417 18.275-9.375l12.855-17.902 11.729 9.622-10.373 14.462c-13.848 19.301-13.843 45.231.012 64.526l54.841 76.373 44.92-44.919c4.256-4.249 9.907-6.589 15.911-6.589 3.415 0 6.714.755 9.707 2.186l-61.665 61.666 21.267 29.613 12.184-8.75-13.835-19.266 64.174-64.174-5.312-5.303c-7.088-7.076-16.505-10.973-26.519-10.973-10.006 0-19.42 3.896-26.514 10.977l-32.435 32.436-44.54-62.026c-10.098-14.063-10.101-32.965-.007-47.034l9.806-13.671 46.439 38.098 9.514-11.598-47.192-38.715 126.134-175.857c3.304-4.608 5.307-9.853 5.794-15.18.76-8.473-2.077-16.912-7.785-23.154-5.708-6.244-13.835-9.825-22.295-9.825h-267.79v15h267.79c4.322 0 8.309 1.757 11.226 4.946 2.915 3.188 4.305 7.342 3.916 11.68-.243 2.658-1.297 5.354-3.046 7.793l-125.565 175.062-11.722-9.616 125.571-174.865h-330.938l125.493 174.758-11.717 9.613-125.755-175.315c-2.427-3.38-3.363-7.67-2.571-11.76 1.388-7.125 7.89-12.296 15.459-12.296h46.859v-15h-46.859c-14.73 0-27.423 10.272-30.184 24.435-1.574 8.134.288 16.651 5.108 23.366l126.321 176.104-47.327 38.826 9.514 11.598 46.575-38.209 9.886 13.782c10.088 14.071 10.081 32.973-.016 47.034l-44.96 62.607-33.015-33.016c-14.617-14.616-38.407-14.616-53.034-.002l-5.309 5.304 64.762 64.752-42.635 59.375c-9.169 12.766-27.021 15.692-39.795 6.521-3.659-2.625-6.677-6.13-8.728-10.134-2.058-4.021-3.146-8.521-3.146-13.013v-21.21c0-20.655-16.805-37.46-37.46-37.46h-7.5v57.22c0 23.394 11.229 45.667 30.041 59.58 12.868 9.513 28.092 14.54 44.032 14.54 23.854 0 46.387-11.559 60.274-30.919l37.37-52.098 43.28 42.946c22.059 21.889 57.954 21.889 80.011.001l43.869-43.527 37.781 52.679c11.637 16.22 28.902 26.875 48.617 30.001 3.938.625 7.874.934 11.782.934 15.658-.001 30.852-4.956 43.716-14.413 18.928-13.909 30.229-36.617 30.229-60.743v-56.2h-7.5zm-241.908-154.433c-1.427 1.986-3.646 3.125-6.092 3.125s-4.665-1.139-6.092-3.125l-13.495-18.792 19.483-15.983 19.614 16.09zm5.63-44.478 64.031-52.53-47.475 66.112zm124.51-136.749-26.568 36.998-109.767 90.051-109.261-89.636-26.866-37.413zm-211.687 84.634 63.526 52.115-16.426 13.475z"/></g></g><g/><g/><g/><g/><g/><g/><g/><g/><g/><g/><g/><g/><g/><g/><g/></svg>