<svg fill="#000000" xmlns="http://www.w3.org/2000/svg"  viewBox="0 0 50 50" width="50px" height="50px"><path d="M 25 0 C 20.03125 0 16 4.03125 16 9 C 16 13.96875 20.03125 18 25 18 C 29.96875 18 34 13.96875 34 9 C 34 4.03125 29.96875 0 25 0 Z M 25 19 C 18.5625 19 11.6875 21.59375 11.6875 21.59375 L 11.6875 21.625 C 9.484375 22.039063 7.734375 23.574219 7.09375 25.59375 L 7.0625 25.59375 C 6.042969 28.113281 2.574219 38.40625 1.4375 40.875 C 0.582031 42.730469 0.859375 45.964844 3.09375 46.78125 C 4.027344 47.121094 4.996094 47.160156 6.8125 47.0625 C 7.070313 47.027344 7.320313 46.96875 7.59375 46.90625 C 8.804688 46.636719 10.898438 45.984375 12.90625 45.34375 C 14.398438 44.867188 15.816406 44.402344 16.84375 44.125 C 17.074219 44.0625 17.28125 44.011719 17.46875 43.96875 C 17.476563 43.964844 17.492188 43.96875 17.5 43.96875 C 18.953125 43.730469 20 42.476563 20 41 C 20 39.347656 18.652344 38 17 38 C 16.5625 38 16.007813 38.058594 15.40625 38.125 C 13.136719 38.378906 10.160156 38.960938 10.125 38.96875 C 9.582031 39.074219 9.046875 38.730469 8.9375 38.1875 C 8.828125 37.648438 9.179688 37.144531 9.71875 37.03125 C 9.882813 36.996094 13.03125 36.339844 15.4375 36.09375 C 16.679688 31.988281 20.488281 29 25 29 C 28.726563 29 31.96875 31.042969 33.6875 34.0625 C 36.332031 34.429688 41.300781 36.578125 41.90625 36.84375 C 42.414063 37.066406 42.628906 37.652344 42.40625 38.15625 C 42.183594 38.664063 41.597656 38.878906 41.09375 38.65625 C 39.203125 37.832031 36.105469 36.636719 34.1875 36.1875 C 33.710938 36.074219 33.289063 36 33 36 C 31.347656 36 30 37.347656 30 39 C 30 40.359375 30.90625 41.558594 32.21875 41.90625 C 32.25 41.914063 32.285156 41.925781 32.3125 41.9375 C 32.339844 41.949219 32.378906 41.957031 32.40625 41.96875 C 32.878906 42.191406 33.398438 42.4375 33.9375 42.6875 C 37.453125 44.320313 41.996094 46.378906 42.6875 46.5625 C 45.066406 47.195313 45.769531 47.039063 46.5625 46.75 C 46.710938 46.695313 46.851563 46.703125 47 46.71875 C 49.128906 45.835938 49.402344 42.695313 48.5625 40.875 C 47.425781 38.402344 43.957031 28.117188 42.9375 25.59375 L 42.90625 25.59375 C 42.257813 23.550781 40.453125 21.988281 38.21875 21.59375 C 37.042969 21.164063 30.804688 19 25 19 Z M 33.28125 44.59375 C 31.480469 47.253906 28.453125 49 25 49 C 22.175781 49 19.628906 47.824219 17.8125 45.9375 C 16.855469 46.171875 15.148438 46.722656 13.5 47.25 C 12.980469 47.417969 12.453125 47.585938 11.9375 47.75 L 11.9375 49 C 11.941406 49.550781 12.386719 50 12.9375 50 L 12.96875 50 C 13.519531 49.996094 32.511719 50 36.9375 50 L 36.96875 50 C 37.523438 49.996094 37.941406 49.550781 37.9375 49 L 37.9375 46.71875 C 36.328125 45.992188 34.582031 45.195313 33.28125 44.59375 Z"/></svg>