<svg fill="#000000" xmlns="http://www.w3.org/2000/svg"  viewBox="0 0 50 50" width="50px" height="50px"><path d="M 15.96875 -0.0273438 C 14.867188 -0.0117188 13.984375 0.894531 14 2 L 14 10 L 6 10 C 5.277344 9.988281 4.609375 10.367188 4.246094 10.992188 C 3.878906 11.613281 3.878906 12.386719 4.246094 13.007813 C 4.609375 13.632813 5.277344 14.011719 6 14 L 14 14 L 14 43 C 13.988281 43.722656 14.367188 44.390625 14.992188 44.753906 C 15.613281 45.121094 16.386719 45.121094 17.007813 44.753906 C 17.632813 44.390625 18.011719 43.722656 18 43 L 18 30.5 C 18 26.914063 20.914063 24 24.5 24 C 28.085938 24 31 26.914063 31 30.5 L 31 42 C 31 46.390625 34.609375 50 39 50 C 41.039063 50 42.921875 49.21875 44.335938 47.949219 C 44.894531 47.480469 45.152344 46.742188 45.007813 46.027344 C 44.863281 45.3125 44.34375 44.730469 43.648438 44.511719 C 42.953125 44.292969 42.191406 44.46875 41.664063 44.972656 C 40.953125 45.613281 40.027344 46 39 46 C 36.789063 46 35 44.210938 35 42 L 35 30.5 C 35 24.734375 30.265625 20 24.5 20 C 22.050781 20 19.792969 20.859375 18 22.285156 L 18 14 L 26 14 C 26.722656 14.011719 27.390625 13.632813 27.753906 13.007813 C 28.121094 12.386719 28.121094 11.613281 27.753906 10.992188 C 27.390625 10.367188 26.722656 9.988281 26 10 L 18 10 L 18 2 C 18.007813 1.460938 17.796875 0.941406 17.414063 0.558594 C 17.03125 0.175781 16.511719 -0.0351563 15.96875 -0.0273438 Z"/></svg>