<?xml version="1.0" encoding="iso-8859-1"?>
<!-- Generator: Adobe Illustrator 19.0.0, SVG Export Plug-In . SVG Version: 6.00 Build 0)  -->
<svg version="1.1" id="Capa_1" xmlns="http://www.w3.org/2000/svg" xmlns:xlink="http://www.w3.org/1999/xlink" x="0px" y="0px"
	 viewBox="0 0 512 512" style="enable-background:new 0 0 512 512;" xml:space="preserve">
<g>
	<g>
		<rect x="205.41" width="30" height="67.788"/>
	</g>
</g>
<g>
	<g>
		<rect x="129.693" y="13.738" transform="matrix(0.9093 -0.4162 0.4162 0.9093 -6.6976 64.5412)" width="30" height="67.79"/>
	</g>
</g>
<g>
	<g>
		<rect x="262.236" y="32.624" transform="matrix(0.4162 -0.9093 0.9093 0.4162 129.5809 297.0689)" width="67.79" height="30"/>
	</g>
</g>
<g>
	<g>
		<path d="M291.902,212.996c0-19.797-16.105-35.902-35.902-35.902c-5.807,0-11.292,1.395-16.151,3.853
			c-5.217-5.334-12.077-9.05-19.752-10.327c-0.38-0.063-0.764-0.116-1.148-0.168c-0.169-0.022-0.339-0.045-0.509-0.066
			c-0.326-0.039-0.653-0.073-0.982-0.104c-0.279-0.025-0.56-0.046-0.841-0.065c-0.249-0.017-0.498-0.036-0.748-0.048
			c-0.555-0.025-1.112-0.043-1.672-0.043c-5.807,0-11.292,1.395-16.15,3.853c-6.522-6.67-15.61-10.821-25.654-10.821
			c-5.807,0-11.292,1.395-16.151,3.853c-6.522-6.669-15.61-10.82-25.653-10.82c-19.797,0-35.902,16.105-35.902,35.901v57.441
			c-1.921-0.319-3.891-0.493-5.901-0.493c-19.797,0-35.902,16.105-35.902,35.901v63.196c0,29.011,17.737,45.485,31.989,58.724
			c10.956,10.178,17.672,16.84,17.672,25.207V512h158.477v-70.799v-9.132c0-5.644,3.497-9.856,10.199-17.426
			c8.729-9.858,20.683-23.359,20.683-46.037v-155.61H291.902z"/>
	</g>
</g>
<g>
	<g>
		<path d="M423.215,178.241c-2.01,0-3.98,0.174-5.901,0.493v-57.44c0-19.797-16.105-35.902-35.902-35.902
			c-10.043,0-19.131,4.151-25.654,10.821c-4.858-2.458-10.343-3.853-16.15-3.853c-10.043,0-19.131,4.15-25.653,10.82
			c-4.859-2.458-10.343-3.853-16.151-3.853c-10.043,0-19.131,4.151-25.654,10.821c-4.859-2.458-10.343-3.853-16.15-3.853
			c-19.192,0-34.914,15.137-35.857,34.098c8.937,0.794,17.493,3.371,25.26,7.567c3.502-0.574,7.049-0.866,10.596-0.866
			c36.339,0,65.902,29.564,65.902,65.902v155.61c0,34.049-18.358,54.784-28.222,65.925c-0.625,0.706-1.685,1.903-2.66,3.041v3.629
			h118.436V361.27c0-8.367,6.716-15.029,17.672-25.207c14.252-13.238,31.989-29.714,31.989-58.725v-63.195
			C459.117,194.347,443.012,178.241,423.215,178.241z"/>
	</g>
</g>
<g>
</g>
<g>
</g>
<g>
</g>
<g>
</g>
<g>
</g>
<g>
</g>
<g>
</g>
<g>
</g>
<g>
</g>
<g>
</g>
<g>
</g>
<g>
</g>
<g>
</g>
<g>
</g>
<g>
</g>
</svg>
