<?xml version="1.0" encoding="iso-8859-1"?>
<!-- Generator: Adobe Illustrator 19.0.0, SVG Export Plug-In . SVG Version: 6.00 Build 0)  -->
<svg version="1.1" id="Capa_1" xmlns="http://www.w3.org/2000/svg" xmlns:xlink="http://www.w3.org/1999/xlink" x="0px" y="0px"
	 viewBox="0 0 512 512" style="enable-background:new 0 0 512 512;" xml:space="preserve">
<g>
	<g>
		<path d="M76.067,338.915l-56.203,56.203L136.746,512l56.203-56.203L76.067,338.915z M147.234,479.598
			c-7.353,0-13.314-5.961-13.314-13.314c-0.001-7.353,5.96-13.314,13.314-13.314c7.353,0,13.314,5.961,13.314,13.314
			C160.548,473.637,154.587,479.598,147.234,479.598z"/>
	</g>
</g>
<g>
	<g>
		<path d="M480.883,211.462c-13.992-13.031-36.02-12.029-49.54,1.491l-78.219,78.219l-0.157,0.022
			c3.245-5.047,5.227-10.963,5.455-17.358c0.713-20.061-15.338-36.548-35.239-36.548h-84.388c-24.075,0-47.163,9.563-64.186,26.587
			l-65.406,65.406l78.103,78.103l13.889-13.889h111.742c24.074,0,47.163-9.563,64.186-26.587l104.685-104.685
			C495.881,248.15,495.573,225.143,480.883,211.462z"/>
	</g>
</g>
<g>
	<g>
		<path d="M286.779,0c-93.89,0-170.275,76.386-170.275,170.275c0,30.562,8.208,60.166,23.307,85.972l13.584-13.585
			c2.81-2.81,5.739-5.467,8.781-7.967c-7.921-15.319-13.003-32.06-14.868-49.419h46.79c0.57,10.048,1.717,19.818,3.436,29.285
			c9.485-3.455,19.282-5.692,29.284-6.681c-1.278-7.314-2.177-14.851-2.675-22.603h47.637v22.013h30v-22.013h47.639
			c-0.579,9.002-1.688,17.721-3.318,26.131c8.975,3.356,17.167,8.7,24.045,15.827c0.738,0.765,1.456,1.545,2.152,2.338l0.609-0.609
			c3.5-13.863,5.692-28.46,6.556-43.687h38.198c11.34-8.342,25.236-13.008,39.375-13.043c0.007-0.652,0.018-1.304,0.018-1.957
			C457.055,76.386,380.67,0,286.779,0z M194.101,155.275h-46.794c2.509-23.487,10.836-45.26,23.512-63.843
			c9.668,6.242,20.024,11.593,30.978,16.023C197.897,121.589,195.12,137.499,194.101,155.275z M190.465,68.389
			c13.065-12.357,28.496-22.234,45.534-28.873c-8.051,9.998-16.737,23.159-24.138,39.771
			C204.38,76.176,197.244,72.543,190.465,68.389z M271.779,155.275h-47.645c0.861-13.636,2.91-26.55,6.148-38.701
			c13.226,3.208,27.098,5.248,41.497,6.081V155.275z M271.779,92.621c-10.856-0.686-21.257-2.124-31.179-4.319
			c4.9-10.324,10.848-19.945,17.85-28.823c4.528-5.741,9.076-10.593,13.329-14.641V92.621z M301.779,44.837
			c4.254,4.048,8.801,8.9,13.329,14.641c7.002,8.879,12.951,18.5,17.85,28.823c-9.922,2.195-20.323,3.633-31.179,4.319V44.837z
			 M301.779,155.276v-32.62h0c14.399-0.833,28.272-2.874,41.497-6.081c3.237,12.151,5.287,25.065,6.148,38.701H301.779z
			 M361.696,79.286c-7.401-16.611-16.087-29.772-24.138-39.77c17.039,6.639,32.47,16.515,45.534,28.872
			C376.313,72.542,369.177,76.174,361.696,79.286z M379.456,155.275c-1.018-17.776-3.796-33.687-7.695-47.82
			c10.955-4.431,21.31-9.781,30.979-16.023c12.676,18.584,21.003,40.356,23.511,63.843H379.456z"/>
	</g>
</g>
<g>
</g>
<g>
</g>
<g>
</g>
<g>
</g>
<g>
</g>
<g>
</g>
<g>
</g>
<g>
</g>
<g>
</g>
<g>
</g>
<g>
</g>
<g>
</g>
<g>
</g>
<g>
</g>
<g>
</g>
</svg>
