<?xml version="1.0" encoding="iso-8859-1"?>
<!-- Generator: Adobe Illustrator 19.0.0, SVG Export Plug-In . SVG Version: 6.00 Build 0)  -->
<svg version="1.1" id="Capa_1" xmlns="http://www.w3.org/2000/svg" xmlns:xlink="http://www.w3.org/1999/xlink" x="0px" y="0px"
	 viewBox="0 0 512 512" style="enable-background:new 0 0 512 512;" xml:space="preserve">
<g>
	<g>
		<path d="M256,164.77c-50.305,0-91.23,40.926-91.23,91.23s40.926,91.23,91.23,91.23s91.23-40.926,91.23-91.23
			S306.305,164.77,256,164.77z M256,317.23c-33.763,0-61.23-27.468-61.23-61.23s27.468-61.23,61.23-61.23
			c33.762,0,61.23,27.468,61.23,61.23C317.23,289.762,289.763,317.23,256,317.23z"/>
	</g>
</g>
<g>
	<g>
		<path d="M256,224.77c-17.221,0-31.23,14.01-31.23,31.23c0,17.22,14.01,31.23,31.23,31.23c17.22,0,31.23-14.01,31.23-31.23
			C287.23,238.78,273.221,224.77,256,224.77z"/>
	</g>
</g>
<g>
	<g>
		<path d="M466.691,241C459.321,136.458,375.542,52.679,271,45.309V0h-30v45.309C136.458,52.679,52.679,136.458,45.309,241H0v30
			h45.309C52.679,375.542,136.458,459.321,241,466.691V512h30v-45.309c104.542-7.37,188.321-91.149,195.691-195.691H512v-30H466.691
			z M241,75.395v30.117c-71.438,7.067-128.421,64.05-135.488,135.488H75.395C82.639,153.009,153.009,82.639,241,75.395z
			 M241.001,436.605H241C153.009,429.361,82.639,358.991,75.395,271h30.118c7.067,71.438,64.05,128.421,135.488,135.488V436.605z
			 M256,377.23c-66.847,0-121.23-54.384-121.23-121.23S189.153,134.77,256,134.77S377.23,189.153,377.23,256
			S322.847,377.23,256,377.23z M271,436.605v-30.117c71.438-7.067,128.421-64.05,135.488-135.488h30.117
			C429.361,358.991,358.991,429.361,271,436.605z M406.488,241c-7.067-71.438-64.05-128.421-135.488-135.488V75.395
			C358.991,82.639,429.361,153.009,436.605,241H406.488z"/>
	</g>
</g>
<g>
</g>
<g>
</g>
<g>
</g>
<g>
</g>
<g>
</g>
<g>
</g>
<g>
</g>
<g>
</g>
<g>
</g>
<g>
</g>
<g>
</g>
<g>
</g>
<g>
</g>
<g>
</g>
<g>
</g>
</svg>
