<?xml version="1.0" encoding="iso-8859-1"?>
<!-- Generator: Adobe Illustrator 19.0.0, SVG Export Plug-In . SVG Version: 6.00 Build 0)  -->
<svg version="1.1" id="Capa_1" xmlns="http://www.w3.org/2000/svg" xmlns:xlink="http://www.w3.org/1999/xlink" x="0px" y="0px"
	 viewBox="0 0 512 512" style="enable-background:new 0 0 512 512;" xml:space="preserve">
<g>
	<g>
		<path d="M465,76.327V0H47v76.327h27v359.346H47V512h418v-76.327h-27V76.327H465z M161.417,76.327h189.166v61.295H161.417V76.327z
			 M131.417,359.378v76.295H104V76.327h27.417v76.295c0,20.97,6.253,41.205,18.083,58.519c11.83,17.314,28.409,30.494,47.944,38.116
			L214.728,256l-17.284,6.743c-19.535,7.622-36.114,20.802-47.944,38.116C137.67,318.173,131.417,338.408,131.417,359.378z
			 M350.583,435.673h-11.979L256,383.142l-82.604,52.531h-11.979v-76.295c0-30.603,18.422-57.563,46.932-68.686L241,277.954v29.97
			h30v-29.97l32.651,12.739c28.51,11.122,46.932,38.083,46.932,68.686V435.673z M408,435.673h-27.417v-76.295
			c0-20.97-6.253-41.205-18.083-58.519c-11.83-17.314-28.409-30.494-47.944-38.116L297.272,256l17.284-6.743
			c19.535-7.622,36.114-20.802,47.944-38.116c11.83-17.313,18.083-37.549,18.083-58.519V76.327H408V435.673z"/>
	</g>
</g>
<g>
	<g>
		<rect x="241" y="330.05" width="30" height="34.31"/>
	</g>
</g>
<g>
</g>
<g>
</g>
<g>
</g>
<g>
</g>
<g>
</g>
<g>
</g>
<g>
</g>
<g>
</g>
<g>
</g>
<g>
</g>
<g>
</g>
<g>
</g>
<g>
</g>
<g>
</g>
<g>
</g>
</svg>
