<?xml version="1.0" encoding="iso-8859-1"?>
<!-- Generator: Adobe Illustrator 19.0.0, SVG Export Plug-In . SVG Version: 6.00 Build 0)  -->
<svg version="1.1" id="Capa_1" xmlns="http://www.w3.org/2000/svg" xmlns:xlink="http://www.w3.org/1999/xlink" x="0px" y="0px"
	 viewBox="0 0 512 512" style="enable-background:new 0 0 512 512;" xml:space="preserve">
<g>
	<g>
		<path d="M256,0c-27.111,0-49.167,22.056-49.167,49.167c0,27.11,22.056,49.166,49.167,49.166c27.111,0,49.167-22.056,49.167-49.167
			C305.167,22.056,283.111,0,256,0z"/>
	</g>
</g>
<g>
	<g>
		<path d="M307.303,118.788H204.696c-25.025,0-45.385,20.36-45.385,45.386V207h193.377v-42.826
			C352.688,139.149,332.329,118.788,307.303,118.788z"/>
	</g>
</g>
<g>
	<g>
		<path d="M400.6,358.969c-18.307,0-33.2,14.894-33.2,33.2c0,3.655,0.611,7.276,1.783,10.71
			c12.416,3.425,23.309,10.546,31.418,20.108c8.109-9.562,19.001-16.683,31.418-20.108c1.171-3.434,1.782-7.055,1.782-10.71
			C433.8,373.862,418.906,358.969,400.6,358.969z"/>
	</g>
</g>
<g>
	<g>
		<path d="M304.201,358.969c-18.307,0-33.201,14.893-33.201,33.2c0,3.655,0.611,7.276,1.783,10.71
			c12.416,3.425,23.309,10.546,31.418,20.108c8.109-9.562,19.001-16.683,31.418-20.108c1.171-3.434,1.782-7.055,1.782-10.71
			C337.401,373.862,322.508,358.969,304.201,358.969z"/>
	</g>
</g>
<g>
	<g>
		<path d="M207.801,358.969c-18.306,0-33.201,14.893-33.201,33.2c0,3.655,0.611,7.276,1.782,10.71
			c12.416,3.425,23.309,10.546,31.418,20.108c8.109-9.562,19.001-16.683,31.418-20.108c1.171-3.434,1.783-7.055,1.783-10.71
			C241.001,373.862,226.107,358.969,207.801,358.969z"/>
	</g>
</g>
<g>
	<g>
		<path d="M111.401,358.969c-18.307,0-33.201,14.893-33.201,33.2c0,3.655,0.611,7.276,1.782,10.71
			c12.416,3.425,23.309,10.546,31.418,20.108c8.109-9.562,19.001-16.683,31.418-20.108c1.171-3.434,1.783-7.055,1.783-10.71
			C144.601,373.862,129.707,358.969,111.401,358.969z"/>
	</g>
</g>
<g>
	<g>
		<path d="M66.894,237v63.767h19.643v33.306c7.636-3.28,16.039-5.104,24.863-5.104c19.294,0,36.598,8.693,48.2,22.365
			c11.602-13.672,28.906-22.365,48.2-22.365c19.294,0,36.598,8.693,48.2,22.365c11.602-13.672,28.906-22.365,48.2-22.365
			s36.598,8.693,48.2,22.365c11.602-13.672,28.906-22.365,48.2-22.365c8.823,0,17.227,1.824,24.863,5.104v-33.306h19.643V237H66.894
			z"/>
	</g>
</g>
<g>
	<g>
		<path d="M476.552,482c3.538-5.373,5.448-11.661,5.448-18.2c0-18.307-14.894-33.2-33.2-33.2c-18.306,0-33.2,14.894-33.2,33.2
			c0,6.539,1.909,12.827,5.448,18.2h-40.896c3.538-5.373,5.448-11.661,5.448-18.2c0-18.307-14.894-33.2-33.2-33.2
			c-18.306,0-33.2,14.894-33.2,33.2c0,6.539,1.909,12.827,5.448,18.2h-40.896c3.538-5.373,5.448-11.661,5.448-18.2
			c0-18.307-14.894-33.2-33.2-33.2c-18.306,0-33.2,14.894-33.2,33.2c0,6.539,1.909,12.827,5.448,18.2h-40.896
			c3.538-5.373,5.448-11.661,5.448-18.2c0-18.307-14.894-33.2-33.2-33.2c-18.307,0-33.2,14.894-33.2,33.2
			c0,6.539,1.909,12.827,5.448,18.2H90.952c3.538-5.373,5.448-11.661,5.448-18.2c0-18.307-14.893-33.2-33.2-33.2
			S30,445.493,30,463.8c0,6.539,1.909,12.827,5.448,18.2H0v30h512v-30H476.552z"/>
	</g>
</g>
<g>
</g>
<g>
</g>
<g>
</g>
<g>
</g>
<g>
</g>
<g>
</g>
<g>
</g>
<g>
</g>
<g>
</g>
<g>
</g>
<g>
</g>
<g>
</g>
<g>
</g>
<g>
</g>
<g>
</g>
</svg>
