<?xml version="1.0" encoding="iso-8859-1"?>
<!-- Generator: Adobe Illustrator 19.0.0, SVG Export Plug-In . SVG Version: 6.00 Build 0)  -->
<svg version="1.1" id="Capa_1" xmlns="http://www.w3.org/2000/svg" xmlns:xlink="http://www.w3.org/1999/xlink" x="0px" y="0px"
	 viewBox="0 0 512 512" style="enable-background:new 0 0 512 512;" xml:space="preserve">
<g>
	<g>
		<polygon points="345.934,200.617 324.721,221.83 341.242,238.352 170.758,238.352 187.279,221.83 166.066,200.617 
			113.332,253.352 166.066,306.086 187.279,284.873 170.758,268.352 341.242,268.352 324.721,284.873 345.934,306.086 
			398.668,253.352 		"/>
	</g>
</g>
<g>
	<g>
		<circle cx="113.58" cy="58.74" r="58.74"/>
	</g>
</g>
<g>
	<g>
		<path d="M144.854,179.405l21.213-21.213l21.213,21.213l21.213,21.213l7.735,7.735h10.936v-24.818
			c0-23.125-18.746-41.871-41.871-41.871h-71.71h-71.71C18.746,141.663,0,160.409,0,183.534v88.13v68.303
			c0,13.509,10.951,24.46,24.46,24.46c13.509,0,24.46-10.951,24.46-24.46V512h49.661V354.486h30V512h49.661V339.968
			c0,13.509,10.951,24.46,24.46,24.46c13.509,0,24.46-10.951,24.46-24.46v-41.616h-10.936l-7.733,7.734l-21.213,21.213
			l-21.213,21.213l-21.213-21.213l-52.735-52.734l-21.214-21.213l21.214-21.213L144.854,179.405z"/>
	</g>
</g>
<g>
	<g>
		<circle cx="398.42" cy="58.74" r="58.74"/>
	</g>
</g>
<g>
	<g>
		<path d="M470.129,141.663h-71.71h-71.71c-23.125,0-41.871,18.746-41.871,41.871v24.818h10.936l7.735-7.735l21.213-21.213
			l21.213-21.213l21.213,21.213l52.735,52.734l21.214,21.213l-21.214,21.213l-52.735,52.734l-21.213,21.213l-21.213-21.213
			l-21.213-21.213l-7.735-7.735h-10.936v41.616c0,13.509,10.951,24.46,24.46,24.46c13.509,0,24.46-10.951,24.46-24.46V512h49.661
			V354.486h30V512h49.661V339.968c0,13.509,10.951,24.46,24.46,24.46c13.509,0,24.46-10.951,24.46-24.46v-68.303v-88.13
			C512,160.409,493.254,141.663,470.129,141.663z"/>
	</g>
</g>
<g>
</g>
<g>
</g>
<g>
</g>
<g>
</g>
<g>
</g>
<g>
</g>
<g>
</g>
<g>
</g>
<g>
</g>
<g>
</g>
<g>
</g>
<g>
</g>
<g>
</g>
<g>
</g>
<g>
</g>
</svg>
