<?xml version="1.0" encoding="iso-8859-1"?>
<!-- Generator: Adobe Illustrator 19.0.0, SVG Export Plug-In . SVG Version: 6.00 Build 0)  -->
<svg version="1.1" id="Capa_1" xmlns="http://www.w3.org/2000/svg" xmlns:xlink="http://www.w3.org/1999/xlink" x="0px" y="0px"
	 viewBox="0 0 512 512" style="enable-background:new 0 0 512 512;" xml:space="preserve">
<g>
	<g>
		<path d="M0,0v131.358h19.828l47.091,54.526v-54.526h138.88V0H0z M173.666,80.679H32.133v-30h141.533V80.679z"/>
	</g>
</g>
<g>
	<g>
		<path d="M287.318,100.811c-33.412,0-60.595,27.183-60.595,60.595S253.906,222,287.318,222s60.594-27.182,60.594-60.594
			S320.73,100.811,287.318,100.811z"/>
	</g>
</g>
<g>
	<g>
		<path d="M400.542,196.821l-23.729-10.705l-12.336,27.346l23.729,10.705c26.237,11.837,43.19,38.084,43.19,66.868V355h30v-63.965
			C461.396,250.48,437.509,213.499,400.542,196.821z"/>
	</g>
</g>
<g>
	<g>
		<path d="M349.106,243.872H225.531c-28.449,0-51.593,23.145-51.593,51.594V355H400.7v-59.534
			C400.7,267.017,377.555,243.872,349.106,243.872z"/>
	</g>
</g>
<g>
	<g>
		<polygon points="62.636,385 62.636,456.905 86.293,456.905 86.293,512 488.344,512 488.344,456.905 512,456.905 512,385 		"/>
	</g>
</g>
<g>
</g>
<g>
</g>
<g>
</g>
<g>
</g>
<g>
</g>
<g>
</g>
<g>
</g>
<g>
</g>
<g>
</g>
<g>
</g>
<g>
</g>
<g>
</g>
<g>
</g>
<g>
</g>
<g>
</g>
</svg>
