<?xml version="1.0" encoding="iso-8859-1"?>
<!-- Generator: Adobe Illustrator 19.0.0, SVG Export Plug-In . SVG Version: 6.00 Build 0)  -->
<svg version="1.1" id="Capa_1" xmlns="http://www.w3.org/2000/svg" xmlns:xlink="http://www.w3.org/1999/xlink" x="0px" y="0px"
	 viewBox="0 0 512 512" style="enable-background:new 0 0 512 512;" xml:space="preserve">
<g>
	<g>
		<path d="M69.51,332.608L11.26,390.859L132.4,512l58.251-58.251L69.51,332.608z M143.271,478.417
			c-7.621,0-13.799-6.178-13.799-13.799c-0.001-7.621,6.177-13.799,13.799-13.799c7.621,0,13.799,6.178,13.799,13.799
			S150.891,478.417,143.271,478.417z"/>
	</g>
</g>
<g>
	<g>
		<path d="M489.077,200.511c-14.502-13.506-37.332-12.467-51.345,1.545l-81.069,81.069l-0.163,0.023
			c3.363-5.231,5.417-11.362,5.654-17.99c0.739-20.792-15.897-37.88-36.523-37.88h-87.463c-24.952,0-48.881,9.911-66.525,27.556
			l-67.789,67.789l80.949,80.949l14.395-14.395h115.814c24.951,0,48.882-9.912,66.525-27.556l108.499-108.499
			C504.621,238.536,504.302,214.691,489.077,200.511z"/>
	</g>
</g>
<g>
	<g>
		<path d="M483.016,96.545c-4.049-18.21-22.094-29.69-40.304-25.641c-3.674,0.817-7.074,2.203-10.127,4.047
			c-6.753,4.076-13.934,7.379-21.479,9.581L392.313,0l-84.531,18.793c2.202,7.545,5.505,14.727,9.581,21.479
			c1.843,3.053,3.23,6.453,4.046,10.127c4.048,18.21-7.431,36.255-25.641,40.304c-18.212,4.049-36.541-7.761-40.387-26.017
			c-0.728-3.457-0.899-6.903-0.571-10.245c0.776-7.933,0.715-15.917-0.445-23.773l-84.481,18.782l18.782,84.481
			c-7.856,1.16-15.84,1.22-23.773,0.445c-3.342-0.326-6.789-0.156-10.245,0.571c-18.256,3.846-30.066,22.176-26.017,40.387
			c4.049,18.211,22.094,29.691,40.304,25.642c3.674-0.817,7.074-2.203,10.127-4.046c6.753-4.076,13.934-7.379,21.479-9.581
			l3.048,13.709c11.212-3.231,22.791-4.871,34.579-4.871h56.442c4.633-7.375,12.095-12.969,21.269-15.01
			c16.726-3.72,33.54,5.944,39.154,21.685c7.098,3.431,13.613,8.133,19.27,13.995c0.765,0.793,1.509,1.601,2.23,2.423l39.21-39.211
			c4.243-4.243,9.033-7.875,14.187-10.856l-6.951-31.267c7.856-1.16,15.84-1.22,23.773-0.445c3.342,0.326,6.789,0.156,10.245-0.571
			C475.255,133.086,487.065,114.756,483.016,96.545z"/>
	</g>
</g>
<g>
</g>
<g>
</g>
<g>
</g>
<g>
</g>
<g>
</g>
<g>
</g>
<g>
</g>
<g>
</g>
<g>
</g>
<g>
</g>
<g>
</g>
<g>
</g>
<g>
</g>
<g>
</g>
<g>
</g>
</svg>
