<?xml version="1.0" encoding="iso-8859-1"?>
<!-- Generator: Adobe Illustrator 19.0.0, SVG Export Plug-In . SVG Version: 6.00 Build 0)  -->
<svg version="1.1" id="Capa_1" xmlns="http://www.w3.org/2000/svg" xmlns:xlink="http://www.w3.org/1999/xlink" x="0px" y="0px"
	 viewBox="0 0 512 512" style="enable-background:new 0 0 512 512;" xml:space="preserve">
<g>
	<g>
		<path d="M318.325,19.392l-27.452,12.1l7.497,17.009c-4.03-1.036-8.111-1.919-12.241-2.636
			C246.554,39,206.44,47.602,173.173,70.094l16.803,24.854c26.804-18.125,59.132-25.058,91.023-19.525
			c3.114,0.54,6.188,1.212,9.231,1.977l-20.723,9.134l12.1,27.451l65.656-28.938L318.325,19.392z"/>
	</g>
</g>
<g>
	<g>
		<path d="M93.741,339.097c-1.344-2.861-2.557-5.765-3.675-8.696l19.369,11.736l15.547-25.656l-61.363-37.185L26.434,340.66
			l25.657,15.547l9.633-15.896c1.463,3.896,3.08,7.745,4.862,11.54c17.075,36.355,47.133,64.28,84.635,78.631l10.722-28.02
			C131.723,390.898,107.501,368.395,93.741,339.097z"/>
	</g>
</g>
<g>
	<g>
		<path d="M422.92,387.16c25.733-30.842,38.338-69.884,35.495-109.937l-29.925,2.125c2.292,32.275-7.867,63.738-28.604,88.591
			c-2.025,2.427-4.144,4.753-6.328,7.006l2.451-22.514l-29.823-3.248l-7.767,71.329l71.329,7.767l3.247-29.824l-18.478-2.012
			C417.43,393.471,420.235,390.378,422.92,387.16z"/>
	</g>
</g>
<g>
	<g>
		<path d="M301.236,366.299h-90.473c-23.044,0-41.792,18.748-41.792,41.792V512h174.057V408.091
			C343.028,385.047,324.28,366.299,301.236,366.299z"/>
	</g>
</g>
<g>
	<g>
		<path d="M87.028,0C61.191,0,40.17,21.02,40.17,46.858c0,25.837,21.021,46.857,46.858,46.857c25.837,0,46.857-21.02,46.857-46.857
			C133.886,21.02,112.865,0,87.028,0z"/>
	</g>
</g>
<g>
	<g>
		<path d="M132.264,112.598H41.792C18.748,112.598,0,131.346,0,154.39v103.909h174.056V154.39
			C174.056,131.346,155.308,112.598,132.264,112.598z"/>
	</g>
</g>
<g>
	<g>
		<path d="M424.972,0c-25.837,0-46.858,21.02-46.858,46.858c0,25.837,21.021,46.857,46.858,46.857
			c25.837,0,46.858-21.02,46.858-46.857C471.83,21.02,450.809,0,424.972,0z"/>
	</g>
</g>
<g>
	<g>
		<path d="M256.01,253.701c-25.837,0-46.858,21.02-46.858,46.858c0,25.837,21.021,46.857,46.858,46.857s46.858-21.02,46.858-46.857
			C302.868,274.721,281.847,253.701,256.01,253.701z"/>
	</g>
</g>
<g>
	<g>
		<path d="M470.208,112.598h-90.473c-23.044,0-41.792,18.748-41.792,41.792v103.909H512V154.39
			C512,131.346,493.252,112.598,470.208,112.598z"/>
	</g>
</g>
<g>
</g>
<g>
</g>
<g>
</g>
<g>
</g>
<g>
</g>
<g>
</g>
<g>
</g>
<g>
</g>
<g>
</g>
<g>
</g>
<g>
</g>
<g>
</g>
<g>
</g>
<g>
</g>
<g>
</g>
</svg>
