<?xml version="1.0" encoding="iso-8859-1"?>
<!-- Generator: Adobe Illustrator 19.0.0, SVG Export Plug-In . SVG Version: 6.00 Build 0)  -->
<svg version="1.1" id="Capa_1" xmlns="http://www.w3.org/2000/svg" xmlns:xlink="http://www.w3.org/1999/xlink" x="0px" y="0px"
	 viewBox="0 0 512 512" style="enable-background:new 0 0 512 512;" xml:space="preserve">
<g>
	<g>
		<path d="M445.194,108.548l-103.235-15L295.79,0l-46.169,93.548l-103.236,15.001l74.702,72.817l-4.808,28.037
			c7.385-1.401,14.905-2.114,22.516-2.114h84.388c17.872,0,34.55,7.083,46.962,19.945c0.739,0.765,1.456,1.545,2.152,2.338
			l5.517-5.517l-7.322-42.69L445.194,108.548z"/>
	</g>
</g>
<g>
	<g>
		<path d="M76.067,338.915l-56.203,56.203L136.746,512l56.203-56.203L76.067,338.915z M147.234,479.598
			c-7.353,0-13.314-5.961-13.314-13.314c-0.001-7.353,5.96-13.314,13.314-13.314c7.353,0,13.314,5.961,13.314,13.314
			C160.548,473.637,154.587,479.598,147.234,479.598z"/>
	</g>
</g>
<g>
	<g>
		<path d="M480.883,211.462c-13.992-13.031-36.02-12.029-49.54,1.491l-78.219,78.219l-0.157,0.022
			c3.245-5.047,5.227-10.963,5.454-17.358c0.713-20.061-15.337-36.548-35.239-36.548h-84.388c-24.075,0-47.163,9.563-64.186,26.587
			l-65.406,65.406l78.103,78.103l13.889-13.889h111.742c24.075,0,47.163-9.564,64.186-26.587l104.685-104.685
			C495.881,248.15,495.572,225.143,480.883,211.462z"/>
	</g>
</g>
<g>
</g>
<g>
</g>
<g>
</g>
<g>
</g>
<g>
</g>
<g>
</g>
<g>
</g>
<g>
</g>
<g>
</g>
<g>
</g>
<g>
</g>
<g>
</g>
<g>
</g>
<g>
</g>
<g>
</g>
</svg>
