<?xml version="1.0" encoding="iso-8859-1"?>
<!-- Generator: Adobe Illustrator 19.0.0, SVG Export Plug-In . SVG Version: 6.00 Build 0)  -->
<svg version="1.1" id="Capa_1" xmlns="http://www.w3.org/2000/svg" xmlns:xlink="http://www.w3.org/1999/xlink" x="0px" y="0px"
	 viewBox="0 0 512 512" style="enable-background:new 0 0 512 512;" xml:space="preserve">
<g>
	<g>
		<path d="M132.283,122.769c-26.636,0-48.306,21.67-48.306,48.306c0,26.636,21.67,48.306,48.306,48.306s48.306-21.67,48.306-48.306
			C180.588,144.439,158.918,122.769,132.283,122.769z"/>
	</g>
</g>
<g>
	<g>
		<path d="M379.717,122.769c-26.636,0-48.306,21.669-48.306,48.306c0,26.636,21.67,48.306,48.306,48.306s48.306-21.67,48.306-48.306
			C428.022,144.439,406.353,122.769,379.717,122.769z"/>
	</g>
</g>
<g>
	<g>
		<path d="M427.707,234.291h-80.353l-43.202-69.219h6.056v-30H296.48l7.688-50.303h13.403c18.585,0,33.705-15.12,33.705-33.705
			c0-18.585-15.12-33.705-33.705-33.705h-3.1L317.124,0H194.876l2.653,17.359h-3.1c-18.585,0-33.705,15.12-33.705,33.705
			c0,18.585,15.12,33.705,33.705,33.705h13.403l7.688,50.303h-13.728v30h6.056l-43.202,69.219H84.293
			c-23.943,0-43.422,19.479-43.422,43.422V383.9c0,17.427,14.178,31.604,31.604,31.604c0.538,0,1.072-0.014,1.604-0.04V512h43.205
			V391.753h30V512h43.205V285.952l65.511-105.073l65.512,105.073V512h43.205V391.753h30V512h43.205v-96.535
			c0.531,0.026,1.065,0.04,1.604,0.04c17.426,0,31.604-14.178,31.604-31.604V277.713C471.129,253.77,451.65,234.291,427.707,234.291
			z M309.885,47.359h7.686c2.043,0,3.705,1.662,3.705,3.705c0,2.043-1.662,3.705-3.705,3.705h-8.818L309.885,47.359z M194.428,54.77
			c-2.043,0-3.705-1.662-3.705-3.705c0-2.043,1.662-3.705,3.705-3.705h7.686l1.133,7.41H194.428z"/>
	</g>
</g>
<g>
</g>
<g>
</g>
<g>
</g>
<g>
</g>
<g>
</g>
<g>
</g>
<g>
</g>
<g>
</g>
<g>
</g>
<g>
</g>
<g>
</g>
<g>
</g>
<g>
</g>
<g>
</g>
<g>
</g>
</svg>
