<?xml version="1.0" encoding="iso-8859-1"?>
<!-- Generator: Adobe Illustrator 19.0.0, SVG Export Plug-In . SVG Version: 6.00 Build 0)  -->
<svg version="1.1" id="Capa_1" xmlns="http://www.w3.org/2000/svg" xmlns:xlink="http://www.w3.org/1999/xlink" x="0px" y="0px"
	 viewBox="0 0 512 512" style="enable-background:new 0 0 512 512;" xml:space="preserve">
<g>
	<g>
		<path d="M0,0v161.633h67.373l49.123,48.046v-48.046h106.849L256,209.679l32.655-48.046h106.849v48.046l49.123-48.046H512V0H0z
			 M148.449,95.753H93.228v-30h55.221V95.753z M283.611,95.753h-0.001h-55.22v-30h55.221V95.753z M418.772,95.753h-55.221v-30
			h55.221V95.753z"/>
	</g>
</g>
<g>
	<g>
		<path d="M256,254.682c-31.999,0-58.033,26.034-58.033,58.033c0,31.999,26.033,58.032,58.033,58.032s58.033-26.033,58.033-58.032
			C314.033,280.716,287.999,254.682,256,254.682z"/>
	</g>
</g>
<g>
	<g>
		<path d="M317.787,386.792H194.213c-28.449,0-51.594,23.145-51.594,51.594V512h226.762v-73.615
			C369.381,409.936,346.236,386.792,317.787,386.792z"/>
	</g>
</g>
<g>
	<g>
		<path d="M132.887,281.49c-28.666,0-51.987,23.322-51.987,51.987c0,28.435,22.951,51.599,51.3,51.969
			c11.74-13.732,27.939-23.533,46.343-27.128c4.034-7.385,6.331-15.85,6.331-24.841C184.874,304.811,161.553,281.49,132.887,281.49z
			"/>
	</g>
</g>
<g>
	<g>
		<path d="M77.537,399.836c-25.485,0-46.219,20.733-46.219,46.219V512h81.301v-73.615c0-13.935,3.518-27.062,9.703-38.549H77.537z"
			/>
	</g>
</g>
<g>
	<g>
		<path d="M379.113,281.49c-28.666,0-51.987,23.322-51.987,51.987c0,8.991,2.296,17.456,6.331,24.841
			c18.404,3.595,34.603,13.396,46.343,27.128c28.349-0.371,51.3-23.534,51.3-51.969C431.1,304.811,407.779,281.49,379.113,281.49z"
			/>
	</g>
</g>
<g>
	<g>
		<path d="M434.463,399.836h-44.785c6.185,11.487,9.703,24.614,9.703,38.549V512h81.301v-65.945
			C480.682,420.569,459.948,399.836,434.463,399.836z"/>
	</g>
</g>
<g>
</g>
<g>
</g>
<g>
</g>
<g>
</g>
<g>
</g>
<g>
</g>
<g>
</g>
<g>
</g>
<g>
</g>
<g>
</g>
<g>
</g>
<g>
</g>
<g>
</g>
<g>
</g>
<g>
</g>
</svg>
