<?xml version="1.0" encoding="iso-8859-1"?>
<!-- Generator: Adobe Illustrator 19.0.0, SVG Export Plug-In . SVG Version: 6.00 Build 0)  -->
<svg version="1.1" id="Capa_1" xmlns="http://www.w3.org/2000/svg" xmlns:xlink="http://www.w3.org/1999/xlink" x="0px" y="0px"
	 viewBox="0 0 512 512" style="enable-background:new 0 0 512 512;" xml:space="preserve">
<g>
	<g>
		<path d="M76.067,338.915l-56.203,56.203L136.746,512l56.203-56.203L76.067,338.915z M147.234,479.599
			c-7.353,0-13.314-5.961-13.314-13.314c-0.001-7.354,5.96-13.314,13.314-13.314c7.353,0,13.314,5.961,13.314,13.314
			C160.548,473.638,154.587,479.599,147.234,479.599z"/>
	</g>
</g>
<g>
	<g>
		<path d="M480.883,211.462c-13.992-13.031-36.02-12.029-49.54,1.491l-78.219,78.219l-0.157,0.023
			c3.245-5.047,5.227-10.963,5.455-17.358c0.713-20.061-15.338-36.548-35.239-36.548h-84.388c-24.075,0-47.163,9.564-64.186,26.587
			l-65.406,65.406l78.103,78.103l13.889-13.889h111.742c24.074,0,47.163-9.564,64.186-26.587l104.685-104.685
			C495.881,248.15,495.573,225.143,480.883,211.462z"/>
	</g>
</g>
<g>
	<g>
		<path d="M289.505,155.678c-8.483,6.424-17.952,9.144-26.777,9.74l9.365,41.871h34.332l9.694-41.882
			C307.339,164.79,297.934,162.063,289.505,155.678z"/>
	</g>
</g>
<g>
	<g>
		<path d="M287.931,0.011c-59.98,0.837-108.649,50.287-108.578,110.273c0.031,26.654,9.531,51.087,25.315,70.122
			c7.12,8.586,12.999,18.019,17.579,28.021c5.456-0.752,10.977-1.138,16.548-1.138h2.556l-19.02-85.045l26.692,11.588
			c0.649,0.236,5.666,1.983,11.567,1.653c7.063-0.394,12.229-3.527,16.259-9.86l12.655-19.887l12.655,19.887
			c4.17,6.553,9.58,9.695,17.027,9.892c5.799,0.135,10.686-1.638,10.73-1.655l26.844-11l-19.877,85.865
			c6.052,1.283,11.85,3.413,17.261,6.338c5.03-12.704,12.055-24.655,20.821-35.42c15.435-18.955,24.69-43.142,24.69-69.494
			C399.655,48.793,349.486-0.848,287.931,0.011z M341.123,99.586c-6.537-22.664-25.839-39.416-49.173-42.678l4.152-29.711
			c35.046,4.898,64.031,30.05,73.845,64.076L341.123,99.586z"/>
	</g>
</g>
<g>
</g>
<g>
</g>
<g>
</g>
<g>
</g>
<g>
</g>
<g>
</g>
<g>
</g>
<g>
</g>
<g>
</g>
<g>
</g>
<g>
</g>
<g>
</g>
<g>
</g>
<g>
</g>
<g>
</g>
</svg>
