<?xml version="1.0" encoding="iso-8859-1"?>
<!-- Generator: Adobe Illustrator 19.0.0, SVG Export Plug-In . SVG Version: 6.00 Build 0)  -->
<svg version="1.1" id="Capa_1" xmlns="http://www.w3.org/2000/svg" xmlns:xlink="http://www.w3.org/1999/xlink" x="0px" y="0px"
	 viewBox="0 0 512 512" style="enable-background:new 0 0 512 512;" xml:space="preserve">
<g>
	<g>
		<path d="M480.682,319.633v-32.315h-148.97c0,41.815-33.897,75.712-75.712,75.712s-75.712-33.897-75.712-75.712H31.318v32.315
			l64.688,6.85c4.035,16.54,10.568,32.102,19.177,46.262l-40.908,50.597l45.701,45.701l50.597-40.908
			c14.16,8.609,29.722,15.142,46.262,19.177l6.85,64.688h64.63l6.85-64.688c16.54-4.035,32.102-10.568,46.262-19.177l50.597,40.908
			l45.701-45.701l-40.908-50.597c8.609-14.16,15.142-29.722,19.177-46.262L480.682,319.633z"/>
	</g>
</g>
<g>
	<g>
		<path d="M256,0c-31.999,0-58.033,26.034-58.033,58.033c0,31.999,26.034,58.032,58.033,58.032
			c31.999,0,58.033-26.033,58.033-58.032C314.033,26.034,287.999,0,256,0z"/>
	</g>
</g>
<g>
	<g>
		<path d="M317.787,132.109H194.213c-28.449,0-51.594,23.145-51.594,51.594v73.614h226.762v-73.614h0
			C369.381,155.254,346.236,132.109,317.787,132.109z"/>
	</g>
</g>
<g>
</g>
<g>
</g>
<g>
</g>
<g>
</g>
<g>
</g>
<g>
</g>
<g>
</g>
<g>
</g>
<g>
</g>
<g>
</g>
<g>
</g>
<g>
</g>
<g>
</g>
<g>
</g>
<g>
</g>
</svg>
