<?xml version="1.0" encoding="iso-8859-1"?>
<!-- Generator: Adobe Illustrator 19.0.0, SVG Export Plug-In . SVG Version: 6.00 Build 0)  -->
<svg version="1.1" id="Capa_1" xmlns="http://www.w3.org/2000/svg" xmlns:xlink="http://www.w3.org/1999/xlink" x="0px" y="0px"
	 viewBox="0 0 512 512" style="enable-background:new 0 0 512 512;" xml:space="preserve">
<g>
	<g>
		<path d="M256,123.646c-72.98,0-132.354,59.374-132.354,132.354S183.02,388.354,256,388.354S388.354,328.98,388.354,256
			S328.98,123.646,256,123.646z"/>
	</g>
</g>
<g>
	<g>
		<path d="M291.109,14.543c-19.359-19.36-50.859-19.359-70.219,0c-19.36,19.359-19.359,50.858,0,70.218
			c9.379,9.379,21.847,14.544,35.11,14.544s25.731-5.165,35.109-14.544C310.468,65.402,310.468,33.903,291.109,14.543z"/>
	</g>
</g>
<g>
	<g>
		<path d="M110.09,60.438c-27.378,0-49.652,22.274-49.652,49.652c0,27.378,22.274,49.652,49.652,49.652
			c27.378,0,49.652-22.274,49.652-49.652C159.742,82.712,137.468,60.438,110.09,60.438z"/>
	</g>
</g>
<g>
	<g>
		<path d="M84.761,220.891c-19.359-19.359-50.86-19.359-70.218,0C5.165,230.269,0,242.737,0,256s5.165,25.731,14.543,35.109
			c9.681,9.681,22.393,14.521,35.109,14.52c12.713-0.001,25.431-4.841,35.109-14.52C104.121,271.75,104.121,240.25,84.761,220.891z"
			/>
	</g>
</g>
<g>
	<g>
		<path d="M110.09,352.258c-27.378,0-49.652,22.274-49.652,49.652c0,27.378,22.274,49.652,49.652,49.652
			c27.378,0,49.652-22.274,49.652-49.652C159.742,374.532,137.468,352.258,110.09,352.258z"/>
	</g>
</g>
<g>
	<g>
		<path d="M291.109,427.239c-9.378-9.379-21.846-14.544-35.109-14.544s-25.731,5.165-35.109,14.544
			c-19.359,19.359-19.359,50.858,0,70.218c9.68,9.68,22.395,14.52,35.109,14.52s25.43-4.84,35.109-14.52
			C310.468,478.098,310.468,446.599,291.109,427.239z"/>
	</g>
</g>
<g>
	<g>
		<path d="M401.91,352.258c-27.378,0-49.652,22.274-49.652,49.652c0,27.378,22.274,49.652,49.652,49.652
			c27.378,0,49.652-22.274,49.652-49.652C451.562,374.532,429.288,352.258,401.91,352.258z"/>
	</g>
</g>
<g>
	<g>
		<path d="M497.457,220.891c-19.358-19.358-50.858-19.359-70.218,0s-19.36,50.859,0,70.219c9.68,9.68,22.395,14.52,35.109,14.52
			c12.714,0,25.43-4.84,35.109-14.52C506.835,281.731,512,269.263,512,256S506.835,230.269,497.457,220.891z"/>
	</g>
</g>
<g>
	<g>
		<path d="M401.91,60.438c-27.378,0-49.652,22.274-49.652,49.652c0,27.378,22.274,49.652,49.652,49.652s49.652-22.274,49.652-49.652
			C451.562,82.712,429.288,60.438,401.91,60.438z"/>
	</g>
</g>
<g>
</g>
<g>
</g>
<g>
</g>
<g>
</g>
<g>
</g>
<g>
</g>
<g>
</g>
<g>
</g>
<g>
</g>
<g>
</g>
<g>
</g>
<g>
</g>
<g>
</g>
<g>
</g>
<g>
</g>
</svg>
