<?xml version="1.0" encoding="iso-8859-1"?>
<!-- Generator: Adobe Illustrator 19.0.0, SVG Export Plug-In . SVG Version: 6.00 Build 0)  -->
<svg version="1.1" id="Capa_1" xmlns="http://www.w3.org/2000/svg" xmlns:xlink="http://www.w3.org/1999/xlink" x="0px" y="0px"
	 viewBox="0 0 512.002 512.002" style="enable-background:new 0 0 512.002 512.002;" xml:space="preserve">
<g>
	<g>
		<path d="M432.734,240.972h79.265C504.506,111.31,400.69,7.494,271.026,0v113.105l-16.11-1.165
			c-9.717-0.703-19.749-2.73-29.817-6.025c-2.741-0.897-5.63-1.262-8.574-1.09c-11.286,0.668-20.732,10.019-21.51,21.287
			c-0.447,6.477,1.727,12.637,6.121,17.343c4.399,4.713,10.37,7.308,16.811,7.308c2.514,0,4.98-0.4,7.326-1.189
			c10.016-3.368,20.024-5.396,29.747-6.032l16.006-1.045v98.473h64.754c-0.538-2.031-1.152-4.072-1.842-6.123
			c-2.32-6.899-3.183-14.12-2.564-21.462c2.067-24.515,21.281-44.702,45.687-48.001c15.249-2.061,30.621,2.619,42.185,12.839
			c11.621,10.27,18.189,24.965,18.019,40.318c-0.06,5.428-0.941,10.778-2.619,15.904
			C433.929,236.633,433.292,238.81,432.734,240.972z"/>
	</g>
</g>
<g>
	<g>
		<path d="M214.749,74.825c6.73-0.399,13.356,0.452,19.698,2.526c2.188,0.716,4.365,1.353,6.527,1.911V0
			C111.31,7.494,7.494,111.31,0,240.974h113.105l-1.165,16.11c-0.703,9.719-2.731,19.751-6.026,29.817
			c-0.898,2.743-1.264,5.631-1.089,8.58c0.671,11.285,10.026,20.731,21.296,21.505c6.468,0.439,12.633-1.731,17.338-6.125
			c4.711-4.399,7.306-10.369,7.306-16.81c0-2.513-0.4-4.978-1.19-7.324c-3.367-10.017-5.397-20.025-6.032-29.749l-1.045-16.005
			h98.473V176.22c-2.031,0.539-4.072,1.153-6.123,1.842c-5.44,1.829-11.125,2.756-16.903,2.756
			c-14.648,0-28.782-6.143-38.781-16.855c-10.14-10.862-15.16-25.039-14.134-39.917C166.859,97.555,188.231,76.395,214.749,74.825z"
			/>
	</g>
</g>
<g>
	<g>
		<path d="M316.83,381.087c-1.427-10.562-10.151-18.875-20.742-19.768c-3.226-0.27-6.374,0.1-9.361,1.104
			c-10.014,3.367-20.022,5.396-29.747,6.032l-16.005,1.045v-98.473H176.22c0.538,2.031,1.152,4.072,1.842,6.123
			c1.829,5.439,2.757,11.126,2.757,16.903c0,14.644-6.141,28.776-16.848,38.775c-9.935,9.278-22.646,14.272-36.13,14.272
			c-1.252,0-2.51-0.043-3.775-0.129c-26.495-1.817-47.663-23.186-49.239-49.705c-0.399-6.733,0.45-13.363,2.525-19.709
			c0.716-2.188,1.354-4.366,1.912-6.529H0c7.494,129.663,111.31,233.48,240.974,240.974V398.895l16.11,1.165
			c9.718,0.703,19.751,2.73,29.817,6.025c2.211,0.723,4.528,1.104,6.887,1.13c6.592,0.075,12.982-2.795,17.467-7.869
			C315.754,394.254,317.734,387.77,316.83,381.087z"/>
	</g>
</g>
<g>
	<g>
		<path d="M398.895,271.027l1.165-16.111c0.702-9.714,2.73-19.746,6.026-29.816c0.724-2.212,1.104-4.529,1.13-6.888
			c0.073-6.616-2.795-12.981-7.869-17.466c-5.092-4.499-11.575-6.479-18.258-5.576c-10.562,1.428-18.874,10.152-19.767,20.744
			c-0.271,3.226,0.099,6.374,1.103,9.359c3.367,10.016,5.397,20.024,6.032,29.748l1.045,16.005h-98.473v64.754
			c2.03-0.539,4.072-1.153,6.123-1.842c6.9-2.32,14.12-3.184,21.462-2.563c24.515,2.067,44.702,21.281,48.001,45.688
			c2.061,15.244-2.619,30.62-12.839,42.184c-10.14,11.474-24.595,18.022-39.735,18.023c-0.194,0-0.389-0.001-0.584-0.003
			c-5.424-0.06-10.774-0.941-15.901-2.619c-2.188-0.716-4.364-1.353-6.527-1.912v79.265
			c129.663-7.494,233.48-111.31,240.974-240.974H398.895z"/>
	</g>
</g>
<g>
</g>
<g>
</g>
<g>
</g>
<g>
</g>
<g>
</g>
<g>
</g>
<g>
</g>
<g>
</g>
<g>
</g>
<g>
</g>
<g>
</g>
<g>
</g>
<g>
</g>
<g>
</g>
<g>
</g>
</svg>
