<?xml version="1.0" encoding="iso-8859-1"?>
<!-- Generator: Adobe Illustrator 19.0.0, SVG Export Plug-In . SVG Version: 6.00 Build 0)  -->
<svg version="1.1" id="Capa_1" xmlns="http://www.w3.org/2000/svg" xmlns:xlink="http://www.w3.org/1999/xlink" x="0px" y="0px"
	 viewBox="0 0 512.002 512.002" style="enable-background:new 0 0 512.002 512.002;" xml:space="preserve">
<g>
	<g>
		<path d="M338.991,269.738h-165.98c-35.374,0-64.152,28.778-64.152,64.152v178.112h294.284V333.889
			C403.142,298.516,374.364,269.738,338.991,269.738z"/>
	</g>
</g>
<g>
	<g>
		<path d="M346.201,36.993c-24.672-24.33-57.334-37.483-92.03-36.979c-69.91,0.975-126.719,58.668-126.636,128.607
			c0.035,29.82,10.522,58.867,29.53,81.79c7.347,8.86,13.269,18.766,17.656,29.327h39.886L191.32,139.135l26.969,11.757
			c2.961,1.116,16.879,5.479,25.057-7.373l12.655-19.887l12.655,19.887c8.179,12.854,22.097,8.489,25.057,7.373l27.274-11.886
			l-7.028,29.172l-16.565,71.559h40.117c4.507-10.738,10.602-20.94,18.155-30.214c18.572-22.809,28.801-51.595,28.801-81.056
			C384.467,93.814,370.877,61.328,346.201,36.993z M323.123,123.631c0-34.27-27.88-62.15-62.15-62.15v-30
			c50.812,0,92.15,41.338,92.15,92.15H323.123z"/>
	</g>
</g>
<g>
	<g>
		<path d="M255.999,173.382c-7.601,5.585-15.993,8.123-23.914,8.833l13.315,57.522h21.201l13.315-57.522
			C271.994,181.506,263.603,178.968,255.999,173.382z"/>
	</g>
</g>
<g>
</g>
<g>
</g>
<g>
</g>
<g>
</g>
<g>
</g>
<g>
</g>
<g>
</g>
<g>
</g>
<g>
</g>
<g>
</g>
<g>
</g>
<g>
</g>
<g>
</g>
<g>
</g>
<g>
</g>
</svg>
