<?xml version="1.0" encoding="iso-8859-1"?>
<!-- Generator: Adobe Illustrator 19.0.0, SVG Export Plug-In . SVG Version: 6.00 Build 0)  -->
<svg version="1.1" id="Capa_1" xmlns="http://www.w3.org/2000/svg" xmlns:xlink="http://www.w3.org/1999/xlink" x="0px" y="0px"
	 viewBox="0 0 512 512" style="enable-background:new 0 0 512 512;" xml:space="preserve">
<g>
	<g>
		<path d="M256,187.343c-34.6,0-62.75,28.149-62.75,62.75s28.149,62.75,62.75,62.75s62.75-28.149,62.75-62.75
			S290.6,187.343,256,187.343z"/>
	</g>
</g>
<g>
	<g>
		<path d="M314.386,332.669H197.614c-27.337,0-49.579,22.241-49.579,49.579V512h215.929V382.248
			C363.964,354.91,341.723,332.669,314.386,332.669z"/>
	</g>
</g>
<g>
	<g>
		<path d="M502.131,178.825l-157.795-41.612L256,0l-88.336,137.212L9.869,178.825l103.2,126.414l-9.186,162.931l14.154-5.498
			v-80.424c0-38.145,26.984-70.095,62.862-77.797c-11.094-15.285-17.648-34.069-17.648-54.359c0-51.142,41.607-92.749,92.749-92.749
			c51.142,0,92.749,41.607,92.749,92.749c0,20.289-6.553,39.073-17.648,54.359c35.878,7.703,62.862,39.651,62.862,77.797v80.424
			l14.154,5.498l-9.186-162.931L502.131,178.825z"/>
	</g>
</g>
<g>
</g>
<g>
</g>
<g>
</g>
<g>
</g>
<g>
</g>
<g>
</g>
<g>
</g>
<g>
</g>
<g>
</g>
<g>
</g>
<g>
</g>
<g>
</g>
<g>
</g>
<g>
</g>
<g>
</g>
</svg>
