<?xml version="1.0" encoding="iso-8859-1"?>
<!-- Generator: Adobe Illustrator 19.0.0, SVG Export Plug-In . SVG Version: 6.00 Build 0)  -->
<svg version="1.1" id="Capa_1" xmlns="http://www.w3.org/2000/svg" xmlns:xlink="http://www.w3.org/1999/xlink" x="0px" y="0px"
	 viewBox="0 0 512 512" style="enable-background:new 0 0 512 512;" xml:space="preserve">
<g>
	<g>
		<polygon points="72.028,36.997 72.028,229.864 102.028,229.864 102.028,66.997 169.477,66.997 169.477,36.997 		"/>
	</g>
</g>
<g>
	<g>
		<polygon points="342.523,36.997 342.523,66.997 409.972,66.997 409.972,229.864 439.972,229.864 439.972,36.997 		"/>
	</g>
</g>
<g>
	<g>
		<rect x="213.85" y="431.83" width="84.29" height="30"/>
	</g>
</g>
<g>
	<g>
		<path d="M301.237,112.598h-90.473c-23.044,0-41.792,18.748-41.792,41.792v103.909h174.057V154.39
			C343.029,131.346,324.281,112.598,301.237,112.598z"/>
	</g>
</g>
<g>
	<g>
		<path d="M256.01,0c-25.837,0-46.858,21.02-46.858,46.858c0,25.837,21.021,46.857,46.858,46.857
			c25.837,0,46.858-21.02,46.858-46.857C302.868,21.02,281.847,0,256.01,0z"/>
	</g>
</g>
<g>
	<g>
		<path d="M132.265,366.299H41.792C18.748,366.299,0,385.047,0,408.091V512h174.057V408.091
			C174.057,385.047,155.309,366.299,132.265,366.299z"/>
	</g>
</g>
<g>
	<g>
		<path d="M87.038,253.701c-25.837,0-46.858,21.02-46.858,46.858c0,25.837,21.021,46.857,46.858,46.857
			c25.837,0,46.858-21.02,46.858-46.857C133.896,274.721,112.875,253.701,87.038,253.701z"/>
	</g>
</g>
<g>
	<g>
		<path d="M470.208,366.299h-90.473c-23.044,0-41.792,18.748-41.792,41.792V512H512V408.091
			C512,385.047,493.252,366.299,470.208,366.299z"/>
	</g>
</g>
<g>
	<g>
		<path d="M424.982,253.701c-25.837,0-46.858,21.02-46.858,46.858c0,25.837,21.021,46.857,46.858,46.857
			c25.837,0,46.858-21.02,46.858-46.857C471.84,274.721,450.819,253.701,424.982,253.701z"/>
	</g>
</g>
<g>
</g>
<g>
</g>
<g>
</g>
<g>
</g>
<g>
</g>
<g>
</g>
<g>
</g>
<g>
</g>
<g>
</g>
<g>
</g>
<g>
</g>
<g>
</g>
<g>
</g>
<g>
</g>
<g>
</g>
</svg>
