<?xml version="1.0" encoding="iso-8859-1"?>
<!-- Generator: Adobe Illustrator 19.0.0, SVG Export Plug-In . SVG Version: 6.00 Build 0)  -->
<svg version="1.1" id="Capa_1" xmlns="http://www.w3.org/2000/svg" xmlns:xlink="http://www.w3.org/1999/xlink" x="0px" y="0px"
	 viewBox="0 0 512 512" style="enable-background:new 0 0 512 512;" xml:space="preserve">
<g>
	<g>
		<path d="M76.067,338.915l-56.203,56.203L136.746,512l56.203-56.203L76.067,338.915z M147.234,479.599
			c-7.353,0-13.314-5.961-13.314-13.314c-0.001-7.354,5.96-13.314,13.314-13.314c7.353,0,13.314,5.961,13.314,13.314
			C160.548,473.638,154.587,479.599,147.234,479.599z"/>
	</g>
</g>
<g>
	<g>
		<path d="M480.883,211.462c-13.992-13.031-36.02-12.029-49.54,1.491l-78.219,78.219l-0.157,0.023
			c3.245-5.047,5.227-10.963,5.455-17.358c0.713-20.061-15.338-36.548-35.239-36.548h-84.388c-24.075,0-47.163,9.564-64.186,26.587
			l-65.406,65.406l78.103,78.103l13.889-13.889h111.742c24.074,0,47.163-9.564,64.186-26.587l104.685-104.685
			C495.881,248.15,495.573,225.143,480.883,211.462z"/>
	</g>
</g>
<g>
	<g>
		<path d="M392.502,116.859c-2.542-10.419-6.657-20.221-12.08-29.141l25.768-31.872L377.403,27.06l-31.872,25.768
			c-8.92-5.423-18.722-9.538-29.141-12.08L312.076,0h-40.711l-4.315,40.748c-10.419,2.542-20.221,6.657-29.141,12.08L206.037,27.06
			L177.25,55.847l25.768,31.872c-5.423,8.92-9.538,18.722-12.08,29.141l-40.748,4.315v40.711l40.748,4.315
			c2.542,10.418,6.657,20.22,12.08,29.14l-21.205,26.228c3.487-1.863,7.077-3.56,10.764-5.087c14.727-6.1,30.277-9.193,46.218-9.193
			h84.388c17.872,0,34.55,7.083,46.962,19.945c0.738,0.765,1.456,1.545,2.152,2.338l19.796-19.796l-11.671-14.435
			c5.423-8.92,9.538-18.722,12.08-29.141l40.748-4.315v-40.711L392.502,116.859z M291.72,189.222
			c-26.34,0-47.692-21.352-47.692-47.692c0-26.34,21.353-47.692,47.692-47.692s47.692,21.352,47.692,47.692
			C339.412,167.87,318.06,189.222,291.72,189.222z"/>
	</g>
</g>
<g>
</g>
<g>
</g>
<g>
</g>
<g>
</g>
<g>
</g>
<g>
</g>
<g>
</g>
<g>
</g>
<g>
</g>
<g>
</g>
<g>
</g>
<g>
</g>
<g>
</g>
<g>
</g>
<g>
</g>
</svg>
