<?xml version="1.0" encoding="iso-8859-1"?>
<!-- Generator: Adobe Illustrator 19.0.0, SVG Export Plug-In . SVG Version: 6.00 Build 0)  -->
<svg version="1.1" id="Capa_1" xmlns="http://www.w3.org/2000/svg" xmlns:xlink="http://www.w3.org/1999/xlink" x="0px" y="0px"
	 viewBox="0 0 512 512" style="enable-background:new 0 0 512 512;" xml:space="preserve">
<g>
	<g>
		<path d="M512,292.82v-73.64l-73.705-7.805c-4.597-18.846-12.041-36.576-21.85-52.71l46.61-57.65l-52.071-52.071l-57.65,46.61
			c-16.134-9.809-33.865-17.253-52.711-21.85L292.82,0h-73.64l-7.804,73.705c-18.846,4.597-36.577,12.041-52.711,21.85l-57.65-46.61
			l-52.071,52.071l46.61,57.65c-9.809,16.134-17.253,33.865-21.85,52.71L0,219.18v73.639l73.705,7.805
			c4.597,18.846,12.041,36.576,21.85,52.71l-46.61,57.65l52.071,52.071l57.65-46.61c16.134,9.809,33.865,17.253,52.711,21.85
			L219.18,512h73.639l7.804-73.705c18.846-4.597,36.577-12.041,52.711-21.85l57.65,46.61l52.071-52.071l-46.61-57.65
			c9.809-16.134,17.253-33.865,21.85-52.71L512,292.82z M363.846,176.415l15,25.98l-24.51,14.151l-15-25.98L363.846,176.415z
			 M241,122.81h30v28.301h-30V122.81z M202.395,133.154l14.151,24.51l-25.98,15l-14.151-24.51L202.395,133.154z M122.81,241h28.301
			v30H122.81V241z M148.154,335.585l-15-25.98l24.51-14.151l15,25.98L148.154,335.585z M157.664,216.546l-24.51-14.151l15-25.98
			l24.51,14.151L157.664,216.546z M202.395,378.846l-25.98-15l14.151-24.51l25.98,15L202.395,378.846z M271,389.19h-30v-28.301h30
			V389.19z M264.66,271h-57.427v-30h40.106l34.767-60.217l25.98,15L264.66,271z M309.605,378.846l-14.151-24.51l25.98-15
			l14.151,24.51L309.605,378.846z M321.435,172.664l-25.98-15l14.151-24.51l25.98,15L321.435,172.664z M363.846,335.585
			l-24.51-14.151l15-25.98l24.51,14.151L363.846,335.585z M389.19,271h-28.301v-30h28.301V271z"/>
	</g>
</g>
<g>
</g>
<g>
</g>
<g>
</g>
<g>
</g>
<g>
</g>
<g>
</g>
<g>
</g>
<g>
</g>
<g>
</g>
<g>
</g>
<g>
</g>
<g>
</g>
<g>
</g>
<g>
</g>
<g>
</g>
</svg>
