<?xml version="1.0" encoding="iso-8859-1"?>
<!-- Generator: Adobe Illustrator 19.0.0, SVG Export Plug-In . SVG Version: 6.00 Build 0)  -->
<svg version="1.1" id="Capa_1" xmlns="http://www.w3.org/2000/svg" xmlns:xlink="http://www.w3.org/1999/xlink" x="0px" y="0px"
	 viewBox="0 0 512 512" style="enable-background:new 0 0 512 512;" xml:space="preserve">
<g>
	<g>
		<path d="M310.191,132.404V68.307c15.411,2.934,37.869,4.582,56.589-4.531c31.985-15.569,40.933-56.654,40.933-56.654
			S364.804-8.72,332.82,6.85c-20.965,10.205-32.033,31.373-37.171,44.747c-5.138-13.374-16.205-34.542-37.171-44.747
			c-31.985-15.569-74.893,0.272-74.893,0.272s8.949,41.085,40.933,56.654c18.352,8.933,40.296,7.525,55.672,4.702v63.94
			c-50.693,6.245-91.784,43.491-103.729,92.191c5.135-3.091,10.513-5.806,16.116-8.127c14.727-6.1,30.277-9.193,46.218-9.193h84.388
			c17.872,0,34.55,7.083,46.962,19.945c0.738,0.765,1.456,1.545,2.152,2.338l31.787-31.787
			C385.912,162.602,351.176,137.379,310.191,132.404z"/>
	</g>
</g>
<g>
	<g>
		<path d="M76.067,338.915l-56.203,56.203L136.746,512l56.203-56.203L76.067,338.915z M147.234,479.598
			c-7.353,0-13.314-5.961-13.314-13.314c-0.001-7.353,5.96-13.314,13.314-13.314c7.353,0,13.314,5.961,13.314,13.314
			C160.548,473.637,154.587,479.598,147.234,479.598z"/>
	</g>
</g>
<g>
	<g>
		<path d="M480.883,211.462c-13.992-13.031-36.02-12.029-49.54,1.491l-78.219,78.219l-0.157,0.023
			c3.245-5.047,5.227-10.963,5.454-17.358c0.713-20.061-15.337-36.548-35.239-36.548h-84.388c-24.075,0-47.163,9.564-64.186,26.587
			l-65.406,65.406l78.103,78.103l13.889-13.889h111.742c24.075,0,47.163-9.564,64.186-26.587l104.685-104.685
			C495.881,248.15,495.572,225.143,480.883,211.462z"/>
	</g>
</g>
<g>
</g>
<g>
</g>
<g>
</g>
<g>
</g>
<g>
</g>
<g>
</g>
<g>
</g>
<g>
</g>
<g>
</g>
<g>
</g>
<g>
</g>
<g>
</g>
<g>
</g>
<g>
</g>
<g>
</g>
</svg>
