<?xml version="1.0" encoding="iso-8859-1"?>
<!-- Generator: Adobe Illustrator 19.0.0, SVG Export Plug-In . SVG Version: 6.00 Build 0)  -->
<svg version="1.1" id="Capa_1" xmlns="http://www.w3.org/2000/svg" xmlns:xlink="http://www.w3.org/1999/xlink" x="0px" y="0px"
	 viewBox="0 0 512 512" style="enable-background:new 0 0 512 512;" xml:space="preserve">
<g>
	<g>
		<path d="M76.067,338.915l-56.203,56.203L136.746,512l56.203-56.203L76.067,338.915z M147.234,479.599
			c-7.353,0-13.314-5.961-13.314-13.314c-0.001-7.354,5.96-13.314,13.314-13.314c7.353,0,13.314,5.961,13.314,13.314
			C160.548,473.638,154.587,479.599,147.234,479.599z"/>
	</g>
</g>
<g>
	<g>
		<path d="M480.883,211.462c-13.992-13.031-36.02-12.029-49.54,1.491l-78.219,78.219l-0.157,0.023
			c3.245-5.047,5.227-10.963,5.454-17.358c0.713-20.061-15.337-36.548-35.239-36.548h-84.388c-24.075,0-47.163,9.564-64.186,26.587
			l-65.406,65.406l78.103,78.103l13.889-13.889h111.742c24.075,0,47.163-9.564,64.186-26.587l104.685-104.685
			C495.881,248.15,495.572,225.143,480.883,211.462z"/>
	</g>
</g>
<g>
	<g>
		<path d="M291.72,0c-79.9,0-144.67,64.771-144.67,144.671c0,30.573,9.495,58.924,25.681,82.286
			c6.244-4.08,12.869-7.585,19.846-10.475c14.727-6.1,30.277-9.193,46.218-9.193h84.388c17.872,0,34.55,7.083,46.962,19.945
			c0.242,0.251,0.469,0.513,0.707,0.768l3.637-0.621l35.641-35.641c6.458-6.457,14.211-11.464,22.627-14.796
			c2.365-10.38,3.634-21.177,3.634-32.273C436.391,64.771,371.62,0,291.72,0z M291.72,99.001c21.025,0,38.131,17.105,38.131,38.131
			c0,15.702-9.542,29.214-23.131,35.052v12.791h-30v-12.791c-13.589-5.837-23.131-19.35-23.131-35.052h30
			c0,4.483,3.647,8.131,8.131,8.131s8.131-3.647,8.131-8.131c0-4.484-3.647-8.131-8.131-8.131
			c-21.025,0-38.131-17.105-38.131-38.131c0-15.702,9.542-29.214,23.131-35.052V43.027h30v12.791
			c13.589,5.837,23.131,19.35,23.131,35.052h-30c0-4.483-3.647-8.131-8.131-8.131s-8.131,3.647-8.131,8.131
			S287.236,99.001,291.72,99.001z"/>
	</g>
</g>
<g>
</g>
<g>
</g>
<g>
</g>
<g>
</g>
<g>
</g>
<g>
</g>
<g>
</g>
<g>
</g>
<g>
</g>
<g>
</g>
<g>
</g>
<g>
</g>
<g>
</g>
<g>
</g>
<g>
</g>
</svg>
