<?xml version="1.0" encoding="iso-8859-1"?>
<!-- Generator: Adobe Illustrator 19.0.0, SVG Export Plug-In . SVG Version: 6.00 Build 0)  -->
<svg version="1.1" id="Capa_1" xmlns="http://www.w3.org/2000/svg" xmlns:xlink="http://www.w3.org/1999/xlink" x="0px" y="0px"
	 viewBox="0 0 512 512" style="enable-background:new 0 0 512 512;" xml:space="preserve">
<g>
	<g>
		<path d="M460.818,379.637v-81.493H271V244h72.435v-88.823c0-23.127-18.815-41.943-41.943-41.943h-90.983
			c-23.127,0-41.943,18.815-41.943,41.943V244H241v54.145H51.182v81.493H0V512h132.363V379.637H81.182v-51.493H241v51.493h-51.182
			V512h132.363V379.637H271v-51.493h159.818v51.493h-51.181V512H512V379.637H460.818z"/>
	</g>
</g>
<g>
	<g>
		<path d="M256,0c-25.837,0-46.857,21.02-46.857,46.857c0,25.838,21.02,46.858,46.857,46.858c25.837,0,46.857-21.02,46.857-46.858
			C302.857,21.02,281.837,0,256,0z"/>
	</g>
</g>
<g>
</g>
<g>
</g>
<g>
</g>
<g>
</g>
<g>
</g>
<g>
</g>
<g>
</g>
<g>
</g>
<g>
</g>
<g>
</g>
<g>
</g>
<g>
</g>
<g>
</g>
<g>
</g>
<g>
</g>
</svg>
