<?xml version="1.0" encoding="iso-8859-1"?>
<!-- Generator: Adobe Illustrator 19.0.0, SVG Export Plug-In . SVG Version: 6.00 Build 0)  -->
<svg version="1.1" id="Capa_1" xmlns="http://www.w3.org/2000/svg" xmlns:xlink="http://www.w3.org/1999/xlink" x="0px" y="0px"
	 viewBox="0 0 512 512" style="enable-background:new 0 0 512 512;" xml:space="preserve">
<g>
	<g>
		<polygon points="460.818,322.493 460.818,241 271,241 271,189.507 322.182,189.507 322.182,57.145 189.818,57.145 
			189.818,189.507 241,189.507 241,241 51.182,241 51.182,322.493 0,322.493 0,454.855 132.363,454.855 132.363,322.493 
			81.182,322.493 81.182,271 241,271 241,322.493 189.818,322.493 189.818,454.855 322.182,454.855 322.182,322.493 271,322.493 
			271,271 430.818,271 430.818,322.493 379.637,322.493 379.637,454.855 512,454.855 512,322.493 		"/>
	</g>
</g>
<g>
</g>
<g>
</g>
<g>
</g>
<g>
</g>
<g>
</g>
<g>
</g>
<g>
</g>
<g>
</g>
<g>
</g>
<g>
</g>
<g>
</g>
<g>
</g>
<g>
</g>
<g>
</g>
<g>
</g>
</svg>
