<?xml version="1.0" encoding="iso-8859-1"?>
<!-- Generator: Adobe Illustrator 19.0.0, SVG Export Plug-In . SVG Version: 6.00 Build 0)  -->
<svg version="1.1" id="Capa_1" xmlns="http://www.w3.org/2000/svg" xmlns:xlink="http://www.w3.org/1999/xlink" x="0px" y="0px"
	 viewBox="0 0 512 512" style="enable-background:new 0 0 512 512;" xml:space="preserve">
<g>
	<g>
		<path d="M286.167,35.009c-27.162,0-34.569-33.875-69.616-33.875H45.856c-12.663,0-22.928,10.265-22.928,22.928
			c0,12.663,10.265,22.928,22.928,22.928h-7.643c-12.663,0-22.928,10.265-22.928,22.928c0,12.663,10.265,22.928,22.928,22.928H30.57
			c-12.663,0-22.928,10.265-22.928,22.928c0,12.663,10.265,22.928,22.928,22.928h-7.643C10.265,138.703,0,148.969,0,161.631
			s10.265,22.928,22.928,22.928H165.88v35.794H35.011v5.477c0,27.162-33.875,34.569-33.875,69.615v170.696
			c0,12.663,10.265,22.928,22.928,22.928c12.663,0,22.928-10.265,22.928-22.928v7.643c0,12.663,10.265,22.928,22.928,22.928
			c12.663,0,22.928-10.265,22.928-22.928v7.643c0,12.663,10.265,22.928,22.928,22.928s22.928-10.265,22.928-22.928v7.643
			c0,12.663,10.265,22.928,22.928,22.928c12.663,0,22.928-10.265,22.928-22.928V346.118h35.794v-28.22h0.001
			c0-46.349-54.475-56.146-54.475-92.067v-5.477h28.22c46.349,0,56.146-54.475,92.067-54.475h5.477V35.009H286.167z"/>
	</g>
</g>
<g>
	<g>
		<path d="M512,350.369c0-12.663-10.265-22.928-22.928-22.928H346.12v-35.794h130.87v-5.477c0-27.162,33.875-34.569,33.875-69.615
			V45.858c0-12.663-10.265-22.928-22.928-22.928c-12.663,0-22.928,10.265-22.928,22.928v-7.643
			c0-12.663-10.265-22.928-22.928-22.928c-12.663,0-22.928,10.265-22.928,22.928v-7.643c0-12.663-10.265-22.928-22.928-22.928
			c-12.663,0-22.928,10.265-22.928,22.928V22.93c0-12.663-10.265-22.928-22.928-22.928c-12.663,0-22.928,10.265-22.928,22.928
			v142.952h-35.794v28.22c0,46.349,54.475,56.146,54.475,92.067v5.477H317.9c-46.349,0-56.146,54.475-92.067,54.475h-5.477v130.87
			h5.477c27.162,0,34.569,33.875,69.616,33.875h170.695c12.663,0,22.928-10.265,22.928-22.928c0-12.663-10.265-22.928-22.928-22.928
			h7.643c12.663,0,22.928-10.265,22.928-22.928c0-12.663-10.265-22.928-22.928-22.928h7.643c12.663,0,22.928-10.265,22.928-22.928
			c0-12.663-10.265-22.928-22.928-22.928h7.643C501.735,373.297,512,363.031,512,350.369z"/>
	</g>
</g>
<g>
</g>
<g>
</g>
<g>
</g>
<g>
</g>
<g>
</g>
<g>
</g>
<g>
</g>
<g>
</g>
<g>
</g>
<g>
</g>
<g>
</g>
<g>
</g>
<g>
</g>
<g>
</g>
<g>
</g>
</svg>
