<?xml version="1.0" encoding="iso-8859-1"?>
<!-- Generator: Adobe Illustrator 19.0.0, SVG Export Plug-In . SVG Version: 6.00 Build 0)  -->
<svg version="1.1" id="Layer_1" xmlns="http://www.w3.org/2000/svg" xmlns:xlink="http://www.w3.org/1999/xlink" x="0px" y="0px"
	 viewBox="0 0 512 512" style="enable-background:new 0 0 512 512;" xml:space="preserve">
<path style="fill:#7DF5A5;" d="M127.733,8.017H93.528c-4.722,0-8.551,3.829-8.551,8.551v359.148h51.307V16.568
	C136.284,11.845,132.455,8.017,127.733,8.017z"/>
<path style="fill:#64DCA0;" d="M136.284,375.716H110.63V8.017h17.102c4.722,0,8.551,3.829,8.551,8.551V375.716z"/>
<path style="fill:#7DF5A5;" d="M384.267,8.017h34.205c4.722,0,8.551,3.829,8.551,8.551v359.148h-51.307V16.568
	C375.716,11.845,379.545,8.017,384.267,8.017z"/>
<path style="fill:#64DCA0;" d="M375.716,375.716h25.653V8.017h-17.102c-4.722,0-8.551,3.829-8.551,8.551V375.716z"/>
<path style="fill:#00C3FF;" d="M340.187,503.983H171.813c-55.65,0-99.133-48.049-93.596-103.422l30.874-308.735
	c0.874-8.742,8.232-15.401,17.018-15.401h259.784c8.786,0,16.144,6.658,17.018,15.401l30.874,308.735
	C439.321,455.934,395.837,503.983,340.187,503.983z"/>
<path style="fill:#00AAF0;" d="M385.892,76.426h-1.625H126.108l0,0c-1.221,0-2.402,0.156-3.553,0.4
	c-0.063,0.014-0.12,0.038-0.182,0.052c-7.053,1.581-12.537,7.484-13.284,14.948L78.217,400.563
	c-5.537,55.373,37.946,103.421,93.596,103.421h144.045c18.891,0,34.205-15.314,34.205-34.205V350.063H165.597
	c-10.037,0-17.916-8.602-17.036-18.601l4.742-53.873c0.608-6.911,8.469-10.925,14.179-6.984c17.874,12.335,39.501,19.6,62.865,19.6
	h51.307c61.395,0,111.165-49.77,111.165-111.165V77.946C390.689,76.997,388.359,76.426,385.892,76.426z"/>
<path style="fill:#FFDC64;" d="M281.653,264.551h-51.307c-47.227,0-85.511-38.285-85.511-85.511V76.426h222.33V179.04
	C367.165,226.267,328.88,264.551,281.653,264.551z"/>
<path style="fill:#FFC850;" d="M273.102,230.347h-34.205c-4.722,0-8.551,3.829-8.551,8.551v51.307
	c0,14.168,11.485,25.653,25.653,25.653l0,0c14.168,0,25.653-11.485,25.653-25.653v-51.307
	C281.653,234.175,277.825,230.347,273.102,230.347z"/>
<path style="fill:#7DF5A5;" d="M341.512,469.779H170.489c-4.722,0-8.551-3.829-8.551-8.551V358.614c0-4.722,3.829-8.551,8.551-8.551
	h171.023c4.722,0,8.551,3.829,8.551,8.551v102.614C350.063,465.95,346.234,469.779,341.512,469.779z"/>
<path style="fill:#FFDC64;" d="M341.512,350.063H170.489c-4.722,0-8.551,3.829-8.551,8.551v25.653h188.125v-25.653
	C350.063,353.891,346.234,350.063,341.512,350.063z"/>
<path style="fill:#FFC850;" d="M157.979,224.446L170.78,78.999c0.078-0.887,0.253-1.735,0.445-2.574h-26.39v102.614
	C144.835,195.743,149.699,211.279,157.979,224.446z"/>
<path style="fill:#E1A546;" d="M256,315.858L256,315.858c-14.168,0-25.653-11.485-25.653-25.653l0,0
	c0-4.722,3.829-8.551,8.551-8.551h34.205c4.722,0,8.551,3.829,8.551,8.551l0,0C281.653,304.373,270.168,315.858,256,315.858z"/>
<rect x="161.937" y="384.267" style="fill:#64DCA0;" width="188.125" height="17.102"/>
<circle style="fill:#FF507D;" cx="256" cy="153.386" r="42.756"/>
<path d="M441.76,399.764l-6.72-67.203V16.568C435.04,7.432,427.608,0,418.472,0h-34.205c-9.136,0-16.568,7.432-16.568,16.568v51.841
	h-52.376v-9.086c0-23.281-18.941-42.221-42.221-42.221h-34.205c-23.281,0-42.221,18.941-42.221,42.221v9.086h-52.376V16.568
	C144.301,7.432,136.869,0,127.733,0H93.528C84.392,0,76.96,7.432,76.96,16.568v315.993l-6.72,67.203
	c-2.865,28.642,6.57,57.31,25.885,78.652C115.441,499.759,143.028,512,171.813,512h168.374c28.785,0,56.372-12.241,75.687-33.584
	C435.189,457.074,444.624,428.405,441.76,399.764z M383.733,16.568c0-0.295,0.239-0.534,0.534-0.534h34.205
	c0.295,0,0.534,0.239,0.534,0.534v155.657l-8.119-81.196c-1.29-12.894-12.035-22.619-24.995-22.619h-2.159V16.568z M212.71,59.324
	c0-14.44,11.748-26.188,26.188-26.188h34.205c14.44,0,26.188,11.748,26.188,26.188v9.086h-86.58V59.324z M92.994,16.568
	c0-0.295,0.239-0.534,0.534-0.534h34.205c0.295,0,0.534,0.239,0.534,0.534v51.841h-2.159c-12.96,0-23.705,9.725-24.995,22.62
	l-8.119,81.195V16.568z M403.986,467.658c-16.281,17.991-39.535,28.309-63.799,28.309H171.813
	c-24.264,0-47.518-10.318-63.799-28.309s-24.234-42.156-21.819-66.299l30.873-308.735c0.466-4.664,4.353-8.181,9.041-8.181h10.165
	c0.003,0,0.006,0,0.011,0c0.004,0,0.006,0,0.011,0h0.524v94.597c0,48.871,37.678,89.101,85.511,93.181v17.984
	c0,18.566,15.105,33.67,33.67,33.67c18.566,0,33.67-15.105,33.67-33.67V272.22c47.833-4.08,85.511-44.31,85.511-93.181v-34.205
	c0-4.427-3.589-8.017-8.017-8.017c-4.427,0-8.017,3.589-8.017,8.017v34.205c0,40.024-30.5,73.056-69.478,77.081v-17.223
	c0-9.136-7.432-16.568-16.568-16.568h-34.205c-9.136,0-16.568,7.432-16.568,16.568v17.223
	c-38.978-4.024-69.478-37.056-69.478-77.081V84.443h206.296v26.188c0,4.427,3.589,8.017,8.017,8.017
	c4.427,0,8.017-3.589,8.017-8.017V84.443h0.524c0.003,0,0.006,0,0.011,0s0.006,0,0.011,0h10.165c4.688,0,8.575,3.518,9.041,8.181
	l30.873,308.735C428.22,425.502,420.268,449.667,403.986,467.658z M238.363,289.67h35.273v0.534c0,9.725-7.912,17.637-17.637,17.637
	c-9.725,0-17.637-7.912-17.637-17.637V289.67z M273.637,273.637h-35.273v-34.739c0-0.295,0.239-0.534,0.534-0.534h34.205
	c0.295,0,0.534,0.239,0.534,0.534V273.637z"/>
<path d="M341.512,342.046H170.489c-9.136,0-16.568,7.432-16.568,16.568v102.614c0,9.136,7.432,16.568,16.568,16.568h171.023
	c9.136,0,16.568-7.432,16.568-16.568V358.614C358.079,349.478,350.647,342.046,341.512,342.046z M342.046,461.228
	c0,0.295-0.239,0.534-0.534,0.534H170.489c-0.295,0-0.534-0.239-0.534-0.534V358.614c0-0.295,0.239-0.534,0.534-0.534h171.023
	c0.295,0,0.534,0.239,0.534,0.534V461.228z"/>
<path d="M315.858,376.251H196.142c-4.427,0-8.017,3.589-8.017,8.017c0,4.427,3.589,8.017,8.017,8.017h119.716
	c4.427,0,8.017-3.589,8.017-8.017C323.875,379.84,320.285,376.251,315.858,376.251z"/>
<path d="M256,102.614c-27.995,0-50.772,22.777-50.772,50.772s22.777,50.772,50.772,50.772s50.772-22.777,50.772-50.772
	S283.995,102.614,256,102.614z M290.739,153.386c0,4.41-0.835,8.626-2.34,12.51l-24.383-24.381v-21.923
	C279.318,123.221,290.739,136.99,290.739,153.386z M247.983,187.181c-5.703-1.353-10.866-4.11-15.099-7.893l15.099-15.1V187.181z
	 M264.017,164.188l15.099,15.099c-4.234,3.783-9.397,6.539-15.099,7.893V164.188z M247.983,119.591v21.923l-24.383,24.383
	c-1.505-3.884-2.34-8.1-2.34-12.51C221.261,136.99,232.682,123.221,247.983,119.591z"/>
<g>
</g>
<g>
</g>
<g>
</g>
<g>
</g>
<g>
</g>
<g>
</g>
<g>
</g>
<g>
</g>
<g>
</g>
<g>
</g>
<g>
</g>
<g>
</g>
<g>
</g>
<g>
</g>
<g>
</g>
</svg>
