<?xml version="1.0" encoding="iso-8859-1"?>
<!-- Generator: Adobe Illustrator 19.0.0, SVG Export Plug-In . SVG Version: 6.00 Build 0)  -->
<svg version="1.1" id="Layer_1" xmlns="http://www.w3.org/2000/svg" xmlns:xlink="http://www.w3.org/1999/xlink" x="0px" y="0px"
	 viewBox="0 0 512 512" style="enable-background:new 0 0 512 512;" xml:space="preserve">
<circle style="fill:#FFDC64;" cx="256" cy="213.244" r="59.858"/>
<circle style="fill:#FFC850;" cx="256" cy="50.772" r="17.102"/>
<path style="fill:#FF507D;" d="M273.102,435.574c0,42.756-17.102,68.409-17.102,68.409s-17.102-25.653-17.102-68.409
	c0-9.446,7.656-17.102,17.102-17.102C265.446,418.472,273.102,426.128,273.102,435.574z"/>
<path style="fill:#7DF5A5;" d="M256,238.898c-14.141,0-25.653-11.512-25.653-25.653c0-14.141,11.512-25.653,25.653-25.653
	s25.653,11.512,25.653,25.653C281.653,227.386,270.141,238.898,256,238.898z"/>
<g>
	<circle style="fill:#FFC850;" cx="256" cy="375.716" r="17.102"/>
	<circle style="fill:#FFC850;" cx="324.409" cy="367.165" r="17.102"/>
	<circle style="fill:#FFC850;" cx="187.591" cy="367.165" r="17.102"/>
</g>
<g>
	<path style="fill:#FF507D;" d="M341.511,427.023c0,42.756-17.102,59.858-17.102,59.858s-17.102-17.102-17.102-59.858
		c0-9.446,7.656-17.102,17.102-17.102C333.855,409.921,341.511,417.577,341.511,427.023z"/>
	<path style="fill:#FF507D;" d="M204.693,427.023c0,42.756-17.102,59.858-17.102,59.858s-17.102-17.102-17.102-59.858
		c0-9.446,7.656-17.102,17.102-17.102S204.693,417.577,204.693,427.023z"/>
</g>
<path d="M349.528,367.165c0-11.048-7.172-20.446-17.102-23.8v-27.836c31.127-23.317,51.307-60.489,51.307-102.286
	c0-67.739-53.005-123.321-119.716-127.474V74.572c9.93-3.354,17.102-12.752,17.102-23.8s-7.172-20.446-17.102-23.8V8.017
	C264.017,3.589,260.427,0,256,0c-4.427,0-8.017,3.589-8.017,8.017v18.956c-9.93,3.354-17.102,12.752-17.102,23.8
	s7.172,20.446,17.102,23.8v11.199c-66.711,4.153-119.716,59.735-119.716,127.474c0,41.797,20.18,78.968,51.307,102.286v27.836
	c-9.93,3.354-17.102,12.752-17.102,23.8c0,11.048,7.172,20.446,17.102,23.8v12.259c-9.93,3.354-17.102,12.752-17.102,23.8
	c0,18.861,3.109,35.42,9.242,49.218c4.744,10.672,9.663,15.763,10.208,16.308c1.503,1.504,3.542,2.348,5.668,2.348
	c2.126,0,4.165-0.844,5.668-2.348c0.545-0.545,5.465-5.636,10.208-16.308c6.134-13.801,9.244-30.361,9.244-49.221
	c0-11.048-7.172-20.446-17.102-23.8v-12.259c9.93-3.354,17.102-12.752,17.102-23.8c0-11.048-7.172-20.446-17.102-23.8V325.77
	c15.774,8.5,33.527,13.774,52.376,14.946v11.199c-9.93,3.354-17.102,12.752-17.102,23.8c0,11.048,7.172,20.446,17.102,23.8v12.259
	c-9.93,3.354-17.102,12.752-17.102,23.8c0,44.67,17.696,71.726,18.449,72.856c1.487,2.23,3.989,3.57,6.67,3.57
	c2.681,0,5.184-1.339,6.67-3.57c0.754-1.13,18.449-28.187,18.449-72.856c0-11.048-7.172-20.446-17.102-23.8v-12.259
	c9.93-3.354,17.102-12.752,17.102-23.8c0-11.048-7.172-20.446-17.102-23.8v-11.199c18.849-1.174,36.602-6.447,52.376-14.946v17.594
	c-9.93,3.354-17.102,12.752-17.102,23.8c0,11.048,7.172,20.446,17.102,23.8v12.259c-9.93,3.354-17.102,12.752-17.102,23.8
	c0,18.861,3.109,35.42,9.242,49.218c4.744,10.672,9.663,15.763,10.208,16.308c1.503,1.504,3.542,2.348,5.668,2.348
	s4.165-0.844,5.668-2.348c0.545-0.545,5.465-5.636,10.208-16.308c6.134-13.798,9.244-30.358,9.244-49.218
	c0-11.048-7.172-20.446-17.102-23.8v-12.259C342.356,387.611,349.528,378.213,349.528,367.165z M187.594,472.254
	c-4.17-8.419-9.089-23.051-9.089-45.231c0-5.01,4.076-9.086,9.086-9.086s9.086,4.076,9.086,9.086
	C196.676,449.213,191.753,463.851,187.594,472.254z M187.591,376.251c-5.01,0-9.086-4.076-9.086-9.086s4.076-9.086,9.086-9.086
	s9.086,4.076,9.086,9.086S192.601,376.251,187.591,376.251z M184.674,299.138c7.875-4.835,19.966-12.291,32.827-20.344
	c3.753-2.349,4.889-7.296,2.54-11.049c-2.348-3.752-7.295-4.89-11.049-2.54c-4.535,2.84-8.974,5.605-13.168,8.208
	c6.972-11.226,14.246-22.813,20.987-33.372c3.539,0.756,6.971,1.474,10.25,2.143c5.448,26.685,14.215,63.804,18.644,82.281
	C222.625,322.345,201.556,313.18,184.674,299.138z M341.898,284.565c-6.86-11.185-18.518-30.075-30.016-48.174
	c20.956-4.673,42.586-9.795,55.338-12.852C365.101,246.617,355.937,267.685,341.898,284.565z M316.186,273.432
	c-11.231-6.976-22.825-14.254-33.39-20.998c0.756-3.539,1.474-6.971,2.143-10.25c3.278-0.669,6.71-1.387,10.25-2.143
	C301.932,250.605,309.211,262.2,316.186,273.432z M296.927,213.244c1.845-2.791,3.764-5.726,5.732-8.763
	c12.239,2.701,25.584,5.754,38.458,8.763c-12.874,3.009-26.22,6.062-38.458,8.763C300.69,218.97,298.772,216.035,296.927,213.244z
	 M311.883,190.096c11.503-18.106,23.159-36.994,30.014-48.174c14.04,16.88,23.204,37.948,25.322,61.025
	C354.473,199.893,332.845,194.772,311.883,190.096z M291.959,158.744c2.349,3.753,7.296,4.891,11.049,2.54
	c4.535-2.84,8.974-5.605,13.168-8.208c-6.972,11.226-14.246,22.813-20.987,33.372c-3.539-0.756-6.971-1.474-10.25-2.143
	c-5.449-26.686-14.215-63.807-18.644-82.281c23.08,2.12,44.148,11.284,61.03,25.326c-7.876,4.836-19.971,12.294-32.827,20.344
	C290.745,150.045,289.609,154.991,291.959,158.744z M256,298.361c-4.176-17.87-8.436-36.643-11.724-52.103
	c5.659,3.928,12.749,8.629,20.485,13.645C262.062,272.141,259.009,285.487,256,298.361z M256,230.881
	c-9.725,0-17.637-7.912-17.637-17.637s7.912-17.637,17.637-17.637s17.637,7.912,17.637,17.637S265.725,230.881,256,230.881z
	 M256,128.127c4.176,17.87,8.436,36.643,11.724,52.103c-5.659-3.929-12.749-8.629-20.485-13.646
	C249.938,154.347,252.991,141.002,256,128.127z M232.852,157.361c-18.102-11.5-36.992-23.158-48.174-30.015
	c16.88-14.04,37.948-23.204,61.025-25.322C242.648,114.772,237.526,136.4,232.852,157.361z M229.204,174.055
	c-0.756,3.539-1.474,6.971-2.143,10.25c-3.278,0.669-6.711,1.387-10.25,2.143c-6.744-10.564-14.022-22.159-20.997-33.39
	C207.045,160.034,218.639,167.312,229.204,174.055z M215.073,213.244c-1.845,2.791-3.764,5.726-5.732,8.763
	c-12.239-2.701-25.584-5.754-38.458-8.763c12.874-3.009,26.22-6.062,38.458-8.763C211.31,207.518,213.228,210.453,215.073,213.244z
	 M200.117,236.392c-11.501,18.104-23.159,36.994-30.015,48.174c-14.04-16.88-23.204-37.948-25.322-61.025
	C157.525,226.595,179.151,231.717,200.117,236.392z M279.148,269.127c18.097,11.498,36.989,23.155,48.174,30.016
	c-16.88,14.04-37.948,23.204-61.025,25.322C269.353,311.712,274.475,290.082,279.148,269.127z M256,41.687
	c5.01,0,9.086,4.076,9.086,9.086s-4.076,9.086-9.086,9.086c-5.01,0-9.086-4.076-9.086-9.086S250.99,41.687,256,41.687z
	 M170.102,141.923c6.857,11.181,18.513,30.069,30.016,48.174c-20.961,4.674-42.59,9.796-55.338,12.852
	C146.899,179.871,156.063,158.803,170.102,141.923z M255.976,485.743c-4.292-10.968-9.062-28.12-9.062-50.169
	c0-5.01,4.076-9.086,9.086-9.086c5.01,0,9.086,4.076,9.086,9.086C265.086,457.506,260.28,474.722,255.976,485.743z M256,384.802
	c-5.01,0-9.086-4.076-9.086-9.086s4.076-9.086,9.086-9.086c5.01,0,9.086,4.076,9.086,9.086S261.01,384.802,256,384.802z
	 M324.409,358.079c5.01,0,9.086,4.076,9.086,9.086s-4.076,9.086-9.086,9.086s-9.086-4.076-9.086-9.086
	S319.399,358.079,324.409,358.079z M324.412,472.254c-4.17-8.419-9.089-23.051-9.089-45.231c0-5.01,4.076-9.086,9.086-9.086
	s9.086,4.076,9.086,9.086C333.495,449.213,328.571,463.851,324.412,472.254z"/>
<g>
</g>
<g>
</g>
<g>
</g>
<g>
</g>
<g>
</g>
<g>
</g>
<g>
</g>
<g>
</g>
<g>
</g>
<g>
</g>
<g>
</g>
<g>
</g>
<g>
</g>
<g>
</g>
<g>
</g>
</svg>
