<?xml version="1.0" encoding="iso-8859-1"?>
<!-- Generator: Adobe Illustrator 19.0.0, SVG Export Plug-In . SVG Version: 6.00 Build 0)  -->
<svg version="1.1" id="Layer_1" xmlns="http://www.w3.org/2000/svg" xmlns:xlink="http://www.w3.org/1999/xlink" x="0px" y="0px"
	 viewBox="0 0 512 512" style="enable-background:new 0 0 512 512;" xml:space="preserve">
<path style="fill:#FFF082;" d="M256,503.409c68.32,0,123.705-55.384,123.705-123.705S324.32,256,256,256
	s-123.705-55.384-123.705-123.705S187.679,8.591,256,8.591c136.641,0,247.409,110.768,247.409,247.409S392.641,503.409,256,503.409z
	"/>
<g>
	<path style="fill:#D23C69;" d="M256,210.183c12.432,0,22.51-10.077,22.51-22.51c0-5.94-5.136-24.181-10.501-41.616l-24.268,0.818
		c-5.273,17.185-10.25,34.951-10.25,40.799C233.49,200.106,243.568,210.183,256,210.183z"/>
	<path style="fill:#D23C69;" d="M196.787,124.101c5.144,2.97,23.508,7.642,41.292,11.714l11.426-21.426
		c-12.246-13.16-25.143-26.353-30.207-29.277c-10.767-6.216-24.534-2.527-30.75,8.239
		C182.332,104.117,186.019,117.885,196.787,124.101z"/>
	<path style="fill:#D23C69;" d="M273.921,135.814c17.783-4.071,36.148-8.743,41.292-11.714c10.767-6.216,14.455-19.983,8.239-30.75
		c-6.216-10.767-19.983-14.455-30.75-8.239c-5.064,2.924-17.961,16.117-30.207,29.277L273.921,135.814z"/>
</g>
<path style="fill:#FF507D;" d="M256,8.591c-68.321,0-123.705,55.384-123.705,123.705S187.679,256,256,256
	s123.705,55.384,123.705,123.705S324.32,503.409,256,503.409C119.359,503.409,8.591,392.641,8.591,256S119.359,8.591,256,8.591z"/>
<path style="fill:#D23C69;" d="M377.799,400.66c-9.9,1.207-19.941,1.953-30.166,1.953c-136.64,0-247.409-110.77-247.409-247.409
	c0-17.303,1.785-34.185,5.174-50.48c3.8-18.275-18.783-29.962-31.429-16.233C33.384,132.551,8.591,191.372,8.591,256
	c0,136.64,110.77,247.409,247.409,247.409C317.162,503.409,367.826,458.978,377.799,400.66z"/>
<g>
	<path style="fill:#FFDC64;" d="M256,457.397c12.432,0,22.51-10.077,22.51-22.51c0-5.94-5.136-24.181-10.501-41.616l-24.268,0.818
		c-5.273,17.185-10.25,34.951-10.25,40.798C233.49,447.32,243.568,457.397,256,457.397z"/>
	<path style="fill:#FFDC64;" d="M196.787,371.315c5.144,2.97,23.508,7.642,41.292,11.714l11.426-21.426
		c-12.246-13.16-25.143-26.353-30.207-29.277c-10.767-6.216-24.534-2.527-30.75,8.239
		C182.332,351.33,186.019,365.098,196.787,371.315z"/>
	<path style="fill:#FFDC64;" d="M273.921,383.029c17.783-4.071,36.148-8.743,41.292-11.714c10.767-6.216,14.455-19.983,8.239-30.75
		c-6.216-10.767-19.983-14.455-30.75-8.239c-5.064,2.924-17.961,16.117-30.207,29.277L273.921,383.029z"/>
	<path style="fill:#FFDC64;" d="M377.799,400.66C367.826,458.979,317.159,502.832,256,503.409
		c101.924-0.962,163.49-55.471,195.08-95.643c8.468-10.768-2.677-26.193-15.485-21.338
		C417.27,393.376,397.902,398.208,377.799,400.66z"/>
</g>
<g>
	<path style="fill:#FFF082;" d="M256,301.817c-12.432,0-22.51,10.077-22.51,22.51c0,5.94,5.136,24.181,10.501,41.616l24.268-0.818
		c5.273-17.185,10.25-34.951,10.25-40.798C278.51,311.894,268.432,301.817,256,301.817z"/>
	<path style="fill:#FFF082;" d="M315.213,387.899c-5.144-2.97-23.508-7.642-41.292-11.714l-11.426,21.426
		c12.246,13.16,25.143,26.353,30.207,29.277c10.767,6.216,24.534,2.527,30.75-8.239
		C329.668,407.883,325.981,394.115,315.213,387.899z"/>
	<path style="fill:#FFF082;" d="M238.079,376.186c-17.783,4.071-36.148,8.743-41.292,11.714
		c-10.767,6.216-14.455,19.983-8.239,30.75c6.216,10.767,19.983,14.455,30.75,8.239c5.064-2.924,17.961-16.117,30.207-29.277
		L238.079,376.186z"/>
</g>
<g>
	<path style="fill:#FF507D;" d="M256,54.407c-12.432,0-22.51,10.077-22.51,22.51c0,5.94,5.136,24.181,10.501,41.616l24.268-0.818
		c5.273-17.185,10.25-34.951,10.25-40.798C278.51,64.485,268.432,54.407,256,54.407z"/>
	<path style="fill:#FF507D;" d="M315.213,140.49c-5.144-2.97-23.508-7.642-41.292-11.714l-11.426,21.426
		c12.246,13.16,25.143,26.353,30.207,29.277c10.767,6.216,24.534,2.527,30.75-8.239C329.668,160.474,325.981,146.706,315.213,140.49
		z"/>
	<path style="fill:#FF507D;" d="M238.079,128.777c-17.783,4.071-36.148,8.743-41.292,11.714
		c-10.767,6.216-14.455,19.983-8.239,30.75c6.216,10.767,19.983,14.455,30.75,8.239c5.064-2.924,17.961-16.117,30.207-29.277
		L238.079,128.777z"/>
</g>
<g>
	<circle style="fill:#FFFFFF;" cx="256" cy="379.705" r="18.327"/>
	<path style="fill:#FFFFFF;" d="M274.327,132.295c0.221,10.122-7.805,18.327-17.927,18.327c-10.122,0-18.505-8.205-18.726-18.327
		c-0.221-10.122,7.805-18.327,17.927-18.327C265.721,113.969,274.106,122.173,274.327,132.295z"/>
</g>
<path d="M437.02,74.981C388.668,26.629,324.38,0,256,0S123.332,26.629,74.98,74.981C26.629,123.332,0,187.62,0,256
	s26.629,132.668,74.98,181.02C123.332,485.371,187.62,512,256,512s132.668-26.629,181.02-74.98C485.371,388.668,512,324.38,512,256
	S485.371,123.332,437.02,74.981z M344.809,477.685c10.065-9.095,18.812-19.777,25.779-31.82c2.376-4.106,0.974-9.361-3.134-11.738
	c-4.105-2.376-9.361-0.974-11.738,3.134c-20.538,35.503-58.747,57.558-99.715,57.558C124.315,494.819,17.181,387.685,17.181,256
	c0-100.315,62.177-186.37,150.01-221.685c-10.068,9.097-18.817,19.782-25.786,31.829c-2.376,4.106-0.972,9.361,3.135,11.737
	c1.355,0.783,2.834,1.156,4.294,1.156c2.965,0,5.852-1.538,7.444-4.291C176.819,39.24,215.029,17.181,256,17.181
	c131.685,0,238.819,107.134,238.819,238.819C494.819,356.315,432.642,442.37,344.809,477.685z"/>
<path d="M256,247.409c-63.474,0-115.114-51.64-115.114-115.114c0-8.324,0.891-16.625,2.649-24.676
	c1.013-4.635-1.924-9.214-6.56-10.225c-4.635-1.011-9.214,1.925-10.225,6.561c-2.021,9.252-3.046,18.786-3.046,28.34
	c0,72.948,59.347,132.295,132.295,132.295c63.474,0,115.114,51.64,115.114,115.114c0,8.319-0.891,16.62-2.648,24.67
	c-1.011,4.635,1.927,9.213,6.562,10.225c0.617,0.135,1.232,0.199,1.84,0.199c3.951,0,7.508-2.743,8.384-6.76
	c2.019-9.251,3.043-18.785,3.043-28.334C388.295,306.757,328.948,247.409,256,247.409z"/>
<path d="M334,360.065c2.15-8.024,1.047-16.406-3.108-23.6c-8.573-14.851-27.633-19.957-42.485-11.383
	c-0.396,0.228-0.846,0.51-1.356,0.853c0.048-0.714,0.048-1.216,0.048-1.608c0-17.149-13.952-31.1-31.1-31.1s-31.1,13.951-31.1,31.1
	c0,0.393,0.001,0.895,0.048,1.608c-0.511-0.344-0.961-0.624-1.356-0.853c-14.853-8.576-33.91-3.468-42.485,11.383
	c-4.153,7.194-5.257,15.575-3.108,23.6c2.15,8.025,7.296,14.731,14.491,18.884c0.397,0.229,0.859,0.478,1.415,0.749
	c-0.64,0.315-1.074,0.565-1.415,0.761c-7.194,4.153-12.341,10.861-14.491,18.886c-2.15,8.024-1.047,16.406,3.108,23.6
	c5.753,9.966,16.229,15.544,26.986,15.544c5.273,0,10.613-1.34,15.499-4.16c0.339-0.196,0.773-0.448,1.366-0.844
	c-0.042,0.616-0.058,1.141-0.058,1.599c0,17.149,13.952,31.1,31.1,31.1s31.1-13.952,31.1-31.1c0-0.459-0.016-0.984-0.058-1.599
	c0.593,0.397,1.027,0.649,1.366,0.844c4.886,2.821,10.225,4.16,15.499,4.16c10.757,0,21.233-5.578,26.986-15.544
	c4.153-7.194,5.257-15.575,3.108-23.6c-2.15-8.025-7.296-14.731-14.491-18.884c-0.339-0.196-0.774-0.446-1.415-0.762
	c0.554-0.27,1.017-0.519,1.415-0.749C326.704,374.797,331.85,368.089,334,360.065z M231.949,355.691
	c0.007,0.025,0.015,0.053,0.023,0.079C231.898,355.677,231.855,355.613,231.949,355.691z M195.986,345.056
	c3.838-6.647,12.367-8.933,19.015-5.095c0.82,0.474,5.292,3.886,16.99,15.875c0.812,2.79,1.712,5.82,2.722,9.142
	c-0.802,1.156-1.514,2.378-2.122,3.66c-3.386,0.788-6.47,1.525-9.296,2.218c-17.228-4.346-21.357-6.289-22.213-6.784
	c-3.221-1.859-5.523-4.86-6.486-8.452C193.633,352.027,194.127,348.276,195.986,345.056z M215.001,419.448
	c-6.648,3.837-15.177,1.551-19.015-5.095c-1.859-3.22-2.353-6.971-1.391-10.562s3.266-6.593,6.486-8.452
	c1.128-0.652,6.499-3.07,29.973-8.688c1.19,4.269,3.445,8.096,6.466,11.175C220.894,415.372,216.124,418.801,215.001,419.448z
	 M256,449.002c-7.675,0-13.919-6.245-13.919-13.919c0-1.002,0.387-5.556,5.231-22.626c2.01-2.098,4.199-4.411,6.571-6.946
	c0.699,0.057,1.404,0.094,2.118,0.094s1.418-0.037,2.118-0.094c2.372,2.535,4.56,4.846,6.57,6.945
	c4.844,17.072,5.231,21.629,5.231,22.628C269.919,442.757,263.675,449.002,256,449.002z M247.282,379.705
	c0-4.807,3.912-8.718,8.718-8.718s8.718,3.91,8.718,8.718c0,4.807-3.912,8.718-8.718,8.718S247.282,384.512,247.282,379.705z
	 M262.459,354.621c-2.065-0.533-4.23-0.816-6.459-0.816c-2.229,0-4.394,0.283-6.459,0.816c-6.87-23.132-7.461-28.992-7.461-30.294
	c0-7.675,6.245-13.919,13.919-13.919s13.919,6.244,13.919,13.919C269.919,325.622,269.336,331.467,262.459,354.621z
	 M316.014,414.353c-3.838,6.647-12.368,8.932-19.015,5.095c-1.123-0.647-5.893-4.077-22.519-21.622
	c3.019-3.079,5.275-6.906,6.466-11.175c23.474,5.618,28.845,8.036,29.973,8.688c3.221,1.859,5.523,4.86,6.486,8.452
	C318.367,407.382,317.873,411.134,316.014,414.353z M317.405,355.618c-0.962,3.591-3.266,6.593-6.486,8.452
	c-0.871,0.503-5.01,2.444-22.212,6.784c-2.826-0.693-5.91-1.429-9.296-2.218c-0.608-1.282-1.321-2.504-2.122-3.661
	c1.01-3.324,1.919-6.376,2.732-9.168c12.361-12.731,16.122-15.351,16.981-15.847c6.648-3.837,15.177-1.552,19.015,5.095
	C317.873,348.276,318.367,352.027,317.405,355.618z"/>
<path d="M178,151.935c-2.15,8.024-1.047,16.406,3.107,23.6c5.753,9.966,16.229,15.544,26.986,15.544
	c5.273,0,10.613-1.34,15.499-4.16c0.339-0.196,0.773-0.448,1.366-0.844c-0.042,0.616-0.058,1.141-0.058,1.599
	c0,17.149,13.952,31.1,31.1,31.1s31.1-13.951,31.1-31.1c0-0.459-0.016-0.984-0.058-1.599c0.593,0.397,1.027,0.649,1.366,0.844
	c4.886,2.821,10.225,4.161,15.499,4.161c10.757,0,21.233-5.579,26.986-15.544c4.153-7.194,5.257-15.575,3.108-23.6
	c-2.15-8.025-7.296-14.731-14.491-18.884c-0.339-0.196-0.774-0.446-1.415-0.762c0.554-0.27,1.017-0.519,1.415-0.749
	c7.194-4.153,12.341-10.861,14.491-18.886c2.15-8.024,1.047-16.406-3.108-23.6c-8.573-14.851-27.633-19.958-42.485-11.383
	c-0.396,0.228-0.846,0.51-1.356,0.853c0.048-0.714,0.048-1.216,0.048-1.608c0-17.149-13.951-31.1-31.1-31.1s-31.1,13.951-31.1,31.1
	c0,0.393,0.001,0.895,0.048,1.608c-0.511-0.344-0.961-0.624-1.356-0.853c-14.853-8.576-33.91-3.468-42.485,11.383
	c-4.153,7.194-5.257,15.575-3.107,23.6c2.15,8.025,7.296,14.731,14.491,18.884c0.397,0.229,0.859,0.478,1.415,0.749
	c-0.64,0.315-1.074,0.565-1.415,0.761C185.296,137.203,180.15,143.911,178,151.935z M280.018,108.399
	c12.361-12.731,16.122-15.351,16.981-15.847c6.648-3.837,15.177-1.552,19.015,5.095c1.859,3.22,2.353,6.971,1.391,10.562
	c-0.962,3.591-3.266,6.593-6.486,8.452c-0.871,0.503-5.01,2.444-22.212,6.784c-2.826-0.693-5.91-1.429-9.296-2.218
	c-0.608-1.282-1.321-2.504-2.122-3.661C278.297,114.244,279.205,111.19,280.018,108.399z M280.946,139.242
	c23.474,5.618,28.845,8.036,29.973,8.688c3.221,1.859,5.523,4.86,6.486,8.452c0.962,3.591,0.468,7.342-1.391,10.562
	c-3.838,6.647-12.368,8.933-19.015,5.095c-1.122-0.647-5.893-4.077-22.519-21.622C277.499,147.338,279.755,143.511,280.946,139.242z
	 M256,62.998c7.675,0,13.919,6.244,13.919,13.919c0,1.295-0.583,7.141-7.46,30.294c-2.065-0.533-4.23-0.816-6.459-0.816
	c-2.229,0-4.394,0.283-6.459,0.816c-6.87-23.132-7.461-28.992-7.461-30.294C242.081,69.241,248.325,62.998,256,62.998z
	 M264.718,132.295c0,4.807-3.912,8.718-8.718,8.718s-8.718-3.91-8.718-8.718c0-4.807,3.912-8.718,8.718-8.718
	S264.718,127.488,264.718,132.295z M247.311,165.047c2.01-2.098,4.199-4.411,6.571-6.946c0.699,0.057,1.404,0.094,2.118,0.094
	s1.418-0.037,2.118-0.094c2.372,2.535,4.56,4.846,6.57,6.945c4.844,17.072,5.231,21.629,5.231,22.628
	c0,7.675-6.245,13.919-13.919,13.919c-7.674,0-13.919-6.244-13.919-13.919C242.081,186.672,242.467,182.117,247.311,165.047z
	 M195.986,97.647c3.838-6.647,12.367-8.933,19.015-5.095c0.822,0.474,5.251,3.842,16.99,15.877c0.812,2.788,1.714,5.822,2.722,9.14
	c-0.802,1.156-1.514,2.378-2.122,3.66c-3.386,0.788-6.47,1.525-9.296,2.218c-17.228-4.346-21.357-6.289-22.213-6.784
	c-3.221-1.859-5.523-4.86-6.486-8.452C193.633,104.618,194.127,100.866,195.986,97.647z M194.596,156.382
	c0.962-3.591,3.266-6.593,6.486-8.452c1.128-0.652,6.499-3.07,29.973-8.688c1.19,4.269,3.445,8.096,6.466,11.175
	c-16.626,17.545-21.396,20.975-22.519,21.622c-6.648,3.836-15.177,1.552-19.015-5.095
	C194.127,163.724,193.633,159.973,194.596,156.382z"/>
<g>
</g>
<g>
</g>
<g>
</g>
<g>
</g>
<g>
</g>
<g>
</g>
<g>
</g>
<g>
</g>
<g>
</g>
<g>
</g>
<g>
</g>
<g>
</g>
<g>
</g>
<g>
</g>
<g>
</g>
</svg>
