<?xml version="1.0" encoding="iso-8859-1"?>
<!-- Generator: Adobe Illustrator 19.0.0, SVG Export Plug-In . SVG Version: 6.00 Build 0)  -->
<svg version="1.1" id="Layer_1" xmlns="http://www.w3.org/2000/svg" xmlns:xlink="http://www.w3.org/1999/xlink" x="0px" y="0px"
	 viewBox="0 0 512 512" style="enable-background:new 0 0 512 512;" xml:space="preserve">
<path style="fill:#FFDC64;" d="M375.716,161.937c-51.863,0-94.063,42.195-94.063,94.063s42.2,94.063,94.063,94.063
	s94.063-42.195,94.063-94.063S427.579,161.937,375.716,161.937z"/>
<path style="fill:#FFC850;" d="M388.69,315.038c-35.792-7.54-64.468-36.215-72.011-72.006c-2.395-11.368-2.678-22.447-1.193-32.964
	c1.434-10.16-11.926-15.093-17.689-6.604c-13.077,19.26-19.193,43.596-14.659,69.433c6.704,38.204,37.457,68.965,75.661,75.677
	c31.805,5.587,61.338-4.963,81.931-24.776c4.633-4.456,0.004-12.139-6.168-10.345C420.377,317.578,404.823,318.436,388.69,315.038z"
	/>
<path style="fill:#FFDC64;" d="M136.284,161.937c-51.863,0-94.063,42.195-94.063,94.063s42.2,94.063,94.063,94.063
	s94.063-42.195,94.063-94.063S188.147,161.937,136.284,161.937z"/>
<path style="fill:#FFC850;" d="M149.258,315.038c-35.792-7.54-64.468-36.215-72.011-72.006c-2.395-11.368-2.678-22.447-1.193-32.964
	c1.434-10.16-11.926-15.093-17.689-6.604c-13.077,19.26-19.193,43.596-14.659,69.433c6.704,38.204,37.457,68.965,75.661,75.677
	c31.805,5.587,61.338-4.963,81.931-24.776c4.633-4.456,0.004-12.139-6.168-10.345C180.944,317.578,165.391,318.436,149.258,315.038z
	"/>
<path d="M503.983,205.228H464.25c-17.638-30.637-50.717-51.307-88.534-51.307c-40.334,0-75.277,23.516-91.845,57.556
	c-6.063-8.924-16.293-14.8-27.871-14.8s-21.809,5.876-27.871,14.8c-16.568-34.04-51.511-57.556-91.845-57.556
	c-37.816,0-70.896,20.67-88.534,51.307H8.017c-4.427,0-8.017,3.589-8.017,8.017s3.589,8.017,8.017,8.017h32.278
	c-3.939,10.848-6.091,22.547-6.091,34.739c0,56.287,45.792,102.079,102.079,102.079S238.363,312.287,238.363,256v-25.653
	c0-9.725,7.912-17.637,17.637-17.637s17.637,7.912,17.637,17.637V256c0,56.287,45.792,102.079,102.079,102.079
	S477.795,312.287,477.795,256c0-12.192-2.152-23.891-6.091-34.739h32.278c4.427,0,8.017-3.589,8.017-8.017
	S508.411,205.228,503.983,205.228z M128.267,275.353v66.306c-17.716-1.645-33.891-8.672-46.864-19.442L128.267,275.353z
	 M144.301,275.353l46.864,46.863c-12.972,10.77-29.148,17.797-46.864,19.442V275.353z M128.267,170.341v82.339l-58.201,58.201
	C57.691,295.974,50.238,276.842,50.238,256C50.238,211.258,84.568,174.399,128.267,170.341z M202.502,310.88l-58.201-58.2v-82.339
	C188,174.4,222.33,211.259,222.33,256C222.33,276.842,214.876,295.974,202.502,310.88z M367.699,275.353v66.306
	c-17.716-1.645-33.891-8.672-46.863-19.442L367.699,275.353z M383.733,275.353l46.863,46.863
	c-12.972,10.77-29.148,17.797-46.863,19.442V275.353z M367.699,170.341v82.339l-58.201,58.201
	C297.124,295.974,289.67,276.842,289.67,256C289.67,211.258,324,174.399,367.699,170.341z M441.934,310.88l-58.201-58.2v-82.339
	c43.7,4.059,78.029,40.918,78.029,85.659C461.762,276.842,454.309,295.974,441.934,310.88z"/>
<path d="M165.39,194.667c-3.999-1.9-8.781-0.199-10.683,3.799c-1.9,3.999-0.2,8.781,3.799,10.683
	c17.993,8.551,29.618,26.943,29.618,46.852c0,4.427,3.589,8.017,8.017,8.017c4.427,0,8.017-3.589,8.017-8.017
	C204.159,229.935,188.941,205.861,165.39,194.667z"/>
<path d="M404.811,194.667c-4-1.9-8.781-0.199-10.683,3.799c-1.9,3.999-0.2,8.781,3.799,10.683
	c17.993,8.551,29.618,26.943,29.618,46.852c0,4.427,3.589,8.017,8.017,8.017s8.017-3.589,8.017-8.017
	C443.58,229.935,428.362,205.861,404.811,194.667z"/>
<g>
</g>
<g>
</g>
<g>
</g>
<g>
</g>
<g>
</g>
<g>
</g>
<g>
</g>
<g>
</g>
<g>
</g>
<g>
</g>
<g>
</g>
<g>
</g>
<g>
</g>
<g>
</g>
<g>
</g>
</svg>
