<?xml version="1.0" encoding="iso-8859-1"?>
<!-- Generator: Adobe Illustrator 19.0.0, SVG Export Plug-In . SVG Version: 6.00 Build 0)  -->
<svg version="1.1" id="Layer_1" xmlns="http://www.w3.org/2000/svg" xmlns:xlink="http://www.w3.org/1999/xlink" x="0px" y="0px"
	 viewBox="0 0 512.001 512.001" style="enable-background:new 0 0 512.001 512.001;" xml:space="preserve">
<polygon style="fill:#FFC850;" points="503.409,256.001 416.121,281.42 491.353,332.473 400.481,329.582 456.147,401.465 
	370.616,370.623 401.454,456.155 329.576,400.485 332.464,491.356 281.418,416.121 256,503.41 230.581,416.121 179.528,491.353 
	182.419,400.482 110.536,456.148 141.377,370.616 55.846,401.454 111.515,329.576 20.645,332.465 95.879,281.418 8.591,256.001 
	95.879,230.582 20.647,179.528 111.519,182.419 55.853,110.536 141.384,141.378 110.546,55.846 182.424,111.516 179.536,20.646 
	230.582,95.88 256,8.591 281.419,95.88 332.472,20.648 329.581,111.519 401.464,55.853 370.623,141.385 456.154,110.547 
	400.485,182.425 491.355,179.536 416.121,230.583 "/>
<circle style="fill:#FFDC64;" cx="256" cy="256.001" r="155.776"/>
<circle style="fill:#FFF082;" cx="256" cy="256.001" r="119.123"/>
<path d="M505.811,247.752l-69.757-20.312l60.125-40.795c3.164-2.146,4.528-6.126,3.347-9.761c-1.181-3.636-4.624-6.05-8.444-5.933
	l-72.633,2.309l44.497-57.452c2.339-3.02,2.403-7.224,0.155-10.313c-2.248-3.089-6.267-4.323-9.86-3.028l-68.338,24.638
	l24.641-68.337c1.297-3.594,0.063-7.612-3.027-9.861c-3.089-2.247-7.293-2.184-10.313,0.155l-57.456,44.494l2.31-72.634
	c0.121-3.821-2.297-7.263-5.933-8.444c-3.636-1.182-7.615,0.183-9.761,3.347L284.562,75.95l-20.314-69.76
	c-1.068-3.666-4.429-6.189-8.248-6.189c-3.819,0-7.181,2.522-8.248,6.189L227.44,75.946l-40.795-60.124
	c-2.146-3.164-6.125-4.528-9.761-3.347c-3.636,1.181-6.055,4.623-5.933,8.444l2.309,72.633l-57.452-44.497
	c-3.02-2.339-7.224-2.404-10.313-0.155c-3.09,2.247-4.324,6.267-3.028,9.86l24.638,68.338l-68.338-24.642
	c-3.593-1.297-7.612-0.063-9.861,3.027c-2.247,3.089-2.184,7.293,0.155,10.313l44.494,57.456l-72.634-2.31
	c-3.802-0.123-7.262,2.297-8.444,5.933c-1.181,3.636,0.183,7.615,3.347,9.761l60.125,40.802L6.189,247.752
	C2.522,248.82,0,252.182,0,256.001c0,3.819,2.522,7.181,6.189,8.248l69.757,20.312l-60.124,40.795
	c-3.164,2.147-4.528,6.126-3.347,9.761s4.61,6.035,8.444,5.933l72.633-2.309l-44.497,57.452c-2.339,3.02-2.403,7.224-0.155,10.313
	c2.247,3.09,6.267,4.323,9.86,3.028l68.338-24.638l-24.641,68.337c-1.297,3.594-0.063,7.612,3.027,9.861
	c3.089,2.247,7.293,2.184,10.313-0.155l57.456-44.494l-2.31,72.634c-0.121,3.821,2.297,7.263,5.933,8.444
	c3.634,1.18,7.615-0.184,9.761-3.347l40.802-60.125l20.314,69.76c1.069,3.666,4.429,6.189,8.248,6.189s7.181-2.522,8.248-6.189
	l20.312-69.757l40.795,60.125c2.146,3.165,6.126,4.531,9.761,3.347c3.636-1.181,6.055-4.623,5.933-8.444l-2.309-72.633
	l57.452,44.497c3.02,2.339,7.224,2.403,10.313,0.155c3.09-2.247,4.324-6.267,3.029-9.86l-24.638-68.338l68.337,24.641
	c3.593,1.298,7.612,0.064,9.861-3.027c2.247-3.089,2.184-7.293-0.155-10.313l-44.494-57.456l72.634,2.31
	c3.795,0.11,7.262-2.297,8.444-5.933c1.181-3.636-0.183-7.615-3.347-9.761l-60.125-40.802l69.76-20.314
	c3.666-1.069,6.189-4.429,6.189-8.248C512.001,252.182,509.478,248.82,505.811,247.752z M462.012,189.065l-45.623,30.955
	c-2.268-10.116-5.472-19.881-9.514-29.202L462.012,189.065z M256,403.186c-81.158,0-147.186-66.027-147.186-147.186
	S174.842,108.815,256,108.815s147.186,66.027,147.186,147.186S337.158,403.186,256,403.186z M431.267,128.652l-33.838,43.69
	c-5.276-8.885-11.364-17.233-18.163-24.941L431.267,128.652z M364.607,132.741c-7.709-6.8-16.056-12.888-24.943-18.165
	l43.693-33.836L364.607,132.741z M321.19,105.128c-9.323-4.044-19.089-7.248-29.208-9.517l30.962-45.624L321.19,105.128z
	 M256,39.318l15.448,53.048c-5.088-0.476-10.239-0.732-15.448-0.732s-10.359,0.255-15.446,0.731L256,39.318z M220.019,95.612
	c-10.116,2.268-19.881,5.472-29.202,9.514l-1.752-55.137L220.019,95.612z M172.341,114.572
	c-8.885,5.276-17.233,11.364-24.941,18.163l-18.748-52.001L172.341,114.572z M80.739,128.643l52.001,18.75
	c-6.8,7.709-12.888,16.056-18.165,24.941L80.739,128.643z M49.987,189.057l55.141,1.754c-4.044,9.323-7.248,19.089-9.517,29.208
	L49.987,189.057z M39.317,256.001l53.046-15.448c-0.475,5.088-0.731,10.239-0.731,15.448c0,5.209,0.255,10.359,0.731,15.446
	L39.317,256.001z M49.988,322.936l45.623-30.955c2.268,10.116,5.472,19.881,9.514,29.202L49.988,322.936z M80.733,383.349
	l33.838-43.69c5.276,8.885,11.364,17.233,18.163,24.941L80.733,383.349z M147.393,379.26c7.709,6.8,16.056,12.888,24.943,18.165
	l-43.693,33.836L147.393,379.26z M190.81,406.873c9.323,4.044,19.089,7.248,29.208,9.517l-30.962,45.624L190.81,406.873z
	 M256,472.683l-15.448-53.046c5.087,0.476,10.238,0.732,15.448,0.732c5.209,0,10.359-0.255,15.446-0.731L256,472.683z
	 M291.981,416.389c10.116-2.268,19.881-5.472,29.202-9.514l1.752,55.137L291.981,416.389z M339.659,397.429
	c8.885-5.276,17.233-11.364,24.941-18.163l18.748,52.001L339.659,397.429z M431.261,383.358l-52.001-18.75
	c6.8-7.709,12.888-16.056,18.165-24.943L431.261,383.358z M462.013,322.944l-55.141-1.754c4.044-9.323,7.248-19.089,9.517-29.208
	L462.013,322.944z M419.635,271.449c0.476-5.087,0.732-10.238,0.732-15.448c0-5.209-0.255-10.359-0.731-15.446l53.046,15.446
	L419.635,271.449z"/>
<path d="M145.761,247.919c1.925-26.427,13.318-51.313,32.081-70.076c31.816-31.815,79.209-41.188,120.738-23.877
	c4.38,1.825,9.41-0.244,11.235-4.625c1.825-4.379-0.245-9.408-4.624-11.234c-47.985-20-102.739-9.171-139.498,27.587
	c-21.679,21.678-34.842,50.437-37.067,80.976c-2.201,30.221,6.386,60.266,24.179,84.601c1.683,2.301,4.294,3.521,6.941,3.521
	c1.759,0,3.535-0.538,5.064-1.656c3.83-2.801,4.664-8.175,1.864-12.005C151.283,300.081,143.856,274.08,145.761,247.919z"/>
<path d="M358.064,213.492c17.269,41.511,7.885,88.876-23.907,120.667c-18.713,18.713-43.531,30.1-69.884,32.066
	c-26.078,1.949-52.035-5.393-73.08-20.66c-3.842-2.787-9.213-1.933-11.998,1.908c-2.787,3.841-1.932,9.211,1.908,11.998
	c21.762,15.79,48.05,24.244,74.92,24.243c3.168,0,6.348-0.118,9.526-0.355c30.454-2.271,59.133-15.43,80.754-37.051
	c36.731-36.73,47.574-91.454,27.622-139.415c-1.822-4.381-6.848-6.454-11.232-4.632
	C358.316,204.082,356.243,209.111,358.064,213.492z"/>
<path d="M326.635,170.973c2.592,2.158,5.123,4.469,7.523,6.87c2.405,2.405,4.721,4.941,6.884,7.54
	c1.699,2.041,4.144,3.095,6.607,3.095c1.937,0,3.886-0.652,5.491-1.988c3.647-3.035,4.142-8.452,1.106-12.099
	c-2.496-2.998-5.167-5.923-7.94-8.696c-2.767-2.767-5.686-5.433-8.677-7.923c-3.645-3.035-9.063-2.542-12.099,1.103
	C322.496,162.519,322.99,167.937,326.635,170.973z"/>
<g>
</g>
<g>
</g>
<g>
</g>
<g>
</g>
<g>
</g>
<g>
</g>
<g>
</g>
<g>
</g>
<g>
</g>
<g>
</g>
<g>
</g>
<g>
</g>
<g>
</g>
<g>
</g>
<g>
</g>
</svg>
