<?xml version="1.0" encoding="iso-8859-1"?>
<!-- Generator: Adobe Illustrator 19.0.0, SVG Export Plug-In . SVG Version: 6.00 Build 0)  -->
<svg version="1.1" id="Layer_1" xmlns="http://www.w3.org/2000/svg" xmlns:xlink="http://www.w3.org/1999/xlink" x="0px" y="0px"
	 viewBox="0 0 511.999 511.999" style="enable-background:new 0 0 511.999 511.999;" xml:space="preserve">
<path style="fill:#00AAF0;" d="M343.467,302.428c-1.299-8.115-1.527-16.365-0.682-24.54l22.428-216.806
	c1.043-10.087-6.87-18.862-17.011-18.862H163.798c-10.142,0-18.055,8.775-17.011,18.862l22.428,216.806
	c0.845,8.175,0.617,16.425-0.682,24.54l-32.249,201.555h102.614v-341.13c0-8.519,5.821-16.416,14.23-17.784
	c10.715-1.743,19.974,6.481,19.974,16.868v342.046h102.614L343.467,302.428z"/>
<g>
	<path style="fill:#0096DC;" d="M187.59,311.213c0-13.968-1.426-27.901-4.256-41.58l-29.948-144.75l15.828,153.006
		c0.845,8.174,0.617,16.424-0.682,24.539l-32.249,201.556l0,0h51.307V311.213z"/>
	<path style="fill:#0096DC;" d="M255.999,144.835v0.087c9.437,0.011,17.102,7.576,17.102,17.016v342.046h25.653V170.489
		c0-14.168-11.485-25.653-25.653-25.653H255.999z"/>
	<rect x="153.386" y="8.017" style="fill:#0096DC;" width="205.228" height="34.205"/>
</g>
<path d="M383.632,502.717l-32.249-201.554c-1.188-7.419-1.397-14.972-0.624-22.448l22.428-216.806
	c0.731-7.061-1.577-14.136-6.332-19.408c-0.073-0.081-0.151-0.156-0.224-0.236V8.017c0-4.427-3.589-8.017-8.017-8.017H153.386
	c-4.427,0-8.017,3.589-8.017,8.017v34.247c-0.074,0.08-0.152,0.155-0.224,0.236c-4.756,5.273-7.063,12.347-6.332,19.408
	l22.428,216.806c0.773,7.476,0.563,15.029-0.624,22.448l-32.249,201.554c-0.371,2.318,0.293,4.682,1.816,6.468
	s3.753,2.815,6.1,2.815h102.614c4.427,0,8.017-3.589,8.017-8.017V161.936c0-5.01,4.076-9.086,9.086-9.086
	c5.01,0,9.086,4.076,9.086,9.086v342.046c0,4.427,3.589,8.017,8.017,8.017h102.614c2.347,0,4.577-1.028,6.1-2.815
	C383.339,507.398,384.003,505.035,383.632,502.717z M350.597,34.325c-0.793-0.076-1.592-0.121-2.395-0.121h-41.429V16.033h43.825
	V34.325z M221.26,34.205V16.033h69.478v18.171H221.26z M205.227,16.033v18.171h-41.429c-0.804,0-1.602,0.044-2.395,0.121V16.033
	H205.227z M281.118,495.967V161.937c0-13.851-11.268-25.119-25.119-25.119s-25.119,11.268-25.119,25.119v334.029h-85.196
	l30.763-192.27c1.409-8.802,1.658-17.763,0.74-26.632l-17.316-167.392c17.542-2.254,32.848-13.539,40.057-30.034
	c1.773-4.056-0.079-8.783-4.136-10.556c-4.055-1.773-8.783,0.079-10.556,4.136c-4.878,11.165-15.178,18.837-27.015,20.498
	l-3.461-33.459c-0.267-2.592,0.545-5.085,2.291-7.019c1.745-1.935,4.142-3,6.748-3h84.185v60.392c0,4.427,3.589,8.017,8.017,8.017
	s8.017-3.589,8.017-8.017V50.238h84.185c2.606,0,5.002,1.066,6.748,3c1.744,1.936,2.558,4.428,2.291,7.019l-3.461,33.459
	c-11.833-1.66-22.129-9.328-27.01-20.485c-1.774-4.056-6.502-5.908-10.557-4.131c-4.056,1.774-5.906,6.501-4.131,10.557
	c7.212,16.486,22.514,27.762,40.048,30.016l-17.316,167.392c-0.917,8.869-0.668,17.829,0.74,26.632l30.763,192.27H281.118z"/>
<g>
</g>
<g>
</g>
<g>
</g>
<g>
</g>
<g>
</g>
<g>
</g>
<g>
</g>
<g>
</g>
<g>
</g>
<g>
</g>
<g>
</g>
<g>
</g>
<g>
</g>
<g>
</g>
<g>
</g>
</svg>
