<?xml version="1.0" encoding="iso-8859-1"?>
<!-- Generator: Adobe Illustrator 19.0.0, SVG Export Plug-In . SVG Version: 6.00 Build 0)  -->
<svg version="1.1" id="Layer_1" xmlns="http://www.w3.org/2000/svg" xmlns:xlink="http://www.w3.org/1999/xlink" x="0px" y="0px"
	 viewBox="0 0 512 512" style="enable-background:new 0 0 512 512;" xml:space="preserve">
<ellipse style="fill:#7DF5A5;" cx="251.725" cy="170.489" rx="136.818" ry="162.472"/>
<path style="fill:#64DCA0;" d="M332.424,280.958c-4.045,0.456-8.143,0.696-12.29,0.696c-75.562,0-136.818-72.741-136.818-162.472
	c0-30.198,6.977-58.431,19.082-82.635c3.754-7.506-4.877-15.387-12.083-11.084c-44.705,26.693-75.408,81.545-75.408,145.026
	c0,85.771,56.007,155.846,126.941,161.88l-7.225,43.348h34.205l-7.213-43.28c29.346-2.504,56.124-15.934,77.431-36.99
	C344.772,289.788,340.426,280.055,332.424,280.958z"/>
<path style="fill:#8C50D7;" d="M251.725,93.528c-42.505,0-76.96,34.456-76.96,76.96c0,42.503,34.456,76.96,76.96,76.96
	s76.96-34.457,76.96-76.96C328.685,127.984,294.23,93.528,251.725,93.528z M251.725,221.795c-28.336,0-51.307-22.971-51.307-51.307
	s22.971-51.307,51.307-51.307s51.307,22.971,51.307,51.307S280.061,221.795,251.725,221.795z"/>
<path d="M251.725,255.466c46.856,0,84.977-38.121,84.977-84.977s-38.121-84.977-84.977-84.977s-84.977,38.121-84.977,84.977
	S204.869,255.466,251.725,255.466z M259.742,189.842l34.701,34.701c-9.778,7.744-21.69,12.894-34.704,14.408
	c0-0.018,0.002-0.035,0.002-0.053v-49.055H259.742z M243.71,238.951c-13.013-1.515-24.926-6.665-34.704-14.408l34.702-34.702v49.056
	C243.708,238.916,243.71,238.933,243.71,238.951z M320.669,170.489c0,16.125-5.58,30.963-14.889,42.717l-46.038-46.037v-65.089
	c0-0.018-0.002-0.035-0.002-0.053C293.991,106.011,320.669,135.185,320.669,170.489z M243.71,102.026
	c0,0.018-0.002,0.035-0.002,0.053v65.089l-46.038,46.038c-9.309-11.756-14.889-26.593-14.889-42.718
	C182.781,135.185,209.459,106.011,243.71,102.026z"/>
<path d="M397.094,453.211h-17.102c-9.725,0-17.637-7.912-17.637-17.637v-25.653c0-18.566-15.105-33.67-33.67-33.67
	c-18.566,0-33.67,15.105-33.67,33.67v68.409c0,9.725-7.912,17.637-17.637,17.637c-9.725,0-17.637-7.912-17.637-17.637v-94.597h9.086
	c2.402,0,4.676-1.076,6.2-2.934c1.522-1.858,2.132-4.299,1.661-6.655l-6.899-34.491c71.369-10.499,126.771-82.357,126.771-169.164
	C396.56,76.48,331.587,0,251.725,0S106.89,76.48,106.89,170.489c0,86.807,55.402,158.665,126.77,169.164l-6.899,34.491
	c-0.47,2.355,0.139,4.797,1.661,6.655c1.523,1.858,3.798,2.934,6.2,2.934h9.086v94.597c0,18.566,15.105,33.67,33.67,33.67
	c18.566,0,33.67-15.105,33.67-33.67v-68.409c0-9.725,7.912-17.637,17.637-17.637c9.725,0,17.637,7.912,17.637,17.637v25.653
	c0,18.566,15.105,33.67,33.67,33.67h17.102c4.427,0,8.017-3.589,8.017-8.017S401.522,453.211,397.094,453.211z M122.923,170.489
	c0-85.167,57.78-154.455,128.802-154.455s128.802,69.288,128.802,154.455s-57.78,154.455-128.802,154.455
	S122.923,255.656,122.923,170.489z M253.705,340.977l5.344,26.722h-14.647l5.344-26.722H253.705z"/>
<path d="M340.77,129.939c1,3.529,4.214,5.833,7.709,5.833c0.724,0,1.46-0.098,2.19-0.306c4.26-1.208,6.734-5.639,5.526-9.899
	c-6.049-21.336-16.457-40.687-30.097-55.961c-2.949-3.302-8.017-3.588-11.32-0.639c-3.302,2.949-3.588,8.017-0.639,11.32
	C326.172,93.758,335.381,110.928,340.77,129.939z"/>
<path d="M236.273,289.129c-21.038-4.431-40.552-18.101-54.946-38.492c-2.553-3.617-7.555-4.479-11.172-1.926
	c-3.617,2.554-4.48,7.555-1.926,11.172c16.737,23.71,39.729,39.668,64.741,44.935c0.557,0.118,1.113,0.174,1.66,0.174
	c3.71,0,7.041-2.591,7.836-6.366C243.378,294.293,240.605,290.042,236.273,289.129z"/>
<path d="M274.95,53.918c5.308,1.718,10.536,4.048,15.54,6.925c1.26,0.725,2.634,1.069,3.99,1.069c2.775,0,5.473-1.443,6.956-4.02
	c2.207-3.837,0.887-8.738-2.951-10.947c-5.971-3.435-12.229-6.222-18.601-8.283c-4.215-1.365-8.733,0.948-10.095,5.161
	C268.426,48.036,270.736,52.556,274.95,53.918z"/>
<g>
</g>
<g>
</g>
<g>
</g>
<g>
</g>
<g>
</g>
<g>
</g>
<g>
</g>
<g>
</g>
<g>
</g>
<g>
</g>
<g>
</g>
<g>
</g>
<g>
</g>
<g>
</g>
<g>
</g>
</svg>
