<?xml version="1.0" encoding="iso-8859-1"?>
<!-- Generator: Adobe Illustrator 19.0.0, SVG Export Plug-In . SVG Version: 6.00 Build 0)  -->
<svg version="1.1" id="Layer_1" xmlns="http://www.w3.org/2000/svg" xmlns:xlink="http://www.w3.org/1999/xlink" x="0px" y="0px"
	 viewBox="0 0 512 512" style="enable-background:new 0 0 512 512;" xml:space="preserve">
<g>
	<path style="fill:#FFE9C3;" d="M312.3,262.256L262.256,312.3c21.111,40.351,57.747,107.79,68.811,118.855
		c27.639,27.639,72.45,27.639,100.089,0c27.638-27.638,27.638-72.45,0-100.088C420.123,320.034,352.508,283.302,312.3,262.256z"/>
	<path style="fill:#FFE9C3;" d="M80.845,331.066c-27.638,27.638-27.638,72.45,0,100.088c27.639,27.639,72.45,27.639,100.089,0
		c11.032-11.032,47.764-78.647,68.811-118.855l-50.044-50.044C159.35,283.367,91.91,320.001,80.845,331.066z"/>
	<path style="fill:#FFE9C3;" d="M80.845,80.845c-27.638,27.639-27.638,72.45,0,100.089c11.032,11.032,78.647,47.763,118.855,68.811
		l50.044-50.044C228.633,159.35,191.998,91.91,180.933,80.846C153.295,53.206,108.484,53.206,80.845,80.845z"/>
	<path style="fill:#FFE9C3;" d="M431.155,180.934c27.638-27.639,27.638-72.45,0-100.089c-27.639-27.639-72.45-27.639-100.089,0
		c-11.032,11.032-47.764,78.647-68.811,118.855l50.044,50.044C352.65,228.633,420.09,191.999,431.155,180.934z"/>
</g>
<path style="fill:#FFF5DC;" d="M432.933,185.227c-15.601,0-89.385,21.838-132.7,35.387h-8.847v-8.847
	c13.604-43.46,35.387-117.052,35.387-132.7c0-39.087-31.686-70.773-70.773-70.773s-70.773,31.686-70.773,70.773
	c0,15.601,21.838,89.385,35.387,132.7v8.847h-8.847c-43.46-13.604-117.052-35.387-132.7-35.387
	c-39.087,0-70.773,31.686-70.773,70.773s31.686,70.773,70.773,70.773c15.601,0,89.385-21.838,132.7-35.387h8.847v8.847
	c-13.604,43.46-35.387,117.052-35.387,132.7c0,39.087,31.686,70.773,70.773,70.773s70.773-31.686,70.773-70.773
	c0-15.601-21.838-89.385-35.387-132.7v-8.847h8.847c43.46,13.604,117.052,35.387,132.7,35.387c39.087,0,70.773-31.686,70.773-70.773
	S472.02,185.227,432.933,185.227z"/>
<path style="fill:#FFE9C3;" d="M291.387,220.613v-8.847c5.178-16.541,11.537-37.441,17.432-57.856
	c-15.828-8.205-33.76-12.917-52.819-12.917c-19.056,0-36.985,4.71-52.81,12.913c5.902,20.442,12.261,41.36,17.423,57.86v8.847
	h-8.847c-16.541-5.178-37.441-11.537-57.856-17.432c-8.206,15.828-12.917,33.76-12.917,52.819c0,19.056,4.71,36.985,12.914,52.81
	c20.442-5.902,41.359-12.261,57.859-17.423h8.847v8.847c-5.178,16.541-11.537,37.441-17.432,57.856
	c15.828,8.205,33.76,12.917,52.819,12.917c19.056,0,36.985-4.71,52.81-12.913c-5.902-20.442-12.261-41.36-17.423-57.86v-8.847h8.847
	c16.541,5.178,37.441,11.537,57.856,17.432c8.206-15.828,12.917-33.76,12.917-52.819c0-19.056-4.71-36.985-12.914-52.81
	c-20.442,5.902-41.359,12.261-57.859,17.423H291.387z"/>
<path style="fill:#FFDC64;" d="M256,167.533c-48.859,0-88.467,39.608-88.467,88.467s39.608,88.467,88.467,88.467
	s88.467-39.608,88.467-88.467S304.859,167.533,256,167.533z"/>
<path style="fill:#FFF082;" d="M256,194.073c-34.201,0-61.927,27.725-61.927,61.927s27.725,61.927,61.927,61.927
	s61.927-27.725,61.927-61.927S290.201,194.073,256,194.073z"/>
<path d="M512,256c0-39.583-29.24-72.462-67.253-78.181c22.835-30.925,20.262-74.848-7.726-102.838
	c-27.99-27.99-71.913-30.562-102.838-7.726C328.462,29.24,295.583,0,256,0s-72.462,29.24-78.181,67.254
	c-30.925-22.835-74.848-20.263-102.838,7.726s-30.562,71.913-7.726,102.838C29.239,183.538,0,216.417,0,256
	s29.239,72.462,67.253,78.181c-22.835,30.925-20.262,74.848,7.726,102.838c15.414,15.414,35.662,23.121,55.909,23.121
	c16.519,0,33.036-5.134,46.929-15.394C183.538,482.761,216.417,512,256,512s72.462-29.239,78.181-67.253
	c13.894,10.26,30.41,15.394,46.929,15.394c20.248,0,40.494-7.707,55.909-23.121c27.99-27.99,30.562-71.913,7.726-102.838
	C482.76,328.462,512,295.583,512,256z M256,16.587c34.451,0,62.479,28.028,62.479,62.479c0,3.333-0.69,10.324-3.978,24.697
	c-1.022,4.465,1.77,8.913,6.236,9.935c4.463,1.02,8.913-1.77,9.934-6.236c1.568-6.853,2.704-12.673,3.43-17.559
	c1.045-1.283,1.999-2.363,2.83-3.194c24.361-24.36,63.999-24.36,88.359,0s24.36,63.999,0,88.359
	c-0.836,0.836-1.921,1.791-3.209,2.841c-17.069,2.538-45.673,10.065-86.717,22.808c-6.548-9.372-14.711-17.534-24.083-24.083
	c3.761-12.119,7.118-23.326,9.989-33.355c1.261-4.403-1.288-8.996-5.691-10.255c-4.405-1.26-8.995,1.287-10.255,5.691
	c-2.553,8.922-5.504,18.805-8.783,29.441c-12.339-5.717-26.073-8.915-40.542-8.915c-14.469,0-28.203,3.198-40.542,8.915
	c-18.049-58.529-21.937-80.791-21.937-89.088C193.521,44.616,221.549,16.587,256,16.587z M264.294,335.745v-68.568l46.895,46.895
	C298.687,325.958,282.38,333.877,264.294,335.745z M200.811,314.071l46.895-46.895v68.568
	C229.62,333.877,213.313,325.958,200.811,314.071z M247.706,176.255v67.462l-57.714,57.714
	c-8.923-12.924-14.165-28.574-14.165-45.432C175.827,214.593,207.381,180.42,247.706,176.255z M322.008,301.432l-57.714-57.713
	v-67.462c40.325,4.163,71.879,38.337,71.879,79.745C336.173,272.858,330.931,288.508,322.008,301.432z M86.709,86.709
	c24.36-24.36,63.999-24.36,88.359,0c0.836,0.836,1.791,1.92,2.84,3.207c2.538,17.066,10.066,45.674,22.808,86.717
	c-9.372,6.548-17.534,14.71-24.083,24.083c-41.046-12.744-69.652-20.27-86.72-22.808c-1.289-1.051-2.37-2.005-3.205-2.84
	C62.349,150.708,62.349,111.071,86.709,86.709z M16.587,256c0-34.451,28.028-62.479,62.479-62.479
	c8.309,0,30.592,3.899,89.088,21.937c-5.717,12.339-8.915,26.073-8.915,40.542c0,14.469,3.198,28.203,8.915,40.542
	c-58.508,18.043-80.783,21.938-89.088,21.938C44.616,318.479,16.587,290.451,16.587,256z M256,495.413
	c-34.451,0-62.479-28.028-62.479-62.479c0-4.155,1.052-13.318,6.059-33.377c1.109-4.444-1.593-8.946-6.038-10.055
	c-4.449-1.11-8.947,1.594-10.056,6.038c-2.709,10.853-4.559,19.646-5.587,26.561c-1.047,1.286-1.997,2.359-2.831,3.191
	c-24.36,24.36-63.999,24.36-88.359,0c-24.36-24.361-24.36-63.999,0-88.359c0.833-0.833,1.918-1.79,3.206-2.841
	c17.067-2.538,45.674-10.065,86.719-22.808c6.549,9.372,14.711,17.535,24.083,24.083c-2.686,8.654-5.172,16.862-7.405,24.451
	c-1.293,4.395,1.222,9.005,5.617,10.298c0.782,0.23,1.568,0.34,2.344,0.34c3.584,0,6.89-2.342,7.953-5.955
	c1.901-6.464,3.99-13.386,6.231-20.654c12.339,5.717,26.073,8.916,40.542,8.916s28.203-3.198,40.542-8.915
	c18.029,58.462,21.939,80.763,21.939,89.087C318.479,467.384,290.451,495.413,256,495.413z M425.291,425.291
	c-12.182,12.182-28.178,18.272-44.18,18.271c-15.998-0.001-32.001-6.091-44.18-18.269c-0.833-0.833-1.789-1.916-2.84-3.206
	c-2.538-17.07-10.068-45.683-22.809-86.718c9.372-6.548,17.534-14.71,24.083-24.083c41.044,12.743,69.649,20.27,86.718,22.808
	c1.288,1.049,2.373,2.006,3.208,2.84C449.651,361.292,449.651,400.929,425.291,425.291z M432.933,318.479
	c-8.311,0-30.596-3.9-89.088-21.938c5.717-12.339,8.915-26.072,8.915-40.542c0-14.47-3.198-28.203-8.915-40.542
	c58.499-18.039,80.78-21.937,89.088-21.937c34.451,0,62.479,28.028,62.479,62.479S467.384,318.479,432.933,318.479z"/>
<path d="M256,140.441c4.58,0,8.294-3.713,8.294-8.294V70.22c0-4.58-3.713-8.294-8.294-8.294s-8.294,3.713-8.294,8.294v61.927
	C247.706,136.727,251.42,140.441,256,140.441z"/>
<path d="M256,371.559c-4.58,0-8.294,3.713-8.294,8.294v61.927c0,4.58,3.713,8.294,8.294,8.294s8.294-3.713,8.294-8.294v-61.927
	C264.294,375.273,260.58,371.559,256,371.559z"/>
<path d="M441.78,247.706h-61.927c-4.58,0-8.294,3.713-8.294,8.294s3.713,8.294,8.294,8.294h61.927c4.58,0,8.294-3.713,8.294-8.294
	S446.36,247.706,441.78,247.706z"/>
<path d="M140.441,256c0-4.58-3.713-8.294-8.294-8.294H70.22c-4.58,0-8.294,3.713-8.294,8.294s3.713,8.294,8.294,8.294h61.927
	C136.727,264.294,140.441,260.58,140.441,256z"/>
<path d="M162.558,174.287c1.619,1.62,3.742,2.43,5.864,2.43s4.245-0.809,5.864-2.43c3.239-3.239,3.239-8.489,0-11.728
	l-25.022-25.022c-3.239-3.239-8.491-3.239-11.728,0c-3.239,3.239-3.239,8.489,0,11.728L162.558,174.287z"/>
<path d="M349.442,337.713c-3.239-3.239-8.491-3.239-11.728,0c-3.239,3.239-3.239,8.489,0,11.728l25.022,25.022
	c1.619,1.62,3.742,2.43,5.864,2.43c2.122,0,4.245-0.809,5.864-2.43c3.239-3.239,3.239-8.489,0-11.728L349.442,337.713z"/>
<path d="M343.577,176.716c2.122,0,4.245-0.809,5.864-2.43l25.022-25.022c3.239-3.239,3.239-8.489,0-11.728
	c-3.239-3.239-8.491-3.239-11.728,0l-25.022,25.022c-3.239,3.239-3.239,8.489,0,11.728
	C339.332,175.907,341.454,176.716,343.577,176.716z"/>
<path d="M162.558,337.713l-25.022,25.022c-3.239,3.239-3.239,8.489,0,11.728c1.619,1.62,3.742,2.43,5.864,2.43
	c2.122,0,4.245-0.809,5.864-2.43l25.022-25.022c3.239-3.239,3.239-8.489,0-11.728C171.049,334.474,165.797,334.474,162.558,337.713z
	"/>
<g>
</g>
<g>
</g>
<g>
</g>
<g>
</g>
<g>
</g>
<g>
</g>
<g>
</g>
<g>
</g>
<g>
</g>
<g>
</g>
<g>
</g>
<g>
</g>
<g>
</g>
<g>
</g>
<g>
</g>
</svg>
