<?xml version="1.0" encoding="iso-8859-1"?>
<!-- Generator: Adobe Illustrator 19.0.0, SVG Export Plug-In . SVG Version: 6.00 Build 0)  -->
<svg version="1.1" id="Layer_1" xmlns="http://www.w3.org/2000/svg" xmlns:xlink="http://www.w3.org/1999/xlink" x="0px" y="0px"
	 viewBox="0 0 512 512" style="enable-background:new 0 0 512 512;" xml:space="preserve">
<path style="fill:#FF507D;" d="M13.339,243.178c-3.828,49.613-5.001,101.764-5.325,128.026c-0.118,9.516,7.576,17.272,17.094,17.272
	h470.282c4.671,0,8.487-3.738,8.546-8.408c0.267-21.373-0.488-80.118-14.327-136.89H13.339z"/>
<path style="fill:#D23C69;" d="M503.936,380.069c0.075-5.952,0.057-14.88-0.288-25.78H8.291c-0.128,6.388-0.217,12.095-0.277,16.915
	c-0.118,9.516,7.576,17.272,17.094,17.272h470.282C500.061,388.477,503.877,384.739,503.936,380.069z"/>
<path style="fill:#7DF5A5;" d="M26.389,150.769c-6.687,24.239-10.951,62.321-13.687,100.958h478.892
	c-8.896-40.301-24.049-80.602-49.81-106.897c-8.033-8.2-19.026-12.761-30.504-12.761c-62.387,0-294.528,0-360.216,0
	C39.557,132.068,29.448,139.676,26.389,150.769z"/>
<g>
	<path style="fill:#B92D64;" d="M178.954,388.477l-11.781-41.232c-3.145-11.007-13.206-18.597-24.655-18.597H78.637
		c-11.449,0-21.509,7.589-24.655,18.597l-11.781,41.232"/>
	<path style="fill:#B92D64;" d="M469.55,388.477l-11.781-41.232c-3.145-11.007-13.206-18.597-24.655-18.597h-63.882
		c-11.449,0-21.509,7.589-24.655,18.597l-11.781,41.232"/>
</g>
<g>
	<path style="fill:#E4EAF8;" d="M221.689,217.538h-68.376c-4.72,0-8.547-3.827-8.547-8.547v-34.188c0-4.72,3.827-8.547,8.547-8.547
		h68.376c4.72,0,8.547,3.827,8.547,8.547v34.188C230.236,213.712,226.409,217.538,221.689,217.538z"/>
	<path style="fill:#E4EAF8;" d="M332.799,217.538h-68.376c-4.72,0-8.547-3.827-8.547-8.547v-34.188c0-4.72,3.827-8.547,8.547-8.547
		h68.376c4.72,0,8.547,3.827,8.547,8.547v34.188C341.346,213.712,337.519,217.538,332.799,217.538z"/>
</g>
<path style="fill:#FFDC64;" d="M221.689,97.88H50.75c-4.72,0-8.547-3.827-8.547-8.547V63.692c0-4.72,3.827-8.547,8.547-8.547
	h170.939c4.72,0,8.547,3.827,8.547,8.547v25.641C230.236,94.054,226.409,97.88,221.689,97.88z"/>
<circle style="fill:#464655;" cx="110.576" cy="405.574" r="51.282"/>
<circle style="fill:#7DF5A5;" cx="110.576" cy="405.574" r="17.094"/>
<circle style="fill:#464655;" cx="401.173" cy="405.574" r="51.282"/>
<circle style="fill:#7DF5A5;" cx="401.173" cy="405.574" r="17.094"/>
<path style="fill:#E4EAF8;" d="M501.998,324.016c-1.095-13.995-2.775-29.391-5.307-45.312c-0.963-0.106-1.923-0.232-2.917-0.194
	c-11.888,0.451-21.127,11.331-20.637,24.303c0.493,12.972,10.528,23.123,22.417,22.672
	C497.834,325.397,499.961,324.81,501.998,324.016z"/>
<g>
	<path style="fill:#C7CFE2;" d="M221.689,166.256h-68.376c-4.72,0-8.547,3.827-8.547,8.547v25.641c0-4.72,3.827-8.547,8.547-8.547
		h68.376c4.72,0,8.547,3.827,8.547,8.547v-25.641C230.236,170.083,226.409,166.256,221.689,166.256z"/>
	<path style="fill:#C7CFE2;" d="M332.799,166.256h-68.376c-4.72,0-8.547,3.827-8.547,8.547v25.641c0-4.72,3.827-8.547,8.547-8.547
		h68.376c4.72,0,8.547,3.827,8.547,8.547v-25.641C341.346,170.083,337.519,166.256,332.799,166.256z"/>
</g>
<path style="fill:#E4EAF8;" d="M458.688,166.256h-83.154c-4.72,0-8.547,3.827-8.547,8.547v34.188c0,4.72,3.827,8.547,8.547,8.547
	h106.725C476.206,199.067,468.533,181.476,458.688,166.256z"/>
<path style="fill:#C7CFE2;" d="M375.534,191.897h96.871c-4.039-9.046-8.566-17.679-13.717-25.641h-83.154
	c-4.72,0-8.547,3.827-8.547,8.547v25.641C366.987,195.724,370.814,191.897,375.534,191.897z"/>
<path style="fill:#FFDC64;" d="M281.282,251.725c10.46,7.791,17.328,20.143,17.328,34.188c0,23.601-19.132,42.735-42.735,42.735
	s-42.735-19.133-42.735-42.735c0-14.045,6.867-26.397,17.328-34.188h-33.747c-5.831,10.065-9.222,21.719-9.222,34.188
	c0,37.763,30.613,68.376,68.376,68.376s68.376-30.613,68.376-68.376c0-12.469-3.391-24.123-9.222-34.188H281.282z"/>
<path d="M129.395,407.183c-3.829-2.215-8.732-0.908-10.949,2.923c-1.622,2.804-4.638,4.546-7.871,4.546
	c-5.007,0-9.081-4.074-9.081-9.081c0-5.007,4.074-9.081,9.081-9.081c4.425,0,8.013-3.588,8.013-8.013
	c0-4.425-3.588-8.013-8.013-8.013c-13.844,0-25.107,11.263-25.107,25.107s11.263,25.107,25.107,25.107
	c8.935,0,17.266-4.808,21.742-12.547C134.535,414.3,133.227,409.399,129.395,407.183z"/>
<path d="M419.992,407.183c-3.829-2.215-8.732-0.908-10.949,2.923c-1.622,2.804-4.638,4.546-7.871,4.546
	c-5.007,0-9.081-4.074-9.081-9.081c0-5.007,4.074-9.081,9.081-9.081c4.425,0,8.013-3.588,8.013-8.013
	c0-4.425-3.588-8.013-8.013-8.013c-13.844,0-25.107,11.263-25.107,25.107s11.263,25.107,25.107,25.107
	c8.935,0,17.266-4.808,21.742-12.547C425.132,414.3,423.823,409.399,419.992,407.183z"/>
<path d="M506.754,292.205c-9.262-70.835-29.194-122.306-59.245-152.982c-9.442-9.639-22.665-15.167-36.279-15.167H221.153v-18.162
	h0.534c9.131,0,16.56-7.428,16.56-16.56V63.694c0-9.131-7.428-16.56-16.56-16.56H50.748c-9.131,0-16.56,7.428-16.56,16.56v25.641
	c0,9.131,7.428,16.56,16.56,16.56h0.534v18.162h-0.191c-15.135,0-28.509,10.252-32.524,24.931
	C3.19,205.203,0.469,333.211,0.002,371.106c-0.083,6.751,2.484,13.114,7.23,17.919c4.755,4.814,11.104,7.466,17.876,7.466h26.871
	c-0.457,2.962-0.696,5.994-0.696,9.081c0,32.695,26.599,59.294,59.295,59.294s59.295-26.599,59.295-59.294
	c0-3.088-0.238-6.12-0.696-9.081h173.398c-0.457,2.962-0.695,5.994-0.695,9.081c0,32.695,26.599,59.294,59.294,59.294
	s59.294-26.599,59.294-59.294c0-3.088-0.238-6.12-0.695-9.081h43.964c4.291,0,7.818-3.379,8.005-7.664
	C511.82,387.033,513.571,344.345,506.754,292.205z M471.057,209.525h-95.524c-0.295,0-0.534-0.24-0.534-0.534v-34.188
	c0-0.294,0.239-0.534,0.534-0.534h78.763C460.853,185.04,466.389,196.966,471.057,209.525z M493.34,317.521
	c-0.137,0.013-0.271,0.037-0.408,0.043c-6.089,0.215-11.47-6.664-11.788-15.055c-0.282-7.454,3.526-14.021,8.636-15.559
	C491.307,297.521,492.465,307.806,493.34,317.521z M205.128,124.055h-60.897v-18.162h60.897V124.055z M50.214,89.333V63.692
	c0-0.294,0.239-0.534,0.534-0.534h170.939c0.295,0,0.534,0.24,0.534,0.534v25.641c0,0.294-0.239,0.534-0.534,0.534H50.748
	C50.454,89.867,50.214,89.628,50.214,89.333z M67.308,105.893h60.897v18.162H67.308V105.893z M110.577,448.84
	c-23.859,0-43.269-19.41-43.269-43.269s19.41-43.269,43.269-43.269s43.269,19.41,43.269,43.269S134.435,448.84,110.577,448.84z
	 M110.577,346.276c-23.724,0-44.228,14.011-53.699,34.188h-4.053l8.862-31.018c2.151-7.528,9.121-12.785,16.95-12.785h63.881
	c7.829,0,14.799,5.257,16.95,12.785l8.862,31.018h-4.053C154.805,360.288,134.301,346.276,110.577,346.276z M401.174,448.84
	c-23.859,0-43.269-19.41-43.269-43.269s19.41-43.269,43.269-43.269s43.269,19.41,43.269,43.269S425.031,448.84,401.174,448.84z
	 M401.174,346.276c-23.724,0-44.228,14.011-53.699,34.188h-4.053l8.862-31.018c2.151-7.528,9.121-12.785,16.95-12.785h63.881
	c7.829,0,14.799,5.257,16.95,12.785l8.862,31.018h-4.053C445.402,360.288,424.898,346.276,401.174,346.276z M495.901,380.464
	h-20.308l-10.121-35.42c-4.106-14.372-17.411-24.409-32.359-24.409h-63.881c-14.946,0-28.253,10.037-32.359,24.408l-10.121,35.421
	H184.997l-10.121-35.42c-4.106-14.372-17.411-24.409-32.359-24.409H78.636c-14.946,0-28.253,10.037-32.359,24.408l-10.121,35.421
	H25.108c-2.454,0-4.754-0.959-6.475-2.702c-1.71-1.733-2.637-4.027-2.606-6.459c0.247-19.989,1.123-65.353,4.153-111.564h30.569
	c4.425,0,8.013-3.588,8.013-8.013c0-4.425-3.588-8.013-8.013-8.013H21.319c2.683-34.834,6.698-68.533,12.706-90.497
	c2.115-7.733,9.133-13.135,17.066-13.135H411.23c9.333,0,18.383,3.775,24.831,10.356c2.418,2.468,4.73,5.082,6.958,7.807h-67.486
	c-9.131,0-16.56,7.428-16.56,16.56v34.188c0,9.131,7.428,16.56,16.56,16.56h100.932c1.831,5.987,3.495,12.057,5.001,18.162h-20.461
	c-4.425,0-8.013,3.588-8.013,8.013s3.588,8.013,8.013,8.013h24.063c0.772,3.786,1.495,7.568,2.163,11.333
	c-13.064,2.712-22.699,16.223-22.1,32.043c0.645,17.017,12.893,30.481,27.506,30.481c0.299,0,0.601-0.005,0.903-0.017
	c0.346-0.013,0.691-0.045,1.036-0.074C495.924,354.366,496.008,371.243,495.901,380.464z"/>
<path d="M426.816,243.713h-17.098c-4.425,0-8.013,3.588-8.013,8.013s3.588,8.013,8.013,8.013h17.098
	c4.425,0,8.013-3.588,8.013-8.013S431.241,243.713,426.816,243.713z"/>
<path d="M375.532,243.713H84.938c-4.425,0-8.013,3.588-8.013,8.013s3.588,8.013,8.013,8.013h99.17
	c-3.038,8.346-4.623,17.21-4.623,26.175c0,42.12,34.268,76.388,76.388,76.388s76.388-34.268,76.388-76.388
	c0-8.966-1.584-17.829-4.623-26.175h47.892c4.425,0,8.013-3.588,8.013-8.013S379.957,243.713,375.532,243.713z M247.863,345.729
	c-10.659-1.421-20.445-5.626-28.601-11.87l28.601-28.601V345.729z M263.888,305.258l28.601,28.601
	c-8.156,6.244-17.942,10.449-28.601,11.87V305.258z M201.475,259.738h46.388v22.857l-39.932,39.932
	c-7.78-10.163-12.418-22.855-12.418-36.614C195.512,276.82,197.567,267.86,201.475,259.738z M316.238,285.913
	c0,13.76-4.637,26.451-12.418,36.614l-39.932-39.932v-22.857h46.388C314.183,267.861,316.238,276.819,316.238,285.913z"/>
<path d="M153.312,225.55h68.376c9.131,0,16.56-7.428,16.56-16.56v-34.188c0-9.131-7.428-16.56-16.56-16.56h-68.376
	c-9.131,0-16.56,7.428-16.56,16.56v34.188C136.752,218.122,144.181,225.55,153.312,225.55z M152.778,174.803
	c0-0.294,0.239-0.534,0.534-0.534h68.376c0.295,0,0.534,0.24,0.534,0.534v34.188c0,0.294-0.239,0.534-0.534,0.534h-68.376
	c-0.295,0-0.534-0.24-0.534-0.534V174.803z"/>
<path d="M264.422,225.55h68.376c9.131,0,16.56-7.428,16.56-16.56v-34.188c0-9.131-7.428-16.56-16.56-16.56h-68.376
	c-9.131,0-16.56,7.428-16.56,16.56v34.188C247.863,218.122,255.291,225.55,264.422,225.55z M263.888,174.803
	c0-0.294,0.239-0.534,0.534-0.534h68.376c0.295,0,0.534,0.24,0.534,0.534v34.188c0,0.294-0.239,0.534-0.534,0.534h-68.376
	c-0.295,0-0.534-0.24-0.534-0.534V174.803z"/>
<g>
</g>
<g>
</g>
<g>
</g>
<g>
</g>
<g>
</g>
<g>
</g>
<g>
</g>
<g>
</g>
<g>
</g>
<g>
</g>
<g>
</g>
<g>
</g>
<g>
</g>
<g>
</g>
<g>
</g>
</svg>
