<?xml version="1.0" encoding="iso-8859-1"?>
<!-- Generator: Adobe Illustrator 19.0.0, SVG Export Plug-In . SVG Version: 6.00 Build 0)  -->
<svg version="1.1" id="Layer_1" xmlns="http://www.w3.org/2000/svg" xmlns:xlink="http://www.w3.org/1999/xlink" x="0px" y="0px"
	 viewBox="0 0 512 512" style="enable-background:new 0 0 512 512;" xml:space="preserve">
<path style="fill:#FF507D;" d="M256,8.591C119.579,8.591,8.591,119.579,8.591,256S119.579,503.409,256,503.409
	S503.409,392.421,503.409,256S392.421,8.591,256,8.591z M47.257,285.454c-8.041-58.924,8.493-114.004,40.756-156.537
	c3.404-4.488,9.922-5.068,13.904-1.086l282.249,282.249c3.983,3.983,3.402,10.5-1.086,13.904
	c-42.527,32.259-97.602,48.793-156.521,40.758C134.083,452.133,59.877,377.93,47.257,285.454z M410.082,384.167L127.833,101.918
	c-3.983-3.983-3.402-10.5,1.086-13.904c42.526-32.258,97.598-48.792,156.516-40.758c92.477,12.611,166.686,86.81,179.308,179.286
	c8.042,58.925-8.492,114.008-40.755,156.54C420.582,387.569,414.066,388.151,410.082,384.167z"/>
<path style="fill:#FF6991;" d="M159.9,185.815L326.185,352.1c9.922-7.258,18.656-15.993,25.915-25.915L185.816,159.9
	C175.893,167.159,167.159,175.893,159.9,185.815z"/>
<path d="M256,0C114.841,0,0,114.841,0,256s114.841,256,256,256s256-114.841,256-256S397.159,0,256,0z M256,494.819
	C124.315,494.819,17.181,387.685,17.181,256S124.315,17.181,256,17.181S494.819,124.315,494.819,256S387.685,494.819,256,494.819z"
	/>
<path d="M372.06,385.826c-3.355-3.355-8.794-3.355-12.148,0c-3.355,3.355-3.355,8.794,0,12.148l18.651,18.651
	c-35.137,26.852-78.297,41.541-122.563,41.541c-111.474,0-202.166-90.692-202.166-202.166c0-44.266,14.689-87.426,41.541-122.562
	l56.641,56.641l-19.721,138.044l-23.567-164.972c-0.671-4.697-5.026-7.962-9.719-7.289c-4.697,0.671-7.961,5.023-7.289,9.719
	l27.49,192.43c0.605,4.232,4.229,7.375,8.505,7.375h9.163c4.275,0,7.9-3.144,8.505-7.375l18.984-132.898l18.985,132.898
	c0.605,4.232,4.229,7.375,8.505,7.375h9.163c4.275,0,7.9-3.144,8.505-7.375l13.802-96.62l16.886,16.885l-11.044,77.305
	c-0.67,4.697,2.593,9.048,7.289,9.719c0.412,0.058,0.821,0.087,1.226,0.087c4.206,0,7.882-3.093,8.494-7.376l4.182-29.276h40.309
	l8.893,8.893l2.912,20.384c0.613,4.285,4.287,7.376,8.494,7.376c0.404,0,0.813-0.029,1.226-0.087
	c4.016-0.574,6.974-3.841,7.332-7.711l14.431,14.431c3.355,3.355,8.794,3.355,12.148,0c3.355-3.355,3.355-8.794,0-12.148
	l-245.359-245.36c-1.702-1.702-4.036-2.608-6.445-2.508c-2.405,0.104-4.655,1.212-6.205,3.055
	C54.923,154.515,36.653,204.57,36.653,256c0,120.948,98.399,219.347,219.347,219.347c51.43,0,101.485-18.269,140.942-51.443
	c1.843-1.55,2.951-3.799,3.055-6.205c0.103-2.405-0.806-4.743-2.508-6.445L372.06,385.826z M196.438,328.123l-15.603-109.224
	l27.306,27.306L196.438,328.123z M252.815,311.553l2.584-18.09l18.091,18.09H252.815z"/>
<path d="M256,36.653c-51.43,0-101.485,18.269-140.942,51.443c-1.843,1.55-2.951,3.799-3.055,6.205
	c-0.103,2.405,0.806,4.743,2.508,6.445l25.428,25.428c3.355,3.355,8.794,3.355,12.148,0c3.355-3.355,3.355-8.794,0-12.148
	l-18.651-18.651C168.574,68.523,211.734,53.834,256,53.834c111.474,0,202.166,90.692,202.166,202.166
	c0,44.266-14.689,87.426-41.541,122.562l-16.44-16.44c1.733-2.196,2.364-5.19,1.413-8.042l-24.326-72.979
	c14.371-4.757,24.768-18.32,24.768-34.264v-54.98c0-19.895-16.186-36.081-36.081-36.081h-27.49c-4.744,0-8.591,3.846-8.591,8.591
	v127.449l-22.755-22.755l-15.13-105.908c-0.605-4.232-4.229-7.375-8.505-7.375h-18.327c-4.275,0-7.9,3.144-8.505,7.375l-6.93,48.513
	l-16.885-16.886l4.17-29.198c0.67-4.697-2.593-9.048-7.289-9.719c-4.697-0.668-9.048,2.593-9.719,7.289l-2.348,16.441
	l-39.615-39.615c-3.355-3.355-8.794-3.355-12.148,0c-3.355,3.355-3.355,8.794,0,12.148l245.361,245.361
	c1.614,1.615,3.8,2.516,6.074,2.516c0.124,0,0.247-0.002,0.371-0.008c2.405-0.104,4.655-1.212,6.205-3.055
	c33.171-39.457,51.441-89.512,51.441-140.942C475.347,135.052,376.948,36.653,256,36.653z M347.06,172.957h18.899
	c10.421,0,18.899,8.478,18.899,18.899v54.98c0,10.421-8.478,18.899-18.899,18.899c-2.762,0-5.355,1.328-6.969,3.568
	c-1.615,2.24-2.054,5.12-1.181,7.74l21.352,64.055l-32.101-32.101V172.957z M272.614,172.957h3.425l10.837,75.854l-21.96-21.96
	L272.614,172.957z"/>
<g>
</g>
<g>
</g>
<g>
</g>
<g>
</g>
<g>
</g>
<g>
</g>
<g>
</g>
<g>
</g>
<g>
</g>
<g>
</g>
<g>
</g>
<g>
</g>
<g>
</g>
<g>
</g>
<g>
</g>
</svg>
