<?xml version="1.0" encoding="iso-8859-1"?>
<!-- Generator: Adobe Illustrator 19.0.0, SVG Export Plug-In . SVG Version: 6.00 Build 0)  -->
<svg version="1.1" id="Layer_1" xmlns="http://www.w3.org/2000/svg" xmlns:xlink="http://www.w3.org/1999/xlink" x="0px" y="0px"
	 viewBox="0 0 512.001 512.001" style="enable-background:new 0 0 512.001 512.001;" xml:space="preserve">
<path style="fill:#7DF5A5;" d="M447.812,81.386c3.563-0.782,6.165,0.757,7.385,1.745c1.225,0.988,3.276,3.189,3.276,6.853v225.691
	c-15.926-6.426-35.57-7.63-55.379-2.029c-40.393,11.418-66.08,46.66-57.375,78.712s48.507,48.779,88.899,37.361
	c35.446-10.021,59.579-38.383,59.07-66.84c-0.031-1.701,0-310.603,0-310.603c0-13.368-5.971-25.861-16.378-34.252
	c-10.407-8.4-23.875-11.58-36.943-8.77L181.339,65.258c-28.165,6.087-48.606,31.415-48.606,60.233v260.613
	c-15.926-6.426-35.57-7.63-55.379-2.029c-40.393,11.418-66.08,46.66-57.375,78.712s48.506,48.779,88.899,37.361
	c35.444-10.02,59.577-38.385,59.07-66.84c-0.008-0.431,0-270.11,0-270.11c0-12.346,8.761-23.204,20.832-25.809L447.812,81.386z"/>
<g>
	<path style="fill:#64DCA0;" d="M72.794,427.586c-1.967-7.242-2.131-14.636-0.784-21.884c0.631-3.394-0.198-6.891-2.639-9.332
		l-1.596-1.596c-3.236-3.237-8.248-3.796-12.206-1.499c-27.306,15.841-42.598,43.705-35.59,69.511
		c8.705,32.052,48.506,48.779,88.899,37.361c13.74-3.885,25.761-10.535,35.311-18.875c5.26-4.594,1.624-13.056-5.357-12.849
		C107.236,469.361,79.836,453.518,72.794,427.586z"/>
	<path style="fill:#64DCA0;" d="M398.532,357.171c-1.967-7.242-2.131-14.636-0.784-21.884c0.631-3.394-0.198-6.891-2.639-9.332
		l-1.596-1.596c-3.236-3.236-8.248-3.796-12.206-1.499c-27.306,15.841-42.598,43.705-35.59,69.511
		c8.705,32.052,48.507,48.779,88.899,37.361c13.74-3.885,25.761-10.535,35.311-18.875c5.26-4.594,1.624-13.056-5.357-12.849
		C432.973,398.946,405.575,383.102,398.532,357.171z"/>
	<path style="fill:#64DCA0;" d="M167.949,130.471v32.728c0-12.346,8.761-23.204,20.832-25.809l259.032-56.004
		c3.563-0.782,6.165,0.757,7.385,1.745c1.225,0.988,3.276,3.189,3.276,6.853V67.81c0-11.234-10.376-19.594-21.352-17.205
		L188.78,104.661C176.709,107.266,167.949,118.125,167.949,130.471z"/>
</g>
<path d="M370.425,106.37c0.578,0,1.164-0.061,1.752-0.188l17.612-3.808c4.455-0.963,7.286-5.356,6.323-9.812
	c-0.963-4.455-5.35-7.286-9.812-6.323l-17.612,3.808c-4.455,0.963-7.286,5.356-6.323,9.812
	C363.203,103.728,366.623,106.37,370.425,106.37z"/>
<path d="M343.287,103.986c-0.963-4.455-5.35-7.29-9.812-6.323l-146.436,31.66c-15.845,3.419-27.344,17.667-27.344,33.876
	c0,0-0.013,111.187-0.013,190.891c0,4.558,3.695,8.254,8.254,8.254s8.254-3.695,8.254-8.254c0-79.703,0.013-190.889,0.013-190.89
	c0-8.489,6.022-15.951,14.323-17.743l146.439-31.661C341.42,112.833,344.251,108.44,343.287,103.986z"/>
<path d="M501.942,52.276c0-15.884-7.089-30.711-19.448-40.674c-12.343-9.961-28.33-13.758-43.872-10.414L179.596,57.192
	c-31.936,6.901-55.115,35.627-55.115,68.301v249.317c-15.56-3.804-32.695-3.389-49.37,1.326
	c-44.663,12.626-72.967,52.469-63.095,88.818c4.118,15.161,14.567,28.141,29.423,36.55c12.278,6.949,26.777,10.5,41.92,10.498
	c9.136,0,18.509-1.292,27.766-3.91c38.288-10.823,65.657-42.335,65.078-74.881c-0.004-0.551-0.011-8.616-0.012-43.908
	c0-4.558-3.695-8.254-8.254-8.254s-8.254,3.695-8.254,8.254c0.001,43.489,0.01,43.943,0.014,44.153
	c0.449,25.224-21.867,49.933-53.064,58.751c-20.388,5.765-41.188,3.917-57.065-5.07c-11.15-6.311-18.628-15.478-21.623-26.511
	c-7.511-27.655,15.662-58.432,51.656-68.607c17.34-4.903,35.113-4.284,50.045,1.741c2.544,1.027,5.432,0.722,7.704-0.812
	c2.274-1.535,3.637-4.098,3.637-6.842V125.492c0-24.955,17.703-46.894,42.096-52.167l259.017-56.002
	c10.635-2.287,21.579,0.308,30.026,7.126c8.456,6.817,13.305,16.96,13.305,27.826c-0.003,31.625-0.03,309.027,0.001,310.752
	c0.451,25.222-21.865,49.93-53.064,58.75c-20.388,5.764-41.188,3.917-57.065-5.07c-11.15-6.311-18.628-15.478-21.623-26.511
	c-7.511-27.655,15.662-58.432,51.656-68.607c17.34-4.902,35.113-4.283,50.045,1.741c2.543,1.028,5.432,0.722,7.704-0.812
	c2.274-1.535,3.637-4.098,3.637-6.842V89.983c0-5.182-2.313-10.02-6.334-13.266c-4.04-3.272-9.27-4.508-14.324-3.398l-24.551,5.309
	c-4.456,0.963-7.286,5.356-6.323,9.812c0.963,4.455,5.355,7.291,9.812,6.323l24.577-5.314c0.149-0.032,0.237-0.051,0.432,0.107
	c0.206,0.166,0.206,0.26,0.206,0.429v214.395c-15.561-3.804-32.695-3.388-49.37,1.326c-44.663,12.626-72.967,52.469-63.095,88.818
	c4.118,15.161,14.567,28.141,29.422,36.55c19.685,11.141,45.084,13.545,69.687,6.59c38.291-10.825,65.661-42.338,65.077-74.877
	C501.911,359.142,501.941,55.345,501.942,52.276z"/>
<g>
</g>
<g>
</g>
<g>
</g>
<g>
</g>
<g>
</g>
<g>
</g>
<g>
</g>
<g>
</g>
<g>
</g>
<g>
</g>
<g>
</g>
<g>
</g>
<g>
</g>
<g>
</g>
<g>
</g>
</svg>
