<?xml version="1.0" encoding="iso-8859-1"?>
<!-- Generator: Adobe Illustrator 19.0.0, SVG Export Plug-In . SVG Version: 6.00 Build 0)  -->
<svg version="1.1" id="Layer_1" xmlns="http://www.w3.org/2000/svg" xmlns:xlink="http://www.w3.org/1999/xlink" x="0px" y="0px"
	 viewBox="0 0 512 512" style="enable-background:new 0 0 512 512;" xml:space="preserve">
<path style="fill:#FF6991;" d="M256,8.017L256,8.017c-42.505,0-76.96,34.456-76.96,76.96v259.469
	c0,9.072,3.603,17.771,10.019,24.186L256,435.574l66.942-66.942c6.414-6.414,10.019-15.115,10.019-24.186V84.977
	C332.96,42.472,298.505,8.017,256,8.017z"/>
<polygon style="fill:#FFDC64;" points="332.96,153.386 256,230.347 256,281.653 332.96,204.693 "/>
<polygon style="fill:#FFC850;" points="332.96,256 256,332.96 256,375.716 332.96,298.756 "/>
<path style="fill:#FF507D;" d="M179.04,84.977v259.469c0,9.072,3.604,17.771,10.019,24.186L256,435.574V8.017
	C213.495,8.017,179.04,42.472,179.04,84.977z"/>
<polygon style="fill:#FFC850;" points="179.04,204.693 256,281.653 256,324.409 179.04,247.449 "/>
<g>
	<path style="fill:#FFDC64;" d="M179.04,84.977v17.102L256,179.04v-51.307l-71.395-71.395
		C181.048,65.197,179.04,74.846,179.04,84.977z"/>
	<path style="fill:#FFDC64;" d="M256,84.977l54.419-54.42c-5.785-5.785-12.525-10.583-19.906-14.299L256,50.772V84.977z"/>
</g>
<path d="M340.977,84.977C340.977,38.121,302.856,0,256,0s-84.977,38.121-84.977,84.977v259.469c0,11.278,4.392,21.88,12.366,29.855
	l64.594,64.593v65.089c0,4.427,3.589,8.017,8.017,8.017c4.427,0,8.017-3.589,8.017-8.017v-65.089l64.594-64.594
	c7.974-7.974,12.366-18.577,12.366-29.855V84.977z M187.056,84.977c0-4.624,0.466-9.141,1.338-13.513l59.589,59.549v37.223
	l-60.927-60.927V84.977z M264.017,284.973l60.927-60.927v71.388l-60.927,60.927V284.973z M256,16.033
	c38.015,0,68.944,30.928,68.944,68.944v116.396L264.017,262.3v-28.632l40.407-40.407c3.131-3.131,3.131-8.207,0-11.337
	c-3.131-3.131-8.207-3.131-11.337,0l-29.071,29.07v-83.26c0-0.554-0.068-1.158-0.182-1.7c-0.32-1.524-1.077-2.921-2.178-4.023
	l-67.503-67.459C205.415,31.756,228.9,16.033,256,16.033z M194.727,362.963c-4.946-4.946-7.67-11.523-7.67-18.518V129.984
	l60.927,60.927v114.144l-29.071-29.071c-3.131-3.131-8.207-3.131-11.337,0c-3.131,3.131-3.131,8.207,0,11.337l40.407,40.408v88.491
	L194.727,362.963z M317.273,362.963l-53.257,53.258v-37.184l60.927-60.927v26.336C324.944,351.442,322.22,358.017,317.273,362.963z"
	/>
<g>
</g>
<g>
</g>
<g>
</g>
<g>
</g>
<g>
</g>
<g>
</g>
<g>
</g>
<g>
</g>
<g>
</g>
<g>
</g>
<g>
</g>
<g>
</g>
<g>
</g>
<g>
</g>
<g>
</g>
</svg>
