<?xml version="1.0" encoding="iso-8859-1"?>
<!-- Generator: Adobe Illustrator 19.0.0, SVG Export Plug-In . SVG Version: 6.00 Build 0)  -->
<svg version="1.1" id="Layer_1" xmlns="http://www.w3.org/2000/svg" xmlns:xlink="http://www.w3.org/1999/xlink" x="0px" y="0px"
	 viewBox="0 0 512 512" style="enable-background:new 0 0 512 512;" xml:space="preserve">
<circle style="fill:#7DF5A5;" cx="256" cy="76.426" r="68.409"/>
<path style="fill:#64DCA0;" d="M298.756,127.733c-37.781,0-68.409-30.628-68.409-68.409c0-20.391,8.971-38.646,23.124-51.179
	c-36.6,1.341-65.88,31.354-65.88,68.281c0,37.781,30.628,68.409,68.409,68.409c17.39,0,33.215-6.542,45.285-17.231
	C300.439,127.636,299.61,127.733,298.756,127.733z"/>
<circle style="fill:#FF6991;" cx="221.795" cy="144.835" r="68.409"/>
<path style="fill:#FF507D;" d="M264.551,196.142c-37.781,0-68.409-30.628-68.409-68.409c0-20.391,8.971-38.646,23.124-51.179
	c-36.6,1.341-65.88,31.354-65.88,68.281c0,37.781,30.628,68.409,68.409,68.409c17.39,0,33.215-6.542,45.285-17.231
	C266.235,196.045,265.405,196.142,264.551,196.142z"/>
<path style="fill:#FAEBC8;" d="M221.795,76.426c-25.772,0-48.194,14.265-59.858,35.317v14.719c0,8.519,5.821,16.415,14.23,17.783
	c10.715,1.743,19.974-6.481,19.974-16.868c0-9.445,7.658-17.102,17.102-17.102c9.502,0.198,17.102,7.958,17.102,17.463v17.098
	h34.205V91.479C252.836,82.079,237.985,76.426,221.795,76.426z"/>
<path style="fill:#F5DCB4;" d="M176.168,144.244c10.715,1.743,19.974-6.481,19.974-16.868c0-0.145,0.04-0.28,0.043-0.424
	c0.228-20.046,9.091-37.978,23.03-50.348c-24.668,0.928-46.011,14.802-57.278,35.139v14.719
	C161.937,134.98,167.759,142.876,176.168,144.244z"/>
<circle style="fill:#00C3FF;" cx="290.205" cy="144.835" r="68.409"/>
<path style="fill:#00AAF0;" d="M332.96,196.142c-37.781,0-68.409-30.628-68.409-68.409c0-20.391,8.971-38.646,23.124-51.179
	c-36.6,1.341-65.88,31.354-65.88,68.281c0,37.781,30.628,68.409,68.409,68.409c17.39,0,33.215-6.542,45.285-17.231
	C334.644,196.045,333.814,196.142,332.96,196.142z"/>
<path style="fill:#FFDC64;" d="M161.937,179.04l15.411,138.707c0.962,8.661,8.284,15.214,16.998,15.214h10.347l15.562,155.622
	c0.874,8.742,8.232,15.401,17.019,15.401h37.453c8.787,0,16.145-6.658,17.019-15.401l15.561-155.622h10.347
	c8.714,0,16.036-6.552,16.998-15.214l15.411-138.707H161.937z"/>
<path style="fill:#FFC850;" d="M350.063,179.04H161.937l15.411,138.707c0.962,8.661,8.284,15.214,16.998,15.214h10.347
	l15.562,155.622c0.874,8.742,8.232,15.401,17.019,15.401h30.76c-6.391,0-11.741-6.658-12.376-15.401l-9.453-129.969h58.537
	l2.565-25.653h10.347c6.269,0,11.777-2.353,14.755-7.482H226.084c-0.843-2-1.434-5.302-1.63-7.731l-7.754-95.951h128.612
	L350.063,179.04z"/>
<path d="M367.165,171.023h-5.16c3.04-8.349,4.625-17.218,4.625-26.188c0-26.603-13.67-50.063-34.347-63.755
	c0.093-1.55,0.142-3.104,0.142-4.654C332.426,34.285,298.141,0,256,0s-76.426,34.285-76.426,76.426c0,1.55,0.049,3.104,0.142,4.654
	c-20.677,13.693-34.347,37.153-34.347,63.755c0,8.955,1.58,17.836,4.619,26.188h-5.153c-4.427,0-8.017,3.589-8.017,8.017
	s3.589,8.017,8.017,8.017h9.927l14.619,131.575c1.416,12.739,12.149,22.345,24.966,22.345h3.091l14.841,148.403
	c1.289,12.895,12.034,22.62,24.994,22.62h37.454c12.96,0,23.705-9.725,24.995-22.62l14.841-148.403h3.091
	c12.817,0,23.55-9.606,24.965-22.345l14.619-131.575h9.927c4.427,0,8.017-3.589,8.017-8.017S371.592,171.023,367.165,171.023z
	 M350.597,144.835c0,9.098-2.055,18.063-5.965,26.188H235.775c-3.907-8.121-5.962-17.103-5.962-26.188
	c0-33.3,27.092-60.392,60.393-60.392S350.597,111.535,350.597,144.835z M167.365,171.023c-3.848-7.999-5.895-16.832-5.956-25.775
	c4.539,4.478,10.766,7.248,17.63,7.248c13.851,0,25.119-11.268,25.119-25.119c0-5.01,4.076-9.086,9.086-9.086
	c1.726,0,3.384,0.488,4.811,1.381c-2.759,7.885-4.277,16.348-4.277,25.163c0,8.955,1.58,17.836,4.619,26.188H167.365z M256,16.033
	c32.149,0,58.505,25.254,60.289,56.965c-8.144-2.966-16.927-4.589-26.084-4.589c-12.276,0-23.877,2.927-34.166,8.093
	c-10.578-5.303-22.323-8.093-34.243-8.093c-9.157,0-17.94,1.623-26.084,4.589C197.495,41.287,223.851,16.033,256,16.033z
	 M221.795,84.443c6.216,0,12.368,0.964,18.235,2.817c-5.897,5.146-11.011,11.165-15.108,17.877
	c-3.555-1.868-7.545-2.879-11.679-2.879c-13.851,0-25.119,11.268-25.119,25.119c0,5.01-4.076,9.086-9.086,9.086
	s-9.086-4.076-9.086-9.086v-13.478C180.513,96.271,199.795,84.443,221.795,84.443z M326.683,316.862
	c-0.512,4.608-4.394,8.082-9.03,8.082h-27.451c-4.427,0-8.017,3.589-8.017,8.017c0,4.427,3.589,8.017,8.017,8.017h8.246
	l-14.68,146.808c-0.466,4.664-4.353,8.181-9.041,8.181h-37.454c-4.688,0-8.575-3.518-9.041-8.181l-14.681-146.808h42.45
	c4.427,0,8.017-3.589,8.017-8.017c0-4.427-3.589-8.017-8.017-8.017h-61.655c-4.636,0-8.518-3.474-9.03-8.082l-14.423-129.805
	h170.212L326.683,316.862z"/>
<path d="M261.668,139.167c-3.131-3.131-8.207-3.131-11.337,0c-3.131,3.131-3.131,8.207,0,11.337l8.551,8.551
	c1.565,1.565,3.617,2.348,5.668,2.348c2.051,0,4.103-0.782,5.668-2.348c3.131-3.131,3.131-8.207,0-11.337L261.668,139.167z"/>
<path d="M267.434,104.962l-8.551,8.551c-3.131,3.131-3.131,8.207,0,11.337c1.565,1.565,3.617,2.348,5.668,2.348
	c2.051,0,4.103-0.782,5.668-2.348l8.551-8.551c3.131-3.131,3.131-8.207,0-11.337C275.641,101.831,270.564,101.831,267.434,104.962z"
	/>
<path d="M310.19,147.718c-3.131,3.131-3.131,8.207,0,11.337c1.565,1.565,3.617,2.348,5.668,2.348c2.051,0,4.103-0.782,5.668-2.348
	l8.551-8.551c3.131-3.131,3.131-8.207,0-11.337c-3.131-3.131-8.207-3.131-11.337,0L310.19,147.718z"/>
<path d="M310.19,124.85c1.565,1.565,3.617,2.348,5.668,2.348c2.051,0,4.103-0.782,5.668-2.348c3.131-3.131,3.131-8.207,0-11.337
	l-8.551-8.551c-3.131-3.131-8.207-3.131-11.337,0c-3.131,3.131-3.131,8.207,0,11.337L310.19,124.85z"/>
<path d="M282.231,136.284c0,4.427,3.632,8.017,8.059,8.017s8.017-3.589,8.017-8.017c0-4.427-3.589-8.017-8.017-8.017h-0.086
	C285.777,128.267,282.231,131.857,282.231,136.284z"/>
<path d="M315.858,205.228h-17.104c-4.427,0-8.017,3.589-8.017,8.017s3.589,8.017,8.017,8.017h17.104
	c4.427,0,8.017-3.589,8.017-8.017S320.285,205.228,315.858,205.228z"/>
<path d="M264.55,205.228h-68.408c-4.427,0-8.017,3.589-8.017,8.017s3.589,8.017,8.017,8.017h68.408c4.427,0,8.017-3.589,8.017-8.017
	S268.977,205.228,264.55,205.228z"/>
<g>
</g>
<g>
</g>
<g>
</g>
<g>
</g>
<g>
</g>
<g>
</g>
<g>
</g>
<g>
</g>
<g>
</g>
<g>
</g>
<g>
</g>
<g>
</g>
<g>
</g>
<g>
</g>
<g>
</g>
</svg>
