<?xml version="1.0" encoding="iso-8859-1"?>
<!-- Generator: Adobe Illustrator 19.0.0, SVG Export Plug-In . SVG Version: 6.00 Build 0)  -->
<svg version="1.1" id="Layer_1" xmlns="http://www.w3.org/2000/svg" xmlns:xlink="http://www.w3.org/1999/xlink" x="0px" y="0px"
	 viewBox="0 0 512 512" style="enable-background:new 0 0 512 512;" xml:space="preserve">
<rect x="110.684" y="8.017" style="fill:#64DCA0;" width="287.329" height="51.307"/>
<circle style="fill:#FFDC64;" cx="256.053" cy="401.37" r="102.614"/>
<circle style="fill:#FFF082;" cx="256.053" cy="401.37" r="42.756"/>
<path style="fill:#E1A546;" d="M256.057,477.795c-42.143,0-76.426-34.286-76.426-76.426s34.283-76.426,76.426-76.426
	s76.426,34.286,76.426,76.426S298.2,477.795,256.057,477.795z M256.057,340.977c-33.297,0-60.392,27.091-60.392,60.392
	s27.095,60.392,60.392,60.392s60.392-27.091,60.392-60.392S289.353,340.977,256.057,340.977z"/>
<polygon style="fill:#50BE9B;" points="398.012,59.324 398.012,8.017 367.222,8.017 333.551,59.324 "/>
<path style="fill:#64DCA0;" d="M424.641,52.399L398.012,8.017L224.05,273.102h68.364L424.309,70.53
	C427.879,65.048,428.008,58.01,424.641,52.399z"/>
<path style="fill:#7DF5A5;" d="M284.65,273.102L110.687,8.017l-26.63,44.383c-3.365,5.611-3.236,12.648,0.335,18.131
	l131.893,202.572H284.65z"/>
<path d="M293.779,354.249c3.457,2.775,6.615,5.938,9.388,9.4c1.583,1.977,3.912,3.006,6.263,3.006c1.757,0,3.527-0.575,5.007-1.759
	c3.456-2.767,4.014-7.813,1.246-11.268c-3.504-4.375-7.495-8.372-11.865-11.879c-3.451-2.773-8.498-2.22-11.269,1.232
	C289.775,346.432,290.326,351.477,293.779,354.249z"/>
<path d="M179.574,401.37c0,42.141,34.285,76.426,76.426,76.426s76.426-34.285,76.426-76.426c0-6.466-0.81-12.891-2.407-19.098
	c-1.103-4.287-5.474-6.868-9.761-5.766c-4.287,1.103-6.87,5.474-5.766,9.762c1.261,4.903,1.902,9.985,1.902,15.102
	c0,13.766-4.639,26.464-12.424,36.632l-39.953-39.953v-56.534c2.401,0.317,4.778,0.769,7.112,1.37
	c4.284,1.104,8.659-1.474,9.764-5.761c1.106-4.287-1.473-8.659-5.761-9.764c-6.218-1.603-12.656-2.417-19.132-2.417
	C213.859,324.944,179.574,359.228,179.574,401.37z M247.983,420.723v40.491c-10.664-1.422-20.455-5.629-28.615-11.875
	L247.983,420.723z M264.017,420.723l28.615,28.615c-8.16,6.247-17.951,10.454-28.615,11.875V420.723z M247.983,341.525v56.524
	l-39.952,39.952c-7.785-10.168-12.424-22.866-12.424-36.632C195.608,370.789,218.462,345.461,247.983,341.525z"/>
<path d="M434.761,48.088L408.244,3.892c-1.408-2.347-3.918-3.814-6.654-3.889c-0.074-0.002-0.146,0.007-0.22,0.007V0H110.63v0.011
	c-0.074,0-0.146-0.011-0.22-0.009c-2.737,0.075-5.246,1.541-6.654,3.889L77.239,48.087c-5.01,8.348-4.718,18.951,0.743,27.012
	l129.431,191.066c-6.264,2.367-10.737,8.407-10.737,15.488v26.375c-30.823,19.658-51.307,54.151-51.307,93.341
	C145.37,462.371,194.998,512,256,512s110.63-49.629,110.63-110.63c0-39.19-20.484-73.683-51.307-93.341v-26.375
	c0-7.081-4.473-13.122-10.737-15.488L434.018,75.1C439.479,67.039,439.771,56.437,434.761,48.088z M362.361,51.307h-29.4
	c-4.427,0-8.017,3.589-8.017,8.017s3.589,8.017,8.017,8.017h18.538L256,208.316L160.501,67.34h138.255
	c4.427,0,8.017-3.589,8.017-8.017s-3.589-8.017-8.017-8.017H149.639l-23.894-35.273h260.511L362.361,51.307z M90.987,56.337
	l20.052-33.422L275.09,265.086h-49.043L91.257,66.107C89.28,63.192,89.176,59.357,90.987,56.337z M350.597,401.37
	c0,52.161-42.436,94.597-94.597,94.597s-94.597-42.436-94.597-94.597s42.436-94.597,94.597-94.597S350.597,349.209,350.597,401.37z
	 M256,290.739c-15.355,0-29.987,3.147-43.29,8.826v-17.911c0-0.295,0.239-0.534,0.534-0.534h85.511c0.295,0,0.534,0.239,0.534,0.534
	v17.911C285.987,293.886,271.355,290.739,256,290.739z M420.743,66.108l-130.539,192.7l-24.521-36.199L400.96,22.915l20.052,33.422
	C422.824,59.357,422.72,63.192,420.743,66.108z"/>
<g>
</g>
<g>
</g>
<g>
</g>
<g>
</g>
<g>
</g>
<g>
</g>
<g>
</g>
<g>
</g>
<g>
</g>
<g>
</g>
<g>
</g>
<g>
</g>
<g>
</g>
<g>
</g>
<g>
</g>
</svg>
