<?xml version="1.0" encoding="iso-8859-1"?>
<!-- Generator: Adobe Illustrator 19.0.0, SVG Export Plug-In . SVG Version: 6.00 Build 0)  -->
<svg version="1.1" id="Layer_1" xmlns="http://www.w3.org/2000/svg" xmlns:xlink="http://www.w3.org/1999/xlink" x="0px" y="0px"
	 viewBox="0 0 512 512" style="enable-background:new 0 0 512 512;" xml:space="preserve">
<path style="fill:#F5C882;" d="M406.801,10.309c-17.318-6.303-36.466,2.626-42.77,19.944l-78.232,214.941l-78.233-214.94
	c-6.303-17.319-25.452-26.247-42.771-19.944s-26.247,25.452-19.944,42.771l75.489,211.482c-7.077,6.473-11.361,15.949-10.814,26.416
	c0.944,18.045,17.141,31.577,35.21,31.577l-119.583,21.909l24.717,107.509c6.988,30.283,33.953,51.733,65.03,51.733h89.921
	c47.39,0,85.808-38.418,85.808-85.808V303.489c0-23.044-16.351-42.269-38.084-46.705l74.2-203.702
	C433.048,35.761,424.118,16.613,406.801,10.309z"/>
<path style="fill:#F5AF73;" d="M151.694,349.097l19.048,88.889c4.37,20.395,22.394,34.966,43.252,34.966h61.555
	c39.087,0,70.774-31.687,70.774-70.774v-44.234c0-19.544-15.843-35.387-35.387-35.387H151.694L151.694,349.097L151.694,349.097z"/>
<path style="fill:#F5965F;" d="M310.936,322.557l-69.854-0.105l-115.928,22.013l10.908,47.449c2.411,0.353,4.857,0.575,7.339,0.575
	c5.956,0,11.831-1.04,17.464-3.089c7.741-2.818,14.42-7.365,19.732-13.072c1.947-2.092,5.071-2.331,7.671-1.146
	c6.501,2.963,13.668,4.588,21.087,4.588c5.956,0,11.831-1.039,17.464-3.089c14.825-5.395,25.607-16.953,30.476-30.896
	c0.947-2.71,3.346-4.638,6.217-4.638h78.391C335.907,330.125,324.365,322.557,310.936,322.557z"/>
<g>
	<path style="fill:#F5C882;" d="M175.772,334.003l-29.574-81.252c-7.555-14.776-24.981-22.049-40.977-16.227
		c-17.319,6.303-26.247,25.452-19.944,42.771l26.765,73.537c6.303,17.319,25.452,26.247,42.771,19.944
		C170.81,366.951,179.484,350.178,175.772,334.003z"/>
	<path style="fill:#F5C882;" d="M242.157,322.552l-40.468-112.478c-6.303-17.319-25.452-26.247-42.771-19.944
		s-26.247,25.452-19.945,42.771l39.022,107.212c6.303,17.319,25.452,26.247,42.771,19.944
		C236.342,354.387,245.133,338.326,242.157,322.552z"/>
</g>
<g>
	<path style="fill:#F5AF73;" d="M174.116,342.443c-17.319,6.303-36.467-2.626-42.771-19.944l-26.765-73.535
		c-1.349-3.708-1.867-7.489-1.888-11.22c-15.576,7.203-23.392,25.131-17.416,41.551l26.765,73.537
		c6.303,17.319,25.452,26.247,42.771,19.944c13.589-4.946,22.068-17.796,21.723-31.477
		C175.722,341.671,174.973,342.132,174.116,342.443z"/>
	<path style="fill:#F5AF73;" d="M249.507,255.817L176.922,53.08c-5.703-15.668,1.138-32.735,15.303-40.531
		c-8.136-4.471-18.019-5.664-27.428-2.239c-17.319,6.303-26.247,25.452-19.944,42.771L214.1,247.079
		c-2.981,2.021-5.786,4.318-8.294,6.96c-4.388,4.625-7.719,9.915-10.01,15.623c-1.211,3.018-4.189,4.95-7.436,5.126
		c-3.815,0.207-7.315-2.107-8.622-5.696l-26.023-71.496c-0.524-1.441-0.79-2.903-1.107-4.359
		c-13.059,8.177-19.117,24.604-13.635,39.666l38.492,105.756c5.66,17.292,22.845,26.564,39.592,22.517
		c17.865-4.316,28.304-21.635,25.099-38.622l-0.014-0.086l-1.336-0.117c-16.405-1.806-30.405-14.662-31.28-31.368
		c-0.565-10.796,4.112-20.424,11.591-26.903l-0.003-0.009c5.846-5.077,13.384-8.25,21.734-8.25h6.658V255.817z"/>
	<path style="fill:#F5AF73;" d="M326.558,224.357l70.647-194.103c2.808-7.713,8.237-13.632,14.844-17.412
		c-0.47-0.271-1.027-0.602-1.647-0.969c-1.158-0.582-2.355-1.109-3.603-1.564c-17.318-6.303-36.466,2.626-42.77,19.944
		l-78.232,214.941h11C310.112,245.194,322.005,236.867,326.558,224.357z"/>
</g>
<path d="M320.336,322.557c0,4.58,3.713,8.294,8.294,8.294h17.694c4.58,0,8.294-3.713,8.294-8.294s-3.713-8.294-8.294-8.294H328.63
	C324.048,314.263,320.336,317.977,320.336,322.557z"/>
<path d="M409.637,2.516c-21.591-7.858-45.544,3.313-53.401,24.901l-70.438,193.529L215.36,27.417
	c-7.857-21.587-31.815-32.76-53.401-24.901c-10.458,3.806-18.807,11.457-23.51,21.543c-4.703,10.086-5.197,21.4-1.391,31.858
	l45.802,125.839c-8.715-2.767-18.045-2.6-26.778,0.579c-10.458,3.806-18.807,11.457-23.51,21.543
	c-3.597,7.715-4.732,16.15-3.364,24.37c-8.504-2.74-17.909-2.764-26.823,0.481c-10.458,3.806-18.807,11.458-23.51,21.543
	s-5.197,21.4-1.391,31.858l26.765,73.535c3.614,9.928,10.696,17.949,20.034,22.762l17.506,75.411
	C149.688,488.082,179.753,512,214.898,512h89.921c51.887,0,94.102-42.213,94.102-94.102V303.489
	c0-23.651-14.754-43.907-35.535-52.088l71.15-195.484C442.396,34.329,431.226,10.373,409.637,2.516z M153.482,31.069
	c2.831-6.07,7.856-10.675,14.15-12.966c12.991-4.729,27.411,1.994,32.139,14.988l78.047,214.432h-34.971
	c-5.917,0-11.733,1.292-17.059,3.682L152.645,50.244C150.355,43.949,150.651,37.14,153.482,31.069z M93.071,276.457
	c-2.291-6.293-1.994-13.103,0.837-19.173c2.831-6.071,7.856-10.676,14.149-12.966c11.783-4.288,25.005,0.96,30.757,12.21
	c1.995,3.901,6.679,5.578,10.697,3.828c4.016-1.751,5.979-6.323,4.481-10.44l-7.226-19.851c-2.291-6.294-1.994-13.104,0.837-19.174
	s7.856-10.675,14.15-12.966c6.293-2.29,13.103-1.994,19.173,0.837c6.07,2.831,10.676,7.856,12.966,14.15l17.728,48.708
	c-7.274,8.22-10.958,18.736-10.378,29.794c0.98,18.729,14.834,34.016,33.163,38.26c-0.357,10.008-6.679,19.022-16.478,22.589
	c-6.293,2.29-13.103,1.994-19.174-0.837c-6.07-2.831-10.675-7.856-12.966-14.149l-2.224-6.109c-1.498-4.118-5.943-6.36-10.144-5.118
	s-6.714,5.539-5.734,9.81c2.827,12.314-3.929,24.834-15.712,29.122c-6.293,2.29-13.103,1.994-19.174-0.837
	c-6.07-2.831-10.675-7.856-12.966-14.149L93.071,276.457z M382.335,303.489V417.9c0,42.741-34.772,77.514-77.514,77.514H214.9
	c-27.375,0-50.794-18.63-56.951-45.314l-15.559-67.023c0.328,0.008,0.656,0.027,0.984,0.027c4.806,0,9.625-0.843,14.275-2.535
	c10.614-3.863,18.782-11.72,23.306-21.355c3.153,2.927,6.779,5.375,10.791,7.245c10.086,4.703,21.401,5.198,31.857,1.39
	c16.102-5.86,26.582-20.576,27.382-36.998h42.258c4.58,0,8.294-3.713,8.294-8.294c0-4.58-3.713-8.294-8.294-8.294h-48.505
	c-14.164,0-26.243-10.639-26.928-23.716c-0.365-6.97,2.067-13.581,6.847-18.618c4.784-5.042,11.244-7.817,18.192-7.817h100.109
	C364.671,264.111,382.335,281.776,382.335,303.489z M418.951,50.244l-71.866,197.448c-1.365-0.1-2.738-0.168-4.128-0.168h-49.18
	l78.046-214.432c4.729-12.994,19.146-19.717,32.139-14.988C416.957,22.833,423.68,37.251,418.951,50.244z"/>
<path d="M156.766,304.826c1.226,3.367,4.407,5.46,7.794,5.46c0.942,0,1.9-0.161,2.835-0.502c4.305-1.567,6.523-6.327,4.958-10.63
	l-6.721-18.467c-1.567-4.305-6.325-6.524-10.63-4.956c-4.305,1.567-6.523,6.327-4.958,10.63L156.766,304.826z"/>
<g>
</g>
<g>
</g>
<g>
</g>
<g>
</g>
<g>
</g>
<g>
</g>
<g>
</g>
<g>
</g>
<g>
</g>
<g>
</g>
<g>
</g>
<g>
</g>
<g>
</g>
<g>
</g>
<g>
</g>
</svg>
