<?xml version="1.0" encoding="iso-8859-1"?>
<!-- Generator: Adobe Illustrator 19.0.0, SVG Export Plug-In . SVG Version: 6.00 Build 0)  -->
<svg version="1.1" id="Layer_1" xmlns="http://www.w3.org/2000/svg" xmlns:xlink="http://www.w3.org/1999/xlink" x="0px" y="0px"
	 viewBox="0 0 511.999 511.999" style="enable-background:new 0 0 511.999 511.999;" xml:space="preserve">
<g>
	<path style="fill:#9BF57D;" d="M285.018,170.987c-12.806,31.186-0.807,67.201,28.146,84.475c2.357,1.407,5.582,0.327,6.625-2.212
		c12.806-31.186,0.807-67.202-28.146-84.475C289.287,167.368,286.062,168.447,285.018,170.987z"/>
	<path style="fill:#9BF57D;" d="M447.185,248.675c-23.822-9.149-50.912-0.21-64.623,21.271c-1.605,2.514-0.743,6.009,2.041,7.079
		c23.822,9.149,50.912,0.21,64.623-21.271C450.83,253.239,449.969,249.744,447.185,248.675z"/>
</g>
<path style="fill:#F5C882;" d="M350.515,322.321c-0.637-12.17-11.56-21.294-23.747-21.294H8.439V451.06H39.82
	c8.886,0,17.543,2.609,24.937,7.539c6.846,4.564,15.548,10.366,22.395,14.93c7.394,4.93,16.052,7.539,24.938,7.539h97.61
	c11.772,0,22.5-8.471,23.674-20.185c1.349-13.471-9.193-24.825-22.388-24.825h13.719c11.772,0,22.499-8.471,23.672-20.184
	c1.349-13.471-9.193-24.826-22.388-24.826h82.734c11.772,0,22.499-8.471,23.672-20.184c1.349-13.471-9.193-24.826-22.388-24.826
	H326.8C339.897,346.037,350.515,335.419,350.515,322.321z"/>
<g>
	<path style="fill:#FFE9C3;" d="M466.043,171.951c12.779,6.393,28.32,1.215,34.713-11.564c6.393-12.779,1.215-28.32-11.564-34.713
		c-6.106-3.054-27.497-7.153-48.177-10.603l-11.636,25.365C444.329,154.694,460.033,168.944,466.043,171.951z"/>
	<path style="fill:#FFE9C3;" d="M345.98,169.651c7.871,11.925,23.918,15.212,35.844,7.341c5.697-3.761,19.943-20.235,33.271-36.422
		l-16.15-22.76c-19.822,5.821-40.016,12.294-45.624,15.997C341.396,141.677,338.109,157.725,345.98,169.651z"/>
	<path style="fill:#FFE9C3;" d="M405.627,104.453l27.898-0.727c4.959-20.371,9.599-41.652,9.191-48.467
		c-0.853-14.264-13.108-25.134-27.371-24.279c-14.263,0.854-25.134,13.107-24.279,27.371
		C391.467,65.059,398.397,85.1,405.627,104.453z"/>
</g>
<g>
	<path style="fill:#FFF5DC;" d="M375.398,68.761c-12.779-6.393-28.32-1.215-34.713,11.564c-6.393,12.779-1.215,28.32,11.564,34.713
		c6.106,3.054,27.497,7.153,48.177,10.603l11.636-25.365C397.112,86.018,381.409,71.768,375.398,68.761z"/>
	<path style="fill:#FFF5DC;" d="M495.461,71.063c-7.871-11.925-23.918-15.212-35.844-7.341
		c-5.697,3.761-19.943,20.235-33.271,36.422l16.15,22.76c19.822-5.821,40.016-12.294,45.624-15.997
		C500.045,99.035,503.332,82.988,495.461,71.063z"/>
	<path style="fill:#FFF5DC;" d="M435.814,136.259l-27.898,0.727c-4.959,20.371-9.599,41.652-9.191,48.467
		c0.853,14.264,13.108,25.134,27.371,24.279c14.263-0.854,25.134-13.107,24.279-27.371
		C449.974,175.653,443.044,155.613,435.814,136.259z"/>
</g>
<circle style="fill:#FFDC64;" cx="420.753" cy="120.379" r="19.506"/>
<g>
	<path style="fill:#F5AF73;" d="M179.477,422.554c0,7.457,6.046,13.503,13.503,13.503h18.004h13.72
		c11.771,0,22.498-8.471,23.672-20.185c0.237-2.371-0.009-4.633-0.458-6.822H192.98
		C185.523,409.051,179.477,415.096,179.477,422.554z"/>
	<path style="fill:#F5AF73;" d="M332.394,370.862c0.237-2.371-0.009-4.633-0.457-6.822H210.984c-7.457,0-13.503,6.046-13.503,13.503
		s6.046,13.503,13.503,13.503h15.004h82.734C320.494,391.047,331.221,382.576,332.394,370.862z"/>
	<path style="fill:#F5AF73;" d="M215.485,332.534c0,7.457,6.046,13.503,13.503,13.503h81.018H326.8
		c13.098,0,23.715-10.618,23.715-23.716c-0.06-1.135-0.294-2.213-0.525-3.29H228.988
		C221.531,319.031,215.485,325.076,215.485,332.534z"/>
	<path style="fill:#F5AF73;" d="M132.817,454.061c-10.664,0-21.088-3.156-29.961-9.072l-26.798-17.866
		c-8.873-5.915-19.297-9.072-29.961-9.072H8.439v33.007h31.382c8.886,0,17.573,2.63,24.966,7.558l22.334,14.888
		c7.394,4.93,16.082,7.559,24.969,7.559h96.229c7.819,0,15.401-3.381,20.302-9.475c5.338-6.638,5.375-12.296,4.26-17.531H132.817
		V454.061z"/>
</g>
<path d="M215.485,354.458c4.661,0,8.439-3.779,8.439-8.439c0-4.661-3.779-8.439-8.439-8.439h-9.002
	c-4.661,0-8.439,3.779-8.439,8.439c0,4.661,3.779,8.439,8.439,8.439H215.485z"/>
<path d="M510.223,137.986c-2.896-8.695-9.006-15.742-17.204-19.841c-0.98-0.491-2.371-1.091-4.651-1.835
	c2.127-0.989,3.458-1.755,4.399-2.377c7.649-5.048,12.874-12.774,14.714-21.752c1.839-8.978,0.071-18.136-4.977-25.784
	c-5.049-7.649-12.774-12.874-21.752-14.714c-8.978-1.84-18.136-0.071-25.786,4.977c-0.943,0.622-2.172,1.546-3.914,3.11
	c0.212-2.386,0.207-3.902,0.142-4.997c-0.548-9.148-4.625-17.536-11.482-23.618c-6.856-6.083-15.671-9.127-24.818-8.582
	c-9.148,0.548-17.536,4.625-23.618,11.481c-6.082,6.856-9.13,15.67-8.582,24.82c0.065,1.091,0.24,2.595,0.736,4.944
	c-1.919-1.346-3.247-2.115-4.257-2.621c-8.197-4.102-17.5-4.762-26.195-1.867c-8.695,2.896-15.741,9.005-19.841,17.203
	c-8.464,16.92-1.584,37.572,15.336,46.037c1.01,0.505,2.425,1.107,4.651,1.834c-2.184,1.015-3.491,1.777-4.399,2.377
	c-7.649,5.049-12.874,12.774-14.713,21.752c-1.839,8.978-0.071,18.136,4.977,25.784c5.049,7.649,12.774,12.874,21.752,14.714
	c2.317,0.475,4.643,0.709,6.955,0.709c3.33,0,6.624-0.487,9.798-1.444l-44.519,88.87l-7.018-21.067
	c15.644-35.471,0.782-77.486-34.258-95.014c-2.002-1.001-4.32-1.166-6.443-0.459c-2.123,0.708-3.879,2.229-4.88,4.232
	c-17.528,35.04-4.224,77.575,29.568,96.577l10.374,31.139H8.439c-4.661,0-8.439,3.779-8.439,8.439c0,4.661,3.779,8.439,8.439,8.439
	h320.78c7.089,0,12.856,5.767,12.856,12.856c0,8.422-6.853,15.275-15.275,15.275h-75.307c-4.661,0-8.439,3.779-8.439,8.439
	s3.779,8.439,8.439,8.439h58.513c3.989,0,7.673,1.62,10.371,4.564c2.695,2.939,3.987,6.769,3.638,10.784
	c-0.623,7.168-7.014,12.782-14.549,12.782H195.981c-4.661,0-8.439,3.779-8.439,8.439c0,4.661,3.779,8.439,8.439,8.439h30.007
	c3.989,0,7.673,1.62,10.371,4.564c2.695,2.939,3.987,6.769,3.638,10.784c-0.623,7.168-7.014,12.782-14.549,12.782h-44.471
	c-4.661,0-8.439,3.779-8.439,8.439s3.779,8.439,8.439,8.439h30.007c3.99,0,7.673,1.62,10.373,4.565
	c2.695,2.939,3.986,6.77,3.637,10.784c-0.623,7.168-7.014,12.782-14.549,12.782h-98.358c-7.244,0-14.258-2.123-20.286-6.142
	l-22.332-14.888c-8.808-5.873-19.061-8.977-29.648-8.977H8.439c-4.661,0-8.439,3.779-8.439,8.439s3.779,8.439,8.439,8.439h31.382
	c7.244,0,14.258,2.123,20.285,6.142l22.332,14.888c8.81,5.873,19.061,8.977,29.648,8.977h98.358
	c16.213,0,29.989-12.387,31.364-28.199c0.586-6.733-1.051-13.446-4.557-19.095c10.649-4.282,18.538-14.15,19.56-25.914
	c0.509-5.847-0.658-11.677-3.27-16.81h18.165l-6.075,12.128c-2.087,4.168-0.402,9.238,3.765,11.326
	c1.214,0.608,2.504,0.896,3.774,0.896c3.093,0,6.072-1.707,7.552-4.661l9.863-19.688h18.882c16.213,0,29.989-12.387,31.364-28.2
	c0.56-6.451-0.92-12.882-4.129-18.378c12.899-4.187,22.253-16.313,22.253-30.589c0-11.404-6.457-21.323-15.904-26.309l36.108-12.029
	c7.868,3.396,16.213,5.111,24.607,5.111c6.639,0,13.311-1.072,19.793-3.233c15.823-5.272,28.645-16.388,36.106-31.304
	c2.085-4.168,0.396-9.237-3.772-11.323c-29.707-14.858-65.727-3.722-82.059,24.732l-20.843,6.944l39.477-78.804
	c1.94,5.121,5.099,9.732,9.313,13.47c6.331,5.616,14.331,8.645,22.722,8.645c0.697,0,1.395-0.021,2.096-0.063
	c9.148-0.548,17.536-4.625,23.618-11.481c6.082-6.856,9.129-15.67,8.582-24.818c-0.068-1.126-0.252-2.651-0.736-4.947
	c1.961,1.377,3.278,2.131,4.258,2.622c4.839,2.42,10.061,3.642,15.317,3.642c3.649,0,7.314-0.59,10.878-1.777
	c8.695-2.896,15.741-9.005,19.841-17.203C512.457,155.984,513.12,146.681,510.223,137.986z M464.266,70.747
	c3.885-2.564,8.537-3.465,13.101-2.53c4.562,0.934,8.487,3.588,11.051,7.476c2.566,3.887,3.464,8.538,2.53,13.1
	c-0.934,4.562-3.588,8.487-7.476,11.051c-1.302,0.86-7.606,4.179-35.532,12.613c-1.571-5.401-4.734-10.323-9.232-14.009
	C457.427,76.105,462.956,71.612,464.266,70.747z M415.624,130.601c-2.737-1.368-4.777-3.721-5.743-6.624
	c-0.967-2.902-0.746-6.008,0.623-8.744c2.005-4.009,6.058-6.33,10.263-6.33c1.719,0,3.466,0.389,5.105,1.209l0,0
	c5.649,2.826,7.945,9.72,5.12,15.368C428.166,131.129,421.271,133.426,415.624,130.601z M399.544,57.863
	c-0.279-4.647,1.27-9.126,4.36-12.61c3.09-3.483,7.351-5.554,12-5.832c4.644-0.278,9.126,1.269,12.61,4.36s5.555,7.351,5.833,12
	c0.072,1.206-0.056,6.679-4.555,27.057c-2.353,2.769-4.921,5.831-7.733,9.226c-2.012-0.09-4.016,0.034-5.981,0.365
	c-3.198-3.037-6.117-5.775-8.785-8.244C400.389,64.467,399.615,59.055,399.544,57.863z M348.234,84.084
	c2.084-4.165,5.663-7.268,10.08-8.741c4.419-1.471,9.145-1.134,13.308,0.949c1.395,0.698,7.423,4.498,28.676,24.452
	c-1.924,2.004-3.583,4.325-4.889,6.937c-1.293,2.584-2.168,5.301-2.627,8.073c-28.698-5.038-35.353-7.58-36.755-8.281
	C347.429,103.173,343.934,92.681,348.234,84.084z M364.129,172.495c-4.562-0.934-8.487-3.588-11.051-7.476
	c-2.566-3.887-3.464-8.538-2.53-13.1c0.934-4.562,3.588-8.487,7.476-11.051c0.947-0.626,7.281-3.638,25.826-9.562
	c3.551,0.648,7.452,1.336,11.761,2.067c0.922,1.788,2.016,3.464,3.281,4.999c-1.031,4.287-1.94,8.179-2.746,11.724
	c-13.627,15.843-17.925,19.215-18.919,19.871C373.342,172.532,368.691,173.429,364.129,172.495z M292.03,180.958
	c19.476,14.112,27.872,39.313,20.748,62.285C293.303,229.132,284.907,203.93,292.03,180.958z M439.492,254.976
	c-5.441,6.869-12.76,12.02-21.267,14.854c-8.508,2.833-17.454,3.102-25.927,0.868C403.481,256.628,422.107,250.425,439.492,254.976z
	 M437.591,195.459c-3.09,3.483-7.351,5.554-12,5.832c-4.648,0.277-9.127-1.269-12.61-4.36c-3.484-3.09-5.555-7.351-5.833-12
	c-0.095-1.566,0.185-8.685,6.838-37.066c2.225,0.547,4.476,0.82,6.713,0.82c3.442,0,6.839-0.641,10.03-1.843
	c10.001,27.411,11.125,34.448,11.219,36.007C442.229,187.498,440.681,191.975,437.591,195.459z M493.261,156.629
	c-2.084,4.165-5.663,7.268-10.081,8.741c-4.418,1.47-9.144,1.134-13.308-0.949c-1.076-0.538-5.75-3.385-21.156-17.474
	c-1.222-3.423-2.591-7.182-4.126-11.317c0.534-0.835,1.043-1.693,1.495-2.599c0.455-0.908,0.853-1.83,1.201-2.76
	c4.221-1.249,8.043-2.406,11.51-3.48c20.514,3.878,25.597,5.911,26.671,6.449c4.165,2.084,7.269,5.663,8.741,10.081
	C495.682,147.738,495.344,152.465,493.261,156.629z"/>
<g>
</g>
<g>
</g>
<g>
</g>
<g>
</g>
<g>
</g>
<g>
</g>
<g>
</g>
<g>
</g>
<g>
</g>
<g>
</g>
<g>
</g>
<g>
</g>
<g>
</g>
<g>
</g>
<g>
</g>
</svg>
