<?xml version="1.0" encoding="iso-8859-1"?>
<!-- Generator: Adobe Illustrator 19.0.0, SVG Export Plug-In . SVG Version: 6.00 Build 0)  -->
<svg version="1.1" id="Layer_1" xmlns="http://www.w3.org/2000/svg" xmlns:xlink="http://www.w3.org/1999/xlink" x="0px" y="0px"
	 viewBox="0 0 512 512" style="enable-background:new 0 0 512 512;" xml:space="preserve">
<path style="fill:#FF962D;" d="M375.716,179.04V75.655c0-28.336-22.971-51.307-51.307-51.307h-1.81
	c-3.737-9.546-12.974-16.332-23.844-16.332h-59.858c-56.673,0-102.614,45.941-102.614,102.614v68.409
	c0,57.007-76.96,136.818-34.205,230.881h307.841C452.676,315.858,375.716,236.047,375.716,179.04z"/>
<path style="fill:#D78228;" d="M144.835,384.267c0,0-17.102-35.273,0-94.063c9.849-33.854,17.102-68.409,17.102-94.063h68.409
	v188.125H144.835z"/>
<path style="fill:#FFAF3C;" d="M375.716,179.04V75.655c0-28.336-22.971-51.307-51.307-51.307h-1.81l0,0
	c1.134,2.896,1.811,6.024,1.811,9.323v34.205c0,14.168-11.485,25.653-25.653,25.653h42.756l8.551,111.165
	c0,42.756,59.858,94.063,34.205,188.125l23.943,17.102h1.71C452.676,315.858,375.716,236.047,375.716,179.04z"/>
<path style="fill:#F5C882;" d="M390.189,374.166c-23.134-8.263-55.083-19.673-74.444-26.588
	c-10.21-3.646-16.989-12.329-16.989-23.169v-42.756h-85.512v42.756c0,10.256-6.418,19.395-16.077,22.844
	c-19.263,6.879-51.874,18.526-75.376,26.92c-16.984,6.065-28.263,22.131-28.263,40.166v89.644h324.944v-89.645
	C418.472,396.305,407.172,380.232,390.189,374.166z"/>
<path style="fill:#F5AF73;" d="M256,384.267c25.498,0,47.215-15.972,55.841-38.435c-7.99-4.282-13.085-12.036-13.085-21.423v-42.756
	h-85.512v42.756c0,9.387-5.094,17.14-13.085,21.423C208.785,368.295,230.501,384.267,256,384.267z"/>
<path style="fill:#F5965F;" d="M213.244,324.409c0,2.963-0.664,5.68-1.61,8.26c70.91-3.039,87.121-51.016,87.121-51.016h-85.512
	V324.409z"/>
<path style="fill:#F5C882;" d="M358.49,153.788c-2.929-0.569-5.766-0.512-8.427,0.029v-26.084H161.937v26.084
	c-2.663-0.541-5.498-0.598-8.427-0.029c-10.243,1.99-17.226,11.646-17.226,22.08v6.343c0,10.435,6.983,20.089,17.226,22.079
	c2.929,0.57,5.766,0.512,8.427-0.028v0.431c0,40.406,25.374,77.383,63.956,89.389c64.746,20.15,124.169-27.68,124.169-89.389v-0.431
	c2.663,0.541,5.498,0.598,8.427,0.028c10.243-1.99,17.226-11.645,17.226-22.079v-6.343
	C375.716,165.434,368.733,155.779,358.49,153.788z"/>
<path style="fill:#FFFFFF;" d="M213.244,221.795C217.288,241.31,234.89,256,256,256s38.712-14.69,42.756-34.205H213.244z"/>
<path style="fill:#F5AF73;" d="M350.062,153.386v-25.653H161.937v26.084c-2.659-0.54-5.492-0.598-8.418-0.031
	c-10.247,1.986-17.236,11.643-17.236,22.082v6.341c0,10.438,6.986,20.094,17.233,22.082c2.927,0.568,5.76,0.511,8.421-0.03v0.431
	c0,40.059,24.905,76.864,63.049,89.103c16.732,5.369,33.114,6.151,48.238,3.35c-43.832-8.004-77.082-46.31-77.082-92.453v-42.756
	c0-4.722,3.829-8.551,8.551-8.551h145.37V153.386z"/>
<path style="fill:#FF507D;" d="M375.716,127.733V93.528H137.822c-0.937,5.573-1.538,11.262-1.538,17.102v17.102H375.716z"/>
<path style="fill:#8C50D7;" d="M362.156,464.77l-21.721-21.721c-4.58-4.58-11.356-6.18-17.501-4.131L256,461.228l-66.933-22.311
	c-6.145-2.048-12.921-0.449-17.501,4.131l-21.721,21.721c-3.208,3.208-5.009,7.557-5.009,12.093v27.121h222.33v-27.121
	C367.165,472.327,365.363,467.977,362.156,464.77z"/>
<circle style="fill:#FF6991;" cx="256" cy="461.228" r="17.102"/>
<path style="fill:#D23C69;" d="M137.822,93.528c-0.937,5.573-1.538,11.262-1.538,17.102v17.102h76.96V93.528H137.822z"/>
<path d="M406.158,246.191c-11.532-23.287-22.425-45.284-22.425-63.922v-0.059V75.655c0-31.633-24.888-57.563-56.11-59.237
	C321.624,6.294,310.801,0,298.756,0h-59.858c-61.002,0-110.63,49.629-110.63,110.63v71.581v0.059
	c0,18.638-10.893,40.634-22.425,63.921c-21.576,43.567-48.407,97.76-19.835,161.219c-0.321,2.295-0.495,4.627-0.495,6.99v89.584
	c0,4.427,3.589,8.017,8.017,8.017s8.017-3.589,8.017-8.017v-89.585c0-14.643,9.263-27.789,23.049-32.712l46.43-16.583v68.328
	c-1.839,1.076-3.567,2.388-5.125,3.947l-13.046,13.047v-6.3c0-4.427-3.589-8.017-8.017-8.017s-8.017,3.589-8.017,8.017v59.858
	c0,4.427,3.589,8.017,8.017,8.017s8.017-3.589,8.017-8.017v-30.885l24.383-24.383c2.449-2.45,6.011-3.291,9.297-2.194l24.183,8.061
	c4.2,1.401,8.74-0.87,10.141-5.071c1.4-4.201-0.87-8.74-5.071-10.141l-24.182-8.06c-1.501-0.5-3.022-0.84-4.546-1.052v-70.882
	l3.542-1.266c3.585,17.819,10.991,33.97,21.212,46.019c10.205,12.03,22.823,19.53,36.172,21.691v11.606
	c-9.93,3.354-17.102,12.752-17.102,23.8c0,13.851,11.268,25.119,25.119,25.119c13.851,0,25.119-11.268,25.119-25.119
	c0-11.048-7.172-20.446-17.102-23.8V425.82c27.287-4.428,50.072-31.164,57.394-67.706l3.533,1.261v70.883
	c-1.524,0.212-3.045,0.552-4.545,1.052l-24.177,8.059c-4.201,1.4-6.47,5.94-5.071,10.141c1.4,4.201,5.941,6.471,10.141,5.071
	l24.177-8.059c3.285-1.095,6.847-0.254,9.297,2.194l24.383,24.383v30.885c0,4.427,3.589,8.017,8.017,8.017
	c4.427,0,8.017-3.589,8.017-8.017v-59.858c0-4.427-3.589-8.017-8.017-8.017c-4.427,0-8.017,3.589-8.017,8.017v6.3l-13.046-13.046
	c-1.558-1.56-3.287-2.871-5.125-3.947v-68.329l46.48,16.6c13.757,4.913,22.998,18.052,22.998,32.695v89.585
	c0,4.427,3.589,8.017,8.017,8.017s8.017-3.589,8.017-8.017v-89.585c0-2.362-0.174-4.695-0.494-6.991
	C454.565,343.95,427.734,289.757,406.158,246.191z M367.699,182.211c0,6.911-4.617,13.02-10.738,14.21
	c-1.772,0.345-3.557,0.34-5.303-0.016c-2.358-0.479-4.806,0.126-6.669,1.649c-1.863,1.522-2.944,3.801-2.944,6.207v0.431
	c0,27.247-13.12,53.171-35.094,69.346c-22.376,16.471-51.052,20.984-78.676,12.388c-34.339-10.685-58.322-44.296-58.322-81.733
	v-0.431c0-2.406-1.081-4.685-2.944-6.207c-1.863-1.523-4.311-2.127-6.669-1.649c-1.748,0.355-3.532,0.359-5.303,0.016
	c-6.123-1.19-10.738-7.299-10.738-14.21v-6.343c0-6.911,4.617-13.02,10.739-14.21c1.773-0.345,3.556-0.34,5.302,0.015
	c2.358,0.477,4.806-0.126,6.669-1.649c1.863-1.522,2.944-3.801,2.944-6.207v-18.069h111.697c4.427,0,8.017-3.589,8.017-8.017
	c0-4.427-3.589-8.017-8.017-8.017H144.3v-9.086c0-3.067,0.152-6.098,0.438-9.091c0.032,0,0.063,0.005,0.096,0.005h222.864v18.171
	h-51.842c-4.427,0-8.017,3.589-8.017,8.017c0,4.427,3.589,8.017,8.017,8.017h26.189v18.068c0,2.406,1.081,4.685,2.944,6.207
	c1.863,1.523,4.311,2.127,6.669,1.649c1.746-0.356,3.529-0.36,5.303-0.015c6.123,1.19,10.738,7.298,10.738,14.21V182.211z
	 M144.3,148.636v-12.887h9.62v9.858c-0.648,0.082-1.294,0.187-1.94,0.312C149.253,146.45,146.683,147.385,144.3,148.636z
	 M360.019,145.92c-0.646-0.125-1.292-0.23-1.94-0.312v-9.858h9.62v12.887C365.317,147.384,362.747,146.45,360.019,145.92z
	 M238.898,16.033h59.858c7.278,0,13.706,4.41,16.379,11.237c1.203,3.073,4.165,5.094,7.465,5.094h1.81
	c23.871,0,43.29,19.42,43.29,43.29v9.856H147.692C158.724,45.504,195.431,16.033,238.898,16.033z M119.202,366.586
	c-10.103,3.609-18.543,10.239-24.45,18.65c-15.155-49.914,6.305-93.256,25.458-131.93c7.938-16.028,15.588-31.486,20.064-46.415
	c3.396,2.582,7.361,4.424,11.708,5.27c0.745,0.144,1.492,0.261,2.239,0.348c1.429,18.686,7.935,36.957,18.681,52.157
	c8.686,12.287,19.667,22.183,32.327,29.24v30.504c0,7.171-4.362,13.011-11.669,15.621L119.202,366.586z M256,470.313
	c-5.01,0-9.086-4.076-9.086-9.086s4.076-9.086,9.086-9.086s9.086,4.076,9.086,9.086S261.01,470.313,256,470.313z M256,410.455
	c-23.635,0-44.462-24.462-50.257-58.567c9.719-5.924,15.518-15.93,15.518-27.479v-23.424c0.749,0.253,1.493,0.516,2.25,0.751
	c10.78,3.355,21.706,5.008,32.462,5.008c11.943,0,23.672-2.049,34.765-6.054v23.719c0,11.394,6.037,21.79,15.504,27.559
	C300.433,386.091,279.728,410.455,256,410.455z M392.849,366.604l-75.338-26.906c-6.423-2.294-10.739-8.438-10.739-15.288v-31.151
	c3.319-1.907,6.556-4.003,9.684-6.306c23.952-17.631,39.034-45.031,41.319-74.443c0.748-0.088,1.496-0.204,2.244-0.35
	c4.346-0.844,8.311-2.687,11.707-5.27c4.477,14.928,12.127,30.387,20.064,46.415c19.151,38.672,40.609,82.009,25.461,131.919
	C411.354,376.825,402.931,370.205,392.849,366.604z"/>
<path d="M213.244,187.056c4.427,0,8.017-3.589,8.017-8.017v-8.551c0-4.427-3.589-8.017-8.017-8.017
	c-4.427,0-8.017,3.589-8.017,8.017v8.551C205.227,183.467,208.817,187.056,213.244,187.056z"/>
<path d="M298.756,162.472c-4.427,0-8.017,3.589-8.017,8.017v8.551c0,4.427,3.589,8.017,8.017,8.017c4.427,0,8.017-3.589,8.017-8.017
	v-8.551C306.772,166.061,303.183,162.472,298.756,162.472z"/>
<path d="M298.756,213.779h-85.512c-2.411,0-4.695,1.086-6.217,2.955c-1.522,1.869-2.122,4.326-1.633,6.688
	c4.874,23.522,26.157,40.594,50.606,40.594c24.449,0,45.732-17.072,50.606-40.594c0.49-2.361-0.111-4.818-1.633-6.688
	C303.45,214.864,301.167,213.779,298.756,213.779z M256,247.983c-13.283,0-25.2-7.237-31.308-18.171h62.615
	C281.2,240.746,269.283,247.983,256,247.983z"/>
<g>
</g>
<g>
</g>
<g>
</g>
<g>
</g>
<g>
</g>
<g>
</g>
<g>
</g>
<g>
</g>
<g>
</g>
<g>
</g>
<g>
</g>
<g>
</g>
<g>
</g>
<g>
</g>
<g>
</g>
</svg>
