<?xml version="1.0" encoding="iso-8859-1"?>
<!-- Generator: Adobe Illustrator 19.0.0, SVG Export Plug-In . SVG Version: 6.00 Build 0)  -->
<svg version="1.1" id="Layer_1" xmlns="http://www.w3.org/2000/svg" xmlns:xlink="http://www.w3.org/1999/xlink" x="0px" y="0px"
	 viewBox="0 0 512.001 512.001" style="enable-background:new 0 0 512.001 512.001;" xml:space="preserve">
<rect x="238.896" y="67.877" style="fill:#7D2850;" width="34.206" height="171.029"/>
<path style="fill:#FF507D;" d="M323.828,307.65c1.005-7.66,0.73-15.725-1.059-23.989c-5.665-26.164-27.028-47.017-53.326-52.024
	c-43.685-8.316-81.86,24.949-81.86,67.129c0,4.093,0.363,8.1,1.059,11.991c2.886,16.15-0.775,32.41-10.106,45.903
	c-12.878,18.624-19.211,42.104-15.605,67.184c5.982,41.606,40.236,74.758,81.999,79.522c56.901,6.492,105.13-37.838,105.13-93.433
	c0-19.409-5.903-37.415-15.992-52.372C324.22,342.963,321.538,325.111,323.828,307.65z"/>
<path style="fill:#FF7B96;" d="M273.098,232.626c-1.226-0.309-2.404-0.75-3.654-0.989c-10.676-2.032-21.011-1.549-30.552,0.909
	v168.837h34.206V232.626z"/>
<path style="fill:#FF507D;" d="M264.546,76.428h-17.103c-9.446,0-17.103-7.657-17.103-17.103V25.12
	c0-9.446,7.657-17.103,17.103-17.103h17.103c9.446,0,17.103,7.657,17.103,17.103v34.206
	C281.649,68.772,273.991,76.428,264.546,76.428z"/>
<circle style="fill:#7D2850;" cx="255.999" cy="324.42" r="25.654"/>
<path style="fill:#FFAFB4;" d="M281.649,435.589H230.34c-9.407,0-17.103-7.696-17.103-17.103l0,0
	c0-9.407,7.696-17.103,17.103-17.103h51.309c9.407,0,17.103,7.696,17.103,17.103l0,0
	C298.752,427.892,291.056,435.589,281.649,435.589z"/>
<path d="M340.714,353.079c-10.213-15.139-10.497-32.493-8.937-44.386c1.154-8.808,0.76-17.8-1.173-26.729
	c-5.579-25.765-24.88-46.988-49.489-55.483V78.184c5.237-4.607,8.551-11.351,8.551-18.858v-0.534h0.534
	c4.428,0,8.017-3.589,8.017-8.017s-3.589-8.017-8.017-8.017h-0.534v-9.62h0.534c4.428,0,8.017-3.589,8.017-8.017
	s-3.589-8.017-8.017-8.017h-1.854C284.993,7.173,275.595,0,264.546,0h-17.103c-11.048,0-20.446,7.173-23.801,17.103h-1.854
	c-4.428,0-8.017,3.589-8.017,8.017s3.589,8.017,8.017,8.017h0.534v9.62h-0.534c-4.428,0-8.017,3.589-8.017,8.017
	s3.589,8.017,8.017,8.017h0.534v0.534c0,7.507,3.315,14.251,8.551,18.858v148.441c-8.502,2.947-16.498,7.373-23.581,13.235
	c-17.621,14.583-27.728,36.054-27.728,58.905c0,4.495,0.399,9.004,1.183,13.402c2.491,13.937-0.637,28.118-8.808,39.933
	c-14.641,21.173-20.659,47.057-16.947,72.886c3.143,21.862,13.775,42.528,29.938,58.193c16.147,15.65,37.132,25.649,59.088,28.155
	c3.914,0.447,7.828,0.667,11.725,0.667c25.086,0,49.433-9.136,68.193-25.879c21.694-19.36,34.137-47.129,34.137-76.187
	C358.077,389.579,352.073,369.917,340.714,353.079z M247.443,16.034h17.103c5.01,0,9.086,4.076,9.086,9.086v34.206
	c0,5.01-4.076,9.086-9.086,9.086h-17.103c-5.01,0-9.086-4.076-9.086-9.086V25.12C238.357,20.11,242.433,16.034,247.443,16.034z
	 M264.546,84.445h0.534v137.892h-18.172V84.445h0.534H264.546z M313.264,474.159c-18.539,16.545-42.486,24.089-67.426,21.244
	c-38.009-4.337-69.539-34.91-74.971-72.698c-3.136-21.811,1.929-43.648,14.264-61.484c10.593-15.32,14.643-33.742,11.403-51.873
	c-0.62-3.47-0.934-7.029-0.934-10.581c0-18.059,7.988-35.027,21.916-46.553c10.901-9.022,24.535-13.818,38.641-13.818
	c3.908,0,7.853,0.369,11.786,1.117c23.121,4.402,42.005,22.826,46.989,45.844c1.541,7.123,1.86,14.273,0.945,21.25l0,0
	c-2.753,20.993,1.24,40.163,11.543,55.438c9.566,14.18,14.622,30.74,14.622,47.889C342.043,434.428,331.554,457.836,313.264,474.159
	z"/>
<path d="M255.995,358.091c18.566,0,33.671-15.105,33.671-33.671c0-4.428-3.589-8.017-8.017-8.017s-8.017,3.589-8.017,8.017
	c0,9.725-7.912,17.637-17.637,17.637s-17.637-7.912-17.637-17.637s7.912-17.637,17.637-17.637c4.427,0,8.017-3.589,8.017-8.017
	c0-4.428-3.589-8.017-8.017-8.017c-18.566,0-33.671,15.105-33.671,33.671S237.427,358.091,255.995,358.091z"/>
<path d="M281.649,393.366c-4.427,0-8.017,3.589-8.017,8.017c0,4.428,3.589,8.017,8.017,8.017c5.01,0,9.086,4.076,9.086,9.086
	s-4.076,9.086-9.086,9.086H230.34c-5.01,0-9.086-4.076-9.086-9.086s4.076-9.086,9.086-9.086h17.103c4.428,0,8.017-3.589,8.017-8.017
	c0-4.427-3.589-8.017-8.017-8.017H230.34c-13.851,0-25.12,11.269-25.12,25.12s11.269,25.12,25.12,25.12h51.309
	c13.851,0,25.12-11.269,25.12-25.12S295.5,393.366,281.649,393.366z"/>
<g>
</g>
<g>
</g>
<g>
</g>
<g>
</g>
<g>
</g>
<g>
</g>
<g>
</g>
<g>
</g>
<g>
</g>
<g>
</g>
<g>
</g>
<g>
</g>
<g>
</g>
<g>
</g>
<g>
</g>
</svg>
