<?xml version="1.0" encoding="iso-8859-1"?>
<!-- Generator: Adobe Illustrator 19.0.0, SVG Export Plug-In . SVG Version: 6.00 Build 0)  -->
<svg version="1.1" id="Layer_1" xmlns="http://www.w3.org/2000/svg" xmlns:xlink="http://www.w3.org/1999/xlink" x="0px" y="0px"
	 viewBox="0 0 512 512" style="enable-background:new 0 0 512 512;" xml:space="preserve">
<circle style="fill:#C7CFE2;" cx="102.078" cy="311.582" r="17.102"/>
<path style="fill:#FFDC64;" d="M414.583,200.419h-26.428c-2.244,0-4.158-1.622-4.527-3.835l-7.912-47.472h51.307l-7.912,47.472
	C418.741,198.796,416.827,200.419,414.583,200.419z"/>
<circle style="fill:#C7CFE2;" cx="247.447" cy="320.358" r="17.322"/>
<path style="fill:#FFC850;" d="M401.526,196.584l-7.054-42.323c-0.449-2.696,1.629-5.149,4.362-5.149h-23.119l0,0l7.912,47.472
	c0.369,2.213,2.283,3.835,4.527,3.835h17.9C403.81,200.419,401.896,198.796,401.526,196.584z"/>
<path style="fill:#6E4848;" d="M188.407,158.952l-33.613,5.602c-5.212,0.869-9.957-3.151-9.957-8.435v-15.559h42.048
	c5.114,0,9.259,4.145,9.259,9.259l0,0C196.144,154.345,192.872,158.208,188.407,158.952z"/>
<g>
	<path style="fill:#EBC9A0;" d="M102.079,226.072c-47.227,0-85.511,38.284-85.511,85.511c0,47.227,38.284,85.511,85.511,85.511
		s85.511-38.284,85.511-85.511C187.59,264.356,149.306,226.072,102.079,226.072z M102.079,371.441
		c-33.059,0-59.858-26.799-59.858-59.858s26.799-59.858,59.858-59.858s59.858,26.799,59.858,59.858
		C161.937,344.641,135.138,371.441,102.079,371.441z"/>
	<path style="fill:#EBC9A0;" d="M418.471,226.072c-47.227,0-85.511,38.284-85.511,85.511c0,47.227,38.284,85.511,85.511,85.511
		s85.511-38.284,85.511-85.511C503.982,264.356,465.698,226.072,418.471,226.072z M418.471,371.441
		c-33.059,0-59.858-26.799-59.858-59.858s26.799-59.858,59.858-59.858s59.858,26.799,59.858,59.858
		C478.329,344.641,451.53,371.441,418.471,371.441z"/>
</g>
<path d="M418.471,218.055c-10.051,0-19.733,1.6-28.813,4.547l-3.758-8.94c10.366-3.441,21.305-5.228,32.572-5.228
	c3.92,0,7.263-2.833,7.908-6.699l8.551-51.307c0.387-2.324-0.267-4.701-1.79-6.5c-1.523-1.799-3.76-2.835-6.117-2.835h-51.307
	c-2.357,0-4.594,1.037-6.117,2.835c-1.523,1.798-2.178,4.175-1.79,6.5l5.579,33.47l-14.41-34.275
	c-0.061-0.143-0.056-0.307,0.015-0.446l9.155-18.311c2.587-5.173,2.316-11.2-0.725-16.12c-3.041-4.92-8.31-7.857-14.093-7.857
	h-37.471c-4.427,0-8.017,3.589-8.017,8.017s3.589,8.017,8.017,8.017h37.471c0.111,0,0.298,0,0.454,0.253
	c0.156,0.253,0.073,0.421,0.023,0.521l-9.155,18.311c-2.166,4.331-2.33,9.375-0.451,13.839l5.894,14.02l-133.51,61.619
	l-28.384-64.373l1.525-0.254l0,0c8.364-1.395,14.434-8.561,14.434-17.04c0-9.526-7.749-17.275-17.275-17.275h-42.048
	c-4.427,0-8.017,3.589-8.017,8.017v15.559c0,4.88,2.136,9.487,5.859,12.642c3.019,2.557,6.807,3.927,10.697,3.927
	c0.909,0,1.824-0.075,2.735-0.227l15.765-2.627l21.766,49.361l-8.147,7.268c-22.402-21.992-51.874-34.062-83.413-34.062
	c-41.149,0-78.848,20.797-100.843,55.634c-2.363,3.743-1.245,8.695,2.498,11.059c1.329,0.839,2.809,1.239,4.272,1.239
	c2.659,0,5.261-1.322,6.786-3.738c19.041-30.157,51.671-48.161,87.286-48.161c26.934,0,52.127,10.174,71.418,28.731l-7.234,6.454
	c-16.762-15.838-39.357-25.564-64.183-25.564c-51.572,0-93.528,41.956-93.528,93.528s41.956,93.528,93.528,93.528
	c46.681,0,85.482-34.377,92.422-79.144l28.995,1.96c3.219,10.161,12.738,17.547,23.951,17.547c13.851,0,25.119-11.268,25.119-25.119
	c0-5.595-1.84-10.766-4.944-14.945c4.393-11.813,28.266-69.126,91.929-113.044l5.365,12.76c-7.397,3.713-14.421,8.196-20.925,13.407
	c-20.706,16.592-35.449,39.875-41.515,65.556c-1.018,4.309,1.65,8.627,5.959,9.645c0.62,0.146,1.24,0.216,1.849,0.216
	c3.632,0,6.924-2.486,7.795-6.175c5.247-22.217,18.01-42.363,35.937-56.73c5.394-4.323,11.123-8.032,17.111-11.142l3.761,8.947
	c-29.677,15.696-49.948,46.889-49.948,82.733c0,51.572,41.956,93.528,93.528,93.528S512,363.154,512,311.582
	S470.043,218.055,418.471,218.055z M153.476,156.647c-0.067,0.012-0.245,0.041-0.433-0.119c-0.189-0.16-0.189-0.34-0.189-0.408
	v-7.542h34.031c0.685,0,1.242,0.557,1.242,1.242c0,0.609-0.436,1.126-1.038,1.225l0,0L153.476,156.647z M417.558,157.129
	l-5.879,35.273h-20.622l-5.879-35.273H417.558z M230.205,302.115c-2.837,2.684-5.053,6.017-6.399,9.762l-28.217-1.908
	c-0.346-20.367-7.23-39.17-18.646-54.392l23.5-20.962L230.205,302.115z M126.403,305.293c-0.316-1.222-0.724-2.407-1.211-3.549
	l39.724-35.437c8.717,12.064,14.045,26.719,14.591,42.576L126.403,305.293z M111.167,311.583c0,5.01-4.076,9.086-9.086,9.086
	c-5.01,0-9.086-4.076-9.086-9.086c0-5.01,4.076-9.086,9.086-9.086C107.091,302.498,111.167,306.574,111.167,311.583z
	 M102.081,389.078c-42.731,0-77.495-34.764-77.495-77.495s34.764-77.495,77.495-77.495c20.076,0,38.392,7.676,52.172,20.245
	l-39.731,35.442c-3.671-2.103-7.916-3.311-12.441-3.311c-13.851,0-25.119,11.268-25.119,25.119
	c0,13.851,11.268,25.119,25.119,25.119c10.413,0,19.365-6.37,23.168-15.417l53.161,3.594
	C172.085,361.293,140.277,389.078,102.081,389.078z M247.448,329.44c-5.01,0-9.086-4.076-9.086-9.086s4.076-9.086,9.086-9.086
	c5.01,0,9.086,4.076,9.086,9.086S252.458,329.44,247.448,329.44z M254.006,296.11c-2.092-0.567-4.289-0.874-6.558-0.874
	c-0.909,0-1.806,0.051-2.69,0.146l-21.704-49.222l101.499-46.845C280.226,238.126,260.404,280.097,254.006,296.11z M418.471,389.078
	c-42.731,0-77.495-34.764-77.495-77.495s34.764-77.495,77.495-77.495s77.495,34.764,77.495,77.495
	C495.966,354.315,461.202,389.078,418.471,389.078z"/>
<path d="M402.804,253.716c-1.718-4.079-6.417-5.996-10.5-4.277c-4.08,1.718-5.995,6.419-4.277,10.5l23.055,54.756
	c1.29,3.065,4.263,4.907,7.392,4.907c1.037,0,2.092-0.202,3.107-0.631c4.08-1.718,5.995-6.419,4.277-10.5L402.804,253.716z"/>
<g>
</g>
<g>
</g>
<g>
</g>
<g>
</g>
<g>
</g>
<g>
</g>
<g>
</g>
<g>
</g>
<g>
</g>
<g>
</g>
<g>
</g>
<g>
</g>
<g>
</g>
<g>
</g>
<g>
</g>
</svg>
