<?xml version="1.0" encoding="iso-8859-1"?>
<!-- Generator: Adobe Illustrator 19.0.0, SVG Export Plug-In . SVG Version: 6.00 Build 0)  -->
<svg version="1.1" id="Layer_1" xmlns="http://www.w3.org/2000/svg" xmlns:xlink="http://www.w3.org/1999/xlink" x="0px" y="0px"
	 viewBox="0 0 512 512" style="enable-background:new 0 0 512 512;" xml:space="preserve">
<path style="fill:#AFB9D2;" d="M384.286,155.395H228.51c0,30.116-24.415,54.98-54.531,54.98v73.306h36.204v-0.023
	c0-10.109,8.195-18.305,18.305-18.305c26.739,0,73.328,0,73.328,0c10.121,0,18.327-8.206,18.327-18.327v-36.653
	c0-10.122,8.205-18.327,18.327-18.327h45.817V155.395z"/>
<path style="fill:#C7CFE2;" d="M292.749,237.101H246.74c-5.008,0-9.067-4.059-9.067-9.067v-35.7c0-5.008,4.059-9.067,9.067-9.067
	h46.009c5.008,0,9.067,4.059,9.067,9.067v35.7C301.817,233.041,297.757,237.101,292.749,237.101z"/>
<path style="fill:#785353;" d="M145.267,247.901l-26.16,104.643c-2.892,11.566,5.856,22.771,17.779,22.771h54.971
	c10.122,0,18.327-8.205,18.327-18.327v-94.387c0-7.753-4.878-14.667-12.183-17.266l-29.159-10.375
	C158.714,231.583,147.856,237.544,145.267,247.901z"/>
<path style="fill:#6E4848;" d="M156.349,356.605l21.591-102.811c1.631-9.033-2.256-16.266-9.098-18.835l0,0
	c-10.128-3.376-20.985,2.584-23.575,12.941l-26.16,104.643c-2.891,11.566,5.856,22.771,17.779,22.771
	C136.886,375.314,153.536,374.431,156.349,356.605z"/>
<path style="fill:#FF507D;" d="M256,8.591C119.579,8.591,8.591,119.579,8.591,256S119.579,503.409,256,503.409
	S503.409,392.421,503.409,256S392.421,8.591,256,8.591z M47.257,285.454c-8.041-58.924,8.493-114.004,40.756-156.537
	c3.404-4.488,9.922-5.068,13.904-1.086l282.249,282.249c3.983,3.983,3.402,10.5-1.086,13.904
	c-42.527,32.259-97.602,48.793-156.521,40.758C134.083,452.133,59.877,377.93,47.257,285.454z M410.082,384.167L127.833,101.918
	c-3.983-3.983-3.402-10.5,1.086-13.904c42.526-32.258,97.598-48.792,156.516-40.758c92.477,12.611,166.686,86.81,179.308,179.286
	c8.042,58.925-8.492,114.008-40.755,156.54C420.582,387.569,414.066,388.151,410.082,384.167z"/>
<path style="fill:#FF6991;" d="M159.9,185.815L326.185,352.1c9.922-7.258,18.656-15.993,25.915-25.915L185.816,159.9
	C175.893,167.159,167.159,175.893,159.9,185.815z"/>
<path d="M283.49,200.447c4.744,0,8.591-3.846,8.591-8.591c0-4.744-3.846-8.591-8.591-8.591H256c-4.744,0-8.591,3.846-8.591,8.591
	c0,4.744,3.846,8.591,8.591,8.591H283.49z"/>
<path d="M256,36.653c-51.43,0-101.485,18.269-140.942,51.443c-1.843,1.55-2.951,3.799-3.055,6.205
	c-0.103,2.405,0.806,4.743,2.508,6.445l25.428,25.428c3.355,3.355,8.794,3.355,12.148,0c3.355-3.355,3.355-8.794,0-12.148
	l-18.651-18.651C168.574,68.523,211.734,53.834,256,53.834c111.474,0,202.166,90.692,202.166,202.166
	c0,44.266-14.689,87.426-41.541,122.562L310.404,272.341c10.643-3.593,18.33-13.665,18.33-25.504v-36.653
	c0-5.369,4.367-9.736,9.736-9.736h45.817c4.744,0,8.591-3.846,8.591-8.591v-54.98c0-4.744-3.846-8.591-8.591-8.591
	c-4.744,0-8.591,3.846-8.591,8.591v9.736H228.51c-4.744,0-8.591,3.846-8.591,8.591v0.448c0,7.445-1.751,14.619-5.111,21.094
	l-36.767-36.767c-3.355-3.355-8.794-3.355-12.148,0c-3.355,3.355-3.355,8.794,0,12.148l245.361,245.361
	c1.614,1.615,3.8,2.516,6.074,2.516c0.124,0,0.247-0.002,0.371-0.008c2.405-0.104,4.655-1.212,6.205-3.055
	c33.172-39.457,51.442-89.512,51.442-140.942C475.347,135.052,376.948,36.653,256,36.653z M236.584,163.794h139.112v19.472H338.47
	c-14.842,0-26.917,12.075-26.917,26.917v36.653c0,5.369-4.367,9.736-9.736,9.736h-7.181l-19.472-19.472h8.326
	c4.744,0,8.591-3.846,8.591-8.591c0-4.744-3.846-8.591-8.591-8.591h-25.507l-30.613-30.613
	C232.29,181.533,235.421,172.886,236.584,163.794z"/>
<path d="M372.06,385.826c-3.355-3.355-8.794-3.355-12.148,0c-3.355,3.355-3.355,8.794,0,12.148l18.651,18.651
	c-35.137,26.852-78.297,41.541-122.563,41.541c-111.474,0-202.166-90.692-202.166-202.166c0-44.266,14.689-87.426,41.541-122.562
	l71.678,71.678c-1.042,1.421-1.664,3.169-1.664,5.067v15.17c-5.259-0.455-10.603,0.63-15.295,3.206
	c-6.552,3.597-11.349,9.817-13.161,17.068l-26.16,104.64c-2.025,8.097-0.239,16.515,4.897,23.094
	c5.136,6.579,12.87,10.352,21.216,10.352h54.971c14.842,0,26.917-12.075,26.917-26.917v-37.857
	c7.719,6.123,17.468,9.794,28.063,9.794c11.787,0,22.93-4.587,31.266-12.567l55.855,55.855c3.355,3.355,8.795,3.355,12.148,0
	c3.355-3.355,3.355-8.794,0-12.148l-245.36-245.361c-1.702-1.702-4.036-2.607-6.445-2.508c-2.405,0.104-4.655,1.212-6.205,3.055
	C54.923,154.515,36.653,204.57,36.653,256c0,120.948,98.399,219.347,219.347,219.347c51.43,0,101.485-18.269,140.942-51.443
	c1.843-1.55,2.951-3.799,3.055-6.205c0.103-2.405-0.806-4.743-2.508-6.445L372.06,385.826z M201.593,356.796
	c0,5.369-4.367,9.736-9.736,9.736h-54.971c-3.019,0-5.816-1.364-7.674-3.744c-1.858-2.379-2.504-5.423-1.771-8.352l26.16-104.642
	c0.665-2.661,2.356-4.854,4.76-6.174c2.405-1.32,5.162-1.568,7.764-0.701l17.882,5.961c4.5,1.5,9.366-0.932,10.867-5.434
	c1.501-4.501-0.932-9.366-5.434-10.867l-6.871-2.291v-9.656l37.342,37.342c-10.633,3.585-18.317,13.664-18.317,25.515V356.796z
	 M246.837,311.553c-15.473,0-28.063-12.589-28.063-28.063l0,0c0-5.369,4.341-9.736,9.676-9.736h7.239l30.265,30.265
	C260.813,308.808,254.016,311.553,246.837,311.553z"/>
<path d="M256,0C114.841,0,0,114.841,0,256s114.841,256,256,256s256-114.841,256-256S397.159,0,256,0z M256,494.819
	C124.315,494.819,17.181,387.685,17.181,256S124.315,17.181,256,17.181S494.819,124.315,494.819,256S387.685,494.819,256,494.819z"
	/>
<g>
</g>
<g>
</g>
<g>
</g>
<g>
</g>
<g>
</g>
<g>
</g>
<g>
</g>
<g>
</g>
<g>
</g>
<g>
</g>
<g>
</g>
<g>
</g>
<g>
</g>
<g>
</g>
<g>
</g>
</svg>
