<?xml version="1.0" encoding="iso-8859-1"?>
<!-- Generator: Adobe Illustrator 19.0.0, SVG Export Plug-In . SVG Version: 6.00 Build 0)  -->
<svg version="1.1" id="Capa_1" xmlns="http://www.w3.org/2000/svg" xmlns:xlink="http://www.w3.org/1999/xlink" x="0px" y="0px"
	 viewBox="0 0 512 512" style="enable-background:new 0 0 512 512;" xml:space="preserve">
<polygon style="fill:#6F6F6F;" points="76,137.5 76,187.5 91,207.5 106,187.5 106,137.5 "/>
<polygon style="fill:#8C8C8C;" points="76,187.5 76,217.5 91,237.5 106,217.5 106,187.5 "/>
<polygon style="fill:#AAAAAA;" points="76,217.5 76,247.5 91,267.5 106,247.5 106,217.5 "/>
<rect x="76" y="247.5" style="fill:#8C8C8C;" width="30" height="40"/>
<path style="fill:#00B2FF;" d="M91,277.5l-10,15l10,15h30C121,290.932,107.569,277.5,91,277.5z"/>
<path style="fill:#80D8FF;" d="M61,307.5h30v-30C74.431,277.5,61,290.932,61,307.5z"/>
<polygon style="fill:#6F6F6F;" points="406,137.5 406,187.5 421,207.5 436,187.5 436,137.5 "/>
<polygon style="fill:#8C8C8C;" points="406,187.5 406,217.5 421,237.5 436,217.5 436,187.5 "/>
<polygon style="fill:#AAAAAA;" points="406,217.5 406,247.5 421,267.5 436,247.5 436,217.5 "/>
<rect x="406" y="247.5" style="fill:#8C8C8C;" width="30" height="40"/>
<path style="fill:#00B2FF;" d="M421,277.5l-10,15l10,15h30C451,290.932,437.569,277.5,421,277.5z"/>
<path style="fill:#80D8FF;" d="M391,307.5h30v-30C404.431,277.5,391,290.932,391,307.5z"/>
<path style="fill:#C7EFFF;" d="M256,7.5l60,130h30v-40C346,47.794,305.706,7.5,256,7.5z"/>
<path style="fill:#FFFFFF;" d="M256,7.5c-49.706,0-90,40.294-90,90v40h150v-40C316,47.794,289.137,7.5,256,7.5z"/>
<path style="fill:#00B2FF;" d="M436,97.5h-30v60h30c16.569,0,30-13.431,30-30S452.569,97.5,436,97.5z"/>
<path style="fill:#80D8FF;" d="M436,127.5c0-16.569-13.431-30-30-30H76c-16.569,0-30,13.431-30,30s13.431,30,30,30h330
	C422.569,157.5,436,144.069,436,127.5z"/>
<path style="fill:#363636;" d="M307,484.5c0,11.046,8.954,20,20,20s20-8.954,20-20v-40h-40V484.5z"/>
<path style="fill:#515151;" d="M165,484.5c0,11.046,8.954,20,20,20s20-8.954,20-20v-40h-40V484.5z"/>
<path style="fill:#C7EFFF;" d="M317,414.5v-60h-60v90l90,30h30C377,441.363,350.137,414.5,317,414.5z"/>
<path style="fill:#FFFFFF;" d="M287,414.5v-60h-92v60c-33.137,0-60,26.863-60,60h212C347,441.363,320.137,414.5,287,414.5z"/>
<polygon style="fill:#80D8FF;" points="287,247.5 287,384.5 317,384.5 342.608,247.5 "/>
<polygon style="fill:#C7EFFF;" points="169.392,247.5 195,384.5 287,384.5 312.608,247.5 "/>
<path style="fill:#00B2FF;" d="M316,187.5v90h30c16.5,0,30-13.5,30-30v-30L316,187.5z"/>
<g>
	<path style="fill:#80D8FF;" d="M346,247.5v-90l-210,60v30c0,16.5,13.5,30,30,30h150C332.5,277.5,346,264,346,247.5z"/>
	<polygon style="fill:#80D8FF;" points="346,97.5 316,157.5 346,217.5 376,217.5 376,97.5 	"/>
</g>
<rect x="136" y="97.5" style="fill:#C7EFFF;" width="210" height="120"/>
<path d="M443.5,164.245c17.096-3.484,30-18.635,30-36.745c0-20.678-16.822-37.5-37.5-37.5h-7.5v-2.5c0-4.143-3.357-7.5-7.5-7.5
	s-7.5,3.357-7.5,7.5V90h-60.286C349.372,39.729,307.239,0,256,0s-93.372,39.729-97.214,90H98.5v-2.5c0-4.143-3.357-7.5-7.5-7.5
	s-7.5,3.357-7.5,7.5V90H76c-20.678,0-37.5,16.822-37.5,37.5c0,18.11,12.904,33.261,30,36.745V277.52
	c-9.102,6.848-15,17.737-15,29.979v15c0,4.143,3.357,7.5,7.5,7.5s7.5-3.357,7.5-7.5V315h15v7.5c0,4.143,3.357,7.5,7.5,7.5
	s7.5-3.357,7.5-7.5V315h15v7.5c0,4.143,3.357,7.5,7.5,7.5s7.5-3.357,7.5-7.5v-15c0-12.242-5.898-23.131-15-29.979V165h15v82.5
	c0,20.678,16.822,37.5,37.5,37.5h2.772L187.5,385.194v22.22c-33.702,3.743-60,32.401-60,67.086c0,4.143,3.357,7.5,7.5,7.5h22.5v2.5
	c0,15.163,12.337,27.5,27.5,27.5s27.5-12.337,27.5-27.5V482h87v2.5c0,15.163,12.337,27.5,27.5,27.5s27.5-12.337,27.5-27.5V482H377
	c4.143,0,7.5-3.357,7.5-7.5c0-34.685-26.298-63.343-60-67.086v-22.22L343.228,285H346c20.678,0,37.5-16.822,37.5-37.5V165h15
	v112.521c-9.102,6.848-15,17.737-15,29.979v15c0,4.143,3.357,7.5,7.5,7.5s7.5-3.357,7.5-7.5V315h15v7.5c0,4.143,3.357,7.5,7.5,7.5
	s7.5-3.357,7.5-7.5V315h15v7.5c0,4.143,3.357,7.5,7.5,7.5s7.5-3.357,7.5-7.5v-15c0-12.242-5.898-23.131-15-29.979V164.245z
	 M428.5,210h-15v-15h15V210z M413.5,225h15v15h-15V225z M368.5,210h-225V105h225V210z M256,15c42.961,0,78.34,33.013,82.144,75
	H173.856C177.66,48.013,213.039,15,256,15z M83.5,225h15v15h-15V225z M98.5,210h-15v-15h15V210z M112.21,300H69.79
	c3.096-8.729,11.433-15,21.21-15S109.114,291.271,112.21,300z M91,270c-2.568,0-5.076,0.261-7.5,0.755V255h15v15.755
	C96.076,270.261,93.568,270,91,270z M98.5,180h-15v-15h15V180z M76,150c-12.406,0-22.5-10.094-22.5-22.5S63.594,105,76,105h52.5v45
	H76z M197.5,484.5c0,6.893-5.607,12.5-12.5,12.5s-12.5-5.607-12.5-12.5V482h25V484.5z M339.5,484.5c0,6.893-5.607,12.5-12.5,12.5
	s-12.5-5.607-12.5-12.5V482h25V484.5z M310.772,377H287c-4.143,0-7.5,3.357-7.5,7.5s3.357,7.5,7.5,7.5h22.5v22.5
	c0,4.143,3.357,7.5,7.5,7.5c26.402,0,48.315,19.592,51.966,45h-21.443c-0.173-0.012-0.346-0.026-0.523-0.026
	s-0.349,0.014-0.523,0.026h-39.206c-0.091-0.003-0.18-0.014-0.272-0.014c-0.091,0-0.18,0.01-0.27,0.014H205.523
	c-0.173-0.012-0.346-0.026-0.523-0.026s-0.349,0.014-0.523,0.026h-39.206c-0.091-0.003-0.18-0.014-0.272-0.014
	c-0.091,0-0.18,0.01-0.27,0.014h-21.696c3.65-25.408,25.563-45,51.966-45c4.143,0,7.5-3.357,7.5-7.5V392H257
	c4.143,0,7.5-3.357,7.5-7.5s-3.357-7.5-7.5-7.5h-55.772l-17.196-92h143.937L310.772,377z M346,270H166
	c-12.406,0-22.5-10.094-22.5-22.5V225h225v22.5C368.5,259.906,358.406,270,346,270z M383.5,105H436c12.406,0,22.5,10.094,22.5,22.5
	S448.406,150,436,150h-52.5V105z M428.5,165v15h-15v-15H428.5z M442.21,300h-42.42c3.096-8.729,11.433-15,21.21-15
	S439.114,291.271,442.21,300z M421,270c-2.568,0-5.076,0.261-7.5,0.755V255h15v15.755C426.076,270.261,423.568,270,421,270z"/>
<path d="M231.304,52.196c-2.93-2.928-7.678-2.928-10.607,0c-2.929,2.93-2.929,7.678,0,10.607l10,10
	C232.161,74.268,234.081,75,236,75s3.839-0.732,5.304-2.196c2.929-2.93,2.929-7.678,0-10.607L231.304,52.196z"/>
<path d="M280.696,52.196l-10,10c-2.929,2.93-2.929,7.678,0,10.607C272.161,74.268,274.081,75,276,75s3.839-0.732,5.304-2.196l10-10
	c2.929-2.93,2.929-7.678,0-10.607C288.374,49.269,283.626,49.269,280.696,52.196z"/>
<circle cx="256" cy="247.5" r="7.5"/>
<circle cx="286" cy="247.5" r="7.5"/>
<circle cx="226" cy="247.5" r="7.5"/>
<g>
</g>
<g>
</g>
<g>
</g>
<g>
</g>
<g>
</g>
<g>
</g>
<g>
</g>
<g>
</g>
<g>
</g>
<g>
</g>
<g>
</g>
<g>
</g>
<g>
</g>
<g>
</g>
<g>
</g>
</svg>
