<?xml version="1.0" encoding="iso-8859-1"?>
<!-- Generator: Adobe Illustrator 19.0.0, SVG Export Plug-In . SVG Version: 6.00 Build 0)  -->
<svg version="1.1" id="Capa_1" xmlns="http://www.w3.org/2000/svg" xmlns:xlink="http://www.w3.org/1999/xlink" x="0px" y="0px"
	 viewBox="0 0 512 512" style="enable-background:new 0 0 512 512;" xml:space="preserve">
<path style="fill:#8C8C8C;" d="M67.5,397.5c-33,0-60,27-60,60v47H121l30-46l-30-46v-15H67.5z"/>
<path style="fill:#363636;" d="M450.769,397.5h-30l53.731,107h30v-47C504.5,426.616,480.851,400.66,450.769,397.5z"/>
<path style="fill:#515151;" d="M420.769,397.5H391v15l-30,36l30,56h83.5v-47C474.5,426.616,450.851,400.66,420.769,397.5z"/>
<polygon style="fill:#6F6F6F;" points="361,412.5 331,458.5 361,504.5 391,504.5 391,412.5 "/>
<polygon style="fill:#8C8C8C;" points="256,412.5 226,458.5 256,504.5 361,504.5 361,412.5 "/>
<rect x="121" y="412.5" style="fill:#AAAAAA;" width="135" height="92"/>
<path style="fill:#FFB9A0;" d="M285.864,222.5v141.324h30C359.912,346.055,391,302.911,391,252.5v-30H285.864z"/>
<path style="fill:#FFDCCF;" d="M121,222.5v30c0,50.411,31.088,93.555,75.136,111.324L312.9,358.72
	c28.599-20.097,48.1-60.119,48.1-106.22v-30H121z"/>
<path style="fill:#AAAAAA;" d="M256,327.5c-26.029,0-48.602,14.742-59.864,36.324c13.861,5.591,29.001,8.676,44.864,8.676h30
	c15.863,0,31.004-3.085,44.864-8.676C304.602,342.242,282.029,327.5,256,327.5z"/>
<path style="fill:#363636;" d="M256,7.5V150l142.921-60C370.391,40.683,317.072,7.5,256,7.5z"/>
<g>
	<path style="fill:#515151;" d="M256,7.5c-61.072,0-114.391,33.183-142.921,82.5L256,150l116.935-60
		C349.593,40.683,305.968,7.5,256,7.5z"/>
	<path style="fill:#515151;" d="M398.921,90h-25.986L391,252.5h30v-80C421,142.445,412.961,114.27,398.921,90z"/>
</g>
<path style="fill:#6F6F6F;" d="M372.935,90H113.079C99.039,114.27,91,142.445,91,172.5v80h300v-80
	C391,142.445,384.422,114.27,372.935,90z"/>
<g>
	<path style="fill:#FFB9A0;" d="M181,282.5c16.569,0,30-13.431,30-30h-60C151,269.069,164.431,282.5,181,282.5z"/>
	<path style="fill:#FFB9A0;" d="M301,252.5c0,16.569,13.431,30,30,30s30-13.431,30-30H301z"/>
</g>
<line style="fill:none;stroke:#F25031;stroke-width:15;stroke-linecap:round;stroke-linejoin:round;stroke-miterlimit:10;" x1="226" y1="282.5" x2="286" y2="282.5"/>
<polygon style="fill:#E52C20;" points="361,172.5 331,197.5 361,222.5 391,222.5 391,172.5 "/>
<rect x="121" y="172.5" style="fill:#F25031;" width="240" height="50"/>
<path d="M494.47,412.23c-11.219-12.366-26.46-20.129-42.917-21.858c-0.247-0.025-0.494-0.039-0.742-0.041L391.042,390
	c-2.022,0-3.924,0.784-5.33,2.182c-1.416,1.408-2.211,3.322-2.211,5.318v7.5h-255v-7.5c0-4.143-3.358-7.5-7.5-7.5H67.5
	C30.28,390,0,420.28,0,457.5v47c0,4.143,3.358,7.5,7.5,7.5h497c4.142,0,7.5-3.357,7.5-7.5v-47
	C512,440.768,505.774,424.69,494.47,412.23z M497,497H15v-39.5c0-28.948,23.551-52.5,52.5-52.5h46v69.5c0,4.143,3.358,7.5,7.5,7.5
	s7.5-3.357,7.5-7.5V420h120v54.5c0,4.143,3.358,7.5,7.5,7.5s7.5-3.357,7.5-7.5V420h120v54.5c0,4.143,3.358,7.5,7.5,7.5
	s7.5-3.357,7.5-7.5v-69.458l51.842,0.287C476.535,408.268,497,431.113,497,457.5V497z"/>
<path d="M450.701,260c4.156,0,7.512-3.341,7.526-7.475L458.338,220h7.389c4.142,0,7.5-3.357,7.5-7.5s-3.358-7.5-7.5-7.5h-7.338
	l0.111-32.475c0.014-4.142-3.332-7.511-7.474-7.525c-4.156,0-7.512,3.341-7.526,7.475l-0.132,38.585
	c-0.091,0.467-0.142,0.948-0.142,1.441c0,0.471,0.049,0.93,0.132,1.377l-0.132,38.597C443.212,256.616,446.559,259.985,450.701,260z
	"/>
<path d="M46,220h7.5v32.5c0,4.143,3.358,7.5,7.5,7.5s7.5-3.357,7.5-7.5v-80c0-4.143-3.358-7.5-7.5-7.5s-7.5,3.357-7.5,7.5V205H46
	c-4.142,0-7.5,3.357-7.5,7.5S41.858,220,46,220z"/>
<path d="M226,290h60c4.142,0,7.5-3.357,7.5-7.5s-3.358-7.5-7.5-7.5h-60c-4.142,0-7.5,3.357-7.5,7.5S221.858,290,226,290z"/>
<path d="M391,230c4.142,0,7.5-3.357,7.5-7.5v-50c0-4.143-3.358-7.5-7.5-7.5H121c-4.142,0-7.5,3.357-7.5,7.5v50
	c0,4.143,3.358,7.5,7.5,7.5H391z M128.5,180h255v35h-255V180z"/>
<path d="M91,260h22.727c3.896,66.826,59.488,120,127.273,120h30c67.785,0,123.377-53.174,127.273-120H421c4.142,0,7.5-3.357,7.5-7.5
	v-80C428.5,77.383,351.117,0,256,0S83.5,77.383,83.5,172.5v80C83.5,256.643,86.858,260,91,260z M241,365
	c-11.708,0-23.004-1.8-33.627-5.135C218.564,344.347,236.51,335,256,335s37.436,9.347,48.627,24.865
	C294.004,363.2,282.708,365,271,365H241z M318.95,354.254C305.189,332.965,281.667,320,256,320s-49.189,12.965-62.95,34.254
	c-35.976-17.021-61.536-52.569-64.294-94.254h254.488C380.486,301.685,354.926,337.232,318.95,354.254z M98.5,172.5
	c0-27.134,6.897-52.688,19.031-75h225.404c4.142,0,7.5-3.357,7.5-7.5s-3.358-7.5-7.5-7.5H126.824C155.318,41.726,202.593,15,256,15
	s100.682,26.726,129.176,67.5h-12.241c-4.142,0-7.5,3.357-7.5,7.5s3.358,7.5,7.5,7.5h21.534c12.133,22.312,19.031,47.866,19.031,75
	V245h-315V172.5z"/>
<g>
</g>
<g>
</g>
<g>
</g>
<g>
</g>
<g>
</g>
<g>
</g>
<g>
</g>
<g>
</g>
<g>
</g>
<g>
</g>
<g>
</g>
<g>
</g>
<g>
</g>
<g>
</g>
<g>
</g>
</svg>
