<?xml version="1.0" encoding="iso-8859-1"?>
<!-- Generator: Adobe Illustrator 19.0.0, SVG Export Plug-In . SVG Version: 6.00 Build 0)  -->
<svg version="1.1" id="Capa_1" xmlns="http://www.w3.org/2000/svg" xmlns:xlink="http://www.w3.org/1999/xlink" x="0px" y="0px"
	 viewBox="0 0 512 512" style="enable-background:new 0 0 512 512;" xml:space="preserve">
<path style="fill:#87C241;" d="M81,107.5H41v80c0,74.559,60.441,135,135,135L81,107.5z"/>
<path style="fill:#5A9F2E;" d="M431,107.5l-95,215c74.559,0,135-60.441,135-135v-80H431z"/>
<path style="fill:#87C241;" d="M431,187.5v-80H256v215h80C388.467,322.5,431,262.059,431,187.5z"/>
<path style="fill:#C3D43F;" d="M81,107.5v80c0,74.559,42.533,135,95,135h80v-215H81z"/>
<path style="fill:#5A9F2E;" d="M256,37.5l-15,335h30c66.274,0,120-53.726,120-120v-80C391,97.941,330.559,37.5,256,37.5z"/>
<path style="fill:#87C241;" d="M361,252.5v-80c0-74.559-47.01-135-105-135c-74.559,0-135,60.441-135,135v80
	c0,66.274,53.726,120,120,120S361,318.774,361,252.5z"/>
<g>
	<path style="fill:#5A9F2E;" d="M151,192.5c0,0,0,13.431,0,30s13.431,30,30,30s30-13.431,30-30s0-30,0-30H151z"/>
	<path style="fill:#5A9F2E;" d="M301,192.5c0,0,0,13.431,0,30s13.431,30,30,30s30-13.431,30-30s0-30,0-30H301z"/>
</g>
<g>
	<circle style="fill:#FFFFFF;" cx="181" cy="192.5" r="30"/>
	<circle style="fill:#FFFFFF;" cx="331" cy="192.5" r="30"/>
</g>
<path style="fill:#5A9F2E;" d="M226,132.5c0,0,0,13.431,0,30s13.431,30,30,30s30-13.431,30-30s0-30,0-30H226z"/>
<circle style="fill:#FFFFFF;" cx="256" cy="132.5" r="30"/>
<path style="fill:none;stroke:#005807;stroke-width:15;stroke-linecap:round;stroke-linejoin:round;stroke-miterlimit:10;" d="
	M286,284.926c-16.569-16.569-43.431-16.569-60,0"/>
<path style="fill:#2D7B1A;" d="M450.769,412.5h-30l53.731,92h30v-32C504.5,441.616,480.851,415.66,450.769,412.5z"/>
<path style="fill:#5A9F2E;" d="M420.769,412.5H361l-30,46l30,46h113.5v-32C474.5,441.616,450.851,415.66,420.769,412.5z"/>
<path style="fill:#87C241;" d="M67.5,412.5c-33,0-60,27-60,60v32H361v-92H67.5z"/>
<path d="M135.598,324.16C158.57,357.841,197.244,380,241,380h30c43.754,0,82.427-22.157,105.4-55.837
	c58.96-17.46,102.1-72.116,102.1-136.663v-95c0-4.143-3.358-7.5-7.5-7.5s-7.5,3.357-7.5,7.5v7.5h-25v-7.5c0-4.143-3.358-7.5-7.5-7.5
	s-7.5,3.357-7.5,7.5v7.5h-44.869C354.983,60.151,312.479,32.749,263.5,30.197V7.5c0-4.143-3.358-7.5-7.5-7.5s-7.5,3.357-7.5,7.5
	v22.697C199.521,32.749,157.017,60.151,133.369,100H88.5v-7.5c0-4.143-3.358-7.5-7.5-7.5s-7.5,3.357-7.5,7.5v7.5h-25v-7.5
	c0-4.143-3.358-7.5-7.5-7.5s-7.5,3.357-7.5,7.5v95C33.5,252.046,76.64,306.699,135.598,324.16z M463.5,115v72.5
	c0,46.035-24.536,86.433-61.205,108.85c2.421-2.859,4.764-5.878,7.014-9.074c18.824-26.75,29.191-62.185,29.191-99.775V115H463.5z
	 M48.5,115h25v22.5c0,4.143,3.358,7.5,7.5,7.5s7.5-3.357,7.5-7.5V115h37.13c-7.791,17.597-12.13,37.05-12.13,57.5v15
	c0,4.143,3.358,7.5,7.5,7.5s7.5-3.357,7.5-7.5v-15c0-67.785,53.174-123.377,120-127.273V52.5c0,4.143,3.358,7.5,7.5,7.5
	s7.5-3.357,7.5-7.5v-7.273c66.826,3.896,120,59.488,120,127.273v15c0,4.143,3.358,7.5,7.5,7.5s7.5-3.357,7.5-7.5v-15
	c0-20.45-4.339-39.903-12.13-57.5h37.13v72.5c0,37.043-10.901,70.442-28.27,93.758c2.139-9.245,3.27-18.872,3.27-28.758v-35
	c0-4.143-3.358-7.5-7.5-7.5s-7.5,3.357-7.5,7.5v35c0,62.032-50.467,112.5-112.5,112.5h-30c-62.033,0-112.5-50.468-112.5-112.5v-35
	c0-4.143-3.358-7.5-7.5-7.5s-7.5,3.357-7.5,7.5v35c0,9.891,1.132,19.522,3.274,28.771C99.401,257.955,88.5,224.548,88.5,187.5v-20
	c0-4.143-3.358-7.5-7.5-7.5s-7.5,3.357-7.5,7.5v20c0,37.591,10.367,73.025,29.191,99.775c2.254,3.204,4.603,6.231,7.03,9.095
	C73.039,273.957,48.5,233.544,48.5,187.5V115z"/>
<path d="M181,230c20.678,0,37.5-16.822,37.5-37.5S201.678,155,181,155s-37.5,16.822-37.5,37.5S160.322,230,181,230z M181,170
	c12.407,0,22.5,10.094,22.5,22.5S193.407,215,181,215s-22.5-10.094-22.5-22.5S168.593,170,181,170z"/>
<circle cx="181" cy="192.5" r="7.5"/>
<path d="M331,230c20.678,0,37.5-16.822,37.5-37.5S351.678,155,331,155s-37.5,16.822-37.5,37.5S310.322,230,331,230z M331,170
	c12.407,0,22.5,10.094,22.5,22.5S343.407,215,331,215s-22.5-10.094-22.5-22.5S318.593,170,331,170z"/>
<circle cx="331" cy="192.5" r="7.5"/>
<path d="M256,170c20.678,0,37.5-16.822,37.5-37.5S276.678,95,256,95s-37.5,16.822-37.5,37.5S235.322,170,256,170z M256,110
	c12.407,0,22.5,10.094,22.5,22.5S268.407,155,256,155s-22.5-10.094-22.5-22.5S243.593,110,256,110z"/>
<circle cx="256" cy="132.5" r="7.5"/>
<path d="M256,265c-13.336,0-25.874,5.193-35.303,14.624c-2.929,2.929-2.929,7.678,0,10.606c2.929,2.928,7.678,2.929,10.606-0.001
	C237.9,283.633,246.671,280,256,280c9.329,0,18.1,3.633,24.697,10.229c1.464,1.465,3.384,2.197,5.303,2.197s3.839-0.732,5.303-2.196
	c2.929-2.93,2.929-7.678,0-10.607C281.874,270.193,269.335,265,256,265z"/>
<path d="M494.47,427.23c-11.219-12.366-26.46-20.129-42.917-21.858c-0.258-0.027-0.518-0.041-0.777-0.041L67.5,405
	C30.28,405,0,435.28,0,472.5v32c0,4.143,3.358,7.5,7.5,7.5h497c4.142,0,7.5-3.357,7.5-7.5v-32
	C512,455.768,505.774,439.69,494.47,427.23z M497,497h-98.5v-22.5c0-4.143-3.358-7.5-7.5-7.5s-7.5,3.357-7.5,7.5V497h-255v-22.5
	c0-4.143-3.358-7.5-7.5-7.5s-7.5,3.357-7.5,7.5V497H15v-24.5c0-28.948,23.551-52.5,52.494-52.5l382.866,0.331
	C476.543,423.278,497,446.12,497,472.5V497z"/>
<g>
</g>
<g>
</g>
<g>
</g>
<g>
</g>
<g>
</g>
<g>
</g>
<g>
</g>
<g>
</g>
<g>
</g>
<g>
</g>
<g>
</g>
<g>
</g>
<g>
</g>
<g>
</g>
<g>
</g>
</svg>
