<?xml version="1.0" encoding="iso-8859-1"?>
<!-- Generator: Adobe Illustrator 19.0.0, SVG Export Plug-In . SVG Version: 6.00 Build 0)  -->
<svg version="1.1" id="Capa_1" xmlns="http://www.w3.org/2000/svg" xmlns:xlink="http://www.w3.org/1999/xlink" x="0px" y="0px"
	 viewBox="0 0 512 512" style="enable-background:new 0 0 512 512;" xml:space="preserve">
<path style="fill:#C8C8C8;" d="M121,162.5c-22.091,0-40,17.909-40,40s17.909,40,40,40h135v-80H121z"/>
<path style="fill:#AAAAAA;" d="M391,162.5H256v80h135c22.092,0,40-17.909,40-40S413.092,162.5,391,162.5z"/>
<path style="fill:#C8C8C8;" d="M300.371,14.971H256L241,372.5h30c66.274,0,120-53.726,120-120v-110
	C391,83.487,353.131,33.326,300.371,14.971z"/>
<path style="fill:#E3E3E3;" d="M299.364,19.517l-87.735-4.546C158.869,33.326,121,83.487,121,142.5v110c0,66.274,53.726,120,120,120
	s120-53.726,120-120v-110C361,87.823,335.718,40.74,299.364,19.517z"/>
<path style="fill:#363636;" d="M211.629,14.971C215.189,36.266,233.694,52.5,256,52.5s40.811-16.234,44.371-37.529
	C286.473,10.136,271.545,7.5,256,7.5S225.527,10.136,211.629,14.971z"/>
<path style="fill:#6F6F6F;" d="M67.5,412.5c-33,0-60,27-60,60v32H121l30-46l-30-46H67.5z"/>
<path style="fill:#363636;" d="M450.769,412.5h-30l53.731,92h30v-32C504.5,441.616,480.851,415.66,450.769,412.5z"/>
<path style="fill:#515151;" d="M420.769,412.5H391l-30,46l30,46h83.5v-32C474.5,441.616,450.851,415.66,420.769,412.5z"/>
<polygon style="fill:#363636;" points="361,412.5 331,458.5 361,504.5 391,504.5 391,412.5 "/>
<polygon style="fill:#515151;" points="357.501,412.5 256,438.5 154.499,412.5 121,412.5 121,504.5 361,504.5 361,412.5 "/>
<path style="fill:#E3E3E3;" d="M256,458.5c40.46,0,76.758-17.804,101.501-46H154.499C179.242,440.696,215.54,458.5,256,458.5z"/>
<g>
	<path style="fill:#C8C8C8;" d="M151,192.5c0,0,0,13.431,0,30s13.431,30,30,30s30-13.431,30-30s0-30,0-30H151z"/>
	<path style="fill:#C8C8C8;" d="M301,192.5c0,0,0,13.431,0,30s13.431,30,30,30s30-13.431,30-30s0-30,0-30H301z"/>
</g>
<g>
	<circle style="fill:#FFFFFF;" cx="181" cy="192.5" r="30"/>
	<circle style="fill:#FFFFFF;" cx="331" cy="192.5" r="30"/>
</g>
<path d="M226,290h60c4.143,0,7.5-3.357,7.5-7.5s-3.357-7.5-7.5-7.5h-60c-4.143,0-7.5,3.357-7.5,7.5S221.857,290,226,290z"/>
<path d="M113.5,249.402v3.098c0,18.705,4.05,36.481,11.317,52.5H111.5v-7.5c0-4.143-3.357-7.5-7.5-7.5s-7.5,3.357-7.5,7.5v30
	c0,4.143,3.357,7.5,7.5,7.5s7.5-3.357,7.5-7.5V320h21.383c22.559,36.004,62.586,60,108.117,60h30c45.532,0,85.558-23.996,108.117-60
	H400.5v7.5c0,4.143,3.357,7.5,7.5,7.5s7.5-3.357,7.5-7.5v-30c0-4.143-3.357-7.5-7.5-7.5s-7.5,3.357-7.5,7.5v7.5h-13.317
	c7.267-16.019,11.317-33.795,11.317-52.5v-3.098c22.64-3.607,40-23.263,40-46.902s-17.36-43.295-40-46.902V142.5
	C398.5,63.925,334.575,0,256,0S113.5,63.925,113.5,142.5v13.098c-22.64,3.607-40,23.263-40,46.902S90.86,245.795,113.5,249.402z
	 M291.365,19.994C286.186,34.801,272.198,45,256,45s-30.186-10.199-35.365-25.006C231.869,16.746,243.734,15,256,15
	C268.266,15,280.131,16.746,291.365,19.994z M206.494,25.005C213.754,45.728,233.331,60,256,60s42.246-14.272,49.506-34.995
	C336.728,38.209,361.63,63.512,374.316,95H353.5v-7.5c0-4.143-3.357-7.5-7.5-7.5s-7.5,3.357-7.5,7.5V95h-30v-7.5
	c0-4.143-3.357-7.5-7.5-7.5s-7.5,3.357-7.5,7.5V95h-30v-7.5c0-4.143-3.357-7.5-7.5-7.5s-7.5,3.357-7.5,7.5V95h-30v-7.5
	c0-4.143-3.357-7.5-7.5-7.5s-7.5,3.357-7.5,7.5V95h-30v-7.5c0-4.143-3.357-7.5-7.5-7.5s-7.5,3.357-7.5,7.5V95h-20.816
	C150.37,63.512,175.272,38.209,206.494,25.005z M113.5,170.883V197.5c0,4.143,3.357,7.5,7.5,7.5s7.5-3.357,7.5-7.5v-55
	c0-11.229,1.465-22.12,4.204-32.5h246.593c2.738,10.38,4.204,21.271,4.204,32.5v55c0,4.143,3.357,7.5,7.5,7.5s7.5-3.357,7.5-7.5
	v-26.617c14.315,3.396,25,16.278,25,31.617s-10.685,28.221-25,31.617V227.5c0-4.143-3.357-7.5-7.5-7.5s-7.5,3.357-7.5,7.5v25
	c0,62.032-50.468,112.5-112.5,112.5h-30c-62.032,0-112.5-50.468-112.5-112.5v-25c0-4.143-3.357-7.5-7.5-7.5s-7.5,3.357-7.5,7.5
	v6.617c-14.315-3.396-25-16.278-25-31.617S99.185,174.279,113.5,170.883z"/>
<path d="M494.47,427.23c-11.219-12.366-26.46-20.129-42.917-21.858c-0.259-0.027-0.519-0.041-0.777-0.041l-57.763-0.05
	C392.371,405.103,391.698,405,391,405c-0.693,0-1.362,0.102-1.999,0.278l-29.597-0.026c-1.256-0.329-2.574-0.332-3.821-0.003
	l-200.065-0.173c-0.68-0.093-1.37-0.096-2.052-0.002l-31.646-0.027c-0.27-0.029-0.543-0.047-0.821-0.047
	c-0.274,0-0.545,0.017-0.812,0.045L67.5,405C30.28,405,0,435.28,0,472.5v32c0,4.143,3.357,7.5,7.5,7.5h497
	c4.143,0,7.5-3.357,7.5-7.5v-32C512,455.768,505.774,439.69,494.47,427.23z M339.028,420.235C316.048,439.952,286.637,451,256,451
	c-30.712,0-60.192-11.101-83.197-30.909L339.028,420.235z M497,497H15v-24.5c0-28.948,23.552-52.5,52.493-52.5l46.007,0.04v54.46
	c0,4.143,3.357,7.5,7.5,7.5s7.5-3.357,7.5-7.5v-54.447l22.729,0.02C178.19,449.303,216.169,466,256,466
	c39.75,0,77.657-16.627,104.607-45.747l22.893,0.02V474.5c0,4.143,3.357,7.5,7.5,7.5s7.5-3.357,7.5-7.5v-54.214l51.859,0.045
	C476.543,423.278,497,446.12,497,472.5V497z"/>
<path d="M181,230c20.678,0,37.5-16.822,37.5-37.5S201.678,155,181,155s-37.5,16.822-37.5,37.5S160.322,230,181,230z M181,170
	c12.406,0,22.5,10.094,22.5,22.5S193.406,215,181,215s-22.5-10.094-22.5-22.5S168.594,170,181,170z"/>
<circle cx="181" cy="192.5" r="7.5"/>
<path d="M331,230c20.678,0,37.5-16.822,37.5-37.5S351.678,155,331,155s-37.5,16.822-37.5,37.5S310.322,230,331,230z M331,170
	c12.406,0,22.5,10.094,22.5,22.5S343.406,215,331,215s-22.5-10.094-22.5-22.5S318.594,170,331,170z"/>
<circle cx="331" cy="192.5" r="7.5"/>
<g>
</g>
<g>
</g>
<g>
</g>
<g>
</g>
<g>
</g>
<g>
</g>
<g>
</g>
<g>
</g>
<g>
</g>
<g>
</g>
<g>
</g>
<g>
</g>
<g>
</g>
<g>
</g>
<g>
</g>
</svg>
