<?xml version="1.0" encoding="iso-8859-1"?>
<!-- Generator: Adobe Illustrator 19.0.0, SVG Export Plug-In . SVG Version: 6.00 Build 0)  -->
<svg version="1.1" id="Capa_1" xmlns="http://www.w3.org/2000/svg" xmlns:xlink="http://www.w3.org/1999/xlink" x="0px" y="0px"
	 viewBox="0 0 512 512" style="enable-background:new 0 0 512 512;" xml:space="preserve">
<path style="fill:#F25031;" d="M193.875,273.5C156.015,336.83,86.723,379.25,7.5,379.25v-211.5
	C86.723,167.75,156.015,210.171,193.875,273.5z"/>
<g>
	<path style="fill:#FF7240;" d="M256,132.5l118.875,55.462V97.5C331.248,97.5,290.013,110.364,256,132.5z"/>
	<path style="fill:#FF7240;" d="M256,132.5v282c105.63,0,198.02-56.561,248.5-141C454.02,189.061,361.63,132.5,256,132.5z"/>
</g>
<g>
	<path style="fill:#FEA228;" d="M474.5,273.5c-44.386-84.439-125.622-141-218.5-141c-105.63,0-198.02,56.56-248.5,141
		c50.48,84.44,142.87,141,248.5,141C348.878,414.5,430.114,357.94,474.5,273.5z"/>
	<path style="fill:#FEA228;" d="M256,132.5l140,47.692v-11.643C354.518,145.583,306.792,132.5,256,132.5z"/>
</g>
<path style="fill:#FCD10F;" d="M116,168.549V236h280v-55.808c-40.152-30.138-88.268-47.692-140-47.692
	C205.208,132.5,157.482,145.583,116,168.549z"/>
<circle style="fill:#FF7240;" cx="256" cy="273.5" r="67.5"/>
<path style="fill:#C7EFFF;" d="M256,236v75c20.711,0,37.5-16.789,37.5-37.5S276.711,236,256,236z"/>
<path style="fill:#FFFFFF;" d="M263.5,273.5c0-20.711-3.358-37.5-7.5-37.5c-20.711,0-37.5,16.789-37.5,37.5S235.289,311,256,311
	C260.142,311,263.5,294.211,263.5,273.5z"/>
<circle cx="336" cy="206" r="7.5"/>
<circle cx="366" cy="206" r="7.5"/>
<circle cx="176" cy="206" r="7.5"/>
<circle cx="146" cy="206" r="7.5"/>
<path d="M256,318.5c24.813,0,45-20.187,45-45s-20.187-45-45-45s-45,20.187-45,45S231.187,318.5,256,318.5z M256,243.5
	c16.542,0,30,13.458,30,30s-13.458,30-30,30s-30-13.458-30-30S239.458,243.5,256,243.5z"/>
<path d="M510.938,269.651c-25.872-43.275-62.611-79.517-106.246-104.806c-7.277-4.218-14.726-8.108-22.316-11.676V97.5
	c0-4.143-3.357-7.5-7.5-7.5c-43.291,0-85.107,12.107-121.091,35.018c-51.531,0.384-102.132,14.128-146.475,39.827
	c-5.966,3.458-11.798,7.127-17.496,10.984C63.613,165.498,35.945,160.25,7.5,160.25c-4.142,0-7.5,3.357-7.5,7.5v211.5
	c0,4.143,3.358,7.5,7.5,7.5c28.445,0,56.113-5.248,82.313-15.58c5.698,3.857,11.53,7.526,17.495,10.984
	C152.288,408.222,203.705,422,256,422c52.296,0,103.712-13.778,148.691-39.846c43.635-25.289,80.374-61.53,106.246-104.806
	C512.354,274.979,512.354,272.022,510.938,269.651z M490.899,266H330.624c-0.791-7.928-2.832-15.489-5.905-22.5H396
	c4.143,0,7.5-3.357,7.5-7.5v-54.088C437.992,203.087,468.024,231.622,490.899,266z M196.041,228.5H123.5v-55.184
	C163.767,151.839,209.219,140,256,140s92.233,11.839,132.5,33.316V228.5h-72.541c-13.697-18.204-35.475-30-59.959-30
	S209.738,210.296,196.041,228.5z M367.375,146.626c-27.094-10.943-55.761-17.848-85.01-20.447
	c26.335-12.835,55.221-20.017,85.01-21.049V146.626z M108.5,181.912V236c0,4.143,3.358,7.5,7.5,7.5h71.281
	c-3.073,7.011-5.114,14.572-5.905,22.5H21.101C43.976,231.622,74.008,203.087,108.5,181.912z M75.157,186.411
	C52.229,204.052,31.927,224.989,15,248.474V205.25h7.5c4.142,0,7.5-3.357,7.5-7.5s-3.358-7.5-7.5-7.5H15v-14.869
	C35.64,176.1,55.795,179.801,75.157,186.411z M15,371.619V356.75h7.5c4.142,0,7.5-3.357,7.5-7.5s-3.358-7.5-7.5-7.5H15v-43.224
	c16.927,23.485,37.23,44.422,60.157,62.064C55.795,367.199,35.64,370.9,15,371.619z M256,407c-94.175,0-182.97-47.958-234.899-126
	H181.38c1.152,11.501,4.94,22.586,11.137,32.422c2.207,3.504,6.837,4.556,10.344,2.348c3.504-2.208,4.556-6.839,2.348-10.344
	C199.185,295.863,196,284.824,196,273.5c0-33.084,26.916-60,60-60s60,26.916,60,60s-26.916,60-60,60
	c-11.323,0-22.363-3.185-31.926-9.209c-3.503-2.208-8.135-1.155-10.343,2.348c-2.208,3.505-1.157,8.136,2.348,10.344
	c11.96,7.535,25.765,11.518,39.922,11.518c38.824,0,70.849-29.653,74.624-67.5H490.9C438.97,359.042,350.175,407,256,407z"/>
<path d="M404.875,146.753c4.143,0,7.5-3.357,7.5-7.5v-30.225c0-4.143-3.357-7.5-7.5-7.5s-7.5,3.357-7.5,7.5v30.225
	C397.375,143.396,400.732,146.753,404.875,146.753z"/>
<g>
</g>
<g>
</g>
<g>
</g>
<g>
</g>
<g>
</g>
<g>
</g>
<g>
</g>
<g>
</g>
<g>
</g>
<g>
</g>
<g>
</g>
<g>
</g>
<g>
</g>
<g>
</g>
<g>
</g>
</svg>
