<?xml version="1.0" encoding="iso-8859-1"?>
<!-- Generator: Adobe Illustrator 19.0.0, SVG Export Plug-In . SVG Version: 6.00 Build 0)  -->
<svg version="1.1" id="Capa_1" xmlns="http://www.w3.org/2000/svg" xmlns:xlink="http://www.w3.org/1999/xlink" x="0px" y="0px"
	 viewBox="0 0 512 512" style="enable-background:new 0 0 512 512;" xml:space="preserve">
<path style="fill:#C20C00;" d="M133.963,443.5L187.5,195h-90l-15,278.5h81.463C163.963,456.931,150.532,443.5,133.963,443.5z"/>
<path style="fill:#E52C20;" d="M97.5,195L46.977,429.509C41.765,453.704,57.75,473.5,82.5,473.5h15l60-278.5H97.5z"/>
<path style="fill:#FCD10F;" d="M142.5,38.5l130,165h35C307.5,112.373,233.627,38.5,142.5,38.5z"/>
<path style="fill:#FFE73D;" d="M142.5,38.5v165h130C272.5,112.373,214.297,38.5,142.5,38.5z"/>
<path style="fill:#FCD10F;" d="M343.105,130.829v145.342c32.421-8.276,56.395-37.672,56.395-72.671S375.526,139.105,343.105,130.829
	z"/>
<path style="fill:#FFE73D;" d="M343.105,130.829l-30,72.671l30,72.671c15.174-8.276,26.395-37.672,26.395-72.671
	S358.279,139.105,343.105,130.829z"/>
<path style="fill:#E52C20;" d="M172.268,87.224c-9.519-2.43-19.492-3.724-29.768-3.724c-66.274,0-120,53.726-120,120
	s53.726,120,120,120c10.276,0,20.249-1.294,29.768-3.724l170.837-43.605V130.829L172.268,87.224z"/>
<path style="fill:#FEA228;" d="M482,181l-10,22.5l10,22.5c12.426,0,22.5-10.074,22.5-22.5C504.5,191.073,494.426,181,482,181z"/>
<g>
	<path style="fill:#FCD10F;" d="M459.5,203.5c0,12.426,10.074,22.5,22.5,22.5v-45C469.574,181,459.5,191.073,459.5,203.5z"/>
	<path style="fill:#FCD10F;" d="M142.5,128.5v150c41.421,0,75-33.579,75-75S183.921,128.5,142.5,128.5z"/>
</g>
<path style="fill:#FFE73D;" d="M187.5,203.5c0-41.421-20.147-75-45-75c-41.421,0-75,33.579-75,75s33.579,75,75,75
	C167.353,278.5,187.5,244.921,187.5,203.5z"/>
<path d="M482,173.5c-13.953,0-25.712,9.575-29.051,22.5H437v-15c0-4.143-3.358-7.5-7.5-7.5s-7.5,3.357-7.5,7.5v15h-15.347
	c-3.112-34.401-27.427-63.51-61.312-72.332c-0.149-0.039-0.263-0.076-0.381-0.106l-58.383-14.902C254.5,59.981,200.879,31,142.5,31
	c-4.142,0-7.5,3.357-7.5,7.5v37.727C70.657,79.978,18.978,131.657,15.227,196H7.5c-4.142,0-7.5,3.357-7.5,7.5s3.358,7.5,7.5,7.5
	h7.727c2.249,38.566,21.711,72.584,50.805,94.459L39.646,427.93c-3.008,13.961-0.159,27.229,8.021,37.359
	C55.848,475.421,68.219,481,82.5,481h81.463c4.142,0,7.5-3.357,7.5-7.5c0-17.558-12.131-32.336-28.45-36.396L156.178,376h43.917
	c26.191,0,47.5-21.309,47.5-47.5v-20.21l97.365-24.852c0.118-0.03,0.233-0.067,0.35-0.097c33.916-8.83,58.231-37.939,61.343-72.34
	H422v15c0,4.143,3.358,7.5,7.5,7.5s7.5-3.357,7.5-7.5v-15h15.949c3.339,12.925,15.097,22.5,29.051,22.5c16.542,0,30-13.458,30-30
	S498.542,173.5,482,173.5z M263.611,102.798l-89.488-22.841c-7.878-2.011-15.963-3.256-24.123-3.732v-30.05
	C194.511,48.255,235.43,68.818,263.611,102.798z M30,203.5C30,141.467,80.467,91,142.5,91c9.447,0,18.839,1.175,27.913,3.49
	l109.648,27.987c0.03,0.008,55.544,14.177,55.544,14.177v133.69L170.413,312.51c-9.074,2.315-18.466,3.49-27.913,3.49
	C80.467,316,30,265.533,30,203.5z M155.178,466H82.5c-9.659,0-17.885-3.599-23.163-10.135c-5.277-6.534-7.063-15.334-5.028-24.776
	L79.47,314.298C98.072,324.922,119.589,331,142.5,331c2.7,0,5.396-0.086,8.083-0.255l-7.802,36.214
	c-0.011,0.049-16.15,74.962-16.15,74.962c-0.477,2.215,0.073,4.527,1.497,6.291c1.424,1.764,3.568,2.788,5.835,2.788
	C143.742,451,152.083,457.27,155.178,466z M232.595,328.5c0,17.921-14.58,32.5-32.5,32.5h-40.686l6.944-32.232
	c2.609-0.494,5.2-1.069,7.77-1.725l18.472-4.715V338.5c0,4.143,3.358,7.5,7.5,7.5s7.5-3.357,7.5-7.5v-20.001l25-6.381V328.5z
	 M350.605,265.76V141.24C375.393,151.6,392,175.958,392,203.5S375.393,255.4,350.605,265.76z M482,218.5c-8.271,0-15-6.729-15-15
	s6.729-15,15-15s15,6.729,15,15S490.271,218.5,482,218.5z"/>
<path d="M225,203.5c0-45.49-37.009-82.5-82.5-82.5c-16.245,0-31.976,4.731-45.493,13.683c-3.454,2.287-4.399,6.94-2.112,10.394
	s6.94,4.398,10.394,2.112C116.343,139.869,129.21,136,142.5,136c37.22,0,67.5,30.28,67.5,67.5S179.72,271,142.5,271
	S75,240.72,75,203.5c0-13.291,3.869-26.158,11.188-37.21c2.287-3.454,1.342-8.107-2.112-10.395
	c-3.454-2.286-8.107-1.341-10.394,2.111C64.731,171.523,60,187.255,60,203.5c0,45.49,37.009,82.5,82.5,82.5S225,248.99,225,203.5z"
	/>
<circle cx="313.11" cy="203.5" r="7.5"/>
<g>
</g>
<g>
</g>
<g>
</g>
<g>
</g>
<g>
</g>
<g>
</g>
<g>
</g>
<g>
</g>
<g>
</g>
<g>
</g>
<g>
</g>
<g>
</g>
<g>
</g>
<g>
</g>
<g>
</g>
</svg>
