<?xml version="1.0" encoding="iso-8859-1"?>
<!-- Generator: Adobe Illustrator 19.0.0, SVG Export Plug-In . SVG Version: 6.00 Build 0)  -->
<svg version="1.1" id="Capa_1" xmlns="http://www.w3.org/2000/svg" xmlns:xlink="http://www.w3.org/1999/xlink" x="0px" y="0px"
	 viewBox="0 0 512 512" style="enable-background:new 0 0 512 512;" xml:space="preserve">
<path style="fill:#AAAAAA;" d="M101,142.5c-11.046,0-20,8.954-20,20v10l90.888,25.005V142.5H101z"/>
<path style="fill:#E3E3E3;" d="M81,262.5c0,22.091,17.909,40,40,40h50.888v-130H81V262.5z"/>
<path style="fill:#FFB9A0;" d="M257.36,142.5v229.99c34.38-0.34,65.68-13.52,89.33-34.99c27.22-24.7,57.31-60.35,57.31-100v-95
	H257.36z"/>
<path style="fill:#FFDCCF;" d="M194.09,22.51C150.67,44.94,121,90.26,121,142.5v30l30,30l-30,30v5c0,74.56,60.44,135,135,135
	c0.45,0,0.91,0,1.36-0.01C314.72,371.55,361,311.48,361,237.5v-65L194.09,22.51z"/>
<path style="fill:#00B2FF;" d="M224.09,11.3c-10.54,2.55-20.59,6.34-30,11.21V82.5c0,33,27,60,60,60h30L224.09,11.3z"/>
<path style="fill:#0045CC;" d="M447.03,203.24L372.94,75C349.92,35.21,307.17,8.25,258.06,7.52L405,180.5l-23,157h55
	c37.28,0,67.5-30.22,67.5-67.5C504.5,236.13,479.55,208.09,447.03,203.24z"/>
<path style="fill:#007CE6;" d="M441.67,238.41c5,9.43,7.83,20.18,7.83,31.59c0,37.28-30.22,67.5-67.5,67.5c-19.97,0-35.31,0-35.31,0
	c27.22-24.7,44.31-60.35,44.31-100v-65h-0.23H361h-25c-22.09,0-41.49-12.1-51.91-30c-33,0-60-27-60-60V11.3
	c10.23-2.49,20.92-3.8,31.91-3.8c0.69,0,1.37,0.01,2.06,0.02c43.07,0.83,80.53,27.78,100.74,67.5L441.67,238.41z"/>
<path style="fill:#8C8C8C;" d="M211,172.5h-30v60h30c16.57,0,30-13.43,30-30S227.57,172.5,211,172.5z"/>
<path style="fill:#AAAAAA;" d="M181,172.5h-60v60h60c16.57,0,30-13.43,30-30S197.57,172.5,181,172.5z"/>
<g>
	
		<line style="fill:none;stroke:#E52C20;stroke-width:15;stroke-linecap:round;stroke-linejoin:round;stroke-miterlimit:10;" x1="256" y1="282.5" x2="266" y2="272.5"/>
	
		<line style="fill:none;stroke:#E52C20;stroke-width:15;stroke-linecap:round;stroke-linejoin:round;stroke-miterlimit:10;" x1="256" y1="282.5" x2="246" y2="272.5"/>
	
		<line style="fill:none;stroke:#E52C20;stroke-width:15;stroke-linecap:round;stroke-linejoin:round;stroke-miterlimit:10;" x1="226" y1="282.5" x2="286" y2="282.5"/>
</g>
<path style="fill:#515151;" d="M450.769,412.5h-30l53.731,92h30v-32C504.5,441.616,480.851,415.66,450.769,412.5z"/>
<g>
	<path style="fill:#6F6F6F;" d="M420.769,412.5l-46.269,20l-20,72h120v-32C474.5,441.616,450.851,415.66,420.769,412.5z"/>
	<path style="fill:#6F6F6F;" d="M67.5,412.5c-33,0-60,27-60,60v32h150l-20-72l-40-20H67.5z"/>
</g>
<g>
	<polygon style="fill:#363636;" points="187.5,442.5 157.5,504.5 97.5,412.5 157.5,412.5 	"/>
	<polygon style="fill:#363636;" points="420.77,412.5 354.5,504.5 324.5,442.5 354.5,412.5 	"/>
</g>
<polygon style="fill:#FFB9A0;" points="354.5,412.5 354.5,442.5 256,488.88 324.5,412.5 "/>
<polygon style="fill:#FFDCCF;" points="324.5,412.5 324.5,445.14 256,488.88 157.5,442.5 157.5,412.5 "/>
<path style="fill:#C20C00;" d="M354.5,442.5v62h-30l-20-29.68l20-29.68C334.24,443.4,344.26,442.5,354.5,442.5z"/>
<path style="fill:#E52C20;" d="M324.5,445.14v59.36h-167v-62c36.73,0,70.72,11.62,98.5,31.38
	C276.04,459.63,299.3,449.61,324.5,445.14z"/>
<path d="M240.696,267.196c-2.111,2.111-2.692,5.165-1.76,7.804H226c-4.143,0-7.5,3.357-7.5,7.5s3.357,7.5,7.5,7.5h60
	c4.143,0,7.5-3.357,7.5-7.5s-3.357-7.5-7.5-7.5h-12.936c0.932-2.639,0.35-5.692-1.76-7.804c-2.93-2.928-7.678-2.928-10.607,0
	L256,271.893l-4.696-4.696C248.374,264.269,243.626,264.269,240.696,267.196z"/>
<path d="M458.269,406.442V382.5c0-4.143-3.357-7.5-7.5-7.5s-7.5,3.357-7.5,7.5V405h-15v-37.5c0-4.143-3.357-7.5-7.5-7.5
	s-7.5,3.357-7.5,7.5V405h-15v-22.5c0-4.143-3.357-7.5-7.5-7.5s-7.5,3.357-7.5,7.5V405H135v-22.5c0-4.143-3.357-7.5-7.5-7.5
	s-7.5,3.357-7.5,7.5V405h-15v-37.5c0-4.143-3.357-7.5-7.5-7.5s-7.5,3.357-7.5,7.5V405H75v-22.5c0-4.143-3.357-7.5-7.5-7.5
	s-7.5,3.357-7.5,7.5v22.927C26.298,409.171,0,437.816,0,472.5v32c0,4.143,3.357,7.5,7.5,7.5h149.991c0.03,0,196.99,0,196.99,0
	c0.03,0,150.019,0,150.019,0c4.143,0,7.5-3.357,7.5-7.5v-32c0-16.732-6.226-32.81-17.53-45.27
	C484.796,416.567,472.126,409.342,458.269,406.442z M150,420v59.271L111.345,420H150z M347,435.16
	c-32.666,1.349-63.886,11.498-91,29.613c-27.114-18.115-58.334-28.264-91-29.613V420h182V435.16z M165,450.176
	c31.289,1.412,61.106,11.644,86.652,29.818c1.301,0.926,2.824,1.389,4.348,1.389s3.047-0.463,4.348-1.389
	c25.546-18.175,55.363-28.407,86.652-29.818V497H165V450.176z M362,420h44.123L362,481.255V420z M15,472.5
	c0-28.948,23.552-52.5,52.5-52.5h25.937l50.218,77H15V472.5z M497,497H369.146l55.464-77h23.952c0.456,0.14,0.933,0.238,1.423,0.29
	C476.349,423.061,497,445.994,497,472.5V497z"/>
<path d="M121,310h12.369c24.848,41.87,70.512,70,122.631,70c35.72,0,68.409-13.209,93.444-35H437c41.355,0,75-33.645,75-75
	c0-18.085-6.527-35.553-18.379-49.186c-10.919-12.56-25.666-21.118-41.848-24.357L379.435,71.25C354.014,27.301,306.717,0,256,0
	c-23.245,0-45.207,5.594-64.612,15.508c-0.51,0.197-0.992,0.448-1.44,0.746C146.626,39.011,116.406,83.421,113.717,135H101
	c-15.163,0-27.5,12.337-27.5,27.5v100C73.5,288.691,94.809,310,121,310z M121,295c-17.921,0-32.5-14.579-32.5-32.5V180h25v57.5
	c0,20.45,4.339,39.903,12.13,57.5H121z M201.593,27.2C218.104,19.377,236.549,15,256,15c45.38,0,87.702,24.432,110.448,63.757
	l74.089,128.235c1.144,1.979,3.128,3.329,5.389,3.666C475.043,214.996,497,240.507,497,270c0,33.084-26.916,60-60,60h-72.685
	c21.302-24.909,34.185-57.231,34.185-92.5v-65c0-4.143-3.357-7.5-7.5-7.5h-55c-18.592,0-35.997-10.066-45.425-26.271
	c-0.02-0.034-0.046-0.065-0.067-0.099c-0.112-0.185-0.23-0.364-0.356-0.538c-0.056-0.077-0.111-0.153-0.17-0.227
	c-0.127-0.161-0.261-0.315-0.401-0.465c-0.055-0.059-0.105-0.121-0.162-0.179c-0.201-0.203-0.416-0.392-0.639-0.571
	c-0.034-0.027-0.071-0.053-0.106-0.08c-1.268-0.981-2.854-1.57-4.581-1.57c-28.948,0-52.5-23.552-52.5-52.5V41.303
	c0-4.143-3.357-7.5-7.5-7.5s-7.5,3.357-7.5,7.5V82.5c0,19.983,8.736,37.958,22.582,50.328
	c-21.702-6.445-37.582-26.562-37.582-50.328L201.593,27.2L201.593,27.2z M186.593,35.59V82.5c0,37.22,30.28,67.5,67.5,67.5
	c0,0,17.627,0,25.852,0c12.512,18.609,33.604,30,56.056,30h47.5v57.5c0,70.304-57.196,127.5-127.5,127.5
	c-69.468,0-126.131-55.846-127.468-125H151c4.143,0,7.5-3.357,7.5-7.5s-3.357-7.5-7.5-7.5h-22.5v-45H211
	c12.406,0,22.5,10.094,22.5,22.5S223.406,225,211,225h-30c-4.143,0-7.5,3.357-7.5,7.5s3.357,7.5,7.5,7.5h30
	c20.678,0,37.5-16.822,37.5-37.5S231.678,165,211,165h-82.5v-22.5C128.5,97.775,151.648,58.354,186.593,35.59z M101,150h12.5v15h-25
	v-2.5C88.5,155.607,94.107,150,101,150z"/>
<circle cx="151" cy="142.5" r="7.5"/>
<circle cx="181" cy="142.5" r="7.5"/>
<path d="M311,218c4.143,0,7.5-3.357,7.5-7.5V210H331c4.143,0,7.5-3.357,7.5-7.5s-3.357-7.5-7.5-7.5h-20c-4.143,0-7.5,3.357-7.5,7.5
	v8C303.5,214.643,306.857,218,311,218z"/>
<g>
</g>
<g>
</g>
<g>
</g>
<g>
</g>
<g>
</g>
<g>
</g>
<g>
</g>
<g>
</g>
<g>
</g>
<g>
</g>
<g>
</g>
<g>
</g>
<g>
</g>
<g>
</g>
<g>
</g>
</svg>
