<?xml version="1.0" encoding="iso-8859-1"?>
<!-- Generator: Adobe Illustrator 19.0.0, SVG Export Plug-In . SVG Version: 6.00 Build 0)  -->
<svg version="1.1" id="Capa_1" xmlns="http://www.w3.org/2000/svg" xmlns:xlink="http://www.w3.org/1999/xlink" x="0px" y="0px"
	 viewBox="0 0 512 512" style="enable-background:new 0 0 512 512;" xml:space="preserve">
<polygon style="fill:#87C241;" points="316,399.5 316,429.5 256,459.5 256,369.5 "/>
<polygon style="fill:#C3D43F;" points="286,369.5 286,459.5 196,429.5 196,399.5 "/>
<polygon style="fill:#87C241;" points="346,459.5 346,504.5 316,504.5 286,434.5 "/>
<polygon style="fill:#C8C8C8;" points="316,339.5 316,399.5 286,399.5 256,339.5 "/>
<rect x="196" y="339.5" style="fill:#E3E3E3;" width="90" height="60"/>
<polygon style="fill:#C3D43F;" points="316,434.5 316,504.5 166,504.5 166,459.5 "/>
<path style="fill:#6F6F6F;" d="M257.87,7.51L316,369.5l63.26-62.78C411.21,275.01,431,231.07,431,182.5
	C431,86.47,353.66,8.51,257.87,7.51z"/>
<path style="fill:#8C8C8C;" d="M401,182.5c0,48.57-19.86,89.92-42.87,124.22C316,369.5,316,369.5,316,369.5h-30h-90l-63.26-62.78
	C100.79,275.01,81,231.07,81,182.5c0-96.65,78.35-175,175-175c0.63,0,1.25,0,1.87,0.01C337.09,8.73,401,86.61,401,182.5z"/>
<path style="fill:#5A9F2E;" d="M316,429.5c16.5,0,30,13.5,30,30h-30l-30-30H316z"/>
<path style="fill:#87C241;" d="M316,459.5H166c0-16.5,13.5-30,30-30h90C302.5,429.5,316,443,316,459.5z"/>
<path style="fill:#E3E3E3;" d="M151,266.5c-49.626,0-90-40.374-90-90s40.374-90,90-90s90,40.374,90,90S200.626,266.5,151,266.5z"/>
<path style="fill:#87C241;" d="M151,116.5v120c33.137,0,60-26.863,60-60S184.137,116.5,151,116.5z"/>
<path style="fill:#C3D43F;" d="M181,176.5c0-33.137-13.431-60-30-60c-33.137,0-60,26.863-60,60s26.863,60,60,60
	C167.568,236.5,181,209.637,181,176.5z"/>
<path style="fill:#E3E3E3;" d="M361,266.5c-49.626,0-90-40.374-90-90s40.374-90,90-90c49.626,0,90,40.374,90,90
	S410.626,266.5,361,266.5z"/>
<path style="fill:#87C241;" d="M361,116.5v120c33.137,0,60-26.863,60-60S394.137,116.5,361,116.5z"/>
<path style="fill:#C3D43F;" d="M391,176.5c0-33.137-13.431-60-30-60c-33.137,0-60,26.863-60,60s26.863,60,60,60
	C377.568,236.5,391,209.637,391,176.5z"/>
<path d="M196,452c-4.142,0-7.5,3.357-7.5,7.5s3.358,7.5,7.5,7.5h120c4.142,0,7.5-3.357,7.5-7.5s-3.358-7.5-7.5-7.5H196z"/>
<circle cx="257.87" cy="37.51" r="7.5"/>
<circle cx="257.87" cy="67.51" r="7.5"/>
<circle cx="257.87" cy="97.51" r="7.5"/>
<path d="M151,244c37.22,0,67.5-30.28,67.5-67.5S188.219,109,151,109c-12.067,0-23.923,3.236-34.285,9.36
	c-3.566,2.107-4.749,6.707-2.642,10.272c2.108,3.566,6.706,4.749,10.272,2.642C132.398,126.516,141.615,124,151,124
	c28.949,0,52.5,23.552,52.5,52.5S179.948,229,151,229s-52.5-23.552-52.5-52.5c0-9.384,2.515-18.601,7.274-26.654
	c2.107-3.566,0.924-8.165-2.642-10.272c-3.566-2.108-8.166-0.925-10.272,2.642c-6.124,10.363-9.36,22.219-9.36,34.285
	C83.5,213.72,113.78,244,151,244z"/>
<path d="M458.5,176.5c0-32.866-16.347-61.983-41.336-79.654C385.347,37.067,323.782,0,256,0S126.653,37.067,94.836,96.846
	C69.847,114.517,53.5,143.635,53.5,176.5c0,28.853,12.602,54.815,32.587,72.682c9.296,23.682,23.2,44.827,41.373,62.86
	l61.041,60.581v50.132c-17.096,3.484-30,18.635-30,36.745v45c0,4.143,3.358,7.5,7.5,7.5h180c4.142,0,7.5-3.357,7.5-7.5v-45
	c0-18.11-12.904-33.261-30-36.745v-50.132l61.04-60.581c18.173-18.033,32.076-39.179,41.373-62.86
	C445.897,231.315,458.5,205.353,458.5,176.5z M443.5,176.5c0,45.49-37.009,82.5-82.5,82.5c-45.491,0-82.5-37.01-82.5-82.5
	S315.509,94,361,94C406.491,94,443.5,131.01,443.5,176.5z M68.5,176.5c0-45.49,37.009-82.5,82.5-82.5s82.5,37.01,82.5,82.5
	S196.491,259,151,259S68.5,221.99,68.5,176.5z M308.5,377v15h-105v-15H308.5z M203.5,422v-15h105v15H203.5z M338.5,459.5V497h-165
	v-37.5c0-12.406,10.093-22.5,22.5-22.5h120C328.407,437,338.5,447.094,338.5,459.5z M373.974,301.396L312.91,362H199.09
	l-61.065-60.605c-10.823-10.74-20.192-23.045-27.745-36.316C122.679,270.801,136.472,274,151,274c53.762,0,97.5-43.738,97.5-97.5
	S204.762,79,151,79c-10.61,0-20.828,1.71-30.398,4.858C151.86,40.868,201.76,15,256,15c54.241,0,104.141,25.868,135.398,68.858
	C381.828,80.71,371.61,79,361,79c-53.762,0-97.5,43.738-97.5,97.5S307.238,274,361,274c14.528,0,28.32-3.199,40.719-8.921
	C394.166,278.35,384.798,290.655,373.974,301.396z"/>
<path d="M326.714,118.36c-3.566,2.107-4.749,6.707-2.642,10.272c2.107,3.566,6.706,4.749,10.272,2.642
	C342.398,126.516,351.615,124,361,124c28.949,0,52.5,23.552,52.5,52.5S389.948,229,361,229s-52.5-23.552-52.5-52.5
	c0-9.384,2.515-18.601,7.274-26.654c2.107-3.566,0.924-8.165-2.642-10.272c-3.566-2.108-8.165-0.925-10.272,2.642
	c-6.124,10.363-9.36,22.219-9.36,34.285c0,37.22,30.28,67.5,67.5,67.5c37.22,0,67.5-30.28,67.5-67.5S398.219,109,361,109
	C348.933,109,337.077,112.236,326.714,118.36z"/>
<g>
</g>
<g>
</g>
<g>
</g>
<g>
</g>
<g>
</g>
<g>
</g>
<g>
</g>
<g>
</g>
<g>
</g>
<g>
</g>
<g>
</g>
<g>
</g>
<g>
</g>
<g>
</g>
<g>
</g>
</svg>
