<?xml version="1.0" encoding="iso-8859-1"?>
<!-- Generator: Adobe Illustrator 19.0.0, SVG Export Plug-In . SVG Version: 6.00 Build 0)  -->
<svg version="1.1" id="Capa_1" xmlns="http://www.w3.org/2000/svg" xmlns:xlink="http://www.w3.org/1999/xlink" x="0px" y="0px"
	 viewBox="0 0 512 512" style="enable-background:new 0 0 512 512;" xml:space="preserve">
<polygon style="fill:#5A9F2E;" points="100.819,69.37 201.8,167.68 7.499,250.58 7.499,160.65 "/>
<polygon style="fill:#005807;" points="504.5,160.65 474.5,131.306 310.199,167.678 504.5,250.58 "/>
<polygon style="fill:#2D7B1A;" points="411.179,69.37 310.199,167.68 474.5,237.78 474.5,131.306 "/>
<polygon style="fill:#5A9F2E;" points="504.5,250.58 474.5,221.234 444.5,334.516 504.5,334.516 "/>
<polygon style="fill:#87C241;" points="365.109,114.23 146.889,114.23 7.5,250.58 7.5,334.516 474.5,334.516 474.5,221.234 "/>
<polygon style="fill:#FFB9A0;" points="8.79,334.52 100.82,244.5 130.82,374.5 100.82,504.5 7.5,504.5 "/>
<polygon style="fill:#FF7240;" points="504.5,334.52 504.5,504.5 474.5,504.5 444.5,405.04 474.5,305.58 "/>
<polygon style="fill:#FF9570;" points="474.5,305.58 474.5,504.5 411.18,504.5 381.18,374.5 411.18,244.5 "/>
<polygon style="fill:#C7EFFF;" points="365.109,114.23 345.68,133.14 255.999,86.35 255.999,7.5 "/>
<polygon style="fill:#FFFFFF;" points="255.999,7.5 146.89,114.23 201.8,167.68 255.999,116.35 310.199,167.68 345.679,133.14 "/>
<polygon style="fill:#FFDCCF;" points="101.184,244.5 101.184,504.5 151,504.5 256,324.5 361,504.5 411.184,504.5 411.184,244.5 "/>
<rect x="151" y="294.5" style="fill:#AAAAAA;" width="210" height="210"/>
<polygon style="fill:#515151;" points="331,504.5 301,504.5 256,444.5 331,474.5 "/>
<polygon style="fill:#6F6F6F;" points="301,504.5 181,504.5 181,474.5 301,444.5 "/>
<polygon style="fill:#FFFFFF;" points="181,474.5 181,324.5 256,324.5 279.5,399.5 256,474.5 "/>
<polygon style="fill:#C8C8C8;" points="331,474.5 331,324.5 301,324.5 282.5,399.5 301,474.5 "/>
<rect x="256" y="324.5" style="fill:#E3E3E3;" width="45" height="150"/>
<path d="M509.744,155.286l-93.316-91.28c-2.91-2.848-7.56-2.851-10.476-0.013l-24.576,23.926c-2.968,2.89-3.032,7.638-0.143,10.605
	c2.889,2.969,7.637,3.031,10.605,0.143l19.332-18.82L497,163.803v68.95L261.243,2.139c-2.914-2.852-7.574-2.852-10.488,0L15,232.752
	v-68.949l85.829-83.956l19.334,18.822c2.968,2.889,7.717,2.825,10.605-0.143c2.89-2.968,2.825-7.716-0.143-10.605l-24.578-23.928
	c-2.917-2.84-7.566-2.835-10.476,0.013l-93.316,91.28C0.813,156.697,0,158.63,0,160.647V504.5c0,4.143,3.357,7.5,7.5,7.5h497
	c4.143,0,7.5-3.357,7.5-7.5V160.647C512,158.63,511.187,156.697,509.744,155.286z M255.999,17.991l98.368,96.222l-44.24,43.067
	l-48.97-46.378c-2.893-2.74-7.422-2.74-10.314,0l-48.971,46.378l-44.24-43.068L255.999,17.991z M146.906,124.704l49.663,48.348
	c1.455,1.416,3.343,2.126,5.231,2.126c1.854,0,3.71-0.684,5.157-2.055L256,126.678l49.041,46.445
	c2.922,2.769,7.506,2.735,10.389-0.071l49.663-48.347L497,253.735v63.126l-80.609-77.758c-0.061-0.058-0.126-0.109-0.189-0.165
	c-0.103-0.093-0.205-0.187-0.313-0.274c-0.076-0.061-0.156-0.116-0.233-0.175c-0.116-0.087-0.232-0.174-0.354-0.254
	c-0.073-0.048-0.149-0.09-0.223-0.136c-0.132-0.081-0.264-0.161-0.402-0.234c-0.067-0.036-0.138-0.066-0.206-0.099
	c-0.148-0.073-0.297-0.145-0.45-0.207c-0.065-0.026-0.132-0.047-0.197-0.072c-0.159-0.06-0.318-0.119-0.482-0.168
	c-0.073-0.022-0.148-0.037-0.222-0.057c-0.158-0.042-0.315-0.085-0.477-0.117c-0.104-0.021-0.209-0.032-0.314-0.048
	c-0.135-0.021-0.267-0.045-0.404-0.059c-0.245-0.024-0.492-0.037-0.74-0.037H100.816c-0.25,0-0.498,0.013-0.744,0.038
	c-0.146,0.014-0.288,0.041-0.432,0.063c-0.097,0.015-0.194,0.025-0.29,0.044c-0.173,0.034-0.341,0.08-0.509,0.126
	c-0.065,0.018-0.131,0.031-0.195,0.05c-0.172,0.052-0.339,0.115-0.506,0.178c-0.059,0.023-0.12,0.041-0.178,0.065
	c-0.159,0.066-0.313,0.141-0.466,0.217c-0.064,0.032-0.13,0.059-0.193,0.093c-0.142,0.075-0.278,0.159-0.414,0.243
	c-0.071,0.044-0.143,0.083-0.213,0.129c-0.126,0.084-0.246,0.175-0.367,0.266c-0.073,0.055-0.149,0.107-0.22,0.165
	c-0.117,0.095-0.226,0.197-0.337,0.299c-0.06,0.055-0.124,0.104-0.182,0.161l-0.057,0.056C95.511,239.198,15,317.953,15,317.953
	v-64.219L146.906,124.704z M15,338.935l78.316-76.607V414.5c0,4.143,3.357,7.5,7.5,7.5s7.5-3.357,7.5-7.5V252h295.367v245H368.5
	V294.5c0-4.143-3.357-7.5-7.5-7.5H151c-4.143,0-7.5,3.357-7.5,7.5V497h-35.184v-52.5c0-4.143-3.357-7.5-7.5-7.5s-7.5,3.357-7.5,7.5
	V497H15V338.935z M316,452h7.5v15h-60v-60h60v30H316c-4.143,0-7.5,3.357-7.5,7.5S311.857,452,316,452z M188.5,467v-15h7.5
	c4.143,0,7.5-3.357,7.5-7.5s-3.357-7.5-7.5-7.5h-7.5v-30h60v60H188.5z M158.5,362h15v75h-15V362z M196,347h-7.5v-15h60v60h-60v-30
	h7.5c4.143,0,7.5-3.357,7.5-7.5S200.143,347,196,347z M323.5,332v15H316c-4.143,0-7.5,3.357-7.5,7.5s3.357,7.5,7.5,7.5h7.5v30h-60
	v-60H323.5z M338.5,362h15v75h-15V362z M353.5,347h-15v-22.5c0-4.143-3.357-7.5-7.5-7.5H181c-4.143,0-7.5,3.357-7.5,7.5V347h-15v-45
	h195V347z M158.5,452h15v45h-15V452z M188.5,482h135v15h-135V482z M338.5,452h15v45h-15V452z M418.684,497V262.155L497,337.701V497
	H418.684z"/>
<g>
</g>
<g>
</g>
<g>
</g>
<g>
</g>
<g>
</g>
<g>
</g>
<g>
</g>
<g>
</g>
<g>
</g>
<g>
</g>
<g>
</g>
<g>
</g>
<g>
</g>
<g>
</g>
<g>
</g>
</svg>
