<?xml version="1.0" encoding="iso-8859-1"?>
<!-- Generator: Adobe Illustrator 19.0.0, SVG Export Plug-In . SVG Version: 6.00 Build 0)  -->
<svg version="1.1" id="Capa_1" xmlns="http://www.w3.org/2000/svg" xmlns:xlink="http://www.w3.org/1999/xlink" x="0px" y="0px"
	 viewBox="0 0 511.999 511.999" style="enable-background:new 0 0 511.999 511.999;" xml:space="preserve">
<path style="fill:#E52C20;" d="M378.28,140.239l-45.16-104.97l-15.03,6.3L256,227.499l135-30
	C391,177.029,386.43,157.619,378.28,140.239z"/>
<path style="fill:#F25031;" d="M361,197.499l-105,30l-135-30c0-20.47,4.57-39.88,12.73-57.26l45.15-104.97l34.49,14.45L256,7.499
	l42.63,42.22l19.46-8.15l33.01,98.67C357.45,157.619,361,177.029,361,197.499z"/>
<path style="fill:#FFE73D;" d="M308.69,144.129L256,91.949v135.55l75-30C331,177.309,323.09,158.369,308.69,144.129z"/>
<path style="fill:#FFF39E;" d="M301,197.499l-45,30l-75-30c0-20.19,7.91-39.13,22.28-53.33L256,91.949l31.61,52.18
	C296.25,158.369,301,177.309,301,197.499z"/>
<polygon style="fill:#6F6F6F;" points="406,257.5 346,287.5 376,197.5 406,197.5 "/>
<polygon style="fill:#8C8C8C;" points="376,287.5 106,257.5 106,197.5 376,197.5 "/>
<polygon style="fill:#6F6F6F;" points="406,444.5 346,414.5 376,504.5 406,504.5 "/>
<polygon style="fill:#8C8C8C;" points="376,414.5 106,444.5 106,504.5 376,504.5 "/>
<polygon style="fill:#515151;" points="406,444.5 406,257.5 376,257.5 357.5,351 376,444.5 "/>
<rect x="106" y="257.5" style="fill:#6F6F6F;" width="270" height="187"/>
<polygon style="fill:#E52C20;" points="406,337.5 406,287.5 376,287.5 346,337.5 "/>
<polygon style="fill:#F25031;" points="376,337.5 299,317.5 299,287.5 376,287.5 "/>
<polygon style="fill:#FCD10F;" points="406,367.5 406,317.5 376,317.5 357.5,342.5 376,367.5 "/>
<rect x="299" y="317.5" style="fill:#FFE73D;" width="77" height="50"/>
<path d="M413.5,265h2.5c4.143,0,7.5-3.357,7.5-7.5s-3.357-7.5-7.5-7.5h-2.5v-45h2.5c4.143,0,7.5-3.357,7.5-7.5s-3.357-7.5-7.5-7.5
	h-17.696c-0.944-18.389-5.364-36.129-13.187-52.834l-45.104-104.86c-1.626-3.779-5.99-5.545-9.787-3.954l-29.88,12.516
	L261.278,2.171c-2.924-2.895-7.633-2.895-10.557,0l-39.067,38.696l-29.88-12.516c-3.79-1.589-8.161,0.174-9.787,3.954
	l-45.104,104.858c-7.822,16.708-12.244,34.448-13.188,52.836H96c-4.143,0-7.5,3.357-7.5,7.5s3.357,7.5,7.5,7.5h2.5v45H96
	c-4.143,0-7.5,3.357-7.5,7.5s3.357,7.5,7.5,7.5h2.5v172H96c-4.143,0-7.5,3.357-7.5,7.5s3.357,7.5,7.5,7.5h2.5v45H96
	c-4.143,0-7.5,3.357-7.5,7.5s3.357,7.5,7.5,7.5h320c4.143,0,7.5-3.357,7.5-7.5s-3.357-7.5-7.5-7.5h-2.5v-45h2.5
	c4.143,0,7.5-3.357,7.5-7.5s-3.357-7.5-7.5-7.5h-2.5V265z M398.5,310h-92v-15h92V310z M306.5,325h92v35h-92V325z M140.516,143.424
	c0.034-0.073,0.067-0.147,0.1-0.222l42.216-98.146l27.646,11.58c2.795,1.169,6.022,0.544,8.176-1.589L256,18.057l37.347,36.991
	c2.154,2.133,5.38,2.758,8.176,1.589l27.646-11.58l42.217,98.147c0.032,0.074,0.065,0.148,0.1,0.222
	c6.912,14.729,10.865,30.365,11.795,46.574h-45.13c-1.735-19.367-10.161-37.327-24.185-51.194L261.277,86.62
	c-2.922-2.895-7.633-2.895-10.555,0l-52.721,52.217c-14.006,13.849-22.42,31.797-24.153,51.163H128.72
	C129.651,173.791,133.604,158.156,140.516,143.424z M323.076,190H188.923c1.683-15.322,8.495-29.491,19.629-40.501L256,102.505
	l47.415,46.963C314.567,160.494,321.39,174.676,323.076,190z M398.5,497h-285v-45h285V497z M113.5,437V265H136
	c4.143,0,7.5-3.357,7.5-7.5s-3.357-7.5-7.5-7.5h-22.5v-45h285v45H166c-4.143,0-7.5,3.357-7.5,7.5s3.357,7.5,7.5,7.5h232.5v15H299
	c-4.143,0-7.5,3.357-7.5,7.5v80c0,4.143,3.357,7.5,7.5,7.5h99.5v62H113.5z"/>
<circle cx="196" cy="474.5" r="7.5"/>
<circle cx="166" cy="474.5" r="7.5"/>
<circle cx="136" cy="474.5" r="7.5"/>
<circle cx="286" cy="474.5" r="7.5"/>
<circle cx="256" cy="474.5" r="7.5"/>
<circle cx="226" cy="474.5" r="7.5"/>
<circle cx="376" cy="474.5" r="7.5"/>
<circle cx="346" cy="474.5" r="7.5"/>
<circle cx="316" cy="474.5" r="7.5"/>
<circle cx="196" cy="227.5" r="7.5"/>
<circle cx="166" cy="227.5" r="7.5"/>
<circle cx="136" cy="227.5" r="7.5"/>
<circle cx="286" cy="227.5" r="7.5"/>
<circle cx="256" cy="227.5" r="7.5"/>
<circle cx="226" cy="227.5" r="7.5"/>
<circle cx="376" cy="227.5" r="7.5"/>
<circle cx="346" cy="227.5" r="7.5"/>
<circle cx="316" cy="227.5" r="7.5"/>
<g>
</g>
<g>
</g>
<g>
</g>
<g>
</g>
<g>
</g>
<g>
</g>
<g>
</g>
<g>
</g>
<g>
</g>
<g>
</g>
<g>
</g>
<g>
</g>
<g>
</g>
<g>
</g>
<g>
</g>
</svg>
