<?xml version="1.0" encoding="iso-8859-1"?>
<!-- Generator: Adobe Illustrator 19.0.0, SVG Export Plug-In . SVG Version: 6.00 Build 0)  -->
<svg version="1.1" id="Capa_1" xmlns="http://www.w3.org/2000/svg" xmlns:xlink="http://www.w3.org/1999/xlink" x="0px" y="0px"
	 viewBox="0 0 512 512" style="enable-background:new 0 0 512 512;" xml:space="preserve">
<polygon style="fill:#6F6F6F;" points="384.5,376 324.5,376 324.5,286 384.5,316 "/>
<rect x="97.5" y="286" style="fill:#8C8C8C;" width="257" height="90"/>
<path style="fill:#E3E3E3;" d="M414.5,346h-347c-33.137,0-60,26.863-60,60s26.863,60,60,60h347c33.137,0,60-26.863,60-60
	S447.637,346,414.5,346z"/>
<rect x="67.5" y="376" style="fill:#5A9F2E;" width="347" height="60"/>
<path style="fill:#87C241;" d="M67.5,376v60c16.568,0,30-13.431,30-30C97.5,389.432,84.068,376,67.5,376z"/>
<path style="fill:#C3D43F;" d="M77.5,406c0-16.568-4.477-30-10-30c-16.568,0-30,13.431-30,30c0,16.568,13.431,30,30,30
	C73.022,436,77.5,422.568,77.5,406z"/>
<path style="fill:#87C241;" d="M414.5,376v60c16.568,0,30-13.431,30-30C444.5,389.432,431.069,376,414.5,376z"/>
<path style="fill:#C3D43F;" d="M424.5,406c0-16.568-4.477-30-10-30c-16.568,0-30,13.431-30,30c0,16.568,13.431,30,30,30
	C420.023,436,424.5,422.568,424.5,406z"/>
<polygon style="fill:#C8C8C8;" points="206,106 149,106 179.5,46 206,46 "/>
<rect x="142.5" y="46" style="fill:#E3E3E3;" width="37" height="60"/>
<polygon style="fill:#6F6F6F;" points="504.5,156 504.5,126 474.5,126 456,141 474.5,156 "/>
<rect x="369.5" y="126" style="fill:#8C8C8C;" width="105" height="30"/>
<polygon style="fill:#C8C8C8;" points="384.5,316 384.5,236 324.5,236 354.5,316 "/>
<polygon style="fill:#E3E3E3;" points="354.5,316 354.5,236 294.5,236 324.5,316 "/>
<polygon style="fill:#5A9F2E;" points="324.5,316 324.5,236 157.5,234.852 187.5,316 "/>
<polygon style="fill:#87C241;" points="384.5,256 384.5,146 324.5,146 354.5,256 "/>
<rect x="157.5" y="146" style="fill:#C3D43F;" width="197" height="110"/>
<polygon style="fill:#C8C8C8;" points="399.5,166 399.5,116 369.5,116 351,141 369.5,166 "/>
<polygon style="fill:#E3E3E3;" points="369.5,166 369.5,116 254.5,116 344.5,166 "/>
<polygon style="fill:#5A9F2E;" points="67.5,316 7.5,256 87.5,226 "/>
<polygon style="fill:#C3D43F;" points="67.5,256 7.5,256 7.5,166 87.5,146 "/>
<polygon style="fill:#8C8C8C;" points="157.5,316 187.5,316 187.5,146 127.5,146 "/>
<rect x="67.5" y="146" style="fill:#AAAAAA;" width="90" height="170"/>
<path style="fill:#87C241;" d="M224.5,76h-30l30,60h30v-30C254.5,89.5,241,76,224.5,76z"/>
<path style="fill:#C3D43F;" d="M194.5,76h-67c-16.5,0-30,13.5-30,30v30h127v-30C224.5,89.5,211,76,194.5,76z"/>
<polygon style="fill:#5A9F2E;" points="284.5,106 67.5,106 7.5,166 344.5,166 "/>
<polygon style="fill:#E3E3E3;" points="157.5,226 157.5,196 127.5,196 109,211 127.5,226 "/>
<rect x="97.5" y="196" style="fill:#FFFFFF;" width="30" height="30"/>
<circle cx="354.5" cy="286" r="7.5"/>
<path d="M157.5,248.5h-60c-4.142,0-7.5,3.357-7.5,7.5s3.358,7.5,7.5,7.5h60c4.142,0,7.5-3.357,7.5-7.5S161.642,248.5,157.5,248.5z"
	/>
<path d="M504.5,118.5H407V116c0-4.143-3.358-7.5-7.5-7.5H297.607l-7.804-7.804c-1.406-1.406-3.314-2.196-5.303-2.196h-23.255
	c-3.484-17.096-18.635-30-36.745-30H217v-15h67.5c4.142,0,7.5-3.357,7.5-7.5s-3.358-7.5-7.5-7.5h-157c-4.142,0-7.5,3.357-7.5,7.5
	s3.358,7.5,7.5,7.5h7.5v15h-7.5c-18.11,0-33.261,12.904-36.745,30H67.5c-1.989,0-3.897,0.79-5.303,2.196l-60,60
	C0.79,162.104,0,164.011,0,166v90c0,1.989,0.79,3.896,2.197,5.304l60,60c1.406,1.406,3.314,2.196,5.303,2.196H90v15H67.5
	C30.28,338.5,0,368.78,0,406s30.28,67.5,67.5,67.5h347c37.22,0,67.5-30.28,67.5-67.5s-30.28-67.5-67.5-67.5H392v-165h7.5
	c4.142,0,7.5-3.357,7.5-7.5v-2.5h97.5c4.142,0,7.5-3.357,7.5-7.5v-30C512,121.857,508.642,118.5,504.5,118.5z M150,53.5h52v15h-52
	V53.5z M127.5,83.5h97c9.777,0,18.114,6.271,21.21,15H106.29C109.386,89.771,117.723,83.5,127.5,83.5z M70.606,113.5h210.787l45,45
	H25.606L70.606,113.5z M75,308.5v-52.49c0-0.02,0-82.51,0-82.51h105v135H75z M60,248.5H15v-75h45V248.5z M60,263.5v34.394
	L25.606,263.5H60z M467,406c0,28.948-23.551,52.5-52.5,52.5h-347C38.551,458.5,15,434.948,15,406s23.551-52.5,52.5-52.5h347
	C443.449,353.5,467,377.052,467,406z M105,338.5v-15h272v15H105z M377,263.5v45h-45v-45H377z M377,248.5H217.5
	c-4.142,0-7.5,3.357-7.5,7.5s3.358,7.5,7.5,7.5H317v45H195v-135h182V248.5z M392,158.5h-44.393l-35-35H392V158.5z M497,148.5h-90
	v-15h90V148.5z"/>
<path d="M157.5,188.5h-60c-4.142,0-7.5,3.357-7.5,7.5v30c0,4.143,3.358,7.5,7.5,7.5h60c4.142,0,7.5-3.357,7.5-7.5v-30
	C165,191.857,161.642,188.5,157.5,188.5z M150,218.5h-45v-15h45V218.5z"/>
<path d="M30,406c0,20.678,16.822,37.5,37.5,37.5h242c4.142,0,7.5-3.357,7.5-7.5s-3.358-7.5-7.5-7.5H97.48
	c4.719-6.272,7.52-14.064,7.52-22.5s-2.801-16.228-7.52-22.5h287.04c-4.719,6.272-7.52,14.064-7.52,22.5s2.801,16.228,7.52,22.5
	H339.5c-4.142,0-7.5,3.357-7.5,7.5s3.358,7.5,7.5,7.5h75c20.678,0,37.5-16.822,37.5-37.5s-16.822-37.5-37.5-37.5h-347
	C46.822,368.5,30,385.322,30,406z M90,406c0,12.406-10.093,22.5-22.5,22.5S45,418.406,45,406s10.093-22.5,22.5-22.5
	S90,393.594,90,406z M437,406c0,12.406-10.093,22.5-22.5,22.5S392,418.406,392,406s10.093-22.5,22.5-22.5S437,393.594,437,406z"/>
<g>
</g>
<g>
</g>
<g>
</g>
<g>
</g>
<g>
</g>
<g>
</g>
<g>
</g>
<g>
</g>
<g>
</g>
<g>
</g>
<g>
</g>
<g>
</g>
<g>
</g>
<g>
</g>
<g>
</g>
</svg>
