<?xml version="1.0" encoding="iso-8859-1"?>
<!-- Generator: Adobe Illustrator 19.0.0, SVG Export Plug-In . SVG Version: 6.00 Build 0)  -->
<svg version="1.1" id="Capa_1" xmlns="http://www.w3.org/2000/svg" xmlns:xlink="http://www.w3.org/1999/xlink" x="0px" y="0px"
	 viewBox="0 0 512 512" style="enable-background:new 0 0 512 512;" xml:space="preserve">
<path style="fill:#FFE73D;" d="M346,335.12V504.5h30c16.5,0,30-13.5,30-30V335.12H346z"/>
<path style="fill:#FFF39E;" d="M106,315.12V474.5c0,16.5,13.5,30,30,30h210c16.5,0,30-13.5,30-30v-40
	C376,434.5,113.6,321,106,315.12z"/>
<polygon style="fill:#515151;" points="136,344.5 136,434.5 166,434.5 186,324.5 "/>
<polygon style="fill:#363636;" points="326,324.5 346,434.5 376,434.5 376,344.5 "/>
<path style="fill:#FFF39E;" d="M256,7.5l127.215,337H406c26.125,0,47.5-21.375,47.5-47.5v-92C453.5,95.924,365.076,7.5,256,7.5z"/>
<path style="fill:#FFFFFF;" d="M423.5,297v-92C423.5,95.924,348.508,7.5,256,7.5C146.924,7.5,58.5,95.924,58.5,205v92
	c0,26.125,21.375,47.5,47.5,47.5h60v40l90,25l90-25v-40h37.215C405.372,344.5,423.5,323.125,423.5,297z"/>
<polygon style="fill:#FFE73D;" points="346,384.5 346,409.5 316,419.5 306,402 316,384.5 "/>
<polygon style="fill:#FFF39E;" points="316,384.5 316,409.5 286,419.5 276,402 286,384.5 "/>
<polygon style="fill:#FFE73D;" points="286,384.5 286,409.5 256,419.5 246,402 256,384.5 "/>
<polygon style="fill:#FFF39E;" points="256,384.5 256,409.5 226,419.5 216,402 226,384.5 "/>
<polygon style="fill:#FFE73D;" points="226,384.5 226,409.5 196,419.5 186,402 196,384.5 "/>
<polygon style="fill:#FFF39E;" points="196,384.5 196,409.5 183.5,418 166,409.5 166,384.5 "/>
<polygon style="fill:#FCD10F;" points="346,409.5 346,434.5 316,434.5 306,422 316,409.5 "/>
<polygon style="fill:#FFE73D;" points="316,409.5 316,434.5 286,434.5 276,422 286,409.5 "/>
<polygon style="fill:#FCD10F;" points="286,409.5 286,434.5 256,434.5 246,422 256,409.5 "/>
<polygon style="fill:#FFE73D;" points="256,409.5 256,434.5 226,434.5 216,422 226,409.5 "/>
<polygon style="fill:#FCD10F;" points="226,409.5 226,434.5 196,434.5 186,422 196,409.5 "/>
<rect x="166" y="409.5" style="fill:#FFE73D;" width="30" height="25"/>
<path style="fill:#363636;" d="M163.5,168.5v100c27.61,0,50-22.39,50-50S191.11,168.5,163.5,168.5z"/>
<path style="fill:#515151;" d="M163.5,168.5c11.05,0,20,22.39,20,50s-8.95,50-20,50c-27.61,0-50-22.39-50-50
	S135.89,168.5,163.5,168.5z"/>
<path style="fill:#363636;" d="M348.5,168.5v100c27.61,0,50-22.39,50-50S376.11,168.5,348.5,168.5z"/>
<path style="fill:#515151;" d="M348.5,168.5c11.05,0,20,22.39,20,50s-8.95,50-20,50c-27.61,0-50-22.39-50-50
	S320.89,168.5,348.5,168.5z"/>
<path style="fill:#363636;" d="M256,76.5v100c27.61,0,50-22.39,50-50S283.61,76.5,256,76.5z"/>
<g>
	<path style="fill:#515151;" d="M256,76.5c11.05,0,20,22.39,20,50s-8.95,50-20,50c-27.61,0-50-22.39-50-50S228.39,76.5,256,76.5z"/>
	<path style="fill:#515151;" d="M290.18,324.65c0.52,1.52,0.82,3.15,0.82,4.85c0,8.28-6.72,15-15,15h-20L236,310l20-43.5
		c8.78,0,16.22,5.66,18.91,13.53L290.18,324.65z"/>
</g>
<path style="fill:#6F6F6F;" d="M256,266.5v78h-20c-8.28,0-15-6.72-15-15c0-1.7,0.3-3.33,0.82-4.85l15.27-44.62
	C239.78,272.16,247.22,266.5,256,266.5z"/>
<path d="M163.5,161c-31.706,0-57.5,25.794-57.5,57.5s25.794,57.5,57.5,57.5s57.5-25.794,57.5-57.5S195.206,161,163.5,161z
	 M163.5,261c-23.435,0-42.5-19.065-42.5-42.5s19.065-42.5,42.5-42.5s42.5,19.065,42.5,42.5S186.935,261,163.5,261z"/>
<path d="M348.5,161c-31.706,0-57.5,25.794-57.5,57.5s25.794,57.5,57.5,57.5s57.5-25.794,57.5-57.5S380.206,161,348.5,161z
	 M348.5,261c-23.435,0-42.5-19.065-42.5-42.5s19.065-42.5,42.5-42.5s42.5,19.065,42.5,42.5S371.935,261,348.5,261z"/>
<path d="M256,184c31.706,0,57.5-25.794,57.5-57.5S287.706,69,256,69s-57.5,25.794-57.5,57.5S224.294,184,256,184z M256,84
	c23.435,0,42.5,19.065,42.5,42.5S279.435,169,256,169s-42.5-19.065-42.5-42.5S232.565,84,256,84z"/>
<path d="M282.004,277.6C278.196,266.475,267.746,259,256,259s-22.196,7.475-26.004,18.6l-15.272,44.616
	c-0.812,2.369-1.223,4.819-1.223,7.284c0,12.406,10.093,22.5,22.5,22.5h5c4.142,0,7.5-3.357,7.5-7.5s-3.358-7.5-7.5-7.5h-5
	c-4.136,0-7.5-3.364-7.5-7.5c0-0.807,0.139-1.622,0.414-2.425l15.273-44.618c1.73-5.059,6.478-8.457,11.812-8.457
	c5.334,0,10.082,3.398,11.813,8.457l15.273,44.62c0.274,0.801,0.414,1.616,0.414,2.423c0,4.136-3.364,7.5-7.5,7.5h-5
	c-4.142,0-7.5,3.357-7.5,7.5s3.358,7.5,7.5,7.5h5c12.407,0,22.5-10.094,22.5-22.5c0-2.465-0.412-4.915-1.223-7.282L282.004,277.6z"
	/>
<path d="M256,0C142.962,0,51,91.963,51,205v92c0,27.782,20.71,50.804,47.5,54.475V474.5c0,20.678,16.822,37.5,37.5,37.5h240
	c20.678,0,37.5-16.822,37.5-37.5V351.475C440.29,347.804,461,324.782,461,297v-92C461,91.963,369.038,0,256,0z M376,497H136
	c-12.407,0-22.5-10.094-22.5-22.5V352h45v75h-15v-52.5c0-4.143-3.358-7.5-7.5-7.5s-7.5,3.357-7.5,7.5v60c0,4.143,3.358,7.5,7.5,7.5
	h30c4.142,0,7.5-3.357,7.5-7.5V417h15v17.5c0,4.143,3.358,7.5,7.5,7.5s7.5-3.357,7.5-7.5V417h15v17.5c0,4.143,3.358,7.5,7.5,7.5
	s7.5-3.357,7.5-7.5V417h15v17.5c0,4.143,3.358,7.5,7.5,7.5s7.5-3.357,7.5-7.5V417h15v17.5c0,4.143,3.358,7.5,7.5,7.5
	s7.5-3.357,7.5-7.5V417h15v17.5c0,4.143,3.358,7.5,7.5,7.5s7.5-3.357,7.5-7.5V417h15v17.5c0,4.143,3.358,7.5,7.5,7.5h30
	c4.142,0,7.5-3.357,7.5-7.5v-60c0-4.143-3.358-7.5-7.5-7.5s-7.5,3.357-7.5,7.5V427h-15v-75h45v122.5
	C398.5,486.906,388.407,497,376,497z M446,297c0,22.056-17.944,40-40,40h-60c-4.142,0-7.5,3.357-7.5,7.5V402h-15v-17.5
	c0-4.143-3.358-7.5-7.5-7.5s-7.5,3.357-7.5,7.5V402h-15v-17.5c0-4.143-3.358-7.5-7.5-7.5s-7.5,3.357-7.5,7.5V402h-15v-17.5
	c0-4.143-3.358-7.5-7.5-7.5s-7.5,3.357-7.5,7.5V402h-15v-17.5c0-4.143-3.358-7.5-7.5-7.5s-7.5,3.357-7.5,7.5V402h-15v-17.5
	c0-4.143-3.358-7.5-7.5-7.5s-7.5,3.357-7.5,7.5V402h-15v-57.5c0-4.143-3.358-7.5-7.5-7.5h-60c-22.056,0-40-17.944-40-40v-92
	c0-104.767,85.234-190,190-190s190,85.233,190,190V297z"/>
<g>
</g>
<g>
</g>
<g>
</g>
<g>
</g>
<g>
</g>
<g>
</g>
<g>
</g>
<g>
</g>
<g>
</g>
<g>
</g>
<g>
</g>
<g>
</g>
<g>
</g>
<g>
</g>
<g>
</g>
</svg>
