<?xml version="1.0" encoding="iso-8859-1"?>
<!-- Generator: Adobe Illustrator 19.0.0, SVG Export Plug-In . SVG Version: 6.00 Build 0)  -->
<svg version="1.1" id="Capa_1" xmlns="http://www.w3.org/2000/svg" xmlns:xlink="http://www.w3.org/1999/xlink" x="0px" y="0px"
	 viewBox="0 0 512 512" style="enable-background:new 0 0 512 512;" xml:space="preserve">
<path style="fill:#FFB9A0;" d="M121,162.5c-22.091,0-40,17.909-40,40s17.909,40,40,40h135v-80H121z"/>
<path style="fill:#FF9570;" d="M391,162.5H256v80h135c22.092,0,40-17.909,40-40S413.092,162.5,391,162.5z"/>
<path style="fill:#FFB9A0;" d="M328.468,28.583H256V329.25l45.449,39.353C352.978,355.126,391,308.254,391,252.5v-110
	C391,94.611,366.063,52.549,328.468,28.583z"/>
<path style="fill:#FFDCCF;" d="M326.542,42.505L188.5,27.5v-1.935C148.15,48.907,121,92.532,121,142.5v100l89.559,126.1
	c9.722,2.542,19.923,3.9,30.441,3.9h30.006c10.519,0,20.719-1.358,30.441-3.9L346,282.5l13.678-12.158
	C360.546,264.52,361,258.563,361,252.5v-110C361,102.855,347.708,67.202,326.542,42.505z"/>
<g>
	<path style="fill:#363636;" d="M211,162.5h-30v60h30c16.57,0,30-13.43,30-30S227.57,162.5,211,162.5z"/>
	<path style="fill:#363636;" d="M331,162.5h-30v60h30c16.57,0,30-13.43,30-30S347.57,162.5,331,162.5z"/>
</g>
<g>
	<circle style="fill:#515151;" cx="181" cy="192.5" r="30"/>
	<circle style="fill:#515151;" cx="301" cy="192.5" r="30"/>
</g>
<path style="fill:#FFB9A0;" d="M121,242.5v10c0,55.756,38.027,102.625,89.559,116.1L166,282.5L121,242.5z"/>
<path style="fill:#363636;" d="M258.873,7.552l67.661,34.943c1.171-4.485,1.847-9.136,1.934-13.912
	C308.286,15.718,284.452,8.087,258.873,7.552z"/>
<g>
	<path style="fill:#515151;" d="M258.873,7.552C257.916,7.532,256.962,7.5,256,7.5c-24.59,0-47.643,6.578-67.5,18.065V27.5
		c0,37.279,30.221,67.5,67.5,67.5c32.123,0,62.689-22.446,70.534-52.505C308.554,21.52,284.894,8.451,258.873,7.552z"/>
	<path style="fill:#515151;" d="M450.769,412.5h-30l53.731,92h30v-32C504.5,441.616,480.851,415.66,450.769,412.5z"/>
</g>
<g>
	<path style="fill:#6F6F6F;" d="M420.769,412.5H391l-30,46l30,46h83.5v-32C474.5,441.616,450.851,415.66,420.769,412.5z"/>
	<path style="fill:#6F6F6F;" d="M67.5,412.5c-33,0-60,27-60,60v32H121l30-46l-30-46H67.5z"/>
</g>
<polygon style="fill:#FFFFFF;" points="286,412.5 256,442.5 226,412.5 151,412.5 151,474.5 216,504.5 256,484.5 296,504.5 
	361,474.5 361,412.5 "/>
<polygon style="fill:#515151;" points="216,504.5 121,504.5 121,412.5 151,412.5 "/>
<polygon style="fill:#363636;" points="361,412.5 341,458.5 361,504.5 391,504.5 391,412.5 "/>
<g>
	<polygon style="fill:#515151;" points="296,504.5 361,504.5 361,412.5 	"/>
	<polygon style="fill:#515151;" points="226,412.5 236,452.5 256,472.5 276,452.5 286,412.5 	"/>
</g>
<polygon style="fill:#363636;" points="276,452.5 236,452.5 216,504.5 296,504.5 "/>
<path d="M256,310c-4.142,0-7.5,3.357-7.5,7.5v10c0,4.143,3.358,7.5,7.5,7.5c4.143,0,7.5-3.357,7.5-7.5v-10
	C263.5,313.357,260.143,310,256,310z"/>
<path d="M286,275h-60c-4.142,0-7.5,3.357-7.5,7.5s3.358,7.5,7.5,7.5h60c4.143,0,7.5-3.357,7.5-7.5S290.143,275,286,275z"/>
<path d="M113.5,249.408v3.092c0,70.304,57.196,127.5,127.5,127.5h30c70.304,0,127.5-57.196,127.5-127.5v-3.092
	c22.641-3.606,40-23.267,40-46.908c0-23.639-17.36-43.295-40-46.902V142.5c0-50.131-26.024-94.294-65.268-119.702
	c-0.472-0.389-0.993-0.72-1.552-0.986C309.737,8.002,283.787,0,256,0c-78.575,0-142.5,63.925-142.5,142.5v13.098
	c-22.64,3.607-40,23.263-40,46.902C73.5,226.141,90.859,245.802,113.5,249.408z M320.691,32.672
	C317.625,62.333,288.497,87.5,256,87.5c-32.247,0-58.622-25.575-59.937-57.505C213.941,20.432,234.347,15,256,15
	C279.598,15,301.714,21.452,320.691,32.672z M113.5,170.883V187.5c0,4.143,3.358,7.5,7.5,7.5s7.5-3.357,7.5-7.5v-45
	c0-42.671,21.073-80.509,53.357-103.665c5.48,35.996,36.64,63.665,74.143,63.665c19.695,0,39.678-7.773,54.825-21.327
	c12.224-10.938,20.31-24.524,23.546-39.173c29.883,23.355,49.129,59.721,49.129,100.5v45c0,4.143,3.357,7.5,7.5,7.5
	s7.5-3.357,7.5-7.5v-16.617c14.315,3.396,25,16.278,25,31.617s-10.685,28.221-25,31.617V217.5c0-4.143-3.357-7.5-7.5-7.5
	s-7.5,3.357-7.5,7.5v21.632l-42.482,37.762c-0.688,0.61-1.256,1.342-1.679,2.158l-22.146,42.794
	c-1.903,3.679-0.465,8.204,3.214,10.108c1.103,0.57,2.28,0.841,3.441,0.841c2.714,0,5.333-1.479,6.667-4.055l21.507-41.56
	l31.261-27.787C379.707,318.228,330.716,365,271,365h-30c-59.717,0-108.707-46.772-112.282-105.605l31.26,27.787l21.513,41.569
	c1.333,2.576,3.953,4.055,6.667,4.055c1.161,0,2.339-0.271,3.441-0.841c3.679-1.904,5.117-6.43,3.213-10.108l-22.152-42.804
	c-0.422-0.816-0.991-1.548-1.678-2.158L128.5,239.132V217.5c0-4.143-3.358-7.5-7.5-7.5s-7.5,3.357-7.5,7.5v16.617
	c-14.315-3.396-25-16.278-25-31.617S99.185,174.279,113.5,170.883z"/>
<path d="M181,230h30c18.11,0,33.261-12.904,36.745-30h16.509c3.484,17.096,18.635,30,36.745,30h30c20.678,0,37.5-16.822,37.5-37.5
	S351.678,155,331,155H181c-20.678,0-37.5,16.822-37.5,37.5S160.322,230,181,230z M301,170h30c12.406,0,22.5,10.094,22.5,22.5
	S343.406,215,331,215h-30c-12.406,0-22.5-10.094-22.5-22.5S288.594,170,301,170z M271.018,170c-3.281,4.362-5.632,9.462-6.76,15
	h-16.514c-1.129-5.538-3.479-10.638-6.76-15H271.018z M181,170h30c12.407,0,22.5,10.094,22.5,22.5S223.407,215,211,215h-30
	c-12.407,0-22.5-10.094-22.5-22.5S168.593,170,181,170z"/>
<path d="M494.47,427.23c-10.699-11.794-25.058-19.4-40.641-21.579c-0.935-0.419-1.971-0.651-3.061-0.651H67.5
	C30.28,405,0,435.28,0,472.5v32c0,4.143,3.358,7.5,7.5,7.5h208.455c0.069,0,80.021,0,80.021,0c0.069,0,208.524,0,208.524,0
	c4.143,0,7.5-3.357,7.5-7.5v-32C512,455.768,505.774,439.69,494.47,427.23z M220.144,420l8.005,32.02l-14.115,36.7L165.482,420
	H220.144z M270.144,445h-28.288l-6.25-25h40.788L270.144,445z M241.151,460h29.698l14.231,37h-58.16L241.151,460z M283.851,452.02
	l8.005-32.02h54.662l-48.552,68.72L283.851,452.02z M15,472.5c0-28.948,23.551-52.5,52.5-52.5h46v54.5c0,4.143,3.358,7.5,7.5,7.5
	s7.5-3.357,7.5-7.5V420h18.616l54.402,77H15V472.5z M497,497H310.482l54.402-77H383.5v54.5c0,4.143,3.357,7.5,7.5,7.5
	s7.5-3.357,7.5-7.5V420h50.062c0.456,0.14,0.933,0.238,1.423,0.29C476.349,423.061,497,445.994,497,472.5V497z"/>
<g>
</g>
<g>
</g>
<g>
</g>
<g>
</g>
<g>
</g>
<g>
</g>
<g>
</g>
<g>
</g>
<g>
</g>
<g>
</g>
<g>
</g>
<g>
</g>
<g>
</g>
<g>
</g>
<g>
</g>
</svg>
