<?xml version="1.0" encoding="iso-8859-1"?>
<!-- Generator: Adobe Illustrator 19.0.0, SVG Export Plug-In . SVG Version: 6.00 Build 0)  -->
<svg version="1.1" id="Capa_1" xmlns="http://www.w3.org/2000/svg" xmlns:xlink="http://www.w3.org/1999/xlink" x="0px" y="0px"
	 viewBox="0 0 512 512" style="enable-background:new 0 0 512 512;" xml:space="preserve">
<path style="fill:#5A9F2E;" d="M256,37.5l-180,132v30l180,305c39.35,0,73.631-25.203,88.053-59.3l55.476-142.59l23.289-23.289
	C430.963,271.178,436,259.928,436,247.5v-78L256,37.5z"/>
<path style="fill:#87C241;" d="M324.486,445.2l43.148-142.59l18.114-23.289C392.083,271.178,396,259.928,396,247.5v-48H76v48
	c0,12.428,5.037,23.678,13.182,31.821l23.289,23.289l55.476,142.59c14.422,34.097,48.703,59.3,88.053,59.3
	C286.606,504.5,313.269,479.297,324.486,445.2z"/>
<path style="fill:#E52C20;" d="M436,169.5h-30L256,59.49l163.82,50.01C428.14,140.17,436,169.5,436,169.5z"/>
<g>
	<path style="fill:#F25031;" d="M419.82,109.5h-30L331,9.4c4.8-1.24,9.82-1.9,15-1.9c27.09,0,50.32,17.86,57.44,42.62
		C407.1,62.85,413.59,86.56,419.82,109.5z"/>
	<path style="fill:#F25031;" d="M389.82,109.5c8.32,30.67,16.18,60,16.18,60H76c0,0,7.86-29.33,16.18-60L256,59.489L389.82,109.5z"
		/>
</g>
<path style="fill:#FF7240;" d="M373.44,50.12c3.65,12.73,10.15,36.43,16.38,59.38H92.18c6.23-22.94,12.72-46.65,16.38-59.38
	C115.68,25.36,138.91,7.5,166,7.5c5.37,0,10.58,0.71,15.53,2.03L256,29.49l74.47-19.96c0.17-0.05,0.35-0.09,0.53-0.13
	C351.28,14.62,367.68,30.1,373.44,50.12z"/>
<path style="fill:#363636;" d="M365.5,204.009L293.574,301.5c56.333,0,102-45.667,102-102
	C385.105,199.5,375.007,201.08,365.5,204.009z"/>
<g>
	<path style="fill:#515151;" d="M365.5,204.009c-41.653,12.834-71.926,51.626-71.926,97.491
		C332.271,301.5,363.834,258.249,365.5,204.009z"/>
	<path style="fill:#515151;" d="M116,199.5c0,56.333,45.667,102,102,102C218,245.167,172.333,199.5,116,199.5z"/>
</g>
<path d="M395.574,192c-60.378,0-109.5,49.121-109.5,109.5v38c0,20.678,16.822,37.5,37.5,37.5c4.142,0,7.5-3.357,7.5-7.5
	s-3.358-7.5-7.5-7.5c-12.407,0-22.5-10.094-22.5-22.5v-30.762c56.893-3.868,102-51.38,102-109.238
	C403.074,195.357,399.716,192,395.574,192z M301.394,293.68c3.777-45.883,40.476-82.582,86.359-86.359
	C383.977,253.203,347.277,289.902,301.394,293.68z"/>
<path d="M225.926,339.5v-38c0-0.902-0.167-1.762-0.459-2.563C224.101,239.738,175.522,192,116,192c-4.142,0-7.5,3.357-7.5,7.5
	c0,58.002,45.333,105.606,102.426,109.265V339.5c0,12.406-10.093,22.5-22.5,22.5c-4.142,0-7.5,3.357-7.5,7.5s3.358,7.5,7.5,7.5
	C209.104,377,225.926,360.178,225.926,339.5z M123.82,207.32c45.883,3.777,82.583,40.477,86.359,86.359
	C164.296,289.902,127.597,253.203,123.82,207.32z"/>
<path d="M243.628,376.615c3.929,1.307,8.177-0.813,9.487-4.743l2.885-8.655l2.885,8.655c1.048,3.143,3.974,5.13,7.114,5.13
	c0.786,0,1.586-0.125,2.373-0.387c3.93-1.31,6.053-5.558,4.744-9.487l-10-30C262.094,334.065,259.228,332,256,332
	s-6.094,2.065-7.115,5.128l-10,30C237.575,371.058,239.699,375.306,243.628,376.615z"/>
<path d="M306,407h-12.5v-7.5c0-4.143-3.358-7.5-7.5-7.5s-7.5,3.357-7.5,7.5v7.5h-15v-7.5c0-4.143-3.358-7.5-7.5-7.5
	s-7.5,3.357-7.5,7.5v7.5h-15v-7.5c0-4.143-3.358-7.5-7.5-7.5s-7.5,3.357-7.5,7.5v7.5H206c-4.142,0-7.5,3.357-7.5,7.5
	s3.358,7.5,7.5,7.5h12.5v7.5c0,4.143,3.358,7.5,7.5,7.5s7.5-3.357,7.5-7.5V422h15v7.5c0,4.143,3.358,7.5,7.5,7.5s7.5-3.357,7.5-7.5
	V422h15v7.5c0,4.143,3.358,7.5,7.5,7.5s7.5-3.357,7.5-7.5V422H306c4.142,0,7.5-3.357,7.5-7.5S310.142,407,306,407z"/>
<path d="M504.5,162h-62.747c-0.968-3.606-2.359-8.78-4.034-15h5.213c4.142,0,7.5-3.357,7.5-7.5s-3.358-7.5-7.5-7.5h-9.257
	c-7.705-28.538-18.043-66.596-23.029-83.946C402.515,19.761,375.932,0,346,0c-5.92,0-11.798,0.769-17.475,2.286L256,21.725
	l-72.53-19.44C177.798,0.769,171.92,0,166,0c-29.932,0-56.515,19.761-64.646,48.054C96.368,65.404,86.031,103.462,78.325,132h-9.256
	c-4.142,0-7.5,3.357-7.5,7.5s3.358,7.5,7.5,7.5h5.212c-1.675,6.22-3.066,11.394-4.034,15H7.5c-4.142,0-7.5,3.357-7.5,7.5
	s3.358,7.5,7.5,7.5h61v70.5c0,14.025,5.461,27.21,15.378,37.125l22.174,22.174l54.904,141.121c0.026,0.067,0.054,0.135,0.082,0.202
	C177.2,486.329,215.362,512,256,512s78.8-25.671,94.961-63.878c0.028-0.067,0.056-0.135,0.082-0.202l54.904-141.121l22.174-22.174
	c9.917-9.915,15.379-23.1,15.379-37.125V177h61c4.142,0,7.5-3.357,7.5-7.5S508.642,162,504.5,162z M97.922,117h24.262
	c4.142,0,7.5-3.357,7.5-7.5s-3.358-7.5-7.5-7.5h-20.188c5.386-19.787,10.645-38.912,13.775-49.804C122.064,30.296,142.72,15,166,15
	c4.613,0,9.188,0.598,13.592,1.774l74.466,19.959c1.272,0.342,2.611,0.342,3.884,0l74.461-19.957C336.813,15.598,341.387,15,346,15
	c23.28,0,43.936,15.296,50.229,37.196c3.13,10.891,8.388,30.017,13.774,49.804h-257.82c-4.142,0-7.5,3.357-7.5,7.5
	s3.358,7.5,7.5,7.5h261.894c1.391,5.13,2.756,10.176,4.059,15H93.862C95.166,127.176,96.531,122.13,97.922,117z M422.185,147
	c1.577,5.854,2.954,10.974,4.036,15H85.779c1.082-4.026,2.459-9.146,4.036-15H422.185z M417.515,274.018l-23.289,23.289
	c-0.735,0.735-1.31,1.615-1.687,2.584l-55.436,142.486C323.237,475.055,290.658,497,256,497s-67.237-21.945-81.104-54.623
	L119.46,299.891c-0.377-0.969-0.951-1.849-1.687-2.584l-23.29-23.289c-7.083-7.082-10.984-16.5-10.984-26.518V177h345v70.5
	C428.5,257.518,424.599,266.936,417.515,274.018z"/>
<g>
</g>
<g>
</g>
<g>
</g>
<g>
</g>
<g>
</g>
<g>
</g>
<g>
</g>
<g>
</g>
<g>
</g>
<g>
</g>
<g>
</g>
<g>
</g>
<g>
</g>
<g>
</g>
<g>
</g>
</svg>
