<?xml version="1.0" encoding="iso-8859-1"?>
<!-- Generator: Adobe Illustrator 19.0.0, SVG Export Plug-In . SVG Version: 6.00 Build 0)  -->
<svg version="1.1" id="Capa_1" xmlns="http://www.w3.org/2000/svg" xmlns:xlink="http://www.w3.org/1999/xlink" x="0px" y="0px"
	 viewBox="0 0 512 512" style="enable-background:new 0 0 512 512;" xml:space="preserve">
<polygon style="fill:#515151;" points="425,57.5 256,444.5 435,424.5 455,57.5 "/>
<polygon style="fill:#6F6F6F;" points="57,57.5 77,424.5 256,444.5 408.015,424.5 425,57.5 "/>
<g>
	<circle style="fill:#FF7240;" cx="392.22" cy="117.5" r="30"/>
	<circle style="fill:#FF7240;" cx="119.78" cy="117.5" r="30"/>
</g>
<polygon style="fill:#C20C00;" points="162.31,274.5 183.51,304.5 259,332.937 328.49,304.5 349.69,274.5 "/>
<path style="fill:#F25031;" d="M222.31,359.408c17.021-22.105,50.359-22.105,67.38,0l38.8-54.908H183.51L222.31,359.408z"/>
<g>
	<polygon style="fill:#E52C20;" points="31,256.79 31,352.21 116.558,387.649 116.558,221.351 	"/>
	<polygon style="fill:#E52C20;" points="395.442,221.351 395.442,387.649 481,352.21 481,256.79 	"/>
</g>
<path style="fill:#363636;" d="M491.03,424.5h-30.765v30H489.5c8.28,0,15-6.72,15-15S499.31,424.5,491.03,424.5z"/>
<path style="fill:#515151;" d="M460.265,424.5c8.28,0,14.235,6.72,14.235,15s-5.955,15-14.235,15H22.5c-8.28,0-15-6.72-15-15
	s6.72-15,15-15H460.265z"/>
<path style="fill:#FF7240;" d="M151,394.5c-49.626,0-90-40.374-90-90s40.374-90,90-90s90,40.374,90,90S200.626,394.5,151,394.5z"/>
<path style="fill:#FFE73D;" d="M151,244.5v120c33.137,0,60-26.863,60-60S184.137,244.5,151,244.5z"/>
<path style="fill:#FFF39E;" d="M181,304.5c0-33.137-13.431-60-30-60c-33.137,0-60,26.863-60,60s26.863,60,60,60
	C167.568,364.5,181,337.637,181,304.5z"/>
<path style="fill:#FF7240;" d="M361,394.5c-49.626,0-90-40.374-90-90s40.374-90,90-90s90,40.374,90,90S410.626,394.5,361,394.5z"/>
<path style="fill:#FFE73D;" d="M361,244.5v120c33.137,0,60-26.863,60-60S394.137,244.5,361,244.5z"/>
<path style="fill:#FFF39E;" d="M391,304.5c0-33.137-13.431-60-30-60c-33.137,0-60,26.863-60,60s26.863,60,60,60
	C377.568,364.5,391,337.637,391,304.5z"/>
<path d="M143.47,146.542C176.395,168.941,215.272,181,256,181s79.605-12.059,112.53-34.458c6.464,5.283,14.713,8.458,23.693,8.458
	c20.678,0,37.5-16.822,37.5-37.5S412.901,80,392.223,80s-37.5,16.822-37.5,37.5c0,6.251,1.546,12.145,4.263,17.334
	c-62.042,41.37-143.929,41.37-205.972,0c2.717-5.188,4.263-11.082,4.263-17.334c0-20.678-16.822-37.5-37.5-37.5
	s-37.5,16.822-37.5,37.5s16.822,37.5,37.5,37.5C128.756,155,137.006,151.825,143.47,146.542z M369.723,117.5
	c0-12.406,10.093-22.5,22.5-22.5s22.5,10.094,22.5,22.5s-10.093,22.5-22.5,22.5c-3.982,0-7.724-1.044-10.972-2.867
	c5.555-4.458,10.912-9.224,16.034-14.312c2.938-2.919,2.955-7.668,0.036-10.606c-2.919-2.94-7.668-2.955-10.607-0.036
	c-4.924,4.891-10.066,9.436-15.383,13.658C370.298,123.257,369.723,120.445,369.723,117.5z M97.277,117.5
	c0-12.406,10.093-22.5,22.5-22.5s22.5,10.094,22.5,22.5c0,2.945-0.575,5.757-1.608,8.337c-5.317-4.223-10.459-8.767-15.383-13.658
	c-2.94-2.92-7.687-2.905-10.607,0.036c-2.919,2.938-2.903,7.688,0.036,10.606c5.122,5.088,10.479,9.854,16.034,14.312
	c-3.248,1.823-6.99,2.867-10.972,2.867C107.37,140,97.277,129.906,97.277,117.5z"/>
<path d="M491.03,417h-48.11l2.28-41.844l38.67-16.018c2.803-1.16,4.63-3.896,4.63-6.929v-95.42c0-3.033-1.827-5.769-4.63-6.929
	l-31.139-12.898l9.757-179.055c0.112-2.057-0.626-4.069-2.043-5.565C459.029,50.848,457.06,50,455,50H57
	c-2.06,0-4.029,0.848-5.446,2.343c-1.417,1.496-2.155,3.509-2.043,5.565l9.758,179.055L28.13,249.861
	c-2.803,1.16-4.63,3.896-4.63,6.929v95.42c0,3.033,1.827,5.769,4.63,6.929l38.67,16.018L69.08,417H22.5
	C10.093,417,0,427.094,0,439.5S10.093,462,22.5,462h467c12.407,0,22.5-10.094,22.5-22.5C512,426.673,502.985,417,491.03,417z
	 M68.5,304.5c0-45.49,37.009-82.5,82.5-82.5s82.5,37.01,82.5,82.5S196.491,387,151,387S68.5,349.99,68.5,304.5z M263.786,297
	h-15.571c-0.391-5.12-1.185-10.129-2.34-15h20.25C264.97,286.871,264.177,291.88,263.786,297z M248.214,312h15.571
	c0.667,8.725,2.494,17.13,5.315,25.067c-4.211-1.132-8.603-1.738-13.1-1.738s-8.889,0.606-13.1,1.738
	C245.721,329.13,247.547,320.725,248.214,312z M278.5,304.5c0-45.49,37.009-82.5,82.5-82.5s82.5,37.01,82.5,82.5
	S406.491,387,361,387S278.5,349.99,278.5,304.5z M473.5,347.198l-32.982,13.662c11.319-15.924,17.982-35.379,17.982-56.36
	s-6.662-40.436-17.982-56.36l32.982,13.662V347.198z M64.92,65h382.16l-9.039,165.878l-39.729-16.456
	c-0.034-0.014-0.07-0.023-0.104-0.037C386.736,209.631,374.17,207,361,207c-40.48,0-75.273,24.799-89.996,60h-30.008
	c-14.723-35.201-49.516-60-89.996-60c-13.172,0-25.74,2.631-37.213,7.387c-0.033,0.013-0.066,0.022-0.099,0.035L73.96,230.878
	L64.92,65z M38.5,261.802l32.982-13.662C60.162,264.064,53.5,283.519,53.5,304.5s6.662,40.436,17.982,56.36L38.5,347.198V261.802z
	 M82.169,381.522l31.52,13.056c0.034,0.014,0.068,0.023,0.102,0.036C125.262,399.369,137.829,402,151,402
	c31.113,0,58.868-14.649,76.732-37.412c0.182-0.191,0.356-0.391,0.52-0.605c6.682-8.678,16.795-13.654,27.748-13.654
	s21.065,4.977,27.748,13.654c0.152,0.197,0.316,0.379,0.483,0.557C302.094,387.33,329.865,402,361,402
	c13.17,0,25.736-2.63,37.207-7.385c0.035-0.014,0.07-0.023,0.105-0.037l31.519-13.056L427.898,417H84.102L82.169,381.522z
	 M489.5,447h-467c-4.136,0-7.5-3.364-7.5-7.5s3.364-7.5,7.5-7.5h468.53c4.407,0,5.97,4.04,5.97,7.5
	C497,443.636,493.636,447,489.5,447z"/>
<path d="M218.5,304.5c0-37.22-30.28-67.5-67.5-67.5c-12.067,0-23.923,3.236-34.285,9.36c-3.566,2.107-4.749,6.707-2.642,10.272
	c2.108,3.567,6.706,4.749,10.272,2.642C132.398,254.516,141.615,252,151,252c28.949,0,52.5,23.552,52.5,52.5S179.948,357,151,357
	s-52.5-23.552-52.5-52.5c0-9.384,2.515-18.601,7.274-26.654c2.107-3.566,0.924-8.165-2.642-10.272s-8.166-0.925-10.272,2.642
	c-6.124,10.363-9.36,22.219-9.36,34.285c0,37.22,30.28,67.5,67.5,67.5S218.5,341.72,218.5,304.5z"/>
<path d="M361,372c37.22,0,67.5-30.28,67.5-67.5S398.219,237,361,237c-12.067,0-23.923,3.236-34.285,9.36
	c-3.566,2.107-4.749,6.707-2.642,10.272c2.107,3.567,6.706,4.749,10.272,2.642C342.398,254.516,351.615,252,361,252
	c28.949,0,52.5,23.552,52.5,52.5S389.948,357,361,357s-52.5-23.552-52.5-52.5c0-9.384,2.515-18.601,7.274-26.654
	c2.107-3.566,0.924-8.165-2.642-10.272s-8.165-0.925-10.272,2.642c-6.124,10.363-9.36,22.219-9.36,34.285
	C293.5,341.72,323.78,372,361,372z"/>
<g>
</g>
<g>
</g>
<g>
</g>
<g>
</g>
<g>
</g>
<g>
</g>
<g>
</g>
<g>
</g>
<g>
</g>
<g>
</g>
<g>
</g>
<g>
</g>
<g>
</g>
<g>
</g>
<g>
</g>
</svg>
