<?xml version="1.0" encoding="iso-8859-1"?>
<!-- Generator: Adobe Illustrator 19.0.0, SVG Export Plug-In . SVG Version: 6.00 Build 0)  -->
<svg version="1.1" id="Capa_1" xmlns="http://www.w3.org/2000/svg" xmlns:xlink="http://www.w3.org/1999/xlink" x="0px" y="0px"
	 viewBox="0 0 512 512" style="enable-background:new 0 0 512 512;" xml:space="preserve">
<polygon style="fill:#E52C20;" points="436,367.5 436,504.5 406,504.5 376,337.5 "/>
<polygon style="fill:#F25031;" points="256,337.5 376,504.5 406,504.5 406,337.5 "/>
<polygon style="fill:#FFE73D;" points="436,247.5 436,367.5 406,367.5 376,217.5 "/>
<rect x="346" y="217.5" style="fill:#FFF39E;" width="60" height="150"/>
<polygon style="fill:#E52C20;" points="436,187.5 436,247.5 406,247.5 376,157.5 "/>
<g>
	<rect x="346" y="157.5" style="fill:#F25031;" width="60" height="90"/>
	<polygon style="fill:#F25031;" points="136,504.5 76,504.5 76,187.5 256,157.5 	"/>
</g>
<polygon style="fill:#363636;" points="376,474.5 376,504.5 346,504.5 301,444.5 "/>
<polygon style="fill:#515151;" points="346,414.5 346,504.5 136,504.5 136,474.5 "/>
<polygon style="fill:#AAAAAA;" points="256,157.5 346,474.5 376,474.5 376,157.5 "/>
<polygon style="fill:#C8C8C8;" points="346,157.5 346,474.5 256,474.5 196,157.5 "/>
<rect x="136" y="157.5" style="fill:#E3E3E3;" width="120" height="317"/>
<path style="fill:#F25031;" d="M406,37.5h-30l30,150h30v-120C436,51,422.5,37.5,406,37.5z"/>
<path style="fill:#FF7240;" d="M376,37.5h-52.92c-16.48-18.41-40.43-30-67.08-30c-26.65,0-50.6,11.59-67.08,30H106
	c-16.5,0-30,13.5-30,30v120h330v-120C406,51,392.5,37.5,376,37.5z"/>
<path style="fill:#FFF39E;" d="M256,37.5v120c33.137,0,60-26.863,60-60S289.137,37.5,256,37.5z"/>
<path style="fill:#FFFFFF;" d="M286,97.5c0-33.137-13.431-60-30-60c-33.137,0-60,26.863-60,60s26.863,60,60,60
	C272.569,157.5,286,130.637,286,97.5z"/>
<path d="M473.5,150.755V127.5c0-18.11-12.904-33.261-30-36.745V67.5c0-20.678-16.822-37.5-37.5-37.5h-79.651
	C308.001,10.892,282.556,0,256,0s-52.001,10.892-70.349,30H106c-20.678,0-37.5,16.822-37.5,37.5v23.255
	c-17.096,3.484-30,18.635-30,36.745v23.255c-17.096,3.484-30,18.635-30,36.745v120c0,18.11,12.904,33.261,30,36.745V444.5
	c0,18.11,12.904,33.261,30,36.745V504.5c0,4.142,3.357,7.5,7.5,7.5h360c4.143,0,7.5-3.358,7.5-7.5v-23.255
	c17.096-3.484,30-18.635,30-36.745V344.245c17.096-3.484,30-18.635,30-36.745v-120C503.5,169.39,490.596,154.239,473.5,150.755z
	 M248.5,195v22.5c0,4.142,3.357,7.5,7.5,7.5s7.5-3.358,7.5-7.5V195h105v302h-225V195H248.5z M428.5,195v45h-45v-45H428.5z
	 M443.5,285h15v15h-15V285z M458.5,270h-15V165h15V270z M383.5,255h45v105h-45V255z M443.5,315h15v15h-15V315z M473.5,284.245
	c5.539-1.129,10.637-3.483,15-6.766c0,9.798-6.271,18.134-15,21.23V284.245z M488.5,187.5v60c0,9.777-6.271,18.114-15,21.21V166.29
	C482.229,169.386,488.5,177.723,488.5,187.5z M458.5,127.5V150h-15v-43.71C452.229,109.386,458.5,117.723,458.5,127.5z M83.5,67.5
	C83.5,55.093,93.594,45,106,45h82.924c2.133,0,4.165-0.908,5.588-2.498C210.158,25.024,232.569,15,256,15
	s45.842,10.024,61.488,27.502c1.423,1.589,3.455,2.498,5.588,2.498H406c12.406,0,22.5,10.093,22.5,22.5V180h-345V67.5z M53.5,165h15
	v165h-15V165z M68.5,106.29V150h-15v-22.5C53.5,117.723,59.771,109.386,68.5,106.29z M23.5,307.5v-120
	c0-9.777,6.271-18.114,15-21.21v162.42C29.771,325.614,23.5,317.277,23.5,307.5z M53.5,444.5V345h15v120.71
	C59.771,462.614,53.5,454.277,53.5,444.5z M83.5,195h45v302h-45V195z M428.5,497h-45V375h45V497z M443.5,465.71V345h15v99.5
	C458.5,454.277,452.229,462.614,443.5,465.71z M473.5,328.71v-14.465c5.539-1.129,10.637-3.483,15-6.766
	C488.5,317.277,482.229,325.614,473.5,328.71z"/>
<path d="M256,165c37.22,0,67.5-30.28,67.5-67.5S293.22,30,256,30s-67.5,30.28-67.5,67.5S218.78,165,256,165z M256,45
	c28.948,0,52.5,23.551,52.5,52.5S284.948,150,256,150s-52.5-23.551-52.5-52.5S227.052,45,256,45z"/>
<path d="M256,105h15c4.143,0,7.5-3.358,7.5-7.5S275.143,90,271,90h-7.5V67.5c0-4.142-3.357-7.5-7.5-7.5s-7.5,3.358-7.5,7.5v30
	C248.5,101.642,251.857,105,256,105z"/>
<path d="M156,482h190c4.143,0,7.5-3.358,7.5-7.5s-3.357-7.5-7.5-7.5h-82.5V247.5c0-4.142-3.357-7.5-7.5-7.5s-7.5,3.358-7.5,7.5V467
	H156c-4.143,0-7.5,3.358-7.5,7.5S151.857,482,156,482z"/>
<circle cx="406" cy="337.5" r="7.5"/>
<circle cx="406" cy="307.5" r="7.5"/>
<circle cx="406" cy="277.5" r="7.5"/>
<g>
</g>
<g>
</g>
<g>
</g>
<g>
</g>
<g>
</g>
<g>
</g>
<g>
</g>
<g>
</g>
<g>
</g>
<g>
</g>
<g>
</g>
<g>
</g>
<g>
</g>
<g>
</g>
<g>
</g>
</svg>
