<?xml version="1.0" encoding="iso-8859-1"?>
<!-- Generator: Adobe Illustrator 19.0.0, SVG Export Plug-In . SVG Version: 6.00 Build 0)  -->
<svg version="1.1" id="Capa_1" xmlns="http://www.w3.org/2000/svg" xmlns:xlink="http://www.w3.org/1999/xlink" x="0px" y="0px"
	 viewBox="0 0 512 512" style="enable-background:new 0 0 512 512;" xml:space="preserve">
<circle style="fill:#AAAAAA;" cx="256" cy="256" r="233.5"/>
<circle style="fill:#C8C8C8;" cx="256" cy="256" r="203.5"/>
<path style="fill:#FFE73D;" d="M256,7.5l10,107.591h20V37.5C286,20.931,272.569,7.5,256,7.5z"/>
<path style="fill:#FFF39E;" d="M256,7.5c-16.569,0-30,13.431-30,30v77.591h40V37.5C266,20.931,261.523,7.5,256,7.5z"/>
<path style="fill:#FFE73D;" d="M80.284,80.284l83.149,69.007l14.142-14.142L122.71,80.284C110.995,68.568,92,68.568,80.284,80.284z"
	/>
<path style="fill:#FFF39E;" d="M80.284,80.284c-11.716,11.716-11.716,30.711,0,42.426l54.865,54.865l28.284-28.284l-54.865-54.865
	C96.852,82.71,84.189,76.379,80.284,80.284z"/>
<path style="fill:#FFE73D;" d="M7.5,256l107.591-10v-20H37.5C20.932,226,7.5,239.432,7.5,256z"/>
<path style="fill:#FFF39E;" d="M7.5,256c0,16.569,13.431,30,30,30h77.591v-40H37.5C20.932,246,7.5,250.477,7.5,256z"/>
<path style="fill:#FFE73D;" d="M80.284,431.716l69.007-83.149l-14.142-14.142L80.284,389.29
	C68.568,401.005,68.568,420,80.284,431.716z"/>
<path style="fill:#FFF39E;" d="M80.284,431.716c11.716,11.716,30.711,11.716,42.426,0l54.865-54.865l-28.284-28.284l-54.865,54.865
	C82.711,415.148,76.379,427.811,80.284,431.716z"/>
<path style="fill:#FFE73D;" d="M431.716,431.716l-83.149-69.007l-14.142,14.142l54.865,54.865
	C401.006,443.432,420,443.432,431.716,431.716z"/>
<path style="fill:#FFF39E;" d="M431.716,431.716c11.716-11.716,11.716-30.711,0-42.426l-54.865-54.865l-28.284,28.284l54.865,54.865
	C415.148,429.29,427.811,435.621,431.716,431.716z"/>
<path style="fill:#FFE73D;" d="M504.5,256l-107.59,10v20h77.59C491.069,286,504.5,272.568,504.5,256z"/>
<path style="fill:#FFF39E;" d="M504.5,256c0-16.569-13.431-30-30-30h-77.59v40h77.59C491.069,266,504.5,261.523,504.5,256z"/>
<path style="fill:#FFE73D;" d="M431.716,80.284l-69.007,83.149l14.142,14.142l54.865-54.865
	C443.432,110.995,443.432,92,431.716,80.284z"/>
<path style="fill:#FFF39E;" d="M431.716,80.284c-11.716-11.716-30.711-11.716-42.426,0l-54.865,54.865l28.284,28.284l54.865-54.865
	C429.29,96.852,435.621,84.189,431.716,80.284z"/>
<circle style="fill:#E3E3E3;" cx="256" cy="256" r="173.5"/>
<path style="fill:#007CE6;" d="M256,112.5v287c79.253,0,143.5-64.247,143.5-143.5S335.253,112.5,256,112.5z"/>
<path style="fill:#00B2FF;" d="M369.5,256c0-79.253-50.816-143.5-113.5-143.5c-79.253,0-143.5,64.247-143.5,143.5
	S176.747,399.5,256,399.5C318.684,399.5,369.5,335.253,369.5,256z"/>
<polygon style="fill:#363636;" points="462.07,504.5 417.07,504.5 256,410.451 398.02,440.451 "/>
<g>
	<polygon style="fill:#515151;" points="367.01,440.451 417.07,504.5 49.93,504.5 113.98,440.451 256,410.451 	"/>
	<polygon style="fill:#515151;" points="398.02,440.451 367.01,440.451 308.934,408.43 316.95,376.41 333.98,376.41 	"/>
</g>
<polygon style="fill:#6F6F6F;" points="367.01,440.451 113.98,440.451 178.02,376.41 316.95,376.41 "/>
<circle cx="256" cy="37.5" r="7.5"/>
<circle cx="101.5" cy="101.5" r="7.5"/>
<circle cx="37.5" cy="256" r="7.5"/>
<circle cx="101.5" cy="410.5" r="7.5"/>
<circle cx="410.5" cy="410.5" r="7.5"/>
<path d="M512,256c0-13.129-6.787-24.696-17.032-31.397c-5.466-41.982-21.928-81.714-47.795-115.36
	c2.512-11.987-0.866-24.974-10.155-34.262c-9.288-9.288-22.274-12.666-34.261-10.154c-33.647-25.867-73.38-42.329-115.361-47.796
	C280.695,6.787,269.129,0,256,0s-24.695,6.787-31.397,17.031c-41.97,5.465-81.693,21.92-115.334,47.776
	c-2.528-0.53-5.128-0.809-7.772-0.809c-10.017,0-19.434,3.901-26.517,10.984c-9.288,9.288-12.667,22.275-10.154,34.262
	c-25.867,33.647-42.329,73.38-47.795,115.36C6.787,231.304,0,242.871,0,256s6.787,24.696,17.032,31.397
	c5.466,41.98,21.928,81.712,47.795,115.359c-2.513,11.988,0.866,24.975,10.155,34.263c5.965,5.965,13.455,9.494,21.227,10.592
	l-51.585,51.585c-2.145,2.145-2.786,5.371-1.625,8.173c1.16,2.803,3.896,4.63,6.929,4.63h412.146c3.033,0,5.769-1.827,6.929-4.63
	c1.161-2.803,0.52-6.028-1.625-8.173l-51.569-51.569c8.004-1.127,15.395-4.792,21.212-10.609
	c9.288-9.288,12.667-22.275,10.154-34.262c25.868-33.647,42.329-73.38,47.795-115.36C505.213,280.697,512,269.129,512,256z
	 M474.5,278.5h-38.916c0.932-7.417,1.416-14.929,1.416-22.5c0-7.618-0.479-15.126-1.397-22.5H474.5c12.406,0,22.5,10.093,22.5,22.5
	C497,268.407,486.906,278.5,474.5,278.5z M407.691,354.658c12.087-18.596,20.725-39.323,25.363-61.158h15.32
	c-5.004,25.635-15.214,50.213-29.889,71.953L407.691,354.658z M181.127,383.906h149.746l49.047,49.047H132.08L181.127,383.906z
	 M331.708,368.906H180.292C142.503,343.498,120,301.464,120,256c0-74.991,61.01-136,136-136s136,61.009,136,136
	C392,301.464,369.497,343.497,331.708,368.906z M345.633,377.453C384.222,348.96,407,304.215,407,256c0-83.262-67.738-151-151-151
	s-151,67.738-151,151c0,48.216,22.778,92.961,61.367,121.453l-10.75,10.75C114.421,356.866,90,307.917,90,256
	c0-91.533,74.468-166,166-166s166,74.467,166,166c0,51.917-24.421,100.866-65.617,132.203L345.633,377.453z M93.514,365.453
	c-14.675-21.74-24.885-46.317-29.889-71.953h15.321c4.638,21.835,13.277,42.562,25.363,61.158L93.514,365.453z M104.319,157.353
	c-11.98,18.358-20.72,39.011-25.402,61.147H63.625c5.005-25.635,15.214-50.213,29.889-71.952L104.319,157.353z M293.5,63.625
	c25.636,5.005,50.213,15.214,71.952,29.889l-10.805,10.805c-18.358-11.98-39.011-20.72-61.147-25.402V63.625z M478.945,218.773
	c-1.459-0.173-2.94-0.273-4.445-0.273h-41.417c-4.682-22.136-13.422-42.789-25.402-61.147l10.822-10.822
	c10.794,15.961,19.127,33.31,24.809,51.69c0.995,3.22,3.96,5.287,7.163,5.287c0.733,0,1.479-0.108,2.217-0.336
	c3.957-1.223,6.174-5.423,4.95-9.38c-6.403-20.716-15.938-40.208-28.357-58.043l7.735-7.735c1.06-1.06,2.033-2.173,2.939-3.322
	C459.999,152.717,473.319,184.862,478.945,218.773z M426.412,85.587c8.773,8.773,8.773,23.047,0,31.82l-27.566,27.566
	c-9.25-11.875-19.945-22.569-31.82-31.82l27.566-27.566C403.366,76.816,417.639,76.815,426.412,85.587z M387.308,72.041
	c-1.149,0.906-2.262,1.88-3.322,2.94l-7.728,7.727c-24.792-17.24-53.165-29.022-82.759-34.368V37.5c0-1.505-0.099-2.986-0.272-4.445
	C327.137,38.68,359.282,52,387.308,72.041z M256,15c12.406,0,22.5,10.093,22.5,22.5v38.897C271.126,75.479,263.618,75,256,75
	s-15.126,0.479-22.5,1.397V37.5C233.5,25.093,243.594,15,256,15z M218.772,33.055c-0.173,1.459-0.272,2.94-0.272,4.445v41.417
	c-22.136,4.682-42.789,13.422-61.148,25.403L146.53,93.498c15.958-10.793,33.305-19.125,51.682-24.807
	c3.958-1.224,6.174-5.423,4.95-9.381c-1.223-3.957-5.422-6.174-9.38-4.95c-20.714,6.404-40.203,15.937-58.035,28.355l-7.734-7.734
	c-1.055-1.055-2.167-2.03-3.319-2.941C152.719,52,184.863,38.68,218.772,33.055z M85.588,85.587c4.249-4.25,9.899-6.59,15.909-6.59
	s11.66,2.341,15.909,6.59l27.567,27.566c-11.875,9.25-22.569,19.945-31.82,31.82l-27.566-27.566
	C76.814,108.634,76.814,94.36,85.588,85.587z M72.041,124.692c0.906,1.149,1.88,2.262,2.939,3.321l7.728,7.728
	c-17.24,24.792-29.022,53.165-34.368,82.758H37.5c-1.505,0-2.986,0.099-4.445,0.272C38.681,184.863,52.001,152.718,72.041,124.692z
	 M37.5,233.5h17.203c0.035,0,21.695,0,21.695,0C75.479,240.874,75,248.382,75,256c0,7.571,0.484,15.083,1.417,22.5H37.5
	C25.094,278.5,15,268.408,15,256S25.094,233.5,37.5,233.5z M33.055,293.227c1.459,0.173,2.94,0.273,4.445,0.273h10.84
	c5.346,29.593,17.128,57.966,34.368,82.758l-7.728,7.728c-1.06,1.06-2.033,2.172-2.939,3.321
	C52.001,359.281,38.681,327.137,33.055,293.227z M85.588,426.413c-8.773-8.773-8.773-23.047,0-31.82l27.532-27.532
	c9.153,11.789,19.814,22.498,31.805,31.834l-27.532,27.532C108.618,435.184,94.356,435.181,85.588,426.413z M68.033,497
	l49.047-49.047h277.84L443.967,497H68.033z M426.412,426.413c-4.249,4.25-9.899,6.59-15.909,6.59s-11.66-2.341-15.909-6.59
	c-0.01-0.009-27.519-27.518-27.519-27.518c11.991-9.336,22.653-20.045,31.805-31.834l27.532,27.532
	C435.186,403.366,435.186,417.641,426.412,426.413z M439.959,387.309c-0.906-1.149-1.88-2.262-2.939-3.321l-7.728-7.728
	c17.24-24.792,29.022-53.165,34.368-82.759h10.84c1.505,0,2.986-0.099,4.445-0.273C473.32,327.137,460,359.283,439.959,387.309z"/>
<circle cx="474.5" cy="256" r="7.5"/>
<circle cx="410.5" cy="101.5" r="7.5"/>
<g>
</g>
<g>
</g>
<g>
</g>
<g>
</g>
<g>
</g>
<g>
</g>
<g>
</g>
<g>
</g>
<g>
</g>
<g>
</g>
<g>
</g>
<g>
</g>
<g>
</g>
<g>
</g>
<g>
</g>
</svg>
