<?xml version="1.0" encoding="iso-8859-1"?>
<!-- Generator: Adobe Illustrator 19.0.0, SVG Export Plug-In . SVG Version: 6.00 Build 0)  -->
<svg version="1.1" id="Capa_1" xmlns="http://www.w3.org/2000/svg" xmlns:xlink="http://www.w3.org/1999/xlink" x="0px" y="0px"
	 viewBox="0 0 512 512" style="enable-background:new 0 0 512 512;" xml:space="preserve">
<path style="fill:#E52C20;" d="M296,157.5h-30l60,70h30v-10C356,184.363,329.137,157.5,296,157.5z"/>
<path style="fill:#F25031;" d="M266,157.5h-50c-33.137,0-60,26.863-60,60v10h170v-10C326,184.363,299.137,157.5,266,157.5z"/>
<polygon style="fill:#AAAAAA;" points="504.5,504.5 504.5,474.5 444.5,444.5 474.5,504.5 "/>
<polygon style="fill:#C8C8C8;" points="7.5,504.5 7.5,474.5 474.5,444.5 474.5,504.5 "/>
<polygon style="fill:#6F6F6F;" points="421.74,384.5 318.83,384.5 309.744,429.5 338.83,474.5 474.5,474.5 "/>
<path style="fill:#AAAAAA;" d="M383.72,324.5h-30v80h60v-50C413.72,338,400.22,324.5,383.72,324.5z"/>
<path style="fill:#C8C8C8;" d="M353.72,324.5H128.28c-16.5,0-30,13.5-30,30v50h285.44v-50C383.72,338,370.22,324.5,353.72,324.5z"/>
<polygon style="fill:#515151;" points="444.5,384.5 504.5,474.5 474.5,474.5 397.101,429.5 421.74,384.5 "/>
<polygon style="fill:#6F6F6F;" points="474.5,474.5 421.74,384.5 318.83,384.5 259.891,402.192 192.67,384 67,384 7,474 172.67,474 
	259.92,454.422 338.83,474.5 "/>
<polygon style="fill:#FFF39E;" points="276,404.5 226,404.5 226,354.5 256,354.5 "/>
<rect x="256" y="354.5" style="fill:#FFE73D;" width="30" height="50"/>
<polygon style="fill:#8C8C8C;" points="318.83,384.5 338.83,474.5 173.17,474.5 193.17,384.5 "/>
<path style="fill:#FF7240;" d="M256,7.5v120c33.137,0,60-26.863,60-60S289.137,7.5,256,7.5z"/>
<path style="fill:#FF9570;" d="M256,127.5c16.569,0,30-26.863,30-60s-13.431-60-30-60c-33.137,0-60,26.863-60,60
	S222.863,127.5,256,127.5z"/>
<path d="M511.927,473.505c-0.01-0.075-0.022-0.149-0.034-0.224c-0.052-0.318-0.119-0.631-0.21-0.934
	c-0.105-0.351-0.229-0.664-0.369-0.969c-0.026-0.056-0.053-0.112-0.081-0.168c-0.143-0.293-0.3-0.578-0.479-0.848
	c-0.043-0.068-60.013-90.023-60.013-90.023c-1.391-2.086-3.732-3.34-6.24-3.34h-23.284v-22.5c0-20.678-16.822-37.5-37.5-37.5
	h-83.055l39.771-55.111c2.424-3.359,1.666-8.046-1.693-10.47c-3.358-2.424-8.047-1.666-10.47,1.693L282.164,317H263.5v-59.5
	c0-4.142-3.358-7.5-7.5-7.5s-7.5,3.358-7.5,7.5V317h-18.664l-46.103-63.886c-2.423-3.358-7.11-4.116-10.47-1.693
	c-3.359,2.424-4.117,7.112-1.693,10.47L211.339,317h-83.055c-20.678,0-37.5,16.822-37.5,37.5V377H67.5
	c-2.508,0-4.85,1.253-6.24,3.34L1.29,470.295c-0.222,0.338-0.379,0.623-0.523,0.917c-0.027,0.056-0.055,0.111-0.081,0.168
	c-0.14,0.305-0.264,0.618-0.363,0.943c-0.097,0.329-0.164,0.642-0.216,0.96c-0.012,0.075-0.024,0.149-0.034,0.224
	C0.03,473.832,0,474.162,0,474.5v30c0,4.142,3.358,7.5,7.5,7.5h497c4.142,0,7.5-3.358,7.5-7.5v-30
	C512,474.162,511.97,473.832,511.927,473.505z M490.486,467H344.85l-16.667-75h112.303L490.486,467z M312.817,392l16.667,75H182.516
	l16.667-75H312.817z M248.5,362v15h-15v-15H248.5z M278.5,362v15h-15v-15H278.5z M105.784,354.5c0-12.407,10.093-22.5,22.5-22.5
	h97.714c0.015,0,59.989,0,59.989,0c0.015,0,97.729,0,97.729,0c12.407,0,22.5,10.093,22.5,22.5V377h-87.457c-0.021,0-0.042,0-0.064,0
	H293.5v-15h89.432c4.142,0,7.5-3.358,7.5-7.5s-3.358-7.5-7.5-7.5H129.068c-4.142,0-7.5,3.358-7.5,7.5s3.358,7.5,7.5,7.5H218.5v15
	h-25.199c-0.05,0-87.517,0-87.517,0V354.5z M71.514,392h112.303l-16.667,75H21.514L71.514,392z M15,497v-15h158.147
	c0.044,0,165.663,0,165.663,0c0.044,0,158.19,0,158.19,0v15H15z"/>
<path d="M156,235h200c4.142,0,7.5-3.358,7.5-7.5v-10c0-37.22-30.28-67.5-67.5-67.5h-80c-37.22,0-67.5,30.28-67.5,67.5v10
	C148.5,231.642,151.858,235,156,235z M163.5,217.5c0-28.949,23.551-52.5,52.5-52.5h80c28.949,0,52.5,23.551,52.5,52.5v2.5h-185
	V217.5z"/>
<path d="M208.132,104.427c3.566-2.107,4.749-6.706,2.642-10.272C206.015,86.1,203.5,76.883,203.5,67.5
	c0-28.949,23.551-52.5,52.5-52.5s52.5,23.551,52.5,52.5S284.949,120,256,120c-9.383,0-18.6-2.515-26.655-7.274
	c-3.565-2.107-8.165-0.925-10.272,2.642c-2.107,3.566-0.924,8.165,2.642,10.272c10.364,6.124,22.22,9.36,34.285,9.36
	c37.22,0,67.5-30.28,67.5-67.5S293.22,0,256,0s-67.5,30.28-67.5,67.5c0,12.065,3.236,23.921,9.36,34.285
	C199.967,105.352,204.566,106.535,208.132,104.427z"/>
<g>
</g>
<g>
</g>
<g>
</g>
<g>
</g>
<g>
</g>
<g>
</g>
<g>
</g>
<g>
</g>
<g>
</g>
<g>
</g>
<g>
</g>
<g>
</g>
<g>
</g>
<g>
</g>
<g>
</g>
</svg>
