<?xml version="1.0" encoding="iso-8859-1"?>
<!-- Generator: Adobe Illustrator 19.0.0, SVG Export Plug-In . SVG Version: 6.00 Build 0)  -->
<svg version="1.1" id="Capa_1" xmlns="http://www.w3.org/2000/svg" xmlns:xlink="http://www.w3.org/1999/xlink" x="0px" y="0px"
	 viewBox="0 0 512 512" style="enable-background:new 0 0 512 512;" xml:space="preserve">
<polygon style="fill:#FFE73D;" points="286,314.5 286,224.5 266,224.5 237.5,269.5 266,314.5 "/>
<rect x="226" y="224.5" style="fill:#FFF39E;" width="40" height="90"/>
<polygon style="fill:#0045CC;" points="376,414.5 346,414.5 256,474.5 406,444.5 "/>
<polygon style="fill:#007CE6;" points="346,414.5 136,414.5 106,444.5 256,474.5 376,444.5 "/>
<path style="fill:#AAAAAA;" d="M436,444.5h-30l30,60h30v-30C466,458,452.5,444.5,436,444.5z"/>
<path style="fill:#C8C8C8;" d="M406,444.5H76c-16.5,0-30,13.5-30,30v30h390v-30C436,458,422.5,444.5,406,444.5z"/>
<g>
	
		<line style="fill:none;stroke:#E3E3E3;stroke-width:15;stroke-linecap:round;stroke-linejoin:round;stroke-miterlimit:10;" x1="136" y1="157.37" x2="136" y2="97.37"/>
	
		<line style="fill:none;stroke:#E3E3E3;stroke-width:15;stroke-linecap:round;stroke-linejoin:round;stroke-miterlimit:10;" x1="136" y1="414.5" x2="136" y2="187.37"/>
	
		<line style="fill:none;stroke:#E3E3E3;stroke-width:15;stroke-linecap:round;stroke-linejoin:round;stroke-miterlimit:10;" x1="166" y1="384.5" x2="166" y2="127.37"/>
	
		<line style="fill:none;stroke:#E3E3E3;stroke-width:15;stroke-linecap:round;stroke-linejoin:round;stroke-miterlimit:10;" x1="346" y1="384.5" x2="346" y2="127.37"/>
	
		<line style="fill:none;stroke:#E3E3E3;stroke-width:15;stroke-linecap:round;stroke-linejoin:round;stroke-miterlimit:10;" x1="376" y1="354.5" x2="376" y2="97.37"/>
	
		<line style="fill:none;stroke:#E3E3E3;stroke-width:15;stroke-linecap:round;stroke-linejoin:round;stroke-miterlimit:10;" x1="376" y1="414.5" x2="376" y2="384.5"/>
</g>
<path style="fill:#0045CC;" d="M376,97.5h-30v-45h58.5l1.5,15C406,84,392.5,97.5,376,97.5z"/>
<path style="fill:#007CE6;" d="M376,67.5v-15l-270-0.125v15c0,16.5,13.5,30,30,30L346,97.5C362.5,97.5,376,84,376,67.5z"/>
<path style="fill:#FFB9A0;" d="M256,134.5v60c16.569,0,30-13.431,30-30S272.569,134.5,256,134.5z"/>
<path style="fill:#FFDCCF;" d="M266,164.5c0-16.569-4.477-30-10-30c-16.569,0-30,13.431-30,30s13.431,30,30,30
	C261.523,194.5,266,181.069,266,164.5z"/>
<polygon style="fill:#AAAAAA;" points="466,67.5 466,37.5 406,22.5 436,67.5 "/>
<g>
	<polygon style="fill:#C8C8C8;" points="46,67.5 46,37.5 436,22.5 436,67.5 	"/>
	<polygon style="fill:#C8C8C8;" points="466,37.5 466,7.5 436,7.5 407.5,22.5 436,37.5 	"/>
</g>
<rect x="46" y="7.5" style="fill:#E3E3E3;" width="390" height="30"/>
<path d="M158.5,127.375V384.5c0,4.142,3.357,7.5,7.5,7.5s7.5-3.358,7.5-7.5V127.375c0-4.142-3.357-7.5-7.5-7.5
	S158.5,123.232,158.5,127.375z"/>
<path d="M338.5,127.375V384.5c0,4.142,3.357,7.5,7.5,7.5s7.5-3.358,7.5-7.5V127.375c0-4.142-3.357-7.5-7.5-7.5
	S338.5,123.232,338.5,127.375z"/>
<path d="M481,497h-7.5v-22.5c0-20.678-16.822-37.5-37.5-37.5h-26.893L383.5,411.393V384.5c0-4.142-3.357-7.5-7.5-7.5
	s-7.5,3.358-7.5,7.5V407h-75v-22.5c0-4.142-3.357-7.5-7.5-7.5s-7.5,3.358-7.5,7.5V407h-45v-22.5c0-4.142-3.357-7.5-7.5-7.5
	s-7.5,3.358-7.5,7.5V407h-75V187.375c0-4.142-3.357-7.5-7.5-7.5s-7.5,3.358-7.5,7.5v224.019L102.893,437H76
	c-20.678,0-37.5,16.822-37.5,37.5V497H31c-4.143,0-7.5,3.358-7.5,7.5s3.357,7.5,7.5,7.5h450c4.143,0,7.5-3.358,7.5-7.5
	S485.143,497,481,497z M139.106,422h233.787l15,15H124.107L139.106,422z M53.5,474.5c0-12.407,10.094-22.5,22.5-22.5h360
	c12.406,0,22.5,10.093,22.5,22.5V497h-405V474.5z"/>
<circle cx="436" cy="474.5" r="7.5"/>
<circle cx="406" cy="474.5" r="7.5"/>
<circle cx="376" cy="474.5" r="7.5"/>
<path d="M316,337c4.143,0,7.5-3.358,7.5-7.5v-75c0-20.678-16.822-37.5-37.5-37.5h-60c-20.678,0-37.5,16.822-37.5,37.5v75
	c0,4.142,3.357,7.5,7.5,7.5s7.5-3.358,7.5-7.5v-75c0-9.777,6.271-18.114,15-21.21V354.5c0,4.142,3.357,7.5,7.5,7.5
	s7.5-3.358,7.5-7.5V322h45v32.5c0,4.142,3.357,7.5,7.5,7.5s7.5-3.358,7.5-7.5V233.29c8.729,3.096,15,11.432,15,21.21v75
	C308.5,333.642,311.857,337,316,337z M233.5,307v-75h45v75H233.5z"/>
<path d="M256,202c20.678,0,37.5-16.822,37.5-37.5S276.678,127,256,127s-37.5,16.822-37.5,37.5S235.322,202,256,202z M256,142
	c12.406,0,22.5,10.093,22.5,22.5S268.406,187,256,187s-22.5-10.093-22.5-22.5S243.594,142,256,142z"/>
<path d="M31,15h7.5v52.5c0,4.142,3.357,7.5,7.5,7.5h53.281c3.031,14.612,14.589,26.138,29.219,29.12v53.255
	c0,4.142,3.357,7.5,7.5,7.5s7.5-3.358,7.5-7.5v-52.5h225V354.5c0,4.142,3.357,7.5,7.5,7.5s7.5-3.358,7.5-7.5V104.12
	c14.63-2.982,26.188-14.508,29.219-29.12H466c4.143,0,7.5-3.358,7.5-7.5V15h7.5c4.143,0,7.5-3.358,7.5-7.5S485.143,0,481,0H31
	c-4.143,0-7.5,3.358-7.5,7.5S26.857,15,31,15z M376,89.875H136c-9.73,0-18.036-6.21-21.167-14.875h282.335
	C394.036,83.664,385.73,89.875,376,89.875z M458.5,60h-51.165c-0.434-0.078-0.879-0.125-1.335-0.125s-0.901,0.047-1.335,0.125
	h-297.33c-0.434-0.078-0.879-0.125-1.335-0.125s-0.901,0.047-1.335,0.125H53.5V15h405V60z"/>
<path d="M76,45h360c4.143,0,7.5-3.358,7.5-7.5S440.143,30,436,30H76c-4.143,0-7.5,3.358-7.5,7.5S71.857,45,76,45z"/>
<g>
</g>
<g>
</g>
<g>
</g>
<g>
</g>
<g>
</g>
<g>
</g>
<g>
</g>
<g>
</g>
<g>
</g>
<g>
</g>
<g>
</g>
<g>
</g>
<g>
</g>
<g>
</g>
<g>
</g>
</svg>
