<?xml version="1.0" encoding="iso-8859-1"?>
<!-- Generator: Adobe Illustrator 19.0.0, SVG Export Plug-In . SVG Version: 6.00 Build 0)  -->
<svg version="1.1" id="Capa_1" xmlns="http://www.w3.org/2000/svg" xmlns:xlink="http://www.w3.org/1999/xlink" x="0px" y="0px"
	 viewBox="0 0 512 512" style="enable-background:new 0 0 512 512;" xml:space="preserve">
<polygon style="fill:#C8C8C8;" points="504.5,146 504.5,349.5 474.5,379.5 414.5,247.75 474.5,116 "/>
<path style="fill:#E3E3E3;" d="M474.5,379.5V456c0,16.5-13.5,30-30,30h-377c-16.5,0-30-13.5-30-30v-76.5l-30-30V146l30-30V56
	c0-16.5,13.5-30,30-30h377c16.5,0,30,13.5,30,30v60V379.5z"/>
<polygon style="fill:#87C241;" points="414.5,56 444.5,56 444.5,456 414.5,456 326.5,256 "/>
<rect x="67.5" y="56" style="fill:#C3D43F;" width="347" height="400"/>
<path style="fill:#FFF39E;" d="M361.005,232.5c-29.54,0-53.5,23.95-53.5,53.5s23.96,53.5,53.5,53.5l53.5-53.5
	C414.505,256.45,390.555,232.5,361.005,232.5z"/>
<path style="fill:#FFE73D;" d="M384.505,286l-23.5,23.5v30c29.55,0,53.5-23.95,53.5-53.5H384.505z"/>
<path style="fill:#C3D43F;" d="M361.005,262.5c12.98,0,23.5,10.52,23.5,23.5s-10.52,23.5-23.5,23.5c-12.97,0-23.5-10.52-23.5-23.5
	S348.035,262.5,361.005,262.5z"/>
<polygon style="fill:#2D7B1A;" points="247.505,86 277.505,86 277.505,426 247.505,426 159.505,256 "/>
<rect x="97.5" y="86" style="fill:#5A9F2E;" width="150" height="340"/>
<g>
	<circle style="fill:#FFE73D;" cx="187.5" cy="146" r="30"/>
	<rect x="157.5" y="206" style="fill:#FFE73D;" width="60" height="90"/>
</g>
<path d="M120,236v75c0,4.142,3.357,7.5,7.5,7.5c4.143,0,7.5-3.358,7.5-7.5v-75c0-9.777,6.271-18.114,15-21.21V396
	c0,4.142,3.357,7.5,7.5,7.5s7.5-3.358,7.5-7.5v-92.5h45V396c0,4.142,3.357,7.5,7.5,7.5s7.5-3.358,7.5-7.5V214.79
	c8.729,3.096,15,11.432,15,21.21v75c0,4.142,3.357,7.5,7.5,7.5s7.5-3.358,7.5-7.5v-75c0-20.678-16.822-37.5-37.5-37.5h-60
	C136.822,198.5,120,215.322,120,236z M165,288.5v-75h45v75H165z"/>
<path d="M187.5,183.5c20.678,0,37.5-16.822,37.5-37.5s-16.822-37.5-37.5-37.5S150,125.322,150,146S166.822,183.5,187.5,183.5z
	 M187.5,123.5c12.406,0,22.5,10.093,22.5,22.5s-10.094,22.5-22.5,22.5S165,158.407,165,146S175.094,123.5,187.5,123.5z"/>
<path d="M444.5,48.5h-377c-4.143,0-7.5,3.358-7.5,7.5v400c0,4.142,3.357,7.5,7.5,7.5h377c4.143,0,7.5-3.358,7.5-7.5V56
	C452,51.858,448.643,48.5,444.5,48.5z M437,448.5H75v-385h362V448.5z"/>
<path d="M97.5,433.5h180.005c4.143,0,7.5-3.358,7.5-7.5V86c0-4.142-3.357-7.5-7.5-7.5H97.5c-4.143,0-7.5,3.358-7.5,7.5v280
	c0,4.142,3.357,7.5,7.5,7.5s7.5-3.358,7.5-7.5V93.5h165.005v325H105V396c0-4.142-3.357-7.5-7.5-7.5S90,391.858,90,396v30
	C90,430.142,93.357,433.5,97.5,433.5z"/>
<path d="M307.505,433.5H414.5c4.143,0,7.5-3.358,7.5-7.5v-30c0-4.142-3.357-7.5-7.5-7.5s-7.5,3.358-7.5,7.5v22.5h-20.665V396
	c0-4.142-3.357-7.5-7.5-7.5s-7.5,3.358-7.5,7.5v22.5H350.67V396c0-4.142-3.357-7.5-7.5-7.5s-7.5,3.358-7.5,7.5v22.5h-20.665V396
	c0-4.142-3.357-7.5-7.5-7.5s-7.5,3.358-7.5,7.5v30C300.005,430.142,303.362,433.5,307.505,433.5z"/>
<path d="M307.505,123.5H414.5c4.143,0,7.5-3.358,7.5-7.5s-3.357-7.5-7.5-7.5H307.505c-4.143,0-7.5,3.358-7.5,7.5
	S303.362,123.5,307.505,123.5z"/>
<path d="M307.505,153.5H414.5c4.143,0,7.5-3.358,7.5-7.5s-3.357-7.5-7.5-7.5H307.505c-4.143,0-7.5,3.358-7.5,7.5
	S303.362,153.5,307.505,153.5z"/>
<path d="M307.505,183.5h53.5c4.143,0,7.5-3.358,7.5-7.5s-3.357-7.5-7.5-7.5h-53.5c-4.143,0-7.5,3.358-7.5,7.5
	S303.362,183.5,307.505,183.5z"/>
<path d="M361.005,347c33.636,0,61-27.364,61-61s-27.364-61-61-61s-61,27.364-61,61S327.369,347,361.005,347z M361.005,302
	c-8.822,0-16-7.178-16-16s7.178-16,16-16s16,7.178,16,16S369.827,302,361.005,302z M368.505,331.379v-15.301
	c11.078-2.763,19.814-11.5,22.577-22.578h15.301C403.193,312.866,387.871,328.188,368.505,331.379z M361.005,240
	c22.81,0,41.786,16.692,45.379,38.5h-15.301c-3.363-13.481-15.57-23.5-30.077-23.5c-17.094,0-31,13.907-31,31
	c0,14.507,10.019,26.715,23.5,30.078v15.301c-21.808-3.593-38.5-22.569-38.5-45.379C315.005,260.636,335.641,240,361.005,240z"/>
<path d="M509.803,140.697L482,112.895V56c0-20.678-16.822-37.5-37.5-37.5h-377C46.822,18.5,30,35.322,30,56v56.894L2.196,140.697
	C0.79,142.103,0,144.011,0,146v203.5c0,1.989,0.79,3.897,2.196,5.303L30,382.606V456c0,20.678,16.822,37.5,37.5,37.5h377
	c20.678,0,37.5-16.822,37.5-37.5v-73.395l27.803-27.801c1.407-1.407,2.197-3.314,2.197-5.304V146
	C512,144.011,511.21,142.103,509.803,140.697z M497,346.393l-27.803,27.802c-1.407,1.406-2.197,3.314-2.197,5.303V456
	c0,12.407-10.094,22.5-22.5,22.5h-377C55.094,478.5,45,468.407,45,456v-76.5c0-1.989-0.79-3.897-2.196-5.303L15,346.394V149.106
	l27.804-27.803C44.21,119.897,45,117.989,45,116V56c0-12.407,10.094-22.5,22.5-22.5h377c12.406,0,22.5,10.093,22.5,22.5v60.001
	c0,1.989,0.79,3.897,2.197,5.303L497,149.107V346.393z"/>
<g>
</g>
<g>
</g>
<g>
</g>
<g>
</g>
<g>
</g>
<g>
</g>
<g>
</g>
<g>
</g>
<g>
</g>
<g>
</g>
<g>
</g>
<g>
</g>
<g>
</g>
<g>
</g>
<g>
</g>
</svg>
