<?xml version="1.0" encoding="iso-8859-1"?>
<!-- Generator: Adobe Illustrator 19.0.0, SVG Export Plug-In . SVG Version: 6.00 Build 0)  -->
<svg version="1.1" id="Capa_1" xmlns="http://www.w3.org/2000/svg" xmlns:xlink="http://www.w3.org/1999/xlink" x="0px" y="0px"
	 viewBox="0 0 512 512" style="enable-background:new 0 0 512 512;" xml:space="preserve">
<polygon style="fill:#FFE73D;" points="424.5,264.5 424.5,344.5 504.5,314.5 504.5,284.5 "/>
<polygon style="fill:#8C8C8C;" points="474.5,314.5 504.5,314.5 504.5,384.5 474.5,384.5 444.5,349.5 "/>
<rect x="424.5" y="314.5" style="fill:#AAAAAA;" width="50" height="70"/>
<polygon style="fill:#8C8C8C;" points="474.5,254.5 504.5,254.5 504.5,284.5 474.5,284.5 444.5,269.5 "/>
<rect x="424.5" y="254.5" style="fill:#AAAAAA;" width="50" height="30"/>
<polygon style="fill:#C8C8C8;" points="444.5,7.5 444.5,504.5 414.5,504.5 371,256 414.5,7.5 "/>
<polygon style="fill:#E3E3E3;" points="7.5,7.5 7.5,504.5 67.5,504.5 226,444.5 384.5,504.5 414.5,504.5 414.5,7.5 305.25,7.5 
	226,37.5 146.75,7.5 "/>
<polygon style="fill:#FCD10F;" points="305.25,7.5 305.25,97.5 245.25,97.5 275.25,7.5 "/>
<rect x="146.75" y="7.5" style="fill:#FFE73D;" width="128.5" height="90"/>
<polygon style="fill:#FFFFFF;" points="384.5,504.5 354.5,504.5 226,444.5 97.5,504.5 67.5,504.5 67.5,67.5 384.5,67.5 "/>
<polygon style="fill:#363636;" points="294.5,414.5 324.5,504.5 354.5,504.5 354.5,444.5 "/>
<polygon style="fill:#515151;" points="324.5,424.5 324.5,504.5 290.25,504.5 260.25,424.5 "/>
<polygon style="fill:#FFE73D;" points="290.25,424.5 290.25,504.5 226,504.5 196,424.5 "/>
<polygon style="fill:#FFF39E;" points="226,424.5 226,504.5 161.75,504.5 131.75,424.5 "/>
<polygon style="fill:#6F6F6F;" points="161.75,414.5 161.75,504.5 97.5,504.5 97.5,444.5 "/>
<polygon style="fill:#AAAAAA;" points="324.5,97.5 294.5,301 354.5,271 354.5,97.5 "/>
<polygon style="fill:#C8C8C8;" points="324.5,97.5 324.5,271 136,301 226,97.5 "/>
<polygon style="fill:#8C8C8C;" points="324.5,271 284.5,357.75 324.5,444.5 354.5,444.5 354.5,271 "/>
<polygon style="fill:#AAAAAA;" points="146,271 226,444.5 324.5,444.5 324.5,271 "/>
<polygon style="fill:#E3E3E3;" points="226,181 226,97.5 97.5,97.5 97.5,271 176.75,301 256,271 256,211 "/>
<polygon style="fill:#C8C8C8;" points="97.5,271 97.5,444.5 226,444.5 226,361 256,331 256,271 "/>
<path d="M504.5,247H452V7.5c0-4.142-3.358-7.5-7.5-7.5H7.5C3.358,0,0,3.358,0,7.5v497c0,4.142,3.358,7.5,7.5,7.5h437
	c4.142,0,7.5-3.358,7.5-7.5V392h52.5c4.142,0,7.5-3.358,7.5-7.5v-130C512,250.358,508.642,247,504.5,247z M452,307v-15h45v15H452z
	 M497,262v15h-45v-15H497z M154.25,60V15h143.5v45H154.25z M15,15h124.25v45H67.5c-4.142,0-7.5,3.358-7.5,7.5v101.75
	c0,4.142,3.358,7.5,7.5,7.5s7.5-3.358,7.5-7.5V75h302v422h-15V97.5c0-4.142-3.358-7.5-7.5-7.5h-257c-4.142,0-7.5,3.358-7.5,7.5V497
	H75V199.25c0-4.142-3.358-7.5-7.5-7.5s-7.5,3.358-7.5,7.5V497H15V15z M347,105v158.5h-83.5V211c0-1.989-0.79-3.897-2.197-5.303
	L233.5,177.893V105H347z M233.5,437v-72.894l27.803-27.803c1.407-1.406,2.197-3.314,2.197-5.303v-52.5H347V437H233.5z M105,437
	V278.5h143.5v49.394l-27.803,27.803c-1.407,1.406-2.197,3.314-2.197,5.303v76L105,437L105,437z M220.697,186.303l27.803,27.803
	V263.5H105V105h113.5v76C218.5,182.989,219.29,184.896,220.697,186.303z M105,452h49.25v45H105V452z M169.25,452h49.25v45h-49.25
	V452z M233.5,452h49.25v45H233.5V452z M297.75,452H347v45h-49.25V452z M437,497h-45V67.5c0-4.142-3.358-7.5-7.5-7.5h-71.75V15H437
	V497z M452,377v-55h15v32.5c0,4.142,3.358,7.5,7.5,7.5s7.5-3.358,7.5-7.5V322h15v55H452z"/>
<path d="M275.25,30h-98.5c-4.142,0-7.5,3.358-7.5,7.5s3.358,7.5,7.5,7.5h98.5c4.142,0,7.5-3.358,7.5-7.5S279.392,30,275.25,30z"/>
<g>
</g>
<g>
</g>
<g>
</g>
<g>
</g>
<g>
</g>
<g>
</g>
<g>
</g>
<g>
</g>
<g>
</g>
<g>
</g>
<g>
</g>
<g>
</g>
<g>
</g>
<g>
</g>
<g>
</g>
</svg>
