<?xml version="1.0" encoding="iso-8859-1"?>
<!-- Generator: Adobe Illustrator 19.0.0, SVG Export Plug-In . SVG Version: 6.00 Build 0)  -->
<svg version="1.1" id="Capa_1" xmlns="http://www.w3.org/2000/svg" xmlns:xlink="http://www.w3.org/1999/xlink" x="0px" y="0px"
	 viewBox="0 0 512 512" style="enable-background:new 0 0 512 512;" xml:space="preserve">
<circle style="fill:#80D8FF;" cx="256" cy="256" r="248.5"/>
<path style="fill:#C7EFFF;" d="M256,37.5v437c120.674,0,218.5-97.826,218.5-218.5S376.674,37.5,256,37.5z"/>
<path style="fill:#FFFFFF;" d="M444.5,256c0-120.674-84.394-218.5-188.5-218.5C135.326,37.5,37.5,135.326,37.5,256
	S135.326,474.5,256,474.5C360.106,474.5,444.5,376.674,444.5,256z"/>
<path style="fill:#FF7240;" d="M420.85,216.38c-17.33-9.6-25.74-29.89-20.27-48.93c4.58-15.34,0.82-32.63-11.29-44.74
	c-11.02-11.02-26.35-15.131-40.57-12.321v291.222c14.23,2.81,29.55-1.301,40.57-12.321c12.11-12.11,15.87-29.41,11.29-44.74
	c-5.47-19.04,2.94-39.33,20.27-48.93c14.08-7.6,23.65-22.49,23.65-39.62S434.93,223.98,420.85,216.38z"/>
<path style="fill:#FF9570;" d="M394.61,216.38c-14.57-9.6-21.64-29.89-17.04-48.93c3.85-15.34,0.69-32.63-9.49-44.74
	c-5.5-6.54-12.27-10.651-19.36-12.321c-1.402,0.277-2.794,0.619-4.17,1.03c-19.04,5.469-39.335-2.938-48.93-20.268
	C288.016,77.069,273.126,67.5,256,67.5s-32.015,9.568-39.62,23.65c-9.595,17.332-29.891,25.739-48.931,20.268
	c-15.334-4.58-32.629-0.818-44.739,11.292s-15.873,29.405-11.292,44.739c5.47,19.04-2.937,39.335-20.268,48.931
	C77.069,223.984,67.5,238.874,67.5,256c0,17.127,9.569,32.016,23.651,39.62c17.331,9.596,25.737,29.891,20.267,48.931
	c-4.58,15.334-0.818,32.629,11.292,44.739s29.405,15.873,44.74,11.292c19.04-5.469,39.335,2.938,48.93,20.268
	c7.604,14.082,22.494,23.65,39.62,23.65c17.127,0,32.016-9.569,39.62-23.651c9.596-17.331,29.891-25.737,48.931-20.267
	c1.375,0.411,2.767,0.753,4.169,1.029c7.09-1.67,13.86-5.781,19.36-12.321c10.18-12.11,13.34-29.41,9.49-44.74
	c-4.6-19.04,2.47-39.33,17.04-48.93c11.84-7.6,19.89-22.49,19.89-39.62S406.45,223.98,394.61,216.38z"/>
<path style="fill:#C20C00;" d="M256,146v220c60.751,0,110-49.249,110-110S316.751,146,256,146z"/>
<path style="fill:#E52C20;" d="M336,256c0-60.751-35.817-110-80-110c-60.751,0-110,49.249-110,110s49.249,110,110,110
	C300.183,366,336,316.751,336,256z"/>
<path style="fill:#FFDCCF;" d="M256,176v90c24.853,0,45-20.147,45-45S280.853,176,256,176z"/>
<path style="fill:#FFFFFF;" d="M271,221c0-24.853-6.716-45-15-45c-24.853,0-45,20.147-45,45s20.147,45,45,45
	C264.284,266,271,245.853,271,221z"/>
<circle style="fill:#E52C20;" cx="256" cy="221" r="15"/>
<circle style="fill:#FFDCCF;" cx="256" cy="321" r="15"/>
<path d="M437.02,74.98C388.668,26.629,324.38,0,256,0S123.333,26.629,74.98,74.98C26.629,123.333,0,187.62,0,256
	s26.629,132.667,74.98,181.02C123.333,485.371,187.62,512,256,512s132.668-26.629,181.02-74.98C485.371,388.667,512,324.38,512,256
	S485.371,123.333,437.02,74.98z M256,497C123.112,497,15,388.888,15,256S123.112,15,256,15s241,108.112,241,241S388.888,497,256,497
	z"/>
<path d="M394.594,117.407c-9.915-9.915-23.098-15.375-37.12-15.375c-5.113,0-10.184,0.74-14.994,2.178
	c-3.154,0.906-6.406,1.365-9.668,1.365c-12.727,0-24.463-6.919-30.592-17.989C293.03,70.57,275.319,60,256,60
	c-19.32,0-37.03,10.57-46.181,27.517c-6.167,11.139-17.903,18.058-30.631,18.059c-3.261,0-6.514-0.459-9.593-1.343
	c-4.887-1.46-9.956-2.2-15.068-2.2c-14.023,0-27.206,5.46-37.119,15.375c-13.662,13.661-18.711,33.659-13.198,52.113
	c4.532,15.777-2.332,32.348-16.623,40.261C70.57,218.97,60,236.68,60,256c0,19.321,10.571,37.031,27.519,46.182
	c14.359,7.951,21.223,24.522,16.713,40.222c-5.534,18.53-0.485,38.527,13.176,52.188c9.915,9.915,23.098,15.375,37.12,15.375
	c5.112,0,10.183-0.74,14.993-2.178c3.154-0.906,6.407-1.365,9.668-1.365c12.727,0,24.463,6.919,30.592,17.989
	C218.97,441.43,236.681,452,256,452c19.321,0,37.031-10.571,46.182-27.518c6.167-11.138,17.903-18.057,30.63-18.057
	c3.262,0,6.515,0.459,9.593,1.343c4.886,1.459,9.956,2.2,15.068,2.2c14.022,0,27.206-5.461,37.121-15.375
	c13.661-13.662,18.709-33.659,13.196-52.113c-4.532-15.777,2.332-32.348,16.623-40.261C441.43,293.03,452,275.32,452,256
	s-10.571-37.031-27.519-46.182c-14.359-7.951-21.223-24.522-16.713-40.222C413.303,151.066,408.255,131.069,394.594,117.407z
	 M417.285,222.979C429.445,229.545,437,242.199,437,256s-7.554,26.454-19.783,33.059c-20.513,11.356-30.317,35.027-23.821,57.639
	c3.955,13.242,0.35,27.53-9.409,37.289c-7.081,7.082-16.497,10.981-26.514,10.981c-3.657,0-7.283-0.529-10.851-1.594
	c-4.501-1.293-9.147-1.949-13.811-1.949c-18.18,0-34.944,9.883-43.791,25.861C282.455,429.446,269.802,437,256,437
	c-13.801,0-26.454-7.554-33.059-19.783c-8.808-15.909-25.573-25.792-43.753-25.792c-4.662,0-9.309,0.655-13.885,1.971
	c-3.493,1.043-7.118,1.572-10.776,1.572c-10.016,0-19.432-3.9-26.514-10.981c-9.759-9.759-13.364-24.047-9.387-37.365
	c6.474-22.535-3.331-46.205-23.912-57.6C82.555,282.455,75,269.802,75,256c0-13.801,7.554-26.454,19.783-33.059
	c20.513-11.356,30.317-35.027,23.821-57.639c-3.955-13.242-0.35-27.53,9.41-37.289c7.081-7.082,16.496-10.981,26.513-10.981
	c3.657,0,7.283,0.529,10.851,1.594c4.502,1.293,9.148,1.949,13.812,1.949c18.18,0,34.945-9.884,43.791-25.862
	C229.546,82.554,242.198,75,256,75c13.801,0,26.454,7.554,33.059,19.783c8.808,15.91,25.573,25.793,43.753,25.792
	c4.663,0,9.309-0.656,13.885-1.971c3.493-1.043,7.119-1.572,10.777-1.572c10.016,0,19.432,3.9,26.513,10.981
	c9.759,9.759,13.364,24.047,9.387,37.365C386.899,187.913,396.704,211.583,417.285,222.979z"/>
<path d="M256,138.5c-64.79,0-117.5,52.71-117.5,117.5S191.21,373.5,256,373.5S373.5,320.79,373.5,256S320.79,138.5,256,138.5z
	 M256,358.5c-56.519,0-102.5-45.981-102.5-102.5S199.481,153.5,256,153.5S358.5,199.481,358.5,256S312.519,358.5,256,358.5z"/>
<path d="M256,168.5c-28.948,0-52.5,23.551-52.5,52.5s23.552,52.5,52.5,52.5s52.5-23.551,52.5-52.5S284.948,168.5,256,168.5z
	 M256,258.5c-20.678,0-37.5-16.822-37.5-37.5s16.822-37.5,37.5-37.5s37.5,16.822,37.5,37.5S276.678,258.5,256,258.5z"/>
<path d="M256,198.5c-12.406,0-22.5,10.093-22.5,22.5s10.094,22.5,22.5,22.5s22.5-10.093,22.5-22.5S268.406,198.5,256,198.5z
	 M256,228.5c-4.136,0-7.5-3.364-7.5-7.5s3.364-7.5,7.5-7.5c4.136,0,7.5,3.364,7.5,7.5S260.136,228.5,256,228.5z"/>
<path d="M256,298.5c-12.406,0-22.5,10.093-22.5,22.5s10.094,22.5,22.5,22.5s22.5-10.093,22.5-22.5S268.406,298.5,256,298.5z
	 M256,328.5c-4.136,0-7.5-3.364-7.5-7.5s3.364-7.5,7.5-7.5c4.136,0,7.5,3.364,7.5,7.5S260.136,328.5,256,328.5z"/>
<circle cx="151" cy="151" r="7.5"/>
<circle cx="107.5" cy="256" r="7.5"/>
<circle cx="361" cy="361" r="7.5"/>
<circle cx="361" cy="151" r="7.5"/>
<path d="M415.806,96.194C373.12,53.508,316.366,30,256,30c-54.612,0-107.336,19.748-148.457,55.605
	c-3.122,2.722-3.446,7.46-0.724,10.582c2.722,3.123,7.461,3.445,10.581,0.724C155.79,63.436,205.013,45,256,45
	c116.346,0,211,94.654,211,211s-94.654,211-211,211S45,372.346,45,256c0-50.986,18.436-100.209,51.91-138.6
	c2.723-3.122,2.398-7.86-0.724-10.582c-3.12-2.721-7.858-2.399-10.582,0.724C49.748,148.665,30,201.389,30,256
	c0,60.367,23.508,117.12,66.194,159.806S195.634,482,256,482s117.12-23.508,159.806-66.194S482,316.367,482,256
	S458.492,138.88,415.806,96.194z"/>
<g>
</g>
<g>
</g>
<g>
</g>
<g>
</g>
<g>
</g>
<g>
</g>
<g>
</g>
<g>
</g>
<g>
</g>
<g>
</g>
<g>
</g>
<g>
</g>
<g>
</g>
<g>
</g>
<g>
</g>
</svg>
