<?xml version="1.0" encoding="iso-8859-1"?>
<!-- Generator: Adobe Illustrator 19.0.0, SVG Export Plug-In . SVG Version: 6.00 Build 0)  -->
<svg version="1.1" id="Capa_1" xmlns="http://www.w3.org/2000/svg" xmlns:xlink="http://www.w3.org/1999/xlink" x="0px" y="0px"
	 viewBox="0 0 512 512" style="enable-background:new 0 0 512 512;" xml:space="preserve">
<path style="fill:#80D8FF;" d="M256,7.5l103.311,159.251h29.517c1.427-7.867,2.172-15.972,2.172-24.251
	C391,67.942,330.558,7.5,256,7.5z"/>
<path style="fill:#C7EFFF;" d="M256,7.5c-74.558,0-135,60.442-135,135c0,8.279,0.745,16.384,2.172,24.251H359.31
	c1.11-7.867,1.689-15.972,1.689-24.251C361,67.942,313.99,7.5,256,7.5z"/>
<g>
	<rect x="241" y="47.5" style="fill:#007CE6;" width="30" height="101.95"/>
	<rect x="301" y="77.5" style="fill:#007CE6;" width="30" height="71.955"/>
</g>
<g>
	<rect x="181" y="77.5" style="fill:#00B2FF;" width="30" height="71.955"/>
	<path style="fill:#00B2FF;" d="M256,114.5l7,92.251l125.825-40C354.006,134.338,307.323,114.5,256,114.5z"/>
</g>
<path style="fill:#F25031;" d="M388.825,166.751H368.39L256,504.5c107.696,0,195-87.305,195-195
	C451,253.128,427.07,202.353,388.825,166.751z"/>
<path style="fill:#80D8FF;" d="M256,114.5c-51.323,0-98.006,19.838-132.825,52.251l139.826,40l105.39-40
	C338.928,134.338,299.427,114.5,256,114.5z"/>
<path style="fill:#FF7240;" d="M368.391,166.751H123.175C84.93,202.353,61,253.128,61,309.5c0,48.333,17.584,92.559,46.705,126.629
	l100.396,62.444c15.325,3.87,31.372,5.926,47.899,5.926c91.127,0,165-87.305,165-195C421,253.128,400.751,202.353,368.391,166.751z"
	/>
<path style="fill:#E52C20;" d="M163.35,398.62l24.786,93.737c6.497,2.412,13.156,4.488,19.959,6.206
	c9.485-10.611,15.255-24.592,15.255-39.943C223.35,425.48,196.49,398.62,163.35,398.62z"/>
<circle style="fill:#F25031;" cx="114.15" cy="279.5" r="20"/>
<path style="fill:#E52C20;" d="M294.773,344.059v80c22.09,0,40-17.91,40-40S316.863,344.059,294.773,344.059z"/>
<path style="fill:#F25031;" d="M294.773,344.059c5.52,0,10,17.91,10,40s-4.48,40-10,40c-22.1,0-40-17.91-40-40
	S272.673,344.059,294.773,344.059z"/>
<path style="fill:#E52C20;" d="M361.155,201.98v80c22.09,0,40-17.91,40-40S383.245,201.98,361.155,201.98z"/>
<g>
	<path style="fill:#F25031;" d="M361.155,201.98c5.52,0,10,17.91,10,40s-4.48,40-10,40c-22.1,0-40-17.91-40-40
		S339.055,201.98,361.155,201.98z"/>
	<path style="fill:#F25031;" d="M163.35,398.62c-25.178,0-46.734,15.512-55.634,37.505c21.385,25.02,48.988,44.562,80.42,56.232
		c3.288-9.622,5.214-21.221,5.214-33.737C193.35,425.48,179.92,398.62,163.35,398.62z"/>
</g>
<path d="M441.174,227.423c-10.598-23.877-25.5-45.176-44.301-63.375c1.076-7.1,1.627-14.329,1.627-21.548
	C398.5,63.925,334.575,0,256,0S113.5,63.925,113.5,142.5c0,7.219,0.551,14.446,1.627,21.545
	c-18.764,18.162-33.642,39.414-44.24,63.24C59.35,253.225,53.5,280.886,53.5,309.5c0,49.702,18.01,95.27,47.832,130.547
	c0.394,0.642,0.885,1.227,1.465,1.732c26.64,30.812,62.397,53.532,103.035,63.928c0.34,0.108,0.684,0.194,1.032,0.253
	C222.602,509.897,239.059,512,256,512c111.659,0,202.5-90.841,202.5-202.5C458.5,280.939,452.671,253.324,441.174,227.423z M256,15
	c70.304,0,127.5,57.196,127.5,127.5c0,5.605-0.366,11.217-1.091,16.751H129.591c-0.725-5.534-1.091-11.146-1.091-16.751
	C128.5,72.196,185.696,15,256,15z M116.588,434.74c8.923-17.526,26.809-28.622,46.765-28.622c28.949,0,52.5,23.551,52.5,52.5
	c0,11.387-3.694,22.387-10.471,31.435C170.692,480.314,140.044,460.824,116.588,434.74z M256,497
	c-11.958,0-23.654-1.139-34.996-3.289c6.406-10.507,9.849-22.62,9.849-35.093c0-37.22-30.28-67.5-67.5-67.5
	c-23.485,0-44.742,11.952-56.97,31.257C82.617,390.952,68.5,351.845,68.5,309.5c0-50.898,20.987-100.014,57.661-135.249h259.677
	c36.67,35.231,57.661,84.362,57.661,135.249C443.5,412.888,359.388,497,256,497z"/>
<path d="M165.485,144.24c1.175,0,2.368-0.277,3.48-0.861C195.604,129.393,225.7,122,256,122c30.299,0,60.395,7.392,87.031,21.377
	c3.662,1.924,8.2,0.514,10.127-3.154c1.925-3.667,0.514-8.201-3.154-10.126c-3.772-1.98-7.612-3.831-11.504-5.565V77.5
	c0-4.142-3.357-7.5-7.5-7.5h-7.5v-7.5c0-4.142-3.357-7.5-7.5-7.5s-7.5,3.358-7.5,7.5V70H301c-4.143,0-7.5,3.358-7.5,7.5v33.016
	c-4.967-0.934-9.971-1.676-15-2.239V47.5c0-4.142-3.357-7.5-7.5-7.5h-30c-4.142,0-7.5,3.358-7.5,7.5v60.777
	c-5.029,0.563-10.033,1.305-15,2.239V77.5c0-4.142-3.358-7.5-7.5-7.5h-7.5v-7.5c0-4.142-3.358-7.5-7.5-7.5s-7.5,3.358-7.5,7.5V70
	H181c-4.142,0-7.5,3.358-7.5,7.5v47.032c-3.893,1.734-7.734,3.585-11.507,5.567c-3.667,1.925-5.08,6.459-3.154,10.126
	C160.18,142.78,162.787,144.241,165.485,144.24z M308.5,85h15v33.572c-4.936-1.739-9.94-3.284-15-4.637V85z M248.5,55h15v52.156
	c-2.498-0.093-4.998-0.156-7.5-0.156s-5.002,0.063-7.5,0.156V55z M188.5,85h15v28.934c-5.06,1.353-10.064,2.898-15,4.637V85z"/>
<path d="M114.15,252c-15.164,0-27.5,12.336-27.5,27.5s12.336,27.5,27.5,27.5s27.5-12.336,27.5-27.5S129.313,252,114.15,252z
	 M114.15,292c-6.893,0-12.5-5.607-12.5-12.5s5.607-12.5,12.5-12.5s12.5,5.607,12.5,12.5S121.042,292,114.15,292z"/>
<circle cx="164.15" cy="279.5" r="7.5"/>
<circle cx="184.15" cy="309.5" r="7.5"/>
<circle cx="364.77" cy="384.06" r="7.5"/>
<path d="M361.15,194.482c-26.191,0-47.5,21.309-47.5,47.5s21.309,47.5,47.5,47.5s47.5-21.309,47.5-47.5
	S387.342,194.482,361.15,194.482z M361.15,274.482c-17.921,0-32.5-14.58-32.5-32.5s14.579-32.5,32.5-32.5s32.5,14.58,32.5,32.5
	S379.071,274.482,361.15,274.482z"/>
<path d="M294.773,336.559c-26.191,0-47.5,21.309-47.5,47.5c0,6.43,1.266,12.672,3.763,18.552c1.62,3.813,6.024,5.59,9.835,3.972
	c3.813-1.619,5.591-6.022,3.972-9.835c-1.705-4.016-2.57-8.285-2.57-12.689c0-17.92,14.58-32.5,32.501-32.5s32.5,14.58,32.5,32.5
	s-14.579,32.5-32.5,32.5c-4.405,0-8.675-0.864-12.689-2.569c-3.81-1.617-8.215,0.159-9.835,3.972
	c-1.619,3.813,0.159,8.216,3.972,9.834c5.88,2.497,12.122,3.763,18.553,3.763c26.191,0,47.5-21.309,47.5-47.5
	S320.965,336.559,294.773,336.559z"/>
<g>
</g>
<g>
</g>
<g>
</g>
<g>
</g>
<g>
</g>
<g>
</g>
<g>
</g>
<g>
</g>
<g>
</g>
<g>
</g>
<g>
</g>
<g>
</g>
<g>
</g>
<g>
</g>
<g>
</g>
</svg>
