<?xml version="1.0" encoding="iso-8859-1"?>
<!-- Generator: Adobe Illustrator 19.0.0, SVG Export Plug-In . SVG Version: 6.00 Build 0)  -->
<svg version="1.1" id="Capa_1" xmlns="http://www.w3.org/2000/svg" xmlns:xlink="http://www.w3.org/1999/xlink" x="0px" y="0px"
	 viewBox="0 0 512 512" style="enable-background:new 0 0 512 512;" xml:space="preserve">
<polygon style="fill:#FCD10F;" points="331.17,504.5 301.17,504.5 223.33,276.125 331.17,276.125 "/>
<g>
	<rect x="181.17" y="276.12" style="fill:#FFE73D;" width="120" height="228.37"/>
	<path style="fill:#FFE73D;" d="M372.835,123.502l-116,30v-146C320.795,7.502,372.835,59.542,372.835,123.502z"/>
</g>
<path style="fill:#FFF39E;" d="M342.835,123.502l-86,30l-116-30c0-63.96,52.04-116,116-116
	C304.255,7.502,342.835,59.542,342.835,123.502z"/>
<path style="fill:#8C8C8C;" d="M372.835,123.504l-30-0.002l-86.001,91.312l215.666-30
	C444.092,160.034,413.434,136.925,372.835,123.504z"/>
<path style="fill:#AAAAAA;" d="M405.885,184.816l-149.05,29.998l-217.334-30c28.408-24.78,60.736-47.89,101.335-61.31l202-0.002
	C372.612,136.922,405.885,184.816,405.885,184.816z"/>
<polygon style="fill:#8C8C8C;" points="370.078,276.125 355.09,306.125 331.17,306.125 256.834,246.125 "/>
<polygon style="fill:#AAAAAA;" points="342.835,276.125 331.17,306.125 157.25,306.125 156.98,306.265 141.922,276.125 
	256.834,246.125 "/>
<path style="fill:#515151;" d="M256.834,184.814l86.001,91.31h27.243c40.599-13.43,74.014-36.53,102.422-61.31L256.834,184.814z"/>
<path style="fill:#6F6F6F;" d="M39.5,214.814l217.334-30l149.051,30c0,0-33.272,47.88-63.05,61.31H141.922
	C101.323,262.694,67.908,239.594,39.5,214.814z"/>
<polygon style="fill:#FFF39E;" points="439.191,214.814 472.5,214.814 472.5,184.814 439.191,184.816 421.169,199.815 "/>
<polygon style="fill:#FFE73D;" points="405.885,214.814 439.191,214.814 439.191,184.816 405.885,184.816 387.861,199.815 "/>
<polygon style="fill:#FFF39E;" points="372.577,214.814 405.885,214.814 405.885,184.816 372.577,184.816 354.553,199.815 "/>
<polygon style="fill:#FFE73D;" points="339.269,214.814 372.577,214.814 372.577,184.816 339.269,184.816 321.246,199.815 "/>
<polygon style="fill:#FFF39E;" points="305.962,214.814 339.269,214.814 339.269,184.816 305.962,184.816 287.938,199.815 "/>
<polygon style="fill:#FFE73D;" points="272.654,214.814 305.962,214.814 305.962,184.816 272.654,184.816 254.63,199.815 "/>
<polygon style="fill:#FFF39E;" points="239.346,214.814 272.654,214.814 272.654,184.816 239.346,184.816 221.323,199.815 "/>
<polygon style="fill:#FFE73D;" points="206.039,214.814 239.346,214.814 239.346,184.816 206.039,184.816 188.015,199.815 "/>
<polygon style="fill:#FFF39E;" points="172.731,214.814 206.039,214.814 206.039,184.816 172.731,184.816 154.707,199.815 "/>
<polygon style="fill:#FFE73D;" points="139.423,214.814 172.731,214.814 172.731,184.816 139.423,184.816 121.4,199.815 "/>
<polygon style="fill:#FFF39E;" points="106.115,214.814 139.423,214.814 139.423,184.816 106.115,184.816 88.092,199.815 "/>
<polygon style="fill:#FFE73D;" points="72.808,214.814 106.115,214.814 106.115,184.816 72.808,184.816 54.784,199.815 "/>
<rect x="39.5" y="184.82" style="fill:#FFF39E;" width="33.31" height="29.998"/>
<path style="fill:#5A9F2E;" d="M256.835,391.265c-8.284,0-15,6.716-15,15v30h30v-30C271.835,397.98,265.118,391.265,256.835,391.265
	z"/>
<circle style="fill:#FFFFFF;" cx="256.829" cy="351.26" r="15"/>
<path d="M477.43,179.162c-26.685-23.277-56.907-46.688-97.211-61.055C377.384,52.502,323.125,0,256.835,0
	S136.286,52.5,133.451,118.104c-43.065,15.304-75.357,40.537-98.881,61.057c-0.064,0.056-0.12,0.118-0.181,0.176
	c-0.097,0.091-0.194,0.182-0.286,0.278c-0.086,0.089-0.167,0.18-0.248,0.273c-0.088,0.1-0.173,0.203-0.255,0.308
	c-0.073,0.093-0.144,0.187-0.212,0.284c-0.082,0.116-0.16,0.235-0.236,0.355c-0.057,0.092-0.115,0.183-0.168,0.276
	c-0.078,0.136-0.148,0.276-0.217,0.418c-0.042,0.085-0.085,0.169-0.124,0.256c-0.07,0.158-0.13,0.32-0.189,0.483
	c-0.028,0.077-0.059,0.152-0.084,0.23c-0.058,0.178-0.105,0.36-0.149,0.544c-0.017,0.068-0.038,0.135-0.052,0.204
	c-0.042,0.196-0.071,0.395-0.097,0.596c-0.008,0.06-0.021,0.119-0.027,0.179c-0.026,0.25-0.04,0.504-0.041,0.761
	C32,184.813,32,214.814,32,214.814c0,0.269,0.015,0.533,0.043,0.794c0.004,0.038,0.013,0.075,0.017,0.113
	c0.027,0.225,0.062,0.448,0.108,0.667c0.01,0.045,0.024,0.09,0.035,0.135c0.049,0.209,0.104,0.416,0.169,0.618
	c0.018,0.054,0.04,0.107,0.059,0.161c0.067,0.189,0.138,0.376,0.219,0.558c0.028,0.063,0.06,0.124,0.09,0.187
	c0.08,0.168,0.165,0.333,0.257,0.493c0.04,0.07,0.083,0.138,0.126,0.207c0.091,0.148,0.186,0.292,0.287,0.433
	c0.052,0.072,0.105,0.143,0.159,0.213c0.103,0.133,0.21,0.262,0.322,0.388c0.059,0.067,0.119,0.134,0.181,0.199
	c0.122,0.127,0.248,0.249,0.379,0.368c0.041,0.037,0.077,0.079,0.119,0.116c0.047,0.041,0.094,0.08,0.141,0.121
	c33.865,29.51,67.218,49.698,101.883,61.655l13.674,27.368c1.27,2.542,3.868,4.148,6.709,4.148c0.005,0,16.693-0.011,16.693-0.011
	V504.5c0,4.142,3.358,7.5,7.5,7.5s7.5-3.358,7.5-7.5V313.735l135-0.09V504.5c0,4.142,3.358,7.5,7.5,7.5s7.5-3.358,7.5-7.5V313.635
	l16.425-0.011c2.84-0.002,5.435-1.607,6.705-4.148l13.607-27.236c34.725-11.978,68.131-32.209,102.024-61.774
	c1.633-1.424,2.57-3.485,2.57-5.652v-30C480,182.647,479.063,180.586,477.43,179.162z M446.691,207.314v-15H465v15H446.691z
	 M413.385,207.314v-15h18.308v15H413.385z M380.077,207.314v-15h18.308v15H380.077z M346.77,207.314v-15h18.308v15H346.77z
	 M313.461,207.314v-15h18.308v15H313.461z M280.154,207.314v-15h18.308v15H280.154z M246.846,207.313v-15h18.308v15H246.846z
	 M213.539,207.313v-15h18.308v15H213.539z M180.231,207.313v-15h18.308v15H180.231z M146.923,207.313v-15h18.308v15H146.923z
	 M113.616,207.313v-15h18.308v15H113.616z M80.308,207.313v-15h18.308v15H80.308z M47,207.313v-15h18.308v15H47z M142.069,131
	h229.493c32.151,10.825,57.83,27.985,80.416,46.314l-391.796-0.001C88.217,154.982,114.084,140.411,142.069,131z M256.835,15
	c57.306,0,104.37,44.659,108.236,101H148.599C152.465,59.659,199.529,15,256.835,15z M350.451,298.627l-18.972,0.013
	c-0.103-0.004-0.205-0.016-0.309-0.016c-0.107,0-0.211,0.012-0.317,0.016l-148.416,0.099c-0.413-0.07-0.834-0.115-1.267-0.115
	c-0.437,0-0.862,0.045-1.278,0.117l-18.28,0.012l-12.981-25.981c-0.892-1.786-2.459-3.142-4.354-3.769
	c-28.468-9.414-56.089-24.767-83.972-46.691h12.467c0.072,0,33.311,0,33.311,0c0.066,0,33.311,0,33.311,0c0.06,0,33.311,0,33.311,0
	c0.054,0,33.311,0,33.311,0c0.048,0,33.311,0,33.311,0c0.042,0,33.311,0,33.311,0c0.036,0,33.311,0,33.311,0
	c0.03,0,33.311,0,33.311,0c0.023,0,33.311,0,33.311,0c0.017,0,33.311,0,33.311,0c0.011,0,33.311,0,33.311,0
	c0.005,0,12.506,0,12.506,0c-27.535,21.651-54.818,36.879-82.914,46.323l-193.268,0.107c-4.143,0.002-7.499,3.362-7.496,7.504
	c0.002,4.141,3.359,7.496,7.5,7.496c0.004,0,182.42-0.101,182.42-0.101L350.451,298.627z"/>
<path d="M256.835,383.765c-12.407,0-22.5,10.093-22.5,22.5V474.5c0,4.142,3.358,7.5,7.5,7.5s7.5-3.358,7.5-7.5v-30.735h15V474.5
	c0,4.142,3.358,7.5,7.5,7.5s7.5-3.358,7.5-7.5v-68.235C279.335,393.858,269.242,383.765,256.835,383.765z M249.335,428.765v-22.5
	c0-4.136,3.364-7.5,7.5-7.5s7.5,3.364,7.5,7.5v22.5H249.335z"/>
<path d="M256.835,328.765c-12.407,0-22.5,10.093-22.5,22.5s10.093,22.5,22.5,22.5c12.407,0,22.5-10.093,22.5-22.5
	S269.242,328.765,256.835,328.765z M256.835,358.765c-4.136,0-7.5-3.364-7.5-7.5s3.364-7.5,7.5-7.5c4.136,0,7.5,3.364,7.5,7.5
	S260.971,358.765,256.835,358.765z"/>
<g>
</g>
<g>
</g>
<g>
</g>
<g>
</g>
<g>
</g>
<g>
</g>
<g>
</g>
<g>
</g>
<g>
</g>
<g>
</g>
<g>
</g>
<g>
</g>
<g>
</g>
<g>
</g>
<g>
</g>
</svg>
