<?xml version="1.0" encoding="iso-8859-1"?>
<!-- Generator: Adobe Illustrator 19.0.0, SVG Export Plug-In . SVG Version: 6.00 Build 0)  -->
<svg version="1.1" id="Capa_1" xmlns="http://www.w3.org/2000/svg" xmlns:xlink="http://www.w3.org/1999/xlink" x="0px" y="0px"
	 viewBox="0 0 512 512" style="enable-background:new 0 0 512 512;" xml:space="preserve">
<path style="fill:#FF7240;" d="M386.001,174.834l-30,30l-30-30c0-20.76,12.31-38.64,30-46.67
	C373.691,136.194,386.001,154.074,386.001,174.834z"/>
<polygon style="fill:#E3E3E3;" points="386.001,174.834 386.001,285.704 296.001,285.704 326.001,174.834 "/>
<path style="fill:#FF7240;" d="M126.001,174.834l30,30l30-30c0-20.76-12.31-38.64-30-46.67
	C138.311,136.194,126.001,154.074,126.001,174.834z"/>
<polygon style="fill:#E3E3E3;" points="126.001,174.834 126.001,285.704 216.001,285.704 186.001,174.834 "/>
<polygon style="fill:#AAAAAA;" points="296,444.5 296,504.5 266,504.5 236,444.5 "/>
<g>
	<rect x="216" y="444.5" style="fill:#C8C8C8;" width="50" height="60"/>
	<polygon style="fill:#C8C8C8;" points="437,474.5 437,504.5 407,504.5 377,444.5 	"/>
</g>
<polygon style="fill:#E3E3E3;" points="407,444.5 407,504.5 357,504.5 357,474.5 "/>
<polygon style="fill:#AAAAAA;" points="437,414.5 437,474.5 407,474.5 377,414.5 "/>
<rect x="357" y="414.5" style="fill:#C8C8C8;" width="50" height="60"/>
<polygon style="fill:#FF7240;" points="467,414.5 467,444.5 437,444.5 407,384.5 "/>
<polygon style="fill:#C8C8C8;" points="155,474.5 155,504.5 125,504.5 95,444.5 "/>
<polygon style="fill:#E3E3E3;" points="125,444.5 125,504.5 75,504.5 75,474.5 "/>
<polygon style="fill:#AAAAAA;" points="155,414.5 155,474.5 125,474.5 95,414.5 "/>
<rect x="75" y="414.5" style="fill:#C8C8C8;" width="50" height="60"/>
<g>
	<polygon style="fill:#FF9570;" points="45,414.5 45,444.5 216,444.5 216,384.5 	"/>
	<rect x="296" y="384.5" style="fill:#FF9570;" width="141" height="60"/>
</g>
<polygon style="fill:#80D8FF;" points="326,444.5 326,474.5 296,474.5 266,354.5 326,414.5 "/>
<path style="fill:#00B2FF;" d="M446.36,309.21l-24.42-21.18L437,414.5h30v-60C467,336.421,459.01,320.21,446.36,309.21z"/>
<g>
	<path style="fill:#80D8FF;" d="M256,7.5v257.33l70-60v-88.44C326,67.94,297.28,26.23,256,7.5z"/>
	<path style="fill:#80D8FF;" d="M186,204.83l30,209.67H45v-60c0-18.08,7.99-34.29,20.64-45.29L186,204.83z"/>
	<path style="fill:#80D8FF;" d="M437,327.79v86.71H296l30-209.67l95.93,83.19C431.32,298.62,437,312.54,437,327.79z"/>
</g>
<g>
	<polygon style="fill:#C7EFFF;" points="186,414.5 186,474.5 296,474.5 296,354.5 	"/>
	<path style="fill:#C7EFFF;" d="M256,7.5c23.59,18.73,40,60.44,40,108.89v148.44l-110-60v-88.44C186,67.94,214.72,26.23,256,7.5z"/>
</g>
<polygon style="fill:#0045CC;" points="326,204.83 326,414.5 296,414.5 246,309.665 296,204.83 "/>
<rect x="186" y="204.83" style="fill:#007CE6;" width="110" height="209.67"/>
<path d="M296,407h-80c-4.143,0-7.5,3.358-7.5,7.5s3.357,7.5,7.5,7.5h80c4.143,0,7.5-3.358,7.5-7.5S300.142,407,296,407z"/>
<path d="M296.001,197.33L216,197.332c-4.143,0-7.5,3.358-7.5,7.5s3.358,7.5,7.5,7.5l80.001-0.001c4.143,0,7.5-3.358,7.5-7.5
	S300.142,197.33,296.001,197.33z"/>
<path d="M451.273,303.546l-57.772-50.104V174.83c0-23.016-13.503-44.014-34.401-53.496c-1.969-0.895-4.229-0.894-6.197,0
	c-7.523,3.413-14.08,8.325-19.401,14.279v-19.225c0-49.788-29.204-95.21-74.402-115.718c-1.969-0.894-4.229-0.894-6.197,0
	C207.704,21.178,178.5,66.6,178.5,116.388v19.227c-5.322-5.956-11.88-10.868-19.403-14.281c-1.969-0.895-4.229-0.894-6.197,0
	c-20.898,9.482-34.401,30.481-34.401,53.496v78.614L60.72,303.553C45.963,316.388,37.5,334.957,37.5,354.5v90
	c0,4.142,3.357,7.5,7.5,7.5h22.5v52.5c0,4.142,3.357,7.5,7.5,7.5h80c4.143,0,7.5-3.358,7.5-7.5V452h16v22.5
	c0,4.142,3.357,7.5,7.5,7.5h22.5v22.5c0,4.142,3.357,7.5,7.5,7.5h80c4.143,0,7.5-3.358,7.5-7.5V482h22.501
	c4.143,0,7.5-3.358,7.5-7.5V452H349.5v52.5c0,4.142,3.357,7.5,7.5,7.5h80c4.143,0,7.5-3.358,7.5-7.5V452H467
	c4.143,0,7.5-3.358,7.5-7.5v-90C474.5,334.957,466.037,316.388,451.273,303.546z M459.5,354.5V407H333.501V221.262l107.937,93.608
	C452.916,324.856,459.5,339.3,459.5,354.5z M333.501,201.407V182.33h45v58.103L333.501,201.407z M356.001,136.552
	c11.581,6.419,19.57,17.817,21.828,30.778h-43.656C336.431,154.37,344.42,142.972,356.001,136.552z M155.998,136.552
	c11.581,6.419,19.57,17.817,21.828,30.778H134.17C136.428,154.37,144.417,142.972,155.998,136.552z M133.498,182.33H178.5v19.078
	l-45.002,39.028V182.33z M82.5,497v-15h65v15H82.5z M147.5,467h-65v-15h65V467z M52.5,437v-15h126v15H52.5z M288.5,497h-65v-15h65
	V497z M318.501,467H193.5v-82.5c0-4.142-3.357-7.5-7.5-7.5s-7.5,3.358-7.5,7.5V407h-126v-52.5c0-15.2,6.584-29.644,18.055-39.622
	L178.5,221.264V354.5c0,4.142,3.357,7.5,7.5,7.5s7.5-3.358,7.5-7.5V116.388c0-42.767,24.421-81.877,62.5-100.595
	c38.08,18.717,62.501,57.828,62.501,100.595V467z M364.5,497v-15h65v15H364.5z M429.5,467h-65v-15h65V467z M333.501,437v-15H459.5
	v15H333.501z"/>
<path d="M215.999,182.33c4.143,0,7.5-3.358,7.5-7.5v-15c0-4.142-3.357-7.5-7.5-7.5s-7.5,3.358-7.5,7.5v15
	C208.499,178.972,211.856,182.33,215.999,182.33z"/>
<path d="M256,182.33c4.143,0,7.5-3.358,7.5-7.5v-15c0-4.142-3.357-7.5-7.5-7.5s-7.5,3.358-7.5,7.5v15
	C248.5,178.972,251.857,182.33,256,182.33z"/>
<path d="M295.998,182.33c4.143,0,7.5-3.358,7.5-7.5v-15c0-4.142-3.357-7.5-7.5-7.5s-7.5,3.358-7.5,7.5v15
	C288.498,178.972,291.855,182.33,295.998,182.33z"/>
<g>
</g>
<g>
</g>
<g>
</g>
<g>
</g>
<g>
</g>
<g>
</g>
<g>
</g>
<g>
</g>
<g>
</g>
<g>
</g>
<g>
</g>
<g>
</g>
<g>
</g>
<g>
</g>
<g>
</g>
</svg>
