<?xml version="1.0" encoding="iso-8859-1"?>
<!-- Generator: Adobe Illustrator 19.0.0, SVG Export Plug-In . SVG Version: 6.00 Build 0)  -->
<svg version="1.1" id="Capa_1" xmlns="http://www.w3.org/2000/svg" xmlns:xlink="http://www.w3.org/1999/xlink" x="0px" y="0px"
	 viewBox="0 0 512 512" style="enable-background:new 0 0 512 512;" xml:space="preserve">
<rect x="231" y="52.5" style="fill:#C8C8C8;" width="50" height="61.51"/>
<circle style="fill:#AAAAAA;" cx="256" cy="298.5" r="206"/>
<path style="fill:#E3E3E3;" d="M256,122.5v352c97.047,0,176-78.953,176-176S353.047,122.5,256,122.5z"/>
<path style="fill:#FFFFFF;" d="M402,298.5c0-97.047-65.495-176-146-176c-97.047,0-176,78.953-176,176s78.953,176,176,176
	C336.505,474.5,402,395.547,402,298.5z"/>
<path style="fill:#FFF39E;" d="M256,408c-59.552,0-108-48.448-108-108s48.448-108,108-108s108,48.448,108,108S315.552,408,256,408z"
	/>
<g>
	<polygon style="fill:#FF7240;" points="287.99,244.771 256,300 311.229,268.01 332.259,223.741 	"/>
	<polygon style="fill:#FF7240;" points="224.01,244.771 256,300 200.771,268.01 179.741,223.741 	"/>
	<polygon style="fill:#FF7240;" points="287.99,355.229 256,300 311.229,331.99 332.259,376.259 	"/>
	<polygon style="fill:#FF7240;" points="224.01,355.229 256,300 200.771,331.99 179.741,376.259 	"/>
</g>
<polygon style="fill:#00B2FF;" points="402,300 294.046,261.954 256,154 237.954,281.954 110,300 217.954,338.046 256,446 
	274.046,318.046 "/>
<polygon style="fill:#007CE6;" points="256,446 294.046,338.046 402,300 256,300 "/>
<polygon style="fill:#80D8FF;" points="256,154 217.954,261.954 110,300 256,300 "/>
<circle style="fill:#AAAAAA;" cx="256" cy="300" r="17.5"/>
<path d="M288.5,87.469V75h2.5c20.678,0,37.5-16.822,37.5-37.5S311.678,0,291,0h-70c-20.678,0-37.5,16.822-37.5,37.5
	S200.322,75,221,75h2.5v12.469c-102.355,15.699-181,104.353-181,211.031C42.5,416.224,138.276,512,256,512
	c117.725,0,213.5-95.776,213.5-213.5C469.5,191.823,390.856,103.168,288.5,87.469z M221,60c-12.407,0-22.5-10.093-22.5-22.5
	S208.593,15,221,15h70c12.406,0,22.5,10.093,22.5,22.5S303.406,60,291,60h-2.5v-7.5c0-4.142-3.357-7.5-7.5-7.5h-50
	c-4.142,0-7.5,3.358-7.5,7.5V60H221z M238.5,60h35v25.721C267.727,85.251,261.892,85,256,85s-11.727,0.251-17.5,0.721V60z M256,497
	c-109.453,0-198.5-89.047-198.5-198.5S146.547,100,256,100s198.5,89.047,198.5,198.5S365.453,497,256,497z"/>
<path d="M174.437,381.563c17.088,17.087,38.517,28.126,62.216,32.105l12.273,34.825c1.058,3,3.893,5.007,7.074,5.007
	s6.017-2.007,7.073-5.007l12.273-34.825c23.7-3.979,45.129-15.018,62.216-32.105c17.086-17.087,28.126-38.516,32.106-62.216
	l34.825-12.273c3-1.058,5.007-3.893,5.007-7.074s-2.007-6.016-5.007-7.074l-34.825-12.273c-3.98-23.699-15.019-45.129-32.106-62.216
	c-17.087-17.087-38.516-28.126-62.216-32.105l-12.273-34.825c-1.057-3-3.893-5.007-7.073-5.007c-3.181,0-6.016,2.007-7.074,5.007
	l-12.273,34.825c-23.699,3.979-45.128,15.018-62.216,32.105c-17.087,17.088-28.126,38.517-32.105,62.216l-34.825,12.273
	c-3,1.058-5.007,3.893-5.007,7.074s2.007,6.016,5.007,7.074l34.825,12.273C146.312,343.046,157.35,364.475,174.437,381.563z
	 M212.075,343.925l2.617,7.427l-19.133,9.089l9.089-19.133L212.075,343.925z M177.798,362.869
	c-8.971-11.116-15.383-23.87-18.916-37.69l31.541,11.116L177.798,362.869z M193.131,378.202l26.575-12.625l11.116,31.541
	C217,393.584,204.247,387.172,193.131,378.202z M307.352,341.308l9.089,19.134l-19.133-9.09l2.617-7.427L307.352,341.308z
	 M292.295,365.577l26.574,12.625c-11.116,8.971-23.869,15.383-37.69,18.916L292.295,365.577z M334.201,362.869l-12.624-26.574
	l31.541-11.115C349.584,339,343.172,351.753,334.201,362.869z M299.926,256.075l-2.617-7.427l19.133-9.09l-9.089,19.134
	L299.926,256.075z M334.201,237.131c8.971,11.116,15.383,23.869,18.917,37.69l-31.541-11.115L334.201,237.131z M318.869,221.798
	l-26.574,12.625l-11.116-31.541C295,206.415,307.753,212.828,318.869,221.798z M204.648,258.692l-9.089-19.133l19.133,9.089
	l-2.617,7.427L204.648,258.692z M219.705,234.423l-26.575-12.625c11.116-8.971,23.87-15.383,37.69-18.916L219.705,234.423z
	 M177.798,237.131l12.625,26.575l-31.541,11.116C162.416,261,168.828,248.247,177.798,237.131z M220.447,269.028
	c2.142-0.755,3.826-2.439,4.581-4.581L256,176.564l30.973,87.883c0.755,2.142,2.438,3.826,4.58,4.581L379.436,300l-87.883,30.972
	c-2.142,0.755-3.825,2.439-4.58,4.581L256,423.436l-30.972-87.883c-0.755-2.142-2.439-3.826-4.581-4.581L132.564,300
	L220.447,269.028z"/>
<path d="M256,325c13.785,0,25-11.215,25-25s-11.215-25-25-25s-25,11.215-25,25S242.215,325,256,325z M256,290
	c5.514,0,10,4.486,10,10s-4.486,10-10,10s-10-4.486-10-10S250.486,290,256,290z"/>
<path d="M256,115c-101.182,0-183.5,82.318-183.5,183.5c0,43.564,15.605,85.83,43.942,119.012c2.69,3.15,7.425,3.523,10.574,0.833
	c3.15-2.689,3.522-7.424,0.833-10.574C101.83,377.302,87.5,338.496,87.5,298.5C87.5,205.589,163.089,130,256,130
	s168.5,75.589,168.5,168.5S348.911,467,256,467c-39.26,0-77.513-13.862-107.714-39.032c-3.182-2.652-7.912-2.223-10.563,0.959
	c-2.652,3.182-2.222,7.911,0.959,10.563C171.574,466.903,213.238,482,256,482c101.183,0,183.5-82.318,183.5-183.5
	S357.183,115,256,115z"/>
<g>
</g>
<g>
</g>
<g>
</g>
<g>
</g>
<g>
</g>
<g>
</g>
<g>
</g>
<g>
</g>
<g>
</g>
<g>
</g>
<g>
</g>
<g>
</g>
<g>
</g>
<g>
</g>
<g>
</g>
</svg>
