<?xml version="1.0" encoding="iso-8859-1"?>
<!-- Generator: Adobe Illustrator 19.0.0, SVG Export Plug-In . SVG Version: 6.00 Build 0)  -->
<svg version="1.1" id="Capa_1" xmlns="http://www.w3.org/2000/svg" xmlns:xlink="http://www.w3.org/1999/xlink" x="0px" y="0px"
	 viewBox="0 0 512 512" style="enable-background:new 0 0 512 512;" xml:space="preserve">
<polygon style="fill:#FFE73D;" points="331,117.5 271,117.5 301,7.5 331,7.5 "/>
<polygon style="fill:#FFF39E;" points="241,117.5 181,117.5 181,7.5 211,7.5 "/>
<rect x="211" y="7.5" style="fill:#007CE6;" width="90" height="110"/>
<polygon style="fill:#515151;" points="467,177.5 467,237.5 437,237.5 256,117.5 "/>
<polygon style="fill:#6F6F6F;" points="437,168.63 437,237.5 45,237.5 45,177.5 256,117.5 "/>
<polygon style="fill:#8C8C8C;" points="504.5,87.5 504.5,207.5 474.5,207.5 424.5,147.5 474.5,87.5 "/>
<rect x="7.5" y="87.5" style="fill:#AAAAAA;" width="467" height="120"/>
<path style="fill:#C8C8C8;" d="M351,287.5h-30l29.99,214.432c4.694,1.662,9.745,2.568,15.01,2.568c24.853,0,45-20.147,45-45v-112
	C411,314.416,384.084,287.5,351,287.5z"/>
<path style="fill:#E3E3E3;" d="M381,459.5v-112c0-33.084-26.916-60-60-60H161c-33.084,0-60,26.916-60,60v112
	c0,24.853,20.147,45,45,45c18.857,0,34.996-11.604,41.689-28.057l28.558-68.944h79.506l28.558,68.944
	c4.825,11.86,14.559,21.198,26.68,25.489C368.471,495.756,381,479.095,381,459.5z"/>
<polygon style="fill:#AAAAAA;" points="291,362.5 256,362.5 236,347.5 256,332.5 291,332.5 "/>
<rect x="221" y="332.5" style="fill:#C8C8C8;" width="35" height="30"/>
<path style="fill:#515151;" d="M444.5,117.5v60c16.543,0,30-13.458,30-30S461.043,117.5,444.5,117.5z"/>
<path style="fill:#6F6F6F;" d="M454.5,147.5c0-16.542-4.486-30-10-30c-16.543,0-30,13.458-30,30s13.457,30,30,30
	C450.014,177.5,454.5,164.042,454.5,147.5z"/>
<path style="fill:#515151;" d="M161,317.5v60c16.543,0,30-13.458,30-30S177.543,317.5,161,317.5z"/>
<path style="fill:#6F6F6F;" d="M171,347.5c0-16.542-4.486-30-10-30c-16.543,0-30,13.458-30,30s13.457,30,30,30
	C166.514,377.5,171,364.042,171,347.5z"/>
<path style="fill:#AAAAAA;" d="M146,437.5c-8.271,0-15-6.729-15-15s6.729-15,15-15s15,6.729,15,15S154.271,437.5,146,437.5z"/>
<path style="fill:#FFE73D;" d="M366,437.5c-8.271,0-15-6.729-15-15s6.729-15,15-15s15,6.729,15,15S374.271,437.5,366,437.5z"/>
<path d="M444.5,185c20.678,0,37.5-16.822,37.5-37.5S465.178,110,444.5,110S407,126.822,407,147.5S423.822,185,444.5,185z M444.5,125
	c12.406,0,22.5,10.093,22.5,22.5S456.906,170,444.5,170S422,159.907,422,147.5S432.094,125,444.5,125z"/>
<path d="M256,140H37.5c-4.143,0-7.5,3.358-7.5,7.5s3.357,7.5,7.5,7.5H256c4.143,0,7.5-3.358,7.5-7.5S260.143,140,256,140z"/>
<path d="M504.5,80h-166V7.5c0-4.142-3.357-7.5-7.5-7.5H181c-4.143,0-7.5,3.358-7.5,7.5V80H7.5C3.357,80,0,83.358,0,87.5v120
	c0,4.142,3.357,7.5,7.5,7.5h30v22.5c0,4.142,3.357,7.5,7.5,7.5h422c4.143,0,7.5-3.358,7.5-7.5V215h30c4.143,0,7.5-3.358,7.5-7.5
	v-120C512,83.358,508.643,80,504.5,80z M323.5,80h-15V15h15V80z M218.5,80V15h75v65H218.5z M188.5,15h15v65h-15V15z M497,200H105
	c-4.143,0-7.5,3.358-7.5,7.5s3.357,7.5,7.5,7.5h354.5v15h-407v-15H75c4.143,0,7.5-3.358,7.5-7.5S79.143,200,75,200H15V95h482V200z"
	/>
<path d="M291,325h-70c-4.143,0-7.5,3.358-7.5,7.5v30c0,4.142,3.357,7.5,7.5,7.5h70c4.143,0,7.5-3.358,7.5-7.5v-30
	C298.5,328.358,295.143,325,291,325z M228.5,340h20v15h-20V340z M283.5,355h-20v-15h20V355z"/>
<path d="M161,310c-20.678,0-37.5,16.822-37.5,37.5S140.322,385,161,385s37.5-16.822,37.5-37.5S181.678,310,161,310z M161,370
	c-12.406,0-22.5-10.093-22.5-22.5S148.594,325,161,325s22.5,10.093,22.5,22.5S173.406,370,161,370z"/>
<path d="M146,400c-12.406,0-22.5,10.093-22.5,22.5S133.594,445,146,445s22.5-10.093,22.5-22.5S158.406,400,146,400z M146,430
	c-4.136,0-7.5-3.364-7.5-7.5s3.364-7.5,7.5-7.5s7.5,3.364,7.5,7.5S150.136,430,146,430z"/>
<path d="M366,400c-12.406,0-22.5,10.093-22.5,22.5S353.594,445,366,445s22.5-10.093,22.5-22.5S378.406,400,366,400z M366,430
	c-4.136,0-7.5-3.364-7.5-7.5s3.364-7.5,7.5-7.5s7.5,3.364,7.5,7.5S370.136,430,366,430z"/>
<path d="M351,280H161c-37.22,0-67.5,30.28-67.5,67.5v112c0,28.949,23.552,52.5,52.5,52.5c21.457,0,40.548-12.848,48.618-32.687
	L221.259,415h69.482l26.622,64.27C325.452,499.152,344.543,512,366,512c28.948,0,52.5-23.551,52.5-52.5v-112
	C418.5,310.28,388.22,280,351,280z M403.5,459.5c0,20.678-16.822,37.5-37.5,37.5c-15.326,0-28.964-9.178-34.761-23.427
	l-28.558-68.944c-1.16-2.803-3.896-4.63-6.929-4.63h-79.506c-3.033,0-5.769,1.827-6.929,4.63l-28.576,68.987
	C174.964,487.822,161.326,497,146,497c-20.678,0-37.5-16.822-37.5-37.5v-112c0-28.949,23.552-52.5,52.5-52.5h190
	c28.948,0,52.5,23.551,52.5,52.5V459.5z"/>
<path d="M381,340h-22.5v-22.5c0-4.142-3.357-7.5-7.5-7.5s-7.5,3.358-7.5,7.5V340H321c-4.143,0-7.5,3.358-7.5,7.5s3.357,7.5,7.5,7.5
	h22.5v22.5c0,4.142,3.357,7.5,7.5,7.5s7.5-3.358,7.5-7.5V355H381c4.143,0,7.5-3.358,7.5-7.5S385.143,340,381,340z"/>
<g>
</g>
<g>
</g>
<g>
</g>
<g>
</g>
<g>
</g>
<g>
</g>
<g>
</g>
<g>
</g>
<g>
</g>
<g>
</g>
<g>
</g>
<g>
</g>
<g>
</g>
<g>
</g>
<g>
</g>
</svg>
