<?xml version="1.0" encoding="iso-8859-1"?>
<!-- Generator: Adobe Illustrator 19.0.0, SVG Export Plug-In . SVG Version: 6.00 Build 0)  -->
<svg version="1.1" id="Capa_1" xmlns="http://www.w3.org/2000/svg" xmlns:xlink="http://www.w3.org/1999/xlink" x="0px" y="0px"
	 viewBox="0 0 512 512" style="enable-background:new 0 0 512 512;" xml:space="preserve">
<polygon style="fill:#515151;" points="474.5,409.5 474.5,469.5 444.5,469.5 256,319.5 "/>
<polygon style="fill:#6F6F6F;" points="444.5,397.63 444.5,469.5 37.5,469.5 37.5,409.5 256,319.5 "/>
<polygon style="fill:#F25031;" points="504.5,42.5 504.5,409.5 474.5,409.5 424.5,226 474.5,42.5 "/>
<rect x="7.5" y="42.5" style="fill:#FF7240;" width="467" height="367"/>
<path style="fill:#AAAAAA;" d="M354.5,82.5h-30v287h30c22,0,40-18,40-40v-207C394.5,100.5,376.5,82.5,354.5,82.5z"/>
<path style="fill:#C8C8C8;" d="M364.5,122.5v207c0,22-18,40-40,40h-237c-22,0-40-18-40-40v-207c0-22,18-40,40-40h237
	C346.5,82.5,364.5,100.5,364.5,122.5z"/>
<g>
	<circle style="fill:#E3E3E3;" cx="449.5" cy="147.5" r="25"/>
	<polygon style="fill:#E3E3E3;" points="294.5,269.5 294.5,369.5 264.5,369.5 264.5,239.5 	"/>
</g>
<polygon style="fill:#FFFFFF;" points="264.5,239.5 264.5,369.5 147.5,369.5 147.5,269.5 "/>
<rect x="147.5" y="219.5" style="fill:#AAAAAA;" width="147" height="50"/>
<polygon style="fill:#E3E3E3;" points="276.14,112.5 294.5,160.5 221,190.5 256.61,112.5 "/>
<polygon style="fill:#FFFFFF;" points="256.61,112.5 264.5,160.5 221,190.5 147.5,160.5 165.86,112.5 "/>
<path style="fill:#6F6F6F;" d="M364.5,200c-18.32-15.96-43.82-30.85-70-39.5h-30L77.55,200.04c18.32,15.95,43.79,30.82,69.95,39.46
	h117l99.95-39.46C364.47,200.03,364.48,200.01,364.5,200z"/>
<path style="fill:#515151;" d="M310.36,200c-12.06,15.957-28.838,30.813-46.07,39.46l30.21,0.04c26.16-8.64,51.63-23.51,69.95-39.46
	L310.36,200z"/>
<path style="fill:#8C8C8C;" d="M310.36,200c-0.03,0.04-232.81,0.04-232.81,0.04c-0.02-0.01-0.03-0.03-0.05-0.04
	c18.32-15.96,43.82-30.85,70-39.5h117C281.65,169.15,298.36,184.04,310.36,200z"/>
<path d="M449.5,180c17.921,0,32.5-14.58,32.5-32.5S467.421,115,449.5,115S417,129.58,417,147.5S431.579,180,449.5,180z M449.5,130
	c9.649,0,17.5,7.851,17.5,17.5s-7.851,17.5-17.5,17.5s-17.5-7.851-17.5-17.5S439.851,130,449.5,130z"/>
<path d="M72.573,205.678c18.629,16.231,42.949,30.324,67.427,39.16V339.5c0,4.142,3.357,7.5,7.5,7.5s7.5-3.358,7.5-7.5V277h132v62.5
	c0,4.142,3.357,7.5,7.5,7.5s7.5-3.358,7.5-7.5v-94.661c24.479-8.837,48.8-22.929,67.427-39.161c1.635-1.424,2.573-3.486,2.573-5.654
	s-0.938-4.23-2.573-5.654c-19.123-16.664-44.161-31.06-69.179-39.834l-17.106-44.715c-1.11-2.903-3.896-4.82-7.005-4.82H165.863
	c-3.108,0-5.895,1.917-7.005,4.82l-17.106,44.715c-25.016,8.774-50.054,23.17-69.179,39.834c-1.635,1.424-2.573,3.487-2.573,5.655
	S70.938,204.254,72.573,205.678z M132.5,192.524H99.577c15.033-10.202,32.145-18.777,49.173-24.524h144.5
	c17.029,5.747,34.142,14.322,49.174,24.524H162.5c-4.143,0-7.5,3.358-7.5,7.5s3.357,7.5,7.5,7.5h179.904
	c-14.995,10.16-32.085,18.724-49.123,24.476H148.719c-17.037-5.752-34.127-14.316-49.122-24.476H132.5c4.143,0,7.5-3.358,7.5-7.5
	S136.643,192.524,132.5,192.524z M155,262v-15h132v15H155z M351.971,200.594c0.014-0.189,0.029-0.378,0.029-0.571
	s-0.015-0.383-0.029-0.573c0.248,0.192,0.503,0.38,0.749,0.572C352.474,200.215,352.219,200.403,351.971,200.594z M171.024,120
	h99.951l12.625,33H158.399L171.024,120z"/>
<path d="M87.5,377h267c26.191,0,47.5-21.309,47.5-47.5v-207c0-26.191-21.309-47.5-47.5-47.5h-267C61.309,75,40,96.308,40,122.5v207
	C40,355.691,61.309,377,87.5,377z M55,122.5C55,104.579,69.579,90,87.5,90h267c17.921,0,32.5,14.58,32.5,32.5v207
	c0,17.92-14.579,32.5-32.5,32.5h-267C69.579,362,55,347.42,55,329.5V122.5z"/>
<path d="M424.5,307h50c4.143,0,7.5-3.358,7.5-7.5s-3.357-7.5-7.5-7.5h-50c-4.143,0-7.5,3.358-7.5,7.5S420.357,307,424.5,307z"/>
<path d="M424.5,277h50c4.143,0,7.5-3.358,7.5-7.5s-3.357-7.5-7.5-7.5h-50c-4.143,0-7.5,3.358-7.5,7.5S420.357,277,424.5,277z"/>
<path d="M424.5,337h50c4.143,0,7.5-3.358,7.5-7.5s-3.357-7.5-7.5-7.5h-50c-4.143,0-7.5,3.358-7.5,7.5S420.357,337,424.5,337z"/>
<path d="M504.5,35H7.5C3.357,35,0,38.358,0,42.5v367c0,4.142,3.357,7.5,7.5,7.5H30v52.5c0,4.142,3.357,7.5,7.5,7.5h437
	c4.143,0,7.5-3.358,7.5-7.5V417h22.5c4.143,0,7.5-3.358,7.5-7.5v-367C512,38.358,508.643,35,504.5,35z M467,462H45v-45h422V462z
	 M497,402H15V50h482V402z"/>
<path d="M67.5,447h377c4.143,0,7.5-3.358,7.5-7.5s-3.357-7.5-7.5-7.5h-377c-4.143,0-7.5,3.358-7.5,7.5S63.357,447,67.5,447z"/>
<g>
</g>
<g>
</g>
<g>
</g>
<g>
</g>
<g>
</g>
<g>
</g>
<g>
</g>
<g>
</g>
<g>
</g>
<g>
</g>
<g>
</g>
<g>
</g>
<g>
</g>
<g>
</g>
<g>
</g>
</svg>
