<?xml version="1.0" encoding="iso-8859-1"?>
<!-- Generator: Adobe Illustrator 19.0.0, SVG Export Plug-In . SVG Version: 6.00 Build 0)  -->
<svg version="1.1" id="Capa_1" xmlns="http://www.w3.org/2000/svg" xmlns:xlink="http://www.w3.org/1999/xlink" x="0px" y="0px"
	 viewBox="0 0 512 512" style="enable-background:new 0 0 512 512;" xml:space="preserve">
<polygon style="fill:#515151;" points="474.5,68.34 394.5,264.176 474.5,461.34 504.5,461.34 504.5,68.34 "/>
<polygon style="fill:#6F6F6F;" points="7.5,68.34 7.5,461.34 226.268,461.34 239.926,473.751 272.079,473.749 285.732,461.34 
	474.5,461.34 474.5,68.34 "/>
<polygon style="fill:#AAAAAA;" points="414.5,371.338 474.5,401.338 474.5,431.34 444.5,431.338 "/>
<path style="fill:#C8C8C8;" d="M226,326.748l30,120c6.18-9.29,16.74-15.41,28.73-15.41H444.5v-30L226,326.748z"/>
<path style="fill:#E3E3E3;" d="M37.5,401.338v30h189.77c11.99,0,22.55,6.12,28.73,15.41v-120L37.5,401.338z"/>
<polygon style="fill:#C8C8C8;" points="444.5,38.249 364.5,219.794 444.5,401.34 474.5,401.34 474.5,38.249 "/>
<path style="fill:#E3E3E3;" d="M444.5,38.249v363.09H284.73c-11.99,0-22.55,6.12-28.73,15.41l-90-211.54l90-151.54
	c6.18-9.29,16.74-15.42,28.73-15.42C284.73,38.249,444.5,38.249,444.5,38.249z"/>
<path style="fill:#FFFFFF;" d="M256,53.669v363.08c-6.18-9.29-16.74-15.41-28.73-15.41H37.5V38.249h189.77
	C239.26,38.249,249.82,44.379,256,53.669z"/>
<polygon style="fill:#0045CC;" points="226,217.918 166,248.624 196,68.374 226,68.374 "/>
<polygon style="fill:#007CE6;" points="196,248.624 97.5,248.624 127.5,68.374 196,68.374 "/>
<polygon style="fill:#C3D43F;" points="127.5,248.624 67.5,218.624 67.5,68.374 127.5,68.374 "/>
<polygon style="fill:#F25031;" points="196,217.918 116,293.396 196,368.874 226,368.874 226,217.918 "/>
<rect x="67.5" y="217.92" style="fill:#FF7240;" width="128.5" height="150.96"/>
<polygon style="fill:#87C241;" points="444.499,293.749 384.499,263.043 414.499,368.874 444.499,368.874 "/>
<polygon style="fill:#C3D43F;" points="414.499,293.396 354.499,263.396 384.499,368.874 414.499,368.874 "/>
<polygon style="fill:#FFFFFF;" points="384.499,263.749 285.999,293.749 285.999,368.874 384.499,368.874 "/>
<polygon style="fill:#0045CC;" points="444.499,218.624 384.499,187.918 414.499,293.749 444.499,293.749 "/>
<polygon style="fill:#007CE6;" points="414.499,218.271 354.499,188.271 384.499,293.749 414.499,293.749 "/>
<polygon style="fill:#80D8FF;" points="384.499,188.624 285.999,218.624 285.999,293.749 384.499,293.749 "/>
<polygon style="fill:#FFE73D;" points="414.499,67.668 334.499,143.146 414.499,218.624 444.499,218.624 444.499,67.668 "/>
<rect x="286" y="67.67" style="fill:#FFF39E;" width="128.5" height="150.96"/>
<path d="M256,385.577c4.142,0,7.5-3.358,7.5-7.5V83.672c0-4.142-3.358-7.5-7.5-7.5s-7.5,3.358-7.5,7.5v294.405
	C248.5,382.219,251.857,385.577,256,385.577z"/>
<path d="M504.5,60.84H482V38.249c0-4.142-3.357-7.5-7.5-7.5H284.732c-10.816,0-21.034,4.135-28.733,11.373
	c-7.698-7.238-17.917-11.373-28.732-11.373H37.5c-4.142,0-7.5,3.358-7.5,7.5V60.84H7.5c-4.142,0-7.5,3.358-7.5,7.5v393
	c0,4.142,3.358,7.5,7.5,7.5h215.869l11.513,10.462c1.381,1.254,3.179,1.949,5.044,1.949l32.153-0.002
	c1.865,0,3.663-0.695,5.043-1.95l11.509-10.459H504.5c4.143,0,7.5-3.358,7.5-7.5v-393C512,64.198,508.643,60.84,504.5,60.84z
	 M45,45.749h182.267c9.056,0,17.461,4.514,22.486,12.074c1.39,2.092,3.735,3.349,6.247,3.349c2.511,0,4.856-1.257,6.247-3.349
	c5.024-7.561,13.431-12.074,22.486-12.074H467V393.84H284.732c-10.817,0-21.035,4.131-28.733,11.363
	c-7.698-7.232-17.917-11.363-28.732-11.363H45V45.749z M497,453.84H285.732c-1.865,0-3.664,0.695-5.044,1.95l-11.509,10.459
	l-26.355,0.002l-11.513-10.462c-1.38-1.254-3.179-1.949-5.044-1.949H15v-378h15v325.5c0,4.142,3.358,7.5,7.5,7.5h189.767
	c8.344,0,16.129,3.834,21.232,10.343v10.42c-6.34-3.718-13.637-5.763-21.232-5.763H37.5c-4.142,0-7.5,3.358-7.5,7.5
	s3.358,7.5,7.5,7.5h189.767c9.057,0,17.463,4.509,22.488,12.063c1.391,2.09,3.735,3.346,6.245,3.346
	c2.511,0,4.854-1.256,6.244-3.347c5.023-7.553,13.43-12.062,22.488-12.062H474.5c4.143,0,7.5-3.358,7.5-7.5s-3.357-7.5-7.5-7.5
	H284.732c-7.596,0-14.892,2.044-21.232,5.762v-10.42c5.103-6.508,12.887-10.342,21.232-10.342H474.5c4.143,0,7.5-3.358,7.5-7.5
	V75.84h15V453.84z"/>
<path d="M67.5,376.374H226c4.142,0,7.5-3.358,7.5-7.5v-300.5c0-4.142-3.358-7.5-7.5-7.5H67.5c-4.142,0-7.5,3.358-7.5,7.5v300.5
	C60,373.016,63.358,376.374,67.5,376.374z M75,361.374v-135.25h143.5v135.25H75z M218.5,211.124H135V75.874h83.5V211.124z
	 M120,75.874v135.25H75V75.874H120z"/>
<path d="M285.999,376.374h158.5c4.143,0,7.5-3.358,7.5-7.5v-300.5c0-4.142-3.357-7.5-7.5-7.5h-158.5c-4.143,0-7.5,3.358-7.5,7.5
	v300.5C278.499,373.016,281.856,376.374,285.999,376.374z M436.999,226.124v60.125h-45v-60.125H436.999z M376.999,286.249h-83.5
	v-60.125h83.5V286.249z M293.499,301.249h83.5v60.125h-83.5V301.249z M391.999,361.374v-60.125h45v60.125H391.999z M436.999,75.874
	v135.25h-143.5V75.874H436.999z"/>
<g>
</g>
<g>
</g>
<g>
</g>
<g>
</g>
<g>
</g>
<g>
</g>
<g>
</g>
<g>
</g>
<g>
</g>
<g>
</g>
<g>
</g>
<g>
</g>
<g>
</g>
<g>
</g>
<g>
</g>
</svg>
