<?xml version="1.0" encoding="iso-8859-1"?>
<!-- Generator: Adobe Illustrator 19.0.0, SVG Export Plug-In . SVG Version: 6.00 Build 0)  -->
<svg version="1.1" id="Capa_1" xmlns="http://www.w3.org/2000/svg" xmlns:xlink="http://www.w3.org/1999/xlink" x="0px" y="0px"
	 viewBox="0 0 512 512" style="enable-background:new 0 0 512 512;" xml:space="preserve">
<path style="fill:#363636;" d="M474.5,49h-30v338l60-30V79C504.5,62.5,491,49,474.5,49z"/>
<path style="fill:#515151;" d="M444.5,49L256,109L67.5,49h-30c-16.5,0-30,13.5-30,30v278l467,30V79C474.5,62.5,461,49,444.5,49z"/>
<polygon style="fill:#C7EFFF;" points="444.5,387 384.5,387 414.5,49 444.5,49 "/>
<rect x="67.5" y="49" style="fill:#FFFFFF;" width="347" height="338"/>
<path style="fill:#FFE73D;" d="M323.76,458.15L312,417l-56-30l-56,30l-8.57,30L332,487h30C345.5,487,328.29,474.02,323.76,458.15z"
	/>
<path style="fill:#FFF39E;" d="M332,487H150c16.5,0,33.71-12.98,38.24-28.85l3.19-11.15h99.14l3.19,11.15
	C298.29,474.02,315.5,487,332,487z"/>
<path style="fill:#FFE73D;" d="M474.5,357l-30,60h30c16.5,0,30-13.5,30-30v-30H474.5z"/>
<path style="fill:#FFF39E;" d="M7.5,357v30c0,16.5,13.5,30,30,30h407c16.5,0,30-13.5,30-30v-30H7.5z"/>
<rect x="182.5" y="132" style="fill:#FFE73D;" width="147" height="50"/>
<polygon style="fill:#FFF39E;" points="311.14,25 329.5,73 256,103 291.61,25 "/>
<polygon style="fill:#FFFFFF;" points="291.61,25 299.5,73 256,103 182.5,73 200.86,25 "/>
<path style="fill:#00B2FF;" d="M399.5,112.5c-18.32-15.96-43.82-30.85-70-39.5h-30l-186.95,39.54
	c18.32,15.95,43.79,30.82,69.95,39.46h117l99.95-39.46C399.47,112.53,399.48,112.51,399.5,112.5z"/>
<path style="fill:#007CE6;" d="M345.36,112.5c-12.06,15.957-28.838,30.813-46.07,39.46L329.5,152
	c26.16-8.64,51.63-23.51,69.95-39.46L345.36,112.5z"/>
<path style="fill:#80D8FF;" d="M345.36,112.5c-0.03,0.04-232.81,0.04-232.81,0.04c-0.02-0.01-0.03-0.03-0.05-0.04
	c18.32-15.96,43.82-30.85,70-39.5h117C316.65,81.65,333.36,96.54,345.36,112.5z"/>
<path d="M474.5,41.5H352.656c-4.142,0-7.5,3.358-7.5,7.5s3.358,7.5,7.5,7.5H437v293H75v-293h84.344c4.142,0,7.5-3.358,7.5-7.5
	s-3.358-7.5-7.5-7.5H37.5C16.822,41.5,0,58.322,0,79v308c0,20.678,16.822,37.5,37.5,37.5h152.557l-9.027,31.594
	C177.405,468.781,163.195,479.5,150,479.5H86c-4.142,0-7.5,3.358-7.5,7.5s3.358,7.5,7.5,7.5h340c4.142,0,7.5-3.358,7.5-7.5
	s-3.358-7.5-7.5-7.5h-64c-13.195,0-27.405-10.719-31.03-23.406l-9.027-31.594H474.5c20.678,0,37.5-16.822,37.5-37.5V79
	C512,58.322,495.178,41.5,474.5,41.5z M452,56.5h22.5c12.407,0,22.5,10.093,22.5,22.5v270.5h-45V56.5z M37.5,56.5H60v293H15V79
	C15,66.593,25.093,56.5,37.5,56.5z M316.547,460.215c2.058,7.204,6.149,13.824,11.512,19.285H183.94
	c5.363-5.461,9.454-12.081,11.513-19.285l10.204-35.715h100.685L316.547,460.215z M474.5,409.5H312.184c-0.009,0-0.019,0-0.028,0
	H37.5C25.093,409.5,15,399.407,15,387v-22.5h482V387C497,399.407,486.907,409.5,474.5,409.5z"/>
<path d="M105,112.524c0,2.168,0.938,4.23,2.573,5.655c18.628,16.231,42.949,30.323,67.427,39.16V182c0,4.142,3.358,7.5,7.5,7.5h147
	c4.142,0,7.5-3.358,7.5-7.5v-24.661c24.478-8.836,48.799-22.929,67.427-39.16c1.634-1.424,2.573-3.487,2.573-5.655
	s-0.938-4.23-2.573-5.654c-19.125-16.664-44.163-31.06-69.179-39.834L318.142,22.32c-1.111-2.903-3.896-4.82-7.005-4.82H200.863
	c-3.108,0-5.894,1.917-7.005,4.82l-17.106,44.715c-25.017,8.774-50.055,23.17-69.179,39.834
	C105.938,108.294,105,110.356,105,112.524z M167.5,105.024h-32.923c15.032-10.202,32.145-18.777,49.173-24.524h144.5
	c17.028,5.747,34.141,14.322,49.174,24.524H197.5c-4.142,0-7.5,3.358-7.5,7.5s3.358,7.5,7.5,7.5h179.904
	c-14.995,10.16-32.085,18.724-49.123,24.476H183.719c-17.038-5.752-34.128-14.316-49.123-24.476H167.5c4.142,0,7.5-3.358,7.5-7.5
	S171.642,105.024,167.5,105.024z M190,174.5v-15h132v15H190z M206.024,32.5h99.952l12.625,33H193.399L206.024,32.5z"/>
<path d="M369.5,230h-34.25c-4.142,0-7.5,3.358-7.5,7.5s3.358,7.5,7.5,7.5h34.25c4.142,0,7.5-3.358,7.5-7.5S373.642,230,369.5,230z"
	/>
<path d="M305.25,245c4.142,0,7.5-3.358,7.5-7.5s-3.358-7.5-7.5-7.5H271c-4.142,0-7.5,3.358-7.5,7.5s3.358,7.5,7.5,7.5H305.25z"/>
<path d="M241,245c4.142,0,7.5-3.358,7.5-7.5s-3.358-7.5-7.5-7.5h-34.25c-4.142,0-7.5,3.358-7.5,7.5s3.358,7.5,7.5,7.5H241z"/>
<path d="M142.5,245h34.25c4.142,0,7.5-3.358,7.5-7.5s-3.358-7.5-7.5-7.5H142.5c-4.142,0-7.5,3.358-7.5,7.5S138.358,245,142.5,245z"
	/>
<path d="M142.55,290c-4.142,0-7.5,3.358-7.5,7.5s3.358,7.5,7.5,7.5H241c4.142,0,7.5-3.358,7.5-7.5s-3.358-7.5-7.5-7.5H142.55z"/>
<path d="M376.949,267.5c0-4.142-3.358-7.5-7.5-7.5H142.55c-4.142,0-7.5,3.358-7.5,7.5s3.358,7.5,7.5,7.5h226.899
	C373.591,275,376.949,271.642,376.949,267.5z"/>
<g>
</g>
<g>
</g>
<g>
</g>
<g>
</g>
<g>
</g>
<g>
</g>
<g>
</g>
<g>
</g>
<g>
</g>
<g>
</g>
<g>
</g>
<g>
</g>
<g>
</g>
<g>
</g>
<g>
</g>
</svg>
