<svg id="Capa_1" enable-background="new 0 0 512.001 512.001" height="512" viewBox="0 0 512.001 512.001" width="512" xmlns="http://www.w3.org/2000/svg"><g><g clip-rule="evenodd" fill-rule="evenodd"><path d="m320.149 50.007c81.071 0 160.669 67.408 147.432 147.401l-4.252 25.597c0 27.666 41.302 58.734 41.189 86.542-.114 27.808-34.726 7.909-41.728 26.079l-20.522 53.206c-4.592 11.905-18.028 18.283-34.498 18.624-32.685.652-39.005-.17-41.387 54.567h-142.187c-1.36-174.331-51.479-167.045-51.479-241.342v-23.273c0-81.071 66.36-147.401 147.432-147.401z" fill="#477b9e"/><path d="m191.852 50.007c-81.072 0-160.669 67.408-147.403 147.401l4.224 25.597c0 27.666-41.273 58.734-41.16 86.542.113 27.808 34.726 7.909 41.728 26.079l20.494 53.206c4.621 11.905 18.028 18.283 34.498 18.624 32.685.652 39.034-.17 41.387 54.567h142.187c1.39-174.331 51.478-167.045 51.478-241.342v-23.273c-.002-81.071-66.334-147.401-147.433-147.401z" fill="#ffdecf"/><path d="m191.852 154.605c25.115 0 45.439 20.324 45.439 45.439 0 25.087-20.324 45.439-45.439 45.439-25.087 0-45.439-20.352-45.439-45.439-.001-25.114 20.352-45.439 45.439-45.439zm115.682 30.813c-.057-2.92-1.559-4.422-4.451-4.479h-13.067c-2.551 0-4.903-2.409-5.471-4.365-2.381-8.504-5.782-18.028-10.545-25.483-1.587-2.495-.879-5.357.766-6.945l9.241-9.241c1.615-2.353 1.644-4.479 0-6.321l-20.693-20.693c-2.098-1.842-4.224-1.899-6.321 0l-9.241 9.241c-1.758 1.814-4.705 2.069-6.944.793-9.156-5.244-15.534-7.512-25.483-10.573-2.297-.709-4.451-2.693-4.365-5.471v-13.068c-.057-3.004-1.56-4.479-4.452-4.45h-29.281c-2.892-.028-4.422 1.446-4.479 4.45v13.068c.113 2.778-2.041 4.762-4.338 5.471-9.949 3.062-16.355 5.329-25.483 10.573-2.268 1.276-5.188 1.021-6.944-.793l-9.241-9.241c-2.126-1.899-4.224-1.842-6.321 0l-20.694 20.693c-1.644 1.843-1.615 3.969 0 6.321l9.241 9.241c1.645 1.587 2.353 4.45.766 6.945-4.791 7.455-8.164 16.98-10.545 25.483-.567 1.956-2.948 4.365-5.471 4.365h-13.07c-2.92.057-4.395 1.559-4.479 4.479v29.253c.085 2.919 1.559 4.394 4.479 4.479h13.067c2.522-.028 4.903 2.381 5.471 4.337 2.381 8.532 5.754 18.028 10.545 25.483 1.587 2.494.879 5.357-.766 6.945l-9.241 9.241c-1.615 2.381-1.644 4.479 0 6.321l20.694 20.693c2.098 1.843 4.195 1.899 6.321 0l9.241-9.241c1.757-1.815 4.677-2.069 6.944-.766 9.128 5.244 15.534 7.484 25.483 10.545 2.297.737 4.451 2.693 4.338 5.471v13.067c.057 3.005 1.587 4.479 4.479 4.479h29.281c2.893 0 4.395-1.474 4.452-4.479v-13.066c-.086-2.778 2.068-4.734 4.365-5.471 9.949-3.061 16.327-5.301 25.483-10.545 2.239-1.304 5.187-1.049 6.944.766l9.241 9.241c2.098 1.899 4.224 1.843 6.321 0l20.693-20.693c1.644-1.842 1.615-3.94 0-6.321l-9.241-9.241c-1.645-1.587-2.352-4.451-.766-6.945 4.763-7.455 8.164-16.951 10.545-25.483.567-1.956 2.92-4.366 5.471-4.337h13.067c2.893-.085 4.395-1.559 4.451-4.479v-29.254z" fill="#ff6978"/><path d="m435.293 193.751c0 59.953-2.579 129.855-56.665 183.005-24.52 24.123-33.761 56.778-36.511 85.238h24.265c2.382-54.708 8.702-53.887 41.387-54.539 16.47-.34 29.906-6.718 34.498-18.624l20.522-53.206c7.002-18.17 41.613 1.729 41.728-26.079.113-27.808-41.189-58.876-41.189-86.542l4.252-25.597c7.314-44.107-13.607-84.387-47.452-111.657 9.638 31.693 15.165 68.6 15.165 108.001z" fill="#365e7d"/><path d="m315.019 220.681c0 74.296-50.09 67.011-51.479 241.313h24.265c1.39-174.302 51.478-167.017 51.478-241.313v-23.273c0-58.11-34.103-108.68-83.283-132.633-19.417-9.468-41.188-14.769-64.148-14.769-4.055 0-8.079.142-12.133.482 23.329 1.927 45.128 9.326 64.149 20.919 42.576 25.937 71.15 72.794 71.15 126v23.274z" fill="#fcd4c2"/><path d="m263.144 200.044c0 44.079-29.85 81.185-70.442 92.212-6.633 1.786-13.521 2.891-20.636 3.231.453.765.737 1.672.681 2.693v13.067c.057 3.005 1.587 4.479 4.479 4.479h25.568 3.713c2.893 0 4.395-1.474 4.452-4.479v-13.067c-.086-2.778 2.068-4.734 4.365-5.471 9.949-3.061 16.327-5.301 25.483-10.545 2.239-1.304 5.187-1.049 6.944.766l9.241 9.241c2.098 1.899 4.224 1.843 6.321 0l20.693-20.693c1.644-1.842 1.615-3.94 0-6.321l-9.241-9.241c-1.645-1.587-2.352-4.451-.766-6.945 4.763-7.455 8.164-16.951 10.545-25.483.567-1.956 2.92-4.366 5.471-4.337h13.067c2.893-.085 4.395-1.559 4.451-4.479v-29.253c-.057-2.92-1.559-4.422-4.451-4.479h-13.067c-2.551 0-4.903-2.409-5.471-4.365-2.381-8.504-5.782-18.028-10.545-25.483-1.587-2.495-.879-5.357.766-6.945l9.241-9.241c1.615-2.353 1.644-4.479 0-6.321l-20.693-20.693c-2.098-1.842-4.224-1.899-6.321 0l-9.241 9.241c-1.758 1.814-4.705 2.069-6.944.793-9.156-5.244-15.534-7.512-25.483-10.573-2.297-.709-4.451-2.693-4.365-5.471v-3.26-9.808c-.057-3.004-1.56-4.479-4.452-4.45h-29.281c-2.892-.028-4.422 1.446-4.479 4.45v13.068c.057 1.021-.228 1.928-.681 2.721 10.204.454 20.013 2.523 29.14 5.981 36.2 13.577 61.938 48.528 61.938 89.46z" fill="#e85a68"/></g><path d="m177.905 235.336c3.855 1.531 5.755 5.868 4.224 9.723-1.502 3.855-5.867 5.754-9.723 4.224-9.921-3.912-18.396-10.8-24.35-19.531-5.754-8.504-9.155-18.737-9.155-29.735 0-14.598 5.924-27.836 15.505-37.417s22.819-15.506 37.446-15.506c14.626 0 27.865 5.924 37.446 15.506 9.581 9.581 15.506 22.819 15.506 37.417 0 10.999-3.374 21.232-9.156 29.735-5.953 8.731-14.429 15.619-24.35 19.531-3.856 1.531-8.193-.368-9.724-4.224-1.531-3.855.368-8.192 4.223-9.723 7.173-2.834 13.239-7.739 17.491-13.975 4.11-6.066 6.52-13.38 6.52-21.345 0-10.459-4.252-19.955-11.111-26.815-6.889-6.86-16.357-11.112-26.845-11.112s-19.957 4.252-26.816 11.112c-6.889 6.86-11.111 16.356-11.111 26.815 0 7.965 2.381 15.307 6.52 21.345 4.222 6.236 10.317 11.14 17.46 13.975zm117.497 219.203h63.866c1.587-29.027 4.733-42.406 12.897-48.671 8.306-6.35 25.37-5.669 35.49-5.868 7.228-.142 13.691-1.616 18.737-4.309 4.224-2.296 7.37-5.499 8.929-9.553l20.523-53.207c4.818-12.529 15.76-13.238 26.702-13.975 7.228-.482 14.485-.936 14.515-9.439.057-11.566-9.611-25.342-19.277-39.118-7.908-11.282-15.816-22.563-19.615-33.987-1.19-3.685-3.033-11.395-2.098-15.194l4.139-25.001c3.033-18.369.822-36.028-5.386-52.214-6.747-17.603-18.198-33.534-32.768-46.771-3.062-2.778-3.288-7.512-.482-10.573 2.778-3.062 7.512-3.288 10.574-.51 16.242 14.797 29.083 32.655 36.68 52.526 7.115 18.567 9.638 38.835 6.151 59.925l-4.11 24.86c.227 11.395 9.694 24.888 19.162 38.381 11.028 15.704 22.055 31.436 21.97 47.735-.085 22.451-14.315 23.386-28.518 24.321-6.151.425-12.303.822-13.691 4.422l-20.522 53.206c-2.92 7.597-8.477 13.379-15.789 17.348-7.115 3.827-15.902 5.868-25.541 6.066-7.938.142-20.495-.652-26.164 5.811-4.989 5.698-6.832 17.263-7.881 41.046.058 4.252-3.203 7.738-7.512 7.738h-220.765c-3.997 0-7.285-3.175-7.483-7.171-1.105-26.022-3.175-37.616-9.128-42.86-5.697-5.017-17.633-4.422-24.918-4.564-9.637-.198-18.453-2.239-25.539-6.066-7.342-3.969-12.87-9.751-15.789-17.348l-20.523-53.206c-1.389-3.6-7.54-3.997-13.72-4.422-14.202-.936-28.433-1.871-28.518-24.322-.057-16.299 10.971-32.031 21.97-47.735 9.468-13.493 18.936-26.986 19.19-38.381l-4.139-24.86c-3.486-21.09-.936-41.358 6.151-59.925 7.625-19.871 20.438-37.729 36.709-52.526 3.061-2.778 7.795-2.551 10.573.51 2.777 3.062 2.551 7.795-.511 10.573-14.539 13.239-26.02 29.169-32.767 46.772-6.208 16.186-8.419 33.846-5.386 52.214l4.252 25.568c.567 3.402-.709 9.581-1.672 12.87-3.544 12.047-11.82 23.896-20.154 35.745-9.639 13.776-19.306 27.553-19.276 39.118.057 8.504 7.285 8.957 14.514 9.439 10.97.737 21.912 1.446 26.731 13.975l20.523 53.207c1.559 4.053 4.705 7.256 8.929 9.553 5.018 2.693 11.48 4.167 18.737 4.309 10.971.227 29.254-.794 37.446 7.625 6.718 6.916 9.468 20.353 10.913 46.914h127.702c1.645-101.253 20.041-140.031 34.584-170.674 9.212-19.417 16.78-35.348 16.78-63.184v-23.273c0-38.466-15.76-73.445-41.131-98.815-25.37-25.37-60.35-41.131-98.816-41.131-13.153 0-26.221 1.842-38.778 5.272-12.983 3.572-25.483 8.816-37.02 15.477-3.572 2.041-8.137.822-10.178-2.778-2.069-3.572-.821-8.135 2.75-10.176 12.615-7.285 26.307-13.04 40.536-16.923 13.918-3.827 28.318-5.868 42.691-5.868 22.848 0 44.589 5.017 64.148 14.003 9.383-4.309 19.275-7.682 29.565-10.063 11.168-2.58 22.763-3.94 34.583-3.94 14.372 0 28.772 2.041 42.719 5.868 14.23 3.883 27.893 9.638 40.536 16.923 3.572 2.041 4.791 6.604 2.75 10.176-2.069 3.6-6.633 4.819-10.206 2.778-11.537-6.661-24.037-11.905-37.021-15.477-12.528-3.43-25.597-5.272-38.778-5.272-10.771 0-21.231 1.219-31.238 3.543-5.386 1.219-10.658 2.778-15.789 4.648 10.233 6.35 19.673 13.833 28.177 22.309 28.063 28.091 45.497 66.841 45.497 109.445v23.273c0 31.124-8.221 48.473-18.227 69.562-13.948 29.367-31.551 66.529-33.167 164.296zm16.272-277.739c2.239 2.24 3.373 5.443 3.373 8.589 0 9.808.057 19.672-.028 29.423-.057 3.487-1.191 6.293-3.345 8.447-2.267 2.239-5.444 3.374-8.591 3.374h-11.65c-1.162 4.081-2.579 8.419-4.309 12.756-1.7 4.28-3.713 8.475-6.009 12.274 2.551 2.551 7.171 6.435 9.099 9.326 1.645 2.381 2.467 4.904 2.495 7.512 0 2.778-.907 5.301-2.75 7.568-4.309 5.585-16.186 16.951-21.741 21.77-2.439 2.098-5.103 3.203-8.022 3.203-3.118.028-6.321-1.36-8.504-3.543l-8.221-8.22c-4.394 2.466-8.276 4.309-12.331 5.924-3.939 1.587-7.936 2.891-12.67 4.394v11.65c-.029 3.26-1.078 6.35-3.402 8.674-2.296 2.268-5.386 3.316-8.59 3.316h-29.253c-3.516 0-6.379-1.105-8.59-3.316-2.268-2.268-3.373-5.5-3.373-8.674v-11.65c-4.762-1.503-8.759-2.806-12.699-4.394-4.025-1.616-7.936-3.458-12.33-5.924-2.75 2.75-5.67 5.924-8.532 8.476-2.495 2.239-5.216 3.316-8.164 3.288-3.062 0-6.293-1.389-8.447-3.543-6.69-6.689-14.826-14.088-20.978-21.033-2.098-2.353-3.118-5.018-3.09-7.965 0-2.863 1.304-6.577 3.374-8.646l8.191-8.192c-2.296-3.798-4.28-7.994-5.981-12.274-1.758-4.337-3.176-8.674-4.338-12.756-5.952 0-15.562 1.332-20.239-3.374-2.268-2.239-3.373-5.442-3.373-8.589 0-9.808-.057-19.672.028-29.424.085-3.486 1.19-6.292 3.373-8.447 2.24-2.239 5.414-3.373 8.561-3.373h11.65c1.162-4.082 2.58-8.419 4.338-12.756 1.7-4.28 3.685-8.476 5.981-12.274-2.551-2.551-7.172-6.435-9.1-9.326-1.615-2.381-2.466-4.904-2.466-7.512-.028-3.061 1.19-6.123 3.374-8.306 6.604-6.576 14.258-15.108 21.09-21.033 2.438-2.097 5.103-3.203 8.051-3.203 3.09-.028 6.293 1.361 8.476 3.543l8.221 8.221c4.394-2.466 8.305-4.309 12.33-5.924 3.94-1.588 7.938-2.92 12.699-4.394 0-4.025-.142-8.22.028-12.217.142-3.345 1.276-6.038 3.345-8.107 2.297-2.296 5.387-3.316 8.59-3.316h29.253c3.516 0 6.379 1.105 8.59 3.316 2.268 2.268 3.402 5.471 3.402 8.674v11.65c4.733 1.474 8.731 2.806 12.67 4.394 4.055 1.616 7.938 3.458 12.331 5.924l8.221-8.221c2.239-2.211 5.329-3.572 8.504-3.543 3.033 0 6.265 1.389 8.419 3.543l20.693 20.693c2.182 2.183 3.401 5.244 3.401 8.306-.028 2.863-1.333 6.576-3.401 8.646l-8.192 8.192c2.296 3.798 4.309 7.994 6.009 12.274 1.73 4.337 3.147 8.674 4.309 12.756 3.94 0 7.909 0 11.793.028 3.458.085 6.293 1.191 8.447 3.345zm-11.624 11.622h-10.034c-2.835 0-5.697-1.134-7.908-2.891-2.296-1.843-4.082-4.479-4.763-6.945-1.162-4.11-2.522-8.391-4.11-12.416-1.587-3.94-3.43-7.767-5.527-11.084-1.757-2.721-2.324-5.669-2.013-8.419.34-2.919 1.673-5.782 3.771-7.852l7.114-7.087-16.412-16.413-7.115 7.115c-2.069 2.041-4.818 3.345-7.738 3.685-2.835.312-5.754-.312-8.221-1.729-4.337-2.466-7.908-4.195-11.509-5.641-4.11-1.644-8.276-2.948-12.472-4.28-2.58-.794-5.104-2.381-6.89-4.649-1.843-2.296-2.807-5.018-2.75-7.937v-10.033h-23.215v10.035c0 2.919-.936 5.641-2.75 7.937-1.814 2.268-4.337 3.855-6.889 4.649-4.223 1.332-8.391 2.636-12.473 4.28-3.628 1.445-7.199 3.175-11.508 5.641-2.438 1.389-5.471 2.041-8.249 1.729-6.265-.709-10.63-6.605-14.825-10.8l-16.413 16.413c4.223 4.252 10.148 8.589 10.857 14.938.312 2.75-.255 5.698-1.984 8.419-2.126 3.317-3.969 7.144-5.557 11.084-1.588 4.025-2.948 8.306-4.11 12.416-.681 2.466-2.466 5.102-4.734 6.945-5.017 3.996-11.933 2.891-17.972 2.891v23.216h10.035c2.863 0 5.726 1.134 7.937 2.892 2.269 1.842 4.054 4.479 4.734 6.945 1.162 4.11 2.522 8.391 4.11 12.387 1.588 3.969 3.431 7.795 5.557 11.112 1.729 2.721 2.296 5.67 1.984 8.419-.709 6.265-6.662 10.743-10.857 14.939l16.413 16.413c4.224-4.252 8.476-10.091 14.825-10.8 2.835-.312 5.755.312 8.221 1.729 4.309 2.466 7.908 4.195 11.536 5.641 4.508 1.814 9.241 2.891 13.578 4.677 2.184.878 4.225 2.324 5.783 4.252 3.799 4.762 2.75 12.217 2.75 17.972h23.215c0-3.289-.255-7.483.029-10.658.084-2.863 1.105-5.33 2.721-7.314 1.786-2.268 4.309-3.855 6.86-4.677 4.225-1.304 8.391-2.608 12.501-4.252 4.423-1.786 8.277-4.337 12.303-6.066 2.353-1.134 4.96-1.587 7.427-1.304 2.863.312 5.612 1.559 7.738 3.713l7.115 7.087 16.412-16.413c-2.324-2.296-5.612-5.216-7.597-7.653-1.757-1.928-2.976-4.507-3.288-7.285-.311-2.749.256-5.698 2.013-8.419 2.098-3.316 3.94-7.143 5.527-11.112 1.588-3.997 2.948-8.277 4.11-12.387.681-2.466 2.467-5.103 4.763-6.945 2.239-1.786 4.989-2.92 7.908-2.892h10.034v-23.218z"/></g></svg>