<svg id="Capa_1" enable-background="new 0 0 512 512" height="512" viewBox="0 0 512 512" width="512" xmlns="http://www.w3.org/2000/svg"><g><g clip-rule="evenodd" fill-rule="evenodd"><path d="m262.739 178.387c29.423 50.939 58.846 101.906 88.241 152.845l94.874 164.296h-379.411l94.845-164.296c18.884-32.724 37.779-65.448 56.672-98.172 3.519-6.095 24.653-8.141 24.653-8.141s-6.991-22.455-3.438-28.611c3.442-5.964 6.884-11.928 10.326-17.892 3.6-6.236 9.525-6.464 13.238-.029z" fill="#477b9e"/><path d="m200.038 264.135 46.743 33.053c6.52 4.167 12.784 4.195 18.737 0l46.742-33.053c-16.497-28.573-33.023-57.175-49.52-85.748-3.742-6.435-9.638-6.207-13.238.028-16.498 28.573-32.996 57.147-49.464 85.72z" fill="#d6e8ff"/><path d="m496.565 481.496c4.054 7.029 0 14.031-8.079 14.031h-173.448c-8.022 0-12.076-6.917-8.164-13.89l43.426-75.231 47.564-82.375c2.126-3.656 5.613-3.799 7.795.028 30.302 52.47 60.604 104.967 90.906 157.437z" fill="#365e7d"/><path d="m85.718 371.54c21.174 36.68 42.349 73.36 63.523 110.013 3.969 7.001-.057 13.975-8.135 13.975h-118.571c-8.079 0-12.132-7.002-8.079-14.031 21.146-36.624 42.321-73.276 63.467-109.928 2.126-3.658 5.584-3.799 7.795-.029z" fill="#365e7d"/><path d="m463.117 129.263h-128.011c-4.309-.596-7.738-4.025-8.333-8.334v-67.011h136.344c2.466.17 3.146 1.445 1.956 3.912l-25.398 33.76 25.398 33.761c.964 1.304.255 3.883-1.956 3.912z" fill="#cf4351"/><path d="m326.773 108.939v-55.02h87.957v38.296c-1.218 8.646-8.05 15.506-16.724 16.725h-71.233z" fill="#bd3341"/><path d="m389.048 91.59h-131.865c-4.309-.595-7.738-4.024-8.334-8.333v-58.678c.596-4.309 4.025-7.738 8.334-8.334h131.865c4.309.596 7.739 4.025 8.334 8.334v58.678c-.595 4.308-4.025 7.738-8.334 8.333z" fill="#ff6978"/><path d="m364.671 381.518 30.188 21.316c4.847 3.146 9.468 3.288 13.805 0l30.188-21.316c-11.083-19.162-22.138-38.324-33.193-57.486-2.212-3.799-5.669-3.656-7.795.028-11.055 19.133-22.11 38.296-33.193 57.458z" fill="#cee3ff"/><path d="m55.02 411.225 21.912 15.478c3.26 2.296 6.52 2.296 9.779 0l21.912-15.478c-7.626-13.209-15.278-26.447-22.904-39.656-2.183-3.799-5.669-3.657-7.795 0-7.626 13.237-15.251 26.447-22.904 39.656z" fill="#cee3ff"/><path d="m156.186 155.029c18.397 0 33.42 15.053 33.42 33.421 0 18.396-15.023 33.448-33.42 33.448h-116.388c-18.397 0-33.449-15.052-33.449-33.448 0-18.368 15.052-33.421 33.449-33.421 0-23.584 19.133-42.718 42.717-42.718 14.854 0 27.921 7.568 35.575 19.049 3.912-2.636 8.645-4.195 13.747-4.195 13.55 0 24.548 10.998 24.548 24.548 0 1.134-.057 2.239-.199 3.316z" fill="#d6e8ff"/><path d="m171.579 170.422c0 18.396-15.052 33.448-33.42 33.448h-116.417c-4.536 0-8.844-.935-12.812-2.579 5.045 12.075 17.007 20.607 30.869 20.607h116.388c18.397 0 33.42-15.052 33.42-33.448 0-13.833-8.532-25.795-20.607-30.841 1.671 3.941 2.579 8.278 2.579 12.813z" fill="#c4dfff"/><path d="m326.971 331.231 33.363 57.798 4.337-7.511 7.682-13.294-21.373-36.993-38.721-67.096-17.064 12.048z" fill="#365e7d"/><path d="m262.342 219.263 32.853 56.92 17.064-12.048-48.811-84.557-.708-1.191c-1.843-3.203-4.224-4.733-6.605-4.733-2.409 0-4.819 1.615-6.633 4.762l-.652 1.163-4.705 8.163 4.705 8.136 7.285 12.643z" fill="#c4dfff"/><path d="m421.788 393.565c16.923 29.31 33.845 58.62 50.768 87.931 4.053 7.029 0 14.031-8.079 14.031h24.009c8.079 0 12.132-7.002 8.079-14.031-19.247-33.336-38.494-66.643-57.712-99.979z" fill="#294b64"/><path d="m389.757 338.091c10.658 18.482 21.345 36.992 32.031 55.475l17.036-12.048c-11.055-19.162-22.11-38.324-33.164-57.458 0-.028 0-.028 0-.028-2.212-3.799-5.669-3.656-7.795 0z" fill="#bad4f5"/><path d="m99.863 437.644 25.342 43.909c3.996 7.001-.028 13.975-8.107 13.975h24.009c8.079 0 12.104-6.974 8.135-13.975l-37.388-64.715-3.231-5.613-17.064 12.048z" fill="#294b64"/><path d="m69.816 385.6 21.742 37.673 17.064-12.048-22.904-39.656c-2.183-3.799-5.669-3.657-7.795 0z" fill="#bad4f5"/></g><path d="m99.778 408.957-17.149-29.707-17.149 29.707 17.149 12.133zm195.304 78.974c23.045-39.912 46.119-79.853 69.164-119.764l-53.914-93.374-49.379 34.895c-2.438 1.815-5.868 1.956-8.504.114l-49.548-35.037c-27.297 47.311-54.594 94.621-81.92 141.931 13.719 23.727 27.439 47.48 41.158 71.235zm-149.724 0c-12.784-22.11-25.511-44.221-38.295-66.331l-20.126 14.23c-2.438 1.814-5.868 1.955-8.504.113l-20.267-14.343c-12.756 22.11-25.511 44.221-38.267 66.331zm346.757 0c-18.482-32.003-36.935-64.007-55.388-95.981l-30.415 21.486c-2.438 1.814-5.868 1.956-8.504.085l-30.529-21.571c-18.481 31.975-36.935 64.007-55.416 95.981zm-437.52-273.147c4.025 0 7.285 3.26 7.285 7.285 0 4.024-3.26 7.285-7.285 7.285h-13.919c-11.196 0-21.373-4.564-28.743-11.935-7.369-7.369-11.933-17.517-11.933-28.714 0-11.196 4.564-21.373 11.934-28.715 5.839-5.839 13.436-9.921 21.883-11.367 1.502-11.111 6.633-21.062 14.173-28.602 9.042-9.042 21.543-14.627 35.319-14.627 8.476 0 16.469 2.155 23.527 5.925 5.329 2.863 10.091 6.633 14.032 11.141.793-.284 1.587-.567 2.381-.822 3.005-.907 6.123-1.418 9.297-1.418 8.787 0 16.724 3.572 22.478 9.326 5.018 5.018 8.391 11.707 9.156 19.162 8.277 1.503 15.675 5.557 21.401 11.282 7.37 7.342 11.934 17.519 11.934 28.715 0 11.197-4.564 21.345-11.934 28.715s-17.546 11.935-28.714 11.935h-68.257c-4.025 0-7.285-3.261-7.285-7.285 0-4.025 3.26-7.285 7.285-7.285h68.257c7.143 0 13.663-2.92 18.397-7.653 4.733-4.734 7.682-11.254 7.682-18.426s-2.948-13.691-7.682-18.425c-6.605-6.604-11.226-6.662-19.389-7.739-3.968-.538-6.774-4.195-6.236-8.191.708-5.273-1.134-10.715-4.904-14.514-3.118-3.118-7.427-5.046-12.189-5.046-3.685 0-6.662.964-9.723 2.977-3.345 2.211-7.852 1.304-10.063-2.041-3.231-4.847-7.625-8.844-12.756-11.622-4.932-2.636-10.629-4.139-16.695-4.139-9.78 0-18.595 3.969-25.001 10.347-6.407 6.406-10.347 15.25-10.347 25.03 0 3.996-3.288 7.285-7.285 7.285-7.171 0-13.691 2.919-18.425 7.653-4.733 4.733-7.682 11.253-7.682 18.425s2.948 13.691 7.682 18.426c4.734 4.733 11.254 7.653 18.425 7.653h13.919zm21.741 146.353c1.984-3.486 6.435-4.677 9.893-2.693 1.191.681 2.098 1.645 2.721 2.75l23.641 40.961c33.76-58.45 67.492-116.873 101.252-175.323 1.984-3.458 6.406-4.677 9.893-2.664 3.458 1.984 4.677 6.435 2.665 9.893l-16.185 28.063 46.402 32.824 46.402-32.824-46.402-80.391-13.209 22.875c-1.984 3.486-6.434 4.678-9.892 2.693-3.487-2.013-4.677-6.435-2.693-9.922l18.51-32.06v-73.303-75.232c0-4.025 3.26-7.285 7.285-7.285h141.022c4.025 0 7.285 3.26 7.285 7.285v30.33h63.212c4.024 0 7.284 3.26 7.284 7.285 0 1.871-.708 3.572-1.871 4.876l-24.633 32.74 25.03 33.25c2.409 3.203 1.757 7.739-1.445 10.148-1.276.936-2.778 1.474-4.365 1.474h-140.997c-4.025 0-7.285-3.26-7.285-7.285v-30.301h-55.955v65.99c36.254 62.787 72.509 125.547 108.735 188.334l23.074-39.94c1.984-3.486 6.435-4.677 9.893-2.692 1.19.68 2.097 1.643 2.721 2.749 34.213 59.272 68.455 118.573 102.697 177.846 2.013 3.458.822 7.909-2.665 9.922-1.134.68-2.381.992-3.628.992-165.824 0-331.62 0-497.444 0-4.024-.001-7.284-3.262-7.284-7.286 0-1.503.454-2.892 1.248-4.054 25.029-43.342 50.058-86.683 75.088-130.025zm298.256 18.141 27.411 19.389 27.411-19.389-27.411-47.48c-9.156 15.846-18.283 31.663-27.411 47.48zm-40.166-279.977v23.017h119.138l-19.445-25.852c-1.956-2.522-2.098-6.123-.085-8.815l19.53-25.966h-48.642v30.331c0 4.025-3.26 7.285-7.285 7.285zm-70.525-14.57h63.24 63.211v-60.662h-126.451z"/></g></svg>