<svg id="Capa_1" enable-background="new 0 0 512 512" height="512" viewBox="0 0 512 512" width="512" xmlns="http://www.w3.org/2000/svg"><g><g><path clip-rule="evenodd" d="m16.441 324.302h19.587l114.607-12.558 76.083 12.558h58.563l115.06-10.914 75.659 10.914h19.559c4.933 0 8.958 4.024 8.958 8.929v86.712c0 4.904-4.025 8.929-8.958 8.929h-479.118c-4.904 0-8.93-4.024-8.93-8.929v-86.713c.001-4.904 4.026-8.928 8.93-8.928z" fill="#d09080" fill-rule="evenodd"/><path clip-rule="evenodd" d="m125.207 158.248h46.659 22.876c23.387 0 42.52 19.134 42.52 42.52v112.96c-.623 5.557-5.017 9.95-10.544 10.574h-156.361c-5.527-.624-9.922-5.018-10.545-10.574v-112.96c0-23.386 19.134-42.52 42.52-42.52z" fill="#a5cdff" fill-rule="evenodd"/><path clip-rule="evenodd" d="m212.998 200.768v112.96c-.624 5.557-5.018 9.95-10.546 10.574h24.267c5.527-.624 9.921-5.018 10.544-10.574v-112.96c0-23.386-19.134-42.52-42.52-42.52h-22.876-1.389c23.385 0 42.52 19.134 42.52 42.52z" fill="#8abfff" fill-rule="evenodd"/><path clip-rule="evenodd" d="m340.161 158.248h46.632 22.875c23.414 0 42.548 19.134 42.548 42.52v112.96c-.623 5.557-5.017 9.95-10.573 10.574h-156.36c-5.528-.624-9.922-5.018-10.545-10.574v-112.96c0-23.386 19.134-42.52 42.521-42.52z" fill="#ebd2ff" fill-rule="evenodd"/><path clip-rule="evenodd" d="m427.951 200.768v112.96c-.623 5.557-5.017 9.95-10.572 10.574h24.264c5.557-.624 9.95-5.018 10.573-10.574v-112.96c0-23.386-19.134-42.52-42.548-42.52h-22.875-1.39c23.386 0 42.548 19.134 42.548 42.52z" fill="#d7bef0" fill-rule="evenodd"/><path clip-rule="evenodd" d="m332.649 282.745c16.951 0 30.812 13.861 30.812 30.812v115.314c0 16.951-13.861 30.841-30.812 30.841-16.979 0-30.841-13.89-30.841-30.841v-115.313c.001-16.952 13.863-30.813 30.841-30.813z" fill="#d7bef0" fill-rule="evenodd"/><path d="m476 324.302c3.033 0 5.527-2.297 5.839-5.216l15.988-93.09c.595-3.544-2.154-6.775-5.755-6.775h-105.676c-3.034 0-5.528 2.296-5.84 5.216l-15.988 93.09c-.623 3.543 2.154 6.775 5.755 6.775z" fill="#477b9e"/><path clip-rule="evenodd" d="m394.305 282.745c16.98 0 30.841 13.861 30.841 30.812v115.314c0 16.951-13.861 30.841-30.841 30.841-16.952 0-30.843-13.89-30.843-30.841l-7.625-58.507 7.625-56.807c0-16.951 13.891-30.812 30.843-30.812z" fill="#d7bef0" fill-rule="evenodd"/><path clip-rule="evenodd" d="m394.305 282.745c16.98 0 30.841 13.861 30.841 30.812v115.314c0 16.951-13.861 30.841-30.841 30.841-4.309 0-8.391-.906-12.134-2.494 10.972-4.733 18.71-15.676 18.71-28.347v-115.313c0-12.643-7.738-23.584-18.71-28.317 3.743-1.617 7.825-2.496 12.134-2.496z" fill="#d0b5eb" fill-rule="evenodd"/><path clip-rule="evenodd" d="m332.649 282.745c16.951 0 30.812 13.861 30.812 30.812v115.314c0 16.951-13.861 30.841-30.812 30.841-4.309 0-8.418-.906-12.16-2.494 10.998-4.733 18.709-15.676 18.709-28.347v-115.313c0-12.643-7.711-23.584-18.709-28.317 3.742-1.617 7.852-2.496 12.16-2.496z" fill="#d0b5eb" fill-rule="evenodd"/><path d="m36.028 324.302c-3.061 0-5.556-2.297-5.839-5.216l-16.016-93.09c-.596-3.544 2.154-6.775 5.782-6.775h105.648c3.034 0 5.557 2.296 5.84 5.216l16.016 93.09c.596 3.543-2.182 6.775-5.782 6.775z" fill="#477b9e"/><g clip-rule="evenodd" fill-rule="evenodd"><path d="m107.18 224.436 16.016 93.09c.595 3.543-2.184 6.775-5.783 6.775h24.266c3.601 0 6.378-3.232 5.782-6.775l-16.016-93.09c-.283-2.92-2.806-5.216-5.84-5.216h-24.265c3.033.001 5.527 2.297 5.84 5.216z" fill="#365e7d"/><path d="m117.695 282.745c16.982 0 30.843 13.861 30.843 30.812v115.314c0 16.951-13.861 30.841-30.843 30.841-16.951 0-30.841-13.89-30.841-30.841v-115.313c0-16.952 13.89-30.813 30.841-30.813z" fill="#7fb7fa"/><path d="m179.379 282.745c16.951 0 30.841 13.861 30.841 30.812v115.314c0 16.951-13.89 30.841-30.841 30.841s-30.841-13.89-30.841-30.841l-5.471-61.767 5.471-53.547c0-16.951 13.89-30.812 30.841-30.812z" fill="#7fb7fa"/><path d="m179.379 282.745c16.951 0 30.841 13.861 30.841 30.812v115.314c0 16.951-13.89 30.841-30.841 30.841-4.31 0-8.419-.906-12.133-2.494 10.97-4.733 18.709-15.676 18.709-28.347v-115.313c0-12.643-7.739-23.584-18.709-28.317 3.714-1.617 7.823-2.496 12.133-2.496z" fill="#71aaf0"/><path d="m117.695 282.745c16.982 0 30.843 13.861 30.843 30.812v115.314c0 16.951-13.861 30.841-30.843 30.841-4.309 0-8.391-.906-12.132-2.494 10.97-4.733 18.708-15.676 18.708-28.347v-115.313c0-12.643-7.738-23.584-18.708-28.317 3.742-1.617 7.824-2.496 12.132-2.496z" fill="#71aaf0"/><path d="m191.624 122.531c0 23.697-19.389 43.087-43.086 43.087-23.699 0-43.06-19.39-43.06-43.087 0-15.364 0-30.756 0-46.149 0-13.266 10.828-24.094 24.095-24.094h55.616c4.422 0 6.434 2.522 6.434 6.406.001 21.289.001 42.577.001 63.837z" fill="#ffcbbe"/><path d="m105.479 76.383v13.919h86.145v-31.607c0-3.884-2.013-6.406-6.434-6.406h-55.616c-13.267 0-24.095 10.828-24.095 24.094z" fill="#477b9e"/><path d="m406.55 122.531c0 23.697-19.389 43.087-43.088 43.087-23.669 0-43.058-19.39-43.058-43.087v-46.148c0-13.266 10.856-24.094 24.095-24.094h37.929c13.266 0 24.122 10.828 24.122 24.094z" fill="#ffcbbe"/><path d="m320.404 76.383v16.781c12.132 4.507 22.28.709 28.12-2.607 4.535-2.58 5.271-3.09 9.779.851 20.664 18.113 48.246 8.05 48.246 8.05v-23.075c0-13.266-10.856-24.094-24.122-24.094h-37.929c-13.237 0-24.094 10.828-24.094 24.094z" fill="#c68b87"/><path d="m167.331 122.531c0 19.502-13.096 36.057-30.926 41.329 3.855 1.134 7.938 1.758 12.133 1.758 23.697 0 43.086-19.39 43.086-43.087v-32.229h-24.293z" fill="#f7beaf"/><path d="m167.331 58.695v31.607h24.293v-31.607c0-3.884-2.013-6.406-6.434-6.406h-24.265c4.422 0 6.406 2.523 6.406 6.406z" fill="#365e7d"/><path d="m382.284 122.531c0 19.502-13.124 36.057-30.954 41.329 3.855 1.134 7.936 1.758 12.132 1.758 23.699 0 43.088-19.39 43.088-43.087v-23.074s-10.97 3.997-24.266 2.409z" fill="#f7beaf"/><path d="m382.284 76.383v25.483c13.296 1.588 24.266-2.409 24.266-2.409v-23.074c0-13.266-10.856-24.094-24.122-24.094h-24.267c13.267 0 24.123 10.828 24.123 24.094z" fill="#bd7d79"/><path d="m480.252 333.23v86.712c0 4.904-4.025 8.929-8.958 8.929h24.265c4.933 0 8.958-4.024 8.958-8.929v-86.712c0-4.904-4.025-8.929-8.958-8.929h-19.559-4.706c4.933.001 8.958 4.025 8.958 8.929z" fill="#be694f"/><path d="m473.561 225.996-15.987 93.09c-.086.878-.397 1.7-.852 2.438-1.02 1.673-2.891 2.778-4.988 2.778h19.56 4.706c3.033 0 5.527-2.297 5.839-5.216l15.988-93.09c.595-3.544-2.154-6.775-5.755-6.775h-24.293c3.628 0 6.378 3.231 5.782 6.775z" fill="#365e7d"/></g></g><path d="m190.462 150.736h4.28c13.776 0 26.278 5.641 35.35 14.712 9.042 9.042 14.684 21.571 14.684 35.319v112.96c0 .964-.228 2.127-.454 3.062h23.357c-.227-.964-.425-2.04-.425-3.062v-112.96c0-13.748 5.612-26.277 14.684-35.319 9.042-9.071 21.572-14.712 35.32-14.712h4.28c-5.442-8.051-8.645-17.773-8.645-28.205v-46.148c0-8.702 3.571-16.61 9.298-22.337 5.726-5.726 13.635-9.269 22.309-9.269h37.929c8.701 0 16.61 3.544 22.336 9.269 5.727 5.727 9.27 13.635 9.27 22.337v46.149c0 10.432-3.175 20.154-8.646 28.205h4.28c13.776 0 26.277 5.641 35.348 14.712 9.071 9.042 14.684 21.571 14.684 35.319v11.083h39.233c.397 0 .793.057 1.219.113 4.082.681 6.831 4.536 6.15 8.618l-6.094 35.716c-.681 4.082-4.535 6.832-8.59 6.151-4.081-.681-6.831-4.535-6.15-8.617l4.592-26.985h-37.844-64.544l-8.817 51.646c4.735-2.098 9.98-3.26 15.45-3.26 10.545 0 20.154 4.309 27.099 11.254 6.945 6.944 11.254 16.525 11.254 27.07v3.232h42.066l5.018-29.451c.681-4.082 4.535-6.832 8.617-6.151 4.082.68 6.832 4.535 6.151 8.617l-4.592 26.985h5.641c4.536 0 8.646 1.843 11.622 4.819 2.977 2.977 4.819 7.087 4.819 11.622v86.712c0 4.535-1.843 8.645-4.819 11.622-3.09 3.09-7.256 4.79-11.622 4.79h-63.64c-1.502 7.568-5.272 14.344-10.517 19.588-6.944 6.944-16.554 11.281-27.099 11.281s-20.128-4.337-27.072-11.281c-1.36-1.332-2.608-2.807-3.77-4.337-1.133 1.53-2.381 3.005-3.741 4.337-6.944 6.944-16.526 11.281-27.071 11.281-10.572 0-20.154-4.337-27.099-11.281-5.244-5.244-8.987-12.02-10.518-19.56h-22.054c-4.139 0-7.483-3.373-7.483-7.512s3.345-7.483 7.483-7.483h21.316v-89.603h-76.592v89.603h21.316c4.139 0 7.512 3.345 7.512 7.483s-3.373 7.512-7.512 7.512h-22.054c-1.502 7.54-5.245 14.315-10.518 19.56-6.944 6.944-16.526 11.281-27.07 11.281-10.545 0-20.126-4.337-27.071-11.281-1.36-1.332-2.637-2.807-3.77-4.337-1.135 1.53-2.41 3.005-3.742 4.337-6.945 6.944-16.555 11.281-27.101 11.281-10.545 0-20.125-4.337-27.07-11.281-5.272-5.244-9.015-12.02-10.517-19.588h-63.665c-4.536 0-8.646-1.814-11.622-4.79s-4.819-7.086-4.819-11.622v-86.712c0-4.535 1.843-8.646 4.819-11.622 2.977-2.977 7.086-4.819 11.622-4.819h5.669l-4.62-26.985c-.681-4.082 2.069-7.938 6.151-8.617 4.082-.681 7.937 2.069 8.617 6.151l5.018 29.451h42.095v-3.232c0-10.545 4.309-20.126 11.254-27.07 6.945-6.945 16.525-11.254 27.07-11.254 5.5 0 10.716 1.162 15.45 3.26l-8.788-51.646h-64.545-37.843l4.592 26.985c.681 4.082-2.069 7.937-6.151 8.617-4.081.681-7.937-2.069-8.617-6.151l-6.094-35.716c-.794-4.763 2.92-8.731 7.597-8.731h39.006v-11.083c0-13.748 5.641-26.277 14.684-35.319 9.07-9.071 21.571-14.712 35.348-14.712h4.28c-5.442-8.051-8.646-17.773-8.646-28.205v-32.23-13.919c0-8.702 3.543-16.61 9.27-22.337 5.726-5.726 13.635-9.269 22.337-9.269h62.051c4.139 0 7.483 3.374 7.483 7.513v38.013 32.229c-.002 10.431-3.176 20.154-8.647 28.204zm-77.5-67.947h71.15v-23.017h-54.539c-4.564 0-8.702 1.87-11.708 4.903-3.032 3.005-4.903 7.144-4.903 11.707zm71.15 14.996h-71.15v24.746c0 9.779 3.997 18.681 10.46 25.144 6.464 6.435 15.336 10.432 25.116 10.432 9.779 0 18.68-3.997 25.114-10.46 6.463-6.435 10.46-15.336 10.46-25.115zm214.926 11.083c-11.366 1.729-30.416 1.786-46.121-12.246-5.441 3.232-14.258 6.945-25.029 5.896v20.013c0 9.779 4.025 18.681 10.46 25.144 6.463 6.435 15.363 10.432 25.114 10.432 9.78 0 18.681-3.997 25.116-10.46 6.463-6.435 10.46-15.336 10.46-25.115zm-71.15-21.43c7.852 1.275 15.165-1.361 21.09-6.321 3.146-2.608 7.767-2.211 10.432.851 12.954 14.882 30.983 13.521 39.629 11.764v-17.349c0-4.563-1.871-8.702-4.876-11.707-3.004-3.033-7.171-4.903-11.734-4.903h-37.929c-4.536 0-8.703 1.87-11.707 4.903-3.005 3.005-4.904 7.144-4.904 11.707v11.055zm-205.572 78.322h-19.984c-9.638 0-18.369 3.94-24.719 10.29-6.377 6.35-10.317 15.108-10.317 24.718v11.083h63.355c3.883 0 7.086 2.948 7.483 6.719l11.962 70.299c7.285-8.617 17.943-13.635 29.282-13.635 1.757 0 3.486.113 5.186.34v-56.239c0-4.138 3.346-7.483 7.484-7.483s7.512 3.346 7.512 7.483v61.683c2.494 1.559 4.818 3.401 6.888 5.471 6.945 6.944 11.255 16.525 11.255 27.07v3.232h8.561c1.729-.34 3.146-1.757 3.515-3.486v-112.537c0-9.609-3.939-18.368-10.289-24.718-6.379-6.35-15.11-10.29-24.748-10.29h-19.984c-7.653 4.648-16.64 7.342-26.22 7.342-9.582 0-18.567-2.694-26.222-7.342zm214.955 0h-20.013c-9.609 0-18.369 3.94-24.719 10.29s-10.29 15.108-10.29 24.718v112.535c.34 1.729 1.757 3.146 3.486 3.486h8.56v-3.232c0-10.545 4.31-20.126 11.255-27.07 2.098-2.069 4.393-3.912 6.916-5.471v-61.683c0-4.138 3.345-7.483 7.483-7.483s7.512 3.346 7.512 7.483v56.239c1.701-.227 3.431-.34 5.188-.34 10.545 0 20.127 4.309 27.071 11.254.766.766 1.503 1.559 2.183 2.381l11.99-70.299c.397-3.771 3.572-6.719 7.455-6.719h63.355v-11.083c0-9.609-3.94-18.368-10.29-24.718s-15.108-10.29-24.746-10.29h-19.984c-7.654 4.648-16.64 7.342-26.222 7.342-9.579.002-18.537-2.692-26.19-7.34zm95.386 255.656h62.901c.794 0 1.446-.708 1.446-1.474v-86.712c0-.766-.652-1.445-1.446-1.445h-62.901zm-353.286-89.631h-62.93c-.766 0-1.446.68-1.446 1.445v86.712c0 .736.681 1.474 1.446 1.474h62.93zm123.337-18.227c0-6.406-2.637-12.217-6.86-16.469-4.365-4.365-10.261-6.86-16.469-6.86-6.407 0-12.246 2.637-16.47 6.86-4.252 4.252-6.859 10.062-6.859 16.469v115.314c0 6.406 2.607 12.246 6.859 16.47 4.224 4.252 10.062 6.859 16.47 6.859 6.406 0 12.245-2.607 16.469-6.859 4.393-4.393 6.86-10.262 6.86-16.498 0-38.439 0-76.848 0-115.286zm106.584 115.285c0 6.236 2.467 12.104 6.86 16.498 4.252 4.252 10.062 6.859 16.497 6.859 6.406 0 12.218-2.607 16.47-6.859 4.224-4.224 6.86-10.063 6.86-16.47v-115.313c0-6.406-2.637-12.217-6.86-16.469-4.252-4.224-10.063-6.86-16.47-6.86-6.207 0-12.104 2.495-16.497 6.86-4.224 4.252-6.86 10.062-6.86 16.469zm85.013-138.615c-6.406 0-12.247 2.637-16.471 6.86-4.224 4.252-6.86 10.062-6.86 16.469v115.314c0 6.406 2.637 12.246 6.86 16.47 4.224 4.252 10.064 6.859 16.471 6.859 6.406 0 12.245-2.607 16.469-6.859 4.252-4.224 6.889-10.063 6.889-16.47v-104.569-10.744c0-6.406-2.637-12.217-6.889-16.469-4.224-4.224-10.063-6.861-16.469-6.861zm-276.61 0c-6.406 0-12.245 2.637-16.469 6.86-4.224 4.252-6.859 10.062-6.859 16.469v115.314c0 6.406 2.636 12.246 6.859 16.47 4.224 4.252 10.062 6.859 16.469 6.859 6.406 0 12.247-2.607 16.471-6.859 4.252-4.224 6.86-10.063 6.86-16.47v-115.313c0-6.406-2.608-12.217-6.86-16.469-4.224-4.224-10.064-6.861-16.471-6.861z"/></g></svg>