<svg id="Capa_1" enable-background="new 0 0 512.001 512.001" height="512" viewBox="0 0 512.001 512.001" width="512" xmlns="http://www.w3.org/2000/svg"><g><g><path clip-rule="evenodd" d="m157.083 124.667 69.392 49.777c0-15.562 12.756-28.318 28.318-28.318s28.318 12.756 28.318 28.318c0 49.975 13.493 82.887 13.493 121.098 0 26.42-6.35 50.004-16.328 65.482-10.091 15.676-13.181 19.305-13.181 26.674v15.932h-93.43c-11.565-53.094-41.981-74.609-41.981-159.394 0-49.183 8.901-90.571 25.399-119.569z" fill="#ffcbbe" fill-rule="evenodd"/><path clip-rule="evenodd" d="m217.489 167.981 8.986 6.434v.652 84.984c0 4.025-3.231 7.285-7.256 7.285s-7.285-3.26-7.285-7.285v-84.984c-.001-3.43 2.352-6.293 5.555-7.086z" fill="#ffcbbe" fill-rule="evenodd"/><path d="m270.582 11.874 38.268 62.334 71.206 17.178c4.79 1.162 7.71 5.982 6.548 10.746-.312 1.389-.964 2.635-1.871 3.713l-47.509 55.73 5.698 73.078c.34 4.932-3.345 9.213-8.249 9.582-1.673.113-3.26-.199-4.649-.908l-67.153-27.723-67.72 27.979c-4.564 1.871-9.779-.312-11.65-4.877-.51-1.275-.765-2.664-.652-4.053l5.669-73.078-47.48-55.73c-3.203-3.742-2.778-9.385.964-12.588 1.19-1.02 2.608-1.672 4.053-1.955l70.838-17.094 38.353-62.447c2.607-4.225 8.107-5.529 12.302-2.947 1.305.792 2.297 1.868 3.034 3.06z" fill="#ffe5a0"/><g clip-rule="evenodd" fill-rule="evenodd"><path d="m226.475 174.444c0-15.562 12.756-28.318 28.318-28.318s28.318 12.756 28.318 28.318c0 49.975 13.493 82.887 13.493 121.098 0 26.42-6.35 50.004-16.328 65.482-10.091 15.676-13.181 19.305-13.181 26.674v15.932h-40.621v-229.186z" fill="#ffcbbe"/><path d="m242.661 148.876c3.685-1.758 7.795-2.75 12.132-2.75 15.562 0 28.318 12.756 28.318 28.318 0 49.975 13.493 82.887 13.493 121.098 0 26.42-6.35 50.004-16.328 65.482-10.091 15.676-13.181 19.305-13.181 26.674v15.932h-24.265v-15.932c0-7.369 3.09-10.998 13.181-26.674 9.978-15.478 16.328-39.062 16.328-65.482 0-38.211-13.493-71.123-13.493-121.098 0-11.227-6.632-21.006-16.185-25.568z" fill="#f7beaf"/><path d="m287.845 403.629c15.279 0 27.751 12.502 27.751 27.752v45.385c0 15.25-12.473 27.75-27.751 27.75h-134.929c-15.279 0-27.751-12.5-27.751-27.75v-45.385c0-15.279 12.472-27.752 27.751-27.752z" fill="#477b9e"/><path d="m291.332 403.856c13.635 1.728 24.265 13.438 24.265 27.525v45.385c0 15.25-12.473 27.75-27.751 27.75h-134.93c-14.088 0-25.823-10.629-27.553-24.264h153.836c9.354 0 12.132-3.232 12.132-12.133v-64.263z" fill="#365e7d"/><path d="m171.88 473.051c10.46 0 18.964-8.531 18.964-18.992 0-10.432-8.504-18.965-18.964-18.965s-18.964 8.533-18.964 18.965c0 10.461 8.504 18.992 18.964 18.992z" fill="#365e7d"/><path d="m386.604 102.132c1.162-4.764-1.758-9.584-6.548-10.746l-71.206-17.178-38.268-62.334c-.737-1.191-1.729-2.267-3.033-3.061-4.195-2.582-9.695-1.277-12.302 2.947l-6.605 10.771 38.438 62.561c4.167 6.775 9.496 11.113 18.142 13.211l33.052 7.967c8.306 2.012 9.071 6.037 3.912 12.074l-22.054 25.881c-5.216 6.066-7.512 13.918-6.917 21.346l5.669 73.164 11.14 4.592c1.389.709 2.976 1.021 4.649.908 4.904-.369 8.589-4.65 8.249-9.582l-5.698-73.078 47.509-55.73c.907-1.079 1.559-2.325 1.871-3.713z" fill="#f2ce7e"/></g></g><path d="m218.991 174.444c0-9.865 4.025-18.822 10.517-25.285 6.491-6.492 15.42-10.518 25.285-10.518 9.864 0 18.822 4.025 25.313 10.518 6.463 6.463 10.488 15.42 10.488 25.285 0 17.008 1.616 32.088 3.742 46.064l38.268 15.789c.85.34 1.701.906 2.522-.029.227-.283.34-.65.312-1.049l-5.669-73.078c-.142-1.9.454-3.855 1.786-5.414l47.48-55.73c.425-.482.454-1.19.142-1.701-.199-.311-.51-.566-.879-.65l-19.077-4.594c-4.025-.992-6.491-5.018-5.527-9.043.992-3.996 5.017-6.463 9.042-5.5l19.077 4.592c4.393 1.078 7.965 3.828 10.148 7.398 2.183 3.572 2.976 7.996 1.927 12.389-.624 2.609-1.729 4.791-3.486 6.832l-45.468 53.35 5.442 70.045c.34 4.508-1.191 8.73-3.968 11.934-4.847 5.643-12.87 7.285-19.531 4.082l-29.679-12.273c.227 1.389.482 2.75.708 4.111 3.203 18.113 6.208 35.121 6.208 53.574 0 13.522-1.616 26.42-4.507 37.986-3.033 12.217-7.512 22.988-13.011 31.522-.369.566-2.069 3.174-3.657 5.584-6.321 9.725-8.334 12.842-8.334 17.065v8.447l13.238-.027c9.723 0 18.539 3.969 24.917 10.346 6.378 6.406 10.347 15.223 10.347 24.918v45.385c0 9.693-3.969 18.51-10.347 24.887-6.378 6.379-15.193 10.348-24.917 10.348h-134.956c-9.694 0-18.51-3.969-24.888-10.348-6.378-6.377-10.346-15.193-10.346-24.887v-45.385c0-9.695 3.968-18.512 10.346-24.918 6.378-6.377 15.194-10.346 24.888-10.346h11.197c-3.94-14.287-9.326-26.506-14.797-38.949-10.941-24.916-22.252-50.656-24.633-95.586-.227-4.111 2.948-7.625 7.086-7.852 4.11-.199 7.654 2.977 7.852 7.086 2.211 42.123 12.983 66.615 23.414 90.315 6.208 14.115 12.275 27.949 16.583 44.986h23.811c4.138 0 7.483 3.373 7.483 7.512s-3.345 7.512-7.483 7.512h-50.514c-5.556 0-10.602 2.268-14.287 5.953-3.657 3.656-5.953 8.73-5.953 14.287v45.385c0 5.555 2.296 10.629 5.953 14.285 3.685 3.686 8.731 5.953 14.287 5.953h134.957c5.556 0 10.63-2.268 14.315-5.953 3.657-3.684 5.953-8.73 5.953-14.285v-45.385c0-5.557-2.296-10.631-5.953-14.287-3.798-3.799-8.929-6.01-14.315-6.01-16.809 0-33.647 0-50.485.029-4.11 0-7.455-3.346-7.455-7.484 0-4.139 3.345-7.484 7.455-7.484h22.252v-8.447c0-8.588 2.608-12.613 10.8-25.201.595-.934 1.304-1.982 3.572-5.527 4.649-7.199 8.447-16.412 11.083-27.014 2.608-10.375 4.054-22.025 4.054-34.414 0-17.207-2.892-33.562-5.981-50.996-3.628-20.664-7.54-42.803-7.54-70.102 0-5.727-2.324-10.914-6.123-14.684-3.77-3.799-8.957-6.123-14.683-6.123-5.698 0-10.914 2.324-14.684 6.123-3.77 3.77-6.123 8.957-6.123 14.684v84.984c0 4.139-3.345 7.512-7.512 7.512-4.139 0-7.483-3.373-7.483-7.512v-17.604l-21.005 8.674c-4.195 1.701-8.674 1.588-12.529-.027-6.491-2.723-10.601-9.412-10.091-16.357l5.442-70.045-22.195-26.051c-4.677 10.006-8.561 21.289-11.565 33.703-4.082 16.754-6.633 35.492-7.54 55.844-.17 4.139-3.657 7.314-7.795 7.145-4.11-.17-7.313-3.656-7.143-7.795.936-21.316 3.629-41.02 7.937-58.707 3.883-15.932 9.099-30.219 15.534-42.578l-12.699-14.91c-2.948-3.457-4.224-7.766-3.912-11.934.595-7.428 6.236-13.154 13.436-14.883l67.238-16.242 36.766-59.84c2.381-3.857 6.123-6.408 10.205-7.373 6.973-1.672 14.23 1.447 17.887 7.514l36.68 59.699 16.044 3.883c4.025.965 6.491 5.018 5.528 9.014-.992 4.025-5.018 6.492-9.043 5.5l-18.51-4.451c-2.069-.34-3.997-1.559-5.188-3.486l-38.296-62.307c-.708-1.219-1.956-1.049-2.665.086l-38.239 62.217c-.992 1.645-2.608 2.863-4.621 3.346l-70.271 16.951c-.369.086-1.587.256-1.899 1.105-.198.482-.113 1.049.227 1.475 15.732 18.453 31.493 36.936 47.225 55.418 1.417 1.475 2.211 3.516 2.041 5.727l-5.669 73.078c-.028.596.312 1.191.879 1.418.368.143.765.17 1.134.029l26.674-11.029v-51.194zm-47.111 253.139c7.313 0 13.918 2.977 18.708 7.768s7.767 11.395 7.767 18.709-2.977 13.947-7.767 18.738c-4.79 4.789-11.395 7.738-18.708 7.738-7.314 0-13.918-2.949-18.737-7.738-4.79-4.791-7.739-11.424-7.739-18.738 0-7.315 2.948-13.918 7.739-18.709 4.819-4.792 11.423-7.768 18.737-7.768zm8.106 18.369c-2.069-2.07-4.932-3.373-8.107-3.373s-6.038 1.303-8.107 3.373c-2.098 2.068-3.374 4.961-3.374 8.107 0 3.174 1.276 6.037 3.374 8.137 2.069 2.068 4.932 3.344 8.107 3.344s6.038-1.275 8.107-3.344c2.098-2.1 3.374-4.963 3.374-8.137 0-3.146-1.276-6.039-3.374-8.107z"/></g></svg>