<svg id="Capa_1" enable-background="new 0 0 512 512" height="512" viewBox="0 0 512 512" width="512" xmlns="http://www.w3.org/2000/svg"><g><g clip-rule="evenodd" fill-rule="evenodd"><path d="m256 328.666c89.831 0 163.079-28.091 163.079-62.504s-73.248-62.504-163.079-62.504-163.079 28.091-163.079 62.504 73.248 62.504 163.079 62.504z" fill="#477b9e"/><path d="m256 203.658c90.086 0 163.079 27.978 163.079 62.504 0 12.529-9.609 24.208-26.193 33.987.992-2.551 1.503-5.13 1.503-7.767 0-29.282-61.966-53.036-138.389-53.036s-138.36 23.754-138.36 53.036c0 2.636.51 5.216 1.474 7.767-16.555-9.779-26.193-21.458-26.193-33.987 0-34.526 73.021-62.504 163.079-62.504z" fill="#365e7d"/><path d="m222.097 150.424h67.806c28.319 0 51.478 23.159 51.478 51.477v117.524c-24.832 5.839-54.085 9.241-85.38 9.241s-60.52-3.401-85.352-9.241v-117.524c-.001-28.318 23.159-51.477 51.448-51.477z" fill="#a5cdff"/><path d="m317.116 201.901v122.23c8.447-1.333 16.582-2.892 24.264-4.706v-117.524c0-28.318-23.159-51.477-51.478-51.477h-24.265c28.319 0 51.479 23.159 51.479 51.477z" fill="#8abfff"/><path d="m256 479.838c41.499 0 75.317-16.583 75.317-36.936s-33.818-36.936-75.317-36.936c-41.471 0-75.317 16.583-75.317 36.936s33.846 36.936 75.317 36.936z" fill="#ebd2ff"/><path d="m82.83 421.104c41.471 0 75.317-16.611 75.317-36.936 0-20.353-33.846-36.935-75.317-36.935-41.499 0-75.317 16.582-75.317 36.935-.001 20.325 33.817 36.936 75.317 36.936z" fill="#ccf49f"/><path d="m429.199 421.104c41.472 0 75.318-16.611 75.318-36.936 0-20.353-33.846-36.935-75.318-36.935-41.499 0-75.346 16.582-75.346 36.935 0 20.325 33.846 36.936 75.346 36.936z" fill="#a5cdff"/><path d="m302.857 108.584c0 25.739-21.089 46.829-46.857 46.829s-46.829-21.09-46.829-46.829v-50.201c0-14.429 11.792-26.221 26.221-26.221h41.245c14.428 0 26.22 11.792 26.22 26.221z" fill="#ffcbbe"/><path d="m209.171 58.383v18.227c13.209 4.904 24.236.794 30.558-2.834 4.961-2.806 5.754-3.345 10.659.935 22.479 19.701 52.469 8.759 52.469 8.759v-25.087c0-14.429-11.792-26.221-26.22-26.221h-41.245c-14.429 0-26.221 11.792-26.221 26.221z" fill="#c68b87"/><path d="m480.251 384.168c0 18.369-27.383 33.619-63.213 36.454 3.969.311 8.022.482 12.161.482 41.585 0 75.318-16.554 75.318-36.936 0-20.41-33.733-36.935-75.318-36.935-4.139 0-8.192.142-12.161.453 35.831 2.864 63.213 18.086 63.213 36.482z" fill="#8abfff"/><path d="m307.052 442.902c0 18.369-27.354 33.619-63.185 36.454 3.969.312 7.994.482 12.132.482 41.613 0 75.317-16.526 75.317-36.936 0-20.409-33.704-36.936-75.317-36.936-4.139 0-8.164.142-12.132.482 35.831 2.835 63.185 18.086 63.185 36.454z" fill="#d7bef0"/><path d="m133.882 384.168c0 18.369-27.355 33.619-63.185 36.454 3.94.311 7.994.482 12.132.482 41.585 0 75.317-16.554 75.317-36.936 0-20.41-33.732-36.935-75.317-36.935-4.139 0-8.192.142-12.132.453 35.83 2.864 63.185 18.086 63.185 36.482z" fill="#b3e59f"/><path d="m276.381 108.584c0 7.569-1.842 14.74-5.046 21.09-5.811 11.396-16.129 20.126-28.573 23.812 4.195 1.247 8.646 1.927 13.238 1.927 9.439 0 18.255-2.835 25.654-7.682 12.728-8.39 21.203-22.847 21.203-39.146v-25.116s-11.99 4.366-26.476 2.608z" fill="#f7beaf"/><path d="m276.381 58.383v27.694c14.486 1.758 26.476-2.608 26.476-2.608v-25.086c0-14.429-11.792-26.221-26.22-26.221h-26.476c14.399 0 26.22 11.792 26.22 26.221z" fill="#bd7d79"/></g><path d="m163.136 325.293-28.12 24.038c1.502.652 2.948 1.304 4.365 2.013 16.214 7.937 26.277 19.531 26.277 32.825 0 11.48-7.455 21.628-19.899 29.31-11.367 7.002-27.185 12.105-45.157 14.117-4.11.454-7.795-2.495-8.248-6.605-.454-4.11 2.495-7.824 6.605-8.277 15.817-1.786 29.424-6.066 38.948-11.934 7.965-4.932 12.756-10.743 12.756-16.611 0-7.115-6.832-14.003-17.859-19.417-14.939-7.314-33.761-10.034-49.975-10.034-19.701 0-37.361 3.827-49.975 10.034-11.027 5.414-17.859 12.303-17.859 19.417 0 5.868 4.79 11.679 12.756 16.611 9.524 5.868 23.131 10.148 38.948 11.934 4.082.454 7.059 4.167 6.605 8.277s-4.139 7.058-8.249 6.605c-17.972-2.012-33.789-7.115-45.157-14.117-12.442-7.682-19.898-17.83-19.898-29.311 0-13.294 10.035-24.888 26.278-32.825 14.627-7.171 34.64-11.622 56.552-11.622 12.728 0 24.804 1.502 35.575 4.167l27.638-23.67c-2.749-.907-5.442-1.871-8.022-2.863-32.485-12.444-52.611-30.501-52.611-51.194 0-13.833 8.589-26.362 23.868-36.822 13.153-9.014 31.607-16.667 53.859-22.309v-5.13c0-16.243 6.633-30.983 17.319-41.669 8.958-8.958 20.779-15.08 33.932-16.809-7.938-9.439-12.728-21.628-12.728-34.838v-50.201c0-9.298 3.799-17.717 9.893-23.839 6.123-6.095 14.542-9.893 23.84-9.893h41.245c9.269 0 17.716 3.799 23.811 9.893 6.123 6.122 9.893 14.541 9.893 23.839v50.201c0 13.21-4.79 25.398-12.699 34.838 13.153 1.729 24.945 7.852 33.931 16.809 10.658 10.687 17.292 25.427 17.292 41.669v5.13c22.054 5.727 40.536 13.437 53.802 22.507 15.223 10.46 23.925 22.904 23.925 36.624 0 20.693-20.098 38.75-52.611 51.194-2.58.992-5.244 1.956-7.994 2.863l27.638 23.67c10.744-2.665 22.848-4.167 35.575-4.167 21.912 0 41.897 4.451 56.524 11.622 16.24 7.937 26.275 19.531 26.275 32.825 0 11.48-7.427 21.628-19.899 29.31-11.339 7.002-27.156 12.105-45.128 14.117-4.111.454-7.824-2.495-8.278-6.605s2.523-7.824 6.633-8.277c15.79-1.786 29.424-6.066 38.92-11.934 7.994-4.932 12.756-10.743 12.756-16.611 0-7.115-6.803-14.003-17.83-19.417-12.643-6.207-30.303-10.034-49.976-10.034-16.214 0-35.065 2.721-50.003 10.034-11.027 5.414-17.83 12.303-17.83 19.417 0 5.868 4.762 11.679 12.756 16.611 9.496 5.868 23.131 10.148 38.92 11.934 4.11.454 7.086 4.167 6.633 8.277-.454 4.11-4.167 7.058-8.277 6.605-17.972-2.012-33.79-7.115-45.128-14.117-12.473-7.682-19.899-17.83-19.899-29.31 0-13.294 10.035-24.888 26.277-32.825 1.389-.708 2.863-1.361 4.337-2.013l-28.12-24.038c-15.562 3.997-31.465 6.718-47.453 8.476-12.643 1.36-25.371 2.098-37.9 2.324v62.532c18.936.907 36.085 5.103 49.04 11.452 16.243 7.965 26.277 19.531 26.277 32.825s-10.034 24.86-26.277 32.825c-14.627 7.172-34.64 11.622-56.552 11.622s-41.897-4.45-56.523-11.622c-16.243-7.965-26.306-19.531-26.306-32.825s10.063-24.86 26.306-32.825c12.926-6.35 30.076-10.545 49.04-11.452v-62.532c-18.227-.312-36.482-1.757-54.511-4.535-10.403-1.587-20.693-3.656-30.869-6.264zm142.839 98.192c-12.614-6.18-30.274-10.035-49.975-10.035-19.672 0-37.333 3.855-49.975 10.035-11.027 5.414-17.831 12.302-17.831 19.417s6.804 14.003 17.831 19.417c12.643 6.179 30.303 10.006 49.975 10.006 19.701 0 37.361-3.827 49.975-10.006 11.027-5.414 17.859-12.302 17.859-19.417s-6.832-14.003-17.859-19.417zm-10.63-330.548c-12.217 1.984-33.449 2.381-50.741-13.351-5.896 3.571-15.817 7.88-27.95 6.463v22.535c0 10.8 4.422 20.637 11.565 27.78 7.144 7.115 16.98 11.565 27.78 11.565 10.828 0 20.665-4.451 27.78-11.565 7.143-7.143 11.565-16.979 11.565-27.78v-15.647zm-78.69-21.968c8.362 1.502 17.575-1.247 23.896-6.86 3.118-2.692 7.852-2.352 10.545.766 14.541 16.725 34.923 14.882 44.249 12.897v-19.389c0-5.159-2.098-9.836-5.499-13.238-3.401-3.374-8.079-5.5-13.21-5.5h-41.245c-5.16 0-9.837 2.126-13.238 5.5-3.373 3.401-5.499 8.079-5.499 13.238v12.586zm16.497 86.882-11.055.057c-12.076 0-23.074 4.961-31.04 12.926s-12.926 18.964-12.926 31.068v111.543c8.079 1.701 16.583 3.175 25.456 4.365v-86.882c0-4.139 3.374-7.512 7.512-7.512 4.139 0 7.483 3.373 7.483 7.512v88.554c11.991 1.105 24.52 1.672 37.418 1.672 12.897 0 25.427-.567 37.418-1.672v-88.554c0-4.139 3.373-7.512 7.512-7.512s7.483 3.373 7.483 7.512v86.882c8.873-1.19 17.405-2.665 25.456-4.365v-111.544c0-12.104-4.932-23.103-12.926-31.068-7.965-7.965-18.964-12.926-31.04-12.926h-11.197c-6.917 3.203-14.599 5.017-22.706 5.017-8.135 0-15.874-1.814-22.848-5.073zm-70.016 151.936v-87.278c-18.879 5.074-34.385 11.622-45.44 19.19-11.055 7.597-17.264 15.931-17.264 24.463 0 13.833 16.385 27.014 42.917 37.19 6.124 2.354 12.729 4.48 19.787 6.435zm185.728 0c7.058-1.956 13.691-4.082 19.786-6.435 26.532-10.176 42.945-23.357 42.945-37.19 0-8.362-6.321-16.668-17.377-24.265-11.112-7.597-26.646-14.23-45.354-19.36z"/></g></svg>