<svg id="Capa_1" enable-background="new 0 0 512 512" height="512" viewBox="0 0 512 512" width="512" xmlns="http://www.w3.org/2000/svg"><g><g clip-rule="evenodd" fill-rule="evenodd"><path d="m165.263 504.431v-44.362h9.1c0-24.917 36.538-45.128 81.638-45.128 45.099 0 81.638 20.211 81.638 45.128h9.1v44.362z" fill="#ebd2ff"/><path d="m174.589 460.125v44.362h-148.763c-7.625-.85-13.691-6.917-14.541-14.57v-29.793c0-24.917 36.538-45.128 81.638-45.128 45.098.001 81.666 20.212 81.666 45.129z" fill="#a5cdff"/><path d="m500.941 460.069v29.793c-.851 7.625-6.916 13.691-14.569 14.57h-148.734v-44.362c0-24.917 36.567-45.128 81.666-45.128 45.071-.002 81.637 20.209 81.637 45.127z" fill="#ccf49f"/><path d="m25.571 7.54h460.828c8.022 0 14.57 6.548 14.57 14.543v240.522c0 7.994-6.548 14.57-14.57 14.57h-460.828c-7.993 0-14.542-6.576-14.542-14.57v-240.522c0-7.995 6.549-14.543 14.542-14.543z" fill="#d6e8ff"/><path d="m476.705 7.54h9.694c8.022 0 14.57 6.548 14.57 14.543v240.522c0 7.994-6.548 14.57-14.57 14.57h-460.828c-7.993 0-14.542-6.576-14.542-14.57v-9.694h453.544c8.617 0 12.132-3.77 12.132-12.132z" fill="#c4dfff"/><path d="m163.562 277.118h73.955v-119.538c-.623-4.309-4.024-7.71-8.334-8.334h-57.288c-4.309.624-7.71 4.025-8.333 8.334z" fill="#b3e59f"/><path d="m274.481 277.118h73.956v-53.292c-.623-4.309-4.024-7.71-8.334-8.305h-57.288c-4.309.595-7.71 3.997-8.334 8.305z" fill="#ff6978"/><path d="m385.401 277.118h73.956v-128.78c-.624-4.309-4.025-7.71-8.334-8.333h-57.288c-4.309.624-7.738 4.025-8.334 8.333z" fill="#b3e59f"/><path d="m52.643 277.118h73.956v-61.002c-.624-4.309-4.025-7.71-8.334-8.305h-57.288c-4.309.595-7.711 3.997-8.334 8.305z" fill="#ff6978"/><path d="m304.869 389.513c0 26.873-21.997 48.87-48.869 48.87-26.873 0-48.869-21.997-48.869-48.87v-52.385c0-15.023 12.302-27.354 27.354-27.354h43.03c15.052 0 27.355 12.331 27.355 27.354v52.385z" fill="#ffcbbe"/><path d="m468.201 389.513c0 26.873-21.996 48.87-48.897 48.87-26.872 0-48.869-21.997-48.869-48.87v-52.385c0-15.023 12.331-27.354 27.354-27.354h43.03c15.052 0 27.382 12.331 27.382 27.354z" fill="#ffcbbe"/><path d="m141.565 389.513c0 26.873-21.997 48.87-48.897 48.87-26.873 0-48.87-21.997-48.87-48.87v-52.385c0-15.023 12.331-27.354 27.354-27.354h63.128l7.285 7.285z" fill="#c68b87"/><path d="m370.435 337.128v32.146l33.421-16.385c4.507-2.211 8.872-2.41 13.435-.85l50.91 17.235v-32.146c0-15.023-12.33-27.354-27.382-27.354h-43.03c-15.023 0-27.354 12.331-27.354 27.354z" fill="#c68b87"/><path d="m207.131 337.128v19.049c13.776 5.103 25.285.794 31.89-2.948 5.159-2.948 6.009-3.515 11.111.964 23.442 20.523 54.737 9.128 54.737 9.128v-26.193c0-15.023-12.303-27.354-27.355-27.354h-43.03c-15.051 0-27.353 12.331-27.353 27.354z" fill="#ffe5a0"/><path d="m43.798 337.128v15.789h97.768v-35.859c0-4.394-2.268-7.285-7.285-7.285h-63.129c-15.023.001-27.354 12.332-27.354 27.355z" fill="#477b9e"/><path d="m476.677 460.069v29.793c-.85 7.625-6.916 13.691-14.569 14.57h24.265c7.653-.879 13.719-6.945 14.569-14.57v-29.793c0-17.32-17.688-32.372-43.597-39.941-2.041 2.495-4.309 4.819-6.774 6.86 16.072 8.248 26.106 20.013 26.106 33.081z" fill="#b3e59f"/><path d="m313.373 460.069v29.793c-.85 7.625-6.917 13.691-14.542 14.57h38.807c1.021-1.077 0-40.054 0-44.362 0-17.32-17.66-32.372-43.597-39.941-2.013 2.495-4.28 4.819-6.747 6.86 16.045 8.247 26.079 20.012 26.079 33.08z" fill="#d7bef0"/><path d="m150.324 460.125v29.793c-.851 7.653-6.917 13.72-14.57 14.57h38.835c.992-1.077 0-40.054 0-44.362 0-17.32-17.688-32.373-43.625-39.941-2.013 2.523-4.28 4.819-6.747 6.888 16.045 8.22 26.107 19.985 26.107 33.052z" fill="#8abfff"/><path d="m436.142 415.904c-6.604 10.205-16.895 17.83-28.97 20.948 3.883.992 7.965 1.53 12.132 1.53 11.877 0 22.791-4.28 31.267-11.395 2.466-2.041 4.733-4.365 6.774-6.86 6.775-8.391 10.857-19.049 10.857-30.615v-20.239l-24.265-8.221v28.461c-.001 9.694-2.891 18.766-7.795 26.391z" fill="#f7beaf"/><path d="m443.936 337.128v23.924l24.265 8.221v-32.146c0-15.023-12.33-27.354-27.382-27.354h-24.265c15.052.001 27.382 12.332 27.382 27.355z" fill="#bd7d79"/><path d="m280.604 389.513c0 9.694-2.863 18.766-7.795 26.391-6.605 10.205-16.895 17.83-28.942 20.948 3.884.992 7.938 1.53 12.133 1.53 15.307 0 29.055-7.143 38.013-18.255 6.774-8.391 10.856-19.049 10.856-30.615v-26.192s-10.687 3.912-24.265 3.033z" fill="#f7beaf"/><path d="m280.604 337.128v29.226c13.578.879 24.265-3.033 24.265-3.033v-26.193c0-15.023-12.303-27.354-27.355-27.354h-24.264c15.052 0 27.354 12.331 27.354 27.354z" fill="#f2ce7e"/><path d="m109.477 415.933c-6.604 10.205-16.895 17.802-28.941 20.92 3.884.992 7.966 1.53 12.133 1.53 15.335 0 29.055-7.143 38.04-18.255 6.775-8.391 10.857-19.049 10.857-30.615v-36.596h-24.265v36.596c0 9.723-2.892 18.795-7.824 26.42z" fill="#bd7d79"/><path d="m117.301 317.059v35.859h24.265v-35.859c0-4.394-2.268-7.285-7.285-7.285h-24.265c5.017 0 7.285 2.891 7.285 7.285z" fill="#365e7d"/></g><path d="m142.302 416.244c10.318 3.997 19.105 9.241 25.711 15.393 2.381 2.211 4.507 4.564 6.321 7.002 1.814-2.438 3.939-4.791 6.321-7.002 6.604-6.151 15.392-11.395 25.682-15.393-4.28-7.965-6.718-17.037-6.718-26.646v-52.384c0-9.61 3.911-18.312 10.232-24.634 6.321-6.321 15.023-10.233 24.633-10.233h43.03c9.609 0 18.312 3.912 24.633 10.233s10.233 15.024 10.233 24.634v52.384c0 9.609-2.438 18.681-6.746 26.646 10.317 3.997 19.105 9.241 25.71 15.393 2.381 2.211 4.507 4.564 6.321 7.002 1.815-2.438 3.94-4.791 6.321-7.002 6.604-6.151 15.393-11.395 25.71-15.393-4.309-7.965-6.746-17.037-6.746-26.646v-52.384c0-9.61 3.912-18.312 10.233-24.634 6.321-6.321 15.023-10.233 24.633-10.233h43.029c9.61 0 18.312 3.912 24.634 10.233 6.321 6.321 10.233 15.024 10.233 24.634v52.384c0 9.609-2.439 18.681-6.719 26.646 10.29 3.997 19.077 9.241 25.682 15.393 8.788 8.164 13.834 17.887 13.834 28.517v44.363c0 4.138-3.374 7.483-7.513 7.483h-163.33-163.332-163.333c-4.139 0-7.512-3.345-7.512-7.483v-44.363c0-10.63 5.046-20.354 13.833-28.517 6.605-6.151 15.364-11.395 25.683-15.393-4.28-7.965-6.719-17.037-6.719-26.646v-52.384c0-19.191 15.676-34.867 34.866-34.867h70.385c4.139 0 7.512 3.345 7.512 7.512v79.739c0 9.609-2.439 18.681-6.747 26.646zm-91.021-70.753h82.772v-28.148h-62.901c-10.913 0-19.871 8.958-19.871 19.872zm82.773 14.995h-82.773v29.112c0 11.367 4.649 21.714 12.161 29.198 7.512 7.512 17.858 12.16 29.226 12.16 11.366 0 21.713-4.648 29.225-12.16 7.483-7.484 12.161-17.831 12.161-29.198zm80.56-9.893c3.6.681 6.916.624 9.921.114 4.337-.709 7.881-2.268 11.65-4.394 8.306-4.733 10.035-5.386 18.851 2.325 14.882 13.011 33.562 11.027 42.35 9.071v-20.494c0-5.471-2.239-10.432-5.84-14.032-3.6-3.6-8.589-5.84-14.031-5.84h-43.03c-5.471 0-10.431 2.24-14.031 5.84s-5.839 8.561-5.839 14.032v13.378zm82.772 22.309c-12.444 2.126-34.214 2.721-52.186-13.012-1.105-.992-1.305-.765-2.495-.085-3.883 2.211-9.27 4.593-15.704 5.67-3.798.624-7.937.822-12.387.255v23.868c0 11.367 4.648 21.714 12.16 29.198 7.512 7.512 17.858 12.16 29.226 12.16 11.367 0 21.713-4.648 29.225-12.16 7.483-7.484 12.161-17.831 12.161-29.198zm80.56-15.562 22.648-11.084c6.208-3.033 12.558-3.458 19.105-1.247l41.018 13.89v-21.685c0-5.471-2.239-10.432-5.839-14.032-3.601-3.6-8.561-5.84-14.032-5.84h-43.029c-5.442 0-10.432 2.24-14.031 5.84-3.601 3.6-5.84 8.561-5.84 14.032zm82.772 17.376-45.808-15.506c-2.778-.935-5.131-.822-7.767.482l-29.197 14.287v15.619c0 11.367 4.678 21.714 12.161 29.198 7.512 7.512 17.858 12.16 29.225 12.16s21.714-4.648 29.226-12.16c7.512-7.484 12.16-17.831 12.16-29.198zm-408.473 54.086c-10.232 3.487-18.736 8.221-24.718 13.776-5.754 5.329-9.043 11.368-9.043 17.576v36.851h148.338v-36.851c0-6.208-3.289-12.247-9.015-17.576-5.981-5.556-14.485-10.289-24.718-13.776-10.658 10.97-25.115 17.178-40.422 17.178s-29.792-6.208-40.422-17.178zm326.665 0c-10.233 3.487-18.737 8.221-24.718 13.776-5.727 5.329-9.015 11.368-9.015 17.576v36.851h148.309v-36.851c0-6.208-3.288-12.247-9.014-17.576-5.981-5.556-14.485-10.289-24.719-13.776-10.658 10.97-25.114 17.178-40.422 17.178-15.277 0-29.791-6.208-40.421-17.178zm-163.332 0c-10.233 3.487-18.737 8.221-24.719 13.776-5.726 5.329-9.042 11.368-9.042 17.576v36.851h148.337v-36.851c0-6.208-3.288-12.247-9.015-17.576-5.98-5.556-14.484-10.289-24.718-13.776-10.63 10.97-25.144 17.178-40.422 17.178-15.307 0-29.791-6.208-40.421-17.178zm277.908-343.79c0-4.139 3.374-7.512 7.512-7.512 4.139 0 7.513 3.373 7.513 7.512v177.592c0 12.161-9.922 22.054-22.082 22.054h-27.043-73.956-36.992-73.956-36.964-73.984-36.964-73.984-27.043c-12.132 0-22.054-9.893-22.054-22.054v-240.55c0-12.133 9.922-22.054 22.054-22.054h397.956c4.139 0 7.483 3.374 7.483 7.512 0 4.139-3.345 7.484-7.483 7.484h-397.956c-3.855 0-7.059 3.204-7.059 7.059v96.889l70.47 44.221 106.781-88.98c2.551-2.098 6.208-2.324 8.957-.51l105.166 70.129 54.028-68.656c2.778-3.515 7.993-3.827 11.168-.68l25.824 22.564 82.006-82.036h-25.427c-4.139 0-7.483-3.345-7.483-7.484 0-4.138 3.345-7.512 7.483-7.512h43.54c4.139 0 7.513 3.374 7.513 7.512v43.513c0 4.167-3.374 7.512-7.513 7.512-4.138 0-7.512-3.345-7.512-7.512v-25.399l-86.967 86.968c-2.749 2.75-7.229 2.92-10.204.312l-25.541-22.309-53.178 67.635c-2.353 3.289-6.889 4.167-10.29 1.899l-106.297-70.867-106.328 88.612c-2.438 2.239-6.15 2.693-9.099.851l-67.097-42.124v126.001c0 3.855 3.203 7.059 7.059 7.059h19.56v-61.853c0-4.139 3.345-7.483 7.483-7.483h73.984c4.138 0 7.483 3.345 7.483 7.483v34.696 27.156h21.996v-120.388c0-4.139 3.346-7.512 7.483-7.512h73.984c4.139 0 7.483 3.373 7.483 7.512v33.109 30.841 30.814 25.625h21.997v-54.142c0-4.139 3.345-7.483 7.483-7.483h73.956c4.167 0 7.512 3.345 7.512 7.483v54.142h21.997v-129.658c0-4.139 3.345-7.483 7.483-7.483h73.956c4.167 0 7.512 3.345 7.512 7.483v129.658h19.531c3.883 0 7.058-3.203 7.058-7.059v-177.592zm-182.012 168.834c-4.139 0-7.512-3.345-7.512-7.512 0-4.139 3.373-7.483 7.512-7.483h29.48v-15.818h-58.961v46.63h58.961v-15.817zm110.948-6.945c-4.139 0-7.512-3.345-7.512-7.484s3.373-7.512 7.512-7.512h29.48v-15.817h-29.48c-4.139 0-7.512-3.345-7.512-7.483 0-4.167 3.373-7.512 7.512-7.512h29.48v-15.818h-29.48c-4.139 0-7.512-3.373-7.512-7.512s3.373-7.483 7.512-7.483h29.48v-22.763h-58.961v122.146h58.961v-22.762zm-221.897 4.649c-4.138 0-7.512-3.374-7.512-7.512 0-4.139 3.374-7.512 7.512-7.512h29.48v-15.818h-29.48c-4.138 0-7.512-3.345-7.512-7.483s3.374-7.512 7.512-7.512h29.48v-15.818h-29.48c-4.138 0-7.512-3.345-7.512-7.512 0-4.139 3.374-7.483 7.512-7.483h29.48v-18.142h-58.96v112.905h58.96v-18.113zm-110.947-1.56c-4.139 0-7.512-3.345-7.512-7.483 0-4.167 3.373-7.512 7.512-7.512h29.479v-19.673h-58.96v54.341h58.96v-19.673z"/></g></svg>