<svg id="Capa_1" enable-background="new 0 0 512 512" height="512" viewBox="0 0 512 512" width="512" xmlns="http://www.w3.org/2000/svg"><g><g clip-rule="evenodd" fill-rule="evenodd"><path d="m122.771 256.311h65.566c21.402 6.406 35.944 18.879 35.944 33.223v185.19l-137.454-66.133v-119.057c0-14.344 14.542-26.816 35.944-33.223z" fill="#a5cdff"/><path d="m164.128 256.311h24.208c21.402 6.406 35.944 18.879 35.944 33.223v185.19l-24.236-11.651v-173.539c0-14.344-14.514-26.816-35.916-33.223z" fill="#8abfff"/><path d="m325.394 256.311h65.679c21.431 6.406 35.972 18.879 35.972 33.223v126.568l-137.624 62.505v-189.073c0-14.344 14.542-26.816 35.973-33.223z" fill="#ccf49f"/><path d="m366.893 256.311h24.236c21.402 6.406 35.915 18.879 35.915 33.223v127.051l-24.208-11.65v-115.4c.001-14.345-14.541-26.817-35.943-33.224z" fill="#b3e59f"/><path d="m224.252 350.395h65.283c21.288 6.406 35.746 18.879 35.746 33.224v72.311h-136.774v-72.311c0-14.346 14.457-26.818 35.745-33.224z" fill="#ebd2ff"/><path d="m265.298 350.395h24.236c21.288 6.406 35.746 18.879 35.746 33.224v72.311h-24.209v-72.311c.001-14.346-14.456-26.818-35.773-33.224z" fill="#d7bef0"/><path d="m461.912 116.307c27.156 39.8 43.03 87.903 43.03 139.693 0 137-111.035 248.062-248.034 248.062-68.515 0-130.537-27.751-175.41-72.652l34.044-34.044c36.17 36.198 86.146 58.563 141.366 58.563 110.411 0 199.901-89.52 199.901-199.93 0-41.018-12.331-79.116-33.534-110.864 16.101-4.874 29.736-15.221 38.637-28.828z" fill="#ffe5a0"/><path d="m134.874 385.658v57.459c0 5.13-2.494 7.625-7.653 7.625h-57.431c-2.948 0-3.94-3.686-2.239-5.386l8.561-8.561c4.649-4.734 4.451-6.208.057-10.857-41.699-44.533-67.324-104.117-67.324-169.938 0-137 111.063-248.062 248.063-248.062 68.486 0 130.508 27.779 175.381 72.652l-34.016 34.044c-36.199-36.17-86.175-58.535-141.366-58.535-110.411 0-199.93 89.491-199.93 199.901 0 52.527 20.324 100.035 53.264 135.866 4.961 5.414 6.123 4.678 10.687.113l8.532-8.533c2.24-2.239 5.414-.906 5.414 2.212z" fill="#ff6978"/><path d="m481.415 150.38c-11.226-23.783-26.25-45.128-43.796-64.291-5.698-6.207-4.337-6.463.085-10.885l8.532-8.532c2.013-2.013.624-5.414-2.239-5.414h-57.431c-5.018 0-7.625 2.722-7.625 7.653v57.43c0 3.233 3.146 4.481 5.386 2.241l8.533-8.533c4.252-4.309 5.641-5.386 10.687.085 16.016 17.32 28.998 37.361 38.155 59.472 15.873-5.812 29.621-16.045 39.713-29.226z" fill="#ffe5a0"/><path d="m256.908 504.062c137 0 248.034-111.062 248.034-248.062 0-49.607-15.137-98.873-43.115-139.58-7.314-10.687-15.449-20.778-24.208-30.331-5.698-6.207-4.337-6.463.085-10.885l8.532-8.532c2.013-2.013.624-5.414-2.239-5.414h-33.421-24.01c-2.807 0-4.876.879-6.151 2.494-1.361 1.729-1.474 3.742-1.474 5.84 12.812 8.391 24.719 18.057 35.547 28.828 11.112 11.056 21.062 23.244 29.679 36.427 7.002 10.687 13.096 22.024 18.199 33.874 11.708 27.184 18.199 57.176 18.199 88.64 0 55.702-20.296 106.669-53.944 145.873-7.228 8.447-15.052 16.328-23.442 23.584-39.345 34.102-90.653 54.738-146.808 54.738-44.873 0-86.684-13.182-121.749-35.916-.737 3.43-3.175 5.103-7.398 5.103h-24.01c42.262 33.392 95.64 53.319 153.694 53.319z" fill="#f2ce7e"/><path d="m256.369 33.166c-123.819 0-224.195 100.376-224.195 224.194 0 56.268 20.75 107.718 54.993 147.092 2.183 2.523 4.451 4.989 6.747 7.398 1.162 1.219 2.324 2.438 3.515 3.629 11.254 11.31 23.727 21.458 37.191 30.16.17-.737.255-1.587.255-2.522v-11.452-17.291-28.716c0-3.118-3.175-4.451-5.414-2.212l-8.532 8.533c-4.564 4.564-5.727 5.301-10.687-.113-8.589-9.354-16.328-19.475-23.074-30.303-19.107-30.642-30.19-66.728-30.19-105.563 0-110.41 89.519-199.901 199.93-199.901 45.921 0 88.272 15.478 122.033 41.527v-28.034c-35.235-23.018-77.331-36.426-122.572-36.426z" fill="#e85a68"/><path d="m399.095 232.558c0 22.479-18.397 40.847-40.848 40.847-22.479 0-40.848-18.368-40.848-40.847v-43.769c0-12.585 10.29-22.875 22.847-22.875h35.972c12.586 0 22.876 10.29 22.876 22.875v43.769z" fill="#ffcbbe"/><path d="m196.415 232.558c0 22.479-18.396 40.847-40.848 40.847-22.479 0-40.848-18.368-40.848-40.847 0-14.599 0-29.17 0-43.769 0-12.585 10.291-22.875 22.848-22.875h52.753c4.195 0 6.094 2.409 6.094 6.095.001 20.182.001 40.365.001 60.549z" fill="#ffcbbe"/><g fill="#c68b87"><path d="m317.4 188.789v26.846l27.921-13.664c3.77-1.843 7.427-2.013 11.226-.737l42.548 14.401v-26.846c0-12.585-10.29-22.875-22.876-22.875h-35.972c-12.558 0-22.847 10.29-22.847 22.875z"/><path d="m114.72 188.789v13.182h81.695v-29.962c0-3.686-1.899-6.095-6.094-6.095h-52.753c-12.558 0-22.848 10.29-22.848 22.875z"/><path d="m297.755 326.641c0 22.45-18.397 40.847-40.848 40.847-22.479 0-40.848-18.397-40.848-40.847v-43.768c0-12.586 10.29-22.875 22.848-22.875h35.972c12.585 0 22.876 10.289 22.876 22.875z"/></g><path d="m216.06 282.872v15.902c11.508 4.281 21.118.682 26.646-2.465 4.308-2.467 5.017-2.921 9.269.793 19.616 17.179 45.78 7.654 45.78 7.654v-21.885c0-12.586-10.29-22.875-22.876-22.875h-35.972c-12.557.001-22.847 10.29-22.847 22.876z" fill="#477b9e"/><path d="m374.859 232.558c0 18.255-12.132 33.817-28.744 39.005 3.827 1.219 7.909 1.842 12.133 1.842 22.45 0 40.848-18.368 40.848-40.847v-16.923l-24.236-8.193v25.116z" fill="#f7beaf"/><path d="m374.859 188.789v18.652l24.236 8.193v-26.846c0-12.585-10.29-22.875-22.876-22.875h-24.208c12.558.001 22.848 10.291 22.848 22.876z" fill="#bd7d79"/><path d="m273.519 326.641c0 18.255-12.132 33.817-28.743 39.004 3.827 1.191 7.909 1.843 12.132 1.843 22.451 0 40.848-18.397 40.848-40.847v-21.884s-11.083 4.025-24.237 2.126z" fill="#bd7d79"/><path d="m273.519 282.872v24.011c13.153 1.899 24.237-2.126 24.237-2.126v-21.885c0-12.586-10.29-22.875-22.876-22.875h-24.208c12.557 0 22.847 10.289 22.847 22.875z" fill="#365e7d"/><path d="m172.179 232.558c0 18.255-12.132 33.817-28.744 39.005 3.855 1.219 7.909 1.842 12.132 1.842 22.451 0 40.848-18.368 40.848-40.847v-30.587h-24.236z" fill="#f7beaf"/><path d="m172.179 172.009v29.962h24.236v-29.962c0-3.686-1.899-6.095-6.094-6.095h-24.208c4.167 0 6.066 2.409 6.066 6.095z" fill="#bd7d79"/></g><path d="m300.136 346.71c8.164 3.401 15.109 7.738 20.353 12.756 7.342 7.001 11.537 15.307 11.537 24.379v49.351c22.677-9.751 43.087-23.697 60.293-40.875 9.865-9.894 18.653-20.808 26.193-32.628v-70.102c0-4.763-2.495-9.439-6.86-13.578-4.479-4.28-10.8-7.966-18.454-10.8-9.185 10.006-22.054 15.731-35.689 15.731-13.607 0-26.504-5.725-35.689-15.76-3.827 1.36-7.2 2.862-10.148 4.535-3.146 1.786-5.839 3.77-8.079 6.038.539 2.296.85 4.677.85 7.143v43.854c.002 7.115-1.557 13.861-4.307 19.956zm90.795-125.774-40.366-13.664-26.447 12.955v12.303c0 9.185 3.77 17.518 9.808 23.584 6.066 6.066 14.428 9.808 23.585 9.808 9.184 0 17.546-3.741 23.612-9.808 6.038-6.066 9.808-14.399 9.808-23.584zm-66.813-17.378 22.195-10.856c1.814-1.049 4.025-1.332 6.151-.623l38.467 13.039v-16.441c0-4.224-1.729-8.078-4.536-10.856-2.778-2.806-6.633-4.535-10.856-4.535h-36.029c-4.224 0-8.079 1.73-10.857 4.535-2.806 2.778-4.535 6.633-4.535 10.856zm-203.048-9.184h66.841v-21.09h-51.449c-4.224 0-8.05 1.73-10.856 4.535-2.778 2.778-4.536 6.633-4.536 10.856zm66.841 15.024h-66.841v23.132c0 9.185 3.77 17.518 9.837 23.584 6.066 6.066 14.4 9.808 23.584 9.808 9.185 0 17.519-3.741 23.585-9.808 6.066-6.066 9.836-14.399 9.836-23.584v-23.132zm101.51 104.798c-10.885 1.587-28.715 1.474-43.512-11.594-5.159 3.033-13.352 6.406-23.301 5.556v18.596c0 9.184 3.742 17.546 9.808 23.584 6.067 6.066 14.401 9.836 23.585 9.836s17.546-3.77 23.585-9.836c6.066-6.038 9.836-14.4 9.836-23.584v-12.558zm-66.813-21.119c6.747.992 14.202-1.332 19.276-5.867 3.118-2.722 7.852-2.382 10.573.765 11.991 13.806 28.687 12.728 36.964 11.085v-16.16c0-4.224-1.729-8.078-4.535-10.856-2.778-2.807-6.633-4.535-10.857-4.535h-36.029c-4.224 0-8.079 1.729-10.886 4.535-2.778 2.778-4.507 6.633-4.507 10.856v10.177zm-19.672-60.548c0 7.087-1.559 13.833-4.309 19.899 3.118 1.275 6.038 2.721 8.759 4.252 3.033 1.729 5.783 3.6 8.277 5.612 5.783-6.236 13.833-9.808 22.337-9.808h36.028c8.448 0 16.47 3.515 22.224 9.694 2.438-2.013 5.103-3.827 8.022-5.499 2.778-1.588 5.811-3.005 9.071-4.338-2.721-6.037-4.252-12.756-4.252-19.814v-43.854c0-8.391 3.402-15.987 8.93-21.486 5.499-5.527 13.124-8.929 21.487-8.929h36.029c8.362 0 15.987 3.401 21.487 8.929 5.5 5.499 8.929 13.096 8.929 21.486v43.854c0 7.087-1.531 13.833-4.309 19.899 8.135 3.401 15.081 7.71 20.324 12.728 7.37 7.001 11.565 15.335 11.565 24.434v41.613c9.809-23.103 15.223-48.53 15.223-75.204 0-26.164-5.188-51.053-14.57-73.73-8.788-21.203-21.26-40.507-36.681-57.147l-13.947 13.948c-2.92 2.947-7.682 2.947-10.63 0-1.616-1.616-2.353-3.827-2.154-5.953v-32.004c-15.846-11.707-33.62-21.09-52.725-27.609-19.474-6.632-40.365-10.26-62.051-10.26-53.235 0-101.425 21.571-136.291 56.466-34.895 34.867-56.467 83.057-56.467 136.292 0 26.164 5.188 51.053 14.598 73.759.199.481.425.992.624 1.502v-41.67c0-9.1 4.252-17.462 11.651-24.463 5.244-4.989 12.161-9.298 20.239-12.671-2.749-6.095-4.309-12.841-4.309-19.928v-30.644-13.21c0-8.391 3.43-15.987 8.929-21.486 5.528-5.527 13.124-8.929 21.487-8.929h58.961c4.139 0 7.512 3.345 7.512 7.512v36.113 30.644zm-12.785 32.684c-9.185 10.006-22.054 15.731-35.661 15.731-13.606 0-26.476-5.697-35.66-15.731-7.597 2.834-13.919 6.52-18.397 10.772-4.422 4.167-6.945 8.844-6.945 13.606v70.13c6.208 9.666 13.238 18.766 21.005 27.157l13.947-13.948c2.948-2.919 7.71-2.919 10.63 0 1.474 1.475 2.211 3.402 2.211 5.329v32.656c11.821 8.617 24.832 16.072 38.693 22.025v-49.096c0-9.072 4.195-17.378 11.509-24.351 5.273-5.046 12.218-9.383 20.41-12.784-2.778-6.095-4.309-12.841-4.309-19.956v-43.853c0-2.438.283-4.79.822-7.086-2.324-2.211-5.159-4.252-8.391-6.095-2.948-1.672-6.236-3.174-9.864-4.506zm30.189 94.225c-7.654 2.862-14.003 6.576-18.51 10.913-4.338 4.139-6.832 8.759-6.832 13.494v54.822c19.304 6.491 39.884 10.091 61.002 10.091 21.317 0 41.84-3.458 61.002-9.836v-55.077c0-4.764-2.494-9.384-6.832-13.522-4.507-4.309-10.856-8.022-18.482-10.885-9.212 10.034-22.054 15.761-35.689 15.761-13.605-.001-26.475-5.727-35.659-15.761zm150.437-276.609v-21.911c0-4.11 3.345-7.512 7.483-7.512h7.965c-16.044-10.177-33.449-18.653-51.818-25.031-24.69-8.56-51.194-13.352-78.407-13.352-29.792 0-58.281 5.387-84.559 15.223-27.27 10.232-52.214 25.286-73.787 44.107-3.118 2.722-7.852 2.41-10.573-.708s-2.41-7.853.708-10.573c22.904-19.984 49.409-35.973 78.436-46.857 27.979-10.488 58.254-16.215 89.775-16.215 28.8 0 56.949 5.102 83.283 14.231 26.76 9.297 51.563 22.705 73.22 39.176h38.58c4.139 0 7.512 3.373 7.512 7.512 0 2.098-.851 3.997-2.24 5.357l-14.088 14.088c21.147 22.45 38.325 48.757 50.344 77.756 12.501 30.188 19.389 63.269 19.389 97.88 0 31.55-5.726 61.796-16.214 89.774-10.885 29.026-26.845 55.531-46.857 78.464-2.721 3.09-7.455 3.43-10.545.681-3.118-2.722-3.43-7.428-.708-10.545 18.822-21.572 33.846-46.518 44.079-73.815 9.836-26.249 15.222-54.738 15.222-84.559 0-32.684-6.463-63.809-18.227-92.184-12.19-29.424-30.076-55.929-52.329-78.181l-.028-.028c-2.92-2.92-2.92-7.682 0-10.63l6.548-6.52h-47.198v28.488.851 17.857l6.576-6.576c2.92-2.919 7.683-2.919 10.602 0 19.134 19.135 34.555 42.011 45.128 67.494 10.148 24.52 15.732 51.336 15.732 79.428 0 57.374-23.244 109.333-60.86 146.922-37.587 37.615-89.548 60.86-146.921 60.86-22.989 0-45.468-3.969-66.502-11.141-17.178-5.84-33.421-13.861-48.218-23.557v21.997c0 4.139-3.373 7.512-7.512 7.512h-8.107c16.016 10.206 33.421 18.71 51.761 25.059 24.718 8.589 51.222 13.323 78.577 13.323 29.821 0 58.309-5.387 84.559-15.223 27.298-10.233 52.243-25.258 73.815-44.079 3.118-2.722 7.824-2.41 10.545.708 2.75 3.09 2.41 7.824-.68 10.545-22.933 20.013-49.437 35.973-78.464 46.857-27.977 10.491-58.223 16.218-89.774 16.218-28.942 0-57.09-5.046-83.425-14.202-26.646-9.24-51.364-22.648-73.021-39.204h-38.636c-4.139 0-7.512-3.373-7.512-7.512 0-2.098.879-3.997 2.24-5.357l14.116-14.088c-21.175-22.45-38.325-48.727-50.344-77.756-12.501-30.189-19.418-63.241-19.418-97.881 0-31.521 5.727-61.796 16.215-89.774 10.885-29.027 26.873-55.532 46.857-78.436 2.721-3.118 7.455-3.43 10.573-.709 3.118 2.722 3.43 7.455.708 10.573-18.822 21.572-33.874 46.518-44.107 73.787-9.836 26.278-15.222 54.767-15.222 84.559 0 32.684 6.491 63.837 18.227 92.184 12.189 29.452 30.104 55.957 52.357 78.209 2.948 2.948 2.948 7.71 0 10.63l-6.548 6.548h47.198v-47.169l-6.548 6.521c-2.949 2.948-7.683 2.948-10.631 0-19.134-19.107-34.555-42.011-45.1-67.494-10.148-24.491-15.76-51.337-15.76-79.428 0-57.374 23.272-109.305 60.86-146.922 37.616-37.588 89.548-60.86 146.921-60.86 23.301 0 45.809 3.911 66.87 11.083 17.065 5.811 33.167 13.776 47.907 23.527z"/></g></svg>