<svg id="Capa_1" enable-background="new 0 0 512 512" height="512" viewBox="0 0 512 512" width="512" xmlns="http://www.w3.org/2000/svg"><g><g clip-rule="evenodd" fill-rule="evenodd"><path d="m349.431 34.147h148.027c3.77 0 4.819 2.806 2.466 5.471l-31.379 35.802c-4.111 4.677-4.451 5.839 0 10.942l31.379 35.773c2.92 3.345 1.077 5.499-2.466 5.499h-148.027z" fill="#ff6978"/><path d="m146.524 289.208v177.874c-.624 5.527-4.989 9.893-10.516 10.517h-87.79c-5.528-.624-9.893-4.989-10.517-10.517v-177.874z" fill="#6aa2e6"/><path d="m49.805 127.633h84.615c23.301 0 42.322 19.021 42.322 42.293v92.722c0 16.696-13.521 30.217-30.218 30.217h-86.996l-6.832-1.956-7.682 1.956h-7.313c-16.697 0-30.218-13.521-30.218-30.217v-92.722c.001-23.273 19.05-42.293 42.322-42.293z" fill="#a5cdff"/><path d="m110.326 127.633h24.094c23.301 0 42.322 19.021 42.322 42.293v92.722c0 16.696-13.521 30.217-30.218 30.217h-24.094c16.668 0 30.218-13.55 30.218-30.217v-92.722c0-23.273-19.049-42.293-42.322-42.293z" fill="#8abfff"/><path d="m282.872 289.208v177.874c-.623 5.527-4.988 9.893-10.517 10.517h-87.818c-5.499-.624-9.865-4.989-10.488-10.517v-177.874z" fill="#c0a1d9"/><path d="m186.125 127.633h94.536 2.211v.086c5.017.51 9.893 2.664 13.72 6.463l90.145 90.142c8.759 8.759 8.759 23.103 0 31.861-8.761 8.759-23.103 8.759-31.863 0l-65.027-65.027c-2.92-2.352-7.2-.935-6.974 3.628v98.079h-86.996l-6.888-1.587-7.626 1.587h-7.313c-16.696 0-30.218-13.521-30.218-30.217v-92.722c-.001-23.273 19.02-42.293 42.293-42.293z" fill="#ebd2ff"/><path d="m258.58 127.633h22.081 2.211v.086c5.017.51 9.893 2.664 13.72 6.463l90.145 90.142c8.759 8.759 8.759 23.103 0 31.861-7.599 7.597-19.362 8.589-28.064 3.033 1.332-.85 2.608-1.871 3.771-3.033 8.759-8.759 8.759-23.102 0-31.861l-90.144-90.142c-3.826-3.798-8.702-5.953-13.719-6.463v-.086zm24.292 67.153v98.079h-24.292v-77.839c0-16.272 14.598-20.07 24.292-20.24z" fill="#d7bef0"/><path d="m132.238 99.599c0 22.053-18.057 40.11-40.111 40.11-22.082 0-40.139-18.057-40.139-40.11 0-14.344 0-28.658 0-43.002 0-12.331 10.12-22.45 22.451-22.45h51.818c4.11 0 5.981 2.381 5.981 5.981z" fill="#ffcbbe"/><path d="m51.988 56.597v12.955h80.249v-29.425c0-3.6-1.871-5.981-5.981-5.981h-51.817c-12.331.001-22.451 10.12-22.451 22.451z" fill="#c68b87"/><path d="m268.586 99.599c0 22.053-18.057 40.11-40.139 40.11-22.055 0-40.111-18.057-40.111-40.11v-43.002c0-12.331 10.121-22.45 22.45-22.45h35.321c12.358 0 22.479 10.12 22.479 22.45z" fill="#c68b87"/><path d="m188.336 56.597v15.619c11.311 4.224 20.75.68 26.193-2.41 4.224-2.409 4.932-2.863 9.1.794 19.275 16.866 44.957 7.512 44.957 7.512v-21.515c0-12.331-10.12-22.45-22.479-22.45h-35.321c-12.33 0-22.45 10.119-22.45 22.45z" fill="#477b9e"/><path d="m107.945 69.551v30.047c0 17.83-11.793 33.052-27.978 38.211 3.855 1.247 7.908 1.899 12.16 1.899 22.054 0 40.111-18.057 40.111-40.11v-30.047z" fill="#f7beaf"/><path d="m107.945 40.127v29.424h24.293v-29.424c0-3.6-1.871-5.981-5.981-5.981h-24.265c4.111.001 5.953 2.381 5.953 5.981z" fill="#bd7d79"/><path d="m244.293 80.096v19.502c0 17.83-11.792 33.052-27.979 38.211 3.827 1.247 7.909 1.899 12.133 1.899 22.082 0 40.139-18.057 40.139-40.11v-21.486s-11.169 4.054-24.293 1.984z" fill="#bd7d79"/><path d="m221.843 34.147c12.358 0 22.45 10.12 22.45 22.45v23.5c13.124 2.069 24.293-1.984 24.293-1.984v-21.516c0-12.331-10.12-22.45-22.479-22.45z" fill="#365e7d"/><path d="m258.58 292.865v174.217c-.596 5.527-4.989 9.893-10.488 10.517h24.264c5.528-.624 9.893-4.989 10.517-10.517v-174.217z" fill="#b592d1"/><path d="m122.232 292.865v174.217c-.596 5.527-4.989 9.893-10.488 10.517h24.265c5.527-.624 9.893-4.989 10.516-10.517v-174.217z" fill="#5a94db"/><path d="m444.279 75.419c-4.11 4.677-4.478 5.839 0 10.942l31.38 35.773c2.892 3.345 1.049 5.499-2.495 5.499h24.294c3.543 0 5.386-2.154 2.466-5.499l-31.379-35.773c-4.451-5.102-4.111-6.265 0-10.942l31.379-35.802c2.354-2.665 1.305-5.471-2.466-5.471h-24.294c3.771 0 4.849 2.806 2.495 5.471z" fill="#e85a68"/></g><path d="m409.923 120.32c4.139 0 7.483 3.345 7.483 7.512 0 4.139-3.345 7.483-7.483 7.483h-53.122v48.784l35.065 35.065c5.84 5.867 8.76 13.549 8.76 21.231s-2.92 15.392-8.76 21.231c-5.839 5.839-13.551 8.759-21.232 8.759-4.762 0-9.524-1.134-13.833-3.373v210.586c0 4.167-3.373 7.512-7.512 7.512s-7.512-3.345-7.512-7.512v-223.597l-51.535-51.534v264.841c0 4.309-2.636 9.326-5.669 12.274-3.146 3.118-8.136 5.528-12.586 5.528h-87.506c-4.252 0-9.326-2.58-12.331-5.528-3.062-3.004-5.669-7.994-5.669-12.359v-167.498c-4.507-.907-8.731-2.608-12.501-4.989v172.573c0 4.309-2.665 9.326-5.67 12.274s-8.05 5.528-12.331 5.528h-87.761c-4.28 0-9.354-2.58-12.331-5.528-3.062-2.976-5.669-7.937-5.669-12.274v-167.584c-7.399-1.474-14.032-5.159-19.163-10.29-6.831-6.832-11.055-16.243-11.055-26.674v-19.474c0-4.139 3.374-7.512 7.512-7.512s7.483 3.373 7.483 7.512v19.474c0 6.265 2.551 11.962 6.662 16.072 4.11 4.11 9.779 6.633 16.072 6.633h7.086v-108.028c0-4.11 3.345-7.456 7.455-7.456 4.139 0 7.484 3.345 7.484 7.456v108.028h79.229v-8.646c-1.786-4.479-2.693-9.241-2.693-14.06v-19.474c0-4.139 3.373-7.483 7.483-7.483 4.139 0 7.484 3.345 7.484 7.483v19.474c0 6.265 2.551 11.962 6.662 16.072 4.11 4.11 9.808 6.633 16.072 6.633h7.086v-108.027c0-4.11 3.345-7.456 7.484-7.456 4.11 0 7.456 3.345 7.456 7.456v108.028h79.229v-90.454c0-2.977.709-5.726 2.637-8.107 2.041-2.551 5.017-4.025 8.306-4.167 3.032-.142 6.661 1.077 8.844 3.288 21.657 21.657 43.343 43.313 64.999 64.999 2.92 2.891 6.747 4.365 10.602 4.365s7.711-1.474 10.63-4.365c2.92-2.92 4.367-6.775 4.367-10.63 0-3.856-1.447-7.71-4.367-10.602-30.047-30.047-60.065-60.066-90.114-90.114-1.474-1.474-3.09-2.551-4.79-3.26-1.786-.737-3.742-1.105-5.811-1.105h-20.551c-8.419 7.512-19.503 12.076-31.635 12.076-12.105 0-23.188-4.564-31.607-12.076h-10.687c-9.553 0-18.255 3.912-24.576 10.233-6.293 6.321-10.205 14.996-10.205 24.577v39.175c0 4.167-3.373 7.512-7.512 7.512s-7.512-3.345-7.512-7.512v-39.175c0-12.189 4.422-23.357 11.735-32.032-.794-.34-1.587-.624-2.409-.907-3.487-1.219-7.257-1.871-11.197-1.871h-10.687c-8.419 7.512-19.503 12.076-31.607 12.076s-23.187-4.564-31.606-12.076h-10.688c-9.553 0-18.255 3.912-24.576 10.233-6.294 6.321-10.233 14.996-10.233 24.577v39.175c0 4.167-3.345 7.512-7.483 7.512-4.139 0-7.512-3.345-7.512-7.512v-39.175c0-13.72 5.613-26.164 14.627-35.178 8.873-8.9 21.09-14.457 34.555-14.627-3.005-6.208-4.678-13.181-4.678-20.523v-30.018-12.954c0-8.221 3.374-15.704 8.788-21.146 5.415-5.414 12.898-8.788 21.147-8.788h57.771c4.139 0 7.483 3.374 7.483 7.512v35.376 30.019c0 7.342-1.672 14.315-4.677 20.523 5.386.057 10.573 1.021 15.449 2.665 3.43 1.19 6.689 2.749 9.751 4.62 7.37-4.507 16.016-7.171 25.229-7.285-3.005-6.208-4.677-13.181-4.677-20.523v-42.973c0-8.221 3.373-15.704 8.787-21.146 5.443-5.414 12.927-8.788 21.175-8.788h35.293c8.248 0 15.731 3.374 21.145 8.788 5.443 5.442 8.816 12.926 8.816 21.146v42.973c0 7.342-1.701 14.315-4.678 20.523h9.241c3.94 0 7.824.765 11.48 2.268 3.601 1.474 6.888 3.657 9.752 6.491l39.997 40.025c0-44.901 0-89.802 0-134.703 0-4.138 3.373-7.512 7.512-7.512h155.228c4.139 0 7.483 3.374 7.483 7.512 0 2.098-.879 4.025-2.268 5.386l-36.256 41.329 36.652 41.783c2.722 3.09 2.409 7.823-.709 10.545-1.36 1.19-3.089 1.871-4.903 1.871h-60.634c-4.139 0-7.484-3.345-7.484-7.483 0-4.167 3.346-7.512 7.484-7.512h44.107l-30.02-34.243c-2.495-2.749-2.58-7.03-.057-9.893l30.076-34.299h-131.187v78.434h53.122zm-189.016 349.795v-130.904c0-4.139 3.345-7.483 7.455-7.483 4.139 0 7.483 3.345 7.483 7.483v130.904h36c1.645-.34 3.061-1.587 3.401-3.26v-166.365h-93.743v166.365c.34 1.672 1.729 2.92 3.402 3.26zm-136.292 0v-130.904c0-4.139 3.345-7.483 7.483-7.483 4.139 0 7.483 3.345 7.483 7.483v130.904h36.001c1.645-.34 3.033-1.587 3.402-3.26v-166.365h-93.771v166.365c.368 1.672 1.757 2.92 3.401 3.26zm-25.115-407.821h65.198v-20.409h-50.259c-4.082 0-7.824 1.701-10.545 4.393-2.722 2.722-4.394 6.464-4.394 10.546zm65.198 14.996h-65.198v22.507c0 17.915 14.684 32.599 32.599 32.599 17.916 0 32.599-14.684 32.599-32.599zm136.263 10.375c-10.687 1.531-28.035 1.361-42.491-11.338-5.046 2.919-13.012 6.179-22.706 5.414v18.057c0 8.957 3.685 17.121 9.581 23.018 5.924 5.924 14.06 9.581 23.018 9.581 8.957 0 17.121-3.657 23.018-9.581 5.924-5.897 9.581-14.06 9.581-23.018v-12.133zm-65.198-20.977c6.577.936 13.719-1.36 18.68-5.754 3.119-2.693 7.852-2.353 10.546.765 11.679 13.436 27.864 12.444 35.972 10.856v-15.731c0-4.082-1.673-7.824-4.395-10.545-2.692-2.693-6.434-4.393-10.544-4.393h-35.292c-4.11 0-7.851 1.701-10.573 4.393-2.692 2.721-4.393 6.463-4.393 10.545v9.864z"/></g></svg>