<svg id="Capa_1" enable-background="new 0 0 512 512" height="512" viewBox="0 0 512 512" width="512" xmlns="http://www.w3.org/2000/svg"><g><g clip-rule="evenodd" fill-rule="evenodd"><path d="m255.998 222.181c-18.68 0-33.817 15.137-33.817 33.817s15.137 33.845 33.817 33.845 33.845-15.166 33.845-33.845-15.165-33.817-33.845-33.817zm-86.143 22.932c.057-2.182 1.162-3.288 3.345-3.344h9.723c1.871.028 3.657-1.786 4.054-3.231 1.786-6.35 4.309-13.436 7.851-18.992 1.191-1.842.652-3.968-.567-5.159l-6.887-6.888c-1.191-1.757-1.219-3.345 0-4.705l15.42-15.421c1.559-1.36 3.146-1.389 4.706 0l6.888 6.888c1.304 1.361 3.486 1.559 5.159.596 6.832-3.912 11.594-5.584 18.992-7.88 1.701-.539 3.316-2.013 3.231-4.054v-9.722c.057-2.268 1.162-3.345 3.344-3.345h21.799c2.154 0 3.288 1.077 3.316 3.345v9.722c-.057 2.041 1.531 3.515 3.26 4.054 7.398 2.296 12.161 3.968 18.964 7.88 1.672.963 3.855.765 5.187-.596l6.86-6.888c1.587-1.389 3.147-1.36 4.706 0l15.42 15.421c1.219 1.36 1.19 2.948 0 4.705l-6.888 6.888c-1.219 1.191-1.758 3.317-.567 5.159 3.543 5.556 6.094 12.642 7.852 18.992.425 1.446 2.183 3.26 4.081 3.231h9.723c2.154.057 3.288 1.162 3.316 3.344v21.799c-.028 2.154-1.162 3.259-3.316 3.316h-9.723c-1.899 0-3.657 1.786-4.081 3.26-1.758 6.321-4.309 13.408-7.852 18.963-1.19 1.871-.652 3.997.567 5.188l6.888 6.86c1.19 1.757 1.219 3.345 0 4.706l-15.42 15.42c-1.559 1.36-3.118 1.417-4.706 0l-6.86-6.888c-1.332-1.361-3.515-1.531-5.187-.567-6.803 3.912-11.565 5.584-18.964 7.852-1.729.539-3.316 2.013-3.26 4.082v9.723c-.028 2.239-1.162 3.345-3.316 3.316h-21.799c-2.182.028-3.288-1.077-3.344-3.316v-9.723c.085-2.069-1.531-3.543-3.231-4.082-7.398-2.268-12.161-3.94-18.992-7.852-1.672-.964-3.854-.794-5.159.567l-6.888 6.888c-1.56 1.417-3.147 1.36-4.706 0l-15.42-15.42c-1.219-1.361-1.191-2.948 0-4.706l6.887-6.86c1.219-1.191 1.758-3.317.567-5.188-3.543-5.556-6.066-12.642-7.851-18.963-.397-1.474-2.183-3.26-4.054-3.26h-9.723c-2.183-.057-3.289-1.162-3.345-3.316z" fill="#477b9e"/><path d="m255.998 140.461c-8.419 0-16.695.964-24.604 2.608-3.174.68-5.187-.028-6.604-3.345l-11.735-28.289c-1.474-3.43 1.36-5.471 2.835-5.868 2.325-.595 4.762-1.219 7.143-1.701 1.616-.312 4.791-2.522 4.791-5.839v-32.485c0-6.888-1.729-7.994-7.994-7.994h-8.9c-2.835 0-4.592-3.401-2.352-5.64 14.002-14.003 28.005-28.006 42.008-41.98 3.004-3.146 7.824-3.146 10.828 0 14.003 13.975 28.006 27.977 42.009 41.98 2.239 2.239.482 5.64-2.325 5.64h-8.929c-6.236 0-7.994 1.106-7.994 7.994v32.485c0 3.316 3.175 5.527 4.791 5.839 2.381.482 4.819 1.105 7.171 1.701 1.446.397 4.309 2.438 2.806 5.868l-11.707 28.289c-1.417 3.317-3.43 4.025-6.605 3.345-7.937-1.644-16.185-2.608-24.633-2.608z" fill="#ff6978"/><path d="m174.589 174.136c-5.953 5.953-11.111 12.472-15.533 19.247-1.786 2.721-3.685 3.657-7.058 2.296l-28.29-11.707c-3.458-1.361-2.891-4.819-2.126-6.123 1.219-2.098 2.495-4.251 3.855-6.292.907-1.361 1.588-5.159-.765-7.512l-22.96-22.96c-4.876-4.876-6.888-4.422-11.31 0l-6.293 6.293c-2.012 2.013-5.669.822-5.669-2.325.028-19.813.028-39.599.028-59.385-.085-4.365 3.316-7.766 7.653-7.653 19.814-.028 39.599-.028 59.384-.028 3.175 0 4.337 3.656 2.353 5.64l-6.292 6.293c-4.422 4.422-4.876 6.463 0 11.311l22.96 22.988c2.353 2.324 6.151 1.644 7.511.737 2.041-1.361 4.195-2.637 6.265-3.855 1.333-.765 4.762-1.332 6.151 2.154l11.707 28.261c1.361 3.373.425 5.301-2.296 7.058-6.774 4.45-13.294 9.581-19.275 15.562z" fill="#b3e59f"/><path d="m140.461 256.282c0 8.419.964 16.695 2.607 24.604.68 3.203-.028 5.188-3.344 6.633l-28.29 11.707c-3.43 1.474-5.471-1.361-5.868-2.835-.595-2.324-1.219-4.762-1.701-7.143-.312-1.616-2.523-4.79-5.839-4.79h-32.484c-6.888 0-7.993 1.729-7.993 7.993v8.901c0 2.834-3.401 4.592-5.641 2.352-14.003-14.002-28.006-28.006-41.98-42.008-3.146-3.005-3.146-7.824 0-10.829 13.975-14.003 27.978-28.006 41.98-42.008 2.239-2.239 5.641-.482 5.641 2.324v8.929c0 6.264 1.105 7.993 7.993 7.993h32.485c3.316 0 5.527-3.175 5.839-4.791.482-2.381 1.105-4.818 1.701-7.143.397-1.474 2.438-4.337 5.868-2.835l28.29 11.707c3.316 1.445 4.024 3.43 3.344 6.604-1.644 7.939-2.608 16.216-2.608 24.635z" fill="#ff6978"/><path d="m174.334 338.031c5.953 5.953 12.472 11.112 19.247 15.534 2.721 1.786 3.657 3.685 2.296 7.059l-11.707 28.289c-1.36 3.458-4.819 2.892-6.123 2.126-2.098-1.219-4.252-2.495-6.293-3.855-1.361-.907-5.159-1.587-7.511.765l-22.96 22.96c-4.876 4.876-4.422 6.888 0 11.31l6.292 6.293c1.984 2.013.822 5.669-2.324 5.669-19.814-.028-39.599-.028-59.384-.028-4.365.085-7.767-3.316-7.682-7.653 0-19.813 0-39.6 0-59.385 0-3.175 3.657-4.337 5.641-2.353l6.293 6.293c4.421 4.422 6.462 4.876 11.309 0l22.988-22.96c2.325-2.353 1.645-6.151.737-7.512-1.361-2.04-2.636-4.195-3.855-6.264-.766-1.333-1.333-4.762 2.154-6.151l28.261-11.707c3.373-1.36 5.272-.425 7.058 2.296 4.452 6.774 9.582 13.294 15.563 19.274z" fill="#b3e59f"/><path d="m256.48 371.564c8.419 0 16.696-.992 24.604-2.636 3.175-.652 5.188.028 6.633 3.374l11.706 28.261c1.474 3.458-1.361 5.499-2.834 5.868-2.324.624-4.762 1.247-7.143 1.701-1.616.34-4.79 2.551-4.79 5.839v32.513c0 6.86 1.729 7.994 7.994 7.994h8.9c2.835 0 4.592 3.401 2.353 5.641-14.003 13.975-28.006 27.977-42.009 41.98-3.005 3.146-7.824 3.146-10.828 0-14.003-14.004-28.006-28.006-42.009-41.98-2.239-2.24-.481-5.641 2.325-5.641h8.929c6.236 0 7.994-1.134 7.994-7.994v-32.514c0-3.288-3.175-5.499-4.79-5.839-2.381-.453-4.819-1.077-7.171-1.701-1.446-.369-4.309-2.409-2.806-5.868l11.707-28.261c1.417-3.345 3.43-4.025 6.605-3.374 7.935 1.645 16.211 2.637 24.63 2.637z" fill="#ff6978"/><path d="m338.032 337.55c5.953-5.953 11.111-12.501 15.533-19.275 1.786-2.721 3.685-3.628 7.059-2.296l28.289 11.735c3.458 1.361 2.892 4.819 2.126 6.123-1.219 2.098-2.495 4.251-3.855 6.264-.907 1.389-1.587 5.188.765 7.512l22.961 22.989c4.875 4.847 6.888 4.422 11.31 0l6.293-6.321c2.013-1.984 5.669-.822 5.669 2.352-.028 19.785-.028 39.6-.028 59.385.085 4.365-3.317 7.767-7.654 7.653-19.814 0-39.599.028-59.384.028-3.175 0-4.337-3.656-2.353-5.641l6.293-6.321c4.422-4.422 4.876-6.435 0-11.282l-22.96-22.989c-2.353-2.324-6.151-1.672-7.511-.737-2.041 1.36-4.195 2.636-6.265 3.855-1.333.766-4.762 1.332-6.151-2.154l-11.707-28.289c-1.36-3.345-.425-5.272 2.296-7.059 6.773-4.421 13.293-9.58 19.274-15.532z" fill="#b3e59f"/><path d="m371.564 255.8c0-8.419-.991-16.696-2.636-24.605-.652-3.175.028-5.188 3.373-6.604l28.261-11.735c3.459-1.474 5.499 1.36 5.868 2.835.623 2.324 1.247 4.762 1.701 7.171.34 1.587 2.551 4.762 5.84 4.762h32.513c6.859 0 7.993-1.729 7.993-7.993v-8.9c0-2.807 3.401-4.592 5.641-2.353 13.975 14.003 27.978 28.006 41.981 42.008 3.146 3.005 3.146 7.824 0 10.829-14.003 14.002-28.006 28.006-41.981 42.008-2.239 2.239-5.641.482-5.641-2.324v-8.929c0-6.236-1.134-7.993-7.993-7.993h-32.513c-3.289 0-5.5 3.175-5.84 4.79-.453 2.409-1.077 4.818-1.701 7.171-.369 1.474-2.409 4.309-5.868 2.807l-28.261-11.707c-3.345-1.417-4.025-3.43-3.373-6.605 1.645-7.938 2.636-16.186 2.636-24.633z" fill="#ff6978"/><path d="m337.408 174.277c-5.953-5.981-12.501-11.111-19.275-15.562-2.721-1.786-3.628-3.685-2.268-7.058l11.707-28.26c1.361-3.487 4.819-2.92 6.123-2.155 2.098 1.219 4.252 2.495 6.293 3.855 1.36.907 5.159 1.587 7.483-.737l22.988-22.988c4.847-4.847 4.422-6.888 0-11.31l-6.321-6.293c-1.984-1.984-.822-5.641 2.353-5.641h59.384c4.365-.085 7.767 3.316 7.653 7.682.028 19.785.028 39.571.028 59.385 0 3.146-3.656 4.309-5.641 2.324l-6.321-6.293c-4.422-4.422-6.435-4.876-11.282 0l-22.988 22.96c-2.324 2.353-1.644 6.151-.737 7.512 1.36 2.041 2.636 4.195 3.855 6.264.765 1.332 1.333 4.79-2.154 6.151l-28.261 11.707c-3.374 1.36-5.301.425-7.059-2.296-4.449-6.775-9.607-13.294-15.56-19.247z" fill="#b3e59f"/><path d="m259.91 45.417v52.61c0 3.316 3.175 5.527 4.791 5.839 2.409.482 4.818 1.105 7.171 1.701 1.474.397 4.309 2.438 2.806 5.868l-11.706 28.289c-.142.312-.283.624-.454.907 6.179.369 12.245 1.219 18.113 2.438 3.175.68 5.187-.028 6.605-3.345l11.707-28.289c1.502-3.43-1.36-5.471-2.806-5.868-2.353-.595-4.79-1.219-7.171-1.701-1.616-.312-4.791-2.522-4.791-5.839v-32.485c0-6.888 1.758-7.994 7.994-7.994h8.929c2.807 0 4.564-3.401 2.325-5.64l-42.009-41.98c-3.004-3.146-7.824-3.146-10.828 0l-6.718 6.718 8.447 8.419c5.129 5.13 7.595 6.831 7.595 20.352z" fill="#e85a68"/><path d="m409.293 108.146c0 5.612-1.02 10.63-6.264 15.902l-16.979 17.036-22.989 23.017c-2.324 2.353-1.644 6.18-.737 7.54 1.36 2.041 2.636 4.195 3.855 6.292.766 1.304 1.332 4.762-2.154 6.151l-13.635 5.669c.879 1.247 1.729 2.495 2.58 3.77 1.758 2.721 3.685 3.656 7.059 2.296l28.261-11.707c3.487-1.36 2.919-4.819 2.154-6.151-1.219-2.069-2.495-4.223-3.855-6.264-.907-1.361-1.587-5.159.737-7.512l22.988-22.96c4.848-4.876 6.86-4.422 11.282 0l6.321 6.293c1.984 1.984 5.641.822 5.641-2.324l-.028-59.385c.113-4.366-3.288-7.767-7.653-7.682h-21.912c3.175.936 5.386 3.826 5.301 7.37z" fill="#9ad483"/><path d="m477.833 261.214-24.604 24.632c.992 1.219 1.247 3.175 1.247 6.122v8.929c0 2.806 3.401 4.564 5.641 2.324l41.981-42.008c3.146-3.005 3.146-7.824 0-10.829l-41.981-42.008c-2.239-2.239-5.641-.454-5.641 2.353v8.9c0 2.976-.255 4.904-1.247 6.151l24.604 24.604c3.147 3.006 3.147 7.825 0 10.83z" fill="#e85a68"/><path d="m366.774 333.893c-1.219 2.098-2.494 4.251-3.855 6.292-.907 1.389-1.587 5.188.765 7.54l22.96 23.045 15.193 15.25c7.54 7.54 8.051 8.39 8.051 19.247v21.118c.085 3.43-2.013 6.292-5.046 7.285h21.656c4.337.113 7.739-3.288 7.654-7.653l.028-59.385c0-3.175-3.657-4.337-5.669-2.352l-6.293 6.321c-4.421 4.422-6.434 4.847-11.31 0l-22.961-22.989c-2.353-2.324-1.672-6.123-.765-7.512 1.36-2.013 2.636-4.167 3.855-6.264.766-1.304 1.332-4.762-2.126-6.123l-28.289-11.735c-3.373-1.331-5.272-.425-7.059 2.296-.822 1.275-1.701 2.551-2.58 3.798l13.663 5.669c3.461 1.39 2.894 4.848 2.128 6.152z" fill="#9ad483"/><path d="m260.392 413.97v53.659c0 13.804-2.466 14.173-8.617 20.324l-7.426 7.427 6.718 6.718c3.004 3.146 7.823 3.146 10.828 0l42.009-41.98c2.239-2.24.482-5.641-2.353-5.641h-8.9c-6.265 0-7.994-1.134-7.994-7.994v-32.513c0-3.288 3.175-5.499 4.79-5.839 2.381-.453 4.819-1.077 7.143-1.701 1.474-.369 4.309-2.409 2.834-5.868l-11.706-28.261c-1.446-3.345-3.458-4.025-6.633-3.374-5.868 1.219-11.905 2.069-18.084 2.438.142.284.312.595.454.936l11.707 28.261c1.474 3.458-1.36 5.499-2.834 5.868-2.324.624-4.762 1.247-7.143 1.701-1.618.34-4.793 2.55-4.793 5.839z" fill="#e85a68"/><path d="m139.979 388.175-22.961 23.073c-4.875 4.876-4.421 6.888 0 11.339l6.293 6.321c1.587 1.587 1.191 4.223-.652 5.244l22.592.028c3.146 0 4.309-3.656 2.324-5.669l-6.292-6.293c-4.422-4.422-4.876-6.435 0-11.31l22.96-22.96c2.353-2.353 6.15-1.672 7.511-.765 2.041 1.36 4.195 2.636 6.293 3.855 1.304.766 4.762 1.332 6.123-2.126l11.707-28.289c1.36-3.374.425-5.272-2.296-7.059-6.774-4.422-13.294-9.581-19.247-15.534-5.981-5.98-11.111-12.501-15.562-19.275-1.786-2.722-3.685-3.657-7.058-2.296l-14.655 6.066c3.827 5.442 8.164 10.715 13.011 15.561 4.649 4.677 9.893 8.532 14.825 12.558 7.568 6.209-10.743 23.33-24.916 37.531z" fill="#9ad483"/><path d="m140.262 123.964-22.96-23.045c-4.875-4.904-4.421-6.916 0-11.367l6.293-6.321c1.587-1.587 1.162-4.223-.652-5.244h22.563c3.175 0 4.337 3.656 2.353 5.64l-6.292 6.293c-4.422 4.422-4.876 6.463 0 11.311l22.96 22.988c2.353 2.324 6.151 1.644 7.511.737 2.041-1.361 4.195-2.637 6.265-3.855 1.333-.765 4.762-1.332 6.151 2.154l11.707 28.261c1.361 3.373.425 5.301-2.296 7.058-6.775 4.45-13.294 9.581-19.275 15.562-5.953 5.953-11.111 12.472-15.533 19.247-1.786 2.721-3.685 3.657-7.058 2.296l-14.655-6.066c3.827-5.443 8.135-10.687 12.982-15.562 4.648-4.649 9.893-8.504 14.854-12.558 7.566-6.208-10.745-23.329-24.918-37.529z" fill="#9ad483"/><path d="m118.804 231.649c-1.644 7.937-2.607 16.214-2.607 24.633s.963 16.695 2.607 24.604c.68 3.203-.028 5.188-3.344 6.633l-10.97 4.535c.34 1.474.709 2.92 1.077 4.337.397 1.474 2.438 4.309 5.868 2.835l28.29-11.707c3.316-1.446 4.024-3.43 3.344-6.633-1.644-7.909-2.607-16.185-2.607-24.604s.964-16.696 2.607-24.633c.68-3.175-.028-5.159-3.344-6.604l-28.29-11.707c-3.43-1.502-5.471 1.361-5.868 2.835-.369 1.417-.737 2.863-1.077 4.337l10.97 4.535c3.316 1.445 4.024 3.429 3.344 6.604z" fill="#e85a68"/><path d="m303.223 255.998c0 36.311-27.042 66.301-62.105 70.893.425.624.68 1.361.652 2.211v9.723c.057 2.239 1.162 3.345 3.344 3.316h21.799c2.154.028 3.288-1.077 3.316-3.316v-9.723c-.057-2.069 1.531-3.543 3.26-4.082 7.398-2.268 12.161-3.94 18.964-7.852 1.672-.964 3.855-.794 5.187.567l6.86 6.888c1.587 1.417 3.147 1.36 4.706 0l15.42-15.42c1.219-1.361 1.19-2.948 0-4.706l-6.888-6.86c-1.219-1.191-1.758-3.317-.567-5.188 3.543-5.556 6.094-12.642 7.852-18.963.425-1.474 2.183-3.26 4.081-3.26h9.723c2.154-.057 3.288-1.162 3.316-3.316v-21.799c-.028-2.182-1.162-3.288-3.316-3.344h-9.723c-1.899.028-3.657-1.786-4.081-3.231-1.758-6.35-4.309-13.436-7.852-18.992-1.19-1.842-.652-3.968.567-5.159l6.888-6.888c1.19-1.757 1.219-3.345 0-4.705l-15.42-15.421c-1.559-1.36-3.118-1.389-4.706 0l-6.86 6.888c-1.332 1.361-3.515 1.559-5.187.596-6.803-3.912-11.565-5.584-18.964-7.88-1.729-.539-3.316-2.013-3.26-4.054v-9.722c-.028-2.268-1.162-3.345-3.316-3.345h-21.799c-2.182 0-3.288 1.077-3.344 3.345v9.722c.028.822-.227 1.587-.652 2.211 35.063 4.594 62.105 34.584 62.105 70.866z" fill="#365e7d"/></g><path d="m255.998 229.665c-7.257 0-13.861 2.948-18.623 7.71s-7.71 11.366-7.71 18.623c0 7.285 2.948 13.861 7.71 18.623 4.762 4.79 11.366 7.739 18.623 7.739 7.285 0 13.861-2.948 18.623-7.739 4.79-4.762 7.739-11.338 7.739-18.623 0-7.257-2.948-13.861-7.739-18.623-4.762-4.762-11.337-7.71-18.623-7.71zm36.17-132.857c.794.199 1.587.369 2.409.567 3.005.737 5.811 1.474 8.419 2.268 4.45 1.332 6.604 6.321 4.592 10.488l-15.306 36.906c-1.446 3.515-5.272 5.357-8.872 4.365-4.422-1.162-8.958-2.04-13.522-2.636-4.393-.539-9.042-.85-13.889-.85s-9.496.312-13.889.85c-4.592.596-9.128 1.503-13.607 2.665-3.685.963-7.427-1.021-8.816-4.479l-15.42-37.218c-1.559-3.827.255-8.192 4.082-9.751.227-.085.454-.17.708-.255 2.665-.822 5.556-1.587 8.645-2.353.851-.198 1.729-.396 2.608-.595v-29.905c0-1.19-.425-1.814-1.984-1.871h-7.426c-4.394 0-8.277-2.665-9.978-6.633-1.757-4.11-.822-8.646 2.381-11.82 14.06-14.059 28.09-28.176 42.207-42.207 3.203-3.118 7.2-4.451 11.112-4.337 3.827.142 7.568 1.701 10.318 4.309 14.144 13.974 28.176 28.176 42.235 42.235 3.089 3.062 3.798 7.597 2.268 11.565-1.616 4.139-5.386 6.888-9.865 6.888-2.778 0-5.527 0-8.305 0-.794 0-1.106.539-1.106 1.19v30.614zm-1.474 15.023c-2.239-.538-4.535-1.021-6.803-1.474-3.799-.369-6.747-3.572-6.747-7.455v-37.416c0-5.301 1.134-8.929 4.025-11.735 2.665-2.58 5.925-3.6 10.318-3.742-11.396-11.367-23.159-23.981-34.866-34.837-.397-.369-.539-.198-.85.085-11.508 11.764-23.13 23.102-34.781 34.753 4.394.113 7.54.907 10.29 3.458 2.976 2.807 4.054 6.406 4.054 12.018v37.389h-.028c0 3.542-2.523 6.689-6.123 7.341-2.665.51-5.273 1.049-7.823 1.672l9.751 23.584c3.005-.624 6.038-1.134 9.128-1.531 5.3-.68 10.573-1.02 15.76-1.02 5.188 0 10.46.34 15.76 1.02 3.09.397 6.151.907 9.127 1.531zm38.579 45.297c3.316 2.466 3.997 7.144 1.53 10.46-2.438 3.316-7.143 3.997-10.459 1.559-1.502-1.134-3.118-2.268-4.847-3.401-1.729-1.163-3.402-2.183-4.989-3.118-3.231-1.899-4.507-5.896-3.118-9.298l15.477-37.388c1.587-3.798 5.953-5.641 9.751-4.053.255.085.482.198.708.311 2.58 1.389 5.131 2.863 7.682 4.422.737.425 1.474.878 2.211 1.36l20.721-20.721c.907-.992.765-2.495-.17-3.345l-4.904-4.875c-3.118-3.146-3.883-7.852-2.126-11.849 1.701-3.883 5.443-6.576 9.78-6.576 19.814 0 39.967-.369 59.725.028 3.827.085 7.597 1.616 10.375 4.224 2.863 2.693 4.762 6.491 4.762 11.055-.255 19.785.028 39.77.028 59.583 0 3.146-1.219 5.754-3.118 7.625v.028c-.992 1.021-2.239 1.814-3.571 2.353s-2.721.794-4.054.794v-.028c-2.75 0-5.528-.992-7.682-3.146l-4.761-4.733c-1.389-1.502-2.835-.936-3.799 0l-20.352 20.352c.454.737.907 1.474 1.36 2.211 1.559 2.551 3.033 5.102 4.422 7.682 1.956 3.657.595 8.192-3.033 10.148-.341.198-.709.34-1.049.454l-37.105 15.392c-3.572 1.446-7.625-.028-9.411-3.345-1.955-3.345-4.167-6.661-6.491-9.751-2.438-3.316-1.757-8.022 1.559-10.459 3.316-2.466 8.021-1.786 10.46 1.53 1.417 1.899 2.693 3.742 3.912 5.556l.142.198 23.697-9.808c-1.275-2.098-2.608-4.139-3.94-6.066-2.381-2.948-2.211-7.285.539-10.035l26.248-26.22c3.969-3.997 7.285-5.811 11.339-5.669 3.77.142 6.547 1.814 9.751 4.847-.028-16.469-.255-32.371-.028-48.84.028-.454-.227-.992-.765-.992l-49.095-.028c3.033 3.231 4.621 6.236 4.677 9.95.057 4.025-1.73 7.398-5.471 11.14l-26.248 26.248-.028-.028c-2.495 2.495-6.491 2.948-9.496.879-1.956-1.332-4.139-2.749-6.577-4.224l-9.808 23.669.142.085c1.783 1.188 3.626 2.464 5.497 3.853zm85.491 60.433c.198.851.397 1.701.595 2.551h28.97c.737.028 2.692-.68 2.692-2.324v-7.087c0-4.479 2.75-8.249 6.86-9.864 3.997-1.531 8.504-.822 11.594 2.268 13.918 13.946 28.686 28.006 42.207 42.264 2.637 2.75 4.195 6.463 4.309 10.29.142 3.94-1.219 7.994-4.422 11.197l-42.122 42.122c-2.239 2.267-4.96 3.26-7.625 3.26-1.445 0-2.863-.312-4.195-.878-1.275-.539-2.438-1.332-3.401-2.296-1.956-1.956-3.203-4.649-3.203-7.682v-6.406c0-1.956-1.559-2.977-2.891-3.005h-28.771c-.198.851-.397 1.672-.595 2.523-.737 3.061-1.503 5.896-2.296 8.532-1.332 4.45-6.35 6.604-10.488 4.592l-36.991-15.335c-3.544-1.445-5.358-5.272-4.394-8.872 1.162-4.422 2.041-8.958 2.636-13.522.567-4.393.85-9.042.85-13.889s-.283-9.496-.85-13.889c-.596-4.592-1.474-9.128-2.636-13.607-.964-3.685.992-7.427 4.45-8.815l37.388-15.477c4.082-1.672 8.759.567 10.034 4.762.849 2.833 1.615 5.696 2.295 8.587zm-12.841 11.424c-.482-2.608-1.021-5.159-1.644-7.711l-23.754 9.836c.624 3.005 1.134 6.038 1.531 9.127.68 5.3 1.021 10.573 1.021 15.76s-.34 10.46-1.021 15.76c-.397 3.09-.907 6.151-1.531 9.127l23.754 9.837c.567-2.325 1.077-4.677 1.502-7.03.397-3.77 3.6-6.718 7.483-6.718h37.247c5.641 0 9.24 1.049 12.019 4.053 2.579 2.721 3.345 5.868 3.458 10.261l34.724-34.752c.283-.283.539-.454.142-.879l-34.865-34.865c-.142 4.422-1.162 7.653-3.742 10.318-2.778 2.891-6.435 4.025-11.735 4.025h-37.247v-.028c-3.543.002-6.69-2.521-7.342-6.121zm-47.252 100.599c-2.495 3.316-7.172 3.997-10.488 1.531-3.317-2.495-3.997-7.172-1.531-10.488 1.275-1.729 2.466-3.373 3.515-4.961 1.19-1.814 2.268-3.515 3.203-5.159 1.928-3.231 5.896-4.507 9.298-3.118l37.445 15.505c3.827 1.559 5.641 5.925 4.081 9.751-.113.255-.227.482-.34.708-1.786 3.345-3.713 6.605-5.754 9.808l20.607 20.607c1.106.85 2.438 1.247 3.544.227l5.017-4.988c3.118-3.118 7.824-3.884 11.82-2.126 1.276.539 2.466 1.36 3.458 2.381l.028-.028c1.871 1.899 3.118 4.507 3.118 7.426-.028 19.785.34 39.94-.028 59.725-.085 3.827-1.644 7.596-4.252 10.374-2.693 2.863-6.491 4.762-11.027 4.762-19.785-.255-39.769 0-59.583.029-4.535 0-8.391-2.608-10.035-6.718-1.587-3.968-.68-8.645 2.381-11.678v-.028l4.706-4.706c1.672-1.446.652-3.061.113-3.798l-20.664-20.664c-3.26 2.069-6.576 4.025-9.978 5.839-4.053 2.183-9.071.227-10.602-4.082l-15.335-37.048c-1.474-3.572.028-7.625 3.345-9.411 1.645-.964 3.203-1.956 4.706-2.948 1.531-.992 3.118-2.098 4.734-3.317 3.316-2.466 8.022-1.757 10.46 1.559 2.466 3.317 1.786 7.994-1.531 10.46-1.701 1.247-3.515 2.495-5.442 3.798h-.028l9.808 23.697c2.126-1.304 4.167-2.636 6.151-3.997 2.948-2.381 7.285-2.211 10.006.539l26.475 26.447c3.968 3.997 5.783 7.313 5.641 11.367-.113 3.77-1.814 6.548-4.847 9.723 16.214 0 32.542-.113 48.727-.028.935.028 1.134-.17 1.134-1.077v-48.755c-3.203 3.005-6.236 4.592-9.949 4.649-4.025.085-7.398-1.701-11.14-5.442l-26.447-26.475h.028c-2.523-2.495-2.977-6.52-.879-9.524 1.417-2.069 2.835-4.223 4.195-6.463l-23.697-9.836-.198.283c-1.362 2.04-2.666 3.939-3.969 5.668zm-62.503 85.605v29.31c.057.992.964 2.608 2.466 2.523h6.945c4.479 0 8.249 2.749 9.865 6.86 1.531 3.996.822 8.503-2.268 11.593-13.946 13.917-28.006 28.686-42.264 42.207-2.722 2.636-6.463 4.195-10.29 4.309-3.94.142-7.965-1.219-11.169-4.422l-42.15-42.093c-3.203-3.203-4.139-7.71-2.381-11.849 1.701-3.968 5.641-6.604 9.978-6.604h6.944c1.418.057 2.551-1.162 2.466-2.381v-29.395c-.879-.199-1.757-.425-2.608-.624-3.089-.737-5.981-1.531-8.645-2.325-4.479-1.332-6.633-6.349-4.592-10.488l15.249-36.821c1.446-3.543 5.301-5.357 8.901-4.393 4.422 1.162 8.929 2.04 13.493 2.636 4.393.567 9.042.85 13.889.85 4.876 0 9.496-.283 13.889-.85 4.621-.596 9.156-1.474 13.606-2.636 3.685-.964 7.455.992 8.816 4.45l15.448 37.303c1.587 3.827-.255 8.192-4.054 9.751-3.399 1.388-7.878 2.267-11.534 3.089zm-8.844-13.436c2.466-.482 4.932-.992 7.37-1.559l-9.808-23.668c-2.977.624-6.009 1.134-9.099 1.531-5.329.68-10.573 1.02-15.789 1.02-5.187 0-10.46-.34-15.76-1.02-3.089-.397-6.123-.907-9.128-1.531l-9.751 23.612c2.381.567 4.791 1.077 7.228 1.531 3.798.397 6.747 3.6 6.747 7.455v37.389c0 5.641-1.077 9.24-4.054 12.019-2.75 2.579-5.896 3.345-10.29 3.458l34.752 34.724c.454.454.539.454.992 0l34.752-34.724c-4.394-.142-7.653-1.162-10.318-3.742-2.891-2.777-4.025-6.434-4.025-11.735v-37.417h.028c.002-3.544 2.525-6.691 6.153-7.343zm-100.373-46.714c-3.316-2.466-3.997-7.143-1.559-10.46 2.466-3.316 7.143-4.025 10.46-1.559 1.644 1.219 3.203 2.325 4.733 3.317 1.559 1.02 3.203 2.041 4.904 3.033 3.26 1.928 4.536 5.896 3.146 9.298l-15.448 37.274c-1.559 3.827-5.924 5.641-9.751 4.082-.255-.113-.481-.227-.709-.34-2.58-1.389-5.131-2.863-7.653-4.394-.737-.454-1.446-.907-2.183-1.36l-21.627 21.627c-.312.255-.624 1.587.057 2.154l5.527 5.556c3.061 3.033 3.997 7.738 2.381 11.706-1.644 4.139-5.5 6.718-10.006 6.718-19.899-.028-39.826.085-59.725-.028-4.479-.028-8.249-1.928-10.914-4.762-2.607-2.778-4.138-6.548-4.224-10.403-.113-19.87-.028-39.798-.028-59.697 0-4.337 2.75-8.106 6.577-9.779 4.025-1.786 8.73-.992 11.849 2.126l5.584 5.583c.51.454 1.701.397 2.268-.113l21.515-21.542c-.482-.737-.936-1.446-1.36-2.155-1.559-2.55-3.005-5.102-4.394-7.653-2.183-4.054-.227-9.071 4.082-10.602l36.878-15.278c3.572-1.474 7.626.028 9.411 3.345.936 1.559 1.984 3.203 3.118 4.96 1.049 1.587 2.239 3.232 3.515 4.961 2.494 3.316 1.814 8.022-1.502 10.488s-8.021 1.786-10.488-1.531c-1.474-1.956-2.863-3.94-4.195-5.981l-23.499 9.723c1.332 2.154 2.58 4.139 3.77 5.896 2.494 2.948 2.353 7.37-.425 10.148l-26.674 26.674c-3.742 3.742-7.115 5.499-11.112 5.442-3.742-.057-6.746-1.644-9.977-4.649 0 16.242-.454 32.938.028 49.095 0 .709.85.737 1.304.737 16.129-.17 32.399.029 48.528.029-3.033-3.175-4.706-5.982-4.847-9.723-.114-4.082 1.672-7.37 5.669-11.366l26.646-26.645v.028c2.522-2.522 6.519-2.948 9.552-.878 2.069 1.445 4.224 2.835 6.463 4.224l9.779-23.556h-.028c-1.929-1.275-3.744-2.523-5.416-3.77zm-85.435-60.604c-.199-.822-.397-1.645-.567-2.466h-29.564c-1.559.085-2.324 1.304-2.381 2.353v7.059c0 4.393-2.665 8.277-6.633 9.978-4.11 1.757-8.646.822-11.82-2.381-14.06-14.06-28.176-28.091-42.207-42.207-3.118-3.203-4.451-7.2-4.337-11.112.142-3.827 1.701-7.54 4.309-10.29 13.974-14.173 28.176-28.204 42.235-42.264 2.069-2.069 4.79-3.061 7.455-3.061 1.36 0 2.778.284 4.11.794 1.417.539 2.721 1.36 3.798 2.466 1.871 1.871 3.09 4.366 3.09 7.398v7.172c-.057 1.162 1.02 2.211 2.182 2.239h29.735c.198-.822.368-1.672.595-2.494.737-3.062 1.502-5.896 2.268-8.533 1.19-3.968 5.357-6.236 9.326-5.045.396.113.793.283 1.162.454l36.764 15.222c3.515 1.445 5.357 5.3 4.366 8.872-1.163 4.451-2.041 8.958-2.637 13.521-.538 4.393-.85 9.042-.85 13.889 0 4.875.312 9.496.85 13.889.596 4.621 1.502 9.156 2.665 13.606.963 3.685-1.02 7.455-4.479 8.815l-37.133 15.392c-4.082 1.672-8.759-.567-10.006-4.762-.85-2.835-1.615-5.669-2.296-8.504zm12.87-11.31c.482 2.523.992 5.018 1.587 7.511l23.499-9.75c-.624-2.977-1.134-6.009-1.531-9.099-.68-5.329-1.02-10.573-1.02-15.789 0-5.188.34-10.46 1.02-15.76.397-3.09.907-6.123 1.531-9.127l-23.499-9.723c-.539 2.296-1.049 4.648-1.502 7.001-.368 3.798-3.571 6.747-7.455 6.747h-37.53c-5.301 0-8.929-1.134-11.735-4.025-2.58-2.665-3.6-5.896-3.742-10.318-11.367 11.395-23.98 23.159-34.837 34.865-.425.454-.113.652.198.964 11.65 11.424 23.103 23.13 34.639 34.667.113-4.394.907-7.54 3.458-10.261 2.807-3.004 6.407-4.053 12.019-4.053h37.558c3.543-.001 6.69 2.522 7.342 6.15zm47.139-100.911c2.466-3.289 7.143-3.969 10.46-1.474 3.288 2.466 3.968 7.143 1.502 10.46-1.162 1.531-2.353 3.203-3.571 5.045-1.219 1.842-2.325 3.571-3.288 5.244-1.899 3.26-5.896 4.536-9.27 3.146h-.028l-37.218-15.42c-3.798-1.587-5.641-5.953-4.054-9.751.085-.255.199-.481.312-.708 1.389-2.58 2.863-5.159 4.422-7.71.453-.737.907-1.474 1.389-2.211l-21.118-21.089c-.737-.709-2.268-.567-2.863.085l-5.159 5.158c-3.061 3.061-7.739 3.997-11.735 2.381-1.304-.51-2.551-1.304-3.6-2.353-1.871-1.871-3.09-4.478-3.09-7.653 0-19.899-.113-39.826 0-59.725.057-4.479 1.927-8.248 4.762-10.912 2.806-2.608 6.548-4.139 10.403-4.224 19.87-.142 39.826-.028 59.724-.028 4.309 0 8.051 2.693 9.751 6.576 1.786 4.025.992 8.73-2.126 11.848l-5.046 5.046c-.68.623-.907 2.211-.057 3.146l20.948 20.947c.708-.453 1.417-.907 2.126-1.332 2.523-1.531 5.074-3.005 7.625-4.394 3.629-1.956 8.192-.596 10.148 3.061.17.34.34.681.454 1.049l15.307 36.906c1.446 3.572-.028 7.626-3.345 9.411-1.616.964-3.147 1.927-4.649 2.891-1.418.936-2.948 2.013-4.648 3.26-3.345 2.438-8.022 1.73-10.46-1.616-2.438-3.316-1.729-8.022 1.616-10.46 1.559-1.134 3.288-2.353 5.244-3.628l-9.751-23.527c-2.069 1.248-4.054 2.523-5.953 3.827-2.948 2.381-7.285 2.211-10.006-.539l-26.475-26.447c-3.742-3.741-5.5-7.115-5.443-11.111.057-3.742 1.645-6.747 4.649-9.978-16.242 0-33.193-.454-49.35.028-.51 0-.454.369-.482.708.199 16.441-.028 32.655-.028 49.124 3.203-3.033 5.98-4.706 9.723-4.847 4.082-.113 7.37 1.672 11.367 5.669l26.447 26.446v.029c2.495 2.494 2.948 6.491.85 9.524-1.445 2.097-2.863 4.28-4.252 6.547l23.499 9.723.255-.396c1.219-1.84 2.579-3.74 4.082-5.752zm69.249 44.56c7.483-7.483 17.801-12.104 29.225-12.104s21.77 4.621 29.253 12.104 12.104 17.801 12.104 29.225c0 11.423-4.62 21.77-12.104 29.253-7.483 7.483-17.829 12.104-29.253 12.104-11.423 0-21.741-4.621-29.225-12.104-7.483-7.483-12.104-17.83-12.104-29.253 0-11.424 4.62-21.742 12.104-29.225zm-61.341 10.573c1.956-1.956 4.478-2.977 7.596-3.033h.142v-.028h7.228c.822-2.664 1.758-5.471 2.892-8.306 1.106-2.778 2.381-5.555 3.827-8.106-1.672-1.701-5.103-4.677-6.236-6.605-1.247-1.984-1.871-4.054-1.899-6.236 0-2.721.907-5.131 2.778-7.228.113-.113.198-.227.312-.312v-.028l15.392-15.392c1.984-1.984 4.876-3.203 7.654-3.203 2.664-.028 5.131.936 7.342 2.92.113.113.227.198.312.311l.029-.028 5.102 5.103c2.834-1.531 5.442-2.749 8.135-3.827 2.608-1.049 5.244-1.928 8.249-2.892 0-2.438-.255-6.094.057-8.39.255-2.721 1.247-4.96 3.033-6.718 2.013-2.013 4.592-3.005 7.738-2.977v-.028h21.799c2.862 0 5.668.964 7.738 3.005 1.956 1.984 3.005 4.535 3.061 7.71v.114h.028v7.284c3.005.964 5.613 1.843 8.249 2.892 2.693 1.077 5.301 2.296 8.107 3.827l5.13-5.103c1.984-1.984 4.875-3.231 7.682-3.203 2.665 0 5.046.964 7.229 2.835.113.142.255.255.369.368h.028l15.42 15.392c1.984 1.984 3.089 4.762 3.061 7.569 0 2.324-.737 4.535-2.154 6.661-.283.397-.595.766-.907 1.105l-5.074 5.074c1.446 2.551 2.721 5.329 3.855 8.106 1.105 2.835 2.069 5.641 2.863 8.306h7.257c2.834 0 5.726 1.021 7.766 3.062 1.956 1.956 2.948 4.479 3.033 7.625v.142h.028v21.799c0 2.834-1.049 5.725-3.062 7.766-1.955 1.956-4.506 2.948-7.596 3.033h-.17v.028h-7.257c-.794 2.665-1.758 5.442-2.863 8.277-1.134 2.806-2.409 5.555-3.855 8.135l5.074 5.074c1.842 1.842 3.061 5.187 3.061 7.767.028 2.693-.907 5.103-2.778 7.228-.085.085-.198.198-.311.312h.028l-15.42 15.42c-1.956 1.956-4.848 3.175-7.626 3.203-2.693 0-5.13-.964-7.37-2.948-.113-.085-.198-.198-.311-.283v.028l-5.13-5.131c-2.806 1.559-5.414 2.75-8.107 3.827-2.636 1.049-5.244 1.956-8.249 2.892v7.313c0 2.863-1.049 5.754-3.09 7.795-2.041 2.013-4.62 3.005-7.738 3.005v.028h-21.799c-2.891 0-5.669-.964-7.738-3.033-1.984-1.956-3.005-4.535-3.061-7.682v-.113h-.028v-7.313c-3.005-.935-5.641-1.843-8.249-2.892-2.693-1.077-5.301-2.268-8.135-3.827l-5.102 5.131c-1.984 1.984-4.876 3.203-7.682 3.203-2.665-.028-5.074-.992-7.229-2.863-.142-.113-.283-.227-.397-.368l-.028.028-15.392-15.42c-1.984-1.984-3.089-4.762-3.089-7.54.028-2.353.765-4.564 2.183-6.661.255-.397.567-.794.907-1.105l5.046-5.074c-1.446-2.58-2.721-5.329-3.827-8.135-1.134-2.835-2.069-5.613-2.892-8.277h-7.228c-2.863 0-5.697-1.049-7.738-3.062-1.984-1.984-3.005-4.535-3.062-7.624v-.142h-.028v-21.799c-.002-2.864 1.046-5.727 3.087-7.768zm17.461 11.933h-5.556v13.465h5.556v.028c2.721-.028 5.188 1.021 7.087 2.551 2.013 1.587 3.571 3.939 4.195 6.15.851 3.005 1.843 6.151 3.005 9.043 1.134 2.835 2.438 5.585 3.94 7.937 1.559 2.438 2.069 5.045 1.786 7.511-.284 2.58-1.502 5.131-3.345 6.974l-3.94 3.94 9.524 9.524 3.912-3.939h.028c1.899-1.928 4.337-3.033 6.889-3.317 2.466-.255 5.073.227 7.284 1.531 3.146 1.786 5.754 3.062 8.334 4.082 2.664 1.077 5.442 1.984 8.816 3.033 2.409.624 4.847 2.239 6.406 4.195 1.616 2.041 2.466 4.535 2.466 7.115v5.556h13.465v-5.556c-.028-2.778.936-5.188 2.466-7.115 1.588-1.984 3.799-3.402 6.038-4.082h.028c3.515-1.105 6.378-2.041 9.127-3.146 2.608-1.021 5.188-2.296 8.334-4.082 2.239-1.304 4.819-1.786 7.285-1.531 2.608.312 5.074 1.474 6.917 3.317l3.94 3.939 9.524-9.524-3.94-3.94v-.028c-1.786-1.758-3.062-4.252-3.374-6.945-.255-2.466.227-5.073 1.786-7.511 1.502-2.352 2.834-5.102 3.968-7.937 1.134-2.891 2.154-6.038 3.005-9.043.595-2.211 2.154-4.563 4.166-6.15 1.984-1.587 4.564-2.58 7.086-2.58h5.556v-13.465h-5.556v-.028c-2.721 0-5.188-1.049-7.086-2.551-2.012-1.616-3.571-3.968-4.166-6.15-.851-3.033-1.871-6.151-3.005-9.043-1.134-2.863-2.466-5.584-3.968-7.937-1.559-2.438-2.041-5.074-1.786-7.511.312-2.58 1.531-5.159 3.374-7.002l3.94-3.912-9.524-9.524-3.94 3.939-.028-.028c-1.871 1.928-4.337 3.033-6.888 3.317-2.466.283-5.045-.227-7.285-1.502-3.147-1.814-5.726-3.062-8.334-4.11-2.665-1.077-5.442-1.984-8.788-3.033-.113-.028-.255-.057-.368-.085-2.239-.708-4.45-2.126-6.038-4.11-1.644-2.041-2.466-4.507-2.466-7.115v-5.556h-13.466v5.556h-.028c.028 2.806-.907 5.188-2.438 7.115-1.587 1.984-3.827 3.402-6.066 4.11v-.028l-.028.028c-3.515 1.077-6.378 2.013-9.127 3.118-2.58 1.049-5.188 2.296-8.334 4.11-2.211 1.275-4.818 1.786-7.284 1.502-2.58-.284-5.074-1.446-6.917-3.289l-3.912-3.939-9.524 9.524 3.94 3.912-.028.028c1.814 1.786 3.061 4.28 3.374 6.974.283 2.438-.227 5.073-1.786 7.511-1.502 2.353-2.806 5.074-3.94 7.937-1.162 2.891-2.154 6.009-3.005 9.043-.624 2.183-2.182 4.535-4.195 6.15-1.957 1.559-4.536 2.579-7.088 2.579z"/></g></svg>