<svg id="Capa_1" enable-background="new 0 0 512 512" height="512" viewBox="0 0 512 512" width="512" xmlns="http://www.w3.org/2000/svg"><g><g><g><path d="m39.373 291.136v187.512c.652 5.811 5.273 10.432 11.084 11.083h92.638c5.839-.651 10.46-5.272 11.083-11.083v-187.512z" fill="#6aa2e6"/><path d="m357.822 291.136v187.512c.651 5.811 5.271 10.432 11.083 11.083h92.666c5.811-.651 10.432-5.272 11.083-11.083v-187.512z" fill="#6aa2e6"/><path d="m198.597 291.136v187.512c.652 5.811 5.273 10.432 11.084 11.083h92.665c5.812-.651 10.433-5.272 11.085-11.083v-187.512z" fill="#c0a1d9"/><path d="m300.674 120.83h-89.349c-24.521 0-44.59 20.069-44.59 44.589v97.71c0 17.604 14.258 31.891 31.861 31.891h114.834c17.575 0 31.861-14.286 31.861-31.891v-97.71c.001-24.52-20.096-44.589-44.617-44.589z" fill="#ebd2ff"/><path d="m300.674 120.83h-24.264c24.52 0 44.618 20.069 44.618 44.589v97.71c0 17.604-14.287 31.891-31.89 31.891h24.293c17.575 0 31.861-14.286 31.861-31.891v-97.71c0-24.52-20.097-44.589-44.618-44.589z" fill="#d7bef0"/><path d="m258.693 141.466 20.07 70.583c.68 3.261-.113 5.84-2.24 7.823l-17.037 15.478c-2.324 1.699-4.705 1.729-7.086 0l-17.037-15.478c-2.268-2.353-3.033-4.96-2.211-7.823l20.042-70.583c.34-1.219 1.445-2.098 2.75-2.098 1.331 0 2.437.879 2.749 2.098z" fill="#ff6978"/><path d="m141.451 120.83h-89.35c-24.52 0-44.589 20.069-44.589 44.589v97.71c0 17.604 14.259 31.891 31.862 31.891h114.805c17.604 0 31.862-14.286 31.862-31.891v-97.71c-.001-24.52-20.07-44.589-44.59-44.589z" fill="#a5cdff"/><path d="m459.899 120.83h-89.321c-24.548 0-44.618 20.069-44.618 44.589v97.71c0 17.604 14.258 31.891 31.862 31.891h114.833c17.575 0 31.861-14.286 31.861-31.891v-97.71c.001-24.52-20.069-44.589-44.617-44.589z" fill="#a5cdff"/><path d="m459.899 120.83h-24.266c24.521 0 44.618 20.069 44.618 44.589v97.71c0 17.604-14.286 31.891-31.862 31.891h24.266c17.574 0 31.861-14.286 31.861-31.891v-97.71c.001-24.52-20.069-44.589-44.617-44.589z" fill="#8abfff"/><path d="m99.469 141.466 20.069 70.583c.68 3.261-.142 5.84-2.239 7.823l-17.036 15.478c-2.325 1.699-4.706 1.729-7.086 0l-17.037-15.478c-2.296-2.353-3.033-4.96-2.239-7.823l20.07-70.583c.34-1.219 1.446-2.098 2.75-2.098 1.302 0 2.408.879 2.748 2.098z" fill="#ff6978"/><path d="m417.917 141.466 20.07 70.583c.68 3.261-.114 5.84-2.24 7.823l-17.037 15.478c-2.324 1.699-4.677 1.729-7.086 0l-17.036-15.478c-2.268-2.353-3.033-4.96-2.211-7.823l20.041-70.582c.34-1.22 1.446-2.099 2.75-2.099 1.331 0 2.437.879 2.749 2.098z" fill="#ff6978"/><g fill="#ffcbbe"><path d="m298.237 91.265c0 23.271-19.021 42.293-42.293 42.293-23.245 0-42.293-19.021-42.293-42.293v-45.298c0-13.038 10.658-23.669 23.669-23.669h37.249c13.012 0 23.67 10.631 23.67 23.669z"/><path d="m457.461 91.265c0 23.271-19.021 42.293-42.294 42.293-23.244 0-42.293-19.021-42.293-42.293v-45.298c0-13.038 10.659-23.669 23.669-23.669h37.248c13.011 0 23.67 10.631 23.67 23.669z"/><path d="m139.013 91.265c0 23.271-19.021 42.293-42.293 42.293-23.245 0-42.294-19.021-42.294-42.293 0-15.108 0-30.189 0-45.299 0-13.011 10.659-23.669 23.67-23.669h54.624c4.337 0 6.293 2.494 6.293 6.293z"/></g><path d="m372.874 45.967v27.809l28.914-14.173c3.912-1.929 7.682-2.099 11.65-.767l44.022 14.938v-27.807c0-13.038-10.659-23.669-23.67-23.669h-37.248c-13.009 0-23.668 10.63-23.668 23.669z" fill="#477b9e"/><path d="m213.65 45.967v16.471c11.934 4.422 21.883.68 27.61-2.552 4.451-2.552 5.188-3.033 9.609.821 20.296 17.773 47.368 7.908 47.368 7.908v-22.648c0-13.038-10.658-23.669-23.671-23.669h-37.248c-13.01 0-23.668 10.63-23.668 23.669z" fill="#c68b87"/><path d="m54.425 45.967v13.636h84.587v-31.012c0-3.799-1.956-6.293-6.293-6.293h-54.624c-13.011 0-23.67 10.658-23.67 23.669z" fill="#ffe5a0"/><path d="m102.757 120.83c-4.961 5.045-11.169 8.872-18.114 10.97 3.827 1.135 7.881 1.759 12.076 1.759 11.792 0 22.507-4.876 30.189-12.729 7.484-7.653 12.104-18.085 12.104-29.564v-31.664h-24.152v31.663c.001 11.48-4.619 21.912-12.103 29.565z" fill="#f7beaf"/><path d="m114.861 28.591v31.012h24.152v-31.012c0-3.799-1.956-6.293-6.293-6.293h-24.152c4.337 0 6.293 2.494 6.293 6.293z" fill="#f2ce7e"/><path d="m261.98 120.83c-4.961 5.045-11.168 8.872-18.112 10.97 3.827 1.135 7.88 1.759 12.076 1.759 11.792 0 22.507-4.876 30.189-12.729 7.483-7.653 12.104-18.085 12.104-29.564v-22.65s-10.942 3.997-24.151 2.325v20.324c-.001 11.48-4.622 21.912-12.106 29.565z" fill="#f7beaf"/><path d="m274.085 45.967v24.973c13.21 1.672 24.151-2.325 24.151-2.325v-22.648c0-13.038-10.658-23.669-23.67-23.669h-24.151c13.012 0 23.67 10.63 23.67 23.669z" fill="#bd7d79"/><path d="m421.206 120.83c-4.961 5.045-11.169 8.872-18.114 10.97 3.827 1.135 7.88 1.759 12.076 1.759 11.793 0 22.507-4.876 30.189-12.729 7.482-7.653 12.104-18.085 12.104-29.564v-17.49l-24.152-8.191v25.683c.001 11.477-4.621 21.909-12.103 29.562z" fill="#f7beaf"/><path d="m433.31 45.967v19.616l24.152 8.191v-27.807c0-13.038-10.659-23.669-23.67-23.669h-24.152c13.011 0 23.67 10.63 23.67 23.669z" fill="#365e7d"/><path d="m448.503 294.99v187.513c-.311 2.777-1.53 5.301-3.345 7.228h16.413c5.811-.651 10.432-5.272 11.083-11.083v-183.629c-8.05-.029-16.1-.029-24.151-.029z" fill="#5a94db"/><path d="m130.027 294.99v187.513c-.312 2.777-1.503 5.301-3.345 7.228h16.441c5.811-.651 10.432-5.272 11.055-11.083v-183.629c-8.05-.029-16.101-.029-24.151-.029z" fill="#5a94db"/><path d="m289.251 294.99v187.513c-.284 2.777-1.503 5.301-3.315 7.228h16.411c5.812-.651 10.433-5.272 11.085-11.083v-183.629c-8.052-.029-16.102-.029-24.181-.029z" fill="#b592d1"/><path d="m141.451 120.83h-24.265c24.52 0 44.589 20.069 44.589 44.589v97.71c0 17.604-14.258 31.891-31.861 31.891h24.265c17.604 0 31.862-14.286 31.862-31.891v-97.71c-.001-24.52-20.07-44.589-44.59-44.589z" fill="#8abfff"/></g></g><g><path d="m496.72 128.63c-9.859-9.87-22.979-15.31-36.93-15.31 3.32-6.66 5.19-14.15 5.19-22.05v-45.3c0-8.59-3.521-16.39-9.16-22.03-5.641-5.64-13.44-9.15-22.03-9.15h-37.24c-8.56 0-16.359 3.51-22 9.15-5.64 5.64-9.16 13.44-9.16 22.03v45.29c0 7.91 1.87 15.4 5.16 22.06-13.41 0-25.68 5.13-34.95 13.55-3.659-3.35-7.819-6.15-12.33-8.34-7.109-3.45-14.8-5.21-22.71-5.21 3.32-6.66 5.19-14.15 5.19-22.06v-45.29c0-8.59-3.51-16.39-9.16-22.03-5.64-5.64-13.43-9.15-22.02-9.15h-37.25c-8.56 0-16.36 3.51-22 9.15-5.67 5.64-9.15 13.44-9.15 22.03v45.3c0 7.91 1.84 15.39 5.16 22.06-8.05 0-15.74 1.87-22.6 5.21-4.5 2.18-8.64 4.99-12.33 8.33-9.66-8.78-22.02-13.54-35.06-13.54 3.31-6.67 5.13-14.15 5.13-22.06v-62.67c0-7.71-6.75-13.75-13.75-13.81h-54.63c-8.56 0-16.36 3.51-22 9.15s-9.15 13.44-9.15 22.03v45.29c0 7.91 1.85 15.4 5.16 22.06-14.34 0-27.35 5.87-36.79 15.3-9.44 9.45-15.31 22.46-15.31 36.8v97.71c0 10.88 4.42 20.72 11.54 27.83 5.44 5.45 12.47 9.3 20.32 10.83v68.06c0 4.141 3.37 7.49 7.51 7.49s7.49-3.35 7.49-7.49v-67.35h99.83v175.72c-.39 2.021-1.98 3.63-4.02 4h-38.38v-153.3c0-4.14-3.37-7.51-7.51-7.51s-7.49 3.37-7.49 7.51v153.3h-38.41c-2.01-.37-3.63-1.989-4.02-4v-74.41c0-4.14-3.35-7.479-7.49-7.479s-7.51 3.34-7.51 7.479v74.841c0 9.239 9.53 18.56 18.6 18.56h92.64c9.24 0 18.59-9.46 18.59-18.56v-176.861c5.39-1.05 10.38-3.17 14.72-6.15 2.32 1.591 4.79 2.92 7.4 3.971 2.35.96 4.76 1.67 7.28 2.18v68.06c0 4.141 3.37 7.49 7.51 7.49s7.49-3.35 7.49-7.49v-67.351h99.83v175.72c-.2 1.021-.68 1.9-1.39 2.61-.7.71-1.61 1.189-2.63 1.39h-38.38v-153.3c0-4.14-3.38-7.51-7.52-7.51-4.13 0-7.48 3.37-7.48 7.51v153.3h-38.41c-1.02-.2-1.93-.68-2.63-1.39-.69-.71-1.2-1.59-1.39-2.61v-74.41c0-4.13-3.35-7.479-7.49-7.479s-7.51 3.34-7.51 7.479v74.841c0 4.449 2.75 9.689 5.84 12.779 3.12 3.12 8.28 5.78 12.76 5.78h92.66c4.42 0 9.67-2.72 12.73-5.78 3.14-3.12 5.84-8.3 5.84-12.779v-176.861c2.521-.51 4.96-1.22 7.28-2.18 2.609-1.051 5.1-2.38 7.399-3.971 4.37 2.98 9.36 5.101 14.71 6.15v68.06c0 4.141 3.381 7.49 7.521 7.49 4.13 0 7.51-3.35 7.51-7.49v-67.349h99.811v175.72c-.2 1.021-.681 1.9-1.36 2.61-.71.71-1.65 1.189-2.67 1.39h-38.38v-153.3c0-4.14-3.37-7.51-7.51-7.51-4.141 0-7.48 3.37-7.48 7.51v153.3h-38.42c-2.01-.37-3.62-1.979-3.99-4v-74.41c0-4.13-3.38-7.479-7.51-7.479-4.14 0-7.521 3.34-7.521 7.479v74.841c0 4.449 2.75 9.689 5.841 12.779 3.119 3.12 8.279 5.79 12.76 5.79h92.67c4.42 0 9.66-2.72 12.75-5.79 3.12-3.109 5.81-8.3 5.81-12.779v-176.861c7.88-1.53 14.91-5.38 20.36-10.82 7.11-7.12 11.5-16.95 11.5-27.84v-97.71c-.001-14.34-5.841-27.35-15.281-36.79zm-434.79-82.66c0-4.45 1.81-8.48 4.76-11.43 2.92-2.92 6.97-4.76 11.4-4.76h53.44v22.34h-69.59v-2.99h-.01zm10.21 69.87c-6.29-6.32-10.2-14.99-10.2-24.58v-24.15h69.59v24.15c0 9.27-3.71 18.03-10.23 24.58-6.33 6.29-15.03 10.23-24.58 10.23s-18.26-3.91-24.58-10.23zm39.94 97.34c.37 1.31.4.97-.51 1.76l-14.85 13.49-15.05-13.66c-.77-.68-.63-.45-.4-1.25l15.45-54.34zm66.48 49.95c0 6.75-2.73 12.84-7.15 17.23-2.69 2.699-6.01 4.77-9.72 5.96v-114.41c0-4.17-3.34-7.51-7.51-7.51-4.14 0-7.49 3.34-7.49 7.51v115.6h-99.83v-115.6c0-4.17-3.35-7.51-7.49-7.51s-7.51 3.34-7.51 7.51v114.41c-3.71-1.19-7.03-3.261-9.72-5.96-4.42-4.391-7.14-10.48-7.14-17.23v-97.71c0-10.18 4.19-19.47 10.91-26.19s16.01-10.92 26.19-10.92h11.42c6.44 5.76 14.35 9.9 23.08 11.71l-19.9 70.02c-.8 2.78-.8 5.5-.03 8.16.65 2.35 1.93 4.54 3.8 6.55.2.23.4.45.62.65l16.9 15.34c2.18 2.09 5.75 3.37 8.76 3.37 2.92-.03 6.37-1.25 8.56-3.23l17.03-15.48c4.14-3.83 5.93-9.89 4.4-15.36l-19.9-70.02c8.73-1.81 16.64-5.95 23.07-11.71h11.54c10.2 0 19.47 4.2 26.19 10.92 6.75 6.71 10.92 16.01 10.92 26.19zm42.6-217.16c0-4.45 1.82-8.48 4.76-11.43 2.92-2.92 6.98-4.76 11.4-4.76h37.25c4.449 0 8.47 1.84 11.42 4.76 2.92 2.95 4.729 6.98 4.729 11.43v16.92c-7.68 1.56-22.84 2.81-34.92-7.8-8.36-7.34-9.83-6.49-18.05-1.81-2.9 1.64-5.9 2.81-9.19 3.37-2.27.37-4.73.46-7.4.06v-10.74zm0 25.79c3.52.34 6.8.17 9.87-.34 5.72-.96 10.46-3.06 13.91-5.04.46-.26.57-.43 1-.03 15.3 13.38 33.7 13.38 44.78 11.68v13.23c0 9.39-3.739 17.92-9.83 24.18-6.97 6.81-15.05 10.63-24.95 10.63-9.89 0-17.94-3.82-24.94-10.63-6.1-6.26-9.84-14.79-9.84-24.18zm50.09 141.28c.43 1.48.48 1.05-.54 1.99l-14.77 13.4-14.74-13.38c-1.16-1.05-.96-.62-.56-2.01l15.3-53.86zm53.61 71.63c-3.551 1.87-7.431 2.84-11.431 2.84h-114.829c-4.03 0-7.91-.97-11.45-2.84 4.05-6.18 6.4-13.57 6.4-21.54v-97.71c0-9.87-2.78-19.13-7.59-27.02 2.75-2.57 5.86-4.76 9.29-6.4 4.85-2.35 10.32-3.69 16.08-3.69h11.42c6.43 5.76 14.34 9.9 23.08 11.71l-19.91 70.02c-.76 2.78-.79 5.5-.02 8.16.74 2.55 2.43 5.39 4.45 7.2l16.86 15.34c2.19 2.09 5.76 3.37 8.76 3.37 2.919-.03 6.379-1.25 8.56-3.23l17.04-15.48c2.04-1.87 3.51-4.19 4.31-6.86.76-2.61.82-5.87.08-8.5l-19.9-70.02c8.73-1.81 16.671-5.95 23.08-11.71h11.54c5.78 0 11.25 1.34 16.101 3.69 3.399 1.64 6.52 3.83 9.27 6.4-4.819 7.89-7.6 17.16-7.6 27.02v97.71c-.001 7.969 2.349 15.36 6.409 21.54zm55.53-238.7c0-4.45 1.811-8.48 4.761-11.43 2.92-2.92 6.97-4.76 11.39-4.76h37.25c4.45 0 8.479 1.84 11.42 4.76 2.92 2.95 4.771 6.98 4.771 11.43v17.34l-34.16-11.56c-2.86-.96-5.75-1.39-8.65-1.22-2.92.17-5.78.96-8.64 2.35l-18.141 8.9v-15.81zm-.01 32.43 24.7-12.08c2.04-.99 3.82-1.11 5.95-.37l38.95 13.18v12.13c0 9.59-3.94 18.26-10.24 24.58-6.32 6.32-14.99 10.23-24.57 10.23-9.56 0-18.26-3.91-24.55-10.23-6.32-6.32-10.24-14.99-10.24-24.58zm49.7 133.2c.91 3.26 1.25 2.18-.94 4.16l-13.97 12.67-13.18-11.99c-2.92-2.63-2.7-1.36-1.73-4.79l14.91-52.47zm66.92 51.53c0 6.75-2.72 12.84-7.14 17.23-2.69 2.699-6.011 4.77-9.721 5.96v-114.41c0-4.17-3.35-7.51-7.479-7.51-4.141 0-7.521 3.34-7.521 7.51v115.6h-99.81v-115.6c0-4.17-3.37-7.51-7.51-7.51-4.141 0-7.511 3.34-7.511 7.51v114.41c-3.689-1.19-7.029-3.261-9.72-5.96-4.399-4.391-7.12-10.48-7.12-17.23v-97.71c0-10.18 4.17-19.47 10.891-26.19 6.739-6.72 16.01-10.91 26.22-10.91h11.39c6.44 5.75 14.351 9.89 23.08 11.7l-19.899 70.02c-.771 2.78-.801 5.5-.03 8.16.74 2.55 2.439 5.39 4.45 7.2l16.87 15.34c2.18 2.09 5.75 3.4 8.76 3.4 2.89 0 6.37-1.28 8.56-3.26l17.03-15.48c2.04-1.87 3.52-4.19 4.31-6.86.771-2.61.82-5.87.091-8.5l-19.9-70.02c8.76-1.81 16.67-5.95 23.07-11.71h11.54c10.199 0 19.47 4.2 26.189 10.92 6.75 6.71 10.91 16.01 10.91 26.19z"/></g></g></svg>