<svg id="Capa_1" enable-background="new 0 0 512 512" height="512" viewBox="0 0 512 512" width="512" xmlns="http://www.w3.org/2000/svg"><g><g clip-rule="evenodd" fill-rule="evenodd"><path d="m232.033 272.243h47.935c2.636 0 4.79 2.154 4.79 4.79v220.592c0 2.636-2.154 4.79-4.79 4.79h-47.935c-2.636 0-4.79-2.154-4.79-4.79v-220.592c0-2.636 2.154-4.79 4.79-4.79z" fill="#e1f1ff"/><path d="m232.033 272.243h47.935c2.636 0 4.79 2.154 4.79 4.79v220.592c0 2.636-2.154 4.79-4.79 4.79h-47.935c-2.636 0-4.79-2.154-4.79-4.79v-220.592c0-2.636 2.154-4.79 4.79-4.79z" fill="#d09080"/><path d="m127.465 249.396 36.992-3.77 33.618 3.77h115.851l39.655-4.848 30.954 4.848c2.58.396 4.763 2.154 4.763 4.79v20.948c0 2.636-2.154 4.79-4.763 4.79h-257.07c-2.636 0-4.79-2.154-4.79-4.79v-20.948c0-2.636 2.182-4.536 4.79-4.79z" fill="#d8a595"/><path d="m53.114 147.121h21.713c1.445 0 2.862.114 4.28.312 7.144-1.304 14.683 1.559 19.048 7.909l35.433 52.016c1.701 2.523 4.082 4.11 7.966 4.224h56.521c10.432 0 18.907 8.475 18.907 18.907s-8.476 18.907-18.907 18.907h-71.573c-6.01-.029-11.934-2.948-15.562-8.277l-12.048-17.689-9.07 88.016h72.111c18.709 0 33.023 15.562 28.035 34.157l-36.737 136.8c-5.017 18.708-22.592 23.216-36.254 17.972-11.65-4.479-20.466-16.073-16.186-32.032l27.58-102.614c-30.613 0-61.198 0-91.812 0-15.901 0-30.557-13.124-28.941-28.97l16.555-160.696c1.615-15.817 13.01-28.942 28.941-28.942z" fill="#a5cdff"/><path d="m458.887 147.121h-21.714c-1.445 0-2.892.114-4.309.312-7.115-1.304-14.684 1.559-19.021 7.909l-35.432 52.016c-1.73 2.523-3.969 4.167-7.966 4.224h-56.521c-10.46 0-18.907 8.475-18.907 18.907s8.447 18.907 18.907 18.907h71.545c6.038-.029 11.934-2.948 15.591-8.277l12.046-17.688 9.043 88.016h-72.084c-18.736 0-33.022 15.562-28.034 34.157l36.736 136.8c5.017 18.708 22.593 23.216 36.227 17.972 11.678-4.479 20.466-16.073 16.186-32.032l-27.552-102.614h91.783c15.931 0 30.586-13.124 28.942-28.97l-16.526-160.696c-1.644-15.818-13.038-28.943-28.94-28.943z" fill="#ebd2ff"/><path d="m161.933 311.446h-72.111l-78.745-8.107-3.459 33.42c-1.615 15.846 13.04 28.97 28.941 28.97h91.812l-27.58 102.614c-4.28 15.959 4.535 27.553 16.186 32.032 13.662 5.244 31.237.737 36.254-17.972l36.737-136.8c4.989-18.595-9.326-34.157-28.035-34.157z" fill="#71aaf0"/><path d="m350.066 311.446c-18.736 0-33.022 15.562-28.034 34.157l36.736 136.8c5.017 18.708 22.593 23.216 36.227 17.972 11.678-4.479 20.466-16.073 16.186-32.032l-27.552-102.614h91.783c15.931 0 30.586-13.124 28.942-28.97l-3.431-33.42-78.773 8.107z" fill="#c19ee3"/><path d="m66.38 365.729h-53.971c-2.637 0-4.791 2.154-4.791 4.79v127.105c0 2.636 2.154 4.79 4.791 4.79h53.971c2.636 0 4.79-2.154 4.79-4.79v-127.104c0-2.637-2.155-4.791-4.79-4.791z" fill="#d8a595"/><path d="m499.563 365.729h-53.942c-2.636 0-4.79 2.154-4.79 4.79v127.105c0 2.636 2.154 4.79 4.79 4.79h53.942c2.636 0 4.791-2.154 4.791-4.79v-127.104c0-2.637-2.155-4.791-4.791-4.791z" fill="#d8a595"/><path d="m255.986 158.12c40.903 0 74.267-33.364 74.267-74.268s-33.363-74.268-74.267-74.268-74.238 33.364-74.238 74.268 33.335 74.268 74.238 74.268z" fill="#ecf4ff"/><path d="m21.281 108.882c0 23.499 19.19 42.718 42.689 42.718 23.471 0 42.689-19.219 42.689-42.718v-45.751c0-13.125-10.743-23.896-23.896-23.896h-37.586c-13.152 0-23.896 10.771-23.896 23.896z" fill="#ffcbbe"/><path d="m490.719 108.882c0 23.499-19.22 42.718-42.689 42.718-23.499 0-42.718-19.219-42.718-42.718v-45.751c0-13.125 10.772-23.896 23.925-23.896h37.586c13.153 0 23.896 10.771 23.896 23.896z" fill="#ffcbbe"/><path d="m490.719 108.882c0 23.499-19.22 42.718-42.689 42.718-4.224 0-8.277-.624-12.132-1.786 17.603-5.244 30.557-21.657 30.557-40.932v-45.751c0-13.125-10.771-23.896-23.896-23.896h-13.351.028 37.586c13.153 0 23.896 10.771 23.896 23.896v45.751z" fill="#f7beaf"/><path d="m106.659 63.131v16.639c-12.019 4.479-21.883.822-27.665-2.466-4.508-2.551-5.272-2.579-5.812 1.531-1.559 11.991-6.973 45.1-51.873 31.55l-.028-47.253c-.028-13.125 10.743-23.896 23.896-23.896h37.587c13.152-.001 23.895 10.77 23.895 23.895z" fill="#c68b87"/><path d="m405.312 63.131v16.639c12.048 4.479 21.912.822 27.694-2.466 4.479-2.551 5.272-2.579 5.783 1.531 1.587 11.991 6.973 45.1 51.873 31.55l.057-47.253c.028-13.125-10.743-23.896-23.896-23.896h-37.586c-13.153-.001-23.925 10.77-23.925 23.895z" fill="#477b9e"/><path d="m466.228 113.247c6.463.851 14.484.142 24.435-2.863l.057-47.253c.028-13.125-10.743-23.896-23.896-23.896h-37.586-.028 13.351c13.125 0 23.896 10.771 23.896 23.896v45.751c-.002 1.474-.087 2.948-.229 4.365z" fill="#365e7d"/><path d="m82.395 79.005v29.877c0 19.275-12.954 35.688-30.558 40.932 3.856 1.163 7.909 1.786 12.133 1.786 23.471 0 42.689-19.219 42.689-42.718v-29.112c-9.921 3.685-18.368 1.843-24.264-.765z" fill="#f7beaf"/><path d="m82.763 39.235h-24.263c13.152 0 23.896 10.771 23.896 23.896v15.874c5.896 2.608 14.343 4.45 24.264.765v-16.639c-.001-13.125-10.744-23.896-23.897-23.896z" fill="#bd7d79"/><path d="m305.988 83.852c0 36.878-26.899 67.493-62.135 73.275 3.969.652 8.023.992 12.133.992 41.017 0 74.267-33.251 74.267-74.268 0-41.018-33.25-74.268-74.267-74.268-4.11 0-8.164.34-12.133.992 35.236 5.784 62.135 36.398 62.135 73.277z" fill="#ddeafb"/><path d="m46.906 370.52v127.105c0 2.636-2.154 4.79-4.791 4.79h24.265c2.636 0 4.79-2.154 4.79-4.79v-127.105c0-2.636-2.154-4.79-4.79-4.79h-24.265c2.637-.001 4.791 2.153 4.791 4.79z" fill="#d09080"/><path d="m480.09 370.52v127.105c0 2.636-2.154 4.79-4.791 4.79h24.265c2.636 0 4.791-2.154 4.791-4.79v-127.105c0-2.636-2.155-4.79-4.791-4.79h-24.265c2.636-.001 4.791 2.153 4.791 4.79z" fill="#d09080"/><path d="m260.493 279.924v217.701c0 2.636-2.154 4.79-4.79 4.79h24.265c2.636 0 4.79-2.154 4.79-4.79v-217.701z" fill="#be694f"/><path d="m463.563 176.063 13.352 129.742 24.009-2.466-13.096-127.275c-1.389-13.578-9.978-25.172-22.45-28.176-4.876 2.183-10.204 3.486-15.816 3.685 7.794 5.158 12.953 14.257 14.001 24.49z" fill="#d7bef0"/><path d="m475.299 365.729h.113c-.028 0-.057 0-.113 0zm1.616-59.924 3.175 30.954c1.644 15.846-13.012 28.97-28.941 28.97h24.15.113c15.931 0 30.586-13.124 28.942-28.97l-3.431-33.42z" fill="#b592d1"/><path d="m361.745 374.602 25.172 93.742c4.11 15.25-3.771 26.532-14.655 31.408 7.029 3.458 15.449 3.43 22.733.624 11.678-4.479 20.466-16.073 16.186-32.032l-27.552-102.614c-5.301 0-10.602 0-15.902 0-5.018.481-7.428 3.514-5.982 8.872z" fill="#b592d1"/><path d="m165.676 345.603-36.708 136.8c-2.353 8.702-7.398 14.343-13.521 17.348.511.227 1.021.425 1.531.624 13.662 5.244 31.237.737 36.254-17.972l36.737-136.8c4.988-18.595-9.326-34.157-28.035-34.157h-24.292c18.736 0 33.051 15.562 28.034 34.157z" fill="#5a94db"/><path d="m80.524 196.473c-1.077-1.587-3.005-1.163-3.203.793l-11.509 111.714 24.01 2.466 9.07-88.016z" fill="#8abfff"/></g><path d="m496.871 373.241h-48.528v121.691h48.528zm-13.38-228.898c-.964.964-1.956 1.899-3.005 2.778 2.438 1.956 4.648 4.224 6.548 6.747 4.536 5.981 7.427 13.436 8.249 21.43l16.555 160.724c.822 7.965-1.503 15.789-6.378 22.28 3.628.539 6.434 3.657 6.434 7.427v136.715c0 4.138-3.373 7.483-7.512 7.483h-63.552c-4.139 0-7.484-3.345-7.484-7.483v-129.203h-39.939l25.028 93.175c2.524 9.383 1.39 17.689-2.068 24.52-3.912 7.767-10.801 13.408-18.68 16.441-8.73 3.345-18.567 3.515-27.213-.199-9.808-4.195-16.214-12.671-18.936-22.819l-36.736-136.8c-2.891-10.715-.85-21.685 6.266-30.387 7.114-8.646 17.914-13.238 28.997-13.238h63.807l-6.123-59.357c-2.919 4.309-6.178 7.455-10.94 9.723v25.625c0 4.139-3.345 7.483-7.483 7.483h-97.086v215.037c0 4.138-3.345 7.483-7.482 7.483h-57.515c-4.138 0-7.511-3.345-7.511-7.483v-94.281c0-4.138 3.373-7.512 7.511-7.512 4.139 0 7.483 3.374 7.483 7.512v86.768h42.519v-207.524h-42.519v86.769c0 4.167-3.345 7.512-7.483 7.512s-7.511-3.345-7.511-7.512v-86.769h-97.058c-4.139 0-7.512-3.345-7.512-7.483v-25.625c-4.733-2.239-7.993-5.414-10.941-9.723l-6.095 59.357h63.778c10.971 0 21.771 4.479 28.914 12.955 7.369 8.759 9.297 19.786 6.377 30.671l-36.736 136.8c-2.722 10.148-9.155 18.624-18.935 22.819-8.674 3.713-18.481 3.544-27.213.199-7.88-3.033-14.769-8.674-18.68-16.441-3.458-6.832-4.592-15.137-2.069-24.52l25.029-93.203h-39.938v129.232c0 4.138-3.373 7.483-7.512 7.483h-63.523c-4.166 0-7.511-3.345-7.511-7.483v-136.717c0-3.77 2.777-6.888 6.405-7.427-4.875-6.491-7.171-14.202-6.349-22.28l9.269-90.17c.425-4.11 4.11-7.115 8.221-6.69 4.11.425 7.086 4.11 6.661 8.221l-5.074 49.266 63.921 6.576 7.993-77.811-20.664-30.359c-2.353-3.43-1.475-8.079 1.956-10.403 3.401-2.324 8.078-1.446 10.402 1.956l34.242 50.287c1.077 1.587 2.522 2.806 4.11 3.657 1.445.765 2.976 1.219 4.507 1.332h72.395c3.146-.028 5.982-1.275 8.023-3.345 2.069-2.069 3.345-4.904 3.345-8.05s-1.275-6.01-3.345-8.079c-2.069-2.041-4.904-3.317-8.051-3.317h-61.624c-2.381-.028-4.734-1.162-6.18-3.288l-38.323-56.239c-1.786-2.608-4.478-4.309-7.625-4.819-6.236 2.778-13.125 4.337-20.381 4.337-6.236 0-12.246-1.162-17.802-3.26-3.799 1.417-7.059 4.025-9.524 7.427-2.721 3.77-4.507 8.476-5.017 13.578l-3.799 36.737c-.425 4.11-4.082 7.115-8.191 6.689-4.11-.425-7.115-4.11-6.691-8.22l3.799-36.737c.794-7.71 3.543-14.939 7.823-20.835 2.013-2.749 4.365-5.216 7.002-7.313-11.254-9.553-17.802-23.471-17.802-38.268v-45.751c0-8.646 3.543-16.498 9.241-22.195 5.669-5.669 13.521-9.213 22.166-9.213h37.615c8.617 0 16.469 3.543 22.167 9.213 5.697 5.697 9.212 13.549 9.212 22.195v45.751c0 13.72-5.612 26.759-15.505 36.227 2.154 1.672 4.081 3.685 5.669 6.009l36.085 52.951h57.684c7.285 0 13.891 2.977 18.652 7.738 4.791 4.791 7.738 11.395 7.738 18.681 0 4.082-.936 7.937-2.579 11.395h68.228c-1.672-3.458-2.608-7.313-2.608-11.395 0-7.285 2.977-13.89 7.738-18.681 4.791-4.762 11.395-7.738 18.681-7.738h57.684l36.056-52.951c1.616-2.353 3.544-4.365 5.698-6.009-.284-.255-.539-.51-.794-.766-9.099-9.099-14.739-21.657-14.739-35.461v-45.751c0-8.646 3.543-16.498 9.212-22.195 5.697-5.669 13.549-9.213 22.195-9.213h37.586c8.646 0 16.498 3.543 22.195 9.213 5.698 5.697 9.213 13.549 9.213 22.195v45.751c.002 13.351-5.299 26.022-14.738 35.461zm-2.183-24.037c-2.523.425-4.933.68-7.228.793-11.594.595-20.352-2.466-26.956-7.795-6.52-5.244-10.631-12.529-13.097-20.551-.681-2.211-1.247-4.507-1.672-6.831-5.159 2.211-11.85 3.912-19.531 3.175v19.786c0 9.666 3.969 18.482 10.347 24.86 6.406 6.378 15.193 10.347 24.859 10.347s18.481-3.969 24.859-10.347c3.742-3.743 6.662-8.335 8.419-13.437zm-68.484-46.262c10.8 1.701 18.737-4.507 20.268-5.811s2.863-2.098 4.961-2.183c4.139-.198 7.625 3.005 7.823 7.115.256 5.187.992 10.431 2.467 15.193 1.643 5.386 4.224 10.12 8.163 13.294 3.855 3.118 9.325 4.876 16.893 4.507 2.948-.142 6.236-.624 9.837-1.474v-41.554c0-4.507-1.843-8.618-4.819-11.594-2.977-2.977-7.087-4.819-11.594-4.819h-37.586c-4.508 0-8.59 1.842-11.565 4.819-2.977 2.976-4.848 7.086-4.848 11.594zm-384.06 30.643c3.601.851 6.859 1.333 9.836 1.474 7.568.369 13.011-1.389 16.894-4.507 3.912-3.175 6.52-7.908 8.164-13.294 1.474-4.762 2.182-10.006 2.438-15.193.198-4.11 3.713-7.313 7.823-7.115 2.154.085 3.458.907 4.989 2.183 1.615 1.389 9.524 7.483 20.238 5.811v-10.915c0-4.507-1.843-8.618-4.818-11.594-2.977-2.977-7.087-4.819-11.565-4.819h-37.615c-4.507 0-8.589 1.842-11.564 4.819-2.977 2.976-4.819 7.086-4.819 11.594v41.556zm70.383-15.591c-7.682.737-14.343-.964-19.502-3.175-.453 2.324-.992 4.62-1.7 6.831-2.467 8.022-6.577 15.307-13.097 20.551-6.576 5.329-15.363 8.391-26.957 7.795-2.296-.113-4.705-.369-7.228-.793 1.786 5.102 4.677 9.694 8.446 13.436 6.378 6.378 15.166 10.347 24.832 10.347 9.694 0 18.481-3.969 24.859-10.347 6.377-6.378 10.346-15.194 10.346-24.86v-19.785zm366.655 66.728c-5.527 2.098-11.508 3.26-17.772 3.26-7.256 0-14.145-1.559-20.381-4.337-3.118.482-5.839 2.239-7.625 4.819l-38.295 56.239c-1.39 2.041-3.714 3.26-6.18 3.288h-61.624c-3.147 0-6.01 1.276-8.079 3.317-2.041 2.069-3.316 4.932-3.316 8.079s1.275 5.981 3.316 8.05c2.069 2.069 4.904 3.316 8.022 3.345h72.396c1.56-.113 3.09-.567 4.507-1.332 1.616-.851 3.033-2.069 4.11-3.657l34.27-50.287c2.325-3.402 6.974-4.28 10.403-1.956 3.402 2.325 4.28 6.973 1.956 10.403l-20.692 30.359 8.021 77.811 63.893-6.576-12.331-119.821c-.538-5.244-2.409-10.091-5.329-13.918-2.409-3.203-5.584-5.697-9.27-7.086zm-252.902-95.953c-3.118-2.693-3.486-7.427-.821-10.545 2.692-3.146 7.427-3.515 10.545-.822l34.185 29.168 30.812-17.943c3.571-2.069 8.164-.85 10.232 2.721 2.07 3.572.851 8.136-2.721 10.205l-35.375 20.636c-2.693 1.559-6.151 1.332-8.618-.794zm27.893 89.008c4.025.935 6.548 4.932 5.612 8.958-.907 4.053-4.933 6.548-8.958 5.641-18.311-4.252-34.241-14.626-45.523-28.857-11.084-13.975-17.688-31.606-17.688-50.768 0-22.592 9.155-43.03 23.952-57.827s35.234-23.953 57.798-23.953c22.592 0 43.029 9.156 57.826 23.953s23.952 35.234 23.952 57.827c0 19.162-6.633 36.793-17.688 50.768-11.282 14.23-27.241 24.605-45.524 28.857-4.024.907-8.05-1.587-8.985-5.641-.907-4.025 1.616-8.022 5.641-8.958 14.91-3.458 27.921-11.934 37.133-23.584 9.015-11.367 14.429-25.767 14.429-41.442 0-18.454-7.483-35.15-19.559-47.225-12.076-12.076-28.771-19.559-47.225-19.559-18.425 0-35.12 7.483-47.196 19.559-12.075 12.075-19.559 28.771-19.559 47.225 0 15.675 5.386 30.076 14.4 41.442 9.241 11.65 22.252 20.126 37.162 23.584zm-225.692 224.362v121.691h48.558v-121.691c-16.187 0-32.371 0-48.558 0zm21.713-15.024c30.331 0 60.661.028 90.963.028.822-.057 1.672.028 2.494.255 3.997 1.049 6.378 5.159 5.301 9.156l-27.553 102.614c-1.474 5.527-.906 10.233.964 13.918 2.183 4.309 6.095 7.483 10.658 9.241 5.018 1.928 10.998 2.126 15.959-.028 5.641-2.409 8.845-7.171 10.375-12.897l36.736-136.828c1.615-6.038.821-12.274-3.345-17.178-4.252-5.074-10.941-7.54-17.462-7.54h-72.082v-.028h-.17-.028-.142-.028-.028l-.143-.028h-.028-.028-.142-.028l-71.347-7.37-2.665 26.022c-.538 5.301 1.758 10.432 5.499 14.117 4.394 4.335 10.148 6.546 16.27 6.546zm386.102-39.316h-.142-.029-.027l-.143.028h-.028-.028-.142-.028-.028-.142v.028h-72.112c-6.603 0-13.181 2.523-17.461 7.71-3.968 4.876-4.932 11.055-3.316 17.008l36.708 136.828c1.559 5.726 4.762 10.488 10.403 12.897 4.961 2.154 10.941 1.956 15.959.028 4.535-1.757 8.476-4.932 10.658-9.241 1.87-3.685 2.436-8.391.935-13.918l-27.553-102.612c-1.248-4.706 2.352-9.439 7.228-9.439h91.811c5.953 0 11.735-2.381 15.987-6.548 3.855-3.77 6.066-8.788 5.528-14.117l-2.693-26.022zm-292.758-62.022v15.534h251.656v-15.534c-83.876 0-167.751 0-251.656 0z"/></g></svg>