<svg id="Capa_1" enable-background="new 0 0 512 512" height="512" viewBox="0 0 512 512" width="512" xmlns="http://www.w3.org/2000/svg"><g><g clip-rule="evenodd" fill-rule="evenodd"><path d="m256 116.795c-15.449 0-28.092 12.644-28.092 28.093v25.655h-57.373v57.377h-25.654c-1.502 0-2.948.113-4.394.34-13.379 2.126-23.698 13.777-23.698 27.753 0 13.494 9.638 24.833 22.366 27.498.652.142 1.304.255 1.984.34 1.247.17 2.495.255 3.742.255h25.654v57.378h57.373v25.655c0 15.45 12.643 28.093 28.092 28.093s28.092-12.644 28.092-28.093v-25.655h27.326 30.047v-30.05-27.328h25.654c15.449 0 28.092-12.643 28.092-28.093s-12.643-28.093-28.092-28.093h-25.654v-57.377h-57.374v-25.655c0-1.956-.198-3.884-.595-5.727-2.635-12.727-14.003-22.366-27.496-22.366z" fill="#a5cdff"/><path d="m338.83 504.516h132.181c18.426 0 33.506-15.053 33.506-33.479v-132.189l-60.464-4.848v24.861c0 14.968-7.398 22.367-22.366 22.367-14.995 0-22.394-7.399-22.394-22.367v-24.861l-60.464 4.847-22.592 72.714z" fill="#a5cdff"/><path d="m173.171 338.848h55.616v24.862c0 14.996 12.246 27.242 27.213 27.242 14.995 0 27.241-12.246 27.241-27.242v-24.862h55.588v55.62h24.889c14.967 0 27.213 12.246 27.213 27.214s-12.246 27.242-27.213 27.242h-24.888v55.591h-165.659l-19.645-76.597z" fill="#ff6978"/><path d="m173.171 504.516h-132.181c-18.426 0-33.478-15.053-33.478-33.479v-132.189l83.396-70.36 82.263 70.36v55.62h24.86c14.996 0 27.241 12.246 27.241 27.214s-12.246 27.242-27.241 27.242h-24.86z" fill="#a5cdff"/><path d="m7.513 173.181v165.667h55.588v-24.861c0-14.997 12.274-27.243 27.241-27.243s27.213 12.246 27.213 27.243v24.861h55.617v-55.619h-24.86c-14.996 0-27.241-12.247-27.241-27.215 0-14.996 12.246-27.243 27.241-27.243h24.86v-55.59l-85.919-71.778z" fill="#ccf49f"/><path d="m7.513 173.181h55.588v-24.891c0-14.968 12.274-27.214 27.241-27.214s27.213 12.246 27.213 27.214v24.891h55.617l77.528-79.064-77.529-86.633h-132.181c-18.426 0-33.478 15.081-33.478 33.508v132.189z" fill="#ff6978"/><path d="m148.906 173.181h24.265l75.601-77.108v-4.111l-75.601-84.478h-24.265z" fill="#e85a68"/><path d="m283.242 173.181h55.588l84.048-76.144-84.048-89.553h-165.659v55.62h24.86c14.996 0 27.241 12.246 27.241 27.214 0 14.996-12.246 27.243-27.241 27.243h-24.86v55.62h55.616v-24.891c0-14.968 12.246-27.214 27.213-27.214 14.995 0 27.241 12.246 27.241 27.214v24.891z" fill="#ccf49f"/><path d="m314.565 173.181h24.265l60.01-54.373v-47.427l-60.01-63.897h-24.265z" fill="#b3e59f"/><path d="m338.83 117.561v55.62l93.147 84.024 72.54-84.024v-132.189c0-.057 0-.113 0-.142-.085-18.314-15.052-33.281-33.364-33.367h-.142-132.181v55.62h24.889c14.967 0 27.213 12.246 27.213 27.214 0 14.996-12.246 27.243-27.213 27.243h-24.889z" fill="#ff6978"/><path d="m421.688 225.256c-14.995 0-27.241-12.247-27.241-27.215v-24.861h-55.617v55.59h24.889c14.967 0 27.213 12.247 27.213 27.243 0 14.968-12.246 27.215-27.213 27.215h-24.889v55.619h55.617v24.862c0 14.996 12.246 27.242 27.241 27.242 14.967 0 27.213-12.246 27.213-27.242v-24.862h55.616v-165.666h-55.617v24.861c0 14.968-12.245 27.214-27.212 27.214z" fill="#ccf49f"/><path d="m480.252 201.273v137.575h24.265v-165.667h-24.265z" fill="#b3e59f"/><path d="m480.252 40.992v132.188h24.265v-132.188-.142c-.085-18.314-15.052-33.281-33.364-33.367h-.142-24.122c18.311.085 33.279 15.053 33.364 33.367v.142z" fill="#e85a68"/><path d="m480.252 338.848v132.188c0 18.427-15.081 33.479-33.506 33.479h24.265c18.426 0 33.506-15.053 33.506-33.479v-132.188z" fill="#8abfff"/><path d="m314.565 173.181v165.667h24.265v-55.619h24.889c14.967 0 27.213-12.247 27.213-27.215 0-14.996-12.246-27.243-27.213-27.243h-24.889v-55.59z" fill="#8abfff"/><path d="m314.565 341.485v163.031h24.265v-55.591h24.889c14.967 0 27.213-12.274 27.213-27.242s-12.246-27.214-27.213-27.214h-24.889v-52.983-2.637h-24.265z" fill="#e85a68"/><path d="m148.906 173.181v54.74.85h24.265v-55.59h-2.636zm0 110.926v33.99 20.75h21.629 2.636v-55.619h-24.265z" fill="#b3e59f"/><path d="m148.906 338.848v165.668h24.265v-55.591h24.86c14.996 0 27.241-12.274 27.241-27.242s-12.246-27.214-27.241-27.214h-24.86v-52.983-2.637h-2.636-21.629z" fill="#8abfff"/></g><path d="m398.33 421.824c0 9.497-3.884 18.143-10.12 24.379-6.265 6.265-14.911 10.148-24.406 10.148h-17.604v41.077h125.01c7.199 0 13.748-2.948 18.51-7.71 4.933-4.933 7.739-11.538 7.739-18.512v-125.016h-41.103v17.605c0 9.497-3.883 18.143-10.148 24.408-6.236 6.237-14.882 10.12-24.378 10.12-9.524 0-18.142-3.883-24.406-10.12-6.265-6.265-10.148-14.911-10.148-24.408v-17.605h-41.076v41.077h17.604c9.496 0 18.142 3.884 24.406 10.148 6.236 6.266 10.12 14.883 10.12 24.409zm-383.759-256.042h41.075v-17.605c0-9.497 3.883-18.143 10.148-24.379 6.265-6.265 14.882-10.148 24.407-10.148 9.496 0 18.142 3.883 24.406 10.148 6.237 6.237 10.12 14.883 10.12 24.379v17.605h41.075v-48.363c0-4.025 3.288-7.286 7.313-7.286h24.889c5.471 0 10.46-2.239 14.088-5.868s5.868-8.618 5.868-14.089c0-5.499-2.239-10.489-5.868-14.089-3.628-3.628-8.617-5.868-14.088-5.868h-24.889c-4.025 0-7.313-3.288-7.313-7.314v-48.39h-124.982c-7.229 0-13.777 2.977-18.539 7.739-4.762 4.763-7.71 11.311-7.71 18.54zm48.359 14.599h-48.359v58.596c0 4.025-3.26 7.286-7.285 7.286s-7.286-3.26-7.286-7.286v-65.881-132.302c0-11.255 4.593-21.432 11.991-28.83 7.654-7.683 17.972-11.964 28.829-11.964h430.56c11.168.057 21.316 4.621 28.658 11.963s11.905 17.462 11.934 28.66v131.82.028l.028.085v.028.028.028.028.028.028.029.028.057.028.028.028.142.029 65.881c0 4.025-3.26 7.286-7.285 7.286s-7.285-3.26-7.285-7.286v-58.596h-41.075v17.604c0 9.497-3.883 18.143-10.148 24.379-6.236 6.265-14.882 10.149-24.378 10.149-9.524 0-18.142-3.884-24.406-10.149-6.265-6.236-10.148-14.883-10.148-24.379v-17.604h-41.075v41.077h17.604c9.496 0 18.142 3.884 24.406 10.121 6.236 6.265 10.12 14.911 10.12 24.408 0 9.525-3.884 18.143-10.12 24.408-6.265 6.265-14.911 10.149-24.406 10.149h-17.604v41.077h48.36c4.025 0 7.285 3.26 7.285 7.285v24.891c0 5.471 2.268 10.46 5.868 14.089 3.628 3.628 8.617 5.868 14.116 5.868 5.471 0 10.46-2.239 14.089-5.868 3.628-3.629 5.868-8.618 5.868-14.089v-24.891c0-4.025 3.26-7.285 7.285-7.285h48.359v-58.625c0-4.025 3.26-7.286 7.285-7.286s7.285 3.26 7.285 7.286c0 66.08-.028 132.132-.028 198.211 0 10.83-4.28 21.148-11.934 28.831-7.398 7.372-17.603 11.965-28.828 11.965-143.464 0-286.927 0-430.39 0-11.254 0-21.431-4.593-28.829-11.963-7.398-7.399-11.991-17.604-11.991-28.831v-132.302-65.91c0-4.025 3.261-7.286 7.286-7.286s7.285 3.26 7.285 7.286v58.625h41.075v-17.604c0-9.497 3.883-18.143 10.148-24.408s14.882-10.149 24.407-10.149c9.496 0 18.142 3.884 24.406 10.149 6.237 6.264 10.12 14.911 10.12 24.408v17.604h41.075v-41.077h-17.604c-9.496 0-18.142-3.884-24.378-10.149-6.265-6.265-10.148-14.883-10.148-24.408 0-9.496 3.884-18.142 10.148-24.408 6.236-6.237 14.882-10.121 24.378-10.121h17.604v-41.077h-48.36c-4.025 0-7.285-3.26-7.285-7.285v-24.919c0-5.471-2.24-10.461-5.868-14.089s-8.617-5.868-14.088-5.868c-5.5 0-10.488 2.24-14.089 5.868-3.628 3.628-5.868 8.618-5.868 14.089v24.919c0 4.027-3.288 7.287-7.314 7.287zm117.469-165.838v41.077h17.604c9.496 0 18.142 3.883 24.378 10.148 6.264 6.265 10.148 14.912 10.148 24.408 0 9.497-3.884 18.143-10.148 24.408-6.236 6.236-14.882 10.12-24.378 10.12h-17.604v41.077h41.075v-17.605c0-9.497 3.883-18.143 10.12-24.379 6.265-6.265 14.911-10.148 24.407-10.148 9.524 0 18.142 3.883 24.407 10.148 6.265 6.237 10.148 14.883 10.148 24.379v17.605h41.075v-48.363c0-4.025 3.26-7.286 7.285-7.286h24.889c5.471 0 10.46-2.239 14.088-5.868s5.868-8.618 5.868-14.089c0-5.499-2.239-10.489-5.868-14.089-3.628-3.628-8.617-5.868-14.088-5.868h-24.889c-4.025 0-7.285-3.288-7.285-7.314v-48.361zm165.801 110.162v41.077h48.36c4.025 0 7.285 3.288 7.285 7.314v24.889c0 5.472 2.268 10.461 5.868 14.089 3.628 3.628 8.617 5.868 14.116 5.868 5.471 0 10.46-2.24 14.089-5.868 3.628-3.628 5.868-8.618 5.868-14.089v-24.889c0-4.026 3.26-7.314 7.285-7.314h48.388v-125.102c-.028-7.144-2.976-13.664-7.739-18.427-4.733-4.734-11.253-7.71-18.397-7.739h-125.123v41.106h17.604c9.496 0 18.142 3.883 24.406 10.148 6.236 6.265 10.12 14.912 10.12 24.408 0 9.497-3.884 18.143-10.12 24.408-6.265 6.236-14.911 10.12-24.406 10.12h-17.604zm-14.57 221.485h-41.075v17.605c0 9.497-3.883 18.143-10.148 24.408-6.265 6.237-14.882 10.12-24.407 10.12-9.496 0-18.142-3.883-24.407-10.12-6.236-6.265-10.12-14.911-10.12-24.408v-17.605h-41.075v41.077h17.604c9.496 0 18.142 3.884 24.378 10.148 6.264 6.265 10.148 14.883 10.148 24.408 0 9.497-3.884 18.143-10.148 24.379-6.236 6.265-14.882 10.148-24.378 10.148h-17.604v41.077h151.23v-48.363c0-4.025 3.26-7.285 7.285-7.285h24.889c5.471 0 10.46-2.24 14.088-5.868 3.628-3.629 5.868-8.618 5.868-14.089 0-5.5-2.239-10.489-5.868-14.118-3.628-3.6-8.617-5.868-14.088-5.868h-24.889c-4.025 0-7.285-3.261-7.285-7.286v-48.36zm-102.871-165.809h-48.36v48.362c0 4.026-3.288 7.286-7.285 7.286h-24.917c-5.471 0-10.46 2.24-14.088 5.868-3.628 3.629-5.868 8.618-5.868 14.089 0 5.5 2.239 10.489 5.868 14.089 3.628 3.629 8.617 5.897 14.088 5.897h24.917c3.997 0 7.285 3.26 7.285 7.286v48.362h48.36c4.025 0 7.285 3.26 7.285 7.285v24.891c0 5.471 2.24 10.46 5.868 14.089 3.628 3.628 8.618 5.868 14.088 5.868 5.499 0 10.488-2.239 14.088-5.868 3.628-3.629 5.896-8.618 5.896-14.089v-24.891c0-4.025 3.26-7.285 7.285-7.285h48.36v-48.362c0-4.026 3.26-7.286 7.285-7.286h24.889c5.471 0 10.46-2.268 14.088-5.897 3.628-3.6 5.868-8.589 5.868-14.089 0-5.471-2.239-10.46-5.868-14.089-3.628-3.628-8.617-5.868-14.088-5.868h-24.889c-4.025 0-7.285-3.26-7.285-7.286v-48.362h-48.36c-4.025 0-7.285-3.26-7.285-7.285v-24.919c0-5.471-2.269-10.461-5.896-14.089-3.6-3.628-8.589-5.868-14.088-5.868-5.471 0-10.46 2.24-14.088 5.868s-5.868 8.618-5.868 14.089v24.919c0 4.025-3.26 7.285-7.285 7.285zm-187.939 317.048h124.981v-48.363c0-4.025 3.288-7.285 7.313-7.285h24.889c5.471 0 10.46-2.24 14.088-5.868 3.628-3.629 5.868-8.618 5.868-14.089 0-5.5-2.239-10.489-5.868-14.118-3.628-3.6-8.617-5.868-14.088-5.868h-24.889c-4.025 0-7.313-3.261-7.313-7.286v-48.362h-48.36c-4.025 0-7.285-3.26-7.285-7.286v-24.889c0-5.5-2.24-10.489-5.868-14.089-3.628-3.628-8.617-5.868-14.088-5.868-5.5 0-10.488 2.24-14.089 5.868-3.628 3.6-5.896 8.589-5.896 14.089v24.889c0 4.026-3.26 7.286-7.285 7.286h-48.359v125.016c0 7.201 2.948 13.749 7.71 18.512 4.763 4.762 11.31 7.711 18.539 7.711z"/></g></svg>