<svg id="Capa_1" enable-background="new 0 0 512 512" height="512" viewBox="0 0 512 512" width="512" xmlns="http://www.w3.org/2000/svg"><g><g clip-rule="evenodd" fill-rule="evenodd"><path d="m347.828 298.917v194.119c-.68 6.038-5.471 10.8-11.48 11.48h-103.832c-6.01-.681-10.773-5.442-11.453-11.48v-194.119z" fill="#6aa2e6"/><path d="m234.244 122.6h100.375c25.398 0 46.176 20.779 46.176 46.178v122.685c-.652 6.01-5.443 10.801-11.451 11.452h-169.797c-6.037-.651-10.799-5.442-11.479-11.452v-122.686c0-25.398 20.778-46.177 46.176-46.177z" fill="#a5cdff"/><path d="m195.154 327.434c3.459 16.272-.908 34.102-13.551 46.715-18.084 18.087-46.545 19.476-66.357 4.395-3.488-2.637-6.18-2.693-9.752 0-19.928 15.024-48.246 13.721-66.359-4.395-18.141-18.113-19.559-46.516-4.393-66.358 3.203-4.167 2.861-6.01 0-9.752-15.195-19.786-13.721-48.246 4.393-66.359 18.369-18.369 47.566-19.844 67.209-3.713 3.006 2.466 5.074 2.381 8.051 0 19.814-15.96 48.812-14.684 67.209 3.713 12.699 12.699 17.15 30.388 13.551 46.715-.908 4.195.396 6.208 4.678 6.208h277.682c5.188.85 9.297 4.933 10.119 10.12v44.93c-.822 5.188-4.932 9.298-10.119 10.12h-16.299c-5.188.821-9.27 4.932-10.121 10.119v4.45c-.822 5.188-4.904 9.27-10.092 10.092h-13.549c-5.188-.822-9.297-4.904-10.119-10.092v-4.45c-.822-5.188-4.934-9.298-10.119-10.119h-16.301c-5.188-.822-9.27-4.933-10.119-10.12v-18.425h-180.964c-4.309-.001-5.67 1.5-4.678 6.206zm-135.722-4.337c8.504-8.476 22.252-8.476 30.756 0 8.475 8.505 8.475 22.253 0 30.757-8.504 8.475-22.252 8.475-30.756 0-8.477-8.504-8.477-22.252 0-30.757zm71.121 30.756c-8.504-8.504-8.504-22.252 0-30.757 8.475-8.476 22.252-8.476 30.756 0 8.475 8.505 8.475 22.253 0 30.757-8.504 8.475-22.282 8.475-30.756 0zm-71.121-71.123c-8.476-8.476-8.476-22.252 0-30.728 8.504-8.504 22.252-8.504 30.756 0 8.475 8.476 8.475 22.252 0 30.728-8.504 8.504-22.252 8.504-30.756 0zm71.121-30.727c8.475-8.504 22.252-8.504 30.756 0 8.475 8.476 8.475 22.252 0 30.728-8.504 8.504-22.281 8.504-30.756 0-8.504-8.476-8.504-22.253 0-30.728z" fill="#f2ce7e"/><path d="m331.217 83.821c0 25.711-21.06 46.772-46.771 46.772-25.738 0-46.771-21.062-46.771-46.772v-50.145c0-14.4 11.764-26.164 26.164-26.164h41.188c14.4 0 26.191 11.764 26.191 26.164v50.145z" fill="#ffcbbe"/><path d="m237.674 33.676v18.228c13.182 4.904 24.18.766 30.529-2.834 4.932-2.778 5.727-3.346 10.602.936 22.478 19.672 52.412 8.73 52.412 8.73v-25.06c0-14.4-11.791-26.164-26.191-26.164h-41.188c-14.4 0-26.164 11.763-26.164 26.164z" fill="#c68b87"/><path d="m306.953 61.569v22.252c0 21.516-14.74 39.771-34.641 45.157 3.855 1.049 7.938 1.615 12.133 1.615 25.711 0 46.771-21.062 46.771-46.772v-25.086c.001 0-10.798 3.94-24.263 2.834z" fill="#f7beaf"/><path d="m280.76 7.512c14.4 0 26.193 11.764 26.193 26.164v27.894c13.465 1.105 24.264-2.834 24.264-2.834v-25.06c0-14.4-11.791-26.164-26.191-26.164z" fill="#bd7d79"/><path d="m356.531 168.777v115.824h24.264v-115.824c0-25.398-20.777-46.178-46.176-46.178h-24.096c25.315.086 46.008 20.837 46.008 46.178z" fill="#8abfff"/><path d="m323.535 321.227v171.81c-.652 6.038-5.443 10.8-11.451 11.48h24.264c6.01-.681 10.801-5.442 11.48-11.48v-171.81z" fill="#5a94db"/></g><path d="m340.316 424.238c0-4.139 3.346-7.512 7.512-7.512 4.139 0 7.484 3.373 7.484 7.512v69.024c0 4.507-2.836 9.836-5.982 12.926-3.26 3.203-8.561 5.811-13.182 5.811h-103.632c-4.48 0-9.838-2.75-12.955-5.811-3.289-3.203-6.01-8.447-6.01-13.096v-164.354h-10.516c1.246 7.398 1.049 14.995-.568 22.337-2.324 10.431-7.512 20.324-15.562 28.374-11.281 11.283-26.078 16.925-40.902 16.952-12.586.029-25.172-4.024-35.633-12.16-10.459 8.136-23.045 12.189-35.658 12.16-14.826-.027-29.623-5.669-40.877-16.952-11.281-11.253-16.922-26.05-16.951-40.875-.027-12.614 4.055-25.2 12.19-35.66-8.135-10.433-12.217-23.046-12.19-35.632.029-14.826 5.67-29.622 16.951-40.904 11.254-11.254 26.051-16.924 40.877-16.952 12.613 0 25.199 4.054 35.658 12.19 10.461-8.137 23.047-12.19 35.633-12.19 12.188.028 24.377 3.856 34.582 11.481v-52.13c0-14.768 6.037-28.205 15.76-37.928 9.725-9.724 23.131-15.762 37.9-15.762h5.896c-6.266-8.845-9.979-19.645-9.979-31.267v-50.144c0-9.27 3.799-17.688 9.893-23.783 6.093-6.094 14.513-9.893 23.783-9.893h41.188c9.27 0 17.717 3.799 23.81 9.893 6.094 6.095 9.893 14.514 9.893 23.783v50.145c0 11.622-3.713 22.422-9.979 31.267h5.869c14.768 0 28.205 6.038 37.928 15.762 9.723 9.723 15.76 23.159 15.76 37.928v28.232c0 4.139-3.373 7.512-7.512 7.512s-7.482-3.373-7.482-7.512v-28.232c0-10.631-4.367-20.297-11.367-27.326-7.031-7.002-16.697-11.367-27.326-11.367h-21.885c-8.248 5.074-17.943 7.994-28.289 7.994s-20.041-2.92-28.289-7.994h-21.912c-10.631 0-20.297 4.365-27.299 11.367-7.029 7.029-11.365 16.695-11.365 27.326v68.685c3.26 5.414 5.555 11.281 6.887 17.291 1.617 7.37 1.814 14.967.568 22.365h30.529v-88.187c0-4.139 3.373-7.484 7.512-7.484s7.482 3.346 7.482 7.484v88.187h18.908c4.137 0 7.482 3.345 7.482 7.512 0 4.139-3.346 7.483-7.482 7.483h-74.041c-.822 0-1.844-.17-2.637-.453-3.885-1.418-5.867-5.698-4.479-9.581 2.807-7.739 3.344-16.129 1.559-24.095-1.758-7.966-5.811-15.251-11.566-21.005-8.389-8.391-19.359-12.586-30.301-12.586-10.971-.028-21.969 4.139-30.359 12.473-2.92 2.891-7.625 2.891-10.545 0-8.391-8.334-19.389-12.501-30.387-12.473-10.943 0-21.885 4.195-30.275 12.586-8.391 8.391-12.586 19.36-12.613 30.303 0 10.97 4.139 21.969 12.473 30.359 2.92 2.92 2.92 7.626 0 10.545-8.334 8.391-12.473 19.39-12.473 30.388.027 10.941 4.223 21.883 12.613 30.273 8.391 8.391 19.332 12.587 30.275 12.616 10.998.027 21.996-4.14 30.387-12.474 2.92-2.92 7.625-2.92 10.545 0 8.391 8.334 19.389 12.501 30.359 12.474 10.941-.029 21.912-4.226 30.301-12.616 6.01-6.009 9.865-13.322 11.566-21.004 1.729-7.796 1.275-15.959-1.361-23.557-.424-.936-.652-1.984-.652-3.061 0-4.139 3.346-7.512 7.484-7.512h27.723 126.766 32.967 99.326v-21.602c-59.557 0-119.141 0-178.695 0-4.139 0-7.512-3.345-7.512-7.483 0-4.167 3.373-7.512 7.512-7.512h18.877v-88.187c0-4.139 3.375-7.484 7.514-7.484 4.137 0 7.482 3.346 7.482 7.484v88.187h38.014v-46.119c0-4.139 3.344-7.513 7.482-7.513 4.139 0 7.512 3.374 7.512 7.513v46.119h99.326c4.139 0 7.484 3.345 7.484 7.512v65.142c0 4.139-3.346 7.512-7.484 7.512h-29.027v17.149c0 4.167-3.344 7.512-7.512 7.512h-33.76c-4.139 0-7.512-3.345-7.512-7.512v-17.149h-29.027c-4.139 0-7.482-3.373-7.482-7.512v-21.033h-18v61.513c0 4.139-3.346 7.512-7.484 7.512-4.166 0-7.512-3.373-7.512-7.512v-61.513h-111.744v164.1c.199 1.02.709 1.955 1.475 2.692s1.758 1.276 2.863 1.474h44.021v-137.623c0-4.139 3.373-7.512 7.512-7.512s7.484 3.373 7.484 7.512v137.623h44.021c1.133-.197 2.125-.736 2.891-1.474.738-.737 1.275-1.673 1.475-2.692zm-16.611-356.036c-12.217 2.014-33.393 2.354-50.654-13.322-5.897 3.572-15.789 7.851-27.895 6.463v22.478c0 10.771 4.424 20.608 11.537 27.723 7.145 7.115 16.951 11.537 27.752 11.537s20.607-4.422 27.723-11.537c7.115-7.114 11.537-16.951 11.537-27.723zm-78.549-21.968c8.363 1.53 17.52-1.219 23.84-6.832 3.119-2.693 7.852-2.354 10.545.765 14.543 16.726 34.867 14.854 44.164 12.87v-19.361c0-5.131-2.098-9.779-5.471-13.182-3.402-3.373-8.078-5.498-13.209-5.498h-41.188c-5.131 0-9.779 2.125-13.182 5.498-3.402 3.402-5.5 8.051-5.5 13.182v12.558zm234.965 282.504h-91.814v13.549h29.027c4.139 0 7.482 3.346 7.482 7.484v17.178h18.795v-17.178c0-4.139 3.344-7.484 7.483-7.484h29.027zm-425.99-10.942c5.725-5.697 13.209-8.56 20.693-8.56 7.482 0 14.967 2.863 20.664 8.56 5.697 5.727 8.561 13.21 8.561 20.693 0 7.455-2.863 14.938-8.561 20.665-5.697 5.697-13.182 8.561-20.664 8.561-7.484 0-14.969-2.863-20.693-8.561-5.697-5.727-8.561-13.21-8.561-20.665 0-7.483 2.864-14.967 8.561-20.693zm10.601 10.601c-2.779 2.778-4.168 6.435-4.168 10.092 0 3.628 1.389 7.285 4.168 10.063 2.777 2.777 6.434 4.166 10.092 4.166 3.627 0 7.283-1.389 10.062-4.166 2.777-2.778 4.166-6.436 4.166-10.063 0-3.657-1.389-7.313-4.166-10.092-2.779-2.777-6.435-4.167-10.062-4.167-3.658 0-7.314 1.39-10.092 4.167zm60.52 30.757c-5.727-5.698-8.561-13.21-8.561-20.665 0-7.483 2.834-14.967 8.561-20.693 5.697-5.697 13.182-8.56 20.664-8.56 7.484 0 14.967 2.863 20.693 8.56 5.697 5.727 8.561 13.21 8.561 20.693 0 7.455-2.863 14.938-8.561 20.665-5.727 5.697-13.209 8.561-20.693 8.561-7.482 0-14.967-2.863-20.664-8.561zm6.434-20.665c0 3.628 1.391 7.285 4.168 10.063 2.777 2.777 6.434 4.166 10.062 4.166 3.656 0 7.285-1.389 10.062-4.166 2.807-2.778 4.195-6.436 4.195-10.063 0-3.657-1.389-7.313-4.195-10.092-2.777-2.777-6.406-4.167-10.062-4.167-3.629 0-7.285 1.39-10.062 4.167-2.778 2.779-4.168 6.435-4.168 10.092zm-77.555-50.458c-5.697-5.697-8.561-13.181-8.561-20.664s2.863-14.968 8.561-20.665c5.725-5.726 13.209-8.589 20.693-8.589 7.482 0 14.967 2.863 20.664 8.561 5.697 5.726 8.561 13.21 8.561 20.693s-2.863 14.967-8.561 20.664c-5.697 5.725-13.182 8.561-20.664 8.561-7.484.001-14.968-2.835-20.693-8.561zm6.434-20.664c0 3.656 1.389 7.284 4.168 10.062 2.777 2.778 6.434 4.167 10.092 4.167 3.627 0 7.283-1.389 10.062-4.167 2.777-2.778 4.166-6.406 4.166-10.062 0-3.657-1.389-7.285-4.166-10.063-2.779-2.777-6.435-4.167-10.062-4.167-3.658 0-7.314 1.39-10.092 4.167-2.78 2.778-4.168 6.406-4.168 10.063zm64.687-20.665c5.697-5.726 13.182-8.589 20.664-8.589 7.484 0 14.967 2.863 20.693 8.589 5.584 5.584 8.418 12.898 8.531 20.239.113 7.626-2.721 15.279-8.531 21.09-5.727 5.725-13.209 8.561-20.693 8.561-7.482 0-14.967-2.836-20.664-8.561-5.727-5.697-8.561-13.181-8.561-20.664s2.834-14.968 8.561-20.665zm10.602 10.602c-2.777 2.778-4.168 6.406-4.168 10.063 0 3.628 1.391 7.284 4.168 10.062s6.434 4.167 10.062 4.167c3.656 0 7.285-1.389 10.062-4.167 2.807-2.778 4.195-6.406 4.195-10.034 0-3.657-1.389-7.314-4.195-10.092-2.777-2.777-6.406-4.167-10.062-4.167-3.629.001-7.285 1.39-10.062 4.168z"/></g></svg>