<svg id="Capa_1" enable-background="new 0 0 512 512" height="512" viewBox="0 0 512 512" width="512" xmlns="http://www.w3.org/2000/svg"><g><g><path clip-rule="evenodd" d="m118.008 270.548v-98.646c0-10.941 8.957-19.899 19.899-19.899h32.854c6.35 0 11.169.482 15.364 6.038l26.73 35.404c1.334 1.786 2.779 2.722 5.473 2.722h33.477c8.419 0 15.25 6.831 15.25 15.25s-6.831 15.251-15.25 15.251h-44.477c-4.592-.028-9.156-2.126-12.132-6.095l-4.536-5.981v63.581h-65.056c-3.855-.708-6.916-3.742-7.596-7.625z" fill="#ccf49f" fill-rule="evenodd"/><path clip-rule="evenodd" d="m291.291 270.548v-98.646c0-10.941 8.959-19.899 19.9-19.899h32.853c6.321 0 11.141.482 15.336 6.038l26.731 35.404c1.36 1.786 2.806 2.722 5.471 2.722h33.506c8.419 0 15.25 6.831 15.25 15.25s-6.831 15.251-15.25 15.251h-44.477c-4.593-.028-9.156-2.126-12.133-6.095l-4.535-5.981v63.581h-65.056c-3.854-.708-6.915-3.742-7.596-7.625z" fill="#a5cdff" fill-rule="evenodd"/><path clip-rule="evenodd" d="m393.397 268.45c37.021 0 68.456-22.422 81.299-54.879 1.644-4.194 6.18-5.641 9.325-1.956 12.757 14.968 20.041 25.768 20.041 64.29 0 44.192-49.551 110.665-110.665 110.665h-275.39c-61.115 0-110.666-66.473-110.666-110.665 0-38.211 7.455-49.493 20.041-64.29 2.835-3.345 7.653-2.296 9.241 1.73 12.898 32.316 44.477 55.105 81.384 55.105z" fill="#d09080" fill-rule="evenodd"/><path clip-rule="evenodd" d="m16.64 313.125c17.121 36.906 56.07 73.445 101.368 73.445h275.39c61.114 0 110.665-66.473 110.665-110.665 0-37.53-6.916-48.756-19.077-63.184 2.948 9.127 4.508 21.061 4.508 38.919 0 44.192-49.551 110.665-110.639 110.665h-275.389c-35.206.001-66.559-22.053-86.826-49.18z" fill="#be694f" fill-rule="evenodd"/><path d="m201.007 327.892c-1.275 3.232-.142 5.301 2.069 7.512 6.831 6.804 9.639 17.15 6.378 26.873l-17.064 51.08c-4.592 13.635-19.502 21.09-33.165 16.526-13.663-4.593-21.09-19.503-16.526-33.166l17.093-51.052c3.26-9.751 11.707-16.327 21.288-17.631 2.977-.398 4.734-.681 6.151-4.734z" fill="#d8a595"/><path d="m374.263 327.892c-1.248 3.232-.143 5.301 2.069 7.512 6.859 6.804 9.667 17.15 6.406 26.873l-17.093 51.08c-4.564 13.635-19.475 21.09-33.138 16.526-13.663-4.593-21.09-19.503-16.525-33.166l17.093-51.052c3.26-9.751 11.707-16.327 21.288-17.631 2.977-.398 4.705-.681 6.151-4.734z" fill="#d8a595"/><g clip-rule="evenodd" fill-rule="evenodd"><path d="m125.406 130.12c0 15.902 13.04 28.913 28.942 28.913s28.913-13.011 28.913-28.913v-31.012c0-8.9-7.284-16.186-16.186-16.186h-25.483c-8.9 0-16.187 7.285-16.187 16.186v31.012z" fill="#ffcbbe"/><path d="m298.69 130.12c0 15.902 13.013 28.913 28.943 28.913 15.902 0 28.913-13.011 28.913-28.913v-31.012c0-8.9-7.285-16.186-16.185-16.186h-25.483c-8.901 0-16.188 7.285-16.188 16.186z" fill="#ffcbbe"/><path d="m183.262 99.108v11.254c-8.163 3.033-14.825.567-18.736-1.673-3.062-1.729-3.572-1.729-3.94 1.049-1.049 8.136-4.734 30.558-35.15 21.373l-.028-32.003c0-8.9 7.286-16.186 16.187-16.186h25.483c8.899.001 16.184 7.286 16.184 16.186z" fill="#c68b87"/><path d="m356.546 99.108v11.254c-8.164 3.033-14.825.567-18.737-1.673-3.061-1.729-3.571-1.729-3.94 1.049-1.049 8.136-4.733 30.558-35.149 21.373l-.029-32.003c0-8.9 7.286-16.186 16.188-16.186h25.483c8.899.001 16.184 7.286 16.184 16.186z" fill="#ffe5a0"/><path d="m166.425 187.465v80.985h24.235v-53.858l-21.232-28.148c-1.076-1.389-3.003-.794-3.003 1.021z" fill="#b3e59f"/><path d="m339.708 187.465v80.985h24.236v-53.858l-21.231-28.148c-.992-1.304-3.005-.426-3.005 1.021z" fill="#8abfff"/></g></g><path d="m150.04 398.107c-1.645 4.875-1.105 9.978 1.049 14.286 2.126 4.309 5.896 7.796 10.771 9.439 4.45 1.673 10.063 1.049 14.259-1.049 4.309-2.154 7.795-5.925 9.439-10.772 5.698-17.036 11.395-34.072 17.094-51.108 1.615-4.848 1.105-9.95-1.049-14.259-2.354-4.705-5.925-7.625-10.771-9.439-4.876-1.615-9.979-1.105-14.287 1.049-4.309 2.154-7.795 5.925-9.411 10.772-5.698 17.036-11.397 34.073-17.094 51.081zm156.503-273.884c1.984.396 3.798.624 5.471.709 4.535.227 7.738-.681 9.893-2.325 2.154-1.615 3.572-4.166 4.507-7.171.766-2.552 1.191-5.414 1.333-8.362.198-4.139 3.685-7.313 7.823-7.115 1.758.085 2.835.624 4.224 1.531.822.51 4.309 2.494 9.609 1.927v-5.471c0-2.381-.964-4.535-2.551-6.122-1.588-1.588-3.771-2.552-6.151-2.552h-25.483c-2.381 0-4.535.964-6.123 2.552-1.587 1.587-2.551 3.741-2.551 6.122v26.277zm42.859-5.868c-3.005.171-5.726-.113-8.106-.595-1.673 6.604-4.848 12.586-10.347 16.753-6.265 4.733-13.833 5.952-21.487 5.244.936 1.587 2.07 3.061 3.374 4.337 3.883 3.911 9.241 6.321 15.137 6.321s11.254-2.41 15.137-6.321c3.884-3.884 6.293-9.241 6.293-15.138v-10.601zm-216.257 5.868c1.984.396 3.827.624 5.499.709 4.536.227 7.71-.681 9.894-2.325 2.125-1.615 3.571-4.166 4.479-7.171.793-2.552 1.19-5.414 1.332-8.362.198-4.139 3.713-7.313 7.852-7.115 1.588.057 2.835.567 4.11 1.445.596.397 4.139 2.608 9.724 2.013v-5.471c0-2.381-.992-4.535-2.58-6.122-1.559-1.588-3.742-2.552-6.123-2.552h-25.483c-2.381 0-4.564.964-6.151 2.552-1.559 1.587-2.551 3.741-2.551 6.122v26.277zm42.889-5.868c-3.005.171-5.755-.113-8.136-.595-1.645 6.604-4.848 12.586-10.347 16.753-6.236 4.733-13.805 5.952-21.458 5.244.936 1.587 2.069 3.061 3.345 4.337 3.912 3.911 9.269 6.321 15.137 6.321 5.896 0 11.254-2.41 15.137-6.321 3.884-3.884 6.322-9.241 6.322-15.138zm120.728 29.396c-3.316-5.499-5.244-11.934-5.244-18.794v-31.011c0-6.52 2.665-12.444 6.975-16.725 4.28-4.309 10.205-6.973 16.725-6.973h25.482c6.548 0 12.473 2.664 16.753 6.973 4.309 4.28 6.973 10.205 6.973 16.725v31.011c0 6.492-1.729 12.614-4.733 17.916 2.268 1.417 4.337 3.26 6.038 5.556l26.561 35.149h13.436l29.537-88.299c1.304-3.912 5.556-6.01 9.468-4.706s6.038 5.556 4.706 9.468l-27.95 83.537h3.997c6.293 0 11.99 2.551 16.1 6.661s6.662 9.808 6.662 16.101c0 6.265-2.552 11.963-6.662 16.072-4.11 4.11-9.808 6.662-16.1 6.662h-19.219l-8.929 26.759c16.837-.737 32.343-6.661 44.9-16.186 13.748-10.46 24.037-25.257 28.801-42.378 1.105-3.969 5.216-6.321 9.213-5.216 1.445.396 2.749 1.219 3.713 2.381 1.475 1.758 2.466 2.892 3.401 3.969 15.449 17.972 24.634 28.658 24.634 72.453 0 25.711-15.279 58.139-39.487 82.375-20.835 20.807-48.359 35.858-78.747 35.858h-13.38l-7.257 21.656c-2.948 8.816-9.213 15.619-16.923 19.446-7.711 3.854-16.923 4.762-25.711 1.814-8.815-2.947-15.618-9.212-19.474-16.922-4.082-8.221-4.62-17.32-1.701-25.994h-102.332l-7.257 21.656c-2.948 8.816-9.213 15.619-16.923 19.446-7.71 3.854-16.895 4.762-25.71 1.814-8.816-2.947-15.591-9.212-19.446-16.922-4.11-8.221-4.62-17.32-1.7-25.994h-17.718c-20.977 0-40.592-7.2-57.6-18.51-19.192-12.756-35.066-30.814-45.696-49.721-2.012-3.6-.736-8.163 2.863-10.204 3.629-2.013 8.192-.737 10.205 2.863 9.553 16.979 23.755 33.193 40.876 44.589 14.712 9.751 31.521 15.959 49.352 15.959h22.734l11.963-35.773c2.948-8.815 9.212-15.619 16.923-19.474 5.584-2.778 11.934-4.025 18.368-3.374l14.882-44.532h-84.87c-21.572 0-41.471-7.2-57.486-19.36-12.812-9.751-23.104-22.677-29.651-37.588-10.177 12.416-16.072 23.642-16.072 56.892 0 4.45.538 8.873 1.445 13.238.851 4.054-1.758 8.022-5.783 8.872-4.053.822-8.021-1.758-8.872-5.81-1.106-5.329-1.815-10.857-1.815-16.3 0-43.795 9.185-54.481 24.634-72.453.963-1.077 1.927-2.211 3.43-3.969 2.664-3.175 7.37-3.543 10.545-.879 1.275 1.077 2.098 2.467 2.438 3.969 4.792 17.008 15.053 31.72 28.744 42.123 11.565 8.787 25.625 14.485 40.933 15.902v-23.471c0-4.139 3.373-7.483 7.512-7.483s7.512 3.345 7.512 7.483v23.811h57.687v-43.88l-16.271-21.572c-2.494-3.288-1.843-7.993 1.475-10.488 3.288-2.494 7.993-1.842 10.487 1.475l17.547 23.244 4.79 6.321c1.503 1.984 3.657 3.09 6.151 3.09h44.505c2.126 0 4.082-.879 5.472-2.269 1.389-1.417 2.268-3.345 2.268-5.471 0-2.154-.879-4.082-2.268-5.499-1.39-1.389-3.346-2.268-5.472-2.268h-33.505c-2.608 0-4.763-.511-6.748-1.559-1.956-1.049-3.43-2.409-4.733-4.138l-26.73-35.434c-1.105-1.474-2.75-2.523-4.564-2.892-5.98 4.309-13.322 6.86-21.26 6.86-7.597 0-14.655-2.353-20.494-6.35-2.154.737-4.025 2.069-5.442 3.771-1.816 2.125-2.893 4.903-2.893 7.965v31.323c0 4.138-3.373 7.512-7.512 7.512s-7.512-3.374-7.512-7.512v-31.323c0-6.661 2.438-12.812 6.463-17.604 1.786-2.098 3.884-3.939 6.18-5.442-3.316-5.499-5.216-11.934-5.216-18.794v-31.009c0-6.52 2.664-12.444 6.944-16.725 4.282-4.309 10.234-6.973 16.754-6.973h25.483c6.52 0 12.444 2.664 16.753 6.973 4.28 4.28 6.945 10.205 6.945 16.725v31.011c0 6.492-1.701 12.614-4.706 17.916 2.268 1.417 4.309 3.26 6.038 5.556l26.533 35.149h13.437l29.536-88.299c1.333-3.912 5.557-6.01 9.469-4.706 3.939 1.304 6.037 5.556 4.733 9.468l-27.949 83.537h3.996c6.265 0 11.963 2.551 16.073 6.661 4.139 4.11 6.661 9.808 6.661 16.101 0 6.265-2.522 11.963-6.661 16.072-4.11 4.11-9.809 6.662-16.073 6.662h-19.219l-8.985 26.815h60.208v-23.811c0-4.139 3.345-7.483 7.483-7.483 4.167 0 7.512 3.345 7.512 7.483v23.811h57.686v-43.88l-16.271-21.572c-2.494-3.288-1.815-7.993 1.474-10.488 3.316-2.494 7.994-1.842 10.488 1.475l17.547 23.244 4.79 6.321c1.503 1.984 3.657 3.09 6.18 3.09h44.477c2.154 0 4.082-.879 5.471-2.269 1.418-1.417 2.268-3.345 2.268-5.471 0-2.154-.85-4.082-2.268-5.499-1.389-1.389-3.316-2.268-5.471-2.268h-33.509c-2.608 0-4.763-.511-6.719-1.559-1.957-1.049-3.431-2.409-4.734-4.138l-26.76-35.434c-1.105-1.474-2.749-2.523-4.535-2.892-6.01 4.309-13.351 6.86-21.26 6.86-7.597 0-14.655-2.353-20.522-6.35-2.069.737-3.912 2.013-5.33 3.656-1.87 2.155-3.005 4.989-3.005 8.079v31.323c0 4.138-3.345 7.512-7.512 7.512-4.139 0-7.483-3.374-7.483-7.512v-31.323c0-6.803 2.523-13.039 6.69-17.858 1.7-2.01 3.712-3.767 5.952-5.185zm43.74 199.276c-5.698 17.035-11.396 34.072-17.093 51.08-1.616 4.875-1.105 9.978 1.049 14.286 2.154 4.309 5.924 7.796 10.771 9.439 4.479 1.673 10.062 1.049 14.286-1.049 4.309-2.154 7.796-5.925 9.411-10.772l17.093-51.108c1.645-4.848 1.105-9.95-1.049-14.259-2.126-4.309-5.896-7.795-10.772-9.439-4.45-1.672-10.062-1.049-14.258 1.049-4.307 2.155-7.794 5.926-9.438 10.773zm-26.164 31.039 11.991-35.773c2.947-8.815 9.212-15.619 16.922-19.474 5.585-2.778 11.934-4.025 18.341-3.374l14.91-44.532h-157.607l-16.499 49.267c5.528 3.373 9.837 8.192 12.644 13.776 3.827 7.71 4.734 16.895 1.786 25.71l-4.82 14.4zm61.455-53.886c5.499 3.373 9.838 8.192 12.615 13.776 3.855 7.71 4.762 16.895 1.814 25.71l-4.819 14.4h8.362c25.966 0 49.861-13.182 68.117-31.436 21.544-21.543 35.122-49.776 35.122-71.773 0-33.25-5.897-44.476-16.072-56.892-6.577 14.911-16.839 27.837-29.681 37.588-10.034 7.625-21.6 13.295-34.157 16.47-8.362 2.098-16.214 2.891-24.831 2.891zm5.726-64.291 8.987-26.815h-9.497c-3.146 0-6.293-.681-9.185-1.984v28.8h9.695zm-173.369 0 8.958-26.815h-9.497c-3.146 0-6.265-.681-9.184-1.984v28.8h9.723z"/></g></svg>