<svg id="Capa_1" enable-background="new 0 0 512 512" height="512" viewBox="0 0 512 512" width="512" xmlns="http://www.w3.org/2000/svg"><g><g clip-rule="evenodd" fill-rule="evenodd"><path d="m233.294 16.898h186.125c17.036 0 31.012 14.003 31.012 31.124v31.72l40.025 23.216c8.533 4.933 8.873 11.14 0 16.271l-40.025 23.215v31.72c0 17.122-13.976 31.153-31.012 31.153h-186.125c-17.036 0-31.011-14.032-31.011-31.153v-126.142c0-17.121 13.975-31.124 31.011-31.124z" fill="#e1f1ff"/><path d="m273.206 252.542h142.443c48.869 0 88.867 39.969 88.867 88.838 0 48.87-39.998 88.866-88.867 88.866v49.493c0 5.924-6.378 8.986-10.97 4.393l-53.888-53.887h-77.586c-48.87 0-88.838-39.997-88.838-88.866.001-48.869 39.969-88.837 88.839-88.837z" fill="#e1f1ff"/><path d="m273.206 283.156c-10.147 0-19.672 2.58-27.978 7.143l27.978 51.08-15.591 56.126c4.961 1.389 10.205 2.126 15.591 2.126 32.175 0 58.253-26.079 58.253-58.252 0-32.144-26.078-58.223-58.253-58.223z" fill="#b3e59f"/><path d="m273.206 341.379-57.884 6.435c2.636 23.896 19.701 43.427 42.293 49.691z" fill="#ff6978"/><path d="m215.322 347.814 57.884-6.435-27.978-51.08c-18.029 9.893-30.247 29.055-30.247 51.08.001 2.183.115 4.337.341 6.435z" fill="#8abfff"/><path d="m39.431 130.255h265.496c17.547 0 31.918 14.372 31.918 31.946v118.149c0 17.575-14.371 31.947-31.918 31.947h-208.803l-45.412 45.382c-4.479 4.507-11.282 1.587-11.282-4.762v-40.62c-17.546 0-31.918-14.372-31.918-31.947v-118.148c0-17.575 14.372-31.947 31.919-31.947z" fill="#ecf4ff"/><path d="m311.815 131.02c14.286 3.175 25.029 15.987 25.029 31.181v118.149c0 17.575-14.371 31.947-31.918 31.947h-208.802l-45.412 45.382c-4.479 4.507-11.282 1.587-11.282-4.762v-40.62c-15.194 0-27.979-10.772-31.182-25.03 2.239.482 4.564.737 6.917.737h265.497c17.547 0 31.919-14.372 31.919-31.918v-118.177c0-2.353-.256-4.678-.766-6.889z" fill="#ddeafb"/><g fill="#ff6978"><path d="m60.293 229.411h43.569c4.309.624 7.71 4.025 8.306 8.333v37.021h-60.208v-37.021c.595-4.308 4.025-7.709 8.333-8.333z"/><path d="m150.38 166.992h43.598c4.309.595 7.711 3.997 8.305 8.306v99.467h-60.208v-99.467c.594-4.309 3.996-7.711 8.305-8.306z"/><path d="m240.495 184.085h43.569c4.309.595 7.71 3.997 8.333 8.306v82.375h-60.237v-82.375c.624-4.309 4.026-7.711 8.335-8.306z"/></g><path d="m336.845 181.761v23.556h82.574c17.036 0 31.012-14.032 31.012-31.153v-31.72l40.025-23.215c8.873-5.131 8.533-11.338 0-16.271l-40.025-23.216v-31.72c0-15.023-10.743-27.638-24.917-30.529.426 2.041.652 4.11.652 6.265v126.142c0 17.121-13.975 31.124-31.012 31.124h-32.968c-.822.482-1.785.737-2.834.737z" fill="#cbe2ff"/><path d="m199.505 390.844c15.988 23.726 43.116 39.401 73.701 39.401h77.586l53.888 53.887c4.592 4.592 10.97 1.531 10.97-4.393v-49.493c48.869 0 88.867-39.997 88.867-88.866 0-30.586-15.676-57.713-39.403-73.701 9.554 14.145 15.139 31.181 15.139 49.436 0 48.87-39.998 88.866-88.867 88.866h-142.444c-18.256 0-35.292-5.584-49.437-15.137z" fill="#cbe2ff"/></g><path d="m194.799 122.744v-74.722c0-10.602 4.309-20.268 11.311-27.269 6.973-7.001 16.611-11.367 27.184-11.367h76.084c4.138 0 7.483 3.374 7.483 7.512s-3.345 7.483-7.483 7.483h-76.084c-6.463 0-12.331 2.664-16.583 6.917-4.28 4.28-6.916 10.205-6.916 16.724v74.722h189.555c4.139 0 7.484 3.373 7.484 7.512s-3.346 7.512-7.484 7.512h-63.525c5.273 6.633 8.447 15.023 8.532 24.094h14.996c4.139 0 7.512 3.374 7.512 7.512s-3.373 7.512-7.512 7.512h-14.996v20.919h75.062c6.464 0 12.331-2.636 16.583-6.917 4.28-4.28 6.916-10.205 6.916-16.725v-31.72c0-2.579 1.361-5.102 3.771-6.491l42.89-24.859-42.435-24.605c-2.495-1.219-4.225-3.77-4.225-6.747v-31.72c0-6.52-2.636-12.444-6.916-16.724-4.252-4.252-10.119-6.917-16.583-6.917h-76.082c-4.139 0-7.484-3.345-7.484-7.483 0-4.139 3.346-7.512 7.484-7.512h76.082c10.573 0 20.212 4.366 27.213 11.367 6.974 7.002 11.282 16.667 11.282 27.269v27.439l50.344 29.168c3.572 2.069 4.791 6.633 2.722 10.205-.681 1.219-1.673 2.154-2.778 2.778l-50.287 29.14v27.411c0 10.602-4.309 20.268-11.282 27.27-7.001 7.03-16.64 11.367-27.213 11.367h-75.062v32.23h71.293c12.501 0 24.491 2.438 35.518 6.86 11.396 4.536 21.743 11.253 30.587 19.588 2.977 2.835 3.118 7.568.284 10.545-2.835 3.005-7.569 3.118-10.546.284-7.428-7.001-16.186-12.671-25.881-16.554-9.241-3.686-19.36-5.726-29.962-5.726h-71.293v20.324c0 11.367-4.903 22.082-13.436 29.594 5.272 9.666 8.022 20.296 8.022 31.436 0 18.17-7.342 34.583-19.247 46.488-11.905 11.906-28.318 19.247-46.489 19.247-17.461 0-34.101-6.859-46.488-19.247-11.878-11.905-19.248-28.318-19.248-46.488 0-7.342 1.219-14.655 3.657-21.6h-16.356c-1.956 7.058-2.919 14.286-2.919 21.6 0 22.365 9.156 42.718 23.896 57.458 14.768 14.74 35.093 23.896 57.458 23.896h77.586c1.898 0 3.826.737 5.301 2.211l52.073 52.072v-46.771c0-4.139 3.345-7.512 7.483-7.512 22.365 0 42.718-9.156 57.459-23.896 14.74-14.74 23.897-35.093 23.897-57.458 0-11.707-2.523-23.244-7.427-33.874-1.729-3.77-.085-8.22 3.656-9.949 3.742-1.73 8.192-.085 9.921 3.656 5.84 12.614 8.845 26.277 8.845 40.167 0 26.504-10.829 50.599-28.29 68.06-15.79 15.789-37.021 26.163-60.549 28.006v57.657c0 4.167-3.373 7.512-7.512 7.512-2.069 0-3.969-.851-5.329-2.239l-62.647-62.646h-74.468c-26.504 0-50.599-10.828-68.06-28.289-17.462-17.462-28.29-41.556-28.29-68.06 0-7.256.851-14.542 2.495-21.6h-80.111l-54.511 54.481c-2.919 2.948-7.654 2.948-10.601 0-1.446-1.445-2.183-3.373-2.183-5.301v-49.89c-7.88-1.53-14.911-5.414-20.354-10.856-7.142-7.144-11.593-17.008-11.593-27.865v-118.148c0-10.857 4.451-20.721 11.594-27.865 7.144-7.143 16.98-11.593 27.837-11.593zm27.695 216.736 38.807-4.309-8.447-15.392h-25.597c-2.892 6.208-4.508 12.87-4.763 19.701zm47.396-19.7 9.638 17.603c1.22 1.899 1.503 4.252.795 6.378l-13.352 47.991c2.04.255 4.138.368 6.235.368 14.003 0 26.702-5.669 35.888-14.853 9.184-9.184 14.853-21.855 14.853-35.887 0-8.447-2.013-16.469-5.924-23.839-4.11 1.445-8.532 2.239-13.097 2.239zm-17.32 67.974 10.459-37.701-38.891 4.309c2.324 8.816 6.945 16.667 13.182 22.904 4.365 4.365 9.524 7.937 15.25 10.488zm-217.93-105.505c-4.139 0-7.483-3.345-7.483-7.484 0-4.138 3.345-7.512 7.483-7.512h9.808v-37.842c0-4.139 3.374-7.483 7.512-7.483h60.209c4.167 0 7.512 3.345 7.512 7.483v37.842h14.882v-29.395c0-4.139 3.373-7.512 7.512-7.512s7.484 3.373 7.484 7.512v29.395h45.241v-92.778h-45.241v29.395c0 4.167-3.345 7.512-7.484 7.512s-7.512-3.345-7.512-7.512v-36.878c0-4.139 3.373-7.512 7.512-7.512h60.208c4.139 0 7.512 3.373 7.512 7.512v100.261h14.882v-83.168c0-4.138 3.345-7.512 7.483-7.512h60.236c4.139 0 7.512 3.374 7.512 7.512v83.168h9.781c4.167 0 7.512 3.374 7.512 7.512 0 4.139-3.345 7.484-7.512 7.484-91.674 0-183.347 0-275.049 0zm250.245-90.68h-45.212v75.685h45.212zm-180.2 45.354h-45.213v30.33h45.213zm264.504 73.644c-4.167 0-7.512-3.373-7.512-7.512s3.345-7.483 7.512-7.483h71.859c4.139 0 7.483 3.345 7.483 7.483 0 4.139-3.345 7.512-7.483 7.512zm0 76.649c-4.167 0-7.512-3.374-7.512-7.512 0-4.139 3.345-7.484 7.512-7.484h51.875c4.167 0 7.512 3.345 7.512 7.484 0 4.138-3.345 7.512-7.512 7.512zm0-25.569c-4.167 0-7.512-3.345-7.512-7.484 0-4.138 3.345-7.512 7.512-7.512h71.859c4.139 0 7.483 3.374 7.483 7.512 0 4.139-3.345 7.484-7.483 7.484zm0-25.54c-4.167 0-7.512-3.345-7.512-7.483 0-4.167 3.345-7.512 7.512-7.512h71.859c4.139 0 7.483 3.345 7.483 7.512 0 4.139-3.345 7.483-7.483 7.483zm-329.758-198.34c-6.718 0-12.812 2.749-17.235 7.171-4.451 4.422-7.2 10.545-7.2 17.263v118.149c0 6.718 2.75 12.812 7.2 17.263 4.422 4.422 10.517 7.171 17.235 7.171 4.139 0 7.512 3.345 7.512 7.512v38.579l43.824-43.852c1.36-1.389 3.26-2.24 5.357-2.24h208.803c6.689 0 12.812-2.75 17.234-7.171 4.451-4.451 7.2-10.545 7.2-17.263 0-39.373 0-78.775 0-118.148 0-6.718-2.749-12.841-7.2-17.263-4.422-4.422-10.545-7.171-17.234-7.171-88.499 0-176.998 0-265.496 0zm215.974-78.265c-4.139 0-7.483-3.345-7.483-7.483 0-4.139 3.345-7.512 7.483-7.512h143.945c4.139 0 7.484 3.373 7.484 7.512s-3.346 7.483-7.484 7.483zm0 39.147c-4.139 0-7.483-3.373-7.483-7.512s3.345-7.512 7.483-7.512h143.945c4.139 0 7.484 3.373 7.484 7.512s-3.346 7.512-7.484 7.512z"/></g></svg>