<svg id="Capa_1" enable-background="new 0 0 512 512" height="512" viewBox="0 0 512 512" width="512" xmlns="http://www.w3.org/2000/svg"><g><g><path clip-rule="evenodd" d="m197.401 172.04h117.21c3.997 0 7.285 3.289 7.285 7.285v117.213c0 4.025-3.288 7.285-7.285 7.285h-117.21c-4.025 0-7.285-3.26-7.285-7.285v-117.213c0-3.996 3.26-7.285 7.285-7.285z" fill="#d8a595" fill-rule="evenodd"/><path clip-rule="evenodd" d="m83.705 153.077h31.437c10.375 0 18.765 8.39 18.765 18.765 0 16.81 8.191 32.202 21.401 43.483 14.031 11.962 33.618 19.389 55.444 19.389 10.375 0 18.766 8.391 18.766 18.765 0 10.347-8.391 18.737-18.766 18.737-30.953 0-59.187-10.857-79.766-28.432-.453-.369-.879-.766-1.304-1.134l-3.515 57.996 41.328 45.241c4.252 4.677 6.265 10.602 6.095 16.469l.539 69.194c.142 12.897-10.205 23.471-23.131 23.612-12.897.142-23.47-10.205-23.611-23.13l-.454-61.2c-5.584-6.123-73.359-71.915-72.878-79.71l6.974-115.398c.766-12.443 10.205-22.647 22.676-22.647z" fill="#a5cdff" fill-rule="evenodd"/><path d="m54.056 291.123 32.371 25.2 14.514 28.29.057 34.838c.028 6.35-2.467 12.076-6.52 16.299l-46.148 51.562c-8.589 9.638-23.328 10.517-32.994 1.956-9.638-8.589-10.517-23.357-1.928-32.995l35.744-39.94c3.939-3.316 5.499-7.795 5.074-13.266z" fill="#4982c9"/><g clip-rule="evenodd" fill-rule="evenodd"><path d="m167.496 345.889-36.198-39.629c-3.118-3.316-4.704-7.71-4.647-13.209l.822-13.691-72.425-4.394-.992 16.157c-.085 1.248 1.559 3.94 4.423 7.625l42.434 45.836.028.028 20.692 20.807c5.159 5.188 5.329 8.9 5.301 13.011l.454 53.603c.142 12.926 10.714 23.272 23.611 23.13 12.926-.142 23.273-10.715 23.131-23.612l-.539-69.194c.17-5.866-1.843-11.791-6.095-16.468z" fill="#71aaf0"/><path d="m60.348 120.591c0 21.458 17.603 39.033 39.061 39.033 21.486 0 39.061-17.575 39.061-39.033v-41.867c0-12.019-9.836-21.855-21.854-21.855h-34.385c-12.018 0-21.883 9.836-21.883 21.855z" fill="#ffcbbe"/><path d="m138.47 78.724v15.222c-10.997 4.082-20.012.737-25.312-2.268-4.11-2.353-4.818-2.353-5.301 1.417-1.445 10.97-6.378 41.244-47.451 28.857l-.057-43.229c0-12.019 9.865-21.855 21.883-21.855h34.384c12.018.001 21.854 9.837 21.854 21.856z" fill="#ffe5a0"/><path d="m114.206 92.245v28.346c0 17.235-11.339 31.975-26.929 37.105 3.826 1.247 7.908 1.928 12.132 1.928 21.486 0 39.061-17.575 39.061-39.033v-26.645c-10.318 3.826-18.878 1.134-24.264-1.701z" fill="#f7beaf"/><path d="m116.615 56.869h-24.265c12.019 0 21.855 9.836 21.855 21.855v13.521c5.386 2.835 13.946 5.527 24.264 1.701v-15.222c.001-12.019-9.835-21.855-21.854-21.855z" fill="#f2ce7e"/><path d="m106.836 219.351-3.543 58.535 24.18 1.474 2.21-36.708c-7.795-6.888-14.484-14.74-19.757-23.358-1.078-1.758-3.034-1.134-3.09.057z" fill="#8abfff"/><path d="m149.326 362.358.539 69.194c.085 8.532-4.422 16.072-11.254 20.211 3.629 2.211 7.853 3.43 12.388 3.401 12.926-.142 23.273-10.715 23.131-23.612l-.539-69.194c.17-5.868-1.843-11.792-6.095-16.469l-36.198-39.629c-.113-.142-.227-.255-.34-.369-2.891-3.288-4.364-7.54-4.308-12.841l.822-13.691-24.18-1.474-.936 15.166c-.028 5.499 1.559 9.893 4.677 13.209l36.169 39.629c4.282 4.677 6.294 10.602 6.124 16.469z" fill="#5a94db"/><path d="m290.347 172.04h24.265c3.997 0 7.285 3.289 7.285 7.285v117.213c0 4.025-3.288 7.285-7.285 7.285h-24.265c3.997 0 7.285-3.26 7.285-7.285v-117.213c0-3.996-3.288-7.285-7.285-7.285z" fill="#d09080"/><path d="m428.307 153.077h-31.465c-10.347 0-18.765 8.39-18.765 18.765 0 16.81-8.163 32.202-21.401 43.483-14.003 11.962-33.59 19.389-55.444 19.389-10.347 0-18.766 8.391-18.766 18.765 0 10.347 8.419 18.737 18.766 18.737 30.982 0 59.186-10.857 79.794-28.432.425-.369.851-.766 1.275-1.134l3.515 57.996-41.3 45.241c-4.28 4.677-6.293 10.602-6.123 16.469l-.511 69.194c-.142 12.897 10.205 23.471 23.103 23.612 12.897.142 23.47-10.205 23.612-23.13l.453-61.2c5.584-6.123 73.359-71.915 72.878-79.71l-6.974-115.398c-.765-12.443-10.204-22.647-22.647-22.647z" fill="#ebd2ff"/></g><path d="m457.929 291.123-29.14 23.556-17.716 29.934-.086 34.838c-.028 6.35 2.467 12.076 6.549 16.299l46.147 51.562c8.561 9.638 23.329 10.517 32.966 1.956 9.638-8.589 10.517-23.357 1.956-32.995l-35.773-39.94c-3.26-3.657-5.158-7.909-5.045-13.266z" fill="#a077c2"/><path clip-rule="evenodd" d="m411.073 344.613 42.462-45.864c2.834-3.685 4.478-6.378 4.393-7.625l-.964-16.157-72.424 4.394.821 13.691c.369 5.159-1.02 9.609-4.676 13.209l-36.17 39.629c-4.28 4.677-6.293 10.602-6.123 16.469l-.511 69.194c-.142 12.897 10.205 23.471 23.103 23.612 12.897.142 23.47-10.205 23.612-23.13l.396-53.603c.086-5.272 2.013-9.553 5.386-13.011z" fill="#c19ee3" fill-rule="evenodd"/><path clip-rule="evenodd" d="m451.636 120.591c0 21.458-17.574 39.033-39.06 39.033s-39.061-17.575-39.061-39.033v-41.867c0-12.019 9.836-21.855 21.854-21.855h34.412c12.018 0 21.854 9.836 21.854 21.855v41.867z" fill="#ffcbbe" fill-rule="evenodd"/><path clip-rule="evenodd" d="m451.636 120.591c0 21.458-17.574 39.033-39.06 39.033-4.224 0-8.306-.68-12.133-1.928 15.591-5.13 26.93-19.871 26.93-37.105v-41.867c0-12.019-9.836-21.855-21.855-21.855h24.265c12.018 0 21.854 9.836 21.854 21.855v41.867z" fill="#f7beaf" fill-rule="evenodd"/><path clip-rule="evenodd" d="m373.514 78.724v15.222c11.026 4.082 20.04.737 25.312-2.268 4.11-2.353 4.818-2.353 5.301 1.417 1.445 10.97 6.406 41.244 47.451 28.857l.057-43.229c0-12.019-9.837-21.855-21.854-21.855h-34.412c-12.019.001-21.855 9.837-21.855 21.856z" fill="#c68b87" fill-rule="evenodd"/><path clip-rule="evenodd" d="m427.372 78.724v41.868c0 1.219-.057 2.438-.17 3.657 6.236 1.219 14.2.766 24.377-2.296l.057-43.229c0-11.764-9.411-21.43-21.06-21.855h-25.059c12.019 0 21.855 9.836 21.855 21.855z" fill="#bd7d79" fill-rule="evenodd"/><path clip-rule="evenodd" d="m426.691 175.725 6.095 100.715 24.179-1.474-6.01-99.241c-.652-10.715-7.738-19.757-17.659-22.082-4.252 2.693-9.07 4.563-14.201 5.442 4.393 4.168 7.2 10.092 7.596 16.64z" fill="#d7bef0" fill-rule="evenodd"/><path clip-rule="evenodd" d="m360.73 378.431-.396 53.603c-.086 8.39-4.565 15.675-11.226 19.729 3.458 2.126 7.512 3.345 11.877 3.401 12.897.142 23.47-10.205 23.612-23.13l.396-53.603c.086-5.272 2.013-9.553 5.386-13.011.057-.085.142-.142.198-.199v-.028l20.466-20.58h.029l42.462-45.864c2.692-3.515 4.337-6.151 4.393-7.427v-.199l-.964-16.157-24.179 1.474.879 14.683c.085 1.248-1.56 3.94-4.393 7.625l-42.464 45.864-20.691 20.807c-3.372 3.459-5.3 7.739-5.385 13.012z" fill="#b592d1" fill-rule="evenodd"/><path clip-rule="evenodd" d="m274.928 172.04v35.887c0 3.997-3.288 7.285-7.285 7.285h-23.301c-3.997 0-7.257-3.288-7.257-7.285v-35.887z" fill="#ffdecf" fill-rule="evenodd"/></g><path d="m210.695 264.733c3.118 0 5.925-1.248 7.966-3.289s3.316-4.875 3.316-7.994c0-3.118-1.275-5.924-3.316-7.965s-4.848-3.316-7.966-3.316c-11.168 0-22.139-1.757-32.625-5.442-10.518-3.657-19.928-9.071-27.78-15.761-7.512-6.406-13.578-14.06-17.745-22.507-4.08-8.305-6.349-17.348-6.349-26.759 0-2.665-.906-5.131-2.438-7.03-.907-1.162-2.041-2.098-3.316-2.835-6.378 3.316-13.606 5.159-21.26 5.159-7.795 0-15.165-1.928-21.629-5.329-2.437 1.077-4.506 2.834-6.064 5.017-1.871 2.608-3.062 5.839-3.26 9.355l-1.531 25.2c-.227 4.138-3.798 7.285-7.908 7.058-4.139-.255-7.285-3.798-7.059-7.937l1.531-25.2c.396-6.378 2.551-12.331 6.065-17.206 1.616-2.239 3.516-4.252 5.613-5.981-7.966-8.645-12.388-19.871-12.388-31.606v-41.896c0-8.107 3.316-15.449 8.646-20.778 5.301-5.329 12.671-8.646 20.749-8.646h34.469c8.079 0 15.448 3.316 20.749 8.646 5.329 5.329 8.645 12.671 8.645 20.778v41.896c0 12.444-4.933 23.783-12.926 32.145.936.878 1.814 1.814 2.607 2.806 3.601 4.507 5.727 10.205 5.727 16.384 0 7.115 1.7 13.918 4.762 20.126 3.26 6.633 8.079 12.643 14.06 17.745 6.321 5.415 13.947 9.808 22.45 12.841v-50.485c0-4.167 3.373-7.512 7.512-7.512h47.054 37.9 47.025c4.167 0 7.512 3.345 7.512 7.512v50.485c8.532-3.033 16.129-7.427 22.478-12.841 5.98-5.102 10.772-11.112 14.031-17.745 3.062-6.208 4.762-13.011 4.762-20.126 0-5.641 1.814-10.885 4.876-15.222 1.02-1.418 2.183-2.75 3.458-3.968-7.993-8.362-12.926-19.701-12.926-32.145v-41.896c0-8.107 3.316-15.449 8.646-20.778s12.67-8.646 20.777-8.646h34.44c8.107 0 15.448 3.316 20.777 8.646s8.617 12.671 8.617 20.778v41.896c0 11.735-4.422 22.961-12.388 31.606 2.127 1.73 4.025 3.742 5.613 5.981 3.515 4.876 5.697 10.828 6.066 17.206l6.49 107.093c.426 7.2.511 13.493.482 20.721l-.113 64.998 38.579 43.115c11.281 12.614 10.233 33.052-2.155 44.079-6.378 5.669-14.456 8.192-22.336 7.739-8.221-.482-15.817-4.167-21.26-10.318l-45.948-51.336c-2.778-2.806-5.046-6.378-6.52-10.035-1.418-3.571-2.211-7.455-2.184-11.565l.029-16.696-3.346 3.345c-3.288 3.289-5.98 5.982-7.738 7.767l-.425 57.175c-.057 8.873-2.807 16.583-9.269 22.875-5.442 5.357-12.869 8.674-21.033 8.816-8.504.142-16.64-3.118-22.648-9.241-5.528-5.669-8.9-13.408-8.815-21.94l.454-59.329c0-4.139 3.372-7.455 7.511-7.455 4.139.028 7.455 3.373 7.455 7.512l-.453 59.386c-.057 4.394 1.7 8.419 4.535 11.31 3.146 3.203 7.455 4.904 11.877 4.79 4.139-.114 7.881-1.814 10.63-4.507 3.884-3.827 4.337-6.917 4.791-11.849l.453-60.633c.028-1.842.681-3.628 1.956-5.017 1.105-1.219 4.848-4.989 10.09-10.233 21.062-21.061 40.649-42.69 60.916-64.573l-.482-8.22-57.599 3.486.85 13.862c.113 2.012-.567 3.968-1.928 5.471l-37.104 40.677c-2.807 3.062-7.54 3.26-10.602.482s-3.288-7.541-.511-10.602l34.98-38.325c-.822-13.578-1.645-27.156-2.467-40.734-8.957 6.123-18.736 11.055-28.97 14.712-5.612 2.041-11.537 3.657-17.404 4.875v27.071c0 4.138-3.345 7.512-7.512 7.512h-48.976c-4.139 0-7.512-3.374-7.512-7.512 0-4.167 3.373-7.512 7.512-7.512h41.47v-17.263c-4.309.425-8.702.624-13.152.624-7.257 0-13.833-2.948-18.596-7.71-4.761-4.734-7.709-11.31-7.709-18.595 0-7.257 2.948-13.833 7.709-18.595 4.763-4.762 11.339-7.71 18.596-7.71 4.507 0 8.9-.312 13.152-.963v-46.744h-32.003v35.688c0 4.167-3.372 7.512-7.511 7.512h-37.9c-4.167 0-7.511-3.345-7.511-7.512v-35.688h-32.031v46.744c4.252.652 8.646.963 13.181.963 7.257 0 13.833 2.948 18.596 7.71 4.761 4.762 7.709 11.338 7.709 18.595 0 7.285-2.948 13.861-7.709 18.595-4.763 4.762-11.339 7.71-18.596 7.71-4.45 0-8.844-.198-13.181-.624v17.263h41.47c4.139 0 7.512 3.345 7.512 7.512 0 4.138-3.373 7.512-7.512 7.512h-48.982c-4.139 0-7.512-3.374-7.512-7.512v-27.071c-16.554-3.458-32.371-10.035-46.374-19.587-.822 13.578-1.645 27.156-2.467 40.734l39.232 43.002c2.636 2.891 4.79 6.406 6.15 10.063 1.389 3.77 2.04 7.71 1.927 11.622l.511 69.081c.085 8.532-3.287 16.271-8.815 21.94-5.499 5.641-13.209 9.156-21.741 9.241-8.249.057-15.987-2.977-21.94-8.816-5.47-5.357-9.212-14.626-9.269-22.393l-.425-57.657c-3.656-3.742-7.37-7.427-11.055-11.112l.027 16.696c0 4.11-.765 7.994-2.211 11.565-1.502 3.742-3.685 7.115-6.435 9.95l-46.005 51.42c-5.669 6.378-13.38 9.865-21.26 10.318-7.908.454-15.986-2.069-22.364-7.739-12.385-11.026-13.406-31.464-2.124-44.078l38.578-43.115-.142-66.132c-.028-5.471-.028-10.857.283-16.299l3.118-51.222c.227-4.11 3.771-7.285 7.909-7.03 4.139.255 7.285 3.798 7.058 7.909l-1.983 32.768 57.57 3.486 1.559-25.682c-5.527-5.159-10.431-10.715-14.684-16.696-5.187-7.285-9.354-15.137-12.415-23.641-1.418-3.884.595-8.192 4.478-9.581 3.884-1.417 8.192.595 9.581 4.479 2.608 7.2 6.151 13.89 10.545 20.041 8.447 11.877 19.728 21.657 32.371 28.941 17.972 10.319 38.353 15.421 59.017 15.421zm231.643-133.087c-1.956.284-3.827.482-5.641.567-10.771.539-18.963-2.324-25.114-7.285-6.095-4.904-9.921-11.679-12.217-19.134-.539-1.842-1.021-3.685-1.39-5.584-4.564 1.842-10.261 3.231-16.78 2.721v17.433c0 8.702 3.571 16.583 9.297 22.337 5.727 5.726 13.635 9.269 22.309 9.269 8.702 0 16.583-3.543 22.337-9.269 3.117-3.118 5.584-6.888 7.199-11.055zm-61.142-43.738c8.929 1.162 15.561-3.657 17.291-5.074 1.644-1.333 2.806-2.239 5.158-2.353 4.139-.17 7.626 3.004 7.824 7.143.255 4.677.907 9.439 2.211 13.776 1.502 4.791 3.799 9.043 7.285 11.849 3.43 2.75 8.277 4.337 15.052 3.997 2.522-.142 5.328-.539 8.39-1.219v-37.558c0-3.969-1.616-7.569-4.224-10.177-2.607-2.607-6.207-4.224-10.148-4.224h-34.44c-3.94 0-7.54 1.616-10.148 4.224-2.607 2.608-4.251 6.208-4.251 10.177zm-313.619 28.12c3.062.68 5.868 1.077 8.419 1.219 6.745.34 11.621-1.247 15.022-3.997 3.516-2.806 5.812-7.058 7.285-11.849 1.332-4.337 1.984-9.099 2.211-13.776.198-4.139 3.714-7.313 7.824-7.143 2.098.113 3.458.879 4.96 2.183 1.304 1.105 8.136 6.463 17.489 5.244v-9.439c0-3.969-1.616-7.569-4.223-10.177-2.608-2.607-6.208-4.224-10.148-4.224h-34.468c-3.94 0-7.54 1.616-10.147 4.224s-4.224 6.208-4.224 10.177zm63.211-13.096c-6.49.51-12.217-.879-16.752-2.721-.396 1.899-.851 3.742-1.417 5.584-2.296 7.455-6.123 14.23-12.218 19.134-6.151 4.961-14.314 7.824-25.114 7.285-1.785-.085-3.656-.283-5.612-.567 1.616 4.167 4.082 7.937 7.2 11.055 5.725 5.726 13.634 9.269 22.308 9.269 7.455 0 16.951-3.912 22.309-9.269 5.754-5.754 9.297-13.635 9.297-22.337v-17.433zm260.754 58.903c-1.474.822-2.721 1.984-3.686 3.345-1.304 1.814-2.068 4.053-2.068 6.52 0 9.411-2.267 18.454-6.349 26.759-4.139 8.447-10.205 16.101-17.745 22.507-7.823 6.689-17.263 12.104-27.751 15.761-10.516 3.685-21.486 5.442-32.626 5.442-3.118 0-5.953 1.275-7.994 3.316s-3.288 4.847-3.288 7.965 1.247 5.953 3.288 7.994 4.876 3.289 7.994 3.289c9.411 0 18.851-1.049 28.006-3.232 20.267-4.762 39.089-14.825 53.688-29.65 3.57-3.6 6.773-7.427 9.637-11.452 4.393-6.18 7.966-12.869 10.573-20.069 1.417-3.884 5.698-5.896 9.609-4.479 3.884 1.389 5.897 5.698 4.479 9.581-3.089 8.476-7.284 16.384-12.443 23.641-4.252 5.981-9.156 11.537-14.655 16.696l1.559 25.682 57.571-3.486-5.557-91.928c-.227-3.515-1.389-6.747-3.26-9.355-1.587-2.183-3.656-3.94-6.093-5.017-6.463 3.401-13.834 5.329-21.629 5.329-7.625.001-14.882-1.871-21.26-5.159zm-329.776 121.097-.511 8.22 71.034 74.807c1.191 1.332 1.928 3.09 1.928 5.017l.454 60.633c.057 4.96.906 8.022 4.818 11.849 3.033 2.977 7.313 4.621 11.509 4.507 4.28-.085 8.164-1.899 10.97-4.79 2.863-2.892 4.592-6.917 4.535-11.31l-.51-69.108c-.085-2.495-.085-4.025-.992-6.463-.737-2.04-1.758-3.628-3.203-5.215l-41.356-45.326c-1.304-1.446-2.069-3.373-1.956-5.471l.851-13.862zm205.678-103.494h-22.876v28.177h22.876zm151.339 168.35-.085 31.862c0 2.126.425 4.138 1.162 6.009 1.049 2.608 2.098 3.572 3.741 5.612l45.977 51.364c2.919 3.288 6.916 5.074 10.97 5.301 4.054.255 8.191-1.077 11.479-3.997 7.37-6.548 6.576-15.534.964-22.847l-40.478-45.27c-1.276-1.417-1.928-3.203-1.928-4.989l.142-57.373c-9.127 10.659-21.059 23.188-31.944 34.328zm-325.554 0c-10.913-11.14-22.846-23.669-31.945-34.327l.113 57.373c0 1.786-.623 3.572-1.9 4.989l-40.506 45.27c-5.612 7.314-6.406 16.299.964 22.847 3.288 2.92 7.454 4.252 11.508 3.997 4.224-.255 8.136-2.126 10.97-5.301l45.949-51.364c1.644-2.04 2.692-3.004 3.77-5.612.737-1.871 1.134-3.883 1.134-6.009z"/></g></svg>