<svg id="Capa_1" enable-background="new 0 0 512 512" height="512" viewBox="0 0 512 512" width="512" xmlns="http://www.w3.org/2000/svg"><g><g clip-rule="evenodd" fill-rule="evenodd"><path d="m76.849 170.45h358.331c14.145 0 25.711 11.565 25.711 25.71v252.369h-409.752v-252.368c0-14.145 11.564-25.711 25.71-25.711z" fill="#477b9e"/><path d="m409.696 170.45h25.483c14.145 0 25.711 11.565 25.711 25.71v252.369h-25.484c0-84.132 0-168.236 0-252.369 0-14.144-11.564-25.71-25.71-25.71z" fill="#365e7d"/><path d="m85.012 398.072h342.004c4.309-.595 7.711-3.997 8.334-8.305v-185.443c-.623-4.309-4.025-7.738-8.334-8.333h-342.004c-4.309.595-7.738 4.025-8.333 8.333v185.415c.594 4.308 4.024 7.738 8.333 8.333z" fill="#d6e8ff"/><path d="m85.012 398.072h342.004c4.309-.595 7.711-3.997 8.334-8.305v-185.443c-.623-4.309-4.025-7.738-8.334-8.333h-15.93l-.029 169.512c-.595 4.28-3.996 7.682-8.305 8.305h-326.073v15.931c.594 4.308 4.024 7.738 8.333 8.333z" fill="#c4dfff"/><path d="m154.264 301.978h54.255c17.718 5.329 29.736 15.704 29.736 27.609v29.849c-.595 4.309-4.024 7.738-8.334 8.333h-97.059c-4.31-.595-7.74-4.025-8.335-8.333v-29.849c0-11.905 12.02-22.28 29.737-27.609z" fill="#a5cdff"/><path d="m11.424 423.612h194.033c2.892.057 5.414 1.503 7.653 3.969l9.186 13.096c1.871 2.466 4.45 3.742 7.653 3.968h52.102c3.09.028 5.641-1.304 7.653-3.968l9.212-13.096c1.985-2.353 4.481-3.742 7.627-3.969h194.033c1.417.142 3.94.907 3.94 4.876v9.694c0 3.544-1.446 7.597-3.912 10.148-8.957 9.241-17.915 18.482-26.872 27.751-1.531 1.417-5.473 4.394-11.68 4.394-137.368 0-274.737 0-412.076 0-5.982 0-9.497-2.154-13.381-6.151-8.391-8.674-16.781-17.319-25.2-25.994-3.742-3.855-3.884-9.326-3.884-10.006 0-3.288 0-6.576 0-9.836.001-3.968 2.524-4.734 3.913-4.876z" fill="#365e7d"/><path d="m480.252 428.488v9.694c0 3.544-1.446 7.597-3.912 10.148l-3.6 3.713c-2.893 2.977-6.691 4.167-11.085 4.167h-442.606l17.547 18.113c3.884 3.997 7.399 6.151 13.381 6.151h412.076c6.207 0 10.148-2.977 11.68-4.394l26.872-27.751c2.466-2.551 3.912-6.604 3.912-10.148v-9.694c0-3.969-2.523-4.734-3.94-4.876h-24.265c1.417.143 3.94.909 3.94 4.877z" fill="#294b64"/><path d="m135.271 31.524h241.485c14.146 0 25.711 11.565 25.711 25.71v113.046c0 14.145-11.565 25.71-25.711 25.71h-23.386l-50.797 50.797c-3.516 3.572-10.291 2.154-10.291-4.252v-46.544h-157.011c-14.146 0-25.711-11.565-25.711-25.71v-113.047c.001-14.144 11.566-25.71 25.711-25.71z" fill="#ecf4ff"/><path d="m216.485 281.115c0 19.275-15.79 35.064-35.094 35.064-19.305 0-35.094-15.789-35.094-35.064v-37.616c0-10.8 8.845-19.644 19.645-19.644h30.897c10.8 0 19.646 8.844 19.646 19.644z" fill="#ffcbbe"/><path d="m146.298 243.499v13.663c9.894 3.685 18.171.596 22.904-2.098 3.713-2.126 4.309-2.522 7.966.681 16.837 14.74 39.317 6.548 39.317 6.548v-18.794c0-10.8-8.846-19.644-19.646-19.644h-30.897c-10.799 0-19.644 8.844-19.644 19.644z" fill="#c68b87"/><path d="m192.22 281.115c0 15.023-9.609 27.921-22.961 32.91 3.77 1.389 7.881 2.154 12.133 2.154 19.304 0 35.094-15.789 35.094-35.064v-18.822s-11.538 4.224-24.266 1.162z" fill="#f7beaf"/><path d="m192.22 243.499v19.956c12.728 3.061 24.266-1.162 24.266-1.162v-18.794c0-10.8-8.846-19.644-19.646-19.644h-24.265c10.801 0 19.645 8.844 19.645 19.644z" fill="#bd7d79"/><path d="m213.99 329.587v29.679.17c-.596 4.309-4.026 7.738-8.335 8.333h24.266c4.31-.595 7.739-4.025 8.334-8.333v-.17-29.679c0-11.735-11.65-21.968-28.886-27.354-2.239 2.948-4.933 5.527-7.966 7.653 7.881 5.386 12.587 12.246 12.587 19.701z" fill="#8abfff"/><path d="m109.589 171.698c.737 13.493 11.99 24.293 25.683 24.293h157.012v46.544c0 6.407 6.775 7.824 10.291 4.252l50.797-50.797h23.386c14.089 0 25.626-11.48 25.711-25.541 0-.057 0-.113 0-.17v-113.045c0-13.691-10.828-24.944-24.322-25.682.028.454.057.936.057 1.389v113.074c0 11.367-7.455 21.062-17.716 24.435-2.523.822-5.216 1.276-7.994 1.276h-241.488c-.482 0-.964-.028-1.417-.028z" fill="#ddeafb"/></g><path d="m409.951 162.854 25.257.113c9.156.057 17.462 3.771 23.442 9.78 6.01 6.009 9.723 14.287 9.723 23.414v219.968h36.144c4.139 0 7.483 3.345 7.483 7.483v20.693c0 2.211-.964 4.224-2.495 5.584l-34.695 35.802c-1.418 1.474-3.316 2.296-5.358 2.296h-426.904c-2.296 0-4.365-1.049-5.754-2.693l-34.64-35.773c-1.36-1.417-2.154-3.259-2.154-5.215v-20.693c0-4.138 3.374-7.483 7.512-7.483h36.115v-89.263c0-4.139 3.373-7.483 7.512-7.483s7.483 3.345 7.483 7.483v89.263h151.683c2.722 0 5.075 1.417 6.407 3.572l12.274 17.461h54.057l12.528-17.858c1.475-2.069 3.771-3.175 6.124-3.175h151.684v-219.969c0-4.989-2.041-9.524-5.33-12.812-3.345-3.345-7.908-5.415-12.897-5.443l-26.05-.113c-.907 3.855-2.467 7.483-4.593 10.686h30.841c4.11 0 7.455 3.374 7.455 7.512v201.43c0 4.394-3.061 8.164-7.455 8.164h-358.671c-4.139 0-7.512-3.373-7.512-7.512v-202.082c0-4.139 3.373-7.512 7.512-7.512h30.841c-2.126-3.203-3.714-6.831-4.592-10.686l-26.051.113c-5.018.028-9.581 2.098-12.897 5.443-3.317 3.288-5.357 7.824-5.357 12.812v96.747c0 4.139-3.345 7.483-7.483 7.483-4.139 0-7.512-3.345-7.512-7.483v-96.747c0-9.156 3.741-17.433 9.723-23.414 6.009-6.009 14.314-9.723 23.471-9.78l25.229-.113v-105.62c0-9.156 3.741-17.461 9.751-23.471 6.009-6.009 14.315-9.751 23.472-9.751h241.485c9.128 0 17.435 3.742 23.443 9.751 6.038 6.01 9.751 14.315 9.751 23.471v39.543c0 4.139-3.345 7.484-7.483 7.484s-7.512-3.345-7.512-7.484v-39.543c0-5.017-2.041-9.553-5.357-12.869-3.288-3.288-7.853-5.357-12.842-5.357h-241.488c-5.018 0-9.554 2.069-12.87 5.357-3.288 3.316-5.357 7.852-5.357 12.869v113.046c0 5.018 2.069 9.553 5.357 12.869 3.316 3.288 7.853 5.329 12.87 5.329h157.012c4.139 0 7.512 3.374 7.512 7.512v43.001l48.247-48.274c1.36-1.361 3.26-2.24 5.329-2.24h23.386c4.989 0 9.554-2.041 12.842-5.329 3.316-3.316 5.357-7.852 5.357-12.869v-39.543c0-4.139 3.374-7.484 7.512-7.484 4.139 0 7.483 3.345 7.483 7.484zm-200.978 108.708c-9.468 1.162-24.066.623-36.369-9.893-4.393 2.438-10.941 4.989-18.794 4.621v14.825c0 7.568 3.09 14.457 8.107 19.474 4.989 4.989 11.905 8.107 19.475 8.107 7.568 0 14.484-3.118 19.474-8.107 5.018-5.017 8.107-11.905 8.107-19.474zm-55.163-20.268c5.387.539 10.716-1.389 14.77-4.904 3.146-2.693 7.852-2.352 10.544.765 9.581 10.998 22.763 10.573 29.85 9.326v-12.983c0-3.316-1.361-6.35-3.572-8.56-2.211-2.211-5.244-3.571-8.561-3.571h-30.897c-3.316 0-6.35 1.36-8.561 3.571s-3.572 5.244-3.572 8.56v7.796zm70.159 29.821c0 6.123-1.305 11.99-3.657 17.263 6.236 2.807 11.594 6.293 15.704 10.29 6.208 6.009 9.751 13.124 9.751 20.919v30.898c0 4.138-3.373 7.512-7.512 7.512h-113.728c-4.139 0-7.512-3.374-7.512-7.512v-30.898c0-7.71 3.486-14.769 9.553-20.721 4.168-4.082 9.582-7.625 15.903-10.488-2.353-5.272-3.657-11.14-3.657-17.263v-37.616c0-7.455 3.033-14.258 7.966-19.162 4.904-4.932 11.679-7.965 19.162-7.965h30.897c7.483 0 14.259 3.033 19.163 7.965 4.933 4.904 7.966 11.707 7.966 19.162v37.616zm-12.304 29.877c-8.021 8.107-18.822 12.699-30.273 12.699-11.452 0-22.252-4.592-30.303-12.728-5.811 2.324-10.63 5.244-14.031 8.561-3.203 3.146-5.046 6.604-5.046 10.063v23.414h98.76v-23.414c0-3.515-1.899-7.001-5.188-10.176-3.373-3.288-8.135-6.151-13.919-8.419zm-50.599-152.192c-4.138 0-7.512-3.345-7.512-7.483 0-4.167 3.374-7.512 7.512-7.512h150.947c4.139 0 7.483 3.345 7.483 7.512 0 4.139-3.345 7.483-7.483 7.483zm0-75.09c-4.138 0-7.512-3.373-7.512-7.512s3.374-7.483 7.512-7.483h189.896c4.139 0 7.483 3.345 7.483 7.483 0 4.139-3.345 7.512-7.483 7.512zm0 37.531c-4.138 0-7.512-3.345-7.512-7.483 0-4.139 3.374-7.512 7.512-7.512h189.896c4.139 0 7.483 3.374 7.483 7.512s-3.345 7.483-7.483 7.483zm216.91 154.346c-2.92 2.948-7.653 2.948-10.602 0-2.92-2.919-2.92-7.654 0-10.602l18.653-18.652c1.417-1.417 3.345-2.239 5.357-2.239s3.94.822 5.329 2.239l18.681 18.652c2.919 2.948 2.919 7.682 0 10.602-2.948 2.948-7.683 2.948-10.631 0l-5.896-5.896v90.794c0 4.138-3.345 7.512-7.483 7.512-4.139 0-7.512-3.374-7.512-7.512v-90.794zm-43.994-3.203c1.417-1.446 3.345-2.239 5.357-2.239 2.013 0 3.911.794 5.329 2.211l18.651 18.68c2.948 2.92 2.948 7.654 0 10.602-2.919 2.92-7.653 2.92-10.602 0l-5.896-5.896v64.744c0 4.138-3.345 7.512-7.483 7.512-4.139 0-7.512-3.374-7.512-7.512v-64.744l-5.896 5.896c-2.92 2.92-7.682 2.92-10.602 0-2.92-2.948-2.92-7.682 0-10.602zm-60.095 52.951c-2.92 2.92-7.682 2.92-10.602 0-2.92-2.948-2.92-7.682 0-10.602l18.652-18.652c1.417-1.446 3.345-2.239 5.357-2.239s3.911.793 5.329 2.211l18.652 18.68c2.948 2.919 2.948 7.654 0 10.602-2.92 2.92-7.682 2.92-10.603 0l-5.896-5.896v41.046c0 4.138-3.345 7.512-7.483 7.512-4.167 0-7.512-3.374-7.512-7.512v-41.045zm102.87-121.833h-20.268l-58.905 58.876c-2.92 2.948-7.682 2.948-10.602 0-1.474-1.445-2.211-3.373-2.211-5.301v-53.575h-149.5-51.109v187.058h343.704v-187.058zm-170.336 227.623h-191.426v10.176l30.7 31.691h420.609l30.7-31.691v-10.176h-191.425l-12.275 17.461c-1.304 2.126-3.685 3.571-6.378 3.571h-61.823c-2.352 0-4.678-1.134-6.123-3.203z"/></g></svg>