<svg id="Capa_1" enable-background="new 0 0 512 512" height="512" viewBox="0 0 512 512" width="512" xmlns="http://www.w3.org/2000/svg"><g><g clip-rule="evenodd" fill-rule="evenodd"><path d="m288.797 354.986h-146.099c-12.217 0-23.272-5.754-31.748-14.145-8.221-8.135-16.81-13.011-27.327-13.011h-62.618c-6.86-1.219-12.274-6.661-13.493-13.521v-100.63c1.219-6.89 6.633-12.304 13.493-13.522h61.06c8.872 0 19.389-2.579 26.589-14.882 10.006-17.064 28.885-28.233 50.003-28.233h130.14z" fill="#e6a291"/><path d="m157.042 354.986h-14.344c-3.43 0-6.747-.453-9.921-1.275v-190.688c7.37-3.628 15.591-5.726 24.265-5.952z" fill="#de9785"/><path d="m369.33 157.041c12.189 0 23.245 5.755 31.721 14.117 8.221 8.135 16.81 13.039 27.354 13.039h62.59c6.888 1.219 12.302 6.633 13.522 13.521v100.632c-1.22 6.86-6.634 12.303-13.522 13.522h-61.06c-8.872 0-19.36 2.551-26.589 14.853-10.006 17.064-28.857 28.261-49.976 28.261v-197.945z" fill="#ffdecf"/><path d="m157.042 280.321 104.146 39.743 93.799-88.386c0-51.337 0-21.686 0-73.021 0-21.118-11.196-39.998-28.261-50.004-12.303-7.2-14.853-17.717-14.853-26.589v-61.06c-1.219-6.86-6.661-12.274-13.522-13.493h-100.632c-6.889 1.219-12.303 6.633-13.522 13.493v62.618c0 10.517-4.904 19.105-13.039 27.326-8.362 8.476-14.117 19.531-14.117 31.749v137.624z" fill="#f0b2a3"/><path d="m176.827 260.535c10.885 0 19.787 8.901 19.787 19.786v-82.093c0-10.885 8.929-19.785 19.814-19.785s19.787 8.9 19.787 19.785v-26.391c0-10.885 8.901-19.785 19.786-19.785s19.815 8.9 19.815 19.785v13.493c0-10.885 8.9-19.786 19.785-19.786 10.887 0 19.787 8.901 19.787 19.786v46.348c0-10.885 8.9-19.787 19.786-19.787 10.885 0 19.813 8.902 19.813 19.787v137.652c0 12.189-5.754 23.245-14.145 31.721-8.135 8.221-13.011 16.81-13.011 27.354v62.59c-1.219 6.888-6.661 12.302-13.521 13.522h-100.632c-6.888-1.22-12.302-6.634-13.522-13.522v-61.06c0-8.872-2.579-19.36-14.882-26.589-17.064-10.006-28.233-28.857-28.233-49.976 0-51.363 0-21.686 0-73.05.001-10.884 8.901-19.785 19.786-19.785z" fill="#ffcbbe"/><path d="m480.252 197.436v101.112c-1.162 6.492-6.01 11.68-12.275 13.324h23.018c6.888-1.219 12.302-6.661 13.522-13.522v-100.631c-1.22-6.889-6.634-12.303-13.522-13.521h-22.734c6.151 1.7 10.857 6.831 11.991 13.238z" fill="#f2cab8"/><path d="m287.578 82.064c0 8.872 2.579 19.389 14.883 26.589 17.064 10.006 28.262 28.886 28.262 50.004v53.745c1.134-.256 2.296-.426 3.515-.482.311-.028.624-.028.936-.028 8.136 0 15.165 4.962 18.198 11.992 1.021 2.409 1.615 5.045 1.615 7.795v-73.021c0-.538-.027-1.077-.027-1.616-.567-20.466-11.594-38.637-28.233-48.388-12.303-7.2-14.853-17.717-14.853-26.589v-61.06c-1.219-6.86-6.661-12.274-13.522-13.493h-24.266c6.86 1.219 12.303 6.633 13.493 13.493v61.059z" fill="#e29f91"/><path d="m303.538 428.405v62.59c-1.219 6.888-6.634 12.302-13.494 13.522h24.266c6.86-1.22 12.303-6.634 13.521-13.522v-62.59c0-10.545 4.876-19.134 13.011-27.354 8.391-8.476 14.145-19.531 14.145-31.721v-14.371-123.28c0-2.75-.595-5.386-1.615-7.795-3.033-7.03-10.062-11.992-18.198-11.992-1.531 0-3.033.171-4.45.511-2.835.652-5.443 1.929-7.683 3.686 4.678 3.629 7.683 9.27 7.683 15.591v22.876 114.774c0 12.189-5.755 23.245-14.146 31.721-8.137 8.221-13.04 16.809-13.04 27.354z" fill="#f7beaf"/></g><path d="m164.553 354.703v.028.028.028.028.028c.255 8.589 2.58 16.725 6.548 23.727 4.28 7.598 10.46 13.947 17.943 18.341 7.625 4.45 12.274 10.034 15.052 15.959 2.749 5.84 3.543 11.735 3.543 17.064v67.069h39.345c4.167 0 7.512 3.373 7.512 7.512s-3.343 7.485-7.51 7.485h-46.829c-4.138 0-7.512-3.345-7.512-7.483v-74.581c0-3.543-.482-7.313-2.098-10.743-1.559-3.373-4.365-6.661-9.043-9.411-9.779-5.697-17.83-14.003-23.414-23.868-4.025-7.144-6.775-15.081-7.937-23.442h-7.456c-6.917 0-13.521-1.56-19.672-4.281-6.491-2.891-12.331-7.058-17.349-11.99-3.571-3.571-7.143-6.35-10.857-8.221-3.487-1.728-7.143-2.664-11.197-2.664h-76.11c-4.139 0-7.512-3.345-7.512-7.483v-46.857c0-4.139 3.374-7.512 7.512-7.512s7.483 3.373 7.483 7.512v39.346h68.627c6.463 0 12.359 1.502 17.858 4.252 5.272 2.636 10.092 6.35 14.769 10.941 3.798 3.771 8.164 6.917 12.869 9.015 4.224 1.87 8.788 2.947 13.578 2.947h6.831c0-60.775.028-121.579.028-182.355-6.038.879-11.594 2.892-16.554 5.783-7.342 4.28-13.437 10.544-17.887 18.142-4.479 7.625-10.063 12.273-15.959 15.052-5.839 2.749-11.764 3.543-17.093 3.543h-67.066v39.346c0 4.167-3.345 7.512-7.483 7.512-4.139 0-7.512-3.345-7.512-7.512v-46.829c0-4.139 3.374-7.512 7.512-7.512h74.552c3.543 0 7.313-.481 10.771-2.098 3.373-1.559 6.633-4.365 9.383-9.042 5.754-9.837 13.692-17.943 23.273-23.557 7.2-4.195 15.278-6.944 24.038-7.965v-7.285c0-6.917 1.588-13.521 4.309-19.674 2.891-6.491 7.058-12.33 11.991-17.348 3.543-3.571 6.35-7.144 8.192-10.857 1.729-3.487 2.665-7.143 2.665-11.197v-76.112c0-4.139 3.373-7.512 7.512-7.512h46.829c4.167 0 7.512 3.373 7.512 7.512s-3.345 7.483-7.512 7.483h-39.317v68.628c0 6.463-1.502 12.359-4.28 17.858-2.607 5.272-6.35 10.092-10.941 14.769-3.77 3.799-6.917 8.164-9.014 12.87-1.871 4.224-2.948 8.788-2.948 13.578v113.273c3.685-1.871 7.88-2.948 12.302-2.948s8.589 1.077 12.303 2.948v-57.743c0-7.512 3.062-14.343 7.994-19.275 4.961-4.932 11.792-8.021 19.304-8.021 4.394 0 8.589 1.077 12.274 2.947v-2.041c0-7.512 3.09-14.343 8.023-19.275 4.932-4.932 11.764-8.021 19.275-8.021 7.512 0 14.343 3.09 19.275 8.021 2.693 2.665 4.791 5.868 6.18 9.439 4.139-2.494 8.985-3.939 14.145-3.939 7.514 0 14.345 3.061 19.277 7.993 4.932 4.961 8.021 11.764 8.021 19.275v21.997c3.686-1.871 7.881-2.948 12.275-2.948 4.422 0 8.589 1.077 12.273 2.948v-50.173c-.227-8.618-2.579-16.696-6.52-23.727-4.309-7.569-10.488-13.919-17.972-18.312-7.597-4.479-12.273-10.062-15.052-15.959-2.722-5.84-3.543-11.764-3.543-17.093v-67.069h-39.346c-4.139 0-7.512-3.345-7.512-7.483s3.372-7.512 7.511-7.512h46.858c4.139 0 7.483 3.373 7.483 7.512v74.553c0 3.543.481 7.313 2.098 10.771 1.587 3.373 4.365 6.633 9.07 9.383 9.752 5.725 17.802 14.003 23.387 23.896 4.024 7.116 6.774 15.054 7.937 23.415h8.9c6.889 0 13.438 1.588 19.504 4.309 6.378 2.863 12.189 7.03 17.149 12.02 3.543 3.543 7.087 6.321 10.772 8.191 3.401 1.701 7.03 2.637 11.027 2.637h75.317c4.139 0 7.483 3.373 7.483 7.512v46.829c0 4.167-3.345 7.512-7.483 7.512s-7.512-3.345-7.512-7.512v-39.317h-67.806c-6.435 0-12.246-1.53-17.745-4.309-5.216-2.607-9.979-6.321-14.599-10.941-3.741-3.742-8.05-6.86-12.757-8.986-4.167-1.87-8.646-2.947-13.352-2.947h-8.306c0 60.804.029 121.606.029 182.383 6.236-.907 12.103-2.977 17.348-5.981 7.513-4.28 13.777-10.46 18.114-17.943 4.422-7.625 9.979-12.273 15.817-15.08 5.782-2.722 11.65-3.543 16.979-3.543h66.275v-39.346c0-4.139 3.373-7.513 7.512-7.513s7.483 3.374 7.483 7.513v46.858c0 4.139-3.345 7.483-7.483 7.483h-73.787c-3.458 0-7.172.481-10.573 2.098-3.316 1.587-6.548 4.365-9.27 9.042-5.669 9.751-13.89 17.83-23.669 23.415-7.484 4.279-15.875 7.114-24.747 8.135v7.285c0 6.889-1.56 13.521-4.281 19.645-2.891 6.491-7.058 12.358-11.99 17.348-3.571 3.571-6.35 7.172-8.221 10.885-1.728 3.459-2.664 7.144-2.664 11.197v76.111c0 4.139-3.345 7.483-7.483 7.483h-46.857c-4.139 0-7.512-3.345-7.512-7.483s3.373-7.512 7.512-7.512h39.346v-68.6c0-6.491 1.502-12.359 4.252-17.887 2.636-5.272 6.35-10.092 10.941-14.74 3.799-3.827 6.917-8.192 9.015-12.898 1.87-4.195 2.947-8.759 2.947-13.55 0-46.119-.028-92.24-.028-138.36-.17-3.09-1.502-5.895-3.6-7.965-2.211-2.239-5.301-3.6-8.674-3.6s-6.435 1.36-8.674 3.6c-2.212 2.239-3.601 5.301-3.601 8.674v64.828c0 4.139-3.373 7.513-7.512 7.513s-7.483-3.374-7.483-7.513v-64.828-46.348c0-3.345-1.389-6.435-3.628-8.674-2.24-2.211-5.302-3.6-8.676-3.6-3.373 0-6.463 1.389-8.674 3.6-2.239 2.239-3.628 5.329-3.628 8.674v111.176c0 4.139-3.345 7.513-7.483 7.513-4.167 0-7.512-3.374-7.512-7.513v-111.179-13.493c0-3.373-1.39-6.434-3.629-8.674-2.211-2.239-5.301-3.628-8.674-3.628s-6.435 1.389-8.674 3.628c-2.239 2.24-3.6 5.301-3.6 8.674v26.391 98.278c0 4.139-3.374 7.513-7.512 7.513-4.139 0-7.513-3.374-7.513-7.513v-98.278c0-3.373-1.389-6.435-3.6-8.674-2.239-2.239-5.301-3.628-8.674-3.628s-6.463 1.389-8.674 3.628c-2.239 2.239-3.628 5.301-3.628 8.674v82.093 64.291c0 4.138-3.373 7.512-7.512 7.512s-7.484-3.374-7.484-7.512v-64.291c0-3.373-1.389-6.435-3.628-8.674s-5.301-3.629-8.674-3.629-6.435 1.39-8.674 3.629-3.628 5.301-3.628 8.674v73.05c.003.452.031.878.031 1.331z"/></g></svg>