<svg id="Capa_1" enable-background="new 0 0 512 512" height="512" viewBox="0 0 512 512" width="512" xmlns="http://www.w3.org/2000/svg"><g><g><path d="m141.025 79.741-45.667-53.376c-2.579-3.061-7.342-3.146-9.978-.057l-45.411 53.065c-1.19 1.191-1.899 2.806-1.899 4.592 0 3.628 2.92 6.548 6.549 6.548h16.866v149.642c0 3.6 2.948 6.52 6.548 6.52h44.618c3.6 0 6.52-2.92 6.52-6.52v-149.642h16.896c5.469 0 8.616-6.52 4.958-10.772z" fill="#ccf49f"/><path d="m306.713 79.741-45.695-53.376c-2.58-3.061-7.314-3.146-9.95-.057l-45.44 53.064c-1.162 1.191-1.898 2.806-1.898 4.592 0 3.628 2.947 6.548 6.548 6.548h16.896v149.642c0 3.6 2.919 6.52 6.52 6.52h44.617c3.628 0 6.548-2.92 6.548-6.52v-149.641h16.896c5.468 0 8.586-6.52 4.958-10.772z" fill="#ccf49f"/><path d="m472.371 79.741-45.695-53.376c-2.551-3.061-7.314-3.146-9.949-.057l-45.44 53.064c-1.162 1.191-1.871 2.806-1.871 4.592 0 3.628 2.92 6.548 6.52 6.548h16.896v154.488c0 3.601 2.92 6.52 6.548 6.52h44.59c3.628 0 6.548-2.919 6.548-6.52v-154.487h16.896c5.468 0 8.586-6.52 4.957-10.772z" fill="#ccf49f"/><g clip-rule="evenodd" fill-rule="evenodd"><path d="m216.031 237.829h79.966c23.557 0 42.832 19.305 42.832 42.86v126.481c-1.077 6.123-5.896 10.942-12.019 12.02h-141.621c-6.123-1.077-10.941-5.897-12.019-12.02v-126.48c.001-23.584 19.276-42.861 42.861-42.861z" fill="#477b9e"/><path d="m50.345 338.658h79.966c23.585 0 42.86 19.275 42.86 42.831v94.422c-1.077 6.123-5.896 10.942-12.019 12.02h-141.621c-6.123-1.077-10.942-5.896-12.02-12.02v-94.422c.001-23.555 19.277-42.831 42.834-42.831z" fill="#a5cdff"/><path d="m216.031 338.658h79.966c23.557 0 42.832 19.275 42.832 42.831v94.422c-1.077 6.123-5.896 10.942-12.019 12.02h-141.621c-6.123-1.077-10.941-5.896-12.019-12.02v-94.422c.001-23.555 19.276-42.831 42.861-42.831z" fill="#ebd2ff"/><path d="m381.69 338.63h79.965c23.558 0 42.861 19.304 42.861 42.859v94.422c-1.077 6.123-5.925 10.942-12.019 12.02h-141.648c-6.095-1.077-10.914-5.896-12.02-12.02v-94.422c0-23.555 19.304-42.859 42.861-42.859z" fill="#ff6978"/><path d="m437.391 338.63h24.265c23.585 0 42.861 19.304 42.861 42.859v94.422c-1.077 6.123-5.925 10.942-12.019 12.02h-24.267c6.096-1.077 10.915-5.896 12.021-12.02v-94.422c0-23.555-19.306-42.859-42.861-42.859z" fill="#eb616f"/><path d="m271.732 338.658h24.265c23.557 0 42.832 19.275 42.832 42.831v94.422c-1.077 6.123-5.896 10.942-12.019 12.02h-24.265c6.123-1.077 10.941-5.896 12.019-12.02v-94.422c.001-23.555-19.276-42.831-42.832-42.831z" fill="#d7bef0"/><path d="m106.045 338.658h24.266c23.585 0 42.86 19.275 42.86 42.831v94.422c-1.077 6.123-5.896 10.942-12.019 12.02h-24.266c6.123-1.077 10.942-5.896 12.02-12.02v-94.422c0-23.555-19.275-42.831-42.861-42.831z" fill="#8abfff"/><path d="m301.44 198.967c0 24.973-20.438 45.411-45.44 45.411-24.974 0-45.412-20.438-45.412-45.411v-48.699c0-13.976 11.425-25.427 25.428-25.427h39.997c13.975 0 25.428 11.451 25.428 25.427v48.699z" fill="#ffcbbe"/><path d="m301.44 198.967c0 24.973-20.438 45.411-45.44 45.411-4.195 0-8.249-.567-12.132-1.645 19.162-5.357 33.307-22.988 33.307-43.767v-48.699c0-13.976-11.452-25.427-25.427-25.427h24.265c13.975 0 25.428 11.451 25.428 25.427v48.7z" fill="#f7beaf"/><path d="m210.588 150.268v29.877l31.04-15.222c4.195-2.041 8.249-2.24 12.501-.794l47.311 16.016v-29.877c0-13.976-11.453-25.427-25.428-25.427h-39.997c-14.002 0-25.427 11.451-25.427 25.427z" fill="#c68b87"/><path d="m277.175 171.924 24.266 8.221v-29.877c0-13.976-11.453-25.427-25.428-25.427h-24.265c13.975 0 25.427 11.451 25.427 25.427z" fill="#bd7d79"/><path d="m301.44 299.767c0 24.973-20.438 45.439-45.44 45.439-24.974 0-45.412-20.467-45.412-45.439v-48.699c0-13.975 11.425-25.427 25.428-25.427h39.997c13.975 0 25.428 11.452 25.428 25.427v48.699z" fill="#ffcbbe"/><path d="m301.44 299.767c0 24.973-20.438 45.439-45.44 45.439-4.195 0-8.249-.596-12.132-1.673 19.162-5.329 33.307-22.989 33.307-43.767v-48.699c0-13.975-11.452-25.427-25.427-25.427h24.265c13.975 0 25.428 11.452 25.428 25.427v48.7z" fill="#f7beaf"/><path d="m135.781 299.767c0 24.973-20.467 45.439-45.439 45.439-25.002 0-45.439-20.467-45.439-45.439 0-16.242 0-32.457 0-48.671 0-14.003 11.452-25.455 25.427-25.455h58.678c4.649 0 6.774 2.692 6.774 6.774-.001 22.451-.001 44.902-.001 67.352z" fill="#c68b87"/><path d="m210.588 251.068v29.877l31.04-15.222c4.195-2.041 8.249-2.239 12.501-.794l47.311 16.016v-29.877c0-13.975-11.453-25.427-25.428-25.427h-39.997c-14.002 0-25.427 11.452-25.427 25.427z" fill="#ffe5a0"/><path d="m277.175 272.724 24.266 8.221v-29.877c0-13.975-11.453-25.427-25.428-25.427h-24.265c13.975 0 25.427 11.452 25.427 25.427z" fill="#f2ce7e"/><path d="m44.902 251.096v14.655h90.879v-33.336c0-4.082-2.125-6.774-6.774-6.774h-58.678c-13.975 0-25.427 11.452-25.427 25.455z" fill="#477b9e"/><path d="m467.099 299.767c0 24.973-20.438 45.411-45.412 45.411-25.001 0-45.439-20.438-45.439-45.411v-48.699c0-13.975 11.452-25.427 25.428-25.427h39.996c14.004 0 25.428 11.452 25.428 25.427v48.699z" fill="#ffcbbe"/><path d="m467.099 299.767c0 24.973-20.438 45.411-45.412 45.411-4.223 0-8.276-.567-12.16-1.645 19.162-5.329 33.307-22.989 33.307-43.767v-48.699c0-13.975-11.451-25.427-25.426-25.427h24.264c14.004 0 25.428 11.452 25.428 25.427v48.7z" fill="#f7beaf"/><path d="m376.247 251.068v17.688c12.813 4.762 23.5.765 29.651-2.722 4.79-2.721 5.584-3.26 10.317.879 21.799 19.105 50.883 8.504 50.883 8.504v-24.35c0-13.975-11.424-25.427-25.428-25.427h-39.996c-13.975.001-25.427 11.453-25.427 25.428z" fill="#c68b87"/><path d="m442.833 278.111c13.408 1.275 24.266-2.693 24.266-2.693v-24.35c0-13.975-11.424-25.427-25.428-25.427h-24.264c13.975 0 25.426 11.452 25.426 25.427z" fill="#bd7d79"/><path d="m111.487 265.751v34.016c0 20.777-14.145 38.438-33.278 43.767 3.855 1.077 7.938 1.673 12.133 1.673 24.973 0 45.439-20.467 45.439-45.439v-34.016h-24.294z" fill="#bd7d79"/><path d="m111.487 232.415v33.336h24.294v-33.336c0-4.082-2.125-6.774-6.774-6.774h-24.266c4.65 0 6.746 2.692 6.746 6.774z" fill="#365e7d"/></g></g><path d="m111.687 218.157v-127.644c0-4.139 3.345-7.512 7.483-7.512h14.826l-43.654-50.967-43.654 50.967h14.797c4.139 0 7.512 3.373 7.512 7.512v127.673zm347.927 68.145-45.723-15.477-30.16 14.768v14.174c0 10.432 4.28 19.899 11.168 26.787 6.86 6.86 16.356 11.141 26.787 11.141 10.403 0 19.899-4.28 26.76-11.141 6.888-6.888 11.168-16.355 11.168-26.787zm-75.883-17.348 25.908-12.671c1.815-1.049 4.025-1.332 6.151-.624l43.823 14.854v-19.445c0-4.904-2.041-9.383-5.272-12.643-3.26-3.26-7.738-5.273-12.671-5.273h-39.996c-4.933 0-9.411 2.013-12.671 5.273-3.231 3.26-5.272 7.738-5.272 12.643zm-331.317-10.715h75.855v-25.087h-57.94c-4.904 0-9.383 2.013-12.643 5.273s-5.272 7.738-5.272 12.671zm75.856 15.024h-75.856v26.504c0 10.432 4.252 19.899 11.14 26.787 6.889 6.86 16.357 11.141 26.788 11.141s19.898-4.28 26.787-11.141c6.859-6.888 11.141-16.355 11.141-26.787zm165.658-89.206c-11.905 1.9-32.315 2.154-49.04-12.954-5.726 3.458-15.222 7.539-26.815 6.264v21.601c0 4.847.907 9.468 2.552 13.663 1.049 2.692 2.381 5.215 3.968 7.568 3.572-1.332 7.398-2.041 11.424-2.041h39.997c3.997 0 7.852.709 11.396 2.041 1.587-2.354 2.948-4.876 3.968-7.568 1.645-4.195 2.552-8.816 2.552-13.663v-14.911zm-75.856-21.771c8.192 1.445 16.583-1.219 22.791-6.605 3.146-2.722 7.852-2.382 10.545.765 13.946 16.017 33.448 14.372 42.52 12.445v-18.624c0-4.904-2.013-9.411-5.272-12.643-3.232-3.26-7.738-5.273-12.643-5.273h-39.997c-4.933 0-9.411 2.013-12.671 5.273-3.26 3.231-5.272 7.738-5.272 12.643v12.019zm75.856 122.571c-11.905 1.9-32.315 2.154-49.04-12.954-5.726 3.458-15.222 7.54-26.815 6.292v21.572c0 10.432 4.28 19.899 11.141 26.787 6.888 6.86 16.355 11.141 26.787 11.141s19.899-4.28 26.787-11.141c6.889-6.888 11.141-16.355 11.141-26.787v-14.91zm-75.856-21.771c8.192 1.446 16.583-1.219 22.791-6.605 3.146-2.693 7.852-2.352 10.545.766 13.946 16.044 33.448 14.371 42.52 12.473v-18.652c0-4.904-2.013-9.383-5.272-12.643-3.232-3.26-7.738-5.273-12.643-5.273h-39.997c-4.933 0-9.411 2.013-12.671 5.273s-5.272 7.738-5.272 12.643v12.018zm-164.071-40.563v-124.498h-9.383c-7.739 0-14.061-6.32-14.061-14.06 0-3.515 1.417-7.001 3.827-9.581l45.327-52.951c2.692-3.146 6.548-4.904 10.743-4.875 4.081.027 7.993 1.87 10.63 5.017l45.61 53.292c3.571 4.166 4.365 10.006 2.069 14.967s-7.2 8.191-12.699 8.191h-9.384v120.133h9.1c4.139 0 7.484 3.345 7.484 7.483v40.11 34.016c0 11.764-3.884 22.648-10.403 31.436 12.727.651 24.265 6.065 32.797 14.513v-65.026c0-13.267 5.216-25.37 13.691-34.413 7.936-8.447 18.736-14.173 30.841-15.59.623-.766 1.275-1.531 1.956-2.24-2.183-3.26-4.025-6.746-5.472-10.402-2.324-5.981-3.6-12.416-3.6-19.077v-48.699c0-9.071 3.713-17.292 9.667-23.244 2.069-2.069 4.394-3.855 6.917-5.329v-23.67h-9.384c-3.686 0-7.313-1.53-9.921-4.109-2.552-2.552-4.11-6.066-4.11-9.95 0-3.6 1.502-7.285 4.053-9.864l45.072-52.668c2.693-3.146 6.576-4.904 10.743-4.875 4.11.027 8.022 1.87 10.658 5.017l45.61 53.292c3.572 4.166 4.365 10.006 2.069 14.967-2.324 4.988-7.199 8.191-12.699 8.191h-9.384v23.698c2.523 1.445 4.848 3.231 6.889 5.301 5.982 5.952 9.667 14.173 9.667 23.244v48.699c0 6.661-1.275 13.096-3.6 19.077-1.418 3.656-3.26 7.143-5.444 10.402.682.709 1.334 1.475 1.957 2.24 12.076 1.417 22.876 7.143 30.812 15.59 8.476 9.043 13.691 21.146 13.691 34.413v65.026c8.532-8.447 20.069-13.861 32.825-14.513-6.548-8.788-10.432-19.701-10.432-31.436v-48.699c0-9.043 3.714-17.291 9.667-23.244 2.069-2.069 4.395-3.855 6.916-5.301v-124.499h-9.383c-7.71 0-14.031-6.32-14.031-14.06 0-3.515 1.417-7.001 3.827-9.581l45.298-52.951c2.722-3.146 6.577-4.904 10.744-4.875 4.337.027 7.993 1.899 10.771 5.13l45.497 53.179c3.571 4.166 4.365 10.006 2.069 14.967-2.325 4.988-7.2 8.191-12.699 8.191h-9.384v124.498c2.522 1.445 4.847 3.231 6.916 5.301 5.954 5.953 9.668 14.201 9.668 23.244v48.699c0 11.735-3.884 22.648-10.433 31.436 12.87.651 24.492 6.151 33.053 14.712 9.128 9.127 14.769 21.713 14.769 35.574v94.422c0 4.422-3.26 10.148-6.321 13.21-3.09 3.09-8.788 6.321-13.295 6.321h-53.717c-4.139 0-7.512-3.373-7.512-7.512s3.373-7.484 7.512-7.484h23.641v-91.02c0-4.139 3.345-7.484 7.455-7.484 4.14 0 7.484 3.346 7.484 7.484v91.02h14.485c2.551-.68 4.62-2.721 5.272-5.271v-93.686c0-9.694-3.968-18.539-10.374-24.945-6.435-6.434-15.252-10.402-24.975-10.402h-14.541c-7.569 4.167-16.243 6.548-25.428 6.548-9.212 0-17.886-2.381-25.455-6.548h-14.536c-9.724 0-18.54 3.969-24.975 10.402-6.406 6.406-10.375 15.223-10.375 24.945v93.686c.652 2.551 2.722 4.592 5.273 5.271h14.457v-91.02c0-4.167 3.373-7.512 7.512-7.512s7.483 3.345 7.483 7.512v91.02h23.613c4.139 0 7.512 3.346 7.512 7.484 0 4.139-3.373 7.512-7.512 7.512h-53.83c-3.884 0-9.128-2.75-12.02-5.216-3.033 2.636-8.136 5.216-12.273 5.216h-53.576c-4.139 0-7.483-3.373-7.483-7.512s3.345-7.484 7.483-7.484h23.67v-91.02c0-4.139 3.344-7.484 7.456-7.484 4.138 0 7.482 3.346 7.482 7.484v91.02h14.485c2.552-.68 4.62-2.721 5.272-5.271v-93.686c0-9.694-3.997-18.539-10.403-24.945s-15.25-10.402-24.945-10.402h-14.116c-.142 0-.283 0-.425 0-7.568 4.167-16.242 6.548-25.455 6.548s-17.858-2.381-25.427-6.548h-14.542c-9.724 0-18.567 3.996-24.974 10.402-6.406 6.406-10.375 15.251-10.375 24.945v93.686c.651 2.551 2.692 4.592 5.244 5.271h14.485v-91.02c0-4.139 3.345-7.512 7.483-7.512 4.167 0 7.513 3.373 7.513 7.512v91.02h23.612c4.139 0 7.512 3.346 7.512 7.484 0 4.139-3.373 7.512-7.512 7.512h-53.831c-3.912 0-9.156-2.75-12.019-5.216-2.948 2.551-8.136 5.216-12.133 5.216h-53.717c-4.139 0-7.484-3.373-7.484-7.512s3.346-7.484 7.484-7.484h23.642v-91.02c0-4.139 3.345-7.484 7.483-7.484 4.11 0 7.455 3.346 7.455 7.484v91.02h14.514c2.551-.68 4.592-2.721 5.244-5.271v-93.686c0-9.694-3.969-18.539-10.375-24.945s-15.251-10.402-24.974-10.402h-14.542c-7.541 4.167-16.215 6.548-25.427 6.548-9.213 0-17.887-2.381-25.427-6.548h-14.57c-9.695 0-18.54 3.996-24.946 10.402s-10.403 15.251-10.403 24.945v93.686c.681 2.551 2.722 4.592 5.272 5.271h14.457v-91.02c0-4.139 3.373-7.512 7.512-7.512 4.14 0 7.513 3.373 7.513 7.512v91.02h23.613c4.139 0 7.483 3.346 7.483 7.484 0 4.139-3.345 7.512-7.483 7.512h-53.829c-4.451 0-10.177-3.288-13.21-6.321-3.061-3.061-6.321-8.759-6.321-13.21v-94.422c0-13.861 5.67-26.447 14.797-35.547 8.561-8.588 20.183-14.088 33.024-14.739-6.549-8.788-10.403-19.673-10.403-31.436v-34.016-14.655c0-9.071 3.685-17.319 9.667-23.273 2.041-2.069 4.365-3.855 6.916-5.3zm346.341-4.337h42.69v-127.673c0-4.139 3.345-7.512 7.483-7.512h14.797l-43.626-50.967-43.654 50.967h14.798c4.139 0 7.512 3.373 7.512 7.512zm-165.687-100.828h42.689v-26.845c0-4.139 3.373-7.512 7.512-7.512h14.797l-43.653-50.967-43.626 50.967h14.798c4.139 0 7.483 3.373 7.483 7.512zm74.269 182.409c0 11.764-3.855 22.648-10.403 31.436 12.756.651 24.265 6.065 32.825 14.513v-65.026c0-9.326-3.656-17.83-9.581-24.151-3.6-3.826-8.022-6.859-13.011-8.815.113 1.105.17 2.239.17 3.345zm-95.444 31.436c-6.52-8.788-10.403-19.673-10.403-31.436v-48.699c0-1.105.057-2.239.17-3.345-4.961 1.956-9.411 4.989-12.982 8.815-5.953 6.321-9.581 14.825-9.581 24.151v65.026c8.531-8.446 20.068-13.86 32.796-14.512z"/></g></svg>