<svg id="Capa_1" enable-background="new 0 0 512 512" viewBox="0 0 512 512" xmlns="http://www.w3.org/2000/svg"><g><g><g><g><g><path d="m317.813 480.69 113.583-124.047c122.42-133.698 27.574-349.143-153.704-349.143h-27.926c-181.279 0-276.125 215.445-153.705 349.143l113.583 124.047c29.069 31.747 79.101 31.747 108.169 0z" fill="#00f2a6"/></g><g><path d="m303.54 9.005c129.218 53.222 180.739 227.465 75.271 342.65l-136.921 149.534c26.146 8.121 55.972 1.29 75.923-20.499l113.583-124.047c116.459-127.188 36.293-328.349-127.856-347.638z" fill="#05e39c"/></g></g><g><path d="m464.615 169.335h-401.772c-25.359 0-44.275 23.361-39 48.165l15.591 73.321c4.894 23.016 25.219 39.474 48.75 39.474h100.715c27.526 0 49.84-22.314 49.84-49.84v-37.512c0-8.258 6.694-14.952 14.952-14.952h20.075c8.258 0 14.952 6.694 14.952 14.952v37.512c0 27.526 22.314 49.84 49.84 49.84h100.715c23.531 0 43.856-16.458 48.75-39.474l15.591-73.321c5.275-24.804-13.641-48.165-38.999-48.165z" fill="#3e5959"/></g><g><path d="m396.129 330.295h43.144c23.531 0 43.856-16.458 48.75-39.474l15.591-73.321c5.274-24.804-13.641-48.165-39-48.165h-32.799c9.913 53.519-.184 111.265-35.686 160.96z" fill="#384949"/></g><g><path d="m62.023 122.948 9.813 24.195c1.507 3.716 4.444 6.671 8.15 8.201l23.71 9.788c4.109 1.697 4.109 7.517 0 9.214l-23.76 9.809c-3.677 1.518-6.597 4.438-8.115 8.115l-9.809 23.76c-1.697 4.109-7.517 4.109-9.214 0l-9.788-23.71c-1.53-3.706-4.485-6.643-8.201-8.15l-24.195-9.813c-4.148-1.682-4.148-7.555 0-9.237l24.144-9.792c3.746-1.519 6.717-4.49 8.236-8.236l9.792-24.144c1.682-4.148 7.555-4.148 9.237 0z" fill="#eef5f6"/></g><g><g><path d="m103.695 165.133-18.476-7.628-22.559 9.313c-3.677 1.518-6.597 4.438-8.115 8.115l-9.357 22.665 7.61 18.432c1.697 4.109 7.517 4.109 9.214 0l9.809-23.76c1.518-3.677 4.438-6.597 8.115-8.115l23.76-9.809c4.109-1.696 4.109-7.517-.001-9.213z" fill="#deecf1"/></g></g></g></g><g><path d="m501.431 179.396c-3.699-4.569-8.141-8.324-13.073-11.185-6.491-27.967-18.631-55.006-35.259-78.4-2.4-3.376-7.082-4.167-10.458-1.768-3.376 2.4-4.167 7.083-1.768 10.458 13.659 19.216 24.065 41.07 30.49 63.827-2.218-.316-4.469-.495-6.748-.495h-276.613c-4.142 0-7.5 3.358-7.5 7.5s3.358 7.5 7.5 7.5h276.613c9.813 0 18.983 4.374 25.159 12 6.175 7.627 8.546 17.506 6.505 27.105l-15.591 73.321c-4.132 19.431-21.549 33.534-41.415 33.534h-100.714c-23.346 0-42.34-18.994-42.34-42.34v-37.512c0-12.38-10.072-22.452-22.452-22.452h-20.075c-12.38 0-22.452 10.072-22.452 22.452v37.512c0 23.347-18.994 42.34-42.34 42.34h-100.716c-19.865 0-37.282-14.103-41.414-33.534l-15.591-73.319c-1.685-7.926-.37-15.973 3.592-22.832.542.614.99 1.311 1.305 2.075l9.789 23.709c1.936 4.689 6.465 7.72 11.539 7.72s9.603-3.03 11.54-7.72l9.809-23.76c.762-1.846 2.199-3.283 4.044-4.044l23.761-9.81c2.285-.944 4.172-2.506 5.511-4.444h40.933c4.142 0 7.5-3.358 7.5-7.5s-3.358-7.5-7.5-7.5h-41.546c-1.279-1.562-2.942-2.826-4.898-3.634l-23.71-9.789c-1.835-.757-3.315-2.247-4.062-4.087l-7.979-19.675c16.084-31.686 39.848-58.452 68.938-77.522 32.062-21.017 70.107-32.127 110.021-32.127h27.925c27.958 0 54.636 5.292 79.293 15.729 23.206 9.823 44.105 23.948 62.117 41.982 2.928 2.931 7.677 2.934 10.606.007 2.931-2.927 2.934-7.676.007-10.606-40-40.054-93.99-62.112-152.023-62.112h-27.925c-42.844 0-83.732 11.958-118.245 34.583-29.669 19.449-54.176 46.317-71.359 78.06-.891-.2-1.815-.306-2.758-.306-5.108 0-9.649 3.059-11.569 7.792l-9.792 24.144c-.753 1.856-2.25 3.353-4.106 4.105l-24.144 9.792c-4.734 1.919-7.792 6.46-7.792 11.569s3.059 9.649 7.792 11.569l13.361 5.419c-5.321 9.794-7.028 21.144-4.648 32.333l15.591 73.321c4.221 19.849 18.681 35.588 37.077 42.126 6.338 9.485 13.505 18.629 21.355 27.201l56.221 61.4c1.479 1.616 3.502 2.435 5.533 2.435 1.809 0 3.624-.651 5.063-1.969 3.055-2.797 3.264-7.541.466-10.596l-56.22-61.4c-4.07-4.444-7.941-9.052-11.595-13.783h98.901c31.618 0 57.34-25.723 57.34-57.34v-37.512c0-4.109 3.343-7.452 7.452-7.452h20.075c4.109 0 7.452 3.343 7.452 7.452v37.512c0 31.618 25.723 57.34 57.34 57.34h98.901c-3.654 4.731-7.525 9.339-11.594 13.783l-113.583 124.047c-12.62 13.784-29.864 21.375-48.553 21.375-18.688 0-35.932-7.591-48.553-21.375l-33.714-36.82c-2.797-3.056-7.542-3.263-10.596-.466s-3.264 7.541-.466 10.596l33.714 36.82c15.272 16.679 37.001 26.245 59.615 26.245 22.615 0 44.344-9.566 59.616-26.245l113.583-124.047c7.85-8.573 15.017-17.716 21.355-27.201 18.396-6.538 32.857-22.277 37.078-42.126l15.591-73.321c2.986-14.047-.483-28.504-9.52-39.664zm-482.251-9.656 18.396-7.46c5.591-2.268 10.099-6.776 12.368-12.368l7.46-18.396 7.481 18.447c2.249 5.543 6.71 10.032 12.238 12.314l18.077 7.463-18.127 7.484c-5.48 2.263-9.922 6.704-12.185 12.185l-7.483 18.127-7.463-18.077c-2.283-5.529-6.771-9.99-12.314-12.238z"/><path d="m254.878 426.5c35.841 0 65-27.513 65-61.331 0-4.142-3.358-7.5-7.5-7.5s-7.5 3.358-7.5 7.5c0 25.547-22.43 46.331-50 46.331-13.05 0-25.404-4.644-34.785-13.076-3.081-2.768-7.823-2.516-10.592.564-2.769 3.081-2.516 7.823.564 10.592 12.139 10.911 28.054 16.92 44.813 16.92z"/></g></g><g/><g/><g/><g/><g/><g/><g/><g/><g/><g/><g/><g/><g/><g/><g/></svg>