<svg id="Capa_1" enable-background="new 0 0 512 512" viewBox="0 0 512 512" xmlns="http://www.w3.org/2000/svg"><g><g><g><path d="m310.092 480.69 113.583-124.047c122.42-133.698 27.574-349.143-153.705-349.143h-27.926c-181.278 0-276.124 215.445-153.704 349.143l113.583 124.047c29.068 31.747 79.1 31.747 108.169 0z" fill="#fe7d43"/></g><g><path d="m295.818 9.005c129.218 53.222 180.739 227.465 75.271 342.65l-136.92 149.535c26.146 8.121 55.972 1.29 75.923-20.499l113.583-124.047c116.459-127.189 36.292-328.35-127.857-347.639z" fill="#fd6930"/></g><g><g><path d="m343.707 308h-48.032c-8.284 0-15-6.716-15-15v-43.931c0-10.294 6.31-19.536 15.897-23.284l117.362-45.882c9.837-3.846 20.462 3.408 20.462 13.97v23.438c0 50.086-40.603 90.689-90.689 90.689z" fill="#3e5959"/></g><g><path d="m434.395 193.873c0-10.562-10.625-17.816-20.462-13.97l-13.195 5.159v21.426c0 37.275-30.218 67.493-67.493 67.493h-52.571v19.019c0 8.284 6.716 15 15 15h48.032c50.086 0 90.688-40.603 90.688-90.688v-23.439z" fill="#384949"/></g><g><path d="m216.34 308h-48.032c-50.086 0-90.688-40.603-90.688-90.688v-23.438c0-10.562 10.625-17.816 20.462-13.97l117.362 45.882c9.587 3.748 15.897 12.99 15.897 23.284v43.93c-.001 8.284-6.717 15-15.001 15z" fill="#3e5959"/></g><g><g><path d="m168.308 308h48.032c8.284 0 15-6.716 15-15v-19.02h-133.81c16.616 20.735 42.139 34.02 70.778 34.02z" fill="#384949"/></g></g></g><g><g><path d="m205.507 234c0-4.986-1.406-9.643-3.84-13.6l-29.217-11.422c-10.929 3.076-18.943 13.11-18.943 25.023 0 14.359 11.641 26 26 26s26-11.642 26-26.001z" fill="#7ca1b1"/></g><g><path d="m201.667 220.4-18.632-7.284c1.262 3.055 1.972 6.396 1.972 9.907 0 14.359-11.641 26-26 26-.244 0-.485-.012-.727-.018 4.709 6.65 12.458 10.996 21.227 10.996 14.359 0 26-11.641 26-26 0-4.987-1.406-9.644-3.84-13.601z" fill="#678d98"/></g><g><path d="m306.507 234c0 14.359 11.641 26 26 26s26-11.641 26-26c0-11.912-8.014-21.946-18.943-25.023l-29.217 11.423c-2.433 3.957-3.84 8.614-3.84 13.6z" fill="#7ca1b1"/></g><g><path d="m339.564 208.977-4.619 1.806c1.952 3.647 3.062 7.812 3.062 12.239 0 14.359-11.641 26-26 26-.244 0-.485-.012-.727-.018 4.709 6.65 12.458 10.996 21.227 10.996 14.359 0 26-11.641 26-26 0-11.912-8.014-21.946-18.943-25.023z" fill="#678d98"/></g></g></g><g><path d="m448.361 94.114c-2.319-3.432-6.981-4.333-10.413-2.016-3.433 2.319-4.335 6.981-2.017 10.414 24.57 36.368 37.058 80.188 35.161 123.389-2.046 46.623-20.355 90.082-52.949 125.678l-113.583 124.046c-12.621 13.784-29.864 21.375-48.553 21.375-18.688 0-35.932-7.591-48.553-21.375l-47.293-51.65c-2.796-3.055-7.54-3.263-10.596-.466-3.055 2.797-3.264 7.541-.466 10.596l47.292 51.65c15.273 16.679 37.002 26.245 59.616 26.245 22.615 0 44.344-9.566 59.616-26.245l113.583-124.047c35.004-38.228 54.67-84.962 56.872-135.15 2.036-46.392-11.359-93.429-37.717-132.444z"/><path d="m93.872 351.578c-27.963-30.538-45.677-67.517-51.227-106.938-5.193-36.888.175-74.815 15.525-109.684 15.35-34.868 39.698-64.44 70.411-85.521 32.822-22.527 72.057-34.435 113.463-34.435h27.926c55.838 0 107.265 21.73 144.805 61.188 2.855 3 7.601 3.119 10.604.264 3.001-2.855 3.119-7.602.264-10.603-40.4-42.464-95.686-65.849-155.673-65.849h-27.926c-44.45 0-86.621 12.818-121.953 37.068-33.016 22.661-59.175 54.42-75.651 91.844s-22.233 78.165-16.65 117.818c5.975 42.435 25 82.194 55.017 114.977l42.643 46.57c1.479 1.616 3.502 2.435 5.533 2.435 1.809 0 3.624-.651 5.063-1.969 3.055-2.797 3.264-7.541.466-10.596z"/><path d="m256.007 427.318c46.745 0 87.142-28.516 98.237-69.345 1.087-3.997-1.273-8.118-5.271-9.204-3.994-1.086-8.117 1.273-9.204 5.271-9.325 34.313-43.77 58.279-83.763 58.279s-74.437-23.965-83.763-58.279c-1.085-3.997-5.208-6.359-9.204-5.271-3.997 1.086-6.357 5.207-5.271 9.204 11.098 40.83 51.495 69.345 98.239 69.345z"/><path d="m279.233 144.667c-4.143 0-7.5 3.358-7.5 7.5v32.875c0 4.326 2.188 8.283 5.851 10.584 2.035 1.278 4.333 1.925 6.642 1.925 1.847 0 3.701-.414 5.434-1.248l96.604-46.545c3.731-1.798 5.299-6.281 3.501-10.012-1.799-3.732-6.279-5.298-10.013-3.501l-93.019 44.818v-28.895c0-4.144-3.358-7.501-7.5-7.501z"/><path d="m222.356 196.302c1.732.834 3.586 1.248 5.433 1.248 2.309 0 4.607-.646 6.642-1.925 3.663-2.301 5.85-6.258 5.85-10.584v-32.875c0-4.142-3.358-7.5-7.5-7.5s-7.5 3.358-7.5 7.5v28.895l-93.019-44.818c-3.731-1.797-8.214-.23-10.012 3.501s-.23 8.214 3.501 10.012z"/><path d="m441.896 217.312v-23.438c0-7.44-3.668-14.387-9.812-18.582-6.146-4.196-13.953-5.083-20.88-2.374l-117.363 45.882c-12.555 4.908-20.666 16.79-20.666 30.269v43.931c0 12.407 10.094 22.5 22.5 22.5h48.032c54.142 0 98.189-44.047 98.189-98.188zm-90.889 16.688c0 10.201-8.299 18.5-18.5 18.5s-18.5-8.299-18.5-18.5c0-2.645.569-5.24 1.647-7.622l24.05-9.402c6.751 2.858 11.303 9.554 11.303 17.024zm-7.3 66.5h-48.032c-4.136 0-7.5-3.364-7.5-7.5v-43.931c0-7.166 4.262-13.486 10.874-16.188-.013.373-.042.745-.042 1.12 0 18.472 15.028 33.5 33.5 33.5s33.5-15.028 33.5-33.5c0-9-3.647-17.388-9.689-23.52l60.346-23.592c.902-.353 1.834-.527 2.756-.527 1.474 0 2.926.445 4.205 1.318 2.078 1.419 3.271 3.677 3.271 6.194v23.438c0 45.87-37.318 83.188-83.189 83.188z"/><path d="m216.34 300.5h-48.032c-34.395 0-65.675-21.612-77.835-53.78-1.464-3.874-5.791-5.828-9.668-4.363-3.875 1.465-5.828 5.793-4.363 9.668 6.979 18.46 19.232 34.244 35.434 45.643 16.58 11.666 36.094 17.832 56.433 17.832h48.032c12.407 0 22.5-10.093 22.5-22.5v-43.931c0-13.479-8.112-25.361-20.667-30.269l-117.362-45.882c-6.931-2.709-14.736-1.822-20.879 2.374-6.145 4.195-9.813 11.142-9.813 18.582v20.951c0 4.142 3.358 7.5 7.5 7.5s7.5-3.358 7.5-7.5v-20.951c0-2.517 1.192-4.775 3.271-6.194 2.078-1.42 4.614-1.708 6.959-.791l60.346 23.592c-6.042 6.132-9.689 14.519-9.689 23.52 0 18.472 15.028 33.5 33.5 33.5s33.5-15.028 33.5-33.5c0-.375-.03-.746-.042-1.119 6.613 2.703 10.875 9.023 10.875 16.188v43.93c0 4.136-3.364 7.5-7.5 7.5zm-36.833-48c-10.201 0-18.5-8.299-18.5-18.5 0-7.47 4.552-14.166 11.302-17.024l24.05 9.402c1.078 2.383 1.647 4.977 1.647 7.622.001 10.201-8.298 18.5-18.499 18.5z"/></g></g><g/><g/><g/><g/><g/><g/><g/><g/><g/><g/><g/><g/><g/><g/><g/></svg>