<svg id="Capa_1" enable-background="new 0 0 512 512" viewBox="0 0 512 512" xmlns="http://www.w3.org/2000/svg"><g><g><g><g><path d="m310.091 480.69 113.583-124.047c122.421-133.698 27.575-349.143-153.704-349.143h-27.926c-181.278 0-276.124 215.445-153.704 349.143l113.583 124.047c29.068 31.747 79.1 31.747 108.168 0z" fill="#00f2a6"/></g><g><path d="m295.818 9.005c129.218 53.222 180.739 227.465 75.271 342.65l-136.92 149.535c26.146 8.121 55.972 1.29 75.923-20.499l113.583-124.047c116.458-127.189 36.292-328.35-127.857-347.639z" fill="#05e39c"/></g><g><g><path d="m343.707 312.788h-48.032c-8.284 0-15-6.716-15-15v-30.408c0-50.086 40.603-90.688 90.688-90.688h48.032c8.284 0 15 6.716 15 15v30.408c0 50.086-40.602 90.688-90.688 90.688z" fill="#3e5959"/></g><g><path d="m419.395 176.692h-18.657v34.584c0 37.275-30.218 67.493-67.493 67.493h-52.571v19.02c0 8.284 6.716 15 15 15h48.032c50.086 0 90.689-40.603 90.689-90.689v-30.408c0-8.285-6.715-15-15-15z" fill="#384949"/></g><g><path d="m216.34 312.788h-48.032c-50.086 0-90.688-40.603-90.688-90.689v-30.408c0-8.284 6.716-15 15-15h48.032c50.086 0 90.688 40.603 90.688 90.688v30.408c0 8.285-6.716 15.001-15 15.001z" fill="#3e5959"/></g><g><g><path d="m168.307 312.788h48.032c8.284 0 15-6.716 15-15v-19.02h-133.809c16.616 20.735 42.139 34.02 70.777 34.02z" fill="#384949"/></g></g></g></g></g><g><path d="m204.163 424.513c4.143 0 7.5-3.358 7.5-7.5 0-24.451 19.893-44.344 44.344-44.344s44.344 19.893 44.344 44.344c0 4.142 3.357 7.5 7.5 7.5s7.5-3.358 7.5-7.5c0-32.722-26.621-59.344-59.344-59.344s-59.344 26.622-59.344 59.344c0 4.142 3.358 7.5 7.5 7.5z"/><path d="m221.811 137.303c2.929-2.929 2.929-7.678 0-10.606-2.93-2.929-7.678-2.929-10.607 0-8.375 8.375-19.511 12.988-31.355 12.988s-22.98-4.613-31.355-12.988c-2.93-2.929-7.678-2.93-10.607 0-2.929 2.929-2.929 7.678 0 10.606 11.209 11.209 26.111 17.382 41.963 17.382s30.752-6.173 41.961-17.382z"/><path d="m374.129 137.303c2.929-2.929 2.929-7.678 0-10.606-2.93-2.929-7.678-2.929-10.607 0-8.375 8.375-19.511 12.988-31.355 12.988s-22.98-4.613-31.355-12.988c-2.929-2.929-7.677-2.93-10.607 0-2.929 2.929-2.929 7.678 0 10.606 11.209 11.209 26.111 17.382 41.963 17.382s30.752-6.173 41.961-17.382z"/><path d="m441.896 222.1v-30.408c0-12.407-10.094-22.5-22.5-22.5h-48.032c-54.142 0-98.188 44.047-98.188 98.188v30.408c0 12.407 10.094 22.5 22.5 22.5h48.032c54.141 0 98.188-44.047 98.188-98.188zm-153.721 75.688v-30.408c0-45.87 37.318-83.188 83.188-83.188h48.032c4.136 0 7.5 3.364 7.5 7.5v30.408c0 45.87-37.318 83.188-83.188 83.188h-48.032c-4.136 0-7.5-3.364-7.5-7.5z"/><path d="m92.618 184.191h10.389c4.143 0 7.5-3.358 7.5-7.5s-3.357-7.5-7.5-7.5h-10.389c-12.406 0-22.5 10.093-22.5 22.5v30.409c0 54.141 44.048 98.188 98.189 98.188h48.031c12.406 0 22.5-10.093 22.5-22.5v-30.408c0-54.141-44.047-98.188-98.188-98.188h-2.645c-4.143 0-7.5 3.358-7.5 7.5s3.357 7.5 7.5 7.5h2.645c45.87 0 83.188 37.318 83.188 83.188v30.408c0 4.136-3.364 7.5-7.5 7.5h-48.031c-45.871 0-83.189-37.318-83.189-83.188v-30.408c0-4.136 3.365-7.501 7.5-7.501z"/><path d="m448.361 94.114c-2.319-3.432-6.981-4.333-10.413-2.016-3.433 2.319-4.335 6.981-2.017 10.414 24.57 36.368 37.058 80.188 35.161 123.389-2.046 46.623-20.355 90.082-52.949 125.678l-113.583 124.046c-12.621 13.784-29.864 21.375-48.553 21.375s-35.932-7.591-48.553-21.375l-47.293-51.65c-2.798-3.055-7.543-3.264-10.596-.466-3.056 2.797-3.265 7.541-.467 10.596l47.293 51.65c15.272 16.679 37.002 26.245 59.616 26.245s44.344-9.566 59.615-26.245l113.583-124.047c35.004-38.228 54.67-84.962 56.872-135.15 2.037-46.392-11.358-93.429-37.716-132.444z"/><path d="m93.871 351.578c-27.962-30.538-45.675-67.517-51.226-106.938-5.194-36.887.175-74.815 15.524-109.683 15.35-34.868 39.697-64.44 70.41-85.521 32.824-22.528 72.059-34.436 113.465-34.436h27.926c55.838 0 107.265 21.73 144.805 61.188 2.855 3 7.602 3.119 10.604.264 3.001-2.855 3.119-7.602.264-10.603-40.401-42.464-95.687-65.849-155.673-65.849h-27.926c-44.45 0-86.621 12.818-121.953 37.069-33.016 22.661-59.175 54.42-75.65 91.844-16.476 37.424-22.232 78.165-16.649 117.818 5.975 42.435 24.999 82.193 55.018 114.977l42.642 46.57c1.479 1.616 3.503 2.435 5.533 2.435 1.809 0 3.624-.651 5.062-1.969 3.056-2.797 3.265-7.541.467-10.596z"/></g></g><g/><g/><g/><g/><g/><g/><g/><g/><g/><g/><g/><g/><g/><g/><g/></svg>