<svg id="Capa_1" enable-background="new 0 0 512 512" viewBox="0 0 512 512" xmlns="http://www.w3.org/2000/svg"><g><g><g><g><g><g><path d="m310.06 480.69 113.583-124.047c122.42-133.698 27.574-349.143-153.704-349.143h-27.926c-181.279 0-276.125 215.445-153.705 349.143l113.583 124.047c29.069 31.747 79.101 31.747 108.169 0z" fill="#00f2a6"/></g><g><path d="m295.787 9.005c129.218 53.222 180.739 227.465 75.271 342.65l-136.92 149.535c26.146 8.121 55.972 1.29 75.923-20.499l113.583-124.047c116.458-127.189 36.292-328.35-127.857-347.639z" fill="#05e39c"/></g></g><g><g><path d="m255.976 397.22c15.408 0 29.61 5.149 40.984 13.82 9.831 7.495 24.016.208 24.016-12.154v-23.681c0-35.645-28.249-65.465-63.889-66.061-36.407-.608-66.111 28.723-66.111 64.991v24.75c0 12.362 14.185 19.649 24.016 12.154 11.374-8.67 25.575-13.819 40.984-13.819z" fill="#3e5959"/></g><g><path d="m304.484 331.309c-4.252 30.206-36.428 53.691-75.508 53.691-13.848 0-26.819-2.963-38-8.114v22c0 12.362 14.185 19.649 24.016 12.154 11.374-8.671 25.575-13.82 40.984-13.82s29.61 5.149 40.984 13.82c9.831 7.495 24.016.208 24.016-12.154v-23.681c0-16.718-6.215-32.155-16.492-43.896z" fill="#384949"/></g><g><path d="m256.825 355.009c-21.82-.466-39.655 17.083-39.655 38.797v15.641c10.986-7.705 24.366-12.227 38.806-12.227s27.82 4.522 38.806 12.227v-14.928c-.001-21.222-16.741-39.057-37.957-39.51z" fill="#fead8a"/></g><g><path d="m228.976 385c-3.616 0-7.167-.215-10.648-.604-.751 3.014-1.157 6.163-1.157 9.409v15.641c10.986-7.705 24.366-12.227 38.806-12.227s27.82 4.522 38.806 12.227v-14.928c0-10.767-4.314-20.656-11.331-27.852-13.81 11.303-33.107 18.334-54.476 18.334z" fill="#fd9468"/></g></g><g><g><path d="m105.976 246.204v129.734l50 54.606v-160.441c-18.982-2.666-36.368-11.222-50-23.899z" fill="#01c0fa"/></g><g><path d="m355.976 270.103v160.442l50-54.606v-129.735c-13.633 12.677-31.019 21.233-50 23.899z" fill="#01c0fa"/></g><g><path d="m405.976 375.938v-74.914c-8.786 17.687-20.352 34.723-34.918 50.631l-15.082 16.471v62.418z" fill="#08a9f1"/></g></g><g><path d="m408.65 195.057-123.306 67.314c-4.662 2.545-2.855 9.629 2.457 9.629h55.493c44.792 0 82.182-31.663 91.025-73.827.667-3.182-1.777-6.173-5.028-6.173h-8.662c-4.186 0-8.305 1.051-11.979 3.057z" fill="#3e5959"/></g><g><path d="m429.291 192h-8.662c-4.186 0-8.305 1.051-11.979 3.057l-12.924 7.056c-8.248 33.087-33.211 59.546-65.415 69.888h12.983c44.792 0 82.182-31.663 91.025-73.827.668-3.183-1.777-6.174-5.028-6.174z" fill="#384949"/></g><g><path d="m82.661 192c-3.251 0-5.696 2.991-5.028 6.173 8.842 42.164 46.232 73.827 91.024 73.827h55.493c5.312 0 7.12-7.084 2.457-9.629l-123.306-67.314c-3.673-2.006-7.792-3.057-11.978-3.057z" fill="#3e5959"/></g><g><g><path d="m226.608 262.371-40.007-21.84c-11.522 13.046-26.646 22.829-43.818 27.801 8.216 2.376 16.892 3.668 25.874 3.668h55.493c5.312 0 7.12-7.084 2.458-9.629z" fill="#384949"/></g></g></g></g></g><g><path d="m205.143 322.442c-13.973 13.741-21.667 32.1-21.667 51.694v24.75c0 8.673 4.846 16.459 12.646 20.322 7.674 3.799 16.647 2.956 23.416-2.203 10.542-8.037 23.143-12.285 36.438-12.285s25.896 4.248 36.438 12.285c3.957 3.017 8.669 4.559 13.434 4.559 3.384 0 6.795-.777 9.982-2.355 7.801-3.862 12.646-11.649 12.646-20.322v-23.68c0-39.905-31.969-72.904-71.264-73.56-.417-.007-.832-.01-1.249-.01-19.143-.001-37.148 7.36-50.82 20.805zm82.138 74.086c-9.731-4.474-20.327-6.809-31.306-6.809s-21.574 2.334-31.306 6.809v-2.723c0-8.489 3.342-16.435 9.409-22.374 5.9-5.776 13.651-8.933 21.895-8.933.229 0 .46.002.691.007 16.882.361 30.616 14.722 30.616 32.012v2.011zm26.195-21.322v23.68c0 2.974-1.608 5.545-4.303 6.879-1.133.562-3.943 1.576-6.892-.173v-11.073c0-25.386-20.319-46.474-45.296-47.008-12.569-.243-24.427 4.42-33.399 13.202-8.974 8.785-13.916 20.537-13.916 33.093v11.786c-2.947 1.748-5.759.735-6.892.173-2.694-1.333-4.303-3.905-4.303-6.879v-24.75c0-15.541 6.103-30.101 17.185-40.999 11.079-10.895 25.722-16.758 41.302-16.493 31.162.52 56.514 26.791 56.514 58.562z"/><path d="m200.524 112.747c-3.065 11.441-10.403 21.003-20.661 26.926-10.257 5.921-22.206 7.498-33.648 4.43-4.002-1.069-8.114 1.302-9.186 5.304-1.072 4.001 1.302 8.113 5.303 9.186 5.113 1.37 10.302 2.047 15.456 2.047 10.283 0 20.432-2.697 29.575-7.976 13.728-7.925 23.548-20.723 27.649-36.034 1.072-4.001-1.302-8.113-5.303-9.186-4.003-1.073-8.114 1.302-9.185 5.303z"/><path d="m365.737 144.102c-11.442 3.066-23.393 1.492-33.648-4.43-10.258-5.922-17.596-15.485-20.661-26.926-1.071-4.001-5.184-6.373-9.186-5.304-4.001 1.072-6.375 5.185-5.303 9.186 4.102 15.312 13.922 28.109 27.649 36.034 9.145 5.28 19.291 7.976 29.575 7.976 5.153 0 10.344-.678 15.456-2.047 4.001-1.072 6.375-5.185 5.303-9.186-1.071-4.001-5.184-6.372-9.185-5.303z"/><path d="m448.329 94.114c-2.319-3.432-6.981-4.333-10.413-2.016-3.433 2.319-4.335 6.981-2.017 10.414 24.57 36.368 37.058 80.188 35.161 123.389-2.046 46.623-20.355 90.082-52.948 125.678l-4.637 5.064v-105.714c14.21-13.885 24.109-31.784 28.185-51.218.782-3.733-.149-7.574-2.558-10.539-2.412-2.97-5.988-4.673-9.812-4.673h-8.662c-5.426 0-10.811 1.374-15.573 3.974l-123.305 67.315c-5.15 2.812-7.636 8.521-6.185 14.207 1.45 5.686 6.368 9.505 12.235 9.505h55.493c1.731 0 3.458-.06 5.182-.149v18.649c0 4.142 3.357 7.5 7.5 7.5s7.5-3.358 7.5-7.5v-20.575c12.452-2.559 24.349-7.461 35-14.454v110.053l-35 38.224v-78.248c0-4.142-3.357-7.5-7.5-7.5s-7.5 3.358-7.5 7.5v94.63l-43.947 47.995c-12.621 13.784-29.864 21.375-48.552 21.375s-35.932-7.591-48.553-21.375l-43.947-47.996v-148.278c1.723.089 3.45.149 5.182.149h55.493c5.867 0 10.785-3.82 12.235-9.505 1.451-5.686-1.034-11.395-6.185-14.207l-123.306-67.314c-4.763-2.6-10.147-3.974-15.572-3.974h-8.663c-3.823 0-7.399 1.703-9.812 4.673-2.408 2.964-3.34 6.806-2.557 10.54 4.075 19.432 13.974 37.332 28.184 51.217v105.711l-4.636-5.063c-15.479-16.905-27.822-35.698-36.688-55.856-1.667-3.792-6.094-5.512-9.885-3.846-3.792 1.667-5.514 6.093-3.846 9.885 9.527 21.661 22.769 41.83 39.356 59.947l113.584 124.047c15.272 16.679 37.001 26.245 59.616 26.245s44.344-9.566 59.615-26.245l113.584-124.047c35.003-38.228 54.669-84.962 56.871-135.15 2.036-46.392-11.358-93.429-37.717-132.444zm-151.233 170.386 115.147-62.86c2.564-1.4 5.464-2.14 8.386-2.14h5.697c-9.32 37.836-43.774 65-83.032 65zm-211.471-65h5.698c2.921 0 5.82.74 8.385 2.14l115.147 62.86h-46.198c-39.257 0-73.713-27.164-83.032-65zm27.851 63.471c10.651 6.993 22.548 11.896 35 14.454v133.822l-35-38.224z"/><path d="m46.3 263.765c-14.515-59.261-.188-123.943 38.322-173.024 18.286-23.305 40.741-41.733 66.744-54.775 27.739-13.912 58.237-20.966 90.647-20.966h27.926c55.838 0 107.265 21.73 144.805 61.188 2.855 3.001 7.604 3.12 10.604.264 3.001-2.855 3.119-7.603.264-10.603-40.401-42.464-95.687-65.849-155.673-65.849h-27.926c-34.767 0-67.527 7.59-97.372 22.558-27.994 14.041-52.157 33.866-71.819 58.923-41.332 52.676-56.693 122.153-41.092 185.852.839 3.424 3.904 5.718 7.279 5.718.591 0 1.19-.07 1.79-.217 4.023-.985 6.486-5.045 5.501-9.069z"/></g></g><g/><g/><g/><g/><g/><g/><g/><g/><g/><g/><g/><g/><g/><g/><g/></svg>