<svg id="Capa_1" enable-background="new 0 0 512 512" viewBox="0 0 512 512" xmlns="http://www.w3.org/2000/svg"><g><g><g><g><path d="m310.092 480.69 113.583-124.047c122.42-133.698 27.574-349.143-153.705-349.143h-27.926c-181.278 0-276.124 215.445-153.704 349.143l113.583 124.047c29.068 31.747 79.1 31.747 108.169 0z" fill="#00f2a6"/></g><g><path d="m295.818 9.005c129.218 53.222 180.739 227.465 75.271 342.65l-136.92 149.535c26.146 8.121 55.972 1.29 75.923-20.499l113.583-124.047c116.459-127.189 36.292-328.35-127.857-347.639z" fill="#05e39c"/></g><g><g><path d="m343.707 312.788h-48.032c-8.284 0-15-6.716-15-15v-30.408c0-50.086 40.603-90.688 90.688-90.688h48.032c8.284 0 15 6.716 15 15v30.408c0 50.086-40.602 90.688-90.688 90.688z" fill="#3e5959"/></g><g><path d="m419.395 176.692h-18.657v34.584c0 37.275-30.218 67.493-67.493 67.493h-52.571v19.02c0 8.284 6.716 15 15 15h48.032c50.086 0 90.689-40.603 90.689-90.689v-30.408c0-8.285-6.715-15-15-15z" fill="#384949"/></g><g><g><path d="m77.619 221.1v1c0 50.086 40.603 90.688 90.688 90.688h48.032c8.284 0 15-6.716 15-15v-30.408c0-16.908-4.632-32.731-12.689-46.28z" fill="#3e5959"/></g></g><g><g><g><path d="m129.233 221.1c-.794 2.492-1.226 5.145-1.226 7.9 0 14.359 11.641 26 26 26s26-11.641 26-26c0-2.755-.432-5.408-1.226-7.9z" fill="#7ca1b1"/></g><g><path d="m178.781 221.1h-18.873c-1.117 13.329-12.283 23.801-25.901 23.801-.193 0-.384-.01-.576-.015 4.755 6.15 12.2 10.114 20.576 10.114 14.359 0 26-11.641 26-26 0-2.755-.432-5.408-1.226-7.9z" fill="#678d98"/></g><g><path d="m333.233 221.1c-.794 2.492-1.226 5.145-1.226 7.9 0 14.359 11.641 26 26 26s26-11.641 26-26c0-2.755-.432-5.408-1.226-7.9z" fill="#7ca1b1"/></g><g><path d="m382.781 221.1h-18.873c-1.117 13.329-12.283 23.801-25.901 23.801-.193 0-.384-.01-.576-.015 4.755 6.15 12.2 10.114 20.576 10.114 14.359 0 26-11.641 26-26 0-2.755-.432-5.408-1.226-7.9z" fill="#678d98"/></g></g><g><path d="m419.395 176.692h-48.032c-33.594 0-62.919 18.267-78.591 45.408h141.623v-30.408c0-8.285-6.715-15-15-15z" fill="#9cf8d2"/></g><g><path d="m399.863 222.1h34.532v-30.408c0-8.284-6.716-15-15-15h-18.657v34.584c0 3.686-.306 7.298-.875 10.824z" fill="#6cf5c2"/></g></g><g><g><path d="m168.307 312.788h48.032c8.284 0 15-6.716 15-15v-19.02h-133.809c16.616 20.735 42.139 34.02 70.777 34.02z" fill="#384949"/></g></g></g><g><path d="m140.651 176.692h-48.032c-8.284 0-15 6.716-15 15v30.408h141.623c-15.671-27.142-44.997-45.408-78.591-45.408z" fill="#9cf8d2"/></g></g></g><g><path d="m448.361 94.114c-2.319-3.432-6.98-4.333-10.414-2.016-3.432 2.319-4.335 6.981-2.016 10.414 24.57 36.368 37.057 80.188 35.161 123.389-2.046 46.623-20.356 90.082-52.949 125.678l-113.583 124.046c-12.621 13.784-29.864 21.375-48.553 21.375s-35.932-7.591-48.553-21.375l-47.293-51.65c-2.796-3.055-7.541-3.263-10.596-.466s-3.264 7.541-.466 10.596l47.292 51.65c15.272 16.679 37.001 26.245 59.616 26.245s44.344-9.566 59.616-26.245l113.583-124.047c35.003-38.228 54.669-84.962 56.872-135.15 2.036-46.392-11.359-93.429-37.717-132.444z"/><path d="m93.871 351.578c-27.962-30.538-45.676-67.517-51.227-106.938-5.193-36.888.175-74.815 15.525-109.684 15.35-34.868 39.698-64.44 70.411-85.52 32.823-22.528 72.058-34.436 113.464-34.436h27.926c55.838 0 107.264 21.73 144.805 61.188 2.856 3.001 7.603 3.119 10.604.264s3.119-7.603.264-10.604c-40.401-42.463-95.687-65.848-155.673-65.848h-27.926c-44.45 0-86.621 12.818-121.953 37.068-33.016 22.661-59.175 54.42-75.651 91.844-16.475 37.424-22.233 78.165-16.649 117.818 5.975 42.435 24.999 82.194 55.017 114.977l42.642 46.57c1.479 1.616 3.502 2.435 5.533 2.435 1.809 0 3.624-.651 5.063-1.969 3.055-2.797 3.264-7.541.466-10.596z"/><path d="m142.363 152.65c5.113 1.37 10.301 2.047 15.456 2.047 10.283 0 20.432-2.697 29.575-7.976 13.728-7.925 23.547-20.723 27.65-36.034 1.072-4.001-1.303-8.113-5.304-9.186-3.997-1.068-8.113 1.302-9.186 5.304-3.065 11.441-10.403 21.003-20.661 26.926-10.258 5.921-22.208 7.496-33.649 4.43-3.995-1.068-8.113 1.302-9.186 5.304-1.07 4 1.304 8.113 5.305 9.185z"/><path d="m324.62 146.721c9.145 5.28 19.292 7.976 29.575 7.976 5.154 0 10.344-.678 15.456-2.047 4-1.072 6.375-5.185 5.303-9.186s-5.186-6.374-9.186-5.304c-11.442 3.066-23.391 1.493-33.649-4.43-10.258-5.922-17.595-15.485-20.661-26.926-1.072-4.001-5.187-6.374-9.186-5.304-4.001 1.072-6.375 5.185-5.304 9.186 4.105 15.313 13.924 28.11 27.652 36.035z"/><path d="m441.895 222.1v-30.408c0-12.407-10.093-22.5-22.5-22.5h-48.032c-54.141 0-98.188 44.047-98.188 98.188v30.408c0 12.407 10.093 22.5 22.5 22.5h48.032c54.141 0 98.188-44.047 98.188-98.188zm-70.532-37.909h48.032c4.136 0 7.5 3.364 7.5 7.5v22.909h-119.783c15.27-18.555 38.401-30.409 64.251-30.409zm5.134 45.409c-.317 9.925-8.49 17.9-18.49 17.9s-18.173-7.976-18.49-17.9zm-88.322 68.188v-30.408c0-13.599 3.301-26.434 9.112-37.78h27.236c.322 18.196 15.214 32.9 33.485 32.9s33.163-14.705 33.485-32.9h35.049c-3.806 42.367-39.493 75.688-82.834 75.688h-48.032c-4.137 0-7.501-3.364-7.501-7.5z"/><path d="m334.815 360.121c3.958-1.219 6.179-5.417 4.959-9.375-1.219-3.958-5.417-6.181-9.375-4.959-9.682 2.982-17.849 8.895-23.747 16.51-29.487-23.66-71.803-23.66-101.29 0-5.898-7.615-14.065-13.527-23.747-16.51-3.96-1.22-8.156 1-9.375 4.959-1.22 3.959 1.001 8.156 4.959 9.375 15.519 4.78 25.405 20.471 22.997 36.498-.615 4.096 2.207 7.916 6.303 8.531.378.057.753.084 1.124.084 3.649 0 6.849-2.668 7.408-6.387 1.199-7.982.301-15.905-2.303-23.153 24.744-21.527 61.816-21.527 86.56 0-2.604 7.248-3.502 15.172-2.303 23.153.559 3.719 3.758 6.387 7.408 6.387.371 0 .746-.027 1.124-.084 4.096-.616 6.918-4.435 6.303-8.531-2.41-16.028 7.477-31.718 22.995-36.498z"/><path d="m92.619 184.191h9.388c4.142 0 7.5-3.358 7.5-7.5s-3.358-7.5-7.5-7.5h-9.388c-12.407 0-22.5 10.093-22.5 22.5v30.409c0 54.141 44.047 98.188 98.188 98.188h48.032c12.407 0 22.5-10.093 22.5-22.5v-30.408c0-54.141-44.047-98.188-98.188-98.188h-3.644c-4.142 0-7.5 3.358-7.5 7.5s3.358 7.5 7.5 7.5h3.644c25.85 0 48.981 11.854 64.251 30.408h-119.783v-22.908c0-4.136 3.364-7.501 7.5-7.501zm79.878 45.409c-.317 9.925-8.49 17.9-18.49 17.9s-18.173-7.976-18.49-17.9zm-51.975 0c.322 18.196 15.214 32.9 33.485 32.9s33.163-14.705 33.485-32.9h27.236c5.811 11.346 9.112 24.181 9.112 37.78v30.408c0 4.136-3.364 7.5-7.5 7.5h-48.032c-43.341 0-79.028-33.322-82.834-75.688z"/></g></g><g/><g/><g/><g/><g/><g/><g/><g/><g/><g/><g/><g/><g/><g/><g/></svg>