<svg id="Capa_1" enable-background="new 0 0 512 512" viewBox="0 0 512 512" xmlns="http://www.w3.org/2000/svg"><g><g><g><path d="m269.976 7.5h-27.926c-181.278 0-276.124 215.445-153.704 349.143l90.293 98.611c6.161 6.727 17.375 2.369 17.375-6.754v-87.944c0-11.406 4.731-22.369 13.235-29.97 26.385-23.584 67.145-23.584 93.531 0 8.504 7.601 13.235 18.564 13.235 29.97v87.944c0 9.123 11.214 13.481 17.375 6.754l15.8-17.256c-3.25-4.379-5.175-9.801-5.175-15.673 0-14.539 11.786-26.325 26.326-26.325 5.042 0 9.751 1.42 13.754 3.878l39.587-43.235c122.419-133.698 27.573-349.143-153.706-349.143z" fill="#00f2a6"/><path d="m295.824 9.005c129.218 53.222 180.739 227.465 75.271 342.65l-55.082 60.156v36.689c0 9.121 11.211 13.48 17.372 6.756l15.802-17.258c-3.25-4.379-5.175-9.801-5.175-15.673 0-14.539 11.786-26.325 26.326-26.325 5.042 0 9.751 1.42 13.754 3.878l39.588-43.235c116.46-127.188 36.293-328.349-127.856-347.638z" fill="#05e39c"/><path d="m181.678 362.606h15.335v-2.05c0-11.244 4.702-21.896 12.901-29.224 12.578-11.242 28.949-17.434 46.099-17.434s33.521 6.191 46.099 17.434c8.199 7.329 12.901 17.98 12.901 29.224v2.05h15.094c9.697.074 16.98-7.823 14.735-17.257-8.911-37.444-44.245-66.195-87.273-66.858-44.103-.68-81.18 27.608-90.37 65.606-2.27 9.385 4.824 18.435 14.479 18.509z" fill="#3e5959"/><path d="m288.128 321.703c5.016 2.605 9.722 5.819 13.984 9.629 8.199 7.329 12.901 17.98 12.901 29.224v2.05h15.094c9.697.074 16.98-7.823 14.735-17.257-8.911-37.444-44.245-66.195-87.273-66.858-10.962-.169-21.489 1.455-31.262 4.57 4.456.77 8.924 1.84 13.373 3.263 20.586 6.586 37.249 19.395 48.448 35.379z" fill="#384949"/><g><path d="m408.687 174.057-123.306 67.314c-4.662 2.545-2.855 9.629 2.457 9.629h55.493c44.792 0 82.182-31.663 91.025-73.827.667-3.182-1.777-6.173-5.028-6.173h-8.662c-4.186 0-8.305 1.051-11.979 3.057z" fill="#3e5959"/></g><g><path d="m429.329 171h-8.662c-4.186 0-8.305 1.051-11.979 3.057l-12.924 7.056c-8.248 33.087-33.211 59.546-65.415 69.888h12.983c44.792 0 82.182-31.663 91.025-73.827.667-3.183-1.777-6.174-5.028-6.174z" fill="#384949"/></g><g><path d="m82.698 171c-3.251 0-5.696 2.991-5.028 6.173 8.843 42.164 46.233 73.827 91.025 73.827h55.493c5.312 0 7.12-7.084 2.457-9.629l-123.305-67.314c-3.675-2.006-7.793-3.057-11.979-3.057z" fill="#3e5959"/></g><g><path d="m226.645 241.371-40.007-21.84c-11.522 13.046-26.646 22.829-43.818 27.801 8.216 2.376 16.892 3.668 25.874 3.668h55.493c5.313 0 7.121-7.084 2.458-9.629z" fill="#384949"/></g><g><g><circle cx="118.339" cy="386.326" fill="#af66da" r="26.326"/></g></g><g><path d="m121.794 360.233c2.454 4.001 3.871 8.706 3.871 13.744 0 14.539-11.786 26.326-26.326 26.326-1.172 0-2.323-.084-3.455-.233 4.629 7.546 12.953 12.582 22.455 12.582 14.539 0 26.326-11.786 26.326-26.325-.001-13.369-9.966-24.401-22.871-26.094z" fill="#9857bd"/></g><path d="m385.954 443.518c-4.369 3.225-9.768 5.133-15.615 5.133-8.667 0-16.354-4.189-21.151-10.652l-15.799 17.255c-6.161 6.728-17.375 2.37-17.375-6.753v-87.944c0-11.406-4.731-22.369-13.235-29.97-26.385-23.584-67.145-23.584-93.531 0-8.504 7.601-13.235 18.564-13.235 29.97v87.943c0 9.123-11.215 13.482-17.375 6.753l-16.077-17.559c-52.18 6.31-87.047 17.745-87.047 30.805 0 19.882 80.813 36 180.5 36s180.5-16.118 180.5-36c-.001-9.703-19.262-18.507-50.56-24.981z" fill="#af66da"/><g><g><path d="m409.192 449.452c-11.826 21.411-79.886 42.822-163.462 50.053-19.831 1.716-38.935 2.492-56.752 2.428 20.726 1.655 43.346 2.566 67.035 2.566 99.687 0 180.5-16.118 180.5-36 0-6.994-10.012-13.522-27.321-19.047z" fill="#9857bd"/></g></g><g><g><g><path d="m316.013 448.5v-87.944c0-11.543-4.879-22.589-13.53-30.232-5.471-4.833-11.554-8.648-17.988-11.471v117.4c0 10.493 8.507 19 19 19h15.115c-1.581-1.708-2.597-4.013-2.597-6.753z" fill="#9857bd"/></g></g></g><g><g><circle cx="370.339" cy="422.326" fill="#af66da" r="26.326"/></g></g><g><path d="m373.794 396.233c2.454 4.001 3.871 8.706 3.871 13.744 0 14.539-11.786 26.326-26.326 26.326-1.172 0-2.323-.084-3.455-.233 4.629 7.546 12.953 12.582 22.455 12.582 14.539 0 26.326-11.786 26.326-26.325-.001-13.369-9.966-24.401-22.871-26.094z" fill="#9857bd"/></g></g></g><g><path d="m157.825 160.639c10.283 0 20.432-2.697 29.575-7.976 13.728-7.925 23.547-20.723 27.65-36.034 1.072-4.001-1.303-8.113-5.304-9.186-3.994-1.068-8.113 1.302-9.186 5.304-3.065 11.441-10.403 21.003-20.661 26.926-10.258 5.922-22.208 7.498-33.649 4.43-3.995-1.068-8.113 1.302-9.186 5.304-1.072 4.001 1.303 8.113 5.303 9.186 5.115 1.368 10.303 2.046 15.458 2.046z"/><path d="m324.627 152.663c9.145 5.28 19.292 7.976 29.575 7.976 5.154 0 10.344-.678 15.456-2.047 4-1.072 6.375-5.185 5.303-9.186s-5.188-6.375-9.186-5.304c-11.442 3.066-23.392 1.493-33.649-4.43s-17.595-15.485-20.661-26.926c-1.072-4.001-5.186-6.372-9.186-5.304-4.001 1.072-6.375 5.185-5.304 9.186 4.104 15.312 13.924 28.109 27.652 36.035z"/><path d="m275.603 248.994c1.451 5.686 6.368 9.506 12.236 9.506h55.493c23.209 0 45.851-8.1 63.754-22.807 17.655-14.503 29.947-34.739 34.612-56.98.783-3.733-.148-7.574-2.556-10.539-2.412-2.971-5.989-4.674-9.813-4.674h-8.662c-5.425 0-10.81 1.374-15.572 3.973l-123.306 67.314c-5.152 2.813-7.637 8.522-6.186 14.207zm136.677-68.354c2.565-1.4 5.465-2.14 8.386-2.14h5.697c-9.32 37.836-43.774 65-83.032 65h-46.199z"/><path d="m91.361 163.5h-8.662c-3.824 0-7.4 1.703-9.812 4.673-2.407 2.964-3.339 6.806-2.557 10.54 4.665 22.242 16.957 42.478 34.611 56.98 17.903 14.707 40.545 22.807 63.754 22.807h55.493c5.868 0 10.785-3.82 12.236-9.506s-1.035-11.395-6.185-14.207l-123.306-67.314c-4.763-2.599-10.148-3.973-15.572-3.973zm77.334 80c-39.258 0-73.712-27.164-83.032-65h5.697c2.921 0 5.821.74 8.385 2.14l115.147 62.86z"/><path d="m40.138 163.466c.724.219 1.455.323 2.174.323 3.219 0 6.196-2.09 7.176-5.331 12.11-40.041 36.558-76.08 68.84-101.478 34.91-27.463 77.692-41.98 123.722-41.98h27.926c55.838 0 107.264 21.73 144.805 61.188 2.856 3.001 7.603 3.119 10.604.264s3.119-7.603.264-10.604c-40.401-42.463-95.686-65.848-155.673-65.848h-27.926c-49.428 0-95.417 15.627-132.997 45.193-34.678 27.282-60.931 65.965-73.923 108.923-1.199 3.965 1.044 8.152 5.008 9.35z"/><path d="m486.084 226.558c2.036-46.393-11.358-93.429-37.716-132.444-2.318-3.432-6.981-4.333-10.414-2.016-3.432 2.319-4.335 6.981-2.016 10.414 24.57 36.368 37.057 80.188 35.161 123.389-2.046 46.624-20.356 90.082-52.949 125.678l-35.824 39.123c-3.728-1.418-7.767-2.202-11.987-2.202-18.651 0-33.826 15.174-33.826 33.826 0 5.274 1.215 10.269 3.377 14.722l-12.032 13.141c-.955 1.042-2.022.924-2.75.642-.727-.283-1.594-.917-1.594-2.33v-78.395h6.538.192c7.193 0 13.74-3.048 17.986-8.382 4.021-5.051 5.446-11.652 3.909-18.111-4.759-19.998-16.666-38.251-33.527-51.4-17.358-13.536-38.427-20.874-60.927-21.221-46.468-.711-87.605 29.287-97.776 71.342-1.621 6.703-.114 13.668 4.135 19.11 4.257 5.452 10.663 8.608 17.634 8.662h6.835v78.394c0 1.414-.867 2.047-1.594 2.33-.728.282-1.795.4-2.75-.642l-39.299-42.919c4.561-5.765 7.294-13.039 7.294-20.944 0-18.651-15.174-33.826-33.825-33.826-6.84 0-13.207 2.047-18.535 5.551l-5.927-6.473c-40.786-44.543-59.067-101.403-51.475-160.105.531-4.108-2.368-7.869-6.476-8.4-4.112-.537-7.869 2.368-8.4 6.476-8.168 63.16 11.467 124.301 55.289 172.16l6.561 7.165c-3.084 5.099-4.862 11.072-4.862 17.453 0 18.651 15.174 33.825 33.826 33.825 5.321 0 10.357-1.239 14.841-3.438l14.147 15.45c-52.634 7.7-79.314 19.903-79.314 36.336 0 11.388 12.292 20.454 37.577 27.716.692.199 1.388.293 2.074.293 3.26 0 6.26-2.142 7.205-5.432 1.144-3.981-1.157-8.135-5.138-9.279-24.77-7.114-26.71-13.257-26.719-13.283.402-2.874 14.684-14.998 76.631-22.901l13.463 14.704c4.913 5.366 12.469 7.128 19.247 4.493 6.779-2.635 11.16-9.038 11.16-16.311v-87.944c0-9.396 3.912-18.281 10.732-24.378 23.421-20.934 60.114-20.934 83.535 0 6.821 6.097 10.733 14.982 10.733 24.378v87.945c0 7.273 4.38 13.676 11.16 16.311 6.778 2.634 14.334.872 19.247-4.493l10.486-11.452c5.763 4.555 13.033 7.285 20.933 7.285 6.231 0 12.068-1.7 17.087-4.651 38.629 8.383 41.577 16.931 41.588 16.984-.013.093-3.325 9.668-48.494 18.443-33.434 6.496-77.652 10.073-124.508 10.073-41.117 0-81.223-2.846-112.931-8.014-4.087-.667-7.943 2.107-8.609 6.196-.667 4.088 2.108 7.942 6.196 8.609 32.481 5.293 73.444 8.209 115.344 8.209 48.691 0 94.54-3.796 129.1-10.689 17.175-3.425 30.772-7.468 40.415-12.015 12.266-5.784 18.486-12.781 18.486-20.796 0-12.293-14.515-21.991-44.254-29.515 2.798-4.922 4.405-10.605 4.405-16.659 0-8.967-3.514-17.124-9.228-23.183l34.276-37.434c35.002-38.229 54.668-84.962 56.871-135.151zm-367.745 178.593c-10.38 0-18.826-8.445-18.826-18.825s8.445-18.826 18.826-18.826 18.825 8.445 18.825 18.826-8.445 18.825-18.825 18.825zm189.438-80.156c-14.138-12.637-32.521-19.596-51.764-19.596s-37.626 6.959-51.764 19.596c-8.659 7.74-14.113 18.498-15.422 30.111h-7.092c-2.308-.018-4.447-1.072-5.869-2.893-1.414-1.811-1.917-4.126-1.378-6.353 8.537-35.3 43.464-60.482 82.964-59.87 19.211.296 37.17 6.538 51.935 18.051 14.185 11.062 24.185 26.348 28.158 43.044.602 2.529-.239 4.276-1.051 5.296-1.394 1.751-3.75 2.739-6.387 2.724h-6.908c-1.309-11.613-6.763-22.37-15.422-30.11zm62.562 116.156c-10.38 0-18.826-8.445-18.826-18.825s8.445-18.826 18.826-18.826 18.825 8.445 18.825 18.826-8.445 18.825-18.825 18.825z"/></g></g><g/><g/><g/><g/><g/><g/><g/><g/><g/><g/><g/><g/><g/><g/><g/></svg>