<svg id="Capa_1" enable-background="new 0 0 512 512" viewBox="0 0 512 512" xmlns="http://www.w3.org/2000/svg"><g><g><g><path d="m310.092 480.69 113.583-124.047c122.42-133.698 27.574-349.143-153.705-349.143h-27.926c-181.278 0-276.124 215.445-153.704 349.143l113.583 124.047c29.068 31.747 79.1 31.747 108.169 0z" fill="#00f2a6"/></g><g><path d="m295.818 9.005c129.218 53.222 180.739 227.465 75.271 342.65l-136.92 149.535c26.146 8.121 55.972 1.29 75.923-20.499l113.583-124.047c116.459-127.189 36.292-328.35-127.857-347.639z" fill="#05e39c"/></g><g><g><path d="m280.675 229v68.788c0 8.284 6.716 15 15 15h48.032c41.031 0 75.697-27.249 86.891-64.639 2.861-9.558-4.44-19.149-14.418-19.149z" fill="#3e5959"/></g><g><path d="m398.37 229c-7.786 28.674-33.985 49.769-65.125 49.769h-52.571v19.02c0 8.284 6.716 15 15 15h48.032c41.031 0 75.697-27.249 86.891-64.639 2.861-9.558-4.44-19.15-14.418-19.15z" fill="#384949"/></g><g><path d="m95.835 229c-9.978 0-17.279 9.591-14.418 19.149 11.193 37.389 45.859 64.639 86.891 64.639h48.032c8.284 0 15-6.716 15-15v-68.788z" fill="#3e5959"/></g><g><g><path d="m168.308 312.788h48.032c8.284 0 15-6.716 15-15v-19.02h-133.81c16.616 20.735 42.139 34.02 70.778 34.02z" fill="#384949"/></g></g></g><g><path d="m129.57 229c-.622 2.228-.961 4.574-.961 7 0 14.359 11.641 26 26 26s26-11.641 26-26c0-2.426-.339-4.772-.961-7z" fill="#7ca1b1"/></g><g><path d="m179.648 229h-19.818c-1.484 12.908-12.416 22.94-25.709 22.997 4.759 6.086 12.164 10.003 20.488 10.003 14.359 0 26-11.641 26-26 0-2.426-.339-4.772-.961-7z" fill="#678d98"/></g><g><path d="m332.367 229c-.622 2.228-.961 4.574-.961 7 0 14.359 11.641 26 26 26s26-11.641 26-26c0-2.426-.339-4.772-.961-7z" fill="#7ca1b1"/></g><g><path d="m382.444 229h-19.614c-1.488 12.945-12.478 23-25.822 23-.03 0-.06-.002-.09-.002 4.759 6.086 12.164 10.002 20.488 10.002 14.359 0 26-11.641 26-26-.001-2.426-.34-4.772-.962-7z" fill="#678d98"/></g></g><g><path d="m204.164 383.5h103.688c4.143 0 7.5-3.358 7.5-7.5s-3.357-7.5-7.5-7.5h-103.688c-4.142 0-7.5 3.358-7.5 7.5s3.357 7.5 7.5 7.5z"/><path d="m93.872 351.578c-27.963-30.538-45.677-67.517-51.227-106.938-5.193-36.888.175-74.815 15.525-109.684 15.35-34.868 39.698-64.44 70.411-85.521 32.822-22.527 72.057-34.435 113.463-34.435h27.926c55.838 0 107.265 21.73 144.805 61.188 2.855 3 7.601 3.12 10.604.264 3.001-2.855 3.119-7.602.264-10.603-40.4-42.464-95.686-65.849-155.673-65.849h-27.926c-44.45 0-86.621 12.818-121.953 37.068-33.016 22.661-59.175 54.42-75.651 91.844s-22.233 78.165-16.65 117.818c5.975 42.435 25 82.194 55.017 114.977l42.643 46.57c1.479 1.616 3.502 2.435 5.533 2.435 1.809 0 3.624-.651 5.063-1.969 3.055-2.797 3.264-7.541.466-10.596z"/><path d="m448.361 94.114c-2.319-3.432-6.981-4.333-10.413-2.016-3.433 2.319-4.335 6.981-2.017 10.414 24.57 36.368 37.058 80.188 35.161 123.389-2.046 46.623-20.355 90.082-52.949 125.678l-113.583 124.046c-12.621 13.784-29.864 21.375-48.553 21.375-18.688 0-35.932-7.591-48.553-21.375l-47.293-51.65c-2.796-3.055-7.54-3.263-10.596-.466-3.055 2.797-3.264 7.541-.466 10.596l47.292 51.65c15.273 16.679 37.002 26.245 59.616 26.245 22.615 0 44.344-9.566 59.616-26.245l113.583-124.047c35.004-38.228 54.67-84.962 56.872-135.15 2.036-46.392-11.359-93.429-37.717-132.444z"/><path d="m216.34 305.288h-48.032c-25.415 0-49.11-11.411-65.01-31.306-2.586-3.235-7.305-3.762-10.541-1.177-3.236 2.586-3.763 7.306-1.177 10.541 18.763 23.477 46.729 36.942 76.728 36.942h48.032c12.407 0 22.5-10.093 22.5-22.5v-89.788c0-4.142-3.358-7.5-7.5-7.5s-7.5 3.358-7.5 7.5v13.5h-128.005c-7.027 0-13.527 3.188-17.835 8.748-4.268 5.508-5.724 12.51-3.995 19.211 1.035 4.01 5.125 6.423 9.135 5.389 4.011-1.035 6.424-5.125 5.389-9.135-.561-2.176-.077-4.464 1.328-6.278 1.445-1.865 3.624-2.935 5.978-2.935h25.287c.269 18.242 15.183 33 33.487 33s33.218-14.758 33.487-33h35.743v61.288c.001 4.135-3.363 7.5-7.499 7.5zm-61.731-50.788c-10.033 0-18.227-8.03-18.493-18h36.986c-.266 9.97-8.459 18-18.493 18z"/><path d="m288.175 221.5v-13.5c0-4.142-3.357-7.5-7.5-7.5s-7.5 3.358-7.5 7.5v89.788c0 12.407 10.094 22.5 22.5 22.5h48.031c21.553 0 42.009-6.852 59.158-19.815 16.584-12.537 28.985-30.355 34.917-50.172 2.036-6.8.762-13.981-3.496-19.701-4.305-5.783-10.904-9.1-18.105-9.1zm87.724 15c-.267 9.97-8.46 18-18.493 18s-18.227-8.03-18.493-18zm46.354 3.057c1.399 1.88 1.822 4.228 1.159 6.442-5.024 16.784-15.534 31.88-29.594 42.508-14.522 10.979-31.852 16.781-50.112 16.781h-48.031c-4.136 0-7.5-3.365-7.5-7.5v-61.288h35.743c.27 18.242 15.183 33 33.487 33s33.218-14.758 33.487-33h25.287c2.415 0 4.628 1.114 6.074 3.057z"/><path d="m126.999 148.501c.492 0 .992-.049 1.493-.15l70-14.142c4.06-.82 6.687-4.777 5.866-8.837s-4.773-6.685-8.837-5.866l-70 14.142c-4.06.82-6.687 4.777-5.866 8.837.72 3.559 3.848 6.016 7.344 6.016z"/><path d="m383.522 148.352c.502.101 1.001.15 1.493.15 3.496 0 6.625-2.458 7.344-6.016.82-4.06-1.807-8.017-5.866-8.837l-70-14.142c-4.068-.819-8.017 1.807-8.837 5.866-.82 4.06 1.807 8.017 5.866 8.837z"/></g></g><g/><g/><g/><g/><g/><g/><g/><g/><g/><g/><g/><g/><g/><g/><g/></svg>