<svg id="Capa_1" enable-background="new 0 0 512 512" viewBox="0 0 512 512" xmlns="http://www.w3.org/2000/svg"><g><g><g><g><g><g><path d="m310.091 480.69 113.583-124.047c122.421-133.698 27.575-349.143-153.704-349.143h-27.926c-181.278 0-276.124 215.445-153.704 349.143l113.583 124.047c29.068 31.747 79.1 31.747 108.168 0z" fill="#00f2a6"/></g><g><path d="m295.818 9.005c129.218 53.222 180.739 227.465 75.271 342.65l-136.92 149.535c26.146 8.121 55.972 1.29 75.923-20.499l113.583-124.047c116.458-127.189 36.292-328.35-127.857-347.639z" fill="#05e39c"/></g><g><path d="m419.395 176.692h-48.032c-.949 0-1.894.019-2.836.048-15.924 19.168-39.806 30.569-65.072 30.541-14.172 16.001-22.78 37.043-22.78 60.099v30.408c0 8.284 6.716 15 15 15h48.032c50.086 0 90.688-40.603 90.688-90.688v-30.408c0-8.285-6.716-15-15-15z" fill="#3e5959"/></g><g><path d="m419.395 176.692h-18.657v34.584c0 37.275-30.218 67.493-67.493 67.493h-52.571v19.02c0 8.284 6.716 15 15 15h48.032c50.086 0 90.689-40.603 90.689-90.689v-30.408c0-8.285-6.715-15-15-15z" fill="#384949"/></g><g><path d="m143.488 176.74c-.942-.029-1.887-.048-2.837-.048h-48.032c-8.284 0-15 6.716-15 15v30.408c0 50.086 40.603 90.688 90.688 90.688h48.032c8.284 0 15-6.716 15-15v-30.408c0-23.056-8.608-44.098-22.78-60.099-25.265.028-49.147-11.373-65.071-30.541z" fill="#3e5959"/></g><g><g><path d="m168.307 312.788h48.032c8.284 0 15-6.716 15-15v-19.02h-133.809c16.616 20.735 42.139 34.02 70.777 34.02z" fill="#384949"/></g></g><g><g><circle cx="170.007" cy="254" fill="#7ca1b1" r="26"/></g><g><path d="m170.503 228.012c3.445 4.411 5.504 9.957 5.504 15.988 0 14.359-11.641 26-26 26-.166 0-.33-.009-.496-.012 4.759 6.091 12.167 10.012 20.496 10.012 14.359 0 26-11.641 26-26 0-14.193-11.374-25.722-25.504-25.988z" fill="#678d98"/></g><g><circle cx="342.007" cy="254" fill="#7ca1b1" r="26"/></g><g><path d="m342.503 228.012c3.445 4.411 5.504 9.957 5.504 15.988 0 14.359-11.641 26-26 26-.166 0-.33-.009-.496-.012 4.759 6.091 12.167 10.012 20.496 10.012 14.359 0 26-11.641 26-26 0-14.193-11.374-25.722-25.504-25.988z" fill="#678d98"/></g></g></g></g></g></g><g><path d="m448.361 94.114c-2.319-3.432-6.981-4.333-10.413-2.016-3.433 2.319-4.335 6.981-2.017 10.414 24.57 36.368 37.058 80.188 35.161 123.389-2.046 46.623-20.355 90.082-52.948 125.678l-113.584 124.046c-12.621 13.784-29.864 21.375-48.553 21.375s-35.932-7.591-48.553-21.375l-47.293-51.65c-2.798-3.055-7.543-3.264-10.596-.466-3.056 2.797-3.265 7.541-.467 10.596l47.293 51.65c15.272 16.679 37.002 26.245 59.616 26.245s44.344-9.566 59.615-26.245l113.584-124.047c35.003-38.228 54.669-84.962 56.871-135.15 2.037-46.392-11.358-93.429-37.716-132.444z"/><path d="m93.871 351.578c-27.962-30.538-45.675-67.517-51.226-106.938-5.194-36.887.175-74.815 15.524-109.683 15.35-34.868 39.697-64.44 70.41-85.521 32.824-22.528 72.059-34.436 113.465-34.436h27.926c55.838 0 107.265 21.73 144.805 61.188 2.855 3 7.602 3.12 10.604.264 3.001-2.855 3.119-7.602.264-10.603-40.401-42.464-95.687-65.849-155.673-65.849h-27.926c-44.45 0-86.621 12.818-121.953 37.069-33.016 22.661-59.175 54.42-75.65 91.844-16.476 37.424-22.232 78.165-16.649 117.818 5.975 42.435 24.999 82.193 55.018 114.977l42.642 46.57c1.479 1.616 3.503 2.435 5.533 2.435 1.809 0 3.624-.651 5.062-1.969 3.056-2.797 3.265-7.541.467-10.596z"/><path d="m193.303 395.247c3.609 2.036 8.182.762 10.218-2.846 3.098-5.49 8.938-8.9 15.241-8.9h74.49c6.304 0 12.144 3.411 15.241 8.9 1.379 2.443 3.921 3.816 6.539 3.816 1.248 0 2.515-.312 3.679-.97 3.607-2.035 4.882-6.61 2.847-10.217-5.753-10.196-16.599-16.529-28.306-16.529h-74.49c-11.707 0-22.553 6.333-28.306 16.529-2.035 3.607-.76 8.181 2.847 10.217z"/><path d="m203.507 254c0-18.472-15.028-33.5-33.5-33.5s-33.5 15.028-33.5 33.5 15.028 33.5 33.5 33.5 33.5-15.028 33.5-33.5zm-52 0c0-10.201 8.299-18.5 18.5-18.5s18.5 8.299 18.5 18.5-8.299 18.5-18.5 18.5-18.5-8.299-18.5-18.5z"/><path d="m375.507 254c0-18.472-15.028-33.5-33.5-33.5s-33.5 15.028-33.5 33.5 15.028 33.5 33.5 33.5 33.5-15.028 33.5-33.5zm-33.5 18.5c-10.201 0-18.5-8.299-18.5-18.5s8.299-18.5 18.5-18.5 18.5 8.299 18.5 18.5-8.299 18.5-18.5 18.5z"/><path d="m441.896 222.1v-30.408c0-12.407-10.094-22.5-22.5-22.5h-36.443c3.816-6.559 6.847-13.636 8.987-21.123 1.139-3.983-1.167-8.134-5.149-9.273-3.978-1.141-8.134 1.167-9.272 5.149-5.652 19.77-18.666 36.154-36.642 46.136-17.977 9.982-38.763 12.366-58.533 6.713-3.979-1.139-8.135 1.167-9.272 5.149-1.139 3.982 1.167 8.134 5.149 9.273 3.638 1.04 7.305 1.839 10.983 2.425-10.4 15.886-16.028 34.522-16.028 53.739v30.408c0 12.407 10.094 22.5 22.5 22.5h48.031c54.141 0 98.189-44.047 98.189-98.188zm-153.721 75.688v-30.408c0-19.249 6.657-37.813 18.795-52.645 14.278-.523 28.336-4.404 41.189-11.541 9.094-5.05 17.11-11.484 23.861-19.003h47.376c4.136 0 7.5 3.364 7.5 7.5v30.409c0 45.87-37.318 83.188-83.189 83.188h-48.031c-4.137 0-7.501-3.364-7.501-7.5z"/><path d="m86.899 239.282c-.852-4.054-4.826-6.65-8.881-5.799-4.054.851-6.65 4.827-5.799 8.881 4.56 21.723 16.568 41.486 33.814 55.65 17.489 14.363 39.604 22.273 62.274 22.273h48.031c12.406 0 22.5-10.093 22.5-22.5v-30.407c0-19.217-5.628-37.853-16.028-53.739 3.679-.587 7.346-1.385 10.983-2.425 3.982-1.139 6.288-5.291 5.149-9.273-1.138-3.982-5.293-6.287-9.272-5.149-19.771 5.654-40.557 3.269-58.533-6.713s-30.989-26.366-36.642-46.136c-1.138-3.982-5.292-6.289-9.272-5.149-3.982 1.139-6.288 5.29-5.149 9.273 2.141 7.487 5.171 14.563 8.987 21.123h-36.443c-12.406 0-22.5 10.093-22.5 22.5v14.132c0 4.142 3.357 7.5 7.5 7.5s7.5-3.358 7.5-7.5v-14.132c0-4.136 3.364-7.5 7.5-7.5h47.376c6.751 7.519 14.767 13.953 23.861 19.003 12.854 7.138 26.91 11.018 41.189 11.541 12.138 14.831 18.795 33.395 18.795 52.645v30.408c0 4.136-3.364 7.5-7.5 7.5h-48.031c-39.143-.001-73.381-27.76-81.409-66.007z"/></g></g><g/><g/><g/><g/><g/><g/><g/><g/><g/><g/><g/><g/><g/><g/><g/></svg>