<svg id="Capa_1" enable-background="new 0 0 512 512" viewBox="0 0 512 512" xmlns="http://www.w3.org/2000/svg"><g><g><g><path d="m303.966 480.69 113.583-124.047c122.421-133.698 27.575-349.143-153.704-349.143h-27.926c-181.278 0-276.124 215.445-153.704 349.143l113.583 124.047c29.068 31.747 79.1 31.747 108.168 0z" fill="#00f2a6"/></g><g><path d="m289.693 9.005c129.218 53.222 180.739 227.465 75.271 342.65l-136.92 149.535c26.146 8.121 55.972 1.29 75.923-20.499l113.583-124.047c116.458-127.189 36.292-328.35-127.857-347.639z" fill="#05e39c"/></g><g><path d="m249.882 354.013c-26.048-.529-46.958 14.705-54.942 29.972-.086.156-.171.313-.255.469-8.589 16.055 8.439 33.976 24.865 26.121 19.128-9.147 41.536-9.147 60.664 0 16.426 7.855 33.454-10.066 24.865-26.121-.084-.157-.169-.313-.255-.47-7.984-15.265-28.894-30.5-54.942-29.971z" fill="#3e5959"/></g><g><g><path d="m305.08 384.455c-.084-.157-.169-.313-.255-.47-7.984-15.266-28.894-30.501-54.942-29.972-2.186-.044-4.331.031-6.44.2 12.678 6.894 22.327 16.734 27.481 26.589.104.188.206.376.306.564 4.784 8.943 2.939 18.363-2.376 24.953 3.877 1.083 7.68 2.496 11.361 4.256 16.426 7.856 33.453-10.065 24.865-26.12z" fill="#384949"/></g></g><g><path d="m274.55 283v14.788c0 8.284 6.716 15 15 15h48.032c29.891 0 56.401-14.464 72.921-36.773 2.456-3.317.135-8.015-3.993-8.015h-116.96c-8.285 0-15 6.716-15 15z" fill="#3e5959"/></g><g><path d="m406.51 268h-28.895c-10.622 17-31.223 25.315-55.622 25.315h-47.443v4.473c0 8.284 6.716 15 15 15h48.032c29.891 0 56.401-14.464 72.921-36.773 2.456-3.317.135-8.015-3.993-8.015z" fill="#384949"/></g><g><path d="m93.254 268c-4.128 0-6.449 4.698-3.993 8.015 16.52 22.309 43.03 36.773 72.921 36.773h48.032c8.284 0 15-6.716 15-15v-14.788c0-8.284-6.716-15-15-15z" fill="#3e5959"/></g><g><path d="m213.19 268.298c-3.243 14.321-16.038 25.018-31.341 25.018h-75.803c15.441 12.191 34.935 19.473 56.136 19.473h48.032c8.284 0 15-6.716 15-15v-14.789c.001-7.265-5.165-13.322-12.024-14.702z" fill="#384949"/></g><g><path d="m281.466 452c-10.171 0-18.416-8.245-18.416-18.416v-28.044c0-6.926 5.614-12.54 12.54-12.54h11.752c6.926 0 12.54 5.614 12.54 12.54v28.044c0 10.171-8.245 18.416-18.416 18.416z" fill="#01c0fa"/></g><g><g><path d="m287.342 393h-4.349v29.584c0 10.158-8.224 18.393-18.378 18.414 2.854 6.476 9.319 11.002 16.851 11.002 10.171 0 18.416-8.245 18.416-18.416v-28.044c0-6.926-5.614-12.54-12.54-12.54z" fill="#08a9f1"/></g></g></g><g><path d="m429.625 89.134c-3.392 2.378-4.213 7.055-1.835 10.447 25.546 36.435 38.774 80.658 37.248 124.525-1.646 47.31-19.979 91.389-53.019 127.473l-113.584 124.046c-12.621 13.784-29.864 21.375-48.553 21.375s-35.932-7.591-48.553-21.375l-44.604-48.714c-2.797-3.055-7.541-3.264-10.596-.467s-3.264 7.542-.467 10.597l44.605 48.714c15.271 16.679 37 26.245 59.615 26.245s44.344-9.566 59.616-26.245l113.583-124.047c35.484-38.753 55.176-86.155 56.948-137.081 1.638-47.104-12.552-94.571-39.957-133.658-2.378-3.391-7.056-4.212-10.447-1.835z"/><path d="m72.484 86.081c1.408 1.187 3.124 1.767 4.832 1.767 2.134 0 4.254-.906 5.737-2.665 38.168-45.258 92.458-70.183 152.866-70.183h27.926c54.516 0 105.067 20.827 142.342 58.644 2.906 2.949 7.655 2.985 10.606.077 2.95-2.907 2.984-7.656.077-10.606-40.116-40.7-94.462-63.115-153.025-63.115h-27.926c-64.905 0-123.266 26.817-164.333 75.512-2.671 3.167-2.268 7.899.898 10.569z"/><path d="m87.746 351.578c-31.074-33.936-49.257-75.278-52.585-119.556-3.078-40.944 6.975-83.302 28.305-119.27 2.113-3.563.938-8.164-2.625-10.277-3.563-2.112-8.164-.937-10.276 2.625-22.885 38.588-33.667 84.062-30.361 128.045 3.583 47.664 23.113 92.12 56.48 128.561l45.33 49.506c1.479 1.616 3.503 2.435 5.533 2.435 1.809 0 3.624-.651 5.063-1.968 3.055-2.797 3.264-7.542.466-10.597z"/><path d="m84.525 234.533c1.177.675 2.459.996 3.725.996 2.599 0 5.126-1.354 6.513-3.77 12.166-21.21 39.319-28.568 60.529-16.402 3.592 2.06 8.176.819 10.237-2.774s.819-8.176-2.774-10.237c-28.385-16.282-64.723-6.434-81.004 21.95-2.061 3.592-.819 8.176 2.774 10.237z"/><path d="m334.235 212.583c2.061 3.594 6.645 4.834 10.237 2.774 21.212-12.165 48.364-4.808 60.529 16.402 1.386 2.417 3.913 3.77 6.513 3.77 1.266 0 2.548-.321 3.725-.996 3.593-2.061 4.835-6.645 2.774-10.238-16.281-28.383-52.62-38.229-81.004-21.95-3.593 2.061-4.835 6.645-2.774 10.238z"/><path d="m298.608 127.182c-1.263-2.561-3.871-4.182-6.726-4.182h-32.597c-4.142 0-7.5 3.358-7.5 7.5s3.358 7.5 7.5 7.5h17.393l-23.344 30.436c-1.738 2.266-2.038 5.322-.775 7.882s3.871 4.182 6.726 4.182h32.597c4.142 0 7.5-3.358 7.5-7.5s-3.358-7.5-7.5-7.5h-17.392l23.344-30.436c1.737-2.265 2.037-5.321.774-7.882z"/><path d="m388.608 79.182c-1.263-2.561-3.871-4.182-6.726-4.182h-39.5c-4.142 0-7.5 3.358-7.5 7.5s3.358 7.5 7.5 7.5h24.295l-30.247 39.436c-1.738 2.266-2.038 5.322-.775 7.882s3.871 4.182 6.726 4.182h39.5c4.142 0 7.5-3.358 7.5-7.5s-3.358-7.5-7.5-7.5h-24.295l30.247-39.436c1.738-2.265 2.038-5.321.775-7.882z"/><path d="m484.882 62.5h-25.295l31.247-40.739c1.738-2.266 2.038-5.322.775-7.882s-3.871-4.182-6.726-4.182h-40.5c-4.142 0-7.5 3.358-7.5 7.5s3.358 7.5 7.5 7.5h25.295l-31.247 40.739c-1.738 2.266-2.038 5.322-.775 7.882s3.871 4.182 6.726 4.182h40.5c4.142 0 7.5-3.358 7.5-7.5s-3.358-7.5-7.5-7.5z"/><path d="m416.53 280.479c2.84-3.836 3.273-8.861 1.13-13.116-2.133-4.233-6.405-6.863-11.15-6.863h-116.96c-12.407 0-22.5 10.093-22.5 22.5v14.788c0 12.407 10.093 22.5 22.5 22.5h48.032c30.975 0 60.489-14.882 78.948-39.809zm-134.48 17.309v-14.788c0-4.136 3.364-7.5 7.5-7.5h111.811c-15.733 18.738-39.214 29.788-63.779 29.788h-48.032c-4.136 0-7.5-3.364-7.5-7.5z"/><path d="m83.234 280.479c18.459 24.928 47.973 39.81 78.948 39.81h48.032c12.407 0 22.5-10.093 22.5-22.5v-14.789c0-12.407-10.093-22.5-22.5-22.5h-116.96c-4.745 0-9.018 2.63-11.15 6.863-2.143 4.254-1.71 9.28 1.13 13.116zm126.981-4.979c4.136 0 7.5 3.364 7.5 7.5v14.788c0 4.136-3.364 7.5-7.5 7.5h-48.032c-24.565 0-48.046-11.05-63.779-29.788z"/><path d="m281.466 459.5c14.29 0 25.916-11.626 25.916-25.916v-21.871c8-8.272 9.859-20.425 4.312-30.793l-.246-.453c-8.787-16.757-31.764-34.491-61.566-33.956-29.737-.547-52.776 17.196-61.565 33.953l-.246.453c-5.481 10.246-3.803 22.329 4.277 30.782 5.191 5.431 12.002 8.28 18.986 8.28 3.846 0 7.744-.864 11.451-2.637 10.104-4.831 21.537-6.831 32.764-5.83v22.072c.001 14.29 11.627 25.916 25.917 25.916zm10.916-25.916c0 6.019-4.897 10.916-10.916 10.916-6.019 0-10.916-4.897-10.916-10.916v-28.044c0-2.779 2.261-5.04 5.04-5.04h11.752c2.779 0 5.04 2.261 5.04 5.04zm-76.068-29.775c-5.442 2.604-10.347.428-13.123-2.475-2.799-2.929-4.767-7.972-1.892-13.345l.208-.382c.026-.048.053-.097.078-.146 6.924-13.241 25.647-26.412 48.144-25.949.102.002.203.002.305 0 22.45-.459 41.22 12.709 48.144 25.949.027.052.055.104.083.154l.205.377c.24.449.441.896.617 1.341-3.304-2.4-7.354-3.834-11.741-3.834h-11.752c-7.853 0-14.646 4.551-17.931 11.144-14.139-1.399-28.591 1.068-41.345 7.166z"/></g></g><g/><g/><g/><g/><g/><g/><g/><g/><g/><g/><g/><g/><g/><g/><g/></svg>