<svg id="Capa_1" enable-background="new 0 0 512 512" viewBox="0 0 512 512" xmlns="http://www.w3.org/2000/svg"><g><g><g><path d="m310.064 480.69 113.583-124.047c122.42-133.698 27.574-349.143-153.704-349.143h-27.926c-181.279 0-276.125 215.445-153.705 349.143l113.583 124.047c29.069 31.747 79.101 31.747 108.169 0z" fill="#00f2a6"/></g><g><path d="m295.791 9.005c129.218 53.222 180.739 227.465 75.271 342.65l-136.92 149.535c26.146 8.121 55.972 1.29 75.923-20.499l113.583-124.047c116.458-127.189 36.292-328.35-127.857-347.639z" fill="#05e39c"/></g><g><path d="m222.657 203.132-15.81-15.81c-3.905-3.905-10.237-3.905-14.142 0l-24.851 24.851-24.851-24.851c-3.905-3.905-10.237-3.905-14.142 0l-15.81 15.81c-3.905 3.905-3.905 10.237 0 14.142l24.851 24.851-24.851 24.851c-3.905 3.905-3.905 10.237 0 14.142l15.81 15.81c3.905 3.905 10.237 3.905 14.142 0l24.851-24.851 24.851 24.851c3.905 3.905 10.237 3.905 14.142 0l15.81-15.81c3.905-3.905 3.905-10.237 0-14.142l-24.851-24.851 24.851-24.851c3.905-3.905 3.905-10.237 0-14.142z" fill="#3e5959"/></g><g><path d="m398.909 203.132-15.81-15.81c-3.905-3.905-10.237-3.905-14.142 0l-24.851 24.851-24.851-24.851c-3.905-3.905-10.237-3.905-14.142 0l-15.81 15.81c-3.905 3.905-3.905 10.237 0 14.142l24.851 24.851-24.851 24.851c-3.905 3.905-3.905 10.237 0 14.142l15.81 15.81c3.905 3.905 10.237 3.905 14.142 0l24.851-24.851 24.851 24.851c3.905 3.905 10.237 3.905 14.142 0l15.81-15.81c3.905-3.905 3.905-10.237 0-14.142l-24.851-24.851 24.851-24.851c3.905-3.905 3.905-10.237 0-14.142z" fill="#3e5959"/></g><g><g><path d="m285.214 433.992c19.68.421 35.766-15.407 35.766-34.992v-38.5h-70v37.857c0 19.14 15.098 35.226 34.234 35.635z" fill="#fead8a"/></g><g><path d="m286.98 360.5v38.5c0 13.126-7.231 24.555-17.921 30.545 4.792 2.714 10.282 4.321 16.155 4.447 19.68.421 35.766-15.407 35.766-34.992v-38.5z" fill="#fd9468"/></g></g></g><g><path d="m448.334 94.114c-2.318-3.431-6.981-4.333-10.414-2.016-3.432 2.319-4.335 6.981-2.016 10.414 24.57 36.368 37.057 80.188 35.16 123.389-2.046 46.624-20.355 90.082-52.948 125.678l-113.583 124.046c-12.621 13.784-29.864 21.375-48.553 21.375s-35.932-7.591-48.553-21.375l-113.584-124.047c-14.862-16.231-26.85-34.23-35.629-53.497-1.718-3.77-6.165-5.432-9.935-3.714-3.769 1.718-5.432 6.166-3.714 9.935 9.433 20.699 22.291 40.014 38.216 57.406l113.583 124.047c15.272 16.679 37.001 26.245 59.616 26.245s44.344-9.566 59.616-26.245l113.583-124.047c35.003-38.228 54.669-84.961 56.872-135.15 2.035-46.392-11.359-93.429-37.717-132.444z"/><path d="m46.945 266.321c-15.435-59.502-1.668-124.73 36.827-174.484 18.273-23.619 40.801-42.307 66.957-55.547 27.906-14.127 58.62-21.29 91.288-21.29h27.926c55.838 0 107.264 21.73 144.805 61.188 2.856 3.001 7.603 3.119 10.604.264s3.119-7.603.264-10.603c-40.401-42.464-95.687-65.849-155.673-65.849h-27.926c-35.043 0-68.036 7.707-98.063 22.906-28.159 14.254-52.399 34.357-72.046 59.752-41.314 53.398-56.074 123.465-39.482 187.429.876 3.378 3.92 5.619 7.255 5.619.623 0 1.257-.079 1.888-.242 4.008-1.04 6.416-5.133 5.376-9.143z"/><path d="m107.748 286.422 15.81 15.81c6.823 6.823 17.925 6.823 24.749 0l19.548-19.548 19.548 19.548c3.412 3.412 7.893 5.118 12.375 5.118 4.48 0 8.963-1.707 12.374-5.118l15.81-15.81c6.823-6.823 6.823-17.925 0-24.749l-19.548-19.548 19.548-19.548c6.823-6.823 6.823-17.925 0-24.749l-15.81-15.81c-6.824-6.824-17.926-6.823-24.749 0l-19.548 19.548-19.548-19.548c-6.824-6.824-17.926-6.823-24.749 0l-15.81 15.81c-6.823 6.823-6.823 17.925 0 24.749l19.548 19.548-19.548 19.548c-6.824 6.824-6.824 17.926 0 24.749zm10.606-14.142 24.851-24.852c2.929-2.929 2.929-7.678 0-10.606l-24.851-24.851c-.975-.975-.975-2.561 0-3.536l15.81-15.81c.974-.975 2.561-.975 3.536 0l24.852 24.852c1.406 1.407 3.314 2.197 5.303 2.197s3.897-.79 5.303-2.197l24.851-24.852c.975-.975 2.561-.975 3.536 0l15.81 15.81c.975.975.975 2.561 0 3.536l-24.852 24.851c-1.407 1.406-2.197 3.314-2.197 5.303s.79 3.897 2.197 5.303l24.852 24.852c.975.975.975 2.561 0 3.536l-15.81 15.81c-.975.975-2.561.975-3.536 0l-24.851-24.851c-1.464-1.465-3.384-2.197-5.303-2.197s-3.839.732-5.303 2.197l-24.852 24.851c-.975.975-2.562.975-3.536 0l-15.81-15.81c-.974-.975-.974-2.561 0-3.536z"/><path d="m404.212 197.829-15.81-15.81c-6.823-6.823-17.925-6.824-24.749 0l-19.548 19.548-19.548-19.548c-6.824-6.824-17.926-6.823-24.749 0l-15.81 15.81c-6.823 6.823-6.823 17.925 0 24.749l19.548 19.548-19.548 19.548c-6.823 6.823-6.823 17.925 0 24.749l15.81 15.81c6.823 6.823 17.925 6.823 24.749 0l19.548-19.548 19.548 19.548c3.412 3.412 7.893 5.118 12.374 5.118s8.963-1.706 12.375-5.118l15.81-15.81c6.823-6.823 6.823-17.925 0-24.749l-19.548-19.548 19.548-19.548c6.823-6.824 6.823-17.926 0-24.749zm-10.607 14.142-24.851 24.851c-2.929 2.929-2.929 7.678 0 10.606l24.851 24.852c.975.975.975 2.561 0 3.536l-15.81 15.81c-.975.975-2.562.975-3.536 0l-24.852-24.851c-1.464-1.464-3.384-2.197-5.303-2.197s-3.839.732-5.303 2.197l-24.851 24.851c-.975.975-2.562.975-3.536 0l-15.81-15.81c-.975-.975-.975-2.561 0-3.536l24.852-24.852c1.407-1.406 2.197-3.314 2.197-5.303s-.79-3.897-2.197-5.303l-24.852-24.851c-.975-.975-.975-2.561 0-3.536l15.81-15.81c.973-.974 2.56-.976 3.536 0l24.851 24.852c1.406 1.407 3.314 2.197 5.303 2.197s3.897-.79 5.303-2.197l24.852-24.852c.973-.974 2.56-.976 3.536 0l15.81 15.81c.975.975.975 2.562 0 3.536z"/><path d="m126.98 144.502c.837 0 1.689-.141 2.522-.439l70-25c3.901-1.393 5.934-5.685 4.541-9.585-1.393-3.901-5.687-5.935-9.585-4.541l-70 25c-3.901 1.393-5.934 5.685-4.541 9.585 1.095 3.068 3.983 4.98 7.063 4.98z"/><path d="m382.457 144.063c.833.298 1.685.439 2.522.439 3.08 0 5.968-1.913 7.063-4.979 1.393-3.901-.64-8.192-4.541-9.585l-70-25c-3.899-1.395-8.192.64-9.585 4.541s.64 8.192 4.541 9.585z"/><path d="m305.215 418.654c-5.328 5.215-12.378 7.972-19.841 7.84-7.675-.164-14.996-3.684-20.085-9.656-2.687-3.153-7.42-3.53-10.573-.844-3.152 2.687-3.53 7.42-.844 10.573 7.864 9.228 19.229 14.667 31.182 14.922.314.007.625.01.938.01 11.183 0 21.705-4.286 29.715-12.126 8.237-8.062 12.773-18.85 12.773-30.374v-38.5c0-4.142-3.358-7.5-7.5-7.5h-130c-4.142 0-7.5 3.358-7.5 7.5s3.358 7.5 7.5 7.5h52.5v19.692c0 4.142 3.358 7.5 7.5 7.5s7.5-3.358 7.5-7.5v-19.691h19.234v26.325c0 4.142 3.358 7.5 7.5 7.5s7.5-3.358 7.5-7.5v-26.325h20.766v31c0 7.457-2.936 14.437-8.265 19.654z"/></g></g><g/><g/><g/><g/><g/><g/><g/><g/><g/><g/><g/><g/><g/><g/><g/></svg>