<svg id="Capa_1" enable-background="new 0 0 512 512" viewBox="0 0 512 512" xmlns="http://www.w3.org/2000/svg"><g><g><g><path d="m310.091 480.69 113.583-124.047c122.421-133.698 27.575-349.143-153.704-349.143h-27.926c-181.278 0-276.124 215.445-153.704 349.143l113.583 124.047c29.068 31.747 79.1 31.747 108.168 0z" fill="#00f2a6"/></g><g fill="#05e39c"><path d="m308.619 442.057-10.6-10.6-63.85 69.733c26.146 8.121 55.972 1.29 75.923-20.499l23.745-25.932c-9.246-1.382-18.158-5.642-25.218-12.702z"/><path d="m295.818 9.005c129.218 53.222 180.739 227.465 75.271 342.65l-13.818 15.091 13.899 13.899c5.912 5.912 9.777 13.093 11.605 20.666l40.899-44.667c116.46-127.189 36.293-328.35-127.856-347.639z"/></g><g><g><g><path d="m343.707 312.788h-48.032c-8.284 0-15-6.716-15-15v-30.408c0-50.086 40.603-90.688 90.688-90.688h48.032c8.284 0 15 6.716 15 15v30.408c0 50.086-40.602 90.688-90.688 90.688z" fill="#3e5959"/></g><g><path d="m419.395 176.692h-18.657v34.584c0 37.275-30.218 67.493-67.493 67.493h-52.571v19.02c0 8.284 6.716 15 15 15h48.032c50.086 0 90.689-40.603 90.689-90.689v-30.408c0-8.285-6.715-15-15-15z" fill="#384949"/></g><g><path d="m216.34 312.788h-48.032c-50.086 0-90.688-40.603-90.688-90.689v-30.408c0-8.284 6.716-15 15-15h48.032c50.086 0 90.688 40.603 90.688 90.688v30.408c0 8.285-6.716 15.001-15 15.001z" fill="#3e5959"/></g><g><g><path d="m168.307 312.788h48.032c8.284 0 15-6.716 15-15v-19.02h-133.809c16.616 20.735 42.139 34.02 70.777 34.02z" fill="#384949"/></g></g></g></g><g><g><g><path d="m371.17 380.644-28.207-28.207c-12.824 28.523-38.99 48.87-69.341 54.622l34.998 34.998c16.948 16.947 44.56 17.822 61.865 1.24 17.798-17.053 18.026-45.311.685-62.653z" fill="#fead8a"/></g><g><path d="m371.17 380.644-12.505-12.506c5.935 20.553.591 43.673-16.033 59.601-9.265 8.877-20.706 14.056-32.576 15.685 17.037 15.61 43.603 15.994 60.428-.128 17.799-17.052 18.027-45.31.686-62.652z" fill="#fd9468"/></g></g></g></g><g><path d="m273.175 267.38v30.408c0 12.407 10.094 22.5 22.5 22.5h48.032c54.142 0 98.188-44.047 98.188-98.188v-30.408c0-12.407-10.094-22.5-22.5-22.5h-48.032c-54.141-.001-98.188 44.047-98.188 98.188zm98.189-83.189h48.032c4.136 0 7.5 3.364 7.5 7.5v30.409c0 45.87-37.318 83.188-83.188 83.188h-48.032c-4.136 0-7.5-3.364-7.5-7.5v-30.408c-.001-45.87 37.317-83.189 83.188-83.189z"/><path d="m70.118 191.691v30.409c0 54.141 44.048 98.188 98.189 98.188h48.031c12.406 0 22.5-10.093 22.5-22.5v-30.408c0-20.015-5.991-39.277-17.327-55.703-2.352-3.41-7.024-4.266-10.433-1.913s-4.266 7.023-1.913 10.433c9.599 13.91 14.673 30.226 14.673 47.184v30.408c0 4.136-3.364 7.5-7.5 7.5h-48.031c-45.871 0-83.189-37.318-83.189-83.188v-30.408c0-4.136 3.364-7.5 7.5-7.5h48.033c16.206 0 31.914 4.666 45.427 13.493 3.467 2.265 8.114 1.291 10.381-2.177 2.265-3.468 1.29-8.116-2.178-10.381-15.958-10.425-34.503-15.936-53.63-15.936h-48.033c-12.406-.001-22.5 10.093-22.5 22.499z"/><path d="m448.361 94.114c-2.319-3.432-6.981-4.334-10.413-2.016-3.433 2.319-4.335 6.981-2.017 10.414 24.57 36.368 37.058 80.188 35.161 123.389-2.046 46.624-20.355 90.082-52.949 125.678l-32.733 35.75c-2.346-4.35-5.336-8.387-8.936-11.986l-23.879-23.879c.307-.779.622-1.554.911-2.343 1.424-3.89-.574-8.198-4.464-9.622-3.888-1.423-8.196.574-9.622 4.463-12.763 34.848-46.284 58.261-83.412 58.261s-70.649-23.413-83.412-58.261c-1.425-3.889-5.732-5.886-9.622-4.463-3.89 1.424-5.888 5.732-4.464 9.622 14.92 40.734 54.101 68.102 97.498 68.102 5.388 0 10.71-.424 15.929-1.241l31.379 31.379c4.955 4.955 10.691 8.704 16.816 11.26l-15.572 17.006c-12.621 13.782-29.864 21.373-48.553 21.373s-35.932-7.591-48.553-21.375l-47.293-51.65c-2.798-3.056-7.543-3.264-10.596-.466-3.056 2.797-3.265 7.541-.467 10.596l47.293 51.65c15.272 16.679 37.002 26.245 59.616 26.245s44.344-9.566 59.615-26.245l21.241-23.198c1.193.081 2.388.136 3.583.136 12.771 0 25.48-4.643 35.227-13.981 10.06-9.639 15.682-22.61 15.831-36.525.031-2.916-.193-5.791-.634-8.612l38.335-41.868c35.004-38.228 54.67-84.961 56.872-135.15 2.037-46.391-11.358-93.428-37.716-132.443zm-83.065 343.768c-14.148 13.557-37.194 13.05-51.373-1.128l-24.904-24.904c.036-.038.073-.074.109-.112 9.29-3.148 18.065-7.575 26.062-13.127l14.868 14.867c1.465 1.464 3.385 2.197 5.304 2.197s3.839-.732 5.304-2.197c2.929-2.929 2.929-7.678 0-10.606l-13.74-13.739c7.266-6.783 13.584-14.629 18.696-23.344.016-.013.032-.024.047-.037l20.197 20.197c6.965 6.966 10.744 16.228 10.639 26.08-.105 9.846-4.086 19.028-11.209 25.853z"/><path d="m93.871 351.578c-27.962-30.538-45.675-67.517-51.226-106.938-5.194-36.887.175-74.815 15.524-109.683 15.35-34.868 39.697-64.44 70.41-85.521 32.824-22.528 72.059-34.436 113.465-34.436h27.926c55.839 0 107.265 21.73 144.805 61.188 2.855 3.001 7.602 3.12 10.604.264 3.001-2.855 3.119-7.602.264-10.603-40.401-42.463-95.686-65.849-155.673-65.849h-27.926c-44.45 0-86.621 12.818-121.953 37.069-33.016 22.661-59.175 54.42-75.65 91.844-16.476 37.424-22.232 78.165-16.649 117.818 5.975 42.435 24.999 82.193 55.018 114.977l42.642 46.57c1.479 1.616 3.503 2.435 5.533 2.435 1.809 0 3.624-.651 5.062-1.969 3.056-2.797 3.265-7.541.467-10.596z"/><path d="m116.328 142.501c2.737 0 5.376-1.504 6.697-4.113 5.351-10.567 14.496-18.418 25.752-22.106 11.256-3.689 23.274-2.774 33.841 2.578 3.698 1.872 8.209.393 10.08-3.303 1.871-3.695.393-8.208-3.303-10.079-14.143-7.161-30.226-8.387-45.289-3.45-15.063 4.936-27.303 15.443-34.464 29.584-1.871 3.695-.392 8.208 3.304 10.079 1.086.55 2.243.81 3.382.81z"/><path d="m329.396 118.859c10.566-5.351 22.584-6.267 33.841-2.578 11.256 3.688 20.401 11.539 25.752 22.106 1.321 2.609 3.96 4.113 6.697 4.113 1.14 0 2.296-.26 3.382-.811 3.695-1.871 5.175-6.384 3.304-10.079-7.161-14.142-19.4-24.648-34.464-29.584-15.064-4.937-31.147-3.71-45.289 3.45-3.695 1.871-5.174 6.384-3.303 10.079 1.871 3.697 6.382 5.174 10.08 3.304z"/></g></g><g/><g/><g/><g/><g/><g/><g/><g/><g/><g/><g/><g/><g/><g/><g/></svg>