<svg id="Capa_1" enable-background="new 0 0 512 512" viewBox="0 0 512 512" xmlns="http://www.w3.org/2000/svg"><g><g><g><g><g><g><path d="m310.078 480.69 113.583-124.047c122.42-133.698 27.574-349.143-153.704-349.143h-27.926c-181.279 0-276.125 215.445-153.705 349.143l113.583 124.047c29.069 31.747 79.101 31.747 108.169 0z" fill="#00f2a6"/></g><g><path d="m295.805 9.005c129.218 53.222 180.739 227.465 75.271 342.65l-136.92 149.535c26.146 8.121 55.972 1.29 75.923-20.499l113.583-124.047c116.458-127.189 36.292-328.35-127.857-347.639z" fill="#05e39c"/></g><g><g><path d="m343.693 312.788h-48.032c-8.284 0-15-6.716-15-15v-30.408c0-50.086 40.603-90.688 90.688-90.688h48.032c8.284 0 15 6.716 15 15v30.408c.001 50.086-40.602 90.688-90.688 90.688z" fill="#3e5959"/></g><g><path d="m419.382 176.692h-18.657v34.584c0 37.275-30.218 67.493-67.493 67.493h-52.571v19.02c0 8.284 6.716 15 15 15h48.032c50.086 0 90.689-40.603 90.689-90.689v-30.408c0-8.285-6.716-15-15-15z" fill="#384949"/></g><g><path d="m216.326 312.788h-48.032c-50.086 0-90.688-40.603-90.688-90.689v-30.408c0-8.284 6.716-15 15-15h48.032c50.086 0 90.688 40.603 90.688 90.688v30.408c0 8.285-6.716 15.001-15 15.001z" fill="#3e5959"/></g><g><g><path d="m168.294 312.788h48.032c8.284 0 15-6.716 15-15v-19.02h-133.809c16.615 20.735 42.138 34.02 70.777 34.02z" fill="#384949"/></g></g></g></g></g></g><g><g><path d="m123.942 295.719-31.332 46.573c-20.134 29.929 1.313 70.203 37.383 70.203 36.071 0 57.517-40.275 37.383-70.203l-31.331-46.574c-2.89-4.296-9.213-4.296-12.103.001z" fill="#01c0fa"/></g><g><path d="m167.377 342.292-31.331-46.574c-2.891-4.297-9.214-4.297-12.104 0l-10.76 15.994 15.511 23.057c17.866 26.558 2.978 61.239-25.803 68.719 7.357 5.577 16.604 9.006 27.104 9.006 36.07.002 57.517-40.273 37.383-70.202z" fill="#08a9f1"/></g></g></g><g><path d="m255.994 357.669c-27.616 0-51.354 18.751-57.727 45.599-.957 4.03 1.535 8.073 5.565 9.029 4.03.955 8.072-1.536 9.029-5.565 4.761-20.056 22.497-34.063 43.132-34.063s38.372 14.007 43.132 34.063c.818 3.448 3.896 5.77 7.291 5.77.573 0 1.156-.066 1.738-.205 4.03-.957 6.522-5 5.565-9.029-6.371-26.848-30.11-45.599-57.725-45.599z"/><path d="m211.19 126.697c-8.375 8.375-19.511 12.988-31.356 12.988s-22.98-4.613-31.356-12.988c-2.928-2.929-7.677-2.929-10.606 0s-2.929 7.678 0 10.606c11.208 11.209 26.111 17.382 41.962 17.382s30.754-6.173 41.962-17.382c2.929-2.929 2.929-7.678 0-10.606-2.928-2.929-7.677-2.929-10.606 0z"/><path d="m374.115 137.303c2.929-2.929 2.929-7.678 0-10.606-2.929-2.929-7.678-2.929-10.606 0-8.375 8.375-19.511 12.988-31.356 12.988s-22.98-4.613-31.356-12.988c-2.929-2.929-7.678-2.929-10.606 0-2.929 2.929-2.929 7.678 0 10.606 11.208 11.209 26.111 17.382 41.962 17.382s30.754-6.173 41.962-17.382z"/><path d="m441.882 222.1v-30.408c0-12.407-10.093-22.5-22.5-22.5h-48.032c-54.141 0-98.188 44.047-98.188 98.188v30.408c0 12.407 10.093 22.5 22.5 22.5h48.032c54.141 0 98.188-44.047 98.188-98.188zm-153.721 75.688v-30.408c0-45.87 37.318-83.188 83.188-83.188h48.032c4.136 0 7.5 3.364 7.5 7.5v30.408c0 45.87-37.318 83.188-83.188 83.188h-48.032c-4.136 0-7.5-3.364-7.5-7.5z"/><path d="m37.43 174.922c.596.145 1.192.214 1.778.214 3.379 0 6.448-2.3 7.282-5.729 10.344-42.531 34.266-81.174 67.36-108.811 35.721-29.829 80.045-45.596 128.181-45.596h27.926c55.838 0 107.264 21.73 144.805 61.188 2.856 3.001 7.603 3.119 10.604.264 3-2.855 3.119-7.603.264-10.604-40.401-42.463-95.687-65.848-155.673-65.848h-27.926c-51.694 0-99.343 16.973-137.795 49.083-35.54 29.679-61.224 71.152-72.321 116.779-.979 4.025 1.49 8.081 5.515 9.06z"/><path d="m448.348 94.114c-2.319-3.432-6.98-4.333-10.414-2.016-3.432 2.319-4.335 6.981-2.016 10.414 24.57 36.368 37.057 80.188 35.161 123.389-2.046 46.624-20.356 90.082-52.949 125.678l-113.583 124.046c-12.621 13.784-29.864 21.375-48.553 21.375s-35.932-7.591-48.553-21.375l-55.301-60.396c10.172-4.671 18.662-12.608 24.242-23.087 9.288-17.441 8.248-37.642-2.782-54.037l-12.163-18.08c2.279.16 4.564.262 6.856.262h48.032c12.407 0 22.5-10.093 22.5-22.5v-30.407c0-54.141-44.047-98.188-98.188-98.188h-48.031c-12.407 0-22.5 10.093-22.5 22.5v30.408c0 31.97 15.101 61.19 40.75 79.635l-24.468 36.372c-.6.892-1.16 1.799-1.701 2.712-31.667-39.564-47.05-88.142-43.432-138.06.299-4.131-2.807-7.723-6.938-8.022-4.132-.294-7.723 2.807-8.022 6.938-4.098 56.542 14.408 111.46 52.149 155.11-1.17 5.602-1.402 11.39-.641 17.239.534 4.107 4.291 7.008 8.405 6.469 4.107-.535 7.004-4.298 6.469-8.405-1.174-9.02.955-17.875 6.157-25.607l31.16-46.32 31.16 46.32c7.882 11.715 8.625 26.15 1.988 38.613s-19.028 19.904-33.148 19.904c-8.202 0-15.916-2.512-22.308-7.264-3.325-2.472-8.022-1.78-10.494 1.543-2.472 3.324-1.78 8.022 1.543 10.494 8.999 6.69 19.807 10.227 31.258 10.227 1.987 0 3.949-.11 5.882-.318l60.503 66.077c15.272 16.677 37.001 26.243 59.616 26.243s44.344-9.566 59.616-26.245l113.583-124.047c35.003-38.228 54.669-84.961 56.872-135.15 2.035-46.392-11.359-93.429-37.717-132.444zm-318.354 190.882c-4.018 0-7.807 1.622-10.563 4.435-21.611-15.64-34.325-40.329-34.325-67.331v-30.408c0-4.136 3.364-7.5 7.5-7.5h48.032c45.87 0 83.188 37.318 83.188 83.188v30.408c0 4.136-3.364 7.5-7.5 7.5h-48.032c-6.114 0-12.189-.666-18.101-1.976l-7.924-11.779c-2.753-4.094-7.342-6.537-12.275-6.537z"/></g></g><g/><g/><g/><g/><g/><g/><g/><g/><g/><g/><g/><g/><g/><g/><g/></svg>