<svg id="Capa_1" enable-background="new 0 0 512 512" viewBox="0 0 512 512" xmlns="http://www.w3.org/2000/svg"><g><g><path d="m434.404 147.724h-53.776c-31.767 0-57.612-25.845-57.612-57.612 0-25.114 16.159-46.514 38.622-54.381-30.16-17.756-65.919-28.231-105.881-28.231h-27.926c-181.279 0-276.125 215.445-153.705 349.143l113.583 124.047c29.068 31.746 79.1 31.746 108.169 0l113.583-124.047c57.471-62.766 67.056-143.546 42.297-211.595-5.479 1.735-11.308 2.676-17.354 2.676z" fill="#00f2a6"/><g fill="#05e39c"><path d="m361.633 35.732c-23.498-13.832-50.393-23.245-80.028-26.727 22.713 9.355 43.022 22.454 60.503 38.309 5.621-5.064 12.242-9.03 19.525-11.582z"/><path d="m434.404 147.724h-29.678c19.588 66.908 7.449 143.537-47.85 203.931l-136.92 149.535c26.146 8.121 55.972 1.29 75.923-20.499l113.583-124.047c57.472-62.766 67.055-143.546 42.294-211.594-5.48 1.733-11.308 2.674-17.352 2.674z"/></g><g><g><circle cx="150.794" cy="241" fill="#3e5959" r="30"/></g><g><path d="m152.409 211.044c4.729 5.303 7.607 12.292 7.607 19.956 0 16.569-13.431 30-30 30-.542 0-1.08-.016-1.615-.044 5.494 6.161 13.489 10.044 22.393 10.044 16.569 0 30-13.431 30-30 0-16.027-12.568-29.116-28.385-29.956z" fill="#384949"/></g><g><circle cx="332.794" cy="241" fill="#3e5959" r="30"/></g><g><path d="m334.409 211.044c4.729 5.303 7.607 12.292 7.607 19.956 0 16.569-13.431 30-30 30-.542 0-1.08-.016-1.615-.044 5.494 6.161 13.489 10.044 22.393 10.044 16.569 0 30-13.431 30-30 0-16.026-12.568-29.116-28.385-29.956z" fill="#384949"/></g></g><g><g><path d="m434.404 148.724h-53.776c-32.237 0-58.612-26.375-58.612-58.612 0-32.237 26.375-58.612 58.612-58.612h53.776c32.237 0 58.612 26.375 58.612 58.612 0 32.237-26.376 58.612-58.612 58.612z" fill="#eef5f6"/></g><g><path d="m462.398 38.668c3.595 7.58 5.617 16.036 5.617 24.944 0 32.237-26.375 58.612-58.612 58.612h-77.728c10.506 15.928 28.55 26.5 48.952 26.5h53.776c32.237 0 58.612-26.375 58.612-58.612.001-22.115-12.414-41.469-30.617-51.444z" fill="#deecf1"/></g></g></g><g><path d="m189.294 387c0 4.142 3.358 7.5 7.5 7.5h90c4.142 0 7.5-3.358 7.5-7.5s-3.358-7.5-7.5-7.5h-90c-4.142 0-7.5 3.358-7.5 7.5z"/><path d="m186.794 110.712h-73c-4.142 0-7.5 3.358-7.5 7.5s3.358 7.5 7.5 7.5h73c4.142 0 7.5-3.358 7.5-7.5s-3.358-7.5-7.5-7.5z"/><path d="m150.794 203.5c-20.678 0-37.5 16.822-37.5 37.5s16.822 37.5 37.5 37.5 37.5-16.822 37.5-37.5-16.822-37.5-37.5-37.5zm0 60c-12.407 0-22.5-10.093-22.5-22.5s10.093-22.5 22.5-22.5 22.5 10.093 22.5 22.5-10.093 22.5-22.5 22.5z"/><path d="m370.294 241c0-20.678-16.822-37.5-37.5-37.5s-37.5 16.822-37.5 37.5 16.822 37.5 37.5 37.5 37.5-16.822 37.5-37.5zm-60 0c0-12.407 10.093-22.5 22.5-22.5s22.5 10.093 22.5 22.5-10.093 22.5-22.5 22.5-22.5-10.093-22.5-22.5z"/><path d="m330.062 432.251-39.715 43.375c-12.621 13.783-29.864 21.374-48.553 21.374s-35.932-7.591-48.553-21.375l-113.583-124.047c-22.333-24.392-37.893-52.248-46.246-82.796-7.827-28.622-9.025-58.217-3.562-87.963.749-4.074-1.948-7.983-6.021-8.731-4.071-.75-7.983 1.947-8.731 6.021-5.874 31.979-4.58 63.817 3.846 94.629 8.987 32.87 25.693 62.803 49.652 88.97l113.583 124.047c15.271 16.679 37 26.245 59.615 26.245s44.344-9.566 59.616-26.245l39.715-43.375c2.797-3.055 2.588-7.799-.466-10.596-3.055-2.797-7.8-2.587-10.597.467z"/><path d="m500.516 90.112c0-36.454-29.658-66.112-66.112-66.112h-7.388c-4.142 0-7.5 3.358-7.5 7.5s3.358 7.5 7.5 7.5h7.388c28.183 0 51.112 22.929 51.112 51.112s-22.929 51.112-51.112 51.112h-53.776c-28.183 0-51.112-22.929-51.112-51.112s22.928-51.112 51.111-51.112h11.388c4.142 0 7.5-3.358 7.5-7.5s-3.358-7.5-7.5-7.5h-11.388c-6.737 0-13.239 1.019-19.368 2.9-31.925-17.834-67.393-26.9-105.502-26.9h-27.926c-47.281 0-91.653 14.391-128.318 41.616-34.287 25.459-60.21 60.563-74.967 101.517-1.404 3.897.617 8.194 4.514 9.599.84.302 1.698.446 2.542.446 3.073 0 5.955-1.902 7.056-4.959 13.753-38.167 37.888-70.866 69.797-94.559 34.06-25.292 75.34-38.66 119.376-38.66h27.926c31.699 0 61.408 6.705 88.523 19.927-17.915 11.84-29.764 32.15-29.764 55.185 0 7.192 1.17 14.113 3.304 20.6h-21.025c-4.142 0-7.5 3.358-7.5 7.5s3.358 7.5 7.5 7.5h28.169c11.765 18.331 32.312 30.512 55.664 30.512h53.776c4.388 0 8.675-.44 12.826-1.259 22.365 69.279 6.415 142.319-43.3 196.614l-50.156 54.777c-2.797 3.055-2.588 7.799.466 10.596 1.439 1.318 3.254 1.969 5.063 1.969 2.03 0 4.054-.82 5.533-2.435l50.156-54.777c53.426-58.349 70.563-136.852 46.522-211.323 22.968-10.373 39.002-33.479 39.002-60.274z"/><circle cx="371.516" cy="90.11" r="7.5"/><circle cx="407.516" cy="90.11" r="7.5"/><circle cx="443.516" cy="90.11" r="7.5"/></g></g><g/><g/><g/><g/><g/><g/><g/><g/><g/><g/><g/><g/><g/><g/><g/></svg>