<svg id="Capa_1" enable-background="new 0 0 512 512" viewBox="0 0 512 512" xmlns="http://www.w3.org/2000/svg"><g><g><g><g><path d="m324.196 480.69 113.583-124.047c122.42-133.698 27.574-349.143-153.705-349.143h-27.926c-181.278 0-276.124 215.445-153.704 349.143l113.583 124.047c29.068 31.747 79.1 31.747 108.169 0z" fill="#00f2a6"/></g><g><path d="m309.922 9.005c129.218 53.222 180.739 227.465 75.271 342.65l-136.92 149.535c26.146 8.121 55.972 1.29 75.923-20.499l113.583-124.047c116.459-127.189 36.292-328.35-127.857-347.639z" fill="#05e39c"/></g><g><path d="m442.672 206h-132.893c-8.284 0-15 6.716-15 15v53.788c0 8.284 6.716 15 15 15h48.032c5.066 0 10.026-.438 14.866-1.237l6.595-7.348c.785-7.206 3.97-14.226 9.65-19.764 10.469-10.209 26.59-11.983 38.968-4.801 10.347-12.588 17.383-28.001 19.738-44.919.42-3.018-1.909-5.719-4.956-5.719z" fill="#3e5959"/><path d="m442.672 206h-30.198c-7.786 28.674-33.985 49.769-65.125 49.769h-52.571v19.02c0 8.284 6.716 15 15 15h48.032c5.066 0 10.027-.438 14.866-1.237l6.594-7.348c.785-7.206 3.97-14.226 9.65-19.764 10.469-10.209 26.59-11.983 38.968-4.801 10.347-12.588 17.383-28.001 19.738-44.919.422-3.019-1.907-5.72-4.954-5.72z" fill="#384949"/><path d="m230.444 206h-130.74c-1.911 2.928-4.167 5.636-6.729 8.05 7.131 42.968 44.447 75.738 89.437 75.738h48.032c8.284 0 15-6.716 15-15v-53.788c0-8.284-6.716-15-15-15z" fill="#3e5959"/><g><g><path d="m182.412 289.788h48.032c8.284 0 15-6.716 15-15v-19.02h-133.81c16.616 20.735 42.139 34.02 70.778 34.02z" fill="#384949"/></g></g><g><path d="m143.674 206c-.622 2.228-.961 4.574-.961 7 0 14.359 11.641 26 26 26s26-11.641 26-26c0-2.426-.339-4.772-.961-7z" fill="#7ca1b1"/></g><g><path d="m193.752 206h-19.936c-1.48 12.871-12.353 22.879-25.593 22.994 4.759 6.088 12.165 10.006 20.491 10.006 14.359 0 26-11.641 26-26-.001-2.426-.34-4.772-.962-7z" fill="#678d98"/></g><g><path d="m346.47 206c-.622 2.228-.961 4.574-.961 7 0 14.359 11.641 26 26 26s26-11.641 26-26c0-2.426-.339-4.772-.961-7z" fill="#7ca1b1"/></g><g><path d="m396.548 206h-19.733c-1.487 12.936-12.462 22.984-25.793 22.999 4.759 6.085 12.163 10.001 20.487 10.001 14.359 0 26-11.641 26-26 0-2.426-.339-4.772-.961-7z" fill="#678d98"/></g></g><g><g><path d="m208.63 414h52.802l38.97-43.422c-9.459-3.348-19.656-5.179-30.291-5.179-27.845 0-52.706 12.511-69.103 32.119-5.469 6.54-.903 16.482 7.622 16.482z" fill="#3e5959"/></g></g><g><g><g><path d="m431.534 259.101c-12.69-9.92-31.08-8.907-42.612 2.339-5.68 5.539-8.865 12.559-9.65 19.764l-119.184 132.796h64.271c4.26 0 8.318-1.811 11.163-4.981l83.054-92.54c6.413-1.41 12.462-4.762 17.182-10.022 12.492-13.918 10.763-35.642-4.224-47.356z" fill="#fff"/></g><g><g><path d="m435.755 263.033c-3.196-3.542-6.946-6.186-10.968-7.977 2.856 10.323.562 21.839-7.124 30.401-3.855 4.295-8.596 7.318-13.698 9.05-2.443.829-4.639 2.256-6.364 4.175l-103.622 115.318h30.379c4.26 0 8.318-1.811 11.163-4.981l83.054-92.54c7.023-1.544 13.609-5.417 18.492-11.574 9.769-12.316 9.217-30.2-1.312-41.872z" fill="#deecf1"/></g></g></g></g><g><g><path d="m57.137 112.137-30.498 45.335c-19.598 29.133 1.278 68.336 36.389 68.336 35.111 0 55.987-39.204 36.389-68.336l-30.498-45.335c-2.814-4.183-8.969-4.183-11.782 0z" fill="#01c0fa"/></g><g><path d="m99.417 157.472-30.498-45.335c-2.814-4.183-8.969-4.183-11.783 0l-10.474 15.569 15.099 22.444c17.391 25.852 2.899 59.61-25.117 66.891 7.161 5.429 16.162 8.767 26.383 8.767 35.112 0 55.988-39.204 36.39-68.336z" fill="#08a9f1"/></g></g><g><g><path d="m127.956 10.097-25.25 37.534c-16.226 24.12 1.058 56.578 30.127 56.578 29.07 0 46.353-32.458 30.127-56.578l-25.25-37.534c-2.328-3.463-7.424-3.463-9.754 0z" fill="#01c0fa"/></g><g><path d="m162.961 47.631-25.25-37.534c-2.33-3.463-7.425-3.463-9.755 0l-8.671 12.89 12.501 18.582c14.398 21.403 2.4 49.353-20.795 55.381 5.929 4.495 13.381 7.258 21.843 7.258 29.069.001 46.353-32.457 30.127-56.577z" fill="#08a9f1"/></g></g></g></g><g><path d="m456.047 85.111c-2.489-3.311-7.189-3.978-10.502-1.49-3.312 2.488-3.979 7.19-1.49 10.501 27.427 36.496 42.095 81.451 41.301 126.583-.854 48.606-19.22 93.861-53.108 130.873l-113.584 124.047c-12.621 13.784-29.864 21.375-48.553 21.375s-35.932-7.591-48.553-21.375l-52.833-57.701c-2.797-3.055-7.541-3.264-10.597-.467-3.055 2.797-3.264 7.542-.467 10.597l52.833 57.701c15.274 16.679 37.003 26.245 59.617 26.245s44.344-9.566 59.615-26.245l113.584-124.047c36.398-39.751 56.123-88.418 57.044-140.739.851-48.456-14.884-96.704-44.307-135.858z"/><path d="m107.975 351.578c-31.034-33.894-49.056-74.797-52.507-118.826 2.474.354 4.994.556 7.56.556 9.126 0 17.722-2.275 25.21-6.472 5.337 18.115 15.866 34.469 30.38 46.893 17.746 15.192 40.402 23.559 63.793 23.559h48.032c12.407 0 22.5-10.093 22.5-22.5v-53.788c0-12.407-10.093-22.5-22.5-22.5h-118.771c5.253-15.118 3.177-31.524-6.032-45.215l-24.395-36.263c4.691-8.353 9.967-16.355 15.744-23.936 8.156 11.745 21.197 18.622 35.845 18.622 16.472 0 30.927-8.68 38.669-23.219s6.875-31.378-2.318-45.045l-4.675-6.949c27.966-14.254 58.747-21.495 91.639-21.495h27.926c52.772 0 100.329 18.646 137.528 53.922 1.451 1.376 3.307 2.058 5.16 2.058 1.985 0 3.969-.784 5.443-2.339 2.85-3.005 2.724-7.752-.281-10.603-40.039-37.969-91.165-58.038-147.851-58.038h-27.926c-35.928 0-69.561 8.052-100.082 23.945l-12.132-18.034c-2.49-3.702-6.639-5.911-11.1-5.911s-8.61 2.209-11.101 5.911l-25.25 37.535c-6.974 10.367-9.145 22.557-6.413 34.186-6.844 8.331-13.084 17.209-18.661 26.511-2.42-1.698-5.334-2.643-8.382-2.643-4.868 0-9.396 2.412-12.113 6.451l-16.551 24.603c-2.312 3.437-1.4 8.097 2.037 10.41 3.437 2.312 8.097 1.4 10.41-2.037l16.219-24.109 30.166 44.841c7.63 11.342 8.35 25.316 1.925 37.381s-18.421 19.269-32.09 19.269c-12.164 0-23.063-5.712-29.905-15.673-6.841-9.96-8.396-22.484-4.159-33.502 1.486-3.866-.442-8.206-4.309-9.692-3.869-1.485-8.206.442-9.692 4.309-6.011 15.632-3.844 33.344 5.796 47.378 5.068 7.378 11.714 13.09 19.352 16.877 2.503 49.649 22.083 95.786 56.801 133.703l37.102 40.52c1.479 1.616 3.503 2.435 5.533 2.435 1.809 0 3.624-.651 5.063-1.969 3.055-2.797 3.264-7.541.466-10.596zm.954-299.76 23.904-35.534 23.905 35.534c6.046 8.988 6.616 20.062 1.525 29.623s-14.598 15.269-25.43 15.269-20.338-5.708-25.429-15.269-4.521-20.636 1.525-29.623zm78.277 161.682c-.266 9.97-8.46 18-18.493 18s-18.227-8.03-18.493-18zm-83.611 0h31.63c.269 18.242 15.183 33 33.487 33s33.218-14.758 33.487-33h28.243c4.136 0 7.5 3.365 7.5 7.5v53.788c0 4.135-3.364 7.5-7.5 7.5h-48.032c-19.817 0-39.008-7.086-54.039-19.954-13.908-11.906-23.498-28.062-27.288-45.812.871-.971 1.711-1.977 2.512-3.022z"/><path d="m214.659 102.621c-6.328 23.619-30.69 37.686-54.31 31.355-3.997-1.067-8.113 1.302-9.186 5.304-1.072 4.001 1.303 8.113 5.304 9.186 5.125 1.373 10.274 2.029 15.345 2.029 26.199 0 50.24-17.51 57.336-43.992 1.072-4.001-1.303-8.113-5.303-9.186-3.999-1.067-8.113 1.302-9.186 5.304z"/><path d="m368.41 150.494c5.069 0 10.222-.656 15.346-2.029 4.001-1.072 6.375-5.185 5.303-9.186-1.071-4.001-5.183-6.373-9.186-5.304-23.612 6.33-47.98-7.736-54.311-31.356-1.071-4.001-5.184-6.373-9.186-5.303-4.001 1.072-6.375 5.185-5.303 9.186 7.098 26.484 31.136 43.992 57.337 43.992z"/><path d="m452.098 202.793c-2.374-2.729-5.81-4.293-9.426-4.293h-132.894c-12.406 0-22.5 10.093-22.5 22.5v53.788c0 12.407 10.094 22.5 22.5 22.5h44.981l-57.759 64.355c-8.714-2.476-17.734-3.743-26.889-3.743-29.074 0-56.358 12.687-74.856 34.807-4.435 5.303-5.376 12.479-2.457 18.727 2.901 6.209 8.968 10.066 15.832 10.066h115.728c6.381 0 12.483-2.723 16.745-7.472l81.53-90.843c7.221-2.065 13.647-6.083 18.706-11.718 7.373-8.216 11.046-19.237 10.076-30.238-.897-10.164-5.487-19.325-12.994-26.112 8.793-12.626 14.512-27.121 16.632-42.362.504-3.595-.574-7.226-2.955-9.962zm-62.096 10.707c-.267 9.97-8.46 18-18.493 18s-18.227-8.03-18.493-18zm-25.788 95.71 8.488 7.618-16.745 18.657-8.488-7.618zm-26.763 29.82 8.488 7.618-16.745 18.657-8.489-7.618zm-128.821 67.47c-1.306 0-1.941-.771-2.243-1.417-.258-.553-.553-1.645.374-2.753 15.64-18.703 38.73-29.43 63.35-29.43 5.23 0 10.404.498 15.482 1.453l-28.851 32.147zm68.267 0 33.79-37.649 8.489 7.618-26.953 30.031zm153.279-105.052c-3.512 3.914-8.08 6.579-13.211 7.706-1.533.337-2.923 1.147-3.972 2.316l-83.054 92.54c-1.42 1.583-3.454 2.49-5.581 2.49h-11.98l104.774-116.741c2.767-3.083 2.51-7.824-.572-10.591-3.084-2.767-7.825-2.511-10.592.572l-23.267 25.924-8.488-7.618 10.62-11.833c1.049-1.168 1.704-2.637 1.874-4.198.634-5.827 3.203-11.084 7.43-15.207 8.892-8.671 22.976-9.447 32.757-1.799 5.55 4.337 8.945 10.566 9.56 17.537.615 6.979-1.621 13.692-6.298 18.902zm-4.579-54.153c-14.154-5.275-30.637-2.219-41.912 8.776-6.046 5.896-10.078 13.566-11.515 21.818l-3.259 3.631c-3.726.501-7.449.769-11.101.769h-48.032c-4.136 0-7.5-3.365-7.5-7.5v-53.789c0-4.135 3.364-7.5 7.5-7.5h28.243c.27 18.242 15.183 33 33.487 33s33.218-14.758 33.487-33h34.761c-2.124 12.166-6.968 23.703-14.159 33.795z"/></g></g><g/><g/><g/><g/><g/><g/><g/><g/><g/><g/><g/><g/><g/><g/><g/></svg>