<svg id="Capa_1" enable-background="new 0 0 512 512" viewBox="0 0 512 512" xmlns="http://www.w3.org/2000/svg"><g><g><g><path d="m310.084 480.69 113.583-124.047c122.42-133.698 27.574-349.143-153.704-349.143h-27.926c-181.279 0-276.124 215.445-153.704 349.143l113.583 124.047c29.068 31.747 79.1 31.747 108.168 0z" fill="#00f2a6"/></g><g fill="#05e39c"><path d="m407.804 117.906c16.347-5.701 34.115-3.675 48.564 4.805-29.52-59.263-86.486-105.002-160.557-113.706 51.142 21.064 90.108 61.087 111.993 108.901z"/><path d="m455.968 223.189-30.812 17.789c-6.12 38.931-23.499 77.285-54.074 110.677l-136.92 149.535c26.146 8.121 55.972 1.29 75.923-20.499l113.583-124.047c42.467-46.379 58.782-102.593 54.42-156.239-4.943 9.196-12.414 17.18-22.12 22.784z"/></g><g><path d="m254.442 406.115c44.103.68 81.18-27.608 90.37-65.606 2.27-9.385-4.824-18.435-14.479-18.508h-148.429c-9.697-.074-16.98 7.823-14.735 17.257 8.911 37.443 44.245 66.194 87.273 66.857z" fill="#3e5959"/></g><g><path d="m254.442 406.115c44.103.68 81.18-27.608 90.37-65.606 2.27-9.385-4.824-18.435-14.479-18.508h-148.429c-9.697-.074-16.98 7.823-14.735 17.257 8.911 37.443 44.245 66.194 87.273 66.857z" fill="#3e5959"/></g><g><path d="m330.333 322h-18.763c-12.867 39.273-48.905 69.242-93.445 76.364 11.066 4.78 23.337 7.551 36.317 7.751 44.103.68 81.18-27.608 90.37-65.606 2.27-9.385-4.824-18.435-14.479-18.509z" fill="#384949"/></g><g><g><g><path d="m123.084 120.085-3.258 5.644-5.644-3.258c-27.813-16.058-63.377-6.528-79.434 21.284-16.058 27.813-6.528 63.377 21.284 79.434l93.339 53.889c7.193 4.153 16.391 1.688 20.543-5.505l53.889-93.339c16.058-27.813 6.528-63.377-21.284-79.434-27.813-16.057-63.377-6.528-79.435 21.285z" fill="#fe7d43"/></g><g><g><path d="m202.519 98.8c-15.122-8.73-32.53-9.882-47.853-4.659 3.495 1.2 6.929 2.742 10.249 4.659 27.813 16.058 37.342 51.622 21.284 79.434l-52.008 90.08 15.179 8.763c7.193 4.153 16.391 1.688 20.543-5.505l53.889-93.339c16.059-27.811 6.53-63.375-21.283-79.433z" fill="#fd6930"/></g></g></g><g><g><path d="m397.818 122.47-5.644 3.258-3.258-5.644c-16.058-27.813-51.622-37.342-79.434-21.284-27.813 16.058-37.342 51.622-21.284 79.434l53.889 93.339c4.153 7.193 13.35 9.657 20.543 5.505l93.339-53.889c27.813-16.058 37.342-51.622 21.284-79.434-16.059-27.813-51.623-37.343-79.435-21.285z" fill="#fe7d43"/></g><g><g><path d="m477.252 143.754c-12.168-21.075-35.534-31.639-58.243-28.541 6.686 4.709 12.489 10.897 16.846 18.445 16.058 27.813 6.528 63.377-21.284 79.434l-79.687 46.007 7.201 12.473c4.153 7.193 13.35 9.657 20.543 5.505l93.339-53.889c27.814-16.057 37.343-51.621 21.285-79.434z" fill="#fd6930"/></g></g></g></g><g><path d="m257.095 355.822c-23.678-.506-43.71 15.452-49.445 37.214 13.563 8.032 29.557 12.814 46.793 13.079 18.304.282 35.387-4.437 49.779-12.757-5.675-21.081-24.402-37.051-47.127-37.536z" fill="#fead8a"/></g><g><path d="m284.678 365.064c-17.312 17.126-40.476 29.134-66.562 33.302 11.066 4.784 23.344 7.549 36.327 7.749 18.304.282 35.387-4.437 49.779-12.757-3.103-11.528-10.115-21.52-19.544-28.294z" fill="#fd9468"/></g></g><g><path d="m193.399 392.393c17.359 13.537 38.427 20.875 60.928 21.221.544.008 1.086.013 1.629.013 45.812-.001 86.095-29.793 96.146-71.355 1.621-6.703.113-13.668-4.136-19.11-4.257-5.451-10.663-8.608-17.634-8.661h-148.372c-7.269-.042-13.894 3-18.178 8.381-4.021 5.051-5.446 11.653-3.909 18.112 4.759 19.997 16.666 38.251 33.526 51.399zm61.159 6.223c-13.44-.207-26.262-3.335-37.812-9.131 6.506-15.739 21.859-26.175 39.257-26.175.31 0 .621.003.932.01 16.659.356 31.59 10.932 38.103 26.363-12.162 5.919-26.004 9.161-40.48 8.933zm-79.041-66.392c1.381-1.733 3.655-2.724 6.307-2.724h.08 148.373c2.308.017 4.446 1.072 5.868 2.893 1.414 1.811 1.916 4.126 1.378 6.353-4.237 17.521-14.967 32.546-29.532 43.167-9.199-19.734-28.856-33.121-50.735-33.589-23.234-.477-43.917 12.764-53.381 33.175-.416-.312-.839-.614-1.25-.934-14.186-11.062-24.186-26.348-28.159-43.043-.603-2.531.239-4.278 1.051-5.298z"/><path d="m483.747 140.004c-5.395-9.344-12.836-17.043-21.703-22.647-17.415-34.091-43.164-62.865-74.623-83.287-34.335-22.289-74.951-34.07-117.458-34.07h-27.926c-42.507 0-83.123 11.781-117.458 34.07-31.458 20.423-57.208 49.196-74.623 83.287-8.868 5.604-16.309 13.303-21.703 22.647-11.375 19.702-11.337 42.908-1.962 61.927-4.185 58.678 15.826 115.344 56.51 159.776l42.643 46.57c1.479 1.616 3.503 2.435 5.533 2.435 1.809 0 3.624-.651 5.062-1.969 3.056-2.797 3.265-7.541.467-10.596l-42.643-46.57c-33.624-36.722-52.075-82.381-53.071-130.325 3.45 3.156 7.277 5.999 11.49 8.431l20.394 11.774c3.588 2.07 8.175.842 10.245-2.745 2.071-3.587.842-8.174-2.745-10.245l-20.394-11.774c-24.187-13.964-32.503-45.003-18.539-69.189 6.765-11.716 17.687-20.098 30.755-23.599 13.065-3.502 26.717-1.705 38.434 5.061l5.646 3.258c1.723.995 3.771 1.263 5.69.749 1.922-.515 3.56-1.772 4.554-3.495l3.258-5.644c13.965-24.186 45.002-32.505 69.189-18.539 11.717 6.765 20.098 17.687 23.6 30.755s1.704 26.718-5.061 38.435l-53.889 93.339c-1.007 1.744-2.633 2.991-4.577 3.512-1.942.522-3.977.254-5.721-.753l-42.566-24.575c-3.589-2.072-8.175-.842-10.245 2.745-2.071 3.587-.842 8.174 2.745 10.245l42.566 24.575c3.473 2.005 7.327 3.029 11.232 3.029 1.958 0 3.929-.257 5.87-.777 5.815-1.558 10.676-5.288 13.686-10.501l53.889-93.338c8.769-15.187 11.098-32.878 6.56-49.817-4.539-16.938-15.402-31.095-30.589-39.863-31.067-17.938-70.855-7.509-89.186 23.188-13.756-7.68-29.491-10.115-44.833-7.029 15.59-24.893 36.209-46.046 60.498-61.813 31.897-20.707 69.689-31.652 109.289-31.652h27.926c39.601 0 77.393 10.945 109.29 31.651 24.288 15.768 44.907 36.92 60.498 61.813-15.34-3.086-31.077-.65-44.833 7.029-16.873-28.263-52.102-39.702-82.372-26.601-3.801 1.646-5.549 6.061-3.903 9.862s6.06 5.548 9.862 3.903c23.573-10.205 51.055-1.102 63.917 21.176l3.258 5.644c.994 1.723 2.632 2.98 4.554 3.495 1.921.516 3.969.246 5.69-.749l5.646-3.259c11.718-6.765 25.369-8.561 38.434-5.06 13.068 3.501 23.99 11.883 30.755 23.599 13.964 24.187 5.647 55.225-18.539 69.189l-93.339 53.889c-1.745 1.007-3.777 1.274-5.721.753s-3.57-1.768-4.577-3.512l-53.889-93.338c-9.312-16.129-9.03-36.016.735-51.9 2.17-3.529 1.068-8.148-2.461-10.317-3.527-2.168-8.146-1.067-10.316 2.461-12.654 20.582-13.018 46.354-.948 67.257l53.889 93.338c3.01 5.214 7.87 8.944 13.686 10.502 1.941.52 3.912.777 5.87.777 3.905 0 7.76-1.024 11.232-3.029l93.339-53.889c4.213-2.432 8.041-5.275 11.49-8.431-.996 47.944-19.448 93.604-53.072 130.325l-113.585 124.047c-12.621 13.784-29.865 21.375-48.553 21.375s-35.932-7.591-48.553-21.375l-47.293-51.65c-2.798-3.055-7.543-3.264-10.596-.466-3.056 2.797-3.265 7.541-.467 10.596l47.293 51.65c15.272 16.679 37.002 26.245 59.616 26.245s44.344-9.566 59.615-26.245l113.583-124.047c40.685-44.433 60.696-101.098 56.511-159.776 9.375-19.02 9.413-42.226-1.962-61.928z"/></g></g><g/><g/><g/><g/><g/><g/><g/><g/><g/><g/><g/><g/><g/><g/><g/></svg>