<svg id="Capa_1" enable-background="new 0 0 512 512" viewBox="0 0 512 512" xmlns="http://www.w3.org/2000/svg"><g><g><path d="m321.294 405.654c-11.549-19.884-4.768-45.457 15.116-57.006 6.362-3.695 13.591-5.648 20.905-5.648 14.828 0 28.661 7.957 36.102 20.765l2.905 5.003 5.003-2.906c5.807-3.373 12.338-5.275 18.995-5.585l3.327-3.633c122.42-133.699 27.574-349.144-153.705-349.144h-27.926c-181.278 0-276.124 215.445-153.704 349.143l113.583 124.047c29.068 31.746 79.1 31.746 108.169 0l33.539-36.629z" fill="#00f2a6"/><g fill="#05e39c"><path d="m320.712 406.643-86.571 94.547c26.146 8.121 55.972 1.29 75.923-20.499l32.831-35.856z"/><path d="m375.875 346.23c7.449 3.577 13.942 9.347 18.406 17.032l2.404 4.138 4.138-2.404c6.455-3.749 13.486-5.612 20.456-5.768l2.368-2.586c116.459-127.187 36.292-328.348-127.857-347.637 127.206 52.393 179.115 222.067 80.085 337.225z"/></g><g><g><path d="m216.312 306.418h-48.032c-50.086 0-90.688-40.603-90.688-90.689v-30.408c0-8.284 6.716-15 15-15h48.032c50.086 0 90.688 40.603 90.688 90.689v30.408c0 8.285-6.716 15-15 15z" fill="#3e5959"/></g><g><g><path d="m168.28 306.418h48.032c8.284 0 15-6.716 15-15v-19.02h-133.81c16.616 20.736 42.139 34.02 70.778 34.02z" fill="#384949"/></g></g></g><g><g><path d="m400.823 364.997-4.138 2.404-2.404-4.138c-11.845-20.393-37.979-27.323-58.373-15.478-20.393 11.845-27.323 37.979-15.478 58.373l39.752 68.44c3.063 5.274 9.822 7.066 15.096 4.003l68.44-39.752c20.393-11.845 27.323-37.979 15.478-58.373-11.845-20.394-37.98-27.324-58.373-15.479z" fill="#fe7d43"/></g><g><path d="m400.823 364.997-4.138 2.404-2.404-4.138c-11.845-20.393-37.979-27.323-58.373-15.478-20.393 11.845-27.323 37.979-15.478 58.373l39.752 68.44c3.063 5.274 9.822 7.066 15.096 4.003l68.44-39.752c20.393-11.845 27.323-37.979 15.478-58.373-11.845-20.394-37.98-27.324-58.373-15.479z" fill="#fe7d43"/></g><g><g><path d="m459.196 380.475c-8.155-14.041-23.084-21.698-38.249-21.241 11.199 20.27 4.199 45.869-15.925 57.557l-58.635 34.057 13.794 23.749c3.063 5.274 9.822 7.066 15.096 4.003l68.44-39.751c20.394-11.846 27.324-37.981 15.479-58.374z" fill="#fd6930"/></g></g></g><g><g><path d="m282.668 276.63v14.788c0 8.284 6.716 15 15 15h48.032c29.891 0 56.401-14.464 72.921-36.773 2.456-3.317.135-8.015-3.993-8.015h-116.96c-8.284 0-15 6.716-15 15z" fill="#3e5959"/></g><g><path d="m414.628 261.63h-28.895l-4.907 5.052c-10.13 10.432-24.052 16.318-38.593 16.318h-59.564v8.418c0 8.284 6.716 15 15 15h48.031c29.891 0 56.401-14.464 72.921-36.773 2.457-3.317.135-8.015-3.993-8.015z" fill="#384949"/></g></g></g><g><path d="m115.135 129.36c23.752-22.525 61.403-21.528 83.928 2.225 1.476 1.555 3.457 2.339 5.443 2.339 1.854 0 3.71-.683 5.16-2.058 3.005-2.85 3.131-7.597.281-10.603-28.218-29.753-75.381-31.004-105.135-2.786-3.005 2.85-3.131 7.597-.281 10.603 2.853 3.005 7.6 3.13 10.604.28z"/><path d="m312.615 200.937c23.753-22.525 61.403-21.528 83.928 2.225 1.476 1.555 3.457 2.339 5.443 2.339 1.854 0 3.71-.683 5.16-2.058 3.005-2.85 3.131-7.597.281-10.603-28.218-29.753-75.381-31.004-105.135-2.786-3.005 2.85-3.131 7.597-.281 10.603 2.853 3.005 7.6 3.129 10.604.28z"/><path d="m46.995 266.512c-15.504-59.521-1.779-124.79 36.714-174.594 18.271-23.642 40.805-42.35 66.972-55.605 27.919-14.142 58.649-21.313 91.336-21.313h27.926c55.839 0 107.265 21.73 144.805 61.188 2.855 3.002 7.602 3.12 10.604.264 3.001-2.855 3.119-7.602.264-10.603-40.401-42.463-95.686-65.849-155.674-65.849h-27.926c-35.063 0-68.073 7.715-98.114 22.932-28.171 14.27-52.416 34.394-72.062 59.813-41.313 53.453-56.027 123.564-39.36 187.548.879 3.375 3.921 5.611 7.253 5.611.625 0 1.262-.079 1.896-.244 4.008-1.043 6.41-5.139 5.366-9.148z"/><path d="m448.333 94.114c-2.319-3.432-6.981-4.334-10.413-2.016-3.433 2.319-4.335 6.981-2.017 10.414 24.57 36.368 37.058 80.188 35.161 123.389-2.046 46.624-20.355 90.082-52.947 125.676l-.317.346c-6.273.551-12.526 2.294-18.423 5.32-12.533-19.182-36.711-27.561-58.524-19.944-3.911 1.365-5.975 5.642-4.609 9.553s5.646 5.975 9.553 4.609c15.879-5.542 33.539 1.005 41.999 15.568l2.403 4.138c.999 1.72 2.641 2.973 4.562 3.483 1.923.509 3.971.235 5.689-.764l4.139-2.404c16.785-9.749 38.371-4.024 48.121 12.76 9.748 16.785 4.024 38.372-12.76 48.121l-68.439 39.751c-1.69.98-3.864.405-4.846-1.284l-39.751-68.44c-5.534-9.528-6.302-20.855-2.105-31.077 1.574-3.832-.257-8.213-4.089-9.787-3.833-1.574-8.213.258-9.786 4.089-5.981 14.567-4.885 30.717 3.01 44.308l19.696 33.911-29.108 31.79c-12.621 13.785-29.864 21.376-48.553 21.376s-35.932-7.591-48.553-21.375l-113.582-124.047c-14.815-16.178-26.774-34.115-35.546-53.313-1.721-3.767-6.166-5.425-9.938-3.705-3.768 1.722-5.426 6.171-3.704 9.939 9.425 20.625 22.252 39.874 38.126 57.209l113.583 124.047c15.271 16.679 37 26.245 59.614 26.245s44.344-9.566 59.615-26.245l25.94-28.33 12.162 20.939c3.438 5.917 9.67 9.225 16.067 9.225 3.158 0 6.358-.807 9.281-2.504l68.439-39.752c23.937-13.903 32.1-44.688 18.197-68.625-6.761-11.639-17.514-19.546-29.53-23.003 30.63-36.668 47.847-80.405 49.898-127.147 2.038-46.392-11.357-93.429-37.715-132.444z"/><path d="m70.091 185.322v30.408c0 54.141 44.047 98.188 98.188 98.188h48.032c12.406 0 22.5-10.093 22.5-22.5v-30.408c0-54.141-44.047-98.188-98.188-98.188h-48.032c-12.407 0-22.5 10.093-22.5 22.5zm153.72 75.688v30.408c0 4.136-3.364 7.5-7.5 7.5h-48.032c-45.87 0-83.188-37.318-83.188-83.188v-30.408c0-4.136 3.364-7.5 7.5-7.5h48.032c45.87 0 83.188 37.318 83.188 83.188z"/><path d="m263.479 351.5h-15c-4.143 0-7.5 3.358-7.5 7.5s3.357 7.5 7.5 7.5h15c5.514 0 10 4.486 10 10s-4.486 10-10 10c-4.143 0-7.5 3.358-7.5 7.5s3.357 7.5 7.5 7.5c5.514 0 10 4.486 10 10s-4.486 10-10 10h-15c-4.143 0-7.5 3.358-7.5 7.5s3.357 7.5 7.5 7.5h15c13.785 0 25-11.215 25-25 0-6.809-2.739-12.987-7.169-17.5 4.43-4.513 7.169-10.691 7.169-17.5 0-13.785-11.214-25-25-25z"/><path d="m345.7 313.918c30.977 0 60.489-14.882 78.947-39.809 2.842-3.835 3.275-8.861 1.132-13.116-2.133-4.234-6.405-6.864-11.15-6.864h-116.961c-12.406 0-22.5 10.093-22.5 22.5v14.789c0 12.407 10.094 22.5 22.5 22.5zm-55.532-22.5v-14.788c0-4.136 3.364-7.5 7.5-7.5h111.812c-15.732 18.738-39.214 29.789-63.779 29.789h-48.032c-4.137-.001-7.501-3.365-7.501-7.501z"/></g></g><g/><g/><g/><g/><g/><g/><g/><g/><g/><g/><g/><g/><g/><g/><g/></svg>