<svg id="Capa_1" enable-background="new 0 0 512 512" viewBox="0 0 512 512" xmlns="http://www.w3.org/2000/svg"><g><g><path d="m449.871 164.95c-4.719 2.862-7.727 7.86-8.044 13.371l-2.828 49.062c-.502 8.726-7.931 13.941-14.823 13.941-3.517 0-6.823-1.247-9.56-3.606l-37.222-32.087c-3.042-2.623-6.931-4.067-10.948-4.067-1.434 0-2.866.185-4.254.549l-47.534 12.472c-1.277.335-2.573.505-3.851.505-4.884 0-9.454-2.487-12.224-6.652-2.767-4.161-3.236-9.208-1.289-13.849l19.015-45.316c2.135-5.089 1.63-10.9-1.352-15.545l-26.55-41.354c-2.963-4.616-3.166-10.239-.542-15.042 2.636-4.825 7.454-7.706 12.887-7.706.43 0 .865.018 1.306.055l48.974 4.081c.465.039.931.058 1.394.058 5.047 0 9.775-2.241 12.973-6.147l20.798-25.411c-32.204-21.692-71.596-34.762-116.234-34.762h-27.926c-44.638 0-84.03 13.07-116.234 34.76l20.798 25.411c3.197 3.907 7.926 6.147 12.973 6.147.463 0 .928-.02 1.394-.058l48.974-4.081c.441-.037.876-.055 1.306-.055 5.433 0 10.251 2.88 12.887 7.706 2.624 4.803 2.421 10.427-.542 15.042l-26.55 41.354c-2.982 4.645-3.487 10.456-1.352 15.545l19.015 45.316c1.947 4.641 1.478 9.688-1.288 13.848-2.77 4.166-7.339 6.653-12.224 6.653-1.278 0-2.573-.17-3.851-.505l-47.534-12.472c-1.389-.364-2.82-.549-4.254-.549-4.017 0-7.905 1.444-10.948 4.067l-37.222 32.087c-2.737 2.359-6.043 3.606-9.561 3.606-6.891 0-14.32-5.215-14.822-13.941l-2.828-49.062c-.318-5.51-3.325-10.509-8.044-13.371l-18.953-11.495c-21.032 66.217-9.966 142.988 45.156 203.188l113.583 124.049c29.068 31.746 79.1 31.746 108.169 0l113.583-124.047c55.122-60.2 66.188-136.971 45.156-203.188z" fill="#00f2a6"/><path d="m341.714 263.359v4.724c0 18.88-15.306 34.186-34.186 34.186h-103.057c-18.88 0-34.186-15.306-34.186-34.186v-4.724c-8.151 1.655-14.286 8.86-14.286 17.498v18.891c0 54.635 44.682 100.962 99.316 101.327 55.543.372 100.685-44.541 100.685-99.997v-20.22c0-8.64-6.135-15.845-14.286-17.499z" fill="#3e5959"/><g fill="#05e39c"><path d="m369.81 60.702 15.549-18.998c-25.656-17.094-55.828-28.737-89.548-32.699 28.829 11.874 53.786 29.775 73.999 51.697z"/><path d="m450.389 165.805c-4.437 2.691-7.266 7.393-7.564 12.573l-2.828 49.062c-.501 8.698-7.509 14.488-15.056 14.857-6.303 38.477-23.63 76.343-53.859 109.357l-136.92 149.535c26.146 8.121 55.972 1.29 75.923-20.499l113.583-124.047c54.85-59.903 66.079-136.214 45.465-202.206z"/></g><g><g><path d="m341.714 263.362v4.72c0 16.142-11.191 29.661-26.235 33.246-5.164 50.627-48.093 90.078-100.163 89.73-.774-.005-1.546-.022-2.316-.046 12.855 6.338 27.203 9.962 42.316 10.063 55.542.372 100.684-44.541 100.684-99.997v-20.22c0-8.639-6.136-15.841-14.286-17.496z" fill="#384949"/></g><g><path d="m257.134 348.669c-24.499-.523-45.229 15.972-51.191 38.477 14.568 8.705 31.426 13.81 49.374 13.93 18.469.124 35.773-4.783 50.665-13.396-5.835-21.901-25.262-38.507-48.848-39.011z" fill="#fead8a"/></g><g><path d="m288.258 360.188c-18.351 19.177-44.259 31.063-72.942 30.871-.748-.005-1.493-.022-2.237-.044 12.835 6.325 27.148 9.96 42.237 10.061 18.469.124 35.773-4.783 50.665-13.396-2.912-10.932-9.211-20.543-17.723-27.492z" fill="#fd9468"/></g><g><path d="m307.529 302.268c18.88 0 34.186-15.306 34.186-34.186v-4.724c-1.154-.234-2.348-.359-3.571-.359h-164.287c-1.223 0-2.417.124-3.571.359v4.724c0 18.88 15.306 34.186 34.186 34.186z" fill="#fff"/></g><g><path d="m338.143 263h-22.143v28.061c0 3.467-.176 6.892-.521 10.268 15.044-3.585 26.235-17.105 26.235-33.246v-4.723c-1.154-.236-2.348-.36-3.571-.36z" fill="#eef5f6"/></g></g><g><g><g><path d="m423.299 35.383 11.253 47.838c1.188 5.051 4.786 9.194 9.621 11.079l45.787 17.85c12.175 4.747 13.622 21.393 2.449 28.17l-42.019 25.485c-4.437 2.691-7.266 7.393-7.564 12.573l-2.828 49.062c-.752 13.046-16.137 19.567-26.034 11.034l-37.222-32.087c-3.93-3.388-9.276-4.625-14.296-3.309l-47.535 12.472c-12.64 3.316-23.596-9.301-18.539-21.35l19.015-45.316c2.008-4.785 1.533-10.252-1.271-14.618l-26.55-41.354c-7.06-10.996 1.554-25.315 14.576-24.23l48.974 4.081c5.171.431 10.223-1.71 13.51-5.726l31.126-38.03c8.275-10.112 24.554-6.344 27.547 6.376z" fill="#ffe177"/></g><g><path d="m489.959 112.15-36.844-14.364c-15.037 46.392-58.597 79.94-110 79.94-13.035 0-25.566-2.159-37.256-6.136l-9.487 22.61c-5.056 12.05 5.9 24.667 18.539 21.35l47.534-12.472c5.019-1.317 10.365-.08 14.295 3.308l37.222 32.087c9.898 8.532 25.283 2.012 26.034-11.034l2.828-49.062c.299-5.181 3.127-9.882 7.564-12.573l42.019-25.485c11.174-6.775 9.727-23.422-2.448-28.169z" fill="#ffd15b"/></g></g><g><g><path d="m88.701 35.383-11.252 47.838c-1.188 5.051-4.786 9.194-9.621 11.079l-45.787 17.85c-12.175 4.747-13.622 21.393-2.449 28.17l42.019 25.485c4.437 2.691 7.266 7.393 7.564 12.573l2.828 49.062c.752 13.046 16.137 19.567 26.034 11.034l37.222-32.087c3.93-3.388 9.276-4.625 14.296-3.309l47.535 12.472c12.64 3.316 23.596-9.301 18.539-21.35l-19.015-45.316c-2.008-4.785-1.533-10.252 1.271-14.618l26.55-41.354c7.06-10.996-1.554-25.315-14.576-24.23l-48.974 4.081c-5.171.431-10.223-1.71-13.51-5.726l-31.126-38.03c-8.276-10.112-24.556-6.344-27.548 6.376z" fill="#ffe177"/></g><g><path d="m224.435 92.912c7.06-10.996-1.554-25.315-14.576-24.23l-29.447 2.454c-1.411 61.041-50.129 110.38-110.917 112.795l2.508 43.51c.752 13.046 16.137 19.567 26.034 11.034l37.222-32.087c3.93-3.388 9.276-4.625 14.295-3.308l47.535 12.472c12.64 3.316 23.596-9.301 18.539-21.35l-19.015-45.316c-2.008-4.785-1.532-10.252 1.271-14.618z" fill="#ffd15b"/></g></g></g></g><g><path d="m219.5 263c0-4.142-3.358-7.5-7.5-7.5h-38.143c-13.982 0-25.357 11.375-25.357 25.357v18.891c0 28.474 11.116 55.554 31.301 76.251 20.302 20.817 47.102 32.386 75.464 32.576.249.001.493.002.741.002 28.582-.001 55.46-11.075 75.751-31.231 20.469-20.333 31.742-47.419 31.742-76.269v-20.221c0-13.982-11.375-25.357-25.357-25.357h-91.142c-4.142 0-7.5 3.358-7.5 7.5s3.358 7.5 7.5 7.5h87.1c-1.227 13.585-12.672 24.268-26.571 24.268h-103.057c-13.899 0-25.345-10.683-26.571-24.268h34.099c4.142.001 7.5-3.357 7.5-7.499zm35.866 130.575c-14.178-.095-27.912-3.525-40.366-9.915 6.848-16.818 23.394-27.875 41.974-27.493 17.542.375 33.225 11.597 39.904 27.932-12.753 6.291-26.891 9.571-41.512 9.476zm-50.894-83.807h103.057c19.625 0 36.115-13.635 40.521-31.927.291.955.451 1.967.451 3.016v20.221c0 24.825-9.7 48.131-27.313 65.627-3.557 3.533-7.354 6.735-11.347 9.605-9.38-20.63-29.782-34.653-52.546-35.139-24.026-.526-45.46 13.275-55.165 34.483-4.076-3.022-7.954-6.4-11.589-10.127-17.437-17.88-27.04-41.24-27.04-65.778v-18.891c0-1.049.159-2.061.451-3.016 4.405 18.291 20.895 31.926 40.52 31.926z"/><path d="m507.411 124.825c-.773-8.888-6.416-16.422-14.728-19.663l-45.787-17.85c-2.535-.988-4.421-3.16-5.044-5.809l-1.643-6.983c-.948-4.032-4.984-6.533-9.018-5.583-4.032.948-6.532 4.986-5.583 9.018l1.643 6.984c1.754 7.456 7.062 13.568 14.197 16.35l45.787 17.85c2.998 1.168 4.954 3.78 5.232 6.986s-1.197 6.115-3.948 7.784l-42.019 25.484c-6.549 3.972-10.722 10.908-11.163 18.554l-2.828 49.062c-.185 3.212-2.064 5.88-5.027 7.136-2.963 1.255-6.186.75-8.623-1.35l-37.222-32.087c-5.801-5.001-13.687-6.826-21.096-4.882l-47.534 12.472c-3.115.815-6.23-.147-8.339-2.576-2.11-2.43-2.626-5.651-1.381-8.619l19.015-45.315c2.963-7.063 2.262-15.127-1.876-21.572l-26.55-41.354c-1.738-2.708-1.786-5.97-.127-8.728 1.659-2.757 4.561-4.244 7.77-3.977l48.974 4.081c7.633.636 15.085-2.522 19.936-8.45l31.126-38.03c2.038-2.489 5.129-3.542 8.26-2.818 3.135.726 5.446 3.028 6.183 6.161l1.584 6.734c.948 4.032 4.985 6.532 9.018 5.583 4.032-.949 6.532-4.986 5.583-9.018l-1.584-6.734c-2.043-8.684-8.711-15.329-17.402-17.34s-17.6 1.028-23.25 7.932l-6.158 7.523c-33.579-20.81-72.779-31.781-113.826-31.781h-27.926c-41.046 0-80.246 10.971-113.826 31.781l-6.158-7.524c-5.65-6.904-14.557-9.945-23.25-7.931-8.691 2.011-15.359 8.656-17.402 17.34l-11.253 47.837c-.623 2.649-2.509 4.821-5.044 5.81l-45.787 17.85c-8.312 3.241-13.955 10.775-14.728 19.663-.772 8.887 3.486 17.282 11.114 21.908l18.336 11.121c-9.422 33.273-10.853 68.224-4.086 101.466 7.758 38.114 25.539 72.562 52.849 102.388l42.642 46.57c1.479 1.616 3.503 2.435 5.533 2.435 1.809 0 3.624-.651 5.063-1.969 3.055-2.797 3.264-7.541.466-10.596l-42.642-46.57c-25.447-27.792-42.004-59.838-49.213-95.25-6.018-29.567-5.029-60.607 2.752-90.368l10.319 6.258c2.327 1.411 3.81 3.876 3.966 6.592l2.828 49.062c.513 8.906 5.935 16.602 14.148 20.083 2.957 1.253 6.055 1.867 9.125 1.867 5.456 0 10.822-1.938 15.146-5.666l37.222-32.087c2.061-1.777 4.865-2.425 7.495-1.735l47.534 12.472c8.63 2.266 17.624-.514 23.472-7.25 5.849-6.736 7.338-16.03 3.887-24.256l-19.015-45.316c-1.053-2.509-.804-5.375.666-7.665l26.55-41.354c4.82-7.507 4.957-16.919.358-24.563-4.598-7.644-12.971-11.93-21.869-11.192l-48.974 4.081c-2.711.225-5.36-.896-7.083-3.002l-15.378-18.789c30.829-18.668 66.683-28.501 104.237-28.501h27.926c37.555 0 73.409 9.833 104.237 28.498l-15.378 18.789c-1.724 2.105-4.374 3.228-7.083 3.002l-48.974-4.081c-8.892-.742-17.27 3.548-21.869 11.192-4.599 7.645-4.461 17.057.358 24.563l26.55 41.354c1.47 2.29 1.719 5.155.666 7.664l-19.015 45.315c-3.452 8.226-1.962 17.521 3.887 24.257s14.842 9.512 23.472 7.25l47.534-12.472c2.634-.691 5.434-.042 7.495 1.735l37.222 32.087c4.324 3.728 9.689 5.666 15.146 5.666 3.069 0 6.167-.613 9.124-1.867 8.214-3.481 13.635-11.177 14.148-20.083l2.829-49.062c.156-2.716 1.639-5.181 3.965-6.592l10.319-6.258c7.781 29.761 8.771 60.801 2.752 90.368-7.208 35.412-23.766 67.459-49.213 95.25l-113.582 124.05c-12.621 13.784-29.864 21.375-48.553 21.375s-35.932-7.591-48.553-21.375l-47.292-51.65c-2.797-3.056-7.541-3.264-10.596-.467s-3.264 7.542-.467 10.597l47.293 51.65c15.271 16.679 37 26.245 59.615 26.245s44.344-9.566 59.616-26.245l113.583-124.047c27.31-29.826 45.09-64.274 52.849-102.388 6.767-33.242 5.335-68.193-4.086-101.466l18.336-11.121c7.627-4.626 11.886-13.021 11.113-21.908zm-345.903-44.587 48.974-4.081c3.21-.266 6.111 1.219 7.77 3.977 1.659 2.757 1.611 6.02-.127 8.728l-26.551 41.354c-4.138 6.445-4.838 14.51-1.875 21.572l19.015 45.316c1.245 2.967.729 6.188-1.38 8.618-2.11 2.43-5.228 3.393-8.34 2.576l-47.534-12.472c-7.408-1.946-15.295-.118-21.096 4.882l-37.224 32.086c-2.437 2.101-5.66 2.605-8.623 1.35-2.962-1.255-4.842-3.923-5.026-7.135l-2.828-49.062c-.441-7.646-4.614-14.583-11.163-18.554l-42.019-25.485c-2.751-1.668-4.227-4.578-3.948-7.784s2.235-5.817 5.232-6.986l45.787-17.85c7.136-2.782 12.443-8.894 14.197-16.35l11.252-47.837c.737-3.132 3.048-5.435 6.183-6.161.652-.151 1.302-.225 1.941-.225 2.433 0 4.706 1.071 6.319 3.042l31.125 38.03c4.853 5.927 12.304 9.084 19.939 8.451z"/></g></g><g/><g/><g/><g/><g/><g/><g/><g/><g/><g/><g/><g/><g/><g/><g/></svg>