<svg id="Capa_1" enable-background="new 0 0 512 512" viewBox="0 0 512 512" xmlns="http://www.w3.org/2000/svg"><g><g><g><g><g><g><path d="m310.076 480.69 113.583-124.047c122.42-133.698 27.574-349.143-153.705-349.143h-27.926c-181.278 0-276.124 215.445-153.704 349.143l113.583 124.047c29.068 31.747 79.1 31.747 108.169 0z" fill="#00f2a6"/></g><g><path d="m295.802 9.005c129.218 53.222 180.739 227.465 75.271 342.65l-136.92 149.535c26.146 8.121 55.972 1.29 75.923-20.499l113.583-124.047c116.459-127.189 36.292-328.35-127.857-347.639z" fill="#05e39c"/></g><g><g><g><path d="m343.691 282.775h-48.032c-8.284 0-15-6.716-15-15v-30.408c0-50.086 40.603-90.688 90.688-90.688h48.032c8.284 0 15 6.716 15 15v30.408c0 50.085-40.602 90.688-90.688 90.688z" fill="#3e5959"/></g><g><path d="m419.379 146.678h-18.657v34.584c0 37.275-30.218 67.493-67.493 67.493h-52.571v19.02c0 8.284 6.716 15 15 15h48.032c50.086 0 90.689-40.603 90.689-90.689v-30.408c0-8.284-6.715-15-15-15z" fill="#384949"/></g><g><path d="m216.324 282.775h-48.032c-50.086 0-90.688-40.603-90.688-90.689v-30.408c0-8.284 6.716-15 15-15h48.032c50.086 0 90.688 40.603 90.688 90.688v30.408c0 8.285-6.716 15.001-15 15.001z" fill="#3e5959"/></g><g><g><path d="m168.291 282.775h48.032c8.284 0 15-6.716 15-15v-19.02h-133.809c16.616 20.735 42.139 34.02 70.777 34.02z" fill="#384949"/></g></g></g></g><g><path d="m245.666 371.472h-82.164c-3.601 0-6.521-2.92-6.521-6.521v-24.78c0-12.245-9.926-22.171-22.171-22.171-12.245 0-22.171 9.926-22.171 22.171v28.309c0 2.813-1.813 5.285-4.477 6.188-23.94 8.113-41.17 30.768-41.17 57.448v11.738c0 33.493 27.152 60.645 60.645 60.645h64.067c12.245 0 22.171-9.926 22.171-22.171 0-12.245-9.926-22.171-22.171-22.171h9.62c12.245 0 22.171-9.926 22.171-22.171s-9.926-22.171-22.171-22.171h44.343c12.245 0 22.171-9.926 22.171-22.171-.001-12.246-9.927-22.172-22.172-22.172z" fill="#9cf8d2"/></g><g><path d="m265.196 383.143c-3.743 6.948-11.085 11.671-19.53 11.671h-48.675c-11.046 0-20 8.954-20 20v38.186c0 11.046-8.954 20-20 20h-82.543c10.309 18.772 30.26 31.5 53.189 31.5h64.067c12.245 0 22.171-9.926 22.171-22.171 0-12.245-9.926-22.171-22.171-22.171h9.089c12.022 0 22.261-9.348 22.688-21.363.449-12.613-9.644-22.98-22.157-22.98h43.804c12.212 0 22.537-9.645 22.707-21.855.055-3.918-.908-7.605-2.639-10.817z" fill="#6cf5c2"/></g></g></g><g><g><path d="m362.991 177c0-12.614-8.983-23.126-20.9-25.497-10.98 3.74-21.01 9.529-29.64 16.908-.941 2.69-1.459 5.578-1.459 8.589 0 14.359 11.641 26 26 26s25.999-11.641 25.999-26z" fill="#7ca1b1"/></g><g><path d="m342.091 151.503c-1.051.358-2.085.752-3.118 1.147 2.533 4.012 4.018 8.751 4.018 13.847 0 14.359-11.641 26-26 26-.299 0-.596-.013-.893-.023 4.738 6.386 12.331 10.526 20.893 10.526 14.359 0 26-11.641 26-26 0-12.614-8.983-23.126-20.9-25.497z" fill="#678d98"/></g><g><path d="m200.991 177c0-3.011-.518-5.9-1.459-8.589-8.631-7.379-18.661-13.168-29.64-16.908-11.917 2.37-20.9 12.883-20.9 25.497 0 14.359 11.641 26 26 26s25.999-11.641 25.999-26z" fill="#7ca1b1"/></g><g><path d="m199.532 168.411c-6.402-5.473-13.576-10.066-21.334-13.602 1.775 3.516 2.793 7.48 2.793 11.688 0 14.359-11.641 26-26 26-.299 0-.596-.013-.893-.023 4.738 6.386 12.331 10.526 20.893 10.526 14.359 0 26-11.641 26-26 0-3.011-.518-5.9-1.459-8.589z" fill="#678d98"/></g></g></g></g><g><path d="m228.624 341.949c7.87-6.182 17.333-9.449 27.367-9.449 24.452 0 44.344 19.893 44.344 44.344 0 4.142 3.358 7.5 7.5 7.5s7.5-3.358 7.5-7.5c0-32.723-26.622-59.344-59.344-59.344-13.427 0-26.095 4.375-36.633 12.653-3.257 2.559-3.824 7.273-1.265 10.531s7.275 3.824 10.531 1.265z"/><path d="m441.879 192.086v-30.408c0-12.407-10.093-22.5-22.5-22.5h-48.032c-54.141 0-98.188 44.047-98.188 98.188v30.408c0 12.407 10.093 22.5 22.5 22.5h48.032c54.141.001 98.188-44.046 98.188-98.188zm-86.388-15.086c0 10.201-8.299 18.5-18.5 18.5s-18.5-8.299-18.5-18.5c0-1.427.176-2.837.499-4.217 6.991-5.678 14.913-10.251 23.505-13.438 7.632 2.373 12.996 9.508 12.996 17.655zm-67.332 90.775v-30.408c0-18.846 6.309-36.242 16.913-50.206 4.312 13.52 16.988 23.339 31.919 23.339 18.472 0 33.5-15.028 33.5-33.5 0-8.453-3.2-16.3-8.526-22.278 3.082-.348 6.209-.544 9.382-.544h48.032c4.136 0 7.5 3.364 7.5 7.5v30.408c0 45.87-37.318 83.188-83.188 83.188h-48.032c-4.136.001-7.5-3.363-7.5-7.499z"/><path d="m70.103 161.678v30.408c0 54.141 44.047 98.188 98.188 98.188h48.032c12.407 0 22.5-10.093 22.5-22.5v-30.408c0-54.141-44.047-98.188-98.188-98.188h-48.032c-12.407 0-22.5 10.093-22.5 22.5zm123.388 15.322c0 10.201-8.299 18.5-18.5 18.5s-18.5-8.299-18.5-18.5c0-8.147 5.365-15.282 12.996-17.656 8.592 3.188 16.514 7.76 23.505 13.438.323 1.381.499 2.791.499 4.218zm-43.474-22.278c-5.326 5.978-8.526 13.825-8.526 22.278 0 18.472 15.028 33.5 33.5 33.5 14.931 0 27.607-9.819 31.919-23.339 10.604 13.964 16.913 31.359 16.913 50.206v30.408c0 4.136-3.364 7.5-7.5 7.5h-48.032c-45.87 0-83.188-37.318-83.188-83.188v-30.408c0-4.136 3.364-7.5 7.5-7.5h48.032c3.173-.001 6.3.195 9.382.543z"/><path d="m49.379 274.844c-18.604-60.231-6.795-127.252 31.589-179.281 17.952-24.333 41.337-44.449 67.627-58.171 28.467-14.858 59.903-22.392 93.433-22.392h27.926c55.838 0 107.264 21.73 144.805 61.188 2.856 3.001 7.603 3.119 10.604.264 3-2.855 3.119-7.603.264-10.603-40.401-42.464-95.687-65.849-155.673-65.849h-27.926c-35.972 0-69.743 8.106-100.373 24.094-28.3 14.771-53.459 36.405-72.757 62.564-41.2 55.845-53.854 127.85-33.851 192.612.995 3.221 3.96 5.289 7.164 5.289.733 0 1.479-.108 2.216-.336 3.957-1.223 6.175-5.422 4.952-9.379z"/><path d="m448.345 94.032c-2.319-3.432-6.981-4.334-10.414-2.016-3.432 2.319-4.335 6.981-2.016 10.414 24.57 36.368 37.057 80.188 35.161 123.389-2.046 46.623-20.356 90.082-52.949 125.678l-113.583 124.046c-21.699 23.698-56.798 28.161-83.514 11.308.227-1.475.344-2.985.344-4.523 0-6.814-2.31-13.1-6.186-18.115 9.394-4.986 15.806-14.872 15.806-26.228 0-5.333-1.414-10.342-3.887-14.671h18.559c16.361 0 29.671-13.311 29.671-29.671 0-16.361-13.311-29.671-29.671-29.671h-34.675c-4.142 0-7.5 3.358-7.5 7.5s3.358 7.5 7.5 7.5h34.675c8.09 0 14.671 6.582 14.671 14.671s-6.582 14.671-14.671 14.671h-44.343c-4.142 0-7.5 3.358-7.5 7.5s3.358 7.5 7.5 7.5c8.09 0 14.671 6.582 14.671 14.671s-6.582 14.671-14.671 14.671h-9.62c-4.142 0-7.5 3.358-7.5 7.5s3.358 7.5 7.5 7.5c8.09 0 14.671 6.582 14.671 14.671s-6.581 14.673-14.671 14.673h-64.067c-29.304 0-53.145-23.841-53.145-53.145v-11.738c0-22.801 14.498-43.033 36.077-50.346 5.724-1.939 9.57-7.281 9.57-13.291v-28.309c0-8.09 6.582-14.671 14.671-14.671s14.671 6.582 14.671 14.671v24.78c0 7.731 6.29 14.021 14.021 14.021h12.49c4.142 0 7.5-3.358 7.5-7.5s-3.358-7.5-7.5-7.5h-11.511v-23.801c0-16.361-13.311-29.671-29.671-29.671-16.361 0-29.671 13.311-29.671 29.671v23.729l-11.283-12.322c-12.776-13.954-23.467-29.266-31.774-45.513-1.885-3.688-6.403-5.148-10.092-3.263-3.688 1.886-5.149 6.404-3.263 10.092 8.92 17.445 20.382 33.868 34.067 48.814l10.54 11.511c-20.668 12.028-33.841 34.295-33.841 58.898v11.738c0 37.575 30.57 68.145 68.145 68.145h64.067c9.42 0 17.822-4.418 23.261-11.284 12.742 7.558 26.915 11.284 41.027 11.284 21.943 0 43.714-8.96 59.615-26.327l113.583-124.047c35.003-38.228 54.669-84.962 56.872-135.15 2.036-46.393-11.359-93.429-37.717-132.444z"/><path d="m116.312 115.936c2.737 0 5.376-1.504 6.697-4.113 5.351-10.567 14.497-18.418 25.752-22.106 11.255-3.689 23.273-2.773 33.841 2.578 3.696 1.873 8.208.393 10.079-3.303 1.872-3.695.393-8.208-3.303-10.079-14.142-7.161-30.226-8.387-45.289-3.45-15.063 4.936-27.302 15.443-34.463 29.584-1.872 3.695-.393 8.208 3.303 10.079 1.088.55 2.244.81 3.383.81z"/><path d="m329.379 92.294c10.567-5.351 22.586-6.268 33.841-2.578 11.256 3.688 20.401 11.539 25.752 22.106 1.321 2.609 3.959 4.113 6.697 4.113 1.14 0 2.296-.26 3.382-.811 3.695-1.871 5.174-6.384 3.303-10.079-7.161-14.142-19.4-24.648-34.463-29.584-15.063-4.937-31.147-3.71-45.289 3.45-3.695 1.871-5.174 6.384-3.303 10.079s6.386 5.177 10.08 3.304z"/></g></g><g/><g/><g/><g/><g/><g/><g/><g/><g/><g/><g/><g/><g/><g/><g/></svg>