<svg id="Capa_1" enable-background="new 0 0 512 512" viewBox="0 0 512 512" xmlns="http://www.w3.org/2000/svg"><g><g><g><path d="m310.091 480.69 113.583-124.047c122.421-133.698 27.575-349.143-153.704-349.143h-27.926c-181.278 0-276.124 215.445-153.704 349.143l113.583 124.047c29.068 31.747 79.1 31.747 108.168 0z" fill="#00f2a6"/></g><g><path d="m295.818 9.005c129.218 53.222 180.739 227.465 75.271 342.65l-136.92 149.535c26.146 8.121 55.972 1.29 75.923-20.499l113.583-124.047c116.458-127.189 36.292-328.35-127.857-347.639z" fill="#05e39c"/></g><g><path d="m343.707 312.788h-48.032c-8.284 0-15-6.716-15-15v-30.408c0-50.086 40.603-90.688 90.688-90.688h48.032c8.284 0 15 6.716 15 15v30.408c0 50.086-40.602 90.688-90.688 90.688z" fill="#3e5959"/></g><g><path d="m419.395 176.692h-18.657v34.584c0 37.275-30.218 67.493-67.493 67.493h-52.571v19.02c0 8.284 6.716 15 15 15h48.032c50.086 0 90.689-40.603 90.689-90.689v-30.408c0-8.285-6.715-15-15-15z" fill="#384949"/></g><g><path d="m367.471 221.1h-30.928c-6.392 4.737-10.536 12.334-10.536 20.9 0 14.359 11.641 26 26 26s26-11.641 26-26c0-8.567-4.144-16.164-10.536-20.9z" fill="#7ca1b1"/></g><g><path d="m367.471 221.1h-11.815c1.506 3.29 2.351 6.946 2.351 10.801 0 14.359-11.641 26-26 26-.193 0-.384-.01-.576-.015 4.755 6.15 12.2 10.114 20.576 10.114 14.359 0 26-11.641 26-26 0-8.567-4.144-16.164-10.536-20.9z" fill="#678d98"/></g><g><path d="m219.242 222.1-3.644-1h-134.576l-3.403 1c0 50.086 40.603 90.688 90.688 90.688h48.032c8.284 0 15-6.716 15-15v-30.408c.001-16.492-4.403-31.955-12.097-45.28z" fill="#3e5959"/></g><g><path d="m175.471 221.1h-30.928c-6.392 4.737-10.536 12.334-10.536 20.9 0 14.359 11.641 26 26 26s26-11.641 26-26c0-8.567-4.144-16.164-10.536-20.9z" fill="#7ca1b1"/></g><g><path d="m175.471 221.1h-11.815c1.506 3.29 2.351 6.946 2.351 10.801 0 14.359-11.641 26-26 26-.193 0-.384-.01-.576-.015 4.755 6.15 12.2 10.114 20.576 10.114 14.359 0 26-11.641 26-26 0-8.567-4.144-16.164-10.536-20.9z" fill="#678d98"/></g><g><path d="m419.395 176.692h-48.032c-33.594 0-62.919 18.267-78.591 45.408h141.623v-30.408c0-8.285-6.715-15-15-15z" fill="#9cf8d2"/></g><g><path d="m399.863 222.1h34.532v-30.408c0-8.284-6.716-15-15-15h-18.657v34.584c0 3.686-.306 7.298-.875 10.824z" fill="#6cf5c2"/></g><g><path d="m168.307 312.788h48.032c8.284 0 15-6.716 15-15v-19.02h-133.809c16.616 20.735 42.139 34.02 70.777 34.02z" fill="#384949"/></g><g><path d="m140.651 176.692h-48.032c-8.284 0-15 6.716-15 15v30.408h141.623c-15.672-27.142-44.997-45.408-78.591-45.408z" fill="#9cf8d2"/></g></g><g><path d="m93.871 351.578c-27.962-30.538-45.675-67.517-51.226-106.938-5.194-36.887.175-74.815 15.524-109.683 15.35-34.868 39.697-64.44 70.41-85.521 32.824-22.528 72.059-34.436 113.465-34.436h27.926c55.838 0 107.265 21.73 144.805 61.188 2.855 3 7.602 3.12 10.604.264 3.001-2.855 3.119-7.602.264-10.603-40.401-42.464-95.687-65.849-155.673-65.849h-27.926c-44.45 0-86.621 12.818-121.953 37.069-33.016 22.661-59.175 54.42-75.65 91.844-16.476 37.424-22.232 78.165-16.649 117.818 5.975 42.435 24.999 82.193 55.018 114.977l42.642 46.57c1.479 1.616 3.503 2.435 5.533 2.435 1.809 0 3.624-.651 5.062-1.969 3.056-2.797 3.265-7.541.467-10.596z"/><path d="m448.361 94.114c-2.319-3.432-6.981-4.334-10.413-2.016-3.433 2.319-4.335 6.981-2.017 10.414 24.57 36.368 37.058 80.188 35.161 123.389-2.046 46.623-20.355 90.082-52.949 125.678l-113.583 124.046c-12.621 13.784-29.864 21.375-48.553 21.375s-35.932-7.591-48.553-21.375l-47.293-51.65c-2.798-3.056-7.543-3.264-10.596-.466-3.056 2.797-3.265 7.541-.467 10.596l47.293 51.65c15.272 16.679 37.002 26.245 59.616 26.245s44.344-9.566 59.615-26.245l113.583-124.047c35.004-38.228 54.67-84.962 56.872-135.15 2.037-46.392-11.358-93.429-37.716-132.444z"/><path d="m97.5 145.845c2.592 0 5.113-1.345 6.502-3.751 12.226-21.175 39.4-28.456 60.575-16.231 3.588 2.071 8.175.841 10.245-2.745 2.071-3.587.842-8.174-2.745-10.245-28.336-16.36-64.704-6.616-81.065 21.721-2.071 3.587-.842 8.174 2.745 10.245 1.182.682 2.471 1.006 3.743 1.006z"/><path d="m347.437 125.862c21.173-12.227 48.349-4.944 60.575 16.231 1.39 2.406 3.91 3.751 6.502 3.751 1.272 0 2.562-.324 3.743-1.006 3.587-2.071 4.816-6.658 2.745-10.245-16.361-28.339-52.727-38.083-81.065-21.721-3.587 2.071-4.816 6.658-2.745 10.245 2.07 3.588 6.66 4.817 10.245 2.745z"/><path d="m316.004 400.5c2.1 0 4.188-.877 5.672-2.589 2.712-3.131 2.372-7.867-.758-10.58-17.39-15.064-40.442-23.36-64.911-23.36s-47.521 8.296-64.911 23.36c-3.13 2.712-3.47 7.449-.758 10.58 2.713 3.131 7.448 3.469 10.58.758 30.375-26.314 79.803-26.314 110.178 0 1.419 1.229 3.167 1.831 4.908 1.831z"/><path d="m241.007 418.5c-4.143 0-7.5 3.358-7.5 7.5s3.357 7.5 7.5 7.5h30c4.143 0 7.5-3.358 7.5-7.5s-3.357-7.5-7.5-7.5z"/><path d="m441.896 222.1v-30.408c0-12.407-10.094-22.5-22.5-22.5h-48.032c-54.142 0-98.188 44.047-98.188 98.188v30.408c0 12.407 10.094 22.5 22.5 22.5h48.032c54.141 0 98.188-44.047 98.188-98.188zm-70.532-37.909h48.032c4.136 0 7.5 3.364 7.5 7.5v22.909h-119.783c15.269-18.555 38.401-30.409 64.251-30.409zm-.857 57.809c0 10.201-8.299 18.5-18.5 18.5s-18.5-8.299-18.5-18.5c0-4.619 1.716-9.018 4.777-12.4h27.445c3.062 3.382 4.778 7.781 4.778 12.4zm-82.332 55.788v-30.408c0-13.599 3.301-26.434 9.112-37.78h23.598c-1.553 3.896-2.377 8.095-2.377 12.4 0 18.472 15.028 33.5 33.5 33.5s33.5-15.028 33.5-33.5c0-4.306-.824-8.504-2.377-12.4h43.411c-3.806 42.367-39.493 75.688-82.834 75.688h-48.032c-4.137 0-7.501-3.364-7.501-7.5z"/><path d="m70.118 191.691v30.409c0 54.141 44.048 98.188 98.189 98.188h48.031c12.406 0 22.5-10.093 22.5-22.5v-30.408c0-25.783-9.917-50.141-27.926-68.586-17.976-18.413-42.024-28.914-67.715-29.569-4.132-.081-7.583 3.166-7.688 7.306-.106 4.141 3.165 7.583 7.306 7.689 21.762.555 42.135 9.452 57.364 25.053 1.673 1.714 3.249 3.498 4.755 5.328h-119.816v-22.908c0-4.136 3.364-7.5 7.5-7.5h15.389c4.143 0 7.5-3.358 7.5-7.5s-3.357-7.5-7.5-7.5h-15.389c-12.406-.002-22.5 10.092-22.5 22.498zm76.166 37.909h27.445c3.062 3.382 4.777 7.781 4.777 12.4 0 10.201-8.299 18.5-18.5 18.5s-18.5-8.299-18.5-18.5c.001-4.619 1.717-9.018 4.778-12.4zm-17.4 0c-1.553 3.896-2.377 8.095-2.377 12.4 0 18.472 15.028 33.5 33.5 33.5s33.5-15.028 33.5-33.5c0-4.306-.824-8.504-2.377-12.4h23.653c5.909 11.569 9.056 24.446 9.056 37.78v30.408c0 4.136-3.364 7.5-7.5 7.5h-48.031c-43.342 0-79.029-33.321-82.835-75.688z"/></g></g><g/><g/><g/><g/><g/><g/><g/><g/><g/><g/><g/><g/><g/><g/><g/></svg>