<svg id="Capa_1" enable-background="new 0 0 512 512" viewBox="0 0 512 512" xmlns="http://www.w3.org/2000/svg"><g><g><g><g><g><path d="m310.084 480.69 113.583-124.047c122.42-133.698 27.574-349.143-153.704-349.143h-27.926c-181.278 0-276.124 215.445-153.704 349.143l113.583 124.047c29.068 31.747 79.1 31.747 108.168 0z" fill="#00f2a6"/></g><g><path d="m295.811 9.005c129.218 53.222 180.739 227.465 75.271 342.65l-136.92 149.535c26.146 8.121 55.972 1.29 75.923-20.499l113.583-124.047c116.458-127.189 36.292-328.35-127.857-347.639z" fill="#05e39c"/></g><g><g><circle cx="140" cy="238" fill="#3e5959" r="26"/></g><g><path d="m140.496 212.013c3.445 4.41 5.504 9.956 5.504 15.987 0 14.359-11.641 26-26 26-.166 0-.33-.009-.496-.013 4.759 6.092 12.167 10.013 20.496 10.013 14.359 0 26-11.641 26-26 0-14.193-11.375-25.722-25.504-25.987z" fill="#384949"/></g><g><circle cx="372" cy="238" fill="#3e5959" r="26"/></g><g><path d="m372.496 212.013c3.445 4.41 5.504 9.956 5.504 15.987 0 14.359-11.641 26-26 26-.166 0-.33-.009-.496-.013 4.759 6.092 12.167 10.013 20.496 10.013 14.359 0 26-11.641 26-26 0-14.193-11.375-25.722-25.504-25.987z" fill="#384949"/></g></g></g><g><g><path d="m226.938 216.844h58.124v-56.034l-.999-2.81h-56.126l-.999 2.81z" fill="#af66da"/></g><g><g><path d="m454.007 158h-169.944v96.476c0 35.898 29.102 65 65 65h104.944c16.569 0 30-13.431 30-30v-101.476c0-16.569-13.431-30-30-30zm-5 131.477h-99.944c-19.33 0-35-15.67-35-35v-61.477c0-2.761 2.239-5 5-5h129.944c2.761 0 5 2.239 5 5v91.477c0 2.761-2.239 5-5 5z" fill="#9857bd"/></g><g><path d="m27.993 188v101.476c0 16.569 13.431 30 30 30h104.944c35.898 0 65-29.102 65-65v-96.476h-169.944c-16.569 0-30 13.431-30 30zm35 0h129.944c2.761 0 5 2.239 5 5v61.477c0 19.33-15.67 35-35 35h-99.944c-2.761 0-5-2.239-5-5v-91.477c0-2.761 2.239-5 5-5z" fill="#9857bd"/></g></g></g><g><g><path d="m292.5 420h-73c-20.075 0-36.5-16.425-36.5-36.5 0-20.075 16.425-36.5 36.5-36.5h73c20.075 0 36.5 16.425 36.5 36.5 0 20.075-16.425 36.5-36.5 36.5z" fill="#3e5959"/></g><g><path d="m299.422 347.676-1.217 5.329c.514 2.421.795 4.926.795 7.495 0 20.075-16.425 36.5-36.5 36.5h-76.886c5.397 13.441 18.575 23 33.886 23h73c20.075 0 36.5-16.425 36.5-36.5 0-17.709-12.785-32.565-29.578-35.824z" fill="#384949"/></g><g><path d="m299.423 347.671c-2.244-.435-4.557-.671-6.923-.671h-73c-2.366 0-4.679.236-6.923.671l4.261 18.667c1.557 6.823 7.626 11.662 14.624 11.662h49.076c6.998 0 13.066-4.839 14.624-11.662z" fill="#fff"/></g><g><path d="m292.5 347h-23.573l-9.051 31h20.662c6.998 0 13.066-4.839 14.624-11.662l4.261-18.667c-2.244-.435-4.557-.671-6.923-.671z" fill="#deecf1"/></g></g></g></g><g><g><path d="m120.734 110.712c-4.143 0-7.5 3.358-7.5 7.5s3.357 7.5 7.5 7.5h83.266c4.143 0 7.5-3.358 7.5-7.5s-3.357-7.5-7.5-7.5z"/><path d="m308 110.712c-4.143 0-7.5 3.358-7.5 7.5s3.357 7.5 7.5 7.5h83.266c4.143 0 7.5-3.358 7.5-7.5s-3.357-7.5-7.5-7.5z"/><path d="m173.5 238c0-18.472-15.028-33.5-33.5-33.5s-33.5 15.028-33.5 33.5 15.028 33.5 33.5 33.5 33.5-15.028 33.5-33.5zm-33.5 18.5c-10.201 0-18.5-8.299-18.5-18.5s8.299-18.5 18.5-18.5 18.5 8.299 18.5 18.5-8.299 18.5-18.5 18.5z"/><path d="m372 271.5c18.472 0 33.5-15.028 33.5-33.5s-15.028-33.5-33.5-33.5-33.5 15.028-33.5 33.5 15.028 33.5 33.5 33.5zm0-52c10.201 0 18.5 8.299 18.5 18.5s-8.299 18.5-18.5 18.5-18.5-8.299-18.5-18.5 8.299-18.5 18.5-18.5z"/><path d="m292.5 427.5c24.262 0 44-19.738 44-44s-19.738-44-44-44h-73c-24.262 0-44 19.738-44 44s19.738 44 44 44zm-2.328-73-2.321 10.168c-.784 3.434-3.791 5.832-7.312 5.832h-49.076c-3.521 0-6.528-2.398-7.312-5.831l-2.321-10.169zm-99.672 29c0-11.549 6.788-21.54 16.582-26.201l2.444 10.708c2.351 10.299 11.371 17.493 21.936 17.493h49.076c10.564 0 19.585-7.193 21.936-17.493l2.444-10.708c9.794 4.661 16.582 14.652 16.582 26.201 0 15.991-13.01 29-29 29h-73c-15.99 0-29-13.009-29-29z"/><path d="m449.007 180.5h-129.945c-6.893 0-12.5 5.607-12.5 12.5v61.477c0 23.435 19.065 42.5 42.5 42.5h99.944c6.893 0 12.5-5.607 12.5-12.5v-91.477c.001-6.893-5.607-12.5-12.499-12.5zm-2.5 101.477h-97.444c-15.163 0-27.5-12.336-27.5-27.5v-58.977h124.944z"/><path d="m478.447 159.594c-6.409-23.354-16.52-45.372-30.1-65.474-2.318-3.433-6.98-4.335-10.413-2.017s-4.335 6.981-2.017 10.413c10.198 15.096 18.292 31.355 24.181 48.486-1.984-.326-4.017-.503-6.092-.503h-304.006c-4.143 0-7.5 3.358-7.5 7.5s3.357 7.5 7.5 7.5h70.438v88.977c0 31.706-25.794 57.5-57.5 57.5h-104.945c-12.406 0-22.5-10.093-22.5-22.5v-101.476c0-12.407 10.094-22.5 22.5-22.5h57.007c4.143 0 7.5-3.358 7.5-7.5s-3.357-7.5-7.5-7.5h-57.007c-2.071 0-4.101.176-6.082.501 12.359-35.812 34.494-67.934 63.4-91.607 35.463-29.043 79.285-44.394 126.726-44.394h27.926c55.84 0 107.266 21.73 144.804 61.189 2.854 3.001 7.603 3.121 10.603.265 3.002-2.855 3.12-7.603.265-10.604-40.398-42.464-95.683-65.85-155.672-65.85h-27.926c-50.946 0-98.054 16.525-136.229 47.789-34.636 28.365-60.221 67.996-72.257 111.807-7.986 6.882-13.058 17.059-13.058 28.404v101.477c0 20.217 16.084 36.739 36.127 37.465 7.471 12.242 16.255 23.925 26.182 34.766l55.726 60.86c1.479 1.616 3.503 2.435 5.533 2.435 1.809 0 3.624-.651 5.062-1.968 3.056-2.797 3.265-7.542.467-10.597l-55.726-60.86c-7.125-7.781-13.608-16.024-19.394-24.602h88.467c39.977 0 72.5-32.523 72.5-72.5v-30.132h41.125v30.132c0 39.977 32.523 72.5 72.5 72.5h88.467c-5.785 8.576-12.268 16.819-19.393 24.602l-113.583 124.047c-12.621 13.784-29.865 21.375-48.553 21.375s-35.932-7.591-48.553-21.375l-34.209-37.36c-2.798-3.055-7.543-3.264-10.596-.466-3.056 2.797-3.265 7.541-.467 10.596l34.209 37.36c15.272 16.679 37.002 26.245 59.616 26.245s44.344-9.566 59.615-26.245l113.584-124.048c9.928-10.843 18.711-22.525 26.181-34.766 20.043-.726 36.127-17.248 36.127-37.465v-101.476c0-11.346-5.072-21.524-13.06-28.406zm-201.885 49.75h-41.125v-43.844h41.125zm199.945 80.133c0 12.407-10.094 22.5-22.5 22.5h-104.945c-31.706 0-57.5-25.794-57.5-57.5v-88.977h162.444c12.406 0 22.5 10.093 22.5 22.5v101.477z"/><path d="m50.493 193v91.477c0 6.893 5.607 12.5 12.5 12.5h99.944c23.435 0 42.5-19.065 42.5-42.5v-61.477c0-6.893-5.607-12.5-12.5-12.5h-129.944c-6.892 0-12.5 5.607-12.5 12.5zm15 2.5h124.944v58.977c0 15.164-12.337 27.5-27.5 27.5h-97.444z"/></g></g></g><g/><g/><g/><g/><g/><g/><g/><g/><g/><g/><g/><g/><g/><g/><g/></svg>