<svg id="Capa_1" enable-background="new 0 0 512 512" viewBox="0 0 512 512" xmlns="http://www.w3.org/2000/svg"><g><g><g><g><path d="m310.084 480.69 113.583-124.047c122.42-133.698 27.574-349.143-153.704-349.143h-27.926c-181.278 0-276.124 215.445-153.704 349.143l113.583 124.047c29.068 31.747 79.1 31.747 108.168 0z" fill="#00f2a6"/></g><g><path d="m295.811 9.005c129.218 53.222 180.739 227.465 75.271 342.65l-136.92 149.535c26.146 8.121 55.972 1.29 75.923-20.499l113.583-124.047c116.458-127.189 36.292-328.35-127.857-347.639z" fill="#05e39c"/></g><g><path d="m419.962 202c-5.523 0-10-4.477-10-10v-22c0-1.423.302-2.774.838-4h-39.444c-50.086 0-90.688 40.603-90.688 90.688v30.408c0 8.284 6.716 15 15 15h48.032c50.086 0 90.688-40.603 90.688-90.689v-9.407z" fill="#3e5959"/><path d="m419.962 202c-5.523 0-10-4.477-10-10v-22c0-1.423.302-2.774.838-4h-10.069v34.584c0 37.275-30.218 67.493-67.493 67.493h-52.571v19.02c0 8.284 6.716 15 15 15h48.033c50.086 0 90.688-40.603 90.688-90.689v-9.408z" fill="#384949"/><g><path d="m216.332 302.097h-48.032c-50.086 0-90.688-40.603-90.688-90.689v-30.408c0-8.284 6.716-15 15-15h48.032c50.086 0 90.688 40.603 90.688 90.689v30.408c0 8.284-6.715 15-15 15z" fill="#3e5959"/></g><g><g><path d="m168.3 302.097h48.032c8.284 0 15-6.716 15-15v-19.02h-133.809c16.616 20.735 42.139 34.02 70.777 34.02z" fill="#384949"/></g></g></g><g><g><path d="m256 412.456c15.408 0 29.61 5.149 40.984 13.82 9.831 7.495 24.016.208 24.016-12.154v-23.681c0-35.645-28.249-65.465-63.889-66.061-36.407-.607-66.111 28.724-66.111 64.992v24.75c0 12.362 14.185 19.649 24.016 12.154 11.374-8.671 25.576-13.82 40.984-13.82z" fill="#3e5959"/></g><g><path d="m304.508 346.545c-4.252 30.206-36.428 53.691-75.508 53.691-13.848 0-26.819-2.963-38-8.114v22c0 12.362 14.185 19.649 24.016 12.154 11.374-8.671 25.575-13.82 40.984-13.82s29.61 5.149 40.984 13.82c9.831 7.495 24.016.208 24.016-12.154v-23.681c0-16.717-6.215-32.154-16.492-43.896z" fill="#384949"/></g><g><path d="m256.849 370.245c-21.82-.466-39.655 17.083-39.655 38.797v15.641c10.986-7.705 24.366-12.227 38.806-12.227s27.82 4.522 38.806 12.227v-14.928c0-21.221-16.74-39.056-37.957-39.51z" fill="#fead8a"/></g><g><path d="m229 400.236c-3.616 0-7.167-.215-10.648-.604-.751 3.014-1.157 6.163-1.157 9.409v15.641c10.986-7.705 24.366-12.227 38.806-12.227s27.82 4.522 38.806 12.227v-14.928c0-10.767-4.314-20.656-11.331-27.852-13.809 11.303-33.106 18.334-54.476 18.334z" fill="#fd9468"/></g></g><g><g><circle cx="156" cy="232.308" fill="#7ca1b1" r="26"/></g><g><path d="m156.743 206.327c3.298 4.358 5.257 9.786 5.257 15.673 0 14.359-11.641 26-26 26-.249 0-.496-.012-.743-.019 4.747 6.273 12.271 10.327 20.743 10.327 14.359 0 26-11.641 26-26 0-14.11-11.242-25.586-25.257-25.981z" fill="#678d98"/></g><g><circle cx="356" cy="232.308" fill="#7ca1b1" r="26"/></g><g><path d="m356.743 206.327c3.298 4.358 5.257 9.786 5.257 15.673 0 14.359-11.641 26-26 26-.249 0-.496-.012-.743-.019 4.747 6.273 12.271 10.327 20.743 10.327 14.359 0 26-11.641 26-26 0-14.11-11.242-25.586-25.257-25.981z" fill="#678d98"/></g></g><g><path d="m492.319 415.664c-8.798-8.193-22.648-7.564-31.149.937l-9.036 9.036v-56.466c0-12.513-10.366-22.606-22.98-22.157-12.014.427-21.361 10.665-21.363 22.686v-.529c0-12.245-9.926-22.171-22.171-22.171s-22.171 9.926-22.171 22.171c0-12.245-9.927-22.171-22.171-22.171s-22.171 9.926-22.171 22.171v94.212c0 13.807 11.193 24.968 25 24.968h97.679c6.627-.003 12.981-2.636 17.667-7.322l33.449-33.449c8.847-8.848 8.653-23.314-.583-31.916z" fill="#9cf8d2"/></g><g><path d="m492.319 415.664c-8.319-7.748-21.15-7.596-29.71-.369l-34.263 34.352c-4.686 4.686-11.04 7.32-17.667 7.322h-91.574v6.415c0 13.807 11.193 24.968 25 24.968h97.679c6.627-.003 12.981-2.636 17.667-7.322l33.449-33.449c8.849-8.849 8.655-23.315-.581-31.917z" fill="#6cf5c2"/></g><g><path d="m439.962 133.274h-20c-5.523 0-10-4.477-10-10v-105.774c0-5.523 4.477-10 10-10h20c5.523 0 10 4.477 10 10v105.774c0 5.523-4.477 10-10 10z" fill="#fe7d43"/></g><g><path d="m439.962 7.5h-10.962v94.774c0 5.523-4.477 10-10 10h-9.038v11c0 5.523 4.477 10 10 10h20c5.523 0 10-4.477 10-10v-105.774c0-5.523-4.477-10-10-10z" fill="#fd6930"/></g><g><path d="m439.962 202h-20c-5.523 0-10-4.477-10-10v-22c0-5.523 4.477-10 10-10h20c5.523 0 10 4.477 10 10v22c0 5.523-4.477 10-10 10z" fill="#fe7d43"/></g><g><path d="m439.962 160h-10.962v11c0 5.523-4.477 10-10 10h-9.038v11c0 5.523 4.477 10 10 10h20c5.523 0 10-4.477 10-10v-22c0-5.523-4.477-10-10-10z" fill="#fd6930"/></g><g><g><g><path d="m170.723 347c-12.245 0-22.171 9.926-22.171 22.171 0-12.245-9.926-22.171-22.171-22.171s-22.171 9.926-22.171 22.171v.529c-.001-12.021-9.349-22.259-21.363-22.686-12.613-.449-22.98 9.644-22.98 22.157v56.466l-9.036-9.036c-8.501-8.501-22.351-9.131-31.149-.937-9.236 8.602-9.43 23.068-.582 31.917l33.449 33.449c4.686 4.686 11.04 7.32 17.667 7.322h97.679c13.807 0 25-11.161 25-24.968v-94.212c-.001-12.246-9.927-22.172-22.172-22.172z" fill="#9cf8d2"/></g><g><g><path d="m52.548 481.029c4.686 4.686 11.04 7.32 17.667 7.322h97.679c13.807 0 25-11.161 25-24.968v-6.394l-164.406-.02z" fill="#6cf5c2"/></g></g></g></g></g></g><g><path d="m92.612 158.5c-12.407 0-22.5 10.094-22.5 22.5v30.408c0 54.142 44.047 98.188 98.188 98.188h48.032c12.407 0 22.5-10.094 22.5-22.5v-30.408c0-54.142-44.047-98.188-98.188-98.188zm131.221 98.188v30.408c0 4.136-3.364 7.5-7.5 7.5h-48.033c-45.87 0-83.188-37.318-83.188-83.188v-30.408c0-4.136 3.364-7.5 7.5-7.5h48.032c45.87 0 83.189 37.318 83.189 83.188z"/><path d="m128.434 49.537c32.856-22.595 72.14-34.537 113.603-34.537h27.926c50.326 0 96.062 17.051 132.499 49.329v58.945c0 9.649 7.851 17.5 17.5 17.5h20c5.466 0 10.352-2.522 13.563-6.461 19.479 43.861 23.133 93.217 9.722 138.441-1.178 3.971 1.087 8.145 5.059 9.322.711.211 1.429.312 2.135.312 3.235 0 6.221-2.11 7.188-5.37 16.443-55.451 9.074-116.625-20.166-168.186v-91.332c0-9.649-7.851-17.5-17.5-17.5h-20c-9.649 0-17.5 7.851-17.5 17.5v27.309c-37.452-29.367-82.919-44.809-132.5-44.809h-27.926c-44.512 0-86.734 12.855-122.103 37.178-3.413 2.347-4.277 7.017-1.93 10.43 2.347 3.411 7.017 4.276 10.43 1.929zm289.028-32.037c0-1.379 1.121-2.5 2.5-2.5h20c1.379 0 2.5 1.121 2.5 2.5v105.774c0 1.379-1.121 2.5-2.5 2.5h-20c-1.379 0-2.5-1.121-2.5-2.5z"/><path d="m439.962 152.5h-20c-5.246 0-9.948 2.332-13.158 6h-35.447c-54.142 0-98.188 44.047-98.188 98.188v30.408c0 12.406 10.094 22.5 22.5 22.5h48.031c54.142 0 98.188-44.047 98.188-98.188v-2.02c8.745-.963 15.573-8.39 15.573-17.388v-22c.001-9.649-7.85-17.5-17.499-17.5zm-96.262 142.097h-48.032c-4.136 0-7.5-3.364-7.5-7.5v-30.408c0-45.87 37.318-83.188 83.188-83.188h31.105v18.499c0 9.649 7.851 17.5 17.5 17.5h6.927v1.908c.001 45.87-37.318 83.189-83.188 83.189zm98.762-102.597c0 1.379-1.121 2.5-2.5 2.5h-20c-1.379 0-2.5-1.121-2.5-2.5v-22c0-1.379 1.121-2.5 2.5-2.5h20c1.379 0 2.5 1.121 2.5 2.5z"/><path d="m497.43 410.176c-10.347-9.636-26.391-10.232-37.796-2.072v-38.4c0-11.19-6.214-21.144-15.303-26.357 7.656-10.339 14.368-21.242 19.99-32.542 1.845-3.709.334-8.211-3.374-10.056-3.71-1.846-8.211-.334-10.056 3.374-6.168 12.398-13.752 24.294-22.539 35.426-7.132.373-13.794 3.254-18.991 8.271-.551.531-1.077 1.078-1.58 1.643-5.438-6.108-13.357-9.961-22.16-9.961s-16.723 3.854-22.161 9.961c-.503-.563-1.029-1.11-1.579-1.641-5.845-5.643-13.552-8.595-21.678-8.301-9.201.328-17.396 5.08-22.631 12.173-12.748-20.836-35.253-34.391-60.335-34.81-16.541-.273-32.831 5.169-45.834 15.334-6.848 5.353-12.645 11.903-17.151 19.238-5.241-6.962-13.355-11.612-22.453-11.935-8.135-.281-15.833 2.659-21.678 8.301-.55.53-1.076 1.077-1.578 1.641-5.439-6.107-13.358-9.961-22.161-9.961s-16.722 3.854-22.161 9.961c-.503-.563-1.03-1.111-1.58-1.643-5.199-5.017-11.875-7.896-18.999-8.27-31.543-39.986-46.51-89.402-42.171-139.569 4.236-48.965 25.871-94.783 60.92-129.017 2.963-2.895 3.019-7.643.125-10.605-2.894-2.964-7.643-3.02-10.605-.125-37.618 36.741-60.838 85.912-65.383 138.454-4.474 51.718 10.093 102.678 41.136 144.664-9.085 5.214-15.295 15.165-15.295 26.352v.296c0 4.143 3.358 7.5 7.5 7.5s7.5-3.357 7.5-7.5v-.297c0-8.101 6.338-14.916 14.13-15.193 4.028-.121 7.838 1.314 10.728 4.103 2.893 2.791 4.485 6.541 4.485 10.559v44.828c0 4.143 3.358 7.5 7.5 7.5s7.5-3.357 7.5-7.5v-44.829c0-8.09 6.582-14.671 14.671-14.671s14.671 6.581 14.671 14.671v44.829c0 4.143 3.358 7.5 7.5 7.5s7.5-3.357 7.5-7.5v-44.829c0-4.018 1.593-7.767 4.484-10.558 2.891-2.789 6.708-4.227 10.729-4.104 7.791.277 14.129 7.093 14.129 15.193v93.68c0 9.649-7.851 17.5-17.5 17.5h-97.677c-4.584-.001-9.092-1.881-12.369-5.158l-33.448-33.448c-2.841-2.841-4.366-6.618-4.295-10.636.071-4.017 1.735-7.741 4.685-10.488 5.705-5.313 15.006-4.977 20.734.753l9.036 9.035c2.146 2.146 5.373 2.788 8.173 1.625 2.803-1.16 4.63-3.896 4.63-6.929v-20.636c0-4.143-3.358-7.5-7.5-7.5s-7.5 3.357-7.5 7.5v3.104c-11.407-8.161-27.452-7.562-37.796 2.072-5.956 5.547-9.315 13.075-9.459 21.198-.144 8.126 2.94 15.765 8.686 21.51l33.448 33.448c6.067 6.067 14.44 9.548 22.973 9.551h97.678c10.577 0 19.987-5.081 25.926-12.928l2.564 2.8c15.271 16.68 37 26.245 59.614 26.245 22.615 0 44.344-9.565 59.616-26.244l2.573-2.81c5.939 7.833 15.345 12.905 25.917 12.905h97.68c8.678-.003 16.835-3.383 22.972-9.519l33.446-33.448c5.746-5.745 8.831-13.384 8.687-21.51-.145-8.123-3.504-15.651-9.46-21.198zm-297.035-35.444c6.652-25.401 29.307-42.86 55.597-42.86.331 0 .663.003.995.009 25.722.429 48.06 18.359 54.619 43.718v43.569c-1.111 1.246-2.634 2.141-4.294 2.485-1.268.266-3.105.301-5.006-.822v-11.076c0-25.386-20.319-46.474-45.296-47.008-12.549-.282-24.428 4.421-33.399 13.202-8.974 8.785-13.916 20.537-13.916 33.093v11.789c-1.9 1.123-3.737 1.088-5.006.822-1.66-.345-3.182-1.239-4.293-2.485v-44.436zm86.911 35.023v2.01c-9.731-4.474-20.327-6.808-31.306-6.808s-21.574 2.334-31.306 6.808v-2.722c0-8.488 3.341-16.434 9.409-22.373 6.065-5.938 14.116-9.096 22.586-8.926 16.882.36 30.617 14.721 30.617 32.011zm17.247 65.871c-12.621 13.783-29.865 21.374-48.554 21.374-18.688 0-35.932-7.591-48.552-21.374l-7.337-8.013c.181-1.386.284-2.796.284-4.23v-27.339c.409.109.822.208 1.24.295 1.532.319 3.063.477 4.58.477 4.779 0 9.4-1.564 13.349-4.574 10.542-8.037 23.142-12.285 36.437-12.285s25.895 4.248 36.437 12.284c5.2 3.966 11.566 5.42 17.927 4.1.418-.087.831-.186 1.241-.296v27.339c0 1.434.103 2.844.285 4.229zm183.044-33.35-33.447 33.448c-3.304 3.305-7.696 5.125-12.366 5.126h-97.678c-9.649 0-17.5-7.836-17.5-17.468v-93.68c0-8.101 6.339-14.916 14.13-15.193 4.037-.126 7.838 1.314 10.729 4.104 2.892 2.791 4.484 6.54 4.484 10.558v44.829c0 4.143 3.357 7.5 7.5 7.5s7.5-3.357 7.5-7.5v-44.829c0-8.09 6.582-14.671 14.672-14.671.506 0 1.005.026 1.498.076 7.389.753 13.173 7.012 13.173 14.596v44.828c0 4.143 3.357 7.5 7.5 7.5s7.5-3.357 7.5-7.5v-44.828c0-4.019 1.593-7.769 4.485-10.56 2.89-2.788 6.696-4.229 10.729-4.103 7.791.277 14.129 7.093 14.129 15.193v55.934c0 3.033 1.827 5.769 4.63 6.929 2.804 1.162 6.029.52 8.173-1.625l9.037-9.035c5.727-5.728 15.029-6.065 20.733-.753 2.95 2.747 4.613 6.472 4.685 10.488.071 4.018-1.455 7.796-4.296 10.636z"/><path d="m122.5 232.309c0 18.472 15.028 33.5 33.5 33.5s33.5-15.028 33.5-33.5-15.028-33.5-33.5-33.5-33.5 15.028-33.5 33.5zm33.5-18.5c10.201 0 18.5 8.299 18.5 18.5s-8.299 18.5-18.5 18.5-18.5-8.299-18.5-18.5 8.299-18.5 18.5-18.5z"/><path d="m356 198.809c-18.472 0-33.5 15.028-33.5 33.5s15.028 33.5 33.5 33.5 33.5-15.028 33.5-33.5-15.028-33.5-33.5-33.5zm0 52c-10.201 0-18.5-8.299-18.5-18.5s8.299-18.5 18.5-18.5 18.5 8.299 18.5 18.5-8.299 18.5-18.5 18.5z"/></g></g><g/><g/><g/><g/><g/><g/><g/><g/><g/><g/><g/><g/><g/><g/><g/></svg>