<svg id="Capa_1" enable-background="new 0 0 512 512" viewBox="0 0 512 512" xmlns="http://www.w3.org/2000/svg"><g><g><g><g><path d="m303.453 480.69 113.583-124.047c122.42-133.698 27.574-349.143-153.705-349.143h-27.926c-181.278 0-276.124 215.445-153.704 349.143l113.583 124.047c29.068 31.747 79.1 31.747 108.169 0z" fill="#00f2a6"/></g><g><path d="m289.179 9.005c129.218 53.222 180.739 227.465 75.271 342.65l-136.92 149.534c26.146 8.121 55.972 1.29 75.923-20.499l113.583-124.047c116.459-127.188 36.292-328.349-127.857-347.638z" fill="#05e39c"/></g><g><path d="m404.066 176.692h-39.342c-50.086 0-90.688 40.603-90.688 90.688v30.408c0 8.284 6.716 15 15 15h48.032c50.086 0 90.688-40.603 90.688-90.689v-21.061c-11.21-4.455-19.632-13.535-23.69-24.346z" fill="#3e5959"/><path d="m404.066 176.692h-9.967v34.584c0 37.275-30.218 67.493-67.493 67.493h-52.571v19.02c0 8.284 6.716 15 15 15h48.032c50.086 0 90.688-40.603 90.688-90.689v-21.061c-11.209-4.456-19.631-13.536-23.689-24.347z" fill="#384949"/><g><path d="m209.701 312.788h-48.032c-50.086 0-90.688-40.603-90.688-90.689v-30.408c0-8.284 6.716-15 15-15h48.032c50.086 0 90.688 40.603 90.688 90.688v30.408c0 8.285-6.716 15.001-15 15.001z" fill="#3e5959"/></g><g><g><path d="m161.668 312.788h48.032c8.284 0 15-6.716 15-15v-19.02h-133.809c16.616 20.735 42.139 34.02 70.777 34.02z" fill="#384949"/></g></g></g></g><g><g><g><path d="m437.736 95.325-29.157 43.342c-18.737 27.853 1.221 65.333 34.789 65.333 33.568 0 53.526-37.48 34.789-65.333l-29.157-43.342c-2.69-3.999-8.574-3.999-11.264 0z" fill="#01c0fa"/></g><g><path d="m478.158 138.667-29.158-43.342c-2.69-3.999-8.574-3.999-11.265 0l-10.013 14.885 14.435 21.458c16.626 24.715 2.772 56.99-24.013 63.951 6.846 5.19 15.452 8.382 25.224 8.382 33.568-.001 53.526-37.481 34.79-65.334z" fill="#08a9f1"/></g></g><g><g><path d="m65.236 26.999-29.157 43.343c-18.737 27.852 1.222 65.333 34.789 65.333 33.568 0 53.526-37.48 34.789-65.333l-29.157-43.343c-2.69-3.999-8.574-3.999-11.264 0z" fill="#01c0fa"/></g><g><path d="m105.658 70.342-29.158-43.343c-2.69-3.999-8.574-3.999-11.265 0l-10.012 14.885 14.435 21.458c16.626 24.715 2.772 56.99-24.013 63.951 6.846 5.19 15.452 8.382 25.224 8.382 33.567-.001 53.525-37.481 34.789-65.333z" fill="#08a9f1"/></g></g></g></g><g><path d="m85.98 169.191c-12.406 0-22.5 10.094-22.5 22.5v30.409c0 54.142 44.047 98.188 98.188 98.188h48.032c12.406 0 22.5-10.094 22.5-22.5v-30.408c0-54.142-44.047-98.188-98.188-98.188h-48.032zm131.221 98.189v30.408c0 4.136-3.364 7.5-7.5 7.5h-48.032c-45.87 0-83.188-37.318-83.188-83.188v-30.408c0-4.136 3.364-7.5 7.5-7.5h48.032c45.869-.001 83.188 37.318 83.188 83.188z"/><path d="m179.208 390.152 13.457-14.235 13.457 14.235c1.417 1.499 3.388 2.348 5.45 2.348s4.034-.85 5.45-2.348l13.454-14.234 13.454 14.234c1.417 1.499 3.389 2.348 5.451 2.348s4.034-.85 5.45-2.35l13.446-14.23 13.45 14.231c1.417 1.499 3.389 2.349 5.451 2.349s4.034-.85 5.451-2.349l13.449-14.231 13.448 14.231c1.476 1.561 3.462 2.349 5.452 2.349 1.849 0 3.701-.679 5.15-2.049 3.011-2.845 3.145-7.592.3-10.603l-18.899-20c-1.417-1.499-3.389-2.349-5.451-2.349s-4.034.85-5.451 2.349l-13.449 14.232-13.451-14.232c-1.417-1.499-3.389-2.349-5.452-2.349-2.062 0-4.034.85-5.45 2.35l-13.446 14.23-13.453-14.232c-1.416-1.498-3.388-2.348-5.45-2.348s-4.034.85-5.45 2.348l-13.454 14.234-13.457-14.234c-1.417-1.499-3.388-2.348-5.45-2.348s-4.033.849-5.45 2.348l-18.907 20c-2.846 3.01-2.712 7.757.298 10.603 3.008 2.843 7.753 2.713 10.602-.298z"/><path d="m87.232 351.578c-28.489-31.114-46.302-68.833-51.514-109.08-4.536-35.029.405-70.797 14.283-103.955 6.374 2.98 13.456 4.631 20.867 4.631 18.584 0 34.895-9.793 43.629-26.196 8.735-16.403 7.757-35.402-2.616-50.822l-4.061-6.037c35.614-29.536 79.577-45.119 127.585-45.119h27.926c43.225 0 83.882 12.914 117.577 37.346 3.353 2.43 8.042 1.685 10.475-1.67 2.431-3.354 1.684-8.043-1.67-10.475-36.273-26.3-79.975-40.201-126.382-40.201h-27.926c-51.045 0-97.875 16.436-135.999 47.611l-16.683-24.799c-2.659-3.953-7.091-6.312-11.855-6.312s-9.195 2.359-11.854 6.312l-26.663 39.634c-2.312 3.438-1.4 8.098 2.036 10.409 3.439 2.312 8.099 1.399 10.409-2.036l26.072-38.756 28.566 42.465c7.225 10.74 7.906 23.973 1.822 35.398s-17.445 18.247-30.39 18.247c-19.728 0-31.414-14.729-33.924-28.412-.747-4.075-4.662-6.774-8.729-6.024-4.074.747-6.771 4.655-6.024 8.729 2.003 10.926 7.476 20.459 15.143 27.551-15.786 36.356-21.491 75.783-16.491 114.407 5.61 43.324 24.742 83.88 55.327 117.282l40.492 44.223c1.479 1.616 3.503 2.436 5.533 2.436 1.809 0 3.624-.65 5.062-1.969 3.056-2.797 3.265-7.541.467-10.596z"/><path d="m484.38 134.48-29.157-43.342c-2.659-3.953-7.091-6.312-11.854-6.312-2.472 0-4.847.646-6.938 1.809-5.882-7.96-12.32-15.545-19.22-22.627-2.89-2.967-7.638-3.029-10.605-.139-2.967 2.891-3.029 7.639-.139 10.605 7.285 7.477 14.017 15.557 20.067 24.065l-24.178 35.94c-7.099 10.554-9.796 22.784-7.992 34.711h-29.64c-54.142 0-98.188 44.047-98.188 98.188v30.408c0 12.406 10.094 22.5 22.5 22.5h48.032c54.142 0 98.188-44.047 98.188-98.188v-11.243c2.643.422 5.352.643 8.112.643 7.483 0 14.597-1.59 20.997-4.559 2.765 53.155-15.751 104.108-52.861 144.637l-113.583 124.05c-12.621 13.783-29.864 21.374-48.552 21.374-18.689 0-35.933-7.591-48.554-21.374l-49.442-53.998c-2.798-3.057-7.543-3.266-10.596-.467-3.056 2.797-3.265 7.541-.467 10.596l49.442 53.998c15.272 16.68 37.001 26.245 59.617 26.245 22.614 0 44.344-9.565 59.615-26.245l113.583-124.048c42.051-45.924 61.874-104.355 56.083-164.921 3.238-3.336 6.055-7.179 8.347-11.482 8.735-16.404 7.756-35.403-2.617-50.824zm-64.124 87.62c0 45.87-37.318 83.188-83.188 83.188h-48.032c-4.136 0-7.5-3.364-7.5-7.5v-30.408c0-45.87 37.318-83.188 83.188-83.188h34.447c.187.372.373.743.569 1.112 4.824 9.06 11.963 16.098 20.517 20.589v16.207zm53.501-43.847c-6.085 11.426-17.445 18.247-30.39 18.247s-24.304-6.821-30.389-18.246c-6.084-11.426-5.402-24.66 1.822-35.4l28.566-42.464 28.567 42.464c7.227 10.74 7.908 23.973 1.824 35.399z"/><path d="m161.421 149.933c26.198 0 50.239-17.51 57.335-43.991 1.072-4.001-1.302-8.113-5.303-9.186-4.003-1.074-8.114 1.302-9.186 5.303-6.328 23.619-30.695 37.682-54.311 31.356-4.001-1.077-8.113 1.302-9.186 5.303s1.302 8.113 5.303 9.186c5.128 1.373 10.277 2.029 15.348 2.029z"/><path d="m348.779 133.415c-11.438 3.065-23.39 1.492-33.649-4.43-10.258-5.923-17.596-15.485-20.661-26.927-1.072-4.001-5.185-6.377-9.186-5.303-4.001 1.071-6.375 5.185-5.303 9.186 4.102 15.311 13.922 28.108 27.649 36.034 9.145 5.279 19.292 7.976 29.575 7.976 5.154 0 10.345-.678 15.457-2.048 4.001-1.072 6.375-5.185 5.303-9.186-1.071-4-5.183-6.379-9.185-5.302z"/></g></g><g/><g/><g/><g/><g/><g/><g/><g/><g/><g/><g/><g/><g/><g/><g/></svg>