<svg id="Capa_1" enable-background="new 0 0 512 512" viewBox="0 0 512 512" xmlns="http://www.w3.org/2000/svg"><g><g><g><g><path d="m310.092 480.69 113.583-124.047c122.42-133.698 27.574-349.143-153.705-349.143h-27.926c-181.278 0-276.124 215.445-153.704 349.143l113.583 124.047c29.068 31.747 79.1 31.747 108.169 0z" fill="#00f2a6"/></g><g><path d="m295.818 9.005c129.218 53.222 180.739 227.465 75.271 342.65l-136.92 149.535c26.146 8.121 55.972 1.29 75.923-20.499l113.583-124.047c116.459-127.189 36.292-328.35-127.857-347.639z" fill="#05e39c"/></g><g><path d="m419.395 145.649h-48.032c-50.086 0-90.688 40.603-90.688 90.688v30.408c0 8.284 6.716 15 15 15h48.032c8.617 0 16.953-1.202 24.85-3.447v-27.34c0-2.623 2.126-4.749 4.749-4.749h40.563c.564 0 1.098.115 1.6.296 11.863-15.331 18.927-34.563 18.927-55.448v-30.408c-.001-8.284-6.716-15-15.001-15z" fill="#3e5959"/><path d="m419.395 145.649h-18.657v34.584c0 37.275-30.218 67.493-67.493 67.493h-52.571v19.02c0 8.284 6.716 15 15 15h48.032c8.617 0 16.953-1.202 24.85-3.447v-27.34c0-2.623 2.126-4.749 4.749-4.749h40.563c.564 0 1.098.115 1.6.296 11.863-15.331 18.927-34.563 18.927-55.448v-30.408c0-8.285-6.715-15.001-15-15.001z" fill="#384949"/><g><path d="m216.34 281.745h-48.032c-50.086 0-90.688-40.603-90.688-90.689v-30.408c0-8.284 6.716-15 15-15h48.032c50.086 0 90.688 40.603 90.688 90.688v30.408c0 8.286-6.716 15.001-15 15.001z" fill="#3e5959"/></g><g><path d="m168.307 281.745h48.032c8.284 0 15-6.716 15-15v-19.02h-133.809c16.616 20.736 42.139 34.02 70.777 34.02z" fill="#384949"/></g><g><path d="m182.007 170c0-6.754-2.576-12.905-6.798-17.528-8.967-3.699-18.655-6-28.797-6.636-9.609 3.819-16.405 13.195-16.405 24.164 0 14.359 11.641 26 26 26 14.36 0 26-11.641 26-26z" fill="#7ca1b1"/></g><g><path d="m175.209 152.472c-5.088-2.099-10.416-3.73-15.92-4.88 1.737 3.485 2.718 7.412 2.718 11.572 0 14.359-11.641 26-26 26-.38 0-.758-.013-1.134-.029 4.718 6.576 12.423 10.865 21.134 10.865 14.359 0 26-11.641 26-26 0-6.754-2.576-12.905-6.798-17.528z" fill="#678d98"/></g><g><path d="m365.602 145.836c-10.142.636-19.83 2.937-28.797 6.636-4.222 4.623-6.798 10.774-6.798 17.528 0 14.359 11.641 26 26 26s26-11.641 26-26c0-10.969-6.796-20.345-16.405-24.164z" fill="#7ca1b1"/></g><g><path d="m365.602 145.836c-2.319.145-4.611.389-6.88.705 2.084 3.739 3.285 8.038 3.285 12.623 0 14.359-11.641 26-26 26-.38 0-.758-.013-1.134-.029 4.718 6.576 12.423 10.865 21.134 10.865 14.359 0 26-11.641 26-26 0-10.969-6.796-20.345-16.405-24.164z" fill="#678d98"/></g></g><g><g><circle cx="339.588" cy="360.03" fill="#af66da" r="28.97"/></g><g><path d="m340.944 331.095c4.361 5.071 7.003 11.662 7.003 18.874 0 16-12.97 28.97-28.97 28.97-.455 0-.906-.014-1.356-.034 5.313 6.178 13.18 10.095 21.967 10.095 15.999 0 28.97-12.97 28.97-28.97-.001-15.544-12.245-28.226-27.614-28.935z" fill="#9857bd"/></g><g><g><path d="m413.869 246.209h-40.563c-2.623 0-4.749 2.126-4.749 4.749v27.863h45.312c2.623 0 4.749-2.126 4.749-4.749v-23.114c0-2.623-2.126-4.749-4.749-4.749z" fill="#af66da"/></g></g><g><path d="m413.869 246.209h-13.862v12.042c0 2.623-2.126 4.749-4.749 4.749h-26.701v15.821h45.312c2.623 0 4.749-2.126 4.749-4.749v-23.114c0-2.623-2.126-4.749-4.749-4.749z" fill="#9857bd"/></g></g><g><g><circle cx="437.792" cy="472.284" fill="#af66da" r="32.216"/></g><g><path d="m440.275 440.173c5.412 5.763 8.732 13.513 8.732 22.042 0 17.792-14.423 32.216-32.216 32.216-.836 0-1.663-.042-2.483-.105 5.877 6.259 14.221 10.173 23.483 10.173 17.792 0 32.216-14.423 32.216-32.216 0-16.954-13.102-30.84-29.732-32.11z" fill="#9857bd"/></g></g></g></g><g><path d="m112.9 115.791c23.752-22.525 61.402-21.529 83.928 2.225 1.475 1.555 3.457 2.339 5.443 2.339 1.853 0 3.709-.683 5.16-2.058 3.005-2.851 3.131-7.598.281-10.604-28.217-29.754-75.379-31.003-105.134-2.787-3.005 2.851-3.131 7.598-.281 10.604 2.849 3.005 7.596 3.131 10.603.281z"/><path d="m314.906 115.791c23.752-22.525 61.403-21.529 83.928 2.225 1.475 1.555 3.457 2.339 5.443 2.339 1.853 0 3.709-.683 5.16-2.058 3.005-2.851 3.131-7.598.281-10.604-28.217-29.754-75.379-31.003-105.134-2.787-3.005 2.851-3.131 7.598-.281 10.604 2.849 3.005 7.597 3.131 10.603.281z"/><path d="m93.871 351.578c-27.962-30.539-45.676-67.518-51.227-106.938-5.193-36.888.175-74.815 15.525-109.684 15.35-34.867 39.698-64.44 70.411-85.521 32.823-22.527 72.058-34.435 113.464-34.435h27.926c55.838 0 107.264 21.73 144.805 61.188 2.856 3.001 7.604 3.119 10.603.264 3.001-2.855 3.119-7.603.264-10.604-40.399-42.462-95.685-65.848-155.672-65.848h-27.926c-44.45 0-86.621 12.818-121.953 37.068-33.016 22.661-59.175 54.42-75.651 91.845-16.476 37.424-22.233 78.165-16.649 117.817 5.975 42.436 24.999 82.193 55.017 114.977l42.642 46.57c1.479 1.616 3.503 2.436 5.533 2.436 1.809 0 3.624-.65 5.063-1.969 3.055-2.797 3.264-7.541.466-10.596z"/><path d="m448.361 94.114c-2.319-3.432-6.98-4.334-10.414-2.017-3.432 2.319-4.335 6.981-2.016 10.413 24.57 36.368 37.057 80.188 35.161 123.39-2.046 46.623-20.356 90.081-52.949 125.678l-113.583 124.048c-12.621 13.783-29.864 21.374-48.553 21.374s-35.932-7.591-48.553-21.374l-47.292-51.65c-2.797-3.057-7.542-3.265-10.597-.467-3.055 2.797-3.264 7.541-.467 10.596l47.293 51.65c15.272 16.68 37.001 26.245 59.616 26.245s44.344-9.565 59.616-26.245l113.583-124.048c35.003-38.228 54.669-84.961 56.872-135.149 2.036-46.392-11.359-93.428-37.717-132.444z"/><path d="m263.507 328.5h-15c-4.142 0-7.5 3.357-7.5 7.5s3.358 7.5 7.5 7.5h15c5.514 0 10 4.486 10 10s-4.486 10-10 10c-4.142 0-7.5 3.357-7.5 7.5s3.358 7.5 7.5 7.5c5.514 0 10 4.486 10 10s-4.486 10-10 10h-15c-4.142 0-7.5 3.357-7.5 7.5s3.358 7.5 7.5 7.5h15c13.785 0 25-11.215 25-25 0-6.809-2.739-12.987-7.169-17.5 4.43-4.513 7.169-10.691 7.169-17.5 0-13.785-11.215-25-25-25z"/><path d="m470.007 339c-4.142 0-7.5 3.357-7.5 7.5v94.73c-6.789-5.414-15.378-8.662-24.716-8.662-2.115 0-4.269.175-6.399.521-4.089.662-6.867 4.514-6.204 8.603s4.517 6.871 8.603 6.204c1.341-.217 2.687-.327 4.001-.327 13.628 0 24.716 11.088 24.716 24.716s-11.088 24.715-24.717 24.715c-13.628 0-24.715-11.088-24.715-24.716 0-2.144.278-4.28.827-6.352 1.061-4.004-1.325-8.109-5.329-9.171-4.002-1.057-8.11 1.325-9.171 5.329-.88 3.324-1.327 6.753-1.327 10.193 0 21.899 17.816 39.716 39.715 39.716s39.716-17.816 39.716-39.716v-125.783c0-4.143-3.358-7.5-7.5-7.5z"/><path d="m441.895 160.648c0-12.406-10.093-22.5-22.5-22.5h-48.032c-54.141 0-98.188 44.047-98.188 98.188v30.408c0 12.406 10.093 22.5 22.5 22.5h48.032c5.842 0 11.645-.525 17.35-1.545v42.875c-6.028-4.406-13.448-7.015-21.469-7.015-20.109 0-36.47 16.36-36.47 36.47s16.36 36.47 36.47 36.47 36.469-16.36 36.469-36.47v-73.71h37.812c6.754 0 12.249-5.495 12.249-12.249v-23.113c0-1.762-.381-3.435-1.054-4.95 11.02-16.243 16.832-35.107 16.832-54.951v-30.408zm-102.307 220.852c-11.838 0-21.47-9.631-21.47-21.47s9.631-21.47 21.47-21.47 21.469 9.631 21.469 21.47-9.631 21.47-21.469 21.47zm1.701-222.703c7.239-2.817 14.962-4.647 23.012-5.328 6.248 3.123 10.207 9.446 10.207 16.53 0 10.201-8.299 18.5-18.5 18.5s-18.5-8.299-18.5-18.5c-.001-4.073 1.334-7.992 3.781-11.202zm69.829 112.523h-35.061v-17.611h35.061zm15.777-80.263c0 17.262-5.18 33.651-15.006 47.652h-38.583c-6.754 0-12.25 5.495-12.25 12.249v21.474c-5.677 1.203-11.491 1.813-17.35 1.813h-48.032c-4.136 0-7.5-3.364-7.5-7.5v-30.408c0-27.634 13.555-52.148 34.353-67.285-.009.316-.021.631-.021.948 0 18.472 15.028 33.5 33.5 33.5s33.5-15.028 33.5-33.5c0-6.086-1.62-11.857-4.522-16.852h34.41c4.136 0 7.5 3.364 7.5 7.5v30.409z"/><path d="m70.119 160.648v30.408c0 54.142 44.047 98.188 98.188 98.188h48.032c12.407 0 22.5-10.094 22.5-22.5v-30.408c0-54.142-44.047-98.188-98.188-98.188h-48.032c-12.407 0-22.5 10.094-22.5 22.5zm77.595-7.178c8.05.681 15.773 2.51 23.012 5.328 2.447 3.209 3.782 7.128 3.782 11.203 0 10.201-8.299 18.5-18.5 18.5s-18.5-8.299-18.5-18.5c-.001-7.085 3.958-13.408 10.206-16.531zm8.293 50.03c18.472 0 33.5-15.028 33.5-33.5 0-.317-.012-.632-.021-.948 20.798 15.137 34.353 39.651 34.353 67.285v30.408c0 4.136-3.364 7.5-7.5 7.5h-48.032c-45.87 0-83.188-37.318-83.188-83.188v-30.408c0-4.136 3.364-7.5 7.5-7.5h34.41c-2.902 4.995-4.522 10.766-4.522 16.852 0 18.471 15.028 33.499 33.5 33.499z"/></g></g><g/><g/><g/><g/><g/><g/><g/><g/><g/><g/><g/><g/><g/><g/><g/></svg>