<svg id="Capa_1" enable-background="new 0 0 512 512" viewBox="0 0 512 512" xmlns="http://www.w3.org/2000/svg"><g><g><g><path d="m310.085 480.69 113.583-124.047c122.42-133.698 27.574-349.143-153.705-349.143h-27.926c-181.278 0-276.124 215.445-153.704 349.143l113.583 124.047c29.068 31.747 79.1 31.747 108.169 0z" fill="#00f2a6"/></g><g><path d="m295.811 9.005c129.218 53.222 180.739 227.465 75.271 342.65l-136.92 149.535c26.146 8.121 55.972 1.29 75.923-20.499l113.583-124.047c116.459-127.189 36.292-328.35-127.857-347.639z" fill="#05e39c"/></g><g><g><path d="m280.668 242v53.788c0 8.284 6.716 15 15 15h48.032c45.804 0 83.675-33.957 89.817-78.069.42-3.018-1.909-5.719-4.955-5.719h-132.894c-8.284 0-15 6.716-15 15z" fill="#3e5959"/></g><g><path d="m398.363 227c-7.786 28.674-33.985 49.769-65.125 49.769h-52.571v19.02c0 8.284 6.716 15 15 15h48.033c45.803 0 83.675-33.957 89.817-78.069.42-3.018-1.909-5.719-4.955-5.719h-30.199z" fill="#384949"/></g><g><path d="m83.439 227c-3.047 0-5.375 2.701-4.955 5.719 6.141 44.113 44.013 78.069 89.817 78.069h48.032c8.284 0 15-6.716 15-15v-53.788c0-8.284-6.716-15-15-15z" fill="#3e5959"/></g><g><path d="m168.301 310.788h48.032c8.284 0 15-6.716 15-15v-19.02h-133.81c16.616 20.735 42.139 34.02 70.778 34.02z" fill="#384949"/></g></g><g><g><g><path d="m70.439 97.481c-13.588 19.908-23.764 42.052-30.004 65.32l98.587-46.944z" fill="#eef5f6"/></g></g><g><g><path d="m139.022 115.858-98.587 46.944c-5.11 19.055-7.583 38.857-7.159 58.788l180.168-85.79z" fill="#eef5f6"/></g></g></g><g><g><path d="m107.022 56.554 361.817 96.948c-6.766-21.318-16.856-41.543-29.878-59.77l-271.834-72.837c-22.472 8.492-42.647 20.694-60.105 35.659z" fill="#fff"/></g><g><path d="m468.838 153.502c-6.766-21.318-16.856-41.543-29.878-59.77l-53.822-14.421c13.438 18.304 23.966 38.64 31.187 60.12z" fill="#eef5f6"/></g><g><path d="m478.56 207.871c-.837-18.528-4.152-36.818-9.722-54.369l-361.816-96.948c-14.295 12.254-26.764 26.363-37.188 41.799z" fill="#fff"/></g><g><path d="m478.56 207.871c-.837-18.528-4.152-36.818-9.722-54.369l-52.513-14.071c5.924 17.623 9.626 36.013 10.884 54.68z" fill="#eef5f6"/></g></g></g><g><path d="m343.7 318.288c23.839 0 46.826-8.649 64.728-24.354 17.731-15.558 29.28-36.93 32.518-60.181.5-3.596-.579-7.226-2.96-9.961-2.374-2.728-5.809-4.292-9.424-4.292h-132.894c-12.406 0-22.5 10.094-22.5 22.5v53.788c0 12.406 10.094 22.5 22.5 22.5zm-55.532-22.5v-53.788c0-4.136 3.364-7.5 7.5-7.5h129.979c-6.883 39.412-41.616 68.788-81.946 68.788h-48.032c-4.137 0-7.501-3.364-7.501-7.5z"/><path d="m216.333 219.5h-132.894c-3.616 0-7.051 1.564-9.425 4.293-2.381 2.735-3.459 6.366-2.958 9.96 3.237 23.251 14.785 44.623 32.517 60.181 17.901 15.705 40.889 24.354 64.728 24.354h48.032c12.407 0 22.5-10.094 22.5-22.5v-53.788c0-12.406-10.094-22.5-22.5-22.5zm7.5 76.288c0 4.136-3.364 7.5-7.5 7.5h-48.032c-40.331 0-75.063-29.375-81.946-68.788h129.979c4.136 0 7.5 3.364 7.5 7.5v53.788z"/><path d="m201.09 391.331c-3.131 2.712-3.47 7.449-.758 10.579 2.712 3.132 7.448 3.47 10.58.759 24.862-21.537 65.316-21.537 90.179 0 1.418 1.229 3.166 1.831 4.907 1.831 2.1 0 4.188-.877 5.672-2.59 2.712-3.13 2.372-7.867-.759-10.579-14.718-12.75-34.219-19.771-54.91-19.771-20.692 0-40.193 7.021-54.911 19.771z"/><path d="m467.567 128.913c-16.476-37.424-42.635-69.184-75.65-91.845-35.333-24.25-77.504-37.068-121.954-37.068h-27.926c-44.45 0-86.621 12.818-121.953 37.068-33.016 22.661-59.176 54.42-75.651 91.844-16.476 37.425-22.233 78.166-16.65 117.818 5.975 42.436 25 82.193 55.018 114.977l42.642 46.57c2.797 3.057 7.541 3.266 10.596.467 3.055-2.797 3.264-7.541.466-10.596l-42.642-46.57c-27.962-30.539-45.676-67.518-51.227-106.938-.86-6.107-1.422-12.244-1.705-18.389l35.902-17.095c3.74-1.78 5.328-6.256 3.547-9.996s-6.257-5.327-9.996-3.547l-29.52 14.056c.524-13.972 2.505-27.909 5.936-41.592l91.559-43.597 52.096 13.959-88.47 42.127c-3.74 1.78-5.328 6.256-3.547 9.996 1.285 2.699 3.974 4.277 6.777 4.277 1.081 0 2.178-.235 3.219-.73l15.344-7.306c7.884 8.775 18.282 15.068 29.862 17.943 4.701 1.168 9.492 1.745 14.271 1.745 9.246 0 18.441-2.163 26.812-6.401 3.695-1.871 5.174-6.384 3.303-10.079-1.871-3.696-6.382-5.174-10.079-3.304-16.809 8.511-36.499 5.52-49.861-6.717l74.696-35.568 153.452 41.117c-12.71 7.305-28.617 8.038-42.184 1.168-3.695-1.87-8.208-.393-10.079 3.304-1.871 3.695-.393 8.208 3.304 10.079 8.475 4.291 17.632 6.367 26.72 6.367 14.823 0 29.447-5.543 40.618-15.993l86.629 23.212c.18 10.343-.435 20.694-1.881 30.965-5.551 39.421-23.265 76.399-51.227 106.938l-113.581 124.047c-12.621 13.783-29.864 21.374-48.553 21.374-18.688 0-35.932-7.591-48.552-21.374l-47.292-51.65c-2.798-3.057-7.542-3.265-10.597-.467-3.055 2.797-3.264 7.541-.467 10.596l47.293 51.65c15.271 16.68 37 26.245 59.615 26.245s44.344-9.565 59.616-26.245l113.583-124.048c30.019-32.782 49.043-72.541 55.018-114.976 5.582-39.653-.175-80.394-16.65-117.818zm-225.53-113.913h27.926c41.406 0 80.642 11.908 113.465 34.436 13.011 8.931 24.865 19.4 35.392 31.136l-224.363-60.118c15.353-3.604 31.297-5.454 47.58-5.454zm-189.332 133.652c1.652-4.61 3.469-9.179 5.458-13.696 4.297-9.761 9.313-19.098 14.967-27.955l42.905 11.496zm29.52-54.743c7.969-10.566 16.917-20.309 26.745-29.069l234.232 62.762c.65.175 1.304.258 1.946.258 3.312 0 6.342-2.21 7.239-5.561 1.072-4.001-1.302-8.114-5.303-9.186l-223.74-59.95c1.724-1.268 3.463-2.515 5.229-3.728 12.198-8.372 25.283-15.274 39.035-20.647l266.775 71.481c7.515 10.819 14.053 22.417 19.455 34.687 1.11 2.521 2.161 5.059 3.166 7.61l-76.103-20.391c-4.001-1.077-8.113 1.302-9.186 5.303s1.302 8.114 5.303 9.186l85.878 23.01c3.717 12.546 6.199 25.347 7.445 38.23z"/></g></g><g/><g/><g/><g/><g/><g/><g/><g/><g/><g/><g/><g/><g/><g/><g/></svg>