<svg id="Capa_1" enable-background="new 0 0 512 512" viewBox="0 0 512 512" xmlns="http://www.w3.org/2000/svg"><g><g><g><path d="m310.091 480.69 113.583-124.047c122.421-133.698 27.575-349.143-153.704-349.143h-27.926c-181.278 0-276.124 215.445-153.704 349.143l113.583 124.047c29.068 31.747 79.1 31.747 108.168 0z" fill="#00f2a6"/></g><g><path d="m295.818 9.005c129.218 53.222 180.739 227.465 75.271 342.65l-136.92 149.535c26.146 8.121 55.972 1.29 75.923-20.499l113.583-124.047c116.458-127.189 36.292-328.35-127.857-347.639z" fill="#05e39c"/></g><g><path d="m311.507 410h-111c-18.975 0-34.5-15.525-34.5-34.5 0-18.975 15.525-34.5 34.5-34.5h111c18.975 0 34.5 15.525 34.5 34.5 0 18.975-15.525 34.5-34.5 34.5z" fill="#fff"/></g><g><g><path d="m313.239 341.06c3.027 5.124 4.768 11.088 4.768 17.44 0 18.975-15.525 34.5-34.5 34.5h-112.664c6.023 10.146 17.072 17 29.664 17h111c18.975 0 34.5-15.525 34.5-34.5 0-18.393-14.591-33.527-32.768-34.44z" fill="#deecf1"/></g></g><g><g><g><path d="m343.707 302.097h-48.032c-8.284 0-15-6.716-15-15v-30.408c0-50.086 40.603-90.689 90.688-90.689h48.032c8.284 0 15 6.716 15 15v30.408c0 50.086-40.602 90.689-90.688 90.689z" fill="#3e5959"/></g><g><path d="m419.395 166h-18.657v34.584c0 37.275-30.218 67.493-67.493 67.493h-52.571v19.02c0 8.284 6.716 15 15 15h48.032c50.086 0 90.689-40.603 90.689-90.689v-30.408c0-8.284-6.715-15-15-15z" fill="#384949"/></g><g><path d="m216.34 302.097h-48.032c-50.086 0-90.688-40.603-90.688-90.689v-30.408c0-8.284 6.716-15 15-15h48.032c50.086 0 90.688 40.603 90.688 90.689v30.408c0 8.284-6.716 15-15 15z" fill="#3e5959"/></g><g><g><path d="m168.307 302.097h48.032c8.284 0 15-6.716 15-15v-19.02h-133.809c16.616 20.735 42.139 34.02 70.777 34.02z" fill="#384949"/></g></g></g></g></g><g><path d="m448.361 94.114c-2.319-3.433-6.981-4.334-10.413-2.017-3.433 2.319-4.335 6.981-2.017 10.413 24.57 36.368 37.058 80.188 35.161 123.39-2.046 46.623-20.355 90.081-52.949 125.678l-113.583 124.048c-12.621 13.783-29.864 21.374-48.553 21.374s-35.932-7.591-48.553-21.374l-47.293-51.65c-2.798-3.057-7.543-3.266-10.596-.467-3.056 2.797-3.265 7.541-.467 10.596l47.293 51.65c15.272 16.68 37.002 26.245 59.616 26.245s44.344-9.565 59.615-26.245l113.583-124.048c35.004-38.228 54.67-84.961 56.872-135.149 2.037-46.392-11.358-93.428-37.716-132.444z"/><path d="m136.513 398.148-42.642-46.57c-27.962-30.539-45.676-67.518-51.227-106.938-5.194-36.887.174-74.814 15.524-109.683 15.35-34.868 39.697-64.44 70.41-85.521 32.825-22.528 72.06-34.436 113.466-34.436h27.926c55.839 0 107.265 21.73 144.805 61.188 2.855 2.999 7.602 3.119 10.604.264 3.001-2.855 3.119-7.603.264-10.604-40.401-42.462-95.686-65.848-155.673-65.848h-27.926c-44.45 0-86.621 12.818-121.953 37.068-33.016 22.661-59.175 54.421-75.65 91.845s-22.232 78.165-16.649 117.818c5.975 42.435 25 82.193 55.018 114.976l42.642 46.57c1.479 1.616 3.503 2.436 5.533 2.436 1.809 0 3.624-.65 5.062-1.969 3.055-2.797 3.264-7.541.466-10.596z"/><path d="m441.896 211.408v-30.408c0-12.406-10.094-22.5-22.5-22.5h-48.032c-54.142 0-98.188 44.047-98.188 98.188v30.408c0 12.406 10.094 22.5 22.5 22.5h48.032c54.141.001 98.188-44.046 98.188-98.188zm-98.189 83.189h-48.032c-4.136 0-7.5-3.364-7.5-7.5v-30.408c0-45.87 37.318-83.188 83.188-83.188h48.032c4.136 0 7.5 3.364 7.5 7.5v30.408c.001 45.869-37.318 83.188-83.188 83.188z"/><path d="m216.339 294.597h-48.031c-18.276 0-35.616-5.812-50.146-16.81-14.065-10.646-24.571-25.765-29.582-42.571-1.185-3.97-5.364-6.229-9.33-5.045-3.97 1.184-6.229 5.361-5.045 9.33 5.917 19.844 18.312 37.688 34.904 50.246 17.157 12.985 37.627 19.85 59.198 19.85h48.031c12.406 0 22.5-10.094 22.5-22.5v-30.408c0-54.142-44.047-98.188-98.188-98.188h-48.032c-12.406 0-22.5 10.094-22.5 22.5v21.395c0 4.143 3.357 7.5 7.5 7.5s7.5-3.357 7.5-7.5v-21.396c0-4.136 3.364-7.5 7.5-7.5h48.033c45.87 0 83.188 37.318 83.188 83.188v30.408c0 4.136-3.364 7.501-7.5 7.501z"/><path d="m200.507 417.5h111c23.159 0 42-18.841 42-42s-18.841-42-42-42h-111c-23.159 0-42 18.841-42 42s18.841 42 42 42zm108-69h3c12.285 0 22.673 8.251 25.932 19.5h-28.932zm0 34.5h28.932c-3.259 11.249-13.647 19.5-25.932 19.5h-3zm-45-34.5h30v19.5h-30zm0 34.5h30v19.5h-30zm-45-34.5h30v19.5h-30zm0 34.5h30v19.5h-30zm-18-34.5h3v19.5h-28.932c3.259-11.249 13.647-19.5 25.932-19.5zm3 34.5v19.5h-3c-12.285 0-22.673-8.251-25.932-19.5z"/><path d="m157.819 131.513c10.282 0 20.432-2.697 29.575-7.977 13.728-7.925 23.548-20.723 27.649-36.033 1.072-4.001-1.302-8.114-5.303-9.186-4.004-1.074-8.113 1.302-9.186 5.303-6.329 23.616-30.69 37.682-54.31 31.356-4.003-1.077-8.114 1.302-9.186 5.303s1.302 8.114 5.303 9.186c5.115 1.37 10.302 2.048 15.458 2.048z"/><path d="m324.62 123.536c9.144 5.28 19.292 7.977 29.575 7.977 5.154 0 10.344-.678 15.456-2.048 4.001-1.071 6.375-5.185 5.303-9.186-1.071-4.001-5.183-6.38-9.186-5.303-23.621 6.327-47.981-7.739-54.31-31.356-1.072-4.001-5.185-6.377-9.186-5.303-4.001 1.071-6.375 5.185-5.303 9.186 4.104 15.31 13.924 28.108 27.651 36.033z"/><path d="m361.648 472.51-4.052 4.425c-2.798 3.056-2.589 7.8.466 10.597 1.439 1.318 3.254 1.969 5.063 1.969 2.03 0 4.054-.819 5.533-2.435l4.052-4.425c2.798-3.056 2.589-7.8-.466-10.597s-7.798-2.589-10.596.466z"/><path d="m421.358 407.297-7.622 8.325c-2.797 3.055-2.588 7.799.468 10.597 1.439 1.317 3.254 1.968 5.062 1.968 2.03 0 4.055-.819 5.534-2.436l7.622-8.325c2.797-3.055 2.588-7.799-.468-10.597-3.055-2.797-7.799-2.589-10.596.468z"/><path d="m391.503 439.903-7.623 8.325c-2.798 3.055-2.589 7.799.467 10.596 1.439 1.318 3.253 1.969 5.062 1.969 2.03 0 4.054-.819 5.533-2.436l7.623-8.325c2.798-3.055 2.589-7.799-.467-10.596-3.053-2.797-7.796-2.589-10.595.467z"/><path d="m447.644 378.59-4.052 4.425c-2.798 3.056-2.589 7.8.466 10.597 1.439 1.318 3.254 1.969 5.063 1.969 2.03 0 4.054-.819 5.533-2.435l4.052-4.425c2.798-3.056 2.589-7.8-.466-10.597s-7.798-2.589-10.596.466z"/><path d="m64.37 378.59c-2.799-3.055-7.542-3.265-10.597-.466-3.055 2.797-3.264 7.541-.466 10.597l4.052 4.425c1.479 1.615 3.503 2.435 5.533 2.435 1.809 0 3.624-.65 5.063-1.969 3.055-2.797 3.264-7.541.466-10.597z"/><path d="m90.656 407.297c-2.798-3.057-7.543-3.266-10.596-.467-3.056 2.797-3.265 7.541-.467 10.596l7.623 8.325c1.479 1.616 3.503 2.436 5.533 2.436 1.809 0 3.624-.65 5.062-1.969 3.056-2.797 3.265-7.541.467-10.596z"/><path d="m120.511 439.903c-2.798-3.057-7.543-3.266-10.596-.467-3.056 2.797-3.265 7.541-.467 10.596l7.623 8.325c1.479 1.616 3.503 2.436 5.533 2.436 1.809 0 3.624-.65 5.062-1.969 3.056-2.797 3.265-7.541.467-10.596z"/><path d="m150.366 472.51c-2.798-3.055-7.542-3.265-10.597-.466-3.055 2.797-3.264 7.541-.466 10.597l4.052 4.425c1.479 1.615 3.503 2.435 5.533 2.435 1.809 0 3.624-.65 5.063-1.969 3.055-2.797 3.264-7.541.466-10.597z"/></g></g><g/><g/><g/><g/><g/><g/><g/><g/><g/><g/><g/><g/><g/><g/><g/></svg>