<svg id="Capa_1" enable-background="new 0 0 512 512" viewBox="0 0 512 512" xmlns="http://www.w3.org/2000/svg"><g><g><g><path d="m310.084 480.69 113.583-124.047c122.42-133.698 27.574-349.143-153.704-349.143h-27.926c-181.278 0-276.124 215.445-153.704 349.143l113.583 124.047c29.068 31.747 79.1 31.747 108.168 0z" fill="#00f2a6"/></g><g><path d="m295.811 9.005c129.218 53.222 180.739 227.465 75.271 342.65l-136.92 149.535c26.146 8.121 55.972 1.29 75.923-20.499l113.583-124.047c116.458-127.189 36.292-328.35-127.857-347.639z" fill="#05e39c"/></g><g><g><g><path d="m343.7 292h-48.032c-8.284 0-15-6.716-15-15v-30.408c0-50.086 40.603-90.688 90.689-90.688h48.032c8.284 0 15 6.716 15 15v30.408c-.001 50.085-40.603 90.688-90.689 90.688z" fill="#3e5959"/></g><g><path d="m419.388 155.903h-18.657v34.584c0 37.275-30.218 67.493-67.493 67.493h-52.571v19.02c0 8.284 6.716 15 15 15h48.033c50.086 0 90.689-40.603 90.689-90.689v-30.408c-.001-8.284-6.716-15-15.001-15z" fill="#384949"/></g><g><path d="m216.332 292h-48.032c-50.086 0-90.688-40.603-90.688-90.688v-30.408c0-8.284 6.716-15 15-15h48.032c50.086 0 90.688 40.603 90.688 90.688v30.408c0 8.284-6.715 15-15 15z" fill="#3e5959"/></g><g><g><path d="m168.3 292h48.032c8.284 0 15-6.716 15-15v-19.02h-133.809c16.616 20.735 42.139 34.02 70.777 34.02z" fill="#384949"/></g></g></g></g><g><path d="m126.868 316.014c-12.014.427-21.363 10.666-21.363 22.688v17.769c0 8.284-6.716 15-15 15h-59.869c-12.245 0-22.171 9.927-22.171 22.171s9.927 22.171 22.171 22.171c-12.245 0-22.171 9.926-22.171 22.171s9.927 22.171 22.171 22.171c-12.245 0-22.171 9.927-22.171 22.171s9.927 22.174 22.171 22.174h94.212c13.807 0 25-11.193 25-25v-141.329c0-12.513-10.366-22.605-22.98-22.157z" fill="#9cf8d2"/></g><g><path d="m503.535 437.986c0-12.245-9.927-22.171-22.171-22.171 12.245 0 22.171-9.927 22.171-22.171s-9.927-22.171-22.171-22.171h-59.869c-8.284 0-15-6.716-15-15v-17.769c0-12.022-9.348-22.261-21.363-22.688-12.614-.448-22.98 9.644-22.98 22.157v141.327c0 13.807 11.193 25 25 25h94.212c12.245 0 22.171-9.927 22.171-22.171s-9.927-22.171-22.171-22.171c12.244-.001 22.171-9.927 22.171-22.172z" fill="#9cf8d2"/></g><g><path d="m503.535 437.986c0-12.245-9.927-22.171-22.171-22.171 12.245 0 22.171-9.927 22.171-22.171s-9.927-22.171-22.171-22.171h-8.98v79.357c0 12.245-9.927 22.171-22.171 22.171h-88.06v6.5c0 13.807 11.193 25 25 25h94.212c12.245 0 22.171-9.927 22.171-22.171s-9.927-22.171-22.171-22.171c12.243-.002 22.17-9.928 22.17-22.173z" fill="#6cf5c2"/></g><g><g><g><path d="m126.868 316.014c-3.035.108-5.898.844-8.485 2.074v129.912c0 13.807-11.193 25-25 25h-82.86c-1.318 2.836-2.058 5.995-2.058 9.329 0 12.245 9.927 22.171 22.171 22.171h94.212c13.807 0 25-11.193 25-25v-141.329c0-12.513-10.366-22.605-22.98-22.157z" fill="#6cf5c2"/></g></g></g></g><g><path d="m256 401.5c29.396 0 55.937-18.538 66.043-46.131 1.424-3.89-.574-8.197-4.464-9.622-3.888-1.423-8.196.574-9.622 4.464-7.949 21.705-28.829 36.289-51.957 36.289s-44.008-14.584-51.957-36.289c-1.425-3.891-5.732-5.887-9.622-4.464-3.89 1.425-5.888 5.732-4.464 9.622 10.106 27.593 36.647 46.131 66.043 46.131z"/><path d="m441.889 201.312v-30.408c0-12.406-10.094-22.5-22.5-22.5h-48.032c-54.142 0-98.188 44.047-98.188 98.188v30.408c0 12.406 10.094 22.5 22.5 22.5h48.031c54.142 0 98.189-44.047 98.189-98.188zm-153.721 75.688v-30.408c0-45.87 37.318-83.188 83.188-83.188h48.032c4.136 0 7.5 3.364 7.5 7.5v30.408c0 45.87-37.318 83.188-83.188 83.188h-48.032c-4.136 0-7.5-3.364-7.5-7.5z"/><path d="m238.832 277v-30.408c0-54.142-44.047-98.188-98.188-98.188h-48.033c-12.406 0-22.5 10.094-22.5 22.5v30.408c0 54.142 44.047 98.188 98.188 98.188h48.032c12.407 0 22.501-10.094 22.501-22.5zm-153.721-75.688v-30.408c0-4.136 3.364-7.5 7.5-7.5h48.032c45.87 0 83.188 37.318 83.188 83.188v30.408c0 4.136-3.364 7.5-7.5 7.5h-48.031c-45.87 0-83.189-37.318-83.189-83.188z"/><path d="m37.834 267.896c.527 0 1.062-.057 1.599-.173 4.048-.879 6.616-4.873 5.737-8.921-12.764-58.756 2.614-122.364 41.135-170.15 38.286-47.495 93.592-73.652 155.732-73.652h27.926c55.839 0 107.265 21.73 144.805 61.188 2.855 2.999 7.602 3.119 10.604.264 3.001-2.855 3.119-7.603.264-10.604-40.401-42.462-95.686-65.848-155.673-65.848h-27.926c-34.235 0-66.549 7.367-96.041 21.896-27.677 13.635-51.689 32.928-71.369 57.342-41.341 51.285-57.832 119.602-44.115 182.748.762 3.512 3.869 5.91 7.322 5.91z"/><path d="m511.035 437.986c0-8.809-3.858-16.732-9.974-22.172 6.115-5.439 9.974-13.363 9.974-22.172 0-16.36-13.311-29.671-29.672-29.671h-9.363c-4.143 0-7.5 3.357-7.5 7.5s3.357 7.5 7.5 7.5h9.363c8.09 0 14.672 6.581 14.672 14.671s-6.582 14.672-14.672 14.672h-44.828c-4.143 0-7.5 3.357-7.5 7.5s3.357 7.5 7.5 7.5h44.828c8.09 0 14.672 6.582 14.672 14.672s-6.582 14.671-14.672 14.671h-44.828c-4.143 0-7.5 3.357-7.5 7.5s3.357 7.5 7.5 7.5h44.828c8.09 0 14.672 6.581 14.672 14.671s-6.582 14.672-14.672 14.672h-94.212c-9.649 0-17.5-7.851-17.5-17.5v-141.329c0-4.018 1.593-7.768 4.485-10.559 2.89-2.789 6.691-4.241 10.729-4.104 7.791.277 14.129 7.094 14.129 15.194v17.769c0 12.406 10.094 22.5 22.5 22.5h15.506c4.143 0 7.5-3.357 7.5-7.5s-3.357-7.5-7.5-7.5h-9.875l2.074-2.265c35.003-38.228 54.669-84.961 56.871-135.149 2.036-46.392-11.358-93.429-37.717-132.443-2.319-3.433-6.981-4.334-10.413-2.017-3.433 2.319-4.335 6.981-2.017 10.413 24.57 36.368 37.058 80.188 35.161 123.39-2.046 46.623-20.355 90.081-52.948 125.678l-4.143 4.524v-17.399c0-16.083-12.828-29.623-28.596-30.185-8.159-.293-15.833 2.659-21.679 8.301-5.848 5.644-9.068 13.227-9.068 21.352v82.741l-50.099 54.714c-12.619 13.783-29.863 21.374-48.551 21.374s-35.932-7.591-48.553-21.374l-50.099-54.714v-82.741c0-8.125-3.221-15.708-9.068-21.352-5.847-5.643-13.539-8.6-21.679-8.301-15.768.562-28.596 14.102-28.596 30.184v17.399l-4.142-4.523c-16.699-18.238-29.72-38.626-38.698-60.596-1.566-3.835-5.943-5.676-9.779-4.105-3.835 1.566-5.673 5.945-4.105 9.779 9.651 23.616 23.62 45.502 41.521 65.051l2.073 2.265h-54.238c-16.361 0-29.672 13.311-29.672 29.671 0 8.809 3.857 16.732 9.974 22.172-6.116 5.438-9.974 13.362-9.974 22.171s3.857 16.732 9.974 22.172c-6.116 5.438-9.974 13.362-9.974 22.171 0 16.36 13.31 29.671 29.672 29.671h94.212c17.921 0 32.5-14.579 32.5-32.5v-36.378l39.036 42.632c15.271 16.681 37.001 26.246 59.615 26.246s44.344-9.565 59.615-26.245l39.036-42.632v36.377c0 17.921 14.579 32.5 32.5 32.5h94.212c16.361 0 29.672-13.311 29.672-29.672 0-8.809-3.857-16.732-9.973-22.171 6.116-5.438 9.973-13.362 9.973-22.171zm-368.686 41.514c0 9.649-7.851 17.5-17.5 17.5h-94.212c-8.09 0-14.672-6.582-14.672-14.672s6.582-14.671 14.672-14.671h44.828c4.143 0 7.5-3.357 7.5-7.5s-3.357-7.5-7.5-7.5h-44.828c-8.09 0-14.672-6.582-14.672-14.672s6.582-14.671 14.672-14.671h44.828c4.143 0 7.5-3.357 7.5-7.5s-3.357-7.5-7.5-7.5h-44.828c-8.09 0-14.672-6.582-14.672-14.672s6.582-14.671 14.672-14.671h59.869c12.406 0 22.5-10.094 22.5-22.5v-17.77c0-8.101 6.338-14.916 14.129-15.193 4.034-.118 7.84 1.314 10.729 4.104 2.893 2.792 4.485 6.541 4.485 10.559z"/></g></g><g/><g/><g/><g/><g/><g/><g/><g/><g/><g/><g/><g/><g/><g/><g/></svg>