<svg id="Capa_1" enable-background="new 0 0 512 512" viewBox="0 0 512 512" xmlns="http://www.w3.org/2000/svg"><g><g><path d="m344.841 401.761-66.352-17.392c-2.204-.577-2.986-2.445-2.986-3.869s.782-3.292 2.986-3.869l66.355-17.393c8.435-2.212 14.419-9.982 14.554-18.898.016-1.051.071-2.115.162-3.163 1.78-20.402 18.483-37.168 38.853-38.997 1.324-.119 2.663-.18 3.981-.18 17.281 0 32.237 10.069 39.06 24.93 81.194-133.268-12.407-315.43-179.098-315.43h-27.926c-181.278 0-276.124 215.445-153.704 349.143l113.583 124.047c29.068 31.746 79.1 31.746 108.169 0l56.782-62.013c-.92-8.066-6.616-14.87-14.419-16.916z" fill="#00f2a6"/><g fill="#05e39c"><path d="m399.825 298.084c.859-.05 1.718-.084 2.569-.084 17.282 0 32.24 10.071 39.062 24.933 76.896-126.21-2.988-296.271-153.252-313.929 110.386 45.466 164.065 179.245 111.621 289.08z"/><path d="m344.841 401.761-21.972-5.759-96.314 105.188c26.146 8.121 55.972 1.29 75.923-20.499l56.782-62.013c-.92-8.067-6.616-14.871-14.419-16.917z"/></g><g><circle cx="248.394" cy="376" fill="#3e5959" r="37.5"/></g><g><path d="m278.236 385.337c-4.976-1.304-4.976-8.369 0-9.673l7.578-1.986c-1.105-18.062-14.992-32.662-32.734-34.875 4.355 6.126 6.925 13.609 6.925 21.698 0 20.711-16.789 37.5-37.5 37.5-1.588 0-3.15-.11-4.686-.302 6.796 9.559 17.953 15.802 30.575 15.802 16.912 0 31.204-11.197 35.88-26.581z" fill="#384949"/></g><g><path d="m446.179 336.673c-2.302-23.579-23.211-41.703-47.855-39.49-21.031 1.889-37.924 18.87-39.76 39.906-.095 1.086-.15 2.165-.166 3.235-.128 8.428-5.654 15.808-13.808 17.945l-66.355 17.393c-4.976 1.304-4.976 8.369 0 9.673l66.352 17.392c8.155 2.138 13.683 9.519 13.811 17.948.016 1.07.071 2.149.166 3.236 1.837 21.036 18.731 38.017 39.763 39.904 24.642 2.211 45.549-15.913 47.851-39.49 22.526-1.922 40.214-20.803 40.214-43.827s-17.686-41.904-40.213-43.825z" fill="#eef5f6"/></g><g><g><path d="m453.153 337.849c1.201 4.007 1.852 8.252 1.852 12.651 0 20.777-14.403 38.18-33.768 42.792-3.712.884-6.621 3.71-7.547 7.412-5.092 20.373-24.382 35.121-46.75 33.114-2.281-.205-4.509-.597-6.678-1.142 5.08 16.83 20.051 29.526 38.067 31.142 24.642 2.211 45.549-15.913 47.851-39.49 22.526-1.922 40.214-20.803 40.214-43.827 0-20.587-14.145-37.851-33.241-42.652z" fill="#deecf1"/></g></g><g><g><path d="m273.061 208.212v53.788c0 8.284 6.716 15 15 15h48.032c45.804 0 83.675-33.957 89.817-78.069.42-3.018-1.909-5.719-4.955-5.719h-132.894c-8.284 0-15 6.716-15 15z" fill="#3e5959"/></g><g><path d="m390.757 193.212c-7.786 28.674-33.985 49.769-65.125 49.769h-52.571v19.019c0 8.284 6.716 15 15 15h48.032c45.803 0 83.675-33.957 89.817-78.069.42-3.018-1.909-5.719-4.955-5.719z" fill="#384949"/></g><g><path d="m75.832 193.212c-3.047 0-5.375 2.701-4.955 5.719 6.142 44.112 44.013 78.069 89.817 78.069h48.032c8.284 0 15-6.716 15-15v-53.788c0-8.284-6.716-15-15-15z" fill="#3e5959"/></g><g><g><path d="m160.694 277h48.032c8.284 0 15-6.716 15-15v-19.02h-133.809c16.615 20.735 42.138 34.02 70.777 34.02z" fill="#384949"/></g></g><g><path d="m121.957 193.212c-.622 2.228-.961 4.574-.961 7 0 14.359 11.641 26 26 26s26-11.641 26-26c0-2.426-.339-4.772-.961-7z" fill="#7ca1b1"/></g><g><path d="m172.034 193.212h-20.234c-1.57 12.735-12.343 22.615-25.463 22.78 4.751 6.211 12.235 10.22 20.659 10.22 14.359 0 26-11.641 26-26-.001-2.426-.34-4.772-.962-7z" fill="#678d98"/></g><g><path d="m324.753 193.212c-.622 2.228-.961 4.574-.961 7 0 14.359 11.641 26 26 26s26-11.641 26-26c0-2.426-.339-4.772-.961-7z" fill="#7ca1b1"/></g><g><path d="m374.83 193.212h-20.03c-1.578 12.8-12.452 22.719-25.663 22.785 4.751 6.208 12.234 10.215 20.655 10.215 14.359 0 26-11.641 26-26 0-2.426-.34-4.772-.962-7z" fill="#678d98"/></g></g></g><g><path d="m86.257 351.578c-27.962-30.539-45.676-67.518-51.227-106.938-5.193-36.888.175-74.815 15.525-109.684 15.35-34.867 39.698-64.44 70.411-85.521 32.823-22.528 72.058-34.435 113.465-34.435h27.926c57.639 0 110.221 22.974 148.061 64.689 2.783 3.067 7.526 3.299 10.594.516 3.068-2.782 3.299-7.525.516-10.594-40.719-44.889-97.247-69.611-159.172-69.611h-27.926c-44.45 0-86.621 12.818-121.953 37.068-33.016 22.661-59.176 54.42-75.651 91.845-16.476 37.424-22.233 78.164-16.65 117.817 5.975 42.436 25 82.193 55.018 114.977l45.99 50.228c1.479 1.616 3.503 2.436 5.533 2.436 1.809 0 3.624-.65 5.063-1.969 3.055-2.797 3.264-7.541.466-10.596z"/><path d="m480.244 345.585c-7.386-7.999-17-13.393-27.524-15.535-.566-2.608-1.34-5.131-2.283-7.566 19.878-34.433 29.575-73.541 28.073-113.357-1.477-39.131-13.552-77.407-34.918-110.693-2.238-3.486-6.877-4.497-10.363-2.26-3.485 2.237-4.498 6.877-2.26 10.363 19.92 31.031 31.176 66.702 32.552 103.156 1.289 34.159-6.305 67.752-22.019 97.886-10.52-12.237-26.617-19.422-43.848-17.865-4.027.361-8.031 1.217-11.901 2.543-3.918 1.342-6.007 5.607-4.665 9.525 1.343 3.918 5.608 6.01 9.526 4.664 2.732-.936 5.551-1.539 8.381-1.793 19.963-1.787 37.782 12.898 39.72 32.748.351 3.601 3.223 6.437 6.827 6.744 18.702 1.596 33.352 17.564 33.352 36.354s-14.65 34.759-33.352 36.354c-3.604.308-6.476 3.144-6.827 6.744-1.938 19.849-19.766 34.532-39.716 32.749-17.28-1.551-31.451-15.775-32.962-33.086-.078-.896-.125-1.805-.138-2.699-.18-11.824-8.161-22.141-19.409-25.089l-57.127-14.972 57.13-14.975c11.247-2.948 19.226-13.265 19.405-25.084.014-.897.061-1.806.139-2.699.353-4.041 1.391-7.985 3.085-11.722 1.71-3.772.039-8.218-3.733-9.928-3.771-1.714-8.217-.041-9.928 3.732-2.397 5.287-3.867 10.876-4.367 16.613-.109 1.249-.174 2.518-.193 3.773-.079 5.195-3.378 9.537-8.21 10.804l-50.855 13.33c-5.163-19.27-22.772-33.344-43.442-33.344-24.813 0-45 20.187-45 45s20.187 45 45 45c17.494 0 32.948-9.854 40.401-25.142l53.891 14.125c3.705.971 6.503 3.753 7.647 7.338l-53.386 58.305c-12.621 13.783-29.864 21.374-48.553 21.374s-35.932-7.591-48.553-21.374l-43.945-47.993c-2.797-3.056-7.541-3.265-10.596-.467-3.055 2.797-3.264 7.541-.466 10.596l43.945 47.993c15.271 16.68 37 26.245 59.615 26.245s44.344-9.565 59.616-26.245l45.445-49.632c6.264 19.168 23.391 33.297 44.203 35.165 1.558.14 3.102.208 4.637.208 24.222-.002 45.328-17.063 50.425-40.545 10.524-2.143 20.138-7.536 27.524-15.535 8.802-9.533 13.649-21.933 13.649-34.915s-4.847-25.383-13.649-34.916zm-203.91 22.823c-5.581 1.463-9.331 6.322-9.331 12.092 0 4.907 2.718 9.147 6.963 11.208-5.343 8.767-14.882 14.292-25.572 14.292-16.542 0-30-13.458-30-30s13.458-30 30-30c13.753 0 25.481 9.34 28.949 22.144z"/><path d="m265.561 208.212v53.788c0 12.406 10.093 22.5 22.5 22.5h48.032c23.839 0 46.827-8.649 64.728-24.354 17.732-15.558 29.28-36.93 32.517-60.18.501-3.595-.577-7.226-2.958-9.961-2.375-2.729-5.81-4.293-9.425-4.293h-132.894c-12.407 0-22.5 10.094-22.5 22.5zm70.532 61.288h-48.032c-4.136 0-7.5-3.364-7.5-7.5v-53.788c0-4.136 3.364-7.5 7.5-7.5h28.243c.269 18.241 15.183 33 33.487 33s33.218-14.759 33.487-33h34.761c-6.882 39.412-41.615 68.788-81.946 68.788zm32.192-68.788c-.266 9.971-8.46 18-18.493 18s-18.227-8.029-18.493-18z"/><path d="m66.407 190.004c-2.381 2.736-3.459 6.366-2.958 9.961 3.237 23.251 14.785 44.623 32.517 60.181 17.901 15.705 40.889 24.354 64.728 24.354h48.032c12.407 0 22.5-10.094 22.5-22.5v-53.788c0-12.406-10.093-22.5-22.5-22.5h-132.893c-3.616 0-7.051 1.564-9.426 4.292zm99.082 10.708c-.266 9.971-8.46 18-18.493 18s-18.227-8.029-18.493-18zm-51.981 0c.269 18.241 15.183 33 33.487 33s33.218-14.759 33.487-33h28.243c4.136 0 7.5 3.364 7.5 7.5v53.788c0 4.136-3.364 7.5-7.5 7.5h-48.032c-40.331 0-75.063-29.375-81.946-68.788z"/><path d="m240.894 114.688v20c0 4.143 3.358 7.5 7.5 7.5s7.5-3.357 7.5-7.5v-20c0-4.143-3.358-7.5-7.5-7.5s-7.5 3.357-7.5 7.5z"/><path d="m338.212 153.188h41.181c4.142 0 7.5-3.357 7.5-7.5s-3.358-7.5-7.5-7.5h-41.181c-11.104 0-21.326-5.57-27.345-14.899l-8.171-12.666c-2.246-3.482-6.888-4.481-10.368-2.237-3.48 2.246-4.482 6.888-2.236 10.368l8.171 12.667c8.794 13.629 23.728 21.767 39.949 21.767z"/><path d="m158.575 153.188c16.221 0 31.156-8.138 39.95-21.769l8.171-12.666c2.246-3.48 1.244-8.122-2.236-10.368-3.479-2.243-8.123-1.243-10.368 2.237l-8.171 12.665c-6.019 9.33-16.242 14.9-27.345 14.9h-41.181c-4.142 0-7.5 3.357-7.5 7.5s3.358 7.5 7.5 7.5h41.18z"/></g></g><g/><g/><g/><g/><g/><g/><g/><g/><g/><g/><g/><g/><g/><g/><g/></svg>