<svg id="Capa_1" enable-background="new 0 0 512 512" viewBox="0 0 512 512" xmlns="http://www.w3.org/2000/svg"><g><g><g><g><path d="m310.092 480.69 113.583-124.047c122.42-133.698 27.574-349.143-153.705-349.143h-27.926c-181.278 0-276.124 215.445-153.704 349.143l113.583 124.047c29.068 31.747 79.1 31.747 108.169 0z" fill="#00f2a6"/></g><g><path d="m295.818 9.005c129.218 53.222 180.739 227.465 75.271 342.65l-136.92 149.535c26.146 8.121 55.972 1.29 75.923-20.499l113.583-124.047c116.459-127.189 36.292-328.35-127.857-347.639z" fill="#05e39c"/></g><path d="m296.507 313h-81c-22.275 0-40.5 18.225-40.5 40.5 0 21.154 16.44 38.643 37.172 40.351v-18.851c0-8.284 6.716-15 15-15h57.655c8.284 0 15 6.716 15 15v18.851c20.732-1.708 37.172-19.197 37.172-40.351.001-22.275-18.224-40.5-40.499-40.5z" fill="#3e5959"/><g fill="#384949"><path d="m212.18 375c0-4.353 1.865-8.26 4.826-11h-40.601c4.376 16.191 18.598 28.446 35.775 29.861z"/><path d="m296.507 313h-.898c.906 3.353 1.398 6.871 1.398 10.5 0 16.018-9.425 29.942-23.003 36.5h10.831c8.284 0 15 6.716 15 15v18.851c20.732-1.708 37.172-19.197 37.172-40.351 0-22.275-18.225-40.5-40.5-40.5z"/></g><g><g><path d="m212.18 375v38.401c0 24.062 19.069 44.218 43.128 44.594 24.526.382 44.527-19.384 44.527-43.822v-39.173c0-8.284-6.716-15-15-15h-57.655c-8.285 0-15 6.716-15 15z" fill="#fead8a"/></g><g><path d="m244.049 427.154c-11.722-.183-22.57-3.809-31.693-9.873 1.919 22.31 20.199 40.358 42.951 40.713 24.526.382 44.527-19.385 44.527-43.823v-22.641c-9.465 21.264-30.92 36.012-55.785 35.624z" fill="#fd9468"/></g></g><g><g><path d="m408.681 184.369-123.306 67.314c-4.662 2.545-2.855 9.629 2.457 9.629h55.493c44.792 0 82.182-31.663 91.025-73.827.667-3.182-1.777-6.173-5.028-6.173h-8.662c-4.186 0-8.305 1.052-11.979 3.057z" fill="#3e5959"/></g><g><path d="m429.322 181.312h-8.662c-4.186 0-8.305 1.051-11.979 3.057l-12.924 7.056c-8.248 33.087-33.211 59.546-65.415 69.888h12.983c44.792 0 82.182-31.663 91.025-73.827.668-3.183-1.776-6.174-5.028-6.174z" fill="#384949"/></g><g><path d="m82.692 181.312c-3.251 0-5.696 2.991-5.028 6.173 8.843 42.164 46.233 73.827 91.025 73.827h55.493c5.312 0 7.12-7.084 2.457-9.629l-123.306-67.314c-3.674-2.006-7.793-3.057-11.979-3.057z" fill="#3e5959"/></g><g><g><path d="m226.639 251.683-40.007-21.84c-11.522 13.046-26.646 22.829-43.818 27.801 8.216 2.376 16.892 3.668 25.874 3.668h55.493c5.313 0 7.121-7.084 2.458-9.629z" fill="#384949"/></g></g></g></g></g><g><path d="m93.872 351.578c-27.962-30.539-45.676-67.518-51.227-106.938-5.193-36.888.175-74.815 15.525-109.684 15.35-34.867 39.698-64.44 70.411-85.521 32.822-22.527 72.057-34.435 113.463-34.435h27.926c55.839 0 107.265 21.73 144.805 61.188 2.855 2.999 7.601 3.119 10.604.264 3.001-2.855 3.119-7.603.264-10.604-40.4-42.462-95.686-65.848-155.673-65.848h-27.926c-44.45 0-86.621 12.818-121.953 37.068-33.016 22.661-59.176 54.42-75.651 91.845-16.476 37.424-22.233 78.165-16.65 117.817 5.975 42.436 25 82.193 55.017 114.977l42.643 46.57c1.479 1.616 3.503 2.436 5.533 2.436 1.809 0 3.624-.65 5.063-1.969 3.055-2.797 3.264-7.541.466-10.596z"/><path d="m448.361 94.114c-2.319-3.433-6.981-4.334-10.413-2.017-3.433 2.319-4.335 6.981-2.017 10.413 24.57 36.368 37.058 80.188 35.161 123.39-2.046 46.623-20.355 90.081-52.949 125.678l-113.583 124.048c-12.621 13.783-29.864 21.374-48.553 21.374-18.688 0-35.932-7.591-48.552-21.374l-47.292-51.65c-2.798-3.057-7.542-3.265-10.597-.467-3.055 2.797-3.264 7.541-.467 10.596l47.293 51.65c15.272 16.68 37.001 26.245 59.615 26.245 22.615 0 44.344-9.565 59.616-26.245l113.583-124.048c35.004-38.228 54.67-84.961 56.872-135.149 2.036-46.392-11.359-93.428-37.717-132.444z"/><path d="m255.19 465.493c.276.004.551.007.827.007 13.562 0 26.318-5.22 35.999-14.75 9.879-9.727 15.319-22.717 15.319-36.578v-13.929c21.322-4.981 37.172-24.316 37.172-46.743 0-26.468-21.532-48-48-48h-81c-26.467 0-48 21.532-48 48 0 22.428 15.85 41.762 37.172 46.743v13.158c.001 28.289 22.66 51.659 50.511 52.092zm37.145-51.321c0 9.811-3.851 19.005-10.843 25.889-6.99 6.882-16.239 10.576-26.068 10.435-19.709-.308-35.745-16.947-35.745-37.094v-38.402c0-4.136 3.364-7.5 7.5-7.5h20.368v40.818c0 4.143 3.358 7.5 7.5 7.5s7.5-3.357 7.5-7.5v-40.818h22.287c4.136 0 7.5 3.364 7.5 7.5v39.172zm-109.828-60.672c0-18.196 14.804-33 33-33h81c18.196 0 33 14.804 33 33 0 14.205-9.251 26.598-22.172 31.137v-9.637c0-12.406-10.094-22.5-22.5-22.5h-57.655c-12.407 0-22.5 10.094-22.5 22.5v9.637c-12.921-4.539-22.173-16.933-22.173-31.137z"/><path d="m441.692 189.024c.782-3.733-.149-7.574-2.558-10.538-2.411-2.971-5.987-4.674-9.812-4.674h-8.662c-5.427 0-10.812 1.374-15.573 3.974l-123.307 67.314c-5.149 2.812-7.635 8.521-6.184 14.207s6.368 9.505 12.235 9.505h55.493c23.209 0 45.851-8.1 63.754-22.807 17.657-14.502 29.949-34.738 34.614-56.981zm-98.366 64.788h-46.199l115.148-62.86c2.563-1.399 5.464-2.14 8.386-2.14h5.696c-9.319 37.837-43.774 65-83.031 65z"/><path d="m99.74 190.952 21.882 11.946c3.636 1.986 8.192.646 10.177-2.989 1.985-3.636.646-8.191-2.989-10.177l-21.882-11.946c-4.762-2.6-10.147-3.974-15.573-3.974h-8.662c-3.824 0-7.4 1.703-9.812 4.674-2.407 2.964-3.339 6.805-2.557 10.538 4.665 22.242 16.957 42.479 34.611 56.981 17.903 14.707 40.545 22.807 63.754 22.807h55.493c5.868 0 10.785-3.82 12.236-9.506 1.451-5.687-1.035-11.395-6.185-14.206l-70.503-38.488c-3.636-1.986-8.192-.646-10.177 2.989-1.985 3.636-.646 8.192 2.989 10.177l62.344 34.034h-46.198c-39.258 0-73.712-27.164-83.032-65h5.697c2.923 0 5.823.741 8.387 2.14z"/><path d="m157.708 151.494c26.199 0 50.24-17.511 57.336-43.991 1.072-4.001-1.303-8.114-5.304-9.186-3.995-1.073-8.113 1.302-9.186 5.303-6.328 23.618-30.689 37.681-54.31 31.356-3.999-1.074-8.113 1.302-9.186 5.303-1.072 4.001 1.303 8.114 5.304 9.186 5.127 1.374 10.275 2.029 15.346 2.029z"/><path d="m324.621 143.536c9.144 5.28 19.292 7.977 29.575 7.977 5.154 0 10.344-.678 15.456-2.048 4.001-1.071 6.375-5.185 5.303-9.186-1.071-4.001-5.184-6.377-9.186-5.303-23.621 6.327-47.981-7.738-54.31-31.356-1.071-4-5.182-6.377-9.186-5.303-4.001 1.071-6.375 5.185-5.303 9.186 4.103 15.31 13.923 28.108 27.651 36.033z"/></g></g><g/><g/><g/><g/><g/><g/><g/><g/><g/><g/><g/><g/><g/><g/><g/></svg>