<svg id="Capa_1" enable-background="new 0 0 512 512" viewBox="0 0 512 512" xmlns="http://www.w3.org/2000/svg"><g><g><g><path d="m310.091 480.69 113.583-124.047c122.421-133.698 27.575-349.143-153.704-349.143h-27.926c-181.278 0-276.124 215.445-153.704 349.143l113.583 124.047c29.068 31.747 79.1 31.747 108.168 0z" fill="#00f2a6"/></g><g><path d="m295.818 9.005c129.218 53.222 180.739 227.465 75.271 342.65l-136.92 149.535c26.146 8.121 55.972 1.29 75.923-20.499l113.583-124.047c116.458-127.189 36.292-328.35-127.857-347.639z" fill="#05e39c"/></g><g><g><g><path d="m153.15 314c9.468 0 17.143 7.675 17.143 17.143v32.857h-29.286c-2.761 0-5-2.239-5-5v-27.857c0-9.468 7.675-17.143 17.143-17.143z" fill="#cbe5e8"/></g><g><path d="m170.293 339h34.286v32.857c0 9.468-7.675 17.143-17.143 17.143-9.468 0-17.143-7.675-17.143-17.143z" fill="#eef5f6"/></g><g><path d="m221.721 314c9.468 0 17.143 7.675 17.143 17.143v32.857h-34.286v-32.857c.001-9.468 7.676-17.143 17.143-17.143z" fill="#cbe5e8"/></g><g><path d="m238.864 339h34.286v32.857c0 9.468-7.675 17.143-17.143 17.143-9.468 0-17.143-7.675-17.143-17.143z" fill="#eef5f6"/></g><g><path d="m290.293 314c9.468 0 17.143 7.675 17.143 17.143v32.857h-34.286v-32.857c0-9.468 7.675-17.143 17.143-17.143z" fill="#cbe5e8"/></g><g><path d="m307.436 339h34.286v32.857c0 9.468-7.675 17.143-17.143 17.143-9.468 0-17.143-7.675-17.143-17.143z" fill="#eef5f6"/></g><g><path d="m376.007 356.449v-25.307c0-9.468-7.675-17.143-17.143-17.143-9.468 0-17.143 7.675-17.143 17.143v32.858h26.383c2.091-3.121 4.809-5.683 7.903-7.551z" fill="#cbe5e8"/></g></g><g><g><path d="m454.49 386.135-53.724-30.681c-22.231-12.696-47 12.074-34.305 34.305l30.681 53.724c10.694 18.726 36.269 22.155 51.518 6.906l12.736-12.736c15.249-15.249 11.82-40.824-6.906-51.518z" fill="#eef5f6"/></g><g><path d="m454.49 386.135-8.899-5.082c3.328 11.017.841 23.624-8.165 32.63l-12.736 12.736c-9.006 9.006-21.613 11.493-32.63 8.165l5.082 8.899c10.694 18.726 36.269 22.155 51.518 6.906l12.736-12.736c15.249-15.249 11.82-40.824-6.906-51.518z" fill="#cbe5e8"/></g></g></g><g><g><g><path d="m343.707 281.097h-48.032c-8.284 0-15-6.716-15-15v-30.408c0-50.086 40.603-90.688 90.689-90.688h48.032c8.284 0 15 6.716 15 15v30.408c-.001 50.085-40.603 90.688-90.689 90.688z" fill="#3e5959"/></g><g><path d="m419.395 145h-18.657v34.584c0 37.275-30.218 67.493-67.493 67.493h-52.571v19.02c0 8.284 6.716 15 15 15h48.032c50.086 0 90.689-40.603 90.689-90.689v-30.408c0-8.284-6.715-15-15-15z" fill="#384949"/></g><g><path d="m216.34 281.097h-48.032c-50.086 0-90.688-40.603-90.688-90.689v-30.408c0-8.284 6.716-15 15-15h48.032c50.086 0 90.688 40.603 90.688 90.688v30.408c0 8.285-6.716 15.001-15 15.001z" fill="#3e5959"/></g><g><g><path d="m168.307 281.097h48.032c8.284 0 15-6.716 15-15v-19.02h-133.809c16.616 20.735 42.139 34.02 70.777 34.02z" fill="#384949"/></g></g></g></g></g><g><path d="m93.871 351.578c-27.962-30.539-45.676-67.518-51.227-106.938-5.194-36.887.174-74.814 15.524-109.683 15.35-34.868 39.697-64.44 70.41-85.521 32.825-22.528 72.06-34.436 113.466-34.436h27.926c55.839 0 107.265 21.73 144.805 61.188 2.855 2.999 7.602 3.119 10.604.264 3.001-2.855 3.119-7.603.264-10.604-40.401-42.462-95.686-65.848-155.673-65.848h-27.926c-44.45 0-86.621 12.818-121.953 37.068-33.016 22.661-59.175 54.421-75.65 91.845s-22.232 78.165-16.649 117.818c5.975 42.435 25 82.193 55.018 114.976l42.642 46.57c1.479 1.616 3.503 2.436 5.533 2.436 1.809 0 3.624-.65 5.062-1.969 3.056-2.797 3.265-7.541.467-10.596z"/><path d="m424.008 435.501c1.919 0 3.839-.732 5.304-2.197l15-15.002c2.929-2.929 2.929-7.678-.001-10.606-2.928-2.928-7.677-2.929-10.606.001l-15 15.002c-2.929 2.929-2.929 7.678.001 10.606 1.463 1.464 3.383 2.196 5.302 2.196z"/><path d="m371.364 137.5c-54.142 0-98.188 44.047-98.188 98.188v30.408c0 12.406 10.094 22.5 22.5 22.5h48.032c54.142 0 98.188-44.047 98.188-98.188v-30.408c0-12.406-10.094-22.5-22.5-22.5zm55.532 22.5v30.408c0 45.87-37.318 83.188-83.188 83.188h-48.032c-4.136 0-7.5-3.364-7.5-7.5v-30.408c0-45.87 37.318-83.188 83.188-83.188h48.032c4.135 0 7.5 3.364 7.5 7.5z"/><path d="m92.618 152.5h48.033c16.609 0 32.642 4.879 46.363 14.109 3.439 2.312 8.098 1.4 10.409-2.036 2.312-3.438 1.4-8.098-2.036-10.409-16.206-10.901-35.134-16.664-54.736-16.664h-48.033c-12.406 0-22.5 10.094-22.5 22.5v30.408c0 54.142 44.048 98.188 98.189 98.188h48.031c12.406 0 22.5-10.094 22.5-22.5v-30.408c0-19.562-5.741-38.459-16.604-54.646-2.308-3.439-6.968-4.359-10.406-2.049-3.439 2.308-4.357 6.967-2.049 10.406 9.198 13.707 14.06 29.714 14.06 46.289v30.408c0 4.136-3.364 7.5-7.5 7.5h-48.031c-45.871 0-83.189-37.318-83.189-83.188v-30.408c-.001-4.136 3.364-7.5 7.499-7.5z"/><path d="m486.077 226.558c2.036-46.392-11.358-93.429-37.717-132.443-2.319-3.433-6.981-4.334-10.413-2.017-3.433 2.319-4.335 6.981-2.017 10.413 24.57 36.368 37.058 80.188 35.161 123.39-2.046 46.623-20.355 90.081-52.95 125.678l-3.103 3.39-10.553-6.027c-6.713-3.833-14.013-5.157-20.979-4.124v-13.675c0-13.588-11.055-24.643-24.643-24.643s-24.643 11.055-24.643 24.643v.357h-19.286v-.357c0-13.588-11.055-24.643-24.643-24.643-13.589 0-24.644 11.055-24.644 24.643v.357h-19.285v-.357c0-13.588-11.055-24.643-24.644-24.643-13.588 0-24.643 11.055-24.643 24.643v.357h-19.285v-.357c0-13.588-11.055-24.643-24.644-24.643-13.588 0-24.643 11.055-24.643 24.643v27.857c0 6.893 5.607 12.5 12.5 12.5h21.786v.357c0 13.588 11.055 24.643 24.643 24.643s24.643-11.055 24.643-24.643v-.357h19.286v.357c0 13.588 11.055 24.643 24.643 24.643s24.643-11.055 24.643-24.643v-.357h19.286v.357c0 13.588 11.055 24.643 24.643 24.643s24.643-11.055 24.643-24.643v-.357h6.78c-1.321 7.264-.07 14.943 3.948 21.979l7.617 13.338-63.005 68.81c-12.62 13.782-29.863 21.373-48.552 21.373s-35.932-7.591-48.553-21.374l-47.293-51.65c-2.798-3.057-7.543-3.266-10.596-.467-3.056 2.797-3.265 7.541-.467 10.596l47.293 51.65c15.272 16.68 37.002 26.245 59.616 26.245s44.344-9.565 59.615-26.245l59.755-65.26 15.252 26.708c6.267 10.973 17.044 18.229 29.568 19.907 1.824.244 3.643.365 5.448.365 10.588-.001 20.685-4.15 28.317-11.783l12.735-12.736c8.936-8.935 13.098-21.242 11.419-33.766s-8.936-23.302-19.908-29.568l-29.816-17.028.812-.887c35.005-38.228 54.671-84.961 56.873-135.149zm-323.284 129.942h-19.286v-25.357c0-5.317 4.325-9.643 9.643-9.643s9.644 4.325 9.644 9.643v25.357zm34.285 15.357c0 5.317-4.325 9.643-9.643 9.643s-9.643-4.325-9.643-9.643v-25.357h19.285v25.357zm34.287-15.357h-19.286v-25.357c0-5.317 4.325-9.643 9.643-9.643s9.644 4.325 9.644 9.643v25.357zm34.285 15.357c0 5.317-4.325 9.643-9.643 9.643-5.317 0-9.643-4.325-9.643-9.643v-25.357h19.285v25.357zm34.286-15.357h-19.286v-25.357c0-5.317 4.326-9.643 9.644-9.643s9.643 4.325 9.643 9.643v25.357zm34.285 15.357c0 5.317-4.325 9.643-9.643 9.643s-9.643-4.325-9.643-9.643v-25.357h19.285v25.357zm34.286-20.53c-1.135.884-2.244 1.827-3.295 2.878-.742.742-1.432 1.51-2.09 2.295h-13.9v-25.357c0-5.317 4.325-9.643 9.643-9.643s9.643 4.325 9.643 9.643v20.184zm82.263 41.32c6.879 3.929 11.428 10.685 12.48 18.535 1.052 7.851-1.557 15.565-7.158 21.166l-12.736 12.737c-5.602 5.602-13.317 8.21-21.166 7.157-7.851-1.053-14.606-5.601-18.535-12.479l-30.681-53.725c-4.927-8.626-1.761-16.621 2.845-21.228 2.963-2.963 7.329-5.33 12.363-5.33 2.791 0 5.787.729 8.864 2.485z"/></g></g><g/><g/><g/><g/><g/><g/><g/><g/><g/><g/><g/><g/><g/><g/><g/></svg>