<svg id="Capa_1" enable-background="new 0 0 512 512" viewBox="0 0 512 512" xmlns="http://www.w3.org/2000/svg"><g><g><g><g><g><path d="m293.573 7.5h-27.926c-98.35 0-171.252 63.418-197.827 142.789 31.049-36.16 83.725-49.193 129.069-28.289 54.504 25.127 78.676 89.546 53.985 144.386-20.917 46.461-70.231 71.218-118.224 63.015-4.52-.772-8.998 1.552-10.88 5.733l-8.036 17.849 10.087 4.231c10.293 4.317 15.888 15.709 12.664 26.233l89.041 97.244c29.068 31.746 79.1 31.746 108.169 0l113.583-124.047c122.419-133.699 27.573-349.144-153.705-349.144z" fill="#00f2a6"/></g><g><path d="m319.421 9.005c129.218 53.222 180.739 227.465 75.271 342.65l-136.92 149.535c26.146 8.121 55.972 1.29 75.923-20.499l113.583-124.047c116.458-127.189 36.292-328.35-127.857-347.639z" fill="#05e39c"/></g><g><path d="m367.31 291.745h-48.032c-8.284 0-15-6.716-15-15v-30.408c0-50.086 40.603-90.688 90.688-90.688h48.032c8.284 0 15 6.716 15 15v30.408c0 50.086-40.602 90.688-90.688 90.688z" fill="#3e5959"/></g><g><path d="m442.998 155.649h-18.657v34.584c0 37.275-30.218 67.493-67.493 67.493h-52.571v19.02c0 8.284 6.716 15 15 15h48.032c50.086 0 90.689-40.603 90.689-90.689v-30.408c0-8.284-6.716-15-15-15z" fill="#384949"/></g><g><circle cx="379.61" cy="221.957" fill="#7ca1b1" r="26"/></g><g><path d="m380.222 195.973c3.012 4.244 4.789 9.427 4.789 15.027 0 14.359-11.641 26-26 26-.205 0-.408-.011-.612-.015 4.711 6.637 12.452 10.973 21.211 10.973 14.359 0 26-11.641 26-26 0-14.155-11.312-25.659-25.388-25.985z" fill="#678d98"/></g><g><g><path d="m196.888 122c-54.988-25.35-120.764-.799-145.669 54.392-20.978 46.488-6.821 99.877 31.173 130.387 3.569 2.866 4.784 7.758 2.905 11.931l-10.522 23.371c7.347.203 14.537 1.742 21.394 4.617l17.155 7.196 8.447-18.761c1.882-4.181 6.361-6.505 10.88-5.733 47.993 8.203 97.306-16.554 118.224-63.015 24.689-54.839.518-119.258-53.987-144.385z" fill="#7ca1b1"/></g><path d="m196.888 122c-5.99-2.761-12.108-4.93-18.288-6.532 28.268 22.965 43.167 58.661 39.982 94.625 2.182 12.924.69 26.612-5.095 39.461-6.691 14.862-18.032 26.163-31.527 32.984-24.556 21.648-58.011 31.476-90.853 25.863-2.254-.385-4.497 0-6.413 1.001 1.686 2.76 1.989 6.228.603 9.308l-10.522 23.371c7.347.203 14.537 1.742 21.394 4.617l17.155 7.196 8.447-18.761c1.882-4.181 6.361-6.505 10.88-5.733 47.993 8.203 97.306-16.554 118.224-63.015 24.689-54.839.518-119.258-53.987-144.385z" fill="#678d98"/><g><circle cx="151.027" cy="221.433" fill="#fff" r="68.5"/></g><g><path d="m188.542 164.115c11.723 18.749 14.173 42.813 4.414 64.49-15.531 34.497-56.086 49.871-90.583 34.34-3.312-1.491-6.445-3.218-9.394-5.143 6.933 11.089 17.106 20.321 29.926 26.093 34.497 15.531 75.052.156 90.583-34.34 14.04-31.185 2.82-67.316-24.946-85.44z" fill="#deecf1"/></g></g><g><g><g><path d="m91.15 436.432c10.91 4.576 23.465-.558 28.041-11.468 4.576-10.911-.558-23.465-11.468-28.041 11.149 4.677 24.016-.788 28.33-12.194 4.11-10.865-1.52-23.021-12.231-27.514l-27.266-11.437c-30.886-12.955-66.427 1.581-79.382 32.467l-2.802 6.68c-12.955 30.886 1.581 66.427 32.467 79.382l27.266 11.437c10.712 4.493 23.329-.01 28.2-10.555 5.112-11.072-.006-24.081-11.155-28.757z" fill="#00f2a6"/></g></g><g><path d="m123.821 357.214-20.325-8.525c2.795 5.473 3.408 11.994 1.088 18.126l-35.728 85.178c-3.763 8.147-11.895 12.865-20.422 12.983l25.669 10.767c10.712 4.493 23.329-.01 28.2-10.555 5.114-11.071-.004-24.079-11.154-28.756 10.91 4.576 23.464-.558 28.041-11.468 4.576-10.911-.558-23.465-11.469-28.041 11.149 4.677 24.016-.788 28.33-12.194 4.111-10.866-1.518-23.022-12.23-27.515z" fill="#05e39c"/></g></g></g><g><circle cx="151.027" cy="221.957" fill="#7ca1b1" r="26"/></g><g><path d="m152.233 195.988c3.006 4.241 4.779 9.418 4.779 15.012 0 14.359-11.641 26-26 26-.405 0-.806-.012-1.206-.031 4.71 6.646 12.456 10.988 21.222 10.988 14.359 0 26-11.641 26-26-.001-13.955-10.996-25.339-24.795-25.969z" fill="#678d98"/></g></g></g><g><path d="m144.611 381.216c1.686-12.689-5.467-25.708-17.889-30.918l-2.99-1.254 4.877-10.832c.467-1.035 1.604-1.618 2.777-1.419 52.492 8.974 104.439-18.714 126.326-67.328 12.754-28.327 13.78-59.95 2.891-89.043-10.883-29.075-32.396-52.242-60.575-65.233-12.282-5.662-25.217-9.086-38.329-10.265 12.963-8.545 30.002-9.983 44.524-2.63 3.693 1.869 8.208.392 10.079-3.304s.392-8.208-3.304-10.079c-25.194-12.755-56.052-5.745-73.343 16.148-9.958 1.012-19.867 3.309-29.521 6.914-8.117 3.032-15.764 6.881-22.858 11.455 13.78-26.814 33.146-50.097 57.087-68.331 34.438-26.232 76.378-40.097 121.284-40.097h27.926c51.989 0 99.016 18.148 135.997 52.482 3.034 2.818 7.78 2.643 10.599-.394 2.818-3.035 2.643-7.78-.394-10.599-39.804-36.955-90.36-56.489-146.202-56.489h-27.926c-48.218 0-93.301 14.926-130.374 43.164-34.271 26.104-59.846 61.783-74.051 103.253-6.737 8.056-12.409 17.074-16.839 26.891-21.954 48.649-8.256 105.939 33.312 139.319.915.734 1.229 1.971.763 3.005l-8.082 17.949c-7.823.317-15.615 1.995-23.076 5.047-16.848 6.891-30.004 19.93-37.044 36.715l-2.802 6.68c-7.041 16.785-7.123 35.308-.233 52.155 6.891 16.848 19.93 30.004 36.715 37.044l27.266 11.437c3.697 1.551 7.558 2.284 11.369 2.284 11.091-.001 21.741-6.219 26.541-16.61 3.326-7.201 3.579-15.233.712-22.614-.234-.605-.488-1.2-.76-1.783 7.425-2.627 13.763-8.252 17.042-16.07 2.989-7.124 3.024-14.985.1-22.136-.178-.436-.366-.865-.563-1.289.602-.214 1.198-.447 1.791-.702 4.096-1.761 7.645-4.372 10.466-7.641l33.902 37.026c1.479 1.616 3.503 2.436 5.533 2.436 1.809 0 3.624-.65 5.062-1.969 3.056-2.797 3.265-7.541.467-10.596zm-86.556-201.738c11.214-24.85 31.573-43.833 57.327-53.453 25.766-9.622 53.595-8.633 78.366 2.787 24.565 11.324 43.318 31.521 52.807 56.868 9.493 25.363 8.599 52.932-2.521 77.627-19.081 42.384-64.364 66.52-110.123 58.7-7.902-1.345-15.71 2.783-18.98 10.048l-5.036 11.185-10.439-4.378c-4.302-1.804-8.718-3.145-13.19-4.035l5.87-13.037c3.271-7.267 1.195-15.844-5.048-20.858-36.234-29.097-48.172-79.04-29.033-121.454zm70.983 202.596c-1.354 3.578-4.027 6.377-7.528 7.883-3.505 1.507-7.369 1.523-10.886.049-3.82-1.602-8.215.194-9.817 4.015-1.603 3.819.195 8.215 4.015 9.817 3.43 1.438 6.094 4.127 7.501 7.568 1.408 3.442 1.391 7.227-.048 10.655-1.438 3.43-4.126 6.094-7.568 7.501-3.441 1.409-7.227 1.39-10.654-.047-3.819-1.602-8.216.194-9.817 4.015-1.603 3.82.195 8.215 4.015 9.817.002.001.005.002.006.003 3.513 1.476 6.207 4.244 7.587 7.798 1.38 3.553 1.257 7.422-.347 10.895-3.103 6.716-11.398 9.758-18.49 6.783l-27.268-11.436c-13.091-5.491-23.26-15.751-28.634-28.89-5.373-13.14-5.309-27.585.182-40.675l2.802-6.68c5.491-13.091 15.751-23.26 28.891-28.634 6.495-2.657 13.308-3.984 20.121-3.984 6.968 0 13.936 1.39 20.554 4.166l27.266 11.437c7.092 2.975 10.734 11.025 8.117 17.944z"/><path d="m464.187 83.317c-2.522-3.284-7.229-3.904-10.517-1.382-3.285 2.522-3.904 7.23-1.382 10.517 28.019 36.497 43.142 81.67 42.583 127.196-.602 49.009-18.973 94.629-53.126 131.93l-113.581 124.048c-12.621 13.783-29.865 21.374-48.553 21.374-18.689 0-35.933-7.591-48.554-21.374l-24.545-26.806c-2.798-3.057-7.543-3.266-10.596-.467-3.056 2.797-3.265 7.541-.467 10.596l24.545 26.806c15.272 16.68 37.002 26.245 59.617 26.245 22.614 0 44.344-9.565 59.615-26.245l113.582-124.048c36.684-40.062 56.415-89.121 57.062-141.874.6-48.878-15.624-97.36-45.683-136.516z"/><path d="m465.499 201.057v-30.408c0-12.406-10.094-22.5-22.5-22.5h-48.032c-54.142 0-98.188 44.047-98.188 98.188v30.408c0 12.406 10.094 22.5 22.5 22.5h48.032c54.141 0 98.188-44.047 98.188-98.188zm-153.721 75.688v-30.408c0-45.87 37.318-83.188 83.188-83.188h48.032c4.136 0 7.5 3.364 7.5 7.5v30.408c0 45.87-37.318 83.188-83.188 83.188h-48.032c-4.136 0-7.5-3.364-7.5-7.5z"/><path d="m229.61 354.5c-4.143 0-7.5 3.357-7.5 7.5s3.357 7.5 7.5 7.5h100c4.143 0 7.5-3.357 7.5-7.5s-3.357-7.5-7.5-7.5z"/><path d="m352.998 102.294c10.567-5.352 22.588-6.267 33.842-2.578 11.256 3.688 20.401 11.539 25.752 22.106 1.321 2.609 3.96 4.114 6.697 4.114 1.14 0 2.296-.261 3.382-.811 3.695-1.871 5.175-6.384 3.304-10.079-14.782-29.193-50.559-40.919-79.752-26.136-3.695 1.871-5.175 6.384-3.304 10.079s6.384 5.174 10.079 3.305z"/><path d="m413.11 221.957c0-18.472-15.028-33.5-33.5-33.5s-33.5 15.028-33.5 33.5 15.028 33.5 33.5 33.5 33.5-15.028 33.5-33.5zm-52 0c0-10.201 8.299-18.5 18.5-18.5s18.5 8.299 18.5 18.5-8.299 18.5-18.5 18.5-18.5-8.299-18.5-18.5z"/><path d="m119.827 290.733c9.968 4.488 20.555 6.741 31.168 6.74 9.096 0 18.213-1.655 26.973-4.976 18.982-7.196 34.025-21.354 42.359-39.864s8.961-39.159 1.765-58.142-21.354-34.025-39.864-42.359c-21.11-9.506-45.074-8.916-65.743 1.618-3.69 1.881-5.158 6.397-3.277 10.088 1.882 3.692 6.398 5.158 10.088 3.277 16.597-8.458 35.831-8.933 52.774-1.306 14.857 6.688 26.221 18.763 31.996 33.999 5.776 15.235 5.273 31.809-1.416 46.666-6.688 14.857-18.763 26.221-33.999 31.996-15.234 5.776-31.808 5.272-46.665-1.416-14.857-6.689-26.222-18.764-31.997-33.999-5.776-15.235-5.273-31.809 1.416-46.667 1.312-2.916 2.884-5.774 4.669-8.496 2.272-3.463 1.307-8.112-2.156-10.385-3.464-2.275-8.113-1.308-10.385 2.156-2.217 3.379-4.171 6.935-5.806 10.567-17.205 38.214-.113 83.299 38.1 100.503z"/><path d="m151.027 255.457c18.472 0 33.5-15.028 33.5-33.5s-15.028-33.5-33.5-33.5-33.5 15.028-33.5 33.5 15.028 33.5 33.5 33.5zm0-52c10.201 0 18.5 8.299 18.5 18.5s-8.299 18.5-18.5 18.5-18.5-8.299-18.5-18.5 8.299-18.5 18.5-18.5z"/></g></g><g/><g/><g/><g/><g/><g/><g/><g/><g/><g/><g/><g/><g/><g/><g/></svg>