<svg id="Capa_1" enable-background="new 0 0 512 512" viewBox="0 0 512 512" xmlns="http://www.w3.org/2000/svg"><g><g><g><path d="m310.092 480.69 113.583-124.047c122.42-133.698 27.574-349.143-153.705-349.143h-27.926c-181.278 0-276.124 215.445-153.704 349.143l113.583 124.047c29.068 31.747 79.1 31.747 108.169 0z" fill="#00f2a6"/></g><g><path d="m295.818 9.005c129.218 53.222 180.739 227.465 75.271 342.65l-136.92 149.535c26.146 8.121 55.972 1.29 75.923-20.499l113.583-124.047c116.459-127.189 36.292-328.35-127.857-347.639z" fill="#05e39c"/></g><g><g><path d="m408.681 153.057-123.306 67.314c-4.662 2.545-2.855 9.629 2.457 9.629h55.493c44.792 0 82.182-31.663 91.025-73.827.667-3.182-1.777-6.173-5.028-6.173h-8.662c-4.186 0-8.305 1.051-11.979 3.057z" fill="#3e5959"/></g><g><path d="m429.322 150h-8.662c-4.186 0-8.305 1.051-11.979 3.057l-12.924 7.056c-8.248 33.087-33.211 59.546-65.415 69.888h12.983c44.792 0 82.182-31.663 91.025-73.827.668-3.183-1.776-6.174-5.028-6.174z" fill="#384949"/></g><g><path d="m82.692 150c-3.251 0-5.696 2.991-5.028 6.173 8.843 42.164 46.233 73.827 91.025 73.827h55.493c5.312 0 7.12-7.084 2.457-9.629l-123.306-67.314c-3.674-2.006-7.793-3.057-11.979-3.057z" fill="#3e5959"/></g><g><path d="m226.639 220.371-40.007-21.84c-11.522 13.046-26.646 22.829-43.818 27.801 8.216 2.376 16.892 3.668 25.874 3.668h55.493c5.313 0 7.121-7.084 2.458-9.629z" fill="#384949"/></g></g><g><g><path d="m256.007 392.056c-58.542 0-106-47.458-106-106 0-5.523 4.477-10 10-10h192c5.523 0 10 4.477 10 10 0 58.542-47.457 106-106 106z" fill="#3e5959"/></g><g><path d="m331.007 319.056v-43h-150v43c0 8.284 6.716 15 15 15h120c8.285 0 15-6.716 15-15z" fill="#fff"/></g><g><path d="m297.007 276.055v18.945c0 8.284-6.716 15-15 15h-101v9.055c0 8.284 6.716 15 15 15h120c8.284 0 15-6.716 15-15v-43z" fill="#deecf1"/></g><g><path d="m316.007 334.056h-120c-8.284 0-15 6.716-15 15v11.886c19.186 19.216 45.7 31.114 75 31.114 29.3 0 55.814-11.897 75-31.114v-11.886c0-8.285-6.715-15-15-15z" fill="#fff"/></g><g><path d="m256.007 367c-27.511 0-52.564-10.489-71.402-27.676-2.239 2.62-3.598 6.015-3.598 9.731v11.886c19.186 19.216 45.7 31.114 75 31.114 29.3 0 55.814-11.897 75-31.114v-11.886c0-3.717-1.359-7.111-3.598-9.731-18.838 17.187-43.891 27.676-71.402 27.676z" fill="#deecf1"/></g></g></g><g><path d="m448.361 94.114c-2.319-3.433-6.981-4.334-10.413-2.017-3.433 2.319-4.335 6.981-2.017 10.413 24.57 36.368 37.058 80.188 35.161 123.39-2.046 46.623-20.355 90.081-52.949 125.678l-113.583 124.048c-12.621 13.783-29.864 21.374-48.553 21.374s-35.932-7.591-48.553-21.374l-24.94-27.237c-2.796-3.055-7.541-3.264-10.596-.467s-3.264 7.541-.467 10.596l24.94 27.237c15.273 16.68 37.002 26.245 59.616 26.245s44.344-9.565 59.615-26.245l113.583-124.048c35.004-38.228 54.67-84.961 56.872-135.149 2.037-46.392-11.358-93.428-37.716-132.444z"/><path d="m93.872 351.578c-27.962-30.539-45.676-67.518-51.227-106.938-5.193-36.888.175-74.815 15.525-109.684 15.35-34.867 39.698-64.44 70.411-85.521 32.822-22.527 72.057-34.435 113.463-34.435h27.926c55.839 0 107.265 21.73 144.805 61.188 2.856 3 7.602 3.118 10.604.264 3.001-2.855 3.119-7.603.264-10.604-40.4-42.462-95.686-65.848-155.673-65.848h-27.926c-44.45 0-86.621 12.818-121.953 37.068-33.016 22.661-59.176 54.42-75.651 91.844-16.476 37.425-22.233 78.166-16.65 117.818 5.975 42.436 25 82.193 55.017 114.977l64.996 70.983c1.479 1.616 3.503 2.436 5.533 2.436 1.809 0 3.624-.65 5.063-1.969 3.055-2.797 3.264-7.541.466-10.596z"/><path d="m441.692 157.712c.782-3.733-.149-7.574-2.558-10.538-2.411-2.971-5.987-4.674-9.812-4.674h-8.662c-5.427 0-10.812 1.374-15.573 3.974l-123.306 67.314c-5.15 2.812-7.636 8.521-6.185 14.206 1.45 5.686 6.367 9.506 12.235 9.506h55.493c23.209 0 45.851-8.1 63.754-22.807 17.657-14.503 29.949-34.739 34.614-56.981zm-98.366 64.788h-46.197l115.146-62.86c2.563-1.399 5.464-2.14 8.386-2.14h5.696c-9.319 37.837-43.774 65-83.031 65z"/><path d="m91.354 142.5h-8.662c-3.824 0-7.4 1.703-9.812 4.674-2.407 2.964-3.339 6.805-2.557 10.538 4.665 22.242 16.957 42.479 34.611 56.981 17.903 14.707 40.545 22.807 63.754 22.807h55.493c5.868 0 10.786-3.82 12.236-9.506s-1.035-11.395-6.186-14.206l-123.306-67.314c-4.76-2.6-10.145-3.974-15.571-3.974zm77.335 80c-39.258 0-73.712-27.164-83.032-65h5.697c2.922 0 5.821.74 8.385 2.14l115.147 62.86z"/><path d="m117.665 115.502c2.737-.001 5.375-1.505 6.697-4.113 5.351-10.567 14.497-18.418 25.752-22.106 11.254-3.69 23.273-2.774 33.841 2.578 3.693 1.869 8.208.392 10.079-3.303 1.872-3.695.393-8.208-3.303-10.08-14.142-7.16-30.226-8.386-45.289-3.45-15.063 4.937-27.302 15.443-34.463 29.584-1.872 3.696-.393 8.208 3.303 10.08 1.087.549 2.243.81 3.383.81z"/><path d="m328.059 91.86c21.811-11.047 48.547-2.286 59.594 19.528 1.322 2.609 3.96 4.113 6.697 4.113 1.14 0 2.297-.261 3.383-.811 3.695-1.872 5.174-6.385 3.303-10.08-14.783-29.193-50.56-40.915-79.754-26.134-3.695 1.872-5.174 6.385-3.303 10.08 1.871 3.698 6.384 5.173 10.08 3.304z"/><path d="m256.007 399.556c62.584 0 113.5-50.916 113.5-113.5 0-9.649-7.851-17.5-17.5-17.5h-102c-4.142 0-7.5 3.357-7.5 7.5s3.358 7.5 7.5 7.5h73.5v35.5c0 4.136-3.364 7.5-7.5 7.5h-120c-4.136 0-7.5-3.364-7.5-7.5v-35.5h26.5c4.142 0 7.5-3.357 7.5-7.5s-3.358-7.5-7.5-7.5h-55c-9.649 0-17.5 7.851-17.5 17.5 0 62.584 50.916 113.5 113.5 113.5zm82.5-80.5v-35.5h13.5c1.379 0 2.5 1.121 2.5 2.5 0 20.622-6.375 39.78-17.25 55.618-.99-2.84-2.53-5.423-4.498-7.618 3.572-3.984 5.748-9.242 5.748-15zm-150 30c0-4.136 3.364-7.5 7.5-7.5h120c4.136 0 7.5 3.364 7.5 7.5v8.666c-17.643 16.627-41.401 26.834-67.5 26.834s-49.857-10.207-67.5-26.834zm-31-63c0-1.379 1.122-2.5 2.5-2.5h13.5v35.5c0 5.758 2.177 11.016 5.748 15-1.968 2.195-3.508 4.778-4.497 7.618-10.876-15.838-17.251-34.997-17.251-55.618z"/></g></g><g/><g/><g/><g/><g/><g/><g/><g/><g/><g/><g/><g/><g/><g/><g/></svg>