<svg id="Capa_1" enable-background="new 0 0 512 512" viewBox="0 0 512 512" xmlns="http://www.w3.org/2000/svg"><g><g><g><path d="m310.092 480.69 113.583-124.047c122.42-133.698 27.574-349.143-153.705-349.143h-27.926c-181.278 0-276.124 215.445-153.704 349.143l113.583 124.047c29.068 31.747 79.1 31.747 108.169 0z" fill="#00f2a6"/></g><g><path d="m295.818 9.005c129.218 53.222 180.739 227.465 75.271 342.65l-136.92 149.535c26.146 8.121 55.972 1.29 75.923-20.499l113.583-124.047c116.459-127.189 36.292-328.35-127.857-347.639z" fill="#05e39c"/></g><g><path d="m423.074 266c7.211-13.009 11.322-27.973 11.322-43.9v-30.408c0-8.284-6.716-15-15-15h-48.032c-49.625 0-89.932 39.86-90.671 89.309h142.381z" fill="#3e5959"/></g><g><path d="m423.074 266c7.211-13.009 11.322-27.973 11.322-43.9v-30.408c0-8.284-6.716-15-15-15h-18.657v34.584c0 22.528-11.048 42.465-28.011 54.724z" fill="#384949"/></g><g><path d="m231.322 266c-.739-49.449-41.047-89.309-90.671-89.309h-48.032c-8.284 0-15 6.716-15 15v30.409c0 15.927 4.111 30.892 11.322 43.9z" fill="#3e5959"/></g><g><path d="m189.728 246.38v19.62h41.581c-.645-43.077-31.306-78.877-72.009-87.385 18.666 16.611 30.428 40.812 30.428 67.765z" fill="#384949"/></g><g><g><g><path d="m184.17 267c3.945-4.559 6.337-10.498 6.337-17 0-14.359-11.641-26-26-26s-26 11.641-26 26c0 6.502 2.392 12.441 6.337 17z" fill="#7ca1b1"/></g><g><path d="m184.17 267c3.945-4.559 6.337-10.498 6.337-17 0-14.193-11.374-25.722-25.504-25.988 3.445 4.411 5.504 9.957 5.504 15.988 0 14.359-11.641 26-26 26-.166 0-.33-.009-.496-.012.27.345.551.681.837 1.012z" fill="#678d98"/></g></g><g><g><path d="m367.17 267c3.945-4.559 6.337-10.498 6.337-17 0-14.359-11.641-26-26-26s-26 11.641-26 26c0 6.502 2.392 12.441 6.337 17z" fill="#7ca1b1"/></g><g><path d="m367.17 267c3.945-4.559 6.337-10.498 6.337-17 0-14.193-11.375-25.722-25.504-25.988 3.445 4.411 5.504 9.957 5.504 15.988 0 14.359-11.641 26-26 26-.166 0-.33-.009-.496-.012.27.345.551.681.837 1.012z" fill="#678d98"/></g></g></g><g><path d="m231.34 266h-142.399c10.019 18.075 26.034 32.361 45.359 40.182 8.574 3.47 16.605 8.183 23.47 14.382 4.43 4 10.298 6.436 16.738 6.436 5.8 0 11.139-1.976 15.38-5.29 7.173-5.606 15.865-8.921 24.969-8.922h1.233c8.537 0 15.251-6.716 15.251-15v-31.788z" fill="#01c0fa"/></g><g><path d="m189.728 266v10.788c0 8.284-6.716 15-15 15h-1.49c-9.102.001-17.792 3.317-24.963 8.921-4.021 3.143-9.035 5.06-14.487 5.253.172.071.339.15.511.22 8.574 3.47 16.605 8.183 23.47 14.382 4.43 4 10.298 6.436 16.738 6.436 5.8 0 11.139-1.976 15.38-5.291 7.173-5.606 15.865-8.921 24.969-8.921h1.233c8.537 0 15.251-6.716 15.251-15v-31.788z" fill="#08a9f1"/></g><g><path d="m423.074 266h-142.382c-.007.007-.011.011-.017.017v31.771c0 8.284 6.716 15 15 15h1.484c9.103 0 17.795 3.316 24.968 8.922 4.241 3.315 9.58 5.29 15.38 5.29 6.439 0 12.308-2.436 16.738-6.436 6.865-6.199 14.896-10.912 23.47-14.382 19.324-7.821 35.339-22.107 45.359-40.182z" fill="#01c0fa"/></g><g><path d="m371.007 266c-10.019 18.075-26.034 32.361-45.359 40.182-5.701 2.307-11.151 5.178-16.189 8.656 4.544 1.531 8.825 3.869 12.668 6.872 4.241 3.315 9.58 5.291 15.38 5.291 6.439 0 12.308-2.436 16.738-6.436 6.865-6.199 14.896-10.912 23.47-14.382 19.325-7.822 35.34-22.107 45.359-40.182h-52.067z" fill="#08a9f1"/></g></g><g><g><path d="m164.33 447.132c-2.031 0-4.054-.819-5.534-2.436l-75.988-82.989c-30.018-32.783-49.042-72.541-55.017-114.977-5.583-39.652.174-80.394 16.649-117.817 16.476-37.425 42.635-69.184 75.651-91.845 35.333-24.25 77.503-37.068 121.953-37.068h27.926c59.987 0 115.272 23.386 155.672 65.849 2.855 3.001 2.737 7.748-.264 10.604-3 2.855-7.747 2.736-10.603-.264-37.541-39.459-88.967-61.189-144.805-61.189h-27.926c-41.406 0-80.642 11.907-113.464 34.436-30.713 21.08-55.061 50.653-70.411 85.521s-20.718 72.796-15.525 109.684c5.551 39.421 23.265 76.399 51.227 106.938l75.988 82.989c2.797 3.055 2.588 7.799-.466 10.596-1.44 1.317-3.254 1.968-5.063 1.968z"/></g><g><path d="m256.007 512c-22.615 0-44.344-9.565-59.616-26.245l-13.947-15.231c-2.797-3.055-2.588-7.799.467-10.596 3.055-2.798 7.799-2.59 10.597.467l13.946 15.231c12.621 13.783 29.864 21.374 48.553 21.374s35.932-7.591 48.553-21.374l113.583-124.048c32.593-35.597 50.902-79.055 52.949-125.678 1.896-43.201-10.591-87.021-35.161-123.39-2.318-3.432-1.416-8.094 2.016-10.413 3.433-2.317 8.094-1.415 10.414 2.017 26.358 39.016 39.752 86.052 37.716 132.443-2.203 50.188-21.869 96.922-56.872 135.149l-113.582 124.049c-15.272 16.68-37.001 26.245-59.616 26.245z"/></g><g><path d="m256.007 431.776c-40.969 0-77.958-25.837-92.042-64.292-1.425-3.89.574-8.197 4.463-9.622 3.89-1.425 8.198.574 9.622 4.464 11.928 32.568 43.257 54.45 77.958 54.45s66.029-21.882 77.958-54.45c1.425-3.892 5.734-5.888 9.622-4.464 3.889 1.425 5.888 5.732 4.463 9.622-14.086 38.455-51.075 64.292-92.044 64.292z"/></g><g><path d="m137.027 141.951c-5.156 0-10.343-.678-15.457-2.048-4.001-1.072-6.375-5.185-5.303-9.186s5.186-6.376 9.186-5.303c11.44 3.065 23.391 1.491 33.648-4.43 10.258-5.923 17.596-15.485 20.661-26.927 1.073-4.001 5.19-6.376 9.186-5.303 4.001 1.071 6.375 5.185 5.304 9.186-4.103 15.312-13.922 28.108-27.65 36.034-9.143 5.28-19.294 7.977-29.575 7.977z"/></g><g><path d="m374.988 141.951c-10.283 0-20.431-2.696-29.575-7.976-13.728-7.926-23.547-20.723-27.65-36.034-1.072-4.001 1.303-8.114 5.304-9.186 3.998-1.078 8.114 1.302 9.186 5.303 3.065 11.441 10.403 21.004 20.661 26.927 10.257 5.922 22.208 7.494 33.648 4.43 4.003-1.074 8.114 1.303 9.186 5.303 1.072 4.001-1.302 8.113-5.303 9.186-5.114 1.369-10.303 2.047-15.457 2.047z"/></g><path d="m209.585 197.462c-18.486-18.23-42.968-28.271-68.934-28.271h-48.032c-12.407 0-22.5 10.094-22.5 22.5v30.409c0 16.624 4.239 33.059 12.258 47.529.002.003.002.006.004.008 4.07 7.341 9.085 14.153 14.906 20.25 2.86 2.995 7.607 3.105 10.604.244 2.996-2.86 3.105-7.607.245-10.604-1.841-1.928-3.586-3.939-5.23-6.027h120.934v24.288c0 4.206-3.404 7.5-7.75 7.5h-1.233c-10.557 0-20.788 3.635-29.587 10.512-3.096 2.421-6.817 3.7-10.761 3.7-4.337 0-8.496-1.599-11.711-4.502-7.155-6.461-15.796-11.767-25.685-15.77-.905-.366-1.796-.759-2.685-1.155-3.783-1.69-8.218.008-9.906 3.789-1.689 3.782.007 8.217 3.789 9.906 1.052.471 2.108.934 3.177 1.365 8.256 3.342 15.408 7.715 21.258 12.997 5.977 5.396 13.706 8.369 21.764 8.369 7.324 0 14.24-2.38 19.999-6.882 6.136-4.795 13.173-7.33 20.35-7.33h1.233c12.544 0 22.75-10.094 22.75-22.5v-32.45c-.527-25.707-10.921-49.793-29.257-67.875zm-28.643 61.038h-32.87c-1.358-2.606-2.065-5.493-2.065-8.5 0-10.201 8.299-18.5 18.5-18.5s18.5 8.299 18.5 18.5c0 3.007-.706 5.894-2.065 8.5zm15.978 0c.716-2.742 1.088-5.589 1.088-8.5 0-18.472-15.028-33.5-33.5-33.5s-33.5 15.028-33.5 33.5c0 2.911.371 5.758 1.088 8.5h-38.605c-5.488-11.277-8.372-23.772-8.372-36.4v-30.408c0-4.136 3.364-7.5 7.5-7.5h48.032c21.999 0 42.74 8.506 58.401 23.951 13.823 13.631 22.3 31.289 24.313 50.357z"/><path d="m419.395 169.191h-48.032c-25.966 0-50.448 10.04-68.934 28.271-18.466 18.211-28.868 42.512-29.254 68.426v31.9c0 12.406 10.093 22.5 22.5 22.5h1.484c7.177 0 14.213 2.535 20.35 7.331 5.76 4.502 12.675 6.881 19.999 6.881 8.058 0 15.787-2.972 21.764-8.369 5.85-5.282 13.001-9.655 21.257-12.997 20.778-8.41 38.217-23.857 49.104-43.498 8.022-14.472 12.262-30.909 12.262-47.536v-30.408c0-12.407-10.093-22.501-22.5-22.501zm-44.495 130.038c-9.887 4.002-18.527 9.308-25.682 15.769-3.215 2.903-7.375 4.502-11.711 4.502-3.944 0-7.665-1.279-10.762-3.699-8.798-6.877-19.029-10.513-29.586-10.513h-1.484c-4.136 0-7.5-3.364-7.5-7.5v-24.288h120.934c-8.939 11.345-20.747 20.281-34.209 25.729zm-45.893-49.229c0-10.201 8.299-18.5 18.5-18.5s18.5 8.299 18.5 18.5c0 3.007-.707 5.894-2.065 8.5h-32.87c-1.358-2.606-2.065-5.493-2.065-8.5zm97.888-27.9c0 12.628-2.884 25.123-8.372 36.4h-38.603c.716-2.742 1.088-5.589 1.088-8.5 0-18.472-15.028-33.5-33.5-33.5s-33.5 15.028-33.5 33.5c0 2.911.371 5.758 1.088 8.5h-26.446c2.014-19.068 10.491-36.727 24.313-50.357 15.662-15.445 36.402-23.951 58.401-23.951h48.032c4.136 0 7.5 3.364 7.5 7.5v30.408z"/></g></g><g/><g/><g/><g/><g/><g/><g/><g/><g/><g/><g/><g/><g/><g/><g/></svg>