<svg id="Capa_1" enable-background="new 0 0 512 512" viewBox="0 0 512 512" xmlns="http://www.w3.org/2000/svg"><g><g><g><g><g><path d="m311.737 458.644c2.736-11.884 14.747-19.035 26.425-15.906-11.428-3.062-18.21-14.809-15.148-26.237s14.809-18.21 26.237-15.148c-11.678-3.129-18.505-15.327-14.932-26.987 3.403-11.106 15.297-17.271 26.517-14.264l33.143 8.881c3.479.932 7.054-1.132 7.987-4.611l7.439-27.763c3.112-11.612 14.792-19.083 26.507-16.386 6.289 1.448 11.292 5.408 14.253 10.547 89.877-133.84-4.108-323.27-174.09-323.27h-27.926c-36.388 0-69.289 8.687-97.654 23.645 31.531 13.538 53.617 44.865 53.617 81.355 0 48.877-39.623 88.5-88.5 88.5-28.504 0-53.856-13.479-70.043-34.407-12.708 51.123-6.539 107.283 23.694 156.688 2.134-1.397 4.549-2.451 7.193-3.06 11.716-2.697 23.396 4.774 26.507 16.386l7.439 27.763c.932 3.479 4.508 5.543 7.987 4.611l33.143-8.881c11.22-3.007 23.114 3.158 26.517 14.264 3.572 11.66-3.254 23.858-14.932 26.987 11.428-3.062 23.175 3.72 26.237 15.148s-3.72 23.175-15.148 26.237c11.678-3.129 23.69 4.022 26.425 15.906 1.018 4.424.531 8.841-1.105 12.763l8.501 9.284c29.068 31.746 79.1 31.746 108.169 0l1.724-1.883c-5.282-5.072-7.922-12.608-6.183-20.162z" fill="#00f2a6"/><g fill="#05e39c"><path d="m377.194 351.655-9.433 10.302 26.218 7.025c3.479.932 7.054-1.132 7.987-4.611l7.439-27.763c3.112-11.612 14.792-19.083 26.507-16.386 6.286 1.447 11.288 5.405 14.249 10.54 85.204-126.887 5.156-303.732-148.238-321.757 129.218 53.222 180.739 227.465 75.271 342.65z"/><path d="m311.737 458.644c2.736-11.884 14.747-19.035 26.425-15.906-11.428-3.062-18.21-14.809-15.148-26.237s14.809-18.21 26.237-15.148c-4.509-1.208-8.29-3.772-11.033-7.131l-97.944 106.968c26.146 8.121 55.972 1.29 75.923-20.499l1.724-1.883c-5.283-5.074-7.923-12.61-6.184-20.164z"/></g><g><g><path d="m349.812 312.788h-48.032c-8.284 0-15-6.716-15-15v-30.408c0-50.086 40.603-90.689 90.689-90.689h48.031c8.284 0 15 6.716 15 15v30.409c0 50.086-40.602 90.688-90.688 90.688z" fill="#3e5959"/></g><g><path d="m425.5 176.691h-18.657v34.584c0 37.275-30.218 67.493-67.493 67.493h-52.571v19.02c0 8.284 6.716 15 15 15h48.032c50.086 0 90.689-40.603 90.689-90.689v-30.408c0-8.284-6.716-15-15-15z" fill="#384949"/></g><path d="m172.399 180.375c-15.369 12.872-35.171 20.625-56.787 20.625-11.243 0-21.994-2.102-31.888-5.925v27.025c0 50.086 40.603 90.688 90.688 90.688h48.032c8.284 0 15-6.716 15-15v-30.408c0-41.179-27.448-75.942-65.045-87.005z" fill="#3e5959"/><g><g><path d="m174.412 312.788h48.032c8.284 0 15-6.716 15-15v-19.02h-133.809c16.616 20.735 42.139 34.02 70.777 34.02z" fill="#384949"/></g></g></g></g></g></g><g><g><g><path d="m338.162 442.738c-11.428-3.062-18.21-14.809-15.148-26.237s14.809-18.21 26.237-15.148c-11.678-3.129-18.505-15.327-14.932-26.987 3.403-11.107 15.297-17.271 26.517-14.264l33.143 8.881c3.479.932 7.054-1.132 7.987-4.611l7.439-27.763c3.112-11.612 14.791-19.083 26.507-16.386 12.3 2.831 19.701 15.263 16.462 27.349l-7.327 27.345c-.72 2.687.335 5.547 2.65 7.088 21.072 14.02 31.884 40.394 24.971 66.195l-3.038 11.338c-8.669 32.352-41.923 51.551-74.275 42.883l-67.786-18.163c-11.22-3.006-18.438-14.292-15.833-25.612 2.737-11.887 14.748-19.038 26.426-15.908z" fill="#9cf8d2"/></g><g><g><path d="m458.549 391.252c-.29 3.991-.949 8.012-2.023 12.021l-6.876 25.662c-7.147 26.673-34.564 42.502-61.237 35.355l-68.246-18.286c-4.099 2.926-7.201 7.303-8.43 12.639-2.606 11.32 4.612 22.605 15.833 25.612l67.787 18.163c32.352 8.669 65.606-10.531 74.274-42.883l3.038-11.338c5.598-20.895-.432-42.164-14.12-56.945z" fill="#6cf5c2"/></g></g></g><g><g><path d="m174.206 442.738c11.428-3.062 18.21-14.809 15.148-26.237s-14.809-18.21-26.237-15.148c11.678-3.129 18.505-15.327 14.932-26.987-3.403-11.107-15.297-17.271-26.517-14.264l-33.143 8.881c-3.479.932-7.054-1.132-7.987-4.611l-7.439-27.763c-3.112-11.612-14.791-19.083-26.507-16.386-12.3 2.831-19.701 15.263-16.462 27.349l7.327 27.345c.72 2.687-.335 5.547-2.65 7.088-21.072 14.02-31.884 40.394-24.971 66.195l3.038 11.338c8.669 32.352 41.923 51.551 74.275 42.883l67.786-18.163c11.22-3.006 18.438-14.292 15.833-25.612-2.736-11.887-14.748-19.038-26.426-15.908z" fill="#9cf8d2"/></g><g><path d="m184.799 484.255c11.22-3.007 18.438-14.292 15.833-25.612-2.736-11.884-14.747-19.035-26.425-15.906 11.428-3.062 18.21-14.809 15.148-26.237s-14.809-18.21-26.237-15.148c11.678-3.129 18.505-15.327 14.932-26.987-3.403-11.106-15.297-17.271-26.517-14.264l-16.766 4.492 18.983 65.856c4.567 15.845-4.51 32.406-20.324 37.079l-72.594 21.453c14.745 13.198 35.64 18.941 56.181 13.437z" fill="#6cf5c2"/></g></g></g><g><g><g><circle cx="115.612" cy="112.5" fill="#01c0fa" r="88.5"/></g><g><path d="m155.469 33.467c7.453 12.968 11.715 28.003 11.715 44.033 0 48.877-39.623 88.5-88.5 88.5-14.339 0-27.878-3.414-39.857-9.467 15.271 26.572 43.938 44.467 76.785 44.467 48.877 0 88.5-39.623 88.5-88.5 0-34.539-19.788-64.452-48.643-79.033z" fill="#08a9f1"/></g></g></g></g><g><path d="m306.456 345c0 24.451-19.893 44.344-44.344 44.344-24.452 0-44.344-19.893-44.344-44.344 0-4.143-3.358-7.5-7.5-7.5s-7.5 3.357-7.5 7.5c0 32.723 26.622 59.344 59.344 59.344s59.344-26.621 59.344-59.344c0-4.143-3.357-7.5-7.5-7.5s-7.5 3.357-7.5 7.5z"/><path d="m448 222.1v-30.408c0-12.406-10.094-22.5-22.5-22.5h-48.032c-54.142 0-98.188 44.047-98.188 98.188v30.408c0 12.406 10.094 22.5 22.5 22.5h48.032c54.141 0 98.188-44.047 98.188-98.188zm-153.721 75.688v-30.408c0-45.87 37.318-83.188 83.188-83.188h48.033c4.136 0 7.5 3.364 7.5 7.5v30.408c0 45.87-37.318 83.188-83.188 83.188h-48.032c-4.136 0-7.501-3.364-7.501-7.5z"/><path d="m452.474 376.164 7.145-26.665c1.631-6.087 1.299-12.357-.883-18.115 23.521-36.554 35.096-78.645 33.509-122.011-1.558-42.524-15.434-83.56-40.128-118.67-2.382-3.387-7.061-4.203-10.449-1.82s-4.203 7.062-1.82 10.449c23.021 32.731 35.956 70.973 37.407 110.59 1.405 38.36-8.29 75.648-28.093 108.451-3.36-2.61-7.277-4.486-11.566-5.474-15.375-3.537-31.272 6.22-35.434 21.753l-7.187 26.817-32.198-8.627c-15.136-4.055-31.124 4.606-35.628 19.312-2.324 7.585-1.491 15.577 2.346 22.504.312.564.641 1.114.985 1.651-.415.215-.826.439-1.234.675-6.69 3.862-11.476 10.1-13.475 17.562-2 7.462-.974 15.256 2.889 21.947.235.407.479.808.732 1.2-.567.293-1.127.605-1.68.938-6.786 4.08-11.504 10.585-13.284 18.316-1.725 7.494-.21 15.114 3.628 21.367-12.339 12.076-28.511 18.686-45.944 18.686-18.689 0-35.933-7.591-48.553-21.374l-5.624-6.142c.92-4.034.976-8.294.005-12.515-1.779-7.73-6.497-14.235-13.284-18.316-.553-.332-1.112-.645-1.679-.938.252-.393.497-.793.732-1.2 3.863-6.691 4.889-14.485 2.889-21.947-2.194-8.189-7.714-14.618-14.717-18.224.347-.541.678-1.095.993-1.663 3.837-6.927 4.671-14.919 2.347-22.505-4.505-14.705-20.49-23.366-35.629-19.311l-32.198 8.626-7.185-26.817c-4.163-15.534-20.065-25.29-35.434-21.753-.845.194-1.672.43-2.487.692-22.603-39.875-30.4-85.765-22.401-131.21 7.698 7.243 16.585 13.234 26.338 17.64v22.057c0 54.142 44.047 98.188 98.188 98.188h48.032c12.407 0 22.5-10.094 22.5-22.5v-30.408c0-21.633-6.899-42.149-19.952-59.333-10.098-13.294-23.591-23.865-38.781-30.569 15.759-17.11 25.4-39.938 25.4-64.978 0-34.006-17.774-63.936-44.519-80.995 25.118-10.946 52.312-16.505 81.056-16.505h27.925c54.404 0 104.88 20.751 142.13 58.43 1.468 1.484 3.4 2.228 5.334 2.228 1.905 0 3.812-.722 5.272-2.166 2.946-2.912 2.974-7.661.062-10.606-40.09-40.553-94.354-62.886-152.798-62.886h-27.925c-35.058 0-68.01 7.725-98.023 22.921-10.716-4.143-22.354-6.421-34.514-6.421-17.138 0-33.967 4.579-48.669 13.242-3.569 2.104-4.757 6.701-2.654 10.27 2.104 3.569 6.701 4.757 10.269 2.654 12.396-7.305 26.592-11.166 41.054-11.166 44.664 0 81 36.337 81 81s-36.336 81-81 81-81-36.337-81-81c0-17.621 5.559-34.372 16.075-48.441 2.48-3.317 1.801-8.018-1.517-10.497-3.317-2.48-8.018-1.802-10.498 1.517-12.469 16.681-19.06 36.537-19.06 57.421 0 20.759 6.625 39.999 17.869 55.72-12.259 52.877-4.435 106.991 22.137 153.468-1.357 1.475-2.577 3.1-3.636 4.861-4.188 6.965-5.336 15.122-3.233 22.971l7.145 26.666c-7.925 5.404-14.755 12.598-19.785 20.845-2.157 3.537-1.038 8.152 2.499 10.309 3.535 2.155 8.151 1.037 10.308-2.498 4.028-6.606 9.53-12.342 15.908-16.585 4.993-3.32 7.3-9.459 5.742-15.273l-7.327-27.346c-1.04-3.88-.472-7.914 1.599-11.358 2.069-3.442 5.373-5.836 9.301-6.74 7.598-1.745 15.483 3.193 17.58 11.019l7.439 27.764c.97 3.617 3.29 6.641 6.533 8.514 3.244 1.872 7.021 2.37 10.639 1.399l33.143-8.88c7.427-1.996 15.238 2.144 17.405 9.217 1.121 3.657.721 7.508-1.126 10.843-1.848 3.336-4.894 5.716-8.576 6.703-4.001 1.071-6.375 5.184-5.304 9.185 1.072 4.002 5.188 6.38 9.186 5.304 7.416-1.981 15.064 2.43 17.051 9.846.962 3.592.468 7.344-1.391 10.564s-4.861 5.523-8.453 6.486c-4.001 1.071-6.375 5.184-5.304 9.185 1.072 4.002 5.183 6.381 9.186 5.304 3.681-.986 7.51-.447 10.779 1.519 3.267 1.964 5.538 5.099 6.396 8.826 1.66 7.209-3.035 14.693-10.465 16.685l-67.787 18.163c-28.309 7.577-57.505-9.273-65.089-37.579l-3.038-11.337c-1.015-3.79-1.611-7.714-1.771-11.662-.167-4.139-3.651-7.352-7.797-7.191-4.139.168-7.358 3.658-7.19 7.797.204 5.054.968 10.079 2.269 14.938l3.038 11.338c8.15 30.406 35.753 50.51 65.84 50.51 5.821 0 11.739-.753 17.622-2.33l67.786-18.163c5.357-1.435 10.005-4.307 13.627-8.077l2.129 2.325c15.272 16.68 37.001 26.245 59.616 26.245 21.234 0 41.687-8.436 56.748-23.273 2.094 1.176 4.359 2.114 6.768 2.759l67.786 18.163c5.871 1.573 11.829 2.352 17.749 2.352 11.808 0 23.462-3.097 33.961-9.159 15.764-9.101 27.04-23.796 31.75-41.377l3.038-11.338c7.514-28.039-3.506-57.661-27.438-73.963zm-278.586-187.432c15.425 5.337 29.226 15.309 39.16 28.388 11.054 14.552 16.896 31.932 16.896 50.26v30.408c0 4.136-3.364 7.5-7.5 7.5h-48.032c-45.87 0-83.188-37.318-83.188-83.188v-16.742c7.791 2.048 15.964 3.143 24.388 3.143 21.899-.001 42.106-7.377 58.276-19.769zm291.536 257.511-3.038 11.338c-3.674 13.712-12.468 25.172-24.762 32.27-12.293 7.099-26.615 8.983-40.327 5.31l-67.787-18.163c-7.43-1.991-12.124-9.476-10.465-16.685.858-3.728 3.13-6.862 6.396-8.826 2.201-1.323 4.654-2 7.147-2 1.204 0 2.417.158 3.615.478.006.001.012.003.018.004 4.002 1.077 8.113-1.302 9.185-5.304 1.072-4.001-1.302-8.113-5.303-9.185-.006-.002-.012-.003-.018-.005-3.584-.965-6.58-3.267-8.437-6.481-1.859-3.221-2.353-6.973-1.391-10.565.963-3.592 3.267-6.594 6.486-8.453 3.221-1.858 6.972-2.354 10.565-1.392 4.003 1.076 8.113-1.303 9.185-5.303 1.072-4.001-1.302-8.114-5.303-9.186-.001 0 0 0-.001 0-.006-.002-.013-.004-.02-.006-3.673-.989-6.711-3.368-8.556-6.698-1.847-3.334-2.247-7.185-1.126-10.843 2.167-7.071 9.974-11.203 17.404-9.217l33.143 8.881c7.471 2.008 15.17-2.445 17.173-9.913l7.439-27.764c2.097-7.824 9.986-12.766 17.58-11.019 3.929.904 7.231 3.298 9.301 6.74 2.071 3.444 2.64 7.479 1.6 11.359l-7.327 27.346c-1.559 5.814.749 11.952 5.74 15.271 19.001 12.642 27.794 35.955 21.884 58.011z"/><path d="m106.082 156.5h.03c2.221 0 4.33-.985 5.754-2.69l56-67c2.657-3.178 2.233-7.908-.944-10.564-3.18-2.656-7.909-2.235-10.564.945l-50.198 60.059-31.255-38.014c-2.63-3.2-7.356-3.659-10.556-1.029-3.2 2.631-3.661 7.356-1.03 10.557l37 45c1.417 1.724 3.53 2.727 5.763 2.736z"/></g></g><g/><g/><g/><g/><g/><g/><g/><g/><g/><g/><g/><g/><g/><g/><g/></svg>