<svg id="Capa_1" enable-background="new 0 0 512 512" viewBox="0 0 512 512" xmlns="http://www.w3.org/2000/svg"><g><g><g><g><g><path d="m311.277 463.697c-8.848-8.848-8.654-23.315.582-31.917 8.798-8.194 22.648-7.564 31.149.937l8.838 8.838.198-.217v-56.051c0-12.513 10.366-22.605 22.98-22.157 12.014.427 21.361 10.665 21.363 22.686v-.529c0-12.245 9.926-22.171 22.171-22.171 1.598 0 3.155.173 4.657.494l6.38-6.968c122.42-133.697 27.574-349.142-153.704-349.142h-27.926c-36.388 0-69.289 8.687-97.654 23.645 31.531 13.538 53.617 44.865 53.617 81.355 0 48.877-39.623 88.5-88.5 88.5-28.504 0-53.856-13.479-70.043-34.407-15.677 63.063-2.636 133.793 48.875 190.05l6.38 6.968c1.502-.321 3.059-.494 4.657-.494 12.245 0 22.171 9.927 22.171 22.171v.529c.001-12.021 9.349-22.259 21.363-22.686 12.614-.448 22.98 9.644 22.98 22.157v56.051l.198.217 8.837-8.838c8.501-8.501 22.352-9.131 31.149-.937 9.236 8.602 9.43 23.068.582 31.917l-10.594 10.594 5.859 6.399c29.068 31.746 79.1 31.746 108.169 0l5.859-6.399z" fill="#00f2a6"/><g fill="#05e39c"><path d="m311.277 463.697c-8.848-8.848-8.654-23.315.582-31.917 8.798-8.194 22.648-7.564 31.149.937l8.837 8.838.198-.217v-56.051c0-2.82.531-5.514 1.49-7.995l-113.444 123.897c26.146 8.121 55.972 1.29 75.923-20.499l5.859-6.399z"/><path d="m377.01 351.655-12.581 13.74c3.178-1.567 6.782-2.399 10.595-2.264 12.014.427 21.361 10.665 21.363 22.686v-.529c0-12.245 9.926-22.171 22.171-22.171 1.598 0 3.155.173 4.657.494l6.38-6.968c116.459-127.188 36.293-328.349-127.856-347.638 129.218 53.222 180.739 227.465 75.271 342.65z"/></g><g><g><path d="m349.627 312.788h-48.032c-8.284 0-15-6.716-15-15v-30.408c0-50.086 40.603-90.688 90.689-90.688h48.032c8.284 0 15 6.716 15 15v30.408c0 50.086-40.603 90.688-90.689 90.688z" fill="#3e5959"/></g><g><path d="m425.316 176.692h-18.657v34.584c0 37.275-30.218 67.493-67.493 67.493h-52.571v19.02c0 8.284 6.716 15 15 15h48.032c50.086 0 90.689-40.603 90.689-90.689v-30.408c0-8.285-6.716-15-15-15z" fill="#384949"/></g><path d="m172.214 180.375c-15.369 12.872-35.171 20.625-56.786 20.625-11.243 0-21.994-2.101-31.888-5.925v27.025c0 50.086 40.603 90.688 90.688 90.688h48.032c8.284 0 15-6.716 15-15v-30.408c0-41.179-27.448-75.942-65.046-87.005z" fill="#3e5959"/><g><g><path d="m174.228 312.788h48.032c8.284 0 15-6.716 15-15v-19.02h-133.809c16.615 20.735 42.138 34.02 70.777 34.02z" fill="#384949"/></g></g></g></g></g><g><g><circle cx="115.428" cy="112.5" fill="#fe7d43" r="88.5"/></g><g><path d="m155.468 33.467c7.453 12.968 11.715 28.003 11.715 44.033 0 48.877-39.623 88.5-88.5 88.5-14.339 0-27.878-3.414-39.857-9.467 15.271 26.572 43.938 44.467 76.785 44.467 48.877 0 88.5-39.623 88.5-88.5 0-34.539-19.788-64.452-48.643-79.033z" fill="#fd6930"/></g></g><g><g><path d="m462.901 363.117c-12.245 0-22.171 9.927-22.171 22.171 0-12.245-9.927-22.171-22.171-22.171-12.245 0-22.171 9.927-22.171 22.171v.529c-.001-12.021-9.349-22.259-21.363-22.686-12.614-.448-22.98 9.644-22.98 22.157v56.466l-9.036-9.036c-8.501-8.501-22.352-9.131-31.149-.937-9.236 8.602-9.43 23.068-.582 31.917l33.449 33.449c4.686 4.686 11.04 7.351 17.667 7.354h97.679c13.807 0 25-11.193 25-25v-94.212c-.001-12.246-9.927-22.172-22.172-22.172z" fill="#9cf8d2"/></g><g><path d="m462.901 363.117c-12.245 0-22.171 9.927-22.171 22.171 0-12.245-9.927-22.171-22.171-22.171-12.245 0-22.171 9.927-22.171 22.171v.529c-.001-12.021-9.349-22.259-21.363-22.686-12.614-.448-22.98 9.644-22.98 22.157v56.466l-9.036-9.036c-8.501-8.501-22.352-9.131-31.149-.937-9.236 8.602-9.43 23.068-.582 31.917l33.449 33.449c4.686 4.686 11.04 7.351 17.667 7.354h97.679c13.807 0 25-11.193 25-25v-94.212c-.001-12.246-9.927-22.172-22.172-22.172z" fill="#9cf8d2"/></g><g><g><path d="m463 473.383h-142.037l23.763 23.763c4.686 4.686 11.04 7.351 17.667 7.354h97.679c13.807 0 25-11.193 25-25v-19.375c-4.205 7.888-12.51 13.258-22.072 13.258z" fill="#6cf5c2"/></g></g></g><g><g><path d="m60.955 363.117c12.245 0 22.171 9.927 22.171 22.171 0-12.245 9.927-22.171 22.171-22.171 12.245 0 22.171 9.927 22.171 22.171v.529c.001-12.021 9.349-22.259 21.363-22.686 12.614-.448 22.98 9.644 22.98 22.157v56.466l9.036-9.036c8.501-8.501 22.352-9.131 31.149-.937 9.236 8.602 9.43 23.068.582 31.917l-33.449 33.449c-4.686 4.686-11.04 7.351-17.667 7.354h-97.679c-13.807 0-25-11.193-25-25v-94.212c0-12.246 9.927-22.172 22.172-22.172z" fill="#9cf8d2"/></g><g><path d="m211.997 431.795c-8.319-7.748-21.15-7.596-29.71-.369l-34.263 34.352c-4.686 4.686-11.04 7.32-17.667 7.322h-91.574v6.415c0 13.807 11.193 24.968 25 24.968h97.679c6.627-.003 12.981-2.636 17.667-7.322l33.449-33.449c8.849-8.849 8.655-23.315-.581-31.917z" fill="#6cf5c2"/></g></g></g></g><g><path d="m261.928 336.669c-27.615 0-51.354 18.751-57.727 45.599-.957 4.03 1.534 8.073 5.564 9.029 4.037.961 8.073-1.535 9.029-5.564 4.761-20.057 22.498-34.063 43.133-34.063s38.372 14.007 43.133 34.063c.818 3.447 3.895 5.77 7.291 5.77.573 0 1.156-.066 1.738-.205 4.03-.956 6.521-4.999 5.564-9.029-6.372-26.849-30.11-45.6-57.725-45.6z"/><path d="m380.05 137.304c2.929-2.93 2.929-7.678 0-10.607-2.93-2.928-7.678-2.928-10.607 0-17.289 17.291-45.422 17.291-62.711 0-2.93-2.928-7.678-2.928-10.607 0-2.929 2.93-2.929 7.678 0 10.607 11.569 11.568 26.767 17.354 41.963 17.354s30.392-5.786 41.962-17.354z"/><path d="m447.816 222.1v-30.408c0-12.406-10.094-22.5-22.5-22.5h-48.032c-54.142 0-98.188 44.047-98.188 98.188v30.408c0 12.406 10.094 22.5 22.5 22.5h48.032c54.142 0 98.188-44.047 98.188-98.188zm-153.72 75.688v-30.408c0-45.87 37.318-83.188 83.188-83.188h48.032c4.136 0 7.5 3.364 7.5 7.5v30.408c0 45.87-37.318 83.188-83.188 83.188h-48.032c-4.136 0-7.5-3.364-7.5-7.5z"/><path d="m49.155 301.222c1.231 2.82 3.986 4.502 6.878 4.502 1.002 0 2.02-.202 2.996-.628 3.797-1.657 5.53-6.078 3.874-9.874-15.526-35.57-20.011-74.298-13.205-112.821 7.699 7.244 16.586 13.236 26.34 17.642v22.057c0 54.142 44.047 98.188 98.188 98.188h48.032c12.406 0 22.5-10.094 22.5-22.5v-30.408c0-21.633-6.899-42.149-19.951-59.333-10.098-13.294-23.592-23.865-38.781-30.569 6.862-7.449 12.564-15.981 16.814-25.31 9.378-2.809 17.922-7.898 24.889-14.865 2.929-2.93 2.929-7.678 0-10.607-2.93-2.928-7.678-2.928-10.607 0-2.397 2.398-5.054 4.48-7.896 6.254 1.436-6.593 2.2-13.433 2.2-20.45 0-34.006-17.774-63.936-44.519-80.995 25.121-10.945 52.314-16.505 81.058-16.505h27.926c54.446 0 104.95 20.78 142.21 58.512 1.468 1.486 3.401 2.23 5.337 2.23 1.903 0 3.809-.721 5.27-2.163 2.947-2.911 2.978-7.659.067-10.606-40.101-40.609-94.396-62.973-152.884-62.973h-27.926c-35.057 0-68.01 7.725-98.023 22.921-10.717-4.143-22.354-6.421-34.514-6.421-52.935 0-96 43.065-96 96 0 20.755 6.622 39.991 17.863 55.711-10.493 45.217-6.416 91.131 11.864 133.011zm163.708-84.102c11.054 14.552 16.896 31.932 16.896 50.26v30.408c0 4.136-3.364 7.5-7.5 7.5h-48.032c-45.87 0-83.188-37.318-83.188-83.188v-16.742c7.791 2.048 15.964 3.143 24.389 3.143 21.9 0 42.106-7.376 58.276-19.768 15.425 5.337 29.226 15.309 39.159 28.387zm-97.435-185.62c44.663 0 81 36.337 81 81s-36.337 81-81 81-81-36.337-81-81 36.337-81 81-81z"/><path d="m73.624 154.304c1.465 1.464 3.385 2.196 5.304 2.196s3.839-.732 5.304-2.196l31.196-31.196 31.196 31.196c1.465 1.464 3.385 2.196 5.304 2.196s3.839-.732 5.304-2.196c2.929-2.93 2.929-7.678 0-10.607l-31.197-31.197 31.196-31.196c2.929-2.93 2.929-7.678 0-10.607-2.93-2.928-7.678-2.928-10.607 0l-31.196 31.196-31.197-31.197c-2.93-2.928-7.678-2.928-10.607 0-2.929 2.93-2.929 7.678 0 10.607l31.196 31.197-31.196 31.196c-2.929 2.93-2.929 7.678 0 10.608z"/><path d="m485.072 412.5c4.143 0 7.5-3.357 7.5-7.5v-19.181c0-16.082-12.828-29.622-28.597-30.184-8.152-.282-15.833 2.659-21.678 8.3-.55.531-1.076 1.079-1.579 1.643-1.499-1.683-3.191-3.187-5.033-4.494 35.152-38.666 54.652-85.865 56.392-136.558 1.617-47.141-12.615-94.631-40.076-133.721-2.381-3.389-7.059-4.209-10.448-1.825-3.389 2.381-4.207 7.059-1.825 10.448 25.597 36.438 38.864 80.682 37.358 124.584-1.624 47.345-19.959 91.456-53.022 127.566l-3.748 4.094c-.582-.034-1.167-.054-1.758-.054-8.803 0-16.723 3.853-22.161 9.961-.503-.563-1.029-1.111-1.579-1.642-5.847-5.643-13.559-8.581-21.679-8.301-15.768.562-28.596 14.102-28.596 30.184v38.4c-11.404-8.159-27.451-7.562-37.796 2.072-5.956 5.547-9.315 13.075-9.46 21.198-.145 8.126 2.94 15.765 8.686 21.511l5.519 5.519-1.012 1.106c-12.621 13.783-29.864 21.374-48.552 21.374s-35.932-7.591-48.553-21.374l-1.012-1.106 5.519-5.519c5.745-5.746 8.83-13.385 8.686-21.511-.145-8.123-3.504-15.651-9.46-21.198-10.347-9.636-26.391-10.233-37.796-2.072v-38.4c0-16.082-12.828-29.622-28.596-30.184-8.147-.272-15.834 2.659-21.679 8.301-.55.53-1.076 1.077-1.579 1.641-5.438-6.107-13.357-9.961-22.16-9.961-.59 0-1.176.02-1.758.054l-3.748-4.094c-7.696-8.404-14.699-17.384-20.814-26.689-2.274-3.464-6.927-4.424-10.386-2.149-3.462 2.274-4.425 6.925-2.149 10.386 6.403 9.745 13.714 19.146 21.727 27.96-1.842 1.307-3.534 2.811-5.032 4.493-.503-.563-1.029-1.11-1.579-1.642-5.846-5.642-13.544-8.58-21.678-8.3-15.769.562-28.597 14.102-28.597 30.184v93.68c0 17.921 14.579 32.5 32.503 32.5l97.678-.032c8.677-.004 16.834-3.384 22.971-9.52l17.312-17.312.566.618c15.27 16.681 36.999 26.246 59.614 26.246s44.344-9.565 59.615-26.245l.566-.619 17.312 17.311c6.135 6.136 14.293 9.517 22.971 9.52l97.68.033c17.921 0 32.5-14.579 32.5-32.5v-39.5c0-4.143-3.357-7.5-7.5-7.5s-7.5 3.357-7.5 7.5v39.5c0 9.649-7.851 17.5-17.497 17.5l-97.679-.033c-4.673-.001-9.065-1.821-12.368-5.126l-33.447-33.447c-2.842-2.841-4.367-6.618-4.295-10.637.071-4.016 1.734-7.74 4.685-10.488 5.704-5.312 15.005-4.977 20.733.753l9.036 9.036c2.146 2.144 5.37 2.787 8.174 1.625 2.803-1.16 4.63-3.896 4.63-6.929v-55.935c0-8.101 6.338-14.916 14.129-15.193 4.031-.126 7.839 1.314 10.729 4.104 2.893 2.791 4.485 6.541 4.485 10.559v44.828c0 4.143 3.357 7.5 7.5 7.5s7.5-3.357 7.5-7.5v-44.828c0-8.09 6.582-14.671 14.672-14.671s14.671 6.581 14.671 14.671v44.828c0 4.143 3.357 7.5 7.5 7.5s7.5-3.357 7.5-7.5v-44.828c0-4.018 1.593-7.768 4.484-10.559 2.89-2.79 6.689-4.236 10.729-4.104 7.791.277 14.13 7.093 14.13 15.193v19.181c-.001 4.143 3.357 7.5 7.499 7.5zm-311.244 79.342c-3.305 3.304-7.697 5.124-12.37 5.126l-97.675.032c-9.649 0-17.5-7.851-17.5-17.5v-93.681c0-8.101 6.339-14.916 14.13-15.193 4.027-.126 7.839 1.314 10.729 4.104 2.892 2.791 4.484 6.541 4.484 10.559v44.828c0 4.143 3.357 7.5 7.5 7.5s7.5-3.357 7.5-7.5v-44.828c0-8.09 6.582-14.672 14.672-14.672s14.671 6.582 14.671 14.672v44.828c0 4.143 3.357 7.5 7.5 7.5s7.5-3.357 7.5-7.5v-44.828c0-4.018 1.593-7.768 4.484-10.559 2.891-2.789 6.706-4.242 10.729-4.104 7.791.277 14.129 7.093 14.129 15.193v55.935c0 3.033 1.827 5.769 4.63 6.929 2.803 1.163 6.028.52 8.174-1.625l9.036-9.036c5.727-5.729 15.027-6.066 20.733-.753 2.95 2.748 4.613 6.473 4.685 10.488.072 4.019-1.453 7.796-4.295 10.638z"/></g></g><g/><g/><g/><g/><g/><g/><g/><g/><g/><g/><g/><g/><g/><g/><g/></svg>