<svg id="Layer_1" enable-background="new 0 0 511.501 511.501" height="512" viewBox="0 0 511.501 511.501" width="512" xmlns="http://www.w3.org/2000/svg"><g><path d="m304.255 367.501h15v144h-15z"/><path d="m431.192 117.505c-.981-15.804-13.639-28.461-29.441-29.441-8.803-.548-17.167 2.466-23.565 8.481-5.51 5.178-8.968 12.213-9.758 19.677l-74.663 74.664c-2.261 2.401-6.611.611-6.51-2.697v-135.713c5.549-6.2 8.418-14.315 7.95-22.755-.882-15.92-13.545-28.67-29.456-29.658-8.788-.545-17.165 2.467-23.564 8.482-12.323 11.145-13.22 31.778-1.93 43.926v67.031h15v-32.5h17v101.187c-.107 16.589 20.497 25.119 32.117 13.303l49.383-49.383 13.394 13.393-56.01 56.01c-4.438 4.438-6.883 10.34-6.883 16.617v113.373h15v-113.373c0-2.271.884-4.405 2.49-6.011l81.29-81.29c7.464-.789 14.498-4.248 19.677-9.757 6.014-6.401 9.026-14.77 8.479-23.566zm-156.44-73.708-2.497 2.236v25.968h-17v-25.967l-2.497-2.236c-7.136-6.129-7.321-18.039-.3-24.323 3.352-3.15 7.727-4.724 12.362-4.441 8.187.508 14.954 7.324 15.408 15.516.28 5.053-1.716 9.881-5.476 13.247zm137.029 87.001c-3.153 3.355-7.425 5.204-12.026 5.204h-3.106l-18.893 18.893-13.394-13.393 18.893-18.893v-3.106c0-4.602 1.848-8.873 5.203-12.026 3.353-3.151 7.742-4.724 12.363-4.441 8.131.505 14.896 7.27 15.4 15.4.288 4.62-1.289 9.01-4.44 12.362z"/><path d="m223.255 322.247v-30.745c0-10.752-8.748-19.5-19.5-19.5h-36.5v-17h37.187c16.588.106 25.118-20.494 13.304-32.117l-57.384-57.383 13.394-13.393 49.383 49.383c11.623 11.82 32.227 3.279 32.117-13.303v-52.687h-15v52.687c.101 3.309-4.249 5.099-6.51 2.697l-74.663-74.663c-.79-7.463-4.248-14.499-9.758-19.677-18.973-18.236-51.606-5.339-53.007 20.96-.547 8.796 2.466 17.165 8.48 23.565 5.179 5.51 12.213 8.968 19.677 9.757l82.663 82.663c2.403 2.262.613 6.611-2.696 6.511h-71.712c-6.2-5.547-14.301-8.416-22.755-7.951-15.921.882-28.671 13.545-29.657 29.455-1.824 27.973 31.573 44.122 52.406 25.496h71.031c2.481 0 4.5 2.019 4.5 4.5v30.745c0 10.552 4.109 20.471 11.569 27.931l20.431 20.431v140.894h15v-147.108l-24.824-24.825c-4.627-4.627-7.176-10.779-7.176-17.323zm-95.5-186.246c-4.602 0-8.873-1.848-12.026-5.204-3.15-3.352-4.728-7.742-4.44-12.363.505-8.131 7.27-14.896 15.4-15.4 4.62-.285 9.012 1.29 12.363 4.44 3.355 3.153 5.203 7.424 5.203 12.026v3.106l18.893 18.893-13.394 13.393-18.893-18.893h-3.106zm-1.468 136-2.236 2.498c-6.128 7.136-18.038 7.32-24.322.299-3.15-3.352-4.728-7.742-4.44-12.363.508-8.186 7.323-14.953 15.517-15.407 5.039-.273 9.88 1.716 13.246 5.476l2.236 2.498h25.968v17h-25.969z"/><path d="m239.755 264.001h16v15h-16z"/><path d="m271.755 264.001h16v15h-16z"/><path d="m208.255 375.501h15v112h-15z"/><path d="m330.5 200.001h90.51v15h-90.51z" transform="matrix(.707 -.707 .707 .707 -36.664 326.494)"/></g></svg>