<svg id="Layer_1" enable-background="new 0 0 512 512" height="512" viewBox="0 0 512 512" width="512" xmlns="http://www.w3.org/2000/svg"><g><path d="m512 248.5h-72.659c-.75-18.736-4.309-37.046-10.619-54.588l69.97-26.912-5.385-14-205.834 79.167c-2.187-2.881-4.759-5.453-7.641-7.641l79.168-205.834-14-5.385-26.912 69.971c-17.542-6.31-35.852-9.87-54.588-10.619v-72.659h-15v72.666c-95.229 3.849-171.985 80.606-175.834 175.834h-72.666v15h72.666c1.052 26.651 7.703 52.157 19.847 75.914l13.355-6.827c-11.053-21.623-17.147-44.833-18.189-69.086h33.032c3.77 68.756 59.033 124.019 127.789 127.789v33.041c-36.301-1.627-71.364-15.017-99.458-38.122l-9.527 11.585c30.771 25.307 69.216 39.912 108.985 41.549v72.657h15v-72.666c95.229-3.849 171.985-80.606 175.834-175.834h72.666zm-87.667 0h-33.044c-.695-12.804-3.167-25.317-7.39-37.349l30.817-11.853c5.654 15.818 8.881 32.317 9.617 49.202zm-64.833 71.5c0-4.687 3.813-8.5 8.5-8.5 11.261.428 11.258 16.574 0 17-4.687 0-8.5-3.813-8.5-8.5zm8.5-23.5c-18.586-.269-30.061 21.568-19.46 36.659-21.199 25.366-52.058 41.029-85.04 43.101v-33.086c42.277-3.606 76.069-37.399 79.675-79.675h33.089c-.692 11.339-2.956 22.412-6.763 33.053-.497-.031-.996-.052-1.501-.052zm-232.251-48c1.104-17.976 6.17-35.308 14.875-50.957 21.46 9.273 41.845-15.303 28.874-34.647 19.603-16.14 43.627-25.596 69.002-27.157v33.087c-42.277 3.606-76.069 37.399-79.675 79.675h-33.076zm32.751-72.5c0 4.687-3.813 8.5-8.5 8.5-11.261-.428-11.258-16.574 0-17 4.687 0 8.5 3.813 8.5 8.5zm95-40.264c10.95.668 21.654 2.799 31.961 6.374l-11.861 30.838c-6.51-2.167-13.23-3.548-20.1-4.127zm-15 48.151v33.336c-15.775 3.046-28.231 15.502-31.277 31.277h-33.336c3.511-34 30.613-61.102 64.613-64.613zm-31.277 79.613c3.046 15.775 15.502 28.231 31.277 31.277v33.336c-34-3.51-61.102-30.613-64.613-64.613zm125.956-15c-.58-6.87-1.96-13.59-4.127-20.1l30.837-11.86c3.574 10.305 5.705 21.009 6.374 31.961h-33.084zm-18.143-14.709c1.539 4.778 2.573 9.692 3.084 14.709h-33.343c-.184-.953-.402-1.893-.653-2.82zm-30.259 29.709h33.336c-3.51 34-30.613 61.102-64.613 64.613v-33.336c15.775-3.046 28.231-15.502 31.277-31.277zm-38.777 17c-13.51 0-24.5-10.991-24.5-24.5 1.231-32.458 47.773-32.449 49 0 0 13.509-10.99 24.5-24.5 24.5zm7.5-63.277v-33.343c5.017.512 9.931 1.546 14.709 3.085l-11.889 30.912c-.927-.252-1.867-.47-2.82-.654zm49.201-119.939-11.852 30.817c-12.033-4.224-24.546-6.695-37.349-7.39v-33.044c16.886.735 33.384 3.962 49.201 9.617zm-64.201-9.608v33.037c-30.08 1.645-58.515 13.153-81.28 32.927-19.91-6.581-37.963 15.162-27.913 33.487-11.052 18.677-17.392 39.62-18.579 61.373h-33.052c3.828-86.956 73.868-156.996 160.824-160.824zm-112.76 175.824h33.085c3.606 42.276 37.398 76.069 79.675 79.675v33.085c-60.482-3.733-109.027-52.279-112.76-112.76zm127.76 160.824v-33.042c37.66-2.104 72.939-19.962 96.983-49.023 24.549 7.892 42.032-23.048 22.903-40 4.532-12.464 7.181-25.454 7.903-38.76h33.035c-3.828 86.957-73.868 156.997-160.824 160.825z"/><path d="m120 344.5c-12.958 0-23.5 10.542-23.5 23.5 1.181 31.133 45.823 31.125 47 0 0-12.958-10.542-23.5-23.5-23.5zm0 32c-4.687 0-8.5-3.813-8.5-8.5.428-11.261 16.574-11.258 17 0 0 4.687-3.813 8.5-8.5 8.5z"/><path d="m248 248.5h16v15h-16z"/><path d="m312 384.5h16v15h-16z"/><path d="m200 104.5h16v15h-16z"/><path d="m168 312.5h16v15h-16z"/><path d="m336.5 100.894v42.606h175v-42.606l-32.099-32.099c-5.988-69.258-104.838-69.207-110.801 0zm132.394-21.394 17 17h-123.788l17-17zm-117.394 49v-17h145v17zm72.5-97c19.769 0 36.264 14.241 39.792 33h-79.585c3.529-18.759 20.024-33 39.793-33z"/></g></svg>