<svg id="Layer_1" enable-background="new 0 0 510.796 510.796" height="512" viewBox="0 0 510.796 510.796" width="512" xmlns="http://www.w3.org/2000/svg"><g><path d="m215.494 368.002h16v15h-16z"/><path d="m247.494 368.002h16v15h-16z"/><path d="m279.303 368.002h16v15h-16z"/><path d="m423.82 427.327-39.8-19.9c-5.626-2.813-9.121-8.468-9.121-14.758v-193.167c0-32.721-13.223-62.408-34.601-84.01l51.156-56.84c20.369 12.439 47.786-3.14 47.445-27.15 0-17.369-14.131-31.5-31.5-31.5-24.488-.238-39.866 27.716-26.703 48.181l-51.589 57.321c-40.513-33.651-106.909-33.647-147.417 0l-51.589-57.321c13.162-20.465-2.214-48.422-26.703-48.18-17.369 0-31.5 14.131-31.5 31.5-.338 24.009 27.076 39.591 47.445 27.15l51.156 56.84c-21.378 21.602-34.601 51.289-34.601 84.01v72h15v-72c5.27-138.478 203.78-138.373 209 0v193.167c0 12.008 6.672 22.804 17.413 28.174l39.8 19.9c11.497 5.82 7.386 23.165-5.49 23.258h-108.223v15h108.223c28.626-.213 37.73-38.754 12.199-51.675zm-336.922-395.825c0-9.098 7.402-16.5 16.5-16.5 21.859.829 21.853 32.174 0 33-9.098 0-16.5-7.402-16.5-16.5zm320.5-16.5c9.098 0 16.5 7.402 16.5 16.5-.829 21.859-32.174 21.853-33 0 0-9.099 7.402-16.5 16.5-16.5z"/><path d="m271.898 479.502c-.832 21.865-32.176 21.848-33 0v-64h-15v48.5h-124.723c-12.884-.096-16.981-17.443-5.49-23.258l39.8-19.9c10.741-5.37 17.413-16.166 17.413-28.174v-105.168h-15v105.167c0 6.29-3.495 11.945-9.121 14.758l-39.8 19.9c-25.544 12.931-16.41 51.467 12.198 51.674h124.723v.5c1.589 41.742 61.426 41.71 63 0v-64h-15z"/><path d="m255.398 271.002c39.425 0 71.5-32.075 71.5-71.5-3.594-94.724-139.42-94.698-143 .001 0 39.424 32.075 71.499 71.5 71.499zm0-128c31.154 0 56.5 25.346 56.5 56.5-2.84 74.852-110.171 74.832-113-.001 0-31.154 25.346-56.499 56.5-56.499z"/><path d="m255.398 223.002c12.958 0 23.5-10.542 23.5-23.5-1.181-31.133-45.823-31.125-47 0 0 12.958 10.542 23.5 23.5 23.5zm0-32c4.687 0 8.5 3.813 8.5 8.5-.427 11.261-16.575 11.258-17 0 0-4.688 3.813-8.5 8.5-8.5z"/><path d="m207.398 335.002h96c31.141-1.185 31.117-45.826 0-47h-96c-31.141 1.185-31.117 45.826 0 47zm0-32h96c11.264.429 11.255 16.576 0 17h-96c-11.264-.429-11.255-16.576 0-17z"/></g></svg>