<svg id="Layer_1" enable-background="new 0 0 510.847 510.847" height="512" viewBox="0 0 510.847 510.847" width="512" xmlns="http://www.w3.org/2000/svg"><g><path d="m475.993 171.072c-22.587-22.666-52.648-35.148-84.646-35.148h-304c-31.141 1.185-31.117 45.826 0 47h72c11.264.429 11.255 16.576 0 17h-112c-31.141 1.185-31.117 45.826 0 47h160c11.264.429 11.255 16.576 0 17h-184c-31.141 1.185-31.117 45.826 0 47h168c11.264.429 11.255 16.576 0 17h-128c-31.141 1.185-31.117 45.826 0 47h192v-15h-192c-11.264-.429-11.255-16.576 0-17h128c31.141-1.185 31.117-45.826 0-47h-168c-11.264-.429-11.255-16.576 0-17h184c31.141-1.185 31.117-45.826 0-47h-160c-11.264-.429-11.255-16.576 0-17h112c31.141-1.185 31.117-45.826 0-47h-72c-11.264-.429-11.255-16.576 0-17h304c56.311-1.167 105.865 48.561 104.499 104.871-.198 57.417-47.622 104.129-105.714 104.129h-118.785v15h118.784c66.335 0 120.488-53.418 120.715-119.078.111-32.003-12.267-62.11-34.853-84.774z"/><path d="m119.347 103.924h224v15h-224z"/><path d="m55.347 71.924h224v15h-224z"/><path d="m135.347 391.924h200v15h-200z"/><path d="m63.347 423.924h160v15h-160z"/><path d="m103.347 391.924h16v15h-16z"/><path d="m31.347 423.924h16v15h-16z"/><path d="m23.347 71.924h16v15h-16z"/><path d="m87.347 103.924h16v15h-16z"/><path d="m478.847 255.424c0-48.248-39.252-87.5-87.5-87.5-115.921 4.399-115.89 170.619.001 175 48.246 0 87.499-39.253 87.499-87.5zm-55.5 40.5c-11.264-.429-11.255-16.576 0-17h36.569c-2.085 6.065-4.933 11.778-8.463 17zm-48-81c11.264.429 11.255 16.576 0 17h-52.569c2.085-6.065 4.933-11.778 8.463-17zm-49.291 72h57.291v-15h-62.583c-1.891-7.947-2.423-16.761-1.402-25h55.985c31.141-1.185 31.117-45.826 0-47h-30.579c38.041-32.996 99.743-15.216 115.148 32h-44.569v15h47.985c.679 5.56.679 11.441 0 17h-39.985c-31.141 1.185-31.117 45.826 0 47h14.579c-35.151 30.647-92.635 17.706-111.87-24z"/><path d="m215.347 199.924h16v15h-16z"/><path d="m279.347 167.924h16v15h-16z"/><path d="m263.347 247.924h16v15h-16z"/><path d="m287.347 319.924h16v15h-16z"/></g></svg>