<svg id="Layer_1" enable-background="new 0 0 510.447 510.447" height="512" viewBox="0 0 510.447 510.447" width="512" xmlns="http://www.w3.org/2000/svg"><g><path d="m320.743 235.901-13.707 6.092 112.647 253.454h-328.919l112.646-253.454-13.707-6.092-122.02 274.546h375.081z"/><path d="m143.223 254.447c19.216 0 35.262-13.795 38.777-32h34.447c8.853 42.406 68.716 42.376 77.553 0h34.447c8.853 42.406 68.716 42.376 77.553 0h32.723v-43.104l-80-64v-35.896h-16.325c-11.822-105.968-162.566-105.89-174.35 0h-16.325v35.896l-80 64v43.104h32.723c3.515 18.204 19.562 32 38.777 32zm0-15c-10.894 0-20.145-7.149-23.321-17h46.642c-3.175 9.851-12.427 17-23.321 17zm112 0c-10.894 0-20.145-7.149-23.321-17h46.643c-3.176 9.851-12.428 17-23.322 17zm112 0c-10.894 0-20.146-7.149-23.321-17h46.643c-3.176 9.851-12.428 17-23.322 17zm42.62-64h-309.239l61.25-49h186.739zm-243.12-81h40.5v-15h-24.113c10.994-86.106 133.263-86.044 144.225 0h-104.112v15h120.5v17h-177zm-80 96h337v17h-337z"/><path d="m215.223 143.447h16v15h-16z"/><path d="m247.223 143.447h16v15h-16z"/><path d="m279.223 143.447h16v15h-16z"/><path d="m182.038 325.477 15.716 58.655 58.655-15.716-15.716-58.655zm26.323 40.284-7.952-29.677 29.677-7.952 7.952 29.677z"/><path d="m328.409 413.477-58.655-15.716-15.716 58.655 58.655 15.716zm-26.323 40.284-29.677-7.952 7.952-29.677 29.677 7.952z"/></g></svg>