<svg id="Layer_1" enable-background="new 0 0 512 512" height="512" viewBox="0 0 512 512" width="512" xmlns="http://www.w3.org/2000/svg"><g><path d="m512 247.315v-15h-512v15h151.147l-5.5 33h-145.647v15h143.147l-5.5 33h-137.647v15h135.147l-5.5 33h-129.647v15h127.147l-5.5 33h-121.647v15h512v-15h-121.646l-5.5-33h127.146v-15h-129.646l-5.5-33h135.146v-15h-137.646l-5.5-33h143.146v-15h-145.646l-5.5-33zm-263.5 112.5v64.5h-48.349l14.75-177h33.599v64.5h15v-64.5h33.599l14.75 177h-48.349v-64.5zm-82.147-112.5h33.495l-14.75 177h-48.245zm208.793 177h-48.245l-14.75-177h33.495z"/><path d="m216.096 328.315h16v15h-16z"/><path d="m248.096 328.315h16v15h-16z"/><path d="m279.904 328.315h16v15h-16z"/><path d="m136 144.315h112v15h-112z"/><path d="m168 112.315h104v15h-104z"/><path d="m168 176.315h80v15h-80z"/><path d="m264.5 156.709v42.606h175v-42.606l-32.099-32.099c-5.988-69.258-104.838-69.207-110.801 0zm132.394-21.394 17 17h-123.788l17-17zm-117.394 49v-17h145v17zm72.5-97c19.768 0 36.264 14.241 39.792 33h-79.585c3.529-18.759 20.025-33 39.793-33z"/></g></svg>