<svg id="Layer_1" enable-background="new 0 0 511 511" height="512" viewBox="0 0 511 511" width="512" xmlns="http://www.w3.org/2000/svg"><g><path d="m255.5 423.895c-52.993 0-101.848-24.193-134.038-66.376l-11.924 9.1c16.767 21.972 38.628 40.163 63.223 52.607 65.013 33.772 149.091 23.065 203.685-25.826l-9.891-11.277c-30.713 26.937-70.154 41.772-111.055 41.772z"/><path d="m255.5 86.895c59.613 0 115.376 31.999 145.527 83.508l12.945-7.577c-57.569-101.073-200.726-121.829-284.418-40.884l10.297 10.907c31.388-29.634 72.461-45.954 115.649-45.954z"/><path d="m449.773 175.062c-9.108-9.493-25.499-9.493-34.605 0-9.494 9.108-9.494 25.499-.001 34.607l22.227 22.226h-131.613c-20.009-43.313-83.218-42.067-101.477 2.064-3.572 1.36-6.89 3.365-9.773 5.936h-42.384c16.15-104.284 160.587-121.891 200.391-23.358l13.924-5.581c-30.298-77.435-132.314-100.211-192.595-42.833-20.385 19.074-33.309 44.347-36.862 71.772h-58.005v-5.394l35.775-35.775c15.836-1.643 28.225-15.067 28.225-31.331-1.202-39.763-57.629-42.471-62.831-3.276l-80.169 80.17v106.606h135.5c20.46.062 31.093-24.787 17.197-39.5 5.932-6.067 8.048-16.427 4.713-24.5h37.121c5.98 5.334 13.899 8.268 21.979 7.974 26.28 26.889 73.947 18.348 89.272-15.974h47.807c-1.783 4.454-2.088 9.949-.775 14.625-27.02 70.939-123.143 89.279-174.076 32.785l-11.016 10.182c50.122 55.356 142.207 49.639 184.954-11.501.969 3.956 2.941 7.521 5.633 10.41-13.911 14.717-3.261 39.565 17.19 39.5h135.501v-138.607zm-354.773-4.56v-3.106c0-9.098 7.401-16.5 16.5-16.5 21.861.829 21.852 32.175 0 33h-3.106l-16.894 16.893-13.394-13.394zm40.5 165.393h-32c-11.264-.429-11.255-16.575 0-17h32c11.264.429 11.255 16.575 0 17zm0-32h-32c-11.264-.429-11.255-16.575 0-17h32c11.264.429 11.255 16.575 0 17zm-32-32c-20.46-.062-31.093 24.787-17.197 39.5-5.932 6.066-8.048 16.427-4.713 24.5h-66.59v-85.394l52.5-52.5 13.394 13.394-16.894 16.894v26.606h96v17zm99.704 2.498-2.236-2.498h-25.968v-17h25.968l2.236-2.498c9.935-11.228 28.867-4.006 28.796 10.998.071 15.004-18.864 22.227-28.796 10.998zm52.296 21.502c-7.928 0-15.603-2.333-22.123-6.584 22.645-15.371 15.453-51.21-11.342-56.729 15.346-23.12 50.642-23.476 66.453-.686h-.988c-31.141 1.185-31.117 45.826 0 47h.977c-7.505 10.523-19.717 16.999-32.977 16.999zm111.5-8.5c0-4.687 3.813-8.5 8.5-8.5h32c11.264.429 11.255 16.575 0 17h-32c-4.687 0-8.5-3.813-8.5-8.5zm0 32c0-4.687 3.813-8.5 8.5-8.5h32c11.264.429 11.255 16.575 0 17h-32c-4.687 0-8.5-3.813-8.5-8.5zm40.5 40.5h-32c-11.264-.429-11.255-16.575 0-17h32c11.264.429 11.255 16.575 0 17zm88.5 0h-66.59c3.337-8.077 1.216-18.433-4.72-24.5 8.342-8.553 8.34-23.449 0-32 13.911-14.717 3.261-39.565-17.19-39.5h-120c-11.264-.429-11.255-16.575 0-17h167.5v-18.606l-29.227-29.227c-3.673-3.525-3.673-9.868.001-13.393 3.524-3.674 9.868-3.674 13.393 0l56.833 56.833z"/><path d="m247.5 167.895h16v15h-16z"/><path d="m183.5 375.895h16v15h-16z"/><path d="m199.5 311.895h16v15h-16z"/><path d="m295.5 383.895h16v15h-16z"/><path d="m175.5 119.895h16v15h-16z"/><path d="m351.5 143.895h16v15h-16z"/></g></svg>