<svg id="Layer_1" enable-background="new 0 0 510.602 510.602" height="512" viewBox="0 0 510.602 510.602" width="512" xmlns="http://www.w3.org/2000/svg"><g><path d="m438.487 323.907c-.546-69.404-43.771-135.202-106.92-163.592l-6.266 13.629c32.122 14.768 58.204 39.21 75.403 68.89l-52.796 52.796h-21.394v-33h19.101l-48-136h44.9v-42.606l-32.099-32.099c-5.988-69.258-104.838-69.207-110.801 0l-32.099 32.099v42.606h44.9l-48 136h35.101v17h-48v95h128v37.394l-32 32v51.439c-5.721-.247-11.394-.773-17-1.585v-26.26l-48-40v-35.988h-83.256c-34.956-81.177 4.279-181.982 85.458-217.685l-6.264-13.63c-179.082 85.72-118.577 350.883 79.782 350.287 98.656.306 184.019-88.112 180.25-186.695zm-138.579-261.277 17 17h-123.787l17-17zm-44.893-48c19.769 0 36.264 14.241 39.792 33h-79.585c3.529-18.759 20.024-33 39.793-33zm-72.5 80h145v17h-145zm45.806 32h53.388l42.706 121h-138.8zm-121.955 280h61.149v28.013l48 40v16.354c-28.92-6.919-55.584-21.451-77.537-42.647-12.824-12.381-23.425-26.451-31.612-41.72zm269.87 37.537c-30.207 31.287-70.442 49.395-113.721 51.293v-45.224l32-32v-58.606h-128v-65h48v-32h97v48h42.606l53.839-53.839c9.638 20.856 15.113 43.751 15.528 67.38.791 45.001-15.991 87.616-47.252 119.996z"/><path d="m215.111 319.63h16v15h-16z"/><path d="m247.111 319.63h16v15h-16z"/><path d="m278.919 319.63h16v15h-16z"/></g></svg>