<svg id="Layer_1" enable-background="new 0 0 511.51 511.51" height="512" viewBox="0 0 511.51 511.51" width="512" xmlns="http://www.w3.org/2000/svg"><g><path d="m423.755 48.51h-96c-.052 0-.207 0-.354-.146s-.146-.304-.146-.356l.065-47.988-15-.02-.065 47.985c-.007 4.146 1.603 8.043 4.531 10.977 2.929 2.933 6.824 4.548 10.969 4.548h96c.275 0 .5.225.5.5v96c0 .275-.225.5-.5.5h-16.5v-16h-32v-8.5c0-30.603-24.897-55.5-55.5-55.5h-128c-30.603 0-55.5 24.897-55.5 55.5v56.5h-32v16h-16.5c-.275 0-.5-.225-.5-.5v-112c0-.275.225-.5.5-.5h31.987c4.145 0 8.04-1.615 10.969-4.549 2.929-2.933 4.538-6.831 4.531-10.97l-.066-79.987-15 .012.066 79.993c0 .051 0 .207-.146.354-.146.146-.303.146-.354.146h-31.987c-8.547 0-15.5 6.953-15.5 15.5v112c0 8.547 6.953 15.5 15.5 15.5h16.5v16h32v112.5h15v-216c0-22.332 18.168-40.5 40.5-40.5h128c22.332 0 40.5 18.168 40.5 40.5v216h15v-160.5h32v-16h16.5c8.547 0 15.5-6.953 15.5-15.5v-96c0-8.546-6.953-15.499-15.5-15.499zm-304.5 176v-17h17v17zm273-48h-17v-17h17z"/><path d="m279.755 168.51c-9.607 0-18.218 4.328-24 11.131-16.479-19.842-49.465-11.546-54.761 13.608-25.166 5.302-33.44 38.292-13.608 54.761-19.842 16.479-11.546 49.465 13.608 54.762 5.302 25.166 38.292 33.44 54.761 13.607 16.478 19.842 49.465 11.546 54.761-13.607 25.166-5.303 33.441-38.292 13.608-54.762 19.842-16.479 11.546-49.465-13.608-54.761-3.103-14.13-15.713-24.739-30.761-24.739zm-48 144c-21.865-.833-21.848-32.175 0-33v-15c-14.336 0-26.458 9.631-30.257 22.76-16.493-6.996-11.882-31.458 6.257-31.76v-15c-18.152-.307-22.739-24.771-6.257-31.76 3.799 13.129 15.92 22.76 30.257 22.76v-15c-9.098 0-16.5-7.402-16.5-16.5.83-21.86 32.174-21.852 33 0v96c0 9.097-7.402 16.5-16.5 16.5zm88.5-88.5c0 9.098-7.402 16.5-16.5 16.5v15c18.152.307 22.739 24.771 6.257 31.76-3.799-13.129-15.92-22.76-30.257-22.76v15c9.098 0 16.5 7.402 16.5 16.5-.83 21.86-32.174 21.852-33 0v-96c0-9.098 7.402-16.5 16.5-16.5 21.86.83 21.852 32.174 0 33v15c14.336 0 26.458-9.631 30.257-22.76 6.002 2.471 10.243 8.377 10.243 15.26z"/><path d="m140.648 368.51-68.394 68.394v74.606h367v-74.606l-68.394-68.394zm6.213 15h217.787l49 49h-315.787zm229.394 64v49h-33v-49zm-289 0h241v49h-241zm304 49v-49h33v49z"/><path d="m215.755 400.51h16v15h-16z"/><path d="m247.755 400.51h16v15h-16z"/><path d="m279.755 400.51h16v15h-16z"/><path d="m111.755 464.51h16v15h-16z"/><path d="m143.755 464.51h16v15h-16z"/><path d="m319.755 144.51h16v15h-16z"/><path d="m167.755 128.51h16v15h-16z"/><path d="m175.755 320.51h16v15h-16z"/></g></svg>