<svg id="Layer_1" enable-background="new 0 0 511 511" height="512" viewBox="0 0 511 511" width="512" xmlns="http://www.w3.org/2000/svg"><g><path d="m489.623 263h21.377v-47h-21.377l-99.871-61.459-32.847-98.541h-202.81l-32.847 98.541-99.871 61.459h-21.377v47h21.377l96.68 59.495-36.68 85.586c-32.372-1.137-34.238 45.45-1.877 46.919 21.527.012 31.59-26.907 15.66-41.002l37.285-86.998h73.111l-23.15 81.028c-30.326 2.462-29.386 45.89 1.094 46.972 23.064-.085 32.079-29.959 13.326-42.841l24.332-85.159h68.685l24.331 85.159c-18.754 12.886-9.737 42.757 13.326 42.841 30.486-1.086 31.412-44.515 1.093-46.972l-23.15-81.028h73.111l37.285 86.998c-15.929 14.096-5.866 41.017 15.661 41.002 32.37-1.474 30.485-48.06-1.877-46.918l-36.68-85.586zm-410.123 177c-4.687 0-8.5-3.813-8.5-8.5.428-11.261 16.574-11.258 17 0 0 4.686-3.813 8.5-8.5 8.5zm104 0c-4.687 0-8.5-3.813-8.5-8.5.428-11.261 16.574-11.258 17 0 0 4.686-3.813 8.5-8.5 8.5zm152.5-8.5c0 4.687-3.813 8.5-8.5 8.5-11.261-.428-11.258-16.574 0-17 4.687 0 8.5 3.813 8.5 8.5zm104 0c0 4.687-3.813 8.5-8.5 8.5-11.261-.428-11.258-16.574 0-17 4.687 0 8.5 3.813 8.5 8.5zm-58.623-119.5h-59.77l49-49h90.395zm-118.377 0v-49h86.393l-49 49zm-52.869 0-61.25-49h99.119v49zm-45.226-241h181.189l27 81h-235.189zm-149.905 160h120.5v-15h-85.502l79.625-49h251.754l79.625 49h-309.502v15h344.5v17h-481zm109.869 32 61.25 49h-56.496l-79.625-49z"/><path d="m215.5 184h16v15h-16z"/><path d="m247.5 184h16v15h-16z"/><path d="m279.5 184h16v15h-16z"/><path d="m255.5 80c-17.369 0-31.5 14.131-31.5 31.5 1.584 41.732 61.423 41.72 63 0 0-17.369-14.131-31.5-31.5-31.5zm0 48c-9.098 0-16.5-7.402-16.5-16.5.83-21.859 32.173-21.853 33 0 0 9.098-7.402 16.5-16.5 16.5z"/></g></svg>