<svg id="Layer_1" enable-background="new 0 0 512 512" height="512" viewBox="0 0 512 512" width="512" xmlns="http://www.w3.org/2000/svg"><g><path d="m256 72.5c-101.183 0-183.5 82.317-183.5 183.5 9.225 243.103 357.812 243.037 367-.002 0-101.181-82.317-183.498-183.5-183.498zm132.086 79c4.288 5.409 8.255 11.084 11.865 17h-95.951c-11.264-.429-11.255-16.575 0-17zm-14.437 225h-149.649c-11.264-.429-11.255-16.575 0-17h56v-15h-56c-31.141 1.185-31.117 45.826 0 47h132.042c-83.317 63.926-210.476 30.086-252.595-64h64.553v-15h-70.745c-15.042-40.417-12.314-90.776 6.658-129h120.087c11.264.429 11.255 16.575 0 17h-80c-31.141 1.185-31.117 45.826 0 47h32c11.264.429 11.255 16.575 0 17h-72v15h72c31.141-1.185 31.117-45.826 0-47h-32c-11.264-.429-11.255-16.575 0-17h80c31.141-1.185 31.117-45.826 0-47h-111.951c7.372-12.083 16.227-23.162 26.301-33h85.65v-15h-68.042c63.497-49.447 163.6-41.625 218.715 16h-70.673c-31.141 1.185-31.117 45.826 0 47h104.086c7.283 15.217 12.341 31.692 14.767 49h-102.853v15h104.286c.563 10.979.006 22.291-1.573 33h-134.713c-31.141 1.185-31.117 45.826 0 47h64c11.264.429 11.255 16.575 0 17h-56v15h56c31.141-1.185 31.117-45.826 0-47h-64c-11.264-.429-11.255-16.575 0-17h131.812c-7.546 31.295-23.849 59.209-46.163 81z"/><path d="m256 232.5h16v15h-16z"/><path d="m240 120.5h16v15h-16z"/><path d="m288 232.5h16v15h-16z"/><path d="m184 312.5h16v15h-16z"/><path d="m440 104.5h16v15h-16z"/><path d="m360 72.5h16v15h-16z"/><path d="m456 152.5h16v15h-16z"/><path d="m40 168.5h16v15h-16z"/><path d="m24 216.5h16v15h-16z"/><path d="m72 392.5h16v15h-16z"/><path d="m472 328.5h16v15h-16z"/><path d="m72.5 96c0 2.997.57 5.862 1.597 8.5h-50.097v15h72c31.141-1.185 31.117-45.826 0-47h-96v15h74.097c-1.027 2.638-1.597 5.503-1.597 8.5zm32 0c0 4.687-3.813 8.5-8.5 8.5-11.261-.428-11.258-16.574 0-17 4.687 0 8.5 3.813 8.5 8.5z"/><path d="m512 392.5h-96c-31.141 1.185-31.117 45.826 0 47h72v-15h-50.097c2.113-5.217 2.113-11.783 0-17h74.097zm-87.5 23.5c0 4.687-3.813 8.5-8.5 8.5-11.261-.428-11.258-16.574 0-17 4.687 0 8.5 3.813 8.5 8.5z"/></g></svg>