<svg xmlns="http://www.w3.org/2000/svg" viewBox="0 0 512 512"><g id="Alchemy"><path d="M299.2784,184.6633A13.8506,13.8506,0,0,1,291,171.9428V91.5756h3.5a10.5,10.5,0,0,0,0-21h-77a10.5,10.5,0,0,0,0,21H221v80.367a13.8908,13.8908,0,0,1-8.3286,12.7429,108.4054,108.4054,0,0,0-64.9072,107.055c3.7259,54.1717,48.6123,98.082,102.8485,100.7046a108.4536,108.4536,0,0,0,48.6657-207.7818Z" style="fill:#ffefdc"/><path d="M181.6558,238.16a87.5,87.5,0,1,0,148.6884,0Z" style="fill:#94b614"/><circle cx="295.3204" cy="323.3943" r="17.5" style="fill:#f5ff97"/><path d="M283.3711,32H228.6323a6.971,6.971,0,0,0-6.9419,7.6l2.81,30.9758h63L290.313,39.6A6.971,6.971,0,0,0,283.3711,32Z" style="fill:#feb819"/><path d="M445,459H430.87a24.4056,24.4056,0,0,1-23.8984-19.0142L373.4106,294.5752H375a10.5,10.5,0,0,0,0-21H137a10.5,10.5,0,0,0,0,21h1.5894L105.0352,439.9858A24.4206,24.4206,0,0,1,81.1367,459H67a10.5,10.5,0,0,0,0,21H81.1367A45.3308,45.3308,0,0,0,125.502,444.71l34.6445-150.1343H245.5V469.5a10.5,10.5,0,0,0,21,0V294.5752h85.3535l34.6514,150.1309A45.3188,45.3188,0,0,0,430.87,480H445a10.5,10.5,0,0,0,0-21Z" style="fill:#7d288f"/></g></svg>