<svg xmlns="http://www.w3.org/2000/svg" viewBox="0 0 512 512"><g id="Broken_mirror"><rect x="205.0894" y="452" width="101.8213" height="28" rx="14" style="fill:#feb819"/><rect x="228" y="347.5918" width="56" height="104.4082" style="fill:#7d288f"/><ellipse cx="256" cy="179" rx="126" ry="147" style="fill:#7d288f"/><rect x="205.0894" y="319.5918" width="101.8213" height="28" rx="14" style="fill:#feb819"/><ellipse cx="255.9974" cy="178.9988" rx="98" ry="119" style="fill:#94b614"/><path d="M315.36,273.6193a91.7755,91.7755,0,0,1-24.5,16.59l-131.462-131.46a134.248,134.248,0,0,1,8.75-32.34Z" style="fill:#f5ff97"/><path d="M354,177.8589v1.12a136.8973,136.8973,0,0,1-16.8711,66.71L186.5605,95.1193c13.7881-16.8,31.6368-28.7,51.5874-33.11Z" style="fill:#f5ff97"/><path d="M218.269,219.16l-28.5571,24.85L177.53,250.24a117.1849,117.1849,0,0,1-6.5113-12.04l16.8711-.98Z" style="fill:#5b6b00"/><path d="M222.33,234.56l1.89,17.99-19.9507,24.08-3.4282.63a97.2747,97.2747,0,0,1-11.2724-10.92l10.5717-.7,17.36-18.48-.981-14.63L240.53,210.97Z" style="fill:#5b6b00"/><path d="M226.8105,266.34l-10.1513,21.63c-1.6782-.91-3.36-1.89-4.97-2.94C219.5986,275.23,225.69,267.74,226.8105,266.34Z" style="fill:#5b6b00"/><path d="M351.269,150.98l-38.1479,10.71-16.6592,16.1L309.97,157.07l37.5191-20.72A124.2971,124.2971,0,0,1,351.269,150.98Z" style="fill:#5b6b00"/><path d="M302.83,97.57l5.602,46.27-75.3935,56.98,60.6211-60.76-9.0987-47.74,14.5606-20.16a98.5608,98.5608,0,0,1,19.81,15.75Z" style="fill:#5b6b00"/></g></svg>