<svg xmlns="http://www.w3.org/2000/svg" viewBox="0 0 512 512"><g id="Cursed_gem"><path d="M426.08,169.1167c24.01-52.6324-16.03-129.0628-77.4381-136.687-70.8335-8.7943-93.7,65.4362-124.6561,72.921s-129.5079-25.65-104.4377,66.73c11.5075,42.4035-112.3653,71.5144-53.7051,153.2563,34.5255,48.11,86.1009,47.1735,111.2656,66.768s35.5257,73.2607,86.2564,86.3911,55.0268-49.5905,93.221-62.2121,80.5277-18.1859,101.7091-83.9834S402.0708,221.7492,426.08,169.1167Z" style="fill:#7d288f"/><polygon points="329.316 311.953 270.003 346.199 270.003 409.705 384.316 343.706 329.316 311.953" style="fill:#acce20"/><polygon points="210.684 311.953 155.684 343.706 270 409.706 270.003 409.705 270.003 346.199 210.684 311.953" style="fill:#7f9b0a"/><polygon points="329.316 311.953 384.316 343.706 384.316 167.706 329.316 199.461 329.316 311.953" style="fill:#7f9b0a"/><polygon points="210.684 199.461 155.684 167.706 155.684 343.706 210.684 311.953 210.684 199.461" style="fill:#acce20"/><polygon points="270.003 165.215 210.684 199.461 210.684 311.953 270.003 346.199 329.316 311.953 329.316 199.461 270.003 165.215" style="fill:#94b614"/><polygon points="299.013 329.443 280.424 340.223 210.683 270.428 210.683 241.112 299.013 329.443" style="fill:#f5ff97"/><polygon points="329.317 247.218 329.317 311.952 328.439 312.448 213.71 197.718 255.618 173.518 329.317 247.218" style="fill:#f5ff97"/><polygon points="329.316 199.461 384.316 167.706 270.003 101.708 270.003 165.215 329.316 199.461" style="fill:#acce20"/><polygon points="270.003 165.215 270.003 101.708 270 101.706 155.684 167.706 210.684 199.461 270.003 165.215" style="fill:#7f9b0a"/><path d="M387.3723,421.1151l-4.145-1.9974a32.6286,32.6286,0,0,1-16.4425-18.0868l-6.4446-17.445a2.8764,2.8764,0,0,0-5.3963,0l-6.4447,17.445a32.6288,32.6288,0,0,1-16.4424,18.0868l-4.1451,1.9974a2.8764,2.8764,0,0,0,0,5.1825l4.1451,1.9974a32.6288,32.6288,0,0,1,16.4424,18.0868l6.4447,17.4449a2.8764,2.8764,0,0,0,5.3963,0l6.4446-17.4449a32.6286,32.6286,0,0,1,16.4425-18.0868l4.145-1.9974A2.8764,2.8764,0,0,0,387.3723,421.1151Z" style="fill:#feb819"/><path d="M141.451,133.2514l-5.5267-2.6632a43.5054,43.5054,0,0,1-21.9233-24.1158l-8.5928-23.26a3.8352,3.8352,0,0,0-7.1951,0l-8.5928,23.26A43.5054,43.5054,0,0,1,67.697,130.5882L62.17,133.2514a3.8352,3.8352,0,0,0,0,6.91l5.5267,2.6632A43.5054,43.5054,0,0,1,89.62,166.94l8.5928,23.26a3.8352,3.8352,0,0,0,7.1951,0l8.5928-23.26a43.5054,43.5054,0,0,1,21.9233-24.1158l5.5267-2.6632A3.8352,3.8352,0,0,0,141.451,133.2514Z" style="fill:#feb819"/><path d="M450.3723,85.1158l-4.145-1.9974a32.6288,32.6288,0,0,1-16.4425-18.0869L423.34,47.5866a2.8764,2.8764,0,0,0-5.3963,0l-6.4447,17.4449a32.629,32.629,0,0,1-16.4424,18.0869l-4.1451,1.9974a2.8763,2.8763,0,0,0,0,5.1824l4.1451,1.9975a32.6288,32.6288,0,0,1,16.4424,18.0868l6.4447,17.4449a2.8764,2.8764,0,0,0,5.3963,0l6.4446-17.4449a32.6286,32.6286,0,0,1,16.4425-18.0868l4.145-1.9975A2.8763,2.8763,0,0,0,450.3723,85.1158Z" style="fill:#feb819"/></g></svg>