<svg xmlns="http://www.w3.org/2000/svg" viewBox="0 0 512 512"><g id="Deja_vu"><path d="M279.03,55.0331C168.212,55.0331,78.06,145.1857,78.06,256v0H39.0467a7.0336,7.0336,0,0,0-4.9732,12.0065l73.989,73.9873a7.0316,7.0316,0,0,0,12.0039-4.9732V256H120.06v0c0-87.654,71.3127-158.9667,158.97-158.9667S438,168.346,438,256,366.6872,414.9667,279.03,414.9667a21,21,0,0,0,0,42C389.8474,456.9669,480,366.8143,480,256S389.8474,55.0331,279.03,55.0331Z" style="fill:#7d288f"/><ellipse cx="279.0336" cy="256.0004" rx="129.5" ry="77" style="fill:#ffefdc"/><circle cx="279.0336" cy="256.0003" r="76.9999" style="fill:#feb819"/><circle cx="279.0336" cy="256.0003" r="42" style="fill:#2d4860"/><circle cx="305.1691" cy="229.8557" r="21" style="fill:#ffefdc"/></g></svg>