<svg xmlns="http://www.w3.org/2000/svg" viewBox="0 0 512 512"><g id="Demon_pentagram"><path d="M256,32C132.29,32,32,132.2879,32,256S132.29,480,256,480c123.7134,0,224-100.2883,224-224S379.7134,32,256,32Zm0,21A201.7482,201.7482,0,0,1,362.9858,83.5865L256.0034,161.3129,149.021,83.5836A201.7277,201.7277,0,0,1,256,53ZM193.5229,311.6044H84.8657L172.769,247.74ZM150.2378,110.4261l87.9033,63.8648-54.332,39.4707Zm40.4,124.3355,65.3652-47.4927,65.3653,47.4927-24.9649,76.8428H215.603Zm148.6,12.978,87.9033,63.8648H318.4839Zm-11.04-33.978-54.3321-39.4707,87.9033-63.8648ZM53,256a202.5972,202.5972,0,0,1,72.0986-154.9839L165.9468,226.74,58.9028,304.5117A202.5532,202.5532,0,0,1,53,256Zm15.0562,76.6044h132.289l40.8755,125.7992C162.7817,452.7263,96.5757,402.3228,68.0562,332.6044Zm154.3691,0h67.1562L256.0034,435.9432ZM270.79,458.4031l40.872-125.7987H443.9438C415.4243,402.3207,349.2251,452.7229,270.79,458.4031ZM346.06,226.74,386.9082,101.02a202.5564,202.5564,0,0,1,66.189,203.4888Z" style="fill:#94b614"/><path d="M376.696,309.29H305.1194l11.9936-36.8312a66.8853,66.8853,0,0,0,3.0653-26.5969c33.18,13.6245,53.3888,33.3111,64.2747,47.131A9.9965,9.9965,0,0,1,376.696,309.29Z" style="fill:#651d77"/><path d="M206.8818,309.29H135.3051a9.9984,9.9984,0,0,1-7.76-16.2971c10.8223-13.82,31.0981-33.5065,64.278-47.131a66.9381,66.9381,0,0,0,3.062,26.5969Z" style="fill:#651d77"/><path d="M338.2024,152.0559,314.67,224.4152c-8.2154-18.4484-24.3819-32.9853-44.8488-37.5486l58.1475-42.2418A6.6436,6.6436,0,0,1,338.2024,152.0559Z" style="fill:#ffefdc"/><polygon points="279.774 179.598 319.788 208.669 324.082 195.384 291.083 171.408 279.774 179.598" style="fill:#eaceb0"/><polygon points="305.822 160.681 329.73 178.051 334.06 164.791 317.094 152.465 305.822 160.681" style="fill:#eaceb0"/><path d="M242.18,186.8666c-20.47,4.5633-36.6366,19.1-44.8488,37.5486l-23.5353-72.3593a6.6451,6.6451,0,0,1,10.2366-7.4311Z" style="fill:#ffefdc"/><polygon points="232.226 179.598 192.212 208.669 187.918 195.384 220.917 171.408 232.226 179.598" style="fill:#eaceb0"/><polygon points="206.178 160.681 182.27 178.051 177.94 164.791 194.906 152.465 206.178 160.681" style="fill:#eaceb0"/><path d="M269.48,390.1488a12.9456,12.9456,0,0,0,12.312-8.9452l35.3344-108.7483C330.8392,230.25,300.2185,185.3436,256,185.3165c-44.2185.0271-74.8392,44.9336-61.1268,87.1388l35.3344,108.7483a12.9456,12.9456,0,0,0,12.312,8.9452Z" style="fill:#7d288f"/><circle cx="269.9392" cy="362.3244" r="8.1485" style="fill:#2d4860"/><circle cx="242.0608" cy="362.3244" r="8.1485" style="fill:#2d4860"/><path d="M296.204,270.3653l-13.4219,5.3871a17.3858,17.3858,0,0,0-10.3172,11.6327,13.0489,13.0489,0,0,0,11.3836,16.3629c6.4591.6506,12.303-4.0153,13.9839-10.2886l4.6872-17.4927A4.7188,4.7188,0,0,0,296.204,270.3653Z" style="fill:#feb819"/><path d="M209.4083,275.9123l4.6872,17.4928c1.6808,6.273,7.5247,10.9391,13.9863,10.2878a13.0466,13.0466,0,0,0,11.3812-16.3622h0a17.3834,17.3834,0,0,0-10.3157-11.6331L215.7257,270.31A4.72,4.72,0,0,0,209.4083,275.9123Z" style="fill:#feb819"/></g></svg>