<svg xmlns="http://www.w3.org/2000/svg" viewBox="0 0 512 512"><g id="Doppelganger"><path d="M81.2558,374.5178c29.8217,9.12,22.8012,65.7779,40.9711,105.4823H286.433c14.9912-11.6429,28.0581-22.5979,41.665-27.5245,34.1285-12.36,92.1075,10.198,135.5157-30.7078,43.4047-40.9059-14.4068-83.0725-3.4043-127.5168,10.999-44.4434,31.3051-88.5959-19.2329-148.8931-50.5347-60.2968-140.5811-12.8695-176.7227-67.9091S130.2113,14.6373,85.6376,69.1675c-51.42,62.8992,6.2207,129.9328-5.3389,164.29C68.7426,267.8139-22.9308,342.6559,81.2558,374.5178Z" style="fill:#94b614"/><path d="M245.654,406.9871l37.98-9.367V360.721a84.8922,84.8922,0,0,1-34.5662-39.3233H239.0394a30.2884,30.2884,0,1,1,0-60.5768h3.1817V245.7154a84.6541,84.6541,0,0,1,169.3081,0v15.1055h3.1816a30.2884,30.2884,0,1,1,0,60.5768H404.6823a84.95,84.95,0,0,1-36.24,40.341v35.4695l39.654,9.7789A48.5233,48.5233,0,0,1,445,454.099V480H208.75V454.099A48.5232,48.5232,0,0,1,245.654,406.9871Z" style="fill:#7d288f"/><rect x="351.1521" y="257.1216" width="29.1324" height="48.5539" rx="14.5662" transform="translate(731.4365 562.7971) rotate(180)" style="fill:#ffefdc"/><rect x="273.4658" y="257.1216" width="29.1324" height="48.5539" rx="14.5662" transform="translate(576.0639 562.7971) rotate(180)" style="fill:#ffefdc"/><path d="M103.904,347.9246l37.98-9.367V301.6585a84.8922,84.8922,0,0,1-34.5662-39.3233H97.2894a30.2884,30.2884,0,1,1,0-60.5768h3.1817V186.6529a84.6541,84.6541,0,0,1,169.3081,0v15.1055h3.1816a30.2884,30.2884,0,1,1,0,60.5768H262.9323a84.95,84.95,0,0,1-36.24,40.341v35.4695l39.654,9.7789A48.5233,48.5233,0,0,1,303.25,395.0365V480H67V395.0365A48.5232,48.5232,0,0,1,103.904,347.9246Z" style="fill:#feb819"/><rect x="209.4021" y="198.0591" width="29.1324" height="48.5539" rx="14.5662" transform="translate(447.9365 444.6721) rotate(180)" style="fill:#2d4860"/><rect x="131.7158" y="198.0591" width="29.1324" height="48.5539" rx="14.5662" transform="translate(292.5639 444.6721) rotate(180)" style="fill:#2d4860"/></g></svg>