<svg xmlns="http://www.w3.org/2000/svg" viewBox="0 0 512 512"><g id="Four_leaf_clover"><path d="M459.0253,480a21.01,21.01,0,0,1-2.4814-.147c-226.707-26.6977-242.5117-241.5376-242.6416-243.7046A21,21,0,0,1,255.82,233.53c.5058,7.5639,14.3691,182.0854,205.6318,204.61A21.002,21.002,0,0,1,459.0253,480Z" style="fill:#7d288f"/><path d="M67.28,138.11a8.6321,8.6321,0,0,0,1.1341-4.2532c.1275-42.2727,43.0242-74.9968,83.7927-63.3551,19.1851,4.6372,35.5612,19.26,41.7968,38.1922,4.26,12.3052,31.0845,88.9515,41.547,118.9142a8.6991,8.6991,0,0,1-.6854,7.2573Z" style="fill:#7f9b0a"/><path d="M138.11,402.4505a8.631,8.631,0,0,0-4.2532-1.1341c-42.2727-.1276-74.9968-43.0242-63.3551-83.7927,4.6372-19.1851,19.26-35.5613,38.1922-41.7968,12.3052-4.26,88.9515-31.0845,118.9142-41.5471a8.7,8.7,0,0,1,7.2573.6854Z" style="fill:#7f9b0a"/><path d="M402.4505,331.6206a8.6313,8.6313,0,0,0-1.1341,4.2532c-.1276,42.2727-43.0242,74.9969-83.7927,63.3551-19.1851-4.6371-35.5613-19.26-41.7968-38.1922-4.26-12.3052-31.0845-88.9514-41.5471-118.9142a8.7,8.7,0,0,1,.6854-7.2573Z" style="fill:#7f9b0a"/><path d="M331.6206,67.28a8.6323,8.6323,0,0,0,4.2532,1.1341c42.2727.1275,74.9969,43.0242,63.3551,83.7927-4.6371,19.1851-19.26,35.5612-38.1922,41.7968-12.3052,4.26-88.9514,31.0845-118.9142,41.547a8.6991,8.6991,0,0,1-7.2573-.6854Z" style="fill:#7f9b0a"/><path d="M67.28,138.11a8.6315,8.6315,0,0,1-3.1163,3.1088c-36.5455,21.2468-43.4372,74.7585-12.9709,104.2442,13.6085,14.2962,34.4607,21.1667,53.9739,17.1009,12.7867-2.4631,92.5765-17.5557,123.7562-23.4762a8.7,8.7,0,0,0,5.9423-4.2223Z" style="fill:#acce20"/><path d="M138.11,402.4505a8.6315,8.6315,0,0,1,3.1088,3.1163c21.2468,36.5455,74.7585,43.4371,104.2442,12.9708,14.2962-13.6085,21.1667-34.4606,17.1009-53.9738-2.4631-12.7867-17.5557-92.5765-23.4762-123.7563a8.7,8.7,0,0,0-4.2223-5.9423Z" style="fill:#acce20"/><path d="M402.4505,331.6206a8.6331,8.6331,0,0,1,3.1163-3.1088c36.5455-21.2467,43.4371-74.7584,12.9708-104.2441-13.6085-14.2962-34.4606-21.1668-53.9738-17.101-12.7867,2.4632-92.5765,17.5557-123.7563,23.4763a8.6994,8.6994,0,0,0-5.9423,4.2222Z" style="fill:#acce20"/><path d="M331.6206,67.28a8.6331,8.6331,0,0,1-3.1088-3.1163c-21.2467-36.5455-74.7584-43.4372-104.2441-12.9709-14.2962,13.6085-21.1668,34.4607-17.101,53.9739,2.4632,12.7867,17.5557,92.5765,23.4763,123.7562a8.6994,8.6994,0,0,0,4.2222,5.9423Z" style="fill:#acce20"/></g></svg>