<svg xmlns="http://www.w3.org/2000/svg" viewBox="0 0 512 512"><g id="Ghost"><path d="M376.0516,186.2373Q372.0595,186.0012,368,186V147.1633C368,86.855,321.6531,34.9621,261.4115,32.1275A112.0049,112.0049,0,0,0,144,144v77q-4.0594,0-8.0515.2374C76.9953,224.7241,32,275.69,32,334.7457V370.503c0,9.1545,6.588,17.4956,15.6971,18.4064A17.503,17.503,0,0,0,67,371.5V337.4967c0-9.1545,6.588-17.4956,15.697-18.4063A17.5031,17.5031,0,0,1,102,336.5v9.75c0,6.9738,4.7647,13.438,11.648,14.5583A14.01,14.01,0,0,0,130,347V305q0-.2973.0123-.5918C130.3842,295.4665,144,296.03,144,304.98v0A175.02,175.02,0,0,0,319.02,480H452a286.79,286.79,0,0,1-84-202.7936v-6.87c0-8.9677,13.8527-9.5342,13.9981-.5677Q382,269.8839,382,270v55.25c0,6.9738,4.7647,13.438,11.648,14.5583A14.01,14.01,0,0,0,410,326V302.4967c0-9.1545,6.588-17.4956,15.697-18.4063A17.5031,17.5031,0,0,1,445,301.5v6.0033c0,9.1544,6.588,17.4955,15.697,18.4063A17.5032,17.5032,0,0,0,480,308.5v-8.7542C480,240.69,435.0048,189.7241,376.0516,186.2373Z" style="fill:#7d288f"/><path d="M317.97,248.8722a63.2474,63.2474,0,0,0-123.9395,0,10.5624,10.5624,0,0,0,10.3465,12.6352l59.491,0a5.3171,5.3171,0,0,1,5.3171,5.3171v19.1829a10.5,10.5,0,0,0,10.5,10.5h0a10.5,10.5,0,0,0,10.5-10.5V266.8246a5.317,5.317,0,0,1,5.3171-5.3171l12.1214,0A10.5624,10.5624,0,0,0,317.97,248.8722Z" style="fill:#94b614"/><rect x="275.25" y="101.9999" width="42" height="84" rx="21" style="fill:#94b614"/><rect x="194.75" y="121.8333" width="35" height="58.3333" rx="17.5" style="fill:#94b614"/></g></svg>