<svg xmlns="http://www.w3.org/2000/svg" viewBox="0 0 512 512"><g id="Grim_reaper"><path d="M364.45,115.4238l-42.7515,42.752c75.9086,57.8774,113.4938,157.8568,87.2584,255.77v-.0026C466.5152,314.2459,445.1957,190.7178,364.45,115.4238Z" style="fill:#7f9b0a"/><path d="M408.9573,70.918,364.45,115.4238c80.7453,75.294,102.0648,198.8221,44.5069,298.519C503.6793,319.2161,503.6834,165.6442,408.9573,70.918Z" style="fill:#acce20"/><path d="M411.4293,38.253a21.3477,21.3477,0,0,0-30.191,0l-203.94,203.9391,30.1909,30.1922,203.94-203.9395A21.35,21.35,0,0,0,411.4293,38.253Z" style="fill:#feb819"/><path d="M345.2839,358.4958c34.5043-2.8125,55.2651-40.8891,37.4951-71.6666L292.196,129.935c-32.2793-55.9133-112.9844-55.9133-145.2637,0L56.3493,286.8292c-17.7666,30.7779,2.9941,68.8545,37.4985,71.6666A93.05,93.05,0,0,0,32,446.1227V465.99A14.01,14.01,0,0,0,46.01,480H393.1217a14.01,14.01,0,0,0,14.01-14.01v-19.867A93.05,93.05,0,0,0,345.2839,358.4958Z" style="fill:#7d288f"/><path d="M151.3291,209.1334a28.6024,28.6024,0,0,0-28.1671,23.32,96.6907,96.6907,0,0,0-1.596,17.513,97.83,97.83,0,0,0,42.0017,80.3607v16.9537c0,6.9725,4.7649,13.4347,11.6471,14.5535a14.01,14.01,0,0,0,16.35-13.8081,14.0006,14.0006,0,0,0,28.0012,0,14.0006,14.0006,0,0,0,28.0011,0,14.01,14.01,0,0,0,16.35,13.8081c6.8822-1.1188,11.6471-7.581,11.6471-14.5535V330.3275a97.83,97.83,0,0,0,42.0017-80.3607,96.7,96.7,0,0,0-1.596-17.513,28.6024,28.6024,0,0,0-28.1672-23.32Z" style="fill:#ffefdc"/><path d="M233.64,324.6468l-9.6441-22.0379a4.8352,4.8352,0,0,0-8.86,0l-9.6441,22.0379a4.8368,4.8368,0,0,0,4.43,6.7737H229.21A4.8368,4.8368,0,0,0,233.64,324.6468Z" style="fill:#2d4860"/><circle cx="261.566" cy="277.967" r="31.5" style="fill:#2d4860"/><circle cx="177.566" cy="277.967" r="31.5" style="fill:#2d4860"/></g></svg>