<svg xmlns="http://www.w3.org/2000/svg" viewBox="0 0 512 512"><g id="Holy_water"><path d="M328.82,154.2026c-9.8916-1.83-16.82-10.8675-16.82-20.9257V102H200v31.277c0,10.0582-6.9282,19.0953-16.82,20.9257A82.2366,82.2366,0,0,0,116,235V462.4961A17.504,17.504,0,0,0,133.5034,480H378.4966A17.5039,17.5039,0,0,0,396,462.4965V235A82.2366,82.2366,0,0,0,328.82,154.2026Z" style="fill:#7d288f"/><path d="M238.5067,427.4974a20.9989,20.9989,0,0,1-21-21V335.8343H183.1629a20.9989,20.9989,0,0,1-21-21v-35a20.9989,20.9989,0,0,1,21-21h34.3438V224.4974a20.9988,20.9988,0,0,1,21-21h35a20.9988,20.9988,0,0,1,21,21v34.3369h34.33a20.9988,20.9988,0,0,1,21,21v35a20.9989,20.9989,0,0,1-21,21h-34.33v70.6631a20.9989,20.9989,0,0,1-21,21Z" style="fill:#feb819"/><polygon points="238.507 406.497 238.507 314.834 183.163 314.834 183.163 279.834 238.507 279.834 238.507 224.497 273.507 224.497 273.507 279.834 328.837 279.834 328.837 314.834 273.507 314.834 273.507 406.497 238.507 406.497" style="fill:#ffefdc"/><path d="M199.996,32H312.0037A10.4962,10.4962,0,0,1,322.5,42.4962V102a0,0,0,0,1,0,0h-133a0,0,0,0,1,0,0V42.4962A10.4962,10.4962,0,0,1,199.996,32Z" style="fill:#94b614"/></g></svg>