<svg xmlns="http://www.w3.org/2000/svg" viewBox="0 0 512 512"><g id="Horoscope_ball"><circle cx="256" cy="249.0001" r="168" style="fill:#94b614"/><circle cx="323.0199" cy="181.9788" r="42" style="fill:#f5ff97"/><path d="M362.3574,382H149.643a17.48,17.48,0,0,0-12.5318,5.294L85.9465,439.9115a17.48,17.48,0,0,0-4.9478,12.1858v13.8314A14.0712,14.0712,0,0,0,95.07,480H416.9274a14.0713,14.0713,0,0,0,14.0713-14.0712V452.0971a17.48,17.48,0,0,0-4.9476-12.1855L374.89,387.2942A17.48,17.48,0,0,0,362.3574,382Z" style="fill:#7d288f"/><path d="M464.6436,365.8406l-3.4542-1.6645a27.1912,27.1912,0,0,1-13.7021-15.0724l-5.37-14.5374a2.397,2.397,0,0,0-4.4969,0l-5.37,14.5374a27.1912,27.1912,0,0,1-13.7021,15.0724l-3.4542,1.6645a2.397,2.397,0,0,0,0,4.3187l3.4542,1.6645a27.1908,27.1908,0,0,1,13.7021,15.0724l5.37,14.5374a2.397,2.397,0,0,0,4.4969,0l5.37-14.5374a27.1908,27.1908,0,0,1,13.7021-15.0724l3.4542-1.6645A2.397,2.397,0,0,0,464.6436,365.8406Z" style="fill:#feb819"/><path d="M93.0883,134.4089l-4.1451-1.9975a32.6288,32.6288,0,0,1-16.4424-18.0868L66.0561,96.88a2.8764,2.8764,0,0,0-5.3963,0l-6.4446,17.4449a32.6286,32.6286,0,0,1-16.4425,18.0868l-4.145,1.9975a2.8763,2.8763,0,0,0,0,5.1824l4.145,1.9974a32.6285,32.6285,0,0,1,16.4425,18.0869L60.66,177.1205a2.8764,2.8764,0,0,0,5.3963,0l6.4447-17.4449a32.6287,32.6287,0,0,1,16.4424-18.0869l4.1451-1.9974A2.8763,2.8763,0,0,0,93.0883,134.4089Z" style="fill:#feb819"/><path d="M477.83,84.5451l-5.5267-2.6632A43.5054,43.5054,0,0,1,450.38,57.7661l-8.5928-23.26a3.8352,3.8352,0,0,0-7.1951,0l-8.5928,23.26a43.5054,43.5054,0,0,1-21.9233,24.1158l-5.5267,2.6632a3.8352,3.8352,0,0,0,0,6.91l5.5267,2.6633a43.5047,43.5047,0,0,1,21.9233,24.1158l8.5928,23.26a3.8352,3.8352,0,0,0,7.1951,0l8.5928-23.26A43.5047,43.5047,0,0,1,472.303,94.1183L477.83,91.455A3.8352,3.8352,0,0,0,477.83,84.5451Z" style="fill:#feb819"/></g></svg>