<svg xmlns="http://www.w3.org/2000/svg" viewBox="0 0 512 512"><g id="Illuminati"><path d="M61.1414,442.521A24.9844,24.9844,0,0,0,82.779,480H429.22A24.9867,24.9867,0,0,0,450.86,442.521L327.6533,229.1222H184.3484Z" style="fill:#7d288f"/><path d="M256.0044,430.22a135.6418,135.6418,0,0,1-115.8418-64.5757,21.0019,21.0019,0,0,1,0-22.169,136.1814,136.1814,0,0,1,231.67.0034,21.0044,21.0044,0,0,1,.0068,22.1622A135.6258,135.6258,0,0,1,256.0044,430.22Z" style="fill:#feb819"/><path d="M256.0019,299.9014A115.23,115.23,0,0,0,158,354.5609a115.1823,115.1823,0,0,0,196,0A115.2279,115.2279,0,0,0,256.0019,299.9014Z" style="fill:#ffefdc"/><circle cx="256.0009" cy="354.5611" r="42" style="fill:#feb819"/><circle cx="256.0009" cy="354.5611" r="21" style="fill:#2d4860"/><circle cx="270.8481" cy="339.7098" r="14" style="fill:#ffefdc"/><path d="M234.3632,142.4927l-50.0148,86.6295H327.6533l-50.0148-86.6295A24.9848,24.9848,0,0,0,234.3632,142.4927Z" style="fill:#feb819"/><rect x="312.0009" y="98.5" width="21" height="63" rx="10.5" transform="translate(452.5009 -192.5009) rotate(90)" style="fill:#94b614"/><rect x="292.5235" y="51.4774" width="21" height="63" rx="10.5" transform="translate(147.4275 -189.9665) rotate(45)" style="fill:#94b614"/><rect x="245.5009" y="32" width="21" height="63" rx="10.5" style="fill:#94b614"/><rect x="198.4783" y="51.4774" width="21" height="63" rx="10.5" transform="translate(2.5345 172.0736) rotate(-45)" style="fill:#94b614"/><rect x="179.0009" y="98.5" width="21" height="63" rx="10.5" transform="translate(59.501 319.501) rotate(-90.0001)" style="fill:#94b614"/></g></svg>