<svg xmlns="http://www.w3.org/2000/svg" viewBox="0 0 512 512"><g id="Palmistry"><path d="M348.2007,91.55c0-15.2261-11.1335-28.8233-26.2912-30.2646a29.1549,29.1549,0,0,0-32.0057,29.0132V62.4014c0-15.2246-11.1307-28.8217-26.2868-30.2649a29.1588,29.1588,0,0,0-32.0135,29.0123V90.2981a29.1545,29.1545,0,0,0-32.0108-29.0126c-15.1554,1.4448-26.2861,15.04-26.2861,30.2641v27.8973a29.1542,29.1542,0,0,0-32.0109-29.0121c-15.1553,1.4448-26.286,15.04-26.286,30.2638V402.0625A77.9374,77.9374,0,0,0,192.9471,480H319.0519a29.1487,29.1487,0,0,0,29.1487-29.1487Z" style="fill:#7d288f"/><path d="M289.9011,221.816a10.5,10.5,0,0,1-10.5-10.5V111.2994a10.5,10.5,0,1,1,21,0V211.316A10.5,10.5,0,0,1,289.9011,221.816Z" style="fill:#651d77"/><path d="M231.6042,221.816a10.5006,10.5006,0,0,1-10.5-10.5V111.2994a10.5,10.5,0,1,1,21,0V211.316A10.5,10.5,0,0,1,231.6042,221.816Z" style="fill:#651d77"/><path d="M173.3074,221.816a10.5,10.5,0,0,1-10.5-10.5V140.4478a10.5,10.5,0,0,1,21,0V211.316A10.5006,10.5006,0,0,1,173.3074,221.816Z" style="fill:#651d77"/><path d="M367.8412,175.0716a29.1482,29.1482,0,0,0-29.149,29.1491V304.4852a97.5762,97.5762,0,0,0-97.5763,97.5772,77.9372,77.9372,0,1,0,155.8744,0V204.2207A29.1482,29.1482,0,0,0,367.8412,175.0716Z" style="fill:#8d3fa0"/><path d="M213.113,448.4991a10.5,10.5,0,0,1-10.5-10.5V402.0625a135.7056,135.7056,0,0,1,39.9014-96.1816q4.768-4.7681,9.9258-9.01H173.3074a10.5,10.5,0,1,1,0-21H289.86a10.501,10.501,0,0,1,4.0947,20.1695A115.0685,115.0685,0,0,0,223.613,402.0625v35.9366A10.5,10.5,0,0,1,213.113,448.4991Z" style="fill:#94b614"/><path d="M273.6042,258.3711h-56a10.5,10.5,0,0,1,0-21h56a10.5,10.5,0,0,1,0,21Z" style="fill:#94b614"/></g></svg>