<svg xmlns="http://www.w3.org/2000/svg" viewBox="0 0 512 512"><g id="Spellbook"><path d="M135.2519,403a28,28,0,1,0,0,56H415.25V403Z" style="fill:#ffefdc"/><path d="M415.25,436.8174v10.5H112.57a27.9553,27.9553,0,0,1-4.69-10.5Z" style="fill:#eaceb0"/><path d="M415.25,414.6963v10.5H107.8808a25.9568,25.9568,0,0,1,4.69-10.5Z" style="fill:#eaceb0"/><path d="M415.25,459H135.2487v21H415.25a10.5,10.5,0,0,0,0-21Z" style="fill:#651d77"/><path d="M136.4962,403H415.25a10.5,10.5,0,0,0,0-21H137.3029c-.69,0-1.3672.0718-2.0542.0991v21.0137C135.6691,403.0957,136.0732,403,136.4962,403Z" style="fill:#651d77"/><path d="M107.3888,428.2007c1.3774-14.1231,13.7642-24.4932,27.86-25.0879V382.0991c-25.9552,1.0254-48.1943,21.2666-48.9761,47.397A48.999,48.999,0,0,0,135.2487,480V459A28.0293,28.0293,0,0,1,107.3888,428.2007Z" style="fill:#e29700"/><path d="M86.25,81V429.4961l.0248-.0273c.7972-26.1167,23.0285-46.3443,48.9752-47.37V32A49.0013,49.0013,0,0,0,86.25,81Z" style="fill:#feb819"/><path d="M415.25,32h-280V382.0991c.6861-.0273,1.3638-.0991,2.0542-.0991H415.25a10.4994,10.4994,0,0,1,10.5,10.5V42.5A10.4994,10.4994,0,0,0,415.25,32Z" style="fill:#7d288f"/><path d="M366.8687,240.2675a98.6966,98.6966,0,0,0,0-98.035c-.106-.2252-.1573-.4657-.2837-.6832a8.47,8.47,0,0,0-.6375-.8305,99.1356,99.1356,0,0,0-170.9206.044,8.1957,8.1957,0,0,0-.605.7865c-.12.2059-.1675.435-.2683.6481a98.6821,98.6821,0,0,0,0,98.1052c.1008.2131.1486.4422.2683.6481a8.1957,8.1957,0,0,0,.605.7865,99.1356,99.1356,0,0,0,170.9206.0441,8.4837,8.4837,0,0,0,.6375-.8306C366.7114,240.7332,366.7627,240.4927,366.8687,240.2675ZM268.78,245.1514h23.44L280.5,265.4507Zm-9.7-16.8028L237.6609,191.25,259.08,154.1514h42.8442l21.42,37.0986-21.42,37.0986ZM197.9014,191.25a82.0513,82.0513,0,0,1,4.6826-27.1613L218.2656,191.25,202.584,218.4113A82.0513,82.0513,0,0,1,197.9014,191.25Zm18.3408-37.0986h23.44l-11.72,20.301Zm11.72,53.8962,11.72,20.301h-23.44Zm64.2578-70.699H268.78l11.72-20.2993Zm29.1006,16.8028h23.4438L333.041,174.4537Zm11.72,53.8949,11.7236,20.3023H321.3208ZM342.74,191.25l15.6782-27.1549a81.1061,81.1061,0,0,1,0,54.31Zm.21-53.9014H311.6189l-15.7056-27.2019A82.5322,82.5322,0,0,1,342.95,137.3486Zm-77.8613-27.2019-15.7056,27.2019H218.05A82.5366,82.5366,0,0,1,265.0884,110.1467ZM218.05,245.1514h31.3325l15.7056,27.2019A82.5366,82.5366,0,0,1,218.05,245.1514Zm77.863,27.2019,15.7056-27.2019H342.95A82.5322,82.5322,0,0,1,295.9133,272.3533Z" style="fill:#94b614"/></g></svg>