<svg xmlns="http://www.w3.org/2000/svg" viewBox="0 0 512 512"><g id="Talisman"><path d="M314.6621,316.1289a17.5269,17.5269,0,0,1,0-24.7119h0a17.4916,17.4916,0,0,1,24.78,0h0a17.5393,17.5393,0,0,1,0,24.7119h0a17.4407,17.4407,0,0,1-12.3935,5.11h0A17.437,17.437,0,0,1,314.6621,316.1289Zm-142.3105-.2119a17.6224,17.6224,0,0,1,0-24.78h0a17.6225,17.6225,0,0,1,24.78,0h0a17.6225,17.6225,0,0,1,0,24.78h0a17.4267,17.4267,0,0,1-12.3936,5.11h0A17.4225,17.4225,0,0,1,172.3516,315.917Zm178.7119-34.58a17.4155,17.4155,0,0,1-2.8711-24.5684h0a17.4029,17.4029,0,0,1,24.5-2.9394h0a17.5154,17.5154,0,0,1,2.9395,24.64h0a17.5839,17.5839,0,0,1-13.72,6.648h0A17.4746,17.4746,0,0,1,351.0635,281.3374ZM136.1621,278.19a17.5429,17.5429,0,0,1,2.9395-24.5718h0a17.48,17.48,0,0,1,24.5684,2.9394h0a17.4206,17.4206,0,0,1-2.9395,24.5718h0a17.45,17.45,0,0,1-10.78,3.78h0A17.4617,17.4617,0,0,1,136.1621,278.19Zm243.8106-38.1514A17.4555,17.4555,0,0,1,368.208,218.269h0A17.5407,17.5407,0,0,1,390.0489,206.58h0a17.4307,17.4307,0,0,1,11.6894,21.769h0a17.5478,17.5478,0,0,1-16.7275,12.4585h0A15.6985,15.6985,0,0,1,379.9727,240.0381Zm-269.78-11.97a17.4613,17.4613,0,0,1,11.6895-21.7691h0a17.4984,17.4984,0,0,1,21.8408,11.7578h0A17.5684,17.5684,0,0,1,131.958,239.83h0a17.8638,17.8638,0,0,1-5.038.6973h0A17.4185,17.4185,0,0,1,110.1924,228.0684Zm262.7051-53.0606a17.5058,17.5058,0,0,1,16.1055-18.83h0a17.5218,17.5218,0,0,1,18.7578,16.0987h0a17.4924,17.4924,0,0,1-16.03,18.833h0c-.4922,0-.9775.0683-1.4014.0683h0A17.59,17.59,0,0,1,372.8975,175.0078ZM120.2686,190.83a17.5384,17.5384,0,0,1-16.03-18.83h0a17.5036,17.5036,0,0,1,18.833-16.1021h0a17.5531,17.5531,0,0,1,16.03,18.9014h0a17.4587,17.4587,0,0,1-17.3633,16.0986h0C121.253,190.8979,120.7608,190.83,120.2686,190.83Zm241.22-57.75a17.5337,17.5337,0,0,1,8.1211-23.3823h0a17.45,17.45,0,0,1,23.3789,8.1211h0a17.4068,17.4068,0,0,1-8.1211,23.3789h0a17.2818,17.2818,0,0,1-7.5537,1.75h0A17.6569,17.6569,0,0,1,361.4883,133.08ZM127.1319,140.917a17.5232,17.5232,0,0,1-8.0528-23.3789h0a17.4661,17.4661,0,0,1,23.3789-8.0493h0a17.5249,17.5249,0,0,1,8.1211,23.3789h0a17.55,17.55,0,0,1-15.75,9.7993h0A17.8188,17.8188,0,0,1,127.1319,140.917Zm208.53-42.7691h-.0683a17.4769,17.4769,0,0,1-.916-24.7084h0a17.5464,17.5464,0,0,1,24.7119-.981h0a17.629,17.629,0,0,1,.9775,24.78h0a17.6831,17.6831,0,0,1-12.8789,5.5986h0A17.2539,17.2539,0,0,1,335.6621,98.1479Zm-183.8183-1.121a17.41,17.41,0,0,1,.9775-24.7085h0a17.4228,17.4228,0,0,1,24.7119.9809h0a17.4888,17.4888,0,0,1-.9843,24.7085h0a17.5174,17.5174,0,0,1-11.8262,4.6211h0A17.4306,17.4306,0,0,1,151.8438,97.0269Zm147-21.9776h0a17.4962,17.4962,0,0,1-9.9463-22.6816h0a17.5526,17.5526,0,0,1,22.6816-9.94h0a17.5439,17.5439,0,0,1,9.94,22.6817h0A17.57,17.57,0,0,1,305.208,76.3071h0A16.96,16.96,0,0,1,298.8438,75.0493ZM190.6924,65.0381A17.5223,17.5223,0,0,1,200.7,42.36h0a17.499,17.499,0,0,1,22.6133,9.9394h0a17.4924,17.4924,0,0,1-9.9463,22.6782h0a18.5383,18.5383,0,0,1-6.3642,1.1895h0A17.6073,17.6073,0,0,1,190.6924,65.0381Zm47.9473-15.61A17.4462,17.4462,0,0,1,256.14,32h0a17.5052,17.5052,0,0,1,17.5,17.5h0A17.5221,17.5221,0,0,1,256.0713,67h0A17.4649,17.4649,0,0,1,238.64,49.4282Z" style="fill:#7d288f"/><circle cx="256.002" cy="396" r="84" style="fill:#feb819"/><path d="M256.002,448.5a52.5,52.5,0,1,1,52.5-52.4982A52.56,52.56,0,0,1,256.002,448.5Z" style="fill:#94b614"/><circle cx="270.4488" cy="374.8188" r="17.5" style="fill:#f5ff97"/></g></svg>