<svg xmlns="http://www.w3.org/2000/svg" viewBox="0 0 512 512"><g id="Tarot"><path d="M207.0239,32H45.9761A13.9757,13.9757,0,0,0,32,45.9761v7A13.9757,13.9757,0,0,1,45.9761,39H207.0239A13.9768,13.9768,0,0,1,221,52.9761v-7A13.9768,13.9768,0,0,0,207.0239,32Z" style="fill:#ffefdc"/><rect x="-34.5" y="105.5001" width="322" height="189" rx="13.9761" transform="translate(326.5001 73.5001) rotate(90)" style="fill:#94b614"/><rect x="53.0012" y="284.0001" width="147" height="56" style="fill:#feb819"/><rect x="53.0012" y="60.0001" width="147" height="224" transform="translate(253.0025 344.0003) rotate(180)" style="fill:#7d288f"/><path d="M95.842,135.73,86.07,130.7426a.6147.6147,0,0,0-.8269.8269l4.9876,9.7711a1.2289,1.2289,0,0,0,1.9632.31l3.9576-3.9576A1.229,1.229,0,0,0,95.842,135.73Z" style="fill:#ffefdc"/><path d="M90.2308,202.6594l-4.9871,9.7716a.6147.6147,0,0,0,.8269.8269l9.7711-4.9876a1.2289,1.2289,0,0,0,.31-1.9633L92.1945,202.35A1.229,1.229,0,0,0,90.2308,202.6594Z" style="fill:#ffefdc"/><path d="M157.1605,208.2706l9.7716,4.9871a.6147.6147,0,0,0,.8269-.8269l-4.9876-9.7712a1.229,1.229,0,0,0-1.9633-.31l-3.9575,3.9575A1.2291,1.2291,0,0,0,157.1605,208.2706Z" style="fill:#ffefdc"/><path d="M162.7716,141.3409l4.9872-9.7716a.6147.6147,0,0,0-.8269-.8269l-9.7712,4.9876a1.2289,1.2289,0,0,0-.31,1.9632l3.9575,3.9576A1.229,1.229,0,0,0,162.7716,141.3409Z" style="fill:#ffefdc"/><path d="M78.103,165.3874,60.71,171.0259a1.0245,1.0245,0,0,0,0,1.9491l17.3933,5.6375a2.0483,2.0483,0,0,0,2.68-1.9481v-9.3279A2.0485,2.0485,0,0,0,78.103,165.3874Z" style="fill:#feb819"/><path d="M119.8885,220.3983l5.6385,17.3934a1.0245,1.0245,0,0,0,1.9491,0l5.6375-17.3934a2.0483,2.0483,0,0,0-1.9481-2.6794h-9.3279A2.0484,2.0484,0,0,0,119.8885,220.3983Z" style="fill:#feb819"/><path d="M174.8994,178.6128l17.3934-5.6385a1.0245,1.0245,0,0,0,0-1.949l-17.3934-5.6375a2.0482,2.0482,0,0,0-2.6794,1.948v9.328A2.0483,2.0483,0,0,0,174.8994,178.6128Z" style="fill:#feb819"/><path d="M133.1139,123.6019l-5.6385-17.3933a1.0245,1.0245,0,0,0-1.949,0l-5.6375,17.3933a2.0483,2.0483,0,0,0,1.948,2.68h9.328A2.0484,2.0484,0,0,0,133.1139,123.6019Z" style="fill:#feb819"/><circle cx="126.5012" cy="172.0001" r="37.4062" style="fill:#feb819"/><circle cx="126.5012" cy="172.0009" r="26.9062" style="fill:#ffefdc"/><path d="M466,424.105H171.9316A13.9225,13.9225,0,0,1,158,410.175V466.07A13.9225,13.9225,0,0,0,171.9316,480H466a13.9809,13.9809,0,0,0,14-13.93V410.175A13.9809,13.9809,0,0,1,466,424.105Z" style="fill:#ffefdc"/><path d="M480,452.07v14A13.9809,13.9809,0,0,1,466,480H171.9316A13.9225,13.9225,0,0,1,158,466.07v-14A13.9225,13.9225,0,0,0,171.9316,466H466A13.9809,13.9809,0,0,0,480,452.07Z" style="fill:#eaceb0"/><path d="M480,424.14v14a13.9809,13.9809,0,0,1-14,13.93H171.9316A13.9225,13.9225,0,0,1,158,438.14v-14a13.9225,13.9225,0,0,0,13.9316,13.93H466A13.9809,13.9809,0,0,0,480,424.14Z" style="fill:#eaceb0"/><rect x="158" y="235.1401" width="322" height="189" rx="13.9761" style="fill:#94b614"/><rect x="245.5" y="189.6389" width="147" height="280" transform="translate(648.6389 10.6389) rotate(90)" style="fill:#7d288f"/><path d="M291.3849,378.2966a55.6027,55.6027,0,0,0,55.23,0c.1269-.06.2624-.0886.3849-.16a4.7728,4.7728,0,0,0,.4679-.3591,55.85,55.85,0,0,0-.0248-96.292,4.6237,4.6237,0,0,0-.4431-.3409c-.116-.0673-.245-.0943-.3651-.1511a55.595,55.595,0,0,0-55.27,0c-.12.0568-.2491.0838-.3651.1511a4.6237,4.6237,0,0,0-.4431.3409,55.85,55.85,0,0,0-.0248,96.292,4.7728,4.7728,0,0,0,.4679.3591C291.1225,378.208,291.258,378.2369,291.3849,378.2966Zm-2.7514-55.2605v13.2056l-11.4361-6.6028Zm9.4661-5.4649L319,305.5045l20.9,12.0667v24.1373L319,353.7762l-20.9-12.0677ZM319,283.1051a46.2235,46.2235,0,0,1,15.3019,2.6381L319,294.5778l-15.3019-8.8346A46.2235,46.2235,0,0,1,319,283.1051Zm20.9,10.3327v13.2057l-11.4371-6.6028Zm-30.3637,6.6029L298.1,306.6435V293.4378Zm39.83,36.201V323.0361l11.4361,6.6028ZM339.9,352.6362v13.2076l-11.4378-6.6047Zm-30.363,6.6029L298.1,365.8438V352.6362ZM319,364.7029l15.2983,8.8327a45.6927,45.6927,0,0,1-30.5966,0Zm30.3665.1185V347.17l15.3249-8.8481A46.4968,46.4968,0,0,1,349.3665,364.8214Zm15.3249-43.865-15.3249-8.8481V294.4565A46.4985,46.4985,0,0,1,364.6914,320.9564Zm-76.0579-26.5v17.6518l-15.3249,8.8481A46.4985,46.4985,0,0,1,288.6335,294.4565Zm-15.3249,43.8658,15.3249,8.8481v17.651A46.4968,46.4968,0,0,1,273.3086,338.3223Z" style="fill:#94b614"/></g></svg>