<svg xmlns="http://www.w3.org/2000/svg" viewBox="0 0 512 512"><g id="UFO"><path d="M199.9973,409.8187H312.0028a13.9944,13.9944,0,0,0,11.1956-5.5978L340,381.8187H172l16.8017,22.4022A13.9944,13.9944,0,0,0,199.9973,409.8187Z" style="fill:#2d4860"/><path d="M362.1993,371.3187v-7H149.6563v7a10.4992,10.4992,0,0,0,10.5,10.5H351.8428a10.4992,10.4992,0,0,0,10.5-10.5Z" style="fill:#feb819"/><path d="M149.8,364.3184H362.2c51.0782-13.4856,90.149-36.3642,107.3-63.8968H42.5C59.6514,327.9542,98.7222,350.8328,149.8,364.3184Z" style="fill:#651d77"/><rect x="32" y="279.4216" width="448" height="21" rx="10.5" style="fill:#feb819"/><path d="M362.2,215.5247H149.8C98.7222,229.01,59.6514,251.8889,42.5,279.4215h427C452.3487,251.8889,413.2779,229.01,362.2,215.5247Z" style="fill:#7d288f"/><path d="M359.9575,233.473c9.666,0,19.5679,6.2028,22.1177,13.8543s-3.22,13.8539-12.8824,13.8539c-9.666,0-19.5678-6.2028-22.1176-13.8539S350.2915,233.473,359.9575,233.473Z" style="fill:#ffefdc"/><ellipse cx="256" cy="247.4732" rx="17.5" ry="14" style="fill:#ffefdc"/><path d="M152.0425,233.4729c-9.666,0-19.5679,6.2028-22.1177,13.8543s3.22,13.8539,12.8824,13.8539c9.666,0,19.5678-6.2028,22.1176-13.8539S161.7085,233.4729,152.0425,233.4729Z" style="fill:#ffefdc"/><path d="M351.8428,198.0247H160.1563a10.4992,10.4992,0,0,0-10.5,10.5v7h212.543v-7h.1435A10.4992,10.4992,0,0,0,351.8428,198.0247Z" style="fill:#feb819"/><path d="M256,102.1813a95.8424,95.8424,0,0,0-95.8432,95.8433H351.8433A95.8425,95.8425,0,0,0,256,102.1813Z" style="fill:#94b614"/><circle cx="296.8085" cy="157.2161" r="17.5" style="fill:#f5ff97"/></g></svg>