<svg xmlns="http://www.w3.org/2000/svg" viewBox="0 0 512 512"><g id="Voodoo_doll"><path d="M356.7735,347.7283a10.5,10.5,0,0,1-7.4239-17.9239l49.7247-49.728a10.4989,10.4989,0,1,1,14.8476,14.8477l-49.7246,49.728A10.4659,10.4659,0,0,1,356.7735,347.7283Z" style="fill:#ffefdc"/><circle cx="406.5" cy="287.5" r="24.5" style="fill:#7d288f"/><path d="M263.0254,189.5a10.73,10.73,0,0,1-1.709-.1367l-192.5136-31.5a10.501,10.501,0,1,1,3.3906-20.7265l192.5137,31.5A10.5,10.5,0,0,1,263.0254,189.5Z" style="fill:#ffefdc"/><circle cx="70.5" cy="147.5" r="24.5" style="fill:#7d288f"/><path d="M263.0186,189.5037a10.5011,10.5011,0,0,1-4.32-20.0738l178.4795-80.5a10.4989,10.4989,0,1,1,8.6338,19.1407l-178.4795,80.5A10.4749,10.4749,0,0,1,263.0186,189.5037Z" style="fill:#ffefdc"/><circle cx="441.5" cy="98.5" r="24.5" style="fill:#7d288f"/><path d="M263.0049,189.5a10.4472,10.4472,0,0,1-7.0068-2.6865l-136.5137-122.5a10.5,10.5,0,1,1,14.0274-15.6269l136.5136,122.5a10.5,10.5,0,0,1-7.02,18.3134Z" style="fill:#ffefdc"/><circle cx="126.5" cy="56.5" r="24.5" style="fill:#7d288f"/><path d="M390.7013,347.5947,342.303,299.2a27.9225,27.9225,0,0,0-19.7935-8.198V291h-119v.0021a27.8859,27.8859,0,0,0-19.8,8.2014l-48.4262,48.43c-11.4261,11.4269-12.0336,30.7666-.0611,41.62a27.9942,27.9942,0,0,0,38.5889-.96l22.6987-22.7-.0034,85.2023c0,14.6236,10.69,27.6839,25.2475,29.0735A28.0066,28.0066,0,0,0,252.5061,452V420.5a10.5,10.5,0,0,1,10.5-10.5h0a10.5,10.5,0,0,1,10.5,10.5v30.2947c0,14.6236,10.69,27.6839,25.2475,29.0735A28.0066,28.0066,0,0,0,329.5061,452l.0034-86.4016,22.6988,22.6975a27.996,27.996,0,0,0,38.5944.95C402.763,378.3823,402.1267,359.0193,390.7013,347.5947Z" style="fill:#e29700"/><circle cx="263.0092" cy="178.9998" r="133" style="fill:#feb819"/><circle cx="329.5092" cy="206.9998" r="45.5" style="fill:#94b614"/><circle cx="341.5092" cy="218.9998" r="9" style="fill:#2d4860"/><circle cx="317.5092" cy="218.9998" r="9" style="fill:#2d4860"/><circle cx="341.5092" cy="194.9998" r="9" style="fill:#2d4860"/><circle cx="317.5092" cy="194.9998" r="9" style="fill:#2d4860"/><circle cx="196.5092" cy="206.9998" r="45.5" style="fill:#94b614"/><circle cx="208.5092" cy="218.9998" r="9" style="fill:#2d4860"/><circle cx="184.5092" cy="218.9998" r="9" style="fill:#2d4860"/><circle cx="208.5092" cy="194.9998" r="9" style="fill:#2d4860"/><circle cx="184.5092" cy="194.9998" r="9" style="fill:#2d4860"/></g></svg>