<svg xmlns="http://www.w3.org/2000/svg" viewBox="0 0 512 512"><g id="Yin_and_yang"><path d="M164.2959,34.6805a35.0222,35.0222,0,0,0-11.3408,7.5815L42.2607,152.9547a35.0256,35.0256,0,0,0-7.6049,11.3976L255.98,256.0269Z" style="fill:#acce20"/><path d="M34.6558,164.3523A35.0183,35.0183,0,0,0,32,177.7285v156.543a35.0586,35.0586,0,0,0,2.6729,13.4228L255.98,256.0269Z" style="fill:#7f9b0a"/><path d="M34.6729,347.6943a35.0724,35.0724,0,0,0,7.5878,11.3515L152.9551,469.7384a35,35,0,0,0,11.3579,7.5909L255.98,256.0269Z" style="fill:#acce20"/><path d="M164.313,477.3293A35.0262,35.0262,0,0,0,177.7285,480h156.543a35.0165,35.0165,0,0,0,13.3779-2.6583L255.98,256.0269Z" style="fill:#7f9b0a"/><path d="M347.6494,477.3417a35.0213,35.0213,0,0,0,11.3955-7.6033L469.7393,359.0458a35.058,35.058,0,0,0,7.5776-11.3374L255.98,256.0269Z" style="fill:#acce20"/><path d="M480,177.7285a35.0328,35.0328,0,0,0-2.6626-13.3916L255.98,256.0269l221.3374,91.6815A35.0044,35.0044,0,0,0,480,334.2715Z" style="fill:#7f9b0a"/><path d="M477.3374,164.3369a35.0266,35.0266,0,0,0-7.5981-11.3822L359.0449,42.262a35.0321,35.0321,0,0,0-11.375-7.5977L255.98,256.0269Z" style="fill:#acce20"/><path d="M347.67,34.6643A35.0266,35.0266,0,0,0,334.2715,32H177.7285a35.012,35.012,0,0,0-13.4326,2.6805L255.98,256.0269Z" style="fill:#7f9b0a"/><path d="M171.9787,340.0269a84.011,84.011,0,0,1,84-84,84,84,0,0,0,0-168,168,168,0,0,1,0,336A83.9773,83.9773,0,0,1,171.9787,340.0269Z" style="fill:#7d288f"/><circle cx="255.9991" cy="340.0269" r="31.5" style="fill:#feb819"/><path d="M87.9787,256.0269a167.9868,167.9868,0,0,1,168-168,84,84,0,0,1,0,168,84,84,0,0,0,0,168A167.9531,167.9531,0,0,1,87.9787,256.0269Z" style="fill:#feb819"/><circle cx="255.9991" cy="172.0269" r="31.5" style="fill:#7d288f"/></g></svg>