<svg id="Capa_1" enable-background="new 0 0 511.342 511.342" height="512" viewBox="0 0 511.342 511.342" width="512" xmlns="http://www.w3.org/2000/svg"><g><g><g id="XMLID_145_"><g><path d="m274.081 233.855v264.523c0 3.02-2.448 5.467-5.467 5.467h-25.885c-3.02 0-5.467-2.448-5.467-5.467v-264.523-65.81h36.82v65.81z" fill="#d1a08f"/></g></g><g><path d="m327.78 241.568-7.521-57.277c-.38-2.891.484-5.808 2.376-8.027l34.448-40.387c4.818-5.649 2.26-14.385-4.844-16.543l-46.28-14.06c-2.29-.696-4.266-2.167-5.589-4.161l-36.115-54.418c-4.075-6.141-13.092-6.141-17.168 0l-36.115 54.418c-1.323 1.994-3.299 3.465-5.589 4.161l-46.28 14.06c-7.104 2.158-9.662 10.894-4.844 16.543l34.448 40.387c1.892 2.219 2.756 5.135 2.376 8.027l-7.504 57.147c-1.085 8.262 7.578 14.327 14.97 10.48l51.898-27.008c2.963-1.542 6.49-1.552 9.462-.026l52.951 27.189c7.39 3.795 16.002-2.269 14.92-10.505z" fill="#fee97d"/><path d="m327.78 241.568-2.157-16.429c-1.535-.061-3.104-.451-4.625-1.232l-56.868-29.201c-3.191-1.639-6.979-1.628-10.162.028l-13.731 7.145c-4.271 2.223-9.277-1.281-8.65-6.055l.179-1.363c.38-2.891-.484-5.808-2.376-8.027l-34.448-40.387c-4.818-5.649-2.26-14.385 4.844-16.543l46.28-14.06c2.29-.696 4.266-2.167 5.589-4.161l27.732-41.787-15.133-22.802c-4.075-6.141-13.092-6.141-17.168 0l-36.115 54.418c-1.323 1.994-3.299 3.465-5.589 4.161l-46.28 14.06c-7.104 2.158-9.662 10.894-4.844 16.543l34.448 40.387c1.892 2.219 2.756 5.136 2.376 8.027l-7.504 57.147c-1.085 8.262 7.578 14.327 14.97 10.48l18.806-9.787 33.092-17.221c2.963-1.542 6.49-1.552 9.462-.026l52.951 27.189c7.391 3.796 16.003-2.268 14.921-10.504z" fill="#fee45a"/><g id="XMLID_146_"><g><path d="m237.261 304.175h36.82v47.28h-36.82z" fill="#c68d7a"/></g></g><g fill="#fee97d"><path d="m335.336 52.943 20.676-42.469c1.122-2.304 3.74-3.468 6.206-2.77 13.577 3.844 23.522 12.74 29.297 27.438 1.059 2.696-.311 5.742-3.007 6.799l-46.499 18.226c-4.477 1.755-8.777-2.901-6.673-7.224z"/><path d="m373.8 190.518 46.898 5.625c2.545.305 4.502 2.397 4.65 4.956.815 14.087-4.333 26.397-16.328 36.668-2.2 1.884-5.527 1.587-7.409-.614l-32.451-37.965c-3.124-3.655-.134-9.243 4.64-8.67z"/><path d="m137.542 190.518-46.898 5.625c-2.545.305-4.502 2.397-4.65 4.956-.815 14.087 4.333 26.397 16.328 36.668 2.2 1.884 5.527 1.587 7.409-.614l32.451-37.965c3.124-3.655.133-9.243-4.64-8.67z"/><path d="m176.005 52.943-20.675-42.468c-1.122-2.304-3.74-3.468-6.206-2.77-13.577 3.844-23.522 12.74-29.297 27.438-1.059 2.696.311 5.742 3.007 6.799l46.499 18.226c4.477 1.754 8.777-2.902 6.672-7.225z"/></g></g></g><g><path d="m327.695 183.313c-.103-.785.133-1.581.646-2.183l34.448-40.387c3.91-4.584 5.234-10.773 3.541-16.555s-6.146-10.28-11.91-12.031l-46.28-14.06c-.622-.189-1.162-.591-1.521-1.132l-8.846-13.328c-2.291-3.451-6.945-4.393-10.396-2.102s-4.392 6.945-2.102 10.396l8.845 13.328c2.281 3.437 5.71 5.99 9.658 7.19l46.281 14.06c1.261.383 1.715 1.351 1.875 1.894.159.542.298 1.603-.557 2.605l-34.449 40.388c-3.265 3.828-4.761 8.884-4.105 13.871l7.521 57.277c.192 1.462-.647 2.292-1.165 2.656s-1.582.875-2.893.201l-52.951-27.188c-5.125-2.633-11.238-2.617-16.35.044l-51.897 27.007c-1.314.684-2.381.173-2.901-.19-.52-.364-1.364-1.194-1.171-2.661l1.256-9.566c.54-4.107-2.353-7.873-6.46-8.412-4.108-.543-7.873 2.353-8.412 6.46l-1.256 9.566c-.867 6.605 1.984 13.081 7.441 16.901 5.458 3.82 12.518 4.284 18.428 1.208l27.746-14.439v135.581c0 4.142 3.358 7.5 7.5 7.5s7.5-3.358 7.5-7.5v-20.758h21.827v144.888c0 4.142 3.358 7.5 7.5 7.5s7.5-3.358 7.5-7.5v-259.397l27.85 14.3c2.573 1.321 5.361 1.974 8.138 1.974 3.598 0 7.177-1.097 10.242-3.254 5.43-3.823 8.266-10.289 7.401-16.874zm-82.938 160.641v-32.28h21.827v32.28zm21.827-47.28h-21.827v-60.349l9.151-4.762c.805-.418 1.766-.421 2.574-.007l10.102 5.187z"/><path d="m145.012 124.188c-1.693 5.782-.37 11.971 3.541 16.555l34.447 40.387c.514.603.75 1.398.646 2.184l-2.08 15.841c-.54 4.107 2.353 7.874 6.459 8.413.332.043.661.065.986.065 3.708 0 6.931-2.749 7.427-6.524l2.08-15.84c.655-4.987-.841-10.043-4.106-13.872l-34.448-40.387c-.855-1.002-.716-2.063-.557-2.605.159-.543.614-1.511 1.875-1.894l46.281-14.061c3.947-1.199 7.377-3.753 9.657-7.189l36.115-54.418c.723-1.09 1.773-1.252 2.335-1.252s1.612.163 2.335 1.253l9.595 14.458c2.291 3.45 6.944 4.392 10.396 2.102 3.451-2.291 4.392-6.945 2.102-10.396l-9.595-14.458c-3.307-4.983-8.852-7.958-14.833-7.958s-11.526 2.975-14.833 7.958l-36.116 54.418c-.358.541-.898.943-1.52 1.131l-46.28 14.06c-5.763 1.749-10.215 6.247-11.909 12.029z"/><path d="m237.257 404.175c-4.142 0-7.5 3.358-7.5 7.5v92.167c0 4.142 3.358 7.5 7.5 7.5s7.5-3.358 7.5-7.5v-92.167c0-4.142-3.358-7.5-7.5-7.5z"/><path d="m340.048 68.044c1.571 0 3.162-.292 4.696-.894l46.499-18.226c3.156-1.236 5.652-3.623 7.029-6.721 1.395-3.137 1.474-6.619.223-9.804-6.518-16.588-18.036-27.325-34.234-31.912-5.972-1.69-12.279 1.128-14.992 6.703l-20.676 42.469c-2.322 4.768-1.497 10.367 2.102 14.263 2.479 2.686 5.869 4.122 9.353 4.122zm21.879-52.586c10.004 3.312 17.141 9.988 21.73 20.328l-39.085 15.32z"/><path d="m432.835 200.666c-.358-6.197-5.087-11.231-11.244-11.97l-46.898-5.625c-5.268-.628-10.285 1.981-12.788 6.657s-1.893 10.301 1.553 14.332l32.451 37.965c2.202 2.576 5.275 4.153 8.652 4.439.369.031.736.047 1.102.047 3.025 0 5.915-1.063 8.233-3.048 13.54-11.591 19.912-25.99 18.939-42.797zm-26.998 29.888-27.277-31.911 39.366 4.721c.149 10.537-3.822 19.467-12.089 27.19z"/><path d="m149.436 189.728c-2.502-4.675-7.522-7.286-12.787-6.657l-46.898 5.625c-6.157.738-10.886 5.772-11.244 11.97-.973 16.807 5.399 31.207 18.938 42.798 2.319 1.985 5.208 3.048 8.233 3.048.365 0 .733-.016 1.102-.047 3.377-.287 6.45-1.863 8.652-4.439l32.451-37.964c3.446-4.033 4.055-9.658 1.553-14.334zm-43.932 40.826c-8.267-7.723-12.237-16.653-12.089-27.19l39.366-4.721z"/><path d="m120.098 48.924 46.499 18.226c1.535.602 3.126.894 4.698.894 3.483 0 6.874-1.436 9.353-4.121 3.598-3.896 4.423-9.495 2.102-14.263l-20.677-42.467c-2.713-5.577-9.015-8.397-14.993-6.705-16.198 4.586-27.716 15.323-34.234 31.912-1.251 3.185-1.172 6.667.223 9.804 1.377 3.097 3.873 5.484 7.029 6.72zm29.317-33.466 17.355 35.648-39.085-15.32c4.588-10.34 11.725-17.015 21.73-20.328z"/><path d="m390.506 111.765c1.013 3.194 3.965 5.235 7.147 5.235.751 0 1.515-.114 2.269-.353l18.792-5.959c3.948-1.252 6.134-5.468 4.882-9.416-1.252-3.949-5.469-6.135-9.416-4.882l-18.792 5.959c-3.949 1.252-6.135 5.468-4.882 9.416z"/><path d="m92.628 110.688 18.792 5.959c.754.239 1.518.353 2.269.353 3.181 0 6.134-2.041 7.147-5.235 1.252-3.948-.933-8.164-4.882-9.416l-18.791-5.959c-3.946-1.252-8.164.933-9.416 4.882-1.253 3.948.933 8.164 4.881 9.416z"/><path d="m162.332 282.771c-3.29-2.515-7.997-1.887-10.514 1.402l-11.974 15.661c-2.516 3.291-1.888 7.998 1.402 10.514 1.36 1.04 2.961 1.542 4.55 1.542 2.256 0 4.487-1.014 5.963-2.945l11.974-15.661c2.517-3.289 1.89-7.996-1.401-10.513z"/><path d="m359.523 284.174c-2.517-3.291-7.223-3.918-10.514-1.402s-3.918 7.223-1.402 10.514l11.974 15.661c1.477 1.931 3.707 2.945 5.963 2.945 1.589 0 3.19-.503 4.55-1.542 3.291-2.516 3.918-7.223 1.402-10.514z"/></g></g></svg>