<svg id="Capa_1" enable-background="new 0 0 512.235 512.235" height="512" viewBox="0 0 512.235 512.235" width="512" xmlns="http://www.w3.org/2000/svg"><g><g><path d="m465.507 207.825c0 110.958-89.949 200.906-200.906 200.906s-200.907-87.948-200.907-198.906 89.949-202.906 200.906-202.906 200.907 89.949 200.907 200.906z" fill="#fe76a8"/><path d="m133.906 204.532c0-93.804 64.29-174.017 151.21-196.578-6.746-.684-13.59-1.035-20.516-1.035-110.958 0-200.906 91.949-200.906 202.906s89.949 198.907 200.906 198.907c17.268 0 34.027-2.181 50.017-6.278-101.474-9.912-180.711-93.781-180.711-197.922z" fill="#fe5694"/><g><path d="m377.095 368.721h-224.322c-10.42 0-18.867 8.447-18.867 18.867v35.143h262.057v-35.143c0-10.42-8.448-18.867-18.868-18.867z" fill="#cbc4cc"/><path d="m221.041 368.721h-68.268c-10.42 0-18.867 8.447-18.867 18.867v35.143h68.268v-35.143c0-10.42 8.447-18.867 18.867-18.867z" fill="#b5adb6"/><path d="m406.264 407.732h-282.66c-6.164 0-11.16 4.997-11.16 11.16v42.571h304.981v-42.571c-.001-6.164-4.997-11.16-11.161-11.16z" fill="#b5adb6"/><path d="m173.613 454.355v-42.571c0-1.431.279-2.794.77-4.052h-50.779c-6.164 0-11.16 4.997-11.16 11.16v42.571h304.981v-7.108z" fill="#a79ba7"/><path d="m422.254 445.463h-314.639c-9.94 0-17.998 8.058-17.998 17.998v31.539c0 5.376 4.358 9.734 9.734 9.734h331.166c5.376 0 9.734-4.358 9.734-9.734v-31.54c0-9.939-8.058-17.997-17.997-17.997z" fill="#a79ba7"/><path d="m176.042 483.991c-10.862 0-19.668-8.806-19.668-19.668v-18.86h-48.759c-9.94 0-17.998 8.058-17.998 17.998v31.539c0 5.376 4.358 9.734 9.734 9.734h331.165c5.376 0 9.734-4.358 9.734-9.734v-11.01h-264.208z" fill="#918291"/><g fill="#fee45a"><path d="m107.301 163.998c-9.192-5.366-16.441-12.4-21.667-21.167-2.947-4.944-10.121-4.917-13.072.025-5.156 8.636-12.335 15.668-21.563 21.075-5.033 2.949-5.11 10.215-.076 13.164 8.772 5.137 16.008 12.263 21.509 21.636 2.933 4.996 10.191 5.105 13.121.107 5.276-9.001 12.515-16.208 21.738-21.599 5.093-2.978 5.104-10.267.01-13.241z"/><path d="m376.188 264.508c-8.166-4.767-14.606-11.016-19.249-18.805-2.619-4.392-8.992-4.368-11.613.022-4.58 7.672-10.958 13.919-19.156 18.723-4.471 2.62-4.539 9.075-.067 11.694 7.793 4.564 14.221 10.895 19.109 19.221 2.605 4.439 9.054 4.535 11.656.095 4.687-7.997 11.118-14.399 19.312-19.188 4.524-2.644 4.534-9.12.008-11.762z"/></g></g></g><g><path d="m65.261 222.738c-4.116.462-7.078 4.174-6.616 8.291 1.271 11.31 3.504 22.622 6.641 33.621.939 3.296 3.943 5.446 7.208 5.446.681 0 1.373-.093 2.06-.29 3.983-1.135 6.292-5.285 5.156-9.269-2.909-10.204-4.981-20.695-6.159-31.183-.462-4.116-4.176-7.073-8.29-6.616z"/><path d="m424.924 438.103v-19.212c0-10.289-8.371-18.66-18.66-18.66h-2.802v-12.644c0-7.307-2.989-13.928-7.807-18.708 22.058-17.923 40.449-40.384 53.542-65.525 15.278-29.338 23.353-62.444 23.353-95.739 0-114.479-93.136-207.615-207.616-207.615-75.419 0-145.025 41.017-181.656 107.043-2.01 3.622-.703 8.188 2.919 10.197 3.623 2.011 8.188.703 10.197-2.919 33.988-61.263 98.569-99.321 168.54-99.321 106.208 0 192.616 86.407 192.616 192.616 0 30.893-7.489 61.603-21.657 88.811-13.208 25.365-32.235 47.785-55.127 65.056-1.201-.168-2.425-.261-3.671-.261h-130.764c-4.142 0-7.5 3.358-7.5 7.5s3.358 7.5 7.5 7.5h130.765c6.268 0 11.367 5.099 11.367 11.367v12.644h-247.057v-12.644c0-6.268 5.099-11.367 11.367-11.367h61.595c4.142 0 7.5-3.358 7.5-7.5s-3.358-7.5-7.5-7.5h-61.595c-1.244 0-2.466.093-3.665.26-25.054-18.897-45.287-43.761-58.603-72.132-1.76-3.75-6.227-5.362-9.976-3.603-3.75 1.76-5.363 6.227-3.603 9.976 13.298 28.333 32.996 53.419 57.293 73.152-4.822 4.781-7.813 11.404-7.813 18.714v12.644h-2.802c-10.289 0-18.66 8.371-18.66 18.66v19.212c-12.809 1.34-22.827 12.2-22.827 25.358v41.274c0 4.142 3.358 7.5 7.5 7.5h350.635c4.142 0 7.5-3.358 7.5-7.5v-41.274c-.001-13.16-10.019-24.02-22.828-25.36zm7.827 59.132h-335.634v-33.774c0-5.789 4.709-10.498 10.498-10.498h233.987c4.142 0 7.5-3.358 7.5-7.5s-3.358-7.5-7.5-7.5h-221.658v-19.071c0-2.018 1.642-3.66 3.66-3.66h282.66c2.018 0 3.66 1.642 3.66 3.66v19.071h-36.36c-4.142 0-7.5 3.358-7.5 7.5s3.358 7.5 7.5 7.5h48.689c5.789 0 10.498 4.709 10.498 10.498z"/><path d="m65.964 202.526c2.759 4.7 7.66 7.506 13.112 7.505h.004c5.388-.001 10.227-2.769 12.943-7.402 4.668-7.963 10.9-14.151 19.052-18.916 4.723-2.761 7.542-7.661 7.541-13.108-.001-5.439-2.818-10.331-7.534-13.084-8.101-4.729-14.496-10.964-19.006-18.531-2.744-4.604-7.586-7.353-12.952-7.355-.002 0-.003 0-.005 0-5.381 0-10.24 2.757-12.997 7.375-4.488 7.517-10.852 13.724-18.915 18.449-4.71 2.76-7.522 7.662-7.522 13.113.001 5.405 2.785 10.263 7.448 12.993 7.897 4.626 14.057 10.829 18.831 18.961zm-11.173-32.124c10.268-6.017 18.413-13.991 24.244-23.751.013-.007.036-.012.061-.012.034 0 .072.009.096.033 5.825 9.771 14.01 17.78 24.328 23.804.055.032.08.056.084.061.049.084.016.161-.097.227-10.287 6.013-18.504 14.182-24.377 24.263-.024.008-.15.042-.229-.093-6.021-10.259-14.159-18.438-24.208-24.306-.025-.063-.027-.153.098-.226z"/><path d="m338.743 299.16c2.603 4.435 7.227 7.081 12.371 7.081h.004c5.087-.001 9.655-2.614 12.22-6.99 4.073-6.948 9.511-12.347 16.626-16.505 4.456-2.605 7.115-7.229 7.114-12.369-.001-5.133-2.659-9.749-7.108-12.347-7.171-4.187-12.597-9.475-16.588-16.168-2.59-4.346-7.16-6.941-12.225-6.942-.002 0-.003 0-.005 0-5.078 0-9.663 2.602-12.265 6.96-3.97 6.648-9.37 11.914-16.508 16.097-4.444 2.604-7.097 7.229-7.096 12.372 0 5.103 2.628 9.688 7.03 12.266 6.889 4.034 12.263 9.447 16.43 16.545zm12.396-48.564c5.005 8.014 11.813 14.664 20.264 19.791-8.424 5.125-15.256 11.899-20.334 20.161-5.135-8.398-11.888-15.195-20.099-20.231 8.412-5.125 15.188-11.751 20.169-19.721z"/></g></g></svg>