<svg id="Capa_1" enable-background="new 0 0 512.252 512.252" height="512" viewBox="0 0 512.252 512.252" width="512" xmlns="http://www.w3.org/2000/svg"><g><g><g><path d="m494.452 448.019c5.688 0 10.3 4.611 10.3 10.3v12.033c0 5.688-4.611 10.3-10.3 10.3h-476.652c-5.688 0-10.3-4.611-10.3-10.3v-12.033c0-5.688 4.611-10.3 10.3-10.3z" fill="#d1a08f"/></g><g><path d="m494.452 64.233c5.688 0 10.3-4.611 10.3-10.3v-12.033c0-5.688-4.611-10.3-10.3-10.3h-476.652c-5.688 0-10.3 4.611-10.3 10.3v12.033c0 5.688 4.611 10.3 10.3 10.3z" fill="#d1a08f"/></g><g><path d="m438.398 424.178v-217.999c0-1.323-.574-2.581-1.572-3.448l-9.958-8.651c-2-1.737-2.107-4.805-.234-6.678l8.463-8.463c.857-.857 1.338-2.018 1.338-3.23v-87.635l-.58-60.42h-360.036v60.42 68.189c0 1.065.423 2.086 1.176 2.839l8.01 8.01c1.568 1.568 1.568 4.11 0 5.678l-10.445 10.445c-.753.753-1.176 1.774-1.176 2.839v79.044 85.359c0 1.065.423 2.086 1.176 2.839l10.896 10.896c1.325 1.325 1.557 3.39.56 4.976l-12.016 19.113c-.402.64-.616 1.381-.616 2.137v33.74 59.319h365.013v-59.319z" fill="#cb97e7"/></g><g><path d="m436.434 404.178h-255.887c-23.593 0-42.719-19.126-42.719-42.719v-209.918c0-24.006 19.461-43.467 43.467-43.467h255.139v-20l-.58-60.42h-298.026-62.009v60.42 68.188c0 1.065.423 2.086 1.176 2.839l8.011 8.011c1.568 1.568 1.568 4.11 0 5.678l-10.446 10.445c-.753.753-1.176 1.774-1.176 2.839v79.044 85.359c0 1.065.423 2.086 1.176 2.839l10.896 10.896c1.325 1.325 1.557 3.39.56 4.976l-12.016 19.113c-.402.64-.616 1.381-.616 2.137v33.74 59.319h365.013v-18.4-40.919-19.95c-.65-.031-1.305-.05-1.963-.05z" fill="#bd80e1"/><circle cx="255.089" cy="257.12" fill="#f4eafa" r="141.726"/><path d="m137.828 336.735v-159.231c-15.438 22.694-24.465 50.1-24.465 79.616s9.027 56.922 24.465 79.615z" fill="#ebd5f6"/><circle cx="255.089" cy="257.12" fill="#ebd5f6" r="109.726"/><path d="m436.433 7.759h-360.614c-11.516 0-20.851 9.335-20.851 20.851v38.613c0 1.08.107 2.132.266 3.167l41.194-5.044 50.13 20.95 1.018 1.779h288.859c11.516 0 20.851-9.336 20.851-20.851v-38.614c-.001-11.516-9.337-20.851-20.853-20.851z" fill="#cb97e7"/><path d="m139.048 67.223v-38.613c0-11.516 9.335-20.851 20.851-20.851h-84.08c-11.516 0-20.851 9.335-20.851 20.851v38.613c0 11.516 9.335 20.851 20.851 20.851h84.081c-11.517 0-20.852-9.335-20.852-20.851z" fill="#bd80e1"/><path d="m436.433 424.178h-287.722l-.38 1.41-74.948 10.375-15.686-1.226c-1.73 3.039-2.731 6.546-2.731 10.292v38.613c0 11.516 9.335 20.851 20.851 20.851h360.615c11.516 0 20.851-9.336 20.851-20.851v-38.613c.002-11.516-9.334-20.851-20.85-20.851z" fill="#cb97e7"/><path d="m139.048 483.642v-38.613c0-11.516 9.335-20.851 20.851-20.851h-84.08c-11.516 0-20.851 9.335-20.851 20.851v38.613c0 11.516 9.335 20.851 20.851 20.851h84.081c-11.517 0-20.852-9.335-20.852-20.851z" fill="#bd80e1"/><g><path d="m258.163 404.178h-4.074c.679.009 1.356.026 2.037.026s1.358-.017 2.037-.026z" fill="#b5adb6"/></g></g></g><g><path d="m443.934 175.709v-81.149c10.59-2.909 18.72-11.816 20.488-22.827h30.031c9.814 0 17.8-7.985 17.8-17.799v-12.034c0-9.815-7.985-17.8-17.8-17.8h-30.031c-2.167-13.497-13.89-23.841-27.988-23.841h-360.616c-14.098 0-25.821 10.345-27.988 23.841h-30.03c-9.815 0-17.8 7.985-17.8 17.8v12.033c0 9.814 7.985 17.799 17.8 17.799h30.031c1.768 11.011 9.897 19.918 20.488 22.827v61.703c0 3.076 1.197 5.967 3.372 8.142l5.547 5.546-7.98 7.98c-2.175 2.175-3.372 5.066-3.372 8.142v164.403c0 3.076 1.197 5.968 3.373 8.143l8.93 8.93-10.539 16.762c-1.155 1.837-1.766 3.957-1.766 6.128v28.041c-9.388 3.524-16.425 11.889-18.054 22.041h-30.03c-9.814 0-17.8 7.985-17.8 17.799v12.033c0 9.815 7.985 17.8 17.8 17.8h30.031c2.167 13.497 13.89 23.841 27.988 23.841h360.615c14.098 0 25.821-10.345 27.988-23.841h30.031c9.814 0 17.8-7.985 17.8-17.8v-12.033c0-9.814-7.985-17.799-17.8-17.799h-30.031c-1.657-10.32-8.902-18.793-18.524-22.212v-212.129c0-3.497-1.515-6.818-4.153-9.11l-7.584-6.588 6.239-6.239c2.279-2.279 3.534-5.309 3.534-8.533zm53.318-133.809v12.033c0 1.543-1.256 2.799-2.8 2.799h-29.668v-17.632h29.668c1.544 0 2.8 1.256 2.8 2.8zm-482.252 12.033v-12.033c0-1.544 1.256-2.8 2.8-2.8h29.668v17.632h-29.668c-1.544 0-2.8-1.255-2.8-2.799zm47.468 13.29v-38.613c0-7.362 5.989-13.351 13.351-13.351h360.615c7.361 0 13.351 5.989 13.351 13.351v38.613c0 7.362-5.989 13.352-13.351 13.352h-360.616c-7.361-.001-13.35-5.991-13.35-13.352zm-47.468 403.129v-12.033c0-1.543 1.256-2.799 2.8-2.799h29.668v17.632h-29.668c-1.544 0-2.8-1.256-2.8-2.8zm482.252-12.033v12.033c0 1.544-1.256 2.8-2.8 2.8h-29.668v-17.632h29.668c1.544 0 2.8 1.255 2.8 2.799zm-47.468 25.323c0 7.362-5.989 13.351-13.351 13.351h-360.615c-7.361 0-13.351-5.989-13.351-13.351v-38.613c0-7.362 5.989-13.352 13.351-13.352h59.947c4.143 0 7.5-3.358 7.5-7.5s-3.357-7.5-7.5-7.5h-54.88v-25.237l11.481-18.261c2.878-4.578 2.218-10.446-1.606-14.271l-9.875-9.875v-161.516l9.423-9.423c2.176-2.175 3.374-5.067 3.374-8.143s-1.198-5.968-3.373-8.142l-6.99-6.99v-59.245h345.615v78.92l-7.604 7.604c-2.358 2.358-3.644 5.623-3.527 8.957.117 3.333 1.629 6.5 4.146 8.688l8.949 7.773v209.162h-263.17c-4.143 0-7.5 3.358-7.5 7.5s3.357 7.5 7.5 7.5h268.706c7.361 0 13.351 5.99 13.351 13.352v38.612z"/><path d="m342.239 376.36c3.356-2.428 4.109-7.117 1.681-10.473-2.427-3.356-7.117-4.108-10.472-1.681-22.606 16.354-49.344 24.998-77.322 24.998-72.828 0-132.078-59.25-132.078-132.078s59.25-132.078 132.078-132.078 132.078 59.25 132.078 132.078c0 31.798-11.462 62.521-32.274 86.51-2.715 3.129-2.379 7.866.75 10.58 3.13 2.714 7.866 2.378 10.58-.75 23.179-26.717 35.944-60.931 35.944-96.34 0-81.099-65.979-147.078-147.078-147.078s-147.078 65.979-147.078 147.078 65.979 147.078 147.078 147.078c31.156 0 60.934-9.628 86.113-27.844z"/><path d="m178.894 179.117c-3.107-2.74-7.848-2.442-10.585.666-18.869 21.399-29.261 48.867-29.261 77.343 0 64.557 52.521 117.078 117.078 117.078s117.078-52.521 117.078-117.078-52.521-117.078-117.078-117.078c-21.839 0-43.168 6.088-61.68 17.606-3.518 2.188-4.595 6.813-2.406 10.33 2.188 3.518 6.814 4.594 10.33 2.406 16.132-10.037 34.721-15.342 53.756-15.342 56.286 0 102.078 45.792 102.078 102.078s-45.792 102.078-102.078 102.078-102.078-45.792-102.078-102.078c0-24.821 9.061-48.766 25.512-67.423 2.739-3.107 2.441-7.847-.666-10.586z"/><path d="m332.711 215.294c-2.191-3.938-6.353-6.383-10.858-6.383h-37.114l-18.05-29.119c-2.282-3.682-6.231-5.88-10.563-5.88s-8.281 2.198-10.563 5.88l-18.05 29.119h-37.113c-4.506 0-8.667 2.446-10.858 6.383-2.192 3.938-2.079 8.763.295 12.593l17.957 28.97-17.957 28.97c-2.374 3.831-2.487 8.656-.295 12.593 2.191 3.938 6.353 6.383 10.858 6.383h37.114l18.05 29.119c2.282 3.683 6.231 5.881 10.563 5.881 4.333 0 8.281-2.199 10.563-5.881l18.05-29.119h37.113c4.506 0 8.667-2.446 10.858-6.383 2.192-3.938 2.079-8.763-.295-12.593l-17.957-28.97 17.957-28.97c2.374-3.83 2.487-8.655.295-12.593zm-76.585-24.072 10.965 17.689h-21.93zm20.263 32.689 20.422 32.946-20.422 32.946h-40.525l-20.422-32.946 20.422-32.946zm-81.369 0h23.195l-11.598 18.71zm0 65.893 11.598-18.711 11.598 18.711zm61.106 32.689-10.965-17.689h21.93zm61.106-32.689h-23.195l11.598-18.71zm-11.597-47.182-11.598-18.711h23.196z"/></g></g></svg>