<svg id="Capa_1" enable-background="new 0 0 512.044 512.044" height="512" viewBox="0 0 512.044 512.044" width="512" xmlns="http://www.w3.org/2000/svg"><g><g><circle cx="262.117" cy="154.233" fill="#f4eafa" r="148.254"/><path d="m295.624 263.422v65.521c0 6.118 1.026 12.192 3.035 17.97l1.598 4.595c5.959 17.136 3.087 36.107-7.675 50.712l-16.687 22.644c-8.579 11.641-13.206 25.722-13.206 40.183v32.915c0 3.635-2.947 6.581-6.581 6.581h-25.345c-3.635 0-6.581-2.947-6.581-6.581v-33.877c0-11.475 1.755-22.883 5.205-33.827 8.78-27.853 7.537-57.901-3.512-84.934l-1.783-4.361c-3.448-8.435-5.221-17.46-5.221-26.573v-54.863-36.273h77.158z" fill="#d1a08f"/><path d="m238.87 223.255h-20v36.273 54.863c0 9.112 1.773 18.137 5.221 26.572l1.783 4.361c11.05 27.033 12.292 57.081 3.512 84.934-3.45 10.944-5.205 22.352-5.205 33.827v33.877c0 3.635 2.947 6.581 6.581 6.581h20.196c-.408-.856-.643-1.811-.643-2.822v-33.877c0-11.475 1.755-22.883 5.205-33.827 8.78-27.853 7.537-57.901-3.512-84.934l-1.783-4.361c-3.448-8.435-5.221-17.46-5.221-26.572v-19.106c0-8.761 7.156-15.841 15.916-15.722.565.008 1.13.011 1.696.011 11.209 0 22.299-1.484 33.008-4.342v-15.57l.404-40.167h-57.158z" fill="#c68d7a"/><path d="m322.957 209.404-26.36-23.71h-43.1-28.17l-23.11 23.95c-14.56 10.81-13.58 32.96 1.92 42.37 17.08 10.35 37.09 16.32 58.48 16.32 21.47 0 41.56-6.01 58.68-16.45 15.55-9.48 16.39-31.77 1.66-42.48z" fill="#bc7c63"/><path d="m329.445 216.249c-1.654-2.566-3.81-4.898-6.488-6.845l-26.36-23.71h-43.1-3.312-24.858l-23.11 23.95c-14.56 10.81-13.58 32.96 1.92 42.37 17.08 10.35 37.09 16.32 58.48 16.32 5.545 0 11.021-.404 16.354-1.179-13.085-2.599-25.396-7.451-36.448-14.148-1.214-.737-2.337-1.552-3.372-2.433-3.12-2.66-.592-7.743 3.413-6.866 6.301 1.38 12.842 2.11 19.552 2.11 26.599-.001 50.581-11.402 67.329-29.569z" fill="#aa6a51"/><circle cx="262.117" cy="154.233" fill="#cb97e7" r="81.585"/><path d="m229.915 154.233c0-36.45 23.915-67.308 56.901-77.772-7.79-2.471-16.091-3.813-24.7-3.813-45.058 0-81.585 36.527-81.585 81.585s36.527 81.585 81.585 81.585c8.608 0 16.921-1.343 24.711-3.814-32.985-10.465-56.912-41.322-56.912-77.771z" fill="#bd80e1"/><g fill="#fee45a"><path d="m339.423 97.879c-5.391-3.147-9.641-7.272-12.706-12.413-1.728-2.899-5.935-2.884-7.666.015-3.024 5.064-7.233 9.188-12.645 12.359-2.952 1.73-2.996 5.991-.044 7.72 5.144 3.013 9.388 7.192 12.614 12.688 1.72 2.93 5.976 2.994 7.695.063 3.094-5.279 7.339-9.505 12.748-12.666 2.985-1.747 2.991-6.021.004-7.766z"/><path d="m136.927 187.77c-5.391-3.147-9.641-7.272-12.706-12.413-1.729-2.899-5.935-2.884-7.666.015-3.024 5.064-7.233 9.188-12.645 12.359-2.952 1.73-2.997 5.991-.044 7.72 5.144 3.013 9.388 7.192 12.614 12.688 1.72 2.93 5.976 2.994 7.695.063 3.094-5.279 7.339-9.505 12.748-12.666 2.986-1.747 2.992-6.021.004-7.766z"/></g></g><g><path d="m350.335 142.971c-.57-4.103-4.359-6.964-8.461-6.396-4.103.57-6.967 4.358-6.396 8.461.48 3.455.724 6.893.724 10.218 0 40.575-33.01 73.584-73.584 73.584s-73.584-33.01-73.584-73.584c0-16.609 5.419-32.296 15.672-45.364 2.557-3.259 1.987-7.973-1.271-10.53-3.258-2.556-7.973-1.988-10.53 1.271-12.345 15.735-18.87 34.623-18.87 54.623 0 20.147 6.766 38.742 18.138 53.641-5.312 6.301-8.149 14.42-7.755 22.854.515 10.999 6.434 20.97 15.834 26.673 3.609 2.19 7.322 4.176 11.12 5.964v50.005c0 10.134 1.944 20.029 5.779 29.41l1.782 4.361c2.8 6.85 4.963 14.022 6.43 21.318.716 3.562 3.846 6.023 7.345 6.023.49 0 .987-.048 1.486-.148 4.061-.816 6.691-4.77 5.875-8.831-1.653-8.224-4.093-16.311-7.251-24.037l-1.782-4.361c-3.095-7.571-4.664-15.556-4.664-23.734v-44.134c11.663 3.681 23.883 5.58 36.247 5.58 8.621 0 17.168-.935 25.507-2.741v55.846c0 6.971 1.161 13.846 3.451 20.434l1.598 4.595c5.148 14.806 2.67 31.18-6.629 43.8l-16.687 22.644c-9.597 13.023-14.669 28.457-14.669 44.632v39.496c0 4.142 3.358 7.5 7.5 7.5s7.5-3.358 7.5-7.5v-39.496c0-12.951 4.061-25.308 11.744-35.734l16.687-22.644c12.235-16.603 15.495-38.145 8.722-57.625l-1.598-4.594c-1.738-5-2.619-10.217-2.619-15.507v-60.12c7.666-2.739 15.064-6.259 22.072-10.531 9.427-5.747 15.324-15.774 15.774-26.823.343-8.4-2.497-16.467-7.791-22.724 11.303-14.874 18.023-33.411 18.023-53.491-.003-4.015-.294-8.148-.869-12.284zm-24.352 87.886c-.25 6.118-3.382 11.449-8.594 14.627-16.478 10.044-35.417 15.354-54.771 15.354-19.278 0-38.154-5.27-54.585-15.24-5.201-3.155-8.347-8.459-8.632-14.55-.186-3.982.878-7.742 2.994-10.893 15.817 14.687 36.987 23.684 60.223 23.684 23.297 0 44.518-9.045 60.349-23.801 2.106 3.124 3.177 6.856 3.016 10.819z"/><path d="m223.107 91.955c1.239 0 2.496-.308 3.654-.956 10.913-6.104 23.312-9.33 35.855-9.33 6.683 0 13.356.917 19.834 2.728 3.992 1.115 8.127-1.216 9.242-5.206 1.114-3.99-1.216-8.127-5.206-9.242-7.792-2.177-15.824-3.28-23.871-3.28-15.102 0-30.032 3.886-43.178 11.239-3.615 2.022-4.907 6.592-2.885 10.207 1.377 2.456 3.927 3.84 6.555 3.84z"/><path d="m349.188 26.362c-25.63-17.246-55.566-26.362-86.571-26.362s-60.941 9.116-86.571 26.362c-3.437 2.313-4.348 6.973-2.036 10.41 2.313 3.437 6.973 4.348 10.41 2.036 23.146-15.576 50.186-23.808 78.197-23.808s55.051 8.232 78.197 23.807c1.285.864 2.74 1.278 4.18 1.278 2.412 0 4.781-1.162 6.229-3.314 2.312-3.436 1.401-8.097-2.035-10.409z"/><path d="m386.504 61.681c-2.499-3.303-7.203-3.957-10.506-1.457-3.304 2.499-3.956 7.203-1.457 10.506 18.533 24.5 28.329 53.729 28.329 84.524 0 37.359-14.522 72.512-40.892 98.982-2.923 2.934-2.914 7.683.021 10.606 1.463 1.458 3.378 2.187 5.293 2.187 1.924 0 3.848-.736 5.313-2.207 29.189-29.301 45.265-68.212 45.265-109.568 0-34.089-10.846-66.446-31.366-93.573z"/><path d="m114.739 151.063c.199.016.396.023.593.023 3.877 0 7.162-2.985 7.469-6.916 2.085-26.68 11.73-52.076 27.892-73.441 2.499-3.303 1.847-8.007-1.457-10.506-3.302-2.498-8.007-1.846-10.506 1.457-17.895 23.656-28.574 51.776-30.883 81.321-.323 4.13 2.763 7.739 6.892 8.062z"/><path d="m144.68 231.177c-2.246-3.482-6.889-4.482-10.368-2.236-3.48 2.246-4.482 6.888-2.236 10.368 5.929 9.19 12.844 17.774 20.553 25.512 1.465 1.471 3.389 2.207 5.313 2.207 1.915 0 3.83-.729 5.293-2.187 2.935-2.923 2.944-7.672.021-10.606-6.967-6.993-13.217-14.751-18.576-23.058z"/><path d="m312.507 122.044c2.148 3.66 6.119 5.933 10.364 5.933h.004c4.272-.001 8.109-2.197 10.265-5.874 2.462-4.199 5.753-7.465 10.062-9.984 3.732-2.181 5.96-6.056 5.959-10.366-.001-4.305-2.228-8.174-5.957-10.351-4.352-2.541-7.638-5.739-10.045-9.776-2.174-3.647-6.009-5.826-10.258-5.827-.001 0-.003 0-.004 0-4.258 0-8.103 2.182-10.285 5.836-2.395 4.011-5.666 7.195-9.998 9.733-3.723 2.182-5.945 6.057-5.945 10.367.001 4.283 2.207 8.132 5.901 10.295 4.162 2.439 7.412 5.714 9.937 10.014zm10.38-28.865c2.467 3.246 5.407 6.118 8.791 8.587-3.385 2.492-6.336 5.418-8.827 8.751-2.488-3.374-5.401-6.312-8.715-8.788 3.369-2.462 6.294-5.321 8.751-8.55z"/><path d="m140.707 202.01c3.732-2.182 5.959-6.057 5.958-10.366-.001-4.305-2.229-8.174-5.957-10.35-4.353-2.541-7.639-5.739-10.046-9.777-2.174-3.647-6.009-5.825-10.258-5.826-.002 0-.003 0-.005 0-4.258 0-8.102 2.181-10.285 5.837-2.394 4.01-5.664 7.194-9.998 9.733-3.723 2.182-5.944 6.058-5.944 10.367.001 4.283 2.207 8.131 5.901 10.295 4.162 2.438 7.412 5.713 9.937 10.013 2.148 3.66 6.119 5.933 10.364 5.933h.004c4.272-.001 8.109-2.197 10.265-5.875 2.463-4.2 5.754-7.465 10.064-9.984zm-20.351-1.601c-2.488-3.374-5.402-6.312-8.715-8.788 3.369-2.463 6.295-5.322 8.75-8.551 2.467 3.247 5.407 6.118 8.792 8.588-3.385 2.491-6.337 5.417-8.827 8.751z"/><path d="m235.39 392.477c-4.149-.243-7.683 2.914-7.925 7.049-.566 9.68-2.327 19.261-5.231 28.478-3.685 11.687-5.553 23.827-5.553 36.082v40.458c0 4.142 3.358 7.5 7.5 7.5s7.5-3.358 7.5-7.5v-40.458c0-10.723 1.635-21.346 4.859-31.572 3.276-10.395 5.261-21.198 5.9-32.111.241-4.135-2.914-7.684-7.05-7.926z"/></g></g></svg>