<svg id="Capa_1" enable-background="new 0 0 512.044 512.044" height="512" viewBox="0 0 512.044 512.044" width="512" xmlns="http://www.w3.org/2000/svg"><g><g><path d="m406.212 294.264-95.63-78.15c-3.2-2.61-5.06-6.53-5.06-10.66v-71.69l.05-31.44h-99.05v31.44 71.69c0 4.13-1.86 8.05-5.06 10.66l-95.63 78.15c-12.34 10.08-21.89 21.58-28.88 33.89l172.618 104.43 159.231-15.549 39.951-48.951c-3.92-27.04-17.49-53.35-42.54-73.82z" fill="#f2fbff"/><path d="m293.764 7.5h-75.485c-15.399 0-26.605 14.61-22.614 29.482l14.575 54.308 11.568 31.108h71.286l8.71-31.108 14.574-54.308c3.991-14.872-7.215-29.482-22.614-29.482z" fill="#bc7c63"/><g><path d="m307.129 71.29h-46.888c-12.343 0-23.149-8.288-26.348-20.21l-3.783-14.098c-3.991-14.872 7.215-29.482 22.614-29.482h-34.444c-15.399 0-26.605 14.61-22.614 29.482l14.574 54.308 11.568 31.108h16.488 17.956 36.842l8.71-31.108 5.356-19.959c-.012-.017-.018-.024-.031-.041z" fill="#aa6a51"/><path d="m206.522 102.324v31.44 71.69c0 4.13-1.86 8.05-5.06 10.66l-95.63 78.15c-12.34 10.08-21.89 21.58-28.88 33.89l47.454 28.708c.674-1.301 1.368-2.596 2.097-3.88 6.99-12.31 16.54-23.81 28.88-33.89l95.63-78.15c3.2-2.61 5.06-6.53 5.06-10.66v-58.538c0-9.928 8.049-17.977 17.977-17.977h31.472v-20.003l.05-31.44z" fill="#dff6fd"/><path d="m307.129 133.767h-101.214c-9.478 0-17.161-7.683-17.161-17.161v-8.156c0-9.478 7.683-17.161 17.161-17.161h101.215c9.478 0 17.161 7.683 17.161 17.161v8.156c-.001 9.478-7.684 17.161-17.162 17.161z" fill="#f2fbff"/><g id="XMLID_174_"><g><path d="m448.752 368.084c9.59 66.07-38.48 136.46-117.54 136.46h-150.38c-95.48 0-145.75-102.66-103.88-176.39h.01l36.8-15.25c36.32-15.05 77.43-13.34 112.37 4.69l99.02 51.08c38.82 20.02 84.97 19.8 123.6-.59z" fill="#fe76a8"/></g></g><g fill="#fe5694"><circle cx="198.002" cy="442.786" r="15.965"/><circle cx="324.3" cy="435.728" r="21.074"/></g></g><g fill="#fe5694"><path d="m126.503 352.983c6.99-12.31 16.54-23.81 28.88-33.89l19.562-15.986c-20.639-1.555-41.611 1.688-61.183 9.798l-36.81 15.25c-37.661 66.319-.741 156.046 76.541 173.414-41.447-35.626-55.305-98.726-26.99-148.586z"/><circle cx="138.681" cy="383.534" r="26.097"/></g></g><g><path d="m453.832 355.055c-6.434-25.903-21.26-48.933-42.876-66.598l-95.628-78.149c-1.462-1.195-2.301-2.963-2.301-4.852v-64.906c10.759-2.651 18.763-12.377 18.763-23.943v-8.156c0-12.114-8.782-22.208-20.313-24.269l12.145-45.255c2.512-9.36.57-19.138-5.328-26.827s-14.839-12.1-24.529-12.1h-75.485c-9.691 0-18.631 4.41-24.529 12.1s-7.84 17.467-5.328 26.827l12.195 45.443c-11.06 2.431-19.363 12.302-19.363 24.082v8.156c0 11.204 7.513 20.68 17.763 23.672v65.177c0 1.888-.838 3.656-2.301 4.851l-48.469 39.61c-3.207 2.622-3.683 7.346-1.062 10.554 1.483 1.814 3.639 2.754 5.812 2.754 1.669 0 3.349-.554 4.742-1.692l48.469-39.611c4.962-4.056 7.809-10.057 7.809-16.466v-64.188h84.01v64.188c0 6.409 2.846 12.41 7.809 16.466l95.628 78.15c19.089 15.6 32.164 35.863 37.811 58.599.424 1.709.791 3.428 1.131 5.152-4.8 2.279-9.765 4.299-14.861 5.965-31.85 10.408-67.189 7.571-96.953-7.783l-4.825-2.489c-3.682-1.899-8.205-.453-10.104 3.228s-.454 8.205 3.228 10.104l4.825 2.489c20.077 10.356 42.417 15.623 64.805 15.623 14.752 0 29.526-2.288 43.683-6.914 4.118-1.346 8.17-2.888 12.131-4.597.742 14.68-1.451 29.555-6.558 43.874-7.541 21.144-20.751 39.22-38.204 52.274-18.759 14.031-41.706 21.448-66.358 21.448h-150.388c-24.652 0-47.599-7.417-66.358-21.448-17.453-13.054-30.663-31.13-38.204-52.274s-8.75-43.5-3.497-64.651c2.135-8.595 5.335-16.835 9.516-24.605l34.349-14.233c34.355-14.236 73.013-12.622 106.062 4.426l64.741 33.396c1.1.567 2.274.836 3.432.836 2.717 0 5.34-1.482 6.672-4.063 1.899-3.682.454-8.205-3.227-10.104l-64.741-33.396c-36.982-19.076-80.239-20.881-118.681-4.952l-11.876 4.921c3.567-3.809 7.414-7.433 11.563-10.824l22.285-18.212c3.207-2.621 3.683-7.346 1.062-10.554-2.621-3.207-7.347-3.682-10.554-1.062l-22.285 18.212c-21.616 17.666-36.442 40.695-42.876 66.598-5.967 24.025-4.609 49.374 3.926 73.306 8.536 23.932 23.525 44.419 43.348 59.247 21.373 15.986 47.426 24.436 75.342 24.436h150.388c27.917 0 53.969-8.45 75.342-24.436 19.823-14.827 34.813-35.314 43.348-59.247 8.536-23.934 9.894-49.283 3.927-73.308zm-257.578-246.604c0-5.327 4.334-9.661 9.661-9.661h45.632c4.142 0 7.5-3.358 7.5-7.5s-3.358-7.5-7.5-7.5h-35.554l-13.083-48.751c-1.293-4.818-.293-9.852 2.742-13.81 3.036-3.959 7.639-6.229 12.627-6.229h75.485c4.988 0 9.591 2.27 12.627 6.228s4.036 8.992 2.743 13.811l-13.082 48.751h-12.511c-4.142 0-7.5 3.358-7.5 7.5s3.358 7.5 7.5 7.5h23.589c5.327 0 9.661 4.333 9.661 9.661v8.156c0 5.327-4.334 9.661-9.661 9.661h-101.215c-5.327 0-9.661-4.333-9.661-9.661z"/><path d="m174.537 442.786c0 12.939 10.526 23.465 23.465 23.465s23.465-10.526 23.465-23.465c0-12.938-10.526-23.465-23.465-23.465s-23.465 10.527-23.465 23.465zm31.93 0c0 4.668-3.797 8.465-8.465 8.465s-8.465-3.797-8.465-8.465c0-4.667 3.797-8.465 8.465-8.465s8.465 3.798 8.465 8.465z"/><path d="m138.681 349.938c-18.525 0-33.597 15.071-33.597 33.597s15.071 33.597 33.597 33.597 33.597-15.072 33.597-33.597-15.071-33.597-33.597-33.597zm0 52.193c-10.254 0-18.597-8.343-18.597-18.597s8.342-18.597 18.597-18.597 18.597 8.342 18.597 18.597-8.342 18.597-18.597 18.597z"/><path d="m324.3 464.302c15.756 0 28.574-12.818 28.574-28.574s-12.818-28.574-28.574-28.574-28.574 12.818-28.574 28.574 12.818 28.574 28.574 28.574zm0-42.148c7.484 0 13.574 6.089 13.574 13.574s-6.089 13.574-13.574 13.574-13.574-6.089-13.574-13.574 6.09-13.574 13.574-13.574z"/></g></g></svg>