<svg id="Capa_1" enable-background="new 0 0 512.068 512.068" height="512" viewBox="0 0 512.068 512.068" width="512" xmlns="http://www.w3.org/2000/svg"><g><g><g><path d="m501.437 472.6c3.669 6.876-1.316 15.17-9.106 15.17h-472.595c-7.79 0-12.775-8.304-9.096-15.18l236.775-442.842c3.885-7.277 14.327-7.266 18.202.01z" fill="#fee97d"/></g><path d="m492.718 456.228h-388.322c-7.79 0-12.775-8.304-9.096-15.18l195.061-364.823-24.744-46.466c-3.875-7.277-14.317-7.287-18.202-.01l-236.775 442.84c-3.679 6.876 1.305 15.18 9.096 15.18h472.595c7.791 0 12.775-8.294 9.106-15.17z" fill="#fee45a"/><path d="m460.868 396.415 23.464 44.057h-456.518l23.607-44.154z" fill="#fee45a"/><path d="m119.207 396.334-67.786-.016-23.607 44.154h67.794z" fill="#fedf30"/><path d="m465.64 273.543c-14.876-17.836-68.824-78.084-139.676-105.521l-76.811 19.133-61.979-19.543c-71.387 27.237-125.798 88.003-140.747 105.93-2.444 2.931-2.446 7.194 0 10.134 19.476 23.33 105.921 119.364 209.612 119.364 103.681 0 190.125-96.034 209.601-119.364 2.446-2.939 2.444-7.202 0-10.133z" fill="#f2fbff"/><path d="m464.352 272.011c-38.092 36.656-104.204 87.168-179.395 87.168-101.584 0-186.608-92.174-208.334-117.856-14.431 13.889-24.845 25.807-30.196 32.22-2.446 2.929-2.446 7.194 0 10.134 19.476 23.33 105.921 119.364 209.612 119.364 103.681 0 190.125-96.034 209.601-119.364 2.446-2.939 2.446-7.205 0-10.134-.397-.475-.836-.998-1.288-1.532z" fill="#dff6fd"/><g><path d="m377.868 195.044c-15.863-10.361-33.297-19.818-51.891-27.024l-8.358 12.679-92.752 22.26-37.697-35.355c-18.629 7.115-36.105 16.506-52.023 26.827-.058 1.477-.092 2.971-.092 4.462 0 64.295 54.37 116.417 121.438 116.417s121.438-52.122 121.438-116.417c0-1.288-.019-2.571-.063-3.849z" fill="#99e6fc"/><path d="m187.165 167.61c-3.284 8.398-5.109 17.539-5.109 27.101 0 41.108 33.325 74.433 74.433 74.433s74.433-33.325 74.433-74.433c0-9.406-1.761-18.407-4.944-26.691-21.914-8.496-45.444-13.851-69.938-13.851-24.102 0-47.264 5.183-68.875 13.441z" fill="#a79ba7"/><circle cx="301.36" cy="224.017" fill="#f2fbff" r="29.307"/><g id="XMLID_195_"><g><path d="m288.69 73.078h-64.44l23.166-43.33c3.885-7.277 14.327-7.266 18.202.01z" fill="#fee97d"/></g></g></g></g><g><path d="m509.947 470.743-63.24-118.757c-1.948-3.656-6.488-5.044-10.146-3.094-3.656 1.947-5.041 6.489-3.095 10.145l16.529 31.04h-67.915c-4.143 0-7.5 3.358-7.5 7.5s3.357 7.5 7.5 7.5h75.903l15.612 29.316h-297.561c-4.142 0-7.5 3.358-7.5 7.5s3.358 7.5 7.5 7.5h305.549l15.124 28.401c.671 1.26.242 2.329-.073 2.854s-1.058 1.407-2.485 1.407h-476.228c-1.429 0-2.171-.883-2.486-1.409s-.744-1.597-.07-2.857l15.183-28.396h112.385c4.142 0 7.5-3.358 7.5-7.5s-3.358-7.5-7.5-7.5h-104.366l15.675-29.316h75.827c4.142 0 7.5-3.358 7.5-7.5s-3.358-7.5-7.5-7.5h-67.807l16.548-30.949c1.953-3.652.575-8.197-3.078-10.15-3.652-1.952-8.198-.576-10.15 3.078l-63.446 118.661c-2.994 5.6-2.832 12.194.432 17.641 3.264 5.446 9.003 8.698 15.353 8.698h476.228c6.344 0 12.08-3.247 15.346-8.685 3.263-5.439 3.433-12.028.452-17.628z"/><path d="m207.739 102.086c3.651 1.952 8.196.575 10.15-3.078l10.603-19.831h55.945l10.651 20c1.35 2.533 3.943 3.976 6.627 3.976 1.188 0 2.396-.284 3.519-.881 3.656-1.947 5.041-6.489 3.095-10.146l-36.014-67.628c-3.113-5.845-9.161-9.48-15.784-9.485-.005 0-.009 0-.014 0-6.617 0-12.664 3.624-15.784 9.46l-36.071 67.463c-1.953 3.653-.575 8.197 3.077 10.15zm46.221-70.541c.713-1.333 1.907-1.532 2.557-1.532h.002c.649.001 1.846.201 2.557 1.537l17.375 32.627h-39.938z"/><path d="m88.22 196.151c1.621 0 3.254-.523 4.627-1.602 54.702-42.955 109.606-64.735 163.187-64.735 49.472 0 100.376 18.786 151.298 55.836 3.825 2.784 7.668 5.694 11.749 8.898 3.258 2.558 7.972 1.991 10.53-1.267 2.559-3.258 1.991-7.973-1.267-10.531-4.227-3.318-8.213-6.337-12.188-9.229-53.54-38.956-107.413-58.708-160.124-58.708-31.335 0-63.503 7.111-95.611 21.135-25.776 11.259-51.628 27.005-76.84 46.802-3.258 2.559-3.825 7.273-1.267 10.531 1.483 1.886 3.683 2.87 5.906 2.87z"/><path d="m472.834 244.346c1.479 1.606 3.495 2.419 5.519 2.419 1.816 0 3.638-.656 5.079-1.983 3.047-2.806 3.242-7.551.436-10.598-6.172-6.702-12.727-13.414-19.483-19.948-2.979-2.88-7.726-2.8-10.605.177-2.879 2.978-2.8 7.726.178 10.605 6.547 6.336 12.898 12.838 18.876 19.328z"/><path d="m33.678 246.766c2.027 0 4.049-.817 5.528-2.429 5.981-6.517 12.311-13.019 18.815-19.322 2.975-2.883 3.049-7.631.166-10.605s-7.631-3.049-10.605-.166c-6.713 6.507-13.25 13.22-19.428 19.952-2.801 3.052-2.597 7.796.455 10.597 1.44 1.321 3.257 1.973 5.069 1.973z"/><path d="m39.059 288.689c9.937 11.908 37.151 42.588 75.132 70.224 48.116 35.01 95.838 52.761 141.842 52.761 41.211 0 84.024-14.357 127.249-42.674 3.465-2.27 4.434-6.918 2.163-10.383-2.27-3.465-6.919-4.434-10.384-2.164-40.74 26.689-80.787 40.221-119.028 40.221-42.766 0-87.52-16.786-133.017-49.89-36.626-26.649-62.861-56.226-72.441-67.706-.147-.176-.147-.422 0-.599 9.58-11.479 35.815-41.056 72.441-67.705 2.427-1.766 4.85-3.475 7.272-5.147 2.134 24.342 11.152 47.177 26.42 66.601 1.48 1.882 3.68 2.865 5.901 2.865 1.622 0 3.256-.524 4.63-1.604 3.257-2.56 3.821-7.275 1.262-10.531-15.142-19.263-23.295-42.337-23.682-66.83 11.144-6.866 22.231-12.741 33.241-17.609-1.052 5.163-1.593 10.436-1.593 15.791 0 43.834 35.661 79.495 79.495 79.495 15.627 0 30.651-4.511 43.636-13.066.698.039 1.401.064 2.109.064 20.419 0 37.031-16.612 37.031-37.032 0-6.207-1.542-12.058-4.253-17.202.635-4.075.973-8.185.973-12.259 0-5.376-.547-10.67-1.603-15.855 11.017 4.862 22.11 10.731 33.26 17.593-.934 60.505-50.428 109.442-111.152 109.442-23.551 0-46.057-7.275-65.084-21.039-3.356-2.429-8.045-1.675-10.472 1.681-2.428 3.356-1.675 8.044 1.681 10.472 21.602 15.626 47.147 23.886 73.875 23.886 65.795 0 119.976-50.623 125.672-114.963 2.47 1.704 4.942 3.447 7.416 5.247 36.626 26.65 62.86 56.226 72.44 67.706.146.176.146.422-.001.599-7.882 9.447-29.492 34.02-59.833 58.111-3.243 2.576-3.785 7.293-1.21 10.537 2.576 3.244 7.294 3.787 10.538 1.21 31.428-24.954 53.844-50.446 62.021-60.247 4.793-5.742 4.793-14.079.001-19.82-9.938-11.908-37.15-42.587-75.132-70.224-48.116-35.01-95.84-52.761-141.844-52.761s-93.727 17.751-141.842 52.761c-37.981 27.635-65.195 58.315-75.132 70.223-4.79 5.742-4.79 14.079.002 19.82zm262.65-42.886c-12.148 0-22.032-9.883-22.032-22.032s9.884-22.032 22.032-22.032 22.031 9.883 22.031 22.032-9.883 22.032-22.031 22.032zm14.603-74.258c2.459 6.501 3.821 13.299 4.085 20.276-5.49-3.224-11.875-5.081-18.688-5.081-20.42 0-37.032 16.612-37.032 37.032 0 12.48 6.212 23.53 15.7 30.243-7.687 3.155-15.94 4.791-24.412 4.791-35.563 0-64.495-28.933-64.495-64.495 0-7.832 1.39-15.456 4.126-22.71 20.488-7.123 40.676-10.715 60.438-10.715 19.711-.001 39.845 3.573 60.278 10.659z"/></g></g></svg>