<svg id="Capa_1" enable-background="new 0 0 511.931 511.931" height="512" viewBox="0 0 511.931 511.931" width="512" xmlns="http://www.w3.org/2000/svg"><g><g><path d="m371.101 392.866-3.841 47.338c-2.944 36.282-33.248 64.227-69.65 64.227h-83.289c-36.402 0-66.706-27.945-69.65-64.227l-3.841-47.338-5.836-84.648h245.284z" fill="#f4eafa"/><g id="XMLID_175_"><g><path d="m178.127 308.217h-4.378-38.756l5.836 84.648 3.841 47.338c2.944 36.282 33.248 64.227 69.65 64.227h43.133c-30.47 0-56.663-19.581-66.118-47.242-1.56-4.565 1.85-9.248 6.674-9.199.122.001.243.002.365.002h115.18c13.187 0 25.29-7.207 31.599-18.829l3.663-6.768c3.179-5.874 9.321-9.533 16-9.533h4.661l1.623-19.997 9.177-84.648h-202.15z" fill="#ebd5f6"/><path d="m431.306 225.672c20.59 17.1 33.89 42.73 34.29 71.34.74 52.81-41.85 95.85-94.49 95.85h-25.45c-2.21 0-4.25 1.22-5.31 3.17l-12.78 23.61c-2.79 5.14-8.16 8.35-14.01 8.35h-115.18c-5.85 0-11.22-3.21-14.01-8.35l-12.78-23.61c-1.06-1.95-3.1-3.17-5.31-3.17h-25.45c-52.64 0-95.23-43.04-94.49-95.85.4-28.62 13.7-54.25 34.29-71.34v-.01-42.82c0-48.42 19.62-92.26 51.36-123.98 31.72-31.74 75.56-51.36 123.98-51.36 96.84 0 175.34 78.5 175.34 175.34z" fill="#f4eafa"/><g><g><path d="m116.898 308.568c.4-28.62 13.7-54.25 34.29-71.34v-.01-42.82c0-48.42 19.62-92.26 51.36-123.98 30.09-30.109 71.103-49.305 116.57-51.199-19.592-7.565-40.892-11.716-63.152-11.716-48.42 0-92.26 19.62-123.98 51.36-31.74 31.72-51.36 75.56-51.36 123.98v42.82.01c-20.59 17.09-33.89 42.72-34.29 71.34-.74 52.81 41.85 95.85 94.49 95.85h25.245c-29.677-16.249-49.682-47.959-49.173-84.295z" fill="#ebd5f6"/></g></g></g></g><g><circle cx="140.83" cy="298.361" fill="#b5adb6" r="64.505"/><circle cx="371.101" cy="298.361" fill="#b5adb6" r="64.505"/><path d="m128.629 298.361c0-26.26 15.797-48.904 38.367-58.958-8-3.563-16.858-5.547-26.166-5.547-35.568 0-64.505 28.937-64.505 64.505s28.937 64.505 64.505 64.505c9.307 0 18.192-1.995 26.191-5.559-22.57-10.053-38.392-32.686-38.392-58.946z" fill="#a79ba7"/><path d="m358.9 298.361c0-26.26 15.809-48.899 38.379-58.952-8-3.563-16.87-5.553-26.178-5.553-35.568 0-64.505 28.937-64.505 64.505s28.937 64.505 64.505 64.505c9.307 0 18.192-1.996 26.192-5.559-22.57-10.054-38.393-32.686-38.393-58.946z" fill="#a79ba7"/><path d="m282.768 373.577c6.341-6.39 6.36-16.693.043-23.106l-15.184-15.416c-6.444-6.543-17.001-6.534-23.434.019l-15.115 15.397c-6.299 6.417-6.271 16.704.062 23.087l.019.019c5.054 5.093 12.827 6.318 19.202 3.027l.065-.033c4.729-2.441 10.346-2.441 15.075 0l.065.033c6.375 3.291 14.149 2.066 19.202-3.027z" fill="#b5adb6"/></g></g><g><path d="m140.83 355.366c-9.64 0-19.182-2.472-27.593-7.149-3.621-2.013-8.187-.709-10.199 2.911s-.71 8.187 2.91 10.2c10.636 5.913 22.697 9.039 34.882 9.039 39.704 0 72.005-32.301 72.005-72.005s-32.301-72.005-72.005-72.005-72.005 32.301-72.005 72.005c0 13.107 3.577 25.953 10.345 37.149 2.144 3.544 6.755 4.681 10.299 2.539 3.545-2.143 4.682-6.753 2.539-10.298-5.354-8.855-8.183-19.018-8.183-29.39 0-31.433 25.572-57.005 57.005-57.005s57.005 25.572 57.005 57.005-25.573 57.004-57.005 57.004z"/><path d="m417.528 371.95c-13.88 8.777-29.934 13.416-46.427 13.416h-25.443c-4.978 0-9.541 2.72-11.907 7.095l-12.782 23.612c-1.476 2.725-4.316 4.418-7.415 4.418h-5.284v-4.897c0-4.142-3.357-7.5-7.5-7.5s-7.5 3.358-7.5 7.5v4.897h-29.804v-4.897c0-4.142-3.357-7.5-7.5-7.5s-7.5 3.358-7.5 7.5v4.897h-29.804v-4.897c0-4.142-3.357-7.5-7.5-7.5s-7.5 3.358-7.5 7.5v4.897h-5.284c-3.099 0-5.939-1.693-7.415-4.418l-12.781-23.609c-2.367-4.377-6.931-7.097-11.908-7.097h-25.444c-23.469 0-45.471-9.204-61.951-25.916-16.478-16.708-25.372-38.844-25.045-62.331.495-35.632 23.406-67.942 57.011-80.397 3.884-1.439 5.865-5.755 4.426-9.639s-5.753-5.867-9.639-4.426c-6.161 2.283-12.014 5.137-17.509 8.487v-28.3c0-92.551 75.294-167.845 167.843-167.845 47.124 0 92.364 19.995 124.119 54.859 2.791 3.063 7.534 3.283 10.596.495 3.062-2.79 3.283-7.533.494-10.595-34.592-37.978-83.874-59.759-135.209-59.759-100.821 0-182.843 82.023-182.843 182.843v39.453c-20.944 18.748-33.886 45.747-34.287 74.614-.384 27.532 10.044 53.483 29.362 73.072 17.689 17.937 40.804 28.49 65.697 30.147l3.302 40.68c1.576 19.431 10.338 37.411 24.669 50.627 14.332 13.216 32.961 20.494 52.456 20.494h83.289c19.495 0 38.124-7.278 52.456-20.494 14.331-13.216 23.093-31.196 24.669-50.627l3.302-40.683c16.881-1.142 33.181-6.439 47.509-15.5 3.501-2.214 4.544-6.846 2.33-10.347-2.214-3.5-6.846-4.543-10.349-2.329zm-77.631 108.459c-11.554 10.654-26.571 16.521-42.287 16.521h-83.289c-15.716 0-30.733-5.867-42.287-16.521s-18.616-25.148-19.887-40.813l-3.184-39.231h16.44l12.368 22.847c4.1 7.573 11.995 12.277 20.606 12.277h5.284v4.312c0 4.142 3.357 7.5 7.5 7.5s7.5-3.358 7.5-7.5v-4.312h29.804v4.312c0 4.142 3.357 7.5 7.5 7.5s7.5-3.358 7.5-7.5v-4.312h29.804v4.312c0 4.142 3.357 7.5 7.5 7.5s7.5-3.358 7.5-7.5v-4.312h5.284c8.611 0 16.507-4.704 20.606-12.277l12.368-22.847h16.44l-3.184 39.231c-1.27 15.665-8.332 30.159-19.886 40.813z"/><path d="m454.17 239.339c-4.509-6.315-9.665-12.044-15.361-17.122v-39.374c0-34.21-9.52-67.582-27.531-96.508-2.188-3.517-6.815-4.592-10.33-2.402-3.517 2.189-4.592 6.815-2.403 10.331 16.528 26.544 25.265 57.174 25.265 88.579v28.283c-5.235-3.175-10.766-5.892-16.55-8.102-3.865-1.477-8.203.459-9.684 4.328-1.479 3.869.459 8.205 4.328 9.684 33.122 12.659 55.704 44.843 56.194 80.084.281 20.186-6.155 39.214-18.612 55.029-2.563 3.254-2.003 7.969 1.251 10.532 1.375 1.083 3.011 1.609 4.636 1.609 2.219 0 4.417-.981 5.896-2.86 14.4-18.282 22.152-41.195 21.827-64.519-.289-20.727-6.833-40.635-18.926-57.572z"/><path d="m221.078 255.916c1.355 0 2.728-.367 3.963-1.138 3.514-2.192 4.586-6.818 2.394-10.333-18.803-30.144-51.144-48.09-86.601-48.09-.191 0-.384 0-.575.001-1.837.01-3.764.077-5.727.198-4.134.255-7.279 3.813-7.023 7.948.255 4.134 3.811 7.277 7.947 7.024 1.684-.104 3.327-.161 4.885-.169.165-.001.326-.001.491-.001 30.243 0 57.835 15.313 73.876 41.028 1.422 2.28 3.868 3.532 6.37 3.532z"/><path d="m297.223 252.384c16.128-25.856 43.925-41.19 74.366-41.027 1.855.01 3.802.088 5.785.231 4.136.298 7.723-2.809 8.021-6.941.298-4.131-2.81-7.722-6.94-8.02-2.314-.167-4.596-.258-6.782-.27-.193-.001-.382-.001-.575-.001-35.455 0-67.799 17.948-86.601 48.09-2.192 3.514-1.12 8.141 2.394 10.333 1.235.771 2.607 1.138 3.963 1.138 2.501-.001 4.947-1.253 6.369-3.533z"/><path d="m371.101 370.366c39.704 0 72.005-32.301 72.005-72.005s-32.301-72.005-72.005-72.005-72.005 32.301-72.005 72.005 32.301 72.005 72.005 72.005zm0-129.01c31.433 0 57.005 25.572 57.005 57.005s-25.572 57.005-57.005 57.005-57.005-25.572-57.005-57.005 25.573-57.005 57.005-57.005z"/><path d="m251.867 383.235c2.564-1.324 5.629-1.325 8.16-.018.012.006.088.046.099.052 3.502 1.807 7.271 2.687 11.005 2.687 6.219 0 12.34-2.439 16.961-7.095h.001c9.189-9.261 9.217-24.357.063-33.652l-15.184-15.415c-4.535-4.604-10.589-7.139-17.051-7.139-.007 0-.014 0-.021 0-6.469.005-12.527 2.55-17.06 7.167l-15.113 15.396c-9.126 9.294-9.085 24.378.109 33.644 7.397 7.451 18.635 9.223 28.031 4.373zm-17.436-27.51 15.114-15.397c1.691-1.723 3.952-2.673 6.367-2.675h.007c2.412 0 4.672.946 6.364 2.665l15.185 15.416c3.417 3.469 3.406 9.104-.024 12.561-2.76 2.782-6.955 3.444-10.403 1.664-.012-.006-.088-.046-.099-.052-3.429-1.77-7.189-2.657-10.96-2.657-3.787 0-7.583.896-11.06 2.691-3.486 1.798-7.679 1.135-10.458-1.665-3.423-3.452-3.439-9.082-.033-12.551z"/></g></g></svg>