<svg id="Capa_1" enable-background="new 0 0 512.581 512.581" height="512" viewBox="0 0 512.581 512.581" width="512" xmlns="http://www.w3.org/2000/svg"><g><g><path d="m321.692 236.529c10.545 10.963 10.545 28.301 0 39.264-14.906 15.497-38.653 34.523-65.402 34.523s-50.496-19.025-65.402-34.523c-10.545-10.963-10.545-28.301 0-39.264 14.906-15.497 38.653-34.523 65.402-34.523s50.496 19.026 65.402 34.523z" fill="#99e6fc"/><path d="m221.532 275.793c-10.545-10.963-10.545-28.301 0-39.264 11.988-12.463 29.699-27.203 50.085-32.499-4.964-1.29-10.088-2.023-15.326-2.023-26.749 0-50.496 19.025-65.402 34.523-10.545 10.963-10.545 28.301 0 39.264 14.906 15.497 38.653 34.523 65.402 34.523 5.238 0 10.37-.738 15.334-2.028-20.386-5.298-38.106-20.033-50.093-32.496z" fill="#62dbfb"/><circle cx="256.29" cy="256.161" fill="#918291" r="24.154"/></g><g><g id="XMLID_196_"><g><path d="m496.01 361.101c4.07 6.29 4.37 14.29.79 20.87s-10.46 10.66-17.95 10.66h-445.12c-7.49 0-14.37-4.08-17.95-10.66s-3.28-14.58.79-20.87l222.56-344.26c3.78-5.85 10.2-9.34 17.16-9.34s13.38 3.49 17.16 9.34zm-38.41-.47-201.31-311.4-201.31 311.4z" fill="#fee45a"/></g></g></g><g><g id="XMLID_197_"><g><path d="m496.8 130.611c3.58 6.58 3.28 14.58-.79 20.87l-222.56 344.26c-3.78 5.85-10.2 9.34-17.16 9.34s-13.38-3.49-17.16-9.34l-222.56-344.26c-4.07-6.29-4.37-14.29-.79-20.87s10.46-10.67 17.95-10.67h445.12c7.49 0 14.37 4.09 17.95 10.67zm-214.19 292.02 174.99-270.69h-402.62l201.31 311.4z" fill="#fee45a"/></g></g></g><g><path d="m385.038 203.263c1.436 2.22 3.846 3.429 6.306 3.429 1.396 0 2.807-.389 4.065-1.203 3.479-2.249 4.475-6.892 2.227-10.37l-75.8-117.251c-2.25-3.479-6.895-4.475-10.37-2.227-3.479 2.249-4.476 6.892-2.228 10.37z"/><path d="m48.39 364.22c1.313 2.413 3.841 3.915 6.588 3.915h236.625c4.143 0 7.5-3.358 7.5-7.5s-3.357-7.5-7.5-7.5h-222.846l108.037-167.116c2.248-3.479 1.252-8.122-2.228-10.37-3.479-2.25-8.12-1.253-10.37 2.227l-115.517 178.687c-1.491 2.306-1.602 5.244-.289 7.657z"/><path d="m372.292 236.163c1.396 0 2.807-.389 4.065-1.203 3.479-2.249 4.475-6.892 2.227-10.37l-115.995-179.426c-1.382-2.137-3.754-3.428-6.299-3.428s-4.917 1.291-6.299 3.428l-26.318 40.71c-2.248 3.479-1.252 8.122 2.227 10.37 3.477 2.248 8.121 1.252 10.371-2.227l20.02-30.968 109.696 169.683c1.435 2.222 3.845 3.431 6.305 3.431z"/><path d="m187.795 96.245c1.259.814 2.67 1.203 4.065 1.203 2.46 0 4.87-1.209 6.306-3.429l47.26-73.104c2.395-3.705 6.456-5.915 10.864-5.915s8.47 2.21 10.863 5.912l24.689 38.19c2.25 3.48 6.893 4.475 10.371 2.227s4.475-6.892 2.227-10.37l-24.69-38.191c-5.17-7.995-13.94-12.768-23.46-12.768-9.521 0-18.291 4.773-23.461 12.77l-47.261 73.105c-2.247 3.478-1.251 8.121 2.227 10.37z"/><path d="m279.015 392.634c0-4.142-3.357-7.5-7.5-7.5h-237.782c-4.742 0-9.096-2.587-11.362-6.752-2.268-4.165-2.076-9.225.499-13.208l115.821-179.157c2.248-3.479 1.252-8.122-2.227-10.37-3.479-2.25-8.122-1.253-10.371 2.227l-115.82 179.157c-5.561 8.599-5.974 19.528-1.078 28.522s14.298 14.581 24.538 14.581h237.782c4.142 0 7.5-3.358 7.5-7.5z"/><path d="m383.837 360.634c0 4.142 3.357 7.5 7.5 7.5h66.266c2.747 0 5.274-1.502 6.588-3.915 1.313-2.413 1.202-5.351-.289-7.657l-30.543-47.245c-2.25-3.48-6.893-4.475-10.371-2.227s-4.475 6.892-2.227 10.37l23.063 35.673h-52.486c-4.143.001-7.501 3.359-7.501 7.501z"/><path d="m502.309 357.031-49.897-77.184c-2.25-3.479-6.894-4.476-10.371-2.227-3.479 2.249-4.475 6.892-2.227 10.37l49.898 77.185c2.574 3.982 2.766 9.042.498 13.207-2.267 4.165-6.62 6.752-11.362 6.752h-106.563c-4.143 0-7.5 3.358-7.5 7.5s3.357 7.5 7.5 7.5h106.563c10.24 0 19.643-5.587 24.538-14.581s4.482-19.923-1.077-28.522z"/><path d="m170.98 338.873c1.396 0 2.807-.389 4.065-1.203 3.479-2.249 4.475-6.892 2.227-10.37l-30.678-47.453c-2.25-3.48-6.894-4.476-10.371-2.227-3.479 2.249-4.475 6.892-2.227 10.37l30.678 47.453c1.436 2.221 3.846 3.43 6.306 3.43z"/><path d="m294.467 151.946c0-4.142-3.357-7.5-7.5-7.5h-231.989c-2.747 0-5.274 1.502-6.588 3.915-1.313 2.413-1.202 5.351.289 7.657l30.543 47.245c1.436 2.22 3.846 3.429 6.306 3.429 1.396 0 2.807-.389 4.065-1.203 3.479-2.249 4.475-6.892 2.227-10.37l-23.063-35.673h218.21c4.143 0 7.5-3.358 7.5-7.5z"/><path d="m117.172 307.091c-3.479 2.249-4.476 6.892-2.228 10.371l11.147 17.245c1.436 2.22 3.846 3.429 6.306 3.429 1.396 0 2.806-.389 4.064-1.203 3.479-2.249 4.476-6.891 2.228-10.37l-11.147-17.245c-2.25-3.479-6.893-4.476-10.37-2.227z"/><path d="m503.386 127.027c-4.896-8.994-14.298-14.581-24.538-14.581h-103.018c-4.143 0-7.5 3.358-7.5 7.5s3.357 7.5 7.5 7.5h103.018c4.742 0 9.096 2.587 11.362 6.752 2.268 4.165 2.076 9.225-.499 13.208l-222.556 344.261c-2.395 3.703-6.456 5.914-10.864 5.914s-8.47-2.21-10.863-5.912l-47.261-73.106c-2.25-3.479-6.895-4.475-10.37-2.227-3.479 2.249-4.476 6.892-2.228 10.37l47.262 73.107c5.17 7.995 13.94 12.768 23.46 12.768 9.521 0 18.291-4.773 23.461-12.77l222.556-344.261c5.56-8.599 5.973-19.529 1.078-28.523z"/><path d="m60.169 232.733c1.436 2.22 3.846 3.429 6.306 3.429 1.396 0 2.807-.389 4.065-1.203 3.479-2.249 4.475-6.892 2.227-10.37l-49.898-77.185c-2.574-3.982-2.766-9.042-.498-13.207 2.267-4.165 6.62-6.752 11.362-6.752h232.547c4.143 0 7.5-3.358 7.5-7.5s-3.357-7.5-7.5-7.5h-232.547c-10.24 0-19.643 5.587-24.538 14.581s-4.482 19.923 1.077 28.522z"/><path d="m236.271 418.563c-2.25-3.48-6.894-4.475-10.371-2.227-3.479 2.249-4.475 6.892-2.227 10.37l26.318 40.71c1.382 2.138 3.754 3.428 6.299 3.428s4.917-1.291 6.299-3.428l201.313-311.398c1.491-2.307 1.602-5.245.289-7.657-1.313-2.413-3.841-3.915-6.588-3.915h-61.085c-4.143 0-7.5 3.358-7.5 7.5s3.357 7.5 7.5 7.5h47.306l-187.534 290.084z"/><path d="m256.29 317.815c29.249 0 54.649-20.024 70.808-36.823 13.394-13.924 13.394-35.738 0-49.662-16.158-16.799-41.559-36.823-70.808-36.823-7.439 0-15.104 1.327-22.78 3.944-3.921 1.336-6.016 5.598-4.679 9.519s5.601 6.016 9.519 4.679c6.115-2.084 12.151-3.142 17.94-3.142 23.972 0 45.858 17.522 59.997 32.222 7.784 8.093 7.784 20.772 0 28.865-14.139 14.699-36.025 32.222-59.997 32.222s-45.858-17.522-59.997-32.222c-7.784-8.093-7.784-20.772 0-28.865 5.269-5.477 10.709-10.389 16.171-14.602 3.28-2.529 3.889-7.239 1.359-10.519-2.529-3.279-7.238-3.89-10.52-1.359-6.046 4.662-12.041 10.072-17.821 16.081-13.394 13.924-13.394 35.738 0 49.662 16.159 16.799 41.559 36.823 70.808 36.823z"/><path d="m287.945 256.161c0-17.454-14.2-31.654-31.654-31.654s-31.654 14.2-31.654 31.654 14.2 31.654 31.654 31.654 31.654-14.2 31.654-31.654zm-48.309 0c0-9.183 7.471-16.654 16.654-16.654s16.654 7.471 16.654 16.654-7.471 16.654-16.654 16.654-16.654-7.471-16.654-16.654z"/></g></g></svg>