<svg id="Capa_1" enable-background="new 0 0 508.186 508.186" height="512" viewBox="0 0 508.186 508.186" width="512" xmlns="http://www.w3.org/2000/svg"><g><g><path d="m497.869 245.003c3.791 5.473 3.791 12.706 0 18.179-25.082 36.213-124.702 168.258-243.776 168.258s-218.694-132.044-243.776-168.257c-3.791-5.473-3.791-12.706 0-18.179 25.082-36.214 124.702-168.259 243.776-168.259s218.694 132.045 243.776 168.258z" fill="#f2fbff"/><path d="m94.786 276.779c-10.011-13.471-10.011-31.901 0-45.372 31.331-42.163 106.049-130.164 196.673-150.433-12.185-2.725-24.672-4.229-37.366-4.229-119.082 0-218.708 132.063-243.781 168.266-3.788 5.469-3.788 12.696 0 18.165 25.074 36.203 124.699 168.266 243.781 168.266 12.694 0 25.181-1.512 37.366-4.237-90.624-20.27-165.341-108.264-196.673-150.426z" fill="#dff6fd"/><circle cx="254.093" cy="254.093" fill="#cb97e7" r="125.404"/><circle cx="254.093" cy="254.093" fill="#bd80e1" r="95.404"/><g><path d="m256.093 350.96c-4.599 0-8.792-2.334-11.215-6.243l-75.943-122.518c-2.521-4.066-2.641-9.188-.314-13.369 2.327-4.18 6.744-6.777 11.528-6.777h151.887c4.784 0 9.202 2.597 11.528 6.777 2.327 4.181 2.207 9.303-.314 13.37l-75.943 122.518c-2.423 3.908-6.615 6.242-11.214 6.242zm1.535-14.145h.01zm-74.235-119.762 72.7 117.285 72.7-117.285z" fill="#fee45a"/></g><g><path d="m332.036 310.52h-151.886c-4.784 0-9.202-2.597-11.528-6.777-2.327-4.181-2.207-9.303.314-13.37l75.943-122.518c2.423-3.909 6.615-6.243 11.214-6.243s8.792 2.334 11.215 6.243l75.943 122.518c2.521 4.066 2.641 9.188.314 13.369s-6.745 6.778-11.529 6.778zm-1.534-12.244h.01zm-147.109-2.756h145.399l-72.7-117.285z" fill="#fee45a"/></g></g><g><path d="m497.869 245.003c3.791 5.473 3.791 12.706 0 18.179-25.082 36.213-124.702 168.258-243.776 168.258s-218.694-132.044-243.776-168.257c-3.791-5.473-3.791-12.706 0-18.179 25.082-36.214 124.702-168.259 243.776-168.259s218.694 132.045 243.776 168.258z" fill="#f2fbff"/><path d="m94.786 276.779c-10.011-13.471-10.011-31.901 0-45.372 31.331-42.163 106.049-130.164 196.673-150.433-12.185-2.725-24.672-4.229-37.366-4.229-119.082 0-218.708 132.063-243.781 168.266-3.788 5.469-3.788 12.696 0 18.165 25.074 36.203 124.699 168.266 243.781 168.266 12.694 0 25.181-1.512 37.366-4.237-90.624-20.27-165.341-108.264-196.673-150.426z" fill="#dff6fd"/><circle cx="254.093" cy="254.093" fill="#cb97e7" r="125.404"/><circle cx="254.093" cy="254.093" fill="#bd80e1" r="95.404"/></g><g><path d="m504.035 240.733c-11.747-16.96-43.825-60.567-87.87-99.084-54.938-48.043-109.466-72.403-162.072-72.403-121.707 0-222.078 131.258-249.942 171.488-5.535 7.991-5.535 18.729 0 26.72 11.747 16.96 43.825 60.567 87.87 99.084 54.938 48.043 109.466 72.403 162.072 72.403 41.99 0 85.587-15.731 129.579-46.757 3.385-2.387 4.193-7.066 1.806-10.452-2.388-3.385-7.066-4.194-10.452-1.806-41.412 29.206-82.1 44.015-120.933 44.015-48.868 0-100.074-23.112-152.198-68.695-42.782-37.413-73.983-79.832-85.413-96.333-1.997-2.883-1.997-6.757 0-9.639 11.429-16.501 42.631-58.921 85.413-96.333 52.124-45.583 103.331-68.695 152.198-68.695s100.074 23.112 152.198 68.695c42.782 37.413 73.983 79.832 85.413 96.333 1.997 2.883 1.997 6.757 0 9.639-12.297 17.754-45.858 63.214-91.799 101.797-3.172 2.664-3.584 7.395-.92 10.566 2.664 3.173 7.396 3.585 10.566.92 47.331-39.75 81.843-86.492 94.484-104.743 5.534-7.991 5.534-18.729 0-26.72z"/><path d="m167.624 153.169c-29.51 25.306-46.435 62.091-46.435 100.924 0 73.283 59.621 132.904 132.904 132.904s132.904-59.621 132.904-132.904-59.621-132.904-132.904-132.904c-20.239 0-39.677 4.436-57.773 13.184-3.729 1.803-5.291 6.288-3.488 10.017 1.802 3.729 6.286 5.291 10.017 3.488 16.044-7.756 33.286-11.689 51.245-11.689 65.012 0 117.904 52.892 117.904 117.904s-52.892 117.904-117.904 117.904-117.904-52.892-117.904-117.904c0-34.45 15.017-67.085 41.2-89.538 3.144-2.696 3.507-7.431.811-10.576s-7.432-3.507-10.577-.81z"/><path d="m254.093 356.997c56.741 0 102.904-46.163 102.904-102.904s-46.163-102.904-102.904-102.904-102.904 46.163-102.904 102.904 46.163 102.904 102.904 102.904zm-83.121-131.512 19.092 30.801-18.085 29.176c-3.737-9.748-5.791-20.322-5.791-31.369.001-10.011 1.687-19.635 4.784-28.608zm85.121-47.251 14.764 23.818h-29.528zm24.062 38.819 24.319 39.233-24.319 39.233h-48.123l-24.319-39.233 24.319-39.233zm61.842 37.04c0 9.514-1.525 18.677-4.334 27.266l-15.541-25.072 16.445-26.531c2.231 7.731 3.43 15.896 3.43 24.337zm-13.204 41.427h-30.99l15.495-24.998zm-15.496-53.469-15.495-24.998h30.99zm-57.204 92.287-14.764-23.818h29.528zm-41.71-38.818h-30.99l15.495-24.998zm-15.495-53.469-15.495-24.998h30.99zm-12.141 68.469h36.934l19.057 30.745c-22.384-2.9-42.151-14.255-55.991-30.745zm83.128 30.055 18.63-30.055h32.934c-12.92 15.394-31.005 26.313-51.564 30.055zm55.016-138.522h-36.386l-21.197-34.197c-.163-.263-.354-.5-.532-.748 23.762 3.449 44.474 16.437 58.115 34.945zm-79.109-35.468c-.321.404-.627.824-.904 1.271l-21.197 34.197h-40.386c14.471-19.635 36.9-33.057 62.487-35.468z"/></g></g></svg>