<svg id="Capa_1" enable-background="new 0 0 511.68 511.68" height="512" viewBox="0 0 511.68 511.68" width="512" xmlns="http://www.w3.org/2000/svg"><g><g><path d="m348.501 149.412-38.499-29.5h-123.928l-23.613 29.1c-56.02 32.16-93.74 92.57-93.74 161.79 0 56.12 24.8 106.45 64.05 140.63l50.412 31.917h172.14l22.248-31.967c39.21-34.18 63.99-84.49 63.99-140.58 0-68.94-37.42-129.14-93.06-161.39z" fill="#f2fbff"/><path d="m377.911 431.382-144.265.03c-47.127.01-88.168-32.399-98.826-78.305-3.155-13.591-4.824-27.753-4.824-42.304 0-27.318 5.878-53.261 16.437-76.637 17.979-39.803 57.974-65.063 101.648-64.969l101.986.219 1.589-.254c6.187-.989 11.898-3.177 16.917-6.304-6.378-4.897-13.081-9.393-20.073-13.445l-38.499-29.5h-62.653-41.412-19.863l-23.613 29.1c-56.02 32.16-93.74 92.57-93.74 161.79 0 56.12 24.8 106.45 64.05 140.63l50.412 31.917h15.966 45.309 110.865l22.248-31.967c6.038-5.263 11.73-10.912 17.046-16.902-5.259-2.027-10.898-3.099-16.705-3.099z" fill="#dff6fd"/><path d="m341.847 99.05 17.173-37.973c11.358-25.115-7.007-53.577-34.571-53.577h-138.615c-27.564 0-45.93 28.462-34.572 53.577l17.173 37.973 17.516 34.427h143.117z" fill="#bc7c63"/><g><g id="XMLID_198_"><g><path d="m377.911 451.382c7.29 0 13.89 2.95 18.67 7.73s7.73 11.38 7.73 18.67c0 14.58-11.82 26.4-26.4 26.4h-243.54c-7.29 0-13.89-2.95-18.67-7.73s-7.73-11.38-7.73-18.67c0-14.05 10.96-25.52 24.8-26.35l244.8-.05z" fill="#dff6fd"/><path d="m161.197 502.009c-5.6-5.6-9.057-13.333-9.057-21.874 0-13.023 8.041-24.148 19.427-28.711l-38.797.008c-13.84.83-24.8 12.3-24.8 26.35 0 7.29 2.95 13.89 7.73 18.67s11.38 7.73 18.67 7.73h29.248c-.843-.683-1.654-1.406-2.421-2.173z" fill="#c8effe"/><path d="m344.471 79.052h-115.802c-12.01 0-22.908-7.032-27.857-17.975-11.358-25.115 7.008-53.577 34.572-53.577h-49.55c-27.564 0-45.93 28.462-34.572 53.577l17.173 37.973 17.516 34.427h23.599 25.951 93.567l12.78-34.427 8.846-19.561c-2.036-.28-4.111-.437-6.223-.437z" fill="#aa6a51"/><path d="m369.811 124.392c0 12.62-9.23 23.09-21.31 25.02l-186.04-.4c-11.11-2.69-19.37-12.69-19.37-24.62 0-14 11.35-25.34 25.34-25.34h176.04c14 0 25.34 11.34 25.34 25.34z" fill="#dff6fd"/><path d="m187.551 124.434c0-10.343 4.908-19.53 12.513-25.382h-31.633c-13.99 0-25.34 11.34-25.34 25.34 0 11.93 8.26 21.93 19.37 24.62l36.709.079c-7.095-5.87-11.619-14.734-11.619-24.657z" fill="#c8effe"/></g></g><path d="m383.099 237.153-1.365-1.451c-27.309-29.024-72.499-31.756-103.107-6.234l-23.486 19.584-23.486-19.584c-30.607-25.522-75.797-22.79-103.107 6.234-24.555 26.096-27.345 65.893-6.639 95.137 29.483 41.642 62.976 77.525 100.882 107.069 19.14 14.917 45.936 15.028 65.392.524 40.945-30.524 74.792-66.645 102.539-107.575 19.743-29.12 16.486-68.082-7.623-93.704z" fill="#fe76a8"/><g fill="#fe5694"><path d="m233.646 431.411c-7.461.001-14.769-.815-21.829-2.364 3.62 3.008 7.27 5.973 10.974 8.86 19.14 14.917 45.936 15.028 65.392.524 3.098-2.309 6.141-4.661 9.157-7.034z"/><path d="m129.996 310.802c0-27.318 5.878-53.261 16.437-76.637 2.72-6.022 5.952-11.704 9.616-17.023-10.142 3.947-19.576 10.138-27.5 18.56-24.555 26.096-27.345 65.893-6.639 95.137 3.776 5.333 7.62 10.569 11.528 15.712-2.249-11.571-3.442-23.52-3.442-35.749z"/></g><g fill="#fee45a"><path d="m346.523 267.956c-6.813-4.778-12.531-10.361-17.051-16.824-1.944-2.779-6.113-2.795-7.92.075-4.208 6.682-9.977 12.214-17.022 16.804-3.003 1.956-2.863 6.34.227 8.155 7.079 4.159 12.706 9.383 16.615 15.869 1.833 3.041 6.228 3.108 8.114.099 4.3-6.862 9.901-12.179 16.613-16.178 2.976-1.773 3.261-6.009.424-8z"/><path d="m366.67 373.774c-5.411-3.795-9.953-8.229-13.543-13.362-1.544-2.207-4.855-2.22-6.291.06-3.342 5.307-7.924 9.701-13.52 13.347-2.385 1.554-2.274 5.035.18 6.477 5.622 3.303 10.091 7.452 13.196 12.603 1.456 2.416 4.946 2.468 6.444.078 3.415-5.45 7.863-9.673 13.195-12.849 2.366-1.408 2.593-4.773.339-6.354z"/><path d="m157.024 351.165c-5.411-3.795-9.953-8.229-13.543-13.362-1.544-2.207-4.855-2.22-6.291.059-3.342 5.307-7.924 9.701-13.52 13.347-2.385 1.554-2.274 5.035.18 6.477 5.622 3.303 10.091 7.452 13.196 12.603 1.456 2.416 4.946 2.469 6.444.078 3.415-5.45 7.863-9.673 13.195-12.849 2.366-1.407 2.593-4.772.339-6.353z"/></g></g></g><g><path d="m393.533 447.342c35.897-36.209 56.23-85.219 56.23-136.543 0-34.614-9.234-68.591-26.706-98.258-14.525-24.666-34.399-45.871-57.972-61.977 7.94-6.021 12.928-15.54 12.928-26.173 0-15.398-10.655-28.348-24.977-31.881l12.817-28.341c6.389-14.125 5.185-30.336-3.221-43.363s-22.68-20.806-38.183-20.806h-138.616c-15.503 0-29.778 7.777-38.184 20.804s-9.61 29.238-3.221 43.363l13.307 29.425c-12.506 4.643-21.442 16.695-21.442 30.797 0 10.012 4.469 19.119 11.737 25.194-24.09 16.145-44.396 37.577-59.204 62.604-17.605 29.754-26.91 63.853-26.91 98.61 0 20.704 3.263 41.113 9.698 60.663 1.039 3.156 3.972 5.157 7.123 5.157.777 0 1.568-.122 2.347-.378 3.934-1.295 6.074-5.535 4.779-9.469-5.936-18.033-8.946-36.865-8.946-55.972 0-32.071 8.583-63.529 24.82-90.972 15.44-26.096 37.371-47.941 63.483-63.313h35.319c4.142 0 7.5-3.358 7.5-7.5s-3.358-7.5-7.5-7.5h-36.351c-7.625-2.189-12.893-9.115-12.893-17.124 0-9.836 8.003-17.839 17.839-17.839h106.536c4.142 0 7.5-3.358 7.5-7.5s-3.358-7.5-7.5-7.5h-102.396l-15.179-33.564c-4.28-9.463-3.473-20.322 2.158-29.049s15.194-13.937 25.58-13.937h138.615c10.386 0 19.949 5.21 25.58 13.937s6.438 19.586 2.158 29.05l-15.178 33.563h-29.352c-4.142 0-7.5 3.358-7.5 7.5s3.358 7.5 7.5 7.5h37.519c9.836 0 17.839 8.003 17.839 17.839 0 8.661-6.091 15.947-14.542 17.518l-113.44-.394c-.009 0-.018 0-.026 0-4.13 0-7.485 3.341-7.5 7.474-.014 4.142 3.332 7.511 7.474 7.526l112.129.39c25.934 15.417 47.706 37.239 63.022 63.248 16.114 27.362 24.631 58.708 24.631 90.647 0 50.801-21.607 99.136-59.357 133.079h-25.491c-4.142 0-7.5 3.358-7.5 7.5s3.358 7.5 7.5 7.5h28.695c10.422 0 18.901 8.479 18.901 18.901s-8.479 18.901-18.901 18.901h-243.539c-10.422 0-18.901-8.479-18.901-18.901 0-9.938 7.731-18.189 17.621-18.849h20.825c4.142 0 7.5-3.358 7.5-7.5s-3.358-7.5-7.5-7.5h-18.294c-15.317-13.756-28.056-29.888-37.876-48.002-1.974-3.641-6.526-4.993-10.167-3.019-3.642 1.974-4.993 6.526-3.019 10.167 9.001 16.604 20.262 31.678 33.564 44.95-10.548 5.778-17.654 16.993-17.654 29.752 0 18.693 15.208 33.901 33.901 33.901h243.54c18.693 0 33.901-15.208 33.901-33.901 0-13.339-7.747-24.906-18.978-30.435z"/><path d="m218.181 443.824c10.983 8.56 24.26 12.849 37.574 12.849 12.967 0 25.97-4.07 36.911-12.227 11.897-8.869 23.547-18.502 34.627-28.633 3.057-2.795 3.269-7.539.474-10.596-2.795-3.058-7.54-3.269-10.596-.475-10.712 9.794-21.974 19.106-33.471 27.677-16.777 12.509-39.928 12.333-56.298-.426-18.802-14.654-36.938-31.3-53.905-49.475-2.827-3.028-7.573-3.191-10.6-.365-3.028 2.827-3.191 7.572-.365 10.6 17.504 18.75 36.227 35.933 55.649 51.071z"/><path d="m386.066 350.43c3.691-5.005 7.347-10.175 10.865-15.364 10.496-15.481 15.432-34.299 13.899-52.985-1.529-18.65-9.438-36.431-22.268-50.067l-1.366-1.452c-29.976-31.858-79.776-34.869-113.372-6.854l-18.683 15.579-18.683-15.579c-33.597-28.015-83.396-25.004-113.372 6.854-22.974 24.416-28.983 59.954-15.308 90.539 1.69 3.781 6.125 5.476 9.908 3.785 3.781-1.69 5.476-6.126 3.785-9.908-11.196-25.042-6.274-54.143 12.539-74.137 24.547-26.089 65.327-28.556 92.841-5.613l23.486 19.584c2.782 2.319 6.824 2.319 9.606 0l23.486-19.584c27.512-22.941 68.292-20.476 92.841 5.612l1.365 1.452c10.512 11.171 16.99 25.737 18.243 41.014 1.254 15.29-2.782 30.682-11.365 43.343-3.407 5.026-6.947 10.032-10.521 14.878-2.458 3.334-1.749 8.029 1.584 10.488 1.34.988 2.899 1.464 4.446 1.464 2.303 0 4.574-1.055 6.044-3.049z"/><path d="m314.947 295.907c2.222 3.687 6.116 5.91 10.417 5.947h.11c4.242 0 8.11-2.139 10.365-5.737 3.581-5.713 8.191-10.2 14.097-13.717 3.634-2.165 5.897-5.972 6.054-10.184.154-4.138-1.775-8.026-5.161-10.401-6.165-4.324-11.283-9.365-15.211-14.981-2.382-3.406-6.29-5.389-10.432-5.279-4.082.099-7.813 2.213-9.98 5.656-3.518 5.585-8.349 10.334-14.77 14.517-3.59 2.339-5.675 6.286-5.577 10.558.1 4.294 2.379 8.163 6.098 10.348 6.24 3.666 10.816 8.008 13.99 13.273zm10.68-37.372c3.761 4.79 8.21 9.186 13.287 13.125-5.22 3.604-9.718 7.965-13.431 13.024-3.527-4.839-8.02-9.114-13.418-12.77 5.377-3.948 9.918-8.428 13.562-13.379z"/><path d="m340.271 396.771c2.044 3.39 5.626 5.435 9.583 5.469h.1c3.904 0 7.465-1.969 9.54-5.281 2.71-4.325 6.203-7.722 10.679-10.388 3.338-1.989 5.417-5.487 5.56-9.358.141-3.812-1.637-7.393-4.756-9.58-4.749-3.331-8.687-7.207-11.703-11.52-2.189-3.13-5.796-4.955-9.587-4.851-3.76.091-7.198 2.039-9.196 5.212-2.672 4.243-6.357 7.861-11.267 11.06-3.303 2.152-5.22 5.784-5.129 9.715.092 3.949 2.187 7.505 5.605 9.513 4.727 2.778 8.185 6.052 10.571 10.009zm22.092-16.856s0 0 0 0zm-12.256-11.136c2.365 2.81 5.029 5.442 7.972 7.875-3.038 2.298-5.751 4.929-8.121 7.875-2.275-2.81-4.965-5.369-8.052-7.656 3.115-2.469 5.856-5.174 8.201-8.094z"/><path d="m166.086 354.605c.142-3.811-1.636-7.393-4.755-9.581-4.749-3.33-8.686-7.206-11.704-11.521-2.19-3.13-5.778-4.946-9.588-4.85-3.759.091-7.197 2.04-9.194 5.212-2.672 4.243-6.358 7.86-11.267 11.059-3.303 2.151-5.221 5.783-5.13 9.714.091 3.949 2.187 7.506 5.604 9.513 4.729 2.779 8.188 6.053 10.572 10.009 2.044 3.39 5.626 5.435 9.583 5.469h.1c3.904 0 7.465-1.969 9.54-5.281 2.709-4.324 6.202-7.722 10.679-10.388 3.337-1.987 5.416-5.484 5.56-9.355zm-25.773 7.314c-2.275-2.81-4.965-5.368-8.052-7.656 3.114-2.469 5.854-5.173 8.2-8.094 2.365 2.811 5.029 5.442 7.973 7.875-3.038 2.298-5.752 4.93-8.121 7.875z"/></g></g></svg>