<svg id="Capa_1" enable-background="new 0 0 511.94 511.94" height="512" viewBox="0 0 511.94 511.94" width="512" xmlns="http://www.w3.org/2000/svg"><g><g><g><path d="m372.472 213.535c-4.066-25.71-16.436-48.658-34.28-66.007-4.041-3.928-4.718-10.172-1.632-14.887l36.251-55.37c15.224-23.254 5.982-54.611-19.421-65.89-25.056-11.125-54.159 2.506-61.652 28.877l-21.251 74.784c-4.755-.583-9.597-.889-14.51-.889-4.58 0-9.097.27-13.541.778l-21.22-74.673c-7.494-26.371-36.596-40.002-61.652-28.877-25.403 11.279-34.646 42.636-19.421 65.89l35.867 54.784c3.106 4.744 2.393 11.024-1.698 14.951-18.138 17.409-30.714 40.56-34.823 66.529l-3.971 30.233h242.426z" fill="#f2fbff"/></g><path d="m372.472 213.535c-1.089-6.886-2.792-13.565-5.018-20h-153.101c-13.455 0-21.336-15.258-13.449-26.16.119-.164.238-.328.357-.491 11.258-15.393 11.53-36.241 1.084-52.196l-21.658-33.08c-15.224-23.254-5.982-54.611 19.421-65.89.758-.336 1.535-.655 2.299-.946-12.271-7.946-28.248-9.872-42.845-3.391-25.403 11.279-34.646 42.636-19.421 65.89l35.867 54.784c3.116 4.759 2.369 11.044-1.733 14.984-18.119 17.405-30.682 40.543-34.788 66.496l-3.971 30.233h39.55 1.565 201.311z" fill="#dff6fd"/><g><path d="m392.12 471.749-5.707-23.367c-4.634-18.973-6.975-38.433-6.975-57.964v-8.93l-17.316-17.304v-45.309l17.316-14.262v-46.077-23.884h-246.922v23.884 46.077l17.575 16.671v50.196l-17.575 10.008v8.93c0 19.531-2.342 38.991-6.976 57.964l-5.707 23.367c-4.064 16.641 8.538 32.691 25.668 32.691h220.95c17.131 0 29.733-16.05 25.669-32.691z" fill="#b5adb6"/><path d="m201.275 485.283c-17.13 0-29.732-16.05-25.668-32.691l5.707-23.368c4.634-18.973 6.975-38.433 6.975-57.963v-53.847c0-21.472 17.407-38.879 38.879-38.879h152.269v-20-23.884h-191.147-55.774v23.884 20 26.077l16.476 13.74v53.127l-16.476 10.008v8.93c0 19.531-2.342 38.99-6.975 57.963l-5.707 23.368c-4.064 16.641 8.538 32.691 25.668 32.691h220.95c12.321 0 22.299-8.303 25.418-19.157h-190.595z" fill="#a79ba7"/><g><path d="m64.465 276.536-7.429-9.147c-5.782-7.12-4.698-17.58 2.422-23.362l24.875-20.202c8.171-6.636 18.469-10.291 28.995-10.291h285.298c10.525 0 20.822 3.654 28.994 10.29l24.875 20.203c7.12 5.783 8.204 16.242 2.421 23.362l-7.429 9.147c-5.783 7.12-16.242 8.204-23.362 2.422l-20.298-16.485c-3.137-2.547-7.054-3.938-11.095-3.938h-273.51c-4.041 0-7.959 1.391-11.096 3.938l-20.299 16.485c-7.12 5.783-17.579 4.699-23.362-2.422z" fill="#b5adb6"/></g><path d="m132.516 304.612h246.922v76.875h-246.922z" fill="#cb97e7"/><path d="m132.516 381.487h55.533c.143-3.406.24-6.814.24-10.227v-53.847c0-4.487.769-8.792 2.167-12.802h-57.941v76.876z" fill="#bd80e1"/><g fill="#99e6fc"><path d="m165.241 60.838c-3.323-5.076-2.584-10.023-1.848-12.521s2.799-7.055 8.344-9.517c1.969-.874 4.02-1.317 6.096-1.317 5.494 0 12.382 3.435 14.525 10.976l18.274 64.306c.75 2.641-.826 5.381-3.486 6.059-2.02.515-4.144-.31-5.286-2.054z"/><path d="m347.712 60.838c3.323-5.076 2.584-10.023 1.848-12.521s-2.799-7.055-8.344-9.517c-1.969-.874-4.02-1.317-6.096-1.317-5.494 0-12.382 3.435-14.525 10.976l-18.274 64.306c-.75 2.641.826 5.381 3.486 6.059 2.02.515 4.144-.31 5.286-2.054z"/></g></g></g><g><path d="m457.224 238.205-24.876-20.203c-9.504-7.717-21.48-11.967-33.722-11.967h-19.931c-5.125-24.354-17.225-46.336-35.275-63.884-1.46-1.419-1.706-3.69-.586-5.401l36.253-55.371c8.463-12.928 10.812-28.843 6.442-43.665-4.368-14.821-14.974-26.917-29.096-33.188-13.929-6.185-29.834-6.023-43.637.44-13.802 6.464-24.107 18.581-28.274 33.241l-19.541 68.768c-5.676-.405-11.317-.429-17.028-.064l-9.207-32.4c-1.132-3.985-5.281-6.296-9.265-5.164s-6.296 5.28-5.164 9.265l10.903 38.369c1.004 3.532 4.423 5.824 8.066 5.401 8.798-1.006 17.596-.962 26.287.104 3.658.449 7.116-1.84 8.127-5.394l21.25-74.784c2.979-10.478 10.344-19.137 20.208-23.758 9.865-4.621 21.232-4.734 31.188-.315 10.094 4.481 17.673 13.127 20.795 23.72s1.444 21.968-4.604 31.208l-36.252 55.37c-5.047 7.708-3.92 17.958 2.678 24.373 15.124 14.704 25.517 32.932 30.374 53.129h-55.174v-8.801c0-4.142-3.357-7.5-7.5-7.5s-7.5 3.358-7.5 7.5v8.801h-73.373v-8.801c0-4.142-3.358-7.5-7.5-7.5s-7.5 3.358-7.5 7.5v8.801h-56.152c4.941-20.281 15.707-39.068 30.867-53.619 6.689-6.421 7.858-16.712 2.779-24.47l-35.868-54.783c-6.049-9.24-7.728-20.614-4.605-31.208 3.123-10.593 10.702-19.239 20.795-23.72 9.956-4.419 21.322-4.305 31.188.315 9.864 4.621 17.229 13.28 20.207 23.758l1.576 5.544c1.132 3.985 5.279 6.296 9.265 5.164 3.984-1.132 6.296-5.28 5.164-9.265l-1.576-5.544c-4.166-14.66-14.471-26.776-28.273-33.241-13.803-6.465-29.708-6.625-43.637-.44-14.123 6.27-24.728 18.367-29.096 33.188-4.369 14.821-2.021 30.736 6.443 43.665l35.868 54.783c1.127 1.722.868 4.007-.617 5.433-18.09 17.363-30.655 40.051-35.843 64.44h-19.947c-12.243 0-24.219 4.25-33.723 11.969l-24.875 20.201c-4.999 4.059-8.117 9.823-8.781 16.228-.665 6.405 1.206 12.686 5.266 17.684l7.429 9.147c4.758 5.859 11.719 8.9 18.736 8.9 5.341 0 10.716-1.762 15.176-5.384l20.299-16.485c1.794-1.458 4.056-2.26 6.368-2.26h5.793v124.383c0 9.453-.576 19.011-1.712 28.41-.497 4.112 2.434 7.849 6.545 8.346.306.037.609.055.91.055 3.74 0 6.976-2.794 7.437-6.601 1.208-9.994 1.821-20.158 1.821-30.21v-1.43h231.922v1.43c0 20.108 2.419 40.208 7.188 59.743l5.707 23.367c1.388 5.681.112 11.576-3.499 16.175-3.61 4.599-9.035 7.237-14.883 7.237h-220.95c-5.847 0-11.271-2.638-14.883-7.237-3.611-4.599-4.887-10.495-3.5-16.175l4.899-20.059c.983-4.024-1.482-8.083-5.506-9.065s-8.083 1.482-9.065 5.506l-4.9 20.059c-2.487 10.184-.2 20.752 6.273 28.998 6.474 8.245 16.198 12.973 26.681 12.973h220.95c10.482 0 20.208-4.729 26.682-12.974 6.473-8.245 8.76-18.814 6.272-28.997l-5.707-23.367c-4.486-18.371-6.761-37.274-6.761-56.185v-124.382h5.795c2.312 0 4.573.803 6.367 2.26l20.297 16.485c10.32 8.38 25.532 6.804 33.914-3.515l7.427-9.146c8.381-10.32 6.805-25.533-3.513-33.914zm-317.208 135.782v-61.875h231.922v61.875zm309.078-111.326-7.427 9.146c-3.166 3.898-8.916 4.495-12.813 1.328l-20.297-16.485c-4.46-3.622-10.079-5.616-15.824-5.616h-48.143c-4.143 0-7.5 3.358-7.5 7.5s3.357 7.5 7.5 7.5h27.348v31.077h-231.922v-31.077h172.612c4.143 0 7.5-3.358 7.5-7.5s-3.357-7.5-7.5-7.5h-193.406c-5.746 0-11.366 1.995-15.824 5.617l-20.299 16.485c-3.899 3.165-9.646 2.57-12.813-1.328l-7.429-9.147c-1.534-1.889-2.24-4.262-1.989-6.682s1.429-4.597 3.317-6.131l24.875-20.201c6.839-5.554 15.458-8.613 24.267-8.613h285.298c8.809 0 17.427 3.059 24.266 8.611l24.875 20.203c3.899 3.167 4.495 8.914 1.328 12.813z"/><path d="m177.833 29.982c-3.131 0-6.206.66-9.139 1.963-8.302 3.686-11.392 10.511-12.495 14.252-1.102 3.74-2.207 11.149 2.768 18.749l36.619 55.931c2.323 3.548 6.249 5.598 10.355 5.598 1.016 0 2.042-.125 3.059-.385 3.265-.833 5.989-2.9 7.669-5.821s2.098-6.314 1.177-9.555l-18.274-64.307c-3.207-11.284-13.517-16.425-21.739-16.425zm-6.317 26.748c-1.586-2.423-1.38-4.76-.929-6.292.452-1.534 1.546-3.608 4.193-4.783 1.005-.446 2.032-.672 3.053-.672 1.985 0 6.069 1.155 7.311 5.526l13.575 47.771z"/><path d="m303.954 126.091c1.017.26 2.043.385 3.06.385 4.106 0 8.032-2.051 10.354-5.599l36.618-55.931c4.975-7.598 3.87-15.007 2.769-18.751-1.104-3.74-4.192-10.564-12.495-14.251-2.933-1.302-6.008-1.962-9.139-1.962-8.223 0-18.533 5.14-21.739 16.425l-18.275 64.308c-.92 3.241-.502 6.635 1.179 9.555s4.403 4.988 7.668 5.821zm23.857-75.583c1.241-4.371 5.325-5.525 7.311-5.525 1.021 0 2.048.226 3.052.672 2.647 1.176 3.742 3.25 4.193 4.781.451 1.535.657 3.873-.929 6.295l-27.203 41.549z"/></g></g></svg>