<svg id="Capa_1" enable-background="new 0 0 511.65 511.65" height="512" viewBox="0 0 511.65 511.65" width="512" xmlns="http://www.w3.org/2000/svg"><g><g><path d="m437.668 403.823h-238.151c-14.262 0-25.824-11.562-25.824-25.824v-342.283c0-14.262 11.562-25.824 25.824-25.824h238.151c14.262 0 25.824 11.562 25.824 25.824v342.283c0 14.263-11.561 25.824-25.824 25.824z" fill="#f3f0f3"/><path d="m231.079 378v-342.284c0-14.262 11.562-25.824 25.824-25.824h-57.386c-14.262 0-25.824 11.562-25.824 25.824v342.284c0 14.262 11.562 25.824 25.824 25.824h57.386c-14.262-.001-25.824-11.562-25.824-25.824z" fill="#e2dee2"/><g><path d="m433.024 364.138v-319.345c0-4.028-3.265-7.293-7.293-7.293h-215.213c-4.028 0-7.293 3.265-7.293 7.293v319.346c0 4.028 3.265 7.293 7.293 7.293h215.213c4.028-.001 7.293-3.266 7.293-7.294z" fill="#b5adb6"/><path d="m312.602 90.219h-68.032c-7.451 0-13.491-6.04-13.491-13.491v-39.228h-20.562c-4.028 0-7.293 3.265-7.293 7.293v45.427 273.919c0 4.028 3.265 7.293 7.293 7.293h20.562 127.346v-235.389c0-25.308-20.516-45.824-45.823-45.824z" fill="#a79ba7"/><path d="m312.601 504.15h-238.151c-14.262 0-25.824-11.562-25.824-25.824v-342.283c0-14.262 11.562-25.824 25.824-25.824h238.151c14.262 0 25.824 11.562 25.824 25.824v342.283c0 14.262-11.562 25.824-25.824 25.824z" fill="#f3f0f3"/><path d="m121.872 487.752c-14.262 0-25.824-11.562-25.824-25.824v-342.283c0-3.328.636-6.505 1.783-9.426h-23.381c-14.262 0-25.824 11.562-25.824 25.824v342.283c0 14.262 11.562 25.824 25.824 25.824h238.151c10.934 0 20.275-6.799 24.041-16.398z" fill="#e2dee2"/><path d="m78.625 469.946v-325.523c0-2.322 1.882-4.204 4.204-4.204h221.392c2.322 0 4.204 1.882 4.204 4.204v325.523c0 2.322-1.882 4.204-4.204 4.204h-221.391c-2.322 0-4.205-1.882-4.205-4.204z" fill="#b5adb6"/><path d="m82.83 474.15h16.29c-1.959-3.639-3.072-7.8-3.072-12.222v-321.709h-13.218c-2.322 0-4.204 1.882-4.204 4.204v325.523c-.001 2.322 1.882 4.204 4.204 4.204z" fill="#a79ba7"/></g></g><g><path d="m312.601 102.719h-238.151c-18.374 0-33.323 14.949-33.323 33.324v342.283c0 18.375 14.949 33.324 33.323 33.324h238.151c18.375 0 33.324-14.949 33.324-33.324v-138.263c0-4.142-3.357-7.5-7.5-7.5s-7.5 3.358-7.5 7.5v138.264c0 10.104-8.22 18.324-18.324 18.324h-238.151c-10.104 0-18.323-8.22-18.323-18.324v-342.284c0-10.104 8.22-18.324 18.323-18.324h238.151c10.104 0 18.324 8.22 18.324 18.324v172.058c0 4.142 3.357 7.5 7.5 7.5s7.5-3.358 7.5-7.5v-172.058c0-18.375-14.949-33.324-33.324-33.324z"/><path d="m78.625 237.516c-4.143 0-7.5 3.358-7.5 7.5v229.134c0 4.142 3.357 7.5 7.5 7.5h229.8c4.143 0 7.5-3.358 7.5-7.5v-333.931c0-4.142-3.357-7.5-7.5-7.5h-229.8c-4.143 0-7.5 3.358-7.5 7.5v72.834c0 4.142 3.357 7.5 7.5 7.5s7.5-3.358 7.5-7.5v-65.334h214.8v318.931h-214.8v-221.634c0-4.142-3.357-7.5-7.5-7.5z"/><path d="m437.201 0h-238.152c-18.375 0-33.324 14.949-33.324 33.324v46.896c0 4.142 3.357 7.5 7.5 7.5s7.5-3.358 7.5-7.5v-46.896c0-10.104 8.22-18.324 18.324-18.324h238.151c10.104 0 18.323 8.22 18.323 18.324v342.284c0 10.104-8.22 18.324-18.323 18.324h-68.775c-4.143 0-7.5 3.358-7.5 7.5s3.357 7.5 7.5 7.5h68.775c18.374 0 33.323-14.949 33.323-33.324v-342.284c.001-18.375-14.948-33.324-33.322-33.324z"/><path d="m425.524 363.931h-57.099c-4.143 0-7.5 3.358-7.5 7.5s3.357 7.5 7.5 7.5h64.599c4.143 0 7.5-3.358 7.5-7.5v-333.931c0-4.142-3.357-7.5-7.5-7.5h-78.618c-4.143 0-7.5 3.358-7.5 7.5s3.357 7.5 7.5 7.5h71.118z"/><path d="m210.725 80.219v-35.219h111.719c4.143 0 7.5-3.358 7.5-7.5s-3.357-7.5-7.5-7.5h-119.219c-4.143 0-7.5 3.358-7.5 7.5v42.719c0 4.142 3.357 7.5 7.5 7.5s7.5-3.358 7.5-7.5z"/><path d="m107.875 307.185c0 5.171 3.119 9.71 7.945 11.565l25.828 9.924-11.245 25.278c-2.104 4.724-1.1 10.14 2.557 13.797 2.388 2.388 5.524 3.645 8.729 3.645 1.704 0 3.428-.355 5.068-1.085l25.279-11.246 9.923 25.827c1.854 4.827 6.395 7.946 11.564 7.946 5.171 0 9.711-3.119 11.565-7.946l9.923-25.827 25.279 11.246c1.641.729 3.363 1.085 5.067 1.085 3.205 0 6.343-1.257 8.729-3.644 3.656-3.656 4.661-9.072 2.56-13.796l-11.247-25.28 25.827-9.923c4.827-1.854 7.946-6.394 7.946-11.565s-3.119-9.71-7.946-11.565l-25.826-9.923 11.246-25.28c2.102-4.725 1.097-10.14-2.56-13.796-3.654-3.656-9.069-4.663-13.797-2.56l-25.279 11.246-9.923-25.827c-1.854-4.827-6.395-7.946-11.565-7.946s-9.71 3.119-11.564 7.946l-9.923 25.827-25.28-11.246c-4.728-2.102-10.143-1.097-13.797 2.561-3.656 3.657-4.659 9.072-2.558 13.795l11.246 25.28-25.827 9.923c-4.824 1.853-7.944 6.393-7.944 11.564zm47.338 27.9c2.911 3.986 6.426 7.501 10.411 10.411l-18.755 8.343zm38.313-60.323c17.878 0 32.422 14.544 32.422 32.422s-14.544 32.422-32.422 32.422-32.423-14.544-32.423-32.422 14.545-32.422 32.423-32.422zm-7.351 79.273c2.397.375 4.851.572 7.351.572s4.954-.198 7.35-.572l-7.351 19.131zm35.252-8.538c3.986-2.911 7.501-6.426 10.412-10.412l8.344 18.755zm18.949-30.962c.375-2.396.572-4.851.572-7.35s-.198-4.954-.572-7.35l19.131 7.35zm-8.538-35.251c-2.911-3.986-6.425-7.501-10.411-10.412l18.755-8.344zm-38.312-38.08 7.35 19.131c-2.396-.374-4.85-.572-7.35-.572s-4.954.198-7.351.572zm-27.902 27.668c-3.986 2.911-7.5 6.426-10.411 10.411l-8.343-18.755zm-18.949 30.962c-.375 2.396-.572 4.851-.572 7.35 0 2.5.198 4.954.572 7.351l-19.131-7.351z"/></g></g></svg>