<svg id="Capa_1" enable-background="new 0 0 511.383 511.383" height="512" viewBox="0 0 511.383 511.383" width="512" xmlns="http://www.w3.org/2000/svg"><g><g><path d="m272.07 429.971 15.41 6.885c45.854 20.489 98.381-9.584 103.928-59.5l3.736-33.627c.996-8.96-8.856-15.061-16.434-10.178l-12.02 7.746c-1.137.733-2.484 1.071-3.832.963l-10.849-.868c-30.784-2.463-60.124 13.467-74.825 40.626l-5.114 9.447-14.423 26.81z" fill="#57be92"/><path d="m239.776 429.971-15.41 6.885c-45.854 20.489-98.381-9.584-103.928-59.5l-3.736-33.627c-.996-8.96 8.856-15.061 16.434-10.178l12.02 7.746c1.137.733 2.484 1.071 3.832.963l10.849-.868c30.784-2.463 60.124 13.467 74.825 40.626l5.114 9.447 13.949 26.622z" fill="#57be92"/><path d="m143.82 367.404-3.228-29.048-7.455-4.805c-7.578-4.884-17.43 1.217-16.434 10.178l3.736 33.627c5.546 49.916 58.074 79.989 103.927 59.5l15.41-6.885.065-.055c-43.79 13.972-90.792-15.445-96.021-62.512z" fill="#22b27f"/><path d="m283.315 291.477-11.57 26.252c-.446 1.011-.676 2.105-.676 3.21v173.989c0 4.946-4.01 8.956-8.956 8.956h-13.383c-4.946 0-8.956-4.01-8.956-8.956v-173.99c0-1.105-.23-2.198-.676-3.21l-11.57-26.252-23.274-45.168h104.279z" fill="#57be92"/><path d="m278.641 61.662-3.732-4.085c-21.821-23.889-50.128-40.906-81.461-48.971-2.02-.52-3.988 1.005-3.988 3.091v33.923 110.534h112.677l12.686-57.692z" fill="#fe76a8"/><path d="m314.824 98.461-36.183-36.799-3.732-4.085c-10.853-11.881-23.311-22.058-36.947-30.284l-11.034 8.314c-4.331 3.263-10.054 4.024-15.083 1.995-7.305-2.948-14.78-5.48-22.386-7.568v15.585 18.223 92.311h112.677l7.802-35.478z" fill="#fe5694"/><path d="m322.385 41.619v-30.923c0-2.086-1.968-3.611-3.988-3.091-22.891 5.893-44.167 16.563-62.479 31.199l-48.368 36.449v88.517h114.835z" fill="#fe76a8"/><path d="m240.617 51.884c-.383-.228-.766-.456-1.15-.682l-31.917 24.051v12.865 75.652h105.435 9.4v-122.151-19.271c-23.119 5.928-45.19 15.809-65.021 29.074-5.041 3.371-11.541 3.572-16.747.462z" fill="#fe5694"/><path d="m281.877 106.427-3.858-4.362c-27.257-30.819-63.757-51.987-104.043-60.341l-26.782-5.553c-3.641-.755-6.744 2.695-5.608 6.236l2.868 8.942v23.176 120.586h148.504l9.18-59.333z" fill="#fe76a8"/><path d="m281.877 106.427-3.858-4.362c-10.979-12.414-23.459-23.258-37.081-32.334l-8.82 6.498c-4.373 3.222-10.243 3.405-14.875.568-21.5-13.166-46.212-21.019-71.83-22.25l-.959-.046v20.022 120.586h30.007 118.497l9.18-59.333z" fill="#fe5694"/><path d="m365.392 72.523v-23.176l2.868-8.942c1.135-3.54-1.968-6.991-5.608-6.236l-26.782 5.553c-30.162 6.254-58.202 19.692-81.829 38.985l-64.58 47.58v57.041h173.68z" fill="#fe76a8"/><g><path d="m238.938 99.648c-1.956-1.851-3.961-3.646-6.014-5.382l-43.464 32.022v57.041h23.485 79.311 70.884l2.251-110.806v-19.667c-40.112 2.421-77.426 19.104-105.755 46.66-5.749 5.594-14.871 5.645-20.698.132z" fill="#fe5694"/><path d="m252.249 139.969c.09-.14-5.806-8.655-5.806-8.655-23.26-33.81-60.99-54.82-101.99-56.79l-26.65-1.28c-5.69-.27-9.07 6.28-5.53 10.75l3.89 4.93c1.27 1.62 1.97 3.62 1.97 5.68v62.22c0 66.81 47.73 122.48 110.95 134.76l65.661-71.585z" fill="#fe76a8"/><g id="XMLID_222_"><g><path d="m294.744 219.999-42.496-80.03c.09-.14-5.806-8.655-5.806-8.655-2.074-3.015-4.268-5.922-6.564-8.729-1.421 1.999-2.817 4.022-4.158 6.095-17.414 26.916-26.618 58.149-26.618 90.324v9.893c0 8.601-10.391 13.005-16.511 6.962-25.206-24.887-40.83-59.455-40.83-97.674v-62.22c0-.297-.019-.592-.047-.885-2.408-.25-4.828-.438-7.261-.555l-26.65-1.28c-5.69-.27-9.07 6.28-5.53 10.75l3.89 4.93c1.27 1.62 1.97 3.62 1.97 5.68v62.22c0 66.81 47.73 122.48 110.95 134.76l20.163-21.982c-4.378-1.324-8.663-2.862-12.844-4.599h17.063z" fill="#fe5694"/><path d="m393.913 72.544c5.55 0 8.65 6.4 5.21 10.76l-4.44 5.62c-1.27 1.62-1.97 3.62-1.97 5.68v62.22c0 37.91-15.37 72.23-40.21 97.08-24.85 24.84-59.17 40.21-97.08 40.21-9.01 0-17.81-.87-26.34-2.53l.02-2.41v-70.17c0-29.29 8.6-56.57 23.41-79.46 26.09-40.32 71.45-67 123.05-67z" fill="#fe76a8"/><path d="m257.303 269.869c-9.591 0-19.002-.549-28.2-1.591v20.897l-.02 2.41c8.53 1.66 17.33 2.53 26.34 2.53 37.91 0 72.23-15.37 97.08-40.21 2.008-2.009 3.966-4.093 5.847-6.223-29.064 14.023-63.776 22.187-101.047 22.187z" fill="#fe5694"/></g></g></g></g><path d="m385.215 94.605v62.219c0 21.61-5.415 43.001-15.661 61.861-1.977 3.64-.629 8.193 3.011 10.17 3.643 1.979 8.194.629 10.171-3.01 11.435-21.051 17.479-44.918 17.479-69.021v-62.219c0-.374.127-.741.357-1.033l4.438-5.621c3.388-4.291 4.011-10.012 1.626-14.932-2.384-4.919-7.261-7.976-12.728-7.976h-18.343c-.894 0-1.784.019-2.675.034v-14.556l2.511-7.826c1.355-4.231.392-8.73-2.58-12.034s-7.347-4.737-11.693-3.835l-26.782 5.554c-1.492.31-2.978.652-4.462.996v-22.679c0-3.33-1.509-6.41-4.141-8.45-2.631-2.041-5.99-2.733-9.217-1.905-22.341 5.751-42.931 15.669-61.283 29.5-17.867-13.191-38.143-22.892-59.928-28.5-3.223-.83-6.584-.136-9.215 1.905-2.632 2.04-4.141 5.12-4.141 8.45v24.15c-2.149-.521-4.302-1.019-6.463-1.467l-26.781-5.554c-4.353-.903-8.723.532-11.694 3.836s-3.935 7.803-2.577 12.034l2.509 7.825v14.134l-18.793-.902c-5.591-.273-10.687 2.665-13.255 7.657s-2.003 10.83 1.476 15.235l3.891 4.927c.231.293.358.66.358 1.034v62.219c0 68.371 47.637 125.82 111.463 140.914l10.145 23.019c.024.056.037.117.037.181v44.125c-17.545-21.467-44.761-33.408-73.036-31.146l-10.399.832-11.641-7.501c-5.963-3.843-13.414-3.91-19.443-.175-6.031 3.734-9.291 10.434-8.508 17.485l3.736 33.627c1.662 14.959 7.345 29.08 16.433 40.835 1.478 1.912 3.696 2.913 5.938 2.913 1.603 0 3.217-.511 4.582-1.567 3.277-2.534 3.88-7.244 1.347-10.521-7.403-9.575-12.033-21.096-13.392-33.316l-3.736-33.626c-.194-1.75.854-2.679 1.497-3.077s1.94-.923 3.421.031l12.022 7.748c2.505 1.613 5.523 2.373 8.489 2.133l10.849-.868c27.81-2.224 54.354 12.189 67.632 36.721l4.209 7.775v11.67c-23.821-1.133-46.322-11.807-62.269-29.687-2.758-3.09-7.498-3.363-10.59-.605-3.091 2.757-3.362 7.498-.605 10.589 18.791 21.068 45.37 33.57 73.464 34.714v5.062l-10.969 4.901c-18.693 8.354-39.815 7.718-57.955-1.74-3.675-1.915-8.202-.491-10.118 3.183-1.915 3.673-.49 8.203 3.183 10.118 11.856 6.181 24.749 9.287 37.678 9.287 11.31 0 22.646-2.378 33.332-7.152l4.85-2.167v62.346c0 4.142 3.357 7.5 7.5 7.5s7.5-3.358 7.5-7.5v-182.948c0-2.163-.442-4.262-1.313-6.234l-6.139-13.931c5.126.552 10.329.843 15.599.843 5.235 0 10.443-.293 15.605-.857l-6.147 13.947c-.87 1.977-1.312 4.073-1.312 6.232v182.944c0 4.142 3.357 7.5 7.5 7.5s7.5-3.358 7.5-7.5v-62.792l5.851 2.614c10.766 4.81 22.101 7.2 33.392 7.2 13.949 0 27.83-3.648 40.473-10.887 22.876-13.096 37.666-35.633 40.577-61.833l3.736-33.627c.783-7.05-2.477-13.75-8.508-17.484-6.03-3.734-13.48-3.667-19.443.175l-11.641 7.501-10.4-.832c-28.816-2.311-56.536 10.147-74.036 32.403v-45.382c0-.063.014-.128.039-.185l10.162-23.056c27.852-6.621 53.473-21.422 73.154-42.779 2.807-3.046 2.613-7.791-.434-10.598-3.046-2.807-7.791-2.613-10.598.433-24.516 26.604-59.313 41.863-95.47 41.863-6.391 0-12.672-.472-18.818-1.369v-66.241c0-76.624 62.338-138.962 138.962-138.962h16.576l-3.343 4.233c-2.312 2.928-3.585 6.596-3.585 10.328zm-106.55 300.431 5.114-9.447c13.278-24.531 39.822-38.948 67.631-36.72l10.849.868c2.976.242 5.986-.52 8.493-2.135l12.02-7.746c1.48-.953 2.777-.428 3.421-.031.643.398 1.691 1.327 1.497 3.076l-3.736 33.627c-2.376 21.385-14.449 39.781-33.122 50.471-18.672 10.69-40.649 11.786-60.292 3.009l-11.97-5.348v-4.575c28.463-.884 55.451-13.436 74.465-34.754 2.757-3.091 2.485-7.833-.605-10.589-3.092-2.756-7.831-2.485-10.59.605-16.17 18.13-39.079 28.849-63.27 29.727v-9.881c.03-.053.066-.102.095-.157zm58.727-347.969 22.341-4.633-1.482 4.623c-.237.74-.358 1.513-.358 2.291v16.717c-27.977 3.213-53.696 13.949-75.076 30.136-5.384-6.013-11.132-11.672-17.196-16.972 21.247-15.719 45.881-26.793 71.771-32.162zm-22.507-30.714v21.139c-12.004 3.804-23.638 8.746-34.708 14.742-4.086-4.453-8.381-8.671-12.866-12.646 14.486-10.394 30.436-18.189 47.574-23.235zm-93.28 202.653v63.132c-55.221-14.918-95.974-65.442-95.974-125.314v-62.219c0-3.732-1.273-7.4-3.585-10.329l-2.726-3.452 24.774 1.189c38.419 1.845 74.37 21.865 96.17 53.555l3.133 4.554c-13.829 23.086-21.792 50.071-21.792 78.884zm30.785-92.266c-23.098-33.366-60.218-55.113-100.435-59.167v-16.226c0-.777-.121-1.55-.358-2.29l-1.482-4.623 22.34 4.632c10.842 2.248 21.544 5.505 31.81 9.682 3.839 1.562 8.213-.285 9.773-4.121 1.561-3.837-.284-8.212-4.121-9.773-4.254-1.731-8.579-3.313-12.954-4.746v-22.754c26.709 7.876 50.741 22.554 69.992 42.721-4.581 2.96-9.046 6.099-13.368 9.43-4.311-3.21-8.742-6.268-13.315-9.127-3.51-2.194-8.139-1.129-10.335 2.384-2.196 3.512-1.129 8.139 2.384 10.335 14.485 9.056 27.582 20.073 38.981 32.735-6.918 6.377-13.254 13.373-18.912 20.908z"/></g></svg>