<svg id="Capa_1" enable-background="new 0 0 511.557 511.557" height="512" viewBox="0 0 511.557 511.557" width="512" xmlns="http://www.w3.org/2000/svg"><g><g><g><path d="m477.568 181.509h-196.12c-14.18 0-25.67 11.49-25.67 25.67v191.531 77.379l16.014 16.714h174.024l57.422-16.714v-23.943-244.967c0-14.18-11.49-25.67-25.67-25.67z" fill="#fef1da"/></g><path d="m230.108 181.509h-196.12c-14.18 0-25.67 11.49-25.67 25.67v268.91c0-1.916 0 0 0 0l75.408 16.714h147.155l24.896-16.714v-268.91c.001-14.18-11.489-25.67-25.669-25.67z" fill="#fae2c0"/><path d="m71.496 483.243c-7.61 0-13.77-6.17-13.77-13.77v-14.2-268.91c0-1.66.163-3.282.464-4.854h-24.202c-14.18 0-25.67 11.49-25.67 25.67v268.061.849l75.408 16.714h147.155l14.239-9.559h-173.624z" fill="#fdd79b"/><path d="m256.278 7.499c-115.34 0-209.18 93.84-209.18 209.18v46.43h45 45 21.401v-91.662l49.752-59.845 99.373 5.832 51.336 62.871 6.261 81.402-2.916 1.403h13.152 45 42.04v-43.64c2.961-118.131-90.879-211.971-206.219-211.971z" fill="#99e6fc"/><g><path d="m84.599 224.18c0-115.34 93.84-209.18 209.18-209.18 7.433 0 14.8.388 22.034 1.148-18.859-5.629-38.861-8.65-59.535-8.65-115.34 0-209.18 93.84-209.18 209.18v46.43h37.501z" fill="#62dbfb"/></g><g><path d="m256.278 52.499c-90.53 0-164.18 73.65-164.18 164.18v46.43h45 23.452l7.144-91.662 42.81-45.577 79.612-8.436 63.088 66.093v79.583h22.253 45v-46.43c.001-90.531-73.649-164.181-164.179-164.181z" fill="#fe76a8"/><path d="m256.278 97.499c-65.71 0-119.18 53.46-119.18 119.18v46.43h45v-46.43c0-40.9 33.28-74.18 74.18-74.18s74.18 33.28 74.18 74.18v46.43h45v-46.43c0-65.72-53.47-119.18-119.18-119.18z" fill="#fee45a"/><path d="m438.111 83.749c-5.703-4-10.489-8.672-14.273-14.082-1.627-2.326-5.117-2.339-6.63.063-3.522 5.594-8.351 10.224-14.248 14.066-2.514 1.638-2.397 5.307.19 6.826 5.925 3.481 10.635 7.854 13.908 13.283 1.535 2.546 5.213 2.602 6.791.083 3.599-5.744 8.287-10.195 13.906-13.542 2.493-1.485 2.732-5.031.356-6.697z" fill="#fee45a"/><path d="m156.845 187.27c-5.703-4-10.489-8.672-14.273-14.082-1.627-2.326-5.117-2.339-6.63.063-3.522 5.594-8.351 10.224-14.248 14.066-2.514 1.638-2.397 5.307.19 6.826 5.925 3.481 10.635 7.854 13.908 13.283 1.535 2.546 5.213 2.602 6.791.083 3.599-5.744 8.287-10.195 13.906-13.542 2.493-1.485 2.731-5.031.356-6.697z" fill="#fff5c6"/><path d="m102.257 89.505c-5.703-4-10.489-8.672-14.273-14.082-1.627-2.326-5.117-2.339-6.63.063-3.522 5.594-8.351 10.224-14.248 14.066-2.514 1.638-2.397 5.307.19 6.826 5.925 3.481 10.635 7.854 13.908 13.283 1.535 2.546 5.213 2.602 6.791.083 3.599-5.744 8.287-10.195 13.906-13.542 2.493-1.485 2.731-5.031.356-6.697z" fill="#fee45a"/><g id="XMLID_253_"><g><g id="XMLID_254_"><g><path d="m503.238 476.089v14.2c0 7.6-6.16 13.77-13.77 13.77h-233.69v-27.97c0-16.03 13-29.03 29.03-29.03h189.4c16.03 0 29.03 13 29.03 29.03z" fill="#fae2c0"/></g></g><g id="XMLID_255_"><g><path d="m255.778 476.089v27.97h-233.69c-7.61 0-13.77-6.17-13.77-13.77v-14.2c0-16.03 13-29.03 29.03-29.03h189.4c16.03 0 29.03 13 29.03 29.03z" fill="#fdd79b"/></g></g><path d="m85.586 483.243c-15.387 0-27.86-12.473-27.86-27.86v-.11-8.214h-20.378c-16.033 0-29.03 12.997-29.03 29.03v14.2c0 7.6 6.16 13.77 13.77 13.77h233.69v-20.816z" fill="#fccd7f"/></g></g></g></g><g><path d="m393.644 87.402c.093 4.021 2.227 7.642 5.707 9.686 5.044 2.963 8.734 6.459 11.283 10.688 2.081 3.452 5.729 5.534 9.757 5.568h.102c3.974 0 7.599-2.004 9.711-5.375 2.892-4.614 6.617-8.238 11.39-11.082 3.399-2.025 5.517-5.588 5.663-9.529.144-3.879-1.665-7.524-4.84-9.751-5.043-3.537-9.226-7.655-12.433-12.24-2.229-3.187-5.877-5.045-9.763-4.94-3.827.092-7.325 2.075-9.359 5.304-2.848 4.522-6.772 8.375-11.996 11.779-3.362 2.192-5.314 5.89-5.222 9.892zm27.004-9.559c2.66 3.214 5.69 6.207 9.065 8.954-3.479 2.575-6.559 5.561-9.213 8.934-2.544-3.22-5.605-6.13-9.156-8.706 3.571-2.779 6.682-5.848 9.304-9.182z"/><path d="m139.125 216.867h.102c3.974 0 7.599-2.004 9.711-5.376 2.891-4.613 6.616-8.237 11.389-11.081 3.4-2.025 5.518-5.587 5.664-9.529.144-3.879-1.665-7.524-4.84-9.751-5.044-3.538-9.227-7.656-12.433-12.24-2.229-3.188-5.877-5.037-9.763-4.94-3.827.092-7.325 2.075-9.359 5.304-2.849 4.523-6.772 8.376-11.996 11.778-3.362 2.191-5.315 5.889-5.222 9.891.093 4.021 2.227 7.642 5.707 9.687 5.043 2.963 8.734 6.458 11.283 10.688 2.081 3.452 5.729 5.534 9.757 5.569zm.257-35.502c2.66 3.213 5.69 6.207 9.065 8.954-3.479 2.575-6.559 5.562-9.213 8.934-2.544-3.22-5.605-6.13-9.156-8.706 3.571-2.778 6.681-5.848 9.304-9.182z"/><path d="m63.497 102.845c5.043 2.963 8.734 6.458 11.283 10.688 2.081 3.452 5.729 5.534 9.757 5.568h.102c3.974 0 7.599-2.004 9.711-5.376 2.891-4.612 6.616-8.237 11.389-11.081 3.4-2.025 5.518-5.587 5.664-9.529.144-3.879-1.665-7.524-4.84-9.751-5.044-3.538-9.227-7.656-12.433-12.24-2.229-3.188-5.868-5.053-9.763-4.94-3.827.092-7.325 2.075-9.359 5.304-2.848 4.523-6.771 8.375-11.996 11.778-3.362 2.191-5.315 5.889-5.222 9.891.093 4.022 2.227 7.643 5.707 9.688zm21.297-19.245c2.66 3.213 5.69 6.207 9.065 8.954-3.479 2.575-6.559 5.562-9.213 8.934-2.544-3.221-5.604-6.131-9.156-8.706 3.571-2.779 6.681-5.849 9.304-9.182z"/><path d="m510.739 207.177c0-18.288-14.878-33.167-33.167-33.167h-8.792c-3.544-17.773-9.334-35.014-17.34-51.565-1.804-3.729-6.288-5.29-10.017-3.486-3.729 1.803-5.29 6.289-3.486 10.017 13.282 27.46 20.017 56.966 20.017 87.699v38.936h-30v-38.936c-.001-94.662-77.014-171.675-171.676-171.675s-171.675 77.013-171.675 171.675v38.936h-30v-38.936c0-27.495 5.44-54.155 16.17-79.24 1.629-3.809-.138-8.216-3.946-9.845-3.81-1.629-8.216.137-9.845 3.946-5.883 13.754-10.278 27.949-13.18 42.475h-9.817c-18.288 0-33.167 14.878-33.167 33.167v283.111c0 11.728 9.541 21.269 21.269 21.269h467.382c11.728 0 21.269-9.542 21.269-21.269zm-411.136 9.498c0-86.391 70.284-156.675 156.675-156.675s156.675 70.284 156.675 156.675v38.936h-30v-38.936c0-21.453-5.495-42.674-15.891-61.37-2.013-3.62-6.58-4.924-10.2-2.91-3.62 2.013-4.923 6.58-2.91 10.2 9.159 16.472 14 35.172 14 54.08v38.936h-30v-38.936c0-13.973-3.533-27.135-9.743-38.648-.021-.04-.04-.082-.062-.122-13.826-25.528-40.855-42.905-71.869-42.905s-58.043 17.377-71.869 42.905c-.022.04-.041.081-.062.122-6.211 11.513-9.743 24.675-9.743 38.648v38.936h-30v-16.313c0-4.142-3.358-7.5-7.5-7.5s-7.5 3.358-7.5 7.5v16.313h-30v-38.936zm156.175-30.477c-6.087-7.434-15.331-12.187-25.667-12.187h-25.023c12.241-14.662 30.642-24.01 51.19-24.01s38.95 9.349 51.19 24.01h-26.023c-10.335-.001-19.58 4.753-25.667 12.187zm-221.793 2.812h7.362c-1.159 9.117-1.744 18.346-1.744 27.665v38.936h-.531c-4.142 0-7.5 3.358-7.5 7.5s3.358 7.5 7.5 7.5h157.36c4.142 0 7.5-3.358 7.5-7.5s-3.358-7.5-7.5-7.5h-6.829v-38.936c0-9.867 2.171-19.231 6.034-27.665h34.474c10.018 0 18.167 8.149 18.167 18.167v239.43c-6.043-4.424-13.485-7.045-21.531-7.045h-189.398c-8.046 0-15.488 2.62-21.531 7.045v-239.43c0-10.017 8.15-18.167 18.167-18.167zm-18.167 301.278v-14.194c0-11.873 9.659-21.531 21.531-21.531h189.398c11.873 0 21.531 9.659 21.531 21.531v20.463h-226.191c-3.456 0-6.269-2.813-6.269-6.269zm479.92 0c0 3.457-2.813 6.269-6.269 6.269h-226.191v-20.463c0-11.872 9.659-21.531 21.531-21.531h120.454c4.142 0 7.5-3.358 7.5-7.5s-3.358-7.5-7.5-7.5h-120.454c-8.046 0-15.489 2.62-21.531 7.045v-239.43c0-10.017 8.149-18.167 18.167-18.167h35.474c3.863 8.434 6.034 17.798 6.034 27.665v38.936h-7.829c-4.142 0-7.5 3.358-7.5 7.5s3.358 7.5 7.5 7.5h157.36c4.142 0 7.5-3.358 7.5-7.5 0-3.984-3.108-7.233-7.031-7.476v-38.959c0-9.334-.6-18.559-1.752-27.665h6.371c10.017 0 18.167 8.149 18.167 18.167v239.43c-6.043-4.424-13.485-7.045-21.531-7.045h-36.981c-4.142 0-7.5 3.358-7.5 7.5s3.358 7.5 7.5 7.5h36.981c11.872 0 21.531 9.659 21.531 21.531v14.193z"/><path d="m154.711 153.941c1.318.936 2.834 1.386 4.336 1.386 2.347 0 4.659-1.099 6.121-3.158 20.977-29.536 55.037-47.169 91.11-47.169 29.875 0 57.971 11.698 79.111 32.938 2.922 2.935 7.67 2.945 10.607.025 2.936-2.922 2.947-7.671.025-10.607-23.977-24.089-55.848-37.356-89.743-37.356-40.923 0-79.554 19.994-103.339 53.483-2.398 3.377-1.605 8.059 1.772 10.458z"/><path d="m115.66 69.318c1.8 0 3.605-.644 5.042-1.949 37.167-33.771 85.316-52.369 135.576-52.369 47.069 0 92.881 16.569 128.996 46.654 3.183 2.651 7.912 2.222 10.563-.962 2.651-3.183 2.22-7.912-.962-10.563-38.805-32.326-88.027-50.129-138.597-50.129-53.998 0-105.729 19.983-145.663 56.267-3.066 2.785-3.293 7.529-.507 10.594 1.479 1.629 3.512 2.457 5.552 2.457z"/><path d="m39.072 321.968h10.989c4.142 0 7.5-3.358 7.5-7.5s-3.358-7.5-7.5-7.5h-10.989c-4.142 0-7.5 3.358-7.5 7.5s3.358 7.5 7.5 7.5z"/><path d="m81.81 321.968h141.572c4.142 0 7.5-3.358 7.5-7.5s-3.358-7.5-7.5-7.5h-141.572c-4.142 0-7.5 3.358-7.5 7.5s3.358 7.5 7.5 7.5z"/><path d="m39.072 359.386h184.31c4.142 0 7.5-3.358 7.5-7.5s-3.358-7.5-7.5-7.5h-184.31c-4.142 0-7.5 3.358-7.5 7.5s3.358 7.5 7.5 7.5z"/><path d="m39.072 396.803h184.31c4.142 0 7.5-3.358 7.5-7.5s-3.358-7.5-7.5-7.5h-184.31c-4.142 0-7.5 3.358-7.5 7.5s3.358 7.5 7.5 7.5z"/><path d="m288.175 321.968h141.572 42.738c4.142 0 7.5-3.358 7.5-7.5s-3.358-7.5-7.5-7.5h-42.738-141.572c-4.142 0-7.5 3.358-7.5 7.5s3.357 7.5 7.5 7.5z"/><path d="m288.175 359.386h184.31c4.142 0 7.5-3.358 7.5-7.5s-3.358-7.5-7.5-7.5h-184.31c-4.142 0-7.5 3.358-7.5 7.5s3.357 7.5 7.5 7.5z"/><path d="m479.984 389.303c0-4.142-3.358-7.5-7.5-7.5h-184.31c-4.142 0-7.5 3.358-7.5 7.5s3.358 7.5 7.5 7.5h184.31c4.142 0 7.5-3.358 7.5-7.5z"/></g></g></svg>