<svg id="Capa_1" enable-background="new 0 0 512.366 512.366" height="512" viewBox="0 0 512.366 512.366" width="512" xmlns="http://www.w3.org/2000/svg"><g><g><g><g id="XMLID_257_"><g><path d="m323.363 235.969v236.004c0 17.638-13.892 32.501-31.525 32.887-9.197.202-17.537-3.444-23.535-9.442-5.84-5.83-9.45-13.9-9.45-22.8v-119.92l-2.1-1.46c-10.02 2.96-20.06 2.79-30.1-.5l-.46 1.96v119.92c0 8.9-3.61 16.97-9.45 22.8-5.998 5.998-14.338 9.644-23.535 9.442-17.634-.386-31.525-15.249-31.525-32.887v-236.004c0-1.35-1.857-1.718-2.372-.47l-36.468 88.419c-4.67 11.31-17.27 17.1-28.89 13.26-9.84-3.25-16.02-12.39-16.02-22.16 0-2.68.46-5.4 1.44-8.06l56.07-152.23c6.25-16.95 22.39-28.21 40.45-28.21h20.36 92.54 20.36c18.06 0 34.2 11.26 40.45 28.21l56.07 152.23c4.56 12.38-2.05 26.08-14.58 30.22-2.42.8-4.89 1.18-7.32 1.18-9.21 0-17.87-5.49-21.57-14.44l-36.468-88.419c-.514-1.248-2.372-.88-2.372.47z" fill="#b5adb6"/></g></g><path d="m309.153 126.518h-20.36-92.54-20.36c-18.06 0-34.2 11.26-40.45 28.21l-56.07 152.23c-.98 2.66-1.44 5.38-1.44 8.06 0 9.77 6.18 18.91 16.02 22.16 5.828 1.926 11.893 1.41 17.088-.992.482-.223.626-.828.335-1.272-2.47-3.768-3.84-8.219-3.84-12.811 0-2.68.46-5.4 1.44-8.06l56.07-152.23c.033-.089.066-.179.1-.268 4.666-12.402 19.667-17.216 30.932-10.239 13.507 8.366 29.421 13.201 46.445 13.201 29.335 0 55.379-14.348 71.491-36.393.399-.546.038-1.315-.635-1.383-1.394-.139-2.803-.213-4.226-.213z" fill="#a79ba7"/><circle cx="242.523" cy="76.003" fill="#b5adb6" r="68.503"/><path d="m208.992 76.003c0-31.789 21.668-58.518 51.03-66.248-5.583-1.47-11.454-2.255-17.498-2.255-37.833 0-68.503 30.67-68.503 68.503s30.67 68.503 68.503 68.503c6.044 0 11.903-.791 17.486-2.26-29.362-7.73-51.018-34.454-51.018-66.243z" fill="#a79ba7"/></g><g fill="#cb97e7"><path d="m66.357 434.884c-4.151 0-7.515-3.365-7.515-7.515v-31.755c0-4.151 3.365-7.515 7.515-7.515 12.92 0 23.393 10.473 23.393 23.393 0 12.919-10.474 23.392-23.393 23.392z"/><path d="m103.939 97.127c-4.151 0-7.515-3.365-7.515-7.515v-31.756c0-4.151 3.365-7.515 7.515-7.515 12.92 0 23.393 10.473 23.393 23.393 0 12.919-10.473 23.393-23.393 23.393z"/><path d="m446.008 279.785c4.151 0 7.515-3.365 7.515-7.515v-31.755c0-4.151-3.365-7.515-7.515-7.515-12.92 0-23.393 10.473-23.393 23.393 0 12.918 10.474 23.392 23.393 23.392z"/></g></g><g><path d="m193.937 177.655c4.142 0 7.5-3.358 7.5-7.5s-3.358-7.5-7.5-7.5h-7.226c-4.142 0-7.5 3.358-7.5 7.5s3.358 7.5 7.5 7.5z"/><path d="m446.009 225.499c-14.449 0-26.608 9.971-29.968 23.393h-23.763l-35.64-96.758c-7.297-19.806-26.38-33.114-47.487-33.114h-4.014c8.436-12.241 13.391-27.058 13.391-43.016 0-13.076-3.396-25.993-9.82-37.353-2.038-3.605-6.616-4.876-10.22-2.836-3.606 2.039-4.876 6.615-2.837 10.22 5.153 9.112 7.877 19.476 7.877 29.969 0 33.637-27.366 61.003-61.004 61.003-31.874 0-58.1-24.577-60.764-55.772h40.694c4.142 0 7.5-3.358 7.5-7.5s-3.358-7.5-7.5-7.5h-40.141c4.69-29.009 29.899-51.235 60.21-51.235 11.761 0 23.189 3.369 33.052 9.743 3.477 2.247 8.121 1.251 10.37-2.228 2.248-3.479 1.251-8.122-2.228-10.37-12.293-7.945-26.538-12.145-41.194-12.145-38.596 0-70.542 28.926-75.354 66.234h-33.262c-3.36-13.422-15.519-23.393-29.968-23.393-8.28 0-15.016 6.736-15.016 15.016v31.755c0 8.28 6.736 15.016 15.016 15.016 14.448 0 26.607-9.971 29.968-23.393h32.813c.954 13.96 5.684 26.895 13.19 37.786h-4.014c-21.107 0-40.19 13.308-47.486 33.114l-21.131 57.365c-1.432 3.887.559 8.198 4.445 9.63.855.315 1.73.464 2.591.464 3.053 0 5.922-1.878 7.039-4.91l13.64-37.03h24.444c4.142 0 7.5-3.358 7.5-7.5s-3.358-7.5-7.5-7.5h-18.919l1.966-5.336c5.133-13.936 18.561-23.299 33.411-23.299h17.606c13.245 11.208 30.352 17.987 49.021 17.987s35.776-6.778 49.021-17.987h17.606c14.851 0 28.278 9.363 33.411 23.299l17.826 48.395h-9.614c-4.143 0-7.5 3.358-7.5 7.5s3.357 7.5 7.5 7.5h15.139l10.379 28.179h-7.343c-4.143 0-7.5 3.358-7.5 7.5s3.357 7.5 7.5 7.5h12.868l16.818 45.657c1.497 4.064 1.285 8.452-.597 12.353s-5.184 6.797-9.297 8.155c-7.841 2.592-16.452-1.362-19.602-8.998l-5.053-12.251h5.862c4.143 0 7.5-3.358 7.5-7.5s-3.357-7.5-7.5-7.5h-12.047l-27.62-66.971c-.005-.012-.01-.024-.015-.036l-8.036-19.484c-1.578-3.829-5.96-5.653-9.793-4.074-3.829 1.58-5.653 5.964-4.074 9.793l7.499 18.183v76.559h-46.479c-4.143 0-7.5 3.358-7.5 7.5s3.357 7.5 7.5 7.5h46.479v35.191h-8.128c-4.143 0-7.5 3.358-7.5 7.5s3.357 7.5 7.5 7.5h8.128v83.863h-21.764c-4.143 0-7.5 3.358-7.5 7.5s3.357 7.5 7.5 7.5h21.764v.782c0 13.648-11.104 24.752-24.752 24.752s-24.752-11.104-24.752-24.752v-53.623h11.547c4.143 0 7.5-3.358 7.5-7.5s-3.357-7.5-7.5-7.5h-11.547v-48.284c1.657-.717 3.312-1.504 4.965-2.371 3.668-1.925 5.081-6.458 3.157-10.126-1.926-3.669-6.459-5.079-10.126-3.157-14.686 7.705-28.997 7.703-43.753-.006-3.672-1.919-8.203-.497-10.12 3.175-1.918 3.671-.497 8.202 3.175 10.12 1.677.876 3.355 1.67 5.035 2.393v84.051h-24.752c-4.142 0-7.5 3.358-7.5 7.5s3.358 7.5 7.5 7.5h24.752v17.827c0 13.648-11.104 24.752-24.752 24.752s-24.752-11.104-24.752-24.752v-53.623h15.687c4.142 0 7.5-3.358 7.5-7.5s-3.358-7.5-7.5-7.5h-15.687v-21.22h17.526c4.142 0 7.5-3.358 7.5-7.5s-3.358-7.5-7.5-7.5h-17.526v-90.255h59.288c4.142 0 7.5-3.358 7.5-7.5s-3.358-7.5-7.5-7.5h-59.288v-31.294l7.5-18.185c1.579-3.829-.245-8.213-4.074-9.793s-8.214.245-9.793 4.074l-8.031 19.473c-.009.021-.018.043-.026.064l-38.853 94.206c-3.149 7.635-11.758 11.589-19.602 8.998-4.113-1.358-7.415-4.254-9.296-8.155-1.882-3.901-2.094-8.289-.597-12.353l8.568-23.261h13.006c4.142 0 7.5-3.358 7.5-7.5s-3.358-7.5-7.5-7.5h-7.481l9.782-26.556c1.432-3.887-.559-8.198-4.445-9.63-3.888-1.433-8.198.559-9.63 4.445l-23.875 64.817c-2.916 7.915-2.503 16.458 1.162 24.055s10.095 13.237 18.104 15.882c3.167 1.045 6.395 1.543 9.582 1.543 12.184-.001 23.729-7.281 28.59-19.066l24.411-59.188v136.401h-57.86c-3.36-13.421-15.519-23.393-29.968-23.393-8.279 0-15.015 6.736-15.015 15.015v31.755c0 8.279 6.736 15.015 15.015 15.015 14.448 0 26.607-9.971 29.968-23.393h57.86v53.623c0 21.919 17.833 39.752 39.752 39.752s39.752-17.833 39.752-39.752v-112.465c2.94.466 5.881.703 8.821.703 2.95 0 5.9-.238 8.847-.707v112.469c0 21.919 17.833 39.752 39.752 39.752s39.752-17.833 39.752-39.752v-205.025l15.096 36.602c.008.02.016.041.025.061l9.291 22.527c4.861 11.787 16.404 19.067 28.589 19.066 3.187 0 6.417-.498 9.583-1.543 8.009-2.645 14.438-8.285 18.104-15.882 3.665-7.597 4.078-16.14 1.163-24.055l-14.908-40.473h18.237c3.36 13.422 15.519 23.393 29.968 23.393 8.279 0 15.016-6.736 15.016-15.015v-31.755c-.004-8.281-6.74-15.016-15.019-15.016zm-342.07-135.872-.016-.016.016-31.771c8.764 0 15.893 7.129 15.893 15.893s-7.129 15.894-15.893 15.894zm-37.582 337.757-.015-.015.015-31.771c8.764 0 15.893 7.129 15.893 15.893s-7.13 15.893-15.893 15.893zm379.663-155.1s-.004 0-.012 0c-8.764 0-15.894-7.129-15.894-15.893 0-8.754 7.113-15.877 15.881-15.877h.028z"/></g></g></svg>