<svg id="Capa_1" enable-background="new 0 0 510.558 510.558" height="512" viewBox="0 0 510.558 510.558" width="512" xmlns="http://www.w3.org/2000/svg"><g><g><circle cx="254.577" cy="254.962" fill="#cb97e7" r="248.377"/><path d="m76.433 254.962c0-125.036 92.898-228.791 213.282-245.904-11.476-1.631-23.218-2.473-35.138-2.473-136.955-.001-248.377 111.421-248.377 248.377s111.422 248.377 248.377 248.377c11.92 0 23.731-.856 35.207-2.487-120.383-17.114-213.351-120.854-213.351-245.89z" fill="#bd80e1"/><circle cx="254.577" cy="254.962" fill="#f2fbff" r="210.377"/><path d="m165.962 64.173c-71.843 33.505-121.762 106.428-121.762 190.789 0 84.36 49.929 157.29 121.772 190.796-54.674-45.592-89.54-114.205-89.54-190.796.001-76.592 34.857-145.197 89.53-190.789z" fill="#dff6fd"/><circle cx="254.577" cy="254.962" fill="#cb97e7" r="159.377"/><circle cx="254.577" cy="254.962" fill="#f2fbff" r="120.377"/><circle cx="254.577" cy="254.961" fill="#fe76a8" r="67.377"/><g><path d="m385.756 241.344-131.179-10.103v48.075l131.179-10.102 20.829-2.254.469-23.358z" fill="#f3f0f3"/><path d="m404.759 279.316h80.814c9.656 0 17.484-7.828 17.484-17.484v-13.107c0-9.656-7.828-17.484-17.484-17.484h-80.814z" fill="#918291"/><path d="m487.869 260.787h-35.049c-6.109 0-11.061-4.952-11.061-11.061v-18.485h-34.704-2.295v48.075h37 43.815c9.656 0 17.484-7.828 17.484-17.484v-9.891c-3.01 5.279-8.679 8.846-15.19 8.846z" fill="#7a6d79"/><path d="m401.359 298.225h13.997c3.537 0 6.404-2.867 6.404-6.404v-73.086c0-3.537-2.867-6.404-6.404-6.404h-13.997c-8.617 0-15.603 6.986-15.603 15.603v54.688c0 8.618 6.985 15.603 15.603 15.603z" fill="#cbc4cc"/><path d="m414.55 279.696c-8.617 0-15.603-6.986-15.603-15.603v-51.556c-7.469 1.162-13.191 7.603-13.191 15.398v54.688c0 8.617 6.986 15.603 15.603 15.603h13.997c3.537 0 6.404-2.867 6.404-6.404v-12.126z" fill="#b5adb6"/></g></g><g><path d="m485.573 223.741h-56.314v-5.005c0-7.667-6.237-13.903-13.903-13.903h-13.997c-12.739 0-23.103 10.364-23.103 23.103v5.378l-116.274-9.093c-.55-3.6-3.65-6.36-7.404-6.36-4.143 0-7.5 3.358-7.5 7.5v59.206c0 4.142 3.357 7.5 7.5 7.5 3.528 0 6.478-2.438 7.278-5.719l41.225-3.242c4.13-.325 7.214-3.936 6.889-8.065-.324-4.129-3.937-7.213-8.064-6.889l-39.827 3.132v-32.01l116.179 9.086v13.843l-44.482 3.494c-4.13.324-7.215 3.935-6.89 8.064.309 3.93 3.593 6.913 7.469 6.913.196 0 .396-.008.595-.023l43.309-3.401v5.375c0 12.739 10.363 23.103 23.103 23.103h13.997c7.666 0 13.903-6.237 13.903-13.904v-5.005h56.314c13.776 0 24.984-11.208 24.984-24.984v-13.107c-.002-13.779-11.21-24.987-24.987-24.987zm-71.314 66.984h-12.9c-4.468 0-8.103-3.635-8.103-8.103v-54.688c0-4.468 3.635-8.103 8.103-8.103h12.9zm81.299-28.893c0 5.505-4.479 9.984-9.984 9.984h-56.314v-33.075h56.314c5.506 0 9.984 4.479 9.984 9.984z"/><path d="m255.077 195.719c14.259 0 28.063 5.134 38.87 14.456 3.136 2.704 7.872 2.356 10.577-.78 2.706-3.137 2.356-7.873-.78-10.578-13.529-11.67-30.813-18.097-48.667-18.097-41.113 0-74.561 33.448-74.561 74.56 0 41.113 33.447 74.561 74.561 74.561 17.854 0 35.139-6.427 48.667-18.098 3.136-2.706 3.485-7.441.779-10.578s-7.442-3.486-10.578-.78c-10.806 9.321-24.609 14.455-38.868 14.455-32.842 0-59.561-26.719-59.561-59.561.001-32.842 26.719-59.56 59.561-59.56z"/><path d="m356.841 207.677c1.758 3.75 6.221 5.366 9.974 3.609 3.751-1.758 5.366-6.223 3.608-9.974-10.126-21.608-26.083-39.91-46.146-52.926-20.605-13.368-44.534-20.434-69.2-20.434-70.208 0-127.326 57.118-127.326 127.326s57.118 127.327 127.326 127.327c24.666 0 48.595-7.066 69.2-20.434 20.062-13.016 36.019-31.317 46.146-52.926 1.758-3.75.143-8.216-3.608-9.974-3.749-1.757-8.216-.143-9.974 3.608-18.427 39.319-58.371 64.725-101.764 64.725-61.937 0-112.326-50.39-112.326-112.327s50.39-112.326 112.326-112.326c43.394.001 83.338 25.408 101.764 64.726z"/><path d="m396.233 190.13c1.157 0 2.333-.269 3.432-.836 3.682-1.898 5.127-6.422 3.229-10.104-28.674-55.596-85.313-90.133-147.816-90.133-32.731 0-64.413 9.517-91.618 27.521-3.454 2.286-4.4 6.939-2.114 10.394 2.285 3.453 6.937 4.4 10.394 2.115 24.742-16.375 53.561-25.03 83.339-25.03 56.864 0 108.396 31.424 134.484 82.009 1.331 2.582 3.953 4.064 6.67 4.064z"/><path d="m399.665 321.263c-3.679-1.897-8.203-.454-10.104 3.228-26.089 50.585-77.62 82.009-134.484 82.009-83.384 0-151.221-67.837-151.221-151.221 0-40.188 15.598-78.027 43.92-106.548 2.918-2.939 2.901-7.688-.037-10.606s-7.688-2.903-10.606.037c-31.132 31.349-48.276 72.942-48.276 117.117 0 91.655 74.566 166.221 166.221 166.221 62.503 0 119.143-34.537 147.816-90.133 1.898-3.682.453-8.205-3.229-10.104z"/><path d="m460.081 208.49c4.004-1.063 6.388-5.169 5.325-9.173-25.26-95.175-111.751-161.646-210.329-161.646-58.125 0-112.771 22.635-153.872 63.736s-63.736 95.747-63.736 153.872 22.636 112.771 63.736 153.873c41.101 41.101 95.747 63.736 153.872 63.736 15.804 0 31.597-1.711 46.941-5.087 4.045-.89 6.604-4.891 5.714-8.936-.89-4.044-4.883-6.605-8.937-5.713-14.288 3.143-28.997 4.736-43.719 4.736-111.719 0-202.608-90.89-202.608-202.608s90.89-202.608 202.608-202.608c91.784 0 172.313 61.885 195.831 150.494 1.064 4.002 5.17 6.386 9.174 5.324z"/><path d="m328.309 444.237c-3.862 1.498-5.778 5.843-4.28 9.705 1.152 2.971 3.988 4.79 6.994 4.79.901 0 1.819-.164 2.71-.51 64.682-25.09 113.905-80.036 131.674-146.981 1.063-4.003-1.321-8.11-5.325-9.173s-8.11 1.322-9.173 5.325c-16.543 62.326-62.375 113.482-122.6 136.844z"/><path d="m498.615 300.581c-4.054-.878-8.041 1.695-8.917 5.743-11.422 52.749-40.875 100.708-82.937 135.042-42.65 34.816-96.52 53.99-151.685 53.99-64.127 0-124.415-24.972-169.76-70.317s-70.316-105.633-70.316-169.76 24.973-124.416 70.317-169.76c45.345-45.345 105.633-70.317 169.76-70.317 55.165 0 109.034 19.174 151.685 53.99 42.062 34.334 71.515 82.293 82.937 135.042.877 4.048 4.87 6.621 8.917 5.743 4.049-.876 6.62-4.869 5.743-8.917-12.138-56.055-43.429-107.013-88.11-143.487-45.321-36.996-102.56-57.37-161.171-57.37-68.134 0-132.188 26.533-180.366 74.71-48.179 48.177-74.712 112.232-74.712 180.366s26.533 132.189 74.711 180.367 112.232 74.71 180.366 74.71c58.611 0 115.85-20.375 161.171-57.37 44.682-36.474 75.973-87.432 88.11-143.487.877-4.049-1.694-8.042-5.743-8.918z"/></g></g></svg>