<svg id="Capa_1" enable-background="new 0 0 512.265 512.265" height="512" viewBox="0 0 512.265 512.265" width="512" xmlns="http://www.w3.org/2000/svg"><g><g><g id="XMLID_259_"><g><path d="m322.511 373.633 152.032-53.466c10.98-3.86 23.09 1.26 27.97 11.82 1.42 3.06 2.09 6.28 2.09 9.45 0 8.18-4.47 16.05-12.19 20.05l-162.53 84.17c-10.62 5.5-22.41 8.37-34.37 8.37h-139.89c-17.9 0-35.21-6.42-48.77-18.1l-4.41-3.8h-24.76-37.82v-118.77h37.82 12.62 86.19c12.93 0 25.33 5.14 34.47 14.28h92.037c14.753 0 27.169 11.654 27.429 26.404.135 7.652-2.924 14.595-7.935 19.564-.013.014 0 .034.017.028z" fill="#fed2a4"/></g></g><g><path d="m330.421 354.041-.538.278c-10.623 5.5-22.411 8.37-34.374 8.37h-136.064c0 8.11 6.575 14.685 14.685 14.685h124.951c7.979 0 15.88-1.284 23.411-3.768l.06-.06c4.87-4.86 7.88-11.59 7.88-19.02.001-.162-.008-.322-.011-.485z" fill="#ffbd86"/></g><path d="m502.513 331.987c-.92-1.99-2.101-3.793-3.479-5.373-1.814 2.083-4.027 3.878-6.621 5.223l-162.53 84.17c-10.62 5.5-22.41 8.37-34.37 8.37h-139.89c-17.9 0-35.21-6.42-48.77-18.1-.025-.021-.05-.043-.075-.064-5.422-4.613-8.757-11.202-8.762-18.321-.018-25.126-.061-73.833-.121-74.534h-20.212-37.82v89.119 6.5 23.151h37.82 24.76l4.41 3.8c13.56 11.68 30.87 18.1 48.77 18.1h139.89c11.96 0 23.75-2.87 34.37-8.37l162.53-84.17c7.72-4 12.19-11.87 12.19-20.05 0-3.171-.67-6.391-2.09-9.451z" fill="#ffbd86"/><path d="m12.381 443.689h52.187c7.433 0 13.458-6.025 13.458-13.458v-114.007c0-7.433-6.025-13.458-13.458-13.458h-52.187c-2.696 0-4.881 2.186-4.881 4.882v131.16c0 2.695 2.185 4.881 4.881 4.881z" fill="#cb97e7"/><path d="m50.542 402.981c-13.343 0-24.159-10.817-24.159-24.159v-76.056h-14.002c-2.696 0-4.882 2.186-4.882 4.882v131.16c0 2.696 2.186 4.882 4.882 4.882h52.187c7.433 0 13.458-6.025 13.458-13.458v-27.25h-27.484z" fill="#bd80e1"/><path d="m250.873 60.478-8.568 7.134c-23.239 19.348-40.681 44.742-50.398 73.377l-2.808 8.274c-.769 2.266-3.12 3.591-5.457 3.075l-17.655-3.901c-2.276-.503-4.434 1.23-4.434 3.561v47.776c0 52.746 42.189 96.465 94.933 96.856 53.163.394 96.383-42.583 96.383-95.655v-49.171c0-2.521-2.497-4.282-4.872-3.435l-16.181 5.773c-2.45.874-5.144-.411-6.006-2.866l-3.056-8.705c-10.421-29.685-28.732-55.97-52.967-76.032l-7.34-6.076c-3.359-2.781-8.223-2.775-11.574.015z" fill="#fee45a"/><g><path d="m193.236 222.19v-47.776c0-2.331 2.157-4.064 4.434-3.561l9.124 2.016c7.193 1.589 14.429-2.488 16.797-9.463 9.718-28.635 27.159-54.029 50.398-73.377l8.569-7.134c.881-.734 1.889-1.279 2.925-1.628-4.904-5.212-10.147-10.136-15.695-14.729l-7.34-6.076c-3.359-2.781-8.222-2.774-11.573.016l-8.568 7.134c-23.239 19.348-40.68 44.741-50.398 73.375l-2.808 8.275c-.769 2.266-3.12 3.591-5.457 3.075l-17.656-3.901c-2.276-.503-4.434 1.23-4.434 3.561v47.776c0 39.618 23.803 74.142 58.001 89.04-16.331-17.439-26.319-40.962-26.319-66.623z" fill="#fedf30"/></g><path d="m308.69 245.153c0 28.431-23.048 51.48-51.48 51.48-28.431 0-51.48-23.048-51.48-51.48 0-21.198 28.618-62.444 43.18-82.058 4.137-5.573 12.463-5.573 16.6 0 14.562 19.613 43.18 60.859 43.18 82.058z" fill="#fec165"/><path d="m286.411 267.432c0 16.127-13.074 29.201-29.201 29.201s-29.201-13.074-29.201-29.201c0-12.024 16.233-35.42 24.493-46.546 2.347-3.161 7.07-3.161 9.416 0 8.26 11.125 24.493 34.521 24.493 46.546z" fill="#fe76a8"/><g fill="#fee45a"><path d="m469.17 245.057c0 16.127-13.074 29.201-29.201 29.201s-29.201-13.074-29.201-29.201c0-12.024 16.233-35.42 24.493-46.546 2.347-3.161 7.069-3.161 9.416 0 8.26 11.126 24.493 34.522 24.493 46.546z"/><path d="m132.122 129.714c0 16.127-13.074 29.201-29.201 29.201s-29.201-13.074-29.201-29.201c0-12.024 16.233-35.42 24.493-46.546 2.347-3.161 7.07-3.161 9.416 0 8.26 11.126 24.493 34.522 24.493 46.546z"/></g></g><g><path d="m509.47 328.691c-6.54-14.148-22.562-20.917-37.266-15.747l-52.682 18.528c-3.907 1.375-5.961 5.656-4.587 9.563 1.375 3.908 5.656 5.964 9.563 4.587l52.682-18.528c7.368-2.592 15.396.801 18.674 7.891 3.39 7.332.427 15.985-6.747 19.699l-162.524 84.166c-9.517 4.927-20.209 7.532-30.923 7.532h-139.89c-16.097 0-31.679-5.785-43.877-16.289l-4.414-3.8c-1.361-1.172-3.098-1.816-4.894-1.816h-17.059v-103.766h91.11c11.02 0 21.379 4.291 29.17 12.083 1.406 1.406 3.314 2.197 5.304 2.197h92.58c10.693 0 19.394 8.7 19.394 19.393 0 10.694-8.7 19.394-19.394 19.394h-75.074c-3.471 0-6.733 1.352-9.185 3.805l-12.91 12.91c-2.93 2.929-2.93 7.677-.001 10.606 1.465 1.465 3.384 2.197 5.304 2.197 1.919 0 3.839-.732 5.303-2.197l12.322-12.321h74.241c8.664 0 16.583-3.227 22.637-8.533l67.742-23.824c3.907-1.375 5.961-5.656 4.587-9.563s-5.653-5.961-9.563-4.587l-51.547 18.129c.346-1.955.537-3.962.537-6.014 0-18.964-15.429-34.393-34.394-34.393h-89.599c-10.318-9.231-23.499-14.279-37.455-14.279h-93.965c-3.635-6.235-10.379-10.446-18.102-10.446h-57.068c-4.143 0-7.5 3.358-7.5 7.5s3.357 7.5 7.5 7.5h57.068c3.285 0 5.958 2.673 5.958 5.958v114.007c0 3.285-2.673 5.958-5.958 5.958h-57.068c-4.143 0-7.5 3.358-7.5 7.5s3.357 7.5 7.5 7.5h57.068c8.235 0 15.355-4.786 18.78-11.712h16.453l2.305 1.983c14.918 12.847 33.977 19.922 53.664 19.922h139.89c13.104 0 26.182-3.185 37.82-9.211l162.525-84.166c14.317-7.415 20.231-24.684 13.465-39.316z"/><path d="m256.43 304.13c.264.002.524.003.788.003 27.413-.001 53.193-10.616 72.663-29.943 19.66-19.515 30.487-45.517 30.487-73.216v-49.171c0-3.619-1.766-7.025-4.724-9.11-2.959-2.086-6.761-2.604-10.169-1.389l-13.523 4.825-2.122-6.043c-10.87-30.966-29.979-58.396-55.262-79.325l-7.339-6.076c-6.136-5.081-15.033-5.069-21.155.029l-8.568 7.134c-5.14 4.278-10.17 9.016-14.953 14.08-2.845 3.011-2.709 7.758.303 10.603 3.01 2.843 7.758 2.709 10.602-.303 4.374-4.631 8.965-8.955 13.646-12.852l8.568-7.134c.577-.48 1.413-.482 1.992-.003l7.34 6.076c23.183 19.19 40.705 44.343 50.673 72.739l3.056 8.704c1.082 3.084 3.303 5.558 6.252 6.966 2.95 1.409 6.269 1.58 9.352.481l11.032-3.936v43.705c0 23.672-9.253 45.893-26.054 62.57-2.987 2.965-6.153 5.679-9.464 8.155 4.048-7.983 6.339-16.999 6.339-26.546 0-12.032-7.747-36.81-44.657-86.529-3.401-4.581-8.622-7.208-14.323-7.208-5.7 0-10.92 2.628-14.32 7.209-36.91 49.716-44.658 74.496-44.658 86.529 0 9.326 2.189 18.145 6.061 25.991-21.376-16.347-35.24-42.299-35.24-71.37v-42.979l12.971 2.866c6.081 1.341 12.175-2.089 14.179-7.988l2.808-8.273c3.892-11.465 9.15-22.52 15.631-32.856 2.2-3.509 1.139-8.138-2.37-10.338-3.508-2.199-8.138-1.138-10.339 2.371-7.099 11.322-12.86 23.436-17.127 36.003l-1.999 5.893-15.2-3.359c-3.318-.733-6.737.066-9.386 2.193s-4.167 5.294-4.167 8.691v47.776c-.002 57.122 45.925 103.936 102.376 104.355zm-20.92-36.699c0-6.513 8.47-22.205 21.7-40.292 13.23 18.086 21.701 33.777 21.701 40.292 0 11.966-9.735 21.701-21.701 21.701s-21.7-9.735-21.7-21.701zm19.423-99.866c.742-1 1.745-1.15 2.277-1.15s1.536.149 2.278 1.15c26.112 35.173 41.701 64.178 41.701 77.587 0 8.971-2.706 17.319-7.335 24.282.036-.664.057-1.331.057-2.003 0-10.64-8.738-27.804-25.971-51.016-2.548-3.432-6.459-5.4-10.73-5.4s-8.183 1.969-10.73 5.401c-17.232 23.214-25.97 40.378-25.97 51.016 0 .681.033 1.354.07 2.026-4.639-6.968-7.349-15.324-7.349-24.304-.001-13.412 15.588-42.417 41.702-77.589z"/><path d="m439.969 281.758c20.237 0 36.701-16.464 36.701-36.701 0-10.639-8.738-27.803-25.972-51.017-2.548-3.432-6.458-5.4-10.729-5.4s-8.182 1.968-10.73 5.4c-17.232 23.215-25.97 40.379-25.97 51.016 0 20.238 16.463 36.702 36.7 36.702zm0-76.993c13.23 18.087 21.701 33.778 21.701 40.292 0 11.966-9.735 21.701-21.701 21.701s-21.7-9.735-21.7-21.701c0-6.512 8.47-22.204 21.7-40.292z"/><path d="m102.921 166.415c20.237 0 36.701-16.464 36.701-36.701 0-10.64-8.738-27.804-25.971-51.016-2.548-3.432-6.459-5.4-10.73-5.4s-8.183 1.969-10.729 5.4c-17.233 23.211-25.971 40.376-25.971 51.016 0 20.237 16.464 36.701 36.7 36.701zm0-76.993c13.23 18.086 21.701 33.777 21.701 40.292 0 11.966-9.735 21.701-21.701 21.701s-21.7-9.735-21.7-21.701c0-6.515 8.469-22.206 21.7-40.292z"/></g></g></svg>