<svg id="Capa_1" enable-background="new 0 0 510.404 510.404" height="512" viewBox="0 0 510.404 510.404" width="512" xmlns="http://www.w3.org/2000/svg"><g><g><path d="m106.38 360-25.526-25.526c-4.034-4.034-10.573-4.034-14.607 0l-12.084 12.084c-2.282 2.282-3.367 5.501-2.93 8.699l.55 4.036c.436 3.198-.648 6.416-2.93 8.699l-7.024 7.024c-2.764 2.764-6.851 3.731-10.56 2.498-3.709-1.232-7.796-.265-10.56 2.498l-10.183 10.183c-4.034 4.034-4.034 10.573 0 14.607l25.866 25.866 23.148 22.932 72.194-65.886z" fill="#e2dee2"/><path d="m301.582 188.005-32.94 31.218-138.571 138.571-30.014 29.727 26.701 27.21 30.049-30.2 138.572-138.572 30.903-30.784z" fill="#e2dee2"/><path d="m349.029 219.864-27.123 27.123c-7.061 7.061-18.51 7.061-25.571 0l-28.721-28.721c-7.061-7.061-7.061-18.51 0-25.571l26.796-26.795 23.331-23.331 55.319 55.319z" fill="#fee45a"/><path d="m301.346 222.576c-9.441-9.441-9.441-24.749 0-34.19l22.486-22.486 8.62-8.62-14.711-14.711-23.331 23.331-26.796 26.796c-7.061 7.061-7.061 18.51 0 25.571l28.721 28.722c7.061 7.061 18.509 7.061 25.57-.001l1.925-1.926z" fill="#fedf30"/><g><g id="XMLID_287_"><g><path d="m491.437 150.367c14.8 24.03 15.27 54.48 1.01 78.84-27.4 46.82-88.51 52.47-124.04 16.94-17.99-17.99-25.41-42.53-22.29-65.93.85-6.37-4.64-11.85-11.01-11-23.4 3.11-47.94-4.31-65.92-22.29-35.53-35.53-29.89-96.65 16.93-124.05 24.36-14.26 54.81-13.79 78.85 1.01 28.98 17.84 41.47 48.87 37.51 78.11-.86 6.34 4.52 11.71 10.86 10.85 29.23-3.96 60.26 8.53 78.1 37.52zm-39.01 68.77c15.73-15.72 15.73-41.3 0-57.02-15.72-15.72-41.3-15.72-57.02 0s-15.72 41.3 0 57.02 41.3 15.72 57.02 0zm-99.22-99.22c15.73-15.72 15.73-41.3.01-57.02-15.73-15.72-41.31-15.72-57.03 0s-15.72 41.3 0 57.02c15.72 15.73 41.3 15.73 57.02 0z" fill="#fee45a"/></g></g><g><path d="m392.476 226.175c-17.99-17.99-25.41-42.53-22.29-65.93.85-6.37-4.64-11.85-11.01-11-23.4 3.11-47.94-4.31-65.92-22.29-28.741-28.741-30.532-74.235-5.389-105.072-.584.322-1.173.655-1.75.993-46.82 27.4-52.46 88.52-16.93 124.05 17.98 17.98 42.52 25.4 65.92 22.29 6.37-.85 11.86 4.63 11.01 11-3.12 23.4 4.3 47.94 22.29 65.93 32.62 32.62 86.81 30.519 116.67-6.275-29.712 15.933-67.53 11.375-92.601-13.696z" fill="#fedf30"/></g><path d="m59.54 481.798-13.615 13.615c-3.433 3.433-9 3.433-12.433 0l-14.304-14.304c-3.433-3.433-3.433-9 0-12.433l13.615-13.615 30.623-29.404s27.132 24.386 26.486 24.709c-.647.324-30.372 31.432-30.372 31.432z" fill="#e2dee2"/><path d="m154.214 381.937-20.823-20.823c-6.964-6.964-18.256-6.964-25.22 0l-71.321 71.321c-6.964 6.964-6.964 18.256 0 25.22l20.823 20.823c6.964 6.964 18.256 6.964 25.22 0l71.321-71.321c6.964-6.964 6.964-18.256 0-25.22z" fill="#cbc4cc"/><path d="m65.209 480.074c-10.354-10.355-10.354-27.142 0-37.497l65.183-65.183c3.869-3.869 9.073-5.58 14.129-5.151l-11.13-11.13c-6.964-6.964-18.256-6.964-25.22 0l-71.321 71.321c-6.964 6.964-6.964 18.256 0 25.22l20.823 20.823c3.096 3.096 7.046 4.807 11.091 5.151z" fill="#b5adb6"/></g></g><g><path d="m290.884 57.594c-18.646 18.646-18.646 48.985 0 67.631 9.323 9.323 21.569 13.984 33.815 13.984s24.493-4.662 33.815-13.985c9.021-9.02 13.988-21.029 13.988-33.815s-4.968-24.795-13.987-33.815c-18.644-18.647-48.983-18.648-67.631 0zm57.025 57.024c-12.797 12.797-33.62 12.798-46.417 0-12.798-12.797-12.798-33.621 0-46.418 6.398-6.398 14.804-9.598 23.209-9.598 8.404 0 16.81 3.2 23.208 9.598 6.188 6.187 9.595 14.43 9.595 23.209s-3.408 17.022-9.595 23.209z"/><path d="m497.829 146.432c-18.435-29.949-51.19-45.666-85.501-41.017-.879.121-1.479-.259-1.817-.598-.34-.339-.719-.93-.599-1.818 4.649-34.304-11.067-67.065-41.017-85.5-26.589-16.365-59.758-16.786-86.564-1.096-23.852 13.959-39.501 37.277-42.936 63.976-3.431 26.67 5.494 52.858 24.485 71.85 5.777 5.777 12.22 10.613 19.134 14.46l-20.703 20.703c-4.832 4.832-7.494 11.256-7.494 18.089 0 4.751 1.29 9.303 3.698 13.261l-86.178 86.179c-2.929 2.929-2.929 7.678 0 10.606 1.464 1.464 3.384 2.197 5.303 2.197s3.839-.732 5.303-2.197l85.662-85.662 16.13 16.13-127.928 127.929-16.13-16.13 19.666-19.667c2.929-2.929 2.929-7.678 0-10.606-2.929-2.929-7.678-2.929-10.606 0l-21.884 21.884c-6.395-1.848-13.377-1.13-19.316 2.146l-22.38-22.381c-6.951-6.95-18.262-6.951-25.213 0l-12.084 12.085c-3.916 3.915-5.807 9.528-5.059 15.016l.55 4.036c.119.871-.182 1.761-.802 2.382l-7.025 7.025c-.761.761-1.869 1.023-2.892.684-6.44-2.14-13.426-.489-18.228 4.313l-10.182 10.181c-3.367 3.368-5.222 7.845-5.222 12.607s1.855 9.24 5.222 12.606l22.29 22.291c-3.47 6.025-4.262 13.18-2.372 19.721l-11.255 11.255c-3.078 3.077-4.772 7.168-4.772 11.52s1.695 8.443 4.772 11.52l14.304 14.304c3.176 3.176 7.348 4.764 11.52 4.764s8.344-1.588 11.52-4.764l10.878-10.878c2.646.898 5.411 1.351 8.177 1.351 6.488 0 12.975-2.469 17.914-7.408l71.321-71.321c7.044-7.044 9.061-17.238 6.057-26.09l130.284-130.284c3.958 2.408 8.51 3.698 13.26 3.698 6.833 0 13.257-2.661 18.089-7.493l20.912-20.912c3.927 7.27 8.941 14.032 14.978 20.068 16.321 16.321 37.954 25.207 60.643 25.207 3.713 0 7.457-.238 11.207-.721 26.698-3.435 50.018-19.084 63.977-42.936 15.689-26.807 15.268-59.977-1.097-86.565zm-482.829 251.067c0-.438.108-1.279.829-2l10.183-10.183c.762-.761 1.87-1.024 2.892-.685 6.444 2.143 13.428.489 18.228-4.312l7.025-7.025c3.915-3.916 5.806-9.529 5.058-15.015l-.55-4.036c-.119-.871.181-1.761.803-2.382l12.083-12.084c1.103-1.103 2.898-1.104 4.001 0l21.675 21.675-59.722 59.722-21.675-21.676c-.722-.72-.83-1.561-.83-1.999zm23.795 92.611-14.304-14.305c-.313-.313-.378-.669-.378-.913s.065-.6.378-.913l9.038-9.038 16.13 16.13-9.038 9.038c-.503.504-1.322.504-1.826.001zm110.115-88.256-71.321 71.321c-4.029 4.029-10.584 4.03-14.614 0l-20.823-20.823c-4.029-4.029-4.029-10.584 0-14.613l71.321-71.321c2.015-2.015 4.661-3.021 7.307-3.021s5.292 1.007 7.307 3.021l20.823 20.823c4.029 4.028 4.029 10.584 0 14.613zm167.692-160.17c-1.998 1.999-4.655 3.099-7.481 3.099s-5.483-1.101-7.481-3.099l-28.721-28.721c-1.999-1.999-3.1-4.656-3.1-7.482s1.101-5.483 3.1-7.482l24.848-24.848c12.131 3.99 25.175 5.249 38.334 3.495.958-.126 1.611.361 1.915.665.304.303.793.956.665 1.916-1.701 12.765-.568 25.419 3.141 37.236zm169.378-16.263c-11.594 19.81-30.892 32.798-52.945 35.635-22.023 2.83-43.648-4.536-59.329-20.215-15.76-15.76-23.105-37.495-20.155-59.632.716-5.371-1.081-10.658-4.928-14.504-3.291-3.292-7.636-5.081-12.186-5.081-.769 0-1.543.051-2.318.155-22.14 2.947-43.872-4.396-59.631-20.156-15.681-15.681-23.049-37.305-20.216-59.33 2.837-22.053 15.826-41.351 35.635-52.944 22.014-12.883 49.266-12.531 71.125.925 24.822 15.279 37.856 42.374 34.017 70.71-.728 5.364 1.042 10.627 4.854 14.44 3.813 3.813 9.07 5.581 14.44 4.856 28.328-3.843 55.432 9.192 70.712 34.016 13.454 21.857 13.808 49.111.925 71.125z"/><path d="m390.103 156.812c-18.646 18.646-18.646 48.985-.001 67.63 3.213 3.214 6.875 5.954 10.884 8.143 3.637 1.986 8.193.648 10.177-2.988 1.985-3.635.648-8.192-2.987-10.177-2.752-1.503-5.264-3.381-7.465-5.583-12.798-12.797-12.798-33.621 0-46.418 12.797-12.797 33.62-12.797 46.417 0 12.798 12.798 12.798 33.621 0 46.418-3.658 3.658-8.006 6.331-12.922 7.943-3.936 1.291-6.079 5.528-4.788 9.464 1.036 3.16 3.971 5.165 7.125 5.165.774 0 1.563-.121 2.339-.375 7.172-2.353 13.516-6.252 18.854-11.59 18.646-18.646 18.646-48.985-.001-67.631-18.646-18.647-48.985-18.646-67.632-.001z"/></g></g></svg>