<svg id="Capa_1" enable-background="new 0 0 511.446 511.446" height="512" viewBox="0 0 511.446 511.446" width="512" xmlns="http://www.w3.org/2000/svg"><g><g><g><path d="m359.777 445.714v-96.834c0-29.599-13.489-57.585-36.642-76.025l-17.734-14.124c-1.961-1.562-2.018-4.522-.119-6.159l20.74-17.867c21.431-18.463 33.755-45.346 33.755-73.634v-112.471h-208.108v112.472c0 28.287 12.324 55.171 33.755 73.634l20.74 17.867c1.899 1.636 1.842 4.597-.119 6.159l-17.734 14.124c-23.154 18.44-36.642 46.426-36.642 76.025v96.835 37.739h208.835z" fill="#f2fbff"/><g fill="#dff6fd"><path d="m201.95 348.88c0-29.6 13.489-57.586 36.642-76.025l17.734-14.124c1.961-1.562 2.018-4.522.119-6.158l-20.74-17.867c-21.431-18.463-33.756-45.346-33.756-73.634v-112.472h-50.281v112.472c0 28.288 12.324 55.171 33.755 73.634l20.74 17.867c1.899 1.636 1.842 4.597-.119 6.158l-17.734 14.124c-23.154 18.44-36.642 46.426-36.642 76.025v96.834 37.739h50.281v-37.739-96.834z"/><path d="m151.669 48.6h208.108v37h-208.108z"/><path d="m359.777 445.714v-19.867h-208.108v19.867 37.739h208.835z"/></g><path d="m304.443 296.323-17.73-14.13c-7.95-6.33-12.62-15.78-12.81-25.94-.2-10.15 4.1-19.78 11.8-26.41l1.152-.993-29.02-10.744 71.938-57.033v-117.47h-148.1v117.47c0 19.57 8.5 38.13 23.33 50.9l20.74 17.87.7.62c7.26 6.6 11.29 15.95 11.1 25.79-.19 10.16-4.86 19.61-12.81 25.95l-17.73 14.12c-16.1 12.82-25.33 31.98-25.33 52.56v136.39h148.1v-136.39c0-20.58-9.23-39.74-25.33-52.56z" fill="#c8effe"/><path d="m181.673 161.073 13.385 21.031 10.997 24.669 40.762 41.572 8.406 7.378 30.48-25.88 20.74-17.87c14.83-12.77 23.33-31.33 23.33-50.9z" fill="#cb97e7"/><path d="m329.273 85.6v-37h-127.323-20.277-.5v37l.5 75.474c0 19.57 8.5 38.13 23.33 50.9l20.74 17.87.7.62c7.26 6.6 11.29 15.95 11.1 25.79-.19 10.16-4.86 19.61-12.81 25.95l-17.73 14.12c-16.1 12.82-25.33 31.98-25.33 52.56v54.97 79.6h20.277v-37.739-96.835c0-29.599 13.488-57.585 36.642-76.025l17.734-14.124c1.961-1.562 2.018-4.522.119-6.158l-20.74-17.867c-21.431-18.463-33.756-45.346-33.756-73.634v-53.386c0-12.198 9.888-22.086 22.086-22.086z" fill="#99e6fc"/><g><g id="XMLID_288_"><g><path d="m329.773 403.853v81.42h-148.1v-81.42l51.91-21.37c13.87-5.71 29.42-5.75 43.32-.1z" fill="#cb97e7"/><path d="m201.95 401.965v-6.459l-20.277 8.348v21.994 57.606h20.277 127.823v-57.606h-103.941c-13.189-.001-23.882-10.694-23.882-23.883z" fill="#bd80e1"/></g></g></g><path d="m377.936 65.6h-244.426c-10.459 0-18.937-8.478-18.937-18.937v-33.02c0-3.393 2.751-6.144 6.144-6.144h270.013c3.393 0 6.144 2.751 6.144 6.144v33.019c-.001 10.459-8.479 18.938-18.938 18.938z" fill="#bc7c63"/><path d="m377.936 445.847h-244.426c-10.459 0-18.937 8.478-18.937 18.937v33.019c0 3.393 2.751 6.144 6.144 6.144h270.013c3.393 0 6.144-2.751 6.144-6.144v-33.019c-.001-10.459-8.479-18.937-18.938-18.937z" fill="#bc7c63"/><path d="m164.699 46.662v-33.019c0-3.393 2.751-6.143 6.144-6.143h-50.127c-3.393 0-6.144 2.75-6.144 6.143v33.019c0 10.459 8.478 18.937 18.937 18.937h50.127c-10.458.001-18.937-8.478-18.937-18.937z" fill="#aa6a51"/><path d="m164.699 497.803v-33.019c0-10.459 8.479-18.937 18.937-18.937h-50.126c-10.459 0-18.937 8.479-18.937 18.937v33.019c0 3.393 2.751 6.144 6.144 6.144h50.127c-3.394-.001-6.145-2.751-6.145-6.144z" fill="#aa6a51"/></g><path d="m205.003 211.973 20.74 17.87.7.62 28.78 25.26 2.197-1.865c-.23-.473-.545-.916-.974-1.286l-20.74-17.867c-21.431-18.462-33.755-45.345-33.756-73.632h-20.277c0 19.57 8.5 38.13 23.33 50.9z" fill="#bd80e1"/></g><path d="m367.277 161.071v-87.971h10.659c14.578 0 26.438-11.859 26.438-26.437v-33.02c0-7.523-6.121-13.643-13.644-13.643h-270.014c-7.523 0-13.644 6.12-13.644 13.643v33.02c0 14.578 11.859 26.437 26.438 26.437h10.659v87.972c0 30.5 13.253 59.41 36.359 79.316l17.539 15.109-14.43 11.491c-25.083 19.977-39.469 49.826-39.469 81.892v11.149c0 4.142 3.357 7.5 7.5 7.5s7.5-3.358 7.5-7.5v-11.149c0-27.472 12.325-53.044 33.813-70.159l17.735-14.124c2.688-2.141 4.267-5.339 4.333-8.774s-1.389-6.691-3.991-8.933l-20.74-17.867c-19.797-17.054-31.15-41.821-31.15-67.952v-87.971h15v87.972c0 21.759 9.455 42.384 25.939 56.587l20.695 17.827.07.062c5.983 5.166 9.327 12.659 9.175 20.565-.151 7.916-3.792 15.286-9.985 20.22l-17.735 14.123c-17.895 14.253-28.158 35.548-28.158 58.425v89.467h-15v-46.355c0-4.142-3.357-7.5-7.5-7.5s-7.5 3.358-7.5 7.5v46.355h-10.659c-14.578 0-26.438 11.859-26.438 26.437v33.019c0 7.523 6.12 13.644 13.644 13.644h270.014c7.523 0 13.644-6.121 13.644-13.644v-33.019c0-14.578-11.859-26.437-26.438-26.437h-10.659v-89.468c0-32.066-14.386-61.915-39.47-81.892l-14.429-11.491 17.539-15.109c23.107-19.908 36.36-48.817 36.36-79.317zm-88.035-87.971c4.143 0 7.5-3.358 7.5-7.5s-3.357-7.5-7.5-7.5h-145.732c-6.307 0-11.438-5.131-11.438-11.437v-31.663h267.301v31.663c0 6.306-5.131 11.437-11.438 11.437h-66.732c-4.143 0-7.5 3.358-7.5 7.5s3.357 7.5 7.5 7.5h11.073v80.472h-133.107v-80.472zm-89.582 95.471h132.126c-1.841 14.564-8.979 28.021-20.241 37.723l-20.724 17.854-25.517 21.667-24.612-21.608c-.008-.007-.017-.013-.025-.02-.01-.009-.019-.018-.028-.026l-20.739-17.867c-11.262-9.702-18.4-23.159-20.24-37.723zm22.012 133.617 17.735-14.124c9.607-7.653 15.282-19.049 15.622-31.31l2.693 2.365v58.946c0 4.142 3.357 7.5 7.5 7.5s7.5-3.358 7.5-7.5v-58.872l3.679-3.124c.001.11-.005.22-.003.331.239 12.396 5.938 23.938 15.638 31.664l17.735 14.125c14.302 11.39 22.504 28.409 22.504 46.691v43.834l-42.553-17.282c-5.519-2.241-11.232-3.676-17.001-4.344v-20.501c0-4.142-3.357-7.5-7.5-7.5s-7.5 3.358-7.5 7.5v20.535c-5.77.694-11.48 2.157-16.992 4.425l-41.562 17.109v-43.776c.002-18.283 8.205-35.301 22.505-46.692zm177.702 162.596v31.663h-267.301v-31.663c0-6.306 5.131-11.437 11.438-11.437h134.019c4.143 0 7.5-3.358 7.5-7.5s-3.357-7.5-7.5-7.5h-78.359v-29.469l47.272-19.46c5.959-2.454 12.219-3.702 18.486-3.758.099.004.195.015.295.015.112 0 .222-.012.333-.017 6.274.024 12.546 1.243 18.523 3.671l48.197 19.575v29.443h-22.785c-4.143 0-7.5 3.358-7.5 7.5s3.357 7.5 7.5 7.5h78.444c6.307 0 11.438 5.131 11.438 11.437zm-68.248-235.761-20.739 17.867c-2.604 2.242-4.059 5.498-3.992 8.933s1.646 6.633 4.334 8.774l17.733 14.124c21.489 17.115 33.814 42.687 33.814 70.159v89.467h-15v-89.467c0-22.877-10.264-44.172-28.159-58.425l-17.735-14.125c-6.193-4.934-9.833-12.303-9.984-20.219-.152-7.917 3.2-15.419 9.199-20.586l20.739-17.867c16.485-14.202 25.94-34.827 25.94-56.587v-87.971h15v87.972c.001 26.129-11.353 50.896-31.15 67.951z"/></g></svg>