<svg id="Capa_1" enable-background="new 0 0 511.824 511.824" height="512" viewBox="0 0 511.824 511.824" width="512" xmlns="http://www.w3.org/2000/svg"><g><g><path d="m410.113 387.407-7.117-7.606c-8.893-9.506-13.841-22.036-13.841-35.053v-202.535c.006-73.51-58.909-134.257-132.437-134.678-73.811-.423-133.993 59.498-133.993 133.213v204c0 13.017-4.948 25.548-13.841 35.053l-7.117 7.606c-26.772 28.615-41.666 66.336-41.666 105.522 0 6.293 5.101 11.394 11.394 11.394h53.68l3.489-4.459h34.139l5.873 4.459 21.371-.017-.01-.016 23.705-2.782 3.244-2.765h20.317l17.674-2.074 63.709 2.558 3.102 5.063-.031.016 21.449.017 2.4-4.443h37.928l3.175 4.443h53.677c6.293 0 11.394-5.101 11.394-11.394 0-39.186-14.895-76.907-41.667-105.522z" fill="#b5adb6"/><path d="m171.237 396.261 7.117-7.606c8.893-9.505 13.841-22.036 13.841-35.053v-204c0-67.112 49.903-122.796 114.54-131.912-15.406-6.448-32.294-10.053-50.017-10.155-73.811-.424-133.993 59.498-133.993 133.213v204c0 13.017-4.948 25.548-13.841 35.053l-7.117 7.606c-26.772 28.615-41.666 66.336-41.666 105.522 0 6.293 5.101 11.394 11.394 11.394h53.68l3.489-4.459h.93c.478-38.497 15.309-75.456 41.643-103.603z" fill="#a79ba7"/><g><path d="m324.76 352.194c21.091-18.898 34.367-46.342 34.367-76.891v-88.589c0-57.004-46.211-103.215-103.215-103.215-57.004 0-103.215 46.211-103.215 103.215v88.589c0 30.548 13.275 57.992 34.367 76.891l30.742 26.502h78.381z" fill="#a79ba7"/><path d="m198.648 275.304v-88.589c0-49.107 34.305-90.202 80.25-100.646-7.389-1.68-15.088-2.569-22.985-2.569-57.004 0-103.215 46.211-103.215 103.215v88.589c0 30.548 13.275 57.992 34.367 76.891l30.741 26.502h45.951l-30.741-26.502c-21.093-18.899-34.368-46.343-34.368-76.891z" fill="#918291"/><path d="m321.787 504.29c13.323-15.321 21.39-35.334 21.39-57.232 0-48.195-39.07-87.265-87.265-87.265s-87.265 39.07-87.265 87.265c0 21.898 8.067 41.911 21.39 57.232z" fill="#fee97d"/><circle cx="255.912" cy="447.058" fill="#cb97e7" r="57.264"/><path d="m228.648 447.058c0-26.434 17.934-48.681 42.282-55.275-4.782-1.295-9.826-1.989-15.018-1.989-31.626 0-57.264 25.638-57.264 57.264s25.638 57.264 57.264 57.264c5.192 0 10.24-.695 15.022-1.991-24.348-6.593-42.286-28.839-42.286-55.273z" fill="#bd80e1"/><path d="m386.703 504.323 2.353-13.626c1.854-10.734-1.297-21.726-8.555-29.849-1.551-1.736-2.496-3.93-2.69-6.25l-2.775-33.067c-.539-6.427-4.894-11.897-11.036-13.863-10.297-3.297-20.823 4.386-20.823 15.198v81.425z" fill="#fed2a4"/><path d="m168.647 504.29v-81.425c0-10.812-10.526-18.494-20.823-15.198-6.142 1.966-10.497 7.437-11.036 13.863l-2.775 33.067c-.195 2.32-1.139 4.514-2.69 6.25-7.258 8.122-10.409 19.115-8.555 29.849l2.353 13.626z" fill="#fed2a4"/><g fill="#f3f0f3"><path d="m237.913 193.457-34.676-33.023c-1.583-1.508-4.126-1.305-5.451.434-6.664 8.752-10.53 19.312-11.09 30.298l-.277 5.422c-.111 2.173 1.683 3.965 3.855 3.852l45.935-2.384c2.341-.12 3.401-2.983 1.704-4.599z"/><path d="m273.912 193.457 34.676-33.023c1.584-1.508 4.126-1.305 5.451.434 6.664 8.752 10.53 19.312 11.09 30.298l.277 5.422c.111 2.173-1.682 3.965-3.855 3.852l-45.935-2.384c-2.342-.12-3.402-2.983-1.704-4.599z"/></g></g></g><g><path d="m366.627 271.482c0-4.142-3.357-7.5-7.5-7.5s-7.5 3.358-7.5 7.5v3.822c0 27.167-11.616 53.156-31.871 71.305-3.085 2.764-3.345 7.506-.581 10.591 1.481 1.653 3.53 2.495 5.589 2.495 1.781 0 3.57-.631 5.002-1.914 23.426-20.99 36.861-51.052 36.861-82.477z"/><path d="m187.061 359.694c2.059 0 4.107-.842 5.589-2.495 2.764-3.085 2.504-7.827-.581-10.591-20.255-18.148-31.871-44.138-31.871-71.305v-88.588c0-52.778 42.938-95.715 95.715-95.715s95.715 42.938 95.715 95.715v52.804c0 4.142 3.357 7.5 7.5 7.5s7.5-3.358 7.5-7.5v-52.804c-.001-61.048-49.667-110.715-110.716-110.715s-110.715 49.667-110.715 110.715v88.588c0 31.425 13.436 61.486 36.861 82.477 1.432 1.283 3.221 1.914 5.003 1.914z"/><path d="m415.562 382.25-7.117-7.606c-7.62-8.146-11.817-18.774-11.817-29.929v-202.535c0-77.954-62.757-141.735-139.895-142.178-.279-.001-.551-.002-.83-.002-37.379 0-72.568 14.532-99.159 40.971-26.792 26.639-41.547 62.062-41.547 99.744v154.682c0 4.142 3.357 7.5 7.5 7.5s7.5-3.358 7.5-7.5v-154.682c0-33.66 13.184-65.305 37.123-89.107 23.761-23.625 55.194-36.608 88.586-36.608.246 0 .493.001.74.002 68.914.396 124.98 57.447 124.98 127.178v202.535c0 14.974 5.634 29.243 15.864 40.177l7.117 7.606c25.563 27.324 39.643 62.979 39.643 100.397v11.394c0 4.142 3.357 7.5 7.5 7.5s7.5-3.358 7.5-7.5v-11.394c.001-41.237-15.515-80.531-43.688-110.645z"/><path d="m130.197 327.359c0-4.142-3.357-7.5-7.5-7.5s-7.5 3.358-7.5 7.5v17.356c0 11.155-4.197 21.784-11.817 29.929l-7.117 7.606c-28.174 30.113-43.689 69.408-43.689 110.646v11.394c0 4.142 3.357 7.5 7.5 7.5s7.5-3.358 7.5-7.5v-11.394c0-37.418 14.079-73.073 39.643-100.397l7.117-7.606c10.23-10.935 15.864-25.203 15.864-40.177v-17.357z"/><path d="m255.912 382.293c-35.711 0-64.765 29.053-64.765 64.765 0 8.482 1.628 16.748 4.838 24.569 1.572 3.831 5.952 5.663 9.786 4.09 3.832-1.573 5.663-5.954 4.091-9.786-2.465-6.004-3.715-12.354-3.715-18.873 0-27.44 22.324-49.765 49.765-49.765s49.765 22.324 49.765 49.765-22.324 49.765-49.765 49.765c-10.347 0-20.275-3.158-28.713-9.133-3.381-2.395-8.062-1.594-10.455 1.786s-1.594 8.061 1.787 10.455c10.985 7.78 23.911 11.892 37.381 11.892 35.711 0 64.765-29.053 64.765-64.765s-29.054-64.765-64.765-64.765z"/><path d="m255.912 352.293c-29.063 0-56.131 13.106-74.262 35.959-2.575 3.245-2.031 7.962 1.214 10.537 3.245 2.574 7.962 2.03 10.536-1.214 15.269-19.245 38.054-30.282 62.512-30.282s47.243 11.038 62.512 30.282c1.48 1.866 3.669 2.839 5.88 2.839 1.633 0 3.278-.531 4.656-1.625 3.245-2.575 3.789-7.292 1.214-10.537-18.131-22.852-45.198-35.959-74.262-35.959z"/><path d="m385.284 453.971-2.774-33.067c-.795-9.479-7.163-17.479-16.223-20.379-7.217-2.308-14.863-1.072-20.981 3.393-6.119 4.466-9.629 11.373-9.629 18.948v80.252c0 4.142 3.357 7.5 7.5 7.5s7.5-3.358 7.5-7.5v-80.252c0-2.731 1.266-5.222 3.472-6.832 2.206-1.611 4.965-2.056 7.564-1.223 3.267 1.045 5.563 3.93 5.85 7.347l2.774 33.07c.33 3.916 1.953 7.687 4.571 10.618 5.768 6.454 8.23 15.046 6.758 23.575l-2.354 13.626c-.705 4.082 2.032 7.962 6.114 8.667.432.075.861.111 1.285.111 3.582 0 6.751-2.575 7.382-6.225l2.354-13.626c2.257-13.068-1.518-26.234-10.354-36.122-.463-.52-.75-1.188-.809-1.881z"/><path d="m166.519 403.917c-6.119-4.465-13.766-5.703-20.981-3.393-9.06 2.901-15.428 10.9-16.223 20.379l-2.774 33.065c-.059.695-.346 1.363-.81 1.881-8.836 9.888-12.61 23.054-10.354 36.123l2.354 13.626c.631 3.65 3.8 6.225 7.382 6.225.424 0 .854-.036 1.285-.111 4.082-.705 6.819-4.585 6.114-8.667l-2.354-13.626c-1.473-8.529.99-17.121 6.758-23.576 2.618-2.93 4.241-6.701 4.571-10.619l2.774-33.067c.287-3.417 2.583-6.302 5.85-7.347 2.599-.832 5.359-.388 7.564 1.223 2.206 1.61 3.472 4.101 3.472 6.832v80.252c0 4.142 3.357 7.5 7.5 7.5s7.5-3.358 7.5-7.5v-80.252c0-7.575-3.509-14.482-9.628-18.948z"/><path d="m199.818 151.957c-3.162.252-6.078 1.845-7.999 4.368-7.612 9.996-11.974 21.912-12.614 34.46l-.276 5.424c-.16 3.152 1.028 6.24 3.262 8.47 2.097 2.094 4.947 3.267 7.896 3.267.191 0 .384-.005.576-.015l45.937-2.384c4.061-.211 7.598-2.812 9.01-6.626s.421-8.091-2.524-10.895l-34.675-33.021c-2.299-2.189-5.422-3.299-8.593-3.048zm-5.693 40.774.061-1.182c.412-8.078 2.857-15.809 7.117-22.599l23.312 22.199z"/><path d="m266.215 198.921c1.412 3.814 4.949 6.416 9.011 6.626l45.936 2.384c.192.01.385.015.576.015 2.949 0 5.8-1.173 7.896-3.267 2.233-2.23 3.422-5.318 3.262-8.472l-.276-5.423c-.641-12.548-5.002-24.464-12.613-34.458-1.922-2.524-4.838-4.117-8-4.369-3.172-.247-6.294.86-8.59 3.046l-34.677 33.022c-2.946 2.805-3.937 7.082-2.525 10.896zm44.306-29.971c4.26 6.789 6.705 14.521 7.117 22.599l.061 1.183-30.489-1.582z"/></g></g></svg>