<svg id="Capa_1" enable-background="new 0 0 513.038 513.038" height="512" viewBox="0 0 513.038 513.038" width="512" xmlns="http://www.w3.org/2000/svg"><g><g><g><path d="m119.368 322.366c-.362 3.093-1.929 5.917-4.362 7.86l-12.123 9.682c-26.681 21.307-33.364 59.125-15.602 88.286l2.317 3.804 32.761 43.851h272.363l28.718-43.851 2.317-3.804c17.762-29.161 11.079-66.979-15.602-88.286l-12.123-9.682c-2.433-1.943-4.001-4.768-4.362-7.86l-13.814-118.172-2.967-23.935-241.539.745-2.169 23.19z" fill="#f3f0f3"/></g><path d="m357.195 299.116 26.799-24.147c6.835-6.159 8.65-16.155 4.417-24.323-4.337-8.368-13.88-12.63-23.006-10.273l-6.77 1.748-49.014 23.815 14.596 44.412 9.396 26.675z" fill="#ffbd86"/><path d="m154.403 242.12-6.77-1.748c-9.126-2.357-18.67 1.905-23.006 10.273-4.233 8.168-2.418 18.165 4.417 24.323l26.799 24.147 45.606 41.746 7.143-86.665z" fill="#ffbd86"/><g><path d="m348.884 201.791c5.498 15.203 8.31 31.247 8.31 47.414v111.586h-201.35v-111.586c0-16.167 2.812-32.211 8.31-47.414l18.456-35.121h154.8z" fill="#fed2a4"/></g><path d="m354.469 221.791c-1.36-6.784-3.223-13.47-5.585-20l-11.474-35.121h-115.552-18.639-20.609l-18.456 35.121c-5.498 15.203-8.31 31.247-8.31 47.414v111.586h39.248v-111.586c0-.092 0-.184 0-.277.03-15.037 12.405-27.137 27.442-27.137z" fill="#ffbd86"/><path d="m337.41 154.5 16.235-20.632c-4.407-16.336-10.904-32.089-19.386-46.845l-8.92-15.51 33.82-49.1c4.35-6.31-.17-14.91-7.84-14.91h-93.84c-13.81 0-27.4 3.36-39.75 9.87l-.6.31c-19.63 10.34-34.32 28.09-40.82 49.31l-20.469 66.87 15.275 17.4-11.746 38.056h-20.051l-.22.784h220.82v-1.09h-22.508z" fill="#b5adb6"/><g><path d="m337.41 189.013v-4.46h-149.529l5.13-18.31 32.08-104.8c6.5-21.22 21.19-38.97 40.82-49.31l.6-.31c3.115-1.642 6.309-3.082 9.565-4.32h-18.597c-13.81 0-27.4 3.36-39.75 9.87l-.6.31c-19.63 10.34-34.32 28.09-40.82 49.31l-20.469 66.87 18.094 9.844-8.371 46.396h194.356v-1.09z" fill="#a79ba7"/><g><path d="m359.919 170.703v19.4h-220.82l5.13-18.31 11.61-37.93h197.81c3.25 12.02 5.35 24.35 6.27 36.84z" fill="#bc7c63"/></g><path d="m44.011 505.536h425.144c1.487 0 2.565-1.447 2.109-2.863-7.621-23.628-21.591-44.729-40.407-60.983l-64.34-55.576-21.675-25.941h-158.614l-39.706 25.941-64.34 55.576c-18.945 16.364-32.956 37.651-40.542 61.474-.001 1.31 1.061 2.372 2.371 2.372z" fill="#b5adb6"/><path d="m366.517 386.114-21.675-25.941h-75.962-82.652l-39.706 25.941-64.34 55.576c-18.945 16.364-32.956 37.651-40.542 61.474 0 1.31 1.062 2.372 2.372 2.372h55.214c8.074-18.965 20.372-35.913 36.072-49.475l28.793-24.871c2.049-1.77 4.875-2.288 7.445-1.437.014.005.028.009.042.014 1.765.583 3.093 2.046 3.51 3.857 4.631 20.156 18.776 37.203 38.373 45.256l.897.368 12.814 16.25c3.371 4.274 7.557 7.661 12.247 10.038h33.199c4.691-2.376 8.877-5.763 12.247-10.037l12.814-16.251.894-.367c20.531-8.437 35.078-26.743 38.972-48.152l2.916-.963c16.838-5.56 31.076-16.607 40.672-31.027zm-127.536-11.333.364-.238h.123z" fill="#a79ba7"/><path d="m303.965 314.602 9.752-5.278c16.284-8.812 36.547-4.628 48.008 9.913 25.065 31.801 10.916 78.841-27.535 91.537l-11.25 3.715c-2.55.842-4.298 3.193-4.37 5.878-.47 17.625-11.29 33.314-27.598 40.015l-5.749 2.362-16.063 20.37c-6.701 8.498-19.583 8.498-26.284 0l-16.063-20.37-5.749-2.362c-16.308-6.702-27.128-22.391-27.598-40.015-.072-2.685-1.82-5.036-4.37-5.878l-11.25-3.715c-38.45-12.696-52.6-59.735-27.535-91.537 11.461-14.542 31.724-18.726 48.008-9.913l9.752 5.278 46.16 14.321z" fill="#f3f0f3"/><path d="m343.262 325.527c-3.199-8.251-10.509-13.954-19.045-15.181l-1.578-3.041c-.221-.426-.448-.853-.68-1.271-2.815.757-5.584 1.851-8.243 3.29l-9.752 5.277-49.732 14.321-46.16-14.321-9.752-5.277c-1.005-.544-2.03-1.02-3.064-1.463.005-.005.01-.011.015-.016-.666-.288-1.339-.547-2.014-.794-.012-.005-.025-.011-.037-.015l-.001.001c-15.231-5.554-32.616-.856-42.907 12.2-25.065 31.802-10.916 78.841 27.535 91.537l11.25 3.715c2.55.842 4.298 3.192 4.37 5.877.47 17.625 11.29 33.314 27.598 40.016l5.749 2.363 16.063 20.37c6.701 8.498 19.583 8.498 26.284 0l10.936-13.869-11.398-14.454-6.826-2.805c-16.046-6.594-26.521-22.225-26.521-39.572 0-2.647-1.698-4.996-4.212-5.826l-11.408-3.767c-19.509-6.441-32.757-21.725-37.806-39.372-.724-2.531 2.046-4.635 4.301-3.277 8.687 5.232 25.163 14.183 36.212 14.183 10.502 0 20.862-2.883 29.85-8.222 2.363-1.403 5.316-1.396 7.665.03 9.097 5.519 19.656 8.508 30.325 8.509h.002c15.611 0 30.283-6.081 41.311-17.124l5.824-5.831c6.856-6.863 9.352-17.148 5.846-26.191z" fill="#e2dee2"/><path d="m317.443 343.415 6.234-6.242c2.609-2.612.759-7.074-2.933-7.074h-3.569c-3.22 0-6.173-1.794-7.656-4.653l-4.632-8.928c-9.273-17.871-32.812-22.377-48.028-9.194l-.34.295-.34-.295c-15.217-13.183-38.756-8.677-48.028 9.194l-4.632 8.928c-1.483 2.859-4.435 4.653-7.656 4.653h-3.569c-3.692 0-5.542 4.462-2.933 7.074l5.919 5.927c13.757 13.774 35.647 15.065 50.927 3.003l9.813-7.746 10.892 8.37c15.284 11.744 36.91 10.327 50.531-3.312z" fill="#f3f0f3"/></g><g><path d="m357.6 151.791h-147.956c-6.071 0-10.413-5.87-8.636-11.675l1.914-6.253h-47.082l-5.488 17.928-6.122 20.002-5.13 18.31h220.82v-1.09-18.31c-.469-6.352-1.245-12.662-2.32-18.912z" fill="#aa6a51"/><path d="m416.274 201.791h-320.51c-5.664 0-11.118-1.705-15.774-4.931l-22.201-15.393c-5.886-4.081-7.349-12.161-3.268-18.048l2.314-3.338c4.081-5.886 12.162-7.35 18.048-3.268l18.269 12.667c2.17 1.505 4.749 2.311 7.39 2.311h310.956c2.641 0 5.219-.806 7.39-2.311l18.269-12.667c5.886-4.081 13.967-2.618 18.048 3.268l2.314 3.338c4.081 5.886 2.618 13.967-3.268 18.048l-22.197 15.391c-4.662 3.228-10.116 4.933-15.78 4.933z" fill="#b5adb6"/></g><path d="m275.169 171.791h-38.301c-6.871 0-12.441-5.57-12.441-12.441v-31.285c0-6.871 5.57-12.441 12.441-12.441h38.301c6.871 0 12.441 5.57 12.441 12.441v31.285c.001 6.871-5.569 12.441-12.441 12.441z" fill="#fee45a"/><path d="m246.459 159.35v-31.285c0-6.871 5.57-12.441 12.441-12.441h-22.032c-6.871 0-12.441 5.57-12.441 12.441v31.285c0 6.871 5.57 12.441 12.441 12.441h22.032c-6.871 0-12.441-5.57-12.441-12.441z" fill="#fedf30"/></g><path d="m479.34 503.393c-7.817-26.204-22.886-49.503-43.58-67.378l-3.921-3.387.324-.532c19.673-32.298 12.224-74.449-17.327-98.048l-12.123-9.682c-.895-.715-1.461-1.734-1.594-2.871l-5.773-49.39c3.761-7.71 3.853-16.944-.276-24.911-.909-1.753-1.996-3.356-3.201-4.833l-3.866-33.07h28.271c7.197 0 14.129-2.168 20.051-6.271l22.197-15.39c9.276-6.431 11.59-19.209 5.159-28.485l-2.314-3.338c-6.432-9.275-19.21-11.592-28.485-5.158l-18.269 12.667c-.92.638-1.998.975-3.116.975h-44.62c-2.924-28.389-11.9-56.276-26.117-81.002l-6.56-11.408 31.136-45.211c3.597-5.223 3.999-11.955 1.049-17.568-2.95-5.615-8.723-9.102-15.065-9.102h-93.841c-14.966 0-29.921 3.712-43.244 10.731l-.6.314c-21.248 11.196-37.466 30.788-44.495 53.752l-3.563 11.642c-1.212 3.961 1.016 8.154 4.976 9.367.731.224 1.471.33 2.198.33 3.21 0 6.181-2.077 7.169-5.307l3.563-11.642c5.868-19.171 19.407-35.525 37.139-44.869l.6-.314c11.181-5.891 23.718-9.004 36.257-9.004h93.841c1.008 0 1.527.587 1.786 1.079s.447 1.253-.124 2.083l-27.069 39.306-10.507-18.273c-2.065-3.592-6.65-4.827-10.24-2.764-3.591 2.064-4.828 6.649-2.764 10.24l25.354 44.094c6.471 11.254 11.751 23.22 15.787 35.596h-48.518c-.869-10.2-9.434-18.238-19.855-18.238h-38.301c-10.421 0-18.987 8.038-19.855 18.238h-51.031l4.444-14.518c1.212-3.961-1.016-8.154-4.976-9.367-3.961-1.213-8.154 1.016-9.367 4.977l-17.398 56.838h-38.145c-1.119 0-2.196-.337-3.116-.975l-18.269-12.667c-9.276-6.433-22.054-4.117-28.485 5.158l-2.314 3.338c-6.431 9.276-4.117 22.055 5.158 28.484l22.204 15.396c5.917 4.099 12.849 6.266 20.045 6.266h29.271l-3.866 33.071c-1.205 1.476-2.292 3.079-3.2 4.832-4.129 7.967-4.037 17.201-.276 24.911l-5.773 49.389c-.133 1.137-.699 2.156-1.593 2.871l-12.124 9.682c-29.551 23.599-37 65.75-17.326 98.049l.324.531-3.921 3.387c-20.694 17.875-35.763 41.174-43.58 67.378-1.184 3.969 1.074 8.146 5.043 9.331.715.213 1.437.314 2.147.314 3.23 0 6.213-2.104 7.184-5.358 6.997-23.456 20.487-44.313 39.012-60.313l58.099-50.186c7.752 9.491 18.114 16.688 30.314 20.716l10.5 3.467c.85 20.252 13.424 38.233 32.217 45.955l3.929 1.615 14.845 18.824c4.625 5.866 11.562 9.23 19.031 9.23s14.406-3.364 19.031-9.229l14.845-18.825 3.928-1.614c18.794-7.724 31.369-25.703 32.218-45.956l10.501-3.467c12.417-4.1 22.931-11.481 30.725-21.224l58.687 50.694c18.524 16.001 32.015 36.857 39.012 60.313.971 3.255 3.953 5.358 7.184 5.358.709 0 1.432-.102 2.147-.314 3.967-1.184 6.225-5.362 5.041-9.33zm-169.192-200.664-4.191 2.268c-5.567-6.204-13.022-10.475-21.443-12.086-9.807-1.879-19.736.06-27.995 5.333-8.256-5.272-18.185-7.213-27.995-5.333-8.586 1.643-16.17 6.047-21.77 12.45l-4.864-2.632c-12.266-6.64-26.354-7.143-38.547-2.283v-51.24c0-13.598 2.082-26.999 6.187-39.914h173.977c4.104 12.915 6.187 26.316 6.187 39.914v51.661c-12.418-5.297-26.942-4.96-39.546 1.862zm-178.862-48.632c2.745-5.298 8.694-7.953 14.472-6.463l2.595.67c-.002.301-.01.6-.01.901v33.058l-14.279-12.865c-4.297-3.874-5.44-10.166-2.778-15.301zm233.399-5.793 2.596-.67c5.774-1.492 11.727 1.166 14.471 6.463 2.662 5.136 1.519 11.428-2.778 15.3l-14.279 12.866v-33.058c-.001-.301-.009-.601-.01-.901zm10.953-15.604c-3.822-.718-7.841-.638-11.832.351-.886-8.034-2.44-15.97-4.642-23.76h13.738zm-143.711-104.636c0-2.725 2.217-4.941 4.941-4.941h38.301c2.725 0 4.941 2.217 4.941 4.941v31.285c0 2.725-2.217 4.941-4.941 4.941h-38.301c-2.725 0-4.941-2.217-4.941-4.941zm-70.536 13.297h55.536v17.988c0 1.707.228 3.36.635 4.941h-63.19zm-77.128 49.336-22.202-15.394c-2.478-1.719-3.096-5.133-1.378-7.611l2.315-3.338c1.718-2.479 5.131-3.097 7.611-1.379l18.269 12.667c3.442 2.387 7.475 3.648 11.663 3.648h208.376c4.142 0 7.5-3.357 7.5-7.5s-3.358-7.5-7.5-7.5h-14.441c.407-1.582.635-3.234.635-4.941v-17.988h52.656c1.8 7.559 3.15 15.221 4.008 22.93h-10.896c-4.142 0-7.5 3.357-7.5 7.5s3.358 7.5 7.5 7.5h70.618c4.188 0 8.221-1.262 11.663-3.648l18.269-12.667c2.479-1.718 5.894-1.101 7.611 1.379l2.314 3.338c1.718 2.479 1.1 5.893-1.378 7.611l-22.195 15.389c-3.398 2.354-7.377 3.599-11.507 3.599h-320.51c-4.13-.001-8.108-1.244-11.501-3.595zm69.611 18.594c-2.203 7.79-3.756 15.726-4.642 23.76-3.991-.989-8.01-1.068-11.832-.35l2.736-23.41zm-61.133 213.367c-14.54-25.64-8.352-58.384 14.821-76.889l12.124-9.682c4.003-3.197 6.536-7.761 7.131-12.85l4.249-36.351 17.278 15.568v7.47c0 .096.018.188.022.283-1.39 1.362-2.709 2.822-3.943 4.387-13.482 17.105-17.617 38.879-11.343 59.736 1.056 3.509 2.393 6.863 3.949 10.071zm239.098-19.006-11.252 3.715c-5.535 1.829-9.358 6.973-9.514 12.8-.39 14.646-9.399 27.709-22.952 33.278l-5.749 2.363c-1.193.49-2.239 1.279-3.038 2.292l-16.063 20.37c-1.763 2.235-4.406 3.518-7.253 3.518s-5.49-1.282-7.253-3.519l-16.063-20.369c-.798-1.013-1.845-1.802-3.038-2.292l-5.75-2.364c-13.552-5.568-22.561-18.631-22.952-33.277-.155-5.827-3.979-10.971-9.516-12.801l-11.25-3.714c-15.972-5.273-27.911-17.536-32.755-33.643s-1.652-32.92 8.759-46.13c9.227-11.706 25.438-15.054 38.548-7.96l4.107 2.222-1.997 3.849c-.194.375-.577.607-.999.607h-3.569c-4.725 0-8.947 2.82-10.757 7.186-1.81 4.364-.822 9.345 2.518 12.688l5.919 5.927c4.518 4.523 9.814 7.991 15.744 10.308 3.861 1.51 8.208-.398 9.715-4.256s-.398-8.208-4.256-9.715c-3.985-1.558-7.547-3.891-10.589-6.937l-.704-.705c4.385-1.121 8.144-4.052 10.293-8.195l4.632-8.928c3.355-6.466 9.382-10.96 16.537-12.329 7.154-1.37 14.417.58 19.922 5.35l.34.295c2.818 2.443 7.005 2.443 9.823 0l.339-.294c5.507-4.771 12.77-6.719 19.923-5.351 7.155 1.369 13.182 5.863 16.537 12.329l4.632 8.928c2.149 4.143 5.909 7.074 10.293 8.195l-1.019 1.021c-10.922 10.935-28.401 12.08-40.655 2.665l-8.732-6.712c-4.002-3.072-9.562-3.033-13.518.091l-7.673 6.057c-1.446 1.143-3.017 2.166-4.668 3.044-3.658 1.942-5.048 6.483-3.105 10.142 1.944 3.659 6.484 5.049 10.142 3.104 2.445-1.299 4.776-2.819 6.926-4.517l5.229-4.127 6.261 4.812c8.254 6.343 18.102 9.46 27.916 9.46 11.835 0 23.62-4.536 32.492-13.419l6.234-6.242c3.339-3.344 4.328-8.324 2.518-12.688-1.81-4.365-6.032-7.186-10.757-7.186h-3.569c-.421 0-.804-.232-.999-.607l-2.216-4.271 3.326-1.8c13.109-7.095 29.321-3.745 38.548 7.96 10.411 13.21 13.604 30.023 8.759 46.13-4.842 16.106-16.78 28.369-32.752 33.642zm35.776-89.057c-.959-1.216-1.973-2.365-3.027-3.46.064-.395.106-.797.106-1.21v-7.47l17.278-15.568 4.249 36.351c.595 5.089 3.128 9.652 7.131 12.85l12.124 9.682c23.173 18.505 29.361 51.25 14.821 76.889l-44.999-38.87c1.43-3.024 2.672-6.171 3.66-9.458 6.274-20.857 2.14-42.631-11.343-59.736z"/><path d="m218.194 249.551v-9.553c0-4.143-3.358-7.5-7.5-7.5s-7.5 3.357-7.5 7.5v9.553c0 4.143 3.358 7.5 7.5 7.5s7.5-3.358 7.5-7.5z"/><path d="m309.844 249.551v-9.553c0-4.143-3.358-7.5-7.5-7.5s-7.5 3.357-7.5 7.5v9.553c0 4.143 3.358 7.5 7.5 7.5s7.5-3.358 7.5-7.5z"/></g></svg>