<svg id="Capa_1" enable-background="new 0 0 513.037 513.037" height="512" viewBox="0 0 513.037 513.037" width="512" xmlns="http://www.w3.org/2000/svg"><g><g><g id="XMLID_290_"><path d="m410.119 423.523-35.33-37.83-34.34-38.8-20.869 26.578-4.572 92.084 47.091 39.978h65.95c5.296 0 9.59-4.294 9.59-9.59v-2.63c0-25.91-9.83-50.86-27.52-69.79z" fill="#cb97e7"/><path d="m170.199 356.883-30.95 28.81-35.33 37.83c-17.69 18.93-27.52 43.88-27.52 69.79v2.63c0 5.297 4.294 9.59 9.59 9.59h65.95l67.488-18.137v-93.927z" fill="#cb97e7"/><path d="m121.14 498.584v-2.63c0-25.91 9.83-50.86 27.52-69.79l35.33-37.83 12.665-11.789-26.457-19.662-30.95 28.81-35.33 37.83c-17.69 18.93-27.52 43.88-27.52 69.79v2.63c0 5.297 4.294 9.59 9.59 9.59h38.145c-1.839-1.747-2.993-4.211-2.993-6.949z" fill="#bd80e1"/></g><path d="m362.099 493.753v11.78h-210.16v-11.78c0-15.99 1.32-31.95 3.96-47.73 3.11-18.63 6.86-41.72 6.45-42.36l7.85-46.78 21.34-19.86h140.18l8.73 9.87 11.24 56.77c-.41.64 3.34 23.73 6.45 42.36 2.64 15.78 3.96 31.74 3.96 47.73z" fill="#af66da"/><path d="m198.949 504.384-1.072-6.894c-2.093-13.457-3.154-27.185-3.154-40.803v-88.631c0-4.143-3.358-7.5-7.5-7.5s-7.5 3.357-7.5 7.5v88.631c0 14.388 1.121 28.891 3.333 43.107l.893 5.738h15.082c-.002-.379-.022-.761-.082-1.148z" fill="#bc7c63"/><path d="m330.089 505.533.893-5.738c2.212-14.217 3.333-28.72 3.333-43.107v-81.264c0-4.143-3.358-7.5-7.5-7.5s-7.5 3.357-7.5 7.5v81.264c0 13.618-1.062 27.346-3.154 40.803l-1.072 6.894c-.06.387-.08.77-.081 1.149h15.081z" fill="#bc7c63"/><path d="m344.491 321.104 15.953 19.049c10.622 12.683 15.797 29.052 14.396 45.535l-.794 9.336c-.066.775-.783 1.327-1.549 1.192l-12.34-2.172c-1.218-.214-2.445.323-3.114 1.364l-14.217 22.129c-9.416 14.656-25.64 23.516-43.06 23.516h-1.897c-2.261 0-4.283-1.409-5.066-3.53l-3.814-10.33c-.282-.765-1.284-.941-1.81-.319l-21.909 25.874c-4.306 5.085-12.149 5.085-16.455 0l-21.909-25.874c-.527-.622-1.528-.445-1.81.319l-3.814 10.33c-.783 2.121-2.805 3.53-5.066 3.53h-1.897c-17.42 0-33.644-8.86-43.06-23.516l-14.217-22.129c-.668-1.04-1.896-1.578-3.114-1.364l-12.34 2.172c-.766.135-1.484-.417-1.549-1.192l-.794-9.336c-1.401-16.484 3.774-32.853 14.396-45.535l15.719-18.769 34.332-41.833h120.963z" fill="#f3f0f3"/><path d="m325.48 432.936-1.865 2.203c1.219-.642 2.417-1.323 3.581-2.061-.363-.606-1.235-.711-1.716-.142z" fill="#e2dee2"/><path d="m153.608 303.419c-9.635 0-17.446-7.811-17.446-17.446v-22.443c0-9.635 7.811-17.446 17.446-17.446h39.046v57.334h-39.046z" fill="#ffbd86"/><path d="m346.319 303.419h14.109c9.635 0 17.446-7.811 17.446-17.446v-22.443c0-7.226-4.394-13.426-10.655-16.075l-41.096-21.105-1.864 74.564z" fill="#ffbd86"/><path d="m344.491 321.104-16.941-35.493-2.893-6.061h-52.443-68.521l-34.332 41.833-15.719 18.769c-10.622 12.683-15.797 29.051-14.396 45.535l.794 9.336c.066.775.783 1.327 1.549 1.192l12.34-2.172c1.218-.214 2.445.323 3.114 1.364l14.217 22.129c9.416 14.656 25.64 23.516 43.059 23.516h1.897c2.261 0 4.283-1.409 5.066-3.53l.332-.899c-4.678-3.564-8.784-7.936-12.055-13.026l-11.549-17.976c-1.756-2.733-5.849-4.968-9.097-4.968-5.889 0-11.162-4.799-11.493-10.678-.004-.071-.008-.143-.012-.214-.209-3.942 4.486-6.129 7.448-3.521 19.236 16.938 44.457 27.228 72.043 27.228 47.776 0 88.478-30.848 103.248-73.67zm-135.186 4.339 32.689-39.831h21.912z" fill="#e2dee2"/><path d="m346.081 304.287c0 49.254-39.928 89.182-89.182 89.182-49.254 0-89.182-39.928-89.182-89.182v-119.665h178.364z" fill="#fed2a4"/><path d="m198.929 184.622h-31.211v62.022 57.643c0 49.254 39.928 89.182 89.182 89.182 13.302 0 25.932-2.916 37.271-8.138-2 .134-4.027.208-6.06.208-49.254 0-89.182-39.928-89.182-89.182v-11.184c0-12.678 10.521-22.749 23.193-22.352 1.155.036 2.312.054 3.47.054h32.043c4.513 0 8.172-3.659 8.172-8.172v-.041l8.622 3.776c14.095 6.174 29.317 9.361 44.705 9.361h10.141c4.032 0 7.462-2.941 8.077-6.926l8.73 3.645v-79.896z" fill="#ffbd86"/><path d="m364.469 201.791s7.482 22.867 5.581 34.748l-1.608 10.047c-.428 2.672-3.242 4.24-5.739 3.198l-39.016-16.288c-1.121-.468-2.384.24-2.569 1.441l-1.985 12.863c-12.625 0-25.114-2.615-36.678-7.681l-31.429-13.767c-2.46-1.077-5.217.725-5.217 3.41v13.112h-20.217c-21.096 0-41.543-7.296-57.873-20.651l-24.985-20.433-22.372-20.348h232.544z" fill="#bc7c63"/><g><g id="XMLID_289_"><g><path d="m325.839 71.513 8.92 15.51c7.36 12.81 13.24 26.36 17.54 40.39 4.3 14.04 7.04 28.56 8.12 43.29l1.68 19.44h-223.08l5.71-18.35 32.08-104.8c6.5-21.22 21.19-38.97 40.82-49.31l.6-.31c12.35-6.51 25.94-9.87 39.75-9.87h93.84c7.67 0 12.19 8.6 7.84 14.91z" fill="#cb97e7"/></g></g><path d="m229.027 66.993c6.5-21.22 21.19-38.97 40.82-49.31l.6-.31c12.35-6.51 25.94-9.87 39.75-9.87h-52.218c-13.81 0-27.4 3.36-39.75 9.87l-.6.31c-19.63 10.34-34.32 28.09-40.82 49.31l-32.08 104.8-5.71 18.35h52.218l5.71-18.35z" fill="#bd80e1"/><g><path d="m360.419 170.703 1.68 19.44h-223.08l5.71-18.35 11.61-37.93h197.81c3.25 12.02 5.35 24.35 6.27 36.84z" fill="#bc7c63"/></g><g><path d="m362.099 190.143-1.68-19.44c-.468-6.352-1.245-12.662-2.319-18.912h-138.304c-8.317 0-14.266-8.042-11.831-15.995l.592-1.933h-52.218l-10.945 35.755-.666 2.175-5.71 18.35h52.218l.519-1.667v1.667z" fill="#aa6a51"/><path d="m416.774 201.791h-320.511c-5.664 0-11.118-1.705-15.774-4.931l-22.201-15.393c-5.886-4.081-7.349-12.161-3.268-18.048l2.314-3.338c4.081-5.886 12.162-7.35 18.048-3.268l18.269 12.667c2.17 1.505 4.749 2.311 7.39 2.311h310.956c2.641 0 5.219-.806 7.39-2.311l18.269-12.667c5.886-4.081 13.967-2.618 18.048 3.268l2.314 3.338c4.081 5.886 2.618 13.967-3.268 18.048l-22.197 15.391c-4.661 3.228-10.115 4.933-15.779 4.933z" fill="#cb97e7"/></g><path d="m275.669 171.791h-38.301c-6.871 0-12.441-5.57-12.441-12.441v-31.285c0-6.871 5.57-12.441 12.441-12.441h38.301c6.871 0 12.441 5.57 12.441 12.441v31.285c.001 6.871-5.57 12.441-12.441 12.441z" fill="#fee45a"/><path d="m248.29 159.35v-31.285c0-6.871 5.57-12.441 12.441-12.441h-23.364c-6.871 0-12.441 5.57-12.441 12.441v31.285c0 6.871 5.57 12.441 12.441 12.441h23.364c-6.87 0-12.441-5.57-12.441-12.441z" fill="#fedf30"/></g></g><g><path d="m464.181 159.146-2.314-3.338c-6.432-9.275-19.209-11.592-28.485-5.158l-18.269 12.667c-.92.638-1.998.975-3.116.975h-44.618c-2.925-28.388-11.902-56.276-26.119-81.002l-6.56-11.408 31.136-45.211c3.597-5.223 3.999-11.955 1.049-17.568-2.951-5.616-8.723-9.103-15.065-9.103h-93.841c-14.966 0-29.921 3.712-43.244 10.731l-.6.315c-19.453 10.249-34.516 27.22-42.413 47.784-1.485 3.866.446 8.205 4.313 9.689 3.868 1.485 8.205-.445 9.69-4.313 6.594-17.169 19.167-31.336 35.397-39.889l.6-.314c11.18-5.89 23.718-9.003 36.257-9.003h93.841c1.008 0 1.527.587 1.786 1.079s.447 1.253-.124 2.083l-27.069 39.306-10.507-18.273c-2.065-3.592-6.651-4.827-10.24-2.764-3.591 2.064-4.828 6.649-2.764 10.24l25.354 44.094c6.471 11.254 11.755 23.22 15.794 35.596h-48.526c-.869-10.2-9.434-18.238-19.855-18.238h-38.301c-10.421 0-18.987 8.038-19.855 18.238h-51.031l9.838-32.14c1.212-3.961-1.016-8.154-4.976-9.367-3.962-1.211-8.155 1.016-9.367 4.977l-22.792 74.46h-38.145c-1.119 0-2.196-.337-3.116-.975l-18.269-12.667c-9.277-6.433-22.053-4.117-28.485 5.158l-2.314 3.338c-6.431 9.276-4.117 22.055 5.158 28.484l22.204 15.396c5.917 4.099 12.849 6.266 20.045 6.266h43.794l20.161 16.488v12.805h-6.609c-13.755 0-24.946 11.19-24.946 24.946v22.442c0 13.756 11.19 24.946 24.946 24.946h6.841c.191 2.808.499 5.583.925 8.321l-13.483 16.098c-11.242 13.423-16.973 30.205-16.325 47.585l-33.131 35.477c-19.05 20.398-29.541 47.004-29.541 74.914v12.223c0 4.143 3.358 7.5 7.5 7.5s7.5-3.357 7.5-7.5v-12.223c0-24.097 9.058-47.065 25.504-64.676l25.7-27.52c.277.28.567.549.882.792 1.96 1.507 4.482 2.124 6.907 1.694l9.438-1.661 2.362 3.676c-.433 3.463-1.819 12.989-6.191 39.172-2.692 16.121-4.057 32.596-4.057 48.966v11.78c0 4.143 3.358 7.5 7.5 7.5s7.5-3.357 7.5-7.5v-11.78c0-15.545 1.296-31.188 3.852-46.495 1.565-9.372 2.796-16.758 3.749-22.628 3.604 4.913 7.89 9.165 12.681 12.667v19.387c0 14.388 1.121 28.891 3.333 43.107l1.072 6.894c.576 3.703 3.768 6.349 7.402 6.349.383 0 .771-.029 1.162-.09 4.093-.637 6.895-4.471 6.258-8.563l-1.072-6.894c-2.093-13.457-3.154-27.185-3.154-40.803v-11.477c6.193 2.184 12.802 3.344 19.598 3.344h1.897c5.372 0 10.229-3.381 12.095-8.414l14.78 17.455c3.48 4.11 8.565 6.468 13.952 6.468s10.471-2.357 13.951-6.468l14.781-17.455c1.867 5.033 6.724 8.414 12.095 8.414h1.897c6.777 0 13.369-1.154 19.548-3.327v11.46c0 13.618-1.062 27.346-3.155 40.803l-1.072 6.894c-.637 4.093 2.165 7.927 6.258 8.563.391.061.779.09 1.162.09 3.633 0 6.826-2.646 7.402-6.349l1.072-6.894c2.212-14.217 3.333-28.72 3.333-43.107v-19.35c4.793-3.497 9.082-7.741 12.69-12.648.951 5.859 2.181 13.234 3.74 22.571 2.556 15.307 3.852 30.95 3.852 46.495v11.78c0 4.143 3.358 7.5 7.5 7.5s7.5-3.357 7.5-7.5v-11.78c0-16.37-1.365-32.845-4.057-48.966-4.344-26.015-5.741-35.588-6.183-39.107l2.404-3.741 9.43 1.659c2.434.435 4.955-.185 6.916-1.692.306-.235.587-.495.857-.765l25.675 27.493c16.446 17.61 25.504 40.579 25.504 64.676v12.223c0 4.143 3.358 7.5 7.5 7.5s7.5-3.357 7.5-7.5v-12.223c0-27.91-10.491-54.516-29.541-74.914l-33.084-35.427c.661-17.398-5.07-34.199-16.322-47.635l-13.72-16.381c.401-2.653.693-5.334.875-8.038h7.079c13.755 0 24.946-11.19 24.946-24.946v-22.441c0-7.549-3.376-14.517-8.98-19.177l1.061-6.63c1.516-9.475.818-19.256-1.927-28.433h41.245c7.197 0 14.129-2.168 20.051-6.271l22.197-15.39c9.273-6.429 11.587-19.207 5.156-28.483zm-111.903 5.145h-57.297c.407-1.58.629-3.235.629-4.941v-17.988h52.669c1.803 7.558 3.141 15.221 3.999 22.929zm-119.851-36.227c0-2.725 2.217-4.941 4.941-4.941h38.301c2.725 0 4.941 2.217 4.941 4.941v31.285c0 2.725-2.217 4.941-4.941 4.941h-38.301c-2.725 0-4.941-2.217-4.941-4.941zm-70.536 13.297h55.536v17.988c0 1.707.221 3.361.629 4.941h-63.183zm-18.228 144.612v-22.443c0-5.484 4.462-9.946 9.946-9.946h6.609v42.335h-6.609c-5.484 0-9.946-4.462-9.946-9.946zm211.031 58.996c9.414 11.24 13.915 25.476 12.673 40.085l-.221 2.605-5.691-1.001c-4.21-.741-8.413 1.104-10.721 4.696l-14.217 22.129c-8.074 12.567-21.812 20.07-36.75 20.07h-.434l-3.308-8.96c-1.052-2.846-3.562-4.94-6.549-5.466-2.992-.527-6.063.586-8.02 2.9l-21.91 25.873c-.855 1.011-1.936 1.161-2.503 1.161s-1.648-.15-2.504-1.161l-21.907-25.871c-1.96-2.315-5.03-3.427-8.021-2.902-2.988.525-5.498 2.62-6.55 5.468l-3.308 8.958h-.434c-14.938 0-28.676-7.503-36.75-20.07l-14.218-22.13c-2.307-3.591-6.516-5.436-10.723-4.695l-5.689 1.001-.221-2.605c-1.242-14.609 3.259-28.845 12.673-40.085l6.57-7.845c13.472 37.195 49.149 63.845 90.937 63.845 9.681 0 19.247-1.432 28.433-4.255 3.959-1.217 6.182-5.413 4.965-9.372-1.216-3.96-5.411-6.183-9.373-4.966-7.757 2.384-15.84 3.593-24.026 3.593-45.04 0-81.682-36.643-81.682-81.682v-67.734c15.179 8.97 32.612 13.822 50.373 13.822h20.217c4.142 0 7.5-3.357 7.5-7.5v-7.334l26.137 11.448c12.59 5.515 25.943 8.311 39.688 8.311 3.7 0 6.848-2.699 7.412-6.356l.889-5.756 11.148 4.654v56.445c0 25.334-11.472 48.817-31.473 64.43-3.265 2.549-3.846 7.262-1.297 10.526 1.479 1.896 3.687 2.886 5.917 2.886 1.613 0 3.239-.519 4.609-1.588 14.733-11.499 25.552-26.61 31.623-43.612zm15.681-58.996c0 5.484-4.461 9.946-9.946 9.946h-6.847v-41.815l6.23 2.601c1.456.607 2.985.909 4.51.909 1.223 0 2.438-.217 3.612-.604 1.539 1.773 2.441 4.067 2.441 6.52zm80.101-110.669-22.195 15.389c-3.398 2.354-7.377 3.599-11.507 3.599h-192.716c-4.142 0-7.5 3.357-7.5 7.5s3.358 7.5 7.5 7.5h135.602c3.32 8.209 4.385 17.308 2.984 26.063l-.942 5.886-35.126-14.664c-2.677-1.119-5.664-.944-8.194.475s-4.234 3.877-4.676 6.743l-.967 6.267c-9.409-.71-18.558-2.992-27.275-6.811l-31.43-13.767c-3.482-1.524-7.461-1.194-10.643.887-3.182 2.08-5.082 5.592-5.082 9.394v5.612h-12.717c-19.309 0-38.176-6.732-53.125-18.957l-8.715-7.127h28.344c4.142 0 7.5-3.357 7.5-7.5s-3.358-7.5-7.5-7.5h-95.833c-4.129 0-8.107-1.243-11.5-3.594l-22.202-15.394c-2.478-1.719-3.096-5.133-1.378-7.611l2.315-3.338c1.718-2.479 5.132-3.097 7.611-1.379l18.269 12.667c3.442 2.387 7.475 3.648 11.663 3.648h310.956c4.188 0 8.221-1.262 11.663-3.648l18.269-12.667c2.478-1.718 5.893-1.101 7.611 1.379l2.314 3.338c1.718 2.477 1.1 5.891-1.378 7.61z"/><path d="m288.806 329.051c-22.039 19.268-41.714 19.332-61.921.2-3.008-2.849-7.754-2.717-10.603.29-2.848 3.008-2.718 7.755.29 10.603 12.966 12.276 26.567 18.414 40.419 18.414 13.775 0 27.799-6.071 41.688-18.214 3.118-2.727 3.436-7.465.71-10.583s-7.464-3.436-10.583-.71z"/><path d="m242.267 313.138c3.641 3.906 8.719 6.107 14.035 6.107.255 0 .511-.006.767-.016 5.592-.223 10.793-2.865 14.271-7.25l3.093-3.9c2.574-3.246 2.029-7.963-1.217-10.537-3.245-2.573-7.962-2.029-10.536 1.217l-3.092 3.9c-1.04 1.31-2.398 1.554-3.115 1.582-.72.023-2.091-.105-3.232-1.331l-4.293-4.605c-2.825-3.029-7.57-3.195-10.6-.372-3.03 2.824-3.197 7.57-.373 10.601z"/><path d="m218.694 279.551v-9.553c0-4.143-3.358-7.5-7.5-7.5s-7.5 3.357-7.5 7.5v9.553c0 4.143 3.358 7.5 7.5 7.5s7.5-3.358 7.5-7.5z"/><path d="m310.343 279.551v-9.553c0-4.143-3.358-7.5-7.5-7.5s-7.5 3.357-7.5 7.5v9.553c0 4.143 3.358 7.5 7.5 7.5s7.5-3.358 7.5-7.5z"/></g></g></svg>