<svg id="Capa_1" enable-background="new 0 0 513.476 513.476" height="512" viewBox="0 0 513.476 513.476" width="512" xmlns="http://www.w3.org/2000/svg"><g><g><g><g><g id="XMLID_294_"><g><path d="m372.238 332.623c47.96 74.98-5.89 173.35-94.9 173.35h-16.88c-89.01 0-142.86-98.37-94.9-173.35l40.12-62.72 7.79-15.18-7.73-19.25-26.27-65.36c-1.85-4.59 1.93-9.47 6.84-8.84l57.87 7.49 19.91-7.48c2.46-.92 5.17-.96 7.65-.09l21.88 7.57 57.87-7.49c4.91-.63 8.69 4.25 6.84 8.84l-26.27 65.36-7.54 17.23 7.6 17.2z" fill="#d9b1ee"/></g></g></g><g><path d="m215.229 332.623 40.12-62.72c4.948-9.642 5.471-20.956 1.432-31.013l-1.372-3.417-26.27-65.36c-.455-1.128-.566-2.272-.407-3.349l-42.423-5.491c-4.91-.63-8.69 4.25-6.84 8.84l26.27 65.36 7.73 19.25-7.79 15.18-40.12 62.72c-47.96 74.98 5.89 173.35 94.9 173.35h16.88c5.611 0 11.081-.393 16.396-1.144-79-11.167-123.443-101.952-78.506-172.206z" fill="#cb97e7"/></g><path d="m324.82 271.382h-111.845c-10.318 0-18.682-8.364-18.682-18.682 0-10.318 8.364-18.682 18.682-18.682h111.845c10.318 0 18.682 8.364 18.682 18.682 0 10.318-8.364 18.682-18.682 18.682z" fill="#fe76a8"/><path d="m251.207 262.664v-19.928c0-3.333 1.226-6.375 3.241-8.718h-41.473c-10.318 0-18.682 8.364-18.682 18.682s8.364 18.682 18.682 18.682h41.473c-2.015-2.343-3.241-5.385-3.241-8.718z" fill="#fe5694"/><g fill="#fedf30"><path d="m371.525 68.611c-5.703-4-10.489-8.672-14.273-14.082-1.627-2.326-5.117-2.339-6.63.063-3.522 5.594-8.351 10.224-14.248 14.066-2.514 1.638-2.397 5.307.19 6.826 5.925 3.481 10.635 7.854 13.908 13.283 1.535 2.546 5.213 2.602 6.791.083 3.599-5.744 8.287-10.195 13.906-13.542 2.493-1.485 2.731-5.031.356-6.697z"/><path d="m148.491 163.869c-6.517-4.571-11.986-9.911-16.31-16.092-1.859-2.658-5.848-2.673-7.576.072-4.025 6.392-9.543 11.684-16.282 16.074-2.873 1.871-2.739 6.064.217 7.801 6.771 3.978 12.153 8.975 15.893 15.179 1.754 2.909 5.957 2.973 7.761.094 4.113-6.564 9.47-11.65 15.891-15.475 2.848-1.696 3.12-5.749.406-7.653z"/></g></g></g><g><path d="m385.043 359.064c-4.019 1.007-6.459 5.08-5.453 9.098 7.729 30.854.411 64.565-19.574 90.175-19.907 25.509-50.043 40.139-82.681 40.139h-16.875c-39.019 0-73.499-20.434-92.235-54.659s-17.371-74.281 3.653-107.151l37.148-58.081c1.288.196 2.606.298 3.948.298h45.718c-10.19 18.566-15.531 39.305-15.531 60.725v10.27c0 9.782-3.81 18.979-10.728 25.896l-.133.133c-2.929 2.93-2.929 7.678 0 10.607 1.465 1.464 3.385 2.196 5.304 2.196s3.839-.732 5.304-2.196l.133-.133c9.75-9.751 15.12-22.715 15.12-36.504v-10.27c0-21.7 6.215-42.609 17.998-60.725h20.447c10.126 18.344 14.624 38.992 13.026 59.983l-3.984 52.373c-.684 8.981 2.577 17.784 8.946 24.151 1.465 1.464 3.384 2.196 5.303 2.196 1.92 0 3.839-.732 5.304-2.197 2.929-2.929 2.929-7.678-.001-10.606-3.271-3.271-4.946-7.792-4.595-12.405l3.984-52.373c1.613-21.202-2.247-42.09-11.174-61.122h11.406c1.342 0 2.66-.102 3.948-.298l37.149 58.082c.724 1.132 1.451 2.321 2.224 3.638 1.396 2.381 3.902 3.706 6.476 3.706 1.289 0 2.596-.332 3.788-1.032 3.573-2.096 4.77-6.691 2.674-10.264-.871-1.484-1.697-2.836-2.525-4.131l-36.142-56.508c5.274-4.793 8.59-11.704 8.59-19.375 0-8.167-3.76-15.469-9.637-20.275l23.923-59.513c1.871-4.655 1.154-9.802-1.916-13.769-3.07-3.966-7.87-5.957-12.847-5.305l-56.119 7.263-20.211-7c-.175-.061-.354-.103-.53-.158v-9.628c0-8.682-1.702-17.108-5.06-25.046-1.613-3.815-6.014-5.599-9.829-3.985-3.814 1.613-5.6 6.014-3.985 9.829 2.57 6.078 3.874 12.539 3.874 19.202v10.997l-15.378 5.775-1.745-.226v-13.985c0-20.379-16.579-36.959-36.958-36.959h-91.676c-21.333 0-38.688-17.355-38.688-38.688s17.355-38.688 38.688-38.688h104.043c4.143 0 7.5-3.357 7.5-7.5s-3.357-7.5-7.5-7.5h-104.043c-29.604 0-53.688 24.085-53.688 53.688s24.085 53.688 53.688 53.688h91.676c12.107 0 21.958 9.851 21.958 21.959v12.044l-39.272-5.082c-4.972-.652-9.777 1.338-12.847 5.305s-3.787 9.113-1.916 13.769l23.923 59.513c-5.877 4.805-9.637 12.108-9.637 20.275 0 7.671 3.316 14.582 8.59 19.375l-36.142 56.508c-24.022 37.559-25.584 83.329-4.175 122.437 21.41 39.108 60.809 62.456 105.394 62.456h16.875c37.29 0 71.736-16.733 94.506-45.91 22.806-29.224 31.143-67.746 22.3-103.048-1.008-4.018-5.086-6.459-9.099-5.454zm-197.966-190.126 56.137 7.265c1.214.159 2.451.016 3.6-.416l19.913-7.479c.823-.308 1.731-.319 2.562-.033l21.878 7.577c1.096.38 2.266.5 3.417.351l56.137-7.265-23.201 57.718c-.887-.091-1.786-.138-2.697-.138h-67.849c-4.143 0-7.5 3.357-7.5 7.5s3.357 7.5 7.5 7.5h67.849c6.166 0 11.182 5.017 11.182 11.183s-5.016 11.182-11.182 11.182h-111.848c-6.166 0-11.182-5.016-11.182-11.182s5.016-11.183 11.182-11.183h12.034c4.143 0 7.5-3.357 7.5-7.5s-3.357-7.5-7.5-7.5h-12.034c-.911 0-1.81.047-2.697.138z"/><path d="m245.382 32.541h166.097c11.336 0 20.559-9.223 20.559-20.56v-4.481c0-4.143-3.357-7.5-7.5-7.5s-7.5 3.357-7.5 7.5v4.481c0 3.065-2.493 5.56-5.559 5.56h-166.097c-4.143 0-7.5 3.357-7.5 7.5s3.358 7.5 7.5 7.5z"/><path d="m446.755 49.774h-46.84c-4.143 0-7.5 3.357-7.5 7.5s3.357 7.5 7.5 7.5h46.84c4.143 0 7.5-3.357 7.5-7.5s-3.357-7.5-7.5-7.5z"/><path d="m168.937 49.774c-12.463 0-22.602 10.139-22.602 22.602 0 4.143 3.357 7.5 7.5 7.5s7.5-3.357 7.5-7.5c0-4.191 3.41-7.602 7.602-7.602h138.96c4.143 0 7.5-3.357 7.5-7.5s-3.357-7.5-7.5-7.5z"/><path d="m375.831 62.47c-5.043-3.536-9.226-7.654-12.433-12.24-2.229-3.186-5.854-5.016-9.762-4.939-3.827.092-7.326 2.075-9.36 5.305-2.849 4.522-6.771 8.376-11.995 11.778-3.363 2.191-5.315 5.889-5.223 9.892.093 4.021 2.227 7.642 5.706 9.685 5.045 2.965 8.736 6.461 11.284 10.688 2.081 3.452 5.728 5.534 9.757 5.569.034 0 .067.001.102.001 3.975 0 7.6-2.005 9.711-5.376 2.893-4.614 6.617-8.238 11.392-11.082 3.399-2.025 5.516-5.588 5.662-9.529.143-3.88-1.666-7.525-4.841-9.752.001 0 .001 0 0 0zm-21.916 18.123c-2.545-3.22-5.604-6.13-9.156-8.706 3.57-2.778 6.681-5.848 9.304-9.181 2.659 3.213 5.69 6.207 9.065 8.953-3.479 2.575-6.559 5.562-9.213 8.934z"/><path d="m151.923 177.966c3.571-2.128 5.796-5.87 5.95-10.01.151-4.068-1.746-7.892-5.076-10.227 0-.001 0-.001 0-.001-5.866-4.113-10.734-8.908-14.471-14.25-2.342-3.348-6.186-5.268-10.254-5.188-4.014.098-7.683 2.177-9.814 5.563-3.338 5.301-7.928 9.811-14.03 13.786-3.53 2.3-5.579 6.18-5.481 10.381.098 4.222 2.339 8.023 5.993 10.17 5.922 3.48 10.263 7.597 13.269 12.584 2.185 3.625 6.014 5.811 10.242 5.847.035.001.071.001.107.001 4.17 0 7.974-2.104 10.19-5.642 3.397-5.42 7.771-9.676 13.375-13.014zm-23.557 1.356c-3.271-4.399-7.378-8.307-12.272-11.677 4.886-3.638 9.042-7.739 12.418-12.252 3.471 4.363 7.538 8.382 12.152 12.004-4.747 3.332-8.863 7.325-12.298 11.925z"/></g></g></svg>