<svg id="Capa_1" enable-background="new 0 0 511.082 511.082" height="512" viewBox="0 0 511.082 511.082" width="512" xmlns="http://www.w3.org/2000/svg"><g><g><g><path d="m489.581 140.175v268.7c0 17.12-13.87 30.99-30.98 30.99h-406.12c-17.11 0-30.98-13.87-30.98-30.99v-268.7c0-45.82 37.14-82.96 82.95-82.96h302.18c45.81 0 82.95 37.14 82.95 82.96z" fill="#d9b1ee"/></g><g><path d="m133.479 410.623c-17.11 0-30.98-13.87-30.98-30.99v-163.752c0-17.08 13.846-30.926 30.926-30.926h298.437c15.602 0 28.25-12.648 28.25-28.25v-79.926c-14.442-12.199-33.097-19.564-53.48-19.564h-302.18c-45.81 0-82.95 37.14-82.95 82.96v268.7c0 17.12 13.87 30.99 30.98 30.99h406.12c16.523 0 30.022-12.936 30.928-29.242z" fill="#cb97e7"/><g><path d="m491.141 282.03c6.738 0 12.2-5.462 12.2-12.2v-23.151c0-6.738-5.462-12.2-12.2-12.2h-471.2c-6.738 0-12.2 5.462-12.2 12.2v23.151c0 6.738 5.462 12.2 12.2 12.2z" fill="#fedf30"/></g><g id="XMLID_297_"><g><path d="m489.581 351.045v42.33h-69.23-328.62-70.23v-42.33z" fill="#bd80e1"/><path d="m21.501 351.045v42.33h70.23 13.979c-2.052-4.142-3.211-8.805-3.211-13.742v-28.588z" fill="#af66da"/><path d="m21.501 316.535h468.08v34.51h-468.08z" fill="#cb97e7"/><path d="m21.501 316.535h80.998v34.51h-80.998z" fill="#bd80e1"/></g></g><g id="XMLID_299_"><g><path d="m503.581 393.375v12.29c0 26.62-21.58 48.2-48.2 48.2h-27.29c-4.27 0-7.74-3.47-7.74-7.74v-52.75c0-4.27 3.47-7.73 7.74-7.73h67.75c4.28 0 7.74 3.46 7.74 7.73z" fill="#fedf30"/><path d="m480.167 435.688h-20.035c-8.281 0-14.995-6.713-14.995-14.995v-35.049h-17.046c-4.275 0-7.74 3.465-7.74 7.74v52.74c0 4.275 3.465 7.74 7.74 7.74h27.29c16.278 0 30.66-8.078 39.387-20.434-4.606 1.463-9.51 2.258-14.601 2.258z" fill="#fed402"/><path d="m91.731 393.375v52.75c0 4.27-3.47 7.74-7.74 7.74h-28.29c-26.62 0-48.2-21.58-48.2-48.2v-12.29c0-4.27 3.46-7.73 7.74-7.73h68.75c4.27 0 7.74 3.46 7.74 7.73z" fill="#fedf30"/><path d="m78.993 432.198c-26.068 0-47.288-20.697-48.158-46.553h-15.594c-4.28 0-7.74 3.46-7.74 7.73v12.29c0 26.62 21.58 48.2 48.2 48.2h28.29c4.27 0 7.74-3.47 7.74-7.74v-13.927z" fill="#fed402"/></g></g><g id="XMLID_303_"><g><path d="m70.971 92.135h369.14v37.32h-369.14z" fill="#d9b1ee"/><g fill="#bd80e1"><path d="m440.111 129.455h-369.14v27.25c0 4.55 3.69 8.25 8.25 8.25h352.64c4.56 0 8.25-3.7 8.25-8.25z"/><path d="m440.111 64.265v27.87h-369.14v-27.87-.01c10.24-4.53 21.56-7.04 33.48-7.04h302.18c11.92 0 23.24 2.51 33.48 7.04z"/></g></g></g><path d="m166.833 234.479h177.416v47.551h-177.416z" fill="#fed402"/><path d="m294.224 313.949h-77.366c-16.582 0-30.025-13.443-30.025-30.025v-76.167c0-5.414 4.389-9.802 9.802-9.802h117.812c5.414 0 9.802 4.389 9.802 9.802v76.167c0 16.582-13.443 30.025-30.025 30.025z" fill="#fee97d"/><path d="m249.312 298.389c-16.583 0-30.025-13.443-30.025-30.025v-70.41h-22.652c-5.414 0-9.802 4.389-9.802 9.802v76.167c0 16.582 13.443 30.025 30.025 30.025h77.366c11.337 0 21.204-6.285 26.313-15.56h-71.225z" fill="#fedf30"/><path d="m269.879 264.171c5.221-4.104 8.578-10.472 8.578-17.628 0-12.38-10.036-22.416-22.417-22.416s-22.417 10.036-22.417 22.416c0 6.773 3.008 12.839 7.756 16.949l-3.076 11.761c-1.312 5.018 2.474 9.921 7.66 9.921h19.154c5.186 0 8.972-4.903 7.66-9.921z" fill="#fed402"/></g></g><g><path d="m497.082 378.203v-89.594c7.967-2.526 13.759-9.987 13.759-18.779v-23.151c0-8.792-5.792-16.253-13.759-18.78v-87.725c0-49.877-40.578-90.455-90.455-90.455h-302.172c-49.877 0-90.455 40.578-90.455 90.455v87.725c-7.967 2.527-13.759 9.988-13.759 18.78v23.151c0 8.792 5.792 16.253 13.759 18.779v89.594c-7.824.634-14 7.191-14 15.176v12.283c0 30.714 24.987 55.701 55.701 55.701h28.286c7.985 0 14.542-6.176 15.177-14h313.754c.634 7.824 7.191 14 15.177 14h27.286c30.714 0 55.701-24.987 55.701-55.701v-12.283c0-7.984-6.176-14.541-14-15.176zm-418.613-278.564h354.145v22.318h-354.145zm328.158-34.92c9.127 0 17.881 1.631 25.986 4.613v15.307h-354.144v-15.307c8.105-2.983 16.859-4.613 25.986-4.613zm-343.158 12.152v79.832c0 8.686 7.066 15.752 15.752 15.752h31.078c4.143 0 7.5-3.357 7.5-7.5s-3.357-7.5-7.5-7.5h-31.078c-.415 0-.752-.337-.752-.752v-19.745h354.145v19.745c0 .415-.337.752-.752.752h-289.601c-4.143 0-7.5 3.357-7.5 7.5s3.357 7.5 7.5 7.5h289.601c8.686 0 15.752-7.066 15.752-15.752v-79.832c20.724 13.464 34.469 36.801 34.469 63.303v86.805h-127.834c-4.143 0-7.5 3.357-7.5 7.5s3.357 7.5 7.5 7.5h136.892c2.592 0 4.7 2.108 4.7 4.7v23.151c0 2.591-2.108 4.699-4.7 4.699h-136.892c-4.143 0-7.5 3.357-7.5 7.5s3.357 7.5 7.5 7.5h127.833v19.508h-137.506c-4.143 0-7.5 3.357-7.5 7.5s3.357 7.5 7.5 7.5h137.506v19.508h-98.005c-4.143 0-7.5 3.357-7.5 7.5s3.357 7.5 7.5 7.5h98.005v19.596h-53.987c-5.676 0-10.627 3.125-13.25 7.738h-317.608c-2.622-4.614-7.574-7.738-13.25-7.738h-54.987v-19.596h323.114c4.143 0 7.5-3.357 7.5-7.5s-3.357-7.5-7.5-7.5h-323.114v-19.508h137.506c4.143 0 7.5-3.357 7.5-7.5s-3.357-7.5-7.5-7.5h-137.506v-19.508h127.833c4.143 0 7.5-3.357 7.5-7.5s-3.357-7.5-7.5-7.5h-136.892c-2.592 0-4.7-2.108-4.7-4.699v-23.151c0-2.592 2.108-4.7 4.7-4.7h136.892c4.143 0 7.5-3.357 7.5-7.5s-3.357-7.5-7.5-7.5h-127.833v-86.805c0-26.502 13.745-49.84 34.469-63.303zm35.758 324.008h313.629v31.484h-313.629zm-15 45.245c0 .132-.107.239-.239.239h-28.287c-22.442 0-40.701-18.259-40.701-40.701v-12.283c0-.132.107-.238.239-.238h68.748c.132 0 .239.106.239.238v52.745zm411.855-40.462c0 22.442-18.259 40.701-40.701 40.701h-27.286c-.132 0-.239-.107-.239-.239v-52.745c0-.132.107-.238.239-.238h67.748c.132 0 .239.106.239.238z"/><path d="m216.857 321.449h77.367c20.691 0 37.524-16.834 37.524-37.525v-76.168c0-9.54-7.762-17.302-17.302-17.302h-12.875c-4.143 0-7.5 3.357-7.5 7.5s3.357 7.5 7.5 7.5h12.875c1.27 0 2.302 1.032 2.302 2.302v76.168c0 12.421-10.104 22.525-22.524 22.525h-77.367c-12.42 0-22.524-10.104-22.524-22.525v-76.168c0-1.27 1.032-2.302 2.302-2.302h72.975c4.143 0 7.5-3.357 7.5-7.5s-3.357-7.5-7.5-7.5h-72.975c-9.54 0-17.302 7.762-17.302 17.302v76.168c0 20.691 16.833 37.525 37.524 37.525z"/><path d="m226.125 246.543c0 7.044 2.482 13.8 6.931 19.139l-2.007 7.674c-1.218 4.657-.229 9.514 2.712 13.323s7.39 5.995 12.203 5.995h19.154c4.813 0 9.262-2.186 12.203-5.995s3.93-8.666 2.712-13.322l-1.773-6.78c4.94-5.455 7.697-12.526 7.697-20.033 0-16.496-13.42-29.916-29.916-29.916s-29.916 13.419-29.916 29.915zm44.832 0c0 4.602-2.082 8.877-5.714 11.731-2.347 1.846-3.375 4.906-2.62 7.794l2.898 11.084c.019.068.052.198-.073.359-.125.162-.259.162-.33.162h-19.154c-.071 0-.205 0-.33-.162-.125-.161-.092-.291-.073-.36l3.075-11.762c.723-2.764-.188-5.697-2.347-7.567-3.282-2.842-5.164-6.953-5.164-11.279 0-8.225 6.691-14.916 14.916-14.916s14.916 6.691 14.916 14.916z"/></g></g></svg>