<svg id="Capa_1" enable-background="new 0 0 512.287 512.287" height="512" viewBox="0 0 512.287 512.287" width="512" xmlns="http://www.w3.org/2000/svg"><g><g><path d="m489.38 445.417-21.569-264.874c-.793-9.736-8.926-17.234-18.695-17.234h-140.37c-9.769 0-17.902 7.498-18.695 17.234l-21.618 265.473v23.135h222.959v-23.135z" fill="#fe76a8"/><path d="m245.78 445.417-21.569-264.874c-.793-9.736-8.926-17.234-18.695-17.234h-140.369c-9.769 0-17.902 7.498-18.695 17.234l-21.618 265.474v23.135h222.959v-23.135z" fill="#fe76a8"/><path d="m245.78 445.417-1.58-19.4h-127.807c-19.046 0-34.035-16.259-32.489-35.242l17.119-210.232c.793-9.736 8.926-17.234 18.695-17.234h-54.571c-9.769 0-17.902 7.498-18.695 17.234l-21.618 265.474v23.135h48.827 5.744 168.388v-23.135z" fill="#fe5694"/><g><path d="m489.38 445.417-1.58-19.4h-127.808c-19.046 0-34.035-16.259-32.489-35.242l.995-12.219c.596-7.314 6.705-12.946 14.043-12.946h26.206c19.006 0 34.414-15.407 34.414-34.414v-8.875c0-11.53-5.706-21.747-14.437-27.995-2.023-1.446-3.306-3.709-3.508-6.188l-10.165-124.83h-11.734-54.571c-1.34 0-2.645.154-3.909.422-.891.189-1.758.444-2.599.756-.385.143-.762.301-1.135.468-6.074 2.718-10.479 8.561-11.052 15.588l-21.618 265.473v23.135h48.827 5.744 168.388v-23.135z" fill="#fe5694"/><path d="m205.517 163.309h-68.043l-9.478 116.397c-.481 5.901-3.646 11.189-8.459 14.638-8.718 6.247-14.411 16.458-14.411 27.978v8.874c0 19.006 15.408 34.414 34.414 34.414h99.742l-15.07-185.066c-.793-9.737-8.927-17.235-18.695-17.235z" fill="#fe5694"/><path d="m366.711 307.309-21.569-264.874c-.793-9.736-8.926-17.234-18.695-17.234h-140.369c-9.769 0-17.902 7.498-18.695 17.234l-21.618 265.473v23.135h222.959v-23.135z" fill="#fe76a8"/><path d="m366.711 307.309-1.58-19.4h-127.807c-19.046 0-34.035-16.259-32.489-35.242l17.119-210.232c.793-9.736 8.926-17.234 18.695-17.234h-54.571c-9.769 0-17.902 7.498-18.695 17.234l-21.618 265.473v23.135h48.827 5.744 168.388v-23.135z" fill="#fe5694"/><path d="m368.747 307.908h-229.208c-7.96 0-14.414 6.453-14.414 14.414v8.874c0 7.96 6.453 14.414 14.414 14.414h229.208c7.96 0 14.414-6.453 14.414-14.414v-8.874c0-7.96-6.453-14.414-14.414-14.414z" fill="#f3f0f3"/><path d="m175.212 331.196v-8.874c0-7.96 6.453-14.414 14.414-14.414h-50.086c-7.96 0-14.414 6.453-14.414 14.414v8.874c0 7.96 6.453 14.414 14.414 14.414h50.086c-7.961 0-14.414-6.454-14.414-14.414z" fill="#e2dee2"/><path d="m247.817 446.017h-229.209c-7.96 0-14.414 6.453-14.414 14.414v8.874c0 7.96 6.453 14.414 14.414 14.414h229.208c7.96 0 14.414-6.453 14.414-14.414v-8.874c0-7.961-6.453-14.414-14.413-14.414z" fill="#f3f0f3"/><path d="m54.281 469.304v-8.874c0-7.96 6.453-14.414 14.414-14.414h-50.087c-7.96 0-14.414 6.453-14.414 14.414v8.874c0 7.96 6.453 14.414 14.414 14.414h50.086c-7.96 0-14.413-6.453-14.413-14.414z" fill="#e2dee2"/><path d="m491.416 446.017h-229.209c-7.96 0-14.414 6.453-14.414 14.414v8.874c0 7.96 6.453 14.414 14.414 14.414h229.208c7.96 0 14.414-6.453 14.414-14.414v-8.874c0-7.961-6.453-14.414-14.413-14.414z" fill="#f3f0f3"/><circle cx="256.143" cy="428.617" fill="#fedf30" r="58.47"/><path d="m237.794 428.617c0-25.244 15.999-46.751 38.41-54.937-6.257-2.285-13.012-3.533-20.06-3.533-32.292 0-58.47 26.178-58.47 58.469 0 32.292 26.178 58.47 58.47 58.47 7.048 0 13.803-1.248 20.06-3.533-22.412-8.185-38.41-29.692-38.41-54.936z" fill="#fed402"/></g></g><g><path d="m117.625 322.322v8.874c0 12.083 9.831 21.914 21.914 21.914h229.208c12.083 0 21.914-9.831 21.914-21.914v-8.874c0-10.372-7.246-19.078-16.94-21.337l-21.104-259.158c-1.101-13.528-12.596-24.126-26.17-24.126h-140.369c-13.574 0-25.069 10.598-26.17 24.126l-3.338 40.998c-.336 4.128 2.738 7.747 6.866 8.084 4.137.331 7.748-2.738 8.084-6.867l3.338-40.998c.472-5.8 5.4-10.343 11.22-10.343h140.369c5.819 0 10.748 4.543 11.22 10.343l20.958 257.365h-50.409c-4.142 0-7.5 3.357-7.5 7.5s3.358 7.5 7.5 7.5h60.532c3.812 0 6.914 3.102 6.914 6.913v8.874c0 3.813-3.102 6.914-6.914 6.914h-229.209c-3.812 0-6.914-3.102-6.914-6.914v-8.874c0-3.812 3.102-6.913 6.914-6.913h136.714c4.142 0 7.5-3.357 7.5-7.5s-3.358-7.5-7.5-7.5h-122.352l15.025-184.504c.336-4.128-2.738-7.747-6.866-8.084-4.136-.339-7.748 2.738-8.084 6.867l-15.126 185.738c-11.765.366-21.225 10.044-21.225 21.896z"/><path d="m495.347 439.096-21.104-259.161c-1.102-13.528-12.597-24.126-26.17-24.126h-62.988c-4.142 0-7.5 3.357-7.5 7.5s3.358 7.5 7.5 7.5h62.988c5.819 0 10.747 4.543 11.22 10.343l20.958 257.368h-33.244c-4.142 0-7.5 3.357-7.5 7.5s3.358 7.5 7.5 7.5h43.366c3.813 0 6.914 3.102 6.914 6.914v8.874c0 3.812-3.102 6.913-6.914 6.913h-165.071c-4.142 0-7.5 3.357-7.5 7.5s3.358 7.5 7.5 7.5h165.071c12.083 0 21.914-9.83 21.914-21.913v-8.874c0-10.372-7.246-19.078-16.94-21.338z"/><path d="m335.39 446.02c0 4.143 3.358 7.5 7.5 7.5h72.155c4.142 0 7.5-3.357 7.5-7.5s-3.358-7.5-7.5-7.5h-72.155c-4.142 0-7.5 3.357-7.5 7.5z"/><path d="m186.981 476.218h-165.067c-3.812 0-6.914-3.102-6.914-6.914v-8.874c0-3.812 3.102-6.913 6.914-6.913h147.482c4.142 0 7.5-3.357 7.5-7.5s-3.358-7.5-7.5-7.5h-137.36l20.957-257.365c.473-5.8 5.401-10.343 11.22-10.343h63.228c4.142 0 7.5-3.357 7.5-7.5s-3.358-7.5-7.5-7.5h-63.228c-13.573 0-25.068 10.598-26.17 24.126l-21.103 259.158c-9.694 2.26-16.94 10.965-16.94 21.337v8.874c0 12.083 9.831 21.914 21.914 21.914h165.068c4.142 0 7.5-3.357 7.5-7.5s-3.358-7.5-7.501-7.5z"/><path d="m256.143 362.647c-36.375 0-65.969 29.594-65.969 65.97s29.594 65.97 65.969 65.97c36.376 0 65.97-29.594 65.97-65.97s-29.594-65.97-65.97-65.97zm0 116.939c-28.104 0-50.969-22.865-50.969-50.97s22.865-50.97 50.969-50.97c28.105 0 50.97 22.865 50.97 50.97s-22.865 50.97-50.97 50.97z"/></g></g></svg>