<svg id="Capa_1" enable-background="new 0 0 505.536 505.536" height="512" viewBox="0 0 505.536 505.536" width="512" xmlns="http://www.w3.org/2000/svg"><g><g><g><g id="XMLID_319_"><g><path d="m497.295 91.084-76.61-6.26-6.26-76.6c20.34 2.54 40.01 11.61 55.63 27.23s24.7 35.29 27.24 55.63z" fill="#cb97e7"/><path d="m429.885 340.054c2.73 1.91 2.45 5.98-.41 7.69-6.45 3.84-11.83 8.95-15.96 15.54-1.82 2.9-6.04 2.83-7.8-.09-3.76-6.23-9.17-11.26-15.97-15.25-2.97-1.75-3.1-5.96-.22-7.84 6.77-4.41 12.32-9.73 16.36-16.15 1.74-2.76 5.75-2.74 7.61-.07 4.35 6.21 9.84 11.57 16.39 16.17z" fill="#fedf30"/><path d="m497.295 91.083c-2.54-20.34-11.62-40.01-27.24-55.63s-35.29-24.69-55.63-27.23c-28.25-3.53-57.77 5.55-79.45 27.23l-13.07 13.06-195.52 195.52c-32.1 32.1-46.16 78.05-37.53 122.62l6.399 33.01c1.04 5.366 5.236 9.561 10.602 10.6l32.999 6.39c44.57 8.63 90.52-5.43 122.62-37.53l208.58-208.58c18.65-18.66 27.98-43.1 27.98-67.55 0-3.979-.25-7.959-.74-11.91z" fill="#a79ba7"/><path d="m140.864 386.121c-8.63-44.57 5.43-90.52 37.53-122.62l195.52-195.52 13.07-13.06c20.186-20.186 47.183-29.441 73.61-27.772-13.765-10.565-29.754-16.876-46.168-18.926-28.25-3.53-57.77 5.55-79.45 27.23l-13.07 13.06-195.52 195.52c-32.1 32.1-46.16 78.05-37.53 122.62l6.433 33.19c1.019 5.257 5.13 9.367 10.387 10.385l33.179 6.425c2.724.528 5.453.967 8.184 1.326z" fill="#918291"/></g></g></g><path d="m288.606 99.049c-5.402-3.789-9.936-8.216-13.521-13.34-1.541-2.204-4.848-2.216-6.28.059-3.337 5.299-7.911 9.685-13.498 13.325-2.381 1.551-2.271 5.027.18 6.467 5.613 3.298 10.075 7.44 13.175 12.583 1.454 2.412 4.938 2.465 6.434.078 3.41-5.441 7.851-9.658 13.173-12.828 2.362-1.406 2.588-4.766.337-6.344z" fill="#fedf30"/><path d="m212.532 422.281c-6.548-4.592-12.043-9.957-16.387-16.169-1.868-2.671-5.875-2.686-7.612.072-4.044 6.422-9.588 11.739-16.359 16.15-2.886 1.88-2.752 6.093.218 7.838 6.803 3.997 12.211 9.018 15.968 15.251 1.762 2.923 5.985 2.987 7.798.095 4.132-6.595 9.515-11.705 15.966-15.548 2.862-1.705 3.135-5.776.408-7.689z" fill="#fedf30"/><path d="m497.295 91.084c.49 3.95.74 7.93.74 11.91 0 24.45-9.33 48.89-27.98 67.55l-13.06 13.06-115.929-9.469c-5.162-.422-9.26-4.519-9.682-9.682l-9.478-115.929v-.01l13.07-13.06c21.68-21.68 51.2-30.76 79.45-27.23l5.451 66.697c.467 5.712 5.001 10.246 10.713 10.713z" fill="#cbc4cc"/><path d="m368.415 272.184-88.57 88.57-117.141-9.577c-4.464-.365-8.007-3.908-8.372-8.372l-9.577-117.141 88.583-88.583 9.643 118.101c.32 3.917 3.429 7.027 7.346 7.347z" fill="#cbc4cc"/><g fill="#b5adb6"><path d="m386.984 54.921c8.784-8.784 18.858-15.495 29.612-20.14l-2.17-26.558c-28.25-3.53-57.77 5.55-79.45 27.23l-13.07 13.06v.01l5.401 66.065 46.607-46.607z"/><path d="m144.755 225.663 6.296 77.012c6.657-14.368 15.833-27.665 27.342-39.174l60.34-60.34-5.396-66.081z"/></g></g><g><path d="m216.839 416.141c-5.896-4.136-10.791-8.956-14.548-14.325-2.345-3.354-6.214-5.319-10.271-5.199-4.021.097-7.697 2.18-9.832 5.571-3.358 5.332-7.974 9.866-14.108 13.862-3.536 2.305-5.589 6.192-5.491 10.4.098 4.229 2.343 8.038 6.004 10.188 5.955 3.499 10.32 7.639 13.345 12.657 2.189 3.63 6.025 5.819 10.261 5.855h.106c4.178 0 7.988-2.107 10.209-5.651 3.415-5.449 7.814-9.73 13.45-13.088 3.578-2.132 5.807-5.881 5.96-10.027.15-4.075-1.75-7.904-5.085-10.243zm-24.526 21.725c-3.298-4.443-7.445-8.39-12.392-11.789 4.936-3.67 9.132-7.811 12.536-12.369 3.501 4.407 7.608 8.465 12.271 12.12-4.796 3.361-8.952 7.391-12.415 12.038z"/><path d="m434.194 333.909c-5.896-4.135-10.791-8.955-14.548-14.324-2.345-3.354-6.183-5.299-10.271-5.199-4.021.097-7.697 2.18-9.832 5.571-3.358 5.332-7.974 9.866-14.108 13.862-3.536 2.305-5.589 6.192-5.491 10.4.098 4.229 2.343 8.038 6.004 10.188 5.955 3.499 10.32 7.639 13.345 12.657 2.189 3.631 6.026 5.819 10.263 5.855h.104c4.179 0 7.989-2.107 10.209-5.651 3.415-5.449 7.814-9.73 13.45-13.088 3.578-2.132 5.807-5.881 5.961-10.027.15-4.075-1.751-7.905-5.086-10.244zm-24.527 21.726c-3.298-4.444-7.445-8.391-12.392-11.79 4.936-3.67 9.132-7.811 12.536-12.369 3.501 4.407 7.609 8.465 12.271 12.12-4.796 3.361-8.951 7.391-12.415 12.039z"/><path d="m251.689 112.027c4.72 2.772 8.171 6.04 10.551 9.988 2.043 3.389 5.623 5.433 9.578 5.467h.1c3.901 0 7.46-1.968 9.533-5.277 2.706-4.316 6.192-7.708 10.657-10.367 3.336-1.987 5.414-5.483 5.559-9.352.142-3.81-1.635-7.39-4.753-9.577-4.74-3.324-8.67-7.193-11.683-11.501-2.188-3.127-5.775-4.917-9.582-4.846-3.757.091-7.192 2.038-9.19 5.209-2.667 4.236-6.346 7.847-11.244 11.038-3.302 2.15-5.218 5.78-5.127 9.71.09 3.946 2.185 7.501 5.601 9.508zm20.382-17.947c2.356 2.799 5.01 5.419 7.94 7.843-3.024 2.289-5.728 4.91-8.088 7.844-2.267-2.798-4.946-5.346-8.02-7.625 3.102-2.46 5.831-5.153 8.168-8.062z"/><path d="m475.363 30.149c-40.168-40.167-105.524-40.165-145.694 0l-34.33 34.33c-2.929 2.93-2.929 7.678 0 10.607 2.93 2.928 7.678 2.928 10.607 0l9.805-9.805 8.603 105.269-74.662 74.662-8.603-105.27 3.712-3.712c2.929-2.93 2.929-7.678 0-10.607-2.93-2.928-7.678-2.928-10.607 0l-60.184 60.184c-2.929 2.93-2.929 7.678 0 10.607 1.465 1.464 3.385 2.196 5.304 2.196s3.839-.732 5.304-2.196l42.559-42.559 8.602 105.27-74.662 74.662-8.603-105.27 9.398-9.398c2.929-2.93 2.929-7.678 0-10.607-2.93-2.928-7.678-2.928-10.607 0l-30.22 30.221c-33.91 33.911-48.711 82.266-39.592 129.347l7.356 37.976-86.652 86.652c-2.929 2.93-2.929 7.678 0 10.607 1.465 1.464 3.384 2.196 5.304 2.196 1.919 0 3.839-.732 5.304-2.196l86.654-86.654 37.967 7.354c.644.126 1.287.237 1.932.348l.646.112c.438.076.874.113 1.304.113 3.574 0 6.74-2.564 7.379-6.206.715-4.08-2.013-7.967-6.093-8.683l-.692-.119c-.536-.093-1.072-.185-1.615-.29l-28.027-5.428 45.556-45.556 105.269 8.603-6.91 6.91c-7.889 7.889-16.811 14.745-26.521 20.377-3.582 2.078-4.802 6.668-2.724 10.251 1.391 2.398 3.907 3.737 6.494 3.737 1.277 0 2.572-.326 3.757-1.014 10.834-6.284 20.793-13.938 29.601-22.745l137.217-137.217c2.929-2.93 2.929-7.678 0-10.607-2.93-2.928-7.678-2.928-10.607 0l-27.821 27.822-105.271-8.604 74.662-74.662 105.269 8.603-24.24 24.24c-2.929 2.93-2.929 7.678 0 10.607 1.465 1.464 3.385 2.196 5.304 2.196s3.839-.732 5.304-2.196l48.764-48.765c19.458-19.458 30.174-45.329 30.174-72.847s-10.716-53.387-30.174-72.846zm-48.522 37.914-4.144-50.704c13.125 3.071 25.667 9.187 36.512 18.336zm42.981-21.766c9.005 10.653 15.251 23.117 18.381 36.522l-50.755-4.148zm-129.546-5.541c18.417-18.418 43.032-26.938 67.194-25.587l5.459 66.807-74.662 74.663-8.603-105.269zm-244.055 324.471c-8.171-42.183 5.09-85.506 35.473-115.889l6.91-6.91 8.603 105.27-45.556 45.556zm255.435-86.892-74.662 74.662-105.269-8.603 74.662-74.662zm113.099-113.099-10.612 10.613-105.269-8.603 74.662-74.662 66.853 5.464c.091 1.643.148 3.292.148 4.95-.001 23.509-9.156 45.614-25.782 62.238z"/></g></g></svg>