<svg id="Capa_1" enable-background="new 0 0 511.881 511.881" height="512" viewBox="0 0 511.881 511.881" width="512" xmlns="http://www.w3.org/2000/svg"><g><g><g><path d="m191.039 175.651h128.803v300.427h-128.803z" fill="#fe76a8"/></g><g><path d="m267.965 299.196c18.142-.448 32.42-15.722 32.42-33.869v-3.225c0-2.24 1.816-4.057 4.057-4.057 5.346 0 10.51-.781 15.401-2.209v-80.185h-84.265-5.126-39.412v227.306 73.12h128.803v-.553-72.567h-50.37c-18.72 0-33.896-15.176-33.896-33.896v-84.403c0-1.86 2.43-2.571 3.423-.998 6.033 9.553 16.788 15.837 28.965 15.536z" fill="#fe5694"/><path d="m255.441 140.808h-55.686c-25.912 0-46.455 21.856-44.851 47.719l1.411 22.755c.609 9.816 4.553 19.13 11.179 26.397l8.142 8.93c1.415 1.552 2.199 3.576 2.199 5.677v47.523c0 9.35 7.579 16.929 16.929 16.929 9.35 0 16.929-7.579 16.929-16.929v-48.132c0-10.266 8.322-18.589 18.589-18.589 10.266 0 18.589 8.322 18.589 18.589v14.273c0 10.083 8.174 18.257 18.257 18.257 10.083 0 18.257-8.174 18.257-18.257v-9.871c0-7.198 5.835-13.033 13.033-13.033h6.024c22.107 0 40.029-17.921 40.029-40.029v-22.18c0-22.107-17.921-40.029-40.029-40.029z" fill="#ffc8dd"/><path d="m271.163 260.683v-14.273c0-.043 0-.086 0-.129-.043-6.265-5.31-11.246-11.575-11.246l-21.057-.022c6.134 3.036 10.341 9.355 10.341 16.663v13.811c0 10.061 8.227 18.737 18.289 18.72 5.852-.01 11.07-2.788 14.404-7.078-6.133-2.945-10.402-9.19-10.402-16.446z" fill="#fea3c6"/><path d="m355.907 422.958h-199.933c-14.651 0-24.564 14.935-18.875 28.436l17.049 40.458c3.199 7.592 10.636 12.529 18.875 12.529h165.835c8.239 0 15.676-4.936 18.875-12.529l17.049-40.458c5.689-13.501-4.224-28.436-18.875-28.436z" fill="#bc7c63"/><path d="m223.286 476.078c-13.439 0-25.569-8.052-30.788-20.436l-13.717-32.551c-.019-.044-.033-.089-.051-.133h-22.756c-14.651 0-24.564 14.935-18.875 28.436l17.049 40.458c3.199 7.592 10.636 12.529 18.875 12.529h165.835c8.239 0 15.676-4.936 18.875-12.529l6.647-15.774z" fill="#aa6a51"/><path d="m297.623 64.759c0 23.021-18.662 41.682-41.682 41.682s-41.682-18.662-41.682-41.682c0-19.002 28.399-46.83 38.315-55.968 1.905-1.756 4.83-1.756 6.735 0 9.915 9.137 38.314 36.966 38.314 55.968z" fill="#fee97d"/><path d="m246.246 64.759c0-13.311 13.933-30.946 25.689-43.46-5.026-5.35-9.657-9.771-12.626-12.507-1.905-1.756-4.83-1.756-6.735 0-9.916 9.137-38.315 36.966-38.315 55.968 0 23.021 18.662 41.682 41.682 41.682 5.667 0 11.068-1.136 15.994-3.185-15.083-6.273-25.689-21.145-25.689-38.498z" fill="#fedf30"/></g><path d="m304.442 140.808h-49.001-55.686c-8.267 0-15.98 2.235-22.61 6.106l-.002-.004c-14.149 8.26-23.332 24.005-22.24 41.616l1.411 22.755c.609 9.816 4.553 19.129 11.179 26.397l8.142 8.93c1.415 1.552 2.199 3.576 2.199 5.676v47.05c0 9.241 7.204 17.136 16.442 17.395 6.031.169 11.374-2.817 14.504-7.428-5.162-2.9-8.654-8.419-8.654-14.761v-37.565c0-8.507-3.177-16.707-8.909-22.993l-1.433-1.572c-4.815-5.299-7.68-12.08-8.123-19.226l-.479-7.726c-1.604-25.862 18.939-47.719 44.851-47.719h55.686 49.001c2.328 0 4.606.21 6.825.592-7.203-10.576-19.341-17.523-33.103-17.523z" fill="#fea3c6"/></g><path d="m379.221 427.965c-5.198-7.832-13.914-12.508-23.313-12.508h-28.565v-87.113c0-4.143-3.357-7.5-7.5-7.5s-7.5 3.357-7.5 7.5v87.113h-69.599c-4.143 0-7.5 3.357-7.5 7.5s3.357 7.5 7.5 7.5h113.164c4.426 0 8.368 2.115 10.816 5.803 2.447 3.688 2.866 8.143 1.147 12.222l-17.049 40.458c-2.033 4.824-6.729 7.941-11.964 7.941h-165.835c-5.234 0-9.931-3.117-11.964-7.941l-17.049-40.458c-1.719-4.079-1.3-8.533 1.147-12.222 2.448-3.688 6.391-5.803 10.816-5.803h54.807c4.143 0 7.5-3.357 7.5-7.5s-3.357-7.5-7.5-7.5h-12.241v-91.513c11.685-1.82 20.655-11.95 20.655-24.137v-48.131c0-6.114 4.974-11.089 11.088-11.089s11.089 4.975 11.089 11.089v14.273c0 14.202 11.555 25.757 25.757 25.757s25.757-11.555 25.757-25.757v-9.872c0-3.051 2.482-5.532 5.533-5.532h6.023c2.692 0 5.329-.237 7.9-.669v46.505c0 4.143 3.357 7.5 7.5 7.5s7.5-3.357 7.5-7.5v-51.732c14.669-8.101 24.629-23.723 24.629-41.632v-22.181c0-26.207-21.321-47.528-47.529-47.528h-41.001v-19.938c23.572-3.622 41.683-24.042 41.683-48.611 0-8.944-5.292-28.826-40.731-61.48-4.739-4.37-12.163-4.37-16.9-.002-2.273 2.095-5.835 5.465-9.889 9.625-2.891 2.966-2.83 7.715.137 10.605 2.966 2.891 7.715 2.83 10.605-.137 2.916-2.991 5.558-5.547 7.598-7.467 20.826 19.54 34.181 38.58 34.181 48.855 0 18.849-15.334 34.183-34.183 34.183s-34.183-15.334-34.183-34.183c0-3.086 1.245-8.689 7.175-17.859 2.249-3.478 1.253-8.121-2.226-10.37-3.479-2.251-8.121-1.254-10.37 2.226-6.445 9.967-9.579 18.473-9.579 26.004 0 24.57 18.11 44.989 41.683 48.611v19.938h-48.686c-14.624 0-28.194 5.868-38.21 16.524-10.015 10.656-15.031 24.563-14.126 39.157l1.411 22.755c.711 11.481 5.371 22.486 13.122 30.987l8.142 8.928c.156.172.242.394.242.625v47.522c0 9.425 5.368 17.614 13.203 21.687v93.964h-27.565c-9.399 0-18.115 4.676-23.313 12.508-5.199 7.832-6.123 17.68-2.473 26.341l17.049 40.458c4.382 10.398 14.503 17.117 25.786 17.117h165.836c11.283 0 21.404-6.719 25.786-17.117l17.049-40.458c3.65-8.661 2.726-18.509-2.473-26.341zm-206.185-195.34c-5.454-5.983-8.734-13.729-9.235-21.809l-1.411-22.756c-.646-10.42 2.936-20.348 10.086-27.955 7.15-7.608 16.838-11.798 27.279-11.798h104.687c17.937 0 32.529 14.592 32.529 32.528v22.181c0 17.937-14.593 32.528-32.529 32.528h-6.023c-11.322 0-20.533 9.211-20.533 20.532v9.872c0 5.932-4.825 10.757-10.757 10.757s-10.757-4.825-10.757-10.757v-14.273c0-14.386-11.703-26.089-26.089-26.089-14.385 0-26.088 11.703-26.088 26.089v48.131c0 5.199-4.23 9.43-9.43 9.43s-9.429-4.23-9.429-9.43v-47.522c0-3.978-1.476-7.788-4.157-10.73z"/></g></svg>