<svg id="Capa_1" enable-background="new 0 0 506.516 506.516" height="512" viewBox="0 0 506.516 506.516" width="512" xmlns="http://www.w3.org/2000/svg"><g><g><g id="XMLID_333_"><path d="m496.928 261.301h-148.25c-.58 0-1.15.25-1.54.68l-46.38 51.08 19.213 34.266h110.136l24.541-34.266 43.83-48.27c1.21-1.34.26-3.49-1.55-3.49z" fill="#c8effe"/><path d="m254.378 261.981c-.39-.43-.96-.68-1.54-.68h-243.25c-1.81 0-2.76 2.15-1.55 3.49l43.83 48.27 43.167 32.032h195.691l10.033-32.032z" fill="#99e6fc"/></g><path d="m60.929 264.791c-1.21-1.34-.26-3.49 1.55-3.49h-52.891c-1.81 0-2.76 2.15-1.55 3.49l43.83 48.27 43.167 32.032h52.891l-43.167-32.032z" fill="#62dbfb"/><path d="m300.758 313.061h-248.89v152.79c0 7.01 5.69 12.68 12.7 12.66l236.19-.58 42.622-24.71v-95.474z" fill="#62dbfb"/><path d="m104.759 465.851v-152.79h-52.891v152.79c0 7.01 5.69 12.68 12.7 12.66l51.167-.125c-6.193-.826-10.976-6.111-10.976-12.535z" fill="#01d0fb"/><g id="XMLID_335_"><g><path d="m454.648 313.061v151.86c0 6.98-5.65 12.65-12.63 12.67l-141.26.34v-164.87z" fill="#99e6fc"/></g></g><path d="m402.781 477.666h-49.727v-63.673c0-3.745 4.13-6.018 7.294-4.014l15.028 9.517c1.552.983 3.532.983 5.084 0l15.028-9.517c3.164-2.004 7.294.27 7.294 4.014v63.673z" fill="#fee97d"/><path d="m255.557 415.779h-158.485c-5.049 0-9.142-4.093-9.142-9.142v-30.227c0-5.049 4.093-9.142 9.142-9.142h158.485c5.049 0 9.142 4.093 9.142 9.142v30.227c0 5.048-4.093 9.142-9.142 9.142z" fill="#fee97d"/><path d="m97.072 367.267c-5.049 0-9.142 4.093-9.142 9.142v30.228c0 5.049 4.093 9.142 9.142 9.142h7.687v-48.512z" fill="#fee45a"/><path d="m262.865 34.253 3.717 11.441c1.212 3.729 4.686 6.253 8.607 6.253h12.03c8.767 0 12.411 11.218 5.319 16.371l-9.732 7.071c-3.172 2.304-4.499 6.389-3.287 10.118l3.717 11.441c2.709 8.337-6.834 15.271-13.926 10.118l-9.732-7.071c-3.172-2.304-7.467-2.304-10.638 0l-9.732 7.071c-7.092 5.153-16.635-1.78-13.926-10.118l3.717-11.441c1.212-3.729-.116-7.813-3.287-10.118l-9.732-7.071c-7.092-5.153-3.447-16.371 5.319-16.371h12.03c3.921 0 7.395-2.524 8.607-6.253l3.717-11.441c2.707-8.337 14.503-8.337 17.212 0z" fill="#fed402"/><path d="m70.492 161.057-6.39-3.398c-2.082-1.108-3.215-3.43-2.805-5.753l1.258-7.127c.917-5.194-5.349-8.526-9.143-4.863l-5.207 5.027c-1.697 1.638-4.256 1.998-6.338.89l-6.39-3.398c-4.657-2.477-9.762 2.452-7.45 7.193l3.172 6.505c1.034 2.12.585 4.665-1.112 6.303l-5.207 5.027c-3.794 3.663-.684 10.042 4.539 9.308l7.167-1.006c2.336-.328 4.617.885 5.651 3.005l3.172 6.506c2.312 4.74 9.339 3.754 10.255-1.44l1.258-7.127c.41-2.323 2.269-4.117 4.605-4.446l7.167-1.006c5.221-.735 6.454-7.723 1.798-10.2z" fill="#fed402"/><path d="m42.71 50.691v28.688c0 1.141.796 2.127 1.911 2.368l1.331.288c38.849 11.671 71.285 42.418 94.622 76.718l5.974 13.337c1.186 2.647 5.173 1.467 4.727-1.399l-1.782-11.449c-8.529-54.796-49.716-98.793-103.831-110.914-1.513-.34-2.952.811-2.952 2.363z" fill="#ffc8dd"/><path d="m438.024 161.057 6.39-3.398c2.082-1.108 3.215-3.43 2.805-5.753l-1.258-7.127c-.917-5.194 5.349-8.526 9.143-4.863l5.207 5.027c1.697 1.638 4.256 1.998 6.338.89l6.39-3.398c4.657-2.477 9.762 2.452 7.45 7.193l-3.172 6.505c-1.034 2.12-.585 4.665 1.112 6.303l5.207 5.027c3.794 3.663.684 10.042-4.539 9.308l-7.167-1.006c-2.336-.328-4.617.885-5.651 3.005l-3.172 6.506c-2.312 4.74-9.339 3.754-10.255-1.44l-1.258-7.127c-.41-2.323-2.269-4.117-4.605-4.446l-7.167-1.006c-5.222-.735-6.455-7.723-1.798-10.2z" fill="#fed402"/><path d="m465.805 50.691v28.688c0 1.141-.796 2.127-1.911 2.368l-1.331.288c-41.947 9.07-77.077 37.553-94.622 76.718l-5.974 13.337c-1.186 2.647-5.173 1.467-4.727-1.399l1.782-11.449c8.529-54.796 49.716-98.793 103.831-110.914 1.514-.34 2.952.811 2.952 2.363z" fill="#ffc8dd"/></g><g><path d="m505.696 259.505c-1.535-3.467-4.977-5.707-8.768-5.707h-148.246c-2.697 0-5.284 1.146-7.098 3.142l-40.826 44.964-40.829-44.967c-1.813-1.995-4.4-3.14-7.095-3.14h-243.247c-3.792 0-7.232 2.24-8.767 5.707s-.879 7.521 1.668 10.326l41.883 46.128v149.896c0 5.395 2.104 10.464 5.923 14.274 3.808 3.798 8.861 5.887 14.236 5.887h.052l377.45-.929c11.09-.028 20.112-9.072 20.112-20.162v-148.965l41.882-46.128c2.549-2.806 3.205-6.859 1.67-10.326zm-255.258 9.292 33.38 36.764h-228.627l-33.38-36.764zm-185.893 202.218c-.004 0-.009 0-.013 0-1.376 0-2.67-.535-3.645-1.507-.978-.976-1.516-2.273-1.516-3.654v-145.293h233.887v149.892zm296.009-.849v-51.179l10.807 6.843c3.982 2.523 9.129 2.525 13.111.001l10.809-6.845v51.18zm90.77-164.605h-27.454c-4.143 0-7.5 3.357-7.5 7.5s3.357 7.5 7.5 7.5h23.274v144.363c0 2.839-2.311 5.155-5.149 5.162l-31.715.078v-56.172c0-4.467-2.431-8.58-6.345-10.734-3.914-2.153-8.688-2.007-12.462.384l-13.557 8.585-13.557-8.585c-3.774-2.39-8.549-2.536-12.461-.384-3.914 2.153-6.346 6.267-6.346 10.734v56.331l-37.296.092v-149.854h83.65c4.143 0 7.5-3.357 7.5-7.5s-3.357-7.5-7.5-7.5h-74.21l33.38-36.763h133.625z"/><path d="m255.557 359.767h-37.138c-4.142 0-7.5 3.357-7.5 7.5s3.358 7.5 7.5 7.5h37.138c.905 0 1.643.736 1.643 1.642v30.228c0 .905-.737 1.643-1.643 1.643h-158.485c-.906 0-1.643-.737-1.643-1.643v-30.228c0-.905.737-1.642 1.643-1.642h89.384c4.142 0 7.5-3.357 7.5-7.5s-3.358-7.5-7.5-7.5h-89.384c-9.177 0-16.643 7.466-16.643 16.642v30.228c0 9.177 7.466 16.643 16.643 16.643h158.484c9.177 0 16.643-7.466 16.643-16.643v-30.228c0-9.176-7.466-16.642-16.642-16.642z"/><path d="m211.569 74.385 9.732 7.071c.545.396.771 1.093.563 1.732l-3.718 11.441c-2.257 6.946.103 14.21 6.012 18.503 5.91 4.293 13.546 4.293 19.456 0l9.732-7.071c.545-.396 1.277-.396 1.822 0l9.732 7.071c2.954 2.146 6.341 3.22 9.727 3.22 3.387 0 6.773-1.073 9.729-3.22 5.909-4.293 8.269-11.557 6.012-18.504l-3.717-11.438c-.209-.641.018-1.338.563-1.734l9.732-7.071c5.909-4.293 8.27-11.556 6.012-18.502-2.257-6.947-8.435-11.436-15.739-11.436h-12.03c-.673 0-1.266-.431-1.474-1.072l-3.718-11.439c-2.257-6.947-8.435-11.436-15.739-11.436s-13.482 4.488-15.739 11.435l-3.718 11.441c-.208.641-.8 1.071-1.474 1.071h-12.03c-7.305 0-13.483 4.489-15.74 11.436-2.256 6.948.104 14.209 6.012 18.502zm8.254-13.867c.348-1.07 1.166-1.07 1.474-1.07h12.03c7.192 0 13.517-4.596 15.739-11.436l3.718-11.441c.095-.293.348-1.07 1.474-1.07s1.378.777 1.474 1.07v.001l3.718 11.438c2.222 6.841 8.547 11.438 15.739 11.438h12.03c.308 0 1.126 0 1.474 1.07s-.313 1.551-.563 1.732l-9.732 7.071c-5.817 4.227-8.234 11.662-6.013 18.504l3.718 11.439c.095.293.348 1.071-.563 1.732-.914.664-1.572.181-1.821.001l-9.732-7.071c-2.909-2.114-6.317-3.171-9.728-3.171-3.409 0-6.819 1.057-9.728 3.171l-9.732 7.071c-.249.181-.911.661-1.822-.001-.911-.661-.658-1.439-.563-1.731l3.718-11.441c2.222-6.84-.194-14.275-6.012-18.503l-9.733-7.071c-.25-.181-.911-.662-.564-1.732z"/><path d="m30.46 184.197 5.689-.798 2.517 5.163c2.196 4.503 6.718 7.273 11.616 7.272.602 0 1.21-.042 1.819-.127 5.571-.782 9.97-5.03 10.947-10.57l.998-5.656 5.688-.799c5.571-.782 9.97-5.029 10.948-10.569.977-5.539-1.703-11.036-6.67-13.678l-5.071-2.697.998-5.657c.978-5.539-1.703-11.036-6.669-13.678-4.965-2.64-11.022-1.791-15.069 2.117l-4.132 3.989-5.072-2.698c-4.966-2.64-11.022-1.79-15.069 2.117s-5.109 9.93-2.645 14.985l2.518 5.163-4.131 3.989c-4.047 3.906-5.11 9.928-2.646 14.984 2.466 5.059 7.865 7.933 13.436 7.148zm4.836-16.367c4.047-3.907 5.108-9.93 2.644-14.984l-.4-.82.803.428c4.967 2.642 11.024 1.795 15.071-2.115l.656-.633-.158.898c-.977 5.538 1.702 11.034 6.669 13.678l.803.427-.901.127c-5.57.782-9.969 5.029-10.947 10.57l-.158.896-.4-.819c-2.196-4.502-6.718-7.271-11.614-7.271-.602 0-1.21.042-1.82.128l-.903.126z"/><path d="m43.04 89.079 1.328.287c39.453 8.53 72.86 35.615 89.362 72.454l5.974 13.335c1.657 3.699 5.208 5.918 9.051 5.918.956 0 1.93-.138 2.897-.424 4.854-1.436 7.813-6.109 7.035-11.112l-1.782-11.449c-4.604-29.585-18.148-56.527-39.167-77.915-2.903-2.953-7.652-2.995-10.606-.093-2.955 2.903-2.996 7.652-.092 10.606 12.095 12.308 21.423 26.671 27.637 42.395-19.892-28.766-50.014-49.615-84.466-57.771v-18.116c11.674 3.232 22.791 8.101 33.121 14.51 3.52 2.183 8.143 1.1 10.327-2.419 2.184-3.52 1.101-8.144-2.419-10.327-13.57-8.42-28.352-14.459-43.938-17.95-2.957-.66-6.007.045-8.371 1.939-2.364 1.893-3.719 4.716-3.719 7.744v28.688c-.002 4.635 3.287 8.713 7.828 9.7z"/><path d="m89.793 192.709c-2.995-2.864-7.742-2.757-10.604.238-2.863 2.993-2.756 7.741.238 10.604 8.311 7.945 13.527 18.622 14.688 30.063.392 3.864 3.651 6.744 7.453 6.744.253 0 .509-.013.767-.039 4.121-.418 7.123-4.098 6.705-8.219-1.523-14.991-8.358-28.98-19.247-39.391z"/><path d="m194.938 183.315v52.003c0 4.143 3.358 7.5 7.5 7.5s7.5-3.357 7.5-7.5v-52.003c0-28.116-7.122-56.022-20.594-80.702-1.985-3.636-6.54-4.975-10.177-2.989-3.636 1.984-4.974 6.541-2.989 10.177 12.273 22.481 18.76 47.902 18.76 73.514z"/><path d="m464.446 138.509-4.133-3.989c-4.046-3.907-10.101-4.759-15.068-2.117s-7.647 8.138-6.67 13.679l.998 5.657-5.071 2.696c-4.967 2.642-7.646 8.139-6.669 13.678.978 5.54 5.377 9.787 10.947 10.569l5.688.8.998 5.656c.978 5.54 5.378 9.787 10.948 10.569.609.085 1.217.127 1.818.127 4.898 0 9.421-2.77 11.616-7.272l2.518-5.163 5.688.798c5.572.78 10.97-2.089 13.436-7.145 2.465-5.057 1.402-11.078-2.645-14.985l-4.133-3.99 2.518-5.163c2.466-5.057 1.403-11.079-2.645-14.986-4.046-3.906-10.102-4.754-15.068-2.115zm6.53 13.518-.4.82c-2.463 5.054-1.4 11.075 2.646 14.983l.655.633-.902-.126c-5.564-.782-10.971 2.089-13.435 7.145l-.4.82-.157-.896c-.977-5.541-5.376-9.789-10.948-10.571l-.902-.127.806-.428c4.967-2.643 7.646-8.14 6.668-13.679l-.158-.897.654.632c4.046 3.908 10.103 4.76 15.07 2.118z"/><path d="m356.863 180.649c.968.286 1.942.424 2.898.424 3.842 0 7.394-2.219 9.05-5.917l5.975-13.336c16.502-36.839 49.908-63.924 89.364-72.455l1.323-.286c4.538-.978 7.832-5.058 7.832-9.7v-28.688c0-3.028-1.355-5.852-3.72-7.744-2.362-1.894-5.411-2.602-8.373-1.938-28.027 6.277-53.217 20.679-72.846 41.646s-32.339 47.052-36.757 75.433l-1.781 11.448c-.777 5.003 2.181 9.676 7.035 11.113zm42.455-87.743c16.104-17.203 36.395-29.466 58.987-35.714v18.117c-34.445 8.152-64.561 28.997-84.455 57.754 5.843-14.774 14.434-28.37 25.468-40.157z"/><path d="m418.724 192.709c-10.891 10.412-17.726 24.401-19.245 39.391-.418 4.121 2.584 7.801 6.705 8.219.258.026.513.039.766.039 3.802 0 7.062-2.881 7.453-6.744 1.16-11.44 6.376-22.116 14.687-30.063 2.994-2.862 3.101-7.61.238-10.604-2.864-2.994-7.612-3.101-10.604-.238z"/><path d="m298.578 235.318c0 4.143 3.357 7.5 7.5 7.5s7.5-3.357 7.5-7.5v-52.003c0-25.613 6.487-51.034 18.76-73.515 1.984-3.636.646-8.192-2.989-10.177-3.636-1.986-8.191-.645-10.177 2.989-13.473 24.679-20.594 52.585-20.594 80.702z"/><path d="m246.758 129.096v103.76c0 4.143 3.358 7.5 7.5 7.5 4.143 0 7.5-3.357 7.5-7.5v-103.76c0-4.143-3.357-7.5-7.5-7.5-4.142 0-7.5 3.358-7.5 7.5z"/></g></g></svg>