<svg id="Capa_1" enable-background="new 0 0 512.387 512.387" height="512" viewBox="0 0 512.387 512.387" width="512" xmlns="http://www.w3.org/2000/svg"><g><g><path d="m416.14 99.173 35.574-43.298c6.103-7.428 4.375-18.514-3.698-23.732l-34.139-22.066c-8.073-5.219-18.891-2.241-23.157 6.373l-24.871 50.216-14.99 32.507 41.132 26.715z" fill="#bc7c63"/><path d="m413.528 123.674 2.038-3.12-69.148-41.743-8.375 9.44c.07.58-.07 1.18-.4 1.69l-52.9 81.86c-.595.915-1.381 1.639-2.269 2.177-3.919 1.07-8.047 1.014-11.964-.064-14.184-3.904-29.111-5.993-44.517-5.993-38.36 0-75.88 13.28-105.65 37.38-29.31 23.74-49.99 56.98-58.23 93.59-2.72 12.08-4.1 24.53-4.1 37.02 0 92.62 75.36 167.98 167.98 167.98 89.1 0 162.77-69.64 167.71-158.49.18-3.13.27-6.32.27-9.49 0-39.624-13.796-76.082-36.828-104.838-2.338-2.918-4.078-6.268-5.067-9.874-.096-1.472.264-2.973 1.105-4.278l53.31-82.47c.34-.52.84-.89 1.41-1.06l7.844-9.541z" fill="#f4eafa"/><g><path d="m433.108 22.507-19.232-12.431c-8.073-5.218-18.891-2.241-23.157 6.373l-24.871 50.216-14.99 32.507 41.132 26.715 24.15-26.715 12.783-15.558-16.451-10.632c-7.778-5.027-10.548-15.09-6.437-23.389l9.177-18.528c3.386-6.839 10.902-10.106 17.896-8.558z" fill="#aa6a51"/><g id="XMLID_562_"><g><path d="m413.528 123.674 2.038-3.12-15.561-9.394-21.921-13.233-7.7-4.648-23.967-14.468-8.375 9.44c.07.58-.07 1.18-.4 1.69l-52.9 81.86c-.595.915-1.381 1.639-2.269 2.177-3.919 1.07-8.047 1.014-11.964-.064-14.184-3.904-29.111-5.993-44.517-5.993-38.36 0-75.88 13.28-105.65 37.38-29.31 23.74-49.99 56.98-58.23 93.59-2.72 12.08-4.1 24.53-4.1 37.02 0 78.82 54.599 145.139 127.944 163.152-42.157-30.55-69.654-80.182-69.654-136.105 0-12.49 1.38-24.94 4.1-37.02 8.24-36.61 28.92-69.85 58.23-93.59 29.77-24.1 67.29-37.38 105.65-37.38 15.407 0 30.334 2.089 44.517 5.993 3.424.942 7.009 1.104 10.475.415 1.541-.306 2.898-1.213 3.758-2.528l29.822-46.148c4.569-7.07 14.004-9.097 21.074-4.528l.081.052c.697.45 1.338.981 1.91 1.582l.385.404 10.187-15.76c.34-.52.84-.89 1.41-1.06l7.844-9.541z" fill="#ebd5f6"/><path d="m225.992 203.923c-62.89 0-115.51 43.99-128.76 102.89l55.419 102.144h162.063l43.048-65.604c.14-2.46.21-4.94.21-7.44 0-72.891-59.09-131.99-131.98-131.99z" fill="#e5caf3"/><path d="m225.992 203.923c-62.89 0-115.51 43.99-128.76 102.89l20.144 37.128c.685-6.063 1.692-12.077 3.026-18 8.24-36.61 28.92-69.85 58.23-93.59 15.395-12.463 32.865-22.023 51.449-28.359-1.359-.042-2.721-.069-4.089-.069z" fill="#d9b1ee"/><path d="m274.132 328.602-23.82-9.08c-37.37-14.25-78.27-16.45-116.96-6.3l-17.05 4.47-15.47 4.056 125.055 73.946 80.865-56.201z" fill="#bd80e1"/><path d="m274.132 328.602c26.08-10.49 56.13-6.57 78.78 10.98l4.85 3.77c-3.86 69.43-61.38 124.54-131.77 124.54-72.89 0-131.98-59.09-131.98-131.98 0-10 1.11-19.74 3.22-29.1l19.07 10.89 48.15 27.49c24.6 14.04 54.79 14.01 79.36-.08l20.4-11.69c3.22-1.85 6.54-3.45 9.92-4.82z" fill="#cb97e7"/><path d="m116.302 362.96c0-12.49 1.38-24.94 4.1-37.02.39-1.734.817-3.458 1.263-5.176l-5.363-3.062-19.07-10.89c-2.11 9.36-3.22 19.1-3.22 29.1 0 33.938 12.814 64.879 33.862 88.262-7.459-18.978-11.572-39.623-11.572-61.214z" fill="#bd80e1"/></g></g><path d="m386.644 446.072c-6.654-4.667-12.239-10.119-16.653-16.431-1.898-2.714-5.971-2.729-7.736.073-4.11 6.526-9.744 11.929-16.625 16.412-2.933 1.911-2.797 6.192.222 7.965 6.913 4.062 12.409 9.164 16.227 15.498 1.79 2.97 6.083 3.035 7.924.096 4.2-6.702 9.67-11.895 16.225-15.8 2.91-1.732 3.188-5.87.416-7.813z" fill="#fedf30"/><path d="m114.61 211.786c-6.654-4.667-12.239-10.119-16.653-16.431-1.898-2.714-5.971-2.729-7.736.073-4.11 6.527-9.744 11.929-16.625 16.412-2.933 1.911-2.797 6.192.222 7.965 6.913 4.062 12.409 9.164 16.227 15.498 1.791 2.97 6.083 3.035 7.924.096 4.2-6.702 9.67-11.895 16.225-15.8 2.909-1.732 3.188-5.869.416-7.813z" fill="#fedf30"/><g fill="#bd80e1"><circle cx="182.708" cy="407.669" r="17.325"/><circle cx="268.371" cy="392.59" r="22.138"/></g></g><path d="m419.382 101.262-56.77-36.69c-7.64-4.94-18.58-3.18-23.85 4.23-1.04 1.46-1.816 3.022-2.348 4.631l74.197 55.895h10.823c1.504-1.252 2.826-2.779 3.877-4.576 4.711-8.05 1.901-18.429-5.929-23.49z" fill="#f4eafa"/><path d="m357.482 87.292c-8.436-6.706-3.02-12.82 1.02-18.49 1.181-1.661 2.658-3.021 4.307-4.103l-.198-.127c-7.64-4.94-18.58-3.18-23.85 4.23-4.04 5.67-4.16 12.86-1.02 18.49.16.3.27.63.3.96 0 0 69.85 45.13 69.86 45.14.32-.11.65-.15 1-.12 4.49.378 9.016-1.016 12.533-3.944-17.126-11.212-63.735-41.863-63.952-42.036z" fill="#ebd5f6"/></g><g><path d="m225.991 475.395c76.912 0 139.484-62.572 139.484-139.483 0-20.221-4.24-39.734-12.602-57.998-1.725-3.768-6.176-5.421-9.941-3.697-3.766 1.725-5.421 6.175-3.697 9.941 6.449 14.085 10.143 29.01 11.026 44.459-22.922-14.364-50.946-17.228-76.124-8.042l-21.151-8.063c-39.07-14.892-81.097-17.154-121.538-6.544l-14.089 3.696-11.461-6.543c14.428-52.782 62.798-91.694 120.092-91.694 38.078 0 73.559 17.095 97.347 46.902 2.583 3.237 7.303 3.768 10.54 1.184 3.238-2.584 3.768-7.303 1.184-10.541-26.65-33.393-66.405-52.545-109.071-52.545-76.912 0-139.484 62.572-139.484 139.484.001 76.912 62.573 139.484 139.485 139.484zm21.653-148.867 8.114 3.093-15.673 8.987c-22.167 12.711-49.724 12.736-71.916.067l-32.191-18.38c37.175-9.597 75.77-7.448 111.666 6.233zm-86.912 25.173c13.371 7.633 28.354 11.449 43.336 11.449 15.038 0 30.074-3.844 43.479-11.53l20.391-11.692c25.547-14.65 57.097-12.458 80.374 5.585l1.681 1.303c-5.542 63.552-59.035 113.579-124.001 113.579-68.641 0-124.484-55.843-124.484-124.483 0-5.882.42-11.666 1.213-17.333z"/><path d="m137.441 199.643c1.348 0 2.713-.363 3.943-1.126 24.982-15.48 53.716-23.806 83.094-24.074 17.023-.181 33.854 2.334 49.971 7.399 6.229 1.961 13.049-.496 16.589-5.973l18.57-28.729c2.249-3.479 1.251-8.121-2.228-10.37-3.478-2.248-8.122-1.251-10.37 2.228l-18.38 28.436c-17.523-5.471-35.761-8.137-54.29-7.99-32.123.295-63.541 9.397-90.857 26.324-3.521 2.182-4.606 6.805-2.425 10.325 1.42 2.29 3.872 3.55 6.383 3.55z"/><path d="m319.036 468.108c-27.255 19.164-59.404 29.28-93.03 29.279-.279 0-.561 0-.84-.002-42.755-.213-82.972-16.969-113.243-47.18-30.266-30.206-47.102-70.381-47.404-113.123-.18-25.322 5.416-49.655 16.632-72.325 1.837-3.713.316-8.212-3.396-10.049-3.712-1.836-8.212-.316-10.048 3.396-12.265 24.79-18.384 51.397-18.188 79.083.332 46.715 18.73 90.622 51.808 123.635 33.083 33.018 77.036 51.329 123.764 51.563.308.001.61.002.917.002 36.727-.001 71.862-11.06 101.656-32.01 3.388-2.382 4.204-7.061 1.821-10.448-2.382-3.39-7.06-4.204-10.449-1.821z"/><path d="m462.592 42.026c-1.035-6.637-4.863-12.535-10.505-16.182l-34.139-22.066c-5.641-3.646-12.592-4.716-19.067-2.934-6.477 1.782-11.901 6.257-14.883 12.276l-21.326 43.058c-10.595-4.389-23.321-1.141-30.024 8.274-4.932 6.929-5.922 15.947-2.787 23.72l-15.445 23.894c-2.249 3.479-1.251 8.121 2.228 10.37 3.478 2.248 8.121 1.25 10.37-2.228l13.743-21.262 28.125 18.18c1.259.813 2.669 1.202 4.064 1.202 2.46 0 4.871-1.21 6.306-3.43 2.249-3.479 1.251-8.121-2.228-10.37l-32.921-21.279c-1.643-3.265-1.376-7.092.763-10.099 2.887-4.054 9.276-5.119 13.67-2.279l56.768 36.693c4.549 2.94 6.135 8.952 3.535 13.4-1.862 3.185-5.24 5.005-8.894 4.843l-12.397-8.013c-3.479-2.249-8.122-1.252-10.37 2.228-2.249 3.479-1.251 8.121 2.228 10.37l7.601 4.913-50.124 77.546c-3.488 5.396-2.98 12.564 1.236 17.436 25.353 29.286 39.326 66.767 39.346 105.537.011 21.774-4.188 42.873-12.481 62.708-1.598 3.822.205 8.215 4.026 9.813.945.395 1.926.582 2.89.582 2.934 0 5.72-1.732 6.922-4.608 9.065-21.681 13.655-44.729 13.643-68.503-.022-42.267-15.221-83.135-42.799-115.108l51.64-79.892c8.374-.334 16.192-4.942 20.483-12.282 5.941-10.165 3.731-22.901-4.773-30.787l30.491-37.111c4.266-5.189 6.119-11.973 5.085-18.61zm-16.673 9.088-31.327 38.128-39.054-25.243 21.902-44.221c1.102-2.226 3.027-3.813 5.421-4.472 2.392-.661 4.86-.279 6.944 1.068l34.139 22.066c2.085 1.348 3.444 3.44 3.826 5.894s-.275 4.862-1.851 6.78z"/><path d="m390.951 439.932c-6.004-4.212-10.989-9.12-14.813-14.589-2.36-3.375-6.215-5.315-10.336-5.231-4.045.098-7.744 2.193-9.893 5.606-3.42 5.432-8.122 10.052-14.372 14.124-3.558 2.317-5.624 6.228-5.526 10.461.098 4.256 2.357 8.089 6.042 10.255 6.068 3.565 10.518 7.786 13.603 12.903 2.202 3.652 6.061 5.855 10.323 5.893h.108c4.203 0 8.037-2.119 10.271-5.686 3.481-5.556 7.965-9.919 13.709-13.34 3.6-2.146 5.842-5.918 5.997-10.09.155-4.1-1.758-7.953-5.113-10.306zm-24.855 22.182c-3.391-4.602-7.676-8.68-12.803-12.182 5.113-3.782 9.447-8.059 12.947-12.773 3.605 4.561 7.849 8.753 12.677 12.522-4.964 3.458-9.257 7.621-12.821 12.433z"/><path d="m70.019 226.273c6.069 3.565 10.519 7.786 13.604 12.903 2.202 3.652 6.061 5.855 10.323 5.892.036 0 .071.001.107.001 4.203 0 8.038-2.12 10.272-5.687 3.48-5.554 7.964-9.917 13.708-13.339 3.601-2.145 5.843-5.917 5.999-10.09.153-4.101-1.759-7.954-5.115-10.308 0 0 0-.001-.001-.001-6.004-4.21-10.987-9.118-14.813-14.589-2.36-3.373-6.19-5.351-10.336-5.229-4.045.098-7.743 2.193-9.892 5.605-3.421 5.433-8.123 10.053-14.373 14.125-3.558 2.318-5.623 6.229-5.525 10.463.098 4.256 2.357 8.089 6.042 10.254zm24.188-23.401c3.605 4.562 7.849 8.754 12.677 12.523-4.966 3.459-9.258 7.621-12.822 12.433-3.39-4.603-7.675-8.68-12.802-12.182 5.112-3.781 9.446-8.058 12.947-12.774z"/><path d="m182.707 432.494c13.688 0 24.825-11.137 24.825-24.825s-11.137-24.825-24.825-24.825-24.825 11.137-24.825 24.825 11.137 24.825 24.825 24.825zm0-34.65c5.417 0 9.825 4.407 9.825 9.825s-4.408 9.825-9.825 9.825-9.825-4.407-9.825-9.825 4.408-9.825 9.825-9.825z"/><path d="m268.371 422.228c16.342 0 29.638-13.295 29.638-29.638s-13.295-29.638-29.638-29.638-29.638 13.295-29.638 29.638 13.296 29.638 29.638 29.638zm0-44.276c8.071 0 14.638 6.566 14.638 14.638s-6.566 14.638-14.638 14.638-14.638-6.566-14.638-14.638 6.567-14.638 14.638-14.638z"/></g></g></svg>