<svg id="Capa_1" enable-background="new 0 0 511.347 511.347" height="512" viewBox="0 0 511.347 511.347" width="512" xmlns="http://www.w3.org/2000/svg"><g><g><g><path d="m283.07 120.489-9.153 19.173c-2.563 5.368-7.981 8.786-13.929 8.786h-14.64c-5.948 0-11.367-3.418-13.929-8.786l-9.153-19.173-13.21-31.894h86.156z" fill="#c8effe"/></g><path d="m308.949 66.283 17.52-36.698c4.89-10.244-2.578-22.085-13.93-22.085h-119.743c-11.352 0-18.82 11.841-13.929 22.085l17.52 36.698 17.676 35.774h79.092z" fill="#bc7c63"/><g><g><g id="XMLID_337_"><g><path d="m148.168 223.794v-26.64c0-6.82 2.95-13.31 8.08-17.8l42.59-37.27v-21.59-36.6h109.39l-1.73 36.6v21.59l42.59 37.27c5.13 4.49 8.08 10.98 8.08 17.8v278.51c0 15.56-12.62 28.18-28.19 28.18h-152.62c-15.57 0-28.19-12.62-28.19-28.18v-147.62h.05z" fill="#ffc8dd"/></g></g></g><path d="m249.508 83.894h-10.258-40.412v36.6 21.59l-42.59 37.27c-5.13 4.49-8.08 10.98-8.08 17.8v26.64l.05 104.25c-.02 0-.03 0-.05 0v147.62c0 15.563 12.617 28.18 28.18 28.18h50.68c-15.57 0-28.19-12.62-28.19-28.18v-147.62h.05l-.05-104.25v-26.64c0-6.82 2.95-13.31 8.08-17.8l27.319-23.907c2.867-2.509 5.371-5.348 7.477-8.435 4.917-7.209 13.075-11.523 21.801-11.523h42.983v-14.996l1.73-36.6h-58.72z" fill="#fea3c6"/><path d="m313.932 51.283h-71.245c-8.497 0-16.237-4.882-19.898-12.55l-4.368-9.149c-4.89-10.243 2.579-22.084 13.93-22.084h-39.555c-11.352 0-18.82 11.841-13.929 22.085l17.52 36.698 17.676 35.773h23.316 16.239 39.537l15.794-35.773 7.124-14.922c-.709-.046-1.421-.078-2.141-.078z" fill="#aa6a51"/><path d="m185.464 109.87 145.274-1.851c.488-1.612.756-3.32.756-5.092v-19.082c0-9.699-7.863-17.562-17.562-17.562h-122.528c-9.699 0-17.562 7.863-17.562 17.562v19.082c0 1.524.214 2.994.579 4.404z" fill="#ffc8dd"/><path d="m231.625 102.057c-9.699 0-17.562-7.863-17.562-17.562v-18.212h-22.659c-9.699 0-17.562 7.863-17.562 17.562v19.082c0 9.699 7.863 17.562 17.562 17.562h122.528c9.699 0 17.562-7.863 17.562-17.562v-.871h-99.869z" fill="#fea3c6"/><g id="XMLID_341_"><g><path d="m276.851 367.272-34.763-2.009-24.574 46.255-6.276 18.055v1.98c0 2.71 1.08 5.3 2.99 7.21l30.28 30.28c3.86 3.87 10.09 4 14.11.3l33.19-30.53c2.09-1.93 3.29-4.66 3.29-7.51v-1.73z" fill="#fe5694"/><path d="m292.108 273.354-31.73-31.74c-3.98-3.979-10.44-3.979-14.42 0l-31.73 31.74c-1.91 1.91-2.99 4.5-2.99 7.2v2.53l18.224 56.454h44.796l20.84-56.454v-2.53c0-2.7-1.08-5.29-2.99-7.2z" fill="#fea3c6"/><path d="m295.098 283.084v146.49l-41.68-40.18v-66.13z" fill="#fe93bb"/><path d="m253.418 323.264v66.13l-42.18 40.18v-146.49z" fill="#fe76a8"/></g></g><g fill="#fedf30"><path d="m168.774 272.259c-6.654-4.667-12.239-10.119-16.653-16.431-1.898-2.714-5.971-2.729-7.736.073-4.11 6.527-9.744 11.929-16.625 16.412-2.933 1.911-2.797 6.192.222 7.965 6.913 4.062 12.409 9.164 16.227 15.498 1.791 2.97 6.083 3.035 7.924.096 4.2-6.702 9.67-11.895 16.225-15.8 2.91-1.732 3.188-5.869.416-7.813z"/><path d="m383.779 385.736c-6.654-4.667-12.239-10.119-16.653-16.431-1.898-2.714-5.971-2.729-7.736.073-4.11 6.527-9.744 11.929-16.625 16.412-2.933 1.911-2.797 6.192.222 7.965 6.913 4.062 12.409 9.164 16.227 15.498 1.791 2.97 6.083 3.035 7.924.096 4.2-6.702 9.67-11.895 16.225-15.8 2.909-1.732 3.187-5.869.416-7.813z"/></g></g></g><g><path d="m357.164 433.462c-4.142 0-7.5 3.357-7.5 7.5v34.698c0 11.406-9.28 20.687-20.687 20.687h-152.619c-11.407 0-20.687-9.28-20.687-20.687v-146.81c.029-.266.043-.536.043-.81 0-4.094-3.28-7.421-7.354-7.499-.064-.001-.131-.002-.189-.002-4.142 0-7.5 3.357-7.5 7.5v147.62c0 19.678 16.009 35.687 35.687 35.687h152.619c19.678 0 35.687-16.009 35.687-35.687v-34.698c0-4.142-3.358-7.499-7.5-7.499z"/><path d="m148.172 231.298c.088 0 .189-.002.286-.006 4.035-.122 7.269-3.432 7.269-7.496 0-.31-.019-.614-.055-.914v-25.729c0-4.657 2.011-9.089 5.516-12.156l42.589-37.266c1.627-1.425 2.561-3.481 2.561-5.645v-14.098h11.197l7.115 14.903c3.786 7.932 11.91 13.056 20.698 13.056h14.641c8.788 0 16.912-5.124 20.697-13.055l7.115-14.904h11.197v14.098c0 2.163.934 4.22 2.561 5.645l42.588 37.265c3.506 3.068 5.517 7.5 5.517 12.157v140.659c0 4.143 3.358 7.5 7.5 7.5s7.5-3.357 7.5-7.5v-140.659c0-8.982-3.877-17.528-10.638-23.445l-40.028-35.024v-10.696c13.789-.036 24.996-11.264 24.996-25.061v-19.082c0-11.572-7.886-21.332-18.564-24.202l12.807-26.826c3.413-7.148 2.928-15.416-1.298-22.116-4.226-6.701-11.478-10.701-19.4-10.701h-119.743c-7.921 0-15.173 4-19.399 10.7s-4.711 14.968-1.298 22.116l12.807 26.826c-10.678 2.87-18.564 12.63-18.564 24.202v19.082c0 13.797 11.207 25.024 24.996 25.061v10.696l-40.028 35.025c-6.76 5.916-10.638 14.462-10.638 23.444v26.645c0 4.143 3.357 7.501 7.5 7.501zm118.977-94.866c-1.31 2.743-4.121 4.517-7.161 4.517h-14.641c-3.04 0-5.851-1.773-7.161-4.518l-4.03-8.441h37.023zm-85.808-33.505v-19.082c0-5.548 4.514-10.062 10.063-10.062h66.696c4.142 0 7.5-3.357 7.5-7.5s-3.358-7.5-7.5-7.5h-56.984l-15.482-32.43c-1.198-2.51-1.035-5.299.449-7.651s3.931-3.702 6.713-3.702h119.743c2.782 0 5.228 1.35 6.712 3.702s1.647 5.142.449 7.651l-15.482 32.43h-14.155c-4.142 0-7.5 3.357-7.5 7.5s3.358 7.5 7.5 7.5h23.868c5.548 0 10.063 4.514 10.063 10.062v19.082c0 5.549-4.514 10.063-10.063 10.063h-122.527c-5.548-.001-10.063-4.514-10.063-10.063z"/><path d="m211.239 379.812c-4.142 0-7.5 3.357-7.5 7.5v44.247c0 4.726 1.84 9.169 5.183 12.512l30.28 30.28c3.459 3.458 7.98 5.199 12.511 5.198 4.284 0 8.576-1.557 11.98-4.688l33.188-30.53c3.632-3.341 5.715-8.087 5.715-13.022v-150.75c0-4.728-1.841-9.172-5.183-12.512l-31.733-31.733c-3.342-3.343-7.786-5.184-12.512-5.184s-9.17 1.841-12.512 5.183l-31.732 31.733c-3.343 3.341-5.184 7.785-5.184 12.513v74.79c0 4.143 3.358 7.5 7.5 7.5s7.5-3.357 7.5-7.5v-54.763l27.18 25.892v59.704l-27.18 25.892v-24.762c-.001-4.143-3.359-7.5-7.501-7.5zm42.299 84.009c-1.066.981-2.703.948-3.729-.078l-30.28-30.28c-.253-.253-.45-.548-.583-.869l34.443-32.811 33.923 32.706c-.146.297-.338.573-.585.801zm34.058-51.894-26.676-25.719v-59.757l26.676-25.719zm-36.333-165.008c.687-.687 1.488-.789 1.905-.789s1.218.103 1.905.79l31.735 31.735c.365.364.606.817.716 1.309l-34.136 32.912-34.571-32.933c.113-.483.351-.929.711-1.289z"/><path d="m148.218 305.541c4.203 0 8.037-2.119 10.271-5.686 3.481-5.554 7.965-9.917 13.709-13.339 3.601-2.145 5.843-5.917 5.999-10.09.153-4.101-1.759-7.954-5.115-10.308 0 0 0 0 0-.001-6.005-4.211-10.989-9.12-14.814-14.588-2.36-3.375-6.226-5.357-10.336-5.23-4.045.098-7.743 2.193-9.892 5.605-3.42 5.432-8.122 10.052-14.373 14.124-3.558 2.318-5.624 6.23-5.525 10.464.099 4.256 2.358 8.088 6.042 10.252 6.069 3.565 10.519 7.786 13.603 12.903 2.202 3.652 6.061 5.855 10.323 5.893.036.001.071.001.108.001zm-12.794-29.422c5.113-3.782 9.447-8.058 12.947-12.773 3.605 4.561 7.85 8.753 12.678 12.522-4.966 3.459-9.258 7.621-12.822 12.434-3.391-4.603-7.676-8.68-12.803-12.183z"/><path d="m388.084 379.596c-6.004-4.212-10.988-9.12-14.813-14.59-2.36-3.373-6.196-5.339-10.336-5.229-4.045.098-7.743 2.193-9.892 5.605-3.421 5.433-8.123 10.053-14.373 14.125-3.558 2.318-5.623 6.229-5.525 10.463.099 4.255 2.357 8.088 6.042 10.253 6.069 3.565 10.519 7.786 13.603 12.903 2.201 3.652 6.06 5.854 10.322 5.893h.109c4.203 0 8.037-2.119 10.272-5.686 3.48-5.555 7.964-9.918 13.708-13.34 3.601-2.146 5.843-5.917 5.999-10.091.153-4.1-1.76-7.954-5.116-10.306zm-24.853 22.182c-3.391-4.603-7.676-8.68-12.803-12.182 5.112-3.782 9.447-8.059 12.947-12.774 3.605 4.562 7.849 8.754 12.677 12.523-4.966 3.46-9.258 7.622-12.821 12.433z"/></g></g></svg>