<svg id="Capa_1" enable-background="new 0 0 511.049 511.049" height="512" viewBox="0 0 511.049 511.049" width="512" xmlns="http://www.w3.org/2000/svg"><g><g><path d="m179.945 225.106-8.252-24.895-59.711 37.356-18.477 22.429 155.93 240.79c1.18 1.83 3.11 2.75 5.04 2.76l10.167-218.015z" fill="#bd80e1"/><path d="m143.721 236.616 25.623-11.85 9.337-3.473-6.989-21.082-59.71 37.356-18.477 22.429 150.28 232.067z" fill="#af66da"/><path d="m254.365 7.506-.434.105c.143-.049.288-.087.434-.105-.863.019-1.72.228-2.511.61l-.046.011-.008.014c-.929.46-1.763 1.166-2.384 2.135l-155.93 243.18c-1.28 1.99-1.27 4.55.02 6.54l86.44-34.89 46.576-21.84 23.502-172.503 6.045-17.574z" fill="#cb97e7"/><g fill="#bd80e1"><path d="m254.212 503.544c.073 0 .148.001.263.002 0 0-.132-.001-.263-.002z"/><path d="m254.212 503.544c-.437-.004-.227-.002 0 0z"/></g><path d="m383.649 216.266-41.993-13-12.591 21.84-44.503 23.561-36.516 211.6 6.459 43.279s1.17-.02 0 0c1.94 0 3.88-.92 5.07-2.76l155.93-240.79z" fill="#d9b1ee"/><path d="m415.525 253.456-148.105-230.977-7.825-12.204c-1.12-1.73-2.9-2.65-4.72-2.76 1.007.145 0 0 0 0l-.51 33.53 25.993 164.158 48.707 19.902 86.44 34.89c1.29-1.989 1.3-4.549.02-6.539z" fill="#e5caf3"/><path d="m254.415 7.674-.051-.168c-.863.019-1.72.228-2.511.61l-.046.011-.008.014c-.929.46-1.763 1.166-2.384 2.135l-155.93 243.18c-1.28 1.99-1.27 4.55.02 6.54l51.577-20.818z" fill="#bd80e1"/><path d="m257.205 10.406c-.34-1.77-1.29-2.74-2.33-2.89 0 0-.01 0-.02 0-.16-.01-.31-.02-.47-.01-.01 0-.01 0-.02 0-1.05.13-2.08 1.08-2.56 2.9l-71.86 214.7 28.695 28.589h93.928l26.497-28.589z" fill="#d9b1ee"/><path d="m329.065 225.106-71.81 273.06c-.4 3.59-1.58 5.36-2.75 5.38-.01 0-.02 0-.03 0-1.2-.01-2.37-1.82-2.72-5.38l-71.81-273.06z" fill="#cb97e7"/><g><path d="m229.216 312.969c-6.787-4.76-12.483-10.321-16.986-16.759-1.936-2.768-6.09-2.784-7.89.075-4.192 6.657-9.938 12.168-16.957 16.74-2.992 1.949-2.853 6.316.226 8.124 7.052 4.143 12.657 9.347 16.552 15.808 1.826 3.03 6.204 3.096 8.083.098 4.283-6.836 9.863-12.133 16.55-16.116 2.965-1.767 3.249-5.987.422-7.97z" fill="#fed402"/></g><path d="m373.065 136.43c-6.787-4.76-12.483-10.321-16.986-16.759-1.936-2.768-6.09-2.784-7.89.075-4.192 6.657-9.939 12.168-16.957 16.74-2.992 1.949-2.853 6.316.226 8.124 7.052 4.143 12.657 9.347 16.552 15.808 1.826 3.03 6.204 3.096 8.083.098 4.283-6.836 9.863-12.133 16.55-16.116 2.965-1.767 3.249-5.987.422-7.97z" fill="#fed402"/></g><g><path d="m321.569 140.746c.1 4.288 2.377 8.149 6.09 10.331 6.212 3.649 10.768 7.972 13.927 13.212 2.219 3.682 6.107 5.901 10.403 5.938.036.001.072.001.108.001 4.236 0 8.099-2.137 10.35-5.729 3.563-5.687 8.153-10.153 14.033-13.655 3.629-2.162 5.89-5.964 6.046-10.17.153-4.131-1.773-8.013-5.154-10.383-6.139-4.307-11.235-9.326-15.147-14.919-2.378-3.401-6.281-5.381-10.417-5.271-4.075.099-7.801 2.21-9.965 5.646-3.502 5.562-8.312 10.289-14.706 14.454-3.586 2.337-5.667 6.278-5.568 10.545zm30.68-13.654c3.735 4.752 8.151 9.115 13.188 13.027-5.179 3.58-9.643 7.908-13.331 12.927-3.505-4.8-7.964-9.043-13.318-12.673 5.333-3.921 9.841-8.368 13.461-13.281z"/><path d="m197.737 340.829c2.219 3.681 6.108 5.9 10.402 5.937.037.001.072.001.108.001 4.236 0 8.099-2.137 10.35-5.729 3.564-5.687 8.154-10.153 14.032-13.655 3.63-2.161 5.89-5.963 6.046-10.168.154-4.132-1.773-8.015-5.154-10.386-6.139-4.306-11.235-9.324-15.146-14.918-2.379-3.4-6.266-5.371-10.417-5.271-4.076.099-7.802 2.21-9.966 5.647-3.501 5.56-8.311 10.287-14.704 14.452-3.585 2.335-5.667 6.276-5.569 10.542.099 4.289 2.375 8.152 6.089 10.334 6.213 3.65 10.769 7.972 13.929 13.214zm10.663-37.199c3.735 4.753 8.151 9.115 13.188 13.027-5.179 3.581-9.643 7.909-13.332 12.928-3.505-4.801-7.963-9.044-13.317-12.674 5.334-3.922 9.841-8.369 13.461-13.281z"/><path d="m421.901 263.91c.027-.044.054-.089.08-.134 2.694-4.406 2.653-10.006-.146-14.372l-42.803-66.748c-2.236-3.487-6.874-4.5-10.362-2.265-3.486 2.236-4.501 6.875-2.265 10.362l35.766 55.774-67.091-27.078-19.684-58.811c-1.314-3.927-5.562-6.042-9.493-4.731-3.928 1.314-6.046 5.564-4.731 9.493l17.474 52.21h-128.283l64.141-191.632 36.396 108.736c1.315 3.927 5.563 6.044 9.493 4.731 3.928-1.314 6.046-5.564 4.731-9.493l-24.344-72.732 33.611 52.416c2.236 3.486 6.874 4.501 10.362 2.265 3.486-2.236 4.501-6.875 2.265-10.362l-61.114-95.307c-2.502-3.902-6.764-6.232-11.399-6.232-4.636 0-8.897 2.33-11.399 6.231l-155.933 243.174c-2.86 4.462-2.847 10.22.034 14.669l.047.072c.001.001.001.002.002.004l31.98 49.383c1.436 2.217 3.844 3.424 6.302 3.424 1.397 0 2.81-.39 4.07-1.206 3.477-2.251 4.47-6.895 2.219-10.372l-27.088-41.829 70.117-28.299 9.09 34.562c.886 3.367 3.923 5.595 7.249 5.595.631 0 1.273-.08 1.913-.249 4.006-1.053 6.399-5.154 5.346-9.16l-8.781-33.389h129.667l-64.833 246.525-29.574-112.453c-1.054-4.007-5.155-6.407-9.161-5.346-4.006 1.053-6.399 5.154-5.346 9.16l24.911 94.725-86.124-132.994c-2.251-3.478-6.896-4.471-10.372-2.219-3.477 2.251-4.47 6.895-2.219 10.372l106.517 164.485c2.506 3.871 6.755 6.183 11.367 6.183 4.611 0 8.861-2.312 11.366-6.182l155.933-240.794c.033-.052.062-.108.096-.162zm-17.63-.36-130.598 201.672 60.48-229.971zm-297.434-17.023 121.392-189.307-54.3 162.229z"/><path d="m145.78 49.28c1.481 1.852 3.661 2.814 5.861 2.814 1.643 0 3.297-.537 4.681-1.644 3.234-2.588 3.758-7.308 1.171-10.542l-14.048-17.56c-2.588-3.235-7.308-3.76-10.542-1.171-3.234 2.588-3.758 7.308-1.171 10.542z"/><path d="m70.487 119.456 15.699 9.219c1.193.7 2.5 1.033 3.791 1.033 2.572 0 5.078-1.324 6.474-3.703 2.098-3.572.902-8.168-2.669-10.266l-15.699-9.219c-3.571-2.095-8.167-.902-10.265 2.67s-.903 8.168 2.669 10.266z"/><path d="m156.322 460.596c-3.234-2.588-7.954-2.063-10.542 1.171l-14.048 17.561c-2.587 3.234-2.063 7.954 1.171 10.542 1.383 1.106 3.037 1.644 4.68 1.644 2.2 0 4.38-.963 5.861-2.814l14.048-17.561c2.589-3.236 2.064-7.955-1.17-10.543z"/><path d="m86.187 382.373-15.699 9.218c-3.572 2.098-4.768 6.693-2.67 10.266 1.397 2.379 3.902 3.703 6.475 3.703 1.291 0 2.598-.333 3.791-1.033l15.699-9.218c3.572-2.098 4.768-6.693 2.67-10.266-2.099-3.573-6.696-4.768-10.266-2.67z"/><path d="m49.091 248.023h-14.231c-4.142 0-7.5 3.357-7.5 7.5s3.358 7.5 7.5 7.5h14.231c4.142 0 7.5-3.357 7.5-7.5s-3.358-7.5-7.5-7.5z"/><path d="m354.728 50.451c1.384 1.106 3.037 1.644 4.681 1.644 2.2 0 4.38-.964 5.861-2.814l14.048-17.56c2.588-3.234 2.063-7.954-1.171-10.542-3.237-2.588-7.954-2.063-10.542 1.171l-14.048 17.56c-2.588 3.234-2.064 7.953 1.171 10.541z"/><path d="m432.966 106.521-15.698 9.219c-3.572 2.098-4.767 6.694-2.67 10.266 1.397 2.379 3.902 3.703 6.475 3.703 1.29 0 2.598-.333 3.791-1.033l15.698-9.219c3.572-2.098 4.767-6.694 2.67-10.266-2.099-3.573-6.698-4.768-10.266-2.67z"/><path d="m365.27 461.767c-2.587-3.233-7.307-3.76-10.542-1.171-3.234 2.587-3.759 7.307-1.171 10.542l14.048 17.561c1.481 1.852 3.661 2.814 5.861 2.814 1.643 0 3.298-.537 4.681-1.644 3.234-2.587 3.759-7.307 1.171-10.542z"/><path d="m440.562 391.591-15.698-9.218c-3.571-2.096-8.167-.903-10.266 2.67-2.097 3.572-.901 8.168 2.67 10.266l15.698 9.218c1.193.7 2.5 1.033 3.791 1.033 2.572 0 5.077-1.324 6.475-3.703 2.096-3.573.901-8.169-2.67-10.266z"/><path d="m476.189 248.023h-14.23c-4.143 0-7.5 3.357-7.5 7.5s3.357 7.5 7.5 7.5h14.23c4.143 0 7.5-3.357 7.5-7.5s-3.358-7.5-7.5-7.5z"/></g></g></svg>