<svg id="Capa_1" enable-background="new 0 0 507.949 507.949" height="512" viewBox="0 0 507.949 507.949" width="512" xmlns="http://www.w3.org/2000/svg"><g><g><g id="XMLID_347_"><g><path d="m476.325 70.642v14.77c0 16.34-13.24 29.59-29.58 29.59h-6.16v8.64c0 15.01-12.16 27.17-27.17 27.17h-50.77c-7.23 0-13.09 5.86-13.09 13.09v32.13 69.8h-36.94v-69.8-86.08c0-42.89 34.77-77.66 77.67-77.66h79.94c2.06 0 4.1-.41 6-1.21l12.07-5.09c5.77-2.43 12.15 1.81 12.15 8.07v6.89c0 14.62-10.35 26.83-24.12 29.69z" fill="#dff6fd"/></g></g><path d="m338.651 214.46v-86.08c0-42.89 34.77-77.66 77.67-77.66h79.94c.892 0 1.777-.091 2.651-.244.99-2.996 1.532-6.196 1.532-9.524v-6.89c0-6.26-6.38-10.5-12.15-8.07l-12.07 5.09c-1.9.8-3.94 1.21-6 1.21h-79.94c-42.9 0-77.67 34.77-77.67 77.66v86.08 69.8h26.036v-51.372z" fill="#c8effe"/><g id="XMLID_345_"><g><path d="m67.365 115.002h-6.16c-16.34 0-29.58-13.25-29.58-29.59v-14.77c-13.77-2.86-24.12-15.07-24.12-29.69v-6.89c0-6.26 6.38-10.5 12.15-8.07l12.07 5.09c1.9.8 3.94 1.21 6 1.21h79.94c42.9 0 77.67 34.77 77.67 77.66v145.98h-36.94v-59.9-32.13c0-7.23-5.86-13.09-13.09-13.09h-50.77c-15.01 0-27.17-12.16-27.17-27.17z" fill="#dff6fd"/></g></g><g><path d="m112.62 123.642v-2.48c0-3.402-2.758-6.16-6.16-6.16-16.337 0-29.58-13.243-29.58-29.58v-10.139c0-2.572-1.589-4.902-4.011-5.768-11.721-4.192-20.109-15.4-20.109-28.562v-6.89c0-.613.078-1.2.194-1.77h-15.229c-2.06 0-4.1-.41-6-1.21l-12.07-5.09c-5.77-2.43-12.15 1.81-12.15 8.07v6.89c0 14.62 10.35 26.83 24.12 29.69v14.77c0 16.342 13.248 29.59 29.59 29.59h6.15v8.64c0 15.006 12.164 27.17 27.17 27.17h45.255c-15.01-.001-27.17-12.161-27.17-27.171z" fill="#c8effe"/></g><g><g id="XMLID_343_"><g><path d="m468.245 209.532v259.61c0 7.46-6.04 13.5-13.5 13.5h-402.54c-7.46 0-13.5-6.04-13.5-13.5v-259.61c0-7.45 6.04-13.5 13.5-13.5h402.54c7.46 0 13.5 6.05 13.5 13.5z" fill="#fee97d"/></g></g><path d="m115.277 450.603c-7.46 0-13.5-6.04-13.5-13.5v-241.071h-49.572c-7.46 0-13.5 6.05-13.5 13.5v259.61c0 7.46 6.04 13.5 13.5 13.5h402.54c7.46 0 13.5-6.04 13.5-13.5v-18.54h-352.968z" fill="#fee45a"/><g><path d="m468.245 463.482v5.66c0 7.46-6.04 13.5-13.5 13.5h-402.54c-7.46 0-13.5-6.04-13.5-13.5v-5.65l158.94-82.13 56.33-26.29 21.49 10.03 34.84 16.26z" fill="#fee45a"/></g><path d="m115.277 450.603c-7.46 0-13.5-6.04-13.5-13.5v-6.202l-63.072 32.592v5.65c0 7.46 6.04 13.5 13.5 13.5h402.54c7.46 0 13.5-6.04 13.5-13.5v-5.66l-24.771-12.879h-328.197z" fill="#fedf30"/><g><path d="m468.245 209.532v35.94l-151.7 93.87-41.08 25.76-18.36 14.79-30.59-18.05-35.11-22.5-152.7-93.88v-35.93c0-7.45 6.04-13.5 13.5-13.5h402.54c7.46 0 13.5 6.05 13.5 13.5z" fill="#fee45a"/></g><path d="m316.547 350.92c0-14.978-10.238-27.559-24.097-31.141-2.687-.694-4.97-2.48-6.278-4.927-6.144-11.491-18.252-19.313-32.194-19.313-13.941 0-26.05 7.821-32.194 19.313-1.308 2.447-3.592 4.233-6.278 4.927-13.859 3.581-24.097 16.163-24.097 31.141 0 6.662 2.027 12.85 5.496 17.983 2.492 3.687 2.785 8.51.743 12.464-2.384 4.616-3.632 9.914-3.372 15.525.736 15.892 13.819 28.754 29.721 29.238 8.258.251 15.808-2.759 21.462-7.839 4.878-4.382 12.159-4.382 17.037 0 5.655 5.08 13.206 8.091 21.464 7.839 15.902-.485 28.983-13.347 29.719-29.239.26-5.611-.988-10.908-3.371-15.524-2.042-3.954-1.749-8.777.743-12.464 3.469-5.134 5.496-11.321 5.496-17.983z" fill="#fe76a8"/><g><path d="m218.757 401.648c-.26-5.611.988-10.909 3.372-15.525 2.042-3.954 1.749-8.777-.743-12.464-3.469-5.133-5.496-11.321-5.496-17.983 0-14.978 10.238-27.559 24.097-31.141 2.687-.694 4.97-2.479 6.278-4.927 5.289-9.893 15.005-17.051 26.5-18.855-5.488-3.306-11.912-5.214-18.787-5.214-13.941 0-26.05 7.821-32.194 19.313-1.308 2.447-3.592 4.232-6.278 4.927-13.859 3.582-24.097 16.163-24.097 31.141 0 6.662 2.027 12.85 5.496 17.982 2.492 3.687 2.785 8.51.743 12.464-2.384 4.616-3.631 9.914-3.372 15.525.736 15.892 13.819 28.754 29.721 29.238 2.729.083 5.378-.197 7.909-.783-7.573-5.308-12.696-13.927-13.149-23.698z" fill="#fe5694"/></g><circle cx="253.978" cy="361.842" fill="#dff6fd" r="27.462"/></g><path d="m101.777 196.032h-49.572c-7.46 0-13.5 6.05-13.5 13.5v35.93l63.072 38.777z" fill="#fedf30"/></g><g><path d="m253.978 326.879c-19.278 0-34.962 15.685-34.962 34.963s15.684 34.962 34.962 34.962 34.962-15.684 34.962-34.962-15.684-34.963-34.962-34.963zm0 54.925c-11.007 0-19.962-8.955-19.962-19.962 0-11.008 8.955-19.963 19.962-19.963s19.962 8.955 19.962 19.963c-.001 11.007-8.956 19.962-19.962 19.962z"/><path d="m500.686 20.522c-4.547-3.02-10.269-3.558-15.3-1.439l-12.072 5.082c-.985.415-2.025.625-3.093.625h-26.154c-4.143 0-7.5 3.357-7.5 7.5s3.357 7.5 7.5 7.5h26.154c3.076 0 6.074-.605 8.912-1.8l12.073-5.083c.412-.173.81-.137 1.183.111.372.247.561.599.561 1.045v6.885c0 12.592-10.244 22.836-22.836 22.836h-66.672c-4.143 0-7.5 3.357-7.5 7.5s3.357 7.5 7.5 7.5h65.387v6.627c0 12.18-9.909 22.089-22.089 22.089h-50.55c-4.143 0-7.5 3.357-7.5 7.5s3.357 7.5 7.5 7.5h36.898v1.146c0 10.846-8.824 19.67-19.67 19.67h-50.773c-11.354 0-20.591 9.237-20.591 20.591v24.625h-21.938v-78.575c0-38.69 31.477-70.167 70.166-70.167h21.822c4.143 0 7.5-3.357 7.5-7.5s-3.357-7.5-7.5-7.5h-21.822c-46.961 0-85.166 38.206-85.166 85.167v78.575h-102.282v-78.575c0-13.567-3.119-26.563-9.27-38.627-1.882-3.689-6.397-5.157-10.089-3.274-3.689 1.882-5.156 6.398-3.274 10.089 5.064 9.933 7.633 20.636 7.633 31.813v78.575h-21.938v-24.625c0-11.354-9.237-20.591-20.591-20.591h-50.774c-10.846 0-19.67-8.824-19.67-19.67v-1.146h36.898c4.143 0 7.5-3.357 7.5-7.5s-3.357-7.5-7.5-7.5h-50.549c-12.18 0-22.089-9.909-22.089-22.089v-6.627h65.387c4.143 0 7.5-3.357 7.5-7.5s-3.357-7.5-7.5-7.5h-66.672c-12.592-.002-22.836-10.246-22.836-22.837v-6.885c0-.446.188-.798.561-1.045s.771-.283 1.183-.111l12.074 5.084c2.837 1.193 5.835 1.799 8.911 1.799h79.939c16.133 0 31.889 5.616 44.366 15.814 3.204 2.623 7.931 2.148 10.553-1.061 2.622-3.207 2.146-7.932-1.061-10.553-15.148-12.382-34.275-19.201-53.858-19.201h-79.939c-1.067 0-2.107-.21-3.092-.624l-12.073-5.083c-5.03-2.119-10.751-1.581-15.3 1.439s-7.264 8.083-7.264 13.542v6.885c0 16.026 10.02 29.747 24.121 35.252v9.21c0 19.999 15.912 36.341 35.74 37.055v1.181c0 19.117 15.553 34.67 34.67 34.67h50.773c3.083 0 5.591 2.508 5.591 5.591v24.625h-98.688c-11.582 0-21.004 9.423-21.004 21.005v259.604c0 11.582 9.422 21.005 21.004 21.005h402.535c11.582 0 21.004-9.423 21.004-21.005v-259.605c0-11.582-9.422-21.005-21.004-21.005h-97.688v-24.625c0-3.083 2.508-5.591 5.591-5.591h50.773c19.117 0 34.67-15.553 34.67-34.67v-1.181c19.828-.713 35.74-17.056 35.74-37.055v-9.209c14.101-5.505 24.121-19.226 24.121-35.252v-6.885c0-5.459-2.715-10.522-7.263-13.541zm-45.944 454.624h-402.535c-3.311 0-6.004-2.693-6.004-6.005v-1.078l140.556-72.628c0 .601-.003 1.201.025 1.803.916 19.802 17.162 35.785 36.984 36.388.397.013.792.019 1.188.019 9.45 0 18.472-3.446 25.514-9.774 2.033-1.824 4.98-1.824 7.014 0 7.339 6.594 16.817 10.077 26.704 9.756 19.821-.604 36.066-16.587 36.982-36.389.027-.586.023-1.171.024-1.755l139.551 72.565v1.095c.001 3.309-2.692 6.003-6.003 6.003zm-151.098-90.338c1.854 3.588 2.732 7.646 2.543 11.735-.556 12.02-10.419 21.723-22.455 22.09-6.021.164-11.769-1.921-16.224-5.922-3.856-3.465-8.693-5.197-13.53-5.197s-9.674 1.732-13.531 5.197c-4.453 4.002-10.19 6.098-16.222 5.922-12.036-.366-21.9-10.068-22.456-22.091-.19-4.087.689-8.145 2.543-11.734 3.312-6.413 2.854-14.117-1.192-20.104-2.755-4.076-4.211-8.843-4.211-13.784 0-11.248 7.597-21.067 18.471-23.878 4.713-1.217 8.729-4.37 11.02-8.653 5.062-9.468 14.862-15.349 25.579-15.349s20.519 5.881 25.579 15.347c2.289 4.283 6.306 7.438 11.017 8.654 10.877 2.812 18.474 12.631 18.474 23.879 0 4.941-1.456 9.708-4.21 13.783-4.05 5.988-4.507 13.692-1.195 20.105zm12.825-8.691c-.075-1.051.195-2.126.796-3.015 4.437-6.566 6.781-14.237 6.781-22.183 0-2.385-.218-4.729-.627-7.013l137.326-84.978v192.211zm144.277-166.581v31.752l-142.86 88.402c-5.256-8.295-13.54-14.583-23.562-17.174-.661-.171-1.222-.608-1.538-1.201-7.676-14.357-22.547-23.276-38.809-23.276s-31.132 8.919-38.808 23.276c-.316.593-.878 1.03-1.542 1.201-10.026 2.592-18.313 8.887-23.568 17.189l-38.562-23.707c-3.526-2.168-8.146-1.066-10.317 2.462-2.169 3.528-1.066 8.147 2.462 10.317l40.891 25.139c-.408 2.281-.625 4.621-.625 7.002 0 7.945 2.345 15.616 6.782 22.184.599.886.869 1.957.796 3.005l-145.283 75.071v-192.3l69.932 42.99c1.225.753 2.581 1.111 3.921 1.111 2.52 0 4.979-1.27 6.396-3.573 2.169-3.528 1.066-8.147-2.462-10.317l-77.787-47.819v-31.733c0-3.312 2.693-6.005 6.004-6.005h402.535c3.311-.001 6.004 2.693 6.004 6.004z"/></g></g></svg>