<svg id="Capa_1" enable-background="new 0 0 513.313 513.313" height="512" viewBox="0 0 513.313 513.313" width="512" xmlns="http://www.w3.org/2000/svg"><g><g><path d="m478.447 183.265h-196.12c-14.18 0-25.67 11.49-25.67 25.67v182.124 86.786l14.801 17.665h207.65l25.009-17.665v-30.71-238.2c0-14.18-11.49-25.67-25.67-25.67z" fill="#fef1da"/><path d="m230.987 183.265h-196.12c-14.18 0-25.67 11.49-25.67 25.67v236.71 32.2l89.814 9.64h138.337l19.309-9.64v-72.16-196.75c0-14.18-11.49-25.67-25.67-25.67z" fill="#fae2c0"/><g id="XMLID_354_"><g><path d="m369.187 270.835c-.22 1.44-.38 2.59-.49 3.42-.05.39-.6.44-.73.06-.31-.88-.62-1.76-.92-2.64-22.29-64.44-21.09-134.7 2.16-198.8l3.55-9.78 6.59-12.71 54.31 15.74-42.45 58.87z" fill="#fe76a8"/></g></g><path d="m434.057 66.245 31.51 47.53-10.38 9.21c-64.45 32.23-83 128.71-86.49 151.27-.363-.683-.571-1.444-.606-2.217-4.531-101.374 23.116-147.043 23.116-147.043l42.45-58.87z" fill="#bd80e1"/><path d="m277.532 107.212-11.139 20.444c-5.949 10.918-9.066 23.153-9.066 35.587 0-12.434-3.117-24.669-9.066-35.587l-11.139-20.444-3.676-7.317 29.124-30.671 18.409 28.198z" fill="#fe76a8"/><g id="XMLID_352_"><g><path d="m145.447 72.875c23.25 64.1 24.45 134.36 2.16 198.8-.3.88-.61 1.76-.92 2.64-.13.38-.68.33-.73-.06-.11-.83-.27-1.98-.49-3.42l-22.02-145.84-40.56-55.77 10.95-16.27 41.47-3.11 6.59 13.25z" fill="#bd80e1"/><path d="m123.447 124.995s27.313 47.077 22.513 149.277l-.493-3.437c-3.49-22.56-21.55-115.62-86-147.85l-7.97-7.11 31.39-46.65z" fill="#fe76a8"/></g></g><g><g id="XMLID_356_"><g><path d="m67.115 477.845c0-.001 0-.003 0-.005v-32.195-236.71c0-14.18 11.49-25.67 25.67-25.67h-57.918c-14.18 0-25.67 11.49-25.67 25.67v236.71 32.2l57.917 6.217v-6.217z" fill="#fdd79b"/><path d="m256.657 477.845v27.97h-233.69c-7.61 0-13.77-6.17-13.77-13.77v-14.2c0-16.03 13-29.03 29.03-29.03h189.4c16.03 0 29.03 13 29.03 29.03z" fill="#fdd79b"/><path d="m67.115 462.045v-13.231h-28.888c-16.033 0-29.03 12.997-29.03 29.03v14.201c0 7.6 6.16 13.77 13.77 13.77h233.69v-21.753h-167.526c-12.159 0-22.016-9.858-22.016-22.017z" fill="#fccd7f"/><path d="m504.117 477.845v14.2c0 7.6-6.17 13.77-13.77 13.77h-233.69v-27.97c0-16.03 13-29.03 29.03-29.03h189.4c16.03 0 29.03 13 29.03 29.03z" fill="#fae2c0"/><path d="m490.347 484.062h-233.69v21.753h233.69c7.6 0 13.77-6.17 13.77-13.77v-14.2c0-1.533-.121-3.038-.35-4.507-1.389 6.134-6.868 10.724-13.42 10.724z" fill="#fdd79b"/></g></g><g fill="#fee45a"><path d="m264.179 35.431 4.821 14.837c.894 2.752 3.459 4.615 6.352 4.615h15.6c6.47 0 9.16 8.279 3.926 12.082l-12.621 9.17c-2.341 1.701-3.32 4.715-2.426 7.467l4.821 14.837c1.999 6.153-5.044 11.27-10.278 7.467l-12.621-9.17c-2.341-1.701-5.511-1.701-7.852 0l-12.621 9.17c-5.234 3.803-12.277-1.314-10.278-7.467l4.821-14.837c.894-2.752-.085-5.767-2.426-7.467l-12.621-9.17c-5.234-3.803-2.544-12.082 3.926-12.082h15.6c2.894 0 5.458-1.863 6.352-4.615l4.821-14.837c1.999-6.153 10.705-6.153 12.704 0z"/><path d="m439.51 14.597 7.414 22.818c1.375 4.232 5.319 7.098 9.769 7.098h23.993c9.951 0 14.088 12.734 6.038 18.583l-19.411 14.103c-3.6 2.616-5.107 7.252-3.732 11.485l7.414 22.818c3.075 9.464-7.757 17.334-15.807 11.485l-19.411-14.103c-3.6-2.616-8.475-2.616-12.076 0l-19.411 14.103c-8.05 5.849-18.882-2.021-15.807-11.485l7.414-22.818c1.375-4.232-.131-8.869-3.732-11.485l-19.411-14.103c-8.05-5.849-3.913-18.583 6.038-18.583h23.993c4.45 0 8.394-2.866 9.769-7.098l7.414-22.818c3.078-9.464 16.467-9.464 19.542 0z"/><path d="m75.144 14.597-7.414 22.819c-1.375 4.232-5.319 7.098-9.769 7.098h-23.993c-9.951 0-14.088 12.734-6.038 18.583l19.411 14.103c3.6 2.616 5.107 7.252 3.732 11.485l-7.414 22.818c-3.075 9.464 7.757 17.334 15.807 11.485l19.411-14.103c3.6-2.616 8.475-2.616 12.076 0l19.411 14.103c8.05 5.849 18.882-2.021 15.807-11.485l-7.414-22.818c-1.375-4.232.131-8.869 3.732-11.485l19.411-14.103c8.05-5.849 3.913-18.583-6.038-18.583h-23.993c-4.45 0-8.394-2.866-9.769-7.098l-7.414-22.818c-3.078-9.465-16.467-9.465-19.542-.001z"/></g></g></g><g><path d="m478.449 175.766h-44.394c-4.143 0-7.5 3.357-7.5 7.5s3.357 7.5 7.5 7.5h44.394c10.018 0 18.167 8.149 18.167 18.167v239.43c-6.042-4.424-13.485-7.045-21.531-7.045h-29.363c-4.143 0-7.5 3.357-7.5 7.5s3.357 7.5 7.5 7.5h29.363c11.872 0 21.531 9.659 21.531 21.531v14.195c0 3.456-2.813 6.269-6.27 6.269h-226.19v-20.464c0-11.872 9.658-21.531 21.53-21.531h128.072c4.143 0 7.5-3.357 7.5-7.5s-3.357-7.5-7.5-7.5h-128.071c-8.046 0-15.488 2.62-21.53 7.044v-239.429c0-10.018 8.149-18.167 18.167-18.167h40.126c4.143 0 7.5-3.357 7.5-7.5s-3.357-7.5-7.5-7.5h-40.126c-10.335 0-19.58 4.754-25.667 12.188-6.087-7.434-15.332-12.188-25.667-12.188h-39.126c-4.143 0-7.5 3.357-7.5 7.5s3.357 7.5 7.5 7.5h39.126c10.018 0 18.167 8.149 18.167 18.167v239.43c-6.042-4.424-13.485-7.045-21.531-7.045h-189.399c-8.046 0-15.488 2.62-21.53 7.044v-239.429c0-10.018 8.149-18.167 18.166-18.167h44.982c4.143 0 7.5-3.357 7.5-7.5s-3.357-7.5-7.5-7.5h-44.983c-18.288 0-33.166 14.879-33.166 33.167v268.916 14.194c0 11.729 9.541 21.27 21.269 21.27h233.691 233.69c11.729 0 21.27-9.541 21.27-21.269v-14.195-268.916c0-18.288-14.879-33.167-33.167-33.167zm-461.753 316.277v-14.194c0-11.872 9.658-21.531 21.53-21.531h189.398c11.872 0 21.531 9.659 21.531 21.531v20.464h-226.19c-3.456 0-6.269-2.813-6.269-6.27z"/><path d="m39.95 323.724h10.989c4.143 0 7.5-3.357 7.5-7.5s-3.357-7.5-7.5-7.5h-10.989c-4.143 0-7.5 3.357-7.5 7.5s3.358 7.5 7.5 7.5z"/><path d="m224.26 308.724h-141.572c-4.143 0-7.5 3.357-7.5 7.5s3.357 7.5 7.5 7.5h141.572c4.143 0 7.5-3.357 7.5-7.5s-3.358-7.5-7.5-7.5z"/><path d="m224.26 346.142h-184.31c-4.143 0-7.5 3.357-7.5 7.5s3.357 7.5 7.5 7.5h184.31c4.143 0 7.5-3.357 7.5-7.5s-3.358-7.5-7.5-7.5z"/><path d="m224.26 383.559h-184.31c-4.143 0-7.5 3.357-7.5 7.5s3.357 7.5 7.5 7.5h184.31c4.143 0 7.5-3.357 7.5-7.5s-3.358-7.5-7.5-7.5z"/><path d="m473.362 308.724h-184.31c-4.143 0-7.5 3.357-7.5 7.5s3.357 7.5 7.5 7.5h184.31c4.143 0 7.5-3.357 7.5-7.5s-3.357-7.5-7.5-7.5z"/><path d="m473.362 346.142h-184.31c-4.143 0-7.5 3.357-7.5 7.5s3.357 7.5 7.5 7.5h184.31c4.143 0 7.5-3.357 7.5-7.5s-3.357-7.5-7.5-7.5z"/><path d="m473.362 383.559h-184.31c-4.143 0-7.5 3.357-7.5 7.5s3.357 7.5 7.5 7.5h184.31c4.143 0 7.5-3.357 7.5-7.5s-3.357-7.5-7.5-7.5z"/><path d="m216.368 73.032 12.138 8.82-4.636 14.268c-1.935 5.952.087 12.175 5.149 15.854.983.714 2.022 1.285 3.094 1.722l9.562 17.548c5.333 9.789 8.151 20.854 8.151 32 0 4.143 3.357 7.5 7.5 7.5s7.5-3.357 7.5-7.5c0-11.146 2.818-22.211 8.151-31.999l9.327-17.117c1.511-.457 2.974-1.17 4.33-2.154 5.063-3.679 7.084-9.901 5.149-15.853l-4.636-14.269 12.138-8.82c5.063-3.678 7.085-9.9 5.151-15.852s-7.228-9.798-13.485-9.798h-15.004l-4.636-14.27v-.001c-1.935-5.951-7.228-9.797-13.485-9.797s-11.551 3.846-13.485 9.798l-4.636 14.27h-15.004c-6.258 0-11.552 3.846-13.485 9.798s.09 12.174 5.152 15.852zm43.439 51.036c-.883 1.621-1.71 3.271-2.479 4.945-.77-1.675-1.597-3.325-2.479-4.946l-7.318-13.431 10.298-7.482 9.582 6.961zm-19.505-61.685c6.161 0 11.58-3.937 13.485-9.798l4.04-12.435 4.04 12.436c1.905 5.86 7.324 9.797 13.485 9.797h13.072l-10.575 7.684c-4.986 3.623-7.057 9.994-5.151 15.854l4.039 12.433-10.577-7.685c-2.492-1.81-5.412-2.715-8.333-2.715-2.92 0-5.842.905-8.334 2.716l-10.576 7.684 4.039-12.432c1.905-5.86-.165-12.231-5.151-15.854l-10.575-7.685h13.072z"/><path d="m359.954 274.127c.312.9.627 1.802.949 2.709 1.131 3.175 4.107 5.238 7.416 5.238.278 0 .559-.015.84-.044 3.627-.383 6.496-3.173 6.974-6.773 1.517-11.257 16.445-109.404 79.112-143.827 1.942.712 3.96 1.082 5.982 1.082 3.637 0 7.273-1.152 10.446-3.457 6.346-4.611 8.88-12.41 6.456-19.87l-7.414-22.818c-.372-1.146.032-2.392 1.007-3.1l19.412-14.103c6.345-4.611 8.879-12.411 6.454-19.871-2.424-7.459-9.058-12.279-16.901-12.279h-23.993c-1.205 0-2.265-.77-2.637-1.915l-7.414-22.818c-2.424-7.461-9.059-12.281-16.903-12.281s-14.479 4.82-16.902 12.28l-7.414 22.818c-.372 1.146-1.432 1.915-2.637 1.915h-23.992c-7.844 0-14.479 4.82-16.902 12.28-1.781 5.48-.877 11.138 2.239 15.586l-1.972 5.434c-23.999 66.145-24.782 138.529-2.206 203.814zm16.306-198.697.149-.41 11.351 8.248c.975.708 1.379 1.953 1.007 3.098l-7.415 22.819c-1.686 5.191-.967 10.542 1.761 14.873-4.838 9.041-17.882 37.76-21.918 90.674-6.279-46.365-1.248-94.342 15.065-139.302zm3.722 128.033c-1.258 3.121-2.42 6.206-3.526 9.257 3.969-45.985 14.961-71.777 19.293-80.397 4.443.653 9.048-.432 12.951-3.269l19.411-14.103c.975-.707 2.284-.707 3.259 0l10.01 7.273c-25.613 16.369-46.235 43.63-61.398 81.239zm-3.824-149.533c.232-.716.884-1.916 2.637-1.916h23.992c7.724 0 14.517-4.936 16.902-12.28l7.414-22.818c.542-1.666 1.885-1.915 2.637-1.915s2.095.249 2.637 1.915l7.414 22.818c2.386 7.345 9.179 12.28 16.902 12.28h23.993c1.752 0 2.403 1.2 2.636 1.916.233.715.411 2.069-1.006 3.1l-19.41 14.102c-6.249 4.539-8.844 12.523-6.457 19.87l7.414 22.818c.541 1.667-.398 2.657-1.007 3.1-.608.441-1.841 1.029-3.26 0l-.099-.072c-.005-.003-.009-.007-.014-.01l-19.299-14.021c-3.124-2.27-6.784-3.403-10.445-3.403s-7.322 1.135-10.445 3.404l-19.411 14.103c-1.421 1.029-2.649.441-3.259 0-.608-.442-1.549-1.433-1.008-3.099l7.415-22.819c2.387-7.346-.209-15.331-6.457-19.869l-19.272-14.002c-.008-.005-.015-.011-.023-.017l-.115-.083c-1.417-1.033-1.238-2.387-1.006-3.102z"/><path d="m23.521 69.164 19.412 14.104c.974.707 1.378 1.953 1.006 3.099l-7.414 22.818c-2.424 7.46.11 15.259 6.456 19.87 3.173 2.305 6.81 3.458 10.446 3.457 2.022 0 4.04-.37 5.982-1.082 62.665 34.421 77.595 132.569 79.111 143.828.487 3.611 3.36 6.397 6.986 6.774.277.028.554.043.827.043 3.311 0 6.289-2.068 7.418-5.246.321-.903.637-1.803.946-2.7 15.225-44.026 19.966-92.059 13.71-138.902-.548-4.107-4.342-6.99-8.426-6.441-4.106.548-6.99 4.32-6.441 8.426 3.439 25.754 3.365 51.876-.09 77.42-4.045-52.849-17.075-81.539-21.91-90.574 2.728-4.331 3.447-9.682 1.761-14.874l-7.415-22.817c-.372-1.146.032-2.391 1.008-3.1l11.35-8.246.148.409c3.657 10.079 6.812 20.53 9.375 31.062.835 3.43 3.902 5.729 7.281 5.729.587 0 1.184-.069 1.779-.215 4.025-.979 6.493-5.036 5.514-9.061-2.692-11.061-6.006-22.039-9.849-32.631l-1.971-5.433c3.116-4.448 4.02-10.106 2.239-15.586-2.424-7.46-9.059-12.28-16.902-12.28h-23.992c-1.205 0-2.265-.77-2.637-1.915l-7.414-22.818c-2.422-7.462-9.057-12.282-16.901-12.282s-14.478 4.82-16.902 12.28l-7.414 22.818c-.372 1.146-1.432 1.915-2.637 1.915h-23.993c-7.844 0-14.478 4.82-16.901 12.279-2.425 7.461.109 15.261 6.454 19.872zm49.753 53.06 10.009-7.272c.977-.709 2.285-.708 3.26-.001l19.411 14.103c3.903 2.836 8.507 3.921 12.951 3.268 4.332 8.62 15.323 34.412 19.293 80.396-1.106-3.05-2.268-6.135-3.526-9.255-15.162-37.609-35.785-64.871-61.398-81.239zm-41.942-68.294c.232-.716.884-1.916 2.636-1.916h23.993c7.724 0 14.517-4.936 16.902-12.28l7.414-22.818c.542-1.667 1.885-1.916 2.637-1.916s2.095.249 2.637 1.915l7.414 22.818c2.386 7.345 9.179 12.28 16.902 12.28h23.992c1.753 0 2.404 1.2 2.637 1.916.232.715.411 2.069-1.007 3.1l-.121.088c-.005.003-.009.007-.014.01l-19.274 14.004c-6.249 4.539-8.845 12.524-6.458 19.871l7.415 22.817c.541 1.667-.399 2.657-1.008 3.1-.608.441-1.84 1.029-3.259 0l-19.411-14.103c-6.247-4.538-14.643-4.54-20.892 0l-19.29 14.015c-.013.009-.026.019-.039.028l-.082.059c-1.422 1.029-2.651.441-3.26 0-.608-.442-1.548-1.433-1.007-3.1l7.414-22.818c2.387-7.347-.208-15.331-6.456-19.869l-19.41-14.103c-1.416-1.029-1.238-2.383-1.005-3.098z"/></g></g></svg>