<svg id="Capa_1" enable-background="new 0 0 510.523 510.523" height="512" viewBox="0 0 510.523 510.523" width="512" xmlns="http://www.w3.org/2000/svg"><g><g><path d="m268.944 491.823-14.128-97.032h-199.37c-1.18 0-2.3.54-3 1.49-8.16 11.11-12.98 24.82-12.98 39.66 0 37.35 30.52 67.56 67.97 67.07 2.464-.032 4.891-.209 7.282-.504z" fill="#fccd7f"/><path d="m485.826 395.301-138.25-277.38-32.024-98.774-199.039-9.991-1.651-1.655h-31.306c-37.56-.61-68.19 29.66-68.19 67.07v1c0 13.76 3.19 27.33 9.33 39.64l138.92 278.72.68 1.37c6.14 12.32 9.33 25.89 9.33 39.64 0 18.43-7.33 35.33-19.27 47.69-11.94 12.34-28.49 20.14-46.92 20.38h321.54c18.43-.24 34.98-8.04 46.91-20.38 11.94-12.36 19.27-29.26 19.27-47.69 0-13.749-3.19-27.32-9.33-39.64z" fill="#fae2c0"/><path d="m251.658 434.942c0-13.75-3.19-27.32-9.33-39.64l-.68-1.37-138.92-278.72c-6.14-12.31-9.33-25.88-9.33-39.64v-1c0-30.254 20.036-55.83 47.565-64.188l-24.449-1.228-1.651-1.655h-31.307c-37.56-.61-68.19 29.66-68.19 67.07v1c0 13.76 3.19 27.33 9.33 39.64l138.92 278.72.68 1.37c6.14 12.32 9.33 25.89 9.33 39.64 0 18.43-7.33 35.33-19.27 47.69-11.94 12.34-28.49 20.14-46.92 20.38h78.031c18.43-.24 34.98-8.04 46.92-20.38 11.941-12.36 19.271-29.26 19.271-47.689z" fill="#fddeb0"/><g><g id="XMLID_404_"><g><path d="m471.016 72.321c.5 15.42-4.19 29.71-12.47 41.27-.96 1.34-2.51 2.13-4.16 2.13h-106.81-202.6c-3.91 0-6.39-4.22-4.43-7.61 6.05-10.47 9.36-22.73 8.94-35.79-1.17-35.53-30.39-64.24-65.93-64.82h321.53c35.55.58 64.77 29.29 65.93 64.82z" fill="#fccd7f"/></g></g><path d="m366.973 156.837h-20.723c-4.142 0-7.5 3.357-7.5 7.5s3.358 7.5 7.5 7.5h28.199z" fill="#fddeb0"/></g></g><g><path d="m492.541 391.96-133.94-268.735h95.786c4.06 0 7.894-1.971 10.256-5.27 9.616-13.425 14.412-29.289 13.87-45.876-.126-3.865-.566-7.68-1.277-11.424-.023-.129-.049-.257-.078-.383-2.858-14.628-10.07-28.115-20.953-38.813-13.759-13.524-31.869-21.143-50.995-21.454-.041-.001-.081-.001-.122-.001h-321.532c-.017 0-.034.002-.051.002-20.085-.26-39.045 7.314-53.366 21.403-14.364 14.134-22.275 33.015-22.275 53.164v1c0 14.84 3.499 29.703 10.118 42.984l92.993 186.58c1.312 2.633 3.963 4.156 6.718 4.156 1.124 0 2.265-.254 3.34-.789 3.707-1.848 5.214-6.352 3.367-10.059l-68.844-138.127h44.964c4.142 0 7.5-3.357 7.5-7.5s-3.358-7.5-7.5-7.5h-52.44l-16.673-33.452c-5.589-11.213-8.543-23.764-8.543-36.293v-1c0-16.097 6.32-31.181 17.796-42.472 11.473-11.288 26.664-17.36 42.774-17.099 15.26.248 29.722 6.339 40.721 17.151 11 10.814 17.333 25.167 17.832 40.415.366 11.192-2.378 22.186-7.935 31.79-2.271 3.925-2.271 8.616-.002 12.551 2.247 3.895 6.434 6.314 10.927 6.314h120.497c4.142 0 7.5-3.357 7.5-7.5s-3.358-7.5-7.5-7.5h-116.463c4.474-8.841 7.12-18.49 7.816-28.4h50.14c4.142 0 7.5-3.357 7.5-7.5s-3.358-7.5-7.5-7.5h-50.584c-2.15-16.377-9.708-31.566-21.712-43.366-2.374-2.334-4.886-4.479-7.503-6.454h277.858c15.239.263 29.677 6.352 40.662 17.151 6.494 6.383 11.345 14.006 14.346 22.313h-38.643c-4.142 0-7.5 3.357-7.5 7.5s3.358 7.5 7.5 7.5h41.94c.088 1.029.154 2.063.188 3.102.42 12.851-3.163 25.15-10.374 35.655h-155.71c-4.142 0-7.5 3.357-7.5 7.5s3.358 7.5 7.5 7.5h44.405l16.753 33.612h-12.343c-4.142 0-7.5 3.357-7.5 7.5s3.358 7.5 7.5 7.5h19.82l113.046 226.814c5.589 11.213 8.543 23.763 8.543 36.293 0 32.979-26.371 60.152-58.687 60.572h-277.999c18.265-13.828 30.153-35.892 30.153-60.572 0-14.84-3.499-29.703-10.118-42.984l-10.154-20.373h25.042c4.142 0 7.5-3.357 7.5-7.5s-3.358-7.5-7.5-7.5h-32.518l-14.693-29.48c-1.847-3.706-6.35-5.212-10.058-3.367-3.707 1.848-5.214 6.352-3.367 10.059l26.662 53.494h-96.48c-3.568 0-6.948 1.702-9.042 4.553-9.44 12.856-14.43 28.106-14.43 44.1 0 20.103 7.88 38.953 22.188 53.077 14.07 13.889 32.636 21.502 52.381 21.501.297 0 322.529-.007 322.529-.007 40.578-.526 73.59-34.428 73.59-75.571.001-14.84-3.498-29.704-10.117-42.985zm-445.089 51.484h38.804c4.142 0 7.5-3.357 7.5-7.5s-3.358-7.5-7.5-7.5h-38.812c1.172-9.388 4.538-18.293 9.933-26.152h101.908c4.485 10.256 6.841 21.463 6.841 32.652 0 32.979-26.371 60.152-58.784 60.573-16.053.193-31.217-5.891-42.646-17.172-9.63-9.505-15.597-21.694-17.244-34.901z"/><path d="m376.934 399.187c-.635-6.086-4.887-10.955-10.832-12.404l-21.646-5.278-1.212-21.823c-.348-6.258-4.661-11.505-10.732-13.058-6.068-1.548-12.374.98-15.682 6.303l-11.791 18.968-25.884-6.311c-6.024-1.473-12.075.954-15.421 6.172s-3.021 11.73.826 16.59l16.947 21.405-14.609 23.501c-3.386 5.447-2.784 12.314 1.497 17.09 4.28 4.775 11.041 6.119 16.826 3.348l22.523-10.801 15.169 19.159c2.778 3.509 6.913 5.432 11.184 5.432 1.702 0 3.427-.306 5.094-.938 5.852-2.22 9.551-7.91 9.204-14.159l-1.568-28.235 22.073-10.585c5.514-2.649 8.669-8.29 8.034-14.376zm-48.544-36.447.836 15.051-8.851-2.158zm-50.799 17.902 19.112 4.659-6.783 10.912zm3.32 58.476 10.488-16.872 6.796 8.584zm18.903-30.408 12.227-19.67 18.055 4.402 1.195 21.517-19.229 9.221zm21.795 27.527 10.582-5.074 1.102 19.832zm24.315-28.295-.599-10.786 15.308 3.732z"/><path d="m385.29 69.468c4.142 0 7.5-3.357 7.5-7.5s-3.358-7.5-7.5-7.5h-12.314c-4.142 0-7.5 3.357-7.5 7.5s3.358 7.5 7.5 7.5z"/><path d="m346.25 216.376c4.142 0 7.5-3.357 7.5-7.5s-3.358-7.5-7.5-7.5h-142.83c-4.142 0-7.5 3.357-7.5 7.5s3.358 7.5 7.5 7.5z"/><path d="m154.273 216.376h10.75c4.142 0 7.5-3.357 7.5-7.5s-3.358-7.5-7.5-7.5h-10.75c-4.142 0-7.5 3.357-7.5 7.5s3.358 7.5 7.5 7.5z"/><path d="m154.273 271.199h224.86c4.142 0 7.5-3.357 7.5-7.5s-3.358-7.5-7.5-7.5h-224.86c-4.142 0-7.5 3.357-7.5 7.5s3.358 7.5 7.5 7.5z"/><path d="m398.118 316.319c0-4.143-3.358-7.5-7.5-7.5h-184.424c-4.142 0-7.5 3.357-7.5 7.5s3.358 7.5 7.5 7.5h184.424c4.142 0 7.5-3.357 7.5-7.5z"/><path d="m211.413 404.703c-4.142 0-7.5 3.357-7.5 7.5s3.358 7.5 7.5 7.5h35.377c4.142 0 7.5-3.357 7.5-7.5s-3.358-7.5-7.5-7.5z"/><path d="m457.892 419.703c4.142 0 7.5-3.357 7.5-7.5s-3.358-7.5-7.5-7.5h-50.456c-4.142 0-7.5 3.357-7.5 7.5s3.358 7.5 7.5 7.5z"/></g></g></svg>