<svg id="Capa_1" enable-background="new 0 0 512.812 512.812" height="512" viewBox="0 0 512.812 512.812" width="512" xmlns="http://www.w3.org/2000/svg"><g><g><g><path d="m267.396 398.062c5.131-3.511 8.502-9.407 8.502-16.094v-35.868c0-10.765-8.727-19.492-19.492-19.492s-19.492 8.727-19.492 19.492v35.868c0 6.687 3.37 12.583 8.502 16.094l7.646 3.734z" fill="#fe76a8"/><path d="m265.298 398.062c-5.131-3.511-8.502-9.407-8.502-16.094v-35.868c0-7.129 3.866-13.356 9.577-16.754-2.913-1.734-6.331-2.738-9.967-2.738-10.765 0-19.492 8.727-19.492 19.492v35.868c0 6.687 3.37 12.583 8.502 16.094l7.646 3.734 12.966-3.378z" fill="#fe5694"/><g fill="#cb97e7"><circle cx="212.445" cy="352.358" r="25.751"/><circle cx="151.893" cy="302.139" r="28.064"/><circle cx="124.024" cy="225.328" r="25.057"/><circle cx="120.753" cy="145.291" r="25.284"/><circle cx="120.753" cy="66.166" r="25.284"/></g><circle cx="178.355" cy="332.291" fill="#fe76a8" r="14.938"/><circle cx="134.956" cy="262.734" fill="#fe76a8" r="14.938"/><circle cx="121.163" cy="185.922" fill="#fe76a8" r="15.389"/><circle cx="125.129" cy="106.111" fill="#fe76a8" r="14.938"/><circle cx="300.366" cy="352.358" fill="#cb97e7" r="25.751"/><circle cx="360.918" cy="302.139" fill="#cb97e7" r="28.701"/><circle cx="388.787" cy="225.328" fill="#cb97e7" r="25.057"/><circle cx="392.059" cy="145.291" fill="#cb97e7" r="25.284"/><circle cx="392.059" cy="66.166" fill="#cb97e7" r="25.284"/><circle cx="334.457" cy="332.291" fill="#fe76a8" r="14.938"/><circle cx="377.856" cy="262.734" fill="#fe76a8" r="14.938"/><circle cx="391.649" cy="185.922" fill="#fe76a8" r="15.389"/><circle cx="387.683" cy="106.111" fill="#fe76a8" r="14.938"/><path d="m321.808 431.525c10.545 10.963 10.545 28.301 0 39.264-14.906 15.497-38.653 34.523-65.402 34.523s-50.496-19.025-65.402-34.523c-10.545-10.963-10.545-28.301 0-39.264 14.906-15.497 38.653-34.523 65.402-34.523s50.496 19.026 65.402 34.523z" fill="#f2fbff"/><path d="m226.475 470.789c-10.545-10.963-10.545-28.301 0-39.264 11.512-11.968 28.31-26.038 47.678-31.826-5.711-1.707-11.656-2.697-17.748-2.697-26.749 0-50.496 19.025-65.402 34.523-10.545 10.963-10.545 28.301 0 39.264 14.906 15.497 38.653 34.522 65.402 34.522 6.091 0 12.036-.995 17.748-2.702-19.367-5.788-36.166-19.852-47.678-31.82z" fill="#c8effe"/><circle cx="256.406" cy="451.157" fill="#99e6fc" r="24.154"/></g></g><g><path d="m419.651 145.291c0-10.833-5.432-20.402-13.699-26.185 2.62-3.669 4.169-8.153 4.169-12.996 0-5.062-1.695-9.728-4.533-13.485 8.479-5.752 14.063-15.463 14.063-26.46 0-15.044-10.449-27.686-24.468-31.071v-27.594c0-4.143-3.358-7.5-7.5-7.5s-7.5 3.357-7.5 7.5v27.594c-14.019 3.385-24.468 16.027-24.468 31.071 0 10.992 5.58 20.701 14.052 26.457-2.836 3.757-4.522 8.429-4.522 13.489 0 4.839 1.55 9.316 4.165 12.985-8.269 5.783-13.696 15.361-13.696 26.196 0 11.146 5.739 20.974 14.413 26.697-3.049 3.831-4.882 8.669-4.882 13.934 0 4.508 1.344 8.703 3.642 12.221-9.101 5.64-15.18 15.712-15.18 27.185 0 8.805 3.59 16.778 9.369 22.565-4.684 4.114-7.658 10.13-7.658 16.84 0 2.003.272 3.942.767 5.79-15.391 2.294-27.235 15.597-27.235 31.616 0 2.819.371 5.553 1.059 8.158-7.264 1.467-13.265 6.454-16.146 13.096-4.103-1.922-8.674-3.004-13.497-3.004-8.786 0-16.743 3.574-22.527 9.33-4.937-6.445-12.706-10.612-21.434-10.612-8.73 0-16.501 4.169-21.438 10.618-5.781-5.759-13.735-9.335-22.522-9.335-4.823 0-9.393 1.083-13.496 3.005-2.883-6.648-8.892-11.638-16.164-13.1.69-2.607 1.077-5.335 1.077-8.155 0-16.02-11.844-29.322-27.235-31.616.495-1.848.767-3.787.767-5.79 0-6.704-2.969-12.715-7.646-16.829 5.779-5.787 9.357-13.771 9.357-22.576 0-11.472-6.079-21.541-15.181-27.179 2.299-3.521 3.643-7.718 3.643-12.227 0-5.266-1.83-10.108-4.879-13.938 8.672-5.723 14.41-15.548 14.41-26.693 0-10.834-5.421-20.42-13.69-26.202 2.613-3.667 4.16-8.143 4.16-12.979 0-5.061-1.697-9.725-4.536-13.481 8.481-5.753 14.066-15.466 14.066-26.464 0-15.044-10.449-27.686-24.468-31.071v-27.596c0-4.143-3.358-7.5-7.5-7.5s-7.5 3.357-7.5 7.5v27.594c-14.02 3.385-24.468 16.027-24.468 31.071 0 10.996 5.583 20.709 14.06 26.464-2.836 3.757-4.53 8.422-4.53 13.481 0 4.841 1.549 9.321 4.167 12.989-8.267 5.785-13.698 15.358-13.698 26.192 0 11.146 5.738 20.972 14.412 26.694-3.049 3.832-4.882 8.671-4.882 13.937 0 5.328 1.879 10.217 4.994 14.068-7.604 5.847-12.517 15.025-12.517 25.338 0 13.268 8.126 24.671 19.662 29.501-1.478 2.989-2.311 6.35-2.311 9.904 0 8.809 5.104 16.444 12.508 20.114-3.222 4.989-5.102 10.924-5.102 17.292 0 17.627 14.341 31.968 31.968 31.968 1.384 0 2.744-.102 4.082-.273.796 11.654 10.526 20.895 22.378 20.895.747 0 1.482-.049 2.211-.121 1.159 16.581 15.01 29.719 31.88 29.719 6.231 0 12.048-1.796 16.968-4.893v2.533c0 4.219 1.007 8.296 2.829 11.964-7.668 2.767-15.394 6.816-23.13 12.153-3.41 2.353-4.267 7.023-1.915 10.433s7.024 4.267 10.432 1.915c13.398-9.243 26.444-13.93 38.775-13.93 23.972 0 45.858 17.522 59.997 32.223 7.784 8.093 7.784 20.772 0 28.865-5.189 5.395-10.546 10.243-15.922 14.41-3.273 2.538-3.87 7.249-1.332 10.523 1.478 1.906 3.693 2.904 5.933 2.904 1.605 0 3.223-.513 4.59-1.572 5.949-4.612 11.851-9.95 17.542-15.867 13.393-13.924 13.393-35.738 0-49.662-11.508-11.964-27.707-25.559-46.643-32.396 1.822-3.668 2.828-7.745 2.828-11.963v-2.538c4.921 3.097 10.736 4.897 16.968 4.897 16.871 0 30.721-13.138 31.88-29.719.729.072 1.463.121 2.211.121 11.852 0 21.58-9.238 22.378-20.891 1.338.171 2.699.27 4.083.27 17.627 0 31.968-14.341 31.968-31.968 0-6.376-1.884-12.318-5.114-17.311 7.406-3.667 12.521-11.286 12.521-20.095 0-3.557-.838-6.918-2.319-9.908 11.538-4.828 19.669-16.228 19.669-29.497 0-10.313-4.919-19.484-12.523-25.331 3.118-3.853 5-8.744 5-14.075 0-5.265-1.828-10.107-4.877-13.938 8.674-5.723 14.41-15.548 14.41-26.693zm-31.968 16.968c-9.356 0-16.968-7.611-16.968-16.968s7.612-16.969 16.968-16.969 16.968 7.612 16.968 16.969-7.612 16.968-16.968 16.968zm0-63.586c4.101 0 7.438 3.337 7.438 7.438s-3.337 7.438-7.438 7.438-7.438-3.337-7.438-7.438 3.337-7.438 7.438-7.438zm0-49.476c9.356 0 16.968 7.611 16.968 16.968s-7.612 16.969-16.968 16.969-16.968-7.612-16.968-16.969 7.612-16.968 16.968-16.968zm0 144.162c-4.101 0-7.438-3.337-7.438-7.438s3.336-7.438 7.438-7.438 7.438 3.337 7.438 7.438-3.337 7.438-7.438 7.438zm-9.828 78.812c-4.101 0-7.438-3.337-7.438-7.438s3.336-7.438 7.438-7.438 7.438 3.337 7.438 7.438-3.336 7.438-7.438 7.438zm-242.899-14.875c4.101 0 7.438 3.337 7.438 7.438s-3.336 7.438-7.438 7.438-7.438-3.337-7.438-7.438 3.337-7.438 7.438-7.438zm-9.827-158.623c4.101 0 7.438 3.337 7.438 7.438s-3.336 7.438-7.438 7.438-7.438-3.337-7.438-7.438 3.337-7.438 7.438-7.438zm0 29.649c9.356 0 16.968 7.612 16.968 16.969s-7.612 16.968-16.968 16.968-16.968-7.611-16.968-16.968 7.611-16.969 16.968-16.969zm0 50.162c4.101 0 7.438 3.337 7.438 7.438s-3.336 7.438-7.438 7.438-7.438-3.337-7.438-7.438 3.337-7.438 7.438-7.438zm0-129.287c9.356 0 16.968 7.611 16.968 16.968s-7.612 16.969-16.968 16.969-16.968-7.612-16.968-16.969 7.611-16.968 16.968-16.968zm2.007 159.162c9.356 0 16.968 7.612 16.968 16.969s-7.612 16.968-16.968 16.968-16.968-7.611-16.968-16.968 7.612-16.969 16.968-16.969zm7.789 93.781c0-9.356 7.612-16.969 16.968-16.969s16.968 7.612 16.968 16.969-7.612 16.968-16.968 16.968-16.968-7.612-16.968-16.968zm35.992 30.151c0-4.101 3.336-7.438 7.438-7.438s7.438 3.337 7.438 7.438-3.337 7.438-7.438 7.438-7.438-3.337-7.438-7.438zm41.528 37.035c-9.356 0-16.968-7.611-16.968-16.968s7.612-16.969 16.968-16.969 16.968 7.612 16.968 16.969-7.611 16.968-16.968 16.968zm43.961 20.176c-2.914 0-5.846.2-8.791.597-2.031-2.195-3.201-5.084-3.201-8.132v-35.867c0-6.612 5.38-11.992 11.992-11.992s11.992 5.38 11.992 11.992v35.867c0 3.052-1.173 5.943-3.208 8.14-2.886-.389-5.814-.605-8.784-.605zm43.96-20.176c-9.356 0-16.968-7.611-16.968-16.968s7.612-16.969 16.968-16.969 16.968 7.612 16.968 16.969-7.611 16.968-16.968 16.968zm34.091-29.597c-4.101 0-7.438-3.337-7.438-7.438s3.337-7.438 7.438-7.438 7.438 3.337 7.438 7.438-3.337 7.438-7.438 7.438zm26.461-20.622c-9.356 0-16.968-7.611-16.968-16.968s7.612-16.969 16.968-16.969 16.968 7.612 16.968 16.969-7.612 16.968-16.968 16.968zm24.757-76.811c-9.356 0-16.968-7.611-16.968-16.968s7.612-16.969 16.968-16.969 16.968 7.612 16.968 16.969-7.611 16.968-16.968 16.968z"/><path d="m274.488 494.621c-6.164 2.117-12.248 3.19-18.083 3.19-23.971 0-45.857-17.522-59.997-32.222-7.236-7.523-7.769-19.325-1.237-27.452 2.595-3.229 2.082-7.949-1.147-10.544s-7.949-2.083-10.544 1.147c-11.244 13.989-10.333 34.301 2.118 47.247 16.159 16.799 41.56 36.823 70.808 36.823 7.496 0 15.219-1.347 22.955-4.003 3.917-1.346 6.003-5.612 4.657-9.529s-5.612-5.997-9.53-4.657z"/><path d="m256.406 419.503c-17.454 0-31.654 14.2-31.654 31.654s14.2 31.654 31.654 31.654 31.654-14.2 31.654-31.654-14.2-31.654-31.654-31.654zm0 48.309c-9.183 0-16.654-7.471-16.654-16.654s7.471-16.654 16.654-16.654 16.654 7.471 16.654 16.654-7.471 16.654-16.654 16.654z"/></g></g></svg>