<svg id="Capa_1" enable-background="new 0 0 510.64 510.64" height="512" viewBox="0 0 510.64 510.64" width="512" xmlns="http://www.w3.org/2000/svg"><g><g><path d="m343.463 56.363-33.411 6.48-2.016 15.533-29.277 28.563-3.903 40.393 16.13 4.835h33.5l7.64-25.86 21.16-58.411z" fill="#fe93bb"/><path d="m245.689 87.649-20.753-9.273-1.99-12.879-24.293-9.134-18.967 11.533 21.16 58.411 11.3 25.86h29.07l16.612-13.84z" fill="#fe5694"/><path d="m308.036 78.376-10.52 46.66-6.53 27.13h-49.77l-5.76-27.13-10.52-46.66z" fill="#fe76a8"/><g><g id="XMLID_384_"><g><path d="m266.986 150.046c97.52 0 176.85 79.34 176.85 176.85 0 97.52-79.33 176.86-176.85 176.86s-176.85-79.34-176.85-176.86c0-97.51 79.33-176.85 176.85-176.85zm130.85 176.85c0-72.26-58.58-130.85-130.85-130.85s-130.85 58.59-130.85 130.85c0 72.27 58.58 130.86 130.85 130.86s130.85-58.59 130.85-130.86z" fill="#fef0ae"/></g></g><g><path d="m123.772 327.483c0-92.872 71.964-169.259 163.066-176.316-6.519-.731-13.141-1.121-19.852-1.121-97.52 0-176.85 79.34-176.85 176.85 0 97.52 79.33 176.86 176.85 176.86 4.638 0 9.234-.182 13.783-.534-88.207-9.899-156.997-84.931-156.997-175.739z" fill="#fee97d"/></g><g id="XMLID_397_"><g><path d="m343.236 167.966c.05.02.1.05.15.08l-.15.31h-153.3l-13.28-25.29c-4-7.61 1.53-16.76 10.13-16.76h159.4c8.6 0 14.13 9.15 10.13 16.76z" fill="#fee45a"/></g></g><path d="m220.52 126.307h-33.734c-8.6 0-14.13 9.15-10.13 16.76l13.28 25.29h33.734l-13.28-25.29c-4-7.61 1.53-16.76 10.13-16.76z" fill="#fedf30"/><g id="XMLID_400_"><g><path d="m266.486 9.457.05-1.96c-1.08-.01-2.16.29-3.1.9l-81.53 52.9c-2.18 1.42-3.1 4.15-2.22 6.6l45.25 10.48 35.532-26.877 8.107-38.465z" fill="#fe76a8"/><path d="m351.066 61.296-78.911-51.201-2.619-1.699c-.92-.59-1.96-.89-3-.9l-.05 1.96-2.407 19.945 25.375 38.686 18.583 10.289 45.25-10.48c.879-2.45-.041-5.18-2.221-6.6z" fill="#fea3c6"/><path d="m307.746 76.587c.31.535.41 1.172.29 1.789h-83.1c-.12-.617-.02-1.255.29-1.789l39.19-67.877c.47-.802 1.27-1.214 2.07-1.214s1.6.411 2.07 1.214z" fill="#fe93bb"/></g></g><g fill="#fedf30"><path d="m443.981 222.436c-6.654-4.667-12.239-10.119-16.653-16.431-1.898-2.714-5.971-2.729-7.736.073-4.11 6.527-9.744 11.929-16.625 16.412-2.933 1.911-2.797 6.192.222 7.965 6.913 4.062 12.409 9.164 16.227 15.498 1.791 2.97 6.083 3.035 7.924.096 4.2-6.702 9.67-11.895 16.225-15.8 2.909-1.732 3.188-5.869.416-7.813z"/><path d="m107.864 359.205c-6.654-4.667-12.239-10.119-16.653-16.431-1.898-2.714-5.971-2.729-7.736.073-4.11 6.526-9.744 11.929-16.625 16.412-2.933 1.911-2.797 6.192.222 7.965 6.913 4.062 12.409 9.164 16.227 15.498 1.791 2.97 6.083 3.035 7.924.096 4.2-6.702 9.67-11.895 16.225-15.8 2.909-1.732 3.188-5.869.416-7.813z"/></g></g></g><g><path d="m357.139 422.03c3.016 2.839 7.763 2.695 10.602-.32 24.247-25.759 37.601-59.43 37.601-94.809 0-76.289-62.065-138.355-138.354-138.355s-138.355 62.066-138.355 138.355 62.066 138.354 138.355 138.354c26.578 0 52.396-7.558 74.663-21.857 3.485-2.238 4.496-6.878 2.258-10.363-2.238-3.486-6.879-4.496-10.363-2.258-19.844 12.743-42.859 19.479-66.558 19.479-68.018 0-123.355-55.337-123.355-123.354 0-68.019 55.337-123.355 123.355-123.355s123.354 55.337 123.354 123.355c0 31.543-11.905 61.562-33.522 84.527-2.841 3.016-2.697 7.762.319 10.601z"/><path d="m433.582 268.781c-3.966 1.195-6.211 5.38-5.016 9.346 4.75 15.757 7.158 32.167 7.158 48.774 0 93.043-75.695 168.738-168.738 168.738-31.739 0-62.661-8.858-89.422-25.618-26.044-16.31-47.163-39.386-61.072-66.733-1.878-3.692-6.395-5.164-10.085-3.284-3.692 1.878-5.163 6.393-3.285 10.085 15.143 29.771 38.131 54.892 66.481 72.646 29.151 18.256 62.825 27.905 97.383 27.905 101.313 0 183.738-82.425 183.738-183.738 0-18.074-2.623-35.941-7.797-53.104-1.195-3.967-5.379-6.217-9.345-5.017z"/><path d="m90.789 318.462c.228.021.453.03.677.03 3.84 0 7.112-2.934 7.461-6.831 2.612-29.196 12.882-57.332 29.699-81.367 16.16-23.097 37.958-41.878 63.102-54.434h20.024c4.142 0 7.5-3.357 7.5-7.5s-3.358-7.5-7.5-7.5h-17.281l-11.173-21.276c-.933-1.776-.229-3.299.116-3.871.346-.572 1.367-1.903 3.374-1.903h145.292c.015 0 .031.002.046.002.009 0 .017-.002.025-.002h14.031c2.007 0 3.027 1.331 3.373 1.903.347.571 1.05 2.095.116 3.872l-11.172 21.275h-93.816c-4.142 0-7.5 3.357-7.5 7.5s3.358 7.5 7.5 7.5h97.549c14.249 7.112 27.435 16.189 39.198 27.053 3.044 2.812 7.788 2.622 10.599-.421s2.622-7.788-.421-10.599c-11.567-10.683-24.387-19.8-38.194-27.172l9.538-18.163c3.11-5.924 2.901-12.879-.56-18.604-3.46-5.727-9.521-9.145-16.211-9.145h-3.364l17.514-48.359c.041-.114.07-.229.108-.343.026-.084.056-.167.079-.252 1.738-5.599-.408-11.632-5.372-14.851l-81.534-52.898c-4.328-2.809-9.923-2.809-14.253 0l-81.536 52.898c-4.963 3.219-7.109 9.25-5.374 14.847.025.094.058.184.087.277.036.106.063.214.101.32l17.515 48.36h-3.364c-6.69 0-12.751 3.419-16.211 9.145s-3.669 12.681-.559 18.604l9.762 18.589c-25.163 13.599-46.986 33.025-63.444 56.547-18.317 26.18-29.503 56.827-32.349 88.63-.368 4.126 2.677 7.77 6.802 8.139zm221.55-248.786-23.732-39.961 51.637 33.501zm-66.922-27.043c3.561 2.118 8.163.942 10.278-2.618l10.792-18.172 29.117 49.028h-58.234l1.829-3.08c2.115-3.562.942-8.163-2.619-10.278-3.562-2.118-8.164-.942-10.278 2.618l-5.668 9.545-27.906-6.46 51.638-33.501-1.568 2.64c-2.115 3.561-.943 8.163 2.619 10.278zm53.237 43.238-7.422 32.938h-49.491l-7.423-32.938zm7.954 32.939 7.706-34.194 27.219-6.301-14.666 40.496h-20.259zm-115.168-40.496 27.219 6.301 7.706 34.194h-20.258z"/><path d="m379.775 38.666c1.971 0 3.938-.772 5.411-2.306l11.95-12.448c2.869-2.988 2.771-7.736-.216-10.604-2.988-2.869-7.736-2.771-10.604.216l-11.95 12.448c-2.869 2.988-2.771 7.736.216 10.604 1.454 1.397 3.325 2.09 5.193 2.09z"/><path d="m377.361 95.523c-1.311 3.93.812 8.177 4.741 9.487l16.369 5.46c.787.263 1.587.388 2.374.388 3.14 0 6.065-1.987 7.113-5.129 1.311-3.93-.812-8.177-4.741-9.487l-16.369-5.46c-3.925-1.307-8.176.812-9.487 4.741z"/><path d="m149.786 36.36c1.473 1.534 3.44 2.306 5.412 2.306 1.868 0 3.739-.693 5.193-2.09 2.988-2.868 3.085-7.616.217-10.604l-11.95-12.448c-2.869-2.988-7.617-3.086-10.604-.216-2.988 2.868-3.085 7.616-.217 10.604z"/><path d="m134.127 110.858c.787 0 1.587-.125 2.374-.388l16.369-5.46c3.929-1.311 6.052-5.558 4.742-9.487-1.311-3.93-5.56-6.055-9.488-4.741l-16.369 5.46c-3.929 1.311-6.052 5.558-4.742 9.487 1.048 3.143 3.974 5.129 7.114 5.129z"/><path d="m398.873 216.207c-3.559 2.318-5.623 6.23-5.524 10.465.099 4.255 2.358 8.087 6.042 10.25 6.068 3.565 10.519 7.786 13.603 12.904 2.202 3.652 6.061 5.854 10.323 5.892.036 0 .071.001.108.001 4.203 0 8.037-2.12 10.271-5.687 3.48-5.554 7.964-9.917 13.708-13.339 3.601-2.145 5.844-5.917 5.999-10.09.152-4.101-1.759-7.954-5.114-10.308-.001 0-.001-.001-.002-.001-6.002-4.209-10.985-9.117-14.813-14.589-2.36-3.374-6.201-5.339-10.337-5.229-4.045.098-7.742 2.193-9.891 5.604-3.421 5.434-8.122 10.054-14.373 14.127zm24.705-2.685c3.605 4.563 7.851 8.755 12.677 12.523-4.966 3.459-9.258 7.62-12.822 12.433-3.39-4.602-7.676-8.681-12.802-12.183 5.112-3.781 9.446-8.058 12.947-12.773z"/><path d="m111.287 373.462c3.601-2.146 5.843-5.917 5.999-10.091.152-4.101-1.76-7.954-5.116-10.307-6.003-4.211-10.987-9.12-14.812-14.588-2.36-3.375-6.23-5.305-10.335-5.231-4.045.098-7.744 2.192-9.894 5.605-3.42 5.432-8.122 10.053-14.371 14.124-3.558 2.317-5.625 6.229-5.527 10.462.098 4.256 2.356 8.089 6.042 10.255 6.068 3.565 10.518 7.786 13.603 12.903 2.201 3.652 6.06 5.854 10.322 5.893h.109c4.203 0 8.037-2.119 10.272-5.686 3.48-5.554 7.964-9.917 13.708-13.339zm-23.971 1.785c-3.39-4.602-7.676-8.68-12.802-12.182 5.113-3.782 9.447-8.06 12.947-12.773 3.605 4.561 7.849 8.753 12.677 12.522-4.967 3.459-9.259 7.622-12.822 12.433z"/></g></g></svg>