<svg id="Capa_1" enable-background="new 0 0 510.811 510.811" height="512" viewBox="0 0 510.811 510.811" width="512" xmlns="http://www.w3.org/2000/svg"><g><g><g id="XMLID_402_"><g><path d="m332.688 69.027c0-7.24 2.93-13.78 7.67-18.53 4.843-4.833 11.547-7.784 18.957-7.667 14.4.229 25.773 12.381 25.773 26.783v113.124 141.69c0 12.33-3.18 24.45-9.24 35.19l-15.63 27.74c-.87 1.55-1.33 3.3-1.33 5.08v93.267c0 9.722-7.881 17.603-17.603 17.603h-161.233c-9.722 0-17.603-7.881-17.603-17.603v-111.097l-21.22-22.96c-9.97-10.78-15.5-24.92-15.5-39.6v-130.44c0-8.18 3.31-15.58 8.67-20.93 5.35-5.36 12.75-8.67 20.93-8.67 7.16 0 13.72 2.53 18.84 6.76l1.32-.88v-100.314c0-14.402 11.373-26.554 25.773-26.783 7.41-.118 14.114 2.834 18.957 7.667 4.74 4.75 7.67 11.29 7.67 18.53v-22.704c0-14.402 11.373-26.554 25.773-26.783 7.41-.118 14.114 2.834 18.957 7.667 4.74 4.74 7.67 11.3 7.67 18.53v18.37c0-14.47 11.73-26.2 26.2-26.2 7.24 0 13.78 2.93 18.53 7.67 4.74 4.75 7.67 11.29 7.67 18.53v16.96z" fill="#d9b1ee"/></g></g><g><path d="m201.126 485.085v-97.804c0-11.074-4.076-21.76-11.452-30.02l-9.768-10.94c-9.97-11.159-15.5-25.795-15.5-40.991v-135.021c0-5.572 1.448-10.794 3.956-15.292-3.931-1.928-8.357-3.01-13.034-3.01-8.18 0-15.58 3.31-20.93 8.67-5.36 5.35-8.67 12.75-8.67 20.93v130.44c0 14.68 5.53 28.82 15.5 39.6l21.22 22.96v111.097c0 9.722 7.881 17.603 17.603 17.603h38.678c-9.721 0-17.603-8.158-17.603-18.222z" fill="#cb97e7"/></g><g fill="#cb97e7"><path d="m175.688 205.427c21.606 0 39.08-17.587 38.947-39.192-.267-43.116-.406-125.318-.406-125.318 0-2.248.246-4.434.692-6.543-3.999-2.344-8.668-3.663-13.66-3.583-13.813.22-24.833 11.412-25.71 25.035 0-.001.056 148.349.137 149.601z"/><path d="m227.875 197.009c21.606 0 39.08-17.587 38.947-39.192-.267-43.116-.406-140.318-.406-140.318 0-2.248.246-4.434.692-6.543-3.999-2.344-8.668-3.663-13.66-3.583-13.813.22-24.833 11.412-25.71 25.035 0-.001.056 163.349.137 164.601z"/><path d="m280.529 198.512c21.606 0 39.08-17.587 38.947-39.192-.267-43.116-.406-124.318-.406-124.318 0-1.925.19-3.803.522-5.628-3.853-2.227-8.319-3.508-13.094-3.508-13.529 0-24.661 10.255-26.051 23.416-.013.15-.029.3-.04.451-.006.068-.01.137-.016.205-.646 1.709.017 147.36.138 148.574z"/><path d="m359.315 42.831c-7.41-.118-14.114 2.833-18.957 7.667-3.81 3.819-6.448 8.795-7.337 14.361-.056.361-.106.723-.147 1.088-.001.008-.002.017-.003.026-.047.419-.084.841-.111 1.265-.002.001-.005.028-.007.037-.038.58-.065 1.163-.065 1.752v-.211c-.299 14.716.106 127.868.208 129.024 21.606 0 39.08-17.586 38.947-39.192-.267-43.115-.406-106.318-.406-106.318 0-2.015.22-3.978.582-5.884-3.731-2.225-8.065-3.542-12.704-3.615z"/></g><path d="m320.25 288.745c10.545 10.963 10.545 28.301 0 39.264-14.906 15.497-38.653 34.523-65.402 34.523s-50.496-19.025-65.402-34.523c-10.545-10.963-10.545-28.301 0-39.264 14.906-15.497 38.653-34.523 65.402-34.523s50.496 19.025 65.402 34.523z" fill="#f4eafa"/><path d="m219.624 328.008c-10.545-10.963-10.545-28.301 0-39.264 12.033-12.51 29.829-27.313 50.313-32.558-4.891-1.252-9.933-1.965-15.089-1.965-26.749 0-50.496 19.025-65.402 34.522-10.545 10.963-10.545 28.301 0 39.264 14.906 15.498 38.653 34.523 65.402 34.523 5.156 0 10.198-.713 15.089-1.965-20.484-5.243-38.279-20.046-50.313-32.557z" fill="#ebd5f6"/><circle cx="254.848" cy="308.377" fill="#cb97e7" r="24.154"/></g><g><path d="m162.452 461.277c-4.143 0-7.5 3.357-7.5 7.5v34.533c0 4.143 3.357 7.5 7.5 7.5s7.5-3.357 7.5-7.5v-34.533c0-4.142-3.358-7.5-7.5-7.5z"/><path d="m385.083 170.108c-4.143 0-7.5 3.357-7.5 7.5v146.815c0 11.016-2.858 21.911-8.268 31.51l-15.631 27.738c-1.505 2.671-2.301 5.703-2.301 8.768v110.871c0 4.143 3.357 7.5 7.5 7.5s7.5-3.357 7.5-7.5v-110.871c0-.49.128-.976.369-1.404l15.631-27.738c6.672-11.841 10.199-25.283 10.199-38.873v-146.816c.001-4.142-3.356-7.5-7.499-7.5z"/><path d="m358.884 35.33c-7.577 0-14.576 2.515-20.211 6.751-4.267-13.72-17.082-23.71-32.188-23.71-7.429 0-14.3 2.421-19.877 6.51-3.886-14.318-16.989-24.881-32.52-24.881-17.05 0-31.173 12.729-33.388 29.182-5.415-3.714-11.962-5.893-19.011-5.893-18.582 0-33.699 15.117-33.699 33.699v89.746c-3.952-1.439-8.215-2.226-12.659-2.226-20.46 0-37.104 16.645-37.104 37.104v130.437c0 16.618 6.213 32.49 17.494 44.692l19.23 20.8v59.273c0 4.143 3.357 7.5 7.5 7.5s7.5-3.357 7.5-7.5v-62.209c0-1.888-.712-3.705-1.993-5.092l-21.224-22.956c-8.711-9.422-13.508-21.677-13.508-34.509v-130.436c0-12.188 9.916-22.104 22.104-22.104 12.189 0 22.105 9.916 22.105 22.104v74.415c0 4.143 3.357 7.5 7.5 7.5s7.5-3.357 7.5-7.5v-74.415c0-9.479-3.577-18.134-9.446-24.699v-99.925c0-10.311 8.389-18.699 18.699-18.699s18.699 8.389 18.699 18.699v125.748c0 4.143 3.357 7.5 7.5 7.5s7.5-3.357 7.5-7.5v-149.037c0-10.311 8.389-18.699 18.699-18.699s18.699 8.389 18.699 18.699v149.037c0 4.143 3.357 7.5 7.5 7.5s7.5-3.357 7.5-7.5v-130.666c0-10.311 8.388-18.699 18.698-18.699s18.699 8.389 18.699 18.699v130.666c0 4.143 3.357 7.5 7.5 7.5s7.5-3.357 7.5-7.5v-113.707c0-10.311 8.389-18.699 18.699-18.699s18.699 8.389 18.699 18.699v76.617c0 4.143 3.357 7.5 7.5 7.5s7.5-3.357 7.5-7.5v-76.617c.003-18.582-15.114-33.699-33.696-33.699z"/><path d="m319.288 277.248c-3.018-2.838-7.764-2.689-10.602.328-2.837 3.018-2.69 7.765.328 10.602 1.967 1.849 3.929 3.789 5.831 5.766 7.784 8.093 7.784 20.772 0 28.865-14.139 14.7-36.024 32.223-59.997 32.223s-45.858-17.522-59.997-32.223c-7.784-8.093-7.784-20.772 0-28.865 14.14-14.699 36.026-32.221 59.997-32.221 9.507 0 19.515 2.813 29.744 8.363 3.642 1.974 8.193.624 10.169-3.017 1.975-3.641.624-8.193-3.017-10.169-12.45-6.753-24.863-10.178-36.896-10.178-29.248 0-54.648 20.024-70.808 36.822-13.394 13.924-13.394 35.738 0 49.662 16.157 16.799 41.558 36.824 70.808 36.824s54.65-20.025 70.808-36.824c13.394-13.924 13.394-35.738-.001-49.663-2.076-2.157-4.219-4.275-6.367-6.295z"/><path d="m254.848 276.723c-17.454 0-31.654 14.2-31.654 31.654s14.2 31.654 31.654 31.654 31.654-14.2 31.654-31.654-14.2-31.654-31.654-31.654zm0 48.308c-9.184 0-16.654-7.471-16.654-16.654s7.471-16.654 16.654-16.654 16.654 7.471 16.654 16.654-7.47 16.654-16.654 16.654z"/></g></g></svg>