<svg id="Capa_1" enable-background="new 0 0 512 512" height="512" viewBox="0 0 512 512" width="512" xmlns="http://www.w3.org/2000/svg"><g><g><path d="m468.816 206.752c-3.695-56.056-28.816-105.866-67.05-141.66-38.233-35.804-89.6-57.592-145.766-57.592-1.234 0-2.464.024-3.693.045-55.058 50.172-85.934 122.392-69.975 213.308 71.41 44.725 164.81 47.213 287.037-5.667z" fill="#71ddfc"/><path d="m43.184 206.752-.542 8.243c48.463 22.758 95.244 27.094 139.691 5.858 11.85-82.833 37.027-156.709 69.975-213.308-110.682 1.887-201.816 88.337-209.124 199.207z" fill="#3ac8fb"/><circle cx="184.472" cy="120.455" fill="#d8d6ff" r="37.652"/><circle cx="327.538" cy="120.455" fill="#efedff" r="37.652"/><path d="m433.424 436.998-27.41-71.96-85.63-9.47c-16.043-1.774-32.268-.954-48.05 2.428l-94.999 20.362c-22.897 53.868-10.798 95.762 25.991 126.141h183.572c34.869.001 58.936-34.92 46.526-67.501z" fill="#f5e277"/><path d="m106.047 364.888-27.471 72.11c-12.41 32.581 11.657 67.502 46.527 67.502h78.222c-13.08-36.852-22.019-79.609-25.991-126.141-20.93-32.701-53.616-40.279-71.287-13.471z" fill="#f5c922"/><path d="m453.394 351.012c30.553-10.442 51.106-39.117 51.106-71.417v-.703c0-49.392-46.693-85.367-94.621-72.964-72.251 18.685-149.547 24.337-227.547 14.924-33.035 51.066-40.085 104.301-4.998 157.506 96.672 12.473 191.396 1.609 276.06-27.346z" fill="#7292df"/><path d="m179.316 244.733c.881-8.036 1.888-15.999 3.016-23.881-29.35-3.542-56.246-8.912-80.312-15.115-21.386-5.522-42.531-1.396-59.379 9.257-20.864 13.204-35.141 36.407-35.141 63.737v.773c0 32.35 20.623 61.066 51.256 71.468 14.277 4.839 30.081 9.599 47.29 13.916 21.631 5.424 45.489 10.142 71.287 13.471-3.584-41.99-3.126-87.053 1.983-133.626z" fill="#4677d4"/><path d="m335.56 287.527c16.205.05 29.298 10.542 29.258 23.444s-13.203 23.314-29.398 23.264c-16.205-.05-29.298-10.542-29.258-23.444s13.203-23.314 29.398-23.264z" fill="#ffa1ac"/><path d="m255.97 319.144c-13.053-.04-23.605-11.918-23.565-26.527.05-14.619 10.643-15.954 23.705-15.914 13.053.04 23.635 1.446 23.595 16.055-.05 14.619-10.673 26.426-23.735 26.386z" fill="#495560"/><path d="m176.58 287.025c16.205.05 29.298 10.552 29.258 23.454-.04 12.892-13.203 23.314-29.398 23.264-16.205-.05-29.298-10.552-29.258-23.454.04-12.892 13.203-23.314 29.398-23.264z" fill="#ffa1ac"/></g><g><path d="m476.611 211.012-.311-4.753c-7.646-115.996-103.912-206.259-220.3-206.259-116.25 0-212.646 90.133-220.3 206.26l-.299 4.554c-22.235 15.548-35.401 40.651-35.401 67.916v.77c0 35.557 22.645 67.132 56.351 78.572 12.99 4.405 26.312 8.418 39.708 11.975l-24.488 64.283c-14.27 37.463 13.451 77.67 53.529 77.67h16.99c4.143 0 7.5-3.357 7.5-7.5s-3.357-7.5-7.5-7.5h-16.99c-29.537 0-50.105-29.517-39.511-57.33l25.117-65.934c95.66 22.898 195.594 22.98 290.65.156l25.055 65.778c10.518 27.612-9.758 57.33-39.511 57.33h-209.81c-4.143 0-7.5 3.357-7.5 7.5s3.357 7.5 7.5 7.5h209.81c40.089 0 67.795-40.217 53.528-77.67l-24.43-64.137c13.43-3.578 26.789-7.628 39.816-12.086 33.607-11.48 56.186-43.034 56.186-78.517v-.7c0-27.27-13.163-52.359-35.389-67.878zm20.389 68.578c0 29.067-18.5 54.917-46.039 64.324-124.908 42.749-263.711 42.712-389.791-.047-27.615-9.373-46.17-35.24-46.17-64.367v-.77c0-44.242 41.776-76.919 85.148-65.728 69.104 17.806 139.754 23.333 207.549 17.731 4.129-.341 7.198-3.964 6.857-8.092-.342-4.128-3.968-7.195-8.092-6.857-66.043 5.457-134.986.107-202.569-17.307-17.907-4.621-36.229-3.26-52.831 3.709 9.547-105.372 98.6-187.186 204.938-187.186 107.587 0 195.562 82.391 204.954 187.378-16.625-6.992-34.99-8.354-52.95-3.709-22.054 5.697-44.656 10.18-67.18 13.323-4.103.573-6.965 4.362-6.392 8.465.572 4.103 4.371 6.958 8.465 6.392 23.087-3.222 46.254-7.817 68.86-13.657 43.556-11.267 85.243 21.571 85.243 65.698z"/><path d="m184.472 75.303c-24.896 0-45.151 20.255-45.151 45.151s20.255 45.151 45.151 45.151c24.897 0 45.152-20.255 45.152-45.151s-20.255-45.151-45.152-45.151zm0 75.303c-16.626 0-30.151-13.526-30.151-30.151s13.525-30.151 30.151-30.151 30.152 13.526 30.152 30.151-13.526 30.151-30.152 30.151z"/><path d="m372.689 120.455c0-24.896-20.255-45.151-45.151-45.151s-45.151 20.255-45.151 45.151 20.255 45.151 45.151 45.151 45.151-20.255 45.151-45.151zm-75.302 0c0-16.625 13.525-30.151 30.151-30.151s30.151 13.526 30.151 30.151-13.525 30.151-30.151 30.151-30.151-13.526-30.151-30.151z"/><path d="m256.134 269.203c-9.327-.023-31.148-.096-31.229 23.394-.051 18.49 13.684 34.048 31.131 34.048 17.13 0 31.105-15.171 31.169-33.861 0-.002 0-.003 0-.005.065-23.48-21.755-23.548-31.071-23.576zm-.141 42.442c-8.899-.028-16.116-8.555-16.088-19.002.02-5.834.668-8.44 15.769-8.44.137 0 .275.001.413.001 15.484.048 16.134 2.649 16.118 8.529-.034 10.01-6.919 18.912-16.212 18.912z"/><path d="m193.691 263.561c-11.812 0-21.438 9.586-21.469 21.396-.011 4.142 3.338 7.509 7.48 7.52h.02c4.133 0 7.489-3.345 7.5-7.48.01-3.556 2.897-6.436 6.469-6.436h.019c3.558.01 6.444 2.92 6.436 6.488-.011 4.142 3.339 7.508 7.481 7.519h.019c4.134 0 7.489-3.346 7.5-7.481.03-11.837-9.579-21.526-21.455-21.526z"/><path d="m318.482 263.952c-11.836 0-21.437 9.555-21.467 21.397-.011 4.142 3.339 7.508 7.481 7.519h.019c4.134 0 7.489-3.346 7.5-7.481.008-3.556 2.896-6.435 6.468-6.435h.019c3.558.01 6.445 2.92 6.436 6.487-.011 4.142 3.338 7.509 7.48 7.52h.02c4.133 0 7.489-3.345 7.5-7.48.031-11.84-9.58-21.527-21.456-21.527z"/></g></g></svg>