<svg id="Capa_1" enable-background="new 0 0 510.037 510.037" height="512" viewBox="0 0 510.037 510.037" width="512" xmlns="http://www.w3.org/2000/svg"><g><g><path d="m442.518 412.518c0-35.17-42.02-65.63-103.27-80.43l-124.678-.015c-24.281 66.445-14.691 124.95 31.566 170.342 2.944.066 5.903.103 8.881.103 103.552 0 187.501-40.29 187.501-90z" fill="#7292df"/><path d="m170.889 332.068c-61.3 14.79-103.37 45.26-103.37 80.45 0 48.281 79.193 87.671 178.619 89.897-16.907-47.918-28.085-106.287-31.566-170.342z" fill="#4677d4"/><path d="m371.379 442.348c24.68-11.85 33.64-24.33 33.64-29.83s-8.96-17.98-33.64-29.83c-5.68-2.73-11.79-5.23-18.29-7.49l-134.937-.069c-16.664 29.927-13.473 59.693 16.365 89.288 44.433 2.611 97.811-3.324 136.862-22.069z" fill="#4677d4"/><path d="m157.229 375.098c-6.59 2.29-12.8 4.83-18.56 7.59-24.69 11.85-33.65 24.33-33.65 29.83s8.96 17.98 33.65 29.83c25.306 12.151 59.431 19.929 95.848 22.069-7.229-27.485-12.776-57.47-16.365-89.288z" fill="#155ac7"/><path d="m361.779 395.488c2.87 6.19-.23 13.52-6.69 15.71-23.75 8.08-58.06 16.29-99.82 16.32-.08 0-.17 0-.25 0-31.769-76.849-30.898-156.935 0-240 32.576-28.947 60.467-22.403 84.36-9.6-12.75 52.022-12.183 105.781-.13 154.17 5.189 20.915 12.739 42.269 22.53 63.4z" fill="#60d9a7"/><path d="m255.018 187.518c-12.299-18.13-24.015-18.677-35.058-1.579-28.378 78.13-28.364 163.358 5.906 240.239 9.246.851 18.976 1.339 29.152 1.339z" fill="#02cf7a"/><path d="m213.833 262.754c.845-26.393 2.935-52.089 6.128-76.814-17.084-19.099-33.706-18.307-49.302-8.021 5.73 23.38 9.32 49.15 9.36 77.1.04 27.96-3.46 53.71-9.13 77.05-3.74 15.42-8.43 29.78-13.66 43.03-2.81 7.11-5.77 13.91-8.83 20.37-2.93 6.19.18 13.56 6.66 15.76 17.995 6.122 42.047 12.304 70.808 14.951-9.468-49.379-13.909-104.891-12.034-163.426z" fill="#02b068"/><path d="m339.379 177.918c61.18-14.82 103.14-45.26 103.14-80.4 0-47.365-76.217-86.177-172.983-89.734-50.259 40.748-65.147 102.819-49.574 178.155 11.358 1.031 23.073 1.579 35.058 1.579 30.348 0 59.009-3.46 84.359-9.6z" fill="#7292df"/><path d="m255.018 7.518c-103.55 0-187.5 40.29-187.5 90 0 35.14 41.96 65.58 103.14 80.4 15.34 3.715 31.898 6.441 49.302 8.021 8.905-68.955 26.411-130.344 49.574-178.155-4.79-.175-9.631-.266-14.516-.266z" fill="#4677d4"/><path d="m371.379 127.348c24.68-11.85 33.64-24.33 33.64-29.83 0-17.072-57.069-52.5-150-52.5-.451 0-.901.006-1.352.008-39.005 29.422-47.987 64.411-27.951 103.745 9.61.813 19.414 1.247 29.302 1.247 37.904 0 82.523-6.437 116.361-22.67z" fill="#4677d4"/><path d="m138.669 67.688c-10.508 5.036-33.65 18.796-33.65 29.83 0 5.5 8.96 17.98 33.65 29.83 25.859 12.427 58.089 18.972 87.048 21.423 6.855-37.805 16.356-72.764 27.951-103.745-43.448.168-85.298 8.4-114.999 22.662z" fill="#155ac7"/></g><g><path d="m374.625 134.11c23.02-11.053 37.894-25.416 37.894-36.591 0-17.509-31.565-33.553-37.892-36.59-8.973-4.311-19.123-8.139-30.169-11.377-3.976-1.165-8.141 1.113-9.307 5.087-1.165 3.975 1.112 8.142 5.088 9.307 10.266 3.009 19.65 6.543 27.894 10.504 16.101 7.731 29.101 18.768 29.381 22.934-.498 2.186-6.926 12.422-29.379 23.203-60.921 29.22-166.045 28.921-226.221 0-22.466-10.782-28.894-21.02-29.391-23.205.271-4.249 13.013-15.079 29.392-22.933 38.275-18.378 102.425-27.915 165.099-17.895 4.094.654 7.938-2.132 8.591-6.222s-2.132-7.936-6.222-8.59c-66.344-10.607-133.394-.294-173.957 19.183-8.893 4.264-37.907 19.504-37.907 36.593 0 11.177 14.879 25.54 37.901 36.59 65.098 31.287 174.082 31.238 239.205.002z"/><path d="m345.491 325.921c-10.488-44.933-10.818-94.241.134-141.838 64.524-16.657 104.394-49.592 104.394-86.564 0-27.084-21.015-52.087-59.174-70.403-75.314-36.149-196.317-36.159-271.652 0-38.16 18.315-59.174 43.318-59.174 70.402 0 36.972 39.87 69.907 104.394 86.564 5.826 25.324 8.421 51.15 8.088 74.939-.06 4.193 3.325 7.607 7.501 7.607 4.092 0 7.438-3.287 7.497-7.393.324-22.051-1.821-46.798-6.927-71.438 21.253 4.325 43.692 6.72 66.948 7.143v224.983c-38.586-.944-70.018-8.985-90.049-15.798-2.23-.757-3.307-3.306-2.294-5.447 15.642-33.012 25.762-67.989 30.01-103.746.489-4.113-2.449-7.844-6.562-8.332-4.111-.496-7.845 2.449-8.332 6.562-1.307 10.996-3.207 21.985-5.656 32.738-64.661 16.631-104.616 49.586-104.616 86.617 0 27.085 21.015 52.088 59.174 70.402 75.309 36.149 196.317 36.161 271.652 0 38.159-18.314 59.174-43.317 59.174-70.402-.003-37.01-39.924-69.958-104.53-86.596zm-82.973-130.979c23.256-.423 45.695-2.818 66.948-7.143-4.576 22.08-6.916 44.632-6.948 67.207-.08 47.792 9.77 94.664 32.455 143.637.999 2.154-.063 4.698-2.301 5.455-20.057 6.824-51.547 14.884-90.154 15.827zm-187.499-97.424c0-20.998 17.993-41.198 50.664-56.88 71.234-34.19 187.441-34.189 258.672 0 32.671 15.682 50.664 35.882 50.664 56.88 0 30.08-38.233 58.777-97.405 73.111-51.749 12.533-113.395 12.544-165.189 0-59.173-14.333-97.406-43.031-97.406-73.111zm282.477 320.784c9.869-3.345 16.643-13.627 9.548-29.355 8.322 3.913 27.915 14.975 30.435 23.572-.717 2.445-7.323 12.495-29.345 23.068-60.849 29.208-165.369 29.221-226.22 0-22.03-10.573-28.639-20.623-29.355-23.068 2.535-8.649 22.267-19.745 30.636-23.658-6.883 14.98-1.229 25.843 9.449 29.468 64.522 21.949 138.446 22.563 204.852-.027zm26.858 51.096c-71.234 34.19-187.441 34.189-258.672 0-32.671-15.682-50.664-35.882-50.664-56.88 0-27.99 33.077-54.749 85.311-69.884-2.559 8.949-5.528 17.84-8.873 26.579-5.622 2.063-11.011 4.307-16.033 6.713-23.026 11.051-37.905 25.414-37.905 36.592s14.879 25.541 37.904 36.591c30.981 14.877 74.572 23.409 119.596 23.409 45.02 0 88.614-8.532 119.606-23.409 23.02-11.052 37.894-25.415 37.894-36.591s-14.874-25.539-37.892-36.59c-4.924-2.366-10.224-4.577-15.766-6.614-3.391-8.859-6.393-17.767-8.976-26.633 52.131 15.143 85.134 41.88 85.134 69.837 0 20.998-17.993 41.199-50.664 56.88z"/></g></g></svg>