<svg id="Capa_1" enable-background="new 0 0 512.007 512.007" height="512" viewBox="0 0 512.007 512.007" width="512" xmlns="http://www.w3.org/2000/svg"><g><g><path d="m349.972 377.314c-39.608-8.395-75.118 22.412-74.359 61.283.532 27.248 7.339 50.352 25.573 65.91h112.954c0-52.141-25.231-98.387-64.168-127.193z" fill="#8b59c5"/><path d="m162.034 377.314c-38.937 28.806-64.169 75.052-64.169 127.193h112.955c26.936-17.653 32.203-46.793 23.709-83.227-7.416-31.817-39.54-52.384-72.495-43.966z" fill="#8b59c5"/><path d="m210.821 411.913v92.593h90.364v-92.593c-30.121-15.101-60.243-15.101-90.364 0z" fill="#a47cd1"/><path d="m142.445 43.539-22.189-9.488c-15.67 5.269-19.057 14.686-11.848 27.682l23.043 9.86c7.028 3.012 11.597 9.92 11.597 17.581v26.035c14.61 4.583 25.939-.517 30.121-24.047v-1.064c0-20.273-12.089-38.587-30.724-46.559z" fill="#4677d4"/><path d="m391.75 34.05-22.189 9.488c-32.635 13.961-30.693 47.521-30.724 47.622-2.386 24.096 8.868 30.711 30.121 24.047v-26.034c0-7.661 4.568-14.569 11.597-17.581l23.043-9.86c10.517-16.426 5.607-25.175-11.848-27.682z" fill="#7292df"/><path d="m414.14 225.884c0-77.556-55.673-141.702-128.853-155.411-96.14 90.468-111.601 244.429-29.009 351.196 87.256-.228 157.862-108.609 157.862-195.785z" fill="#60d9a7"/><path d="m235.367 232.54c6.935-63.221 25.242-119.736 49.92-162.067-9.492-1.778-19.277-2.726-29.285-2.726-87.72 0-158.137 71.177-158.137 158.137 0 87.525 71.059 196.071 158.413 195.785-20.264-49.151-28.883-116.446-20.911-189.129z" fill="#02cf7a"/><path d="m78.497 65.327c-15.292-6.546-22.39-24.248-15.844-39.539 6.536-15.292 24.238-22.39 39.539-15.844 15.385 6.585 22.355 24.338 15.844 39.539-6.542 15.276-24.244 22.39-39.539 15.844z" fill="#ff889e"/><path d="m409.813 9.943c15.302-6.546 33.003.552 39.539 15.844 6.546 15.292-.552 32.993-15.844 39.539-15.282 6.541-32.992-.556-39.539-15.844-6.511-15.202.459-32.954 15.844-39.539z" fill="#ffb2c1"/><path d="m308.715 143.05c0-12.48-10.111-22.591-22.591-22.591h-24.433c-17.326 12.899-20.894 28.147-14.237 45.182h38.67c12.465 0 22.591-10.101 22.591-22.591z" fill="#f5e277"/><path d="m225.881 120.459c-12.465 0-22.591 10.101-22.591 22.591 0 12.48 10.111 22.591 22.591 22.591h21.572c4.052-15.839 8.833-30.951 14.237-45.182z" fill="#f5c922"/><g fill="#495560"><path d="m288.263 336.359c6.637 9.83-8.233 25.071-28.655 25.071s-35.302-15.241-28.656-25.071c6.546-9.689 16.958-1.827 28.656-1.827 11.686-.001 22.108-7.862 28.655 1.827z"/><path d="m207.698 223.253c16.175 16.175 20.944 37.632 10.653 47.923-10.302 10.291-31.748 5.522-47.923-10.653-16.175-16.165-20.944-37.622-10.653-47.913 10.292-10.301 31.748-5.532 47.923 10.643z"/><path d="m352.231 212.61c10.291 10.291 5.522 31.748-10.653 47.913-16.175 16.175-37.622 20.944-47.923 10.653-10.291-10.291-5.522-31.748 10.653-47.923s37.631-20.944 47.923-10.643z"/></g></g><g><path d="m456.249 22.839c-8.173-19.115-30.259-27.973-49.387-19.791h-.001c-11.274 4.825-18.988 14.423-21.754 25.684-25.126 10.746-16.509 7.095-18.367 7.855-18.342 7.883-30.689 23.87-34.303 42.255-23.147-12.022-49.242-18.596-76.435-18.596-27.544 0-53.535 6.767-76.411 18.712-3.631-18.674-16.252-34.639-34.198-42.316-1.893-.803 6.849 2.929-18.496-7.91-2.767-11.264-10.483-20.86-21.754-25.684h-.001c-19.106-8.175-41.207.66-49.385 19.788-8.162 19.066.715 41.22 19.787 49.386 10.949 4.685 23.283 3.888 33.572-2.028l19.379 8.292c4.283 1.835 7.051 6.03 7.051 10.687v23.141c-27.996 29.676-45.185 69.653-45.185 113.573 0 50.612 22.726 108.824 60.609 150.564-39.747 32.663-60.609 79.994-60.609 128.056 0 4.143 3.357 7.5 7.5 7.5h38.979c4.143 0 7.5-3.357 7.5-7.5s-3.357-7.5-7.5-7.5h-31.29c2.157-42.682 22.632-82.878 55.938-109.774 12.526 11.91 26.448 22.016 41.831 29.437v80.337h-31.479c-4.143 0-7.5 3.357-7.5 7.5s3.357 7.5 7.5 7.5h242.298c4.143 0 7.5-3.357 7.5-7.5 0-48.262-21.015-95.495-60.574-128.029 38.185-42.127 60.576-101.008 60.576-150.591 0-14.287-1.825-28.477-5.426-42.176-1.053-4.006-5.154-6.398-9.16-5.348-4.006 1.053-6.4 5.154-5.348 9.16 3.273 12.456 4.934 25.363 4.934 38.364 0 70.36-46.677 151.972-108.459 179.156-.001 0-.002.001-.002.001-43.374 18.945-80.352 4.68-103.736-10.622-50.784-33.235-89.081-105.689-89.081-168.535 0-83.063 67.576-150.64 150.64-150.64 56.979 0 107.954 31.676 133.716 81.239 1.909 3.676 6.438 5.106 10.113 3.196s5.106-6.438 3.196-10.114c-7.215-13.88-16.191-26.432-26.57-37.449v-22.946c0-4.657 2.768-8.852 7.047-10.685l19.383-8.294c10.282 5.912 22.618 6.717 33.573 2.027 19.072-8.165 27.949-30.319 19.789-49.382zm-49.798 474.168h-97.767v-80.294c14.68-7.065 28.81-17.045 41.864-29.454 33.285 26.903 53.746 67.086 55.903 109.748zm-112.766-74.16v74.16h-75.363v-74.2c24.981 8.49 50.354 8.502 75.363.04zm-212.236-364.415c-11.47-4.91-16.808-18.23-11.899-29.696 4.875-11.405 18.109-16.852 29.692-11.897 11.617 4.972 16.768 18.33 11.9 29.691-4.911 11.466-18.231 16.808-29.693 11.902zm52.952 6.264-13.162-5.632c2.926-4.218 4.921-8.809 5.97-13.884 16.727 7.153 11.111 4.72 12.286 5.254 15.002 6.418 24.99 20.64 26.072 36.749-5.215 3.412-10.232 7.103-15.019 11.064v-9.075c0-10.665-6.336-20.271-16.147-24.476zm243.2.002c-9.807 4.202-16.143 13.809-16.143 24.474v8.906c-4.8-3.967-9.807-7.664-15.01-11.055 1.136-16.044 11.11-30.193 26.062-36.589 1.15-.527-4.188 1.791 12.287-5.255 1.048 5.068 3.04 9.66 5.97 13.885zm52.957-6.267c-11.467 4.904-24.783-.434-29.694-11.901-4.863-11.351.274-24.716 11.9-29.691 11.495-4.919 24.778.401 29.694 11.9 4.906 11.462-.432 24.783-11.9 29.692z"/><path d="m154.473 207.307c-15.51 15.509-5.467 42.412 10.652 58.52 16.365 16.364 43.208 25.957 58.53 10.652 13.422-13.423 8.742-39.132-10.653-58.529-16.169-16.17-43.059-26.132-58.529-10.643zm58.578 58.564c-6.31 6.304-23.188 3.48-37.321-10.652-9.397-9.391-19.389-28.567-10.648-37.308 8.646-8.656 27.72 1.052 37.313 10.646 14.134 14.134 16.958 31.01 10.656 37.314z"/><path d="m346.88 265.828c16.145-16.134 26.145-43.029 10.656-58.519-15.535-15.549-42.461-5.432-58.532 10.641-19.396 19.397-24.075 45.106-10.65 58.532 15.288 15.271 42.099 5.772 58.526-10.654zm-37.269-37.272c12.628-12.628 30.135-17.829 37.316-10.643 8.809 8.81-1.307 27.966-10.652 37.307-14.132 14.13-31.012 16.955-37.317 10.654-6.306-6.307-3.481-23.183 10.653-37.318z"/><path d="m259.607 368.93c15.116 0 29.649-7.48 35.341-18.19 3.379-6.359 3.208-13.131-.471-18.579-7.274-10.769-18.26-8.249-25.529-6.584-8.453 1.938-10.224 1.939-18.689-.001-7.268-1.666-18.248-4.182-25.52 6.582-3.682 5.445-3.857 12.216-.48 18.575 5.688 10.714 20.224 18.197 35.348 18.197zm-22.44-28.373c.663-.981 1.155-1.541 2.79-1.541 4.057 0 11.676 3.016 19.65 3.016 4.688 0 8.939-.975 12.691-1.834 7.905-1.811 8.546-1.421 9.748.358.203.301.742 1.099-.345 3.145-2.635 4.959-11.274 10.229-22.095 10.229-10.826 0-19.467-5.271-22.101-10.231-1.082-2.042-.543-2.839-.338-3.142z"/><path d="m286.124 173.141c16.593 0 30.092-13.499 30.092-30.091s-13.499-30.091-30.092-30.091h-60.242c-16.593 0-30.092 13.499-30.092 30.091s13.499 30.091 30.092 30.091zm-75.334-30.091c0-8.321 6.771-15.091 15.092-15.091h60.242c8.321 0 15.092 6.77 15.092 15.091s-6.771 15.091-15.092 15.091h-60.242c-8.322 0-15.092-6.77-15.092-15.091z"/></g></g></svg>