<svg id="Capa_1" enable-background="new 0 0 511.991 511.991" height="512" viewBox="0 0 511.991 511.991" width="512" xmlns="http://www.w3.org/2000/svg"><g><g><path d="m80.619 293.642c-15.418 0-27.943 12.5-27.943 27.943 0 45.031 32.149 82.532 74.741 90.826 16.545 3.724 20.89-3.297 15.686-18.638-12.328-35.297-34.037-70.227-59.201-100.13h-3.283z" fill="#ff889e"/><path d="m162.027 377.299c-5.549-33.09-22.498-63.639-51.618-83.657h-26.506c12.051 37.76 33.053 73.114 59.201 100.13 10.953 4.828 20.297 5.714 18.923-16.473z" fill="#f9496e"/><path d="m431.372 293.642h-3.305c-26.629 29.629-46.654 65.24-59.192 100.117-5.236 16.149-.239 22.624 15.698 18.651 42.638-8.3 74.741-45.833 74.741-90.826 0-15.431-12.51-27.942-27.942-27.942z" fill="#ffb2c1"/><path d="m428.067 293.642h-26.485c-62.77 21.407-64.71 109.223-32.707 100.117 27.051-27.937 47.451-63.369 59.192-100.117z" fill="#ff889e"/><path d="m414.132 504.491c-15.908 0-114.655 0-135.546 0l3.875-70.553c1.554-28.289 23.213-51.37 51.346-54.717l16.156-1.922c39.538 29.257 64.169 75.771 64.169 127.192z" fill="#60d9a7"/><path d="m162.027 377.299c-39.537 29.257-64.168 75.77-64.168 127.192h135.546l4.911-45.293c4.654-42.922-28.349-80.663-71.507-81.776z" fill="#60d9a7"/><path d="m192.45 402.109 40.955 102.382h45.182l40.955-102.382c-45.252-18.905-87.783-19.999-127.092 0z" fill="#02cf7a"/><path d="m88.453 151.585c-13.681-2.621-26.111-.182-34.29 7.997-17.079 17.069-9.167 52.672 17.661 79.51.499.499 1.011.965 1.516 1.451 11.222-27.897 17.463-57.434 15.113-88.958z" fill="#ff889e"/><path d="m111.935 160.546c-7.872-4.483-15.87-7.503-23.482-8.961-12.378 27.859-17.435 57.691-15.113 88.958 8.72 8.391 18.282 14.84 27.792 19.102 15.408-30.298 22.209-62.96 10.803-99.099z" fill="#f9496e"/><path d="m438.664 240.532c.5-.482 1.009-.945 1.504-1.439 26.828-26.838 34.74-62.441 17.661-79.51-8.182-8.182-20.616-10.62-34.301-7.995-2.602 27.458.358 57.59 15.136 88.944z" fill="#ffb2c1"/><path d="m410.859 259.645c9.515-4.264 19.081-10.717 27.804-19.114 2.407-31.788-3.143-61.852-15.136-88.945-7.609 1.459-15.604 4.478-23.472 8.959-12.457 32.227-5.955 65.541 10.804 99.1z" fill="#ff889e"/><path d="m414.132 225.869c0-55.976-29.303-106.829-76.237-135.305l-42.079-17.772c-22.52-5.848-46.287-6.62-69.144-2.334-62.443 88.34-73.063 200.813-10.587 289.129 46.656 20.463 96.504 20.109 149.382 0 29.098-37.322 48.665-87.615 48.665-133.718z" fill="#60d9a7"/><path d="m202.602 179.798c4.315-39.34 12.683-76.287 24.07-109.339-3.523.661-7.025 1.432-10.497 2.334l-42.079 17.772c-27.139 16.466-48.937 40.865-62.16 69.982-14.642 32.226-17.12 65.54-10.804 99.099 6.416 34.363 22.35 70.387 45.393 99.943h69.56c-15.245-50.132-20.824-112.865-13.483-179.791z" fill="#02cf7a"/><path d="m227.21 95.052c5.582 11.275.974 24.95-10.301 30.543-11.285 5.593-24.961.984-30.553-10.301-.499-1.008-36.413-73.457-37.12-74.882-5.594-11.329-.931-24.976 10.301-30.543 11.285-5.593 24.961-.984 30.553 10.301 4.56 9.198 31.525 63.596 37.12 74.882z" fill="#4677d4"/><path d="m362.756 40.412c-.709 1.429-36.618 73.871-37.12 74.882-5.593 11.285-19.268 15.894-30.553 10.301-11.275-5.593-15.884-19.268-10.301-30.543 5.532-11.159 32.584-65.733 37.12-74.882 5.593-11.285 19.268-15.894 30.553-10.301 11.229 5.566 15.896 19.212 10.301 30.543z" fill="#7292df"/><path d="m319.541 402.109v-.01c17.557-11.081 32.993-25.961 45.925-42.511-19.973-4.24-38.649-16.19-50.935-34.619-6.526-9.779-15.272-17.611-25.342-23.003-27.489-14.705-61.557-9.626-83.532 12.884-4.001 43.767 6.244 80.678 37.918 106.073 27.29 3.216 53.099-4.376 75.966-18.814z" fill="#f5e277"/><path d="m197.46 324.968c-11.948 17.922-30.312 30.202-50.935 34.619 12.934 16.554 28.371 31.432 45.925 42.511v.01c15.851 10.008 33.064 16.685 51.125 18.814-17.648-27.273-30.74-63.803-37.918-106.073-3.011 3.085-5.759 6.466-8.197 10.119z" fill="#f5c922"/><path d="m240.935 210.809c0-23.229-15.041-42.94-35.908-49.959-17.089 34.97-18.151 69.128-5.031 101.334 23.439-5.353 40.939-26.318 40.939-51.375z" fill="#efedff"/><path d="m202.602 179.798c.7-6.383 1.516-12.697 2.425-18.949-5.28-1.776-10.927-2.753-16.804-2.753-29.107 0-52.712 23.605-52.712 52.712s23.605 52.712 52.712 52.712c4.049 0 7.986-.472 11.774-1.337-1.297-26.275-.514-53.95 2.605-82.385z" fill="#d8d6ff"/><circle cx="323.768" cy="210.809" fill="#efedff" r="52.712"/></g><g><path d="m472.785 197.3c3.913-17.611.484-32.891-9.652-43.021-13.457-13.456-36.307-14.769-59.676-3.919-3.397-6.617-7.241-13.012-11.483-19.083-2.373-3.396-7.047-4.226-10.443-1.854s-4.226 7.048-1.854 10.443c5.345 7.652 9.712 15.406 13.555 23.79 18.787 41.357 16.494 85.032 1.292 127.456-7.793 21.755-18.877 42.247-32.107 59.988-17.036-4.763-31.704-15.38-41.648-30.296-14.486-21.705-38.701-34.663-64.774-34.663-26.074 0-50.289 12.958-64.776 34.666-9.916 14.874-24.584 25.488-41.648 30.285-13.228-17.74-24.309-38.229-32.101-59.981-15.233-42.508-17.466-86.166 1.288-127.45 11.724-25.61 29.589-46.697 52.355-62.229 4.831 9.746 8.366 16.877 8.521 17.19 0 .001 0 .002.001.002 7.418 14.972 25.559 21.148 40.604 13.689 14.958-7.418 21.1-25.626 13.689-40.593l-6.802-13.721c19.04-3.702 38.695-3.703 57.736 0l-6.803 13.724c-7.408 14.964-1.267 33.172 13.693 40.591 15.073 7.471 33.195 1.26 40.603-13.69.001 0 .001-.001.001-.002.155-.313 3.693-7.451 8.528-17.204 5.92 4.049 11.57 8.526 16.859 13.38 3.067 2.813 7.809 2.582 10.598-.455 2.8-3.052 2.597-7.797-.455-10.598-6.332-5.81-13.136-11.128-20.282-15.884.485-.978 21.778-43.932 21.875-44.128 7.394-14.972 1.25-33.178-13.695-40.584-14.972-7.421-33.186-1.276-40.604 13.69l-23.435 47.275c-23.51-5.181-47.992-5.18-71.501.001l-23.434-47.274c-7.417-14.969-25.635-21.112-40.604-13.691-14.945 7.406-21.089 25.612-13.691 40.591.358.724 21.82 44.02 21.87 44.12-23.764 15.781-42.871 37.185-55.837 62.505-43.607-20.26-78.904 3.899-69.342 46.935 6.21 27.953 29.323 54.472 55.234 67.463 1.462 7.051 3.312 14.179 5.555 21.379h-19.375c-19.544 0-35.443 15.899-35.443 35.443 0 44.06 28.914 82.585 70.135 95.465-16.848 27.004-24.956 57.648-24.956 87.441 0 4.143 3.357 7.5 7.5 7.5h46.92c4.143 0 7.5-3.357 7.5-7.5s-3.357-7.5-7.5-7.5h-39.23c2.156-42.64 22.606-82.81 55.876-109.722 7.907 7.497 16.257 14.147 24.943 19.82l35.963 89.902h-42.551c-4.143 0-7.5 3.357-7.5 7.5s3.357 7.5 7.5 7.5h234.356c4.143 0 7.5-3.357 7.5-7.5 0-30.054-8.233-60.649-24.949-87.441 41.22-12.88 70.132-51.404 70.132-95.465 0-19.544-15.899-35.443-35.443-35.443h-19.373c2.243-7.201 4.093-14.329 5.554-21.381 25.927-13.001 49.025-39.53 55.231-67.462zm-144.164-173.799c3.765-7.595 12.98-10.64 20.504-6.912 7.544 3.739 10.643 12.937 6.91 20.495-.736 1.485-36.794 74.222-37.118 74.88-3.746 7.557-12.941 10.657-20.501 6.912-7.553-3.746-10.653-12.94-6.914-20.493zm-172.661 13.59c-3.736-7.565-.638-16.763 6.906-20.502 7.56-3.747 16.758-.646 20.504 6.913 3.626 7.316 32.133 64.823 37.117 74.878 3.741 7.556.641 16.75-6.91 20.495-7.562 3.746-16.757.645-20.503-6.911-.288-.585-36.539-73.712-37.114-74.873zm296.567 127.796c6.382 6.378 8.376 16.733 5.615 29.16-4.554 20.497-20.228 39.798-37.551 51.545 3.097-28.67-.545-55.957-10.901-81.582 17.374-8.064 34.074-7.885 42.837.877zm-248.829 164.244c11.697-17.525 31.247-27.989 52.298-27.989 21.05 0 40.601 10.464 52.296 27.986 10.757 16.134 26.123 28.087 44.03 34.494-10.989 12.6-22.858 23.217-36.82 32.167-37.958 23.951-79.068 25.18-119.049-.033-13.067-8.247-25.515-19.219-36.79-32.147 17.932-6.431 33.302-18.378 44.035-34.478zm69.81 167.86h-35.025l-31.442-78.599c32.14 14.243 65.752 14.251 97.909 0zm-219.659-302.944c-2.761-12.427-.767-22.782 5.617-29.161 8.76-8.76 25.461-8.94 42.836-.876-10.357 25.625-13.998 52.912-10.899 81.584-17.642-11.963-33.068-31.354-37.554-51.547zm70.488 209.98c-37.441-9.435-64.161-43.382-64.161-82.442 0-11.272 9.171-20.443 20.443-20.443h24.573c10.924 28.602 26.734 54.476 45.699 75.356-9.869 8.123-18.796 17.388-26.554 27.529zm282.106 92.964h-116.779l35.96-89.895c8.688-5.675 17.041-12.326 24.949-19.826 33.266 26.907 53.714 67.078 55.87 109.721zm45.372-175.406c0 39.061-26.718 73.008-64.158 82.441-7.758-10.14-16.685-19.404-26.555-27.527 18.964-20.88 34.775-46.754 45.7-75.357h24.569c11.273 0 20.444 9.171 20.444 20.443z"/><path d="m188.222 150.596c-33.201 0-60.212 27.012-60.212 60.213s27.011 60.212 60.212 60.212 60.213-27.011 60.213-60.212-27.012-60.213-60.213-60.213zm0 105.425c-24.93 0-45.212-20.282-45.212-45.212 0-24.931 20.282-45.213 45.212-45.213 24.931 0 45.213 20.282 45.213 45.213 0 24.929-20.282 45.212-45.213 45.212z"/><path d="m323.769 150.596c-33.201 0-60.213 27.012-60.213 60.213s27.012 60.212 60.213 60.212 60.212-27.011 60.212-60.212-27.011-60.213-60.212-60.213zm0 105.425c-24.931 0-45.213-20.282-45.213-45.212 0-24.931 20.282-45.213 45.213-45.213 24.93 0 45.212 20.282 45.212 45.213 0 24.929-20.282 45.212-45.212 45.212z"/><path d="m188.222 196.401c-11.753 0-21.315 9.562-21.315 21.315 0 4.143 3.357 7.5 7.5 7.5s7.5-3.357 7.5-7.5c0-3.482 2.833-6.315 6.315-6.315s6.316 2.833 6.316 6.315c0 4.143 3.357 7.5 7.5 7.5s7.5-3.357 7.5-7.5c0-11.753-9.562-21.315-21.316-21.315z"/><path d="m323.769 196.401c-11.76 0-21.326 9.562-21.326 21.315 0 4.143 3.357 7.5 7.5 7.5s7.5-3.357 7.5-7.5c0-3.482 2.838-6.315 6.326-6.315 3.482 0 6.315 2.833 6.315 6.315 0 4.143 3.357 7.5 7.5 7.5s7.5-3.357 7.5-7.5c0-11.753-9.562-21.315-21.315-21.315z"/><path d="m276.307 344.608c2.723-3.121 2.399-7.859-.723-10.582-3.121-2.721-7.857-2.399-10.582.723-4.749 5.443-13.199 5.521-18.014 0-2.724-3.122-7.462-3.443-10.582-.723-3.122 2.724-3.445 7.461-.723 10.582 10.736 12.305 29.859 12.342 40.624 0z"/></g></g></svg>