<svg id="Capa_1" enable-background="new 0 0 512.001 512.001" height="512" viewBox="0 0 512.001 512.001" width="512" xmlns="http://www.w3.org/2000/svg"><g><g><path d="m386.968 357.107-27.34-35.653c-10.261-13.374-30.493-13.123-40.413.502-1.938 2.746.733-.391-21.567 24.408h-57.214c-29.648 27.64-38.145 69.372-14.028 104.85 8.733.358 17.205-.62 25.357-2.789 6.064-1.606 12.018 2.902 12.018 9.177v31.838c0 8.489 7.094 15.454 15.794 15.041 8.141-.384 14.328-7.441 14.328-15.462l30.121-52.893v-.01c9.173-6.139 15.061-16.658 15.061-28.294 3.233-15.091 13.715-18.665 20.342-19.368 2.611-.271 5.231.04 7.781.633 7.249 1.667 14.97-.904 19.83-6.998 5.783-7.261 5.582-17.623-.07-24.982z" fill="#efedff"/><path d="m240.435 346.364h-49.867c-21.878 0-39.74 17.716-39.74 39.74v21.988c0 8.946 2.681 17.701 7.701 25.121 4.93 7.289 7.36 15.994 7.36 24.81v31.386c0 8.33 6.74 15.091 15.091 15.091 8.303 0 15.03-6.727 15.03-15.03v-31.868c0-6.215 5.874-10.814 11.888-9.207 5.235 1.398 11.468 2.53 18.509 2.819-9.352-32.886-4.355-75.229 14.028-104.85z" fill="#d8d6ff"/><path d="m493.202 158.579c-16.834-18.753-51.468-34.765-97.017-45.625l-178.74-.006c-43 49.198-44.497 105.035 10.423 157.553 63.921 2.53 130.096-3.574 183.167-18.356 29.95-8.345 54.23-19.054 70.535-31.313 14.71-11.059 22.932-23.379 22.932-36.369-.001-9.017-3.962-17.71-11.3-25.884z" fill="#ffb2c1"/><path d="m217.445 112.948-101.598-.004c-65.424 15.593-108.346 41.809-108.346 71.518 0 27.39 36.497 51.808 93.466 67.682 37.535 10.454 81.654 16.565 126.901 18.356-16.584-49.048-18.956-105.247-10.423-157.552z" fill="#ff889e"/><path d="m373.865 206.772c21.396-3.554 35.804-23.836 31.918-45.172l-6.235-34.308c-12.721-70.262-74.675-121.148-146.378-119.762-51.981 59.593-71.396 137.762-37.828 207.769 50.334 2.503 107.171.026 158.523-8.527z" fill="#71ddfc"/><path d="m253.17 7.53c-69.467 1.342-128.34 51.574-140.687 119.762l-6.265 34.479c-3.835 21.105 10.181 41.407 31.306 45.071 23.067 4.004 48.975 7.022 77.818 8.456-8.838-68.604 3.85-147.145 37.828-207.768z" fill="#3ac8fb"/><path d="m321.283 327.608c10.03 10.542 13.273 23.746 7.239 29.479-6.024 5.733-19.047 1.827-29.077-8.725-.622-.663-1.225-1.325-1.787-2.008-8.605-10.161-11.105-22.099-5.452-27.471 5.311-5.06 16.065-2.621 25.412 5.271 1.256 1.054 2.481 2.209 3.665 3.454z" fill="#7292df"/><path d="m324.024 436.125v53.315c0 8.313-6.747 15.061-15.061 15.061-4.157 0-7.922-1.687-10.643-4.418-4.902-4.884-4.379-10.872-4.418-11.065 0-16.804 0-17.359 0-28.314 0-9.488 6.858-17.591 16.225-19.147.151-.03.301-.05.452-.08 4.951-.824 9.5-2.691 13.445-5.352z" fill="#d8d6ff"/><g fill="#efedff"><circle cx="338.834" cy="127.985" r="22.591"/><circle cx="256.001" cy="127.985" r="22.591"/><circle cx="173.167" cy="127.985" r="22.591"/></g></g><g><path d="m225.91 127.984c0 16.593 13.499 30.092 30.091 30.092s30.091-13.499 30.091-30.092c0-16.592-13.499-30.091-30.091-30.091s-30.091 13.5-30.091 30.091zm45.182 0c0 8.321-6.77 15.092-15.091 15.092s-15.091-6.771-15.091-15.092 6.77-15.091 15.091-15.091 15.091 6.77 15.091 15.091z"/><path d="m308.743 127.984c0 16.593 13.499 30.092 30.091 30.092s30.091-13.499 30.091-30.092c0-16.592-13.499-30.091-30.091-30.091s-30.091 13.5-30.091 30.091zm30.091-15.09c8.321 0 15.091 6.77 15.091 15.091s-6.77 15.092-15.091 15.092-15.091-6.771-15.091-15.092 6.769-15.091 15.091-15.091z"/><path d="m143.077 127.984c0 16.593 13.499 30.092 30.091 30.092s30.091-13.499 30.091-30.092c0-16.592-13.499-30.091-30.091-30.091s-30.091 13.5-30.091 30.091zm45.182 0c0 8.321-6.77 15.092-15.091 15.092s-15.091-6.771-15.091-15.092 6.77-15.091 15.091-15.091 15.091 6.77 15.091 15.091z"/><path d="m402.135 106.684c-9.686-30.446-28.646-57.121-54.684-76.447-3.324-2.469-8.023-1.773-10.492 1.553s-1.773 8.023 1.553 10.492c29.122 21.616 47.576 52.728 53.66 86.348l6.23 34.314c3.129 17.163-8.416 33.548-25.774 36.427-74.844 12.475-162.255 12.503-233.827.079-17.016-2.95-28.299-19.301-25.201-36.341l6.262-34.482c11.859-65.496 68.864-113.627 136.158-113.627 18.587 0 36.659 3.647 53.717 10.841 3.816 1.606 8.216-.181 9.825-3.997s-.181-8.215-3.997-9.824c-18.911-7.976-38.945-12.02-59.545-12.02-67.52 0-126.131 43.828-146.124 106.674-69.91 17.388-109.895 45.63-109.895 77.786 0 15.964 9.601 30.861 28.535 44.279 15.735 11.15 37.239 20.811 63.968 28.761l-39.696 245.805c-.66 4.089 2.119 7.939 6.209 8.6 4.073.659 7.937-2.106 8.6-6.209l39.434-244.18c12.224 3.131 25.202 5.88 38.724 8.178 4.109.697 7.961-2.077 8.65-6.137.694-4.084-2.053-7.957-6.137-8.65-16.037-2.727-31.28-6.088-45.305-9.991-55.092-15.348-87.982-37.947-87.982-60.455 0-22.942 34.39-45.952 90.615-61.178-.646 3.245-.106.499-6.775 37.146-4.592 25.246 12.172 49.431 37.396 53.802 73.993 12.845 163.34 12.526 238.852-.062 25.597-4.245 42.708-28.474 38.071-53.908-6.752-37.096-6.059-33.531-6.743-36.966 56.206 15.225 90.584 38.232 90.584 61.167 0 22.508-32.891 45.107-87.982 60.455-63.735 17.753-148.408 23.266-226.504 14.739-4.125-.446-7.818 2.525-8.27 6.643-.449 4.117 2.524 7.819 6.643 8.27 71.779 7.834 155.602 4.507 224.065-13.042l39.432 244.171c.596 3.685 3.779 6.306 7.396 6.306 4.644 0 8.147-4.152 7.413-8.696l-39.697-245.808c26.729-7.95 48.233-17.611 63.968-28.761 18.935-13.418 28.535-28.315 28.535-44.279.001-32.15-39.974-60.388-109.865-77.776z"/><path d="m365.578 316.888c-12.335-16.077-35.744-16.978-49.366-2.959-22.807-13.756-41.58 1.744-31.948 24.934h-93.697c-17.11 0-32.124 9.144-40.414 22.803-20.723 2.105-36.948 19.655-36.948 40.924v41.668c0 4.143 3.357 7.5 7.5 7.5s7.5-3.357 7.5-7.5v-41.668c0-10.71 6.478-19.932 15.72-23.964-.389 2.437-.598 4.933-.598 7.478v21.988c0 10.491 3.108 20.632 8.987 29.323 3.974 5.874 6.073 13 6.073 20.608v31.386c0 12.457 10.134 22.591 22.591 22.591 12.423 0 22.53-10.107 22.53-22.53v-31.868c0-1.293 1.199-2.296 2.453-1.961 16.181 4.322 32.595 4.059 47.722.034 1.299-.345 2.598.563 2.598 1.927v31.838c0 12.621 10.555 23.198 23.646 22.531 5.374-.253 10.22-2.409 13.948-5.804 4.145 3.756 9.448 5.833 15.087 5.833 12.439 0 22.561-10.121 22.561-22.561v-49.591c9.268-7.65 14.798-18.972 15.052-31.151 1.873-7.827 6.342-12.013 13.626-12.785 1.512-.157 3.248-.001 5.326.482 10.267 2.357 20.756-1.332 27.376-9.635 7.883-9.896 7.888-23.968.015-34.218zm-68.197 7.424c2.468-2.351 10.743 1.641 15.4 5.572.004.004.008.008.013.011 9.929 8.342 12.898 19.536 10.558 21.759-2.095 2.001-11.919-.633-19.97-10.147-6.952-8.209-7.616-15.66-6.001-17.195zm11.583 172.688c-4.118 0-7.561-3.347-7.561-7.561 0-10.345 0-16.064 0-28.735 0-5.85 4.187-10.79 9.955-11.749 1.886-.307 3.525-.68 5.166-1.152v41.636c0 4.169-3.391 7.561-7.56 7.561zm72.21-119.589c-2.988 3.748-7.697 5.418-12.268 4.37-3.707-.863-7.062-1.119-10.271-.786-13.964 1.481-23.763 10.687-26.885 25.255-.416 1.949.713 15.192-11.898 23.633-3.965 2.651-7.089 3.549-11.049 4.291-12.985 2.205-22.4 13.347-22.4 26.53v28.313c0 4.208-3.221 7.784-7.184 7.971-4.401.196-7.938-3.278-7.938-7.549v-31.838c0-11.17-10.577-19.302-21.447-16.425-12.66 3.369-26.402 3.603-40.002-.028-10.776-2.876-21.323 5.295-21.323 16.453v31.868c0 4.152-3.378 7.53-7.53 7.53-4.186 0-7.591-3.405-7.591-7.591v-31.386c0-10.615-2.99-20.647-8.648-29.013-4.194-6.201-6.412-13.435-6.412-20.919v-21.988c0-17.777 14.463-32.24 32.239-32.24h103.78c10.8 11.163 28.685 18.805 39.342 8.661 10.41-9.891 4.448-27.359-5.92-38.915 7.43-6.714 19.439-6.022 25.908 2.407l27.343 35.658c3.61 4.702 3.673 11.32.154 15.738z"/></g></g></svg>