<svg id="Capa_1" enable-background="new 0 0 512 512" height="512" viewBox="0 0 512 512" width="512" xmlns="http://www.w3.org/2000/svg"><g><g><path d="m466.848 256c0-111.86-87.111-203.358-197.194-210.396-77.751 122.782-88.911 281.739-6.021 421.093 112.911-4.021 203.215-96.805 203.215-210.697z" fill="#ffb2c1"/><path d="m269.654 45.604c-122.36-7.825-224.502 89.246-224.502 210.396 0 119.135 98.724 214.966 218.482 210.696-39.083-132.36-33.246-292.166 6.02-421.092z" fill="#ff889e"/><path d="m421.667 256c0-90.95-73.286-164.765-164.028-165.646-49.191 103.618-56.968 222.746-5.38 331.265 93.345 2.069 169.408-73.016 169.408-165.619z" fill="#efedff"/><path d="m257.639 90.354c-92.319-.899-167.306 73.657-167.306 165.646 0 90.247 72.156 163.629 161.925 165.619-22.362-105.396-19.479-225.032 5.381-331.265z" fill="#d8d6ff"/><path d="m305.76 299.314c28.816-7.078 48.134-20.121 48.134-35.031 0-12.038-12.601-22.862-32.621-30.302l-83.298-.193c-13.176 22.345-15.893 45.522-.189 70.45 22.034 1.723 46.343.38 67.974-4.924z" fill="#a47cd1"/><path d="m237.975 233.788-46.444-.108c-20.482 7.45-33.424 18.394-33.424 30.603 0 14.91 19.318 27.952 48.134 35.031 9.582 2.349 20.223 4.038 31.546 4.924-.963-22.963-.924-46.497.188-70.45z" fill="#8b59c5"/><path d="m97.864 225.879c16.637 0 30.121 13.484 30.121 30.121 0 16.626-13.494 30.121-30.121 30.121-6.738 0-52.387 0-60.242 0-16.638 0-30.122-13.484-30.122-30.121s13.484-30.121 30.121-30.121z" fill="#4677d4"/><path d="m474.379 225.879c16.637 0 30.121 13.484 30.121 30.121 0 16.626-13.494 30.121-30.121 30.121-17.036 0-29.024 0-60.242 0-16.637 0-30.121-13.484-30.121-30.121s13.484-30.121 30.121-30.121z" fill="#7292df"/><path d="m307.829 256.402c9.338-1.556 15.633-10.412 13.936-19.729-3.729-20.515-2.443-13.44-2.721-14.97-6.411-35.154-40.502-58.291-75.704-50.944-18.916 29.159-24.735 58.926-6.159 89.288 23.478 1.278 48.661.009 70.648-3.645z" fill="#f5e277"/><path d="m243.339 170.758c-24.939 5.205-44.916 25.039-49.63 50.944l-2.169 11.978h-.01l-.552 3.072c-1.677 9.217 4.438 18.083 13.665 19.679 9.685 1.679 20.522 2.96 32.537 3.614.422-29.883 2.484-59.744 6.159-89.287z" fill="#f5c922"/><path d="m286.121 474.379c0-34.323 0-25.628 0-60.242 0-16.637-13.484-30.121-30.121-30.121-3.618 0-7.086.639-10.3 1.808-5.922 43.772 3.466 81.73 28.399 112.633 7.301-5.497 12.022-14.235 12.022-24.078z" fill="#7292df"/><path d="m225.879 414.136v60.242c0 16.626 13.494 30.121 30.121 30.121 6.794 0 13.061-2.25 18.1-6.044-12.461-34.078-22.092-71.974-28.399-112.633-11.564 4.208-19.822 15.295-19.822 28.314z" fill="#4677d4"/><path d="m286.121 97.864v-5.331c0-18.922 0-44.017 0-54.911 0-7.543-2.779-14.433-7.36-19.717-28.905 26.821-38.491 63.626-28.801 109.473 18.758 3.823 36.161-10.533 36.161-29.514z" fill="#7292df"/><path d="m256 7.5c-16.637 0-30.121 13.484-30.121 30.121v60.242c0 14.572 10.357 26.717 24.081 29.514 7.049-38.837 16.803-75.571 28.801-109.473-5.522-6.37-13.668-10.404-22.761-10.404z" fill="#4677d4"/></g><g><path d="m474.379 218.379h-3.276c-8.643-49.722-34.38-95.016-72.969-128.121-3.146-2.7-7.88-2.334-10.576.809-2.697 3.145-2.335 7.879.809 10.576 35.276 30.262 59.026 71.452 67.501 116.736h-30.796c-14.464-65.398-65.935-116.961-131.45-131.45v-30.793c23.863 4.447 46.504 13.069 67.408 25.711 3.546 2.142 8.154 1.008 10.299-2.537 2.144-3.544 1.008-8.155-2.537-10.299-23.259-14.065-48.519-23.504-75.17-28.119v-3.272c-.001-20.743-16.878-37.62-37.622-37.62s-37.621 16.877-37.621 37.621v3.272c-44.381 7.679-84.641 28.578-116.774 60.711s-53.032 72.394-60.711 116.774h-3.272c-20.745.001-37.622 16.878-37.622 37.622s16.877 37.621 37.621 37.621h3.272c7.679 44.381 28.578 84.641 60.711 116.774s72.394 53.032 116.774 60.711v3.272c.001 20.745 16.878 37.622 37.622 37.622s37.621-16.877 37.621-37.621v-3.272c44.381-7.679 84.641-28.578 116.774-60.711s53.032-72.394 60.711-116.774h3.272c20.745-.001 37.622-16.878 37.622-37.622s-16.877-37.621-37.621-37.621zm-218.379-203.379c12.474 0 22.621 10.147 22.621 22.621 0 .1 0 62.716 0 60.242 0 12.474-10.147 22.621-22.621 22.621s-22.621-10.147-22.621-22.621c0-3.441 0 16.244 0-60.242 0-12.474 10.147-22.621 22.621-22.621zm-37.621 41.132v30.797c-65.398 14.464-116.961 65.935-131.45 131.45h-30.797c15.344-81.85 80.397-146.903 162.247-162.247zm-203.379 199.868c0-12.474 10.147-22.621 22.621-22.621 8.896.002 4.985.003 60.242 0 12.474 0 22.621 10.147 22.621 22.621s-10.147 22.621-22.621 22.621c-.875 0-51.292 0-60.242 0-12.474 0-22.621-10.147-22.621-22.621zm41.132 37.621h30.805c6.087 27.459 18.89 53.179 37.269 74.717 2.689 3.151 7.423 3.525 10.573.837 3.151-2.688 3.525-7.422.837-10.573-16.119-18.89-27.531-41.301-33.334-65.249 18.669-2.195 33.203-18.104 33.203-37.353 0-19.253-14.541-35.165-33.215-37.354 13.875-57.167 59.21-102.501 116.376-116.376 2.189 18.675 18.102 33.215 37.354 33.215s35.165-14.541 37.354-33.215c57.167 13.875 102.501 59.21 116.376 116.376-18.675 2.189-33.215 18.102-33.215 37.354s14.541 35.165 33.215 37.354c-13.875 57.167-59.21 102.501-116.376 116.376-2.189-18.675-18.102-33.215-37.354-33.215s-35.163 14.539-37.354 33.212c-21.238-5.157-41.426-14.79-58.829-28.148-3.289-2.522-7.994-1.901-10.517 1.384-2.521 3.286-1.902 7.994 1.384 10.517 19.947 15.307 43.237 26.146 67.695 31.577v30.811c-81.85-15.344-146.903-80.397-162.247-162.247zm199.868 203.379c-12.474 0-22.621-10.147-22.621-22.621 0-.1 0-62.716 0-60.242 0-12.474 10.147-22.621 22.621-22.621s22.621 10.147 22.621 22.621v60.242c0 12.474-10.147 22.621-22.621 22.621zm37.621-41.132v-30.797c65.398-14.464 116.961-65.935 131.45-131.45h30.797c-15.344 81.85-80.397 146.903-162.247 162.247zm180.758-177.247c-75.237 0-57.473 0-60.242 0-12.474 0-22.621-10.147-22.621-22.621s10.147-22.621 22.621-22.621c.556 0 60.96.004 60.242 0 12.474 0 22.621 10.147 22.621 22.621s-10.147 22.621-22.621 22.621z"/><path d="m195.434 304.104-17.672 35.123c-1.861 3.7-.371 8.209 3.329 10.071 3.73 1.875 8.222.344 10.071-3.329l19.143-38.046c28.353 5.947 62.267 6.109 91.391 0l19.143 38.046c1.863 3.701 6.372 5.19 10.071 3.329 3.7-1.862 5.19-6.371 3.329-10.071l-17.672-35.123c28.255-8.742 44.828-23.295 44.828-39.821 0-14.227-11.851-26.826-33.486-35.753l-1.486-8.174c-6.177-33.871-35.633-58.455-70.04-58.455-34.427 0-63.888 24.585-70.053 58.465l-1.416 7.824c-22.164 8.948-34.307 21.667-34.307 36.093-.001 16.526 16.571 31.078 44.827 39.821zm60.948-127.203c27.157 0 50.407 19.407 55.283 46.142-.024-.13 2.568 14.132 2.721 14.973.946 5.188-2.564 10.116-7.787 10.987-32.247 5.361-69.881 5.377-100.677.038-5.056-.874-8.508-5.751-7.562-10.962 3.504-19.291.245-1.342 2.728-15.034 4.866-26.737 28.12-46.144 55.294-46.144zm-72.595 68.252c2.054 9.148 9.408 16.909 19.576 18.668 32.613 5.653 72.147 5.554 105.697-.021 10.05-1.675 17.547-9.159 19.788-18.318 11.033 5.718 17.545 12.541 17.545 18.802 0 10.363-17.049 21.515-42.42 27.747-29.591 7.254-66.357 7.253-95.944.001-25.374-6.233-42.423-17.385-42.423-27.748 0-6.4 6.754-13.347 18.181-19.131z"/></g></g></svg>