<svg id="Layer_1" enable-background="new 0 0 512 512" height="512" viewBox="0 0 512 512" width="512" xmlns="http://www.w3.org/2000/svg"><g><g><path d="m415.713 197.554-105.371 6.446c-4.8.324-7.795-5.083-4.988-8.99 18.768-26.12 23.047-59.139 23.047-83.759 0-32.591-7.283-58.584-21.646-77.257-12.951-16.838-31.45-26.494-50.755-26.494-36.038 0-72.401 32.08-72.401 103.75 0 24.621 4.279 57.639 23.047 83.759 2.807 3.907-.188 9.314-4.988 8.99l-105.371-6.446c-1.329-.09-2.457.964-2.457 2.296v54.174c0 1.332 1.128 2.386 2.457 2.297l121.383-7.737c8.164-.552 14.824 6.443 13.872 14.57l-14.474 232.327c-.562 4.802 3.19 9.019 8.025 9.019h61.814c4.834 0 8.587-4.217 8.025-9.019l-14.474-232.327c-.951-8.127 5.709-15.122 13.872-14.57l121.384 7.737c1.329.09 2.457-.964 2.457-2.297v-54.173c-.001-1.332-1.128-2.386-2.458-2.296zm-159.713-149.72c19.545 0 39.266 14.635 39.266 63.416 0 38.867-11.688 60.175-22.883 71.671-8.826 9.063-23.399 9.367-32.348.425-.063-.063-.126-.126-.188-.189-15.121-15.247-23.113-40.112-23.113-71.906 0-35.15 12.141-63.417 39.266-63.417z" fill="#f1cd88"/></g><g><path d="m415.713 197.554-105.371 6.446c-4.8.324-7.795-5.083-4.988-8.99 18.768-26.12 23.047-59.139 23.047-83.759 0-32.591-7.283-58.584-21.646-77.257-12.951-16.838-31.45-26.494-50.755-26.494-3.446 0-6.895.296-10.315.889 15.579 2.723 30.049 11.71 40.736 25.604 14.363 18.674 21.646 44.667 21.646 77.257 0 24.621 2.139 63.755-23.047 83.759-6.794 5.396-24.897 18.791-24.897 68.144l14.474 232.327c.562 4.802-3.19 9.019-8.025 9.019h20.333c4.834 0 8.587-4.217 8.025-9.019l-14.474-232.327c-.951-8.127 5.709-15.122 13.872-14.57l121.384 7.737c1.329.09 2.457-.964 2.457-2.297v-54.173c.001-1.332-1.126-2.386-2.456-2.296z" fill="#eec06b"/></g><g><path d="m222.593 257.786c.674.708 1.765 2.234 1.5 4.496-.016.135-.028.27-.036.405l-4.889 78.472c-.258 4.134 2.885 7.694 7.019 7.952.159.01.316.015.474.015 3.929 0 7.23-3.059 7.478-7.034l1.337-21.46h15.524c4.142 0 7.5-3.358 7.5-7.5s-3.358-7.5-7.5-7.5h-14.589l2.606-41.831c.638-6.018-1.381-11.969-5.561-16.358-4.231-4.444-10.168-6.753-16.263-6.343l-82.725 5.273v-38.968l66.684 4.079c5.142.347 9.896-2.234 12.403-6.738 2.508-4.51 2.195-9.917-.818-14.111-17.884-24.89-21.638-56.907-21.638-79.383 0-47.911 20.068-96.252 64.901-96.252 16.957 0 33.29 8.589 44.81 23.566 9.914 12.889 16.235 29.851 18.786 50.414.51 4.11 4.261 7.029 8.366 6.519 4.111-.51 7.03-4.256 6.52-8.366-2.885-23.255-10.214-42.672-21.782-57.712-14.383-18.698-35.049-29.421-56.7-29.421-39.771 0-79.901 34.399-79.901 111.25 0 23.782 3.939 57.447 22.313 85.037l-101.619-6.216c-2.693-.184-5.378.772-7.354 2.619s-3.109 4.456-3.109 7.161v54.174c0 2.704 1.133 5.313 3.108 7.16 1.976 1.847 4.66 2.8 7.326 2.621l121.412-7.739c2.26-.152 3.743 1.011 4.417 1.719zm-121.263-52.41 18.139 1.11v40.842l-18.139 1.156z"/><path d="m256 40.334c-15.577 0-28.145 7.732-36.347 22.359-6.816 12.157-10.419 28.947-10.419 48.557 0 33.814 8.744 60.505 25.299 77.199l.201.201c5.644 5.639 13.151 8.737 21.161 8.737.07 0 .141 0 .211-.001 8.216-.056 15.905-3.335 21.65-9.234 20.671-21.225 25.01-53.536 25.01-76.903 0-64.005-32.705-70.915-46.766-70.915zm11.01 137.354c-2.924 3.002-6.833 4.671-11.006 4.699-4.04.048-7.834-1.516-10.656-4.335l-.177-.177c-13.698-13.813-20.938-36.852-20.938-66.625 0-13.117 2.291-55.916 31.766-55.916 20.485 0 31.766 19.858 31.766 55.916.001 37.297-11.286 56.716-20.755 66.438z"/><path d="m422.561 192.689c-1.976-1.847-4.651-2.799-7.306-2.622l-101.669 6.22c13.483-20.281 21.141-47.028 22.189-77.647.142-4.14-3.099-7.61-7.239-7.752-4.129-.139-7.611 3.099-7.752 7.239-.698 20.384-4.998 49.509-21.521 72.506-3.014 4.194-3.327 9.601-.818 14.111 2.505 4.504 7.259 7.089 12.355 6.741l67.145-4.108v39.02l-83.109-5.297c-6.124-.414-12.061 1.898-16.292 6.342-4.179 4.389-6.198 10.339-5.56 16.357l5.422 87.033h-16.287c-4.142 0-7.5 3.358-7.5 7.5s3.358 7.5 7.5 7.5h17.221l3.759 60.333h-12.313c-4.142 0-7.5 3.358-7.5 7.5s3.358 7.5 7.5 7.5h13.248l3.413 54.781c.008.136.021.271.036.406.008.064.03.258-.142.452-.174.196-.37.196-.434.196h-61.814c-.064 0-.26 0-.433-.194s-.15-.389-.143-.453c.016-.135.028-.27.036-.405l1.336-21.448h15.443c4.142 0 7.5-3.358 7.5-7.5s-3.358-7.5-7.5-7.5h-14.509l3.232-51.88h14.277c4.142 0 7.5-3.358 7.5-7.5s-3.358-7.5-7.5-7.5h-13.342l1.28-20.541c.258-4.134-2.885-7.694-7.019-7.952-4.119-.259-7.694 2.885-7.952 7.019l-7.707 123.701c-.44 4.334.96 8.67 3.861 11.93 2.954 3.319 7.196 5.223 11.639 5.223h61.814c4.443 0 8.686-1.904 11.64-5.224 2.901-3.26 4.3-7.597 3.86-11.932l-14.463-232.157c-.008-.136-.021-.271-.036-.406-.265-2.262.826-3.787 1.5-4.495s2.146-1.872 4.446-1.717l121.356 7.735c2.695.18 5.378-.773 7.353-2.62s3.108-4.456 3.108-7.16v-54.174c0-2.704-1.133-5.314-3.109-7.161zm-11.891 55.795-17.726-1.13v-40.894l17.726-1.084z"/></g></g></svg>