<svg id="Layer_1" enable-background="new 0 0 512 512" height="512" viewBox="0 0 512 512" width="512" xmlns="http://www.w3.org/2000/svg"><g><g><path d="m385.335 321.316h-258.67c-65.813 0-119.165-53.352-119.165-119.164 0-6.148 4.984-11.132 11.132-11.132h474.736c6.148 0 11.132 4.984 11.132 11.132 0 65.812-53.352 119.164-119.165 119.164z" fill="#62a4fb"/></g><g><path d="m363.885 279.068h-215.769c-45.609 0-82.582-36.973-82.582-82.582v-5.466h380.933v5.466c0 45.609-36.974 82.582-82.582 82.582z" fill="#e4b052"/></g><g><path d="m493.368 191.019h-30c6.148 0 11.132 4.984 11.132 11.132 0 65.813-53.352 119.165-119.165 119.165h30c65.813 0 119.165-53.352 119.165-119.165 0-6.148-4.984-11.132-11.132-11.132z" fill="#5392f9"/></g><g><path d="m416.467 191.019v5.466c0 45.609-36.973 82.582-82.582 82.582h30c45.609 0 82.582-36.973 82.582-82.582v-5.466z" fill="#dd9e32"/></g><g><path d="m160.019 134.97c20.385-5.365 38.704 10.008 43.833 28.932 3.529 13.019 2.372 26.586 2.538 39.908.118 9.467-.083 28.345 8.579 34.891 2.822 2.132 6.682 2.137 10.201 1.782 6.736-.679 12.847-.156 18.82 3.345 8.018 4.699 13.529 12.977 14.761 22.189 2.449 18.321-13.022 35.864-31.688 34.053-19.833-1.925-39.68-11.481-50.918-28.383-7.525-11.318-10.773-25.109-10.921-38.7-.187-17.214 4.436-33.922 9.346-50.27 2.038-6.785 4.641-15.813 1.457-22.574-2.613-5.548-8.015-8.339-13.854-9.218l-.174-.029c-.041-.011-.13-.016-.034-.042-4.405.544-8.417-2.586-8.962-6.993-.628-5.079 2.552-7.715 7.016-8.891z" fill="#0ab69f"/></g><g><path d="m359.982 134.97c-20.385-5.365-38.704 10.008-43.833 28.932-3.529 13.019-2.372 26.586-2.538 39.908-.118 9.467.083 28.345-8.579 34.891-2.822 2.132-6.682 2.137-10.201 1.782-6.736-.679-12.847-.156-18.82 3.345-8.018 4.699-13.529 12.977-14.761 22.189-2.449 18.321 13.022 35.864 31.688 34.053 19.833-1.925 39.68-11.481 50.918-28.383 7.525-11.318 10.773-25.109 10.921-38.7.187-17.214-4.436-33.922-9.346-50.27-2.038-6.785-4.641-15.813-1.457-22.574 2.613-5.548 8.015-8.339 13.854-9.218l.175-.029c.041-.011.13-.016.034-.042 4.405.544 8.417-2.586 8.962-6.993.626-5.079-2.553-7.715-7.017-8.891z" fill="#0ab69f"/></g><g><ellipse cx="260" cy="298.316" fill="#d82f3c" rx="79.791" ry="79.791" transform="matrix(.707 -.707 .707 .707 -134.789 271.223)"/></g><g><ellipse cx="260" cy="298.316" fill="#fb7079" rx="47.892" ry="47.892" transform="matrix(.873 -.489 .489 .873 -112.587 165.005)"/></g><g><path d="m260 250.424c-5.241 0-10.28.854-15 2.41 19.1 6.296 32.892 24.273 32.892 45.482s-13.792 39.187-32.892 45.483c4.72 1.556 9.759 2.41 15 2.41 26.45 0 47.892-21.442 47.892-47.892 0-26.451-21.442-47.893-47.892-47.893z" fill="#ea5c6b"/></g><g><path d="m493.368 183.519h-139.807c-.021 0-.042.003-.064.003-.293-.987-4.765-15.883-2.739-20.185 1.503-3.191 4.974-4.446 7.775-4.931 7.934.258 14.915-5.599 15.908-13.628 1.015-8.217-3.794-14.755-12.55-17.062-11.67-3.071-23.708-.762-33.9 6.503-9.112 6.495-16.067 16.599-19.082 27.719-1.958 7.222-2.601 14.45-2.786 21.58h-92.247c-.185-7.13-.828-14.358-2.786-21.58-3.014-11.12-9.969-21.224-19.081-27.719-10.19-7.265-22.229-9.575-33.901-6.503-8.755 2.306-13.563 8.844-12.549 17.063.992 8.028 7.948 13.874 15.908 13.626 2.802.485 6.273 1.74 7.775 4.931 2.026 4.302-2.445 19.196-2.738 20.182h-36.533c-4.142 0-7.5 3.358-7.5 7.5s3.358 7.5 7.5 7.5h32.391c-2.816 11.309-4.767 22.7-4.638 34.549.156 14.35 3.454 27.546 9.575 38.5h-19.184c-40.718 0-73.946-32.587-75.03-73.048h26.886c4.142 0 7.5-3.358 7.5-7.5s-3.358-7.5-7.5-7.5h-81.339c-10.274 0-18.632 8.359-18.632 18.633 0 69.843 56.822 126.665 126.665 126.665h51.546c12.397 33.136 44.38 56.792 81.789 56.792 48.133 0 87.291-39.159 87.291-87.292 0-3.984-.274-7.905-.793-11.749h17.387c48.991 0 88.971-39.313 90.056-88.048h39.427c2.002 0 3.632 1.629 3.632 3.632 0 61.572-50.092 111.665-111.665 111.665h-18.259c-4.142 0-7.5 3.358-7.5 7.5s3.358 7.5 7.5 7.5h18.259c69.843 0 126.665-56.821 126.665-126.665 0-10.274-8.358-18.633-18.632-18.633zm-169.981-17.655c3.987-14.71 18.375-27.932 34.684-23.641.792.209 1.255.424 1.499.564-.003.045-.008.096-.016.153-.037.295-.3.504-.6.47-.979-.121-1.943-.047-2.848.194-8.859 1.495-15.564 6.217-18.92 13.343-4.474 9.503-1.144 20.59 1.06 27.926 4.858 16.176 9.204 32.021 9.03 48.032-.125 11.493-2.622 21.954-7.248 30.571-5.161-11.81-12.861-22.264-22.407-30.671.121-.26.232-.527.325-.806 2.961-8.917 3.163-28.096 3.163-28.096.038-3.013-.048-12.878-.048-12.884s.163-17.176 2.326-25.155zm-108.112 57.518c-1.24-6.106-1.403-23.12-1.393-24.863h92.235c.01 1.742-.152 18.757-1.393 24.863-13.089-7.842-28.389-12.357-44.725-12.357-16.335 0-31.635 4.515-44.724 12.357zm-51.381-79.778c-.904-.241-1.867-.316-2.849-.195-.303.039-.563-.175-.6-.468-.007-.058-.012-.109-.016-.154.244-.14.706-.355 1.498-.564 16.304-4.29 30.698 8.931 34.686 23.641 2.482 9.157 2.392 18.823 2.296 29.057-.027 2.935-.003 10.282-.003 10.282.075 7.121.188 17.88 3.148 26.797.093.279.203.546.324.806-9.546 8.407-17.246 18.861-22.407 30.671-4.627-8.617-7.123-19.078-7.248-30.571-.174-16.014 4.172-31.857 9.03-48.031 2.204-7.337 5.534-18.424 1.059-27.927-3.355-7.127-10.06-11.849-18.918-13.344zm-37.229 170.212c-61.572 0-111.665-50.092-111.665-111.664 0-2.003 1.629-3.632 3.632-3.632h39.427c1.085 48.736 41.065 88.048 90.056 88.048h25.387c-.519 3.844-.793 7.765-.793 11.749 0 5.288.473 10.468 1.379 15.5h-47.423zm133.335 56.792c-39.861 0-72.291-32.43-72.291-72.292 0-39.861 32.43-72.291 72.291-72.291 39.862 0 72.291 32.43 72.291 72.291 0 39.862-32.429 72.292-72.291 72.292zm103.885-99.04h-11.184c6.12-10.953 9.418-24.149 9.575-38.5.129-11.847-1.822-23.238-4.638-34.549h81.278c-1.085 40.462-34.313 73.049-75.031 73.049z"/><path d="m260 242.924c-30.543 0-55.392 24.849-55.392 55.392s24.849 55.392 55.392 55.392 55.393-24.849 55.393-55.392-24.85-55.392-55.393-55.392zm0 95.784c-22.273 0-40.392-18.12-40.392-40.392 0-22.273 18.12-40.392 40.392-40.392s40.393 18.12 40.393 40.392c0 22.273-18.121 40.392-40.393 40.392z"/></g></g></svg>