<svg id="Layer_1" enable-background="new 0 0 512.006 512.006" height="512" viewBox="0 0 512.006 512.006" width="512" xmlns="http://www.w3.org/2000/svg"><g><g><path d="m256.003 110.173-157.64 46.755v293.56l29.424 28.697c83.792-24.005 172.64-24.005 256.432 0l29.424-28.697v-293.56z" fill="#8c818f"/></g><g><path d="m353.643 203.22v222.115c0 16.083-6.493 31.485-18.007 42.714 16.332 2.836 32.55 6.542 48.583 11.135l29.424-28.697v-247.267z" fill="#7a6d79"/></g><g><path d="m256.003 7.5c-103.755 0-187.864 84.109-187.864 187.863v243.171c0 23.724 10.483 46.235 28.641 61.504 12.272 10.319 31.007 1.595 31.007-14.439v-263.109h256.432v263.109c0 16.034 18.735 24.758 31.007 14.439 18.158-15.268 28.641-37.78 28.641-61.504v-243.17c0-103.755-84.11-187.864-187.864-187.864z" fill="#c8c3ca"/></g><g><path d="m256.003 7.5c-5.05 0-10.051.205-15 .596 96.74 7.643 172.864 88.563 172.864 187.268v243.17c0 22.362-9.317 43.643-25.593 58.8 6.192 7.736 18.209 10.054 26.952 2.703 18.158-15.268 28.641-37.78 28.641-61.503v-243.17c0-103.755-84.11-187.864-187.864-187.864z" fill="#b1abb4"/></g><g><path d="m443.867 222.49v-27.126c0-18.69-2.743-36.737-7.825-53.776h-360.078c-5.082 17.039-7.825 35.086-7.825 53.776v27.126h59.648 256.432z" fill="#eac881"/></g><g><path d="m436.042 141.587h-30c5.082 17.039 7.825 35.086 7.825 53.776v27.126h30v-27.126c0-18.69-2.743-36.737-7.825-53.776z" fill="#e4b052"/></g><g><path d="m235.539 134.252h45.165v88.238h-45.165z" fill="#037e73"/></g><g><path d="m287.016 78.568c-20.429-4.517-41.598-4.517-62.027 0-11.294 2.497-21.05 9.562-26.947 19.513-7.336 12.38-7.791 27.663-1.204 40.458l12.615 24.505c7.169 13.925 21.518 22.677 37.18 22.677h9.369 9.369c15.662 0 30.011-8.752 37.18-22.677l12.615-24.505c6.587-12.795 6.132-28.077-1.204-40.458-5.896-9.951-15.651-17.016-26.946-19.513z" fill="#5de1c4"/></g><g><path d="m313.963 98.081c-5.897-9.951-15.652-17.016-26.947-19.513-15.132-3.346-30.67-4.207-46.013-2.596 5.37.564 10.717 1.425 16.013 2.596 11.294 2.497 21.05 9.562 26.947 19.513 7.336 12.38 7.791 27.663 1.204 40.458l-12.615 24.505c-6.299 12.236-18.143 20.472-31.549 22.292 1.851.251 3.731.385 5.631.385h9.369 9.369c15.662 0 30.011-8.752 37.18-22.677l12.615-24.505c6.587-12.795 6.132-28.077-1.204-40.458z" fill="#0ab69f"/></g><g><path d="m443.867 313.835c4.142 0 7.5-3.358 7.5-7.5v-110.971c0-107.724-87.639-195.364-195.364-195.364s-195.364 87.64-195.364 195.363v243.171c0 26.001 11.414 50.51 31.314 67.244 4.886 4.109 10.846 6.228 16.899 6.228 3.775-.001 7.589-.825 11.198-2.506 9.398-4.376 15.236-13.534 15.236-23.901v-.71c95.974-26.368 188.684-16.631 241.432 0v.71c0 10.367 5.838 19.525 15.235 23.901 3.611 1.682 7.423 2.506 11.199 2.506 6.053-.001 12.014-2.12 16.899-6.228 19.9-16.733 31.314-41.243 31.314-67.244v-102.199c0-4.142-3.358-7.5-7.5-7.5-4.143 0-7.5 3.358-7.5 7.5v102.199c0 21.561-9.465 41.886-25.969 55.763-3.472 2.919-8 3.519-12.112 1.604s-6.567-5.767-6.567-10.303v-255.608h44.648v76.346c.002 4.142 3.36 7.499 7.502 7.499zm-93.811-98.845 38.627-56.29 38.626 56.29zm-267.177 0 39.46-56.453 39.46 56.453zm-7.24-19.627c0-15.993 2.103-31.501 6.028-46.276h28.975l-35.004 50.077v-3.801zm360.728.001v6.317l-36.09-52.593h30.061c3.926 14.774 6.029 30.283 6.029 46.276zm-118.195-46.277h58.916l-39.107 56.989-28.341-40.416zm-9.673-13.981-12.615 24.505c-5.909 11.479-17.601 18.609-30.512 18.609h-18.738c-12.91 0-24.602-7.131-30.512-18.609l-12.615-24.505c-5.439-10.566-5.07-22.978.988-33.202 4.82-8.135 12.881-13.972 22.113-16.013 9.615-2.126 19.505-3.189 29.395-3.189s19.779 1.063 29.395 3.189c9.232 2.042 17.293 7.878 22.113 16.014 6.057 10.224 6.427 22.635.988 33.201zm-114.665 13.981 8.532 16.574-28.418 40.526-39.912-57.1zm17.758 29.544c4.692 4.75 10.288 8.476 16.447 10.974v25.385h-41.944zm31.447 14.459c1.765.669 27.602-.085 30.165-.493v22.393h-30.165zm45.165-5.438c4.499-2.345 8.618-5.384 12.21-9.021l25.496 36.358h-37.706zm-32.201-172.652c77.95 0 144.502 49.708 169.64 119.087h-100.585c4.162-13.23 2.595-27.614-4.643-39.829-6.927-11.691-18.51-20.079-31.779-23.014-21.348-4.721-43.918-4.72-65.266 0-13.27 2.935-24.853 11.322-31.779 23.013-7.238 12.215-8.805 26.599-4.643 39.83h-100.585c25.138-69.379 91.69-119.087 169.64-119.087zm120.716 454.353c-29.15-7.696-58.821-12.564-88.632-14.595v-54.704c0-4.142-3.357-7.5-7.5-7.5s-7.5 3.358-7.5 7.5v53.921c-9.063-.328-18.133-.388-27.199-.193v-22.84c0-4.142-3.358-7.5-7.5-7.5-4.143 0-7.5 3.358-7.5 7.5v23.391c-6.281.335-12.556.807-18.824 1.393v-159.2c0-4.142-3.357-7.5-7.5-7.5s-7.5 3.358-7.5 7.5v160.839c-20.76 2.611-41.396 6.608-61.776 11.988v-162.18c0-4.142-3.357-7.5-7.5-7.5s-7.5 3.358-7.5 7.5v178.425c0 4.536-2.455 8.388-6.567 10.303s-8.642 1.315-12.112-1.604c-16.504-13.877-25.969-34.202-25.969-55.763v-208.544h44.648v47.184c0 4.142 3.357 7.5 7.5 7.5s7.5-3.358 7.5-7.5v-47.184h241.432v239.363z"/><path d="m284.256 110.585c-4.268 3.214-7.95 7.086-10.947 11.511-2.323 3.429-1.427 8.093 2.003 10.416 1.288.873 2.751 1.292 4.199 1.292 2.404 0 4.767-1.154 6.216-3.294 2.068-3.053 4.609-5.725 7.553-7.941 3.309-2.492 3.971-7.194 1.479-10.503-2.492-3.31-7.193-3.973-10.503-1.481z"/><path d="m227.75 110.585c-3.309-2.491-8.01-1.829-10.503 1.479-2.491 3.309-1.829 8.011 1.479 10.503 2.943 2.217 5.484 4.889 7.553 7.941 1.45 2.141 3.812 3.294 6.216 3.294 1.447 0 2.911-.418 4.199-1.292 3.43-2.323 4.326-6.987 2.003-10.416-2.997-4.423-6.679-8.296-10.947-11.509z"/></g></g></svg>