<svg id="Layer_1" enable-background="new 0 0 512.076 512.076" height="512" viewBox="0 0 512.076 512.076" width="512" xmlns="http://www.w3.org/2000/svg"><g><g><path d="m166.254 295.639v167.369h-22.422s-5.366-32.194-20.519-50.591c-10.026-12.172-12.797-28.805-6.433-43.233 10.514-23.839 22.098-60.555 22.098-106.612z" fill="#c8c3ca"/></g><g><path d="m504.576 170.101c-85.258 0-132.396-25.528-177.982-46.256-39.729-18.064-77.254-35.127-140.574-35.127-31.918 0-79.331 3.925-123.95 22.624-26.62 11.156-39.82 22.464-39.95 22.577l.094-.083-14.714-17.976c2.53-2.252 51.783-66.792 178.521-66.792 71.912 0 115.16 19.665 156.985 38.683 43.663 19.853 84.904 53.564 161.57 53.564z" fill="#d9d9d9"/></g><g><path d="m386.679 222.88s-89.203 71.944-185.734 71.944c-82.565 0-159.77-52.633-180.381-67.863-3.034-2.242-3.034-5.922 0-8.164 20.611-15.229 97.815-67.863 180.381-67.863 96.531.001 185.734 71.946 185.734 71.946z" fill="#f7f7f7"/></g><g><circle cx="200.945" cy="222.88" fill="#a29aa5" r="70.513"/></g><g><circle cx="200.945" cy="222.88" fill="#4b454d" r="30.171"/></g><g><path d="m200.945 150.935c-5.041 0-10.061.199-15.05.571 50.51 3.741 97.787 25.498 129.734 44.018 20.988 12.167 20.988 42.544 0 54.711-31.947 18.52-79.223 40.277-129.734 44.018 4.989.372 10.009.571 15.05.571 96.531 0 185.734-71.944 185.734-71.944s-89.203-71.945-185.734-71.945z" fill="#e8e8e8"/></g><g><path d="m200.945 152.367c-5.149 0-10.164.567-15 1.615 31.735 6.878 55.513 35.104 55.513 68.898s-23.779 62.021-55.513 68.898c4.836 1.048 9.851 1.615 15 1.615 38.943 0 70.513-31.57 70.513-70.513s-31.569-70.513-70.513-70.513z" fill="#8c818f"/></g><g><path d="m200.945 192.709c-5.462 0-10.581 1.459-15 3.997 9.063 5.205 15.171 14.973 15.171 26.174s-6.108 20.969-15.171 26.174c4.419 2.538 9.538 3.997 15 3.997 16.663 0 30.171-13.508 30.171-30.171s-13.508-30.171-30.171-30.171z" fill="#3f3a40"/></g><g><path d="m200.946 185.209c-20.772 0-37.671 16.899-37.671 37.671s16.899 37.671 37.671 37.671 37.671-16.899 37.671-37.671-16.899-37.671-37.671-37.671zm0 60.342c-12.501 0-22.671-10.17-22.671-22.671s10.17-22.671 22.671-22.671 22.671 10.17 22.671 22.671c-.001 12.501-10.17 22.671-22.671 22.671z"/><path d="m504.576 133.815c-57.645 0-93.76-19.224-128.686-37.815-10.183-5.42-19.8-10.539-29.78-15.077-42.552-19.348-86.553-39.356-160.09-39.356-110.501 0-164.889 47.723-183.144 68.241-.253.285-.449.507-.588.658-2.795 2.698-3.074 7.112-.592 10.144l13.887 16.964c.245.437.538.855.879 1.248 2.698 3.112 7.41 3.46 10.544.786.125-.107 12.831-10.818 37.964-21.351 17.421-7.301 36.788-12.884 57.564-16.593 4.078-.728 6.793-4.624 6.065-8.701-.728-4.078-4.624-6.794-8.702-6.065-21.859 3.903-42.29 9.799-60.726 17.525-17.278 7.241-29.108 14.528-35.701 19.105l-6.033-7.369c19.723-20.457 70.327-59.592 168.582-59.592 70.287 0 112.784 19.323 153.881 38.01 9.554 4.344 18.971 9.356 28.94 14.663 33.408 17.783 71.088 37.84 128.234 39.467v13.825c-71.668-1.289-114.242-20.975-155.457-40.035-4.001-1.85-7.967-3.684-11.924-5.483-40.488-18.41-78.731-35.798-143.675-35.798-12.219 0-24.479.565-36.439 1.68-4.124.384-7.156 4.04-6.771 8.164s4.04 7.157 8.164 6.772c11.499-1.072 23.291-1.616 35.047-1.616 61.694 0 98.499 16.735 137.469 34.455 3.925 1.785 7.862 3.605 11.833 5.442 42.051 19.446 89.713 41.487 169.253 41.487 4.142 0 7.5-3.358 7.5-7.5v-28.785c.002-4.142-3.356-7.5-7.498-7.5z"/><path d="m486.475 242.429c-.281.219-7.054 5.376-21.828 5.125-25.7-.442-54.099-16.894-73.455-30.669-2.39-1.907-24.339-19.162-57.703-36.623-58.16-30.438-104.179-36.827-132.544-36.827-84.445 0-162.826 53.066-184.838 69.331-3.38 2.497-5.318 6.184-5.318 10.113-.001 3.93 1.938 7.616 5.318 10.114 15.6 11.527 59.517 41.534 113.836 58.04-3.553 32.735-12.74 58.833-19.926 75.124-7.427 16.839-4.55 36.392 7.506 51.028 13.666 16.591 18.86 46.758 18.91 47.056.603 3.616 3.732 6.267 7.398 6.267h22.422c4.142 0 7.5-3.358 7.5-7.5v-162.443c8.95 1.133 18.035 1.759 27.191 1.759 13.913 0 28.241-1.426 42.926-4.258l113.971 142.13c9.796 12.216 23.763 19.887 39.329 21.599 2.181.24 4.357.359 6.52.359 13.273 0 26.058-4.472 36.562-12.896 10.086-8.088 16.419-19.619 17.832-32.469 1.413-12.851-2.263-25.482-10.351-35.568-6.721-8.381-16.303-13.644-26.981-14.818-10.68-1.175-21.175 1.88-29.557 8.601-3.231 2.591-3.75 7.311-1.159 10.543 2.592 3.231 7.311 3.751 10.543 1.159 5.256-4.214 11.838-6.129 18.534-5.393s12.705 4.036 16.919 9.292c5.581 6.96 8.118 15.677 7.143 24.545s-5.346 16.825-12.306 22.406c-9.09 7.29-20.474 10.603-32.059 9.329-11.583-1.273-21.977-6.982-29.266-16.072l-109.398-136.428c19.722-5.098 40.029-12.637 60.789-22.593 3.735-1.791 5.31-6.271 3.52-10.006-1.793-3.735-6.272-5.311-10.006-3.519-20.971 10.057-41.392 17.522-61.115 22.369 15.732-14.282 25.626-34.885 25.626-57.756 0-22.822-9.852-43.385-25.524-57.664 55.571 13.76 102.739 44.753 120.74 57.677-7.043 5.079-18.552 12.934-33.267 21.413-3.589 2.068-4.822 6.654-2.754 10.243 2.069 3.59 6.655 4.821 10.243 2.754 18.443-10.627 31.921-20.215 38.499-25.132 34.921 23.906 60.947 30.325 78.808 30.325 19.802 0 29.579-7.876 30.337-8.515l-9.668-11.469zm-458.782-19.549c18.553-13.394 65.399-44.153 120.868-57.759-15.733 14.282-25.628 34.887-25.628 57.759s9.895 43.477 25.628 57.759c-55.47-13.607-102.315-44.365-120.868-57.759zm131.061 232.628h-8.794c-2.448-10.795-8.672-33.065-20.858-47.859-8.432-10.237-10.486-23.816-5.36-35.438 10.685-24.226 17.688-50.151 20.843-77.138 4.666 1.155 9.391 2.199 14.169 3.109zm105.205-232.628c0 34.745-28.268 63.013-63.013 63.013s-63.013-28.268-63.013-63.013c0-34.746 28.268-63.013 63.013-63.013s63.013 28.267 63.013 63.013z"/></g></g></svg>