<svg id="Layer_1" enable-background="new 0 0 511.258 511.258" height="512" viewBox="0 0 511.258 511.258" width="512" xmlns="http://www.w3.org/2000/svg"><g><g><path d="m52.167 68.395h-14.129c-11.355 0-20.559-9.205-20.559-20.559 0-11.355 9.205-20.559 20.559-20.559h14.129z" fill="#b27a49"/></g><g><path d="m52.167 484.499h-14.129c-11.355 0-20.559-9.205-20.559-20.56 0-11.355 9.205-20.559 20.559-20.559h14.129z" fill="#b27a49"/></g><g><path d="m459.091 68.395h14.129c11.355 0 20.559-9.205 20.559-20.559 0-11.355-9.205-20.559-20.559-20.559h-14.129z" fill="#b27a49"/></g><g><path d="m459.091 484.499h14.129c11.355 0 20.559-9.205 20.559-20.56 0-11.355-9.205-20.559-20.559-20.559h-14.129z" fill="#b27a49"/></g><g><path d="m92.474 87.655h-24.86c-8.531 0-15.446-6.916-15.446-15.447v-49.261c0-8.531 6.916-15.447 15.446-15.447h24.86z" fill="#e4b052"/></g><g><path d="m92.474 503.758h-24.86c-8.531 0-15.446-6.916-15.446-15.447v-49.261c0-8.531 6.916-15.447 15.446-15.447h24.86z" fill="#e4b052"/></g><g><path d="m418.784 87.655h24.86c8.531 0 15.447-6.916 15.447-15.447v-49.261c0-8.531-6.916-15.447-15.447-15.447h-24.86z" fill="#e4b052"/></g><g><path d="m418.784 503.758h24.86c8.531 0 15.447-6.916 15.447-15.447v-49.261c0-8.531-6.916-15.447-15.447-15.447h-24.86z" fill="#e4b052"/></g><g><path d="m92.474 27.276h326.31v41.119h-326.31z" fill="#c48958"/></g><g><path d="m92.474 444.121h326.31v41.119h-326.31z" fill="#c48958"/></g><g><path d="m418.784 444.121h-326.31v-230.864c0-5.329.838-10.625 2.483-15.694l1.823-5.617c3.448-10.625 3.301-22.089-.418-32.622l-.986-2.793c-1.92-5.437-2.901-11.162-2.901-16.928v-71.208h326.31v230.035c0 6.224-1.143 12.395-3.372 18.206-4.051 10.562-4.464 22.173-1.173 32.996l2.346 7.714c1.458 4.795 2.199 9.779 2.199 14.79v71.985z" fill="#ffeed2"/></g><g><path d="m388.784 27.276h30v41.119h-30z" fill="#b27a49"/></g><g><path d="m388.784 444.121h30v41.119h-30z" fill="#b27a49"/></g><g><path d="m415.413 316.636c2.229-5.811 3.371-11.982 3.371-18.206v-230.035h-30v230.035c0 6.224-1.143 12.395-3.371 18.206-4.051 10.562-4.464 22.173-1.173 32.996l2.345 7.714c1.458 4.795 2.199 9.779 2.199 14.79v71.985h30v-71.985c0-5.011-.741-9.995-2.199-14.79l-2.345-7.714c-3.291-10.823-2.878-22.434 1.173-32.996z" fill="#f4daa7"/></g><g><path d="m473.22 435.88h-6.853c-1.55-11.157-11.146-19.776-22.722-19.776h-17.36v-43.967c0-5.755-.849-11.465-2.523-16.972l-2.346-7.714c-2.792-9.179-2.436-19.169.999-28.127 2.568-6.693 3.87-13.722 3.87-20.893v-203.276h17.36c11.397 0 20.877-8.354 22.646-19.26h6.929c15.472 0 28.06-12.587 28.06-28.059s-12.588-28.059-28.06-28.059h-6.853c-1.549-11.158-11.146-19.777-22.722-19.777h-24.86c-4.143 0-7.5 3.358-7.5 7.5v12.276h-101.34c-4.142 0-7.5 3.358-7.5 7.5s3.358 7.5 7.5 7.5h101.34v26.119h-311.311v-26.119h179.971c4.143 0 7.5-3.358 7.5-7.5s-3.357-7.5-7.5-7.5h-179.971v-12.276c0-4.142-3.357-7.5-7.5-7.5h-24.86c-11.577 0-21.173 8.619-22.723 19.776h-6.853c-15.472 0-28.06 12.587-28.06 28.059s12.588 28.059 28.06 28.059h6.929c1.769 10.906 11.249 19.26 22.646 19.26h17.36v44.449c0 6.633 1.12 13.169 3.329 19.425l.986 2.794c3.153 8.927 3.279 18.803.356 27.809l-1.822 5.615c-1.891 5.825-2.85 11.885-2.85 18.01v61.292c0 4.142 3.358 7.5 7.5 7.5 4.143 0 7.5-3.358 7.5-7.5v-61.292c0-4.55.712-9.051 2.117-13.379l1.822-5.616c3.935-12.123 3.764-25.418-.479-37.434l-.986-2.793c-1.642-4.648-2.474-9.504-2.474-14.431v-63.708h311.311v222.535c0 5.327-.967 10.548-2.875 15.521-4.625 12.06-5.103 25.507-1.346 37.864l2.346 7.714c1.244 4.091 1.875 8.333 1.875 12.608v64.485h-311.309v-132.073c0-4.142-3.357-7.5-7.5-7.5-4.142 0-7.5 3.358-7.5 7.5v111.555h-17.36c-11.576 0-21.173 8.619-22.722 19.776h-6.853c-15.472 0-28.06 12.587-28.06 28.06 0 15.472 12.588 28.059 28.06 28.059h6.929c1.769 10.906 11.249 19.259 22.646 19.259h24.86c4.143 0 7.5-3.358 7.5-7.5v-11.018h311.311v11.018c0 4.142 3.357 7.5 7.5 7.5h24.86c11.397 0 20.877-8.354 22.646-19.259h6.929c15.472 0 28.06-12.587 28.06-28.059 0-15.473-12.588-28.06-28.06-28.06zm-6.629-401.104h6.629c7.201 0 13.06 5.858 13.06 13.059s-5.858 13.059-13.06 13.059h-6.629zm-40.307-19.776h17.36c4.382 0 7.946 3.565 7.946 7.946v4.33 41.119 3.814c0 4.382-3.564 7.946-7.946 7.946h-17.36zm-381.617 45.895h-6.629c-7.201 0-13.06-5.858-13.06-13.059s5.858-13.059 13.06-13.059h6.629zm40.307 19.26h-17.36c-4.382 0-7.946-3.564-7.946-7.946v-3.814-41.119-4.33c0-4.381 3.564-7.946 7.946-7.946h17.36zm-40.307 396.844h-6.629c-7.201 0-13.06-5.858-13.06-13.059s5.858-13.06 13.06-13.06h6.629zm40.307-33.212v52.472h-17.36c-4.382 0-7.946-3.565-7.946-7.946v-3.813-41.12-4.33c0-4.382 3.564-7.947 7.946-7.947h17.36zm326.31 33.953h-311.31v-26.119h311.311v26.119zm40.307-34.36v41.119 3.813c0 4.382-3.564 7.946-7.946 7.946h-17.36v-52.472-12.683h17.36c4.382 0 7.946 3.565 7.946 7.947zm21.629 33.619h-6.629v-26.119h6.629c7.201 0 13.06 5.858 13.06 13.06 0 7.201-5.859 13.059-13.06 13.059z"/><path d="m173.828 112.635h-24.49c-3.059 0-5.811 1.857-6.955 4.694l-13.604 33.714c-1.55 3.841.308 8.211 4.148 9.761.92.371 1.87.547 2.804.547 2.969 0 5.779-1.774 6.958-4.696l11.71-29.021h19.429c4.143 0 7.5-3.358 7.5-7.5 0-4.141-3.357-7.499-7.5-7.499z"/><path d="m206.951 112.635c-4.143 0-7.5 3.358-7.5 7.5v15.378c0 4.142 3.357 7.5 7.5 7.5s7.5-3.358 7.5-7.5v-15.378c0-4.142-3.357-7.5-7.5-7.5z"/><path d="m268.655 210.158c0 4.142 3.357 7.5 7.5 7.5s7.5-3.358 7.5-7.5v-15.378c0-4.142-3.357-7.5-7.5-7.5s-7.5 3.358-7.5 7.5z"/><path d="m317.221 210.158v-15.378c0-4.142-3.357-7.5-7.5-7.5s-7.5 3.358-7.5 7.5v15.378c0 4.142 3.357 7.5 7.5 7.5s7.5-3.358 7.5-7.5z"/><path d="m248.977 153.849v-33.714c0-4.142-3.357-7.5-7.5-7.5s-7.5 3.358-7.5 7.5v33.714c0 4.142 3.357 7.5 7.5 7.5 4.142 0 7.5-3.358 7.5-7.5z"/><path d="m294.444 109.677h-3.046c-12.541 0-22.743 10.203-22.743 22.743v21.429c0 4.142 3.357 7.5 7.5 7.5h33.532c4.143 0 7.5-3.358 7.5-7.5v-21.429c0-12.54-10.202-22.743-22.743-22.743zm7.743 36.672h-18.532v-13.929c0-4.27 3.474-7.743 7.743-7.743h3.046c4.269 0 7.743 3.474 7.743 7.743z"/><path d="m360.282 109.677h-3.047c-12.541 0-22.743 10.203-22.743 22.743v21.429c0 4.142 3.357 7.5 7.5 7.5h33.532c4.143 0 7.5-3.358 7.5-7.5v-21.429c0-12.54-10.202-22.743-22.742-22.743zm7.742 36.672h-18.532v-13.929c0-4.27 3.474-7.743 7.743-7.743h3.047c4.27 0 7.742 3.474 7.742 7.743z"/><path d="m220.452 188.037c-4.143 0-7.5 3.358-7.5 7.5v33.715c0 4.142 3.357 7.5 7.5 7.5s7.5-3.358 7.5-7.5v-3.455h10.515c4.143 0 7.5-3.358 7.5-7.5s-3.357-7.5-7.5-7.5h-10.515v-15.26c0-4.142-3.357-7.5-7.5-7.5z"/><path d="m179.675 229.251v-9.357h4.352c4.142 0 7.5-3.358 7.5-7.5s-3.358-7.5-7.5-7.5h-4.352v-9.357c0-4.142-3.357-7.5-7.5-7.5s-7.5 3.358-7.5 7.5v9.357h-10.941v-18.786c0-4.142-3.357-7.5-7.5-7.5s-7.5 3.358-7.5 7.5v18.786h-1.085c-4.143 0-7.5 3.358-7.5 7.5s3.357 7.5 7.5 7.5h1.778c1.188 2.575 3.785 4.366 6.807 4.366s5.62-1.791 6.807-4.366h11.634v9.357c0 4.142 3.357 7.5 7.5 7.5s7.5-3.357 7.5-7.5z"/><path d="m337.849 231.835c1.223.749 2.575 1.105 3.911 1.105 2.523 0 4.987-1.274 6.402-3.583l9.354-15.272 9.605 15.336c2.199 3.51 6.829 4.573 10.338 2.374 3.51-2.199 4.573-6.827 2.375-10.337l-16.033-25.597c-1.372-2.19-3.775-3.518-6.357-3.518-.013 0-.025 0-.037 0-2.597.013-5.002 1.368-6.358 3.582l-15.679 25.597c-2.163 3.533-1.052 8.15 2.479 10.313z"/><path d="m378.33 351.712c-3.847-1.552-8.213.308-9.762 4.149l-11.71 29.021h-19.428c-4.143 0-7.5 3.358-7.5 7.5s3.357 7.5 7.5 7.5h24.49c3.059 0 5.811-1.857 6.955-4.694l13.604-33.714c1.55-3.841-.308-8.212-4.149-9.762z"/><path d="m304.307 369.503c-4.143 0-7.5 3.358-7.5 7.5v15.378c0 4.142 3.357 7.5 7.5 7.5s7.5-3.358 7.5-7.5v-15.378c0-4.142-3.358-7.5-7.5-7.5z"/><path d="m242.604 296.859c0-4.142-3.357-7.5-7.5-7.5s-7.5 3.358-7.5 7.5v15.378c0 4.142 3.357 7.5 7.5 7.5s7.5-3.358 7.5-7.5z"/><path d="m194.037 296.859v15.378c0 4.142 3.357 7.5 7.5 7.5s7.5-3.358 7.5-7.5v-15.378c0-4.142-3.357-7.5-7.5-7.5-4.142 0-7.5 3.358-7.5 7.5z"/><path d="m262.282 358.668v33.714c0 4.142 3.357 7.5 7.5 7.5 4.142 0 7.5-3.358 7.5-7.5v-33.714c0-4.142-3.358-7.5-7.5-7.5-4.143 0-7.5 3.357-7.5 7.5z"/><path d="m235.104 351.168h-33.532c-4.143 0-7.5 3.358-7.5 7.5v21.429c0 12.54 10.202 22.743 22.743 22.743h3.046c12.541 0 22.743-10.202 22.743-22.743v-21.429c0-4.143-3.358-7.5-7.5-7.5zm-7.5 28.929c0 4.27-3.474 7.743-7.743 7.743h-3.046c-4.27 0-7.743-3.473-7.743-7.743v-13.929h18.532z"/><path d="m169.266 351.168h-33.531c-4.143 0-7.5 3.358-7.5 7.5v21.429c0 12.54 10.202 22.743 22.742 22.743h3.047c12.54 0 22.742-10.202 22.742-22.743v-21.429c0-4.143-3.358-7.5-7.5-7.5zm-7.5 28.929c0 4.27-3.473 7.743-7.742 7.743h-3.047c-4.27 0-7.742-3.473-7.742-7.743v-13.929h18.531z"/><path d="m319.732 294.623c0 4.142 3.357 7.5 7.5 7.5h15.688v9.358c0 4.142 3.357 7.5 7.5 7.5s7.5-3.358 7.5-7.5v-9.358h15.69c4.143 0 7.5-3.358 7.5-7.5s-3.357-7.5-7.5-7.5h-15.69v-9.357c0-4.142-3.357-7.5-7.5-7.5s-7.5 3.358-7.5 7.5v9.357h-15.688c-4.143 0-7.5 3.358-7.5 7.5z"/><path d="m265.291 288.72c0 4.142 3.357 7.5 7.5 7.5h10.515v15.26c0 4.142 3.357 7.5 7.5 7.5s7.5-3.358 7.5-7.5v-33.715c0-4.142-3.357-7.5-7.5-7.5s-7.5 3.358-7.5 7.5v3.455h-10.515c-4.142 0-7.5 3.358-7.5 7.5z"/><path d="m173.409 275.182c-3.533-2.164-8.149-1.055-10.314 2.478l-9.354 15.272-9.605-15.336c-2.2-3.511-6.831-4.573-10.338-2.375-3.51 2.199-4.573 6.827-2.375 10.337l16.033 25.597c1.372 2.19 3.774 3.518 6.356 3.518h.037c2.597-.013 5.002-1.368 6.358-3.582l15.679-25.597c2.165-3.532 1.055-8.149-2.477-10.312z"/></g></g></svg>