<svg id="Layer_1" enable-background="new 0 0 512 512" height="512" viewBox="0 0 512 512" width="512" xmlns="http://www.w3.org/2000/svg"><g><g><path d="m487.391 432.031h-462.783c-9.449 0-17.108-7.66-17.108-17.109v-317.844c0-9.449 7.66-17.109 17.108-17.109h462.783c9.449 0 17.109 7.66 17.109 17.109v317.844c0 9.449-7.66 17.109-17.109 17.109z" fill="#fb7079"/></g><g><path d="m487.391 79.969h-30c9.449 0 17.108 7.66 17.108 17.109v317.844c0 9.449-7.66 17.109-17.108 17.109h30c9.449 0 17.108-7.66 17.108-17.109v-317.844c.001-9.449-7.659-17.109-17.108-17.109z" fill="#ea5c6b"/></g><g><path d="m7.5 277.985v136.936c0 9.449 7.66 17.109 17.109 17.109h462.783c9.449 0 17.109-7.66 17.109-17.109v-136.936z" fill="#c8c3ca"/></g><g><path d="m7.5 198.141h497v115.718h-497z" fill="#f7f7f7"/></g><g><path d="m474.5 277.985v136.936c0 9.449-7.66 17.109-17.109 17.109h30c9.449 0 17.109-7.66 17.109-17.109v-136.936z" fill="#b1abb4"/></g><g><path d="m474.5 198.141h30v115.718h-30z" fill="#e8e8e8"/></g><g><circle cx="256" cy="256" fill="#e4b052" r="26.248"/></g><g><path d="m487.392 72.469h-336.116c-4.142 0-7.5 3.358-7.5 7.5s3.358 7.5 7.5 7.5h336.115c5.298 0 9.608 4.311 9.608 9.609v93.562h-481.999v-93.562c0-5.298 4.31-9.609 9.608-9.609h96.668c4.142 0 7.5-3.358 7.5-7.5s-3.358-7.5-7.5-7.5h-96.668c-13.569 0-24.608 11.04-24.608 24.609v317.844c0 13.569 11.039 24.609 24.608 24.609h462.783c13.569 0 24.608-11.04 24.608-24.609v-317.844c.001-13.569-11.038-24.609-24.607-24.609zm0 352.062h-462.784c-5.298 0-9.608-4.311-9.608-9.609v-93.563h421.659c4.143 0 7.5-3.358 7.5-7.5s-3.357-7.5-7.5-7.5h-421.659v-100.718h482v100.718h-30.341c-4.143 0-7.5 3.358-7.5 7.5s3.357 7.5 7.5 7.5h30.341v93.563c0 5.298-4.311 9.609-9.608 9.609z"/><path d="m256 222.252c-18.609 0-33.748 15.139-33.748 33.748 0 18.608 15.139 33.748 33.748 33.748 18.608 0 33.748-15.139 33.748-33.748s-15.14-33.748-33.748-33.748zm0 52.496c-10.338 0-18.748-8.41-18.748-18.748s8.41-18.748 18.748-18.748 18.748 8.41 18.748 18.748c0 10.337-8.41 18.748-18.748 18.748z"/><path d="m197.473 233.368c-4.142 0-7.5 3.358-7.5 7.5v30.263c0 4.142 3.358 7.5 7.5 7.5s7.5-3.358 7.5-7.5v-30.263c0-4.142-3.358-7.5-7.5-7.5z"/><path d="m315.901 233.368c-4.143 0-7.5 3.358-7.5 7.5v30.263c0 4.142 3.357 7.5 7.5 7.5s7.5-3.358 7.5-7.5v-30.263c0-4.142-3.357-7.5-7.5-7.5z"/></g></g></svg>