<svg id="Layer_1" enable-background="new 0 0 504.851 504.851" height="512" viewBox="0 0 504.851 504.851" width="512" xmlns="http://www.w3.org/2000/svg"><g><g><path d="m121.508 35.401c-53.748 41.446-87.817 105.663-90.276 176.39l-1.909 54.908 176.803 122.436 136.326-122.436v-116.579c0-42.761-26.415-80.991-66.18-95.782l-89.906-53.987c-23.783 8.255-45.586 20.189-64.858 35.05" fill="#a29aa5"/></g><g><path d="m489.754 145.899h7.183v-.128c0-38.863-31.505-70.368-70.368-70.368h-149.832v31.113h149.832c27.742-.001 51.725 16.059 63.185 39.383z" fill="#8c818f"/></g><g><path d="m289.095 84.902c14.756 17.931 23.356 40.833 23.356 65.218v116.58l-16.359 14.693h30l16.359-14.693v-116.58c0-24.384-8.6-47.287-23.356-65.218z" fill="#8c818f"/></g><g><path d="m229.517 7.5h-43.161c-42.222 0-76.45 34.228-76.45 76.45 0 28.688 15.808 53.67 39.184 66.744 7.963 4.453 13.037 12.717 13.037 21.84v94.049h91.618v-94.049c0-9.123 5.075-17.387 13.037-21.84 23.376-13.073 39.184-38.056 39.184-66.743.001-42.223-34.227-76.451-76.449-76.451z" fill="#5de1c4"/></g><g><path d="m229.517 7.5h-30c42.222 0 76.45 34.228 76.45 76.45 0 28.688-15.808 53.67-39.184 66.743-7.962 4.453-13.037 12.717-13.037 21.84v94.049h30v-94.049c0-9.123 5.075-17.387 13.037-21.84 23.376-13.073 39.184-38.056 39.184-66.743 0-42.222-34.228-76.45-76.45-76.45z" fill="#0ab69f"/></g><g><path d="m394.676 497.351h-373.478c-7.337 0-13.284-5.947-13.284-13.284v-56.82c0-44.225 35.852-80.077 80.077-80.077h239.893c44.225 0 80.077 35.852 80.077 80.077v56.819c-.001 7.337-5.948 13.285-13.285 13.285z" fill="#80b6fc"/></g><g><path d="m327.884 347.17h-30c44.225 0 80.077 35.852 80.077 80.077v56.819c0 7.337-5.947 13.284-13.284 13.284h30c7.337 0 13.284-5.947 13.284-13.284v-56.819c-.001-44.225-35.852-80.077-80.077-80.077z" fill="#62a4fb"/></g><g><path d="m162.128 202.667h91.618v63.916h-91.618z" fill="#fee077"/></g><g><path d="m223.746 202.667h30v63.916h-30z" fill="#f0d062"/></g><g><path d="m239.073 455.299h-68.557c-86.719 0-157.019-70.3-157.019-157.019v-25.413c0-3.471 2.814-6.285 6.285-6.285h376.31c3.471 0 6.285 2.814 6.285 6.285v19.128c0 90.19-73.114 163.304-163.304 163.304z" fill="#62a4fb"/></g><g><path d="m235.898 407.594h-55.923c-64.798 0-117.326-52.529-117.326-117.326v-23.685h290.575v23.685c.001 64.797-52.528 117.326-117.326 117.326z" fill="#fee077"/></g><g><path d="m222.61 357.053h-29.347c-40.144 0-72.686-32.543-72.686-72.686v-17.785h174.719v17.785c.001 40.144-32.542 72.686-72.686 72.686z" fill="#62a4fb"/></g><g><path d="m396.092 266.582h-30c3.471 0 6.285 2.814 6.285 6.285v19.128c0 90.191-73.114 163.304-163.304 163.304h30c90.19 0 163.304-73.114 163.304-163.304v-19.128c0-3.471-2.814-6.285-6.285-6.285z" fill="#4981f8"/></g><g><path d="m323.225 266.582v23.685c0 64.797-52.529 117.326-117.326 117.326h30c64.798 0 117.326-52.529 117.326-117.326v-23.685z" fill="#f0d062"/></g><g><path d="m265.297 266.582v17.785c0 40.034-32.367 72.501-72.36 72.678.109.001.217.008.327.008h29.347c40.144 0 72.686-32.543 72.686-72.686v-17.785z" fill="#5392f9"/></g><g><path d="m426.569 67.903h-45.56c-4.142 0-7.5 3.358-7.5 7.5s3.358 7.5 7.5 7.5h45.56c28.249 0 52.205 18.728 60.106 44.419-14.577-17.785-36.355-28.306-60.106-28.306h-114.479c.901-4.924 1.378-9.961 1.378-15.065 0-.351-.022-.697-.027-1.047h37.569c4.142 0 7.5-3.358 7.5-7.5s-3.358-7.5-7.5-7.5h-39.098c-7.513-38.639-41.593-67.904-82.395-67.904h-43.161c-22.234.351-37.141 4.888-69.429 29.461-56.997 43.38-90.688 110.102-93.191 182.07l-1.653 47.552h-2.3c-7.601 0-13.785 6.184-13.785 13.785v25.413c0 26.906 6.493 52.324 17.994 74.771-15.229 17.563-23.578 39.854-23.578 63.226v46.29c0 12.287 9.996 22.283 22.283 22.283h275.792c4.142 0 7.5-3.358 7.5-7.5s-3.358-7.5-7.5-7.5h-275.793c-4.016 0-7.283-3.267-7.283-7.283v-46.29c0-17.967 5.848-35.174 16.591-49.307 29.284 45.575 80.431 75.828 138.511 75.828h68.557c59.917 0 112.719-31.017 143.215-77.832 11.748 14.495 18.173 32.485 18.173 51.312v46.289c0 4.016-3.267 7.283-7.283 7.283h-64.689c-4.142 0-7.5 3.358-7.5 7.5s3.358 7.5 7.5 7.5h64.689c12.287 0 22.283-9.996 22.283-22.283v-46.289c0-24.159-8.932-47.156-25.15-64.977 12.485-23.714 19.566-50.697 19.566-79.306v-19.128c0-7.601-6.184-13.785-13.785-13.785h-46.14v-108.963c0-12.4-2.041-24.51-6.065-36.104h82.682c24.157 0 45.789 13.484 56.454 35.191 1.261 2.567 3.872 4.193 6.732 4.193h7.183c4.142 0 7.5-3.358 7.5-7.5v-.128c0-42.937-34.932-77.869-77.868-77.869zm-197.052-52.903c38.019 0 68.95 30.931 68.95 68.951 0 24.938-13.544 48.004-35.345 60.197-10.41 5.822-16.876 16.699-16.876 28.386v22.633h-76.617v-22.633c0-11.687-6.467-22.564-16.877-28.386-21.801-12.193-35.345-35.259-35.345-60.198 0-38.019 30.931-68.95 68.95-68.95h43.16zm116.208 259.082v16.185c0 60.559-49.268 109.827-109.826 109.827h-55.923c-60.559 0-109.826-49.268-109.826-109.827v-16.185h42.928v10.285c0 44.215 35.972 80.186 80.187 80.186h29.347c44.215 0 80.187-35.971 80.187-80.186v-10.285zm-219.306-131.397c-7.492 22.191-11.702 45.327-12.52 68.846l-1.653 47.552h-30.073l1.635-47.03c1.163-33.454 9.777-66.31 25.041-95.911 4.103 9.856 10.063 18.875 17.57 26.543zm28.209 116.397h-27.374l1.635-47.03c.698-20.078 4.04-39.853 9.929-58.934 2.129 1.465 4.33 2.845 6.612 4.121 5.674 3.173 9.198 9.034 9.198 15.294zm133.169 25.285c0 35.944-29.243 65.186-65.187 65.186h-29.347c-35.944 0-65.187-29.242-65.187-65.186v-10.285h159.72v10.285zm-118.169-25.285v-48.916h76.617v48.916zm-130.901-47.03c2.04-58.674 26.384-113.359 67.647-153.588-2.569 8.042-3.967 16.603-3.967 25.486 0 3.89.275 7.741.802 11.533-21.075 34.987-32.968 75.1-34.391 116.047l-1.653 47.552h-30.073zm356.15 79.943c0 85.911-69.894 155.804-155.804 155.804h-68.557c-82.445 0-149.519-67.074-149.519-149.519v-24.198h34.152v16.185c0 68.83 55.997 124.827 124.826 124.827h55.923c68.83 0 124.826-55.997 124.826-124.827v-16.185h34.152v17.913zm-59.925-141.875v108.963h-27.362v-50.79c0-4.142-3.358-7.5-7.5-7.5s-7.5 3.358-7.5 7.5v50.79h-31.344v-86.549c0-6.26 3.524-12.121 9.198-15.294 8.23-4.603 15.491-10.481 21.595-17.304.361 3.379.551 6.78.551 10.184v28.173c0 4.142 3.358 7.5 7.5 7.5s7.5-3.358 7.5-7.5v-28.173c0-8.434-.966-16.86-2.87-25.043-.183-.784-.485-1.509-.878-2.164 1.542-2.938 2.919-5.965 4.106-9.073.518.113 1.054.176 1.605.176h18.302c4.705 11.485 7.097 23.623 7.097 36.104z"/><path d="m199.856 69.904h28.808v5.499c0 4.142 3.358 7.5 7.5 7.5s7.5-3.358 7.5-7.5v-5.499h18.399c4.142 0 7.5-3.358 7.5-7.5s-3.358-7.5-7.5-7.5h-62.207c-4.142 0-7.5 3.358-7.5 7.5s3.358 7.5 7.5 7.5z"/></g></g></svg>