<svg id="Layer_1" enable-background="new 0 0 504.851 504.851" height="512" viewBox="0 0 504.851 504.851" width="512" xmlns="http://www.w3.org/2000/svg"><g><g><path d="m439.164 497.351h-373.478c-7.337 0-13.284-5.947-13.284-13.284v-56.82c0-44.225 35.852-80.077 80.077-80.077h239.893c44.225 0 80.077 35.852 80.077 80.077v56.819c0 7.337-5.948 13.285-13.285 13.285z" fill="#ffeed2"/></g><g><path d="m372.372 347.17h-30c44.225 0 80.077 35.852 80.077 80.077v56.819c0 7.337-5.948 13.284-13.284 13.284h30c7.337 0 13.284-5.947 13.284-13.284v-56.819c0-44.225-35.852-80.077-80.077-80.077z" fill="#f4daa7"/></g><g><path d="m166.215 35.37c-53.748 41.446-87.817 105.663-90.276 176.39l-1.909 54.908 176.803 122.436 136.326-122.436v-116.58c0-42.761-26.415-80.991-66.18-95.782l-89.906-53.987c-23.783 8.256-45.586 20.189-64.858 35.051" fill="#a29aa5"/></g><g><path d="m356.94 266.699-12.539 11.261h30l12.539-11.261v-116.579c0-20.642-6.17-40.218-17.011-56.621h-30c10.841 16.403 17.011 35.979 17.011 56.621z" fill="#8c818f"/></g><g><path d="m403.334 109.746c10.275 0 19.712 3.577 27.14 9.552 2.973 2.391 7.385.281 7.385-3.534v-6.718c0-23.942-19.409-43.351-43.351-43.351h-87.375v44.051z" fill="#e4b052"/></g><g><path d="m274.006 7.5h-43.161c-42.222 0-76.45 34.228-76.45 76.45 0 28.688 15.808 53.67 39.184 66.744 7.962 4.453 13.037 12.717 13.037 21.84v94.049h91.618v-94.049c0-9.123 5.075-17.387 13.037-21.84 23.376-13.073 39.184-38.056 39.184-66.743.001-42.223-34.227-76.451-76.449-76.451z" fill="#f7f7f7"/></g><g><path d="m274.006 7.5h-30c42.222 0 76.45 34.228 76.45 76.45 0 28.688-15.808 53.67-39.184 66.743-7.963 4.453-13.037 12.717-13.037 21.84v94.049h30v-94.049c0-9.123 5.075-17.387 13.037-21.84 23.376-13.073 39.184-38.056 39.184-66.743 0-42.222-34.228-76.45-76.45-76.45z" fill="#e8e8e8"/></g><g><path d="m206.617 202.667h91.618v63.916h-91.618z" fill="#fee077"/></g><g><path d="m268.234 202.667h30v63.916h-30z" fill="#f0d062"/></g><g><path d="m283.561 455.299h-68.557c-86.719 0-157.019-70.3-157.019-157.019v-25.413c0-3.471 2.814-6.285 6.285-6.285h376.31c3.471 0 6.285 2.814 6.285 6.285v19.128c0 90.19-73.113 163.304-163.304 163.304z" fill="#e4b052"/></g><g><path d="m280.387 407.594h-55.923c-64.797 0-117.326-52.529-117.326-117.326v-23.685h290.575v23.685c0 64.797-52.529 117.326-117.326 117.326z" fill="#fee077"/></g><g><path d="m267.099 357.053h-29.347c-40.143 0-72.686-32.543-72.686-72.686v-17.785h174.72v17.785c-.001 40.144-32.544 72.686-72.687 72.686z" fill="#e4b052"/></g><g><path d="m440.58 266.582h-30c3.471 0 6.285 2.814 6.285 6.285v19.128c0 90.191-73.114 163.304-163.304 163.304h30c90.19 0 163.304-73.114 163.304-163.304v-19.128c0-3.471-2.814-6.285-6.285-6.285z" fill="#dd9e32"/></g><g><path d="m367.713 266.582v23.685c0 64.797-52.529 117.326-117.326 117.326h30c64.797 0 117.326-52.529 117.326-117.326v-23.685z" fill="#f0d062"/></g><g><path d="m307.719 266.582v17.785c0 40.034-34.596 72.501-77.344 72.678.117.001.232.008.349.008h31.368c42.909 0 77.693-32.543 77.693-72.686v-17.785z" fill="#dd9e32"/></g><g><path d="m260.89 65.696h-55.851c-1.29 0-2.175 1.249-1.7 2.402l30.57 74.248c.702 1.705 3.312 1.366 3.518-.457l.662-5.866c2.52-22.338 14.877-42.571 33.946-55.586l4.995-14.741z" fill="#8c818f"/></g><g><circle cx="281.634" cy="65.696" fill="#7a797b" r="18.263"/></g><g><path d="m436.583 373.278c-.576-.669-1.248-1.204-1.974-1.617 12.604-23.8 19.756-50.912 19.756-79.666v-19.128c0-7.601-6.184-13.785-13.785-13.785h-46.14v-108.962c0-11.253-1.676-22.268-4.993-32.873h13.887c8.258 0 16.018 2.73 22.44 7.896 2.198 1.768 4.846 2.676 7.527 2.676 1.766 0 3.547-.394 5.223-1.197 4.216-2.02 6.836-6.18 6.836-10.857v-6.718c0-28.04-22.811-50.851-50.851-50.851h-40.61c-10.9-33.727-42.586-58.196-79.893-58.196h-43.161c-16.2 0-31.334 4.625-44.175 12.606-3.631 2.011-18.808 11.887-25.248 16.852-.002.001-.004.002-.006.004-56.722 43.74-90.689 110.102-93.191 182.069l-1.653 47.552h-2.302c-7.601 0-13.785 6.184-13.785 13.785v25.413c0 26.906 6.493 52.324 17.994 74.771-15.227 17.564-23.577 39.855-23.577 63.227v46.29c0 12.287 9.996 22.283 22.282 22.283h281.51c4.142 0 7.5-3.358 7.5-7.5s-3.358-7.5-7.5-7.5h-281.51c-4.016 0-7.282-3.267-7.282-7.283v-46.29c0-17.967 5.848-35.174 16.591-49.307 29.284 45.575 80.431 75.828 138.511 75.828h68.557c59.918 0 112.721-31.018 143.216-77.835 11.726 14.486 18.171 32.604 18.171 51.315v46.289c0 4.016-3.267 7.283-7.282 7.283h-58.972c-4.142 0-7.5 3.358-7.5 7.5s3.358 7.5 7.5 7.5h58.972c12.287 0 22.282-9.996 22.282-22.283v-46.289c0-23.125-8.298-45.499-23.365-63.002zm-265.676-230.593c-7.492 22.19-11.702 45.326-12.52 68.846l-1.653 47.552h-30.072l1.635-47.03c1.163-33.454 9.778-66.311 25.041-95.911 4.102 9.856 10.062 18.875 17.569 26.543zm165.621-2.749c.361 3.379.551 6.78.551 10.184v108.963h-31.344v-86.549c0-6.261 3.524-12.121 9.198-15.294 8.229-4.603 15.49-10.481 21.595-17.304zm-4.243 134.146v10.285c0 35.944-29.242 65.186-65.186 65.186h-29.347c-35.944 0-65.186-29.242-65.186-65.186v-10.285h34.051 91.618zm-133.169-15h-27.374l1.635-47.03c.698-20.078 4.04-39.854 9.929-58.934 2.129 1.465 4.33 2.845 6.611 4.121 5.674 3.173 9.198 9.033 9.198 15.294v86.549zm-84.479 15h42.928v10.285c0 44.215 35.971 80.186 80.186 80.186h29.347c44.215 0 80.186-35.971 80.186-80.186v-10.285h42.928v16.185c0 60.559-49.268 109.827-109.827 109.827h-55.922c-60.559 0-109.827-49.268-109.827-109.827v-16.185zm264.803-123.962v108.963h-27.361v-108.963c0-8.434-.966-16.861-2.871-25.044-.183-.784-.485-1.509-.878-2.164.973-1.854 1.879-3.743 2.712-5.666h22.565c3.872 10.522 5.833 21.557 5.833 32.874zm15.068-76.925c19.769 0 35.851 16.083 35.851 35.851v.98c-8.054-5.048-17.457-7.781-27.025-7.781h-47.414c1.331-5.941 2.036-12.069 2.036-18.296 0-3.646-.26-7.23-.713-10.755h37.265zm-120.502-58.195c38.019 0 68.95 30.931 68.95 68.951 0 24.938-13.543 48.004-35.346 60.197-10.409 5.822-16.876 16.699-16.876 28.386v22.633h-30.359c-4.142 0-7.5 3.358-7.5 7.5s3.358 7.5 7.5 7.5h30.359v48.916h-76.618v-48.916h16.259c4.142 0 7.5-3.358 7.5-7.5s-3.358-7.5-7.5-7.5h-16.259v-22.633c0-11.687-6.467-22.564-16.877-28.386-21.802-12.193-35.345-35.259-35.345-60.198 0-38.019 30.931-68.95 68.95-68.95h43.162zm-190.79 197.052c2.04-58.674 26.383-113.359 67.646-153.588-2.569 8.043-3.967 16.603-3.967 25.486 0 3.89.275 7.742.802 11.534-21.075 34.986-32.967 75.099-34.392 116.047l-1.653 47.552h-30.072zm200.345 235.747h-68.557c-82.445 0-149.519-67.074-149.519-149.519v-24.198h34.152v16.185c0 68.83 55.997 124.827 124.827 124.827h55.922c68.83 0 124.827-55.997 124.827-124.827v-16.185h34.152v17.913c0 85.911-69.893 155.804-155.804 155.804z"/><path d="m226.973 145.201c1.449 3.52 4.882 5.755 8.627 5.755.434 0 .873-.03 1.313-.092 4.216-.591 7.491-3.936 7.965-8.136l.662-5.866c2.071-18.354 11.765-35.477 26.64-47.209 2.929 1.16 6.117 1.805 9.453 1.805 3.048 0 5.972-.535 8.688-1.511l17.646 17.645c1.464 1.464 3.384 2.197 5.303 2.197s3.839-.732 5.303-2.197c2.929-2.929 2.929-7.678 0-10.606l-16.129-16.129c3.11-4.257 4.952-9.497 4.952-15.162 0-14.205-11.557-25.763-25.763-25.763-11.597 0-21.427 7.704-24.646 18.263h-51.949c-3.132 0-6.037 1.545-7.77 4.134-1.712 2.557-2.036 5.781-.865 8.623zm54.661-90.268c5.935 0 10.763 4.828 10.763 10.763s-4.828 10.763-10.763 10.763-10.763-4.828-10.763-10.763 4.828-10.763 10.763-10.763zm-24.646 18.262c.749 2.457 1.854 4.761 3.259 6.847-12.868 10.999-22.221 25.468-26.847 41.369l-19.851-48.216z"/></g></g></svg>