<svg id="Layer_1" enable-background="new 0 0 505.298 505.298" height="512" viewBox="0 0 505.298 505.298" width="512" xmlns="http://www.w3.org/2000/svg"><g><g><path d="m444.62 388.006h-384.287c-29.179 0-52.833-23.654-52.833-52.833v-164.11c0-29.179 23.654-52.833 52.833-52.833h384.287c29.179 0 52.833 23.654 52.833 52.833v164.11c0 29.179-23.654 52.833-52.833 52.833z" fill="#ffeed2"/></g><g><path d="m467.672 123.516-.22 211.657c0 29.179-23.654 52.833-52.833 52.833h30c29.179 0 52.833-23.654 52.833-52.833v-164.11c.001-20.913-12.153-38.985-29.78-47.547z" fill="#f4daa7"/></g><g><path d="m497.798 180.753h-25.544l-5.105-60.271 5.105-60.271h25.544z" fill="#f4daa7"/></g><g><path d="m57.963 212.176c-1.165.046-2.34.046-3.522-.004-1.806.322-3.636.511-5.478.511-11.734 0-21.589-5.874-27.675-14.672-5.769-5.329-10.397-11.719-13.788-18.739v124.401 32.5 106.868s11.497 25.601 18.738 31.06c6.076 4.58 29.384 7.94 29.384 7.94v-93.257c.776.069 1.556.127 2.341.161z" fill="#f4daa7"/></g><g><path d="m449.676 21.143c26.577 0 48.122 21.734 48.122 48.544s-21.545 48.544-48.122 48.544" fill="#f4daa7"/></g><g><path d="m408.826 258.896c0-4.048-3.281-7.329-7.329-7.329s-7.329 3.281-7.329 7.329 3.281 7.329 7.329 7.329 7.329-3.281 7.329-7.329z"/><path d="m428.246 266.225c4.048 0 7.329-3.281 7.329-7.329s-3.281-7.329-7.329-7.329-7.329 3.281-7.329 7.329 3.281 7.329 7.329 7.329z"/><path d="m168.395 174.119c0-4.142-3.358-7.5-7.5-7.5h-48.542c-4.142 0-7.5 3.358-7.5 7.5v26.116c0 4.142 3.358 7.5 7.5 7.5s7.5-3.358 7.5-7.5v-18.616h33.542v17.567c0 4.142 3.358 7.5 7.5 7.5s7.5-3.358 7.5-7.5z"/><path d="m282.315 251.937c0-2.004-.802-3.925-2.228-5.334l-22.659-22.394c-2.947-2.913-7.696-2.883-10.606.063-2.912 2.946-2.884 7.695.063 10.606l20.431 20.191v18.249c0 4.142 3.358 7.5 7.5 7.5s7.5-3.358 7.5-7.5v-21.381z"/><path d="m346.906 246.034c-1.417-1.418-3.366-2.203-5.348-2.197l-31.857.188c-4.142.024-7.48 3.402-7.456 7.544.024 4.127 3.377 7.456 7.499 7.456h.045l28.725-.169 12.904 12.904c1.464 1.465 3.384 2.197 5.303 2.197s3.839-.732 5.303-2.197c2.929-2.929 2.929-7.677 0-10.606z"/><path d="m110.379 283.662h24.674c1.819 0 3.577-.661 4.945-1.861l25.842-22.659c3.114-2.731 3.425-7.469.694-10.584-2.732-3.115-7.47-3.425-10.584-.694l-23.719 20.798h-21.852c-4.142 0-7.5 3.358-7.5 7.5s3.358 7.5 7.5 7.5z"/><path d="m110.379 251.511h15.485c4.142 0 7.5-3.358 7.5-7.5s-3.358-7.5-7.5-7.5h-15.485c-4.142 0-7.5 3.358-7.5 7.5s3.358 7.5 7.5 7.5z"/><path d="m103.011 341.494c.339 3.873 3.583 6.845 7.471 6.845h50.309c3.888 0 7.132-2.972 7.471-6.845.089-1.015.132-1.958.132-2.884 0-18.063-14.695-32.758-32.758-32.758s-32.758 14.695-32.758 32.758c.001.926.044 1.869.133 2.884zm32.626-20.642c7.957 0 14.708 5.261 16.959 12.487h-33.919c2.251-7.226 9.003-12.487 16.96-12.487z"/><path d="m193.542 280.695c1.004.083 1.935.123 2.844.123 18.063 0 32.758-14.057 32.758-31.336s-14.695-31.336-32.758-31.336c-.91 0-1.84.04-2.844.123-3.89.32-6.884 3.571-6.884 7.475v47.477c0 3.903 2.994 7.154 6.884 7.474zm8.116-46.814c7.226 2.07 12.487 8.281 12.487 15.601s-5.261 13.531-12.487 15.601z"/><path d="m362.639 342.206c1.114-1.929 1.671-4.046 1.671-6.163s-.557-4.234-1.671-6.164l-20.073-34.767c-2.228-3.859-6.219-6.163-10.675-6.163-.348 0-.693.014-1.035.042-4.033.328-7.585 2.564-9.639 6.121l-20.073 34.767c-1.114 1.93-1.671 4.046-1.67 6.164 0 2.117.557 4.233 1.671 6.163 2.228 3.859 6.219 6.163 10.675 6.163h40.145c4.455 0 8.446-2.304 10.674-6.163zm-46.189-8.837 15.442-26.746 15.442 26.746z"/><path d="m381.893 334.087c0 2.117.557 4.234 1.671 6.164 2.195 3.802 6.285 6.164 10.675 6.164h40.145c4.456 0 8.447-2.304 10.675-6.163 1.114-1.93 1.671-4.046 1.671-6.163s-.557-4.233-1.671-6.163l-20.072-34.766c-2.228-3.859-6.218-6.164-10.674-6.164-.001 0-.001 0-.001 0-4.456 0-8.446 2.304-10.675 6.163l-20.072 34.766c-1.114 1.929-1.672 4.046-1.672 6.162zm32.418-29.418 15.441 26.745h-30.882z"/><path d="m324.191 163.17c-21.07 0-37.185 20.497-37.86 21.369-2.094 2.703-2.094 6.48 0 9.184.675.872 16.79 21.369 37.86 21.369s37.185-20.497 37.86-21.369c2.094-2.703 2.094-6.481 0-9.184-.675-.872-16.789-21.369-37.86-21.369zm0 36.922c-8.316 0-16.595-6.037-21.754-10.96 5.163-4.929 13.44-10.962 21.754-10.962 8.313 0 16.59 6.033 21.753 10.961-5.163 4.929-13.44 10.961-21.753 10.961z"/><path d="m194.851 297.088c-4.142 0-7.5 3.358-7.5 7.5v36.25c0 4.142 3.358 7.5 7.5 7.5s7.5-3.358 7.5-7.5v-27.171c6.532 2.889 11.101 9.431 11.101 17.021 0 4.142 3.358 7.5 7.5 7.5s7.5-3.358 7.5-7.5c-.001-18.526-15.074-33.6-33.601-33.6z"/><path d="m246.661 297.088c-4.142 0-7.5 3.358-7.5 7.5v36.25c0 4.142 3.358 7.5 7.5 7.5s7.5-3.358 7.5-7.5v-27.171c6.532 2.889 11.101 9.431 11.101 17.021 0 4.142 3.358 7.5 7.5 7.5s7.5-3.358 7.5-7.5c-.001-18.526-15.074-33.6-33.601-33.6z"/><path d="m194.158 191.191h65.553c4.142 0 7.5-3.358 7.5-7.5s-3.358-7.5-7.5-7.5h-30.566v-10.632c0-4.142-3.358-7.5-7.5-7.5s-7.5 3.358-7.5 7.5v10.632h-19.987c-4.142 0-7.5 3.358-7.5 7.5s3.358 7.5 7.5 7.5z"/><path d="m384.546 195.008c3.376 2.397 8.059 1.603 10.457-1.774l6.047-8.519 7.073 9.359c1.475 1.951 3.718 2.979 5.989 2.979 1.575 0 3.163-.494 4.516-1.517 1.305-.986 2.19-2.319 2.637-3.771l5.004-7.049 7.073 9.359c1.475 1.951 3.718 2.979 5.989 2.979 1.575 0 3.163-.494 4.516-1.517 3.305-2.498 3.959-7.201 1.461-10.505l-13.246-17.526c-1.442-1.908-3.739-3.014-6.095-2.977-2.39.036-4.62 1.209-6.004 3.157l-6.289 8.859-6.832-9.039c-1.442-1.908-3.746-3.014-6.095-2.977-2.39.036-4.62 1.209-6.004 3.157l-11.974 16.866c-2.395 3.376-1.601 8.058 1.777 10.456z"/><path d="m384.546 237.064c3.376 2.397 8.059 1.603 10.457-1.774l6.047-8.519 7.073 9.359c1.475 1.951 3.718 2.979 5.989 2.979 1.575 0 3.163-.494 4.516-1.517 1.305-.986 2.19-2.319 2.637-3.771l5.004-7.049 7.073 9.359c1.475 1.951 3.718 2.979 5.989 2.979 1.575 0 3.163-.494 4.516-1.517 3.305-2.497 3.959-7.201 1.461-10.505l-13.246-17.526c-1.442-1.907-3.739-3.017-6.095-2.977-2.39.036-4.62 1.208-6.004 3.157l-6.289 8.859-6.832-9.039c-1.442-1.907-3.746-3.017-6.095-2.977-2.39.036-4.62 1.208-6.004 3.157l-11.974 16.866c-2.395 3.376-1.601 8.058 1.777 10.456z"/><path d="m294.914 380.592h-228.582v-164.8c0-4.004-1.862-8.412-10.711-8.412-22.398 0-40.621-18.222-40.621-40.621s18.223-40.622 40.622-40.622c.902 0 113.628-.406 113.628-.406 4.142 0 7.5-3.358 7.5-7.5s-3.358-7.5-7.5-7.5c0 0-113.337.406-113.628.406-30.67 0-55.622 24.952-55.622 55.622v269.247c0 30.67 24.887 55.65 55.557 55.65.621 0 2.53-.117 3.276-.117 4.142 0 7.5-3.358 7.5-7.5v-88.446h228.581c4.142 0 7.5-3.358 7.5-7.5 0-4.143-3.358-7.501-7.5-7.501zm-279.914 55.413c0-.514 0-231.308 0-231.308 9.242 9.889 22.037 16.405 36.333 17.501v254.2c-20.39-2.149-36.333-19.442-36.333-40.393z"/><path d="m505.298 69.687c0-30.903-24.952-56.044-55.622-56.044-4.142 0-7.5 3.358-7.5 7.5v89.588h-242.927c-4.142 0-7.5 3.358-7.5 7.5s3.358 7.5 7.5 7.5h251.328c.27 0 .536-.016.798-.043 15.157-.462 28.803-7.057 38.577-17.409v228.52c0 .529.056 1.045.161 1.543-.104.498-.161 1.014-.161 1.543 0 25.816-15.636 40.622-42.897 40.622-.366 0-.724.035-1.076.086h-121.065c-4.142 0-7.5 3.358-7.5 7.5s3.358 7.5 7.5 7.5h127.081c.859 0 1.68-.151 2.448-.417 31.353-2.772 50.509-23.417 50.509-55.291 0-.529-.056-1.045-.16-1.543.104-.498.16-1.014.16-1.543.001-.001.346-265.023.346-267.112zm-48.122 40.331v-80.663c18.827 3.567 33.122 20.289 33.122 40.331 0 23.115-15.95 37.079-33.122 40.332z"/></g></g></svg>