<svg id="Layer_1" enable-background="new 0 0 491.719 491.719" height="512" viewBox="0 0 491.719 491.719" width="512" xmlns="http://www.w3.org/2000/svg"><g><g><path d="m320.215 101.152c-3.277-1.817-6.542-3.249-9.669-4.098v-26.352c0-34.906-28.297-63.202-63.202-63.202-34.906 0-63.202 28.297-63.202 63.202v25.84h-.768c-3.777.688-7.817 2.362-11.87 4.609-18.802 10.426-30.144 30.56-30.144 52.059v1.002c0 2.301.132 4.6.396 6.885l35.275 305.503c1.477 10.116 10.193 17.619 20.466 17.619h46.862 3 46.862c10.273 0 18.989-7.503 20.466-17.619l35.276-305.501c.264-2.286.396-4.585.396-6.885v-1.002c0-21.499-11.342-41.634-30.144-52.06z" fill="#ffeed2"/></g><g><path d="m320.215 101.152c-3.277-1.817-6.542-3.249-9.669-4.098v-26.352c0-34.906-28.297-63.202-63.202-63.202-5.17 0-10.19.635-15 1.806 27.662 6.736 48.202 31.661 48.202 61.396v26.352c3.127.849 6.392 2.281 9.669 4.098 18.802 10.426 30.144 30.56 30.144 52.059v1.002c0 2.301-.132 4.6-.396 6.885l-35.276 305.502c-1.477 10.116-10.193 17.619-20.466 17.619h30c10.273 0 18.989-7.503 20.466-17.619l35.276-305.501c.264-2.286.396-4.585.396-6.885v-1.002c0-21.499-11.342-41.634-30.144-52.06z" fill="#f4daa7"/></g><g><path d="m174.405 443.857 2.626 22.743c1.477 10.116 10.193 17.619 20.466 17.619h46.862 3 46.862c10.273 0 18.989-7.503 20.466-17.619l2.626-22.743z" fill="#e4b052"/></g><g><path d="m141.359 153.212v1.002c0 2.301.132 4.6.396 6.885l4.517 39.117h199.174l4.517-39.117c.264-2.286.396-4.585.396-6.885v-1.002c0-2.366-.145-4.715-.415-7.037h-208.17c-.269 2.322-.415 4.67-.415 7.037z" fill="#e4b052"/></g><g><path d="m184.141 70.702v25.84h-.768c-3.682.67-7.613 2.282-11.563 4.445h148.091c-3.171-1.735-6.328-3.111-9.355-3.934v-26.351c0-8.405-1.655-16.42-4.633-23.756h-117.138c-2.979 7.337-4.634 15.351-4.634 23.756z" fill="#e4b052"/></g><g><path d="m162.948 344.629 6.24 54.041h153.343l6.24-54.041z" fill="#e4b052"/></g><g><path d="m151.49 245.402 6.24 54.041h176.259l6.24-54.041z" fill="#e4b052"/></g><g><path d="m287.313 443.857-2.626 22.743c-1.477 10.116-10.193 17.619-20.466 17.619h30c10.273 0 18.989-7.503 20.466-17.619l2.626-22.743z" fill="#dd9e32"/></g><g><path d="m349.944 146.174h-30c.27 2.322.415 4.671.415 7.037v1.002c0 2.301-.132 4.6-.396 6.885l-4.517 39.117h30l4.517-39.117c.264-2.286.396-4.585.396-6.885v-1.002c0-2.366-.145-4.714-.415-7.037z" fill="#dd9e32"/></g><g><path d="m310.546 97.054v-26.352c0-8.405-1.655-16.42-4.633-23.756h-30c2.979 7.336 4.633 15.351 4.633 23.756v26.352c3.027.822 6.184 2.199 9.355 3.934h30c-3.171-1.735-6.328-3.112-9.355-3.934z" fill="#dd9e32"/></g><g><path d="m298.771 344.629-6.24 54.041h30l6.24-54.041z" fill="#dd9e32"/></g><g><path d="m310.229 245.402-6.24 54.041h30l6.24-54.041z" fill="#dd9e32"/></g><path d="m323.852 94.593h.001c-1.982-1.098-3.921-2.048-5.807-2.844v-21.046c0-38.986-31.717-70.703-70.702-70.703s-70.703 31.717-70.703 70.703v19.901c-2.794.966-5.729 2.3-8.775 3.99-20.977 11.631-34.007 34.093-34.007 58.618v1.002c0 2.574.15 5.18.446 7.746l35.276 305.501c.009.075.019.149.029.223 2.001 13.703 13.99 24.036 27.887 24.036h96.724c13.898 0 25.887-10.333 27.888-24.036.011-.074.02-.149.028-.223l35.276-305.502c.296-2.565.446-5.171.446-7.745v-1.002c.001-24.526-13.031-46.987-34.007-58.619zm-125.653 59.081v39.041h-45.243l-3.75-32.476c-.23-1.997-.347-4.024-.347-6.026v-.539zm-43.511 54.041h182.342l-3.486 30.186h-175.37zm21.183 183.455-4.508-39.04h101.539v39.04zm1.733 15h136.512l-3.486 30.187h-129.54zm138.243-15h-27.945v-39.04h32.453zm-146.216-54.041-3.486-30.187h45.198c4.142 0 7.5-3.358 7.5-7.5s-3.358-7.5-7.5-7.5h-46.93l-4.508-39.041h171.907l-4.508 39.041h-85.961c-4.142 0-7.5 3.358-7.5 7.5s3.358 7.5 7.5 7.5h84.229l-3.486 30.187zm22.01-266.426c0-5.654.853-11.11 2.426-16.256h106.553c1.573 5.146 2.426 10.602 2.426 16.256v22.785h-111.405zm55.703-55.703c19.137 0 36.049 9.704 46.081 24.447h-92.162c10.031-14.743 26.943-24.447 46.081-24.447zm-73.547 93.488h144.126c11.262 6.713 19.37 17.587 22.926 30.187h-55.064c-4.143 0-7.5 3.358-7.5 7.5s3.357 7.5 7.5 7.5h57.075v.539c0 2.002-.117 4.029-.347 6.025l-3.75 32.477h-125.564v-39.041h42.585c4.143 0 7.5-3.358 7.5-7.5s-3.357-7.5-7.5-7.5h-104.914c3.556-12.6 11.664-23.474 22.927-30.187zm120.424 368.231h-96.724c-6.47 0-12.054-4.766-13.03-11.103l-1.646-14.259h126.076l-1.646 14.256c-.974 6.338-6.558 11.106-13.03 11.106z"/></g></svg>