<svg id="Layer_1" enable-background="new 0 0 512 512" height="512" viewBox="0 0 512 512" width="512" xmlns="http://www.w3.org/2000/svg"><g><g><path d="m423.66 69.287v113.41c0 17.596-1.936 34.839-5.631 51.495-38.26 172.453-285.797 172.453-324.058 0-3.695-16.656-5.631-33.899-5.631-51.495v-113.41c0-26.108-21.165-47.272-47.272-47.272v196.245c0 85.449 45.647 154.643 116.755 194.88 16.78 9.495 27.312 27.123 27.312 46.404v15.228c0 8.402 6.811 15.213 15.213 15.213h111.303c8.402 0 15.213-6.811 15.213-15.213v-15.228c0-19.281 10.532-36.909 27.312-46.404 71.108-40.237 116.755-109.43 116.755-194.88v-196.245c-26.107 0-47.271 21.165-47.271 47.272z" fill="#8c818f"/></g><g><path d="m386.171 185.988c0-70.545-57.188-127.734-127.734-127.734-70.545 0-127.734 57.188-127.734 127.734 0 1.903.05 3.794.132 5.676v123.778c0 17.699-14.347 32.046-32.046 32.046-17.699 0-32.046-14.348-32.046-32.046v-138.111c0-14.175-11.491-25.667-25.667-25.667h-8.576v163.778c0 36.611 29.679 66.29 66.29 66.29 36.611 0 66.29-29.679 66.29-66.29v-42.288c23.313 24.959 56.51 40.567 93.358 40.567s70.045-15.608 93.358-40.567v52.411c0 18.912 15.331 34.243 34.243 34.243v-168.144c.082-1.883.132-3.773.132-5.676z" fill="#e4b052"/></g><g><path d="m66.743 267.331v-90c0-14.175-11.491-25.667-25.667-25.667h-8.576v90h8.577c14.175 0 25.666 11.492 25.666 25.667z" fill="#5de1c4"/></g><g><ellipse cx="258.437" cy="185.988" fill="#fb7079" rx="93.358" ry="93.358" transform="matrix(.707 -.707 .707 .707 -55.819 237.217)"/></g><g><path d="m440.932 32.755v185.505c0 85.449-45.647 154.643-116.755 194.88-16.78 9.495-27.312 27.124-27.312 46.404v15.228c0 8.402-6.811 15.213-15.213 15.213h30c8.402 0 15.213-6.811 15.213-15.213v-15.228c0-19.281 10.532-36.909 27.312-46.404 71.108-40.237 116.755-109.43 116.755-194.88v-196.245c-11.39 0-21.838 4.03-30 10.74z" fill="#7a6d79"/></g><g><path d="m258.437 58.254c-5.076 0-10.079.306-15 .881 63.476 7.426 112.734 61.383 112.734 126.852 0 1.903-.05 3.794-.132 5.676v150.417c5.83 10.568 17.077 17.729 30 17.729v-168.145c.082-1.883.132-3.773.132-5.676 0-70.545-57.188-127.734-127.734-127.734z" fill="#dd9e32"/></g><g><path d="m258.437 92.63c-5.107 0-10.116.416-15 1.206 44.428 7.177 78.358 45.699 78.358 92.153s-33.93 84.976-78.358 92.153c4.884.789 9.893 1.205 15 1.205 51.56 0 93.358-41.798 93.358-93.358s-41.797-93.359-93.358-93.359z" fill="#ea5c6b"/></g><path d="m504.5 14.515h-33.559c-.003 0-.006 0-.01 0-30.201 0-54.771 24.571-54.771 54.772v113.41c0 16.779-1.835 33.558-5.453 49.87-3.666 16.524-9.42 31.79-17.168 45.612v-86.355c.089-2.081.132-3.993.132-5.837 0-74.568-60.665-135.234-135.233-135.234s-135.235 60.667-135.235 135.235c0 1.854.044 3.766.133 5.84v94.435c-10.237-15.858-17.636-33.835-22.043-53.696-2.271-10.237-3.852-20.732-4.699-31.196-.334-4.128-3.942-7.206-8.081-6.87-4.129.335-7.204 3.953-6.87 8.081.903 11.146 2.587 22.327 5.006 33.233 6.441 29.028 18.791 54.44 36.688 75.589v4.037c0 13.535-11.012 24.546-24.546 24.546-13.535 0-24.547-11.011-24.547-24.546v-48.111-5.33-84.669c0-15.711-10.985-28.896-25.675-32.303v-114.804c18.356 3.517 32.271 19.696 32.271 39.063v105.85c0 4.142 3.358 7.5 7.5 7.5 4.143 0 7.5-3.358 7.5-7.5v-105.85c0-30.202-24.57-54.772-54.771-54.772-.003 0-.006 0-.01 0h-33.559c-4.143 0-7.5 3.358-7.5 7.5s3.357 7.5 7.5 7.5h26.068v114.649h-1.068c-4.143 0-7.5 3.358-7.5 7.5v163.778c0 40.688 33.103 73.789 73.79 73.789 3.851 0 7.634-.299 11.328-.871 13.245 11.732 28.036 22.267 44.012 31.307 14.499 8.205 23.506 23.484 23.506 39.876v15.228c0 12.524 10.189 22.713 22.713 22.713h111.303c12.524 0 22.713-10.189 22.713-22.713v-15.228c0-16.393 9.007-31.672 23.506-39.876 76.618-43.354 120.562-116.765 120.562-201.407v-77.155c0-4.142-3.357-7.5-7.5-7.5s-7.5 3.358-7.5 7.5v77.155c0 79.084-41.168 147.735-112.948 188.352-19.195 10.861-31.119 31.144-31.119 52.931v15.228c0 4.253-3.46 7.713-7.713 7.713h-111.304c-4.253 0-7.713-3.46-7.713-7.713v-15.228c0-21.788-11.924-42.07-31.119-52.931-12.141-6.87-23.542-14.652-34.037-23.187 16.73-7.087 30.314-20.182 38.055-36.558 27.541 16.185 59.007 24.265 90.464 24.265 32.566 0 65.113-8.656 93.227-25.91 7.041 13.132 20.899 22.086 36.813 22.086 4.143 0 7.5-3.358 7.5-7.5v-54.428c15.283-19.913 25.988-43.315 31.813-69.565 3.854-17.377 5.809-35.25 5.809-53.119v-113.409c0-19.367 13.915-35.546 32.271-39.063v80.881c0 4.142 3.357 7.5 7.5 7.5s7.5-3.358 7.5-7.5v-81.59h26.068c4.143 0 7.5-3.358 7.5-7.5s-3.357-7.5-7.5-7.5zm-445.257 162.816v62.27c-5.222-3.433-11.463-5.437-18.166-5.437h-1.077v-75h1.077c10.017 0 18.166 8.15 18.166 18.167zm199.195 109.515c36.241 0 68.074-19.217 85.857-47.994v31.289c-22.529 22.964-53.652 36.08-85.857 36.08s-63.328-13.116-85.858-36.08v-31.29c17.782 28.777 49.616 47.995 85.858 47.995zm0-15c-47.343 0-85.858-38.516-85.858-85.858s38.516-85.858 85.858-85.858 85.857 38.516 85.857 85.858-38.516 85.858-85.857 85.858zm-.657 84.177c-31.372.321-61.483-7.85-87.19-23.628 1.286-5.447 1.988-11.118 1.988-16.953v-25c24.052 19.726 54.498 30.779 85.858 30.779s61.806-11.053 85.857-30.779v35.123c0 1.634.105 3.243.288 4.828-25.344 16.431-55.305 25.3-86.801 25.63zm120.758-4.785c-11.107-3.25-19.244-13.53-19.244-25.673 0 0 0-138.555 0-139.577 0-55.613-45.244-100.858-100.857-100.858s-100.858 45.245-100.858 100.858v129.454c0 32.417-26.373 58.789-58.789 58.789-32.417 0-58.79-26.373-58.79-58.789v-66.278h1.077c10.017 0 18.166 8.149 18.166 18.167v48.111c0 21.806 17.74 39.546 39.547 39.546 21.806 0 39.546-17.74 39.546-39.546 0 0-.133-127.773-.133-129.454 0-66.297 53.937-120.234 120.234-120.234s120.233 53.937 120.233 120.234c0 1.673-.132 165.25-.132 165.25z"/></g></svg>