<svg id="Layer_1" enable-background="new 0 0 512 512" height="512" viewBox="0 0 512 512" width="512" xmlns="http://www.w3.org/2000/svg"><g><g><path d="m274.782 154.729-109.992 164.391c-2.558 3.823.182 8.954 4.782 8.954h226.451c4.67 0 7.395-5.27 4.695-9.08l-116.458-164.392c-2.331-3.29-7.235-3.224-9.478.127l-109.992 164.391c-2.558 3.823.182 8.954 4.782 8.954h226.451c4.67 0 7.395-5.27 4.695-9.08l-116.458-164.392c-2.331-3.29-7.235-3.224-9.478.127z" fill="#e4b052"/></g><g><path d="m190.044 165.731-159.081 237.758c-3.7 5.529.264 12.95 6.917 12.95h327.516c6.754 0 10.695-7.621 6.791-13.133l-168.436-237.758c-3.371-4.759-10.464-4.664-13.707.183l-159.081 237.758c-3.7 5.529.264 12.95 6.917 12.95h327.516c6.754 0 10.695-7.621 6.791-13.133l-168.436-237.758c-3.371-4.759-10.464-4.664-13.707.183z" fill="#ffeed2"/></g><g><path d="m350.744 248.451-66.485-93.848c-2.331-3.29-7.235-3.225-9.478.127l-9.924 14.833 71.263 100.594c3.815-7.911 9.193-15.367 14.624-21.706z" fill="#dd9e32"/></g><g><path d="m372.186 403.306-168.435-237.758c-3.371-4.758-10.464-4.664-13.707.183l-7.851 11.733 159.993 225.842c3.904 5.512-.037 13.133-6.79 13.133h30c6.753 0 10.694-7.621 6.79-13.133z" fill="#f4daa7"/></g><g><circle cx="108.062" cy="77.338" fill="#fee077" r="55.448"/></g><g><path d="m107.942 21.89c-5.179 0-10.185.725-14.94 2.053 23.363 6.524 40.508 27.95 40.508 53.395 0 25.444-17.145 46.87-40.508 53.395 4.755 1.328 9.761 2.053 14.94 2.053 30.623 0 55.448-24.825 55.448-55.448s-24.825-55.448-55.448-55.448z" fill="#f0d062"/></g><g><path d="m0 416.439h512v81.171h-512z" fill="#ffeed2"/></g><g><path d="m355.452 243.094-109.992 164.391c-2.558 3.823.182 8.954 4.782 8.954h226.451c4.67 0 7.395-5.27 4.695-9.08l-116.459-164.391c-2.331-3.29-7.235-3.225-9.477.126l-109.992 164.391c-2.558 3.823.182 8.954 4.782 8.954h226.451c4.67 0 7.395-5.27 4.695-9.08l-116.459-164.391c-2.331-3.29-7.235-3.225-9.477.126z" fill="#f1cd88"/></g><g><path d="m481.388 407.359-116.459-164.391c-2.331-3.29-7.235-3.225-9.478.126l-9.924 14.833 105.861 149.431c2.699 3.811-.025 9.08-4.695 9.08h30c4.67.001 7.394-5.269 4.695-9.079z" fill="#eec06b"/></g><g><path d="m205.764 312.433h98.175v100.981h-98.175z" fill="#eac881"/></g><g><path d="m332.867 431.122h-156.03v-18.738c0-9.211 7.467-16.678 16.678-16.678h122.674c9.211 0 16.678 7.467 16.678 16.678z" fill="#eac881"/></g><g><path d="m256.071 352.433h-.142c-19.493 0-35.296-15.802-35.296-35.296v-53.74c0-7.431 6.024-13.455 13.455-13.455h43.823c7.431 0 13.455 6.024 13.455 13.455v53.74c0 19.494-15.802 35.296-35.295 35.296z" fill="#f4daa7"/></g><g><path d="m345.657 313.485-32.888-65.597c-3.206-6.395-9.693-10.647-16.847-10.616-2.291.01-4.564-.399-6.708-1.206l-4.406-1.66c-18.569-6.995-39.048-6.995-57.617 0l-4.405 1.659c-2.119.798-4.364 1.207-6.628 1.207-7.114 0-13.618 4.015-16.806 10.374l-33.009 65.839c-.877 1.75-.475 3.868.984 5.172 5.846 5.226 20.098 18.712 21.851 27.476 2.213 11.063-6.587 49.572 37.198 49.572l-3.092-112.053c-.019-.826.475-1.578 1.241-1.889 20.184-8.19 42.765-8.19 62.949 0 .766.311 1.26 1.063 1.241 1.889l-3.092 112.053c43.785 0 34.986-38.509 37.198-49.572 1.753-8.764 16.004-22.251 21.851-27.476 1.46-1.304 1.863-3.422.985-5.172z" fill="#eac881"/></g><g><path d="m504.5 408.939h-12.808l-120.643-170.307c-2.488-3.511-6.52-5.592-10.814-5.592-.06 0-.119.001-.178.001-3.308.044-6.433 1.325-8.811 3.52l-60.866-86.295c-2.523-3.559-6.653-5.634-10.993-5.59-4.361.058-8.413 2.257-10.838 5.882l-32.251 48.201-26.427-37.547c-3.01-4.248-7.9-6.763-13.121-6.674-5.207.069-10.044 2.694-12.939 7.022l-80.251 119.94c-2.304 3.443-1.38 8.101 2.063 10.404 1.281.857 2.73 1.268 4.164 1.268 2.419 0 4.794-1.169 6.24-3.33l21.678-32.399h20.303c4.143 0 7.5-3.358 7.5-7.5s-3.357-7.5-7.5-7.5h-10.268l48.537-72.542c.059-.089.24-.359.672-.365.461 0 .621.259.669.328l38.105 54.138c-3.776.882-7.51 2.004-11.176 3.385l-4.404 1.66c-1.278.482-2.619.726-3.984.726-10.015 0-19.023 5.561-23.51 14.513l-33.011 65.841c-2.387 4.764-1.281 10.571 2.691 14.124 12.469 11.144 18.775 19.76 19.494 23.355.259 1.294.305 4.069.349 6.754.143 8.7.395 23.107 8.406 34.032-10.818 1.317-19.452 9.8-20.992 20.548h-131.707c-.147 0-.492 0-.725-.435-.232-.435-.04-.722.042-.845l26.138-39.066h19.299c4.143 0 7.5-3.358 7.5-7.5s-3.357-7.5-7.5-7.5h-9.263l25.279-37.782c2.304-3.443 1.38-8.101-2.063-10.404-3.443-2.304-8.101-1.379-10.404 2.063l-61.454 91.848c-1.937 2.894-2.821 6.272-2.646 9.621h-14.582c-4.143 0-7.5 3.358-7.5 7.5s3.357 7.5 7.5 7.5h161.837v7.183c0 4.142 3.357 7.5 7.5 7.5h156.03c4.143 0 7.5-3.358 7.5-7.5v-7.185c.01 0 .02.001.03.001h164.103c4.143 0 7.5-3.358 7.5-7.5s-3.357-7.5-7.5-7.5zm-258.949-197.034 34.052-50.893 23.003 32.612h-8.984c-4.143 0-7.5 3.358-7.5 7.5s3.357 7.5 7.5 7.5h19.564l28.896 40.967-11.472 17.146-11.135-22.21c-4.498-8.973-13.705-14.755-23.478-14.755-.051-.001-.101-.001-.154 0-1.365 0-2.705-.244-3.983-.725l-4.406-1.66c-11.261-4.242-23.156-6.119-34.982-5.651zm-71.425 102.79 31.932-63.688c1.928-3.846 5.798-6.235 10.101-6.235 3.178 0 6.297-.568 9.272-1.689l4.404-1.66c16.873-6.355 35.457-6.355 52.33 0l4.405 1.66c2.975 1.12 6.093 1.688 9.27 1.688.054.001.108.001.156 0 4.145 0 8.093 2.539 10.068 6.478l31.809 63.446c-9.563 8.757-20.521 20.541-22.406 29.968-.525 2.628-.577 5.79-.638 9.45-.284 17.284-2.079 30.757-21.482 33.568l2.866-103.859c.088-3.915-2.291-7.535-5.919-9.007-22.117-8.974-46.476-8.973-68.589 0-3.629 1.472-6.008 5.092-5.919 9.046l2.865 103.82c-19.402-2.811-21.197-16.284-21.482-33.568-.061-3.66-.112-6.821-.638-9.449-1.885-9.428-12.845-21.214-22.405-29.969zm105.769 16.738c-.031.048-.066.092-.097.142-5.113 8.365-14.01 13.359-23.798 13.359-9.306 0-17.963-4.62-23.157-12.359-.221-.329-.47-.628-.731-.911l-1.222-44.288c16.322-5.714 33.893-5.714 50.221 0zm-46.223 56.773-.97-35.172c6.84 4.433 14.892 6.899 23.299 6.899 8.463 0 16.492-2.426 23.297-6.835l-.969 35.108zm91.695 35.416h-141.03v-11.238c0-5.061 4.117-9.178 9.178-9.178h122.675c5.06 0 9.178 4.117 9.178 9.178v11.238zm14.753-14.669c-1.437-10.067-9.094-18.155-18.945-20.228 8.255-10.964 8.509-25.578 8.654-34.367.044-2.685.09-5.46.349-6.754.719-3.595 7.025-12.211 19.496-23.357 3.971-3.551 5.076-9.358 2.688-14.124l-14.022-27.967 21.935-32.784 31.394 44.315h-11.004c-4.143 0-7.5 3.358-7.5 7.5s3.357 7.5 7.5 7.5h20.636c.322 0 .636-.027.947-.066l71.068 100.317h-132.919c-.093.001-.185.012-.277.015z"/><path d="m108.063 140.286c21.858 0 41.829-11.081 53.422-29.64 2.194-3.513 1.125-8.14-2.388-10.334-3.515-2.194-8.14-1.126-10.335 2.388-8.834 14.143-24.049 22.587-40.699 22.587-26.438 0-47.948-21.509-47.948-47.948 0-26.438 21.51-47.948 47.948-47.948s47.947 21.509 47.947 47.947c0 4.142 3.357 7.5 7.5 7.5s7.5-3.358 7.5-7.5c0-34.709-28.238-62.948-62.947-62.948-34.71 0-62.948 28.238-62.948 62.948-.001 34.71 28.238 62.948 62.948 62.948z"/><path d="m407.042 353.594h-20.636c-4.143 0-7.5 3.358-7.5 7.5s3.357 7.5 7.5 7.5h20.636c4.143 0 7.5-3.358 7.5-7.5s-3.357-7.5-7.5-7.5z"/><path d="m125.705 449.524h-63.707c-4.143 0-7.5 3.358-7.5 7.5s3.357 7.5 7.5 7.5h63.707c4.143 0 7.5-3.358 7.5-7.5s-3.357-7.5-7.5-7.5z"/><path d="m461.572 461.817h-31.854c-4.143 0-7.5 3.358-7.5 7.5s3.357 7.5 7.5 7.5h31.854c4.143 0 7.5-3.358 7.5-7.5s-3.357-7.5-7.5-7.5z"/></g></g></svg>