<svg id="Layer_1" enable-background="new 0 0 506.129 506.129" height="512" viewBox="0 0 506.129 506.129" width="512" xmlns="http://www.w3.org/2000/svg"><g><g><path d="m201.091 11.26-28.52 45.632c-12.054 19.286-14.467 43.077-6.531 64.391l20.777 58.201 28.994-33.21v-130.792c.001-8.003-10.478-11.008-14.72-4.222z" fill="#e4b052"/></g><g><path d="m343.958 104.645c-.691 5.629-2.04 11.214-4.06 16.637l-20.777 58.201-28.994-33.21v-130.791c0-8.003 10.479-11.008 14.72-4.222l28.52 45.632c3.526 5.642 6.228 11.67 8.086 17.909" fill="#e4b052"/></g><g><path d="m292.181 114.753c-2.255-5.417-7.547-8.947-13.414-8.947h-51.594c-5.868 0-11.16 3.529-13.414 8.947l-45.832 110.117 85.043 54.091 85.043-54.091z" fill="#ffeed2"/></g><g><path d="m302.171 138.756 35.841 86.114-35.841 22.797-35.841-22.797zm-98.403 0-35.841 86.114 35.841 22.797 35.841-22.797z" fill="#eec06b"/></g><g><path d="m338.202 224.87h-170.275l-.387.648c-20.635 34.577-28.238 75.389-21.439 115.078l24.709 144.233c1.366 7.972 8.277 13.801 16.366 13.801h131.776c8.089 0 15-5.828 16.366-13.801l24.709-144.233c6.799-39.688-.804-80.5-21.439-115.078z" fill="#eac881"/></g><g><path d="m338.589 225.518-.387-.648h-30l.387.648c20.635 34.577 28.238 75.389 21.439 115.078l-24.709 144.233c-1.366 7.972-8.277 13.801-16.366 13.801h30c8.089 0 15-5.829 16.366-13.801l24.709-144.233c6.799-39.688-.804-80.5-21.439-115.078z" fill="#e4b052"/></g><g><path d="m350.373 396.956 6.713-39.189h-208.043l6.714 39.189z" fill="#e4b052"/></g><g><path d="m327.086 357.767-6.713 39.189h30l6.713-39.189z" fill="#dd9e32"/></g><path d="m345.03 221.677-17.871-42.401 19.786-55.425c1.59-4.28 2.824-8.723 3.667-13.206.766-4.071-1.914-7.992-5.984-8.757-4.072-.767-7.992 1.914-8.757 5.984-.689 3.665-17.285 50.804-17.285 50.804s-20.401-48.801-20.958-49.727v-93.467c0-.249 0-.351.337-.448.339-.097.393-.01.523.201l28.52 45.632c3.131 5.01 5.574 10.419 7.258 16.075 1.183 3.97 5.361 6.229 9.329 5.047 3.97-1.183 6.229-5.359 5.047-9.329-2.069-6.947-5.069-13.59-8.914-19.743l-28.52-45.632c-3.694-5.91-10.677-8.588-17.379-6.669-6.7 1.922-11.202 7.896-11.202 14.867v83.175c-1.26-.223-2.549-.351-3.861-.351h-51.594c-1.313 0-2.601.128-3.861.351v-83.176c0-6.97-4.502-12.945-11.202-14.867-6.699-1.923-13.684.759-17.378 6.669l-28.52 45.632c-13.187 21.1-15.885 47.613-7.218 70.936l19.786 55.424-17.68 42.399c-21.535 36.085-29.487 78.769-22.391 120.188l24.709 144.233c1.988 11.608 11.98 20.034 23.758 20.034h131.776c11.777 0 21.769-8.425 23.758-20.034l24.709-144.233c7.098-41.419-.854-84.103-22.388-120.186zm-104.414 269.452h-43.233l21.617-69.064zm-11.41-86.673h45.047l-22.524 71.962zm55.254 17.609 21.617 69.064h-43.233zm.052-32.609c-.017 0-.033-.001-.05-.001-.019 0-.038.001-.057.001h-65.353c-.016 0-.033-.001-.05-.001-.019 0-.038.001-.057.001h-56.864l-4.144-24.189h190.255l-4.144 24.189zm-81.424-113.887h-47.712c3.492-15.04 9.134-29.603 16.854-43.199h161.67c7.72 13.595 13.362 28.159 16.854 43.199h-117.666c-4.142 0-7.5 3.358-7.5 7.5s3.358 7.5 7.5 7.5h120.414c2.165 16.089 1.914 32.53-.866 48.76l-1.874 10.937h-195.395l-1.874-10.937c-2.78-16.23-3.031-32.671-.867-48.76h50.461c4.142 0 7.5-3.358 7.5-7.5.001-4.142-3.357-7.5-7.499-7.5zm.68-117.294 24.596 59.096h-49.191zm122.999 59.095h-49.191l24.596-59.096zm-48-104.064c2.848 0 5.396 1.699 6.49 4.328l5.669 13.622h-20.968c-4.142 0-7.5 3.358-7.5 7.5s3.358 7.5 7.5 7.5h20.968l-29.598 71.114h-16.717l-29.598-71.114h20.596c4.142 0 7.5-3.358 7.5-7.5s-3.358-7.5-7.5-7.5h-20.595l5.669-13.621c1.094-2.629 3.642-4.329 6.49-4.329zm-105.663 5.455c-.011-.032-.023-.064-.035-.096-7.075-18.999-4.883-40.607 5.862-57.799l28.52-45.632c.131-.21.186-.298.523-.201s.337.199.337.448v93.467c-.558.926-20.958 49.727-20.958 49.727zm-8.453 285.695h44.142l-26.652 85.153c-2.029-1.347-3.5-3.489-3.938-6.047zm163.276 79.106c-.592 3.456-3.065 6.157-6.263 7.15l-26.998-86.256h46.813z"/></g></svg>