<svg id="Layer_1" enable-background="new 0 0 510.831 510.831" height="512" viewBox="0 0 510.831 510.831" width="512" xmlns="http://www.w3.org/2000/svg"><g><g><path d="m352.485 202.216-97.073-70-97.073 70c-23.812 39.902-32.586 86.998-24.74 132.798l27.813 151.325c1.682 9.816 10.191 16.992 20.15 16.992h71.199 5.303 71.199c9.959 0 18.468-7.176 20.15-16.992l27.813-151.325c7.845-45.8-.929-92.896-24.741-132.798z" fill="#f4daa7"/></g><g><path d="m158.338 202.216c-12.528 20.993-20.887 43.977-24.859 67.716 24.519 41.833 69.941 69.93 121.933 69.93s97.414-28.097 121.933-69.93c-3.973-23.739-12.332-46.723-24.859-67.715" fill="#eec06b"/></g><g><path d="m352.485 202.216-97.073-70-15 10.817 82.073 59.183c23.812 39.902 32.586 86.998 24.74 132.798l-27.813 151.325c-1.682 9.816-10.191 16.992-20.15 16.992h30c9.959 0 18.468-7.176 20.15-16.992l27.813-151.325c7.846-45.8-.928-92.896-24.74-132.798z" fill="#f1cd88"/></g><g><path d="m352.485 202.216h-30c1.652 2.769 3.232 5.572 4.739 8.408 20.952 39.424 7.056 88.408-31.677 110.612-16.562 9.494-35.232 15.729-55.135 17.831 4.93.521 9.932.796 15 .796 51.992 0 97.414-28.097 121.933-69.93-3.973-23.74-12.332-46.724-24.86-67.717z" fill="#e4b052"/></g><g><path d="m305.301 168.191-49.889-35.975-53.89 38.86v84.407h53.89 49.889z" fill="#dd9e32"/></g><g><path d="m223.712 255.627 13.766-112.684 17.933-21.461 17.914 21.305 13.785 112.839c21.28 0 40.951-11.328 51.632-29.733l13.741-23.678-5.893-108.387c-1.763-32.417-20.604-61.46-49.487-76.282-26.173-13.432-57.214-13.432-83.387 0-28.883 14.823-47.724 43.866-49.486 76.282l-5.893 108.387 13.741 23.678c10.683 18.406 30.354 29.734 51.634 29.734z" fill="#62a4fb"/></g><g><path d="m346.592 93.829c-1.763-32.417-20.604-61.46-49.487-76.282-17.677-9.072-37.574-12.007-56.693-8.825 9.188 1.53 18.198 4.465 26.693 8.825 28.883 14.823 47.724 43.866 49.487 76.282l5.893 108.387-13.741 23.678c-5.482 9.447-13.336 17.022-22.557 22.165l.924 7.568c21.28 0 40.951-11.328 51.632-29.733l13.741-23.678z" fill="#5392f9"/></g><g><path d="m238.325 164.139c.154.077.307.153.46.229 10.148 4.995 22.067 5.015 32.311.218.341-.16.682-.322 1.024-.488 9.416-4.567 16.51-12.85 19.719-22.811l17.1-53.092c2.484-5.969-1.901-12.544-8.366-12.544h-90.32c-6.465 0-10.851 6.576-8.366 12.544l17.188 53.367c3.151 9.789 10.053 17.976 19.25 22.577z" fill="#ffeed2"/></g><g><circle cx="255.412" cy="339.862" fill="#5de1c4" r="35.231"/></g><g><path d="m255.412 304.632c-5.366 0-10.448 1.205-15 3.35 11.954 5.635 20.231 17.789 20.231 31.88 0 14.092-8.276 26.246-20.231 31.88 4.552 2.145 9.634 3.351 15 3.351 19.457 0 35.231-15.773 35.231-35.231-.001-19.457-15.774-35.23-35.231-35.23z" fill="#0ab69f"/></g><path d="m359.876 200.008-5.796-106.586c-1.9-34.94-22.42-66.571-53.552-82.548-28.249-14.497-61.983-14.498-90.235.001-31.132 15.977-51.651 47.607-53.551 82.547l-3.189 58.659c-.225 4.136 2.946 7.671 7.081 7.896 4.136.23 7.671-2.946 7.896-7.081l3.189-58.659c1.612-29.636 19.017-56.465 45.422-70.018 23.964-12.297 52.576-12.296 76.538 0 26.406 13.552 43.811 40.38 45.422 70.017l5.772 106.152-12.617 21.742c-8.193 14.118-22.582 23.527-38.559 25.577l-10.027-82.075c7.087-5.607 12.485-13.287 15.305-22.045l17.019-52.84c1.974-5.041 1.367-10.706-1.645-15.223-3.079-4.617-8.23-7.373-13.779-7.373h-90.32c-5.549 0-10.7 2.756-13.779 7.373-3.013 4.517-3.618 10.182-1.645 15.223l17.107 53.115c2.804 8.705 8.165 16.369 15.192 21.965l-10.002 81.88c-15.976-2.049-30.365-11.459-38.558-25.577l-12.652-21.801.623-16.559c.156-4.139-3.074-7.621-7.213-7.776-4.152-.167-7.621 3.074-7.776 7.213l-.634 16.858c-23.958 41.045-32.739 89.335-24.692 136.306l27.797 151.235c2.305 13.458 13.889 23.225 27.542 23.225h147.702c13.653 0 25.237-9.767 27.526-23.136l19.582-106.543c.749-4.074-1.946-7.983-6.021-8.732-4.068-.746-7.983 1.947-8.732 6.021l-4.654 25.323h-203.104l-12.869-70.015c-2.445-14.272-3.197-28.684-2.332-42.955 18.873 23.978 44.535 41.517 74.055 50.34.676 22.975 19.563 41.46 42.699 41.46 23.134 0 42.019-18.483 42.698-41.456 29.499-8.828 55.199-26.41 74.061-50.351.866 14.25.116 28.635-2.322 42.872l-2.863 15.575c-.749 4.074 1.946 7.983 6.02 8.732.459.084.915.125 1.365.125 3.549 0 6.703-2.53 7.367-6.145l2.88-15.665c8.035-46.905-.759-95.217-24.742-136.273zm-91.788 295.823h-24.386v-77.068h24.386zm15-77.068h24.385v77.068h-24.385zm-54.386 77.068h-24.385v-77.068h24.385zm113.318-10.759c-1.067 6.234-6.434 10.758-12.758 10.758h-6.79v-77.068h31.735zm-152.703-66.309v77.068h-7.756c-6.324 0-11.689-4.524-12.773-10.848l-12.171-66.22zm51.989-245.307c4.484 1.469 9.133 2.222 13.799 2.222 4.844 0 9.701-.796 14.392-2.383l9.142 74.831h-46.455zm-32.282-87.56c-.064-.197-.135-.392-.214-.583-.266-.638-.069-1.15.142-1.467.212-.317.609-.695 1.3-.695h90.32c.69 0 1.088.378 1.3.695.211.317.407.829.142 1.467-.08.191-.151.385-.215.583l-17.1 53.093c-2.589 8.038-8.367 14.73-15.849 18.36-.313.151-.626.3-.936.446-8.305 3.889-17.716 3.832-25.81-.151l-.424-.211c-7.286-3.645-12.924-10.268-15.469-18.169zm46.388 281.697c-15.291 0-27.731-12.44-27.731-27.731 0-15.29 12.44-27.73 27.731-27.73s27.731 12.44 27.731 27.73c-.001 15.291-12.44 27.731-27.731 27.731zm40.453-41.465c-5.734-16.842-21.696-28.996-40.453-28.996-18.758 0-34.719 12.154-40.453 28.996-30.726-9.718-56.656-30.012-73.602-57.652 3.221-17.66 8.973-34.856 17.154-51.021l7.083 12.204c11.98 20.644 34.25 33.468 58.119 33.468h63.399c23.868 0 46.139-12.824 58.119-33.468l7.083-12.204c8.182 16.167 13.934 33.363 17.157 51.016-16.91 27.576-42.891 47.929-73.606 57.657z"/></g></svg>