<svg id="Layer_1" enable-background="new 0 0 512 512" height="512" viewBox="0 0 512 512" width="512" xmlns="http://www.w3.org/2000/svg"><g><g><path d="m87.128 134.182v-.007c-.032 0-.063.003-.094.004-.032 0-.063-.004-.095-.004v.007c-36.11.303-54.895 86.748-54.895 86.748h54.99 54.99c-.001 0-18.786-86.446-54.896-86.748z" fill="#5de1c4"/></g><g><path d="m481.063 220.93h-112.003c-8.707 0-15.766 7.059-15.766 15.766v30.715h143.535v-30.715c0-8.708-7.059-15.766-15.766-15.766z" fill="#e4b052"/></g><g><path d="m425.25 134.182v-.007c-.032 0-.063.003-.094.004-.032 0-.063-.004-.094-.004v.007c-36.11.303-54.895 86.748-54.895 86.748h54.99 54.99c-.002 0-18.787-86.446-54.897-86.748z" fill="#5de1c4"/></g><g><path d="m87.127 134.182v-.007c-.032 0-.063.003-.094.004-.032 0-.063-.004-.095-.004v.007c-3.462.029-6.763.856-9.905 2.316 29.633 13.773 44.99 84.431 44.99 84.431h20s-18.785-86.445-54.896-86.747z" fill="#0ab69f"/></g><g><path d="m425.25 134.182v-.007c-.032 0-.063.003-.094.004-.032 0-.063-.004-.094-.004v.007c-3.462.029-6.763.856-9.906 2.316 29.633 13.773 44.99 84.431 44.99 84.431h20c-.001 0-18.786-86.445-54.896-86.747z" fill="#0ab69f"/></g><g><path d="m353.293 267.411c-1.977 51.822-44.483 93.347-96.842 93.593-52.666.247-95.756-41.363-97.755-93.593h-143.525c2.043 131.798 109.812 237.707 241.954 237.086 131.386-.617 237.695-106.315 239.7-237.086z" fill="#e4b052"/></g><g><path d="m353.293 267.411c-1.977 51.822-44.483 93.347-96.842 93.593-52.666.247-95.756-41.363-97.755-93.593h-108.178c2.037 112.201 93.875 202.271 206.441 201.743 111.921-.525 202.521-90.416 204.523-201.743z" fill="#ffeed2"/></g><g><path d="m226.452 361.004c4.949-.023 9.81-.417 14.557-1.151-45.41-7.016-80.513-45.422-82.313-92.442h-30c2 52.23 45.09 93.84 97.756 93.593z" fill="#f4daa7"/></g><g><path d="m431.482 267.411c-1.918 106.66-85.165 193.629-190.569 201.197 5.296.384 10.647.571 16.046.546 111.921-.525 202.521-90.416 204.523-201.743z" fill="#f4daa7"/></g><g><path d="m142.941 220.93h-112.004c-8.707 0-15.766 7.059-15.766 15.766v30.715h143.535v-30.715c0-8.708-7.058-15.766-15.765-15.766z" fill="#e4b052"/></g><g><path d="m481.063 220.93h-30c8.708 0 15.766 7.059 15.766 15.766v30.715h30v-30.715c0-8.708-7.059-15.766-15.766-15.766z" fill="#dd9e32"/></g><g><path d="m142.518 220.93h-29.577c8.707.001 15.765 7.059 15.765 15.766v30.715h-113.957 143.535v-30.715c0-8.708-7.058-15.766-15.766-15.766z" fill="#dd9e32"/></g><g><path d="m256.953 465.782 18.206-24.178c12.787-16.982 12.387-40.05-.982-56.611l-17.725-21.957-17.725 21.957c-13.369 16.561-13.77 39.629-.982 56.611l18.206 24.178-.007 1.34.508-.674.508.674z" fill="#ea5c6b"/></g><g><path d="m369.847 430.545 1.506-30.229c1.058-21.231-12.215-40.103-32.574-46.311l-26.992-8.231-2.354 28.12c-1.776 21.21 10.835 40.53 30.948 47.413l28.636 9.8.746 1.113.042-.843.799.273z" fill="#0ab69f"/></g><g><path d="m443.53 338.039-15.713-25.868c-11.036-18.169-32.611-26.343-52.947-20.061l-26.962 8.329 13.828 24.599c10.43 18.554 31.708 27.472 52.219 21.885l29.203-7.953 1.242.503-.438-.721.814-.222z" fill="#ea5c6b"/></g><g><path d="m143.057 430.545-1.506-30.229c-1.058-21.231 12.216-40.103 32.574-46.311l26.992-8.231 2.354 28.12c1.776 21.21-10.835 40.53-30.948 47.413l-28.636 9.8-.747 1.113-.042-.843-.799.273z" fill="#0ab69f"/></g><g><path d="m69.373 338.039 15.713-25.868c11.036-18.169 32.611-26.343 52.947-20.061l26.962 8.329-13.828 24.599c-10.43 18.554-31.708 27.472-52.219 21.885l-29.203-7.953-1.242.503.438-.721-.814-.222z" fill="#ea5c6b"/></g><path d="m504.329 236.696c0-11.063-7.764-20.341-18.128-22.687-1.999-7.91-6.344-23.488-13.06-39.276-10.894-25.607-23.476-41.077-37.511-46.176-12.316-36.954-35.458-68.744-66.991-91.98-32.472-23.929-71.019-36.577-111.473-36.577-80.812 0-152.362 51.339-178.215 127.804-15 4.148-28.395 19.876-39.904 46.928-6.702 15.759-11.043 31.306-13.047 39.23-10.464 2.271-18.329 11.599-18.329 22.734v30.715c0 .02.003.039.003.059 0 .019-.002.038-.002.057 1.019 65.765 27.456 127.36 74.438 173.438 46.735 45.836 108.432 71.035 173.853 71.035.398 0 .8-.001 1.197-.003 58.418-.274 115.073-21.222 159.528-58.984 3.157-2.682 3.542-7.415.86-10.572-2.681-3.157-7.414-3.542-10.571-.861-41.767 35.478-94.998 55.159-149.888 55.417-.378.002-.747.003-1.125.003-61.465 0-119.442-23.679-163.352-66.744-42.326-41.512-66.89-96.428-69.688-155.346h20.362c2.854 54.575 26.256 105.381 65.966 143.135 39.783 37.821 91.848 58.61 146.723 58.61.337 0 .683-.001 1.019-.003 55.357-.26 107.704-21.638 147.4-60.196 38.763-37.651 61.512-87.803 64.314-141.546h20.377c-2.631 54.965-24.533 107.116-62.142 147.577-2.82 3.034-2.646 7.779.387 10.599 1.444 1.343 3.276 2.007 5.104 2.007 2.012 0 4.018-.805 5.495-2.394 41.873-45.047 65.452-103.707 66.393-165.174 0-.004 0-.007 0-.011 0-.035.005-.069.005-.104v-30.714zm-117.527-45.483c5.794 3.904 12.483 5.857 19.171 5.857 7.08 0 14.153-2.191 20.156-6.548 6.016 4.368 13.093 6.548 20.167 6.548 6.086 0 12.167-1.62 17.568-4.841 2.776 7.658 5.038 15.042 6.705 21.201h-90.833c1.739-6.431 4.122-14.197 7.066-22.217zm71.36-13.225c-7.29 5.658-17.632 5.43-24.672-.764l-2.041-1.796c-.941-.829-2.033-1.374-3.172-1.652-2.496-.833-5.355-.328-7.437 1.571l-1.795 1.639c-7.315 6.679-18.442 6.782-25.879.239l-.498-.438c8.404-18.603 19.596-34.996 32.455-35.104h.064c13.114.108 24.51 17.211 32.975 36.305zm-200.996-162.988c37.23 0 72.699 11.637 102.574 33.652 27.299 20.116 47.765 47.189 59.533 78.625-15.892 3.168-30.034 19.088-42.102 47.456-6.703 15.758-11.044 31.305-13.048 39.229-10.465 2.271-18.329 11.599-18.329 22.734 0 0-.302 12.018-.302 35.194 0 22.232-12.165 42.674-28.579 57.817-16.519 15.24-38.003 23.691-60.496 23.796-.144.001-.284.001-.429.001-22.7 0-43.451-9.518-61.017-23.895-36.265-29.683-28.766-92.914-28.766-92.914 0-11.064-7.764-20.341-18.128-22.688-1.999-7.91-6.344-23.488-13.06-39.275-11.565-27.188-25.036-42.938-40.127-46.991 25.13-67.666 89.634-112.741 162.276-112.741zm106.697 384.943-1.053 21.114-20.001-6.845c-16.729-5.725-27.38-22.046-25.903-39.691l1.579-18.863 18.106 5.521c16.937 5.165 28.151 21.105 27.272 38.764zm-25.911 28.461 18.082 6.188c-26.144 15.342-55.537 24.46-86.217 26.576l11.334-15.052c14.779-19.626 14.312-46.697-1.138-65.834l-10.241-12.686c11.73-1.546 23.053-5.048 33.528-10.347l-1.341 16.021c-2.052 24.507 12.749 47.179 35.993 55.134zm-141.956-53.883c1.478 17.645-9.174 33.966-25.902 39.691l-20.001 6.845-1.053-21.113c-.879-17.659 10.335-33.6 27.271-38.765l18.106-5.521zm-21.045 53.883c23.244-7.955 38.045-30.627 35.992-55.135l-1.301-15.542c10.455 5.158 21.727 8.539 33.4 9.979l-10.152 12.576c-15.448 19.136-15.916 46.208-1.138 65.833l11.384 15.119c-30.864-1.977-60.475-11.059-86.826-26.451zm81.501-53.429 11.889 14.728c11.123 13.778 11.463 33.265.827 47.389l-12.716 16.887-12.717-16.888c-10.636-14.124-10.296-33.611.827-47.389zm-207.971-183.217c5.596 3.538 11.963 5.311 18.33 5.311 7.081 0 14.153-2.191 20.156-6.548 6.016 4.368 13.092 6.548 20.166 6.548 6.408 0 12.809-1.796 18.419-5.365 2.864 7.845 5.19 15.426 6.896 21.725h-90.834c1.698-6.284 4.014-13.844 6.867-21.671zm38.52-50.077h.064c12.969.109 24.258 16.838 32.694 35.676-7.317 6.292-18.141 6.281-25.432-.135l-2.042-1.796c-.922-.811-1.988-1.348-3.101-1.631-2.512-.865-5.406-.366-7.506 1.551l-1.795 1.639c-7.236 6.606-18.191 6.767-25.626.44 8.435-18.866 19.738-35.635 32.744-35.744zm-9.968 118.23h-54.362v-23.215c0-4.558 3.708-8.266 8.267-8.266h112.002c4.558 0 8.266 3.708 8.266 8.266v23.215h-44.173c-4.143 0-7.5 3.358-7.5 7.5s3.357 7.5 7.5 7.5h44.697c.522 4.873 1.379 9.673 2.559 14.372l-14.043-4.338c-23.502-7.26-48.817 2.337-61.57 23.334l-10.709 17.631c-5.396-16.337-8.668-33.453-9.654-50.997h18.721c4.143 0 7.5-3.358 7.5-7.5-.001-4.144-3.358-7.502-7.501-7.502zm76.87 44.952-9.275 16.5c-8.676 15.435-26.649 22.972-43.71 18.325l-20.396-5.555 10.975-18.068c9.178-15.113 27.407-22.016 44.322-16.788zm-76.762 43.895 19.835 5.402c4.687 1.276 9.418 1.891 14.093 1.891 18.976-.001 36.966-10.138 46.635-27.338l7.272-12.936c5.246 9.14 11.897 17.521 19.807 24.842.627.58 1.261 1.152 1.9 1.715l-14.747 4.497c-23.524 7.174-39.1 29.321-37.877 53.859l.984 19.737c-5.34-4.132-10.503-8.545-15.454-13.253-17.842-16.962-32.132-36.762-42.448-58.416zm316.803 56.939c-5.127 4.98-10.49 9.641-16.047 13.995l.948-19.003c1.222-24.537-14.353-46.684-37.878-53.858l-15.429-4.705c.519-.46 1.036-.923 1.547-1.394 8.19-7.556 15.03-16.271 20.376-25.785l7.739 13.766c9.67 17.201 27.657 27.338 46.635 27.338 4.674 0 9.408-.615 14.093-1.891l18.804-5.121c-10.004 20.903-23.725 40.085-40.788 56.658zm-34.944-100.834 18.085-5.587c16.917-5.226 35.143 1.677 44.322 16.788l10.975 18.068-20.396 5.555c-17.064 4.647-35.034-2.891-43.71-18.325zm85.351 20.08-10.123-16.666c-12.753-20.997-38.074-30.593-61.57-23.334l-15.062 4.653c1.224-4.801 2.111-9.706 2.645-14.687h93.453c-.965 17.194-4.132 33.982-9.343 50.034zm-83.557-65.032v-23.215c0-4.558 3.708-8.266 8.266-8.266h112.003c4.559 0 8.267 3.708 8.267 8.266v23.215z"/></g></svg>