<svg id="Layer_1" enable-background="new 0 0 512 512" height="512" viewBox="0 0 512 512" width="512" xmlns="http://www.w3.org/2000/svg"><g><g><path d="m357.606 157.346h-203.212c-5.846 0-10.586-4.739-10.586-10.586v-7.852c0-5.846 4.739-10.586 10.586-10.586h203.212c5.846 0 10.586 4.739 10.586 10.586v7.852c0 5.847-4.739 10.586-10.586 10.586z" fill="#eac881"/></g><g><path d="" fill="#e4b052"/></g><g><path d="m312.392 188.734 21.849-31.388h-161.91l21.848 31.388" fill="#e4b052"/></g><g><path d="m311.283 243.254-57.64-36.824-57.64 36.824.007.13c4.298 79.075-3.553 154.23-23.277 230.926l-6.753 26.257c-.241 2.096 1.398 3.933 3.507 3.933h168.311c2.109 0 3.748-1.838 3.507-3.933l-6.772-26.344c-19.719-76.711-27.561-151.882-23.25-230.969z" fill="#f1cd88"/></g><g><path d="m334.534 474.223c-19.215-74.744-27.146-148.027-23.553-224.895h-30c-3.593 76.868 4.339 150.151 23.553 224.895l6.772 26.344c.241 2.096-1.398 3.933-3.507 3.933h30c2.109 0 3.748-1.838 3.507-3.933z" fill="#eec06b"/></g><g><path d="m197.127 290.531c-.146 19.849-1.081 39.514-2.798 59.085h118.628c-1.717-19.572-2.652-39.237-2.798-59.085z" fill="#80b6fc"/></g><g><path d="m310.159 290.531h-30c.147 19.849 1.081 39.513 2.798 59.085h30c-1.717-19.572-2.651-39.237-2.798-59.085z" fill="#62a4fb"/></g><g><path d="m357.606 36.524h-203.212c-5.846 0-10.586-4.739-10.586-10.586v-7.852c0-5.846 4.739-10.586 10.586-10.586h203.212c5.846 0 10.586 4.74 10.586 10.586v7.852c0 5.847-4.739 10.586-10.586 10.586z" fill="#eac881"/></g><g><path d="m172.331 36.524 21.848 31.387h118.213l21.849-31.387z" fill="#e4b052"/></g><g><path d="m357.606 96.935h-203.212c-5.846 0-10.586-4.74-10.586-10.586v-7.852c0-5.846 4.739-10.586 10.586-10.586h203.212c5.846 0 10.586 4.74 10.586 10.586v7.852c0 5.847-4.739 10.586-10.586 10.586z" fill="#eac881"/></g><g><path d="m172.331 96.935 21.848 31.387h118.213l21.849-31.387z" fill="#e4b052"/></g><g><path d="m248.5 188.734h109.106c5.846 0 10.586 4.74 10.586 10.586v7.852c0 5.846-4.74 10.586-10.586 10.586h-203.212c-5.846 0-10.586-4.74-10.586-10.586v-7.852c0-5.846 4.739-10.586 10.586-10.586z" fill="#eac881"/></g><g><path d="m357.606 128.322h-30c5.846 0 10.586 4.739 10.586 10.586v7.852c0 5.846-4.74 10.586-10.586 10.586h30c5.846 0 10.586-4.739 10.586-10.586v-7.852c0-5.846-4.739-10.586-10.586-10.586z" fill="#e4b052"/></g><g><path d="m355.824 7.5h-28.218c5.846 0 10.586 4.74 10.586 10.586v7.852c0 5.846-4.74 10.586-10.586 10.586h28.218c5.846 0 10.586-4.739 10.586-10.586v-7.852c0-5.846-4.739-10.586-10.586-10.586z" fill="#e4b052"/></g><g><path d="m357.606 67.911h-30c5.846 0 10.586 4.74 10.586 10.586v7.852c0 5.846-4.74 10.586-10.586 10.586h30c5.846 0 10.586-4.74 10.586-10.586v-7.852c0-5.846-4.739-10.586-10.586-10.586z" fill="#e4b052"/></g><g><path d="m357.606 188.734h-30c5.846 0 10.586 4.74 10.586 10.586v7.852c0 5.846-4.74 10.586-10.586 10.586h30c5.846 0 10.586-4.74 10.586-10.586v-7.852c0-5.847-4.739-10.586-10.586-10.586z" fill="#e4b052"/></g><g><path d="m172.331 217.758 21.848 31.387h118.213l21.849-31.387z" fill="#e4b052"/></g><g><circle cx="256" cy="398.091" r="7.5"/><circle cx="256" cy="430.446" r="7.5"/><path d="m357.606 44.024c9.973 0 18.086-8.113 18.086-18.086v-7.852c0-9.973-8.113-18.086-18.086-18.086h-203.212c-9.973 0-18.086 8.113-18.086 18.086v7.852c0 9.973 8.113 18.086 18.086 18.086h14.02l11.407 16.387h-25.427c-9.973 0-18.086 8.113-18.086 18.086v7.852c0 9.973 8.113 18.086 18.086 18.086h14.02l11.407 16.387h-25.427c-9.973 0-18.086 8.113-18.086 18.086v7.852c0 9.973 8.113 18.086 18.086 18.086h14.02l11.406 16.387h-25.426c-9.973 0-18.086 8.113-18.086 18.086v7.852c0 9.973 8.113 18.086 18.086 18.086h14.02l20.623 29.629c2.928 73.304-4.786 144.522-23.568 217.554l-6.882 26.758-.059.513c-.357 3.121.636 6.255 2.727 8.599s5.092 3.689 8.232 3.689h168.311c3.142 0 6.143-1.345 8.233-3.69 2.091-2.345 3.083-5.48 2.725-8.601l-.06-.511-6.9-26.842c-18.861-73.368-26.551-144.902-23.503-218.56l19.864-28.538h19.449c9.973 0 18.086-8.113 18.086-18.086v-7.852c0-9.973-8.113-18.086-18.086-18.086h-30.855l11.406-16.387h19.449c9.973 0 18.086-8.113 18.086-18.086v-7.852c0-9.973-8.113-18.086-18.086-18.086h-30.856l11.407-16.387h19.449c9.973 0 18.086-8.113 18.086-18.086v-7.852c0-9.973-8.113-18.086-18.086-18.086h-30.856l11.407-16.387h19.449zm-206.298-18.086v-7.852c0-1.702 1.385-3.086 3.086-3.086h203.213c1.701 0 3.086 1.384 3.086 3.086v7.852c0 1.702-1.385 3.086-3.086 3.086h-203.213c-1.702 0-3.086-1.384-3.086-3.086zm151.454 272.436c.083 4.67.21 9.335.38 13.995h-98.998c.17-4.66.297-9.325.38-13.995zm-99.314 28.994h100.39c.284 5.004.619 10.004 1.004 15.002h-102.397c.385-4.998.719-9.998 1.003-15.002zm99.198-43.994h-98.006c-.019-8.884-.187-17.791-.517-26.729h99.041c-.331 8.938-.499 17.844-.518 26.729zm24.624 192.716 5.375 20.91h-158.004l5.355-20.823c10.267-39.925 17.288-79.323 21.137-118.807h105.022c3.845 39.455 10.858 78.824 21.115 118.72zm33.422-276.77v7.852c0 1.702-1.385 3.086-3.086 3.086h-111.77c-4.143 0-7.5 3.358-7.5 7.5s3.357 7.5 7.5 7.5h74.045l-11.407 16.387h-110.377l-11.407-16.387h29.147c4.143 0 7.5-3.358 7.5-7.5s-3.357-7.5-7.5-7.5h-61.443c-1.701 0-3.086-1.384-3.086-3.086v-7.852c0-1.702 1.385-3.086 3.086-3.086h203.213c1.701 0 3.085 1.384 3.085 3.086zm-52.217-18.086h-110.378l-11.407-16.387h133.192zm52.217-42.326v7.852c0 1.702-1.385 3.086-3.086 3.086h-203.212c-1.701 0-3.086-1.384-3.086-3.086v-7.852c0-1.702 1.385-3.086 3.086-3.086h203.213c1.701 0 3.085 1.385 3.085 3.086zm0-60.411v7.852c0 1.702-1.385 3.086-3.086 3.086h-117.041c-4.143 0-7.5 3.358-7.5 7.5s3.357 7.5 7.5 7.5h79.317l-11.407 16.387h-110.379l-11.407-16.387h23.876c4.143 0 7.5-3.358 7.5-7.5s-3.357-7.5-7.5-7.5h-56.172c-1.701 0-3.086-1.384-3.086-3.086v-7.852c0-1.702 1.385-3.086 3.086-3.086h203.213c1.702 0 3.086 1.384 3.086 3.086zm-52.217-18.086h-110.379l-11.407-16.387h133.193z"/></g></g></svg>