<svg id="Layer_1" enable-background="new 0 0 509.968 509.968" height="512" viewBox="0 0 509.968 509.968" width="512" xmlns="http://www.w3.org/2000/svg"><g><g><path d="m302.377 454.673h-94.785l19.798-374.997c.134-2.544.629-5.056 1.469-7.461l21.558-61.701c1.72-4.019 7.417-4.019 9.137 0l21.558 61.701c.84 2.405 1.335 4.917 1.469 7.461z" fill="#ffeed2"/></g><g><path d="m282.579 79.676c-.134-2.544-.629-5.056-1.469-7.461l-21.558-61.701c-1.72-4.019-7.417-4.019-9.137 0l-10.432 29.857 11.126 31.844c.84 2.405 1.335 4.917 1.469 7.461l19.797 374.997h30z" fill="#f4daa7"/></g><g><path d="m352.652 502.468h-195.336v-41.089c0-3.951 3.203-7.154 7.154-7.154h181.028c3.951 0 7.154 3.203 7.154 7.154z" fill="#a29aa5"/></g><g><path d="m313.677 402.879h-117.386c-4.625 0-8.374 3.749-8.374 8.374v42.972h134.133v-42.972c.001-4.625-3.748-8.374-8.373-8.374z" fill="#eac881"/></g><g><path d="m345.498 454.225h-30c3.951 0 7.154 3.203 7.154 7.154v41.089h30v-41.089c0-3.951-3.203-7.154-7.154-7.154z" fill="#8c818f"/></g><g><path d="m313.677 401.665h-28.206v1.411c3.762.822 6.58 4.168 6.58 8.177v41.758h30v-42.972c0-4.625-3.749-8.374-8.374-8.374z" fill="#eec06b"/></g><g><path d="m345.498 446.725h-15.948v-35.472c0-8.753-7.121-15.874-15.874-15.874h-6.92l-14.082-266.729c-.218-4.137-3.771-7.314-7.885-7.094-4.137.219-7.313 3.748-7.094 7.885l1.052 19.933h-47.529l3.659-69.304c.097-1.834.453-3.645 1.06-5.382l19.046-54.511 19.045 54.51c.607 1.738.964 3.549 1.061 5.385l1.049 19.861c.218 4.137 3.766 7.306 7.885 7.094 4.137-.219 7.313-3.749 7.094-7.885l-1.049-19.86c-.171-3.252-.803-6.462-1.878-9.541l-21.558-61.7c-.056-.161-.118-.32-.184-.477-1.967-4.595-6.466-7.564-11.464-7.564s-9.497 2.969-11.464 7.563c-.066.157-.129.316-.185.477l-21.559 61.702c-1.074 3.078-1.706 6.288-1.877 9.538l-16.689 316.098h-6.92c-8.753 0-15.874 7.121-15.874 15.874v35.472h-15.946c-8.08 0-14.654 6.574-14.654 14.654v41.089c0 4.142 3.357 7.5 7.5 7.5h22.603c4.143 0 7.5-3.358 7.5-7.5s-3.357-7.5-7.5-7.5h-15.103v-33.243h180.336v33.243h-135.233c-4.143 0-7.5 3.358-7.5 7.5s3.357 7.5 7.5 7.5h142.733c4.143 0 7.5-3.358 7.5-7.5v-41.089c0-8.079-6.574-14.653-14.654-14.653zm-118.52-217.003c.654.186 1.341.292 2.054.292h51.904c.713 0 1.401-.106 2.054-.292l2.682 50.8h-61.377zm52.562-65.348 2.68 50.758c-.418-.072-.845-.118-1.284-.118h-51.904c-.439 0-.866.045-1.284.118l2.68-50.758zm-56.037 131.148h62.961l5.272 99.856h-73.504zm-28.086 115.731c0-.482.392-.874.874-.874h117.385c.482 0 .874.392.874.874v35.472h-119.133z"/><path d="m247.484 109.181v12.008c0 4.142 3.357 7.5 7.5 7.5s7.5-3.358 7.5-7.5v-12.008c0-4.142-3.357-7.5-7.5-7.5s-7.5 3.358-7.5 7.5z"/><path d="m262.725 354.786h-15.482c-4.143 0-7.5 3.358-7.5 7.5s3.357 7.5 7.5 7.5h7.982v6.781c0 4.142 3.357 7.5 7.5 7.5s7.5-3.358 7.5-7.5v-14.281c0-4.142-3.357-7.5-7.5-7.5z"/><path d="m247.243 339.822h15.482c4.143 0 7.5-3.358 7.5-7.5s-3.357-7.5-7.5-7.5h-7.982v-6.781c0-4.142-3.357-7.5-7.5-7.5s-7.5 3.358-7.5 7.5v14.281c0 4.142 3.357 7.5 7.5 7.5z"/><path d="m260.712 241.503c-1.407-1.407-3.314-2.197-5.304-2.197-1.989 0-3.896.79-5.304 2.197l-10.947 10.947c-2.929 2.929-2.929 7.678 0 10.606 1.465 1.464 3.385 2.197 5.304 2.197s3.839-.732 5.304-2.197l5.644-5.644 4.794 4.794c2.93 2.929 7.679 2.93 10.606 0 2.93-2.929 2.93-7.677.001-10.607z"/><path d="m249.373 199.725c1.407 1.407 3.314 2.197 5.304 2.197 1.989 0 3.897-.79 5.304-2.197l7.932-7.932c2.929-2.929 2.929-7.678-.001-10.607-2.928-2.929-7.677-2.928-10.607.001l-2.628 2.628-2.013-2.013c-2.93-2.929-7.678-2.929-10.607 0s-2.929 7.678 0 10.606z"/></g></g></svg>