<svg id="Layer_1" enable-background="new 0 0 509.659 509.659" height="512" viewBox="0 0 509.659 509.659" width="512" xmlns="http://www.w3.org/2000/svg"><g><g><path d="m431.248 465.119h-352.837v-55.748c0-52.047 42.192-94.239 94.239-94.239h164.36c52.047 0 94.239 42.192 94.239 94.239v55.748z" fill="#eac881"/></g><g><path d="m337.01 315.133h-30c52.047 0 94.239 42.192 94.239 94.239v55.748h30v-55.748c-.001-52.048-42.193-94.239-94.239-94.239z" fill="#e4b052"/></g><g><path d="m148.521 225.137h212.617v124.494h-212.617z" fill="#eac881"/></g><g><path d="m183.864 502.159h-128.881c-4.83 0-8.745-3.915-8.745-8.745v-33.293c0-17.697 14.346-32.042 32.042-32.042h82.286c17.696 0 32.042 14.346 32.042 32.042v33.293c.001 4.83-3.915 8.745-8.744 8.745z" fill="#eac881"/></g><g><path d="m454.676 502.159h-128.88c-4.83 0-8.745-3.915-8.745-8.745v-33.293c0-17.697 14.346-32.042 32.042-32.042h82.286c17.696 0 32.042 14.346 32.042 32.042v33.293c0 4.83-3.915 8.745-8.745 8.745z" fill="#eac881"/></g><g><path d="m160.567 428.079h-30c17.696 0 32.042 14.346 32.042 32.043v33.293c0 4.83-3.915 8.745-8.745 8.745h30c4.83 0 8.745-3.915 8.745-8.745v-33.293c0-17.697-14.346-32.043-32.042-32.043z" fill="#e4b052"/></g><g><path d="m431.379 428.079h-30c17.696 0 32.042 14.346 32.042 32.043v33.293c0 4.83-3.915 8.745-8.745 8.745h30c4.83 0 8.745-3.915 8.745-8.745v-33.293c0-17.697-14.345-32.043-32.042-32.043z" fill="#e4b052"/></g><g><path d="m261.434 282.942h-13.208c-39.995 0-72.417-32.422-72.417-72.417v-128.976c0-15.246 12.359-27.605 27.605-27.605h102.831c15.246 0 27.605 12.359 27.605 27.605v128.977c.001 39.994-32.422 72.416-72.416 72.416z" fill="#f4daa7"/></g><g><path d="m455.155 195.919-73.483-146.568c-7.163-14.288-21.658-23.789-37.642-23.72-5.119.022-10.198-.892-14.987-2.696l-9.845-3.708c-41.489-15.629-87.248-15.629-128.737 0l-9.843 3.708c-4.734 1.783-9.751 2.697-14.809 2.697-15.894 0-30.427 8.971-37.551 23.179l-73.754 147.108c-1.96 3.91-1.062 8.642 2.2 11.557 13.063 11.676 44.906 41.809 48.822 61.392 4.944 24.719-14.716 110.761 83.114 110.761l-6.908-250.365c-.042-1.846 1.061-3.526 2.772-4.221 45.098-18.299 95.553-18.299 140.651 0 1.711.694 2.815 2.374 2.772 4.221l-6.909 250.365c97.83 0 78.17-86.042 83.114-110.761 3.917-19.583 35.76-49.716 48.822-61.392 3.263-2.915 4.162-7.647 2.201-11.557z" fill="#eac881"/></g><g><path d="m455.155 195.919-73.483-146.568c-7.163-14.288-21.658-23.789-37.642-23.72-4.41.019-8.789-.661-12.981-2.001 7.011 4.264 12.839 10.611 16.622 18.325l73.483 149.85c1.961 3.998 1.062 8.835-2.2 11.815-13.063 11.937-44.906 42.746-48.822 62.767-4.262 21.788 9.752 90.168-48.986 108.612l-.128 4.629c97.83 0 78.17-86.042 83.114-110.761 3.917-19.583 35.76-49.716 48.822-61.393 3.263-2.914 4.162-7.645 2.201-11.555z" fill="#e4b052"/></g><g><path d="m254.745 141.665c-12.015 0-21.754-9.74-21.754-21.754v-23.546c0-12.015 9.74-21.754 21.754-21.754 12.014 0 21.754 9.74 21.754 21.754v23.546c0 12.014-9.74 21.754-21.754 21.754z" fill="#e4b052"/></g><g><path d="m438.748 421.279v-11.907c0-28.83-12.219-56.237-33.586-75.529 4.87-16.336 5.15-33.393 5.369-46.751.115-6.997.214-13.039.957-16.752 2.364-11.822 20.169-33.767 46.466-57.271 5.769-5.157 7.375-13.591 3.906-20.51l-73.483-146.569c-8.494-16.942-25.818-27.859-44.181-27.859-.065 0-.132 0-.198 0-4.236.047-8.363-.727-12.312-2.214l-9.845-3.708c-43.213-16.278-90.811-16.278-134.024 0l-9.843 3.708c-3.903 1.47-7.996 2.215-12.166 2.215-18.85 0-35.807 10.468-44.255 27.318l-30.808 61.45c-1.856 3.703-.359 8.209 3.343 10.066 3.703 1.856 8.209.36 10.066-3.343l18.583-37.066c8.575 12.7 27.268 29.571 67.66 38.269-2.927 1.027-5.837 2.102-8.713 3.27-4.57 1.854-7.565 6.413-7.45 11.377l6.69 242.464c-28.07-1.453-46.657-11.092-56.692-29.345-9.475-17.233-9.84-39.493-10.106-55.746-.126-7.727-.236-14.399-1.246-19.447-4.189-20.945-33.863-50.037-51.179-65.513-.731-.654-.934-1.724-.493-2.604l29.584-59.008c1.856-3.703.359-8.209-3.343-10.066-3.705-1.858-8.21-.36-10.066 3.343l-29.584 59.008c-3.469 6.919-1.863 15.353 3.906 20.51 26.297 23.504 44.102 45.45 46.466 57.271.743 3.713.842 9.755.956 16.751.219 13.357.5 30.414 5.368 46.749-21.405 19.302-33.585 46.54-33.585 75.532v11.907c-18.293 3.463-32.173 19.558-32.173 38.843v33.293c0 8.957 7.288 16.245 16.245 16.245h128.881c8.958 0 16.245-7.288 16.245-16.245v-20.795h49.471c4.142 0 7.5-3.358 7.5-7.5s-3.358-7.5-7.5-7.5h-49.559c-1.296-20.641-18.492-37.04-39.454-37.04h-74.655v-11.208c0-22.853 8.877-44.431 24.641-60.564.178.337.351.675.535 1.01 13.612 24.759 39.704 37.313 77.552 37.313 2.025 0 3.964-.819 5.376-2.271 1.412-1.451 2.177-3.412 2.121-5.436l-1.567-56.789h120.519l-1.567 56.789c-.056 2.024.709 3.985 2.121 5.436 1.412 1.452 3.351 2.271 5.376 2.271 37.848 0 63.94-12.554 77.552-37.312.183-.333.355-.67.533-1.005 15.741 16.145 24.644 37.835 24.644 60.559v11.208h-74.655c-20.962 0-38.158 16.399-39.454 37.04h-30.058c-4.142 0-7.5 3.358-7.5 7.5s3.358 7.5 7.5 7.5h29.971v20.795c0 8.957 7.287 16.245 16.245 16.245h128.881c8.957 0 16.245-7.288 16.245-16.245v-33.293c0-19.286-13.881-35.381-32.174-38.844zm-253.639 38.843v33.293c0 .686-.558 1.245-1.245 1.245h-20.8v-16.513c0-4.142-3.358-7.5-7.5-7.5s-7.5 3.358-7.5 7.5v16.513h-21.14v-16.513c0-4.142-3.358-7.5-7.5-7.5s-7.5 3.358-7.5 7.5v16.513h-21.14v-16.513c0-4.142-3.358-7.5-7.5-7.5s-7.5 3.358-7.5 7.5v16.513h-20.8c-.686 0-1.245-.559-1.245-1.245v-33.293c0-13.533 11.01-24.543 24.542-24.543h82.286c13.532 0 24.542 11.01 24.542 24.543zm-54.113-400.039 3.966-7.911c5.889-11.745 17.708-19.041 30.847-19.041 5.982 0 11.854-1.069 17.453-3.178l9.843-3.708c39.804-14.995 83.646-14.994 123.449 0l9.845 3.708c5.598 2.109 11.467 3.178 17.448 3.178.117 0 .235-.002.351-.001 12.733 0 24.799 7.674 30.77 19.582l3.593 7.167c-1.11 3.399-4.53 11.085-14.329 19.269-20.689 17.277-53.866 23.457-80.232 25.472v-8.254c0-16.131-13.124-29.254-29.254-29.254-16.131 0-29.254 13.124-29.254 29.254v8.252c-44.975-3.409-68.41-15.597-80.232-25.47-9.607-8.022-13.085-15.569-14.264-19.065zm138.003 36.283v23.545c0 7.86-6.395 14.254-14.254 14.254-7.86 0-14.254-6.394-14.254-14.254v-23.545c0-7.86 6.394-14.254 14.254-14.254 7.86-.001 14.254 6.394 14.254 14.254zm-43.475 24.862c.692 15.521 13.531 27.937 29.22 27.937 15.694 0 28.537-12.423 29.221-27.951 12.44 2.046 24.662 5.392 36.405 9.995l-3.103 112.444c-11.685 19.652-32.911 31.79-55.835 31.79h-13.208c-22.924 0-44.15-12.137-55.835-31.79l-3.103-112.443c11.695-4.585 23.854-7.932 36.238-9.982zm-31.368 186.405-1.084-39.279c14.665 13.967 34.342 22.089 55.153 22.089h13.208c20.811 0 40.488-8.122 55.153-22.089l-1.084 39.279zm191.27 34.958c-10.035 18.253-28.622 27.892-56.692 29.345l6.691-242.499c.113-4.93-2.881-9.489-7.451-11.343-2.896-1.175-5.827-2.259-8.775-3.293 40.468-8.737 59.125-25.684 67.65-38.388l61.601 122.868c.441.879.238 1.95-.493 2.604-17.315 15.477-46.99 44.568-51.179 65.513-1.01 5.048-1.119 11.722-1.246 19.448-.265 16.252-.63 38.511-10.106 55.745zm70.496 150.823c0 .686-.559 1.245-1.245 1.245h-20.8v-16.513c0-4.142-3.358-7.5-7.5-7.5s-7.5 3.358-7.5 7.5v16.513h-21.14v-16.513c0-4.142-3.358-7.5-7.5-7.5s-7.5 3.358-7.5 7.5v16.513h-21.14v-16.513c0-4.142-3.358-7.5-7.5-7.5s-7.5 3.358-7.5 7.5v16.513h-20.8c-.686 0-1.245-.559-1.245-1.245v-33.293c0-13.533 11.009-24.543 24.542-24.543h82.286c13.533 0 24.543 11.01 24.543 24.543v33.293z"/><path d="m283.847 366.3c4.142 0 7.5-3.358 7.5-7.5s-3.358-7.5-7.5-7.5h-58.035c-4.142 0-7.5 3.358-7.5 7.5s3.358 7.5 7.5 7.5z"/><path d="m205.016 410.772c0 4.142 3.358 7.5 7.5 7.5h84.628c4.142 0 7.5-3.358 7.5-7.5s-3.358-7.5-7.5-7.5h-84.628c-4.142 0-7.5 3.358-7.5 7.5z"/></g></g></svg>