<svg id="Layer_1" enable-background="new 0 0 511.388 511.388" height="512" viewBox="0 0 511.388 511.388" width="512" xmlns="http://www.w3.org/2000/svg"><g><g><path d="m352.113 124.168-96.366-17.54v-.019l-.053.01-.053-.01v.019l-96.366 17.54-14.887 27.097c-3.061 5.572-4.259 11.978-3.417 18.28l42.38 317.42c1.477 10.116 10.193 17.619 20.466 17.619h103.756c10.273 0 18.989-7.503 20.466-17.619l42.379-317.42c.841-6.302-.356-12.708-3.417-18.28z" fill="#eac881"/></g><g><path d="m367 151.265-8.263-15.041h-30l8.263 15.041c3.061 5.572 4.259 11.978 3.417 18.28l-42.379 317.42c-1.477 10.116-10.193 17.619-20.466 17.619h30c10.273 0 18.989-7.503 20.466-17.619l42.379-317.42c.841-6.302-.356-12.708-3.417-18.28z" fill="#e4b052"/></g><g><path d="m159.941 311.629 5.598 41.928h180.31l5.598-41.928z" fill="#5392f9"/></g><g><path d="m321.447 311.629-5.598 41.928h30l5.598-41.928z" fill="#4981f8"/></g><g><path d="m255.694 155.219c-23.405 0-42.379-18.973-42.379-42.379v-64.278c0-8.922 7.233-16.155 16.155-16.155h52.448c8.922 0 16.155 7.233 16.155 16.155v64.278c0 23.406-18.974 42.379-42.379 42.379z" fill="#f4daa7"/></g><g><path d="m363.128 108.549-39.409-78.604c-3.842-7.663-11.616-12.758-20.187-12.721-2.745.012-5.469-.478-8.038-1.446l-5.28-1.989c-22.251-8.382-46.791-8.382-69.041 0l-5.279 1.988c-2.539.956-5.229 1.446-7.942 1.446-8.524 0-16.318 4.811-20.138 12.431l-39.554 78.894c-1.051 2.097-.569 4.634 1.18 6.198 7.005 6.262 24.083 22.422 26.183 32.924 2.651 13.257-7.893 59.401 44.574 59.401l-3.705-134.271c-.023-.99.569-1.891 1.487-2.264 24.186-9.814 51.245-9.814 75.431 0 .918.372 1.51 1.273 1.487 2.264l-3.705 134.271c52.466 0 41.922-46.144 44.574-59.401 2.1-10.502 19.178-26.663 26.183-32.924 1.749-1.563 2.231-4.1 1.179-6.197z" fill="#80b6fc"/></g><g><path d="m363.128 108.549-39.409-78.604c-3.842-7.663-11.616-12.758-20.187-12.721-2.745.012-5.469-.478-8.038-1.446l-5.28-1.989c-15.896-5.988-32.957-7.674-49.521-5.106 6.622 1.027 13.166 2.713 19.521 5.106l5.28 1.989c2.568.968 5.292 1.457 8.038 1.446 8.572-.037 16.345 5.059 20.187 12.721l39.409 78.604c1.052 2.097.569 4.634-1.18 6.198-7.006 6.262-24.083 22.422-26.183 32.924-1.935 9.673 3.149 36.851-14.338 50.841l-.236 8.561c52.466 0 41.922-46.145 44.574-59.401 2.1-10.502 19.178-26.663 26.183-32.924 1.75-1.565 2.232-4.102 1.18-6.199z" fill="#62a4fb"/></g><path d="m373.573 145.931-11.353-20.664c-.069-.125-.147-.24-.222-.36 1.578-1.505 3.229-3.031 4.949-4.568 4.263-3.81 5.448-10.041 2.886-15.151l-14.474-28.87c-1.856-3.703-6.366-5.197-10.066-3.343-3.703 1.856-5.199 6.363-3.344 10.066l13.686 27.299c-11.479 10.41-24.988 24.68-27.225 35.861-.604 3.017-.664 6.741-.735 11.054-.348 21.208-2.897 39.07-28.764 41.921l3.483-126.204c.093-4.077-2.384-7.847-6.165-9.383-26.137-10.605-54.929-10.605-81.071 0-3.78 1.534-6.258 5.305-6.164 9.421l3.481 126.167c-25.865-2.851-28.415-20.712-28.763-41.92-.071-4.313-.132-8.038-.735-11.055-2.236-11.181-15.746-25.452-27.226-35.862l38.767-77.322c2.565-5.115 7.712-8.293 13.434-8.293 3.63 0 7.191-.648 10.586-1.927l5.279-1.989c20.556-7.743 43.196-7.743 63.754 0l5.279 1.989c3.396 1.279 6.956 1.927 10.584 1.927h.13c5.558-.072 10.825 3.346 13.451 8.582l11.805 23.548c1.858 3.703 6.364 5.2 10.066 3.343 3.703-1.856 5.199-6.363 3.343-10.066l-11.806-23.548c-5.141-10.253-15.65-16.86-26.803-16.86-.062 0-.123-.001-.187 0-1.815 0-3.598-.324-5.297-.964l-5.279-1.989c-23.967-9.027-50.363-9.027-74.328 0l-5.279 1.989c-1.699.64-3.481.964-5.299.964-11.433 0-21.718 6.349-26.842 16.57l-39.556 78.895c-2.561 5.111-1.375 11.341 2.887 15.15 1.714 1.532 3.359 3.053 4.933 4.553l-11.559 21.039c-3.859 7.024-5.339 14.938-4.278 22.884l42.393 317.511c2.001 13.702 13.99 24.035 27.887 24.035h48.103c1.11.648 2.397 1.026 3.775 1.026s2.665-.378 3.775-1.026h48.103c13.897 0 25.886-10.333 27.899-24.126l42.379-317.419c1.062-7.947-.418-15.86-4.277-22.885zm-86.274-69.708-1.507 54.606c-.343.347-.659.732-.938 1.156-6.484 9.852-17.385 15.733-29.16 15.733-11.248 0-21.87-5.475-28.415-14.645-.476-.667-1.043-1.227-1.668-1.688l-1.522-55.163c20.51-7.444 42.703-7.443 63.21.001zm-136.337 76.93 9.266-16.867c4.555 5.383 7.454 9.925 8.04 12.855.337 1.682.39 4.925.446 8.359.162 9.923.385 23.512 6.844 35.259 7.957 14.474 22.976 21.813 44.638 21.813 2.025 0 3.964-.819 5.376-2.271 1.412-1.451 2.177-3.412 2.121-5.436l-1.485-53.833c6.463 4.734 14.005 7.873 21.986 9.095v142.003h-20.678c-4.143 0-7.5 3.358-7.5 7.5s3.357 7.5 7.5 7.5h20.678v25.779h-76.014l-3.442-25.779h28.778c4.143 0 7.5-3.358 7.5-7.5s-3.357-7.5-7.5-7.5h-30.781l-18.331-137.299c-.633-4.75.251-9.479 2.558-13.678zm188.246 191.755h-76.014v-25.779h79.456zm-148.424 139.342-16.601-124.341h74.011v135.453h-44.378c-6.504-.001-12.111-4.817-13.032-11.112zm129.833-.092c-.934 6.387-6.541 11.203-13.045 11.203h-44.378v-135.453h74.011zm42.366-317.328-18.331 137.3h-81.458v-141.996c8.013-1.211 15.537-4.335 21.984-9.067l-1.484 53.799c-.056 2.024.709 3.985 2.121 5.436 1.412 1.452 3.351 2.271 5.376 2.271 21.662 0 36.682-7.339 44.639-21.813 6.458-11.747 6.682-25.336 6.844-35.259.057-3.434.109-6.677.446-8.359.586-2.931 3.485-7.472 8.04-12.855l9.267 16.867c2.306 4.198 3.19 8.927 2.556 13.676z"/></g></svg>