<svg id="Layer_1" enable-background="new 0 0 510.85 510.85" height="512" viewBox="0 0 510.85 510.85" width="512" xmlns="http://www.w3.org/2000/svg"><g><g><path d="m304.13 360.555c-18.484 10.745-44.258.894-44.258.894s4.193-27.272 22.677-38.017 44.258-.894 44.258-.894-4.193 27.272-22.677 38.017z" fill="#0ab69f"/></g><g><path d="m210.614 422.555c18.484 10.745 44.258.894 44.258.894s-4.193-27.272-22.677-38.017-44.258-.894-44.258-.894 4.193 27.272 22.677 38.017z" fill="#5de1c4"/></g><g><path d="m328.698 149.498c-23.428 57.139-74.752 90.203-74.752 90.203s-13.339-59.577 10.089-116.716c16.499-40.238 50.593-77.714 69.32-96.363 5.007-4.986 13.56-1.479 13.625 5.587.244 26.427-1.784 77.051-18.282 117.289z" fill="#d9d9d9"/></g><g><path d="m180.243 149.498c23.428 57.139 74.752 90.203 74.752 90.203s13.339-59.577-10.089-116.716c-16.498-40.238-50.593-77.714-69.32-96.363-5.007-4.986-13.56-1.479-13.625 5.587-.244 26.427 1.783 77.051 18.282 117.289z" fill="#d9d9d9"/></g><g><path d="m255.863 239.657s-35.117-132.786 171.916-157.99c7.981-.971 12.265 9.101 6.013 14.155z" fill="#f7f7f7"/></g><g><path d="m254.987 239.657s35.117-132.786-171.916-157.99c-7.981-.971-12.265 9.101-6.013 14.155z" fill="#f7f7f7"/></g><g><path d="m289.456 127.525c.551 61.753-33.943 112.126-33.943 112.126s-35.389-49.749-35.94-111.502c-.389-43.487 16.514-91.249 26.547-115.699 2.683-6.537 11.927-6.619 14.725-.132 10.469 24.268 28.223 71.72 28.611 115.207z" fill="#f7f7f7"/></g><g><path d="m427.779 81.666c-7.841.955-15.329 2.066-22.49 3.316 2.209 3.176 2.174 7.872-1.497 10.839l-150.18 121.403c-.092 13.574 2.251 22.433 2.251 22.433l177.929-143.835c6.252-5.054 1.967-15.127-6.013-14.156z" fill="#e8e8e8"/></g><g><path d="m83.071 81.666c-3.295-.401-5.957 1.083-7.51 3.316 133.091 23.232 151.426 95.25 151.676 132.242l27.75 22.433s35.117-132.786-171.916-157.991z" fill="#f7f7f7"/></g><g><path d="m289.456 127.525c-.388-43.487-18.142-90.939-28.61-115.206-2.799-6.488-12.043-6.405-14.725.131-2.222 5.415-4.782 11.978-7.415 19.38 9.695 25.834 20.449 61.955 20.751 95.695.302 33.873-9.939 64.318-19.249 84.908 8.014 16.968 15.305 27.218 15.305 27.218s34.494-50.372 33.943-112.126z" fill="#e8e8e8"/></g><g><path d="m299.613 219.683c13.245-10.606 16.368-29.516 7.189-43.788-10.794-16.782-29.63-27.897-51.068-27.897-22.552 0-42.224 12.301-52.685 30.558-7.736 13.502-4.65 30.63 7.002 40.944l45.423 38.774z" fill="#0ab69f"/></g><g><path d="m306.801 175.895c-10.794-16.782-29.63-27.897-51.068-27.897-5.177 0-10.2.655-14.997 1.875 15.064 3.833 27.878 13.295 36.065 26.022 9.18 14.271 6.056 33.181-7.189 43.788l-29.319 25.634 15.18 12.958 44.139-38.592c13.246-10.607 16.369-29.517 7.189-43.788z" fill="#008b81"/></g><path d="m443.034 83.571c-2.727-6.438-9.232-10.195-16.161-9.349-28.504 3.47-53.846 9.134-75.902 16.937 3.076-22.95 3.645-44.284 3.51-59.02-.059-6.245-3.832-11.813-9.615-14.183-5.784-2.37-12.379-1.056-16.802 3.352-10.983 10.936-25.959 27.042-40.091 46.059-6.189-23.445-14.324-44.306-20.24-58.018-2.456-5.692-8.026-9.349-14.22-9.349-.046 0-.094 0-.141 0-6.249.056-11.819 3.825-14.19 9.603-5.553 13.531-13.113 33.955-18.842 56.917-13.961-18.666-28.671-34.466-39.462-45.212-4.424-4.406-11.02-5.724-16.803-3.352-5.782 2.371-9.556 7.938-9.614 14.183-.134 14.586.423 35.638 3.421 58.329-21.587-7.445-46.255-12.88-73.905-16.247-6.938-.847-13.435 2.913-16.161 9.349-2.721 6.428-.901 13.695 4.527 18.083l56.784 45.903c1.388 1.122 3.055 1.668 4.71 1.668 2.188-.001 4.355-.952 5.838-2.786 2.604-3.221 2.104-7.943-1.118-10.547l-56.785-45.902c-.197-.159-.287-.232-.144-.57.15-.356.289-.336.535-.308 57.952 7.055 101.769 23.305 130.246 48.295.351 5.67.973 11.41 1.869 17.174-7.095 5.427-13.166 12.267-17.738 20.247-1.068 1.864-1.96 3.791-2.697 5.758l-32.462-26.242c-3.222-2.605-7.944-2.104-10.548 1.118-2.604 3.221-2.104 7.943 1.118 10.547l39.511 31.941c.854 10.165 5.526 20.006 13.617 27.167.033.029.067.059.102.088l42.743 36.487v127.663c-3.25-3.992-7.189-7.633-11.96-10.407-21.339-12.405-49.516-1.871-50.705-1.416-3.3 1.261-5.273 4.654-4.735 8.146.193 1.258 4.983 30.958 26.32 43.362 7.846 4.561 16.615 6.02 24.628 6.02 6.197 0 11.938-.874 16.452-1.86v70.151c0 4.142 3.357 7.5 7.5 7.5s7.5-3.358 7.5-7.5v-133.098c4.815 1.294 12.188 2.807 20.347 2.807 8.012 0 16.784-1.46 24.628-6.02 21.338-12.404 26.128-42.104 26.321-43.362.537-3.491-1.436-6.884-4.735-8.146-1.189-.455-29.368-10.987-50.706 1.416-6.87 3.994-12.017 9.782-15.854 15.835v-71.06l41.51-36.292c8.752-7.068 13.857-17.036 14.933-27.466l35.669-28.835c3.222-2.604 3.722-7.326 1.118-10.547-2.605-3.221-7.325-3.722-10.548-1.118l-28.32 22.894c-1.036-2.935-2.425-5.795-4.178-8.521-4.786-7.44-10.842-13.74-17.785-18.699.649-4.862 1.104-9.705 1.367-14.5.529-.276 1.037-.611 1.505-1.023 28.471-25.11 72.374-41.429 130.489-48.504.249-.029.385-.047.535.308.144.338.054.411-.144.57l-60.427 48.848c-3.222 2.604-3.722 7.326-1.118 10.547 1.482 1.833 3.65 2.786 5.838 2.786 1.655-.001 3.322-.546 4.71-1.668l60.427-48.848c5.43-4.388 7.249-11.656 4.528-18.083zm-228.65 332.5c-10.19-5.924-15.281-18.641-17.523-26.347 7.813-1.865 21.376-3.733 31.565 2.19 10.19 5.924 15.281 18.641 17.523 26.346-7.811 1.866-21.379 3.733-31.565-2.189zm71.934-86.156c10.193-5.925 23.762-4.055 31.565-2.191-2.243 7.711-7.334 20.424-17.523 26.347-10.189 5.924-23.758 4.055-31.564 2.19 2.243-7.71 7.333-20.423 17.522-26.346zm-116.857-297.637c.001-.171.003-.319.305-.443.307-.123.407-.018.528.101 12.444 12.395 30.282 31.721 45.755 54.334-1.918 10.476-3.274 21.201-3.769 31.821-11.132-8.195-23.931-15.363-38.361-21.484-3.92-24.853-4.605-48.517-4.458-64.329zm125.464 181.55c-.084.068-.167.137-.248.209l-39.262 34.327-40.439-34.52c-9.024-8.026-11.305-21.287-5.419-31.559 9.466-16.522 27.16-26.787 46.177-26.787 18.178 0 34.91 9.142 44.761 24.455 7.119 11.068 4.725 25.631-5.57 33.875zm-39.192-73.33c-9.594 0-18.921 2.045-27.45 5.807-.745-6.157-1.159-12.255-1.211-18.222-.377-42.116 16.119-88.74 25.986-112.785.065-.158.121-.295.448-.298.318-.019.385.133.452.29 10.295 23.863 27.621 70.185 27.997 112.303.052 5.817-.229 11.769-.831 17.782-7.94-3.179-16.53-4.877-25.391-4.877zm40.967-21.014c-.58-10.877-2.105-21.873-4.219-32.611 15.552-22.853 33.575-42.398 46.167-54.938.121-.121.228-.221.527-.101.302.124.304.272.305.442.147 16.002-.56 40.045-4.603 65.215-14.397 6.276-27.14 13.611-38.177 21.993z"/></g></svg>