<svg id="Layer_1" enable-background="new 0 0 508.49 508.49" height="512" viewBox="0 0 508.49 508.49" width="512" xmlns="http://www.w3.org/2000/svg"><g><g><path d="m437.736 375.287c-3.197-3.197-93.912-127.004-113.229-153.381-1.954-2.669-5.535-3.547-8.498-2.076-15.479 7.683-66.631 23.864-139.513-46.736-57.949-56.134-64.158-111.831-63.673-136.002.139-6.944-5.294-12.72-12.236-12.947l-80.009-2.623c-8.28-.272-14.574 7.344-12.763 15.428 12.578 56.126 69.392 243.619 273.74 289.624 6.889 1.551 13.898-2.044 16.705-8.523 5.65-13.044 16.186-32.561 27.644-29.546 16.999 4.473 84.098 110.938 84.098 110.938z" fill="#c8c3ca"/></g><g><path d="m324.507 223.604c-1.954-2.668-5.535-3.546-8.498-2.076-15.479 7.683-66.631 23.864-139.513-46.736-57.949-56.134-64.157-111.831-63.673-136.001.139-6.944-5.294-12.72-12.236-12.948l-53.324-1.748c14.189 59.607 70.74 231.381 258.206 281.406 5.634-9.371 12.719-16.81 20.436-15.298 13.842 2.712 48.086 55.599 52.812 60.577 4.9-11.011 12.573-20.004 21.65-22.437-15.395-20.974-69.742-96.384-75.86-104.739z" fill="#b1abb4"/></g><g><path d="m377.627 373.677c8.014 7.213 37.252 38.495 45.929 51.281 8.4 12.377 30.643 48.092 35.822 57.066 5.018 8.696 36.454 6.652 40.98-11.549 4.072-16.376-12.806-37.551-36.407-68.487s-30.679-90.422-59.077-76.795c-16.776 8.051-34.183 42.241-27.247 48.484z" fill="#80b6fc"/></g><g><path d="m324.507 223.604c-1.954-2.668-5.535-3.546-8.498-2.076-3.962 1.967-10.268 4.487-18.671 5.97 12.918 17.82 59.044 81.791 73.028 100.845-2.119.568-4.157 1.506-6.106 2.731 7.12 9.758 12.738 17.898 14.456 19.707 4.9-11.011 13.903-21.331 22.981-23.764-14.779-23.188-71.072-95.058-77.19-103.413z" fill="#a29aa5"/></g><g><path d="m463.952 401.988c-23.601-30.937-30.679-90.423-59.077-76.795-2.757 1.323-5.53 3.362-8.21 5.857 12.758 15.378 21.17 49.812 37.287 70.938 23.601 30.936 40.479 52.111 36.407 68.486-1.401 5.633-5.382 9.715-10.357 12.414 6.554 7.667 35.988 5.155 40.357-12.414 4.071-16.374-12.806-37.55-36.407-68.486z" fill="#62a4fb"/></g><path d="m472.755 401.16-2.841-3.72c-7.772-10.188-13.761-24.008-19.553-37.374-8.82-20.353-16.437-37.931-30.038-43.007-5.203-1.942-10.701-1.813-16.375.373-10.333-14.023-21.519-29.238-32.089-43.634-2.452-3.338-7.145-4.057-10.484-1.606-3.339 2.452-4.058 7.146-1.606 10.484 10.416 14.186 21.43 29.168 31.637 43.021-4.335 4.043-8.389 9.048-11.845 14.349-9.63-13.805-18.104-25.297-25.243-34.226-15.697-19.632-22.207-23.435-26.504-24.566-9.282-2.445-18.195 2.685-26.617 15.264-170.195-48.677-227.543-200.536-244.679-266.314l43.822 1.437c2.805.092 5.04 2.47 4.983 5.301-.262 13.089 1.325 33.904 10.376 58.733 10.832 29.715 29.532 57.575 55.578 82.806 32.395 31.38 64.463 49.798 95.315 54.742 25.322 4.058 43.397-2.142 52.212-6.411 4.59 6.268 12.836 17.523 22.86 31.191 1.469 2.004 3.746 3.065 6.054 3.065 1.54 0 3.093-.473 4.43-1.453 3.34-2.45 4.062-7.143 1.612-10.483-10.28-14.017-18.69-25.496-23.202-31.659-4.121-5.626-11.642-7.461-17.883-4.361-6.999 3.473-21.984 8.782-43.709 5.3-27.754-4.448-57.109-21.507-87.251-50.705-18.879-18.287-62.653-67.608-61.393-130.464.22-10.996-8.522-20.235-19.489-20.594l-80.009-2.623c-6.26-.201-12.177 2.45-16.182 7.288-4.01 4.841-5.52 11.138-4.145 17.276 6.767 30.195 28.626 107.854 85.321 176.66 2.633 3.196 7.36 3.652 10.558 1.019 3.197-2.634 3.653-7.361 1.019-10.558-54.64-66.311-75.73-141.257-82.261-170.401-.483-2.157.457-3.701 1.061-4.43.601-.727 1.936-1.945 4.137-1.862l20.023.656c7.644 30.024 27.567 90.895 67.973 147.398 46.991 65.711 109.329 110.394 185.364 132.902-.776 1.633-1.547 3.327-2.313 5.096-1.378 3.183-4.814 4.947-8.176 4.188-64.667-14.559-120.22-45.033-165.115-90.577-2.909-2.95-7.657-2.984-10.606-.076-2.95 2.908-2.984 7.657-.076 10.606 46.947 47.625 104.986 79.479 172.503 94.68 10.379 2.338 20.994-3.071 25.234-12.859 8.497-19.616 15.996-25.89 18.786-25.29 1.742.703 11.679 6.82 47.799 59.336-1.437 3.678-2.443 7.198-2.892 10.327-1.099 7.647 1.447 11.751 3.776 13.848 7.39 6.651 36.282 37.454 44.74 49.918 8.227 12.122 30.393 47.698 35.532 56.603 3.74 6.481 12.338 8.702 20.352 8.702 2.116 0 4.193-.155 6.127-.427 14.614-2.057 25.449-10.396 28.275-21.763 4.775-19.209-11.002-39.863-34.883-71.126zm20.325 67.505c-1.435 5.77-7.693 8.455-11.296 9.542-7.563 2.282-14.423 1.112-16.044-.163-5.587-9.637-27.487-44.786-35.978-57.297-8.859-13.054-37.143-43.33-46.234-51.833-.268-6.477 11.874-30.857 24.591-36.959 3.616-1.735 5.702-1.313 6.958-.844 7.621 2.845 14.687 19.15 21.521 34.918 6.15 14.191 12.509 28.865 21.391 40.508l2.846 3.728c19.712 25.806 35.282 46.189 32.245 58.4z"/></g></svg>