<svg id="Layer_1" enable-background="new 0 0 507 507" height="512" viewBox="0 0 507 507" width="512" xmlns="http://www.w3.org/2000/svg"><g><g><path d="m397.171 479.5h-287.341c-10.631 0-19.329-8.698-19.329-19.329v-433.341c0-10.631 8.698-19.33 19.329-19.33h287.341c10.631 0 19.329 8.698 19.329 19.33v433.341c0 10.631-8.698 19.329-19.329 19.329z" fill="#ffeed2"/></g><g><path d="m397.171 7.5h-30c10.631 0 19.329 8.698 19.329 19.33v433.34c0 10.631-8.698 19.33-19.329 19.33h30c10.631 0 19.329-8.698 19.329-19.33v-433.34c0-10.632-8.698-19.33-19.329-19.33z" fill="#f4daa7"/></g><g><path d="m243.077 60.688-63.105 85.506c-6.312 8.552-.206 20.647 10.423 20.647h126.21c10.629 0 16.735-12.095 10.423-20.647l-63.105-85.506c-5.177-7.016-15.668-7.016-20.846 0l-63.105 85.506c-6.312 8.552-.206 20.647 10.423 20.647h126.21c10.629 0 16.735-12.095 10.423-20.647l-63.105-85.506c-5.177-7.016-15.668-7.016-20.846 0z" fill="#eac881"/></g><g><path d="m235.301 166.66c-5.118-4.833-8.313-11.683-8.313-19.279 0-14.642 11.87-26.512 26.512-26.512s26.512 11.87 26.512 26.512c0 6.473-2.32 12.404-6.173 17.007" fill="#dd9e32"/></g><g><path d="m451.013 499.5h-395.026c-4.687 0-8.487-3.8-8.487-8.487v-47.612c0-4.687 3.8-8.487 8.487-8.487h395.026c4.687 0 8.487 3.8 8.487 8.487v47.612c0 4.687-3.8 8.487-8.487 8.487z" fill="#c8c3ca"/></g><g><path d="m451.013 434.914h-30c4.687 0 8.487 3.8 8.487 8.487v47.612c0 4.687-3.8 8.487-8.487 8.487h30c4.687 0 8.487-3.8 8.487-8.487v-47.612c0-4.687-3.8-8.487-8.487-8.487z" fill="#b1abb4"/></g><g><path d="m337.955 321.698s-37.812 46.338-84.454 46.338c-46.643 0-84.454-46.338-84.454-46.338s37.812-46.338 84.454-46.338 84.454 46.338 84.454 46.338z" fill="#eac881"/></g><g><circle cx="140.699" cy="383.001" r="7.5"/><circle cx="366.635" cy="270.033" r="7.5"/><circle cx="135.1" cy="57.201" r="7.5"/><path d="m451.013 427.414h-27.013v-400.584c0-14.794-12.036-26.83-26.829-26.83h-287.341c-14.794 0-26.83 12.036-26.83 26.83v29.4c0 4.142 3.358 7.5 7.5 7.5s7.5-3.358 7.5-7.5v-29.4c0-6.523 5.307-11.83 11.83-11.83h287.341c6.522 0 11.829 5.307 11.829 11.83v19.169h-12.575c-4.142 0-7.5 3.358-7.5 7.5s3.358 7.5 7.5 7.5h12.575v101.096h-13.597l-5.428-8.142c-2.296-3.447-6.953-4.377-10.4-2.08-3.446 2.297-4.378 6.954-2.08 10.4l7.654 11.482c1.391 2.086 3.733 3.34 6.24 3.34h17.611v250.32h-311v-126.138h15.043l5.428 8.142c1.445 2.168 3.823 3.341 6.247 3.341 1.43-.001 2.875-.408 4.153-1.261 3.447-2.297 4.378-6.954 2.08-10.4l-7.655-11.482c-1.391-2.086-3.732-3.34-6.24-3.34h-19.056v-120.008c.373.058.753.096 1.142.096h17.31c4.142 0 7.5-3.358 7.5-7.5s-3.358-7.5-7.5-7.5h-17.31c-.389 0-.769.039-1.142.096v-65.232c0-4.142-3.358-7.5-7.5-7.5s-7.5 3.358-7.5 7.5v341.185h-27.013c-8.815 0-15.987 7.172-15.987 15.987v47.612c0 8.815 7.172 15.987 15.987 15.987h247.035c4.142 0 7.5-3.358 7.5-7.5s-3.358-7.5-7.5-7.5h-247.035c-.544 0-.987-.443-.987-.987v-16.733h364.689c4.142 0 7.5-3.358 7.5-7.5s-3.358-7.5-7.5-7.5h-364.689v-15.879c0-.544.443-.987.987-.987h395.026c.544 0 .987.443.987.987v47.612c0 .544-.443.987-.987.987h-117.991c-4.142 0-7.5 3.358-7.5 7.5s3.358 7.5 7.5 7.5h117.991c8.815 0 15.987-7.172 15.987-15.987v-47.612c0-8.815-7.172-15.987-15.987-15.987z"/><path d="m163.235 326.44c1.636 2.005 40.633 49.096 90.265 49.096s88.63-47.091 90.266-49.096c2.252-2.76 2.252-6.724 0-9.483-1.636-2.005-40.633-49.096-90.266-49.096-49.632 0-88.629 47.091-90.265 49.096-2.252 2.759-2.252 6.723 0 9.483zm90.265-43.58c33.921 0 63.622 27.552 74.37 38.846-10.724 11.299-40.347 38.83-74.37 38.83-33.916 0-63.612-27.543-74.362-38.838 10.754-11.299 40.449-38.838 74.362-38.838z"/><path d="m253.5 343.567c12.059 0 21.87-9.811 21.87-21.87s-9.81-21.87-21.87-21.87c-12.059 0-21.87 9.811-21.87 21.87 0 12.06 9.811 21.87 21.87 21.87zm0-28.739c3.788 0 6.87 3.082 6.87 6.87s-3.081 6.87-6.87 6.87c-3.788 0-6.87-3.082-6.87-6.87s3.082-6.87 6.87-6.87z"/><path d="m181.284 232.402-11.331 12.95c-2.728 3.117-2.412 7.855.706 10.584 1.423 1.245 3.183 1.855 4.936 1.855 2.087 0 4.165-.867 5.647-2.561l11.332-12.951c3.475-3.971 8.494-6.249 13.771-6.249h96.611c8.895 0 17.257-3.464 23.546-9.754l11.824-11.824c2.929-2.929 2.929-7.678 0-10.606-2.929-2.929-7.678-2.929-10.607 0l-11.824 11.824c-3.457 3.456-8.052 5.36-12.94 5.36h-46.256l-10.5-14.001c-2.486-3.314-7.186-3.985-10.5-1.5-3.313 2.485-3.985 7.186-1.5 10.5l3.75 5.001h-31.605c-9.603.001-18.737 4.146-25.06 11.372z"/><path d="m166.879 97.858c-2.929-2.929-7.678-2.929-10.606 0-2.929 2.929-2.929 7.678 0 10.606l24.294 24.293-6.63 8.983c-2.656 3.6-4.011 7.843-4.013 12.118-.002 3.145.729 6.309 2.212 9.246 3.499 6.931 10.496 11.236 18.26 11.236h126.21c7.764 0 14.761-4.306 18.259-11.236 1.483-2.938 2.214-6.101 2.212-9.246-.002-4.275-1.357-8.519-4.013-12.118l-6.488-8.792 24.485-24.485c2.929-2.929 2.929-7.678 0-10.606-2.929-2.929-7.678-2.929-10.607 0l-22.886 22.886-8.075-10.941 25.839-25.839c2.929-2.929 2.929-7.678 0-10.606-2.929-2.929-7.678-2.929-10.607 0l-24.24 24.24-9.488-12.855 25.093-25.093c2.929-2.929 2.929-7.678 0-10.606-2.929-2.929-7.678-2.929-10.606 0l-23.494 23.495-12.031-16.303c-4.007-5.43-10.282-8.467-17.014-8.301-6.292.165-12.021 3.122-15.808 8.176-.031.042-.063.083-.093.125l-11.89 16.111-23.303-23.303c-2.929-2.929-7.678-2.929-10.606 0-2.929 2.929-2.929 7.678 0 10.606l24.902 24.902-9.487 12.856-24.049-24.049c-2.929-2.929-7.678-2.929-10.606 0-2.929 2.929-2.929 7.678 0 10.606l25.648 25.647-8.075 10.941zm67.61 49.523c0-10.483 8.528-19.012 19.011-19.012s19.012 8.529 19.012 19.012c0 4.356-1.512 8.588-4.246 11.96h-29.523c-2.748-3.371-4.254-7.528-4.254-11.96zm14.623-82.239c1.039-1.408 2.639-2.216 4.388-2.216 1.75 0 3.35.808 4.389 2.216l63.105 85.506c.828 1.121 1.092 2.226 1.091 3.179-.001 1.12-.365 2.031-.611 2.518-.455.901-1.84 2.997-4.869 2.997h-31.274c1.427-3.798 2.181-7.849 2.181-11.96 0-18.754-15.258-34.012-34.012-34.012s-34.011 15.258-34.011 34.012c0 4.112.759 8.165 2.188 11.96h-31.281c-3.029 0-4.414-2.096-4.869-2.997-.246-.486-.61-1.398-.611-2.518 0-.954.264-2.058 1.091-3.179z"/><path d="m357.143 363.657c-2-3.628-6.563-4.947-10.189-2.947l-24.563 13.543c-2.233 1.232-3.688 3.513-3.861 6.057-.174 2.544.957 5.002 3.002 6.526l20.132 14.998c1.345 1.002 2.916 1.486 4.475 1.486 2.288 0 4.548-1.044 6.021-3.02 2.475-3.322 1.788-8.021-1.534-10.495l-10.792-8.04 14.363-7.919c3.627-2 4.946-6.562 2.946-10.189z"/></g></g></svg>