<svg id="Layer_1" enable-background="new 0 0 510.938 510.938" height="512" viewBox="0 0 510.938 510.938" width="512" xmlns="http://www.w3.org/2000/svg"><g><g><path d="m361.288 97.894h-211.638c-55.627 0-100.721 45.094-100.721 100.721v121.739c0 27.475 22.463 51.022 49.937 51.255 13.858.117 26.89-5.32 36.562-15.261 9.317-9.576 14.254-22.589 14.254-35.949v-98.087c0-12.43 10.077-22.507 22.507-22.507h166.561c12.43 0 22.507 10.076 22.507 22.507v98.087c0 13.361 4.936 26.373 14.254 35.949 9.672 9.941 22.704 15.378 36.562 15.261 27.474-.233 49.937-23.781 49.937-51.255v-121.739c-.001-55.627-45.095-100.721-100.722-100.721zm-30.982 34.849h30.981c36.38 0 65.873 29.492 65.873 65.873v122.619c0 8.821-7.393 15.948-16.309 15.508-8.341-.411-14.746-7.607-14.746-15.958v-106.346c0-27.328-22.154-49.482-49.482-49.482h-182.308c-27.328 0-49.482 22.154-49.482 49.482v106.346c0 8.351-6.405 15.547-14.746 15.958-8.916.439-16.309-6.687-16.309-15.508v-122.62c0-36.38 29.492-65.873 65.873-65.873h31.715m0 .001h148.941" fill="#e4b052"/></g><g><path d="m361.288 97.894h-30c55.627 0 100.721 45.094 100.721 100.721v121.739c0 22.483-15.046 42.327-35.566 48.927 4.987 1.57 10.244 2.374 15.629 2.328 27.474-.233 49.937-23.781 49.937-51.255v-121.739c0-55.627-45.094-100.721-100.721-100.721z" fill="#dd9e32"/></g><g><path d="m209.11 97.414c-1.486-12.654 2.179-25.332 10.341-35.284 8.973-10.94 22.236-17.215 36.385-17.215s27.412 6.275 36.385 17.215c8.162 9.952 11.826 22.63 10.341 35.284h38.03c1.398-21.37-5.277-42.498-19.072-59.316-16.199-19.75-40.141-31.078-65.684-31.078s-49.486 11.327-65.684 31.078c-13.794 16.818-20.47 37.947-19.072 59.316z" fill="#f4daa7"/></g><g><path d="m321.52 38.098c-16.199-19.75-40.141-31.078-65.684-31.078-5.08 0-10.095.455-15 1.329 19.758 3.517 37.707 13.927 50.684 29.749 13.794 16.818 20.47 37.946 19.072 59.316h30c1.398-21.369-5.277-42.498-19.072-59.316z" fill="#f1cd88"/></g><g><path d="m184.567 97.894h35.451v101.912h-35.451z" fill="#ffeed2"/></g><g><path d="m220.018 97.894h35.451v101.912h-35.451z" fill="#ffeed2"/></g><g><path d="m255.469 97.894h35.451v101.912h-35.451z" fill="#ffeed2"/></g><g><path d="m290.92 97.894h35.451v101.912h-35.451z" fill="#f4daa7"/></g><g><path d="m184.934 314.204v-112.411h141.803v292.243c0 6.29-5.099 11.389-11.389 11.389h-119.025c-6.29 0-11.389-5.099-11.389-11.389v-162.648" fill="#f4daa7"/></g><g><path d="m296.371 199.806v292.243c0 6.29-5.099 11.389-11.389 11.389h30c6.29 0 11.389-5.099 11.389-11.389v-292.243z" fill="#f1cd88"/></g><g><path d="m462.009 241.458c4.143 0 7.5-3.358 7.5-7.5v-35.342c0-59.673-48.548-108.221-108.221-108.221h-13.414c-.424-20.619-7.703-40.456-20.921-56.572-17.629-21.496-43.684-33.823-71.484-33.823s-53.855 12.327-71.483 33.821c-13.218 16.116-20.497 35.954-20.921 56.572h-13.414c-59.674 0-108.222 48.548-108.222 108.221v121.739c0 15.3 5.958 29.882 16.776 41.059 10.92 11.282 25.337 17.566 40.597 17.696.17.002.339.002.508.002 15.763 0 30.481-6.214 41.494-17.533 10.561-10.856 16.377-25.48 16.377-41.18v-98.086c0-8.275 6.732-15.007 15.007-15.007h4.88v153.285c0 4.142 3.357 7.5 7.5 7.5s7.5-3.358 7.5-7.5v-121.64h126.803v224.706h-126.803v-73.066c0-4.142-3.357-7.5-7.5-7.5s-7.5 3.358-7.5 7.5v101.458c0 10.415 8.474 18.889 18.889 18.889h119.025c10.415 0 18.889-8.474 18.889-18.889v-284.741h4.88c8.274 0 15.007 6.732 15.007 15.007v98.086c0 15.699 5.816 30.324 16.378 41.18 11.013 11.319 25.729 17.533 41.493 17.533.168 0 .339-.001.508-.002 15.26-.129 29.677-6.414 40.597-17.696 10.818-11.178 16.776-25.759 16.776-41.059v-56.397c0-4.142-3.357-7.5-7.5-7.5-4.142 0-7.5 3.358-7.5 7.5v56.397c0 23.523-19.463 43.561-42.5 43.755-.126.001-.251.002-.376.002-11.68 0-22.587-4.605-30.747-12.993-7.821-8.039-12.129-18.949-12.129-30.72v-98.086c0-16.546-13.461-30.007-30.007-30.007h-4.88v-19.849h12.753c23.149 0 41.982 18.833 41.982 41.982v106.346c0 12.544 9.609 22.844 21.876 23.449.392.019.782.029 1.171.029 5.931 0 11.521-2.232 15.851-6.353 4.549-4.33 7.157-10.408 7.157-16.676v-122.619c0-40.458-32.915-73.373-73.373-73.373h-27.417v-19.849h13.38 14.038c51.402 0 93.221 41.819 93.221 93.221v35.342c-.001 4.144 3.357 7.502 7.499 7.502zm-266.426-198.124c14.77-18.007 36.597-28.334 59.886-28.334s45.116 10.327 59.886 28.334c11.004 13.416 17.105 29.907 17.529 47.06h-6.514-16.378c-.407-11.854-4.66-23.176-12.34-32.541-10.403-12.684-25.779-19.958-42.184-19.958s-31.78 7.275-42.184 19.959c-7.681 9.365-11.934 20.686-12.34 32.54h-22.892c.426-17.152 6.527-33.644 17.531-47.06zm123.288 148.972h-20.45v-86.912h20.45zm-141.803-34.849h-12.753c-31.42 0-56.982 25.562-56.982 56.982v106.346c0 4.462-3.416 8.26-7.614 8.467-2.228.112-4.332-.674-5.94-2.206-1.612-1.535-2.5-3.598-2.5-5.811v-122.62c0-32.187 26.187-58.372 58.373-58.372h27.417v17.214zm15-52.063h20.45v86.912h-20.45zm23.905-15c.406-8.387 3.464-16.387 8.91-23.028 7.543-9.197 18.691-14.471 30.586-14.471 11.894 0 23.043 5.275 30.586 14.471 5.446 6.64 8.503 14.64 8.91 23.028zm11.545 15h20.451v86.912h-20.451zm35.451 0h20.451v86.912h-20.451zm-90.781 86.912c-16.546 0-30.007 13.461-30.007 30.007v98.086c0 11.771-4.308 22.68-12.128 30.719-8.162 8.388-19.067 12.993-30.748 12.993-.125 0-.251-.001-.376-.002-23.037-.195-42.5-20.232-42.5-43.755v-121.739c0-51.402 41.819-93.221 93.222-93.221h14.037 13.38v19.849h-27.417c-40.458 0-73.373 32.915-73.373 73.373v122.619c0 6.267 2.608 12.345 7.157 16.676 4.329 4.121 9.919 6.353 15.852 6.353.388 0 .779-.009 1.17-.029 12.267-.605 21.876-10.905 21.876-23.449v-106.347c0-23.149 18.833-41.982 41.982-41.982h12.753v19.849zm142.794 303.632h-119.026c-2.145 0-3.889-1.745-3.889-3.889v-13.392h126.803v13.392c.001 2.145-1.744 3.889-3.888 3.889zm3.889-271.987h-126.803v-16.646h126.803zm42.417-83.708c32.186 0 58.373 26.186 58.373 58.372v122.619c0 2.213-.888 4.276-2.5 5.811-1.61 1.532-3.711 2.319-5.94 2.206-4.198-.207-7.614-4.005-7.614-8.467v-106.345c0-31.42-25.563-56.982-56.982-56.982h-12.753v-17.214z"/><path d="m238.545 350.774h9.424v16.648c0 4.142 3.357 7.5 7.5 7.5s7.5-3.358 7.5-7.5v-16.648h9.424c4.143 0 7.5-3.358 7.5-7.5s-3.357-7.5-7.5-7.5h-33.848c-4.143 0-7.5 3.358-7.5 7.5s3.358 7.5 7.5 7.5z"/><path d="m255.469 319.717c13.468 0 24.424-10.957 24.424-24.424s-10.956-24.424-24.424-24.424-24.424 10.956-24.424 24.424c0 13.467 10.956 24.424 24.424 24.424zm0-33.848c5.196 0 9.424 4.227 9.424 9.424 0 5.196-4.228 9.424-9.424 9.424s-9.424-4.228-9.424-9.424c0-5.197 4.228-9.424 9.424-9.424z"/><path d="m247.969 416.023v8.306c0 4.142 3.357 7.5 7.5 7.5s7.5-3.358 7.5-7.5v-8.306c9.809-3.173 16.924-12.39 16.924-23.241 0-4.142-3.357-7.5-7.5-7.5s-7.5 3.358-7.5 7.5c0 5.196-4.228 9.424-9.424 9.424s-9.424-4.228-9.424-9.424c0-4.142-3.357-7.5-7.5-7.5s-7.5 3.358-7.5 7.5c0 10.851 7.116 20.068 16.924 23.241z"/></g></g></svg>