<svg id="Layer_1" enable-background="new 0 0 510.172 510.172" height="512" viewBox="0 0 510.172 510.172" width="512" xmlns="http://www.w3.org/2000/svg"><g><g><path d="m72.224 22.801h48.807" fill="#d17223"/></g><g><path d="m121.031 22.801h381.641v31.187h-495.172v-31.187h64.724" fill="#c48958"/></g><g><path d="m265.494 8.052h-20.816c-7.414 0-13.424 6.01-13.424 17.424v110.708h47.664v-110.708c0-11.414-6.01-17.424-13.424-17.424z" fill="#f3d9ab"/></g><g><path d="m106.469 8.052h-20.816c-7.414 0-13.424 6.01-13.424 17.424v110.708h47.664v-110.708c0-11.414-6.01-17.424-13.424-17.424z" fill="#f3d9ab"/></g><g><path d="m424.518 8.052h-20.816c-7.414 0-13.424 6.01-13.424 17.424v110.708h47.664v-110.708c.001-11.414-6.01-17.424-13.424-17.424z" fill="#f3d9ab"/></g><g><path d="m265.494 8.052h-20.816c-1.615 0-3.157.3-4.592.823 5.149 1.878 8.832 6.803 8.832 16.601v110.709h30v-110.709c0-11.414-6.01-17.424-13.424-17.424z" fill="#f1cd88"/></g><g><path d="m106.469 8.052h-20.816c-1.615 0-3.157.3-4.592.823 5.149 1.878 8.832 6.803 8.832 16.601v110.709h30v-110.709c.001-11.414-6.01-17.424-13.424-17.424z" fill="#f1cd88"/></g><g><path d="m424.518 8.052h-20.816c-1.616 0-3.158.3-4.592.823 5.149 1.878 8.832 6.803 8.832 16.601v110.709h30v-110.709c0-11.414-6.01-17.424-13.424-17.424z" fill="#f1cd88"/></g><g><path d="m407.942 86.849v389.857c0 14.036-11.378 25.414-25.414 25.414h30c14.036 0 25.414-11.379 25.414-25.414v-389.857z" fill="#a29aa5"/></g><g><path d="m72.229 86.849h365.713v109.045h-365.713z" fill="#fb7079"/></g><g><path d="m407.943 86.849h30v210.379h-30z" fill="#ea5c6b"/></g><g><path d="m72.229 342.974v133.732c0 14.036 11.378 25.414 25.414 25.414h314.886c14.036 0 25.414-11.379 25.414-25.414v-133.732z" fill="#b1abb4"/></g><g><path d="m72.229 187.659h365.713v209.652h-365.713z" fill="#f7f7f7"/></g><g><path d="m407.943 187.658h30v209.652h-30z" fill="#e8e8e8"/></g><g><path d="m232.915 330.514h-20.371c-16.351 0-29.605-13.255-29.605-29.605v-20.922c0-3.862 3.131-6.993 6.993-6.993h13.378c16.351 0 29.605 13.255 29.605 29.605z" fill="#eac881"/></g><g><path d="m277.257 330.514h20.371c16.351 0 29.605-13.255 29.605-29.605v-20.922c0-3.862-3.131-6.993-6.993-6.993h-13.378c-16.351 0-29.605 13.255-29.605 29.605z" fill="#eac881"/></g><g><path d="m502.672 15.3h-58.162c-2.641-8.532-10.603-14.749-19.992-14.749h-20.815c-9.389 0-17.352 6.216-19.993 14.749h-98.225c-2.641-8.532-10.604-14.749-19.992-14.749h-20.816c-9.388 0-17.351 6.216-19.992 14.749h-98.225c-2.641-8.532-10.604-14.749-19.993-14.749h-20.814c-9.388 0-17.351 6.216-19.992 14.749h-58.161c-4.143 0-7.5 3.358-7.5 7.5v31.187c0 4.142 3.357 7.5 7.5 7.5h57.229v147.548c0 4.142 3.357 7.5 7.5 7.5s7.5-3.358 7.5-7.5v-13.877h350.713v132.142c0 4.142 3.357 7.5 7.5 7.5 4.142 0 7.5-3.358 7.5-7.5v-265.813h57.229c4.143 0 7.5-3.358 7.5-7.5v-31.187c.001-4.142-3.357-7.5-7.499-7.5zm-98.969.252h20.815c3.267 0 5.924 2.658 5.924 5.924v57.873h-32.664v-57.873c0-3.266 2.658-5.924 5.925-5.924zm-20.925 30.935h-96.36v-16.187h96.36zm0 15v17.862h-96.36v-17.862zm-138.1-45.935h20.816c3.267 0 5.924 2.658 5.924 5.924v57.873h-32.664v-57.873c0-3.266 2.657-5.924 5.924-5.924zm-117.284 14.748h96.36v16.187h-96.36zm96.36 31.187v17.862h-96.36v-17.862zm-138.101-45.935h20.815c3.267 0 5.925 2.658 5.925 5.924v57.873h-32.664v-57.873c0-3.266 2.658-5.924 5.924-5.924zm-70.653 30.935v-16.187h49.729v16.187zm64.729 133.671v-85.809h350.713v85.809zm415.443-133.671h-49.729v-16.187h49.729z"/><path d="m437.942 345.921c-4.143 0-7.5 3.358-7.5 7.5v35.227h-350.713v-151.454c0-4.142-3.357-7.5-7.5-7.5s-7.5 3.358-7.5 7.5v239.513c0 18.148 14.765 32.914 32.913 32.914h314.887c18.148 0 32.913-14.765 32.913-32.914v-123.286c0-4.142-3.357-7.5-7.5-7.5zm-25.413 148.699h-314.886c-9.877 0-17.913-8.036-17.913-17.914v-73.058h350.713v73.058c-.001 9.878-8.037 17.914-17.914 17.914z"/><path d="m232.915 338.014c4.143 0 7.5-3.358 7.5-7.5v-27.915c0-20.46-16.645-37.105-37.105-37.105h-13.378c-7.991 0-14.493 6.501-14.493 14.493v20.922c0 20.46 16.646 37.105 37.105 37.105zm-42.477-37.106v-20.415h12.871c12.189 0 22.105 9.917 22.105 22.105v20.415h-12.871c-12.188.001-22.105-9.916-22.105-22.105z"/><path d="m297.628 338.014c20.46 0 37.105-16.646 37.105-37.105v-20.922c0-7.992-6.502-14.493-14.493-14.493h-13.378c-20.46 0-37.105 16.646-37.105 37.105v27.915c0 4.142 3.357 7.5 7.5 7.5zm-12.871-35.415c0-12.189 9.916-22.105 22.105-22.105h12.871v20.415c0 12.189-9.916 22.105-22.105 22.105h-12.871z"/></g></g></svg>