<svg id="Layer_1" enable-background="new 0 0 510.193 510.193" height="512" viewBox="0 0 510.193 510.193" width="512" xmlns="http://www.w3.org/2000/svg"><g><g><path d="m186.887 252.848-11.55 51.484c-2.484 11.071 5.445 21.84 16.765 22.594 30.843 2.053 85.895 17.482 110.207 97.535v-391.039l-70.406 3.689-12.275 69.788-25.765 114.852" fill="#80b6fc"/></g><g><path d="m193.863 221.751-6.976 31.097" fill="#80b6fc"/></g><g><path d="m272.309 34.994v331.931c11.875 13.943 22.428 32.604 30 57.535v-391.038z" fill="#62a4fb"/></g><g><path d="m268.88 7.5c-36.629 0-66.43 29.8-66.43 66.43 0 13.577 4.072 26.637 11.776 37.769 3.204 4.629 8.349 7.112 13.583 7.112 3.238 0 6.511-.951 9.375-2.934 7.493-5.186 9.364-15.464 4.178-22.958-3.868-5.588-5.912-12.155-5.912-18.99 0-18.433 14.997-33.43 33.43-33.43s33.43 14.997 33.43 33.43v412.263c0 9.113 7.387 16.5 16.5 16.5s16.5-7.387 16.5-16.5v-412.262c-.001-36.63-29.801-66.43-66.43-66.43z" fill="#eac881"/></g><path d="m335.309 299.617c4.142 0 7.5-3.358 7.5-7.5v-218.187c0-40.765-33.165-73.93-73.93-73.93s-73.93 33.165-73.93 73.93c0 15.109 4.533 29.645 13.109 42.038.447.646.93 1.258 1.433 1.851l-23.34 104.041c-.907 4.042 1.634 8.053 5.676 8.96.553.124 1.105.184 1.648.184 3.432 0 6.529-2.371 7.311-5.86l22.279-99.312c1.547.312 3.133.481 4.742.481 4.893 0 9.61-1.475 13.643-4.267 10.882-7.531 13.608-22.511 6.077-33.393-2.996-4.329-4.579-9.419-4.579-14.722 0-14.298 11.632-25.93 25.93-25.93s25.93 11.632 25.93 25.93v73.594h-25.93c-4.142 0-7.5 3.358-7.5 7.5s3.358 7.5 7.5 7.5h25.93v19.282h-39.715c-4.142 0-7.5 3.358-7.5 7.5s3.358 7.5 7.5 7.5h39.715v19.283h-53.128c-4.142 0-7.5 3.358-7.5 7.5s3.358 7.5 7.5 7.5h53.128v19.283h-39.715c-4.142 0-7.5 3.358-7.5 7.5s3.358 7.5 7.5 7.5h39.715v19.283h-25.93c-4.142 0-7.5 3.358-7.5 7.5s3.358 7.5 7.5 7.5h25.93v86.989c-29.132-53.628-74.808-65.376-102.209-67.2-3.214-.214-6.054-1.764-7.998-4.365-1.95-2.609-2.66-5.928-1.947-9.104l11.55-51.484c.906-4.042-1.635-8.053-5.677-8.96-4.04-.905-8.053 1.635-8.96 5.676l-11.55 51.484c-1.672 7.456-.007 15.244 4.569 21.367 4.541 6.076 11.472 9.849 19.017 10.351 66.349 4.416 93.076 58.529 103.205 91.181v60.602c0 13.234 10.767 24 24 24 13.234 0 24-10.766 24-24v-164.076c0-4.142-3.358-7.5-7.5-7.5s-7.5 3.358-7.5 7.5v164.075c0 4.963-4.038 9-9 9s-9-4.037-9-9v-61.648c0-.024 0-350.615 0-350.615 0-22.569-18.361-40.93-40.93-40.93s-40.93 18.361-40.93 40.93c0 8.367 2.505 16.41 7.245 23.258 2.824 4.081 1.802 9.698-2.279 12.523-1.513 1.047-3.279 1.601-5.107 1.601-2.962 0-5.734-1.451-7.416-3.88-6.832-9.872-10.443-21.457-10.443-33.501 0-32.494 26.436-58.93 58.93-58.93s58.93 26.436 58.93 58.93v218.188c.001 4.141 3.359 7.499 7.501 7.499z"/></g></svg>