<svg id="Layer_1" enable-background="new 0 0 512 512" height="512" viewBox="0 0 512 512" width="512" xmlns="http://www.w3.org/2000/svg"><g><g><path d="m489.825 504.5h-467.65c-7.124 0-12.899-5.775-12.899-12.899v-30.27c0-6.461 4.781-11.926 11.185-12.784l235.539-31.58 235.539 31.579c6.404.859 11.185 6.323 11.185 12.784v30.27c0 7.125-5.775 12.9-12.899 12.9z" fill="#80b6fc"/></g><g><path d="m491.539 448.547-20.78-2.786c1.245 2.339 1.965 5.092 1.965 8.025v35.562c0 8.369-5.775 15.153-12.899 15.153h30c7.124 0 12.899-5.775 12.899-12.899v-30.27c0-6.462-4.781-11.927-11.185-12.785z" fill="#62a4fb"/></g><g><path d="m177.155 426.432c-80.782-31.542-138.01-110.126-138.01-202.076 0-119.767 97.089-216.856 216.855-216.856s216.855 97.089 216.855 216.855c0 89.631-54.377 166.561-131.942 199.6" fill="#eac881"/></g><g><circle cx="256" cy="224.355" fill="#f7f7f7" r="172.99"/></g><g><path d="m256 7.5c-5.043 0-10.043.187-15 .526 112.767 7.706 201.855 101.607 201.855 216.33 0 89.631-54.378 166.561-131.942 199.6l-134.848 2.039c.364.144.725.295 1.089.437l163.758-2.476c77.565-33.039 131.942-109.969 131.942-199.6.001-119.767-97.088-216.856-216.854-216.856z" fill="#e4b052"/></g><g><path d="m256 51.365c-5.055 0-10.055.23-15 .654 88.515 7.604 157.99 81.851 157.99 172.335s-69.475 164.732-157.99 172.336c4.945.425 9.945.655 15 .655 95.54 0 172.99-77.45 172.99-172.99s-77.45-172.99-172.99-172.99z" fill="#e8e8e8"/></g><g><path d="m217.268 504.5h-40.611v-121.122c0-7.005 5.679-12.684 12.684-12.684h27.927z" fill="#e4b052"/></g><g><path d="m217.268 370.694h40.611v133.806h-40.611z" fill="#dd9e32"/></g><g><path d="m257.879 370.694h40.611v133.806h-40.611z" fill="#e4b052"/></g><g><path d="m339.102 504.5h-40.612v-133.806h27.927c7.005 0 12.684 5.679 12.684 12.684v121.122z" fill="#dd9e32"/></g><path d="m492.536 441.113-132.746-17.798c73.784-38.465 120.566-114.753 120.566-198.96 0-59.927-23.337-116.268-65.712-158.643-42.376-42.375-98.716-65.712-158.644-65.712-47.447 0-92.799 14.629-131.152 42.307-3.359 2.424-4.117 7.112-1.693 10.471s7.113 4.117 10.47 1.693c35.782-25.822 78.099-39.471 122.375-39.471 115.439 0 209.355 93.916 209.355 209.355 0 80.929-46.307 154.017-118.754 188.785v-29.762c0-.948-.089-1.874-.216-2.788 55.68-32.266 90.104-91.727 90.104-156.234 0-99.522-80.967-180.49-180.489-180.49s-180.49 80.967-180.49 180.489c0 66.267 35.786 126.478 93.685 158.258-.01.256-.039.506-.039.764v31.528c-34.767-15.852-64.434-40.819-86.145-72.596-23.791-34.821-36.366-75.609-36.366-117.954 0-57.573 22.888-111.235 64.449-151.102 2.989-2.867 3.088-7.615.221-10.604-2.868-2.989-7.615-3.088-10.604-.22-21.601 20.72-38.588 45.081-50.491 72.407-12.325 28.293-18.574 58.412-18.574 89.52 0 45.377 13.479 89.091 38.981 126.417 20.995 30.729 48.936 55.517 81.577 72.545l-132.739 17.795c-10.084 1.352-17.688 10.044-17.688 20.218v30.27c0 11.248 9.151 20.399 20.399 20.399h18.22c4.142 0 7.5-3.358 7.5-7.5s-3.358-7.5-7.5-7.5h-18.22c-2.977 0-5.399-2.422-5.399-5.399v-30.27c0-2.693 2.013-4.993 4.682-5.351l147.699-19.802v60.822h-98.763c-4.142 0-7.5 3.358-7.5 7.5s3.358 7.5 7.5 7.5h419.431c11.248 0 20.398-9.151 20.398-20.399v-30.27c0-10.174-7.605-18.866-17.688-20.218zm-242.157-62.919v118.806h-25.611v-118.806zm15 0h25.611v118.806h-25.611zm40.611 0h20.427c2.858 0 5.185 2.326 5.185 5.184v113.622h-25.612zm-215.48-153.839c0-91.251 74.239-165.49 165.49-165.49s165.489 74.238 165.489 165.49c0 59.121-31.537 113.622-82.554 143.218-3.444-2.734-7.789-4.38-12.518-4.38h-137.927c-.406 0-.802.041-1.191.103-4.632.467-8.798 2.516-11.971 5.585-52.456-29.295-84.818-84.177-84.818-144.526zm93.646 159.023c0-2.859 2.326-5.184 5.184-5.184h20.427v118.806h-25.611zm311.068 108.223c0 2.977-2.422 5.399-5.398 5.399h-143.224v-60.318l143.94 19.298c2.669.358 4.682 2.659 4.682 5.351z"/></g></svg>