<svg id="Capa_1" enable-background="new 0 0 512 512" height="512" viewBox="0 0 512 512" width="512" xmlns="http://www.w3.org/2000/svg"><g><g><path d="m117.496 393.921v72.008c0 19.884 61.564 36.004 137.508 36.004s137.508-16.12 137.508-36.004v-72.008" fill="#74b5f0"/><path d="m292.441 393.921v106.66c57.749-4.268 100.072-18.166 100.072-34.652v-72.008z" fill="#8289f3"/><ellipse cx="255.004" cy="393.921" fill="#96e6f0" rx="137.508" ry="36.004"/><path d="m118.347 258.288 102.703 136.438h67.909l102.702-136.438" fill="#a0f2e1"/><path d="m341.723 81.019c0-39.186-31.766-70.952-70.952-70.952h-31.534c-39.185 0-70.951 31.766-70.951 70.951 0 26.041 14.033 48.802 34.946 61.143-17.471 14.738-28.572 36.789-28.572 61.435v21.721h160.69v-21.721c0-24.647-11.102-46.697-28.572-61.435 20.912-12.34 34.945-35.1 34.945-61.142z" fill="#00e9c2"/><path d="m341.723 81.02c0-39.186-31.766-70.952-70.952-70.952h-18.388c32.155 0 58.221 26.067 58.221 58.222 0 11.55-3.364 22.313-9.164 31.365-7.899 12.326-8.696 27.743-2.412 40.966 4.069 8.563 6.347 18.143 6.347 28.255 0 9.844-7.98 17.824-17.824 17.824h-111.103c-1.167 5.449-1.789 11.101-1.789 16.899v21.721h160.69v-21.721c0-24.646-11.102-46.697-28.572-61.435 20.913-12.343 34.946-35.103 34.946-61.144z" fill="#45b1c6"/></g><g><g fill="#4e0325"><path d="m354.787 358.724c-6.953-1.82-14.503-3.421-22.513-4.802l67.43-89.58c3.344-4.442 2.453-10.753-1.988-14.097-4.442-3.344-10.754-2.454-14.098 1.989l-99.682 132.426h-57.864l-99.682-132.426c-3.344-4.442-9.655-5.333-14.098-1.989-4.442 3.344-5.332 9.655-1.988 14.097l67.43 89.579c-8.009 1.381-15.56 2.982-22.513 4.803-31.713 8.304-47.793 20.146-47.793 35.197v72.008c0 15.052 16.08 26.894 47.793 35.197 26.78 7.012 62.217 10.874 99.783 10.874s73.003-3.862 99.783-10.874c31.713-8.304 47.793-20.146 47.793-35.197v-72.008c0-15.051-16.08-26.893-47.793-35.197zm-192.145 18.885c8.717-2.173 18.417-3.996 28.815-5.456l21.549 28.628c1.902 2.527 4.881 4.013 8.044 4.013h67.909c3.163 0 6.141-1.486 8.044-4.013l21.55-28.629c10.399 1.46 20.097 3.284 28.814 5.457 27.479 6.849 34.583 14.499 35.069 16.312-.486 1.813-7.589 9.463-35.068 16.312-24.899 6.206-57.701 9.624-92.364 9.624s-67.465-3.418-92.364-9.624c-27.479-6.849-34.581-14.499-35.068-16.312.488-1.813 7.591-9.462 35.07-16.312zm184.724 104.632c-24.899 6.207-57.7 9.624-92.362 9.624s-67.463-3.417-92.362-9.624c-27.798-6.929-34.745-14.677-35.079-16.312v-46.886c7.271 3.788 16.491 7.152 27.658 10.076 26.78 7.012 62.217 10.874 99.783 10.874s73.003-3.862 99.783-10.874c11.168-2.924 20.389-6.289 27.66-10.076l.003 46.826c-.339 1.695-7.286 9.443-35.084 16.372z"/><path d="m187.553 143.394c-14.716 16.469-22.962 37.809-22.962 60.203v21.721c0 5.56 4.507 10.067 10.067 10.067h160.692c5.56 0 10.067-4.508 10.067-10.067v-21.721c0-22.395-8.246-43.735-22.962-60.203 18.344-15.263 29.335-38.176 29.335-62.375 0-44.674-36.345-81.019-81.019-81.019h-31.534c-44.674 0-81.019 36.345-81.019 81.019 0 24.199 10.991 47.112 29.335 62.375zm51.684-123.259h31.534c33.572 0 60.884 27.313 60.884 60.885 0 21.448-11.493 41.555-29.994 52.473-2.81 1.659-4.642 4.576-4.916 7.828-.273 3.251 1.047 6.434 3.54 8.538 15.886 13.401 24.997 32.988 24.997 53.74v11.654h-140.556v-11.654c0-20.752 9.111-40.339 24.997-53.74 2.494-2.104 3.814-5.286 3.54-8.538-.273-3.252-2.105-6.169-4.916-7.828-18.501-10.918-29.995-31.025-29.995-52.473.001-33.573 27.314-60.885 60.885-60.885z"/><path d="m248.964 337.658v12.191c0 3.336 2.705 6.04 6.04 6.04 3.336 0 6.04-2.705 6.04-6.04v-12.191c0-3.336-2.705-6.04-6.04-6.04-3.336 0-6.04 2.705-6.04 6.04z"/><path d="m268.269 275.909v12.191c0 3.336 2.705 6.04 6.04 6.04 3.336 0 6.04-2.705 6.04-6.04v-12.191c0-3.336-2.705-6.04-6.04-6.04-3.336 0-6.04 2.705-6.04 6.04z"/><path d="m300.099 298.787v12.191c0 3.336 2.705 6.04 6.04 6.04 3.336 0 6.04-2.705 6.04-6.04v-12.191c0-3.336-2.705-6.04-6.04-6.04-3.336 0-6.04 2.704-6.04 6.04z"/></g><path d="m207.559 93.621c-.213 0-.427-.006-.643-.02-5.549-.35-9.764-5.132-9.414-10.681.483-7.673 2.191-14.7 5.075-20.883 2.351-5.04 8.342-7.217 13.38-4.868 5.039 2.351 7.218 8.341 4.868 13.379-1.817 3.895-2.903 8.484-3.228 13.637-.336 5.336-4.767 9.436-10.038 9.436z" fill="#fff"/><path d="m236.439 56.229c-4.5 0-8.599-3.039-9.753-7.601-1.363-5.39 1.901-10.865 7.291-12.228 1.539-.389 3.093-.685 4.62-.878 5.511-.701 10.553 3.208 11.251 8.724s-3.208 10.553-8.724 11.251c-.718.09-1.46.233-2.209.422-.829.21-1.659.31-2.476.31z" fill="#fff"/></g><g><path d="m444.535 45.17-8.27 23.253c-.354.996-1.055 1.785-1.939 2.183l-20.66 9.308c-2.919 1.315-2.919 5.965 0 7.28l20.66 9.308c.884.399 1.586 1.188 1.939 2.183l8.27 23.253c1.168 3.285 5.3 3.285 6.468 0l8.27-23.253c.354-.996 1.055-1.785 1.94-2.183l20.659-9.308c2.919-1.315 2.919-5.965 0-7.28l-20.659-9.308c-.885-.398-1.585-1.188-1.94-2.183l-8.27-23.253c-1.168-3.285-5.3-3.285-6.468 0z" fill="#a0f2e1"/><path d="m101.522 131.147-6.134 17.249c-.263.739-.783 1.324-1.439 1.619l-15.325 6.904c-2.165.976-2.165 4.425 0 5.4l15.325 6.904c.656.296 1.176.881 1.439 1.619l6.134 17.249c.867 2.437 3.931 2.437 4.798 0l6.134-17.249c.263-.738.783-1.324 1.439-1.619l15.325-6.904c2.165-.975 2.165-4.425 0-5.4l-15.325-6.904c-.656-.296-1.176-.881-1.439-1.619l-6.134-17.249c-.867-2.437-3.932-2.437-4.798 0z" fill="#a0f2e1"/><g fill="#00e9c2"><ellipse cx="45.996" cy="50.916" rx="18.057" ry="18.057" transform="matrix(.993 -.122 .122 .993 -5.864 5.988)"/><circle cx="411.477" cy="169.578" r="7.789"/></g></g></g></svg>