<svg id="Capa_1" enable-background="new 0 0 512 512" height="512" viewBox="0 0 512 512" width="512" xmlns="http://www.w3.org/2000/svg"><g><g><path d="m88.358 225.104c5.091 19.555-7.734 31.802-25.975 37.613s-52.214-12.704-52.214-12.704 19.867-35.667 38.107-41.478c18.241-5.811 34.991-2.986 40.082 16.569z" fill="#fde15c"/><path d="m251.533 58.464-132.025 42.06-37.422-47.061 129.137-41.14c14.431-4.598 29.5 4.616 33.656 20.58z" fill="#fd8abe"/><path d="m257.858 43.593-243.082 77.44c-6.786 2.162-6.102 13.035.889 14.136l36.255 12.239c4.383.69 7.991 4.162 9.216 8.868l26.145 100.42c2.092 8.034 9.675 12.671 16.938 10.357l386.427-123.106c7.263-2.314 11.455-10.702 9.363-18.736l-7.377-28.335c-1.705-6.549-6.546-11.517-12.578-12.907l-182.398-42.028c-13.19-3.039-26.851-2.472-39.798 1.652z" fill="#fd8abe"/><path d="m500.008 125.212-7.377-28.335c-1.705-6.549-6.546-11.517-12.578-12.907l-182.397-42.029c-13.19-3.039-26.851-2.472-39.798 1.652l-45.197 14.399c5.525-.351 11.089.092 16.547 1.35l139.554 32.157c4.615 1.063 8.319 4.864 9.624 9.875l5.644 21.679c1.6 6.147-1.607 12.565-7.164 14.335l-295.658 94.19c-.145.046-.291.074-.437.113l6.51 25.006c2.092 8.034 9.675 12.671 16.938 10.357l386.427-123.106c7.262-2.314 11.454-10.702 9.362-18.736z" fill="#ff68c1"/><path d="m474.088 83.097-22.962 7.315c-7.473 2.381-11.786 11.012-9.634 19.278l.365 1.403c2.152 8.266 9.955 13.037 17.427 10.657l34.712-11.058" fill="#fde15c"/><path d="m277.143 85.132 10.83 41.599c1.416 5.438 6.549 8.578 11.466 7.011l61.025-19.441c11.241-3.581 10.483-21.473-1.011-23.876l-73.943-15.459c-5.341-1.116-9.871 4.388-8.367 10.166z" fill="#96e6f0"/><ellipse cx="175.634" cy="232.598" fill="#74b5f0" rx="29.209" ry="32.31"/><ellipse cx="402.582" cy="160.298" fill="#74b5f0" rx="29.209" ry="32.31"/><path d="m220.107 142.877-151.405 48.234-10.478-40.245 151.404-48.234c5.817-1.853 11.89 1.861 13.565 8.295l4.412 16.945c1.675 6.434-1.682 13.152-7.498 15.005z" fill="#96e6f0"/><path d="m345.458 500.864v-218.597c0-8.324 6.748-15.073 15.073-15.073h73.65c8.324 0 15.073 6.748 15.073 15.073v218.596" fill="#ab82e4"/><path d="m434.18 267.195h-31.596c5.36 0 9.705 5.014 9.705 11.198v162.409h-66.831v60.061h103.795v-218.596c0-8.324-6.749-15.072-15.073-15.072z" fill="#a862e6"/><g fill="#d1b3f0"><path d="m376.304 500.864v-88.891c0-9.951-8.067-18.017-18.018-18.017h-63.921c-8.324 0-15.073 6.748-15.073 15.072v91.836"/><path d="m143.13 500.864v-117.761c0-8.324-6.748-15.073-15.072-15.073h-102.948c-8.324 0-15.072 6.748-15.072 15.073v117.761z"/></g></g><g><g fill="#4e0325"><path d="m509.721 122.683-7.378-28.336c-2.655-10.198-10.333-17.922-20.037-20.158l-182.397-42.029c-14.661-3.379-30.002-2.796-44.419 1.666l-.899-3.452c-2.793-10.726-9.673-19.788-18.876-24.861-8.544-4.711-18.326-5.688-27.54-2.754l-129.135 41.141c-3.144 1.002-5.596 3.485-6.556 6.643-.961 3.157-.307 6.585 1.747 9.168l20.207 25.411-82.708 26.348c-7.496 2.388-12.297 9.751-11.675 17.905.595 7.811 5.78 13.924 13.032 15.518l35.622 12.025c.537.181 1.088.317 1.648.405.247.039.814.514 1.065 1.482l9.663 37.114c-4.979.269-10.288 1.278-15.856 3.052-20.967 6.68-40.189 39.622-43.829 46.158-1.303 2.34-1.617 5.103-.872 7.675s2.487 4.74 4.838 6.022c3.253 1.773 28.242 15.009 49.01 15.009 3.889 0 7.63-.464 11.052-1.555 5.572-1.775 10.506-4.009 14.775-6.637 5.188 9.384 16.846 14.429 27.062 10.974l41.464-13.21c2.678 2.727 5.709 5.067 9.037 6.902 5.595 3.084 11.69 4.648 17.833 4.648 3.738 0 7.494-.58 11.164-1.749 13.756-4.382 23.656-16.371 26.926-30.496l161.988-51.605c2.677 2.726 5.708 5.066 9.037 6.901 5.594 3.084 11.69 4.649 17.834 4.649 3.737 0 7.493-.58 11.163-1.749 13.757-4.383 23.656-16.371 26.927-30.497l53.054-16.902c12.248-3.9 19.438-17.729 16.029-30.826zm-26.803-23.277 2.042 7.844-27.502 8.762c-2.315.737-4.237.102-5.439-.561-2.08-1.147-3.659-3.288-4.333-5.877l-.365-1.402c-1.333-5.119 1.247-10.624 5.634-12.022l14.798-4.715 10.047 2.315c2.356.544 4.365 2.764 5.118 5.656zm-383.917-40.797 115.268-36.722c5.014-1.597 9.16-.225 11.756 1.206 4.398 2.425 7.73 6.922 9.14 12.34l1.167 4.484-121.432 38.685zm-28.152 95.139c-.047-.181-.107-.355-.158-.534l140.765-44.844c1.349-.431 2.477-.056 3.184.334 1.3.716 2.293 2.08 2.725 3.74l4.412 16.945c.864 3.321-.737 6.87-3.499 7.75l-140.13 44.642zm-11.513 99.405c-7.564 2.412-22.61-2.036-34.834-7.342 7.959-12.024 18.969-25.211 26.82-27.713 5.735-1.828 10.857-2.513 14.999-2.067l7.629 29.302c-3.337 3.168-8.21 5.78-14.614 7.82zm121.335.93c-5.638 1.796-10.297.256-13.213-1.353-4.903-2.702-8.613-7.703-10.179-13.719-3.137-12.044 2.839-24.559 13.317-27.897 4.319-1.58 10.008-.608 13.214 1.353 4.902 2.703 8.612 7.703 10.178 13.719 3.135 12.043-2.839 24.559-13.317 27.897zm226.948-72.3c-5.636 1.796-10.297.255-13.214-1.353-4.902-2.703-8.612-7.703-10.178-13.718-3.135-12.045 2.839-24.559 13.318-27.898 1.798-.573 3.496-.806 5.07-.806 3.361 0 6.156 1.064 8.143 2.159 4.902 2.703 8.612 7.703 10.178 13.719 3.137 12.043-2.838 24.558-13.317 27.897zm79.98-47.399-47.104 15.006c-.046-.188-.083-.376-.132-.563-2.949-11.325-10.208-20.889-19.914-26.241-8.996-4.96-19.296-5.99-28.997-2.9-20.474 6.523-32.429 29.886-26.652 52.082.14.536.298 1.063.456 1.591l-81.217 25.874-14.483-55.632c-.838-3.218-4.125-5.15-7.345-4.311-3.219.838-5.149 4.127-4.311 7.345l14.646 56.258-58.999 18.796c-.046-.187-.083-.376-.132-.563 0-.001 0-.001 0-.001-2.949-11.325-10.207-20.889-19.914-26.24-8.997-4.96-19.295-5.991-28.997-2.9-20.475 6.523-32.431 29.887-26.652 52.082.139.536.298 1.063.457 1.591l-37.136 11.831c-.249.08-1.01.321-1.997-.223-1.02-.563-1.815-1.693-2.182-3.1l-15.807-60.714 140.747-44.839c8.806-2.805 13.964-12.791 11.499-22.26l-4.412-16.945c-1.262-4.846-4.383-8.947-8.566-11.253-3.924-2.164-8.417-2.612-12.656-1.262l-143.637 45.761c-2.733-2.47-6.053-4.222-9.702-4.982l-28.572-9.645 235.016-74.87c11.184-3.563 23.112-4.059 34.498-1.436l150.163 34.602c-8.121 4.672-12.472 15.008-9.9 24.885l.365 1.401c1.503 5.773 5.211 10.652 10.173 13.389 4.628 2.552 9.927 3.078 14.91 1.489l26.885-8.565 2.296 8.818c.797 3.058-.766 6.03-2.695 6.644z"/><path d="m360.686 84.531-73.944-15.459c-4.354-.909-8.824.514-11.964 3.81-3.414 3.584-4.741 8.859-3.464 13.767l10.831 41.6c1.131 4.343 3.935 8.021 7.693 10.093 2.202 1.214 4.601 1.829 7.022 1.829 1.474 0 2.957-.229 4.407-.691l61.025-19.441c7.739-2.466 12.642-9.921 12.2-18.553-.434-8.505-5.983-15.32-13.806-16.955zm-2.049 24.033-61.024 19.441c-.663.211-1.321.141-1.959-.21-.875-.483-1.551-1.423-1.852-2.58l-10.831-41.599v.001c-.282-1.084.088-1.964.529-2.426.389-.409.662-.353.778-.328l73.943 15.459c3.798.794 4.201 4.956 4.243 5.783.122 2.377-.807 5.497-3.827 6.459z"/><path d="m232.42 168.624-22.465 7.157c-3.169 1.009-4.919 4.397-3.91 7.566.816 2.561 3.184 4.196 5.736 4.196.606 0 1.222-.092 1.83-.286l22.465-7.157c3.169-1.01 4.919-4.397 3.91-7.566-1.009-3.17-4.4-4.919-7.566-3.91z"/><path d="m434.18 257.158h-73.65c-13.846 0-25.11 11.264-25.11 25.109v101.651h-41.055c-13.846 0-25.11 11.264-25.11 25.109v91.836c0 5.543 4.494 10.037 10.037 10.037s10.037-4.493 10.037-10.037v-91.836c0-2.777 2.259-5.036 5.036-5.036h67.229c2.577 0 4.673 2.097 4.673 4.673v92.198c0 5.543 4.494 10.037 10.037 10.037s10.037-4.493 10.037-10.037v-92.198c0-13.646-11.101-24.747-24.747-24.747h-6.1v-101.65c0-2.777 2.259-5.036 5.036-5.036h73.65c2.777 0 5.035 2.259 5.035 5.036v218.596c0 5.543 4.494 10.037 10.037 10.037s10.037-4.493 10.037-10.037v-218.596c0-13.845-11.264-25.109-25.109-25.109z"/><path d="m128.058 357.993h-118.021c-5.543 0-10.037 4.494-10.037 10.037s4.494 10.037 10.037 10.037h118.021c2.777 0 5.035 2.259 5.035 5.036v117.761c0 5.543 4.494 10.037 10.037 10.037s10.037-4.493 10.037-10.037v-117.761c0-13.846-11.265-25.11-25.109-25.11z"/><path d="m382.422 299.015c-3.326 0-6.022 2.696-6.022 6.022v11.047c0 3.326 2.697 6.022 6.022 6.022 3.326 0 6.022-2.696 6.022-6.022v-11.047c0-3.325-2.697-6.022-6.022-6.022z"/><path d="m412.289 299.015c-3.326 0-6.022 2.696-6.022 6.022v11.047c0 3.326 2.697 6.022 6.022 6.022 3.326 0 6.022-2.696 6.022-6.022v-11.047c0-3.325-2.696-6.022-6.022-6.022z"/><path d="m382.422 340.713c-3.326 0-6.022 2.696-6.022 6.022v11.047c0 3.326 2.697 6.022 6.022 6.022 3.326 0 6.022-2.696 6.022-6.022v-11.047c0-3.326-2.697-6.022-6.022-6.022z"/><path d="m412.289 340.713c-3.326 0-6.022 2.696-6.022 6.022v11.047c0 3.326 2.697 6.022 6.022 6.022 3.326 0 6.022-2.696 6.022-6.022v-11.047c0-3.326-2.696-6.022-6.022-6.022z"/><path d="m412.289 382.409c-3.326 0-6.022 2.697-6.022 6.022v11.047c0 3.326 2.697 6.022 6.022 6.022 3.326 0 6.022-2.697 6.022-6.022v-11.047c0-3.325-2.696-6.022-6.022-6.022z"/><path d="m412.289 424.107c-3.326 0-6.022 2.696-6.022 6.022v11.046c0 3.326 2.697 6.022 6.022 6.022 3.326 0 6.022-2.696 6.022-6.022v-11.046c0-3.326-2.696-6.022-6.022-6.022z"/><path d="m315.591 420.705c-3.326 0-6.022 2.696-6.022 6.022v11.047c0 3.326 2.696 6.022 6.022 6.022s6.022-2.696 6.022-6.022v-11.047c0-3.326-2.696-6.022-6.022-6.022z"/><path d="m345.457 420.705c-3.326 0-6.022 2.696-6.022 6.022v11.047c0 3.326 2.697 6.022 6.022 6.022 3.326 0 6.022-2.696 6.022-6.022v-11.047c.001-3.326-2.696-6.022-6.022-6.022z"/><path d="m315.591 462.402c-3.326 0-6.022 2.697-6.022 6.022v11.046c0 3.326 2.696 6.022 6.022 6.022s6.022-2.697 6.022-6.022v-11.046c0-3.325-2.696-6.022-6.022-6.022z"/><path d="m345.457 462.402c-3.326 0-6.022 2.697-6.022 6.022v11.046c0 3.326 2.697 6.022 6.022 6.022 3.326 0 6.022-2.697 6.022-6.022v-11.046c.001-3.325-2.696-6.022-6.022-6.022z"/><path d="m74.468 399.857c-3.326 0-6.022 2.696-6.022 6.022v11.047c0 3.326 2.696 6.022 6.022 6.022s6.022-2.696 6.022-6.022v-11.047c0-3.326-2.696-6.022-6.022-6.022z"/><path d="m104.335 399.857c-3.326 0-6.022 2.696-6.022 6.022v11.047c0 3.326 2.696 6.022 6.022 6.022s6.022-2.696 6.022-6.022v-11.047c0-3.326-2.697-6.022-6.022-6.022z"/><path d="m74.468 441.553c-3.326 0-6.022 2.696-6.022 6.022v11.047c0 3.326 2.696 6.022 6.022 6.022s6.022-2.696 6.022-6.022v-11.047c0-3.325-2.696-6.022-6.022-6.022z"/><path d="m43.681 399.857c-3.326 0-6.022 2.696-6.022 6.022v11.047c0 3.326 2.696 6.022 6.022 6.022s6.022-2.696 6.022-6.022v-11.047c0-3.326-2.696-6.022-6.022-6.022z"/><path d="m43.681 441.553c-3.326 0-6.022 2.696-6.022 6.022v11.047c0 3.326 2.696 6.022 6.022 6.022s6.022-2.696 6.022-6.022v-11.047c0-3.325-2.696-6.022-6.022-6.022z"/><path d="m104.335 441.553c-3.326 0-6.022 2.696-6.022 6.022v11.047c0 3.326 2.696 6.022 6.022 6.022s6.022-2.696 6.022-6.022v-11.047c0-3.325-2.697-6.022-6.022-6.022z"/></g><path d="m114.884 123.731c-4.244 0-8.186-2.713-9.555-6.971-1.695-5.278 1.21-10.93 6.488-12.625l37.213-11.952c5.281-1.696 10.93 1.21 12.626 6.487 1.695 5.278-1.21 10.93-6.488 12.625l-37.213 11.952c-1.02.328-2.054.484-3.071.484z" fill="#fff"/><path d="m74.545 136.167c-4.273 0-8.235-2.751-9.577-7.046-1.653-5.291 1.296-10.92 6.587-12.574l6.719-2.099c5.289-1.654 10.92 1.296 12.574 6.587 1.653 5.291-1.296 10.92-6.587 12.574l-6.719 2.1c-.997.31-2.007.458-2.997.458z" fill="#fff"/></g><g><path d="m254.248 279.786-8.245 23.183c-.353.993-1.052 1.779-1.934 2.176l-20.597 9.28c-2.91 1.311-2.91 5.948 0 7.259l20.597 9.28c.882.397 1.581 1.184 1.934 2.177l8.245 23.183c1.165 3.275 5.284 3.275 6.449 0l8.245-23.183c.353-.993 1.052-1.779 1.934-2.177l20.597-9.28c2.91-1.311 2.91-5.947 0-7.259l-20.597-9.28c-.882-.397-1.581-1.184-1.934-2.176l-8.245-23.183c-1.165-3.276-5.284-3.276-6.449 0z" fill="#fdc3db"/><path d="m202.458 383.015-6.116 17.197c-.262.736-.78 1.32-1.434 1.615l-15.279 6.883c-2.158.973-2.158 4.412 0 5.384l15.279 6.884c.654.295 1.173.878 1.434 1.614l6.116 17.197c.864 2.429 3.919 2.429 4.783 0l6.116-17.197c.262-.736.78-1.32 1.434-1.614l15.278-6.884c2.158-.973 2.158-4.412 0-5.384l-15.278-6.883c-.654-.295-1.173-.878-1.434-1.615l-6.116-17.197c-.863-2.429-3.919-2.429-4.783 0z" fill="#fdc3db"/><g fill="#fd8abe"><ellipse cx="493.997" cy="209.748" rx="18.003" ry="18.003" transform="matrix(.997 -.083 .083 .997 -15.617 41.46)"/><path d="m129.378 315.568c0 4.289 3.477 7.766 7.766 7.766s7.766-3.477 7.766-7.766-3.477-7.766-7.766-7.766-7.766 3.477-7.766 7.766z"/></g></g></g></svg>