<svg id="Capa_1" enable-background="new 0 0 512 512" height="512" viewBox="0 0 512 512" width="512" xmlns="http://www.w3.org/2000/svg"><g><g><path d="m352.961 118.795h-176.752c-73.202 0-132.544 59.342-132.544 132.544v59.655c0 73.202 59.342 132.544 132.544 132.544h1.135v11.173c0 25.976 21.057 47.033 47.033 47.033h81.551c25.976 0 47.033-21.057 47.033-47.033v-11.173c73.202 0 132.544-59.342 132.544-132.543v-59.655c0-73.203-59.342-132.545-132.544-132.545z" fill="#fff"/><path d="m352.961 118.795h-38.757c64.029 0 115.935 51.906 115.935 115.935v52.18c0 50.198-31.904 92.945-76.54 109.07-23.197 8.38-43.46 23.183-58.39 42.815-6.393 8.407-13.992 14.962-22.145 14.962h-71.332c-9.131 0-17.564-2.979-24.389-8.012v8.965c0 25.976 21.058 47.033 47.034 47.033h81.551c25.976 0 47.033-21.057 47.033-47.033v-11.173c73.202 0 132.544-59.342 132.544-132.544v-59.655c0-73.201-59.342-132.543-132.544-132.543z" fill="#ffc0fe"/><g fill="#fde15c"><path d="m264.585 17.451-34.461 93.344c-2.419 6.552-2.725 13.753-.571 20.397 10.552 32.547 59.511 32.547 70.063 0 2.154-6.644 1.848-13.845-.571-20.397z"/><path d="m264.585 187.488-27.332 40.504c-14.826 21.97.537 52.019 27.041 52.208.676.005 1.351-.007 2.026-.036 25.842-1.1 40.084-30.701 25.616-52.142z"/></g></g><g fill="#4e0325"><path d="m352.961 108.539h-43.846c-.144-.433-.29-.866-.448-1.296l-34.461-93.344c-1.487-4.029-5.327-6.704-9.621-6.704-4.295 0-8.134 2.676-9.621 6.704l-34.46 93.344c-.159.429-.304.862-.448 1.295h-43.846c-78.74 0-142.801 64.06-142.801 142.8v59.655c0 75.674 59.175 137.789 133.678 142.512v1.204c0 31.59 25.7 57.29 57.291 57.29h81.551c31.59 0 57.29-25.7 57.29-57.29v-1.281c73.969-5.278 132.544-67.146 132.544-142.435v-59.655c-.001-78.739-64.062-142.799-142.802-142.799zm-113.215 5.808 24.839-67.282 24.84 67.281c1.673 4.531 1.827 9.39.436 13.683-4.14 12.768-15.77 17.317-25.274 17.317-9.505 0-21.136-4.549-25.275-17.318-1.394-4.29-1.239-9.149.434-13.681zm235.503 196.647c0 67.429-54.858 122.287-122.288 122.287-5.664 0-10.256 4.592-10.256 10.256v11.173c0 20.279-16.498 36.777-36.777 36.777h-81.551c-20.279 0-36.778-16.498-36.778-36.777v-11.173c0-5.665-4.592-10.256-10.256-10.256h-1.134c-67.43 0-122.288-54.858-122.288-122.287v-59.655c0-67.43 54.858-122.287 122.288-122.287h42.275c.317 1.797.751 3.571 1.313 5.304 6.205 19.138 23.785 31.504 44.789 31.504 21.003 0 38.583-12.366 44.788-31.505.562-1.733.995-3.507 1.312-5.303h42.276c67.43 0 122.288 54.858 122.288 122.287v59.655z"/><path d="m129.163 320.357c-14.076 0-25.488 11.412-25.488 25.488s11.411 25.488 25.488 25.488 25.488-11.411 25.488-25.488-11.411-25.488-25.488-25.488z"/><path d="m401.589 320.357c-14.077 0-25.488 11.412-25.488 25.488s11.411 25.488 25.488 25.488 25.488-11.411 25.488-25.488-11.412-25.488-25.488-25.488z"/><circle cx="248.123" cy="362.514" r="6.569"/><circle cx="278.202" cy="362.514" r="6.569"/><path d="m316.01 442.862h-15.855v-13.012c0-3.398-2.755-6.154-6.154-6.154-3.398 0-6.154 2.755-6.154 6.154v13.012h-19.597v-13.012c0-3.398-2.755-6.154-6.154-6.154-3.398 0-6.154 2.755-6.154 6.154v13.012h-19.598v-13.012c0-3.398-2.755-6.154-6.154-6.154-3.398 0-6.154 2.755-6.154 6.154v13.012h-9.294c-3.398 0-6.154 2.755-6.154 6.154s2.755 6.154 6.154 6.154h9.294v12.187c0 3.398 2.755 6.154 6.154 6.154 3.398 0 6.154-2.755 6.154-6.154v-12.187h19.598v12.187c0 3.398 2.755 6.154 6.154 6.154 3.398 0 6.154-2.755 6.154-6.154v-12.187h19.597v12.187c0 3.398 2.755 6.154 6.154 6.154 3.398 0 6.154-2.755 6.154-6.154v-12.187h15.855c3.398 0 6.154-2.755 6.154-6.154s-2.756-6.154-6.154-6.154z"/><path d="m264.226 290.456c.114 0 .229.001.343.001.729 0 1.457-.016 2.188-.047 15.679-.668 29.301-9.509 36.436-23.651 7.194-14.255 6.138-31.297-2.754-44.475l-27.353-40.534c-1.907-2.826-5.093-4.519-8.502-4.519-3.408 0-6.595 1.694-8.502 4.519l-27.332 40.504c-9.06 13.424-9.981 30.693-2.406 45.066 7.574 14.373 21.734 23.021 37.882 23.136zm-18.472-56.726 18.83-27.905 18.851 27.935c4.813 7.133 5.353 16.015 1.444 23.76-3.742 7.416-10.843 12.05-18.993 12.397-.507.022-1.014.028-1.519.028-8.456-.061-15.885-4.616-19.875-12.186-4.105-7.792-3.634-16.774 1.262-24.029z"/><path d="m348.945 175.125c-3.398 0-6.154 2.755-6.154 6.154v12.42c0 3.398 2.755 6.154 6.154 6.154 3.398 0 6.154-2.755 6.154-6.154v-12.42c-.001-3.399-2.756-6.154-6.154-6.154z"/><path d="m391.287 222.271c3.398 0 6.154-2.755 6.154-6.154v-12.42c0-3.398-2.755-6.154-6.154-6.154-3.398 0-6.154 2.755-6.154 6.154v12.42c0 3.398 2.756 6.154 6.154 6.154z"/></g><g><path d="m419.162 2.51-8.425 23.69c-.361 1.014-1.075 1.818-1.976 2.224l-21.048 9.483c-2.973 1.34-2.973 6.078 0 7.417l21.048 9.483c.901.406 1.615 1.21 1.976 2.224l8.425 23.69c1.19 3.347 5.4 3.347 6.59 0l8.425-23.69c.361-1.014 1.075-1.818 1.976-2.224l21.047-9.483c2.974-1.34 2.974-6.077 0-7.417l-21.047-9.483c-.901-.406-1.615-1.21-1.976-2.224l-8.425-23.69c-1.19-3.347-5.4-3.347-6.59 0z" fill="#fdf0a3"/><path d="m41.221 57.52-6.25 17.573c-.268.752-.797 1.349-1.466 1.65l-15.613 7.034c-2.206.994-2.206 4.508 0 5.502l15.613 7.034c.668.301 1.198.897 1.466 1.65l6.25 17.573c.883 2.482 4.005 2.482 4.888 0l6.25-17.573c.268-.752.797-1.349 1.466-1.65l15.613-7.034c2.206-.994 2.206-4.508 0-5.502l-15.613-7.034c-.668-.301-1.198-.897-1.466-1.65l-6.25-17.573c-.883-2.483-4.005-2.483-4.888 0z" fill="#fdf0a3"/><g fill="#fde15c"><ellipse cx="138.473" cy="21.869" rx="18.396" ry="18.397" transform="matrix(.997 -.083 .083 .997 -1.332 11.496)"/><circle cx="485.505" cy="118.795" r="7.936"/></g></g></g></svg>