<svg id="Capa_1" enable-background="new 0 0 512 512" height="512" viewBox="0 0 512 512" width="512" xmlns="http://www.w3.org/2000/svg"><g><g><path d="m443.793 501.784h-393.525c-11.651 0-21.096-9.221-21.096-20.596v-21.097c0-3.521.925-6.983 2.686-10.056l50.071-73.751h408.373v39.903c0 1.777-.236 3.547-.701 5.266l-25.414 65.001c-2.447 9.036-10.82 15.33-20.394 15.33z" fill="#ab82e4"/><path d="m433.32 376.285v24.235c0 1.079-.207 2.155-.614 3.198l-22.273 39.478c-2.145 5.488-9.484 9.311-17.875 9.311h-344.896c-5.79 0-10.954-1.803-14.344-4.621l-1.46 2.15c-1.761 3.073-2.686 6.535-2.686 10.056v21.097c0 11.374 9.445 20.596 21.096 20.596h393.525c9.574 0 17.947-6.294 20.395-15.33l25.414-65.001c.466-1.719.701-3.488.701-5.266v-39.903z" fill="#a862e6"/><path d="m461.811 376.284h-358.769c-17.086 0-30.937-13.851-30.937-30.937v-203.037c0-17.086 13.851-30.937 30.937-30.937h358.769c17.086 0 30.937 13.851 30.937 30.937v203.037c0 17.087-13.851 30.937-30.937 30.937z" fill="#ab82e4"/><path d="m452.309 337.754h-339.765c-.872 0-1.579-.707-1.579-1.579v-184.692c0-.872.707-1.579 1.579-1.579h339.765c.872 0 1.579.707 1.579 1.579v184.691c0 .873-.707 1.58-1.579 1.58z" fill="#00e9c2"/><path d="m461.811 111.373h-60.284c2.631 3.909 4.167 8.616 4.167 13.682v161.018c0 13.55-10.984 24.534-24.534 24.534h-284.52c-13.55 0-24.535-10.984-24.535-24.534v59.274c0 17.086 13.851 30.937 30.937 30.937h358.768c17.086 0 30.937-13.851 30.937-30.937v-203.037c.001-17.086-13.851-30.937-30.936-30.937z" fill="#a862e6"/><path d="m452.309 149.904h-46.615v136.169c0 13.549-10.984 24.534-24.534 24.534h-270.195v25.567c0 .872.707 1.579 1.579 1.579h339.765c.872 0 1.579-.707 1.579-1.579v-184.691c0-.872-.707-1.579-1.579-1.579z" fill="#45b1c6"/><path d="m330.393 58.729h-95.933c-39.731 0-71.939 32.208-71.939 71.939v32.378c0 39.731 32.208 71.939 71.939 71.939h.616v6.064c0 14.099 11.429 25.528 25.528 25.528h44.262c14.099 0 25.527-11.429 25.527-25.528v-6.064c39.731 0 71.939-32.208 71.939-71.939v-32.378c0-39.731-32.208-71.939-71.939-71.939z" fill="#fde15c"/><path d="m330.393 58.729h-30.081c32.611 0 59.048 26.436 59.048 59.048v26.577c0 32.611-26.437 59.048-59.048 59.048v7.209c0 11.573-9.381 20.953-20.953 20.953h-36.331c-2.926 0-5.71-.604-8.239-1.687l.287 11.172c0 14.098 11.429 25.527 25.528 25.527h44.262c14.098 0 25.527-11.429 25.527-25.527v-6.065c39.731 0 71.939-32.208 71.939-71.939v-32.378c0-39.73-32.208-71.938-71.939-71.938z" fill="#ffac62"/></g><g><g fill="#4e0325"><path d="m502.964 142.31c0-22.691-18.461-41.153-41.152-41.153h-59.159c-11.664-28.456-39.651-48.558-72.259-48.558h-95.934c-32.607 0-60.594 20.102-72.259 48.558h-59.159c-22.692 0-41.153 18.461-41.153 41.153v203.037c0 10.396 3.882 19.897 10.264 27.148l-48.747 71.802c-.145.214-.282.434-.411.658-2.642 4.609-4.038 9.843-4.038 15.135v21.097c0 16.99 14.046 30.812 31.312 30.812h393.524c13.96 0 26.245-9.134 30.09-22.289l25.233-64.537c.134-.343.249-.692.345-1.047.701-2.588 1.057-5.259 1.057-7.938v-39.904c0-3.45-1.716-6.495-4.335-8.345 4.28-6.49 6.781-14.253 6.781-22.592zm-243.997 189.314v-42.026c0-3.385-2.745-6.129-6.13-6.129h-60.377c-.711-13.411-11.845-24.103-25.43-24.103-14.043 0-25.467 11.424-25.467 25.467s11.424 25.468 25.467 25.468c10.146 0 18.923-5.966 23.014-14.573h56.663v35.896h-129.613v-98.608h82.788c8.872 4.402 18.688 7.177 29.064 7.904v.128c0 17.456 14.201 31.657 31.657 31.657h44.262c17.456 0 31.657-14.201 31.657-31.657v-.173c2.915-.228 5.779-.634 8.596-1.174v91.923zm-91.936-33.583c-7.283 0-13.208-5.925-13.208-13.209 0-7.283 5.925-13.208 13.208-13.208s13.208 5.925 13.208 13.208c0 7.284-5.924 13.209-13.208 13.209zm14.93-77.284h-64.867v-64.724h39.297v7.011c0 22.848 9.876 43.424 25.57 57.713zm175.416 55.633h28.928c2.751 11.091 12.788 19.338 24.717 19.338 14.043 0 25.468-11.425 25.468-25.468s-11.425-25.468-25.468-25.468c-11.93 0-21.966 8.247-24.717 19.338h-28.928v-27.84c29.786-11.009 51.084-39.682 51.084-73.246v-7.011h39.297v175.59h-90.381zm40.436-6.13c0-7.284 5.925-13.209 13.209-13.209s13.209 5.925 13.209 13.209-5.925 13.209-13.209 13.209-13.209-5.925-13.209-13.209zm-163.353-205.402h95.933c36.287 0 65.809 29.522 65.809 65.809v32.377c0 36.287-29.522 65.809-65.809 65.809-3.385 0-6.13 2.744-6.13 6.13v6.065c0 10.696-8.702 19.398-19.398 19.398h-1.467v-18.005c0-3.385-2.745-6.129-6.129-6.129-3.385 0-6.13 2.745-6.13 6.129v18.005h-17.426v-17.562c0-3.385-2.745-6.13-6.129-6.13-3.385 0-6.13 2.744-6.13 6.13v17.562h-.851c-10.696 0-19.398-8.702-19.398-19.398v-6.065c0-3.385-2.744-6.13-6.13-6.13h-.616c-36.287 0-65.809-29.522-65.809-65.809v-32.377c0-36.286 29.523-65.809 65.81-65.809zm-152.139 77.452c0-11.426 9.295-20.721 20.721-20.721h53.894c-.347 2.981-.545 6.006-.545 9.078v13.107h-43.848c-4.25 0-7.709 3.458-7.709 7.709v184.691c0 4.251 3.458 7.709 7.709 7.709h339.765c4.251 0 7.709-3.458 7.709-7.709v-184.691c0-4.251-3.458-7.709-7.709-7.709h-43.847v-13.107c0-3.072-.198-6.098-.545-9.078h53.895c11.426 0 20.721 9.295 20.721 20.721v203.037c0 11.426-9.295 20.721-20.721 20.721h-358.769c-11.426 0-20.721-9.295-20.721-20.721zm397.766 273.878c0 .722-.08 1.444-.236 2.15l-25.177 64.396c-.135.343-.249.694-.346 1.049-1.241 4.584-5.573 7.786-10.534 7.786h-393.525c-5.999 0-10.88-4.657-10.88-10.38v-21.097c0-1.627.407-3.243 1.178-4.694l46.774-68.898h15.701 358.769 18.276z"/><path d="m208.926 195.795c7.64 0 13.834-6.194 13.834-13.834s-6.194-13.834-13.834-13.834-13.834 6.193-13.834 13.834c0 7.64 6.194 13.834 13.834 13.834z"/><path d="m356.786 195.795c7.64 0 13.833-6.194 13.833-13.834s-6.193-13.834-13.833-13.834-13.834 6.193-13.834 13.834c0 7.64 6.194 13.834 13.834 13.834z"/><path d="m270.847 199.147c3.232 0 5.852-2.62 5.852-5.852s-2.62-5.852-5.852-5.852-5.852 2.62-5.852 5.852c-.001 3.232 2.62 5.852 5.852 5.852z"/><path d="m294.006 199.147c3.232 0 5.852-2.62 5.852-5.852s-2.62-5.852-5.852-5.852-5.852 2.62-5.852 5.852 2.62 5.852 5.852 5.852z"/><path d="m401.919 446.377h-322.508c-3.385 0-6.129 2.745-6.129 6.13s2.744 6.129 6.129 6.129h322.508c3.385 0 6.129-2.744 6.129-6.129s-2.744-6.13-6.129-6.13z"/><path d="m323.346 111.364c3.385 0 6.129-2.745 6.129-6.13v-12.37c0-3.385-2.745-6.13-6.129-6.13-3.385 0-6.13 2.745-6.13 6.13v12.371c0 3.385 2.745 6.129 6.13 6.129z"/><path d="m354.19 129.874c3.385 0 6.129-2.745 6.129-6.13v-12.371c0-3.385-2.744-6.13-6.129-6.13s-6.13 2.744-6.13 6.13v12.371c0 3.385 2.745 6.13 6.13 6.13z"/></g><path d="m213.158 420.09h-40.33c-5.642 0-10.216-4.574-10.216-10.216s4.574-10.216 10.216-10.216h40.33c5.642 0 10.216 4.574 10.216 10.216 0 5.641-4.574 10.216-10.216 10.216z" fill="#fff"/><path d="m126.245 420.09h-14.361c-5.642 0-10.216-4.574-10.216-10.216s4.574-10.216 10.216-10.216h14.361c5.642 0 10.216 4.574 10.216 10.216 0 5.641-4.574 10.216-10.216 10.216z" fill="#fff"/><path d="m191.772 148.686c-.001 0-.001 0-.001 0-5.642 0-10.215-4.574-10.215-10.217.001-14.227 4.783-28.249 13.466-39.481 3.45-4.464 9.866-5.287 14.33-1.836 4.465 3.451 5.286 9.867 1.836 14.33-5.932 7.675-9.199 17.259-9.2 26.989 0 5.642-4.574 10.215-10.216 10.215z" fill="#fff"/><path d="m231.697 96.242c-4.484 0-8.597-2.976-9.844-7.509-1.496-5.44 1.7-11.063 7.141-12.559 5.568-1.532 11.344-2.309 17.168-2.309 5.642 0 10.216 4.574 10.216 10.216s-4.574 10.216-10.216 10.216c-3.993 0-7.946.531-11.749 1.576-.907.249-1.819.369-2.716.369z" fill="#fff"/></g><g><path d="m42.582 9.412-8.392 23.596c-.359 1.01-1.071 1.811-1.968 2.215l-20.964 9.445c-2.962 1.335-2.962 6.054 0 7.388l20.964 9.445c.897.405 1.609 1.205 1.968 2.215l8.392 23.596c1.186 3.334 5.378 3.334 6.564 0l8.392-23.596c.359-1.01 1.07-1.811 1.968-2.215l20.964-9.445c2.962-1.334 2.962-6.053 0-7.388l-20.964-9.445c-.898-.404-1.609-1.205-1.968-2.215l-8.392-23.596c-1.186-3.334-5.379-3.334-6.564 0z" fill="#fdf0a3"/><path d="m438.516 8.766-6.225 17.503c-.267.749-.794 1.343-1.46 1.643l-15.551 7.006c-2.197.99-2.197 4.49 0 5.48l15.551 7.006c.666.3 1.193.894 1.46 1.643l6.225 17.503c.879 2.473 3.989 2.473 4.869 0l6.225-17.503c.267-.749.794-1.343 1.46-1.643l15.551-7.006c2.197-.99 2.197-4.49 0-5.48l-15.551-7.006c-.666-.3-1.193-.894-1.46-1.643l-6.225-17.503c-.879-2.473-3.989-2.473-4.869 0z" fill="#fdf0a3"/><g fill="#fde15c"><ellipse cx="155.76" cy="18.324" rx="18.324" ry="18.324" transform="matrix(.997 -.083 .083 .997 -.981 12.91)"/><ellipse cx="370.619" cy="23.484" rx="7.904" ry="7.904" transform="matrix(.707 -.707 .707 .707 91.946 268.946)"/></g></g></g></svg>