<svg id="Capa_1" enable-background="new 0 0 512 512" height="512" viewBox="0 0 512 512" width="512" xmlns="http://www.w3.org/2000/svg"><g><g><path d="m219.103 189.401h71.056v95.708h-71.056z" fill="#a6aff4"/><path d="m414.356 311.921h48.666v189.801h-48.666z" fill="#ab82e4"/><path d="m46.656 311.921h48.666v189.801h-48.666z" fill="#ab82e4"/><g fill="#96e6f0"><ellipse cx="97.112" cy="302.547" rx="74.908" ry="56.743"/><ellipse cx="412.566" cy="302.547" rx="74.908" ry="56.743"/><path d="m283.04 212.185h-56.817c-30.949 0-56.039-25.09-56.039-56.039v-89.829c0-30.95 25.09-56.039 56.039-56.039h56.817c30.95 0 56.039 25.09 56.039 56.039v89.829c0 30.949-25.09 56.039-56.039 56.039z"/></g><path d="m283.04 10.278h-23.626c24.47 0 44.307 19.837 44.307 44.307v71.023c0 24.47-19.837 44.307-44.307 44.307h-44.922c-24.47 0-44.307-19.837-44.307-44.307v30.537c0 30.949 25.089 56.039 56.039 56.039h56.817c30.949 0 56.039-25.089 56.039-56.039v-89.828c-.001-30.949-25.091-56.039-56.04-56.039z" fill="#a6aff4"/><path d="m381.99 501.722v-124.215c0-64.454-52.25-116.704-116.704-116.704h-21.311c-64.454 0-116.704 52.25-116.704 116.704v124.215z" fill="#96e6f0"/><path d="m174.014 352.878c-1.336 0-2.695-.262-4.003-.816-5.227-2.214-7.67-8.246-5.456-13.473 3.033-7.164 7.009-13.929 11.815-20.108 3.487-4.481 9.944-5.287 14.424-1.803 4.481 3.485 5.288 9.942 1.803 14.423-3.71 4.769-6.775 9.985-9.113 15.504-1.66 3.92-5.467 6.273-9.47 6.273z" fill="#fff"/><path d="m207.071 315.246c-3.418 0-6.76-1.704-8.712-4.811-3.02-4.806-1.573-11.151 3.234-14.171 2.628-1.653 3.214-1.81 5.417-2.907 5.076-2.544 11.251-.488 13.793 4.586 2.542 5.075.488 11.251-4.587 13.793-1.691.87-2.061.896-3.687 1.933-1.699 1.068-3.59 1.577-5.458 1.577z" fill="#fff"/><path d="m265.287 260.803h-21.311c-2.367 0-4.716.079-7.048.218 50.242 3.305 89.971 45.097 89.971 96.175v102.597h-199.627v41.93h254.718v-124.216c0-64.454-52.25-116.704-116.703-116.704z" fill="#a6aff4"/><path d="m343.767 124.506h-178.272c-8.156 0-14.767-6.611-14.767-14.767v-32.602c0-8.156 6.611-14.767 14.767-14.767h178.272c8.155 0 14.767 6.611 14.767 14.767v32.603c0 8.155-6.611 14.766-14.767 14.766z" fill="#00e9c2"/><path d="m235.331 434.363h-33.675c-16.368 0-29.637-13.269-29.637-29.637v-5.166c0-16.368 13.269-29.637 29.637-29.637h33.675c16.368 0 29.637 13.269 29.637 29.637v5.166c.001 16.368-13.268 29.637-29.637 29.637z" fill="#00e9c2"/></g><g fill="#4e0325"><path d="m497.752 302.547c0-18.451-9.237-35.61-26.012-48.317-15.923-12.062-36.938-18.705-59.174-18.705s-43.251 6.643-59.174 18.705c-7.041 5.333-12.74 11.456-16.993 18.126-10.902-7.397-23.011-13.142-35.963-16.878v-35.346c28.153-7.664 48.92-33.439 48.92-63.986v-21.998c11.128-2.547 19.456-12.52 19.456-24.409v-32.602c0-12.412-9.078-22.739-20.941-24.703-6.401-29.922-33.027-52.434-64.832-52.434h-56.817c-31.804 0-58.43 22.512-64.831 52.434-11.864 1.965-20.942 12.291-20.942 24.703v32.603c0 11.888 8.329 21.861 19.456 24.409v21.998c0 30.547 20.766 56.322 48.919 63.986v35.347c-12.839 3.704-24.849 9.381-35.677 16.685-4.239-6.595-9.89-12.652-16.862-17.933-15.923-12.062-36.938-18.705-59.174-18.705s-43.251 6.643-59.175 18.705c-16.773 12.707-26.012 29.866-26.012 48.317 0 17.862 8.681 34.501 24.452 47.074v152.101c0 5.677 4.602 10.278 10.278 10.278s10.278-4.602 10.278-10.278v-13.964h28.109v13.964c0 5.677 4.602 10.278 10.278 10.278s10.278-4.602 10.278-10.278v-132.489c3.992-.31 7.921-.85 11.774-1.586-.251 3.253-.38 6.54-.38 9.857v124.215c0 5.677 4.602 10.278 10.278 10.278s10.278-4.602 10.278-10.278v-90.829h24.669c2.974 19.091 19.525 33.748 39.437 33.748h33.675c4.582 0 8.981-.786 13.083-2.213-.091 17.854-.092 35.829.006 53.581.019 3.394 2.776 6.133 6.166 6.133h.035c3.406-.019 6.152-2.795 6.133-6.201-.111-20.044-.098-40.381.032-60.494 8.828-7.328 14.461-18.378 14.461-30.721v-5.167c0-22.009-17.906-39.915-39.915-39.915h-1.559l59.125-84.923c45.341 12.191 78.815 53.65 78.815 102.786v124.215c0 5.677 4.602 10.278 10.278 10.278s10.278-4.602 10.278-10.278v-124.214c0-3.342-.132-6.654-.387-9.932 3.987.778 8.059 1.341 12.195 1.662v132.485c0 5.677 4.602 10.278 10.278 10.278s10.278-4.602 10.278-10.278v-13.964h28.11v13.964c0 5.677 4.602 10.278 10.278 10.278s10.278-4.602 10.278-10.278v-152.102c15.776-12.573 24.456-29.211 24.456-47.073zm-332.257-188.319c-2.475 0-4.489-2.014-4.489-4.489v-32.602c0-2.475 2.014-4.489 4.489-4.489h178.273c2.475 0 4.489 2.013 4.489 4.489v32.603c0 2.475-2.013 4.489-4.489 4.489h-178.273zm60.727-93.672h56.817c20.267 0 37.486 13.248 43.482 31.536h-143.779c5.996-18.288 23.215-31.536 43.48-31.536zm-45.76 135.59v-21.361h148.338v21.361c0 25.233-20.528 45.761-45.761 45.761h-56.817c-25.231 0-45.76-20.529-45.76-45.761zm48.919 66.317h50.499v28.906c-4.791-.551-9.658-.844-14.594-.844h-21.31c-4.936 0-9.804.293-14.595.844zm-172.447 183.448h28.109v28.59h-28.109zm28.109-12.334h-28.109v-31.867c8.723 3.658 18.211 6.099 28.109 7.192zm-28.109 81.847v-28.59h28.109v28.59zm40.178-126.412c-35.637 0-64.63-20.844-64.63-46.465s28.993-46.466 64.63-46.466c27.05 0 50.263 12.012 59.88 29.006-17.182 16.181-29.872 37.081-35.964 60.612-7.4 2.132-15.467 3.313-23.916 3.313zm157.578 50.548v5.167c0 10.675-8.684 19.359-19.359 19.359h-33.675c-10.675 0-19.359-8.684-19.359-19.359v-5.167c0-10.675 8.684-19.359 19.359-19.359h33.675c10.675 0 19.359 8.684 19.359 19.359zm-35.945-39.916h-17.089c-21.674 0-39.356 17.368-39.89 38.915h-24.216v-21.053c0-58.683 47.742-106.425 106.426-106.425h21.31c4.895 0 9.711.339 14.433.982zm205.889 46.267h28.11v28.59h-28.11zm28.11-12.334h-28.11v-24.674c9.898-1.093 19.387-3.535 28.11-7.192zm-28.11 81.847v-28.59h28.11v28.59zm-12.068-126.412c-8.619 0-16.843-1.226-24.366-3.439-6.071-23.352-18.638-44.109-35.648-60.224 9.527-17.13 32.827-29.268 60.014-29.268 35.636 0 64.629 20.844 64.629 46.466 0 25.621-28.992 46.465-64.629 46.465z"/><path d="m343.922 420.302h-40.202c-3.406 0-6.167 2.761-6.167 6.167s2.761 6.167 6.167 6.167h40.202c3.406 0 6.167-2.761 6.167-6.167s-2.761-6.167-6.167-6.167z"/><path d="m343.922 453.63h-40.202c-3.406 0-6.167 2.761-6.167 6.167s2.761 6.167 6.167 6.167h40.202c3.406 0 6.167-2.761 6.167-6.167 0-3.405-2.761-6.167-6.167-6.167z"/><path d="m254.631 180.57c10.014 0 18.161-8.147 18.161-18.161 0-3.406-2.761-6.167-6.167-6.167s-6.167 2.761-6.167 6.167c0 3.213-2.615 5.828-5.828 5.828s-5.828-2.614-5.828-5.828c0-3.406-2.761-6.167-6.167-6.167s-6.167 2.761-6.167 6.167c.001 10.014 8.149 18.161 18.163 18.161z"/></g><g><path d="m459.72 110.632-8.443 23.74c-.361 1.016-1.077 1.822-1.98 2.229l-21.092 9.503c-2.98 1.343-2.98 6.09 0 7.433l21.092 9.503c.903.407 1.619 1.212 1.98 2.229l8.443 23.74c1.193 3.354 5.411 3.354 6.604 0l8.443-23.74c.362-1.016 1.077-1.822 1.98-2.229l21.092-9.503c2.98-1.342 2.98-6.09 0-7.433l-21.092-9.503c-.903-.407-1.619-1.212-1.98-2.229l-8.443-23.74c-1.193-3.354-5.411-3.354-6.604 0z" fill="#a0f2e1"/><path d="m54.544 33.301-6.263 17.61c-.268.754-.799 1.351-1.469 1.653l-15.646 7.049c-2.21.996-2.21 4.518 0 5.514l15.646 7.049c.67.302 1.201.899 1.469 1.653l6.263 17.61c.885 2.488 4.014 2.488 4.899 0l6.263-17.61c.268-.754.799-1.352 1.469-1.653l15.646-7.049c2.21-.996 2.21-4.518 0-5.514l-15.646-7.049c-.67-.302-1.201-.899-1.469-1.653l-6.263-17.61c-.885-2.488-4.014-2.488-4.899 0z" fill="#a0f2e1"/><g fill="#00e9c2"><ellipse cx="87.387" cy="173.251" rx="18.435" ry="18.436" transform="matrix(.993 -.122 .122 .993 -20.513 11.975)"/><ellipse cx="425.97" cy="51.019" rx="7.953" ry="7.953" transform="matrix(.987 -.16 .16 .987 -2.672 68.891)"/></g></g></g></svg>