<svg id="Capa_1" enable-background="new 0 0 512 512" height="512" viewBox="0 0 512 512" width="512" xmlns="http://www.w3.org/2000/svg"><g><g><path d="m370.564 446.227h-215.903c-21.716 0-39.32-17.604-39.32-39.32v-215.902c0-21.716 17.604-39.32 39.32-39.32h215.903c21.716 0 39.32 17.604 39.32 39.32v215.903c-.001 21.715-17.605 39.319-39.32 39.319z" fill="#00e9c2"/><path d="m370.564 151.685h-57.862c16.792 0 30.405 13.613 30.405 30.405v166.956c0 16.792-13.613 30.405-30.405 30.405h-166.955c-16.792 0-30.405-13.613-30.405-30.405v57.861c0 21.716 17.604 39.32 39.32 39.32h215.903c21.715 0 39.32-17.604 39.32-39.32v-215.902c-.002-21.716-17.606-39.32-39.321-39.32z" fill="#45b1c6"/><path d="m325.603 374.088h-125.982c-6.705 0-12.141-5.436-12.141-12.141v-125.982c0-6.705 5.436-12.141 12.141-12.141h125.983c6.705 0 12.141 5.436 12.141 12.141v125.983c-.001 6.705-5.436 12.14-12.142 12.14z" fill="#fde15c"/></g><g><g fill="#4e0325"><path d="m325.604 217.611h-125.983c-10.121 0-18.354 8.233-18.354 18.354v125.982c0 10.12 8.233 18.354 18.354 18.354h125.983c10.121 0 18.354-8.233 18.354-18.354v-125.982c-.001-10.12-8.234-18.354-18.354-18.354zm5.928 144.336c0 3.269-2.659 5.928-5.928 5.928h-125.983c-3.269 0-5.928-2.659-5.928-5.928v-125.982c0-3.269 2.659-5.928 5.928-5.928h125.983c3.269 0 5.928 2.659 5.928 5.928z"/><circle cx="157.897" cy="196.418" r="11.561"/><circle cx="157.897" cy="401.494" r="11.561"/><path d="m367.327 184.858c-6.385 0-11.56 5.176-11.56 11.561s5.176 11.561 11.56 11.561 11.561-5.176 11.561-11.561c0-6.386-5.176-11.561-11.561-11.561z"/><path d="m367.327 389.933c-6.385 0-11.56 5.176-11.56 11.561s5.176 11.561 11.56 11.561 11.561-5.176 11.561-11.561-5.176-11.561-11.561-11.561z"/><path d="m465.302 256.953c5.718 0 10.354-4.636 10.354-10.354 0-5.719-4.636-10.354-10.354-10.354h-45.064v-31.649h45.064c5.718 0 10.354-4.636 10.354-10.354 0-5.719-4.636-10.354-10.354-10.354h-45.582c-3.128-21.704-20.335-38.91-42.038-42.038v-45.583c0-5.719-4.636-10.354-10.354-10.354s-10.354 4.636-10.354 10.354v45.064h-31.649v-45.064c0-5.719-4.636-10.354-10.354-10.354s-10.354 4.636-10.354 10.354v45.064h-31.648v-45.064c0-5.719-4.636-10.354-10.354-10.354s-10.354 4.636-10.354 10.354v45.064h-31.649v-45.064c0-5.719-4.636-10.354-10.354-10.354s-10.358 4.635-10.358 10.354v45.064h-31.648v-45.064c0-5.719-4.636-10.354-10.354-10.354s-10.354 4.636-10.354 10.354v45.582c-21.704 3.128-38.91 20.335-42.039 42.038h-46.486c-5.718 0-10.354 4.636-10.354 10.354 0 5.719 4.636 10.354 10.354 10.354h45.967v31.649h-45.967c-5.718 0-10.354 4.636-10.354 10.354 0 5.719 4.636 10.354 10.354 10.354h45.967v31.649h-45.967c-5.718 0-10.354 4.636-10.354 10.354 0 5.719 4.636 10.354 10.354 10.354h45.967v31.649h-45.967c-5.718 0-10.354 4.636-10.354 10.354s4.636 10.354 10.354 10.354h45.967v31.649h-45.967c-5.718 0-10.354 4.636-10.354 10.354 0 5.719 4.636 10.354 10.354 10.354h46.485c3.129 21.704 20.335 38.91 42.039 42.039v45.582c0 5.719 4.636 10.354 10.354 10.354s10.354-4.636 10.354-10.354v-45.064h31.649v45.064c0 5.719 4.636 10.354 10.354 10.354s10.354-4.636 10.354-10.354v-45.064h31.649v45.064c0 5.719 4.636 10.354 10.354 10.354s10.354-4.636 10.354-10.354v-45.064h31.648v45.064c0 5.719 4.636 10.354 10.354 10.354s10.354-4.636 10.354-10.354v-45.064h31.649v45.064c0 5.719 4.636 10.354 10.354 10.354s10.354-4.636 10.354-10.354v-45.582c21.703-3.129 38.91-20.335 42.038-42.039h45.582c5.718 0 10.354-4.636 10.354-10.354 0-5.719-4.636-10.354-10.354-10.354h-45.064v-31.649h45.064c5.718 0 10.354-4.636 10.354-10.354s-4.636-10.354-10.354-10.354h-45.064v-31.648h45.064c5.718 0 10.354-4.636 10.354-10.354 0-5.719-4.636-10.354-10.354-10.354h-45.064v-31.649zm-65.773 149.955c0 15.971-12.993 28.965-28.965 28.965h-215.903c-15.971 0-28.966-12.994-28.966-28.965v-215.903c0-15.971 12.994-28.965 28.966-28.965h215.903c15.971 0 28.965 12.994 28.965 28.965z"/><path d="m299.234 324.811c-3.431 0-6.213 2.782-6.213 6.212v12.538c0 3.431 2.782 6.213 6.213 6.213s6.212-2.782 6.212-6.213v-12.538c0-3.43-2.782-6.212-6.212-6.212z"/><path d="m305.446 283.107c-3.431 0-6.212 2.782-6.212 6.213v12.538c0 3.431 2.782 6.213 6.212 6.213 3.431 0 6.213-2.782 6.213-6.213v-12.538c0-3.432-2.782-6.213-6.213-6.213z"/><path d="m267.024 304.779c-3.431 0-6.213 2.782-6.213 6.213v12.538c0 3.431 2.782 6.213 6.213 6.213s6.212-2.782 6.212-6.213v-12.538c.001-3.431-2.781-6.213-6.212-6.213z"/></g><path d="m222.388 321.346c-5.718 0-10.354-4.636-10.354-10.354v-15.404c0-5.719 4.636-10.354 10.354-10.354s10.354 4.636 10.354 10.354v15.404c.001 5.719-4.635 10.354-10.354 10.354z" fill="#fff"/><path d="m222.388 271.77c-5.718 0-10.354-4.636-10.354-10.354v-3.345c0-5.719 4.636-10.354 10.354-10.354s10.354 4.636 10.354 10.354v3.345c.001 5.718-4.635 10.354-10.354 10.354z" fill="#fff"/></g><g><path d="m458.739 21.204-8.505 23.916c-.364 1.024-1.085 1.835-1.995 2.245l-21.248 9.573c-3.002 1.353-3.002 6.136 0 7.488l21.247 9.574c.91.41 1.631 1.221 1.995 2.245l8.505 23.916c1.202 3.379 5.451 3.379 6.653 0l8.505-23.916c.364-1.024 1.085-1.835 1.995-2.245l21.248-9.573c3.002-1.352 3.002-6.135 0-7.488l-21.248-9.573c-.91-.41-1.631-1.221-1.995-2.245l-8.505-23.916c-1.201-3.379-5.451-3.379-6.652-.001z" fill="#a0f2e1"/><path d="m37.829 73.411-6.309 17.74c-.27.76-.805 1.362-1.48 1.666l-15.762 7.101c-2.227 1.004-2.227 4.551 0 5.554l15.762 7.101c.675.304 1.21.906 1.48 1.665l6.309 17.741c.891 2.506 4.043 2.506 4.935 0l6.309-17.741c.27-.759.805-1.361 1.48-1.665l15.762-7.101c2.226-1.003 2.226-4.551 0-5.554l-15.762-7.101c-.675-.304-1.209-.906-1.48-1.666l-6.309-17.74c-.891-2.506-4.043-2.506-4.935 0z" fill="#a0f2e1"/><g fill="#00e9c2"><path d="m102.669 18.572c0 10.257 8.315 18.572 18.572 18.572s18.572-8.315 18.572-18.572-8.315-18.572-18.572-18.572-18.572 8.315-18.572 18.572z"/><path d="m342.295 40.27c0 4.425 3.587 8.012 8.011 8.012 4.425 0 8.012-3.587 8.012-8.012s-3.587-8.012-8.012-8.012c-4.424 0-8.011 3.587-8.011 8.012z"/></g></g></g></svg>