<svg id="Capa_1" enable-background="new 0 0 512 512" height="512" viewBox="0 0 512 512" width="512" xmlns="http://www.w3.org/2000/svg"><g><g><path d="m374.956 501.931v-31.641c0-64.638-52.4-117.038-117.038-117.038-64.638 0-117.038 52.4-117.038 117.038v31.641z" fill="#ab82e4"/><path d="m305.13 409.784-37.349 41.712s-41.118-25.285-61.356-38.189c-16.318 14.319-26.632 35.313-26.632 58.728v29.896h156.25v-29.896c0-23.951-13.944-47.92-30.913-62.251z" fill="#fd8abe"/><path d="m283.655 500.499-97.275-61.076 17.414-27.331 133.453 85.029-1.204 4.81z" fill="#fff"/><path d="m266.116 394.34c22.597 10.163 38.492 34.285 38.492 62.435v6.773c0 10.543-8.547 19.09-19.09 19.09h-105.725v19.293h156.25v-29.896c0-40.379-30.634-73.597-69.927-77.695z" fill="#ff68c1"/><path d="m283.803 501.931h52.24v-5.142l-34.929-22.255c-3.456 4.896-9.147 8.103-15.596 8.103h-31.996z" fill="#ffc0fe"/><g fill="#fdd5d3"><path d="m208.875 409.587 58.906 41.909 38.987-46.768z"/><circle cx="427.956" cy="306.681" r="38.759"/><circle cx="87.879" cy="306.681" r="38.759"/><path d="m290.946 402.466h-66.056c-82.083 0-148.624-66.541-148.624-148.624 0-82.083 66.541-148.624 148.624-148.624h66.056c82.083 0 148.624 66.541 148.624 148.624 0 82.083-66.541 148.624-148.624 148.624z"/></g><path d="m290.946 105.129h-19.059c66.546 0 120.491 53.946 120.491 120.491v10.233c0 66.546-53.946 120.492-120.491 120.492h-75.13c-63.682 0-115.818-49.405-120.188-111.976-.194 3.104-.304 6.232-.304 9.385 0 82.083 66.541 148.624 148.624 148.624h66.056c82.083 0 148.624-66.541 148.624-148.624.001-82.084-66.54-148.625-148.623-148.625z" fill="#fca0d8"/><path d="m397.576 294.461c0-13.257-5.156-25.794-14.332-36.931-22.781-27.647-70.485-104.008-125.468-104.008-54.365 0-101.332 75.936-124.406 103.078-9.663 11.367-15.111 24.233-15.111 37.861 0 32.467 30.922 60.608 76.097 74.453 8.647 2.65 15.301 7.884 18.13 14.438 5.265 12.197 18.073 30.615 45.431 30.615s40.166-18.418 45.431-30.615c2.829-6.554 9.484-11.787 18.13-14.437 45.176-13.846 76.098-41.987 76.098-74.454z" fill="#fff"/><ellipse cx="257.785" cy="280.766" fill="#fd8abe" rx="39.491" ry="39.491" transform="matrix(.23 -.973 .973 .23 -74.696 467.148)"/><path d="m162.66 105.001c-2.49-30.894 35.614-59.173 85.109-63.162 49.494-3.99 91.636 17.821 94.127 48.715 2.49 30.894-40.449 73.52-89.944 77.509-49.494 3.99-86.801-32.167-89.292-63.062z" fill="#ab82e4"/><path d="m233.204 144.613-4.834 4.834c-4.696 4.696-12.31 4.696-17.006 0l-97.018-97.018c-4.696-4.696-4.696-12.31 0-17.006l4.834-4.834c4.696-4.696 12.31-4.696 17.006 0l97.018 97.018c4.696 4.696 4.696 12.31 0 17.006z" fill="#fde15c"/><path d="m208.967 150.172-5.893-3.465c-5.725-3.366-7.637-10.736-4.272-16.461l69.538-118.277c3.366-5.725 10.736-7.638 16.461-4.272l5.893 3.465c5.725 3.366 7.638 10.736 4.272 16.461l-69.538 118.277c-3.366 5.726-10.736 7.638-16.461 4.272z" fill="#fde15c"/><path d="m58.41 280.766c-3.174-9.737-3.468-29.558-3.468-29.558 1.924-90.067 75.531-162.49 166.06-162.49h73.825c90.529 0 164.135 72.423 166.06 162.49 0 0 .412 17.472-5.516 27.352l-19.284-14.989c-38.465 12.389-88.129 2.039-128.655-30.691-23.546-19.016-40.352-42.64-49.518-66.984-9.167 24.344-25.973 47.968-49.519 66.984-40.548 32.748-90.243 43.091-128.716 30.671" fill="#ab82e4"/></g><g><g fill="#4e0325"><path d="m466.98 277.406c4.174-11.357 4.015-24.687 3.975-26.414-.988-46.251-19.747-89.577-52.822-121.996-19.093-18.715-41.734-32.571-66.37-40.962-2.097-17.816-14.346-33.341-34.675-43.863-6.223-3.221-13.016-5.846-20.216-7.87l3.302-5.617c5.049-8.588 2.17-19.682-6.417-24.731l-5.893-3.465c-8.59-5.05-19.683-2.17-24.731 6.418l-13.351 22.709c-.94.056-1.879.11-2.822.186-25.792 2.079-49.672 10.405-67.24 23.443-2.016 1.496-3.911 3.042-5.712 4.622l-33.55-33.55c-3.412-3.413-7.949-5.292-12.776-5.292-4.825 0-9.362 1.879-12.776 5.292l-4.832 4.834c-3.413 3.412-5.292 7.949-5.292 12.775s1.879 9.362 5.292 12.775l37.778 37.778c-18.371 8.391-35.333 19.989-50.155 34.517-33.075 32.418-51.834 75.744-52.822 121.996-.002.122-.003.243-.001.365.028 1.894.324 16.786 2.712 27.798-5.38 7.84-8.535 17.318-8.535 27.526 0 26.924 21.904 48.828 48.828 48.828 4.743 0 9.327-.686 13.665-1.954 14.386 17.765 32.522 32.371 53.195 42.604-15.047 20.881-23.929 46.485-23.929 74.131v31.641c0 5.561 4.509 10.069 10.069 10.069 5.561 0 10.069-4.508 10.069-10.069v-31.64c0-24.957 8.599-47.938 22.981-66.154 8.534 2.902 17.392 5.092 26.504 6.508-16.405 15.364-26.682 37.194-26.682 61.392v33.547c0 3.336 2.705 6.042 6.042 6.042s6.042-2.705 6.042-6.042v-33.547c0-8.634 1.535-16.911 4.332-24.588l99.238 63.23c1.006.641 2.129.948 3.24.948 1.996 0 3.949-.988 5.102-2.796 1.793-2.814.965-6.548-1.85-8.342l-100.602-64.099c3.379-5.906 7.573-11.287 12.423-15.997l122.283 77.913v7.278c0 3.336 2.705 6.042 6.042 6.042s6.042-2.705 6.042-6.042v-33.547c0-24.198-10.277-46.027-26.683-61.392 9.11-1.416 17.968-3.602 26.5-6.503 14.382 18.215 22.986 41.193 22.986 66.15v31.641c0 5.561 4.509 10.069 10.069 10.069 5.561 0 10.069-4.508 10.069-10.069v-31.642c0-27.646-8.881-53.251-23.928-74.132 20.677-10.237 38.817-24.847 53.204-42.619 4.337 1.268 8.913 1.971 13.655 1.971 26.924 0 48.828-21.904 48.828-48.828-.001-10.982-3.66-21.114-9.805-29.276zm-159.15-215.348c10.456 5.411 17.781 12.298 21.437 19.946-11.229-2.217-22.752-3.356-34.44-3.356h-22.853l14.284-24.294c7.815 1.779 15.095 4.352 21.572 7.704zm-34.282-47.027c1.114-1.894 3.115-2.95 5.168-2.95 1.03 0 2.073.266 3.023.825l5.893 3.465c1.378.81 2.358 2.108 2.759 3.655s.176 3.157-.633 4.535l-31.8 54.087h-21.812zm-36.533 38.299-14.885 25.318h-1.128c-8.871 0-17.646.659-26.27 1.944l-6.439-6.439c11.663-9.793 28.926-17.45 48.722-20.823zm-118.397-5.173c-1.13-1.13-1.752-2.633-1.752-4.231s.623-3.101 1.753-4.231l4.832-4.834c1.131-1.13 2.633-1.752 4.231-1.752 1.599 0 3.1.622 4.231 1.752l48.485 48.485c-6.95 1.634-13.775 3.687-20.445 6.147zm102.384 50.63h73.825c84.216 0 154.195 68.472 155.993 152.658.054 2.304-.118 6.224-.692 10.286l-7.862-6.111c-2.629-2.043-6.101-2.656-9.266-1.634-36.782 11.845-82.471.757-119.241-28.94-21.447-17.321-37.499-39.002-46.422-62.698-1.477-3.923-5.231-6.521-9.423-6.521s-7.946 2.598-9.423 6.521c-8.923 23.697-24.976 45.378-46.423 62.698-36.795 29.717-82.509 40.798-119.295 28.922-3.24-1.044-6.785-.385-9.428 1.756l-7.784 6.3c-.321-4.01-.499-7.903-.548-10.786 1.897-84.079 71.835-152.451 155.989-152.451zm170.532 195.675c0 13.998-6.655 27.777-19.247 39.848-12.754 12.226-30.935 22.195-52.578 28.828-10.411 3.191-18.395 9.685-21.908 17.82-4.347 10.072-15.31 26.968-39.883 26.968s-35.536-16.896-39.884-26.968c-3.512-8.134-11.496-14.629-21.907-17.82-21.643-6.633-39.824-16.602-52.578-28.828-12.592-12.071-19.247-25.85-19.247-39.848 0-5.585 1.047-11.071 3.077-16.43 30-3.072 60.842-15.914 87.345-37.318 17.997-14.535 32.664-31.867 43.192-50.905 10.529 19.038 25.194 36.369 43.191 50.905 26.507 21.408 57.357 34.248 87.366 37.315 2.032 5.362 3.061 10.851 3.061 16.433zm-173.924 117.904c2.414.11 4.84.17 7.28.17h4.791c7.3 4.404 16.562 7.473 28.236 7.473s20.936-3.069 28.237-7.473h4.791c1.339 0 2.675-.019 4.006-.052l-26.961 31.982zm-129.731-76.995c-15.819 0-28.689-12.87-28.689-28.69 0-8.477 3.71-16.09 9.577-21.343l.51-.413c3.608 18.097 10.301 35.094 19.51 50.417-.303.01-.603.029-.908.029zm.262-59.198c8.53 1.785 17.344 2.639 26.308 2.572-1.474 5.17-2.231 10.433-2.231 15.717 0 34.294 30.795 65.036 80.369 80.229 7.017 2.151 12.248 6.18 14.353 11.056.71 1.644 1.662 3.637 2.89 5.824-61.95-6.728-111.771-54.45-121.689-115.398zm241.86 195.862v11.942l-51.728-32.959 27.587-32.725c14.799 13.202 24.141 32.393 24.141 53.742zm-23.997-80.461c1.228-2.188 2.182-4.183 2.892-5.827 2.105-4.876 7.337-8.906 14.354-11.056 49.573-15.193 80.369-45.935 80.369-80.229 0-5.282-.782-10.546-2.259-15.721.341.002.682.012 1.022.012 8.619-.001 17.097-.86 25.31-2.578-9.92 60.949-59.738 108.673-121.688 115.399zm121.952-56.203c-.306 0-.608-.011-.911-.021 9.217-15.337 15.913-32.352 19.52-50.468 6.16 5.266 10.081 13.079 10.081 21.8-.001 15.819-12.871 28.689-28.69 28.689z"/><path d="m269.267 369.435h-22.698c-9.362 0-11.611 13.056-2.789 16.189l11.349 4.031c1.804.641 3.774.641 5.579 0l11.349-4.031c8.821-3.133 6.572-16.189-2.79-16.189z"/><path d="m178.23 299.324c-14.102-5.643-28.264-5.158-31.631 1.083-3.368 6.241 5.334 15.876 19.436 21.519s28.264 5.158 31.631-1.083c3.368-6.242-5.334-15.876-19.436-21.519z"/><path d="m348.263 322.897c13.913-6.095 23.499-16.53 21.412-23.308s-15.058-7.331-28.97-1.237c-13.913 6.095-23.499 16.53-21.412 23.308s15.058 7.332 28.97 1.237z"/><path d="m257.785 235.233c-25.107 0-45.532 20.426-45.532 45.533s20.425 45.532 45.532 45.532 45.533-20.425 45.533-45.532-20.426-45.533-45.533-45.533zm0 78.982c-18.444 0-33.448-15.005-33.448-33.449s15.005-33.449 33.448-33.449 33.449 15.005 33.449 33.449c0 18.443-15.005 33.449-33.449 33.449z"/><path d="m412.005 240.762c3.337 0 6.042-2.705 6.042-6.042v-10.552c0-3.336-2.705-6.042-6.042-6.042-3.336 0-6.042 2.705-6.042 6.042v10.552c0 3.337 2.705 6.042 6.042 6.042z"/><path d="m377.167 229.084c3.337 0 6.042-2.705 6.042-6.042v-10.552c0-3.337-2.705-6.042-6.042-6.042-3.336 0-6.042 2.705-6.042 6.042v10.552c0 3.337 2.705 6.042 6.042 6.042z"/></g><path d="m131.428 247.117c-4.753 0-8.982-3.381-9.886-8.223-1.021-5.466 2.583-10.726 8.05-11.747 2.954-.552 5.922-1.229 8.82-2.012 5.367-1.454 10.897 1.725 12.348 7.092 1.451 5.369-1.724 10.897-7.093 12.348-3.41.922-6.901 1.718-10.377 2.368-.626.118-1.249.174-1.862.174z" fill="#fff"/><path d="m169.515 233.112c-3.471 0-6.847-1.796-8.716-5.013-2.794-4.808-1.16-10.971 3.648-13.765 10.131-5.887 18.867-13.24 25.964-21.857 3.535-4.292 9.883-4.906 14.174-1.371 4.292 3.536 4.907 9.882 1.371 14.174-8.623 10.47-19.185 19.375-31.392 26.467-1.591.926-3.332 1.365-5.049 1.365z" fill="#fff"/></g><g><path d="m468.296 2.652-8.271 23.258c-.354.996-1.055 1.785-1.94 2.184l-20.664 9.31c-2.919 1.315-2.919 5.967 0 7.282l20.664 9.31c.885.399 1.586 1.188 1.94 2.184l8.271 23.258c1.169 3.286 5.301 3.286 6.47 0l8.271-23.258c.354-.996 1.055-1.785 1.94-2.184l20.664-9.31c2.919-1.315 2.919-5.967 0-7.282l-20.664-9.31c-.885-.399-1.586-1.188-1.94-2.184l-8.271-23.258c-1.168-3.286-5.301-3.286-6.47 0z" fill="#fdc3db"/><path d="m28.696 66.426-6.136 17.252c-.263.739-.783 1.324-1.439 1.62l-15.328 6.905c-2.165.976-2.165 4.426 0 5.402l15.328 6.906c.656.296 1.176.881 1.439 1.62l6.136 17.252c.867 2.437 3.932 2.437 4.799 0l6.136-17.252c.263-.739.783-1.324 1.439-1.62l15.328-6.906c2.165-.976 2.165-4.426 0-5.402l-15.328-6.905c-.656-.296-1.176-.881-1.439-1.62l-6.136-17.252c-.867-2.438-3.932-2.438-4.799 0z" fill="#fdc3db"/><g fill="#fd8abe"><circle cx="460.894" cy="429.764" r="18.061"/><circle cx="371.312" cy="31.383" r="7.791"/></g></g></g></svg>