<svg id="Capa_1" enable-background="new 0 0 512 512" height="512" viewBox="0 0 512 512" width="512" xmlns="http://www.w3.org/2000/svg"><g><g><path d="m111.093 228.422h70.845v231.003h-70.845z" fill="#d1b3f0" transform="matrix(.886 -.463 .463 .886 -142.692 107.05)"/><path d="m234.227 488.515-35.946-64.475c45.335-46.69 104.243-84.25 171.647-120.764 10.762-5.83 24.186-2.798 31.417 7.078 7.255 9.909 5.812 23.419-2.814 32.16-44.014 44.595-102.339 113.617-164.304 146.001z" fill="#96e6f0"/><circle cx="98.766" cy="220.898" fill="#96e6f0" r="76.688"/><path d="m90.518 11.615c-32.352 0-61.249 14.702-80.439 37.769v133.746c19.19 23.067 48.087 37.769 80.439 37.769 57.792 0 104.642-46.85 104.642-104.641-.001-57.793-46.85-104.643-104.642-104.643z" fill="#74b5f0"/><path d="m90.517 11.615c-4.091 0-8.125.237-12.093.694 37.035 4.953 65.606 36.65 65.606 75.041 0 41.826-33.908 75.734-75.735 75.734-23.415 0-44.329-10.641-58.218-27.336v47.381c19.19 23.067 48.087 37.769 80.439 37.769 57.792 0 104.642-46.85 104.642-104.641.001-57.792-46.848-104.642-104.641-104.642z" fill="#8289f3"/><ellipse cx="200.916" cy="444.843" fill="#74b5f0" rx="55.542" ry="55.542" transform="matrix(.862 -.507 .507 .862 -197.842 163.339)"/><path d="m378.87 319.417c-47.528-12.234-79.585-58.468-72.941-108.303 1.942-14.566 6.964-28.203 14.747-40.259 5.917-9.166 18.843-10.445 26.569-2.742l23.673 23.603c5.124 5.109 6.399 12.825 3.464 19.439-1.221 2.751-2.05 5.689-2.459 8.756-2.32 17.403 9.953 33.449 27.354 35.77 8.739 1.165 17.405-1.27 24.283-6.846 5.912-4.793 9.947-11.635 11.273-19.13.874-4.942.586-9.899-.781-14.552-2.02-6.876.474-14.281 6.21-18.577l26.747-20.034c8.74-6.546 21.353-3.444 25.929 6.471 8.33 18.048 11.005 38.277 7.433 58.418-4.117 23.209-16.551 44.271-34.867 59.109-21.257 17.22-48.03 24.735-75.026 21.136-3.955-.529-7.835-1.288-11.608-2.259z" fill="#d1b3f0"/><path d="m492.938 183.011c-4.576-9.914-17.189-13.017-25.929-6.471l-6.887 5.158c.338.527.655 1.074.926 1.662 6.642 14.391 8.775 30.521 5.927 46.581-3.283 18.506-13.197 35.301-27.801 47.132-16.95 13.73-38.298 19.723-59.823 16.853-3.155-.42-6.248-1.026-9.257-1.8-27.607-7.106-48.652-28.605-56.006-55.115h-8.163c5.19 39.204 33.812 72.332 72.944 82.406 3.773.971 7.652 1.73 11.609 2.258 26.996 3.599 53.769-3.917 75.026-21.136 18.316-14.837 30.75-35.899 34.866-59.108 3.574-20.142.899-40.372-7.432-58.42z" fill="#d088f3"/><ellipse cx="389.238" cy="301.022" fill="#74b5f0" rx="42.335" ry="42.335" transform="matrix(.492 -.87 .87 .492 -64.41 491.611)"/></g><g><path d="m502.089 178.788c-3.448-7.47-10.012-12.914-18.011-14.937-8.047-2.037-16.471-.35-23.11 4.624l-26.746 20.034c-9.07 6.793-13.023 18.642-9.839 29.484.947 3.225 1.124 6.575.526 9.957-.908 5.132-3.641 9.769-7.696 13.057-4.712 3.82-10.605 5.485-16.604 4.685-11.895-1.587-20.283-12.555-18.698-24.447.28-2.099.846-4.118 1.682-6.002 4.695-10.579 2.512-22.615-5.56-30.663l-23.674-23.603c-5.878-5.861-13.986-8.717-22.246-7.829-8.195.879-15.45 5.341-19.905 12.242-8.657 13.409-14.13 28.346-16.269 44.393-5.25 39.377 11.422 77.139 41.166 100.179-35.824 20.386-75.156 45.101-110.573 74.473-2.934-1.249-5.977-2.289-9.11-3.104l-53.8-102.882c13.616-15.327 21.909-35.484 21.909-57.549 0-11.347-2.21-22.18-6.195-32.119 16.18-19.778 25.9-45.035 25.9-72.522 0-63.257-51.463-114.72-114.72-114.72-34.155 0-66.297 15.09-88.187 41.402-3.56 4.279-2.977 10.633 1.302 14.193s10.633 2.977 14.193-1.302c18.048-21.694 44.543-34.137 72.692-34.137 37.16 0 69.377 21.549 84.827 52.803-21.463-10.871-57.176-24.142-94.124-16.954-30.372 5.907-55.705 24.573-75.292 55.476-1.788 2.821-.95 6.557 1.87 8.344 1.004.636 2.124.94 3.231.94 2.003 0 3.962-.994 5.113-2.811 17.177-27.102 38.987-43.76 64.855-49.551l2.659 28.844c.292 3.165 2.951 5.554 6.162 5.49l33.746-.784.04 29.942-30.236.52c-1.608.028-3.139.695-4.254 1.854s-1.722 2.714-1.688 4.322l.876 40.741c.034 1.61.71 3.14 1.876 4.25 1.167 1.11 2.733 1.704 4.337 1.664l35.442-.988.427 16.194c-12.122 5.66-25.631 8.829-39.869 8.829-28.149 0-54.644-12.442-72.692-34.136-3.56-4.279-9.914-4.861-14.193-1.302-4.279 3.56-4.862 9.914-1.302 14.193 3.659 4.398 7.61 8.475 11.804 12.228-1.387 6.146-2.131 12.535-2.131 19.095 0 39.373 26.371 72.683 62.371 83.251l63.705 121.822c-1.8 5.98-2.779 12.313-2.779 18.872 0 36.183 29.437 65.62 65.62 65.62 15.865 0 30.432-5.661 41.79-15.068 50.421-27.585 98.271-77.965 136.904-118.651 8.568-9.023 16.688-17.571 24.379-25.407 6.478-1.9 12.589-5.06 18.017-9.408 4.843-3.88 8.884-8.495 12.021-13.641 13.591-3.984 26.408-10.673 37.821-19.919 20.246-16.401 33.9-39.549 38.446-65.18 3.907-22.034 1.07-44.303-8.206-64.401zm-186.171 33.657c1.743-13.078 6.193-25.232 13.225-36.125 1.558-2.415 3.877-2.999 5.12-3.132.262-.028.523-.042.782-.042 1.902 0 3.722.745 5.084 2.104l23.674 23.603c2.111 2.105 2.648 5.329 1.368 8.214-1.614 3.636-2.703 7.509-3.237 11.512-1.65 12.38 2.316 24.233 9.919 33.001-15.177 5.364-27.397 17.578-32.482 33.292-17.785-18.802-27.091-45.132-23.453-72.427zm28.87 116.336c1.08 1.722 2.253 3.398 3.543 5.009 4.187 5.227 9.234 9.511 14.876 12.74l-113.999 53.942c-1.508-1.64-3.101-3.198-4.767-4.677 32.24-26.047 67.672-48.328 100.347-67.014zm-245.836-21.122c18.239-.038 35.165-5.744 49.132-15.431l20.208 38.644-45.344 22.676zm42.936-128.233c-.042-1.605-.721-3.127-1.887-4.23-1.165-1.104-2.725-1.699-4.326-1.654l-35.413.987-.615-28.586 30.114-.518c3.302-.057 5.947-2.752 5.943-6.054l-.057-42.075c-.002-1.626-.66-3.184-1.824-4.319-1.164-1.136-2.726-1.753-4.363-1.717l-34.282.797-2.211-23.988c38.061-3.539 74.365 15.205 88.959 23.951 2.054 7.739 3.154 15.862 3.154 24.238 0 33.036-17.032 62.164-42.773 79.079zm-109.732 41.472c0-1.932.104-3.839.267-5.729 17.399 10.244 37.374 15.807 58.095 15.807 27.644 0 53.035-9.829 72.863-26.175 1.288 5.159 1.996 10.544 1.996 16.097 0 36.729-29.881 66.61-66.61 66.61-36.73 0-66.611-29.881-66.611-66.61zm117.288 183.318-20.891-39.95 45.344-22.676 19.886 38.029c-17.929 1.947-33.702 11.149-44.339 24.597zm6.008 40.627c0-25.069 20.395-45.464 45.464-45.464s45.464 20.395 45.464 45.464-20.395 45.464-45.464 45.464-45.464-20.395-45.464-45.464zm110.007 11.759c.694-3.818 1.076-7.743 1.076-11.758 0-12.662-3.615-24.491-9.853-34.529l114.881-54.36c-2.164 2.274-4.347 4.571-6.569 6.911-29.051 30.595-63.455 66.808-99.535 93.736zm155.841-152.038c-.946 8.565-5.171 16.248-11.895 21.634-6.725 5.387-15.144 7.834-23.709 6.886-8.564-.946-16.247-5.171-21.634-11.896-5.387-6.724-7.833-15.144-6.886-23.708 1.821-16.483 15.824-28.717 32.038-28.717 1.177 0 2.369.065 3.566.197 8.564.946 16.247 5.171 21.634 11.896 5.387 6.724 7.832 15.144 6.886 23.708zm69.149-64.895c-3.699 20.855-14.811 39.69-31.287 53.038-5.499 4.454-11.402 8.17-17.592 11.147.714-12.897-3.286-25.44-11.424-35.6-2.102-2.625-4.425-5.008-6.926-7.147 2.334-1.255 4.575-2.732 6.688-4.445 7.824-6.343 13.097-15.294 14.85-25.203 1.128-6.38.771-13.001-1.035-19.147-.826-2.812.212-5.895 2.583-7.671l26.747-20.035c1.746-1.308 3.962-1.751 6.085-1.215 1.217.308 3.44 1.216 4.652 3.844 7.541 16.342 9.844 34.473 6.659 52.434z" fill="#4e0325"/><ellipse cx="200.916" cy="444.843" fill="#4e0325" rx="10.078" ry="10.078" transform="matrix(.974 -.229 .229 .974 -96.437 57.76)"/><path d="m340.405 249.418c-4.341 0-8.348-2.826-9.653-7.198-4.805-16.097-2.112-31.96-1.994-32.628.961-5.482 6.182-9.148 11.667-8.186 5.472.959 9.134 6.165 8.191 11.636-.035.213-1.945 12.039 1.45 23.412 1.592 5.333-1.441 10.947-6.774 12.539-.961.288-1.933.425-2.887.425z" fill="#fff"/></g><g><path d="m433.583 7.193-8.278 23.278c-.355.997-1.056 1.786-1.942 2.185l-20.681 9.317c-2.922 1.317-2.922 5.972 0 7.288l20.681 9.318c.885.399 1.587 1.189 1.942 2.185l8.278 23.277c1.17 3.289 5.306 3.289 6.475 0l8.278-23.277c.354-.997 1.056-1.786 1.942-2.185l20.681-9.318c2.922-1.316 2.922-5.972 0-7.288l-20.681-9.317c-.885-.399-1.587-1.189-1.942-2.185l-8.278-23.278c-1.169-3.289-5.305-3.289-6.475 0z" fill="#96e6f0"/><path d="m443.666 396.087-6.141 17.267c-.263.739-.784 1.325-1.44 1.621l-15.341 6.912c-2.167.977-2.167 4.43 0 5.406l15.341 6.912c.657.296 1.177.882 1.44 1.621l6.141 17.267c.867 2.439 3.935 2.439 4.803 0l6.141-17.267c.263-.739.783-1.325 1.44-1.621l15.341-6.912c2.167-.977 2.167-4.429 0-5.406l-15.341-6.912c-.657-.296-1.177-.882-1.44-1.621l-6.141-17.267c-.868-2.44-3.936-2.44-4.803 0z" fill="#96e6f0"/><g fill="#74b5f0"><ellipse cx="264.616" cy="91.816" rx="18.076" ry="18.076" transform="matrix(.993 -.122 .122 .993 -9.22 32.946)"/><ellipse cx="379.379" cy="116.257" rx="7.798" ry="7.798" transform="matrix(.488 -.873 .873 .488 92.884 390.783)"/></g></g></g></svg>