<svg id="Capa_1" enable-background="new 0 0 512 512" height="512" viewBox="0 0 512 512" width="512" xmlns="http://www.w3.org/2000/svg"><g><g><path d="m386.936 88.928 73.953 73.952c7.155 7.155 11.174 16.859 11.174 26.977v273.882c0 21.071-17.081 38.152-38.152 38.152h-347.835c-21.071 0-38.152-17.081-38.152-38.152v-347.833c0-21.071 17.081-38.152 38.152-38.152h273.882c10.119 0 19.823 4.019 26.978 11.174z" fill="#00e9c2"/><path d="m460.889 162.88-73.953-73.952c-7.155-7.155-16.859-11.174-26.978-11.174h-46.218c8.62 0 16.887 3.424 22.981 9.519l62.999 62.998c6.095 6.095 9.52 14.362 9.52 22.982v233.315c0 17.95-14.551 32.502-32.501 32.502h-296.314c-17.95 0-32.501-14.551-32.501-32.502v57.172c0 21.071 17.081 38.152 38.152 38.152h347.835c21.071 0 38.152-17.081 38.152-38.152v-273.882c0-10.119-4.019-19.823-11.174-26.978z" fill="#45b1c6"/><g fill="#fde15c"><circle cx="136.555" cy="135.348" r="23.591"/><ellipse cx="104.42" cy="402.706" rx="23.591" ry="23.591" transform="matrix(.16 -.987 .987 .16 -309.812 441.271)"/><circle cx="291.761" cy="446.495" r="23.591"/><circle cx="409.24" cy="379.115" r="23.591"/><circle cx="369.002" cy="172.501" r="23.591"/></g><path d="m308.306 366.079h-96.626c-15.432 0-27.943-12.511-27.943-27.943v-96.626c0-15.433 12.511-27.943 27.943-27.943h96.626c15.433 0 27.943 12.511 27.943 27.943v96.626c.001 15.432-12.51 27.943-27.943 27.943z" fill="#96e6f0"/><path d="m277.246 321.59h-34.504c-8.016 0-14.515-6.499-14.515-14.515v-34.504c0-8.017 6.499-14.515 14.515-14.515h34.504c8.016 0 14.515 6.499 14.515 14.515v34.504c0 8.016-6.499 14.515-14.515 14.515z" fill="#fde15c"/></g><g fill="#4e0325"><path d="m468.036 155.734-73.953-73.953c-9.115-9.114-21.234-14.135-34.125-14.135h-273.881c-26.611 0-48.26 21.649-48.26 48.259v347.835c0 26.611 21.649 48.26 48.26 48.26h347.834c26.611 0 48.26-21.649 48.26-48.26v-273.882c0-12.89-5.02-25.009-14.135-34.124zm-6.08 308.006c0 15.464-12.581 28.045-28.045 28.045h-347.834c-15.464 0-28.045-12.581-28.045-28.045v-347.835c0-15.463 12.581-28.044 28.045-28.044h273.882c7.492 0 14.534 2.917 19.831 8.214l73.953 73.953c5.297 5.297 8.214 12.339 8.214 19.83v273.882z"/><path d="m415.304 350.084v-41.361c0-3.349-2.715-6.064-6.064-6.064h-62.883v-22.184h21.795c3.349 0 6.064-2.715 6.064-6.064s-2.715-6.064-6.064-6.064h-21.795v-11.022h58.932c3.349 0 6.064-2.715 6.064-6.064s-2.715-6.064-6.064-6.064h-58.932v-3.685c0-20.982-17.069-38.051-38.05-38.051h-10.482v-24.894h42.147c2.807 13.454 14.756 23.592 29.03 23.592 16.352 0 29.656-13.303 29.656-29.656 0-16.352-13.303-29.655-29.656-29.655-14.274 0-26.223 10.138-29.03 23.59h-48.211c-3.349 0-6.064 2.715-6.064 6.064v30.959h-14.308v-24.401c0-3.349-2.715-6.064-6.064-6.064s-6.064 2.715-6.064 6.064v24.401h-11.022v-24.401c0-3.349-2.715-6.064-6.064-6.064s-6.064 2.715-6.064 6.064v24.401h-10.721v-24.401c0-3.349-2.715-6.064-6.064-6.064s-6.064 2.715-6.064 6.064v24.401h-1.577c-17.92 0-32.976 12.455-36.991 29.159h-32.07v-68.242c13.453-2.807 23.591-14.755 23.591-29.029 0-16.352-13.303-29.656-29.656-29.656-16.352 0-29.656 13.303-29.656 29.656 0 14.274 10.138 26.222 23.592 29.029v11.649h-26.807c-3.349 0-6.064 2.715-6.064 6.064s2.715 6.064 6.064 6.064h26.807v11.022h-26.807c-3.349 0-6.064 2.715-6.064 6.064s2.715 6.064 6.064 6.064h26.807v27.377c0 3.349 2.715 6.064 6.064 6.064h37.075v22.537h-24.958c-3.349 0-6.064 2.715-6.064 6.065 0 3.349 2.715 6.064 6.064 6.064h24.958v10.72h-24.958c-3.349 0-6.064 2.715-6.064 6.064s2.715 6.064 6.064 6.064h24.958v19.76h-69.21c-3.349 0-6.064 2.715-6.064 6.064v45.589c-13.453 2.806-23.591 14.755-23.591 29.03 0 16.352 13.303 29.655 29.656 29.655 16.352 0 29.656-13.303 29.656-29.655 0-14.275-10.138-26.224-23.591-29.03v-39.524h43.598v123.083c0 3.349 2.715 6.064 6.064 6.064s6.064-2.715 6.064-6.064v-123.081h7.419v3.985c0 20.981 17.069 38.05 38.051 38.05h1.97v17.844c0 3.349 2.715 6.064 6.064 6.064s6.064-2.715 6.064-6.064v-17.844h10.721v17.844c0 3.349 2.715 6.064 6.064 6.064s6.064-2.715 6.064-6.064v-17.844h37.067v41.279c-13.453 2.806-23.591 14.755-23.591 29.03 0 16.351 13.303 29.655 29.656 29.655 16.352 0 29.655-13.303 29.655-29.655 0-14.275-10.138-26.223-23.591-29.03v-11.713h59.33c3.349 0 6.064-2.715 6.064-6.064s-2.715-6.064-6.064-6.064h-59.33v-17.437h10.482c20.981 0 38.05-17.069 38.05-38.05v-23.349h56.819v35.297c-13.453 2.807-23.591 14.755-23.591 29.03 0 16.352 13.303 29.656 29.655 29.656 16.353 0 29.656-13.303 29.656-29.656-.005-14.275-10.143-26.223-23.596-29.031zm-46.302-195.11c9.664 0 17.527 7.862 17.527 17.526s-7.863 17.527-17.527 17.527-17.527-7.863-17.527-17.527 7.863-17.526 17.527-17.526zm-249.974-19.626c0-9.664 7.863-17.527 17.527-17.527s17.527 7.863 17.527 17.527-7.863 17.526-17.527 17.526-17.527-7.862-17.527-17.526zm2.919 267.358c0 9.664-7.863 17.526-17.527 17.526s-17.527-7.862-17.527-17.526 7.863-17.527 17.527-17.527 17.527 7.863 17.527 17.527zm187.34 43.79c0 9.664-7.862 17.526-17.526 17.526s-17.527-7.862-17.527-17.526 7.863-17.527 17.527-17.527c9.664-.001 17.526 7.862 17.526 17.527zm16.855-108.36c0 9.834-8.001 17.835-17.835 17.835h-96.626c-9.835 0-17.836-8.001-17.836-17.835v-96.626c0-9.835 8.001-17.836 17.836-17.836h96.626c9.834 0 17.835 8.001 17.835 17.836zm83.098 58.506c-9.664 0-17.526-7.863-17.526-17.527s7.862-17.527 17.526-17.527 17.527 7.863 17.527 17.527-7.863 17.527-17.527 17.527z"/><path d="m265.324 161.962c3.349 0 6.064-2.715 6.064-6.065v-13.976c0-3.349-2.715-6.064-6.064-6.064s-6.064 2.715-6.064 6.064v13.976c-.001 3.349 2.715 6.065 6.064 6.065z"/><path d="m242.173 161.962c3.349 0 6.064-2.715 6.064-6.065v-13.976c0-3.349-2.715-6.064-6.064-6.064s-6.064 2.715-6.064 6.064v13.976c-.001 3.349 2.715 6.065 6.064 6.065z"/><path d="m219.322 161.962c3.349 0 6.064-2.715 6.064-6.065v-13.976c0-3.349-2.715-6.064-6.064-6.064s-6.064 2.715-6.064 6.064v13.976c0 3.349 2.715 6.065 6.064 6.065z"/><path d="m405.288 268.346h-13.976c-3.349 0-6.064 2.715-6.064 6.064s2.715 6.064 6.064 6.064h13.976c3.349 0 6.064-2.715 6.064-6.064.001-3.349-2.715-6.064-6.064-6.064z"/><path d="m219.715 411.126c-3.349 0-6.064 2.715-6.064 6.065v13.976c0 3.349 2.715 6.064 6.064 6.064s6.064-2.715 6.064-6.064v-13.976c.001-3.349-2.715-6.065-6.064-6.065z"/><path d="m242.565 411.126c-3.349 0-6.064 2.715-6.064 6.065v13.976c0 3.349 2.715 6.064 6.064 6.064s6.064-2.715 6.064-6.064v-13.976c.001-3.349-2.714-6.065-6.064-6.065z"/><path d="m111.535 279.414h13.976c3.349 0 6.065-2.715 6.065-6.064s-2.715-6.065-6.065-6.065h-13.976c-3.349 0-6.064 2.715-6.064 6.065-.001 3.348 2.715 6.064 6.064 6.064z"/><path d="m111.535 302.264h13.976c3.349 0 6.065-2.715 6.065-6.064s-2.715-6.064-6.065-6.064h-13.976c-3.349 0-6.064 2.715-6.064 6.064-.001 3.348 2.715 6.064 6.064 6.064z"/><path d="m277.245 251.992h-34.503c-11.348 0-20.58 9.232-20.58 20.58v34.503c0 11.348 9.232 20.58 20.58 20.58h34.503c11.348 0 20.58-9.232 20.58-20.58v-34.503c0-11.349-9.231-20.58-20.58-20.58zm8.452 55.083c0 4.66-3.791 8.451-8.451 8.451h-34.503c-4.66 0-8.451-3.791-8.451-8.451v-34.503c0-4.66 3.791-8.451 8.451-8.451h34.503c4.66 0 8.451 3.791 8.451 8.451z"/></g><g><path d="m447.694 2.474-8.303 23.346c-.355 1-1.059 1.792-1.947 2.192l-20.742 9.345c-2.93 1.32-2.93 5.989 0 7.309l20.742 9.345c.888.4 1.592 1.192 1.947 2.192l8.303 23.346c1.173 3.298 5.321 3.298 6.494 0l8.303-23.346c.356-1 1.059-1.792 1.947-2.192l20.742-9.345c2.93-1.32 2.93-5.989 0-7.309l-20.742-9.345c-.888-.4-1.592-1.192-1.947-2.192l-8.303-23.346c-1.173-3.299-5.321-3.299-6.494 0z" fill="#a0f2e1"/><path d="m30.404 2.357-6.159 17.317c-.264.741-.786 1.329-1.444 1.626l-15.386 6.932c-2.174.979-2.174 4.443 0 5.422l15.386 6.932c.659.297 1.181.884 1.444 1.626l6.159 17.317c.87 2.446 3.947 2.446 4.817 0l6.159-17.317c.264-.741.786-1.329 1.444-1.626l15.386-6.932c2.174-.979 2.174-4.443 0-5.422l-15.386-6.932c-.659-.297-1.181-.884-1.444-1.626l-6.159-17.317c-.87-2.446-3.947-2.446-4.817 0z" fill="#a0f2e1"/><g fill="#00e9c2"><ellipse cx="217.621" cy="18.129" rx="18.129" ry="18.129" transform="matrix(.995 -.099 .099 .995 -.727 21.532)"/><circle cx="498.395" cy="111.757" r="7.82"/></g></g></g></svg>