<svg id="Capa_1" enable-background="new 0 0 512 512" height="512" viewBox="0 0 512 512" width="512" xmlns="http://www.w3.org/2000/svg"><g><g><path d="m404.236 10.066c-11.588 0-22.514 4.414-30.767 12.429l-287.45 279.169-17.262 16.765 17.14 16.886 98.716 97.248 17.018 16.766 17.019-16.766 23.137-22.793h.192c10.456 0 20.521-4.338 27.616-11.903l28.438-30.322c6.022-6.421 9.391-14.576 9.902-22.94l3.84-3.784 1.014-.999.887-1.111 34.24-42.896 19.442-29.804 109.962-140.796c15.599-17.074 14.903-46.352-1.583-62.594l-40.511-39.908c-8.277-8.155-19.283-12.647-30.99-12.647z" fill="#00e9c2"/><path d="m475.737 62.62-40.511-39.908c-8.278-8.155-19.284-12.646-30.99-12.646-5.508 0-10.862 1.009-15.855 2.916 4.813 1.945 9.234 4.83 13.023 8.562l36.772 36.225c14.965 14.744 15.596 41.32 1.437 56.818l-99.814 127.803-17.648 27.054-31.079 38.938-.805 1.008-.921.906-3.486 3.435c-.464 7.592-3.523 14.995-8.989 20.823l-25.813 27.523c-6.44 6.866-15.576 10.805-25.067 10.805h-.174l-21.002 20.689-5.472 5.39v12.828c6.086 7.303 11.897 14.87 17.614 22.441l1.692-1.666 23.137-22.793h.192c10.456 0 20.521-4.338 27.616-11.903l28.438-30.322c6.022-6.421 9.391-14.576 9.902-22.94l3.84-3.784 1.014-.999.887-1.111 34.24-42.896 19.442-29.804 109.963-140.797c15.599-17.074 14.904-46.352-1.583-62.595z" fill="#45b1c6"/><path d="m211.214 404.281-85.616-90.149 262.503-258.787c7.061-6.961 18.415-6.92 25.426.091l31.018 35.511c6.786 6.786 7.073 17.697.652 24.83l-50.454 56.051-18.546 3.555.867 22.707-34.334 52.752-19.191 2.691 2.688 23.174-29.969 42.532z" fill="#a0f2e1"/><path d="m196.158 329.962 43.135 43.135c4.969 4.969 13.073 4.809 17.841-.353l25.97-28.108c4.509-4.881 4.36-12.451-.339-17.15l-27.667-27.667-41.27-5.032-17.671 17.671c-4.832 4.835-4.832 12.671.001 17.504z" fill="#fd8abe"/><g fill="#ab82e4"><path d="m206.83 455.642-137.127-137.126c-5.472-5.472-5.472-14.343 0-19.814l18.381-18.381c5.472-5.472 14.343-5.472 19.814 0l137.127 137.127c5.472 5.471 5.472 14.343 0 19.814l-18.381 18.381c-5.471 5.471-14.342 5.471-19.814-.001z"/><path d="m81.594 373.357h47.086v93.704h-47.086z" transform="matrix(.707 .707 -.707 .707 327.927 48.733)"/><path d="m63.359 498.215-36.229-36.229c-4.958-4.958-4.958-12.997 0-17.955l17.081-17.081c4.958-4.958 12.997-4.958 17.955 0l36.229 36.228c4.958 4.958 4.958 12.997 0 17.955l-17.081 17.081c-4.958 4.959-12.996 4.959-17.955.001z"/></g></g><g><g fill="#4e0325"><path d="m482.801 55.449-40.51-39.907c-10.173-10.022-23.688-15.542-38.055-15.542-14.22 0-27.638 5.424-37.821 15.314l-257.873 253.297c-8.98-4.372-20.127-2.856-27.576 4.591l-18.381 18.381c-9.387 9.388-9.387 24.663 0 34.05l44.798 44.798-44.793 44.794c-8.387-3.796-18.611-2.276-25.496 4.607l-17.081 17.081c-4.299 4.3-6.667 10.016-6.667 16.096 0 6.081 2.368 11.796 6.667 16.096l36.228 36.228c4.3 4.299 10.016 6.667 16.096 6.667s11.796-2.368 16.096-6.667l17.081-17.082c6.884-6.885 8.403-17.109 4.607-25.496l44.793-44.793 44.798 44.798c4.694 4.694 10.859 7.04 17.025 7.04 6.165 0 12.332-2.348 17.026-7.04l18.381-18.381c6.531-6.532 8.506-15.91 5.949-24.176 7.119-2.53 13.619-6.698 18.845-12.27l28.439-30.322c6.535-6.969 10.78-15.788 12.183-25.176l2.296-2.263c.284-.28.551-.577.801-.89l35.127-44.008c.201-.251.388-.511.564-.78l19.266-29.536 109.488-146.524c18.903-21.089 17.935-53.049-2.301-72.985zm-342.123 348.278-1.383 1.383-27.053-11.065 9.377-9.377zm-25.967 25.967-19.059-19.059 7.327-7.327 27.053 11.065zm-36.841-1.277 9.241-9.241 19.059 19.059-9.241 9.24zm13.408 45.599-17.081 17.081c-.637.637-1.363.771-1.859.771-.497 0-1.223-.134-1.86-.771l-36.228-36.228c-.637-.637-.771-1.362-.771-1.86 0-.497.134-1.223.771-1.859l17.081-17.081c.513-.513 1.187-.769 1.86-.769s1.347.257 1.859.769l36.229 36.229c1.025 1.024 1.024 2.692-.001 3.718zm146.629-43.872-18.38 18.381c-1.538 1.538-4.041 1.539-5.579 0l-137.127-137.127c-1.538-1.538-1.538-4.04 0-5.578l18.381-18.381c.769-.769 1.779-1.154 2.789-1.154s2.02.384 2.789 1.154l137.127 137.127c1.539 1.537 1.539 4.04 0 5.578zm2.412-171.768c1.179 1.179 2.725 1.769 4.271 1.769s3.092-.59 4.271-1.769l38.059-38.059 22.723 3.352c1.735.258 3.499-.257 4.828-1.402 1.329-1.147 2.093-2.815 2.094-4.571l.01-26.973 112.319-108.597 11.109 12.67c.087.099.178.196.271.29 4.516 4.515 4.707 11.771.435 16.518l-49.097 54.542-16.553 3.173c-2.93.562-5.011 3.18-4.898 6.162l.795 20.819-31.965 50.098-16.435 2.305c-3.248.456-5.539 3.419-5.161 6.677l2.402 20.701-29.508 37.525-6.43 6.431-24.487-24.487c-.955-.954-2.2-1.561-3.54-1.725l-41.27-5.032c-1.841-.224-3.688.411-5.002 1.725l-17.672 17.672c-7.18 7.181-7.18 18.863 0 26.044l38.887 38.887-7.92 7.92-77.704-77.703 247.189-243.692c4.639-4.571 12.131-4.586 16.788-.065l11.793 13.45-114.585 110.787c-1.176 1.137-1.84 2.703-1.841 4.34l-.008 22.54-18.809-2.774c-1.893-.281-3.801.353-5.152 1.704l-40.207 40.206c-2.359 2.359-2.359 6.183 0 8.542zm-39.89 67.315c-1.197-1.197-1.856-2.788-1.856-4.48 0-1.693.659-3.284 1.856-4.481l15.591-15.591 36.282 4.424 26.194 26.194c2.415 2.416 2.492 6.273.173 8.781l-25.97 28.108c-1.181 1.279-2.789 2.001-4.529 2.035-1.734.043-3.375-.624-4.605-1.854zm269.459-210.447c-.223.244-.434.499-.632.764l-109.962 147.159c-.128.171-.251.346-.368.526l-19.178 29.402-34.451 43.161-4.426 4.361c-1.77 1.742-2.832 4.078-2.983 6.557-.38 6.203-2.935 12.123-7.197 16.668l-28.438 30.322c-4.611 4.916-10.945 7.967-17.68 8.596l-13.176-13.177 8.654-8.655c2.461 1.19 5.166 1.835 7.982 1.835.125 0 .251-.002.376-.004 5.056-.1 9.731-2.201 13.163-5.915l25.969-28.108c4.899-5.301 6.101-12.671 3.701-19l7.842-7.843c.17-.17.329-.349.478-.538l31.268-39.765c.985-1.253 1.435-2.845 1.252-4.429l-2.009-17.315 13.352-1.872c1.749-.245 3.303-1.244 4.254-2.732l34.477-54.036c.661-1.037.991-2.251.945-3.479l-.669-17.521 13.451-2.578c1.294-.248 2.47-.912 3.351-1.891l50.455-56.051c8.525-9.472 8.194-23.922-.723-32.992l-30.896-35.239c-.087-.099-.178-.196-.271-.289-9.323-9.324-24.547-9.378-33.936-.121l-247.254 243.75-12.881-12.88 256.754-252.198c6.364-6.18 14.8-9.584 23.754-9.584 9.046 0 17.543 3.463 23.926 9.751l40.51 39.907c12.614 12.428 13.149 32.393 1.216 45.453z"/><path d="m248.051 351.754c1.546 0 3.092-.59 4.271-1.769l8.618-8.619c2.359-2.359 2.359-6.183 0-8.542-2.358-2.359-6.183-2.358-8.541 0l-8.619 8.619c-2.359 2.359-2.359 6.183 0 8.542 1.18 1.179 2.725 1.769 4.271 1.769z"/><path d="m242.44 314.324c-2.358-2.358-6.183-2.358-8.542 0l-8.619 8.619c-2.359 2.359-2.359 6.183 0 8.542 1.179 1.179 2.725 1.769 4.271 1.769s3.092-.59 4.271-1.769l8.619-8.619c2.359-2.359 2.359-6.183 0-8.542z"/></g><path d="m333.851 146.851c-2.576 0-5.153-.983-7.118-2.949-3.931-3.931-3.931-10.305.001-14.236l9.846-9.846c3.932-3.931 10.307-3.93 14.235.001 3.931 3.931 3.931 10.305-.001 14.236l-9.846 9.846c-1.965 1.965-4.542 2.948-7.117 2.948z" fill="#fff"/><path d="m275.963 204.739c-2.576 0-5.15-.982-7.116-2.946-3.932-3.93-3.934-10.304-.004-14.236 12.085-12.092 23.159-23.167 34.868-34.867 3.932-3.931 10.305-3.928 14.235.004 3.93 3.933 3.928 10.306-.005 14.236-11.705 11.698-22.777 22.769-34.858 34.858-1.966 1.967-4.543 2.951-7.12 2.951z" fill="#fff"/></g><g><path d="m138.192 24.449-8.269 23.251c-.354.995-1.055 1.784-1.939 2.183l-20.657 9.307c-2.919 1.315-2.919 5.965 0 7.28l20.657 9.307c.885.398 1.585 1.187 1.939 2.183l8.269 23.251c1.168 3.285 5.299 3.285 6.468 0l8.269-23.251c.354-.995 1.055-1.784 1.939-2.183l20.657-9.307c2.918-1.315 2.918-5.965 0-7.28l-20.657-9.307c-.885-.399-1.585-1.187-1.939-2.183l-8.269-23.251c-1.169-3.285-5.3-3.285-6.468 0z" fill="#a0f2e1"/><path d="m89.267 155.353-6.134 17.247c-.263.738-.783 1.324-1.439 1.619l-15.323 6.904c-2.165.975-2.165 4.424 0 5.4l15.323 6.904c.656.296 1.176.881 1.439 1.619l6.134 17.247c.867 2.436 3.931 2.436 4.797 0l6.134-17.247c.263-.738.783-1.324 1.439-1.619l15.323-6.904c2.165-.975 2.165-4.424 0-5.4l-15.323-6.904c-.656-.296-1.176-.881-1.439-1.619l-6.134-17.247c-.866-2.436-3.931-2.436-4.797 0z" fill="#a0f2e1"/><g fill="#00e9c2"><ellipse cx="449.83" cy="295.146" rx="18.055" ry="18.056" transform="matrix(.999 -.055 .055 .999 -15.633 25.327)"/><ellipse cx="239.462" cy="62.829" rx="7.789" ry="7.789" transform="matrix(.973 -.23 .23 .973 -8.029 56.698)"/></g></g></g></svg>