<svg id="Capa_1" enable-background="new 0 0 512 512" height="512" viewBox="0 0 512 512" width="512" xmlns="http://www.w3.org/2000/svg"><g><g><path d="m176.48 269.985h54.174v181.707h-54.174z" fill="#96e6f0" transform="matrix(.853 .522 -.522 .853 218.076 -53.206)"/><path d="m10.073 414.745h146.723v54.173h-146.723" fill="#96e6f0"/><circle cx="156.796" cy="437.351" fill="#74b5f0" r="54.894"/><path d="m156.796 382.457c-4.07 0-8.031.456-11.848 1.296 14.152 4.028 24.52 17.042 24.52 32.486 0 18.658-15.125 33.783-33.783 33.783-15.444 0-28.458-10.368-32.486-24.52-.84 3.817-1.297 7.778-1.297 11.848 0 30.317 24.577 54.894 54.894 54.894s54.894-24.577 54.894-54.894c.001-30.316-24.576-54.893-54.894-54.893z" fill="#8289f3"/><path d="m388.326 339.512 29.026 53.213c5.931 10.872 21.407 11.248 27.857.676l54.323-89.033c6.451-10.572-.963-24.163-13.344-24.463l-60.597-1.47z" fill="#74b5f0"/><path d="m339.22 371.484-217.023-132.415c-17.929-10.939-23.596-34.342-12.656-52.271l72.532-118.877 281.95 172.03-72.532 118.877c-10.939 17.929-34.342 23.595-52.271 12.656z" fill="#ab82e4"/><path d="m182.073 67.921 205.646 125.473-52.902 86.705c-7.979 13.077-25.048 17.21-38.125 9.231l-158.289-96.579c-13.077-7.979-17.21-25.048-9.231-38.125l52.901-86.705-72.532 118.877c-10.939 17.929-5.273 41.332 12.656 52.271l217.023 132.415c17.929 10.94 41.332 5.273 52.272-12.656l72.532-118.877z" fill="#a862e6"/><path d="m400.626 182.454-200.284-122.202c-9.205-5.617-21.221-2.707-26.837 6.498l-36.944 60.55c-5.28 8.653-2.545 19.948 6.108 25.227l192.621 117.527c5.66 3.453 10.229 8.435 13.183 14.371l20.562 41.331c2.434 4.893 6.201 8.999 10.866 11.845l14.218 8.675c7.699 4.697 17.748 2.264 22.445-5.435l13.462-22.063 44.132-72.33c4.697-7.699 2.264-17.748-5.435-22.445z" fill="#d1b3f0"/></g><g><g fill="#4e0325"><path d="m508.764 283.46c-4.529-8.302-12.877-13.395-22.331-13.624l-14.531-.352 10.854-17.789c3.674-6.021 4.782-13.111 3.123-19.966-1.659-6.854-5.889-12.652-11.91-16.324l-268.38-163.751c-13.934-8.503-32.182-4.082-40.682 9.85l-36.945 60.55c-3.97 6.507-4.997 13.994-3.474 20.91l-23.545 38.588c-13.815 22.642-6.634 52.302 16.008 66.115l81.752 49.881-45.825 74.966c-22.268 1.332-41.538 13.93-52.195 32.159h-90.61c-5.563-.001-10.073 4.509-10.073 10.072 0 5.562 4.51 10.072 10.072 10.072h82.983c-.797 4.058-1.225 8.246-1.225 12.534 0 7.532 1.302 14.762 3.671 21.494h-85.429c-5.562.001-10.072 4.511-10.072 10.073s4.51 10.072 10.072 10.072h96.905c11.927 14.246 29.83 23.327 49.82 23.327 35.822 0 64.966-29.144 64.966-64.966 0-9.269-1.965-18.084-5.479-26.07l45.861-75.024 71.828 43.826h.001c7.803 4.762 16.438 7.028 24.973 7.028 13.214 0 26.181-5.438 35.431-15.467l14.13 25.904c4.529 8.303 12.877 13.397 22.331 13.626.222.006.443.008.664.008 9.191 0 17.493-4.651 22.303-12.535l54.323-89.033c4.927-8.074 5.163-17.851.635-26.154zm-363.606-150.914 36.944-60.549c1.315-2.156 3.391-3.67 5.846-4.264.744-.18 1.495-.269 2.242-.269 1.715 0 3.404.471 4.905 1.387l268.382 163.752c1.426.869 2.429 2.244 2.822 3.869.393 1.624.131 3.305-.74 4.731l-57.595 94.393c-1.796 2.946-5.656 3.88-8.6 2.083l-14.217-8.676c-3.05-1.861-5.503-4.535-7.095-7.733l-20.562-41.33c-3.803-7.645-9.665-14.036-16.955-18.483l-192.619-117.528c-3.899-2.378-5.135-7.485-2.758-11.383zm11.639 349.627c-24.715 0-44.822-20.106-44.822-44.821s20.107-44.822 44.822-44.822 44.821 20.107 44.821 44.822-20.106 44.821-44.821 44.821zm47.191-89.402c-7.826-8.279-17.793-14.504-29.014-17.78l40.926-66.951 29.048 17.724zm178.905-39.19c-8.029 13.16-25.268 17.331-38.428 9.305l-217.022-132.416c-6.375-3.888-10.852-10.027-12.61-17.285-1.757-7.258-.583-14.766 3.306-21.141l18.984-31.112c.101.063.198.131.301.194l192.621 117.526c4.047 2.469 7.301 6.017 9.411 10.26l20.562 41.331c3.284 6.599 8.345 12.116 14.637 15.956l8.761 5.346.34.623zm108.04-54.458-54.322 89.032c-1.634 2.677-4.237 2.897-5.282 2.881-1.044-.025-3.634-.381-5.135-3.134l-16.455-30.166c6.21-1.738 11.807-5.723 15.422-11.648l34.624-56.747 26.158.635c3.134.076 4.635 2.216 5.135 3.133.502.916 1.488 3.336-.145 6.014z"/><path d="m398.631 261.574-6.098 10.562c-1.668 2.891-.678 6.586 2.212 8.256.952.55 1.991.811 3.016.811 2.089 0 4.12-1.084 5.24-3.023l6.098-10.562c1.668-2.891.678-6.586-2.212-8.256-2.892-1.67-6.586-.678-8.256 2.212z"/><path d="m385.304 240.122c.952.55 1.991.811 3.016.811 2.089 0 4.12-1.084 5.24-3.023l6.098-10.562c1.668-2.891.678-6.586-2.212-8.256-2.893-1.67-6.586-.678-8.256 2.212l-6.098 10.562c-1.668 2.891-.678 6.586 2.212 8.256z"/></g><path d="m296.132 182.177c-1.507 0-3.036-.339-4.478-1.055-8.348-4.152-16.066-9.314-23.529-14.306-6.7-4.481-13.029-8.715-19.796-12.297-4.917-2.602-6.793-8.697-4.191-13.613 2.603-4.916 8.698-6.793 13.615-4.191 7.683 4.067 14.745 8.79 21.573 13.358 7.255 4.852 14.107 9.436 21.299 13.012 4.981 2.478 7.01 8.523 4.534 13.504-1.761 3.539-5.324 5.588-9.027 5.588z" fill="#fff"/><path d="m215.671 132.729c-1.798 0-3.619-.481-5.264-1.492l-9.042-5.557c-4.739-2.913-6.218-9.116-3.305-13.855 2.912-4.738 9.116-6.22 13.855-3.305l9.04 5.555c4.739 2.912 6.22 9.115 3.307 13.855-1.901 3.094-5.206 4.799-8.591 4.799z" fill="#fff"/></g><g><path d="m470.024 60.438-8.274 23.265c-.354.996-1.056 1.785-1.941 2.184l-20.67 9.312c-2.92 1.316-2.92 5.969 0 7.284l20.67 9.312c.885.399 1.586 1.188 1.941 2.184l8.274 23.265c1.169 3.287 5.303 3.287 6.472 0l8.274-23.265c.354-.996 1.055-1.785 1.941-2.184l20.67-9.312c2.92-1.316 2.92-5.968 0-7.284l-20.67-9.312c-.885-.399-1.586-1.188-1.941-2.184l-8.274-23.265c-1.169-3.287-5.303-3.287-6.472 0z" fill="#d1b3f0"/><path d="m62.779 21.784-6.137 17.257c-.263.739-.783 1.324-1.439 1.62l-15.334 6.909c-2.166.976-2.166 4.427 0 5.403l15.333 6.908c.656.296 1.177.881 1.439 1.62l6.137 17.258c.867 2.438 3.933 2.438 4.8 0l6.137-17.258c.263-.739.783-1.324 1.439-1.62l15.333-6.908c2.166-.976 2.166-4.427 0-5.403l-15.333-6.908c-.657-.296-1.177-.881-1.439-1.62l-6.137-17.257c-.866-2.439-3.932-2.439-4.799-.001z" fill="#d1b3f0"/><g fill="#ab82e4"><ellipse cx="305.211" cy="27.749" rx="18.066" ry="18.067" transform="matrix(.993 -.122 .122 .993 -1.104 37.499)"/><ellipse cx="371.965" cy="85.353" rx="7.793" ry="7.793" transform="matrix(.993 -.122 .122 .993 -7.642 46.087)"/></g></g></g></svg>