<svg id="Capa_1" enable-background="new 0 0 512 512" height="512" viewBox="0 0 512 512" width="512" xmlns="http://www.w3.org/2000/svg"><g><g><path d="m360.708 500.094h-210.874c-24.921 0-45.123-20.202-45.123-45.123v-393.052c0-24.921 20.202-45.123 45.123-45.123h210.874c24.921 0 45.123 20.202 45.123 45.123v393.052c.001 24.921-20.202 45.123-45.123 45.123z" fill="#ab82e4"/><path d="m352.532 466.653h-194.522c-10.542 0-19.087-8.546-19.087-19.087v-378.242c0-10.541 8.546-19.087 19.087-19.087h194.522c10.542 0 19.087 8.546 19.087 19.087v378.243c0 10.541-8.545 19.086-19.087 19.086z" fill="#96e6f0"/><path d="m274.202 271.451h-91.952c-7.753 0-14.038-6.285-14.038-14.038v-132.618c0-7.753 6.285-14.038 14.038-14.038h91.952c7.753 0 14.038 6.285 14.038 14.038v132.618c-.001 7.753-6.285 14.038-14.038 14.038z" fill="#fdf0a3"/><path d="m360.708 16.795h-53.623c19.701 0 35.672 15.971 35.672 35.672v310.721c0 19.701-15.971 35.672-35.672 35.672h-166.703c-19.701 0-35.671-15.971-35.671-35.672v91.783c0 24.921 20.202 45.123 45.123 45.123h210.875c24.921 0 45.123-20.202 45.123-45.123v-393.052c0-24.921-20.203-45.124-45.124-45.124z" fill="#a862e6"/><path d="m352.532 50.237h-9.852c.046.738.076 1.48.076 2.23v310.721c0 19.701-15.971 35.671-35.672 35.671h-166.702c-.49 0-.975-.017-1.459-.037v48.743c0 10.542 8.545 19.087 19.087 19.087h194.522c10.542 0 19.087-8.545 19.087-19.087v-378.241c0-10.542-8.545-19.087-19.087-19.087z" fill="#a6aff4"/><path d="m332.524 438.393h-154.505c-5.534 0-10.02-4.486-10.02-10.02v-21.026c0-5.534 4.486-10.02 10.02-10.02h154.505c5.534 0 10.02 4.486 10.02 10.02v21.026c0 5.534-4.486 10.02-10.02 10.02z" fill="#ffb7a9"/><ellipse cx="228.226" cy="229.331" fill="#fde15c" rx="19.59" ry="19.59" transform="matrix(.993 -.122 .122 .993 -26.31 29.603)"/></g><g><g fill="#4e0325"><path d="m360.709 6.69h-210.875c-30.453 0-55.228 24.775-55.228 55.228v393.053c0 30.453 24.775 55.228 55.228 55.228h210.875c30.453 0 55.228-24.775 55.228-55.228v-393.052c-.001-30.453-24.775-55.229-55.228-55.229zm35.018 448.281c0 19.309-15.709 35.018-35.018 35.018h-210.875c-19.309 0-35.018-15.709-35.018-35.018v-393.052c0-19.309 15.709-35.018 35.018-35.018h210.875c19.309 0 35.018 15.709 35.018 35.018z"/><path d="m352.532 44.174h-194.521c-13.869 0-25.151 11.282-25.151 25.15v378.243c0 13.868 11.282 25.15 25.151 25.15h194.521c13.868 0 25.15-11.282 25.15-25.15v-378.243c0-13.868-11.282-25.15-25.15-25.15zm0 416.416h-194.521c-7.182 0-13.025-5.842-13.025-13.024v-378.242c0-7.182 5.843-13.024 13.025-13.024h194.521c7.181 0 13.024 5.842 13.024 13.024v249.334h-131.267v-41.143h39.913c11.084 0 20.1-9.017 20.1-20.101v-132.619c0-11.084-9.017-20.101-20.1-20.101h-91.952c-11.084 0-20.101 9.017-20.101 20.101v132.618c0 11.084 9.017 20.101 20.101 20.101h39.913v47.206c0 3.348 2.715 6.063 6.063 6.063h137.33v116.783c0 7.182-5.843 13.024-13.024 13.024zm-124.306-217.732c-7.459 0-13.527-6.068-13.527-13.527s6.068-13.527 13.527-13.527 13.527 6.068 13.527 13.527-6.068 13.527-13.527 13.527zm6.063 11.396c11.227-2.732 19.59-12.867 19.59-24.923 0-14.145-11.508-25.653-25.653-25.653s-25.653 11.508-25.653 25.653c0 12.056 8.363 22.191 19.59 24.923v11.134h-39.913c-4.397 0-7.975-3.578-7.975-7.975v-132.618c0-4.397 3.578-7.975 7.975-7.975h91.953c4.397 0 7.974 3.578 7.974 7.975v132.618c0 4.397-3.577 7.975-7.974 7.975h-39.913v-11.134z"/><path d="m332.524 391.264h-154.505c-8.868 0-16.083 7.215-16.083 16.083v21.026c0 8.868 7.214 16.083 16.083 16.083h154.504c8.868 0 16.083-7.215 16.083-16.083v-21.026c.001-8.868-7.214-16.083-16.082-16.083zm3.957 37.109c0 2.182-1.775 3.957-3.957 3.957h-154.505c-2.182 0-3.957-1.775-3.957-3.957v-21.026c0-2.182 1.775-3.957 3.957-3.957h154.504c2.182 0 3.957 1.775 3.957 3.957v21.026z"/><path d="m252.626 143.33c-3.348 0-6.063 2.715-6.063 6.063v12.236c0 3.348 2.715 6.063 6.063 6.063s6.063-2.715 6.063-6.063v-12.236c0-3.349-2.715-6.063-6.063-6.063z"/><path d="m221.69 161.629c-3.348 0-6.063 2.715-6.063 6.063v12.236c0 3.348 2.715 6.063 6.063 6.063s6.063-2.715 6.063-6.063v-12.236c0-3.348-2.714-6.063-6.063-6.063z"/><path d="m199.362 137.267c-3.348 0-6.063 2.715-6.063 6.063v12.236c0 3.348 2.715 6.063 6.063 6.063s6.063-2.715 6.063-6.063v-12.236c0-3.349-2.715-6.063-6.063-6.063z"/></g><path d="m249.501 92.493c-7.111 0-14.286-.072-21.478-.216-5.58-.112-10.012-4.726-9.901-10.306.113-5.58 4.723-10.029 10.305-9.9 14.115.284 28.16.284 41.748 0 5.558-.102 10.197 4.313 10.313 9.893.115 5.579-4.313 10.197-9.893 10.313-6.931.144-13.98.216-21.094.216z" fill="#fff"/><path d="m180.241 92.279h-12.03c-5.58 0-10.105-4.524-10.105-10.105s4.525-10.105 10.105-10.105h12.03c5.58 0 10.105 4.524 10.105 10.105s-4.524 10.105-10.105 10.105z" fill="#fff"/></g><g><path d="m472.326 4.274-8.301 23.34c-.355.999-1.059 1.791-1.947 2.191l-20.736 9.343c-2.93 1.32-2.93 5.988 0 7.308l20.736 9.343c.888.4 1.591 1.192 1.947 2.191l8.301 23.34c1.173 3.298 5.32 3.298 6.492 0l8.301-23.34c.355-.999 1.059-1.791 1.947-2.191l20.737-9.343c2.93-1.32 2.93-5.988 0-7.308l-20.737-9.343c-.888-.4-1.591-1.192-1.947-2.191l-8.301-23.34c-1.172-3.298-5.319-3.298-6.492 0z" fill="#d1b3f0"/><path d="m24.613 171.629-6.157 17.313c-.264.741-.786 1.329-1.444 1.625l-15.382 6.93c-2.173.979-2.173 4.441 0 5.421l15.382 6.93c.658.297 1.18.884 1.444 1.625l6.157 17.313c.87 2.446 3.946 2.446 4.816 0l6.157-17.313c.264-.741.785-1.329 1.444-1.625l15.382-6.93c2.173-.979 2.173-4.441 0-5.421l-15.382-6.93c-.659-.297-1.18-.884-1.444-1.625l-6.157-17.313c-.87-2.446-3.946-2.446-4.816 0z" fill="#d1b3f0"/><g fill="#ab82e4"><ellipse cx="56.352" cy="89.033" rx="18.125" ry="18.125" transform="matrix(.999 -.055 .055 .999 -4.837 3.253)"/><path d="m441.081 133.83c0 4.318 3.5 7.818 7.818 7.818s7.819-3.501 7.819-7.818c0-4.318-3.5-7.819-7.819-7.819-4.318.001-7.818 3.501-7.818 7.819z"/></g></g></g></svg>