<svg id="Capa_1" enable-background="new 0 0 512 512" height="512" viewBox="0 0 512 512" width="512" xmlns="http://www.w3.org/2000/svg"><g><g><path d="m279.429 466.448h225.095v43.962h-225.095z" fill="#74b5f0"/><path d="m283.588 501.89h-254.598c-9.331 0-16.895-7.564-16.895-16.895v-18.547c0-9.331 7.564-16.895 16.895-16.895h254.597c9.331 0 16.895 7.564 16.895 16.895v18.547c0 9.331-7.564 16.895-16.894 16.895z" fill="#96e6f0"/><path d="m114.536 449.553h85.351l-23.403-176.207h-85.35z" fill="#ab82e4"/><path d="m187.154 353.684-10.67-80.338h-85.35l10.67 80.338z" fill="#a862e6"/><path d="m226.971 303.38h-175.515c-10.763 0-19.489-8.726-19.489-19.489v-181.209c0-10.763 8.726-19.489 19.489-19.489h175.514c10.764 0 19.489 8.726 19.489 19.489v181.209c.001 10.763-8.725 19.489-19.488 19.489z" fill="#ab82e4"/><path d="m205.421 46.796h-133.096c-10.131 0-18.343-8.213-18.343-18.343 0-10.131 8.213-18.343 18.343-18.343h133.096c10.131 0 18.343 8.212 18.343 18.343 0 10.13-8.212 18.343-18.343 18.343z" fill="#00e9c2"/><path d="m327.466 243.383h-32.905c-5.304 0-9.603-4.299-9.603-9.603v-84.499c0-5.304 4.299-9.603 9.603-9.603h32.905c5.304 0 9.603 4.299 9.603 9.603v84.499c0 5.303-4.3 9.603-9.603 9.603z" fill="#fde15c"/><path d="m226.971 83.193h-47.864c8.122 0 14.705 6.584 14.705 14.705v136.73c0 8.121-6.584 14.705-14.705 14.705h-132.434c-8.122 0-14.705-6.584-14.705-14.705v49.262c0 10.763 8.726 19.489 19.489 19.489h175.514c10.764 0 19.489-8.726 19.489-19.489v-181.208c0-10.763-8.726-19.489-19.489-19.489z" fill="#a862e6"/><g fill="#fde15c"><path d="m109.546 186.214h-21.75c-5.823 0-10.544-4.721-10.544-10.544v-21.75c0-5.823 4.721-10.544 10.544-10.544h21.75c5.823 0 10.544 4.721 10.544 10.544v21.751c0 5.823-4.721 10.543-10.544 10.543z"/><path d="m190.631 186.214h-21.751c-5.823 0-10.544-4.721-10.544-10.544v-21.75c0-5.823 4.721-10.544 10.544-10.544h21.751c5.823 0 10.544 4.721 10.544 10.544v21.751c0 5.823-4.72 10.543-10.544 10.543z"/><path d="m109.546 266.487h-21.75c-5.823 0-10.544-4.721-10.544-10.544v-21.751c0-5.823 4.721-10.544 10.544-10.544h21.75c5.823 0 10.544 4.721 10.544 10.544v21.751c0 5.823-4.721 10.544-10.544 10.544z"/><path d="m190.631 266.487h-21.751c-5.823 0-10.544-4.721-10.544-10.544v-21.751c0-5.823 4.721-10.544 10.544-10.544h21.751c5.823 0 10.544 4.721 10.544 10.544v21.751c0 5.823-4.72 10.544-10.544 10.544z"/></g><path d="m117.921 449.553h-100.379v-132.001c0-24.414 19.792-44.206 44.206-44.206h11.967c24.414 0 44.206 19.791 44.206 44.206z" fill="#d1b3f0"/><path d="m72.609 365.117h-55.067v-39.72h55.067c5.963 0 10.797 4.834 10.797 10.797v18.127c-.001 5.963-4.834 10.796-10.797 10.796z" fill="#fd8abe"/></g><g><g fill="#4e0325"><path d="m508.522 454.62c-2.918-4.761-9.143-6.253-13.902-3.336l-11.439 7.011c-10.034 6.15-22.5 6.15-32.533 0l-11.439-7.011c-3.243-1.987-7.326-1.986-10.566 0l-11.433 7.009c-10.033 6.151-22.5 6.152-32.536 0l-11.434-7.009c-3.242-1.987-7.326-1.987-10.567 0l-3.811 2.336v-30.427c0-5.583-4.526-10.11-10.11-10.11s-10.11 4.526-10.11 10.11v39.479c-6.816.816-13.828-.635-19.938-4.381l-11.431-7.008c-.652-.4-1.333-.709-2.028-.946-4.927-6.607-12.802-10.894-21.659-10.894h-74.845l-3.529-26.57h18.938c5.583 0 10.11-4.526 10.11-10.11s-4.526-10.11-10.11-10.11h-21.623l-3.624-27.288h16.131c5.583 0 10.11-4.526 10.11-10.11s-4.526-10.11-10.11-10.11h-18.816l-4.204-31.658h34.957c16.321 0 29.599-13.278 29.599-29.599v-100.144h18.279v50.036c0 10.87 8.843 19.713 19.713 19.713h32.905c10.87 0 19.713-8.843 19.713-19.713v-84.499c0-10.869-8.843-19.712-19.713-19.712h-32.905c-10.87 0-19.713 8.843-19.713 19.712v14.244h-18.279v-60.843c0-16.321-13.278-29.599-29.599-29.599h-30.725v-16.178h9.175c15.689 0 28.453-12.764 28.453-28.452 0-15.689-12.764-28.453-28.453-28.453h-133.096c-15.689 0-28.453 12.764-28.453 28.453s12.764 28.452 28.453 28.452h10.092v16.178h-30.961c-16.321 0-29.599 13.278-29.599 29.599v178.056c-8.946 9.686-14.425 22.62-14.425 36.814v132.001c0 .207.019.409.031.613-3.435 4.53-5.478 10.171-5.478 16.282v18.547c.001 14.891 12.115 27.005 27.006 27.005h254.597c14.89 0 27.005-12.114 27.005-27.005v-8.06c8.753 4.736 18.472 6.762 28.052 6.069v18.886c0 5.583 4.526 10.11 10.11 10.11s10.11-4.526 10.11-10.11v-24.688c.994-.524 1.978-1.08 2.946-1.673l6.148-3.768 6.15 3.77c16.553 10.147 37.119 10.145 53.67-.001l6.15-3.77 6.156 3.773c8.276 5.073 17.553 7.609 26.832 7.608 9.277-.001 18.558-2.537 26.832-7.608l11.439-7.011c4.759-2.917 6.252-9.142 3.334-13.902zm-213.455-304.832h31.892v83.486h-31.892zm-267.415 181.675h44.957c2.609 0 4.731 2.122 4.731 4.731v18.127c0 2.609-2.122 4.731-4.731 4.731h-44.957zm0 107.981v-68.26h44.957c9.298 0 16.862-7.564 16.862-16.862v-18.127c0-9.298-7.564-16.862-16.862-16.862h-44.957v-1.78c0-18.8 15.296-34.096 34.096-34.096h11.967c18.8 0 34.096 15.295 34.096 34.096v121.892h-78.82-1.339zm55.665-183.501v-21.75c0-2.469 2.009-4.478 4.479-4.478h21.75c2.469 0 4.478 2.009 4.478 4.478v21.75c0 2.469-2.009 4.478-4.478 4.478h-21.75c-2.47 0-4.479-2.009-4.479-4.478zm92.505 89.204h-3.233c-5.583 0-10.11 4.526-10.11 10.11 0 5.583 4.526 10.11 10.11 10.11h5.919l3.624 27.288h-.426c-5.583 0-10.11 4.526-10.11 10.11s4.526 10.11 10.11 10.11h3.111l3.529 26.57h-60.316v-121.893c0-1.368-.068-2.719-.168-4.062h43.755zm-111.731-316.694c0-4.54 3.694-8.234 8.234-8.234h133.096c4.54 0 8.234 3.694 8.234 8.234s-3.694 8.233-8.234 8.233h-133.096c-4.54 0-8.234-3.693-8.234-8.233zm38.545 28.452h73.391v16.178h-73.391zm-51.18 36.397h175.515c5.172 0 9.38 4.208 9.38 9.38v181.209c0 5.172-4.208 9.379-9.38 9.379h-104.692c-4.198-8.362-10.482-15.503-18.179-20.718h5.446c9.159 0 16.61-7.451 16.61-16.61v-21.75c0-9.159-7.451-16.61-16.61-16.61h-21.75c-9.159 0-16.61 7.451-16.61 16.61v21.75c0 2.619.626 5.089 1.71 7.294h-11.148c-6.937 0-13.567 1.321-19.671 3.702v-164.256c0-5.172 4.207-9.38 9.379-9.38zm238.917 391.693c0 3.742-3.044 6.786-6.785 6.786h-254.597c-3.742 0-6.785-3.044-6.785-6.786v-18.547c0-3.742 3.044-6.786 6.785-6.786h88.93 165.667c3.742 0 6.785 3.044 6.785 6.786z"/><path d="m87.796 192.28h21.75c9.159 0 16.61-7.451 16.61-16.61v-21.75c0-9.158-7.451-16.609-16.61-16.609h-21.75c-9.159 0-16.61 7.451-16.61 16.609v21.751c0 9.158 7.451 16.609 16.61 16.609zm-4.479-38.36c0-2.469 2.009-4.478 4.479-4.478h21.75c2.469 0 4.478 2.009 4.478 4.478v21.751c0 2.469-2.009 4.478-4.478 4.478h-21.75c-2.47 0-4.479-2.009-4.479-4.478z"/><path d="m168.881 192.28h21.751c9.158 0 16.609-7.451 16.609-16.61v-21.75c0-9.158-7.451-16.609-16.609-16.609h-21.751c-9.159 0-16.61 7.451-16.61 16.609v21.751c0 9.158 7.451 16.609 16.61 16.609zm-4.479-38.36c0-2.469 2.009-4.478 4.478-4.478h21.751c2.469 0 4.478 2.009 4.478 4.478v21.751c0 2.469-2.009 4.478-4.478 4.478h-21.751c-2.469 0-4.478-2.009-4.478-4.478z"/><path d="m168.881 272.553h21.751c9.158 0 16.609-7.451 16.609-16.61v-21.75c0-9.159-7.451-16.61-16.609-16.61h-21.751c-9.159 0-16.61 7.451-16.61 16.61v21.75c0 9.159 7.451 16.61 16.61 16.61zm-4.479-38.36c0-2.469 2.009-4.478 4.478-4.478h21.751c2.469 0 4.478 2.009 4.478 4.478v21.75c0 2.469-2.009 4.478-4.478 4.478h-21.751c-2.469 0-4.478-2.009-4.478-4.478z"/><ellipse cx="81.529" cy="396.804" rx="10.11" ry="10.11" transform="matrix(.38 -.925 .925 .38 -316.464 321.288)"/><path d="m81.529 417.128c-3.35 0-6.066 2.716-6.066 6.066s2.716 6.066 6.066 6.066 6.066-2.716 6.066-6.066c-.001-3.35-2.716-6.066-6.066-6.066z"/></g><path d="m132.182 125.451h-25.204c-5.583 0-10.109-4.526-10.109-10.11 0-5.583 4.526-10.109 10.109-10.109h25.204c5.583 0 10.109 4.526 10.109 10.109.001 5.584-4.525 10.11-10.109 10.11z" fill="#fff"/><path d="m70.688 125.451h-4.673c-5.583 0-10.109-4.526-10.109-10.11 0-5.583 4.526-10.109 10.109-10.109h4.673c5.584 0 10.11 4.526 10.11 10.109-.001 5.584-4.527 10.11-10.11 10.11z" fill="#fff"/></g><g><path d="m460.211 209.167-8.304 23.351c-.356 1-1.059 1.792-1.948 2.192l-20.746 9.347c-2.931 1.321-2.931 5.991 0 7.311l20.746 9.347c.888.4 1.592 1.193 1.948 2.192l8.304 23.351c1.173 3.299 5.322 3.299 6.496 0l8.304-23.351c.356-1 1.059-1.792 1.948-2.192l20.746-9.347c2.931-1.32 2.931-5.99 0-7.311l-20.746-9.347c-.888-.4-1.592-1.192-1.948-2.192l-8.304-23.351c-1.174-3.299-5.323-3.299-6.496 0z" fill="#fdf0a3"/><path d="m416.601 63.013-6.16 17.321c-.264.742-.786 1.329-1.445 1.626l-15.389 6.933c-2.174.98-2.174 4.444 0 5.423l15.389 6.933c.659.297 1.181.885 1.445 1.626l6.16 17.321c.87 2.447 3.948 2.447 4.818 0l6.16-17.321c.264-.742.786-1.329 1.445-1.626l15.389-6.933c2.174-.98 2.174-4.443 0-5.423l-15.389-6.933c-.659-.297-1.181-.884-1.445-1.626l-6.16-17.321c-.871-2.448-3.948-2.448-4.818 0z" fill="#fdf0a3"/><g fill="#fde15c"><path d="m328.602 330.092c0 10.015 8.118 18.133 18.133 18.133s18.133-8.118 18.133-18.133-8.118-18.133-18.133-18.133-18.133 8.118-18.133 18.133z"/><circle cx="318.835" cy="46.796" r="7.822"/></g></g></g></svg>