<svg id="Capa_1" enable-background="new 0 0 512 512" height="512" viewBox="0 0 512 512" width="512" xmlns="http://www.w3.org/2000/svg"><g><g><path d="m373.136 501.756v-491.512h-187.537v491.512" fill="#ab82e4"/><path d="m328.868 10.244v419.075c0 15.581-12.631 28.213-28.213 28.213h-115.056v44.225h187.537v-491.513z" fill="#a862e6"/><path d="m410.83 211.476h34.287c8.991 0 16.279 7.288 16.279 16.279v56.49c0 8.991-7.288 16.279-16.279 16.279h-34.287" fill="#fde15c"/><path d="m345.776 413.396h-130.362c-39.439 0-71.41-31.971-71.41-71.41v-171.971c0-39.439 31.971-71.41 71.41-71.41h130.361c39.439 0 71.41 31.971 71.41 71.41v171.971c0 39.438-31.971 71.41-71.409 71.41z" fill="#d1b3f0"/><path d="m345.775 98.605h-41.595c31.308 0 56.689 25.381 56.689 56.689v136.519c0 31.308-25.38 56.689-56.689 56.689h-103.487c-31.308 0-56.689-25.381-56.689-56.689v50.173c0 39.438 31.971 71.41 71.41 71.41h130.361c39.439 0 71.41-31.971 71.41-71.41v-171.971c.001-39.439-31.971-71.41-71.41-71.41z" fill="#d088f3"/><path d="m347.495 377.166h-133.8c-20.671 0-37.428-16.757-37.428-37.428v-167.476c0-20.671 16.757-37.428 37.428-37.428h133.8c20.671 0 37.428 16.757 37.428 37.428v167.476c0 20.671-16.757 37.428-37.428 37.428z" fill="#a0f2e1"/><path d="m357.57 136.218c2.131 5.962 3.299 12.381 3.299 19.076v136.519c0 31.308-25.38 56.689-56.689 56.689h-103.487c-8.687 0-16.914-1.96-24.272-5.452 1.677 19.119 17.719 34.117 37.273 34.117h133.8c20.671 0 37.428-16.757 37.428-37.428v-167.477c.001-17.178-11.577-31.644-27.352-36.044z" fill="#b0b8e5"/><path d="m344.444 256c0 31.497-28.586 57.03-63.849 57.03-4.765 0-9.408-.466-13.875-1.35l-32.411 9.894 2.848-23.776c-12.555-10.414-20.411-25.287-20.411-41.799 0-31.497 28.586-57.031 63.849-57.031s63.849 25.535 63.849 57.032z" fill="#fff"/></g><g><g fill="#4e0325"><path d="m445.117 201.232h-17.687v-31.218c0-31.468-17.904-58.816-44.05-72.443v-87.327c0-5.657-4.587-10.244-10.244-10.244s-10.244 4.587-10.244 10.244v79.936c-5.523-1.183-11.245-1.819-17.116-1.819h-130.362c-6.746 0-13.297.838-19.571 2.387v-80.504c0-5.657-4.587-10.244-10.244-10.244s-10.244 4.587-10.244 10.244v88.66c-24.804 14.029-41.595 40.638-41.595 71.111v171.971c0 30.473 16.791 57.083 41.595 71.112v88.659c0 5.657 4.587 10.244 10.244 10.244s10.244-4.587 10.244-10.244v-80.503c6.274 1.55 12.825 2.387 19.571 2.387h130.362c5.871 0 11.593-.636 17.116-1.819v79.935c0 5.657 4.587 10.244 10.244 10.244s10.244-4.587 10.244-10.244v-87.327c26.146-13.628 44.05-40.976 44.05-72.444v-31.217h17.687c14.625 0 26.524-11.899 26.524-26.524v-56.49c0-14.625-11.899-26.523-26.524-26.523zm-38.175 140.753c0 33.728-27.439 61.167-61.166 61.167h-130.362c-33.727 0-61.166-27.439-61.166-61.167v-171.97c0-33.727 27.439-61.166 61.166-61.166h130.362c33.727 0 61.166 27.439 61.166 61.166zm44.21-57.74c0 3.328-2.707 6.035-6.035 6.035h-17.687v-68.56h17.687c3.328 0 6.035 2.707 6.035 6.035z"/><path d="m347.495 128.688h-133.8c-24.027 0-43.574 19.548-43.574 43.575v167.476c0 24.027 19.547 43.575 43.574 43.575h133.8c24.027 0 43.575-19.548 43.575-43.575v-167.476c-.001-24.027-19.549-43.575-43.575-43.575zm31.281 211.05c0 17.249-14.033 31.282-31.282 31.282h-133.8c-17.248 0-31.281-14.033-31.281-31.282v-167.475c0-17.249 14.033-31.282 31.281-31.282h133.8c17.249 0 31.282 14.033 31.282 31.282z"/><path d="m280.595 192.823c-38.596 0-69.995 28.341-69.995 63.177 0 16.562 7.274 32.525 20.069 44.29l-2.462 20.553c-.247 2.063.564 4.112 2.158 5.445 1.596 1.338 3.769 1.769 5.739 1.164l30.969-9.452c4.434.781 8.975 1.177 13.521 1.177 38.596 0 69.996-28.34 69.996-63.177s-31.4-63.177-69.995-63.177zm0 114.061c-4.278 0-8.545-.415-12.682-1.232-.994-.197-2.019-.145-2.987.151l-23.391 7.141 1.726-14.413c.249-2.073-.571-4.13-2.178-5.462-11.73-9.73-18.189-22.894-18.189-37.068 0-28.058 25.885-50.885 57.702-50.885 31.818 0 57.703 22.826 57.703 50.885-.001 28.057-25.887 50.883-57.704 50.883z"/><path d="m252.526 250.441c-4.256 0-7.706 3.45-7.706 7.707 0 4.256 3.45 7.706 7.706 7.706s7.706-3.45 7.706-7.706c0-4.257-3.45-7.707-7.706-7.707z"/><path d="m280.21 250.441c-4.256 0-7.706 3.45-7.706 7.707 0 4.256 3.45 7.706 7.706 7.706s7.706-3.45 7.706-7.706c.001-4.257-3.45-7.707-7.706-7.707z"/><path d="m308.664 250.441c-4.256 0-7.706 3.45-7.706 7.707 0 4.256 3.45 7.706 7.706 7.706s7.706-3.45 7.706-7.706c0-4.257-3.45-7.707-7.706-7.707z"/><path d="m353.431 309.226c-3.394 0-6.147 2.752-6.147 6.146v12.405c0 3.394 2.752 6.147 6.147 6.147s6.147-2.752 6.147-6.147v-12.405c0-3.394-2.753-6.146-6.147-6.146z"/><path d="m322.517 327.777c-3.394 0-6.147 2.752-6.147 6.147v12.404c0 3.394 2.752 6.146 6.147 6.146 3.394 0 6.146-2.752 6.146-6.146v-12.404c0-3.394-2.752-6.147-6.146-6.147z"/><path d="m342.128 189.404c3.394 0 6.147-2.752 6.147-6.146v-12.405c0-3.394-2.752-6.146-6.147-6.146-3.394 0-6.146 2.752-6.146 6.146v12.405c0 3.394 2.752 6.146 6.146 6.146z"/></g><path d="m272.503 178.038h-23.559c-5.657 0-10.244-4.587-10.244-10.244s4.587-10.244 10.244-10.244h23.559c5.657 0 10.244 4.587 10.244 10.244s-4.586 10.244-10.244 10.244z" fill="#fff"/><path d="m218.163 178.038h-6.359c-5.657 0-10.244-4.587-10.244-10.244s4.587-10.244 10.244-10.244h6.359c5.657 0 10.244 4.587 10.244 10.244.001 5.657-4.586 10.244-10.244 10.244z" fill="#fff"/></g><g><path d="m58.525 22.605-8.415 23.662c-.36 1.013-1.073 1.816-1.974 2.222l-21.022 9.471c-2.97 1.338-2.97 6.07 0 7.408l21.022 9.471c.9.406 1.613 1.208 1.974 2.221l8.415 23.661c1.189 3.343 5.393 3.343 6.582 0l8.415-23.661c.36-1.013 1.074-1.816 1.974-2.221l21.022-9.471c2.97-1.338 2.97-6.07 0-7.408l-21.022-9.471c-.9-.406-1.613-1.208-1.974-2.222l-8.415-23.662c-1.189-3.342-5.393-3.342-6.582 0z" fill="#d1b3f0"/><path d="m88.143 378.275-6.242 17.552c-.267.751-.796 1.347-1.464 1.648l-15.594 7.025c-2.203.993-2.203 4.503 0 5.495l15.594 7.026c.668.301 1.197.896 1.464 1.648l6.242 17.552c.882 2.479 4 2.479 4.882 0l6.242-17.552c.267-.751.796-1.347 1.464-1.648l15.594-7.026c2.203-.993 2.203-4.503 0-5.495l-15.594-7.026c-.668-.301-1.197-.896-1.464-1.648l-6.242-17.552c-.882-2.478-4-2.478-4.882.001z" fill="#d1b3f0"/><g fill="#ab82e4"><ellipse cx="468.739" cy="98.605" rx="18.374" ry="18.375" transform="matrix(.997 -.083 .083 .997 -6.536 38.998)"/><circle cx="98.51" cy="167.794" r="7.926"/></g></g></g></svg>