<svg id="Capa_1" enable-background="new 0 0 510.468 510.468" height="512" viewBox="0 0 510.468 510.468" width="512" xmlns="http://www.w3.org/2000/svg"><g><path d="m228.545 367.866h88.364v64.162h-88.364z" fill="#ff68c1"/><g><g><path d="m399.069 370.457h-252.268c-10.641 0-19.267-8.626-19.267-19.267v-283.247c0-10.641 8.626-19.267 19.267-19.267h252.268c10.641 0 19.267 8.626 19.267 19.267v283.247c-.001 10.641-8.627 19.267-19.267 19.267z" fill="#96e6f0"/><path d="m399.069 48.677h-104.595c6.924 0 12.537 5.612 12.537 12.537v195.678c0 6.923-5.613 12.536-12.537 12.536h-154.403c-6.924 0-12.537-5.612-12.537-12.536v94.299c0 10.641 8.626 19.266 19.267 19.266h252.268c10.641 0 19.267-8.625 19.267-19.266v-283.248c-.001-10.64-8.627-19.266-19.267-19.266z" fill="#ea28fd" opacity=".3"/><path d="m127.534 311.995v39.196c0 10.64 8.626 19.266 19.266 19.266h252.268c10.641 0 19.267-8.626 19.267-19.266v-39.196z" fill="#00e9c2"/><path d="m117.559 10c-13.047 0-23.623 10.577-23.623 23.624v80.669c0 7.063 5.726 12.789 12.789 12.789h48.439l75.756-44.076 101.505-.141c8.395-.012 15.207 6.791 15.207 15.186v264.182c0 13.047 10.577 23.623 23.624 23.623h48.699c13.047 0 23.624-10.577 23.624-23.623v-328.609c0-13.047-10.577-23.624-23.624-23.624z" fill="#fd8abe"/><path d="m419.954 10.001h-35.655c11.62 0 21.04 9.42 21.04 21.04v292.672c0 11.62-9.42 21.039-21.04 21.039h-36.668v17.482c0 13.048 10.577 23.624 23.624 23.624h48.699c13.047 0 23.623-10.576 23.623-23.624v-328.609c0-13.048-10.576-23.624-23.623-23.624z" fill="#ff68c1"/><path d="m347.631 265.678h95.946v51.745h-95.946z" fill="#fde15c"/><path d="m405.339 265.678h38.238v51.745h-38.238z" fill="#ffac62"/><path d="m379.912 499.231-22.558-67.203h-165.566l-22.972 68.436" fill="#fd8abe"/><ellipse cx="187.304" cy="312.868" fill="#fd8abe" rx="21.217" ry="21.217" transform="matrix(.383 -.924 .924 .383 -173.427 366.185)"/><path d="m190.705 266.668h-11.737c-5.485 0-9.931-4.446-9.931-9.931v-27.988c0-5.485 4.447-9.931 9.931-9.931h11.737c5.485 0 9.931 4.446 9.931 9.931v27.988c0 5.484-4.446 9.931-9.931 9.931z" fill="#fdc3db"/><path d="m243.892 266.668h-11.737c-5.485 0-9.931-4.446-9.931-9.931v-27.988c0-5.485 4.446-9.931 9.931-9.931h11.737c5.485 0 9.931 4.446 9.931 9.931v27.988c.001 5.484-4.446 9.931-9.931 9.931z" fill="#fdf0a3"/><path d="m297.08 266.668h-11.737c-5.485 0-9.931-4.446-9.931-9.931v-27.988c0-5.485 4.446-9.931 9.931-9.931h11.737c5.485 0 9.931 4.446 9.931 9.931v27.988c0 5.484-4.446 9.931-9.931 9.931z" fill="#a0f2e1"/><path d="m190.705 193.537h-11.737c-5.485 0-9.931-4.446-9.931-9.931v-27.988c0-5.485 4.447-9.931 9.931-9.931h11.737c5.485 0 9.931 4.446 9.931 9.931v27.988c0 5.485-4.446 9.931-9.931 9.931z" fill="#a0f2e1"/><path d="m243.892 193.537h-11.737c-5.485 0-9.931-4.446-9.931-9.931v-27.988c0-5.485 4.446-9.931 9.931-9.931h11.737c5.485 0 9.931 4.446 9.931 9.931v27.988c.001 5.485-4.446 9.931-9.931 9.931z" fill="#d1b3f0"/><path d="m297.08 193.537h-11.737c-5.485 0-9.931-4.446-9.931-9.931v-27.988c0-5.485 4.446-9.931 9.931-9.931h11.737c5.485 0 9.931 4.446 9.931 9.931v27.988c0 5.485-4.446 9.931-9.931 9.931z" fill="#fdf0a3"/></g><g><g fill="#4e0325"><path d="m419.954 0h-302.396c-18.54 0-33.623 15.084-33.623 33.624v80.669c0 12.566 10.224 22.79 22.789 22.79h10.81v214.107c0 16.138 13.129 29.267 29.267 29.267h71.744v41.571h-26.756c-4.297 0-8.113 2.744-9.48 6.817l-22.973 68.436c-1.757 5.236 1.062 10.905 6.298 12.663 1.056.353 2.129.522 3.184.522 4.179 0 8.076-2.641 9.479-6.82l20.684-61.619h151.183l20.27 60.386c1.758 5.235 7.425 8.052 12.663 6.298 5.235-1.758 8.055-7.427 6.298-12.663l-22.559-67.203c-1.367-4.073-5.184-6.817-9.48-6.817h-30.445v-41.571h16.112c5.996 9.257 16.408 15.4 28.234 15.4h48.699c18.54 0 33.624-15.084 33.624-33.624v-328.609c-.002-18.54-15.086-33.624-33.626-33.624zm-316.019 114.293v-80.669c0-7.513 6.111-13.624 13.623-13.624h302.396c7.513 0 13.624 6.111 13.624 13.624v226.32h-75.946v-161.892c0-6.734-2.624-13.064-7.389-17.821-4.757-4.75-11.075-7.364-17.796-7.364-.012 0-.024 0-.036 0l-101.505.141c-1.762.003-3.492.471-5.016 1.356l-73.424 42.72h-45.742c-1.538-.001-2.789-1.253-2.789-2.791zm329.643 197.142c-.083-.004-.166-.013-.25-.013h-75.696v-39.479h75.946zm-278.414-174.352c1.767 0 3.502-.468 5.029-1.356l73.431-42.724 98.814-.137h.008c1.384 0 2.686.538 3.664 1.517.981.979 1.521 2.282 1.521 3.669v205.574h-124.728c-3.792-10.472-13.834-17.975-25.599-17.975-11.764 0-21.807 7.503-25.6 17.975h-24.171v-166.543zm47.357 175.785c0 8.391-6.826 15.217-15.217 15.217s-15.218-6.826-15.218-15.217 6.827-15.217 15.218-15.217 15.217 6.827 15.217 15.217zm-64.987 38.322v-27.564h24.774c4.179 9.672 13.809 16.459 24.997 16.459s20.817-6.787 24.996-16.459h125.331v36.831h-190.832c-5.109 0-9.266-4.157-9.266-9.267zm169.375 70.838h-68.364v-41.571h68.364zm113.045-46.171h-48.699c-7.512 0-13.623-6.111-13.623-13.624v-38.81h75.696c.084 0 .167-.009.25-.013v38.823c0 7.513-6.112 13.624-13.624 13.624z"/><path d="m315.345 260.668h-2.845c.322-1.26.511-2.572.511-3.932v-27.988c0-8.785-7.146-15.932-15.932-15.932h-11.737c-8.784 0-15.931 7.146-15.931 15.932v27.988c0 1.359.189 2.672.511 3.932h-10.61c.322-1.26.511-2.572.511-3.932v-27.988c0-8.785-7.146-15.932-15.932-15.932h-11.737c-8.784 0-15.931 7.146-15.931 15.932v27.988c0 1.359.189 2.672.511 3.932h-10.61c.322-1.26.511-2.572.511-3.932v-27.988c0-8.785-7.146-15.932-15.932-15.932h-11.737c-8.784 0-15.931 7.146-15.931 15.932v27.988c0 1.359.189 2.672.511 3.932h-2.846c-3.314 0-6 2.686-6 6 0 3.313 2.686 6 6 6h18.266 11.737 41.45 11.737 41.45 11.737 18.266c3.314 0 6-2.687 6-6 .002-3.314-2.684-6-5.998-6zm-136.378 0c-2.167 0-3.931-1.764-3.931-3.932v-27.988c0-2.168 1.764-3.932 3.931-3.932h11.737c2.168 0 3.932 1.764 3.932 3.932v27.988c0 2.168-1.764 3.932-3.932 3.932zm53.188 0c-2.167 0-3.931-1.764-3.931-3.932v-27.988c0-2.168 1.764-3.932 3.931-3.932h11.737c2.168 0 3.932 1.764 3.932 3.932v27.988c0 2.168-1.764 3.932-3.932 3.932zm53.187 0c-2.167 0-3.931-1.764-3.931-3.932v-27.988c0-2.168 1.764-3.932 3.931-3.932h11.737c2.168 0 3.932 1.764 3.932 3.932v27.988c0 2.168-1.764 3.932-3.932 3.932z"/><path d="m160.702 199.537h18.266 11.737 41.45 11.737 41.45 11.737 18.266c3.314 0 6-2.686 6-6 0-3.313-2.686-6-6-6h-2.845c.322-1.26.511-2.572.511-3.932v-27.988c0-8.784-7.146-15.931-15.932-15.931h-11.737c-8.784 0-15.931 7.146-15.931 15.931v27.988c0 1.359.189 2.672.511 3.932h-10.61c.322-1.26.511-2.572.511-3.932v-27.988c0-8.784-7.146-15.931-15.932-15.931h-11.737c-8.784 0-15.931 7.146-15.931 15.931v27.988c0 1.359.189 2.672.511 3.932h-10.61c.322-1.26.511-2.572.511-3.932v-27.988c0-8.784-7.146-15.931-15.932-15.931h-11.737c-8.784 0-15.931 7.146-15.931 15.931v27.988c0 1.359.189 2.672.511 3.932h-2.846c-3.314 0-6 2.687-6 6 .002 3.314 2.688 6 6.002 6zm120.71-15.932v-27.988c0-2.167 1.764-3.931 3.931-3.931h11.737c2.168 0 3.932 1.764 3.932 3.931v27.988c0 2.168-1.764 3.932-3.932 3.932h-11.737c-2.168 0-3.931-1.764-3.931-3.932zm-53.188 0v-27.988c0-2.167 1.764-3.931 3.931-3.931h11.737c2.168 0 3.932 1.764 3.932 3.931v27.988c0 2.168-1.764 3.932-3.932 3.932h-11.737c-2.167 0-3.931-1.764-3.931-3.932zm-53.187 0v-27.988c0-2.167 1.764-3.931 3.931-3.931h11.737c2.168 0 3.932 1.764 3.932 3.931v27.988c0 2.168-1.764 3.932-3.932 3.932h-11.737c-2.168 0-3.931-1.764-3.931-3.932z"/><path d="m376.482 203.929h41.853c3.313 0 6-2.686 6-6 0-3.313-2.687-6-6-6h-41.853c-3.314 0-6 2.687-6 6s2.687 6 6 6z"/><path d="m127.534 54.677h50.436c3.313 0 6-2.687 6-6s-2.687-6-6-6h-50.436c-3.313 0-6 2.687-6 6s2.686 6 6 6z"/><path d="m183.969 81.62c0-3.313-2.687-6-6-6h-50.436c-3.313 0-6 2.687-6 6s2.687 6 6 6h50.436c3.314 0 6-2.686 6-6z"/><path d="m287.225 454.191c-3.314 0-6 2.686-6 6v12.109c0 3.313 2.686 6 6 6 3.313 0 6-2.687 6-6v-12.109c0-3.313-2.686-6-6-6z"/><path d="m327.457 472.301c-3.314 0-6 2.686-6 6v12.109c0 3.313 2.686 6 6 6 3.313 0 6-2.687 6-6v-12.109c0-3.314-2.687-6-6-6z"/></g><path d="m337.524 58.741c-.047 0-.092 0-.139-.001-12.57-.17-25.656-.17-38.896 0-.044.001-.088.001-.132.001-5.463 0-9.926-4.393-9.996-9.871-.071-5.522 4.348-10.057 9.87-10.128 13.414-.175 26.679-.175 39.426 0 5.522.075 9.938 4.612 9.863 10.135-.074 5.476-4.537 9.863-9.996 9.864z" fill="#fff"/><path d="m255.82 58.741h-10.919c-5.523 0-10-4.478-10-10s4.477-10 10-10h10.919c5.522 0 10 4.478 10 10 0 5.523-4.478 10-10 10z" fill="#fff"/></g><g><path d="m90.723 391.051-8.214 23.098c-.352.989-1.048 1.773-1.927 2.169l-20.521 9.245c-2.899 1.306-2.899 5.926 0 7.232l20.521 9.246c.879.396 1.575 1.18 1.927 2.168l8.214 23.098c1.16 3.263 5.265 3.263 6.425 0l8.214-23.098c.352-.989 1.048-1.773 1.927-2.168l20.521-9.246c2.899-1.306 2.899-5.926 0-7.232l-20.521-9.245c-.879-.396-1.575-1.18-1.927-2.169l-8.214-23.098c-1.161-3.263-5.265-3.263-6.425 0z" fill="#fdc3db"/><path d="m455.292 418.072-6.093 17.133c-.261.734-.777 1.315-1.429 1.609l-15.223 6.858c-2.15.969-2.15 4.395 0 5.364l15.223 6.858c.652.294 1.168.875 1.429 1.608l6.093 17.133c.861 2.42 3.905 2.42 4.766 0l6.093-17.133c.261-.733.777-1.315 1.429-1.608l15.222-6.858c2.15-.969 2.15-4.395 0-5.364l-15.222-6.858c-.652-.294-1.168-.875-1.429-1.609l-6.093-17.133c-.861-2.42-3.905-2.42-4.766 0z" fill="#fdc3db"/><g fill="#fd8abe"><ellipse cx="43.989" cy="336.007" rx="17.937" ry="17.937" transform="matrix(.997 -.083 .083 .997 -27.564 4.773)"/><circle cx="70.729" cy="272.707" r="7.737"/></g></g></g></g></svg>