<svg id="Capa_1" enable-background="new 0 0 512 512" height="512" viewBox="0 0 512 512" width="512" xmlns="http://www.w3.org/2000/svg"><g><g><path d="m386.944 501.789v-35.612c0-72.751-58.976-131.727-131.727-131.727-72.751 0-131.727 58.976-131.727 131.727v35.612z" fill="#d1b3f0"/><path d="m343.147 501.789v-33.649c0-48.563-39.368-87.931-87.93-87.931-48.563 0-87.93 39.368-87.93 87.931v33.648h175.86z" fill="#d1b3f0"/><path d="m298.51 395.376c-12.046-6.202-27.282-12.385-41.764-12.385h-3.216c-13.609 0-32.786 4.552-44.287 10.071l45.007 108.47h3.675z" fill="#a0f2e1"/><path d="m264.365 380.672c25.433 11.439 43.324 38.588 43.324 70.271v7.623c0 11.867-9.62 21.486-21.486 21.486h-118.995v21.715h175.861v-33.648c0-45.446-34.479-82.834-78.704-87.447z" fill="#d088f3"/><g fill="#fdc6b5"><ellipse cx="446.596" cy="282.034" rx="43.623" ry="43.623" transform="matrix(.267 -.964 .964 .267 55.585 637.141)"/><ellipse cx="63.836" cy="282.034" rx="43.623" ry="43.623" transform="matrix(.251 -.968 .968 .251 -225.19 272.965)"/><path d="m292.389 389.84h-74.346c-92.385 0-167.278-74.893-167.278-167.278 0-92.385 74.893-167.278 167.278-167.278h74.346c92.385 0 167.278 74.893 167.278 167.278.001 92.386-74.892 167.278-167.278 167.278z"/></g><path d="m292.389 55.184h-21.451c74.898 0 135.614 60.716 135.614 135.614v11.517c0 74.898-60.717 135.615-135.614 135.615h-84.559c-71.675 0-130.355-55.606-135.273-126.03-.218 3.494-.341 7.014-.341 10.563 0 92.385 74.893 167.278 167.278 167.278h74.346c92.385 0 167.278-74.893 167.278-167.278.001-92.386-74.892-167.279-167.278-167.279z" fill="#ff96b9"/><path d="m325.567 327.493c0 41.777-49.816 80.476-70.351 80.476s-70.351-38.698-70.351-80.476c0-41.777 31.497-70.813 70.351-70.813s70.351 29.036 70.351 70.813z" fill="#c17777"/><path d="m144.152 161.359c24.408-.238 53.945 25.914 112.445 25.914s79.632-26.37 104.038-26.794c68.658-1.191 52.009 88.057 72.861 118.972 2.979 4.416 23.265-36.724 26.473-32.949 1.052-7.485 1.609-50.372 1.609-58.142v-.001c0-91.303-75.087-165.318-167.711-165.318h-74.539c-92.624 0-167.711 74.016-167.711 165.318v.001c0 7.771.557 50.657 1.609 58.142 3.589-4.223 19.934 44.828 22.97 39.855 18.667-30.587-2.804-124.307 67.956-124.998z" fill="#c17777"/><path d="m217.574 81.253c-5.367 0-9.856-4.202-10.148-9.626-.301-5.609 4.002-10.4 9.611-10.702 4.364-.233 8.832-.251 13.277-.052 5.612.252 9.956 5.006 9.704 10.617s-5.029 9.948-10.617 9.704c-3.781-.169-7.575-.154-11.274.044-.185.01-.37.015-.553.015z" fill="#fff"/><path d="m142.74 117.682c-2.124 0-4.266-.662-6.096-2.035-4.494-3.371-5.403-9.746-2.033-14.24 7.985-10.643 19.444-19.887 34.062-27.474 4.985-2.588 11.125-.644 13.713 4.341 2.588 4.986.644 11.125-4.341 13.713-11.718 6.083-21.11 13.561-27.161 21.627-1.998 2.664-5.052 4.068-8.144 4.068z" fill="#fff"/><path d="m302.416 277.786c0 30.623 24.825 55.448 55.448 55.448s55.448-24.825 55.448-55.448-24.825-69.915-55.448-69.915-55.448 39.292-55.448 69.915z" fill="#d1b3f0"/><circle cx="357.864" cy="277.786" fill="#fde15c" r="33.773"/><path d="m97.121 277.786c0 30.623 24.825 55.448 55.448 55.448s55.448-24.825 55.448-55.448-24.825-69.915-55.448-69.915-55.448 39.292-55.448 69.915z" fill="#d1b3f0"/><circle cx="152.569" cy="277.786" fill="#fde15c" r="33.773"/></g><g fill="#4e0325"><path d="m471.126 234.182c.758-7.302.733-24.565.645-40.357-.013-2.299-.023-4.19-.023-5.465 0-96.765-79.797-175.49-177.882-175.49h-74.539c-98.084 0-177.882 78.724-177.882 175.49 0 2.561-.573 9.191-1.128 15.603-1.267 14.656-2.07 24.891-1.522 30.48-17.081 9.024-28.753 26.966-28.753 47.591 0 29.662 24.132 53.794 53.794 53.794 5.494 0 10.795-.836 15.791-2.375 16.447 20.494 37.341 37.268 61.205 48.852-17.286 23.512-27.514 52.518-27.514 83.872v35.612c0 5.617 4.554 10.171 10.171 10.171s10.171-4.554 10.171-10.171v-35.612c0-28.657 9.978-55.023 26.631-75.826 10.337 3.569 21.102 6.21 32.198 7.818-8.826 7.92-16.151 17.475-21.49 28.191-.217.346-.398.712-.542 1.092-5.939 12.319-9.274 26.12-9.274 40.688v37.757c0 3.371 2.733 6.103 6.103 6.103s6.103-2.732 6.103-6.103v-37.757c0-8.077 1.185-15.88 3.377-23.254 14.86 27.443 41.132 56.347 77.063 66.518.008.003.015.005.022.008.013.004.027.007.04.011.015.005.03.009.045.014.025.007.05.009.075.016.178.048.356.088.535.12.037.007.073.013.11.018.028.004.055.01.082.014.037.005.074.007.111.011.246.03.493.051.738.051h.001.001.002.002.001c.246 0 .493-.021.741-.051.038-.005.075-.007.113-.012.028-.004.055-.009.082-.013.039-.006.077-.014.116-.02.165-.029.33-.068.495-.111.035-.009.07-.012.105-.022.029-.008.057-.018.086-.026.004-.001.007-.001.01-.003.004-.001.009-.002.013-.004.014-.004.028-.009.042-.014 35.369-10.031 61.429-39.018 76.257-66.576 2.204 7.395 3.389 15.224 3.389 23.326v37.757c0 3.371 2.732 6.103 6.102 6.103s6.103-2.732 6.103-6.103v-37.758c0-27.763-12.104-52.742-31.301-69.968 11.096-1.608 21.861-4.249 32.198-7.817 16.65 20.802 26.626 47.166 26.626 75.822v35.612c0 5.617 4.553 10.171 10.171 10.171 5.617 0 10.171-4.554 10.171-10.171v-35.612c0-31.354-10.228-60.361-27.514-83.873 23.87-11.586 44.769-28.365 61.218-48.864 4.993 1.54 10.285 2.388 15.777 2.388 29.663 0 53.795-24.132 53.795-53.794.002-20.83-11.903-38.92-29.263-47.852zm-410.543-28.467c.672-7.776 1.203-13.917 1.203-17.356 0-85.549 70.672-155.148 157.54-155.148h74.539c86.868 0 157.54 69.599 157.54 155.148 0 1.302.01 3.231.024 5.578.053 9.498.174 31.216-.5 37.845-2.201 6.601-8.513 20.274-13.918 30.494-2.036-7.373-3.623-16.11-5.262-25.127-3.407-18.745-7.268-39.991-16.727-56.607-11.664-20.487-30.046-30.642-54.564-30.233-11.569.201-21.643 4.767-33.308 10.053-16.456 7.458-36.936 16.74-70.553 16.74-33.474 0-57.026-9.085-75.95-16.384-13.247-5.11-24.709-9.531-36.161-9.531-.144 0-.289 0-.432.002-25.4.248-43.748 11.261-54.533 32.734-8.719 17.359-11.302 39.115-13.582 58.31-.901 7.587-1.778 14.973-2.958 21.471-5.177-10.623-11.1-24.151-14.008-32.011-.241-4.565.905-17.829 1.61-25.978zm258.882 121.778c0 38.206-46.752 74.373-64.248 74.373s-64.248-36.167-64.248-74.373c0-.566.024-1.124.039-1.686 14.076-11.289 23.113-28.615 23.113-48.021 0-.259-.007-.52-.01-.78 10.986-8.966 25.193-14.223 41.107-14.223 15.919 0 30.121 5.272 41.106 14.246-.003.252-.009.506-.009.757 0 19.411 9.041 36.74 23.123 48.029.011.558.027 1.115.027 1.678zm-101.422 72.519h4.38c11.958 8.725 24.044 14.06 32.793 14.06 8.748 0 20.835-5.334 32.793-14.06h3.842l-36.351 89.549-37.532-89.55c.025 0 .05.001.075.001zm133.718-197.796c-26.529 3.872-48.02 32.388-53.87 60.724-12.037-7.86-26.622-12.363-42.675-12.363-16.054 0-30.637 4.506-42.673 12.368-6.291-30.482-30.682-61.177-59.974-61.177-26.363 0-48.752 24.864-57.553 52.058.387-3.021.753-6.092 1.122-9.195 5.216-43.925 11.383-72.743 48.113-73.102 7.687-.03 17.136 3.562 29.075 8.167 19.417 7.49 46.01 17.747 83.271 17.747 38.011 0 61.673-10.724 78.95-18.553 6.062-2.747 11.35-5.139 16.215-6.63v29.956zm-199.192 11.758c26.112 0 49.345 35.684 49.345 63.812 0 27.209-22.136 49.345-49.345 49.345s-49.345-22.136-49.345-49.345c0-28.128 23.233-63.812 49.345-63.812zm155.949 63.812c0-28.128 23.233-63.812 49.345-63.812s49.345 35.684 49.345 63.812c0 27.209-22.136 49.345-49.345 49.345s-49.345-22.136-49.345-49.345zm55.448-75.57v-31.539c32.717 1.116 40.233 28.645 47.77 70.109.372 2.045.742 4.074 1.115 6.087-9.251-22.254-27.418-41.523-48.885-44.657zm-300.13 113.27c-18.446 0-33.452-15.007-33.452-33.452 0-10.871 5.227-20.528 13.285-26.64 4.06 21.611 12.05 41.849 23.195 59.949-.998.089-2.007.143-3.028.143zm15.498-19.257c2.255-.832 4.217-2.402 5.542-4.573 2.688-4.404 4.645-9.637 6.162-15.434-.012.522-.019 1.044-.019 1.563 0 33.939 27.611 61.55 61.55 61.55 9.479 0 18.462-2.157 26.49-6.001 1.77 18.452 11.576 34.276 20.644 45.258-52.205-6.098-96.658-37.894-120.369-82.363zm103.592 133.635c5.631-10.582 13.517-19.786 23.016-26.973l38.633 92.176c-29.675-13.299-50.787-40.988-61.649-65.203zm144.545-.079c-10.879 24.332-31.845 52.118-61.05 65.325l37.588-92.597c9.693 7.225 17.739 16.538 23.462 27.272zm-16.738-51.195c9.069-10.982 18.874-26.804 20.645-45.254 8.027 3.843 17.009 6 26.486 6 33.939 0 61.551-27.611 61.551-61.55 0-1.332-.046-2.675-.127-4.025 1.818 5.335 4.002 10.178 6.785 14.304 1.648 2.443 4.125 4.031 6.882 4.579-23.194 46.339-68.626 79.684-122.222 85.946zm135.863-63.104c-1.016 0-2.017-.062-3.01-.152 11.146-18.102 19.132-38.344 23.19-59.957 8.058 6.113 13.273 15.786 13.273 26.657 0 18.445-15.007 33.452-33.453 33.452z"/><path d="m255.216 287.654c-13.662 0-24.777 11.115-24.777 24.777 0 3.37 2.732 6.102 6.102 6.102s6.103-2.732 6.103-6.102c0-6.932 5.64-12.572 12.572-12.572s12.572 5.64 12.572 12.572c0 3.37 2.732 6.102 6.103 6.102 3.37 0 6.102-2.732 6.102-6.102 0-13.662-11.115-24.777-24.777-24.777z"/><path d="m310.301 129.378c3.37 0 6.103-2.733 6.103-6.103v-10.772c0-3.37-2.732-6.103-6.103-6.103-3.37 0-6.103 2.732-6.103 6.103v10.772c.001 3.37 2.733 6.103 6.103 6.103z"/><path d="m355.015 105.221c3.37 0 6.103-2.732 6.103-6.103v-10.771c0-3.37-2.732-6.102-6.103-6.102-3.37 0-6.102 2.732-6.102 6.102v10.772c0 3.37 2.732 6.102 6.102 6.102z"/><path d="m388.108 131.632c3.37 0 6.103-2.732 6.103-6.103v-10.772c0-3.37-2.732-6.103-6.103-6.103-3.37 0-6.103 2.732-6.103 6.103v10.772c.001 3.371 2.733 6.103 6.103 6.103z"/><path d="m289.695 337.881c-3.37 0-6.103 2.733-6.103 6.103v10.772c0 3.37 2.732 6.103 6.103 6.103 3.37 0 6.103-2.733 6.103-6.103v-10.772c0-3.37-2.733-6.103-6.103-6.103z"/><path d="m256.596 357.363c-3.37 0-6.103 2.732-6.103 6.103v10.772c0 3.37 2.732 6.103 6.103 6.103 3.37 0 6.103-2.733 6.103-6.103v-10.772c0-3.37-2.733-6.103-6.103-6.103z"/><path d="m397.739 277.786c0-21.987-17.888-39.875-39.875-39.875s-39.875 17.888-39.875 39.875 17.888 39.875 39.875 39.875 39.875-17.888 39.875-39.875zm-67.545 0c0-15.257 12.413-27.67 27.67-27.67s27.67 12.413 27.67 27.67-12.413 27.67-27.67 27.67c-15.258 0-27.67-12.413-27.67-27.67z"/><path d="m152.569 317.661c21.987 0 39.875-17.888 39.875-39.875s-17.888-39.875-39.875-39.875-39.875 17.888-39.875 39.875 17.888 39.875 39.875 39.875zm0-67.545c15.257 0 27.67 12.413 27.67 27.67s-12.413 27.67-27.67 27.67-27.67-12.413-27.67-27.67c0-15.258 12.413-27.67 27.67-27.67z"/></g><g><path d="m471.796 2.489-8.355 23.492c-.358 1.006-1.066 1.803-1.96 2.206l-20.872 9.404c-2.949 1.329-2.949 6.027 0 7.355l20.872 9.404c.894.403 1.602 1.2 1.96 2.206l8.355 23.492c1.18 3.319 5.355 3.319 6.535 0l8.355-23.492c.358-1.006 1.066-1.803 1.96-2.206l20.872-9.404c2.949-1.329 2.949-6.027 0-7.355l-20.872-9.404c-.894-.403-1.602-1.2-1.96-2.206l-8.355-23.492c-1.181-3.319-5.355-3.319-6.535 0z" fill="#d1b3f0"/><path d="m25.046 370.698-6.197 17.426c-.265.746-.791 1.337-1.454 1.636l-15.483 6.975c-2.187.986-2.187 4.471 0 5.456l15.483 6.976c.663.299 1.188.89 1.454 1.636l6.197 17.426c.875 2.462 3.972 2.462 4.847 0l6.198-17.426c.265-.746.791-1.337 1.454-1.636l15.483-6.976c2.187-.986 2.187-4.47 0-5.456l-15.483-6.975c-.663-.299-1.188-.89-1.454-1.636l-6.198-17.426c-.876-2.462-3.972-2.462-4.847 0z" fill="#d1b3f0"/><g fill="#ab82e4"><ellipse cx="42.609" cy="41.78" rx="18.243" ry="18.243" transform="matrix(.997 -.082 .082 .997 -3.291 3.645)"/><path d="m71.405 442.462c0 4.346 3.523 7.87 7.869 7.87s7.87-3.523 7.87-7.87c0-4.346-3.523-7.87-7.87-7.87-4.346.001-7.869 3.524-7.869 7.87z"/></g></g></g></svg>