<svg id="Capa_1" enable-background="new 0 0 512 512" height="512" viewBox="0 0 512 512" width="512" xmlns="http://www.w3.org/2000/svg"><g><g><path d="m281.013 330.183h-59.965v-241.173c0-9.514 7.713-17.227 17.227-17.227h25.511c9.514 0 17.227 7.713 17.227 17.227z" fill="#00e9c2"/><path d="m161.349 104.842h-42.039c-7.347 0-13.302 5.955-13.302 13.302v33.361c0 7.346 5.955 13.302 13.302 13.302h34.367c4.237 0 7.672 3.435 7.672 7.672v151.51h59.965v-165.364c0-29.704-24.08-53.784-53.784-53.784h-6.181z" fill="#fd8abe"/><path d="m340.769 104.842h42.039c7.347 0 13.302 5.955 13.302 13.302v33.361c0 7.346-5.956 13.302-13.302 13.302h-34.367c-4.237 0-7.672 3.435-7.672 7.672v151.51h-59.965v-165.364c0-29.704 24.08-53.784 53.784-53.784h6.181z" fill="#fde15c"/><path d="m134.998 447.289v-157.08c0-11.533 9.349-20.882 20.882-20.882h190.302c11.533 0 20.882 9.349 20.882 20.882v157.079" fill="#fdf0a3"/><path d="m94.243 501.949v-148.581c0-16.226 13.153-29.379 29.379-29.379h254.817c16.226 0 29.379 13.154 29.379 29.379v148.582" fill="#74b5f0"/><path d="m378.439 323.989h-86.984c11.259 0 20.387 9.128 20.387 20.387v56.172c0 25.921-21.013 46.933-46.933 46.933h-170.666v54.469h313.575v-148.583c0-16.225-13.154-29.378-29.379-29.378z" fill="#8289f3"/><path d="m367.063 320.446h-86.05v-48.143h67.851c10.051 0 18.199 8.148 18.199 18.199z" fill="#ffb7a9"/></g><g><g fill="#4e0325"><path d="m454.02 124.23h-47.86v-6.086c0-12.877-10.476-23.353-23.353-23.353h-48.221c-16.809 0-32.112 6.542-43.524 17.199v-22.98c0-15.041-12.236-27.278-27.277-27.278h-2.705v-51.681c.001-5.551-4.499-10.051-10.05-10.051s-10.05 4.5-10.05 10.051v51.682h-2.706c-15.041 0-27.277 12.236-27.277 27.278v22.925c-11.406-10.626-26.686-17.145-43.467-17.145h-48.221c-12.876 0-23.352 10.476-23.352 23.353v6.086h-47.917c-5.551 0-10.051 4.5-10.051 10.051s4.5 10.051 10.051 10.051h47.916v7.174c0 12.876 10.476 23.352 23.352 23.352h31.989v84.762c-14.891 2.221-26.35 15.092-26.35 30.592v23.728h-1.326c-21.741 0-39.429 17.689-39.429 39.43v148.582c0 5.55 4.5 10.051 10.051 10.051s10.051-4.5 10.051-10.051v-148.585c0-10.658 8.671-19.329 19.328-19.329h254.817c10.658 0 19.328 8.671 19.328 19.329v148.582c0 5.55 4.5 10.051 10.051 10.051s10.051-4.5 10.051-10.051v-148.582c0-21.741-17.688-39.43-39.429-39.43h-1.326v-23.727c0-15.48-11.43-28.34-26.294-30.585v-84.769h31.989c12.877 0 23.353-10.476 23.353-23.352v-7.174h47.86c5.551 0 10.051-4.5 10.051-10.051s-4.502-10.049-10.053-10.049zm-215.746-42.396h25.512c3.957 0 7.176 3.219 7.176 7.177v64.686c-.125 1.629-.209 3.269-.209 4.929v100.651h-39.389v-100.651c0-1.914-.1-3.804-.266-5.676v-63.94c0-3.957 3.219-7.176 7.176-7.176zm-118.965 72.921c-1.793 0-3.251-1.458-3.251-3.251v-33.361c0-1.793 1.459-3.252 3.251-3.252h48.221c22.5 0 41.079 17.082 43.467 38.957v105.428h-39.598v-86.798c0-9.773-7.95-17.723-17.722-17.723zm237.703 135.455v23.728h-211.963v-23.728c0-5.973 4.859-10.832 10.831-10.832h190.302c5.971 0 10.83 4.859 10.83 10.832zm29.048-138.705c0 1.792-1.458 3.251-3.252 3.251h-34.367c-9.772 0-17.723 7.95-17.723 17.723v86.798h-39.655v-104.892c2.14-22.132 20.84-39.494 43.524-39.494h48.221c1.793 0 3.252 1.459 3.252 3.252z"/><path d="m271.635 439.951c-3.33 0-6.03 2.7-6.03 6.03v12.171c0 3.33 2.7 6.03 6.03 6.03s6.03-2.7 6.03-6.03v-12.171c.001-3.33-2.699-6.03-6.03-6.03z"/><path d="m308.457 405.914c-3.33 0-6.03 2.7-6.03 6.03v12.171c0 3.33 2.7 6.03 6.03 6.03s6.03-2.7 6.03-6.03v-12.171c.001-3.33-2.7-6.03-6.03-6.03z"/><path d="m341.565 449.853c-3.33 0-6.03 2.7-6.03 6.03v12.17c0 3.33 2.7 6.03 6.03 6.03s6.03-2.7 6.03-6.03v-12.17c.001-3.33-2.7-6.03-6.03-6.03z"/></g><path d="m193.389 381.805c-5.422 0-9.891-4.319-10.041-9.773-.154-5.548 4.22-10.171 9.769-10.324 13.652-.378 25.718-.378 39.126 0 5.548.156 9.92 4.781 9.764 10.329-.156 5.549-4.769 9.941-10.33 9.764-13.019-.367-24.739-.367-38.004 0-.095.003-.19.004-.284.004z" fill="#fff"/><path d="m151.525 381.805h-15.922c-5.551 0-10.051-4.5-10.051-10.051 0-5.55 4.5-10.051 10.051-10.051h15.922c5.551 0 10.051 4.5 10.051 10.051 0 5.55-4.5 10.051-10.051 10.051z" fill="#fff"/></g><g><path d="m448.009 5.288-8.256 23.214c-.354.994-1.053 1.782-1.936 2.18l-20.625 9.292c-2.914 1.313-2.914 5.956 0 7.268l20.625 9.292c.883.398 1.583 1.186 1.936 2.18l8.256 23.214c1.166 3.28 5.291 3.28 6.458 0l8.256-23.214c.354-.994 1.053-1.782 1.936-2.18l20.625-9.292c2.914-1.313 2.914-5.955 0-7.268l-20.625-9.292c-.883-.398-1.583-1.186-1.936-2.18l-8.256-23.214c-1.166-3.28-5.291-3.28-6.458 0z" fill="#fdf0a3"/><path d="m49.011 185.99-6.124 17.22c-.262.737-.781 1.322-1.436 1.617l-15.299 6.893c-2.161.974-2.161 4.418 0 5.392l15.299 6.893c.655.295 1.174.879 1.436 1.617l6.124 17.22c.865 2.433 3.925 2.433 4.79 0l6.124-17.22c.262-.737.781-1.322 1.436-1.617l15.299-6.893c2.161-.974 2.161-4.418 0-5.392l-15.299-6.893c-.655-.295-1.174-.879-1.436-1.617l-6.124-17.22c-.865-2.433-3.924-2.433-4.79 0z" fill="#fdf0a3"/><g fill="#fde15c"><ellipse cx="141.712" cy="35.193" rx="18.027" ry="18.027" transform="matrix(.993 -.117 .117 .993 -3.15 16.87)"/><ellipse cx="415.006" cy="220.117" rx="7.777" ry="7.776" transform="matrix(.383 -.924 .924 .383 52.829 519.297)"/></g></g></g></svg>