<svg id="Capa_1" enable-background="new 0 0 512 512" height="512" viewBox="0 0 512 512" width="512" xmlns="http://www.w3.org/2000/svg"><g><g><path d="m10.588 440.081h490.355v57.921h-490.355z" fill="#74b5f0"/><path d="m447.389 205.124-237.122 98.219c-45.042 18.657-96.68-2.732-115.337-47.774-18.657-45.042 2.732-96.68 47.774-115.337l237.122-98.219c45.042-18.657 96.68 2.732 115.337 47.774 18.657 45.042-2.732 96.68-47.774 115.337z" fill="#00e9c2"/><path d="m495.163 89.787c-18.657-45.042-70.295-66.431-115.337-47.774l-38.336 15.879c28.11-1.293 55.285 14.878 66.674 42.376 14.529 35.076-2.128 75.289-37.204 89.818l-184.657 76.488c-35.076 14.529-75.289-2.128-89.818-37.204v-.001c-4.236-10.225-5.803-20.884-5.054-31.219-5.11 18.342-4.353 38.464 3.499 57.419 18.657 45.042 70.295 66.431 115.337 47.774l237.122-98.219c45.042-18.657 66.431-70.295 47.774-115.337z" fill="#45b1c6"/><path d="m67.969 131.688h433.209v27.266h-433.209z" fill="#fd8abe" transform="matrix(.924 -.383 .383 .924 -33.95 119.964)"/><path d="m88.915 184.389h433.209v27.266h-433.209z" fill="#fd8abe" transform="matrix(.924 -.383 .383 .924 -52.523 131.991)"/><g fill="#ff68c1"><path d="m121.031 259.683-19.831 8.214c5.12 8.383 11.502 15.674 18.787 21.731l43.173-17.883c-15.08.694-29.88-3.649-42.129-12.062z"/><path d="m499.447 102.938-87.204 36.121c-2.713 14.61-10.107 28.146-21.26 38.319l110.546-45.79c.869-9.434.226-19.102-2.082-28.65z"/></g><g><path d="m99.97 236.543c-1.279-2.299-2.452-4.684-3.484-7.173v-.001c-2.566-6.195-4.147-12.549-4.833-18.894l-2.866 1.187c-1.105 9.495-.674 19.254 1.442 28.916z" fill="#45b1c6"/><path d="m468.464 54.395-70.235 29.092c3.997 4.974 7.37 10.587 9.935 16.781 1.031 2.489 1.888 5.006 2.609 7.536l77.123-31.946c-5.335-8.329-11.937-15.531-19.432-21.463z" fill="#ff68c1"/></g><g fill="#fde15c"><path d="m225.679 301-47.488 19.67c-21.939 9.087-47.091-1.331-56.178-23.27-2.657-6.414.389-13.767 6.803-16.423l33.266-13.779c2.286-.947 4.799-1.198 7.227-.722l53.977 10.576c12.216 2.394 13.894 19.185 2.393 23.948z"/><path d="m154.564 128.359-47.488 19.67c-21.939 9.087-32.357 34.239-23.27 56.178 2.657 6.414 10.01 9.459 16.423 6.803l33.266-13.779c2.286-.947 4.241-2.547 5.621-4.6l30.689-45.646c6.946-10.331-3.74-23.39-15.241-18.626z"/></g></g><g fill="#4e0325"><path d="m78.458 214.362c-1.156 14.918 1.067 30.314 7.175 45.058 5.791 13.98 14.531 26.162 25.531 35.91.242 1.991.748 3.981 1.552 5.922 5.424 13.094 15.622 23.293 28.716 28.716 6.547 2.712 13.426 4.068 20.305 4.068 6.88 0 13.759-1.356 20.305-4.068l47.488-19.67c4.237-1.755 7.687-4.653 10.106-8.227l211.603-87.649c24.268-10.052 43.169-28.953 53.221-53.221s10.052-50.998-.001-75.266c-10.052-24.268-28.952-43.169-53.221-53.221-24.268-10.052-50.998-10.052-75.265 0l-208.178 86.23c-5.346-2.151-11.44-2.223-17.084.116l-47.487 19.67c-27.031 11.196-39.913 42.296-28.716 69.327.972 2.345 2.32 4.455 3.95 6.305zm396.29-139.594-376.009 155.749c-.326-2.885-.481-5.782-.481-8.678 1.976-.253 3.933-.749 5.824-1.532l33.267-13.779c4.128-1.71 7.628-4.574 10.121-8.282l4.057-6.034 311.727-129.124c4.24 3.472 8.08 7.391 11.494 11.68zm11.117 18.87c.997 2.407 1.87 4.845 2.618 7.305l-380.931 157.788c-1.212-2.268-2.326-4.605-3.324-7.013-1.24-2.993-2.274-6.035-3.128-9.107l380.529-157.621c1.568 2.778 2.996 5.655 4.236 8.648zm5.771 35.512-311.769 129.14-8.625-1.69c-4.384-.857-8.883-.408-13.011 1.301l-33.265 13.779c-2.119.878-4.031 2.044-5.716 3.431-1.794-1.925-3.492-3.942-5.086-6.047l376.946-156.137c.748 5.384.918 10.815.526 16.223zm-269.808 162.553-47.488 19.67c-8.127 3.367-17.077 3.367-25.206 0-8.127-3.367-14.456-9.696-17.823-17.823-.328-.793-.181-1.481 0-1.918.026-.062.066-.132.101-.199l36.263-15.021 53.675 10.517c.452.089 1.827.358 2.012 2.21s-1.109 2.387-1.534 2.564zm221.71-95.877-202.252 83.776c-3.009-6.328-8.843-11.011-16.065-12.426l-23.93-4.689 288.029-119.306c-.91 3.484-2.052 6.932-3.454 10.317-7.995 19.301-23.028 34.334-42.328 42.328zm-59.861-144.516c9.65-3.998 19.79-5.996 29.93-5.996s20.28 1.999 29.93 5.996c2.647 1.096 5.205 2.337 7.684 3.691l-287.515 119.093 14.451-21.494c3.573-5.314 4.653-11.637 3.33-17.54zm-290.572 123.839c3.366-8.127 9.696-14.456 17.823-17.823l47.488-19.67c.425-.176 1.719-.714 2.899.728 1.179 1.441.397 2.603.14 2.985l-30.689 45.646c-.276.411-.664.728-1.12.917l-33.265 13.779c-.794.328-1.481.181-1.918 0s-1.028-.564-1.356-1.356c-3.369-8.127-3.369-17.079-.002-25.206z"/><path d="m501.468 430.017h-491.404c-5.558 0-10.064 4.506-10.064 10.064s4.506 10.064 10.064 10.064h491.404c5.558 0 10.064-4.506 10.064-10.064s-4.506-10.064-10.064-10.064z"/><path d="m15.501 376.405c1.283 0 2.588-.247 3.847-.768l75.406-31.234c5.135-2.127 7.574-8.014 5.447-13.149s-8.016-7.576-13.149-5.447l-75.406 31.234c-5.135 2.127-7.574 8.014-5.447 13.149 1.605 3.876 5.352 6.215 9.302 6.215z"/><path d="m15.501 298.538c1.283 0 2.588-.247 3.847-.769l37.703-15.617c5.135-2.127 7.574-8.014 5.447-13.149s-8.015-7.575-13.149-5.447l-37.703 15.617c-5.135 2.127-7.574 8.014-5.447 13.149 1.605 3.876 5.352 6.216 9.302 6.216z"/></g><g><path d="m63.873 16.461-8.267 23.245c-.354.995-1.055 1.784-1.939 2.182l-20.652 9.305c-2.918 1.315-2.918 5.963 0 7.278l20.652 9.305c.884.398 1.585 1.187 1.939 2.182l8.267 23.245c1.168 3.284 5.298 3.284 6.466 0l8.267-23.245c.354-.995 1.055-1.784 1.939-2.182l20.652-9.305c2.918-1.314 2.918-5.963 0-7.278l-20.652-9.305c-.884-.398-1.585-1.187-1.939-2.182l-8.267-23.245c-1.168-3.284-5.298-3.284-6.466 0z" fill="#a0f2e1"/><path d="m403.16 270.086-6.132 17.242c-.263.738-.782 1.323-1.438 1.619l-15.32 6.902c-2.164.975-2.164 4.423 0 5.399l15.32 6.902c.656.296 1.176.881 1.438 1.619l6.132 17.243c.866 2.436 3.93 2.436 4.796 0l6.132-17.243c.263-.738.782-1.323 1.438-1.619l15.32-6.902c2.164-.975 2.164-4.423 0-5.399l-15.32-6.902c-.656-.296-1.176-.881-1.438-1.619l-6.132-17.242c-.866-2.436-3.93-2.436-4.796 0z" fill="#a0f2e1"/><g fill="#00e9c2"><ellipse cx="310.939" cy="350.722" rx="18.051" ry="18.051" transform="matrix(.997 -.082 .082 .997 -27.789 26.758)"/><ellipse cx="198.13" cy="50.088" rx="7.787" ry="7.787" transform="matrix(.363 -.932 .932 .363 79.542 216.524)"/></g></g></g></svg>