<svg id="Capa_1" enable-background="new 0 0 512 512" height="512" viewBox="0 0 512 512" width="512" xmlns="http://www.w3.org/2000/svg"><g><g><path d="m334.617 253.695h-85.977c-32.672-121.307-86.88-133.069-145.903-243.632h183.734c37.522 64.563 66.979 105.185 48.146 243.632z" fill="#00e9c2"/><path d="m286.471 10.063h-57.784c21.337 36.715 38.87 62.135 36.857 123.912-.782 24.006-20.403 43.098-44.421 43.098h-2.35c11.237 20.51 21.295 44.791 29.868 76.622h85.977c18.832-138.447-10.625-179.069-48.147-243.632z" fill="#45b1c6"/><path d="m343.389 266.98-44.619 178.892h-69.217l26.024-194.062z" fill="#00e9c2"/><path d="m307.112 426.814 105.66 54.086c3.747 1.918 6.098 5.732 6.098 9.891 0 6.156-5.067 11.147-11.318 11.147h-156.566c-19.806 0-35.862-15.814-35.862-35.322v-18.634c0-11.691 9.622-21.168 21.492-21.168z" fill="#a0f2e1"/><path d="m142.919 10.063s-9.045 44.572 31.119 68.79c17.638 10.635 41.086 18.063 63.762 25.245 25.436 8.057 51.737 16.388 73.022 29.961 26.823 17.105 41.925 40.605 44.889 69.847 1.275 12.579-8.044 23.794-20.816 25.049-.784.077-1.565.115-2.336.115-11.797.001-21.9-8.81-23.097-20.617-3.345-33.007-34.818-44.598-85.893-60.776-25.279-8.008-51.419-16.288-73.801-29.783-64.731-39.031-51.56-106.463-51.354-109.32" fill="#d1b3f0"/><ellipse cx="302.33" cy="241.44" fill="#fd8abe" rx="54.959" ry="48.437"/><path d="m302.33 193.003c-3.235 0-6.399.26-9.481.733 16.988 3.191 29.733 16.486 29.733 32.41 0 18.304-16.837 33.143-37.605 33.143-18.068 0-33.154-11.232-36.774-26.205-.536 2.716-.832 5.505-.832 8.356 0 26.751 24.606 48.437 54.959 48.437s54.959-21.686 54.959-48.437-24.606-48.437-54.959-48.437z" fill="#ff68c1"/></g><g><path d="m417.357 471.944-101.731-52.075 34.663-138.974c10.589-10.41 17.061-24.264 17.061-39.454 0-9.437-2.512-18.351-6.942-26.252 1.258-3.782 1.722-7.813 1.309-11.889-1.372-13.543-5.178-25.922-11.374-37.081-.615-21.619-3.074-40.959-7.397-58.652-8.805-36.038-24.119-62.166-41.851-92.421-1.948-3.323-3.925-6.696-5.925-10.138-2.793-4.804-8.95-6.435-13.755-3.643-4.804 2.793-6.436 8.951-3.644 13.755 2.013 3.463 4.002 6.858 5.963 10.202 21.108 36.014 38.549 65.808 44.474 114.106-4.312-3.704-9.021-7.194-14.14-10.458-21.957-14.001-48.64-22.453-74.445-30.626-13.119-4.155-26.49-8.399-38.749-13.269-.633-.398-1.315-.663-2.014-.804-7.82-3.185-15.144-6.642-21.598-10.524-31.609-20.953-28.366-62.731-28.33-63.151.294-3.316-2.152-6.245-5.469-6.546-3.327-.3-6.257 2.148-6.558 5.468-.093 1.023-1.132 13.861 2.888 29.506l-34.667 7.324c-2.836-14.78-1.998-27.866-.851-36.032.093-.658.146-1.101.16-1.307.24-3.326-2.261-6.216-5.587-6.456-3.281-.239-6.16 2.213-6.448 5.49-.016.134-.045.333-.082.594-2.62 18.652-.373 34.501 2.097 44.819-.003.428.036.863.128 1.299.123.582.343 1.114.612 1.612 4.738 17.742 13.354 33.202 25.735 46.232.308.415.658.78 1.044 1.093 7.063 7.233 15.308 13.7 24.718 19.374 11.208 6.758 23.248 12.21 35.61 16.969 22.422 29.392 41.846 61.266 56.662 116.278.335 1.245.903 2.376 1.637 3.365.575 1.574 1.21 3.122 1.927 4.634-6.571 9.114-12.982 16.976-17.898 20.9-38.566 30.786-24.809 80.887-8.359 138.959-6.826 5.733-11.17 14.277-11.17 23.811v18.634c0 25.025 20.602 45.384 45.924 45.384h156.567c11.789 0 21.38-9.514 21.38-21.209 0-7.971-4.435-15.193-11.575-18.847zm-121.693-55.192h-52.054l17.452-130.14c11.234 8.323 25.613 13.328 41.268 13.328 8.269 0 16.173-1.41 23.455-3.954zm-67.403-309.35-16.809 30.065c-11.061-3.598-22.112-7.418-32.734-11.861l20.962-28.035c9.234 3.539 18.91 6.74 28.581 9.831zm43.907 14.666-16.234 30.045c-9.251-3.376-19.447-6.676-30.544-10.191-.733-.232-1.469-.466-2.204-.699l16.823-30.091c10.786 3.425 21.664 6.95 32.159 10.936zm-50.422 31.366c31.515 9.982 55.189 18.094 68.79 30.489-19.054 3.156-35.217 13.803-44.574 28.416-9.235-24.474-19.612-43.825-30.921-61.035 2.239.713 4.476 1.424 6.705 2.13zm127.531 47.597c-11.018-10.358-26.206-17.092-43.118-17.98-1.214-1.65-2.548-3.247-4.003-4.798l22.483-25.712c13.749 13.381 22.005 29.616 24.638 48.49zm-91.844 40.409c0-21.16 20.14-38.376 44.897-38.376 24.756 0 44.897 17.215 44.897 38.376s-20.141 38.376-44.897 38.376-44.897-17.216-44.897-38.376zm58.049-96.769-22.412 25.633c-1.728-1.261-3.548-2.491-5.487-3.687-5.954-3.671-12.741-6.968-20.303-10.104l16.153-29.895c8.543 3.681 16.692 7.781 24.142 12.532 2.772 1.767 5.402 3.611 7.907 5.521zm-171.871-94.113c2.926 7.115 7.066 14.352 12.902 20.989l-29.758 19.563c-9.311-10.686-15.124-22.086-18.643-33.052zm-8.207 49.316 30.083-19.776c1.647 1.312 3.385 2.58 5.224 3.794.069.045.138.089.208.131 5.32 3.208 11.12 6.114 17.226 8.812l-20.711 27.699c-5-2.409-9.871-4.989-14.548-7.809-6.653-4.012-12.443-8.33-17.482-12.851zm101.741 201.065c.624-.498 1.263-1.047 1.909-1.621l-11.852 88.38c-10.603-42.32-12.023-69.224 9.943-86.759zm170.408 190.937h-156.567c-14.227 0-25.801-11.332-25.801-25.26v-18.634c0-6.124 5.128-11.106 11.431-11.106h68.07l103.501 52.982c.383.196.621.554.621.934.001.597-.563 1.084-1.255 1.084z" fill="#4e0325"/><g fill="#fff"><path d="m271.126 386.116c-.502 0-1.009-.038-1.521-.115-5.494-.833-9.273-5.962-8.44-11.457l3.003-19.808c.833-5.494 5.959-9.266 11.457-8.441 5.494.833 9.273 5.962 8.44 11.456l-3.003 19.809c-.756 4.983-5.045 8.556-9.936 8.556z"/><path d="m279.131 334.971c-.517 0-1.04-.04-1.568-.122-5.49-.859-9.244-6.006-8.386-11.496l.501-3.203c.859-5.49 6.007-9.246 11.497-8.386 5.49.859 9.244 6.006 8.385 11.496l-.501 3.203c-.776 4.963-5.057 8.508-9.928 8.508z"/></g></g><g><path d="m80.738 195.465-8.265 23.24c-.354.995-1.054 1.784-1.939 2.182l-20.648 9.303c-2.917 1.314-2.917 5.962 0 7.277l20.648 9.303c.884.398 1.585 1.187 1.939 2.182l8.265 23.24c1.168 3.283 5.297 3.283 6.465 0l8.265-23.24c.354-.995 1.054-1.784 1.938-2.182l20.648-9.303c2.917-1.314 2.917-5.962 0-7.277l-20.648-9.303c-.884-.398-1.584-1.187-1.938-2.182l-8.265-23.24c-1.168-3.283-5.297-3.283-6.465 0z" fill="#a0f2e1"/><path d="m434.998 32.672-6.131 17.239c-.263.738-.782 1.323-1.438 1.619l-15.317 6.901c-2.164.975-2.164 4.423 0 5.398l15.317 6.901c.656.296 1.175.881 1.438 1.619l6.131 17.239c.866 2.435 3.929 2.435 4.795 0l6.131-17.239c.263-.738.782-1.323 1.438-1.619l15.317-6.901c2.164-.975 2.164-4.423 0-5.398l-15.317-6.901c-.656-.296-1.175-.88-1.438-1.619l-6.131-17.239c-.866-2.435-3.929-2.435-4.795 0z" fill="#a0f2e1"/><g fill="#00e9c2"><ellipse cx="418.87" cy="342.529" rx="18.048" ry="18.048" transform="matrix(.982 -.189 .189 .982 -57.217 85.392)"/><ellipse cx="123.856" cy="351.527" rx="7.785" ry="7.785" transform="matrix(.987 -.16 .16 .987 -54.581 24.309)"/></g></g></g></svg>