<svg id="Capa_1" enable-background="new 0 0 512 512" height="512" viewBox="0 0 512 512" width="512" xmlns="http://www.w3.org/2000/svg"><g><g><path d="m471.219 380.476h-377.136c-9.95 0-18.016-8.066-18.016-18.017v-239.425c0-9.95 8.066-18.017 18.016-18.017h377.137c9.95 0 18.016 8.066 18.016 18.017v239.425c0 9.95-8.066 18.017-18.017 18.017z" fill="#ab82e4"/><path d="m471.219 105.018h-71.843c8.141 0 14.741 6.6 14.741 14.741v195.894c0 8.141-6.6 14.741-14.741 14.741h-308.569c-8.141 0-14.741-6.6-14.741-14.741v46.806c0 9.95 8.066 18.017 18.016 18.017h377.137c9.95 0 18.016-8.066 18.016-18.017v-239.425c.001-9.95-8.065-18.016-18.016-18.016z" fill="#a862e6"/><path d="m415.748 489.928h-228.147c-9.95 0-18.016-8.066-18.016-18.016v-44.305c0-9.95 8.066-18.017 18.016-18.017h228.146c9.95 0 18.016 8.066 18.016 18.017v44.305c.001 9.95-8.065 18.016-18.015 18.016z" fill="#ab82e4"/><path d="m450.679 350.858h-336.056c-4.206 0-7.616-3.41-7.616-7.616v-200.99c0-4.206 3.41-7.616 7.616-7.616h336.056c4.206 0 7.616 3.41 7.616 7.616v200.99c0 4.206-3.41 7.616-7.616 7.616z" fill="#00e9c2"/><path d="m450.679 134.636h-36.562v181.018c0 8.141-6.6 14.741-14.741 14.741h-292.369v12.847c0 4.206 3.41 7.616 7.616 7.616h336.056c4.206 0 7.616-3.41 7.616-7.616v-200.99c0-4.206-3.41-7.616-7.616-7.616z" fill="#45b1c6"/><path d="m279.313 501.889c0-16.958-4.559-32.851-12.513-46.524 21.463-16.088 89.186-76.051 47.641-166.426-11.833-23.899-66.607-94.269-127.648-94.269-60.703 0-117.373 71.066-128.51 96.02-40.667 91.117 27.96 150.101 48.078 164.897-7.874 13.623-12.382 29.436-12.382 46.302" fill="#74b5f0"/><path d="m314.442 288.939c-11.834-23.899-66.607-94.269-127.648-94.269-3.77 0-7.524.276-11.253.796 47.38 7.092 88.324 60.148 97.665 79.012 31.264 68.01-10.564 115.676-33.006 134.995-3.998 3.441-5.356 9.114-3.246 13.949.054.124.108.247.161.371 6.305 14.656-4.623 30.967-20.578 30.967h-111.288c.384.288.758.566 1.112.828-7.874 13.623-12.382 29.435-12.382 46.302h185.334c0-16.958-4.559-32.85-12.513-46.524 21.463-16.089 89.187-76.052 47.642-166.427z" fill="#8289f3"/><path d="m412.973 233.953-20.908-19.324 9.785-10.587c3.264-3.532 1.656-9.265-2.969-10.585l-53.717-15.325c-5.088-1.451-9.664 3.5-7.817 8.457l19.5 52.346c1.679 4.507 7.521 5.659 10.785 2.127l9.785-10.587 20.908 19.323c3.706 3.425 9.487 3.198 12.912-.508l2.243-2.427c3.426-3.704 3.199-9.485-.507-12.91z" fill="#fff"/></g><g><g fill="#4e0325"><path d="m471.219 94.907h-377.136c-15.51 0-28.128 12.618-28.128 28.128v136.619c-7.958 10.427-13.792 19.941-16.905 26.916-18.661 41.812-18.152 82.139 1.512 119.863 12.655 24.278 30.39 41.689 42.944 51.965-6.326 13.549-9.637 28.418-9.637 43.49 0 5.584 4.527 10.111 10.111 10.111s10.111-4.527 10.111-10.111c0-14.502 3.812-28.764 11.025-41.241 2.58-4.463 1.389-10.152-2.763-13.206-19.951-14.672-82.144-69.04-44.836-152.631 4.332-9.706 19.893-32.945 43.208-53.981 18.226-16.445 46.218-36.048 76.069-36.048 56.686 0 108.685 68.801 118.525 88.517 38.171 83.246-24.466 138.896-44.582 153.975-4.105 3.078-5.255 8.741-2.675 13.175 7.289 12.529 11.142 26.859 11.142 41.439 0 5.584 4.527 10.111 10.111 10.111s10.111-4.527 10.111-10.111c0-.617-.014-1.233-.026-1.849h126.348c15.509 0 28.128-12.618 28.128-28.128v-44.305c0-15.51-12.618-28.128-28.128-28.128h-90.018c1.362-2.95 2.619-5.914 3.751-8.892h141.738c15.509 0 28.128-12.618 28.128-28.128v-239.422c0-15.51-12.618-28.128-28.128-28.128zm-195.374 130.43c-20.612-18.602-52.793-40.777-89.052-40.777-26.305 0-51.821 12.031-73.719 28.267v-70.575c0-.854.695-1.549 1.549-1.549h336.056c.854 0 1.549.695 1.549 1.549v200.989c0 .854-.695 1.549-1.549 1.549h-112.827c-.129-19.641-4.862-39.71-14.224-60.075-.04-.089-.082-.176-.126-.264-6.942-14.022-24.817-38.502-47.657-59.114zm147.808 202.269v44.305c0 4.359-3.546 7.905-7.905 7.905h-128.721c-.687-3.132-1.522-6.228-2.498-9.279h15.312c3.35 0 6.067-2.716 6.067-6.067 0-3.35-2.716-6.067-6.067-6.067h-15.444c-1.509 0-2.886.554-3.947 1.465-.265-.591-.527-1.183-.803-1.77 10.044-8.337 23.362-21.24 34.753-38.399h101.349c4.357.002 7.904 3.549 7.904 7.907zm55.471-65.147c0 4.359-3.546 7.905-7.905 7.905h-135.86c.907-4.455 1.577-8.935 1.989-13.44h113.331c7.545 0 13.683-6.138 13.683-13.683v-200.989c0-7.545-6.138-13.683-13.683-13.683h-336.056c-7.545 0-13.683 6.138-13.683 13.683v80.285c-5.209 4.48-10.142 9.136-14.762 13.839v-113.341c0-4.359 3.546-7.905 7.905-7.905h377.136c4.359 0 7.905 3.546 7.905 7.905z"/><path d="m332.934 464.471c0 3.35 2.716 6.067 6.067 6.067h15.444c3.35 0 6.067-2.716 6.067-6.067 0-3.35-2.716-6.067-6.067-6.067h-15.444c-3.35 0-6.067 2.717-6.067 6.067z"/><path d="m377.832 464.471c0 3.35 2.716 6.067 6.067 6.067h15.444c3.35 0 6.067-2.716 6.067-6.067 0-3.35-2.716-6.067-6.067-6.067h-15.444c-3.351 0-6.067 2.717-6.067 6.067z"/><path d="m309.106 439.322c0 3.35 2.716 6.067 6.067 6.067h15.444c3.35 0 6.067-2.716 6.067-6.067 0-3.35-2.716-6.067-6.067-6.067h-15.444c-3.351 0-6.067 2.717-6.067 6.067z"/><path d="m360.071 445.389h15.444c3.35 0 6.067-2.716 6.067-6.067 0-3.35-2.716-6.067-6.067-6.067h-15.444c-3.35 0-6.067 2.716-6.067 6.067s2.716 6.067 6.067 6.067z"/><path d="m351.163 241.052c1.529 4.108 5.009 7.066 9.309 7.914 4.298.846 8.643-.567 11.617-3.786l5.667-6.132 16.452 15.204c2.832 2.619 6.471 4.041 10.306 4.041.203 0 .408-.004.612-.012 4.058-.16 7.811-1.89 10.568-4.873l2.243-2.427c2.756-2.982 4.186-6.86 4.027-10.918-.16-4.057-1.89-7.811-4.872-10.566l-16.453-15.206 5.667-6.132c2.975-3.218 4.044-7.659 2.861-11.878-1.184-4.219-4.406-7.456-8.62-8.658l-53.717-15.325c-4.565-1.304-9.405.054-12.629 3.541-3.223 3.488-4.196 8.418-2.538 12.868zm-8.051-56.976c.16-.174.28-.14.389-.11l53.717 15.325c.082.024.207.059.265.267.058.207-.03.303-.088.366l-9.785 10.587c-2.274 2.461-2.123 6.299.337 8.573l20.908 19.324c.813.751.965 1.659.984 2.134s-.062 1.392-.813 2.205l-2.243 2.427c-.751.813-1.659.965-2.134.983-.476.018-1.392-.061-2.205-.814l-20.908-19.323c-1.167-1.078-2.643-1.611-4.116-1.611-1.633 0-3.261.656-4.457 1.949l-9.785 10.587c-.058.063-.143.157-.358.117-.211-.041-.257-.164-.287-.245l-19.5-52.346c-.038-.103-.082-.222.079-.395z"/><path d="m224.791 374.409c-3.35 0-6.067 2.716-6.067 6.067v11.668c0 3.35 2.716 6.067 6.067 6.067 3.35 0 6.067-2.716 6.067-6.067v-11.668c0-3.351-2.716-6.067-6.067-6.067z"/><path d="m239.997 317.526c-3.35 0-6.067 2.716-6.067 6.067v11.667c0 3.35 2.716 6.067 6.067 6.067 3.35 0 6.067-2.716 6.067-6.067v-11.667c0-3.351-2.716-6.067-6.067-6.067z"/><path d="m280.419 365.672v-11.667c0-3.35-2.716-6.067-6.067-6.067-3.35 0-6.067 2.716-6.067 6.067v11.667c0 3.35 2.716 6.067 6.067 6.067s6.067-2.717 6.067-6.067z"/></g><path d="m111.886 326.993c-1.226 0-2.473-.225-3.684-.699-5.2-2.036-7.765-7.901-5.729-13.101 3.598-9.189 8.254-17.894 13.839-25.874 3.203-4.576 9.507-5.687 14.082-2.485s5.687 9.507 2.485 14.082c-4.667 6.668-8.562 13.952-11.576 21.649-1.561 3.989-5.377 6.428-9.417 6.428z" fill="#fff"/><path d="m151.624 276.37c-3.254 0-6.448-1.567-8.4-4.47-3.116-4.634-1.885-10.917 2.749-14.033 2.097-1.41 4.101-2.61 6.126-3.667 4.952-2.585 11.058-.67 13.644 4.279 2.586 4.95.67 11.058-4.279 13.644-1.358.709-2.734 1.535-4.206 2.526-1.732 1.163-3.694 1.721-5.634 1.721z" fill="#fff"/></g><g><path d="m45.855 9.707-8.306 23.355c-.356 1-1.06 1.792-1.948 2.193l-20.75 9.348c-2.932 1.321-2.932 5.992 0 7.312l20.75 9.348c.888.4 1.592 1.193 1.948 2.193l8.306 23.355c1.173 3.299 5.323 3.299 6.497 0l8.306-23.355c.356-1 1.059-1.792 1.948-2.193l20.75-9.348c2.931-1.321 2.931-5.991 0-7.312l-20.75-9.348c-.889-.4-1.592-1.193-1.948-2.193l-8.306-23.355c-1.174-3.3-5.324-3.3-6.497 0z" fill="#a0f2e1"/><path d="m401.048 11.838-6.161 17.324c-.264.742-.786 1.33-1.445 1.626l-15.392 6.935c-2.174.98-2.174 4.444 0 5.424l15.392 6.935c.659.297 1.181.885 1.445 1.626l6.161 17.324c.87 2.447 3.948 2.447 4.819 0l6.161-17.324c.264-.742.786-1.33 1.445-1.626l15.392-6.935c2.174-.98 2.174-4.444 0-5.424l-15.392-6.935c-.659-.297-1.181-.885-1.445-1.626l-6.161-17.324c-.87-2.448-3.949-2.448-4.819 0z" fill="#a0f2e1"/><g fill="#00e9c2"><ellipse cx="161.442" cy="18.136" rx="18.136" ry="18.136" transform="matrix(.997 -.082 .082 .997 -.945 13.337)"/><ellipse cx="280.419" cy="48.258" rx="7.823" ry="7.823" transform="matrix(.978 -.207 .207 .978 -3.912 59.205)"/></g></g></g></svg>