<svg id="Capa_1" enable-background="new 0 0 512 512" height="512" viewBox="0 0 512 512" width="512" xmlns="http://www.w3.org/2000/svg"><g><g><g fill="#ab82e4"><path d="m65.378 378.922-55.512-27.894c-3.356-1.686-4.71-5.775-3.024-9.131l7.425-14.777c1.686-3.356 5.775-4.71 9.131-3.024l55.512 27.894z"/><path d="m90.473 328.979-55.512-27.894c-3.356-1.687-4.71-5.775-3.024-9.131l7.425-14.777c1.686-3.356 5.775-4.71 9.131-3.023l55.512 27.894z"/><path d="m78.178 468.87-44.048-20.699c-6.545-3.076-9.338-10.89-6.226-17.418l110.785-232.343c8.779-18.683 31.042-26.712 49.725-17.932 18.683 8.779 26.712 31.042 17.932 49.725l-110.848 232.476c-3.088 6.476-10.826 9.242-17.32 6.191z"/><path d="m450.257 468.87 44.048-20.698c6.545-3.076 9.338-10.89 6.226-17.418l-110.786-232.343c-8.779-18.683-31.042-26.712-49.725-17.932-18.683 8.779-26.712 31.042-17.932 49.725l110.849 232.476c3.088 6.475 10.826 9.241 17.32 6.19z"/></g><path d="m263.953 279.748 63.304-125.983h-126.608z" fill="#fdf0a3"/><path d="m159.007 411.645h211.542c4.561 0 8.221-3.779 8.07-8.338-2.674-80.994 1.511-146.876 8.306-201.282 0-11.823-7.373-22.469-18.65-26.93l-53.152-21.025h-104.116l-51.166 20.911c-11.108 4.539-18.331 15.101-18.331 26.801 7.76 51.718 12.904 115.856 9.43 201.45-.186 4.586 3.478 8.413 8.067 8.413z" fill="#ab82e4"/><path d="m386.925 202.026c0-11.823-7.373-22.469-18.65-26.93l-40.66-16.083v9.522c.175.313.145.771.441 1.041 8.055 7.345 21.984 27.496 21.984 27.496s-10.67 10.764-17.937 14.305c-3.966 38.738-6.088 84.318-4.298 138.517.118 3.581-2.757 6.551-6.341 6.551h-166.207c-1.182 0-2.283-.328-3.228-.889-.066 15.125-.412 30.988-1.089 47.678-.186 4.585 3.478 8.412 8.067 8.412h211.542c4.561 0 8.221-3.779 8.07-8.338-2.674-80.995 1.511-146.877 8.306-201.282z" fill="#a862e6"/><path d="m151.774 375.889c-.182 8.87-.453 17.971-.833 27.344-.186 4.585 3.478 8.412 8.067 8.412h211.542c4.561 0 8.22-3.78 8.07-8.337-.308-9.342-.522-18.474-.654-27.418h-226.192z" fill="#d088f3"/><path d="m317.198 158.341-53.093 121.407-55.259-121.407" fill="#d1b3f0"/><path d="m161.377 122.638-.413 40.662c-.029 2.854 1.009 5.504 3.075 7.445 10.12 9.506 32.388-.63 31.866-14.505-.106-2.832-1.423-5.356-3.594-7.208z" fill="#fdf0a3"/><path d="m95.819 183.021 22.317 33.993c1.566 2.386 3.905 4.008 6.702 4.468 13.701 2.253 26.542-18.572 18.377-29.801-1.667-2.292-4.166-3.654-7.002-3.982z" fill="#fdf0a3"/><path d="m367.058 122.638.413 40.662c.029 2.854-1.009 5.504-3.075 7.445-10.12 9.506-32.388-.63-31.866-14.505.106-2.832 1.423-5.356 3.594-7.208z" fill="#fdf0a3"/><path d="m432.616 183.021-22.317 33.993c-1.566 2.386-3.905 4.008-6.702 4.468-13.701 2.253-26.542-18.572-18.377-29.801 1.667-2.292 4.166-3.654 7.002-3.982z" fill="#fdf0a3"/></g><g><g fill="#4e0325"><path d="m509.725 426.369-96.809-203.032c.922-.878 1.765-1.862 2.492-2.969l22.316-33.993c1.302-1.984 1.339-4.542.093-6.563-1.245-2.018-3.541-3.145-5.906-2.863l-40.394 4.678c-.074.008-.145.027-.219.036-4.14-6.697-10.318-12.145-17.956-15.477.158-.96.249-1.943.239-2.948l-.413-40.661c-.025-2.374-1.42-4.518-3.58-5.501-2.158-.984-4.694-.627-6.499.913l-30.934 26.394c-1.408 1.202-2.567 2.587-3.476 4.097l-9.812-3.881c-1.193-.471-2.464-.714-3.746-.714h-104.114c-1.322 0-2.63.257-3.854.757l-7.812 3.193c-.842-1.258-1.858-2.424-3.062-3.451l-30.934-26.394c-1.805-1.54-4.338-1.896-6.499-.913-2.16.983-3.555 3.128-3.579 5.501l-.413 40.661c-.009.926.074 1.831.207 2.72-7.693 3.368-13.91 8.898-18.048 15.685-.032-.004-.063-.012-.096-.016l-40.394-4.678c-2.357-.277-4.66.844-5.905 2.863-1.246 2.02-1.21 4.579.093 6.563l22.316 33.992c.727 1.108 1.57 2.092 2.492 2.97l-29.87 62.645-34.409-17.289c-3.082-1.55-6.584-1.807-9.858-.721-3.274 1.084-5.931 3.378-7.48 6.461l-7.425 14.777c-1.549 3.083-1.805 6.584-.72 9.857 1.085 3.275 3.379 5.931 6.461 7.479l35.193 17.685-5.824 12.214-35.443-17.809c-3.083-1.549-6.584-1.806-9.858-.721-3.274 1.084-5.931 3.378-7.48 6.46l-7.425 14.778c-1.548 3.082-1.804 6.583-.72 9.857 1.084 3.275 3.379 5.932 6.461 7.48l36.228 18.204-24.64 51.676c-2.681 5.623-3.003 11.95-.906 17.816s6.356 10.556 11.995 13.206l44.047 20.697c3.174 1.492 6.522 2.199 9.825 2.199 8.689-.001 17.051-4.892 21.023-13.224l36.514-76.577c-.129 4.088-.277 8.199-.444 12.334-.2 4.945 1.65 9.83 5.078 13.4 3.425 3.566 8.224 5.612 13.167 5.612h211.541c4.919 0 9.703-2.028 13.124-5.564 3.471-3.587 5.292-8.31 5.127-13.297-.108-3.277-.198-6.532-.284-9.784l35.226 73.876c3.972 8.332 12.334 13.224 21.023 13.224 3.301 0 6.65-.706 9.824-2.198l44.05-20.698c5.638-2.65 9.897-7.34 11.993-13.206 2.096-5.868 1.773-12.195-.908-17.818zm-121.702-81.553c.273-39.34 2.241-77.076 5.927-113.92l79.324 166.36-49.834 21.836zm-283.347 74.947-49.833-21.836 80.145-168.082c4.26 35.721 6.531 72.831 6.826 112.034zm208.18-197.426c3.88 10.193 9.302 25.204 11.042 31.45-6.347 4.895-30.341 16.67-53.576 26.999l49.706-113.663c10.341 12.166 20.06 24.308 23.156 29.395-4.149 3.954-16.751 12.145-27.636 18.33-2.621 1.49-3.765 4.669-2.692 7.489zm-102.692-7.489c-10.885-6.185-23.486-14.376-27.636-18.33 3.079-5.059 12.71-17.098 22.989-29.198l.591-.241 52.379 115.077c-24.16-10.636-50.042-23.255-56.672-28.369 1.739-6.245 7.162-21.257 11.042-31.45 1.072-2.82-.071-5.999-2.693-7.489zm53.83 49.901-45.74-100.491h89.686zm-112.206-63.086c.046-.702.064-1.399.049-2.09.818-6.668 5.286-12.476 11.857-15.162l9.538-3.898c.381.017.758.047 1.143.047 1.61 0 3.256-.159 4.915-.463-9.724 12.616-9.729 14.909-9.729 16.974 0 2.925.001 8.255 30.032 25.795-3.4 9.103-9.681 26.351-10.408 31.438-.741 5.193 3.799 8.837 13.007 14.143 5.6 3.227 13.424 7.254 23.254 11.969 14.247 6.833 28.721 13.193 32.659 14.912v74.045h-96.042c.904-60.008-2.477-115.18-10.275-167.71zm118.541 92.472c5.938-2.615 18.02-8.002 29.938-13.718 9.83-4.715 17.654-8.742 23.254-11.969 9.208-5.306 13.747-8.95 13.006-14.143-.726-5.086-7.007-22.334-10.408-31.438 30.032-17.54 30.032-22.87 30.032-25.795 0-2.109-.011-4.463-10.368-17.799 2.788.855 5.582 1.288 8.277 1.288.102 0 .202-.011.304-.012l10.165 4.021c6.694 2.648 11.243 8.49 12.067 15.242-.008.719.014 1.444.072 2.176-6.633 53.581-9.583 108.651-8.966 167.387h-97.372v-75.24zm134.861-80.475c-.668 1.017-1.537 1.618-2.585 1.791-4.311.722-8.725-3.015-11.194-7.021-2.469-4.005-3.813-9.626-1.247-13.155.624-.858 1.552-1.364 2.761-1.504l27.406-3.173zm-65.099-59.978 20.988-17.908.28 27.587c.013 1.217-.374 2.202-1.147 2.929-3.179 2.985-8.924 2.357-13.208.407-4.283-1.949-8.53-5.867-8.366-10.227.039-1.061.528-1.999 1.453-2.788zm-172.735-17.907 20.989 17.908c.924.788 1.414 1.726 1.454 2.787.164 4.359-4.084 8.277-8.366 10.227s-10.028 2.581-13.208-.407c-.775-.727-1.16-1.713-1.148-2.929zm-59.252 54.821 27.406 3.173c1.208.14 2.137.647 2.761 1.505 2.566 3.529 1.222 9.149-1.248 13.154s-6.882 7.728-11.194 7.021c-1.047-.172-1.917-.774-2.584-1.791zm-70.399 105.028c-.169-.086-.285-.219-.345-.399-.059-.18-.046-.356.039-.526l7.425-14.777c.085-.17.219-.285.399-.345.074-.025.147-.037.219-.037.104 0 .207.025.307.076l34.636 17.403-7.713 16.176zm-25.095 49.943c-.339-.171-.477-.586-.306-.925l7.425-14.777c.085-.17.219-.286.399-.345.074-.025.147-.037.219-.037.104 0 .207.025.307.076l35.67 17.923-7.713 16.176zm69.902 114.084c-.001 0-.001-.001-.001-.001l-44.048-20.698c-.889-.417-1.293-1.113-1.475-1.623-.183-.51-.311-1.304.111-2.191l12.479-26.172 49.834 21.836-13.109 27.493c-.673 1.414-2.373 2.021-3.791 1.356zm79.309-78.054h96.284v19.86h-96.899c.261-6.686.454-13.292.615-19.86zm108.508 19.861v-19.86h97.551c.123 6.577.276 13.186.487 19.86zm221.118 35.87c-.182.51-.586 1.207-1.474 1.623l-44.049 20.698-.001.001c-1.42.667-3.118.057-3.791-1.356l-13.429-28.163 49.834-21.836 12.799 26.843c.422.886.293 1.68.111 2.19z"/><path d="m181.867 318.247h44.639c3.375 0 6.112-2.737 6.112-6.112s-2.737-6.112-6.112-6.112h-44.639c-3.375 0-6.112 2.737-6.112 6.112 0 3.376 2.737 6.112 6.112 6.112z"/><path d="m343.905 306.023h-44.639c-3.375 0-6.112 2.737-6.112 6.112s2.737 6.112 6.112 6.112h44.639c3.375 0 6.112-2.737 6.112-6.112s-2.737-6.112-6.112-6.112z"/><path d="m411.43 315.304c-3.375 0-6.112 2.737-6.112 6.112v12.335c0 3.375 2.737 6.112 6.112 6.112s6.112-2.737 6.112-6.112v-12.335c0-3.376-2.737-6.112-6.112-6.112z"/><path d="m429.635 356.848c-3.375 0-6.112 2.737-6.112 6.112v12.336c0 3.375 2.737 6.112 6.112 6.112s6.112-2.737 6.112-6.112v-12.336c0-3.376-2.737-6.112-6.112-6.112z"/></g><path d="m99.887 366.412c-1.378 0-2.779-.282-4.119-.875-5.144-2.278-7.467-8.296-5.189-13.44l6.724-15.184c2.279-5.143 8.295-7.466 13.44-5.189 5.144 2.278 7.467 8.296 5.189 13.44l-6.724 15.184c-1.685 3.802-5.413 6.064-9.321 6.064z" fill="#fff"/><path d="m121.411 315.076c-1.379 0-2.78-.281-4.121-.876-5.144-2.279-7.465-8.297-5.186-13.441l1.662-3.752c2.281-5.144 8.298-7.463 13.442-5.183 5.143 2.281 7.464 8.299 5.183 13.442l-1.66 3.747c-1.686 3.802-5.413 6.063-9.32 6.063z" fill="#fff"/></g><g><path d="m429.343 34.206-8.368 23.529c-.358 1.007-1.068 1.806-1.963 2.209l-20.905 9.418c-2.953 1.331-2.953 6.036 0 7.367l20.905 9.418c.895.403 1.604 1.202 1.963 2.209l8.368 23.529c1.182 3.324 5.363 3.324 6.545 0l8.368-23.529c.358-1.007 1.068-1.806 1.963-2.209l20.905-9.418c2.953-1.331 2.953-6.036 0-7.367l-20.905-9.418c-.895-.403-1.604-1.202-1.963-2.209l-8.368-23.529c-1.182-3.324-5.363-3.324-6.545 0z" fill="#d1b3f0"/><path d="m51.488 102.822-6.207 17.453c-.266.747-.792 1.34-1.456 1.639l-15.507 6.986c-2.191.987-2.191 4.477 0 5.465l15.507 6.986c.664.299 1.19.891 1.456 1.638l6.207 17.454c.877 2.466 3.978 2.466 4.855 0l6.207-17.454c.266-.747.792-1.339 1.456-1.638l15.507-6.986c2.19-.987 2.19-4.477 0-5.465l-15.507-6.986c-.664-.299-1.19-.891-1.456-1.639l-6.207-17.453c-.877-2.465-3.978-2.465-4.855 0z" fill="#d1b3f0"/><g fill="#ab82e4"><ellipse cx="175.515" cy="57.205" rx="18.272" ry="18.272" transform="matrix(.997 -.083 .083 .997 -4.12 14.671)"/><path d="m476.643 158.341c0 4.353 3.529 7.882 7.882 7.882s7.882-3.529 7.882-7.882-3.529-7.882-7.882-7.882-7.882 3.529-7.882 7.882z"/></g></g></g></svg>