<svg id="Capa_1" enable-background="new 0 0 512 512" height="512" viewBox="0 0 512 512" width="512" xmlns="http://www.w3.org/2000/svg"><g><g><path d="m91.08 381.197h-49.291c-17.524 0-31.73-14.206-31.73-31.73v-69.46c0-7.174 3.624-13.863 9.634-17.78l71.388-46.534v165.504z" fill="#96e6f0"/><path d="m330.943 158.339-213.863-.35c-28.997-.047-52.529 23.446-52.529 52.443v151.778c0 28.964 23.479 52.443 52.443 52.443h162.158 42.149 69.758c28.964 0 52.443-23.48 52.443-52.443v-46.02c0-9.122-2.38-18.087-6.904-26.009l-60.202-105.409c-9.32-16.318-26.66-26.402-45.453-26.433z" fill="#74b5f0"/><path d="m328.986 201.318-48.896-.115c-9.557-.016-17.312 7.727-17.312 17.284v50.022c0 9.546 7.738 17.284 17.284 17.284h31.856 13.891 22.991c9.546 0 17.284-7.738 17.284-17.284v-15.167c0-3.007-.784-5.961-2.275-8.572l-19.841-34.74c-3.073-5.378-8.788-8.702-14.982-8.712z" fill="#96e6f0"/><path d="m436.599 290.182-60.202-105.408c-9.32-16.318-26.66-26.403-45.453-26.434l-213.863-.351c-.198 0-.392.012-.59.014l168.19.276c15.529.025 29.858 8.359 37.56 21.844l49.747 87.103c3.739 6.546 5.705 13.954 5.705 21.492v38.028c0 23.933-19.402 43.336-43.336 43.336h-57.643-34.829-133.998c-23.934 0-43.336-19.402-43.336-43.336v35.466c0 28.964 23.48 52.444 52.443 52.444h162.158 42.149 69.758c28.964 0 52.443-23.48 52.443-52.444v-46.02c.001-9.124-2.379-18.088-6.903-26.01z" fill="#8289f3"/><ellipse cx="129.611" cy="439.24" fill="#ab82e4" rx="57.207" ry="57.207" transform="matrix(.973 -.23 .23 .973 -97.449 41.529)"/><path d="m105.024 450.441c-5.555 0-10.059-4.504-10.059-10.059 0-19.733 16.054-35.787 35.788-35.787 5.555 0 10.059 4.504 10.059 10.059s-4.503 10.059-10.059 10.059c-8.641 0-15.67 7.029-15.67 15.67-.001 5.554-4.504 10.058-10.059 10.058z" fill="#fff"/><ellipse cx="371.112" cy="439.24" fill="#ab82e4" rx="57.207" ry="57.207" transform="matrix(.707 -.707 .707 .707 -201.894 391.066)"/><path d="m346.525 450.441c-5.555 0-10.059-4.504-10.059-10.059 0-19.733 16.055-35.787 35.788-35.787 5.555 0 10.059 4.504 10.059 10.059s-4.504 10.059-10.059 10.059c-8.641 0-15.671 7.029-15.671 15.67.001 5.554-4.503 10.058-10.058 10.058z" fill="#fff"/><ellipse cx="145.063" cy="114.968" fill="#00e9c2" rx="42.936" ry="42.936" transform="matrix(.23 -.973 .973 .23 -.158 229.736)"/><ellipse cx="241.503" cy="114.968" fill="#00e9c2" rx="42.936" ry="42.936" transform="matrix(.16 -.987 .987 .16 89.335 334.936)"/><path d="m198.464 283.549h-68.07c-9.829 0-17.797-7.968-17.797-17.797v-44.508c0-9.829 7.968-17.797 17.797-17.797h68.07c9.829 0 17.797 7.968 17.797 17.797v44.508c0 9.829-7.968 17.797-17.797 17.797z" fill="#96e6f0"/><path d="m439.973 352.302h-21.653c-10.219 0-18.503-8.284-18.503-18.504 0-10.219 8.284-18.503 18.503-18.503h21.653" fill="#fde15c"/></g><g fill="#4e0325"><path d="m349.207 207.037c-4.133-7.236-11.875-11.74-20.207-11.754l-48.901-.115c-.013 0-.026 0-.039 0-6.221 0-12.071 2.419-16.474 6.816-4.414 4.406-6.844 10.267-6.844 16.503v50.023c0 12.858 10.462 23.319 23.32 23.319h68.737c12.858 0 23.32-10.461 23.32-23.319v-15.168c0-4.048-1.062-8.047-3.071-11.565zm10.841 61.473c0 6.202-5.046 11.248-11.249 11.248h-68.737c-6.203 0-11.249-5.046-11.249-11.248v-50.023c0-3.008 1.172-5.835 3.3-7.961 2.125-2.121 4.946-3.288 7.943-3.288h.02l48.897.115h.004c4.02.006 7.755 2.179 9.749 5.67l19.841 34.74c.969 1.697 1.481 3.626 1.481 5.579z"/><path d="m501.941 326.344h-12.408v-15.766c0-12.582-3.299-25.008-9.539-35.935l-71.632-125.421c-12.842-22.486-36.906-36.481-62.801-36.523l-51.124-.084c-1.236-28.134-24.503-50.643-52.936-50.643-21.397 0-39.86 12.754-48.22 31.053-8.36-18.298-26.823-31.053-48.22-31.053-28.322 0-51.525 22.332-52.927 50.312l-1.04-.002c-.005 0-.011 0-.017 0-5.547 0-10.049 4.493-10.058 10.042-.009 5.556 4.487 10.067 10.043 10.076l3.966.007c2.161 6.182 5.433 11.843 9.582 16.744-11.956 2.389-22.95 8.236-31.777 17.048-11.829 11.809-18.343 27.518-18.343 44.232v17.103l-40.29 26.266c-8.892 5.795-14.2 15.593-14.2 26.207v69.46c0 23.043 18.746 41.789 41.788 41.789h19.88c2.685 5.093 6.048 9.775 9.975 13.918-5.899 9.999-9.299 21.64-9.299 34.066 0 37.091 30.175 67.266 67.266 67.266 37.09 0 67.266-30.175 67.266-67.266 0-4.988-.563-9.846-1.598-14.527h110.164c-1.035 4.682-1.598 9.539-1.598 14.527 0 37.091 30.175 67.266 67.266 67.266s67.266-30.175 67.266-67.266c0-10.573-2.459-20.579-6.824-29.49 13.453-11.467 22.007-28.515 22.007-47.54v-15.749h15.855v18.873c0 5.555 4.504 10.059 10.059 10.059s10.059-4.504 10.059-10.059v-18.873h12.408c5.555 0 10.059-4.504 10.059-10.059.001-5.554-4.503-10.058-10.058-10.058zm-260.438-178.498c-11.643 0-21.884-6.089-27.727-15.244l55.396.091c-5.853 9.103-16.065 15.153-27.669 15.153zm-41.344.221-13.735-.023c2.721-3.396 5.03-7.132 6.859-11.134 1.832 4.011 4.147 7.755 6.876 11.157zm41.344-65.976c17.326 0 31.554 13.473 32.782 30.492l-65.555-.107c1.279-16.968 15.484-30.385 32.773-30.385zm-96.44 0c17.272 0 31.466 13.391 32.769 30.334l-65.53-.107c1.355-16.893 15.525-30.227 32.761-30.227zm27.77 50.443c-5.836 9.192-16.099 15.311-27.77 15.311-11.71 0-22.002-6.159-27.828-15.402zm-131.045 238.604c-11.949 0-21.671-9.722-21.671-21.672v-69.46c0-3.789 1.894-7.286 5.068-9.354l29.307-19.103v110.661c0 3.031.222 6.011.641 8.927h-13.345zm87.823 115.251c-25.998 0-47.149-21.151-47.149-47.149s21.151-47.149 47.149-47.149 47.148 21.151 47.148 47.149-21.151 47.149-47.148 47.149zm0-114.415c-17.336 0-33.16 6.595-45.1 17.404-6.171-7.361-9.901-16.833-9.901-27.168v-28.196h109.427l75.702 70.58h-72.494c-11.785-19.53-33.208-32.62-57.634-32.62zm241.501 114.415c-25.998 0-47.149-21.151-47.149-47.149s21.151-47.149 47.149-47.149 47.149 21.151 47.149 47.149-21.151 47.149-47.149 47.149zm48.888-93.279c-12.272-13-29.643-21.136-48.888-21.136-24.427 0-45.85 13.09-57.634 32.621h-24.238l-94.382-87.997c-1.862-1.736-4.313-2.701-6.859-2.701h-113.389v-103.465c0-11.335 4.417-21.987 12.439-29.995 8.004-7.991 18.634-12.389 29.942-12.389h.072l213.863.35c15.148.025 29.225 8.21 36.736 21.363l60.201 105.41c2.495 4.367 4.164 9.15 4.985 14.087h-14.528c-13.531 0-24.539 11.008-24.539 24.539s11.008 24.539 24.539 24.539h15.123v3.874c0 12.185-5.181 23.166-13.443 30.9zm13.443-46.844h-15.123c-6.875 0-12.468-5.593-12.468-12.468s5.593-12.468 12.468-12.468h15.123zm20.118-19.922v-10.153c0-10.854-2.845-21.573-8.228-30.997l-60.201-105.409c-11.078-19.397-31.836-31.468-54.172-31.505l-48.219-.079c3.708-4.592 6.666-9.81 8.687-15.473l54.102.088c18.706.03 36.089 10.139 45.365 26.382l71.632 125.421c4.508 7.894 6.891 16.87 6.891 25.958v15.766h-15.857z"/><path d="m198.464 197.413h-68.07c-13.141 0-23.832 10.69-23.832 23.832v44.507c0 13.141 10.691 23.833 23.832 23.833h68.07c13.141 0 23.832-10.691 23.832-23.833v-44.507c0-13.142-10.691-23.832-23.832-23.832zm11.761 68.339c0 6.485-5.276 11.762-11.761 11.762h-68.07c-6.485 0-11.762-5.277-11.762-11.762v-44.507c0-6.485 5.276-11.761 11.762-11.761h68.07c6.485 0 11.761 5.276 11.761 11.761z"/><path d="m339.888 319.966c-3.333 0-6.035 2.702-6.035 6.035v12.181c0 3.333 2.702 6.035 6.035 6.035s6.035-2.702 6.035-6.035v-12.181c.001-3.333-2.702-6.035-6.035-6.035z"/><path d="m301.087 338.182c-3.333 0-6.035 2.702-6.035 6.035v12.181c0 3.333 2.702 6.035 6.035 6.035s6.035-2.702 6.035-6.035v-12.181c.001-3.333-2.702-6.035-6.035-6.035z"/></g><g><path d="m467.655 61.942-8.263 23.233c-.354.995-1.054 1.783-1.938 2.181l-20.642 9.3c-2.916 1.314-2.916 5.96 0 7.274l20.642 9.3c.884.398 1.584 1.187 1.938 2.181l8.263 23.233c1.167 3.282 5.296 3.282 6.463 0l8.263-23.233c.354-.995 1.054-1.783 1.938-2.181l20.642-9.3c2.916-1.314 2.916-5.96 0-7.274l-20.642-9.3c-.884-.398-1.584-1.187-1.938-2.181l-8.263-23.233c-1.167-3.283-5.295-3.283-6.463 0z" fill="#96e6f0"/><path d="m363.686 7.319-6.129 17.234c-.262.738-.782 1.323-1.438 1.618l-15.312 6.898c-2.163.975-2.163 4.421 0 5.396l15.312 6.899c.655.295 1.175.88 1.438 1.618l6.129 17.234c.866 2.435 3.928 2.435 4.794 0l6.129-17.234c.262-.738.782-1.323 1.438-1.618l15.312-6.899c2.163-.975 2.163-4.421 0-5.396l-15.312-6.898c-.656-.295-1.175-.88-1.438-1.618l-6.129-17.234c-.866-2.434-3.928-2.434-4.794 0z" fill="#96e6f0"/><g fill="#74b5f0"><ellipse cx="42.744" cy="65.873" rx="18.042" ry="18.042" transform="matrix(.982 -.189 .189 .982 -11.686 9.272)"/><circle cx="115.019" cy="27.985" r="7.783"/></g></g></g></svg>