<svg id="Capa_1" enable-background="new 0 0 512 512" height="512" viewBox="0 0 512 512" width="512" xmlns="http://www.w3.org/2000/svg"><g><g><path d="m397.051 501.878v-32.949c0-67.311-54.566-121.878-121.877-121.878-67.311 0-121.878 54.566-121.878 121.878v32.949z" fill="#e59b8c"/><path d="m356.529 501.878v-31.132c0-44.931-36.424-81.356-81.355-81.356-44.931 0-81.355 36.424-81.355 81.356v31.132z" fill="#fff"/><path d="m283.639 389.818c23.531 10.584 40.084 35.703 40.084 65.017v7.053c0 10.979-8.9 19.88-19.88 19.88h-110.097v20.091h162.711v-31.132c0-42.049-31.9-76.64-72.818-80.909z" fill="#ffc0fe"/><g fill="#e59b8c"><path d="m310.172 401.337c1.276 3.744 1.969 7.758 1.969 11.935 0 20.416-16.551 36.967-36.967 36.967s-36.967-16.551-36.967-36.967c0-4.014.64-7.879 1.823-11.498"/><ellipse cx="452.243" cy="298.555" rx="40.361" ry="40.361" transform="matrix(.707 -.707 .707 .707 -78.652 407.229)"/><ellipse cx="98.104" cy="298.555" rx="40.361" ry="40.362" transform="matrix(.178 -.984 .984 .178 -213.165 341.815)"/><path d="m309.567 398.301h-68.787c-85.477 0-154.77-69.293-154.77-154.77 0-85.477 69.293-154.77 154.77-154.77h68.787c85.477 0 154.77 69.293 154.77 154.77 0 85.477-69.293 154.77-154.77 154.77z"/></g><path d="m309.567 88.669h-19.847c69.297 0 125.474 56.176 125.474 125.474v10.656c0 69.297-56.177 125.474-125.474 125.474h-78.236c-66.315 0-120.608-51.448-125.158-116.607-.201 3.233-.316 6.489-.316 9.773v.001c0 85.477 69.293 154.77 154.77 154.77h68.787c85.477 0 154.77-69.293 154.77-154.77v-.001c0-85.478-69.293-154.77-154.77-154.77z" fill="#df768f"/><path d="m38.975 225.525c-12.683-1.996-21.347-13.896-19.351-26.58 15.94-101.288 111.312-170.723 212.6-154.783l71.435 11.242c12.683 1.996 21.348 13.896 19.351 26.58-1.996 12.683-13.896 21.347-26.58 19.351l-71.435-11.242c-75.961-11.954-147.486 40.119-159.44 116.081-1.996 12.683-13.896 21.347-26.58 19.351z" fill="#fd8abe"/><path d="m72.664 231.863c-12.496-2.95-20.234-15.472-17.284-27.968 23.562-99.792 123.916-161.809 223.707-138.247l70.379 16.617c12.496 2.95 20.234 15.472 17.284 27.968s-15.472 20.234-27.968 17.284l-70.379-16.617c-74.839-17.67-150.1 28.84-167.77 103.679-2.951 12.496-15.473 20.234-27.969 17.284z" fill="#fde15c"/><path d="m103.575 288.227c-12.807-.911-22.451-12.032-21.541-24.839 7.272-102.277 96.397-179.568 198.673-172.295l72.132 5.129c12.807.911 22.451 12.032 21.541 24.839-.911 12.807-12.031 22.451-24.839 21.541l-72.132-5.129c-76.703-5.454-143.542 52.511-148.996 129.214-.911 12.806-12.031 22.451-24.838 21.54z" fill="#ab82e4"/><path d="m384.114 166.602c-10.756-3.798-16.397-15.596-12.599-26.352l9.378-26.558c3.798-10.756 15.596-16.396 26.352-12.598 10.756 3.798 16.396 15.596 12.598 26.352l-9.378 26.558c-3.797 10.756-15.595 16.396-26.351 12.598z" fill="#00e9c2"/><path d="m429.586 261.88c-8.646-7.44-9.624-20.481-2.184-29.127l18.371-21.349c7.44-8.646 20.481-9.624 29.127-2.184 8.646 7.44 9.624 20.481 2.184 29.127l-18.371 21.349c-7.44 8.646-20.481 9.624-29.127 2.184z" fill="#fde15c"/><path d="m414.963 200.265c-9.06-6.931-10.786-19.894-3.855-28.953l17.113-22.371c6.931-9.06 19.893-10.786 28.953-3.855 9.06 6.931 10.786 19.894 3.855 28.954l-17.113 22.37c-6.93 9.06-19.893 10.786-28.953 3.855z" fill="#fd8abe"/><path d="m300.82 382.987c0 15.23-18.161 29.338-25.647 29.338s-25.647-14.108-25.647-29.338 11.482-25.815 25.647-25.815c14.165-.001 25.647 10.585 25.647 25.815z" fill="#ab82e4"/></g><g fill="#4e0325"><path d="m476.644 254.375 8.112-9.427c5.362-6.231 7.977-14.177 7.362-22.374-.614-8.198-4.385-15.666-10.615-21.026-6.232-5.364-14.178-7.988-22.375-7.363-.278.021-.554.054-.83.083l10.771-14.08c10.309-13.478 7.733-32.831-5.745-43.141-10.692-8.178-25.077-8.239-35.715-1.192l1.779-5.039c2.737-7.751 2.292-16.106-1.254-23.522-3.546-7.417-9.768-13.009-17.518-15.746-7.754-2.737-16.106-2.292-23.522 1.254-3.493 1.669-6.574 3.94-9.15 6.677-.368-.492-.75-.976-1.147-1.451-.786-3.732-2.221-7.339-4.286-10.68-4.686-7.583-12.044-12.887-20.719-14.935l-20.161-4.76c-3.871-11.355-13.745-20.256-26.398-22.248l-71.436-11.243c-106.799-16.8-207.363 56.408-224.171 163.209-1.387 8.805.739 17.623 5.986 24.828 5.247 7.207 12.984 11.938 21.789 13.324 1.757.276 3.515.413 5.259.413 4.287-.001 8.489-.853 12.431-2.464 4.133 3.921 9.315 6.84 15.247 8.24 1.367.323 2.736.55 4.099.697-.73 4.146-1.32 8.341-1.787 12.579-14.958 8.77-25.03 25.009-25.03 43.566 0 27.836 22.647 50.483 50.483 50.483 4.984 0 9.794-.743 14.343-2.098 15.062 18.659 34.103 33.973 55.82 44.653-15.777 21.749-25.093 48.474-25.093 77.336v32.949c0 5.589 4.532 10.121 10.122 10.121s10.122-4.532 10.122-10.121v-32.949c0-26.169 9.05-50.257 24.173-69.32 9.106 3.112 18.565 5.455 28.305 6.936-17.299 15.983-28.15 38.847-28.15 64.201v34.934c0 3.354 2.719 6.073 6.073 6.073s6.073-2.719 6.073-6.073v-34.934c0-25.613 12.869-48.259 32.472-61.858-.147 1.452-.229 2.914-.229 4.384 0 23.732 19.307 43.039 43.039 43.039s43.04-19.307 43.04-43.039c0-1.471-.083-2.933-.23-4.385 19.603 13.599 32.473 36.246 32.473 61.859v34.934c0 3.354 2.719 6.073 6.073 6.073s6.073-2.719 6.073-6.073v-34.934c0-25.352-10.85-48.216-28.148-64.199 9.743-1.481 19.206-3.825 28.315-6.939 15.119 19.064 24.16 43.156 24.16 69.321v32.949c0 5.589 4.532 10.121 10.121 10.121s10.121-4.532 10.121-10.121v-32.949c0-28.863-9.322-55.585-25.101-77.333 21.72-10.681 40.762-25.999 55.826-44.66 4.551 1.355 9.36 2.102 14.346 2.102 27.836 0 50.483-22.647 50.483-50.483.001-18.99-10.542-35.563-26.081-44.179zm-16.002-40.004c.269-.02.537-.03.804-.03 2.518 0 4.925.891 6.854 2.55 2.133 1.835 3.423 4.391 3.633 7.196s-.685 5.524-2.52 7.657l-18.371 21.349c-1.835 2.133-4.391 3.423-7.196 3.633-2.802.211-5.524-.685-7.656-2.519-.001-.001-.001-.001-.001-.001-2.133-1.835-3.423-4.391-3.633-7.196-.211-2.805.685-5.524 2.52-7.657l18.372-21.349c1.832-2.132 4.388-3.422 7.194-3.633zm-16.005-63.408c2.232 0 4.482.705 6.387 2.163 4.613 3.529 5.495 10.152 1.967 14.764l-17.114 22.37c-1.71 2.235-4.187 3.67-6.975 4.042-2.789.376-5.555-.366-7.789-2.075-4.613-3.529-5.495-10.153-1.967-14.765l17.114-22.37c2.071-2.708 5.207-4.129 8.377-4.129zm-54.2-33.901c1.933-5.478 7.966-8.357 13.439-6.425 2.653.936 4.782 2.85 5.995 5.388 1.214 2.538 1.366 5.397.429 8.05l-9.378 26.559c-.936 2.652-2.85 4.781-5.388 5.995s-5.398 1.366-8.05.429c-5.476-1.933-8.358-7.962-6.425-13.438zm-286.145 161.069c-3.497-.249-6.689-1.844-8.986-4.493s-3.425-6.034-3.177-9.531c3.326-46.769 24.722-89.492 60.246-120.3 32.305-28.015 72.702-43.068 114.931-43.068 4.209 0 8.444.149 12.684.451l72.132 5.129c3.497.249 6.689 1.844 8.986 4.493s3.425 6.034 3.177 9.532c-.249 3.497-1.844 6.689-4.493 8.986-2.648 2.297-6.028 3.432-9.531 3.177l-72.133-5.129c-39.787-2.823-78.348 10.044-108.565 36.248-30.215 26.204-48.414 62.551-51.244 102.344-.249 3.497-1.844 6.689-4.493 8.986-2.651 2.297-6.035 3.432-9.534 3.175zm-63.744-62.604s0 0 0-.001c-3.463-.545-6.507-2.406-8.571-5.241-2.064-2.834-2.9-6.303-2.355-9.767 13.622-86.555 88.588-148.511 173.59-148.511 2.618 0 5.246.066 7.882.185-78.497 10.287-146.322 67.877-165.565 149.377-1.107 4.691-1.152 9.386-.306 13.842-1.52.312-3.096.364-4.675.116zm34.442 6.485c-7.045-1.663-11.422-8.748-9.76-15.792 19.086-80.831 91.446-135.447 171.12-135.447 13.335 0 26.883 1.531 40.412 4.726l31.316 7.394-26.653-1.895c-93.916-6.665-177.285 54.26-202.333 141.317-1.358.11-2.738.018-4.102-.303zm23.114 106.783c-16.675 0-30.24-13.565-30.24-30.24 0-7.397 2.675-14.175 7.101-19.435 1.299 2.779 2.984 5.398 5.049 7.78.754.869 1.547 1.691 2.373 2.47 4.051 13.976 9.903 27.194 17.291 39.382-.522.027-1.046.043-1.574.043zm177.069 77.457c-4.256-.033-19.573-11.621-19.573-23.265 0-11.44 8.232-19.743 19.573-19.743 11.342 0 19.574 8.303 19.574 19.743 0 11.645-15.317 23.233-19.574 23.265zm0 37.913c-17.035 0-30.893-13.859-30.893-30.893 0-1.634.128-3.254.379-4.849h11.381c5.031 4.761 12.752 9.975 19.134 9.975 5.058 0 12.652-3.851 19.143-9.975h11.365c.251 1.596.386 3.214.386 4.849 0 17.034-13.859 30.893-30.895 30.893zm34.394-55.986h-3.195c.338-1.701.522-3.436.522-5.192 0-18.179-13.636-31.889-31.72-31.889-18.082 0-31.719 13.71-31.719 31.889 0 1.794.204 3.523.535 5.192h-3.21c-60.36 0-112.193-37.169-133.84-89.816 16.585-.843 30.362-13.983 31.569-30.96 5.058-71.137 67.05-124.88 138.183-119.836l72.133 5.129c4.01.285 7.96-.148 11.709-1.24 1.58 10.979 9.046 20.746 20.209 24.689h.001c3.377 1.192 6.825 1.757 10.218 1.757 2.209 0 4.39-.254 6.516-.717-2.499 11.329 1.53 23.616 11.335 31.117 5.569 4.26 12.14 6.32 18.663 6.32.752 0 1.502-.038 2.252-.092l-9.998 11.618c-5.361 6.231-7.976 14.178-7.361 22.375.614 8.197 4.385 15.664 10.615 21.025 5.634 4.849 12.67 7.452 20.027 7.452.78 0 1.563-.03 2.348-.089 1.755-.132 3.472-.416 5.146-.829-14.808 64.135-72.37 112.097-140.938 112.097zm142.676-59.384c-.528 0-1.046-.04-1.568-.067 9.839-16.239 16.957-34.299 20.715-53.551 6.765 5.55 11.093 13.966 11.093 23.378 0 16.675-13.565 30.24-30.24 30.24z"/><path d="m182.837 290.157c-9.543 0-17.278 7.736-17.278 17.278s7.735 17.278 17.278 17.278c9.542 0 17.278-7.736 17.278-17.278s-7.736-17.278-17.278-17.278z"/><ellipse cx="367.51" cy="307.435" rx="17.278" ry="17.278" transform="matrix(.383 -.924 .924 .383 -57.163 529.32)"/><path d="m292.452 303.328c-3.354 0-6.073 2.719-6.073 6.073 0 6.179-5.027 11.205-11.206 11.205s-11.205-5.026-11.205-11.205c0-3.354-2.719-6.073-6.073-6.073s-6.073 2.719-6.073 6.073c0 12.875 10.475 23.351 23.351 23.351s23.352-10.475 23.352-23.351c0-3.354-2.719-6.073-6.073-6.073z"/><path d="m380.117 244.08c-.893-.11-8.962-.984-17.638 2.173s-14.296 9.014-14.908 9.672c-2.277 2.446-2.14 6.264.296 8.553 1.169 1.099 2.662 1.643 4.152 1.643 1.614 0 3.226-.638 4.422-1.899.042-.044 4.194-4.373 10.192-6.555 5.944-2.162 11.851-1.547 12.018-1.528 3.312.395 6.338-1.964 6.748-5.285.411-3.331-1.954-6.362-5.282-6.774z"/><path d="m185.542 246.253c-8.676-3.159-16.745-2.283-17.639-2.174-3.317.41-5.666 3.423-5.27 6.743.394 3.319 3.41 5.691 6.733 5.315.058-.007 6.025-.654 12.021 1.529 5.998 2.183 10.151 6.512 10.174 6.535 1.196 1.285 2.818 1.934 4.445 1.934 1.483 0 2.968-.54 4.138-1.629 2.454-2.285 2.592-6.128.305-8.583-.611-.656-6.231-6.514-14.907-9.67z"/></g><g><path d="m463.834 2.477-8.314 23.378c-.356 1.001-1.061 1.794-1.95 2.195l-20.771 9.358c-2.935 1.322-2.935 5.998 0 7.32l20.771 9.358c.889.401 1.594 1.194 1.95 2.195l8.314 23.378c1.175 3.303 5.329 3.303 6.503 0l8.314-23.378c.356-1.001 1.061-1.794 1.95-2.195l20.771-9.358c2.934-1.322 2.934-5.997 0-7.32l-20.771-9.358c-.889-.401-1.594-1.194-1.95-2.195l-8.314-23.378c-1.174-3.303-5.328-3.303-6.503 0z" fill="#fdc3db"/><path d="m33.081 6.099-6.168 17.341c-.264.743-.787 1.331-1.447 1.628l-15.407 6.942c-2.177.981-2.177 4.449 0 5.43l15.407 6.942c.66.297 1.182.886 1.447 1.628l6.167 17.342c.871 2.45 3.952 2.45 4.824 0l6.167-17.342c.264-.742.787-1.331 1.447-1.628l15.407-6.942c2.177-.981 2.177-4.449 0-5.43l-15.407-6.941c-.66-.297-1.182-.886-1.447-1.628l-6.167-17.342c-.871-2.45-3.952-2.45-4.823 0z" fill="#fdc3db"/><g fill="#fd8abe"><ellipse cx="365.694" cy="30.464" rx="18.155" ry="18.155" transform="matrix(.997 -.083 .083 .997 -1.267 30.266)"/><path d="m483.693 111.39c0 4.325 3.506 7.831 7.831 7.831s7.831-3.506 7.831-7.831-3.506-7.832-7.831-7.832-7.831 3.506-7.831 7.832z"/></g></g></g></svg>