<svg id="Capa_1" enable-background="new 0 0 512 512" height="512" viewBox="0 0 512 512" width="512" xmlns="http://www.w3.org/2000/svg"><g><g><path d="m382.563 501.809v-35.464c0-72.447-58.73-131.177-131.177-131.177-72.447 0-131.177 58.73-131.177 131.177v35.464z" fill="#e59b8c"/><path d="m338.949 501.809v-33.508c0-48.36-39.203-87.564-87.563-87.564-48.36 0-87.563 39.204-87.563 87.564v33.508z" fill="#ab82e4"/><path d="m260.574 381.22c25.327 11.391 43.143 38.427 43.143 69.978v7.591c0 11.817-9.579 21.396-21.396 21.396h-118.499v21.624h175.127v-33.508c0-45.256-34.335-82.488-78.375-87.081z" fill="#a862e6"/><g fill="#e59b8c"><circle cx="441.966" cy="282.971" r="43.441"/><circle cx="60.804" cy="282.971" r="43.441"/><path d="m288.403 390.328h-74.036c-92 0-166.58-74.58-166.58-166.58 0-92 74.58-166.58 166.58-166.58h74.036c92 0 166.58 74.58 166.58 166.58 0 92-74.58 166.58-166.58 166.58z"/></g><path d="m288.403 57.069h-21.361c74.585 0 135.048 60.463 135.048 135.048v11.469c0 74.585-60.463 135.048-135.048 135.048h-84.206c-71.376 0-129.811-55.374-134.708-125.504-.217 3.479-.34 6.984-.34 10.519v.001c0 91.999 74.58 166.58 166.58 166.58h74.036c92 0 166.58-74.581 166.58-166.58v-.001c-.001-92-74.581-166.58-166.581-166.58z" fill="#df768f"/><path d="m157.97 151.148s118.815 43.402 153.409 38.25c52.173-7.768 52.204-39.447 69.175-39.447 20.585 0 40.506 84.266 39.473 110.687-1.034 26.421 23.963 15.794 31.499 0s21.569-60.421 14.157-92.971c-7.412-32.551 7.925-44.935 3.958-65.296-3.801-19.51-38.614-31.042-47.547-41.379-8.933-10.336-11.74-41.965-49.785-50.614-11.434-2.6-66.503 19.628-113.73 10.8-60.04-11.223-124.901 5.112-157.659 26.765-24.047 15.895-26.645 32.252-31.527 51.04-2.651 10.201-25.571-1.375-34.903 32.583-8.445 30.728 12.225 35.829 12.45 43.194 1.799 58.917 1.333 110.134 18.293 112.845 16.96 2.712 19.898-95.64 42.572-113.211 29.406-22.788 50.165-23.246 50.165-23.246z" fill="#00e9c2"/><path d="m421.363 253.667-.046-.457c-5.745-22.821-25.932-38.779-49.055-38.779h-238.612c-21.119 0-39.782 13.316-47.236 33.01v68.513c0 27.451 21.841 49.705 48.782 49.705h66.823c12.764-1.958 24.24-9.372 31.372-20.593l8.085-12.72c5.391-8.481 17.571-8.481 22.961 0l8.085 12.72c8.374 13.175 22.73 21.129 38.135 21.129l61.882.054c26.958.024 45.091-23.777 45.091-51.245z" fill="#74b5f0"/><path d="m336.38 312.457h-33.36c-5.735 0-10.384-4.649-10.384-10.384v-74.948c0-5.735 4.649-10.384 10.384-10.384h33.36c5.735 0 10.384 4.649 10.384 10.384v74.948c0 5.735-4.649 10.384-10.384 10.384z" fill="#fde15c"/><path d="m344.636 262.068h75.915l-6.167-18.919c-5.509-16.9-24.864-28.717-47.035-28.717h-47.649v28.013c0 10.837 11.165 19.623 24.936 19.623z" fill="#96e6f0"/><path d="m184.471 214.431h-45.907c-22.17 0-41.526 11.817-47.035 28.717l-6.167 18.919h74.173c13.772 0 24.936-8.786 24.936-19.623z" fill="#96e6f0"/><path d="m159.943 319.933h-37.718c-4.641 0-8.403-3.762-8.403-8.403v-17.546c0-4.641 3.762-8.403 8.403-8.403h37.718c4.641 0 8.403 3.762 8.403 8.403v17.546c0 4.641-3.762 8.403-8.403 8.403z" fill="#fde15c"/></g><g><g fill="#4e0325"><path d="m470.512 237.629c5.839-20.784 10.482-48.506 5.083-72.219-3.652-16.04-.985-26.306 1.594-36.234 2.256-8.685 4.589-17.666 2.43-28.748-3.338-17.136-21.371-27.916-35.86-36.578-5.586-3.34-11.918-7.125-13.974-9.504-1.378-1.595-3.161-5.437-4.884-9.152-6.456-13.916-17.262-37.208-50.338-44.728-5.861-1.333-13.633.279-29.262 3.758-22.197 4.939-55.741 12.404-84.854 6.963-62.62-11.707-130.471 5.364-165.134 28.276-25.603 16.923-30.253 35.27-34.75 53.013-.145.571-.29 1.145-.437 1.721-.692.194-1.498.397-2.173.567-8.972 2.263-25.672 6.475-33.267 34.109-7.445 27.094 4.248 39.492 10.53 46.153.514.544 1.149 1.218 1.614 1.748.156 5.232.296 10.399.434 15.473.416 15.352.797 29.395 1.506 41.883-18.597 8.419-31.573 27.135-31.573 48.842 0 29.56 24.048 53.608 53.608 53.608 5.463 0 10.733-.828 15.7-2.358 1.493 1.859 3.026 3.686 4.591 5.483 7.341 17.183 22.39 30.198 40.691 34.54 5.049 3.118 10.265 5.99 15.632 8.597-17.202 23.412-27.378 52.29-27.378 83.504v35.464c0 5.615 4.551 10.166 10.166 10.166s10.166-4.552 10.166-10.166v-35.464c0-28.516 9.924-54.75 26.488-75.455 10.266 3.542 20.96 6.157 31.977 7.758-19.09 17.158-31.117 42.025-31.117 69.653v37.598c0 3.369 2.731 6.1 6.1 6.1s6.1-2.731 6.1-6.1v-37.599c0-28.382 14.603-53.396 36.676-67.981 2.576.112 5.165.174 7.769.174h74.036c2.604 0 5.194-.061 7.77-.173 22.073 14.585 36.675 39.599 36.675 67.98v37.599c0 3.369 2.731 6.1 6.1 6.1s6.1-2.731 6.1-6.1v-37.599c0-27.627-12.027-52.493-31.115-69.651 11.016-1.602 21.702-4.228 31.966-7.771 16.569 20.706 26.497 46.945 26.497 75.466v35.464c0 5.615 4.551 10.166 10.166 10.166s10.166-4.552 10.166-10.166v-35.464c0-31.218-10.184-60.096-27.39-83.509 4.252-2.066 8.411-4.295 12.466-6.683 13.689-1.322 26.029-7.823 35.164-18.667 5.141-6.102 9.027-13.29 11.534-21.121.589-.711 1.177-1.423 1.755-2.143 4.97 1.527 10.243 2.356 15.708 2.356 29.56 0 53.608-24.048 53.608-53.608.002-19.071-10.016-35.838-25.06-45.341zm-395.511 57.037c.432-.341.846-.704 1.247-1.084v3.454c-.42-.788-.84-1.575-1.247-2.37zm21.579-45.258c6.386-14.911 21.067-24.811 37.07-24.811h47.076v17.027c0 7.679-9 14.166-19.653 14.166h-64.493zm37.07-45.143c-12.017 0-23.524 3.689-33.235 10.144 3.812-14.59 8.393-27.931 13.617-31.979 21.434-16.61 37.624-20.19 42.65-20.934 18.466 6.673 108.539 38.462 148.489 38.458 2.833 0 5.42-.16 7.706-.5 36.06-5.37 50.192-21.486 59.543-32.15 3.632-4.141 6.033-6.793 7.755-7.146 2.611 1.514 10.828 11.604 19.582 41.844 1.021 3.526 1.957 7.033 2.825 10.49-8.995-5.258-19.377-8.228-30.318-8.228h-238.614zm165.086 22.86c0-.953.335-1.817.866-2.527h13.386v17.027c0 13.366 12.081 24.433 27.677 26.132v34.316c0 2.362-1.922 4.285-4.284 4.285h-33.36c-2.362 0-4.284-1.922-4.284-4.285v-74.948zm46.104 28.666c-10.653 0-19.652-6.488-19.652-14.166v-17.027h47.076c18.053 0 33.86 12.218 38.867 29.867l-.081 1.327h-66.21zm84.391 35.955.297-4.883c.66.015 1.321.007 1.984-.037-.732 1.655-1.493 3.296-2.281 4.92zm-384.939-157.485c4.453-16.205 11.341-17.943 18.634-19.782 5.18-1.307 13.852-3.494 16.306-12.938.355-1.369.7-2.725 1.04-4.069 4.189-16.524 7.215-28.463 26.253-41.047 24.185-15.986 66.553-28.767 111.04-28.767 13 0 26.186 1.092 39.146 3.514 33.202 6.207 69.192-1.801 93.006-7.101 7.913-1.76 17.733-3.941 20.523-3.736 23.194 5.343 30.111 20.255 36.217 33.416 2.524 5.441 4.704 10.14 7.944 13.89 4.197 4.856 11.022 8.936 18.925 13.661 10.438 6.24 24.733 14.786 26.336 23.015 1.276 6.551-.237 12.375-2.152 19.748-2.893 11.134-6.492 24.99-1.74 45.86 6.713 29.483-6.405 71.635-13.42 86.337-2.874 6.023-8.896 9.708-11.581 10.226l.743-12.202c.033-.546.022-1.095-.033-1.639l-.046-.457c-.05-.492-.135-.98-.256-1.46-.523-2.076-1.157-4.098-1.873-6.074-3.502-30.704-16.582-80.246-32.875-97.189-4.901-5.096-10.241-7.68-15.874-7.68-11.047 0-17.339 7.175-23.423 14.114-8.272 9.433-18.565 21.173-47.249 25.444-26.274 3.914-116.049-25.919-148.425-37.744-1.188-.434-2.461-.639-3.712-.615-2.468.055-25.01 1.229-56.168 25.374-14.481 11.22-21.078 41.906-27.458 71.582-2.463 11.454-5.909 27.483-9.082 35.813-1.38-3.493-3.098-9.912-4.42-21.597-1.83-16.171-2.413-37.685-3.03-60.461-.153-5.646-.309-11.408-.487-17.246-.185-6.049-4.015-10.111-7.093-13.374-4.981-5.283-10.133-10.745-5.716-26.816zm16.512 181.985c-18.348 0-33.275-14.927-33.275-33.275 0-10.788 5.175-20.373 13.157-26.455 1.734 13.858 4.481 24.641 9.126 31.718 3.831 9.742 8.507 19.061 13.93 27.874-.968.086-1.947.138-2.938.138zm116.991 59.579h24.224c.516 0 1.032-.039 1.541-.118 15.775-2.419 29.775-11.6 38.411-25.189l8.084-12.72c.911-1.434 2.209-1.649 2.901-1.649.692.001 1.989.215 2.9 1.648l8.085 12.721c10.285 16.182 27.749 25.842 46.706 25.842l12.004.01c-11.027 2.474-22.486 3.79-34.249 3.79h-74.036c-12.592.002-24.836-1.506-36.571-4.335zm194.785-19.741c-.01 0-.021 0-.031 0l-61.891-.054c-11.973 0-23.022-6.137-29.555-16.416l-8.084-12.72c-4.407-6.934-11.906-11.074-20.061-11.075-8.154 0-15.654 4.141-20.061 11.075l-8.084 12.72c-5.358 8.43-13.935 14.187-23.618 15.88h-65.998c-21.293 0-38.616-17.737-38.616-39.539v-47.964h64.494c17.564 0 31.853-11.828 31.853-26.366v-17.027h93.809c-.129.824-.199 1.667-.199 2.527v74.948c0 9.089 7.395 16.484 16.484 16.484h33.36c9.089 0 16.484-7.395 16.484-16.484v-34.082h57.443l-2.823 46.396c-.013.206-.019.411-.019.617 0 11.258-3.568 21.693-10.045 29.381-4.5 5.339-12.457 11.699-24.842 11.699zm69.386-39.838c-.992 0-1.972-.049-2.942-.135 9.315-15.137 16.412-31.777 20.839-49.466.293-.54.577-1.083.837-1.629.868-1.82 1.918-4.246 3.062-7.149 7.024 6.104 11.479 15.089 11.479 25.103 0 18.349-14.927 33.276-33.275 33.276z"/><path d="m159.943 279.482h-37.718c-7.996 0-14.502 6.506-14.502 14.502v17.546c0 7.997 6.506 14.503 14.502 14.503h37.718c7.997 0 14.503-6.506 14.503-14.503v-17.546c0-7.996-6.506-14.502-14.503-14.502zm2.303 32.048c0 1.27-1.033 2.303-2.303 2.303h-37.718c-1.27 0-2.303-1.033-2.303-2.303v-17.546c0-1.27 1.033-2.303 2.303-2.303h37.718c1.27 0 2.303 1.033 2.303 2.303z"/><path d="m210.984 301.604h-21.915c-3.369 0-6.1 2.731-6.1 6.1s2.731 6.1 6.1 6.1h21.915c3.369 0 6.1-2.731 6.1-6.1s-2.731-6.1-6.1-6.1z"/><path d="m210.984 323.232h-21.915c-3.369 0-6.1 2.731-6.1 6.1s2.731 6.1 6.1 6.1h21.915c3.369 0 6.1-2.731 6.1-6.1s-2.731-6.1-6.1-6.1z"/><path d="m382.102 318.649h-26.154c-3.369 0-6.1 2.731-6.1 6.1s2.731 6.1 6.1 6.1h26.154c3.368 0 6.1-2.731 6.1-6.1s-2.731-6.1-6.1-6.1z"/><path d="m335.333 135.535c3.369 0 6.1-2.731 6.1-6.1v-15.405c0-3.368-2.731-6.1-6.1-6.1-3.368 0-6.1 2.731-6.1 6.1v15.405c0 3.369 2.732 6.1 6.1 6.1z"/><path d="m298.736 148.913c3.369 0 6.1-2.731 6.1-6.1v-15.405c0-3.369-2.731-6.1-6.1-6.1-3.368 0-6.1 2.731-6.1 6.1v15.405c0 3.369 2.732 6.1 6.1 6.1z"/></g><path d="m241.857 83.859c-.521 0-1.048-.04-1.579-.123-4.231-.66-8.475-1.195-12.613-1.591-5.589-.534-9.687-5.498-9.153-11.087.535-5.589 5.5-9.684 11.088-9.153 4.538.434 9.185 1.02 13.812 1.742 5.548.866 9.343 6.064 8.478 11.612-.784 5.016-5.11 8.6-10.033 8.6z" fill="#fff"/><path d="m118.639 114.658c-2.69 0-5.374-1.061-7.373-3.165-3.866-4.071-3.701-10.506.37-14.373 16.788-15.945 38.399-27.192 62.496-32.525 5.483-1.217 10.909 2.248 12.123 7.729 1.213 5.482-2.247 10.909-7.729 12.122-20.489 4.535-38.777 14.014-52.886 27.416-1.968 1.869-4.487 2.796-7.001 2.796z" fill="#fff"/></g><g><path d="m467.041 381.287-8.351 23.482c-.358 1.005-1.065 1.802-1.959 2.204l-20.862 9.399c-2.947 1.328-2.947 6.024 0 7.352l20.862 9.399c.893.402 1.601 1.199 1.959 2.204l8.351 23.482c1.18 3.318 5.352 3.318 6.532 0l8.351-23.482c.358-1.005 1.065-1.802 1.959-2.204l20.862-9.399c2.947-1.328 2.947-6.024 0-7.352l-20.862-9.399c-.893-.402-1.601-1.199-1.959-2.204l-8.351-23.482c-1.18-3.318-5.352-3.318-6.532 0z" fill="#a0f2e1"/><path d="m55.908 432.545-6.195 17.418c-.265.746-.79 1.337-1.453 1.635l-15.476 6.972c-2.186.985-2.186 4.469 0 5.454l15.476 6.972c.662.298 1.188.889 1.453 1.635l6.195 17.418c.875 2.461 3.97 2.461 4.845 0l6.195-17.418c.265-.746.79-1.337 1.453-1.635l15.475-6.972c2.186-.985 2.186-4.468 0-5.454l-15.475-6.972c-.663-.299-1.188-.889-1.453-1.635l-6.195-17.418c-.875-2.461-3.97-2.461-4.845 0z" fill="#a0f2e1"/><g fill="#00e9c2"><ellipse cx="23.279" cy="390.328" rx="18.235" ry="18.235" transform="matrix(.997 -.082 .082 .997 -32.019 3.236)"/><circle cx="433.658" cy="461.297" r="7.866"/></g></g></g></svg>