<svg id="Capa_1" enable-background="new 0 0 512 512" height="512" viewBox="0 0 512 512" width="512" xmlns="http://www.w3.org/2000/svg"><g><g><path d="m374.617 263.449c0-64.721-52.466-117.186-117.186-117.186h-52.083c-64.72 0-117.186 52.466-117.186 117.186 0 43.011 23.177 80.603 57.718 100.987-28.856 24.342-47.191 60.762-47.191 101.469v35.875h265.401v-35.875c0-40.707-18.336-77.126-47.191-101.469 34.541-20.384 57.718-57.976 57.718-100.987z" fill="#96e6f0"/><path d="m321.605 221.816c1.484 6.723 2.273 13.706 2.273 20.876v.001c0 26.239-10.482 50.027-27.486 67.411-9.236 9.442-9.968 24.143-2.171 34.805 13.201 18.05 20.995 40.303 20.995 64.379v10.5c0 10.505-8.516 19.021-19.021 19.021h-194.727c-1.816 8.748-2.781 17.809-2.781 27.096v35.875h265.403v-35.875c0-40.708-18.336-77.126-47.191-101.469 34.541-20.385 57.718-57.976 57.718-100.987v-.001c0-14.664-2.701-28.694-7.62-41.632z" fill="#a6aff4"/><path d="m435.498 163.611c0-12.385-8.159-22.865-19.396-26.358-4.938-.828-9.618-2.291-9.618-2.291s1.417-11.441 1.417-11.951c0-15.241-12.355-27.596-27.596-27.596-4.356 0-12.321.967-17.884 4.208-6.05-5.999-11.294-11.655-24.598-13.34-11.246-1.424-20.222 4.052-28.537 9.379 0 0-12.646-9.554-23.303-9.288-14.08.352-28.023 10.463-29.705 24.093-.364 1.87-1.658 6.522-1.658 6.522s-3.282.089-6.454.377c-14.311 1.021-25.607 12.946-25.607 27.517 0 4.966 1.318 9.621 3.614 13.646-.147.798-.285 1.6-.407 2.406-8.086 4.812-13.507 13.635-13.507 23.728 0 12.831 8.757 23.614 20.62 26.705 6.506 7.966 16.403 13.055 27.491 13.055h128.805c19.595 0 35.48-15.885 35.48-35.48v-3.409c6.589-5.042 10.843-12.984 10.843-21.923z" fill="#fdc3db"/><path d="m391.832 243.737h-66.015c-19.483 0-35.277-15.794-35.277-35.277 0-19.483 15.794-35.277 35.277-35.277h66.015c19.483 0 35.277 15.794 35.277 35.277 0 19.483-15.794 35.277-35.277 35.277z" fill="#fdc3db"/><path d="m183.124 260.668-12.721-8.711c-.43-2.848-1.066-5.628-1.878-8.332l7.665-13.337c8.136-14.157-5.266-30.962-20.878-26.181l-14.575 4.464c-2.528-1.46-5.17-2.741-7.912-3.829l-5.589-14.156c-5.996-15.187-27.49-15.187-33.486 0l-5.588 14.156c-2.742 1.088-5.384 2.369-7.912 3.829l-14.575-4.464c-15.612-4.781-29.014 12.024-20.878 26.181l7.665 13.337c-.812 2.704-1.448 5.484-1.877 8.332l-12.721 8.711c-13.472 9.225-8.689 30.18 7.451 32.646l15.453 2.361c1.564 2.243 3.269 4.379 5.114 6.386l-1.139 15.616c-1.187 16.285 18.178 25.611 30.17 14.529l11.57-10.692c1.327.087 2.662.147 4.011.147s2.684-.06 4.011-.147l11.57 10.692c11.992 11.082 31.357 1.756 30.17-14.529l-1.139-15.616c1.845-2.007 3.55-4.143 5.114-6.386l15.453-2.361c16.14-2.465 20.923-23.421 7.451-32.646zm-72.63 23.097c-12.535 0-22.697-10.162-22.697-22.697s10.162-22.697 22.697-22.697 22.697 10.162 22.697 22.697-10.162 22.697-22.697 22.697z" fill="#fdf0a3"/><g fill="#00e9c2"><ellipse cx="268.515" cy="307.254" rx="19.196" ry="19.196" transform="matrix(.383 -.924 .924 .383 -118.107 437.748)"/><circle cx="40.033" cy="90.932" r="19.196"/><circle cx="152.387" cy="25.327" r="19.196"/><ellipse cx="444.806" cy="307.254" rx="19.196" ry="19.196" transform="matrix(.29 -.957 .957 .29 21.838 643.938)"/></g></g><g><g fill="#4e0325"><path d="m139.323 261.068c0-15.896-12.933-28.829-28.829-28.829-15.897 0-28.83 12.933-28.83 28.829s12.933 28.829 28.83 28.829c15.896 0 28.829-12.933 28.829-28.829zm-45.395 0c0-9.134 7.432-16.565 16.566-16.565s16.565 7.431 16.565 16.565-7.431 16.565-16.565 16.565-16.566-7.431-16.566-16.565z"/><path d="m444.807 281.927c-11.852 0-21.824 8.184-24.573 19.196h-41.087c3.749-12.138 5.689-24.842 5.689-37.673v-.001c0-4.589-.265-9.115-.742-13.58h7.738c22.833 0 41.409-18.576 41.409-41.409 0-5.109-.935-10.105-2.728-14.792.177-1.551.273-3.127.273-4.725v-.558c6.928-6.376 10.844-15.243 10.844-24.774 0-14.861-9.527-27.807-23.709-32.214-.264-.082-.532-.147-.804-.192-1.348-.227-2.685-.507-3.896-.79.812-6.677.812-7.045.812-7.405 0-18.598-15.131-33.729-33.729-33.729-1.709 0-9.363.168-16.627 2.973-5.419-5.191-12.166-10.42-25.085-12.057-11.913-1.512-21.635 3.463-29.176 8.123-5.055-3.216-14.519-8.324-23.588-8.079-17.908.448-33.494 13.264-35.605 29.227-.085.406-.221.974-.38 1.614-.704.047-1.441.104-2.177.17-14.482 1.061-26.356 11.329-30.044 24.788h-9.114v-45.108c0-3.387-2.746-6.132-6.132-6.132h-43.858v-34.899c11.012-2.749 19.196-12.722 19.196-24.573 0-13.966-11.362-25.328-25.328-25.328s-25.328 11.362-25.328 25.328c0 11.851 8.184 21.824 19.196 24.573v34.898h-81.648c-2.749-11.012-12.722-19.196-24.573-19.196-13.966 0-25.328 11.362-25.328 25.328s11.362 25.328 25.328 25.328c11.852 0 21.824-8.184 24.573-19.196h81.649v53.545c-10.062 5.292-19.332 11.889-27.587 19.566-2.601-.778-5.345-1.198-8.172-1.198-.001 0 0 0-.001 0-11.662 0-21.966 7.009-26.25 17.857l-4.038 10.23c-.34.162-.681.325-1.018.492l-10.519-3.221c-11.151-3.416-23.057.27-30.329 9.389-7.272 9.118-8.215 21.544-2.403 31.656l5.569 9.693c-.065.282-.129.563-.191.844l-9.227 6.318c-9.622 6.589-14.163 18.195-11.568 29.565 2.595 11.371 11.721 19.857 23.251 21.618l11.312 1.728c.1.125.2.25.299.374l-.832 11.414c-.848 11.632 5.393 22.419 15.901 27.479 3.94 1.897 8.133 2.824 12.29 2.823 6.93 0 13.754-2.576 19.108-7.524l.884-.816c7.523 10.213 16.514 19.297 26.695 26.867-26.178 26.633-40.96 62.442-40.96 100.143v35.875c0 5.644 4.576 10.22 10.22 10.22h265.401c5.644 0 10.22-4.576 10.22-10.22v-35.875c0-37.7-14.783-73.508-40.961-100.143 13.81-10.267 25.487-23.277 34.188-38.182 2.676-4.584 5.043-9.329 7.113-14.193h45.583c2.749 11.012 12.721 19.196 24.573 19.196 13.966 0 25.328-11.362 25.328-25.328.001-13.966-11.361-25.328-25.327-25.328zm-305.484-256.599c0-7.203 5.861-13.064 13.064-13.064s13.064 5.861 13.064 13.064-5.861 13.064-13.064 13.064-13.064-5.861-13.064-13.064zm-99.29 78.667c-7.203 0-13.064-5.861-13.064-13.064s5.861-13.064 13.064-13.064 13.064 5.861 13.064 13.064c-.001 7.203-5.861 13.064-13.064 13.064zm188.868 62.211c1.577-.938 2.65-2.533 2.926-4.346.113-.743.239-1.479.374-2.214.264-1.424.015-2.895-.703-4.154-1.837-3.222-2.809-6.89-2.809-10.607 0-11.204 8.746-20.605 19.911-21.401.04-.002.08-.006.119-.009 2.929-.266 6.035-.353 6.066-.354 2.691-.074 5.019-1.893 5.741-4.486.14-.5 1.371-4.946 1.77-6.997.027-.138.049-.277.067-.418 1.237-10.022 11.9-18.416 23.771-18.714.1-.002.199-.004.299-.004 6.905 0 16.144 5.794 19.155 8.054 2.049 1.546 4.843 1.655 7.005.271 8.531-5.467 15.75-9.563 24.457-8.459 10.741 1.361 14.783 5.381 20.378 10.943l.673.669c1.971 1.954 5.007 2.339 7.405.944 3.979-2.319 10.461-3.374 14.797-3.374 11.759 0 21.341 9.507 21.463 21.238-.119 1.187-.771 6.587-1.369 11.424-.365 2.941 1.427 5.723 4.257 6.606.202.064 4.868 1.513 9.987 2.409 8.823 2.909 14.723 11.054 14.723 20.387 0 6.734-3.076 12.95-8.439 17.054-.794.607-1.41 1.392-1.822 2.274-.502.172-.992.405-1.453.716-2.806 1.896-3.545 5.708-1.649 8.513 3.254 4.817 4.973 10.45 4.973 16.291 0 16.07-13.075 29.144-29.144 29.144h-66.015c-11.065 0-21.039-6.139-26.032-16.023-2.065-4.086-3.112-8.501-3.112-13.122 0-16.07 13.075-29.144 29.144-29.144h36.603c3.386 0 6.132-2.746 6.132-6.132s-2.746-6.132-6.132-6.132h-36.603c-22.833 0-41.409 18.576-41.409 41.409 0 3.36.397 6.644 1.174 9.832h-25.214c-8.846 0-17.135-3.937-22.742-10.802-.822-1.007-1.944-1.727-3.203-2.054-9.441-2.46-16.034-11.002-16.034-20.772.003-7.529 4.031-14.601 10.514-18.46zm39.614 127.985c7.203 0 13.064 5.861 13.064 13.064s-5.861 13.064-13.064 13.064-13.064-5.861-13.064-13.064 5.861-13.064 13.064-13.064zm-109.996-197.127h37.726v39.311c-13.232.939-25.909 3.908-37.726 8.597zm-79.199 228.932c-1.119-.538-4.741-2.677-4.383-7.575l1.139-15.616c.205-2.812-.761-5.585-2.67-7.661-1.508-1.64-2.939-3.427-4.253-5.313-1.601-2.297-4.074-3.836-6.842-4.26l-15.453-2.36c-4.856-.742-6.134-4.749-6.411-5.96-.276-1.211-.863-5.376 3.189-8.151l12.721-8.71c2.339-1.602 3.908-4.103 4.332-6.907.347-2.297.872-4.625 1.561-6.923.807-2.69.472-5.593-.928-8.028l-7.664-13.338c-2.447-4.258-.112-7.756.663-8.726.775-.971 3.666-4.029 8.363-2.589l14.575 4.463c2.71.831 5.645.497 8.101-.92 2.107-1.217 4.318-2.287 6.572-3.181 2.624-1.041 4.7-3.121 5.737-5.747l5.587-14.154c1.804-4.568 5.995-4.923 7.238-4.923 1.242 0 5.433.355 7.237 4.923l5.589 14.156c1.036 2.625 3.113 4.705 5.736 5.746 2.255.894 4.465 1.964 6.572 3.181 2.457 1.417 5.392 1.753 8.101.92l14.576-4.463c4.697-1.438 7.587 1.618 8.361 2.588.775.971 3.11 4.469.664 8.728l-7.665 13.336c-1.4 2.436-1.736 5.342-.927 8.033.689 2.295 1.214 4.621 1.559 6.915.422 2.805 1.992 5.309 4.333 6.911l12.721 8.71c4.052 2.776 3.466 6.941 3.19 8.151-.276 1.211-1.555 5.218-6.411 5.96l-15.453 2.36c-2.767.423-5.239 1.962-6.84 4.258-1.318 1.89-2.75 3.678-4.255 5.315-1.908 2.076-2.874 4.849-2.67 7.661l1.139 15.616c.357 4.898-3.265 7.037-4.383 7.575-1.119.539-5.049 2.038-8.657-1.296l-11.569-10.692c-1.894-1.751-4.373-2.715-6.936-2.715-.223 0-.445.007-.668.022-2.609.17-4.083.17-6.688 0-2.8-.191-5.545.79-7.603 2.693l-11.569 10.692c-3.606 3.331-7.539 1.834-8.658 1.295zm232.385 29.639c-2.853 1.684-4.713 4.646-4.99 7.946-.277 3.301 1.062 6.531 3.594 8.667 27.684 23.354 43.561 57.49 43.561 93.656v25.655h-244.962v-25.655c0-36.167 15.877-70.303 43.562-93.656 2.532-2.136 3.871-5.367 3.594-8.667-.277-3.301-2.137-6.263-4.99-7.946-4.295-2.535-8.373-5.353-12.218-8.42 3.957-.086 7.935-.997 11.681-2.802 10.508-5.06 16.749-15.846 15.901-27.479l-.832-11.415c.1-.124.2-.249.298-.373l11.313-1.728c11.53-1.762 20.656-10.247 23.251-21.618 2.596-11.371-1.946-22.975-11.57-29.565l-9.225-6.317c-.062-.283-.126-.564-.192-.846l5.57-9.692c5.812-10.112 4.868-22.538-2.404-31.657s-19.179-12.807-30.327-9.388l-10.52 3.221c-.338-.167-.678-.33-1.018-.492l-4.039-10.23c-.525-1.328-1.142-2.598-1.838-3.806 18.831-16.516 43.486-26.546 70.443-26.546h13.139c.196.536.406 1.066.629 1.592-8.1 6.344-12.989 16.19-12.989 26.589 0 14.677 9.476 27.591 23.28 32.076 7.9 8.805 19.076 13.816 30.963 13.816h2.014v52.125c-11.012 2.749-19.196 12.722-19.196 24.573 0 13.966 11.362 25.328 25.328 25.328s25.328-11.362 25.328-25.328c0-11.851-8.184-21.824-19.196-24.573v-52.125h16.166c7.553 11.995 20.622 19.312 35.005 19.312h37.698c.57 4.449.88 8.979.88 13.581-.001 37.682-20.191 73.006-52.692 92.187zm133.102-35.317c-7.203 0-13.064-5.861-13.064-13.064s5.861-13.064 13.064-13.064 13.064 5.861 13.064 13.064c-.001 7.203-5.861 13.064-13.064 13.064z"/><path d="m237.521 444.264c-3.386 0-6.132 2.746-6.132 6.132v12.376c0 3.386 2.746 6.132 6.132 6.132s6.132-2.746 6.132-6.132v-12.376c0-3.386-2.745-6.132-6.132-6.132z"/><path d="m303.544 441.914v12.375c0 3.387 2.746 6.132 6.132 6.132s6.132-2.746 6.132-6.132v-12.375c0-3.387-2.746-6.132-6.132-6.132s-6.132 2.746-6.132 6.132z"/><path d="m277.222 408.972c-3.387 0-6.132 2.746-6.132 6.132v12.376c0 3.386 2.746 6.132 6.132 6.132s6.132-2.746 6.132-6.132v-12.376c0-3.386-2.745-6.132-6.132-6.132z"/></g><path d="m297.988 143.139c-5.248 0-9.712-4.019-10.17-9.345-.484-5.624 3.683-10.575 9.306-11.059 2.735-.236 5.554-.271 8.378-.108 5.635.327 9.938 5.161 9.61 10.796-.327 5.634-5.144 9.93-10.796 9.61-1.847-.108-3.678-.086-5.44.066-.298.027-.595.04-.888.04z" fill="#fff"/><path d="m258.007 183.406c-.71 0-1.429-.074-2.151-.229-5.519-1.183-9.035-6.615-7.853-12.135 1.811-8.455 5.465-16.961 10.566-24.6 3.136-4.695 9.482-5.958 14.174-2.825 4.695 3.134 5.959 9.481 2.824 14.174-3.682 5.514-6.303 11.577-7.578 17.532-1.026 4.799-5.266 8.083-9.982 8.083z" fill="#fff"/></g><g><path d="m459.17 5.556-8.395 23.606c-.359 1.011-1.071 1.812-1.969 2.216l-20.973 9.449c-2.963 1.335-2.963 6.056 0 7.391l20.973 9.449c.898.405 1.61 1.206 1.969 2.216l8.395 23.606c1.186 3.335 5.38 3.335 6.566 0l8.395-23.606c.359-1.011 1.071-1.812 1.969-2.216l20.973-9.449c2.963-1.335 2.963-6.056 0-7.391l-20.973-9.449c-.898-.405-1.609-1.205-1.969-2.216l-8.395-23.606c-1.185-3.335-5.38-3.335-6.566 0z" fill="#96e6f0"/><path d="m37.597 376.306-6.227 17.51c-.267.75-.794 1.344-1.46 1.644l-15.558 7.009c-2.198.99-2.198 4.492 0 5.482l15.558 7.009c.666.3 1.194.894 1.46 1.644l6.227 17.511c.88 2.474 3.991 2.474 4.871 0l6.228-17.511c.267-.75.795-1.344 1.461-1.644l15.557-7.009c2.198-.99 2.198-4.492 0-5.482l-15.557-7.009c-.666-.3-1.194-.894-1.461-1.644l-6.228-17.51c-.88-2.473-3.991-2.473-4.871 0z" fill="#96e6f0"/><g fill="#74b5f0"><ellipse cx="238.216" cy="39.548" rx="18.331" ry="18.332" transform="matrix(.997 -.083 .083 .997 -2.45 19.783)"/><path d="m483.481 118.597c0 4.367 3.54 7.908 7.908 7.908s7.908-3.54 7.908-7.908c0-4.367-3.54-7.908-7.908-7.908s-7.908 3.541-7.908 7.908z"/></g></g></g></svg>