<svg id="Capa_1" enable-background="new 0 0 494.852 494.852" height="512" viewBox="0 0 494.852 494.852" width="512" xmlns="http://www.w3.org/2000/svg"><g><g><path d="m283.314 484.852h-136.03c-18.996 0-34.396-15.4-34.396-34.396v-356.842c0-18.996 15.4-34.396 34.396-34.396h136.031c56.131 0 101.635 45.503 101.635 101.635v222.365c-.001 56.131-45.505 101.634-101.636 101.634z" fill="#fd8abe"/><path d="m283.314 59.218h-50.466c41.028 0 74.287 33.259 74.287 74.287v169.909c0 41.027-33.259 74.287-74.287 74.287h-94.82c-13.885 0-25.141-11.256-25.141-25.141v97.896c0 18.996 15.4 34.396 34.396 34.396h136.031c56.131 0 101.635-45.503 101.635-101.635v-222.364c0-56.131-45.504-101.635-101.635-101.635z" fill="#ff68c1"/><path d="m275.363 454.331h-120.199c-6.895 0-12.485-5.59-12.485-12.485v-339.621c0-6.895 5.59-12.485 12.485-12.485h120.198c44.069 0 79.795 35.725 79.795 79.795v205.003c0 44.068-35.725 79.793-79.794 79.793z" fill="#74b5f0"/><g fill="#fde15c"><path d="m214.02 215.61c-11.533 0-20.882-9.349-20.882-20.882v-46.97c0-11.533 9.349-20.882 20.882-20.882 11.533 0 20.882 9.349 20.882 20.882v46.97c0 11.533-9.349 20.882-20.882 20.882z"/><path d="m253.021 277.69h-30.598c-11.079 0-20.06-8.981-20.06-20.06 0-11.096 9.007-20.084 20.103-20.06l24.84.052c8.626.018 15.629-6.97 15.629-15.596v-74.268c0-11.533 9.349-20.882 20.882-20.882 11.533 0 20.882 9.349 20.882 20.882v78.256c-.001 28.54-23.138 51.676-51.678 51.676z"/><path d="m293.285 326.494c0 11.533-9.349 20.882-20.882 20.882h-46.97c-11.533 0-20.882-9.349-20.882-20.882 0-11.533 9.349-20.882 20.882-20.882h46.97c11.533.001 20.882 9.35 20.882 20.882z"/></g><path d="m294.511 92.068c7.97 11.837 12.624 26.093 12.624 41.436v169.909c0 41.027-33.259 74.287-74.287 74.287h-90.169v64.145c0 6.896 5.59 12.485 12.485 12.485h120.198c44.069 0 79.795-35.726 79.795-79.795v-205.001c0-37.467-25.828-68.887-60.646-77.466z" fill="#8289f3"/><path d="m353.826 89.739 75.122-21.017c11.53 41.21-12.894 84.609-54.104 96.139s-84.609-12.894-96.139-54.104 12.894-84.609 54.104-96.139c18.84-5.271 38.991-3.266 56.423 5.613z" fill="#00e9c2"/><path d="m307.135 396.313c0 11.533-9.349 20.882-20.882 20.882h-74.671c-11.533 0-20.882-9.349-20.882-20.882 0-11.533 9.349-20.882 20.882-20.882h74.671c11.533 0 20.882 9.349 20.882 20.882z" fill="#ffac62"/></g><g><g fill="#4e0325"><path d="m214.02 221.61c14.823 0 26.882-12.059 26.882-26.881v-46.971c0-14.822-12.059-26.881-26.882-26.881-14.822 0-26.881 12.059-26.881 26.881v46.971c0 14.822 12.059 26.881 26.881 26.881zm-14.881-73.852c0-8.206 6.676-14.881 14.881-14.881 8.206 0 14.882 6.676 14.882 14.881v46.971c0 8.206-6.676 14.881-14.882 14.881s-14.881-6.676-14.881-14.881z"/><path d="m225.433 353.376h46.97c14.822 0 26.881-12.059 26.881-26.882 0-14.822-12.059-26.881-26.881-26.881h-46.97c-14.823 0-26.882 12.059-26.882 26.881 0 14.823 12.059 26.882 26.882 26.882zm0-41.763h46.97c8.206 0 14.881 6.676 14.881 14.881 0 8.206-6.676 14.882-14.881 14.882h-46.97c-8.206 0-14.882-6.676-14.882-14.882 0-8.205 6.676-14.881 14.882-14.881z"/><path d="m286.254 369.431h-74.671c-14.822 0-26.881 12.059-26.881 26.881 0 14.823 12.059 26.882 26.881 26.882h74.671c14.823 0 26.882-12.059 26.882-26.882-.001-14.822-12.06-26.881-26.882-26.881zm0 41.763h-74.671c-8.206 0-14.881-6.676-14.881-14.882s6.676-14.881 14.881-14.881h74.671c8.206 0 14.882 6.676 14.882 14.881-.001 8.207-6.676 14.882-14.882 14.882z"/><path d="m438.578 66.028c-1.488-5.318-7.006-8.423-12.325-6.936l-53.171 14.876 25.061-49.198c1.204-2.363 1.419-5.108.6-7.63-.82-2.523-2.608-4.616-4.972-5.819-19.728-10.049-42.336-12.296-63.656-6.333-22.503 6.296-41.273 21.093-52.85 41.665-.477.847-.916 1.708-1.364 2.566h-128.617c-24.48 0-44.396 19.916-44.396 44.396v70.741h-92.862c-5.523 0-10 4.477-10 10s4.477 10 10 10h92.861v175.361h-92.861c-5.523 0-10 4.477-10 10s4.477 10 10 10h92.861v70.741c0 24.48 19.916 44.396 44.396 44.396h136.03c61.556 0 111.635-50.079 111.635-111.635v-215.697c14.736-7.803 27.003-19.707 35.439-34.696 11.578-20.572 14.487-44.295 8.191-66.798zm-89.421 111.572v196.936c0 40.691-33.104 73.795-73.794 73.795h-120.198c-3.576 0-6.485-2.909-6.485-6.485v-339.621c0-3.576 2.909-6.485 6.485-6.485h110.871c.402 5.935 1.403 11.864 3.039 17.711.953 3.405 2.123 6.713 3.456 9.936-9.195 4.274-15.595 13.582-15.595 24.372v74.269c0 2.567-1 4.979-2.818 6.792-1.812 1.808-4.218 2.803-6.777 2.803h-.021l-24.84-.052h-.057c-6.95 0-13.485 2.703-18.406 7.613-4.935 4.924-7.652 11.476-7.652 18.447 0 14.37 11.691 26.06 26.061 26.06h30.598c31.803 0 57.677-25.874 57.677-57.677v-59.737c.014.008.027.017.041.024 12.018 6.765 25.115 10.561 38.415 11.299zm-50.459 48.414c0 25.186-20.491 45.677-45.677 45.677h-30.598c-7.753 0-14.061-6.308-14.061-14.06 0-3.761 1.466-7.295 4.129-9.952 2.655-2.65 6.181-4.108 9.93-4.108h.031l24.84.052h.048c5.759 0 11.174-2.239 15.252-6.309 4.09-4.081 6.342-9.51 6.342-15.287v-74.269c0-6.086 3.677-11.324 8.923-13.627 5.384 9.187 12.424 17.309 20.84 24.031v67.852zm-15.384 248.838h-136.03c-13.452 0-24.396-10.944-24.396-24.396v-356.842c0-13.452 10.944-24.396 24.396-24.396h121.06c-1.171 4.781-1.953 9.633-2.301 14.521h-110.878c-10.193 0-18.485 8.292-18.485 18.485v339.622c0 10.193 8.292 18.485 18.485 18.485h120.198c47.307 0 85.794-38.487 85.794-85.795v-197.105c4.616-.384 9.225-1.132 13.791-2.263v208.05c.001 50.527-41.106 91.634-91.634 91.634zm88.835-319.622c-36.112 10.106-73.711-11.056-83.814-47.168s11.056-73.711 47.168-83.814c6.039-1.69 12.209-2.526 18.356-2.526 7.321 0 14.607 1.187 21.59 3.535l-30.534 59.943c-1.802 3.537-1.341 7.805 1.174 10.876s6.608 4.363 10.431 3.294l64.785-18.126c4.16 32.87-16.315 64.798-49.156 73.986z"/><path d="m380.706 116.404-8.562 8.562c-2.343 2.343-2.343 6.142 0 8.485 1.171 1.171 2.707 1.757 4.243 1.757 1.535 0 3.071-.586 4.243-1.757l8.562-8.562c2.343-2.343 2.343-6.142 0-8.485s-6.143-2.343-8.486 0z"/><path d="m335.718 112.98-8.562 8.562c-2.343 2.343-2.343 6.142 0 8.485 1.171 1.171 2.707 1.757 4.243 1.757s3.071-.586 4.243-1.757l8.562-8.562c2.343-2.343 2.343-6.142 0-8.485-2.343-2.342-6.143-2.342-8.486 0z"/><path d="m335.558 59.18c2.343-2.343 2.343-6.142 0-8.485s-6.143-2.343-8.485 0l-8.562 8.562c-2.343 2.343-2.343 6.142 0 8.485 1.171 1.171 2.707 1.757 4.243 1.757s3.071-.586 4.243-1.757z"/></g><path d="m169.926 343.336c-5.417 0-9.869-4.328-9.993-9.771-.411-17.967-.411-36.959 0-54.922.126-5.521 4.745-9.871 10.226-9.769 5.521.127 9.895 4.705 9.769 10.226-.404 17.664-.404 36.34 0 54.008.126 5.521-4.248 10.1-9.769 10.226-.078.001-.156.002-.233.002z" fill="#fff"/><path d="m169.93 233.356c-5.523 0-10-4.477-10-10v-12.622c0-5.523 4.477-10 10-10s10 4.477 10 10v12.622c0 5.523-4.477 10-10 10z" fill="#fff"/></g><g><path d="m455.564 172.607-8.214 23.098c-.352.989-1.048 1.773-1.927 2.169l-20.521 9.245c-2.899 1.306-2.899 5.926 0 7.232l20.521 9.246c.879.396 1.575 1.18 1.927 2.168l8.214 23.098c1.161 3.263 5.265 3.263 6.425 0l8.215-23.098c.352-.989 1.048-1.773 1.927-2.168l20.521-9.246c2.899-1.306 2.899-5.926 0-7.232l-20.521-9.245c-.879-.396-1.575-1.18-1.927-2.169l-8.215-23.098c-1.16-3.264-5.264-3.264-6.425 0z" fill="#fdc3db"/><path d="m68.342 1.815-6.093 17.133c-.261.734-.777 1.315-1.429 1.609l-15.222 6.858c-2.151.969-2.151 4.395 0 5.364l15.222 6.858c.652.294 1.168.875 1.429 1.608l6.093 17.134c.861 2.42 3.905 2.42 4.766 0l6.093-17.134c.261-.733.777-1.315 1.429-1.608l15.222-6.858c2.15-.969 2.15-4.395 0-5.364l-15.222-6.858c-.652-.294-1.168-.875-1.429-1.609l-6.093-17.133c-.861-2.42-3.905-2.42-4.766 0z" fill="#fdc3db"/><g fill="#fd8abe"><ellipse cx="439.611" cy="333.336" rx="17.937" ry="17.937" transform="matrix(.997 -.083 .083 .997 -25.996 37.395)"/><circle cx="478.548" cy="280.573" r="7.737"/></g></g></g></svg>