<svg id="Capa_1" enable-background="new 0 0 512 512" height="512" viewBox="0 0 512 512" width="512" xmlns="http://www.w3.org/2000/svg"><g><g><path d="m390.368 490.201v-36.283c0-74.12-60.086-134.206-134.207-134.206-74.12 0-134.207 60.086-134.207 134.206v36.283z" fill="#74b5f0"/><path d="m345.747 490.201v-34.282c0-49.477-40.109-89.586-89.585-89.586-49.476 0-89.585 40.109-89.585 89.586v34.282z" fill="#74b5f0"/><path d="m265.562 366.827c25.912 11.654 44.139 39.315 44.139 71.593v7.766c0 12.09-9.801 21.891-21.891 21.891h-121.234v22.124h179.171v-34.281c0-46.302-35.128-84.394-80.185-89.093z" fill="#8289f3"/><g fill="#c17777"><ellipse cx="451.143" cy="266.309" rx="44.444" ry="44.445" transform="matrix(.23 -.973 .973 .23 88.307 644.199)"/><ellipse cx="61.179" cy="266.309" rx="44.444" ry="44.444" transform="matrix(.316 -.949 .949 .316 -210.811 240.135)"/><path d="m294.034 376.145h-75.745c-94.124 0-170.427-76.303-170.427-170.426v-.001c0-94.124 76.302-170.426 170.426-170.426h75.746c94.124 0 170.426 76.302 170.426 170.426v.001c.001 94.124-76.302 170.426-170.426 170.426z"/></g><path d="m294.034 36.84h-21.855c76.308 0 138.167 61.859 138.167 138.167v11.734c0 76.307-61.859 138.167-138.167 138.167h-86.151c-73.024 0-132.808-56.653-137.819-128.403-.222 3.56-.348 7.146-.348 10.762v.001c0 94.124 76.303 170.426 170.426 170.426h75.746c94.124 0 170.427-76.303 170.427-170.426v-.001c.001-94.124-76.302-170.427-170.426-170.427z" fill="#ea28fd" opacity=".3"/><path d="m296.127 21.743h-83.3c-103.512 0-187.424 83.913-187.424 187.425v.001c0 23.437 23.011 43.045 23.939 41.393 32.108-57.13 93.285-95.73 163.485-95.73h83.3c70.065 0 131.141 38.451 163.299 95.4 4.594 8.135 24.125-17.626 24.125-41.063v-.001c0-103.512-83.913-187.425-187.424-187.425z" fill="#74b5f0"/><path d="m297.812 19.009h-30.902c91.696 0 166.03 61.612 166.03 137.614-.2 11.973-11.58 8.213-16.965 2.604-31.664-32.984-86.998-42.499-149.065-42.499h-73.792c-62.187 0-105.887 37.847-144.824 70.288-8.963 7.467-15.302-.571-18.597-11.843-1.707 10.168-2.61 20.608-2.61 31.262 0 23.437 23.011 43.045 23.939 41.393 32.108-57.13 93.285-95.73 163.485-95.73h83.301c70.065 0 131.141 38.451 163.299 95.4 4.594 8.135 24.125-17.626 24.125-41.063 0-103.514-83.913-187.426-187.424-187.426z" fill="#8289f3"/><path d="m214.002 19.009h80.95v139.235h-80.95z" fill="#ab82e4"/><path d="m157.913 88.422c-4.195 0-8.116-2.625-9.57-6.811-1.834-5.285.962-11.056 6.248-12.891 4.754-1.65 9.558-2.881 14.279-3.659 5.518-.913 10.732 2.828 11.642 8.347.909 5.52-2.828 10.732-8.348 11.642-3.586.591-7.263 1.536-10.93 2.809-1.099.381-2.22.563-3.321.563z" fill="#fff"/><path d="m103.17 128.627c-2.226 0-4.466-.73-6.337-2.232-4.361-3.503-5.058-9.878-1.555-14.24 4.71-5.865 10.082-11.445 16.423-17.056 4.189-3.707 10.592-3.316 14.298.873 3.708 4.189 3.317 10.591-.872 14.298-5.471 4.842-10.068 9.608-14.053 14.569-2.001 2.492-4.939 3.788-7.904 3.788z" fill="#fff"/><path d="m335.333 394.315s-31.482 35.232-78.875 35.232-79.469-35.232-79.469-35.232l37.395-146.084c28.938-22.528 57.875-21.984 86.814 0z" fill="#d1b3f0"/><circle cx="150.041" cy="269.948" fill="#d1b3f0" r="73.948"/><ellipse cx="150.041" cy="269.948" fill="#fd8abe" rx="45.04" ry="45.041" transform="matrix(.071 -.998 .998 .071 -129.864 400.476)"/><path d="m150.041 224.908c-2.918 0-5.768.287-8.531.818 13.021 3.111 22.705 14.816 22.705 28.789 0 16.352-13.256 29.607-29.607 29.607-13.974 0-25.679-9.684-28.79-22.705-.53 2.763-.817 5.613-.817 8.531 0 24.875 20.165 45.04 45.041 45.04 24.875 0 45.04-20.165 45.04-45.04s-20.166-45.04-45.041-45.04z" fill="#ff68c1"/><circle cx="362.282" cy="269.948" fill="#d1b3f0" r="73.948"/><ellipse cx="362.282" cy="269.948" fill="#fd8abe" rx="45.04" ry="45.04" transform="matrix(.973 -.23 .23 .973 -52.33 90.457)"/><path d="m362.21 224.908c-2.918 0-5.768.287-8.531.818 13.021 3.111 22.705 14.816 22.705 28.789 0 16.352-13.256 29.607-29.607 29.607-13.974 0-25.679-9.684-28.79-22.705-.53 2.763-.817 5.613-.817 8.531 0 24.875 20.165 45.04 45.041 45.04 24.875 0 45.04-20.165 45.04-45.04s-20.166-45.04-45.041-45.04z" fill="#ff68c1"/><ellipse cx="342.393" cy="375.401" fill="#ab82e4" rx="69.648" ry="52.163" transform="matrix(.707 -.707 .707 .707 -165.164 352.06)"/><ellipse cx="354.179" cy="387.187" fill="#a862e6" rx="47.393" ry="35.495" transform="matrix(.707 -.707 .707 .707 -170.046 363.847)"/><ellipse cx="169.93" cy="375.401" fill="#ab82e4" rx="52.163" ry="69.648" transform="matrix(.707 -.707 .707 .707 -215.677 230.11)"/><ellipse cx="158.144" cy="387.187" fill="#a862e6" rx="35.495" ry="47.393" transform="matrix(.707 -.707 .707 .707 -227.463 225.229)"/></g><g><g fill="#4e0325"><path d="m490.447 228.522c2.032-6.423 3.234-13.097 3.234-19.354 0-108.932-88.622-197.554-197.554-197.554h-83.301c-108.931 0-197.553 88.622-197.553 197.555 0 7.87 2.017 15.107 4.767 21.335-8.359 9.59-13.434 22.114-13.434 35.805 0 30.092 24.482 54.574 54.574 54.574 5.634 0 11.069-.864 16.185-2.458 7.862 9.805 16.723 18.775 26.428 26.757-4.268 18.976 1.421 41.806 16.089 61.202-5.211 14.892-8.058 30.885-8.058 47.534v36.282c0 5.594 4.536 10.129 10.129 10.129 5.594 0 10.129-4.535 10.129-10.129v-36.282c0-10.631 1.361-20.947 3.89-30.8 8.061 6.626 16.92 11.767 26.1 15.161-1.025 5.596-1.575 11.356-1.575 17.243v38.786c0 3.356 2.721 6.078 6.078 6.078 3.356 0 6.078-2.721 6.078-6.078v-38.786c0-4.736.405-9.378 1.17-13.899 1.327.266 2.655.507 3.984.698 3.267.469 6.468.701 9.59.701 13.752 0 25.918-4.516 35.035-13.089 10.138 3.416 21.553 5.691 34.024 5.691 12.318 0 23.575-2.215 33.568-5.559 9.104 8.488 21.215 12.957 34.897 12.957 3.121 0 6.324-.232 9.59-.701 1.326-.19 2.65-.431 3.973-.696.768 4.521 1.183 9.159 1.183 13.896v38.786c0 3.356 2.721 6.078 6.078 6.078 3.356 0 6.078-2.721 6.078-6.078v-38.786c0-5.887-.543-11.649-1.568-17.245 9.175-3.393 18.03-8.533 26.088-15.155 2.527 9.853 3.894 20.166 3.894 30.796v36.282c0 5.594 4.535 10.129 10.129 10.129s10.129-4.535 10.129-10.129v-36.282c0-16.648-2.847-32.64-8.059-47.531 14.662-19.388 20.353-42.206 16.096-61.177 9.714-7.989 18.585-16.968 26.451-26.785 5.108 1.592 10.532 2.458 16.158 2.458 30.092 0 54.574-24.482 54.574-54.574.003-14.66-5.825-27.973-15.268-37.786zm-17.025-19.353c0 10.926-5.296 22.242-9.714 28.451-35.125-56.15-96.374-91.187-162.679-92.838v-112.838c95.503 2.606 172.393 81.103 172.393 177.225zm-119.307 98.874c-17.576-3.764-30.796-19.411-30.796-38.095 0-21.484 17.478-38.963 38.963-38.963 21.484 0 38.963 17.479 38.963 38.963 0 19.379-14.222 35.493-32.776 38.466-4.574-.672-9.376-.808-14.354-.371zm59.285-38.095c0-28.187-22.932-51.118-51.118-51.118s-51.118 22.931-51.118 51.118c0 17.828 9.182 33.537 23.059 42.685-5.698 2.133-11.269 4.944-16.603 8.359-14.213-12.448-23.208-30.711-23.208-51.044 0-37.423 30.447-67.87 67.87-67.87s67.87 30.447 67.87 67.87c0 23.513-12.029 44.258-30.247 56.441-1.21-1.585-2.531-3.1-3.965-4.535-2.759-2.758-5.821-5.121-9.136-7.085 15.833-8.693 26.596-25.517 26.596-44.821zm-218.734 51.062c-5.402-3.439-10.993-6.223-16.639-8.322 13.918-9.141 23.133-24.879 23.133-42.739 0-28.187-22.932-51.118-51.118-51.118-28.187 0-51.119 22.931-51.119 51.118 0 19.318 10.778 36.152 26.632 44.837-3.312 1.941-6.391 4.291-9.17 7.07 0 0 0 0-.001 0-1.437 1.437-2.759 2.955-3.971 4.543-18.218-12.184-30.241-32.936-30.241-56.449 0-37.423 30.447-67.87 67.871-67.87 37.423 0 67.869 30.447 67.869 67.87-.001 20.345-9.015 38.612-23.246 51.06zm-36.72-12.906c-4.707-.39-9.323-.26-13.774.365-18.71-2.839-33.094-19.031-33.094-38.52 0-21.484 17.479-38.963 38.964-38.963 21.484 0 38.963 17.479 38.963 38.963-.001 18.776-13.352 34.491-31.059 38.155zm-35.23 72.27c-1.311-9.129.896-17.085 6.213-22.401 4.483-4.483 10.639-6.637 17.44-6.637 10.6 0 22.762 5.236 32.576 15.049 8.028 8.028 13.223 17.835 14.626 27.614 1.311 9.129-.896 17.084-6.213 22.401-11.471 11.469-33.906 7.697-50.016-8.413-.509-.509-.997-1.028-1.489-1.545-7.181-7.724-11.822-16.908-13.137-26.068zm27.326-190.451c-43.068 0-78.281 34.203-79.946 76.87-2.664-6.433-4.903-13.081-6.719-19.901 32.461-50.773 88.82-81.93 149.45-81.93h83.301c39.81 0 77.806 13.447 108.396 37.062-12.27-7.658-26.743-12.1-42.241-12.1-31.304 0-58.45 18.077-71.593 44.331-22.943-12.214-45.855-11.783-68.403 1.301-12.889-26.961-40.425-45.633-72.245-45.633zm138.832-45.22h-68.795v-112.83h68.795zm153.353 122.086c-.662-16.933-6.601-32.53-16.228-45.187 8.2 8.808 15.554 18.51 21.906 29.008-1.614 5.52-3.504 10.922-5.678 16.179zm-234.303-234.845v112.837c-65.38 1.627-125.791 35.679-161.15 90.433-5.149-6.12-11.242-15.842-11.242-26.046 0-96.121 76.889-174.618 172.392-177.224zm-146.744 268.68c-18.922 0-34.315-15.393-34.315-34.315 0-6.411 1.777-12.41 4.85-17.548 4.229 4.911 9.871 10.315 14.485 11.612 4.519 14.191 10.757 27.619 18.455 40.054-1.145.117-2.3.197-3.475.197zm126.792 130.223c2.91-1.528 5.599-3.469 7.98-5.851 8.092-8.091 11.518-19.712 9.651-32.724-1.775-12.361-8.19-24.607-18.064-34.482-20.847-20.847-50.996-24.623-67.204-8.413-2.372 2.372-4.331 5.054-5.885 7.979.15-10.452 3.566-19.944 10.529-26.907h-.001c17.972-17.965 52.755-12.42 77.54 12.364 12.231 12.232 20.152 27.216 22.301 42.193 2.057 14.327-1.473 26.879-9.939 35.345-6.756 6.757-16.12 10.359-26.908 10.496zm42.657-11.145c5.988-10.169 8.187-22.732 6.222-36.422-2.52-17.56-11.661-34.984-25.739-49.061-2.084-2.084-4.238-4.035-6.439-5.878 15.611-14.611 25.393-35.374 25.393-58.392 0-7.949-1.181-15.624-3.35-22.878 19.706-12.031 39.282-12.532 59.349-1.499-2.466 7.691-3.809 15.878-3.809 24.377 0 23.017 9.78 43.781 25.389 58.391-2.208 1.854-4.361 3.805-6.435 5.879-25.931 25.931-33.359 61.862-19.402 85.61-7.758 2.225-16.242 3.642-25.352 3.642-9.255-.001-17.912-1.464-25.827-3.769zm79.176-76.889c12.233-12.232 27.217-20.152 42.193-22.302 2.666-.383 5.27-.572 7.799-.572 11.058 0 20.655 3.62 27.545 10.511 6.962 6.962 10.379 16.454 10.53 26.906-1.555-2.925-3.513-5.607-5.885-7.978-16.21-16.207-46.36-12.434-67.204 8.413-9.874 9.874-16.289 22.12-18.064 34.482-1.868 13.012 1.559 24.633 9.651 32.724 2.382 2.382 5.07 4.323 7.979 5.851-10.786-.138-20.151-3.739-26.908-10.495-17.967-17.97-12.421-52.754 12.364-77.54zm65.176 65.175c-16.109 16.108-38.545 19.883-50.017 8.413-5.317-5.317-7.524-13.273-6.213-22.401 1.404-9.778 6.598-19.585 14.626-27.614 9.815-9.814 21.976-15.049 32.576-15.049 6.799 0 12.958 2.155 17.44 6.637 5.317 5.317 7.524 13.273 6.213 22.401-1.314 9.159-5.955 18.344-13.136 26.068-.492.517-.98 1.036-1.489 1.545zm76.162-107.364c-1.169 0-2.322-.067-3.461-.182 7.529-12.167 13.656-25.288 18.148-39.141 5.098-1.502 10.283-6.16 14.777-12.544 3.076 5.138 4.851 11.14 4.851 17.553.001 18.921-15.393 34.314-34.315 34.314z"/><path d="m387.856 130.708c3.356 0 6.078-2.721 6.078-6.078v-12.266c0-3.356-2.721-6.078-6.078-6.078-3.356 0-6.078 2.721-6.078 6.078v12.266c.001 3.357 2.722 6.078 6.078 6.078z"/><path d="m419.295 157.276c3.356 0 6.078-2.721 6.078-6.078v-12.266c0-3.356-2.721-6.078-6.078-6.078-3.356 0-6.078 2.721-6.078 6.078v12.266c.001 3.357 2.722 6.078 6.078 6.078z"/><path d="m241.97 305.22h30.083c3.356 0 6.078-2.721 6.078-6.078 0-3.356-2.721-6.078-6.078-6.078h-30.083c-3.356 0-6.078 2.721-6.078 6.078s2.722 6.078 6.078 6.078z"/><path d="m287.121 324.613c0-3.356-2.721-6.078-6.078-6.078h-48.064c-3.356 0-6.078 2.721-6.078 6.078 0 3.356 2.721 6.078 6.078 6.078h48.064c3.357-.001 6.078-2.722 6.078-6.078z"/><path d="m278.13 350.083c0-3.356-2.721-6.078-6.078-6.078h-30.082c-3.356 0-6.078 2.721-6.078 6.078 0 3.356 2.721 6.078 6.078 6.078h30.083c3.356 0 6.077-2.722 6.077-6.078z"/></g><circle cx="142.54" cy="256.957" fill="#fff" r="9.79"/><circle cx="353.806" cy="256.957" fill="#fff" r="9.79"/></g><g><path d="m472.23 379.48-8.321 23.397c-.356 1.002-1.062 1.796-1.952 2.197l-20.787 9.365c-2.937 1.323-2.937 6.002 0 7.325l20.787 9.365c.89.401 1.595 1.195 1.952 2.197l8.321 23.396c1.176 3.305 5.333 3.305 6.508 0l8.321-23.396c.356-1.002 1.061-1.796 1.952-2.197l20.787-9.365c2.937-1.323 2.937-6.002 0-7.325l-20.787-9.365c-.89-.401-1.595-1.195-1.952-2.197l-8.321-23.397c-1.175-3.305-5.332-3.305-6.508 0z" fill="#96e6f0"/><path d="m24.673 337.289-6.172 17.355c-.264.743-.787 1.332-1.448 1.629l-15.42 6.947c-2.178.982-2.178 4.452 0 5.434l15.42 6.947c.66.297 1.183.886 1.448 1.629l6.172 17.355c.872 2.452 3.955 2.452 4.828 0l6.172-17.355c.264-.743.787-1.332 1.448-1.629l15.419-6.947c2.178-.982 2.178-4.452 0-5.434l-15.419-6.947c-.66-.297-1.183-.886-1.448-1.629l-6.172-17.355c-.872-2.452-3.956-2.452-4.828 0z" fill="#96e6f0"/><g fill="#74b5f0"><ellipse cx="54.174" cy="448.967" rx="18.169" ry="18.169" transform="matrix(.993 -.122 .122 .993 -54.45 9.983)"/><path d="m440.015 363.578c0 4.328 3.509 7.837 7.837 7.837 4.329 0 7.838-3.509 7.838-7.837 0-4.329-3.509-7.837-7.838-7.837-4.328 0-7.837 3.509-7.837 7.837z"/></g></g></g></svg>