<svg id="Capa_1" enable-background="new 0 0 512 512" height="512" viewBox="0 0 512 512" width="512" xmlns="http://www.w3.org/2000/svg"><g><g><path d="m136.581 113.307v94.32l-40.38 27.961c-4.521 3.13-7.218 8.279-7.218 13.777v41.082c0 9.255 7.503 16.758 16.758 16.758h16.615v58.637l-23.628 10.888c-5.94 2.737-9.745 8.68-9.745 15.22v78.155c0 17.494 14.182 31.676 31.676 31.676h267.872c17.494 0 31.676-14.182 31.676-31.676v-356.798c0-17.494-14.182-31.676-31.676-31.676h-220.275c-17.494 0-31.675 14.181-31.675 31.676z" fill="#ab82e4"/><path d="m388.531 81.631h-59.896c13.996 0 25.342 11.346 25.342 25.342v285.454c0 13.996-11.346 25.342-25.342 25.342h-214.31c-13.996 0-25.342-11.346-25.342-25.342v77.678c0 17.494 14.182 31.676 31.676 31.676h267.872c17.494 0 31.676-14.182 31.676-31.676v-356.798c-.001-17.494-14.182-31.676-31.676-31.676z" fill="#a862e6"/><g fill="#fde15c"><path d="m208.785 195.934h-28.437c-6.194 0-11.216-5.022-11.216-11.216v-59.93c0-6.195 5.022-11.216 11.216-11.216h28.437c6.195 0 11.216 5.022 11.216 11.216v59.93c0 6.194-5.022 11.216-11.216 11.216z"/><path d="m378.781 195.934h-28.437c-6.195 0-11.216-5.022-11.216-11.216v-59.93c0-6.195 5.022-11.216 11.216-11.216h28.437c6.195 0 11.216 5.022 11.216 11.216v59.93c0 6.194-5.022 11.216-11.216 11.216z"/><path d="m293.783 195.934h-28.437c-6.195 0-11.216-5.022-11.216-11.216v-59.93c0-6.195 5.022-11.216 11.216-11.216h28.437c6.194 0 11.216 5.022 11.216 11.216v59.93c0 6.194-5.022 11.216-11.216 11.216z"/></g></g><g><g fill="#4e0325"><path d="m388.53 71.411h-220.274c-23.101 0-41.895 18.794-41.895 41.896v88.966l-35.979 24.913c-7.276 5.039-11.619 13.33-11.619 22.18v41.082c0 14.876 12.102 26.978 26.978 26.978h6.395v41.873l-17.684 8.149c-9.531 4.391-15.689 14.009-15.689 24.502v78.155c0 23.101 18.794 41.895 41.895 41.895h267.872c23.102 0 41.895-18.794 41.895-41.895v-356.798c.001-23.102-18.793-41.896-41.895-41.896zm-285.524 314.601 23.627-10.887c3.622-1.669 5.942-5.293 5.942-9.282v-58.637c0-5.644-4.576-10.22-10.22-10.22h-16.615c-3.605 0-6.538-2.933-6.538-6.539v-41.082c0-2.145 1.053-4.155 2.815-5.376l40.38-27.961c2.758-1.909 4.402-5.049 4.402-8.402v-94.32c0-11.831 9.625-21.456 21.456-21.456h220.275c11.831 0 21.456 9.625 21.456 21.456v314.524c-102.893-17.315-207.329-17.313-310.784.01v-35.89c0-2.543 1.494-4.874 3.804-5.938zm285.524 105.548h-267.872c-11.831 0-21.456-9.625-21.456-21.456v-29.826c103.449-17.553 207.907-17.557 310.784-.009v29.835c0 11.831-9.625 21.456-21.456 21.456z"/><path d="m180.348 202.066h28.437c9.565 0 17.348-7.782 17.348-17.348v-59.93c0-9.566-7.783-17.348-17.348-17.348h-28.437c-9.565 0-17.348 7.782-17.348 17.348v59.93c0 9.565 7.782 17.348 17.348 17.348zm-5.084-77.279c0-2.803 2.281-5.084 5.084-5.084h28.437c2.803 0 5.084 2.281 5.084 5.084v59.93c0 2.803-2.281 5.084-5.084 5.084h-28.437c-2.803 0-5.084-2.281-5.084-5.084z"/><path d="m350.344 202.066h28.437c9.565 0 17.348-7.782 17.348-17.348v-59.93c0-9.566-7.783-17.348-17.348-17.348h-28.437c-9.565 0-17.348 7.782-17.348 17.348v59.93c0 9.565 7.782 17.348 17.348 17.348zm-5.084-77.279c0-2.803 2.281-5.084 5.084-5.084h28.437c2.803 0 5.084 2.281 5.084 5.084v59.93c0 2.803-2.281 5.084-5.084 5.084h-28.437c-2.803 0-5.084-2.281-5.084-5.084z"/><path d="m265.346 202.066h28.437c9.565 0 17.348-7.782 17.348-17.348v-59.93c0-9.566-7.783-17.348-17.348-17.348h-28.437c-9.566 0-17.349 7.782-17.349 17.348v59.93c0 9.565 7.783 17.348 17.349 17.348zm-5.085-77.279c0-2.803 2.281-5.084 5.085-5.084h28.437c2.803 0 5.084 2.281 5.084 5.084v59.93c0 2.803-2.281 5.084-5.084 5.084h-28.437c-2.803 0-5.085-2.281-5.085-5.084z"/><path d="m296.589 347.504c-3.386 0-6.132 2.746-6.132 6.132v10.638c0 3.386 2.746 6.132 6.132 6.132s6.132-2.746 6.132-6.132v-10.638c-.001-3.387-2.746-6.132-6.132-6.132z"/><path d="m326.9 320.025c3.386 0 6.132-2.746 6.132-6.132v-10.637c0-3.386-2.746-6.132-6.132-6.132s-6.132 2.746-6.132 6.132v10.637c0 3.386 2.745 6.132 6.132 6.132z"/><path d="m353.625 325.033c-3.386 0-6.132 2.746-6.132 6.132v10.638c0 3.386 2.746 6.132 6.132 6.132s6.132-2.746 6.132-6.132v-10.638c0-3.386-2.746-6.132-6.132-6.132z"/></g><path d="m180.139 356.304c-5.544 0-10.095-4.434-10.214-10.003-.359-16.969-.359-26.268 0-43.261.119-5.569 4.671-10.003 10.214-10.003.074 0 .147 0 .221.002 5.643.119 10.121 4.791 10.001 10.434-.353 16.653-.353 25.766 0 42.395.12 5.643-4.358 10.315-10.001 10.434-.074.001-.148.002-.221.002z" fill="#fff"/><path d="m180.143 265.192c-5.644 0-10.22-4.576-10.22-10.22v-13.895c0-5.644 4.576-10.22 10.22-10.22s10.22 4.576 10.22 10.22v13.895c0 5.645-4.576 10.22-10.22 10.22z" fill="#fff"/></g><g><path d="m41.841 67.632-8.395 23.605c-.359 1.011-1.071 1.812-1.969 2.216l-20.972 9.449c-2.963 1.335-2.963 6.056 0 7.391l20.972 9.449c.898.405 1.61 1.206 1.969 2.216l8.395 23.605c1.186 3.335 5.38 3.335 6.566 0l8.395-23.605c.36-1.011 1.071-1.812 1.969-2.216l20.973-9.449c2.963-1.335 2.963-6.056 0-7.391l-20.973-9.449c-.898-.405-1.61-1.206-1.969-2.216l-8.395-23.605c-1.186-3.335-5.38-3.335-6.566 0z" fill="#d1b3f0"/><path d="m460.577 11.865-6.227 17.51c-.267.75-.794 1.344-1.461 1.644l-15.557 7.009c-2.198.99-2.198 4.492 0 5.482l15.557 7.009c.666.3 1.194.894 1.461 1.644l6.227 17.51c.88 2.474 3.991 2.474 4.871 0l6.227-17.51c.267-.75.794-1.344 1.461-1.644l15.557-7.009c2.198-.99 2.198-4.492 0-5.482l-15.557-7.009c-.666-.3-1.194-.894-1.461-1.644l-6.227-17.51c-.88-2.474-3.992-2.474-4.871 0z" fill="#d1b3f0"/><g fill="#ab82e4"><path d="m102.474 18.331c0 10.124 8.207 18.331 18.331 18.331s18.331-8.207 18.331-18.331c-.001-10.124-8.208-18.331-18.331-18.331-10.124 0-18.331 8.207-18.331 18.331z"/><ellipse cx="495.81" cy="113.571" rx="7.907" ry="7.908" transform="matrix(.993 -.122 .122 .993 -10.162 61.431)"/></g></g></g></svg>