<svg id="Capa_1" enable-background="new 0 0 512 512" height="512" viewBox="0 0 512 512" width="512" xmlns="http://www.w3.org/2000/svg"><g><g><path d="m391.728 28.934h-158.074c-18.272 0-33.085 14.813-33.085 33.085v211.818h-45.778c-56.299 0-101.939 45.64-101.939 101.939v93.434c0 16.028 12.993 29.021 29.021 29.021l20.351 3.103 15.785-20.702 15.395 20.702h29.909l15.107-20.702 16.177 20.702h28.878l14.647-20.702 16.637 20.702h28.878l15.607-20.702 15.677 20.702h28.878l15.857-20.702 15.427 20.702 22.243-3.103c14.333 0 25.953-11.619 25.953-25.953v-72.917l1.533-337.191c.083-18.331-14.753-33.236-33.084-33.236z" fill="#74b5f0"/><path d="m391.728 28.934h-158.074c-18.272 0-33.085 14.813-33.085 33.085v211.818h-45.778c-56.299 0-101.939 45.64-101.939 101.939v93.434c0 16.028 12.993 29.021 29.021 29.021l20.351 3.103 15.785-20.702 15.395 20.702h29.909l15.107-20.702 16.177 20.702h28.878l14.647-20.702 16.637 20.702h28.878l15.607-20.702 15.677 20.702h28.878l15.857-20.702 15.427 20.702 22.243-3.103c14.333 0 25.953-11.619 25.953-25.953v-72.917l1.533-337.191c.083-18.331-14.753-33.236-33.084-33.236z" fill="#74b5f0"/><path d="m391.728 28.934h-49.957c15.629 0 28.278 12.708 28.207 28.336l-1.307 287.483v62.168c0 12.221-9.906 22.127-22.127 22.127h-268.948c-13.665 0-24.743-11.078-24.743-24.743v64.905c0 16.028 12.993 29.021 29.021 29.021l20.351 3.103 15.785-20.702 15.395 20.702h29.909l15.107-20.702 16.177 20.702h28.878l14.646-20.702 16.638 20.702h28.877l15.607-20.702 15.677 20.702h28.878l15.857-20.702 15.427 20.702 22.243-3.103c14.333 0 25.953-11.619 25.953-25.953v-72.918l1.533-337.191c.083-18.33-14.754-33.235-33.084-33.235z" fill="#8289f3"/><path d="m52.919 373.15c-.022.875-.066 1.745-.066 2.626v93.434c0 16.028 12.993 29.021 29.021 29.021l20.351 3.103 15.785-20.702 15.395 20.702h29.909l15.107-20.702 16.177 20.702h28.878l14.646-20.702 16.638 20.702h28.877l15.607-20.702 15.677 20.702h28.878l15.857-20.702 15.427 20.702 22.243-3.103c14.333 0 25.953-11.619 25.953-25.953v-72.918l.119-26.211h-370.479z" fill="#ab82e4"/><path d="m368.671 373.15v33.771c0 12.221-9.906 22.127-22.127 22.127h-268.948c-13.665 0-24.743-11.078-24.743-24.743v64.905c0 12.022 7.309 22.336 17.725 26.741 3.472 1.469 7.289 2.281 11.296 2.281l20.351 3.103 15.785-20.702 15.395 20.702h29.909l15.107-20.702 16.176 20.702h28.878l14.646-20.702 16.638 20.702h28.878l15.607-20.702 15.677 20.702h28.878l15.857-20.702 15.427 20.702 22.243-3.103c14.333 0 25.953-11.62 25.953-25.953v-72.917l.119-26.211h-54.727z" fill="#a862e6"/><g fill="#96e6f0"><path d="m108.233 375.776v-106.813c0-8.742 7.087-15.829 15.829-15.829h28.754c8.742 0 15.829 7.087 15.829 15.829v106.812"/><path d="m461.853 137.186h-263.349c-7.153 0-12.951-5.798-12.951-12.951v-29.31c0-7.153 5.798-12.951 12.951-12.951h263.348c7.153 0 12.951 5.798 12.951 12.951v29.31c.001 7.152-5.798 12.951-12.95 12.951z"/><path d="m461.853 220.781h-263.349c-7.153 0-12.951-5.798-12.951-12.951v-29.31c0-7.153 5.798-12.951 12.951-12.951h263.348c7.153 0 12.951 5.798 12.951 12.951v29.31c.001 7.153-5.798 12.951-12.95 12.951z"/></g></g><g><g fill="#4e0325"><path d="m461.852 143.585c10.67 0 19.35-8.68 19.35-19.35v-29.31c0-10.67-8.681-19.35-19.35-19.35h-26.435l.061-13.355c.053-11.724-4.473-22.757-12.744-31.066s-19.283-12.884-31.006-12.884h-158.075c-24.124 0-43.75 19.626-43.75 43.75v15.598c-6.36 3.174-10.749 9.73-10.749 17.308v29.31c0 7.578 4.389 14.134 10.749 17.308v19.67c-6.36 3.174-10.749 9.73-10.749 17.308v29.31c0 7.578 4.389 14.134 10.749 17.308v38.033h-15.651c-2.558-9.452-11.186-16.436-21.436-16.436h-28.754c-12.256 0-22.228 9.972-22.228 22.228v7.48c-35.46 18.981-59.647 56.378-59.647 99.332v93.435c0 21.592 17.334 39.212 38.818 39.678l19.614 2.99c.537.082 1.075.122 1.608.122 3.297 0 6.445-1.53 8.48-4.199l5.121-6.717c.682.248 1.415.39 2.183.39.689 0 1.352-.112 1.974-.314l4.862 6.538c2.012 2.706 5.186 4.301 8.559 4.301h29.909c3.406 0 6.608-1.627 8.616-4.379l4.678-6.411c.575.17 1.183.265 1.814.265.844 0 1.648-.168 2.386-.465l5.385 6.891c2.022 2.587 5.121 4.099 8.404 4.099h28.878c3.461 0 6.708-1.68 8.706-4.506l4.521-6.391c.668.236 1.383.371 2.131.371.727 0 1.422-.127 2.073-.35l5.538 6.891c2.025 2.518 5.082 3.984 8.314 3.984h28.878c3.348 0 6.501-1.572 8.516-4.244l5.004-6.637c.656.227 1.357.356 2.09.356.746 0 1.459-.134 2.124-.369l5.049 6.667c2.015 2.662 5.163 4.227 8.502 4.227h28.878c3.32 0 6.448-1.545 8.467-4.18l7.273-9.495 6.991 9.383c2.326 3.12 6.164 4.727 10.026 4.19l21.571-3.009c19.822-.429 35.817-16.687 35.817-36.61v-72.869l.783-172.229h27.125c10.67 0 19.35-8.68 19.35-19.35v-29.31c0-10.67-8.681-19.35-19.35-19.35h-26.816l.071-15.585h26.744zm6.552-48.661v29.31c0 3.612-2.939 6.552-6.552 6.552h-263.348c-3.612 0-6.551-2.939-6.551-6.552v-29.31c0-3.612 2.939-6.551 6.551-6.551h263.348c3.613 0 6.552 2.939 6.552 6.551zm-234.751-55.324h158.075c6.007 0 11.649 2.345 15.887 6.603 4.239 4.258 6.558 9.911 6.531 15.918l-.061 13.453h-202.851v-13.555c0-12.362 10.058-22.419 22.419-22.419zm-109.591 219.934h28.754c5.2 0 9.429 4.23 9.429 9.429v100.412h-47.613v-100.411c0-5.2 4.23-9.43 9.43-9.43zm-22.229 41.968v67.874h-38.088c1.947-27.956 16.545-52.472 38.088-67.874zm310.78 170.776c0 8.429-6.858 15.287-15.287 15.287-.493 0-.985.034-1.474.102l-15.989 2.231-11.654-15.639c-1.998-2.681-5.138-4.27-8.482-4.292-3.323-.045-6.505 1.526-8.538 4.18l-12.655 16.521h-18.311l-12.476-16.475c-.604-.798-1.32-1.483-2.102-2.072v-44.663c0-3.534-2.865-6.399-6.399-6.399s-6.4 2.865-6.4 6.399v44.661c-.789.593-1.51 1.285-2.118 2.091l-12.408 16.457h-18.45l-13.434-16.717c-.366-.455-.774-.861-1.202-1.245v-45.247c0-3.534-2.865-6.399-6.399-6.399s-6.4 2.865-6.4 6.399v44.17c-1.166.736-2.202 1.687-3.02 2.844l-11.459 16.195h-18.157l-12.974-16.603c-.582-.745-1.263-1.389-2.004-1.945v-44.662c0-3.534-2.865-6.399-6.399-6.399s-6.399 2.865-6.399 6.399v44.662c-.833.626-1.589 1.363-2.217 2.225l-11.911 16.323h-19.129l-12.197-16.401c-.616-.828-1.351-1.538-2.158-2.145v-44.663c0-3.534-2.865-6.399-6.399-6.399s-6.4 2.865-6.4 6.399v44.661c-.774.582-1.483 1.258-2.083 2.046l-11.949 15.672-14.098-2.15c-.531-.081-1.069-.122-1.607-.122-10.121 0-18.356-8.235-18.356-18.356v-87.035h349.173l-.078 17.186v72.918zm.136-102.902h-72.896v-21.21c0-30.839 25.089-55.929 55.928-55.929h17.319zm.409-89.937h-17.377c-37.896 0-68.726 30.831-68.726 68.728v21.21h-152.011v-84.873h25.525c5.89 0 10.666-4.776 10.666-10.666v-46.656h202.162zm55.246-100.919v29.31c0 3.612-2.939 6.551-6.552 6.551h-263.348c-3.612 0-6.551-2.939-6.551-6.551v-29.31c0-3.612 2.939-6.551 6.551-6.551h263.348c3.613 0 6.552 2.939 6.552 6.551zm-54.699-19.35h-202.471v-15.585h202.541z"/><path d="m312.044 277.991c3.534 0 6.399-2.865 6.399-6.399v-12.914c0-3.534-2.865-6.4-6.399-6.4s-6.4 2.865-6.4 6.4v12.914c.001 3.534 2.866 6.399 6.4 6.399z"/><path d="m254.906 309.886c3.534 0 6.399-2.865 6.399-6.399v-12.914c0-3.534-2.865-6.4-6.399-6.4s-6.399 2.865-6.399 6.4v12.914c-.001 3.534 2.864 6.399 6.399 6.399z"/><path d="m292.114 333.77c3.534 0 6.399-2.865 6.399-6.4v-12.914c0-3.534-2.865-6.399-6.399-6.399s-6.4 2.865-6.4 6.399v12.914c0 3.534 2.866 6.4 6.4 6.4z"/></g><path d="m292.114 120.245h-29.717c-5.89 0-10.666-4.776-10.666-10.666s4.776-10.666 10.666-10.666h29.717c5.89 0 10.666 4.776 10.666 10.666s-4.776 10.666-10.666 10.666z" fill="#fff"/><path d="m223.054 120.245h-10.121c-5.89 0-10.666-4.776-10.666-10.666s4.776-10.666 10.666-10.666h10.121c5.89 0 10.666 4.776 10.666 10.666s-4.776 10.666-10.666 10.666z" fill="#fff"/><path d="m292.114 203.841h-29.717c-5.89 0-10.666-4.776-10.666-10.666s4.776-10.666 10.666-10.666h29.717c5.89 0 10.666 4.776 10.666 10.666s-4.776 10.666-10.666 10.666z" fill="#fff"/><path d="m223.054 203.841h-10.121c-5.89 0-10.666-4.776-10.666-10.666s4.776-10.666 10.666-10.666h10.121c5.89 0 10.666 4.776 10.666 10.666s-4.776 10.666-10.666 10.666z" fill="#fff"/></g><g><path d="m82.317 124.904-8.761 24.635c-.375 1.055-1.118 1.891-2.055 2.313l-21.888 9.861c-3.092 1.393-3.092 6.32 0 7.713l21.888 9.861c.937.422 1.68 1.258 2.055 2.313l8.761 24.635c1.238 3.48 5.615 3.48 6.853 0l8.761-24.635c.375-1.055 1.118-1.891 2.055-2.313l21.887-9.861c3.092-1.393 3.092-6.32 0-7.713l-21.887-9.861c-.937-.422-1.68-1.258-2.055-2.313l-8.761-24.635c-1.237-3.481-5.615-3.481-6.853 0z" fill="#96e6f0"/><path d="m44.753 30.502-6.499 18.274c-.278.782-.829 1.402-1.524 1.716l-16.236 7.315c-2.294 1.034-2.294 4.688 0 5.722l16.236 7.315c.695.313 1.246.933 1.524 1.716l6.499 18.274c.918 2.582 4.165 2.582 5.083 0l6.499-18.274c.278-.782.829-1.403 1.524-1.716l16.236-7.315c2.294-1.034 2.294-4.688 0-5.722l-16.235-7.315c-.695-.313-1.246-.933-1.524-1.716l-6.499-18.274c-.919-2.582-4.166-2.582-5.084 0z" fill="#96e6f0"/><g fill="#74b5f0"><ellipse cx="138.439" cy="19.131" rx="19.131" ry="19.131" transform="matrix(.994 -.109 .109 .994 -1.261 15.22)"/><circle cx="484.974" cy="28.934" r="8.252"/></g></g></g></svg>