<svg id="Capa_1" enable-background="new 0 0 509.213 509.213" height="512" viewBox="0 0 509.213 509.213" width="512" xmlns="http://www.w3.org/2000/svg"><g><path d="m364.259 389.213 34.394 34.393h-113.788v30h113.788l-34.394 34.394 21.213 21.213 70.606-70.607-70.606-70.606z"/><path d="m438.472 325.213 70.606-70.607-70.606-70.606-21.213 21.213 34.394 34.393h-91.788v30h91.788l-34.394 34.394z"/><path d="m364.259 120 21.213 21.213 70.606-70.607-70.606-70.606-21.213 21.213 34.394 34.393h-113.788v30h113.788z"/><path d="m298.89 251.741c31.977-34.985 13.466-91.609-33.502-101.213-.524-6.449-2.091-12.82-4.746-18.963-17.874-41.355-73.329-49.934-103.122-15.835-11.29-12.923-27.956-21.124-46.531-21.124-31.714 0-53.302 18.513-59.868 47.535-48.034 14.85-67.278 74.698-34.971 115.33-32.306 35.344-13.012 91.704 33.503 101.21 2.529 31.112 28.84 55.925 61.336 55.925 18.575 0 35.241-8.201 46.531-21.124 11.291 12.923 27.957 21.124 46.533 21.124 31.649 0 53.293-18.45 59.868-47.534 48.036-14.853 67.278-74.7 34.969-115.331zm-187.902 132.865c-12.696 0-24.1-7.404-29.052-18.862-5.578-12.906-1.616-27.92 10.87-41.192l-21.852-20.557c-7.334 7.796-12.84 16.274-16.448 25.039-23.856-5.779-32.702-35.126-15.03-52.559 7.272-7.17 17.705-10.473 27.907-8.852l4.723-29.625c-10.442-1.668-21.015-.602-30.746 2.833-7.096-7.842-11.181-18.221-11.181-29.059 0-21.361 15.613-39.594 36.317-42.409l12.922-1.518.054-12.987c.856-16.944 10.803-30.252 31.516-30.252 17.383 0 31.524 13.858 31.524 30.894v16.42c-.377 17.893-14.854 32.55-32.38 32.719l.289 29.998c11.705-.112 22.699-3.566 32.091-9.445v128.522c.001 17.034-14.141 30.892-31.524 30.892zm137.556-44.756-12.719 1.73-.257 12.833c-.2 15.607-10.321 30.193-31.516 30.193-17.384 0-31.526-13.858-31.526-30.893v-14.289c.377-17.894 14.853-32.55 32.378-32.719l-.289-29.998c-11.705.112-22.697 3.564-32.089 9.444v-130.651c0-17.035 14.143-30.894 31.526-30.894 12.695 0 24.099 7.403 29.051 18.861 5.578 12.906 1.617 27.921-10.869 41.194l21.852 20.555c7.333-7.795 12.839-16.273 16.447-25.038 24.172 5.854 32.494 35.332 15.027 52.56-7.27 7.167-17.695 10.474-27.903 8.851l-4.723 29.625c10.269 1.64 20.86.679 30.76-2.815 7.088 7.84 11.167 18.212 11.167 29.041.001 21.361-15.613 39.593-36.317 42.41z"/></g></svg>