<svg id="Capa_1" enable-background="new 0 0 510.029 510.029" height="512" viewBox="0 0 510.029 510.029" width="512" xmlns="http://www.w3.org/2000/svg"><g><path d="m459.638 30c-6.19-17.461-22.873-30-42.43-30s-36.239 12.539-42.43 30h-47.57v47.57c-17.461 6.19-30 22.873-30 42.43s12.539 36.239 30 42.43v47.57h47.57c6.19 17.461 22.873 30 42.43 30s36.239-12.539 42.43-30h47.57v-180zm17.57 150h-45v15c0 8.271-6.728 15-15 15-8.271 0-15-6.729-15-15v-15h-45v-45h-15c-8.271 0-15-6.729-15-15s6.729-15 15-15h15v-45h45v-15c0-8.271 6.729-15 15-15 8.272 0 15 6.729 15 15v15h45z"/><path d="m306.687 240c-19.557 0-36.239 12.539-42.43 30h-17.559v-59.048h.001c0-15.168-.001-136.066-.001-148.273 0-34.545-28.724-62.649-64.03-62.649-33.825 0-61.59 25.801-63.862 58.342-20.818-4.552-43.528 1.014-59.701 16.729-12.29 11.942-19.06 27.854-19.06 44.802 0 8.395 1.665 16.531 4.835 24.061-46.991 18.399-57.006 79.323-17.797 111.067-39.187 31.728-29.226 92.657 17.796 111.069-9.433 22.411-5.291 49.897 14.226 68.861 15.849 15.4 38.369 21.393 59.701 16.729 2.268 32.539 30.035 58.339 63.862 58.339 34.412 0 62.558-26.696 63.963-60.029h17.626c6.19 17.461 22.873 30 42.43 30s36.239-12.539 42.43-30h47.57v-180h-47.57c-6.191-17.461-22.874-30-42.43-30zm-124.019 240.029c-18.765 0-34.03-14.642-34.03-32.64 0-12.727 7.799-24.386 19.867-29.703l-12.094-27.453c-11.755 5.179-21.371 13.597-27.963 23.88-13.603 12.489-35.119 12.274-48.438-.668-6.426-6.244-9.966-14.515-9.966-23.286 0-19.325 17.053-34.273 36.714-33.08l1.793-29.947c-15.832-.943-31.392 3.866-43.745 13.322-18.035-2.278-32.005-17.124-32.005-35.054 0-19.503 16.522-35.369 36.832-35.369h43.169c3.649 15.04 12.691 28.58 25.696 37.851l17.414-24.428c-17.907-12.767-19.586-36.865-5.579-51.949l-21.982-20.414c-7.688 8.277-13.002 18.235-15.575 28.94h-43.142c-20.31 0-36.832-15.866-36.832-35.368 0-17.93 13.97-32.775 32.005-35.054 20.829 15.966 49.578 17.903 72.437 4.777l-14.939-26.016c-23.106 13.268-52.26-2.907-52.26-28.468 0-8.771 3.54-17.042 9.966-23.286 13.245-12.871 34.601-13.156 48.214-.875 6.956 10.975 17.382 19.802 30.218 24.942l11.152-27.85c-12.731-5.098-20.957-16.935-20.957-30.155 0-18.003 15.266-32.649 34.03-32.649 18.765 0 34.03 14.647 34.03 32.649v94.762c-9.458-5.793-20.561-9.135-32.429-9.135v30c17.869 0 32.407 14.624 32.429 32.606v59.089h-.012v47.57c-17.461 6.19-30 22.873-30 42.43s12.539 36.239 30 42.43v45.403c-.248 17.793-15.408 32.196-34.018 32.196zm184.019-60.029h-45v15c0 8.271-6.729 15-15 15s-15-6.729-15-15v-15c-10.207 0-30.703 0-45 0v-45h-15c-8.271 0-15-6.729-15-15 0-8.272 6.729-15 15-15h15v-45h45v-15c0-8.272 6.729-15 15-15s15 6.728 15 15v15h45z"/></g></svg>