<svg id="Capa_1" enable-background="new 0 0 512 512" height="512" viewBox="0 0 512 512" width="512" xmlns="http://www.w3.org/2000/svg"><g><path d="m363.868 151.921c-.524-6.448-2.091-12.819-4.746-18.962-17.874-41.355-73.329-49.935-103.122-15.835-11.29-12.923-27.956-21.124-46.531-21.124-31.714 0-53.302 18.513-59.868 47.535-48.157 14.887-67.215 74.778-34.971 115.33-32.302 35.341-13.019 91.702 33.503 101.21 2.529 31.112 28.84 55.925 61.336 55.925 18.575 0 35.241-8.201 46.531-21.124 11.291 12.923 27.957 21.124 46.533 21.124 31.654 0 53.294-18.454 59.868-47.534 48.036-14.853 67.278-74.7 34.969-115.331 31.976-34.984 13.473-91.612-33.502-101.214zm-154.399 234.079c-12.696 0-24.1-7.404-29.052-18.862-5.578-12.906-1.616-27.92 10.869-41.192l-21.851-20.557c-7.334 7.796-12.84 16.275-16.448 25.04-14.035-3.4-24.331-15.718-24.331-30.448 0-19.555 17.906-34.03 37.208-30.963l4.723-29.625c-10.442-1.668-21.015-.602-30.746 2.833-7.096-7.842-11.181-18.221-11.181-29.059 0-21.361 15.613-39.594 36.317-42.409l12.922-1.518.054-12.985c.891-17.447 11.184-30.255 31.516-30.255 17.383 0 31.524 13.858 31.524 30.894v16.42c-.377 17.893-14.854 32.55-32.38 32.719l.289 29.998c11.705-.112 22.699-3.566 32.091-9.445v128.522c0 17.034-14.141 30.892-31.524 30.892zm137.554-44.757-12.718 1.73-.257 12.833c-.37 14.459-9.184 30.194-31.515 30.194-17.384 0-31.526-13.858-31.526-30.893v-14.289c.377-17.894 14.853-32.55 32.378-32.719l-.289-29.998c-11.705.112-22.697 3.564-32.089 9.444v-130.651c0-17.035 14.143-30.894 31.526-30.894 12.695 0 24.099 7.403 29.051 18.861 5.579 12.906 1.617 27.921-10.869 41.194l21.852 20.555c7.333-7.796 12.839-16.273 16.447-25.038 24.174 5.854 32.495 35.331 15.027 52.56-7.269 7.167-17.698 10.474-27.903 8.851l-4.723 29.625c10.269 1.64 20.86.679 30.76-2.815 23.124 25.579 8.197 66.914-25.152 71.45z"/><path d="m157.578 3.165h30.001v67.648h-30.001z" transform="matrix(.924 -.383 .383 .924 -1.023 68.834)"/><path d="m305.597 21.989h67.648v30.001h-67.648z" transform="matrix(.383 -.924 .924 .383 175.401 336.443)"/><path d="m138.754 460.01h67.648v30.001h-67.648z" transform="matrix(.383 -.924 .924 .383 -332.321 452.749)"/><path d="m324.421 441.187h30.001v67.648h-30.001z" transform="matrix(.924 -.383 .383 .924 -155.899 165.979)"/><path d="m22.078 138.731h30v67.627h-30z" transform="matrix(.383 -.924 .924 .383 -136.518 140.751)"/><path d="m3.265 324.455h67.627v30h-67.627z" transform="matrix(.924 -.383 .383 .924 -127.122 40.051)"/><path d="m441.108 157.545h67.627v30h-67.627z" transform="matrix(.924 -.383 .383 .924 -29.876 194.948)"/><path d="m459.922 305.641h30v67.627h-30z" transform="matrix(.383 -.924 .924 .383 -20.473 648.267)"/></g></svg>