<svg id="Capa_1" enable-background="new 0 0 510 510" height="512" viewBox="0 0 510 510" width="512" xmlns="http://www.w3.org/2000/svg"><g><path d="m405.54 22.5h-41.352l-20.384 61.151 21.925 43.849h34.07c11.139 0 20.2 9.061 20.2 20.2v36.98c-22.251-12.05-50.568-14.657-79.697-3.585-25.58-20.534-63.316-17.636-85.303 7.528-23.652-27.072-63.919-26.445-86.306-7.901-28.737-10.631-56.693-7.961-78.694 3.959v-36.981c0-11.139 9.062-20.2 20.2-20.2h34.077l21.917-43.907-20.385-61.093h-41.348c-56.95 0-104.46 46.21-104.46 104.46v120.49c0 24.814 20.187 45 45 45h53.084c1.493 13.917 6.945 27.098 15.546 37.915-32.302 35.341-13.019 91.702 33.503 101.21 2.529 31.112 28.84 55.925 61.336 55.925 18.575 0 35.241-8.201 46.531-21.124 11.291 12.923 27.957 21.124 46.533 21.124 31.654 0 53.294-18.454 59.868-47.534 48.036-14.853 67.278-74.7 34.969-115.331 8.294-9.074 13.568-20.201 15.321-32.185h53.309c24.814 0 45-20.186 45-45v-120.49c0-57.719-46.939-104.46-104.46-104.46zm-375.54 224.95v-120.49c0-41.397 33.7-74.46 74.46-74.46h19.732l9.613 28.808-8.082 16.192h-15.523c-27.68 0-50.2 22.52-50.2 50.2v69.75h34.869c.102-.075 4.864-3.556 4.561-3.334.938-.747 20.553-15.931 51.64-7.563-1.08 3.015-1.882 5.89-2.469 8.482-22.622 6.993-40.313 24.973-47.475 47.415h-56.126c-8.271 0-15-6.728-15-15zm178.469 210.05c-12.696 0-24.1-7.404-29.052-18.862-5.578-12.906-1.616-27.92 10.869-41.192l-21.851-20.557c-7.333 7.795-12.838 16.273-16.447 25.037-23.917-5.791-32.668-35.158-15.031-52.557 7.273-7.17 17.707-10.474 27.907-8.852l4.723-29.625c-10.44-1.668-21.014-.601-30.745 2.834-7.096-7.842-11.182-18.222-11.182-29.06 0-21.361 15.613-39.594 36.317-42.409l12.922-1.518.054-12.985c.891-17.446 11.184-30.254 31.516-30.254 17.383 0 31.524 13.858 31.524 30.894v16.42c-.377 17.893-14.854 32.55-32.38 32.719l.289 29.998c11.705-.112 22.699-3.565 32.091-9.445v128.522c0 17.034-14.141 30.892-31.524 30.892zm137.554-44.757-12.718 1.73-.257 12.833c-.371 14.458-9.185 30.193-31.516 30.193-17.384 0-31.526-13.858-31.526-30.893v-14.289c.377-17.894 14.853-32.55 32.378-32.719l-.289-29.998c-11.705.112-22.697 3.564-32.089 9.444v-130.65c0-17.035 14.143-30.894 31.526-30.894 12.695 0 24.099 7.403 29.051 18.861 5.579 12.906 1.617 27.921-10.869 41.194l21.852 20.555c7.332-7.795 12.838-16.273 16.446-25.036 23.853 5.775 32.704 35.123 15.028 52.558-7.27 7.168-17.694 10.474-27.903 8.851l-4.723 29.625c10.269 1.64 20.86.679 30.76-2.815 23.125 25.579 8.198 66.914-25.151 71.45zm133.977-165.293c0 8.271-6.728 15-15 15h-56.397c-7.16-19.438-24.199-34.625-45.735-39.028-.466-5.726-1.755-11.39-3.897-16.889 31.067-8.34 50.659 6.833 51.604 7.587l4.556 3.33h34.869v-69.75c0-27.681-22.52-50.2-50.2-50.2h-15.529l-8.075-16.151 9.616-28.849h19.729c40.843 0 74.46 33.175 74.46 74.46v120.49z"/></g></svg>