<svg id="Capa_1" enable-background="new 0 0 510 510" height="512" viewBox="0 0 510 510" width="512" xmlns="http://www.w3.org/2000/svg"><g><path d="m420 420v-59.567h-150v-49.063c9.228 5.475 20.014 8.631 31.533 8.631 31.654 0 53.294-18.454 59.868-47.534 48.036-14.853 67.278-74.7 34.969-115.331 31.954-34.96 13.515-91.602-33.502-101.215-.524-6.448-2.091-12.818-4.746-18.961-17.874-41.356-73.329-49.936-103.122-15.836-11.29-12.923-27.956-21.124-46.531-21.124-31.714 0-53.302 18.513-59.868 47.535-48.157 14.887-67.215 74.778-34.971 115.33-32.306 35.344-13.012 91.704 33.503 101.21 3.652 44.931 53.96 70.375 92.867 47.295v49.062h-150v59.568h-30v90h90v-90h-30v-29.567h120v29.567h-30v90h90v-90h-30v-29.567h120v29.567h-30v90h90v-90zm-118.467-390c12.695 0 24.099 7.403 29.051 18.861 5.579 12.906 1.617 27.921-10.869 41.194l21.852 20.555c7.333-7.796 12.839-16.274 16.447-25.038 24.177 5.853 32.494 35.332 15.027 52.56-7.27 7.168-17.695 10.474-27.903 8.851l-4.723 29.625c10.269 1.64 20.86.679 30.76-2.815 23.124 25.58 8.197 66.915-25.151 71.451l-12.718 1.73-.257 12.833c-.002.076-.403 8.141-4.418 15.742-5.206 9.859-13.817 14.451-27.098 14.451-17.384 0-31.526-13.858-31.526-30.893v-19.115c.377-17.894 14.853-32.55 32.378-32.719l-.289-29.998c-11.705.112-22.697 3.564-32.089 9.444v-125.825c0-17.036 14.142-30.894 31.526-30.894zm-93.064 260c-12.696 0-24.1-7.404-29.052-18.862-5.578-12.906-1.616-27.92 10.869-41.192l-21.851-20.557c-7.333 7.795-12.839 16.273-16.447 25.037-23.917-5.793-32.668-35.158-15.031-52.557 7.273-7.17 17.706-10.475 27.907-8.852l4.723-29.625c-10.441-1.668-21.014-.602-30.745 2.833-7.097-7.841-11.182-18.221-11.182-29.059 0-21.361 15.613-39.594 36.317-42.409l12.922-1.518.054-12.985c.039-.766.551-8.924 4.807-16.517 5.254-9.372 13.741-13.737 26.709-13.737 17.383 0 31.524 13.858 31.524 30.894v16.42c-.377 17.893-14.854 32.55-32.38 32.719l.289 29.998c11.705-.112 22.699-3.566 32.091-9.445v128.522c0 17.034-14.141 30.892-31.524 30.892zm-88.469 190h-30v-30h30zm150 0h-30v-30h30zm150 0h-30v-30h30z"/></g></svg>