<svg id="Capa_1" enable-background="new 0 0 510 510" height="512" viewBox="0 0 510 510" width="512" xmlns="http://www.w3.org/2000/svg"><g><path d="m362.868 55.92c-.524-6.448-2.091-12.818-4.746-18.961-17.874-41.355-73.329-49.935-103.122-15.835-11.29-12.923-27.956-21.124-46.531-21.124-31.714 0-53.302 18.513-59.868 47.535-48.157 14.887-67.215 74.778-34.971 115.33-31.979 34.986-13.468 91.61 33.503 101.21 3.646 44.851 53.85 70.441 92.867 47.295v47.204c-11.831-8.529-26.334-13.574-42-13.574h-48v33c0 39.701 32.299 72 72 72h18v30h-75v30h180v-30h-75v-30h18c39.701 0 72-32.299 72-72v-33h-48c-15.666 0-30.169 5.045-42 13.574v-47.205c9.229 5.475 20.014 8.631 31.533 8.631 31.654 0 53.294-18.454 59.868-47.534 48.036-14.853 67.278-74.7 34.969-115.331 31.976-34.984 13.474-91.611-33.502-101.215zm-154.399 234.08c-12.696 0-24.1-7.404-29.052-18.862-5.578-12.906-1.616-27.92 10.869-41.192l-21.851-20.557c-7.333 7.795-12.839 16.273-16.447 25.038-14.006-3.393-24.332-15.687-24.332-30.446 0-19.553 17.909-34.033 37.208-30.963l4.723-29.625c-10.442-1.668-21.015-.602-30.746 2.833-7.096-7.841-11.181-18.221-11.181-29.059 0-21.361 15.613-39.594 36.317-42.409l12.922-1.518.054-12.985c.891-17.447 11.184-30.255 31.516-30.255 17.383 0 31.524 13.858 31.524 30.894v16.42c-.377 17.893-14.854 32.55-32.38 32.719l.289 29.998c11.705-.112 22.699-3.566 32.091-9.445v128.522c0 17.034-14.141 30.892-31.524 30.892zm13.531 130c-23.159 0-42-18.841-42-42v-3h18c23.159 0 42 18.841 42 42v3zm90-45h18v3c0 23.159-18.841 42-42 42h-18v-3c0-23.159 18.841-42 42-42zm34.023-129.757-12.718 1.73-.257 12.833c-.37 14.459-9.184 30.194-31.515 30.194-17.384 0-31.526-13.858-31.526-30.893v-19.115c.377-17.894 14.853-32.55 32.378-32.719l-.289-29.998c-11.705.112-22.697 3.564-32.089 9.444v-125.825c0-17.035 14.143-30.894 31.526-30.894 12.695 0 24.099 7.403 29.051 18.861 5.579 12.906 1.617 27.921-10.869 41.194l21.852 20.555c7.333-7.796 12.839-16.274 16.447-25.039 23.851 5.774 32.703 35.126 15.027 52.561-7.27 7.168-17.695 10.474-27.903 8.851l-4.723 29.625c10.269 1.64 20.86.679 30.76-2.815 23.124 25.579 8.197 66.914-25.152 71.45z"/></g></svg>