<svg id="Capa_1" enable-background="new 0 0 510 510" height="512" viewBox="0 0 510 510" width="512" xmlns="http://www.w3.org/2000/svg"><g><path d="m510 30h-60v-30h-90v75h-210v-75h-90v30h-60v120h60v30h90v-75h45v86.209c-24.692 4.604-40.9 22.024-46.399 46.326-48.157 14.887-67.215 74.778-34.971 115.33-32.302 35.341-13.019 91.702 33.503 101.21 2.529 31.112 28.84 55.925 61.336 55.925 18.575 0 35.241-8.201 46.531-21.123 11.291 12.922 27.957 21.123 46.533 21.123 31.654 0 53.294-18.455 59.868-47.534 48.036-14.852 67.278-74.7 34.969-115.331 31.975-34.982 13.476-91.613-33.502-101.216-2.124-26.082-21.187-48.548-47.868-54.449v-86.47h45v75h90v-30h60zm-480 90v-60h30v60zm90 30h-30v-120h30zm88.469 330c-12.696 0-24.1-7.404-29.052-18.862-5.578-12.906-1.616-27.92 10.869-41.192l-21.851-20.557c-7.332 7.795-12.838 16.272-16.446 25.036-14.009-3.393-24.333-15.685-24.333-30.444 0-19.555 17.906-34.03 37.208-30.963l4.723-29.625c-10.442-1.667-21.015-.602-30.746 2.833-7.096-7.841-11.181-18.221-11.181-29.059 0-21.361 15.613-39.594 36.317-42.409l12.922-1.519.054-12.985c.891-17.446 11.184-30.254 31.516-30.254 17.383 0 31.524 13.858 31.524 30.894v16.42c-.377 17.893-14.854 32.55-32.38 32.719l.289 29.998c11.705-.112 22.699-3.565 32.091-9.445v128.522c0 17.034-14.141 30.892-31.524 30.892zm122.115-241.139c5.579 12.906 1.617 27.921-10.869 41.194l21.852 20.555c7.333-7.796 12.839-16.275 16.447-25.039 23.851 5.775 32.703 35.126 15.027 52.561-7.269 7.168-17.698 10.475-27.903 8.851l-4.723 29.625c10.269 1.64 20.86.679 30.76-2.815 23.124 25.58 8.197 66.915-25.151 71.451l-12.718 1.73-.257 12.833c-.371 14.458-9.185 30.193-31.516 30.193-17.384 0-31.526-13.858-31.526-30.893v-19.115c.377-17.894 14.853-32.55 32.378-32.719l-.289-29.998c-11.705.112-22.697 3.564-32.089 9.444v-125.825c0-17.035 14.143-30.894 31.526-30.894 12.695 0 24.099 7.403 29.051 18.861zm-45.584-46.61c-11.81 3.267-22.19 9.934-30 18.873-7.81-8.938-18.19-15.607-30-18.873v-87.251h60zm105-42.251v-120h30v120zm90-30h-30v-60h30z"/></g></svg>