<svg id="Capa_1" enable-background="new 0 0 510 510" height="512" viewBox="0 0 510 510" width="512" xmlns="http://www.w3.org/2000/svg"><g><path d="m432.098 230.678v-80.246h-33.86c17.2-41.456-5.695-87.801-47.497-100.479-6.014-28.478-31.846-49.953-62.709-49.953-19.662 0-37.274 8.722-49.029 22.411-11.756-13.689-29.368-22.411-49.03-22.411-30.864 0-56.696 21.476-62.709 49.955-41.647 12.634-64.739 58.911-47.492 100.478h-37.674v44.567c0 85.141 49.91 101.896 49.91 211.95v103.05h240v-75.07h75v-96.71h60.894zm-303.211-149.2c4.986 15.535 16.056 28.785 31.293 36.631l13.735-26.671c-11.086-5.71-17.973-16.742-17.973-28.793 0-18.001 15.266-32.646 34.031-32.646 18.65.001 34.027 14.533 34.027 32.647h30.005c0-18.12 15.382-32.646 34.027-32.646 18.765 0 34.031 14.645 34.031 32.646 0 12.05-6.887 23.083-17.974 28.793l13.736 26.671c15.237-7.847 26.308-21.098 31.293-36.633 25.965 13.043 32.967 46.862 14.522 68.957-11.667 0-118.731 0-124.641 0l27-36-24-18-40.5 54h-87.13c-18.5-22.164-11.352-55.958 14.518-68.956zm248.121 226.742v96.71c-13.566 0-106.598.001-107.553.001-9.56 0-18.591-4.209-24.796-11.564l-22.024-26.105-22.93 19.346 22.024 26.104c12.421 14.724 30.344 22.385 47.964 22.219h32.315v45.069h-180v-73.05c0-115.994-49.91-137.055-49.91-211.95v-14.567h180.692l-40.503 50.629 23.426 18.741 55.496-69.371h110.89v55.108l24.196 72.679h-49.287z"/></g></svg>