<svg id="Capa_1" enable-background="new 0 0 510 510" height="512" viewBox="0 0 510 510" width="512" xmlns="http://www.w3.org/2000/svg"><g><path d="m491.524 217.241c12.082-16.51 18.476-36.057 18.476-56.607 0-56.967-49.719-101.941-106.988-95.282-.082-.101-1.279-1.529-1.967-2.31l-.015.013c-29.336-33.388-94.396-49.348-157.667-20.853-25.807-26.046-61.56-42.202-101.015-42.202-78.492 0-142.348 63.925-142.348 142.5 0 23.296 5.613 45.303 15.557 64.739-36.156 67.157-2.339 156.414 82.337 153.159 19.316 23.788 56.621 48.905 101.927 48.902 11.668 0 23.878-1.669 36.436-5.454 15.687 28.103 45.632 46.154 78.522 46.154 21.809 1.663 46.245-5.702 73.112 13.307 10.069 7.139 16.08 18.986 16.08 31.693v15h72.711l2.582-11.792c9.093-41.544 5.104-100.092-30.732-129.405 55.848-27.205 76.043-99.088 42.992-151.562zm-349.176-187.241c61.948 0 112.348 50.468 112.348 112.5s-50.4 112.5-112.348 112.5c-61.949 0-112.348-50.468-112.348-112.5s50.399-112.5 112.348-112.5zm257.316 319.881c-11.808-1.154-24.754-.688-38.817 1.429l4.459 29.666c31.669-4.757 54.91.471 69.061 15.549 21.431 22.834 19.805 63.468 17.421 83.476h-19.442c-3.637-16.544-13.209-31.316-27.114-41.175-36.625-25.913-70.998-17.073-90.451-18.825-21.039 0-40.262-11.096-51.016-28.558 8.929-5.604 17.54-12.533 25.72-20.723 20.051-20.075 47.392-57.154 93.46-63.228l-3.92-29.742c-28.96 3.817-51.621 16.74-69.582 31.238l-.083-.096c-14.115 12.173-35.372 10.594-47.538-3.544l-22.74 19.568c8.822 10.251 20.396 17.269 33.285 20.363-10.134 10.686-20.722 19.697-34.144 26.02-36.943 15.455-75.509 7.151-104.446-17.166 9.656-2.877 19.62-6.71 29.87-11.528l-12.764-27.15c-19.792 9.305-43.093 16.69-64.706 14.718l-.002.017c-45.952-4.107-63.971-51.398-50.603-93.562 26.103 29.639 64.292 48.372 106.776 48.372 78.491 0 142.348-63.925 142.348-142.5 0-27.883-8.048-53.917-21.932-75.909 52.225-20.183 102.39-4.193 119.497 21.096 7.555 11.174 9.05 24.26 4.428 38.989l28.623 8.982c4.439-14.143 5.124-27.996 2.202-40.868 34.752 1.754 62.486 30.616 62.486 65.844 0 28.989-18.542 54.279-46.14 62.931l8.975 28.627c9.459-2.966 18.437-7.457 26.55-13.193 23.271 46.083-5.33 110.394-69.721 110.882z"/><path d="m354.732 174.786c-13.507-12.809-14.086-34.23-1.291-47.752l-21.791-20.619c-24.718 26.123-23.056 68.009 4.488 91.994-2.902 14.857-15.871 28.22-38.152 28.331l.15 30c34.868-.175 57.154-20.551 65.227-44.373 21.416 4.988 44.668-1.192 60.81-18.253l-21.791-20.619c-12.719 13.444-34.016 14.223-47.65 1.291z"/><path d="m142.348 90c28.904 0 52.42 23.552 52.42 52.5h30c0-45.49-36.974-82.5-82.42-82.5s-82.419 37.01-82.419 82.5h30c0-28.948 23.514-52.5 52.419-52.5z"/><path d="m164.552 138.638-29.104-7.276-12.159 48.638h-33.289v30h90v-30h-25.789z"/></g></svg>