<svg id="Capa_1" enable-background="new 0 0 510 510" height="512" viewBox="0 0 510 510" width="512" xmlns="http://www.w3.org/2000/svg"><g><path d="m443.048 425.738-23.048-14.135v-40.451l-18.883-34.387c16.898-26.897 14.232-60.764-4.747-84.631 20.111-22.003 21.202-54.861 3.512-78.023l20.118-35.119v-40.596l23.048-14.135c29.732 16.691 66.952-4.826 66.952-39.261 0-24.813-20.187-45-45-45-31.559 0-53.428 31.867-41.925 61.318l-33.075 20.286v49.404l-13.875 24.222c-4.238-1.92-8.682-3.376-13.257-4.312-.525-6.447-2.091-12.816-4.746-18.959-17.874-41.355-73.329-49.935-103.122-15.835-11.29-12.923-27.956-21.124-46.531-21.124-31.712 0-53.301 18.511-59.868 47.535-5.599 1.73-10.896 4.136-15.807 7.113l-12.794-19.19v-48.854l-33.075-20.286c11.483-29.4-10.308-61.318-41.925-61.318-24.813 0-45 20.187-45 45 0 34.374 37.16 55.986 66.952 39.262l23.048 14.134v41.146l20.666 30.999c-18.717 27.076-16.793 62.477 2.963 87.324-20.046 21.932-21.089 54.454-3.95 77.449l-19.679 35.838v40.451l-23.048 14.135c-29.722-16.684-66.952 4.822-66.952 39.262 0 24.814 20.187 45 45 45 31.558 0 53.428-31.868 41.925-61.318l33.075-20.285v-49.549l13.345-24.302c4.395 2.038 9.024 3.556 13.788 4.529 2.529 31.114 28.841 55.925 61.336 55.925 18.575 0 35.241-8.201 46.531-21.123 11.291 12.922 27.957 21.123 46.533 21.123 31.654 0 53.294-18.455 59.868-47.534 6.352-1.964 12.311-4.8 17.763-8.351l10.836 19.733v49.549l33.075 20.285c-11.483 29.401 10.308 61.318 41.925 61.318 24.813 0 45-20.186 45-45 0-34.375-37.16-55.986-66.952-39.262zm21.952-395.738c8.271 0 15 6.729 15 15s-6.729 15-15 15c-8.272 0-15-6.729-15-15s6.728-15 15-15zm-420 30c-8.271 0-15-6.729-15-15s6.729-15 15-15 15 6.729 15 15-6.729 15-15 15zm0 420c-8.271 0-15-6.728-15-15s6.729-15 15-15 15 6.728 15 15-6.729 15-15 15zm163.469-95c-12.696 0-24.1-7.404-29.052-18.862-5.578-12.906-1.616-27.92 10.87-41.192l-21.851-20.557c-7.334 7.796-12.84 16.275-16.449 25.041-14.031-3.399-24.331-15.719-24.33-30.449 0-19.508 17.866-34.047 37.207-30.963l4.724-29.625c-10.442-1.668-21.015-.602-30.746 2.834-7.096-7.842-11.182-18.222-11.182-29.06 0-21.361 15.613-39.594 36.317-42.409l12.922-1.518.053-12.985c.893-17.448 11.184-30.255 31.517-30.255 17.383 0 31.524 13.858 31.524 30.894v16.407c-.371 17.898-14.85 32.562-32.38 32.731l.29 29.998c11.706-.112 22.698-3.566 32.09-9.445v128.522c0 17.035-14.141 30.893-31.524 30.893zm137.554-44.757-12.718 1.73-.257 12.833c-.37 14.459-9.184 30.194-31.515 30.194-17.384 0-31.526-13.858-31.526-30.893v-19.115c.377-17.894 14.853-32.55 32.378-32.719l-.289-29.998c-11.705.112-22.697 3.564-32.089 9.443v-125.824c0-17.035 14.143-30.894 31.526-30.894 12.695 0 24.099 7.403 29.051 18.861 5.579 12.906 1.617 27.921-10.869 41.194l21.852 20.555c7.334-7.796 12.84-16.275 16.448-25.04 24.184 5.857 32.487 35.34 15.026 52.562-7.27 7.168-17.696 10.475-27.903 8.851l-4.723 29.625c10.269 1.64 20.86.679 30.76-2.815 23.124 25.579 8.197 66.914-25.152 71.45zm118.977 139.757c-8.272 0-15-6.728-15-15s6.728-15 15-15c8.271 0 15 6.728 15 15s-6.729 15-15 15z"/></g></svg>