<svg id="Capa_1" enable-background="new 0 0 509.984 509.984" height="512" viewBox="0 0 509.984 509.984" width="512" xmlns="http://www.w3.org/2000/svg"><g><path d="m489.234 84.821c-13.128-13.127-30.698-19.113-47.811-17.969 1.212-18.217-5.476-35.317-17.996-47.838-22.423-22.423-50.777-24.6-75.945-8.72-44.576-23.525-100.406 5.347-106.279 56.822-47.101 2.117-74.487 54.979-47.879 95.259-16.947 19.948-19.197 49.016-4.99 71.808l-137.305 137.306-48.44 138.495h414.798v-30h-329.773l48.954-24.329 136.248-136.246c21.042 14.724 45.072 13.671 66.087.409 44.584 23.523 100.407-5.349 106.279-56.827 47.317-2.126 74.327-55.218 47.879-95.256 20.21-23.79 19.15-59.936-3.827-82.914zm-236.688 212.431-120.159 120.158-42.427-42.426 119.9-119.901c10.461 6.102 22.525 9.045 35.13 8.205-.777 11.624 1.744 23.452 7.556 33.964zm-30.499-191.143c13.88-13.879 36.778-11.346 48.204 4.415l24.289-17.607c-6.206-8.561-14.436-15.283-23.745-19.736.526-10.562 4.979-20.791 12.642-28.456 15.104-15.104 39.037-16.958 55.668-4.307l10.212 8.063 9.22-9.145c12.585-11.376 29.031-13.754 43.678.892 12.291 12.291 12.491 32.091.445 44.137l-11.613 11.613c-12.92 12.382-33.519 12.507-46.028.237l-21.008 21.416c8.357 8.198 18.573 13.527 29.372 16.011l-90.881 90.881c-12.078 12.076-31.817 11.872-44.136-.446-8.978-8.978-11.806-22.276-7.205-33.881 5.182-13.07 18.6-20.886 36.814-21.441l-.916-29.986c-10.698.327-20.587 2.43-29.336 6.075-7.519-12.324-6.093-28.318 4.324-38.735zm-149.283 294.104 35.84 35.84-58.552 29.098zm369.585-167.154c-10.478 0-20.215-5.197-26.214-13.473l-24.289 17.609c6.207 8.561 14.437 15.282 23.744 19.734-.526 10.565-4.978 20.794-12.641 28.457-15.104 15.104-39.038 16.956-55.67 4.308l-10.217-7.77-9.256 8.893c-11.156 10.758-28.599 14.098-43.635-.935-12.292-12.293-12.493-32.093-.448-44.138l13.507-13.507c12.919-12.395 33.526-12.524 46.04-.251l21.008-21.416c-8.355-8.197-18.569-13.529-29.368-16.013l88.972-88.971c12.045-12.046 31.846-11.846 44.139.446 8.977 8.978 11.805 22.275 7.205 33.879-5.182 13.071-18.601 20.887-36.814 21.443l.916 29.986c10.697-.327 20.586-2.429 29.335-6.075 12.824 21.027-1.749 47.794-26.314 47.794z"/></g></svg>