<svg id="Capa_1" enable-background="new 0 0 510 510" height="512" viewBox="0 0 510 510" width="512" xmlns="http://www.w3.org/2000/svg"><g><path d="m0 270h150v30h-150z"/><path d="m0 150h150v30h-150z"/><path d="m60 210h75v30h-75z"/><path d="m60 330h75v30h-75z"/><path d="m0 330h30v30h-30z"/><path d="m0 210h30v30h-30z"/><path d="m488.876 255c12.923-11.29 21.124-27.956 21.124-46.531 0-31.713-18.513-53.301-47.535-59.868-14.887-48.157-74.778-67.215-115.33-34.971-35.016-32.004-91.623-13.417-101.214 33.503-6.448.524-12.818 2.091-18.961 4.746-41.368 17.88-49.924 73.339-15.836 103.121-12.923 11.291-21.124 27.957-21.124 46.533 0 31.654 18.454 53.294 47.534 59.868 14.854 48.036 74.7 67.278 115.331 34.969 35.038 32.025 91.632 13.378 101.213-33.502 31.113-2.531 55.922-28.841 55.922-61.335 0-18.576-8.201-35.242-21.124-46.533zm-250.014-75.583c12.904-5.579 27.92-1.616 41.192 10.869l20.557-21.851c-7.796-7.334-16.274-12.84-25.039-16.448 3.398-14.034 15.717-24.331 30.447-24.331 19.51 0 34.045 17.868 30.963 37.208l29.625 4.723c1.665-10.442.599-21.014-2.834-30.745 7.841-7.096 18.222-11.182 29.06-11.182 21.361 0 39.594 15.613 42.409 36.317l1.519 12.922 12.985.054c17.446.891 30.254 11.183 30.254 31.516 0 17.383-13.858 31.524-30.894 31.524h-16.419c-17.894-.377-32.551-14.854-32.72-32.38l-29.998.289c.112 11.705 3.565 22.699 9.445 32.091h-128.521c-17.034 0-30.893-14.142-30.893-31.524 0-12.697 7.404-24.1 18.862-29.052zm222.277 151.167c-12.91 5.577-27.922 1.616-41.194-10.869l-20.555 21.852c7.796 7.333 16.275 12.839 25.038 16.447-5.869 24.225-35.36 32.465-52.56 15.027-7.168-7.271-10.477-17.701-8.851-27.903l-29.625-4.723c-1.665 10.441-.599 21.013 2.834 30.743-7.842 7.098-18.222 11.184-29.06 11.184-21.361 0-39.594-15.613-42.41-36.318l-1.73-12.718-12.833-.257c-14.458-.372-30.193-9.186-30.193-31.516 0-17.384 13.858-31.526 30.893-31.526h19.115c17.894.377 32.55 14.853 32.719 32.378l29.998-.289c-.112-11.705-3.564-22.697-9.444-32.089h125.826c17.035 0 30.894 14.143 30.894 31.526-.001 12.695-7.404 24.099-18.862 29.051z"/></g></svg>