<svg id="Capa_1" enable-background="new 0 0 510 510" height="512" viewBox="0 0 510 510" width="512" xmlns="http://www.w3.org/2000/svg"><g><path d="m427.5 23.365h75v30h-75z" transform="matrix(.8 -.6 .6 .8 69.981 286.673)"/><path d="m450 255.865h30v75h-30z" transform="matrix(.6 -.8 .8 .6 -48.692 489.346)"/><path d="m30 .865h30v75h-30z" transform="matrix(.6 -.8 .8 .6 -12.692 51.346)"/><path d="m7.5 278.365h75v30h-75z" transform="matrix(.8 -.6 .6 .8 -167.019 85.673)"/><path d="m362.866 55.922c-.524-6.448-2.091-12.819-4.745-18.962-17.88-41.368-73.339-49.924-103.121-15.837-11.291-12.922-27.958-21.123-46.533-21.123-31.654 0-53.294 18.455-59.868 47.534-48.039 14.854-67.276 74.702-34.969 115.331-22.006 24.076-21.334 61.313 2.266 84.59 8.636 8.516 19.524 14.226 31.236 16.619 1.156 14.23 7.423 27.825 17.868 38.143v147.783h30c0 33.084 26.916 60 60 60s60-26.916 60-60h30c0-21.131 0-125.196 0-146.59 8.435-8.427 13.768-19.315 16.399-30.945 48.157-14.887 67.215-74.778 34.971-115.33 31.949-34.955 13.523-91.602-33.504-101.213zm-210.88 178.505c-14.031-3.398-24.33-15.716-24.33-30.446.002-19.439 17.781-34.048 37.206-30.963l4.723-29.625c-10.443-1.669-21.015-.603-30.746 2.832-7.097-7.842-11.181-18.221-11.181-29.058 0-21.361 15.613-39.594 36.318-42.41l12.718-1.73.257-12.833c.371-14.459 9.186-30.194 31.516-30.194 17.384 0 31.526 13.858 31.526 30.893v19.115c-.377 17.894-14.853 32.55-32.378 32.719l.289 29.998c11.705-.112 22.697-3.564 32.089-9.444v125.826c0 17.035-14.143 30.894-31.526 30.894-12.695 0-24.099-7.403-29.051-18.861-5.579-12.906-1.617-27.921 10.869-41.194l-21.852-20.555c-7.332 7.794-12.837 16.271-16.447 25.036zm103.014 245.573c-16.542 0-30-13.458-30-30h60c0 16.542-13.458 30-30 30zm60-60h-120v-30h120zm-120-60v-41.469c21.961 4.856 44.965-2.447 60-19.655 14.084 16.12 35.798 24.427 60 19.915v41.209zm151.022-114.758-12.922 1.518-.054 12.985c-.89 17.447-11.183 30.255-31.515 30.255-17.383 0-31.525-13.858-31.525-30.894v-16.419c.377-17.894 14.854-32.551 32.38-32.72l-.289-29.998c-11.706.112-22.699 3.566-32.091 9.445v-128.521c0-17.034 14.142-30.893 31.525-30.893 12.696 0 24.1 7.404 29.052 18.862 5.578 12.906 1.616 27.92-10.869 41.192l21.851 20.557c7.333-7.795 12.838-16.272 16.446-25.036 24.312 5.889 32.419 35.404 15.032 52.556-7.273 7.17-17.708 10.472-27.907 8.852l-4.723 29.625c10.276 1.641 20.862.679 30.761-2.816 23.168 25.63 8.106 66.928-25.152 71.45z"/></g></svg>