<svg id="Capa_1" enable-background="new 0 0 510 510" height="512" viewBox="0 0 510 510" width="512" xmlns="http://www.w3.org/2000/svg"><g><path d="m386.864 98.194 27.918-17.766c17.75 13.912 43.387 12.553 59.55-3.609 17.544-17.545 17.544-46.094 0-63.639l-.001-.001c-17.546-17.546-46.096-17.543-63.64 0-11.357 11.357-15.353 27.323-12.007 41.933l-28.719 18.275c-34.965-43.621-87.716-71.883-147.649-73.329-109.579-2.644-199.806 85.684-199.806 194.942 0 85.165 49.91 101.885 49.91 211.95v103.05h240v-75.07h75v-96.71h60.893l-35.803-107.542c-.004-3.69.015 15.003-.045-45.44l-.182-.184c-1.536-30.513-10.097-60.134-25.419-86.86zm55.647-68.187c13.263 0 20.074 16.131 10.606 25.6-9.39 9.393-25.607 2.721-25.607-10.606 0-4.008 6.742-14.994 15.001-14.994zm-85.091 278.212v96.71c-1.919 0-105.046-.003-107.639-.003-9.509 0-18.508-4.208-24.711-11.561l-22.023-26.104-22.93 19.346 22.023 26.104c11.923 14.131 29.268 22.216 47.561 22.215 1.894 0 32.55-.001 32.719-.001v45.075h-180v-73.05c0-115.994-49.91-137.055-49.91-211.95 0-90.981 74.019-165 165-165 50.588 0 96.279 23.332 126.684 59.788l-40.969 26.07c-6.21-13.155-18.606-22.84-33.416-25.266-10.489-18.64-30.396-30.592-52.299-30.592s-41.81 11.952-52.299 30.592c-17.01 2.787-30.844 15.144-35.768 31.342-18.46 5.611-31.933 22.795-31.933 43.066 0 24.813 20.187 45 45 45h39.186l-10.003 29.995c-28.472.572-49.046 26.812-43.21 54.335 5.148 24.276 29.079 39.829 53.357 34.685 24.272-5.148 39.832-29.084 34.686-53.357-2.228-10.499-7.994-19.656-16.377-26.162l13.171-39.496h79.19c24.814 0 45-20.187 45-45 0-10.931-3.923-20.96-10.428-28.765l34.197-21.761c12.99 22.961 20.641 49.275 21.189 77.225l.042 43.842 24.196 72.679h-49.286zm-193.091-10.649c-6.949-4.517-8.921-13.801-4.4-20.752 7.284-11.206 24.49-7.953 27.25 5.062 2.753 12.991-11.676 22.953-22.85 15.69zm-21.819-117.57c-8.271 0-15-6.729-15-15s6.728-15 15-15h15v-15c0-8.271 6.729-15 15-15 .959 0 1.21.07 12.849 1.028l3.839-10.952c4.209-12.008 15.587-20.076 28.312-20.076s24.104 8.068 28.312 20.076l3.839 10.952 11.565-.966c8.924-.739 16.283 6.301 16.283 14.938v15h15c8.272 0 15 6.729 15 15s-6.728 15-15 15z"/></g></svg>