<svg id="Capa_1" enable-background="new 0 0 510 510" height="512" viewBox="0 0 510 510" width="512" xmlns="http://www.w3.org/2000/svg"><g><path d="m237.095 90c-24.443 0-51.213 6.404-75.379 18.033-48.143 23.168-59.304 53.7-61.95 56.967l4.345 7.511c23.876 41.272 84.117 67.489 132.984 67.489 24.443 0 51.214-6.404 75.38-18.033 48.143-23.168 59.304-53.7 61.949-56.967l-4.345-7.511c-23.874-41.272-84.114-67.489-132.984-67.489zm45 75c0 24.814-20.186 45-45 45-24.813 0-45-20.186-45-45s20.187-45 45-45c24.814 0 45 20.186 45 45zm-146.889 0c7.621-9.665 18.615-18.483 31.429-25.707-5.874 16.051-6.234 34.382 0 51.414-12.814-7.224-23.808-16.042-31.429-25.707zm172.349 25.707c5.874-16.049 6.234-34.381 0-51.414 12.814 7.223 23.809 16.042 31.43 25.707-7.621 9.665-18.615 18.484-31.43 25.707z"/><path d="m222.095 150h30v30h-30z"/><path d="m432.098 230.678c0-4.564.001 15.513-.003-39.522-2.081-106.143-88.738-191.156-194.997-191.156-107.523 0-195 87.477-195 195 0 86.139 49.91 102.241 49.91 211.95v103.05h240v-75.07h75v-96.71h60.894zm-55.09 77.542v96.71c-1.919 0-105.046-.003-107.639-.003-9.509 0-18.507-4.208-24.71-11.561l-22.024-26.105-22.93 19.346 22.024 26.105c11.922 14.131 29.268 22.216 47.56 22.215 1.894 0 32.55-.001 32.719-.001v45.074h-180v-73.05c0-116.211-49.91-135.604-49.91-211.95 0-90.981 74.019-165 165-165 89.187 0 163.174 72.48 165 161.599v43.942l24.196 72.679z"/></g></svg>