<svg id="Capa_1" enable-background="new 0 0 510 510" height="512" viewBox="0 0 510 510" width="512" xmlns="http://www.w3.org/2000/svg"><g><path d="m330.999 105h-78.9v-30h-30v30h-78.9c-4.671 6.448-10.549 14.316-18.285 27.02-13.574 22.285-15.314 32.004-15.314 37.98 0 22.056 18.505 40 41.25 40s41.25-17.944 41.25-40c0-5.703-1.586-14.815-13.524-35h43.524v90h-30v60h-30v30h150v-30h-30v-60h-30v-90h43.524c-11.939 20.185-13.524 29.297-13.524 35 0 22.056 18.505 40 41.25 40s41.25-17.944 41.25-40c0-5.977-1.74-15.695-15.315-37.98-7.505-12.321-13.69-20.674-18.286-27.02zm-180.151 75c-6.153 0-11.169-4.414-11.249-9.867.393-3.61 4.938-12.703 11.249-23.062 6.311 10.359 10.855 19.452 11.249 23.062-.08 5.453-5.096 9.867-11.249 9.867zm71.25 105v-30h30v30zm101.25-105c-6.153 0-11.169-4.414-11.249-9.867.393-3.61 4.938-12.703 11.249-23.062 6.311 10.359 10.855 19.452 11.249 23.062-.08 5.453-5.096 9.867-11.249 9.867z"/><path d="m432.098 230.679c0-4.564.001 15.513-.003-39.522-2.081-106.144-88.736-191.157-194.997-191.157-107.523 0-195 87.477-195 195 0 85.165 49.91 101.885 49.91 211.95v103.05h240v-75h1.162v-.07h73.838v-96.71h60.894zm-55.09 77.541v96.71l-107.314.07c-9.673 0-18.797-4.24-25.034-11.634l-22.024-26.105-22.93 19.346 22.024 26.104c11.95 14.165 29.432 22.289 47.964 22.289h32.315v45h-180v-73.05c0-115.994-49.91-137.055-49.91-211.95 0-90.981 74.019-165 165-165 89.186 0 163.174 72.48 165 161.6v43.942l24.196 72.678z"/></g></svg>