<svg xmlns="http://www.w3.org/2000/svg" viewBox="0 0 256 256"><title>icon</title><path d="M192.592,22.6a24.169,24.169,0,0,0-25.339,39.523,5.77,5.77,0,0,1,.959,6.447l-4.391,9.236a3.316,3.316,0,0,1-3.974,1.747,102.7,102.7,0,0,0-20.623-3.944,6.348,6.348,0,0,1-5.74-6.334V59.3a6.286,6.286,0,0,1,3.959-5.893,26.326,26.326,0,1,0-18.928-.017,6.318,6.318,0,0,1,4,5.908v9.982a6.348,6.348,0,0,1-5.74,6.334,102.7,102.7,0,0,0-20.623,3.944,3.316,3.316,0,0,1-3.974-1.747l-4.391-9.236a5.77,5.77,0,0,1,.959-6.447,24.166,24.166,0,1,0-15.865,7.459,5.925,5.925,0,0,1,5.811,3.309l4.16,8.752a3.347,3.347,0,0,1-1.307,4.289c-7.61,4.676-12.141,10.532-12.141,16.892,0,15.313,26.234,46.039,58.6,46.039s58.6-30.726,58.6-46.039c0-6.36-4.531-12.216-12.141-16.892a3.347,3.347,0,0,1-1.307-4.289l4.16-8.752a5.925,5.925,0,0,1,5.811-3.309A24.17,24.17,0,0,0,192.592,22.6Z" fill="#87d147"/><path d="M193.69,187.434a12.947,12.947,0,0,0-9.767-11.836l-22.843-5.75A25.623,25.623,0,0,1,156,167.982l-10.3-5.078a4.642,4.642,0,0,1-2.59-4.164v-12.1a52.543,52.543,0,0,1-30.23,0v12.1a4.642,4.642,0,0,1-2.59,4.164L100,167.982a25.623,25.623,0,0,1-5.076,1.866L72.077,175.6a12.947,12.947,0,0,0-9.767,11.836L59.182,248.1a5.116,5.116,0,0,0,5.109,5.4H191.709a5.116,5.116,0,0,0,5.109-5.4Z" fill="#87d147"/><path d="M128,25.086a27.788,27.788,0,0,1-14.442-4.022,16.287,16.287,0,1,0,28.884,0A27.788,27.788,0,0,1,128,25.086Z" fill="#f5c84c"/><path d="M69.757,42.369A25.5,25.5,0,0,1,56.2,44.727,14.952,14.952,0,1,0,80.146,33.343,25.51,25.51,0,0,1,69.757,42.369Z" fill="#f5c84c"/><path d="M186.243,42.369A25.5,25.5,0,0,0,199.8,44.727a14.952,14.952,0,1,1-23.948-11.384A25.51,25.51,0,0,0,186.243,42.369Z" fill="#f5c84c"/><path d="M122.761,24.581a13.714,13.714,0,0,0-.245,2.6c0,4.847,2.455,8.775,5.484,8.775s5.484-3.928,5.484-8.775a13.714,13.714,0,0,0-.245-2.6,28,28,0,0,1-5.239.5A28,28,0,0,1,122.761,24.581Z" fill="#edf4fc"/><path d="M65.214,44.016a12.55,12.55,0,0,0,.822,2.252c1.91,4.018,5.494,6.307,8.006,5.114s3-5.419,1.088-9.437A12.533,12.533,0,0,0,73.9,39.886a25.217,25.217,0,0,1-8.688,4.13Z" fill="#edf4fc"/><path d="M190.786,44.016a12.55,12.55,0,0,1-.822,2.252c-1.91,4.018-5.494,6.307-8.006,5.114s-3-5.419-1.088-9.437a12.533,12.533,0,0,1,1.228-2.059,25.217,25.217,0,0,0,8.688,4.13Z" fill="#edf4fc"/><path d="M100.329,107.547a18.537,18.537,0,0,0-.184,2.576c0,6.027,2.828,10.913,6.318,10.913,3.215,0,5.864-4.153,6.26-9.522A48.565,48.565,0,0,1,100.329,107.547Z" fill="#edf4fc"/><path d="M114.539,111.841c-.023.379-.036.764-.036,1.154,0,6.027,2.829,10.912,6.318,10.912s6.318-4.885,6.318-10.912c0-.03,0-.059,0-.089A82.353,82.353,0,0,1,114.539,111.841Z" fill="#edf4fc"/><path d="M143.244,111.521c.244,5.641,2.965,10.089,6.293,10.089,3.49,0,6.318-4.886,6.318-10.912a18.421,18.421,0,0,0-.263-3.109A48.824,48.824,0,0,1,143.244,111.521Z" fill="#edf4fc"/><path d="M128.864,112.906c0,.03,0,.059,0,.089,0,6.027,2.829,10.912,6.318,10.912S141.5,119.022,141.5,113c0-.39-.013-.775-.036-1.154A82.353,82.353,0,0,1,128.864,112.906Z" fill="#edf4fc"/><path d="M195.941,145.487h-2.33v-2.33a3.158,3.158,0,0,0-6.315,0v2.33h-2.329a3.158,3.158,0,0,0,0,6.315H187.3v2.33a3.158,3.158,0,0,0,6.315,0V151.8h2.33a3.158,3.158,0,0,0,0-6.315Z" fill="#f5c84c"/><path d="M50.705,15.654a11.1,11.1,0,0,1-8.9-8.717.2.2,0,0,0-.4,0,11.1,11.1,0,0,1-8.9,8.717.2.2,0,0,0,0,.386,11.1,11.1,0,0,1,8.9,8.717.2.2,0,0,0,.4,0,11.1,11.1,0,0,1,8.9-8.717A.2.2,0,0,0,50.705,15.654Z" fill="#70d6f9"/><circle cx="78.662" cy="3.377" r="3.377" fill="#f5c84c"/><circle cx="208.662" cy="172.377" r="3.377" fill="#ef4460"/><circle cx="46.662" cy="219.377" r="3.377" fill="#87d147"/><circle cx="221.662" cy="40.377" r="3.377" fill="#70d6f9"/><path d="M191.709,256H64.291a7.616,7.616,0,0,1-7.6-8.04l3.127-60.653a15.383,15.383,0,0,1,11.653-14.131l22.844-5.75a23.225,23.225,0,0,0,4.581-1.684l10.3-5.078a2.129,2.129,0,0,0,1.2-1.923v-12.1a2.5,2.5,0,0,1,3.2-2.4,50.072,50.072,0,0,0,28.828,0,2.5,2.5,0,0,1,3.2,2.4v12.1a2.129,2.129,0,0,0,1.2,1.923l10.3,5.077a23.159,23.159,0,0,0,4.581,1.685l22.844,5.75A15.379,15.379,0,0,1,196.186,187.3v.01l3.128,60.663a7.617,7.617,0,0,1-7.606,8.03ZM115.385,149.883v8.856a7.1,7.1,0,0,1-3.984,6.407l-10.3,5.079a28.171,28.171,0,0,1-5.572,2.047l-22.843,5.751a10.4,10.4,0,0,0-7.881,9.549l-3.128,60.654A2.617,2.617,0,0,0,64.291,251H191.709a2.616,2.616,0,0,0,2.613-2.763l-3.129-60.667a10.4,10.4,0,0,0-7.88-9.545l-22.843-5.75a28.188,28.188,0,0,1-5.572-2.049l-10.3-5.078a7.1,7.1,0,0,1-3.985-6.407v-8.855A54.7,54.7,0,0,1,115.385,149.883Z"/><path d="M128,151.363c-20.277,0-35.713-11.229-43.11-17.923-10.926-9.886-17.985-21.9-17.985-30.616,0-7.084,4.61-13.662,13.332-19.021a.846.846,0,0,0,.359-1.086l-4.161-8.752a3.436,3.436,0,0,0-3.383-1.888A26.668,26.668,0,0,1,46.639,35.161a26.668,26.668,0,1,1,43.92,28.686,3.276,3.276,0,0,0-.513,3.651l4.391,9.235a.818.818,0,0,0,.982.432,104.8,104.8,0,0,1,21.128-4.044,3.872,3.872,0,0,0,3.469-3.845V59.294a3.832,3.832,0,0,0-2.4-3.575,28.827,28.827,0,0,1-9.346-47.9A28.609,28.609,0,0,1,129.846.06a28.826,28.826,0,0,1,8.494,55.676,3.8,3.8,0,0,0-2.356,3.56v9.98a3.872,3.872,0,0,0,3.469,3.845,104.8,104.8,0,0,1,21.128,4.044.815.815,0,0,0,.982-.432l4.391-9.235a3.278,3.278,0,0,0-.513-3.652,26.67,26.67,0,0,1,27.97-43.608h0A26.675,26.675,0,0,1,208.852,56.92a26.517,26.517,0,0,1-25.9,15.157,3.438,3.438,0,0,0-3.383,1.888L175.4,82.717a.846.846,0,0,0,.359,1.086c8.722,5.359,13.332,11.937,13.332,19.021,0,8.712-7.059,20.73-17.985,30.616C163.713,140.134,148.277,151.363,128,151.363ZM73.322,67.068a8.372,8.372,0,0,1,7.629,4.75l4.16,8.752a5.845,5.845,0,0,1-2.256,7.492c-5,3.071-10.95,8.124-10.95,14.762,0,7.138,6.719,18.2,16.339,26.909,6.864,6.211,21.155,16.63,39.756,16.63s32.892-10.419,39.756-16.63c9.62-8.706,16.339-19.771,16.339-26.909,0-6.638-5.954-11.691-10.95-14.762a5.845,5.845,0,0,1-2.256-7.492l4.16-8.752a8.407,8.407,0,0,1,8.24-4.729A21.671,21.671,0,1,0,169.065,60.4a8.31,8.31,0,0,1,1.405,9.244l-4.391,9.235a5.78,5.78,0,0,1-6.966,3.064A99.911,99.911,0,0,0,139,78.1a8.8,8.8,0,0,1-8.012-8.824V59.3a8.824,8.824,0,0,1,5.561-8.227A23.826,23.826,0,0,0,129.534,5.05a23.827,23.827,0,0,0-25.359,23.777,23.979,23.979,0,0,0,15.241,22.228,8.862,8.862,0,0,1,5.6,8.239v9.982a8.8,8.8,0,0,1-8.011,8.824,99.908,99.908,0,0,0-20.118,3.844,5.782,5.782,0,0,1-6.966-3.064L85.53,69.645a8.309,8.309,0,0,1,1.4-9.243A21.669,21.669,0,0,0,64.227,24.963a21.67,21.67,0,0,0,8.484,42.126Q73.018,67.068,73.322,67.068Z"/><path d="M82.639,256a2.5,2.5,0,0,1-2.5-2.5V200.954a2.5,2.5,0,0,1,5,0V253.5A2.5,2.5,0,0,1,82.639,256Z"/><path d="M173.361,256a2.5,2.5,0,0,1-2.5-2.5V200.954a2.5,2.5,0,0,1,5,0V253.5A2.5,2.5,0,0,1,173.361,256Z"/><path d="M128,115.418c-13.722,0-26.341-3.135-32.935-8.181a2.5,2.5,0,0,1,3.039-3.97c5.676,4.344,17.411,7.151,29.9,7.151s24.22-2.807,29.9-7.151a2.5,2.5,0,0,1,3.039,3.97C154.341,112.283,141.722,115.418,128,115.418Z"/><path d="M120.485,95.151a2.5,2.5,0,0,1-2.17-3.737,14.465,14.465,0,0,1,2.99-3.639,2.5,2.5,0,0,1,3.3,3.754,9.407,9.407,0,0,0-1.948,2.36A2.5,2.5,0,0,1,120.485,95.151Z"/><path d="M135.515,95.151a2.5,2.5,0,0,1-2.175-1.262,9.407,9.407,0,0,0-1.948-2.36,2.5,2.5,0,0,1,3.3-3.754,14.465,14.465,0,0,1,2.99,3.639,2.5,2.5,0,0,1-2.17,3.737Z"/><path d="M128,47.362a18.808,18.808,0,0,1-18.787-18.786,18.567,18.567,0,0,1,2.128-8.667,2.5,2.5,0,0,1,3.512-.983A25.377,25.377,0,0,0,128,22.586a25.377,25.377,0,0,0,13.147-3.66,2.5,2.5,0,0,1,3.512.983,18.567,18.567,0,0,1,2.128,8.667A18.808,18.808,0,0,1,128,47.362ZM114.806,24.581a13.6,13.6,0,0,0-.593,4,13.787,13.787,0,0,0,27.574,0,13.6,13.6,0,0,0-.593-4,30.4,30.4,0,0,1-13.194,3A30.4,30.4,0,0,1,114.806,24.581Z"/><path d="M71.145,62.724a17.5,17.5,0,0,1-15.773-9.969A17.247,17.247,0,0,1,53.7,44.636a2.5,2.5,0,0,1,2.75-2.4,23.07,23.07,0,0,0,12.233-2.129h0a23.083,23.083,0,0,0,9.374-8.143,2.5,2.5,0,0,1,3.593-.62A17.459,17.459,0,0,1,71.145,62.724ZM58.859,47.356A12.451,12.451,0,1,0,80.505,37.065,28.178,28.178,0,0,1,58.859,47.356Z"/><path d="M184.855,62.724a17.447,17.447,0,0,1-10.506-31.376,2.5,2.5,0,0,1,3.593.62,23.083,23.083,0,0,0,9.374,8.143h0A23.047,23.047,0,0,0,199.55,42.24a2.5,2.5,0,0,1,2.75,2.4,17.43,17.43,0,0,1-11.586,17.07A17.456,17.456,0,0,1,184.855,62.724ZM175.5,37.065a12.451,12.451,0,1,0,21.645,10.291,28.109,28.109,0,0,1-11.971-2.729h0A28.1,28.1,0,0,1,175.5,37.065Z"/><path d="M128,38.456c-4.477,0-7.984-4.952-7.984-11.274a16.131,16.131,0,0,1,.291-3.077,2.5,2.5,0,0,1,2.921-1.98,25.076,25.076,0,0,0,9.544,0,2.5,2.5,0,0,1,2.921,1.98,16.131,16.131,0,0,1,.291,3.077C135.984,33.5,132.477,38.456,128,38.456Zm-2.981-11.022c.077,3.63,1.819,6.022,2.981,6.022s2.9-2.392,2.981-6.022A29.26,29.26,0,0,1,125.019,27.434Z"/><path d="M72.623,54.194c-3.285,0-6.831-2.616-8.845-6.852a15.1,15.1,0,0,1-.985-2.7A2.5,2.5,0,0,1,64.582,41.6a22.714,22.714,0,0,0,7.843-3.729,2.5,2.5,0,0,1,3.49.534,15.106,15.106,0,0,1,1.473,2.47c2.541,5.345,1.543,10.953-2.273,12.768A5.761,5.761,0,0,1,72.623,54.194ZM68.5,45.6c1.441,2.728,3.6,3.934,4.468,3.52s1.3-2.848.092-5.687c-.732.435-1.478.833-2.23,1.19S69.3,45.312,68.5,45.6Z"/><path d="M183.377,54.2a5.765,5.765,0,0,1-2.492-.555c-3.816-1.815-4.814-7.423-2.273-12.768a15.106,15.106,0,0,1,1.473-2.47,2.5,2.5,0,0,1,3.49-.534,22.691,22.691,0,0,0,7.843,3.729,2.5,2.5,0,0,1,1.789,3.043,15.1,15.1,0,0,1-.985,2.7C190.208,51.578,186.661,54.2,183.377,54.2Zm-.437-10.758c-1.2,2.839-.777,5.274.092,5.687s3.026-.791,4.468-3.52c-.8-.292-1.579-.62-2.331-.977S183.672,43.872,182.94,43.437Z"/><path d="M106.462,123.535c-4.944,0-8.817-5.891-8.817-13.412a21.218,21.218,0,0,1,.208-2.922,2.5,2.5,0,0,1,3.6-1.888,46.335,46.335,0,0,0,11.745,3.748,2.5,2.5,0,0,1,2.018,2.638C114.71,118.558,111.028,123.535,106.462,123.535Zm-3.775-12.224c.313,4.447,2.342,7.224,3.775,7.224,1.257,0,2.778-1.994,3.456-5.057A54.036,54.036,0,0,1,102.687,111.311Z"/><path d="M120.821,126.407c-4.945,0-8.818-5.891-8.818-13.412,0-.441.015-.877.04-1.306a2.5,2.5,0,0,1,2.9-2.314,79.617,79.617,0,0,0,12.212,1.03,2.5,2.5,0,0,1,2.475,2.46c0,.013,0,.116,0,.13C129.639,120.516,125.766,126.407,120.821,126.407Zm-3.727-11.668c.435,4.121,2.355,6.668,3.727,6.668,1.3,0,3.1-2.3,3.652-6.065C121.96,115.244,119.493,115.043,117.094,114.739Z"/><path d="M149.538,124.109c-4.781,0-8.478-5.249-8.791-12.48a2.5,2.5,0,0,1,2.024-2.564,46.535,46.535,0,0,0,11.7-3.713,2.5,2.5,0,0,1,3.58,1.814,20.9,20.9,0,0,1,.3,3.531C158.355,118.218,154.482,124.109,149.538,124.109ZM145.969,113.5c.63,3.519,2.348,5.607,3.569,5.607,1.495,0,3.64-3.024,3.807-7.814A55.026,55.026,0,0,1,145.969,113.5Z"/><path d="M135.179,126.407c-4.945,0-8.818-5.891-8.818-13.412,0-.038,0-.126,0-.163a2.538,2.538,0,0,1,2.475-2.427,79.617,79.617,0,0,0,12.212-1.03,2.5,2.5,0,0,1,2.905,2.314c.025.429.04.865.04,1.306C144,120.516,140.124,126.407,135.179,126.407Zm-3.658-11.065c.543,3.75,2.35,6.065,3.658,6.065,1.372,0,3.292-2.547,3.727-6.668C136.505,115.043,134.036,115.245,131.521,115.342Z"/></svg>