<svg xmlns="http://www.w3.org/2000/svg" viewBox="0 0 256 256"><title>icon</title><path d="M156.905,126.95l-18.165-6.163a8.814,8.814,0,0,1-5.074-4.448l-4.144-8.4a1.784,1.784,0,0,0-3.3.236l-7.863,24.11a6.33,6.33,0,0,1,.569.486l16.683,17.44c.055.057.091.124.143.182l22.97-11.583a3.2,3.2,0,0,0,1.673-3.591l-1.408-5.974A3.2,3.2,0,0,0,156.905,126.95Z" fill="#fcdd86"/><path d="M126.773,158.671,110.23,141.379c-24.8-4.9-48.857,5.705-54.678,8.536a.724.724,0,0,0,.006,1.306L60,153.33a.721.721,0,0,1,.029,1.288c-16.775,9.351-31.7,36.857-34.474,42.173a.72.72,0,0,0,.537,1.044l4.2.63a.719.719,0,0,1,.425,1.194c-12.018,13.74-13.876,34.08-14.164,39.921a.718.718,0,0,0,1.163.6c9.156-7.141,21.05-3.861,37.982-11.359,14.412-6.382,21.518-15.37,23.858-18.846a.721.721,0,0,1,1.3.243l1.048,4.444a.722.722,0,0,0,1.1.437c4.7-3.129,27.156-18.418,33.665-28.941,5.9-9.536,9.31-22.607,10.395-27.234C126.969,158.833,126.863,158.765,126.773,158.671Z" fill="#fcdd86"/><path d="M253.082,20.71a7.5,7.5,0,0,0-9.551-4.622A68.546,68.546,0,0,0,226.6,24.767,21.323,21.323,0,0,0,218.5,35.978l-4.608,15.211a6.206,6.206,0,0,1-2.027,3.022c-26.669,22.067-16.083,13.675-73.614,66.382.163.066.324.137.492.194l15.688,5.323C205.759,79,196.376,86.492,221.337,65.846a21.151,21.151,0,0,0,6.913-10.307l4.609-15.212a6.246,6.246,0,0,1,2.376-3.286,53.55,53.55,0,0,1,13.225-6.78A7.5,7.5,0,0,0,253.082,20.71Z" fill="#b77035"/><path d="M135.614,150.212l-16.683-17.44a6.118,6.118,0,0,0-8.842,8.459l16.684,17.44a6.118,6.118,0,0,0,8.841-8.459Z" fill="#edf4fc"/><path d="M19.991,170.487h-2.33v-2.33a3.157,3.157,0,0,0-6.314,0v2.33H9.018a3.158,3.158,0,1,0,0,6.315h2.329v2.33a3.157,3.157,0,0,0,6.314,0V176.8h2.33a3.158,3.158,0,1,0,0-6.315Z" fill="#70d6f9"/><path d="M194.4,35.9h-1.656V34.244a2.244,2.244,0,0,0-4.488,0V35.9H186.6a2.245,2.245,0,0,0,0,4.489h1.656v1.656a2.244,2.244,0,1,0,4.488,0V40.389H194.4a2.245,2.245,0,1,0,0-4.489Z" fill="#87d147"/><path d="M186.755,150.654a11.1,11.1,0,0,1-8.9-8.717.2.2,0,0,0-.394,0,11.1,11.1,0,0,1-8.9,8.717.2.2,0,0,0,0,.386,11.1,11.1,0,0,1,8.9,8.717.2.2,0,0,0,.394,0,11.1,11.1,0,0,1,8.9-8.717A.2.2,0,0,0,186.755,150.654Z" fill="#f5c84c"/><circle cx="3.377" cy="201.377" r="3.377" fill="#ef4460"/><circle cx="94.377" cy="83.377" r="3.377" fill="#f5c84c"/><circle cx="190.377" cy="121.377" r="3.377" fill="#70d6f9"/><path d="M135.758,152.894a2.5,2.5,0,0,1-1.868-.837c-.06-.068-.117-.137-.169-.208l-16.6-17.349c-.053-.05-.115-.095-.175-.143l-.169-.135a2.5,2.5,0,0,1-.8-2.711l7.863-24.11a4.285,4.285,0,0,1,7.916-.567l4.144,8.4a6.277,6.277,0,0,0,3.636,3.187l18.164,6.163a5.67,5.67,0,0,1,3.717,4.088l1.409,5.975a5.686,5.686,0,0,1-2.981,6.4l-22.97,11.583A2.491,2.491,0,0,1,135.758,152.894Zm-14.529-21.336,15.077,15.76L157.6,136.579a.7.7,0,0,0,.366-.787l-1.408-5.972a.7.7,0,0,0-.456-.5l-18.166-6.163a11.244,11.244,0,0,1-6.513-5.709l-3.367-6.825Z"/><path d="M17.263,242.829a3.214,3.214,0,0,1-3.212-3.372c.284-5.761,2.041-24.821,12.777-38.983l-1.106-.166a3.221,3.221,0,0,1-2.385-4.673c2.719-5.213,16.469-30.514,32.638-41.448l-1.489-.708a3.224,3.224,0,0,1-.028-5.812c6.809-3.311,30.99-13.729,56.257-8.74a2.5,2.5,0,0,1,1.322.724l16.476,17.223c.093.074.169.137.242.205a2.5,2.5,0,0,1,.743,2.412c-1.212,5.17-4.683,18.243-10.7,27.978-6.627,10.715-28.009,25.447-34.4,29.707a3.222,3.222,0,0,1-4.923-1.943l-.177-.753A61.062,61.062,0,0,1,56.706,231.1c-8.4,3.718-15.471,4.859-21.711,5.865-6.412,1.033-11.477,1.85-15.746,5.179A3.225,3.225,0,0,1,17.263,242.829Zm11.689-47.093,1.7.256A3.22,3.22,0,0,1,32.6,201.3c-9.693,11.081-12.481,26.8-13.281,34.84,4.463-2.433,9.371-3.224,14.885-4.113,5.941-.957,12.676-2.043,20.482-5.5,13.77-6.1,20.529-14.588,22.8-17.955a3.222,3.222,0,0,1,5.809,1.063l.457,1.941c7.1-4.852,25.254-17.774,30.8-26.741,5.172-8.362,8.376-19.542,9.761-25.133l-15.326-16.021c-20.3-3.744-39.861,3.011-48.9,6.912l1,.474a3.222,3.222,0,0,1,.176,5.731C46.74,164.888,33.48,187.433,28.952,195.736Zm99.628-38.793,0,0Z"/><path d="M154.428,128.609a2.5,2.5,0,0,1-.8-.132l-15.688-5.322c-.18-.061-.354-.132-.527-.2l-.1-.044a2.5,2.5,0,0,1-.746-4.158c19.975-18.3,31.843-29.333,39.7-36.632,14.984-13.929,16.551-15.385,34.012-29.833a3.732,3.732,0,0,0,1.229-1.822l4.607-15.21a23.83,23.83,0,0,1,9.062-12.531,70.95,70.95,0,0,1,17.544-9,10,10,0,0,1,12.733,6.162h0a10.015,10.015,0,0,1-6.162,12.733,51.062,51.062,0,0,0-12.607,6.464,3.724,3.724,0,0,0-1.421,1.964l-4.61,15.215a23.648,23.648,0,0,1-7.727,11.52c-16.777,13.877-17.98,15-32.711,28.683-6.928,6.438-17.4,16.166-34.087,31.483A2.5,2.5,0,0,1,154.428,128.609Zm-11.4-9.006,10.8,3.663c16.047-14.732,26.2-24.168,32.973-30.46,14.828-13.78,16.04-14.9,32.942-28.886a18.676,18.676,0,0,0,6.114-9.105l4.61-15.213A8.746,8.746,0,0,1,233.8,35a56.091,56.091,0,0,1,13.842-7.1,5.009,5.009,0,0,0,3.082-6.368h0a5,5,0,0,0-6.367-3.082,66.015,66.015,0,0,0-16.312,8.363,18.8,18.8,0,0,0-7.152,9.89l-4.608,15.212a8.7,8.7,0,0,1-2.843,4.236C196.1,70.494,194.549,71.94,179.66,85.78,172.216,92.7,161.166,102.971,143.028,119.6Z"/><path d="M76.82,128.289q-.9,0-1.816-.076a21.443,21.443,0,0,1-14.691-7.562,17.77,17.77,0,0,1,2.076-25.045,14.733,14.733,0,0,1,20.74,1.719,12.273,12.273,0,0,1-1.433,17.3,10.332,10.332,0,0,1-14.543-1.206,2.5,2.5,0,0,1,3.816-3.231,5.324,5.324,0,0,0,7.5.621,7.272,7.272,0,0,0,.85-10.25A9.715,9.715,0,0,0,65.62,99.422a12.77,12.77,0,0,0-1.491,18,16.6,16.6,0,0,0,23.378,1.937l19.325-17.725a2.5,2.5,0,1,1,3.379,3.685l-19.4,17.79A21.5,21.5,0,0,1,76.82,128.289Z"/><path d="M38.57,145.294q-.519,0-1.043-.043a12.335,12.335,0,0,1-8.448-4.349A10.432,10.432,0,0,1,30.3,126.2a8.856,8.856,0,0,1,12.467,1.033,2.5,2.5,0,0,1-3.816,3.231,3.844,3.844,0,0,0-5.419-.449,5.43,5.43,0,0,0-.634,7.655,7.424,7.424,0,0,0,10.449.866l10-9.175a2.5,2.5,0,0,1,3.38,3.684L46.65,142.287A12.4,12.4,0,0,1,38.57,145.294Z"/><path d="M143.57,192.294q-.519,0-1.043-.043a12.335,12.335,0,0,1-8.448-4.349,10.431,10.431,0,0,1,1.219-14.7,8.843,8.843,0,0,1,12.466,1.033,2.5,2.5,0,0,1-3.817,3.231,3.843,3.843,0,0,0-5.418-.449,5.432,5.432,0,0,0-.634,7.655,7.415,7.415,0,0,0,10.45.866l10-9.175a2.5,2.5,0,1,1,3.379,3.684l-10.076,9.241A12.4,12.4,0,0,1,143.57,192.294Z"/><path d="M131.194,163.055a8.59,8.59,0,0,1-6.228-2.656l-16.684-17.44a8.618,8.618,0,1,1,12.455-11.915l16.684,17.44a8.613,8.613,0,0,1-6.227,14.571Zm-16.686-29.672a3.619,3.619,0,0,0-2.613,6.12l16.684,17.44a3.618,3.618,0,1,0,5.229-5h0L117.124,134.5a3.594,3.594,0,0,0-2.534-1.116Z"/><path d="M59.07,183.791a2.5,2.5,0,0,1-1.924-4.094c6.282-7.588,12.34-13.183,18.057-16.681l-1.158-.622a3.184,3.184,0,0,1,.261-5.734A101.288,101.288,0,0,1,97.1,150.2a2.5,2.5,0,0,1,.789,4.937,98.183,98.183,0,0,0-18.025,4.7l.646.347a3.182,3.182,0,0,1-.111,5.661c-5.939,2.929-12.464,8.659-19.4,17.033A2.5,2.5,0,0,1,59.07,183.791Z"/></svg>