<svg xmlns="http://www.w3.org/2000/svg" viewBox="0 0 256 256"><title>icon</title><path d="M171.88,48.729A43.971,43.971,0,0,0,127.909,4.762h-.015a1.766,1.766,0,0,0-1.7,1.4,13.991,13.991,0,0,1-3.947,6.71c-7.2,7.2,0,14.4-7.2,16.461s-11.318,10.289-17.491,7.2c-2.464-1.232-5.913-1.973-9.167-2.942a1.749,1.749,0,0,0-2.155,1.1,43.862,43.862,0,0,0-2.3,14.041v15.14a35.515,35.515,0,0,0,4.3,16.872,109.608,109.608,0,0,1,6.98,15.613,33.371,33.371,0,0,0,27.205,22.121,43.864,43.864,0,0,0,5.491.344h0q1.918,0,3.8-.164a34.12,34.12,0,0,0,29.039-22.7,110.049,110.049,0,0,1,6.838-15.213,35.539,35.539,0,0,0,4.3-16.878Z" fill="#dae6f1"/><path d="M183.387,47.641c-3.88-3.652-8.571-1.566-11.522.488,0,.2.015.4.015.6l0,15.142a35.219,35.219,0,0,1-1.677,10.709C183.088,77.7,189.229,53.141,183.387,47.641Z" fill="#dae6f1"/><path d="M83.938,63.873V48.733c0-.2.009-.4.012-.607-2.951-2.053-7.639-4.135-11.516-.485-5.842,5.5.3,30.062,13.181,26.939A35.207,35.207,0,0,1,83.938,63.873Z" fill="#dae6f1"/><path d="M147.156,82.954a51.62,51.62,0,0,1-19.18,3.382h0A53.157,53.157,0,0,1,108.4,82.95a2.083,2.083,0,0,0-2.842,1.935,16.1,16.1,0,0,0,3.133,9.536c6.17,8.375,12.417,11.773,19.29,11.773h0c6.608,0,12.7-3.293,18.913-11.786A16.131,16.131,0,0,0,150,84.9v-.011A2.083,2.083,0,0,0,147.156,82.954Z" fill="#818182"/><path d="M127.976,86.336h0a63.872,63.872,0,0,1-6.971-.373v6.8a1.5,1.5,0,0,0,1.5,1.494h6.239a1.494,1.494,0,0,0,1.494-1.494V86.3C129.486,86.32,128.735,86.336,127.976,86.336Z" fill="#fcdd86"/><path d="M130.233,86.3V97.623a1.5,1.5,0,0,0,1.5,1.495h6.239a1.494,1.494,0,0,0,1.494-1.495v-12.4A53.942,53.942,0,0,1,130.233,86.3Z" fill="#fcdd86"/><path d="M150.467,51.9c-4.245,1.206-8.354,3.052-11.661,4.012a5.938,5.938,0,0,0-.274,3.11c.668,3.632,4.608,5.952,8.8,5.18s7.047-4.341,6.379-7.973A6.286,6.286,0,0,0,150.467,51.9Z" fill="#fc657e"/><path d="M105.354,51.9c4.244,1.206,8.353,3.052,11.661,4.012a5.949,5.949,0,0,1,.274,3.11c-.669,3.632-4.608,5.952-8.8,5.18s-7.048-4.341-6.379-7.973A6.283,6.283,0,0,1,105.354,51.9Z" fill="#fc657e"/><path d="M209.7,205.265c0-4.535-1.664-21.274-2.548-29.845-4.76,2.336-9.923,6.134-8.769,11.326,2.058,9.26,8.231,14.4,2.058,25.721-2.125,3.9,1.407,11.837,7.987,15.808,6.4-1.861,9.292-7.4,8.474-10.664C215.876,213.5,209.7,211.438,209.7,205.265Z" fill="#dae6f1"/><path d="M216.211,233.055a2.821,2.821,0,0,0-2.271-2.662c-9.952-1.828-16.156-13.049-13.5-17.926,6.173-11.317,0-16.461-2.058-25.721-1.531-6.89,8.061-11.326,13.072-13.146a2.732,2.732,0,0,0,1.8-2.7l-.452-9.538a16.732,16.732,0,0,0-12.623-15.3l-29.523-7.431a33.134,33.134,0,0,1-6.56-2.413l-13.31-6.562a6,6,0,0,1-3.347-5.383v-11.15a33.243,33.243,0,0,1-15.308,5.5q-2.088.2-4.227.2h0a43.906,43.906,0,0,1-5.661-.366,32.4,32.4,0,0,1-13.873-5.267v11.083a6,6,0,0,1-3.348,5.383l-13.31,6.562a33.088,33.088,0,0,1-6.56,2.413l-29.522,7.431a16.731,16.731,0,0,0-12.623,15.3L38.97,246.519a6.613,6.613,0,0,0,6.6,6.981H210.248a6.613,6.613,0,0,0,6.6-6.981Z" fill="#dae6f1"/><path d="M216.211,233.055a2.821,2.821,0,0,0-2.271-2.662c-9.952-1.828-16.156-13.049-13.5-17.926,6.173-11.317,0-16.461-2.058-25.721-1.531-6.89,8.061-11.326,13.072-13.146a2.732,2.732,0,0,0,1.8-2.7l-.452-9.538a16.732,16.732,0,0,0-12.623-15.3l-29.522-7.431a33.12,33.12,0,0,1-6.561-2.413l-7.5-3.695c-8.424,12.582,1.541,26.587-6.614,33.723-8.618,7.54,3.232,25.853-9.695,26.93-9.661.805-19.39,9.7-29.085,7.54-7.435-1.652-15.081-10.772-19.389-28.007-3.939-15.754-31.262-25.2-35.933-26.712l-.255.065a16.731,16.731,0,0,0-12.623,15.3L38.97,246.519a6.613,6.613,0,0,0,6.6,6.981H210.248a6.613,6.613,0,0,0,6.6-6.981Z" fill="#818182"/><path d="M138.144,203.948s-10.772,4.309-10.772,9.695,6.463,7.541,10.772,11.849,9.695,10.773,14,6.464,12.926-16.159,8.617-20.467S146.762,198.562,138.144,203.948Z" fill="#dae6f1"/><circle cx="109.059" cy="217.952" r="5.386" fill="#dae6f1"/><path d="M203.372,119.738h-2.266v-2.266a3.071,3.071,0,1,0-6.142,0v2.266H192.7a3.071,3.071,0,0,0,0,6.142h2.265v2.267a3.071,3.071,0,1,0,6.142,0V125.88h2.266a3.071,3.071,0,1,0,0-6.142Z" fill="#ef4460"/><path d="M84.857,17.782A10.8,10.8,0,0,1,76.2,9.3a.2.2,0,0,0-.384,0,10.8,10.8,0,0,1-8.654,8.478.19.19,0,0,0,0,.376,10.8,10.8,0,0,1,8.654,8.478.2.2,0,0,0,.384,0,10.8,10.8,0,0,1,8.654-8.478A.19.19,0,0,0,84.857,17.782Z" fill="#f5c84c"/><circle cx="217.019" cy="135.427" r="3.285" fill="#70d6f9"/><circle cx="64.019" cy="82.427" r="3.285" fill="#ef4460"/><circle cx="29.019" cy="178.427" r="3.285" fill="#f5c84c"/><circle cx="105.019" cy="3.285" r="3.285" fill="#87d147"/><path d="M210.248,256H45.573a9.113,9.113,0,0,1-9.1-9.62l4.042-85.141a19.154,19.154,0,0,1,14.509-17.6l29.523-7.431a30.65,30.65,0,0,0,6.065-2.23l13.31-6.562a3.479,3.479,0,0,0,1.953-3.141V113.19a2.5,2.5,0,0,1,3.892-2.076,29.719,29.719,0,0,0,12.8,4.864,41.808,41.808,0,0,0,9.326.153,30.9,30.9,0,0,0,14.159-5.086,2.5,2.5,0,0,1,3.89,2.078v11.15a3.481,3.481,0,0,0,1.953,3.141l13.31,6.562a30.671,30.671,0,0,0,6.064,2.23l29.523,7.431A19.15,19.15,0,0,1,215.3,161.219l.454,9.558a5.22,5.22,0,0,1-3.446,5.174c-2.988,1.085-12.646,5.03-11.486,10.253a43.493,43.493,0,0,0,2.217,6.652c2.263,5.717,4.6,11.629-.405,20.809-.61,1.118-.318,3.279.744,5.5,1.625,3.409,5.484,7.749,11.01,8.764a5.291,5.291,0,0,1,4.316,5l.64,13.463a9.114,9.114,0,0,1-9.1,9.6ZM110.876,117.542v6.731a8.446,8.446,0,0,1-4.742,7.625l-13.31,6.562a35.634,35.634,0,0,1-7.055,2.595l-29.523,7.431A14.17,14.17,0,0,0,45.509,161.5l-4.042,85.141A4.114,4.114,0,0,0,45.573,251H210.248a4.114,4.114,0,0,0,4.106-4.342l-.64-13.485h0a.337.337,0,0,0-.226-.321c-7.371-1.354-12.385-6.844-14.62-11.53-1.808-3.794-2.035-7.457-.619-10.052,3.886-7.123,2.316-11.087.146-16.573a47.371,47.371,0,0,1-2.45-7.408c-1.42-6.394,3.786-12.089,14.659-16.038a.238.238,0,0,0,.16-.238l-.453-9.536a14.166,14.166,0,0,0-10.737-12.991l-29.522-7.431A35.68,35.68,0,0,1,163,138.46l-13.31-6.562a8.45,8.45,0,0,1-4.742-7.625v-6.807a35.729,35.729,0,0,1-12.568,3.642,46.728,46.728,0,0,1-10.451-.172A34.32,34.32,0,0,1,110.876,117.542Z"/><path d="M210.248,256H45.573a9.113,9.113,0,0,1-9.1-9.62l4.042-85.141a19.154,19.154,0,0,1,14.509-17.6l.256-.064a2.5,2.5,0,0,1,1.379.045c5.535,1.789,33.36,11.567,37.589,28.485,3.693,14.773,10.238,24.558,17.507,26.173,4.808,1.067,9.9-1.146,15.282-3.49,4.21-1.833,8.564-3.727,13.053-4.1,4.08-.341,4.517-2.311,4.093-9.963-.3-5.4-.674-12.126,4.163-16.358,2.92-2.555,2.807-6.391,2.382-12.437-.43-6.094-.964-13.678,3.8-20.795a2.5,2.5,0,0,1,3.183-.852l7.5,3.7a30.687,30.687,0,0,0,6.065,2.23l29.522,7.431A19.15,19.15,0,0,1,215.3,161.219l.454,9.558a5.22,5.22,0,0,1-3.446,5.174c-2.988,1.085-12.646,5.03-11.486,10.253a43.493,43.493,0,0,0,2.217,6.652c2.263,5.717,4.6,11.629-.405,20.809-.61,1.118-.318,3.279.744,5.5,1.625,3.409,5.484,7.749,11.01,8.764a5.291,5.291,0,0,1,4.316,5l.64,13.463a9.114,9.114,0,0,1-9.1,9.6ZM55.81,148.6a14.168,14.168,0,0,0-10.3,12.894l-4.042,85.141A4.114,4.114,0,0,0,45.573,251H210.248a4.114,4.114,0,0,0,4.106-4.342l-.64-13.485h0a.337.337,0,0,0-.226-.321c-7.371-1.354-12.385-6.844-14.62-11.53-1.808-3.794-2.035-7.457-.619-10.052,3.886-7.123,2.316-11.087.146-16.573a47.371,47.371,0,0,1-2.45-7.408c-1.42-6.394,3.786-12.089,14.659-16.038a.238.238,0,0,0,.16-.238l-.453-9.536a14.166,14.166,0,0,0-10.737-12.991l-29.521-7.431A35.679,35.679,0,0,1,163,138.46l-5.415-2.669c-2.616,5.142-2.235,10.542-1.866,15.784.424,6.013.861,12.231-4.076,16.552-3,2.627-2.729,7.554-2.464,12.318.338,6.091.8,14.433-8.669,15.222-3.667.306-7.459,1.956-11.474,3.7-5.882,2.561-11.967,5.209-18.361,3.787-4.4-.977-15.273-5.841-21.275-29.842C85.926,159.426,61.068,150.374,55.81,148.6Z"/><path d="M69.359,255.142a2.5,2.5,0,0,1-2.5-2.5V182.185a2.5,2.5,0,0,1,5,0v70.457A2.5,2.5,0,0,1,69.359,255.142Z"/><path d="M186.462,255.142a2.5,2.5,0,0,1-2.5-2.5V182.185a2.5,2.5,0,0,1,5,0v70.457A2.5,2.5,0,0,1,186.462,255.142Z"/><path d="M149,235.876h-.039c-4.179-.024-7.964-3.9-11.3-7.318-.434-.445-.861-.882-1.277-1.3a34.815,34.815,0,0,0-4.207-3.388c-3.42-2.479-7.3-5.288-7.3-10.229,0-6.539,9.686-10.928,12.141-11.934,5.029-3.035,13.488-4.02,25.52,8.012,6.387,6.386-5.173,20.557-8.618,24A6.889,6.889,0,0,1,149,235.876Zm-9.922-29.607c-3.857,1.551-9.2,4.976-9.2,7.374,0,2.274,1.987,3.83,5.231,6.179a38.63,38.63,0,0,1,4.808,3.9c.43.429.87.88,1.319,1.339,2.391,2.448,5.666,5.8,7.755,5.812a1.782,1.782,0,0,0,1.395-.688c6.459-6.459,10.394-15.155,8.618-16.932-7.919-7.918-14.489-10.339-19.529-7.188A2.539,2.539,0,0,1,139.073,206.269Zm-.929-2.321h0Z"/><path d="M109.059,225.838a7.886,7.886,0,1,1,7.886-7.886A7.895,7.895,0,0,1,109.059,225.838Zm0-10.772a2.886,2.886,0,1,0,2.886,2.886A2.889,2.889,0,0,0,109.059,215.066Z"/><path d="M127.91,121.323a46.4,46.4,0,0,1-5.8-.364A36.083,36.083,0,0,1,92.854,97.185a106.438,106.438,0,0,0-6.82-15.252,38.168,38.168,0,0,1-4.6-18.06V48.733a46.36,46.36,0,0,1,2.431-14.839,4.229,4.229,0,0,1,5.237-2.7c.861.256,1.735.5,2.6.733A39.012,39.012,0,0,1,98.678,34.3c2.12,1.059,3.8.055,7.41-2.674a25.494,25.494,0,0,1,8.275-4.7c1.655-.472,1.787-.764,1.787-3.9,0-3.2,0-7.594,4.334-11.927a11.647,11.647,0,0,0,3.282-5.513,4.255,4.255,0,0,1,4.126-3.329A46.527,46.527,0,0,1,174.38,48.729h0l0,15.143a38.173,38.173,0,0,1-4.6,18.065A106.984,106.984,0,0,0,163.1,96.8a36.666,36.666,0,0,1-31.179,24.351C130.6,121.265,129.248,121.323,127.91,121.323ZM88.377,36.192a41.368,41.368,0,0,0-1.94,12.541v15.14a33.135,33.135,0,0,0,4,15.685,111.564,111.564,0,0,1,7.138,15.973A31.047,31.047,0,0,0,122.731,116a41.79,41.79,0,0,0,8.761.169,31.653,31.653,0,0,0,26.9-21.043,111.838,111.838,0,0,1,6.993-15.563,33.153,33.153,0,0,0,4-15.69l0-15.143h0A41.521,41.521,0,0,0,128.5,7.266a16.742,16.742,0,0,1-4.477,7.373c-2.87,2.869-2.87,5.552-2.87,8.392,0,3.021,0,7.159-5.414,8.706-2.417.69-4.56,2.31-6.633,3.877-3.543,2.676-7.557,5.712-12.662,3.157a35.91,35.91,0,0,0-6.059-2.02C89.715,36.568,89.044,36.384,88.377,36.192Z"/><path d="M133.081,79.69a5.564,5.564,0,0,1-2.091-.408,2.5,2.5,0,1,1,1.879-4.634.578.578,0,0,0,.475-.024c.107-.057.119-.111.123-.128a.44.44,0,0,0-.086-.375l-4.159-5.767a1.616,1.616,0,0,0-2.622,0l-4.161,5.768a.447.447,0,0,0-.085.374c0,.017.015.071.123.128a.578.578,0,0,0,.475.024,2.5,2.5,0,0,1,1.879,4.634,5.554,5.554,0,0,1-4.689-.237,5.2,5.2,0,0,1-2.675-3.49,5.4,5.4,0,0,1,.918-4.358l4.159-5.768a6.616,6.616,0,0,1,10.733,0l4.16,5.767a5.407,5.407,0,0,1,.917,4.358,5.2,5.2,0,0,1-2.675,3.49A5.558,5.558,0,0,1,133.081,79.69Z"/><path d="M135.772,58.975a5.747,5.747,0,0,1-4.366-1.751c-2.744-2.915-1.555-8.009-1.29-9a2.5,2.5,0,0,1,4.831,1.29c-.4,1.514-.438,3.715.1,4.284.2.208.846.235,1.655.071a47.725,47.725,0,0,0,6.234-2.035c7.127-2.653,16-5.954,23.272-1.148a2.5,2.5,0,1,1-2.756,4.171c-5.157-3.407-12.39-.712-18.772,1.663a50.449,50.449,0,0,1-6.977,2.247A9.671,9.671,0,0,1,135.772,58.975Z"/><path d="M145.713,66.852a10.567,10.567,0,0,1-5.371-1.433,8.693,8.693,0,0,1-4.269-5.944,8.5,8.5,0,0,1,.381-4.411,2.5,2.5,0,0,1,1.654-1.552c1.433-.416,3.083-1.03,4.83-1.68,2.089-.777,4.458-1.657,6.846-2.335a2.5,2.5,0,0,1,1.9.219,8.821,8.821,0,0,1,4.488,6.06c.916,4.984-2.846,9.867-8.386,10.886A11.462,11.462,0,0,1,145.713,66.852Zm-4.775-8.988a3.34,3.34,0,0,0,.053.706,3.769,3.769,0,0,0,1.888,2.54,5.812,5.812,0,0,0,4,.635c2.828-.521,4.79-2.792,4.372-5.063a3.557,3.557,0,0,0-1.209-2.046c-1.819.566-3.614,1.233-5.36,1.883C143.38,57,142.13,57.468,140.938,57.864Z"/><path d="M120.048,58.975a9.6,9.6,0,0,1-1.932-.208,50.4,50.4,0,0,1-6.976-2.247c-6.381-2.375-13.614-5.069-18.773-1.663a2.5,2.5,0,1,1-2.756-4.171c7.274-4.806,16.146-1.505,23.273,1.148a47.628,47.628,0,0,0,6.234,2.035c.807.165,1.458.137,1.654-.071.54-.569.5-2.772.1-4.286a2.5,2.5,0,0,1,4.832-1.288c.266.991,1.453,6.085-1.29,9A5.751,5.751,0,0,1,120.048,58.975Z"/><path d="M110.088,66.85a11.341,11.341,0,0,1-2.051-.188,10.8,10.8,0,0,1-6.512-3.811,8.7,8.7,0,0,1-1.873-7.074,8.813,8.813,0,0,1,4.488-6.061,2.5,2.5,0,0,1,1.9-.219c2.389.678,4.757,1.558,6.846,2.335,1.747.65,3.4,1.264,4.83,1.68a2.5,2.5,0,0,1,1.654,1.552,8.477,8.477,0,0,1,.382,4.412C118.944,63.836,114.819,66.85,110.088,66.85Zm-4.31-12.214a3.558,3.558,0,0,0-1.208,2.045,3.774,3.774,0,0,0,.86,3.047,5.8,5.8,0,0,0,3.511,2.016c2.834.523,5.471-.9,5.889-3.174a3.208,3.208,0,0,0,.052-.706c-1.191-.4-2.442-.861-3.743-1.345C109.393,55.869,107.6,55.2,105.778,54.636Z"/><path d="M172.44,77.355a11.989,11.989,0,0,1-2.824-.345,2.5,2.5,0,0,1-1.793-3.19,32.71,32.71,0,0,0,1.559-9.949l-.017-15.705a2.5,2.5,0,0,1,1.072-2.088c5.456-3.8,10.8-3.893,14.664-.257h0c4.635,4.364,3.443,15.566-.525,22.891C181.536,74.322,177.217,77.355,172.44,77.355Zm1.94-27.872,0,14.388a37.573,37.573,0,0,1-.951,8.384c3.328-.574,5.586-3.778,6.749-5.925,3.469-6.4,3.725-14.768,1.493-16.869h0C179.819,47.716,177.369,47.726,174.38,49.483Z"/><path d="M83.38,77.355c-4.776,0-9.1-3.033-12.136-8.644-3.968-7.324-5.159-18.526-.524-22.89,3.861-3.635,9.2-3.542,14.658.252a2.5,2.5,0,0,1,1.072,2.089l-.013.571v15.14A32.663,32.663,0,0,0,88,73.82,2.5,2.5,0,0,1,86.2,77.01,11.983,11.983,0,0,1,83.38,77.355Zm-6.028-29.2a4.538,4.538,0,0,0-3.2,1.3c-2.232,2.1-1.976,10.465,1.494,16.869,1.163,2.146,3.421,5.349,6.748,5.925a37.491,37.491,0,0,1-.952-8.382V49.481A8.243,8.243,0,0,0,77.352,48.159Z"/><path d="M127.4,199.065a2.5,2.5,0,0,1-2.5-2.5V132.217a2.5,2.5,0,1,1,5,0v64.348A2.5,2.5,0,0,1,127.4,199.065Z"/><path d="M102.568,162.861a2.5,2.5,0,0,1-.744-.113c-1.673-.521-6.764-2.107-6.764-5.838,0-8.255,26.508-8.673,31.822-8.673,11.337,0,21.693,1.355,27.029,3.536a2.5,2.5,0,1,1-1.892,4.628c-4.7-1.922-14.569-3.164-25.137-3.164-14.633,0-23.6,2.171-26.246,3.656a14.006,14.006,0,0,0,2.675,1.081,2.5,2.5,0,0,1-.743,4.887Z"/><path d="M101.672,143.977a2.5,2.5,0,0,1-.2-4.991c10.478-.874,13.2-7.393,13.308-7.671a2.5,2.5,0,0,1,4.673,1.78c-.148.4-3.8,9.726-17.565,10.873C101.812,143.974,101.741,143.977,101.672,143.977Z"/><path d="M97.559,180.612a2.491,2.491,0,0,1-.826-.141c-1.622-.567-6.56-2.293-6.56-6.071,0-3.419,3.814-5.815,12-7.539a125.819,125.819,0,0,1,24.7-2.163,135.345,135.345,0,0,1,21.541,1.572,2.5,2.5,0,1,1-.817,4.933,130.2,130.2,0,0,0-20.724-1.5c-18.447,0-29.067,2.893-31.4,4.681a11.329,11.329,0,0,0,2.9,1.372,2.5,2.5,0,0,1-.825,4.861Z"/><path d="M97.559,189.65a2.5,2.5,0,0,1-.825-4.86c6.506-2.273,17.777-3.63,30.148-3.63a139.157,139.157,0,0,1,20.313,1.377,2.5,2.5,0,1,1-.748,4.943,134.284,134.284,0,0,0-19.565-1.32c-11.663,0-22.583,1.283-28.5,3.35A2.5,2.5,0,0,1,97.559,189.65Z"/><path d="M208.431,230.775a2.5,2.5,0,0,1-1.292-.359c-7.476-4.512-11.8-13.816-8.891-19.145,3.887-7.124,2.317-11.088.147-16.574a47.371,47.371,0,0,1-2.45-7.408c-.836-3.765.239-9.269,10.108-14.113a2.5,2.5,0,0,1,3.588,1.987c.957,9.269,2.562,25.5,2.562,30.1,0,2.616,1.572,4.246,3.394,6.132,1.547,1.6,3.146,3.261,3.733,5.608,1.181,4.719-2.719,11.5-10.2,13.67A2.49,2.49,0,0,1,208.431,230.775Zm-3.375-51.294c-2.678,1.785-4.815,4.088-4.23,6.723a43.493,43.493,0,0,0,2.217,6.652c2.263,5.717,4.6,11.629-.405,20.809-1.222,2.242,1.122,8.3,6.141,11.852,4.442-1.755,6.12-5.623,5.7-7.3-.261-1.05-1.29-2.115-2.48-3.348-2.137-2.214-4.8-4.97-4.8-9.605C207.2,201.389,205.908,187.925,205.056,179.481Z"/><path d="M170.607,105.91a2.5,2.5,0,0,1-2.5-2.5V74.6a2.5,2.5,0,0,1,5,0V103.41A2.5,2.5,0,0,1,170.607,105.91Z"/><path d="M160.319,122.628a2.5,2.5,0,0,1-2.5-2.5V98.008a2.5,2.5,0,0,1,5,0v22.12A2.5,2.5,0,0,1,160.319,122.628Z"/><path d="M85.213,105.91a2.5,2.5,0,0,1-2.5-2.5V74.6a2.5,2.5,0,0,1,5,0V103.41A2.5,2.5,0,0,1,85.213,105.91Z"/><path d="M95.5,122.628a2.5,2.5,0,0,1-2.5-2.5V98.008a2.5,2.5,0,0,1,5,0v22.12A2.5,2.5,0,0,1,95.5,122.628Z"/><path d="M127.976,108.693c-8,0-14.963-4.183-21.3-12.789a18.7,18.7,0,0,1-3.621-11.019,4.582,4.582,0,0,1,6.241-4.268,50.486,50.486,0,0,0,18.682,3.219,49.11,49.11,0,0,0,18.278-3.213,4.583,4.583,0,0,1,6.248,4.266,18.751,18.751,0,0,1-3.595,10.994C142.518,104.623,135.866,108.693,127.976,108.693ZM108.067,85.5a13.678,13.678,0,0,0,2.632,7.439c5.405,7.338,10.895,10.755,17.277,10.755,6.159,0,11.527-3.419,16.894-10.761a13.729,13.729,0,0,0,2.618-7.429,54.126,54.126,0,0,1-19.512,3.333A55.564,55.564,0,0,1,108.067,85.5Zm39.993-.213h0Zm-.9-2.331h0Z"/><path d="M128.738,96.754H122.5a4,4,0,0,1-3.994-3.994v-6.8a2.5,2.5,0,0,1,2.772-2.485,63.179,63.179,0,0,0,8.872.318,2.5,2.5,0,0,1,2.583,2.5V92.76A4,4,0,0,1,128.738,96.754Zm-5.232-5h4.227V88.835c-1.421,0-2.835-.053-4.227-.145Z"/><path d="M137.967,101.618h-6.239a4,4,0,0,1-4-3.995V86.3a2.5,2.5,0,0,1,2.416-2.5,51.386,51.386,0,0,0,8.8-1.025,2.5,2.5,0,0,1,3.009,2.447V97.623A4,4,0,0,1,137.967,101.618Zm-5.234-5h4.229V88.2c-1.383.206-2.787.36-4.229.465Z"/></svg>