<svg xmlns="http://www.w3.org/2000/svg" viewBox="0 0 256 256"><title>icon</title><path d="M161.461,60.215a9.623,9.623,0,0,1-4.728-6.881c-1.322-8.55-6.42-24.367-26.085-18.558a9.375,9.375,0,0,1-5.3,0c-19.665-5.809-24.763,10.008-26.085,18.558a9.623,9.623,0,0,1-4.728,6.881c-4.517,2.577-11,8.45-11,20.933,0,14.642,12.978,27.884,19.092,33.311a32.189,32.189,0,0,1,4.838,5.566,26.375,26.375,0,0,0,10.694,8.355,23.673,23.673,0,0,0,19.68,0,26.384,26.384,0,0,0,10.694-8.355,32.226,32.226,0,0,1,4.837-5.566c6.114-5.426,19.093-18.669,19.093-33.311C172.464,68.665,165.978,62.792,161.461,60.215Z" fill="#f9d0b4"/><path d="M147.553,61.983a48.58,48.58,0,0,1-8.432,3.743,5.555,5.555,0,1,0,8.432-3.743Z" fill="#edf4fc"/><path d="M108.447,61.983a48.58,48.58,0,0,0,8.432,3.743,5.555,5.555,0,1,1-8.432-3.743Z" fill="#edf4fc"/><path d="M178.614,45.6c-8.076-4.038-15.671,7.893-18.7,13.507a9.507,9.507,0,0,0,1.545,1.113c4.187,2.388,10.056,7.619,10.893,18.309,9.188-2.651,8.584-9.758,7.39-13.785a6.547,6.547,0,0,1,.881-5.436C182.785,56,184.352,48.464,178.614,45.6Z" fill="#f9d0b4"/><path d="M94.539,60.215A9.507,9.507,0,0,0,96.084,59.1c-3.027-5.614-10.622-17.545-18.7-13.507C71.648,48.464,73.215,56,75.375,59.3a6.547,6.547,0,0,1,.881,5.436c-1.194,4.027-1.8,11.134,7.39,13.785C84.483,67.834,90.352,62.6,94.539,60.215Z" fill="#f9d0b4"/><path d="M226.167,197.765a13.981,13.981,0,0,1-1-10.131A44.869,44.869,0,0,0,219.25,150a36.585,36.585,0,0,0-26.064-16.268,10.737,10.737,0,0,1-7.822-5.149c-4.673-7.713-12.036-11.942-16.717-13.984a10.455,10.455,0,0,1-5.866-6.7l-.712-2.469a79.959,79.959,0,0,1-8.631,8.968,32.7,32.7,0,0,0-4.9,5.624,26.381,26.381,0,0,1-10.695,8.356,23.673,23.673,0,0,1-19.68,0,26.386,26.386,0,0,1-10.7-8.357,32.635,32.635,0,0,0-4.887-5.61,79.84,79.84,0,0,1-8.646-8.981l-.712,2.469a10.458,10.458,0,0,1-5.865,6.7c-4.681,2.041-12.045,6.27-16.718,13.984a10.737,10.737,0,0,1-7.822,5.149A36.585,36.585,0,0,0,36.75,150a44.869,44.869,0,0,0-5.916,37.634,13.981,13.981,0,0,1-1,10.131c-4,7.814-9.934,25.127-2.929,51.141a6.182,6.182,0,0,0,5.957,4.594H223.139a6.182,6.182,0,0,0,5.957-4.594C236.1,222.892,230.166,205.579,226.167,197.765Z" fill="#f9d0b4"/><path d="M81.372,7.738H79.106V5.472a3.071,3.071,0,1,0-6.142,0V7.738H70.7a3.071,3.071,0,1,0,0,6.142h2.265v2.267a3.071,3.071,0,0,0,6.142,0V13.88h2.266a3.071,3.071,0,0,0,0-6.142Z" fill="#ef4460"/><path d="M211.857,112.782A10.8,10.8,0,0,1,203.2,104.3a.2.2,0,0,0-.384,0,10.8,10.8,0,0,1-8.654,8.478.19.19,0,0,0,0,.376,10.8,10.8,0,0,1,8.654,8.478.2.2,0,0,0,.384,0,10.8,10.8,0,0,1,8.654-8.478A.19.19,0,0,0,211.857,112.782Z" fill="#f5c84c"/><circle cx="61.019" cy="35.427" r="3.285" fill="#f5c84c"/><circle cx="189.019" cy="93.427" r="3.285" fill="#70d6f9"/><circle cx="34.019" cy="130.427" r="3.285" fill="#87d147"/><circle cx="163" cy="196.285" r="3.285"/><circle cx="93" cy="196.285" r="3.285"/><path d="M128,133.028a26.128,26.128,0,0,1-10.881-2.375,28.476,28.476,0,0,1-11.694-9.184,29.423,29.423,0,0,0-4.456-5.14C82.978,100.361,81.035,86.406,81.035,81.148c0-14.016,7.685-20.492,12.266-23.1a7.166,7.166,0,0,0,3.5-5.091c.975-6.3,3.593-14.737,10.533-19.138,4.977-3.155,11.275-3.64,18.731-1.437a6.831,6.831,0,0,0,3.88,0c7.453-2.2,13.754-1.717,18.731,1.437,6.94,4.4,9.558,12.836,10.533,19.138a7.163,7.163,0,0,0,3.5,5.09h0c4.581,2.612,12.266,9.088,12.266,23.1,0,5.259-1.943,19.214-19.935,35.181a29.453,29.453,0,0,0-4.456,5.141,28.472,28.472,0,0,1-11.693,9.183A26.128,26.128,0,0,1,128,133.028Zm-10.494-97a13.723,13.723,0,0,0-7.5,2.009c-5.639,3.575-7.6,11.358-8.27,15.678a12.2,12.2,0,0,1-5.96,8.671c-4.444,2.535-9.742,7.847-9.742,18.761,0,13.756,12.765,26.57,18.252,31.441a34.228,34.228,0,0,1,5.219,5.992,23.591,23.591,0,0,0,9.695,7.526,21.122,21.122,0,0,0,17.6,0,23.581,23.581,0,0,0,9.694-7.526,34.284,34.284,0,0,1,5.219-5.992c5.488-4.87,18.253-17.684,18.253-31.441,0-10.914-5.3-16.226-9.742-18.761a12.2,12.2,0,0,1-5.96-8.671c-.668-4.32-2.631-12.1-8.27-15.678-3.7-2.348-8.627-2.639-14.637-.865a11.813,11.813,0,0,1-6.712,0A25.4,25.4,0,0,0,117.506,36.029Z"/><path d="M146.282,109.719a2.5,2.5,0,0,1-1.246-.334,33.2,33.2,0,0,0-34.072,0,2.5,2.5,0,0,1-2.5-4.333,38.2,38.2,0,0,1,39.064,0,2.5,2.5,0,0,1-1.25,4.667Z"/><path d="M131.939,113.852a2.487,2.487,0,0,1-.874-.159,8.933,8.933,0,0,0-6.13,0,2.5,2.5,0,0,1-1.748-4.684,13.94,13.94,0,0,1,9.626,0,2.5,2.5,0,0,1-.874,4.843Z"/><path d="M128,92.279a2.5,2.5,0,0,1,0-5,7.891,7.891,0,0,0,7.113-4.518,5.8,5.8,0,0,1,10.346-.181l.052.1-4.436,2.307L141,84.842a.769.769,0,0,0-.7-.355.714.714,0,0,0-.662.4A12.915,12.915,0,0,1,128,92.279Z"/><path d="M128,92.279a12.915,12.915,0,0,1-11.639-7.391.714.714,0,0,0-.662-.4.778.778,0,0,0-.724.4l-.039.077a2.514,2.514,0,0,1-3.372,1.093,2.489,2.489,0,0,1-1.088-3.353s.062-.124.065-.128a5.8,5.8,0,0,1,10.346.18A7.89,7.89,0,0,0,128,87.279a2.5,2.5,0,0,1,0,5Z"/><path d="M136.991,68.9a2.5,2.5,0,0,1-.7-4.9c2.51-.731,8.85-2.829,13.495-6.519A2.5,2.5,0,0,1,152.9,61.4c-5.338,4.241-12.414,6.59-15.208,7.4A2.481,2.481,0,0,1,136.991,68.9Z"/><path d="M144.591,74.737a8.066,8.066,0,0,1-8.058-8.057,7.9,7.9,0,0,1,.126-1.388,2.5,2.5,0,0,1,1.659-1.934,46.264,46.264,0,0,0,7.989-3.542,2.5,2.5,0,0,1,2.582.054,8.054,8.054,0,0,1-4.3,14.867ZM141.64,67.48a3.057,3.057,0,0,0,6.008-.8,3.025,3.025,0,0,0-.479-1.641A51.6,51.6,0,0,1,141.64,67.48Z"/><path d="M119.009,68.9a2.481,2.481,0,0,1-.7-.1c-2.794-.813-9.87-3.162-15.208-7.4a2.5,2.5,0,0,1,3.109-3.916c4.645,3.69,10.985,5.788,13.5,6.519a2.5,2.5,0,0,1-.7,4.9Z"/><path d="M111.409,74.737a8.054,8.054,0,0,1-4.3-14.867,2.5,2.5,0,0,1,2.582-.054,46.264,46.264,0,0,0,7.989,3.542,2.5,2.5,0,0,1,1.659,1.934,7.9,7.9,0,0,1,.126,1.388A8.066,8.066,0,0,1,111.409,74.737Zm-2.578-9.7a3.025,3.025,0,0,0-.479,1.641,3.057,3.057,0,0,0,6.008.8A51.6,51.6,0,0,1,108.831,65.039Z"/><path d="M172.354,81.024a2.5,2.5,0,0,1-2.492-2.3c-.735-9.375-5.647-14.056-9.639-16.333a11.9,11.9,0,0,1-1.952-1.4,2.5,2.5,0,0,1-.555-3.068c6.9-12.8,14.925-18.1,22.016-14.558h0a9.313,9.313,0,0,1,4.957,6.05,15.076,15.076,0,0,1-1.972,11.263,4.045,4.045,0,0,0-.575,3.357c.843,2.845,1.42,7.023-.628,10.765-1.592,2.907-4.44,4.971-8.466,6.132A2.491,2.491,0,0,1,172.354,81.024Zm-9.137-22.676A24.04,24.04,0,0,1,174.412,75a6.788,6.788,0,0,0,2.715-2.61c1.222-2.232.794-5.008.221-6.943a9.03,9.03,0,0,1,1.186-7.517,9.995,9.995,0,0,0,1.328-7.221,4.328,4.328,0,0,0-2.366-2.881C172.041,45.1,166.049,53.576,163.217,58.348Z"/><path d="M83.646,81.024a2.491,2.491,0,0,1-.694-.1c-4.026-1.161-6.874-3.225-8.466-6.132-2.048-3.742-1.471-7.92-.627-10.766a4.048,4.048,0,0,0-.575-3.355,15.075,15.075,0,0,1-1.973-11.264,9.313,9.313,0,0,1,4.957-6.05c7.089-3.546,15.117,1.76,22.016,14.557a2.5,2.5,0,0,1-.555,3.068,11.9,11.9,0,0,1-1.952,1.4c-3.992,2.277-8.905,6.959-9.639,16.333a2.5,2.5,0,0,1-2.492,2.3ZM80.713,47.3a4.879,4.879,0,0,0-2.209.53,4.328,4.328,0,0,0-2.366,2.881,9.994,9.994,0,0,0,1.329,7.222,9.033,9.033,0,0,1,1.186,7.515c-.574,1.936-1,4.712.22,6.944A6.788,6.788,0,0,0,81.588,75a24.037,24.037,0,0,1,11.2-16.655C90.33,54.214,85.508,47.3,80.713,47.3Z"/><path d="M96.084,59.1q-.352.309-.733.587a9.636,9.636,0,0,0,3.916-6.355c1.322-8.55,6.42-24.367,26.085-18.558a9.375,9.375,0,0,0,5.3,0c19.665-5.809,24.763,10.008,26.085,18.558a9.636,9.636,0,0,0,3.916,6.355q-.381-.278-.733-.587c2.061-3.821,6.238-10.566,11.243-13.212-1.723-15.127-9.209-20.378-9.209-20.378l10.52-6.695c-21.04-13.389-37.3-8.607-37.3-8.607l5.184-7.172c-28.288-4.3-37.7,18.648-37.7,18.648C89.179,20.338,85.2,36.077,84.027,45.5,89.391,47.8,93.912,55.075,96.084,59.1Z" fill="#965622"/><path d="M160.647,62.188a2.488,2.488,0,0,1-1.451-.465,12.192,12.192,0,0,1-4.934-8.007c-.668-4.32-2.63-12.1-8.268-15.677-3.706-2.349-8.63-2.64-14.638-.866a11.813,11.813,0,0,1-6.712,0c-6.011-1.774-10.935-1.483-14.638.866-5.638,3.575-7.6,11.357-8.268,15.677A12.192,12.192,0,0,1,96.8,61.723a2.5,2.5,0,0,1-3.775-2.964c-3.276-5.669-6.868-9.626-9.989-10.966a2.5,2.5,0,0,1-1.494-2.606C83.657,28.274,90.538,19.1,101.012,19.1h.141C104.1,13.659,115.434-3.281,140.732.566A2.5,2.5,0,0,1,142.383,4.5l-1.749,2.42c6.917-.36,19.017.774,33.178,9.786a2.5,2.5,0,0,1,0,4.219l-7.86,5c2.632,3.057,6.5,9.187,7.692,19.678a2.5,2.5,0,0,1-1.316,2.493c-2.955,1.563-6.317,5.405-9.357,10.659a2.5,2.5,0,0,1-2.324,3.429ZM138.521,31.023a18.576,18.576,0,0,1,10.151,2.793c6.94,4.4,9.557,12.835,10.531,19.136a7.053,7.053,0,0,0,.452,1.613c2.295-3.689,5.3-7.575,8.814-9.965-1.853-12.437-7.892-17-7.954-17.042a2.5,2.5,0,0,1,.093-4.156l7.1-4.515a53.317,53.317,0,0,0-21.684-6.881,31.875,31.875,0,0,0-10.151.605,2.5,2.5,0,0,1-2.723-3.865l2.661-3.681c-9.147-.536-16.955,2-23.253,7.557a30.562,30.562,0,0,0-7.583,10.012,2.5,2.5,0,0,1-2.563,1.54C91.779,23.1,88.057,35.479,86.744,44.091c3.84,2.308,7.115,6.475,9.6,10.473a7.108,7.108,0,0,0,.451-1.612c.974-6.3,3.591-14.735,10.531-19.136,4.976-3.155,11.28-3.639,18.732-1.438a6.84,6.84,0,0,0,3.88,0A30.422,30.422,0,0,1,138.521,31.023Z"/><path d="M223.14,256H32.86a8.7,8.7,0,0,1-8.37-6.445c-7.191-26.7-1.134-44.623,3.117-52.929a11.437,11.437,0,0,0,.819-8.319,47.389,47.389,0,0,1,6.252-39.7,39.238,39.238,0,0,1,27.82-17.35,8.231,8.231,0,0,0,6-3.964c4.9-8.081,12.411-12.607,17.855-14.98a7.941,7.941,0,0,0,4.463-5.1l.711-2.468a2.5,2.5,0,0,1,4.339-.89,77.753,77.753,0,0,0,8.37,8.7,35.018,35.018,0,0,1,5.268,6.034,23.59,23.59,0,0,0,9.7,7.528,21.122,21.122,0,0,0,17.6,0,23.589,23.589,0,0,0,9.695-7.528,35.243,35.243,0,0,1,5.281-6.047,77.337,77.337,0,0,0,8.358-8.682,2.5,2.5,0,0,1,4.339.89l.711,2.469a7.942,7.942,0,0,0,4.463,5.1c5.444,2.373,12.96,6.9,17.856,14.98a8.228,8.228,0,0,0,6,3.964,39.238,39.238,0,0,1,27.82,17.35,47.384,47.384,0,0,1,6.251,39.7,11.443,11.443,0,0,0,.82,8.319c4.251,8.306,10.308,26.227,3.117,52.93A8.7,8.7,0,0,1,223.14,256ZM94.947,110.414a12.915,12.915,0,0,1-6.593,6.477c-4.781,2.084-11.364,6.029-15.579,12.987a13.2,13.2,0,0,1-9.644,6.334A34.3,34.3,0,0,0,38.822,151.4a42.451,42.451,0,0,0-5.581,35.562A16.435,16.435,0,0,1,32.059,198.9c-3.923,7.665-9.5,24.269-2.741,49.352A3.689,3.689,0,0,0,32.86,251H223.14a3.689,3.689,0,0,0,3.542-2.744c6.755-25.083,1.182-41.687-2.741-49.352h0a16.438,16.438,0,0,1-1.183-11.943,42.448,42.448,0,0,0-5.58-35.563,34.3,34.3,0,0,0-24.309-15.186,13.2,13.2,0,0,1-9.643-6.334c-4.216-6.958-10.8-10.9-15.579-12.987a12.907,12.907,0,0,1-6.594-6.476c-2.26,2.455-4.382,4.455-5.954,5.853a30.335,30.335,0,0,0-4.524,5.2,28.473,28.473,0,0,1-11.694,9.185,26.118,26.118,0,0,1-21.762,0,28.485,28.485,0,0,1-11.7-9.186,30.171,30.171,0,0,0-4.508-5.186C99.339,114.879,97.212,112.874,94.947,110.414Z"/><path d="M95.777,214a26.157,26.157,0,0,1-11.021-2.432l-16.809-7.8c-8.528-3.79-9.226-12.621-8.4-16.758a2.5,2.5,0,0,1,4.9.969h0c-.063.33-1.454,8.118,5.562,11.236l16.845,7.821a21.2,21.2,0,0,0,19.555-.894L121.64,197.3a7.78,7.78,0,0,0,3.86-6.707V165.5c0-5-5.854-10.444-16.483-15.326a115.653,115.653,0,0,0-17.623-6.249,2.5,2.5,0,1,1,1.212-4.85,118.476,118.476,0,0,1,18.436,6.528c12.911,5.917,19.458,12.612,19.458,19.9v25.1a12.8,12.8,0,0,1-6.35,11.03l-15.224,8.84A26.176,26.176,0,0,1,95.777,214Z"/><path d="M160.223,214a26.179,26.179,0,0,1-13.149-3.537l-15.223-8.839A12.8,12.8,0,0,1,125.5,190.6V165.5c0-7.285,6.547-13.98,19.458-19.9a118.476,118.476,0,0,1,18.436-6.528,2.5,2.5,0,1,1,1.212,4.85,115.653,115.653,0,0,0-17.623,6.249C136.354,155.056,130.5,160.5,130.5,165.5v25.1a7.779,7.779,0,0,0,3.861,6.707l15.223,8.839a21.2,21.2,0,0,0,19.555.894l16.808-7.8c7.127-3.168,5.667-10.914,5.6-11.242a2.5,2.5,0,1,1,4.9-.98c.828,4.137.13,12.968-8.435,16.775l-16.772,7.786A26.153,26.153,0,0,1,160.223,214Z"/><path d="M186,256a2.5,2.5,0,0,1-2.458-2.972c4.9-25.5,5.946-55.313,5.956-55.611a2.5,2.5,0,0,1,5,.166c-.011.3-1.064,30.5-6.044,56.389A2.5,2.5,0,0,1,186,256Z"/><path d="M70,256a2.5,2.5,0,0,1-2.452-2.028c-4.98-25.893-6.033-56.087-6.044-56.389a2.5,2.5,0,1,1,5-.166c.01.3,1.052,30.111,5.956,55.611A2.5,2.5,0,0,1,70,256Z"/><path d="M110.892,241.155c-1.341,0-2.641-.056-3.857-.144a22.036,22.036,0,0,1-18.114-12.272,2.5,2.5,0,0,1,4.49-2.2,17.015,17.015,0,0,0,13.985,9.483c7.492.547,13.145-.579,15.921-3.16a7.138,7.138,0,0,0,2.183-5.543,2.5,2.5,0,0,1,5,0,12.037,12.037,0,0,1-3.777,9.2C122.79,240.182,116.484,241.155,110.892,241.155Z"/><path d="M145.108,241.155c-5.593,0-11.9-.973-15.831-4.631a12.037,12.037,0,0,1-3.777-9.2V214.5a2.5,2.5,0,0,1,5,0v12.82a7.138,7.138,0,0,0,2.183,5.543c2.776,2.582,8.438,3.708,15.921,3.16a17.015,17.015,0,0,0,13.985-9.483,2.5,2.5,0,0,1,4.49,2.2,22.036,22.036,0,0,1-18.114,12.272C147.749,241.1,146.448,241.155,145.108,241.155Z"/></svg>