<svg xmlns="http://www.w3.org/2000/svg" viewBox="0 0 256 256"><title>icon</title><path d="M208.829,247.012l-3.758-79.152a15.552,15.552,0,0,0-11.732-14.217L165.9,146.737a30.8,30.8,0,0,1-6.1-2.242l-12.371-6.1a5.576,5.576,0,0,1-3.111-5V125.63a43.28,43.28,0,0,1-18.156,3.5,43.283,43.283,0,0,1-18.156-3.5v7.763a5.576,5.576,0,0,1-3.111,5l-12.371,6.1a30.815,30.815,0,0,1-6.1,2.242l-27.439,6.906A15.552,15.552,0,0,0,47.259,167.86L43.5,247.012a6.147,6.147,0,0,0,6.137,6.488H202.692A6.147,6.147,0,0,0,208.829,247.012Z" fill="#87d147"/><path d="M167.06,57.985a9.124,9.124,0,0,1-.478-6.728c1.16-3.764,2.154-9.793-1.62-13.549a5.726,5.726,0,0,1-1.8-3.85c-.224-7.244-3.749-28.174-36.995-28.174s-36.771,20.93-37,28.174a5.729,5.729,0,0,1-1.8,3.85c-3.775,3.756-2.781,9.785-1.621,13.549a9.124,9.124,0,0,1-.478,6.728c-3.563,7.309-9.5,25.222,3.7,42.69a18.333,18.333,0,0,1,3.075,6.246c1.866,6.894,8.856,22.214,34.119,22.214s32.253-15.32,34.119-22.214a18.333,18.333,0,0,1,3.075-6.246C176.557,83.207,170.624,65.294,167.06,57.985Z" fill="#87d147"/><path d="M206.814,23.327c-6.649,5.017-17.032,12.269-25.414,15.5a33.542,33.542,0,0,0-14.238,10.208c-.171.794-.372,1.543-.58,2.218a9.124,9.124,0,0,0,.478,6.728,43.877,43.877,0,0,1,4.376,21.525c16.233,4.011,32.769-35.7,39.238-53.311A2.507,2.507,0,0,0,206.814,23.327Z" fill="#87d147"/><path d="M85.27,57.985a9.124,9.124,0,0,0,.478-6.728c-.194-.632-.382-1.331-.545-2.068A33.539,33.539,0,0,0,70.9,38.968c-8.39-3.215-18.791-10.44-25.453-15.441a2.506,2.506,0,0,0-3.852,2.882C48.1,43.977,64.7,83.573,80.9,79.639A43.833,43.833,0,0,1,85.27,57.985Z" fill="#87d147"/><path d="M128.02,166.977h0a6.629,6.629,0,0,0-8.4,6.863,33.363,33.363,0,0,0,9.056,21.006,1.772,1.772,0,0,0,3.036-1.513c-.824-4.71-1.413-11.751.732-17.7A6.631,6.631,0,0,0,128.02,166.977Z" fill="#fcdd86"/><circle cx="108.778" cy="59.629" r="5.953" transform="translate(-10.303 94.383) rotate(-45)" fill="#edf4fc"/><circle cx="143.552" cy="59.629" r="5.953" fill="#edf4fc"/><path d="M126.165,98.5c-9.963,0-16.8-2.385-21.483-5.55,2.717,9.045,8.642,19.732,21.483,19.732S144.931,102,147.648,92.953C142.961,96.118,136.128,98.5,126.165,98.5Z" fill="#edf4fc"/><path d="M66.99,124.64a10.8,10.8,0,0,1-8.654-8.479.2.2,0,0,0-.384,0A10.8,10.8,0,0,1,49.3,124.64a.19.19,0,0,0,0,.376,10.8,10.8,0,0,1,8.654,8.478.2.2,0,0,0,.384,0,10.8,10.8,0,0,1,8.654-8.478A.19.19,0,0,0,66.99,124.64Z" fill="#70d6f9"/><path d="M222.023,146.7a7.185,7.185,0,0,1-5.762-5.645.13.13,0,0,0-.256,0,7.187,7.187,0,0,1-5.762,5.645.127.127,0,0,0,0,.251,7.187,7.187,0,0,1,5.762,5.645.13.13,0,0,0,.256,0,7.185,7.185,0,0,1,5.762-5.645A.127.127,0,0,0,222.023,146.7Z" fill="#ef4460"/><circle cx="161.152" cy="3.285" r="3.285" fill="#87d147"/><circle cx="37.152" cy="143.285" r="3.285" fill="#f5c84c"/><path d="M187.505,13.738h-2.266V11.472a3.071,3.071,0,0,0-6.142,0v2.266h-2.265a3.071,3.071,0,1,0,0,6.142H179.1v2.267a3.071,3.071,0,0,0,6.142,0V19.88h2.266a3.071,3.071,0,0,0,0-6.142Z" fill="#f5c84c"/><path d="M126.165,101c-24.744,0-31.611-14.1-33.415-20.157a2.5,2.5,0,0,1,4.792-1.427C102,94.388,119.043,96,126.165,96s24.168-1.615,28.623-16.584a2.5,2.5,0,0,1,4.792,1.427C157.776,86.907,150.909,101,126.165,101Z"/><path d="M126.345,100.329c-8.678,0-10.967-9.788-12.334-15.637a24.915,24.915,0,0,0-1.162-4.1,1.461,1.461,0,0,0-1.271-.665,1.5,1.5,0,0,0-1.383.662,2.544,2.544,0,0,1-3.417,1.039,2.458,2.458,0,0,1-1.02-3.349l.068-.121a6.555,6.555,0,0,1,5.86-3.23,6.4,6.4,0,0,1,5.612,3.383,25.158,25.158,0,0,1,1.581,5.247c1.507,6.442,3.108,11.775,7.466,11.775a2.5,2.5,0,0,1,0,5Z"/><path d="M125.985,100.329a2.5,2.5,0,0,1,0-5c4.358,0,5.959-5.333,7.466-11.775a25.158,25.158,0,0,1,1.581-5.247,6.4,6.4,0,0,1,5.612-3.383,6.511,6.511,0,0,1,5.838,3.19l.09.161a2.5,2.5,0,0,1-4.388,2.4l-.057-.1a1.5,1.5,0,0,0-1.375-.647,1.462,1.462,0,0,0-1.271.665,24.915,24.915,0,0,0-1.162,4.1C136.952,90.541,134.664,100.329,125.985,100.329Z"/><path d="M202.692,256H49.638a8.646,8.646,0,0,1-8.633-9.127l3.757-79.131A17.978,17.978,0,0,1,58.38,151.219l27.439-6.907a28.282,28.282,0,0,0,5.6-2.059l12.371-6.1a3.059,3.059,0,0,0,1.717-2.76V125.63a2.5,2.5,0,0,1,3.537-2.274,41.183,41.183,0,0,0,17.119,3.279,41.183,41.183,0,0,0,17.119-3.279,2.5,2.5,0,0,1,3.537,2.274v7.763a3.059,3.059,0,0,0,1.717,2.76l12.37,6.1a28.328,28.328,0,0,0,5.6,2.059l27.44,6.907a17.971,17.971,0,0,1,13.617,16.5l3.759,79.162A8.647,8.647,0,0,1,202.692,256ZM110.509,129.3v4.1a8.029,8.029,0,0,1-4.5,7.245l-12.372,6.1a33.289,33.289,0,0,1-6.592,2.424L59.6,156.068A12.994,12.994,0,0,0,49.755,168L46,247.13a3.648,3.648,0,0,0,3.64,3.87H202.692a3.647,3.647,0,0,0,3.641-3.849v-.021l-3.758-79.151a12.988,12.988,0,0,0-9.845-11.911l-27.439-6.907a33.394,33.394,0,0,1-6.592-2.423l-12.371-6.1a8.028,8.028,0,0,1-4.506-7.245v-4.1a49.182,49.182,0,0,1-15.656,2.338A49.182,49.182,0,0,1,110.509,129.3Z"/><path d="M119.508,176.587a2.535,2.535,0,0,1-.431-.037c-18.719-3.259-24.125-19.137-25.581-25.812a19.829,19.829,0,0,0-2.417-6.1,53.074,53.074,0,0,1-2.781-5.214,2.5,2.5,0,0,1,4.535-2.106,48.009,48.009,0,0,0,2.517,4.721,24.837,24.837,0,0,1,3.031,7.636c1.541,7.065,6.39,19.312,21.553,21.952a2.5,2.5,0,0,1-.426,4.963Z"/><path d="M178.319,66.217a2.5,2.5,0,0,1-2.143-3.784l1.88-3.142-1.128-.749a2.545,2.545,0,0,1-.382-.313,6.014,6.014,0,0,1-1.879-5.693c1.295-6.2,12.855-11,15.16-11.9a2.5,2.5,0,0,1,1.819,4.658c-4.73,1.851-11.562,5.752-12.085,8.264-.034.163-.094.452.368.973l2.88,1.915a2.5,2.5,0,0,1,.761,3.365L180.467,65A2.5,2.5,0,0,1,178.319,66.217Z"/><path d="M74.042,66.346A2.5,2.5,0,0,1,71.9,65.134l-3.116-5.18a2.5,2.5,0,0,1,.753-3.367l2.875-1.921c.461-.523.4-.812.366-.975-.53-2.51-7.371-6.4-12.106-8.234A2.5,2.5,0,0,1,62.477,40.8c2.306.894,13.878,5.666,15.19,11.861a6.019,6.019,0,0,1-1.866,5.7,2.488,2.488,0,0,1-.381.313l-1.126.752,1.888,3.138a2.5,2.5,0,0,1-2.14,3.789Zm-.011-9.758h0Z"/><path d="M132.278,72.694a2.5,2.5,0,0,1-2.126-1.18c-.491-.79-1.439-1.84-3.987-1.84s-3.5,1.05-3.986,1.84a2.5,2.5,0,0,1-4.247-2.64c1.191-1.916,3.586-4.2,8.233-4.2s7.042,2.284,8.233,4.2a2.5,2.5,0,0,1-2.12,3.82Z"/><path d="M126.165,177.136a2.5,2.5,0,1,1,0-5c19.913,0,25.955-14.074,27.784-22.464a24.837,24.837,0,0,1,3.031-7.636,48.009,48.009,0,0,0,2.517-4.721,2.5,2.5,0,0,1,4.535,2.106,53.074,53.074,0,0,1-2.781,5.214,19.829,19.829,0,0,0-2.417,6.1C157.1,158.675,150.456,177.136,126.165,177.136Z"/><path d="M72.564,256a2.5,2.5,0,0,1-2.5-2.5V192.982a2.5,2.5,0,0,1,5,0V253.5A2.5,2.5,0,0,1,72.564,256Z"/><path d="M179.7,256a2.5,2.5,0,0,1-2.5-2.5V192.982a2.5,2.5,0,1,1,5,0V253.5A2.5,2.5,0,0,1,179.7,256Z"/><path d="M106.806,219.231a77.054,77.054,0,0,1-19.867-3.126,2.5,2.5,0,1,1,1.338-4.817c6.749,1.875,23.281,5.6,30.993-.26,2.936-2.231,4.363-5.659,4.363-10.479a2.5,2.5,0,0,1,5,0c0,6.4-2.132,11.264-6.337,14.46C118.224,218.1,112.7,219.231,106.806,219.231Z"/><path d="M145.46,219.231c-5.891,0-11.418-1.127-15.49-4.222-4.2-3.2-6.337-8.061-6.337-14.46v-8.737a2.5,2.5,0,0,1,5,0v8.737c0,4.82,1.427,8.248,4.363,10.479,7.711,5.862,24.242,2.134,30.993.26a2.5,2.5,0,0,1,1.338,4.817A77.147,77.147,0,0,1,145.46,219.231Z"/><path d="M126.133,250a2.5,2.5,0,0,1-2.5-2.5v-22a2.5,2.5,0,0,1,5,0v22A2.5,2.5,0,0,1,126.133,250Z"/><path d="M126.165,131.635c-27.094,0-34.574-16.826-36.532-24.06a15.743,15.743,0,0,0-2.657-5.392c-14.281-18.9-7.522-37.972-3.954-45.293a6.651,6.651,0,0,0,.337-4.9c-2.1-6.821-1.3-12.524,2.246-16.057a3.3,3.3,0,0,0,1.066-2.155c.222-7.178,3.726-30.6,39.494-30.6s39.272,23.419,39.494,30.6a3.3,3.3,0,0,0,1.066,2.155c3.551,3.533,4.348,9.236,2.246,16.057a6.648,6.648,0,0,0,.337,4.9h0c3.568,7.321,10.327,26.39-3.954,45.292a15.756,15.756,0,0,0-2.657,5.393C160.739,114.809,153.259,131.635,126.165,131.635Zm0-123.451c-30.416,0-34.257,18.009-34.5,25.752a8.233,8.233,0,0,1-2.537,5.543c-2.928,2.915-1.88,8.169-.994,11.042a11.644,11.644,0,0,1-.621,8.56c-3.165,6.492-9.164,23.394,3.448,40.087a20.718,20.718,0,0,1,3.494,7.1c4.976,18.383,23.831,20.367,31.706,20.367s26.73-1.984,31.706-20.367a20.718,20.718,0,0,1,3.494-7.1c12.612-16.693,6.613-33.6,3.448-40.088a11.641,11.641,0,0,1-.621-8.559c.886-2.873,1.934-8.127-.994-11.042a8.233,8.233,0,0,1-2.537-5.543C160.422,26.193,156.581,8.184,126.165,8.184Z"/><path d="M173.707,82.289a11.94,11.94,0,0,1-2.871-.351,2.5,2.5,0,0,1-1.9-2.589,41.282,41.282,0,0,0-4.128-20.269,11.641,11.641,0,0,1-.621-8.559c.2-.664.382-1.339.526-2.008a2.493,2.493,0,0,1,.5-1.041A36.2,36.2,0,0,1,180.5,36.5c7.966-3.075,17.888-9.946,24.809-15.168h0a5.007,5.007,0,0,1,7.712,5.731C205.256,48.2,190.171,82.289,173.707,82.289Zm-4.238-32.121c-.146.611-.313,1.223-.5,1.825a6.648,6.648,0,0,0,.337,4.9,46.832,46.832,0,0,1,4.708,20.384c9.615-.445,22.526-19.86,34.312-51.936l-.01-.013c-7.175,5.414-17.512,12.556-26.017,15.839A31.335,31.335,0,0,0,169.469,50.168Z"/><path d="M78.671,82.408c-16.457,0-31.613-34.041-39.421-55.131a5.006,5.006,0,0,1,7.7-5.75c6.934,5.2,16.873,12.051,24.846,15.107A36.175,36.175,0,0,1,87.15,47.621a2.5,2.5,0,0,1,.493,1.026c.142.641.309,1.27.494,1.873a11.641,11.641,0,0,1-.62,8.561A41.239,41.239,0,0,0,83.4,79.469a2.5,2.5,0,0,1-1.9,2.6A11.877,11.877,0,0,1,78.671,82.408ZM43.945,25.526c11.829,31.98,24.762,51.36,34.369,51.865a46.8,46.8,0,0,1,4.708-20.5h0a6.648,6.648,0,0,0,.337-4.9c-.167-.541-.32-1.1-.459-1.668A31.292,31.292,0,0,0,70,41.3C61.491,38.041,51.134,30.922,43.945,25.526Z"/><path d="M129.96,197.9a4.265,4.265,0,0,1-3.092-1.332,35.993,35.993,0,0,1-9.742-22.557,9.13,9.13,0,0,1,11.569-9.446h0a9.13,9.13,0,0,1,6.1,11.915c-1.943,5.388-1.41,11.9-.621,16.417a4.235,4.235,0,0,1-2.276,4.537A4.288,4.288,0,0,1,129.96,197.9Zm-3.749-28.678a4.137,4.137,0,0,0-4.1,4.438,31.329,31.329,0,0,0,6.759,17.625c-.627-4.871-.746-11.054,1.219-16.5a4.142,4.142,0,0,0-.21-3.335,4.06,4.06,0,0,0-2.537-2.071A4.225,4.225,0,0,0,126.211,169.226Z"/><path d="M108.778,68.082a8.454,8.454,0,1,1,8.453-8.453A8.463,8.463,0,0,1,108.778,68.082Zm0-11.907a3.454,3.454,0,1,0,3.453,3.454A3.458,3.458,0,0,0,108.778,56.175Z"/><path d="M143.552,68.082a8.454,8.454,0,1,1,8.453-8.453A8.463,8.463,0,0,1,143.552,68.082Zm0-11.907a3.454,3.454,0,1,0,3.453,3.454A3.458,3.458,0,0,0,143.552,56.175Z"/><path d="M126.165,115.185c-11.393,0-19.649-7.439-23.877-21.513a2.5,2.5,0,0,1,3.794-2.791C111.114,94.28,117.871,96,126.165,96s15.051-1.723,20.084-5.122a2.5,2.5,0,0,1,3.793,2.791C145.814,107.746,137.558,115.185,126.165,115.185ZM109.32,98.17c3.769,7.979,9.417,12.015,16.845,12.015s13.076-4.036,16.845-12.015A46.117,46.117,0,0,1,126.165,101,46.117,46.117,0,0,1,109.32,98.17Z"/></svg>