<svg xmlns="http://www.w3.org/2000/svg" viewBox="0 0 256 256"><title>icon</title><path d="M124.5,174.5c5.174-14.228-5.181-21.9-12.49-25.221a7.1,7.1,0,0,1-3.269-9.936,18.39,18.39,0,0,0,2.412-11.176,37.221,37.221,0,0,1-6.735-4.532,26.842,26.842,0,0,1-10.9-3.482c1.467,5.3,1.27,12.056-5.021,18.347-13,13,14,22,14,33,0,10.737-16.2,12.9,3.487,33.454a25.5,25.5,0,0,1,5.389,8.245c1.63,4.149,2.495,9.724-.718,15.254a1.626,1.626,0,0,0,1.926,2.352,4.1,4.1,0,0,0,1.6-1C148.024,195.657,112.58,207.281,124.5,174.5Z" fill="#5b5d60"/><path d="M205.548,247.312l-3.525-75.486a14.774,14.774,0,0,0-11.006-13.559l-24.058-6.156a38.976,38.976,0,0,1-44.785,37.953c2.208,14.353,18.771,12.738-7.986,39.745a4.1,4.1,0,0,1-1.6,1,1.626,1.626,0,0,1-1.926-2.352c3.213-5.53,2.348-11.1.718-15.254a25.5,25.5,0,0,0-5.389-8.245C86.3,184.4,102.5,182.237,102.5,171.5c0-6.639-9.834-12.551-14.774-19.052l-22.743,5.819a14.774,14.774,0,0,0-11.006,13.559l-3.525,75.486a5.821,5.821,0,0,0,5.757,6.188h18.4a5.615,5.615,0,0,0,5.614-5.5l.522-26.594h0a60.868,60.868,0,0,1,6.1,15.409A90.689,90.689,0,0,1,89.167,253.5h77.666a90.689,90.689,0,0,1,2.322-16.691,60.868,60.868,0,0,1,6.1-15.409h0L175.774,248a5.615,5.615,0,0,0,5.614,5.5h18.4A5.82,5.82,0,0,0,205.548,247.312Z" fill="#dae6f1"/><path d="M128,190.5a39.127,39.127,0,0,1-5.826-.436c1.516,9.858,9.8,12.188,6.173,21.427a46.963,46.963,0,0,0,45.559-57.6l-6.947-1.778A38.98,38.98,0,0,1,128,190.5Z" fill="#edf4fc"/><path d="M107.709,206.929q-.815-1.024-1.722-1.975c-14.5-15.137-9.534-20.3-5.91-26.259a38.861,38.861,0,0,1-10.953-24.557c-.5-.559-.967-1.122-1.4-1.69l-5.632,1.441a46.922,46.922,0,0,0,25.615,53.04Z" fill="#edf4fc"/><path d="M202.023,171.826a14.774,14.774,0,0,0-11.006-13.559l-17.111-4.378a46.914,46.914,0,0,1-2.45,28.826c3.991,13.15,13.719,22.44,25.1,22.44a20.94,20.94,0,0,0,6.971-1.205Z" fill="#edf4fc"/><path d="M80.873,164.5a46.972,46.972,0,0,1,1.221-10.611l-17.111,4.378a14.774,14.774,0,0,0-11.006,13.559l-1.5,32.124a20.94,20.94,0,0,0,6.971,1.205c11.377,0,21.106-9.291,25.1-22.441A46.732,46.732,0,0,1,80.873,164.5Z" fill="#edf4fc"/><path d="M128,132.336c20.333,0,36.969-16.914,36.969-37.586V73.711c-.079-2.235-1.451-17.263-24-23.476a92.288,92.288,0,0,1-9.764-3.248,8.6,8.6,0,0,0-6.408,0,92.288,92.288,0,0,1-9.764,3.248c-22.545,6.211-23.921,21.234-24,23.474V94.75C91.031,115.422,107.667,132.334,128,132.336Z" fill="#f9d0b4"/><path d="M128,27.274A61.708,61.708,0,0,1,164.969,39.5c0-12.484-11.577-20.842-24-24.265a91.067,91.067,0,0,1-10.345-3.483,6.915,6.915,0,0,0-5.246,0,91.067,91.067,0,0,1-10.345,3.483c-12.461,3.433-24,11.893-24,24.353A61.782,61.782,0,0,1,128,27.274Z" fill="#f5c84c"/><path d="M115.032,15.235a90.859,90.859,0,0,0,10.345-3.484,6.915,6.915,0,0,1,5.246,0,90.859,90.859,0,0,0,10.345,3.484,44.882,44.882,0,0,1,12.139,5.288,26.5,26.5,0,0,0-50.224.03A44.5,44.5,0,0,1,115.032,15.235Z" fill="#5b5d60"/><path d="M176.5,58.5c0-10-11.531-19-11.531-19a61.828,61.828,0,0,0-73.938.088c0-.031,0-.061,0-.092l0,0s-12.087,9-12.087,19c0,19-19,26,0,49,10.859,13.145,20.514,15.773,25.474,16.135A37.8,37.8,0,0,1,91.031,94.75V73.709c.08-2.24,1.456-17.263,24-23.474a92.06,92.06,0,0,0,9.764-3.248,8.6,8.6,0,0,1,6.408,0,92.06,92.06,0,0,0,9.764,3.248c22.55,6.213,23.922,21.241,24,23.476V94.75a37.793,37.793,0,0,1-13.323,28.829c5.117-.535,14.429-3.46,24.854-16.079C195.5,84.5,176.5,77.5,176.5,58.5Z" fill="#5b5d60"/><path d="M202.023,171.826a14.774,14.774,0,0,0-11.006-13.559l-17.111-4.378a46.611,46.611,0,0,1,.539,18.543,27.005,27.005,0,0,0,28.111,10.8Z" fill="#f9d0b4"/><path d="M82.094,153.889l-17.111,4.378a14.774,14.774,0,0,0-11.006,13.559l-.533,11.41a27.005,27.005,0,0,0,28.106-10.8,46.79,46.79,0,0,1,.544-18.55Z" fill="#f9d0b4"/><path d="M100.077,178.7A13.506,13.506,0,0,0,102.5,171.5c0-6.06-8.19-11.513-13.376-17.362A38.861,38.861,0,0,0,100.077,178.7Z" fill="#f5c84c"/><path d="M165.471,151.73a29.8,29.8,0,0,1-3.481-1.115c-.879-.343-1.443-.588-2.433-1.072C157.037,162.568,143.872,172.5,128,172.5c-.958,0-1.9-.043-2.839-.114-.185.69-.4,1.391-.661,2.114-2.494,6.858-2.911,11.768-2.326,15.564a38.976,38.976,0,0,0,44.785-37.953Z" fill="#f5c84c"/><path d="M173,77.882c-2.411-1.392-5.437-1.038-8.031.634V94.75c0,.393-.018.781-.03,1.171,3.5.706,7.6-1.411,9.916-5.421C177.616,85.717,176.786,80.068,173,77.882Z" fill="#f9d0b4"/><path d="M91.031,94.75V78.516c-2.594-1.672-5.62-2.026-8.031-.634-3.786,2.186-4.616,7.835-1.855,12.618,2.316,4.01,6.418,6.127,9.916,5.421C91.049,95.531,91.031,95.143,91.031,94.75Z" fill="#f9d0b4"/><path d="M112.01,149.279c6.938,3.153,16.61,10.229,13.151,23.107h0c.936.071,1.881.114,2.839.114,15.872,0,29.037-9.932,31.557-22.957l.007,0c-1.624-.794-4.4-2.233-11.613-5.821a5.326,5.326,0,0,1-2.918-4.77V128.07a36.11,36.11,0,0,1-33.881.091,18.626,18.626,0,0,1-.185,5.1v5.7a5.326,5.326,0,0,1-2.918,4.77l-.142.071A7.146,7.146,0,0,0,112.01,149.279Z" fill="#f9d0b4"/><path d="M179.941,5.487h-2.33V3.157a3.158,3.158,0,0,0-6.315,0v2.33h-2.329a3.158,3.158,0,0,0,0,6.315H171.3v2.33a3.158,3.158,0,0,0,6.315,0V11.8h2.33a3.158,3.158,0,0,0,0-6.315Z" fill="#70d6f9"/><path d="M70.705,123.654a11.1,11.1,0,0,1-8.9-8.717.2.2,0,0,0-.4,0,11.1,11.1,0,0,1-8.9,8.717.2.2,0,0,0,0,.386,11.1,11.1,0,0,1,8.9,8.717.2.2,0,0,0,.4,0,11.1,11.1,0,0,1,8.9-8.717A.2.2,0,0,0,70.705,123.654Z" fill="#f5c84c"/><circle cx="184.662" cy="33.377" r="3.377" fill="#ef4460"/><circle cx="46.662" cy="146.377" r="3.377" fill="#70d6f9"/><circle cx="216.662" cy="169.377" r="3.377" fill="#f5c84c"/><circle cx="35.662" cy="227.377" r="3.377" fill="#87d147"/><path d="M127.511,115.207a23.924,23.924,0,0,1-14.786-5.36,2.5,2.5,0,0,1,3.082-3.936,18.072,18.072,0,0,0,23.394,0,2.5,2.5,0,1,1,3.082,3.936A23.907,23.907,0,0,1,127.511,115.207Z"/><path d="M139.18,86.669a2.5,2.5,0,0,1-2.08-3.884,7.062,7.062,0,0,1,11.8,0,2.5,2.5,0,0,1-4.163,2.77,2.062,2.062,0,0,0-3.469,0A2.5,2.5,0,0,1,139.18,86.669Z"/><path d="M116.822,86.672a2.5,2.5,0,0,1-2.085-1.117,2.061,2.061,0,0,0-3.471,0,2.5,2.5,0,0,1-4.164-2.768,7.062,7.062,0,0,1,11.8,0,2.5,2.5,0,0,1-2.081,3.883Z"/><path d="M112.053,233.394a4.131,4.131,0,0,1-3.556-6.2c2.253-3.877,2.44-8.279.552-13.082a22.9,22.9,0,0,0-4.868-7.43c-13.782-14.391-11.444-21-6.956-28.132,1.489-2.368,2.775-4.414,2.775-7.051,0-3.295-3.964-7.07-7.8-10.72-4.754-4.526-9.669-9.207-9.74-15-.038-3.134,1.4-6.179,4.27-9.051,4.565-4.565,6.039-9.919,4.38-15.912a2.5,2.5,0,0,1,3.614-2.858,24.368,24.368,0,0,0,9.874,3.18,2.5,2.5,0,0,1,1.433.585,34.615,34.615,0,0,0,6.281,4.225,2.5,2.5,0,0,1,1.326,1.967,20.86,20.86,0,0,1-2.73,12.668,4.437,4.437,0,0,0-.36,3.607,4.657,4.657,0,0,0,2.5,2.81c18.678,8.486,15.876,22.653,13.8,28.35-4.759,13.086-1.589,18.014,1.477,22.78,5.557,8.636,6.149,14.75-12.363,33.434a6.6,6.6,0,0,1-2.588,1.609A4.2,4.2,0,0,1,112.053,233.394Zm-15.306-109c.306,5.864-1.889,11.279-6.479,15.87-1.911,1.91-2.829,3.694-2.806,5.454.045,3.683,4.184,7.625,8.188,11.437,4.6,4.376,9.35,8.9,9.35,14.341,0,4.078-1.882,7.071-3.543,9.713-3.265,5.192-5.844,9.294,6.335,22.012a27.868,27.868,0,0,1,5.911,9.06,20.235,20.235,0,0,1,.8,13.626c15.429-16.052,13.09-19.684,9.623-25.072-3.2-4.971-7.577-11.777-1.972-27.193h0c2.422-6.661,2.45-15.9-11.174-22.09a9.673,9.673,0,0,1-5.185-5.827,9.51,9.51,0,0,1,.781-7.628,15.949,15.949,0,0,0,2.171-8.405,39.743,39.743,0,0,1-5.325-3.643A27.455,27.455,0,0,1,96.747,124.4Z"/><path d="M128,47.228a2.5,2.5,0,0,1-2.5-2.5V36.272a2.5,2.5,0,1,1,5,0v8.456A2.5,2.5,0,0,1,128,47.228Z"/><path d="M199.791,256h-18.4a8.159,8.159,0,0,1-8.115-7.955l-.3-15.471a48.372,48.372,0,0,0-1.38,4.8,87.892,87.892,0,0,0-2.26,16.228,2.5,2.5,0,0,1-2.5,2.4H89.167a2.5,2.5,0,0,1-2.5-2.4,87.892,87.892,0,0,0-2.26-16.228,48.45,48.45,0,0,0-1.38-4.8l-.3,15.47A8.159,8.159,0,0,1,74.612,256h-18.4a8.149,8.149,0,0,1-5.97-2.578,8.45,8.45,0,0,1-2.284-6.246l3.524-75.466a17.2,17.2,0,0,1,12.884-15.864l22.742-5.821a2.5,2.5,0,0,1,2.611.91,57.149,57.149,0,0,0,5.934,6.222c4.6,4.377,9.35,8.9,9.35,14.343,0,4.078-1.882,7.071-3.543,9.713-3.265,5.192-5.844,9.294,6.335,22.012a27.868,27.868,0,0,1,5.911,9.06,20.229,20.229,0,0,1,.8,13.626c15.431-16.052,13.092-19.688,9.625-25.078a25.518,25.518,0,0,1-4.421-10.389,2.5,2.5,0,0,1,2.842-2.852,36.478,36.478,0,0,0,41.914-35.519,2.5,2.5,0,0,1,3.12-2.384l24.059,6.157a17.2,17.2,0,0,1,12.882,15.843l3.526,75.5a8.451,8.451,0,0,1-2.285,6.235A8.149,8.149,0,0,1,199.791,256Zm-24.539-37.1a2.5,2.5,0,0,1,2.5,2.452l.521,26.594A3.132,3.132,0,0,0,181.388,251h18.4a3.193,3.193,0,0,0,2.339-1.016,3.385,3.385,0,0,0,.923-2.535v-.02l-3.526-75.487a12.213,12.213,0,0,0-9.128-11.253l-21.107-5.4A41.677,41.677,0,0,1,128,193q-1.246,0-2.5-.075a27.787,27.787,0,0,0,2.829,5.2c5.067,7.88,7.181,13.711-12.366,33.439a6.6,6.6,0,0,1-2.588,1.609A4.127,4.127,0,0,1,108.5,227.2c2.253-3.877,2.44-8.279.552-13.082a22.9,22.9,0,0,0-4.868-7.43c-13.782-14.391-11.444-21-6.956-28.132,1.489-2.368,2.775-4.414,2.775-7.051,0-3.3-3.964-7.071-7.8-10.722a76.047,76.047,0,0,1-5.411-5.511L65.6,160.689a12.22,12.22,0,0,0-9.13,11.274l-3.525,75.466a3.4,3.4,0,0,0,.922,2.555A3.193,3.193,0,0,0,56.209,251h18.4a3.132,3.132,0,0,0,3.115-3.055l.521-26.593a2.5,2.5,0,0,1,4.693-1.152,62.916,62.916,0,0,1,6.339,16.045A94.657,94.657,0,0,1,91.532,251h72.936a94.657,94.657,0,0,1,2.252-14.755,62.916,62.916,0,0,1,6.339-16.045A2.5,2.5,0,0,1,175.252,218.9Z"/><path d="M128.347,213.991a2.5,2.5,0,0,1-2.327-3.413c1.654-4.215.316-6.3-1.9-9.745a25.544,25.544,0,0,1-4.418-10.389,2.5,2.5,0,0,1,2.842-2.852,36.478,36.478,0,0,0,41.914-35.519,2.5,2.5,0,0,1,3.12-2.384l6.947,1.778a2.5,2.5,0,0,1,1.816,1.858,49.465,49.465,0,0,1-47.978,60.666ZM125.5,192.925a27.848,27.848,0,0,0,2.827,5.2c1.954,3.042,3.962,6.168,3.317,10.715a44.448,44.448,0,0,0,40.142-52.918l-2.5-.639A41.677,41.677,0,0,1,128,193Q126.754,193,125.5,192.925Z"/><path d="M107.708,209.429a2.5,2.5,0,0,1-1.074-.243,49.424,49.424,0,0,1-26.976-55.861,2.5,2.5,0,0,1,1.816-1.858l5.631-1.442a2.5,2.5,0,0,1,2.612.911c.368.485.786.99,1.277,1.544a2.5,2.5,0,0,1,.624,1.492,36.48,36.48,0,0,0,10.25,22.98,2.5,2.5,0,0,1,.344,3.042c-.248.408-.5.813-.756,1.217-3.265,5.192-5.844,9.295,6.336,22.014.646.674,1.276,1.4,1.873,2.147a2.5,2.5,0,0,1-1.957,4.057Zm-23.494-53.5a44.261,44.261,0,0,0,11.14,38.87c-3.1-6.658-1.276-11.153,1.591-15.8a41.5,41.5,0,0,1-10.238-23.707Z"/><path d="M196.552,207.655c-12.235,0-23.025-9.5-27.489-24.215a2.511,2.511,0,0,1,.09-1.7,44.094,44.094,0,0,0,3.474-17.242,44.634,44.634,0,0,0-1.156-10.048,2.5,2.5,0,0,1,3.055-2.985l17.112,4.379a17.2,17.2,0,0,1,12.882,15.843v.021l1.5,32.123a2.5,2.5,0,0,1-1.667,2.475A23.459,23.459,0,0,1,196.552,207.655Zm-22.44-24.827c3.947,12.075,12.682,19.827,22.44,19.827a18.231,18.231,0,0,0,4.384-.538l-1.41-30.163a12.216,12.216,0,0,0-9.129-11.265l-13.3-3.405a49.4,49.4,0,0,1-2.981,25.544Z"/><path d="M59.448,207.655a23.459,23.459,0,0,1-7.8-1.347,2.5,2.5,0,0,1-1.667-2.475l1.5-32.123a17.2,17.2,0,0,1,12.883-15.864l17.112-4.379a2.5,2.5,0,0,1,3.055,2.985A44.634,44.634,0,0,0,83.373,164.5a44.106,44.106,0,0,0,3.475,17.242,2.514,2.514,0,0,1,.089,1.7C82.474,198.15,71.684,207.655,59.448,207.655Zm-4.384-5.538a18.231,18.231,0,0,0,4.384.538c9.759,0,18.494-7.753,22.44-19.829a49.389,49.389,0,0,1-2.981-25.542l-13.3,3.405a12.22,12.22,0,0,0-9.13,11.274Z"/><path d="M128,134.836h0c-21.764,0-39.469-17.984-39.469-40.086V73.709A23.313,23.313,0,0,1,92.52,62.085c4.405-6.682,11.755-11.48,21.848-14.26a90.1,90.1,0,0,0,9.5-3.159,11.082,11.082,0,0,1,8.266,0,90.1,90.1,0,0,0,9.5,3.159c10.095,2.78,17.446,7.58,21.85,14.264a23.314,23.314,0,0,1,3.985,11.533l0,21.128C167.469,116.852,149.764,134.834,128,134.836Zm0-85.968a6.106,6.106,0,0,0-2.275.441A95.625,95.625,0,0,1,115.7,52.646c-8.89,2.449-15.283,6.55-19,12.191a18.386,18.386,0,0,0-3.165,8.96l0,20.953c0,19.345,15.463,35.084,34.469,35.086S162.469,114.1,162.469,94.75V73.711a18.425,18.425,0,0,0-3.161-8.871c-3.719-5.642-10.113-9.745-19-12.194a95.625,95.625,0,0,1-10.029-3.337A6.106,6.106,0,0,0,128,48.868Z"/><path d="M91.031,42.088a2.5,2.5,0,0,1-2.5-2.5c0-9.5,6.787-21.516,25.837-26.763a88.981,88.981,0,0,0,10.061-3.387,9.362,9.362,0,0,1,7.143,0,89.1,89.1,0,0,0,10.06,3.386c12.49,3.442,25.837,12.256,25.837,26.675a2.5,2.5,0,0,1-3.991,2.007,59.323,59.323,0,0,0-70.956.088A2.5,2.5,0,0,1,91.031,42.088ZM128,13.732a4.429,4.429,0,0,0-1.674.332,94.115,94.115,0,0,1-10.63,3.582c-12.72,3.5-19.067,10.208-21.256,16.619A63.849,63.849,0,0,1,128,24.773h0a63.973,63.973,0,0,1,33.628,9.451c-2.83-8.572-12.336-14.1-21.324-16.578a94.232,94.232,0,0,1-10.629-3.581A4.42,4.42,0,0,0,128,13.732Z"/><path d="M102.883,23.053a2.5,2.5,0,0,1-2.369-3.3,29,29,0,0,1,54.962-.033,2.5,2.5,0,0,1-3.714,2.907,42.51,42.51,0,0,0-11.457-4.984,94.183,94.183,0,0,1-10.63-3.581,4.395,4.395,0,0,0-3.349,0,94.115,94.115,0,0,1-10.63,3.582h0a42.175,42.175,0,0,0-11.462,5.01A2.489,2.489,0,0,1,102.883,23.053ZM128,5a23.976,23.976,0,0,0-19.329,9.767,50.494,50.494,0,0,1,5.7-1.942h0a88.981,88.981,0,0,0,10.061-3.387,9.362,9.362,0,0,1,7.143,0,89.1,89.1,0,0,0,10.06,3.386,50.951,50.951,0,0,1,5.69,1.934A23.983,23.983,0,0,0,128,5Z"/><path d="M104.419,126.135c-.061,0-.122,0-.184-.007-5.224-.382-15.708-3.1-27.218-17.036-13.33-16.136-9.045-25.652-4.9-34.854,2.128-4.726,4.329-9.614,4.329-15.738,0-10.956,12.174-20.313,13.061-20.98a2.493,2.493,0,0,1,.564-.328,64.32,64.32,0,0,1,76.391.3c.557.435,12.54,9.914,12.54,21.007,0,6.124,2.2,11.012,4.329,15.738,4.144,9.2,8.429,18.718-4.9,34.854-10.614,12.847-20.282,16.321-26.522,16.972a2.5,2.5,0,0,1-1.879-4.391A35.273,35.273,0,0,0,162.469,94.75V73.711a18.425,18.425,0,0,0-3.161-8.871c-3.719-5.642-10.113-9.745-19-12.194a95.31,95.31,0,0,1-10.029-3.338,6.1,6.1,0,0,0-4.551,0A95.213,95.213,0,0,1,115.7,52.646c-8.89,2.449-15.283,6.55-19,12.191a18.383,18.383,0,0,0-3.165,8.96l0,20.953a35.268,35.268,0,0,0,12.5,26.977,2.5,2.5,0,0,1-1.614,4.408ZM92.072,41.861C89.991,43.54,81.444,50.9,81.444,58.5c0,7.2-2.534,12.826-4.77,17.792-3.994,8.871-7.151,15.879,4.2,29.616,5.851,7.082,11.267,10.926,15.668,12.986A40.283,40.283,0,0,1,88.531,94.75V73.709A23.313,23.313,0,0,1,92.52,62.085c4.405-6.682,11.755-11.48,21.848-14.26a89.942,89.942,0,0,0,9.5-3.16,11.09,11.09,0,0,1,8.265,0,90.116,90.116,0,0,0,9.5,3.16c10.095,2.78,17.446,7.58,21.85,14.264a23.314,23.314,0,0,1,3.985,11.533l0,21.128a40.282,40.282,0,0,1-7.687,23.7c4.215-2.14,9.318-5.92,14.79-12.544,11.349-13.737,8.193-20.745,4.2-29.616C176.534,71.326,174,65.7,174,58.5s-7.63-14.734-10.569-17.029a59.325,59.325,0,0,0-70.909.124A2.5,2.5,0,0,1,92.072,41.861Z"/><path d="M196.552,186.414a29.591,29.591,0,0,1-24.15-12.542,2.5,2.5,0,0,1-.422-1.86,44.112,44.112,0,0,0-.509-17.56,2.5,2.5,0,0,1,3.055-2.985l17.112,4.379a17.2,17.2,0,0,1,12.882,15.843v.021l.532,11.41a2.5,2.5,0,0,1-1.944,2.554A29.669,29.669,0,0,1,196.552,186.414Zm-19.473-14.621a24.487,24.487,0,0,0,22.878,9.381l-.431-9.221a12.216,12.216,0,0,0-9.129-11.264l-13.3-3.405a48.912,48.912,0,0,1-.014,14.509Z"/><path d="M59.448,186.414a29.669,29.669,0,0,1-6.557-.74,2.5,2.5,0,0,1-1.944-2.554l.532-11.41a17.2,17.2,0,0,1,12.883-15.864l17.112-4.379a2.5,2.5,0,0,1,3.055,2.985,44.3,44.3,0,0,0-.514,17.568,2.507,2.507,0,0,1-.422,1.861A29.593,29.593,0,0,1,59.448,186.414Zm-3.405-5.24A24.489,24.489,0,0,0,78.916,171.8a49.189,49.189,0,0,1-.009-14.517l-13.3,3.405a12.22,12.22,0,0,0-9.13,11.274Z"/><path d="M100.076,181.2a2.5,2.5,0,0,1-1.792-.757A41.483,41.483,0,0,1,86.63,154.306,2.5,2.5,0,0,1,91,152.48c1.378,1.554,3.045,3.142,4.656,4.677,4.6,4.378,9.349,8.905,9.349,14.343a15.914,15.914,0,0,1-2.788,8.494,2.5,2.5,0,0,1-1.855,1.186A2.645,2.645,0,0,1,100.076,181.2Zm-7.16-19.738a36.508,36.508,0,0,0,6.593,12.819A8.15,8.15,0,0,0,100,171.5C100,168.408,96.512,164.9,92.916,161.457Z"/><path d="M128,193a41.961,41.961,0,0,1-6.2-.463,2.5,2.5,0,0,1-2.1-2.093c-.732-4.761.068-10.256,2.447-16.8.215-.591.411-1.215.6-1.909a2.509,2.509,0,0,1,2.6-1.843c.951.071,1.818.106,2.651.106,14.517,0,26.756-8.8,29.1-20.932a2.5,2.5,0,0,1,3.552-1.771c.884.432,1.387.654,2.244.99a27.947,27.947,0,0,0,3.191,1.022l1.488.38a2.5,2.5,0,0,1,1.88,2.46A41.656,41.656,0,0,1,128,193Zm-3.538-5.172c1.178.114,2.362.172,3.538.172a36.647,36.647,0,0,0,36.377-33.973,32.5,32.5,0,0,1-3.123-1.016C157.187,165.92,143.718,175,128,175q-.5,0-1.02-.015c-.042.124-.086.247-.13.369C125.084,180.207,124.3,184.311,124.462,187.828Z"/><path d="M166.28,98.554a9.343,9.343,0,0,1-1.835-.181,2.5,2.5,0,0,1-2-2.526l.01-.3c.009-.265.019-.528.019-.794V78.516a2.5,2.5,0,0,1,1.146-2.1c3.506-2.258,7.481-2.517,10.635-.7h0c4.974,2.871,6.216,10.063,2.77,16.032C174.6,95.947,170.373,98.554,166.28,98.554Zm1.189-18.547V93.42a8.6,8.6,0,0,0,5.22-4.17c2.033-3.521,1.6-7.734-.939-9.2h0A4.759,4.759,0,0,0,167.469,80.007Z"/><path d="M89.72,98.554c-4.094,0-8.316-2.607-10.74-6.8-3.446-5.969-2.2-13.161,2.77-16.032,3.155-1.821,7.13-1.561,10.635.7a2.5,2.5,0,0,1,1.146,2.1V94.75c0,.266.01.529.019.794l.01.3a2.5,2.5,0,0,1-2,2.526A9.351,9.351,0,0,1,89.72,98.554ZM86.3,79.521a4.052,4.052,0,0,0-2.048.527c-2.542,1.468-2.972,5.681-.939,9.2a8.6,8.6,0,0,0,5.22,4.17V80.007A5.741,5.741,0,0,0,86.3,79.521Z"/><path d="M128,175c-.959,0-1.949-.039-3.026-.12a2.5,2.5,0,0,1-2.227-3.142c3.089-11.5-6.05-17.583-11.771-20.182h0a9.607,9.607,0,0,1-5.541-7.4,2.5,2.5,0,0,1,1.337-2.587l.117-.058a2.862,2.862,0,0,0,1.579-2.556v-5.7a2.445,2.445,0,0,1,.038-.436,16.144,16.144,0,0,0,.16-4.414,2.5,2.5,0,0,1,3.649-2.461,33.607,33.607,0,0,0,31.544-.086,2.5,2.5,0,0,1,3.675,2.207v10.886a2.844,2.844,0,0,0,1.538,2.535c4.319,2.147,7.05,3.527,8.9,4.458,1.209.612,2.032,1.028,2.675,1.342l.035.017a2.5,2.5,0,0,1,1.309,2.848C159.12,164.56,144.854,175,128,175Zm-14.955-28c11.053,5.022,16.438,13.292,15.143,23,13.7-.071,25.33-7.98,28.481-19.1l-.958-.484c-1.839-.929-4.561-2.3-8.872-4.447a7.783,7.783,0,0,1-4.306-7.009v-6.964A38.821,38.821,0,0,1,128,134.836a38.227,38.227,0,0,1-14.35-2.768c-.046.471-.106.939-.183,1.4v5.484a7.8,7.8,0,0,1-2.647,5.9A4.61,4.61,0,0,0,113.045,147Z"/></svg>