<svg xmlns="http://www.w3.org/2000/svg" viewBox="0 0 256 256"><title>icon</title><path d="M198.017,55.288c5.65-4.563,14.12-15.219,5.676-34.634a2.955,2.955,0,0,0-5.566.456,31.209,31.209,0,0,1-14.248,19.042A56.613,56.613,0,0,1,198.017,55.288Z" fill="#edf4fc"/><path d="M102.938,55.289a56.618,56.618,0,0,1,14.138-15.137A31.211,31.211,0,0,1,102.828,21.11a2.955,2.955,0,0,0-5.565-.456C88.818,40.07,97.288,50.725,102.938,55.289Z" fill="#edf4fc"/><path d="M232.237,60.193c-8.209-8.21-19.488,8.14-25.77,19.234.066.614.135,1.227.181,1.847a23.839,23.839,0,0,0,5.05,13.392,42.962,42.962,0,0,1,8.023,14.905C232.064,101.2,242.08,70.036,232.237,60.193Z" fill="#ef4460"/><path d="M45.785,165.232c-3.978,1.295-7.345,4.6-7.749,8.444-.78,7.422,2.54,11.522,2.54,11.522a16.186,16.186,0,0,0,6.805,6.036Z" fill="#ef4460"/><path d="M211.7,94.666a23.846,23.846,0,0,1-5.049-13.392,56.328,56.328,0,0,0-112.34,0,23.854,23.854,0,0,1-5.05,13.392,47.248,47.248,0,0,0-3.6,5.084c2.765,2.287,5.021,4.452,6.457,5.9a.9.9,0,0,1-.639,1.528,7.387,7.387,0,0,0-4.577,1.31,2.8,2.8,0,0,0-.986,3.115c2.466,7.823,4.019,18.388-.841,27.434-.034.062-.073.12-.106.181,10.561,18.457,35.909,31.464,65.517,31.464,39.089,0,70.777-22.663,70.777-50.62C221.255,110.806,217.771,102.132,211.7,94.666Z" fill="#ef4460"/><path d="M68.718,60.193c-6.244,6.244-4.491,21.067.774,33.21l.15-3.175c5.84,1.88,11.583,5.859,16.01,9.521a47.106,47.106,0,0,1,3.606-5.083,23.857,23.857,0,0,0,5.05-13.392c.045-.62.115-1.233.18-1.847C88.207,68.333,76.928,51.983,68.718,60.193Z" fill="#ef4460"/><path d="M92.112,105.656c-3.733-3.774-12.98-12.372-22.47-15.428l-1.179,24.86a.9.9,0,0,0,1.449.758,9.985,9.985,0,0,1,4.468-2.115,2.936,2.936,0,0,1,3.1,2.048c1.684,5.872,2.528,13.088-.6,18.891-2.935,5.441-9.147,9.029-18.5,10.724a3.956,3.956,0,0,1-4.644-3.673l-2.255-40.465a3.155,3.155,0,0,1,1.3-2.753,9.143,9.143,0,0,1,7.489-1.54,1,1,0,0,0,1.106-1.475C58.329,90.369,50.7,78,45.461,73.308,40.779,78.543,34.589,91.65,32.123,97.092a1.008,1.008,0,0,0,1.224,1.379,9.107,9.107,0,0,1,7.117.42,3.148,3.148,0,0,1,1.739,2.666l2.265,40.637a3.952,3.952,0,0,1-4.227,4.164c-9.273-.7-15.712-3.565-19.185-8.577-3.756-5.421-3.718-12.69-2.695-18.716a2.926,2.926,0,0,1,2.852-2.37,9.975,9.975,0,0,1,4.674,1.6.9.9,0,0,0,1.358-.913L23.31,92.811C14.221,96.9,5.99,106.469,2.7,110.636a.9.9,0,0,0,.8,1.45,7.4,7.4,0,0,1,4.634.759,2.876,2.876,0,0,1,1.373,3.088c-1.569,8.041-1.92,18.676,3.9,27.1,5.413,7.838,14.892,12.082,28.214,12.686a3.967,3.967,0,0,1,3.81,3.726l5.5,89.657a4.683,4.683,0,1,0,9.348-.578L54.7,158.968a3.966,3.966,0,0,1,3.391-4.129c13.363-2.042,22.428-7.333,26.977-15.8,4.86-9.046,3.307-19.611.841-27.434a2.8,2.8,0,0,1,.986-3.115,7.385,7.385,0,0,1,4.582-1.31A.894.894,0,0,0,92.112,105.656Z" fill="#f5c84c"/><path d="M206.989,167.443a14.14,14.14,0,0,1-6.862-5.405q-1.368-2.057-2.887-3.989c-12.472,7.86-28.833,12.637-46.762,12.637s-34.291-4.777-46.763-12.638l-.077.017C98.745,165.225,92.582,168.89,90.1,170.9c-10.368,8.394-17.9,8.661-23.562,5.97a3.718,3.718,0,0,1-2.075-3.9c.375-2.676.15-5.88-2.251-8.008-1.491-1.321-3.113-.7-4.641.776a2.6,2.6,0,0,1-2.411.652l1.71,27.437c9.149,1.06,23.178-.714,32.683-3.043a2.794,2.794,0,0,1,3.431,2.954c-.069.919-1.051,28.958-1.907,53.9a5.668,5.668,0,0,0,5.668,5.861H204.2a5.666,5.666,0,0,0,5.667-5.867c-.922-25.927-2.032-55.679-2.225-57.228a2.812,2.812,0,0,1,3.32-3.121c7.937,1.481,15.045,5.231,17.063,9.652a3.747,3.747,0,0,1-.967,4.238c-1.954,1.841-3.755,4.453-3.233,7.587.327,1.964,1.976,2.5,4.094,2.317a2.662,2.662,0,0,1,2.739,1.843c2.4,7.024,12.788,8.933,17.439,4.282,5.277-5.276,5.277-10.553,5.277-10.553C255.83,187.784,222.126,173.065,206.989,167.443Z" fill="#ef4460"/><path d="M148.689,233.986a156.865,156.865,0,0,1-56.782-10.321c-.266,7.645-.554,15.968-.829,23.974a5.668,5.668,0,0,0,5.668,5.861H204.2a5.666,5.666,0,0,0,5.667-5.867c-.3-8.417-.618-17.237-.919-25.364A155.822,155.822,0,0,1,148.689,233.986Z" fill="#5b5d60"/><circle cx="130.949" cy="87.997" r="8.081" fill="#fcdd86"/><circle cx="170.008" cy="87.997" r="8.081" fill="#fcdd86"/><path d="M120.19,135.069c.027,6.58,1.953,11.537,5.183,12.154,3.36.643,7.142-3.6,9.593-10.136A111.6,111.6,0,0,1,120.19,135.069Z" fill="#edf4fc"/><path d="M174.287,131.187c3.616,5.661,8,8.881,11.091,7.634,3.5-1.411,4.21-8.093,2.04-15.853A54.934,54.934,0,0,1,174.287,131.187Z" fill="#edf4fc"/><path d="M78.372,15.738H76.106V13.472a3.071,3.071,0,1,0-6.142,0v2.266H67.7a3.071,3.071,0,1,0,0,6.142h2.265v2.267a3.071,3.071,0,0,0,6.142,0V21.88h2.266a3.071,3.071,0,0,0,0-6.142Z" fill="#f5c84c"/><path d="M241.857,154.782A10.8,10.8,0,0,1,233.2,146.3a.2.2,0,0,0-.384,0,10.8,10.8,0,0,1-8.654,8.478.19.19,0,0,0,0,.376,10.8,10.8,0,0,1,8.654,8.478.2.2,0,0,0,.384,0,10.8,10.8,0,0,1,8.654-8.478A.19.19,0,0,0,241.857,154.782Z" fill="#ef4460"/><circle cx="128.019" cy="3.285" r="3.285" fill="#70d6f9"/><circle cx="28.019" cy="202.285" r="3.285" fill="#87d147"/><circle cx="242.019" cy="127.285" r="3.285" fill="#f5c84c"/><path d="M139.59,119.105c-.062,0-.123,0-.186-.007a2.5,2.5,0,0,1-2.31-2.676,13.421,13.421,0,0,1,26.767,0,2.5,2.5,0,0,1-4.986.366,8.422,8.422,0,0,0-16.795,0A2.5,2.5,0,0,1,139.59,119.105Z"/><path d="M198.017,57.789a2.5,2.5,0,0,1-2.109-1.158A53.86,53.86,0,0,0,182.4,42.164a2.5,2.5,0,0,1,.2-4.154,28.832,28.832,0,0,0,13.122-17.549,5.427,5.427,0,0,1,4.894-4.056,5.368,5.368,0,0,1,5.378,3.253c9.077,20.867-.112,32.5-6.4,37.575A2.5,2.5,0,0,1,198.017,57.789Zm-9.89-17.482a58.711,58.711,0,0,1,10.359,11.2c9.566-9.631,6.039-22.67,2.913-29.855a.367.367,0,0,0-.422-.26.452.452,0,0,0-.436.368A33.83,33.83,0,0,1,188.127,40.307Z"/><path d="M102.938,57.789a2.5,2.5,0,0,1-1.57-.556c-6.286-5.076-15.474-16.708-6.4-37.576a5.363,5.363,0,0,1,5.378-3.252,5.427,5.427,0,0,1,4.894,4.056A28.832,28.832,0,0,0,118.364,38.01a2.5,2.5,0,0,1,.2,4.154,53.863,53.863,0,0,0-13.514,14.467,2.5,2.5,0,0,1-2.109,1.158Zm-3.006-36.4a.373.373,0,0,0-.376.262c-3.126,7.185-6.653,20.224,2.913,29.855a58.805,58.805,0,0,1,10.359-11.2,33.828,33.828,0,0,1-12.414-18.549.452.452,0,0,0-.435-.367Z"/><path d="M219.722,112.071a2.5,2.5,0,0,1-2.4-1.791,40.429,40.429,0,0,0-7.566-14.036,26.274,26.274,0,0,1-5.6-14.786c-.036-.494-.089-.981-.141-1.468l-.033-.3a2.509,2.509,0,0,1,.311-1.5c8.014-14.15,15.334-21.766,21.76-22.64a9.219,9.219,0,0,1,7.954,2.87h0c3.732,3.733,5.3,10,4.524,18.13-1.326,13.956-8.971,29.367-17.4,35.086A2.5,2.5,0,0,1,219.722,112.071ZM209.038,79.964c.039.375.075.751.1,1.13a21.3,21.3,0,0,0,4.5,12,46.618,46.618,0,0,1,7.264,12.244c6.129-6.123,11.631-18.523,12.651-29.251.618-6.5-.477-11.516-3.082-14.122h0a4.243,4.243,0,0,0-3.745-1.45C222.219,61.122,215.792,68.2,209.038,79.964Z"/><path d="M142.428,139.852a108.1,108.1,0,0,1-26.548-3.226,2.5,2.5,0,0,1,1.343-4.816c.453.127,45.742,12.332,71.587-13.511a2.5,2.5,0,0,1,3.535,3.535c-11.6,11.6-28.532,17.83-48.963,18.014C143.062,139.851,142.743,139.852,142.428,139.852Z"/><path d="M199.827,123.11a2.5,2.5,0,0,1-2.486-2.274c-.088-.957-1.1-9.339-9.252-8.622a2.5,2.5,0,0,1-.483-4.977,14.554,14.554,0,0,1,9.884,3c2.8,2.315,4.429,5.727,4.829,10.143a2.5,2.5,0,0,1-2.262,2.716C199.979,123.107,199.9,123.11,199.827,123.11Z"/><path d="M47.381,193.734a2.505,2.505,0,0,1-1.109-.259,18.714,18.714,0,0,1-7.761-6.864c-.676-.918-3.762-5.581-2.961-13.2.488-4.632,4.29-8.876,9.461-10.561a2.5,2.5,0,0,1,3.269,2.224l1.6,26a2.5,2.5,0,0,1-2.495,2.653Zm-3.858-24.543a7.193,7.193,0,0,0-3,4.747c-.653,6.217,1.97,9.654,2,9.687a2.619,2.619,0,0,1,.186.265,12.657,12.657,0,0,0,1.864,2.358Z"/><path d="M150.478,173.187c-29.745,0-56.313-12.845-67.687-32.723a2.5,2.5,0,0,1-.03-2.429c.036-.067.074-.132.113-.2,4.521-8.413,2.85-18.5.649-25.481a5.277,5.277,0,0,1,1.914-5.9,9.145,9.145,0,0,1,2.583-1.3c-1.128-1.056-2.465-2.252-3.961-3.489a2.5,2.5,0,0,1-.537-3.236,50.049,50.049,0,0,1,3.8-5.351,21.3,21.3,0,0,0,4.5-12,58.829,58.829,0,0,1,117.327,0,21.3,21.3,0,0,0,4.5,12c6.619,8.137,10.118,17.465,10.118,26.977C223.755,149.357,190.883,173.187,150.478,173.187ZM87.819,139.142c10.869,17.687,35.27,29.045,62.659,29.045,37.648,0,68.277-21.587,68.277-48.121,0-8.349-3.111-16.587-9-23.822h0a26.274,26.274,0,0,1-5.6-14.786,53.828,53.828,0,0,0-107.353,0,26.274,26.274,0,0,1-5.6,14.786c-.789.969-1.542,1.981-2.253,3.021,2.094,1.822,3.8,3.472,4.943,4.63a3.4,3.4,0,0,1-2.462,5.787,4.906,4.906,0,0,0-3.071.84.322.322,0,0,0-.062.333C90.691,118.467,92.49,129.433,87.819,139.142Z"/><path d="M85.652,102.249a2.5,2.5,0,0,1-1.593-.574,55.554,55.554,0,0,0-12.1-7.866A2.5,2.5,0,0,1,67.2,94.4c-5.452-12.576-7.643-28.576-.248-35.972h0a9.227,9.227,0,0,1,7.954-2.87c6.427.874,13.748,8.491,21.76,22.64a2.509,2.509,0,0,1,.311,1.5l-.029.265c-.053.5-.108,1-.145,1.5a26.274,26.274,0,0,1-5.6,14.785,44.65,44.65,0,0,0-3.414,4.813,2.5,2.5,0,0,1-1.721,1.158A2.457,2.457,0,0,1,85.652,102.249Zm-15.67-14.5a2.534,2.534,0,0,1,.427.1A49.537,49.537,0,0,1,85.066,96.08c.712-1.023,1.465-2.024,2.252-2.991a21.3,21.3,0,0,0,4.5-12q.044-.567.1-1.127C85.164,68.2,78.737,61.122,74.231,60.51a4.238,4.238,0,0,0-3.746,1.45C66.26,66.187,66.169,76.586,69.982,87.751Z"/><path d="M55.606,256a7.192,7.192,0,0,1-7.168-6.743l-5.5-89.657a1.474,1.474,0,0,0-1.429-1.382c-14.148-.641-24.293-5.272-30.157-13.762-6.416-9.291-5.877-20.9-4.295-29a.412.412,0,0,0-.121-.416,4.959,4.959,0,0,0-3.11-.473,3.4,3.4,0,0,1-3.087-5.48C4,104.953,12.641,94.871,22.284,90.531a2.5,2.5,0,0,1,3.494,1.885l3.935,24.575a3.4,3.4,0,0,1-5.138,3.436,7.6,7.6,0,0,0-3.451-1.234.526.526,0,0,0-.3.291c-.845,4.974-1.135,11.939,2.285,16.873,3.011,4.345,8.837,6.871,17.318,7.508a1.377,1.377,0,0,0,1.1-.408,1.445,1.445,0,0,0,.439-1.124L39.707,101.7a.653.653,0,0,0-.335-.556,6.618,6.618,0,0,0-5.227-.3,3.508,3.508,0,0,1-4.3-4.78c3.1-6.846,9.013-19.121,13.752-24.418a2.5,2.5,0,0,1,3.53-.2c5.3,4.74,12.547,16.3,16.4,22.764a3.48,3.48,0,0,1-.158,3.809,3.535,3.535,0,0,1-3.617,1.39,6.657,6.657,0,0,0-5.52,1.132.663.663,0,0,0-.25.579l2.255,40.463a1.452,1.452,0,0,0,.555,1.063,1.409,1.409,0,0,0,1.148.289c8.565-1.552,14.2-4.732,16.744-9.451,2.847-5.281,1.788-12.168.4-17.015a.521.521,0,0,0-.346-.262,7.59,7.59,0,0,0-3.279,1.61,3.361,3.361,0,0,1-3.649.34,3.413,3.413,0,0,1-1.837-3.185l1.18-24.862a2.5,2.5,0,0,1,3.263-2.261c10.07,3.243,19.776,12.3,23.481,16.049h0a3.392,3.392,0,0,1,.706,3.735,3.354,3.354,0,0,1-3.167,2.049,4.907,4.907,0,0,0-3.076.841.318.318,0,0,0-.061.331c2.489,7.9,4.332,19.4-1.023,29.37-4.927,9.17-14.617,14.919-28.8,17.086a1.468,1.468,0,0,0-1.273,1.517l5.579,89.544A7.182,7.182,0,0,1,55.606,256ZM6.705,109.7a9.193,9.193,0,0,1,2.63.955,5.348,5.348,0,0,1,2.627,5.758c-1.4,7.161-1.926,17.345,3.5,25.2,4.929,7.136,13.766,11.042,26.269,11.609a6.455,6.455,0,0,1,6.194,6.085l5.5,89.643A2.185,2.185,0,0,0,55.606,251a2.183,2.183,0,0,0,2.178-2.318L52.2,159.123a6.45,6.45,0,0,1,5.508-6.755c12.547-1.918,21.01-6.8,25.152-14.51,4.531-8.432,2.86-18.521.659-25.5a5.277,5.277,0,0,1,1.912-5.9,9.207,9.207,0,0,1,2.586-1.3c-3.708-3.472-9.71-8.5-16.045-11.353L71.1,112.17a10.382,10.382,0,0,1,2.911-.912,5.407,5.407,0,0,1,5.869,3.833c2.394,8.348,2.125,15.335-.8,20.765-3.3,6.124-10.117,10.161-20.253,12a6.455,6.455,0,0,1-7.586-5.994L48.985,101.4a5.628,5.628,0,0,1,2.345-4.931A11.7,11.7,0,0,1,57.7,94.246c-2.84-4.636-7.93-12.6-12.033-17.172-3.571,5-7.743,13.48-10.046,18.393a11.452,11.452,0,0,1,5.931,1.176,5.64,5.64,0,0,1,3.143,4.774l2.266,40.638a6.455,6.455,0,0,1-6.911,6.8C30,148.1,22.913,144.85,19,139.205c-3.516-5.073-4.561-11.99-3.106-20.558a5.408,5.408,0,0,1,5.23-4.454c.059,0,.117,0,.175,0a10.348,10.348,0,0,1,2.993.577l-2.9-18.142C15.412,100.175,10,105.835,6.705,109.7Zm83.628-2.286,0,0Z"/><path d="M204.2,256H96.746a8.169,8.169,0,0,1-8.166-8.447c.624-18.181,1.827-52.865,1.911-54a.325.325,0,0,0-.114-.287.234.234,0,0,0-.229-.054c-9.325,2.285-23.8,4.23-33.565,3.1a2.5,2.5,0,0,1-2.207-2.328l-1.71-27.437a2.5,2.5,0,0,1,3.054-2.592.127.127,0,0,0,.113-.012c3.993-3.862,7.16-1.627,8.038-.85,2.621,2.323,3.682,5.859,3.068,10.227a1.226,1.226,0,0,0,.672,1.291c5.909,2.807,12.751.957,20.917-5.655.5-.4,1.132-.869,1.873-1.41a44.082,44.082,0,0,0,11.173-10.892,2.5,2.5,0,0,1,1.535-1.032,2.679,2.679,0,0,1,1.939.312c12.537,7.9,28.671,12.253,45.43,12.253s32.891-4.352,45.428-12.253a2.5,2.5,0,0,1,3.3.568c1.04,1.322,2.051,2.719,3,4.151a11.572,11.572,0,0,0,5.65,4.447c44.15,16.4,49.061,33.147,48,41.752-.051,1.136-.588,6.7-6,12.119-2.837,2.838-7.443,3.941-12.015,2.878a12.875,12.875,0,0,1-9.557-8.12c-.027-.081-.094-.162-.152-.16-5.547.489-6.588-3.242-6.781-4.4-.571-3.427.806-6.822,3.984-9.817a1.269,1.269,0,0,0,.407-1.38c-1.582-3.468-7.852-6.853-15.247-8.232a.313.313,0,0,0-.287.077.309.309,0,0,0-.094.276c.258,2.064,1.782,44.494,2.243,57.449A8.166,8.166,0,0,1,204.2,256ZM90.231,188.2a5.2,5.2,0,0,1,3.377,1.249,5.356,5.356,0,0,1,1.87,4.475c-.074,1.121-1.035,28.557-1.9,53.8A3.169,3.169,0,0,0,96.746,251H204.2a3.167,3.167,0,0,0,3.169-3.278c-1.162-32.637-2.05-55.551-2.209-57.016a5.311,5.311,0,0,1,6.26-5.879c9.181,1.712,16.591,6.058,18.879,11.071a6.232,6.232,0,0,1-1.526,7.095c-1.936,1.823-2.77,3.626-2.482,5.357a.711.711,0,0,0,.045.169,2.754,2.754,0,0,0,.822.095c.155,0,.333-.008.54-.026a5.161,5.161,0,0,1,5.326,3.524,7.93,7.93,0,0,0,5.957,4.867c2.862.664,5.745.059,7.348-1.543,4.4-4.4,4.54-8.634,4.544-8.812a2.945,2.945,0,0,1,.022-.3c.932-7.156-4.286-14.616-15.509-22.173-9.577-6.449-21.2-11.372-29.264-14.367h0a16.534,16.534,0,0,1-8.07-6.363q-.7-1.05-1.439-2.066c-13.018,7.641-29.3,11.829-46.13,11.829s-33.121-4.19-46.14-11.834a51.377,51.377,0,0,1-10.986,10.23c-.663.484-1.233.9-1.677,1.258-9.678,7.836-18.5,9.949-26.208,6.287a6.2,6.2,0,0,1-3.479-6.5c.375-2.667-.107-4.615-1.433-5.79a.71.71,0,0,0-.141-.1,3.524,3.524,0,0,0-1.1.8,5.041,5.041,0,0,1-1.511,1.008l1.432,22.985c8.742.56,21.237-1.091,29.727-3.172A5.338,5.338,0,0,1,90.231,188.2Z"/><path d="M204.2,256H96.746a8.17,8.17,0,0,1-8.167-8.447c.276-8.006.564-16.33.83-23.975a2.5,2.5,0,0,1,3.406-2.242,155.366,155.366,0,0,0,55.873,10.15,153.975,153.975,0,0,0,59.285-11.522,2.5,2.5,0,0,1,3.468,2.212c.3,8.129.621,16.949.92,25.368A8.166,8.166,0,0,1,204.2,256ZM94.285,227.228c-.231,6.653-.474,13.69-.709,20.5A3.169,3.169,0,0,0,96.746,251H204.2a3.167,3.167,0,0,0,3.169-3.278c-.257-7.2-.526-14.692-.788-21.8a160.2,160.2,0,0,1-57.889,10.559A161.51,161.51,0,0,1,94.285,227.228Z"/><path d="M130.948,98.578A10.581,10.581,0,1,1,141.53,88,10.593,10.593,0,0,1,130.948,98.578Zm0-16.162A5.581,5.581,0,1,0,136.53,88,5.587,5.587,0,0,0,130.948,82.416Z"/><path d="M170.009,98.578A10.581,10.581,0,1,1,180.59,88,10.593,10.593,0,0,1,170.009,98.578Zm0-16.162A5.581,5.581,0,1,0,175.59,88,5.587,5.587,0,0,0,170.009,82.416Z"/><path d="M126.057,149.788a6.168,6.168,0,0,1-1.154-.109c-4.483-.858-7.179-6.316-7.213-14.6a2.5,2.5,0,0,1,3.01-2.457,109.2,109.2,0,0,0,14.44,1.971,2.5,2.5,0,0,1,2.167,3.372C134.52,145.4,130.293,149.788,126.057,149.788Zm-3.194-11.662c.49,4.258,1.916,6.438,2.98,6.642,1.095.206,3.359-1.449,5.433-5.486C128.053,138.958,125.2,138.537,122.863,138.126Z"/><path d="M184,141.583c-3.782,0-8.118-3.257-11.818-9.051a2.5,2.5,0,0,1,1.084-3.627,52.589,52.589,0,0,0,12.536-7.844,2.5,2.5,0,0,1,4.024,1.233c2.661,9.515,1.282,16.912-3.512,18.846A6.14,6.14,0,0,1,184,141.583Zm-5.963-9.419c2.835,3.605,5.346,4.767,6.406,4.339,1.287-.519,2.238-3.852,1.4-9.117A57.844,57.844,0,0,1,178.036,132.164Z"/></svg>