<svg xmlns="http://www.w3.org/2000/svg" viewBox="0 0 256 256"><title>icon</title><path d="M207.736,247.241l-3.624-76.348A15,15,0,0,0,192.8,157.18l-26.467-6.662a29.643,29.643,0,0,1-5.882-2.163L149.59,143a65.268,65.268,0,0,0-17.782,14.15,5,5,0,0,1-7.616,0A65.268,65.268,0,0,0,106.41,143l-10.857,5.353a29.611,29.611,0,0,1-5.881,2.163L63.205,157.18a15,15,0,0,0-11.317,13.713l-3.624,76.348a5.928,5.928,0,0,0,5.919,6.259H201.817A5.928,5.928,0,0,0,207.736,247.241Z" fill="#edf4fc"/><path d="M174.24,73.771c-.193,0-.381.018-.571.028v6.286a36.171,36.171,0,0,1-1.1,8.838A37.058,37.058,0,0,0,171.6,94.6a10.58,10.58,0,1,0,2.639-20.825Z" fill="#f9d0b4"/><path d="M83.431,88.921a36.241,36.241,0,0,1-1.1-8.834V73.8c-.19-.01-.378-.028-.571-.028A10.585,10.585,0,1,0,84.4,94.6,36.951,36.951,0,0,0,83.431,88.921Z" fill="#f9d0b4"/><path d="M128,46.506a159.876,159.876,0,0,1,42.339,6.269L164.77,15.059a11.745,11.745,0,0,0-9.427-10.132A174.532,174.532,0,0,0,128,2.5a174.532,174.532,0,0,0-27.343,2.425A11.745,11.745,0,0,0,91.23,15.059L85.661,52.775A159.876,159.876,0,0,1,128,46.506Z" fill="#57af12"/><path d="M205.692,71.546C177.835,45.886,128,46.506,128,46.506s-49.835-.62-77.692,25.04a1.589,1.589,0,0,0,1.515,2.706c9.7-2.96,29.052-7.272,45.924-1.318,2.733.965,5.238,1.836,7.532,2.624a69.953,69.953,0,0,0,45.442,0c2.294-.788,4.8-1.659,7.532-2.624,16.872-5.954,36.221-1.642,45.924,1.318A1.589,1.589,0,0,0,205.692,71.546Z" fill="#57af12"/><path d="M158.253,72.934c-2.733.965-5.238,1.836-7.532,2.624a69.953,69.953,0,0,1-45.442,0c-2.294-.788-4.8-1.659-7.532-2.624a54.515,54.515,0,0,0-15.416-2.89V80.087a36.241,36.241,0,0,0,1.1,8.834,34.483,34.483,0,0,1,.925,12.17C82.98,113.684,83.892,132.405,99.5,139.5c13.077,5.944,20.678,12.948,24.692,17.652a5,5,0,0,0,7.616,0c4.014-4.7,11.615-11.708,24.692-17.652,15.608-7.095,16.52-25.815,15.144-38.409a34.5,34.5,0,0,1,.924-12.168,36.171,36.171,0,0,0,1.1-8.838V70.044A54.544,54.544,0,0,0,158.253,72.934Z" fill="#fc8c48"/><path d="M139.5,34.549v7.9a5.042,5.042,0,0,1-2.636,4.4,160.607,160.607,0,0,1,33.475,5.92l-2.466-16.7a161.987,161.987,0,0,0-29.909-5.133A5.029,5.029,0,0,1,139.5,34.549Z" fill="#5b5d60"/><path d="M116.5,42.45v-7.9a5.029,5.029,0,0,1,1.536-3.61,161.987,161.987,0,0,0-29.909,5.133l-2.466,16.7a160.607,160.607,0,0,1,33.475-5.92A5.042,5.042,0,0,1,116.5,42.45Z" fill="#5b5d60"/><path d="M139.5,42.45v-7.9a5.064,5.064,0,0,0-5.049-5.049h-12.9a5.064,5.064,0,0,0-5.049,5.049v7.9a5.042,5.042,0,0,0,2.636,4.4c5.486-.391,8.864-.349,8.864-.349s3.378-.042,8.864.349A5.042,5.042,0,0,0,139.5,42.45Z" fill="#f5c84c"/><path d="M161.156,79.789c.435-2.675.99-5.411,1.557-8.181-1.5.371-2.99.807-4.46,1.326-2.733.965-5.238,1.836-7.532,2.624a69.953,69.953,0,0,1-45.442,0c-2.294-.788-4.8-1.659-7.532-2.624-1.244-.439-2.5-.815-3.767-1.147.553,2.709,1.093,5.384,1.52,8,1.93,11.845-.278,20.728-2.1,25.558a15.342,15.342,0,0,0-.18,10.615c6.773,18.723,24.284,14.89,31.7,12.275a10.227,10.227,0,0,1,6.806,0c7.42,2.615,24.931,6.448,31.7-12.275a15.347,15.347,0,0,0-.18-10.615C161.434,100.517,159.226,91.634,161.156,79.789Z" fill="#f9d0b4"/><path d="M207.736,247.241l-3.624-76.348A15,15,0,0,0,192.8,157.18l-26.467-6.662a29.611,29.611,0,0,1-5.881-2.163L149.59,143c-2.338,1.318-4.442,2.653-6.34,3.976v78a22.634,22.634,0,0,0,2.123,9.57l8.844,18.951h47.6A5.928,5.928,0,0,0,207.736,247.241Z" fill="#57af12"/><path d="M95.553,148.356a29.694,29.694,0,0,1-5.881,2.162L63.205,157.18a15,15,0,0,0-11.317,13.713l-3.624,76.348a5.928,5.928,0,0,0,5.919,6.259h47.834l8.61-18.451a22.634,22.634,0,0,0,2.123-9.57v-78.5c-1.9-1.323-4-2.658-6.34-3.976Z" fill="#57af12"/><path d="M164.291,183.1l-6.849-5.6a2.692,2.692,0,0,1-.083-4.095l5.376-4.779a2.692,2.692,0,0,0,.8-2.751l-5.319-18.617L149.59,143c-2.338,1.318-4.442,2.653-6.34,3.976v78a22.6,22.6,0,0,0,.97,6.527l20.743-45.057A2.69,2.69,0,0,0,164.291,183.1Z" fill="#87d147"/><path d="M97.784,147.256l-5.319,18.617a2.692,2.692,0,0,0,.8,2.751l5.376,4.779a2.692,2.692,0,0,1-.083,4.095l-6.849,5.6a2.69,2.69,0,0,0-.672,3.347l20.836,45.258a22.632,22.632,0,0,0,.877-6.228v-78.5c-1.9-1.323-4-2.658-6.34-3.976Z" fill="#87d147"/><path d="M70.705,127.654a11.1,11.1,0,0,1-8.9-8.717.2.2,0,0,0-.4,0,11.1,11.1,0,0,1-8.9,8.717.2.2,0,0,0,0,.386,11.1,11.1,0,0,1,8.9,8.717.2.2,0,0,0,.4,0,11.1,11.1,0,0,1,8.9-8.717A.2.2,0,0,0,70.705,127.654Z" fill="#f5c84c"/><path d="M190.941,9.487h-2.33V7.157a3.158,3.158,0,0,0-6.315,0v2.33h-2.329a3.158,3.158,0,0,0,0,6.315H182.3v2.33a3.158,3.158,0,0,0,6.315,0V15.8h2.33a3.158,3.158,0,0,0,0-6.315Z" fill="#ef4460"/><circle cx="193.662" cy="41.377" r="3.377" fill="#f5c84c"/><circle cx="37.662" cy="146.377" r="3.377" fill="#70d6f9"/><circle cx="219.662" cy="198.377" r="3.377" fill="#87d147"/><path d="M201.817,256H54.184a8.429,8.429,0,0,1-8.416-8.9l3.623-76.328a17.431,17.431,0,0,1,13.2-16.02l26.468-6.662a27.193,27.193,0,0,0,5.386-1.98l10.857-5.353a2.5,2.5,0,0,1,2.333.064,67.927,67.927,0,0,1,18.456,14.7,2.55,2.55,0,0,0,3.812,0,67.927,67.927,0,0,1,18.456-14.7,2.5,2.5,0,0,1,2.333-.064l10.857,5.353a27.193,27.193,0,0,0,5.386,1.98l26.468,6.662a17.425,17.425,0,0,1,13.2,16l3.625,76.361A8.429,8.429,0,0,1,201.817,256Zm-95.5-110.167L96.659,150.6a32.229,32.229,0,0,1-6.377,2.344L63.815,159.6a12.447,12.447,0,0,0-9.431,11.428l-3.623,76.327A3.428,3.428,0,0,0,54.184,251H201.817a3.427,3.427,0,0,0,3.423-3.62v-.021l-3.624-76.347a12.441,12.441,0,0,0-9.43-11.408l-26.467-6.662a32.166,32.166,0,0,1-6.377-2.344l-9.662-4.765a61.981,61.981,0,0,0-15.969,12.942,7.5,7.5,0,0,1-11.42,0A61.981,61.981,0,0,0,106.321,145.833Z"/><path d="M174.24,97.44a13.172,13.172,0,0,1-3.26-.422,2.5,2.5,0,0,1-1.868-2.647,39.523,39.523,0,0,1,1.032-6.058,33.781,33.781,0,0,0,1.025-8.228V73.8a2.5,2.5,0,0,1,2.373-2.5l.145-.009c.184-.012.368-.022.554-.022a13.085,13.085,0,1,1,0,26.169ZM176.169,76.5v3.582a38.8,38.8,0,0,1-1.176,9.448c-.242.961-.442,1.933-.6,2.906A8.086,8.086,0,0,0,176.169,76.5Z"/><path d="M81.76,97.44a13.085,13.085,0,1,1,0-26.169c.186,0,.37.01.553.022l.146.009a2.5,2.5,0,0,1,2.372,2.5v6.288a33.8,33.8,0,0,0,1.024,8.224h0a39.326,39.326,0,0,1,1.033,6.06,2.5,2.5,0,0,1-1.868,2.647A13.172,13.172,0,0,1,81.76,97.44ZM79.831,76.5a8.086,8.086,0,0,0,1.776,15.936c-.158-.974-.358-1.947-.6-2.908h0a38.755,38.755,0,0,1-1.176-9.443Z"/><path d="M170.339,55.275a2.518,2.518,0,0,1-.712-.1,158.475,158.475,0,0,0-41.6-6.166h-.061a158.842,158.842,0,0,0-41.6,6.166,2.5,2.5,0,0,1-3.185-2.762l5.569-37.717a14.181,14.181,0,0,1,11.5-12.234A176.378,176.378,0,0,1,128.033,0a176.435,176.435,0,0,1,27.711,2.457,14.181,14.181,0,0,1,11.5,12.234l5.569,37.717a2.5,2.5,0,0,1-2.473,2.865ZM128.412,44a162.365,162.365,0,0,1,38.89,5.32l-5-33.9A9.207,9.207,0,0,0,154.942,7.4,173.671,173.671,0,0,0,128.033,5,173.988,173.988,0,0,0,101.058,7.4,9.207,9.207,0,0,0,93.7,15.424L88.7,49.324A161,161,0,0,1,128,44.006Z"/><path d="M128,81.829a72.54,72.54,0,0,1-23.533-3.907q-3.45-1.184-7.552-2.63C80.807,69.605,62.207,73.7,52.552,76.644a4.089,4.089,0,0,1-3.938-6.936c28.261-26.032,77.341-25.725,79.417-25.7,2.009-.038,51.091-.333,79.355,25.7a4.089,4.089,0,0,1-3.938,6.936c-9.655-2.946-28.253-7.038-44.363-1.352q-4.11,1.451-7.552,2.63A72.567,72.567,0,0,1,128,81.829ZM78.832,67.451a59.407,59.407,0,0,1,19.747,3.126c2.725.961,5.223,1.831,7.511,2.616a67.8,67.8,0,0,0,43.82,0c2.288-.785,4.786-1.655,7.512-2.616,15.4-5.435,32.617-2.713,43.491.15C173.647,48.733,128.509,49,128.03,49.006c-.526.015-45.676-.275-72.943,21.721A95.009,95.009,0,0,1,78.832,67.451ZM204,73.386h0Z"/><path d="M128,161.413a7.5,7.5,0,0,1-5.71-2.638c-3.923-4.6-11.242-11.28-23.825-17-12.944-5.883-18.837-20.429-16.594-40.957a31.99,31.99,0,0,0-.864-11.289,38.755,38.755,0,0,1-1.176-9.443V70.044a2.5,2.5,0,0,1,2.626-2.5,57.109,57.109,0,0,1,16.122,3.029q4.088,1.443,7.511,2.617a67.8,67.8,0,0,0,43.82,0q3.431-1.177,7.511-2.617h0a57.1,57.1,0,0,1,16.121-3.029,2.528,2.528,0,0,1,1.849.685,2.5,2.5,0,0,1,.777,1.812V80.085a38.8,38.8,0,0,1-1.176,9.448,31.952,31.952,0,0,0-.864,11.287c2.243,20.527-3.65,35.072-16.594,40.956-12.583,5.719-19.9,12.4-23.825,17A7.5,7.5,0,0,1,128,161.413ZM84.831,72.729v7.358a33.817,33.817,0,0,0,1.024,8.225,36.932,36.932,0,0,1,.986,13.05c-2.549,23.337,6.039,32.383,13.694,35.862,13.419,6.1,21.306,13.322,25.559,18.305a2.55,2.55,0,0,0,3.812,0c4.253-4.983,12.14-12.2,25.559-18.305,7.655-3.479,16.243-12.525,13.694-35.861a36.931,36.931,0,0,1,.985-13.05,33.781,33.781,0,0,0,1.025-8.228V72.729a50.363,50.363,0,0,0-12.083,2.562h0q-4.11,1.452-7.552,2.631a72.824,72.824,0,0,1-47.066,0q-3.45-1.184-7.552-2.631A50.361,50.361,0,0,0,84.831,72.729Z"/><path d="M141.5,41h-13a2.5,2.5,0,0,1,0-5h13a2.5,2.5,0,0,1,0,5Z"/><path d="M128,106.771a2.5,2.5,0,0,1,0-5,5.849,5.849,0,0,0,5.271-3.349,5.148,5.148,0,0,1,9.193-.163l.065.128a2.5,2.5,0,1,1-4.471,2.236l-.106-.108a.221.221,0,0,0-.145.014A10.881,10.881,0,0,1,128,106.771Z"/><path d="M128,106.771a10.869,10.869,0,0,1-9.8-6.222.159.159,0,0,0-.156-.034,2.585,2.585,0,0,1-3.407,1.172,2.459,2.459,0,0,1-1.17-3.3l.06-.119a5.148,5.148,0,0,1,9.2.153,5.848,5.848,0,0,0,5.271,3.35,2.5,2.5,0,0,1,0,5Z"/><path d="M127.458,121.528a20.716,20.716,0,0,1-12.8-4.636,2.5,2.5,0,1,1,3.083-3.936,14.989,14.989,0,0,0,19.425,0,2.5,2.5,0,0,1,3.082,3.938A20.71,20.71,0,0,1,127.458,121.528Z"/><path d="M149.657,88.313a2.5,2.5,0,0,1-2.5-2.5,2.587,2.587,0,1,0-5.172,0,2.5,2.5,0,0,1-5,0,7.586,7.586,0,1,1,15.172,0A2.5,2.5,0,0,1,149.657,88.313Z"/><path d="M116.515,88.313a2.5,2.5,0,0,1-2.5-2.5,2.587,2.587,0,1,0-5.172,0,2.5,2.5,0,0,1-5,0,7.586,7.586,0,1,1,15.172,0A2.5,2.5,0,0,1,116.515,88.313Z"/><path d="M76.255,256a2.5,2.5,0,0,1-2.5-2.5V186.3a2.5,2.5,0,0,1,5,0v67.2A2.5,2.5,0,0,1,76.255,256Z"/><path d="M179.745,256a2.5,2.5,0,0,1-2.5-2.5V186.3a2.5,2.5,0,0,1,5,0v67.2A2.5,2.5,0,0,1,179.745,256Z"/><path d="M128,244a2.5,2.5,0,0,1-2.5-2.5v-72a2.5,2.5,0,0,1,5,0v72A2.5,2.5,0,0,1,128,244Z"/><path d="M170.339,55.275a2.518,2.518,0,0,1-.712-.1,157.744,157.744,0,0,0-32.94-5.822,2.5,2.5,0,0,1-1.032-4.683A2.552,2.552,0,0,0,137,42.45v-7.9a2.528,2.528,0,0,0-.78-1.819,2.5,2.5,0,0,1,1.939-4.283,165.227,165.227,0,0,1,30.379,5.215,2.5,2.5,0,0,1,1.808,2.045l2.466,16.7a2.5,2.5,0,0,1-2.473,2.865ZM141.634,44.752A163.189,163.189,0,0,1,167.3,49.324L165.639,38.06a158.841,158.841,0,0,0-23.674-4.246q.035.364.035.735v7.9A7.433,7.433,0,0,1,141.634,44.752Z"/><path d="M85.661,55.275a2.5,2.5,0,0,1-2.473-2.865l2.466-16.7a2.5,2.5,0,0,1,1.808-2.045,165.235,165.235,0,0,1,30.38-5.215,2.5,2.5,0,0,1,1.938,4.284,2.524,2.524,0,0,0-.78,1.818v7.9a2.552,2.552,0,0,0,1.345,2.217,2.5,2.5,0,0,1-1.032,4.683,157.744,157.744,0,0,0-32.94,5.822A2.518,2.518,0,0,1,85.661,55.275Zm4.7-17.215L88.7,49.324a163.189,163.189,0,0,1,25.668-4.572,7.433,7.433,0,0,1-.366-2.3v-7.9q0-.37.035-.735A158.841,158.841,0,0,0,90.361,38.06Z"/><path d="M136.864,49.355c-.059,0-.118,0-.177,0-5.3-.378-8.627-.344-8.657-.344-.091,0-3.419-.033-8.717.344a2.524,2.524,0,0,1-1.386-.306A7.553,7.553,0,0,1,114,42.45v-7.9A7.558,7.558,0,0,1,121.549,27h12.9A7.558,7.558,0,0,1,142,34.549v7.9a7.553,7.553,0,0,1-3.927,6.594A2.5,2.5,0,0,1,136.864,49.355ZM121.549,32A2.553,2.553,0,0,0,119,34.549v7.9a2.515,2.515,0,0,0,.834,1.852c5.01-.33,8.063-.3,8.2-.3.076,0,3.126-.034,8.136.3A2.515,2.515,0,0,0,137,42.45v-7.9A2.553,2.553,0,0,0,134.451,32Z"/><path d="M143.552,132.961A38.284,38.284,0,0,1,130.9,130.6a7.758,7.758,0,0,0-5.144,0c-16.605,5.853-29.647.7-34.886-13.782a17.834,17.834,0,0,1,.192-12.348c1.887-5.007,3.761-13.282,1.971-24.274-.408-2.5-.922-5.061-1.5-7.9a2.5,2.5,0,0,1,3.084-2.918c1.423.373,2.719.769,3.963,1.207q4.089,1.443,7.512,2.617a67.8,67.8,0,0,0,43.82,0q3.431-1.177,7.511-2.617c1.483-.523,3.061-.992,4.692-1.394a2.5,2.5,0,0,1,3.049,2.927c-.514,2.515-1.1,5.365-1.539,8.081h0c-1.79,10.991.084,19.267,1.971,24.274a17.846,17.846,0,0,1,.192,12.348C161.97,127.362,154.012,132.961,143.552,132.961Zm-46.3-57.55c.261,1.352.5,2.666.713,3.976,1.969,12.081-.125,21.264-2.227,26.842a12.837,12.837,0,0,0-.168,8.883c5.812,16.065,20.364,13.642,28.522,10.767a12.8,12.8,0,0,1,8.468,0c8.157,2.876,22.711,5.3,28.522-10.767a12.843,12.843,0,0,0-.168-8.883c-2.1-5.578-4.2-14.762-2.228-26.842h0c.229-1.405.491-2.829.761-4.223l-.364.126q-4.11,1.452-7.552,2.631a72.824,72.824,0,0,1-47.066,0Q101.161,76.788,97.254,75.411Zm63.9,4.378h0Z"/><path d="M201.817,256h-47.6a2.5,2.5,0,0,1-2.266-1.442l-8.844-18.952a25.3,25.3,0,0,1-2.357-10.627v-78a2.5,2.5,0,0,1,1.07-2.051c2.069-1.443,4.27-2.823,6.543-4.1a2.5,2.5,0,0,1,2.332-.064l10.857,5.353a27.18,27.18,0,0,0,5.386,1.98l26.468,6.662a17.425,17.425,0,0,1,13.2,16l3.625,76.358A8.429,8.429,0,0,1,201.817,256Zm-46.008-5h46.008a3.427,3.427,0,0,0,3.423-3.62v-.021l-3.624-76.347a12.441,12.441,0,0,0-9.43-11.408l-26.467-6.662a32.147,32.147,0,0,1-6.377-2.344l-9.661-4.764c-1.348.789-2.663,1.613-3.93,2.463v76.682a20.247,20.247,0,0,0,1.889,8.512Z"/><path d="M102.017,256H54.184a8.429,8.429,0,0,1-8.416-8.9l3.623-76.328a17.431,17.431,0,0,1,13.2-16.02l26.468-6.662a27.2,27.2,0,0,0,5.385-1.98h0l10.858-5.353a2.5,2.5,0,0,1,2.332.064c2.273,1.28,4.474,2.66,6.543,4.1a2.5,2.5,0,0,1,1.07,2.051v78.5a25.281,25.281,0,0,1-2.358,10.627l-8.61,18.452A2.5,2.5,0,0,1,102.017,256ZM96.658,150.6a32.121,32.121,0,0,1-6.376,2.344L63.815,159.6a12.447,12.447,0,0,0-9.431,11.428l-3.623,76.327A3.428,3.428,0,0,0,54.184,251h46.24l7.937-17.009a20.247,20.247,0,0,0,1.889-8.512V148.3c-1.267-.85-2.582-1.674-3.93-2.463Z"/><path d="M144.221,234.006c-.058,0-.117,0-.175-.006a2.5,2.5,0,0,1-2.22-1.772,25.123,25.123,0,0,1-1.076-7.249v-78a2.5,2.5,0,0,1,1.07-2.051c2.069-1.443,4.27-2.823,6.542-4.1a2.5,2.5,0,0,1,2.334-.064l8.626,4.254a2.5,2.5,0,0,1,1.3,1.555l5.319,18.618a5.217,5.217,0,0,1-1.543,5.306l-5.377,4.778a.186.186,0,0,0-.064.148.181.181,0,0,0,.07.144l6.85,5.6h0a5.205,5.205,0,0,1,1.334,6.381l-20.718,45A2.5,2.5,0,0,1,144.221,234.006ZM145.75,148.3V222.2l16.942-36.8c.02-.043.042-.086.064-.128a.2.2,0,0,0-.048-.24l-6.849-5.6a5.192,5.192,0,0,1-.162-7.9l5.378-4.779a.193.193,0,0,0,.056-.195l-5.015-17.553-6.436-3.174C148.332,146.623,147.017,147.447,145.75,148.3Z"/><path d="M111.872,234.207a2.5,2.5,0,0,1-2.27-1.454l-20.811-45.2a5.206,5.206,0,0,1,1.334-6.382l6.85-5.605a.192.192,0,0,0,.005-.292L91.6,170.492a5.216,5.216,0,0,1-1.543-5.306l5.319-18.617a2.5,2.5,0,0,1,1.3-1.555l8.626-4.254a2.5,2.5,0,0,1,2.334.064c2.272,1.28,4.473,2.66,6.542,4.1a2.5,2.5,0,0,1,1.07,2.051v78.5a25.128,25.128,0,0,1-.974,6.917,2.5,2.5,0,0,1-2.213,1.8C112,234.205,111.935,234.207,111.872,234.207Zm-11.988-85.2L94.869,166.56a.192.192,0,0,0,.056.195l5.377,4.78a5.191,5.191,0,0,1-.161,7.9l-6.849,5.6a.193.193,0,0,0-.048.239c.022.042.044.085.064.128l16.942,36.8V148.3c-1.267-.85-2.582-1.674-3.93-2.463Z"/></svg>