<svg xmlns="http://www.w3.org/2000/svg" viewBox="0 0 256 256"><title>icon</title><path d="M59.405,88.863a.871.871,0,0,0-.483-1.486l-8.338-1.212a.87.87,0,0,1-.656-.477L46.2,78.132a.871.871,0,0,0-1.563,0l-3.729,7.556a.871.871,0,0,1-.656.477l-8.339,1.212a.871.871,0,0,0-.483,1.486l6.034,5.882a.87.87,0,0,1,.251.771l-1.425,8.3a.872.872,0,0,0,1.265.919l7.458-3.921a.868.868,0,0,1,.811,0l7.459,3.921a.871.871,0,0,0,1.264-.919l-1.424-8.3a.867.867,0,0,1,.251-.771Z" fill="#f5c84c"/><path d="M127.9,42.106a.582.582,0,0,0-.323-.993l-5.567-.809a.577.577,0,0,1-.438-.318l-2.49-5.045a.582.582,0,0,0-1.044,0l-2.49,5.045a.581.581,0,0,1-.438.318l-5.568.809a.582.582,0,0,0-.322.993l4.029,3.927a.583.583,0,0,1,.167.515l-.951,5.545a.582.582,0,0,0,.844.614l4.98-2.619a.583.583,0,0,1,.542,0l4.979,2.619a.583.583,0,0,0,.845-.614l-.951-5.545a.58.58,0,0,1,.167-.515Z" fill="#f5c84c"/><path d="M141.46,13.779a.452.452,0,0,0-.25-.772l-4.327-.629a.452.452,0,0,1-.341-.247L134.607,8.21a.452.452,0,0,0-.811,0l-1.935,3.921a.452.452,0,0,1-.341.247l-4.327.629a.452.452,0,0,0-.25.772l3.131,3.052a.454.454,0,0,1,.13.4l-.739,4.309a.452.452,0,0,0,.656.477l3.87-2.035a.454.454,0,0,1,.421,0l3.87,2.035a.452.452,0,0,0,.656-.477l-.739-4.309a.454.454,0,0,1,.13-.4Z" fill="#f5c84c"/><circle cx="134.523" cy="72.659" r="4.627" fill="#dae6f1"/><circle cx="17.461" cy="37.377" r="3.377" fill="#f5c84c"/><path d="M37.144,107.344a3.378,3.378,0,0,1-3.32-3.945l1.28-7.461-5.421-5.285A3.372,3.372,0,0,1,31.551,84.9l7.492-1.088,3.351-6.789a3.35,3.35,0,0,1,3.023-1.879h0a3.35,3.35,0,0,1,3.023,1.881l3.35,6.787L59.282,84.9a3.372,3.372,0,0,1,1.868,5.752l-5.42,5.283,1.279,7.462a3.371,3.371,0,0,1-4.893,3.553l-6.7-3.522-6.7,3.523A3.378,3.378,0,0,1,37.144,107.344Zm14.938-3.1h0Zm-6.666-6.026a3.374,3.374,0,0,1,1.572.389l4.535,2.385-.866-5.054a3.366,3.366,0,0,1,.97-2.984l3.67-3.578-5.073-.737a3.372,3.372,0,0,1-2.538-1.845l-2.269-4.6-2.269,4.6a3.372,3.372,0,0,1-2.536,1.845l-5.076.737,3.671,3.579a3.37,3.37,0,0,1,.97,2.983l-.867,5.054,4.538-2.386A3.366,3.366,0,0,1,45.416,98.218Zm10.168-3.127v0Zm2.077-8.018h0Z"/><path d="M113.031,55.277A3.088,3.088,0,0,1,110,51.67l.78-4.551L107.47,43.9a3.082,3.082,0,0,1,1.708-5.257l4.57-.664,2.044-4.141a3.082,3.082,0,0,1,5.527,0l2.043,4.14,4.57.664a3.081,3.081,0,0,1,1.707,5.257l-3.306,3.223.781,4.551a3.082,3.082,0,0,1-4.472,3.249l-4.087-2.148-4.087,2.148A3.074,3.074,0,0,1,113.031,55.277Zm9.155-2.762h0Zm-4.524-.214,0,0Zm1.788,0,0,0Zm-.9-4.779a3.085,3.085,0,0,1,1.438.356l1.537.808-.294-1.714a3.08,3.08,0,0,1,.886-2.728l1.246-1.215-1.721-.25a3.08,3.08,0,0,1-2.321-1.684l-.77-1.562-.77,1.56a3.077,3.077,0,0,1-2.323,1.686l-1.719.25,1.246,1.214a3.084,3.084,0,0,1,.886,2.727l-.294,1.716,1.54-.81A3.075,3.075,0,0,1,118.554,47.521Zm7.6-7.206,0,0,0,0ZM113.3,38.878l0,.005Zm9.059-1.048h0Z"/><path d="M129.908,24.573A2.96,2.96,0,0,1,127,21.12l.558-3.251-2.36-2.3a2.952,2.952,0,0,1,1.637-5.036l3.26-.474L131.554,7.1a2.952,2.952,0,0,1,5.294,0l1.46,2.956,3.261.474a2.952,2.952,0,0,1,1.638,5.034l0,0-2.36,2.3.557,3.249a2.953,2.953,0,0,1-4.286,3.111L134.2,22.7l-2.917,1.534A2.952,2.952,0,0,1,129.908,24.573Zm3.341-2.378,0,0ZM128.958,19.8l0,0Zm10.483,0,0,0ZM134.2,17.43a2.961,2.961,0,0,1,1.378.341l.194.1-.038-.22a2.951,2.951,0,0,1,.847-2.612l.162-.157-.221-.032a2.958,2.958,0,0,1-2.224-1.617l-.1-.2-.1.2a2.953,2.953,0,0,1-2.223,1.616l-.221.031.159.156a2.951,2.951,0,0,1,.849,2.618l-.037.216.2-.1A2.944,2.944,0,0,1,134.2,17.43Zm-6.461-.622,0,.007Zm12.923,0v0Zm.8-3.025h0Z"/><path d="M134.522,79.785a7.127,7.127,0,1,1,7.127-7.126A7.134,7.134,0,0,1,134.522,79.785Zm0-9.253a2.127,2.127,0,1,0,2.127,2.127A2.129,2.129,0,0,0,134.522,70.532Z"/><path d="M224.119,218.865l-13.213-18.772a3.437,3.437,0,0,0-4.837-.8l-39.99,29.221a3.437,3.437,0,0,0-.783,4.752l13.213,18.772a3.437,3.437,0,0,0,4.837.8l39.99-29.221A3.437,3.437,0,0,0,224.119,218.865Z" fill="#3a70bf"/><path d="M81.7,47.241,67.971,30.806a6.976,6.976,0,0,0-10.708,8.945L71.149,56.376Z" fill="#f5c84c"/><path d="M157.419,137.892,147,146.913l14.7,17.264c1.569,1.723,4.357,1.114,6.483.159,2.075-.933,2.815-2.161,3.172-5.339l.652-3.64Z" fill="#f5c84c"/><path d="M186.282,130.534a21.8,21.8,0,0,1,6.4,5.478c4.214,5.337,11.124,14.367,10.2,23.578l-.451,23.185c-.042,2.166.011,4.337.157,6.5.276,4.115.352,7.3,2.456,10.551l.1.149-37.908,27.7c-11.733-16.24-21.925-23.508-24.369-38.2-3.981-23.922-12.82-29.169-16.612-40.036a14.847,14.847,0,0,1-.551-8.217c1.481-6.72,9.86-8.048,14.168-2.681l21.83,25.637c1.569,1.723,4.357,1.114,6.483.159,2.075-.933,2.815-2.161,3.172-5.339l2.428-13.559a5.293,5.293,0,0,0-2.707-4.44l-17.966-8.264L138.7,115.483l27.769,6.838a70.131,70.131,0,0,1,17.691,7.017Z" fill="#edf4fc"/><path d="M166.47,122.321a70.131,70.131,0,0,1,17.691,7.017l2.121,1.2a21.8,21.8,0,0,1,6.4,5.478c2.782,3.523,6.726,8.659,8.829,14.39.687-14.545-2.3-29.311-21.269-36.391-17.433-6.509-28.472-.753-33.628,3.421Z" fill="#dae6f1"/><path d="M171.076,141l-17.966-8.264,18.9,22.623,1.776-9.919A5.293,5.293,0,0,0,171.076,141Z" fill="#c7d7e5"/><polygon points="81.699 47.241 71.149 56.376 147 146.913 157.419 137.892 81.699 47.241" fill="#5b5d60"/><path d="M235.765,151.235h-2.35v-2.35a3.185,3.185,0,1,0-6.369,0v2.35H224.7a3.185,3.185,0,1,0,0,6.37h2.35v2.35a3.185,3.185,0,0,0,6.369,0V157.6h2.35a3.185,3.185,0,1,0,0-6.37Z" fill="#70d6f9"/><path d="M84.44,123.855a11.2,11.2,0,0,1-8.974-8.792.2.2,0,0,0-.4,0,11.2,11.2,0,0,1-8.975,8.792.2.2,0,0,0,0,.39,11.2,11.2,0,0,1,8.975,8.792.2.2,0,0,0,.4,0,11.2,11.2,0,0,1,8.974-8.792A.2.2,0,0,0,84.44,123.855Z" fill="#f5c84c"/><circle cx="238.51" cy="181.876" r="3.407" fill="#87d147"/><circle cx="83.624" cy="102.159" r="3.407" fill="#ef4460"/><path d="M181.333,256a6.005,6.005,0,0,1-.979-.081,5.891,5.891,0,0,1-3.89-2.44l-13.212-18.772A5.963,5.963,0,0,1,164.6,226.5l39.99-29.221a5.935,5.935,0,0,1,8.357,1.376l13.212,18.772h0a5.966,5.966,0,0,1-1.352,8.21l-39.99,29.22A5.892,5.892,0,0,1,181.333,256ZM208.1,201.135a.918.918,0,0,0-.551.18l-39.99,29.221a.94.94,0,0,0-.213,1.294L180.553,250.6a.935.935,0,0,0,.614.385.924.924,0,0,0,.7-.168l39.99-29.22a.94.94,0,0,0,.213-1.295l-13.212-18.772a.932.932,0,0,0-.767-.4Z"/><path d="M71.149,58.875c-.066,0-.134,0-.2-.008a2.5,2.5,0,0,1-1.718-.889L55.344,41.354A9.518,9.518,0,0,1,56.427,28.1,9.476,9.476,0,0,1,69.89,29.2L83.618,45.639a2.5,2.5,0,0,1-.283,3.492L72.786,58.266A2.5,2.5,0,0,1,71.149,58.875ZM62.609,30.8a4.437,4.437,0,0,0-2.916,1.088,4.5,4.5,0,0,0-.511,6.258L71.437,52.82l6.769-5.861L66.052,32.409a4.444,4.444,0,0,0-3.07-1.592C62.857,30.807,62.733,30.8,62.609,30.8Z"/><path d="M164.457,167.761a6,6,0,0,1-4.6-1.9L145.1,148.534a2.5,2.5,0,0,1,.267-3.511L155.783,136a2.5,2.5,0,0,1,3.555.288l14.588,17.464a2.5,2.5,0,0,1,.542,2.043l-.638,3.563c-.39,3.375-1.311,5.768-4.622,7.256A11.741,11.741,0,0,1,164.457,167.761Zm-13.946-20.58L163.6,162.556c.395.432,1.88.252,3.554-.5.938-.422,1.408-.633,1.713-3.338.006-.054.014-.108.023-.161l.446-2.493-12.209-14.616Z"/><path d="M167.234,230.173a2.574,2.574,0,0,1-.391-.03,2.5,2.5,0,0,1-1.635-1.006c-3.451-4.776-6.835-8.847-9.821-12.44-7.354-8.848-13.162-15.837-14.989-26.813-2.538-15.254-7.037-22.547-11.006-28.982a53.374,53.374,0,0,1-5.5-10.641,17.338,17.338,0,0,1-.632-9.578A9.858,9.858,0,0,1,130.742,133a10.954,10.954,0,0,1,11.077,3.976L163.6,162.556c.4.432,1.88.252,3.554-.5.938-.422,1.409-.634,1.713-3.338,0-.053.013-.108.023-.161l2.374-13.257a2.812,2.812,0,0,0-1.341-2.078l-17.862-8.217a2.484,2.484,0,0,1-.873-.668l-14.41-17.251a2.5,2.5,0,0,1,2.516-4.03l27.77,6.838a72.587,72.587,0,0,1,18.321,7.266l2.121,1.2h0a24.188,24.188,0,0,1,7.133,6.106c3.809,4.824,11.722,14.844,10.738,25.272l-.449,23.089c-.041,2.07.01,4.183.151,6.282l.052.794c.229,3.527.4,6.075,2.009,8.566l.094.147a2.5,2.5,0,0,1-.621,3.38l-37.908,27.7A2.5,2.5,0,0,1,167.234,230.173Zm-34.1-92.446a5.5,5.5,0,0,0-1.25.141,4.9,4.9,0,0,0-3.736,3.891,12.417,12.417,0,0,0,.47,6.855,48.906,48.906,0,0,0,5.033,9.663c4,6.489,8.984,14.564,11.684,30.787,1.6,9.641,6.762,15.847,13.9,24.437,2.61,3.141,5.52,6.641,8.54,10.683l34.112-24.926c-1.34-2.908-1.528-5.79-1.738-9.033l-.052-.784c-.151-2.243-.2-4.5-.161-6.714l.451-23.186c0-.067.005-.133.012-.2.846-8.455-6-17.123-9.677-21.779a19.218,19.218,0,0,0-5.666-4.851l-2.121-1.2a67.6,67.6,0,0,0-17.059-6.766l-20.364-5.015,9.158,10.965,17.454,8.029c.059.027.117.056.174.088a7.835,7.835,0,0,1,3.986,6.537,2.568,2.568,0,0,1-.037.525L173.83,159.36c-.39,3.375-1.31,5.768-4.622,7.256-3.91,1.757-7.32,1.481-9.356-.757l-21.886-25.7A6.145,6.145,0,0,0,133.13,137.727Z"/><path d="M201.508,152.9a2.5,2.5,0,0,1-2.345-1.639c-2.064-5.623-6.214-10.878-8.444-13.7a19.216,19.216,0,0,0-5.666-4.851l-2.12-1.2a67.619,67.619,0,0,0-17.06-6.766l-19.857-4.89a2.5,2.5,0,0,1-.976-4.37c5.459-4.42,17.4-10.792,36.075-3.821,21.78,8.132,23.5,26.068,22.892,38.852a2.5,2.5,0,0,1-2.118,2.353A2.463,2.463,0,0,1,201.508,152.9Zm-48.655-36.508,14.215,3.5h0a72.638,72.638,0,0,1,18.322,7.266l2.12,1.2a24.184,24.184,0,0,1,7.133,6.106c1.037,1.313,2.46,3.115,3.931,5.252-2.21-14.94-11.154-20.355-19.208-23.362C167.21,111.813,158.449,113.625,152.853,116.394Z"/><path d="M172.037,157.862a2.58,2.58,0,0,1-.553-.06,2.5,2.5,0,0,1-1.383-.827h0l-18.91-22.639a2.5,2.5,0,0,1,2.964-3.873l17.966,8.265c.059.027.117.056.174.088a7.835,7.835,0,0,1,3.986,6.537,2.568,2.568,0,0,1-.037.525l-1.708,9.537a2.188,2.188,0,0,1-.913,1.876A2.465,2.465,0,0,1,172.037,157.862Zm-9.9-18.225,8.357,10,.778-4.342a2.812,2.812,0,0,0-1.341-2.078Z"/><path d="M147,149.414c-.066,0-.133,0-.2-.008a2.5,2.5,0,0,1-1.717-.887L69.233,57.981a2.5,2.5,0,0,1,.28-3.5l10.55-9.134a2.5,2.5,0,0,1,3.555.288l75.72,90.651a2.5,2.5,0,0,1-.283,3.493L148.636,148.8A2.5,2.5,0,0,1,147,149.414ZM74.646,56.655l72.639,86.705,6.641-5.75L81.412,50.8Z"/><path d="M60.706,19.658a2.5,2.5,0,0,1-2.44-1.964L55.045,3.037a2.5,2.5,0,0,1,4.884-1.073L63.15,16.621a2.5,2.5,0,0,1-2.444,3.037Z"/><path d="M50.871,24.756a2.491,2.491,0,0,1-1.847-.815L38.906,12.859A2.5,2.5,0,0,1,42.6,9.488L52.716,20.57a2.5,2.5,0,0,1-1.845,4.186Z"/><path d="M44.9,34.091a2.482,2.482,0,0,1-.756-.117L29.758,29.409a2.5,2.5,0,1,1,1.512-4.765l14.385,4.564a2.5,2.5,0,0,1-.755,4.883Z"/><path d="M29.737,48.382A2.5,2.5,0,0,1,29.2,43.44l14.656-3.222A2.5,2.5,0,0,1,44.933,45.1L30.276,48.324A2.554,2.554,0,0,1,29.737,48.382Z"/><path d="M86.209,35.97a2.5,2.5,0,0,1-.534-4.943l14.657-3.221a2.5,2.5,0,0,1,1.073,4.884L86.748,35.911A2.492,2.492,0,0,1,86.209,35.97Z"/><path d="M38.413,65.117a2.5,2.5,0,0,1-1.686-4.346L47.809,50.652a2.5,2.5,0,1,1,3.371,3.693L40.1,64.463A2.489,2.489,0,0,1,38.413,65.117Z"/><path d="M81.113,26.131a2.5,2.5,0,0,1-1.686-4.346L90.509,11.667a2.5,2.5,0,1,1,3.371,3.692L82.8,25.478A2.49,2.49,0,0,1,81.113,26.131Z"/><path d="M54.3,75.247a2.5,2.5,0,0,1-2.383-3.257l4.53-14.277a2.5,2.5,0,1,1,4.765,1.512L56.683,73.5A2.5,2.5,0,0,1,54.3,75.247Z"/><path d="M71.778,20.161a2.458,2.458,0,0,1-.756-.118A2.5,2.5,0,0,1,69.4,16.905L73.921,2.639A2.5,2.5,0,0,1,78.687,4.15L74.161,18.417A2.5,2.5,0,0,1,71.778,20.161Z"/></svg>