<svg xmlns="http://www.w3.org/2000/svg" viewBox="0 0 256 256"><title>icon</title><path d="M192.92,148.2l.008,0Z" fill="#f9d0b4"/><path d="M194.933,148.706l.055.014Z" fill="#f9d0b4"/><path d="M192.914,148.2l.006,0Z" fill="#f9d0b4"/><path d="M214.116,246.741,210.2,164.284a16.2,16.2,0,0,0-12.221-14.811l-2.765-.7-.021,0,.02,0-.035-.009-.028-.007.009,0-.019,0-.153-.039.064.016-.187-.047.068.017-.209-.052.064.016-.124-.031-.227-.058.059.015-.22-.055-.782-.2.691.174-1.194-.3-.1-.024.022,0-.026-.007L169.4,142.278a35.487,35.487,0,0,1-7.689-2.994l-11.551-5.7a5.8,5.8,0,0,1-2.878-3.231,27.746,27.746,0,0,1-38.554,0,5.8,5.8,0,0,1-2.878,3.231l-12.458,6.143a30.331,30.331,0,0,1-6.782,2.547l-28.585,7.2A16.2,16.2,0,0,0,45.8,164.284l-3.915,82.457a6.4,6.4,0,0,0,6.393,6.759H207.723A6.4,6.4,0,0,0,214.116,246.741Z" fill="#f9d0b4"/><path d="M193.494,148.344l-.566-.142.063.015Z" fill="#f9d0b4"/><path d="M194.724,148.654l-.228-.058.168.043Z" fill="#f9d0b4"/><path d="M195.194,148.772l-.034-.009.019,0Z" fill="#f9d0b4"/><path d="M140.62,85.861a4.536,4.536,0,0,1,.062.741c0,4.2-5.678,11.161-12.682,11.161S115.318,90.805,115.318,86.6a4.536,4.536,0,0,1,.062-.741c-20.593,2.422-20.835,17.123-17.157,21.72,3.391,4.24,14.115,11.944,23.888,7.6,3.083-1.37,4.878-4.721,5.889-8.688,1.011,3.967,2.806,7.318,5.89,8.688,9.772,4.343,20.5-3.361,23.888-7.6C161.455,102.984,161.213,88.283,140.62,85.861Z" fill="#b77035"/><path d="M133.89,115.182c-3.084-1.37-4.879-4.721-5.89-8.688-1.011,3.967-2.806,7.318-5.89,8.688-8.288,3.684-17.26-1.3-21.863-5.484,0,.226-.017.451-.017.679a27.77,27.77,0,0,0,55.54,0c0-.228-.012-.453-.017-.679C151.15,113.883,142.178,118.866,133.89,115.182Z" fill="#b77035"/><path d="M195.775,21.212l-2.3-1.536a1.018,1.018,0,0,1-.246-1.471c3.284-4.243,2.786-11.4,2.309-14.818a1.021,1.021,0,0,0-1.552-.728c-1.858,1.2-6.46,2.854-17.7,2.854-12.331,0-19.3,7.983-22.848,13.215a23.9,23.9,0,0,1,3.222,6.143c7.068,4,13.085,9.944,14.687,18.763,10.8-1.589,16.957-6.8,19.017-8.877a1.026,1.026,0,0,0-.121-1.543l-3.1-2.327a1.031,1.031,0,0,1,.185-1.755c5.6-2.653,7.883-5.2,8.75-6.505A1.022,1.022,0,0,0,195.775,21.212Z" fill="#965622"/><path d="M102.372,23.3,96.9,18.552a20.236,20.236,0,0,1,4.5-2.942,29.043,29.043,0,0,0-21.678-10.1c-11.236,0-15.84-1.657-17.7-2.853a1.022,1.022,0,0,0-1.554.73c-.477,3.418-.974,10.573,2.309,14.815a1.018,1.018,0,0,1-.246,1.471l-2.3,1.536a1.022,1.022,0,0,0-.3,1.415c.867,1.3,3.146,3.853,8.751,6.506a1.03,1.03,0,0,1,.184,1.754l-3.1,2.327a1.026,1.026,0,0,0-.12,1.544c2.06,2.075,8.217,7.288,19.019,8.876C86.488,33.579,94.054,27.258,102.372,23.3Z" fill="#965622"/><path d="M186.048,74.557c-3.5-15.168-15.169-18.668-15.169-18.668,3.595-15.917-4.279-25.4-14.223-31.018-1.42-4.1-5.07-10.76-14.334-15.012l-1.179,5.714S132.508,5.452,119,7.43l3.628,5.514s-16.393-2.56-25.728,5.608l5.476,4.751c-11.287,5.367-21.2,15.081-17.251,32.586,0,0-11.668,3.5-15.169,18.668h5.834s-8.167,10.5-3.5,23.336l4.667-4.667a24.04,24.04,0,0,0,12.835,19.836l3.5-5.834a13.547,13.547,0,0,1,3.966-1.314c-2.454-5.756-.4-17.874,18.126-20.053a4.65,4.65,0,0,0-.062.741c0,4.2,5.678,11.161,12.682,11.161S140.682,90.8,140.682,86.6a4.65,4.65,0,0,0-.062-.741c18.53,2.179,20.58,14.3,18.126,20.053a13.547,13.547,0,0,1,3.966,1.314l3.5,5.834a24.04,24.04,0,0,0,12.835-19.836l4.667,4.667c4.667-12.834-3.5-23.336-3.5-23.336Z" fill="#965622"/><path d="M140.682,86.6c0,4.2-5.678,11.16-12.682,11.16s-12.682-6.957-12.682-11.16S121,79.5,128,79.5,140.682,82.4,140.682,86.6Z" fill="#5b5d60"/><path d="M135.869,115.9l3.924,14.717a1.065,1.065,0,0,0,2.031.084l5.636-15.781A17.878,17.878,0,0,1,135.869,115.9Z" fill="#edf4fc"/><path d="M116.207,130.614l3.924-14.717a17.878,17.878,0,0,1-11.591-.98l5.636,15.781A1.065,1.065,0,0,0,116.207,130.614Z" fill="#edf4fc"/><path d="M156.571,55.7a71.915,71.915,0,0,1-13.353,6.557A8.163,8.163,0,1,0,156.571,55.7Z" fill="#ef4460"/><path d="M99.429,55.7a71.915,71.915,0,0,0,13.353,6.557A8.163,8.163,0,1,1,99.429,55.7Z" fill="#ef4460"/><path d="M195.535,3.387a1.021,1.021,0,0,0-1.552-.728c-1.858,1.2-6.46,2.854-17.7,2.854-12.331,0-19.3,7.983-22.848,13.215a23.9,23.9,0,0,1,3.222,6.143,40.325,40.325,0,0,1,3.865,2.479c2.487-5.6,6.564-10.108,13.162-11.428,11.821-2.364,18.467-5.3,22.193-7.963h0A35.971,35.971,0,0,0,195.535,3.387Z" fill="#b77035"/><path d="M95.48,27.352a43.4,43.4,0,0,1,6.892-4.049L96.9,18.552a20.236,20.236,0,0,1,4.5-2.942,29.043,29.043,0,0,0-21.678-10.1c-11.236,0-15.84-1.657-17.7-2.853a1.022,1.022,0,0,0-1.554.73,35.749,35.749,0,0,0-.341,4.569c3.726,2.66,10.372,5.6,22.193,7.963C88.916,17.242,92.993,21.75,95.48,27.352Z" fill="#b77035"/><path d="M68.705,118.654a11.1,11.1,0,0,1-8.9-8.717.2.2,0,0,0-.4,0,11.1,11.1,0,0,1-8.9,8.717.2.2,0,0,0,0,.386,11.1,11.1,0,0,1,8.9,8.717.2.2,0,0,0,.4,0,11.1,11.1,0,0,1,8.9-8.717A.2.2,0,0,0,68.705,118.654Z" fill="#ef4460"/><path d="M210.941,46.487h-2.33v-2.33a3.158,3.158,0,0,0-6.315,0v2.33h-2.329a3.158,3.158,0,0,0,0,6.315H202.3v2.33a3.158,3.158,0,0,0,6.315,0V52.8h2.33a3.158,3.158,0,0,0,0-6.315Z" fill="#f5c84c"/><circle cx="41.662" cy="138.377" r="3.377" fill="#f5c84c"/><circle cx="223.662" cy="180.377" r="3.377" fill="#ef4460"/><circle cx="41.662" cy="23.377" r="3.377" fill="#87d147"/><circle cx="200.662" cy="79.377" r="3.377" fill="#70d6f9"/><path d="M76.033,256a2.5,2.5,0,0,1-2.5-2.5V197.73a2.5,2.5,0,0,1,5,0V253.5A2.5,2.5,0,0,1,76.033,256Z"/><path d="M178.887,256a2.5,2.5,0,0,1-2.5-2.5V197.73a2.5,2.5,0,1,1,5,0V253.5A2.5,2.5,0,0,1,178.887,256Z"/><path d="M127.574,229.925a2.5,2.5,0,0,1-2.5-2.5V205.094a2.5,2.5,0,0,1,5,0v22.331A2.5,2.5,0,0,1,127.574,229.925Z"/><path d="M107.957,198.693A78.2,78.2,0,0,1,87.8,195.521a2.5,2.5,0,1,1,1.338-4.818c8.517,2.365,23.933,5.476,31.492-.268,2.99-2.273,4.443-5.762,4.443-10.667V163.7a2.5,2.5,0,0,1,5,0v16.07c0,6.482-2.159,11.411-6.417,14.647C119.531,197.551,113.929,198.693,107.957,198.693Z"/><path d="M147.191,198.693c-5.972,0-11.573-1.141-15.7-4.278-4.258-3.236-6.417-8.165-6.417-14.647V163.7a2.5,2.5,0,0,1,5,0v16.07c0,4.905,1.453,8.394,4.444,10.667,7.559,5.746,22.975,2.635,31.492.268a2.5,2.5,0,0,1,1.338,4.818A78.259,78.259,0,0,1,147.191,198.693Z"/><path d="M128,108.633a2.5,2.5,0,0,1-2.5-2.5v-7a2.5,2.5,0,0,1,5,0v7A2.5,2.5,0,0,1,128,108.633Z"/><path d="M138.537,65.668a7.863,7.863,0,0,1-6.217-2.605c-2.749-3.168-2.167-7.887-2.091-8.416a2.5,2.5,0,0,1,4.951.7c-.1.766-.15,3.225.925,4.452a2.879,2.879,0,0,0,2.432.871c5.122,0,15.9-6.435,19.616-8.914a2.5,2.5,0,1,1,2.774,4.16C159.429,56.912,146.077,65.668,138.537,65.668Z"/><path d="M117.463,65.668c-7.54,0-20.892-8.756-22.39-9.754a2.5,2.5,0,0,1,2.774-4.16c3.721,2.479,14.5,8.914,19.616,8.914a2.872,2.872,0,0,0,2.439-.88c1.108-1.276,1.007-3.822.92-4.434a2.5,2.5,0,1,1,4.949-.707c.076.529.658,5.248-2.091,8.416A7.863,7.863,0,0,1,117.463,65.668Z"/><path d="M116.021,118.957c-8.741,0-16.8-6.123-19.75-9.814-2.142-2.677-3.427-8.044-1.188-13.5,1.6-3.889,6.317-10.653,20-12.263a2.5,2.5,0,0,1,2.761,2.879,2.068,2.068,0,0,0-.032.345c0,2.926,4.611,8.661,10.183,8.661s10.183-5.735,10.183-8.661a2.068,2.068,0,0,0-.032-.345,2.5,2.5,0,0,1,2.761-2.879c13.688,1.61,18.408,8.374,20,12.263,2.239,5.458.954,10.825-1.188,13.5-3.745,4.682-15.706,13.282-26.855,8.323a11.058,11.058,0,0,1-4.874-4.4,11.059,11.059,0,0,1-4.875,4.406A17.33,17.33,0,0,1,116.021,118.957Zm-2.907-30.225c-6.871,1.3-11.588,4.378-13.4,8.807-1.561,3.8-.543,7.22.466,8.481,2.549,3.186,12.24,10.731,20.92,6.877,2.015-.9,3.523-3.257,4.482-7.02a2.5,2.5,0,0,1,4.846,0c.96,3.764,2.468,6.126,4.481,7.02,8.685,3.863,18.372-3.69,20.921-6.876,1.009-1.261,2.027-4.678.466-8.481-1.817-4.429-6.534-7.507-13.4-8.807-1.367,5.187-7.306,11.531-14.886,11.531S114.481,93.919,113.114,88.732Z"/><path d="M128,140.647a30.305,30.305,0,0,1-30.271-30.27c0-.181.006-.36.012-.54l.007-.2a2.5,2.5,0,0,1,4.181-1.785c4.623,4.2,12.418,8.048,19.166,5.049,2.015-.9,3.523-3.257,4.482-7.02a2.5,2.5,0,0,1,4.846,0c.96,3.764,2.468,6.126,4.481,7.02h0c6.748,3,14.542-.845,19.166-5.049a2.5,2.5,0,0,1,4.181,1.785l.007.2c.006.18.012.359.012.54A30.305,30.305,0,0,1,128,140.647Zm-24.85-25.665a25.274,25.274,0,0,0,49.7,0c-5.673,3.487-13.1,5.541-19.976,2.485a11.064,11.064,0,0,1-4.874-4.4,11.059,11.059,0,0,1-4.875,4.406C116.247,120.522,108.821,118.466,103.15,114.982Z"/><path d="M171.34,46.134a2.5,2.5,0,0,1-2.457-2.054c-1.265-6.968-5.793-12.7-13.457-17.033a2.5,2.5,0,0,1-1.132-1.358,21.565,21.565,0,0,0-2.886-5.5,2.5,2.5,0,0,1-.042-2.869c6.448-9.5,14.831-14.309,24.916-14.309,11.312,0,15.2-1.719,16.348-2.457A3.488,3.488,0,0,1,195.983.32a3.519,3.519,0,0,1,2.028,2.721c.527,3.78.908,10.511-1.922,15.376l1.072.715a3.516,3.516,0,0,1,1.5,2.21,3.478,3.478,0,0,1-.513,2.673c-1.06,1.594-3.229,3.9-7.621,6.292l1.21.907a3.525,3.525,0,0,1,.4,5.305c-2.3,2.317-8.892,7.891-20.426,9.588A2.549,2.549,0,0,1,171.34,46.134ZM158.689,23.159c7.68,4.546,12.565,10.455,14.557,17.6a31.386,31.386,0,0,0,14.083-6.6l-1.693-1.27a3.531,3.531,0,0,1,.614-6.014,23.255,23.255,0,0,0,6.786-4.482l-.951-.634a3.52,3.52,0,0,1-.837-5.081c2.206-2.851,2.285-7.67,2.035-10.875-3.644,1.47-9.345,2.213-17,2.213-7.842,0-14.5,3.615-19.808,10.752A26.1,26.1,0,0,1,158.689,23.159Zm35.7.133h0Zm-.4-2.05,0,0Z"/><path d="M84.663,46.134a2.525,2.525,0,0,1-.366-.027c-11.529-1.7-18.128-7.269-20.431-9.587a3.526,3.526,0,0,1,.4-5.306l1.21-.907c-4.393-2.395-6.561-4.7-7.623-6.295a3.476,3.476,0,0,1-.511-2.67,3.519,3.519,0,0,1,1.5-2.211l1.071-.714c-2.83-4.864-2.449-11.594-1.922-15.373A3.519,3.519,0,0,1,60.017.322a3.486,3.486,0,0,1,3.356.236c1.148.738,5.04,2.456,16.345,2.456a31.431,31.431,0,0,1,23.551,10.94,2.5,2.5,0,0,1-.78,3.9q-.828.4-1.586.862l3.108,2.7a2.5,2.5,0,0,1-.566,4.147c-9.413,4.475-14.9,10.707-16.325,18.52A2.5,2.5,0,0,1,84.663,46.134ZM68.671,34.157a31.413,31.413,0,0,0,14.086,6.6c2.049-7.366,7.146-13.394,15.2-17.977l-2.7-2.342a2.5,2.5,0,0,1-.008-3.769,21.131,21.131,0,0,1,2.1-1.614A25.9,25.9,0,0,0,79.718,8.014c-7.656,0-13.355-.743-17-2.213-.249,3.2-.172,8.024,2.034,10.874a3.519,3.519,0,0,1-.838,5.083l-.949.633a23.291,23.291,0,0,0,6.785,4.482,3.53,3.53,0,0,1,.614,6.015ZM62.009,21.239l0,0ZM61.142,17.6h0Z"/><path d="M192.931,150.7a2.5,2.5,0,0,1-.609-.075,2.535,2.535,0,0,1-.326-.107h0a2.5,2.5,0,0,1,1.53-4.748c.063.017.127.036.19.056h0a2.5,2.5,0,0,1-.789,4.873Z"/><path d="M194.987,151.22a2.506,2.506,0,0,1-.513-.054l-.028-.006h0l-.045-.011-.075-.018-.043-.011a2.5,2.5,0,0,1,1.256-4.84h0l.022,0a2.518,2.518,0,0,1,1.842,2.993A2.488,2.488,0,0,1,194.987,151.22Z"/><path d="M192.92,150.7H192.9c-.092,0-.185-.007-.277-.017a2.5,2.5,0,0,1,.289-4.984h.009a2.276,2.276,0,0,1,.286.018,2.5,2.5,0,0,1-.289,4.983Z"/><path d="M207.723,256H48.277a8.9,8.9,0,0,1-8.889-9.4L43.3,164.166A18.624,18.624,0,0,1,57.41,147.049L86,139.854a27.517,27.517,0,0,0,5.975-2.211c.14-.072.253-.127.335-.166l12.434-6.13a3.3,3.3,0,0,0,1.635-1.845,2.5,2.5,0,0,1,4.086-.944,25.244,25.244,0,0,0,35.08,0,2.5,2.5,0,0,1,4.086.944,3.3,3.3,0,0,0,1.637,1.846l11.51,5.675c.175.08.407.195.692.338a30.285,30.285,0,0,0,6.54,2.493l23.464,5.906.063.015.51.129.063.016.9.226.013,0,.046.012.114.028.111.029.008,0,.049.011.195.049.017,0,.072.018.112.029.031.007.027.008.026.006,2.767.7a18.616,18.616,0,0,1,14.106,17.1l3.916,82.464a8.9,8.9,0,0,1-8.89,9.39ZM109.257,134.141a8.231,8.231,0,0,1-2.305,1.689l-12.459,6.143c-.036.017-.072.035-.109.05l-.152.079a32.293,32.293,0,0,1-7.016,2.6L58.631,151.9A13.64,13.64,0,0,0,48.3,164.423l-3.914,82.435a3.9,3.9,0,0,0,3.9,4.142H207.723a3.9,3.9,0,0,0,3.9-4.121v-.021L207.7,164.4a13.633,13.633,0,0,0-10.335-12.5l-2.732-.688-.03-.007a2.452,2.452,0,0,1-.325-.082l-.024-.006-.053-.014-.011,0-.144-.037-.115-.029-.052-.012-.263-.067-.045-.012-.009,0-1.184-.3.011-.054-.068-.034-.017.069-.035-.009L168.784,144.7a35.461,35.461,0,0,1-7.566-2.875c-.223-.112-.4-.2-.526-.259-.031-.013-.061-.028-.091-.043l-11.551-5.7a8.264,8.264,0,0,1-2.307-1.69,30.251,30.251,0,0,1-37.486,0Z"/><path d="M193.5,150.845a2.516,2.516,0,0,1-.61-.076l-.06-.015-.5-.125a2.528,2.528,0,0,1-1.8-3.023,2.47,2.47,0,0,1,2.994-1.831h.007l.013,0,.559.14a2.5,2.5,0,0,1-.611,4.925Z"/><path d="M194.721,151.153a2.4,2.4,0,0,1-.377-.029h-.009c-.072-.012-.145-.026-.218-.044l-.032-.009-.182-.045a2.5,2.5,0,0,1,1.168-4.861l.167.041.034.009.018,0a2.526,2.526,0,0,1,1.828,3.039A2.483,2.483,0,0,1,194.721,151.153Z"/><path d="M195.2,151.272a2.508,2.508,0,0,1-.492-.048c-.05-.01-.1-.023-.154-.036a2.5,2.5,0,0,1,1.021-4.89c.047.008.1.018.152.03h0l.048.011.044.012c.031.007.061.016.09.025h0l.08.024a2.5,2.5,0,0,1-.789,4.872Z"/><path d="M166.214,115.562a2.5,2.5,0,0,1-2.146-1.214l-3.114-5.191a11.382,11.382,0,0,0-2.609-.775,2.5,2.5,0,0,1-1.9-3.448,10.1,10.1,0,0,0-.811-8.726c-2.179-3.759-6.56-6.318-12.749-7.478-1.365,5.187-7.305,11.533-14.886,11.533s-13.521-6.346-14.886-11.533c-6.189,1.16-10.57,3.719-12.749,7.478a10.1,10.1,0,0,0-.811,8.726,2.5,2.5,0,0,1-1.9,3.448,11.4,11.4,0,0,0-2.609.775l-3.114,5.191a2.5,2.5,0,0,1-3.341.908A26.529,26.529,0,0,1,75.247,98.468l-1.193,1.193a2.5,2.5,0,0,1-4.117-.913,27.446,27.446,0,0,1,1.449-21.69H69.952A2.5,2.5,0,0,1,67.517,74C70.4,61.49,78.4,56.228,82.268,54.363c-2.338-13.548,3.05-24.376,15.691-31.58l-2.7-2.343a2.5,2.5,0,0,1-.008-3.77c6.731-5.89,16.5-6.72,22.489-6.6L116.907,8.8a2.5,2.5,0,0,1,1.727-3.848,27.454,27.454,0,0,1,20.949,5.8l.29-1.4a2.5,2.5,0,0,1,3.491-1.767c9.587,4.4,13.657,11.313,15.324,15.572,12.156,7.2,17.326,17.941,15.044,31.2C177.6,56.228,185.6,61.49,188.483,74a2.5,2.5,0,0,1-2.435,3.063h-1.434a27.446,27.446,0,0,1,1.449,21.69,2.5,2.5,0,0,1-4.117.913l-1.193-1.193a26.529,26.529,0,0,1-13.344,16.788A2.492,2.492,0,0,1,166.214,115.562ZM76.954,90.726a2.5,2.5,0,0,1,2.5,2.5,21.252,21.252,0,0,0,9.485,16.394l2.207-3.679a2.5,2.5,0,0,1,.93-.9,14.464,14.464,0,0,1,2.071-.9A15.383,15.383,0,0,1,96.039,93.7c2.294-3.957,7.461-8.96,19.05-10.322a2.5,2.5,0,0,1,2.759,2.889,1.95,1.95,0,0,0-.031.335c0,2.926,4.611,8.661,10.183,8.661s10.183-5.735,10.183-8.661a1.95,1.95,0,0,0-.031-.335,2.5,2.5,0,0,1,2.759-2.889c11.589,1.362,16.756,6.365,19.05,10.322a15.383,15.383,0,0,1,1.893,10.443,14.464,14.464,0,0,1,2.071.9,2.5,2.5,0,0,1,.93.9l2.207,3.679a21.253,21.253,0,0,0,9.485-16.4,2.5,2.5,0,0,1,4.267-1.757l1.588,1.588a23.717,23.717,0,0,0-4.167-16.96,2.5,2.5,0,0,1,1.979-4.028h2.519c-3.825-11.027-12.477-13.746-12.572-13.775a2.5,2.5,0,0,1-1.72-2.945c2.781-12.316-1.6-21.834-13.015-28.291a2.5,2.5,0,0,1-1.132-1.357A22.586,22.586,0,0,0,144.1,13.607l-.51,2.471A2.5,2.5,0,0,1,139.24,17.2a23.726,23.726,0,0,0-15.762-7.5l1.235,1.877a2.5,2.5,0,0,1-2.475,3.844c-.136-.02-12.793-1.889-21.339,3.3l3.112,2.7a2.5,2.5,0,0,1-.566,4.147C89.9,32,84.552,42.021,87.559,55.338a2.5,2.5,0,0,1-1.72,2.945c-.376.117-8.8,2.871-12.574,13.775h2.521a2.5,2.5,0,0,1,1.974,4.035A23.713,23.713,0,0,0,73.6,93.046l1.588-1.588A2.493,2.493,0,0,1,76.954,90.726Z"/><path d="M128,100.263c-8.663,0-15.183-8.287-15.183-13.661,0-5.564,6.385-9.6,15.183-9.6s15.183,4.038,15.183,9.6C143.183,91.976,136.663,100.263,128,100.263ZM128,82c-6.091,0-10.183,2.379-10.183,4.6,0,2.926,4.611,8.661,10.183,8.661s10.183-5.735,10.183-8.661C138.183,84.379,134.091,82,128,82Z"/><path d="M140.825,133.9c-.05,0-.1,0-.149,0a3.548,3.548,0,0,1-3.3-2.641l-3.925-14.718a2.5,2.5,0,0,1,3.1-3.05,15.245,15.245,0,0,0,9.973-.893,2.5,2.5,0,0,1,3.29,3.159l-5.635,15.78A3.548,3.548,0,0,1,140.825,133.9Zm-1.556-14.961,1.752,6.572,2.449-6.859A20.031,20.031,0,0,1,139.269,118.943Z"/><path d="M115.175,133.9a3.548,3.548,0,0,1-3.354-2.366l-5.635-15.78a2.5,2.5,0,0,1,3.29-3.159,15.244,15.244,0,0,0,9.973.893,2.5,2.5,0,0,1,3.1,3.05l-3.924,14.717h0a3.548,3.548,0,0,1-3.3,2.641C115.274,133.9,115.225,133.9,115.175,133.9Zm1.032-3.29h0Zm-3.677-11.958,2.449,6.859,1.752-6.572A20.1,20.1,0,0,1,112.53,118.656Z"/><path d="M151.372,72.669a10.613,10.613,0,0,1-10.653-10.332,2.5,2.5,0,0,1,1.724-2.455,70.316,70.316,0,0,0,12.833-6.319,2.5,2.5,0,0,1,2.888.212,10.668,10.668,0,0,1-6.792,18.894ZM146.035,63.9a5.667,5.667,0,1,0,10.072-5.015A76.422,76.422,0,0,1,146.035,63.9Z"/><path d="M104.628,72.669a10.668,10.668,0,0,1-6.792-18.894,2.5,2.5,0,0,1,2.888-.212,70.316,70.316,0,0,0,12.833,6.319,2.5,2.5,0,0,1,1.724,2.455A10.613,10.613,0,0,1,104.628,72.669ZM99.893,58.885A5.667,5.667,0,1,0,109.965,63.9,76.422,76.422,0,0,1,99.893,58.885Z"/><path d="M160.521,29.851a2.491,2.491,0,0,1-1.471-.479,37.776,37.776,0,0,0-3.624-2.324,2.5,2.5,0,0,1-1.132-1.359,21.565,21.565,0,0,0-2.886-5.5,2.5,2.5,0,0,1-.042-2.869c6.448-9.5,14.831-14.309,24.916-14.309,11.312,0,15.2-1.719,16.348-2.457A3.488,3.488,0,0,1,195.983.32a3.519,3.519,0,0,1,2.028,2.721v0a38.867,38.867,0,0,1,.364,4.895,2.5,2.5,0,0,1-1.047,2.055c-4.84,3.456-12.631,6.276-23.156,8.38-5.118,1.024-8.836,4.293-11.367,9.992a2.505,2.505,0,0,1-1.638,1.4A2.555,2.555,0,0,1,160.521,29.851Zm-1.832-6.691q.443.262.876.533c3.192-5.615,7.766-9.049,13.627-10.222,10.891-2.179,16.89-4.8,20.144-6.824-.016-.292-.034-.575-.055-.845-3.644,1.469-9.344,2.212-17,2.212-7.842,0-14.5,3.615-19.808,10.752A26.036,26.036,0,0,1,158.689,23.16ZM193.06,3.734h0Z"/><path d="M95.479,29.852a2.563,2.563,0,0,1-.648-.085,2.509,2.509,0,0,1-1.637-1.4c-2.53-5.7-6.249-8.969-11.367-9.993-10.525-2.1-18.316-4.924-23.156-8.38a2.5,2.5,0,0,1-1.047-2.055,38.909,38.909,0,0,1,.364-4.893A3.522,3.522,0,0,1,60.017.322a3.486,3.486,0,0,1,3.356.236c1.148.738,5.04,2.456,16.345,2.456a31.431,31.431,0,0,1,23.551,10.94,2.5,2.5,0,0,1-.78,3.9q-.828.4-1.586.862l3.108,2.7a2.5,2.5,0,0,1-.566,4.147,41.007,41.007,0,0,0-6.5,3.813A2.5,2.5,0,0,1,95.479,29.852ZM62.664,6.647c3.254,2.025,9.252,4.645,20.144,6.824C88.67,14.644,93.244,18.078,96.437,23.7q.744-.465,1.524-.911l-2.7-2.345a2.5,2.5,0,0,1-.008-3.769,21.131,21.131,0,0,1,2.1-1.614A25.9,25.9,0,0,0,79.718,8.014c-7.654,0-13.354-.743-17-2.212C62.7,6.072,62.68,6.355,62.664,6.647Z"/></svg>