<svg xmlns="http://www.w3.org/2000/svg" viewBox="0 0 256 256"><title>icon</title><path d="M179.083,68.074a64.867,64.867,0,0,0-13.068.661v24.2c0,.857-.04,1.706-.1,2.549a15.846,15.846,0,0,0,13.164-27.413Z" fill="#f9d0b4"/><path d="M157.376,70.891q-3.981,1.4-7.314,2.547a67.915,67.915,0,0,1-44.124,0q-3.341-1.146-7.314-2.547a49.026,49.026,0,0,0-8.639-2.156v24.2A38.126,38.126,0,0,0,128,130.952h0a38.126,38.126,0,0,0,38.015-38.014v-24.2A49.026,49.026,0,0,0,157.376,70.891Z" fill="#f9d0b4"/><path d="M89.985,68.735a64.867,64.867,0,0,0-13.068-.661A15.822,15.822,0,0,0,90.081,95.487c-.056-.843-.1-1.692-.1-2.549Z" fill="#f9d0b4"/><circle cx="128" cy="224.053" r="29.447" fill="#fcdd86"/><path d="M117.242,195.694l.263.845a29.456,29.456,0,0,1,21,0l.253-.791,10.667-28.445h0a2.846,2.846,0,0,1-4.406,1.253l-2.986-2.307A5.113,5.113,0,0,1,139,167.265h-.057a15.5,15.5,0,0,1-8.422-2.288h0a5.86,5.86,0,0,1-5.04,0h0a15.5,15.5,0,0,1-8.422,2.288H117a5.113,5.113,0,0,1-3.035-1.012l-2.986,2.307a2.838,2.838,0,0,1-4.327-1.1Z" fill="#edf4fc"/><path d="M207.736,247.241l-3.624-76.348A15,15,0,0,0,192.8,157.18l-23.607-5.942-.643,18a1.754,1.754,0,0,1-1.249,1.618l-6.609,1.983a1.754,1.754,0,0,0-.99,2.6l6.161,10.013a1.754,1.754,0,0,1-.116,2L151.2,205.924h0A29.438,29.438,0,0,1,128,253.5h73.817A5.928,5.928,0,0,0,207.736,247.241Z" fill="#5b5d60"/><path d="M98.553,224.053a29.31,29.31,0,0,1,6.274-18.158h0L90.258,187.4a1.754,1.754,0,0,1-.116-2L96.3,175.385a1.755,1.755,0,0,0-.991-2.6L88.7,170.8a1.754,1.754,0,0,1-1.249-1.617l-.641-17.948L63.205,157.18a15,15,0,0,0-11.317,13.713l-3.624,76.348a5.928,5.928,0,0,0,5.919,6.259H128A29.447,29.447,0,0,1,98.553,224.053Z" fill="#5b5d60"/><path d="M148.514,142.472a5.369,5.369,0,0,1-2.6-2.8L136.7,152.147a18.059,18.059,0,0,1,2.245-.143H139a5.331,5.331,0,0,1,5.234,5.374v4.513a5.427,5.427,0,0,1-2.2,4.362l2.986,2.307a2.846,2.846,0,0,0,4.406-1.253l7.718-20.58Z" fill="#edf4fc"/><path d="M111.768,161.891v-4.513A5.331,5.331,0,0,1,117,152h.057a18.059,18.059,0,0,1,2.245.143l-9.222-12.477a5.369,5.369,0,0,1-2.6,2.8l-8.629,4.255,7.718,20.58a2.846,2.846,0,0,0,4.406,1.253l2.986-2.307A5.427,5.427,0,0,1,111.768,161.891Z" fill="#edf4fc"/><path d="M119.3,152.147a14.6,14.6,0,0,1,6.177,2.145h0a5.856,5.856,0,0,1,5.04,0h0a14.591,14.591,0,0,1,6.177-2.145l9.222-12.477a5.374,5.374,0,0,1-.405-2.024V126.639A37.662,37.662,0,0,1,128,130.952h0a37.662,37.662,0,0,1-17.513-4.313v11.007a5.374,5.374,0,0,1-.405,2.024Z" fill="#f9d0b4"/><circle cx="128" cy="159.635" r="5.912" fill="#818182"/><path d="M139,152h-.057a15.507,15.507,0,0,0-8.422,2.288,5.9,5.9,0,0,1,0,10.685,15.5,15.5,0,0,0,8.422,2.288H139a5.331,5.331,0,0,0,5.234-5.374v-4.513A5.331,5.331,0,0,0,139,152Z" fill="#818182"/><path d="M122.088,159.635a5.907,5.907,0,0,1,3.393-5.343A15.507,15.507,0,0,0,117.059,152H117a5.331,5.331,0,0,0-5.234,5.374v4.513A5.331,5.331,0,0,0,117,167.265h.057a15.5,15.5,0,0,0,8.422-2.288A5.907,5.907,0,0,1,122.088,159.635Z" fill="#818182"/><circle cx="128" cy="224.053" r="20.397" fill="#f5c84c"/><path d="M166.328,150.518a29.611,29.611,0,0,1-5.881-2.163l-3.3-1.628-4.134,11.024-3.584,9.556h0l-10.667,28.445-.253.791a29.506,29.506,0,0,1,12.691,9.381h0l14.546-18.462a1.754,1.754,0,0,0,.116-2L159.7,175.444a1.754,1.754,0,0,1,.99-2.6l6.609-1.983a1.754,1.754,0,0,0,1.249-1.618l.643-18Z" fill="#818182"/><path d="M104.828,205.894a29.512,29.512,0,0,1,12.677-9.355l-.263-.845L106.654,167.46c-.024-.053-.058-.1-.079-.153l-7.718-20.58-3.3,1.628a29.611,29.611,0,0,1-5.881,2.163l-2.858.719.641,17.948A1.754,1.754,0,0,0,88.7,170.8l6.609,1.983a1.755,1.755,0,0,1,.991,2.6L90.142,185.4a1.754,1.754,0,0,0,.116,2L104.827,205.9Z" fill="#818182"/><path d="M205.705,131.654a11.1,11.1,0,0,1-8.9-8.717.2.2,0,0,0-.395,0,11.1,11.1,0,0,1-8.9,8.717.2.2,0,0,0,0,.386,11.1,11.1,0,0,1,8.9,8.717.2.2,0,0,0,.395,0,11.1,11.1,0,0,1,8.9-8.717A.2.2,0,0,0,205.705,131.654Z" fill="#f5c84c"/><path d="M71.941,25.487h-2.33v-2.33a3.158,3.158,0,0,0-6.315,0v2.33H60.967a3.158,3.158,0,0,0,0,6.315H63.3v2.33a3.158,3.158,0,0,0,6.315,0V31.8h2.33a3.158,3.158,0,0,0,0-6.315Z" fill="#70d6f9"/><circle cx="46.662" cy="50.377" r="3.377" fill="#f5c84c"/><circle cx="215.662" cy="152.377" r="3.377" fill="#ef4460"/><circle cx="37.662" cy="197.377" r="3.377" fill="#70d6f9"/><circle cx="177.662" cy="10.377" r="3.377" fill="#87d147"/><path d="M128,226.553a2.5,2.5,0,0,1-2.5-2.5V215.5a2.5,2.5,0,0,1,5,0v8.553A2.5,2.5,0,0,1,128,226.553Z"/><path d="M128,226.553h-8.553a2.5,2.5,0,0,1,0-5H128a2.5,2.5,0,0,1,0,5Z"/><path d="M128,209.191a2.5,2.5,0,0,1-2.5-2.5v-3.035a2.5,2.5,0,0,1,5,0v3.035A2.5,2.5,0,0,1,128,209.191Z"/><path d="M128,246.95a2.5,2.5,0,0,1-2.5-2.5v-3.035a2.5,2.5,0,1,1,5,0v3.035A2.5,2.5,0,0,1,128,246.95Z"/><path d="M110.638,226.553H107.6a2.5,2.5,0,1,1,0-5h3.034a2.5,2.5,0,1,1,0,5Z"/><path d="M148.4,226.553h-3.034a2.5,2.5,0,1,1,0-5H148.4a2.5,2.5,0,0,1,0,5Z"/><path d="M170.018,226.553h-3.036a2.5,2.5,0,1,1,0-5h3.036a2.5,2.5,0,1,1,0,5Z"/><path d="M89.018,226.553H85.982a2.5,2.5,0,1,1,0-5h3.036a2.5,2.5,0,1,1,0,5Z"/><path d="M165.55,215.688a2.5,2.5,0,0,1-.646-4.916l2.932-.786a2.5,2.5,0,0,1,1.295,4.83l-2.932.787A2.549,2.549,0,0,1,165.55,215.688Z"/><path d="M87.515,238.205a2.5,2.5,0,0,1-.645-4.916L89.8,232.5a2.5,2.5,0,0,1,1.293,4.83l-2.932.785A2.5,2.5,0,0,1,87.515,238.205Z"/><path d="M90.45,215.688a2.549,2.549,0,0,1-.649-.085l-2.932-.787a2.5,2.5,0,0,1,1.3-4.83l2.932.786a2.5,2.5,0,0,1-.646,4.916Z"/><path d="M168.485,238.205a2.5,2.5,0,0,1-.648-.086l-2.932-.785a2.5,2.5,0,0,1,1.293-4.83l2.932.785a2.5,2.5,0,0,1-.645,4.916Z"/><path d="M128,189.357a2.5,2.5,0,0,1-2.5-2.5V173.143a2.5,2.5,0,0,1,5,0v13.714A2.5,2.5,0,0,1,128,189.357Z"/><path d="M138.506,199.043a2.5,2.5,0,0,1-.893-.165,27.061,27.061,0,0,0-19.217,0,2.5,2.5,0,0,1-3.279-1.595l-.241-.776-10.563-28.166a2.5,2.5,0,0,1,4.625-1.895.344.344,0,0,0,.236.2.3.3,0,0,0,.278-.06l2.986-2.308a2.5,2.5,0,0,1,3.013-.033,2.633,2.633,0,0,0,1.56.525,13.171,13.171,0,0,0,7.093-1.877,2.5,2.5,0,0,1,2.445-.173,3.362,3.362,0,0,0,2.9,0,2.51,2.51,0,0,1,2.445.173,13.118,13.118,0,0,0,7.045,1.877,2.674,2.674,0,0,0,1.608-.525,2.5,2.5,0,0,1,3.013.033l2.986,2.308a.346.346,0,0,0,.529-.134l.008-.018v0a2.5,2.5,0,0,1,4.682,1.757L141.121,196.57l-.233.732a2.5,2.5,0,0,1-2.382,1.741ZM128,192.105a31.81,31.81,0,0,1,8.974,1.286l8.235-21.96a5.413,5.413,0,0,1-1.718-.892l-1.7-1.312a7.56,7.56,0,0,1-2.786.539,18.668,18.668,0,0,1-8.736-2.034,8.382,8.382,0,0,1-4.542,0,18.556,18.556,0,0,1-8.669,2.034,7.776,7.776,0,0,1-2.852-.54l-1.7,1.313a5.387,5.387,0,0,1-1.7.883l8.236,21.962A31.824,31.824,0,0,1,128,192.105Z"/><path d="M201.816,256H128a2.5,2.5,0,0,1,0-5,26.978,26.978,0,0,0,26.947-26.947,26.67,26.67,0,0,0-5.721-16.589,2.5,2.5,0,0,1,.033-3.123c.012-.016.024-.03.037-.045l14.16-17.972-5.889-9.569a4.257,4.257,0,0,1,2.4-6.305l6.1-1.83.624-17.471a2.5,2.5,0,0,1,3.109-2.336l23.607,5.942a17.424,17.424,0,0,1,13.2,16l3.626,76.358A8.429,8.429,0,0,1,201.816,256Zm-56.671-5h56.671a3.427,3.427,0,0,0,3.424-3.62v-.021l-3.625-76.347a12.437,12.437,0,0,0-9.429-11.408l-20.61-5.187-.532,14.915a4.254,4.254,0,0,1-3.029,3.924l-5.68,1.7,5.652,9.186a4.264,4.264,0,0,1-.281,4.864l-13.368,16.968a31.587,31.587,0,0,1,5.61,18.075A31.952,31.952,0,0,1,145.145,251Z"/><path d="M128,256H54.184a8.429,8.429,0,0,1-8.416-8.9l3.624-76.328a17.43,17.43,0,0,1,13.2-16.02L86.2,148.812a2.5,2.5,0,0,1,3.108,2.336l.623,17.414,6.1,1.829a4.255,4.255,0,0,1,2.4,6.3l-5.89,9.57,14.247,18.083a2.5,2.5,0,0,1,0,3.09,26.674,26.674,0,0,0-5.741,16.615A26.978,26.978,0,0,0,128,251a2.5,2.5,0,0,1,0,5ZM84.427,154.416,63.815,159.6a12.443,12.443,0,0,0-9.43,11.428l-3.624,76.327A3.428,3.428,0,0,0,54.184,251h56.671a31.952,31.952,0,0,1-14.8-26.947,31.587,31.587,0,0,1,5.632-18.107l-13.391-17a4.266,4.266,0,0,1-.28-4.863l5.652-9.186-5.68-1.7a4.255,4.255,0,0,1-3.029-3.922Z"/><path d="M146.742,171.658a5.3,5.3,0,0,1-3.251-1.119l-2.986-2.308a2.5,2.5,0,0,1,.044-3.99,2.931,2.931,0,0,0,1.183-2.35v-4.513a2.82,2.82,0,0,0-2.743-2.874,15.728,15.728,0,0,0-1.987.124,2.5,2.5,0,0,1-2.317-3.968l9.222-12.476a2.5,2.5,0,0,1,4.326.544,2.871,2.871,0,0,0,1.386,1.5l8.629,4.255a2.5,2.5,0,0,1,1.235,3.12l-7.716,20.581a5.3,5.3,0,0,1-3.545,3.265A5.391,5.391,0,0,1,146.742,171.658Zm-1.094-5.771.9.695a.332.332,0,0,0,.306.06.335.335,0,0,0,.231-.214l6.922-18.46-6.6-3.254a7.771,7.771,0,0,1-1.434-.914l-4.528,6.125a7.869,7.869,0,0,1,5.286,7.453v4.513A7.934,7.934,0,0,1,145.648,165.887Z"/><path d="M109.258,171.658a5.417,5.417,0,0,1-1.483-.208,5.3,5.3,0,0,1-3.542-3.267L96.517,147.6a2.5,2.5,0,0,1,1.235-3.12l8.629-4.255a2.871,2.871,0,0,0,1.386-1.5,2.5,2.5,0,0,1,4.326-.544l9.222,12.476A2.5,2.5,0,0,1,119,154.628a15.9,15.9,0,0,0-1.938-.124,2.829,2.829,0,0,0-2.792,2.874v4.513a2.931,2.931,0,0,0,1.183,2.35,2.5,2.5,0,0,1,.044,3.99l-2.986,2.308A5.3,5.3,0,0,1,109.258,171.658Zm-7.265-23.69,6.923,18.461a.334.334,0,0,0,.23.213.34.34,0,0,0,.306-.06l.9-.695a7.934,7.934,0,0,1-1.084-4v-4.513a7.886,7.886,0,0,1,5.279-7.463l-4.521-6.115a7.771,7.771,0,0,1-1.434.914Z"/><path d="M130.52,156.793a2.505,2.505,0,0,1-1.069-.239,3.355,3.355,0,0,0-2.9,0,2.5,2.5,0,0,1-2.445-.174,12.212,12.212,0,0,0-5.11-1.753,2.5,2.5,0,0,1-1.7-.994l-9.223-12.477a2.5,2.5,0,0,1-.3-2.429,2.871,2.871,0,0,0,.219-1.081V126.639a2.5,2.5,0,0,1,3.66-2.215,35.213,35.213,0,0,0,32.708,0,2.5,2.5,0,0,1,3.66,2.215v11.007a2.871,2.871,0,0,0,.219,1.081,2.5,2.5,0,0,1-.3,2.429l-9.223,12.477a2.5,2.5,0,0,1-1.7.994,12.212,12.212,0,0,0-5.11,1.753A2.5,2.5,0,0,1,130.52,156.793Zm-2.52-5.57a8.311,8.311,0,0,1,2.271.314,17.285,17.285,0,0,1,5.026-1.705l7.872-10.648a7.643,7.643,0,0,1-.155-1.538V130.54a40.713,40.713,0,0,1-30.028,0v7.106a7.643,7.643,0,0,1-.155,1.538l7.872,10.648a17.285,17.285,0,0,1,5.026,1.705A8.311,8.311,0,0,1,128,151.223Z"/><path d="M128,168.047a8.412,8.412,0,1,1,8.412-8.412A8.421,8.421,0,0,1,128,168.047Zm0-11.824a3.412,3.412,0,1,0,3.412,3.412A3.415,3.415,0,0,0,128,156.223Z"/><path d="M138.94,169.766a17.957,17.957,0,0,1-9.8-2.7,2.5,2.5,0,0,1,.307-4.348,3.4,3.4,0,0,0,0-6.164,2.5,2.5,0,0,1-.306-4.348,17.972,17.972,0,0,1,9.795-2.7h.067a7.828,7.828,0,0,1,7.725,7.874v4.513a7.828,7.828,0,0,1-7.711,7.874Zm-3.921-5.512a15.024,15.024,0,0,0,3.921.512,2.83,2.83,0,0,0,2.792-2.875v-4.513a2.821,2.821,0,0,0-2.74-2.874h-.052a15.024,15.024,0,0,0-3.921.512,8.354,8.354,0,0,1,0,9.238Z"/><path d="M117.06,169.766h-.081a7.828,7.828,0,0,1-7.711-7.874v-4.513a7.828,7.828,0,0,1,7.725-7.874,18.042,18.042,0,0,1,9.862,2.7,2.5,2.5,0,0,1-.306,4.348,3.4,3.4,0,0,0,0,6.164,2.5,2.5,0,0,1,.307,4.348A17.957,17.957,0,0,1,117.06,169.766Zm0-15.262a2.829,2.829,0,0,0-2.792,2.874v4.513a2.82,2.82,0,0,0,2.742,2.874q.058,0,.117,0a14.766,14.766,0,0,0,3.856-.512,8.353,8.353,0,0,1,0-9.24A15.024,15.024,0,0,0,117.06,154.5Z"/><path d="M128,246.95a22.9,22.9,0,1,1,22.9-22.9A22.922,22.922,0,0,1,128,246.95Zm0-40.794a17.9,17.9,0,1,0,17.9,17.9A17.917,17.917,0,0,0,128,206.156Z"/><path d="M151.2,208.424h0a2.5,2.5,0,0,1-1.964-.959,27.006,27.006,0,0,0-11.615-8.587,2.5,2.5,0,0,1-1.489-3.094l.252-.791c.013-.04.026-.08.041-.119L154.8,145.849a2.5,2.5,0,0,1,3.446-1.365l3.3,1.629a27.193,27.193,0,0,0,5.386,1.98h0l2.86.72a2.5,2.5,0,0,1,1.887,2.513l-.643,18a4.254,4.254,0,0,1-3.029,3.924l-5.68,1.7,5.652,9.186a4.264,4.264,0,0,1-.281,4.864L153.16,207.471A2.5,2.5,0,0,1,151.2,208.424Zm-9.55-13.256A31.987,31.987,0,0,1,151.1,202l12.352-15.677-5.889-9.569a4.257,4.257,0,0,1,2.4-6.305l6.1-1.83.552-15.451-.9-.227a32.12,32.12,0,0,1-6.377-2.344l-.828-.408Z"/><path d="M104.827,208.4a2.5,2.5,0,0,1-1.964-.954L88.294,188.95a4.266,4.266,0,0,1-.28-4.863l5.652-9.186-5.68-1.7a4.255,4.255,0,0,1-3.029-3.922l-.641-17.949a2.5,2.5,0,0,1,1.888-2.513l2.858-.719a27.292,27.292,0,0,0,5.387-1.981l3.3-1.629a2.5,2.5,0,0,1,3.446,1.365l7.664,20.437c.03.057.058.114.083.174.018.04.034.081.05.122l10.588,28.233c.017.045.032.091.047.137l.263.846a2.5,2.5,0,0,1-1.5,3.077,26.99,26.99,0,0,0-11.6,8.563,2.5,2.5,0,0,1-1.965.957Zm-12.283-22.13,12.377,15.71a31.979,31.979,0,0,1,9.451-6.816l-10-26.665a2.75,2.75,0,0,1-.147-.336L97.486,150.19l-.827.408a32.152,32.152,0,0,1-6.378,2.344l-.9.226.55,15.394,6.1,1.829a4.255,4.255,0,0,1,2.4,6.3Z"/><path d="M75.187,256a2.5,2.5,0,0,1-2.5-2.5V192.321a2.5,2.5,0,0,1,5,0V253.5A2.5,2.5,0,0,1,75.187,256Z"/><path d="M180.813,256a2.5,2.5,0,0,1-2.5-2.5V192.321a2.5,2.5,0,0,1,5,0V253.5A2.5,2.5,0,0,1,180.813,256Z"/><path d="M203.438,69.543C176.389,44.628,128,45.229,128,45.229s-48.389-.6-75.438,24.314a1.543,1.543,0,0,0,1.471,2.627c9.422-2.874,28.21-7.061,44.591-1.279q3.981,1.4,7.314,2.547a67.915,67.915,0,0,0,44.124,0q3.34-1.146,7.314-2.547c16.381-5.782,35.169-1.595,44.591,1.279A1.543,1.543,0,0,0,203.438,69.543Z" fill="#965622"/><path d="M128,45.229a155.207,155.207,0,0,1,41.111,6.088L163.7,14.694a11.4,11.4,0,0,0-9.153-9.837A169.54,169.54,0,0,0,128,2.5a169.54,169.54,0,0,0-26.55,2.355A11.4,11.4,0,0,0,92.3,14.694L86.889,51.317A155.2,155.2,0,0,1,128,45.229Z" fill="#5b5d60"/><path d="M128,33.431a170.251,170.251,0,0,0-39.222,5.091l-1.889,12.8A155.2,155.2,0,0,1,128,45.229a155.207,155.207,0,0,1,41.111,6.088l-1.89-12.8A170.24,170.24,0,0,0,128,33.431Z" fill="#818182"/><path d="M203.438,69.543C176.389,44.628,128,45.229,128,45.229s-48.389-.6-75.438,24.314a1.543,1.543,0,0,0,1.471,2.627c9.422-2.874,28.21-7.061,44.591-1.279q3.981,1.4,7.314,2.547a67.915,67.915,0,0,0,44.124,0q3.34-1.146,7.314-2.547c16.381-5.782,35.169-1.595,44.591,1.279A1.543,1.543,0,0,0,203.438,69.543Z" fill="#5b5d60"/><path d="M128,79.6a70.532,70.532,0,0,1-22.874-3.8c-2.233-.767-4.672-1.615-7.334-2.555-15.62-5.515-33.664-1.545-43.029,1.314a4.043,4.043,0,0,1-3.9-6.857c27.466-25.3,75.143-25,77.164-24.976,1.955-.02,49.636-.323,77.1,24.975h0a4.043,4.043,0,0,1-3.9,6.856c-9.366-2.856-27.409-6.826-43.029-1.313-2.662.94-5.1,1.788-7.334,2.555A70.537,70.537,0,0,1,128,79.6ZM80.26,65.494a57.712,57.712,0,0,1,19.2,3.039q3.97,1.4,7.293,2.541a65.78,65.78,0,0,0,42.5,0q3.33-1.143,7.293-2.541c14.817-5.23,31.361-2.691,41.944.059-26.5-21.149-70.009-20.853-70.457-20.863C127.5,47.74,84,47.462,57.513,68.591A92.132,92.132,0,0,1,80.26,65.494Z"/><path d="M169.11,53.816a2.511,2.511,0,0,1-.711-.1,154.254,154.254,0,0,0-40.369-5.984h-.06A154.315,154.315,0,0,0,87.6,53.713a2.5,2.5,0,0,1-3.185-2.762l5.407-36.622a13.844,13.844,0,0,1,11.226-11.94A171.945,171.945,0,0,1,128.033,0a171.747,171.747,0,0,1,26.918,2.387,13.844,13.844,0,0,1,11.226,11.94l5.407,36.622a2.5,2.5,0,0,1-2.474,2.865ZM127.746,5a172.174,172.174,0,0,0-25.894,2.323,8.867,8.867,0,0,0-7.081,7.736L89.926,47.866A156.591,156.591,0,0,1,128,42.729a156.457,156.457,0,0,1,38.074,5.137L161.229,15.06a8.867,8.867,0,0,0-7.081-7.736A168.844,168.844,0,0,0,128.033,5Z"/><path d="M169.11,53.816a2.511,2.511,0,0,1-.711-.1,154.254,154.254,0,0,0-40.369-5.984A154.032,154.032,0,0,0,87.6,53.713a2.5,2.5,0,0,1-3.185-2.762l1.889-12.8A2.5,2.5,0,0,1,88.166,36.1,170.882,170.882,0,0,1,128,30.932,170.6,170.6,0,0,1,167.834,36.1a2.5,2.5,0,0,1,1.861,2.058l1.889,12.8a2.5,2.5,0,0,1-2.474,2.865Zm-78.1-13.269-1.081,7.319a156.143,156.143,0,0,1,38.105-5.137,156.339,156.339,0,0,1,38.043,5.137l-1.081-7.319a169.267,169.267,0,0,0-36.964-4.615h-.058A169.683,169.683,0,0,0,91.007,40.547Z"/><path d="M128,79.6a70.532,70.532,0,0,1-22.874-3.8c-2.233-.767-4.672-1.615-7.334-2.555-15.62-5.515-33.664-1.545-43.029,1.314a4.043,4.043,0,0,1-3.9-6.857c27.466-25.3,75.143-25,77.164-24.976,1.955-.02,49.636-.323,77.1,24.975h0a4.043,4.043,0,0,1-3.9,6.856c-9.366-2.856-27.409-6.826-43.029-1.313-2.662.94-5.1,1.788-7.334,2.555A70.537,70.537,0,0,1,128,79.6ZM80.26,65.494a57.712,57.712,0,0,1,19.2,3.039q3.97,1.4,7.293,2.541a65.78,65.78,0,0,0,42.5,0q3.33-1.143,7.293-2.541c14.817-5.23,31.361-2.691,41.944.059-26.5-21.149-70.009-20.853-70.457-20.863C127.5,47.74,84,47.462,57.513,68.591A92.132,92.132,0,0,1,80.26,65.494Z"/><path d="M168.454,98.209a18.456,18.456,0,0,1-2.932-.253,2.5,2.5,0,0,1-2.1-2.636c.061-.916.09-1.673.09-2.382v-24.2a2.5,2.5,0,0,1,2.108-2.468,67.374,67.374,0,0,1,13.574-.69,2.508,2.508,0,0,1,1.563.643,18.356,18.356,0,0,1-12.306,31.989Zm.061-27.3V92.938c0,.089,0,.18,0,.271a13.354,13.354,0,0,0,9.521-22.674A63.647,63.647,0,0,0,168.515,70.913Z"/><path d="M128,133.452A40.561,40.561,0,0,1,87.485,92.938v-24.2a2.5,2.5,0,0,1,.877-1.9,2.471,2.471,0,0,1,2.015-.567,51.656,51.656,0,0,1,9.079,2.266c2.647.934,5.072,1.779,7.293,2.539a65.767,65.767,0,0,0,42.5,0c2.221-.761,4.646-1.606,7.293-2.54h0a51.567,51.567,0,0,1,9.079-2.266,2.5,2.5,0,0,1,2.892,2.468v24.2A40.561,40.561,0,0,1,128,133.452Zm-35.515-61.7V92.938a35.515,35.515,0,0,0,71.03,0V71.749a44.316,44.316,0,0,0-5.307,1.5h0q-3.993,1.41-7.334,2.555a70.793,70.793,0,0,1-45.748,0q-3.348-1.149-7.334-2.554A44.422,44.422,0,0,0,92.485,71.749Zm64.891-.858h0Z"/><path d="M87.546,98.209A18.356,18.356,0,0,1,75.24,66.22a2.508,2.508,0,0,1,1.563-.643,67.083,67.083,0,0,1,13.574.69,2.5,2.5,0,0,1,2.108,2.468v24.2c0,.709.029,1.466.09,2.382a2.5,2.5,0,0,1-2.1,2.636A18.456,18.456,0,0,1,87.546,98.209ZM77.965,70.535a13.354,13.354,0,0,0,9.521,22.674c0-.091,0-.182,0-.271V70.913A63.647,63.647,0,0,0,77.965,70.535Z"/><path d="M127.458,112.528a20.723,20.723,0,0,1-12.8-4.635,2.5,2.5,0,0,1,3.082-3.938,14.987,14.987,0,0,0,19.425,0,2.5,2.5,0,1,1,3.082,3.938A20.7,20.7,0,0,1,127.458,112.528Z"/><path d="M149.657,85.313a2.5,2.5,0,0,1-2.5-2.5,2.587,2.587,0,1,0-5.172,0,2.5,2.5,0,0,1-5,0,7.586,7.586,0,1,1,15.172,0A2.5,2.5,0,0,1,149.657,85.313Z"/><path d="M116.515,85.313a2.5,2.5,0,0,1-2.5-2.5,2.587,2.587,0,1,0-5.172,0,2.5,2.5,0,0,1-5,0,7.586,7.586,0,1,1,15.172,0A2.5,2.5,0,0,1,116.515,85.313Z"/></svg>