<svg xmlns="http://www.w3.org/2000/svg" viewBox="0 0 256 256"><title>icon</title><path d="M249.935,66.333c-11.228-12.9-33.909,1.38-52.488,17.347a49.872,49.872,0,0,1,5.558,30.531C226.921,104.048,265.413,84.117,249.935,66.333Z" fill="#9be5f9"/><path d="M243.862,124.408c-1.934-13.173-22.3-11.846-41.295-7.582a50.569,50.569,0,0,1-6.462,16.679c-1.563,2.578-2.962,5.168-4.213,7.728C212.024,143.153,246.7,143.727,243.862,124.408Z" fill="#9be5f9"/><path d="M22.033,92.191a2.638,2.638,0,0,0,1.716-1.758l2.218-7.462a2.64,2.64,0,0,1,4.666-.8l4.574,6.3a2.639,2.639,0,0,0,2.2,1.088l7.783-.2a2.639,2.639,0,0,1,2.2,4.19l-4.578,6.3a2.64,2.64,0,0,0-.354,2.431l2.591,7.341a2.646,2.646,0,0,1,.144,1.139c2.583,1.189,5.095,2.3,7.467,3.309a49.863,49.863,0,0,1,5.749-30.513C39.859,67.64,17.264,53.464,6.065,66.333c-8.045,9.244-1.5,19.067,9.991,27.8Z" fill="#9be5f9"/><path d="M28.447,113.925c-.114.006-.23.01-.343.017l-2.362,1.809a2.641,2.641,0,0,1-3.94-.865c-5.274,1.4-8.9,4.332-9.664,9.522-1.581,10.774,8.507,15.357,21.23,16.974Z" fill="#9be5f9"/><path d="M59.762,133.95a50.5,50.5,0,0,1-6.668-17.2A131.39,131.39,0,0,0,38.673,114.3l4.983,27.8a179.286,179.286,0,0,0,20.171-.841C62.609,138.835,61.262,136.387,59.762,133.95Z" fill="#9be5f9"/><path d="M203.005,116.711a2.5,2.5,0,0,1-2.477-2.843,47.653,47.653,0,0,0-5.28-29,2.5,2.5,0,0,1,.568-3.086c26.907-23.123,45.75-28.874,56.005-17.093h0c3.633,4.175,4.909,8.748,3.793,13.593-3.437,14.923-29.974,29.026-51.632,38.229A2.485,2.485,0,0,1,203.005,116.711ZM200.577,84.3a52.836,52.836,0,0,1,5.315,25.94c26.765-11.8,42.641-23.487,44.85-33.077.747-3.241-.134-6.247-2.692-9.186C242.581,61.688,229.907,59.521,200.577,84.3Z"/><path d="M209.394,144.635c-6.036,0-12.139-.38-17.739-.914a2.5,2.5,0,0,1-2.009-3.586c1.341-2.743,2.8-5.41,4.323-7.926a48.052,48.052,0,0,0,6.143-15.857,2.5,2.5,0,0,1,1.908-1.965c18.887-4.239,31.934-4,38.778.7a12.7,12.7,0,0,1,5.537,8.959,13.742,13.742,0,0,1-3.58,12.039C236.5,142.67,223.123,144.635,209.394,144.635Zm-13.582-5.572c22.073,1.733,37.759-.576,43.319-6.423a8.864,8.864,0,0,0,2.257-7.869h0a7.774,7.774,0,0,0-3.422-5.564c-5.4-3.711-16.891-3.806-33.283-.286a53.156,53.156,0,0,1-6.44,15.882C197.407,136.18,196.6,137.6,195.812,139.063Z"/><path d="M52.663,116.57a2.483,2.483,0,0,1-.98-.2c-2.529-1.078-5.063-2.2-7.532-3.336a2.5,2.5,0,0,1-1.443-2.513l-2.6-7.407a5.138,5.138,0,0,1,.689-4.733l4.578-6.3a.141.141,0,0,0-.117-.223l-7.782.2a5.117,5.117,0,0,1-4.289-2.119l-4.573-6.3a.118.118,0,0,0-.136-.056.116.116,0,0,0-.111.1l-2.218,7.462A5.131,5.131,0,0,1,22.8,94.569l-5.976,1.94a2.5,2.5,0,0,1-2.284-.388C5.589,89.319.722,82.689.077,76.417c-.428-4.161.952-8.106,4.1-11.727C14.413,52.931,33.208,58.641,60.04,81.66a2.5,2.5,0,0,1,.563,3.1,47.64,47.64,0,0,0-5.461,28.981,2.5,2.5,0,0,1-2.479,2.827Zm-5.164-7.5q1.145.52,2.3,1.035A52.818,52.818,0,0,1,55.27,84.168C26.043,59.525,13.408,61.7,7.951,67.974c-2.236,2.569-3.185,5.164-2.9,7.931.475,4.624,4.339,9.815,11.49,15.441l4.721-1.533h0a.137.137,0,0,0,.089-.092l2.218-7.462A5.139,5.139,0,0,1,32.656,80.7L37.229,87a.1.1,0,0,0,.116.058l7.783-.2a5.184,5.184,0,0,1,4.681,2.749,5.106,5.106,0,0,1-.394,5.411l-4.578,6.3a.142.142,0,0,0-.019.129l2.592,7.341C47.442,108.883,47.472,108.975,47.5,109.066Z"/><path d="M33.368,143.883a2.575,2.575,0,0,1-.315-.02c-10.293-1.308-17.309-4.34-20.854-9.01a13.893,13.893,0,0,1-2.534-10.808c.594-4.05,3.072-9.346,11.5-11.575a2.5,2.5,0,0,1,2.85,1.25.185.185,0,0,0,.113.076l2.457-1.839a2.507,2.507,0,0,1,1.392-.513l.344-.015a2.5,2.5,0,0,1,2.589,2.055l4.921,27.457a2.5,2.5,0,0,1-2.461,2.942Zm-12.35-26.145c-5.043,1.769-6.081,4.818-6.406,7.033a8.954,8.954,0,0,0,1.569,7.058c2.307,3.039,7.151,5.28,14.109,6.552l-3.629-20.248a5.089,5.089,0,0,1-3.605.547A5.2,5.2,0,0,1,21.018,117.738Z"/><path d="M46.6,144.632q-1.524,0-2.993-.032a2.5,2.5,0,0,1-2.407-2.058l-4.983-27.8a2.5,2.5,0,0,1,.631-2.144,2.524,2.524,0,0,1,2.094-.784,133.771,133.771,0,0,1,14.7,2.5,2.5,2.5,0,0,1,1.915,1.978,48,48,0,0,0,6.34,16.352h0c1.455,2.363,2.858,4.885,4.17,7.5a2.5,2.5,0,0,1-2,3.611C57.824,144.336,51.963,144.632,46.6,144.632Zm-.843-5c4.372.029,9.095-.154,14.109-.539-.724-1.316-1.468-2.6-2.228-3.829h0a53.02,53.02,0,0,1-6.662-16.414c-3.264-.693-6.355-1.245-9.239-1.651Z"/><path d="M47.393,93.554a2.639,2.639,0,0,0-2.2-4.19l-7.783.2a2.639,2.639,0,0,1-2.2-1.088l-4.574-6.3a2.64,2.64,0,0,0-4.666.8l-2.218,7.462a2.638,2.638,0,0,1-1.716,1.758l-7.405,2.4a2.639,2.639,0,0,0-.682,4.684l6.412,4.416A2.64,2.64,0,0,1,21.5,105.87l0,7.784a2.64,2.64,0,0,0,4.245,2.1l6.181-4.733a2.641,2.641,0,0,1,2.421-.415l7.4,2.409a2.639,2.639,0,0,0,3.305-3.389l-2.591-7.341a2.64,2.64,0,0,1,.354-2.431Z" fill="#fcdd86"/><path d="M56.654,214.618,38.237,111.87,34.344,110.6a2.639,2.639,0,0,0-2.421.415l-3.515,2.691,18.4,102.673a5,5,0,0,0,4.915,4.119,5.07,5.07,0,0,0,.888-.079A5,5,0,0,0,56.654,214.618Z" fill="#b77035"/><path d="M165.807,53.41a5,5,0,0,0-6.741-2.139,67.6,67.6,0,0,1-62.133,0,5,5,0,1,0-4.6,8.879A77.482,77.482,0,0,0,128,68.83a77.5,77.5,0,0,0,35.668-8.68A5,5,0,0,0,165.807,53.41Z" fill="#fcdd86"/><path d="M167.527,59.765c-.82-.233-1.669-.445-2.508-.666a4.935,4.935,0,0,1-1.351,1.051A77.5,77.5,0,0,1,128,68.83a77.482,77.482,0,0,1-35.667-8.68,4.921,4.921,0,0,1-1.293-.992c-1.069.282-2.141.564-3.181.867-31.657,9.231-45.385,45.846-28.1,73.925a109.748,109.748,0,0,1,14.8,42.35c.141,43.063,18.258,65.768,29.807,75.873a5.657,5.657,0,0,0,9.347-4.333l-.17-52.207a14.6,14.6,0,0,1,29.19-.095l.17,52.206a5.657,5.657,0,0,0,9.375,4.273c11.483-10.181,29.452-33,29.311-76.066a109.777,109.777,0,0,1,14.518-42.446C213.21,105.314,199.243,68.79,167.527,59.765Z" fill="#edf4fc"/><path d="M171.31,16.864,147.6,26.742a2.83,2.83,0,0,1-3.485-1.106L130.4,3.823a2.831,2.831,0,0,0-4.792,0L111.883,25.636a2.83,2.83,0,0,1-3.485,1.106L84.69,16.864a2.831,2.831,0,0,0-3.72,3.656L94.061,50.743a4.975,4.975,0,0,1,2.872.528,67.6,67.6,0,0,0,62.133,0,4.978,4.978,0,0,1,2.873-.528L175.03,20.52A2.831,2.831,0,0,0,171.31,16.864Z" fill="#fcdd86"/><path d="M144.117,25.636a2.83,2.83,0,0,0,3.485,1.106l11.5-4.792L154,7.932a2.83,2.83,0,0,0-4.684-1.01L138.991,17.487Z" fill="#f5c84c"/><path d="M108.4,26.742a2.83,2.83,0,0,0,3.485-1.106l5.126-8.149L106.684,6.922A2.83,2.83,0,0,0,102,7.932L96.9,21.95Z" fill="#f5c84c"/><path d="M166.158,36.975a83.038,83.038,0,0,1-76.316,0,6.1,6.1,0,0,0-2.014-.622l6.233,14.39a4.975,4.975,0,0,1,2.872.528,67.6,67.6,0,0,0,62.133,0,4.978,4.978,0,0,1,2.873-.528l6.233-14.391A6.068,6.068,0,0,0,166.158,36.975Z" fill="#f5c84c"/><path d="M67.705,43.654a11.1,11.1,0,0,1-8.9-8.717.2.2,0,0,0-.4,0,11.1,11.1,0,0,1-8.9,8.717.2.2,0,0,0,0,.386,11.1,11.1,0,0,1,8.9,8.717.2.2,0,0,0,.4,0,11.1,11.1,0,0,1,8.9-8.717A.2.2,0,0,0,67.705,43.654Z" fill="#f5c84c"/><path d="M201.941,214.487h-2.33v-2.33a3.158,3.158,0,0,0-6.315,0v2.33h-2.329a3.158,3.158,0,0,0,0,6.315H193.3v2.33a3.158,3.158,0,0,0,6.315,0V220.8h2.33a3.158,3.158,0,0,0,0-6.315Z" fill="#70d6f9"/><circle cx="187.662" cy="242.377" r="3.377" fill="#87d147"/><circle cx="192.662" cy="57.377" r="3.377" fill="#f5c84c"/><circle cx="28.662" cy="201.377" r="3.377" fill="#ef4460"/><circle cx="67.662" cy="19.377" r="3.377" fill="#70d6f9"/><path d="M127.176,156.142a38.616,38.616,0,0,1-23.85-8.665,2.5,2.5,0,1,1,3.083-3.936,32.138,32.138,0,0,0,41.512,0A2.5,2.5,0,1,1,151,147.478,38.6,38.6,0,0,1,127.176,156.142Z"/><path d="M161.015,112.483a2.5,2.5,0,0,1-2.5-2.5,5.255,5.255,0,1,0-10.506,0,2.5,2.5,0,0,1-5,0,10.254,10.254,0,1,1,20.506,0A2.5,2.5,0,0,1,161.015,112.483Z"/><path d="M110.491,112.483a2.5,2.5,0,0,1-2.5-2.5,5.255,5.255,0,1,0-10.506,0,2.5,2.5,0,0,1-5,0,10.254,10.254,0,1,1,20.506,0A2.5,2.5,0,0,1,110.491,112.483Z"/><path d="M53.735,189c-.039,0-.077,0-.115,0l-18.738-.851a22.192,22.192,0,0,1-10.2-2.9c-4.072-2.386-6.372-5.589-6.834-9.52-.8-6.829,4.273-15.55,15.09-25.921a2.5,2.5,0,1,1,3.46,3.609c-11.989,11.5-14.005,18.16-13.585,21.727.274,2.324,1.712,4.217,4.4,5.791a17.185,17.185,0,0,0,7.9,2.216L53.846,184a2.5,2.5,0,0,1-.111,5Z"/><path d="M44.457,145.553a2.5,2.5,0,0,1-1.574-4.445c7.716-6.237,14.2-10.517,14.476-10.7a2.5,2.5,0,0,1,2.748,4.178c-.065.042-6.566,4.333-14.08,10.408A2.492,2.492,0,0,1,44.457,145.553Z"/><path d="M49.875,197.563a13.585,13.585,0,0,1-8.2-2.392,11.075,11.075,0,0,1-4.428-7.422,2.5,2.5,0,0,1,4.973-.522,6.161,6.161,0,0,0,2.459,3.946c2.069,1.471,5.364,1.774,9.532.883a2.5,2.5,0,0,1,1.048,4.888A25.768,25.768,0,0,1,49.875,197.563Z"/><path d="M50.26,180.146a2.5,2.5,0,0,1-.3-4.982A22.992,22.992,0,0,1,52.733,175a2.5,2.5,0,1,1,0,5,17.779,17.779,0,0,0-2.164.127A2.488,2.488,0,0,1,50.26,180.146Z"/><path d="M202.265,189a2.5,2.5,0,0,1-.112-5l18.739-.852a17.184,17.184,0,0,0,7.894-2.216c2.922-1.712,4.376-3.826,4.444-6.461.32-12.366-26.843-32.984-37.337-39.885a2.5,2.5,0,1,1,2.748-4.178A202.315,202.315,0,0,1,218.3,145.464C231.722,157.192,238.426,167,238.229,174.6c-.08,3.055-1.343,7.381-6.916,10.646a22.184,22.184,0,0,1-10.194,2.9L202.38,189C202.342,189,202.3,189,202.265,189Z"/><path d="M206.124,197.563a25.766,25.766,0,0,1-5.381-.619,2.5,2.5,0,1,1,1.047-4.888c4.173.892,7.465.588,9.532-.883a6.155,6.155,0,0,0,2.46-3.95,2.517,2.517,0,0,1,2.761-2.192,2.487,2.487,0,0,1,2.211,2.718,11.07,11.07,0,0,1-4.428,7.422A13.581,13.581,0,0,1,206.124,197.563Z"/><path d="M216.264,187.562a2.5,2.5,0,0,1-2.483-2.227,6.149,6.149,0,0,0-2.459-3.946c-2.068-1.471-5.362-1.775-9.532-.883a2.5,2.5,0,1,1-1.047-4.889c5.716-1.227,10.288-.628,13.583,1.774a11.071,11.071,0,0,1,4.428,7.421,2.5,2.5,0,0,1-2.238,2.737A2.39,2.39,0,0,1,216.264,187.562Z"/><path d="M24.144,118.8A5.152,5.152,0,0,1,19,113.653l0-7.785a.14.14,0,0,0-.061-.115l-6.411-4.415a5.139,5.139,0,0,1,1.329-9.121l7.4-2.4a.136.136,0,0,0,.091-.092l2.218-7.462A5.139,5.139,0,0,1,32.656,80.7L37.229,87a.1.1,0,0,0,.116.058l7.784-.2a5.184,5.184,0,0,1,4.68,2.748,5.108,5.108,0,0,1-.394,5.412h0l-4.578,6.3a.141.141,0,0,0-.019.129l2.592,7.341a5.139,5.139,0,0,1-6.436,6.6l-7.4-2.409a.143.143,0,0,0-.128.023l-6.18,4.732A5.116,5.116,0,0,1,24.144,118.8ZM28.51,83.581a.263.263,0,0,0-.036,0,.116.116,0,0,0-.111.1l-2.218,7.462A5.131,5.131,0,0,1,22.8,94.569l-7.4,2.4a.112.112,0,0,0-.1.112.116.116,0,0,0,.059.136l6.411,4.415A5.137,5.137,0,0,1,24,105.87l0,7.785a.115.115,0,0,0,.078.125.118.118,0,0,0,.147-.013l6.18-4.734a5.148,5.148,0,0,1,4.715-.807l7.4,2.409a.118.118,0,0,0,.142-.036.113.113,0,0,0,.032-.143L40.1,103.114a5.142,5.142,0,0,1,.688-4.733l4.579-6.3h0a.141.141,0,0,0-.117-.223l-7.782.2a5.1,5.1,0,0,1-4.288-2.118l-4.574-6.3A.109.109,0,0,0,28.51,83.581Zm18.883,9.974h0Z"/><path d="M51.727,223a7.489,7.489,0,0,1-7.376-6.179L25.947,114.15a2.5,2.5,0,0,1,.941-2.425l3.514-2.692a5.135,5.135,0,0,1,4.717-.806l3.892,1.266a2.5,2.5,0,0,1,1.687,1.936L59.115,214.177a7.509,7.509,0,0,1-6.058,8.706A7.643,7.643,0,0,1,51.727,223ZM31.138,114.768,49.272,215.94a2.5,2.5,0,1,0,4.921-.88h0L36.041,113.784l-2.471-.8a.142.142,0,0,0-.128.023Z"/><path d="M128,71.33a80.367,80.367,0,0,1-36.818-8.96,7.5,7.5,0,1,1,6.9-13.318,65.1,65.1,0,0,0,59.833,0,7.5,7.5,0,0,1,10.109,3.207h0a7.509,7.509,0,0,1-3.208,10.11A80.364,80.364,0,0,1,128,71.33ZM94.635,53.209a2.5,2.5,0,0,0-1.153,4.722A75.337,75.337,0,0,0,128,66.33a75.333,75.333,0,0,0,34.518-8.4,2.5,2.5,0,0,0-.4-4.6,2.475,2.475,0,0,0-1.9.162,70.113,70.113,0,0,1-64.435,0A2.491,2.491,0,0,0,94.635,53.209Z"/><path d="M108.014,256.068a8.015,8.015,0,0,1-5.3-2.012c-26.474-23.168-30.581-58.522-30.66-77.621a108.427,108.427,0,0,0-14.425-41.174,52.255,52.255,0,0,1-4.405-46.514A51.493,51.493,0,0,1,87.159,57.625c1.012-.3,2.053-.57,3.093-.845l.15-.039a2.5,2.5,0,0,1,2.442.687,2.531,2.531,0,0,0,.638.5A75.337,75.337,0,0,0,128,66.33a75.333,75.333,0,0,0,34.518-8.4,2.484,2.484,0,0,0,.669-.533,2.493,2.493,0,0,1,2.466-.716l.649.168c.641.167,1.284.333,1.91.511a51.5,51.5,0,0,1,34.133,30.9,52.257,52.257,0,0,1-4.1,46.543,108.068,108.068,0,0,0-14.156,41.264c.045,19.1-3.83,54.481-30.152,77.821a8.01,8.01,0,0,1-8.682,1.324,8.115,8.115,0,0,1-4.852-7.46l-.171-52.206a12.11,12.11,0,0,0-12.095-12.056H128.1a12.11,12.11,0,0,0-12.055,12.135l.17,52.207a8.226,8.226,0,0,1-8.2,8.236ZM90.419,61.909c-.627.167-1.249.338-1.86.517A46.522,46.522,0,0,0,57.894,90.544a47.29,47.29,0,0,0,4,42.1,111.283,111.283,0,0,1,15.155,43.426c.007.076.011.151.011.227.06,18.226,3.9,52.075,28.954,74a3.026,3.026,0,0,0,3.323.479,3.128,3.128,0,0,0,1.877-2.924l-.17-52.207A17.116,17.116,0,0,1,128.08,178.49h.054a17.115,17.115,0,0,1,17.1,17.04l.171,52.206a3.128,3.128,0,0,0,1.9,2.912,3.021,3.021,0,0,0,3.321-.5c24.909-22.086,28.528-55.96,28.469-74.187,0-.075,0-.15.01-.226a111.236,111.236,0,0,1,14.871-43.524,47.29,47.29,0,0,0,3.722-42.122A46.532,46.532,0,0,0,166.843,62.17h0c-.387-.11-.781-.216-1.178-.319a7.019,7.019,0,0,1-.847.519A80.364,80.364,0,0,1,128,71.33a80.367,80.367,0,0,1-36.818-8.96A7.094,7.094,0,0,1,90.419,61.909Z"/><path d="M128,61.332a70.005,70.005,0,0,1-32.217-7.841,2.481,2.481,0,0,0-1.435-.264,2.5,2.5,0,0,1-2.581-1.491L78.677,21.513a5.329,5.329,0,0,1,6.975-6.956l23.708,9.878a.333.333,0,0,0,.407-.129L123.488,2.492a5.332,5.332,0,0,1,9.025,0l13.72,21.814a.33.33,0,0,0,.408.129l23.707-9.878a5.331,5.331,0,0,1,7.006,6.884l-13.122,30.3a2.51,2.51,0,0,1-2.583,1.491,2.425,2.425,0,0,0-1.43.263A70.011,70.011,0,0,1,128,61.332ZM95.722,48.289a7.431,7.431,0,0,1,2.362.764,65.1,65.1,0,0,0,59.832,0,7.458,7.458,0,0,1,2.361-.764l12.458-28.762h0a.341.341,0,0,0-.464-.354h0L148.563,29.05A5.315,5.315,0,0,1,142,26.969L128.28,5.154a.332.332,0,0,0-.56,0L114,26.968a5.311,5.311,0,0,1-6.562,2.082L83.729,19.172a.3.3,0,0,0-.359.069.294.294,0,0,0-.075.358ZM171.31,16.864h0Z"/><path d="M146.506,29.463a5.318,5.318,0,0,1-4.5-2.494h0l-5.126-8.15a2.5,2.5,0,0,1,.328-3.078L147.528,5.175a5.33,5.33,0,0,1,8.822,1.9l5.1,14.018a2.5,2.5,0,0,1-1.388,3.163l-11.5,4.792A5.354,5.354,0,0,1,146.506,29.463Zm-.273-5.157a.33.33,0,0,0,.408.129l9.3-3.873L151.65,8.787a.3.3,0,0,0-.24-.21.3.3,0,0,0-.306.092l-8.947,9.156Z"/><path d="M109.5,29.464a5.338,5.338,0,0,1-2.058-.414h0l-11.5-4.792A2.5,2.5,0,0,1,94.547,21.1l5.1-14.019a5.331,5.331,0,0,1,8.822-1.9L118.8,15.74a2.5,2.5,0,0,1,.328,3.078L114,26.968A5.315,5.315,0,0,1,109.5,29.464Zm-.135-5.029a.333.333,0,0,0,.407-.129l4.076-6.481L104.9,8.669a.331.331,0,0,0-.547.118l-4.287,11.774Z"/><path d="M128,61.332a70.005,70.005,0,0,1-32.217-7.841,2.481,2.481,0,0,0-1.435-.264,2.491,2.491,0,0,1-2.581-1.491l-6.233-14.39a2.5,2.5,0,0,1,2.623-3.472,8.622,8.622,0,0,1,2.835.881,80.529,80.529,0,0,0,74.016,0h0a8.63,8.63,0,0,1,2.832-.881,2.5,2.5,0,0,1,2.626,3.471l-6.234,14.391a2.51,2.51,0,0,1-2.583,1.491,2.425,2.425,0,0,0-1.43.263A70.011,70.011,0,0,1,128,61.332ZM95.722,48.289a7.431,7.431,0,0,1,2.362.764,65.1,65.1,0,0,0,59.832,0,7.458,7.458,0,0,1,2.361-.764l3.115-7.189a85.579,85.579,0,0,1-70.784,0Z"/></svg>