<svg xmlns="http://www.w3.org/2000/svg" viewBox="0 0 256 256"><title>icon</title><path d="M169.7,56.412a41.7,41.7,0,0,0-41.686-41.7h-.034q-1.572,0-3.116.12a4.859,4.859,0,0,0-3.587,2.073c-2.034,2.882-3.78,6.086-3.78,8.594a41.7,41.7,0,0,0,1.455,10.124,1.83,1.83,0,0,1-1.41,2.267l-2.753.551a1.826,1.826,0,0,0-.55.2l-6.026,3.444a1.82,1.82,0,0,1-1.456.158c-2.05-.654-7.815-2.194-10.26.251a9.472,9.472,0,0,1-5.239,2.26,4.911,4.911,0,0,0-4.239,3.87c-.024.126-.047.254-.07.381l.01,0a41.69,41.69,0,0,0-.667,7.4V74.6a33.752,33.752,0,0,0,4.012,16.066,104.274,104.274,0,0,1,6.624,14.756,31.812,31.812,0,0,0,25.794,21.139,41.769,41.769,0,0,0,9.025.167A32.442,32.442,0,0,0,159.183,105.1a104.761,104.761,0,0,1,6.523-14.46,33.6,33.6,0,0,0,4-16.006Z" fill="#87d147"/><path d="M96.5,42.5c2.445-2.445,8.21-.905,10.26-.251a1.82,1.82,0,0,0,1.456-.158l6.026-3.444a1.826,1.826,0,0,1,.55-.2l2.753-.551a1.83,1.83,0,0,0,1.41-2.267A41.7,41.7,0,0,1,117.5,25.5c0-1.962,1.074-4.349,2.513-6.675A12.517,12.517,0,0,0,113,20.833a3.365,3.365,0,0,1-3.424.2,9.2,9.2,0,0,0-3.427-1.059A8.951,8.951,0,0,0,97.558,24.3a9.084,9.084,0,0,0-1.269,5.169,3.354,3.354,0,0,1-1.127,2.77,11,11,0,0,0-3.649,6.19,10.856,10.856,0,0,0,.55,6.2A8.944,8.944,0,0,0,96.5,42.5Z" fill="#fc657e"/><path d="M169.887,61.059c-.061,0-.122.007-.184.008l0,13.707a33.356,33.356,0,0,1-1.252,8.985,10.766,10.766,0,0,0,1.434.109,11.4,11.4,0,1,0,0-22.809Z" fill="#87d147"/><path d="M86.3,74.775V61.067c-.061,0-.121-.008-.182-.008a11.4,11.4,0,1,0,0,22.809,10.781,10.781,0,0,0,1.435-.109A33.31,33.31,0,0,1,86.3,74.775Z" fill="#87d147"/><path d="M150.978,36.268c-1.772-6.015-7.88-5.393-9.086-5.207a5,5,0,0,1-1.662-9.86c5.511-.954,16.848.379,20.34,12.244a5,5,0,1,1-9.592,2.823Z" fill="#fc657e"/><path d="M157.381,27.2a16.574,16.574,0,0,0-9.063-5.628,18.608,18.608,0,0,0-4.954,9.386,7.6,7.6,0,0,1,6.586,3.1C151.531,31.408,153.947,28.522,157.381,27.2Z" fill="#f98fa6"/><circle cx="146.25" cy="64.5" r="11.712" fill="#edf4fc"/><circle cx="108.75" cy="64.5" r="11.712" fill="#edf4fc"/><path d="M108.75,52.788A11.712,11.712,0,0,0,97.038,64.5c0,.335.023.664.05.991l23.128-3.381A11.715,11.715,0,0,0,108.75,52.788Z" fill="#b2e26d"/><path d="M146.809,95.315a36.068,36.068,0,0,1-14.5,4.532,48.133,48.133,0,0,1-10.391-.192,35.434,35.434,0,0,1-12.677-4.164.913.913,0,0,0-1.31,1.1l.027.077A20.722,20.722,0,0,0,125.47,110.4a27.007,27.007,0,0,0,3.931.082,21.064,21.064,0,0,0,18.675-13.947l.042-.117A.909.909,0,0,0,146.809,95.315Z" fill="#fc657e"/><circle cx="109.308" cy="68.856" r="4.356" fill="#ef4460"/><circle cx="146.308" cy="68.856" r="4.356" fill="#ef4460"/><path d="M211.122,246.976l-3.779-79.59a15.636,15.636,0,0,0-11.8-14.295l-27.591-6.945a30.948,30.948,0,0,1-6.131-2.255l-12.439-6.133a5.609,5.609,0,0,1-3.128-5.03v-11.1a31.679,31.679,0,0,1-14.655,5.106,41.851,41.851,0,0,1-8.81-.171,31.172,31.172,0,0,1-13.049-4.79v10.952a5.609,5.609,0,0,1-3.128,5.03l-12.439,6.133a30.934,30.934,0,0,1-6.132,2.255l-27.59,6.945a15.636,15.636,0,0,0-11.8,14.295l-3.779,79.59a6.181,6.181,0,0,0,6.171,6.524h153.9A6.181,6.181,0,0,0,211.122,246.976Z" fill="#87d147"/><path d="M211.122,246.976l-3.779-79.59a15.636,15.636,0,0,0-11.8-14.295l-27.59-6.945a30.934,30.934,0,0,1-6.132-2.255l-3.648-1.8c-5.636,6.135-20.07,18.006-41.572,8.928a4.01,4.01,0,0,0-3.186.039c-4.282,1.9-16.615,5.955-26.6-4.6l-26.362,6.636a15.636,15.636,0,0,0-11.8,14.295l-3.779,79.59a6.181,6.181,0,0,0,6.171,6.524h153.9A6.181,6.181,0,0,0,211.122,246.976Z" fill="#87d147"/><path d="M58.873,211.605l6.383-6.383a2.347,2.347,0,0,1,3.414.1l6.093,6.854a2.349,2.349,0,0,1,.593,1.56V253.5H179.6V213.737a2.353,2.353,0,0,1,.592-1.56l6.093-6.854a2.348,2.348,0,0,1,3.415-.1l6.382,6.383a2.346,2.346,0,0,0,2.787.4c2.2-1.2,6.391-3.544,10.307-5.972l-1.835-38.647a15.636,15.636,0,0,0-11.8-14.295l-27.59-6.945a30.934,30.934,0,0,1-6.132-2.255l-3.648-1.8c-5.637,6.136-20.073,18.008-41.578,8.926a3.994,3.994,0,0,0-3.174.038c-4.278,1.9-16.617,5.962-26.608-4.6l-26.362,6.636a15.636,15.636,0,0,0-11.8,14.295l-1.865,39.27c3.612,2.2,7.293,4.252,9.3,5.352A2.338,2.338,0,0,0,58.873,211.605Z" fill="#f5c84c"/><rect x="109.706" y="218.936" width="9.968" height="16.614" rx="4.984" ry="4.984" fill="#87d147"/><path d="M108.6,172.416a11.019,11.019,0,0,0-9.827,6.278,6.092,6.092,0,1,0,0,10.705,11.02,11.02,0,0,0,9.827,6.277,10.608,10.608,0,0,0,1.06-.056v8.339a5.008,5.008,0,1,0,10.016,0V184.046A11.363,11.363,0,0,0,108.6,172.416Z" fill="#87d147"/><path d="M79.372,19.738H77.106V17.472a3.071,3.071,0,1,0-6.142,0v2.266H68.7a3.071,3.071,0,1,0,0,6.142h2.265v2.267a3.071,3.071,0,0,0,6.142,0V25.88h2.266a3.071,3.071,0,0,0,0-6.142Z" fill="#f5c84c"/><path d="M200.857,124.64a10.8,10.8,0,0,1-8.654-8.479.2.2,0,0,0-.384,0,10.8,10.8,0,0,1-8.654,8.479.19.19,0,0,0,0,.376,10.794,10.794,0,0,1,8.654,8.478.2.2,0,0,0,.384,0,10.8,10.8,0,0,1,8.654-8.478A.19.19,0,0,0,200.857,124.64Z" fill="#ef4460"/><circle cx="101.019" cy="3.285" r="3.285" fill="#70d6f9"/><circle cx="178.019" cy="103.285" r="3.285" fill="#f5c84c"/><circle cx="62.019" cy="135.285" r="3.285" fill="#87d147"/><path d="M204.95,256H51.05a8.68,8.68,0,0,1-8.668-9.164l3.778-79.568a18.064,18.064,0,0,1,13.684-16.6l27.591-6.944a28.575,28.575,0,0,0,5.635-2.073l12.44-6.133a3.089,3.089,0,0,0,1.733-2.788V121.776a2.5,2.5,0,0,1,3.859-2.1,28.5,28.5,0,0,0,12,4.407,39.122,39.122,0,0,0,8.282.161,29.339,29.339,0,0,0,13.5-4.7,2.5,2.5,0,0,1,3.871,2.09v11.1a3.088,3.088,0,0,0,1.734,2.788l12.439,6.133a28.575,28.575,0,0,0,5.635,2.073l27.591,6.944a18.058,18.058,0,0,1,13.683,16.582l3.78,79.6A8.681,8.681,0,0,1,204.95,256ZM112.243,126.039v6.689A8.059,8.059,0,0,1,107.722,140l-12.441,6.134a33.537,33.537,0,0,1-6.626,2.436l-27.591,6.945a13.08,13.08,0,0,0-9.911,12.01l-3.778,79.569A3.682,3.682,0,0,0,51.05,251h153.9a3.682,3.682,0,0,0,3.676-3.885v-.021l-3.779-79.589a13.074,13.074,0,0,0-9.91-11.99l-27.591-6.945a33.537,33.537,0,0,1-6.626-2.436L148.279,140a8.058,8.058,0,0,1-4.522-7.272v-6.811a34.176,34.176,0,0,1-11.94,3.311,44.226,44.226,0,0,1-9.338-.182A33.261,33.261,0,0,1,112.243,126.039Z"/><path d="M204.95,256H51.05a8.68,8.68,0,0,1-8.668-9.164l3.778-79.568a18.064,18.064,0,0,1,13.684-16.6l26.361-6.635a2.5,2.5,0,0,1,2.427.706c8.765,9.268,19.544,5.91,23.773,4.037a6.532,6.532,0,0,1,5.171-.055c19.51,8.237,32.658-1.677,38.759-8.317a2.5,2.5,0,0,1,2.946-.551l3.649,1.8a28.575,28.575,0,0,0,5.635,2.073l27.591,6.944a18.058,18.058,0,0,1,13.683,16.582l3.78,79.6A8.681,8.681,0,0,1,204.95,256ZM86.048,149.226l-24.984,6.289a13.08,13.08,0,0,0-9.911,12.01l-3.778,79.569A3.682,3.682,0,0,0,51.05,251h153.9a3.682,3.682,0,0,0,3.676-3.885v-.021l-3.779-79.589a13.074,13.074,0,0,0-9.91-11.99l-27.591-6.945a33.537,33.537,0,0,1-6.626-2.436l-2.009-.99c-6.508,6.479-21.51,17.286-43.079,8.181a1.514,1.514,0,0,0-1.2.02C110.5,155.087,97.123,159.782,86.048,149.226Z"/><path d="M128,129.392a44.273,44.273,0,0,1-5.594-.355A34.111,34.111,0,0,1,94.573,106.25a101.114,101.114,0,0,0-6.464-14.4A36.348,36.348,0,0,1,83.8,74.6V56.417a44.326,44.326,0,0,1,.665-7.608q.011-.117.03-.234l.077-.419a7.416,7.416,0,0,1,6.349-5.871,7.062,7.062,0,0,0,3.816-1.553c3.168-3.167,9.069-2.011,12.5-.956l5.773-3.3a4.332,4.332,0,0,1,1.3-.486l2.062-.413A42.98,42.98,0,0,1,115,25.5c0-2.711,1.386-5.994,4.236-10.035a7.343,7.343,0,0,1,5.441-3.125c1.087-.083,2.181-.125,3.256-.127h.052a44.266,44.266,0,0,1,44.218,44.2h0l0,18.221a36.2,36.2,0,0,1-4.3,17.2,101.726,101.726,0,0,0-6.366,14.11,35.033,35.033,0,0,1-29.563,23.274C130.653,129.333,129.326,129.392,128,129.392ZM89.453,49.233c-.007.075-.016.15-.03.225a39.279,39.279,0,0,0-.628,6.959V74.6a31.332,31.332,0,0,0,3.711,14.876,106.013,106.013,0,0,1,6.782,15.114,29.137,29.137,0,0,0,23.753,19.491,39.254,39.254,0,0,0,8.484.157,30.019,30.019,0,0,0,25.3-19.976,106.637,106.637,0,0,1,6.679-14.809,31.191,31.191,0,0,0,3.7-14.816l0-18.22h0a39.251,39.251,0,0,0-39.186-39.2h0a27.724,27.724,0,0,0-2.96.112,2.359,2.359,0,0,0-1.735,1.022c-2.89,4.1-3.322,6.24-3.322,7.153a39.5,39.5,0,0,0,1.372,9.485,4.331,4.331,0,0,1-3.337,5.358l-2.646.529-5.933,3.39a4.334,4.334,0,0,1-3.455.369c-3.557-1.135-6.81-1.288-7.733-.363a11.866,11.866,0,0,1-6.662,2.969A2.429,2.429,0,0,0,89.479,49.1Z"/><path d="M92.062,47.123a2.5,2.5,0,0,1-2.324-1.583,13.469,13.469,0,0,1,3.805-15.211.879.879,0,0,0,.251-.717,11.593,11.593,0,0,1,1.61-6.585,11.405,11.405,0,0,1,11.013-5.537,11.671,11.671,0,0,1,4.355,1.35.9.9,0,0,0,.87-.105,14.816,14.816,0,0,1,8.414-2.41,2.5,2.5,0,0,1,2.083,3.814C120.278,23.15,120,24.79,120,25.5a39.5,39.5,0,0,0,1.372,9.485,4.331,4.331,0,0,1-3.337,5.358l-2.646.529-5.933,3.39a4.334,4.334,0,0,1-3.455.369c-3.557-1.135-6.81-1.288-7.733-.363h0a11.319,11.319,0,0,1-5.7,2.8A2.552,2.552,0,0,1,92.062,47.123ZM96.5,42.5h0Zm8.73-20.073a6.478,6.478,0,0,0-5.517,3.135,6.615,6.615,0,0,0-.928,3.754,5.881,5.881,0,0,1-2,4.822,8.5,8.5,0,0,0-2.822,4.8,8.205,8.205,0,0,0-.133,2.442,3.987,3.987,0,0,0,.905-.643c3.168-3.167,9.069-2.011,12.5-.956l5.773-3.3a4.332,4.332,0,0,1,1.3-.486l2.062-.413A42.98,42.98,0,0,1,115,25.5a10.384,10.384,0,0,1,.571-3.24,10.2,10.2,0,0,0-1.212.672,5.848,5.848,0,0,1-5.977.3,6.707,6.707,0,0,0-2.5-.769A5.934,5.934,0,0,0,105.23,22.427Z"/><path d="M133.5,87a2.5,2.5,0,0,1-2.372-1.709l-1-3a2.5,2.5,0,0,1,4.744-1.582l1,3A2.5,2.5,0,0,1,133.5,87Z"/><path d="M122.5,87a2.5,2.5,0,0,1-2.372-3.291l1-3a2.5,2.5,0,0,1,4.744,1.582l-1,3A2.5,2.5,0,0,1,122.5,87Z"/><path d="M144.392,20.073a2.538,2.538,0,0,1-.367-.027,2.5,2.5,0,0,1-2.11-2.837C143.194,8.5,152.2,4.51,152.579,4.344a2.5,2.5,0,0,1,1.992,4.586c-.115.051-6.841,3.1-7.709,9.006A2.5,2.5,0,0,1,144.392,20.073Z"/><path d="M149.406,22.682a2.5,2.5,0,0,1-2.067-3.9c5.075-7.482,15.187-6.859,15.62-6.828a2.5,2.5,0,0,1-.346,4.988c-.121,0-7.7-.415-11.135,4.647A2.5,2.5,0,0,1,149.406,22.682Z"/><path d="M138.408,18.041a2.5,2.5,0,0,1-2.494-2.368c-.381-7.16,4.8-12.862,5.017-13.1a2.5,2.5,0,0,1,3.68,3.384c-.072.08-3.97,4.448-3.7,9.452a2.5,2.5,0,0,1-2.363,2.629C138.5,18.04,138.453,18.041,138.408,18.041Z"/><path d="M179.6,256H75.355a2.5,2.5,0,0,1-2.5-2.5V213.794l-5.946-6.69-6.268,6.269h0a4.866,4.866,0,0,1-5.749.828c-1.922-1.053-5.7-3.156-9.4-5.41a2.5,2.5,0,0,1-1.2-2.253l1.864-39.27a18.064,18.064,0,0,1,13.684-16.6l26.361-6.635a2.5,2.5,0,0,1,2.427.706c8.766,9.269,19.55,5.909,23.778,4.034a6.524,6.524,0,0,1,5.161-.055c19.51,8.239,32.661-1.672,38.764-8.315a2.5,2.5,0,0,1,2.946-.55l3.649,1.8a28.575,28.575,0,0,0,5.635,2.073l27.591,6.944a18.058,18.058,0,0,1,13.683,16.582l1.836,38.667a2.5,2.5,0,0,1-1.18,2.243c-3.986,2.47-8.241,4.844-10.423,6.039a4.875,4.875,0,0,1-5.756-.823l-6.268-6.27-5.946,6.69V253.5A2.5,2.5,0,0,1,179.6,256ZM77.855,251H177.1V213.737a4.841,4.841,0,0,1,1.223-3.22l6.094-6.855a4.847,4.847,0,0,1,7.05-.208l6.3,6.3c1.931-1.059,5.4-2.994,8.839-5.082l-1.764-37.17a13.074,13.074,0,0,0-9.91-11.99l-27.591-6.945a33.537,33.537,0,0,1-6.626-2.436l-2.009-.99c-6.511,6.48-21.514,17.286-43.084,8.178a1.5,1.5,0,0,0-1.188.021c-3.933,1.742-17.312,6.44-28.39-4.117l-24.984,6.289a13.08,13.08,0,0,0-9.911,12.01l-1.792,37.761c3.119,1.864,6.138,3.546,7.826,4.471l6.3-6.3a4.846,4.846,0,0,1,7.05.207l6.093,6.855a4.837,4.837,0,0,1,1.224,3.22Zm-18.982-39.4h0Zm-1.767-1.769v0Z"/><path d="M114.69,238.05a7.492,7.492,0,0,1-7.484-7.484V223.92a7.485,7.485,0,0,1,14.969,0v6.646A7.493,7.493,0,0,1,114.69,238.05Zm0-16.614a2.486,2.486,0,0,0-2.484,2.484v6.646a2.485,2.485,0,0,0,4.969,0V223.92A2.487,2.487,0,0,0,114.69,221.436Z"/><path d="M114.666,211.468a7.517,7.517,0,0,1-7.508-7.509V198.1a13.4,13.4,0,0,1-9.474-5.656,8.591,8.591,0,1,1,0-16.792,13.349,13.349,0,0,1,10.915-5.733c7.486,0,13.576,6.338,13.576,14.129v19.913A7.517,7.517,0,0,1,114.666,211.468Zm-5.008-18.348a2.5,2.5,0,0,1,2.5,2.5v8.339a2.509,2.509,0,1,0,5.017,0V184.046a8.876,8.876,0,0,0-8.576-9.129,8.508,8.508,0,0,0-7.587,4.886,2.5,2.5,0,0,1-3.436,1.086,3.553,3.553,0,0,0-1.715-.434,3.592,3.592,0,1,0,0,7.183,3.553,3.553,0,0,0,1.715-.434,2.5,2.5,0,0,1,3.436,1.086,8.511,8.511,0,0,0,7.587,4.886,8.068,8.068,0,0,0,.812-.044C109.494,193.124,109.576,193.12,109.658,193.12Z"/><path d="M169.888,86.369a13.112,13.112,0,0,1-1.767-.132,2.5,2.5,0,0,1-2.075-3.151,30.894,30.894,0,0,0,1.159-8.312l0-13.707a2.5,2.5,0,0,1,2.46-2.5c.064,0,.144-.007.225-.007a13.9,13.9,0,0,1,0,27.809Zm2.315-22.5,0,10.908a35.294,35.294,0,0,1-.595,6.428,8.905,8.905,0,0,0,.593-17.336Z"/><path d="M86.112,86.369a13.9,13.9,0,0,1,0-27.809c.047,0,.2,0,.242.007a2.485,2.485,0,0,1,2.441,2.5V74.775a30.91,30.91,0,0,0,1.16,8.311,2.5,2.5,0,0,1-2.075,3.151A13.126,13.126,0,0,1,86.112,86.369ZM83.8,63.859a8.91,8.91,0,0,0,.6,17.343,35.22,35.22,0,0,1-.6-6.427Z"/><path d="M155.764,42.36a7.514,7.514,0,0,1-7.185-5.386c-1.122-3.811-4.781-3.677-6.305-3.442a7.5,7.5,0,0,1-2.47-14.795c6.275-1.084,19.175.447,23.164,14a7.512,7.512,0,0,1-7.2,9.621ZM143.48,28.44c3.944,0,8.332,1.813,9.9,7.122h0a2.5,2.5,0,1,0,4.795-1.411c-2.994-10.175-12.768-11.308-17.514-10.487a2.466,2.466,0,0,0-2.017,2.863,2.518,2.518,0,0,0,2.872,2.064A12.884,12.884,0,0,1,143.48,28.44Z"/><path d="M149.949,36.557a2.5,2.5,0,0,1-2.077-1.109,5.109,5.109,0,0,0-4.427-1.995c-.027,0-.054,0-.082,0a2.5,2.5,0,0,1-2.47-2.882,21.015,21.015,0,0,1,5.591-10.7,2.5,2.5,0,0,1,2.439-.726,19.105,19.105,0,0,1,10.406,6.487,2.5,2.5,0,0,1-1.047,3.9c-2.918,1.128-4.974,3.783-6.186,5.811a2.5,2.5,0,0,1-2.081,1.218Zm-3.428-7.727a9.793,9.793,0,0,1,3.055,1.365,18.525,18.525,0,0,1,3.686-3.572,14.21,14.21,0,0,0-4.11-2.2A17.117,17.117,0,0,0,146.521,28.83Z"/><path d="M146.25,78.711A14.211,14.211,0,1,1,160.462,64.5,14.227,14.227,0,0,1,146.25,78.711Zm0-23.422a9.211,9.211,0,1,0,9.212,9.211A9.222,9.222,0,0,0,146.25,55.289Z"/><path d="M108.75,78.711A14.211,14.211,0,1,1,122.962,64.5,14.227,14.227,0,0,1,108.75,78.711Zm0-23.422a9.211,9.211,0,1,0,9.212,9.211A9.222,9.222,0,0,0,108.75,55.289Z"/><path d="M97.089,67.992a2.5,2.5,0,0,1-2.49-2.285c-.036-.4-.061-.8-.061-1.207a14.212,14.212,0,0,1,28.126-2.9,2.5,2.5,0,0,1-2.087,2.981L97.45,67.965A2.437,2.437,0,0,1,97.089,67.992Zm11.661-12.7a9.228,9.228,0,0,0-9.01,7.289l17.09-2.5A9.253,9.253,0,0,0,108.75,55.289Z"/><path d="M127.994,113.017c-.924,0-1.847-.043-2.759-.13A23.219,23.219,0,0,1,105.6,97.5a3.413,3.413,0,0,1,4.849-4.2,32.86,32.86,0,0,0,11.785,3.872,45.482,45.482,0,0,0,9.849.182,33.415,33.415,0,0,0,13.494-4.219h0a3.409,3.409,0,0,1,4.892,4.12l-2.4-.724,2.356.838a23.433,23.433,0,0,1-20.9,15.605C129.021,113,128.507,113.017,127.994,113.017Zm-15.8-13.35A18.182,18.182,0,0,0,125.7,107.91a24.673,24.673,0,0,0,3.567.073A18.7,18.7,0,0,0,143.8,99.561a38.211,38.211,0,0,1-11.264,2.775,50.5,50.5,0,0,1-10.931-.2A37.652,37.652,0,0,1,112.192,99.667Zm35.845-2.174,0,0Zm-1.228-2.178h0Z"/><path d="M109.308,75.711a6.856,6.856,0,1,1,6.855-6.855A6.863,6.863,0,0,1,109.308,75.711Zm0-8.711a1.856,1.856,0,1,0,1.855,1.856A1.858,1.858,0,0,0,109.308,67Z"/><path d="M146.308,75.711a6.856,6.856,0,1,1,6.855-6.855A6.863,6.863,0,0,1,146.308,75.711Zm0-8.711a1.856,1.856,0,1,0,1.855,1.856A1.858,1.858,0,0,0,146.308,67Z"/></svg>