<?xml version="1.0" encoding="UTF-8"?>
<svg id="_20" data-name="20" xmlns="http://www.w3.org/2000/svg" xmlns:xlink="http://www.w3.org/1999/xlink" viewBox="0 0 128 128">
  <defs>
    <style>
      .cls-1 {
        fill: none;
      }

      .cls-2 {
        clip-path: url(#clippath);
      }

      .cls-3 {
        fill: #00c4f9;
      }

      .cls-4 {
        fill: #ed792b;
      }

      .cls-5 {
        fill: #fff;
      }

      .cls-6 {
        fill: #ffd300;
      }

      .cls-7 {
        fill: #ff5fff;
      }

      .cls-8 {
        fill: #a06507;
      }

      .cls-9 {
        fill: #b6fc00;
      }

      .cls-10 {
        fill: #53e8fc;
      }

      .cls-11 {
        fill: #6128dd;
      }

      .cls-12 {
        clip-path: url(#clippath-1);
      }

      .cls-13 {
        clip-path: url(#clippath-2);
      }

      .cls-14 {
        opacity: .4;
      }
    </style>
    <clipPath id="clippath">
      <rect class="cls-1" x="40" y="53" width="82" height="69"/>
    </clipPath>
    <clipPath id="clippath-1">
      <circle class="cls-1" cx="103.533" cy="97.501" r="40.5" transform="translate(-36.691 73.779) rotate(-33.679)"/>
    </clipPath>
    <clipPath id="clippath-2">
      <path class="cls-1" d="M57.033,111.001l74,22c5.72-3.82,8.85-9.83,12-16l-84-28c-.33,2.07-3.59,17.66-2,22Z"/>
    </clipPath>
  </defs>
  <g>
    <path class="cls-10" d="M56.66,32.5c0,6.9-5.6,12.5-12.5,12.5-2.89,0-5.55-.98-7.66-2.62-.28-.22-.54-.44-.8-.68-.27-.24-.53-.5-.77-.77-.52-.57-.99-1.18-1.39-1.84-1.19-1.91-1.88-4.17-1.88-6.59,0-5.96,4.17-10.94,9.75-12.2,.74-.16,1.51-.26,2.3-.29,.15-.01,.3-.01,.45-.01,.21,0,.42,.01,.63,.02,.35,.01,.7,.05,1.04,.09,6.11,.82,10.83,6.06,10.83,12.39Z"/>
    <g>
      <path class="cls-5" d="M43.71,20.01l-8.78,20.92c-.52-.57-.99-1.18-1.39-1.84l7.87-18.79c.74-.16,1.51-.26,2.3-.29Z"/>
      <path class="cls-5" d="M45.83,20.11l-9.33,22.27c-.28-.22-.54-.44-.8-.68l9.09-21.68c.35,.01,.7,.05,1.04,.09Z"/>
    </g>
    <path d="M44.157,46c-7.444,0-13.5-6.056-13.5-13.5s6.056-13.5,13.5-13.5,13.5,6.056,13.5,13.5-6.056,13.5-13.5,13.5Zm0-25c-6.341,0-11.5,5.159-11.5,11.5s5.159,11.5,11.5,11.5,11.5-5.159,11.5-11.5-5.159-11.5-11.5-11.5Z"/>
    <path class="cls-6" d="M33.283,39.573c0,6.005,4.868,10.874,10.874,10.874s10.874-4.868,10.874-10.874h-21.747Z"/>
    <path d="M44.157,51.446c-6.547,0-11.874-5.327-11.874-11.874,0-.553,.447-1,1-1h21.747c.553,0,1,.447,1,1,0,6.547-5.326,11.874-11.873,11.874Zm-9.824-10.874c.504,4.977,4.718,8.874,9.824,8.874s9.32-3.897,9.823-8.874h-19.647Z"/>
    <path class="cls-11" d="M64.083,44.333c-13.284,2.352-26.568,2.352-39.851,0-1.427-.253-2.707-.949-3.639-1.938l-2.981-3.164c-.654-.694-.162-1.833,.791-1.833h51.507c.953,0,1.445,1.139,.792,1.833l-2.981,3.164c-.932,.989-2.212,1.686-3.639,1.938Z"/>
    <g class="cls-14">
      <path d="M70.7,39.23l-2.98,3.17c-.93,.98-2.21,1.68-3.64,1.93-8.24,1.46-16.49,2.01-24.73,1.66,6.24-.06,12.49-.66,18.73-1.81,1.43-.27,2.71-.99,3.64-2.01l2.98-3.27c.42-.45,.37-1.09,.04-1.5h5.17c.95,0,1.45,1.14,.79,1.83Z"/>
    </g>
    <g class="cls-14">
      <path class="cls-5" d="M37.3,45.87c-4.35-.26-8.71-.77-13.07-1.54-1.43-.25-2.71-.95-3.64-1.93l-2.98-3.17c-.65-.69-.16-1.83,.79-1.83h5.2c-.35,.43-.41,1.14,.01,1.64l2.98,3.53c.93,1.1,2.21,1.88,3.64,2.16,2.36,.46,4.71,.85,7.07,1.14Z"/>
    </g>
    <path d="M44.159,47.084c-6.716,0-13.432-.59-20.103-1.769-.322-.057-.643-.137-.941-.229-.527-.163-.823-.723-.661-1.251,.163-.528,.719-.825,1.251-.661,.222,.068,.461,.129,.7,.172,13.109,2.317,26.399,2.319,39.501,0,1.189-.208,2.286-.788,3.088-1.634l2.978-3.166-.061-.145H18.4s-.061,.144-.061,.145l2.659,2.829c.378,.402,.358,1.035-.044,1.413-.4,.379-1.034,.36-1.413-.044l-2.659-2.829c-.579-.614-.73-1.479-.394-2.256,.335-.776,1.068-1.259,1.913-1.259h51.51c.838,0,1.592,.498,1.921,1.269,.333,.777,.176,1.641-.408,2.252l-2.975,3.163c-1.099,1.158-2.588,1.949-4.196,2.23-6.664,1.179-13.379,1.769-20.093,1.769Z"/>
    <path class="cls-7" d="M56.923,32H31.391c-1.575,0-3.028,.604-3.797,1.579l-3.01,3.819H63.73l-3.01-3.819c-.769-.975-2.221-1.579-3.796-1.579Z"/>
    <g class="cls-14">
      <path d="M63.73,37.4h-5l-3.01-3.82c-.77-.98-2.22-1.58-3.8-1.58h5c1.58,0,3.03,.6,3.8,1.58l3.01,3.82Z"/>
    </g>
    <g class="cls-14">
      <path class="cls-5" d="M36.39,32c-1.57,0-3.03,.6-3.8,1.58l-3.01,3.82h-5l3.01-3.82c.77-.98,2.23-1.58,3.8-1.58h5Z"/>
    </g>
    <path d="M63.729,38.398H24.584c-.383,0-.732-.219-.899-.563-.168-.345-.123-.755,.114-1.056l3.01-3.819c.955-1.209,2.71-1.96,4.582-1.96h25.532c1.873,0,3.629,.751,4.582,1.96l3.01,3.819c.237,.301,.282,.711,.114,1.056-.167,.345-.517,.563-.899,.563Zm-37.084-2H61.668l-1.733-2.2c-.574-.727-1.756-1.198-3.012-1.198H31.391c-1.255,0-2.437,.471-3.012,1.199l-1.733,2.199Z"/>
  </g>
  <g class="cls-2">
    <g>
      <path class="cls-9" d="M95.553,120.661c31.58,10.89,60.77,9.35,65.18-3.44,4.41-12.79-17.63-31.99-49.22-42.88-31.58-10.89-60.77-9.35-65.18,3.44-4.41,12.79,17.63,31.99,49.22,42.88Zm-42.6-40.6c2.27-6.58,25.88-9.59,56.28,.9,30.41,10.48,47.15,27.39,44.88,33.98-2.27,6.58-25.88,9.59-56.28-.9-30.41-10.48-47.15-27.39-44.88-33.98Z"/>
      <path class="cls-5" d="M111.51,74.34c-31.58-10.89-60.77-9.35-65.18,3.44-.91,2.64-.69,5.55,.5,8.6-.16-1.6,0-3.14,.5-4.6,4.41-12.79,33.6-14.33,65.18-3.44,25.07,8.64,44.12,22.52,48.72,34.27-1.25-12.46-21.74-28.62-49.72-38.27Z"/>
      <path d="M134.458,128.919c-11.666,.001-25.423-2.551-39.234-7.313-15.397-5.309-29.049-12.737-38.44-20.919-9.625-8.385-13.673-16.636-11.398-23.232,1.616-4.682,6.3-8.107,13.544-9.905,.535-.129,1.078,.193,1.212,.729,.133,.536-.193,1.079-.729,1.212-6.556,1.627-10.752,4.606-12.136,8.616-1.991,5.774,1.852,13.258,10.821,21.072,9.202,8.017,22.619,15.31,37.779,20.536,15.154,5.226,30.207,7.745,42.4,7.106,11.879-.627,19.517-4.152,21.509-9.928,4.223-12.248-17.58-30.914-48.602-41.608-14.709-5.072-29.417-7.61-41.455-7.147-.518,.026-1.017-.408-1.037-.961-.021-.552,.408-1.016,.961-1.037,12.254-.475,27.245,2.103,42.184,7.254,32.607,11.241,54.499,30.635,49.84,44.151-2.274,6.597-10.547,10.6-23.294,11.273-1.278,.067-2.588,.101-3.924,.101Zm.01-6.997c-9.837,0-22.583-1.975-36.961-6.936-31.453-10.84-47.956-28.119-45.499-35.252h0c1.337-3.877,8.257-6.353,18.51-6.625,11.408-.305,25.265,2.152,39.042,6.906,31.452,10.84,47.955,28.118,45.499,35.251-1.336,3.872-8.913,6.655-20.591,6.655ZM53.898,80.387c-1.894,5.5,13.47,22.098,44.261,32.709,30.783,10.622,53.111,7.021,55.009,1.52,1.894-5.5-13.471-22.098-44.261-32.709-13.558-4.678-27.159-7.105-38.337-6.797-10.353,.273-15.834,2.848-16.672,5.277h0Z"/>
      <circle class="cls-4" cx="103.533" cy="97.501" r="40.5" transform="translate(-12.225 180.118) rotate(-78.797)"/>
      <g class="cls-14">
        <path class="cls-5" d="M127.15,64.61c-16.77-8.63-37.87-5.09-50.82,9.75-11.56,13.25-13.32,31.7-5.89,46.5-10.55-14.91-9.96-35.63,2.58-49.99,13.86-15.87,37.37-18.34,54.13-6.26Z"/>
      </g>
      <g class="cls-12">
        <g>
          <path class="cls-7" d="M166.83,121.55l-2.63,3.02c-13.19-11.51-17.13-6.99-30.32-18.5-13.18-11.51-9.24-16.03-22.42-27.53-10.67-9.31-15.29-8.13-23.64-13.43-1.27-.81-2.63-1.76-4.11-2.93-.82-.65-1.67-1.36-2.57-2.14l2.63-3.01c1.41,1.23,2.72,2.28,3.94,3.18,1.59,1.18,3.04,2.11,4.4,2.88,7.35,4.19,12.04,3.75,21.98,12.43,13.18,11.51,9.24,16.03,22.42,27.54,13.19,11.5,17.13,6.98,30.32,18.49Z"/>
          <g class="cls-14">
            <path class="cls-5" d="M92.11,63.09c-1.46,.58-2.89,1.26-4.29,2.02-1.27-.81-2.63-1.76-4.11-2.93,1.3-.74,2.64-1.39,4-1.97,1.59,1.18,3.04,2.11,4.4,2.88Z"/>
          </g>
          <path d="M166.83,122.55c-.233,0-.468-.081-.657-.246-6.473-5.648-10.56-7.314-14.886-9.079-4.285-1.747-8.717-3.555-15.435-9.411-6.716-5.865-9.107-10.013-11.419-14.024-2.333-4.048-4.537-7.871-11.002-13.517-2.146-1.877-4.138-3.41-6.089-4.686-.463-.302-.593-.922-.29-1.384,.302-.463,.922-.591,1.384-.29,2.03,1.327,4.095,2.915,6.312,4.854,6.715,5.864,9.105,10.013,11.418,14.023,2.333,4.048,4.537,7.871,11.002,13.517,6.466,5.638,10.551,7.303,14.874,9.066,4.288,1.748,8.722,3.557,15.445,9.423,.416,.363,.459,.995,.097,1.411-.198,.227-.476,.343-.754,.343Z"/>
          <path d="M100.67,67.98c-.13,0-.261-.024-.387-.078-.583-.244-1.161-.479-1.738-.714-4.287-1.743-8.72-3.546-15.433-9.405-.416-.362-.459-.994-.096-1.41,.363-.416,.995-.459,1.41-.096,6.461,5.639,10.547,7.3,14.871,9.059,.585,.237,1.169,.475,1.759,.723,.51,.214,.749,.8,.535,1.309-.16,.383-.531,.613-.922,.613Z"/>
          <path d="M164.196,125.565c-.233,0-.468-.081-.657-.247-6.467-5.644-10.553-7.311-14.878-9.074-4.286-1.749-8.719-3.557-15.436-9.421-6.719-5.862-9.109-10.01-11.421-14.021-2.333-4.048-4.537-7.87-11.003-13.515-6.467-5.644-10.552-7.31-14.877-9.073-4.287-1.749-8.72-3.557-15.437-9.421-.416-.362-.459-.994-.096-1.41,.362-.417,.995-.459,1.41-.096,6.468,5.645,10.553,7.31,14.878,9.074,4.287,1.749,8.72,3.557,15.436,9.419,6.718,5.864,9.108,10.012,11.421,14.022,2.333,4.047,4.536,7.869,11.003,13.514,6.467,5.644,10.553,7.31,14.878,9.074,4.286,1.749,8.719,3.557,15.436,9.421,.416,.362,.459,.994,.096,1.41-.197,.226-.475,.343-.753,.343Z"/>
        </g>
        <g>
          <path class="cls-7" d="M119.33,145.56l-2.63,3.01c-12.78-10.97-16.79-6.7-29.81-18.07-12.63-11.02-9.54-15.63-20.85-26.12-.5-.45-1.02-.93-1.58-1.41-.4-.35-.8-.69-1.18-1.02-12.17-10.17-16.29-6.37-28.88-17.25l2.64-3.02c11.54,9.99,15.96,7.62,26.01,15.01,.95,.7,1.95,1.49,3.02,2.39,.33,.28,.67,.57,1.02,.87,13.19,11.51,9.24,16.03,22.43,27.54,13.02,11.36,17.03,7.1,29.81,18.07Z"/>
          <g class="cls-14">
            <path class="cls-5" d="M66.04,104.38c-.5-.45-1.02-.93-1.58-1.41-.4-.35-.8-.69-1.18-1.02-.2-1.74-.28-3.5-.23-5.26,.95,.7,1.95,1.49,3.02,2.39-.12,1.76-.13,3.53-.03,5.3Z"/>
          </g>
          <path d="M119.812,146.978c-.226,0-.452-.078-.638-.24l-.029-.025c-.145-.126-.29-.253-.441-.373-6.214-5.333-10.195-6.957-14.411-8.677-4.285-1.749-8.717-3.558-15.434-9.42-6.718-5.863-9.108-10.011-11.421-14.022-2.332-4.047-4.535-7.869-11.002-13.514-6.47-5.647-10.556-7.314-14.881-9.077-4.23-1.726-8.604-3.51-15.175-9.191l-.258-.226c-.417-.362-.461-.994-.098-1.41,.363-.418,.995-.459,1.41-.098l.256,.224c6.32,5.464,10.352,7.108,14.619,8.849,4.287,1.749,8.72,3.558,15.441,9.424,6.719,5.862,9.108,10.01,11.421,14.021,2.332,4.047,4.536,7.869,11.002,13.514,6.466,5.643,10.551,7.31,14.875,9.074,4.178,1.704,8.497,3.467,14.93,8.987,.146,.115,.313,.261,.481,.406,.416,.362,.475,1.007,.111,1.423-.2,.23-.478,.351-.758,.351Z"/>
          <path d="M117.18,149.992c-.225,0-.449-.078-.635-.24l-.033-.028c-.143-.125-.288-.251-.436-.37-6.215-5.333-10.196-6.957-14.412-8.677-4.285-1.749-8.717-3.558-15.434-9.42-6.718-5.863-9.108-10.011-11.421-14.021-2.333-4.047-4.536-7.869-11.003-13.514-6.47-5.647-10.556-7.312-14.881-9.077-4.229-1.726-8.602-3.51-15.174-9.19l-.259-.227c-.417-.362-.461-.994-.098-1.41,.363-.418,.995-.459,1.41-.098l.257,.224c6.32,5.464,10.351,7.108,14.618,8.849,4.287,1.749,8.72,3.558,15.44,9.424,6.719,5.862,9.109,10.01,11.421,14.021,2.333,4.048,4.537,7.87,11.003,13.515,6.466,5.643,10.551,7.309,14.875,9.074,4.178,1.704,8.497,3.467,14.93,8.987,.144,.113,.311,.258,.477,.403,.416,.362,.477,1.008,.114,1.425-.201,.23-.48,.352-.76,.352Z"/>
        </g>
        <g>
          <path class="cls-7" d="M98.05,110.63c-23.42-8.37-20.61-15.61-30.49-20.1-1.06-.48-2.26-.93-3.66-1.35-1.33-.39-2.85-.76-4.58-1.09-22.4-6.28-17.05-21.53-33.15-28.94,23.91,7.59,19.22,22.09,39.07,22.16,.39,.02,.76,.05,1.12,.08,1.7,.16,3.16,.5,4.45,1,9.42,3.58,9.97,15.44,27.24,28.24Z"/>
          <g class="cls-14">
            <path class="cls-5" d="M70.81,82.39c-1.38,2.62-2.47,5.35-3.25,8.14-1.06-.48-2.26-.93-3.66-1.35,.54-2.65,1.36-5.26,2.46-7.79,1.7,.16,3.16,.5,4.45,1Z"/>
          </g>
          <path d="M98.05,111.63c-.112,0-.226-.019-.336-.059-14.829-5.297-19.384-10.235-23.044-14.203-3.324-3.603-5.948-6.448-15.539-8.296-12.976-3.635-16.956-10.154-20.805-16.458-2.956-4.841-5.747-9.414-12.574-12.556-.48-.221-.705-.776-.515-1.27,.19-.492,.732-.753,1.235-.592,11.719,3.72,16.842,9.202,20.959,13.607,4.423,4.732,7.916,8.471,17.812,8.505,7.036,.342,10.612,3.314,14.116,8.002,.331,.442,.24,1.068-.202,1.399-.443,.332-1.068,.239-1.399-.202-3.315-4.435-6.301-6.895-12.567-7.2-10.715-.036-14.657-4.255-19.222-9.139-2.935-3.142-6.148-6.579-11.723-9.582,2.44,2.505,4.129,5.27,5.786,7.984,3.815,6.249,7.419,12.151,19.557,15.555,10.155,1.953,13.119,5.166,16.55,8.885,2.971,3.221,6.557,7.108,16.289,11.336-4.916-4.391-8.199-8.634-11.007-12.634-.317-.452-.208-1.075,.244-1.393,.453-.319,1.075-.207,1.393,.244,3.574,5.091,7.935,10.585,15.587,16.262,.398,.295,.52,.837,.286,1.274-.178,.333-.521,.528-.882,.528Z"/>
        </g>
        <g>
          <path class="cls-7" d="M138.196,122.418c-2.808-15.032-15.972-10.594-33.492-28.54,13.862,26.699,20.903,15.59,27.574,35.321,9.246,21.343,23.629,13.987,33.149,28.933-10.752-22.658-24.479-16.056-27.231-35.713Z"/>
          <path d="M165.431,159.13c-.332,0-.654-.165-.845-.463-4.035-6.333-8.942-8.48-14.138-10.755-6.767-2.963-13.766-6.026-19.086-18.314-3.158-9.331-6.333-11.546-10.352-14.351-4.428-3.089-9.938-6.933-17.197-20.906-.228-.44-.1-.981,.302-1.272,.4-.29,.955-.243,1.302,.112,3.064,3.146,6.198,5.806,9.581,8.135,.454,.312,.569,.936,.256,1.391-.311,.455-.933,.572-1.391,.256-1.771-1.219-3.476-2.526-5.138-3.941,5.504,9.058,9.838,12.08,13.43,14.585,4.15,2.896,7.734,5.396,11.073,15.273,4.978,11.489,11.315,14.263,18.024,17.2,2.914,1.275,5.885,2.576,8.697,4.656-3.729-5.12-7.57-7.839-11.081-10.324-5.455-3.86-10.167-7.195-11.657-17.853-1.451-7.739-5.854-9.972-12.518-13.351-2.142-1.086-4.568-2.316-7.157-3.87-.474-.284-.627-.898-.343-1.372,.284-.474,.898-.628,1.372-.343,2.527,1.517,4.921,2.73,7.032,3.802,6.935,3.517,11.946,6.058,13.586,14.811,1.379,9.849,5.554,12.804,10.84,16.545,4.92,3.482,11.042,7.815,16.311,18.921,.227,.478,.043,1.048-.419,1.304-.153,.085-.319,.125-.483,.125Z"/>
        </g>
      </g>
      <path d="M103.472,139c-10.028,.001-19.603-3.58-27.228-10.237-8.352-7.285-13.364-17.389-14.116-28.449-.751-11.061,2.85-21.751,10.14-30.101,6.376-7.3,15.157-12.165,24.726-13.7,.544-.09,1.058,.283,1.145,.829,.088,.545-.283,1.058-.829,1.145-9.107,1.461-17.466,6.093-23.536,13.041-6.938,7.947-10.365,18.122-9.65,28.649,.716,10.527,5.487,20.145,13.435,27.078,7.948,6.938,18.122,10.372,28.652,9.651,10.528-.715,20.147-5.486,27.087-13.434,14.317-16.411,12.615-41.411-3.794-55.729-6.823-5.952-15.197-9.308-24.217-9.705-.552-.024-.979-.491-.955-1.043,.024-.552,.515-.984,1.043-.955,9.477,.417,18.274,3.942,25.443,10.195,17.241,15.043,19.028,41.309,3.986,58.551-7.291,8.352-17.397,13.364-28.458,14.115-.961,.066-1.92,.098-2.874,.098Z"/>
      <g class="cls-13">
        <path class="cls-9" d="M95.553,120.661c31.58,10.89,60.77,9.35,65.18-3.44,4.41-12.79-17.63-31.99-49.22-42.88-31.58-10.89-60.77-9.35-65.18,3.44-4.41,12.79,17.63,31.99,49.22,42.88Zm-42.6-40.6c2.27-6.58,25.88-9.59,56.28,.9,30.41,10.48,47.15,27.39,44.88,33.98-2.27,6.58-25.88,9.59-56.28-.9-30.41-10.48-47.15-27.39-44.88-33.98Z"/>
        <path d="M134.461,128.92c-11.666,0-25.423-2.551-39.234-7.314-15.397-5.309-29.049-12.737-38.44-20.919-9.625-8.385-13.673-16.636-11.398-23.232s10.547-10.6,23.294-11.272c12.43-.655,27.764,1.904,43.157,7.213,15.396,5.308,29.049,12.736,38.44,20.919,9.625,8.385,13.674,16.636,11.399,23.232s-10.547,10.6-23.294,11.272c-1.278,.067-2.588,.101-3.924,.101Zm-61.847-60.839c-1.304,0-2.58,.033-3.827,.099-11.879,.627-19.518,4.152-21.509,9.928-1.991,5.774,1.852,13.258,10.821,21.072,9.202,8.017,22.619,15.31,37.779,20.536h0c15.154,5.225,30.204,7.744,42.4,7.106,11.879-.627,19.518-4.152,21.509-9.928,1.99-5.774-1.853-13.259-10.822-21.072-9.202-8.017-22.619-15.311-37.779-20.536-13.603-4.69-27.131-7.205-38.572-7.205Zm61.853,53.841c-9.837,0-22.583-1.975-36.961-6.936-31.453-10.84-47.956-28.119-45.499-35.252h0c1.337-3.877,8.257-6.353,18.51-6.625,11.408-.305,25.265,2.152,39.042,6.906,31.452,10.84,47.955,28.118,45.499,35.251-1.336,3.872-8.913,6.655-20.591,6.655ZM53.898,80.387h0c-1.894,5.5,13.47,22.098,44.261,32.709,30.783,10.622,53.111,7.021,55.009,1.52,1.894-5.5-13.471-22.098-44.261-32.709-13.558-4.678-27.159-7.105-38.337-6.797-10.352,.273-15.833,2.847-16.672,5.277Z"/>
      </g>
    </g>
  </g>
  <g>
    <path class="cls-8" d="M84.054,47.175c-.525-.171-.813-.735-.642-1.26,.767-2.36-.529-4.904-2.889-5.671-.525-.171-.813-.735-.642-1.26s.735-.813,1.26-.642c2.36,.767,4.904-.529,5.671-2.889,.171-.525,.735-.813,1.26-.642s.813,.735,.642,1.26c-.767,2.36,.529,4.904,2.889,5.671,.525,.171,.813,.735,.642,1.26s-.735,.813-1.26,.642c-2.36-.767-4.904,.529-5.671,2.889-.171,.525-.735,.813-1.26,.642Z"/>
    <path d="M84.132,43.247c-.382,0-.745-.219-.912-.589-.524-1.162-1.482-2.019-2.696-2.414-.524-.171-.812-.735-.642-1.261,.171-.524,.732-.812,1.261-.642h0c2.358,.762,4.897-.528,5.667-2.883,0-.002,.002-.004,.002-.006,.171-.524,.736-.81,1.261-.642,.525,.171,.812,.735,.642,1.261h0c-.418,1.284-.245,2.665,.476,3.788,.298,.465,.163,1.084-.302,1.382-.465,.298-1.083,.162-1.382-.302-.377-.588-.65-1.224-.818-1.883-.747,.62-1.627,1.066-2.567,1.306,.369,.443,.68,.939,.921,1.473,.227,.503,.004,1.096-.5,1.322-.133,.061-.273,.089-.41,.089Z"/>
  </g>
  <g>
    <path class="cls-3" d="M26.26,85.477c-1.66-1.458-1.831-3.976-.384-5.623,1.447-1.647,3.966-1.801,5.626-.343,1.66,1.458,1.831,3.976,.384,5.623-1.448,1.648-3.966,1.801-5.626,.343Z"/>
    <path d="M28.906,87.472c-1.19,0-2.374-.424-3.307-1.244-1.002-.88-1.604-2.096-1.695-3.423-.091-1.33,.343-2.612,1.221-3.611,1.727-1.967,4.714-2.243,6.795-.632,.436,.339,.517,.967,.179,1.403-.337,.438-.966,.517-1.403,.179-1.25-.969-3.037-.807-4.068,.37-.524,.596-.781,1.36-.728,2.154,.055,.797,.417,1.527,1.02,2.058,.938,.823,2.296,.984,3.383,.395,.485-.263,1.094-.083,1.355,.402,.264,.485,.083,1.093-.402,1.355-.734,.399-1.544,.594-2.35,.594Z"/>
  </g>
  <g>
    <path d="M114.415,44.315c-.328,0-.649-.161-.841-.457l-1.617-2.498c-.3-.463-.167-1.082,.297-1.383,.461-.299,1.083-.167,1.383,.297l1.617,2.498c.3,.463,.167,1.082-.297,1.383-.167,.108-.355,.16-.542,.16Z"/>
    <path d="M110.604,38.427c-.328,0-.649-.161-.841-.457l-1.612-2.491c-.3-.463-.167-1.082,.297-1.383,.464-.299,1.083-.167,1.383,.297l1.612,2.491c.3,.463,.167,1.082-.297,1.383-.168,.108-.355,.16-.542,.16Z"/>
    <path d="M107.507,42.835c-.328,0-.649-.161-.841-.457-.3-.464-.167-1.083,.297-1.383l2.499-1.616c.465-.301,1.083-.167,1.383,.297,.3,.464,.167,1.083-.297,1.383l-2.499,1.616c-.168,.108-.356,.16-.542,.16Z"/>
    <path d="M113.396,39.024c-.328,0-.649-.161-.841-.457-.3-.464-.167-1.082,.297-1.383l2.49-1.611c.463-.3,1.083-.167,1.383,.297,.3,.464,.167,1.082-.297,1.383l-2.49,1.611c-.168,.108-.355,.16-.542,.16Z"/>
  </g>
  <g>
    <path d="M70.63,16.82c-.245,0-.49-.089-.683-.27-.403-.377-.425-1.01-.048-1.413l6.37-6.82c.376-.403,1.011-.426,1.413-.048,.403,.377,.425,1.01,.048,1.413l-6.37,6.82c-.196,.211-.463,.317-.73,.317Z"/>
    <path d="M63,25c-.244,0-.489-.089-.683-.269-.403-.377-.426-1.01-.049-1.414l4.18-4.48c.378-.402,1.009-.425,1.414-.049,.403,.377,.426,1.01,.049,1.414l-4.18,4.48c-.197,.211-.464,.317-.731,.317Z"/>
    <path d="M64.999,29c-.48,0-.904-.347-.985-.836-.091-.544,.277-1.06,.822-1.15l12-2c.547-.098,1.061,.277,1.15,.822,.091,.544-.277,1.06-.822,1.15l-12,2c-.056,.01-.11,.014-.165,.014Z"/>
    <path d="M59,22c-.553,0-1-.447-1-1V12c0-.553,.447-1,1-1s1,.447,1,1v9c0,.553-.447,1-1,1Z"/>
  </g>
  <g>
    <path d="M16.08,15.44c-.268,0-.534-.106-.73-.317l-5.08-5.44c-.377-.403-.355-1.036,.048-1.413,.404-.378,1.037-.355,1.413,.048l5.08,5.44c.377,.403,.356,1.036-.048,1.413-.193,.181-.437,.27-.683,.27Z"/>
    <path d="M25,25c-.268,0-.534-.106-.731-.317l-5.61-6.01c-.376-.404-.354-1.037,.049-1.414,.404-.376,1.037-.356,1.414,.049l5.61,6.01c.376,.404,.354,1.037-.049,1.414-.193,.18-.437,.269-.683,.269Z"/>
    <path d="M23.001,29c-.055,0-.109-.004-.165-.014l-12-2c-.545-.091-.913-.606-.822-1.15,.09-.545,.607-.92,1.15-.822l12,2c.545,.091,.913,.606,.822,1.15-.081,.489-.505,.836-.985,.836Z"/>
    <path d="M29,22c-.553,0-1-.447-1-1V12c0-.553,.447-1,1-1s1,.447,1,1v9c0,.553-.447,1-1,1Z"/>
  </g>
</svg>