<?xml version="1.0" encoding="UTF-8"?>
<svg id="_05" data-name="05" xmlns="http://www.w3.org/2000/svg" xmlns:xlink="http://www.w3.org/1999/xlink" viewBox="0 0 128 128">
  <defs>
    <style>
      .cls-1 {
        fill: none;
      }

      .cls-2 {
        clip-path: url(#clippath);
      }

      .cls-3 {
        fill: #00c672;
      }

      .cls-4 {
        fill: #fff;
      }

      .cls-5 {
        fill: #ffd300;
      }

      .cls-6 {
        fill: #ff5fff;
      }

      .cls-7 {
        fill: #a06507;
      }

      .cls-8 {
        fill: #b6fc00;
      }

      .cls-9 {
        fill: #401799;
      }

      .cls-10 {
        fill: #9d31cb;
      }

      .cls-11 {
        fill: #6f43bc;
      }

      .cls-12 {
        fill: #542daa;
      }

      .cls-13 {
        opacity: .4;
      }

      .cls-14 {
        opacity: .6;
      }
    </style>
    <clipPath id="clippath">
      <path class="cls-1" d="M66.091,54.052c-14.778-16.877-16.861-30.428-14.499-32.497,2.362-2.069,48.63-24.433,63.408-7.556,14.778,16.877-16.248,56.646-18.611,58.715-2.362,2.069-15.52-1.785-30.298-18.662Z"/>
    </clipPath>
  </defs>
  <polygon class="cls-6" points="54 108 26 108 29.72 90 30.75 85 33.23 73 46.77 73 51.73 97 52.76 102 54 108"/>
  <path class="cls-3" d="M52.76,102h-10.76c-.552,0-1-.448-1-1v-3c0-.552,.448-1,1-1h9.73l1.03,5Z"/>
  <g class="cls-13">
    <polygon points="54 108 49 108 47.76 102 46.73 97 41.77 73 46.77 73 51.73 97 52.76 102 54 108"/>
  </g>
  <path class="cls-3" d="M41,86v3c0,.552-.448,1-1,1h-10.28l1.03-5h9.25c.552,0,1,.448,1,1Z"/>
  <g class="cls-14">
    <polygon class="cls-4" points="37.23 73 34.75 85 33.72 90 30 108 26 108 29.72 90 30.75 85 33.23 73 37.23 73"/>
  </g>
  <path d="M54,109H26c-.301,0-.585-.135-.775-.368-.189-.233-.265-.54-.204-.834l1.65-8c.111-.541,.643-.892,1.182-.777,.541,.112,.889,.641,.777,1.182l-1.402,6.798h25.545l-6.817-33h-11.91l-4.245,20.581c-.11,.541-.636,.892-1.181,.778-.541-.111-.89-.64-.778-1.181l4.41-21.381c.097-.464,.505-.797,.979-.797h13.539c.475,0,.883,.333,.98,.797l7.23,35c.061,.295-.015,.601-.204,.834-.189,.233-.475,.369-.775,.369Z"/>
  <g>
    <path class="cls-11" d="M48.298,17.794c-16.412,14.371-18.214,39.158-4.025,55.363,14.189,16.205,38.997,17.691,55.41,3.319L48.298,17.794Z"/>
    <g class="cls-13">
      <path d="M99.68,76.48c-12.65,11.08-30.29,12.73-44.21,5.48,13.71,3.52,28.95,.38,40.51-9.71l3.7,4.23Z"/>
    </g>
    <g class="cls-13">
      <path class="cls-4" d="M36.39,59h0c-4.36-14.31-.2-30.6,11.91-41.21l3.22,3.68c-8.403,8.914-11.981,20.86-10.479,32.288,.366,2.785-1.842,5.242-4.651,5.242Z"/>
    </g>
    <path d="M73.518,87.337c-11.134,.001-22.159-4.567-30-13.518-8.174-9.346-11.468-21.746-9.039-34.023,.108-.542,.636-.895,1.176-.787,.542,.107,.894,.633,.787,1.175-2.309,11.663,.819,23.442,8.581,32.317,13.589,15.512,37.27,17.16,53.238,3.875L48.215,19.211c-4.234,3.902-7.583,8.734-9.717,14.033-.207,.513-.788,.761-1.302,.554-.512-.207-.76-.789-.554-1.301,2.375-5.895,6.178-11.241,10.999-15.459,.414-.364,1.047-.323,1.41,.094l51.38,58.69c.364,.416,.322,1.047-.093,1.411-7.736,6.774-17.318,10.103-26.821,10.104Z"/>
    <path d="M40.269,54.73c-.475,0-.896-.338-.983-.822-1.371-7.573-.19-15.536,3.324-22.423,.25-.492,.851-.688,1.345-.436,.492,.251,.687,.854,.436,1.345-3.316,6.499-4.431,14.013-3.137,21.157,.098,.543-.263,1.064-.807,1.162-.06,.011-.12,.016-.179,.016Z"/>
    <ellipse class="cls-9" cx="73.991" cy="47.135" rx="15.5" ry="39" transform="translate(-12.727 60.417) rotate(-41.207)"/>
    <g class="cls-13">
      <path d="M99.68,76.48c-3.04,2.66-8.36,2.16-14.63-.83,4.33,.75,8.04,.1,10.63-2.17,4.34-3.8,4.6-11.34,1.48-20.09,5.48,10.36,6.78,19.36,2.52,23.09Z"/>
    </g>
    <path class="cls-12" d="M66.091,54.052c-14.778-16.877-16.861-30.428-14.499-32.497,2.362-2.069,15.52,1.785,30.298,18.662,14.778,16.877,16.861,30.428,14.499,32.497-2.362,2.069-15.52-1.785-30.298-18.662Z"/>
    <g class="cls-13">
      <path d="M96.39,72.71c-1.28,1.13-5.77,.5-11.98-3.03,3.75,.32,6.47-.35,7.62-1.5,1.63-1.63,2.28-6.37,.59-12.72,4.94,9.29,5.36,15.87,3.77,17.25Z"/>
    </g>
    <path d="M94.453,74.226c-2.234,0-5.41-.98-9.018-2.85-4.597-2.382-11.814-7.207-20.097-16.665-15.139-17.288-17.425-31.263-14.406-33.908,3.022-2.644,16.572,1.468,31.71,18.756,8.282,9.458,12.111,17.25,13.865,22.122,2.07,5.749,2.277,10.265,.539,11.786-.581,.51-1.469,.759-2.594,.759ZM53.436,22.033c-.584,0-.986,.101-1.186,.275-1.465,1.284-.405,13.957,14.593,31.086,8.077,9.223,15.069,13.904,19.513,16.206,5.674,2.94,8.815,2.854,9.374,2.362,.562-.491,1.063-3.591-1.102-9.604-1.696-4.708-5.413-12.258-13.488-21.481-12.956-14.795-23.991-18.844-27.702-18.844Z"/>
    <path d="M94.428,79.21c-3.07,0-6.793-1.077-10.972-3.217-7.165-3.669-14.936-10.058-21.879-17.988-14.776-16.874-20.898-34.867-13.938-40.963,6.963-6.094,23.988,2.349,38.766,19.224,6.944,7.93,12.251,16.476,14.941,24.062,2.797,7.883,2.439,13.885-1.004,16.901h0c-1.511,1.323-3.514,1.981-5.914,1.981ZM53.553,17.05c-1.87,0-3.436,.481-4.596,1.497-5.913,5.178,.556,22.644,14.124,38.141,6.781,7.744,14.342,13.968,21.287,17.525,6.568,3.364,11.912,3.915,14.655,1.511h0c2.746-2.404,2.905-7.771,.437-14.727-2.608-7.354-7.779-15.669-14.56-23.414-10.908-12.457-23.685-20.533-31.348-20.533Z"/>
    <g class="cls-2">
      <polygon class="cls-5" points="95.71 32.1 78 53.06 69.76 62.8 57.91 49.26 63.58 45.63 91.76 27.59 95.71 32.1"/>
      <g class="cls-13">
        <path d="M78,53.06l-8.24,9.74-11.85-13.54,5.67-3.63c2.5,4.01,7.01,8.52,14.42,7.43Z"/>
      </g>
      <path class="cls-4" d="M93.96,30.1l-14.341,9.186c-1.699,1.088-3.916,.901-5.409-.456h0l17.55-11.24,2.2,2.51Z"/>
      <path d="M69.76,63.8c-.288,0-.562-.124-.753-.341l-11.85-13.54c-.191-.219-.278-.511-.237-.799,.041-.288,.206-.544,.451-.702l26.66-17.07c.466-.298,1.083-.162,1.381,.303,.298,.465,.162,1.084-.303,1.381l-25.682,16.443,10.319,11.791,24.643-29.154-2.816-3.215-3.034,1.945c-.466,.297-1.085,.162-1.382-.302-.298-.465-.163-1.083,.302-1.381l3.76-2.41c.417-.266,.967-.19,1.292,.183l3.95,4.51c.326,.372,.331,.926,.012,1.304l-25.95,30.7c-.188,.223-.464,.352-.755,.354h-.009Z"/>
      <path class="cls-3" d="M99.049,31.584c-2.217,1.942-5.589,1.718-7.531-.499-1.942-2.217-1.718-5.589,.499-7.531s5.589-1.718,7.531,.499c1.942,2.218,1.718,5.589-.499,7.531Z"/>
      <g class="cls-13">
        <path d="M99.05,31.58c-2.22,1.95-5.59,1.72-7.53-.5-1.13-1.28-1.52-2.96-1.22-4.51,.16,.91,.57,1.77,1.22,2.51,1.94,2.22,5.31,2.45,7.53,.5,.94-.81,1.52-1.89,1.73-3.02,.34,1.8-.25,3.73-1.73,5.02Z"/>
      </g>
      <g class="cls-13">
        <path class="cls-4" d="M100.71,26.25c-.05-.07-.1-.14-.16-.2-1.94-2.21-5.31-2.44-7.53-.5-1.56,1.37-2.14,3.45-1.66,5.33-1.77-2.21-1.49-5.44,.66-7.33,2.22-1.94,5.59-1.71,7.53,.5,.58,.65,.96,1.41,1.16,2.2Z"/>
      </g>
      <path d="M95.543,33.906c-.143,0-.285-.005-.429-.014-1.688-.112-3.233-.875-4.348-2.148-1.115-1.274-1.668-2.905-1.557-4.594,.112-1.689,.875-3.233,2.148-4.349,2.629-2.301,6.641-2.036,8.942,.593,2.302,2.628,2.036,6.64-.592,8.942h0c-1.166,1.02-2.632,1.57-4.166,1.57Zm-.013-10.672c-1.015,0-2.032,.353-2.853,1.072-.872,.763-1.395,1.82-1.471,2.976-.077,1.156,.302,2.273,1.064,3.144,.764,.872,1.82,1.394,2.977,1.47,1.145,.072,2.271-.301,3.143-1.065h0c1.799-1.575,1.981-4.32,.406-6.12-.856-.977-2.059-1.478-3.267-1.478Zm3.519,8.35h0Z"/>
    </g>
    <path d="M94.453,74.226c-2.234,0-5.41-.98-9.018-2.85-4.597-2.382-11.814-7.207-20.097-16.665-15.139-17.288-17.425-31.263-14.406-33.908,.416-.362,1.047-.323,1.411,.094,.364,.416,.322,1.047-.093,1.411-1.466,1.284-.406,13.957,14.592,31.086,8.077,9.223,15.069,13.904,19.513,16.206,5.674,2.94,8.815,2.854,9.374,2.362,.416-.363,1.047-.323,1.411,.094,.364,.415,.322,1.047-.093,1.411-.582,.51-1.469,.759-2.595,.759Z"/>
  </g>
  <g>
    <path class="cls-8" d="M96,108h-6c-1.47-4.62-1.09-8.31,1.16-11.58,1.3-1.92,3.25-3.69,5.84-5.42-1.69,3.35-2.69,6.08-2.9,8.72-.21,2.68,.39,5.26,1.9,8.28Z"/>
    <g class="cls-13">
      <path d="M96,108h-6c-1.47-4.62-1.09-8.31,1.16-11.58,1.11,.99,2.09,2.09,2.94,3.3-.21,2.68,.39,5.26,1.9,8.28Z"/>
    </g>
    <path d="M90,109c-.424,0-.817-.272-.953-.697-2.396-7.534-.114-13.126,7.398-18.135,.378-.253,.878-.217,1.218,.084,.34,.301,.435,.794,.229,1.199-3.441,6.817-3.685,10.73-.998,16.102,.247,.494,.047,1.095-.447,1.342-.495,.247-1.094,.047-1.342-.447-2.691-5.383-2.509-9.505-.663-14.233-4.256,3.826-5.256,7.93-3.489,13.482,.167,.526-.124,1.089-.65,1.256-.101,.032-.202,.047-.303,.047Z"/>
    <path class="cls-8" d="M87,108c.72-1.77,.65-3.58-.14-5.42-1.34-3.11-4.74-6.31-9.86-9.58,4.71,.69,8.54,2.14,11.38,4.48,3.04,2.48,4.96,5.94,5.62,10.52h-7Z"/>
    <path class="cls-4" d="M88.38,97.48c-.08,1.86-.49,3.69-1.52,5.1-1.34-3.11-4.74-6.31-9.86-9.58,4.71,.69,8.54,2.14,11.38,4.48Z"/>
    <path d="M87,109c-.126,0-.253-.024-.376-.074-.512-.208-.758-.791-.551-1.303,.964-2.377,.283-4.878-2.083-7.644-.266-.313-.557-.623-.867-.933-1.622-1.668-3.859-3.416-6.661-5.204-.397-.253-.563-.75-.399-1.192,.165-.443,.621-.713,1.082-.64,2.55,.374,4.74,.937,6.697,1.721,.513,.206,.762,.788,.556,1.3-.205,.512-.788,.761-1.3,.556-.461-.185-.937-.356-1.429-.515,1.1,.87,2.061,1.729,2.878,2.57,.34,.34,.668,.69,.966,1.04,2.855,3.339,3.668,6.601,2.414,9.693-.157,.389-.532,.625-.927,.625Z"/>
    <path d="M93.999,109c-.489,0-.917-.359-.988-.857-.672-4.645-2.647-8.076-6.04-10.488-.45-.32-.556-.944-.236-1.395,.32-.45,.943-.556,1.394-.235,3.81,2.708,6.117,6.689,6.86,11.832,.079,.547-.3,1.054-.847,1.133-.048,.007-.097,.01-.144,.01Z"/>
    <path class="cls-8" d="M108,93c-9.722,1.42-15.721,6.128-17,15h7c-1.927-4.769,1.854-9.788,10-15Z"/>
    <path d="M98,109c-.396,0-.77-.236-.927-.625-1.718-4.249,.333-8.626,6.265-13.308-6.662,2.117-10.39,6.427-11.348,13.075-.079,.547-.581,.926-1.133,.847-.547-.079-.926-.586-.848-1.132,1.295-8.975,7.299-14.306,17.846-15.847,.459-.066,.916,.198,1.081,.64,.165,.441,0,.938-.397,1.192-8.005,5.122-11.238,9.759-9.612,13.783,.207,.512-.04,1.095-.552,1.302-.123,.049-.25,.073-.375,.073Z"/>
  </g>
  <path d="M108,109H20c-.553,0-1-.448-1-1s.447-1,1-1H108c.553,0,1,.448,1,1s-.447,1-1,1Z"/>
  <path d="M40,91h-10.28c-.301,0-.585-.135-.775-.368-.189-.233-.265-.539-.204-.833l1.03-5c.096-.465,.505-.798,.98-.798h9.25c1.102,0,2,.897,2,2v3c0,1.103-.898,2-2,2Zm-9.053-2h9.053v-3.002l-8.435,.002-.618,3Z"/>
  <path d="M52.76,103h-10.76c-1.103,0-2-.897-2-2v-3c0-1.103,.897-2,2-2h9.73c.475,0,.884,.334,.98,.798l1.029,5c.06,.294-.015,.601-.204,.834-.19,.233-.475,.368-.775,.368Zm-10.76-5v3h9.533l-.618-3h-8.915Z"/>
  <circle class="cls-5" cx="40" cy="73" r="8"/>
  <g class="cls-13">
    <path d="M48,73c0,4.42-3.58,8-8,8-3.01,0-5.63-1.66-6.99-4.12,1.34,.71,2.87,1.12,4.49,1.12,5.05,0,9.17-3.93,9.48-8.9,.65,1.15,1.02,2.48,1.02,3.9Z"/>
  </g>
  <path class="cls-4" d="M45.53,67.22c-.65-.14-1.33-.22-2.03-.22-5.25,0-9.5,4.25-9.5,9.5,0,.7,.08,1.38,.22,2.03-1.37-1.44-2.22-3.38-2.22-5.53,0-4.42,3.58-8,8-8,2.15,0,4.09,.85,5.53,2.22Z"/>
  <path d="M40,82c-4.963,0-9-4.038-9-9,0-1.228,.239-2.41,.71-3.513,.218-.508,.808-.741,1.312-.526,.508,.217,.744,.805,.527,1.312-.365,.853-.55,1.771-.55,2.727,0,3.86,3.141,7,7,7s7-3.14,7-7-3.141-7-7-7c-1.157,0-2.261,.276-3.277,.821-.487,.262-1.094,.077-1.354-.409-.261-.487-.077-1.093,.409-1.353,1.312-.703,2.732-1.059,4.223-1.059,4.963,0,9,4.038,9,9s-4.037,9-9,9Z"/>
  <circle class="cls-10" cx="40" cy="73" r="3"/>
  <path d="M40,77c-2.206,0-4-1.794-4-4s1.794-4,4-4,4,1.794,4,4-1.794,4-4,4Zm0-6c-1.103,0-2,.897-2,2s.897,2,2,2,2-.897,2-2-.898-2-2-2Z"/>
  <path d="M34,103h-6c-.553,0-1-.448-1-1s.447-1,1-1h6c.553,0,1,.448,1,1s-.447,1-1,1Z"/>
  <path d="M38,95h-9c-.553,0-1-.448-1-1s.447-1,1-1h9c.553,0,1,.448,1,1s-.447,1-1,1Z"/>
  <path d="M49,91h-4c-.553,0-1-.448-1-1s.447-1,1-1h4c.553,0,1,.448,1,1s-.447,1-1,1Z"/>
  <path d="M49,85h-4c-.553,0-1-.448-1-1s.447-1,1-1h4c.553,0,1,.448,1,1s-.447,1-1,1Z"/>
  <g>
    <path class="cls-7" d="M103.578,39.426c.042-.551,.522-.963,1.073-.921,2.474,.188,4.64-1.672,4.828-4.146,.042-.551,.522-.963,1.073-.921,.551,.042,.963,.522,.921,1.073-.188,2.474,1.672,4.64,4.146,4.828,.551,.042,.963,.522,.921,1.073-.042,.551-.522,.963-1.073,.921-2.474-.188-4.64,1.672-4.828,4.146-.042,.551-.522,.963-1.073,.921-.551-.042-.963-.522-.921-1.073,.188-2.474-1.672-4.64-4.146-4.828-.551-.042-.963-.522-.921-1.073Z"/>
    <path d="M111.176,42.999c-.248,0-.497-.092-.69-.277-.399-.381-.414-1.014-.033-1.414,.48-.503,1.031-.918,1.631-1.237-.383-.285-.736-.614-1.055-.985-.32-.373-.594-.775-.818-1.199-.344,.461-.75,.879-1.211,1.238-.437,.338-1.064,.261-1.403-.174-.339-.436-.261-1.064,.175-1.404,1.005-.783,1.612-1.916,1.709-3.189,.042-.551,.507-.964,1.073-.921,.551,.042,.963,.522,.921,1.073h0v.002c-.187,2.473,1.673,4.638,4.146,4.826,.551,.042,.963,.522,.921,1.073-.042,.551-.529,.961-1.072,.921-1.363-.105-2.649,.392-3.569,1.357-.197,.206-.46,.309-.724,.309Z"/>
  </g>
  <g>
    <path class="cls-3" d="M16.399,56.95c-.413-2.17,.999-4.262,3.154-4.671,2.154-.41,4.236,1.017,4.648,3.188,.413,2.17-.999,4.262-3.154,4.671-2.155,.41-4.236-1.017-4.648-3.188Z"/>
    <path d="M19.644,61.14c-.055,0-.109-.004-.165-.014-2.041-.34-3.674-1.943-4.062-3.989-.249-1.311,.023-2.641,.768-3.743,.746-1.105,1.876-1.85,3.183-2.098,2.566-.488,5.097,1.127,5.747,3.679,.137,.535-.187,1.08-.722,1.216-.536,.137-1.08-.186-1.216-.722-.391-1.531-1.897-2.502-3.437-2.208-.778,.148-1.453,.593-1.898,1.253-.446,.662-.61,1.46-.46,2.249,.233,1.227,1.208,2.188,2.426,2.391,.545,.091,.913,.606,.822,1.151-.081,.489-.505,.835-.985,.835Z"/>
  </g>
  <g>
    <path d="M18.528,90.502c-.328,0-.649-.161-.841-.457l-1.616-2.499c-.3-.463-.167-1.082,.297-1.383,.464-.299,1.083-.167,1.383,.297l1.616,2.499c.3,.463,.167,1.082-.297,1.383-.168,.108-.355,.16-.542,.16Z"/>
    <path d="M14.718,84.613c-.328,0-.649-.161-.841-.457l-1.611-2.491c-.3-.463-.167-1.083,.297-1.383,.463-.299,1.082-.167,1.383,.297l1.611,2.491c.3,.463,.167,1.083-.297,1.383-.168,.108-.355,.16-.542,.16Z"/>
    <path d="M11.621,89.022c-.328,0-.649-.161-.841-.457-.3-.463-.167-1.083,.297-1.383l2.499-1.617c.464-.299,1.083-.167,1.383,.297,.3,.463,.167,1.082-.297,1.383l-2.499,1.617c-.168,.108-.355,.16-.542,.16Z"/>
    <path d="M17.51,85.211c-.328,0-.649-.161-.841-.457-.3-.463-.167-1.083,.297-1.383l2.491-1.611c.465-.3,1.083-.166,1.383,.297,.3,.463,.167,1.083-.297,1.383l-2.491,1.611c-.168,.108-.356,.16-.542,.16Z"/>
  </g>
  <path d="M30.999,32c-.219,0-.439-.072-.624-.219l-7-5.6c-.431-.345-.501-.974-.156-1.405,.346-.43,.974-.502,1.406-.156l7,5.6c.431,.345,.501,.974,.156,1.405-.198,.247-.488,.376-.782,.376Z"/>
  <path d="M18.799,22.24c-.219,0-.439-.072-.624-.219l-7.8-6.24c-.431-.345-.501-.974-.156-1.405,.347-.431,.975-.501,1.406-.156l7.8,6.24c.431,.345,.501,.974,.156,1.405-.198,.247-.488,.376-.782,.376Z"/>
  <path d="M33.999,27c-.467,0-.885-.329-.98-.804l-3-15c-.108-.541,.243-1.068,.784-1.177,.547-.107,1.069,.244,1.177,.784l3,15c.108,.541-.243,1.068-.784,1.177-.066,.013-.133,.02-.197,.02Z"/>
  <path d="M11.999,38c-.503,0-.937-.378-.993-.89-.061-.549,.335-1.043,.884-1.104l18-2c.554-.066,1.044,.335,1.104,.883,.061,.549-.335,1.043-.884,1.104l-18,2c-.037,.004-.075,.006-.111,.006Z"/>
</svg>