<?xml version="1.0" encoding="UTF-8"?>
<svg id="_13" data-name="13" xmlns="http://www.w3.org/2000/svg" viewBox="0 0 128 128">
  <defs>
    <style>
      .cls-1 {
        fill: #00c672;
      }

      .cls-2 {
        fill: #fff;
      }

      .cls-3 {
        fill: #ffd300;
      }

      .cls-4 {
        fill: #ff5fff;
      }

      .cls-5 {
        fill: #a06507;
      }

      .cls-6 {
        fill: #b6fc00;
      }

      .cls-7 {
        fill: #d86313;
      }

      .cls-8 {
        fill: #6128dd;
      }

      .cls-9 {
        opacity: .4;
      }
    </style>
  </defs>
  <path class="cls-6" d="M27.62,82.52c-7.14,4.6-9.53,13.94-7.75,20.48,.02,.1,.05,.21,.08,.31,.49,1.68,1.53,4.03,3.67,5.69h-7.75c-.69-1.21-1.25-2.55-1.68-4-.19-.64-.35-1.31-.47-2-1.59-8.41,1.43-19.59,10.66-25.52,.5-.33,1.06-.48,1.62-.48,.98,0,1.95,.49,2.52,1.38,.9,1.39,.5,3.25-.9,4.14Z"/>
  <path class="cls-2" d="M27.5,77.41c-.04,.02-.08,.04-.12,.07-9.23,5.93-12.25,17.11-10.66,25.52,.12,.69,.28,1.36,.47,2,.43,1.45,.99,2.79,1.68,4h-3c-.69-1.21-1.25-2.55-1.68-4-.19-.64-.35-1.31-.47-2-1.59-8.41,1.43-19.59,10.66-25.52,.5-.33,1.06-.48,1.62-.48,.52,0,1.05,.14,1.5,.41Z"/>
  <path d="M23.62,110h-7.75c-.359,0-.691-.192-.869-.505-.721-1.264-1.316-2.681-1.77-4.211-.207-.697-.374-1.409-.496-2.113-.56-2.933-.56-6.156,0-9.307,.096-.544,.615-.909,1.16-.809,.544,.097,.906,.616,.809,1.16-.519,2.912-.519,5.885-.002,8.597,.112,.645,.261,1.279,.446,1.903,.351,1.182,.792,2.283,1.315,3.284h4.746c-1.181-1.496-1.847-3.134-2.219-4.411-.036-.118-.074-.262-.101-.392-.837-3.086-.776-6.736,.187-10.214,.154-.618,.36-1.256,.604-1.872,1.477-4.002,4.039-7.272,7.398-9.433,.453-.288,.762-.73,.875-1.25,.114-.522,.017-1.057-.274-1.505-.585-.914-1.882-1.181-2.75-.608-3.322,2.137-6.04,5.169-7.869,8.776-.25,.492-.85,.692-1.344,.44-.493-.25-.689-.852-.44-1.344,1.99-3.924,4.95-7.226,8.561-9.548,.63-.416,1.381-.64,2.161-.64,1.367,0,2.624,.689,3.362,1.841,.58,.896,.775,1.968,.546,3.015-.228,1.044-.85,1.935-1.752,2.508-3.774,2.428-5.677,5.943-6.608,8.464-.221,.556-.398,1.108-.538,1.665-.875,3.162-.935,6.438-.175,9.247,.029,.133,.05,.21,.071,.279,.451,1.545,1.39,3.689,3.326,5.191,.338,.262,.472,.71,.333,1.114-.139,.404-.519,.676-.946,.676Z"/>
  <path class="cls-6" d="M97.73,73.76c-8.3,2.87-10.7,9.66-11.4,13.45-.3,1.63-.39,3.28-.29,4.91,.01,.29,.03,.59,.06,.88,.01,.06,.01,.11,.02,.17,.04,.34,.08,.67,.13,1,.05,.31,.1,.63,.17,.94,.04,.2,.08,.4,.13,.61l.03,.12c.06,.24,.12,.49,.19,.73,.12,.45,.26,.9,.41,1.33,.13,.38,.27,.75,.42,1.11,.08,.2,.17,.39,.26,.59,.54,1.21,1.2,2.35,1.97,3.4,.8,1.09,1.71,2.08,2.73,2.93,.95,.79,1.44,1.92,1.44,3.07h-17.63c-.2-.23-.38-.46-.57-.7-.17-.22-.35-.46-.52-.69-.18-.24-.34-.48-.51-.73-.2-.29-.39-.59-.57-.88-.22-.35-.42-.69-.62-1.05-.35-.63-.68-1.28-.99-1.95-.04-.1-.09-.19-.13-.29-.2-.45-.38-.9-.56-1.36-.36-.93-.66-1.88-.92-2.85-.13-.49-.24-.97-.35-1.47-.07-.31-.13-.62-.18-.93-.08-.43-.14-.87-.2-1.31-.04-.29-.08-.59-.1-.89-.03-.21-.04-.41-.06-.62-.2-2.48-.08-5.01,.38-7.51,1.71-9.38,7.53-16.77,24.6-19.55,8.26-1.35,15.2-12.26,13.94-17.99-.77-3.54-5.44-5.46-13.02-5.46-1.45,0-3,.07-4.65,.22-.11,.01-.23,.01-.34,.01-2.06,0-3.81-1.57-3.99-3.66-.18-2.2,1.45-4.14,3.65-4.33,1.87-.16,3.62-.23,5.24-.23,15.83,0,19.93,7.17,20.93,11.74,2.33,10.62-8.35,23.36-19.1,27.24Z"/>
  <g class="cls-9">
    <path d="M99.07,66.22c-17.07,2.78-22.89,10.17-24.6,19.55-.46,2.5-.58,5.03-.38,7.51,.02,.21,.03,.41,.06,.62,.02,.3,.06,.6,.1,.89,.06,.44,.12,.88,.2,1.31,.05,.31,.11,.62,.18,.93,.11,.5,.22,.98,.35,1.47,.26,.97,.56,1.92,.92,2.85,.18,.46,.36,.91,.56,1.36,.04,.1,.09,.19,.13,.29,.31,.67,.64,1.32,.99,1.95,.2,.36,.4,.7,.62,1.05,.18,.29,.37,.59,.57,.88,.17,.25,.33,.49,.51,.73,.17,.23,.35,.47,.52,.69,.19,.24,.37,.47,.57,.7h-4c-.2-.23-.38-.46-.57-.7-.17-.22-.35-.46-.52-.69-.18-.24-.34-.48-.51-.73-.2-.29-.39-.59-.57-.88-.22-.35-.42-.69-.62-1.05-.35-.63-.68-1.28-.99-1.95-.04-.1-.09-.19-.13-.29-.2-.45-.38-.9-.56-1.36-.36-.93-.66-1.88-.92-2.85-.13-.49-.24-.97-.35-1.47-.07-.31-.13-.62-.18-.93-.08-.43-.14-.87-.2-1.31-.04-.29-.08-.59-.1-.89-.03-.21-.04-.41-.06-.62-.2-2.48-.08-5.01,.38-7.51,1.71-9.38,7.53-16.77,24.6-19.55,8.26-1.35,15.2-12.26,13.94-17.99-.7-3.24-4.67-5.12-11.15-5.41,.73-.03,1.44-.05,2.13-.05,7.58,0,12.25,1.92,13.02,5.46,1.26,5.73-5.68,16.64-13.94,17.99Z"/>
  </g>
  <path d="M94,110h-17.63c-.29,0-.565-.126-.755-.344-.19-.219-.362-.437-.542-.663-.002-.003-.062-.078-.064-.082-.174-.225-.358-.471-.532-.706-.151-.201-.292-.408-.437-.621l-.095-.14c-.207-.302-.406-.614-.594-.918-.227-.359-.436-.715-.644-1.09-.359-.647-.703-1.325-1.023-2.016l-.062-.14c-.03-.065-.06-.13-.088-.198-.192-.431-.378-.896-.563-1.369-.355-.917-.667-1.883-.954-2.955-.135-.505-.248-.999-.361-1.513-.074-.326-.138-.657-.19-.988-.079-.421-.142-.877-.204-1.334-.043-.31-.085-.635-.106-.958-.015-.083-.028-.238-.041-.396l-.017-.192c-.211-2.616-.079-5.231,.392-7.789,2.106-11.558,9.947-17.836,25.423-20.356,3.651-.597,7.488-3.395,10.264-7.484,2.285-3.368,3.382-6.933,2.86-9.303-.646-2.973-5.035-4.676-12.043-4.676-1.448,0-2.982,.073-4.559,.217-.14,.013-.291,.014-.431,.014-2.617,0-4.761-1.967-4.986-4.574-.225-2.749,1.821-5.175,4.56-5.412,1.807-.155,3.599-.233,5.326-.233,16.676,0,20.883,7.848,21.906,12.525,2.436,11.101-8.609,24.379-19.736,28.394-.005,.002-.009,.003-.013,.005-7.808,2.699-10.083,9.107-10.744,12.687-.279,1.518-.372,3.088-.275,4.668,.011,.305,.029,.572,.057,.84l-.979,.234,.993-.115c.044,.363,.082,.683,.131,1.002,.051,.319,.095,.598,.156,.869,.002,.009,.023,.109,.023,.118,.031,.155,.062,.316,.102,.471,.003,.013,.036,.146,.039,.158,.045,.216,.108,.44,.171,.656,.118,.44,.239,.853,.389,1.266,.13,.378,.263,.727,.404,1.067,.076,.192,.157,.371,.238,.541,.524,1.174,1.151,2.256,1.875,3.241,.772,1.054,1.636,1.98,2.563,2.753,1.144,.951,1.8,2.351,1.8,3.839,0,.553-.447,1-1,1Zm-17.161-2h15.99c-.178-.502-.488-.952-.909-1.302-1.053-.877-2.026-1.922-2.896-3.106-.807-1.101-1.506-2.307-2.076-3.585-.089-.184-.187-.405-.276-.626-.152-.366-.301-.757-.437-1.157-.164-.449-.303-.918-.43-1.394-.071-.246-.148-.522-.203-.786-.067-.267-.105-.458-.143-.645-.084-.38-.136-.7-.187-1.014-.061-.406-.103-.747-.144-1.098-.001-.009-.012-.098-.012-.105-.042-.394-.064-.706-.074-1.029-.106-1.712-.003-3.445,.306-5.123,.74-4.008,3.29-11.181,12.051-14.213,12.617-4.558,20.281-17.762,18.456-26.083-.895-4.091-4.678-10.953-19.953-10.953-1.671,0-3.405,.076-5.155,.226-1.644,.142-2.873,1.601-2.738,3.253,.135,1.561,1.422,2.741,2.993,2.741,.08-.002,.17,.001,.251-.006,1.636-.149,3.23-.225,4.739-.225,8.15,0,13.121,2.219,13.997,6.248,.644,2.931-.537,6.989-3.159,10.854-3.078,4.536-7.413,7.652-11.597,8.336-18.6,3.029-22.477,11.608-23.778,18.742-.438,2.387-.562,4.826-.366,7.251l.018,.207c.01,.116,.019,.231,.036,.351,.025,.354,.063,.629,.1,.896,.058,.427,.116,.85,.193,1.263,.051,.315,.106,.604,.172,.894,.108,.491,.214,.956,.341,1.433,.268,1.001,.559,1.9,.887,2.746,.173,.443,.347,.879,.541,1.315l.056,.125c.03,.065,.06,.13,.088,.198,.279,.6,.601,1.233,.936,1.838,.191,.343,.383,.669,.593,1.003,.175,.282,.356,.569,.547,.846l.1,.146c.127,.187,.25,.368,.386,.55,.171,.229,.346,.464,.512,.679,.092,.115,.172,.217,.248,.311Zm20.892-34.24h0Z"/>
  <ellipse class="cls-3" cx="92" cy="39" rx="9" ry="5.625"/>
  <path d="M92,45.625c-5.607,0-10-2.91-10-6.625s4.393-6.625,10-6.625,10,2.91,10,6.625-4.393,6.625-10,6.625Zm0-11.25c-4.337,0-8,2.118-8,4.625s3.663,4.625,8,4.625,8-2.118,8-4.625-3.663-4.625-8-4.625Z"/>
  <path class="cls-8" d="M99.997,40.487l-1.365,3.685c-3.609-1.859-2.721-5.209-7.072-6.82-4.698-1.74-6.087,2.011-10.776,.275s-3.3-5.487-7.979-7.22c-4.689-1.736-6.078,2.015-10.767,.279-4.314-1.597-3.487-4.895-6.966-6.76,1.267-2.442,3.124-4.463,5.355-5.908,2.751-1.786,6.066-2.702,9.503-2.453,8.017,.58,15.625,2.267,22.587,5.698,7.065,3.469,10.213,11.843,7.48,19.224Z"/>
  <g class="cls-9">
    <path class="cls-2" d="M97.88,25.71c-.73-.55-1.52-1.04-2.36-1.45-6.97-3.43-14.57-5.11-22.59-5.69-3.44-.25-6.75,.66-9.5,2.45-2.23,1.44-4.09,3.46-5.36,5.91l-.07,.07c-.69-1.12-1.38-2.23-2.93-3.07,1.27-2.45,3.13-4.47,5.36-5.91,2.75-1.79,6.06-2.7,9.5-2.45,8.02,.58,15.62,2.26,22.59,5.69,2.18,1.07,3.99,2.61,5.36,4.45Z"/>
  </g>
  <path class="cls-8" d="M98.849,43.762l.029,.228c1.031,8.024-4.267,15.511-12.177,17.193-7.272,1.55-14.867,1.367-22.686,.154-6.839-1.047-12.141-6.525-13.022-13.379-.083-.645-.125-1.285-.126-1.92,3.947,.037,4.745,3.342,9.307,2.756,4.959-.637,4.449-4.605,9.408-5.242,4.949-.636,5.459,3.331,10.418,2.694,4.959-.637,4.449-4.605,9.418-5.244,4.602-.592,5.369,2.788,9.429,2.76Z"/>
  <g class="cls-9">
    <path d="M97.3,53.05c-2.07,4.04-5.87,7.12-10.6,8.13-7.27,1.55-14.87,1.37-22.68,.16-6.84-1.05-12.15-6.53-13.03-13.38-.08-.65-.12-1.29-.12-1.92,.96,.01,1.73,.21,2.41,.5,1.43,6.1,6.43,10.83,12.74,11.8,7.81,1.21,15.41,1.39,22.68-.16,3.48-.74,6.45-2.6,8.6-5.13Z"/>
  </g>
  <path d="M98.63,45.17c-.157,0-.314-.037-.458-.111-1.92-.989-2.75-2.369-3.481-3.586-.786-1.31-1.466-2.441-3.477-3.186-2.021-.747-3.28-.332-4.736,.15-1.581,.523-3.373,1.115-6.043,.131-2.669-.993-3.642-2.609-4.499-4.035-.788-1.31-1.47-2.441-3.481-3.185-2.014-.748-3.267-.334-4.717,.148-1.58,.523-3.369,1.119-6.042,.133-2.68-.993-3.653-2.61-4.511-4.037-.665-1.106-1.24-2.061-2.584-2.78-.482-.258-.668-.856-.416-1.342,1.329-2.562,3.301-4.737,5.706-6.29,1.436-.929,2.991-1.623,4.621-2.064,.538-.146,1.082,.171,1.227,.703,.144,.533-.171,1.082-.704,1.226-1.43,.388-2.795,.998-4.058,1.815-1.857,1.199-3.422,2.822-4.567,4.727,1.244,.901,1.899,1.991,2.49,2.974,.789,1.311,1.47,2.443,3.491,3.192,2.013,.74,3.267,.326,4.719-.155,1.581-.524,3.372-1.117,6.042-.125,2.669,.986,3.642,2.604,4.5,4.029,.788,1.31,1.469,2.442,3.48,3.19,2.013,.743,3.267,.327,4.719-.154,1.583-.523,3.38-1.117,6.059-.126,2.671,.988,3.642,2.605,4.499,4.03,.501,.834,.952,1.585,1.722,2.214l.935-2.515c2.597-7.019-.405-14.751-6.984-17.984-5.254-2.585-11.046-4.265-17.708-5.136-.548-.071-.934-.573-.861-1.121,.071-.547,.569-.936,1.121-.861,6.882,.899,12.878,2.641,18.331,5.323,7.502,3.688,10.932,12.49,7.977,20.475l-1.37,3.682c-.101,.268-.31,.48-.576,.584-.117,.045-.239,.067-.361,.067Z"/>
  <path d="M75.631,63.295c-3.692,0-7.599-.323-11.769-.971-7.225-1.105-12.925-6.961-13.86-14.239-.088-.684-.133-1.371-.134-2.045,0-.267,.106-.523,.296-.712,.189-.188,.44-.273,.713-.29,2.076,.02,3.417,.836,4.601,1.557,1.307,.795,2.437,1.483,4.569,1.207,2.131-.274,3.049-1.224,4.112-2.324,1.157-1.197,2.468-2.555,5.295-2.919,2.829-.359,4.432,.619,5.851,1.485,1.309,.796,2.439,1.483,4.567,1.209,2.131-.273,3.05-1.224,4.112-2.323,1.159-1.198,2.473-2.557,5.306-2.921,2.832-.358,4.436,.618,5.856,1.483,1.118,.681,2.085,1.27,3.651,1.27h.049c.503,0,.928,.373,.992,.873l.029,.229c1.091,8.481-4.601,16.52-12.961,18.298-3.549,.756-7.289,1.134-11.278,1.134Zm-23.717-16.145c.018,.227,.042,.453,.071,.68,.823,6.399,5.831,11.547,12.182,12.519,8.432,1.309,15.734,1.262,22.326-.144,7.151-1.52,12.082-8.255,11.457-15.488-1.655-.184-2.808-.886-3.842-1.516-1.306-.795-2.439-1.482-4.561-1.207-2.138,.274-3.058,1.226-4.122,2.327-1.157,1.197-2.47,2.554-5.295,2.917-2.834,.356-4.442-.619-5.863-1.486-1.304-.795-2.423-1.485-4.557-1.208-2.131,.273-3.049,1.224-4.112,2.324-1.157,1.197-2.468,2.555-5.295,2.919-2.828,.358-4.441-.618-5.863-1.482-.825-.502-1.566-.953-2.525-1.154Z"/>
  <path class="cls-1" d="M105.289,34.317c-.632-2.999,.038-6.611-1.631-9.101-1.657-2.472-5.165-3.166-7.889-4.727-2.428-1.391-4.684-4.201-7.993-4.562l-.219-.024c1.506,2.633,.981,6.288,1.968,8.865,1.096,2.862,3.778,5.029,4.22,7.819,.475,3.002-1.414,6.074-1.713,8.992-.299,2.922,.924,6.315-.169,9.15-1.013,2.63-4.093,4.166-5.803,6.719-1.526,2.278-1.844,5.957-3.935,8.173l.233,.01c3.309,.361,6.117-1.897,8.788-2.732,2.996-.937,6.57-.858,8.721-2.915,2.166-2.072,2.291-5.743,3.554-8.535,1.234-2.728,3.932-5.181,4.262-8.204,.33-3.024-1.776-5.999-2.394-8.93Z"/>
  <g class="cls-9">
    <path d="M101.87,54.99c.21-.21,.41-.43,.58-.67-.58,2.11-1.11,4.26-2.58,5.67-2.15,2.05-5.73,1.97-8.72,2.91-2.67,.84-5.48,3.09-8.79,2.73l-.23-.01c1.26-1.33,1.87-3.2,2.5-4.97,3.19,.22,5.92-1.93,8.52-2.75,2.99-.94,6.57-.86,8.72-2.91Z"/>
  </g>
  <g class="cls-9">
    <path class="cls-2" d="M107.68,43.25c-.19,1.7-1.12,3.22-2.12,4.71,.05-.23,.09-.47,.12-.71,.33-3.03-1.77-6-2.39-8.93-.63-3,.04-6.61-1.63-9.1-1.66-2.48-5.17-3.17-7.89-4.73-1.61-.92-3.14-2.47-4.96-3.5-.2-1.77-.4-3.59-1.25-5.09l.22,.03c3.31,.36,5.56,3.17,7.99,4.56,2.72,1.56,6.23,2.25,7.89,4.73,1.67,2.49,1,6.1,1.63,9.1,.62,2.93,2.72,5.9,2.39,8.93Z"/>
  </g>
  <path d="M83.077,66.669c-.271,0-.546-.015-.825-.045l-.164-.005c-.392-.017-.737-.26-.885-.623-.147-.363-.069-.778,.2-1.064,1.051-1.111,1.629-2.758,2.187-4.351,.449-1.283,.914-2.609,1.639-3.688,.804-1.199,1.847-2.157,2.855-3.084,1.21-1.111,2.352-2.161,2.843-3.438,.581-1.501,.411-3.239,.23-5.081-.123-1.259-.25-2.561-.122-3.814,.13-1.261,.523-2.52,.904-3.736,.55-1.759,1.069-3.42,.822-4.997-.216-1.339-1.096-2.599-2.027-3.934-.795-1.14-1.618-2.318-2.139-3.684-.474-1.235-.631-2.656-.783-4.031-.184-1.663-.374-3.383-1.122-4.7-.187-.33-.172-.738,.04-1.053,.213-.315,.585-.484,.961-.433l.221,.029c2.501,.271,4.432,1.776,6.136,3.104,.769,.6,1.497,1.166,2.219,1.579,.819,.469,1.752,.871,2.655,1.262,.807,.348,1.641,.708,2.419,1.124,.487,.26,.672,.865,.411,1.353-.26,.489-.867,.671-1.353,.411-.706-.376-1.466-.704-2.27-1.052-.953-.412-1.938-.838-2.855-1.361-.846-.484-1.664-1.121-2.455-1.738-1.139-.887-2.306-1.797-3.611-2.309,.328,1.159,.462,2.374,.594,3.564,.144,1.306,.28,2.539,.663,3.536,.434,1.139,1.184,2.215,1.91,3.255,1.02,1.46,2.073,2.97,2.363,4.765,.319,2.042-.295,4.007-.89,5.907-.367,1.175-.714,2.283-.822,3.345-.108,1.052,.004,2.199,.123,3.414,.194,1.992,.395,4.054-.355,5.995-.658,1.712-2.029,2.972-3.356,4.19-.923,.848-1.876,1.724-2.548,2.725-.581,.868-.985,2.019-1.412,3.236-.395,1.128-.799,2.279-1.379,3.333,1.392-.228,2.711-.856,4-1.469,.899-.429,1.829-.871,2.752-1.161,1.012-.318,2.073-.523,3.1-.721,2.047-.395,3.981-.769,5.229-1.959,1.187-1.144,1.686-2.952,2.215-4.867,.311-1.127,.632-2.293,1.114-3.36,.5-1.101,1.203-2.138,1.884-3.14,1.087-1.602,2.113-3.114,2.293-4.758,.18-1.65-.497-3.351-1.214-5.149-.447-1.124-.91-2.287-1.16-3.465-.235-1.135-.299-2.319-.361-3.465-.033-.608-.066-1.217-.125-1.814-.055-.55,.348-1.039,.896-1.094,.577-.048,1.04,.349,1.094,.896,.062,.627,.097,1.265,.132,1.902,.06,1.121,.118,2.18,.322,3.163,.213,1.007,.624,2.04,1.061,3.135,.775,1.947,1.577,3.961,1.344,6.106-.233,2.138-1.45,3.931-2.627,5.664-.662,.976-1.288,1.898-1.717,2.841-.417,.925-.704,1.966-1.008,3.067-.576,2.091-1.173,4.253-2.759,5.78-1.677,1.599-3.994,2.046-6.234,2.478-.971,.188-1.976,.382-2.879,.666-.789,.248-1.616,.642-2.492,1.059-1.741,.828-3.689,1.756-5.881,1.756Z"/>
  <path class="cls-8" d="M58.964,71.04c-.952,.744-1.636,1.549-3.705,2.069-3.462,.866-3.887-.814-7.349,.052-3.462,.866-4.038,3.545-7.501,4.41-3.462,.866-4.804,2.025-6.405,.424-.727-2.129,1.454-2.276,4.164-4.337,2.709-2.06,4.757-1.675,7.457-3.735,2.709-2.051,1.662-3.436,4.363-5.488,1.87-1.42,2.952-1.195,4.337-1.61-4.198-3.133-10.604-3.921-16.741-1.549-8.691,3.35-13.547,11.772-10.829,18.801,2.709,7.029,11.963,10.006,20.662,6.648,7.436-2.865,12.058-9.444,11.547-15.685Z"/>
  <g class="cls-9">
    <path d="M47.42,86.72c-5.01,1.94-10.21,1.77-14.23-.07,3.44,.8,7.39,.55,11.23-.93,6.28-2.42,10.55-7.49,11.41-12.77,1.64-.52,2.27-1.24,3.13-1.91,.51,6.24-4.11,12.82-11.54,15.68Z"/>
  </g>
  <g class="cls-9">
    <path class="cls-2" d="M54.32,62.82c-.39,.12-.76,.19-1.12,.25-3.93-1.57-8.85-1.64-13.62,.21-8.69,3.35-13.54,11.77-10.83,18.8,.41,1.06,.97,2.03,1.67,2.9-1.64-1.28-2.91-2.93-3.67-4.9-2.71-7.03,2.14-15.45,10.83-18.8,6.14-2.38,12.55-1.59,16.74,1.54Z"/>
  </g>
  <path d="M40.151,89.107c-1.935,0-3.831-.285-5.618-.859-4.199-1.348-7.295-4.121-8.716-7.808s-.993-7.82,1.206-11.639c2.16-3.749,5.781-6.752,10.197-8.453,.826-.322,1.644-.584,2.43-.778,.534-.131,1.078,.194,1.211,.73,.133,.536-.194,1.078-.73,1.211-.702,.174-1.438,.409-2.187,.701-3.993,1.539-7.254,4.233-9.187,7.587-1.892,3.285-2.273,6.809-1.073,9.922,1.2,3.111,3.849,5.464,7.461,6.624,3.688,1.184,7.92,.984,11.915-.558,6.154-2.368,10.384-7.412,10.889-12.71-.597,.375-1.357,.729-2.445,1.003-1.951,.485-3.103,.244-4.119,.031-.924-.195-1.721-.36-3.231,.019-1.494,.376-2.345,1.123-3.331,1.987-1.033,.907-2.204,1.935-4.172,2.424-.845,.212-1.566,.445-2.202,.65-1.968,.635-3.524,1.137-5.157-.494-.108-.108-.191-.24-.24-.386-.764-2.249,.819-3.167,2.351-4.055,.648-.376,1.384-.803,2.161-1.392,1.479-1.125,2.762-1.578,4.001-2.017,1.145-.405,2.227-.788,3.458-1.724,1.161-.881,1.497-1.577,1.886-2.382,.438-.906,.934-1.934,2.473-3.107,.895-.676,1.648-1.027,2.315-1.238-1.843-.896-3.981-1.417-6.215-1.497-.552-.02-.983-.482-.964-1.035,.02-.551,.467-.991,1.035-.963,3.514,.125,6.839,1.232,9.363,3.118,.302,.226,.451,.602,.386,.973-.065,.372-.333,.675-.694,.785-.444,.135-.845,.209-1.232,.28-.876,.161-1.633,.301-2.786,1.171-1.155,.881-1.491,1.577-1.881,2.384-.438,.906-.934,1.934-2.477,3.104-1.478,1.124-2.761,1.577-4.001,2.016-1.145,.405-2.227,.788-3.458,1.724-.876,.666-1.704,1.146-2.368,1.531-1.455,.843-1.636,1.042-1.532,1.454,.62,.539,1.119,.441,2.96-.153,.665-.215,1.419-.458,2.331-.688,1.499-.373,2.351-1.12,3.337-1.986,1.031-.905,2.2-1.931,4.163-2.424,1.956-.493,3.11-.251,4.128-.037,.922,.193,1.718,.36,3.224-.014,1.497-.376,2.117-.892,2.835-1.488,.162-.135,.323-.269,.492-.4,.29-.225,.681-.275,1.017-.127,.336,.148,.565,.469,.595,.835,.561,6.854-4.447,13.719-12.177,16.694-2.504,.967-5.1,1.454-7.628,1.454Z"/>
  <path class="cls-1" d="M41.4,88.977c-1.948-1.535-2.191-4.603-3.571-6.418-1.453-1.91-4.326-3.01-5.172-5.218-.827-2.158,.557-4.925,.287-7.357-.25-2.25-2.258-4.588-2.05-7.063,.081-.971,.774-2.51,1.535-3.944,.521-.983-.723-1.961-1.548-1.215-1.139,1.03-2.156,2.14-3.076,2.897-2.152,1.769-5.229,2.7-6.203,4.97-1.029,2.4,.475,5.346,.583,7.946,.106,2.563-1.198,5.569-.165,7.968,1.026,2.385,4.113,3.52,5.879,5.394,1.794,1.902,2.805,5.056,5.182,6.068,2.326,.99,5.201-.451,7.912-.661,1.001-.077,2.213-.049,3.471-.091,1.148-.039,1.321-1.677,.21-1.968-1.347-.353-2.622-.795-3.273-1.308Z"/>
  <g class="cls-9">
    <path d="M44.46,92.25c-1.25,.05-2.47,.02-3.47,.09-2.71,.21-5.58,1.66-7.91,.67-2.38-1.02-3.39-4.17-5.18-6.07-1.77-1.88-4.85-3.01-5.88-5.4-.27-.63-.38-1.29-.39-1.98,1.26,2.18,4.32,3.07,6.18,4.76,1.93,1.76,3.19,4.83,5.63,5.65,2.35,.79,5.04-.79,7.68-1.24,.09,.09,.18,.17,.28,.25,.65,.51,1.93,.95,3.27,1.3,1.11,.3,.94,1.93-.21,1.97Z"/>
  </g>
  <g class="cls-9">
    <path class="cls-2" d="M32.43,58.98c-.68,1.29-1.31,2.67-1.49,3.63-2.16,.95-4.53,1.54-5.63,3.28-1.4,2.21-.38,5.35-.69,7.94-.3,2.55-2.07,5.31-1.43,7.84,.31,1.21,1.13,2.21,2.06,3.17-1.33-.94-2.63-1.9-3.23-3.3-1.03-2.4,.27-5.4,.16-7.96-.1-2.61-1.61-5.55-.58-7.95,.98-2.27,4.05-3.2,6.2-4.97,.93-.76,1.94-1.87,3.08-2.9,.83-.74,2.07,.23,1.55,1.22Z"/>
  </g>
  <path d="M34.915,94.353c-.756,0-1.502-.116-2.226-.424-1.794-.769-2.851-2.425-3.873-4.026-.541-.849-1.053-1.649-1.643-2.277-.607-.645-1.412-1.21-2.264-1.808-1.504-1.055-3.059-2.147-3.807-3.883-.757-1.765-.465-3.662-.184-5.497,.154-1.005,.3-1.954,.263-2.816-.029-.84-.226-1.735-.435-2.684-.131-.596-.262-1.193-.354-1.783-.086-.546,.287-1.058,.832-1.144,.546-.077,1.058,.287,1.143,.833,.086,.551,.21,1.108,.332,1.664,.219,.995,.445,2.023,.48,3.037,.045,1.049-.123,2.141-.285,3.196-.25,1.628-.486,3.166,.045,4.403,.523,1.215,1.784,2.1,3.119,3.036,.896,.629,1.824,1.28,2.57,2.073,.72,.764,1.307,1.684,1.874,2.572,.898,1.408,1.747,2.739,2.972,3.264,1.232,.523,2.812,.161,4.485-.223,.96-.22,1.954-.448,2.955-.525,.589-.041,1.243-.05,1.934-.059,.509-.006,1.038-.012,1.573-.033-1.767-.465-2.955-.949-3.637-1.483-1.358-1.073-1.994-2.705-2.554-4.145-.364-.935-.708-1.818-1.194-2.456-.523-.689-1.297-1.285-2.117-1.915-1.279-.983-2.602-2.001-3.192-3.556-.57-1.482-.297-3.08-.032-4.626,.182-1.063,.353-2.067,.252-2.978-.09-.817-.485-1.715-.903-2.666-.602-1.369-1.284-2.922-1.149-4.585,.091-.983,.647-2.435,1.654-4.329-.479,.427-.938,.878-1.376,1.31-.604,.594-1.175,1.154-1.738,1.614-.8,.661-1.7,1.199-2.57,1.719-.509,.304-1.012,.604-1.479,.923-.456,.309-1.079,.195-1.39-.263-.311-.456-.194-1.078,.262-1.39,.5-.341,1.037-.663,1.581-.987,.806-.481,1.639-.979,2.326-1.547,.497-.406,1.036-.936,1.606-1.496,.458-.45,.937-.921,1.44-1.376,.737-.658,1.79-.692,2.565-.086,.777,.606,.999,1.641,.541,2.514-.847,1.593-1.367,2.891-1.43,3.566-.092,1.149,.433,2.344,.988,3.608,.46,1.047,.935,2.129,1.06,3.25,.132,1.191-.072,2.384-.269,3.536-.229,1.338-.445,2.601-.071,3.575,.391,1.029,1.436,1.833,2.543,2.685,.887,.683,1.805,1.388,2.489,2.289,.656,.86,1.068,1.919,1.466,2.941,.513,1.319,.998,2.565,1.927,3.299,.254,.199,.972,.612,2.903,1.117,.992,.269,1.598,1.161,1.482,2.175-.115,1.002-.901,1.727-1.91,1.762-.549,.023-1.097,.029-1.623,.035-.649,.008-1.264,.015-1.811,.053-.846,.066-1.766,.277-2.655,.48-1.155,.266-2.334,.536-3.491,.536Z"/>
  <path class="cls-7" d="M122,109H7c0-1.66,.67-3.16,1.76-4.24,1.08-1.09,2.58-1.76,4.24-1.76H116c3.31,0,6,2.69,6,6Z"/>
  <g class="cls-9">
    <path d="M122,109h-9c0-3.31-2.69-6-6-6h9c3.31,0,6,2.69,6,6Z"/>
  </g>
  <g class="cls-9">
    <path class="cls-2" d="M22,103c-1.66,0-3.16,.67-4.24,1.76-1.09,1.08-1.76,2.58-1.76,4.24H7c0-1.66,.67-3.16,1.76-4.24,1.08-1.09,2.58-1.76,4.24-1.76h9Z"/>
  </g>
  <path d="M122,110H7c-.552,0-1-.447-1-1,0-1.879,.73-3.637,2.056-4.95,1.308-1.319,3.066-2.05,4.944-2.05H116c3.859,0,7,3.141,7,7,0,.553-.447,1-1,1Zm-113.901-2H120.899c-.465-2.279-2.484-4-4.899-4H13c-1.341,0-2.595,.52-3.53,1.464-.709,.703-1.179,1.579-1.371,2.536Z"/>
  <g>
    <path class="cls-4" d="M115.919,43h-3.919c-.667,2.333,0,4,2,5l2.7-3.375c.524-.655,.058-1.625-.781-1.625Z"/>
    <path class="cls-4" d="M117.586,55.586l-3.586-3.586c-2,2-2.667,4-2,6l5.02-.717c.816-.117,1.148-1.114,.566-1.697Z"/>
    <path class="cls-4" d="M111.146,66.293l-2.146-4.293c-2.667,1-4,2.667-4,5l5.111,.73c.799,.114,1.397-.716,1.036-1.437Z"/>
    <path class="cls-4" d="M101.761,74.33l-.761-5.33c-3.553,.152-5.673,1.691-7,4l6.42,2.408c.711,.267,1.448-.326,1.341-1.078Z"/>
    <path class="cls-4" d="M91.829,78.594l-3.829-4.594c-2.636,1.327-3.982,3.447-3,7l6.184-.773c.785-.098,1.151-1.025,.644-1.632Z"/>
    <path class="cls-4" d="M88.481,88.132l-5.481-3.132c-2.667,2.667-2.667,5.333,0,8l5.481-3.132c.672-.384,.672-1.353,0-1.737Z"/>
    <path class="cls-4" d="M68.846,95.209c-.759,.325-.819,1.378-.102,1.787l5.256,3.004c1.206-2.533,1.461-4.908,0-7l-5.154,2.209Z"/>
    <path class="cls-4" d="M69.068,82.77c-.833,.093-1.19,1.108-.597,1.701l4.529,4.529c2.636-1.327,3.982-3.447,3-7l-6.932,.77Z"/>
    <path class="cls-4" d="M77.163,70.811c-.82-.307-1.611,.513-1.274,1.321l2.326,5.577c2.975-.511,4.88-1.843,4.785-4.709l-5.837-2.189Z"/>
  </g>
  <g>
    <path d="M113.999,49c-.219,0-.439-.071-.624-.219-.431-.346-.501-.975-.156-1.406l2.7-3.375h-3.919c-.553,0-1-.447-1-1s.447-1,1-1h3.919c.775,0,1.466,.435,1.803,1.133,.336,.699,.244,1.51-.24,2.116l-2.7,3.376c-.198,.246-.488,.375-.782,.375Z"/>
    <path d="M111.999,59c-.49,0-.918-.359-.989-.858-.078-.547,.302-1.054,.849-1.132l5.02-.717-3.586-3.586c-.391-.391-.391-1.023,0-1.414,.391-.391,1.023-.391,1.414,0l3.586,3.586c.539,.539,.725,1.322,.483,2.046-.24,.723-.859,1.24-1.613,1.349l-5.021,.717c-.048,.007-.096,.01-.143,.01Z"/>
    <path d="M110.254,68.74c-.095,0-.189-.006-.284-.02l-5.111-.73c-.547-.078-.927-.585-.849-1.132,.078-.546,.587-.926,1.132-.849l5.11,.73-2.147-4.293c-.247-.494-.047-1.095,.447-1.342,.493-.245,1.094-.047,1.342,.447l2.147,4.293c.333,.668,.269,1.458-.166,2.064-.38,.527-.983,.831-1.621,.831Z"/>
    <path d="M100.777,76.474c-.237,0-.476-.043-.709-.13l-6.42-2.407c-.517-.194-.778-.771-.585-1.288,.193-.517,.77-.777,1.288-.585l6.42,2.407-.762-5.329c-.078-.547,.302-1.054,.849-1.132,.546-.078,1.054,.302,1.132,.849l.762,5.33c.1,.707-.171,1.396-.728,1.842-.363,.292-.801,.443-1.247,.443Z"/>
    <path d="M84.999,82c-.497,0-.928-.37-.991-.876-.068-.548,.32-1.048,.868-1.116l6.184-.773-3.829-4.594c-.353-.425-.296-1.056,.128-1.409,.426-.353,1.055-.296,1.409,.128l3.829,4.595c.468,.562,.592,1.335,.323,2.016-.269,.68-.887,1.159-1.612,1.249l-6.185,.773c-.042,.005-.084,.008-.125,.008Z"/>
    <path d="M83.001,94c-.348,0-.685-.181-.869-.504-.274-.479-.107-1.09,.372-1.364l5.48-3.132-5.48-3.132c-.479-.274-.646-.885-.372-1.364,.273-.479,.885-.649,1.364-.372l5.48,3.132c.631,.36,1.008,1.01,1.008,1.736s-.377,1.376-1.008,1.736l-5.48,3.132c-.156,.09-.327,.132-.495,.132Z"/>
    <path d="M73.999,101c-.168,0-.339-.042-.495-.132l-5.257-3.004c-.663-.378-1.048-1.087-1.004-1.85,.043-.763,.506-1.424,1.209-1.725l5.154-2.209c.504-.221,1.095,.016,1.312,.525,.218,.507-.017,1.095-.525,1.312l-5.154,2.209,5.257,3.004c.479,.275,.646,.885,.372,1.364-.185,.323-.521,.504-.869,.504Z"/>
    <path d="M73,90c-.256,0-.512-.098-.707-.293l-4.528-4.528c-.549-.549-.73-1.345-.474-2.076,.257-.732,.895-1.24,1.667-1.326l6.932-.771c.545-.055,1.044,.334,1.104,.884,.061,.549-.335,1.043-.884,1.104l-6.932,.771,4.528,4.528c.391,.391,.391,1.023,0,1.414-.195,.195-.451,.293-.707,.293Z"/>
    <path d="M78.215,78.709c-.392,0-.763-.231-.923-.615l-2.325-5.576c-.312-.747-.157-1.574,.405-2.158,.563-.584,1.386-.768,2.142-.484l5.836,2.189c.518,.194,.779,.771,.586,1.288-.194,.517-.774,.775-1.287,.585l-5.838-2.189,2.326,5.576c.213,.51-.028,1.095-.538,1.308-.126,.053-.256,.077-.385,.077Z"/>
  </g>
  <g>
    <path class="cls-5" d="M36.349,35.38c-.549-.06-.945-.554-.885-1.103,.271-2.467-1.515-4.694-3.981-4.965-.549-.06-.945-.554-.885-1.103,.06-.549,.554-.945,1.103-.885,2.467,.271,4.694-1.515,4.965-3.981,.06-.549,.554-.945,1.103-.885,.549,.06,.945,.554,.885,1.103-.271,2.467,1.515,4.694,3.981,4.965,.549,.06,.945,.554,.885,1.103-.06,.549-.554,.945-1.103,.885-2.467-.271-4.694,1.515-4.965,3.981-.06,.549-.554,.945-1.103,.885Z"/>
    <path d="M35.424,31.539c-.309,0-.614-.143-.81-.412-.749-1.031-1.861-1.676-3.13-1.816,0,0,0,0,0,0-.549-.06-.945-.555-.885-1.104,.06-.549,.554-.942,1.103-.885h0c1.192,.134,2.371-.21,3.308-.961,.936-.751,1.524-1.821,1.656-3.016,0-.002,0-.003,0-.005h0c.061-.549,.565-.94,1.103-.885,.549,.061,.945,.555,.885,1.103h0s0,.003,0,.005c-.146,1.341,.305,2.656,1.237,3.609,.386,.395,.379,1.027-.016,1.414-.395,.386-1.028,.379-1.414-.016-.486-.497-.883-1.061-1.181-1.672-.298,.373-.639,.716-1.02,1.021-.384,.308-.795,.568-1.226,.778,.45,.358,.853,.778,1.197,1.251,.325,.447,.226,1.072-.221,1.396-.178,.129-.383,.191-.587,.191Z"/>
  </g>
  <g>
    <path class="cls-1" d="M16.042,51.639c.176-2.202,2.091-3.846,4.277-3.671,2.186,.175,3.816,2.101,3.64,4.303-.176,2.202-2.091,3.846-4.277,3.671-2.186-.175-3.816-2.101-3.64-4.303Z"/>
    <path d="M18.326,56.573c-.141,0-.283-.029-.419-.092-1.877-.867-3.028-2.846-2.863-4.922,.22-2.748,2.625-4.807,5.353-4.589,2.611,.21,4.618,2.436,4.57,5.069-.01,.553-.512,.985-1.018,.981-.552-.01-.992-.466-.982-1.019,.029-1.578-1.17-2.913-2.73-3.038-1.627-.145-3.068,1.105-3.2,2.754-.099,1.245,.587,2.429,1.708,2.946,.501,.231,.72,.826,.488,1.327-.168,.366-.53,.581-.908,.581Z"/>
  </g>
  <g>
    <path d="M110.534,93.777c-.328,0-.649-.161-.841-.457l-1.617-2.499c-.3-.463-.167-1.082,.297-1.383,.464-.299,1.083-.167,1.383,.297l1.617,2.499c.3,.463,.167,1.082-.297,1.383-.168,.108-.355,.16-.542,.16Z"/>
    <path d="M106.724,87.888c-.328,0-.649-.161-.841-.457l-1.611-2.49c-.3-.464-.167-1.082,.297-1.383,.464-.299,1.083-.168,1.383,.297l1.611,2.49c.3,.464,.167,1.082-.297,1.383-.168,.108-.355,.16-.542,.16Z"/>
    <path d="M103.626,92.297c-.328,0-.649-.161-.841-.457-.3-.464-.167-1.083,.297-1.383l2.499-1.616c.465-.301,1.083-.167,1.383,.297s.167,1.083-.297,1.383l-2.499,1.616c-.168,.108-.357,.16-.542,.16Z"/>
    <path d="M109.516,88.486c-.328,0-.649-.161-.841-.457-.3-.464-.167-1.083,.297-1.383l2.491-1.611c.465-.301,1.083-.167,1.383,.297,.3,.464,.167,1.083-.297,1.383l-2.491,1.611c-.168,.108-.356,.16-.542,.16Z"/>
  </g>
  <path d="M114.279,16.04c-.222,0-.444-.073-.63-.224-.429-.349-.493-.978-.145-1.407l5.72-7.04c.35-.428,.978-.492,1.407-.145,.429,.349,.493,.979,.145,1.407l-5.72,7.04c-.198,.243-.486,.369-.777,.369Z"/>
  <path d="M106.999,25c-.222,0-.444-.073-.63-.224-.429-.349-.493-.979-.145-1.407l3.9-4.8c.351-.428,.978-.492,1.407-.146,.429,.349,.493,.979,.145,1.407l-3.9,4.8c-.198,.243-.486,.369-.777,.369Z"/>
  <path d="M108.999,29c-.448,0-.855-.303-.969-.758-.135-.535,.191-1.078,.727-1.212l12-3c.533-.137,1.078,.191,1.212,.727,.135,.535-.191,1.078-.727,1.212l-12,3c-.081,.021-.163,.03-.243,.03Z"/>
  <path d="M103.999,22c-.512,0-.947-.391-.995-.909l-1-11c-.05-.551,.355-1.037,.905-1.087,.565-.046,1.036,.356,1.087,.905l1,11c.05,.551-.355,1.037-.905,1.087-.031,.003-.061,.004-.092,.004Z"/>
</svg>