<?xml version="1.0" encoding="UTF-8"?>
<svg id="_04" data-name="04" xmlns="http://www.w3.org/2000/svg" viewBox="0 0 128 128">
  <defs>
    <style>
      .cls-1 {
        fill: #00c672;
      }

      .cls-2 {
        fill: #fff;
      }

      .cls-3 {
        fill: #ffd300;
      }

      .cls-4 {
        fill: #ff5fff;
      }

      .cls-5 {
        fill: #a06507;
      }

      .cls-6 {
        fill: #ca32ce;
      }

      .cls-7 {
        fill: #099354;
      }

      .cls-8 {
        fill: #6f43bc;
      }

      .cls-9 {
        fill: #53e8fc;
      }

      .cls-10 {
        opacity: .4;
      }

      .cls-11 {
        opacity: .6;
      }

      .cls-12 {
        opacity: .7;
      }
    </style>
  </defs>
  <rect class="cls-6" x="19" y="89" width="90" height="19"/>
  <g class="cls-10">
    <path d="M109,108H52c0-2.761,2.239-5,5-5h52v5Z"/>
  </g>
  <g class="cls-11">
    <path class="cls-2" d="M57,89h0c0,2.761-2.239,5-5,5H19v-5H57Z"/>
  </g>
  <path d="M108,109H20c-.553,0-1-.448-1-1s.447-1,1-1H108c.553,0,1,.448,1,1s-.447,1-1,1Z"/>
  <path d="M108,90H33.86c-.553,0-1-.448-1-1s.447-1,1-1H108c.553,0,1,.448,1,1s-.447,1-1,1Z"/>
  <path d="M28.71,90h-8.71c-.553,0-1-.448-1-1s.447-1,1-1h8.71c.553,0,1,.448,1,1s-.447,1-1,1Z"/>
  <path class="cls-8" d="M64,74h0c-1.105,0-2,.895-2,2v16c0,1.105,.895,2,2,2h0c1.105,0,2-.895,2-2v-16c0-1.105-.895-2-2-2Z"/>
  <path d="M64,95c-1.654,0-3-1.346-3-3v-16c0-1.654,1.346-3,3-3s3,1.346,3,3v16c0,1.654-1.346,3-3,3Zm0-20c-.552,0-1,.449-1,1v16c0,.551,.448,1,1,1s1-.449,1-1v-16c0-.551-.448-1-1-1Z"/>
  <path class="cls-8" d="M35.5,97.258h0c-.957-.552-1.284-1.775-.732-2.732l11-19.053c.552-.957,1.775-1.284,2.732-.732h0c.957,.552,1.284,1.775,.732,2.732l-11,19.053c-.552,.957-1.775,1.284-2.732,.732Z"/>
  <path d="M36.495,98.525c-.509,0-1.023-.129-1.495-.401-1.433-.827-1.925-2.665-1.099-4.098l11-19.053c.828-1.432,2.666-1.923,4.099-1.098,1.433,.827,1.925,2.665,1.099,4.098l-11,19.053c-.556,.961-1.566,1.499-2.603,1.499Zm11.007-23.051c-.347,0-.684,.179-.868,.5l-11,19.052c-.275,.478-.111,1.09,.366,1.366,.479,.277,1.092,.111,1.366-.366l11-19.052c.275-.477,.111-1.09-.366-1.366-.157-.091-.329-.134-.498-.134Z"/>
  <path class="cls-8" d="M92.5,97.258h0c.957-.552,1.284-1.775,.732-2.732l-11-19.053c-.552-.957-1.775-1.284-2.732-.732h0c-.957,.552-1.284,1.775-.732,2.732l11,19.053c.552,.957,1.775,1.284,2.732,.732Z"/>
  <path d="M91.505,98.525c-1.037,0-2.048-.538-2.603-1.499l-11-19.053c-.826-1.433-.334-3.271,1.099-4.098,1.434-.825,3.271-.334,4.099,1.098l11,19.053c.826,1.433,.334,3.271-1.099,4.098-.472,.272-.986,.401-1.495,.401Zm-11.007-23.051c-.169,0-.341,.043-.498,.134-.478,.275-.642,.888-.366,1.366l11,19.052c.274,.476,.886,.643,1.366,.366,.477-.275,.642-.888,.366-1.366l-11-19.052c-.185-.32-.521-.499-.868-.499Z"/>
  <path class="cls-3" d="M39.5,100h-6c-1.381,0-2.5-1.119-2.5-2.5h0c0-1.381,1.119-2.5,2.5-2.5h6c1.381,0,2.5,1.119,2.5,2.5h0c0,1.381-1.119,2.5-2.5,2.5Z"/>
  <path d="M39.5,101h-6c-1.93,0-3.5-1.57-3.5-3.5s1.57-3.5,3.5-3.5h6c1.93,0,3.5,1.57,3.5,3.5s-1.57,3.5-3.5,3.5Zm-6-5c-.827,0-1.5,.673-1.5,1.5s.673,1.5,1.5,1.5h6c.827,0,1.5-.673,1.5-1.5s-.673-1.5-1.5-1.5h-6Z"/>
  <path class="cls-3" d="M94.5,100h-6c-1.381,0-2.5-1.119-2.5-2.5h0c0-1.381,1.119-2.5,2.5-2.5h6c1.381,0,2.5,1.119,2.5,2.5h0c0,1.381-1.119,2.5-2.5,2.5Z"/>
  <path d="M94.5,101h-6c-1.93,0-3.5-1.57-3.5-3.5s1.57-3.5,3.5-3.5h6c1.93,0,3.5,1.57,3.5,3.5s-1.57,3.5-3.5,3.5Zm-6-5c-.827,0-1.5,.673-1.5,1.5s.673,1.5,1.5,1.5h6c.827,0,1.5-.673,1.5-1.5s-.673-1.5-1.5-1.5h-6Z"/>
  <path class="cls-3" d="M67.5,98h-7c-1.381,0-2.5-1.119-2.5-2.5h0c0-1.381,1.119-2.5,2.5-2.5h7c1.381,0,2.5,1.119,2.5,2.5h0c0,1.381-1.119,2.5-2.5,2.5Z"/>
  <path d="M67.5,99h-7c-1.93,0-3.5-1.57-3.5-3.5s1.57-3.5,3.5-3.5h7c1.93,0,3.5,1.57,3.5,3.5s-1.57,3.5-3.5,3.5Zm-7-5c-.827,0-1.5,.673-1.5,1.5s.673,1.5,1.5,1.5h7c.827,0,1.5-.673,1.5-1.5s-.673-1.5-1.5-1.5h-7Z"/>
  <g>
    <path class="cls-3" d="M40,66c0,9.62,10.745,17.419,24,17.419s24-7.799,24-17.419H40Z"/>
    <g class="cls-10">
      <path d="M88,66c0,9.62-10.75,17.42-24,17.42-1.02,0-2.02-.05-3-.14,11.84-1.07,21-8.4,21-17.28h6Z"/>
    </g>
    <path class="cls-2" d="M68,83.18c-1.3,.16-2.64,.24-4,.24-13.25,0-24-7.8-24-17.42h8c0,8.63,8.65,15.79,20,17.18Z"/>
    <path d="M64,84.42c-1.82,0-3.624-.142-5.359-.423-.546-.088-.916-.602-.828-1.147,.088-.545,.602-.916,1.147-.828,1.631,.264,3.327,.397,5.041,.397,12.212,0,22.231-6.83,22.958-15.42H41.044c.514,5.903,5.544,11.259,13.108,13.833,.522,.178,.803,.746,.624,1.269-.178,.522-.74,.804-1.269,.624-8.813-2.999-14.508-9.565-14.508-16.727,0-.552,.447-1,1-1h48c.553,0,1,.448,1,1,0,10.157-11.215,18.42-25,18.42Z"/>
    <path class="cls-1" d="M95.919,74.593c-21.279,3.767-42.559,3.767-63.838,0-2.286-.405-4.336-1.521-5.829-3.105l-4.775-5.069c-1.047-1.111-.259-2.936,1.268-2.936H105.255c1.527,0,2.315,1.825,1.268,2.936l-4.775,5.069c-1.492,1.584-3.543,2.7-5.829,3.105Z"/>
    <g class="cls-10">
      <path class="cls-2" d="M28.48,69.94l4.53,4.81c-.31-.05-.62-.11-.93-.16-2.28-.4-4.34-1.52-5.83-3.1l-4.77-5.07c-1.05-1.11-.26-2.94,1.27-2.94H59c0,1.944-1.576,3.52-3.52,3.52H29.75c-1.53,0-2.32,1.82-1.27,2.94Z"/>
    </g>
    <g class="cls-10">
      <path d="M106.52,66.42l-4.77,5.07c-1.49,1.58-3.55,2.7-5.83,3.1-15.58,2.76-31.17,3.5-46.75,2.22,12.91,.49,25.83-.41,38.75-2.7,2.28-.41,4.34-1.52,5.83-3.11l4.77-5.06c.72-.76,.58-1.85-.07-2.46h6.8c1.53,0,2.32,1.83,1.27,2.94Z"/>
    </g>
    <path d="M64,78.405c-10.723,0-21.445-.942-32.094-2.827-2.458-.436-4.725-1.644-6.382-3.404l-4.774-5.069c-.763-.809-.963-1.946-.522-2.967,.44-1.021,1.405-1.655,2.517-1.655H105.255c1.111,0,2.076,.634,2.517,1.655,.441,1.021,.241,2.158-.521,2.967l-4.774,5.069c-1.657,1.76-3.924,2.968-6.382,3.404h0c-10.648,1.885-21.371,2.827-32.094,2.827Zm-41.255-13.921c-.439,0-.622,.313-.681,.448-.059,.135-.161,.483,.141,.803l4.774,5.069c1.365,1.448,3.238,2.445,5.276,2.805,21.062,3.729,42.424,3.73,63.488,0,2.038-.36,3.911-1.357,5.276-2.805l4.774-5.069c.302-.32,.199-.668,.141-.803-.058-.135-.241-.448-.681-.448H22.745Zm73.174,10.109h0Z"/>
    <path class="cls-8" d="M87.481,57H40.519c-2.898,0-5.569,.726-6.983,1.897l-5.536,4.586H100l-5.536-4.586c-1.414-1.172-4.085-1.897-6.983-1.897Z"/>
    <g class="cls-10">
      <path class="cls-2" d="M49.52,57c-2.9,0-5.57,.73-6.98,1.9l-5.54,4.58h-9l5.54-4.58c1.41-1.17,4.08-1.9,6.98-1.9h9Z"/>
    </g>
    <g class="cls-10">
      <path d="M100,63.48h-8l-5.54-4.58c-1.41-1.17-4.08-1.9-6.98-1.9h8c2.9,0,5.57,.73,6.98,1.9l5.54,4.58Z"/>
    </g>
    <path d="M100,64.48H28c-.422,0-.798-.265-.94-.661-.144-.396-.022-.84,.303-1.109l4.36-3.61c.425-.352,1.055-.292,1.408,.133,.351,.425,.293,1.056-.133,1.408l-2.222,1.839H97.221l-3.397-2.81c-1.225-1.015-3.713-1.67-6.343-1.67H40.519c-1.145,0-2.226,.113-3.209,.335-.537,.12-1.073-.216-1.196-.755-.121-.539,.217-1.074,.755-1.196,1.129-.255,2.356-.384,3.65-.384h46.961c3.162,0,6.01,.796,7.618,2.13l5.538,4.579c.325,.269,.447,.712,.305,1.109-.143,.397-.519,.662-.941,.662Z"/>
    <g>
      <circle class="cls-3" cx="34" cy="69" r="3"/>
      <circle class="cls-3" cx="49.25" cy="69" r="3"/>
      <circle class="cls-3" cx="64.5" cy="69" r="3"/>
      <circle class="cls-3" cx="79.75" cy="69" r="3"/>
      <circle class="cls-3" cx="95" cy="69" r="3"/>
    </g>
    <g>
      <path d="M34,73c-2.206,0-4-1.794-4-4s1.794-4,4-4,4,1.794,4,4-1.794,4-4,4Zm0-6c-1.103,0-2,.897-2,2s.897,2,2,2,2-.897,2-2-.898-2-2-2Z"/>
      <path d="M49.25,73c-2.206,0-4-1.794-4-4s1.794-4,4-4,4,1.794,4,4-1.794,4-4,4Zm0-6c-1.103,0-2,.897-2,2s.897,2,2,2,2-.897,2-2-.898-2-2-2Z"/>
      <path d="M64.5,73c-2.206,0-4-1.794-4-4s1.794-4,4-4,4,1.794,4,4-1.794,4-4,4Zm0-6c-1.103,0-2,.897-2,2s.897,2,2,2,2-.897,2-2-.898-2-2-2Z"/>
      <path d="M79.75,73c-2.206,0-4-1.794-4-4s1.794-4,4-4,4,1.794,4,4-1.794,4-4,4Zm0-6c-1.103,0-2,.897-2,2s.897,2,2,2,2-.897,2-2-.898-2-2-2Z"/>
      <path d="M95,73c-2.206,0-4-1.794-4-4s1.794-4,4-4,4,1.794,4,4-1.794,4-4,4Zm0-6c-1.103,0-2,.897-2,2s.897,2,2,2,2-.897,2-2-.898-2-2-2Z"/>
    </g>
    <path class="cls-9" d="M88,57H40l3.04-18.24c1.2-7.17,5.9-13.01,12.17-15.85,1.19-.55,2.43-.98,3.72-1.3,.39-.09,.78-.18,1.17-.25,.74-.14,1.5-.24,2.26-.29,.54-.05,1.09-.07,1.64-.07,5.2,0,10.01,1.88,13.74,5.04,3.72,3.16,6.36,7.6,7.22,12.72l3.04,18.24Z"/>
    <g class="cls-10">
      <path d="M88,57h-4l-3.04-18.24c-.86-5.12-3.5-9.56-7.22-12.72-3.25-2.75-7.31-4.53-11.74-4.94,.66-.07,1.33-.1,2-.1,5.2,0,10.01,1.88,13.74,5.04,3.72,3.16,6.36,7.6,7.22,12.72l3.04,18.24Z"/>
    </g>
    <g>
      <path class="cls-7" d="M56.588,51h14.823c1.98,0,3.588,1.608,3.588,3.588v2.412h-22v-2.412c0-1.98,1.608-3.588,3.588-3.588Z"/>
      <path d="M75,58h-22c-.553,0-1-.448-1-1v-2.412c0-2.53,2.059-4.588,4.588-4.588h14.824c2.529,0,4.588,2.058,4.588,4.588v2.412c0,.552-.447,1-1,1Zm-21-2h20v-1.412c0-1.427-1.161-2.588-2.588-2.588h-14.824c-1.427,0-2.588,1.161-2.588,2.588v1.412Z"/>
      <path class="cls-1" d="M64,53.814h0c-4.019,0-7.534-2.707-8.56-6.593l-2.141-8.106c-1.483-5.616,2.752-11.115,8.56-11.115h4.283c5.809,0,10.044,5.499,8.56,11.115l-2.141,8.106c-1.026,3.886-4.541,6.593-8.56,6.593Z"/>
      <path d="M64,54.814c-4.469,0-8.387-3.017-9.527-7.337l-2.141-8.106c-.787-2.979-.161-6.087,1.719-8.529,1.881-2.441,4.726-3.842,7.808-3.842h4.283c3.082,0,5.927,1.4,7.808,3.842,1.88,2.441,2.506,5.55,1.719,8.529l-2.141,8.106c-1.141,4.32-5.058,7.337-9.527,7.337Zm-2.142-25.814c-2.456,0-4.725,1.116-6.223,3.062-1.498,1.946-1.998,4.423-1.37,6.798l2.141,8.106c.909,3.443,4.032,5.848,7.594,5.848s6.685-2.405,7.594-5.848l2.141-8.106c.628-2.375,.128-4.852-1.37-6.798-1.498-1.946-3.767-3.062-6.223-3.062h-4.283Z"/>
      <g>
        <path class="cls-4" d="M65.561,38.145c-.266-.215-.257-.629,.014-.838,1.447-1.112,5.81-4.158,6.765-1.212,.952,3.893-4.678,3.75-6.779,2.05Z"/>
        <path class="cls-4" d="M62.439,38.145c.266-.215,.257-.629-.014-.838-1.447-1.112-5.81-4.158-6.765-1.212-.952,3.893,4.678,3.75,6.779,2.05Z"/>
      </g>
      <g>
        <path d="M69.25,40.277c-1.612,0-3.305-.535-4.317-1.354-.365-.295-.571-.735-.565-1.208,.006-.475,.225-.912,.6-1.2,1.938-1.49,4.657-3.135,6.595-2.538,.58,.18,1.351,.64,1.731,1.811,.41,1.664-.067,3.022-1.29,3.797-.761,.482-1.74,.693-2.752,.693Zm-2.532-2.573c1.218,.623,3.198,.836,4.213,.191,.331-.21,.68-.577,.438-1.562-.119-.36-.309-.419-.4-.447-.739-.23-2.406,.49-4.251,1.817Zm-.527-.336h.002s-.002,0-.002,0Z"/>
        <path d="M58.75,40.277c-1.012,0-1.991-.211-2.752-.693-1.223-.775-1.7-2.133-1.311-3.726,.4-1.242,1.171-1.702,1.751-1.882,1.943-.599,4.658,1.049,6.595,2.539,.375,.288,.594,.725,.6,1.2,.006,.473-.2,.913-.565,1.208h0c-1.013,.82-2.706,1.354-4.317,1.354Zm-1.402-4.433c-.119,0-.225,.014-.316,.042-.092,.028-.281,.087-.421,.518-.221,.914,.128,1.281,.459,1.491,1.014,.643,2.996,.431,4.213-.191-1.616-1.162-3.095-1.859-3.934-1.859Zm4.462,1.524s0,0-.002,.001h.002Z"/>
      </g>
      <path d="M65,44h-2c-.553,0-1-.448-1-1s.447-1,1-1h2c.553,0,1,.448,1,1s-.447,1-1,1Z"/>
      <path d="M64,50c-1.327,0-2.606-.808-3.8-2.4-.332-.442-.242-1.069,.2-1.4,.44-.333,1.068-.241,1.399,.2,.548,.73,1.374,1.6,2.2,1.6s1.652-.87,2.2-1.6c.331-.442,.958-.532,1.399-.2,.442,.331,.532,.958,.2,1.4-1.194,1.592-2.473,2.4-3.8,2.4Z"/>
    </g>
    <g class="cls-12">
      <path class="cls-2" d="M58.93,21.61l-13.76,35.39h-3.22l13.26-34.09c1.19-.55,2.43-.98,3.72-1.3Z"/>
      <path class="cls-2" d="M62.36,21.07l-13.98,35.93h-2.14l13.86-35.64c.74-.14,1.5-.24,2.26-.29Z"/>
    </g>
    <path d="M88,58H40c-.294,0-.573-.129-.763-.354-.19-.225-.272-.521-.224-.811l3.041-18.245c1.795-10.772,11.024-18.59,21.945-18.59s20.15,7.818,21.945,18.59l3.041,18.245c.049,.29-.033,.587-.224,.811-.189,.224-.469,.354-.763,.354Zm-46.819-2h45.639l-2.847-17.081c-1.634-9.804-10.033-16.919-19.973-16.919s-18.339,7.116-19.973,16.919l-2.847,17.081Z"/>
  </g>
  <path d="M55,104h-20c-.553,0-1-.448-1-1s.447-1,1-1h20c.553,0,1,.448,1,1s-.447,1-1,1Z"/>
  <path d="M28,94h-8c-.553,0-1-.448-1-1s.447-1,1-1h8c.553,0,1,.448,1,1s-.447,1-1,1Z"/>
  <path d="M81,102h-12c-.553,0-1-.448-1-1s.447-1,1-1h12c.553,0,1,.448,1,1s-.447,1-1,1Z"/>
  <path d="M50,95h-5c-.553,0-1-.448-1-1s.447-1,1-1h5c.553,0,1,.448,1,1s-.447,1-1,1Z"/>
  <path d="M27,101h-5c-.553,0-1-.448-1-1s.447-1,1-1h5c.553,0,1,.448,1,1s-.447,1-1,1Z"/>
  <path d="M103,105h-5c-.553,0-1-.448-1-1s.447-1,1-1h5c.553,0,1,.448,1,1s-.447,1-1,1Z"/>
  <path d="M81,95h-5c-.553,0-1-.448-1-1s.447-1,1-1h5c.553,0,1,.448,1,1s-.447,1-1,1Z"/>
  <path d="M106,98h-5c-.553,0-1-.448-1-1s.447-1,1-1h5c.553,0,1,.448,1,1s-.447,1-1,1Z"/>
  <g>
    <path class="cls-5" d="M33.88,15.48c-.12-.54-.66-.88-1.2-.76-2.42,.55-4.83-.97-5.38-3.39-.13-.53-.66-.87-1.2-.75s-.88,.66-.75,1.2c.55,2.42-.98,4.83-3.4,5.38-.53,.12-.87,.66-.75,1.2s.66,.87,1.2,.75c2.42-.55,4.83,.97,5.38,3.39,.13,.54,.66,.88,1.2,.76,.54-.13,.88-.66,.75-1.2-.55-2.42,.97-4.84,3.39-5.38,.54-.13,.88-.66,.76-1.2Z"/>
    <path d="M26.52,19.985c-.197,0-.397-.059-.571-.18-1.046-.73-2.309-.978-3.552-.693h0c-.539,.122-1.075-.215-1.197-.753-.122-.539,.216-1.074,.754-1.197,.002,0,.004,0,.006-.001,1.171-.267,2.167-.974,2.807-1.988,.639-1.015,.845-2.219,.579-3.391,0-.001,0-.003,0-.004-.122-.539,.216-1.074,.754-1.197,.534-.125,1.074,.215,1.197,.753,0,.002,0,.004,0,.005,.3,1.315,1.156,2.41,2.349,3.006,.494,.247,.694,.848,.447,1.341-.247,.494-.848,.694-1.342,.448-.622-.311-1.181-.715-1.662-1.194-.159,.45-.37,.885-.63,1.298-.262,.416-.565,.796-.905,1.136,.543,.192,1.061,.457,1.54,.792,.453,.316,.563,.939,.248,1.393-.195,.278-.506,.427-.821,.427Z"/>
  </g>
  <g>
    <path class="cls-1" d="M103.273,14.014c2.193-.267,4.186,1.281,4.451,3.458,.265,2.177-1.297,4.159-3.49,4.426-2.193,.267-4.186-1.281-4.451-3.458s1.297-4.159,3.49-4.426Z"/>
    <path d="M104.48,22.857c-.473,0-.894-.336-.982-.818-.101-.543,.259-1.065,.802-1.166,1.553-.287,2.62-1.728,2.432-3.281-.198-1.627-1.699-2.791-3.338-2.586-1.239,.151-2.263,1.06-2.546,2.262-.128,.537-.667,.872-1.203,.743-.538-.127-.871-.666-.744-1.203,.476-2.013,2.185-3.535,4.251-3.787,2.746-.329,5.233,1.609,5.564,4.329,.317,2.6-1.463,5.011-4.053,5.49-.061,.011-.122,.017-.183,.017Z"/>
  </g>
  <g>
    <path d="M70.534,17.777c-.328,0-.649-.161-.841-.456l-1.617-2.499c-.3-.464-.167-1.083,.297-1.383,.464-.301,1.083-.168,1.383,.296l1.617,2.499c.3,.464,.167,1.083-.297,1.383-.168,.109-.355,.161-.542,.161Z"/>
    <path d="M66.724,11.888c-.328,0-.649-.161-.841-.457l-1.611-2.491c-.3-.463-.167-1.083,.297-1.383,.464-.298,1.083-.168,1.383,.297l1.611,2.491c.3,.463,.167,1.083-.297,1.383-.168,.108-.355,.16-.542,.16Z"/>
    <path d="M63.626,16.297c-.328,0-.649-.161-.841-.457-.3-.463-.167-1.082,.297-1.383l2.499-1.617c.463-.299,1.082-.167,1.383,.297,.3,.463,.167,1.082-.297,1.383l-2.499,1.617c-.168,.108-.356,.16-.542,.16Z"/>
    <path d="M69.516,12.486c-.328,0-.649-.161-.841-.457-.3-.463-.167-1.083,.297-1.383l2.491-1.611c.465-.301,1.083-.167,1.383,.297,.3,.463,.167,1.083-.297,1.383l-2.491,1.611c-.168,.108-.356,.16-.542,.16Z"/>
  </g>
  <g>
    <path d="M108.499,43.17c-.223,0-.446-.074-.632-.226-.428-.35-.491-.979-.142-1.407l7.5-9.17c.351-.427,.98-.491,1.407-.141,.428,.35,.491,.98,.142,1.407l-7.5,9.17c-.198,.242-.485,.367-.775,.367Z"/>
    <path d="M97.999,56c-.223,0-.446-.074-.633-.226-.427-.35-.49-.98-.14-1.407l5.59-6.83c.349-.428,.978-.491,1.407-.141,.427,.35,.49,.98,.14,1.407l-5.59,6.83c-.197,.242-.484,.367-.774,.367Z"/>
    <path d="M101.999,58c-.472,0-.892-.335-.981-.816-.103-.543,.255-1.065,.798-1.167l16-3c.551-.1,1.065,.256,1.167,.799,.103,.543-.255,1.065-.798,1.167l-16,3c-.062,.012-.125,.017-.186,.017Z"/>
    <path d="M94.999,53c-.523,0-.964-.408-.997-.938l-1-16c-.034-.551,.385-1.026,.935-1.06,.535-.047,1.026,.384,1.061,.935l1,16c.034,.551-.385,1.026-.936,1.06-.021,.002-.042,.002-.063,.002Z"/>
  </g>
  <g>
    <path d="M19.761,43.49c-.29,0-.577-.125-.775-.367l-7.76-9.49c-.35-.427-.286-1.058,.142-1.407,.427-.351,1.057-.288,1.407,.141l7.76,9.49c.35,.427,.286,1.058-.142,1.407-.186,.152-.409,.226-.632,.226Z"/>
    <path d="M30.001,56c-.29,0-.577-.125-.775-.367l-6.3-7.7c-.35-.428-.286-1.058,.142-1.407,.427-.351,1.057-.287,1.407,.141l6.3,7.7c.35,.428,.286,1.058-.142,1.407-.185,.152-.409,.226-.632,.226Z"/>
    <path d="M26.001,58c-.061,0-.123-.005-.186-.017l-16-3c-.543-.102-.9-.624-.798-1.167,.101-.542,.621-.898,1.167-.799l16,3c.543,.102,.9,.624,.798,1.167-.09,.481-.51,.816-.981,.816Z"/>
    <path d="M33.001,53c-.022,0-.042,0-.064-.002-.551-.035-.97-.509-.935-1.06l1-16c.034-.552,.516-.981,1.06-.935,.551,.035,.97,.509,.936,1.06l-1,16c-.033,.53-.474,.938-.997,.938Z"/>
  </g>
</svg>