<?xml version="1.0" encoding="UTF-8"?>
<svg id="_18" data-name="18" xmlns="http://www.w3.org/2000/svg" xmlns:xlink="http://www.w3.org/1999/xlink" viewBox="0 0 128 128">
  <defs>
    <style>
      .cls-1 {
        fill: none;
      }

      .cls-2 {
        clip-path: url(#clippath);
      }

      .cls-3 {
        fill: #00c4f9;
      }

      .cls-4 {
        fill: #fff;
      }

      .cls-5 {
        fill: #ffd300;
      }

      .cls-6 {
        fill: #ff5fff;
      }

      .cls-7 {
        fill: #a06507;
      }

      .cls-8 {
        fill: #b6fc00;
      }

      .cls-9 {
        fill: #53e8fc;
      }

      .cls-10 {
        fill: #6128dd;
      }

      .cls-11 {
        opacity: .4;
      }

      .cls-12 {
        opacity: .5;
      }
    </style>
    <clipPath id="clippath">
      <rect class="cls-1" x="39" y="66" width="47" height="32"/>
    </clipPath>
  </defs>
  <path class="cls-8" d="M108.75,46.68c-.9-2.53-3.04-5.37-7.88-7.14-2.9-1.07-6.77-1.75-11.93-1.75-9.13,0-20.34,2.2-31.56,6.19-2.71,.96-5.35,2-7.89,3.12-8.16,3.55-15.35,7.77-20.75,12.23-10.43,8.6-10.92,15.18-9.49,19.2,.41,1.17,1.09,2.39,2.17,3.55,2.67,2.88,7.83,5.34,17.64,5.34,9.13,0,20.34-2.2,31.56-6.19,4.72-1.68,9.24-3.6,13.41-5.7,5.88-2.94,11.08-6.23,15.23-9.65,10.43-8.59,10.92-15.18,9.49-19.2Zm-21.9,22.82c-5.11,2.91-11.07,5.65-17.57,7.96-21.3,7.58-40.91,7.92-45.56,1.09-.3-.42-.53-.88-.7-1.36-2.18-6.13,6.18-15.03,19.98-22.5,4.68-2.54,9.99-4.9,15.72-6.94,16.61-5.91,32.18-7.41,40.45-4.56,3,1.04,5.04,2.65,5.81,4.84,2.08,5.85-5.44,14.22-18.13,21.47Z"/>
  <path class="cls-4" d="M49.49,47.1c-2.04,2.36-4.25,4.94-6.49,7.59-13.8,7.47-22.16,16.37-19.98,22.5,.17,.48,.4,.94,.7,1.36-1.04,1.45-1.83,2.65-2.3,3.53-1.08-1.16-1.76-2.38-2.17-3.55-1.43-4.02-.94-10.6,9.49-19.2,5.4-4.46,12.59-8.68,20.75-12.23Z"/>
  <g class="cls-11">
    <path d="M99.26,65.88c-4.15,3.42-9.35,6.71-15.23,9.65l2.82-6.03c12.69-7.25,20.21-15.62,18.13-21.47-.77-2.19-2.81-3.8-5.81-4.84l1.7-3.65c4.84,1.77,6.98,4.61,7.88,7.14,1.43,4.02,.94,10.61-9.49,19.2Z"/>
  </g>
  <path d="M39.06,88.42c-14.344,0-19.203-5.196-20.752-9.555-1.534-4.313-1.08-11.339,9.796-20.307,.339-.278,.677-.554,1.035-.83,.436-.337,1.064-.258,1.403,.18,.337,.436,.257,1.065-.18,1.402-.342,.265-.664,.528-.987,.793-9.981,8.229-10.502,14.38-9.182,18.092,1.334,3.752,5.69,8.225,18.868,8.225,9.015,0,20.104-2.178,31.225-6.132,11.275-4.014,21.34-9.404,28.338-15.18,9.985-8.223,10.506-14.378,9.185-18.094-1.334-3.752-5.691-8.225-18.867-8.225-9.017,0-20.105,2.178-31.226,6.133-8.648,3.075-16.625,6.976-23.07,11.279-.46,.305-1.08,.182-1.387-.276-.307-.46-.183-1.081,.276-1.388,6.58-4.393,14.709-8.37,23.51-11.5,11.329-4.029,22.656-6.248,31.895-6.248,14.343,0,19.201,5.196,20.752,9.555,1.535,4.318,1.083,11.348-9.797,20.307-7.172,5.919-17.45,11.432-28.94,15.521-11.331,4.028-22.658,6.247-31.895,6.247Zm.003-4c-.105,0-.21-.001-.314-.001-9.192-.054-15.113-2.502-16.671-6.894-1.563-4.397,1.48-10.039,8.571-15.887,6.83-5.633,16.68-10.899,27.736-14.831,17.435-6.202,34.632-7.758,42.789-3.876,2.443,1.163,4.041,2.766,4.749,4.765,1.563,4.392-1.48,10.03-8.571,15.877-6.831,5.632-16.682,10.899-27.736,14.829h0c-10.921,3.885-21.755,6.018-30.552,6.018Zm49.914-41.639c-8.325,0-19.043,2.041-29.922,5.911-10.842,3.855-20.478,9.001-27.133,14.489-6.301,5.196-9.202,10.18-7.959,13.674,1.238,3.488,6.632,5.516,14.798,5.563,.101,0,.203,.001,.304,.001,8.574,0,19.168-2.092,29.881-5.902h0c10.841-3.854,20.478-9,27.134-14.487,6.301-5.195,9.202-10.176,7.959-13.664-.524-1.482-1.777-2.702-3.724-3.628-2.767-1.317-6.679-1.957-11.338-1.957Z"/>
  <path d="M76,48h-24c-.44,0-.829-.288-.957-.709l-7-23c-.161-.528,.137-1.087,.666-1.248,.524-.161,1.087,.137,1.247,.666l6.784,22.291h22.518l6.784-22.291c.161-.528,.718-.825,1.248-.666,.528,.161,.826,.72,.666,1.248l-7,23c-.129,.421-.517,.709-.957,.709Z"/>
  <path d="M108,109h-10c-.553,0-1-.447-1-1s.447-1,1-1h10c.553,0,1,.447,1,1s-.447,1-1,1Z"/>
  <path d="M30.67,109h-10.67c-.552,0-1-.447-1-1s.448-1,1-1h10.67c.552,0,1,.447,1,1s-.448,1-1,1Z"/>
  <path d="M93.5,109H34.22c-.552,0-1-.447-1-1s.448-1,1-1h59.28c.553,0,1,.447,1,1s-.447,1-1,1Z"/>
  <polygon class="cls-10" points="86 108 42 108 49 51 79 51 86 108"/>
  <g class="cls-11">
    <polygon points="86 108 82 108 75 51 79 51 86 108"/>
  </g>
  <g class="cls-12">
    <polygon class="cls-4" points="53 51 46 108 42 108 49 51 53 51"/>
  </g>
  <path d="M43.261,98.71c-.041,0-.082-.002-.123-.008-.548-.067-.938-.566-.871-1.114l3.35-27.25c.067-.548,.574-.945,1.115-.87,.548,.067,.938,.566,.871,1.114l-3.35,27.25c-.062,.507-.494,.878-.991,.878Z"/>
  <path d="M86,109H42c-.287,0-.559-.123-.749-.337-.19-.215-.278-.5-.244-.784l.67-5.47c.067-.55,.57-.942,1.114-.871,.548,.066,.938,.565,.871,1.113l-.533,4.349h41.74l-6.755-55h-28.231l-1.731,14.072c-.067,.549-.564,.948-1.115,.87-.548-.067-.938-.566-.871-1.114l1.84-14.95c.062-.501,.488-.878,.993-.878h30c.505,0,.931,.377,.992,.878l7,57c.035,.284-.054,.57-.243,.785-.189,.214-.463,.337-.749,.337Z"/>
  <path class="cls-9" d="M81,45c0,.68-.04,1.35-.12,2-.16,1.39-.49,2.73-.97,4h-31.82c-.05-.13-.1-.27-.14-.4-.41-1.15-.69-2.36-.83-3.6-.08-.65-.12-1.32-.12-2,0-7.77,5.22-14.33,12.34-16.35,.81-.24,1.65-.41,2.51-.51,.39-.06,.79-.09,1.19-.11,.32-.02,.64-.03,.96-.03h.18c9.31,.1,16.82,7.67,16.82,17Z"/>
  <g>
    <path class="cls-4" d="M61.85,28.14l-11.85,22.86h-1.91c-.05-.13-.1-.27-.14-.4l11.39-21.95c.81-.24,1.65-.41,2.51-.51Z"/>
    <path class="cls-4" d="M64.18,28l-11.93,23h-1.12l11.91-22.97c.32-.02,.64-.03,.96-.03h.18Z"/>
  </g>
  <path d="M79.91,52c-.117,0-.237-.02-.354-.065-.517-.195-.777-.772-.582-1.289,.457-1.209,.764-2.475,.912-3.761,.075-.615,.113-1.247,.113-1.886,0-8.822-7.178-16-16-16s-16,7.178-16,16c0,.639,.038,1.27,.113,1.878,.148,1.294,.455,2.56,.913,3.769,.195,.517-.065,1.094-.582,1.289-.516,.195-1.094-.065-1.289-.582-.515-1.363-.861-2.789-1.028-4.239-.083-.68-.126-1.394-.126-2.114,0-9.925,8.075-18,18-18s18,8.075,18,18c0,.721-.043,1.435-.128,2.122-.166,1.442-.512,2.868-1.026,4.231-.151,.4-.531,.646-.935,.646Z"/>
  <g>
    <path class="cls-5" d="M84,60.35c0,.95-.62,1.78-1.48,1.95-2,.38-4,.7-6.02,.95-8.17,1.02-16.51,.99-25-.06-1.99-.25-3.99-.55-6-.91-.86-.16-1.5-.99-1.5-1.95v-.01c0-1.21,.99-2.13,2.08-1.94,1.98,.35,3.95,.64,5.91,.87,8.15,.98,16.16,1,24.03,.05,1.97-.23,3.93-.53,5.88-.89,.1-.02,.2-.03,.3-.03,.98,0,1.8,.85,1.8,1.97Z"/>
    <path class="cls-5" d="M86,75.35c0,.95-.68,1.78-1.63,1.95-2,.35-4.01,.64-6.03,.88-9.36,1.12-18.93,1.08-28.67-.06-2-.23-4.01-.51-6.02-.84-.95-.16-1.65-.99-1.65-1.95v-.01c0-1.21,1.09-2.13,2.29-1.94,1.96,.31,3.91,.58,5.86,.8,9.4,1.07,18.65,1.1,27.7,.05,1.95-.22,3.9-.5,5.84-.82,.11-.02,.22-.03,.33-.03,1.08,0,1.98,.85,1.98,1.97Z"/>
    <path class="cls-5" d="M88,90.35c0,.95-.75,1.78-1.77,1.95-2.01,.32-4.03,.6-6.06,.82-10.56,1.2-21.34,1.16-32.34-.06-2-.22-4.01-.48-6.03-.78-1.04-.16-1.8-.99-1.8-1.95v-.01c0-1.21,1.19-2.13,2.5-1.94,1.95,.28,3.89,.53,5.82,.74,10.66,1.15,21.13,1.18,31.37,.05,1.94-.21,3.87-.47,5.79-.76,.12-.02,.24-.03,.36-.03,1.17,0,2.16,.85,2.16,1.97Z"/>
    <path class="cls-4" d="M42.5,88.38c1.95,.28,3.89,.53,5.82,.74l-.49,3.94c-2-.22-4.01-.48-6.03-.78-1.04-.16-1.8-.99-1.8-1.95v-.01c0-1.21,1.19-2.13,2.5-1.94Z"/>
    <path class="cls-4" d="M44.29,73.38c1.96,.31,3.91,.58,5.86,.8l-.48,3.94c-2-.23-4.01-.51-6.02-.84-.95-.16-1.65-.99-1.65-1.95v-.01c0-1.21,1.09-2.13,2.29-1.94Z"/>
    <path class="cls-4" d="M51.99,59.25l-.49,3.94c-1.99-.25-3.99-.55-6-.91-.86-.16-1.5-.99-1.5-1.95v-.01c0-1.21,.99-2.13,2.08-1.94,1.98,.35,3.95,.64,5.91,.87Z"/>
    <g class="cls-11">
      <path d="M82.52,62.3c-2,.38-4,.7-6.02,.95l-.48-3.95c1.97-.23,3.93-.53,5.88-.89,.1-.02,.2-.03,.3-.03,.98,0,1.8,.85,1.8,1.97,0,.95-.62,1.78-1.48,1.95Z"/>
    </g>
    <g class="cls-11">
      <path d="M84.37,77.3c-2,.35-4.01,.64-6.03,.88l-.49-3.95c1.95-.22,3.9-.5,5.84-.82,.11-.02,.22-.03,.33-.03,1.08,0,1.98,.85,1.98,1.97,0,.95-.68,1.78-1.63,1.95Z"/>
    </g>
    <g class="cls-11">
      <path d="M88,90.35c0,.95-.75,1.78-1.77,1.95-2.01,.32-4.03,.6-6.06,.82l-.48-3.95c1.94-.21,3.87-.47,5.79-.76,.12-.02,.24-.03,.36-.03,1.17,0,2.16,.85,2.16,1.97Z"/>
    </g>
  </g>
  <path d="M64.377,64.993c-6.258,0-12.622-.576-19.054-1.729-1.346-.242-2.324-1.477-2.324-2.936v-.008c0-.91,.385-1.756,1.055-2.32,.617-.52,1.418-.739,2.198-.604,12.169,2.118,24.101,2.131,35.464,.032,.785-.145,1.594,.07,2.218,.589,.677,.564,1.065,1.414,1.065,2.331,0,1.442-.963,2.674-2.289,2.929-5.974,1.144-12.101,1.716-18.333,1.716Zm-18.584-5.637c-.199,0-.352,.091-.451,.174-.218,.184-.343,.472-.343,.79v.008c0,.482,.291,.898,.677,.967,12.594,2.26,24.927,2.266,36.657,.018,.38-.072,.666-.487,.666-.964,0-.321-.126-.61-.346-.794-.118-.099-.313-.206-.575-.159-11.598,2.141-23.767,2.132-36.168-.028-.04-.007-.079-.011-.117-.011Z"/>
  <path d="M64.415,79.993c-6.872,0-13.863-.575-20.926-1.727-1.442-.235-2.489-1.472-2.489-2.939v-.008c0-.866,.377-1.685,1.036-2.248,.665-.567,1.545-.816,2.411-.678,13.407,2.122,26.555,2.134,39.077,.031,.87-.145,1.76,.097,2.431,.665,.665,.562,1.046,1.386,1.046,2.258,0,1.451-1.032,2.684-2.453,2.932-6.561,1.142-13.287,1.713-20.131,1.713Zm-20.438-5.636c-.235,0-.462,.082-.642,.235-.216,.184-.335,.443-.335,.727v.008c0,.475,.349,.889,.811,.964,13.876,2.265,27.466,2.271,40.392,.018,.462-.08,.797-.484,.797-.961,0-.287-.12-.547-.338-.731-.223-.188-.518-.268-.809-.219-12.735,2.137-26.101,2.127-39.719-.029-.053-.008-.105-.012-.157-.012Z"/>
  <path d="M64.453,94.993c-7.487,0-15.105-.574-22.801-1.725-1.537-.23-2.652-1.467-2.652-2.94v-.008c0-.826,.369-1.62,1.013-2.178,.711-.616,1.669-.894,2.628-.75,14.644,2.124,29.004,2.136,42.685,.031,.97-.146,1.932,.12,2.651,.737,.65,.558,1.023,1.356,1.023,2.188,0,1.458-1.1,2.691-2.616,2.934-7.145,1.141-14.474,1.711-21.931,1.711Zm-22.302-5.637c-.311,0-.605,.104-.829,.298-.147,.128-.322,.347-.322,.666v.008c0,.468,.408,.881,.948,.962,15.158,2.267,30.002,2.27,44.121,.018,.539-.086,.931-.489,.931-.959,0-.322-.177-.542-.325-.67-.27-.232-.658-.336-1.045-.278-13.874,2.136-28.435,2.125-43.275-.029-.068-.01-.136-.015-.204-.015Z"/>
  <rect class="cls-9" x="58" y="94" width="12" height="14"/>
  <path d="M70,109h-12c-.552,0-1-.447-1-1v-14c0-.553,.448-1,1-1h12c.553,0,1,.447,1,1v14c0,.553-.447,1-1,1Zm-11-2h10v-12h-10v12Z"/>
  <circle class="cls-5" cx="83.5" cy="23.5" r="2.5"/>
  <path d="M83.5,27c-1.93,0-3.5-1.57-3.5-3.5s1.57-3.5,3.5-3.5,3.5,1.57,3.5,3.5-1.57,3.5-3.5,3.5Zm0-5c-.827,0-1.5,.673-1.5,1.5s.673,1.5,1.5,1.5,1.5-.673,1.5-1.5-.673-1.5-1.5-1.5Z"/>
  <circle class="cls-5" cx="44.5" cy="23.5" r="2.5"/>
  <path d="M44.5,27c-1.93,0-3.5-1.57-3.5-3.5s1.57-3.5,3.5-3.5,3.5,1.57,3.5,3.5-1.57,3.5-3.5,3.5Zm0-5c-.827,0-1.5,.673-1.5,1.5s.673,1.5,1.5,1.5,1.5-.673,1.5-1.5-.673-1.5-1.5-1.5Z"/>
  <path d="M66.991,23c-.256,0-.512-.098-.707-.293l-2.292-2.293-2.291,2.293c-.188,.188-.442,.293-.707,.293h0c-.265,0-.52-.105-.708-.293l-2.29-2.292-2.288,2.291c-.187,.188-.442,.294-.707,.294h-3c-.552,0-1-.447-1-1s.448-1,1-1h2.585l2.702-2.706c.376-.377,1.04-.375,1.415,0l2.291,2.292,2.291-2.292c.376-.375,1.039-.375,1.414,0l2.293,2.293,2.298-2.294c.389-.389,1.022-.389,1.413,0l2.711,2.708h2.586c.553,0,1,.447,1,1s-.447,1-1,1h-3c-.265,0-.52-.105-.707-.292l-2.297-2.295-2.299,2.295c-.194,.194-.45,.292-.706,.292Z"/>
  <g>
    <circle class="cls-6" cx="97.5" cy="41.5" r="5.5"/>
    <g class="cls-11">
      <path d="M103,41.5c0,3.04-2.46,5.5-5.5,5.5-2.04,0-3.82-1.11-4.75-2.75,.81,.48,1.75,.75,2.75,.75,3.04,0,5.5-2.46,5.5-5.5,0-1-.27-1.94-.75-2.75,1.64,.93,2.75,2.71,2.75,4.75Z"/>
    </g>
    <path d="M97.5,48c-3.584,0-6.5-2.916-6.5-6.5s2.916-6.5,6.5-6.5,6.5,2.916,6.5,6.5-2.916,6.5-6.5,6.5Zm0-11c-2.481,0-4.5,2.019-4.5,4.5s2.019,4.5,4.5,4.5,4.5-2.019,4.5-4.5-2.019-4.5-4.5-4.5Z"/>
  </g>
  <g>
    <circle class="cls-6" cx="21" cy="73" r="5"/>
    <g class="cls-12">
      <path class="cls-4" d="M25.39,70.61c-.71-.39-1.52-.61-2.39-.61-2.76,0-5,2.24-5,5,0,.87,.22,1.68,.61,2.39-1.56-.85-2.61-2.5-2.61-4.39,0-2.76,2.24-5,5-5,1.89,0,3.54,1.05,4.39,2.61Z"/>
    </g>
    <path d="M21,79c-3.309,0-6-2.691-6-6s2.691-6,6-6,6,2.691,6,6-2.691,6-6,6Zm0-10c-2.206,0-4,1.794-4,4s1.794,4,4,4,4-1.794,4-4-1.794-4-4-4Z"/>
  </g>
  <path class="cls-5" d="M82,51H46c-1.105,0-2-.895-2-2h0c0-1.105,.895-2,2-2h36c1.105,0,2,.895,2,2h0c0,1.105-.895,2-2,2Z"/>
  <g class="cls-11">
    <path d="M84,49c0,.55-.22,1.05-.59,1.41-.36,.37-.86,.59-1.41,.59h-8c.55,0,1.05-.22,1.41-.59,.37-.36,.59-.86,.59-1.41,0-1.1-.9-2-2-2h8c1.1,0,2,.9,2,2Z"/>
  </g>
  <path class="cls-4" d="M54,51h-8c-1.1,0-2-.9-2-2,0-.55,.22-1.05,.59-1.41,.36-.37,.86-.59,1.41-.59h8c-.55,0-1.05,.22-1.41,.59-.37,.36-.59,.86-.59,1.41,0,1.1,.9,2,2,2Z"/>
  <path d="M82,52H46c-1.654,0-3-1.346-3-3s1.346-3,3-3h36c1.654,0,3,1.346,3,3s-1.346,3-3,3Zm-36-4c-.551,0-1,.448-1,1s.449,1,1,1h36c.552,0,1-.448,1-1s-.448-1-1-1H46Z"/>
  <g class="cls-2">
    <g>
      <path class="cls-8" d="M108.75,46.68c-1.44-4.05-6.05-8.89-19.81-8.89-9.13,0-20.34,2.2-31.56,6.19-11.38,4.05-21.55,9.5-28.64,15.35-10.43,8.6-10.92,15.18-9.49,19.2,1.44,4.05,6.05,8.89,19.81,8.89,9.13,0,20.34-2.2,31.56-6.19,11.38-4.05,21.55-9.5,28.64-15.35,10.43-8.59,10.92-15.18,9.49-19.2Zm-39.47,30.78c-22.63,8.05-43.35,7.93-46.26-.27-2.92-8.21,13.06-21.39,35.7-29.44,22.63-8.05,43.35-7.93,46.26,.28,2.92,8.2-13.06,21.38-35.7,29.43Z"/>
      <path d="M39.06,88.42c-14.344,0-19.203-5.196-20.752-9.555-1.534-4.313-1.08-11.339,9.796-20.307,7.176-5.921,17.454-11.433,28.94-15.521,11.33-4.029,22.657-6.248,31.896-6.248,14.343,0,19.201,5.196,20.752,9.555h0c1.535,4.318,1.083,11.348-9.797,20.307-7.172,5.919-17.45,11.432-28.94,15.521-11.331,4.028-22.658,6.247-31.895,6.247Zm49.88-49.63c-9.017,0-20.105,2.178-31.226,6.133-11.273,4.012-21.337,9.402-28.338,15.179-9.983,8.23-10.504,14.382-9.184,18.094,1.334,3.752,5.69,8.225,18.868,8.225,9.015,0,20.104-2.178,31.225-6.132,11.275-4.014,21.34-9.404,28.338-15.18,9.985-8.223,10.506-14.378,9.185-18.094-1.334-3.752-5.691-8.225-18.867-8.225Zm-49.877,45.63c-.105,0-.21-.001-.314-.001-9.192-.054-15.113-2.502-16.671-6.894-1.563-4.397,1.48-10.039,8.571-15.887,6.83-5.633,16.68-10.899,27.736-14.831,17.435-6.202,34.632-7.758,42.789-3.876,2.443,1.163,4.041,2.766,4.749,4.765,1.563,4.392-1.48,10.03-8.571,15.877-6.831,5.632-16.682,10.899-27.736,14.829h0c-10.921,3.885-21.755,6.018-30.552,6.018Zm49.914-41.639c-8.325,0-19.043,2.041-29.922,5.911-10.842,3.855-20.478,9.001-27.133,14.489-6.301,5.196-9.202,10.18-7.959,13.674,1.238,3.488,6.632,5.516,14.798,5.563,.101,0,.203,.001,.304,.001,8.574,0,19.168-2.092,29.881-5.902h0c10.841-3.854,20.478-9,27.134-14.487,6.301-5.195,9.202-10.176,7.959-13.664-.524-1.482-1.777-2.702-3.724-3.628-2.767-1.317-6.679-1.957-11.338-1.957Z"/>
    </g>
  </g>
  <g>
    <path d="M29.001,53c-.342,0-.675-.176-.862-.491l-5.01-8.48c-.281-.476-.123-1.089,.352-1.37,.476-.28,1.089-.122,1.37,.352l5.01,8.481c.281,.476,.124,1.089-.352,1.37-.16,.094-.335,.139-.508,.139Z"/>
    <path d="M21.921,41.02c-.342,0-.675-.176-.862-.491l-5.92-10.02c-.281-.476-.124-1.089,.352-1.37,.476-.28,1.088-.123,1.37,.352l5.92,10.019c.281,.476,.123,1.089-.352,1.37-.16,.094-.335,.139-.508,.139Z"/>
    <path d="M33,50c-.552,0-1-.447-1-1v-16c0-.553,.448-1,1-1s1,.447,1,1v16c0,.553-.448,1-1,1Z"/>
    <path d="M25,55c-.098,0-.197-.014-.294-.044l-13-4c-.528-.163-.824-.723-.662-1.25,.162-.528,.724-.826,1.249-.662l13,4c.528,.163,.824,.723,.662,1.25-.132,.43-.528,.706-.955,.706Z"/>
  </g>
  <g>
    <path d="M101.669,33.17c-.173,0-.348-.045-.507-.139-.476-.28-.634-.894-.353-1.369l4.27-7.24c.28-.476,.894-.635,1.369-.354,.476,.28,.634,.894,.354,1.369l-4.27,7.24c-.187,.316-.52,.492-.862,.492Z"/>
    <path d="M108.739,21.2c-.173,0-.348-.045-.507-.139-.476-.281-.634-.894-.353-1.369l4.84-8.2c.281-.477,.895-.632,1.369-.353,.477,.281,.634,.893,.353,1.369l-4.84,8.2c-.187,.316-.52,.492-.862,.492Z"/>
    <path d="M98,30.417c-.553,0-1-.447-1-1V14.75c0-.553,.447-1,1-1s1,.447,1,1v14.667c0,.553-.447,1-1,1Z"/>
    <path d="M105.333,35c-.428,0-.823-.276-.956-.706-.162-.527,.134-1.087,.662-1.25l11.917-3.667c.529-.164,1.087,.135,1.25,.662,.162,.527-.134,1.087-.662,1.25l-11.917,3.667c-.098,.03-.197,.044-.294,.044Z"/>
  </g>
  <g>
    <path class="cls-7" d="M27.715,24.837c-.552-.029-.975-.5-.946-1.052,.132-2.478-1.777-4.601-4.255-4.732-.551-.029-.975-.5-.945-1.052,.029-.551,.5-.975,1.052-.946,2.478,.132,4.601-1.777,4.732-4.255,.029-.551,.5-.975,1.052-.946,.551,.029,.975,.5,.945,1.052-.132,2.478,1.777,4.601,4.255,4.732,.551,.029,.975,.5,.946,1.052-.029,.551-.5,.975-1.052,.946-2.478-.132-4.601,1.777-4.732,4.255-.029,.551-.5,.975-1.052,.945Z"/>
    <path d="M26.518,21.057c-.29,0-.577-.125-.775-.367-.807-.988-1.953-1.568-3.228-1.636h0c-.551-.029-.975-.5-.945-1.052,.029-.551,.516-.965,1.051-.946,.002,0,.004,0,.007,0,2.46,.121,4.591-1.777,4.725-4.249,0-.002,0-.004,0-.006,.029-.553,.515-.973,1.052-.946,.551,.029,.975,.501,.945,1.052v.005c-.07,1.347,.454,2.634,1.438,3.533,.408,.372,.436,1.005,.064,1.412-.372,.409-1.005,.439-1.413,.065-.515-.47-.943-1.013-1.275-1.606-.562,.791-1.296,1.45-2.143,1.924,.471,.333,.899,.73,1.27,1.185,.35,.428,.286,1.058-.142,1.407-.186,.151-.41,.225-.632,.225Z"/>
  </g>
  <g>
    <path class="cls-3" d="M23.881,99.924c-2.208-.066-3.945-1.897-3.879-4.089,.066-2.192,1.909-3.916,4.117-3.85,2.208,.066,3.945,1.897,3.879,4.089-.066,2.192-1.909,3.916-4.117,3.85Z"/>
    <path d="M23.999,100.927c-.049,0-.098,0-.147-.002-1.334-.041-2.573-.594-3.489-1.559-.917-.967-1.401-2.231-1.361-3.56,.078-2.617,2.202-4.733,4.834-4.816,.534-.047,1.014,.415,1.031,.968,.017,.552-.416,1.014-.968,1.03-1.579,.051-2.852,1.314-2.899,2.878-.024,.793,.265,1.547,.813,2.124,.55,.579,1.294,.912,2.098,.936,1.249,.038,2.397-.707,2.858-1.853,.206-.512,.789-.757,1.301-.554,.512,.207,.76,.789,.553,1.302-.755,1.873-2.601,3.106-4.625,3.106Z"/>
  </g>
  <g>
    <path d="M108.534,85.777c-.328,0-.649-.161-.841-.457l-1.617-2.499c-.3-.463-.167-1.082,.297-1.383,.463-.299,1.083-.168,1.383,.297l1.617,2.499c.3,.463,.167,1.082-.297,1.383-.168,.108-.355,.16-.542,.16Z"/>
    <path d="M104.724,79.888c-.328,0-.649-.161-.841-.457l-1.611-2.49c-.3-.464-.167-1.082,.297-1.383,.463-.299,1.083-.167,1.383,.297l1.611,2.49c.3,.464,.167,1.082-.297,1.383-.168,.108-.355,.16-.542,.16Z"/>
    <path d="M101.626,84.297c-.328,0-.649-.161-.841-.457-.3-.464-.167-1.083,.297-1.383l2.499-1.616c.464-.302,1.082-.166,1.383,.297,.3,.464,.167,1.083-.297,1.383l-2.499,1.616c-.168,.108-.357,.16-.542,.16Z"/>
    <path d="M107.516,80.486c-.328,0-.649-.161-.841-.457-.3-.464-.167-1.083,.297-1.383l2.491-1.611c.464-.301,1.083-.167,1.383,.297,.3,.464,.167,1.083-.297,1.383l-2.491,1.611c-.168,.108-.356,.16-.542,.16Z"/>
  </g>
</svg>