<?xml version="1.0" encoding="UTF-8"?>
<svg id="_12" data-name="12" xmlns="http://www.w3.org/2000/svg" viewBox="0 0 128 128">
  <defs>
    <style>
      .cls-1 {
        fill: #00c672;
      }

      .cls-2 {
        fill: #fff;
      }

      .cls-3 {
        fill: #ffd300;
      }

      .cls-4 {
        fill: #ff5fff;
      }

      .cls-5 {
        fill: #a06507;
      }

      .cls-6 {
        fill: #d86313;
      }

      .cls-7 {
        fill: #d43ad8;
      }

      .cls-8 {
        fill: #d6920b;
      }

      .cls-9 {
        fill: #53e8fc;
      }

      .cls-10 {
        fill: #6128dd;
      }

      .cls-11 {
        opacity: .4;
      }

      .cls-12 {
        opacity: .5;
      }
    </style>
  </defs>
  <g>
    <path class="cls-9" d="M85.161,49.414c-1.627,1.495-4.611,.894-6.667-1.343-2.056-2.236-2.403-5.261-.777-6.756s4.611-.894,6.667,1.343c2.056,2.236,2.403,5.261,.777,6.756Z"/>
    <path d="M82.914,51.238c-.363,0-.738-.039-1.123-.116-1.464-.295-2.897-1.138-4.033-2.374-1.136-1.236-1.855-2.734-2.026-4.219-.184-1.602,.281-3.006,1.31-3.95,1.028-.944,2.466-1.291,4.046-.973,1.465,.295,2.897,1.138,4.033,2.374,2.425,2.64,2.747,6.305,.717,8.17-.779,.716-1.792,1.088-2.924,1.088Zm-2.936-9.745c-.634,0-1.182,.19-1.583,.559-.545,.501-.785,1.299-.676,2.249,.123,1.068,.66,2.167,1.512,3.094,.852,.928,1.902,1.555,2.955,1.768,.941,.189,1.754,.016,2.298-.484,1.197-1.101,.814-3.548-.836-5.344-.852-.927-1.901-1.555-2.955-1.767-.248-.05-.487-.074-.716-.074Z"/>
    <polygon class="cls-1" points="60.29 68.165 56.941 64.52 75.509 43.345 82.952 51.444 60.29 68.165"/>
    <path d="M60.291,69.164c-.271,0-.541-.11-.737-.323l-3.35-3.644c-.346-.376-.352-.952-.016-1.336l18.568-21.176c.187-.214,.457-.338,.74-.341,.282,.019,.556,.114,.748,.323l7.444,8.1c.192,.209,.286,.49,.259,.772-.027,.283-.173,.54-.402,.709l-22.662,16.72c-.178,.131-.386,.195-.593,.195Zm-2.006-4.659l2.134,2.321,21.044-15.525-5.936-6.459-17.242,19.663Z"/>
    <rect class="cls-10" x="74.351" y="44.667" width="11" height="4.316" transform="translate(60.291 -43.652) rotate(47.414)"/>
    <path d="M81.984,53.334c-.27,0-.54-.108-.737-.323l-7.444-8.099c-.179-.195-.274-.454-.263-.719,.011-.266,.127-.515,.322-.694l3.178-2.92c.407-.374,1.04-.347,1.413,.06l7.443,8.099c.179,.195,.274,.454,.263,.719-.011,.266-.127,.515-.322,.694l-3.177,2.92c-.192,.177-.434,.264-.676,.264Zm-6.031-9.039l6.09,6.626,1.704-1.566-6.09-6.626-1.705,1.566Z"/>
    <path d="M77.971,56.11c-.27,0-.539-.108-.736-.323l-6.54-7.11c-.374-.406-.348-1.039,.059-1.413,.406-.374,1.04-.348,1.413,.059l6.54,7.11c.374,.406,.348,1.039-.059,1.413-.192,.177-.435,.264-.676,.264Z"/>
  </g>
  <path class="cls-4" d="M82,74c0-15.74-13.26-28-29-28v28h29Z"/>
  <path d="M82,75h-29c-.552,0-1-.447-1-1v-28c0-.553,.448-1,1-1,16.542,0,30,13.01,30,29,0,.553-.448,1-1,1Zm-28-2h26.981c-.535-14.107-12.347-25.485-26.981-25.983v25.983Z"/>
  <path class="cls-7" d="M75,78h28c.552,0,1,.448,1,1v2c0,.552-.448,1-1,1h-28v-4h0Z"/>
  <g class="cls-11">
    <rect x="75" y="78" width="8" height="4"/>
  </g>
  <path d="M103,83h-28c-.552,0-1-.447-1-1v-4c0-.553,.448-1,1-1h28c1.103,0,2,.897,2,2v2c0,1.103-.897,2-2,2Zm-27-2h27.001v-2h-27.001v2Z"/>
  <rect class="cls-8" x="75" y="82" width="24" height="26"/>
  <g class="cls-11">
    <rect x="75" y="82" width="8" height="26"/>
  </g>
  <path d="M99,109h-24c-.552,0-1-.447-1-1v-26c0-.553,.448-1,1-1h24c.552,0,1,.447,1,1v26c0,.553-.448,1-1,1Zm-23-2h22v-24h-22v24Z"/>
  <rect class="cls-3" x="27" y="78" width="52" height="30"/>
  <g class="cls-11">
    <rect x="75" y="78" width="4" height="30"/>
  </g>
  <rect class="cls-2" x="27" y="78" width="4" height="30"/>
  <path d="M79,109H27c-.552,0-1-.447-1-1v-30c0-.553,.448-1,1-1h52c.552,0,1,.447,1,1v30c0,.553-.448,1-1,1Zm-51-2h50v-28H28v28Z"/>
  <polygon class="cls-1" points="47 108 39 108 41 78 45 78 47 108"/>
  <path d="M47,109h-8c-.277,0-.541-.114-.73-.316-.189-.202-.286-.474-.267-.75l2-30c.035-.525,.471-.934,.998-.934h4c.526,0,.963,.408,.998,.934l2,30c.019,.276-.078,.548-.267,.75-.189,.202-.454,.316-.73,.316Zm-6.931-2h5.862l-1.867-28h-2.129l-1.867,28Z"/>
  <polygon class="cls-1" points="66 108 58 108 60 78 64 78 66 108"/>
  <path d="M66,109h-8c-.277,0-.541-.114-.73-.316-.189-.202-.286-.474-.267-.75l2-30c.035-.525,.471-.934,.998-.934h4c.526,0,.963,.408,.998,.934l2,30c.019,.276-.078,.548-.267,.75-.19,.202-.454,.316-.73,.316Zm-6.931-2h5.862l-1.867-28h-2.129l-1.867,28Z"/>
  <path class="cls-10" d="M28.25,78c-.14-.98-.23-1.98-.24-3-.01-.17-.01-.33-.01-.5,0-13.81,11.19-25,25-25s25,11.19,25,25c0,.17,0,.33-.01,.5-.01,1.02-.1,2.02-.24,3H28.25Z"/>
  <g class="cls-11">
    <path d="M78,74.5c0,.17,0,.33-.01,.5-.01,1.02-.1,2.02-.24,3h-4.99c.13-.98,.22-1.98,.23-3,.01-.17,.01-.33,.01-.5,0-13.04-9.79-23.75-22.28-24.89,.75-.08,1.51-.11,2.28-.11,13.81,0,25,11.19,25,25Z"/>
  </g>
  <g class="cls-12">
    <path class="cls-2" d="M33,74.32c0,.17,0,.34,.01,.52,.01,1.08,.1,2.13,.24,3.16h-5c-.14-.98-.23-1.98-.24-3-.01-.17-.01-.33-.01-.5,0-12.36,8.97-22.63,20.76-24.63-9.24,3.86-15.76,13.35-15.76,24.45Z"/>
  </g>
  <path d="M77.752,79c-.047,0-.095-.003-.143-.01-.546-.078-.926-.585-.848-1.132,.146-1.019,.221-1.958,.23-2.868,.01-.198,.01-.34,.01-.49,0-13.233-10.767-24-24-24-7.52,0-14.459,3.426-19.036,9.398-.336,.439-.964,.521-1.402,.186-.439-.336-.521-.964-.185-1.402,4.959-6.471,12.476-10.182,20.624-10.182,14.336,0,26,11.663,26,26,0,.19,0,.368-.011,.558-.009,.952-.09,1.976-.249,3.084-.071,.499-.499,.858-.988,.858Z"/>
  <path d="M28.248,79c-.489,0-.917-.359-.988-.858-.159-1.108-.24-2.132-.251-3.132-.009-.142-.01-.32-.01-.51,0-3.633,.735-7.146,2.185-10.442,.223-.507,.812-.737,1.318-.513,.506,.222,.735,.811,.513,1.317-1.337,3.042-2.016,6.284-2.016,9.638,0,.15,0,.292,.008,.442,.011,.958,.086,1.897,.231,2.916,.078,.547-.302,1.054-.848,1.132-.048,.007-.096,.01-.143,.01Z"/>
  <path d="M37.179,79c-.508,0-.943-.386-.994-.901-.12-1.206-.175-2.223-.175-3.198-.009-.132-.01-.321-.01-.511,0-11.879,5.474-22.176,13.62-25.62,.511-.215,1.096,.023,1.311,.531,.215,.509-.023,1.096-.531,1.31-7.301,3.087-12.399,12.865-12.399,23.778,0,.15,0,.303,.008,.453,.001,.966,.054,1.919,.167,3.059,.055,.55-.347,1.039-.896,1.094-.034,.003-.067,.005-.1,.005Z"/>
  <path d="M65.821,79c-.033,0-.066-.002-.1-.005-.55-.055-.951-.544-.896-1.094,.113-1.14,.166-2.093,.166-3.001,.01-.208,.01-.36,.01-.511,0-11.199-5.267-21.046-12.809-23.946-.516-.198-.773-.777-.575-1.293,.199-.516,.778-.77,1.292-.574,8.297,3.191,14.091,13.806,14.091,25.813,0,.19,0,.379-.011,.568,.001,.918-.054,1.935-.174,3.141-.051,.516-.486,.901-.994,.901Z"/>
  <rect class="cls-9" x="79" y="87" width="16" height="15"/>
  <g>
    <polygon class="cls-2" points="93.49 87 85.25 102 82.97 102 91.21 87 93.49 87"/>
    <polygon class="cls-2" points="95 87 95 88.42 87.54 102 86.39 102 94.64 87 95 87"/>
  </g>
  <path d="M95,103h-16c-.552,0-1-.447-1-1v-15c0-.553,.448-1,1-1h16c.552,0,1,.447,1,1v15c0,.553-.448,1-1,1Zm-15-2h14v-13h-14v13Z"/>
  <path d="M87,103c-.552,0-1-.447-1-1v-15c0-.553,.448-1,1-1s1,.447,1,1v15c0,.553-.448,1-1,1Z"/>
  <path d="M95,95.5h-16c-.552,0-1-.447-1-1s.448-1,1-1h16c.552,0,1,.447,1,1s-.448,1-1,1Z"/>
  <path class="cls-4" d="M25,74h57v4H25c-.552,0-1-.448-1-1v-2c0-.552,.448-1,1-1Z"/>
  <g class="cls-11">
    <path d="M74,74h8v4h-8c-.552,0-1-.448-1-1v-2c0-.552,.448-1,1-1Z"/>
  </g>
  <g class="cls-12">
    <path class="cls-2" d="M25,74h8v4h-8c-.552,0-1-.448-1-1v-2c0-.552,.448-1,1-1Z"/>
  </g>
  <path d="M82,79H25c-1.103,0-2-.897-2-2v-2c0-1.103,.897-2,2-2h57c.552,0,1,.447,1,1v4c0,.553-.448,1-1,1Zm-57-4v2h56v-2H25Z"/>
  <path d="M77.081,68.79c-.074,0-.149-.008-.224-.025-15.834-3.623-31.875-3.666-47.679-.129-.537,.124-1.073-.219-1.194-.757-.121-.539,.219-1.074,.758-1.194,16.097-3.604,32.435-3.559,48.562,.131,.538,.123,.875,.659,.752,1.197-.106,.464-.518,.777-.974,.777Z"/>
  <path d="M72.49,59.84c-.061,0-.133-.006-.193-.017-12.777-2.375-25.733-2.416-38.511-.119-.542,.097-1.064-.264-1.161-.808-.098-.543,.264-1.064,.808-1.161,13.01-2.337,26.202-2.299,39.211,.118,.475,.078,.841,.49,.841,.986,0,.553-.442,1-.995,1Z"/>
  <path class="cls-6" d="M109,110c0,.55-.22,1.05-.59,1.41-.36,.37-.86,.59-1.41,.59H21c-1.1,0-2-.9-2-2,0-.55,.22-1.05,.59-1.41,.36-.37,.86-.59,1.41-.59H107c1.1,0,2,.9,2,2Z"/>
  <g class="cls-11">
    <path d="M109,110c0,.55-.22,1.05-.59,1.41-.36,.37-.86,.59-1.41,.59h-8v-4h8c1.1,0,2,.9,2,2Z"/>
  </g>
  <g class="cls-12">
    <path class="cls-2" d="M31,108v4h-10c-1.1,0-2-.9-2-2,0-.55,.22-1.05,.59-1.41,.36-.37,.86-.59,1.41-.59h10Z"/>
  </g>
  <path d="M107,113H21c-1.654,0-3-1.346-3-3s1.346-3,3-3H107c1.654,0,3,1.346,3,3s-1.346,3-3,3Zm-86-4c-.551,0-1,.448-1,1s.449,1,1,1H107c.551,0,1-.448,1-1s-.449-1-1-1H21Z"/>
  <rect class="cls-10" x="27" y="82" width="9" height="5"/>
  <path class="cls-10" d="M33,96v3c0,.55-.45,1-1,1h-5v-5h5c.55,0,1,.45,1,1Z"/>
  <rect class="cls-10" x="70" y="87" width="9" height="5"/>
  <g class="cls-11">
    <rect x="75" y="87" width="4" height="5"/>
  </g>
  <path class="cls-10" d="M79,100v5h-5c-.55,0-1-.45-1-1v-3c0-.55,.45-1,1-1h5Z"/>
  <g class="cls-11">
    <rect x="75" y="100" width="4" height="5"/>
  </g>
  <g class="cls-12">
    <rect class="cls-2" x="27" y="82" width="4" height="5"/>
  </g>
  <g class="cls-12">
    <rect class="cls-2" x="27" y="95" width="4" height="5"/>
  </g>
  <path d="M35,88h-8c-.552,0-1-.447-1-1v-5c0-.553,.448-1,1-1h8c1.103,0,2,.897,2,2v3c0,1.103-.897,2-2,2Zm-7-2h7.002l-.002-3h-7v3Z"/>
  <path d="M32,101h-5c-.552,0-1-.447-1-1v-5c0-.553,.448-1,1-1h5c1.103,0,2,.897,2,2v3c0,1.103-.897,2-2,2Zm-4-2h4.002l-.002-3h-4v3Z"/>
  <path d="M79,93h-8c-1.103,0-2-.897-2-2v-3c0-1.103,.897-2,2-2h8c.552,0,1,.447,1,1v5c0,.553-.448,1-1,1Zm-8-5v3h7v-3h-7Z"/>
  <path d="M79,106h-5c-1.103,0-2-.897-2-2v-3c0-1.103,.897-2,2-2h5c.552,0,1,.447,1,1v5c0,.553-.448,1-1,1Zm-5-5v3h4v-3h-4Z"/>
  <g>
    <path class="cls-5" d="M94.004,62.556c.201-.514,.781-.769,1.295-.568,2.312,.902,4.926-.245,5.828-2.557,.201-.514,.781-.769,1.295-.568,.514,.201,.769,.781,.568,1.295-.902,2.312,.245,4.926,2.557,5.828,.514,.201,.769,.781,.568,1.295-.201,.514-.781,.769-1.295,.568-2.312-.902-4.926,.245-5.828,2.557-.201,.514-.781,.769-1.295,.568-.514-.201-.769-.781-.568-1.295,.902-2.312-.245-4.926-2.557-5.828-.514-.201-.769-.781-.568-1.295Z"/>
    <path d="M100.52,68.234c-.35,0-.689-.184-.873-.51-.271-.481-.1-1.091,.381-1.361,.608-.343,1.258-.579,1.926-.709-.575-.781-.971-1.685-1.155-2.638-.464,.343-.976,.625-1.524,.834-.516,.196-1.094-.06-1.291-.576-.197-.516,.061-1.094,.577-1.291,1.189-.456,2.101-1.361,2.565-2.551,0,0,0-.001,0-.001h0c.201-.515,.778-.77,1.295-.568,.514,.201,.768,.78,.568,1.295-.902,2.311,.245,4.926,2.557,5.828h0c.515,.201,.768,.781,.568,1.295-.201,.515-.779,.77-1.295,.568,0-.001-.002-.001-.003-.001-1.256-.492-2.644-.396-3.807,.257-.155,.088-.323,.129-.489,.129Z"/>
  </g>
  <g>
    <path class="cls-1" d="M54.651,24.822c1.187-1.863,3.648-2.418,5.498-1.24,1.85,1.178,2.387,3.644,1.2,5.507-1.187,1.863-3.648,2.419-5.498,1.24s-2.387-3.644-1.2-5.507Z"/>
    <path d="M54.828,30.368c-.302,0-.6-.136-.797-.395-1.253-1.646-1.342-3.933-.223-5.688,.717-1.126,1.826-1.907,3.124-2.199,1.299-.293,2.634-.062,3.755,.652,2.209,1.406,2.94,4.314,1.664,6.618-.267,.483-.876,.658-1.359,.391-.483-.268-.658-.876-.391-1.359,.765-1.382,.331-3.122-.988-3.962-.668-.426-1.465-.561-2.241-.39-.779,.176-1.445,.645-1.877,1.323-.671,1.053-.62,2.421,.128,3.403,.334,.439,.249,1.067-.19,1.401-.181,.138-.394,.204-.605,.204Z"/>
  </g>
  <g>
    <path d="M16.534,79.777c-.328,0-.649-.161-.841-.457l-1.617-2.499c-.3-.464-.167-1.083,.297-1.383,.463-.3,1.083-.167,1.383,.297l1.617,2.499c.3,.464,.167,1.083-.297,1.383-.168,.108-.356,.16-.542,.16Z"/>
    <path d="M12.724,73.888c-.328,0-.649-.161-.84-.457l-1.612-2.49c-.3-.463-.167-1.082,.296-1.383,.465-.3,1.083-.167,1.383,.297l1.612,2.49c.3,.463,.168,1.082-.296,1.383-.168,.108-.356,.16-.542,.16Z"/>
    <path d="M9.627,78.297c-.328,0-.649-.161-.841-.457-.3-.464-.167-1.083,.297-1.383l2.499-1.616c.463-.3,1.082-.167,1.383,.297,.3,.464,.167,1.083-.297,1.383l-2.499,1.616c-.167,.108-.356,.16-.542,.16Z"/>
    <path d="M15.516,74.486c-.328,0-.649-.161-.841-.457-.3-.464-.167-1.083,.297-1.383l2.491-1.611c.463-.3,1.083-.167,1.383,.297,.3,.464,.167,1.083-.297,1.383l-2.491,1.611c-.168,.108-.356,.16-.542,.16Z"/>
  </g>
  <path d="M33.001,54c-.327,0-.647-.16-.839-.454l-3.88-5.95c-.301-.462-.171-1.082,.292-1.384,.464-.3,1.083-.171,1.384,.292l3.88,5.95c.301,.462,.171,1.082-.292,1.384-.169,.109-.358,.162-.545,.162Z"/>
  <path d="M25.461,42.43c-.327,0-.646-.159-.838-.453l-7.46-11.43c-.302-.463-.172-1.082,.291-1.385,.462-.3,1.081-.172,1.384,.291l7.46,11.43c.302,.463,.172,1.082-.291,1.385-.168,.109-.358,.162-.545,.162Z"/>
  <path d="M37,51c-.552,0-1-.447-1-1v-18c0-.553,.448-1,1-1s1,.447,1,1v18c0,.553-.448,1-1,1Z"/>
  <path d="M29.001,57c-.094,0-.189-.013-.283-.041l-17-5c-.53-.155-.833-.711-.677-1.241,.156-.529,.713-.833,1.242-.677l17,5c.53,.155,.833,.711,.677,1.241-.128,.436-.527,.718-.959,.718Z"/>
  <path d="M99.7,29.3c-.256,0-.512-.098-.707-.293-.391-.391-.391-1.023,0-1.414l9.3-9.3c.391-.391,1.023-.391,1.414,0,.391,.391,.391,1.023,0,1.414l-9.3,9.3c-.195,.195-.451,.293-.707,.293Z"/>
  <path d="M90,39c-.256,0-.512-.098-.707-.293-.391-.391-.391-1.023,0-1.414l5.88-5.88c.391-.391,1.023-.391,1.414,0s.391,1.023,0,1.414l-5.88,5.88c-.195,.195-.451,.293-.707,.293Z"/>
  <path d="M92.998,42c-.496,0-.928-.37-.991-.876-.068-.548,.32-1.048,.868-1.116l16-2c.539-.064,1.048,.32,1.116,.868,.068,.548-.32,1.048-.868,1.116l-16,2c-.042,.005-.084,.008-.126,.008Z"/>
  <path d="M86.001,36c-.021,0-.042-.001-.064-.002-.551-.034-.97-.509-.935-1.06l1-16c.035-.552,.503-.959,1.06-.935,.551,.034,.97,.509,.935,1.06l-1,16c-.033,.53-.473,.938-.997,.938Z"/>
</svg>