<?xml version="1.0" encoding="UTF-8"?>
<svg id="_14" data-name="14" xmlns="http://www.w3.org/2000/svg" viewBox="0 0 128 128">
  <defs>
    <style>
      .cls-1 {
        fill: #00c672;
      }

      .cls-2 {
        fill: #693aed;
      }

      .cls-3 {
        fill: #fff;
      }

      .cls-4 {
        fill: #ffd300;
      }

      .cls-5 {
        fill: #ff5fff;
      }

      .cls-6 {
        fill: #a06507;
      }

      .cls-7 {
        fill: #b6fc00;
      }

      .cls-8 {
        fill: #a61aaa;
      }

      .cls-9 {
        fill: #211077;
      }

      .cls-10 {
        fill: #3618a0;
      }

      .cls-11 {
        fill: #53e8fc;
      }

      .cls-12 {
        fill: #6128dd;
      }

      .cls-13 {
        opacity: .4;
      }
    </style>
  </defs>
  <g>
    <path class="cls-7" d="M32.59,104.43c.32,1.14,.79,2.32,1.41,3.57h-6c-.5-1.56-.78-3.03-.85-4.4-.27-5.05,2.34-8.93,7.85-12.6-1.06,2.1-1.85,3.96-2.34,5.7-.76,2.69-.81,5.11-.07,7.73Z"/>
    <g class="cls-13">
      <path d="M33,108h-5c-.5-1.56-.78-3.03-.85-4.4,1.15-2.9,3.01-5.19,5.51-6.9-.76,2.69-.81,5.11-.07,7.73-.19,1.2-.07,2.39,.41,3.57Z"/>
    </g>
    <path d="M28,109c-.424,0-.817-.272-.953-.697-2.396-7.532-.115-13.126,7.398-18.135,.378-.252,.879-.218,1.218,.084,.34,.301,.435,.793,.229,1.198-3.441,6.818-3.684,10.731-.998,16.103,.247,.494,.047,1.095-.447,1.342-.493,.245-1.094,.047-1.342-.447-2.691-5.383-2.509-9.505-.663-14.233-4.256,3.826-5.256,7.93-3.489,13.483,.167,.525-.124,1.088-.65,1.256-.101,.032-.202,.047-.303,.047Z"/>
    <path class="cls-7" d="M32,108h-7c.6-1.48,.65-2.99,.19-4.51-.2-.66-.5-1.32-.88-1.99-1.6-2.77-4.78-5.61-9.31-8.5,3.68,.54,6.83,1.54,9.38,3.07,1.38,.82,2.59,1.8,3.62,2.94,.36,.39,.69,.79,1,1.22,.72,.99,1.33,2.07,1.81,3.27,.55,1.36,.95,2.86,1.19,4.5Z"/>
    <g class="cls-13">
      <path d="M32,108h-6c.44-3.08,1.46-5.66,3-7.77,.72,.99,1.33,2.07,1.81,3.27,.55,1.36,.95,2.86,1.19,4.5Z"/>
    </g>
    <path class="cls-3" d="M24.31,101.5c-1.6-2.77-4.78-5.61-9.31-8.5,3.68,.54,6.83,1.54,9.38,3.07,.27,1.94,.32,3.87-.07,5.43Z"/>
    <path d="M25,109c-.125,0-.252-.023-.374-.072-.513-.207-.76-.79-.554-1.302,1.07-2.649,.105-5.459-2.948-8.588-.759-.769-1.564-1.488-2.455-2.194-1.144-.934-2.518-1.913-4.21-3.003-.397-.255-.561-.752-.395-1.193,.167-.441,.621-.701,1.083-.637,1.498,.224,2.841,.503,4.103,.856,.531,.148,.842,.7,.693,1.232-.094,.335-.347,.582-.654,.682,.219,.17,.43,.337,.633,.503,.945,.749,1.809,1.522,2.63,2.353,3.62,3.71,4.755,7.32,3.376,10.736-.157,.39-.532,.626-.928,.626Z"/>
    <path d="M31.999,109c-.489,0-.917-.358-.988-.856-.78-5.394-3.333-9.183-7.804-11.583-.487-.261-.67-.867-.408-1.353,.262-.486,.866-.671,1.353-.408,5,2.684,7.973,7.077,8.837,13.058,.079,.547-.3,1.055-.846,1.133-.049,.008-.098,.011-.145,.011Z"/>
    <path class="cls-7" d="M39.48,98.03c-3.49,3.42-4.78,6.75-3.48,9.97h-7c.63-4.36,2.39-7.7,5.18-10.15,2.88-2.55,6.87-4.13,11.82-4.85-2.65,1.7-4.84,3.37-6.52,5.03Z"/>
    <path class="cls-3" d="M46,93c-2.65,1.7-4.84,3.37-6.52,5.03-1.92-.18-3.8-.21-5.3-.18,2.88-2.55,6.87-4.13,11.82-4.85Z"/>
    <path d="M36,109c-.396,0-.77-.236-.927-.625-1.718-4.248,.334-8.627,6.265-13.309-6.662,2.117-10.39,6.427-11.348,13.076-.079,.546-.58,.929-1.133,.848-.547-.079-.926-.586-.848-1.133,1.295-8.975,7.299-14.307,17.846-15.847,.461-.077,.916,.197,1.081,.64,.165,.441,0,.939-.397,1.192-8.005,5.121-11.238,9.759-9.612,13.782,.207,.513-.04,1.095-.552,1.302-.123,.05-.25,.073-.375,.073Z"/>
  </g>
  <g>
    <rect class="cls-5" x="68" y="74" width="4" height="13"/>
    <path d="M72,88h-4c-.553,0-1-.447-1-1v-13c0-.553,.447-1,1-1h4c.553,0,1,.447,1,1v13c0,.553-.447,1-1,1Zm-3-2h2v-11h-2v11Z"/>
    <path class="cls-8" d="M68,87h4c1.656,0,3,1.344,3,3v18h-10v-18c0-1.656,1.344-3,3-3Z"/>
    <g class="cls-13">
      <path d="M75,90v18h-3v-18c0-1.66-1.34-3-3-3h3c1.66,0,3,1.34,3,3Z"/>
    </g>
    <g class="cls-13">
      <path class="cls-3" d="M71,87c-1.66,0-3,1.34-3,3v18h-3v-18c0-1.66,1.34-3,3-3h3Z"/>
    </g>
    <path d="M75,109h-10c-.553,0-1-.447-1-1v-18c0-2.206,1.794-4,4-4h4c2.206,0,4,1.794,4,4v18c0,.553-.447,1-1,1Zm-9-2h8v-17c0-1.103-.898-2-2-2h-4c-1.103,0-2,.897-2,2v17Z"/>
  </g>
  <rect class="cls-4" x="53" y="95" width="34" height="4"/>
  <g class="cls-13">
    <path d="M87,95v4h-7.91c-.38-1.26-.18-2.68,.25-4h7.66Z"/>
  </g>
  <path class="cls-3" d="M61.03,95c-.5,1.32-1.23,2.77-2.31,4h-5.72v-4h8.03Z"/>
  <path d="M87,100H53c-.553,0-1-.447-1-1v-4c0-.553,.447-1,1-1h34c.553,0,1,.447,1,1v4c0,.553-.447,1-1,1Zm-33-2h32v-2H54v2Z"/>
  <g>
    <rect class="cls-5" x="59.628" y="65.17" width="4" height="20.74" transform="translate(42.677 -20.09) rotate(28)"/>
    <path d="M58.524,86.635c-.158,0-.319-.037-.469-.117l-3.532-1.878c-.234-.124-.409-.337-.486-.591-.078-.253-.052-.527,.073-.762l9.737-18.312c.124-.234,.337-.409,.591-.486,.252-.078,.525-.053,.762,.073l3.531,1.878c.487,.259,.673,.864,.413,1.352l-9.736,18.312c-.18,.338-.525,.53-.884,.53Zm-2.179-3.291l1.767,.938,8.797-16.547-1.766-.939-8.798,16.547Z"/>
    <path class="cls-8" d="M59.77,89.69l-2.82,5.31-2.13,4-4.79,9h-11.32l12.23-23c.71-1.36,2.32-1.93,3.71-1.4l.13,.06c.07,.03,.14,.06,.21,.1l1.11,.59,2.43,1.28c1.46,.78,2.01,2.6,1.24,4.06Z"/>
    <g class="cls-13">
      <path d="M54.99,83.76l1.11,.59-1.32-.69c.07,.03,.14,.06,.21,.1Z"/>
    </g>
    <g class="cls-13">
      <path d="M59.77,89.69l-2.82,5.31-2.13,4-4.79,9h-3l5.11-9.51,2.28-4.23,3.01-5.62c.82-1.54,.23-3.46-1.33-4.29l2.43,1.28c1.46,.78,2.01,2.6,1.24,4.06Z"/>
    </g>
    <g class="cls-13">
      <path class="cls-3" d="M55.08,83.81c-.47,.27-.87,.67-1.14,1.19l-12.23,23h-3l12.23-23c.77-1.47,2.59-2.02,4.05-1.24l.09,.05Z"/>
    </g>
    <path d="M50.03,109h-11.32c-.351,0-.677-.184-.858-.485-.181-.301-.19-.674-.025-.984l10.05-18.9c.259-.487,.864-.675,1.352-.413,.487,.259,.673,.864,.413,1.352l-9.269,17.431h9.056l9.457-17.778c.514-.975,.144-2.191-.828-2.71l-3.535-1.868c-.646-.341-1.423-.302-2.03,.1-.461,.307-1.081,.18-1.386-.28-.306-.461-.18-1.081,.28-1.386,1.219-.808,2.778-.886,4.07-.201l3.539,1.87c1.943,1.038,2.684,3.465,1.657,5.411l-9.741,18.312c-.174,.326-.514,.53-.883,.53Z"/>
  </g>
  <g>
    <rect class="cls-5" x="75.999" y="65.17" width="4" height="20.74" transform="translate(182.332 105.621) rotate(152.001)"/>
    <path d="M81.102,86.635c-.358,0-.704-.192-.884-.53l-9.736-18.312c-.125-.234-.151-.509-.073-.762,.077-.254,.252-.467,.486-.591l3.532-1.878c.487-.263,1.093-.074,1.353,.413l9.736,18.312c.125,.234,.151,.509,.073,.762-.077,.254-.253,.467-.486,.591l-3.532,1.878c-.149,.08-.311,.117-.469,.117Zm-8.385-18.899l8.797,16.547,1.767-.938-8.797-16.547-1.767,.939Z"/>
    <path class="cls-8" d="M100.92,108h-11.33l-6.57-12.36-3.16-5.95c-.09-.17-.16-.34-.21-.51-.43-1.35,.16-2.86,1.45-3.55l3.53-1.87c.23-.12,.46-.21,.7-.26h.02c1.3-.32,2.68,.26,3.34,1.5l12.23,23Z"/>
    <g class="cls-13">
      <path d="M100.92,108h-3l-12.23-23c-.28-.52-.68-.93-1.16-1.19l.1-.05c.23-.12,.46-.21,.7-.26h.02c1.3-.32,2.68,.26,3.34,1.5l12.23,23Z"/>
    </g>
    <g class="cls-13">
      <path class="cls-3" d="M92.59,108h-3.12l-6.45-12.36-3.37-6.46c-.43-1.35,.16-2.86,1.45-3.55l3.53-1.87c.23-.12,.46-.21,.7-.26l-1.56,.85c-1.52,.82-2.1,2.75-1.29,4.29l10.11,19.36Z"/>
    </g>
    <path d="M100.92,109h-11.33c-.37,0-.71-.204-.883-.53l-9.73-18.309c-.503-.941-.607-2.024-.294-3.048,.312-1.022,1.003-1.861,1.944-2.364l3.534-1.872c1.946-1.032,4.378-.292,5.411,1.655l12.229,22.999c.165,.31,.155,.684-.025,.984-.181,.302-.507,.485-.857,.485Zm-10.729-2h9.065l-11.448-21.53c-.517-.975-1.733-1.346-2.709-.826l-3.531,1.87c-.468,.25-.814,.672-.972,1.185-.156,.512-.104,1.052,.146,1.521l9.448,17.781Z"/>
  </g>
  <g>
    <path class="cls-2" d="M110.099,63.342c.978,.513,1.356,1.721,.844,2.699l-4.843,9.249-1.97,3.765c-.961,1.837-3.229,2.547-5.066,1.587l-3.754-1.962,3.71-7.09,4.842-9.257c.512-.979,1.722-1.357,2.7-.845l3.536,1.853Z"/>
    <path class="cls-2" d="M110.94,66.04l-4.84,9.25-1.97,3.76c-.96,1.84-3.23,2.55-5.07,1.59l-3.75-1.96,2.25-4.29,1.46-2.8,4.84-9.26c.51-.98,1.72-1.35,2.7-.84l3.54,1.85c.28,.14,.51,.35,.69,.59,.43,.6,.51,1.41,.15,2.11Z"/>
    <g class="cls-13">
      <path class="cls-3" d="M110.79,63.93c-4.24,2.03-9.33,5.31-13.23,10.46l1.46-2.8,4.84-9.26c.51-.98,1.72-1.35,2.7-.84l3.54,1.85c.28,.14,.51,.35,.69,.59Z"/>
    </g>
    <path d="M100.795,82.068c-.741,0-1.492-.174-2.193-.54l-3.755-1.962c-.235-.123-.412-.335-.491-.588s-.055-.527,.068-.763l8.553-16.347c.372-.71,.998-1.232,1.763-1.472,.764-.241,1.578-.166,2.288,.206l3.535,1.853h0c1.466,.767,2.033,2.584,1.266,4.049l-6.812,13.014c-.848,1.62-2.506,2.55-4.221,2.55Zm-4.136-3.812l2.868,1.498c1.345,.704,3.013,.183,3.717-1.164l6.812-13.014c.256-.488,.066-1.094-.422-1.35l-3.536-1.852c-.237-.124-.509-.148-.763-.069-.255,.08-.464,.255-.588,.491l-8.089,15.46Z"/>
    <path class="cls-12" d="M38.391,32.096h18v31c0,1.656-1.344,3-3,3h-12c-1.656,0-3-1.344-3-3v-31h0Z" transform="translate(-18.08 68.331) rotate(-62.385)"/>
    <g class="cls-13">
      <path d="M61.29,59.19l-1.62,3.1c-.76,1.47-2.58,2.04-4.05,1.27l-27.46-14.37,1.64-3.14,27.47,14.37c1.46,.76,3.24,.21,4.02-1.23Z"/>
    </g>
    <g class="cls-13">
      <path class="cls-3" d="M65.24,51.66l-1.52,2.9c.77-1.47,.2-3.28-1.27-4.05l-27.47-14.37,1.52-2.9,27.47,14.37c1.47,.77,2.03,2.58,1.27,4.05Z"/>
    </g>
    <path d="M57.008,64.904c-.638,0-1.27-.154-1.851-.459l-27.46-14.369c-.489-.256-.678-.859-.422-1.349l8.34-15.95c.122-.235,.334-.412,.587-.491,.254-.08,.528-.056,.763,.068l13.7,7.17c.489,.256,.678,.86,.422,1.35-.256,.489-.858,.681-1.35,.422l-12.813-6.706-7.413,14.178,26.574,13.906c.476,.249,1.02,.297,1.531,.136,.509-.16,.923-.508,1.166-.978l5.573-10.635c.505-.977,.126-2.19-.849-2.7l-8.148-4.261c-.49-.256-.679-.859-.423-1.349,.255-.49,.86-.682,1.349-.423l8.149,4.261c1.947,1.018,2.707,3.439,1.696,5.395l-5.573,10.635c-.487,.942-1.318,1.642-2.339,1.963-.397,.126-.804,.188-1.209,.188Z"/>
    <path class="cls-4" d="M40.93,33.57l-.82,1.56-1.51,2.9-5.18,9.91-1.65,3.14-.81,1.56c-.48,.91-1.59,1.26-2.5,.78l-.34-.17c-.9-.48-1.25-1.59-.78-2.5l.82-1.56,1.64-3.14,5.18-9.91,1.52-2.9,.81-1.56c.48-.9,1.6-1.25,2.5-.78l.34,.18c.9,.47,1.25,1.59,.78,2.49Z"/>
    <g class="cls-13">
      <path d="M33.42,47.94l-1.65,3.14-.81,1.56c-.48,.91-1.59,1.26-2.5,.78l-.34-.17c-.9-.48-1.25-1.59-.78-2.5l.82-1.56,1.64-3.14,3.62,1.89Z"/>
    </g>
    <path class="cls-3" d="M40.93,33.57l-.82,1.56-1.51,2.9-3.62-1.89,1.52-2.9,.81-1.56c.48-.9,1.6-1.25,2.5-.78l.34,.18c.9,.47,1.25,1.59,.78,2.49Z"/>
    <path d="M29.314,54.635c-.454,0-.904-.109-1.318-.326l-.338-.177c-1.391-.727-1.932-2.452-1.205-3.845l9.976-19.068c.353-.674,.947-1.171,1.674-1.398,.728-.227,1.498-.157,2.173,.195l.338,.177c.674,.352,1.171,.947,1.398,1.673,.228,.727,.158,1.498-.195,2.173l-9.975,19.067c-.352,.674-.947,1.171-1.673,1.398-.281,.088-.568,.131-.854,.131Zm9.641-22.944c-.086,0-.172,.013-.256,.039-.216,.067-.393,.216-.499,.417l-9.975,19.067c-.216,.414-.055,.929,.36,1.146l.338,.177c.202,.107,.433,.126,.647,.058,.217-.067,.393-.216,.499-.417l9.975-19.067h0c.104-.201,.126-.431,.058-.647-.067-.217-.216-.394-.417-.499l-.338-.177c-.123-.064-.258-.097-.393-.097Z"/>
    <path class="cls-10" d="M65.644,50.807h14v21c0,1.104-.896,2-2,2h-10c-1.104,0-2-.896-2-2v-21h0Z" transform="translate(-16.238 97.794) rotate(-62.385)"/>
    <g class="cls-13">
      <path d="M81.89,69.44l-1.37,2.63c-.52,.98-1.72,1.36-2.7,.84l-18.61-9.73,1.37-2.63,18.61,9.74c.98,.51,2.19,.13,2.7-.85Z"/>
    </g>
    <g class="cls-13">
      <path class="cls-3" d="M85.15,63.21l-1.57,3.01c.48-.97,.1-2.16-.87-2.66l-18.61-9.74,1.6-3.05,18.61,9.74c.98,.51,1.35,1.72,.84,2.7Z"/>
    </g>
    <path d="M78.74,74.141c-.469,0-.943-.109-1.387-.342l-18.607-9.734c-.489-.256-.678-.86-.422-1.35l6.489-12.405c.123-.234,.334-.411,.587-.49,.254-.08,.527-.056,.763,.068l18.607,9.734c.71,.371,1.232,.996,1.472,1.762,.24,.765,.168,1.577-.204,2.287l-4.636,8.861c-.534,1.023-1.581,1.608-2.662,1.608Zm-18.181-11.385l17.722,9.271c.236,.123,.505,.149,.763,.067,.255-.079,.463-.253,.587-.49l4.636-8.861c.123-.236,.147-.507,.067-.762-.08-.255-.254-.464-.491-.588l-17.721-9.271-5.562,10.633Z"/>
    <path class="cls-9" d="M106.1,75.29l-1.97,3.765c-.961,1.837-3.229,2.547-5.066,1.587l-3.754-1.962-14.33-7.5,3.71-7.09,14.33,7.5,7.08,3.7Z"/>
    <g class="cls-13">
      <path d="M106.1,75.29l-1.97,3.76c-.96,1.84-3.23,2.55-5.07,1.59l-3.75-1.96-14.33-7.5,1.45-2.77,13.88,7.27,3.75,1.96c1.84,.96,4.11,.25,5.07-1.59l.52-.99,.45,.23Z"/>
    </g>
    <g class="cls-13">
      <path class="cls-3" d="M106.1,75.29l-1.97,3.76c-.42,.8-1.08,1.38-1.85,1.72l1.82-3.48-7.08-3.7-13.58-7.11,1.25-2.39,14.33,7.5,7.08,3.7Z"/>
    </g>
    <path d="M100.795,82.068c-.741,0-1.492-.174-2.193-.54l-18.085-9.463c-.489-.256-.678-.86-.422-1.35l3.71-7.09c.123-.234,.334-.411,.587-.49,.254-.08,.527-.055,.763,.068l21.408,11.199c.235,.123,.412,.335,.491,.588s.055,.527-.068,.763l-1.97,3.765c-.848,1.62-2.506,2.55-4.221,2.55Zm-18.465-11.311l17.197,8.997c1.345,.704,3.013,.183,3.717-1.164l1.506-2.878-19.638-10.273-2.782,5.318Z"/>
    <path class="cls-11" d="M36.5,33.24l-.28,.54-1.22,2.34-.61,1.16-.62,1.17-5.61,10.74c-3.19-1.66-4.96-4.96-4.82-8.33,.01-.35,.04-.7,.1-1.05,.05-.36,.13-.72,.24-1.08,.16-.58,.38-1.14,.67-1.69,.11-.21,.22-.41,.35-.6,1.68-2.7,4.62-4.23,7.64-4.23,1.4,0,2.83,.33,4.16,1.03Z"/>
    <g>
      <path class="cls-3" d="M36.22,33.78l-1.22,2.34-11.32,2.61c.16-.58,.38-1.14,.67-1.69,.11-.21,.22-.41,.35-.6l11.52-2.66Z"/>
      <path class="cls-3" d="M34.39,37.28l-.62,1.17-10.43,2.41c.01-.35,.04-.7,.1-1.05l10.95-2.53Z"/>
    </g>
    <path d="M28.156,50.191c-.16,0-.319-.038-.464-.114-4.886-2.557-6.781-8.61-4.226-13.496h0c1.238-2.366,3.324-4.109,5.873-4.907,2.55-.797,5.256-.556,7.623,.683,.489,.256,.678,.86,.422,1.35l-8.343,15.949c-.123,.234-.334,.411-.587,.49-.098,.031-.198,.046-.299,.046Zm-2.918-12.683c-1.887,3.607-.739,8.013,2.524,10.277l7.358-14.067c-1.66-.621-3.468-.675-5.184-.137-2.039,.639-3.708,2.033-4.699,3.927h0Z"/>
    <rect class="cls-4" x="73.837" y="51.214" width="6" height="4" transform="translate(-5.932 96.631) rotate(-62.384)"/>
    <path d="M77.218,57.8c-.16,0-.319-.038-.464-.114l-3.544-1.854c-.489-.256-.678-.86-.422-1.35l2.781-5.316c.123-.234,.334-.411,.587-.49,.254-.08,.527-.056,.763,.068l3.544,1.855c.489,.256,.678,.86,.422,1.35l-2.781,5.316c-.123,.234-.334,.411-.587,.49-.098,.031-.198,.046-.299,.046Zm-2.194-3.277l1.771,.928,1.854-3.544-1.771-.928-1.854,3.544Z"/>
    <path class="cls-1" d="M92.31,53.52c-.05,.3-.14,.59-.29,.87-.77,1.47-2.58,2.03-4.05,1.27l-10.11-5.29-9.38-4.91c-1.11-.58-1.71-1.77-1.59-2.94,.03-.38,.14-.76,.32-1.11,.54-1.03,1.58-1.61,2.66-1.61,.47,0,.95,.11,1.39,.34l11.2,5.86,8.3,4.34c1.18,.62,1.78,1.93,1.55,3.18Z"/>
    <g class="cls-13">
      <path d="M92.31,53.52c-.05,.3-.14,.59-.29,.87-.77,1.47-2.58,2.03-4.05,1.27l-10.11-5.29c4.55-1.29,10.89,1.35,14.45,3.15Z"/>
    </g>
    <g class="cls-13">
      <path class="cls-3" d="M82.46,46c-5.68,1.26-11.75-1.31-15.57-3.48,.03-.38,.14-.76,.32-1.11,.54-1.03,1.58-1.61,2.66-1.61,.47,0,.95,.11,1.39,.34l11.2,5.86Z"/>
    </g>
    <path d="M89.357,56.996c-.624,0-1.257-.147-1.847-.454l-19.494-10.199c-.946-.494-1.644-1.329-1.963-2.349-.319-1.02-.223-2.102,.273-3.05,1.021-1.953,3.443-2.71,5.397-1.69l19.494,10.199c.946,.494,1.643,1.329,1.963,2.349,.319,1.019,.223,2.102-.273,3.05h0c-.713,1.363-2.108,2.145-3.551,2.145Zm-19.483-16.196c-.721,0-1.418,.39-1.775,1.072-.248,.474-.296,1.015-.137,1.524s.508,.927,.981,1.174l19.494,10.199c.976,.511,2.189,.133,2.699-.846h0c.248-.474,.296-1.015,.137-1.524-.159-.51-.508-.927-.981-1.174l-19.494-10.199c-.295-.154-.611-.227-.924-.227Z"/>
    <polygon class="cls-5" points="86.54 48.14 85.19 50.72 83.76 53.45 77.87 50.37 77.86 50.37 72.69 47.66 73.82 45.49 75.47 42.34 82.46 46 86.54 48.14"/>
    <g class="cls-13">
      <path d="M85.19,50.72l-1.43,2.73-5.89-3.08c2.19-.62,4.81-.33,7.32,.35Z"/>
    </g>
    <g class="cls-13">
      <path class="cls-3" d="M82.46,46c-2.89,.64-5.89,.29-8.64-.51l1.65-3.15,6.99,3.66Z"/>
    </g>
    <path d="M83.763,54.452c-.156,0-.314-.036-.463-.114l-11.073-5.792c-.234-.123-.411-.334-.49-.587s-.055-.527,.068-.763l2.781-5.316c.256-.489,.859-.681,1.35-.422l11.073,5.792c.234,.123,.411,.334,.49,.587,.079,.253,.055,.527-.068,.763l-2.781,5.316c-.179,.341-.526,.536-.887,.536Zm-9.723-7.215l9.301,4.865,1.854-3.544-9.301-4.865-1.854,3.544Z"/>
    <path class="cls-5" d="M102.898,72.564c2.424,1.268,3.362,4.262,2.093,6.686-1.268,2.424-4.262,3.362-6.686,2.093-2.424-1.268-3.362-4.262-2.093-6.686,1.268-2.424,4.262-3.362,6.686-2.093Z"/>
    <g class="cls-13">
      <path class="cls-3" d="M103.03,73.73c-2.65,.55-5.52,1.79-7.38,3.12,.01-.74,.2-1.49,.56-2.19,1.27-2.43,4.26-3.36,6.69-2.1,.5,.26,.93,.6,1.3,.98-.37,.04-.76,.11-1.17,.19Z"/>
    </g>
    <g class="cls-13">
      <path d="M105.55,77.05c-.01,.74-.19,1.5-.56,2.2-1.27,2.42-4.26,3.36-6.68,2.09-.49-.26-.93-.58-1.29-.97,.36-.04,.74-.11,1.15-.19,2.65-.54,5.52-1.79,7.38-3.13Z"/>
    </g>
    <path d="M100.595,82.911c-.948,0-1.889-.229-2.753-.682-1.409-.737-2.447-1.978-2.922-3.496-.476-1.518-.331-3.13,.406-4.539,1.52-2.908,5.124-4.04,8.036-2.516h0c2.909,1.522,4.037,5.127,2.515,8.035-.736,1.409-1.979,2.447-3.496,2.922-.587,.185-1.188,.275-1.786,.275Zm.012-9.913c-.397,0-.796,.061-1.185,.183-1.009,.315-1.833,1.005-2.323,1.941-.489,.935-.585,2.006-.27,3.014,.315,1.008,1.005,1.832,1.941,2.322,.936,.489,2.008,.584,3.014,.27,1.008-.315,1.833-1.005,2.322-1.94,.489-.936,.585-2.007,.27-3.015-.315-1.008-1.005-1.832-1.94-2.322h0c-.573-.3-1.198-.452-1.828-.452Z"/>
  </g>
  <circle class="cls-4" cx="70" cy="68" r="7"/>
  <g class="cls-13">
    <path d="M77,68c0,3.87-3.13,7-7,7-2.44,0-4.59-1.25-5.85-3.15,1.1,.73,2.42,1.15,3.85,1.15,3.87,0,7-3.13,7-7,0-1.43-.42-2.75-1.15-3.85,1.9,1.26,3.15,3.41,3.15,5.85Z"/>
  </g>
  <path class="cls-3" d="M75.85,64.15c-1.1-.73-2.42-1.15-3.85-1.15-3.87,0-7,3.13-7,7,0,1.43,.42,2.75,1.15,3.85-1.9-1.26-3.15-3.41-3.15-5.85,0-3.87,3.13-7,7-7,2.44,0,4.59,1.25,5.85,3.15Z"/>
  <path d="M70,76c-4.411,0-8-3.589-8-8,0-2.691,1.345-5.19,3.598-6.684,.46-.306,1.08-.179,1.387,.281,.305,.461,.179,1.081-.281,1.387-1.692,1.121-2.703,2.997-2.703,5.016,0,3.309,2.691,6,6,6s6-2.691,6-6c0-2.976-2.13-5.466-5.064-5.922-.546-.085-.92-.596-.835-1.142,.086-.546,.6-.917,1.142-.835,3.915,.608,6.757,3.93,6.757,7.898,0,4.411-3.589,8-8,8Z"/>
  <circle class="cls-5" cx="70" cy="68" r="3"/>
  <path d="M70,72c-2.206,0-4-1.794-4-4s1.794-4,4-4,4,1.794,4,4-1.794,4-4,4Zm0-6c-1.103,0-2,.897-2,2s.897,2,2,2,2-.897,2-2-.898-2-2-2Z"/>
  <path d="M79.64,109h-19.14c-.553,0-1-.447-1-1s.447-1,1-1h19.14c.553,0,1,.447,1,1s-.447,1-1,1Z"/>
  <path d="M113.21,109h-4.99c-.553,0-1-.447-1-1s.447-1,1-1h4.99c.553,0,1,.447,1,1s-.447,1-1,1Z"/>
  <path d="M104.64,109h-20.46c-.553,0-1-.447-1-1s.447-1,1-1h20.46c.553,0,1,.447,1,1s-.447,1-1,1Z"/>
  <path d="M56.5,109H16.21c-.553,0-1-.447-1-1s.447-1,1-1H56.5c.553,0,1,.447,1,1s-.447,1-1,1Z"/>
  <g>
    <path class="cls-6" d="M42.77,21.802c-.415-.364-.456-.996-.091-1.411,1.637-1.864,1.453-4.713-.412-6.351-.415-.364-.456-.996-.091-1.411,.364-.415,.996-.456,1.411-.092,1.864,1.637,4.713,1.453,6.351-.412,.364-.415,.996-.456,1.411-.091,.415,.364,.456,.996,.091,1.411-1.637,1.864-1.453,4.713,.412,6.351,.415,.364,.456,.996,.091,1.411-.364,.415-.996,.456-1.411,.091-1.864-1.637-4.713-1.453-6.351,.412-.364,.415-.996,.456-1.411,.091Z"/>
    <path d="M44.789,18.307c-.545,0-.99-.436-1-.983-.021-1.272-.561-2.438-1.519-3.28,0,0-.002-.002-.003-.003h0c-.415-.364-.456-.996-.091-1.411,.364-.414,.995-.455,1.411-.091h0s0,.001,.002,.001c.903,.793,2.054,1.189,3.259,1.109,1.198-.077,2.296-.618,3.09-1.522h0c.364-.415,.995-.456,1.411-.091,.415,.364,.456,.996,.091,1.411h0c-.891,1.015-1.277,2.352-1.06,3.668,.09,.545-.278,1.059-.823,1.149-.555,.099-1.06-.279-1.149-.823-.114-.688-.114-1.38-.008-2.052-.932,.273-1.915,.337-2.874,.184,.163,.554,.254,1.131,.264,1.718,.01,.552-.431,1.007-.983,1.017h-.017Z"/>
  </g>
  <g>
    <path class="cls-1" d="M32.633,79.909c-2.2-.204-3.819-2.14-3.616-4.323,.202-2.184,2.15-3.789,4.35-3.585,2.2,.204,3.819,2.14,3.616,4.323-.202,2.184-2.15,3.789-4.35,3.585Z"/>
    <path d="M33.002,80.926c-.153,0-.307-.007-.461-.021-2.745-.255-4.772-2.683-4.521-5.411,.242-2.607,2.451-4.564,5.128-4.506,.552,.018,.985,.478,.969,1.031-.019,.552-.489,.975-1.031,.969-1.571-.035-2.929,1.133-3.073,2.69-.151,1.631,1.066,3.082,2.714,3.234,1.233,.119,2.434-.555,2.968-1.67,.238-.497,.835-.709,1.334-.471,.498,.238,.709,.835,.471,1.334-.826,1.728-2.595,2.819-4.497,2.819Z"/>
  </g>
  <g>
    <path d="M111.534,97.777c-.328,0-.649-.161-.841-.457l-1.617-2.499c-.3-.463-.167-1.082,.297-1.383,.463-.299,1.083-.168,1.383,.297l1.617,2.499c.3,.463,.167,1.082-.297,1.383-.168,.108-.355,.16-.542,.16Z"/>
    <path d="M107.724,91.888c-.328,0-.649-.161-.841-.457l-1.611-2.49c-.3-.464-.167-1.082,.297-1.383,.463-.299,1.083-.167,1.383,.297l1.611,2.49c.3,.464,.167,1.082-.297,1.383-.168,.108-.355,.16-.542,.16Z"/>
    <path d="M104.626,96.297c-.328,0-.649-.161-.841-.457-.3-.464-.167-1.083,.297-1.383l2.499-1.616c.464-.301,1.082-.167,1.383,.297,.3,.464,.167,1.083-.297,1.383l-2.499,1.616c-.168,.108-.357,.16-.542,.16Z"/>
    <path d="M110.516,92.486c-.328,0-.649-.161-.841-.457-.3-.464-.167-1.083,.297-1.383l2.491-1.611c.464-.301,1.083-.167,1.383,.297,.3,.464,.167,1.083-.297,1.383l-2.491,1.611c-.168,.108-.356,.16-.542,.16Z"/>
  </g>
  <path d="M93.029,26.59c-.172,0-.346-.044-.505-.138-.476-.279-.636-.892-.356-1.368l7.97-13.59c.279-.476,.891-.637,1.368-.356,.476,.279,.636,.892,.356,1.368l-7.97,13.59c-.186,.317-.52,.494-.863,.494Z"/>
  <path d="M83.999,42c-.172,0-.346-.044-.505-.138-.476-.279-.636-.892-.356-1.368l5.31-9.06c.278-.477,.891-.638,1.368-.356,.477,.278,.636,.892,.356,1.368l-5.31,9.06c-.185,.317-.519,.494-.863,.494Z"/>
  <path d="M88.001,45c-.346,0-.681-.179-.866-.499-.277-.478-.113-1.09,.364-1.366l19-11c.478-.279,1.089-.114,1.366,.364,.277,.478,.113,1.09-.364,1.366l-19,11c-.157,.092-.33,.135-.5,.135Z"/>
  <path d="M78.999,40c-.528,0-.97-.414-.998-.947l-1-19c-.028-.552,.394-1.022,.946-1.052,.534-.033,1.022,.394,1.052,.946l1,19c.028,.552-.395,1.022-.946,1.052-.017,.001-.036,.001-.054,.001Z"/>
</svg>