<?xml version="1.0" encoding="UTF-8"?>
<svg id="_08" data-name="08" xmlns="http://www.w3.org/2000/svg" viewBox="0 0 128 128">
  <defs>
    <style>
      .cls-1 {
        fill: #00c4f9;
      }

      .cls-2 {
        fill: #ed54a8;
      }

      .cls-3 {
        fill: #fff;
      }

      .cls-4 {
        fill: #ffd300;
      }

      .cls-5 {
        fill: #ff809e;
      }

      .cls-6 {
        fill: #a06507;
      }

      .cls-7 {
        fill: #b6fc00;
      }

      .cls-8 {
        fill: #6128dd;
      }

      .cls-9 {
        opacity: .4;
      }
    </style>
  </defs>
  <path class="cls-7" d="M95.28,101.71c-.2,.19-.47,.29-.75,.29h-7.07c-2.85,0-4.97-2.41-4.35-4.95l5.87-24.11,2.42-9.94h15.44c.5,2.05,.85,4.44,.95,7.04,.4,9.66-2.45,22.29-12.51,31.67Z"/>
  <path class="cls-8" d="M95.81,101.2c-1.35-.92-2.1-2.51-1.7-4.15l8.29-34.05h4.44c2.33,9.53,1.24,26.33-11.03,38.2Z"/>
  <g class="cls-9">
    <path d="M107.79,70.04c-5.18,1.59-11.68,2.64-18.81,2.9l2.42-9.94h15.44c.5,2.05,.85,4.44,.95,7.04Z"/>
  </g>
  <path d="M94.528,103h-7.069c-1.765,0-3.372-.759-4.411-2.082-.927-1.18-1.259-2.676-.911-4.103l8.296-34.053c.109-.448,.511-.763,.972-.763h15.44c.461,0,.862,.315,.972,.763,2.111,8.666,1.989,26.775-11.856,39.682-.378,.353-.9,.555-1.432,.555Zm-2.339-39l-8.109,33.29c-.205,.839-.013,1.689,.54,2.393,.658,.837,1.692,1.317,2.839,1.317h7.069c12.842-11.927,13.334-28.495,11.519-37h-13.857Z"/>
  <path d="M95.809,102.2c-.194,0-.39-.056-.562-.174-1.76-1.201-2.587-3.247-2.107-5.214l8.29-34.049c.109-.448,.511-.764,.972-.764h4.439c.553,0,1,.448,1,1s-.447,1-1,1h-3.653l-8.104,33.286c-.285,1.168,.21,2.351,1.291,3.088,.456,.311,.574,.933,.263,1.39-.193,.284-.508,.436-.827,.436Z"/>
  <path class="cls-7" d="M114.76,21.98c-.71,2.23-2.3,2.18-2.74,5.08-.5,3.26,1.46,3.73,.96,7-.5,3.26-2.46,2.79-2.96,6.06-.5,3.26,1.46,3.74,.96,7.01-.43,2.8-1.94,2.85-2.67,4.88l-46.31,.99c2.99-24.92,28.83-32.95,52.76-31.02Z"/>
  <path class="cls-3" d="M114.76,21.98c-.09,.28-.2,.53-.31,.75-21.94-.4-43.96,7.91-47.3,30.16l-5.15,.11c2.99-24.92,28.83-32.95,52.76-31.02Z"/>
  <g>
    <path d="M93,75h-4.28c-.553,0-1-.448-1-1s.447-1,1-1h4.28c.553,0,1,.448,1,1s-.447,1-1,1Z"/>
    <path d="M92,80h-4.5c-.553,0-1-.448-1-1s.447-1,1-1h4.5c.553,0,1,.448,1,1s-.447,1-1,1Z"/>
    <path d="M91,85h-4.71c-.553,0-1-.448-1-1s.447-1,1-1h4.71c.553,0,1,.448,1,1s-.447,1-1,1Z"/>
    <path d="M90,90h-4.93c-.553,0-1-.448-1-1s.447-1,1-1h4.93c.553,0,1,.448,1,1s-.447,1-1,1Z"/>
    <path d="M89,95h-5.15c-.553,0-1-.448-1-1s.447-1,1-1h5.15c.553,0,1,.448,1,1s-.447,1-1,1Z"/>
  </g>
  <path d="M62,54c-.282,0-.551-.119-.741-.329-.195-.214-.287-.503-.252-.791,1.03-8.578,4.738-15.667,11.02-21.069,.42-.359,1.051-.312,1.41,.106,.36,.418,.313,1.05-.105,1.41-5.611,4.825-9.034,11.093-10.184,18.647l44.499-.951c.335-.659,.737-1.116,1.103-1.531,.579-.658,1.036-1.177,1.242-2.515,.209-1.37-.084-2.123-.425-2.995-.388-.994-.827-2.12-.536-4.014,.294-1.926,1.052-2.786,1.72-3.545,.579-.657,1.036-1.176,1.241-2.515,.209-1.37-.084-2.12-.424-2.989-.389-.992-.828-2.116-.537-4.011,.293-1.927,1.051-2.786,1.719-3.543,.152-.172,.293-.332,.423-.497-12.475-.79-24.079,1.244-32.812,5.77-.491,.254-1.095,.061-1.348-.428-.254-.49-.062-1.094,.428-1.348,9.413-4.878,21.985-6.966,35.4-5.879,.304,.024,.579,.186,.749,.439,.17,.253,.215,.57,.123,.86-.373,1.171-.952,1.827-1.463,2.406-.58,.656-1.037,1.174-1.242,2.521-.209,1.365,.084,2.113,.423,2.98,.389,.994,.829,2.12,.538,4.021-.294,1.918-1.05,2.776-1.717,3.534-.58,.659-1.038,1.179-1.244,2.526-.209,1.364,.084,2.115,.423,2.985,.389,.996,.829,2.124,.538,4.025-.295,1.917-1.051,2.776-1.717,3.533-.408,.463-.76,.863-1.001,1.534-.141,.39-.506,.652-.92,.662l-46.31,.99h-.021Z"/>
  <path class="cls-5" d="M69.659,46.835c6.414-16.271,27.05-18.803,36.282-19.096-.069,2.342,.563,3.961,.97,5.001,.043,.109,.091,.216,.131,.33-.015,.016-.029,.033-.044,.049-.836,.95-2.394,2.719-2.909,6.094-.494,3.217,.329,5.327,.821,6.587,.035,.092,.075,.184,.111,.278l-35.362,.756Z"/>
  <path d="M69.659,47.835c-.327,0-.634-.16-.82-.429-.191-.274-.232-.626-.11-.938,6.684-16.954,28.229-19.445,37.182-19.729,.243-.022,.542,.097,.737,.292,.195,.195,.302,.462,.294,.738-.063,2.138,.517,3.623,.9,4.607l.04,.096c.035,.087,.071,.175,.104,.267,.122,.347,.044,.733-.203,1.005-.857,.974-2.233,2.538-2.705,5.621-.453,2.954,.279,4.831,.765,6.072l.114,.286c.115,.304,.076,.645-.105,.915-.182,.269-.482,.434-.808,.441l-35.362,.756h-.021Zm35.296-19.057c-8.786,.414-27.152,3.002-33.761,17.024l32.395-.693c-.452-1.357-.901-3.369-.489-6.047,.492-3.221,1.853-5.088,2.788-6.19-.353-.917-.833-2.274-.934-4.093Z"/>
  <path class="cls-2" d="M34,44v25c7.18,0,13-5.596,13-12.5s-5.82-12.5-13-12.5Z"/>
  <g class="cls-9">
    <path d="M47,56.5c0,6.9-5.82,12.5-13,12.5v-4c6.47,0,11.84-4.55,12.83-10.5,.11,.65,.17,1.32,.17,2Z"/>
  </g>
  <g class="cls-9">
    <path class="cls-3" d="M47,56.5c0,.68-.06,1.35-.17,2-.99-5.95-6.36-10.5-12.83-10.5v-4c7.18,0,13,5.6,13,12.5Z"/>
  </g>
  <path d="M34,70c-.552,0-1-.448-1-1v-25c0-.552,.448-1,1-1,7.72,0,14,6.056,14,13.5s-6.28,13.5-14,13.5Zm1-24.96v22.921c6.15-.489,11-5.442,11-11.46s-4.85-10.972-11-11.46Z"/>
  <ellipse class="cls-2" cx="85.5" cy="56.5" rx="34.5" ry="12.5"/>
  <g class="cls-9">
    <path d="M118.31,60.38c-4.51,5-17.5,8.62-32.81,8.62-19.05,0-34.5-5.6-34.5-12.5,0-2.54,2.09-4.91,5.69-6.88-1.1,1.22-1.69,2.53-1.69,3.88,0,6.9,15.45,12.5,34.5,12.5,12.04,0,22.64-2.24,28.81-5.62Z"/>
  </g>
  <g class="cls-9">
    <path class="cls-3" d="M120,56.5c-3.72-5.45-17.31-9.5-33.5-9.5-19.04,0-34.48,5.59-34.5,12.49-.66-.96-1-1.96-1-2.99,0-6.9,15.45-12.5,34.5-12.5s34.5,5.6,34.5,12.5Z"/>
  </g>
  <path d="M85.5,70c-19.906,0-35.5-5.93-35.5-13.5s15.594-13.5,35.5-13.5c1.992,0,3.962,.061,5.853,.182,.552,.035,.97,.511,.935,1.062-.036,.551-.515,.968-1.061,.934-1.851-.118-3.776-.178-5.727-.178-20.039,0-33.5,5.946-33.5,11.5s13.461,11.5,33.5,11.5,33.5-5.946,33.5-11.5c0-4.602-8.888-9.014-21.614-10.729-.547-.074-.931-.578-.857-1.125,.073-.547,.566-.929,1.125-.857,14.183,1.912,23.347,6.901,23.347,12.711,0,7.57-15.594,13.5-35.5,13.5Z"/>
  <ellipse class="cls-4" cx="95.5" cy="56.5" rx="16.5" ry="7.661"/>
  <path d="M95.5,65.161c-9.814,0-17.5-3.804-17.5-8.661s7.686-8.661,17.5-8.661,17.5,3.804,17.5,8.661-7.687,8.661-17.5,8.661Zm0-15.321c-9.272,0-15.5,3.444-15.5,6.661s6.228,6.661,15.5,6.661,15.5-3.444,15.5-6.661-6.229-6.661-15.5-6.661Z"/>
  <rect class="cls-4" x="19" y="54" width="15" height="5"/>
  <path d="M34,60h-15c-.552,0-1-.448-1-1v-5c0-.552,.448-1,1-1h15c.552,0,1,.448,1,1v5c0,.552-.448,1-1,1Zm-14-2h13v-3h-13v3Z"/>
  <path d="M30,67c-.552,0-1-.448-1-1v-19c0-.552,.448-1,1-1s1,.448,1,1v19c0,.552-.448,1-1,1Z"/>
  <path d="M25,63c-.552,0-1-.448-1-1v-11c0-.552,.448-1,1-1s1,.448,1,1v11c0,.552-.448,1-1,1Z"/>
  <circle class="cls-8" cx="63.5" cy="56.5" r="16.5"/>
  <g class="cls-9">
    <path d="M80,56.5c0,9.11-7.39,16.5-16.5,16.5-4.9,0-9.3-2.14-12.32-5.52,2.74,1.6,5.92,2.52,9.32,2.52,10.22,0,18.5-8.28,18.5-18.5,0-.24,0-.48-.01-.71,.65,1.78,1.01,3.7,1.01,5.71Z"/>
  </g>
  <g class="cls-9">
    <path class="cls-3" d="M75.82,45.52c-2.74-1.6-5.92-2.52-9.32-2.52-10.22,0-18.5,8.28-18.5,18.5,0,.24,0,.48,.01,.71-.65-1.78-1.01-3.7-1.01-5.71,0-9.11,7.39-16.5,16.5-16.5,4.9,0,9.3,2.14,12.32,5.52Z"/>
  </g>
  <circle class="cls-4" cx="63.5" cy="56.5" r="11.5"/>
  <path class="cls-3" d="M68.03,45.92c-3.1,.13-6.87,1.92-10.03,5.08s-4.95,6.93-5.08,10.03c-.59-1.39-.92-2.92-.92-4.53,0-6.35,5.15-11.5,11.5-11.5,1.61,0,3.14,.33,4.53,.92Z"/>
  <g class="cls-9">
    <path d="M75,56.5c0,6.35-5.15,11.5-11.5,11.5-1.61,0-3.14-.33-4.53-.92,3.1-.13,6.87-1.92,10.03-5.08s4.95-6.93,5.08-10.03c.59,1.39,.92,2.92,.92,4.53Z"/>
  </g>
  <path d="M63.5,69c-6.893,0-12.5-5.607-12.5-12.5s5.607-12.5,12.5-12.5,12.5,5.607,12.5,12.5-5.607,12.5-12.5,12.5Zm0-23c-5.79,0-10.5,4.71-10.5,10.5s4.71,10.5,10.5,10.5,10.5-4.71,10.5-10.5-4.71-10.5-10.5-10.5Z"/>
  <path d="M63.5,74c-9.649,0-17.5-7.851-17.5-17.5,0-4.855,2.041-9.536,5.599-12.842,.403-.377,1.038-.353,1.413,.052,.376,.404,.353,1.037-.052,1.413-3.152,2.93-4.96,7.076-4.96,11.377,0,8.547,6.953,15.5,15.5,15.5s15.5-6.953,15.5-15.5-6.953-15.5-15.5-15.5c-1.22,0-2.44,.145-3.625,.432-.531,.13-1.077-.2-1.207-.737-.129-.537,.2-1.077,.737-1.207,1.339-.324,2.716-.488,4.095-.488,9.649,0,17.5,7.851,17.5,17.5s-7.851,17.5-17.5,17.5Z"/>
  <circle class="cls-8" cx="17" cy="56.5" r="4.5"/>
  <g class="cls-9">
    <path d="M21.5,56.5c0,2.49-2.01,4.5-4.5,4.5-1.93,0-3.58-1.21-4.21-2.92,.75,.58,1.69,.92,2.71,.92,2.49,0,4.5-2.01,4.5-4.5,0-.56-.1-1.09-.29-1.58,1.09,.81,1.79,2.11,1.79,3.58Z"/>
  </g>
  <g class="cls-9">
    <path class="cls-3" d="M21.21,54.92c-.75-.58-1.69-.92-2.71-.92-2.49,0-4.5,2.01-4.5,4.5,0,.56,.1,1.09,.29,1.58-1.09-.81-1.79-2.11-1.79-3.58,0-2.49,2.01-4.5,4.5-4.5,1.93,0,3.58,1.21,4.21,2.92Z"/>
  </g>
  <path d="M17,62c-3.033,0-5.5-2.467-5.5-5.5s2.467-5.5,5.5-5.5,5.5,2.467,5.5,5.5-2.467,5.5-5.5,5.5Zm0-9c-1.93,0-3.5,1.57-3.5,3.5s1.57,3.5,3.5,3.5,3.5-1.57,3.5-3.5-1.57-3.5-3.5-3.5Z"/>
  <g>
    <path class="cls-6" d="M75.088,98.5c.545,.087,.917,.6,.829,1.146-.392,2.45,1.281,4.763,3.732,5.155,.545,.087,.917,.6,.829,1.146-.087,.545-.6,.917-1.146,.829-2.45-.392-4.763,1.281-5.155,3.732-.087,.545-.6,.917-1.146,.829-.545-.087-.917-.6-.829-1.146,.393-2.45-1.281-4.763-3.732-5.155-.545-.087-.917-.6-.829-1.146,.087-.545,.6-.917,1.146-.829,2.45,.392,4.763-1.281,5.155-3.732,.087-.545,.6-.917,1.145-.829Z"/>
    <path d="M73.19,111.349c-.053,0-.105-.004-.159-.013-.545-.087-.917-.6-.829-1.146,.214-1.334-.172-2.671-1.057-3.669-.366-.413-.329-1.045,.084-1.412,.412-.366,1.045-.33,1.412,.084,.463,.522,.832,1.108,1.1,1.733,.643-.728,1.441-1.306,2.334-1.687-.433-.381-.816-.822-1.138-1.312-.303-.462-.173-1.082,.29-1.384,.461-.303,1.082-.173,1.384,.29,.697,1.066,1.774,1.765,3.034,1.968,0,0,.002,0,.003,0h0c.545,.087,.917,.6,.829,1.146s-.603,.917-1.145,.829c-2.446-.393-4.762,1.28-5.155,3.731h0c-.079,.492-.504,.842-.986,.842Z"/>
  </g>
  <g>
    <path class="cls-1" d="M13.035,32.737c.122-2.206,1.995-3.896,4.185-3.775,2.19,.121,3.866,2.007,3.745,4.213-.122,2.206-1.996,3.896-4.185,3.775-2.19-.121-3.866-2.007-3.745-4.213Z"/>
    <path d="M15.415,37.614c-.133,0-.268-.027-.397-.083-1.898-.822-3.097-2.771-2.982-4.85,.073-1.332,.658-2.557,1.645-3.448,.989-.893,2.27-1.338,3.593-1.27,2.614,.144,4.676,2.32,4.693,4.955,.003,.552-.441,1.003-.994,1.006h-.006c-.549,0-.997-.443-1-.994-.01-1.58-1.242-2.884-2.804-2.97-.792-.047-1.553,.225-2.144,.759-.593,.535-.944,1.271-.988,2.073-.069,1.247,.646,2.414,1.78,2.904,.507,.219,.74,.808,.52,1.315-.163,.378-.531,.603-.918,.603Z"/>
  </g>
  <g>
    <path d="M86.534,19.777c-.328,0-.649-.161-.841-.456l-1.617-2.499c-.3-.464-.167-1.083,.297-1.383,.464-.3,1.083-.168,1.383,.296l1.617,2.499c.3,.464,.167,1.083-.297,1.383-.168,.109-.355,.161-.542,.161Z"/>
    <path d="M82.724,13.888c-.328,0-.649-.161-.841-.457l-1.611-2.491c-.3-.463-.167-1.083,.297-1.383,.464-.299,1.083-.168,1.383,.297l1.611,2.491c.3,.463,.167,1.083-.297,1.383-.168,.108-.355,.16-.542,.16Z"/>
    <path d="M79.626,18.297c-.328,0-.649-.161-.841-.457-.3-.463-.167-1.082,.297-1.383l2.499-1.617c.463-.299,1.082-.167,1.383,.297,.3,.463,.167,1.082-.297,1.383l-2.499,1.617c-.168,.108-.356,.16-.542,.16Z"/>
    <path d="M85.516,14.486c-.328,0-.649-.161-.841-.457-.3-.463-.167-1.083,.297-1.383l2.491-1.611c.464-.301,1.083-.167,1.383,.297,.3,.463,.167,1.083-.297,1.383l-2.491,1.611c-.168,.108-.356,.16-.542,.16Z"/>
  </g>
  <g>
    <path d="M51,39.001c-.402,0-.781-.244-.934-.642l-2.54-6.61c-.198-.516,.059-1.094,.575-1.292,.516-.197,1.094,.059,1.292,.575l2.54,6.61c.198,.516-.06,1.094-.575,1.293-.118,.045-.239,.067-.359,.067Z"/>
    <path d="M45.74,25.32c-.401,0-.78-.244-.933-.642l-4.74-12.32c-.199-.515,.059-1.094,.574-1.292,.512-.198,1.093,.059,1.292,.574l4.74,12.32c.199,.515-.059,1.094-.574,1.292-.118,.045-.239,.067-.359,.067Z"/>
    <path d="M56.001,38c-.054,0-.11-.004-.166-.014-.544-.091-.912-.606-.822-1.151l3-18c.091-.544,.601-.91,1.151-.822,.544,.091,.912,.606,.822,1.151l-3,18c-.081,.489-.505,.835-.985,.835Z"/>
    <path d="M46.999,42c-.219,0-.44-.072-.624-.219l-15-12c-.432-.345-.501-.974-.156-1.405,.345-.431,.976-.501,1.405-.156l15,12c.432,.345,.502,.974,.156,1.405-.197,.247-.488,.376-.781,.376Z"/>
  </g>
  <g>
    <path d="M48.45,83.63c-.12,0-.241-.022-.359-.067-.516-.198-.773-.776-.575-1.292l2.55-6.63c.199-.516,.778-.772,1.292-.574,.516,.198,.773,.776,.575,1.292l-2.55,6.63c-.153,.397-.532,.642-.934,.642Z"/>
    <path d="M41,103.001c-.12,0-.241-.022-.359-.067-.516-.199-.773-.777-.574-1.292l4.549-11.83c.199-.516,.778-.771,1.292-.575,.516,.199,.773,.777,.574,1.292l-4.549,11.83c-.153,.397-.532,.642-.934,.642Z"/>
    <path d="M58.999,96c-.48,0-.904-.347-.985-.835l-3-18c-.091-.545,.277-1.06,.822-1.151,.547-.091,1.06,.278,1.151,.822l3,18c.091,.545-.277,1.06-.822,1.151-.056,.009-.111,.014-.166,.014Z"/>
    <path d="M32,86c-.293,0-.584-.128-.781-.376-.345-.431-.275-1.06,.156-1.405l15-12c.43-.344,1.061-.276,1.405,.156,.345,.431,.275,1.06-.156,1.405l-15,12c-.184,.147-.405,.219-.624,.219Z"/>
  </g>
</svg>