<?xml version="1.0" encoding="UTF-8"?>
<svg id="_19" data-name="19" xmlns="http://www.w3.org/2000/svg" xmlns:xlink="http://www.w3.org/1999/xlink" viewBox="0 0 128 128">
  <defs>
    <style>
      .cls-1 {
        clip-path: url(#clippath);
      }

      .cls-2 {
        fill: #00c672;
      }

      .cls-3 {
        fill: #fff;
      }

      .cls-4 {
        fill: #ff5fff;
      }

      .cls-5 {
        fill: #a06507;
      }

      .cls-6 {
        fill: #b6fc00;
      }

      .cls-7 {
        fill: #32a066;
      }

      .cls-8 {
        fill: #53e8fc;
      }

      .cls-9 {
        opacity: .4;
      }
    </style>
    <clipPath id="clippath">
      <path class="cls-8" d="M92.046,47.954c5.272,5.272,5.272,13.82,0,19.092-5.272,5.272-13.82,5.272-19.092,0-5.272-5.272-5.272-13.82,0-19.092,5.272-5.272,13.82-5.272,19.092,0Z"/>
    </clipPath>
  </defs>
  <g>
    <ellipse class="cls-7" cx="42.5" cy="29" rx="2.5" ry="7"/>
    <path class="cls-7" d="M52.932,34.58c-.384,1.612-1.785,2.659-3.128,2.338-1.343-.32-2.12-1.886-1.736-3.498,.384-1.612,1.785-2.659,3.128-2.338,1.343,.32,2.12,1.886,1.736,3.498Z"/>
    <path class="cls-7" d="M33.068,35.58c.384,1.612,1.785,2.659,3.128,2.338,1.343-.32,2.12-1.886,1.736-3.498-.384-1.612-1.785-2.659-3.128-2.338-1.343,.32-2.12,1.886-1.736,3.498Z"/>
    <path class="cls-2" d="M49,73c-1-14-10-20-12-26-4-10,15-11,12,0-1,7,.667,10.667,5,16,5.417,4.846,6.654,8.378,5,11-1.999,4.513-10,8-10-1Z"/>
    <path class="cls-2" d="M49,73c-1-14-10-20-12-26-4-10,15-11,12,0-1,7,.667,10.667,5,16,5.417,4.846,6.654,8.378,5,11-1.999,4.513-10,8-10-1Z"/>
  </g>
  <g class="cls-9">
    <path class="cls-3" d="M44.26,33.96c-.44,1.26-1.07,2.04-1.76,2.04-1.38,0-2.5-3.13-2.5-7s1.12-7,2.5-7c.08,0,.16,.01,.24,.04-.46,1.27-.74,3.02-.74,4.96,0,3.65,.99,6.64,2.26,6.96Z"/>
    <path class="cls-3" d="M52.84,34.9c-.48,1.43-1.78,2.32-3.04,2.02-1.34-.32-2.12-1.89-1.73-3.5,.28-1.19,1.12-2.08,2.09-2.32-.03,.1-.06,.21-.09,.32-.39,1.61,.39,3.18,1.73,3.5,.35,.08,.7,.07,1.04-.02Z"/>
    <path class="cls-3" d="M37.96,35.96c-.22,.98-.86,1.75-1.76,1.96-1.35,.32-2.75-.73-3.13-2.34-.39-1.61,.39-3.18,1.73-3.5,.08-.02,.16-.04,.24-.04-.1,.48-.1,1.01,.03,1.54,.36,1.51,1.61,2.53,2.89,2.38Z"/>
    <path class="cls-3" d="M58.26,75.26c-2.72,3.8-9.26,5.88-9.26-2.26-1-14-10-20-12-26-1.33-3.33-.11-5.66,1.99-6.88-.67,1.26-.79,2.89,.01,4.88,2,6,11,12,12,26,0,6.51,4.19,6.49,7.26,4.26Z"/>
    <path class="cls-3" d="M58.26,75.26c-2.72,3.8-9.26,5.88-9.26-2.26-1-14-10-20-12-26-1.33-3.33-.11-5.66,1.99-6.88-.67,1.26-.79,2.89,.01,4.88,2,6,11,12,12,26,0,6.51,4.19,6.49,7.26,4.26Z"/>
  </g>
  <g>
    <path d="M42.5,37c-1.698,0-2.963-2.158-3.383-5.774-.063-.549,.329-1.045,.878-1.108,.556-.064,1.046,.33,1.108,.878,.326,2.803,1.162,3.933,1.413,4.007,.384-.124,1.483-2.157,1.483-6.002s-1.1-5.878-1.518-6.002c-.182,.066-.894,.963-1.265,3.271-.088,.546-.603,.919-1.145,.829-.545-.087-.917-.601-.829-1.146,.505-3.147,1.691-4.952,3.257-4.952,2.404,0,3.5,4.146,3.5,8s-1.096,8-3.5,8Z"/>
    <path d="M50.287,37.975c-.237,0-.477-.027-.715-.084-.943-.225-1.718-.861-2.18-1.793-.432-.87-.537-1.903-.297-2.91,.513-2.145,2.458-3.52,4.332-3.078,.943,.225,1.718,.861,2.18,1.793,.432,.87,.537,1.903,.297,2.91-.447,1.872-1.985,3.162-3.617,3.162Zm.423-5.949c-.716,0-1.444,.685-1.669,1.627-.13,.544-.078,1.111,.143,1.557,.194,.39,.496,.651,.852,.736,.778,.184,1.672-.542,1.923-1.598,.13-.544,.078-1.111-.143-1.557-.194-.39-.496-.651-.852-.736-.083-.019-.168-.029-.254-.029Z"/>
    <path d="M35.713,38.975c-1.633,0-3.17-1.29-3.617-3.162-.24-1.007-.135-2.04,.297-2.91,.462-.932,1.236-1.568,2.179-1.793,1.883-.448,3.82,.934,4.333,3.078,.24,1.007,.135,2.04-.297,2.91-.462,.932-1.236,1.568-2.179,1.793-.239,.057-.478,.084-.716,.084Zm-.424-5.949c-.085,0-.17,.01-.254,.029-.355,.085-.657,.347-.852,.736-.221,.445-.272,1.013-.143,1.557,.251,1.055,1.134,1.782,1.924,1.598,.355-.085,.657-.347,.852-.736,.221-.445,.272-1.013,.143-1.557-.225-.942-.953-1.627-1.67-1.627Z"/>
    <path d="M52.655,79.608c-.32,0-.637-.031-.946-.097-1.386-.294-3.709-1.53-3.709-6.512-.364-5.106-1.875-9.685-4.751-14.334-.29-.47-.146-1.086,.324-1.377,.47-.291,1.086-.145,1.377,.324,3.053,4.936,4.656,9.803,5.047,15.316,.003,1.943,.371,4.253,2.126,4.625,1.949,.418,4.895-1.55,5.963-3.96,.02-.044,.042-.087,.068-.128,1.445-2.295-.177-5.565-4.821-9.722-.039-.035-.076-.073-.109-.114-4.385-5.398-6.283-9.284-5.214-16.773,.006-.041,.015-.081,.025-.121,.698-2.56,.126-4.52-1.654-5.672-2.151-1.393-5.605-1.225-7.54,.367-1.472,1.211-1.787,3.008-.912,5.196,.642,1.928,2.072,3.89,3.728,6.162,.326,.446,.228,1.071-.219,1.396s-1.072,.227-1.396-.219c-1.756-2.407-3.272-4.486-3.991-6.654-1.175-2.932-.629-5.659,1.519-7.427,2.591-2.131,7.03-2.356,9.897-.502,2.494,1.614,3.408,4.46,2.514,7.816-.948,6.726,.699,10.115,4.745,15.107,5.475,4.916,7.163,8.896,5.158,12.163-1.202,2.635-4.361,5.136-7.229,5.137Z"/>
  </g>
  <g>
    <ellipse class="cls-7" cx="77.152" cy="50" rx="2.5" ry="7"/>
    <path class="cls-7" d="M66.72,55.58c.384,1.612,1.785,2.659,3.128,2.338,1.343-.32,2.12-1.886,1.736-3.498-.384-1.612-1.785-2.659-3.128-2.338-1.343,.32-2.12,1.886-1.736,3.498Z"/>
    <path class="cls-7" d="M86.584,56.58c-.384,1.612-1.785,2.659-3.128,2.338-1.343-.32-2.12-1.886-1.736-3.498,.384-1.612,1.785-2.659,3.128-2.338,1.343,.32,2.12,1.886,1.736,3.498Z"/>
    <path class="cls-2" d="M70.652,94c1-14,10-20,12-26,4-10-15-11-12,0,1,7-.667,10.667-5,16-5.417,4.846-6.654,8.378-5,11,1.998,4.513,10,8,10-1Z"/>
  </g>
  <g class="cls-9">
    <path d="M79.65,50c0,1.76-.23,3.35-.61,4.58-.1,.3-.2,.59-.32,.84,0,.01-.01,.03-.01,.04-.43,.97-.97,1.54-1.56,1.54-.57,0-1.08-.52-1.5-1.41,.61-1.28,1-3.3,1-5.59s-.39-4.31-1-5.59c.42-.89,.93-1.41,1.5-1.41,1.38,0,2.5,3.13,2.5,7Z"/>
    <path d="M69.85,57.92c-.71,.17-1.44-.05-2.03-.52,.71-.67,1.04-1.81,.76-2.98-.18-.75-.58-1.38-1.09-1.81,.27-.26,.6-.44,.97-.53,1.34-.32,2.74,.73,3.12,2.34,.39,1.61-.39,3.18-1.73,3.5Z"/>
    <path d="M86.58,56.58c-.38,1.61-1.78,2.66-3.12,2.34-.37-.09-.7-.27-.97-.53,.51-.43,.91-1.06,1.09-1.81,.28-1.17-.05-2.31-.76-2.98,.59-.47,1.32-.69,2.03-.52,1.34,.32,2.12,1.89,1.73,3.5Z"/>
    <path d="M82.65,68c-2,6-11,12-12,26,0,5.17-2.64,6.22-5.27,5.32,1.32-.6,2.27-2.22,2.27-5.32,1-14,10-20,12-26,1.78-4.46-1.01-7.13-4.39-7.74,4.36-.8,9.7,1.98,7.39,7.74Z"/>
  </g>
  <g class="cls-9">
    <path d="M79.04,54.58c-.1,.3-.2,.59-.32,.84,.07-.3,.18-.58,.32-.84Z"/>
  </g>
  <g>
    <path d="M77.152,58c-2.404,0-3.5-4.146-3.5-8s1.096-8,3.5-8,3.5,4.146,3.5,8-1.096,8-3.5,8Zm-.017-14.002c-.383,.124-1.482,2.157-1.482,6.002s1.1,5.878,1.518,6.002c.383-.124,1.482-2.157,1.482-6.002s-1.1-5.878-1.517-6.002Z"/>
    <path d="M69.351,58.977c-.706,0-1.405-.239-2.024-.702-.778-.581-1.339-1.456-1.578-2.463-.24-1.006-.135-2.039,.297-2.909,.462-.932,1.236-1.568,2.179-1.793,1.885-.447,3.82,.934,4.333,3.078,.24,1.007,.135,2.04-.297,2.91-.462,.932-1.236,1.568-2.179,1.793-.242,.058-.486,.086-.73,.086Zm-.408-5.951c-.086,0-.17,.01-.254,.029-.356,.085-.658,.347-.853,.736-.221,.445-.272,1.013-.142,1.557h0c.13,.545,.433,1.027,.83,1.325,.348,.261,.73,.355,1.094,.272,.355-.085,.657-.347,.852-.736,.221-.445,.272-1.013,.142-1.557-.225-.942-.953-1.627-1.669-1.627Z"/>
    <path d="M83.939,59.975c-.237,0-.477-.027-.716-.084-.942-.225-1.717-.861-2.179-1.793-.432-.87-.537-1.903-.297-2.91,.239-1.006,.8-1.881,1.578-2.462,.833-.623,1.815-.84,2.754-.616,.943,.225,1.718,.861,2.18,1.793,.432,.87,.537,1.903,.297,2.91-.447,1.872-1.985,3.162-3.617,3.162Zm.421-5.95c-.281,0-.57,.104-.837,.303-.397,.298-.7,.78-.83,1.324-.13,.545-.078,1.112,.142,1.558,.194,.39,.496,.651,.853,.736,.796,.188,1.672-.543,1.923-1.598,.13-.544,.078-1.111-.142-1.557-.194-.39-.496-.651-.853-.736-.084-.019-.17-.03-.256-.03Z"/>
    <path d="M66.996,100.609c-2.869,0-6.027-2.503-7.228-5.138-2.007-3.266-.319-7.246,5.158-12.163,4.046-4.991,5.693-8.38,4.745-15.107-.894-3.355,.019-6.201,2.514-7.815,2.869-1.855,7.309-1.627,9.897,.502,2.148,1.768,2.694,4.495,1.499,7.483-.702,2.11-2.204,4.18-3.943,6.577-3.269,4.502-7.334,10.104-7.985,19.088-.012,4.953-2.328,6.184-3.711,6.477-.31,.065-.626,.097-.945,.097Zm9.758-39.488c-1.253,0-2.503,.31-3.482,.944-1.78,1.151-2.353,3.112-1.654,5.672,.011,.04,.019,.08,.025,.121,1.069,7.489-.829,11.375-5.214,16.773-.033,.041-.07,.079-.109,.114-4.646,4.156-6.268,7.427-4.821,9.722,.026,.041,.049,.084,.068,.128,1.067,2.41,4.016,4.379,5.961,3.961,1.756-.371,2.125-2.683,2.125-4.556,0-.023,0-.048,.003-.071,.684-9.575,4.941-15.441,8.363-20.155,1.642-2.264,3.06-4.218,3.685-6.09,.894-2.243,.579-4.04-.893-5.251-1.054-.867-2.559-1.311-4.058-1.311Z"/>
  </g>
  <g>
    <path class="cls-4" d="M117.502,92.502h0c-2.088,2.088-5.518,1.931-7.406-.34l-20.242-24.338,2.97-2.97,24.338,20.242c2.27,1.888,2.427,5.318,.34,7.406Z"/>
    <path class="cls-6" d="M117.5,92.5c-2.09,2.09-5.52,1.93-7.4-.34l-7.4-8.9,5.56-5.56,8.9,7.4c2.27,1.88,2.43,5.31,.34,7.4Z"/>
    <path d="M113.952,94.972c-.092,0-.183-.002-.274-.006-1.686-.078-3.272-.866-4.351-2.164l-20.242-24.338c-.331-.398-.304-.981,.061-1.347l2.971-2.971c.366-.366,.949-.393,1.347-.061l24.338,20.242c1.298,1.078,2.086,2.664,2.164,4.351,.077,1.687-.563,3.338-1.757,4.531-1.129,1.129-2.667,1.763-4.257,1.763Zm-22.746-27.086l19.658,23.637c.731,.88,1.763,1.393,2.905,1.445,1.136,.051,2.217-.365,3.025-1.173,.809-.809,1.225-1.883,1.173-3.025-.053-1.142-.565-2.174-1.445-2.905l-23.637-19.658-1.68,1.68Z"/>
    <path class="cls-6" d="M103.006,71.642l-6.364,6.364c-.781,.781-2.047,.781-2.828,0h0c-.781-.781-.781-2.047,0-2.828l6.364-6.364c.781-.781,2.047-.781,2.828,0h0c.781,.781,.781,2.047,0,2.828Z"/>
    <path d="M95.227,79.591c-.767,0-1.536-.293-2.121-.878-1.17-1.17-1.17-3.072,0-4.242l6.364-6.364c1.17-1.17,3.072-1.17,4.242,0,1.17,1.17,1.17,3.073,0,4.243l-6.363,6.363c-.585,.585-1.353,.878-2.122,.878Zm6.364-10.362c-.256,0-.512,.097-.707,.292l-6.364,6.364c-.39,.39-.39,1.024,0,1.414,.391,.391,1.024,.392,1.415,0l6.363-6.363c.39-.391,.39-1.024,0-1.415-.195-.195-.451-.292-.707-.292Z"/>
    <path d="M102.693,84.263c-.256,0-.511-.097-.705-.291-.391-.391-.395-1.019-.005-1.409l5.569-5.569c.39-.39,1.027-.397,1.419-.005s.395,1.018,.005,1.409l-5.569,5.569c-.196,.196-.455,.296-.714,.296Z"/>
    <circle class="cls-4" cx="82.5" cy="57.5" r="17.5"/>
    <g class="cls-9">
      <path d="M94.87,69.87c-6.83,6.84-17.91,6.84-24.74,0-.51-.51-.98-1.04-1.41-1.59,6.86,5.39,16.83,4.92,23.15-1.41,6.33-6.32,6.8-16.29,1.41-23.15,.55,.43,1.08,.9,1.59,1.41,6.84,6.83,6.84,17.91,0,24.74Z"/>
    </g>
    <g class="cls-9">
      <path class="cls-3" d="M98.02,49.4c-.36-.44-.74-.86-1.15-1.27-6.83-6.84-17.91-6.84-24.74,0-5.55,5.54-6.6,13.87-3.15,20.47-5.67-6.87-5.28-17.05,1.15-23.47,6.83-6.84,17.91-6.84,24.74,0,1.29,1.29,2.34,2.73,3.15,4.27Z"/>
    </g>
    <path d="M82.5,76c-4.941,0-9.586-1.926-13.078-5.423-3.496-3.491-5.422-8.136-5.422-13.077s1.926-9.586,5.423-13.078c.276-.284,.599-.582,.975-.898,.425-.356,1.055-.3,1.408,.123,.355,.423,.3,1.054-.123,1.408-.283,.238-.568,.495-.834,.77-3.131,3.127-4.849,7.269-4.849,11.675s1.718,8.548,4.837,11.662c3.115,3.12,7.257,4.838,11.663,4.838s8.548-1.718,11.662-4.837c3.12-3.115,4.838-7.257,4.838-11.663s-1.718-8.548-4.837-11.662c-4.437-4.446-10.895-5.98-16.848-3.999-.524,.172-1.09-.11-1.265-.634-.174-.524,.11-1.091,.634-1.265,6.679-2.219,13.919-.502,18.893,4.483,3.496,3.49,5.422,8.135,5.422,13.076s-1.926,9.586-5.423,13.078c-3.491,3.496-8.136,5.422-13.077,5.422Z"/>
    <g>
      <path class="cls-8" d="M92.046,47.954c5.272,5.272,5.272,13.82,0,19.092-5.272,5.272-13.82,5.272-19.092,0-5.272-5.272-5.272-13.82,0-19.092,5.272-5.272,13.82-5.272,19.092,0Z"/>
      <g class="cls-1">
        <g>
          <g>
            <ellipse class="cls-7" cx="31.075" cy="13.205" rx="3.427" ry="9.596"/>
            <path class="cls-7" d="M45.375,20.855c-.527,2.209-2.447,3.644-4.288,3.205-1.841-.439-2.906-2.586-2.379-4.796s2.447-3.644,4.288-3.205c1.841,.439,2.906,2.586,2.379,4.795Z"/>
            <path class="cls-7" d="M18.145,22.226c.527,2.209,2.447,3.644,4.288,3.205,1.841-.439,2.906-2.586,2.379-4.796-.527-2.209-2.447-3.644-4.288-3.205-1.841,.439-2.906,2.586-2.379,4.796Z"/>
            <path class="cls-2" d="M39.985,73.523c-1.371-19.192-13.708-27.417-16.45-35.642-5.483-13.708,20.563-15.079,16.45,0-1.371,9.596,.914,14.622,6.854,21.934,7.426,6.643,9.122,11.484,6.854,15.079-2.74,6.187-13.708,10.967-13.708-1.371Z"/>
            <path class="cls-2" d="M39.985,73.523c-1.371-19.192-13.708-27.417-16.45-35.642-5.483-13.708,20.563-15.079,16.45,0-1.371,9.596,.914,14.622,6.854,21.934,7.426,6.643,9.122,11.484,6.854,15.079-2.74,6.187-13.708,10.967-13.708-1.371Z"/>
          </g>
          <g>
            <path d="M31.074,23.801c-2.906,0-4.427-5.33-4.427-10.596s1.521-10.596,4.427-10.596,4.428,5.33,4.428,10.596-1.521,10.596-4.428,10.596Zm0-19.191c-.855,0-2.427,3.264-2.427,8.596s1.571,8.596,2.427,8.596,2.428-3.264,2.428-8.596-1.572-8.596-2.428-8.596Z"/>
            <path d="M41.752,25.138c-.298,0-.599-.034-.898-.106-1.184-.282-2.157-1.085-2.741-2.262-.553-1.115-.687-2.442-.378-3.738,.308-1.295,1.027-2.419,2.024-3.165,1.052-.786,2.282-1.063,3.468-.78,1.184,.282,2.158,1.085,2.742,2.262,.553,1.115,.687,2.442,.378,3.738-.572,2.396-2.527,4.051-4.596,4.051Zm.571-8.157c-.463,0-.935,.167-1.366,.489-.622,.466-1.076,1.186-1.276,2.026-.201,.842-.121,1.688,.225,2.386,.315,.635,.817,1.062,1.413,1.205,1.307,.311,2.685-.795,3.084-2.465,.201-.841,.121-1.688-.225-2.385-.315-.635-.817-1.062-1.414-1.205-.145-.034-.292-.052-.44-.052Z"/>
            <path d="M21.752,26.511c-.889,0-1.772-.303-2.555-.889-.997-.745-1.716-1.869-2.024-3.164h0c-.31-1.296-.175-2.623,.378-3.738,.584-1.177,1.558-1.98,2.741-2.263,2.375-.563,4.839,1.204,5.493,3.945,.653,2.743-.747,5.435-3.12,6.001-.303,.072-.608,.107-.913,.107Zm-.552-8.16c-.147,0-.297,.017-.444,.052-1.301,.311-2.036,1.922-1.638,3.591h0c.2,.842,.654,1.561,1.276,2.027,.567,.424,1.212,.578,1.806,.438,1.302-.31,2.037-1.922,1.64-3.592-.353-1.48-1.48-2.516-2.64-2.516Z"/>
            <path d="M45.014,82.214c-.418,0-.83-.041-1.235-.126-1.786-.378-4.782-1.989-4.793-8.529-.897-12.43-6.508-20.159-11.017-26.371-2.367-3.261-4.411-6.077-5.382-8.99-1.555-3.882-.846-7.467,1.965-9.78,3.435-2.825,9.326-3.126,13.131-.663,3.28,2.123,4.476,5.885,3.284,10.329-1.328,9.383,.965,14.093,6.6,21.039,7.381,6.621,9.676,11.935,7.012,16.243-1.587,3.507-5.774,6.848-9.564,6.849ZM31.625,28.085c-2.144,0-4.295,.637-5.802,1.877-2.155,1.773-2.625,4.383-1.359,7.548,.893,2.676,2.853,5.376,5.123,8.503,4.663,6.424,10.466,14.419,11.395,27.438,.002,.023,.003,.048,.003,.071,0,2.705,.557,6.048,3.207,6.608,2.811,.589,7.062-2.2,8.587-5.643,.019-.044,.042-.087,.068-.128,2.096-3.321-.15-7.964-6.675-13.801-.039-.035-.076-.073-.109-.114-5.942-7.314-8.516-12.577-7.068-22.706,.006-.041,.015-.081,.025-.121,1.268-4.649-.619-7.017-2.425-8.185-1.398-.905-3.182-1.349-4.971-1.349Z"/>
          </g>
          <g>
            <ellipse class="cls-7" cx="78.578" cy="41.993" rx="3.427" ry="9.596"/>
            <path class="cls-7" d="M64.277,49.642c.527,2.209,2.447,3.644,4.288,3.205,1.841-.439,2.906-2.586,2.379-4.796s-2.447-3.644-4.288-3.205c-1.841,.439-2.906,2.586-2.379,4.796Z"/>
            <path class="cls-7" d="M91.507,51.013c-.527,2.209-2.447,3.644-4.288,3.205-1.841-.439-2.906-2.586-2.379-4.796,.527-2.209,2.447-3.644,4.288-3.205,1.841,.439,2.906,2.586,2.379,4.795Z"/>
            <path class="cls-2" d="M69.667,102.31c1.371-19.192,13.708-27.417,16.45-35.642,5.483-13.709-20.563-15.079-16.45,0,1.371,9.596-.914,14.622-6.854,21.934-7.426,6.643-9.122,11.484-6.854,15.079,2.74,6.187,13.708,10.967,13.708-1.371Z"/>
          </g>
          <g class="cls-9">
            <path d="M82.002,41.993c0,2.413-.315,4.592-.836,6.278-.137,.411-.274,.809-.439,1.152,0,.014-.014,.041-.014,.055-.589,1.33-1.33,2.111-2.138,2.111-.781,0-1.48-.713-2.056-1.933,.836-1.755,1.371-4.524,1.371-7.663s-.535-5.908-1.371-7.663c.576-1.22,1.275-1.933,2.056-1.933,1.892,0,3.427,4.291,3.427,9.596Z"/>
            <path d="M68.567,52.85c-.973,.233-1.974-.069-2.783-.713,.973-.918,1.426-2.481,1.042-4.085-.247-1.028-.795-1.892-1.494-2.481,.37-.356,.822-.603,1.33-.727,1.837-.439,3.756,1.001,4.277,3.208,.534,2.207-.535,4.359-2.372,4.798Z"/>
            <path d="M91.502,51.013c-.521,2.207-2.44,3.646-4.277,3.208-.507-.123-.96-.37-1.33-.726,.699-.59,1.247-1.453,1.494-2.481,.384-1.604-.069-3.167-1.042-4.085,.809-.644,1.809-.946,2.783-.713,1.837,.439,2.906,2.591,2.372,4.798Z"/>
            <path d="M86.114,66.668c-2.742,8.225-15.079,16.45-16.45,35.642,0,7.087-3.619,8.527-7.224,7.293,1.809-.823,3.112-3.043,3.112-7.293,1.371-19.192,13.709-27.417,16.45-35.642,2.44-6.114-1.384-9.774-6.018-10.61,5.977-1.097,13.297,2.714,10.131,10.61Z"/>
          </g>
          <g>
            <path d="M78.577,52.589c-2.906,0-4.427-5.33-4.427-10.596s1.52-10.596,4.427-10.596,4.428,5.33,4.428,10.596-1.52,10.596-4.428,10.596Zm0-19.191c-.855,0-2.427,3.264-2.427,8.596s1.571,8.596,2.427,8.596,2.428-3.264,2.428-8.596-1.572-8.596-2.428-8.596Z"/>
            <path d="M67.885,53.928c-.889,0-1.772-.303-2.556-.889-.997-.745-1.716-1.869-2.024-3.165-.31-1.295-.175-2.622,.378-3.737,.584-1.177,1.558-1.98,2.741-2.263,2.381-.568,4.839,1.205,5.493,3.945,.654,2.742-.745,5.435-3.119,6.001-.303,.072-.608,.107-.913,.107Zm-.553-8.16c-.148,0-.297,.017-.444,.052-1.301,.311-2.036,1.922-1.638,3.591h0c.2,.842,.654,1.561,1.276,2.027,.568,.424,1.211,.578,1.807,.438,1.302-.31,2.037-1.922,1.639-3.591-.353-1.48-1.48-2.517-2.64-2.517Z"/>
            <path d="M87.884,55.297c-.298,0-.598-.034-.895-.106-1.186-.282-2.159-1.086-2.743-2.262-.553-1.115-.687-2.443-.378-3.739,.654-2.741,3.121-4.511,5.493-3.945,2.374,.566,3.773,3.259,3.119,6.001-.571,2.396-2.526,4.051-4.596,4.051Zm.567-8.159c-1.158,0-2.285,1.037-2.639,2.518-.201,.842-.121,1.688,.225,2.385,.315,.636,.817,1.064,1.415,1.206,1.297,.312,2.685-.795,3.082-2.464h0c.398-1.67-.337-3.281-1.639-3.592-.147-.035-.297-.053-.444-.053Z"/>
            <path d="M64.639,111.002c-3.791,0-7.978-3.341-9.564-6.849-2.664-4.308-.369-9.622,7.012-16.243,5.635-6.946,7.928-11.656,6.6-21.041-1.191-4.443,.004-8.205,3.284-10.327,3.805-2.462,9.695-2.164,13.131,.663,2.81,2.314,3.519,5.897,1.945,9.834-.951,2.859-2.995,5.676-5.362,8.936-4.509,6.212-10.119,13.941-11.017,26.371-.011,6.54-3.007,8.151-4.793,8.529-.404,.085-.817,.126-1.235,.126Zm13.389-54.129c-1.789,0-3.572,.443-4.972,1.349-1.805,1.168-3.691,3.536-2.424,8.184,.011,.04,.02,.08,.025,.121,1.447,10.13-1.126,15.392-7.068,22.706-.033,.041-.07,.079-.109,.114-6.524,5.837-8.77,10.48-6.675,13.802,.026,.041,.049,.084,.068,.128,1.524,3.442,5.772,6.235,8.587,5.642,2.65-.561,3.207-3.903,3.207-6.608,0-.023,.001-.048,.003-.071,.93-13.02,6.732-21.015,11.395-27.438,2.27-3.127,4.229-5.828,5.103-8.449,1.285-3.219,.815-5.829-1.339-7.602-1.508-1.24-3.659-1.877-5.803-1.877Z"/>
          </g>
        </g>
      </g>
    </g>
    <path d="M82.5,72c-3.873,0-7.514-1.508-10.253-4.247-2.739-2.739-4.247-6.38-4.247-10.253s1.508-7.514,4.247-10.253c2.739-2.739,6.38-4.247,10.253-4.247s7.514,1.508,10.253,4.247c2.739,2.739,4.247,6.38,4.247,10.253s-1.508,7.514-4.247,10.253c-2.739,2.739-6.38,4.247-10.253,4.247Zm0-27c-3.339,0-6.478,1.3-8.839,3.661-2.361,2.361-3.661,5.5-3.661,8.839s1.3,6.477,3.661,8.839c2.361,2.361,5.5,3.661,8.839,3.661s6.477-1.3,8.839-3.661c2.361-2.361,3.661-5.5,3.661-8.839s-1.3-6.477-3.661-8.839c-2.361-2.361-5.5-3.661-8.839-3.661Z"/>
  </g>
  <g>
    <path class="cls-5" d="M86.379,92.826c.533-.143,1.082,.173,1.225,.707,.643,2.397,3.115,3.823,5.512,3.18,.533-.143,1.082,.173,1.225,.707s-.173,1.082-.707,1.225c-2.397,.643-3.823,3.115-3.18,5.512,.143,.533-.173,1.082-.707,1.225s-1.082-.173-1.225-.707c-.643-2.397-3.115-3.823-5.512-3.18-.533,.143-1.082-.173-1.225-.707s.173-1.082,.707-1.225c2.397-.643,3.823-3.115,3.18-5.512-.143-.533,.173-1.082,.707-1.225Z"/>
    <path d="M89.487,105.417c-.441,0-.845-.294-.965-.74-.351-1.306-1.248-2.369-2.464-2.919-.503-.227-.727-.819-.499-1.323,.227-.503,.818-.728,1.323-.499,.634,.286,1.207,.669,1.706,1.128,.142-.455,.336-.898,.58-1.321,.246-.426,.534-.816,.859-1.17-.549-.171-1.077-.415-1.569-.73-.464-.299-.599-.918-.301-1.382,.3-.466,.918-.601,1.382-.302,1.072,.689,2.342,.885,3.576,.556h0c.534-.144,1.081,.173,1.225,.707,.144,.533-.174,1.082-.707,1.225h0c-1.161,.311-2.132,1.056-2.732,2.097-.6,1.039-.759,2.25-.448,3.41,0,.004,0,.006,0,.006,.144,.533-.173,1.081-.707,1.225-.086,.024-.174,.034-.26,.034Z"/>
  </g>
  <g>
    <path class="cls-2" d="M62.299,17.045c1.619-1.503,4.141-1.418,5.633,.189,1.492,1.607,1.389,4.129-.23,5.632-1.619,1.503-4.141,1.418-5.633-.189-1.492-1.607-1.389-4.129,.23-5.632Z"/>
    <path d="M67.878,23.689c-.248,0-.496-.092-.689-.275-.4-.381-.416-1.015-.035-1.414,1.09-1.144,1.109-2.938,.045-4.084-.539-.582-1.273-.916-2.069-.943-.801-.023-1.561,.26-2.149,.806-.916,.85-1.212,2.187-.736,3.326,.213,.51-.028,1.095-.538,1.308-.508,.214-1.094-.028-1.308-.538-.797-1.909-.306-4.144,1.221-5.561,.977-.907,2.261-1.379,3.578-1.339,1.332,.045,2.564,.606,3.469,1.582,1.781,1.919,1.754,4.916-.063,6.823-.197,.206-.461,.311-.725,.311Z"/>
  </g>
  <g>
    <path d="M29.979,66.89c-.328,0-.649-.161-.841-.457l-1.617-2.499c-.3-.463-.167-1.082,.297-1.383,.464-.299,1.083-.167,1.383,.297l1.617,2.499c.3,.463,.167,1.082-.297,1.383-.168,.108-.355,.16-.542,.16Z"/>
    <path d="M26.169,61c-.328,0-.649-.161-.841-.457l-1.611-2.491c-.3-.464-.167-1.083,.297-1.383,.464-.301,1.083-.167,1.383,.297l1.611,2.491c.3,.464,.167,1.083-.297,1.383-.168,.108-.356,.16-.542,.16Z"/>
    <path d="M23.071,65.409c-.328,0-.649-.161-.841-.457-.3-.463-.167-1.082,.297-1.383l2.499-1.617c.463-.3,1.082-.167,1.383,.297,.3,.463,.167,1.082-.297,1.383l-2.499,1.617c-.168,.108-.355,.16-.542,.16Z"/>
    <path d="M28.961,61.599c-.328,0-.649-.161-.841-.457-.3-.464-.167-1.083,.297-1.383l2.491-1.611c.464-.302,1.083-.166,1.383,.297,.3,.464,.167,1.083-.297,1.383l-2.491,1.611c-.168,.108-.356,.16-.542,.16Z"/>
  </g>
  <path d="M98.92,24c-.131,0-.263-.025-.39-.079-.509-.215-.746-.802-.531-1.311l5.08-12c.216-.511,.806-.744,1.31-.531,.509,.215,.746,.802,.531,1.311l-5.08,12c-.161,.382-.532,.61-.921,.61Z"/>
  <path d="M93,38c-.13,0-.263-.025-.39-.079-.509-.215-.746-.802-.531-1.311l3.48-8.23c.215-.508,.804-.747,1.31-.531,.509,.215,.746,.802,.531,1.311l-3.48,8.23c-.161,.381-.531,.61-.921,.61Z"/>
  <path d="M96.001,41c-.318,0-.631-.151-.825-.434-.312-.455-.197-1.077,.258-1.391l16-11c.455-.312,1.077-.197,1.391,.258,.312,.455,.197,1.077-.258,1.391l-16,11c-.173,.119-.37,.176-.565,.176Z"/>
  <path d="M87.999,36c-.448,0-.855-.303-.969-.758l-4-16c-.135-.535,.191-1.078,.727-1.212,.532-.137,1.078,.191,1.212,.727l4,16c.135,.535-.191,1.078-.727,1.212-.081,.021-.163,.03-.243,.03Z"/>
  <path d="M28.001,32c-.301,0-.599-.135-.795-.393l-3.65-4.769c-.336-.439-.252-1.065,.186-1.401,.437-.335,1.067-.252,1.401,.186l3.65,4.77c.336,.439,.252,1.065-.186,1.401-.181,.139-.394,.206-.606,.206Z"/>
  <path d="M21.901,24.02c-.301,0-.599-.135-.795-.392l-6.9-9.02c-.336-.439-.252-1.066,.186-1.401,.437-.335,1.067-.253,1.401,.186l6.9,9.019c.336,.439,.252,1.066-.186,1.401-.181,.139-.394,.206-.606,.206Z"/>
  <path d="M32,29c-.553,0-1-.447-1-1v-12c0-.553,.447-1,1-1s1,.447,1,1v12c0,.553-.447,1-1,1Z"/>
  <path d="M25,36c-.105,0-.211-.017-.316-.052l-12-4c-.523-.174-.807-.74-.632-1.265,.175-.523,.735-.808,1.265-.632l12,4c.523,.174,.807,.74,.632,1.265-.14,.419-.529,.684-.948,.684Z"/>
</svg>