<?xml version="1.0" encoding="UTF-8"?>
<svg id="_09" data-name="09" xmlns="http://www.w3.org/2000/svg" viewBox="0 0 128 128">
  <defs>
    <style>
      .cls-1 {
        fill: #00c672;
      }

      .cls-2 {
        fill: #fff;
      }

      .cls-3 {
        fill: #ffd300;
      }

      .cls-4 {
        fill: #ff5fff;
      }

      .cls-5 {
        fill: #a06507;
      }

      .cls-6 {
        fill: #dbcf9c;
      }

      .cls-7 {
        fill: #9d31cb;
      }

      .cls-8 {
        fill: #94f7c1;
      }

      .cls-9 {
        fill: #53e8fc;
      }

      .cls-10 {
        fill: #6128dd;
      }

      .cls-11 {
        opacity: .4;
      }
    </style>
  </defs>
  <path class="cls-8" d="M107.46,104.27l-32.12,8.57-26.42,7.04L12.91,42.64l-2.02-4.33,26.43-7.05,30.44-8.12,3.97-1.06,37.02,79.41c.53,1.13-.09,2.46-1.29,2.78Z"/>
  <g class="cls-11">
    <path d="M101.65,100.57l-26.31,12.27-26.42,7.04L12.91,42.64l24.41-11.38,26.3-12.26c1-.47,2.19-.04,2.66,.96l1.48,3.18,34.85,74.77c.47,1,.04,2.19-.96,2.66Z"/>
  </g>
  <path d="M48.92,120.88c-.381,0-.739-.219-.906-.578l-19.47-41.77c-.233-.501-.017-1.095,.483-1.329,.5-.234,1.095-.017,1.329,.484l19.116,41.01,57.729-15.394c.391-.104,.571-.383,.645-.541,.073-.158,.172-.478-.002-.848L71.179,23.262,12.3,38.969l14.656,31.439c.233,.501,.017,1.095-.483,1.329-.5,.234-1.096,.018-1.329-.484L9.983,38.732c-.125-.268-.125-.578,0-.846,.125-.268,.362-.467,.648-.543l60.841-16.23c.471-.128,.959,.105,1.164,.544l37.02,79.41c.378,.805,.38,1.731,.004,2.54-.376,.806-1.084,1.4-1.942,1.629l-58.54,15.61c-.086,.023-.173,.034-.258,.034Z"/>
  <path class="cls-10" d="M26.676,19.515H93.676c1.104,0,2,.896,2,2V107.515c0,1.104-.896,2-2,2H26.676V19.515h0Z" transform="translate(-21.53 31.891) rotate(-24.995)"/>
  <g class="cls-11">
    <path d="M109.65,91.57l-3.34,1.55-16.708-35.835c-1.385-2.971-.35-6.509,2.418-8.265h0l18.59,39.89c.47,1,.04,2.19-.96,2.66Z"/>
  </g>
  <g>
    <path class="cls-9" d="M59.301,49.82h2c9.934,0,18,8.065,18,18v10H41.3v-10c0-9.935,8.066-18,18-18Z" transform="translate(-21.319 31.456) rotate(-24.995)"/>
    <path d="M48.996,85.537c-.377,0-.737-.213-.907-.578l-4.226-9.064c-4.427-9.495-.303-20.822,9.192-25.249l1.812-.845c9.498-4.428,20.822-.302,25.249,9.192l4.226,9.064c.112,.24,.124,.515,.033,.765-.091,.249-.276,.452-.517,.564l-34.441,16.056c-.137,.064-.28,.094-.422,.094Zm13.874-35.513c-2.401,0-4.84,.511-7.156,1.591l-1.812,.845c-8.496,3.961-12.186,14.095-8.226,22.591l3.803,8.157,32.629-15.211-3.803-8.158c-2.881-6.179-9.027-9.815-15.435-9.815Z"/>
    <path class="cls-7" d="M61.145,65.633c-14.016,6.534-22.729,17.512-19.462,24.52l50.755-23.662c-3.267-7.008-17.277-7.392-31.293-.858Z"/>
    <ellipse class="cls-4" cx="67.061" cy="78.322" rx="28" ry="9" transform="translate(-26.813 35.671) rotate(-24.995)"/>
    <path d="M48.271,93.697c-3.968,0-6.532-1.058-7.494-3.123-1.232-2.642,.486-6.235,4.97-10.389,4.149-3.844,10.218-7.725,17.088-10.928,6.87-3.203,13.745-5.356,19.356-6.062,6.065-.764,9.922,.229,11.153,2.873,1.232,2.642-.486,6.235-4.971,10.389-4.148,3.844-10.218,7.725-17.088,10.927-6.87,3.203-13.745,5.356-19.356,6.062-1.326,.167-2.548,.25-3.658,.25Zm37.533-28.746c-1.017,0-2.144,.075-3.363,.229-5.411,.681-12.074,2.773-18.761,5.891-6.687,3.118-12.573,6.876-16.574,10.582-3.621,3.355-5.31,6.375-4.517,8.077,.793,1.703,4.196,2.351,9.09,1.733,5.411-.681,12.074-2.773,18.761-5.891,6.687-3.117,12.574-6.876,16.575-10.582,3.621-3.355,5.311-6.375,4.517-8.077h0c-.596-1.278-2.661-1.962-5.727-1.962Z"/>
    <path d="M41.685,91.152c-.377,0-.737-.213-.907-.578-1.749-3.75-.551-8.538,3.373-13.481,3.77-4.751,9.656-9.142,16.572-12.367,6.917-3.225,14.079-4.9,20.128-4.743,6.309,.173,10.746,2.334,12.494,6.084,.233,.5,.017,1.095-.483,1.329-.501,.233-1.096,.017-1.329-.484-1.411-3.028-5.225-4.779-10.736-4.93-5.785-.151-12.588,1.461-19.227,4.556-6.641,3.096-12.27,7.286-15.852,11.797-3.429,4.319-4.539,8.365-3.127,11.394,.233,.501,.017,1.095-.483,1.329-.137,.064-.28,.094-.422,.094Z"/>
    <g>
      <polygon class="cls-6" points="104.208 94.103 55.266 116.92 55.701 84.721 79.266 73.735 104.208 94.103"/>
      <path d="M55.266,117.92c-.189,0-.379-.054-.543-.16-.289-.187-.462-.509-.457-.854l.436-32.2c.008-.547,.454-.986,1-.986h.014c.552,.007,.994,.461,.986,1.014l-.414,30.606,46.055-21.471-23.709-19.361c-.428-.349-.491-.979-.142-1.407,.348-.428,.978-.494,1.407-.142l24.942,20.369c.267,.217,.402,.557,.359,.898s-.258,.637-.569,.782l-48.942,22.817c-.135,.063-.279,.094-.423,.094Z"/>
    </g>
    <path class="cls-3" d="M55.912,85.174c2.917,6.257,10.557,8.87,17.064,5.836,6.507-3.034,9.418-10.565,6.501-16.822-2.324-4.985-26.311,5.095-23.565,10.986Z"/>
    <path d="M67.329,93.271c-5.171,0-10.064-2.828-12.323-7.674h0c-1.716-3.68,3.85-7.871,9.629-10.566,4.642-2.163,13.909-5.214,15.749-1.265,3.145,6.747,.012,14.889-6.984,18.151-1.972,.919-4.042,1.354-6.07,1.354Zm-10.511-8.519c2.68,5.747,9.739,8.147,15.735,5.352,5.997-2.796,8.696-9.747,6.018-15.494-.699-1.501-6.446-.865-13.091,2.233-5.783,2.696-9.507,6.096-8.662,7.908h0Z"/>
    <path class="cls-2" d="M48.212,70.676c-.491,0-.919-.361-.989-.86-.817-5.806,2.109-11.554,7.282-14.304,.49-.259,1.093-.074,1.352,.414,.26,.488,.074,1.093-.413,1.352-4.434,2.356-6.942,7.282-6.241,12.258,.077,.547-.304,1.053-.851,1.13-.048,.007-.095,.01-.141,.01Z"/>
  </g>
  <path class="cls-3" d="M82.73,29.09L24.24,56.36l-4.05,1.89-9.3-19.94L46.63,21.65l24.99-11.65c1-.47,2.19-.04,2.66,.96l8.45,18.13Z"/>
  <path class="cls-2" d="M47.4,24.09c0,1.6-.89,3.15-2.47,3.88l-25.32,11.81c-1.4,.65-2.01,2.32-1.36,3.72l5.99,12.86-4.05,1.89-9.3-19.94L46.63,21.65c.52,.75,.77,1.6,.77,2.44Z"/>
  <rect class="cls-3" x="14.939" y="34.561" width="12.854" height="22" transform="translate(-17.25 13.295) rotate(-24.994)"/>
  <rect class="cls-1" x="14.939" y="34.561" width="12.854" height="22" transform="translate(-17.25 13.295) rotate(-24.994)"/>
  <g class="cls-11">
    <path class="cls-2" d="M34.24,77.82c1.04,2.23,.05,4.87-2.19,5.88L10.89,38.31,46.63,21.65h0c1.519,2.177,.707,5.197-1.699,6.319l-25.322,11.807c-1.403,.654-2.01,2.321-1.356,3.724l15.987,34.32Z"/>
  </g>
  <path d="M20.189,59.247c-.377,0-.737-.213-.907-.578l-9.296-19.939c-.233-.501-.017-1.095,.483-1.329l11.65-5.432c.241-.112,.516-.123,.765-.033,.25,.09,.452,.276,.564,.517l9.296,19.94c.112,.24,.124,.515,.033,.765-.091,.249-.276,.452-.517,.564l-11.65,5.431c-.137,.064-.28,.094-.422,.094Zm-7.968-20.456l8.45,18.126,9.838-4.586-8.45-18.127-9.838,4.586Z"/>
  <path d="M26.051,71.83c-.377,0-.737-.213-.907-.578L9.983,38.732c-.233-.501-.017-1.095,.483-1.329l18.96-8.84c.501-.235,1.096-.017,1.329,.484,.233,.5,.017,1.095-.483,1.329l-18.054,8.417,14.737,31.614c.233,.501,.017,1.095-.483,1.329-.137,.064-.28,.094-.422,.094Z"/>
  <path d="M48.92,120.88c-.115,0-.231-.02-.342-.061-.25-.09-.452-.276-.564-.517l-19.47-41.77c-.233-.501-.017-1.095,.483-1.329,.5-.234,1.095-.017,1.329,.484l19.047,40.863,59.824-27.887c.497-.233,.712-.83,.478-1.328L73.374,11.382c-.234-.497-.832-.709-1.328-.477L36.083,27.676c-.501,.234-1.096,.017-1.329-.483-.233-.501-.017-1.096,.483-1.329L71.197,9.094c1.495-.701,3.283-.057,3.987,1.44l36.332,77.954c.702,1.494,.056,3.284-1.441,3.987l-60.732,28.311c-.134,.062-.278,.094-.423,.094Z"/>
  <g>
    <path d="M46.548,41.306c-.115,0-.231-.02-.342-.061-.25-.09-.452-.276-.564-.517l-5.07-10.876c-.233-.5-.017-1.095,.483-1.329,.501-.234,1.096-.017,1.329,.484l4.647,9.969,4.531-2.112c.5-.235,1.095-.017,1.329,.484,.233,.501,.017,1.095-.483,1.329l-5.437,2.535c-.134,.062-.278,.094-.423,.094Z"/>
    <path d="M55.612,37.081c-.377,0-.737-.213-.907-.578l-5.07-10.876c-.233-.5-.017-1.095,.483-1.329,.5-.234,1.095-.017,1.329,.484l5.07,10.876c.233,.501,.017,1.095-.483,1.329-.137,.064-.28,.094-.422,.094Z"/>
    <g>
      <path d="M60.144,34.968c-.377,0-.737-.213-.907-.578l-5.07-10.876c-.112-.24-.124-.515-.033-.765,.091-.249,.276-.452,.517-.564l5.438-2.535c.501-.233,1.095-.017,1.329,.484,.233,.501,.017,1.095-.483,1.329l-4.532,2.113,4.225,9.063,4.532-2.113c.502-.234,1.096-.017,1.329,.484,.233,.501,.017,1.095-.483,1.329l-5.438,2.535c-.137,.064-.28,.094-.422,.094Z"/>
      <path d="M57.608,29.53c-.377,0-.737-.213-.907-.578-.233-.5-.017-1.095,.483-1.329l4.532-2.113c.501-.234,1.096-.017,1.329,.484,.233,.501,.017,1.095-.483,1.329l-4.532,2.113c-.137,.064-.28,.094-.422,.094Z"/>
    </g>
    <g>
      <path d="M33.857,47.222c-.534,0-.977-.422-.998-.961l-.505-12.806c-.016-.403,.211-.775,.576-.946,.366-.17,.796-.105,1.096,.166l9.484,8.621c.408,.371,.438,1.004,.067,1.413-.371,.409-1.005,.439-1.413,.067l-7.718-7.015,.41,10.421c.021,.552-.408,1.017-.96,1.039-.013,0-.026,.001-.04,.001Z"/>
      <path d="M33.56,41.845c-.377,0-.737-.213-.907-.578-.233-.501-.017-1.095,.483-1.329l5.438-2.535c.502-.234,1.096-.017,1.329,.484,.233,.501,.017,1.095-.483,1.329l-5.438,2.535c-.137,.064-.28,.094-.422,.094Z"/>
      <path d="M33.56,41.845c-.377,0-.737-.213-.907-.578-.233-.501-.017-1.095,.483-1.329l5.438-2.535c.502-.234,1.096-.017,1.329,.484,.233,.501,.017,1.095-.483,1.329l-5.438,2.535c-.137,.064-.28,.094-.422,.094Z"/>
    </g>
    <path d="M69.207,30.743c-.377,0-.737-.213-.907-.578l-5.07-10.876c-.196-.42-.077-.92,.287-1.208,.364-.287,.877-.287,1.241,.002l7.19,5.708-3.28-7.037c-.233-.501-.017-1.095,.483-1.329,.501-.235,1.096-.017,1.329,.484l5.07,10.876c.196,.421,.077,.92-.287,1.208-.364,.287-.877,.286-1.241-.002l-7.19-5.708,3.28,7.037c.233,.5,.017,1.095-.483,1.329-.137,.064-.28,.094-.422,.094Z"/>
  </g>
  <path d="M20.191,59.25c-.377,0-.737-.213-.907-.577l-9.301-19.94c-.112-.241-.124-.516-.033-.765,.091-.25,.276-.453,.517-.565l18.96-8.84c.501-.235,1.096-.017,1.329,.484,.233,.5,.017,1.095-.483,1.329l-18.054,8.417,8.455,18.128,60.728-28.315-8.027-17.224c-.234-.497-.832-.709-1.328-.477L36.083,27.676c-.501,.234-1.096,.017-1.329-.483-.233-.501-.017-1.096,.483-1.329L71.197,9.094c1.495-.701,3.283-.057,3.987,1.44l8.452,18.133c.233,.501,.017,1.095-.483,1.329L20.613,59.156c-.137,.064-.28,.094-.422,.094Z"/>
  <g>
    <path class="cls-5" d="M101.643,51.884c.088-.545,.601-.916,1.146-.828,2.45,.395,4.764-1.276,5.159-3.726,.088-.545,.601-.916,1.146-.828,.545,.088,.916,.601,.828,1.146-.395,2.45,1.276,4.764,3.726,5.159,.545,.088,.916,.601,.828,1.146-.088,.545-.601,.916-1.146,.828-2.45-.395-4.764,1.276-5.159,3.726-.088,.545-.601,.916-1.146,.828-.545-.088-.916-.601-.828-1.147,.395-2.45-1.276-4.764-3.726-5.159-.545-.088-.916-.601-.828-1.146Z"/>
    <path d="M108.997,56.085c-.276,0-.552-.114-.749-.337-.366-.413-.327-1.045,.086-1.412,.521-.461,1.105-.828,1.728-1.095-.356-.316-.682-.674-.968-1.07-.288-.398-.526-.822-.715-1.264-.381,.431-.82,.814-1.311,1.132-.461,.303-1.081,.171-1.384-.291-.302-.463-.171-1.082,.292-1.384,1.067-.696,1.767-1.774,1.971-3.036,.088-.545,.603-.917,1.146-.828,.546,.088,.916,.601,.828,1.146h0c-.395,2.45,1.276,4.764,3.725,5.159h0c.546,.088,.916,.602,.828,1.146s-.604,.917-1.146,.828c0,0-.002,0-.002,0-1.332-.214-2.671,.169-3.668,1.053-.19,.168-.427,.251-.663,.251Z"/>
  </g>
  <g>
    <path class="cls-1" d="M23.194,18.087c-.63-2.117,.564-4.341,2.666-4.966,2.102-.625,4.317,.585,4.946,2.702,.63,2.117-.564,4.341-2.666,4.966-2.102,.625-4.317-.585-4.946-2.702Z"/>
    <path d="M26.744,21.934c-.021,0-.043,0-.065-.002-2.064-.133-3.851-1.563-4.444-3.56-.38-1.279-.243-2.629,.387-3.801,.63-1.174,1.68-2.03,2.954-2.409,2.51-.746,5.185,.607,6.09,3.081,.189,.519-.077,1.093-.596,1.283-.517,.19-1.094-.077-1.283-.595-.543-1.484-2.142-2.297-3.641-1.851-.76,.226-1.386,.737-1.763,1.438-.378,.703-.46,1.515-.23,2.284,.355,1.197,1.423,2.055,2.655,2.134,.551,.036,.969,.511,.934,1.062-.034,.529-.475,.936-.997,.936Z"/>
  </g>
  <g>
    <path d="M26.777,114.777c-.328,0-.649-.161-.841-.457l-1.617-2.498c-.3-.464-.167-1.083,.297-1.383,.464-.301,1.082-.167,1.383,.296l1.617,2.498c.3,.464,.167,1.083-.297,1.383-.168,.109-.355,.161-.542,.161Z"/>
    <path d="M22.967,108.888c-.328,0-.649-.161-.841-.457l-1.611-2.491c-.3-.463-.167-1.082,.297-1.383,.464-.299,1.082-.167,1.383,.297l1.611,2.491c.3,.463,.167,1.083-.297,1.383-.168,.108-.355,.16-.542,.16Z"/>
    <path d="M19.869,113.297c-.328,0-.649-.161-.841-.457-.3-.463-.167-1.083,.297-1.383l2.499-1.617c.464-.3,1.083-.167,1.383,.297,.3,.463,.167,1.083-.297,1.383l-2.499,1.617c-.168,.108-.355,.16-.542,.16Z"/>
    <path d="M25.759,109.486c-.328,0-.649-.161-.841-.457-.3-.463-.167-1.083,.297-1.383l2.491-1.611c.465-.301,1.083-.167,1.383,.297,.3,.463,.167,1.083-.297,1.383l-2.491,1.611c-.168,.108-.356,.16-.542,.16Z"/>
  </g>
  <path d="M88.001,27c-.041,0-.083-.002-.125-.008-.548-.068-.937-.568-.868-1.116l2-16c.068-.547,.564-.936,1.116-.868,.548,.068,.936,.568,.868,1.116l-2,16c-.063,.506-.494,.876-.991,.876Z"/>
  <path d="M102.91,20.79c-.281,0-.562-.119-.76-.349-.359-.419-.311-1.051,.109-1.41l9.09-7.79c.419-.358,1.05-.31,1.41,.108,.359,.419,.31,1.051-.109,1.41l-9.09,7.79c-.188,.162-.42,.241-.65,.241Z"/>
  <path d="M91,31c-.281,0-.562-.119-.76-.35-.359-.419-.31-1.05,.109-1.41l7.33-6.28c.419-.358,1.05-.31,1.41,.109,.359,.419,.311,1.05-.109,1.41l-7.33,6.28c-.188,.162-.42,.241-.65,.241Z"/>
  <path d="M111,35h-18c-.553,0-1-.448-1-1s.447-1,1-1h18c.553,0,1,.448,1,1s-.447,1-1,1Z"/>
  <path d="M10,94c-.281,0-.561-.118-.759-.349-.359-.419-.311-1.05,.107-1.41l5.16-4.43c.418-.359,1.05-.312,1.41,.108,.359,.419,.312,1.05-.107,1.41l-5.16,4.43c-.188,.162-.42,.241-.651,.241Z"/>
  <path d="M19.19,86.13c-.281,0-.56-.118-.759-.349-.359-.419-.311-1.05,.107-1.41l4.809-4.13c.418-.358,1.049-.312,1.41,.107,.359,.419,.311,1.05-.107,1.41l-4.81,4.13c-.188,.162-.42,.241-.651,.241Z"/>
  <path d="M24.001,96c-.066,0-.131-.006-.197-.02-.541-.108-.893-.635-.784-1.177l2-10c.108-.542,.636-.894,1.177-.784,.541,.108,.893,.635,.784,1.177l-2,10c-.095,.475-.513,.804-.979,.804Z"/>
  <path d="M9.999,79c-.515,0-.952-.395-.995-.917-.046-.55,.362-1.034,.913-1.08l12-1c.56-.046,1.033,.364,1.079,.914,.046,.55-.362,1.034-.913,1.08l-12,1c-.028,.002-.057,.003-.084,.003Z"/>
</svg>