<?xml version="1.0" encoding="UTF-8"?>
<svg id="_07" data-name="07" xmlns="http://www.w3.org/2000/svg" viewBox="0 0 128 128">
  <defs>
    <style>
      .cls-1 {
        fill: #00c672;
      }

      .cls-2 {
        fill: #fff;
      }

      .cls-3 {
        fill: #ffd300;
      }

      .cls-4 {
        fill: #ff5fff;
      }

      .cls-5 {
        fill: #ff74ba;
      }

      .cls-6 {
        fill: #a06507;
      }

      .cls-7 {
        fill: #b6fc00;
      }

      .cls-8 {
        fill: #dff2ea;
      }

      .cls-9 {
        fill: #53e8fc;
      }

      .cls-10 {
        fill: #6128dd;
      }

      .cls-11 {
        opacity: .4;
      }
    </style>
  </defs>
  <path class="cls-5" d="M22,65c0,23,25,7,29,19l3-7c-11-14-23,6-32-12Z"/>
  <g class="cls-11">
    <path class="cls-2" d="M54,77l-.85,1.99c-10.67-11.89-22.18,6.23-30.93-10.55-.14-1.04-.22-2.18-.22-3.44,9,18,21-2,32,12Z"/>
  </g>
  <path d="M51,85.001c-.419,0-.809-.265-.949-.684-1.451-4.354-6.227-4.459-11.757-4.582-7.704-.17-17.294-.382-17.294-14.735,0-.464,.319-.867,.77-.973,.45-.105,.916,.111,1.124,.525,3.424,6.839,7.154,7.883,11.709,7.345,.542-.062,1.046,.327,1.11,.876,.065,.548-.327,1.046-.876,1.11-3.673,.434-7.809,.103-11.501-4.78,1.535,8.336,8.101,8.48,15.002,8.632,5.759,.127,11.714,.259,13.61,5.948,.175,.524-.108,1.09-.632,1.265-.105,.035-.212,.052-.316,.052Z"/>
  <path d="M54.001,78c-.296,0-.589-.131-.787-.382-4.333-5.513-8.762-5.319-12.925-4.65-.547,.088-1.058-.283-1.146-.829s.283-1.058,.829-1.146c4.544-.73,9.812-.978,14.815,5.39,.341,.434,.266,1.062-.168,1.404-.183,.144-.401,.214-.617,.214Z"/>
  <path class="cls-5" d="M51.28,100l-1-6c-17.437-5.368-28-2-19,19,11-8-11-25,20-13Z"/>
  <g class="cls-11">
    <path class="cls-2" d="M50.58,95.79c-16.42-4.89-26.46-1.75-19.16,17.1-.05,.04-.09,.08-.14,.11-9-21,1.56-24.37,19-19l.3,1.79Z"/>
  </g>
  <path d="M31.28,114c-.089,0-.178-.012-.265-.036-.293-.081-.534-.291-.654-.57-4.191-9.784-4.447-16.519-.759-20.019,.399-.38,1.033-.364,1.413,.037,.38,.4,.364,1.034-.037,1.414-2.874,2.729-2.639,8.286,.698,16.528,2.729-2.734,2.081-6.343,1.502-9.564-.407-2.264-.758-4.218,.194-5.575,.477-.68,1.223-1.11,2.218-1.28,.049-.015,.157-.032,.295-.048,2.616-.303,7.48,.983,15.753,4.181,.515,.199,.772,.778,.572,1.293-.199,.516-.779,.771-1.293,.572-7.848-3.033-12.558-4.321-14.803-4.06-.044,.005-.077,.008-.114,.017-.753,.131-.933,.388-.992,.473-.474,.675-.177,2.326,.137,4.073,.67,3.728,1.587,8.833-3.279,12.373-.173,.126-.379,.191-.588,.191Z"/>
  <path d="M50.28,95.001c-.098,0-.197-.015-.295-.045-5.724-1.765-10.397-2.483-13.885-2.13-.55,.057-1.039-.345-1.095-.895-.055-.549,.345-1.04,.895-1.095,3.754-.378,8.694,.365,14.675,2.209,.527,.163,.823,.723,.661,1.251-.132,.429-.528,.706-.955,.706Z"/>
  <path class="cls-5" d="M63,95l-1,6c31-12,9,5,20,13,9-21-1.563-24.368-19-19Z"/>
  <g class="cls-11">
    <path d="M82.89,111.82c-.27,.7-.57,1.43-.89,2.18-7.74-5.63,.85-15.71-4.16-17.01,9.62-1.45,.68,8.19,5.05,14.83Z"/>
  </g>
  <path d="M82,115c-.209,0-.415-.065-.588-.191-4.867-3.54-3.948-8.647-3.277-12.375,.34-1.892,.662-3.679-.008-4.232-1.297-1.073-6.603,.184-15.765,3.731-.514,.201-1.094-.056-1.293-.572-.199-.515,.057-1.094,.572-1.293,12.366-4.787,16.044-4.826,17.759-3.408,1.573,1.297,1.17,3.536,.704,6.128-.58,3.222-1.23,6.832,1.5,9.566,3.212-7.931,3.551-13.381,1.006-16.211-2.825-3.142-9.504-3.207-19.315-.186-.529,.161-1.087-.134-1.25-.661-.163-.528,.133-1.088,.661-1.25,10.763-3.312,17.959-3.057,21.391,.76,3.243,3.607,2.847,10.198-1.178,19.589-.12,.279-.36,.489-.654,.57-.087,.024-.176,.036-.265,.036Z"/>
  <path class="cls-5" d="M73,77l-2,7c16-12,31,7,37-15-14,14-23-6-35,8Z"/>
  <g class="cls-11">
    <path d="M108,69c-6,22-21,3-37,15l1.07-3.75c14.34-9.59,27.73,4.6,34.35-9.79,.52-.44,1.05-.93,1.58-1.46Z"/>
  </g>
  <path d="M71,85c-.198,0-.396-.059-.567-.176-.354-.244-.513-.686-.395-1.099l2-7c.04-.138,.108-.267,.202-.376,6.365-7.426,12.1-5.863,17.644-4.349,5.536,1.509,10.764,2.936,17.408-3.708,.32-.321,.816-.385,1.209-.158,.392,.228,.582,.69,.463,1.128-3.602,13.207-10.76,12.499-18.339,11.751-5.789-.573-12.349-1.22-19.026,3.786-.178,.133-.389,.2-.6,.2Zm2.901-7.513l-1.192,4.173c6.459-3.789,12.617-3.181,18.114-2.637,6.744,.666,11.826,1.17,15.087-6.892-6.264,4.604-11.69,3.125-16.552,1.798-5.351-1.461-9.978-2.723-15.457,3.557Z"/>
  <path class="cls-10" d="M54,116c-6.075,0-11-4.925-11-11,0-12.597,3.416-19.43,6.161-24.92,2.229-4.457,3.839-7.678,3.839-15.081,0-6.075,4.925-11,11-11s11,4.925,11,11c0,12.597-3.416,19.43-6.161,24.92-2.229,4.457-3.839,7.678-3.839,15.081,0,6.075-4.925,11-11,11Z"/>
  <g class="cls-11">
    <path class="cls-2" d="M54.862,115.967c-.034,.003-.069,.005-.104,.008-6.48,.454-11.798-4.918-11.757-11.414,.074-11.591,3.062-18.245,5.673-23.511,.016-.031,.047-.051,.083-.051h0c1.354,0,2.244,1.399,1.68,2.629-2.269,4.956-4.438,11.335-4.438,21.371,0,5.348,3.808,9.802,8.864,10.786,.105,.02,.104,.173-.003,.181Z"/>
  </g>
  <path d="M54,117c-6.617,0-12-5.383-12-12,0-12.834,3.475-19.783,6.267-25.367,2.168-4.334,3.733-7.466,3.733-14.634,0-6.617,5.383-12,12-12s12,5.383,12,12c0,12.834-3.475,19.783-6.267,25.367-2.167,4.334-3.733,7.466-3.733,14.634,0,6.617-5.383,12-12,12Zm10-62.001c-5.514,0-10,4.486-10,10,0,7.639-1.654,10.948-3.944,15.528-2.698,5.396-6.056,12.111-6.056,24.473,0,5.514,4.486,10,10,10s10-4.486,10-10c0-7.639,1.654-10.948,3.944-15.528,2.698-5.396,6.056-12.111,6.056-24.473,0-5.514-4.486-10-10-10Z"/>
  <path class="cls-7" d="M52.67,70.15l-.79,3.61c5.29,2.85,16.58,2.98,22.43,.4l.5-4.24c-5.42,2.69-16.41,2.77-22.14,.23Z"/>
  <path d="M63.53,77.012c-4.61,0-9.208-.801-12.124-2.372-.393-.212-.598-.658-.503-1.094l.79-3.61c.064-.293,.257-.542,.525-.678,.269-.136,.583-.144,.857-.022,5.459,2.42,16.204,2.314,21.291-.211,.329-.163,.72-.133,1.021,.078,.3,.211,.46,.57,.417,.935l-.5,4.24c-.042,.352-.266,.655-.59,.798-2.945,1.299-7.069,1.937-11.184,1.937Zm-10.506-3.802c5.076,2.295,14.811,2.429,20.361,.252l.231-1.962c-5.574,1.96-14.607,1.989-20.221,.012l-.372,1.699Z"/>
  <path class="cls-7" d="M71.05,85.27l-2.68,5.59c-6.06,1.8-15.5,1.46-20.31-1-1.03-.53-1.85-1.16-2.39-1.88,.01-.03,.02-.07,.04-.1l1.68-4.14c.62,.55,1.43,1.03,2.37,1.44,5.5,2.4,15.68,2.42,21.29,.09Z"/>
  <g class="cls-11">
    <path d="M75,65.182c-.033,12.484-3.433,19.274-6.16,24.738-.36,.72-.7,1.4-1.03,2.08h-.707c-1.058,0-1.747-1.112-1.274-2.058l.011-.022c2.74-5.49,6.16-12.32,6.16-24.92,0-5.57-4.13-10.17-9.5-10.89,.494-.081,.998-.11,1.511-.11,6.083,.005,11.004,5.099,10.988,11.182Z"/>
  </g>
  <path class="cls-9" d="M90,43.25c0,3.77-.5,7.38-1.44,10.75-1.12,4.1-2.88,7.82-5.13,11H44.57c-2.25-3.18-4.01-6.9-5.13-11-.94-3.37-1.44-6.98-1.44-10.75,0-18.09,11.64-32.75,26-32.75s26,14.66,26,32.75Z"/>
  <g class="cls-11">
    <path d="M90,43.25c0,3.77-.5,7.38-1.44,10.75-1.12,4.1-2.88,7.82-5.13,11h-4c2.25-3.18,4.01-6.9,5.13-11,.94-3.37,1.44-6.98,1.44-10.75,0-17.24-10.57-31.37-24-32.65,.66-.07,1.33-.1,2-.1,14.36,0,26,14.66,26,32.75Z"/>
  </g>
  <path class="cls-2" d="M42,43.25v.038c.002,2.041-1.613,3.712-3.654,3.712h-.176c-.11-1.23-.17-2.48-.17-3.75,0-18.09,11.64-32.75,26-32.75,.67,0,1.34,.03,2,.1-13.43,1.28-24,15.41-24,32.65Z"/>
  <path d="M83.43,66H44.57c-.325,0-.629-.158-.816-.422-2.364-3.342-4.14-7.148-5.278-11.314-.978-3.508-1.475-7.215-1.475-11.014,0-1.303,.055-2.565,.165-3.752,.05-.549,.532-.956,1.087-.904,.55,.05,.954,.537,.904,1.087-.104,1.126-.156,2.326-.156,3.568,0,3.617,.472,7.143,1.403,10.481,1.03,3.77,2.606,7.22,4.689,10.269h37.815c2.083-3.048,3.659-6.498,4.688-10.264,.933-3.343,1.405-6.87,1.405-10.486,0-17.507-11.215-31.75-25-31.75-9.704,0-18.615,7.239-22.701,18.443-.189,.519-.763,.787-1.282,.597-.519-.19-.786-.763-.597-1.282,4.377-12.002,14.025-19.757,24.58-19.757,14.888,0,27,15.14,27,33.75,0,3.798-.497,7.505-1.477,11.019-1.137,4.161-2.913,7.967-5.277,11.309-.188,.265-.492,.422-.816,.422Z"/>
  <path class="cls-2" d="M45.67,87.98c.01-.03,.02-.07,.04-.1,.52-1.5,1.09-2.87,1.68-4.14,.62,.55,1.43,1.03,2.37,1.44-.61,1.43-1.19,2.97-1.7,4.68-1.03-.53-1.85-1.16-2.39-1.88Z"/>
  <path d="M59.547,92.999c-6.257,0-12.537-1.477-14.687-4.442-.203-.279-.247-.644-.117-.964l1.72-4.23c.122-.3,.383-.523,.699-.597,.316-.074,.648,.01,.891,.226,3.781,3.352,16.038,4.087,22.612,1.354,.384-.16,.824-.065,1.109,.235,.285,.301,.355,.747,.176,1.12l-2.68,5.59c-.122,.255-.346,.446-.617,.526-2.647,.787-5.875,1.181-9.107,1.181Zm-12.724-5.211c3.009,3.073,13.549,4.236,20.839,2.234l1.468-3.062c-6.502,1.726-16.509,1.303-21.296-1.657l-1.01,2.485Z"/>
  <path class="cls-7" d="M65.06,102.64l-.32,4.76c-4.82,1.87-12.73,2.1-18.31,.67-1.19-.3-2.28-.68-3.2-1.13l-.06-.03v-.36l-.06-5.25c.8,.54,1.8,1,2.93,1.37,5.34,1.78,13.72,1.77,19.02-.03Z"/>
  <path class="cls-2" d="M46.43,108.07c-1.19-.3-2.28-.68-3.2-1.13-.02-.12-.05-.25-.06-.37v-.02c-.12-.64-.17-1.32-.17-1.99,.01-1.13,.04-2.22,.11-3.26,.8,.54,1.8,1,2.93,1.37-.03,.75-.04,1.53-.04,2.33,0,1.07,.15,2.1,.43,3.07Z"/>
  <path d="M54.54,110.009c-4.452,0-8.888-.746-11.815-2.204-.336-.168-.55-.509-.554-.884l-.06-5.61c-.004-.371,.199-.715,.526-.891,.328-.176,.726-.157,1.033,.051,4.091,2.756,14.725,3.374,21.07,1.222,.314-.106,.666-.05,.93,.155,.265,.204,.411,.526,.388,.859l-.32,4.76c-.026,.387-.273,.725-.635,.865-2.898,1.126-6.736,1.677-10.563,1.677Zm-10.377-3.74c4.928,2.14,14.024,2.334,19.623,.415l.18-2.676c-5.863,1.525-14.67,1.378-19.837-1.003l.035,3.265Z"/>
  <circle class="cls-1" cx="64" cy="37.379" r="20"/>
  <g class="cls-11">
    <path d="M84,37.38c0,11.04-8.95,20-20,20-4.74,0-9.1-1.65-12.53-4.42,2.83,1.54,6.08,2.42,9.53,2.42,11.05,0,20-8.96,20-20,0-6.3-2.91-11.92-7.47-15.58,6.24,3.38,10.47,9.98,10.47,17.58Z"/>
  </g>
  <g class="cls-11">
    <path class="cls-2" d="M47,39c0,7.02,3.61,13.19,9.08,16.75-7.11-3.07-12.08-10.14-12.08-18.37,0-11.05,8.95-20,20-20,4.03,0,7.78,1.19,10.92,3.25-2.43-1.05-5.11-1.63-7.92-1.63-11.05,0-20,8.95-20,20Z"/>
  </g>
  <path d="M64,58.38c-11.58,0-21-9.42-21-21,0-6.679,3.069-12.81,8.42-16.82,.442-.331,1.068-.241,1.4,.201,.331,.442,.241,1.069-.201,1.4-4.842,3.629-7.62,9.176-7.62,15.22,0,10.476,8.523,19,19,19s19-8.524,19-19-8.523-19-19-19c-1.394,0-2.742,.146-4.008,.435-.535,.125-1.074-.214-1.197-.753-.122-.538,.214-1.074,.753-1.197,1.411-.322,2.909-.485,4.452-.485,11.58,0,21,9.42,21,21s-9.42,21-21,21Z"/>
  <path class="cls-8" d="M84,37.38c0,2.29-1.76,4.4-4.68,6.03-3.66,2.05-9.16,3.35-15.32,3.35-11.05,0-20-4.2-20-9.38s8.95-9.38,20-9.38c7.01,0,13.18,1.69,16.75,4.25,1.92,1.38,3.1,3.02,3.24,4.78,.01,.12,.01,.23,.01,.35Z"/>
  <g class="cls-11">
    <path d="M84,37.38c0,2.29-1.76,4.4-4.68,6.03,1.08-2.46,1.68-5.17,1.68-8.03,0-1.07-.08-2.11-.25-3.13,1.92,1.38,3.1,3.02,3.24,4.78,.01,.12,.01,.23,.01,.35Z"/>
  </g>
  <circle class="cls-3" cx="64" cy="37.379" r="9.379" transform="translate(16.852 94.565) rotate(-80.783)"/>
  <path d="M64,47.758c-5.723,0-10.379-4.656-10.379-10.379s4.656-10.379,10.379-10.379,10.379,4.656,10.379,10.379-4.656,10.379-10.379,10.379Zm0-18.758c-4.62,0-8.379,3.759-8.379,8.379s3.759,8.379,8.379,8.379,8.379-3.759,8.379-8.379-3.759-8.379-8.379-8.379Z"/>
  <circle class="cls-4" cx="64" cy="37.379" r="5"/>
  <path d="M64,43.379c-3.309,0-6-2.691-6-6s2.691-6,6-6,6,2.691,6,6-2.691,6-6,6Zm0-10c-2.206,0-4,1.794-4,4s1.794,4,4,4,4-1.794,4-4-1.794-4-4-4Z"/>
  <circle class="cls-8" cx="67.5" cy="33.879" r="2.5"/>
  <path d="M67.5,37.379c-1.93,0-3.5-1.57-3.5-3.5s1.57-3.5,3.5-3.5,3.5,1.57,3.5,3.5-1.57,3.5-3.5,3.5Zm0-5c-.827,0-1.5,.673-1.5,1.5s.673,1.5,1.5,1.5,1.5-.673,1.5-1.5-.673-1.5-1.5-1.5Z"/>
  <path d="M64,47.758c-11.776,0-21-4.559-21-10.379s9.224-10.379,21-10.379,21,4.559,21,10.379-9.224,10.379-21,10.379Zm0-18.758c-10.299,0-19,3.837-19,8.379s8.701,8.379,19,8.379,19-3.837,19-8.379-8.701-8.379-19-8.379Z"/>
  <g>
    <path class="cls-6" d="M112.088,79.5c.545,.087,.917,.6,.829,1.146-.392,2.45,1.281,4.763,3.732,5.155,.545,.087,.917,.6,.829,1.146-.087,.545-.6,.917-1.146,.829-2.45-.392-4.763,1.281-5.155,3.732-.087,.545-.6,.917-1.146,.829-.545-.087-.917-.6-.829-1.146,.393-2.45-1.281-4.763-3.732-5.155-.545-.087-.917-.6-.829-1.146,.087-.545,.6-.917,1.146-.829,2.45,.392,4.763-1.281,5.155-3.732,.087-.545,.6-.917,1.145-.829Z"/>
    <path d="M110.191,92.349c-.053,0-.106-.004-.16-.013-.545-.087-.916-.6-.829-1.146,.213-1.333-.171-2.671-1.057-3.669-.367-.414-.329-1.045,.084-1.412,.413-.367,1.045-.329,1.412,.084,.463,.522,.831,1.108,1.1,1.733,.643-.728,1.441-1.305,2.334-1.687-.434-.381-.817-.822-1.138-1.312-.302-.462-.172-1.082,.29-1.384,.463-.302,1.082-.172,1.384,.29,.697,1.066,1.774,1.765,3.034,1.967,.001,0,.002,0,.004,0h0c.545,.087,.916,.6,.829,1.146-.087,.545-.592,.921-1.146,.829-2.458-.397-4.76,1.28-5.154,3.727,0,.002,0,.003,0,.004h0c-.079,.492-.503,.842-.986,.842Z"/>
  </g>
  <g>
    <path class="cls-1" d="M12.519,88.056c-1.725-1.38-2.012-3.887-.642-5.6,1.37-1.712,3.879-1.982,5.604-.601,1.725,1.38,2.012,3.887,.642,5.6-1.37,1.712-3.879,1.982-5.604,.601Z"/>
    <path d="M15.023,89.932c-1.112,0-2.223-.37-3.129-1.095-1.042-.834-1.699-2.021-1.851-3.342-.152-1.324,.222-2.625,1.053-3.663,1.637-2.044,4.606-2.458,6.759-.942,.452,.318,.56,.942,.242,1.394-.318,.451-.941,.56-1.394,.242-1.292-.909-3.069-.665-4.046,.557-.495,.619-.718,1.395-.627,2.186,.091,.793,.486,1.506,1.114,2.008,.975,.781,2.341,.876,3.398,.238,.473-.286,1.087-.133,1.373,.34,.285,.473,.133,1.088-.34,1.373-.784,.473-1.668,.706-2.551,.706Z"/>
  </g>
  <g>
    <path d="M100.534,113.777c-.328,0-.649-.161-.84-.457l-1.617-2.498c-.3-.464-.167-1.083,.296-1.383,.464-.301,1.083-.167,1.383,.296l1.617,2.498c.3,.464,.167,1.083-.296,1.383-.168,.109-.356,.161-.542,.161Z"/>
    <path d="M96.724,107.888c-.328,0-.649-.161-.84-.457l-1.612-2.491c-.3-.464-.168-1.083,.296-1.383,.464-.301,1.083-.166,1.383,.296l1.612,2.491c.3,.464,.167,1.083-.296,1.383-.168,.109-.356,.161-.543,.161Z"/>
    <path d="M93.627,112.297c-.328,0-.649-.161-.84-.457-.3-.464-.167-1.083,.296-1.383l2.499-1.617c.465-.3,1.083-.167,1.383,.296,.3,.464,.167,1.083-.296,1.383l-2.499,1.617c-.168,.109-.356,.161-.542,.161Z"/>
    <path d="M99.516,108.486c-.328,0-.649-.161-.841-.457-.3-.463-.167-1.083,.297-1.383l2.491-1.611c.462-.299,1.083-.167,1.383,.297,.3,.463,.167,1.083-.297,1.383l-2.491,1.611c-.167,.108-.356,.16-.542,.16Z"/>
  </g>
  <path class="cls-3" d="M90,60v3.18c0,1.01-1.79,1.82-4,1.82H42c-2.21,0-4-.81-4-1.82v-3.18h52Z"/>
  <g class="cls-11">
    <path d="M90,60v3.18c0,1.01-1.79,1.82-4,1.82h-6.57c1.09-1.55,2.07-3.22,2.91-5h7.66Z"/>
  </g>
  <path class="cls-2" d="M45.15,65h-3.15c-2.21,0-4-.81-4-1.82v-3.18h7.42c-.22,1.51-.39,3.36-.27,5Z"/>
  <path d="M86,66H42c-2.897,0-5-1.185-5-2.818v-3.182c0-.552,.448-1,1-1h52c.552,0,1,.448,1,1v3.182c0,1.633-2.103,2.818-5,2.818Zm-47-5v2.182c.098,.202,1.145,.818,3,.818h44c1.855,0,2.902-.617,3.007-.862l-.005-2.138H39Z"/>
  <g>
    <path d="M111,39h-16c-.552,0-1-.448-1-1s.448-1,1-1h16c.552,0,1,.448,1,1s-.448,1-1,1Z"/>
    <path d="M104.98,25.54c-.265,0-.529-.105-.726-.312-.38-.401-.362-1.034,.039-1.413l9.02-8.54c.401-.379,1.033-.362,1.414,.039,.38,.401,.362,1.034-.039,1.414l-9.02,8.54c-.193,.183-.44,.274-.687,.274Z"/>
    <path d="M95,35c-.265,0-.529-.105-.726-.312-.38-.401-.363-1.034,.039-1.414l5.31-5.03c.401-.379,1.034-.362,1.413,.039,.38,.401,.363,1.034-.038,1.414l-5.31,5.03c-.193,.183-.44,.274-.688,.274Z"/>
    <path d="M114,61c-.247,0-.494-.091-.688-.274l-7.58-7.18c-.401-.38-.418-1.013-.039-1.414,.38-.402,1.013-.418,1.414-.039l7.58,7.18c.401,.38,.419,1.013,.039,1.414-.197,.208-.461,.312-.726,.312Z"/>
    <path d="M100.99,48.68c-.247,0-.495-.091-.688-.274l-5.99-5.68c-.401-.38-.417-1.013-.038-1.414,.381-.401,1.013-.417,1.414-.038l5.99,5.68c.401,.38,.417,1.013,.038,1.414-.197,.208-.461,.312-.726,.312Z"/>
  </g>
  <g>
    <path d="M32,39H16c-.552,0-1-.448-1-1s.448-1,1-1h16c.552,0,1,.448,1,1s-.448,1-1,1Z"/>
    <path d="M21.73,25.27c-.247,0-.494-.091-.688-.274l-8.73-8.27c-.401-.38-.418-1.013-.039-1.414,.38-.402,1.013-.417,1.414-.039l8.73,8.27c.401,.38,.418,1.013,.039,1.414-.197,.208-.462,.312-.726,.312Z"/>
    <path d="M32,35c-.247,0-.494-.091-.688-.274l-5.47-5.18c-.401-.38-.419-1.013-.039-1.414,.38-.401,1.013-.418,1.414-.039l5.47,5.18c.401,.38,.418,1.013,.039,1.414-.197,.208-.461,.312-.726,.312Z"/>
    <path d="M13,61c-.265,0-.529-.105-.726-.312-.38-.401-.363-1.034,.039-1.414l7-6.63c.401-.379,1.034-.363,1.414,.039,.38,.401,.363,1.034-.039,1.414l-7,6.63c-.193,.183-.44,.274-.688,.274Z"/>
    <path d="M26.47,48.24c-.265,0-.529-.105-.726-.312-.38-.401-.363-1.034,.038-1.414l5.53-5.24c.401-.379,1.035-.363,1.414,.038,.38,.401,.363,1.034-.038,1.414l-5.53,5.24c-.193,.183-.441,.274-.688,.274Z"/>
  </g>
</svg>