<?xml version="1.0" encoding="UTF-8"?>
<svg id="_03" data-name="03" xmlns="http://www.w3.org/2000/svg" viewBox="0 0 128 128">
  <defs>
    <style>
      .cls-1 {
        fill: #00c672;
      }

      .cls-2 {
        fill: #fff;
      }

      .cls-3 {
        fill: #ffd300;
      }

      .cls-4 {
        fill: #ff5fff;
      }

      .cls-5 {
        fill: #a06507;
      }

      .cls-6 {
        fill: #53e8fc;
      }

      .cls-7 {
        fill: #6128dd;
      }

      .cls-8 {
        opacity: .4;
      }

      .cls-9 {
        opacity: .6;
      }
    </style>
  </defs>
  <path class="cls-7" d="M93,53v36H35V53c0-3.57,.65-6.99,1.84-10.15,.12-.36,.26-.71,.41-1.06,.44-1.07,.96-2.12,1.53-3.12,.06-.09,.11-.18,.16-.27,5.02-8.61,14.36-14.4,25.06-14.4,8.01,0,15.26,3.24,20.51,8.49,1.76,1.76,3.29,3.74,4.55,5.91,.05,.09,.1,.18,.16,.27,.57,1,1.09,2.05,1.53,3.12,.15,.35,.29,.7,.41,1.06,1.19,3.16,1.84,6.58,1.84,10.15Z"/>
  <g class="cls-8">
    <path d="M93,53v36h-4.53V53c0-3.57-.65-6.99-1.84-10.15-.12-.36-.26-.71-.41-1.06-.44-1.07-.96-2.12-1.53-3.12-.06-.09-.11-.18-.16-.27-1.26-2.17-2.79-4.15-4.55-5.91-4.76-4.76-11.16-7.86-18.28-8.39,.76-.07,1.53-.1,2.3-.1,8.01,0,15.26,3.24,20.51,8.49,1.76,1.76,3.29,3.74,4.55,5.91,.05,.09,.1,.18,.16,.27,.57,1,1.09,2.05,1.53,3.12,.15,.35,.29,.7,.41,1.06,1.19,3.16,1.84,6.58,1.84,10.15Z"/>
  </g>
  <g class="cls-8">
    <path class="cls-2" d="M66.47,24.11c-9.63,.83-17.91,6.37-22.53,14.29-.05,.09-.1,.18-.16,.27-.57,1-1.09,2.05-1.53,3.12-.15,.35-.29,.7-.41,1.06-1.19,3.16-1.84,6.58-1.84,10.15v36h-5V53c0-3.57,.65-6.99,1.84-10.15,.12-.36,.26-.71,.41-1.06,.44-1.07,.96-2.12,1.53-3.12,.06-.09,.11-.18,.16-.27,5.02-8.61,14.36-14.4,25.06-14.4,.83,0,1.66,.04,2.47,.11Z"/>
  </g>
  <path d="M93,90H35c-.552,0-1-.448-1-1V53c0-4.02,.783-7.922,2.328-11.598,.492-1.198,1.082-2.383,1.751-3.512,.831-1.429,1.813-2.822,2.914-4.133,.356-.423,.985-.479,1.409-.123,.423,.355,.478,.986,.123,1.409-1.028,1.224-1.943,2.523-2.721,3.86-.624,1.053-1.171,2.15-1.629,3.267-1.444,3.437-2.175,7.078-2.175,10.831v35h56V53c0-3.752-.731-7.394-2.172-10.822-.463-1.128-1.01-2.225-1.629-3.267-1.21-2.084-2.687-4.004-4.396-5.713-5.286-5.286-12.319-8.197-19.803-8.197-5.974,0-11.669,1.852-16.47,5.357-.447,.326-1.072,.228-1.397-.218-.326-.446-.228-1.072,.218-1.397,5.146-3.756,11.249-5.742,17.65-5.742,8.018,0,15.553,3.119,21.217,8.783,1.831,1.831,3.415,3.889,4.708,6.115,.663,1.118,1.253,2.302,1.75,3.512,1.542,3.668,2.325,7.57,2.325,11.59v36c0,.552-.447,1-1,1Z"/>
  <g>
    <circle class="cls-3" cx="64" cy="43" r="12"/>
    <path d="M64,56c-7.169,0-13-5.832-13-13s5.831-13,13-13,13,5.832,13,13-5.832,13-13,13Zm0-24c-6.065,0-11,4.935-11,11s4.935,11,11,11,11-4.935,11-11-4.935-11-11-11Z"/>
    <circle class="cls-6" cx="64" cy="43" r="7"/>
    <path d="M64,51c-4.411,0-8-3.589-8-8s3.589-8,8-8,8,3.589,8,8-3.589,8-8,8Zm0-14c-3.309,0-6,2.691-6,6s2.691,6,6,6,6-2.691,6-6-2.691-6-6-6Z"/>
  </g>
  <g>
    <path class="cls-3" d="M46,49c0,4.28-2.44,7.98-6,9.8-1.5,.77-3.2,1.2-5,1.2v-7c0-3.57,.65-6.99,1.84-10.15,.12-.36,.26-.71,.41-1.06,.44-1.07,.96-2.12,1.53-3.12,1.43,.52,2.72,1.33,3.79,2.36,2.11,1.99,3.43,4.83,3.43,7.97Z"/>
    <path class="cls-2" d="M42.57,41.03c-.11,.25-.22,.51-.32,.76-.15,.35-.29,.7-.41,1.06-1.19,3.16-1.84,6.58-1.84,10.15v5.8c-1.5,.77-3.2,1.2-5,1.2v-7c0-3.57,.65-6.99,1.84-10.15,.12-.36,.26-.71,.41-1.06,.44-1.07,.96-2.12,1.53-3.12,1.43,.52,2.72,1.33,3.79,2.36Z"/>
    <path d="M35,61c-.552,0-1-.448-1-1v-7c0-3.614,.641-7.148,1.904-10.502,.116-.35,.266-.726,.427-1.101,.437-1.064,.971-2.153,1.581-3.222,.241-.424,.754-.611,1.211-.444,4.711,1.72,7.877,6.249,7.877,11.27,0,6.617-5.383,12-12,12Zm4.226-21.064c-.394,.744-.746,1.492-1.051,2.234-.144,.338-.275,.663-.386,.996-1.191,3.165-1.789,6.461-1.789,9.833v5.95c5.046-.503,9-4.774,9-9.95,0-3.898-2.289-7.44-5.774-9.064Z"/>
    <path class="cls-6" d="M41.42,49c0,3.54-2.88,6.42-6.42,6.42v-2.42c0-3.57,.65-6.99,1.84-10.15,2.65,.79,4.58,3.25,4.58,6.15Z"/>
    <path d="M35,56.42c-.552,0-1-.448-1-1v-2.42c0-3.614,.641-7.148,1.904-10.502,.185-.491,.715-.757,1.222-.606,3.117,.929,5.294,3.852,5.294,7.108,0,4.091-3.329,7.42-7.42,7.42Zm2.435-12.261c-.953,2.841-1.435,5.81-1.435,8.841v1.328c2.513-.471,4.42-2.681,4.42-5.328,0-2.058-1.19-3.933-2.985-4.841Z"/>
  </g>
  <path class="cls-4" d="M64,64c-24.3,0-44,8.73-44,19.5,0,.54,.05,1.07,.16,1.61v.01H107.84v-.01c.11-.54,.16-1.07,.16-1.61,0-10.77-19.7-19.5-44-19.5Z"/>
  <path class="cls-4" d="M64,64c-24.3,0-44,8.73-44,19.5,0,.54,.05,1.07,.16,1.61v.01H107.84v-.01c.11-.54,.16-1.07,.16-1.61,0-10.77-19.7-19.5-44-19.5Z"/>
  <g class="cls-9">
    <path class="cls-2" d="M86.97,66.87c-4.1-.57-8.45-.87-12.97-.87-24.01,0-43.53,8.52-43.99,19.12h-9.85v-.01c-.11-.54-.16-1.07-.16-1.61,0-10.77,19.7-19.5,44-19.5,8.42,0,16.28,1.05,22.97,2.87Z"/>
  </g>
  <path class="cls-1" d="M108,86.5c0,1.56-.58,3.07-1.66,4.5-.95,1.26-2.28,2.46-3.96,3.57-7.54,5.03-21.9,8.43-38.38,8.43s-30.84-3.4-38.38-8.43c-1.68-1.11-3.01-2.31-3.96-3.57-1.08-1.43-1.66-2.94-1.66-4.5,0-9.11,19.7-16.5,44-16.5s44,7.39,44,16.5Z"/>
  <g class="cls-8">
    <path d="M108,86.5c0,1.56-.58,3.07-1.66,4.5-.95,1.26-2.28,2.46-3.96,3.57-7.54,5.03-21.9,8.43-38.38,8.43-.84,0-1.68-.01-2.5-.03,15.43-.32,28.72-3.63,35.88-8.4,1.68-1.11,3.01-2.31,3.96-3.57,1.08-1.43,1.66-2.94,1.66-4.5,0-8.8-18.36-15.99-41.5-16.47,.83-.02,1.66-.03,2.5-.03,24.3,0,44,7.39,44,16.5Z"/>
  </g>
  <g class="cls-8">
    <path class="cls-2" d="M37.59,99.69c-4.88-1.37-8.96-3.12-11.97-5.12-1.68-1.11-3.01-2.31-3.96-3.57-1.08-1.43-1.66-2.94-1.66-4.5,0-6.05,8.68-11.34,21.62-14.2-7.22,3.47-11.62,8.11-11.62,13.2,0,.54,.05,1.07,.16,1.61v.02c-.11,.54-.16,1.07-.16,1.61,0,4.06,2.8,7.83,7.59,10.95Z"/>
  </g>
  <path class="cls-7" d="M102.38,94.57c-7.54,5.03-21.9,8.43-38.38,8.43s-30.84-3.4-38.38-8.43c3.26-7.71,19.2-13.57,38.38-13.57s35.12,5.86,38.38,13.57Z"/>
  <g class="cls-8">
    <path d="M102.38,94.57c-7.54,5.03-21.9,8.43-38.38,8.43-.84,0-1.68-.01-2.5-.03,15.43-.32,28.72-3.63,35.88-8.4,1.3-.86,2.38-1.77,3.25-2.72,.77,.88,1.35,1.78,1.75,2.72Z"/>
  </g>
  <g class="cls-8">
    <path class="cls-2" d="M37.59,99.69c-4.88-1.37-8.96-3.12-11.97-5.12,.78-1.85,2.3-3.59,4.41-5.16,.29,3.8,3.03,7.33,7.56,10.28Z"/>
  </g>
  <path d="M64,104c-16.066,0-30.985-3.295-38.935-8.598-.399-.267-.553-.779-.366-1.222,3.474-8.216,20.002-14.18,39.301-14.18s35.827,5.964,39.301,14.18c.187,.442,.033,.955-.366,1.222-7.949,5.303-22.868,8.598-38.935,8.598Zm-37.093-9.792c7.809,4.82,21.888,7.792,37.093,7.792s29.284-2.972,37.093-7.792c-3.862-7.011-19.485-12.208-37.093-12.208s-33.23,5.197-37.093,12.208Z"/>
  <path d="M64,104c-16.066,0-30.985-3.295-38.935-8.598-1.768-1.168-3.184-2.448-4.203-3.8-1.235-1.636-1.862-3.353-1.862-5.102,0-9.813,19.767-17.5,45-17.5s45,7.687,45,17.5c0,1.749-.627,3.466-1.862,5.103-1.019,1.352-2.435,2.631-4.206,3.802-7.946,5.301-22.865,8.596-38.932,8.596Zm0-33c-23.309,0-43,7.098-43,15.5,0,1.305,.491,2.616,1.458,3.897,.882,1.17,2.132,2.293,3.713,3.338,7.643,5.099,22.136,8.265,37.829,8.265s30.185-3.166,37.825-8.262c1.585-1.047,2.834-2.17,3.716-3.34,.969-1.282,1.459-2.593,1.459-3.898,0-8.402-19.691-15.5-43-15.5Z"/>
  <path d="M107.84,86.115c-.553,0-1-.442-1-.995,0-.067,.007-.145,.021-.21,.094-.461,.14-.922,.14-1.41,0-10.201-19.29-18.5-43-18.5-11.861,0-22.925,2.07-31.154,5.83-.502,.23-1.096,.009-1.325-.494-.229-.502-.008-1.096,.494-1.325,8.484-3.876,19.844-6.01,31.985-6.01,25.233,0,45,9.005,45,20.5,0,.617-.058,1.202-.176,1.789-.085,.468-.493,.826-.984,.826Z"/>
  <path d="M20.16,86.115c-.507,0-.926-.373-.991-.862-.114-.575-.169-1.149-.169-1.753,0-3.647,2.057-7.203,5.949-10.284,.431-.343,1.061-.271,1.405,.164,.343,.433,.269,1.062-.164,1.405-3.395,2.688-5.19,5.702-5.19,8.716,0,.488,.046,.949,.14,1.41,.013,.066,.02,.133,.02,.2,0,.552-.448,1.005-1,1.005Z"/>
  <path d="M64,104c-.526,0-1.043,0-1.559-.01-.552-.011-.991-.467-.981-1.019,.011-.553,.495-.992,1.019-.981,.51,.01,.985-.013,1.54,.01,.507,0,1.004,0,1.501-.01l1.519-.03c.564,.005,1.01,.428,1.02,.98,.011,.552-.428,1.009-.979,1.02l-1.52,.03c-.517,.01-1.034,.01-1.56,.01Z"/>
  <g>
    <circle class="cls-3" cx="64" cy="75" r="2"/>
    <circle class="cls-3" cx="80" cy="76" r="2"/>
    <circle class="cls-3" cx="94" cy="80" r="2"/>
    <circle class="cls-3" cx="102" cy="86" r="2"/>
    <circle class="cls-3" cx="48" cy="76" r="2"/>
    <circle class="cls-3" cx="35" cy="79" r="2"/>
    <circle class="cls-3" cx="26" cy="86" r="2"/>
  </g>
  <g>
    <path d="M64,78c-1.654,0-3-1.346-3-3s1.346-3,3-3,3,1.346,3,3-1.346,3-3,3Zm0-4c-.551,0-1,.449-1,1s.449,1,1,1,1-.449,1-1-.449-1-1-1Z"/>
    <path d="M80,79c-1.654,0-3-1.346-3-3s1.346-3,3-3,3,1.346,3,3-1.346,3-3,3Zm0-4c-.552,0-1,.449-1,1s.448,1,1,1,1-.449,1-1-.448-1-1-1Z"/>
    <path d="M94,83c-1.654,0-3-1.346-3-3s1.346-3,3-3,3,1.346,3,3-1.346,3-3,3Zm0-4c-.552,0-1,.449-1,1s.448,1,1,1,1-.449,1-1-.448-1-1-1Z"/>
    <path d="M102,89c-1.654,0-3-1.346-3-3s1.346-3,3-3,3,1.346,3,3-1.346,3-3,3Zm0-4c-.552,0-1,.449-1,1s.448,1,1,1,1-.449,1-1-.448-1-1-1Z"/>
    <path d="M48,79c-1.654,0-3-1.346-3-3s1.346-3,3-3,3,1.346,3,3-1.346,3-3,3Zm0-4c-.551,0-1,.449-1,1s.449,1,1,1,1-.449,1-1-.449-1-1-1Z"/>
    <path d="M35,82c-1.654,0-3-1.346-3-3s1.346-3,3-3,3,1.346,3,3-1.346,3-3,3Zm0-4c-.551,0-1,.449-1,1s.449,1,1,1,1-.449,1-1-.449-1-1-1Z"/>
    <path d="M26,89c-1.654,0-3-1.346-3-3s1.346-3,3-3,3,1.346,3,3-1.346,3-3,3Zm0-4c-.551,0-1,.449-1,1s.449,1,1,1,1-.449,1-1-.449-1-1-1Z"/>
  </g>
  <path class="cls-3" d="M90,99.183c0,.679-.343,1.337-.981,1.959-.561,.549-1.347,1.071-2.34,1.554-4.455,2.19-12.941,3.67-22.679,3.67s-18.224-1.48-22.679-3.67c-.993-.483-1.779-1.006-2.34-1.554-.638-.623-.981-1.28-.981-1.959,0-3.966,11.641-7.183,26-7.183s26,3.217,26,7.183Z"/>
  <path class="cls-2" d="M89.58,97.9c-5.22-1.77-13.17-2.9-22.08-2.9-14.08,0-25.78,2.83-28.08,6.53-.16-.13-.31-.26-.44-.39-.64-.62-.98-1.28-.98-1.96,0-3.96,11.64-7.18,26-7.18,12.78,0,23.4,2.55,25.58,5.9Z"/>
  <g class="cls-8">
    <path d="M90,99.18c0,.68-.34,1.34-.98,1.96-.56,.55-1.35,1.07-2.34,1.56-4.46,2.19-12.94,3.67-22.68,3.67s-18.22-1.48-22.68-3.67c-.94-.47-1.71-.96-2.26-1.49,5.99,1.14,12.76,1.79,19.94,1.79,11.99,0,22.85-1.8,30.79-4.72,.14,.29,.21,.59,.21,.9Z"/>
  </g>
  <path d="M64,107.37c-9.523,0-18.382-1.445-23.121-3.772-1.103-.546-1.977-1.133-2.6-1.744-.847-.821-1.279-1.722-1.279-2.673,0-5.034,11.703-7.471,21.724-8.029,.555-.022,1.023,.392,1.054,.943,.031,.552-.392,1.023-.943,1.054-12.252,.682-19.835,3.662-19.835,6.032,0,.39,.227,.807,.676,1.242,.476,.468,1.177,.931,2.088,1.382,4.478,2.199,13,3.566,22.236,3.566s17.758-1.367,22.239-3.567c.907-.45,1.608-.913,2.079-1.376,.454-.439,.682-.857,.682-1.247,0-2.283-8.067-5.787-22.655-6.151-.552-.014-.988-.472-.975-1.024,.014-.551,.426-1.008,1.025-.975,11.85,.295,24.605,2.971,24.605,8.15,0,.952-.433,1.853-1.285,2.679-.617,.606-1.49,1.192-2.592,1.737-4.741,2.329-13.601,3.774-23.123,3.774Z"/>
  <g>
    <path class="cls-3" d="M93,53v7c-1.62,0-3.15-.35-4.53-.97-3.82-1.73-6.47-5.57-6.47-10.03,0-3.3,1.45-6.26,3.75-8.28,1.01-.88,2.18-1.58,3.47-2.05,.57,1,1.09,2.05,1.53,3.12,.15,.35,.29,.7,.41,1.06,1.19,3.16,1.84,6.58,1.84,10.15Z"/>
    <path class="cls-6" d="M93,53v2.42c-3.54,0-6.42-2.88-6.42-6.42,0-2.9,1.93-5.36,4.58-6.15,1.19,3.16,1.84,6.58,1.84,10.15Z"/>
    <g class="cls-8">
      <path d="M93,53v7c-1.62,0-3.15-.35-4.53-.97v-6.03c0-3.57-.65-6.99-1.84-10.15-.12-.36-.26-.71-.41-1.06-.15-.36-.3-.72-.47-1.07,1.01-.88,2.18-1.58,3.47-2.05,.57,1,1.09,2.05,1.53,3.12,.15,.35,.29,.7,.41,1.06,1.19,3.16,1.84,6.58,1.84,10.15Z"/>
    </g>
    <path d="M93,61c-6.617,0-12-5.383-12-12,0-5.021,3.165-9.55,7.877-11.27,.459-.166,.97,.021,1.212,.444,.607,1.066,1.142,2.155,1.586,3.235,.155,.361,.305,.737,.434,1.124,1.251,3.32,1.892,6.854,1.892,10.466v7c0,.552-.447,1-1,1Zm-4.226-21.064c-3.486,1.624-5.774,5.166-5.774,9.064,0,5.176,3.954,9.447,9,9.95v-5.95c0-3.371-.598-6.667-1.775-9.797-.124-.369-.254-.693-.393-1.018-.311-.754-.663-1.505-1.057-2.249Z"/>
    <path d="M93,56.42c-4.092,0-7.42-3.329-7.42-7.42,0-3.256,2.177-6.179,5.294-7.108,.507-.15,1.037,.114,1.222,.606,1.264,3.356,1.904,6.89,1.904,10.502v2.42c0,.552-.447,1-1,1Zm-2.436-12.261c-1.795,.908-2.984,2.783-2.984,4.841,0,2.647,1.907,4.857,4.42,5.328v-1.328c0-3.029-.482-5.998-1.436-8.841Z"/>
  </g>
  <g>
    <path class="cls-5" d="M105.798,63.661c-.148-.532,.163-1.083,.695-1.231,2.391-.665,3.794-3.151,3.129-5.542-.148-.532,.163-1.083,.695-1.231,.532-.148,1.083,.163,1.231,.695,.665,2.391,3.151,3.794,5.542,3.129,.532-.148,1.083,.163,1.231,.695s-.163,1.083-.695,1.231c-2.391,.665-3.794,3.151-3.129,5.542,.148,.532-.163,1.083-.695,1.231-.532,.148-1.083-.163-1.231-.695-.665-2.391-3.151-3.794-5.542-3.129-.532,.148-1.083-.163-1.231-.695Z"/>
    <path d="M113.815,64.496c-.135,0-.271-.028-.402-.085-.506-.223-.734-.814-.512-1.319,.281-.638,.66-1.217,1.116-1.721-.93-.28-1.787-.766-2.507-1.418-.165,.553-.406,1.086-.718,1.582-.294,.468-.911,.609-1.379,.314-.468-.294-.608-.912-.314-1.379,.679-1.077,.864-2.347,.523-3.577,0-.002,0-.003,0-.004h0c-.147-.532,.164-1.084,.695-1.231,.532-.146,1.083,.163,1.231,.695h0s0,.003,0,.004c.667,2.389,3.155,3.79,5.54,3.126h0c.525-.148,1.083,.164,1.231,.695,.147,.532-.164,1.083-.695,1.231-.002,0-.004,.001-.005,.002-1.299,.362-2.353,1.27-2.891,2.49-.165,.374-.531,.596-.916,.597Z"/>
  </g>
  <g>
    <path class="cls-1" d="M12.029,60.011c-.031-2.209,1.721-4.025,3.914-4.055s3.996,1.735,4.027,3.944c.031,2.209-1.721,4.025-3.914,4.055s-3.996-1.735-4.027-3.944Z"/>
    <path d="M14.673,64.715c-.11,0-.223-.019-.333-.058-1.951-.688-3.281-2.549-3.311-4.632-.038-2.757,2.16-5.031,4.9-5.07,.023,0,.047,0,.07,0,2.588,0,4.757,2.016,4.954,4.619,.042,.551-.371,1.031-.921,1.073-.56,.041-1.031-.371-1.073-.921-.118-1.561-1.415-2.77-2.961-2.77-.014,0-.027,0-.041,0-1.638,.023-2.952,1.387-2.929,3.041,.018,1.249,.812,2.363,1.976,2.774,.521,.184,.794,.755,.61,1.275-.144,.411-.531,.668-.943,.668Z"/>
  </g>
  <g>
    <path d="M47.534,119.777c-.328,0-.649-.161-.84-.457l-1.617-2.498c-.3-.464-.167-1.083,.296-1.383,.464-.301,1.083-.167,1.383,.296l1.617,2.498c.3,.464,.167,1.083-.296,1.383-.168,.109-.356,.161-.542,.161Z"/>
    <path d="M43.724,113.888c-.328,0-.649-.161-.84-.457l-1.612-2.491c-.3-.464-.167-1.083,.296-1.383,.464-.301,1.082-.167,1.383,.296l1.612,2.491c.3,.464,.167,1.083-.296,1.383-.168,.109-.356,.161-.542,.161Z"/>
    <path d="M40.626,118.297c-.328,0-.649-.161-.84-.457-.3-.464-.167-1.083,.296-1.383l2.499-1.617c.464-.301,1.082-.167,1.383,.296,.3,.464,.167,1.083-.296,1.383l-2.499,1.617c-.168,.109-.356,.161-.542,.161Z"/>
    <path d="M46.516,114.486c-.328,0-.649-.161-.841-.457-.3-.463-.167-1.083,.297-1.383l2.491-1.611c.462-.299,1.083-.167,1.383,.297,.3,.463,.167,1.083-.297,1.383l-2.491,1.611c-.167,.108-.356,.16-.542,.16Z"/>
  </g>
  <g>
    <path d="M105.869,24.96c-.225,0-.452-.076-.639-.231-.425-.354-.482-.984-.129-1.409l9.13-10.96c.354-.424,.983-.482,1.408-.129,.425,.354,.482,.984,.129,1.409l-9.13,10.96c-.198,.237-.482,.36-.77,.36Z"/>
    <path d="M94.999,38c-.226,0-.452-.076-.64-.232-.424-.354-.481-.984-.128-1.408l5.85-7.02c.354-.424,.983-.482,1.409-.128,.424,.354,.481,.984,.128,1.408l-5.85,7.02c-.198,.237-.482,.36-.77,.36Z"/>
    <path d="M97.999,41c-.506,0-.939-.382-.993-.895-.059-.549,.34-1.041,.89-1.099l19-2c.536-.056,1.041,.341,1.099,.89,.059,.549-.34,1.041-.89,1.099l-19,2c-.035,.003-.07,.005-.105,.005Z"/>
    <path d="M91,34c-.553,0-1-.448-1-1V16c0-.552,.447-1,1-1s1,.448,1,1v17c0,.552-.447,1-1,1Z"/>
  </g>
  <g>
    <path d="M22.07,24.88c-.287,0-.571-.123-.768-.36L12.232,13.64c-.353-.424-.296-1.055,.128-1.408,.424-.354,1.055-.297,1.408,.128l9.07,10.88c.353,.424,.296,1.055-.128,1.408-.187,.156-.414,.232-.64,.232Z"/>
    <path d="M33,38c-.287,0-.571-.123-.769-.36l-5.8-6.96c-.353-.424-.296-1.055,.128-1.408,.424-.355,1.055-.297,1.408,.128l5.8,6.96c.353,.424,.296,1.055-.128,1.408-.187,.156-.414,.232-.64,.232Z"/>
    <path d="M30.001,41c-.035,0-.07-.002-.106-.005l-19-2c-.549-.058-.948-.55-.89-1.099,.058-.549,.54-.944,1.099-.89l19,2c.549,.058,.948,.55,.89,1.099-.054,.514-.488,.895-.994,.895Z"/>
    <path d="M37,34c-.552,0-1-.448-1-1V16c0-.552,.448-1,1-1s1,.448,1,1v17c0,.552-.448,1-1,1Z"/>
  </g>
</svg>