<?xml version="1.0" encoding="UTF-8"?>
<svg id="_16" data-name="16" xmlns="http://www.w3.org/2000/svg" viewBox="0 0 128 128">
  <defs>
    <style>
      .cls-1 {
        fill: #00c672;
      }

      .cls-2 {
        fill: #fff;
      }

      .cls-3 {
        fill: #ffd300;
      }

      .cls-4 {
        fill: #ff5fff;
      }

      .cls-5 {
        fill: #a06507;
      }

      .cls-6 {
        fill: #53e8fc;
      }

      .cls-7 {
        fill: #62dfa2;
      }

      .cls-8 {
        fill: #3b1984;
      }

      .cls-9 {
        fill: #6128dd;
      }

      .cls-10 {
        opacity: .4;
      }

      .cls-11 {
        opacity: .5;
      }
    </style>
  </defs>
  <g>
    <rect class="cls-7" x="61" y="80" width="3" height="8" transform="translate(-31.1 37.082) rotate(-26.726)"/>
    <path d="M62.96,89.247c-.366,0-.718-.201-.894-.551l-3.598-7.145c-.12-.236-.14-.511-.057-.763,.083-.252,.263-.461,.5-.58l2.68-1.349c.495-.248,1.095-.049,1.343,.444l3.598,7.145c.12,.236,.14,.511,.057,.763-.084,.252-.263,.461-.5,.58l-2.68,1.349c-.145,.072-.298,.106-.449,.106Zm-2.256-7.702l2.698,5.359,.894-.449-2.698-5.359-.894,.449Z"/>
  </g>
  <g>
    <rect class="cls-7" x="45.711" y="75.284" width="3" height="10.01" transform="translate(23.821 170.445) rotate(-135)"/>
    <path d="M44.732,85.889c-.256,0-.512-.098-.707-.293l-2.122-2.121c-.188-.188-.293-.441-.293-.707s.105-.52,.293-.707l7.079-7.078c.391-.391,1.024-.391,1.414,0l2.121,2.121c.391,.391,.391,1.024,0,1.414l-7.078,7.078c-.195,.195-.451,.293-.707,.293Zm-.707-3.121l.707,.707,5.664-5.664-.707-.707-5.664,5.664Z"/>
  </g>
  <g>
    <rect class="cls-7" x="40.711" y="58.284" width="3" height="10.01" transform="translate(-33.3 72.528) rotate(-63.274)"/>
    <path d="M46.007,67.88c-.155,0-.309-.036-.45-.106l-8.941-4.502c-.493-.249-.692-.85-.443-1.343l1.349-2.68c.119-.237,.328-.417,.58-.5,.252-.085,.527-.062,.763,.056l8.941,4.502c.493,.249,.692,.85,.443,1.343l-1.349,2.68c-.119,.237-.328,.417-.58,.5-.102,.034-.208,.051-.314,.051Zm-7.598-5.945l7.155,3.602,.45-.893-7.155-3.603-.45,.894Z"/>
  </g>
  <path class="cls-4" d="M76.45,33.083h5.126c.552,0,1,.448,1,1v26.004c0,.552-.448,1-1,1h-5.126v-28.004h0Z" transform="translate(-10.006 70.014) rotate(-44.999)"/>
  <g class="cls-10">
    <path d="M85.251,54.331h5.126c.552,0,1,.448,1,1v1.111c0,.552-.448,1-1,1h-5.126v-3.111h0Z" transform="translate(-13.651 78.814) rotate(-44.999)"/>
  </g>
  <g class="cls-11">
    <path class="cls-2" d="M67.6,36.749h5.126c.552,0,1,.448,1,1v.973c0,.552-.448,1-1,1h-5.126v-2.973h0Z" transform="translate(-6.34 61.165) rotate(-45)"/>
  </g>
  <path d="M87.248,60.152c-.265,0-.52-.105-.707-.293l-19.802-19.802c-.391-.391-.391-1.023,0-1.414l3.625-3.625c.779-.779,2.049-.779,2.829,0l18.387,18.388c.78,.779,.78,2.049,0,2.828l-3.625,3.625c-.188,.188-.442,.293-.707,.293Zm-18.388-20.802l18.388,18.388,2.917-2.918h0s-18.388-18.388-18.388-18.388l-2.918,2.918Z"/>
  <rect class="cls-8" x="81.038" y="38.845" width="4.376" height="9.054" transform="translate(172.744 15.192) rotate(135)"/>
  <path d="M84.879,49.12c-.256,0-.512-.098-.707-.293l-6.402-6.401c-.391-.391-.391-1.024,0-1.414l3.094-3.095c.375-.375,1.039-.375,1.414,0l6.402,6.402c.188,.188,.293,.441,.293,.707s-.105,.52-.293,.707l-3.094,3.094c-.195,.195-.451,.293-.707,.293Zm-4.988-7.401l4.988,4.987,1.68-1.68-4.988-4.988-1.68,1.681Z"/>
  <rect class="cls-1" x="54.938" y="44.531" width="26.254" height="28.004" transform="translate(157.583 51.793) rotate(135)"/>
  <g class="cls-10">
    <rect x="63.739" y="65.779" width="26.254" height="3.111" transform="translate(178.83 60.594) rotate(135)"/>
  </g>
  <g class="cls-11">
    <rect class="cls-2" x="46.088" y="48.197" width="26.254" height="2.973" transform="translate(136.217 42.944) rotate(135)"/>
  </g>
  <path d="M68.68,78.72h0c-.265,0-.52-.105-.707-.293l-19.8-19.81c-.188-.188-.293-.442-.293-.707s.105-.52,.293-.707l9.72-9.71c.39-.391,1.023-.391,1.414,0,.39,.391,.39,1.024-.001,1.414l-9.012,9.004,18.386,18.395,17.156-17.155-18.386-18.387-3.143,3.143c-.391,.391-1.023,.391-1.414,0-.391-.391-.391-1.023,0-1.414l3.85-3.851c.375-.375,1.039-.375,1.414,0l19.8,19.801c.391,.391,.391,1.023,0,1.414l-18.57,18.569c-.188,.188-.442,.293-.707,.293Z"/>
  <path class="cls-4" d="M68.683,77.716l-11.889,6.485c-1.022,.558-2.29,.375-3.114-.448l-10.836-10.836c-.824-.824-1.006-2.091-.448-3.114l6.485-11.889,19.802,19.802Z"/>
  <g class="cls-11">
    <path class="cls-2" d="M51.51,60.55l-6.96,12.1c-.29,.5-.42,1.06-.38,1.59l-1.32-1.32c-.83-.83-1.01-2.09-.45-3.12l6.48-11.89,2.63,2.64Z"/>
  </g>
  <g class="cls-10">
    <path d="M68.68,77.72l-11.89,6.48c-1.02,.56-2.29,.38-3.11-.45l-.94-.94c.26-.07,.53-.18,.78-.33l12.53-7.39,2.63,2.63Z"/>
  </g>
  <path d="M55.545,85.518c-.943,0-1.878-.364-2.572-1.058l-10.835-10.836c-1.129-1.129-1.384-2.896-.62-4.299l6.485-11.89c.151-.277,.423-.467,.735-.512,.314-.047,.626,.061,.85,.283l19.802,19.802c.223,.223,.328,.538,.283,.85-.045,.312-.234,.584-.511,.735l-11.889,6.485c-.541,.295-1.136,.438-1.728,.438Zm-6.426-25.951l-5.845,10.716c-.343,.629-.229,1.422,.278,1.928l10.836,10.836c.506,.505,1.299,.619,1.928,.277l10.716-5.846-17.912-17.911Z"/>
  <path d="M55.545,85.518c-.943,0-1.878-.364-2.572-1.058l-10.835-10.836c-1.129-1.129-1.384-2.896-.62-4.299l6.485-11.89c.151-.277,.423-.467,.735-.512,.314-.047,.626,.061,.85,.283l19.802,19.802c.223,.223,.328,.538,.283,.85-.045,.312-.234,.584-.511,.735l-11.889,6.485c-.541,.295-1.136,.438-1.728,.438Zm-6.426-25.951l-5.845,10.716c-.343,.629-.229,1.422,.278,1.928l10.836,10.836c.506,.505,1.299,.619,1.928,.277l10.716-5.846-17.912-17.911Z"/>
  <path d="M54.051,77.13c-.354,0-.697-.189-.879-.522-.265-.484-.086-1.092,.399-1.356l2.75-1.5c.486-.264,1.093-.086,1.357,.399,.265,.484,.086,1.092-.399,1.356l-2.75,1.5c-.152,.083-.316,.122-.478,.122Z"/>
  <path d="M59.031,74.42c-.355,0-.698-.189-.879-.522-.264-.485-.085-1.093,.4-1.356l3.47-1.89c.484-.265,1.092-.086,1.356,.399,.264,.485,.085,1.093-.4,1.356l-3.47,1.89c-.152,.083-.315,.122-.477,.122Z"/>
  <path d="M50.892,72.757c-.162,0-.326-.039-.478-.122-.485-.265-.664-.872-.399-1.358l4.177-7.654c.265-.483,.874-.662,1.357-.398,.485,.265,.664,.872,.399,1.357l-4.177,7.654c-.182,.332-.525,.52-.879,.52Z"/>
  <path d="M54.78,81.52c-.354,0-.697-.188-.879-.522-.265-.484-.086-1.092,.399-1.356l10.811-5.898c.487-.264,1.093-.085,1.357,.399,.265,.484,.086,1.092-.399,1.356l-10.811,5.897c-.152,.083-.316,.122-.478,.122Z"/>
  <path d="M50.079,65.49c-.162,0-.326-.039-.478-.122-.485-.265-.664-.872-.399-1.358l1.9-3.48c.265-.483,.873-.663,1.357-.399,.485,.265,.664,.872,.399,1.358l-1.9,3.48c-.182,.332-.525,.521-.879,.521Z"/>
  <path d="M46.539,71.97c-.162,0-.326-.039-.478-.122-.485-.265-.663-.872-.399-1.358l1.85-3.39c.265-.483,.873-.663,1.357-.398,.485,.265,.664,.872,.399,1.358l-1.85,3.39c-.182,.332-.525,.521-.879,.521Z"/>
  <path class="cls-6" d="M74.25,64.72c-3.41,3.42-8.96,3.42-12.37,0-.28-.28-.53-.57-.76-.87-.21-.27-.4-.55-.56-.83-.18-.3-.34-.6-.48-.91-.3-.68-.51-1.38-.63-2.1-.47-2.7,.34-5.58,2.43-7.66,2.41-2.42,5.89-3.13,8.92-2.13,.68,.23,1.34,.54,1.97,.94,.28,.18,.56,.38,.83,.6,.22,.18,.44,.38,.65,.59l.09,.09c3.33,3.41,3.3,8.89-.09,12.28Z"/>
  <g>
    <path class="cls-2" d="M72.77,51.16l-12.69,10.95c-.3-.68-.51-1.38-.63-2.1l11.35-9.79c.68,.23,1.34,.54,1.97,.94Z"/>
    <path class="cls-2" d="M74.34,52.44l-13.22,11.41c-.21-.27-.4-.55-.56-.83l13.04-11.26c.22,.18,.44,.38,.65,.59l.09,.09Z"/>
  </g>
  <path d="M68.065,68.279c-2.497,0-4.994-.95-6.895-2.851-3.802-3.802-3.802-9.989,0-13.791,3.801-3.801,9.988-3.801,13.791,0h0c3.802,3.802,3.802,9.989,0,13.791-1.901,1.9-4.398,2.851-6.895,2.851Zm0-17.493c-1.985,0-3.97,.755-5.481,2.266-3.022,3.022-3.022,7.94,0,10.963,3.023,3.021,7.94,3.02,10.962,0,3.022-3.022,3.022-7.94,0-10.963-1.511-1.511-3.496-2.266-5.481-2.266Z"/>
  <path class="cls-9" d="M84.772,41.825c6.835,6.835,17.917,6.835,24.752,0l-24.752-24.752c-6.835,6.835-6.835,17.917,0,24.752Z"/>
  <g class="cls-10">
    <path d="M109.52,41.83c-.12,.11-.23,.23-.35,.34-6.85,6.49-17.68,6.38-24.4-.34-.08-.08-.16-.16-.23-.24,6.8,3.84,15.52,2.97,21.46-2.59,.02-.02,.05-.04,.07-.06l.01,.02,.29-.29,3.15,3.16Z"/>
  </g>
  <g class="cls-11">
    <path class="cls-2" d="M89,44.94c-1.52-.8-2.95-1.83-4.23-3.11-6.71-6.72-6.83-17.54-.34-24.4,.11-.12,.22-.24,.34-.36l2.53,2.53c-.12,.12-.23,.24-.34,.36-5.99,6.88-5.73,17.32,.81,23.87,.39,.39,.8,.77,1.23,1.11Z"/>
  </g>
  <path d="M97.148,47.943c-4.737,0-9.476-1.802-13.085-5.405-3.139-3.14-5.042-7.307-5.361-11.736-.04-.551,.375-1.029,.926-1.068,.56-.042,1.03,.374,1.069,.926,.284,3.949,1.981,7.665,4.779,10.464,6.202,6.192,16.14,6.422,22.608,.686l-23.293-23.302c-1.496,1.692-2.639,3.693-3.33,5.84-.169,.524-.732,.812-1.258,.645-.526-.169-.815-.732-.646-1.259,.89-2.764,2.447-5.312,4.505-7.37,.188-.188,.442-.293,.707-.293h0c.266,0,.52,.105,.707,.293l24.75,24.76c.391,.391,.391,1.024,0,1.414-3.604,3.605-8.341,5.406-13.079,5.406Z"/>
  <path class="cls-3" d="M96.214,10.884h1.995c1.104,0,2,.896,2,2v31.005c0,1.104-.896,2-2,2h-1.995V10.884h0Z" transform="translate(8.693 77.76) rotate(-45)"/>
  <g class="cls-10">
    <path d="M84.42,17.42l.35-.35c-.12,.12-.23,.24-.34,.36l-.01-.01Z"/>
  </g>
  <g class="cls-10">
    <path d="M110.59,40.76l-1.07,1.07-.34,.35-.01-.01-3.17-3.17c.02-.02,.05-.04,.07-.06l.01,.02,1.48-1.48c.56-.55,.73-1.34,.53-2.04l2.5,2.5c.78,.78,.78,2.04,0,2.82Z"/>
  </g>
  <path class="cls-2" d="M88.66,16.01l1.43,1.43c-.46,.02-.91,.22-1.26,.57l-1.41,1.41,.02,.02c-.05,.05-.1,.11-.14,.16-.12,.12-.23,.24-.34,.36l-2.53-2.53-.01-.01,1.41-1.41c.78-.78,2.05-.78,2.83,0Z"/>
  <path d="M109.175,43.175c-.256,0-.512-.098-.707-.293l-24.753-24.752c-.391-.391-.391-1.024,0-1.414l1.411-1.411c1.17-1.168,3.073-1.169,4.242,0l21.924,21.925c1.169,1.17,1.169,3.073,0,4.243h0l-1.411,1.41c-.195,.195-.451,.293-.707,.293Zm1.411-2.41h0Zm-24.749-23.342l23.338,23.338,.704-.703c.39-.391,.39-1.025,0-1.415l-21.923-21.924c-.39-.389-1.025-.39-1.415,0l-.703,.703Z"/>
  <polygon class="cls-7" points="105.709 20.683 104.213 25.376 102.718 30.068 99.521 26.871 96.324 23.674 101.016 22.178 105.709 20.683"/>
  <path d="M102.718,31.068c-.262,0-.518-.104-.707-.293l-6.394-6.395c-.247-.247-.347-.605-.265-.943,.083-.339,.335-.61,.668-.717l9.385-2.991c.356-.113,.746-.019,1.011,.246,.265,.265,.359,.654,.246,1.011l-2.991,9.386c-.106,.332-.377,.586-.716,.668-.079,.02-.158,.028-.236,.028Zm-4.525-6.94l4.071,4.072,1.905-5.977-5.976,1.904Z"/>
  <g>
    <path class="cls-6" d="M50.58,88.71l-5.85,21.37c-.36,1.3-1.98,1.73-2.93,.78l-16.17-16.17-.71-.71-1.42-1.42-7.76-7.76c-.95-.95-.52-2.57,.77-2.93l21.37-5.86c.61-.16,1.26,.01,1.7,.45l1.19,1.19,1.42,1.42,.71,.71,.71,.71,6.52,6.52c.45,.45,.62,1.1,.45,1.7Z"/>
    <g>
      <polygon class="cls-2" points="42.19 79.07 24.92 93.98 23.5 92.56 40.77 77.65 42.19 79.07"/>
      <polygon class="cls-2" points="43.61 80.49 26.33 95.39 25.63 94.69 42.9 79.78 43.61 80.49"/>
    </g>
    <path d="M43.027,112.374c-.717,0-1.406-.282-1.933-.809l-26.062-26.062c-.701-.7-.968-1.69-.714-2.648s.976-1.686,1.932-1.948l21.371-5.858c.95-.262,1.974,.012,2.671,.708h0l10.549,10.549c.697,.697,.968,1.721,.708,2.671l-5.857,21.372c-.262,.956-.99,1.678-1.948,1.932-.238,.062-.479,.094-.716,.094Zm-4.681-35.423c-.066,0-.132,.009-.197,.027l-21.371,5.857c-.376,.103-.494,.405-.527,.53-.033,.126-.081,.447,.195,.723l26.062,26.062c.276,.275,.598,.227,.723,.195,.126-.033,.428-.151,.531-.527l5.857-21.371c.071-.259-.003-.538-.194-.729l-10.548-10.549c-.143-.142-.335-.22-.532-.22Z"/>
    <path d="M37.74,107.8c-.138,0-.278-.028-.411-.089-.503-.228-.727-.819-.499-1.323l6.82-15.09c.227-.503,.82-.728,1.323-.499,.503,.228,.727,.819,.499,1.323l-6.82,15.09c-.167,.369-.531,.588-.912,.588Z"/>
    <path d="M46.399,88.64c-.138,0-.278-.028-.413-.089-.503-.229-.726-.821-.497-1.324l1.36-3c.227-.504,.818-.726,1.324-.498,.503,.229,.726,.821,.498,1.324l-1.36,3c-.167,.369-.531,.587-.911,.587Z"/>
    <path d="M37.411,81.89c-.381,0-.746-.219-.912-.589-.227-.504-.003-1.096,.501-1.323l4.55-2.05c.503-.225,1.096-.003,1.322,.501,.227,.504,.003,1.096-.501,1.323l-4.55,2.05c-.133,.06-.273,.088-.41,.088Z"/>
    <path d="M19.8,89.85c-.381,0-.745-.219-.912-.589-.227-.503-.003-1.096,.5-1.322l13.64-6.159c.504-.228,1.096-.004,1.323,.5,.227,.503,.003,1.096-.5,1.322l-13.64,6.159c-.134,.061-.273,.089-.411,.089Z"/>
    <path d="M34.76,94.08c-.256,0-.512-.098-.707-.293-.391-.391-.391-1.023,0-1.414l10.41-10.41c.391-.391,1.023-.391,1.414,0,.391,.391,.391,1.023,0,1.414l-10.41,10.41c-.195,.195-.451,.293-.707,.293Z"/>
    <path d="M29.7,99.14c-.256,0-.512-.098-.707-.293-.391-.391-.391-1.023,0-1.414l2.37-2.37c.391-.391,1.023-.391,1.414,0,.391,.391,.391,1.023,0,1.414l-2.37,2.37c-.195,.195-.451,.293-.707,.293Z"/>
    <path d="M47.025,102.23c-.256,0-.512-.098-.707-.293l-21.658-21.658c-.391-.391-.391-1.023,0-1.414s1.023-.391,1.414,0l21.658,21.658c.391,.391,.391,1.023,0,1.414-.195,.195-.451,.293-.707,.293Z"/>
  </g>
  <g>
    <path class="cls-6" d="M90.57,97.84l-32.92,16.58c-1.2,.6-2.61-.31-2.54-1.65l.37-7.19,.07-1.38,.21-4.14,.49-9.42c.04-.63,.4-1.19,.96-1.48l13.33-6.7c.56-.29,1.23-.25,1.76,.1l2.11,1.4,1.73,1.15,.86,.58,.87,.57,12.88,8.56c1.12,.75,1.02,2.42-.18,3.02Z"/>
    <g>
      <polygon class="cls-2" points="76.14 85.11 55.62 102.82 55.76 100.06 74.41 83.96 76.14 85.11"/>
      <polygon class="cls-2" points="77.87 86.26 55.48 105.58 55.55 104.2 77 85.69 77.87 86.26"/>
    </g>
    <path d="M56.858,115.61c-.522,0-1.041-.151-1.5-.451-.83-.541-1.294-1.455-1.243-2.444l1.14-22.129c.05-.983,.629-1.871,1.509-2.314l13.326-6.71h0c.881-.441,1.937-.378,2.758,.166l18.456,12.264c.826,.549,1.283,1.467,1.223,2.456-.059,.989-.623,1.846-1.508,2.291l-32.92,16.575c-.396,.198-.819,.297-1.24,.297Zm14.131-32.262l-13.325,6.709c-.24,.121-.398,.363-.412,.631l-1.14,22.13c-.02,.389,.231,.596,.339,.666,.108,.072,.4,.217,.748,.042l32.92-16.575c.348-.175,.403-.495,.411-.624,.008-.13-.009-.454-.334-.67l-18.456-12.264c-.223-.148-.511-.166-.752-.045Z"/>
    <path d="M62.779,112.84c-.505,0-.939-.381-.993-.894l-.5-4.69c-.059-.55,.339-1.042,.888-1.1,.559-.058,1.042,.34,1.1,.888l.5,4.689c.059,.55-.339,1.042-.888,1.101-.036,.004-.072,.006-.107,.006Z"/>
    <path d="M61.949,105c-.505,0-.939-.381-.994-.895l-1.74-16.35c-.059-.549,.339-1.041,.888-1.1,.559-.06,1.042,.34,1.101,.889l1.74,16.35c.059,.549-.339,1.041-.888,1.1-.036,.004-.072,.006-.107,.006Z"/>
    <path d="M79.569,96.03c-.242,0-.484-.087-.676-.264l-12.03-11.061c-.407-.374-.433-1.007-.06-1.413,.374-.408,1.007-.434,1.413-.06l12.03,11.061c.407,.374,.433,1.007,.06,1.413-.197,.215-.467,.323-.737,.323Z"/>
    <path d="M85.44,101.43c-.242,0-.484-.087-.676-.264l-2.74-2.519c-.407-.374-.433-1.007-.059-1.413,.373-.407,1.006-.434,1.413-.06l2.74,2.52c.407,.374,.433,1.007,.059,1.413-.197,.215-.466,.323-.736,.323Z"/>
    <path d="M66.761,91.57c-.366,0-.719-.201-.895-.551l-2.1-4.181c-.248-.494-.049-1.095,.445-1.343,.494-.248,1.095-.049,1.342,.444l2.1,4.181c.248,.494,.049,1.095-.445,1.343-.144,.072-.297,.106-.448,.106Z"/>
    <path d="M74.501,106.94c-.366,0-.718-.201-.894-.551l-6.03-11.98c-.248-.493-.05-1.094,.443-1.343,.495-.247,1.096-.049,1.343,.444l6.03,11.98c.249,.493,.05,1.094-.443,1.343-.144,.072-.298,.106-.449,.106Z"/>
    <path d="M55.708,104.64c-.366,0-.718-.201-.894-.551-.249-.493-.05-1.094,.443-1.343l27.358-13.774c.494-.247,1.095-.05,1.343,.444,.248,.493,.05,1.094-.443,1.343l-27.358,13.774c-.144,.072-.298,.106-.449,.106Z"/>
  </g>
  <g>
    <path class="cls-6" d="M44.72,56.64l-1.51,3-3.69,7.32-1.51,3c-.28,.56-.84,.93-1.47,.96l-22.13,1.14c-1.34,.07-2.26-1.33-1.65-2.53l2.58-5.13,2.04-4.04,1.17-2.34,1.18-2.33,1.51-3.01,.84-1.66,4.67-9.29,2.58-5.12c.6-1.2,2.28-1.3,3.02-.19l2.42,3.64,1.11,1.68,.56,.84,.56,.84,7.61,11.46c.35,.52,.39,1.19,.11,1.76Z"/>
    <g>
      <polygon class="cls-2" points="35.88 41.74 30.8 46.13 22.49 53.31 19.73 55.69 21.24 52.68 22.08 51.02 29.44 44.66 34.77 40.06 35.88 41.74"/>
      <polygon class="cls-2" points="37 43.42 32.15 47.61 24.42 54.28 17.38 60.36 18.55 58.02 23.45 53.79 31.47 46.87 36.44 42.58 37 43.42"/>
    </g>
    <path d="M14.311,73.062c-.934,0-1.785-.46-2.299-1.25-.54-.829-.593-1.852-.145-2.735L28.437,36.16c.441-.883,1.297-1.448,2.288-1.51,1.002-.065,1.909,.393,2.458,1.215l12.261,18.462c.543,.808,.612,1.864,.175,2.754-.001,.003-.003,.006-.004,.008l-6.711,13.32c-.441,.883-1.329,1.462-2.315,1.51l-22.127,1.14c-.05,.002-.1,.004-.15,.004ZM30.896,36.645c-.018,0-.033,0-.047,.001-.13,.009-.451,.064-.625,.411L13.653,69.979c-.177,.349-.034,.636,.036,.742,.07,.108,.264,.367,.668,.339l22.131-1.14c.268-.013,.507-.169,.626-.408l6.709-13.317c.121-.248,.104-.537-.044-.758l-12.263-18.464c-.19-.285-.471-.328-.622-.328Zm13.824,19.994h0Z"/>
    <path d="M18.832,65.77c-.036,0-.071-.002-.106-.006l-3.49-.369c-.549-.058-.948-.55-.89-1.1,.059-.549,.563-.944,1.1-.889l3.49,.369c.549,.058,.948,.55,.89,1.1-.055,.513-.488,.895-.993,.895Z"/>
    <path d="M39.521,67.96c-.035,0-.07-.002-.106-.006l-16.52-1.75c-.549-.058-.947-.55-.889-1.1,.059-.55,.539-.948,1.1-.889l16.52,1.75c.549,.058,.947,.55,.889,1.1-.055,.514-.488,.895-.994,.895Z"/>
    <path d="M43.21,60.64c-.27,0-.539-.108-.737-.323l-11.02-11.989c-.373-.406-.347-1.039,.06-1.413,.407-.374,1.039-.347,1.413,.06l11.02,11.989c.374,.406,.347,1.039-.06,1.413-.192,.177-.435,.264-.676,.264Z"/>
    <path d="M29.871,46.13c-.271,0-.54-.109-.737-.324l-3.12-3.399c-.374-.406-.346-1.039,.06-1.412,.407-.375,1.04-.346,1.413,.061l3.12,3.399c.374,.406,.346,1.039-.06,1.412-.192,.177-.435,.264-.676,.264Z"/>
    <path d="M40.779,63.51c-.151,0-.304-.034-.449-.106l-2.78-1.399c-.493-.249-.692-.85-.443-1.343,.248-.493,.847-.691,1.343-.444l2.78,1.399c.493,.249,.692,.85,.443,1.343-.176,.35-.528,.551-.894,.551Z"/>
    <path d="M34.339,60.27c-.151,0-.304-.034-.448-.106l-13.1-6.59c-.494-.248-.692-.85-.444-1.343,.248-.493,.849-.691,1.343-.444l13.1,6.59c.494,.248,.692,.85,.444,1.343-.176,.35-.528,.551-.895,.551Z"/>
    <path d="M23.535,72.468c-.151,0-.305-.034-.449-.106-.493-.249-.692-.85-.443-1.343l13.774-27.357c.248-.494,.849-.692,1.343-.444,.493,.249,.692,.85,.443,1.343l-13.774,27.357c-.176,.35-.528,.551-.894,.551Z"/>
  </g>
  <path class="cls-3" d="M108.287,18.311c1.025,1.025,1.025,2.688,0,3.713-1.025,1.025-2.688,1.025-3.713,0s-1.025-2.688,0-3.713c1.025-1.025,2.688-1.025,3.713,0Z"/>
  <path d="M106.431,23.793c-.968,0-1.879-.378-2.564-1.062-.685-.685-1.062-1.595-1.062-2.563s.377-1.879,1.062-2.564c1.369-1.369,3.758-1.369,5.127,0,.685,.685,1.062,1.595,1.062,2.564s-.377,1.879-1.062,2.563c-.684,.685-1.595,1.062-2.563,1.062Zm0-5.252c-.434,0-.842,.17-1.15,.477-.307,.307-.476,.715-.476,1.149s.169,.843,.476,1.149c.614,.613,1.685,.613,2.299,0,.307-.307,.476-.715,.476-1.149s-.169-.843-.476-1.149c-.307-.307-.715-.477-1.149-.477Z"/>
  <g class="cls-10">
    <path d="M84.77,17.07c-.12,.12-.23,.24-.34,.36l-.01-.01,.35-.35Z"/>
  </g>
  <path d="M55.545,85.518c-.943,0-1.878-.364-2.572-1.058l-10.835-10.836c-1.129-1.129-1.384-2.896-.62-4.299l6.485-11.89c.151-.277,.423-.467,.735-.512,.314-.047,.626,.061,.85,.283l19.802,19.802c.223,.223,.328,.538,.283,.85-.045,.312-.234,.584-.511,.735l-11.889,6.485c-.541,.295-1.136,.438-1.728,.438Zm-6.426-25.951l-5.845,10.716c-.343,.629-.229,1.422,.278,1.928l10.836,10.836c.506,.505,1.299,.619,1.928,.277l10.716-5.846-17.912-17.911Z"/>
  <g>
    <path d="M61.001,35c-.289,0-.575-.124-.773-.364l-4.51-5.48c-.351-.427-.29-1.057,.137-1.408,.426-.351,1.057-.29,1.407,.137l4.51,5.481c.351,.427,.29,1.057-.137,1.408-.186,.153-.411,.227-.635,.227Z"/>
    <path d="M53.221,25.56c-.289,0-.575-.124-.773-.364l-6.22-7.56c-.351-.427-.29-1.057,.137-1.408,.426-.351,1.057-.289,1.407,.137l6.22,7.56c.351,.427,.29,1.057-.137,1.408-.186,.153-.411,.228-.635,.228Z"/>
    <path d="M66,34c-.552,0-1-.447-1-1v-15c0-.553,.448-1,1-1s1,.447,1,1v15c0,.553-.448,1-1,1Z"/>
    <path d="M59.73,39.391c-.029,0-.059,0-.089-.004l-15.729-1.391c-.55-.049-.957-.534-.908-1.084,.048-.55,.536-.955,1.084-.908l15.728,1.391c.55,.049,.957,.534,.908,1.084-.046,.52-.482,.912-.995,.912Z"/>
  </g>
  <g>
    <path d="M100.259,71.1c-.224,0-.449-.074-.635-.227l-6.559-5.399c-.426-.352-.487-.981-.136-1.408,.351-.426,.98-.488,1.408-.137l6.56,5.399c.426,.352,.487,.981,.136,1.408-.198,.24-.484,.364-.772,.364Z"/>
    <path d="M110.7,79.7c-.224,0-.449-.075-.636-.228l-6.04-4.98c-.426-.352-.487-.981-.135-1.407,.352-.427,.982-.485,1.408-.136l6.04,4.98c.426,.352,.487,.981,.135,1.407-.198,.24-.484,.364-.772,.364Z"/>
    <path d="M109.695,60.695h-15c-.552,0-1-.447-1-1s.448-1,1-1h15c.552,0,1,.447,1,1s-.448,1-1,1Z"/>
    <path d="M90.694,82.695c-.513,0-.949-.392-.995-.912l-1.391-15.728c-.049-.55,.358-1.035,.908-1.084,.556-.052,1.036,.358,1.084,.908l1.391,15.729c.049,.55-.358,1.035-.908,1.084-.03,.003-.06,.004-.089,.004Z"/>
  </g>
  <g>
    <path class="cls-5" d="M98.024,104.768c.438,.337,.519,.965,.182,1.402-1.513,1.966-1.145,4.797,.821,6.311,.438,.337,.519,.965,.183,1.402-.337,.438-.965,.519-1.402,.183-1.967-1.513-4.797-1.145-6.311,.821-.337,.438-.965,.519-1.402,.182-.438-.337-.519-.965-.183-1.402,1.513-1.966,1.145-4.797-.821-6.311-.438-.337-.519-.965-.182-1.402,.337-.438,.965-.519,1.402-.182,1.967,1.513,4.797,1.145,6.311-.821,.337-.438,.965-.519,1.402-.183Z"/>
    <path d="M90.705,115.277c-.213,0-.428-.067-.609-.207-.438-.337-.52-.965-.183-1.402h0s.003-.004,.004-.006c.821-1.07,1.119-2.427,.817-3.725-.125-.538,.21-1.076,.748-1.2,.535-.133,1.075,.208,1.2,.747,.157,.678,.203,1.367,.14,2.043,.448-.164,.918-.279,1.402-.343,.488-.065,.975-.072,1.452-.027-.198-.54-.324-1.108-.372-1.69-.045-.551,.364-1.033,.914-1.079,.546-.045,1.033,.365,1.079,.915,.105,1.271,.719,2.399,1.731,3.179,.438,.337,.52,.965,.183,1.402-.338,.438-.966,.519-1.402,.182h0s-.001,0-.002,0c-.953-.733-2.135-1.05-3.324-.897-1.191,.155-2.252,.766-2.985,1.72-.197,.256-.494,.39-.793,.39Z"/>
  </g>
  <g>
    <path class="cls-1" d="M25.475,19.89c1.705-1.404,4.218-1.171,5.612,.522,1.394,1.693,1.142,4.204-.563,5.608-1.705,1.404-4.218,1.171-5.612-.522-1.394-1.693-1.142-4.204,.563-5.608Z"/>
    <path d="M30.711,26.854c-.268,0-.535-.106-.731-.318-.376-.403-.354-1.036,.049-1.413,1.155-1.077,1.281-2.866,.286-4.074-1.041-1.265-2.928-1.436-4.205-.386-.964,.794-1.338,2.11-.931,3.276,.182,.521-.093,1.092-.615,1.273-.524,.183-1.092-.093-1.274-.615-.682-1.953-.06-4.155,1.548-5.479,2.127-1.752,5.276-1.458,7.02,.658,1.665,2.021,1.46,5.013-.466,6.809-.193,.18-.438,.269-.682,.269Z"/>
  </g>
  <g>
    <path d="M114.374,97.291c-.328,0-.649-.161-.841-.457l-1.617-2.499c-.3-.464-.167-1.083,.297-1.383,.462-.3,1.083-.167,1.383,.297l1.617,2.499c.3,.464,.167,1.083-.297,1.383-.167,.108-.356,.16-.542,.16Z"/>
    <path d="M110.564,91.401c-.328,0-.649-.161-.84-.457l-1.612-2.49c-.3-.463-.168-1.082,.296-1.383,.464-.3,1.083-.167,1.383,.297l1.612,2.49c.3,.463,.167,1.082-.296,1.383-.168,.108-.356,.16-.542,.16Z"/>
    <path d="M107.467,95.81c-.328,0-.649-.161-.84-.457-.3-.463-.167-1.082,.296-1.383l2.498-1.617c.465-.3,1.083-.167,1.383,.297,.3,.463,.167,1.082-.296,1.383l-2.498,1.617c-.168,.108-.356,.16-.542,.16Z"/>
    <path d="M113.356,92c-.328,0-.649-.161-.841-.457-.3-.464-.167-1.083,.297-1.383l2.491-1.611c.463-.3,1.083-.167,1.383,.297,.3,.464,.167,1.083-.297,1.383l-2.491,1.611c-.167,.108-.356,.16-.542,.16Z"/>
  </g>
</svg>