<?xml version="1.0" encoding="UTF-8"?>
<svg id="Outline" xmlns="http://www.w3.org/2000/svg" version="1.1" viewBox="0 0 64 64">
  <!-- Generator: Adobe Illustrator 29.5.1, SVG Export Plug-In . SVG Version: 2.1.0 Build 141)  -->
  <path d="M40.96,30.479c-.558-.082-1.053.305-1.13.851-.734,5.226-3.825,9.711-8.065,11.705-.312.146-.525.442-.566.784-.819,6.708-6.005,11.608-11.819,11.153-5.82-.461-10.379-6.336-10.379-13.373v-16.6c0-8.822,6.173-16,13.76-16h.13c2.719,0,5.31.717,7.701,2.131.474.279,1.089.123,1.369-.353.281-.476.124-1.089-.352-1.369-2.704-1.599-5.637-2.409-8.719-2.409h-.13c-8.69,0-15.76,8.075-15.76,18v16.6c0,8.073,5.368,14.823,12.222,15.367.303.023.604.035.904.035,6.347,0,11.874-5.242,12.982-12.4,4.59-2.383,7.903-7.309,8.702-12.992.077-.547-.304-1.053-.851-1.13Z"/>
  <path d="M15.82,37h-1.61c-1.103,0-2,.897-2,2v2.6c0,4.938,3.238,9.058,7.419,9.381.18.01.351.02.531.02,3.94,0,7.32-3.335,7.863-7.761l.344-2.88,2.268-1.064c3.563-1.671,5.914-5.412,6.135-9.825,0-.542-.433-.98-.975-.994h-.025c-.531,0-.972.421-.999.954-.182,3.612-2.092,6.698-4.985,8.055l-2.77,1.301c-.312.146-.527.444-.568.786l-.409,3.427c-.42,3.422-2.946,6.002-5.878,6.002-.142,0-.275-.008-.423-.017-3.1-.24-5.527-3.483-5.527-7.384v-2.6h1.61c1.984,0,3.6-1.794,3.6-4,0-1.045-.357-2.031-1.013-2.785-.697-.783-1.616-1.215-2.587-1.215h-1.61v-6c0-1.56.316-3.033.863-4.35.723-1.048,1.779-1.65,2.917-1.65.977,0,1.906.449,2.615,1.267.733.844,1.154,2.022,1.154,3.233s-.421,2.39-1.154,3.233c-.709.817-1.639,1.267-2.615,1.267-.553,0-1,.447-1,1s.447,1,1,1c1.542,0,3.046-.712,4.125-1.954,1.061-1.221,1.645-2.836,1.645-4.546s-.584-3.325-1.645-4.546c-1.079-1.242-2.583-1.954-4.125-1.954-.123,0-.245.016-.367.025,1.432-1.265,3.208-2.025,5.136-2.025h.12c1.744,0,3.417.43,4.972,1.278.482.265,1.092.086,1.356-.399.265-.484.086-1.092-.399-1.356-1.852-1.01-3.847-1.522-5.929-1.522h-.12c-4.129,0-7.701,2.718-9.433,6.657-.002.003-.004.005-.006.008h.002s0,.001,0,.001c-.706,1.609-1.113,3.416-1.113,5.334v6c0,1.103.897,2,2,2h1.61c.503,0,.872.296,1.085.536.332.381.515.901.515,1.464,0,1.103-.718,2-1.6,2Z"/>
  <path d="M25.76,17.51c-.519-.189-1.092.08-1.28.601-.188.52.081,1.093.601,1.28,3.362,1.215,5.71,5.109,5.71,9.47,0,.553.447,1,1,1s1-.447,1-1c0-5.187-2.891-9.854-7.03-11.351Z"/>
  <path d="M45.091,7c-6.517,0-14.091,4.805-14.091,11s7.504,10.952,14,10.996v17.004c0,3.309,2.691,6,6,6s6-2.691,6-6v-28c0-6.065-5.343-11-11.909-11ZM55,18c0,4.963-4.445,9-9.909,9-2.416,0-5.052-.783-7.245-2.084,1.344-1.679,2.154-4.197,2.154-6.916s-.81-5.237-2.154-6.916c2.193-1.301,4.829-2.084,7.245-2.084,5.464,0,9.909,4.037,9.909,9ZM33,18c0-2.204,1.295-4.216,3.21-5.777,1.103,1.304,1.79,3.47,1.79,5.777s-.687,4.474-1.79,5.777c-1.915-1.561-3.21-3.573-3.21-5.777ZM55,46c0,2.206-1.794,4-4,4s-4-1.794-4-4v-17.155c3.328-.499,6.2-2.264,8-4.755v21.91Z"/>
  <path d="M51,31c-.553,0-1,.447-1,1v10c0,.553.447,1,1,1s1-.447,1-1v-10c0-.553-.447-1-1-1Z"/>
  <path d="M47,19h5c.553,0,1-.447,1-1s-.447-1-1-1h-5c-.553,0-1,.447-1,1s.447,1,1,1Z"/>
</svg>