<?xml version="1.0" encoding="UTF-8"?>
<svg id="Outline" xmlns="http://www.w3.org/2000/svg" version="1.1" viewBox="0 0 64 64">
  <!-- Generator: Adobe Illustrator 29.5.1, SVG Export Plug-In . SVG Version: 2.1.0 Build 141)  -->
  <path d="M53,32.52v-2.52c0-1.3-.84-2.4-2-2.82v-1.18c0-10.48-8.52-19-19-19S13,15.52,13,26v1.18c-1.16.42-2,1.52-2,2.82v2.52c-2.41,1.62-4,4.37-4,7.48,0,4.96,4.04,9,9,9h3.18c.42,1.16,1.52,2,2.82,2,1.65,0,3-1.35,3-3v-8c0-.55-.45-1-1-1s-1,.45-1,1v8c0,.55-.45,1-1,1s-1-.45-1-1v-16c0-.55.45-1,1-1s1,.45,1,1v4c0,.55.45,1,1,1s1-.45,1-1v-4c0-1.65-1.35-3-3-3-1.3,0-2.4.84-2.82,2h-2.18v-1c0-1.3-.84-2.4-2-2.82v-1.18c0-4.58,1.83-8.74,4.79-11.8l1.47,1.48c.39.39.91.59,1.42.59.43,0,.87-.14,1.22-.43,2.29-1.83,5.17-2.84,8.1-2.84s5.81,1.01,8.1,2.84c.78.63,1.92.56,2.64-.16l1.47-1.48c2.96,3.06,4.79,7.22,4.79,11.8v1.18c-1.16.42-2,1.52-2,2.82v1h-2.18c-.42-1.16-1.52-2-2.82-2-1.65,0-3,1.35-3,3v16c0,1.3.84,2.4,2,2.82v.18c0,1.1-.9,2-2,2h-2.18c-.42-1.16-1.52-2-2.82-2h-4c-1.65,0-3,1.35-3,3s1.35,3,3,3h4c1.3,0,2.4-.84,2.82-2h2.18c2.21,0,4-1.79,4-4v-.18c.85-.31,1.51-.97,1.82-1.82h3.18c4.96,0,9-4.04,9-9,0-3.11-1.59-5.86-4-7.48ZM13,30c0-.55.45-1,1-1s1,.45,1,1v1.06c-.69.08-1.36.24-2,.47v-1.53ZM16,33h3v14h-3c-3.86,0-7-3.14-7-7s3.14-7,7-7ZM41.35,14.28c-2.64-2.12-5.96-3.28-9.35-3.28s-6.71,1.16-9.32,3.26l-1.43-1.42c2.94-2.4,6.68-3.84,10.75-3.84s7.82,1.44,10.75,3.85l-1.4,1.43ZM34,55h-4c-.55,0-1-.45-1-1s.45-1,1-1h4c.55,0,1,.45,1,1s-.45,1-1,1ZM49,30c0-.55.45-1,1-1s1,.45,1,1v1.53c-.64-.23-1.31-.39-2-.47v-1.06ZM48,47h-3v-2c0-.55-.45-1-1-1s-1,.45-1,1v3c0,.55-.45,1-1,1s-1-.45-1-1v-16c0-.55.45-1,1-1s1,.45,1,1v9c0,.55.45,1,1,1s1-.45,1-1v-8h3c3.86,0,7,3.14,7,7s-3.14,7-7,7Z"/>
  <path d="M33,47v-14c0-.553-.448-1-1-1s-1,.447-1,1v14c0,.553.448,1,1,1s1-.447,1-1Z"/>
  <path d="M29,45v-10c0-.553-.448-1-1-1s-1,.447-1,1v10c0,.553.448,1,1,1s1-.447,1-1Z"/>
  <path d="M37,43v-6c0-.553-.448-1-1-1s-1,.447-1,1v6c0,.553.448,1,1,1s1-.447,1-1Z"/>
</svg>