<?xml version="1.0" encoding="UTF-8"?>
<svg id="Outline" xmlns="http://www.w3.org/2000/svg" version="1.1" viewBox="0 0 64 64">
  <!-- Generator: Adobe Illustrator 29.5.1, SVG Export Plug-In . SVG Version: 2.1.0 Build 141)  -->
  <path d="M25.08,19.391c3.362,1.215,5.71,5.108,5.71,9.469,0,.552.448,1,1,1s1-.448,1-1c0-5.188-2.891-9.854-7.03-11.35-.52-.188-1.093.081-1.28.601-.188.52.081,1.093.601,1.28Z"/>
  <path d="M56,20.017c-.544-.102-1.064.26-1.164.803-.87,4.74-5.007,8.181-9.836,8.181-5.514,0-10-4.486-10-10s4.486-10,10-10c4.829,0,8.966,3.44,9.836,8.181.1.543.62.904,1.164.803.543-.1.903-.621.803-1.164-1.044-5.689-6.008-9.819-11.803-9.819-4.064,0-7.657,2.036-9.829,5.137-3.446-3.31-7.755-5.137-12.281-5.137h-.13c-8.69,0-15.76,8.075-15.76,18v1c0,.552.448,1,1,1s1-.448,1-1v-1c0-8.822,6.172-16,13.76-16h.13c4.157,0,8.121,1.756,11.25,4.928-.599,1.277-.98,2.672-1.093,4.144-2.541-3.111-6.153-5.072-10.167-5.072h-.12c-4.129,0-7.701,2.718-9.433,6.658-.002.003-.004.005-.006.008h.001s0,.002,0,.003c-.705,1.609-1.112,3.415-1.112,5.332v6c0,1.103.897,2,2,2h1.61c.503,0,.872.296,1.086.536.332.381.514.901.514,1.464,0,1.103-.718,2-1.6,2h-1.61c-1.103,0-2,.897-2,2v2.6c0,4.938,3.239,9.057,7.395,9.378.188.011.366.021.555.021,2.927,0,5.626-1.901,6.995-4.774l2.519,2.519c-2.151,4.123-6.115,6.561-10.296,6.228-5.82-.461-10.379-6.336-10.379-13.373v-11.6c0-.552-.448-1-1-1s-1,.448-1,1v11.6c0,8.073,5.368,14.823,12.222,15.367.302.023.604.035.904.035,4.394,0,8.486-2.499,10.923-6.618.658,1.121.912,2.441.715,3.751l-.471.471c-.391.391-.391,1.023,0,1.414.195.195.451.293.707.293s.512-.098.707-.293l11.313-11.313c.391-.391.391-1.023,0-1.414s-1.023-.391-1.414,0l-.471.471c-1.797.269-3.613-.313-4.907-1.606l-.364-.364c2.873-2.901,4.659-6.878,5.035-11.215.991.266,2.027.421,3.101.421,5.795,0,10.759-4.13,11.803-9.819.1-.543-.26-1.064-.803-1.164ZM20.16,49c-.148,0-.287-.009-.423-.017-3.1-.239-5.527-3.482-5.527-7.383v-2.6h1.61c1.985,0,3.6-1.794,3.6-4,0-1.045-.357-2.031-1.012-2.785-.697-.784-1.616-1.215-2.588-1.215h-1.61v-6c0-1.56.316-3.032.863-4.349.723-1.049,1.778-1.651,2.917-1.651.977,0,1.906.45,2.615,1.266.734.845,1.155,2.023,1.155,3.234s-.421,2.39-1.155,3.234c-.709.816-1.638,1.266-2.615,1.266-.552,0-1,.448-1,1s.448,1,1,1c1.542,0,3.046-.712,4.125-1.954,1.061-1.221,1.645-2.835,1.645-4.546s-.584-3.325-1.645-4.546c-1.079-1.242-2.582-1.954-4.125-1.954-.123,0-.245.016-.367.025,1.432-1.265,3.208-2.025,5.136-2.025h.12c6.567,0,11.91,6.217,11.91,13.86,0,3.139-1.377,6.043-3.609,7.747-1.832-.803-4.047-.468-5.545,1.029-1.943,1.943-1.947,5.099-.017,7.049-.924,2.56-3.093,4.314-5.459,4.314ZM40.153,45.747l-6.406,6.406c-.239-1.62-.981-3.145-2.175-4.338l-4.521-4.521c-1.169-1.17-1.169-3.073,0-4.243,1.169-1.17,3.072-1.171,4.243,0l4.521,4.521c1.194,1.194,2.718,1.936,4.338,2.175ZM35.452,40.382l-2.565-2.565c2.432-2.113,3.903-5.428,3.903-8.957,0-.398-.027-.789-.052-1.18.938.894,2.021,1.634,3.208,2.188-.229,4.077-1.834,7.825-4.494,10.513Z"/>
  <path d="M43,27h4c.552,0,1-.448,1-1v-4h4c.552,0,1-.448,1-1v-4c0-.552-.448-1-1-1h-4v-4c0-.552-.448-1-1-1h-4c-.552,0-1,.448-1,1v4h-4c-.552,0-1,.448-1,1v4c0,.552.448,1,1,1h4v4c0,.552.448,1,1,1ZM39,20v-2h4c.552,0,1-.448,1-1v-4h2v4c0,.552.448,1,1,1h4v2h-4c-.552,0-1,.448-1,1v4h-2v-4c0-.552-.448-1-1-1h-4Z"/>
</svg>