<?xml version="1.0" encoding="UTF-8"?>
<svg id="Outline" xmlns="http://www.w3.org/2000/svg" version="1.1" viewBox="0 0 64 64">
  <!-- Generator: Adobe Illustrator 29.5.1, SVG Export Plug-In . SVG Version: 2.1.0 Build 141)  -->
  <path d="M43,23c.55,0,1-.45,1-1v-5c0-1.65-1.35-3-3-3-1.43,0-2.63,1.01-2.93,2.36l-13.46,7.18c-.52-.91-1.49-1.54-2.61-1.54h-4c-1.65,0-3,1.35-3,3h-1c-3.86,0-7,3.14-7,7s3.14,7,7,7h1c0,1.65,1.35,3,3,3h4c1.12,0,2.09-.63,2.61-1.54l13.46,7.18c.3,1.35,1.5,2.36,2.93,2.36,1.65,0,3-1.35,3-3v-21c0-.55-.45-1-1-1s-1,.45-1,1v21c0,.55-.45,1-1,1s-1-.45-1-1v-30c0-.55.45-1,1-1s1,.45,1,1v5c0,.55.45,1,1,1ZM15,37h-1c-2.76,0-5-2.24-5-5s2.24-5,5-5h1v10ZM38,45.33l-13-6.93v-1.4c0-.55-.45-1-1-1s-1,.45-1,1v2c0,.55-.45,1-1,1h-4c-.55,0-1-.45-1-1v-14c0-.55.45-1,1-1h4c.55,0,1,.45,1,1v8c0,.55.45,1,1,1s1-.45,1-1v-7.4l13-6.93v26.66Z"/>
  <path d="M47.828,29.172c-.391-.391-1.024-.391-1.415,0-.39.391-.39,1.024,0,1.414.378.378.586.88.586,1.414s-.208,1.036-.586,1.414c-.391.39-.391,1.023,0,1.414.195.195.452.293.708.293s.512-.098.707-.293c.756-.755,1.172-1.76,1.172-2.828s-.416-2.073-1.172-2.828Z"/>
  <path d="M50.657,26.343c-.391-.391-1.023-.391-1.414,0s-.391,1.023,0,1.414c2.339,2.34,2.339,6.146,0,8.486-.391.391-.391,1.023,0,1.414.195.195.451.293.707.293s.512-.098.707-.293c3.119-3.119,3.119-8.195,0-11.314Z"/>
  <path d="M53.485,23.515c-.391-.391-1.023-.391-1.414,0s-.391,1.023,0,1.414c3.898,3.899,3.898,10.243,0,14.143-.391.391-.391,1.023,0,1.414.195.195.451.293.707.293s.512-.098.707-.293c4.678-4.679,4.678-12.292,0-16.971Z"/>
</svg>