<?xml version="1.0" encoding="UTF-8"?>
<svg id="Outline" xmlns="http://www.w3.org/2000/svg" version="1.1" viewBox="0 0 64 64">
  <!-- Generator: Adobe Illustrator 29.5.1, SVG Export Plug-In . SVG Version: 2.1.0 Build 141)  -->
  <path d="M45.59,46.83c-.54-.15-1.09.15-1.24.68-.83,2.89-2.48,5.48-4.78,7.49h-21.15c-3.44-3.05-5.42-7.42-5.42-12s1.95-8.91,5.35-11.94c3.44-3.08,7.89-4.48,12.54-3.96,2.26.26,4.4,1,6.35,2.18.47.29,1.09.14,1.37-.33.29-.47.14-1.09-.33-1.37-.74-.45-1.5-.82-2.28-1.15v-3.43c0-1.1-.9-2-2-2h-1v-3h1c.55,0,1-.45,1-1s-.45-1-1-1h-1v-3c0-1.1-.9-2-2-2h-4c-1.1,0-2,.9-2,2v3h-4.11c-.55-2.83-3.43-5-6.89-5-3.86,0-7,2.69-7,6s3.14,6,7,6c3.46,0,6.34-2.17,6.89-5h4.11v3h-1c-1.1,0-2,.9-2,2v3.41c-1.79.76-3.48,1.81-4.98,3.16-3.83,3.41-6.02,8.31-6.02,13.43,0,5.15,2.22,10.07,6.1,13.5.36.32.84.5,1.33.5h21.14c.49,0,.97-.18,1.33-.5,2.57-2.26,4.43-5.18,5.37-8.43.15-.53-.15-1.09-.68-1.24ZM14,21c-2.76,0-5-1.79-5-4s2.24-4,5-4,5,1.79,5,4-2.24,4-5,4ZM27,13h4v8h-4v-8ZM24,23h10v2.72c-.94-.27-1.9-.49-2.89-.6-2.45-.28-4.85-.06-7.11.59v-2.71Z"/>
  <path d="M55.436,12.92c.199-1.189-.179-2.392-1.071-3.284s-2.095-1.274-3.284-1.071c-.7-.982-1.817-1.564-3.08-1.564s-2.38.582-3.08,1.564c-1.189-.202-2.392.179-3.284,1.071s-1.271,2.095-1.071,3.284c-.982.7-1.564,1.817-1.564,3.08s.582,2.38,1.564,3.08c-.199,1.189.179,2.392,1.071,3.284s2.095,1.273,3.284,1.071c.7.982,1.817,1.564,3.08,1.564s2.38-.582,3.08-1.564c1.189.202,2.392-.179,3.284-1.071s1.271-2.095,1.071-3.284c.982-.7,1.564-1.817,1.564-3.08s-.582-2.38-1.564-3.08ZM53.881,17.667c-.247.102-.443.297-.545.543-.103.246-.102.523.002.77.292.698.147,1.435-.389,1.97-.534.536-1.272.682-1.97.389-.246-.103-.521-.104-.77-.002-.246.102-.441.298-.543.545-.287.701-.91,1.119-1.667,1.119s-1.38-.418-1.667-1.119c-.102-.247-.297-.443-.543-.545-.123-.051-.253-.076-.383-.076-.132,0-.263.026-.387.078-.697.293-1.436.147-1.97-.389-.536-.535-.681-1.271-.389-1.97.104-.246.104-.523.002-.77-.102-.246-.298-.441-.545-.543-.701-.287-1.119-.91-1.119-1.667s.418-1.38,1.119-1.667c.247-.102.443-.297.545-.543.103-.246.102-.523-.002-.77-.292-.698-.147-1.435.389-1.97.534-.535,1.272-.681,1.97-.389.246.103.521.104.77.002.246-.102.441-.298.543-.545.287-.701.91-1.119,1.667-1.119s1.38.418,1.667,1.119c.102.247.297.443.543.545.249.104.524.102.77-.002.697-.292,1.436-.146,1.97.389.536.535.681,1.271.389,1.97-.104.246-.104.523-.002.77.102.246.298.441.545.543.701.287,1.119.91,1.119,1.667s-.418,1.38-1.119,1.667Z"/>
  <path d="M48,12c-2.206,0-4,1.794-4,4s1.794,4,4,4,4-1.794,4-4-1.794-4-4-4ZM48,18c-1.103,0-2-.897-2-2s.897-2,2-2,2,.897,2,2-.897,2-2,2Z"/>
  <path d="M54.436,32.92c.199-1.189-.179-2.392-1.071-3.284s-2.095-1.274-3.284-1.071c-.7-.982-1.817-1.564-3.08-1.564s-2.38.582-3.08,1.564c-1.188-.202-2.392.179-3.284,1.071s-1.271,2.095-1.071,3.284c-.982.7-1.564,1.817-1.564,3.08s.582,2.38,1.564,3.08c-.199,1.189.179,2.392,1.071,3.284s2.095,1.273,3.284,1.071c.7.982,1.817,1.564,3.08,1.564s2.38-.582,3.08-1.564c1.19.203,2.392-.179,3.284-1.071s1.271-2.095,1.071-3.284c.982-.7,1.564-1.817,1.564-3.08s-.582-2.38-1.564-3.08ZM52.881,37.667c-.247.102-.443.297-.545.543-.103.246-.102.523.002.77.292.698.147,1.435-.389,1.97-.534.536-1.272.682-1.97.389-.247-.104-.522-.105-.77-.002-.246.102-.441.298-.543.545-.287.701-.91,1.119-1.667,1.119s-1.38-.418-1.667-1.119c-.102-.247-.297-.443-.543-.545-.123-.051-.253-.076-.383-.076-.132,0-.263.026-.387.078-.697.293-1.436.147-1.97-.389-.536-.535-.681-1.271-.389-1.97.104-.246.104-.523.002-.77-.102-.246-.298-.441-.545-.543-.701-.287-1.119-.91-1.119-1.667s.418-1.38,1.119-1.667c.247-.102.443-.297.545-.543.103-.246.102-.523-.002-.77-.292-.698-.147-1.435.389-1.97.534-.535,1.272-.681,1.97-.389.246.102.521.104.77.002.246-.102.441-.298.543-.545.287-.701.91-1.119,1.667-1.119s1.38.418,1.667,1.119c.102.247.297.443.543.545.248.103.523.101.77-.002.697-.292,1.436-.146,1.97.389.536.535.681,1.271.389,1.97-.104.246-.104.523-.002.77.102.246.298.441.545.543.701.287,1.119.91,1.119,1.667s-.418,1.38-1.119,1.667Z"/>
  <path d="M47,32c-2.206,0-4,1.794-4,4s1.794,4,4,4,4-1.794,4-4-1.794-4-4-4ZM47,38c-1.103,0-2-.897-2-2s.897-2,2-2,2,.897,2,2-.897,2-2,2Z"/>
  <path d="M25.157,46.987c1.833-.291,3.258-.732,4.515-1.121,1.807-.559,3.234-1,5.267-.868,1.229.076,2.469.359,3.683.842.117.046.243.07.369.07h.01c.553,0,.995-.447.995-1,0-.434-.278-.803-.665-.941-1.402-.553-2.838-.878-4.266-.967-2.401-.155-4.141.384-5.983.954-1.252.387-2.546.787-4.236,1.056-2.505.394-5.029.357-7.68-.075-.103-.636-.165-1.282-.165-1.937,0-6.617,5.383-12,12-12,.473,0,.952.028,1.424.083,1.843.215,3.643.876,5.203,1.91.46.306,1.08.179,1.386-.28.306-.461.18-1.081-.28-1.386-1.822-1.208-3.923-1.979-6.076-2.23-.549-.064-1.105-.097-1.656-.097-7.72,0-14,6.28-14,14,0,3.628,1.385,7.07,3.898,9.692.188.196.449.308.722.308h18.76c.272,0,.533-.111.723-.309,1.668-1.742,2.863-3.876,3.456-6.172.138-.535-.185-1.08-.719-1.219-.535-.137-1.079.183-1.219.719-.472,1.832-1.395,3.545-2.678,4.98h-17.887c-1.043-1.166-1.829-2.507-2.346-3.948,1.192.158,2.363.243,3.521.243,1.319,0,2.623-.103,3.926-.308Z"/>
</svg>