<?xml version="1.0" encoding="UTF-8"?>
<svg id="Outline" xmlns="http://www.w3.org/2000/svg" version="1.1" viewBox="0 0 64 64">
  <!-- Generator: Adobe Illustrator 29.5.1, SVG Export Plug-In . SVG Version: 2.1.0 Build 141)  -->
  <path d="M56.623,20.325l-9.64-7.869c-.427-.349-1.058-.285-1.407.142-.349.429-.285,1.059.143,1.407l7.357,6.005h-4.718c-1.388,0-2.776-.328-4.016-.948-2.722-1.36-5.917-1.527-8.765-.46l-.421.157c-1.015.381-2.081.572-3.147.573-.002,0-.004-.001-.006-.001-.002,0-.004.001-.006.001-1.066,0-2.133-.191-3.148-.573l-.419-.157c-2.849-1.067-6.044-.899-8.766.46-1.24.62-2.628.948-4.016.948h-4.791l11.781-9.416c2.122-1.737,5.101-2.077,7.579-.869,1.087.543,2.497.538,3.565.005,2.402-1.172,5.498-.858,7.58.715l1.25,1.021c.427.349,1.058.286,1.407-.142.35-.428.286-1.059-.142-1.407l-1.279-1.044c-2.722-2.059-6.613-2.441-9.701-.937-.534.268-1.242.271-1.794-.004-3.188-1.555-7.007-1.117-9.723,1.107l-14,11.189c-.211.169-.345.416-.371.685-.026.269.057.536.232.743,4.161,4.916,8.591,7.725,11.763,9.276v1.078c0,3.468,1.35,6.733,3.803,9.197,1.549,1.549,3.451,2.672,5.544,3.284l-.873,7.419c-.152,1.292.257,2.59,1.121,3.562.864.971,2.105,1.528,3.405,1.528s2.541-.558,3.405-1.528c.864-.972,1.272-2.27,1.121-3.562l-.874-7.427c5.467-1.604,9.348-6.705,9.348-12.474v-1.062c4.454-2.099,8.411-5.187,11.759-9.208.171-.205.252-.47.227-.735-.026-.266-.156-.51-.363-.679ZM24.218,39.795c-2.075-2.085-3.218-4.85-3.218-7.785v-6.01c0-.553-.448-1-1-1s-1,.447-1,1v2.689c-2.498-1.323-5.634-3.434-8.735-6.68h5.379c1.138,0,2.272-.196,3.356-.543v.534c0,.553.448,1,1,1s1-.447,1-1v-1.344c2.126-.92,4.547-.999,6.725-.182l.419.157c.925.346,1.886.563,2.855.652v6.821c-2.833.558-5,3.433-5,6.895,0,2.422,1.046,4.619,2.77,5.897l-.182,1.55c-1.642-.535-3.142-1.426-4.369-2.653ZM33.911,54.143c-.97,1.09-2.852,1.09-3.821,0-.485-.546-.714-1.273-.629-1.998l1.368-11.625c.046-.396-.147-.783-.492-.982-1.419-.821-2.336-2.603-2.336-4.537,0-2.757,1.794-5,4-5s4,2.243,4,5c0,1.935-.917,3.716-2.336,4.537-.345.199-.539.586-.492.982l1.368,11.625c.085.725-.144,1.452-.629,1.998ZM43,32.01c0,4.767-3.132,8.995-7.586,10.455l-.184-1.567c1.724-1.278,2.77-3.476,2.77-5.897,0-3.461-2.167-6.337-5-6.895v-6.821c.969-.089,1.929-.305,2.854-.652l.421-.157c2.178-.818,4.599-.741,6.724.181v11.354ZM45,28.73v-7.264c1.084.348,2.218.543,3.356.543h5.484c-2.621,2.802-5.581,5.059-8.84,6.721Z"/>
  <path d="M45.243,43.828c-.391-.391-1.023-.391-1.414,0s-.391,1.023,0,1.414l2.828,2.829c.195.195.451.293.707.293s.512-.098.707-.293c.391-.391.391-1.023,0-1.414l-2.828-2.829Z"/>
  <path d="M50,40h-4c-.552,0-1,.447-1,1s.448,1,1,1h4c.552,0,1-.447,1-1s-.448-1-1-1Z"/>
  <path d="M41,45c-.552,0-1,.447-1,1v4c0,.553.448,1,1,1s1-.447,1-1v-4c0-.553-.448-1-1-1Z"/>
  <path d="M18.757,43.828l-2.828,2.829c-.391.391-.391,1.023,0,1.414.195.195.451.293.707.293s.512-.098.707-.293l2.828-2.829c.391-.391.391-1.023,0-1.414s-1.024-.391-1.414,0Z"/>
  <path d="M19,41c0-.553-.448-1-1-1h-4c-.552,0-1,.447-1,1s.448,1,1,1h4c.552,0,1-.447,1-1Z"/>
  <path d="M23,45c-.552,0-1,.447-1,1v4c0,.553.448,1,1,1s1-.447,1-1v-4c0-.553-.448-1-1-1Z"/>
</svg>