<?xml version="1.0" encoding="UTF-8"?>
<svg id="Outline" xmlns="http://www.w3.org/2000/svg" version="1.1" viewBox="0 0 64 64">
  <!-- Generator: Adobe Illustrator 29.5.1, SVG Export Plug-In . SVG Version: 2.1.0 Build 141)  -->
  <path d="M56.623,20.326l-14.029-11.453c-2.721-2.058-6.608-2.443-9.701-.937-.535.268-1.241.272-1.794-.004-3.188-1.554-7.008-1.117-9.724,1.108l-1.91,1.53c-.432.345-.501.975-.155,1.405.345.431.974.501,1.405.155l1.919-1.537c2.122-1.737,5.101-2.077,7.579-.869,1.088.544,2.496.54,3.564.004,2.407-1.171,5.499-.857,7.58.715l11.716,9.565h-4.716c-1.387,0-2.776-.328-4.017-.948-2.723-1.361-5.92-1.529-8.766-.46l-.422.158c-1.015.381-2.081.571-3.147.572-.002,0-.003,0-.005,0-.002,0-.003.001-.005.001-1.067,0-2.133-.191-3.148-.572l-.42-.158c-2.85-1.068-6.045-.901-8.767.46-1.24.621-2.63.948-4.017.948h-4.793l6.724-5.379c.431-.345.501-.974.156-1.405-.346-.432-.974-.501-1.406-.156l-8.95,7.16c-.211.168-.344.416-.37.684s.058.537.231.743c4.162,4.916,8.592,7.725,11.764,9.276v3.078c0,7.168,5.832,13,13,13s13-5.832,13-13v-3.063c4.453-2.098,8.411-5.186,11.759-9.207.171-.205.252-.47.227-.735s-.156-.51-.362-.679ZM10.264,22.01h5.379c1.138,0,2.272-.196,3.356-.543v7.224c-2.498-1.323-5.634-3.435-8.736-6.68ZM45,28.73v-2.73c0-.552-.447-1-1-1s-1,.448-1,1v8.01c0,6.065-4.935,11-11,11s-11-4.935-11-11v-13.354c2.125-.92,4.544-1,6.725-.182l.42.158c.925.347,1.886.563,2.855.652v12.716c0,.552.447,1,1,1s1-.448,1-1v-12.716c.969-.089,1.93-.305,2.854-.652l.422-.158c2.178-.818,4.599-.74,6.724.182v1.344c0,.552.447,1,1,1s1-.448,1-1v-.534c1.084.348,2.218.543,3.356.543h5.484c-2.621,2.803-5.581,5.059-8.84,6.72Z"/>
  <circle cx="39" cy="36" r="1"/>
  <circle cx="35" cy="37" r="1"/>
  <circle cx="37" cy="40" r="1"/>
  <path d="M42.5,49c2.206,0,4-1.794,4-4,0-.552-.447-1-1-1s-1,.448-1,1c0,1.103-.897,2-2,2-.553,0-1,.448-1,1s.447,1,1,1Z"/>
  <path d="M42.5,53c4.411,0,8-3.589,8-8,0-.552-.447-1-1-1s-1,.448-1,1c0,3.309-2.691,6-6,6-.553,0-1,.448-1,1s.447,1,1,1Z"/>
  <path d="M53.5,44c-.553,0-1,.448-1,1,0,5.514-4.486,10-10,10-.553,0-1,.448-1,1s.447,1,1,1c6.617,0,12-5.383,12-12,0-.552-.447-1-1-1Z"/>
  <path d="M21.5,47c-1.103,0-2-.897-2-2,0-.552-.447-1-1-1s-1,.448-1,1c0,2.206,1.794,4,4,4,.553,0,1-.448,1-1s-.447-1-1-1Z"/>
  <path d="M21.5,51c-3.309,0-6-2.691-6-6,0-.552-.447-1-1-1s-1,.448-1,1c0,4.411,3.589,8,8,8,.553,0,1-.448,1-1s-.447-1-1-1Z"/>
  <path d="M21.5,55c-5.514,0-10-4.486-10-10,0-.552-.447-1-1-1s-1,.448-1,1c0,6.617,5.383,12,12,12,.553,0,1-.448,1-1s-.447-1-1-1Z"/>
</svg>