<?xml version="1.0" encoding="UTF-8"?>
<svg id="Outline" xmlns="http://www.w3.org/2000/svg" version="1.1" viewBox="0 0 64 64">
  <!-- Generator: Adobe Illustrator 29.5.1, SVG Export Plug-In . SVG Version: 2.1.0 Build 141)  -->
  <path d="M42,27v-6c0-.55-.45-1-1-1s-1,.45-1,1v9c0,.55-.45,1-1,1s-1-.45-1-1V12c0-.55-.45-1-1-1s-1,.45-1,1v18c0,.55-.45,1-1,1s-1-.45-1-1v-15c0-.55-.45-1-1-1s-1,.45-1,1v15c0,.55-.45,1-1,1s-1-.45-1-1v-12c0-.55-.45-1-1-1s-1,.45-1,1v16.26c2.38.87,4,3.15,4,5.74,0,.55-.45,1-1,1s-1-.45-1-1c0-1.9-1.28-3.54-3.12-4l-.13-.03c-.44-.11-.75-.51-.75-.97v-5c0-1.1-.9-2-2-2s-2,.9-2,2v6.17c0,1.56.61,3.02,1.71,4.12.18.19.29.44.29.71v3h16v-3c0-.27.11-.52.29-.71,1.1-1.1,1.71-2.56,1.71-4.12v-5.17c0-.55.45-1,1-1s1,.45,1,1v5.17c0,1.95-.71,3.79-2,5.23v2.6c1.1,0,2,.9,2,2v7c0,1.1-.9,2-2,2h-11c-.55,0-1-.45-1-1s.45-1,1-1h11v-7h-20v7h5c.55,0,1,.45,1,1s-.45,1-1,1h-5c-1.1,0-2-.9-2-2v-7c0-1.1.9-2,2-2v-2.6c-1.29-1.44-2-3.28-2-5.23v-6.17c0-2.21,1.79-4,4-4,.73,0,1.41.21,2,.56v-8.56c0-1.65,1.35-3,3-3,.35,0,.69.06,1,.17v-.17c0-1.65,1.35-3,3-3,.35,0,.69.06,1,.17v-.17c0-1.65,1.35-3,3-3s3,1.35,3,3v6.17c.31-.11.65-.17,1-.17,1.65,0,3,1.35,3,3v6c0,.55-.45,1-1,1s-1-.45-1-1Z"/>
  <path d="M17.895,8.447c.247-.494.047-1.095-.447-1.342-.495-.246-1.095-.047-1.342.447l-1.553,3.105c-.42.84-.42,1.844,0,2.684l1.105,2.211c.14.28.14.614,0,.895l-1.105,2.211c-.42.84-.42,1.844,0,2.684l1.105,2.211c.14.28.14.614,0,.895l-1.105,2.211c-.42.84-.42,1.844,0,2.684l1.105,2.211c.14.28.14.614,0,.895l-1.105,2.211c-.42.84-.42,1.844,0,2.684l1.105,2.211c.14.28.14.614,0,.895l-1.105,2.211c-.42.84-.42,1.844,0,2.684l1.105,2.211c.14.28.14.614,0,.895l-1.105,2.211c-.42.84-.42,1.844,0,2.684l1.553,3.105c.175.351.528.553.896.553.15,0,.303-.034.446-.105.494-.247.694-.848.447-1.342l-1.553-3.105c-.14-.28-.14-.614,0-.895l1.105-2.211c.42-.84.42-1.844,0-2.684l-1.105-2.211c-.14-.28-.14-.614,0-.895l1.105-2.211c.42-.84.42-1.844,0-2.684l-1.105-2.211c-.14-.28-.14-.614,0-.895l1.105-2.211c.42-.84.42-1.844,0-2.684l-1.105-2.211c-.14-.28-.14-.614,0-.895l1.105-2.211c.42-.84.42-1.844,0-2.684l-1.105-2.211c-.14-.28-.14-.614,0-.895l1.105-2.211c.42-.84.42-1.844,0-2.684l-1.105-2.211c-.14-.28-.14-.614,0-.895l1.553-3.105Z"/>
  <path d="M12.895,8.447c.247-.494.047-1.095-.447-1.342-.495-.246-1.095-.047-1.342.447l-1.553,3.105c-.42.84-.42,1.844,0,2.684l1.105,2.211c.14.28.14.614,0,.895l-1.105,2.211c-.42.84-.42,1.844,0,2.684l1.105,2.211c.14.28.14.614,0,.895l-1.105,2.211c-.42.84-.42,1.844,0,2.684l1.105,2.211c.14.28.14.614,0,.895l-1.105,2.211c-.42.84-.42,1.844,0,2.684l1.105,2.211c.14.28.14.614,0,.895l-1.105,2.211c-.42.84-.42,1.844,0,2.684l1.105,2.211c.14.28.14.614,0,.895l-1.105,2.211c-.42.84-.42,1.844,0,2.684l1.553,3.105c.175.351.528.553.896.553.15,0,.303-.034.446-.105.494-.247.694-.848.447-1.342l-1.553-3.105c-.14-.28-.14-.614,0-.895l1.105-2.211c.42-.84.42-1.844,0-2.684l-1.105-2.211c-.14-.28-.14-.614,0-.895l1.105-2.211c.42-.84.42-1.844,0-2.684l-1.105-2.211c-.14-.28-.14-.614,0-.895l1.105-2.211c.42-.84.42-1.844,0-2.684l-1.105-2.211c-.14-.28-.14-.614,0-.895l1.105-2.211c.42-.84.42-1.844,0-2.684l-1.105-2.211c-.14-.28-.14-.614,0-.895l1.105-2.211c.42-.84.42-1.844,0-2.684l-1.105-2.211c-.14-.28-.14-.614,0-.895l1.553-3.105Z"/>
  <path d="M49.447,13.342c.42-.84.42-1.844,0-2.684l-1.553-3.105c-.247-.494-.846-.693-1.342-.447-.494.247-.694.848-.447,1.342l1.553,3.105c.14.28.14.614,0,.895l-1.105,2.211c-.42.84-.42,1.844,0,2.684l1.105,2.211c.14.28.14.614,0,.895l-1.105,2.211c-.42.84-.42,1.844,0,2.684l1.105,2.211c.14.28.14.614,0,.895l-1.105,2.211c-.42.84-.42,1.844,0,2.684l1.105,2.211c.14.28.14.614,0,.895l-1.105,2.211c-.42.84-.42,1.844,0,2.684l1.105,2.211c.14.28.14.614,0,.895l-1.105,2.211c-.42.84-.42,1.844,0,2.684l1.105,2.211c.14.28.14.614,0,.895l-1.553,3.105c-.247.494-.047,1.095.447,1.342.144.071.296.105.446.105.367,0,.72-.202.896-.553l1.553-3.105c.42-.84.42-1.844,0-2.684l-1.105-2.211c-.14-.28-.14-.614,0-.895l1.105-2.211c.42-.84.42-1.844,0-2.684l-1.105-2.211c-.14-.28-.14-.614,0-.895l1.105-2.211c.42-.84.42-1.844,0-2.684l-1.105-2.211c-.14-.28-.14-.614,0-.895l1.105-2.211c.42-.84.42-1.844,0-2.684l-1.105-2.211c-.14-.28-.14-.614,0-.895l1.105-2.211c.42-.84.42-1.844,0-2.684l-1.105-2.211c-.14-.28-.14-.614,0-.895l1.105-2.211Z"/>
  <path d="M54.447,21.342c.42-.84.42-1.844,0-2.684l-1.105-2.211c-.14-.28-.14-.614,0-.895l1.105-2.211c.42-.84.42-1.844,0-2.684l-1.553-3.105c-.247-.494-.847-.693-1.342-.447-.494.247-.694.848-.447,1.342l1.553,3.105c.14.28.14.614,0,.895l-1.105,2.211c-.42.84-.42,1.844,0,2.684l1.105,2.211c.14.28.14.614,0,.895l-1.105,2.211c-.42.84-.42,1.844,0,2.684l1.105,2.211c.14.28.14.614,0,.895l-1.105,2.211c-.42.84-.42,1.844,0,2.684l1.105,2.211c.14.28.14.614,0,.895l-1.105,2.211c-.42.84-.42,1.844,0,2.684l1.105,2.211c.14.28.14.614,0,.895l-1.105,2.211c-.42.84-.42,1.844,0,2.684l1.105,2.211c.14.28.14.614,0,.895l-1.553,3.105c-.247.494-.047,1.095.447,1.342.144.071.296.105.446.105.367,0,.72-.202.896-.553l1.553-3.105c.42-.84.42-1.844,0-2.684l-1.105-2.211c-.14-.28-.14-.614,0-.895l1.105-2.211c.42-.84.42-1.844,0-2.684l-1.105-2.211c-.14-.28-.14-.614,0-.895l1.105-2.211c.42-.84.42-1.844,0-2.684l-1.105-2.211c-.14-.28-.14-.614,0-.895l1.105-2.211c.42-.84.42-1.844,0-2.684l-1.105-2.211c-.14-.28-.14-.614,0-.895l1.105-2.211Z"/>
</svg>