<?xml version="1.0" encoding="UTF-8"?>
<!-- Biological Factors -->
<!-- Category icon for genetic anomalies, biological mutations, environmental effects on the body, and physiological phenomena. Source: Science Research pack (DNA helix) -->
<svg xmlns="http://www.w3.org/2000/svg" viewBox="-20 -20 552 552" width="512" height="512" fill="currentColor">
  <title>Biological Factors</title>
  <desc>Category icon for genetic anomalies, biological mutations, environmental effects on the body, and physiological phenomena. Source: Science Research pack (DNA helix)</desc>
  <path d="M274.41,226.229c-51.449-30.67-83.41-86.94-83.41-146.85V35c0-19.33-15.67-35-35-35s-35,15.67-35,35v43.437c0,41.716,10.715,82.914,30.988,119.142,20.414,36.481,50.015,66.978,85.602,88.192,51.449,30.671,83.41,86.94,83.41,146.851V477c0,19.33,15.67,35,35,35s35-15.67,35-35V433.563c0-41.716-10.715-82.914-30.988-119.142C339.598,278.14,309.997,247.643,274.41,226.229Z" />
  <rect x="221" y="41" width="70" height="30" />
  <rect x="221" y="441" width="70" height="30" />
  <path d="M271.317,361h-30.634c-5.569,9.433-10.05,19.502-13.321,30h57.276C281.367,380.502,276.886,370.433,271.317,361Z" />
  <path d="M271.317,151c5.569-9.433,10.05-19.502,13.321-30H227.362c3.271,10.498,7.752,20.567,13.321,30Z" />
  <path d="M356,0c-19.33,0-35,15.67-35,35v44.379c0,42.078-15.783,82.345-42.994,113.224,3.769,2.802,7.691,5.43,11.766,7.858,16.167,9.638,31.233,20.974,44.967,33.762,9.493-11.356,17.979-23.61,25.273-36.644C380.285,161.351,391,120.152,391,78.437V35C391,15.67,375.33,0,356,0Z" />
  <path d="M222.228,311.539c-16.167-9.638-31.233-20.974-44.967-33.762-9.493,11.356-17.979,23.61-25.273,36.644C131.715,350.649,121,391.848,121,433.563V477c0,19.33,15.67,35,35,35s35-15.67,35-35V432.621c0-42.078,15.783-82.345,42.994-113.224C230.225,316.595,226.308,313.967,222.228,311.539Z" />
</svg>
