<svg xmlns="http://www.w3.org/2000/svg" viewBox="0 0 256 256"><title>icon</title><path d="M157.4,79.682c-6.1-5.943-12.043-6.022-14.05-20.071,0,0-2.254,11.06-28.1,18.064C92.213,83.917,92.576,99.753,92.576,99.753v6.27a35.019,35.019,0,0,0,34.916,34.917h0a35.02,35.02,0,0,0,34.917-34.917V93.732S162.779,84.925,157.4,79.682Z" fill="#f9d0b4"/><path d="M95.935,157.907a36.789,36.789,0,0,0,64.13,0c-.767-.3-1.524-.618-2.263-.982l-10.96-5.405a4.94,4.94,0,0,1-2.756-4.432V136.717a34.611,34.611,0,0,1-16.594,4.223h0a34.6,34.6,0,0,1-15.578-3.7v9.849a4.944,4.944,0,0,1-2.756,4.433l-10.96,5.4C97.459,157.289,96.7,157.612,95.935,157.907Z" fill="#f9d0b4"/><path d="M201.238,247.752l-3.329-70.126a13.78,13.78,0,0,0-10.394-12.6L163.2,158.911a27.349,27.349,0,0,1-3.139-1,36.789,36.789,0,0,1-64.13,0,27.3,27.3,0,0,1-3.14,1l-24.31,6.119a13.78,13.78,0,0,0-10.394,12.6l-3.329,70.125A5.446,5.446,0,0,0,60.2,253.5H195.8A5.446,5.446,0,0,0,201.238,247.752Z" fill="#edf4fc"/><path d="M119.552,187.913a3.126,3.126,0,0,1,1.832,1.095l4.753,5.916a2.389,2.389,0,0,0,3.726,0l4.754-5.917a3.117,3.117,0,0,1,1.829-1.094,42.911,42.911,0,0,0,31.943-27.7l-5.185-1.305a27.349,27.349,0,0,1-3.139-1,36.789,36.789,0,0,1-64.13,0,27.3,27.3,0,0,1-3.14,1l-5.182,1.3A42.908,42.908,0,0,0,119.552,187.913Z" fill="#fca265"/><path d="M247.973,209.753c-28.01-15.549-26.475-63.784-43.847-80.472-7.877-7.567-20.255-3.537-31.623,3.322a197.166,197.166,0,0,0-1.628,28.239l16.64,4.188a13.78,13.78,0,0,1,10.394,12.6l2.177,45.856c.3.182.608.36.891.559,12.791,9.011,22.117.05,25.164-3.626a2.76,2.76,0,0,1,2.841-.894c12.183,3.251,17.759-2.271,20.006-5.866A2.77,2.77,0,0,0,247.973,209.753Z" fill="#70d6f9"/><path d="M85.944,134.132c-12-7.745-25.623-12.965-34.07-4.851C34.5,145.969,36.037,194.2,8.027,209.753a2.77,2.77,0,0,0-1.015,3.9c2.247,3.595,7.823,9.117,20.006,5.866a2.76,2.76,0,0,1,2.841.894c3.047,3.676,12.373,12.637,25.164,3.626.283-.2.59-.377.891-.559l2.177-45.856a13.78,13.78,0,0,1,10.394-12.6l19-4.783A107.656,107.656,0,0,0,85.944,134.132Z" fill="#70d6f9"/><path d="M128,46.618c-22.82,0-47.38-5.836-47.38-18.65S105.18,9.318,128,9.318s47.38,5.836,47.38,18.65S150.82,46.618,128,46.618ZM90.736,27.968c1.181,2.554,13.471,8.569,37.264,8.569s36.083-6.015,37.264-8.569C164.083,25.414,151.792,19.4,128,19.4S91.917,25.414,90.736,27.968Zm74.579.127h0Z" fill="#f5c84c"/><path d="M176.705,76.852c-2.9-22.634-13.027-30.693-20.474-33.546A113.187,113.187,0,0,1,128,46.618a114.814,114.814,0,0,1-27.287-3.065A64.445,64.445,0,0,0,84.9,60.347c-18.135,26.866,5.529,63.588,2.59,99.9l5.307-1.336a27.3,27.3,0,0,0,3.14-1c.767-.3,1.524-.618,2.263-.982l10.96-5.4a4.944,4.944,0,0,0,2.756-4.433v-9.849h0a35.013,35.013,0,0,1-19.339-31.216v-6.27s-.363-15.836,22.672-22.078c25.846-7,28.1-18.064,28.1-18.064,2.007,14.049,7.95,14.128,14.05,20.071,5.381,5.243,5.011,14.05,5.011,14.05v12.291a35.008,35.008,0,0,1-18.329,30.7l.006,0v10.371a4.94,4.94,0,0,0,2.756,4.432l10.96,5.405c.739.364,1.5.687,2.263.982a27.349,27.349,0,0,0,3.139,1l5.185,1.305,2.486.626C170.018,132.4,179.572,99.21,176.705,76.852Z" fill="#fcdd86"/><path d="M203.372,50.6h-2.266V48.33a3.071,3.071,0,1,0-6.142,0V50.6H192.7a3.071,3.071,0,0,0,0,6.142h2.265V59a3.071,3.071,0,1,0,6.142,0V56.738h2.266a3.071,3.071,0,0,0,0-6.142Z" fill="#87d147"/><path d="M33.857,140.366a10.8,10.8,0,0,1-8.654-8.478.2.2,0,0,0-.384,0,10.794,10.794,0,0,1-8.654,8.478.19.19,0,0,0,0,.376,10.8,10.8,0,0,1,8.654,8.479.2.2,0,0,0,.384,0,10.8,10.8,0,0,1,8.654-8.479A.19.19,0,0,0,33.857,140.366Z" fill="#f5c84c"/><circle cx="40.019" cy="117.285" r="3.285" fill="#ef4460"/><circle cx="220.019" cy="240.285" r="3.285" fill="#70d6f9"/><circle cx="190.019" cy="77.285" r="3.285" fill="#f5c84c"/><circle cx="81.019" cy="3.285" r="3.285" fill="#70d6f9"/><path d="M127.492,143.439a37.458,37.458,0,0,1-37.416-37.416v-6.27c-.015-.67-.124-17.814,24.518-24.491,23.6-6.4,26.292-16.107,26.315-16.2a2.471,2.471,0,0,1,2.442-1.975l.077,0a2.518,2.518,0,0,1,2.394,2.172c1.349,9.438,4.347,11.64,8.5,14.689a43.216,43.216,0,0,1,4.825,3.945h0c5.927,5.775,5.8,14.965,5.766,15.884v12.248A37.458,37.458,0,0,1,127.492,143.439Zm14.771-77.167c-3.7,4.209-11.211,9.71-26.361,13.816C95,85.752,95.072,99.557,95.075,99.7v6.329a32.416,32.416,0,0,0,64.832,0V93.731c0-.035,0-.07,0-.1,0-.071.236-7.777-4.257-12.154h0a38.619,38.619,0,0,0-4.3-3.5C147.781,75.348,144.36,72.834,142.263,66.272Z"/><path d="M128,179.161a39.378,39.378,0,0,1-34.243-20.026,2.5,2.5,0,0,1,1.28-3.561c.759-.292,1.431-.584,2.054-.891l10.962-5.405a2.425,2.425,0,0,0,1.361-2.19v-9.849a2.5,2.5,0,0,1,3.623-2.234,31.9,31.9,0,0,0,14.455,3.434,32.31,32.31,0,0,0,15.4-3.918,2.5,2.5,0,0,1,3.7,2.2v10.371a2.425,2.425,0,0,0,1.361,2.19l10.96,5.405c.629.309,1.3.6,2.056.891a2.5,2.5,0,0,1,1.28,3.561A39.378,39.378,0,0,1,128,179.161ZM99.569,159.036a34.284,34.284,0,0,0,56.862,0l-10.7-5.273a7.4,7.4,0,0,1-4.15-6.675v-6.422a37.338,37.338,0,0,1-14.094,2.773,36.793,36.793,0,0,1-13.078-2.375v6.024a7.4,7.4,0,0,1-4.15,6.675Z"/><path d="M195.8,256H60.2a7.946,7.946,0,0,1-7.933-8.388l3.328-70.1a16.215,16.215,0,0,1,12.281-14.9l24.311-6.118a25.053,25.053,0,0,0,2.85-.913,2.5,2.5,0,0,1,3.076,1.1,34.29,34.29,0,0,0,59.776,0,2.5,2.5,0,0,1,3.076-1.1,25,25,0,0,0,2.851.913l24.31,6.118A16.206,16.206,0,0,1,200.4,177.487l3.331,70.139A7.947,7.947,0,0,1,195.8,256ZM94.835,160.934q-.72.224-1.428.4L69.1,167.454a11.23,11.23,0,0,0-8.509,10.311L57.259,247.87A2.945,2.945,0,0,0,60.2,251H195.8a2.945,2.945,0,0,0,2.941-3.109v-.021l-3.33-70.126a11.221,11.221,0,0,0-8.507-10.29l-24.31-6.119q-.708-.179-1.429-.4a39.286,39.286,0,0,1-66.33,0Z"/><path d="M128,198.317a4.869,4.869,0,0,1-3.812-1.827l-4.753-5.916a.634.634,0,0,0-.373-.21h0A45.527,45.527,0,0,1,85.256,161.05,2.5,2.5,0,0,1,87,157.791l5.184-1.3a25.053,25.053,0,0,0,2.85-.913,2.5,2.5,0,0,1,3.076,1.1,34.29,34.29,0,0,0,59.776,0,2.5,2.5,0,0,1,3.076-1.1,25,25,0,0,0,2.851.913L169,157.792a2.5,2.5,0,0,1,1.746,3.259,45.528,45.528,0,0,1-33.809,29.314.625.625,0,0,0-.371.207l-4.754,5.918A4.869,4.869,0,0,1,128,198.317Zm-7.958-12.856a5.632,5.632,0,0,1,3.291,1.982L128,193.251l4.668-5.81a5.627,5.627,0,0,1,3.289-1.98,40.514,40.514,0,0,0,29.065-23.514l-2.428-.612q-.708-.179-1.429-.4a39.286,39.286,0,0,1-66.33,0q-.72.224-1.428.4l-2.428.611a40.518,40.518,0,0,0,29.063,23.515Z"/><path d="M79.14,255.387a2.5,2.5,0,0,1-2.5-2.5V208.3a2.5,2.5,0,0,1,5,0v44.586A2.5,2.5,0,0,1,79.14,255.387Z"/><path d="M176.86,255.387a2.5,2.5,0,0,1-2.5-2.5V208.3a2.5,2.5,0,0,1,5,0v44.586A2.5,2.5,0,0,1,176.86,255.387Z"/><path d="M127.538,125.205a22.948,22.948,0,0,1-14.034-5,2.5,2.5,0,1,1,3.051-3.961,17.174,17.174,0,0,0,21.954,0,2.5,2.5,0,1,1,3.051,3.961A22.938,22.938,0,0,1,127.538,125.205Z"/><path d="M146.513,101.124a2.5,2.5,0,0,1-2.5-2.5,1.848,1.848,0,1,0-3.695,0,2.5,2.5,0,0,1-5,0,6.848,6.848,0,1,1,13.695,0A2.5,2.5,0,0,1,146.513,101.124Z"/><path d="M118.182,101.124a2.5,2.5,0,0,1-2.5-2.5,1.848,1.848,0,1,0-3.7,0,2.5,2.5,0,0,1-5,0,6.848,6.848,0,1,1,13.7,0A2.5,2.5,0,0,1,118.182,101.124Z"/><path d="M128,49.118c-24.828,0-49.88-6.54-49.88-21.15S103.172,6.818,128,6.818s49.88,6.54,49.88,21.15S152.828,49.118,128,49.118Zm0-37.3c-21.757,0-44.88,5.661-44.88,16.15s23.123,16.15,44.88,16.15,44.88-5.66,44.88-16.15S149.757,11.818,128,11.818Zm0,27.219c-13.363,0-22.5-1.865-27.817-3.429-3.017-.887-10.2-3.307-11.716-6.591a2.5,2.5,0,0,1,0-2.1C90.335,22.878,104.19,16.9,128,16.9c13.363,0,22.5,1.865,27.816,3.429,3.017.887,10.2,3.306,11.716,6.59l.009.019a2.5,2.5,0,0,1-.823,3.235C163.037,34.1,149.622,39.037,128,39.037ZM94.488,27.968c3.9,2.237,14.807,6.069,33.512,6.069s29.613-3.832,33.512-6.069C157.613,25.73,146.7,21.9,128,21.9S98.385,25.73,94.488,27.968Z"/><path d="M170.875,163.342a2.48,2.48,0,0,1-.61-.076l-7.671-1.931a29.808,29.808,0,0,1-3.427-1.095c-.9-.344-1.7-.7-2.469-1.072l-10.962-5.405a7.4,7.4,0,0,1-4.15-6.675V136.86a2.5,2.5,0,0,1,1.3-2.336,32.468,32.468,0,0,0,17.023-28.5V93.731c0-.035,0-.07,0-.1,0-.071.236-7.777-4.257-12.154a38.619,38.619,0,0,0-4.3-3.5c-3.576-2.627-7-5.141-9.094-11.7-3.7,4.209-11.211,9.71-26.361,13.816C95.2,85.7,95.071,99.144,95.076,99.714v6.311a32.321,32.321,0,0,0,17.962,28.981,2.5,2.5,0,0,1,1.377,2.234v9.849a7.4,7.4,0,0,1-4.15,6.674l-10.961,5.4c-.76.375-1.569.726-2.471,1.073a29.779,29.779,0,0,1-3.425,1.095L88.1,162.671a2.5,2.5,0,0,1-3.1-2.626c1.148-14.174-1.89-28.54-4.827-42.432-4.531-21.432-8.812-41.676,2.656-58.665A67.44,67.44,0,0,1,99.264,41.516a2.491,2.491,0,0,1,2.063-.386A112.537,112.537,0,0,0,128,44.118a110.569,110.569,0,0,0,27.584-3.227,2.485,2.485,0,0,1,1.541.081c8.4,3.215,19.039,11.995,22.06,35.562h0c1.558,12.152-.414,27.1-2.5,42.922-1.824,13.824-3.709,28.118-3.312,41.311a2.5,2.5,0,0,1-2.5,2.575Zm-24.289-25.174v8.92a2.425,2.425,0,0,0,1.361,2.19l10.96,5.405c.629.309,1.3.6,2.056.891a25.082,25.082,0,0,0,2.852.913l4.506,1.134c-.048-12.629,1.706-25.925,3.407-38.819,2.043-15.492,3.973-30.125,2.5-41.633h0c-2.617-20.4-11.163-28.267-18.163-31.235A117.106,117.106,0,0,1,128,49.118a119.562,119.562,0,0,1-26.753-2.86A63.535,63.535,0,0,0,86.97,61.746c-10.282,15.231-6.215,34.467-1.909,54.833,2.778,13.139,5.643,26.692,5.124,40.411l2-.5a25.053,25.053,0,0,0,2.85-.913c.76-.292,1.432-.584,2.055-.891l10.962-5.405a2.425,2.425,0,0,0,1.361-2.19v-8.343a37.266,37.266,0,0,1-19.338-32.722v-6.27c-.015-.67-.124-17.814,24.518-24.491,23.695-6.422,26.285-16.055,26.3-16.151a2.5,2.5,0,0,1,4.924.146c1.349,9.438,4.347,11.64,8.5,14.689a43.216,43.216,0,0,1,4.825,3.945c5.928,5.775,5.8,14.967,5.766,15.884v12.248A37.452,37.452,0,0,1,146.586,138.168Z"/><path d="M201.008,148.919a2.5,2.5,0,0,1-2.238-1.382c-1.407-2.814-3.173-4.378-5.4-4.783-4.757-.861-10.878,3.675-12.839,5.5a2.5,2.5,0,0,1-3.409-3.658c.361-.337,8.942-8.238,17.125-6.759,3.836.69,6.862,3.2,8.995,7.468a2.5,2.5,0,0,1-2.234,3.619Z"/><path d="M54.992,148.919a2.5,2.5,0,0,1-2.234-3.619c2.133-4.265,5.159-6.778,8.995-7.468,8.195-1.473,16.764,6.422,17.125,6.759a2.5,2.5,0,0,1-3.411,3.656c-1.963-1.821-8.079-6.353-12.837-5.493-2.227.405-3.993,1.969-5.4,4.783A2.5,2.5,0,0,1,54.992,148.919Z"/><path d="M201.008,148.919a2.5,2.5,0,0,1-2.238-1.382c-1.407-2.814-3.173-4.378-5.4-4.783-4.757-.861-10.878,3.675-12.839,5.5a2.5,2.5,0,0,1-3.409-3.658c.361-.337,8.942-8.238,17.125-6.759,3.836.69,6.862,3.2,8.995,7.468a2.5,2.5,0,0,1-2.234,3.619Z"/><path d="M54.992,148.919a2.5,2.5,0,0,1-2.234-3.619c2.133-4.265,5.159-6.778,8.995-7.468,8.195-1.473,16.764,6.422,17.125,6.759a2.5,2.5,0,0,1-3.411,3.656c-1.963-1.821-8.079-6.353-12.837-5.493-2.227.405-3.993,1.969-5.4,4.783A2.5,2.5,0,0,1,54.992,148.919Z"/><path d="M211.919,230.462c-3.68,0-7.845-1.181-12.381-4.377-.178-.125-.369-.237-.559-.352l-.191-.114a2.5,2.5,0,0,1-1.2-2.018l-2.178-45.857a11.221,11.221,0,0,0-8.507-10.29l-16.639-4.188a2.5,2.5,0,0,1-1.889-2.349,195.541,195.541,0,0,1,1.644-28.6,2.5,2.5,0,0,1,1.191-1.853c15.389-9.284,27.044-10.288,34.646-2.984,7.757,7.451,11.822,20.352,16.124,34.01,5.816,18.458,11.83,37.544,27.206,46.08a5.27,5.27,0,0,1,1.921,7.412c-6.3,10.082-18.024,8.223-22.77,6.957a.259.259,0,0,0-.274.075C226.012,224.489,220.192,230.461,211.919,230.462Zm-9.4-8.391c4.552,3.169,13.323,6.852,21.7-3.251a5.279,5.279,0,0,1,5.411-1.715c10.1,2.7,14.951-1.108,17.241-4.775a.257.257,0,0,0,.036-.212.282.282,0,0,0-.144-.179h0c-17.118-9.5-23.721-30.459-29.546-48.948-4.106-13.033-7.984-25.342-14.819-31.908-5.615-5.394-14.88-4.37-27.548,3.036a195.322,195.322,0,0,0-1.514,24.763l14.793,3.723A16.206,16.206,0,0,1,200.4,177.487Z"/><path d="M44.081,230.462c-8.274,0-14.093-5.973-16.146-8.451a.258.258,0,0,0-.273-.074c-4.747,1.266-16.469,3.125-22.77-6.957a5.27,5.27,0,0,1,1.922-7.413c15.375-8.535,21.389-27.621,27.205-46.079,4.3-13.658,8.367-26.559,16.123-34.01,8.025-7.709,20.527-6.178,37.158,4.554a2.5,2.5,0,0,1,1.111,1.695c1.7,10.382,2.2,18.873,1.569,26.721a2.5,2.5,0,0,1-1.881,2.223l-19,4.783a11.23,11.23,0,0,0-8.509,10.311L58.411,223.6a2.5,2.5,0,0,1-1.2,2.02l-.17.1c-.2.117-.393.233-.577.362C51.926,229.281,47.761,230.462,44.081,230.462ZM27.732,216.927a5.268,5.268,0,0,1,4.051,1.892c8.377,10.107,17.146,6.42,21.7,3.252l2.115-44.564a16.215,16.215,0,0,1,12.281-14.9l17.244-4.34a105.792,105.792,0,0,0-1.465-22.628c-17.34-10.914-25.906-8.533-30.049-4.554-6.834,6.566-10.712,18.875-14.818,31.908-5.825,18.489-12.428,39.445-29.546,48.948a.281.281,0,0,0-.145.179.261.261,0,0,0,.036.213c2.291,3.666,7.143,7.469,17.241,4.774A5.262,5.262,0,0,1,27.732,216.927Z"/></svg>