<svg xmlns="http://www.w3.org/2000/svg" viewBox="0 0 256 256"><title>icon</title><path d="M207.736,247.241l-3.624-76.348A15,15,0,0,0,192.8,157.18l-26.467-6.662a29.611,29.611,0,0,1-5.881-2.163l-.678-.334a35.964,35.964,0,0,0-8.251,12.16,1.363,1.363,0,0,1-2.611-.521,33.194,33.194,0,0,1,3.623-15.208l-4.016-1.98a5.381,5.381,0,0,1-3-4.825V126.355a37.676,37.676,0,0,1-18.066,4.6h0a37.657,37.657,0,0,1-16.96-4.029v10.724a5.381,5.381,0,0,1-3,4.825l-4.016,1.98a33.179,33.179,0,0,1,3.623,15.221,1.36,1.36,0,0,1-2.609.513,35.977,35.977,0,0,0-8.253-12.165l-.678.335a29.671,29.671,0,0,1-5.881,2.162L63.205,157.18a15,15,0,0,0-11.317,13.713l-3.624,76.348a5.928,5.928,0,0,0,5.919,6.259H201.817A5.928,5.928,0,0,0,207.736,247.241Z" fill="#f9d0b4"/><path d="M207.736,247.241l-1.14-24.027c-18.716,1.516-30.277-25.347-30.277-25.347L171.861,253.5h29.956A5.928,5.928,0,0,0,207.736,247.241Z" fill="#57af12"/><path d="M48.264,247.241l1.14-24.027c18.716,1.516,30.277-25.347,30.277-25.347L84.139,253.5H54.183A5.928,5.928,0,0,1,48.264,247.241Z" fill="#57af12"/><path d="M84.139,253.5h87.722l4.458-55.633L165.9,184.65a15.858,15.858,0,0,0-23.673-1.391l-9.453,9.461a6.75,6.75,0,0,1-9.55,0l-9.453-9.461A15.858,15.858,0,0,0,90.1,184.65L79.681,197.867Z" fill="#b2e26d"/><path d="M150.439,223.194l-14.908-4.673a29.507,29.507,0,0,0-15.062,0l-14.908,4.673c-6.473,2.03-15.513,2.691-23.685,2.063L84.139,253.5h87.722l2.263-28.243C165.952,225.885,156.912,225.224,150.439,223.194Z" fill="#57af12"/><path d="M104.788,223.421c-6.409,1.848-15.058,2.44-22.912,1.836L84.139,253.5h26.245Z" fill="#b77035"/><path d="M151.212,223.421c6.409,1.848,15.058,2.44,22.912,1.836L171.861,253.5H145.616Z" fill="#b77035"/><path d="M162.519,107.554c-14.7-13.163,3.074-34.017-17.546-42.811-9.215-3.93-13.645-11.637-15.615-19.147a1.375,1.375,0,0,0-.272-.521h-2.172a1.375,1.375,0,0,0-.272.521c-1.97,7.51-6.4,15.217-15.615,19.147-20.981,8.948-2.213,30.383-18.349,43.5a38.136,38.136,0,0,0,34.769,22.713h0A38.147,38.147,0,0,0,162.519,107.554Z" fill="#f9d0b4"/><path d="M105.242,79.165a7.428,7.428,0,1,0,14.2,3.047Z" fill="#f5c84c"/><path d="M150.758,79.165a7.428,7.428,0,1,1-14.2,3.047Z" fill="#f5c84c"/><path d="M164.4,109.07a23.015,23.015,0,0,1-1.881-1.517h0a38.4,38.4,0,0,1-17.137,18.867c.043-.023.088-.043.131-.066v11.292a5.381,5.381,0,0,0,3,4.825l4.016,1.98C160.432,128.267,177.487,118.514,164.4,109.07Z" fill="#ef4460"/><path d="M107.486,142.472a5.381,5.381,0,0,0,3-4.825V126.923c.092.046.189.086.282.132a38.406,38.406,0,0,1-18.091-18.816h0c-.346.281-.7.559-1.079.832-13.087,9.444,3.968,19.2,11.87,35.382Z" fill="#ef4460"/><path d="M181.055,90.783C161.117,71.319,189.455,17.687,128,16,66.545,17.687,94.883,71.319,74.945,90.783S64.192,136.427,83.234,141c12.5,3,18.559,12.8,21.25,19.186a1.36,1.36,0,0,0,2.609-.513c.371-25.926-32.239-38.518-15.493-50.6,18.041-13.02-2-35.187,19.427-44.327,9.215-3.93,13.645-11.637,15.615-19.147a1.407,1.407,0,0,1,2.716,0c1.97,7.51,6.4,15.217,15.615,19.147,21.43,9.14,1.386,31.307,19.427,44.327,16.743,12.083-15.853,24.672-15.493,50.59a1.363,1.363,0,0,0,2.611.521C154.21,153.8,160.271,144,172.766,141,191.808,136.427,200.992,110.247,181.055,90.783Z" fill="#fc657e"/><path d="M128,16c8.793.241,15.741,1.55,21.262,3.666a21.751,21.751,0,0,0-42.524,0C112.259,17.55,119.207,16.241,128,16Z" fill="#ef4460"/><path d="M68.372,55.6H66.106V53.33a3.071,3.071,0,0,0-6.142,0V55.6H57.7a3.071,3.071,0,0,0,0,6.142h2.265V64a3.071,3.071,0,0,0,6.142,0V61.738h2.266a3.071,3.071,0,0,0,0-6.142Z" fill="#70d6f9"/><path d="M222.857,113.366a10.8,10.8,0,0,1-8.654-8.478.2.2,0,0,0-.384,0,10.794,10.794,0,0,1-8.654,8.478.19.19,0,0,0,0,.376,10.8,10.8,0,0,1,8.654,8.479.2.2,0,0,0,.384,0,10.8,10.8,0,0,1,8.654-8.479A.19.19,0,0,0,222.857,113.366Z" fill="#f5c84c"/><circle cx="205.019" cy="138.285" r="3.285" fill="#ef4460"/><circle cx="34.019" cy="222.285" r="3.285" fill="#70d6f9"/><circle cx="74.019" cy="28.285" r="3.285" fill="#f5c84c"/><circle cx="163.019" cy="3.285" r="3.285" fill="#87d147"/><path d="M84.137,256a2.5,2.5,0,0,1-2.49-2.3l-5-62.39a2.5,2.5,0,0,1,4.985-.4l5,62.39a2.5,2.5,0,0,1-2.292,2.692C84.271,256,84.2,256,84.137,256Z"/><path d="M171.863,256c-.067,0-.134,0-.2-.008a2.5,2.5,0,0,1-2.292-2.692l5-62.39a2.5,2.5,0,0,1,4.985.4l-5,62.39A2.5,2.5,0,0,1,171.863,256Z"/><path d="M140.373,239.9a2.486,2.486,0,0,1-1.1-.256l-26.75-13.1a2.5,2.5,0,0,1,2.2-4.49l26.75,13.1a2.5,2.5,0,0,1-1.1,4.746Z"/><path d="M115.627,239.9a2.5,2.5,0,0,1-1.1-4.746l26.75-13.1a2.5,2.5,0,0,1,2.2,4.49l-26.75,13.1A2.483,2.483,0,0,1,115.627,239.9Z"/><path d="M137.553,250.805a2.5,2.5,0,0,1-1.112-.262l-21.929-10.9a2.5,2.5,0,0,1,2.226-4.477l21.93,10.9a2.5,2.5,0,0,1-1.115,4.74Z"/><path d="M118.444,250.806a2.5,2.5,0,0,1-1.115-4.739l21.933-10.9a2.5,2.5,0,0,1,2.226,4.477l-21.932,10.9A2.492,2.492,0,0,1,118.444,250.806Z"/><path d="M105.711,163.513a3.817,3.817,0,0,1-3.531-2.355c-2.789-6.617-8.442-15.064-19.53-17.727a28.119,28.119,0,0,1-20.29-20.106c-3.276-11.894.674-24.407,10.839-34.331,6.365-6.214,7.349-16.779,8.391-27.965,2.023-21.737,4.318-46.375,46.342-47.528h.136c42.024,1.153,44.319,25.791,46.342,47.528,1.042,11.186,2.026,21.751,8.391,27.965h0c10.165,9.924,14.115,22.437,10.839,34.331a28.119,28.119,0,0,1-20.29,20.106c-11.086,2.663-16.739,11.107-19.528,17.721a3.863,3.863,0,0,1-7.415-1.457c-.18-13.015,7.269-22.729,13.255-30.534,4.014-5.233,7.48-9.753,6.975-13.2-.243-1.655-1.453-3.248-3.7-4.869-9.692-6.994-9.585-16.359-9.492-24.62.1-8.564.174-15.328-9.454-19.435-7.533-3.212-13.01-9.191-15.992-17.4-2.983,8.212-8.46,14.191-15.992,17.4-9.628,4.107-9.552,10.871-9.454,19.435.093,8.261.2,17.626-9.492,24.62-2.246,1.621-3.456,3.214-3.7,4.869-.5,3.442,2.961,7.962,6.975,13.2,5.988,7.809,13.441,17.527,13.255,30.548a3.83,3.83,0,0,1-3.124,3.73A3.94,3.94,0,0,1,105.711,163.513ZM128,18.5C90.474,19.556,88.576,39.927,86.568,61.493c-1.13,12.127-2.2,23.581-9.877,31.079C67.868,101.186,64.4,111.911,67.181,122a23.12,23.12,0,0,0,16.637,16.572c10.426,2.5,16.69,9.411,20.275,15.35-1.631-8.556-6.94-15.478-11.723-21.715-4.7-6.134-8.766-11.431-7.953-16.964.449-3.063,2.32-5.744,5.72-8.2,7.588-5.476,7.5-12.778,7.417-20.508-.1-8.753-.212-18.672,12.493-24.091,7.165-3.056,11.935-8.937,14.178-17.482a3.9,3.9,0,0,1,7.55,0c2.243,8.543,7.013,14.424,14.178,17.48,12.7,5.419,12.592,15.338,12.493,24.091-.088,7.73-.171,15.032,7.417,20.508,3.4,2.454,5.271,5.135,5.72,8.2.813,5.533-3.25,10.83-7.953,16.964-4.783,6.236-10.092,13.158-11.723,21.714,3.584-5.938,9.848-12.844,20.275-15.349A23.12,23.12,0,0,0,188.819,122c2.779-10.086-.687-20.811-9.51-29.425h0c-7.681-7.5-8.747-18.952-9.877-31.079C167.424,39.927,165.526,19.556,128,18.5Z"/><path d="M127.447,133.452a40.615,40.615,0,0,1-37.054-24.2A2.5,2.5,0,0,1,91.1,106.3c6.611-5.373,6.532-12.364,6.449-19.766-.1-8.752-.209-18.671,12.5-24.09,7.165-3.056,11.935-8.937,14.178-17.482a3.857,3.857,0,0,1,.74-1.451,2.494,2.494,0,0,1,1.949-.935h2.172a2.494,2.494,0,0,1,1.949.935,3.867,3.867,0,0,1,.741,1.453c2.242,8.543,7.012,14.424,14.177,17.48,12.7,5.419,12.6,15.338,12.5,24.09-.08,7.138-.155,13.881,5.739,19.158a2.5,2.5,0,0,1,.636,2.831A40.5,40.5,0,0,1,127.447,133.452Zm-31.7-24.584a35.465,35.465,0,0,0,63.781-.74c-6.243-6.566-6.153-14.552-6.074-21.651.1-8.564.172-15.328-9.457-19.435-7.533-3.212-13.01-9.191-15.992-17.4-2.983,8.213-8.46,14.191-15.992,17.4-9.629,4.107-9.553,10.871-9.457,19.435C102.634,93.864,102.728,102.176,95.742,108.868Z"/><path d="M201.816,256H54.184a8.429,8.429,0,0,1-8.416-8.9l3.624-76.328a17.43,17.43,0,0,1,13.2-16.019l26.467-6.661a27.293,27.293,0,0,0,5.386-1.981l.676-.333a2.5,2.5,0,0,1,2.82.421,36.208,36.208,0,0,1,6.139,7.692,33.425,33.425,0,0,0-2.859-8.344,2.5,2.5,0,0,1,1.14-3.339l4.017-1.98a2.864,2.864,0,0,0,1.605-2.584V126.923a2.5,2.5,0,0,1,3.623-2.234,34.949,34.949,0,0,0,15.838,3.763,35.384,35.384,0,0,0,16.871-4.293,2.5,2.5,0,0,1,3.7,2.195v11.292a2.861,2.861,0,0,0,1.6,2.583l4.017,1.981a2.5,2.5,0,0,1,1.14,3.339,33.425,33.425,0,0,0-2.859,8.344,36.2,36.2,0,0,1,6.139-7.692,2.5,2.5,0,0,1,2.82-.421l.677.334a27.321,27.321,0,0,0,5.385,1.98l26.467,6.661a17.424,17.424,0,0,1,13.2,16l3.626,76.362A8.429,8.429,0,0,1,201.816,256ZM95.718,151.043a32.189,32.189,0,0,1-5.436,1.9L63.815,159.6a12.445,12.445,0,0,0-9.43,11.428L50.761,247.36A3.429,3.429,0,0,0,54.184,251H201.816a3.429,3.429,0,0,0,3.424-3.62v-.02l-3.625-76.348a12.439,12.439,0,0,0-9.429-11.408l-26.467-6.662a32.246,32.246,0,0,1-5.436-1.9,34.422,34.422,0,0,0-6.46,10.109,3.863,3.863,0,0,1-7.415-1.457,34.542,34.542,0,0,1,2.846-14.071l-1.845-.91a7.831,7.831,0,0,1-4.394-7.068v-7.323a40.435,40.435,0,0,1-15.567,3.129,39.834,39.834,0,0,1-14.461-2.687v6.881a7.831,7.831,0,0,1-4.393,7.068l-1.846.91a34.554,34.554,0,0,1,2.846,14.085,3.86,3.86,0,0,1-7.413,1.449A34.414,34.414,0,0,0,95.718,151.043Z"/><path d="M149.262,22.166a2.48,2.48,0,0,1-.9-.166C142.9,19.905,136.048,18.727,128,18.5c-8.048.226-14.9,1.4-20.367,3.5a2.5,2.5,0,0,1-3.339-2.858,24.25,24.25,0,0,1,47.412,0,2.5,2.5,0,0,1-2.444,3.024ZM128,13.5h.068a74.625,74.625,0,0,1,17.2,2.254,19.245,19.245,0,0,0-34.542,0,74.625,74.625,0,0,1,17.2-2.254Z"/><path d="M128,113.981a22.279,22.279,0,0,1-9.945-2.323,2.5,2.5,0,0,1,2.213-4.484,17.448,17.448,0,0,0,15.465,0,2.5,2.5,0,0,1,2.213,4.484A22.28,22.28,0,0,1,128,113.981Z"/><path d="M112.014,92.141a9.939,9.939,0,0,1-9.928-9.929,9.8,9.8,0,0,1,.88-4.081,2.5,2.5,0,0,1,2.8-1.41l14.2,3.047a2.5,2.5,0,0,1,1.975,2.444A9.94,9.94,0,0,1,112.014,92.141Zm-4.927-10.023c0,.031,0,.063,0,.094a4.928,4.928,0,0,0,9.46,1.936Z"/><path d="M143.986,92.141a9.94,9.94,0,0,1-9.928-9.929,2.5,2.5,0,0,1,1.975-2.444l14.2-3.047a2.5,2.5,0,0,1,2.8,1.41,9.8,9.8,0,0,1,.88,4.081A9.939,9.939,0,0,1,143.986,92.141Zm-4.532-7.993a4.928,4.928,0,0,0,9.46-1.936c0-.031,0-.063,0-.094Z"/><path d="M201.816,256H171.86a2.5,2.5,0,0,1-2.492-2.7l4.459-55.633a2.5,2.5,0,0,1,4.788-.79c.106.246,10.514,23.9,26.47,23.9.434,0,.868-.017,1.309-.052a2.5,2.5,0,0,1,2.7,2.373l1.14,24.016A8.429,8.429,0,0,1,201.816,256Zm-27.248-5h27.248a3.429,3.429,0,0,0,3.424-3.62v-.02l-1.025-21.6c-12.276-.477-21.236-11.438-26.081-19.23Z"/><path d="M84.14,256H54.184a8.429,8.429,0,0,1-8.417-8.888l1.14-24.016a2.5,2.5,0,0,1,2.7-2.373c16.711,1.361,27.669-23.592,27.779-23.844a2.5,2.5,0,0,1,4.788.788L86.632,253.3A2.5,2.5,0,0,1,84.14,256ZM51.786,225.761l-1.025,21.6v.02A3.429,3.429,0,0,0,54.184,251H81.432l-3.565-44.47C73.022,214.322,64.062,225.282,51.786,225.761Zm-3.522,21.48h0Z"/><path d="M171.86,256H84.14a2.5,2.5,0,0,1-2.493-2.3l-4.459-55.633a2.5,2.5,0,0,1,.53-1.748L88.137,183.1a18.357,18.357,0,0,1,27.4-1.611l9.452,9.461a4.249,4.249,0,0,0,6.014,0l9.452-9.461a18.359,18.359,0,0,1,27.405,1.611l10.418,13.216a2.5,2.5,0,0,1,.53,1.748L174.353,253.7A2.5,2.5,0,0,1,171.86,256Zm-85.413-5h83.106l4.2-52.355L163.938,186.2A13.359,13.359,0,0,0,144,185.026l-9.452,9.461a9.249,9.249,0,0,1-13.088,0L112,185.026A13.358,13.358,0,0,0,92.063,186.2l-9.812,12.447Z"/><path d="M171.86,256H84.14a2.5,2.5,0,0,1-2.493-2.3l-2.263-28.243a2.5,2.5,0,0,1,2.683-2.693c8.177.628,16.893-.12,22.745-1.955l14.909-4.674a31.951,31.951,0,0,1,16.558,0l14.909,4.674h0c5.852,1.834,14.565,2.582,22.745,1.955a2.5,2.5,0,0,1,2.683,2.693L174.353,253.7A2.5,2.5,0,0,1,171.86,256Zm-85.413-5h83.106l1.849-23.08c-7.956.322-15.9-.52-21.711-2.34l-14.908-4.673a27.024,27.024,0,0,0-13.566,0l-14.908,4.673c-5.809,1.821-13.757,2.661-21.711,2.34Z"/><path d="M110.384,256H84.14a2.5,2.5,0,0,1-2.493-2.3l-2.263-28.243a2.5,2.5,0,0,1,2.683-2.693c7.9.607,16.132-.045,22.027-1.745a2.5,2.5,0,0,1,3.151,1.944l5.6,30.079A2.5,2.5,0,0,1,110.384,256Zm-23.937-5h20.929l-4.56-24.5A73.867,73.867,0,0,1,84.6,227.919Z"/><path d="M171.86,256H145.616a2.5,2.5,0,0,1-2.458-2.958l5.6-30.079a2.5,2.5,0,0,1,3.15-1.944c5.9,1.7,14.128,2.352,22.028,1.745a2.5,2.5,0,0,1,2.683,2.693L174.353,253.7A2.5,2.5,0,0,1,171.86,256Zm-23.236-5h20.929l1.849-23.081a73.775,73.775,0,0,1-18.218-1.422Z"/></svg>