<svg id="Capa_1" enable-background="new 0 0 512 512" height="512" viewBox="0 0 512 512" width="512" xmlns="http://www.w3.org/2000/svg"><g><path d="m241 345.677v-171.407l-51.708-25.854c-7.41-3.704-10.413-12.715-6.708-20.124s12.715-10.415 20.125-6.708l38.291 19.146v-127.875c-13.227-8.29-28.689-12.855-45-12.855-33.622 0-63.851 20.043-77.418 50.042-.862-.028-1.722-.042-2.582-.042-46.869 0-85 38.131-85 85 0 10.598 2.012 21.101 5.884 30.949-22.672 19.821-35.884 48.524-35.884 79.051 0 57.897 47.103 105 105 105 21.714 0 42.608-6.678 60.181-19.039 13.62 12.109 31.375 19.039 49.819 19.039 8.593 0 17.034-1.49 25-4.323zm-75-125.677c-24.813 0-45 20.187-45 45 0 8.284-6.716 15-15 15s-15-6.716-15-15c0-41.355 33.645-75 75-75 8.284 0 15 6.716 15 15s-6.716 15-15 15z"/><path d="m475.116 165.949c3.872-9.848 5.884-20.351 5.884-30.949 0-46.869-38.131-85-85-85-.86 0-1.72.014-2.582.042-13.567-29.999-43.796-50.042-77.418-50.042-16.311 0-31.773 4.565-45 12.855v127.875l38.292-19.146c7.41-3.707 16.42-.701 20.125 6.708s.701 16.42-6.708 20.124l-51.709 25.854v171.407c7.966 2.833 16.407 4.323 25 4.323 18.444 0 36.199-6.93 49.819-19.039 17.573 12.361 38.467 19.039 60.181 19.039 57.897 0 105-47.103 105-105 0-30.527-13.212-59.23-35.884-79.051zm-69.116 114.051c-8.284 0-15-6.716-15-15 0-24.813-20.187-45-45-45-8.284 0-15-6.716-15-15s6.716-15 15-15c41.355 0 75 33.645 75 75 0 8.284-6.716 15-15 15z"/><path d="m286 421.997h-35.729l19.146-38.292c3.705-7.41.702-16.42-6.708-20.124-7.41-3.705-16.42-.702-20.125 6.708l-30 60c-4.987 9.974 2.266 21.708 13.416 21.708h35.729l-19.146 38.292c-3.705 7.409-.702 16.419 6.708 20.124s16.42.702 20.125-6.708l30-60c4.987-9.974-2.265-21.708-13.416-21.708z"/></g></svg>