<svg xmlns="http://www.w3.org/2000/svg" viewBox="0 0 256 256"><title>icon</title><path d="M141.639,63.966a15.95,15.95,0,0,0-2.44.193V92.938c0,.857-.039,1.7-.1,2.549a15.863,15.863,0,1,0,2.536-31.521Z" fill="#f9d0b4"/><path d="M63.17,92.938V64.159a15.877,15.877,0,1,0,.1,31.328C63.209,94.643,63.17,93.8,63.17,92.938Z" fill="#f9d0b4"/><path d="M106.877,46.817c-13.884,17.461-34.367,15-41.254,13.555a2.029,2.029,0,0,0-2.453,1.96V92.938a38.126,38.126,0,0,0,38.014,38.014h0A38.125,38.125,0,0,0,139.2,92.938V59.074q0-.3-.006-.594a2.037,2.037,0,0,0-1.963-2c-15.792-.463-24.113-6.722-27.31-9.857A2.047,2.047,0,0,0,106.877,46.817Z" fill="#f9d0b4"/><path d="M101.185,164.952h0a38.055,38.055,0,0,0,31.761-17.207l-10.695-5.273a5.38,5.38,0,0,1-3-4.825V126.355a37.682,37.682,0,0,1-18.066,4.6h0a37.661,37.661,0,0,1-16.961-4.029v10.724a5.379,5.379,0,0,1-3,4.825l-11.534,5.687A38.056,38.056,0,0,0,101.185,164.952Z" fill="#f9d0b4"/><path d="M148.854,29.619V65.713a15.782,15.782,0,0,0-7.215-1.747,15.95,15.95,0,0,0-2.44.193V59.074q0-.3-.006-.594a2.037,2.037,0,0,0-1.963-2c-15.792-.463-24.113-6.722-27.31-9.857a2.047,2.047,0,0,0-3.043.192c-13.884,17.461-34.367,15-41.254,13.555a2.029,2.029,0,0,0-2.453,1.96v1.827a15.947,15.947,0,0,0-2.439-.193,15.777,15.777,0,0,0-7.11,1.7V43.18A37.373,37.373,0,0,1,90.884,5.916h4.781a41.669,41.669,0,0,1,20.418,5.329,6.511,6.511,0,0,0,5.8.253s9.354-4,17.354,2C149,20.824,148.854,29.619,148.854,29.619Z" fill="#414344"/><path d="M192.414,27.931h0A33.583,33.583,0,0,0,166.964,64.2a253.6,253.6,0,0,1,1.273,27.3c0,24.085-15.282,43.625-31.956,57.779a29.679,29.679,0,0,0,3.785,1.239l26.467,6.662a14.969,14.969,0,0,1,8.122,5.28c39.353-24.983,53.9-65.106,58.929-96.815C237.333,42.027,215.648,22.272,192.414,27.931Z" fill="#edf4fc"/><path d="M101.185,177.151h0a43.471,43.471,0,0,0,39.851-26.389l-.97-.244a29.62,29.62,0,0,1-5.882-2.163l-1.238-.61a38.055,38.055,0,0,1-31.761,17.207h0a38.056,38.056,0,0,1-31.5-16.793l-.4.2a29.7,29.7,0,0,1-5.882,2.162l-1.962.494A43.464,43.464,0,0,0,101.185,177.151Z" fill="#f98fa6"/><path d="M181.474,247.241l-3.625-76.348a15,15,0,0,0-11.316-13.713l-25.5-6.418a43.471,43.471,0,0,1-39.851,26.389h0a43.464,43.464,0,0,1-39.738-26.139L36.942,157.18a15,15,0,0,0-11.316,13.713L22,247.241a5.93,5.93,0,0,0,5.92,6.259H175.554A5.93,5.93,0,0,0,181.474,247.241Z" fill="#ef4460"/><path d="M207.6,82.943l3.486,11.615a.994.994,0,0,0,1.9,0l4.9-16.33A32.4,32.4,0,0,1,207.6,82.943Z" fill="#edf4fc"/><path d="M180.737,77.931l4.99,16.627a.994.994,0,0,0,1.905,0l3.508-11.692A32.4,32.4,0,0,1,180.737,77.931Z" fill="#edf4fc"/><path d="M181.694,57.026a5.819,5.819,0,1,0,11.126,2.387Z" fill="#ef4460"/><path d="M217.353,57.026a5.819,5.819,0,1,1-11.125,2.387Z" fill="#ef4460"/><path d="M77.979,77.165a7.428,7.428,0,1,0,14.2,3.047Z" fill="#ef4460"/><path d="M123.5,77.165a7.428,7.428,0,1,1-14.2,3.047Z" fill="#ef4460"/><path d="M190.372,7.738h-2.266V5.472a3.071,3.071,0,1,0-6.142,0V7.738H179.7a3.071,3.071,0,0,0,0,6.142h2.265v2.267a3.071,3.071,0,1,0,6.142,0V13.88h2.266a3.071,3.071,0,0,0,0-6.142Z" fill="#f5c84c"/><path d="M53.857,119.782A10.8,10.8,0,0,1,45.2,111.3a.2.2,0,0,0-.384,0,10.8,10.8,0,0,1-8.654,8.478.19.19,0,0,0,0,.376,10.8,10.8,0,0,1,8.654,8.478.2.2,0,0,0,.384,0,10.8,10.8,0,0,1,8.654-8.478A.19.19,0,0,0,53.857,119.782Z" fill="#ef4460"/><circle cx="200.019" cy="173.285" r="3.285" fill="#87d147"/><circle cx="25.019" cy="140.285" r="3.285" fill="#f5c84c"/><circle cx="157.019" cy="3.285" r="3.285" fill="#70d6f9"/><path d="M141.639,98.208a18.462,18.462,0,0,1-2.933-.252,2.5,2.5,0,0,1-2.1-2.635c.061-.924.09-1.682.09-2.383V64.159a2.5,2.5,0,0,1,2.116-2.47,18.369,18.369,0,1,1,2.824,36.519Zm.06-31.742V92.938c0,.089,0,.179,0,.27a13.371,13.371,0,0,0,0-26.742Z"/><path d="M60.73,98.208a18.371,18.371,0,1,1,2.823-36.519,2.5,2.5,0,0,1,2.117,2.47V92.938c0,.709.029,1.466.09,2.382a2.5,2.5,0,0,1-2.1,2.636A18.483,18.483,0,0,1,60.73,98.208Zm-.06-31.742a13.371,13.371,0,0,0,0,26.742c0-.09,0-.181,0-.27Z"/><path d="M101.185,133.452A40.561,40.561,0,0,1,60.67,92.938V62.358a4.527,4.527,0,0,1,5.466-4.432c7.4,1.548,26,3.414,38.785-12.665h0a4.546,4.546,0,0,1,6.749-.421c2.654,2.6,10.462,8.7,25.635,9.142a4.528,4.528,0,0,1,4.388,4.448c0,.215.007.429.007.645V92.938A40.561,40.561,0,0,1,101.185,133.452ZM65.67,62.932V92.938a35.515,35.515,0,0,0,71.029,0V58.965c-15.55-.565-24.213-6.473-28.172-10.211C94.009,66.6,72.743,64.311,65.67,62.932Zm41.207-16.115h0Z"/><path d="M101.185,167.452a40.538,40.538,0,0,1-33.566-17.891,2.5,2.5,0,0,1,.964-3.644l11.535-5.687a2.865,2.865,0,0,0,1.606-2.584V126.923a2.5,2.5,0,0,1,3.623-2.234,34.949,34.949,0,0,0,15.838,3.763,35.377,35.377,0,0,0,16.87-4.293,2.5,2.5,0,0,1,3.695,2.195v11.292a2.861,2.861,0,0,0,1.607,2.583l10.695,5.274a2.5,2.5,0,0,1,.982,3.618A40.474,40.474,0,0,1,101.185,167.452Zm-27.713-18.37a35.4,35.4,0,0,0,55.728-.4l-8.054-3.972a7.832,7.832,0,0,1-4.4-7.068v-7.323a40.425,40.425,0,0,1-15.565,3.129,39.83,39.83,0,0,1-14.461-2.687v6.881a7.831,7.831,0,0,1-4.4,7.068Z"/><path d="M148.854,68.213a2.5,2.5,0,0,1-1.14-.275,13.018,13.018,0,0,0-8.131-1.309,2.5,2.5,0,0,1-2.884-2.47V58.965c-15.55-.565-24.213-6.473-28.172-10.211C94.007,66.605,72.74,64.311,65.67,62.932v1.227a2.5,2.5,0,0,1-2.883,2.47A13.023,13.023,0,0,0,54.743,67.9a2.5,2.5,0,0,1-3.622-2.234V43.18A39.807,39.807,0,0,1,90.884,3.417h4.781a44.379,44.379,0,0,1,21.64,5.647,4.013,4.013,0,0,0,3.566.148c.465-.2,10.815-4.5,19.866,2.288,10.471,7.853,10.621,17.4,10.617,18.13V65.713a2.5,2.5,0,0,1-2.5,2.5ZM141.7,61.466a18.132,18.132,0,0,1,4.655.616V29.593c0-.362-.123-7.722-8.617-14.093-6.7-5.029-14.55-1.839-14.88-1.7a9.013,9.013,0,0,1-8-.373,39.366,39.366,0,0,0-19.2-5.01H90.884A34.8,34.8,0,0,0,56.121,43.18V62.056a17.34,17.34,0,0,1,4.636-.59,4.473,4.473,0,0,1,1.579-2.619,4.535,4.535,0,0,1,3.8-.922c7.4,1.549,26,3.416,38.786-12.664a4.545,4.545,0,0,1,6.748-.421c2.654,2.6,10.462,8.7,25.635,9.142a4.528,4.528,0,0,1,4.388,4.448c0,.215.007.429.007.644Z"/><path d="M174.657,164.96a2.5,2.5,0,0,1-1.967-.954,12.392,12.392,0,0,0-6.768-4.4l-26.467-6.662a32.186,32.186,0,0,1-4.1-1.342,2.5,2.5,0,0,1-.689-4.226c20.619-17.5,31.074-36.3,31.074-55.874a253.345,253.345,0,0,0-1.258-27.025A36.177,36.177,0,0,1,191.822,25.5h0a36.064,36.064,0,0,1,44.231,40.535C231.188,96.682,216.82,138.653,176,164.571A2.488,2.488,0,0,1,174.657,164.96Zm-33.4-16.719,25.881,6.514a17.576,17.576,0,0,1,7.94,4.451c37.9-25,51.4-64.773,56.032-93.954a30.388,30.388,0,0,0-9.592-27.512,31.125,31.125,0,0,0-52.074,26.191A258.206,258.206,0,0,1,170.737,91.5C170.737,111.494,160.826,130.564,141.262,148.241Z"/><path d="M100.738,111.981a22.283,22.283,0,0,1-9.946-2.323,2.5,2.5,0,1,1,2.214-4.484,17.446,17.446,0,0,0,15.464,0,2.5,2.5,0,1,1,2.214,4.484A22.283,22.283,0,0,1,100.738,111.981Z"/><path d="M101.185,179.651a45.889,45.889,0,0,1-42.03-27.641,2.5,2.5,0,0,1,1.682-3.423l1.962-.493a27.293,27.293,0,0,0,5.386-1.981l.4-.2a2.5,2.5,0,0,1,3.175.84,35.424,35.424,0,0,0,59.1-.387,2.5,2.5,0,0,1,3.194-.867l1.238.61a27.246,27.246,0,0,0,5.386,1.981l.97.244a2.5,2.5,0,0,1,1.688,3.408A45.846,45.846,0,0,1,101.185,179.651ZM65.013,152.675a40.763,40.763,0,0,0,72.5-.287,32.458,32.458,0,0,1-3.74-1.458,40.406,40.406,0,0,1-64.906.373A32.261,32.261,0,0,1,65.013,152.675Z"/><path d="M175.554,256H27.921a8.429,8.429,0,0,1-8.416-8.9l3.623-76.328a17.431,17.431,0,0,1,13.2-16.019l24.5-6.168a2.5,2.5,0,0,1,2.9,1.426,40.779,40.779,0,0,0,75-.235,2.5,2.5,0,0,1,2.909-1.44l25.5,6.417a17.424,17.424,0,0,1,13.2,16l3.626,76.362A8.429,8.429,0,0,1,175.554,256ZM60.049,153.941l-22.5,5.663a12.446,12.446,0,0,0-9.43,11.428L24.5,247.36A3.43,3.43,0,0,0,27.921,251H175.554a3.43,3.43,0,0,0,3.424-3.62v-.02l-3.625-76.348a12.441,12.441,0,0,0-9.43-11.408L142.446,153.7a45.769,45.769,0,0,1-82.4.246Z"/><path d="M53.621,256a2.5,2.5,0,0,1-2.5-2.5V201.862a2.5,2.5,0,0,1,5,0V253.5A2.5,2.5,0,0,1,53.621,256Z"/><path d="M148.854,256a2.5,2.5,0,0,1-2.5-2.5V201.862a2.5,2.5,0,0,1,5,0V253.5A2.5,2.5,0,0,1,148.854,256Z"/><path d="M199.523,86.473A34.995,34.995,0,0,1,177.6,78.7a2.5,2.5,0,1,1,3.142-3.888,29.784,29.784,0,0,0,37.555,0,2.5,2.5,0,1,1,3.143,3.888A35,35,0,0,1,199.523,86.473Z"/><path d="M212.04,97.767h0a3.472,3.472,0,0,1-3.346-2.49l-3.486-11.615a2.5,2.5,0,0,1,1.768-3.14,29.78,29.78,0,0,0,9.5-4.351,2.5,2.5,0,0,1,3.816,2.775l-4.9,16.331A3.474,3.474,0,0,1,212.04,97.767ZM210.715,84.62l1.325,4.414,1.679-5.6Q212.246,84.1,210.715,84.62Z"/><path d="M186.679,97.767a3.472,3.472,0,0,1-3.346-2.489L178.342,78.65A2.5,2.5,0,0,1,182.19,75.9a29.811,29.811,0,0,0,9.6,4.555,2.5,2.5,0,0,1,1.744,3.133l-3.509,11.692a3.471,3.471,0,0,1-3.346,2.49Zm-1.731-14.5,1.731,5.767,1.355-4.514Q186.462,83.968,184.948,83.267Z"/><path d="M187,67.733a8.329,8.329,0,0,1-8.32-8.319,8.231,8.231,0,0,1,.737-3.42,2.5,2.5,0,0,1,2.8-1.412l11.125,2.387a2.5,2.5,0,0,1,1.975,2.445A8.329,8.329,0,0,1,187,67.733Zm-3.264-7.712a3.319,3.319,0,0,0,5.989,1.286Z"/><path d="M212.047,67.733a8.329,8.329,0,0,1-8.319-8.319,2.5,2.5,0,0,1,1.975-2.445l11.126-2.387A2.5,2.5,0,0,1,219.63,56a8.23,8.23,0,0,1,.737,3.419A8.329,8.329,0,0,1,212.047,67.733Zm-2.725-6.426a3.319,3.319,0,0,0,5.989-1.286Z"/><path d="M84.751,90.141a9.94,9.94,0,0,1-9.928-9.929,9.81,9.81,0,0,1,.879-4.078,2.5,2.5,0,0,1,2.8-1.413l14.2,3.047a2.5,2.5,0,0,1,1.976,2.444A9.94,9.94,0,0,1,84.751,90.141ZM79.824,80.118c0,.031,0,.063,0,.094a4.928,4.928,0,0,0,9.461,1.936Z"/><path d="M116.723,90.141a9.94,9.94,0,0,1-9.928-9.929,2.5,2.5,0,0,1,1.976-2.444l14.2-3.047a2.5,2.5,0,0,1,2.8,1.413,9.8,9.8,0,0,1,.88,4.078A9.94,9.94,0,0,1,116.723,90.141Zm-4.532-7.993a4.928,4.928,0,0,0,9.461-1.936c0-.031,0-.063,0-.094Z"/></svg>