<svg xmlns="http://www.w3.org/2000/svg" viewBox="0 0 256 256"><title>icon</title><path d="M122.917,53.138c-5.193-5-11.71-8.111-17.634-10.039a11.722,11.722,0,0,0-15.3,11.187V92.938A38.126,38.126,0,0,0,128,130.952h0a38.126,38.126,0,0,0,38.015-38.014V54.286a11.722,11.722,0,0,0-15.3-11.187c-5.924,1.928-12.441,5.036-17.634,10.039A7.3,7.3,0,0,1,122.917,53.138Z" fill="#9be5f9"/><path d="M135.665,104.73l3.327,11.086a.945.945,0,0,0,1.81,0l4.687-15.618A30.635,30.635,0,0,1,135.665,104.73Z" fill="#edf4fc"/><path d="M110.114,99.916l4.772,15.9a.945.945,0,0,0,1.81,0l3.349-11.16A30.658,30.658,0,0,1,110.114,99.916Z" fill="#edf4fc"/><path d="M128,108.21a33.248,33.248,0,0,1-20.828-7.389,2.5,2.5,0,0,1,3.142-3.889,28.051,28.051,0,0,0,35.372,0,2.5,2.5,0,0,1,3.142,3.889A33.248,33.248,0,0,1,128,108.21Z"/><circle cx="127.5" cy="152.5" r="7" fill="#ef4460"/><path d="M191.192,121.179A66.149,66.149,0,0,0,164.9,102.03,38.159,38.159,0,0,1,128,130.952h0A38.159,38.159,0,0,1,91.1,102.03a66.149,66.149,0,0,0-26.292,19.149,1.824,1.824,0,0,0,.984,2.929c8.284,1.961,33.483,9.06,54.905,26.77a6.992,6.992,0,0,1,13.738.716c21.6-18.241,47.377-25.5,55.773-27.486A1.824,1.824,0,0,0,191.192,121.179Z" fill="#fc657e"/><path d="M122.455,147.674a6.962,6.962,0,0,1,10.093-.016,140.348,140.348,0,0,0,1.74-17.234,37.807,37.807,0,0,1-6.288.528h0a37.835,37.835,0,0,1-7.3-.716A140.771,140.771,0,0,0,122.455,147.674Z" fill="#9be5f9"/><path d="M120.5,152.5a7,7,0,0,1,.2-1.623h0a118,118,0,0,0-12.5-9L69.918,151a26.165,26.165,0,0,0-20.06,23.917l-1.651,28.074a2.578,2.578,0,0,0,3.252,2.639c34.359-9.418,68.871-40.448,75.06-46.2A7,7,0,0,1,120.5,152.5Z" fill="#414344"/><path d="M206.142,174.913A26.165,26.165,0,0,0,186.082,151L147.8,141.881a117.321,117.321,0,0,0-13.366,9.713,7.129,7.129,0,0,1,.065.906,7,7,0,0,1-6,6.92c6.336,5.748,41.674,36.787,76.039,46.206a2.578,2.578,0,0,0,3.252-2.639Z" fill="#414344"/><path d="M205.762,205.659a2.546,2.546,0,0,1-1.221-.033c-34.365-9.419-69.7-40.458-76.039-46.206h0a7.068,7.068,0,0,1-1,.08,6.905,6.905,0,0,1-.981-.077c-6.189,5.755-40.7,36.785-75.06,46.2a2.546,2.546,0,0,1-1.221.033l-1.974,41.582a5.928,5.928,0,0,0,5.919,6.259H201.817a5.928,5.928,0,0,0,5.919-6.259Z" fill="#edf4fc"/><path d="M120.5,253.5h14V164.65c-2.8-2.366-4.868-4.205-6-5.23h0a7.068,7.068,0,0,1-1,.08,6.905,6.905,0,0,1-.981-.077c-1.124,1.046-3.2,2.934-6.019,5.368Z" fill="#c7d7e5"/><path d="M167.454,63.966c-.486,0-.965.03-1.439.075v28.9c0,.9-.044,1.791-.106,2.676a14.335,14.335,0,0,0,1.545.094,15.871,15.871,0,0,0,0-31.742Z" fill="#9be5f9"/><path d="M89.985,92.938v-28.9c-.474-.045-.953-.075-1.439-.075a15.871,15.871,0,0,0,0,31.742,14.335,14.335,0,0,0,1.545-.094C90.029,94.729,89.985,93.838,89.985,92.938Z" fill="#9be5f9"/><circle cx="110.5" cy="77" r="5.5" fill="#f5c84c"/><circle cx="145.5" cy="77" r="5.5" fill="#f5c84c"/><path d="M88.546,63.966c.486,0,.965.03,1.439.075V54.286a11.722,11.722,0,0,1,15.3-11.187c5.924,1.928,12.441,5.036,17.634,10.039a7.3,7.3,0,0,0,10.166,0c5.193-5,11.71-8.111,17.634-10.039a11.722,11.722,0,0,1,15.3,11.187v9.755c.474-.045.953-.075,1.439-.075A15.8,15.8,0,0,1,177.5,67.553V39.227a17.153,17.153,0,0,0-2-8.227,10.371,10.371,0,0,0-5.273-5.027,9.971,9.971,0,0,1-4.591-3.22C161.457,17.272,149.982,5.5,128.5,5.5S95.543,17.272,91.364,22.753a9.971,9.971,0,0,1-4.591,3.22A10.371,10.371,0,0,0,81.5,31a17.153,17.153,0,0,0-2,8.227V66.805A15.783,15.783,0,0,1,88.546,63.966Z" fill="#414344"/><path d="M162.839,46.268a11.655,11.655,0,0,1,3.176,8.018v9.755c.474-.045.953-.075,1.439-.075A15.8,15.8,0,0,1,177.5,67.553V39.985Z" fill="#818182"/><path d="M89.985,64.041V54.286a11.665,11.665,0,0,1,3.469-8.321L79.5,39.985v26.82a15.783,15.783,0,0,1,9.046-2.839C89.032,63.966,89.511,64,89.985,64.041Z" fill="#818182"/><path d="M166.015,56.219v7.822c.474-.045.953-.075,1.439-.075A15.8,15.8,0,0,1,177.5,67.553V51.3Z" fill="#5b5d60"/><path d="M89.985,64.041V55.79L79.5,51.3V66.805a15.783,15.783,0,0,1,9.046-2.839C89.032,63.966,89.511,64,89.985,64.041Z" fill="#5b5d60"/><path d="M213.372,133.6h-2.266V131.33a3.071,3.071,0,1,0-6.142,0V133.6H202.7a3.071,3.071,0,0,0,0,6.142h2.265V142a3.071,3.071,0,0,0,6.142,0v-2.266h2.266a3.071,3.071,0,1,0,0-6.142Z" fill="#ef4460"/><path d="M83.857,8.64A10.8,10.8,0,0,1,75.2.161a.2.2,0,0,0-.384,0A10.8,10.8,0,0,1,66.165,8.64a.19.19,0,0,0,0,.376,10.794,10.794,0,0,1,8.654,8.478.2.2,0,0,0,.384,0,10.8,10.8,0,0,1,8.654-8.478A.19.19,0,0,0,83.857,8.64Z" fill="#f5c84c"/><circle cx="195.019" cy="102.285" r="3.285" fill="#70d6f9"/><circle cx="62.019" cy="34.285" r="3.285" fill="#ef4460"/><circle cx="40.019" cy="154.285" r="3.285" fill="#87d147"/><path d="M128,133.452A40.561,40.561,0,0,1,87.485,92.938V54.286a14.222,14.222,0,0,1,18.572-13.565,47.715,47.715,0,0,1,18.594,10.617h0a4.814,4.814,0,0,0,6.7,0,47.72,47.72,0,0,1,18.594-10.617,14.222,14.222,0,0,1,18.572,13.565V92.938A40.561,40.561,0,0,1,128,133.452ZM101.668,45.021a9.085,9.085,0,0,0-5.356,1.761,9.183,9.183,0,0,0-3.827,7.5V92.938a35.515,35.515,0,0,0,71.03,0V54.286a9.183,9.183,0,0,0-3.827-7.5,9.047,9.047,0,0,0-8.2-1.306,42.8,42.8,0,0,0-16.673,9.463,9.8,9.8,0,0,1-13.634,0h0a42.8,42.8,0,0,0-16.673-9.463A9.172,9.172,0,0,0,101.668,45.021Z"/><path d="M167.454,98.208a16.74,16.74,0,0,1-1.812-.108,2.5,2.5,0,0,1-2.227-2.662c.068-.959.1-1.754.1-2.5v-28.9a2.5,2.5,0,0,1,2.266-2.49c.624-.058,1.156-.085,1.673-.085a18.371,18.371,0,0,1,0,36.742Zm1.061-31.7V92.938c0,.076,0,.152,0,.229a13.372,13.372,0,0,0,0-26.66Z"/><path d="M88.546,98.208a18.371,18.371,0,0,1,0-36.742c.517,0,1.049.027,1.673.085a2.5,2.5,0,0,1,2.266,2.49v28.9c0,.746.032,1.541.1,2.5A2.5,2.5,0,0,1,90.358,98.1,16.74,16.74,0,0,1,88.546,98.208Zm-1.061-31.7a13.372,13.372,0,0,0,0,26.66c0-.077,0-.153,0-.229Z"/><path d="M177.5,70.053a2.5,2.5,0,0,1-1.584-.566,13.4,13.4,0,0,0-8.462-3.021c-.358,0-.741.02-1.206.064a2.5,2.5,0,0,1-2.733-2.489V54.286a9.18,9.18,0,0,0-3.827-7.5,9.045,9.045,0,0,0-8.2-1.306,42.814,42.814,0,0,0-16.674,9.463,9.791,9.791,0,0,1-13.632,0,42.814,42.814,0,0,0-16.674-9.463,9.051,9.051,0,0,0-8.2,1.306,9.18,9.18,0,0,0-3.827,7.5v9.755a2.5,2.5,0,0,1-2.733,2.489c-.465-.044-.848-.064-1.206-.064a13.285,13.285,0,0,0-7.618,2.391A2.5,2.5,0,0,1,77,66.805V39.227A19.7,19.7,0,0,1,79.306,29.8a12.6,12.6,0,0,1,6.607-6.178,7.453,7.453,0,0,0,3.463-2.388C93.557,15.754,105.737,3,128.5,3s34.943,12.754,39.124,18.237a7.453,7.453,0,0,0,3.463,2.388,12.6,12.6,0,0,1,6.607,6.178A19.7,19.7,0,0,1,180,39.227V67.553a2.5,2.5,0,0,1-2.5,2.5ZM168.515,61.5A18.412,18.412,0,0,1,175,63.091V39.227a14.71,14.71,0,0,0-1.694-7.03,7.83,7.83,0,0,0-3.94-3.877,12.367,12.367,0,0,1-5.719-4.051C159.918,19.377,149.028,8,128.5,8S97.082,19.377,93.353,24.269a12.367,12.367,0,0,1-5.719,4.051,7.83,7.83,0,0,0-3.94,3.877A14.71,14.71,0,0,0,82,39.227V62.671A18.221,18.221,0,0,1,87.485,61.5v-7.21a14.222,14.222,0,0,1,18.572-13.565,47.727,47.727,0,0,1,18.6,10.617,4.809,4.809,0,0,0,6.7,0,47.727,47.727,0,0,1,18.6-10.617,14.222,14.222,0,0,1,18.572,13.565Z"/><path d="M127.5,162a9.5,9.5,0,1,1,9.5-9.5A9.511,9.511,0,0,1,127.5,162Zm0-14a4.5,4.5,0,1,0,4.5,4.5A4.505,4.505,0,0,0,127.5,148Z"/><path d="M134.435,154.094a2.5,2.5,0,0,1-2.48-2.179,4.493,4.493,0,0,0-8.827-.459A2.5,2.5,0,0,1,119.1,152.8c-21.243-17.561-46.617-24.542-53.888-26.263a4.325,4.325,0,0,1-2.344-6.944A68.471,68.471,0,0,1,90.144,99.72a2.5,2.5,0,0,1,3.382,1.709,35.5,35.5,0,0,0,68.948,0,2.5,2.5,0,0,1,3.382-1.709A68.474,68.474,0,0,1,193.128,119.6h0a4.325,4.325,0,0,1-2.344,6.944c-7.433,1.76-33.347,8.9-54.736,26.963A2.5,2.5,0,0,1,134.435,154.094ZM127.5,143a9.514,9.514,0,0,1,8.044,4.459c20.714-16.394,44.519-23.413,53.023-25.525a63.013,63.013,0,0,0-22.049-16.472,40.5,40.5,0,0,1-77.036,0,63,63,0,0,0-22.049,16.472c8.366,2.078,31.787,8.973,52.357,25.01A9.461,9.461,0,0,1,127.5,143Zm61.754-20.242,0,0Z"/><path d="M122.455,150.174a2.5,2.5,0,0,1-2.463-2.069,143.636,143.636,0,0,1-1.785-17.757,2.5,2.5,0,0,1,2.98-2.565,35.227,35.227,0,0,0,12.686.175,2.5,2.5,0,0,1,2.912,2.58,143.488,143.488,0,0,1-1.774,17.55,2.5,2.5,0,0,1-4.269,1.3,4.461,4.461,0,0,0-6.478.013A2.5,2.5,0,0,1,122.455,150.174Zm.909-16.994c.229,3.713.561,7.209.985,10.357a9.689,9.689,0,0,1,6.3,0c.419-3.117.75-6.577.978-10.245A39.936,39.936,0,0,1,123.364,133.18Z"/><path d="M50.784,208.216a5.077,5.077,0,0,1-5.073-5.376l1.651-28.074a28.5,28.5,0,0,1,21.977-26.2l38.277-9.113a2.5,2.5,0,0,1,1.907.314,120.808,120.808,0,0,1,12.766,9.187,2.5,2.5,0,0,1,.84,2.5A4.436,4.436,0,0,0,123,152.5a4.513,4.513,0,0,0,3.867,4.448,2.5,2.5,0,0,1,1.355,4.306c-6.6,6.139-41.3,37.245-76.1,46.783A5.028,5.028,0,0,1,50.784,208.216Zm56.965-63.658L70.5,153.428A23.524,23.524,0,0,0,52.354,175.06L50.7,203.134l.095.081c30.179-8.272,60.536-33.545,71.156-43.019A9.523,9.523,0,0,1,118,152.5c0-.192.006-.386.019-.581A116.657,116.657,0,0,0,107.749,144.558Z"/><path d="M205.216,208.216a5.028,5.028,0,0,1-1.336-.179c-34.79-9.536-70.294-40.629-77.058-46.766a2.5,2.5,0,0,1,1.324-4.326A4.513,4.513,0,0,0,132,152.5a4.615,4.615,0,0,0-.044-.58,2.5,2.5,0,0,1,.866-2.236,120.124,120.124,0,0,1,13.651-9.92,2.5,2.5,0,0,1,1.907-.315l38.281,9.114a28.5,28.5,0,0,1,21.977,26.2l1.651,28.074a5.077,5.077,0,0,1-5.073,5.376ZM133.1,160.157c10.855,9.466,41.888,34.776,72.1,43.058l.095-.081-1.651-28.074h0A23.524,23.524,0,0,0,185.5,153.428l-37.256-8.87A115.546,115.546,0,0,0,137,152.712,9.533,9.533,0,0,1,133.1,160.157Z"/><path d="M201.816,256H54.184a8.429,8.429,0,0,1-8.416-8.9l1.972-41.561a2.5,2.5,0,0,1,3.03-2.325c33.7-9.231,67.594-39.625,74.047-45.624a2.515,2.515,0,0,1,2.052-.644,3.751,3.751,0,0,0,1.277,0,2.5,2.5,0,0,1,2.037.623c6.615,6,41.318,36.41,75.019,45.647a2.523,2.523,0,0,1,3.057,2.326l1.974,41.582A8.429,8.429,0,0,1,201.816,256ZM52.634,207.9,50.761,247.36A3.429,3.429,0,0,0,54.184,251H201.816a3.429,3.429,0,0,0,3.424-3.62L203.365,207.9c-33.416-9.362-67.357-38.393-75.736-45.9-.071,0-.14,0-.215,0C119.2,169.533,86.025,198.538,52.634,207.9Z"/><path d="M76,255.347a2.5,2.5,0,0,1-2.5-2.5V205.4a2.5,2.5,0,0,1,5,0v47.45A2.5,2.5,0,0,1,76,255.347Z"/><path d="M180,255.347a2.5,2.5,0,0,1-2.5-2.5V205.4a2.5,2.5,0,0,1,5,0v47.45A2.5,2.5,0,0,1,180,255.347Z"/><path d="M177.5,70.053a2.5,2.5,0,0,1-1.584-.566,13.4,13.4,0,0,0-8.462-3.021c-.358,0-.741.02-1.206.064a2.5,2.5,0,0,1-2.733-2.489V54.286a9.2,9.2,0,0,0-2.5-6.309,2.5,2.5,0,0,1,.84-4.007l14.662-6.283a2.5,2.5,0,0,1,3.484,2.3V67.553a2.5,2.5,0,0,1-2.5,2.5ZM168.515,61.5A18.412,18.412,0,0,1,175,63.091V43.776l-8.3,3.558a14.156,14.156,0,0,1,1.817,6.952Z"/><path d="M79.5,69.305a2.5,2.5,0,0,1-2.5-2.5V39.985a2.5,2.5,0,0,1,3.484-2.3l13.954,5.98a2.5,2.5,0,0,1,.78,4.07,9.183,9.183,0,0,0-2.733,6.549v9.755a2.5,2.5,0,0,1-2.733,2.489c-.465-.044-.848-.064-1.206-.064a13.285,13.285,0,0,0-7.618,2.391A2.5,2.5,0,0,1,79.5,69.305ZM82,43.776V62.671A18.221,18.221,0,0,1,87.485,61.5v-7.21a14.126,14.126,0,0,1,2.013-7.3Z"/><path d="M177.5,70.053a2.5,2.5,0,0,1-1.584-.566,13.4,13.4,0,0,0-8.462-3.021c-.358,0-.741.02-1.206.064a2.5,2.5,0,0,1-2.733-2.489V56.219a2.5,2.5,0,0,1,1.515-2.3L176.516,49A2.5,2.5,0,0,1,180,51.3V67.553a2.5,2.5,0,0,1-2.5,2.5ZM168.515,61.5A18.412,18.412,0,0,1,175,63.091v-8l-6.485,2.779Z"/><path d="M79.5,69.305a2.5,2.5,0,0,1-2.5-2.5V51.3A2.5,2.5,0,0,1,80.484,49L90.97,53.492a2.5,2.5,0,0,1,1.515,2.3v8.251a2.5,2.5,0,0,1-2.733,2.489c-.465-.044-.848-.064-1.206-.064a13.285,13.285,0,0,0-7.618,2.391A2.5,2.5,0,0,1,79.5,69.305ZM82,55.088v7.583A18.221,18.221,0,0,1,87.485,61.5V57.438Z"/><path d="M110.5,85a8,8,0,1,1,8-8A8.009,8.009,0,0,1,110.5,85Zm0-11a3,3,0,1,0,3,3A3,3,0,0,0,110.5,74Z"/><path d="M145.5,85a8,8,0,1,1,8-8A8.009,8.009,0,0,1,145.5,85Zm0-11a3,3,0,1,0,3,3A3,3,0,0,0,145.5,74Z"/><path d="M134.5,256h-14a2.5,2.5,0,0,1-2.5-2.5V164.791a2.5,2.5,0,0,1,.868-1.9c2.9-2.5,4.973-4.4,5.949-5.3a2.515,2.515,0,0,1,2.052-.644,3.751,3.751,0,0,0,1.277,0,2.5,2.5,0,0,1,2.038.624c.967.878,3.024,2.718,5.928,5.171a2.5,2.5,0,0,1,.888,1.91V253.5A2.5,2.5,0,0,1,134.5,256ZM123,251h9V165.808c-1.884-1.6-3.37-2.914-4.37-3.809-.07,0-.144,0-.216,0-1.008.923-2.509,2.277-4.414,3.933Z"/><path d="M139.9,118.989a3.423,3.423,0,0,1-3.3-2.455l-3.327-11.085a2.5,2.5,0,0,1,1.766-3.139,28.05,28.05,0,0,0,9.023-4.163,2.5,2.5,0,0,1,3.824,2.77L143.2,116.534A3.423,3.423,0,0,1,139.9,118.989ZM138.776,106.4l1.121,3.735,1.42-4.733Q140.068,105.954,138.776,106.4Z"/><path d="M115.791,118.989a3.425,3.425,0,0,1-3.3-2.455l-4.771-15.9a2.5,2.5,0,0,1,3.856-2.747,28.1,28.1,0,0,0,9.121,4.355,2.5,2.5,0,0,1,1.742,3.132l-3.348,11.159A3.425,3.425,0,0,1,115.791,118.989Zm-1.468-13.746,1.468,4.891,1.149-3.831Q115.61,105.831,114.323,105.243Z"/></svg>