<svg xmlns="http://www.w3.org/2000/svg" viewBox="0 0 256 256"><title>icon</title><path d="M157.4,76.754c-6.1-6.041-12.043-6.121-14.05-20.4,0,0-2.254,11.243-28.1,18.364C92.213,81.06,92.576,97.159,92.576,97.159v6.374c0,19.523,15.712,35.5,34.916,35.5h0c19.2,0,34.917-15.973,34.917-35.5v-12.5S162.779,82.084,157.4,76.754Z" fill="#f9d0b4"/><path d="M201.238,247.615l-3.329-71.291a13.954,13.954,0,0,0-10.394-12.805l-24.31-6.22a27,27,0,0,1-3.14-1.02c-2.157-.845-2.326-1.076-13.223-6.493a5.032,5.032,0,0,1-2.756-4.506V134.736a34.163,34.163,0,0,1-16.594,4.293h0a34.128,34.128,0,0,1-15.578-3.762V145.28a5.032,5.032,0,0,1-2.756,4.506c-10.664,5.3-11.067,5.648-13.223,6.492A26.812,26.812,0,0,1,92.8,157.3l-24.31,6.22a13.954,13.954,0,0,0-10.394,12.805l-3.329,71.291a5.5,5.5,0,0,0,5.437,5.843H195.8A5.5,5.5,0,0,0,201.238,247.615Z" fill="#f9d0b4"/><path d="M176.705,67.777c-2.9-23.009-13.027-31.2-20.474-34.1-5.15-2.183-10.458-.91-12.667-.192a2.2,2.2,0,0,1-2.014-.365C128.309,23.151,102.107,25.079,84.9,51c-18.135,27.312,5.529,70.743,2.59,107.658l5.233-1.339a26.611,26.611,0,0,0,2.77-.869A28.245,28.245,0,0,0,98.2,155.28l10.96-5.494a5.034,5.034,0,0,0,2.756-4.506V135.267h0a35.655,35.655,0,0,1-19.339-31.734V97.159s-.363-16.1,22.672-22.445c25.846-7.121,28.1-18.364,28.1-18.364,2.007,14.283,7.95,14.363,14.05,20.4,5.381,5.33,5.011,14.283,5.011,14.283v12.5a35.675,35.675,0,0,1-18.329,31.206l.006,0V145.28a5.032,5.032,0,0,0,2.756,4.506l10.96,5.493a27.978,27.978,0,0,0,2.706,1.169,26.519,26.519,0,0,0,2.769.869l5.112,1.309,2.486.636C170.018,130.347,179.572,90.507,176.705,67.777Z" fill="#b77035"/><path d="M176.861,253.458V205.819c-5.374-8.687-16.1-14.616-28.463-14.616a36.541,36.541,0,0,0-15.592,3.42,11.205,11.205,0,0,1-9.612,0A36.541,36.541,0,0,0,107.6,191.2c-12.363,0-23.089,5.929-28.463,14.616v47.639Z" fill="#70d6f9"/><path d="M148.4,191.2a36.541,36.541,0,0,0-15.592,3.42,11.205,11.205,0,0,1-9.612,0A36.541,36.541,0,0,0,107.6,191.2c-12.363,0-23.089,5.929-28.463,14.616v17.244c4.281-1.729,8.726-8.729,14.736-9.288,5.167-.481,11.32,6.539,17.359,6.294,5.383-.219,10.908-7.745,16.766-7.745s11.386,7.526,16.77,7.745c6.037.245,12.188-6.774,17.354-6.294,6.01.559,10.456,7.559,14.737,9.288V205.819C171.487,197.132,160.761,191.2,148.4,191.2Z" fill="#9be5f9"/><path d="M192.551,20.158a4.879,4.879,0,0,0,0,6.9l17.292,17.292a4.88,4.88,0,0,0,6.9-6.9L199.453,20.158A4.88,4.88,0,0,0,192.551,20.158Z" fill="#edb311"/><path d="M215.9,23.818c1.751-4.975,5.443-17.769-2.358-19.069-8.35-1.392-11.311,13.369-11.976,17.526l15.174,15.174c.033.033.055.073.087.107,2.787-1.226,11.2-5.383,7.232-9.347-1.057-1.057-4.532-1.769-6.814-2.135A1.709,1.709,0,0,1,215.9,23.818Z" fill="#fcdd86"/><path d="M209.843,44.351,194.668,29.176c-4.156.665-18.917,3.626-17.525,11.977,1.3,7.8,14.093,4.109,19.068,2.358a1.707,1.707,0,0,1,2.256,1.345c.367,2.282,1.079,5.756,2.136,6.814,3.964,3.964,8.12-4.446,9.346-7.232C209.915,44.406,209.876,44.384,209.843,44.351Z" fill="#fcdd86"/><path d="M58.091,176.324a13.954,13.954,0,0,1,10.394-12.805l19.055-4.875-.052.013a102.485,102.485,0,0,0-.386-18.44C67.435,121.193,41.39,99.005,21.443,93.935c-9.838-2.5-19.161,5.7-18.939,16.283.256,12.214,2.878,30.479,13.917,48.193a21.972,21.972,0,0,1,3.2,12.067c-.285,14.1,2.28,45.44,30.71,45.56,1.97.008,3.942-.024,5.912-.072Z" fill="#9be5f9"/><path d="M253.5,110.218c.222-10.583-9.1-18.784-18.939-16.283-19.016,4.833-43.572,25.223-62.863,43.6a193.6,193.6,0,0,0-.819,21.728l16.64,4.257a13.954,13.954,0,0,1,10.394,12.805l1.851,39.642c1.97.048,3.942.08,5.912.072,28.43-.12,31-31.462,30.71-45.56a21.972,21.972,0,0,1,3.2-12.067C250.618,140.7,253.24,122.432,253.5,110.218Z" fill="#9be5f9"/><path d="M87.1,140.217C67.435,121.193,41.391,99.005,21.443,93.935c-9.838-2.5-19.161,5.7-18.939,16.283a101.291,101.291,0,0,0,1.471,15.14c14.9-27.2,62.293,8.021,83.767,26.093C87.722,147.748,87.486,144,87.1,140.217Z" fill="#70d6f9"/><path d="M234.557,93.935c-19.016,4.833-43.572,25.223-62.863,43.6-.338,3.976-.6,7.883-.743,11.676,22.515-18.544,66.773-49.961,81.074-23.851a101.291,101.291,0,0,0,1.471-15.14C253.718,99.635,244.4,91.434,234.557,93.935Z" fill="#70d6f9"/><ellipse cx="33.5" cy="141.632" rx="7.096" ry="11.031" transform="translate(-109.114 112.598) rotate(-65.185)" fill="#70d6f9"/><ellipse cx="222.5" cy="141.632" rx="11.031" ry="7.096" transform="translate(-38.898 106.458) rotate(-24.815)" fill="#70d6f9"/><path d="M61.372,82.6H59.106V80.33a3.071,3.071,0,0,0-6.142,0V82.6H50.7a3.071,3.071,0,1,0,0,6.142h2.265V91a3.071,3.071,0,0,0,6.142,0V88.738h2.266a3.071,3.071,0,0,0,0-6.142Z" fill="#ef4460"/><path d="M213.857,69.64a10.8,10.8,0,0,1-8.654-8.479.2.2,0,0,0-.384,0,10.8,10.8,0,0,1-8.654,8.479.19.19,0,0,0,0,.376,10.794,10.794,0,0,1,8.654,8.478.2.2,0,0,0,.384,0,10.8,10.8,0,0,1,8.654-8.478A.19.19,0,0,0,213.857,69.64Z" fill="#f5c84c"/><circle cx="33.019" cy="77.285" r="3.285" fill="#f5c84c"/><circle cx="218.019" cy="231.285" r="3.285" fill="#87d147"/><circle cx="159.019" cy="10.285" r="3.285" fill="#ef4460"/><circle cx="190.019" cy="89.285" r="3.285" fill="#70d6f9"/><path d="M127.492,141.529c-20.631,0-37.416-17.045-37.416-38V97.159c-.016-.681-.123-18.07,24.508-24.855,23.619-6.508,26.3-16.4,26.323-16.5a2.495,2.495,0,0,1,4.916.193c1.352,9.621,4.355,11.863,8.51,14.967a43.364,43.364,0,0,1,4.824,4.01c5.917,5.86,5.781,15.185,5.752,16.1v12.452C164.909,124.484,148.124,141.529,127.492,141.529ZM142.261,63.1c-3.7,4.27-11.209,9.851-26.349,14.022C95,82.885,95.072,96.961,95.075,97.1v6.432c0,18.193,14.542,32.994,32.416,32.994s32.417-14.8,32.417-33v-12.5c0-.035,0-.069,0-.1,0-.073.236-7.937-4.273-12.4a38.912,38.912,0,0,0-4.3-3.556C147.771,72.307,144.355,69.756,142.261,63.1Z"/><path d="M195.8,255.958H60.2a7.832,7.832,0,0,1-5.739-2.478,8.121,8.121,0,0,1-2.194-6l3.328-71.27A16.384,16.384,0,0,1,67.866,161.1l24.31-6.221a24.363,24.363,0,0,0,2.847-.927,49.549,49.549,0,0,0,4.779-2.271c1.747-.883,4.292-2.168,8.243-4.132a2.543,2.543,0,0,0,1.369-2.267V135.267a2.5,2.5,0,0,1,3.638-2.226,31.452,31.452,0,0,0,14.44,3.488,31.844,31.844,0,0,0,15.383-3.98,2.5,2.5,0,0,1,3.711,2.187V145.28a2.544,2.544,0,0,0,1.376,2.27c4.055,2.016,6.628,3.316,8.37,4.2a47.025,47.025,0,0,0,4.645,2.2,24.374,24.374,0,0,0,2.847.927l24.31,6.221a16.378,16.378,0,0,1,12.271,15.09l3.33,71.3a8.117,8.117,0,0,1-2.2,5.99A7.834,7.834,0,0,1,195.8,255.958ZM114.414,139.117v6.163a7.486,7.486,0,0,1-4.137,6.741c-3.944,1.96-6.479,3.241-8.221,4.121a53.2,53.2,0,0,1-5.21,2.464,29.633,29.633,0,0,1-3.431,1.115l-24.31,6.22a11.4,11.4,0,0,0-8.518,10.52l-3.328,71.27a3.07,3.07,0,0,0,.832,2.312,2.882,2.882,0,0,0,2.108.915H195.8a2.879,2.879,0,0,0,2.108-.916,3.053,3.053,0,0,0,.833-2.29v-.021l-3.329-71.29a11.4,11.4,0,0,0-8.517-10.5l-24.31-6.22a29.6,29.6,0,0,1-3.432-1.115,50.6,50.6,0,0,1-5.075-2.4c-1.736-.877-4.3-2.172-8.349-4.185a7.488,7.488,0,0,1-4.143-6.744v-6.567a36.843,36.843,0,0,1-14.094,2.816A36.3,36.3,0,0,1,114.414,139.117Z"/><path d="M79.139,254.781a2.5,2.5,0,0,1-2.5-2.5v-55.2a2.5,2.5,0,0,1,5,0v55.2A2.5,2.5,0,0,1,79.139,254.781Z"/><path d="M176.861,254.781a2.5,2.5,0,0,1-2.5-2.5v-55.2a2.5,2.5,0,0,1,5,0v55.2A2.5,2.5,0,0,1,176.861,254.781Z"/><path d="M170.875,161.762a2.506,2.506,0,0,1-.619-.078l-7.6-1.945a29.089,29.089,0,0,1-3.031-.951,30.855,30.855,0,0,1-2.945-1.274l-10.959-5.493a7.488,7.488,0,0,1-4.136-6.741V134.918a2.5,2.5,0,0,1,1.284-2.367,33.137,33.137,0,0,0,17.039-29.018v-12.5c0-.035,0-.069,0-.1,0-.073.236-7.937-4.273-12.4a38.912,38.912,0,0,0-4.3-3.556c-3.571-2.667-6.987-5.219-9.081-11.872-3.7,4.27-11.209,9.851-26.349,14.022C95,82.885,95.072,96.961,95.075,97.1v6.432a32.957,32.957,0,0,0,17.977,29.506,2.5,2.5,0,0,1,1.362,2.226V145.28a7.486,7.486,0,0,1-4.137,6.741l-10.959,5.494a31.056,31.056,0,0,1-2.946,1.274,29.231,29.231,0,0,1-3.032.951l-5.232,1.339A2.5,2.5,0,0,1,85,158.458c1.136-14.272-1.848-29.8-4.734-44.819-4.613-24-8.97-46.669,2.553-64.023,8.779-13.222,20.849-21.743,33.986-23.994,9.766-1.674,19.292.306,26.16,5.429,2.458-.774,8.414-2.149,14.246.322,8.323,3.24,18.96,12.159,21.979,36.091,1.565,12.413-.429,29.344-2.54,47.267-1.8,15.306-3.667,31.131-3.271,44.457a2.5,2.5,0,0,1-2.5,2.574Zm-24.289-25.586v9.1a2.549,2.549,0,0,0,1.376,2.271l10.96,5.493a25.425,25.425,0,0,0,2.466,1.064,24.3,24.3,0,0,0,2.508.788l4.426,1.132C168.27,143.1,170,128.4,171.68,114.147c2.074-17.613,4.034-34.249,2.545-46.057h0C171.515,46.6,162.451,38.779,155.324,36c-4.487-1.9-9.175-.732-10.987-.143a4.725,4.725,0,0,1-4.292-.747c-5.778-4.349-13.945-6.012-22.4-4.564C105.88,32.566,94.989,40.319,86.98,52.381,76.588,68.033,80.757,89.727,85.172,112.7c2.722,14.164,5.53,28.772,5.01,42.692L92.1,154.9a24.089,24.089,0,0,0,2.511-.788,25.318,25.318,0,0,0,2.466-1.064l10.96-5.493a2.547,2.547,0,0,0,1.376-2.271v-8.518a37.94,37.94,0,0,1-19.338-33.229V97.159c-.016-.681-.123-18.07,24.508-24.855,23.7-6.529,26.293-16.348,26.312-16.446a2.5,2.5,0,0,1,4.927.143c1.352,9.621,4.355,11.863,8.51,14.967a43.364,43.364,0,0,1,4.824,4.01c5.916,5.86,5.781,15.184,5.752,16.1v12.452A38.153,38.153,0,0,1,146.586,136.176Z"/><path d="M80.768,63.978a2.5,2.5,0,0,1-1.463-4.529,89.031,89.031,0,0,1,96.445-4.874,2.5,2.5,0,1,1-2.5,4.328,84.03,84.03,0,0,0-91.021,4.6A2.485,2.485,0,0,1,80.768,63.978Z"/><path d="M50.966,218.54l-.649,0c-8.814-.038-16.06-2.9-21.538-8.516-10.622-10.884-11.865-29.479-11.661-39.594A19.391,19.391,0,0,0,14.3,159.733C2.959,141.538.267,122.792,0,110.27a19.319,19.319,0,0,1,7.16-15.487,17.037,17.037,0,0,1,14.9-3.271C38.519,95.7,60.987,111.478,88.84,138.42a2.5,2.5,0,0,1,.749,1.544,105.261,105.261,0,0,1,.421,18.514,2.47,2.47,0,0,1-1.85,2.587l-19.055,4.876a11.4,11.4,0,0,0-8.517,10.511l-1.851,39.631a2.5,2.5,0,0,1-2.435,2.382C54.271,218.516,52.555,218.54,50.966,218.54Zm5.274-2.574h0ZM17.892,95.989A12.227,12.227,0,0,0,10.274,98.7,14.3,14.3,0,0,0,5,110.166c.249,11.894,2.8,29.691,13.539,46.923a24.367,24.367,0,0,1,3.575,13.44c-.188,9.333.891,26.421,10.241,36,4.507,4.619,10.557,6.977,17.98,7.008,1.094.007,2.242,0,3.514-.023l1.742-37.307v-.02A16.378,16.378,0,0,1,67.866,161.1l17.25-4.415a101.506,101.506,0,0,0-.412-15.306c-26.909-25.939-48.4-41.085-63.876-45.02A11.96,11.96,0,0,0,17.892,95.989Z"/><path d="M205.034,218.54c-1.589,0-3.3-.024-5.336-.075a2.5,2.5,0,0,1-2.435-2.382l-1.851-39.642a11.4,11.4,0,0,0-8.517-10.5l-16.639-4.257a2.5,2.5,0,0,1-1.88-2.348,195.245,195.245,0,0,1,.827-22.014,2.5,2.5,0,0,1,.767-1.6c26.557-25.3,48.08-40.173,63.971-44.212a17.038,17.038,0,0,1,14.9,3.271A19.319,19.319,0,0,1,256,110.27l-2.5-.052,2.5.052c-.263,12.522-2.955,31.268-14.3,49.463a19.391,19.391,0,0,0-2.819,10.695c.2,10.115-1.039,28.71-11.661,39.594-5.478,5.614-12.724,8.478-21.538,8.516Zm-2.886-5.025c1.272.02,2.421.028,3.514.023,7.423-.031,13.473-2.389,17.98-7.008,9.35-9.58,10.429-26.668,10.241-36a24.367,24.367,0,0,1,3.575-13.44C248.2,139.857,250.748,122.06,251,110.166A14.3,14.3,0,0,0,245.726,98.7a12.084,12.084,0,0,0-10.554-2.341c-14.915,3.792-35.457,18.033-61.066,42.333-.591,7.2-.845,13.321-.772,18.62l14.8,3.788a16.378,16.378,0,0,1,12.271,15.09Z"/><path d="M25.412,203.6h0a2.5,2.5,0,0,1-2.5-2.5C22.932,182.37,40.127,177.1,40.3,177.05a2.5,2.5,0,0,1,1.417,4.795c-.575.173-13.79,4.334-13.806,19.254A2.5,2.5,0,0,1,25.412,203.6Z"/><path d="M57.154,186.926a2.54,2.54,0,0,1-.414-.034,64.7,64.7,0,0,1-41.254-25.02,2.5,2.5,0,1,1,4.057-2.922,59.572,59.572,0,0,0,38.019,23.01,2.5,2.5,0,0,1-.408,4.966Z"/><path d="M230.588,203.6a2.5,2.5,0,0,1-2.5-2.5c-.016-15.028-13.661-19.212-13.8-19.252a2.5,2.5,0,0,1,1.41-4.8c.174.051,17.369,5.32,17.389,24.043a2.5,2.5,0,0,1-2.5,2.5Z"/><path d="M199.12,186.88a2.5,2.5,0,0,1-.418-4.965,59.574,59.574,0,0,0,37.755-22.966,2.5,2.5,0,1,1,4.057,2.923,64.712,64.712,0,0,1-40.97,24.972A2.546,2.546,0,0,1,199.12,186.88Z"/><path d="M213.293,48.277a7.355,7.355,0,0,1-5.218-2.158L190.784,28.827A7.38,7.38,0,0,1,201.22,18.39l17.292,17.292a7.377,7.377,0,0,1-5.219,12.6ZM196,21.229a2.38,2.38,0,0,0-1.683,4.063L211.61,42.583a2.38,2.38,0,1,0,3.367-3.366L197.685,21.925A2.374,2.374,0,0,0,196,21.229Z"/><path d="M216.832,40.056a2.5,2.5,0,0,1-1.821-.786c-.034-.037-.078-.088-.121-.14L199.8,24.042a2.5,2.5,0,0,1-.7-2.163c.658-4.112,2.777-14.1,8.232-18.024a8.682,8.682,0,0,1,6.625-1.571A7.529,7.529,0,0,1,219.4,5.922c2.688,4.548,1.118,12.04-.829,17.84,5.58,1,6.793,2.209,7.264,2.68a5.343,5.343,0,0,1,1.686,4.924c-.713,3.8-5.657,6.708-9.679,8.478A2.49,2.49,0,0,1,216.832,40.056ZM204.254,21.423l13.118,13.119c3.557-1.783,5.1-3.415,5.231-4.1.024-.131-.274-.433-.308-.467-.289-.221-1.857-.859-5.442-1.435a4.207,4.207,0,0,1-3.307-5.554h0c2.332-6.625,2.924-12.19,1.546-14.523a2.554,2.554,0,0,0-1.956-1.25,3.65,3.65,0,0,0-2.884.7C207.276,10.055,205.25,16.079,204.254,21.423Zm11.65,2.4h0Z"/><path d="M202.792,55.214a5.492,5.492,0,0,1-3.957-1.777c-.734-.734-1.792-2.286-2.68-7.263-5.8,1.947-13.288,3.518-17.839.829a7.533,7.533,0,0,1-3.639-5.439,8.685,8.685,0,0,1,1.572-6.624c3.923-5.455,13.912-7.574,18.024-8.232a2.5,2.5,0,0,1,2.163.7L211.525,42.5c.057.047.113.1.152.133a2.5,2.5,0,0,1,.56,2.814c-1.769,4.022-4.676,8.966-8.478,9.679A5.31,5.31,0,0,1,202.792,55.214Zm-.386-5.274s.285.277.431.269c.684-.128,2.316-1.673,4.1-5.23L193.817,31.861c-5.344,1-11.368,3.022-13.509,6a3.643,3.643,0,0,0-.7,2.883,2.554,2.554,0,0,0,1.251,1.957c2.334,1.378,7.9.786,14.522-1.546a4.209,4.209,0,0,1,5.555,3.307c.576,3.585,1.213,5.152,1.47,5.48Z"/><path d="M195.685,20.824a2.491,2.491,0,0,1-2.034-1.044c-6.106-8.521-1.908-17.926-1.726-18.322a2.5,2.5,0,0,1,4.549,2.075c-.138.308-3.141,7.218,1.241,13.335a2.5,2.5,0,0,1-2.03,3.956Z"/><path d="M190.716,25.79a2.487,2.487,0,0,1-1.454-.468c-6.19-4.435-13.256-1.278-13.326-1.246a2.5,2.5,0,1,1-2.084-4.545c.4-.181,9.8-4.38,18.322,1.726a2.5,2.5,0,0,1-1.458,4.533Z"/><path d="M127.538,122.992a22.741,22.741,0,0,1-14.051-5.093,2.5,2.5,0,0,1,3.083-3.936,16.926,16.926,0,0,0,21.923,0,2.5,2.5,0,0,1,3.083,3.936A22.722,22.722,0,0,1,127.538,122.992Z"/><path d="M146.513,98.511a2.5,2.5,0,0,1-2.5-2.5,1.849,1.849,0,1,0-3.695,0,2.5,2.5,0,0,1-5,0,6.848,6.848,0,1,1,13.695,0A2.5,2.5,0,0,1,146.513,98.511Z"/><path d="M118.182,98.511a2.5,2.5,0,0,1-2.5-2.5,1.849,1.849,0,1,0-3.7,0,2.5,2.5,0,0,1-5,0,6.848,6.848,0,1,1,13.7,0A2.5,2.5,0,0,1,118.182,98.511Z"/><path d="M87.742,153.951a2.5,2.5,0,0,1-1.61-.587c-14.027-11.806-48.811-38.86-68.843-35.11A15.361,15.361,0,0,0,6.167,126.56a2.5,2.5,0,0,1-4.656-.774A104.052,104.052,0,0,1,0,110.271a19.32,19.32,0,0,1,7.16-15.488,17.037,17.037,0,0,1,14.9-3.271C38.519,95.7,60.987,111.478,88.84,138.42a2.5,2.5,0,0,1,.749,1.544c.42,4.13.633,7.883.653,11.474a2.5,2.5,0,0,1-2.5,2.513ZM21.189,112.913c19.585,0,46.6,19.028,63.873,33.076-.087-1.487-.207-3.02-.358-4.612-26.909-25.939-48.4-41.085-63.876-45.02A12.094,12.094,0,0,0,10.274,98.7,14.3,14.3,0,0,0,5,110.166c.062,2.921.258,5.865.586,8.8a19.918,19.918,0,0,1,10.78-5.629A26.122,26.122,0,0,1,21.189,112.913Z"/><path d="M170.951,151.709a2.5,2.5,0,0,1-2.5-2.595c.138-3.627.383-7.484.75-11.793a2.5,2.5,0,0,1,.767-1.6c26.557-25.3,48.08-40.172,63.971-44.211h0a17.036,17.036,0,0,1,14.9,3.271A19.319,19.319,0,0,1,256,110.27a104.053,104.053,0,0,1-1.507,15.516,2.5,2.5,0,0,1-4.656.773,15.356,15.356,0,0,0-11.024-8.286c-7.977-1.54-27.2.686-66.268,32.866A2.5,2.5,0,0,1,170.951,151.709Zm3.155-13.02c-.144,1.753-.267,3.429-.37,5.045,35.836-28.568,55.636-32.369,66.018-30.371a19.9,19.9,0,0,1,10.657,5.606c.328-2.938.524-5.882.586-8.8A14.3,14.3,0,0,0,245.726,98.7a12.082,12.082,0,0,0-10.554-2.341C220.257,100.149,199.714,114.39,174.106,138.689Z"/><path d="M36.927,152.061a17.972,17.972,0,0,1-7.3-1.648c-6.9-3.118-10.618-9.41-8.468-14.325h0a7.8,7.8,0,0,1,4.523-4.125c3.29-1.266,7.66-.933,11.693.889,6.9,3.118,10.618,9.41,8.468,14.326A7.8,7.8,0,0,1,41.32,151.3,12.267,12.267,0,0,1,36.927,152.061Zm-11.188-13.97c-.875,2,1.482,5.748,5.947,7.765,2.8,1.265,5.8,1.563,7.839.779a2.9,2.9,0,0,0,1.736-1.462c.875-2-1.482-5.748-5.947-7.765-2.8-1.264-5.8-1.562-7.839-.779a2.9,2.9,0,0,0-1.736,1.462Z"/><path d="M219.073,152.061a12.267,12.267,0,0,1-4.393-.759,7.8,7.8,0,0,1-4.522-4.126c-2.15-4.915,1.57-11.207,8.468-14.325,4.032-1.822,8.4-2.155,11.694-.889a7.8,7.8,0,0,1,4.522,4.125h0c2.15,4.916-1.57,11.208-8.468,14.326A17.972,17.972,0,0,1,219.073,152.061ZM225.93,136.2a13.017,13.017,0,0,0-5.244,1.211c-4.465,2.017-6.822,5.763-5.947,7.765a2.9,2.9,0,0,0,1.736,1.462c2.038.784,5.042.486,7.839-.779,4.465-2.017,6.822-5.763,5.947-7.765h0a2.9,2.9,0,0,0-1.736-1.462A7.265,7.265,0,0,0,225.93,136.2Z"/><path d="M176.861,255.958H79.139a2.5,2.5,0,0,1-2.5-2.5V205.819a2.5,2.5,0,0,1,.374-1.315c6.029-9.746,17.75-15.8,30.59-15.8a39.255,39.255,0,0,1,16.658,3.659,8.734,8.734,0,0,0,7.478,0A39.255,39.255,0,0,1,148.4,188.7c12.84,0,24.561,6.055,30.59,15.8a2.5,2.5,0,0,1,.374,1.315v47.639A2.5,2.5,0,0,1,176.861,255.958Zm-95.222-5h92.722V206.549C169.13,198.608,159.254,193.7,148.4,193.7a34.23,34.23,0,0,0-14.524,3.181,13.711,13.711,0,0,1-11.746,0A34.23,34.23,0,0,0,107.6,193.7c-10.857,0-20.733,4.905-25.964,12.846Z"/><path d="M176.861,225.563a2.5,2.5,0,0,1-.936-.182,22.585,22.585,0,0,1-5.966-4.247c-2.579-2.265-5.245-4.608-8.066-4.87-1.751-.168-4.282,1.268-6.726,2.653-3.146,1.783-6.7,3.8-10.5,3.65-3.313-.135-6.313-2.192-9.214-4.182-2.553-1.751-5.192-3.561-7.454-3.561s-4.9,1.81-7.451,3.561c-2.9,1.99-5.9,4.047-9.213,4.182-3.787.154-7.355-1.867-10.5-3.65-2.444-1.384-4.972-2.817-6.728-2.653-2.82.262-5.487,2.6-8.066,4.87a22.593,22.593,0,0,1-5.964,4.247,2.5,2.5,0,0,1-3.437-2.318V205.819a2.5,2.5,0,0,1,.374-1.315c6.029-9.746,17.75-15.8,30.59-15.8a39.255,39.255,0,0,1,16.658,3.659,8.734,8.734,0,0,0,7.478,0A39.255,39.255,0,0,1,148.4,188.7c12.84,0,24.561,6.055,30.59,15.8a2.5,2.5,0,0,1,.374,1.315v17.244a2.5,2.5,0,0,1-2.5,2.5Zm-15.252-14.312c.248,0,.5.011.746.035,4.438.412,7.874,3.429,10.9,6.091.372.327.741.65,1.1.961V206.549C169.13,198.608,159.254,193.7,148.4,193.7a34.23,34.23,0,0,0-14.524,3.181,13.711,13.711,0,0,1-11.746,0A34.23,34.23,0,0,0,107.6,193.7c-10.857,0-20.733,4.905-25.964,12.846v11.788c.361-.31.729-.633,1.1-.96,3.03-2.662,6.465-5.679,10.9-6.091,3.318-.317,6.539,1.517,9.655,3.281,2.69,1.524,5.469,3.115,7.834,3,1.874-.076,4.27-1.72,6.588-3.31,3.032-2.079,6.468-4.437,10.279-4.437s7.249,2.358,10.281,4.437c2.319,1.59,4.716,3.234,6.591,3.31,2.373.11,5.141-1.48,7.83-3C155.583,212.935,158.555,211.251,161.609,211.251Z"/></svg>