<svg xmlns="http://www.w3.org/2000/svg" viewBox="0 0 512 512"><g id="Grim_reaper"><path d="M376.62,221.5509a48.2957,48.2957,0,0,0-47.4927-39.9347H182.8811a48.2957,48.2957,0,0,0-47.4927,39.9347A122.0167,122.0167,0,0,0,164.125,323.7781v23.114c0,19.4269,13.33,36.0894,31.71,39.6142a39.5542,39.5542,0,0,0,32.7356-8.28c.41-.3333.8032-.675,1.1963-1.0254a39.3015,39.3015,0,0,0,52.4744,0c.3845.3461.7861.6879,1.1877,1.0211a39.4941,39.4941,0,0,0,32.7441,8.2843c18.38-3.529,31.7188-20.1916,31.7017-39.6142V323.7738A122.11,122.11,0,0,0,376.62,221.5509Zm-51.3293,88a13.1362,13.1362,0,0,0-3.6658,9.1v28.25c.0085,6.742-4.46,12.6892-10.3906,13.8257a13.1634,13.1634,0,0,1-15.8594-12.86,13.125,13.125,0,1,0-26.25,0,13.125,13.125,0,0,1-26.25,0,13.125,13.125,0,1,0-26.25,0,13.1555,13.1555,0,0,1-15.8508,12.86c-5.93-1.1365-10.3992-7.0837-10.3992-13.8342V318.6554a13.1365,13.1365,0,0,0-3.6658-9.1,95.7872,95.7872,0,0,1-25.4809-83.3813,22.0683,22.0683,0,0,1,21.6528-18.3075H329.1274A22.0685,22.0685,0,0,1,350.78,226.1737a95.8773,95.8773,0,0,1-25.49,83.3771Z"/><path d="M212.25,234.1162a37.1875,37.1875,0,1,0,37.1875,37.1875A37.2291,37.2291,0,0,0,212.25,234.1162Zm0,48.125a10.9375,10.9375,0,1,1,10.9375-10.9375A10.9476,10.9476,0,0,1,212.25,282.2412Z"/><path d="M299.75,234.1162a37.1875,37.1875,0,1,0,37.1875,37.1875A37.2291,37.2291,0,0,0,299.75,234.1162Zm0,48.125a10.9375,10.9375,0,1,1,10.9375-10.9375A10.9476,10.9476,0,0,1,299.75,282.2412Z"/><path d="M473.8186,401.665a78.573,78.573,0,0,0-44.7156-64.4031l-25.2588-11.8945,14.3641-29.6509a96.1235,96.1235,0,0,0-.0086-84.21L364.6914,100.9991a120.7566,120.7566,0,0,0-217.3743,0L93.8088,211.5106a96.0288,96.0288,0,0,0,0,84.2059l14.3641,29.6509L82.9141,337.2619A78.5862,78.5862,0,0,0,38.19,401.6565l-5.2722,63.2452a13.1276,13.1276,0,0,0,26.1646,2.179l5.2722-63.241a52.2626,52.2626,0,0,1,29.7363-42.8314l37.2644-17.547a13.1185,13.1185,0,0,0,6.2207-17.594L117.427,284.2749a69.975,69.975,0,0,1,0-61.3226l53.5083-110.5115c16.167-33.3893,47.9712-53.3246,85.0732-53.3246,37.0936,0,68.8978,19.9353,85.0647,53.3246l53.5,110.5072a69.956,69.956,0,0,1,.0085,61.3269l-20.14,41.5924a13.1185,13.1185,0,0,0,6.2207,17.594l37.2644,17.547A52.2536,52.2536,0,0,1,447.6541,403.84l5.2636,63.241a13.13,13.13,0,0,0,13.0652,12.0355c.3674,0,.7349-.0128,1.1023-.047a13.125,13.125,0,0,0,11.9971-14.1675Z"/></g></svg>