<svg xmlns="http://www.w3.org/2000/svg" viewBox="0 0 256 256"><title>icon</title><path d="M215.383,141.77a15.541,15.541,0,0,0-19.422-5.339c-27.752,0-13.861-25.214-25.6-49.764S128,71.4,128,71.4s21.182,27.383,39.641,25.017v21.544a40.4,40.4,0,0,1-1.59,11.213v0c7.433,24.361,30.358,19.4,30.358,19.4s7.471,4.27,13.875,0l4.21-2.806A2.962,2.962,0,0,0,215.383,141.77Z" fill="#87d147"/><path d="M175.756,40.1l4.209,2.806c6.405,4.27,13.876,0,13.876,0s8.539,13.876-5.337,21.348a89.281,89.281,0,0,0-14.925,9.741,31.188,31.188,0,0,1,8.762,9.411,36.312,36.312,0,0,1,10.433-6.344c27.751-11.741,16.01-36.29,16.01-36.29-3.772-8.8-9-9.829-11.449-9.775a7.332,7.332,0,0,1-3.03-.637A15.633,15.633,0,0,0,174.868,36.1,2.962,2.962,0,0,0,175.756,40.1Z" fill="#87d147"/><path d="M80.244,40.1l-4.209,2.806c-6.405,4.27-13.876,0-13.876,0S53.62,56.781,67.5,64.253a89.281,89.281,0,0,1,14.925,9.741,31.188,31.188,0,0,0-8.762,9.411,36.312,36.312,0,0,0-10.433-6.344c-27.751-11.741-16.01-36.29-16.01-36.29,3.772-8.8,9-9.829,11.449-9.775a7.332,7.332,0,0,0,3.03-.637A15.633,15.633,0,0,1,81.132,36.1,2.962,2.962,0,0,1,80.244,40.1Z" fill="#87d147"/><path d="M182.049,43.981a11.019,11.019,0,0,1-2.084-1.076L175.756,40.1a2.962,2.962,0,0,1-.888-4,14.288,14.288,0,0,1,3.513-3.791c-3.54-5.924-7.748-6.7-9.864-6.65a7.353,7.353,0,0,1-3.031-.638,15.633,15.633,0,0,0-19.437,5.742,2.962,2.962,0,0,0,.888,4l4.21,2.807c6.4,4.269,13.875,0,13.875,0,4.373,4.722,5.65,12.625-7.471,20.28q-2.023,1.179-3.846,2.437a43.455,43.455,0,0,1,9.439,8.085,21.573,21.573,0,0,1,2.946-1.984C179.023,58.484,182.277,50.583,182.049,43.981Z" fill="#87d147"/><path d="M227.707,119.355a15.541,15.541,0,0,0-19.422-5.339s-15.511,1.47-19.781-15.608c-3.237-12.949-10.782-25.634-23.776-28.083a35.47,35.47,0,0,1,7.314,20.362,69.187,69.187,0,0,1,3.673,16.6c8.068,22.58,33.019,18.878,33.019,18.878s7.471,4.269,13.875,0l4.21-2.807A2.962,2.962,0,0,0,227.707,119.355Z" fill="#87d147"/><path d="M93.122,68.586a43.354,43.354,0,0,1,9.382-8.161q-1.917-1.331-4.055-2.576c-13.121-7.655-11.844-15.558-7.471-20.28,0,0,7.471,4.269,13.875,0l4.21-2.807a2.962,2.962,0,0,0,.888-4,15.633,15.633,0,0,0-19.437-5.742,7.353,7.353,0,0,1-3.031.638c-2.116-.048-6.324.726-9.864,6.65A14.288,14.288,0,0,1,81.132,36.1a2.962,2.962,0,0,1-.888,4l-4.209,2.806a11.019,11.019,0,0,1-2.084,1.076c-.228,6.6,3.026,14.5,15.959,22.406A22.043,22.043,0,0,1,93.122,68.586Z" fill="#87d147"/><path d="M91.8,70.224c-13.32,2.2-21.024,15.059-24.305,28.184-4.27,17.078-19.781,15.608-19.781,15.608a15.541,15.541,0,0,0-19.422,5.339,2.962,2.962,0,0,0,.888,4l4.21,2.807c6.4,4.269,13.875,0,13.875,0s24.951,3.7,33.019-18.878A66.965,66.965,0,0,1,84.441,89.4,35.714,35.714,0,0,1,91.8,70.224Z" fill="#87d147"/><path d="M85.641,86.667C97.382,62.118,128,71.4,128,71.4s30.618-9.279,42.359,15.27c.633,1.324,1.187,2.648,1.682,3.971-.729-18.09-14.113-30.227-28.452-35.28a92.86,92.86,0,0,1-12.277-5.288,6.571,6.571,0,0,0-6.227,0,92.877,92.877,0,0,1-12.278,5.288C98.794,60.3,85.771,72.088,84.441,89.4,84.809,88.49,85.205,87.578,85.641,86.667Z" fill="#f5c84c"/><path d="M139.109,29.01h0c-1.169,3.96-4.437,4.327-7.129,5.772a8.367,8.367,0,0,1-7.96,0c-2.692-1.445-5.96-1.812-7.129-5.772v0a95.906,95.906,0,0,1,.766,24.491c2.7-1.106,5.185-2.252,7.429-3.429a6.571,6.571,0,0,1,6.227,0c2.129,1.117,4.48,2.2,7.018,3.259A95.672,95.672,0,0,1,139.109,29.01Z" fill="#87d147"/><path d="M137.938,41.433a109.859,109.859,0,0,0,.392,11.9l-.009.01q2.5,1.038,5.268,2.019a49.149,49.149,0,0,1,10.117,4.927q1.826-1.255,3.845-2.436a33.027,33.027,0,0,0,5.794-4.182A54.2,54.2,0,0,0,137.938,41.433Z" fill="#57af12"/><path d="M117.656,53.5a110.621,110.621,0,0,0,.405-12.066A54.2,54.2,0,0,0,92.655,53.667a33.027,33.027,0,0,0,5.794,4.182q2.135,1.245,4.053,2.575a48.685,48.685,0,0,1,10.305-5.066c1.7-.6,3.31-1.222,4.853-1.855Z" fill="#57af12"/><path d="M163.144,68.371c-.01-.012-.021-.022-.032-.034q.842.967,1.621,1.989a23.373,23.373,0,0,1,9.28,3.983c-.146-.1-.286-.215-.434-.315,1.107-.93,2.264-1.82,3.445-2.677a56.185,56.185,0,0,0-5.39-8.78,55.662,55.662,0,0,1-5.544,3.85A21.573,21.573,0,0,0,163.144,68.371Z" fill="#57af12"/><path d="M82.421,73.994c-.05.034-.1.071-.145.105A23.291,23.291,0,0,1,91.8,70.224c-.038.05-.071.1-.109.153q.759-1,1.58-1.954c-.048.056-.1.106-.15.162a22.078,22.078,0,0,0-3.212-2.2,55.662,55.662,0,0,1-5.544-3.85,56.185,56.185,0,0,0-5.39,8.78C80.157,72.174,81.314,73.064,82.421,73.994Z" fill="#57af12"/><path d="M144.989,9.1,141.972,5.33A7.09,7.09,0,0,0,133.8,3.176l-4.6,1.838a3.249,3.249,0,0,1-2.414,0l-4.6-1.838a7.09,7.09,0,0,0-8.169,2.154L111.011,9.1a4.38,4.38,0,0,0,.3,5.825c3.109,3.135,8.786,7.181,15.416,4.076a3.028,3.028,0,0,1,2.552,0c6.63,3.105,12.307-.941,15.416-4.076A4.38,4.38,0,0,0,144.989,9.1Z" fill="#87d147"/><path d="M129.276,19a3.035,3.035,0,0,0-2.552,0c-6.212,2.909-11.586-.459-14.8-3.474,1.424,3.419,3.619,8.929,4.964,13.482,1.169,3.96,4.437,4.327,7.129,5.772a8.367,8.367,0,0,0,7.96,0c2.692-1.445,5.96-1.812,7.129-5.772,1.345-4.553,3.54-10.063,4.964-13.482C140.862,18.543,135.488,21.911,129.276,19Z" fill="#ef4460"/><path d="M124.02,29.344c-1.741.934-3.719,1.423-5.219,2.719,1.5,1.3,3.478,1.785,5.219,2.719a8.367,8.367,0,0,0,7.96,0c1.741-.934,3.719-1.423,5.219-2.719-1.5-1.3-3.478-1.785-5.219-2.719A8.367,8.367,0,0,0,124.02,29.344Z" fill="#87d147"/><path d="M88.755,117.958V96.416C107.138,98.765,128,71.4,128,71.4h0s-30.618-9.279-42.359,15.27,2.15,49.764-25.6,49.764a15.541,15.541,0,0,0-19.422,5.339,2.962,2.962,0,0,0,.888,4l4.21,2.806c6.4,4.27,13.875,0,13.875,0s22.956,3.783,30.877-18.975A40.368,40.368,0,0,1,88.755,117.958Z" fill="#87d147"/><path d="M207.176,200.191a15.761,15.761,0,0,0-11.743-14.465l-27.426-7.018a30.274,30.274,0,0,1-3.44-1.106c-2.578-1-2.534-1.154-15.082-7.392a5.685,5.685,0,0,1-3.114-5.09V153.506a38.55,38.55,0,0,1-36.345,0V165.12a5.685,5.685,0,0,1-3.114,5.09c-12.334,6.132-12.518,6.4-15.116,7.4a29.942,29.942,0,0,1-3.422,1.1l-27.41,7.015a15.76,15.76,0,0,0-11.743,14.465l-2.043,43.754A9.129,9.129,0,0,0,56.3,253.5H200.1a9.129,9.129,0,0,0,9.12-9.555Z" fill="#3caadc"/><path d="M128,71.4S107.138,98.765,88.755,96.416v21.541c0,22.055,17.75,40.1,39.443,40.1s39.443-18.046,39.443-40.1V96.414C149.182,98.781,128,71.4,128,71.4Z" fill="#3caadc"/><path d="M175.286,243.338a26.979,26.979,0,0,0-44.4-30.208,3.779,3.779,0,0,1-5.766,0,26.979,26.979,0,0,0-44.4,30.208A67.129,67.129,0,0,1,85.293,253.5h85.414A67.129,67.129,0,0,1,175.286,243.338Z" fill="#87d147"/><path d="M130.62,243.2a3.254,3.254,0,0,0-5.24,0A29.617,29.617,0,0,1,111.45,253.5h33.1A29.617,29.617,0,0,1,130.62,243.2Z" fill="#57af12"/><path d="M103.907,102.321a7.928,7.928,0,1,0,15.157,3.252Z" fill="#f5c84c"/><path d="M152.49,102.321a7.928,7.928,0,1,1-15.158,3.252Z" fill="#f5c84c"/><path d="M41.391,175.725a6.982,6.982,0,0,0,5.6-5.482.126.126,0,0,1,.248,0,6.982,6.982,0,0,0,5.6,5.482.123.123,0,0,1,0,.244,6.981,6.981,0,0,0-5.6,5.482.126.126,0,0,1-.248,0,6.981,6.981,0,0,0-5.6-5.482A.123.123,0,0,1,41.391,175.725Z" fill="#ef4460"/><path d="M223.705,87.654a11.1,11.1,0,0,1-8.9-8.717.2.2,0,0,0-.395,0,11.1,11.1,0,0,1-8.9,8.717.2.2,0,0,0,0,.386,11.1,11.1,0,0,1,8.9,8.717.2.2,0,0,0,.395,0,11.1,11.1,0,0,1,8.9-8.717A.2.2,0,0,0,223.705,87.654Z" fill="#f5c84c"/><path d="M78.941,5.487h-2.33V3.157a3.158,3.158,0,0,0-6.315,0v2.33H67.967a3.158,3.158,0,0,0,0,6.315H70.3v2.33a3.158,3.158,0,0,0,6.315,0V11.8h2.33a3.158,3.158,0,0,0,0-6.315Z" fill="#70d6f9"/><circle cx="226.662" cy="68.377" r="3.377" fill="#ef4460"/><circle cx="216.623" cy="173.377" r="3.377" fill="#87d147"/><circle cx="44.662" cy="18.377" r="3.377" fill="#f5c84c"/><path d="M200.1,256H56.3a11.629,11.629,0,0,1-11.616-12.172l2.043-43.753A18.187,18.187,0,0,1,60.344,183.3l27.411-7.015a27.589,27.589,0,0,0,3.138-1.006,54.211,54.211,0,0,0,5.6-2.647c1.973-1,4.847-2.448,9.305-4.664a3.2,3.2,0,0,0,1.727-2.852V153.506A2.5,2.5,0,0,1,111.2,151.3a36.04,36.04,0,0,0,34,0,2.5,2.5,0,0,1,3.675,2.207V165.12a3.208,3.208,0,0,0,1.734,2.856c4.595,2.284,7.506,3.754,9.475,4.748a50.99,50.99,0,0,0,5.393,2.547,27.229,27.229,0,0,0,3.152,1.014l27.428,7.019a18.181,18.181,0,0,1,13.619,16.751v.02l2.043,43.753A11.631,11.631,0,0,1,200.1,256Zm-87.573-98.558v7.678a8.136,8.136,0,0,1-4.493,7.324c-4.453,2.214-7.318,3.661-9.285,4.656a57.787,57.787,0,0,1-6.049,2.845,32.986,32.986,0,0,1-3.7,1.188l-27.411,7.014a13.2,13.2,0,0,0-9.866,12.181l-2.042,43.733A6.63,6.63,0,0,0,56.3,251H200.1a6.631,6.631,0,0,0,6.623-6.939l-2.043-43.743a13.2,13.2,0,0,0-9.865-12.171l-27.426-7.018a32.537,32.537,0,0,1-3.727-1.2,55.257,55.257,0,0,1-5.836-2.744c-1.962-.992-4.864-2.459-9.453-4.74a8.139,8.139,0,0,1-4.5-7.328v-7.678A41.547,41.547,0,0,1,112.526,157.442Z"/><path d="M128.2,160.559c-23.127,0-41.943-19.114-41.943-42.6V96.416a2.5,2.5,0,0,1,2.817-2.479,16,16,0,0,0,2.008.125c16.3,0,34.74-23.928,34.932-24.18a2.5,2.5,0,0,1,1.979-.985H128a2.5,2.5,0,0,1,1.977.97c.2.263,20.525,26.222,37.347,24.068a2.5,2.5,0,0,1,2.818,2.479v21.543C170.142,141.445,151.326,160.557,128.2,160.559Zm-36.943-61.5v18.9c0,20.731,16.573,37.6,36.943,37.6s36.944-16.871,36.944-37.6v-18.9c-15.591-.155-31.6-17.212-37.129-23.7C122.55,81.853,106.762,98.881,91.255,99.057Z"/><path d="M128.2,139.313a23.6,23.6,0,0,1-10.541-2.462,2.5,2.5,0,1,1,2.214-4.483,18.8,18.8,0,0,0,16.655,0,2.5,2.5,0,0,1,2.214,4.483A23.61,23.61,0,0,1,128.2,139.313Z"/><path d="M142.608,44.338a2.5,2.5,0,0,1-1.768-4.268l3.2-3.2a2.5,2.5,0,0,1,1.278-.683l5.336-1.068a2.5,2.5,0,0,1,.981,4.9l-4.595.918-2.667,2.667A2.485,2.485,0,0,1,142.608,44.338Z"/><path d="M171.427,49.675a2.5,2.5,0,0,1-1.768-4.268l3.2-3.2a2.5,2.5,0,0,1,1.278-.684l5.337-1.067a2.5,2.5,0,1,1,.981,4.9l-4.595.919L173.2,48.942A2.491,2.491,0,0,1,171.427,49.675Z"/><path d="M218.824,155.344a2.487,2.487,0,0,1-1.767-.733l-2.667-2.667-4.595-.919a2.5,2.5,0,1,1,.98-4.9l5.337,1.067a2.5,2.5,0,0,1,1.278.684l3.2,3.2a2.5,2.5,0,0,1-1.768,4.268Z"/><path d="M203.858,152.978a19.175,19.175,0,0,1-7.808-1.788c-9,1.561-26.18-.965-32.384-21.271a2.5,2.5,0,0,1-.017-1.441,37.947,37.947,0,0,0,1.492-10.52v-18.9c-18.826-.186-38.261-25.021-39.119-26.13a2.5,2.5,0,0,1,1.253-3.922c.328-.1,32.817-9.6,45.34,16.583,4.523,9.459,5.382,18.77,6.14,26.986,1.256,13.622,1.955,21.192,16.718,21.354a17.913,17.913,0,0,1,22.053,6.554h0a5.46,5.46,0,0,1-1.646,7.367l-4.208,2.805A13.853,13.853,0,0,1,203.858,152.978Zm-7.451-6.9a2.516,2.516,0,0,1,1.243.328c.054.031,6.242,3.429,11.248.091l4.21-2.806a.461.461,0,0,0,.131-.631h0a13.105,13.105,0,0,0-16.3-4.327,2.5,2.5,0,0,1-.98.2c-19.8,0-20.957-12.579-22.185-25.9-.719-7.8-1.535-16.637-5.672-25.288-8.323-17.4-27.382-16.216-35.551-14.8a102.881,102.881,0,0,0,10.039,10.009c6.535,5.618,16.13,12.084,24.731,10.982a2.5,2.5,0,0,1,2.818,2.479v21.544a42.908,42.908,0,0,1-1.482,11.169c6.855,21.035,26.39,17.18,27.229,17A2.52,2.52,0,0,1,196.407,146.075Z"/><path d="M231.148,132.93a2.489,2.489,0,0,1-1.767-.733l-2.667-2.667-4.595-.919a2.5,2.5,0,1,1,.981-4.9l5.337,1.067a2.5,2.5,0,0,1,1.277.684l3.2,3.2a2.5,2.5,0,0,1-1.768,4.268Z"/><path d="M182.341,85.905a2.6,2.6,0,0,1-.341-.023,2.5,2.5,0,0,1-1.78-1.153,28.628,28.628,0,0,0-8.046-8.667,2.5,2.5,0,0,1-.2-3.982,89.352,89.352,0,0,1,15.347-10.028c3.383-1.822,5.492-4.208,6.267-7.094a14.287,14.287,0,0,0-.94-8.8c-3.146,1.139-8.83,2.319-14.067-1.174l-4.209-2.8a5.46,5.46,0,0,1-1.645-7.367,18.057,18.057,0,0,1,22.56-6.753,5.162,5.162,0,0,0,1.994.437c2.663-.087,9.342.919,13.785,11.247.438.939,5.146,11.491.989,22.462-2.819,7.439-8.978,13.212-18.305,17.158a34.2,34.2,0,0,0-9.724,5.889A2.5,2.5,0,0,1,182.341,85.905Zm-4.705-11.939a34,34,0,0,1,5.244,5.765,43,43,0,0,1,8.92-4.972c8.02-3.393,13.262-8.213,15.577-14.324,3.514-9.273-.8-18.494-.848-18.585-.015-.032-.029-.063-.043-.095-3.126-7.294-7.047-8.312-9.094-8.26a9.684,9.684,0,0,1-4.067-.836,13.091,13.091,0,0,0-16.313,4.729.459.459,0,0,0,.13.63h0l4.209,2.806c5.061,3.374,11.188-.056,11.249-.091a2.5,2.5,0,0,1,3.37.861c.181.3,4.421,7.306,2.444,14.661-1.147,4.267-4.082,7.7-8.726,10.2A94.779,94.779,0,0,0,177.636,73.966Z"/><path d="M113.392,44.338a2.485,2.485,0,0,1-1.767-.733l-2.667-2.667-4.595-.918a2.5,2.5,0,1,1,.981-4.9l5.336,1.068a2.5,2.5,0,0,1,1.278.683l3.2,3.2a2.5,2.5,0,0,1-1.768,4.268Z"/><path d="M84.573,49.675a2.491,2.491,0,0,1-1.768-.733l-2.666-2.667-4.595-.919a2.5,2.5,0,1,1,.981-4.9l5.337,1.067a2.5,2.5,0,0,1,1.278.684l3.2,3.2a2.5,2.5,0,0,1-1.768,4.268Z"/><path d="M37.176,155.344a2.5,2.5,0,0,1-1.768-4.268l3.2-3.2a2.5,2.5,0,0,1,1.278-.684l5.337-1.067a2.5,2.5,0,1,1,.98,4.9l-4.595.919-2.667,2.667A2.487,2.487,0,0,1,37.176,155.344Z"/><path d="M24.852,132.93a2.5,2.5,0,0,1-1.768-4.268l3.2-3.2a2.5,2.5,0,0,1,1.277-.684l5.337-1.067a2.5,2.5,0,1,1,.981,4.9l-4.595.919L26.619,132.2A2.489,2.489,0,0,1,24.852,132.93Z"/><path d="M73.659,85.905a2.5,2.5,0,0,1-1.683-.652,34.2,34.2,0,0,0-9.724-5.889c-9.327-3.946-15.486-9.719-18.3-17.158-4.157-10.971.551-21.523.989-22.462C49.379,29.415,56.027,28.427,58.721,28.5a5.245,5.245,0,0,0,2-.437,18.054,18.054,0,0,1,22.559,6.753A5.46,5.46,0,0,1,81.63,42.18l-4.209,2.805C72.181,48.479,66.5,47.3,63.349,46.158a14.215,14.215,0,0,0-.927,8.829c.782,2.872,2.887,5.249,6.259,7.065A89.352,89.352,0,0,1,84.028,72.08a2.5,2.5,0,0,1-.2,3.982,28.628,28.628,0,0,0-8.046,8.667A2.5,2.5,0,0,1,74,85.882,2.6,2.6,0,0,1,73.659,85.905ZM58.479,33.494c-2.086,0-5.9,1.118-8.965,8.261-.014.032-.028.063-.043.095-.041.087-4.352,9.407-.831,18.63,2.325,6.09,7.56,10.894,15.56,14.279a43,43,0,0,1,8.92,4.972,34,34,0,0,1,5.244-5.765,94.779,94.779,0,0,0-12.053-7.512c-4.644-2.5-7.579-5.931-8.726-10.2C55.608,48.9,59.848,41.89,60.029,41.6a2.5,2.5,0,0,1,3.37-.861c.053.031,6.243,3.428,11.249.091l4.209-2.806h0a.459.459,0,0,0,.13-.63,13.1,13.1,0,0,0-16.313-4.729,9.721,9.721,0,0,1-4.067.836Z"/><path d="M163.145,70.871a2.5,2.5,0,0,1-1.89-.862,40.842,40.842,0,0,0-8.9-7.616,2.5,2.5,0,0,1-.069-4.167c1.284-.883,2.631-1.737,4-2.537,5.516-3.217,8.7-6.7,9.2-10.076a7.054,7.054,0,0,0-1.212-4.96c-3.031,1.179-9.019,2.661-14.518-1l-4.21-2.806a5.459,5.459,0,0,1-1.644-7.364,18.057,18.057,0,0,1,22.56-6.755,5.115,5.115,0,0,0,1.994.437c2.737-.074,7.892.882,12.066,7.867a2.5,2.5,0,0,1-.623,3.265,11.956,11.956,0,0,0-2.892,3.1.46.46,0,0,0,.131.63l4.21,2.807a8.581,8.581,0,0,0,1.619.832,2.5,2.5,0,0,1,1.577,2.239c.317,9.189-5.455,17.474-17.154,24.625-.045.027-.091.053-.137.078a19.445,19.445,0,0,0-2.564,1.735A2.494,2.494,0,0,1,163.145,70.871ZM158.2,60.37a45.331,45.331,0,0,1,5.288,4.675c.671-.441,1.164-.72,1.353-.823,9.321-5.709,14.254-11.981,14.688-18.662-.328-.18-.643-.371-.949-.574l-4.21-2.807a5.459,5.459,0,0,1-1.644-7.366,15.263,15.263,0,0,1,2.349-2.931c-2.531-3.265-5.086-3.747-6.5-3.724a9.591,9.591,0,0,1-4.066-.836,13.091,13.091,0,0,0-16.313,4.729.46.46,0,0,0,.13.63l4.21,2.807c5.007,3.336,11.2-.06,11.258-.095a2.51,2.51,0,0,1,3.066.477,12.611,12.611,0,0,1,3.579,10.48c-.745,5-4.656,9.592-11.625,13.658Q158.5,60.187,158.2,60.37Z"/><path d="M216.182,130.563a19.228,19.228,0,0,1-7.92-1.839c-4.63.409-27.111,1.2-34.9-20.6a2.491,2.491,0,0,1-.13-.56,67.106,67.106,0,0,0-3.532-16,2.485,2.485,0,0,1-.155-.776,32.872,32.872,0,0,0-6.807-18.946,2.5,2.5,0,0,1,2.454-3.97c12.175,2.3,21.557,13.2,25.739,29.934,1.565,6.26,4.928,10.464,10,12.494a17.668,17.668,0,0,0,6.8,1.246,17.921,17.921,0,0,1,22.126,6.526,5.462,5.462,0,0,1-1.644,7.366L224,128.24A13.851,13.851,0,0,1,216.182,130.563Zm-7.448-6.9a2.5,2.5,0,0,1,1.24.329c.053.031,6.243,3.429,11.249.091l4.209-2.807a.459.459,0,0,0,.131-.63h0a13.11,13.11,0,0,0-16.3-4.328,2.493,2.493,0,0,1-.744.19c-6.1.566-18.653-2.332-22.442-17.49-1.461-5.845-5.637-18.383-15.44-23.908a37.691,37.691,0,0,1,3.883,15.081,71.824,71.824,0,0,1,3.644,16.518c7.4,20.122,29.974,17.016,30.2,16.982A2.387,2.387,0,0,1,208.734,123.66Z"/><path d="M93.12,71.086a2.492,2.492,0,0,1-1.575-.56A19.9,19.9,0,0,0,88.736,68.6c-.042-.023-.089-.049-.13-.074C76.907,61.37,71.135,53.085,71.452,43.9a2.5,2.5,0,0,1,1.577-2.239,8.525,8.525,0,0,0,1.619-.833l4.209-2.8a.46.46,0,0,0,.131-.631,11.934,11.934,0,0,0-2.891-3.1,2.5,2.5,0,0,1-.623-3.265c4.174-6.986,9.365-7.938,12.065-7.867a5.16,5.16,0,0,0,2-.437,18.055,18.055,0,0,1,22.559,6.754,5.461,5.461,0,0,1-1.645,7.366l-4.209,2.805c-5.5,3.667-11.488,2.185-14.518,1a7.054,7.054,0,0,0-1.212,4.96c.5,3.374,3.683,6.859,9.2,10.076,1.489.87,2.909,1.772,4.221,2.682a2.5,2.5,0,0,1-.064,4.15,40.827,40.827,0,0,0-8.843,7.688A2.5,2.5,0,0,1,93.12,71.086Zm-1.96-6.864c.213.117.815.458,1.626,1.006a45.311,45.311,0,0,1,5.258-4.712q-.423-.255-.855-.508c-6.969-4.066-10.88-8.66-11.625-13.658a12.611,12.611,0,0,1,3.579-10.48,2.5,2.5,0,0,1,3.075-.473c.053.031,6.242,3.429,11.249.091l4.209-2.806a.462.462,0,0,0,.131-.632,13.1,13.1,0,0,0-16.313-4.728,9.768,9.768,0,0,1-4.067.836c-1.394-.03-3.971.459-6.5,3.724a15.233,15.233,0,0,1,2.349,2.931A5.46,5.46,0,0,1,81.63,42.18l-4.209,2.805q-.458.306-.949.575C76.906,52.241,81.839,58.513,91.16,64.222Z"/><path d="M39.818,130.563A13.851,13.851,0,0,1,32,128.24l-4.21-2.806a5.462,5.462,0,0,1-1.644-7.366,17.919,17.919,0,0,1,22.135-6.522c2.14.068,13.392-.169,16.785-13.744,4.259-17.035,13.854-27.987,26.324-30.045a2.5,2.5,0,0,1,2.393,3.985A33.121,33.121,0,0,0,86.933,89.59a2.483,2.483,0,0,1-.175.746,65.3,65.3,0,0,0-3.989,17.226,2.491,2.491,0,0,1-.13.56c-7.789,21.8-30.271,21.009-34.9,20.6A19.228,19.228,0,0,1,39.818,130.563Zm1.23-15.464a12.893,12.893,0,0,0-10.611,5.544.459.459,0,0,0,.131.63l4.209,2.807c5.059,3.372,11.187-.056,11.249-.091a2.488,2.488,0,0,1,1.607-.3c.929.133,22.839,3.056,30.2-16.982a69.993,69.993,0,0,1,4.145-17.887A37.841,37.841,0,0,1,85.985,74.76C75.747,80.086,71.422,93.01,69.921,99.015c-3.79,15.157-16.333,18.065-22.442,17.49a2.493,2.493,0,0,1-.744-.19A14.45,14.45,0,0,0,41.048,115.1Z"/><path d="M172.04,93.139a2.5,2.5,0,0,1-2.341-1.625c-.5-1.333-1.02-2.566-1.595-3.769-10.692-22.353-39.1-14.042-39.379-13.955a2.5,2.5,0,0,1-1.45,0,48,48,0,0,0-15.991-1.46c-11.081.949-18.95,6.136-23.388,15.416h0c-.391.817-.763,1.665-1.138,2.593a2.5,2.5,0,0,1-4.81-1.129C83.44,69.787,98.438,57.771,111.977,53a90.809,90.809,0,0,0,11.947-5.144,9.082,9.082,0,0,1,8.549,0A90.926,90.926,0,0,0,144.42,53c14.028,4.942,29.308,17.4,30.119,37.537a2.5,2.5,0,0,1-2,2.551A2.453,2.453,0,0,1,172.04,93.139ZM140.968,67.245c7.547,0,16.84,1.657,24.159,8.191-5.152-8.875-14.008-14.774-22.368-17.719a96.148,96.148,0,0,1-12.608-5.433,4.1,4.1,0,0,0-3.905,0,95.839,95.839,0,0,1-12.608,5.432c-8.016,2.825-16.6,8.461-21.842,16.93,13.271-10.888,32.273-6.834,36.2-5.836A54.9,54.9,0,0,1,140.968,67.245Z"/><path d="M133.275,15.989a2.493,2.493,0,0,1-1.767-.731l-.983-.982a2.5,2.5,0,0,1,.381-3.848l2.512-1.675a2.5,2.5,0,1,1,2.773,4.16l-.433.289a2.5,2.5,0,0,1-2.483,2.787Z"/><path d="M122.725,15.989a2.5,2.5,0,0,1-2.483-2.788l-.431-.287a2.5,2.5,0,1,1,2.774-4.16l2.51,1.674a2.5,2.5,0,0,1,.38,3.848l-.983.982A2.5,2.5,0,0,1,122.725,15.989Z"/><path d="M122.23,26.191a2.5,2.5,0,0,1-2.18-1.272l-2.065-3.664A2.5,2.5,0,1,1,122.34,18.8l2.065,3.664a2.5,2.5,0,0,1-2.175,3.727Z"/><path d="M133.77,26.189a2.5,2.5,0,0,1-2.175-3.727L133.66,18.8a2.5,2.5,0,0,1,4.355,2.455l-2.065,3.662A2.5,2.5,0,0,1,133.77,26.189Z"/><path d="M117.656,56a2.5,2.5,0,0,1-2.49-2.719,91.9,91.9,0,0,0-.738-23.838,2.527,2.527,0,0,1-.038-.434,2.5,2.5,0,0,1,4.906-.68c.547,1.823,1.624,2.352,3.8,3.278.683.29,1.389.59,2.1.974a5.9,5.9,0,0,0,5.594,0c.714-.384,1.42-.684,2.1-.974,2.19-.93,3.267-1.46,3.812-3.3a2.5,2.5,0,0,1,4.859,1.142,91.815,91.815,0,0,0-.751,23.67,2.5,2.5,0,0,1-3.449,2.524c-2.626-1.091-5.055-2.219-7.22-3.354a4.1,4.1,0,0,0-3.905,0c-2.287,1.2-4.857,2.386-7.642,3.528A2.48,2.48,0,0,1,117.656,56Zm2.626-20.164a101.226,101.226,0,0,1,.157,13.73c1.228-.565,2.393-1.136,3.485-1.709a9.088,9.088,0,0,1,8.549,0q1.453.762,3.078,1.52a101.182,101.182,0,0,1,.167-13.541c-.3.133-.585.255-.862.373-.606.258-1.18.5-1.692.776a10.875,10.875,0,0,1-10.328,0c-.512-.275-1.086-.518-1.692-.776C120.867,36.09,120.578,35.968,120.282,35.835Z"/><path d="M153.706,62.785a2.506,2.506,0,0,1-1.347-.393,46.459,46.459,0,0,0-9.6-4.675c-1.827-.645-3.642-1.341-5.4-2.068a2.5,2.5,0,0,1-1.542-2.317,112.307,112.307,0,0,1-.383-11.957,2.5,2.5,0,0,1,2.959-2.4,56.864,56.864,0,0,1,26.578,12.8,2.5,2.5,0,0,1,.067,3.732,35.63,35.63,0,0,1-6.231,4.505c-1.265.737-2.5,1.523-3.688,2.338A2.506,2.506,0,0,1,153.706,62.785Zm-13-11.178c1.222.486,2.468.953,3.72,1.394a51.71,51.71,0,0,1,9.231,4.313c.862-.559,1.745-1.1,2.639-1.625a36.14,36.14,0,0,0,3.1-2.013,51.868,51.868,0,0,0-18.975-9.148C140.431,46.853,140.527,49.221,140.7,51.607Z"/><path d="M102.5,62.924a2.5,2.5,0,0,1-1.426-.447c-1.206-.837-2.513-1.668-3.886-2.469A35.6,35.6,0,0,1,90.958,55.5a2.5,2.5,0,0,1,.067-3.732,56.85,56.85,0,0,1,26.577-12.8,2.5,2.5,0,0,1,2.958,2.4,112.366,112.366,0,0,1-.4,12.188,2.608,2.608,0,0,1-.062.495,2.5,2.5,0,0,1-1.488,1.756c-1.714.705-3.341,1.327-4.972,1.9a45.985,45.985,0,0,0-9.774,4.805A2.505,2.505,0,0,1,102.5,62.924Zm-5.891-9.248a36.14,36.14,0,0,0,3.1,2.013c.98.572,1.932,1.159,2.842,1.754A51.134,51.134,0,0,1,111.977,53c1.094-.386,2.187-.794,3.311-1.237.181-2.435.28-4.855.3-7.234A51.853,51.853,0,0,0,96.611,53.676Z"/><path d="M174.011,76.809a2.489,2.489,0,0,1-1.446-.462,20.958,20.958,0,0,0-8.3-3.564,2.5,2.5,0,0,1-1.528-.945c-.467-.615-.976-1.241-1.515-1.86a2.5,2.5,0,0,1,.767-3.877,24.171,24.171,0,0,1,2.847-1.879,52.922,52.922,0,0,0,5.243-3.646,2.5,2.5,0,0,1,3.552.462,58.9,58.9,0,0,1,5.63,9.171,2.5,2.5,0,0,1-.773,3.133c-.726.526-1.4,1.037-2.046,1.543a2.5,2.5,0,0,1-2.435,1.924Zm-6.467-8.38a25.809,25.809,0,0,1,5.84,2.5c.147-.116.3-.231.445-.347-.842-1.55-1.758-3.057-2.741-4.508C169.961,66.885,168.788,67.663,167.544,68.429Z"/><path d="M82.278,76.6a2.494,2.494,0,0,1-2.055-1.074,2.245,2.245,0,0,1-.133-.214c-.8-.646-1.651-1.3-2.582-1.97a2.5,2.5,0,0,1-.773-3.133,58.9,58.9,0,0,1,5.63-9.171,2.5,2.5,0,0,1,3.552-.462,52.821,52.821,0,0,0,5.244,3.646,24.093,24.093,0,0,1,2.687,1.76,2.5,2.5,0,0,1,1.318,4.074c-.515.6-1.013,1.213-1.481,1.83a2.494,2.494,0,0,1-2.345.967,20.946,20.946,0,0,0-7.644,3.3A2.489,2.489,0,0,1,82.278,76.6Zm-.107-6.015q.222.171.439.343a25.794,25.794,0,0,1,5.837-2.5c-1.24-.763-2.411-1.539-3.535-2.346C83.929,67.528,83.013,69.035,82.171,70.585Z"/><path d="M170.707,256H85.293a2.5,2.5,0,0,1-2.361-1.678,64.1,64.1,0,0,0-4.41-9.783,29.479,29.479,0,0,1,48.515-33.011,1.281,1.281,0,0,0,1.926,0,29.479,29.479,0,0,1,48.515,33.011,64.046,64.046,0,0,0-4.41,9.782A2.5,2.5,0,0,1,170.707,256Zm-83.665-5h81.916a70.926,70.926,0,0,1,4.135-8.863h0a24.479,24.479,0,0,0-40.29-27.4,6.279,6.279,0,0,1-9.606,0,24.479,24.479,0,0,0-40.29,27.406A70.937,70.937,0,0,1,87.042,251Z"/><path d="M144.55,256h-33.1a2.5,2.5,0,0,1-.831-4.857,27,27,0,0,0,12.752-9.436,5.753,5.753,0,0,1,9.258,0h0a27,27,0,0,0,12.752,9.436A2.5,2.5,0,0,1,144.55,256Zm-23.34-5h13.58a32.232,32.232,0,0,1-6.179-6.316h0a.753.753,0,0,0-1.222,0A32.21,32.21,0,0,1,121.21,251Z"/><path d="M121.875,22.622c-4.209,0-8.448-2.01-12.342-5.934a6.883,6.883,0,0,1-.474-9.149l3.017-3.77A9.535,9.535,0,0,1,123.125.854l4.6,1.839a.734.734,0,0,0,.56,0L132.875.854a9.535,9.535,0,0,1,11.049,2.915l3.017,3.77h0a6.883,6.883,0,0,1-.474,9.149c-5.734,5.779-12.215,7.4-18.252,4.578a.541.541,0,0,0-.432,0A13.833,13.833,0,0,1,121.875,22.622ZM119.551,5.164a4.562,4.562,0,0,0-3.571,1.728l-3.017,3.77a1.884,1.884,0,0,0,.12,2.5c2.924,2.948,7.481,5.957,12.581,3.572a5.565,5.565,0,0,1,4.671,0c5.1,2.39,9.658-.624,12.582-3.571a1.884,1.884,0,0,0,.12-2.5l-3.017-3.77a4.563,4.563,0,0,0-5.288-1.4l-4.6,1.839a5.731,5.731,0,0,1-4.27,0l-4.6-1.84A4.606,4.606,0,0,0,119.551,5.164Z"/><path d="M128,38.287a10.888,10.888,0,0,1-5.164-1.3c-.512-.275-1.086-.518-1.692-.776-2.285-.972-5.414-2.3-6.651-6.49-1.281-4.338-3.357-9.588-4.874-13.229a2.5,2.5,0,0,1,4.019-2.783c4.085,3.836,8.132,4.855,12.026,3.032a5.565,5.565,0,0,1,4.671,0h0c3.895,1.823,7.941.8,12.026-3.032a2.5,2.5,0,0,1,4.019,2.783c-1.517,3.641-3.593,8.891-4.874,13.229-1.237,4.189-4.366,5.518-6.651,6.49-.606.258-1.18.5-1.692.776A10.888,10.888,0,0,1,128,38.287ZM117.068,21.736c.82,2.209,1.6,4.48,2.22,6.566.545,1.844,1.622,2.374,3.812,3.3.683.29,1.389.59,2.1.974a5.9,5.9,0,0,0,5.594,0c.714-.384,1.42-.684,2.1-.974,2.19-.93,3.267-1.46,3.812-3.3.616-2.086,1.4-4.357,2.22-6.566a13.631,13.631,0,0,1-10.715-.469h0a.538.538,0,0,0-.434,0A13.634,13.634,0,0,1,117.068,21.736Z"/><path d="M128,38.287a10.888,10.888,0,0,1-5.164-1.3c-.512-.274-1.083-.518-1.688-.776a14.5,14.5,0,0,1-3.981-2.254,2.5,2.5,0,0,1,0-3.783,14.5,14.5,0,0,1,3.981-2.253c.605-.258,1.176-.5,1.689-.776a10.873,10.873,0,0,1,10.327,0c.512.274,1.083.518,1.688.776a14.5,14.5,0,0,1,3.981,2.253,2.5,2.5,0,0,1,0,3.783,14.5,14.5,0,0,1-3.981,2.254c-.6.258-1.176.5-1.689.776A10.881,10.881,0,0,1,128,38.287Zm-3.849-6.225c.348.159.7.329,1.051.518a5.9,5.9,0,0,0,5.595,0c.353-.189.7-.359,1.052-.518-.348-.157-.7-.327-1.051-.516a5.892,5.892,0,0,0-5.595,0h0C124.85,31.735,124.5,31.905,124.151,32.062Zm-.131-2.718h0Z"/><path d="M52.142,152.978a13.853,13.853,0,0,1-7.814-2.324l-4.209-2.806a5.461,5.461,0,0,1-1.645-7.366,17.917,17.917,0,0,1,22.053-6.554c14.763-.162,15.462-7.732,16.718-21.354.758-8.216,1.617-17.527,6.14-26.985,12.522-26.183,45.011-16.684,45.34-16.584a2.5,2.5,0,0,1,1.263,3.908C129.143,74.021,110,98.845,91.255,99.057v18.9a37.885,37.885,0,0,0,1.606,10.923,2.5,2.5,0,0,1-.033,1.542c-7.607,21.858-28.285,21.145-32.778,20.722A19.229,19.229,0,0,1,52.142,152.978Zm1.23-15.465a12.9,12.9,0,0,0-10.611,5.544.462.462,0,0,0,.131.631l4.21,2.806c5.059,3.373,11.186-.056,11.248-.091a2.5,2.5,0,0,1,1.647-.3c.838.135,20.506,3.037,27.842-16.591a42.927,42.927,0,0,1-1.584-11.559V96.416a2.5,2.5,0,0,1,2.817-2.479c8.554,1.087,18.042-5.368,24.494-10.98a101.36,101.36,0,0,0,9.916-10.011,48.114,48.114,0,0,0-12.2-.616c-11.081.95-18.95,6.137-23.388,15.417-4.137,8.65-4.953,17.488-5.672,25.286-1.228,13.319-2.389,25.9-22.185,25.9a2.5,2.5,0,0,1-.98-.2A14.434,14.434,0,0,0,53.372,137.513Z"/><path d="M111.136,116a10.441,10.441,0,0,1-10.429-10.429,10.32,10.32,0,0,1,.923-4.285,2.5,2.5,0,0,1,2.8-1.412l15.157,3.253a2.5,2.5,0,0,1,1.975,2.444A10.441,10.441,0,0,1,111.136,116Zm-5.421-10.736c-.005.1-.008.2-.008.307a5.429,5.429,0,0,0,10.5,1.944Z"/><path d="M145.261,116a10.442,10.442,0,0,1-10.429-10.429,2.5,2.5,0,0,1,1.976-2.444l15.157-3.253a2.5,2.5,0,0,1,2.8,1.413,10.325,10.325,0,0,1,.923,4.284A10.441,10.441,0,0,1,145.261,116Zm-5.07-8.485a5.43,5.43,0,0,0,10.5-1.944c0-.1,0-.206-.008-.307Z"/></svg>