<svg xmlns="http://www.w3.org/2000/svg" viewBox="0 0 256 256"><title>icon</title><path d="M248.735,124.661a6.329,6.329,0,0,1-1.526-2.687c-3.511-13.247-14.2-17.242-21.009-18.429a2.907,2.907,0,0,1-1.809-4.651c8.015-10.4,4.231-24.014,1.852-30.147a11.3,11.3,0,0,1-.466-6.452c1.724-8.137-2.069-14.969-5.231-19.013a1.494,1.494,0,0,0-2.65.78c-1.236,9.628-20.89,19.122-16.975,32.825,2.673,9.355.246,15.179-2.214,18.393a9.2,9.2,0,0,1-6.161,3.532c-12.2,1.538-62.578,9.815-79.518,42.937,10.594,5.277,10.85,5.543,13.1,6.426a29.234,29.234,0,0,0,3.4,1.1l26.347,6.742a14.777,14.777,0,0,1,4.309,1.876c5.691-17.066,15.531-31.776,32.117-38.538a9.266,9.266,0,0,1,11.42,3.847c3.24,5.388,9.8,11.966,22.232,10.585,14.739-1.638,20.052,6.151,21.873,10.65a1.626,1.626,0,0,0,2.876.294C256.852,135.018,251.312,127.411,248.735,124.661Z" fill="#3caadc"/><path d="M176.811,170.828s7.658-11.486,22.142-14.506a6.639,6.639,0,0,1,7.892,5.651h0a6.652,6.652,0,0,1-8.682,7.191A26.507,26.507,0,0,0,176.811,170.828Z" fill="#70d6f9"/><path d="M185.8,146.81a25.276,25.276,0,0,1,14.743-9.659,4.42,4.42,0,0,1,5.255,3.764h0a4.429,4.429,0,0,1-5.781,4.788A17.65,17.65,0,0,0,185.8,146.81Z" fill="#70d6f9"/><path d="M157.406,90.254a25.272,25.272,0,0,0,13.3-11.567,4.42,4.42,0,0,0-2.2-6.079h0a4.429,4.429,0,0,0-6.178,4.264A17.649,17.649,0,0,1,157.406,90.254Z" fill="#70d6f9"/><path d="M231.526,120.233a4.367,4.367,0,0,0,2.095,1.662c2.49.977,7.529,4.172,6.121,13.782a16.65,16.65,0,0,1,8.09,8.765,1.626,1.626,0,0,0,2.876.294c6.144-9.718.6-17.325-1.973-20.075a6.329,6.329,0,0,1-1.526-2.687c-3.511-13.247-14.2-17.242-21.009-18.429a2.907,2.907,0,0,1-1.809-4.651c8.015-10.4,4.231-24.014,1.852-30.147a11.3,11.3,0,0,1-.466-6.452c1.724-8.137-2.069-14.969-5.231-19.013a1.494,1.494,0,0,0-2.65.78c-.49,3.813-3.868,7.605-7.527,11.646,3.422,2.82,7.159,7.54,6.212,14.324a7.1,7.1,0,0,0,.17,2.876c1.269,4.588,4.036,19.472-9.19,31.049a1.458,1.458,0,0,0,.828,2.564A29.837,29.837,0,0,1,231.526,120.233Z" fill="#9be5f9"/><path d="M123.24,61.984c-6.611-6.547-13.052-6.634-15.228-22.114,0,0-2.442,12.186-30.455,19.9C52.592,66.651,52.985,84.1,52.985,84.1v6.909c0,21.159,17.029,38.471,37.843,38.471h0c20.814,0,37.843-17.312,37.843-38.471V77.465S129.073,67.762,123.24,61.984Z" fill="#f9d0b4"/><path d="M144.166,52.255c-3.145-24.938-14.119-33.818-22.19-36.961-5.582-2.365-11.334-.986-13.729-.207a2.386,2.386,0,0,1-2.183-.4C91.713,3.888,62.733,5.6,44.663,34.07,2.5,100.5,50.992,155.992,66.5,171.5c11.776,11.776,5.678,29.717,2.513,36.884a.752.752,0,0,0,1.2.855c7.449-6.73,26.376-27.792,6.288-53.739-13.633-17.609-11.773-23.924-.3-29.028a38.619,38.619,0,0,1-23.22-35.464V84.1s-.393-17.448,24.572-24.326c28.013-7.717,30.455-19.9,30.455-19.9,2.176,15.48,8.617,15.567,15.228,22.114,5.833,5.778,5.431,15.481,5.431,15.481V91.008a38.621,38.621,0,0,1-4.2,17.545C154.751,90.25,144.166,52.255,144.166,52.255Z" fill="#70d6f9"/><path d="M37.512,130.514,37.5,130.5s16.743,39.05,1.921,50.857a.682.682,0,0,0,.5,1.222c5.987-.79,19.6-3.974,21.355-16.577A143.148,143.148,0,0,1,37.512,130.514Z" fill="#70d6f9"/><path d="M170.755,247.166,167.147,169.9a15.123,15.123,0,0,0-11.266-13.878l-26.347-6.742a29.234,29.234,0,0,1-3.4-1.1c-2.338-.916-2.521-1.166-14.331-7.038a5.454,5.454,0,0,1-2.988-4.883V124.826a37.016,37.016,0,0,1-17.984,4.653h0a36.909,36.909,0,0,1-14.878-3.128c.086.038.169.084.255.121-.8.357-1.554.722-2.261,1.094v8.688a5.453,5.453,0,0,1-2.987,4.883l-2.677,1.334c1.463,3.515,4.144,7.765,8.22,13.029,20.088,25.947,1.161,47.009-6.288,53.739a.752.752,0,0,1-1.2-.855c3.165-7.167,9.263-25.108-2.513-36.884-1.477-1.477-3.255-3.32-5.225-5.5-1.754,12.6-15.368,15.787-21.355,16.577a.682.682,0,0,1-.5-1.222c7.383-5.881,6.933-18.521,4.623-29.728l-17.169,4.393A15.122,15.122,0,0,0,15.61,169.9L12,247.166A5.958,5.958,0,0,0,17.9,253.5H164.862A5.958,5.958,0,0,0,170.755,247.166Z" fill="#f9d0b4"/><path d="M69.271,240.494a39.592,39.592,0,0,0,16.9-3.707,12.152,12.152,0,0,1,10.418,0,39.6,39.6,0,0,0,16.9,3.707c13.4,0,25.025-6.426,30.848-15.841V201.868c-5.823-9.416-17.448-15.842-30.848-15.842a39.612,39.612,0,0,0-16.9,3.707,12.152,12.152,0,0,1-10.418,0c-.726-.342-1.472-.657-2.229-.956-3.036,9.753-9.9,17-13.728,20.462a.752.752,0,0,1-1.2-.855c1.995-4.518,5.151-13.316,4.266-22.153-1.316-.128-2.651-.2-4.008-.2-13.4,0-25.025,6.426-30.849,15.842v22.784C44.246,234.068,55.871,240.494,69.271,240.494Z" fill="#fc657e"/><path d="M61.533,200.984a30.214,30.214,0,0,1,9.85,1.028,41.06,41.06,0,0,0,1.9-15.781c-1.316-.128-2.651-.2-4.008-.2-13.4,0-25.025,6.426-30.849,15.842v12.5A30.114,30.114,0,0,1,61.533,200.984Z" fill="#f98fa6"/><path d="M89.184,215.508a2.556,2.556,0,0,0,4.389,0,30.008,30.008,0,0,1,50.761-1.145v-12.5c-5.824-9.416-17.449-15.842-30.849-15.842a39.61,39.61,0,0,0-16.9,3.707,12.152,12.152,0,0,1-10.418,0c-.726-.342-1.472-.657-2.229-.956a44.03,44.03,0,0,1-8.272,14.762A30.2,30.2,0,0,1,89.184,215.508Z" fill="#f98fa6"/><path d="M193.372,203.738h-2.266v-2.266a3.071,3.071,0,0,0-6.142,0v2.266H182.7a3.071,3.071,0,0,0,0,6.142h2.265v2.267a3.071,3.071,0,1,0,6.142,0V209.88h2.266a3.071,3.071,0,1,0,0-6.142Z" fill="#ef4460"/><path d="M153.857,8.64A10.8,10.8,0,0,1,145.2.161a.2.2,0,0,0-.384,0,10.8,10.8,0,0,1-8.654,8.479.19.19,0,0,0,0,.376,10.794,10.794,0,0,1,8.654,8.478.2.2,0,0,0,.384,0,10.8,10.8,0,0,1,8.654-8.478A.19.19,0,0,0,153.857,8.64Z" fill="#f5c84c"/><circle cx="16.019" cy="137.427" r="3.285" fill="#70d6f9"/><circle cx="159.019" cy="32.427" r="3.285" fill="#ef4460"/><circle cx="201.019" cy="186.427" r="3.285" fill="#87d147"/><path d="M38.422,254.724a2.5,2.5,0,0,1-2.5-2.5V192.4a2.5,2.5,0,0,1,5,0v59.826A2.5,2.5,0,0,1,38.422,254.724Z"/><path d="M144.335,254.724a2.5,2.5,0,0,1-2.5-2.5V192.4a2.5,2.5,0,0,1,5,0v59.826A2.5,2.5,0,0,1,144.335,254.724Z"/><path d="M90.877,111.888a24.444,24.444,0,0,1-15.1-5.474,2.5,2.5,0,0,1,3.084-3.937,18.551,18.551,0,0,0,24.017,0,2.5,2.5,0,0,1,3.084,3.937A24.426,24.426,0,0,1,90.877,111.888Z"/><path d="M111.443,85.355a2.5,2.5,0,0,1-2.5-2.5,2.213,2.213,0,1,0-4.423,0,2.5,2.5,0,0,1-5,0,7.212,7.212,0,1,1,14.423,0A2.5,2.5,0,0,1,111.443,85.355Z"/><path d="M80.737,85.355a2.5,2.5,0,0,1-2.5-2.5,2.213,2.213,0,1,0-4.424,0,2.5,2.5,0,0,1-5,0,7.212,7.212,0,1,1,14.424,0A2.5,2.5,0,0,1,80.737,85.355Z"/><path d="M126.823,69.993a2.49,2.49,0,0,1-1.247-.335,69.484,69.484,0,0,0-42.938-8.842,2.5,2.5,0,1,1-.588-4.965,74.475,74.475,0,0,1,46.024,9.476,2.5,2.5,0,0,1-1.251,4.666Z"/><path d="M160.19,160.4a2.5,2.5,0,0,1-1.347-.394,12.32,12.32,0,0,0-3.58-1.56l-26.35-6.742a31.764,31.764,0,0,1-3.692-1.2,54.794,54.794,0,0,1-5.485-2.591c-1.7-.859-4.133-2.088-7.822-3.925a2.5,2.5,0,0,1-1.111-3.376c7.484-14.634,21.9-26.242,42.843-34.5a167.878,167.878,0,0,1,38.587-9.78,6.66,6.66,0,0,0,4.489-2.57c2.132-2.787,4.175-7.857,1.8-16.186-2.717-9.507,4.214-17.159,9.785-23.309,3.452-3.812,6.714-7.413,7.113-10.523a4.027,4.027,0,0,1,2.93-3.382,3.954,3.954,0,0,1,4.169,1.381c3.651,4.67,7.605,12.115,5.707,21.071a8.835,8.835,0,0,0,.351,5.031c2.306,5.944,6.707,21.018-2.2,32.577a.406.406,0,0,0,.257.661c6.9,1.2,19.069,5.435,23,20.251a3.837,3.837,0,0,0,.934,1.619h0c2.364,2.522,9.516,11.646,2.261,23.12a4.079,4.079,0,0,1-3.828,1.888,4.138,4.138,0,0,1-3.478-2.58c-3.79-9.362-13.706-9.721-19.28-9.1-14.33,1.585-21.594-6.7-24.651-11.781a6.73,6.73,0,0,0-8.334-2.821c-14.089,5.745-24.414,18.2-30.688,37.014a2.5,2.5,0,0,1-2.372,1.709Zm-43.726-19.729c2.444,1.224,4.206,2.113,5.526,2.78a51.549,51.549,0,0,0,5.053,2.4,26.773,26.773,0,0,0,3.11,1.011L156.5,153.6a17.157,17.157,0,0,1,2.277.755c6.842-18.736,17.794-31.281,32.584-37.311a11.7,11.7,0,0,1,14.506,4.874c2.98,4.956,8.839,10.608,19.814,9.388,5.384-.595,18.1-.678,23.755,10.618,3.673-7.2.076-12.779-2.527-15.554h0a8.864,8.864,0,0,1-2.119-3.757c-3.053-11.516-12.028-15.387-19.021-16.606a5.406,5.406,0,0,1-3.359-8.64c7.356-9.544,3.5-22.562,1.5-27.716a13.827,13.827,0,0,1-.581-7.875c1.286-6.067-.928-11.383-3.475-15.19-1.293,3.8-4.492,7.331-7.847,11.036-5.229,5.773-10.636,11.743-8.683,18.578,2.95,10.326.2,16.9-2.633,20.6a11.625,11.625,0,0,1-7.834,4.492C183.037,102.531,134.154,110.159,116.464,140.669Z"/><path d="M176.812,173.328a2.5,2.5,0,0,1-2.081-3.887,40.229,40.229,0,0,1,23.712-15.566,9.074,9.074,0,0,1,7.081,1.483,9.221,9.221,0,0,1,3.8,6.285,9.153,9.153,0,0,1-11.937,9.9A23.849,23.849,0,0,0,178,173.029,2.5,2.5,0,0,1,176.812,173.328Zm12.364-8.145a31.373,31.373,0,0,1,9.763,1.605,4.151,4.151,0,0,0,5.428-4.484,4.2,4.2,0,0,0-1.732-2.865,4.015,4.015,0,0,0-3.171-.67,33.646,33.646,0,0,0-13.929,6.647A28.456,28.456,0,0,1,189.176,165.183Z"/><path d="M185.8,149.31a2.5,2.5,0,0,1-2.081-3.887A27.688,27.688,0,0,1,200.031,134.7a6.876,6.876,0,0,1,5.369,1.125,6.972,6.972,0,0,1,2.875,4.755,6.929,6.929,0,0,1-9.036,7.5,15.077,15.077,0,0,0-12.254.932A2.5,2.5,0,0,1,185.8,149.31Zm8.663-7.091a21.865,21.865,0,0,1,6.328,1.107,1.93,1.93,0,0,0,1.854-.35,1.894,1.894,0,0,0,.672-1.731,1.933,1.933,0,0,0-.807-1.336,1.845,1.845,0,0,0-1.458-.31A20.937,20.937,0,0,0,194.464,142.219Z"/><path d="M157.406,92.753a2.5,2.5,0,0,1-1.8-4.238,15.063,15.063,0,0,0,4.224-11.541,6.931,6.931,0,1,1,13.088,2.868,27.7,27.7,0,0,1-14.745,12.79A2.5,2.5,0,0,1,157.406,92.753Zm9.347-18.013a1.948,1.948,0,0,0-1.083.341,1.923,1.923,0,0,0-.841,1.689,21.9,21.9,0,0,1-.646,6.37,20.864,20.864,0,0,0,4.3-5.608,1.848,1.848,0,0,0,.1-1.489,1.964,1.964,0,0,0-1.832-1.3Z"/><path d="M144.734,142.04a2.5,2.5,0,0,1-1.806-4.228,4.162,4.162,0,1,0-6.017-5.751,2.5,2.5,0,1,1-3.615-3.455,9.161,9.161,0,1,1,13.245,12.661A2.491,2.491,0,0,1,144.734,142.04Z"/><path d="M154.366,151.246a2.5,2.5,0,0,1-1.807-4.228,4.162,4.162,0,0,0-6.018-5.751,2.5,2.5,0,1,1-3.613-3.455,9.162,9.162,0,0,1,13.246,12.661A2.5,2.5,0,0,1,154.366,151.246Z"/><path d="M156.985,128.74a2.5,2.5,0,0,1-1.807-4.227,2.517,2.517,0,0,0-.08-3.555,2.384,2.384,0,0,0-1.794-.7,2.494,2.494,0,0,0-1.761.776,2.5,2.5,0,0,1-3.615-3.455,7.462,7.462,0,0,1,5.262-2.32,7.347,7.347,0,0,1,5.363,2.08,7.524,7.524,0,0,1,.24,10.624A2.493,2.493,0,0,1,156.985,128.74Z"/><path d="M164.234,135.67a2.5,2.5,0,0,1-1.806-4.228,2.514,2.514,0,0,0-3.635-3.475,2.5,2.5,0,1,1-3.615-3.454A7.514,7.514,0,1,1,166.041,134.9,2.489,2.489,0,0,1,164.234,135.67Z"/><path d="M173.234,123.67a2.5,2.5,0,0,1-1.806-4.228,2.514,2.514,0,0,0-3.635-3.475,2.5,2.5,0,1,1-3.615-3.454A7.514,7.514,0,1,1,175.041,122.9,2.489,2.489,0,0,1,173.234,123.67Z"/><path d="M249.366,147.977c-.124,0-.248-.006-.373-.017a4.138,4.138,0,0,1-3.478-2.58,14.12,14.12,0,0,0-6.882-7.463,2.5,2.5,0,0,1-1.364-2.6c1.122-7.653-2.377-10.234-4.562-11.092a6.829,6.829,0,0,1-3.278-2.629h0a27.419,27.419,0,0,0-21.237-12.579,3.957,3.957,0,0,1-2.278-6.936c12.188-10.668,9.532-24.513,8.429-28.5a9.567,9.567,0,0,1-.238-3.887c.637-4.56-1.155-8.614-5.325-12.051a2.5,2.5,0,0,1-.263-3.607c3.2-3.53,6.5-7.181,6.9-10.287a4.027,4.027,0,0,1,2.93-3.382,3.954,3.954,0,0,1,4.169,1.381c3.651,4.67,7.605,12.115,5.707,21.071a8.835,8.835,0,0,0,.351,5.031c6.922,17.844.767,28.726-2.2,32.577a.406.406,0,0,0,.257.661c6.9,1.2,19.069,5.435,23,20.251a3.837,3.837,0,0,0,.934,1.619c2.364,2.522,9.516,11.646,2.261,23.12A4.076,4.076,0,0,1,249.366,147.977ZM242.414,134.3a18.916,18.916,0,0,1,7.02,7.633c3.679-7.2.08-12.785-2.523-15.561a8.864,8.864,0,0,1-2.119-3.757c-3.053-11.516-12.028-15.387-19.021-16.606a5.406,5.406,0,0,1-3.359-8.64c7.356-9.543,3.5-22.562,1.5-27.716a13.827,13.827,0,0,1-.581-7.875c1.287-6.068-.929-11.385-3.476-15.193-1.071,3.134-3.431,6.088-5.972,8.956a17.214,17.214,0,0,1,5.175,14.837,4.606,4.606,0,0,0,.1,1.865c1.248,4.508,4.177,19.7-8.286,32.046a32.1,32.1,0,0,1,22.751,14.586,1.9,1.9,0,0,0,.907.693C237.254,120.635,243.229,124.158,242.414,134.3Z"/><path d="M90.828,131.979c-22.245,0-40.343-18.379-40.343-40.971V84.1c-.017-.736-.131-19.425,26.409-26.736,25.759-7.1,28.651-17.923,28.677-18.031a2.528,2.528,0,0,1,2.558-1.935,2.483,2.483,0,0,1,2.359,2.125c1.477,10.513,4.761,12.965,9.306,16.359A47,47,0,0,1,125,60.208h0c6.358,6.3,6.2,16.341,6.171,17.3v13.5C131.171,113.6,113.073,131.979,90.828,131.979ZM106.9,46.67C102.979,51.318,94.867,57.6,78.222,62.183,55.6,68.416,55.479,83.423,55.485,84.059v6.95c0,19.834,15.855,35.97,35.343,35.97s35.343-16.136,35.343-35.971V77.465c0-.035,0-.069,0-.1,0-.081.263-8.693-4.693-13.6h0a42.167,42.167,0,0,0-4.679-3.874C112.882,56.959,109.136,54.163,106.9,46.67Z"/><path d="M69.7,211.943a3.26,3.26,0,0,1-2.978-4.569c2.958-6.7,8.684-23.428-1.994-34.106-8.642-8.643-24.438-26.7-33.126-50.531C20.427,92.07,24.109,61.788,42.553,32.73c9-14.177,21.72-23.4,35.822-25.965,10.747-1.956,21.65.258,29.18,5.919,2.575-.827,9.056-2.378,15.4.309,8.956,3.486,20.39,13.075,23.675,38.79.78,3.075,9.523,40.544-20.866,58.91a2.5,2.5,0,0,1-3.522-3.273,35.87,35.87,0,0,0,3.933-16.412V77.465c0-.035,0-.069,0-.1,0-.081.263-8.693-4.693-13.6a42.349,42.349,0,0,0-4.677-3.872c-3.921-2.928-7.667-5.725-9.907-13.218C102.979,51.318,94.867,57.6,78.222,62.183,55.6,68.416,55.479,83.423,55.484,84.059v6.95a35.988,35.988,0,0,0,21.707,33.166,2.5,2.5,0,0,1,.03,4.581c-4.663,2.074-7.014,4.071-7.619,6.475-.944,3.745,1.877,9.7,8.875,18.739,21.629,27.938.425,50.787-6.589,57.124A3.251,3.251,0,0,1,69.7,211.943ZM86.113,11.063a38.184,38.184,0,0,0-6.842.622C66.558,14,55.017,22.424,46.773,35.41,29.206,63.088,25.684,91.893,36.3,121.024c8.357,22.927,23.614,40.358,31.964,48.708,9.546,9.547,8.452,22.56,5.873,31.759C81.8,192.08,89.208,176,74.523,157.03c-8.234-10.635-11.156-17.52-9.77-23.02.851-3.379,3.263-5.743,6-7.493A41.04,41.04,0,0,1,50.484,91.008V84.1c-.017-.736-.13-19.425,26.41-26.736,25.806-7.11,28.646-17.878,28.668-17.985a2.5,2.5,0,0,1,4.926.144c1.478,10.513,4.761,12.965,9.306,16.359a47.016,47.016,0,0,1,5.2,4.327c6.358,6.3,6.2,16.338,6.172,17.3v13.5a41.03,41.03,0,0,1-1.347,10.493c7.7-6.946,12.182-16.346,13.346-28.044a62.805,62.805,0,0,0-1.413-20.533,2.52,2.52,0,0,1-.071-.356c-2.951-23.395-12.84-31.915-20.618-34.944-4.922-2.084-10.063-.8-12.047-.16a4.9,4.9,0,0,1-4.459-.776C99.7,13.026,93.1,11.063,86.113,11.063Z"/><path d="M39.813,185.086a3.138,3.138,0,0,1-2.908-1.93,3.172,3.172,0,0,1,.958-3.755C48.8,170.69,39.65,141.859,35.2,131.485a2.5,2.5,0,0,1,4.2-2.612,2.593,2.593,0,0,1,.385.6A141.436,141.436,0,0,0,63.13,164.325a2.5,2.5,0,0,1,.622,2.022c-2,14.352-17.1,17.866-23.505,18.711A3.34,3.34,0,0,1,39.813,185.086Zm6.719-33.742c1.948,9.689,2.525,20.5-1.847,27.723,5.5-1.53,12.311-4.9,13.918-12.3A155.749,155.749,0,0,1,46.532,151.344Z"/><path d="M164.862,256H17.9a8.285,8.285,0,0,1-6.068-2.62,8.589,8.589,0,0,1-2.321-6.351l3.606-77.245A17.551,17.551,0,0,1,26.255,153.6l17.17-4.394a2.5,2.5,0,0,1,3.068,1.918c2.569,12.461,1.969,21.821-1.774,27.933,5.765-1.61,12.945-5.244,14.08-13.4a2.5,2.5,0,0,1,4.331-1.331c1.678,1.855,3.406,3.674,5.138,5.406,9.546,9.547,8.452,22.56,5.873,31.759C81.8,192.08,89.208,176,74.523,157.03c-4.207-5.432-7-9.88-8.55-13.6a2.5,2.5,0,0,1,1.19-3.2l2.682-1.336a2.97,2.97,0,0,0,1.6-2.645v-8.688a2.5,2.5,0,0,1,1.336-2.212c.415-.219.844-.435,1.283-.646a2.5,2.5,0,0,1,2.889-.647l.009,0a34.312,34.312,0,0,0,13.867,2.914,34.724,34.724,0,0,0,16.774-4.34,2.5,2.5,0,0,1,3.71,2.188v11.427a2.972,2.972,0,0,0,1.608,2.649c4.4,2.189,7.194,3.6,9.083,4.552a51.143,51.143,0,0,0,5.039,2.392,26.848,26.848,0,0,0,3.111,1.011L156.5,153.6a17.543,17.543,0,0,1,13.142,16.163l3.609,77.278a8.591,8.591,0,0,1-2.322,6.338A8.285,8.285,0,0,1,164.862,256ZM42.087,154.71,27.5,158.444a12.568,12.568,0,0,0-9.39,11.594L14.5,247.283a3.533,3.533,0,0,0,.959,2.659A3.326,3.326,0,0,0,17.9,251H164.862a3.326,3.326,0,0,0,2.437-1.058,3.525,3.525,0,0,0,.96-2.639v-.02l-3.609-77.266a12.558,12.558,0,0,0-9.388-11.573L128.913,151.7a31.839,31.839,0,0,1-3.693-1.2,55.176,55.176,0,0,1-5.472-2.585c-1.882-.95-4.664-2.356-9.061-4.542a7.909,7.909,0,0,1-4.375-7.122v-7.433a39.7,39.7,0,0,1-15.484,3.158,39.238,39.238,0,0,1-14.384-2.716v6.991a7.909,7.909,0,0,1-4.367,7.119l-.5.249a70.261,70.261,0,0,0,6.9,10.347c21.629,27.939.425,50.788-6.589,57.125a3.252,3.252,0,0,1-5.162-3.72c2.958-6.7,8.684-23.428-1.994-34.106q-1.107-1.107-2.209-2.257c-4.231,10.484-16.634,13.3-22.276,14.047a3.183,3.183,0,0,1-2.384-5.657C43.918,174.578,43.666,163.792,42.087,154.71Z"/><path d="M113.485,242.994a42.333,42.333,0,0,1-17.964-3.946,9.68,9.68,0,0,0-8.285,0,42.338,42.338,0,0,1-17.965,3.946c-13.843,0-26.479-6.524-32.975-17.027a2.5,2.5,0,0,1-.374-1.315V201.868a2.5,2.5,0,0,1,.374-1.315c6.5-10.5,19.132-17.027,32.975-17.027,1.368,0,2.758.071,4.251.217a2.5,2.5,0,0,1,2.245,2.239A42.64,42.64,0,0,1,74.15,201.45a41.164,41.164,0,0,0,7.4-13.415,2.5,2.5,0,0,1,3.3-1.583c.887.349,1.666.683,2.38,1.02a9.677,9.677,0,0,0,8.285,0,42.333,42.333,0,0,1,17.964-3.946c13.844,0,26.48,6.524,32.975,17.027a2.5,2.5,0,0,1,.374,1.315v22.785a2.5,2.5,0,0,1-.374,1.315C139.965,236.47,127.329,242.994,113.485,242.994Zm-22.106-9.879a14.687,14.687,0,0,1,6.275,1.411,37.3,37.3,0,0,0,15.831,3.468c11.861,0,22.65-5.374,28.349-14.069V202.6c-5.7-8.7-16.488-14.07-28.349-14.07a37.311,37.311,0,0,0-15.83,3.468,14.658,14.658,0,0,1-12.246.14c-3.517,9-9.854,15.648-13.521,18.96a3.252,3.252,0,0,1-5.162-3.72c1.717-3.89,4.4-11.231,4.2-18.809-.56-.026-1.109-.039-1.651-.039-11.86,0-22.65,5.374-28.349,14.07v21.328c5.7,8.7,16.489,14.07,28.349,14.07A37.3,37.3,0,0,0,85.1,234.526,14.688,14.688,0,0,1,91.379,233.115Z"/><path d="M38.422,216.863a2.5,2.5,0,0,1-2.5-2.5v-12.5a2.5,2.5,0,0,1,.374-1.315c6.5-10.5,19.132-17.027,32.975-17.027,1.368,0,2.758.071,4.251.217a2.5,2.5,0,0,1,2.245,2.239,42.946,42.946,0,0,1-1.994,16.762,2.5,2.5,0,0,1-3.052,1.679,27.683,27.683,0,0,0-9.037-.943h0A27.756,27.756,0,0,0,40.5,215.755,2.5,2.5,0,0,1,38.422,216.863Zm2.5-14.267v4.932a32.594,32.594,0,0,1,20.459-9.039h0a32.687,32.687,0,0,1,8.244.545,38.138,38.138,0,0,0,1.3-10.469c-.561-.026-1.109-.039-1.652-.039C57.411,188.526,46.621,193.9,40.922,202.6Z"/><path d="M91.378,219.254a5.025,5.025,0,0,1-4.335-2.455h0a27.522,27.522,0,0,0-12.395-10.976,2.5,2.5,0,0,1-.9-3.878,41.131,41.131,0,0,0,7.81-13.909,2.5,2.5,0,0,1,3.3-1.583c.889.35,1.668.684,2.38,1.021a9.68,9.68,0,0,0,8.285,0,42.333,42.333,0,0,1,17.964-3.946c13.844,0,26.48,6.524,32.975,17.027a2.5,2.5,0,0,1,.374,1.315v12.5a2.5,2.5,0,0,1-4.576,1.392A27.51,27.51,0,0,0,95.714,216.8a5.027,5.027,0,0,1-4.335,2.456Zm-.053-5.036c.018.03.025.036.053.036a32.495,32.495,0,0,1,50.456-6.727V202.6c-5.7-8.7-16.488-14.07-28.349-14.07a37.311,37.311,0,0,0-15.83,3.468,14.66,14.66,0,0,1-12.245.141,46,46,0,0,1-5.9,10.55,32.494,32.494,0,0,1,11.814,11.533Z"/></svg>