<svg xmlns="http://www.w3.org/2000/svg" viewBox="0 0 512 512"><g id="Palmistry"><path d="M452.2327,282.9421a49.5362,49.5362,0,0,0-69.9915,0l-30.6335,30.6336V116a48.0792,48.0792,0,0,0-70.6452-42.5,48.0582,48.0582,0,0,0-94.96,0,48.0214,48.0214,0,0,0-70,35A48.0791,48.0791,0,0,0,45.3577,151V396a83.22,83.22,0,0,0,83.125,83.125H298.1933a100.4661,100.4661,0,0,0,76.4515-35.2222l80.2026-93.8018A49.7253,49.7253,0,0,0,452.2327,282.9421ZM434.9036,333.041l-80.2027,93.8019a74.2654,74.2654,0,0,1-56.5076,26.0321H128.4827A56.9408,56.9408,0,0,1,71.6077,396V151a21.875,21.875,0,1,1,43.75,0V256a13.125,13.125,0,0,0,26.25,0V116a21.875,21.875,0,1,1,43.75,0V256a13.125,13.125,0,0,0,26.25,0V81a21.875,21.875,0,1,1,43.75,0V256a13.125,13.125,0,1,0,26.25,0V116a21.875,21.875,0,1,1,43.75,0V345.26a13.1238,13.1238,0,0,0,22.4047,9.28l53.0384-53.0383a23.2433,23.2433,0,0,1,34.1028,31.5393Z"/><path d="M268.4827,295.375h-140a13.125,13.125,0,0,0,0,26.25h79.5446a82.7329,82.7329,0,0,0-22.67,56.875v35a13.125,13.125,0,0,0,26.25,0v-35a56.9408,56.9408,0,0,1,56.875-56.875,13.125,13.125,0,0,0,0-26.25Z"/></g></svg>