<svg xmlns="http://www.w3.org/2000/svg" viewBox="0 0 512 512"><g id="Sun_and_moon"><path d="M177.252,98.4979a78.75,78.75,0,1,0,78.75,78.75A78.8388,78.8388,0,0,0,177.252,98.4979Zm0,131.25a52.5,52.5,0,1,1,52.5-52.5A52.5574,52.5574,0,0,1,177.252,229.7479Z"/><path d="M469.719,365.0482a13.1216,13.1216,0,0,0-14.6716,5.3448,49.296,49.296,0,0,1-6.2378,7.6434c-.0086.0043-.0086.0043-.0086.0086a49.3887,49.3887,0,0,1-69.8547-69.8377,50.461,50.461,0,0,1,7.69-6.2762,13.1282,13.1282,0,0,0-7.1521-24.054,100.6446,100.6446,0,1,0,99.6338,99.6338A13.125,13.125,0,0,0,469.719,365.0482Zm-38.5974,66.0394a74.3928,74.3928,0,1,1-86.2268-119.0009,75.7009,75.7009,0,0,0,99.9927,100.07A74.488,74.488,0,0,1,431.1216,431.0876Z"/><path d="M177.252,80.9979a13.1257,13.1257,0,0,0,13.125-13.125V45.9979a13.125,13.125,0,0,0-26.25,0v21.875A13.1257,13.1257,0,0,0,177.252,80.9979Z"/><path d="M90.6321,109.1918a13.1236,13.1236,0,1,0,18.56-18.5595L93.7254,75.1617a13.1236,13.1236,0,1,0-18.56,18.56Z"/><path d="M81.002,177.2479a13.1256,13.1256,0,0,0-13.125-13.125H46.002a13.125,13.125,0,0,0,0,26.25H67.877A13.1257,13.1257,0,0,0,81.002,177.2479Z"/><path d="M90.6321,245.3082,75.1658,260.7787a13.1236,13.1236,0,1,0,18.56,18.56l15.4663-15.4706a13.1236,13.1236,0,1,0-18.56-18.56Z"/><path d="M177.252,273.4979a13.1256,13.1256,0,0,0-13.125,13.125v21.875a13.125,13.125,0,0,0,26.25,0v-21.875A13.1256,13.1256,0,0,0,177.252,273.4979Z"/><path d="M279.3382,260.7787l-15.4664-15.4705a13.1235,13.1235,0,1,0-18.56,18.56l15.4663,15.4706a13.1236,13.1236,0,1,0,18.56-18.56Z"/><path d="M273.502,177.2479a13.1257,13.1257,0,0,0,13.125,13.125h21.875a13.125,13.125,0,0,0,0-26.25H286.627A13.1256,13.1256,0,0,0,273.502,177.2479Z"/><path d="M254.5921,113.037a13.0821,13.0821,0,0,0,9.28-3.8452l15.4664-15.4705a13.1236,13.1236,0,1,0-18.56-18.56L245.3123,90.6323a13.1228,13.1228,0,0,0,9.28,22.4047Z"/></g></svg>