<svg xmlns="http://www.w3.org/2000/svg" viewBox="0 0 512 512"><g id="Talisman"><path d="M255.8462,233.25a122.5,122.5,0,1,0,122.5,122.5A122.6376,122.6376,0,0,0,255.8462,233.25Zm0,218.75a96.25,96.25,0,1,1,96.25-96.25A96.3589,96.3589,0,0,1,255.8462,452Z"/><path d="M255.8462,282.9646a13.13,13.13,0,0,0-9.28,3.8452L186.9058,346.47a13.12,13.12,0,0,0,0,18.56l59.6606,59.6564a13.12,13.12,0,0,0,18.56,0L324.7781,365.03a13.12,13.12,0,0,0,0-18.56L265.126,286.81A13.13,13.13,0,0,0,255.8462,282.9646Zm0,113.8824L214.7451,355.75l41.1011-41.0968L296.9387,355.75Z"/><path d="M221.863,77.4763a21.8633,21.8633,0,1,0-21.8621-21.8622A21.8624,21.8624,0,0,0,221.863,77.4763Z"/><path d="M165.2615,115.5247a21.8627,21.8627,0,1,0-21.8622-21.8622A21.8625,21.8625,0,0,0,165.2615,115.5247Z"/><path d="M161.2454,156.7988a21.8622,21.8622,0,1,0-21.8622,21.8632A21.8624,21.8624,0,0,0,161.2454,156.7988Z"/><path d="M153.2131,245.4609a21.8622,21.8622,0,1,0-21.8621-21.8622A21.8633,21.8633,0,0,0,153.2131,245.4609Z"/><path d="M290.137,77.4763a21.8633,21.8633,0,1,0-21.8622-21.8622A21.8624,21.8624,0,0,0,290.137,77.4763Z"/><path d="M346.7385,115.5247a21.8627,21.8627,0,1,0-21.8622-21.8622A21.8624,21.8624,0,0,0,346.7385,115.5247Z"/><path d="M372.6168,134.9366a21.8627,21.8627,0,1,0,21.8622,21.8622A21.8624,21.8624,0,0,0,372.6168,134.9366Z"/><path d="M358.7869,201.7365a21.8622,21.8622,0,1,0,21.8621,21.8622A21.8661,21.8661,0,0,0,358.7869,201.7365Z"/></g></svg>