<svg xmlns="http://www.w3.org/2000/svg" viewBox="0 0 512 512"><g id="Tarot"><path d="M286.6179,314.5925a13.125,13.125,0,0,0,11.3648-19.6875L275.5266,256l22.4561-38.905a13.125,13.125,0,0,0-11.3648-19.6875H241.6973l-22.4646-38.9051a13.1218,13.1218,0,0,0-22.7295,0l-22.4646,38.9051H129.1179a13.125,13.125,0,0,0-11.3647,19.6875L140.2092,256l-22.456,38.905a13.125,13.125,0,0,0,11.3647,19.6875h44.9207l22.4646,38.9008a13.1218,13.1218,0,0,0,22.73,0l22.4646-38.9008ZM222.7532,294.905l-14.8853,25.7758L192.9827,294.905a13.1111,13.1111,0,0,0-11.3648-6.5625h-29.77l14.8853-25.78a13.1,13.1,0,0,0,0-13.125l-14.8853-25.78h29.7705a13.12,13.12,0,0,0,11.3648-6.5625l14.8852-25.78,14.8853,25.78a13.12,13.12,0,0,0,11.3647,6.5625h29.7705l-14.8852,25.78a13.0992,13.0992,0,0,0,0,13.125l14.8852,25.78h-29.77A13.1109,13.1109,0,0,0,222.7532,294.905Z"/><path d="M120.3765,146.6207a13.1257,13.1257,0,0,0,13.125-13.125v-30.625h30.625a13.125,13.125,0,0,0,0-26.25h-43.75a13.1257,13.1257,0,0,0-13.125,13.125v43.75A13.1256,13.1256,0,0,0,120.3765,146.6207Z"/><path d="M295.3765,76.6207h-43.75a13.125,13.125,0,0,0,0,26.25h30.625v30.625a13.125,13.125,0,0,0,26.25,0v-43.75A13.1258,13.1258,0,0,0,295.3765,76.6207Z"/><path d="M444.3913,118.226a43.4794,43.4794,0,0,0-24.6862-22.6185L351.6619,70.8444a43.6589,43.6589,0,0,0-43.16-37.9694H107.2344A43.7859,43.7859,0,0,0,63.4929,76.6122V435.3835a43.79,43.79,0,0,0,43.7415,43.7415H308.5015a43.79,43.79,0,0,0,43.7414-43.7415V408.8387L445.844,151.6708A43.4709,43.4709,0,0,0,444.3913,118.226ZM325.9929,435.3835a17.5109,17.5109,0,0,1-17.4914,17.4915H107.2344a17.5109,17.5109,0,0,1-17.4915-17.4915V76.6122A17.5072,17.5072,0,0,1,107.2344,59.125H308.5015a17.5072,17.5072,0,0,1,17.4914,17.4872Zm95.19-292.6934-68.94,189.4131V98.9924l58.4815,21.2843A17.4982,17.4982,0,0,1,421.1833,142.69Z"/><path d="M295.3765,365.3707a13.1257,13.1257,0,0,0-13.125,13.125v30.625h-30.625a13.125,13.125,0,0,0,0,26.25h43.75a13.1257,13.1257,0,0,0,13.125-13.125v-43.75A13.1258,13.1258,0,0,0,295.3765,365.3707Z"/><path d="M164.1265,409.1207h-30.625v-30.625a13.125,13.125,0,0,0-26.25,0v43.75a13.1256,13.1256,0,0,0,13.125,13.125h43.75a13.125,13.125,0,1,0,0-26.25Z"/></g></svg>