<svg id="Capa_1" enable-background="new 0 0 512 512" viewBox="0 0 512 512" xmlns="http://www.w3.org/2000/svg"><g><g><path d="m290.187 53.053 16.198 59.009c-.742.524-1.478 1.057-2.206 1.599-33.37 24.865-46.71 68.577-34.187 108.263l36.393 115.332h119.917l36.393-115.332c12.523-39.686-.817-83.398-34.187-108.263-.728-.542-1.463-1.076-2.206-1.599l16.198-59.009z" fill="#fde0be"/><path d="m339.786 170.023c0-42.421 10.913-82.289 30.066-116.97h-79.665l16.198 59.009c-.742.524-1.478 1.057-2.206 1.599-33.37 24.865-46.71 68.577-34.187 108.263l36.393 115.332h100.358c-41.484-43.489-66.957-102.386-66.957-167.233z" fill="#f7b073"/><path d="m464.376 167.881h-124.563l-30.113 36.036 44.333 48.129h99.155l9.505-30.122c5.649-17.896 6.02-36.607 1.683-54.043z" fill="#d46b5c"/><path d="m339.786 170.023c0-.716.021-1.427.027-2.141h-71.503c-4.337 17.436-3.965 36.146 1.682 54.043l9.505 30.122h74.537c-9.215-25.619-14.248-53.233-14.248-82.024z" fill="#b55348"/><path d="m198.905 363.358v-57.478c0-22.182-17.982-40.163-40.163-40.163h-11.852c.709-5.747 3.306-11.131 7.443-15.268l28.042-28.042c15.685-15.685 15.685-41.115 0-56.799l-8.525-8.525-56.441 56.441c-14.69 14.689-22.942 34.613-22.942 55.387v107.643l-50.337 50.337v75.041h55.36l50.136-50.136c32.004 0 57.949-25.945 57.949-57.949.001-11.189-3.177-21.632-8.67-30.489z" fill="#fdbeb9"/><path d="m445.87 54.18h-159.054c-12.15 0-22-9.85-22-22v-.18c0-12.15 9.85-22 22-22h159.054c12.15 0 22 9.85 22 22v.18c0 12.15-9.85 22-22 22z" fill="#f7b073"/></g><g><g fill="#fd6050"><path d="m366.343 400.968c-5.523 0-10 4.477-10 10v91.032c0 5.523 4.477 10 10 10s10-4.477 10-10v-91.032c0-5.523-4.477-10-10-10z"/><path d="m420.563 378.461c-5.523 0-10 4.477-10 10v91.033c0 5.523 4.477 10 10 10s10-4.477 10-10v-91.033c0-5.523-4.477-10-10-10z"/><path d="m312.123 378.461c-5.523 0-10 4.477-10 10v91.033c0 5.523 4.477 10 10 10s10-4.477 10-10v-91.033c0-5.523-4.477-10-10-10z"/></g><g fill="#052a75"><path d="m208.905 305.879c0-26.217-20.217-47.8-45.878-49.982l26.419-26.419c19.558-19.559 19.558-51.383 0-70.942l-8.525-8.525c-3.904-3.905-10.237-3.905-14.142 0l-56.441 56.441c-16.683 16.683-25.871 38.865-25.871 62.458v103.501l-47.409 47.409c-1.875 1.875-2.929 4.419-2.929 7.071v75.041c0 5.523 4.477 10 10 10h55.361c2.652 0 5.196-1.054 7.071-2.929l47.34-47.34c35.483-2.214 63.674-31.785 63.674-67.816 0-11.674-2.99-23.096-8.67-33.216zm-59.342 135.917c-2.63-.003-5.148 1.07-7.007 2.929l-47.207 47.207h-41.219v-60.899l47.408-47.408c1.875-1.875 2.929-4.419 2.929-7.071v-107.643c0-18.251 7.107-35.411 20.013-48.316l49.37-49.371 1.454 1.454c11.78 11.78 11.78 30.878 0 42.658l-28.042 28.042c-.374.374-.738.754-1.094 1.141-5.823 6.344-8.856 14.765-8.928 23.376l-.554 65.725c0 5.743 4.841 10.355 10.665 9.978 5.315-.344 9.335-4.995 9.335-10.321v-57.56h2.056c16.659 0 30.163 13.504 30.163 30.163v57.479c0 1.87.529 3.7 1.514 5.29 4.682 7.558 7.157 16.272 7.157 25.199-.001 26.459-21.545 47.983-48.013 47.948z"/><path d="m477.87 32.18v-.18c0-17.645-14.355-32-32-32h-159.054c-17.645 0-32 14.355-32 32v.18c0 16.284 12.229 29.756 27.984 31.739l12.147 44.251c-34.145 27.577-48 73.953-34.492 116.764l36.393 115.332c1.313 4.161 5.173 6.991 9.537 6.991h119.917c4.364 0 8.223-2.83 9.537-6.991l36.393-115.332c13.509-42.811-.347-89.187-34.492-116.764l12.147-44.251c15.754-1.983 27.983-15.455 27.983-31.739zm-59.633 71.481h-103.788l-10.838-39.481h125.464zm-143.421-71.481v-.18c0-6.617 5.383-12 12-12h159.054c6.617 0 12 5.383 12 12v.18c0 6.617-5.383 12-12 12h-159.054c-6.617 0-12-5.384-12-12zm178.342 186.735-34.187 108.341h-105.256l-34.187-108.341c-11.04-34.986.242-72.833 28.076-95.254h117.478c27.834 22.421 39.116 60.268 28.076 95.254z"/></g></g></g><g/><g/><g/><g/><g/><g/><g/><g/><g/><g/><g/><g/><g/><g/><g/></svg>