<svg xmlns="http://www.w3.org/2000/svg" viewBox="0 0 256 256"><title>icon</title><path d="M206.313,197.314a15.437,15.437,0,0,0-11.644-14.11l-22.1-5.563a5.713,5.713,0,1,1-9.414-2.72c-.6-.249-1.189-.51-1.769-.8l-12.278-6.054a5.536,5.536,0,0,1-3.087-4.965V151.78A38.757,38.757,0,0,1,128,156.218h0a38.757,38.757,0,0,1-18.02-4.438v11.326a5.536,5.536,0,0,1-3.087,4.965l-12.279,6.054c-.58.286-1.172.547-1.768.8a5.721,5.721,0,1,1-9.414,2.72l-22.1,5.563a15.437,15.437,0,0,0-11.644,14.11l-2.248,47.358a8.429,8.429,0,0,0,8.419,8.828H200.142a8.429,8.429,0,0,0,8.419-8.828Z" fill="#3a70bf"/><path d="M106.893,168.071l-1.625.8A38.835,38.835,0,0,0,128,176.218h0a38.837,38.837,0,0,0,22.732-7.346l-1.625-.8a5.536,5.536,0,0,1-3.087-4.965V151.78A38.757,38.757,0,0,1,128,156.218h0a38.757,38.757,0,0,1-18.02-4.438v11.326A5.536,5.536,0,0,1,106.893,168.071Z" fill="#c7d7e5"/><path d="M153.924,220.845h-4.7a5.714,5.714,0,0,1-10.069,0h-.116a5.712,5.712,0,1,1-11.04,2.06,5.715,5.715,0,1,1-11.04-2.06h-.116a5.714,5.714,0,0,1-10.069,0h-4.7a5,5,0,0,0-5,5V253.5h61.847V225.845A5,5,0,0,0,153.924,220.845Z" fill="#f5c84c"/><rect x="107.077" y="230.845" width="41.847" height="22.655" fill="#70d6f9"/><circle cx="91.81" cy="190.524" r="5.714" fill="#87d147"/><circle cx="96.571" cy="201" r="5.714" fill="#87d147"/><circle cx="103.238" cy="210.524" r="5.714" fill="#87d147"/><circle cx="111.81" cy="218.143" r="5.714" fill="#87d147"/><circle cx="122.286" cy="222.905" r="5.714" fill="#87d147"/><circle cx="164.19" cy="190.524" r="5.714" fill="#87d147"/><circle cx="159.429" cy="201" r="5.714" fill="#87d147"/><circle cx="152.762" cy="210.524" r="5.714" fill="#87d147"/><circle cx="144.19" cy="218.143" r="5.714" fill="#87d147"/><circle cx="133.714" cy="222.905" r="5.714" fill="#87d147"/><circle cx="88.952" cy="179.095" r="5.714" fill="#87d147"/><circle cx="167.048" cy="179.095" r="5.714" fill="#87d147"/><path d="M169.624,87.3a16.348,16.348,0,0,0-2.51.2V117.1c0,.883-.041,1.756-.1,2.624A16.322,16.322,0,1,0,169.624,87.3Z" fill="#c7d7e5"/><path d="M88.886,117.1V87.494a16.336,16.336,0,1,0,.1,32.234C88.926,118.86,88.886,117.987,88.886,117.1Z" fill="#c7d7e5"/><path d="M171.985,72.951l-4.871-.7V87.494a16.16,16.16,0,0,1,9.944,1.6V75.713A9.032,9.032,0,0,0,171.985,72.951Z" fill="#414344"/><path d="M84.015,72.951a9.032,9.032,0,0,0-5.073,2.762V89.1a16.16,16.16,0,0,1,9.944-1.6V72.25Z" fill="#414344"/><path d="M128,26.012h0a237.731,237.731,0,0,1,39.01,3.464A48.38,48.38,0,0,0,128,9.6h0A48.378,48.378,0,0,0,88.99,29.476,237.729,237.729,0,0,1,128,26.012Z" fill="#ef4460"/><path d="M146.513,69.285c-2.159-.4-4.334-.7-6.513-.953v24.78a3.388,3.388,0,0,1-3.388,3.388H119.388A3.388,3.388,0,0,1,116,93.112V68.332c-2.179.253-4.354.553-6.513.953l-20.6,2.965V117.1A39.229,39.229,0,0,0,128,156.218h0A39.229,39.229,0,0,0,167.114,117.1V72.25Z" fill="#c7d7e5"/><path d="M185,33.573c-16.571-4.911-39.332-7.561-57-7.561h0c-17.664,0-40.424,2.65-56.995,7.561a2.638,2.638,0,0,0-1.874,2.92l0,.024,9.808,39.2a9.032,9.032,0,0,1,5.073-2.762l25.472-3.666c2.159-.4,4.334-.7,6.513-.953V53.888a3.388,3.388,0,0,1,3.388-3.388h17.224A3.388,3.388,0,0,1,140,53.888V68.332c2.179.253,4.354.553,6.513.953l25.472,3.666a9.032,9.032,0,0,1,5.073,2.762l9.808-39.2,0-.023A2.638,2.638,0,0,0,185,33.573Z" fill="#3a70bf"/><path d="M161.9,181.568a5.681,5.681,0,0,1,1.257-6.651c-.6-.248-1.193-.506-1.774-.792l-10.653-5.253a38.857,38.857,0,0,1-20.785,7.292C134.689,185.284,146.792,202.813,161.9,181.568Z" fill="#70d6f9"/><path d="M94.667,179.1a5.678,5.678,0,0,1-.569,2.473c15.11,21.245,27.213,3.716,31.955-5.4a38.854,38.854,0,0,1-20.785-7.292l-10.654,5.253c-.581.287-1.175.544-1.773.792A5.689,5.689,0,0,1,94.667,179.1Z" fill="#70d6f9"/><rect x="116" y="50.5" width="24" height="46" rx="3.388" ry="3.388" fill="#f5c84c"/><circle cx="110.5" cy="101" r="5.5" fill="#818182"/><circle cx="145.5" cy="101" r="5.5" fill="#818182"/><path d="M135.665,125.73l3.327,11.086a.945.945,0,0,0,1.81,0l4.687-15.618A30.635,30.635,0,0,1,135.665,125.73Z" fill="#edf4fc"/><path d="M110.114,120.916l4.772,15.9a.945.945,0,0,0,1.81,0l3.349-11.16A30.658,30.658,0,0,1,110.114,120.916Z" fill="#edf4fc"/><path d="M74.372,144.738H72.106v-2.266a3.071,3.071,0,0,0-6.142,0v2.266H63.7a3.071,3.071,0,1,0,0,6.142h2.265v2.267a3.071,3.071,0,1,0,6.142,0V150.88h2.266a3.071,3.071,0,1,0,0-6.142Z" fill="#f5c84c"/><path d="M200.857,15.64A10.8,10.8,0,0,1,192.2,7.161a.2.2,0,0,0-.384,0,10.8,10.8,0,0,1-8.654,8.479.19.19,0,0,0,0,.376,10.794,10.794,0,0,1,8.654,8.478.2.2,0,0,0,.384,0,10.8,10.8,0,0,1,8.654-8.478A.19.19,0,0,0,200.857,15.64Z" fill="#ef4460"/><circle cx="168.019" cy="3.285" r="3.285" fill="#70d6f9"/><circle cx="49.019" cy="166.285" r="3.285" fill="#87d147"/><circle cx="186.019" cy="132.285" r="3.285" fill="#f5c84c"/><path d="M128,88.629a2.5,2.5,0,0,1-2.5-2.5V60.871a2.5,2.5,0,0,1,5,0V86.129A2.5,2.5,0,0,1,128,88.629Z"/><path d="M75.125,254.626a2.5,2.5,0,0,1-2.5-2.5V211.257a2.5,2.5,0,0,1,5,0v40.869A2.5,2.5,0,0,1,75.125,254.626Z"/><path d="M180.875,254.626a2.5,2.5,0,0,1-2.5-2.5V211.257a2.5,2.5,0,0,1,5,0v40.869A2.5,2.5,0,0,1,180.875,254.626Z"/><path d="M200.142,256H55.858a10.927,10.927,0,0,1-10.916-11.447L47.19,197.2A17.862,17.862,0,0,1,60.721,180.78l22.1-5.563a2.5,2.5,0,0,1,3.029,3.059,3.213,3.213,0,1,0,5.29-1.527,2.5,2.5,0,0,1,.744-4.136c.548-.228,1.092-.467,1.624-.73l12.279-6.054a3.015,3.015,0,0,0,1.693-2.723V151.78a2.5,2.5,0,0,1,3.66-2.215,36.3,36.3,0,0,0,33.72,0,2.5,2.5,0,0,1,3.66,2.215v11.326a3.016,3.016,0,0,0,1.694,2.723l12.276,6.054c.533.262,1.077.5,1.625.73a2.5,2.5,0,0,1,.744,4.136,3.18,3.18,0,0,0-1.026,2.346,3.215,3.215,0,1,0,6.429,0,3.155,3.155,0,0,0-.112-.819,2.5,2.5,0,0,1,3.029-3.059l22.1,5.563a17.856,17.856,0,0,1,13.53,16.4v.02l2.248,47.357A10.927,10.927,0,0,1,200.142,256ZM80.927,180.85l-18.986,4.779a12.878,12.878,0,0,0-9.757,11.825l-2.248,47.337A5.929,5.929,0,0,0,55.858,251H200.142a5.926,5.926,0,0,0,5.921-6.209l-2.247-47.345a12.876,12.876,0,0,0-9.757-11.817l-18.986-4.779a8.213,8.213,0,1,1-15.613-4.887L148,170.313a7.985,7.985,0,0,1-4.482-7.207v-7.419a41.825,41.825,0,0,1-31.04,0v7.419A7.986,7.986,0,0,1,108,170.313l-11.459,5.65a8.212,8.212,0,1,1-15.613,4.887Z"/><path d="M128,129.21a33.255,33.255,0,0,1-20.829-7.389,2.5,2.5,0,1,1,3.143-3.889,28.051,28.051,0,0,0,35.372,0,2.5,2.5,0,0,1,3.142,3.889A33.248,33.248,0,0,1,128,129.21Z"/><path d="M128,178.718a41.21,41.21,0,0,1-24.19-7.816,2.5,2.5,0,0,1,.353-4.272l1.624-.8a3.015,3.015,0,0,0,1.693-2.723V151.78a2.5,2.5,0,0,1,3.66-2.215,36.3,36.3,0,0,0,33.72,0,2.5,2.5,0,0,1,3.66,2.215v11.326a3.016,3.016,0,0,0,1.694,2.723l1.623.8a2.5,2.5,0,0,1,.353,4.272A41.212,41.212,0,0,1,128,178.718Zm-18.017-9.782a36.332,36.332,0,0,0,36.034,0,7.98,7.98,0,0,1-2.5-5.83v-7.419a41.825,41.825,0,0,1-31.04,0v7.419A7.98,7.98,0,0,1,109.983,168.936Z"/><path d="M158.924,256H97.077a2.5,2.5,0,0,1-2.5-2.5V225.845a7.508,7.508,0,0,1,7.5-7.5h4.7a2.5,2.5,0,0,1,2.2,1.316,3.215,3.215,0,0,0,5.666,0,2.5,2.5,0,0,1,2.2-1.317h.116a2.5,2.5,0,0,1,2.332,3.4,3.212,3.212,0,1,0,6.208,1.157,2.5,2.5,0,1,1,5,0,3.215,3.215,0,1,0,6.208-1.159,2.5,2.5,0,0,1,2.332-3.4h.115a2.5,2.5,0,0,1,2.2,1.316,3.216,3.216,0,0,0,5.668,0,2.5,2.5,0,0,1,2.2-1.316h4.7a7.508,7.508,0,0,1,7.5,7.5V253.5A2.5,2.5,0,0,1,158.924,256Zm-59.347-5h56.847V225.845a2.5,2.5,0,0,0-2.5-2.5h-3.376a8.221,8.221,0,0,1-9.17,2.517A8.209,8.209,0,0,1,128,228.8a8.209,8.209,0,0,1-13.378-2.938,8.221,8.221,0,0,1-9.17-2.517h-3.375a2.5,2.5,0,0,0-2.5,2.5Z"/><path d="M148.924,256H107.077a2.5,2.5,0,0,1-2.5-2.5V230.845a2.5,2.5,0,0,1,2.5-2.5h41.847a2.5,2.5,0,0,1,2.5,2.5V253.5A2.5,2.5,0,0,1,148.924,256Zm-39.347-5h36.847V233.345H109.577Z"/><path d="M91.81,198.738a8.214,8.214,0,1,1,8.214-8.214A8.224,8.224,0,0,1,91.81,198.738Zm0-11.428a3.214,3.214,0,1,0,3.214,3.214A3.217,3.217,0,0,0,91.81,187.31Z"/><path d="M96.571,209.214A8.214,8.214,0,1,1,104.786,201,8.224,8.224,0,0,1,96.571,209.214Zm0-11.428A3.214,3.214,0,1,0,99.786,201,3.218,3.218,0,0,0,96.571,197.786Z"/><path d="M103.238,218.738a8.214,8.214,0,1,1,8.214-8.214A8.224,8.224,0,0,1,103.238,218.738Zm0-11.428a3.214,3.214,0,1,0,3.214,3.214A3.217,3.217,0,0,0,103.238,207.31Z"/><path d="M111.81,226.357a8.214,8.214,0,1,1,8.214-8.214A8.224,8.224,0,0,1,111.81,226.357Zm0-11.428a3.214,3.214,0,1,0,3.214,3.214A3.218,3.218,0,0,0,111.81,214.929Z"/><path d="M122.286,231.119a8.215,8.215,0,1,1,8.214-8.214A8.224,8.224,0,0,1,122.286,231.119Zm0-11.429a3.215,3.215,0,1,0,3.214,3.215A3.218,3.218,0,0,0,122.286,219.69Z"/><path d="M164.19,198.738a8.214,8.214,0,1,1,8.214-8.214A8.223,8.223,0,0,1,164.19,198.738Zm0-11.428a3.214,3.214,0,1,0,3.214,3.214A3.216,3.216,0,0,0,164.19,187.31Z"/><path d="M159.429,209.214A8.214,8.214,0,1,1,167.643,201,8.224,8.224,0,0,1,159.429,209.214Zm0-11.428A3.214,3.214,0,1,0,162.643,201,3.218,3.218,0,0,0,159.429,197.786Z"/><path d="M152.762,218.738a8.214,8.214,0,1,1,8.215-8.214A8.223,8.223,0,0,1,152.762,218.738Zm0-11.428a3.214,3.214,0,1,0,3.215,3.214A3.217,3.217,0,0,0,152.762,207.31Z"/><path d="M144.19,226.357a8.214,8.214,0,1,1,8.214-8.214A8.223,8.223,0,0,1,144.19,226.357Zm0-11.428a3.214,3.214,0,1,0,3.214,3.214A3.217,3.217,0,0,0,144.19,214.929Z"/><path d="M133.714,231.119a8.215,8.215,0,1,1,8.215-8.214A8.224,8.224,0,0,1,133.714,231.119Zm0-11.429a3.215,3.215,0,1,0,3.215,3.215A3.217,3.217,0,0,0,133.714,219.69Z"/><path d="M88.952,187.31a8.215,8.215,0,1,1,8.215-8.215A8.224,8.224,0,0,1,88.952,187.31Zm0-11.429a3.215,3.215,0,1,0,3.215,3.214A3.218,3.218,0,0,0,88.952,175.881Z"/><path d="M167.048,187.31a8.215,8.215,0,1,1,8.214-8.215A8.225,8.225,0,0,1,167.048,187.31Zm0-11.429a3.215,3.215,0,1,0,3.214,3.214A3.218,3.218,0,0,0,167.048,175.881Z"/><path d="M169.624,122.455a18.849,18.849,0,0,1-3.006-.259,2.5,2.5,0,0,1-2.1-2.634c.064-.958.093-1.738.093-2.458V87.494a2.5,2.5,0,0,1,2.117-2.471,19.053,19.053,0,0,1,2.893-.229,18.831,18.831,0,0,1,0,37.661Zm-.012-5h.012a13.831,13.831,0,0,0,0-27.661h-.01V117.1C169.614,117.22,169.613,117.337,169.612,117.455Z"/><path d="M86.376,122.455a18.831,18.831,0,0,1,0-37.661,19.043,19.043,0,0,1,2.893.229,2.5,2.5,0,0,1,2.117,2.471V117.1c0,.735.03,1.516.093,2.455a2.5,2.5,0,0,1-2.1,2.637A18.839,18.839,0,0,1,86.376,122.455Zm0-32.661a13.831,13.831,0,0,0,0,27.661h.012c0-.118,0-.234,0-.351V89.794Z"/><path d="M177.058,91.6a2.5,2.5,0,0,1-1.141-.275,13.428,13.428,0,0,0-8.42-1.358,2.5,2.5,0,0,1-2.883-2.47V72.25a2.5,2.5,0,0,1,2.857-2.475l4.871.7c.033,0,.066.01.1.017a11.581,11.581,0,0,1,6.47,3.541,2.5,2.5,0,0,1,.648,1.679V89.1a2.5,2.5,0,0,1-2.5,2.5Zm-7.434-6.8a18.616,18.616,0,0,1,4.934.659V76.779a6.776,6.776,0,0,0-2.982-1.362l-1.962-.282v9.659Z"/><path d="M78.942,91.6a2.5,2.5,0,0,1-2.5-2.5V75.713a2.5,2.5,0,0,1,.648-1.679,11.585,11.585,0,0,1,6.469-3.541c.033-.007.066-.012.1-.017l4.871-.7a2.5,2.5,0,0,1,2.856,2.475V87.494a2.5,2.5,0,0,1-2.883,2.47,13.415,13.415,0,0,0-8.42,1.358A2.5,2.5,0,0,1,78.942,91.6Zm2.5-14.818v8.674a18.616,18.616,0,0,1,4.934-.659h.01V75.135l-1.962.282A6.776,6.776,0,0,0,81.442,76.779Z"/><path d="M167.011,31.977a2.508,2.508,0,0,1-.43-.038A235.847,235.847,0,0,0,128,28.512h0a235.789,235.789,0,0,0-38.581,3.427A2.5,2.5,0,0,1,86.975,28a50.72,50.72,0,0,1,82.05,0,2.5,2.5,0,0,1-2.014,3.979ZM128,23.512a239.162,239.162,0,0,1,32.747,2.444,45.629,45.629,0,0,0-65.494,0A239.115,239.115,0,0,1,128,23.512Z"/><path d="M128,158.718A41.661,41.661,0,0,1,86.386,117.1V72.25a2.5,2.5,0,0,1,2.144-2.475l20.6-2.965c1.9-.353,4.019-.664,6.58-.961a2.5,2.5,0,0,1,2.789,2.483v24.78a.889.889,0,0,0,.888.888h17.223a.889.889,0,0,0,.889-.888V68.332a2.5,2.5,0,0,1,2.789-2.483c2.538.3,4.647.6,6.629.968l20.553,2.958a2.5,2.5,0,0,1,2.143,2.475V117.1A41.661,41.661,0,0,1,128,158.718Zm-36.614-84.3V117.1a36.614,36.614,0,0,0,73.228,0V74.416l-18.458-2.657-.1-.016c-1.119-.207-2.284-.395-3.558-.573V93.112A5.9,5.9,0,0,1,136.611,99H119.388a5.9,5.9,0,0,1-5.888-5.888V71.17c-1.274.178-2.44.366-3.558.573Z"/><path d="M177.058,78.213a2.5,2.5,0,0,1-1.853-.821,6.558,6.558,0,0,0-3.63-1.975l-25.419-3.658c-1.982-.364-4-.659-6.445-.944a2.5,2.5,0,0,1-2.211-2.483V53.888a.889.889,0,0,0-.889-.888H119.388a.889.889,0,0,0-.888.888V68.332a2.5,2.5,0,0,1-2.211,2.483c-2.447.285-4.464.58-6.347.928L84.425,75.417a6.561,6.561,0,0,0-3.63,1.975,2.5,2.5,0,0,1-4.278-1.072l-9.808-39.2c-.016-.065-.03-.13-.041-.2a5.139,5.139,0,0,1,3.625-5.752C86,26.521,108.654,23.512,128,23.512s42,3.009,57.706,7.664a5.13,5.13,0,0,1,3.63,5.725c-.012.067-.029.157-.045.223l-9.809,39.2a2.5,2.5,0,0,1-2.424,1.893ZM71.6,36.073l8.868,35.439a11.988,11.988,0,0,1,3.091-1.019c.033-.007.066-.012.1-.017l25.472-3.666c1.323-.246,2.755-.472,4.369-.686V53.888A5.9,5.9,0,0,1,119.388,48h17.223a5.9,5.9,0,0,1,5.889,5.888V66.124c1.621.216,3.075.445,4.468.7l25.374,3.65c.033,0,.066.01.1.017a11.975,11.975,0,0,1,3.091,1.019l8.868-35.44a.181.181,0,0,0-.113-.1h0C169,31.439,146.9,28.512,128,28.512S87,31.439,71.714,35.97A.181.181,0,0,0,71.6,36.073Zm113.989.125,1.31.014-1.572-.08Z"/><path d="M147.435,194.15c-.3,0-.6-.011-.909-.032-8.629-.6-14.985-9.467-18.8-16.8a2.5,2.5,0,0,1,2.094-3.65,36.363,36.363,0,0,0,19.449-6.825,2.5,2.5,0,0,1,2.565-.212l10.653,5.253c.531.262,1.075.5,1.623.722a2.5,2.5,0,0,1,.749,4.142,3.179,3.179,0,0,0-.708,3.734,2.5,2.5,0,0,1-.215,2.536C158.683,190.409,153.134,194.15,147.435,194.15Zm-13.42-15.876c2.785,4.524,7.448,10.48,12.858,10.856,3.91.27,8.033-2.405,12.227-7.965a8.073,8.073,0,0,1-.267-2.07,8.178,8.178,0,0,1,.627-3.132l-8.516-4.2A41.365,41.365,0,0,1,134.015,178.274Z"/><path d="M108.565,194.15c-5.7,0-11.247-3.741-16.5-11.133a2.5,2.5,0,0,1-.215-2.534,3.182,3.182,0,0,0-.709-3.737,2.5,2.5,0,0,1,.749-4.14c.547-.226,1.091-.461,1.622-.723l10.655-5.253a2.5,2.5,0,0,1,2.565.212,36.366,36.366,0,0,0,19.449,6.825,2.5,2.5,0,0,1,2.094,3.65c-3.813,7.334-10.169,16.2-18.8,16.8C109.17,194.139,108.868,194.15,108.565,194.15ZM96.9,181.164c4.194,5.561,8.318,8.242,12.227,7.966,5.41-.376,10.073-6.332,12.858-10.856a41.352,41.352,0,0,1-16.929-6.51l-8.516,4.2a8.141,8.141,0,0,1,.36,5.2Z"/><path d="M136.611,99H119.388a5.9,5.9,0,0,1-5.888-5.888V53.888A5.9,5.9,0,0,1,119.388,48h17.223a5.9,5.9,0,0,1,5.889,5.888V93.112A5.9,5.9,0,0,1,136.611,99ZM119.388,53a.889.889,0,0,0-.888.888V93.112a.889.889,0,0,0,.888.888h17.223a.889.889,0,0,0,.889-.888V53.888a.889.889,0,0,0-.889-.888Z"/><path d="M110.5,109a8,8,0,1,1,8-8A8.009,8.009,0,0,1,110.5,109Zm0-11a3,3,0,1,0,3,3A3,3,0,0,0,110.5,98Z"/><path d="M145.5,109a8,8,0,1,1,8-8A8.009,8.009,0,0,1,145.5,109Zm0-11a3,3,0,1,0,3,3A3,3,0,0,0,145.5,98Z"/><path d="M139.9,139.989a3.423,3.423,0,0,1-3.3-2.455l-3.327-11.085a2.5,2.5,0,0,1,1.766-3.139,28.05,28.05,0,0,0,9.023-4.163,2.5,2.5,0,0,1,3.824,2.77L143.2,137.534A3.423,3.423,0,0,1,139.9,139.989ZM138.776,127.4l1.121,3.735,1.42-4.733Q140.068,126.954,138.776,127.4Z"/><path d="M115.791,139.989a3.425,3.425,0,0,1-3.3-2.455l-4.771-15.9a2.5,2.5,0,0,1,3.856-2.747,28.1,28.1,0,0,0,9.121,4.355,2.5,2.5,0,0,1,1.742,3.132l-3.348,11.159A3.425,3.425,0,0,1,115.791,139.989Zm-1.468-13.746,1.468,4.891,1.149-3.83Q115.61,126.83,114.323,126.243Z"/></svg>