<?xml version="1.0" encoding="UTF-8"?>
<svg id="_01" data-name="01" xmlns="http://www.w3.org/2000/svg" viewBox="0 0 128 128">
  <g>
    <path d="M46.47,58.52c-.256,0-.511-.098-.706-.293-.391-.39-.391-1.023-.001-1.414l8.07-8.08c.39-.392,1.022-.392,1.414-.001,.391,.39,.391,1.024,0,1.414l-8.07,8.08c-.195,.196-.451,.293-.708,.293Z"/>
    <path d="M49.5,68.06c-.256,0-.512-.098-.708-.293-.39-.391-.39-1.024,.001-1.414l9.07-9.06c.39-.39,1.024-.39,1.414,.001,.39,.391,.39,1.024,0,1.414l-9.07,9.06c-.195,.195-.451,.293-.707,.293Z"/>
    <path d="M61.04,56.53c-.256,0-.512-.098-.707-.293-.391-.391-.391-1.023,0-1.414l5.11-5.11c.391-.391,1.023-.391,1.414,0,.391,.391,.391,1.023,0,1.414l-5.11,5.11c-.195,.195-.451,.293-.707,.293Z"/>
    <path d="M55.45,74.69c-.256,0-.512-.098-.707-.293-.391-.391-.391-1.024,0-1.414l4.18-4.18c.391-.391,1.023-.391,1.414,0,.391,.391,.391,1.023,0,1.414l-4.18,4.18c-.195,.195-.451,.293-.707,.293Z"/>
    <path d="M62.38,67.76c-.256,0-.512-.098-.707-.293-.39-.391-.39-1.024,0-1.414l10.06-10.05c.39-.39,1.024-.391,1.414,0,.39,.391,.39,1.024,0,1.414l-10.06,10.05c-.195,.195-.451,.292-.707,.292Z"/>
    <path d="M62.94,79.78c-.256,0-.512-.098-.708-.293-.39-.391-.39-1.024,0-1.415l15.16-15.15c.391-.39,1.024-.39,1.415,0,.39,.391,.39,1.024,0,1.415l-15.16,15.15c-.195,.195-.451,.292-.707,.292Z"/>
    <path d="M73.79,81.52c-.256,0-.511-.097-.707-.292-.391-.39-.392-1.023-.001-1.414l5.7-5.71c.39-.392,1.023-.393,1.414,0,.391,.39,.392,1.023,.001,1.414l-5.7,5.71c-.195,.196-.451,.293-.708,.293Z"/>
  </g>
  <g>
    <path d="M17.72,36.95c-.256,0-.512-.098-.707-.293-.391-.391-.391-1.023,0-1.414l10.38-10.38c.391-.391,1.023-.391,1.414,0,.391,.391,.391,1.023,0,1.414l-10.38,10.38c-.195,.195-.451,.293-.707,.293Z"/>
    <path d="M30.78,23.89c-.256,0-.512-.098-.707-.293-.391-.391-.391-1.024,0-1.414l3.92-3.92c.391-.391,1.023-.391,1.414,0,.391,.391,.391,1.024,0,1.414l-3.92,3.92c-.195,.195-.451,.293-.707,.293Z"/>
    <path d="M26.11,41.14c-.256,0-.512-.098-.707-.293-.391-.391-.391-1.024,0-1.414l3-3c.391-.391,1.024-.391,1.414,0s.391,1.023,0,1.414l-3,3c-.195,.195-.451,.293-.707,.293Z"/>
    <path d="M31.41,35.83c-.256,0-.512-.098-.708-.293-.39-.391-.39-1.024,.001-1.414l7.7-7.69c.391-.39,1.024-.39,1.414,.001,.39,.391,.39,1.024-.001,1.414l-7.7,7.69c-.195,.195-.451,.293-.706,.293Z"/>
  </g>
  <g>
    <path d="M85.95,94.51c-.256,0-.512-.098-.707-.293-.391-.391-.391-1.023,0-1.414l6.53-6.53c.391-.391,1.023-.391,1.414,0,.391,.391,.391,1.023,0,1.414l-6.53,6.53c-.195,.195-.451,.293-.707,.293Z"/>
    <path d="M88.16,104.88c-.256,0-.512-.098-.708-.293-.39-.391-.39-1.024,.001-1.414l8.86-8.85c.39-.39,1.024-.39,1.414,0,.39,.391,.39,1.024,0,1.414l-8.86,8.85c-.195,.195-.451,.292-.707,.292Z"/>
    <path d="M99.7,93.34c-.256,0-.513-.098-.708-.294-.39-.391-.389-1.024,.002-1.415l2.93-2.92c.391-.39,1.023-.388,1.415,.003,.39,.391,.389,1.024-.003,1.414l-2.93,2.92c-.195,.194-.451,.292-.706,.292Z"/>
    <path d="M93.33,112.29c-.256,0-.512-.098-.707-.293-.391-.391-.391-1.023,0-1.414l3.92-3.92c.391-.391,1.023-.391,1.414,0,.391,.391,.391,1.023,0,1.414l-3.92,3.92c-.195,.195-.451,.293-.707,.293Z"/>
    <path d="M99.5,106.12c-.256,0-.512-.098-.707-.293-.391-.391-.391-1.023,0-1.414l10.67-10.67c.391-.391,1.023-.391,1.414,0,.391,.391,.391,1.023,0,1.414l-10.67,10.67c-.195,.195-.451,.293-.707,.293Z"/>
  </g>
  <path d="M74.292,88.63c-.686,0-1.348-.01-1.994-.031-.546-.017-.982-.469-.974-1.015,.008-.546,.448-.984,.995-.984,1.925,.06,3.947,.03,6.392-.092,.045-.009,.092-.015,.139-.017,1.204-.06,2.388-.13,3.562-.21,1.21-.081,2.408-.151,3.586-.201,2.544-.15,4.623-.183,6.525-.1,.793,.027,1.629,.088,2.621,.193,.509,.047,.911,.475,.911,.996,0,.552-.442,1-.995,1h-.01c-.035,0-.07-.002-.105-.005-.949-.101-1.743-.159-2.499-.185-1.841-.079-3.854-.047-6.347,.099-1.178,.05-2.36,.121-3.552,.2-1.14,.077-2.29,.146-3.458,.204-.045,.009-.09,.014-.137,.017-1.725,.088-3.246,.132-4.659,.132Z"/>
  <path d="M101.721,82.271c-.091,0-.184-.013-.276-.039-2.008-.575-4.166-.97-6.415-1.175-.55-.05-.955-.537-.905-1.087,.05-.55,.539-.942,1.087-.905,2.374,.217,4.656,.635,6.785,1.245,.531,.152,.838,.706,.686,1.237-.125,.439-.526,.725-.961,.725Z"/>
  <path d="M113.211,96.819c-1.17,0-2.34-.444-3.228-1.333-.002-.001-.003-.003-.005-.005-.001-.001-.003-.003-.004-.004l-.13-.13c-2.982-2.983-6.187-4.989-9.795-6.134-.526-.167-.818-.729-.651-1.255,.167-.527,.731-.816,1.255-.651,3.921,1.244,7.39,3.412,10.604,6.627l-.01,.014c.054,.037,.104,.079,.15,.125h0c.993,.993,2.613,1,3.611,.015,.486-.479,.756-1.12,.76-1.805,.004-.684-.258-1.326-.737-1.808-.02-.017-.131-.132-.149-.15-.449-.438-.888-.868-1.336-1.268-.412-.368-.448-1-.081-1.412s1-.449,1.412-.081c.471,.42,.933,.871,1.404,1.332,.05,.038,.138,.126,.227,.233,.799,.8,1.267,1.947,1.261,3.166-.007,1.22-.488,2.363-1.355,3.218-.885,.872-2.043,1.307-3.201,1.307Z"/>
  <path d="M110.829,86.61c-.197,0-.396-.058-.569-.179-1.548-1.075-3.193-2.006-4.89-2.769-.503-.227-.728-.818-.502-1.322,.226-.504,.819-.729,1.322-.502,1.809,.813,3.562,1.806,5.211,2.951,.454,.315,.566,.938,.251,1.392-.194,.28-.505,.43-.822,.43Z"/>
  <path d="M68.182,88.28c-.041,0-.083-.003-.125-.008-3.169-.394-6.016-1.116-8.703-2.205-.512-.208-.758-.791-.551-1.303,.207-.512,.791-.758,1.303-.551,2.522,1.023,5.204,1.702,8.198,2.074,.548,.068,.937,.567,.869,1.116-.063,.506-.494,.877-.991,.877Z"/>
  <path d="M46.57,76.26c-.287,0-.572-.123-.77-.361-1.957-2.354-3.558-4.923-4.755-7.635-.223-.505,.005-1.096,.51-1.319,.503-.223,1.096,.004,1.319,.51,1.139,2.578,2.599,4.921,4.464,7.165,.353,.424,.295,1.055-.13,1.408-.186,.155-.413,.231-.639,.231Z"/>
  <path d="M74.132,81.521c-.117,0-.232,0-.348-.001-4.432-.023-7.99-.597-11.197-1.804-3.413-1.29-6.466-3.31-9.334-6.179-.002-.002-.081-.085-.084-.088-1.892-1.907-3.359-3.821-4.538-5.895-1.692-2.963-2.724-6.209-3.154-9.919-.396-3.442-.251-6.947-.035-10.221,.037-.551,.516-.962,1.064-.932,.551,.037,.968,.513,.932,1.064-.21,3.181-.352,6.576,.026,9.86,.398,3.436,1.348,6.432,2.905,9.159,1.086,1.911,2.442,3.679,4.145,5.405,.05,.045,.096,.092,.14,.139,2.677,2.677,5.498,4.549,8.639,5.735,2.978,1.121,6.315,1.654,10.502,1.676,1.586,.006,3.331-.045,5.457-.168,.869-.049,1.755-.107,2.651-.165l.788-.05c1.232-.077,2.479-.155,3.739-.205,1.688-.084,3.101-.108,4.44-.081,.552,.012,.991,.468,.979,1.021-.011,.553-.485,.993-1.021,.979-1.291-.026-2.661-.001-4.311,.079-1.254,.05-2.485,.127-3.703,.204l-.725,.045c-.96,.062-1.852,.121-2.725,.17-2.014,.117-3.69,.172-5.234,.172Z"/>
  <path d="M46.951,41.32c-.021,0-.042,0-.064-.002-.551-.035-.97-.509-.936-1.061,.079-1.255,.128-2.532,.148-3.793,.009-.552,.461-.973,1.016-.984,.552,.009,.993,.463,.984,1.016-.02,1.292-.071,2.6-.152,3.887-.033,.53-.473,.938-.997,.938Z"/>
  <path d="M43.951,20.74c-.376,0-.735-.212-.906-.575-.773-1.647-1.714-3.242-2.795-4.74-.324-.448-.223-1.073,.225-1.396,.45-.323,1.073-.222,1.396,.225,1.154,1.599,2.159,3.301,2.985,5.061,.235,.5,.02,1.095-.48,1.33-.137,.065-.282,.095-.424,.095Z"/>
  <path d="M39.13,53.93c-.55,0-.997-.444-1-.994-.011-1.804,.071-3.545,.151-5.011,.03-.551,.49-.978,1.054-.943,.551,.03,.974,.502,.943,1.054-.079,1.435-.159,3.139-.148,4.889,.003,.552-.442,1.003-.994,1.006h-.006Z"/>
  <path d="M39.791,41.83c-.022,0-.044,0-.067-.002-.551-.037-.968-.513-.932-1.064,.341-5.136,.36-9.376-.651-13.378-1.041-4.122-3.151-7.747-6.452-11.082-1.766-1.778-1.749-4.669,.037-6.443,1.787-1.762,4.672-1.749,6.434,.025h0c.007,.007,.015,.015,.021,.022l.248,.255c.181,.186,.36,.369,.535,.558,.375,.405,.351,1.038-.055,1.413-.405,.375-1.038,.351-1.413-.055-.163-.176-.33-.347-.499-.52l-.257-.265s-.004-.004-.006-.006c-.988-.986-2.602-.992-3.602-.005-1.001,.994-1.013,2.616-.022,3.613,3.559,3.598,5.839,7.523,6.97,12,1.197,4.732,.993,9.709,.708,14.001-.035,.528-.475,.934-.997,.934Z"/>
  <path d="M46.989,33.01c-.521,0-.961-.404-.997-.932-.206-3.023-.695-5.717-1.496-8.234-.167-.526,.124-1.089,.65-1.256,.526-.166,1.089,.123,1.256,.65,.85,2.672,1.368,5.52,1.584,8.705,.038,.551-.379,1.028-.93,1.065-.023,.001-.046,.002-.069,.002Z"/>
  <path d="M40.7,65.501c-.428,0-.824-.278-.956-.708-.698-2.287-1.156-4.658-1.4-7.248-.052-.55,.352-1.038,.902-1.089,.549-.051,1.038,.352,1.089,.902,.231,2.454,.663,4.695,1.321,6.852,.161,.528-.136,1.087-.664,1.249-.097,.03-.196,.044-.292,.044Z"/>
  <path d="M56.299,84.5c-.164,0-.331-.04-.485-.126-2.646-1.473-5.183-3.409-7.539-5.755-.392-.39-.393-1.023-.003-1.414,.39-.392,1.022-.393,1.414-.003,2.226,2.217,4.615,4.042,7.101,5.424,.483,.269,.656,.877,.388,1.36-.183,.329-.524,.514-.875,.514Z"/>
  <path d="M34.586,49.141c-1.209,0-2.427-.036-3.657-.123-.551-.039-.966-.517-.927-1.068,.039-.551,.519-.958,1.068-.927,4.137,.293,8.206-.014,12.142-.312l.456-.034c4.34-.321,8.451-.624,12.454-.222l4.435-4.443c-6.05-1.298-12.172-.826-17.629-.405l-.33,.024c-3.757,.276-7.307,.536-10.771,.348-.421-.021-.849-.052-1.265-.093-6.641-.578-11.95-3.036-16.694-7.735-.487-.483-1.094-.747-1.814-.743-.682,.004-1.322,.273-1.803,.757-.98,1.001-.979,2.622,.007,3.608,3.746,3.709,7.796,6.224,12.399,7.705,.526,.169,.815,.733,.646,1.258-.17,.525-.733,.816-1.258,.646-4.91-1.58-9.22-4.253-13.178-8.172-1.781-1.781-1.789-4.664-.041-6.45,.861-.868,2.002-1.347,3.217-1.354h.026c1.209,0,2.347,.469,3.207,1.323,4.453,4.41,9.226,6.62,15.473,7.164,.396,.04,.789,.068,1.182,.087,3.342,.182,6.831-.074,10.523-.345l.326-.024c6.128-.471,13.077-1.007,20.006,.883,.344,.094,.612,.363,.703,.708,.092,.344-.007,.711-.259,.963l-6.03,6.04c-.216,.216-.518,.321-.822,.287-3.967-.458-8.141-.15-12.561,.177l-.361,.026c-2.921,.221-5.866,.443-8.867,.443Z"/>
  <path d="M91.232,118.797c-1.206,0-2.343-.466-3.205-1.315-.076-.076-.147-.149-.217-.234-9.46-9.444-10.358-19.905-9.91-29.793,.024-.542,.486-.989,1.021-.959,.543,.012,.978,.451,.978,.995v.01c-.399,8.83-.036,18.99,9.387,28.402,.092,.104,.122,.132,.15,.161,.479,.472,1.118,.734,1.796,.734h.014c.682-.003,1.321-.273,1.8-.759,.992-.999,.989-2.618-.004-3.611l.632-.782-.705,.709c-.181-.18-.282-.283-.384-.396-2.33-2.377-4.083-4.9-5.329-7.679-1.399-3.137-2.132-6.545-2.306-10.728-.082-1.879-.053-3.892,.09-6.526,.03-.551,.505-.978,1.053-.944,.551,.03,.974,.502,.944,1.053-.14,2.566-.167,4.519-.089,6.332,.164,3.923,.842,7.099,2.134,9.996,1.147,2.558,2.77,4.89,4.961,7.127,.108,.119,.186,.196,.272,.283,.006,.006,.142,.142,.148,.147,1.763,1.763,1.769,4.648,.005,6.424-.852,.865-1.994,1.346-3.211,1.353h-.025Z"/>
  <path d="M79.311,81.35c-.02,0-.039,0-.059-.002-.551-.032-.972-.505-.941-1.057,.089-1.525,.19-3.526,.179-5.477-.011-1.799-.098-3.27-.272-4.628-.04-.308,.065-.616,.285-.835l6.01-6.01c.251-.251,.617-.351,.961-.26,.344,.09,.614,.356,.709,.698,1.567,5.609,1.544,11.1,1.286,16.2-.028,.551-.48,.989-1.049,.948-.551-.028-.976-.497-.948-1.049,.223-4.41,.267-9.114-.792-13.874l-4.418,4.418c.145,1.302,.219,2.709,.229,4.38,.011,2.007-.091,4.049-.182,5.604-.031,.532-.472,.942-.998,.942Z"/>
  <path d="M89.368,60.903c-.109,0-.219-.018-.326-.055-.361-.124-.62-.444-.667-.824-.71-5.793-2.91-10.258-7.13-14.478l-.133-.134c-4.209-4.165-8.844-6.416-14.584-7.077-.381-.044-.703-.302-.83-.664-.126-.362-.034-.765,.237-1.036l6.038-6.038c.254-.253,.623-.352,.971-.257,5.479,1.499,10.25,4.312,14.585,8.6l.161,.161c4.282,4.283,7.113,9.032,8.653,14.52,.098,.348,0,.722-.256,.977l-6.013,6.013c-.19,.191-.446,.293-.707,.293Zm-20.614-24.257c5.303,.975,9.719,3.341,13.771,7.351l.137,.138c4.005,4.004,6.384,8.389,7.392,13.67l4.203-4.203c-1.478-4.914-4.092-9.2-7.978-13.087l-.157-.157c-3.932-3.889-8.239-6.489-13.147-7.931l-4.22,4.22Z"/>
  <path d="M41,59.001c-.105,0-.211-.017-.316-.052l-4.021-1.34c-.919-.307-1.558-1.129-1.627-2.097-.068-.967,.447-1.872,1.314-2.305l4.203-2.102c.495-.248,1.095-.046,1.342,.447,.247,.494,.047,1.095-.447,1.342l-4.203,2.102c-.202,.101-.22,.278-.213,.374,.007,.097,.05,.27,.265,.341l4.021,1.34c.524,.175,.807,.741,.632,1.265-.14,.419-.53,.684-.949,.684Z"/>
  <path d="M40.585,68.946c-.88,0-1.684-.496-2.077-1.293-.416-.844-.284-1.847,.336-2.554l2.944-3.355c.363-.415,.997-.457,1.411-.092,.415,.364,.456,.996,.092,1.411l-2.944,3.355c-.116,.132-.089,.264-.046,.351,.043,.087,.133,.19,.306,.177l4.018-.263c.549-.036,1.027,.381,1.064,.933,.036,.551-.382,1.027-.933,1.064l-4.017,.263c-.052,.003-.103,.005-.154,.005Z"/>
  <path d="M47.154,79.737c-.497,0-.989-.168-1.394-.497-.694-.564-.976-1.482-.718-2.338l1.148-3.903c.155-.53,.712-.834,1.241-.678,.53,.155,.833,.711,.678,1.241l-1.15,3.912c-.011,.036-.04,.131,.064,.215,.074,.06,.15,.067,.23,.023l3.228-1.759c.486-.264,1.093-.084,1.357,.399,.265,.485,.086,1.092-.399,1.357l-3.231,1.76c-.332,.18-.693,.269-1.053,.269Z"/>
  <path d="M57.351,87.806c-.338,0-.678-.078-.994-.237-.799-.403-1.271-1.24-1.205-2.132l.305-4.064c.041-.551,.513-.97,1.072-.922,.551,.041,.964,.521,.922,1.072l-.305,4.064c-.002,.034-.01,.136,.111,.197,.123,.061,.199-.005,.225-.027l2.787-2.398c.419-.361,1.05-.313,1.41,.105,.36,.419,.313,1.05-.105,1.41l-2.787,2.398c-.41,.352-.92,.535-1.436,.535Z"/>
  <path d="M69.907,91.278c-.132,0-.266-.011-.399-.034-.928-.161-1.661-.858-1.867-1.777l-.979-4.358c-.121-.539,.218-1.074,.756-1.195,.536-.123,1.073,.217,1.195,.756l.979,4.358c.039,.172,.162,.228,.257,.245,.095,.015,.231,.005,.324-.144l2.156-3.405c.294-.466,.912-.607,1.38-.31,.466,.295,.605,.913,.31,1.379l-2.155,3.405c-.431,.681-1.17,1.079-1.956,1.079Z"/>
  <path d="M95.632,82.729c-.427,0-.823-.277-.956-.707l-1.184-3.852c-.052-.169-.178-.215-.275-.225-.098-.01-.23,.012-.312,.168l-2.092,3.947c-.259,.487-.863,.673-1.352,.415-.488-.259-.674-.864-.416-1.352l2.092-3.947c.441-.832,1.327-1.311,2.269-1.223,.937,.089,1.722,.728,1.998,1.628l1.184,3.851c.162,.528-.134,1.087-.662,1.25-.098,.03-.197,.044-.294,.044Z"/>
  <path d="M45.215,37.916c-.455,0-.867-.312-.973-.775-.124-.538,.211-1.075,.749-1.199l3.926-.907c.172-.04,.227-.163,.243-.259,.016-.096,.003-.231-.146-.324l-3.789-2.366c-.468-.292-.611-.909-.318-1.378,.293-.468,.908-.611,1.378-.318l3.789,2.366c.798,.499,1.214,1.421,1.059,2.35-.155,.928-.848,1.666-1.765,1.878l-3.927,.907c-.076,.018-.151,.026-.226,.026Z"/>
  <path d="M43.977,25.852c-.276,0-.55-.113-.748-.335-.367-.413-.33-1.044,.083-1.412l3.01-2.679c.132-.118,.122-.252,.089-.344-.032-.092-.107-.204-.283-.214l-4.459-.26c-.551-.032-.972-.505-.94-1.057,.032-.551,.508-.97,1.057-.94l4.459,.26c.94,.055,1.747,.665,2.056,1.554,.309,.889,.054,1.869-.649,2.495l-3.011,2.679c-.19,.169-.428,.253-.664,.253Z"/>
  <path d="M40.576,16.962c-.132,0-.267-.026-.396-.083-.507-.219-.741-.807-.522-1.314l1.596-3.7c.07-.162,.003-.279-.064-.349-.068-.07-.182-.138-.347-.075l-4.152,1.649c-.513,.207-1.094-.047-1.298-.56-.204-.513,.047-1.095,.56-1.298l4.152-1.649c.873-.349,1.864-.137,2.52,.539,.656,.676,.839,1.671,.466,2.535l-1.596,3.7c-.163,.378-.531,.604-.918,.605Z"/>
  <path d="M113.652,90.913c-.109,0-.22-.018-.329-.056-.522-.182-.797-.752-.615-1.273l1.327-3.805c.058-.167-.016-.279-.089-.344-.074-.065-.194-.127-.352-.049l-4.022,1.943c-.497,.241-1.096,.032-1.335-.465-.24-.498-.032-1.095,.465-1.336l4.022-1.943c.847-.408,1.851-.27,2.553,.357,.703,.627,.957,1.606,.646,2.495l-1.327,3.805c-.144,.413-.531,.671-.944,.671Z"/>
  <path d="M105.749,85.472h-.016c-.552-.008-.993-.463-.985-1.015l.061-4.029c.003-.176-.104-.259-.193-.298-.088-.039-.222-.06-.349,.064l-3.206,3.111c-.396,.384-1.029,.375-1.414-.022-.384-.396-.375-1.029,.021-1.414l3.206-3.111c.674-.656,1.669-.839,2.535-.464,.864,.373,1.414,1.223,1.4,2.164l-.061,4.029c-.008,.547-.455,.985-.999,.985Z"/>
  <path d="M61.496,114.401c-.517,0-.954-.397-.996-.92h0c-.095-1.2-.651-2.29-1.565-3.069-.914-.778-2.081-1.158-3.277-1.06t0,0c-.559,.039-1.033-.367-1.077-.917-.043-.551,.367-1.033,.917-1.077h0c1.346-.107,2.555-.797,3.316-1.893,.315-.454,.938-.565,1.392-.251,.454,.315,.566,.938,.251,1.392-.397,.571-.877,1.067-1.419,1.474,.422,.223,.822,.493,1.194,.81,.374,.319,.707,.674,.995,1.058,.268-.509,.604-.984,1.004-1.411,.378-.403,1.011-.422,1.414-.045,.403,.378,.423,1.011,.045,1.414-.872,.93-1.297,2.143-1.196,3.416,0,0,0,0,0,.001,.043,.55-.367,1.032-.917,1.076-.027,.002-.054,.003-.081,.003Z"/>
  <path d="M68.876,22.69c-.248,0-.497-.092-.69-.276-.4-.381-.415-1.014-.034-1.414,1.09-1.144,1.111-2.938,.048-4.084-.539-.582-1.273-.917-2.069-.944-.791-.035-1.561,.258-2.151,.804-.916,.849-1.212,2.185-.738,3.326,.212,.51-.029,1.095-.54,1.307-.51,.214-1.096-.029-1.307-.54-.794-1.91-.302-4.145,1.226-5.56,.978-.907,2.241-1.383,3.579-1.336,1.332,.046,2.563,.608,3.467,1.583,1.78,1.921,1.751,4.918-.067,6.824-.196,.206-.46,.31-.724,.31Z"/>
  <g>
    <path d="M114.534,68.777c-.328,0-.649-.161-.84-.457l-1.617-2.498c-.3-.464-.167-1.083,.296-1.383,.464-.3,1.083-.167,1.383,.296l1.617,2.498c.3,.464,.167,1.083-.296,1.383-.168,.109-.356,.161-.542,.161Z"/>
    <path d="M110.724,62.888c-.328,0-.649-.161-.84-.457l-1.612-2.491c-.3-.464-.168-1.083,.296-1.383,.464-.3,1.083-.167,1.383,.296l1.612,2.491c.3,.464,.167,1.083-.296,1.383-.168,.109-.356,.161-.543,.161Z"/>
    <path d="M107.627,67.297c-.328,0-.649-.161-.84-.457-.3-.464-.167-1.083,.296-1.383l2.499-1.617c.464-.301,1.083-.167,1.383,.296,.3,.464,.167,1.083-.296,1.383l-2.499,1.617c-.168,.109-.356,.161-.542,.161Z"/>
    <path d="M113.516,63.486c-.328,0-.649-.161-.841-.457-.3-.463-.167-1.083,.297-1.383l2.491-1.611c.462-.3,1.083-.167,1.383,.297,.3,.463,.167,1.083-.297,1.383l-2.491,1.611c-.167,.108-.356,.16-.542,.16Z"/>
  </g>
  <path d="M88.999,35c-.224,0-.449-.075-.636-.229-.426-.351-.487-.981-.135-1.408l3.8-4.61c.352-.426,.981-.486,1.408-.135,.426,.351,.487,.981,.135,1.408l-3.8,4.61c-.198,.24-.484,.364-.772,.364Z"/>
  <path d="M95.419,27.21c-.224,0-.449-.075-.635-.228-.427-.351-.488-.981-.137-1.407l7.58-9.21c.351-.427,.982-.488,1.407-.137,.427,.351,.488,.981,.137,1.407l-7.58,9.21c-.198,.24-.484,.365-.772,.365Z"/>
  <path d="M92.999,38.001c-.427,0-.823-.276-.955-.707-.163-.528,.134-1.087,.662-1.249l13-4c.525-.165,1.087,.133,1.249,.662,.163,.528-.134,1.087-.662,1.249l-13,4c-.098,.03-.197,.045-.294,.045Z"/>
  <path d="M85,32c-.552,0-1-.448-1-1v-13c0-.552,.448-1,1-1s1,.448,1,1v13c0,.552-.448,1-1,1Z"/>
  <path d="M21,103c-.256,0-.512-.098-.707-.293-.391-.391-.391-1.023,0-1.414l10.5-10.5c.391-.391,1.023-.391,1.414,0,.391,.391,.391,1.023,0,1.414l-10.5,10.5c-.195,.195-.451,.293-.707,.293Z"/>
  <path d="M36.5,87.5c-.256,0-.512-.098-.707-.293-.391-.391-.391-1.023,0-1.414l5.5-5.5c.391-.391,1.023-.391,1.414,0,.391,.391,.391,1.023,0,1.414l-5.5,5.5c-.195,.195-.451,.293-.707,.293Z"/>
  <path d="M45.001,104c-.018,0-.036,0-.054-.001-.551-.029-.975-.5-.946-1.051l1-19c.029-.551,.509-.972,1.051-.946,.551,.029,.975,.499,.946,1.051l-1,19c-.028,.533-.47,.947-.997,.947Z"/>
  <path d="M39.001,78c-.018,0-.036,0-.054-.002l-19-1c-.551-.029-.975-.499-.946-1.051,.029-.551,.512-.969,1.051-.946l19,1c.551,.029,.975,.499,.946,1.051-.028,.533-.47,.947-.997,.947Z"/>
</svg>