<?xml version="1.0" encoding="UTF-8"?>
<svg id="_13" data-name="13" xmlns="http://www.w3.org/2000/svg" viewBox="0 0 128 128">
  <path d="M16.169,87.64c-.152,0-.307-.035-.452-.108-.493-.25-.689-.852-.439-1.345,1.444-2.843,3.358-5.325,5.691-7.378,.414-.364,1.047-.324,1.411,.09,.365,.415,.325,1.047-.09,1.412-2.141,1.884-3.9,4.166-5.229,6.782-.176,.347-.528,.547-.893,.547Z"/>
  <path d="M19.87,104c-.441,0-.844-.293-.965-.739-.852-3.149-.791-6.8,.171-10.277,.154-.618,.36-1.256,.604-1.872,1.034-2.793,2.581-5.218,4.59-7.185,.393-.389,1.027-.381,1.414,.014,.386,.395,.38,1.028-.015,1.414-1.796,1.76-3.183,3.939-4.122,6.475-.22,.555-.398,1.107-.537,1.664-.875,3.162-.935,6.438-.175,9.247,.144,.532-.171,1.082-.704,1.226-.087,.024-.175,.035-.262,.035Z"/>
  <path d="M13.719,104c-.471,0-.89-.333-.981-.812-.562-2.949-.563-6.173-.002-9.323,.096-.544,.615-.909,1.16-.809,.544,.097,.906,.616,.809,1.16-.519,2.912-.519,5.885-.002,8.597,.104,.543-.252,1.066-.795,1.17-.063,.012-.126,.018-.188,.018Z"/>
  <path d="M116.42,55.42c-.093,0-.188-.013-.282-.041-.53-.155-.833-.712-.677-1.241,.766-2.602,.897-5.093,.393-7.404-.098-.468-.229-.935-.394-1.396-.187-.521,.085-1.093,.604-1.278,.522-.188,1.094,.085,1.278,.604,.196,.55,.353,1.106,.468,1.653,.575,2.634,.432,5.459-.431,8.386-.128,.436-.526,.718-.959,.718Z"/>
  <path d="M101.441,73.08c-.352,0-.693-.186-.876-.516-.267-.483-.093-1.092,.391-1.359,2.223-1.229,4.324-2.753,6.245-4.529,.404-.375,1.037-.35,1.413,.056,.375,.405,.35,1.038-.056,1.413-2.039,1.885-4.27,3.503-6.634,4.811-.153,.085-.319,.125-.483,.125Z"/>
  <path d="M86.381,87.93c-.066,0-.133-.007-.2-.021-.542-.109-.891-.638-.78-1.179,.348-1.709,1.099-4.27,2.698-6.761,.298-.465,.917-.601,1.382-.302,.465,.299,.6,.917,.302,1.382-1.434,2.231-2.108,4.538-2.423,6.079-.096,.475-.513,.801-.978,.801Z"/>
  <path d="M79.431,72.66c-.324,0-.642-.157-.834-.447-.306-.46-.181-1.08,.28-1.386,4.01-2.663,9.255-4.492,16.033-5.595,3.65-.597,7.487-3.395,10.263-7.484,2.285-3.368,3.382-6.933,2.86-9.303-.195-.889-.692-1.638-1.522-2.289-.257-.181-.426-.479-.426-.816,0-.553,.442-1,.995-1h.01c.222,0,.437,.073,.612,.209,1.218,.943,1.987,2.11,2.284,3.468,.645,2.932-.536,6.99-3.158,10.855-3.078,4.536-7.413,7.652-11.597,8.336-6.492,1.055-11.48,2.784-15.249,5.286-.17,.113-.362,.167-.552,.167Z"/>
  <path d="M70.229,95.62c-.497,0-.928-.369-.991-.875-.032-.255-.063-.51-.085-.764-.016-.099-.029-.254-.042-.411l-.017-.192c-.192-2.441-.095-4.848,.289-7.171,.09-.544,.593-.923,1.149-.823,.545,.09,.913,.605,.823,1.149-.357,2.163-.448,4.407-.269,6.669l.018,.205c.01,.116,.019,.231,.036,.351,.024,.286,.054,.512,.082,.737,.069,.548-.319,1.048-.867,1.117-.042,.005-.085,.008-.126,.008Z"/>
  <path d="M72.59,104c-.395,0-.771-.237-.928-.627l-.042-.092c-.03-.065-.06-.13-.088-.198-.192-.431-.378-.896-.563-1.369-.355-.917-.667-1.883-.954-2.955-.052-.191-.076-.297-.089-.41-.06-.55,.337-1.043,.886-1.102,.549-.056,1.027,.325,1.1,.86,.009,.035,.044,.171,.044,.171,.26,.966,.55,1.865,.878,2.711,.173,.443,.347,.879,.541,1.315l.056,.125c.03,.065,.06,.13,.088,.198,.206,.513-.042,1.095-.555,1.301-.122,.049-.249,.072-.373,.072Z"/>
  <path d="M89.831,104c-.308,0-.611-.142-.808-.408-.807-1.101-1.506-2.307-2.076-3.585-.089-.184-.187-.405-.276-.626-.152-.366-.301-.757-.437-1.157-.164-.449-.303-.918-.43-1.394-.071-.246-.148-.522-.203-.786-.067-.267-.105-.458-.143-.645-.084-.38-.136-.7-.187-1.014-.061-.406-.103-.747-.144-1.098-.001-.009-.012-.098-.012-.105-.042-.394-.064-.706-.074-1.029-.021-.264-.031-.568-.031-.872,0-.553,.447-1,1-1s1,.447,1,1c0,.255,.009,.511,.027,.767,.012,.317,.03,.585,.058,.853l-.979,.234,.993-.115c.044,.363,.082,.683,.131,1.002,.051,.319,.095,.598,.156,.869,.002,.009,.023,.109,.023,.118,.031,.155,.062,.316,.102,.471,.003,.013,.036,.146,.039,.158,.045,.216,.108,.44,.171,.656,.118,.44,.239,.853,.389,1.266,.13,.378,.263,.727,.404,1.067,.076,.192,.157,.371,.238,.541,.524,1.174,1.151,2.256,1.875,3.241,.326,.445,.23,1.071-.215,1.398-.179,.13-.386,.193-.591,.193Z"/>
  <path d="M71.269,83.53c-.098,0-.197-.015-.296-.045-.527-.163-.822-.724-.659-1.251,1.125-3.633,2.964-6.605,5.624-9.086,.403-.376,1.035-.356,1.413,.05,.377,.403,.354,1.036-.05,1.413-2.397,2.236-4.058,4.923-5.077,8.215-.133,.429-.528,.704-.955,.704Z"/>
  <path d="M91.15,78.77c-.257,0-.514-.099-.71-.295-.389-.393-.387-1.025,.005-1.415,1.664-1.652,3.7-2.967,6.054-3.908,.508-.204,1.095,.043,1.3,.558,.205,.513-.045,1.095-.558,1.3-2.102,.841-3.914,2.008-5.386,3.471-.195,.193-.45,.29-.705,.29Z"/>
  <path d="M110.42,65.84c-.235,0-.471-.082-.661-.249-.414-.365-.454-.997-.09-1.412,2.004-2.275,3.579-4.652,4.682-7.064,.229-.501,.821-.723,1.325-.493,.502,.229,.723,.822,.493,1.325-1.183,2.59-2.865,5.131-4.998,7.555-.198,.225-.474,.339-.751,.339Z"/>
  <path d="M115.501,44c-.351,0-.691-.185-.874-.513-1.727-3.096-4.796-5.295-9.122-6.536-.531-.152-.838-.706-.686-1.236,.152-.531,.704-.839,1.236-.685,4.853,1.392,8.325,3.909,10.317,7.483,.27,.482,.097,1.092-.386,1.36-.154,.086-.321,.127-.486,.127Z"/>
  <path d="M85.469,43.86c-.187,0-.378-.053-.546-.163-1.885-1.233-2.923-2.9-2.923-4.697,0-.374,.045-.746,.137-1.139,.127-.538,.665-.867,1.202-.745,.537,.126,.871,.664,.745,1.202-.057,.24-.084,.464-.084,.682,0,1.1,.717,2.173,2.017,3.023,.463,.302,.593,.922,.29,1.384-.191,.294-.512,.453-.838,.453Z"/>
  <path d="M83.214,39.099c-.818,0-1.731-.144-2.78-.53-2.669-.993-3.642-2.609-4.499-4.035-.788-1.31-1.47-2.441-3.481-3.185-2.014-.748-3.267-.334-4.717,.148-1.58,.523-3.369,1.119-6.042,.133-2.68-.993-3.653-2.61-4.511-4.037-.665-1.106-1.24-2.061-2.584-2.78-.482-.258-.668-.856-.416-1.342,1.329-2.562,3.301-4.737,5.706-6.29,1.436-.929,2.991-1.623,4.621-2.064,.538-.146,1.082,.171,1.227,.703,.144,.533-.171,1.082-.704,1.226-1.43,.388-2.795,.998-4.058,1.815-1.857,1.199-3.422,2.822-4.567,4.727,1.244,.901,1.899,1.991,2.49,2.974,.789,1.311,1.47,2.443,3.491,3.192,2.013,.74,3.267,.326,4.719-.155,1.581-.524,3.372-1.117,6.042-.125,2.669,.986,3.642,2.604,4.5,4.029,.788,1.31,1.469,2.442,3.48,3.19,2.013,.743,3.267,.327,4.719-.154,1.583-.523,3.38-1.117,6.059-.126,.523,.191,1.019,.426,1.512,.717,.476,.28,.634,.894,.353,1.369-.281,.476-.894,.633-1.369,.354-.387-.229-.775-.412-1.186-.562-2.027-.751-3.284-.334-4.739,.148-.96,.317-1.998,.661-3.263,.661Z"/>
  <path d="M88.64,20.56c-.122,0-.246-.023-.367-.069-4.229-1.668-8.777-2.802-13.901-3.469-.548-.07-.934-.572-.862-1.12,.071-.548,.569-.937,1.12-.862,5.29,.688,9.992,1.861,14.378,3.59,.514,.203,.766,.783,.563,1.298-.155,.392-.532,.633-.931,.633Z"/>
  <path d="M75.588,63.299c-3.677,0-7.562-.323-11.722-.971-7.23-1.109-12.933-6.966-13.868-14.241-.085-.692-.128-1.38-.128-2.047,0-.267,.106-.522,.295-.71,.19-.186,.435-.288,.712-.29,2.073,.016,3.415,.832,4.599,1.553,1.306,.796,2.437,1.485,4.565,1.205,2.135-.271,3.053-1.221,4.116-2.321,1.157-1.196,2.468-2.554,5.294-2.919,2.818-.354,4.43,.62,5.85,1.484,1.307,.795,2.432,1.488,4.57,1.206,2.134-.27,3.052-1.22,4.115-2.319,1.159-1.198,2.473-2.556,5.305-2.921,1.101-.142,2.098-.089,3.048,.166,.533,.144,.85,.692,.706,1.226s-.691,.851-1.226,.706c-.691-.187-1.435-.225-2.269-.114-2.141,.275-3.061,1.227-4.126,2.328-1.158,1.197-2.471,2.554-5.299,2.913-2.833,.365-4.441-.617-5.864-1.482-1.303-.793-2.429-1.479-4.556-1.208-2.129,.274-3.047,1.225-4.11,2.325-1.157,1.197-2.47,2.556-5.3,2.915-2.829,.362-4.437-.616-5.859-1.48-.824-.502-1.565-.953-2.523-1.152,.018,.229,.041,.458,.069,.689,.821,6.39,5.833,11.538,12.189,12.514,7.437,1.157,13.958,1.252,19.938,.291,.546-.088,1.058,.283,1.146,.828,.088,.546-.283,1.059-.828,1.146-2.823,.454-5.759,.682-8.841,.682Z"/>
  <path d="M83.077,66.669c-.271,0-.546-.015-.825-.045l-.164-.005c-.392-.017-.737-.26-.885-.623-.147-.363-.069-.778,.2-1.064,1.051-1.111,1.629-2.758,2.187-4.351,.449-1.283,.914-2.609,1.639-3.688,.804-1.199,1.847-2.157,2.855-3.084,1.21-1.111,2.352-2.161,2.843-3.438,.581-1.501,.411-3.239,.23-5.081-.123-1.259-.25-2.561-.122-3.814,.13-1.261,.523-2.52,.904-3.736,.55-1.759,1.069-3.42,.822-4.997-.216-1.339-1.096-2.599-2.027-3.934-.795-1.14-1.618-2.318-2.139-3.684-.474-1.235-.631-2.656-.783-4.031-.184-1.663-.374-3.383-1.122-4.7-.187-.33-.172-.738,.04-1.053,.213-.315,.585-.484,.961-.433l.221,.029c2.501,.271,4.432,1.776,6.136,3.104,.769,.6,1.497,1.166,2.219,1.579,.819,.469,1.752,.871,2.655,1.262,.807,.348,1.641,.708,2.419,1.124,.487,.26,.672,.865,.411,1.353-.26,.489-.867,.671-1.353,.411-.706-.376-1.466-.704-2.27-1.052-.953-.412-1.938-.838-2.855-1.361-.846-.484-1.664-1.121-2.455-1.738-1.139-.887-2.306-1.797-3.611-2.309,.328,1.159,.462,2.374,.594,3.564,.144,1.306,.28,2.539,.663,3.536,.434,1.139,1.184,2.215,1.91,3.255,1.02,1.46,2.073,2.97,2.363,4.765,.319,2.042-.295,4.007-.89,5.907-.367,1.175-.714,2.283-.822,3.345-.108,1.052,.004,2.199,.123,3.414,.194,1.992,.395,4.054-.355,5.995-.658,1.712-2.029,2.972-3.356,4.19-.923,.848-1.876,1.724-2.548,2.725-.581,.868-.985,2.019-1.412,3.236-.395,1.128-.799,2.279-1.379,3.333,1.392-.228,2.711-.856,4-1.469,.899-.429,1.829-.871,2.752-1.161,1.012-.318,2.073-.523,3.1-.721,2.047-.395,3.981-.769,5.229-1.959,1.187-1.144,1.686-2.952,2.215-4.867,.311-1.127,.632-2.293,1.114-3.36,.5-1.101,1.203-2.138,1.884-3.14,1.087-1.602,2.113-3.114,2.293-4.758,.18-1.65-.497-3.351-1.214-5.149-.447-1.124-.91-2.287-1.16-3.465-.235-1.135-.299-2.319-.361-3.465-.033-.608-.066-1.217-.125-1.814-.055-.55,.348-1.039,.896-1.094,.577-.048,1.04,.349,1.094,.896,.062,.627,.097,1.265,.132,1.902,.06,1.121,.118,2.18,.322,3.163,.213,1.007,.624,2.04,1.061,3.135,.775,1.947,1.577,3.961,1.344,6.106-.233,2.138-1.45,3.931-2.627,5.664-.662,.976-1.288,1.898-1.717,2.841-.417,.925-.704,1.966-1.008,3.067-.576,2.091-1.173,4.253-2.759,5.78-1.677,1.599-3.994,2.046-6.234,2.478-.971,.188-1.976,.382-2.879,.666-.789,.248-1.616,.642-2.492,1.059-1.741,.828-3.689,1.756-5.881,1.756Z"/>
  <path d="M31.23,66.18c-.271,0-.541-.109-.738-.325-.373-.407-.345-1.04,.063-1.413,1.923-1.759,4.166-3.136,6.667-4.095,.824-.321,1.642-.583,2.428-.777,.534-.131,1.078,.194,1.211,.73,.133,.536-.194,1.078-.73,1.211-.702,.174-1.438,.409-2.187,.701-2.27,.871-4.3,2.117-6.038,3.706-.192,.175-.434,.262-.674,.262Z"/>
  <path d="M40.549,89.09c-.544,0-.99-.435-.999-.982-.01-.552,.43-1.008,.982-1.018,2.21-.039,4.405-.477,6.526-1.302,6.156-2.369,10.386-7.413,10.891-12.711-.597,.375-1.357,.729-2.445,1.003-1.951,.485-3.103,.244-4.119,.031-.924-.195-1.721-.36-3.231,.019-1.494,.376-2.345,1.123-3.331,1.987-1.033,.907-2.204,1.935-4.172,2.424-.845,.212-1.566,.445-2.202,.65-1.968,.635-3.524,1.137-5.157-.494-.108-.108-.191-.24-.24-.386-.764-2.249,.819-3.167,2.351-4.055,.648-.376,1.384-.803,2.161-1.392,1.479-1.125,2.762-1.578,4.001-2.017,1.145-.405,2.227-.788,3.458-1.724,1.161-.881,1.497-1.577,1.886-2.382,.438-.906,.934-1.934,2.473-3.107,.895-.676,1.648-1.027,2.315-1.238-1.843-.896-3.981-1.417-6.215-1.497-.552-.02-.983-.482-.964-1.035,.02-.551,.467-.991,1.035-.963,3.514,.125,6.839,1.232,9.363,3.118,.302,.226,.451,.602,.386,.973-.065,.372-.333,.675-.694,.785-.444,.135-.845,.209-1.232,.28-.876,.161-1.633,.301-2.786,1.171-1.155,.881-1.491,1.577-1.881,2.384-.438,.906-.934,1.934-2.477,3.104-1.478,1.124-2.761,1.577-4.001,2.016-1.145,.405-2.227,.788-3.458,1.724-.876,.666-1.704,1.146-2.368,1.531-1.455,.843-1.636,1.042-1.532,1.454,.62,.539,1.119,.441,2.96-.153,.665-.215,1.419-.458,2.331-.688,1.499-.373,2.351-1.12,3.337-1.986,1.031-.905,2.2-1.931,4.163-2.424,1.956-.493,3.11-.251,4.128-.037,.922,.193,1.718,.36,3.224-.014,1.497-.376,2.117-.892,2.835-1.488,.162-.135,.323-.269,.492-.4,.29-.225,.681-.275,1.017-.127,.336,.148,.565,.469,.595,.835,.561,6.854-4.447,13.719-12.177,16.694-2.338,.909-4.765,1.393-7.211,1.436h-.019Z"/>
  <path d="M34.915,94.353c-.756,0-1.502-.116-2.226-.424-1.794-.769-2.851-2.425-3.873-4.026-.541-.849-1.053-1.649-1.643-2.277-.595-.64-1.392-1.197-2.236-1.787l-.546-.385c-1.297-.928-2.618-1.963-3.288-3.519-.305-.71-.458-1.482-.472-2.361-.032-1.043,.132-2.117,.29-3.156,.153-.998,.297-1.941,.261-2.796-.029-.839-.226-1.734-.435-2.684-.131-.596-.262-1.193-.354-1.783-.086-.546,.287-1.058,.832-1.144,.546-.077,1.058,.287,1.143,.833,.086,.551,.21,1.108,.332,1.664,.219,.995,.445,2.023,.48,3.037,.044,1.041-.122,2.125-.282,3.175-.152,.993-.295,1.932-.268,2.808,.009,.63,.111,1.153,.31,1.618,.466,1.081,1.546,1.917,2.613,2.68l.531,.374c.892,.624,1.815,1.27,2.549,2.06,.716,.759,1.302,1.679,1.87,2.567,.898,1.408,1.747,2.739,2.972,3.264,1.232,.523,2.812,.161,4.485-.223,.96-.22,1.954-.448,2.955-.525,.589-.041,1.243-.05,1.934-.059,.509-.006,1.038-.012,1.573-.033-1.767-.465-2.955-.949-3.637-1.483-1.358-1.073-1.994-2.705-2.554-4.145-.364-.935-.708-1.818-1.194-2.456-.523-.689-1.297-1.285-2.117-1.915-1.279-.983-2.602-2.001-3.192-3.556-.57-1.482-.297-3.08-.032-4.626,.182-1.063,.353-2.067,.252-2.978-.09-.817-.485-1.715-.903-2.666-.602-1.369-1.284-2.922-1.149-4.585,.091-.983,.647-2.435,1.654-4.329-.479,.427-.938,.878-1.376,1.31-.604,.594-1.175,1.154-1.738,1.614-.8,.661-1.7,1.199-2.57,1.719-.509,.304-1.012,.604-1.479,.923-.456,.309-1.079,.195-1.39-.263-.311-.456-.194-1.078,.262-1.39,.5-.341,1.037-.663,1.581-.987,.806-.481,1.639-.979,2.326-1.547,.497-.406,1.036-.936,1.606-1.496,.458-.45,.937-.921,1.44-1.376,.737-.658,1.79-.692,2.565-.086,.777,.606,.999,1.641,.541,2.514-.847,1.593-1.367,2.891-1.43,3.566-.092,1.149,.433,2.344,.988,3.608,.46,1.047,.935,2.129,1.06,3.25,.132,1.191-.072,2.384-.269,3.536-.229,1.338-.445,2.601-.071,3.575,.391,1.029,1.436,1.833,2.543,2.685,.887,.683,1.805,1.388,2.489,2.289,.656,.86,1.068,1.919,1.466,2.941,.513,1.319,.998,2.565,1.927,3.299,.254,.199,.972,.612,2.903,1.117,.992,.269,1.598,1.161,1.482,2.175-.115,1.002-.901,1.727-1.91,1.762-.549,.023-1.097,.029-1.623,.035-.649,.008-1.264,.015-1.811,.053-.846,.066-1.766,.277-2.655,.48-1.155,.266-2.334,.536-3.491,.536Z"/>
  <g>
    <path d="M113.999,49c-.219,0-.439-.071-.624-.219-.431-.346-.501-.975-.156-1.406l2.7-3.375h-3.919c-.553,0-1-.447-1-1s.447-1,1-1h3.919c.775,0,1.466,.435,1.803,1.133,.336,.699,.244,1.51-.24,2.116l-2.7,3.376c-.198,.246-.488,.375-.782,.375Z"/>
    <path d="M111.999,59c-.49,0-.918-.359-.989-.858-.078-.547,.302-1.054,.849-1.132l5.02-.717-3.586-3.586c-.391-.391-.391-1.023,0-1.414,.391-.391,1.023-.391,1.414,0l3.586,3.586c.539,.539,.725,1.322,.483,2.046-.24,.723-.859,1.24-1.613,1.349l-5.021,.717c-.048,.007-.096,.01-.143,.01Z"/>
    <path d="M110.254,68.74c-.095,0-.189-.006-.284-.02l-5.111-.73c-.547-.078-.927-.585-.849-1.132,.078-.546,.587-.926,1.132-.849l5.11,.73-2.147-4.293c-.247-.494-.047-1.095,.447-1.342,.493-.245,1.094-.047,1.342,.447l2.147,4.293c.333,.668,.269,1.458-.166,2.064-.38,.527-.983,.831-1.621,.831Z"/>
    <path d="M100.777,76.474c-.237,0-.476-.043-.709-.13l-6.42-2.407c-.517-.194-.778-.771-.585-1.288,.193-.517,.77-.777,1.288-.585l6.42,2.407-.762-5.329c-.078-.547,.302-1.054,.849-1.132,.546-.078,1.054,.302,1.132,.849l.762,5.33c.1,.707-.171,1.396-.728,1.842-.363,.292-.801,.443-1.247,.443Z"/>
    <path d="M84.999,82c-.497,0-.928-.37-.991-.876-.068-.548,.32-1.048,.868-1.116l6.184-.773-3.829-4.594c-.353-.425-.296-1.056,.128-1.409,.426-.353,1.055-.296,1.409,.128l3.829,4.595c.468,.562,.592,1.335,.323,2.016-.269,.68-.887,1.159-1.612,1.249l-6.185,.773c-.042,.005-.084,.008-.125,.008Z"/>
    <path d="M83.001,94c-.348,0-.685-.181-.869-.504-.274-.479-.107-1.09,.372-1.364l5.48-3.132-5.48-3.132c-.479-.274-.646-.885-.372-1.364,.273-.479,.885-.649,1.364-.372l5.48,3.132c.631,.36,1.008,1.01,1.008,1.736s-.377,1.376-1.008,1.736l-5.48,3.132c-.156,.09-.327,.132-.495,.132Z"/>
    <path d="M73.999,101c-.168,0-.339-.042-.495-.132l-5.257-3.004c-.663-.378-1.048-1.087-1.004-1.85,.043-.763,.506-1.424,1.209-1.725l5.154-2.209c.504-.221,1.095,.016,1.312,.525,.218,.507-.017,1.095-.525,1.312l-5.154,2.209,5.257,3.004c.479,.275,.646,.885,.372,1.364-.185,.323-.521,.504-.869,.504Z"/>
    <path d="M73,90c-.256,0-.512-.098-.707-.293l-4.528-4.528c-.549-.549-.73-1.345-.474-2.076,.257-.732,.895-1.24,1.667-1.326l6.932-.771c.545-.055,1.044,.334,1.104,.884,.061,.549-.335,1.043-.884,1.104l-6.932,.771,4.528,4.528c.391,.391,.391,1.023,0,1.414-.195,.195-.451,.293-.707,.293Z"/>
    <path d="M78.215,78.709c-.392,0-.763-.231-.923-.615l-2.325-5.576c-.312-.747-.157-1.574,.405-2.158,.563-.584,1.386-.768,2.142-.484l5.836,2.189c.518,.194,.779,.771,.586,1.288-.194,.517-.774,.775-1.287,.585l-5.838-2.189,2.326,5.576c.213,.51-.028,1.095-.538,1.308-.126,.053-.256,.077-.385,.077Z"/>
  </g>
  <path d="M35.424,31.539c-.309,0-.614-.143-.81-.412-.749-1.031-1.861-1.676-3.13-1.816,0,0,0,0,0,0-.549-.06-.945-.555-.885-1.104,.06-.549,.554-.942,1.103-.885h0c1.192,.134,2.371-.21,3.308-.961,.936-.751,1.524-1.821,1.656-3.016,0-.002,0-.003,0-.005h0c.061-.549,.565-.94,1.103-.885,.549,.061,.945,.555,.885,1.103h0s0,.003,0,.005c-.146,1.341,.305,2.656,1.237,3.609,.386,.395,.379,1.027-.016,1.414-.395,.386-1.028,.379-1.414-.016-.486-.497-.883-1.061-1.181-1.672-.298,.373-.639,.716-1.02,1.021-.384,.308-.795,.568-1.226,.778,.45,.358,.853,.778,1.197,1.251,.325,.447,.226,1.072-.221,1.396-.178,.129-.383,.191-.587,.191Z"/>
  <path d="M18.326,56.573c-.141,0-.283-.029-.419-.092-1.877-.867-3.028-2.846-2.863-4.922,.22-2.748,2.625-4.807,5.353-4.589,2.611,.21,4.618,2.436,4.57,5.069-.01,.553-.512,.985-1.018,.981-.552-.01-.992-.466-.982-1.019,.029-1.578-1.17-2.913-2.73-3.038-1.627-.145-3.068,1.105-3.2,2.754-.099,1.245,.587,2.429,1.708,2.946,.501,.231,.72,.826,.488,1.327-.168,.366-.53,.581-.908,.581Z"/>
  <g>
    <path d="M110.534,93.777c-.328,0-.649-.161-.841-.457l-1.617-2.499c-.3-.463-.167-1.082,.297-1.383,.464-.299,1.083-.167,1.383,.297l1.617,2.499c.3,.463,.167,1.082-.297,1.383-.168,.108-.355,.16-.542,.16Z"/>
    <path d="M106.724,87.888c-.328,0-.649-.161-.841-.457l-1.611-2.49c-.3-.464-.167-1.082,.297-1.383,.464-.299,1.083-.168,1.383,.297l1.611,2.49c.3,.464,.167,1.082-.297,1.383-.168,.108-.355,.16-.542,.16Z"/>
    <path d="M103.626,92.297c-.328,0-.649-.161-.841-.457-.3-.464-.167-1.083,.297-1.383l2.499-1.616c.465-.301,1.083-.167,1.383,.297s.167,1.083-.297,1.383l-2.499,1.616c-.168,.108-.357,.16-.542,.16Z"/>
    <path d="M109.516,88.486c-.328,0-.649-.161-.841-.457-.3-.464-.167-1.083,.297-1.383l2.491-1.611c.465-.301,1.083-.167,1.383,.297,.3,.464,.167,1.083-.297,1.383l-2.491,1.611c-.168,.108-.356,.16-.542,.16Z"/>
  </g>
  <path d="M114.279,16.04c-.222,0-.444-.073-.63-.224-.429-.349-.493-.978-.145-1.407l5.72-7.04c.35-.428,.978-.492,1.407-.145,.429,.349,.493,.979,.145,1.407l-5.72,7.04c-.198,.243-.486,.369-.777,.369Z"/>
  <path d="M106.999,25c-.222,0-.444-.073-.63-.224-.429-.349-.493-.979-.145-1.407l3.9-4.8c.351-.428,.978-.492,1.407-.146,.429,.349,.493,.979,.145,1.407l-3.9,4.8c-.198,.243-.486,.369-.777,.369Z"/>
  <path d="M108.999,29c-.448,0-.855-.303-.969-.758-.135-.535,.191-1.078,.727-1.212l12-3c.533-.137,1.078,.191,1.212,.727,.135,.535-.191,1.078-.727,1.212l-12,3c-.081,.021-.163,.03-.243,.03Z"/>
  <path d="M103.999,22c-.512,0-.947-.391-.995-.909l-1-11c-.05-.551,.355-1.037,.905-1.087,.565-.046,1.036,.356,1.087,.905l1,11c.05,.551-.355,1.037-.905,1.087-.031,.003-.061,.004-.092,.004Z"/>
  <path d="M122,110H7c-.552,0-1-.447-1-1,0-1.879,.73-3.637,2.056-4.95,1.308-1.319,3.066-2.05,4.944-2.05H116c3.859,0,7,3.141,7,7,0,.553-.447,1-1,1Zm-113.901-2H120.899c-.465-2.279-2.484-4-4.899-4H13c-1.341,0-2.595,.52-3.53,1.464-.709,.703-1.179,1.579-1.371,2.536Z"/>
</svg>