<?xml version="1.0" encoding="UTF-8"?>
<svg id="_11" data-name="11" xmlns="http://www.w3.org/2000/svg" viewBox="0 0 128 128">
  <path d="M79.7,28.2c-.552,0-1.005-.447-1.005-1,0-.431,.269-.798,.649-.939,7.276-3.487,13.569-4.938,18.205-4.189,.545,.088,.916,.601,.828,1.146-.087,.545-.597,.915-1.146,.828-4.246-.681-10.158,.719-17.098,4.055-.135,.064-.283,.099-.433,.099Z"/>
  <path d="M24.26,86.16c-.119,0-.24-.022-.358-.066-.516-.197-.774-.776-.576-1.292,.735-1.916,1.661-3.974,2.753-6.116,.251-.492,.852-.688,1.345-.436,.492,.25,.688,.853,.437,1.345-1.06,2.08-1.958,4.073-2.668,5.925-.152,.397-.532,.642-.934,.642Z"/>
  <path d="M31.999,107.144c-3.466,0-6.244-.975-8.206-2.937-2.16-2.16-3.126-5.319-2.871-9.39,.035-.551,.504-.955,1.06-.936,.551,.034,.97,.51,.936,1.061-.218,3.473,.553,6.114,2.289,7.851,3.856,3.857,12.266,2.909,23.083-2.595,.044-.03,.09-.058,.14-.081,.22-.106,.441-.221,.661-.335,.029-.015,.06-.029,.094-.043,1.259-.66,2.504-1.365,3.807-2.154,.036-.021,.073-.041,.111-.059,.388-.223,.777-.463,1.171-.706l.262-.162c7.574-4.701,15.445-11.053,22.757-18.365,.843-.843,1.667-1.687,2.47-2.538,1.236-1.29,2.346-2.491,3.399-3.679,4.88-5.485,9.085-11.051,12.498-16.544,.671-1.086,1.237-2.036,1.728-2.901,.017-.038,.036-.075,.057-.11,.161-.265,.311-.527,.453-.792,.703-1.254,1.373-2.544,2.001-3.851,3.651-7.597,4.993-14.114,3.78-18.352-.152-.531,.155-1.085,.686-1.236,.531-.154,1.084,.155,1.237,.685,1.368,4.777,.019,11.613-3.9,19.769-.646,1.345-1.335,2.673-2.049,3.946-.135,.254-.288,.521-.45,.791-.01,.021-.021,.041-.032,.062-.513,.908-1.105,1.903-1.81,3.044-3.475,5.591-7.748,11.25-12.703,16.819-1.069,1.205-2.196,2.425-3.445,3.727-.811,.86-1.648,1.718-2.505,2.574-7.419,7.42-15.414,13.869-23.12,18.652l-.262,.162c-.441,.272-.876,.541-1.311,.788-.022,.013-.045,.024-.068,.035-1.318,.797-2.583,1.511-3.863,2.181-.03,.016-.06,.029-.091,.042-.213,.111-.399,.207-.579,.295-.032,.021-.065,.041-.099,.059-6.795,3.473-12.673,5.223-17.316,5.223ZM98.3,53.05h0Z"/>
  <path d="M44.179,95.06c-.188,0-.378-.053-.547-.163-1.512-.991-2.966-2.112-4.321-3.333-.411-.369-.444-1.002-.074-1.412,.369-.411,1.002-.443,1.412-.074,1.28,1.153,2.653,2.211,4.079,3.146,.462,.303,.591,.923,.289,1.385-.192,.293-.511,.452-.837,.452Z"/>
  <path d="M93.399,85.78c-.2,0-.402-.06-.578-.185-.45-.32-.556-.944-.236-1.395,.958-1.349,1.817-2.77,2.553-4.224,.249-.492,.852-.689,1.344-.44,.493,.25,.69,.852,.44,1.345-.781,1.541-1.691,3.048-2.707,4.478-.195,.274-.503,.421-.816,.421Z"/>
  <path d="M86.899,37.23c-.225,0-.451-.075-.638-.23-1.536-1.273-3.181-2.414-4.889-3.392-.479-.275-.645-.886-.371-1.365,.275-.479,.885-.644,1.365-.371,1.807,1.036,3.547,2.243,5.171,3.589,.425,.352,.484,.983,.132,1.407-.198,.239-.483,.362-.771,.362Z"/>
  <path d="M31.6,49.3c-.147,0-.295-.032-.436-.101-.497-.241-.704-.84-.462-1.336,1.212-2.496,2.7-4.849,4.421-6.993,.182-.251,.476-.415,.809-.415,.552,0,1,.442,1,.995,0,.229-.078,.459-.221,.637-1.64,2.037-3.056,4.274-4.209,6.649-.173,.357-.529,.564-.9,.564Z"/>
  <path d="M99.02,84.33c-.272,0-.535-.111-.725-.311-1.017-1.069-1.97-1.994-2.917-2.829-10.374-9.276-23.394-12.472-38.709-9.509-.305,.064-.627-.028-.861-.24-.233-.211-.354-.519-.325-.832l.52-5.7c.037-.404,.315-.746,.702-.865l25.422-7.822,4.608-24.605c.063-.339,.296-.621,.616-.747,.32-.125,.683-.079,.961,.125,10.449,7.699,16.686,20.037,16.686,33.005,0,6.925-1.765,13.776-5.105,19.815-.154,.278-.432,.467-.748,.508-.043,.005-.085,.008-.127,.008Zm-31.649-15.724c11.25,0,21.083,3.709,29.336,11.089,.681,.6,1.366,1.246,2.073,1.954,2.765-5.442,4.22-11.516,4.22-17.649,0-11.797-5.427-23.046-14.595-30.411l-4.422,23.596c-.068,.365-.334,.662-.689,.772l-25.359,7.803-.339,3.721c3.366-.582,6.627-.873,9.775-.873Z"/>
  <path d="M64,105c-8.695,0-17-2.69-24.017-7.78-.267-.193-.421-.506-.413-.835s.178-.633,.454-.812l14.023-9.145,1.056-11.668c.042-.466,.402-.841,.866-.901,17.003-2.236,29.845,1.212,38.166,10.244,.939,1.009,1.816,2.093,2.68,3.309,.252,.355,.246,.831-.016,1.179-7.822,10.429-19.777,16.41-32.8,16.41Zm-21.642-8.561c6.412,4.298,13.862,6.561,21.642,6.561,12.142,0,23.309-5.467,30.753-15.025-.673-.906-1.359-1.733-2.085-2.514-7.73-8.392-19.72-11.659-35.644-9.721l-1.027,11.35c-.028,.305-.193,.58-.45,.748l-13.188,8.601Z"/>
  <path d="M52.41,68.77c-.12,0-.24-.022-.355-.064-10.368-3.93-16.129-13.076-17.123-27.185-.124-1.898-.172-3.877-.143-5.885,.004-.261,.109-.509,.293-.692,2.04-2.04,4.321-3.872,6.778-5.445,.464-.3,1.083-.162,1.381,.303,.298,.465,.162,1.083-.303,1.381-2.221,1.423-4.29,3.066-6.154,4.892-.018,1.815,.03,3.599,.143,5.312,.906,12.863,5.688,21.041,14.603,24.947l.472-5.419c.038-.432,.349-.79,.771-.888l25.322-5.844,3.241-25.12c-5.413-2.695-11.242-4.061-17.338-4.061-4.752,0-9.411,.85-13.847,2.525-.518,.194-1.094-.065-1.289-.582-.195-.517,.065-1.094,.582-1.289,4.663-1.762,9.559-2.654,14.554-2.654,6.654,0,13.007,1.549,18.881,4.602,.372,.194,.584,.6,.53,1.016l-3.42,26.51c-.053,.415-.359,.752-.767,.847l-25.292,5.836-.527,6.046c-.027,.312-.199,.594-.464,.76-.161,.102-.346,.153-.532,.153Z"/>
  <path d="M36.46,94c-.25,0-.498-.094-.689-.274-8.236-7.818-12.771-18.375-12.771-29.726,0-8.161,2.399-16.055,6.94-22.826,.239-.358,.68-.518,1.095-.408,.414,.114,.71,.48,.734,.909,.129,2.294,.402,4.454,.81,6.422,0,.002,.001,.005,.002,.008,2.239,11.217,8.896,19.143,19.786,23.559,.377,.153,.624,.52,.624,.927l-.994,11.497c-.027,.315-.201,.598-.47,.764l-14.54,9c-.162,.101-.345,.149-.526,.149Zm-6.428-49.17c-3.301,5.839-5.033,12.407-5.033,19.17,0,10.54,4.112,20.36,11.596,27.74l13.452-8.326,.884-10.181c-11.147-4.736-17.979-13.055-20.311-24.734-.242-1.164-.438-2.391-.587-3.669Z"/>
  <path d="M102,31c-3.309,0-6-2.691-6-6s2.691-6,6-6,6,2.691,6,6-2.691,6-6,6Zm0-10c-2.206,0-4,1.794-4,4s1.794,4,4,4,4-1.794,4-4-1.794-4-4-4Z"/>
  <path d="M23,96c-3.029,0-5.588-2.266-5.953-5.27-.066-.548,.324-1.046,.872-1.113,.548-.065,1.047,.324,1.113,.873,.243,2.001,1.949,3.51,3.967,3.51,2.206,0,4-1.794,4-4s-1.794-4-4-4c-.662,0-1.316,.165-1.893,.478-.146,.079-.31,.121-.477,.121-.552,0-1.005-.447-1.005-1,0-.416,.252-.773,.612-.924,.848-.442,1.801-.676,2.763-.676,3.309,0,6,2.691,6,6s-2.691,6-6,6Z"/>
  <g>
    <path d="M30.001,35c-.309,0-.614-.143-.81-.412l-5.15-7.08c-.325-.446-.226-1.071,.22-1.397s1.072-.226,1.397,.221l5.15,7.08c.325,.446,.226,1.071-.22,1.397-.178,.129-.384,.191-.587,.191Z"/>
    <path d="M21.181,22.87c-.309,0-.614-.143-.81-.412l-7.18-9.87c-.325-.446-.226-1.071,.22-1.397s1.072-.227,1.397,.221l7.18,9.87c.325,.446,.226,1.071-.22,1.397-.178,.129-.384,.191-.587,.191Z"/>
    <path d="M33.998,31c-.493,0-.923-.365-.99-.868l-2-15c-.073-.547,.312-1.05,.859-1.123,.547-.071,1.051,.312,1.124,.859l2,15c.073,.547-.312,1.05-.859,1.123-.045,.006-.089,.009-.134,.009Z"/>
    <path d="M27.001,38c-.081,0-.162-.01-.244-.03l-16-4c-.536-.134-.861-.677-.727-1.212,.135-.537,.678-.86,1.213-.727l16,4c.536,.134,.861,.677,.727,1.212-.114,.455-.521,.758-.969,.758Z"/>
  </g>
  <g>
    <path d="M103.66,105.23c-.218,0-.437-.07-.62-.216l-8.35-6.61c-.433-.343-.506-.972-.164-1.405,.343-.433,.972-.506,1.405-.163l8.35,6.61c.433,.343,.506,.972,.163,1.405-.197,.249-.49,.379-.785,.379Z"/>
    <path d="M116.64,115.5c-.217,0-.436-.07-.62-.216l-8.24-6.52c-.433-.343-.506-.972-.164-1.404,.343-.434,.972-.507,1.405-.164l8.24,6.52c.433,.343,.506,.972,.164,1.404-.197,.25-.49,.38-.785,.38Z"/>
    <path d="M114.378,97.394c-.057,0-.115-.005-.173-.015l-14.906-2.607c-.544-.096-.908-.613-.812-1.157,.096-.545,.61-.902,1.157-.813l14.906,2.607c.544,.096,.908,.613,.812,1.157-.085,.486-.507,.828-.984,.828Z"/>
    <path d="M95.54,117.646c-.464,0-.88-.324-.978-.797l-3.348-16.149c-.112-.541,.235-1.07,.776-1.183,.536-.111,1.07,.235,1.182,.776l3.348,16.149c.112,.541-.235,1.07-.776,1.183-.068,.014-.137,.021-.204,.021Z"/>
  </g>
  <path d="M64.78,14.855c-.03,0-.061-.001-.092-.004-.55-.051-.955-.537-.904-1.088,.064-.692,.237-1.359,.508-1.981-.482,.017-.959-.024-1.439-.116-.483-.094-.947-.238-1.387-.431,.018,.575-.04,1.154-.178,1.723-.13,.537-.671,.869-1.207,.735-.537-.13-.866-.671-.736-1.208,.3-1.237,.072-2.502-.644-3.56h0c-.31-.459-.19-1.08,.267-1.39,.457-.31,1.079-.19,1.389,.267,.674,.996,1.695,1.671,2.875,1.899,1.178,.223,2.374-.019,3.37-.691,.001,0,.003-.002,.004-.003,.457-.309,1.079-.189,1.388,.268,.31,.458,.19,1.079-.268,1.389-.002,0-.003,.002-.005,.004-1.116,.757-1.825,1.951-1.947,3.278-.047,.519-.483,.908-.995,.908Z"/>
  <path d="M46.987,117.929c-2.212,0-4.236-1.475-4.822-3.7-.667-2.533,.77-5.164,3.271-5.989,.524-.178,1.09,.112,1.263,.636,.173,.524-.112,1.09-.636,1.263-1.5,.495-2.363,2.068-1.964,3.581,.417,1.585,2.055,2.528,3.657,2.11,1.207-.318,2.098-1.358,2.216-2.587,.053-.55,.544-.965,1.091-.899,.55,.053,.953,.541,.9,1.091-.199,2.059-1.685,3.799-3.698,4.329-.427,.112-.856,.166-1.278,.166Z"/>
  <g>
    <path d="M16.534,53.777c-.328,0-.649-.161-.841-.457l-1.617-2.499c-.3-.464-.167-1.083,.297-1.383,.463-.299,1.083-.167,1.383,.297l1.617,2.499c.3,.464,.167,1.083-.297,1.383-.168,.108-.356,.16-.542,.16Z"/>
    <path d="M12.724,47.888c-.328,0-.649-.161-.84-.457l-1.612-2.49c-.3-.463-.167-1.082,.296-1.383,.465-.3,1.083-.167,1.383,.297l1.612,2.49c.3,.463,.168,1.082-.296,1.383-.168,.108-.356,.16-.542,.16Z"/>
    <path d="M9.627,52.297c-.328,0-.649-.161-.841-.457-.3-.464-.167-1.083,.297-1.383l2.499-1.616c.463-.3,1.082-.167,1.383,.297,.3,.464,.167,1.083-.297,1.383l-2.499,1.616c-.167,.108-.356,.16-.542,.16Z"/>
    <path d="M15.516,48.486c-.328,0-.649-.161-.841-.457-.3-.464-.167-1.083,.297-1.383l2.491-1.611c.463-.299,1.083-.166,1.383,.297,.3,.464,.167,1.083-.297,1.383l-2.491,1.611c-.168,.108-.356,.16-.542,.16Z"/>
  </g>
</svg>