<?xml version="1.0" encoding="UTF-8"?>
<svg id="_10" data-name="10" xmlns="http://www.w3.org/2000/svg" viewBox="0 0 128 128">
  <path d="M110.429,81.001c-.435,0-.835-.287-.961-.726l-8.979-31.43c-.151-.531,.156-1.084,.687-1.236,.526-.15,1.084,.155,1.236,.686l8.979,31.43c.151,.531-.156,1.085-.687,1.236-.092,.026-.184,.039-.275,.039Z"/>
  <path d="M80.071,58.26c-.092,0-.184-.013-.275-.039-.531-.151-.839-.705-.687-1.236l2.479-8.69c.152-.532,.711-.838,1.236-.687,.531,.151,.839,.705,.687,1.236l-2.479,8.69c-.126,.439-.526,.726-.961,.726Z"/>
  <path d="M73.571,81.001c-.092,0-.184-.013-.275-.039-.531-.152-.839-.705-.687-1.236l4.67-16.34c.152-.532,.711-.837,1.236-.687,.531,.152,.839,.705,.687,1.236l-4.67,16.34c-.126,.439-.526,.726-.961,.726Z"/>
  <path d="M107,109h-23.43c-.553,0-1-.448-1-1s.447-1,1-1h23.43c.553,0,1,.448,1,1s-.447,1-1,1Z"/>
  <path d="M74.6,109H20c-.553,0-1-.448-1-1s.447-1,1-1h54.6c.553,0,1,.448,1,1s-.447,1-1,1Z"/>
  <path d="M65,109H27c-.553,0-1-.448-1-1v-21c0-.552,.447-1,1-1h38c.553,0,1,.448,1,1v21c0,.552-.447,1-1,1Zm-37-2h36v-19H28v19Z"/>
  <g>
    <path d="M48,99.11c-.125,0-.252-.024-.375-.073-.512-.207-.759-.789-.552-1.302l1.66-4.11c.207-.512,.789-.757,1.302-.553,.512,.207,.759,.79,.552,1.302l-1.66,4.11c-.157,.389-.531,.626-.927,.626Z"/>
    <path d="M51.13,102.001c-.125,0-.252-.024-.375-.073-.512-.207-.759-.79-.552-1.302l2.83-7c.207-.512,.79-.757,1.302-.552,.512,.207,.759,.79,.552,1.302l-2.83,7c-.157,.389-.531,.626-.927,.626Z"/>
  </g>
  <path d="M65,105h-20c-.553,0-1-.448-1-1v-13c0-.552,.447-1,1-1h20c.553,0,1,.448,1,1v13c0,.552-.447,1-1,1Zm-19-2h18v-11h-18v11Z"/>
  <path d="M65,84H27c-.553,0-1-.448-1-1v-14c0-.552,.447-1,1-1h38c.553,0,1,.448,1,1v14c0,.552-.447,1-1,1Zm-37-2h36v-12H28v12Z"/>
  <path d="M67,88H25c-1.103,0-2-.897-2-2v-2c0-1.103,.897-2,2-2h42c1.102,0,2,.897,2,2v2c0,1.103-.898,2-2,2Zm-42-4v2h42v-2H25Z"/>
  <path d="M69.82,66H22.18c-1.086,0-1.97-.686-2.15-1.67-.173-.943,.356-1.821,1.316-2.185l8.785-3.282c.517-.196,1.093,.069,1.286,.586,.193,.518-.069,1.094-.587,1.287l-8.723,3.259c.02,.003,.045,.004,.072,.004h47.641c.017,0,.031,0,.046-.002l-23.866-8.931-8.69,3.249c-.522,.195-1.094-.069-1.287-.586-.193-.517,.069-1.093,.586-1.287l9.04-3.38c.227-.086,.475-.084,.701,0l24.299,9.08c.965,.366,1.494,1.244,1.321,2.187-.181,.983-1.064,1.67-2.15,1.67Z"/>
  <path d="M41,109h-10c-.553,0-1-.448-1-1v-16c0-1.103,.897-2,2-2h8c1.102,0,2,.897,2,2v16c0,.552-.447,1-1,1Zm-9-2h8v-15h-8v15Z"/>
  <path d="M61,81H31c-.553,0-1-.448-1-1v-8c0-.552,.447-1,1-1h30c.553,0,1,.448,1,1v8c0,.552-.447,1-1,1Zm-29-2h28v-6h-28v6Z"/>
  <path d="M51,81h-10c-.553,0-1-.448-1-1v-8c0-.552,.447-1,1-1h10c.553,0,1,.448,1,1v8c0,.552-.447,1-1,1Zm-9-2h8v-6h-8v6Z"/>
  <g>
    <g>
      <path d="M85.64,34.001c-.125,0-.251-.023-.373-.073-.513-.207-.761-.789-.555-1.301l1.61-4c.207-.513,.793-.759,1.301-.554,.513,.207,.761,.789,.555,1.301l-1.61,4c-.157,.39-.532,.627-.928,.627Z"/>
      <path d="M89.94,34.001c-.125,0-.251-.023-.373-.073-.513-.206-.761-.789-.555-1.301l1.609-4c.207-.514,.794-.759,1.301-.555,.513,.206,.761,.789,.555,1.301l-1.609,4c-.157,.39-.532,.628-.928,.628Z"/>
    </g>
    <path d="M102.491,37c-.019,0-.039,0-.059-.002-.551-.032-.973-.504-.94-1.056,.009-.15,.008-.292,.008-.442,0-5.238-4.262-9.5-9.5-9.5s-9.5,4.262-9.5,9.5c0,.15-.001,.292,.008,.442,.032,.552-.39,1.024-.94,1.056-.556,.02-1.024-.39-1.056-.941-.011-.189-.012-.368-.012-.558,0-6.341,5.159-11.5,11.5-11.5s11.5,5.159,11.5,11.5c0,.19-.001,.368-.012,.558-.03,.532-.471,.942-.997,.942Z"/>
    <path d="M92,54c-3.619,0-7.005-1.781-9.055-4.764-.312-.455-.197-1.078,.258-1.391,.455-.311,1.078-.198,1.391,.258,1.677,2.44,4.445,3.896,7.406,3.896s5.729-1.457,7.406-3.896c.314-.456,.936-.569,1.391-.258,.455,.313,.57,.936,.258,1.391-2.05,2.983-5.436,4.764-9.055,4.764Z"/>
    <path d="M92.001,49.993c-6.18,0-12.358-.543-18.495-1.628-.204-.039-.309-.061-.415-.097-.523-.176-.805-.744-.628-1.267,.175-.519,.731-.798,1.255-.632,.023,.005,.168,.033,.18,.036,11.997,2.122,24.207,2.122,36.249-.009,1.078-.188,2.07-.714,2.797-1.482l2.738-2.909-47.361-.004,1.607,1.714c.379,.402,.36,1.035-.042,1.414-.402,.377-1.035,.36-1.413-.043l-1.61-1.71c-.549-.586-.696-1.436-.379-2.17,.322-.743,1.026-1.205,1.837-1.205h47.359c.81,0,1.515,.462,1.837,1.205,.317,.734,.17,1.585-.377,2.168l-2.741,2.912c-1.022,1.081-2.409,1.818-3.906,2.08-6.134,1.085-12.313,1.628-18.491,1.628Z"/>
    <path d="M110,42h-36c-.382,0-.731-.218-.898-.561-.168-.343-.125-.753,.11-1.054l1.99-2.55c.339-.435,.967-.515,1.403-.173,.436,.34,.513,.968,.173,1.403l-.729,.935h31.899l-1.506-1.924c-.515-.652-1.577-1.076-2.702-1.076h-23.48c-.437,0-.85,.057-1.224,.168-.53,.156-1.087-.144-1.244-.672-.158-.529,.143-1.086,.672-1.245,.56-.167,1.164-.252,1.796-.252h23.48c1.767,0,3.364,.688,4.275,1.84l2.772,3.544c.235,.301,.278,.71,.111,1.054-.168,.344-.517,.562-.899,.562Z"/>
  </g>
  <path d="M67,70H25c-1.103,0-2-.897-2-2v-3c0-.552,.447-1,1-1h44c.553,0,1,.448,1,1v3c0,1.103-.898,2-2,2Zm-42-4v2h42v-2H25Z"/>
  <g>
    <path d="M92,74c-2.206,0-4-1.794-4-4s1.794-4,4-4,4,1.794,4,4-1.794,4-4,4Zm0-6c-1.103,0-2,.897-2,2s.897,2,2,2,2-.897,2-2-.898-2-2-2Z"/>
    <path d="M92,82.46c-.553,0-1-.448-1-1v-8.46c0-.552,.447-1,1-1s1,.448,1,1v8.46c0,.552-.447,1-1,1Z"/>
    <path d="M96.001,89c-.337,0-.666-.17-.855-.478l-3.146-5.149-3.147,5.149c-.288,.471-.902,.619-1.375,.331-.472-.288-.62-.903-.332-1.374l4-6.545c.363-.595,1.344-.595,1.707,0l4,6.545c.288,.471,.14,1.087-.332,1.374-.163,.1-.343,.147-.52,.147Z"/>
    <path d="M96.999,81c-.2,0-.401-.06-.577-.184l-4.422-3.135-4.422,3.135c-.45,.32-1.075,.213-1.393-.238-.319-.45-.214-1.075,.237-1.394l5-3.545c.346-.245,.81-.245,1.156,0l5,3.545c.451,.319,.557,.944,.237,1.394-.194,.275-.503,.422-.816,.422Z"/>
  </g>
  <path d="M16.222,48.306c-.356,0-.7-.19-.881-.526-.605-1.122-1.62-1.91-2.859-2.217h0c-.536-.133-.862-.676-.729-1.212,.133-.537,.675-.862,1.212-.729h0c1.167,.291,2.377,.11,3.406-.51,1.029-.619,1.756-1.604,2.046-2.771,.134-.537,.676-.862,1.212-.729,.536,.133,.862,.676,.729,1.212h0s0,.002,0,.004c-.324,1.31-.054,2.674,.743,3.742,.33,.443,.239,1.069-.204,1.4-.442,.33-1.069,.24-1.399-.204-.416-.558-.733-1.17-.947-1.814-.345,.329-.728,.623-1.147,.875-.421,.253-.863,.456-1.318,.607,.397,.416,.741,.885,1.018,1.4,.263,.486,.081,1.092-.405,1.354-.151,.081-.313,.12-.474,.12Z"/>
  <path d="M82.272,103.206c-1.958,0-3.813-1.171-4.609-3.08-.213-.51,.028-1.095,.538-1.308,.509-.212,1.095,.027,1.308,.538,.607,1.459,2.243,2.199,3.72,1.688,.749-.259,1.352-.797,1.696-1.514,.347-.719,.393-1.534,.13-2.292-.408-1.18-1.512-1.989-2.747-2.014-.552-.011-.99-.468-.979-1.02,.012-.552,.49-.96,1.02-.98,2.068,.042,3.915,1.392,4.597,3.36,.436,1.261,.358,2.616-.218,3.814-.578,1.201-1.589,2.102-2.845,2.536-.531,.184-1.075,.272-1.61,.272Z"/>
  <g>
    <path d="M50.534,47.777c-.328,0-.649-.161-.841-.456l-1.617-2.499c-.3-.464-.167-1.083,.297-1.383,.464-.3,1.083-.167,1.383,.296l1.617,2.499c.3,.464,.167,1.083-.297,1.383-.168,.109-.355,.161-.542,.161Z"/>
    <path d="M46.724,41.888c-.328,0-.649-.161-.841-.457l-1.611-2.491c-.3-.463-.167-1.083,.297-1.383,.464-.299,1.083-.167,1.383,.297l1.611,2.491c.3,.463,.167,1.083-.297,1.383-.168,.108-.355,.16-.542,.16Z"/>
    <path d="M43.626,46.297c-.328,0-.649-.161-.841-.457-.3-.463-.167-1.082,.297-1.383l2.499-1.617c.463-.299,1.082-.167,1.383,.297,.3,.463,.167,1.082-.297,1.383l-2.499,1.617c-.168,.108-.356,.16-.542,.16Z"/>
    <path d="M49.516,42.486c-.328,0-.649-.161-.841-.457-.3-.463-.167-1.083,.297-1.383l2.491-1.611c.465-.3,1.083-.167,1.383,.297,.3,.463,.167,1.083-.297,1.383l-2.491,1.611c-.168,.108-.356,.16-.542,.16Z"/>
  </g>
  <g>
    <path d="M75.31,26c-.291,0-.58-.127-.777-.37l-4.3-5.3c-.349-.429-.282-1.059,.146-1.406,.43-.349,1.059-.282,1.406,.147l4.3,5.3c.349,.429,.282,1.059-.146,1.406-.186,.15-.408,.224-.629,.224Z"/>
    <path d="M67.77,16.72c-.291,0-.579-.126-.777-.37l-5.46-6.72c-.348-.428-.283-1.058,.145-1.407,.43-.349,1.059-.282,1.407,.146l5.46,6.72c.348,.428,.283,1.058-.145,1.407-.186,.15-.409,.224-.63,.224Z"/>
    <path d="M79.308,24c-.518,0-.956-.399-.996-.923l-1-13c-.042-.551,.37-1.031,.92-1.074,.567-.043,1.032,.371,1.074,.92l1,13c.042,.551-.37,1.031-.92,1.074-.026,.002-.053,.003-.078,.003Z"/>
    <path d="M73.31,29c-.051,0-.102-.004-.153-.012l-13-2c-.546-.084-.92-.594-.836-1.14s.593-.919,1.141-.836l13,2c.546,.084,.92,.594,.836,1.14-.076,.495-.502,.848-.987,.848Z"/>
  </g>
  <g>
    <path d="M106.999,27c-.221,0-.444-.073-.63-.224-.429-.348-.493-.978-.145-1.407l4.28-5.27c.35-.428,.977-.495,1.407-.146,.429,.348,.493,.978,.145,1.407l-4.28,5.27c-.197,.243-.486,.37-.777,.37Z"/>
    <path d="M114.909,17.26c-.222,0-.444-.073-.63-.224-.429-.349-.493-.978-.145-1.407l5.09-6.26c.35-.428,.979-.493,1.407-.145,.429,.349,.493,.978,.145,1.407l-5.09,6.26c-.198,.243-.486,.369-.777,.369Z"/>
    <path d="M103.001,25c-.025,0-.052-.001-.078-.003-.55-.042-.962-.523-.92-1.074l1-13c.042-.55,.51-.962,1.074-.92,.55,.042,.962,.523,.92,1.074l-1,13c-.04,.524-.478,.923-.996,.923Z"/>
    <path d="M108.999,30c-.485,0-.911-.354-.987-.848-.084-.546,.29-1.056,.836-1.14l13-2c.554-.083,1.057,.291,1.141,.836,.084,.546-.29,1.056-.836,1.14l-13,2c-.052,.008-.103,.012-.153,.012Z"/>
  </g>
</svg>