<?xml version="1.0" encoding="UTF-8"?>
<svg id="_03" data-name="03" xmlns="http://www.w3.org/2000/svg" viewBox="0 0 128 128">
  <path d="M35,69.84c-.552,0-1-.448-1-1v-15.84c0-.379,.01-.748,.02-1.128l.01-.208c.003-.086,.006-.171,.013-.252,.019-.339,.04-.699,.071-1.049,.073-.811,.178-1.615,.311-2.392,.042-.246,.085-.489,.138-.732,.148-.801,.348-1.636,.588-2.452,.075-.313,.194-.685,.314-1.033,.149-.48,.289-.885,.448-1.279l.058-.154c.082-.233,.184-.488,.288-.746l.063-.157c.128-.309,.262-.608,.395-.907,.186-.425,.396-.856,.618-1.277,.18-.352,.376-.702,.571-1.052,.085-.133,.121-.199,.158-.265,.846-1.456,1.828-2.849,2.93-4.16,.356-.423,.985-.479,1.409-.123,.423,.355,.478,.986,.123,1.409-1.028,1.224-1.943,2.523-2.721,3.86-.052,.095-.117,.208-.193,.323-.143,.262-.327,.592-.501,.931-.204,.388-.394,.776-.564,1.166-.129,.288-.255,.569-.372,.851l-.06,.149c-.093,.231-.186,.46-.271,.702l-.073,.196c-.143,.352-.263,.707-.375,1.062-.003,.008-.035,.117-.038,.125-.1,.291-.201,.6-.274,.9-.233,.796-.417,1.562-.558,2.326-.053,.246-.09,.463-.128,.679-.124,.722-.222,1.472-.289,2.229-.029,.328-.048,.668-.067,1.007l-.021,.422c-.008,.319-.018,.67-.018,1.031v15.84c0,.552-.448,1-1,1Z"/>
  <path d="M93,69.84c-.553,0-1-.448-1-1v-15.84c0-.352-.009-.693-.019-1.044l-.018-.39c-.02-.358-.04-.697-.069-1.026-.066-.742-.163-1.493-.289-2.23-.037-.213-.075-.43-.122-.647-.148-.798-.332-1.565-.552-2.309-.086-.347-.186-.656-.286-.947-.003-.009-.036-.118-.039-.127-.111-.355-.233-.709-.373-1.055-.004-.011-.038-.102-.042-.112-.119-.332-.212-.561-.306-.793l-.063-.157c-.111-.271-.238-.552-.364-.833-.173-.396-.363-.785-.563-1.164-.179-.346-.362-.676-.547-1.006-.031-.041-.091-.145-.149-.251-1.209-2.082-2.686-4.001-4.395-5.71-5.286-5.286-12.319-8.197-19.803-8.197-5.974,0-11.669,1.852-16.47,5.357-.447,.326-1.072,.228-1.397-.218-.326-.446-.228-1.072,.218-1.397,5.146-3.757,11.249-5.742,17.65-5.742,8.018,0,15.553,3.119,21.217,8.783,1.831,1.831,3.415,3.889,4.708,6.115,.053,.093,.087,.157,.128,.219,.235,.414,.431,.764,.616,1.124,.218,.415,.428,.845,.617,1.277,.131,.291,.264,.59,.388,.889l.066,.164c.104,.259,.207,.516,.303,.786l-.883,.493,.928-.374c.159,.395,.299,.8,.426,1.205,.009,.021,.028,.082,.048,.163,.094,.259,.213,.631,.3,.99,.227,.763,.427,1.597,.582,2.434,.047,.214,.089,.457,.132,.701,.136,.793,.24,1.598,.31,2.393,.031,.35,.053,.711,.072,1.073l.019,.389c.013,.448,.023,.808,.023,1.177v15.84c0,.552-.447,1-1,1Z"/>
  <g>
    <path d="M64,56c-7.169,0-13-5.832-13-13s5.831-13,13-13,13,5.832,13,13-5.832,13-13,13Zm0-24c-6.065,0-11,4.935-11,11s4.935,11,11,11,11-4.935,11-11-4.935-11-11-11Z"/>
    <path d="M64,51c-4.411,0-8-3.589-8-8s3.589-8,8-8,8,3.589,8,8-3.589,8-8,8Zm0-14c-3.309,0-6,2.691-6,6s2.691,6,6,6,6-2.691,6-6-2.691-6-6-6Z"/>
  </g>
  <g>
    <path d="M35,61c-.552,0-1-.448-1-1v-7c0-3.614,.641-7.148,1.904-10.502,.116-.35,.266-.726,.427-1.101,.437-1.064,.971-2.153,1.581-3.222,.241-.424,.754-.611,1.211-.444,4.711,1.72,7.877,6.249,7.877,11.27,0,6.617-5.383,12-12,12Zm4.226-21.064c-.394,.744-.746,1.492-1.051,2.234-.144,.338-.275,.663-.386,.996-1.191,3.165-1.789,6.461-1.789,9.833v5.95c5.046-.503,9-4.774,9-9.95,0-3.898-2.289-7.44-5.774-9.064Z"/>
    <path d="M35,56.42c-.552,0-1-.448-1-1v-2.42c0-3.614,.641-7.148,1.904-10.502,.185-.491,.715-.757,1.222-.606,3.117,.929,5.294,3.852,5.294,7.108,0,4.091-3.329,7.42-7.42,7.42Zm2.435-12.261c-.953,2.841-1.435,5.81-1.435,8.841v1.328c2.513-.471,4.42-2.681,4.42-5.328,0-2.058-1.19-3.933-2.985-4.841Z"/>
  </g>
  <path d="M89.9,100.83c-.553,0-1.005-.448-1.005-1,0-.488,.345-.895,.807-.982,4.544-1.241,8.458-2.837,11.391-4.642-1.38-2.506-4.302-4.85-8.517-6.82-7.252-3.423-17.667-5.386-28.576-5.386s-21.324,1.962-28.573,5.384c-4.218,1.972-7.14,4.316-8.52,6.822,2.941,1.809,6.87,3.41,11.432,4.653,.438,.107,.766,.501,.766,.971,0,.552-.443,1-.995,1h-.01c-.089,0-.177-.012-.263-.035-5.167-1.406-9.583-3.271-12.771-5.393-.4-.266-.554-.779-.367-1.221,1.373-3.252,4.788-6.228,9.878-8.607,7.504-3.542,18.229-5.574,29.423-5.574s21.92,2.032,29.427,5.576c5.086,2.377,8.502,5.354,9.874,8.605,.187,.442,.033,.955-.367,1.221-3.188,2.122-7.604,3.987-12.77,5.393-.086,.023-.174,.035-.263,.035Z"/>
  <path d="M89.9,100.83c-.553,0-1.006-.448-1.006-1,0-.488,.346-.895,.808-.982,4.934-1.348,9.125-3.114,12.124-5.11,1.584-1.047,2.833-2.169,3.715-3.339,.969-1.282,1.459-2.593,1.459-3.898,0-.402-.044-.787-.131-1.142-.007-.028-.013-.056-.017-.084-.888-3.836-6.045-7.564-14.164-10.235-7.938-2.605-18.127-4.04-28.687-4.04s-20.75,1.435-28.688,4.04c-8.123,2.672-13.281,6.402-14.165,10.24-.004,.027-.009,.053-.016,.078-.087,.355-.131,.739-.131,1.142,0,1.305,.491,2.616,1.458,3.897,.882,1.17,2.132,2.293,3.713,3.338,3.009,2.003,7.215,3.774,12.168,5.124,.438,.107,.766,.501,.766,.971,0,.552-.443,1-.995,1h-.01c-.089,0-.177-.012-.263-.035-5.167-1.406-9.583-3.271-12.771-5.393-1.769-1.169-3.185-2.448-4.204-3.8-1.235-1.636-1.862-3.353-1.862-5.102,0-.541,.059-1.065,.175-1.559,.002-.016,.005-.032,.009-.048,1.025-4.627,6.531-8.802,15.504-11.753,8.136-2.67,18.545-4.14,29.313-4.14s21.177,1.47,29.311,4.14c8.974,2.952,14.481,7.127,15.505,11.754,.004,.017,.007,.034,.01,.051,.115,.493,.174,1.016,.174,1.555,0,1.749-.627,3.466-1.862,5.103-1.019,1.352-2.435,2.631-4.206,3.802-3.186,2.12-7.602,3.985-12.768,5.391-.086,.023-.174,.035-.263,.035Z"/>
  <path d="M107.84,86.115c-.553,0-1-.442-1-.995,0-.067,.007-.145,.021-.21,.094-.461,.14-.922,.14-1.41,0-10.201-19.29-18.5-43-18.5-11.861,0-22.925,2.07-31.154,5.83-.502,.23-1.096,.009-1.325-.494-.229-.502-.008-1.096,.494-1.325,8.484-3.876,19.844-6.01,31.985-6.01,25.233,0,45,9.005,45,20.5,0,.617-.058,1.202-.176,1.789-.085,.468-.493,.826-.984,.826Z"/>
  <path d="M20.16,86.115c-.507,0-.926-.373-.991-.862-.114-.575-.169-1.149-.169-1.753,0-3.647,2.057-7.203,5.949-10.284,.431-.343,1.061-.271,1.405,.164,.343,.433,.269,1.062-.164,1.405-3.395,2.688-5.19,5.702-5.19,8.716,0,.488,.046,.949,.14,1.41,.013,.066,.02,.133,.02,.2,0,.552-.448,1.005-1,1.005Z"/>
  <g>
    <path d="M64,78c-1.654,0-3-1.346-3-3s1.346-3,3-3,3,1.346,3,3-1.346,3-3,3Zm0-4c-.551,0-1,.449-1,1s.449,1,1,1,1-.449,1-1-.449-1-1-1Z"/>
    <path d="M80,79c-1.654,0-3-1.346-3-3s1.346-3,3-3,3,1.346,3,3-1.346,3-3,3Zm0-4c-.552,0-1,.449-1,1s.448,1,1,1,1-.449,1-1-.448-1-1-1Z"/>
    <path d="M94,83c-1.654,0-3-1.346-3-3s1.346-3,3-3,3,1.346,3,3-1.346,3-3,3Zm0-4c-.552,0-1,.449-1,1s.448,1,1,1,1-.449,1-1-.448-1-1-1Z"/>
    <path d="M102,89c-1.654,0-3-1.346-3-3s1.346-3,3-3,3,1.346,3,3-1.346,3-3,3Zm0-4c-.552,0-1,.449-1,1s.448,1,1,1,1-.449,1-1-.448-1-1-1Z"/>
    <path d="M48,79c-1.654,0-3-1.346-3-3s1.346-3,3-3,3,1.346,3,3-1.346,3-3,3Zm0-4c-.551,0-1,.449-1,1s.449,1,1,1,1-.449,1-1-.449-1-1-1Z"/>
    <path d="M35,82c-1.654,0-3-1.346-3-3s1.346-3,3-3,3,1.346,3,3-1.346,3-3,3Zm0-4c-.551,0-1,.449-1,1s.449,1,1,1,1-.449,1-1-.449-1-1-1Z"/>
    <path d="M26,89c-1.654,0-3-1.346-3-3s1.346-3,3-3,3,1.346,3,3-1.346,3-3,3Zm0-4c-.551,0-1,.449-1,1s.449,1,1,1,1-.449,1-1-.449-1-1-1Z"/>
  </g>
  <path d="M64,107.37c-9.523,0-18.382-1.445-23.121-3.772-1.103-.546-1.977-1.133-2.6-1.744-.847-.821-1.279-1.722-1.279-2.673,0-5.034,11.703-7.471,21.724-8.029,.555-.022,1.023,.392,1.054,.943,.031,.552-.392,1.023-.943,1.054-12.252,.682-19.835,3.662-19.835,6.032,0,.39,.227,.807,.676,1.242,.476,.468,1.177,.931,2.088,1.382,4.478,2.199,13,3.566,22.236,3.566s17.758-1.367,22.239-3.567c.907-.45,1.608-.913,2.079-1.376,.454-.439,.682-.857,.682-1.247,0-2.283-8.067-5.787-22.655-6.151-.552-.014-.988-.472-.975-1.024,.014-.551,.426-1.008,1.025-.975,11.85,.295,24.605,2.971,24.605,8.15,0,.952-.433,1.853-1.285,2.679-.617,.606-1.49,1.192-2.592,1.737-4.741,2.329-13.601,3.774-23.123,3.774Z"/>
  <g>
    <path d="M93,61c-6.617,0-12-5.383-12-12,0-5.021,3.165-9.55,7.877-11.27,.459-.166,.97,.021,1.212,.444,.607,1.066,1.142,2.155,1.586,3.235,.155,.361,.305,.737,.434,1.124,1.251,3.32,1.892,6.854,1.892,10.466v7c0,.552-.447,1-1,1Zm-4.226-21.064c-3.486,1.624-5.774,5.166-5.774,9.064,0,5.176,3.954,9.447,9,9.95v-5.95c0-3.371-.598-6.667-1.775-9.797-.124-.369-.254-.693-.393-1.018-.311-.754-.663-1.505-1.057-2.249Z"/>
    <path d="M93,56.42c-4.092,0-7.42-3.329-7.42-7.42,0-3.256,2.177-6.179,5.294-7.108,.507-.15,1.037,.114,1.222,.606,1.264,3.356,1.904,6.89,1.904,10.502v2.42c0,.552-.447,1-1,1Zm-2.436-12.261c-1.795,.908-2.984,2.783-2.984,4.841,0,2.647,1.907,4.857,4.42,5.328v-1.328c0-3.029-.482-5.998-1.436-8.841Z"/>
  </g>
  <path d="M113.815,64.496c-.135,0-.271-.028-.402-.085-.506-.223-.734-.814-.512-1.319,.281-.638,.66-1.217,1.116-1.721-.93-.28-1.787-.766-2.507-1.418-.165,.553-.406,1.086-.718,1.582-.294,.468-.911,.609-1.379,.314-.468-.294-.608-.912-.314-1.379,.679-1.077,.864-2.347,.523-3.577,0-.002,0-.003,0-.004h0c-.147-.532,.164-1.084,.695-1.231,.532-.146,1.083,.163,1.231,.695h0s0,.003,0,.004c.667,2.389,3.155,3.79,5.54,3.126h0c.525-.148,1.083,.164,1.231,.695,.147,.532-.164,1.083-.695,1.231-.002,0-.004,.001-.005,.002-1.299,.362-2.353,1.27-2.891,2.49-.165,.374-.531,.596-.916,.597Z"/>
  <path d="M14.673,64.715c-.11,0-.223-.019-.333-.058-1.951-.688-3.281-2.549-3.311-4.632-.038-2.757,2.16-5.031,4.9-5.07,.023,0,.047,0,.07,0,2.588,0,4.757,2.016,4.954,4.619,.042,.551-.371,1.031-.921,1.073-.56,.041-1.031-.371-1.073-.921-.118-1.561-1.415-2.77-2.961-2.77-.014,0-.027,0-.041,0-1.638,.023-2.952,1.387-2.929,3.041,.018,1.249,.812,2.363,1.976,2.774,.521,.184,.794,.755,.61,1.275-.144,.411-.531,.668-.943,.668Z"/>
  <g>
    <path d="M47.534,119.777c-.328,0-.649-.161-.84-.457l-1.617-2.498c-.3-.464-.167-1.083,.296-1.383,.464-.301,1.083-.167,1.383,.296l1.617,2.498c.3,.464,.167,1.083-.296,1.383-.168,.109-.356,.161-.542,.161Z"/>
    <path d="M43.724,113.888c-.328,0-.649-.161-.84-.457l-1.612-2.491c-.3-.464-.167-1.083,.296-1.383,.464-.301,1.082-.167,1.383,.296l1.612,2.491c.3,.464,.167,1.083-.296,1.383-.168,.109-.356,.161-.542,.161Z"/>
    <path d="M40.626,118.297c-.328,0-.649-.161-.84-.457-.3-.464-.167-1.083,.296-1.383l2.499-1.617c.464-.301,1.082-.167,1.383,.296,.3,.464,.167,1.083-.296,1.383l-2.499,1.617c-.168,.109-.356,.161-.542,.161Z"/>
    <path d="M46.516,114.486c-.328,0-.649-.161-.841-.457-.3-.463-.167-1.083,.297-1.383l2.491-1.611c.462-.299,1.083-.167,1.383,.297,.3,.463,.167,1.083-.297,1.383l-2.491,1.611c-.167,.108-.356,.16-.542,.16Z"/>
  </g>
  <g>
    <path d="M105.869,24.96c-.225,0-.452-.076-.639-.231-.425-.354-.482-.984-.129-1.409l9.13-10.96c.354-.424,.983-.482,1.408-.129,.425,.354,.482,.984,.129,1.409l-9.13,10.96c-.198,.237-.482,.36-.77,.36Z"/>
    <path d="M94.999,38c-.226,0-.452-.076-.64-.232-.424-.354-.481-.984-.128-1.408l5.85-7.02c.354-.424,.983-.482,1.409-.128,.424,.354,.481,.984,.128,1.408l-5.85,7.02c-.198,.237-.482,.36-.77,.36Z"/>
    <path d="M97.999,41c-.506,0-.939-.382-.993-.895-.059-.549,.34-1.041,.89-1.099l19-2c.536-.056,1.041,.341,1.099,.89,.059,.549-.34,1.041-.89,1.099l-19,2c-.035,.003-.07,.005-.105,.005Z"/>
    <path d="M91,34c-.553,0-1-.448-1-1V16c0-.552,.447-1,1-1s1,.448,1,1v17c0,.552-.447,1-1,1Z"/>
  </g>
  <g>
    <path d="M22.07,24.88c-.287,0-.571-.123-.768-.36L12.232,13.64c-.353-.424-.296-1.055,.128-1.408,.424-.354,1.055-.297,1.408,.128l9.07,10.88c.353,.424,.296,1.055-.128,1.408-.187,.156-.414,.232-.64,.232Z"/>
    <path d="M33,38c-.287,0-.571-.123-.769-.36l-5.8-6.96c-.353-.424-.296-1.055,.128-1.408,.424-.355,1.055-.297,1.408,.128l5.8,6.96c.353,.424,.296,1.055-.128,1.408-.187,.156-.414,.232-.64,.232Z"/>
    <path d="M30.001,41c-.035,0-.07-.002-.106-.005l-19-2c-.549-.058-.948-.55-.89-1.099,.058-.549,.54-.944,1.099-.89l19,2c.549,.058,.948,.55,.89,1.099-.054,.514-.488,.895-.994,.895Z"/>
    <path d="M37,34c-.552,0-1-.448-1-1V16c0-.552,.448-1,1-1s1,.448,1,1v17c0,.552-.448,1-1,1Z"/>
  </g>
</svg>