<?xml version="1.0" encoding="UTF-8"?>
<svg id="_15" data-name="15" xmlns="http://www.w3.org/2000/svg" viewBox="0 0 128 128">
  <path d="M81.719,38.07c-.161,0-.325-.039-.478-.122-2.1-1.144-4.307-2.453-6.863-3.969l-.977-.579c-.475-.281-.632-.895-.351-1.37,.281-.475,.894-.632,1.37-.351l.978,.58c2.539,1.506,4.732,2.806,6.8,3.933,.485,.264,.664,.871,.399,1.356-.182,.333-.524,.522-.879,.522Z"/>
  <path d="M73.911,91.46c-.342,0-.675-.175-.861-.49-.281-.476-.125-1.089,.351-1.37,9.958-5.9,15.969-9.462,24.292-9.609,.783-.017,1.508-.209,2.09-.552,3.529-2.073,5.455-4.858,6.441-9.315,.522-2.322,.776-5.142,.776-8.624,0-3.335-.326-6.299-.969-8.811-1.132-4.47-3.245-7.575-6.279-9.231-.533-.288-1.172-.439-1.894-.448-3.602-.04-6.913-.703-10.417-2.09-.514-.203-.765-.784-.561-1.298,.203-.514,.784-.766,1.298-.562,3.313,1.311,6.306,1.912,9.703,1.949,1.051,.013,2.001,.245,2.825,.69,3.547,1.935,5.989,5.466,7.264,10.495,.684,2.672,1.03,5.803,1.03,9.305,0,3.632-.27,6.596-.824,9.06-1.103,4.982-3.379,8.253-7.379,10.602-.875,.516-1.935,.802-3.064,.828-7.468,.132-12.835,3.122-23.312,9.33-.16,.095-.336,.14-.509,.14Z"/>
  <path d="M89.84,83.31c-.091,0-.184-.013-.277-.039-.53-.153-.837-.707-.684-1.238,4.076-14.145,4.135-27.93,.174-40.972-.16-.529,.138-1.087,.666-1.248,.536-.159,1.088,.139,1.248,.666,4.075,13.419,4.019,27.586-.166,42.108-.126,.438-.526,.723-.961,.723Z"/>
  <path d="M96.591,53.17c-.033,0-.067-.002-.101-.005-4.972-.501-10.033-1.597-15.044-3.256-.524-.174-.809-.739-.635-1.264,.174-.524,.739-.807,1.264-.635,4.871,1.613,9.789,2.678,14.616,3.164,.549,.056,.95,.546,.895,1.096-.052,.515-.486,.899-.994,.899Z"/>
  <path d="M81.83,74.71c-.412,0-.798-.256-.942-.667-.185-.521,.089-1.092,.609-1.275,8.383-2.964,16.757-4.14,24.903-3.501,.403-2.148,.6-4.7,.6-7.767,0-2.991-.263-5.685-.78-8.021-1.591,.064-3.184,.073-4.752,.02-.553-.018-.985-.479-.967-1.031,.018-.541,.461-.968,.998-.968,.012,0,.022,0,.033,.001,1.786,.058,3.607,.039,5.414-.06,.478-.024,.904,.289,1.022,.751,.684,2.675,1.031,5.806,1.031,9.308,0,3.632-.27,6.596-.824,9.06-.111,.492-.577,.831-1.07,.775-8.137-.772-16.528,.345-24.942,3.317-.11,.039-.223,.058-.333,.058Z"/>
  <path d="M53.931,51.58c-.057,0-.114-.005-.173-.015-.544-.095-.908-.613-.813-1.157,.698-4.003,1.769-7.642,3.183-10.815,.224-.504,.812-.733,1.32-.506,.504,.225,.731,.815,.506,1.32-1.347,3.024-2.369,6.504-3.038,10.345-.085,.486-.507,.828-.984,.828Z"/>
  <path d="M68,94c-7.18,0-13.344-9.331-15.34-23.218-.078-.547,.302-1.054,.848-1.133,.558-.078,1.054,.302,1.133,.848,1.818,12.661,7.312,21.503,13.359,21.503,7.589,0,14-13.968,14-30.5s-6.411-30.5-14-30.5c-2.183,0-4.298,1.123-6.286,3.338-.369,.412-1,.446-1.412,.076-.411-.369-.445-1.001-.076-1.412,2.351-2.618,5.039-4.002,7.774-4.002,8.972,0,16,14.275,16,32.5s-7.028,32.5-16,32.5Z"/>
  <path d="M68,89c-3.372,0-8.055-7.202-9.739-18.837-.079-.547,.3-1.054,.846-1.133,.545-.09,1.055,.299,1.133,.846,1.604,11.08,5.969,17.124,7.761,17.124,2.078,0,8.35-9.044,8.35-25.5s-6.271-25.5-8.35-25.5c-1.981,0-7.314,7.55-8.222,21.545-.035,.551-.524,.959-1.062,.934-.552-.036-.969-.512-.934-1.062,.87-13.402,6.112-23.416,10.218-23.416s10.35,10.968,10.35,27.5-6.229,27.5-10.35,27.5Z"/>
  <path d="M67.679,64c-.533,0-.977-.422-.998-.96-.02-.504-.03-1.017-.03-1.54,0-3.583,.372-7.029,1.105-10.242,.122-.54,.659-.878,1.197-.752,.538,.123,.875,.658,.752,1.197-.7,3.067-1.055,6.363-1.055,9.797,0,.496,.01,.983,.028,1.46,.022,.552-.407,1.017-.959,1.039-.014,.001-.027,.001-.041,.001Z"/>
  <path d="M73.25,83.22c-.313,0-.609-.146-.8-.399-2.868-3.82-4.894-9.806-5.556-16.421-.055-.55,.346-1.04,.896-1.095,.56-.044,1.04,.347,1.095,.895,.538,5.373,2.071,10.439,4.186,13.959,1.462-3.568,3.278-9.787,3.278-18.659s-1.818-15.098-3.28-18.665c-.751,1.243-1.602,2.972-2.37,5.289-.173,.524-.738,.808-1.264,.635-.524-.174-.808-.739-.635-1.264,.964-2.909,2.226-5.44,3.652-7.319,.211-.277,.557-.417,.896-.391,.347,.035,.65,.247,.802,.561,1.567,3.256,4.198,10.334,4.198,21.153s-2.631,17.897-4.198,21.153c-.152,.315-.456,.527-.804,.561-.033,.003-.065,.005-.098,.005Z"/>
  <g>
    <path d="M56,58c-.553,0-1-.447-1-1,0-5.514-4.486-10-10-10s-10,4.486-10,10c0,.553-.447,1-1,1s-1-.447-1-1c0-6.617,5.383-12,12-12s12,5.383,12,12c0,.553-.447,1-1,1Z"/>
    <path d="M45,76c-3.619,0-7.005-1.781-9.055-4.764-.312-.455-.197-1.078,.258-1.391,.455-.312,1.078-.197,1.391,.258,1.677,2.44,4.445,3.897,7.406,3.897s5.729-1.457,7.406-3.897c.313-.455,.936-.57,1.391-.258,.455,.312,.57,.936,.258,1.391-2.05,2.983-5.436,4.764-9.055,4.764Z"/>
    <path d="M45.001,71.993c-6.18,0-12.358-.543-18.495-1.629-.199-.037-.302-.06-.405-.093-.525-.172-.812-.736-.642-1.261,.171-.523,.732-.811,1.254-.644,.018,.004,.17,.033,.18,.035,12.003,2.122,24.214,2.121,36.254-.007,1.078-.188,2.07-.714,2.797-1.482l2.739-2.908-47.362-.005,1.817,1.934c.379,.402,.36,1.035-.041,1.414-.401,.377-1.034,.359-1.414-.041l-1.82-1.93c-.549-.587-.696-1.439-.379-2.172,.322-.743,1.026-1.205,1.837-1.205h47.359c.81,0,1.515,.462,1.837,1.205,.317,.733,.17,1.585-.376,2.169l-2.743,2.911c-1.021,1.081-2.408,1.819-3.906,2.08-6.134,1.085-12.312,1.628-18.49,1.628Z"/>
    <path d="M63,64H27c-.367,0-.705-.201-.88-.524-.175-.322-.158-.715,.043-1.023l1.96-3c.302-.463,.922-.592,1.384-.29,.463,.302,.593,.922,.29,1.384l-.949,1.453H61.152l-1.759-2.693c-.526-.807-1.543-1.307-2.653-1.307h-23.48c-.249,0-.482,.024-.694,.074-.541,.126-1.075-.212-1.2-.749-.124-.538,.211-1.075,.749-1.2,.359-.083,.745-.125,1.145-.125h23.48c1.779,0,3.437,.848,4.328,2.214l2.768,4.239c.201,.308,.217,.7,.043,1.023-.175,.323-.513,.524-.88,.524Z"/>
  </g>
  <path d="M28.32,41h-7.32c-.553,0-1-.447-1-1s.447-1,1-1h7.32c.553,0,1,.447,1,1s-.447,1-1,1Z"/>
  <path d="M38,41h-5.33c-.553,0-1-.447-1-1s.447-1,1-1h5.33c.553,0,1,.447,1,1s-.447,1-1,1Z"/>
  <path d="M32.3,85h-8.3c-.553,0-1-.447-1-1s.447-1,1-1h8.3c.553,0,1,.447,1,1s-.447,1-1,1Z"/>
  <path d="M44,85h-6.2c-.553,0-1-.447-1-1s.447-1,1-1h6.2c.553,0,1,.447,1,1s-.447,1-1,1Z"/>
  <path d="M19.29,76h-7.29c-.553,0-1-.447-1-1s.447-1,1-1h7.29c.553,0,1,.447,1,1s-.447,1-1,1Z"/>
  <path d="M31,76h-7.71c-.553,0-1-.447-1-1s.447-1,1-1h7.71c.553,0,1,.447,1,1s-.447,1-1,1Z"/>
  <path d="M19.4,52.79H8c-.553,0-1-.447-1-1s.447-1,1-1h11.4c.553,0,1,.447,1,1s-.447,1-1,1Z"/>
  <path d="M28,52.79h-5.39c-.553,0-1-.447-1-1s.447-1,1-1h5.39c.553,0,1,.447,1,1s-.447,1-1,1Z"/>
  <path d="M74.829,56.403c-6.295,0-11.524-.825-15.935-2.509-.517-.197-.774-.775-.578-1.291,.197-.516,.777-.774,1.291-.578,4.608,1.76,10.46,2.557,17.404,2.345,.531,.013,1.013,.418,1.029,.971,.016,.552-.419,1.013-.971,1.029-.762,.021-1.509,.033-2.24,.033Z"/>
  <path d="M59.31,71.43c-.403,0-.783-.246-.935-.646-.196-.517,.063-1.094,.58-1.289,4.84-1.837,10.923-2.664,18.073-2.465,.552,.016,.986,.476,.972,1.028-.016,.552-.452,.965-1.028,.972-6.891-.196-12.713,.592-17.308,2.334-.116,.045-.236,.065-.354,.065Z"/>
  <path d="M37.763,24.822c-.244,0-.489-.089-.682-.269-.931-.868-2.139-1.291-3.415-1.184h-.004c-.563,.058-1.034-.363-1.079-.913-.046-.551,.362-1.033,.913-1.079h0c1.199-.101,2.287-.66,3.062-1.577,.775-.915,1.148-2.079,1.05-3.275v-.005c-.046-.551,.363-1.034,.913-1.079,.559-.057,1.033,.363,1.079,.913h0c.112,1.346,.807,2.553,1.905,3.31,.454,.314,.568,.937,.255,1.392-.314,.452-.935,.567-1.392,.255-.573-.396-1.071-.876-1.481-1.419-.449,.86-1.087,1.612-1.861,2.196,.512,.267,.989,.602,1.418,1.002,.404,.377,.427,1.01,.05,1.413-.197,.212-.464,.318-.731,.318Z"/>
  <path d="M47.002,101.927c-.444,0-.893-.06-1.334-.182-2.656-.74-4.219-3.489-3.485-6.13,.701-2.522,3.272-4.067,5.847-3.521,.54,.115,.885,.646,.77,1.186-.115,.54-.648,.88-1.186,.771-1.547-.33-3.085,.593-3.503,2.1-.439,1.579,.5,3.224,2.094,3.668,1.202,.332,2.495-.114,3.218-1.116,.324-.448,.948-.549,1.396-.227,.448,.323,.549,.948,.226,1.397-.944,1.309-2.467,2.055-4.043,2.055Z"/>
  <g>
    <path d="M22.534,105.777c-.328,0-.649-.161-.841-.457l-1.617-2.499c-.3-.463-.167-1.082,.297-1.383,.464-.299,1.083-.168,1.383,.297l1.617,2.499c.3,.463,.167,1.082-.297,1.383-.168,.108-.355,.16-.542,.16Z"/>
    <path d="M18.724,99.888c-.328,0-.649-.161-.841-.457l-1.611-2.49c-.3-.464-.167-1.082,.297-1.383,.464-.299,1.083-.167,1.383,.297l1.611,2.49c.3,.464,.167,1.082-.297,1.383-.168,.108-.355,.16-.542,.16Z"/>
    <path d="M15.626,104.297c-.328,0-.649-.161-.841-.457-.3-.464-.167-1.083,.297-1.383l2.499-1.616c.465-.301,1.083-.167,1.383,.297s.167,1.083-.297,1.383l-2.499,1.616c-.168,.108-.357,.16-.542,.16Z"/>
    <path d="M21.516,100.486c-.328,0-.649-.161-.841-.457-.3-.464-.167-1.083,.297-1.383l2.491-1.611c.464-.301,1.082-.167,1.383,.297,.3,.464,.167,1.083-.297,1.383l-2.491,1.611c-.168,.108-.356,.16-.542,.16Z"/>
  </g>
  <g>
    <path d="M92.391,23.54c-.067,0-.136-.007-.205-.02-.54-.113-.888-.642-.775-1.184l2.61-12.54c.112-.54,.635-.886,1.184-.775,.54,.113,.888,.643,.775,1.184l-2.61,12.54c-.099,.472-.515,.796-.978,.796Z"/>
    <path d="M90.001,35c-.067,0-.137-.007-.206-.021-.54-.112-.887-.643-.773-1.184l1.27-6.07c.113-.54,.634-.891,1.184-.773,.54,.112,.887,.643,.773,1.184l-1.27,6.07c-.099,.471-.514,.795-.977,.795Z"/>
    <path d="M94,36c-.241,0-.483-.087-.676-.263-.407-.373-.435-1.006-.061-1.413l11-12c.374-.405,1.006-.435,1.413-.061,.407,.373,.435,1.006,.061,1.413l-11,12c-.197,.215-.467,.324-.737,.324Z"/>
    <path d="M84.999,34c-.448,0-.855-.303-.969-.758l-4-16c-.135-.535,.191-1.078,.727-1.212,.534-.136,1.078,.191,1.212,.727l4,16c.135,.535-.191,1.078-.727,1.212-.081,.021-.163,.03-.243,.03Z"/>
  </g>
  <g>
    <path d="M91.579,97.57c-.464,0-.88-.324-.977-.796l-1.58-7.57c-.113-.54,.233-1.07,.774-1.183,.536-.117,1.07,.233,1.183,.774l1.58,7.57c.113,.54-.233,1.07-.774,1.183-.068,.015-.138,.021-.205,.021Z"/>
    <path d="M94.999,114c-.464,0-.88-.324-.979-.796l-2.15-10.341c-.112-.54,.235-1.069,.775-1.183,.543-.11,1.07,.235,1.184,.775l2.15,10.341c.112,.54-.235,1.069-.775,1.183-.069,.014-.138,.021-.205,.021Z"/>
    <path d="M105,101c-.271,0-.54-.109-.737-.324l-11-12c-.373-.407-.346-1.04,.061-1.413,.408-.372,1.04-.345,1.413,.061l11,12c.373,.407,.346,1.04-.061,1.413-.192,.176-.435,.263-.676,.263Z"/>
    <path d="M81.001,107c-.08,0-.162-.01-.243-.03-.536-.134-.862-.677-.727-1.212l4-16c.134-.536,.676-.865,1.212-.727,.536,.134,.862,.677,.727,1.212l-4,16c-.113,.455-.52,.758-.969,.758Z"/>
  </g>
  <path d="M108,62h-25c-.553,0-1-.447-1-1s.447-1,1-1h25c.553,0,1,.447,1,1s-.447,1-1,1Z"/>
</svg>