<?xml version="1.0" encoding="UTF-8"?>
<svg id="_02" data-name="02" xmlns="http://www.w3.org/2000/svg" viewBox="0 0 128 128">
  <path d="M108.82,69H19.18c-.517,0-.949-.395-.996-.909-.122-1.344-.184-2.72-.184-4.091,0-10.396,3.565-20.58,10.039-28.674,.344-.432,.973-.502,1.405-.156,.431,.345,.502,.974,.156,1.405-6.191,7.742-9.601,17.481-9.601,27.425,0,1.002,.035,2.008,.104,3H107.896c.069-.992,.104-1.998,.104-3,0-24.262-19.738-44-44-44-11.364,0-22.149,4.32-30.37,12.164-.4,.381-1.032,.366-1.414-.033-.381-.399-.366-1.033,.033-1.414,8.594-8.2,19.87-12.716,31.751-12.716,25.364,0,46,20.636,46,46,0,1.371-.062,2.747-.184,4.091-.047,.515-.479,.909-.996,.909Z"/>
  <path d="M96,69H32c-.265,0-.52-.105-.707-.293l-4-4c-.286-.286-.372-.716-.217-1.09,.155-.373,.519-.617,.924-.617H100c.404,0,.769,.244,.924,.617,.155,.374,.069,.804-.217,1.09l-4,4c-.188,.188-.442,.293-.707,.293Zm-63.586-2h63.172l2-2H30.414l2,2Z"/>
  <path d="M89,109H39c-.315,0-.612-.149-.801-.401-.188-.252-.247-.58-.158-.882l5.87-19.87c.156-.529,.714-.83,1.242-.676,.53,.156,.833,.713,.676,1.242l-5.491,18.587h47.323l-12.409-42h-22.505l-4.918,16.653c-.156,.53-.711,.832-1.242,.676-.53-.156-.832-.712-.676-1.242l5.13-17.37c.126-.425,.516-.717,.959-.717h24c.443,0,.834,.292,.959,.717l13,44c.089,.302,.031,.629-.158,.882-.189,.252-.486,.401-.801,.401Z"/>
  <path d="M35.811,58.2c-.077,0-.154-.009-.232-.027-.537-.128-.869-.667-.742-1.205,.44-1.852,1.064-3.662,1.855-5.377,.231-.502,.825-.721,1.327-.49,.501,.231,.721,.825,.49,1.327-.735,1.596-1.315,3.279-1.726,5.003-.109,.459-.519,.769-.972,.769Z"/>
  <path d="M40.999,47.34c-.21,0-.422-.066-.602-.203-.441-.333-.528-.96-.194-1.4,.628-.831,1.326-1.647,2.076-2.429,.382-.398,1.015-.412,1.414-.029,.398,.382,.412,1.015,.029,1.414-.696,.725-1.343,1.482-1.924,2.251-.196,.26-.496,.397-.798,.397Z"/>
  <path d="M82.279,42.48c-.222,0-.445-.073-.63-.224-4.495-3.656-9.929-5.792-15.715-6.178-.551-.037-.968-.513-.931-1.064,.036-.551,.515-.98,1.064-.931,6.202,.414,12.027,2.703,16.844,6.622,.429,.349,.494,.979,.145,1.407-.198,.243-.486,.369-.776,.369Z"/>
  <path d="M93,65H35c-.552,0-1-.448-1-1,0-1.059,.057-2.11,.174-3.214,.047-.509,.475-.911,.996-.911,.552,0,1,.443,1,.995v.01c0,.036-.002,.071-.006,.106-.073,.688-.122,1.354-.145,2.014h55.963c-.024-.672-.073-1.352-.146-2.034-.059-.549,.339-1.042,.888-1.1,.561-.061,1.042,.34,1.1,.888,.117,1.092,.176,2.185,.176,3.246,0,.552-.448,1-1,1Z"/>
  <path d="M92.189,58.18c-.451,0-.861-.308-.971-.766-1.146-4.762-3.546-9.162-6.941-12.724-.381-.4-.366-1.033,.034-1.414,.399-.38,1.033-.366,1.413,.034,3.639,3.817,6.211,8.533,7.439,13.636,.129,.537-.201,1.077-.738,1.206-.079,.019-.157,.028-.235,.028Z"/>
  <path d="M45.721,42.48c-.291,0-.579-.126-.776-.369-.349-.428-.284-1.058,.145-1.407,4.812-3.914,10.637-6.207,16.842-6.632,.558-.036,1.028,.378,1.066,.929,.038,.551-.378,1.028-.929,1.066-5.792,.396-11.227,2.536-15.717,6.189-.185,.151-.409,.224-.63,.224Z"/>
  <path d="M28.419,56.02c-.169,0-.341-.043-.499-.134-.479-.276-.642-.888-.366-1.366l9.37-16.23c.276-.479,.886-.642,1.366-.366,.479,.276,.642,.888,.366,1.366l-9.37,16.23c-.186,.321-.521,.5-.867,.5Z"/>
  <path d="M88.291,36.47c-.322,0-.635-.156-.826-.435l-21.807-7.935c-.519-.189-.787-.763-.598-1.282,.189-.52,.764-.786,1.282-.598l22.15,8.06c.225,.082,.414,.242,.53,.451l.14,.25c.271,.482,.099,1.091-.383,1.361-.154,.087-.322,.128-.488,.128Z"/>
  <path d="M99.85,65H28.15c-.485,0-.9-.348-.985-.826l-.97-5.47c-.096-.543,.267-1.062,.811-1.159,.541-.093,1.062,.267,1.159,.811l.823,4.645H99.011l.824-4.664c.096-.544,.616-.906,1.159-.811,.544,.096,.907,.615,.811,1.159l-.97,5.49c-.085,.478-.5,.826-.985,.826Z"/>
  <path d="M99.571,56.01c-.346,0-.682-.179-.867-.5l-9.36-16.22c-.276-.479-.112-1.09,.366-1.366,.479-.276,1.09-.112,1.366,.366l9.36,16.22c.276,.479,.112,1.09-.366,1.366-.158,.091-.33,.134-.499,.134Z"/>
  <path d="M39.709,36.47c-.166,0-.333-.041-.488-.128-.482-.27-.654-.879-.383-1.361l.14-.25c.117-.209,.305-.369,.53-.451l22.15-8.06c.517-.188,1.092,.079,1.282,.598,.188,.519-.079,1.093-.598,1.282l-21.807,7.935c-.191,.279-.504,.435-.826,.435Z"/>
  <path d="M82.178,47.053c-.73,0-1.461-.278-2.017-.834-1.113-1.113-1.113-2.923,0-4.036l8.692-8.692c1.112-1.112,2.923-1.112,4.035,0s1.113,2.923,0,4.036l-8.692,8.692c-.556,.556-1.287,.834-2.018,.834Zm8.692-12.398c-.219,0-.437,.083-.603,.249l-8.692,8.692c-.333,.333-.333,.874,0,1.207s.874,.333,1.207,0l8.692-8.692c.333-.333,.333-.874,0-1.207-.166-.167-.385-.249-.603-.249Z"/>
  <path d="M45.822,47.053c-.73,0-1.461-.278-2.018-.834l-8.692-8.692c-1.113-1.113-1.113-2.923,0-4.036s2.923-1.112,4.035,0l8.692,8.692c1.113,1.113,1.113,2.923,0,4.036-.556,.556-1.287,.834-2.017,.834Zm-8.692-12.398c-.219,0-.437,.083-.604,.249-.333,.333-.333,.874,0,1.207l8.692,8.692c.333,.333,.874,.333,1.207,0s.333-.874,0-1.207l-8.692-8.692c-.167-.167-.385-.249-.604-.249Z"/>
  <path d="M37.371,62.443c-.266,0-.536-.038-.803-.116l-11.794-3.468c-.731-.215-1.335-.702-1.7-1.371-.365-.669-.447-1.44-.232-2.172,.215-.731,.702-1.334,1.371-1.7,.668-.364,1.44-.447,2.171-.233l11.794,3.468c1.509,.444,2.376,2.034,1.933,3.543h0c-.366,1.242-1.506,2.049-2.74,2.049Zm-11.793-7.176c-.141,0-.28,.035-.408,.105-.2,.109-.346,.289-.41,.508-.064,.219-.04,.45,.069,.65,.109,.2,.289,.345,.508,.41l11.794,3.468c.45,.132,.926-.126,1.06-.578h0c.133-.452-.126-.927-.578-1.06l-11.794-3.468c-.08-.024-.161-.035-.242-.035Zm13.573,4.845h0Z"/>
  <path d="M90.576,62.444c-.472,0-.938-.118-1.363-.35-.669-.365-1.156-.969-1.371-1.7-.215-.731-.132-1.502,.232-2.171,.365-.669,.969-1.156,1.7-1.372l11.793-3.468c1.511-.443,3.099,.424,3.543,1.933,.443,1.51-.424,3.1-1.933,3.543l-11.793,3.468c-.267,.078-.539,.117-.809,.117Zm11.797-7.177c-.08,0-.161,.011-.241,.035l-11.793,3.468c-.219,.064-.399,.21-.509,.41s-.134,.431-.069,.649h0c.064,.219,.21,.399,.41,.508,.202,.11,.432,.135,.65,.07l11.793-3.468c.452-.133,.711-.608,.578-1.06-.109-.371-.451-.612-.819-.612Z"/>
  <path d="M64,65c-.552,0-1-.448-1-1v-10c0-.552,.448-1,1-1h2v-7h-2c-.552,0-1-.448-1-1v-6c0-.552,.448-1,1-1s1,.448,1,1v5h2c.552,0,1,.448,1,1v9c0,.552-.448,1-1,1h-2v9c0,.552-.448,1-1,1Z"/>
  <g>
    <path d="M89,109H39c-.315,0-.612-.149-.801-.401-.188-.253-.247-.58-.158-.882l2.66-9c.125-.425,.516-.716,.959-.716h44.68c.443,0,.834,.291,.959,.716l2.66,9c.089,.303,.031,.629-.158,.882-.189,.252-.486,.401-.801,.401Zm-48.662-2h47.323l-2.069-7H42.407l-2.069,7Z"/>
    <path d="M83.39,90H44.61c-.316,0-.613-.149-.802-.403-.189-.254-.247-.581-.156-.884l.26-.87c.158-.53,.717-.829,1.245-.671,.39,.117,.655,.449,.705,.828h36.189l-1.777-6H47.647c-.248,.305-.661,.447-1.062,.329-.529-.157-.831-.713-.674-1.243l.11-.37c.126-.424,.516-.715,.958-.715h34.04c.443,0,.833,.291,.959,.716l2.37,8c.089,.303,.031,.63-.158,.882-.189,.253-.486,.402-.801,.402Z"/>
    <path d="M78.66,74h-29.32c-.315,0-.612-.149-.801-.401-.189-.253-.247-.58-.158-.882l1.48-5c.126-.425,.516-.716,.959-.716h26.36c.443,0,.833,.291,.959,.716l1.48,5c.089,.302,.031,.629-.158,.882-.189,.253-.486,.401-.801,.401Zm-27.981-2h26.643l-.888-3h-24.866l-.888,3Z"/>
  </g>
  <path d="M64,40c-1.654,0-3-1.346-3-3v-12c0-1.654,1.346-3,3-3s3,1.346,3,3v12c0,1.654-1.346,3-3,3Zm0-16c-.551,0-1,.449-1,1v12c0,.551,.449,1,1,1s1-.449,1-1v-12c0-.551-.449-1-1-1Z"/>
  <path d="M101.496,90.401c-.517,0-.954-.397-.996-.92h0c-.095-1.2-.651-2.29-1.565-3.069-.914-.778-2.08-1.158-3.277-1.06t0,0c-.566,.038-1.032-.367-1.077-.917-.043-.551,.367-1.033,.918-1.077h0c1.346-.107,2.555-.797,3.316-1.893,.316-.454,.939-.565,1.392-.251,.454,.315,.566,.938,.251,1.392-.397,.571-.877,1.067-1.419,1.474,.422,.223,.822,.493,1.194,.81,.374,.319,.707,.674,.995,1.058,.268-.509,.604-.984,1.004-1.411,.378-.404,1.012-.422,1.414-.045,.403,.378,.423,1.011,.045,1.414-.872,.93-1.297,2.143-1.196,3.415,0,0,0,0,0,.001,.043,.55-.367,1.032-.917,1.076-.027,.002-.054,.003-.081,.003Z"/>
  <path d="M31.876,89.69c-.248,0-.497-.092-.69-.276-.4-.381-.415-1.014-.034-1.414,1.09-1.144,1.111-2.938,.048-4.085-.539-.581-1.273-.916-2.069-.944-.792-.03-1.561,.258-2.151,.804-.916,.849-1.212,2.185-.738,3.326,.212,.51-.029,1.095-.54,1.307-.509,.213-1.095-.029-1.307-.54-.794-1.91-.302-4.145,1.226-5.56,.978-.907,2.245-1.384,3.579-1.337,1.332,.046,2.563,.608,3.467,1.584,1.78,1.921,1.75,4.917-.067,6.824-.196,.206-.46,.31-.724,.31Z"/>
  <g>
    <path d="M64.534,120.777c-.328,0-.649-.161-.84-.457l-1.617-2.498c-.3-.464-.167-1.083,.296-1.383,.464-.301,1.083-.167,1.383,.296l1.617,2.498c.3,.464,.167,1.083-.296,1.383-.168,.109-.356,.161-.542,.161Z"/>
    <path d="M60.724,114.888c-.328,0-.649-.161-.84-.457l-1.612-2.491c-.3-.464-.167-1.083,.296-1.383,.464-.301,1.083-.167,1.383,.296l1.612,2.491c.3,.464,.168,1.083-.296,1.383-.168,.109-.356,.161-.542,.161Z"/>
    <path d="M57.627,119.297c-.328,0-.649-.161-.84-.457-.3-.464-.167-1.083,.296-1.383l2.499-1.617c.464-.301,1.082-.167,1.383,.296,.3,.464,.168,1.083-.296,1.383l-2.499,1.617c-.168,.109-.356,.161-.542,.161Z"/>
    <path d="M63.516,115.486c-.328,0-.649-.161-.841-.457-.3-.463-.167-1.083,.297-1.383l2.491-1.611c.463-.299,1.083-.167,1.383,.297,.3,.463,.167,1.083-.297,1.383l-2.491,1.611c-.168,.108-.356,.16-.542,.16Z"/>
  </g>
  <g>
    <path d="M99.999,31c-.238,0-.477-.084-.668-.257-.411-.369-.444-1.002-.074-1.412l5.57-6.19c.368-.41,1.001-.444,1.412-.074,.411,.369,.444,1.002,.074,1.412l-5.57,6.19c-.197,.219-.47,.331-.744,.331Z"/>
    <path d="M108.81,21.21c-.238,0-.478-.084-.668-.257-.411-.369-.444-1.001-.074-1.412l9.19-10.21c.369-.41,1.001-.445,1.412-.074,.411,.369,.444,1.002,.074,1.412l-9.19,10.21c-.197,.219-.47,.331-.744,.331Z"/>
    <path d="M102.999,35c-.454,0-.864-.31-.973-.771-.126-.538,.207-1.076,.745-1.203l17-4c.535-.126,1.076,.207,1.203,.745,.126,.538-.207,1.076-.745,1.203l-17,4c-.077,.018-.154,.026-.23,.026Z"/>
    <path d="M97.002,27c-.044,0-.089-.003-.134-.009-.547-.073-.932-.576-.859-1.124l2-15c.073-.547,.581-.93,1.123-.859,.547,.073,.932,.576,.859,1.124l-2,15c-.067,.502-.497,.868-.99,.868Z"/>
  </g>
  <g>
    <path d="M28.001,31c-.274,0-.546-.112-.744-.331l-5.56-6.18c-.369-.411-.336-1.043,.075-1.413,.412-.37,1.043-.336,1.413,.075l5.56,6.18c.369,.411,.336,1.043-.075,1.413-.191,.172-.43,.256-.668,.256Z"/>
    <path d="M17.53,19.37c-.274,0-.546-.112-.744-.331l-7.53-8.37c-.369-.411-.336-1.043,.075-1.413,.412-.369,1.042-.335,1.413,.075l7.53,8.37c.369,.411,.336,1.043-.075,1.413-.191,.172-.43,.256-.668,.256Z"/>
    <path d="M25.002,35c-.076,0-.153-.008-.23-.026L7.771,30.974c-.538-.127-.871-.665-.745-1.203,.126-.538,.665-.872,1.203-.745l17,4c.538,.127,.871,.665,.745,1.203-.108,.461-.52,.771-.973,.771Z"/>
    <path d="M30.999,27c-.493,0-.923-.365-.99-.868l-2-15c-.073-.547,.312-1.051,.859-1.124,.542-.071,1.051,.312,1.123,.859l2,15c.073,.547-.311,1.051-.859,1.124-.045,.006-.089,.009-.134,.009Z"/>
  </g>
</svg>