<?xml version="1.0" encoding="UTF-8"?>
<svg id="_07" data-name="07" xmlns="http://www.w3.org/2000/svg" viewBox="0 0 128 128">
  <path d="M48.79,81.82c-.212,0-.426-.067-.607-.206-2.237-1.712-5.955-1.793-9.89-1.88-7.704-.169-17.292-.38-17.292-14.734,0-.464,.319-.867,.77-.973,.45-.105,.916,.111,1.124,.525,3.424,6.839,7.154,7.883,11.709,7.345,.542-.062,1.046,.327,1.11,.876,.065,.548-.327,1.046-.876,1.11-3.673,.434-7.81,.102-11.501-4.78,1.535,8.336,8.1,8.48,15,8.631,4.271,.094,8.305,.183,11.061,2.291,.439,.336,.522,.963,.187,1.402-.197,.257-.495,.393-.795,.393Z"/>
  <path d="M51.64,75.51c-.23,0-.462-.079-.651-.241-3.282-2.817-6.527-2.967-10.701-2.301-.547,.088-1.059-.284-1.145-.829-.087-.545,.284-1.058,.829-1.145,3.986-.64,8.236-.745,12.32,2.758,.419,.359,.467,.991,.107,1.41-.198,.231-.477,.349-.759,.349Z"/>
  <path d="M31.28,114c-.089,0-.178-.012-.265-.036-.293-.081-.534-.291-.654-.57-4.191-9.784-4.447-16.519-.759-20.019,.399-.38,1.033-.364,1.413,.037,.38,.4,.364,1.034-.037,1.414-2.874,2.729-2.639,8.286,.698,16.528,2.729-2.734,2.081-6.343,1.502-9.564-.407-2.264-.758-4.218,.194-5.575,.477-.68,1.223-1.11,2.218-1.28,.049-.015,.157-.032,.295-.048,1.67-.192,4.18,.247,7.897,1.388,.42,.129,.707,.517,.707,.956,0,.552-.448,1.005-1,1.005-.14,0-.274-.028-.395-.08-3.341-1.02-5.623-1.439-6.979-1.282-.044,.005-.077,.008-.113,.017-.753,.131-.933,.388-.992,.473-.474,.675-.177,2.326,.137,4.073,.67,3.728,1.587,8.833-3.279,12.373-.173,.126-.379,.191-.588,.191Z"/>
  <path d="M44.361,93.48c-.066,0-.134-.006-.202-.02-3.143-.645-5.856-.86-8.058-.634-.554,.061-1.041-.344-1.096-.894-.056-.55,.345-1.041,.894-1.096,2.407-.243,5.32-.019,8.662,.666,.541,.111,.89,.639,.779,1.18-.097,.474-.514,.799-.979,.799Z"/>
  <path d="M82,115c-.209,0-.415-.065-.588-.191-4.869-3.539-3.95-8.646-3.279-12.375,.339-1.886,.66-3.668-.001-4.225-1.126-.95-5.315-.114-12.451,2.48-.52,.19-1.092-.079-1.282-.598-.189-.519,.079-1.093,.598-1.282,9.828-3.573,12.874-3.436,14.423-2.13,1.546,1.302,1.145,3.529,.681,6.108-.58,3.222-1.23,6.833,1.501,9.566,3.165-7.814,3.542-13.223,1.118-16.087-2.368-2.798-7.739-3.275-15.534-1.375-.533,.128-1.077-.198-1.209-.735-.131-.537,.198-1.078,.735-1.208,8.701-2.121,14.601-1.438,17.534,2.026,3.082,3.641,2.635,10.175-1.328,19.419-.12,.279-.36,.489-.653,.57-.087,.024-.177,.036-.266,.036Z"/>
  <path d="M71.811,84.42c-.318,0-.631-.151-.825-.434-.313-.455-.198-1.078,.257-1.39,7.001-4.816,13.682-4.156,19.577-3.572,6.748,.666,11.827,1.168,15.089-6.893-6.26,4.601-11.686,3.122-16.546,1.795-5.108-1.394-9.52-2.598-14.656,2.69-.385,.395-1.018,.405-1.414,.02s-.405-1.018-.021-1.414c5.957-6.135,11.377-4.656,16.617-3.226,5.535,1.51,10.762,2.935,17.403-3.704,.32-.321,.816-.385,1.209-.158,.392,.228,.582,.69,.463,1.128-3.603,13.208-10.763,12.5-18.341,11.751-5.555-.549-11.849-1.17-18.247,3.23-.173,.119-.37,.176-.566,.176Z"/>
  <path d="M54,117c-5.846,0-10.815-4.171-11.815-9.918-.122-.691-.185-1.392-.185-2.082,0-1.243,.038-2.507,.112-3.759,.078-1.387,.206-2.766,.382-4.095,.002-.017,.003-.033,.005-.047,.153-1.149,.316-2.155,.501-3.074,.11-.605,.246-1.206,.39-1.786,.359-1.541,.797-3.049,1.336-4.597l.044-.123c.487-1.356,1.036-2.707,1.63-4.013l.077-.173c.479-1.049,.954-2.03,1.419-2.96,.078-.163,.168-.339,.255-.513l.236-.47c.52-1.04,1.011-2.021,1.438-2.993,.343-.781,.628-1.505,.869-2.211,.089-.238,.159-.458,.22-.686,.346-1.144,.594-2.276,.766-3.491,.216-1.459,.32-3.097,.32-5.01,0-.552,.448-1,1-1s1,.448,1,1c0,2.012-.111,3.745-.341,5.296-.186,1.312-.455,2.542-.822,3.754-.069,.261-.16,.542-.26,.811-.25,.733-.555,1.508-.921,2.341-.447,1.017-.949,2.02-1.48,3.083l-.241,.479c-.082,.161-.165,.325-.244,.489-.462,.924-.927,1.883-1.392,2.902l-.076,.172c-.575,1.263-1.102,2.563-1.573,3.871l-.041,.113c-.511,1.468-.929,2.91-1.276,4.396-.138,.555-.264,1.114-.37,1.693-.177,.882-.332,1.834-.478,2.925-.001,.017-.003,.032-.005,.047-.172,1.291-.297,2.631-.373,3.984-.072,1.215-.108,2.44-.108,3.644,0,.573,.052,1.157,.155,1.736,.833,4.79,4.974,8.264,9.845,8.264,4.693,0,8.69-3.179,9.747-7.741,.004-.047,.01-.093,.017-.127,.159-.709,.236-1.407,.236-2.132,0-.83,.02-1.608,.061-2.346,.064-1.177,.158-2.151,.289-3.049,.313-2.152,.83-4.023,1.676-6.068,.445-1.081,.959-2.134,1.448-3.122l.062-.124c.079-.164,.169-.344,.262-.527l.146-.291c.711-1.41,1.462-2.923,2.187-4.601,.254-.586,.508-1.181,.742-1.805,.501-1.296,.917-2.52,1.276-3.749,.34-1.221,.622-2.4,.859-3.595,.119-.566,.216-1.132,.314-1.727,.211-1.328,.376-2.728,.49-4.157,.126-1.611,.187-3.195,.187-4.841,0-.552,.448-1,1-1s1,.448,1,1c0,1.698-.063,3.333-.193,4.998-.118,1.482-.29,2.935-.509,4.32-.104,.63-.207,1.224-.329,1.808-.245,1.233-.539,2.461-.896,3.743-.378,1.295-.812,2.571-1.331,3.912-.243,.647-.509,1.272-.775,1.888-.746,1.726-1.513,3.269-2.234,4.702l-.149,.297c-.086,.171-.171,.339-.252,.507l-.068,.135c-.471,.951-.968,1.969-1.389,2.992-.781,1.887-1.257,3.611-1.545,5.593-.123,.839-.211,1.756-.271,2.803-.039,.771-.059,1.512-.059,2.303,0,.834-.089,1.67-.266,2.487-.004,.048-.01,.096-.018,.131-1.235,5.524-6.053,9.382-11.716,9.382Z"/>
  <path d="M63.53,77.012c-4.61,0-9.208-.801-12.124-2.372-.393-.212-.598-.658-.503-1.094l.79-3.61c.064-.293,.257-.542,.525-.678,.269-.136,.583-.144,.857-.022,5.459,2.42,16.204,2.314,21.291-.211,.329-.163,.72-.133,1.021,.078,.3,.211,.46,.57,.417,.935l-.5,4.24c-.042,.352-.266,.655-.59,.798-2.945,1.299-7.069,1.937-11.184,1.937Zm-10.506-3.802c5.076,2.295,14.811,2.429,20.361,.252l.231-1.962c-5.574,1.96-14.607,1.989-20.221,.012l-.372,1.699Z"/>
  <path d="M83.43,66H44.57c-.552,0-1-.448-1-1s.448-1,1-1h38.86c.552,0,1,.448,1,1s-.448,1-1,1Z"/>
  <path d="M41.661,61c-.374,0-.732-.21-.903-.57-.92-1.933-1.689-4.007-2.282-6.165-.979-3.51-1.476-7.217-1.476-11.015,0-1.303,.055-2.565,.165-3.752,.05-.549,.532-.956,1.087-.904,.55,.05,.954,.537,.904,1.087-.104,1.126-.156,2.326-.156,3.568,0,3.617,.472,7.143,1.403,10.481,.563,2.048,1.29,4.012,2.16,5.838,.237,.499,.026,1.095-.473,1.333-.139,.066-.285,.097-.43,.097Z"/>
  <path d="M86.339,61c-.145,0-.291-.031-.43-.097-.499-.238-.71-.834-.473-1.333,.87-1.827,1.597-3.79,2.159-5.835,.932-3.342,1.404-6.868,1.404-10.485,0-17.507-11.215-31.75-25-31.75-9.704,0-18.615,7.239-22.701,18.443-.189,.519-.763,.787-1.282,.597-.519-.19-.786-.763-.597-1.282,4.377-12.002,14.025-19.757,24.58-19.757,14.888,0,27,15.14,27,33.75,0,3.798-.497,7.505-1.477,11.019-.592,2.155-1.36,4.229-2.281,6.162-.171,.36-.53,.57-.903,.57Z"/>
  <path d="M59.548,92.999c-6.257,0-12.537-1.477-14.688-4.443-.195-.269-.244-.617-.13-.929l.04-.11,1.706-4.185c.13-.291,.391-.503,.702-.57,.314-.066,.637,.018,.875,.23,3.781,3.352,16.038,4.087,22.612,1.354,.382-.159,.824-.066,1.109,.235,.285,.3,.355,.746,.176,1.12l-2.688,5.606c-.124,.247-.344,.431-.609,.51-2.648,.787-5.874,1.181-9.107,1.181Zm-12.728-5.215c3.005,3.077,13.553,4.242,20.846,2.237l1.466-3.061c-6.505,1.73-16.518,1.305-21.303-1.66l-1.009,2.484Z"/>
  <path d="M54.54,110.009c-4.452,0-8.888-.746-11.815-2.204-.336-.168-.55-.509-.554-.884l-.06-5.61c-.004-.371,.199-.715,.526-.891,.328-.176,.726-.157,1.033,.051,4.091,2.756,14.725,3.374,21.07,1.222,.305-.102,.642-.053,.903,.135,.262,.188,.418,.49,.418,.812v.07l-.322,4.709c-.026,.387-.274,.773-.635,.913-2.898,1.126-6.736,1.677-10.563,1.677Zm-10.377-3.74c4.928,2.141,14.021,2.334,19.621,.415l.185-2.677c-5.863,1.525-14.672,1.378-19.84-1.002l.035,3.265Z"/>
  <path d="M64,58.38c-11.58,0-21-9.42-21-21,0-6.679,3.069-12.81,8.42-16.82,.442-.331,1.068-.241,1.4,.201,.331,.442,.241,1.069-.201,1.4-4.842,3.629-7.62,9.176-7.62,15.22,0,10.476,8.523,19,19,19s19-8.524,19-19-8.523-19-19-19c-1.394,0-2.742,.146-4.008,.435-.535,.125-1.074-.214-1.197-.753-.122-.538,.214-1.074,.753-1.197,1.411-.322,2.909-.485,4.452-.485,11.58,0,21,9.42,21,21s-9.42,21-21,21Z"/>
  <path d="M64,47.758c-5.723,0-10.379-4.656-10.379-10.379s4.656-10.379,10.379-10.379,10.379,4.656,10.379,10.379-4.656,10.379-10.379,10.379Zm0-18.758c-4.62,0-8.379,3.759-8.379,8.379s3.759,8.379,8.379,8.379,8.379-3.759,8.379-8.379-3.759-8.379-8.379-8.379Z"/>
  <path d="M64,43.38c-3.309,0-6-2.691-6-6,0-3.843,3.685-6.85,7.632-5.775,.533,.145,.848,.694,.703,1.227-.145,.533-.693,.848-1.227,.703-2.715-.737-5.107,1.283-5.108,3.845,0,2.206,1.794,4,4,4s4-1.794,4-4c0-.358-.052-.73-.155-1.107-.145-.533,.169-1.082,.702-1.228s1.082,.169,1.228,.702c.149,.548,.225,1.098,.225,1.633,0,3.309-2.691,6-6,6Z"/>
  <path d="M67.5,37.379c-1.93,0-3.5-1.57-3.5-3.5s1.57-3.5,3.5-3.5,3.5,1.57,3.5,3.5-1.57,3.5-3.5,3.5Zm0-5c-.827,0-1.5,.673-1.5,1.5s.673,1.5,1.5,1.5,1.5-.673,1.5-1.5-.673-1.5-1.5-1.5Z"/>
  <path d="M64,47.758c-11.776,0-21-4.559-21-10.379s9.224-10.379,21-10.379,21,4.559,21,10.379-9.224,10.379-21,10.379Zm0-18.758c-10.299,0-19,3.837-19,8.379s8.701,8.379,19,8.379,19-3.837,19-8.379-8.701-8.379-19-8.379Z"/>
  <path d="M110.191,92.349c-.053,0-.106-.004-.16-.013-.545-.087-.916-.6-.829-1.146,.213-1.333-.171-2.671-1.057-3.669-.367-.414-.329-1.045,.084-1.412,.413-.367,1.045-.329,1.412,.084,.463,.522,.831,1.108,1.1,1.733,.643-.728,1.441-1.305,2.334-1.687-.434-.381-.817-.822-1.138-1.312-.302-.462-.172-1.082,.29-1.384,.463-.302,1.082-.172,1.384,.29,.697,1.066,1.774,1.765,3.034,1.967,.001,0,.002,0,.004,0h0c.545,.087,.916,.6,.829,1.146-.087,.545-.592,.921-1.146,.829-2.458-.397-4.76,1.28-5.154,3.727,0,.002,0,.003,0,.004h0c-.079,.492-.503,.842-.986,.842Z"/>
  <path d="M15.023,89.932c-1.112,0-2.223-.37-3.129-1.095-1.042-.834-1.699-2.021-1.851-3.342-.152-1.324,.222-2.625,1.053-3.663,1.637-2.044,4.606-2.458,6.759-.942,.452,.318,.56,.942,.242,1.394-.318,.451-.941,.56-1.394,.242-1.292-.909-3.069-.665-4.046,.557-.495,.619-.718,1.395-.627,2.186,.091,.793,.486,1.506,1.114,2.008,.975,.781,2.341,.876,3.398,.238,.473-.286,1.087-.133,1.373,.34,.285,.473,.133,1.088-.34,1.373-.784,.473-1.668,.706-2.551,.706Z"/>
  <g>
    <path d="M100.534,113.777c-.328,0-.649-.161-.84-.457l-1.617-2.498c-.3-.464-.167-1.083,.296-1.383,.464-.301,1.083-.167,1.383,.296l1.617,2.498c.3,.464,.167,1.083-.296,1.383-.168,.109-.356,.161-.542,.161Z"/>
    <path d="M96.724,107.888c-.328,0-.649-.161-.84-.457l-1.612-2.491c-.3-.464-.168-1.083,.296-1.383,.464-.301,1.083-.166,1.383,.296l1.612,2.491c.3,.464,.167,1.083-.296,1.383-.168,.109-.356,.161-.543,.161Z"/>
    <path d="M93.627,112.297c-.328,0-.649-.161-.84-.457-.3-.464-.167-1.083,.296-1.383l2.499-1.617c.465-.3,1.083-.167,1.383,.296,.3,.464,.167,1.083-.296,1.383l-2.499,1.617c-.168,.109-.356,.161-.542,.161Z"/>
    <path d="M99.516,108.486c-.328,0-.649-.161-.841-.457-.3-.463-.167-1.083,.297-1.383l2.491-1.611c.462-.299,1.083-.167,1.383,.297,.3,.463,.167,1.083-.297,1.383l-2.491,1.611c-.167,.108-.356,.16-.542,.16Z"/>
  </g>
  <path d="M86,66H42c-2.897,0-5-1.185-5-2.818v-3.182c0-.552,.448-1,1-1h52c.552,0,1,.448,1,1v3.182c0,1.633-2.103,2.818-5,2.818Zm-47-5v2.182c.098,.202,1.145,.818,3,.818h44c1.855,0,2.902-.617,3.007-.862l-.005-2.138H39Z"/>
  <g>
    <path d="M111,39h-16c-.552,0-1-.448-1-1s.448-1,1-1h16c.552,0,1,.448,1,1s-.448,1-1,1Z"/>
    <path d="M104.98,25.54c-.265,0-.529-.105-.726-.312-.38-.401-.362-1.034,.039-1.413l9.02-8.54c.401-.379,1.033-.362,1.414,.039,.38,.401,.362,1.034-.039,1.414l-9.02,8.54c-.193,.183-.44,.274-.687,.274Z"/>
    <path d="M95,35c-.265,0-.529-.105-.726-.312-.38-.401-.363-1.034,.039-1.414l5.31-5.03c.401-.379,1.034-.362,1.413,.039,.38,.401,.363,1.034-.038,1.414l-5.31,5.03c-.193,.183-.44,.274-.688,.274Z"/>
    <path d="M114,61c-.247,0-.494-.091-.688-.274l-7.58-7.18c-.401-.38-.418-1.013-.039-1.414,.38-.402,1.013-.418,1.414-.039l7.58,7.18c.401,.38,.419,1.013,.039,1.414-.197,.208-.461,.312-.726,.312Z"/>
    <path d="M100.99,48.68c-.247,0-.495-.091-.688-.274l-5.99-5.68c-.401-.38-.417-1.013-.038-1.414,.381-.401,1.013-.417,1.414-.038l5.99,5.68c.401,.38,.417,1.013,.038,1.414-.197,.208-.461,.312-.726,.312Z"/>
  </g>
  <g>
    <path d="M32,39H16c-.552,0-1-.448-1-1s.448-1,1-1h16c.552,0,1,.448,1,1s-.448,1-1,1Z"/>
    <path d="M21.73,25.27c-.247,0-.494-.091-.688-.274l-8.73-8.27c-.401-.38-.418-1.013-.039-1.414,.38-.402,1.013-.417,1.414-.039l8.73,8.27c.401,.38,.418,1.013,.039,1.414-.197,.208-.462,.312-.726,.312Z"/>
    <path d="M32,35c-.247,0-.494-.091-.688-.274l-5.47-5.18c-.401-.38-.419-1.013-.039-1.414,.38-.401,1.013-.418,1.414-.039l5.47,5.18c.401,.38,.418,1.013,.039,1.414-.197,.208-.461,.312-.726,.312Z"/>
    <path d="M13,61c-.265,0-.529-.105-.726-.312-.38-.401-.363-1.034,.039-1.414l7-6.63c.401-.379,1.034-.363,1.414,.039,.38,.401,.363,1.034-.039,1.414l-7,6.63c-.193,.183-.44,.274-.688,.274Z"/>
    <path d="M26.47,48.24c-.265,0-.529-.105-.726-.312-.38-.401-.363-1.034,.038-1.414l5.53-5.24c.401-.379,1.035-.363,1.414,.038,.38,.401,.363,1.034-.038,1.414l-5.53,5.24c-.193,.183-.441,.274-.688,.274Z"/>
  </g>
</svg>