<?xml version="1.0" encoding="UTF-8"?>
<svg id="_04" data-name="04" xmlns="http://www.w3.org/2000/svg" viewBox="0 0 128 128">
  <path d="M108,109H20c-.553,0-1-.448-1-1s.447-1,1-1H108c.553,0,1,.448,1,1s-.447,1-1,1Z"/>
  <path d="M37.96,90h-4.1c-.553,0-1-.448-1-1s.447-1,1-1h4.1c.553,0,1,.448,1,1s-.447,1-1,1Z"/>
  <path d="M85.42,90h-19.42c-.553,0-1-.448-1-1s.447-1,1-1h19.42c.553,0,1,.448,1,1s-.447,1-1,1Z"/>
  <path d="M108,90h-17.96c-.553,0-1-.448-1-1s.447-1,1-1h17.96c.553,0,1,.448,1,1s-.447,1-1,1Z"/>
  <path d="M62,90h-19.42c-.553,0-1-.448-1-1s.447-1,1-1h19.42c.553,0,1,.448,1,1s-.447,1-1,1Z"/>
  <path d="M28.71,90h-8.71c-.553,0-1-.448-1-1s.447-1,1-1h8.71c.553,0,1,.448,1,1s-.447,1-1,1Z"/>
  <path d="M65.729,94c-.172,0-.346-.044-.505-.137-.477-.279-.636-.892-.357-1.368,.086-.146,.133-.321,.133-.495v-8.65c0-.552,.447-1,1-1s1,.448,1,1v8.65c0,.531-.141,1.051-.406,1.505-.187,.318-.521,.495-.864,.495Z"/>
  <path d="M62.27,94c-.344,0-.678-.177-.864-.495-.266-.454-.406-.975-.406-1.505v-8.65c0-.552,.447-1,1-1s1,.448,1,1v8.65c0,.173,.047,.349,.133,.495,.278,.477,.119,1.089-.357,1.368-.159,.093-.333,.137-.505,.137Z"/>
  <path d="M34.581,96c-.08,0-.162-.009-.243-.03-.536-.134-.862-.677-.727-1.213,.067-.27,.168-.519,.301-.74l3.183-5.516,7.11-12.311c.276-.479,.888-.644,1.366-.366,.478,.276,.643,.888,.366,1.366l-10.305,17.846c-.036,.061-.061,.126-.082,.207-.113,.454-.52,.757-.969,.757Z"/>
  <path d="M39.109,96c-.17,0-.343-.043-.501-.135-.477-.277-.641-.889-.363-1.367l9.158-15.858c.276-.479,.888-.642,1.366-.366,.479,.276,.643,.888,.366,1.366l-9.16,15.862c-.186,.32-.521,.498-.866,.498Z"/>
  <path d="M93.419,96c-.448,0-.855-.303-.969-.757-.02-.081-.046-.146-.078-.2l-10.309-17.853c-.276-.478-.112-1.09,.366-1.366,.477-.278,1.09-.113,1.366,.366l10.301,17.84c.125,.208,.226,.458,.293,.727,.135,.536-.191,1.079-.727,1.213-.081,.021-.163,.03-.243,.03Z"/>
  <path d="M88.891,96c-.346,0-.682-.179-.866-.5l-9.15-15.851c-.276-.479-.111-1.09,.366-1.366,.482-.276,1.09-.112,1.366,.367l9.148,15.849c.277,.478,.113,1.09-.364,1.366-.158,.091-.33,.134-.5,.134Z"/>
  <path d="M39.5,101h-6c-1.93,0-3.5-1.57-3.5-3.5s1.57-3.5,3.5-3.5h6c1.93,0,3.5,1.57,3.5,3.5s-1.57,3.5-3.5,3.5Zm-6-5c-.827,0-1.5,.673-1.5,1.5s.673,1.5,1.5,1.5h6c.827,0,1.5-.673,1.5-1.5s-.673-1.5-1.5-1.5h-6Z"/>
  <path d="M94.5,101h-6c-1.93,0-3.5-1.57-3.5-3.5s1.57-3.5,3.5-3.5h6c1.93,0,3.5,1.57,3.5,3.5s-1.57,3.5-3.5,3.5Zm-6-5c-.827,0-1.5,.673-1.5,1.5s.673,1.5,1.5,1.5h6c.827,0,1.5-.673,1.5-1.5s-.673-1.5-1.5-1.5h-6Z"/>
  <path d="M67.5,99h-7c-1.93,0-3.5-1.57-3.5-3.5s1.57-3.5,3.5-3.5h7c1.93,0,3.5,1.57,3.5,3.5s-1.57,3.5-3.5,3.5Zm-7-5c-.827,0-1.5,.673-1.5,1.5s.673,1.5,1.5,1.5h7c.827,0,1.5-.673,1.5-1.5s-.673-1.5-1.5-1.5h-7Z"/>
  <g>
    <path d="M53.83,82.78c-.106,0-.215-.018-.321-.054-3.717-1.263-6.989-3.206-9.467-5.62-.396-.386-.403-1.019-.018-1.415,.385-.395,1.019-.402,1.414-.018,2.265,2.208,5.277,3.992,8.713,5.159,.523,.178,.803,.746,.626,1.269-.142,.416-.53,.679-.947,.679Z"/>
    <path d="M64,84.42c-1.82,0-3.624-.142-5.359-.423-.546-.088-.916-.602-.828-1.147,.088-.545,.602-.916,1.147-.828,1.631,.264,3.327,.397,5.041,.397,7.3,0,14.238-2.522,18.56-6.745,.398-.385,1.03-.378,1.414,.017,.387,.395,.379,1.028-.016,1.414-4.758,4.648-12.032,7.314-19.959,7.314Z"/>
    <path d="M64,78.405c-10.723,0-21.445-.942-32.094-2.827-2.458-.436-4.725-1.644-6.382-3.404l-4.774-5.069c-.763-.809-.963-1.946-.522-2.967,.44-1.021,1.405-1.655,2.517-1.655H105.255c1.111,0,2.076,.634,2.517,1.655,.441,1.021,.241,2.158-.521,2.967l-4.774,5.069c-1.657,1.76-3.924,2.968-6.382,3.404h0c-10.648,1.885-21.371,2.827-32.094,2.827Zm-41.255-13.921c-.439,0-.622,.313-.681,.448-.059,.135-.161,.483,.141,.803l4.774,5.069c1.365,1.448,3.238,2.445,5.276,2.805,21.062,3.729,42.424,3.73,63.488,0,2.038-.36,3.911-1.357,5.276-2.805l4.774-5.069c.302-.32,.199-.668,.141-.803-.058-.135-.241-.448-.681-.448H22.745Zm73.174,10.109h0Z"/>
    <path d="M100,64.48H28c-.422,0-.798-.265-.94-.661-.144-.396-.022-.84,.303-1.109l4.36-3.61c.425-.352,1.055-.292,1.408,.133,.351,.425,.293,1.056-.133,1.408l-2.222,1.839H97.221l-3.397-2.81c-1.225-1.015-3.713-1.67-6.343-1.67H40.519c-1.145,0-2.226,.113-3.209,.335-.537,.12-1.073-.216-1.196-.755-.121-.539,.217-1.074,.755-1.196,1.129-.255,2.356-.384,3.65-.384h46.961c3.162,0,6.01,.796,7.618,2.13l5.538,4.579c.325,.269,.447,.712,.305,1.109-.143,.397-.519,.662-.941,.662Z"/>
    <g>
      <path d="M34,73c-2.206,0-4-1.794-4-4s1.794-4,4-4,4,1.794,4,4-1.794,4-4,4Zm0-6c-1.103,0-2,.897-2,2s.897,2,2,2,2-.897,2-2-.898-2-2-2Z"/>
      <path d="M49.25,73c-2.206,0-4-1.794-4-4s1.794-4,4-4,4,1.794,4,4-1.794,4-4,4Zm0-6c-1.103,0-2,.897-2,2s.897,2,2,2,2-.897,2-2-.898-2-2-2Z"/>
      <path d="M64.5,73c-2.206,0-4-1.794-4-4s1.794-4,4-4,4,1.794,4,4-1.794,4-4,4Zm0-6c-1.103,0-2,.897-2,2s.897,2,2,2,2-.897,2-2-.898-2-2-2Z"/>
      <path d="M79.75,73c-2.206,0-4-1.794-4-4s1.794-4,4-4,4,1.794,4,4-1.794,4-4,4Zm0-6c-1.103,0-2,.897-2,2s.897,2,2,2,2-.897,2-2-.898-2-2-2Z"/>
      <path d="M95,73c-2.206,0-4-1.794-4-4s1.794-4,4-4,4,1.794,4,4-1.794,4-4,4Zm0-6c-1.103,0-2,.897-2,2s.897,2,2,2,2-.897,2-2-.898-2-2-2Z"/>
    </g>
    <g>
      <path d="M75,58h-22c-.553,0-1-.448-1-1v-2.41c0-2.531,2.059-4.59,4.59-4.59h.94c.553,0,1,.448,1,1s-.447,1-1,1h-.94c-1.428,0-2.59,1.162-2.59,2.59v1.41h20v-1.41c0-1.428-1.162-2.59-2.59-2.59h-.94c-.553,0-1-.448-1-1s.447-1,1-1h.94c2.531,0,4.59,2.059,4.59,4.59v2.41c0,.552-.447,1-1,1Z"/>
      <path d="M64,54.814c-4.469,0-8.387-3.017-9.527-7.337l-2.141-8.106c-.787-2.979-.161-6.087,1.719-8.529,1.881-2.441,4.726-3.842,7.808-3.842h4.283c3.082,0,5.927,1.4,7.808,3.842,1.88,2.441,2.506,5.55,1.719,8.529l-2.141,8.106c-1.141,4.32-5.058,7.337-9.527,7.337Zm-2.142-25.814c-2.456,0-4.725,1.116-6.223,3.062-1.498,1.946-1.998,4.423-1.37,6.798l2.141,8.106c.909,3.443,4.032,5.848,7.594,5.848s6.685-2.405,7.594-5.848l2.141-8.106c.628-2.375,.128-4.852-1.37-6.798-1.498-1.946-3.767-3.062-6.223-3.062h-4.283Z"/>
      <g>
        <path d="M69.25,40.277c-1.612,0-3.305-.535-4.317-1.354-.365-.295-.571-.735-.565-1.208,.006-.475,.225-.912,.6-1.2,1.938-1.49,4.657-3.135,6.595-2.538,.58,.18,1.351,.64,1.731,1.811,.41,1.664-.067,3.022-1.29,3.797-.761,.482-1.74,.693-2.752,.693Zm-2.532-2.573c1.218,.623,3.198,.836,4.213,.191,.331-.21,.68-.577,.438-1.562-.119-.36-.309-.419-.4-.447-.739-.23-2.406,.49-4.251,1.817Zm-.527-.336h.002s-.002,0-.002,0Z"/>
        <path d="M58.75,40.277c-1.012,0-1.991-.211-2.752-.693-1.223-.775-1.7-2.133-1.311-3.726,.4-1.242,1.171-1.702,1.751-1.882,1.943-.599,4.658,1.049,6.595,2.539,.375,.288,.594,.725,.6,1.2,.006,.473-.2,.913-.565,1.208h0c-1.013,.82-2.706,1.354-4.317,1.354Zm-1.402-4.433c-.119,0-.225,.014-.316,.042-.092,.028-.281,.087-.421,.518-.221,.914,.128,1.281,.459,1.491,1.014,.643,2.996,.431,4.213-.191-1.616-1.162-3.095-1.859-3.934-1.859Zm4.462,1.524s0,0-.002,.001h.002Z"/>
      </g>
      <path d="M65,44h-2c-.553,0-1-.448-1-1s.447-1,1-1h2c.553,0,1,.448,1,1s-.447,1-1,1Z"/>
      <path d="M64,50c-1.327,0-2.606-.808-3.8-2.4-.332-.442-.242-1.069,.2-1.4,.44-.333,1.068-.241,1.399,.2,.548,.73,1.374,1.6,2.2,1.6s1.652-.87,2.2-1.6c.331-.442,.958-.532,1.399-.2,.442,.331,.532,.958,.2,1.4-1.194,1.592-2.473,2.4-3.8,2.4Z"/>
    </g>
    <path d="M88,58H40c-.294,0-.573-.129-.763-.354-.19-.225-.272-.521-.224-.811l3.041-18.245c1.795-10.772,11.024-18.59,21.945-18.59s20.15,7.818,21.945,18.59l3.041,18.245c.049,.29-.033,.587-.224,.811-.189,.224-.469,.354-.763,.354Zm-46.819-2h45.639l-2.847-17.081c-1.634-9.804-10.033-16.919-19.973-16.919s-18.339,7.116-19.973,16.919l-2.847,17.081Z"/>
  </g>
  <path d="M55,104h-20c-.553,0-1-.448-1-1s.447-1,1-1h20c.553,0,1,.448,1,1s-.447,1-1,1Z"/>
  <path d="M28,94h-8c-.553,0-1-.448-1-1s.447-1,1-1h8c.553,0,1,.448,1,1s-.447,1-1,1Z"/>
  <path d="M81,102h-12c-.553,0-1-.448-1-1s.447-1,1-1h12c.553,0,1,.448,1,1s-.447,1-1,1Z"/>
  <path d="M50,95h-5c-.553,0-1-.448-1-1s.447-1,1-1h5c.553,0,1,.448,1,1s-.447,1-1,1Z"/>
  <path d="M27,101h-5c-.553,0-1-.448-1-1s.447-1,1-1h5c.553,0,1,.448,1,1s-.447,1-1,1Z"/>
  <path d="M103,105h-5c-.553,0-1-.448-1-1s.447-1,1-1h5c.553,0,1,.448,1,1s-.447,1-1,1Z"/>
  <path d="M81,95h-5c-.553,0-1-.448-1-1s.447-1,1-1h5c.553,0,1,.448,1,1s-.447,1-1,1Z"/>
  <path d="M106,98h-5c-.553,0-1-.448-1-1s.447-1,1-1h5c.553,0,1,.448,1,1s-.447,1-1,1Z"/>
  <path d="M26.52,19.985c-.197,0-.397-.059-.571-.18-1.046-.73-2.309-.978-3.552-.693h0c-.539,.122-1.075-.215-1.197-.753-.122-.539,.216-1.074,.754-1.197,.002,0,.004,0,.006-.001,1.171-.267,2.167-.974,2.807-1.988,.639-1.015,.845-2.219,.579-3.391,0-.001,0-.003,0-.004-.122-.539,.216-1.074,.754-1.197,.534-.125,1.074,.215,1.197,.753,0,.002,0,.004,0,.005,.3,1.315,1.156,2.41,2.349,3.006,.494,.247,.694,.848,.447,1.341-.247,.494-.848,.694-1.342,.448-.622-.311-1.181-.715-1.662-1.194-.159,.45-.37,.885-.63,1.298-.262,.416-.565,.796-.905,1.136,.543,.192,1.061,.457,1.54,.792,.453,.316,.563,.939,.248,1.393-.195,.278-.506,.427-.821,.427Z"/>
  <path d="M104.48,22.857c-.473,0-.894-.336-.982-.818-.101-.543,.259-1.065,.802-1.166,1.553-.287,2.62-1.728,2.432-3.281-.198-1.627-1.699-2.791-3.338-2.586-1.239,.151-2.263,1.06-2.546,2.262-.128,.537-.667,.872-1.203,.743-.538-.127-.871-.666-.744-1.203,.476-2.013,2.185-3.535,4.251-3.787,2.746-.329,5.233,1.609,5.564,4.329,.317,2.6-1.463,5.011-4.053,5.49-.061,.011-.122,.017-.183,.017Z"/>
  <g>
    <path d="M70.534,17.777c-.328,0-.649-.161-.841-.456l-1.617-2.499c-.3-.464-.167-1.083,.297-1.383,.464-.301,1.083-.168,1.383,.296l1.617,2.499c.3,.464,.167,1.083-.297,1.383-.168,.109-.355,.161-.542,.161Z"/>
    <path d="M66.724,11.888c-.328,0-.649-.161-.841-.457l-1.611-2.491c-.3-.463-.167-1.083,.297-1.383,.464-.298,1.083-.168,1.383,.297l1.611,2.491c.3,.463,.167,1.083-.297,1.383-.168,.108-.355,.16-.542,.16Z"/>
    <path d="M63.626,16.297c-.328,0-.649-.161-.841-.457-.3-.463-.167-1.082,.297-1.383l2.499-1.617c.463-.299,1.082-.167,1.383,.297,.3,.463,.167,1.082-.297,1.383l-2.499,1.617c-.168,.108-.356,.16-.542,.16Z"/>
    <path d="M69.516,12.486c-.328,0-.649-.161-.841-.457-.3-.463-.167-1.083,.297-1.383l2.491-1.611c.465-.301,1.083-.167,1.383,.297,.3,.463,.167,1.083-.297,1.383l-2.491,1.611c-.168,.108-.356,.16-.542,.16Z"/>
  </g>
  <g>
    <path d="M108.499,43.17c-.223,0-.446-.074-.632-.226-.428-.35-.491-.979-.142-1.407l7.5-9.17c.351-.427,.98-.491,1.407-.141,.428,.35,.491,.98,.142,1.407l-7.5,9.17c-.198,.242-.485,.367-.775,.367Z"/>
    <path d="M97.999,56c-.223,0-.446-.074-.633-.226-.427-.35-.49-.98-.14-1.407l5.59-6.83c.349-.428,.978-.491,1.407-.141,.427,.35,.49,.98,.14,1.407l-5.59,6.83c-.197,.242-.484,.367-.774,.367Z"/>
    <path d="M101.999,58c-.472,0-.892-.335-.981-.816-.103-.543,.255-1.065,.798-1.167l16-3c.551-.1,1.065,.256,1.167,.799,.103,.543-.255,1.065-.798,1.167l-16,3c-.062,.012-.125,.017-.186,.017Z"/>
    <path d="M94.999,53c-.523,0-.964-.408-.997-.938l-1-16c-.034-.551,.385-1.026,.935-1.06,.535-.047,1.026,.384,1.061,.935l1,16c.034,.551-.385,1.026-.936,1.06-.021,.002-.042,.002-.063,.002Z"/>
  </g>
  <g>
    <path d="M19.761,43.49c-.29,0-.577-.125-.775-.367l-7.76-9.49c-.35-.427-.286-1.058,.142-1.407,.427-.351,1.057-.288,1.407,.141l7.76,9.49c.35,.427,.286,1.058-.142,1.407-.186,.152-.409,.226-.632,.226Z"/>
    <path d="M30.001,56c-.29,0-.577-.125-.775-.367l-6.3-7.7c-.35-.428-.286-1.058,.142-1.407,.427-.351,1.057-.287,1.407,.141l6.3,7.7c.35,.428,.286,1.058-.142,1.407-.185,.152-.409,.226-.632,.226Z"/>
    <path d="M26.001,58c-.061,0-.123-.005-.186-.017l-16-3c-.543-.102-.9-.624-.798-1.167,.101-.542,.621-.898,1.167-.799l16,3c.543,.102,.9,.624,.798,1.167-.09,.481-.51,.816-.981,.816Z"/>
    <path d="M33.001,53c-.022,0-.042,0-.064-.002-.551-.035-.97-.509-.935-1.06l1-16c.034-.552,.516-.981,1.06-.935,.551,.035,.97,.509,.936,1.06l-1,16c-.033,.53-.474,.938-.997,.938Z"/>
  </g>
</svg>