<?xml version="1.0" encoding="UTF-8"?>
<svg id="_18" data-name="18" xmlns="http://www.w3.org/2000/svg" viewBox="0 0 128 128">
  <path d="M39.06,88.42c-14.344,0-19.203-5.196-20.752-9.555-.129-.353-.238-.714-.321-1.065-.127-.538,.206-1.076,.744-1.203,.535-.123,1.076,.207,1.203,.744,.071,.3,.159,.581,.256,.846,1.337,3.761,5.694,8.233,18.871,8.233,9.015,0,20.104-2.178,31.225-6.132,11.275-4.014,21.34-9.404,28.338-15.18,9.985-8.223,10.506-14.378,9.185-18.094-.852-2.412-2.659-4.334-5.371-5.713-.492-.251-.688-.853-.438-1.345,.25-.493,.854-.687,1.345-.438,3.184,1.62,5.321,3.917,6.35,6.828,1.535,4.316,1.083,11.346-9.797,20.305-7.172,5.919-17.45,11.432-28.94,15.521-11.331,4.028-22.658,6.247-31.895,6.247Zm.139-4.027c-8.819,0-15.143-2.171-16.97-6.493-.215-.509,.023-1.096,.532-1.31,.509-.214,1.095,.023,1.31,.531,3.058,7.237,23.609,6.959,44.874-.603,10.841-3.854,20.478-9,27.134-14.487,6.301-5.195,9.202-10.176,7.959-13.664-.409-1.153-1.253-2.147-2.509-2.955-.465-.299-.599-.917-.3-1.382,.3-.464,.919-.598,1.382-.3,1.637,1.053,2.751,2.387,3.312,3.966,1.563,4.393-1.48,10.031-8.571,15.878-6.831,5.632-16.682,10.899-27.736,14.829-11.247,3.999-21.975,5.99-30.416,5.99Zm-14.58-13.843c-.184,0-.37-.051-.537-.156-.465-.297-.602-.915-.306-1.381,4.044-6.347,13.902-13.423,26.369-18.928,.504-.223,1.095,.006,1.318,.511,.223,.506-.005,1.096-.511,1.319-12.121,5.352-21.649,12.145-25.49,18.172-.19,.3-.514,.463-.844,.463Zm-3.78-1.54c-.174,0-.351-.045-.511-.142-.474-.282-.629-.897-.347-1.37,1.739-2.917,4.472-5.924,8.122-8.939,.339-.278,.677-.554,1.035-.83,.436-.337,1.064-.258,1.403,.18,.337,.436,.257,1.065-.18,1.402-.342,.265-.664,.528-.987,.793-3.471,2.866-6.054,5.699-7.676,8.418-.187,.314-.519,.488-.86,.488Zm13.252-12.64c-.323,0-.639-.155-.832-.444-.307-.459-.184-1.08,.275-1.387,3.059-2.046,6.464-4.006,10.121-5.824,.494-.247,1.095-.045,1.341,.45,.246,.495,.044,1.095-.45,1.341-3.581,1.78-6.912,3.696-9.899,5.695-.171,.114-.364,.169-.555,.169Zm46.698-13.04c-.498,0-.929-.371-.991-.878-.068-.548,.321-1.047,.87-1.114,4.207-.521,8.05-.668,11.418-.446,.551,.037,.968,.514,.932,1.065-.036,.551-.523,.949-1.064,.932-3.243-.217-6.957-.069-11.041,.435-.041,.006-.082,.008-.123,.008Zm-1.11-3.89c-.494,0-.924-.365-.99-.868-.072-.548,.313-1.051,.859-1.123,3.301-.438,6.461-.659,9.392-.659,1.589,0,3.08,.062,4.43,.184,.55,.05,.956,.536,.906,1.086-.05,.551-.541,.958-1.086,.906-1.291-.116-2.721-.176-4.25-.176-2.845,0-5.916,.216-9.129,.642-.045,.006-.089,.009-.133,.009Z"/>
  <path d="M48.97,38.05c-.429,0-.825-.277-.956-.709l-3.43-11.28c-.161-.528,.137-1.087,.666-1.248,.528-.161,1.087,.137,1.248,.666l3.43,11.28c.161,.528-.137,1.087-.666,1.248-.097,.029-.195,.043-.291,.043Z"/>
  <path d="M79.03,38.05c-.096,0-.194-.014-.291-.043-.528-.161-.826-.72-.666-1.248l3.43-11.28c.161-.528,.718-.826,1.248-.666,.528,.161,.826,.72,.666,1.248l-3.43,11.28c-.132,.432-.528,.709-.957,.709Z"/>
  <path d="M108,109h-10c-.553,0-1-.447-1-1s.447-1,1-1h10c.553,0,1,.447,1,1s-.447,1-1,1Z"/>
  <path d="M30.67,109h-10.67c-.552,0-1-.447-1-1s.448-1,1-1h10.67c.552,0,1,.447,1,1s-.448,1-1,1Z"/>
  <path d="M93.5,109H34.22c-.552,0-1-.447-1-1s.448-1,1-1h59.28c.553,0,1,.447,1,1s-.447,1-1,1Z"/>
  <path d="M43.261,98.71c-.041,0-.082-.002-.123-.008-.548-.066-.938-.565-.871-1.114l.63-5.14c.068-.549,.581-.941,1.114-.87,.548,.066,.938,.565,.871,1.114l-.63,5.14c-.062,.507-.494,.878-.991,.878Z"/>
  <path d="M44.372,89.64c-.041,0-.082-.002-.124-.008-.548-.067-.938-.566-.871-1.114l.18-1.46c.068-.549,.569-.943,1.115-.87,.548,.067,.938,.566,.871,1.114l-.18,1.46c-.062,.507-.494,.878-.991,.878Z"/>
  <path d="M45.051,84.11c-.041,0-.082-.002-.124-.008-.548-.067-.937-.566-.87-1.114l.68-5.511c.068-.549,.575-.942,1.115-.87,.548,.067,.938,.566,.87,1.114l-.68,5.511c-.062,.507-.494,.878-.991,.878Z"/>
  <path d="M46.222,74.67c-.04,0-.081-.002-.122-.007-.548-.067-.938-.565-.872-1.113l.39-3.21c.066-.549,.564-.94,1.113-.873,.548,.067,.938,.565,.872,1.113l-.39,3.21c-.061,.508-.493,.88-.991,.88Z"/>
  <path d="M86,109H42c-.287,0-.559-.123-.749-.337-.19-.215-.278-.5-.244-.784l.67-5.47c.067-.55,.57-.942,1.114-.871,.548,.066,.938,.565,.871,1.113l-.533,4.349h41.739l-1.751-14.258c-.067-.548,.322-1.047,.87-1.114,.564-.081,1.048,.322,1.114,.87l1.89,15.38c.035,.284-.054,.57-.243,.784-.189,.215-.463,.338-.749,.338Z"/>
  <path d="M83.629,89.67c-.498,0-.929-.371-.991-.878l-1.36-11.03c-.068-.548,.321-1.047,.87-1.114,.537-.078,1.047,.321,1.114,.87l1.36,11.03c.068,.548-.321,1.047-.87,1.114-.041,.006-.082,.008-.123,.008Z"/>
  <path d="M81.609,73.27c-.498,0-.93-.371-.991-.878l-1.181-9.6c-.067-.548,.322-1.047,.87-1.114,.551-.08,1.048,.322,1.114,.87l1.181,9.6c.067,.548-.322,1.047-.87,1.114-.041,.006-.083,.008-.123,.008Z"/>
  <path d="M47.162,66.95c-.041,0-.082-.002-.124-.008-.548-.067-.937-.566-.87-1.114l.41-3.32c.068-.548,.575-.943,1.115-.87,.548,.067,.937,.566,.87,1.114l-.41,3.32c-.062,.507-.494,.878-.991,.878Z"/>
  <path d="M79.949,59.74c-.498,0-.93-.371-.991-.878l-.843-6.862h-28.231l-.842,6.822c-.067,.549-.569,.946-1.115,.87-.548-.067-.937-.566-.87-1.114l.95-7.7c.062-.502,.488-.878,.993-.878h30c.505,0,.931,.377,.992,.878l.95,7.74c.067,.549-.322,1.047-.87,1.114-.042,.006-.083,.008-.123,.008Z"/>
  <g>
    <path d="M51.369,45c-.155,0-.312-.036-.46-.112-.49-.255-.681-.858-.426-1.349l5.84-11.24c.254-.49,.856-.681,1.348-.427,.49,.255,.681,.858,.426,1.349l-5.84,11.24c-.178,.343-.527,.539-.888,.539Z"/>
    <path d="M55.879,45c-.155,0-.312-.036-.459-.112-.49-.255-.682-.858-.427-1.349l6.71-12.93c.254-.489,.858-.681,1.348-.427,.49,.255,.682,.858,.427,1.349l-6.71,12.93c-.178,.343-.527,.539-.889,.539Z"/>
  </g>
  <path d="M80.881,48c-.04,0-.082-.002-.123-.008-.548-.067-.937-.566-.87-1.114,.074-.607,.112-1.239,.112-1.878,0-8.822-7.178-16-16-16s-16,7.178-16,16c0,.639,.038,1.27,.113,1.878,.067,.548-.322,1.047-.871,1.114-.545,.082-1.047-.321-1.115-.87-.084-.688-.127-1.401-.127-2.122,0-9.925,8.075-18,18-18s18,8.075,18,18c0,.721-.043,1.435-.128,2.122-.062,.507-.493,.878-.991,.878Z"/>
  <path d="M79.91,52h-31.82c-.552,0-1-.447-1-1s.448-1,1-1h31.82c.553,0,1,.447,1,1s-.447,1-1,1Z"/>
  <path d="M64.377,64.993c-6.258,0-12.622-.576-19.054-1.729-1.346-.242-2.324-1.477-2.324-2.936v-.008c0-.91,.385-1.756,1.055-2.32,.617-.52,1.418-.739,2.198-.604,12.169,2.118,24.101,2.131,35.464,.032,.785-.145,1.594,.07,2.218,.589,.677,.564,1.065,1.414,1.065,2.331,0,1.442-.963,2.674-2.289,2.929-5.974,1.144-12.101,1.716-18.333,1.716Zm-18.584-5.637c-.199,0-.352,.091-.451,.174-.218,.184-.343,.472-.343,.79v.008c0,.482,.291,.898,.677,.967,12.594,2.26,24.927,2.266,36.657,.018,.38-.072,.666-.487,.666-.964,0-.321-.126-.61-.346-.794-.118-.099-.313-.206-.575-.159-11.598,2.141-23.767,2.132-36.168-.028-.04-.007-.079-.011-.117-.011Z"/>
  <path d="M64.487,80c-6.909,0-13.969-.583-20.998-1.732-1.444-.244-2.488-1.478-2.488-2.938,0-.875,.378-1.695,1.038-2.259,.665-.568,1.542-.819,2.408-.679,11.136,1.767,22.138,2.075,32.695,.913,.556-.059,1.043,.336,1.103,.885,.061,.549-.336,1.043-.885,1.104-10.734,1.179-21.916,.867-33.226-.927-.29-.044-.577,.036-.796,.225-.218,.185-.337,.444-.337,.728,0,.481,.351,.896,.816,.974,6.917,1.132,13.869,1.706,20.662,1.706h.17l.012,2h-.173Z"/>
  <path d="M78.35,79.18c-.553,0-1.005-.447-1.005-1,0-.529,.406-.962,.926-.998,2.016-.239,4.01-.53,5.927-.867,.464-.083,.803-.488,.803-.965,0-.133-.022-.247-.067-.35-.221-.507,.011-1.096,.517-1.317,.512-.221,1.096,.011,1.317,.517,.154,.357,.233,.743,.233,1.15,0,1.446-1.032,2.681-2.454,2.935-1.969,.346-4.014,.644-6.079,.889-.039,.005-.078,.007-.117,.007Z"/>
  <path d="M64.453,94.993c-7.487,0-15.105-.574-22.801-1.725-1.537-.23-2.652-1.467-2.652-2.94v-.008c0-.826,.369-1.62,1.013-2.178,.711-.616,1.669-.894,2.628-.75,14.644,2.124,29.004,2.136,42.685,.031,.97-.146,1.932,.12,2.651,.737,.65,.558,1.023,1.356,1.023,2.188,0,1.458-1.1,2.691-2.616,2.934-7.145,1.141-14.474,1.711-21.931,1.711Zm-22.302-5.637c-.311,0-.605,.104-.829,.298-.147,.128-.322,.347-.322,.666v.008c0,.468,.408,.881,.948,.962,15.158,2.267,30.002,2.27,44.121,.018,.539-.086,.931-.489,.931-.959,0-.322-.177-.542-.325-.67-.27-.232-.658-.336-1.045-.278-13.874,2.136-28.435,2.125-43.275-.029-.068-.01-.136-.015-.204-.015Z"/>
  <path d="M70,109h-12c-.552,0-1-.447-1-1v-14c0-.553,.448-1,1-1h12c.553,0,1,.447,1,1v14c0,.553-.447,1-1,1Zm-11-2h10v-12h-10v12Z"/>
  <path d="M83.5,27c-1.93,0-3.5-1.57-3.5-3.5s1.57-3.5,3.5-3.5,3.5,1.57,3.5,3.5-1.57,3.5-3.5,3.5Zm0-5c-.827,0-1.5,.673-1.5,1.5s.673,1.5,1.5,1.5,1.5-.673,1.5-1.5-.673-1.5-1.5-1.5Z"/>
  <path d="M44.5,27c-1.93,0-3.5-1.57-3.5-3.5s1.57-3.5,3.5-3.5,3.5,1.57,3.5,3.5-1.57,3.5-3.5,3.5Zm0-5c-.827,0-1.5,.673-1.5,1.5s.673,1.5,1.5,1.5,1.5-.673,1.5-1.5-.673-1.5-1.5-1.5Z"/>
  <path d="M66.991,23c-.256,0-.512-.098-.707-.293l-2.292-2.293-2.291,2.293c-.188,.188-.442,.293-.707,.293h0c-.265,0-.52-.105-.708-.293l-2.29-2.292-2.288,2.291c-.187,.188-.442,.294-.707,.294h-3c-.552,0-1-.447-1-1s.448-1,1-1h2.585l2.702-2.706c.376-.377,1.04-.375,1.415,0l2.291,2.292,2.291-2.292c.376-.375,1.039-.375,1.414,0l2.293,2.293,2.298-2.294c.389-.389,1.022-.389,1.413,0l2.711,2.708h2.586c.553,0,1,.447,1,1s-.447,1-1,1h-3c-.265,0-.52-.105-.707-.292l-2.297-2.295-2.299,2.295c-.194,.194-.45,.292-.706,.292Z"/>
  <path d="M97.5,48c-3.584,0-6.5-2.916-6.5-6.5s2.916-6.5,6.5-6.5,6.5,2.916,6.5,6.5-2.916,6.5-6.5,6.5Zm0-11c-2.481,0-4.5,2.019-4.5,4.5s2.019,4.5,4.5,4.5,4.5-2.019,4.5-4.5-2.019-4.5-4.5-4.5Z"/>
  <path d="M21,79c-3.309,0-6-2.691-6-6s2.691-6,6-6,6,2.691,6,6-2.691,6-6,6Zm0-10c-2.206,0-4,1.794-4,4s1.794,4,4,4,4-1.794,4-4-1.794-4-4-4Z"/>
  <path d="M82,52H46c-1.654,0-3-1.346-3-3s1.346-3,3-3h36c1.654,0,3,1.346,3,3s-1.346,3-3,3Zm-36-4c-.551,0-1,.448-1,1s.449,1,1,1h36c.552,0,1-.448,1-1s-.448-1-1-1H46Z"/>
  <g>
    <path d="M29.001,53c-.342,0-.675-.176-.862-.491l-5.01-8.48c-.281-.476-.123-1.089,.352-1.37,.476-.28,1.089-.122,1.37,.352l5.01,8.481c.281,.476,.124,1.089-.352,1.37-.16,.094-.335,.139-.508,.139Z"/>
    <path d="M21.921,41.02c-.342,0-.675-.176-.862-.491l-5.92-10.02c-.281-.476-.124-1.089,.352-1.37,.476-.28,1.088-.123,1.37,.352l5.92,10.019c.281,.476,.123,1.089-.352,1.37-.16,.094-.335,.139-.508,.139Z"/>
    <path d="M33,50c-.552,0-1-.447-1-1v-16c0-.553,.448-1,1-1s1,.447,1,1v16c0,.553-.448,1-1,1Z"/>
    <path d="M25,55c-.098,0-.197-.014-.294-.044l-13-4c-.528-.163-.824-.723-.662-1.25,.162-.528,.724-.826,1.249-.662l13,4c.528,.163,.824,.723,.662,1.25-.132,.43-.528,.706-.955,.706Z"/>
  </g>
  <g>
    <path d="M101.669,33.17c-.173,0-.348-.045-.507-.139-.476-.28-.634-.894-.353-1.369l4.27-7.24c.28-.476,.894-.635,1.369-.354,.476,.28,.634,.894,.354,1.369l-4.27,7.24c-.187,.316-.52,.492-.862,.492Z"/>
    <path d="M108.739,21.2c-.173,0-.348-.045-.507-.139-.476-.281-.634-.894-.353-1.369l4.84-8.2c.281-.477,.895-.632,1.369-.353,.477,.281,.634,.893,.353,1.369l-4.84,8.2c-.187,.316-.52,.492-.862,.492Z"/>
    <path d="M98,30.417c-.553,0-1-.447-1-1V14.75c0-.553,.447-1,1-1s1,.447,1,1v14.667c0,.553-.447,1-1,1Z"/>
    <path d="M105.333,35c-.428,0-.823-.276-.956-.706-.162-.527,.134-1.087,.662-1.25l11.917-3.667c.529-.164,1.087,.135,1.25,.662,.162,.527-.134,1.087-.662,1.25l-11.917,3.667c-.098,.03-.197,.044-.294,.044Z"/>
  </g>
  <path d="M26.518,21.057c-.29,0-.577-.125-.775-.367-.807-.988-1.953-1.568-3.228-1.636h0c-.551-.029-.975-.5-.945-1.052,.029-.551,.516-.965,1.051-.946,.002,0,.004,0,.007,0,2.46,.121,4.591-1.777,4.725-4.249,0-.002,0-.004,0-.006,.029-.553,.515-.973,1.052-.946,.551,.029,.975,.501,.945,1.052v.005c-.07,1.347,.454,2.634,1.438,3.533,.408,.372,.436,1.005,.064,1.412-.372,.409-1.005,.439-1.413,.065-.515-.47-.943-1.013-1.275-1.606-.562,.791-1.296,1.45-2.143,1.924,.471,.333,.899,.73,1.27,1.185,.35,.428,.286,1.058-.142,1.407-.186,.151-.41,.225-.632,.225Z"/>
  <path d="M23.999,100.927c-.049,0-.098,0-.147-.002-1.334-.041-2.573-.594-3.489-1.559-.917-.967-1.401-2.231-1.361-3.56,.078-2.617,2.202-4.733,4.834-4.816,.534-.047,1.014,.415,1.031,.968,.017,.552-.416,1.014-.968,1.03-1.579,.051-2.852,1.314-2.899,2.878-.024,.793,.265,1.547,.813,2.124,.55,.579,1.294,.912,2.098,.936,1.249,.038,2.397-.707,2.858-1.853,.206-.512,.789-.757,1.301-.554,.512,.207,.76,.789,.553,1.302-.755,1.873-2.601,3.106-4.625,3.106Z"/>
  <g>
    <path d="M108.534,85.777c-.328,0-.649-.161-.841-.457l-1.617-2.499c-.3-.463-.167-1.082,.297-1.383,.463-.299,1.083-.168,1.383,.297l1.617,2.499c.3,.463,.167,1.082-.297,1.383-.168,.108-.355,.16-.542,.16Z"/>
    <path d="M104.724,79.888c-.328,0-.649-.161-.841-.457l-1.611-2.49c-.3-.464-.167-1.082,.297-1.383,.463-.299,1.083-.167,1.383,.297l1.611,2.49c.3,.464,.167,1.082-.297,1.383-.168,.108-.355,.16-.542,.16Z"/>
    <path d="M101.626,84.297c-.328,0-.649-.161-.841-.457-.3-.464-.167-1.083,.297-1.383l2.499-1.616c.464-.302,1.082-.166,1.383,.297,.3,.464,.167,1.083-.297,1.383l-2.499,1.616c-.168,.108-.357,.16-.542,.16Z"/>
    <path d="M107.516,80.486c-.328,0-.649-.161-.841-.457-.3-.464-.167-1.083,.297-1.383l2.491-1.611c.464-.301,1.083-.167,1.383,.297,.3,.464,.167,1.083-.297,1.383l-2.491,1.611c-.168,.108-.356,.16-.542,.16Z"/>
  </g>
</svg>