<?xml version="1.0" encoding="UTF-8"?>
<svg id="_06" data-name="06" xmlns="http://www.w3.org/2000/svg" viewBox="0 0 128 128">
  <path d="M96,109H32c-.552,0-1-.448-1-1v-7.46c0-7.466,6.074-13.54,13.54-13.54h13.46c.552,0,1,.448,1,1s-.448,1-1,1h-13.46c-6.363,0-11.54,5.177-11.54,11.54v6.46h63c.552,0,1,.448,1,1s-.448,1-1,1Z"/>
  <path d="M92.18,92.52c-.251,0-.502-.094-.696-.282-2.155-2.088-5.005-3.238-8.024-3.238h-13.46c-.552,0-1-.448-1-1s.448-1,1-1h13.46c3.542,0,6.886,1.35,9.416,3.802,.396,.384,.407,1.017,.022,1.414-.196,.203-.457,.304-.718,.304Z"/>
  <path d="M64,101c-6.065,0-11-4.935-11-11v-2c0-.552,.448-1,1-1h4c.552,0,1,.448,1,1s-.448,1-1,1h-3v1c0,4.962,4.038,9,9,9s9-4.038,9-9v-1h-3c-.552,0-1-.448-1-1s.448-1,1-1h4c.552,0,1,.448,1,1v2c0,6.065-4.935,11-11,11Z"/>
  <path d="M64,97c-3.86,0-7-3.14-7-7v-9.98c0-.552,.448-1,1-1s1,.448,1,1v9.98c0,2.757,2.243,5,5,5s5-2.243,5-5v-9.98c0-.552,.448-1,1-1s1,.448,1,1v9.98c0,3.86-3.14,7-7,7Z"/>
  <path d="M64,82c-.417,0-.833-.011-1.239-.043-.245-.008-.52-.03-.807-.064h0c-.02-.003-.04-.005-.059-.008-2.547-.261-4.983-1.01-7.24-2.225l-.129-.069c-.218-.117-.44-.238-.656-.372-.761-.448-1.508-.964-2.198-1.52-.117-.082-.268-.208-.419-.335-.997-.824-1.943-1.791-2.805-2.869l-.195-.257c-.13-.17-.26-.34-.38-.51-.168-.23-.343-.484-.497-.737-.094-.117-.217-.314-.328-.51-.127-.198-.271-.442-.405-.698-.411-.721-.796-1.528-1.125-2.368-.06-.149-.123-.316-.186-.483-.208-.583-.384-1.142-.54-1.721l-.15-.561c-.143-.534,.174-1.082,.707-1.225,.535-.146,1.082,.174,1.225,.707l.15,.56c.142,.526,.3,1.034,.486,1.551,.052,.139,.11,.292,.167,.435,.297,.758,.639,1.478,1.021,2.147,.124,.236,.24,.432,.365,.628,.097,.17,.174,.293,.266,.417,.18,.287,.324,.493,.468,.691,.115,.162,.23,.312,.345,.463l.187,.246c.757,.946,1.607,1.815,2.507,2.559,.118,.1,.228,.194,.345,.278,.66,.529,1.326,.989,2.025,1.402,.2,.124,.385,.223,.566,.32l.133,.071c2.023,1.089,4.209,1.761,6.496,1.995h0c.033,.003,.066,.008,.098,.013,.229,.026,.449,.044,.678,.052,.396,.031,.759,.04,1.123,.04,8.098,0,15.201-5.472,17.273-13.306l4.605-17.449c.021-.079,.042-.157,.057-.238,.008-.048,.02-.097,.036-.144,.089-.407,.154-.72,.2-1.024,.071-.35,.106-.644,.142-.944,.002-.018,.003-.036,.005-.053,.037-.289,.065-.588,.084-.877,.019-.322,.029-.601,.038-.879v-.296c0-.223,0-.447-.017-.67l-.005-.182c-.017-.405-.044-.704-.081-.994-.022-.221-.05-.413-.077-.596l-.021-.15c-.007-.054-.012-.107-.024-.16-.005-.025-.01-.05-.014-.075-.003-.014-.005-.028-.008-.043h0c-.047-.289-.104-.57-.169-.86-.004-.017-.007-.034-.01-.052-.008-.029-.015-.058-.019-.085-.02-.115-.046-.23-.073-.34-.017-.043-.031-.086-.042-.13l-.019-.083c-.02-.049-.035-.1-.047-.153-.035-.157-.079-.315-.123-.463l-.035-.106c-.008-.021-.035-.102-.041-.124-.051-.188-.111-.367-.18-.547-.148-.434-.297-.809-.454-1.148-.083-.207-.149-.358-.226-.51-.682-1.449-1.541-2.784-2.568-3.992-.143-.184-.271-.328-.406-.472-.261-.291-.514-.553-.776-.806-.183-.183-.354-.345-.534-.498-.218-.205-.405-.356-.591-.507-.026-.021-.062-.052-.085-.075-.038-.025-.075-.054-.111-.086-.041-.03-.08-.064-.116-.101l-.087-.064c-.06-.046-.123-.096-.186-.141-.227-.172-.423-.312-.629-.453-.003-.002-.006-.004-.009-.006-.018-.012-.036-.024-.054-.038-.047-.035-.1-.07-.152-.1-.044-.024-.086-.052-.126-.083-.059-.045-.126-.083-.191-.122l-.137-.083c-.196-.128-.398-.251-.6-.356-.644-.378-1.296-.697-2.038-1.002-.326-.143-.641-.26-.962-.358-.037-.012-.074-.025-.109-.041-.018-.005-.036-.011-.048-.016-.335-.121-.689-.222-1.032-.315-.028-.005-.102-.026-.172-.046-.561-.145-1.079-.249-1.655-.342-.051-.007-.093-.014-.132-.021-.267-.037-.542-.073-.818-.101-.024-.002-.054-.006-.087-.012-.272-.027-.545-.045-.828-.054-.329-.02-.648-.029-.957-.029h-9.12c-.309,0-.627,.009-.927,.028-.259,.01-.494,.029-.729,.056-.038,.004-.076,.006-.114,.006-.239,.017-.378,.035-.516,.052l-.198,.027c-.144,.02-.273,.036-.401,.062-.482,.081-.924,.165-1.367,.278-.186,.037-.307,.067-.428,.106-.383,.104-.717,.206-1.05,.326-.038,.014-.076,.025-.115,.034-.034,.015-.069,.028-.105,.04-.322,.101-.635,.231-.948,.36-.352,.143-.688,.302-1.024,.47-.345,.163-.666,.337-.972,.526-.306,.162-.546,.314-.778,.466-.325,.21-.626,.416-.927,.643-.193,.136-.358,.267-.517,.392l-.212,.171c-.205,.171-.428,.356-.642,.56-.251,.22-.459,.421-.669,.639-.44,.431-.847,.882-1.231,1.362-.428,.531-.841,1.104-1.231,1.707-.114,.184-.238,.384-.352,.584-.128,.217-.24,.422-.352,.636-.087,.157-.153,.279-.211,.409-.114,.212-.176,.346-.23,.478l-.095,.223c-.103,.219-.181,.399-.25,.589-.116,.261-.183,.459-.251,.665-.092,.247-.164,.451-.225,.672-.088,.259-.149,.467-.201,.683-.065,.223-.107,.39-.141,.565-.006,.033-.014,.065-.024,.098l-.073,.287c-.022,.123-.059,.305-.087,.488-.082,.433-.138,.829-.185,1.244-.039,.316-.057,.626-.076,.945-.019,.312-.028,.632-.028,.952v.29c.009,.245,.019,.523,.038,.801,.001,.023,.002,.085,.002,.108,.016,.212,.044,.499,.081,.778,.003,.021,.005,.042,.006,.064,.003,.022,.006,.043,.008,.065,.027,.29,.072,.589,.127,.878,.052,.338,.117,.642,.19,.955,0,.004,.021,.111,.022,.115,.016,.047,.021,.073,.03,.122,.014,.081,.036,.159,.057,.238l.052,.207,2.323,8.803c.141,.534-.178,1.081-.712,1.222-.535,.14-1.081-.178-1.222-.712l-2.376-9.012c-.029-.112-.058-.223-.08-.337-.023-.085-.04-.17-.054-.255-.073-.298-.148-.654-.202-1.01-.06-.316-.114-.677-.146-1.028h0c-.002-.02-.005-.039-.007-.058-.042-.319-.074-.649-.095-.969-.001-.022-.002-.084-.002-.106-.019-.233-.029-.535-.04-.836v-.324c0-.36,.01-.721,.031-1.071,.021-.359,.043-.709,.085-1.06,.052-.458,.116-.902,.2-1.347,.026-.176,.068-.389,.111-.603l.044-.182c.014-.058,.028-.114,.044-.17,.045-.228,.101-.446,.166-.664,.053-.229,.133-.501,.224-.762,.059-.219,.148-.475,.248-.742,.08-.24,.172-.502,.287-.753,.061-.178,.164-.417,.277-.656l.073-.172c.08-.195,.178-.401,.288-.597,.039-.103,.134-.28,.24-.47,.114-.219,.242-.454,.381-.689,.119-.208,.255-.428,.391-.648,.438-.679,.893-1.31,1.362-1.892,.432-.54,.894-1.052,1.369-1.517,.229-.239,.48-.479,.741-.708,.214-.206,.472-.421,.729-.636l.158-.128c.266-.211,.463-.366,.66-.503,.31-.233,.649-.466,1.009-.699,.284-.186,.583-.373,.883-.528,.304-.191,.691-.401,1.084-.586,.364-.182,.747-.363,1.142-.523,.341-.141,.687-.282,1.042-.397,.088-.039,.179-.069,.271-.091,.364-.129,.728-.24,1.102-.341,.159-.051,.358-.101,.557-.137,.433-.113,.93-.208,1.438-.293,.14-.028,.31-.052,.479-.074l.227-.031c.168-.021,.333-.041,.506-.053,.079-.011,.148-.014,.203-.015,.267-.029,.533-.049,.8-.059,.317-.021,.678-.031,1.029-.031h9.12c.351,0,.712,.01,1.052,.032,.303,.01,.625,.031,.946,.063,.027,.003,.054,.006,.081,.011,.31,.031,.619,.072,.917,.113,.038,.005,.075,.013,.111,.022-.007-.008,.052,.003,.109,.017,.558,.086,1.133,.204,1.679,.342l.136,.038c.015,.003,.125,.033,.14,.037,.396,.107,.803,.226,1.188,.365-.004-.005,.057,.01,.146,.05,.369,.116,.731,.252,1.079,.406,.807,.331,1.542,.692,2.223,1.093,.212,.109,.471,.266,.728,.434l.112,.068c.076,.044,.181,.109,.284,.184,.099,.059,.196,.124,.286,.189,.006,.004,.011,.008,.017,.012h0c.234,.16,.458,.32,.682,.49,.06,.042,.151,.112,.236,.179,.085,.064,.149,.114,.206,.164,.095,.067,.191,.148,.287,.243,.163,.126,.389,.31,.604,.515,.179,.151,.388,.349,.598,.558,.286,.275,.572,.573,.849,.881,.167,.177,.339,.373,.49,.57,1.108,1.302,2.065,2.787,2.81,4.372,.093,.184,.185,.393,.267,.602,.161,.346,.335,.785,.495,1.251,.08,.207,.16,.448,.229,.699,.023,.061,.048,.134,.067,.2,.041,.139,.083,.29,.121,.444,.005,.014,.011,.029,.016,.044,.021,.063,.039,.132,.055,.207,.015,.038,.027,.077,.037,.116,.043,.175,.087,.36,.121,.546,.005,.021,.009,.044,.014,.067h.001c.072,.317,.133,.626,.185,.943,.006,.024,.01,.048,.015,.073,.021,.103,.035,.205,.048,.308l.014,.105c.033,.221,.065,.449,.087,.677,.039,.31,.07,.656,.083,1.014,.009,.095,.012,.198,.012,.301,.019,.197,.02,.473,.02,.75v.33c-.011,.336-.021,.637-.042,.939-.02,.352-.05,.682-.091,1.001,0,.013-.002,.025-.003,.037-.043,.368-.088,.726-.164,1.094-.045,.305-.12,.672-.207,1.038-.003,.033-.017,.105-.04,.187-.022,.114-.051,.225-.08,.336l-.04,.156-4.566,17.297c-2.304,8.711-10.203,14.794-19.207,14.794Zm-10.468-54.013h0Zm.108-.034h0Z"/>
  <g>
    <path d="M75.202,63.547c-3.175,0-6.547-1.049-8.504-2.632h0c-.506-.41-.792-1.022-.784-1.68,.008-.663,.312-1.274,.835-1.675,3.207-2.466,9.165-6.428,13.028-5.225,.98,.304,2.287,1.093,2.946,3.128,.738,3.005-.079,5.39-2.279,6.786-1.427,.904-3.297,1.298-5.242,1.298Zm-7.246-4.187c2.577,2.085,8.471,3.068,11.417,1.2,1.48-.939,1.947-2.428,1.428-4.551-.302-.921-.837-1.521-1.617-1.764-2.545-.788-7.463,2.015-11.216,4.9-.046,.036-.054,.087-.054,.115,0,.043,.014,.077,.043,.101h0Z"/>
    <path d="M52.798,63.547c-1.945,0-3.815-.393-5.242-1.298-2.2-1.396-3.017-3.781-2.299-6.716,.679-2.104,1.986-2.894,2.966-3.198,3.864-1.201,9.821,2.758,13.028,5.225,.522,.401,.827,1.012,.835,1.675,.008,.658-.278,1.27-.784,1.68h0c-1.956,1.583-5.329,2.632-8.504,2.632Zm-3.001-9.437c-.356,0-.684,.043-.981,.135-.78,.242-1.315,.842-1.637,1.834-.499,2.053-.032,3.542,1.448,4.481,2.946,1.868,8.838,.885,11.416-1.2h0c.029-.023,.044-.057,.044-.101,0-.027-.008-.079-.055-.115-3.316-2.55-7.541-5.035-10.235-5.035Zm10.876,6.028h0Z"/>
  </g>
  <path d="M61.038,69.261c1.93,0,1.934-3,0-3s-1.933,3,0,3h0Z"/>
  <path d="M55.39,41.78c-.288,0-.564-.124-.754-.344l-8.61-9.9c-.357-.41-.321-1.03,.082-1.396,1.078-.98,2.23-1.818,3.421-2.491,.413-.233,.934-.143,1.246,.215l7.58,8.72c.288,.332,.326,.813,.093,1.186l-2.21,3.54c-.168,.269-.453,.442-.77,.467-.026,.002-.053,.003-.079,.003Zm-7.196-10.798l7.064,8.122,1.103-1.766-6.545-7.529c-.553,.351-1.094,.743-1.621,1.173Z"/>
  <path d="M72.54,41.66c-.233,0-.466-.081-.656-.245-.416-.362-.461-.994-.099-1.411l7.919-9.11c-.521-.42-1.068-.808-1.635-1.161l-6.995,8.043c-.362,.417-.994,.461-1.411,.098-.416-.362-.461-.994-.098-1.411l7.54-8.67c.31-.356,.827-.448,1.24-.218,1.237,.687,2.397,1.519,3.447,2.474,.402,.366,.439,.986,.083,1.396l-8.58,9.87c-.198,.227-.476,.344-.755,.344Z"/>
  <path d="M66,36c-.552,0-1-.448-1-1v-8h-2v8c0,.552-.448,1-1,1s-1-.448-1-1v-9c0-.552,.448-1,1-1h4c.552,0,1,.448,1,1v9c0,.552-.448,1-1,1Z"/>
  <path d="M67,69.261c1.93,0,1.934-3,0-3s-1.934,3,0,3h0Z"/>
  <path d="M86.96,50h-16.71c-.552,0-1-.448-1-1s.448-1,1-1h15.897c.124-.67,.209-1.339,.255-2h-13.651c-.552,0-1-.448-1-1s.448-1,1-1h14.69c.267,0,.522,.106,.71,.295,.188,.19,.292,.445,.29,.712-.01,1.383-.18,2.801-.505,4.216-.105,.455-.509,.776-.975,.776Z"/>
  <path d="M57.75,50h-16.71c-.465,0-.869-.321-.974-.774-.325-1.406-.496-2.825-.506-4.218-.002-.267,.102-.522,.291-.712,.188-.189,.443-.295,.709-.295h14.69c.552,0,1,.448,1,1s-.448,1-1,1h-13.652c.046,.664,.13,1.332,.254,2h15.898c.552,0,1,.448,1,1s-.448,1-1,1Z"/>
  <path d="M66.783,48h-5.566c-.345,0-.665-.178-.848-.47l-2.5-4c-.203-.324-.203-.735,0-1.06l2.5-4c.183-.292,.503-.47,.848-.47h5.566c.345,0,.665,.178,.848,.47l2.5,4c.203,.324,.203,.735,0,1.06l-2.5,4c-.183,.292-.503,.47-.848,.47Zm-5.012-2h4.458l1.875-3-1.875-3h-4.458l-1.875,3,1.875,3Z"/>
  <path d="M69,52h-10c-.345,0-.665-.178-.848-.47l-5-8c-.203-.324-.203-.736,0-1.061l1.39-2.22c.293-.468,.91-.609,1.378-.317,.468,.293,.61,.91,.317,1.378l-1.058,1.69,4.374,6.999h8.892l4.375-7-4.375-7h-8.892l-1.106,1.77c-.293,.468-.91,.611-1.378,.318-.468-.293-.611-.91-.318-1.378l1.4-2.24c.183-.292,.503-.47,.848-.47h10c.345,0,.665,.178,.848,.47l5,8c.203,.324,.203,.735,0,1.06l-5,8c-.183,.292-.503,.47-.848,.47Z"/>
  <path d="M64,78c-2.742,0-5.314-2.125-7.864-6.496-.228-.391-.165-.886,.153-1.208,.318-.321,.812-.391,1.207-.164,4.377,2.501,8.631,2.501,13.008,0,.394-.226,.889-.157,1.207,.164,.318,.322,.381,.817,.153,1.208-2.55,4.371-5.122,6.496-7.864,6.496Zm-4.21-4.67c2.9,3.549,5.521,3.549,8.421,0-2.803,.894-5.618,.894-8.421,0Z"/>
  <path d="M103.26,92.19c-.071,0-.152-.008-.221-.022l-10.12-2.19c-.284-.062-.527-.244-.666-.499-.139-.255-.161-.558-.059-.83l4.64-12.39c.193-.518,.773-.781,1.287-.586,.518,.194,.78,.77,.586,1.287l-4.234,11.307,8.103,1.754,3.93-12.599c.164-.528,.726-.822,1.252-.657,.527,.165,.821,.725,.657,1.252l-4.2,13.468c-.13,.418-.517,.704-.955,.704Z"/>
  <path d="M104.98,86.66c-.054,0-.109-.004-.165-.014l-9.98-1.66c-.295-.049-.553-.228-.702-.487s-.175-.572-.07-.852l1.13-3c.166-.438,.615-.702,1.079-.637l9.86,1.42c.29,.041,.546,.208,.703,.456,.157,.248,.197,.551,.11,.831l-1.011,3.243c-.132,.423-.523,.701-.954,.701Zm-8.616-3.447l7.921,1.317,.402-1.288-7.905-1.138-.418,1.109Z"/>
  <path d="M98,109h-12c-.328,0-.635-.161-.822-.43-.187-.27-.229-.614-.115-.921l11.77-31.39c.195-.517,.771-.778,1.288-.585,.517,.194,.779,.771,.585,1.288l-11.264,30.039h9.822l9.241-29.578c.164-.528,.723-.821,1.253-.656,.527,.165,.821,.726,.656,1.253l-9.46,30.28c-.13,.417-.517,.702-.955,.702Z"/>
  <path d="M86,109H42c-.552,0-1-.448-1-1v-6c0-.552,.448-1,1-1s1,.448,1,1v5h42v-5c0-.552,.448-1,1-1s1,.448,1,1v6c0,.552-.448,1-1,1Z"/>
  <path d="M106.306,78.898c-.183,0-.366-.01-.55-.031l-6.491-.721c-1.254-.14-2.356-.715-3.105-1.619-3.92-4.736-3.535-12.19-3.35-15.773l.04-.811c.057-1.319,1.137-2.351,2.46-2.351,1.371,0,2.481,1.041,2.565,2.371,.099,1.562,.404,4.423,1.338,6.028,.021,.037,.077,.137,.246,.1,.065-.013,.219-.062,.246-.246l2.413-16.887c.175-1.225,1.24-2.148,2.477-2.148,.69,0,1.332,.274,1.809,.773,.477,.499,.723,1.153,.691,1.843l-1.543,11.934,4.3-12.103c.426-1.119,1.623-1.69,2.742-1.317,1.113,.371,1.733,1.545,1.411,2.674l-2.948,10.22,3.761-6.95c.61-.923,1.677-1.29,2.642-.968,.587,.196,1.057,.611,1.323,1.17,.263,.553,.289,1.199,.072,1.772h0c-.959,2.536-1.807,5.08-2.627,7.54-2.128,6.383-3.966,11.895-6.799,14.356-.852,.74-1.966,1.144-3.121,1.144Zm-10.959-19.306c-.286,0-.489,.192-.499,.438l-.041,.828c-.185,3.586-.531,10.259,2.893,14.394,.416,.503,1.05,.825,1.786,.907l6.491,.721c.796,.089,1.573-.144,2.139-.636,2.42-2.103,4.178-7.375,6.213-13.48,.826-2.478,1.681-5.042,2.653-7.614,0,0,0,0,0,0,.033-.087,.014-.16-.008-.206-.021-.044-.064-.103-.148-.131-.113-.037-.233,.004-.298,.101l-5.414,10.01c-.465,.742-1.315,1.001-2.056,.675-.741-.327-1.123-1.13-.907-1.911l3.93-13.627c.027-.093-.026-.193-.121-.225-.097-.03-.197,.017-.233,.11l-4.614,12.987c-.373,.928-1.272,1.398-2.209,1.182-.935-.217-1.539-1.038-1.467-1.995l1.666-12.869c.001-.104-.091-.229-.146-.287-.056-.058-.176-.155-.363-.155-.248,0-.462,.186-.497,.432l-2.413,16.887c-.14,.979-.863,1.735-1.842,1.926-.952,.184-1.876-.23-2.357-1.057-1.084-1.863-1.472-4.785-1.606-6.909-.018-.283-.246-.497-.531-.497Z"/>
  <path d="M114.484,105.231c-.441,0-.846-.295-.965-.741-.35-1.305-1.248-2.369-2.464-2.918-.503-.228-.727-.82-.499-1.323,.227-.503,.82-.727,1.323-.499,.636,.287,1.211,.671,1.711,1.132,.289-.927,.782-1.78,1.441-2.494-.551-.171-1.082-.416-1.575-.733-.464-.298-.599-.917-.301-1.382,.298-.465,.917-.6,1.382-.301,1.073,.69,2.344,.885,3.576,.555,.533-.146,1.081,.174,1.225,.707,.143,.534-.173,1.082-.707,1.225h0c-2.395,.643-3.821,3.113-3.181,5.508,0,.002,0,.003,.001,.004h0c.143,.534-.173,1.082-.707,1.225-.087,.023-.174,.035-.26,.035Z"/>
  <path d="M30.025,69.933c-1.19,0-2.374-.424-3.306-1.243-1.002-.88-1.604-2.096-1.695-3.423-.091-1.33,.342-2.612,1.22-3.611,1.729-1.966,4.713-2.244,6.795-.631,.436,.338,.517,.966,.178,1.403-.34,.437-.967,.515-1.403,.178-1.25-.967-3.036-.804-4.068,.37-.524,.595-.782,1.361-.728,2.155,.054,.797,.416,1.527,1.02,2.057,.938,.824,2.297,.983,3.383,.394,.487-.262,1.093-.082,1.356,.403,.263,.485,.083,1.093-.403,1.356-.735,.398-1.544,.593-2.351,.593Z"/>
  <g>
    <path d="M23.534,96.777c-.328,0-.649-.161-.84-.457l-1.617-2.498c-.3-.464-.167-1.083,.296-1.383,.464-.301,1.083-.167,1.383,.296l1.617,2.498c.3,.464,.167,1.083-.296,1.383-.168,.109-.356,.161-.542,.161Z"/>
    <path d="M19.724,90.888c-.328,0-.649-.161-.84-.457l-1.612-2.491c-.3-.464-.167-1.083,.296-1.383,.464-.301,1.083-.167,1.383,.296l1.612,2.491c.3,.464,.168,1.083-.296,1.383-.168,.109-.356,.161-.542,.161Z"/>
    <path d="M16.627,95.297c-.328,0-.649-.161-.84-.457-.3-.464-.167-1.083,.296-1.383l2.499-1.617c.465-.302,1.082-.166,1.383,.296,.3,.464,.168,1.083-.296,1.383l-2.499,1.617c-.168,.109-.356,.161-.542,.161Z"/>
    <path d="M22.516,91.486c-.328,0-.649-.161-.841-.457-.3-.463-.167-1.083,.297-1.383l2.491-1.611c.463-.3,1.082-.166,1.383,.297,.3,.463,.167,1.083-.297,1.383l-2.491,1.611c-.168,.108-.356,.16-.542,.16Z"/>
  </g>
  <g>
    <path d="M87,31c-.247,0-.495-.091-.688-.274-.401-.38-.417-1.013-.038-1.414l4.91-5.18c.38-.4,1.013-.418,1.413-.038,.401,.38,.418,1.013,.038,1.414l-4.91,5.18c-.196,.207-.461,.312-.726,.312Z"/>
    <path d="M96.18,21.31c-.247,0-.494-.091-.688-.274-.401-.38-.419-1.013-.039-1.414l8.82-9.31c.38-.402,1.013-.417,1.414-.039,.401,.38,.418,1.013,.039,1.414l-8.82,9.31c-.197,.208-.461,.312-.726,.312Z"/>
    <path d="M88.999,34.001c-.443,0-.849-.297-.967-.746-.14-.534,.179-1.081,.713-1.222l19-5.001c.533-.141,1.081,.179,1.222,.713,.14,.534-.179,1.081-.713,1.222l-19,5.001c-.085,.022-.171,.033-.255,.033Z"/>
    <path d="M84.001,29c-.021,0-.042,0-.064-.002-.551-.035-.97-.509-.935-1.06l1-16c.035-.551,.508-.972,1.06-.935,.551,.035,.97,.509,.935,1.06l-1,16c-.033,.53-.473,.938-.997,.938Z"/>
  </g>
  <g>
    <path d="M39,31c-.265,0-.529-.105-.726-.312l-4.94-5.21c-.38-.401-.363-1.034,.038-1.413,.401-.38,1.033-.363,1.414,.038l4.94,5.21c.38,.401,.363,1.034-.038,1.414-.193,.184-.441,.274-.688,.274Z"/>
    <path d="M29.92,21.42c-.265,0-.529-.105-.726-.312l-8.92-9.42c-.38-.401-.362-1.034,.039-1.414,.401-.379,1.034-.362,1.414,.039l8.92,9.42c.38,.401,.362,1.034-.039,1.414-.193,.183-.44,.274-.688,.274Z"/>
    <path d="M37.001,34.001c-.084,0-.17-.011-.255-.033l-19-5.001c-.534-.141-.853-.688-.713-1.222,.141-.534,.687-.854,1.222-.713l19,5.001c.534,.141,.853,.688,.713,1.222-.118,.449-.524,.746-.967,.746Z"/>
    <path d="M41.999,29c-.524,0-.964-.408-.997-.938l-1-16c-.035-.551,.384-1.026,.935-1.06,.559-.04,1.026,.385,1.06,.935l1,16c.035,.551-.384,1.026-.935,1.06-.021,.002-.042,.002-.064,.002Z"/>
  </g>
</svg>