<?xml version="1.0" encoding="UTF-8"?>
<svg id="_12" data-name="12" xmlns="http://www.w3.org/2000/svg" viewBox="0 0 128 128">
  <g>
    <path d="M85.161,50.41c-.27,0-.539-.108-.736-.323l-7.44-8.09c-.373-.405-.348-1.036,.057-1.41,.824-.764,1.916-1.141,3.158-1.088,1.747,.072,3.54,.979,4.919,2.486,1.384,1.497,2.137,3.36,2.064,5.107-.052,1.241-.518,2.298-1.346,3.056-.192,.175-.434,.262-.674,.262Zm-5.85-8.837l5.73,6.231c.095-.282,.132-.562,.142-.795,.051-1.201-.524-2.573-1.538-3.67-1.011-1.104-2.329-1.792-3.53-1.842-.237-.011-.517,.005-.805,.076Z"/>
    <path d="M75.811,57.71c-.306,0-.608-.14-.805-.405-.329-.443-.235-1.069,.208-1.398l6.245-4.609-5.932-6.451-5.704,6.513c-.363,.417-.994,.46-1.411,.095-.415-.363-.458-.995-.095-1.411l6.441-7.352c.188-.214,.457-.338,.74-.341,.281,.014,.556,.114,.748,.323l7.44,8.091c.192,.209,.287,.49,.26,.772-.027,.283-.174,.541-.402,.709l-7.138,5.269c-.179,.133-.388,.196-.594,.196Z"/>
    <path d="M82.951,52.44c-.27,0-.54-.108-.737-.323-.374-.407-.347-1.039,.059-1.413l2.21-2.03c.408-.375,1.039-.348,1.413,.06,.373,.407,.347,1.039-.06,1.413l-2.21,2.03c-.192,.177-.435,.264-.676,.264Z"/>
    <path d="M75.51,44.35c-.271,0-.54-.109-.737-.323-.373-.407-.346-1.04,.061-1.413l2.21-2.029c.407-.375,1.04-.346,1.413,.06,.374,.407,.346,1.04-.06,1.413l-2.211,2.029c-.192,.177-.434,.264-.676,.264Z"/>
    <path d="M77.971,56.11c-.27,0-.539-.108-.736-.323l-6.54-7.11c-.374-.406-.348-1.039,.059-1.413,.406-.374,1.04-.348,1.413,.059l6.54,7.11c.374,.406,.348,1.039-.059,1.413-.192,.177-.435,.264-.676,.264Z"/>
  </g>
  <path d="M82,75h-4.01c-.552,0-1-.447-1-1s.448-1,1-1h2.991c-.535-14.107-12.347-25.485-26.981-25.983v2.483c0,.553-.448,1-1,1s-1-.447-1-1v-3.5c0-.553,.448-1,1-1,16.542,0,30,13.01,30,29,0,.553-.448,1-1,1Z"/>
  <path d="M103,83h-24c-.552,0-1-.447-1-1v-4c0-.553,.448-1,1-1h24c1.103,0,2,.897,2,2v2c0,1.103-.897,2-2,2Zm-23-2h23.001v-2h-23.001v2Z"/>
  <path d="M99,109h-20c-.552,0-1-.447-1-1v-26c0-.553,.448-1,1-1h20c.552,0,1,.447,1,1v26c0,.553-.448,1-1,1Zm-19-2h18v-24h-18v24Z"/>
  <path d="M79,109H27c-.552,0-1-.447-1-1v-30c0-.553,.448-1,1-1h52c.552,0,1,.447,1,1v30c0,.553-.448,1-1,1Zm-51-2h50v-28H28v28Z"/>
  <path d="M47,109h-8c-.277,0-.541-.114-.73-.316-.189-.202-.286-.474-.267-.75l2-30c.035-.525,.471-.934,.998-.934h4c.526,0,.963,.408,.998,.934l2,30c.019,.276-.078,.548-.267,.75-.189,.202-.454,.316-.73,.316Zm-6.931-2h5.862l-1.867-28h-2.129l-1.867,28Z"/>
  <path d="M66,109h-8c-.277,0-.541-.114-.73-.316-.189-.202-.286-.474-.267-.75l2-30c.035-.525,.471-.934,.998-.934h4c.526,0,.963,.408,.998,.934l2,30c.019,.276-.078,.548-.267,.75-.19,.202-.454,.316-.73,.316Zm-6.931-2h5.862l-1.867-28h-2.129l-1.867,28Z"/>
  <path d="M77.99,75c-.543,0-.989-.435-.999-.98-.248-12.969-11.01-23.52-23.99-23.52-7.52,0-14.459,3.426-19.036,9.398-.336,.439-.964,.521-1.402,.186-.439-.336-.521-.964-.185-1.402,4.959-6.471,12.476-10.182,20.624-10.182,14.061,0,25.721,11.431,25.99,25.48,.01,.553-.429,1.009-.981,1.02h-.02Z"/>
  <path d="M28.01,75h-.018c-.552-.01-.992-.466-.982-1.018,.061-3.447,.793-6.787,2.175-9.926,.223-.505,.815-.732,1.318-.512,.506,.223,.735,.812,.512,1.318-1.274,2.894-1.949,5.975-2.005,9.154-.01,.546-.456,.982-.999,.982Z"/>
  <path d="M37.01,75h-.01c-.552-.005-.996-.457-.99-1.01,.112-11.697,5.583-21.833,13.611-25.221,.509-.217,1.096,.023,1.31,.532,.215,.509-.024,1.096-.533,1.309-7.191,3.035-12.286,12.656-12.389,23.399-.005,.549-.452,.99-1,.99Z"/>
  <path d="M65.99,75c-.548,0-.994-.441-1-.99-.113-11.017-5.376-20.708-12.8-23.566-.516-.199-.772-.777-.574-1.293s.778-.77,1.293-.574c8.169,3.146,13.96,13.597,14.081,25.414,.005,.552-.438,1.004-.99,1.01h-.01Z"/>
  <g>
    <path d="M84.619,100c-.163,0-.328-.04-.48-.123-.484-.266-.662-.874-.395-1.358l4.94-9c.265-.483,.873-.659,1.357-.396,.484,.266,.662,.874,.396,1.358l-4.94,9c-.182,.331-.524,.519-.878,.519Z"/>
    <path d="M89.189,100c-.163,0-.328-.04-.48-.123-.484-.266-.662-.874-.396-1.358l2.81-5.12c.265-.484,.873-.66,1.358-.396,.484,.266,.662,.874,.396,1.358l-2.81,5.12c-.182,.331-.524,.519-.877,.519Z"/>
  </g>
  <path d="M95,103h-16c-.552,0-1-.447-1-1v-15c0-.553,.448-1,1-1h16c.552,0,1,.447,1,1v15c0,.553-.448,1-1,1Zm-15-2h14v-13h-14v13Z"/>
  <path d="M87,103c-.552,0-1-.447-1-1v-15c0-.553,.448-1,1-1s1,.447,1,1v15c0,.553-.448,1-1,1Z"/>
  <path d="M95,95.5h-16c-.552,0-1-.447-1-1s.448-1,1-1h16c.552,0,1,.447,1,1s-.448,1-1,1Z"/>
  <path d="M82,79H25c-1.103,0-2-.897-2-2v-2c0-1.103,.897-2,2-2h57c.552,0,1,.447,1,1v4c0,.553-.448,1-1,1Zm-57-4v2h56v-2H25Z"/>
  <path d="M77.081,68.79c-.074,0-.149-.008-.224-.025-15.834-3.623-31.875-3.666-47.679-.129-.537,.124-1.073-.219-1.194-.757-.121-.539,.219-1.074,.758-1.194,16.097-3.604,32.435-3.559,48.562,.131,.538,.123,.875,.659,.752,1.197-.106,.464-.518,.777-.974,.777Z"/>
  <path d="M72.49,59.84c-.061,0-.133-.006-.193-.017-12.777-2.375-25.733-2.416-38.511-.119-.542,.097-1.064-.264-1.161-.808-.098-.543,.264-1.064,.808-1.161,13.01-2.337,26.202-2.299,39.211,.118,.475,.078,.841,.49,.841,.986,0,.553-.442,1-.995,1Z"/>
  <path d="M107,113H21c-1.654,0-3-1.346-3-3s1.346-3,3-3H107c1.654,0,3,1.346,3,3s-1.346,3-3,3Zm-86-4c-.551,0-1,.448-1,1s.449,1,1,1H107c.551,0,1-.448,1-1s-.449-1-1-1H21Z"/>
  <path d="M35,88h-8c-.552,0-1-.447-1-1v-5c0-.553,.448-1,1-1h8c1.103,0,2,.897,2,2v3c0,1.103-.897,2-2,2Zm-7-2h7.002l-.002-3h-7v3Z"/>
  <path d="M32,101h-5c-.552,0-1-.447-1-1v-5c0-.553,.448-1,1-1h5c1.103,0,2,.897,2,2v3c0,1.103-.897,2-2,2Zm-4-2h4.002l-.002-3h-4v3Z"/>
  <path d="M79,93h-8c-1.103,0-2-.897-2-2v-3c0-1.103,.897-2,2-2h8c.552,0,1,.447,1,1v5c0,.553-.448,1-1,1Zm-8-5v3h7v-3h-7Z"/>
  <path d="M79,106h-5c-1.103,0-2-.897-2-2v-3c0-1.103,.897-2,2-2h5c.552,0,1,.447,1,1v5c0,.553-.448,1-1,1Zm-5-5v3h4v-3h-4Z"/>
  <path d="M100.52,68.234c-.35,0-.689-.184-.873-.51-.271-.481-.1-1.091,.381-1.361,.608-.343,1.258-.579,1.926-.709-.575-.781-.971-1.685-1.155-2.638-.464,.343-.976,.625-1.524,.834-.516,.196-1.094-.06-1.291-.576-.197-.516,.061-1.094,.577-1.291,1.189-.456,2.101-1.361,2.565-2.551,0,0,0-.001,0-.001h0c.201-.515,.778-.77,1.295-.568,.514,.201,.768,.78,.568,1.295-.902,2.311,.245,4.926,2.557,5.828h0c.515,.201,.768,.781,.568,1.295-.201,.515-.779,.77-1.295,.568,0-.001-.002-.001-.003-.001-1.256-.492-2.644-.396-3.807,.257-.155,.088-.323,.129-.489,.129Z"/>
  <path d="M54.828,30.368c-.302,0-.6-.136-.797-.395-1.253-1.646-1.342-3.933-.223-5.688,.717-1.126,1.826-1.907,3.124-2.199,1.299-.293,2.634-.062,3.755,.652,2.209,1.406,2.94,4.314,1.664,6.618-.267,.483-.876,.658-1.359,.391-.483-.268-.658-.876-.391-1.359,.765-1.382,.331-3.122-.988-3.962-.668-.426-1.465-.561-2.241-.39-.779,.176-1.445,.645-1.877,1.323-.671,1.053-.62,2.421,.128,3.403,.334,.439,.249,1.067-.19,1.401-.181,.138-.394,.204-.605,.204Z"/>
  <g>
    <path d="M16.534,79.777c-.328,0-.649-.161-.841-.457l-1.617-2.499c-.3-.464-.167-1.083,.297-1.383,.463-.3,1.083-.167,1.383,.297l1.617,2.499c.3,.464,.167,1.083-.297,1.383-.168,.108-.356,.16-.542,.16Z"/>
    <path d="M12.724,73.888c-.328,0-.649-.161-.84-.457l-1.612-2.49c-.3-.463-.167-1.082,.296-1.383,.465-.3,1.083-.167,1.383,.297l1.612,2.49c.3,.463,.168,1.082-.296,1.383-.168,.108-.356,.16-.542,.16Z"/>
    <path d="M9.627,78.297c-.328,0-.649-.161-.841-.457-.3-.464-.167-1.083,.297-1.383l2.499-1.616c.463-.3,1.082-.167,1.383,.297,.3,.464,.167,1.083-.297,1.383l-2.499,1.616c-.167,.108-.356,.16-.542,.16Z"/>
    <path d="M15.516,74.486c-.328,0-.649-.161-.841-.457-.3-.464-.167-1.083,.297-1.383l2.491-1.611c.463-.3,1.083-.167,1.383,.297,.3,.464,.167,1.083-.297,1.383l-2.491,1.611c-.168,.108-.356,.16-.542,.16Z"/>
  </g>
  <path d="M33.001,54c-.327,0-.647-.16-.839-.454l-3.88-5.95c-.301-.462-.171-1.082,.292-1.384,.464-.3,1.083-.171,1.384,.292l3.88,5.95c.301,.462,.171,1.082-.292,1.384-.169,.109-.358,.162-.545,.162Z"/>
  <path d="M25.461,42.43c-.327,0-.646-.159-.838-.453l-7.46-11.43c-.302-.463-.172-1.082,.291-1.385,.462-.3,1.081-.172,1.384,.291l7.46,11.43c.302,.463,.172,1.082-.291,1.385-.168,.109-.358,.162-.545,.162Z"/>
  <path d="M37,51c-.552,0-1-.447-1-1v-18c0-.553,.448-1,1-1s1,.447,1,1v18c0,.553-.448,1-1,1Z"/>
  <path d="M29.001,57c-.094,0-.189-.013-.283-.041l-17-5c-.53-.155-.833-.711-.677-1.241,.156-.529,.713-.833,1.242-.677l17,5c.53,.155,.833,.711,.677,1.241-.128,.436-.527,.718-.959,.718Z"/>
  <path d="M99.7,29.3c-.256,0-.512-.098-.707-.293-.391-.391-.391-1.023,0-1.414l9.3-9.3c.391-.391,1.023-.391,1.414,0,.391,.391,.391,1.023,0,1.414l-9.3,9.3c-.195,.195-.451,.293-.707,.293Z"/>
  <path d="M90,39c-.256,0-.512-.098-.707-.293-.391-.391-.391-1.023,0-1.414l5.88-5.88c.391-.391,1.023-.391,1.414,0s.391,1.023,0,1.414l-5.88,5.88c-.195,.195-.451,.293-.707,.293Z"/>
  <path d="M92.998,42c-.496,0-.928-.37-.991-.876-.068-.548,.32-1.048,.868-1.116l16-2c.539-.064,1.048,.32,1.116,.868,.068,.548-.32,1.048-.868,1.116l-16,2c-.042,.005-.084,.008-.126,.008Z"/>
  <path d="M86.001,36c-.021,0-.042-.001-.064-.002-.551-.034-.97-.509-.935-1.06l1-16c.035-.552,.503-.959,1.06-.935,.551,.034,.97,.509,.935,1.06l-1,16c-.033,.53-.473,.938-.997,.938Z"/>
</svg>