<?xml version="1.0" encoding="UTF-8"?>
<svg id="_09" data-name="09" xmlns="http://www.w3.org/2000/svg" viewBox="0 0 128 128">
  <path d="M48.92,120.88c-.381,0-.739-.219-.906-.578l-19.47-41.77c-.233-.501-.017-1.095,.483-1.329,.5-.234,1.095-.017,1.329,.484l19.116,41.01,57.729-15.394c.391-.104,.571-.383,.645-.541,.073-.158,.172-.478-.002-.848l-3.641-7.802c-.233-.501-.017-1.096,.483-1.329,.5-.234,1.095-.018,1.329,.483l3.64,7.8c.378,.806,.38,1.732,.004,2.54-.376,.806-1.084,1.4-1.942,1.629l-58.54,15.61c-.086,.023-.173,.034-.258,.034Z"/>
  <g>
    <path d="M45.501,78.03c-.376,0-.736-.213-.906-.576l-.73-1.56c-4.427-9.498-.302-20.825,9.193-25.251l1.811-.841c9.494-4.426,20.82-.301,25.247,9.195l.721,1.552c.232,.501,.015,1.095-.486,1.328-.5,.233-1.095,.014-1.328-.486l-.72-1.55c-3.96-8.495-14.096-12.184-22.59-8.225l-1.811,.841c-8.495,3.959-12.186,14.094-8.226,22.591l.729,1.558c.234,.501,.018,1.096-.481,1.33-.137,.064-.281,.094-.423,.094Z"/>
    <path d="M48.262,93.706c-3.943,0-6.529-1.059-7.49-3.136-1.229-2.637,.489-6.228,4.974-10.383,4.15-3.844,10.221-7.727,17.092-10.933,17.071-7.957,28.46-7.58,30.51-3.186,1.465,3.161-1.445,7.871-7.985,12.924-.437,.339-1.066,.256-1.402-.18-.338-.437-.258-1.065,.18-1.403,5.483-4.237,8.387-8.358,7.394-10.498-1.601-3.427-13.432-2.565-27.851,4.156-6.688,3.12-12.576,6.88-16.578,10.587-3.622,3.355-5.311,6.373-4.519,8.073,.987,2.137,6.015,2.56,12.812,1.086,.538-.12,1.072,.225,1.189,.765,.117,.54-.226,1.072-.766,1.189-2.89,.627-5.425,.939-7.561,.939Z"/>
    <path d="M41.685,91.152c-.377,0-.737-.213-.907-.578-1.749-3.75-.551-8.538,3.373-13.481,3.77-4.751,9.656-9.142,16.572-12.367,6.917-3.225,14.079-4.9,20.128-4.743,6.309,.173,10.746,2.334,12.494,6.084,.233,.5,.017,1.095-.483,1.329-.501,.233-1.096,.017-1.329-.484-1.411-3.028-5.225-4.779-10.736-4.93-5.785-.151-12.588,1.461-19.227,4.556-6.641,3.096-12.27,7.286-15.852,11.797-3.429,4.319-4.539,8.365-3.127,11.394,.233,.501,.017,1.095-.483,1.329-.137,.064-.28,.094-.422,.094Z"/>
    <path d="M55.266,117.92c-.189,0-.379-.054-.543-.16-.289-.187-.462-.509-.457-.854l.436-32.2c.008-.547,.454-.986,1-.986h.014c.552,.007,.994,.461,.986,1.014l-.414,30.606,46.055-21.471-23.709-19.361c-.428-.349-.491-.979-.142-1.407,.348-.428,.978-.494,1.407-.142l24.942,20.369c.267,.217,.402,.557,.359,.898s-.258,.637-.569,.782l-48.942,22.817c-.135,.063-.279,.094-.423,.094Z"/>
    <path d="M67.329,93.271c-5.171,0-10.064-2.828-12.323-7.674h0c-1.716-3.68,3.85-7.871,9.629-10.566,4.642-2.163,13.909-5.214,15.749-1.265,3.145,6.747,.012,14.889-6.984,18.151-1.972,.919-4.042,1.354-6.07,1.354Zm-10.511-8.519c2.68,5.747,9.739,8.147,15.735,5.352,5.997-2.796,8.696-9.747,6.018-15.494-.699-1.501-6.446-.865-13.091,2.233-5.783,2.696-9.507,6.096-8.662,7.908h0Z"/>
    <path d="M48.212,70.676c-.491,0-.919-.361-.989-.86-.817-5.806,2.109-11.554,7.282-14.304,.49-.259,1.093-.074,1.352,.414,.26,.488,.074,1.093-.413,1.352-4.434,2.356-6.942,7.282-6.241,12.258,.077,.547-.304,1.053-.851,1.13-.048,.007-.095,.01-.141,.01Z"/>
  </g>
  <path d="M20.189,59.247c-.377,0-.737-.213-.907-.578l-9.296-19.939c-.233-.501-.017-1.095,.483-1.329l11.65-5.432c.241-.112,.516-.123,.765-.033,.25,.09,.452,.276,.564,.517l9.296,19.94c.112,.24,.124,.515,.033,.765-.091,.249-.276,.452-.517,.564l-11.65,5.431c-.137,.064-.28,.094-.422,.094Zm-7.968-20.456l8.45,18.126,9.838-4.586-8.45-18.127-9.838,4.586Z"/>
  <path d="M26.051,71.83c-.377,0-.737-.213-.907-.578L9.983,38.732c-.233-.501-.017-1.095,.483-1.329l18.96-8.84c.501-.235,1.096-.017,1.329,.484,.233,.5,.017,1.095-.483,1.329l-18.054,8.417,14.737,31.614c.233,.501,.017,1.095-.483,1.329-.137,.064-.28,.094-.422,.094Z"/>
  <path d="M48.92,120.88c-.115,0-.231-.02-.342-.061-.25-.09-.452-.276-.564-.517l-19.47-41.77c-.233-.501-.017-1.095,.483-1.329,.5-.234,1.095-.017,1.329,.484l19.047,40.863,59.824-27.887c.497-.233,.712-.83,.478-1.328L73.374,11.382c-.234-.497-.832-.709-1.328-.477L36.083,27.676c-.501,.234-1.096,.017-1.329-.483-.233-.501-.017-1.096,.483-1.329L71.197,9.094c1.495-.701,3.283-.057,3.987,1.44l36.332,77.954c.702,1.494,.056,3.284-1.441,3.987l-60.732,28.311c-.134,.062-.278,.094-.423,.094Z"/>
  <g>
    <path d="M46.548,41.306c-.115,0-.231-.02-.342-.061-.25-.09-.452-.276-.564-.517l-5.07-10.876c-.233-.5-.017-1.095,.483-1.329,.501-.234,1.096-.017,1.329,.484l4.647,9.969,4.531-2.112c.5-.235,1.095-.017,1.329,.484,.233,.501,.017,1.095-.483,1.329l-5.437,2.535c-.134,.062-.278,.094-.423,.094Z"/>
    <path d="M55.612,37.081c-.377,0-.737-.213-.907-.578l-5.07-10.876c-.233-.5-.017-1.095,.483-1.329,.5-.234,1.095-.017,1.329,.484l5.07,10.876c.233,.501,.017,1.095-.483,1.329-.137,.064-.28,.094-.422,.094Z"/>
    <g>
      <path d="M60.144,34.968c-.377,0-.737-.213-.907-.578l-5.07-10.876c-.112-.24-.124-.515-.033-.765,.091-.249,.276-.452,.517-.564l5.438-2.535c.501-.233,1.095-.017,1.329,.484,.233,.501,.017,1.095-.483,1.329l-4.532,2.113,4.225,9.063,4.532-2.113c.502-.234,1.096-.017,1.329,.484,.233,.501,.017,1.095-.483,1.329l-5.438,2.535c-.137,.064-.28,.094-.422,.094Z"/>
      <path d="M57.608,29.53c-.377,0-.737-.213-.907-.578-.233-.5-.017-1.095,.483-1.329l4.532-2.113c.501-.234,1.096-.017,1.329,.484,.233,.501,.017,1.095-.483,1.329l-4.532,2.113c-.137,.064-.28,.094-.422,.094Z"/>
    </g>
    <g>
      <path d="M33.857,47.222c-.534,0-.977-.422-.998-.961l-.505-12.806c-.016-.403,.211-.775,.576-.946,.366-.17,.796-.105,1.096,.166l9.484,8.621c.408,.371,.438,1.004,.067,1.413-.371,.409-1.005,.439-1.413,.067l-7.718-7.015,.41,10.421c.021,.552-.408,1.017-.96,1.039-.013,0-.026,.001-.04,.001Z"/>
      <path d="M33.56,41.845c-.377,0-.737-.213-.907-.578-.233-.501-.017-1.095,.483-1.329l5.438-2.535c.502-.234,1.096-.017,1.329,.484,.233,.501,.017,1.095-.483,1.329l-5.438,2.535c-.137,.064-.28,.094-.422,.094Z"/>
      <path d="M33.56,41.845c-.377,0-.737-.213-.907-.578-.233-.501-.017-1.095,.483-1.329l5.438-2.535c.502-.234,1.096-.017,1.329,.484,.233,.501,.017,1.095-.483,1.329l-5.438,2.535c-.137,.064-.28,.094-.422,.094Z"/>
    </g>
    <path d="M69.207,30.743c-.377,0-.737-.213-.907-.578l-5.07-10.876c-.196-.42-.077-.92,.287-1.208,.364-.287,.877-.287,1.241,.002l7.19,5.708-3.28-7.037c-.233-.501-.017-1.095,.483-1.329,.501-.235,1.096-.017,1.329,.484l5.07,10.876c.196,.421,.077,.92-.287,1.208-.364,.287-.877,.286-1.241-.002l-7.19-5.708,3.28,7.037c.233,.5,.017,1.095-.483,1.329-.137,.064-.28,.094-.422,.094Z"/>
  </g>
  <path d="M20.191,59.25c-.377,0-.737-.213-.907-.577l-9.301-19.94c-.112-.241-.124-.516-.033-.765,.091-.25,.276-.453,.517-.565l18.96-8.84c.501-.235,1.096-.017,1.329,.484,.233,.5,.017,1.095-.483,1.329l-18.054,8.417,8.455,18.128,60.728-28.315-8.027-17.224c-.234-.497-.832-.709-1.328-.477L36.083,27.676c-.501,.234-1.096,.017-1.329-.483-.233-.501-.017-1.096,.483-1.329L71.197,9.094c1.495-.701,3.283-.057,3.987,1.44l8.452,18.133c.233,.501,.017,1.095-.483,1.329L20.613,59.156c-.137,.064-.28,.094-.422,.094Z"/>
  <path d="M108.997,56.085c-.276,0-.552-.114-.749-.337-.366-.413-.327-1.045,.086-1.412,.521-.461,1.105-.828,1.728-1.095-.356-.316-.682-.674-.968-1.07-.288-.398-.526-.822-.715-1.264-.381,.431-.82,.814-1.311,1.132-.461,.303-1.081,.171-1.384-.291-.302-.463-.171-1.082,.292-1.384,1.067-.696,1.767-1.774,1.971-3.036,.088-.545,.603-.917,1.146-.828,.546,.088,.916,.601,.828,1.146h0c-.395,2.45,1.276,4.764,3.725,5.159h0c.546,.088,.916,.602,.828,1.146s-.604,.917-1.146,.828c0,0-.002,0-.002,0-1.332-.214-2.671,.169-3.668,1.053-.19,.168-.427,.251-.663,.251Z"/>
  <path d="M26.744,21.934c-.021,0-.043,0-.065-.002-2.064-.133-3.851-1.563-4.444-3.56-.38-1.279-.243-2.629,.387-3.801,.63-1.174,1.68-2.03,2.954-2.409,2.51-.746,5.185,.607,6.09,3.081,.189,.519-.077,1.093-.596,1.283-.517,.19-1.094-.077-1.283-.595-.543-1.484-2.142-2.297-3.641-1.851-.76,.226-1.386,.737-1.763,1.438-.378,.703-.46,1.515-.23,2.284,.355,1.197,1.423,2.055,2.655,2.134,.551,.036,.969,.511,.934,1.062-.034,.529-.475,.936-.997,.936Z"/>
  <g>
    <path d="M26.777,114.777c-.328,0-.649-.161-.841-.457l-1.617-2.498c-.3-.464-.167-1.083,.297-1.383,.464-.301,1.082-.167,1.383,.296l1.617,2.498c.3,.464,.167,1.083-.297,1.383-.168,.109-.355,.161-.542,.161Z"/>
    <path d="M22.967,108.888c-.328,0-.649-.161-.841-.457l-1.611-2.491c-.3-.463-.167-1.082,.297-1.383,.464-.299,1.082-.167,1.383,.297l1.611,2.491c.3,.463,.167,1.083-.297,1.383-.168,.108-.355,.16-.542,.16Z"/>
    <path d="M19.869,113.297c-.328,0-.649-.161-.841-.457-.3-.463-.167-1.083,.297-1.383l2.499-1.617c.464-.3,1.083-.167,1.383,.297,.3,.463,.167,1.083-.297,1.383l-2.499,1.617c-.168,.108-.355,.16-.542,.16Z"/>
    <path d="M25.759,109.486c-.328,0-.649-.161-.841-.457-.3-.463-.167-1.083,.297-1.383l2.491-1.611c.465-.301,1.083-.167,1.383,.297,.3,.463,.167,1.083-.297,1.383l-2.491,1.611c-.168,.108-.356,.16-.542,.16Z"/>
  </g>
  <path d="M88.001,27c-.041,0-.083-.002-.125-.008-.548-.068-.937-.568-.868-1.116l2-16c.068-.547,.564-.936,1.116-.868,.548,.068,.936,.568,.868,1.116l-2,16c-.063,.506-.494,.876-.991,.876Z"/>
  <path d="M102.91,20.79c-.281,0-.562-.119-.76-.349-.359-.419-.311-1.051,.109-1.41l9.09-7.79c.419-.358,1.05-.31,1.41,.108,.359,.419,.31,1.051-.109,1.41l-9.09,7.79c-.188,.162-.42,.241-.65,.241Z"/>
  <path d="M91,31c-.281,0-.562-.119-.76-.35-.359-.419-.31-1.05,.109-1.41l7.33-6.28c.419-.358,1.05-.31,1.41,.109,.359,.419,.311,1.05-.109,1.41l-7.33,6.28c-.188,.162-.42,.241-.65,.241Z"/>
  <path d="M111,35h-18c-.553,0-1-.448-1-1s.447-1,1-1h18c.553,0,1,.448,1,1s-.447,1-1,1Z"/>
  <path d="M10,94c-.281,0-.561-.118-.759-.349-.359-.419-.311-1.05,.107-1.41l5.16-4.43c.418-.359,1.05-.312,1.41,.108,.359,.419,.312,1.05-.107,1.41l-5.16,4.43c-.188,.162-.42,.241-.651,.241Z"/>
  <path d="M19.19,86.13c-.281,0-.56-.118-.759-.349-.359-.419-.311-1.05,.107-1.41l4.809-4.13c.418-.358,1.049-.312,1.41,.107,.359,.419,.311,1.05-.107,1.41l-4.81,4.13c-.188,.162-.42,.241-.651,.241Z"/>
  <path d="M24.001,96c-.066,0-.131-.006-.197-.02-.541-.108-.893-.635-.784-1.177l2-10c.108-.542,.636-.894,1.177-.784,.541,.108,.893,.635,.784,1.177l-2,10c-.095,.475-.513,.804-.979,.804Z"/>
  <path d="M9.999,79c-.515,0-.952-.395-.995-.917-.046-.55,.362-1.034,.913-1.08l12-1c.56-.046,1.033,.364,1.079,.914,.046,.55-.362,1.034-.913,1.08l-12,1c-.028,.002-.057,.003-.084,.003Z"/>
</svg>