<?xml version="1.0" encoding="UTF-8"?>
<svg id="_19" data-name="19" xmlns="http://www.w3.org/2000/svg" viewBox="0 0 128 128">
  <defs>
    <style>
      .cls-1 {
        opacity: .4;
      }
    </style>
  </defs>
  <g>
    <path d="M42.5,37c-1.698,0-2.963-2.158-3.383-5.774-.063-.549,.329-1.045,.878-1.108,.556-.064,1.046,.33,1.108,.878,.326,2.803,1.162,3.933,1.413,4.007,.384-.124,1.483-2.157,1.483-6.002s-1.1-5.878-1.518-6.002c-.182,.066-.894,.963-1.265,3.271-.088,.546-.603,.919-1.145,.829-.545-.087-.917-.601-.829-1.146,.505-3.147,1.691-4.952,3.257-4.952,2.404,0,3.5,4.146,3.5,8s-1.096,8-3.5,8Z"/>
    <path d="M50.287,37.975c-.237,0-.477-.027-.715-.084-.943-.225-1.718-.861-2.18-1.793-.432-.87-.537-1.903-.297-2.91,.513-2.145,2.458-3.52,4.332-3.078,.943,.225,1.718,.861,2.18,1.793,.432,.87,.537,1.903,.297,2.91-.447,1.872-1.985,3.162-3.617,3.162Zm.423-5.949c-.716,0-1.444,.685-1.669,1.627-.13,.544-.078,1.111,.143,1.557,.194,.39,.496,.651,.852,.736,.778,.184,1.672-.542,1.923-1.598,.13-.544,.078-1.111-.143-1.557-.194-.39-.496-.651-.852-.736-.083-.019-.168-.029-.254-.029Z"/>
    <path d="M35.713,38.975c-1.633,0-3.17-1.29-3.617-3.162-.24-1.007-.135-2.04,.297-2.91,.462-.932,1.236-1.568,2.179-1.793,1.883-.448,3.82,.934,4.333,3.078,.24,1.007,.135,2.04-.297,2.91-.462,.932-1.236,1.568-2.179,1.793-.239,.057-.478,.084-.716,.084Zm-.424-5.949c-.085,0-.17,.01-.254,.029-.355,.085-.657,.347-.852,.736-.221,.445-.272,1.013-.143,1.557,.251,1.055,1.134,1.782,1.924,1.598,.355-.085,.657-.347,.852-.736,.221-.445,.272-1.013,.143-1.557-.225-.942-.953-1.627-1.67-1.627Z"/>
    <path d="M52.655,79.608c-.32,0-.637-.031-.946-.097-1.386-.294-3.709-1.53-3.709-6.512-.364-5.106-1.875-9.685-4.751-14.334-.29-.47-.146-1.086,.324-1.377,.47-.291,1.086-.145,1.377,.324,3.053,4.936,4.656,9.803,5.047,15.316,.003,1.943,.371,4.253,2.126,4.625,1.949,.418,4.895-1.55,5.963-3.96,.02-.044,.042-.087,.068-.128,1.445-2.295-.177-5.565-4.821-9.722-.039-.035-.076-.073-.109-.114-4.385-5.398-6.283-9.284-5.214-16.773,.006-.041,.015-.081,.025-.121,.698-2.56,.126-4.52-1.654-5.672-2.151-1.393-5.605-1.225-7.54,.367-1.472,1.211-1.787,3.008-.912,5.196,.642,1.928,2.072,3.89,3.728,6.162,.326,.446,.228,1.071-.219,1.396s-1.072,.227-1.396-.219c-1.756-2.407-3.272-4.486-3.991-6.654-1.175-2.932-.629-5.659,1.519-7.427,2.591-2.131,7.03-2.356,9.897-.502,2.494,1.614,3.408,4.46,2.514,7.816-.948,6.726,.699,10.115,4.745,15.107,5.475,4.916,7.163,8.896,5.158,12.163-1.202,2.635-4.361,5.136-7.229,5.137Z"/>
  </g>
  <g class="cls-1">
    <path d="M79.04,54.58c-.1,.3-.2,.59-.32,.84,.07-.3,.18-.58,.32-.84Z"/>
  </g>
  <g>
    <path d="M66.995,100.608c-2.868,0-6.027-2.502-7.229-5.137-2.001-3.261-.313-7.241,5.158-12.163,3.506-4.315,5.237-7.472,4.978-12.669-.027-.552,.397-1.021,.949-1.049,.532-.046,1.02,.398,1.049,.949,.291,5.837-1.699,9.455-5.474,14.092-.033,.04-.069,.078-.108,.113-4.642,4.16-6.264,7.432-4.821,9.722,.026,.041,.049,.084,.068,.128,1.068,2.408,4.014,4.37,5.963,3.96,1.755-.372,2.123-2.682,2.123-4.555,.682-9.636,5.033-15.636,8.21-20.017,.322-.447,.95-.549,1.396-.223,.447,.324,.547,.949,.223,1.396-3.036,4.186-7.193,9.918-7.832,18.913,.003,4.911-2.32,6.148-3.706,6.441-.31,.065-.626,.097-.946,.097Z"/>
    <path d="M82.5,76c-4.941,0-9.586-1.926-13.078-5.423-3.496-3.491-5.422-8.136-5.422-13.077s1.926-9.586,5.423-13.078c.276-.284,.599-.582,.975-.898,.425-.356,1.055-.3,1.408,.123,.355,.423,.3,1.054-.123,1.408-.283,.238-.568,.495-.834,.77-3.131,3.127-4.849,7.269-4.849,11.675s1.718,8.548,4.837,11.662c3.115,3.12,7.257,4.838,11.663,4.838s8.548-1.718,11.662-4.837c3.12-3.115,4.838-7.257,4.838-11.663s-1.718-8.548-4.837-11.662c-4.437-4.446-10.895-5.98-16.848-3.999-.524,.172-1.09-.11-1.265-.634-.174-.524,.11-1.091,.634-1.265,6.679-2.219,13.919-.502,18.893,4.483,3.496,3.49,5.422,8.135,5.422,13.076s-1.926,9.586-5.423,13.078c-3.491,3.496-8.136,5.422-13.077,5.422Z"/>
  </g>
  <g>
    <path d="M94.991,75c-.287,0-.571-.122-.769-.359l-2.05-2.46c-.353-.425-.296-1.056,.128-1.409,.426-.353,1.055-.296,1.409,.128l2.05,2.46c.353,.425,.296,1.056-.128,1.409-.187,.155-.414,.231-.64,.231Z"/>
    <path d="M98.999,70.99c-.226,0-.452-.076-.64-.231l-2.46-2.05c-.424-.354-.481-.984-.128-1.409,.355-.424,.982-.481,1.409-.128l2.46,2.05c.424,.353,.481,.984,.128,1.409-.198,.237-.482,.359-.77,.359Z"/>
    <path d="M113.951,94.97c-.093,0-.187-.002-.279-.006-1.685-.079-3.267-.868-4.342-2.166l-12.539-15.068c-.354-.424-.296-1.055,.129-1.408,.424-.352,1.055-.297,1.408,.129l12.54,15.07c.728,.879,1.757,1.392,2.897,1.445,1.135,.053,2.218-.363,3.027-1.173,.809-.81,1.226-1.885,1.173-3.027-.054-1.141-.566-2.169-1.443-2.897l-15.072-12.541c-.425-.354-.482-.984-.129-1.408,.353-.425,.984-.482,1.408-.129l15.07,12.54c1.296,1.074,2.085,2.656,2.164,4.341,.078,1.688-.562,3.34-1.757,4.535-1.129,1.129-2.667,1.763-4.256,1.763Z"/>
    <path d="M95.227,79.591c-.767,0-1.536-.293-2.121-.878-1.17-1.17-1.17-3.072,0-4.242l6.364-6.364c1.17-1.17,3.072-1.17,4.242,0,1.17,1.17,1.17,3.073,0,4.243l-6.363,6.363c-.585,.585-1.353,.878-2.122,.878Zm6.364-10.362c-.256,0-.512,.097-.707,.292l-6.364,6.364c-.39,.39-.39,1.024,0,1.414,.391,.391,1.024,.392,1.415,0l6.363-6.363c.39-.391,.39-1.024,0-1.415-.195-.195-.451-.292-.707-.292Z"/>
    <path d="M102.693,84.263c-.256,0-.511-.097-.705-.291-.391-.391-.395-1.019-.005-1.409l5.569-5.569c.39-.39,1.027-.397,1.419-.005s.395,1.018,.005,1.409l-5.569,5.569c-.196,.196-.455,.296-.714,.296Z"/>
    <path d="M82.5,76c-4.941,0-9.586-1.926-13.078-5.423-3.496-3.491-5.422-8.136-5.422-13.077s1.926-9.586,5.423-13.078c.276-.284,.599-.582,.975-.898,.425-.356,1.055-.3,1.408,.123,.355,.423,.3,1.054-.123,1.408-.283,.238-.568,.495-.834,.77-3.131,3.127-4.849,7.269-4.849,11.675s1.718,8.548,4.837,11.662c3.115,3.12,7.257,4.838,11.663,4.838s8.548-1.718,11.662-4.837c3.12-3.115,4.838-7.257,4.838-11.663s-1.718-8.548-4.837-11.662c-4.437-4.446-10.895-5.98-16.848-3.999-.524,.172-1.09-.11-1.265-.634-.174-.524,.11-1.091,.634-1.265,6.679-2.219,13.919-.502,18.893,4.483,3.496,3.49,5.422,8.135,5.422,13.076s-1.926,9.586-5.423,13.078c-3.491,3.496-8.136,5.422-13.077,5.422Z"/>
    <g>
      <path d="M78.58,52.59c-1.941,0-3.438-2.35-4.107-6.448-.064-.4,.117-.8,.463-1.013,2.076-1.28,4.478-2.009,6.944-2.108,.279-.023,.561,.1,.76,.305,.198,.205,.299,.485,.277,.77-.299,3.918-1.613,8.494-4.337,8.494Zm-2.011-6.096c.579,2.884,1.571,4.096,2.011,4.096,.598,0,1.761-1.828,2.224-5.471-1.487,.2-2.926,.666-4.234,1.375Z"/>
      <path d="M70.349,52.6c-.183,0-.368-.05-.533-.154-.439-.278-.593-.847-.352-1.309l.097-.186c.115-.224,.232-.448,.355-.661,.261-.451,.821-.627,1.295-.402,.471,.225,.69,.771,.505,1.259-.157,.414-.343,.76-.567,1.057-.195,.259-.494,.397-.799,.397Z"/>
      <path d="M87.884,55.297c-.298,0-.598-.034-.895-.106-1.186-.282-2.159-1.086-2.743-2.262-.553-1.115-.687-2.443-.378-3.739,.654-2.741,3.121-4.511,5.493-3.945,2.374,.566,3.773,3.259,3.119,6.001-.571,2.396-2.526,4.051-4.596,4.051Zm.567-8.159c-1.158,0-2.285,1.037-2.639,2.518-.201,.842-.121,1.688,.225,2.385,.315,.636,.817,1.064,1.415,1.206,1.297,.312,2.685-.795,3.082-2.464h0c.398-1.67-.337-3.281-1.639-3.592-.147-.035-.297-.053-.444-.053Z"/>
      <path d="M82.496,72.001c-3.834,0-7.502-1.502-10.252-4.243-1.73-1.74-2.997-3.88-3.665-6.19-.053-.184-.052-.378,.002-.561,.892-3.009,3.419-5.153,6.93-5.882,4.089-.848,8.368,.408,10.649,3.13,1.916,2.286,2.235,5.397,.899,8.761-.46,1.362-1.168,2.774-2.225,4.441-.163,.256-.434,.425-.736,.458-.536,.059-1.071,.087-1.602,.087Zm1.494-1.081h0Zm-13.402-9.62c.599,1.9,1.631,3.596,3.071,5.045,2.585,2.576,6.101,3.885,9.746,3.624,.832-1.355,1.396-2.515,1.767-3.617,.006-.018,.013-.035,.019-.053,1.077-2.697,.883-5.034-.564-6.76-1.793-2.14-5.375-3.148-8.709-2.457-2.655,.552-4.581,2.081-5.33,4.218Z"/>
    </g>
    <path d="M82.497,72.001c-3.836,0-7.503-1.502-10.253-4.243-1.73-1.74-2.997-3.88-3.665-6.19-.999-3.441-.703-7.103,.835-10.318,.014-.039,.03-.076,.049-.112l.097-.186c.109-.212,.221-.427,.337-.63,.012-.024,.024-.049,.038-.072,.626-1.079,1.401-2.089,2.305-3.001,.813-.815,1.722-1.527,2.702-2.122,2.07-1.276,4.472-2.005,6.938-2.105,4.025-.191,7.995,1.351,10.876,4.222,5.646,5.657,5.646,14.858,.002,20.514,0,0-.002,.002-.002,.003-2.324,2.314-5.397,3.789-8.654,4.155-.536,.059-1.072,.087-1.604,.087Zm-11.22-20.019c-.009,.021-.017,.043-.028,.065-1.353,2.788-1.618,5.971-.749,8.964,.584,2.019,1.646,3.812,3.159,5.334,2.698,2.689,6.426,4,10.223,3.581,2.805-.315,5.455-1.588,7.46-3.583,4.867-4.876,4.867-12.81,0-17.687-2.481-2.473-5.904-3.795-9.375-3.638-2.131,.086-4.197,.713-5.982,1.813-.85,.515-1.63,1.127-2.326,1.825-.769,.776-1.433,1.636-1.969,2.552-.013,.026-.026,.052-.041,.076-.11,.191-.211,.388-.311,.582l-.06,.115Zm20.772,15.067h0Z"/>
  </g>
  <path d="M89.487,105.417c-.441,0-.845-.294-.965-.74-.351-1.306-1.248-2.369-2.464-2.919-.503-.227-.727-.819-.499-1.323,.227-.503,.818-.728,1.323-.499,.634,.286,1.207,.669,1.706,1.128,.142-.455,.336-.898,.58-1.321,.246-.426,.534-.816,.859-1.17-.549-.171-1.077-.415-1.569-.73-.464-.299-.599-.918-.301-1.382,.3-.466,.918-.601,1.382-.302,1.072,.689,2.342,.885,3.576,.556h0c.534-.144,1.081,.173,1.225,.707,.144,.533-.174,1.082-.707,1.225h0c-1.161,.311-2.132,1.056-2.732,2.097-.6,1.039-.759,2.25-.448,3.41,0,.004,0,.006,0,.006,.144,.533-.173,1.081-.707,1.225-.086,.024-.174,.034-.26,.034Z"/>
  <path d="M67.878,23.689c-.248,0-.496-.092-.689-.275-.4-.381-.416-1.015-.035-1.414,1.09-1.144,1.109-2.938,.045-4.084-.539-.582-1.273-.916-2.069-.943-.801-.023-1.561,.26-2.149,.806-.916,.85-1.212,2.187-.736,3.326,.213,.51-.028,1.095-.538,1.308-.508,.214-1.094-.028-1.308-.538-.797-1.909-.306-4.144,1.221-5.561,.977-.907,2.261-1.379,3.578-1.339,1.332,.045,2.564,.606,3.469,1.582,1.781,1.919,1.754,4.916-.063,6.823-.197,.206-.461,.311-.725,.311Z"/>
  <g>
    <path d="M29.979,66.89c-.328,0-.649-.161-.841-.457l-1.617-2.499c-.3-.463-.167-1.082,.297-1.383,.464-.299,1.083-.167,1.383,.297l1.617,2.499c.3,.463,.167,1.082-.297,1.383-.168,.108-.355,.16-.542,.16Z"/>
    <path d="M26.169,61c-.328,0-.649-.161-.841-.457l-1.611-2.491c-.3-.464-.167-1.083,.297-1.383,.464-.301,1.083-.167,1.383,.297l1.611,2.491c.3,.464,.167,1.083-.297,1.383-.168,.108-.356,.16-.542,.16Z"/>
    <path d="M23.071,65.409c-.328,0-.649-.161-.841-.457-.3-.463-.167-1.082,.297-1.383l2.499-1.617c.463-.3,1.082-.167,1.383,.297,.3,.463,.167,1.082-.297,1.383l-2.499,1.617c-.168,.108-.355,.16-.542,.16Z"/>
    <path d="M28.961,61.599c-.328,0-.649-.161-.841-.457-.3-.464-.167-1.083,.297-1.383l2.491-1.611c.464-.302,1.083-.166,1.383,.297,.3,.464,.167,1.083-.297,1.383l-2.491,1.611c-.168,.108-.356,.16-.542,.16Z"/>
  </g>
  <path d="M98.92,24c-.131,0-.263-.025-.39-.079-.509-.215-.746-.802-.531-1.311l5.08-12c.216-.511,.806-.744,1.31-.531,.509,.215,.746,.802,.531,1.311l-5.08,12c-.161,.382-.532,.61-.921,.61Z"/>
  <path d="M93,38c-.13,0-.263-.025-.39-.079-.509-.215-.746-.802-.531-1.311l3.48-8.23c.215-.508,.804-.747,1.31-.531,.509,.215,.746,.802,.531,1.311l-3.48,8.23c-.161,.381-.531,.61-.921,.61Z"/>
  <path d="M96.001,41c-.318,0-.631-.151-.825-.434-.312-.455-.197-1.077,.258-1.391l16-11c.455-.312,1.077-.197,1.391,.258,.312,.455,.197,1.077-.258,1.391l-16,11c-.173,.119-.37,.176-.565,.176Z"/>
  <path d="M87.999,36c-.448,0-.855-.303-.969-.758l-4-16c-.135-.535,.191-1.078,.727-1.212,.532-.137,1.078,.191,1.212,.727l4,16c.135,.535-.191,1.078-.727,1.212-.081,.021-.163,.03-.243,.03Z"/>
  <path d="M28.001,32c-.301,0-.599-.135-.795-.393l-3.65-4.769c-.336-.439-.252-1.065,.186-1.401,.437-.335,1.067-.252,1.401,.186l3.65,4.77c.336,.439,.252,1.065-.186,1.401-.181,.139-.394,.206-.606,.206Z"/>
  <path d="M21.901,24.02c-.301,0-.599-.135-.795-.392l-6.9-9.02c-.336-.439-.252-1.066,.186-1.401,.437-.335,1.067-.253,1.401,.186l6.9,9.019c.336,.439,.252,1.066-.186,1.401-.181,.139-.394,.206-.606,.206Z"/>
  <path d="M32,29c-.553,0-1-.447-1-1v-12c0-.553,.447-1,1-1s1,.447,1,1v12c0,.553-.447,1-1,1Z"/>
  <path d="M25,36c-.105,0-.211-.017-.316-.052l-12-4c-.523-.174-.807-.74-.632-1.265,.175-.523,.735-.808,1.265-.632l12,4c.523,.174,.807,.74,.632,1.265-.14,.419-.529,.684-.948,.684Z"/>
</svg>