<svg height="512pt" viewBox="-1 0 512 512.00045" width="512pt" xmlns="http://www.w3.org/2000/svg"><path d="m503.179688 459.789062v.082032c0 .664062-.019532 1.320312-.050782 1.972656-1.078125 23.710938-20.628906 42.605469-44.597656 42.605469h-174.160156c-6.171875 0-11.75-2.496094-15.785156-6.542969-4.046876-4.039062-6.542969-9.625-6.542969-15.785156 0-12.332032 9.996093-22.332032 22.328125-22.332032h97.714844c2.085937 0 3.847656-1.488281 4.21875-3.53125 2.769531-15.113281 15.988281-26.558593 31.894531-26.558593 4.441406 0 8.667969.886719 12.511719 2.507812 1.601562.664063 3.425781.261719 4.664062-.949219 7.1875-7.035156 17.035156-11.375 27.894531-11.375 22.039063 0 39.910157 17.871094 39.910157 39.90625zm0 0" fill="#20b7a1"/><path d="m365.265625 459.789062c.007813.523438.007813 1.066407 0 1.601563-.464844 23.859375-19.945313 43.058594-43.917969 43.058594h-36.976562c-6.171875 0-11.75-2.496094-15.785156-6.542969-4.046876-4.039062-6.542969-9.625-6.542969-15.785156 0-12.332032 9.996093-22.332032 22.328125-22.332032zm0 0" fill="#199a8e"/><path d="m268.273438 504.445312h-25.921876c-5.121093 0-9.269531-4.152343-9.269531-9.269531v-305.488281h44.464844v305.488281c0 5.117188-4.152344 9.269531-9.273437 9.269531zm0 0" fill="#c97e67"/><path d="m264.589844 504.449219h-22.242188c-5.113281 0-9.269531-4.15625-9.269531-9.273438v-305.488281h22.238281v305.488281c0 5.117188 4.148438 9.273438 9.273438 9.273438zm0 0" fill="#c0694e"/><path d="m272.894531 159.644531c6.15625 3.703125 11.554688 8.183594 16.175781 13.226563 25.480469-16.550782 59.203126-18.238282 86.984376-1.515625 3.28125 1.972656 6.351562 4.152343 9.25 6.484375 1.289062-6.996094 4.046874-13.863282 8.410156-20.15625 14.617187-21.0625 42.953125-28.226563 65.800781-16.589844 27.035156 13.761719 36.3125 47.253906 20.945313 72.792969-2.128907 3.539062-4.621094 6.71875-7.390626 9.542969-.835937.851562-.953124 2.1875-.261718 3.15625 11.5625 16.257812 13.128906 38.46875 2.183594 56.652343-14.722657 24.46875-46.496094 32.367188-70.964844 17.640625-2.199219-1.324218-4.257813-2.789062-6.183594-4.371094-1.035156-.851562-2.539062-.71875-3.441406.273438-25.773438 28.375-68.796875 35.574219-102.890625 15.058594-10.304688-6.199219-18.734375-14.320313-25.152344-23.613282-21.6875 10.195313-47.980469 9.539063-69.902344-4.203124-32.949219-20.65625-43.898437-64.171876-24.636719-97.953126 20.371094-35.730468 66.03125-47.515624 101.074219-26.425781zm0 0" fill="#20b7a1"/><path d="m474.988281 283.234375c-14.71875 24.476563-46.492187 32.367187-70.953125 17.648437-2.207031-1.328124-4.269531-2.789062-6.191406-4.378906-1.039062-.84375-2.539062-.714844-3.433594.28125-25.785156 28.371094-68.800781 35.570313-102.902344 15.050782-10.296874-6.199219-18.722656-14.3125-25.148437-23.605469-21.683594 10.1875-47.980469 9.53125-69.90625-4.210938-22.503906-14.101562-34.746094-38.878906-34.101563-63.925781 6.113282 10.480469 14.75 19.648438 25.644532 26.484375 23.363281 14.648437 51.382812 15.34375 74.5 4.480469 6.84375 9.90625 15.824218 18.554687 26.808594 25.171875 36.332031 21.863281 82.191406 14.183593 109.65625-16.058594.964843-1.058594 2.566406-1.199219 3.664062-.292969 2.054688 1.691406 4.246094 3.25 6.59375 4.660156 24.574219 14.789063 56.074219 8.164063 72.746094-14.476562 1.441406 11.136719-.734375 22.804688-6.976563 33.171875zm0 0" fill="#199a8e"/><path d="m301.667969 290.222656c-1.582031 33.617188-28.8125 60.878906-62.429688 62.480469-23.375 1.117187-44.238281-10-56.730469-27.496094-.675781-.945312-1.894531-1.296875-2.96875-.84375-8.78125 3.683594-18.414062 5.738281-28.53125 5.738281-35.78125 0-65.601562-25.472656-72.355468-59.269531-.242188-1.246093-1.441406-2.074219-2.699219-1.890625-2.175781.308594-4.390625.472656-6.644531.472656-25.710938 0-46.550782-20.839843-46.550782-46.542968 0-19.058594 11.453126-35.429688 27.84375-42.625 1.058594-.464844 1.632813-1.621094 1.371094-2.738282-.804687-3.433593-1.238281-7-1.238281-10.671874 0-18.746094 11.082031-34.90625 27.050781-42.285157 6.875-3.171875 14.667969-4.722656 22.863282-4.148437 22.589843 1.589844 40.976562 19.613281 42.988281 42.171875.65625 7.300781-.390625 14.289062-2.769531 20.628906 3.3125-.460937 6.695312-.714844 10.140624-.714844 29.195313 0 54.421876 16.957031 66.394532 41.550781 5.910156-1.742187 12.152344-2.6875 18.613281-2.6875 31.734375 0 58.203125 22.480469 64.363281 52.378907 1.097656 5.296875 1.550782 10.8125 1.289063 16.492187zm0 0" fill="#24d3b5"/><path d="m300.378906 273.730469c-1.550781 1.894531-3.210937 3.726562-4.984375 5.5-29.214843 29.214843-76.59375 29.214843-105.808593 0-3.292969-3.292969-6.191407-6.816407-8.738282-10.511719-1.089844-1.582031-3.183594-2.074219-4.875-1.160156-22.53125 12.273437-51.3125 8.890625-70.371094-10.167969-17.808593-17.796875-21.9375-44.09375-12.402343-65.839844.792969-1.8125.089843-3.925781-1.660157-4.824219-13.886718-7.136718-23.21875-21.886718-22.460937-38.738281.402344-8.769531 3.59375-16.882812 8.707031-23.4375 6.875-3.171875 14.667969-4.722656 22.863282-4.148437 22.589843 1.589844 40.976562 19.613281 42.988281 42.171875.65625 7.300781-.390625 14.289062-2.769531 20.628906 3.3125-.460937 6.695312-.714844 10.140624-.714844 29.195313 0 54.421876 16.957031 66.394532 41.550781 5.910156-1.742187 12.152344-2.6875 18.613281-2.6875 31.734375 0 58.203125 22.480469 64.363281 52.378907zm0 0" fill="#20b7a1"/><path d="m476.199219 124.5c-1.492188 23.066406-19.714844 41.972656-42.707031 44.289062-4.019532.410157-7.945313.300782-11.71875-.242187-1.378907-.191406-2.628907.835937-2.660157 2.222656-.753906 30.054688-21.050781 55.019531-48.464843 63.042969-6.410157 1.882812-13.226563 2.839844-20.265626 2.710938-35.4375-.65625-64.671874-29.167969-66.164062-64.574219-.863281-20.757813 7.652344-39.546875 21.648438-52.480469-9.457032-11.980469-14.960938-27.234375-14.480469-43.785156.675781-22.925782 14.125-43.84375 33.203125-55.59375 9.574218-5.910156 20.578125-9.492188 32.085937-9.855469 36.121094-1.136719 66.113281 26.113281 69.375 61.128906.121094 1.300781 1.230469 2.277344 2.527344 2.277344h.019531c27.394532 0 49.390625 23.082031 47.601563 50.859375zm0 0" fill="#93e2c6"/><g fill="#24d3b5"><path d="m373.308594 164.066406c10.601562 22.109375 9.714844 48.34375-2.660156 69.746094-6.410157 1.882812-13.226563 2.839844-20.265626 2.710938-35.4375-.65625-64.671874-29.167969-66.164062-64.574219-.863281-20.757813 7.652344-39.546875 21.648438-52.480469-9.457032-11.980469-14.960938-27.234375-14.480469-43.785156.675781-22.925782 14.125-43.84375 33.203125-55.59375 5.859375 3.464844 11.398437 7.660156 16.472656 12.585937 12.9375 12.53125 21.25 27.988281 24.957031 44.285157.320313 1.410156 1.460938 2.488281 2.867188 2.769531 18.867187 3.867187 33.0625 20.546875 33.0625 40.550781 0 17.660156-11.0625 32.730469-26.628907 38.679688-2.042968.777343-2.957031 3.132812-2.011718 5.105468zm0 0"/><path d="m7.550781 469.183594c0-17.40625 14.113281-31.519532 31.523438-31.519532 8.332031 0 15.902343 3.238282 21.539062 8.519532 1.316407 1.234375 3.238281 1.554687 4.921875.910156 2.835938-1.082031 5.910156-1.679688 9.128906-1.679688 12.253907 0 22.492188 8.613282 25.007813 20.113282.472656 2.15625 2.445313 3.65625 4.65625 3.65625h16.570313c9.738281 0 17.632812 7.894531 17.632812 17.632812 0 9.734375-7.894531 17.628906-17.632812 17.628906h-78.082032c-18.933594 0-34.375-14.917968-35.222656-33.640624-.027344-.515626-.039062-1.035157-.039062-1.554688 0-.023438-.003907-.042969-.003907-.066406zm0 0"/><path d="m294.460938 419.941406c-11.3125-.628906-21.664063 3.457032-29.285157 10.464844-1.851562 1.703125-4.492187 2.160156-6.851562 1.28125-18.15625-6.765625-38.4375 4.164062-42.792969 22.992188-.6875 2.984374-3.320312 5.113281-6.382812 5.113281h-7.746094c-12.105469 0-22.417969 9.414062-22.847656 21.511719-.453126 12.703124 9.710937 23.140624 22.3125 23.140624h87.300781c23.964843 0 43.449219-19.195312 43.910156-43.050781.421875-21.773437-15.875-40.238281-37.617187-41.453125zm0 0"/></g><path d="m368.132812 120.285156c0-20.007812-14.191406-36.691406-33.054687-40.550781-1.417969-.289063-2.550781-1.363281-2.871094-2.773437-3.710937-16.292969-12.019531-31.75-24.957031-44.289063-34.242188-33.183594-89.230469-33.464844-123.789062-.613281-13.542969 12.871094-22.140626 28.90625-25.804688 45.796875-.472656 2.183593-2.707031 3.46875-4.832031 2.773437-4.710938-1.542968-9.792969-2.269531-15.082031-1.988281-21.085938 1.113281-38.179688 18.335937-39.128907 39.425781-.757812 16.855469 8.570313 31.605469 22.457031 38.742188 1.753907.902344 2.453126 3.015625 1.664063 4.820312-9.535156 21.75-5.40625 48.042969 12.398437 65.847656 19.058594 19.0625 47.847657 22.441407 70.375 10.167969 1.691407-.917969 3.785157-.429687 4.875 1.15625 2.542969 3.699219 5.445313 7.222657 8.734376 10.507813 29.21875 29.21875 76.59375 29.21875 105.8125 0 23.058593-23.058594 27.902343-57.414063 14.566406-85.238282-.945313-1.976562-.039063-4.328124 2.007812-5.109374 15.570313-5.949219 26.628906-21.015626 26.628906-38.675782zm0 0" fill="#a9e8d1"/><path d="m262.636719 9.339844c-16.039063 3.179687-31.339844 10.75-43.9375 22.71875-13.539063 12.867187-22.136719 28.90625-25.800781 45.800781-.484376 2.183594-2.710938 3.460937-4.832032 2.765625-4.714844-1.539062-9.796875-2.265625-15.09375-1.980469-21.082031 1.105469-38.175781 18.332031-39.121094 39.421875-.765624 16.855469 8.566407 31.601563 22.460938 38.742188 1.75.90625 2.445312 3.019531 1.660156 4.820312-9.535156 21.746094-5.40625 48.042969 12.394532 65.851563 7.046874 7.046875 15.433593 11.960937 24.34375 14.71875-20.359376 6.3125-43.453126 1.410156-59.582032-14.71875-17.796875-17.808594-21.925781-44.105469-12.390625-65.851563.785157-1.800781.089844-3.914062-1.664062-4.820312-13.890625-7.140625-23.222657-21.886719-22.460938-38.742188.949219-21.089844 18.042969-38.316406 39.125-39.421875 5.292969-.285156 10.378907.441407 15.089844 1.980469 2.125.695312 4.347656-.582031 4.832031-2.765625 3.664063-16.894531 12.261719-32.933594 25.804688-45.800781 21.726562-20.65625 51.523437-28.207032 79.171875-22.71875zm0 0" fill="#93e2c6"/><path d="m332.082031 461.390625c-.464843 23.859375-19.945312 43.058594-43.914062 43.058594h-87.296875c-12.605469 0-22.773438-10.441407-22.320313-23.144531.132813-3.695313 1.1875-7.128907 2.929688-10.128907 3.925781 3.433594 9.0625 5.519531 14.6875 5.519531h87.308593c21.734376 0 39.773438-15.796874 43.289063-36.527343 3.523437 6.253906 5.464844 13.53125 5.316406 21.222656zm0 0" fill="#20b7a1"/><path d="m138.53125 486.8125c0 4.871094-1.972656 9.28125-5.164062 12.472656-3.191407 3.191406-7.601563 5.164063-12.472657 5.164063h-78.085937c-18.925782 0-34.367188-14.917969-35.214844-33.644531-.03125-.515626-.039062-1.039063-.039062-1.5625v-.058594c0-9.664063 4.347656-18.3125 11.195312-24.09375 1.4375 18.152344 16.621094 32.429687 35.132812 32.429687h78.085938c1.257812 0 2.488281-.132812 3.664062-.382812 1.832032 2.777343 2.898438 6.101562 2.898438 9.675781zm0 0" fill="#20b7a1"/><path d="m120.898438 461.632812h-14.4375c-5.140626-17.382812-23.953126-28.023437-42.023438-22.15625-25.199219-21.558593-64.4375-3.617187-64.4375 29.707032 0 .054687 0 .117187.00390625.179687 0 .609375.01562495 1.214844.04296875 1.78125 1.039063 22.90625 19.824219 40.851563 42.765625 40.851563h78.085938c13.882812 0 25.179687-11.296875 25.179687-25.183594 0-13.882812-11.292969-25.179688-25.179687-25.179688zm0 35.261719h-78.085938c-14.144531 0-27.257812-10.71875-27.710938-27.804687.078126-20.945313 25.191407-31.605469 40.347657-17.398438 3.378906 3.167969 8.394531 4.128906 12.78125 2.453125 10.417969-3.980469 21.761719 2.460938 24.066406 12.996094 1.214844 5.558594 6.273437 9.59375 12.03125 9.59375h16.570313c5.558593 0 10.082031 4.519531 10.082031 10.078125s-4.523438 10.082031-10.082031 10.082031zm0 0"/><path d="m431.597656 424.453125c-22.03125-7.84375-46.332031 4.894531-52.136718 27.785156h-40.515626c-4.289062-25.351562-27.574218-43.277343-53.847656-39.394531v-71.457031c5.292969-4.777344 10.15625-10.59375 14.074219-17.226563 32.917969 13.832032 71.808594 6.671875 97.632813-18.96875 28.382812 19.710938 67.132812 11.054688 84.660156-18.058594 11.445312-19.019531 11.242187-42.707031-.214844-61.464843 20.09375-23.550781 18.480469-58.683594-3.019531-80.214844 17.152343-34.75-6.5625-76.089844-45.203125-79.183594-8.847656-57.820312-79.371094-85.617187-124.847656-42.957031-53.890626-46.332031-138.894532-20.320312-156.972657 49.027344-28.421875-6.722656-55.691406 13.070312-59.691406 40.703125-30.507813 3.238281-52.496094 31.578125-47.6875 62.097656-17.519531 9.363281-28.621094 27.664063-28.621094 47.730469 0 31.160156 26.4375 55.851562 57.101563 54.011718 3.039062 11.648438 8.699218 22.582032 16.5 31.832032 2.6875 3.191406 7.449218 3.597656 10.640625.90625 3.183593-2.6875 3.59375-7.449219.90625-10.628906-7.175781-8.519532-12.121094-18.765626-14.292969-29.640626-1.019531-5.082031-5.941406-8.636718-11.195312-7.882812-23.640626 3.359375-44.5625-15.015625-44.5625-38.597656 0-15.472656 9.164062-29.488282 23.339843-35.71875 4.480469-1.960938 6.777344-6.84375 5.675781-11.378906-5.269531-22.5625 10.058594-44.335938 32.386719-47.539063 2.355469 13.90625 10.59375 26.125 22.804688 33.554687-7.113281 18.769532-5.34375 39.824219 4.539062 57.015626 2.074219 3.613281 6.695313 4.863281 10.308594 2.789062 3.617187-2.085938 4.863281-6.695312 2.789063-10.3125-8.011719-13.921875-9.207032-31.292969-2.496094-46.632812 2.378906-5.433594.207031-11.808594-5.132813-14.554688-8.539062-4.390625-14.648437-12.011719-17.144531-20.933594-5.917969-21.070312 9.632812-41.867187 30.765625-42.976562 8.769531-.480469 11.914063 2.183594 15.867187 2.183594 5.265626 0 9.90625-3.742188 11.023438-8.910157 14.398438-66.34375 100.328125-87.746093 143.773438-33.90625 7.78125 9.65625 13.269531 20.929688 16.039062 33.09375.976562 4.265625 4.398438 7.609375 8.71875 8.484375 15.652344 3.203125 27.019531 17.144532 27.019531 33.152344 0 13.945312-8.75 26.648438-21.777343 31.625-6.257813 2.394531-8.941407 9.507812-6.121094 15.421875 8.65625 18.039063 8.980468 39.828125-.148438 58.523437-22.59375 46.5-86.96875 50.914063-115.929687 8.667969-3.28125-4.773437-9.648438-6.265625-14.707031-3.503906-15.691407 8.542969-35.40625 8.578125-51.496094-1.097656-3.574219-2.15625-8.214844-.996094-10.359375 2.578125-2.15625 3.5625-1.007813 8.203125 2.566406 10.359375 19.394531 11.683593 43.367187 12.625 63.507813 2.960937 20.242187 27.019532 54.640624 38.804688 87.023437 30.230469 11.851563 61.707031-68.671875 94.890625-104.492187 44.769531-2.722657-3.796875-7.714844-5.234375-12.03125-3.410156-17.078126 7.164062-37.277344 7.109375-55.097657-1.761719-3.734375-1.863281-8.265625-.34375-10.128906 3.382813-1.863281 3.734375-.34375 8.265625 3.382813 10.125 20.300781 10.117187 43.53125 11.0625 63.988281 3.625 11.660156 14.578125 28.453125 24.132812 46.765625 26.789062v68.921875c-8.546875 5.46875-14.710938 13.964844-17.175782 23.75h-6.945312c-26.300781 0-40.574219 31.402344-22.039062 50.632813 5.675781 5.878906 13.320312 9.128906 21.503906 9.128906h257.660156c28.585938 0 52.199219-22.976562 52.199219-52.210938 0-41.058593-48.8125-62.570312-79.132813-35.335937zm-124.132812-153.652344c13.207031-6.289062 24.332031-16.007812 32.398437-27.644531 20.703125 3.316406 42.96875-2.230469 60.195313-16.761719 3.179687-2.6875 3.582031-7.449219.894531-10.640625-2.6875-3.183594-7.449219-3.585937-10.640625-.898437-12.269531 10.355469-28.101562 15.109375-42.546875 13.996093 8.867187-20.652343 8.714844-44.078124.160156-64.441406 16.753907-8.074218 27.757813-25.332031 27.757813-44.128906 0-22.320312-15.28125-41.859375-36.6875-47.386719-3.671875-14.417969-10.589844-27.726562-20.253906-39 37.167968-34.242187 95.261718-10.503906 99.789062 38.175781.484375 5.203126 4.800781 9.121094 10.066406 9.121094 22.140625 0 40.148438 18.007813 40.148438 40.148438 0 23.925781-21.316406 43.230468-45.917969 39.734375-5.652344-.859375-11.117187 3.402343-11.265625 9.503906-.199219 8.035156-1.953125 15.796875-5.222656 23.054687-1.710938 3.808594-.011719 8.277344 3.785156 9.988282 3.804688 1.710937 8.273438.011718 9.988281-3.785156 3.332031-7.410157 5.414063-15.222657 6.210938-23.296876 16.757812.707032 32.324219-6.214843 43.210937-18.261718 14.640625 16.835937 14.722656 43.007812-1.855468 59.863281-3.410157 3.472656-3.835938 8.867187-1.027344 12.824219 10.199218 14.335937 10.933594 33.324218 1.875 48.382812-13.847656 23.011719-45.085938 28.46875-65.882813 11.328125-4.136719-3.402343-10.21875-2.949219-13.832031 1.027344-21.222656 23.375-54.796875 30.464844-83.351562 18.726563 4.367187-12.890626 4.945312-26.773438 2.003906-39.628907zm-66.835938 89.382813c10.339844-.636719 20.316406-3.464844 29.367188-8.238282v65.863282c-3.382813 1.792968-6.566406 4.015625-9.484375 6.632812-6.414063-2.304687-13.257813-2.867187-19.882813-1.761718zm47.539063 136.714844c-11.015625 0-77.21875 0-87.296875 0-4.046875 0-7.832032-1.609376-10.640625-4.519532-9.1875-9.515625-2.105469-25.039062 11.175781-25.039062h7.738281c6.605469 0 12.253907-4.507813 13.742188-10.960938 3.300781-14.292968 18.847656-22.8125 32.800781-17.621094 4.839844 1.800782 10.378906 1.003907 14.597656-2.796874 4.25-3.898438 9.324219-6.535157 14.8125-7.753907 17.035156-3.828125 34.078125 6.554688 38.425782 24.03125 5.546874 22.261719-11.871094 44.660157-35.355469 44.660157zm207.421875-35.398438c-.90625 19.84375-17.175782 35.398438-37.058594 35.398438h-133.949219c8.0625-8.074219 13.136719-18.394532 14.605469-29.558594h42.898438c5.71875 0 10.621093-4.085938 11.648437-9.722656 2.875-15.683594 19.511719-24.523438 34.058594-18.457032 4.378906 1.84375 9.421875.855469 12.855469-2.503906 20.890624-20.441406 56.519531-4.625 54.941406 24.84375zm0 0"/><path d="m267.164062 115.664062c4.398438 4.207032 10.355469 6.800782 16.910157 6.800782 23.921875 0 31.71875-32.007813 16.90625-32.007813-4.171875 0-7.550781 3.378907-7.550781 7.550781 0 5.15625-4.195313 9.355469-9.355469 9.355469-5.160157 0-9.359375-4.199219-9.359375-9.355469 0-4.171874-3.378906-7.550781-7.550782-7.550781-4.167968 0-7.550781 3.378907-7.550781 7.550781 0 5.15625-4.195312 9.355469-9.355469 9.355469-5.15625 0-9.355468-4.199219-9.355468-9.355469 0-4.171874-3.378906-7.550781-7.550782-7.550781-4.167968 0-7.550781 3.378907-7.550781 7.550781 0 21.484376 25.875 32.492188 41.363281 17.65625zm0 0"/><path d="m215.585938 168.53125c0-4.171875-3.378907-7.550781-7.550782-7.550781-4.167968 0-7.550781 3.378906-7.550781 7.550781 0 7.503906-6.101563 13.605469-13.605469 13.605469s-13.605468-6.101563-13.605468-13.605469c0-4.171875-3.382813-7.550781-7.550782-7.550781-4.171875 0-7.550781 3.378906-7.550781 7.550781 0 15.828125 12.878906 28.707031 28.707031 28.707031 8.363282 0 15.90625-3.59375 21.15625-9.320312 5.253906 5.726562 12.792969 9.320312 21.15625 9.320312 15.832032 0 28.710938-12.878906 28.710938-28.707031 0-4.171875-3.382813-7.550781-7.550782-7.550781-4.171874 0-7.550781 3.378906-7.550781 7.550781 0 7.503906-6.105469 13.605469-13.609375 13.605469-7.5 0-13.605468-6.101563-13.605468-13.605469zm0 0"/><path d="m178.539062 294.460938c3.886719 3.40625 8.972657 5.46875 14.53125 5.46875 21.914063 0 28.921876-29.632813 14.535157-29.632813-4.171875 0-7.550781 3.378906-7.550781 7.550781 0 3.851563-3.132813 6.980469-6.984376 6.980469-3.847656 0-6.980468-3.128906-6.980468-6.980469 0-4.171875-3.378906-7.550781-7.550782-7.550781-4.171874 0-7.550781 3.378906-7.550781 7.550781 0 3.851563-3.132812 6.980469-6.980469 6.980469-3.851562 0-6.984374-3.128906-6.984374-6.980469 0-4.171875-3.378907-7.550781-7.550782-7.550781-14.277344 0-7.464844 29.632813 14.535156 29.632813 5.558594 0 10.644532-2.0625 14.53125-5.46875zm0 0"/></svg>