<svg height="512pt" viewBox="-1 0 512 512.00101" width="512pt" xmlns="http://www.w3.org/2000/svg"><path d="m496.039062 504.421875h-260.070312c-4.335938 0-7.324219-4.316406-5.808594-8.375l87.148438-232.355469 37.609375-100.277344c3.839843-10.246093 18.332031-10.246093 22.171875 0l38.164062 101.761719 86.59375 230.871094c1.515625 4.0625-1.472656 8.375-5.808594 8.375zm0 0" fill="#e6f1ff"/><path d="m342.863281 504.421875h-327.464843c-5.457032 0-9.226563-5.4375-7.308594-10.539063l109.828125-292.820312 47.257812-126.011719c4.832031-12.894531 23.070313-12.894531 27.910157 0l48.25 128.640625 108.832031 290.191406c1.910156 5.101563-1.855469 10.539063-7.304688 10.539063zm0 0" fill="#e6f1ff"/><path d="m265.523438 496.046875c-1.515626 4.0625 1.476562 8.375 5.8125 8.375h-35.367188c-4.335938 0-7.324219-4.3125-5.808594-8.375l87.148438-232.355469 37.609375-100.277344c3.839843-10.246093 18.332031-10.246093 22.171875 0l6.597656 17.59375-31.011719 82.683594zm0 0" fill="#cde2ff"/><path d="m43.457031 493.882812c-1.917969 5.101563 1.847657 10.539063 7.304688 10.539063h-35.363281c-5.457032 0-9.226563-5.4375-7.308594-10.539063l109.828125-292.820312 47.257812-126.011719c4.832031-12.894531 23.070313-12.894531 27.910157 0l3.726562 9.941407-43.527344 116.070312zm0 0" fill="#cde2ff"/><path d="m496.039062 504.421875h-260.070312c-4.335938 0-7.324219-4.316406-5.808594-8.375l87.148438-232.355469 4.863281 2.484375 19.328125 9.046875c2.070312.96875 4.820312.96875 6.890625 0l15.886719-7.429687c2.070312-.96875 4.828125-.96875 6.898437 0l15.886719 7.429687c2.070312.96875 4.820312.96875 6.890625 0l15.882813-7.429687 5.417968-2.617188 86.59375 230.871094c1.515625 4.0625-1.472656 8.375-5.808594 8.375zm0 0" fill="#81b8fd"/><path d="m342.863281 504.421875h-327.464843c-5.457032 0-9.226563-5.4375-7.308594-10.539063l109.828125-292.820312 6.011719 3.375 24.339843 11.398438c2.609375 1.222656 6.085938 1.222656 8.691407 0l19.996093-9.355469c2.609375-1.222657 6.074219-1.222657 8.679688 0l20.007812 9.355469c2.605469 1.222656 6.074219 1.222656 8.679688 0l19.996093-9.355469 7.015626-2.789063 108.832031 290.191406c1.910156 5.101563-1.855469 10.539063-7.304688 10.539063zm0 0" fill="#c0dbff"/><path d="m449.617188 7.578125c-21.5625 0-40.082032 12.96875-48.214844 31.523437-6.085938-7.960937-15.675782-13.105468-26.472656-13.105468-18.390626 0-33.296876 14.90625-33.296876 33.296875 0 2.523437.289063 4.972656.820313 7.335937h-25.058594c-12.757812 0-23.105469 10.34375-23.105469 23.105469s10.347657 23.105469 23.105469 23.105469h132.21875c29.066407 0 52.632813-23.5625 52.632813-52.628906 0-29.066407-23.5625-52.632813-52.628906-52.632813zm0 0" fill="#a0cafe"/><path d="m44.074219 82.414062c14.945312 0 27.785156 8.992188 33.425781 21.855469 4.21875-5.519531 10.867188-9.085937 18.351562-9.085937 12.75 0 23.085938 10.335937 23.085938 23.085937 0 1.746094-.199219 3.449219-.570312 5.085938h48.636718c8.847656 0 16.019532 7.171875 16.019532 16.019531s-7.171876 16.019531-16.019532 16.019531h-122.929687c-20.152344 0-36.492188-16.339843-36.492188-36.492187s16.339844-36.488282 36.492188-36.488282zm0 0" fill="#a0cafe"/><g fill="#62a6fd"><path d="m348.339844 275.242188-40.082032 106.886718-17.683593-47.148437 26.734375-71.289063 4.863281 2.488282 19.328125 9.042968c2.050781.957032 4.78125.96875 6.839844.019532zm0 0"/><path d="m50.761719 504.421875h-35.363281c-5.457032 0-9.226563-5.4375-7.308594-10.539063l109.828125-292.820312 6.011719 3.375 23.886718 11.1875-104.359375 278.257812c-1.917969 5.101563 1.847657 10.539063 7.304688 10.539063zm0 0"/><path d="m348.339844 275.242188-40.082032 106.886718-17.683593-47.148437 26.734375-71.289063 4.863281 2.488282 19.328125 9.042968c2.050781.957032 4.78125.96875 6.839844.019532zm0 0"/></g><path d="m43.457031 493.882812c-1.917969 5.101563 1.847657 10.539063 7.304688 10.539063h-35.363281c-5.457032 0-9.226563-5.4375-7.308594-10.539063l109.828125-292.820312 6.011719 3.375 23.886718 11.1875zm0 0" fill="#a0cafe"/><path d="m79.441406 155.390625h-35.367187c-20.160157 0-36.488281-16.339844-36.488281-36.488281 0-20.15625 16.328124-36.484375 36.488281-36.484375 6.414062 0 12.4375 1.65625 17.671875 4.566406-11.207032 6.222656-18.792969 18.175781-18.792969 31.917969 0 20.152344 16.328125 36.488281 36.488281 36.488281zm0 0" fill="#81b8fd"/><path d="m502.242188 60.207031c0 29.070313-23.5625 52.632813-52.625 52.632813h-132.214844c-12.761719 0-23.109375-10.34375-23.109375-23.109375 0-7.292969 3.375-13.800781 8.660156-18.035157 4.089844 6.445313 11.296875 10.722657 19.5 10.722657h132.21875c20.632813 0 38.496094-11.875 47.105469-29.171875.3125 2.273437.464844 4.597656.464844 6.960937zm0 0" fill="#81b8fd"/><path d="m317.398438 120.417969h132.21875c33.199218 0 60.207031-27.007813 60.207031-60.207031 0-33.199219-27.007813-60.210938-60.207031-60.210938-20.292969 0-38.960938 10.199219-50.011719 26.683594-7.011719-5.332032-15.59375-8.265625-24.675781-8.265625-22.457032 0-40.742188 18.203125-40.875 40.628906h-16.65625c-16.921876 0-30.6875 13.765625-30.6875 30.6875 0 16.917969 13.765624 30.683594 30.6875 30.683594zm0-46.210938h25.054687c4.851563 0 8.460937-4.507812 7.394531-9.242187-.421875-1.875-.636718-3.78125-.636718-5.671875 0-14.179688 11.539062-25.71875 25.71875-25.71875 8.078124 0 15.53125 3.691406 20.449218 10.128906 3.503906 4.589844 10.652344 3.714844 12.960938-1.558594 7.191406-16.394531 23.390625-26.988281 41.277344-26.988281 24.839843 0 45.050781 20.210938 45.050781 45.050781 0 24.84375-20.210938 45.054688-45.050781 45.054688h-132.21875c-8.5625 0-15.53125-6.96875-15.53125-15.527344 0-8.5625 6.96875-15.527344 15.53125-15.527344zm0 0"/><path d="m508.941406 493.386719-34.535156-92.082031c-1.464844-3.921876-5.839844-5.902344-9.761719-4.4375-3.910156 1.476562-5.902343 5.84375-4.425781 9.761718l33.828125 90.214844h-135.804687c.011718-.070312.011718-.140625.011718-.210938 0-1.851562-.332031-3.667968-.992187-5.417968l-58.59375-156.246094 22.785156-60.757812 16.832031 7.875c4.109375 1.921874 9.214844 1.921874 13.324219 0l15.832031-7.410157c.132813-.046875.4375-.046875.519532-.023437l15.886718 7.433594c4.105469 1.925781 9.210938 1.925781 13.320313 0l13.894531-6.5 38.503906 102.660156c1.476563 3.921875 5.84375 5.902344 9.761719 4.4375 3.910156-1.476563 5.902344-5.839844 4.4375-9.761719l-79.585937-212.175781c-6.292969-16.777344-30.0625-16.769532-36.355469 0l-57.25 152.648437-65.800781-175.445312c-1.476563-3.917969-5.839844-5.898438-9.761719-4.433594s-5.902344 5.839844-4.4375 9.761719l21.050781 56.125c-.171875.066406-.34375.128906-.515625.210937l-19.996094 9.359375c-1.550781.726563-1.507812.351563-22.257812-9.359375-4.660157-2.183593-10.453125-2.183593-15.109375 0l-20 9.359375c-1.558594.726563-1.042969.566406-26.460938-11.328125l13.003906-34.671875h26.71875c13.011719 0 23.59375-10.589844 23.59375-23.597656 0-13.011719-10.582031-23.601562-23.59375-23.601562h-9.015624l14.277343-38.066407c2.386719-6.335937 11.339844-6.328125 13.722657 0l13.933593 37.1875c1.476563 3.917969 5.839844 5.898438 9.761719 4.433594 3.921875-1.472656 5.902344-5.839844 4.4375-9.761719l-13.945312-37.171875c-7.308594-19.476562-34.84375-19.394531-42.097657 0l-16.265625 43.378907h-15.398437c-1.273438-15.742188-14.492188-28.171876-30.566407-28.171876-5.984374 0-11.683593 1.707032-16.542968 4.828126-25.277344-33.605469-79.3007815-15.8125-79.3007815 26.476562 0 24.300781 19.7656255 44.066406 44.0664065 44.066406h80.039062l-123.125 328.242188c-3.792969 10.253906 3.839844 20.785156 14.410157 20.785156h113.5625c4.183593 0 7.578124-3.382812 7.578124-7.578125 0-4.183594-3.394531-7.578125-7.578124-7.578125h-113.5625c-.214844 0-.234376-.210938-.214844-.300781l106.761718-284.664063c35.039063 16.402344 26.351563 16.378906 58.222657 1.460938.570312-.269532 1.6875-.269532 2.261719 0 31.527343 14.753906 23.886718 14.609375 54.527343.273437 96.96875 258.542969-.105469-.261719 106.140625 283.019531 0 0-.03125.210938-.234375.210938-93.980469 0-89.601562 0-183.589843 0-4.179688 0-7.578126 3.394531-7.578126 7.578125 0 4.195313 3.398438 7.578125 7.578126 7.578125h336.765624c9.558594 0 16.292969-9.554688 12.902344-18.613281zm-146.929687-327.316407c1.394531-3.695312 6.597656-3.691406 7.972656 0l35.738281 95.277344-14.933594 6.992188c-.132812.042968-.433593.042968-.519531.019531l-15.882812-7.433594c-4.109375-1.921875-9.210938-1.921875-13.320313 0l-15.835937 7.414063c-.132813.042968-.4375.042968-.519531.019531l-17.917969-8.386719zm-317.9375-18.257812c-15.945313 0-28.910157-12.964844-28.910157-28.910156 0-15.945313 12.964844-28.90625 28.910157-28.90625 11.476562 0 21.875 6.789062 26.484375 17.316406 2.332031 5.300781 9.484375 6.117188 12.964844 1.558594 2.96875-3.882813 7.457031-6.113282 12.324218-6.113282 9.800782 0 17.328125 9.078126 15.128906 18.933594-1.054687 4.675782 2.476563 9.238282 7.394532 9.238282h48.632812c4.648438 0 8.4375 3.789062 8.4375 8.445312 0 4.648438-3.789062 8.4375-8.4375 8.4375-14.863281 0-108.945312 0-122.929687 0zm0 0"/></svg>