<svg height="511pt" viewBox="0 0 511 511.99979" width="511pt" xmlns="http://www.w3.org/2000/svg"><g fill="#fed22b"><path d="m342.621094 23.46875c2.25-2.136719.265625-5.867188-2.773438-5.230469-120.265625 25.171875-112.808594 116.78125-112.808594 116.78125h59.527344c-2.320312-35.574219 36.03125-92.527343 56.054688-111.550781zm0 0"/><path d="m222.046875 136.175781c-19.792969-29.648437-15.058594-98.148437-7.230469-124.632812.882813-2.976563-2.699218-5.214844-5.015625-3.144531-91.566406 81.933593-39.300781 157.539062-39.300781 157.539062zm0 0"/><path d="m136.992188 220.988281 29.761718-51.550781c-31.96875-15.777344-62.117187-77.46875-68.578125-104.320312-.726562-3.019532-4.945312-3.164063-5.914062-.214844-38.332031 116.742187 44.730469 156.085937 44.730469 156.085937zm0 0"/><path d="m135.5 285.414062v-59.523437c-35.574219 2.320313-92.527344-36.03125-111.550781-56.054687-2.140625-2.25-5.867188-.269532-5.230469 2.773437 25.171875 120.265625 116.78125 112.804687 116.78125 112.804687zm0 0"/><path d="m166.421875 341.957031-29.765625-51.550781c-29.648438 19.796875-98.148438 15.058594-124.628906 7.230469-2.980469-.878907-5.21875 2.703125-3.148438 5.015625 81.933594 91.570312 157.542969 39.304687 157.542969 39.304687zm0 0"/><path d="m221.46875 375.460938-51.550781-29.761719c-15.777344 31.96875-77.46875 62.117187-104.320313 68.578125-3.019531.726562-3.164062 4.949218-.214844 5.917968 116.742188 38.332032 156.085938-44.734374 156.085938-44.734374zm0 0"/><path d="m226.371094 376.957031c2.320312 35.574219-36.035156 92.527344-56.054688 111.550781-2.253906 2.136719-.269531 5.867188 2.769532 5.230469 120.269531-25.175781 112.808593-116.78125 112.808593-116.78125zm0 0"/><path d="m290.886719 375.796875c19.796875 29.648437 15.058593 98.148437 7.230469 124.632813-.878907 2.980468 2.703124 5.21875 5.015624 3.144531 91.566407-81.933594 39.304688-157.539063 39.304688-157.539063zm0 0"/><path d="m375.941406 290.988281-29.761718 51.546875c31.96875 15.78125 62.117187 77.472656 68.578124 104.320313.726563 3.019531 4.949219 3.167969 5.917969.21875 38.332031-116.742188-44.734375-156.085938-44.734375-156.085938zm0 0"/><path d="m377.4375 226.5625v59.523438c35.574219-2.320313 92.527344 36.03125 111.546875 56.054687 2.140625 2.25 5.871094.269531 5.234375-2.773437-25.175781-120.265626-116.78125-112.804688-116.78125-112.804688zm0 0"/><path d="m504.054688 209.324219c-81.933594-91.570313-157.539063-39.304688-157.539063-39.304688l29.761719 51.550781c29.648437-19.796874 98.148437-15.0625 124.632812-7.234374 2.976563.882812 5.21875-2.699219 3.144532-5.011719zm0 0"/><path d="m291.46875 136.511719 51.546875 29.761719c15.78125-31.96875 77.472656-62.113282 104.320313-68.578126 3.019531-.722656 3.167968-4.945312.214843-5.914062-116.738281-38.332031-156.082031 44.730469-156.082031 44.730469zm0 0"/></g><path d="m343.296875 19.984375c-62.722656 33.28125-83.636719 82.433594-90.464844 115.035156h-25.796875s-7.453125-91.605469 112.816406-116.78125c1.59375-.335937 2.898438.535157 3.445313 1.746094zm0 0" fill="#fdc202"/><path d="m213.660156 8.1875c-37.675781 60.183594-31.214844 113.207031-20.824218 144.859375l-22.339844 12.894531s-52.261719-75.601562 39.304687-157.542968c1.21875-1.085938 2.78125-.988282 3.859375-.210938zm0 0" fill="#fdc202"/><path d="m95.496094 62.792969c-2.539063 70.957031 29.570312 113.644531 54.394531 135.863281l-12.898437 22.335938s-83.0625-39.34375-44.730469-156.089844c.507812-1.550782 1.914062-2.246094 3.234375-2.109375zm0 0" fill="#fdc202"/><path d="m20.464844 169.160156c33.28125 62.722656 82.433594 83.636719 115.035156 90.464844v25.792969s-91.605469 7.457031-116.78125-112.8125c-.335938-1.597657.535156-2.898438 1.746094-3.445313zm0 0" fill="#fdc202"/><path d="m8.667969 298.792969c60.183593 37.679687 113.207031 31.214843 144.859375 20.828125l12.894531 22.339844s-75.605469 52.257812-157.542969-39.308594c-1.085937-1.214844-.988281-2.777344-.210937-3.859375zm0 0" fill="#fdc202"/><path d="m63.269531 416.957031c70.960938 2.539063 113.648438-29.570312 135.863281-54.390625l22.339844 12.898438s-39.347656 83.058594-156.089844 44.730468c-1.550781-.511718-2.246093-1.914062-2.113281-3.238281zm0 0" fill="#fdc202"/><path d="m169.640625 491.992188c62.71875-33.28125 83.632813-82.433594 90.464844-115.039063h25.792969s7.457031 91.609375-112.8125 116.785156c-1.597657.332031-2.902344-.535156-3.445313-1.746093zm0 0" fill="#fdc202"/><path d="m299.273438 503.785156c37.679687-60.179687 31.214843-113.207031 20.828124-144.855468l22.339844-12.898438s52.257813 75.605469-39.308594 157.546875c-1.21875 1.085937-2.78125.984375-3.859374.207031zm0 0" fill="#fdc202"/><path d="m417.4375 449.183594c2.539062-70.957032-29.570312-113.648438-54.390625-135.863282l12.894531-22.335937s83.0625 39.34375 44.734375 156.089844c-.511719 1.550781-1.914062 2.242187-3.238281 2.109375zm0 0" fill="#fdc202"/><path d="m492.472656 342.816406c-33.28125-62.722656-82.433594-83.636718-115.039062-90.464844v-25.792968s91.609375-7.457032 116.785156 112.8125c.332031 1.59375-.535156 2.898437-1.746094 3.445312zm0 0" fill="#fdc202"/><path d="m504.265625 213.179688c-60.179687-37.675782-113.207031-31.214844-144.855469-20.824219l-12.898437-22.339844s75.605469-52.261719 157.546875 39.308594c1.085937 1.214843.984375 2.777343.207031 3.855469zm0 0" fill="#fdc202"/><path d="m449.664062 95.015625c-70.957031-2.539063-113.648437 29.574219-135.863281 54.394531l-22.339843-12.898437s39.347656-83.0625 156.09375-44.730469c1.546874.507812 2.242187 1.914062 2.109374 3.234375zm0 0" fill="#fdc202"/><path d="m396.636719 255.988281c0 77.414063-62.753907 140.167969-140.167969 140.167969s-140.171875-62.753906-140.171875-140.167969c0-77.414062 62.757813-140.167969 140.171875-140.167969s140.167969 62.753907 140.167969 140.167969zm0 0" fill="#ffe5a0"/><path d="m274.148438 395.058594c-5.789063.726562-11.6875 1.101562-17.679688 1.101562-77.414062 0-140.175781-62.761718-140.175781-140.171875 0-77.414062 62.761719-140.175781 140.175781-140.175781 5.992188 0 11.890625.375 17.679688 1.101562-69.066407 8.699219-122.492188 67.652344-122.492188 139.074219 0 71.417969 53.425781 130.371094 122.492188 139.070313zm0 0" fill="#ffdd81"/><path d="m498.765625 221.605469c10.246094 3.003906 18.136719-9.3125 10.941406-17.335938-33.652343-37.605469-70.410156-56.679687-109.238281-56.679687-14.890625 0-27.621094 2.910156-37.339844 6.253906-.234375-.242188-.476562-.496094-.71875-.738281 22.875-22.632813 64.933594-42.796875 86.695313-48.039063 10.414062-2.5 10.984375-17.160156.808593-20.480468-56.308593-18.503907-113.835937-14.382813-152.082031 29.550781-.335937-.109375-.667969-.203125-1-.292969 3.058594-11.125 8.585938-23.953125 16.265625-37.582031 2.050782-3.648438.765625-8.277344-2.878906-10.328125-3.648438-2.050782-8.277344-.757813-10.328125 2.878906-6.476563 11.507812-13.789063 26.542969-17.851563 41.648438-14.570312-2.570313-29.683593-2.917969-44.484374-1.011719 11.210937-43.191407 46.710937-68.394531 89.546874-80.320313-3.394531 4.050782-6.914062 8.585938-10.40625 13.4375-2.445312 3.394532-1.679687 8.121094 1.714844 10.578125 3.394532 2.445313 8.125 1.675781 10.578125-1.71875 6.710938-9.316406 13.40625-17.296875 18.84375-22.460937 7.671875-7.273438 1.136719-20.308594-9.539062-18.144532-87.625 18.339844-110.851563 71.207032-116.875 101.609376-.363281.089843-.726563.183593-1.089844.28125-8.050781-30.816407-4.605469-77.515626 1.757813-99.019532 3.042968-10.386718-9.453126-18.015625-17.335938-10.941406-37.605469 33.652344-56.679688 70.410156-56.679688 109.234375 0 14.894531 2.910157 27.625 6.253907 37.34375-.242188.230469-.496094.472656-.738281.714844-22.632813-22.863281-42.796876-64.933594-48.042969-86.695313-2.496094-10.410156-17.148438-10.980468-20.476563-.808594-18.515625 56.351563-14.367187 113.851563 29.550782 152.085938-.101563.332031-.203126.65625-.292969.988281-31.136719-8.648437-69.945313-35.269531-84.878907-51-7.3125-7.675781-20.351562-1.0625-18.144531 9.539063v.007812c18.335938 87.625 71.207031 110.855469 101.609375 116.875.089844.363282.179688.726563.28125 1.09375-30.816406 8.046875-77.511718 4.605469-99.019531-1.757812-10.5-3.078125-17.925781 9.550781-10.945313 17.335937 39.804688 44.472657 91.394532 69.414063 146.582032 50.425781.230468.242188.472656.496094.714844.738282-6.425782 6.351562-14.730469 12.859375-24.703126 19.335937-3.515624 2.285157-4.515624 6.972657-2.230468 10.488281 2.28125 3.503907 6.96875 4.503907 10.476562 2.222657 8.628906-5.597657 18.832032-13.0625 27.519532-21.753907 11.335937 9.527344 24.117187 17.378907 37.96875 23.167969-31.332032 31.886719-74.707032 35.835938-117.660157 24.804688 7.777344-2.839844 16.375-6.546875 25.023438-10.832031 3.757812-1.847657 5.292969-6.394532 3.4375-10.152344-1.859375-3.75-6.398438-5.285156-10.15625-3.425782-13.394531 6.625-26.996094 11.929688-36.371094 14.183594-10.410156 2.5-10.984375 17.15625-.808594 20.480469 55.90625 18.367187 113.542969 14.71875 152.085938-29.550781.332031.097656.65625.199218.988281.292968-8.648438 31.136719-35.269531 69.941407-51 84.875-7.730469 7.367188-.976562 20.339844 9.539062 18.148438h.007813c87.625-18.339844 110.855469-71.210938 116.875-101.609375.363281-.09375.726563-.183594 1.089844-.285156 8.054687 30.839843 4.597656 77.523437-1.746094 99.011719-3.074219 10.144531 9.273437 18.175781 17.328125 10.953124 44.472656-39.800781 69.414062-91.394531 50.425781-146.578124.242188-.234376.492188-.476563.738281-.71875 22.628907 22.863281 42.796876 64.933593 48.039063 86.699218 2.523437 10.421875 17.136719 10.96875 20.480469.816406 0-.007812 0-.007812.007812-.007812 18.453125-56.238281 14.441406-113.777344-29.5625-152.085938.113282-.335937.203125-.667968.292969-1 8.699219 2.382813 18.46875 6.292969 28.949219 11.628907 3.726562 1.898437 8.292968.414062 10.191406-3.316407 1.902344-3.726562.414062-8.292968-3.3125-10.183593-11.730469-5.96875-22.570312-10.292969-32.433594-12.941407 2.5625-14.597656 2.90625-29.683593 1.003906-44.464843 42.917969 11.144531 68.285157 46.347656 80.320313 89.535156-6.375-5.335937-13.914063-10.953125-21.984375-16.328125-3.488281-2.3125-8.195312-1.371094-10.507812 2.113281-2.324219 3.476563-1.375 8.183594 2.101562 10.507813 12.476562 8.304687 23.894531 17.449218 30.550781 24.449218 7.28125 7.679688 20.363281 1.09375 18.144531-9.539062-18.335937-87.625-71.207031-110.851562-101.605468-116.875-.09375-.363281-.183594-.726562-.285156-1.089844 30.804687-8.042968 77.5-4.609375 99.023437 1.757813zm-388.835937 53.296875c-8.40625-2.183594-18.136719-5.882813-28.058594-12.136719-24.75-15.589844-42.289063-41.59375-52.273438-77.421875 19.742188 16.511719 52.445313 37.210938 81.34375 45.03125-2.566406 14.566406-2.921875 29.707031-1.011718 44.527344zm321.082031-180.074219c-24.4375 8.882813-58.527344 26.804687-79.675781 47.972656-11.335938-9.519531-24.113282-17.367187-37.957032-23.15625 31.28125-31.832031 74.589844-35.84375 117.632813-24.816406zm-226.808594-70.621094c-4.78125 27.382813-5.695313 65.566407 1.625 92.972657-14.121094 5.160156-27.238281 12.425781-38.976563 21.40625-11.925781-43.027344 6.121094-82.542969 37.351563-114.378907zm-108.894531 57.234375c8.882812 24.441406 26.804687 58.53125 47.972656 79.675782-9.519531 11.335937-17.367188 24.117187-23.15625 37.957031-31.832031-31.277344-35.847656-74.589844-24.816406-117.632813zm-70.621094 226.8125c27.394531 4.78125 65.578125 5.691406 92.972656-1.628906 5.160156 14.125 12.425782 27.238281 21.40625 38.980469-43.027344 11.925781-82.546875-6.125-114.378906-37.351563zm161.136719 174.601563c16.511719-19.738281 37.210937-52.445313 45.03125-81.339844 14.566406 2.566406 29.707031 2.917969 44.527343 1.011719-11.199218 43.128906-46.625 68.367187-89.558593 80.328125zm122.90625 4.910156c4.78125-27.378906 5.699219-65.566406-1.625-92.96875 14.125-5.164063 27.238281-12.425781 38.980469-21.410156 11.925781 43.03125-6.125 82.546875-37.355469 114.378906zm-98.960938-107.667969c-67.789062-25.585937-103.402343-101.578125-77.410156-170.808594 35.902344-95.058593 161.503906-116.503906 226.535156-37.421874 84.683594 103.027343-20.539062 256.496093-149.125 208.230468zm207.855469 50.433594c-8.878906-24.4375-26.804688-58.527344-47.96875-79.671875 9.507812-11.328125 17.347656-24.089844 23.144531-37.917969 31.601563 31.167969 35.9375 74.234375 24.824219 117.589844zm-22.347656-225.179688c-5.164063-14.125-12.425782-27.238281-21.410156-38.980468 43.03125-11.925782 82.546874 6.121094 114.378906 37.351562-27.394532-4.78125-65.574219-5.691406-92.96875 1.628906zm0 0"/></svg>