<svg height="512pt" viewBox="0 -1 512 512" width="512pt" xmlns="http://www.w3.org/2000/svg"><path d="m442.808594 7.597656c-24.601563-.195312-45.914063 13.925782-56.136719 34.519532-.605469 1.214843-2.226563 1.40625-3.128906.394531-7.191407-8.085938-17.675781-13.183594-29.347657-13.183594-21.699218 0-39.285156 17.585937-39.285156 39.28125 0 2.199219.183594 4.347656.535156 6.445313.191407 1.15625-.6875 2.207031-1.863281 2.207031h-57.078125c-14.855468 0-27.410156 11.648437-27.820312 26.496093-.421875 15.40625 11.941406 28.027344 27.253906 28.027344h186.371094c33.949218 0 61.535156-27.246094 62.085937-61.0625.558594-34.289062-27.292969-62.855468-61.585937-63.125zm0 0" fill="#a0cafe"/><path d="m442.304688 131.785156h-186.367188c-15.058594 0-27.257812-12.210937-27.257812-27.257812 0-4.375 1.03125-8.503906 2.863281-12.171875 1.246093.183593 2.53125.273437 3.828125.273437h186.367187c34.296875 0 62.101563-27.792968 62.101563-62.089844 0-2.5-.152344-4.972656-.445313-7.402343 42.539063 37.558593 16.246094 108.648437-41.089843 108.648437zm0 0" fill="#81b8fd"/><path d="m63.652344 46.660156c23.988281-1.117187 44.960937 12.285156 54.90625 32.164063.59375 1.1875 2.195312 1.433593 3.078125.445312 6.746093-7.539062 16.546875-12.289062 27.460937-12.289062 20.355469 0 36.851563 16.5 36.851563 36.847656 0 2.019531-.167969 4-.484375 5.929687-.1875 1.148438.699218 2.1875 1.863281 2.1875h158.988281c14.335938 0 26.414063 11.730469 26.144532 26.066407-.261719 13.894531-11.609376 25.078125-25.566407 25.078125h-280.449219c-33.082031 0-59.722656-27.582032-58.179687-61.003906 1.375-29.820313 25.566406-54.03125 55.386719-55.425782zm0 0" fill="#c0dbff"/><path d="m372.464844 137.519531c0 14.125-11.453125 25.566407-25.566406 25.566407h-280.457032c-32.160156 0-58.242187-26.074219-58.242187-58.242188 0-30.0625 22.78125-54.800781 52.015625-57.910156-4.101563 7.980468-6.421875 17.019531-6.421875 26.609375 0 32.160156 26.074219 58.246093 58.246093 58.246093h259.769532c.433594 1.839844.65625 3.753907.65625 5.730469zm0 0" fill="#a0cafe"/><path d="m346.054688 111.949219c-31.796876 0-62.195313 15.140625-73.84375 44.09375-.71875 1.785156-3.015626 2.332031-4.464844 1.0625-32.617188-28.515625-85.132813-.65625-78.125 43.230469.28125 1.742187-1.035156 3.328124-2.800782 3.328124h-35.808593c-18.523438 0-34.035157 15.160157-33.679688 33.679688.34375 17.945312 15 32.386719 33.027344 32.386719h193.101563c103.667968 0 110.347656-157.78125 2.59375-157.78125zm0 0" fill="#e6f1ff"/><path d="m408.230469 139.683594c-9.851563-4.222656-21.417969-6.628906-34.722657-6.628906-31.792968 0-62.191406 15.136718-73.835937 44.097656-.71875 1.78125-3.019531 2.328125-4.464844 1.050781-32.617187-28.511719-85.140625-.65625-78.132812 43.238281.285156 1.742188-1.03125 3.332032-2.792969 3.332032h-35.816406c-18.519532 0-34.035156 15.148437-33.679688 33.667968.070313 3.910156.832032 7.65625 2.15625 11.117188-16.421875-1.691406-29.28125-15.410156-29.605468-32.21875-.355469-18.519532 15.148437-33.679688 33.675781-33.679688h35.804687c1.773438 0 3.078125-1.578125 2.804688-3.332031-7.003906-43.882813 45.507812-71.742187 78.121094-43.226563 1.449218 1.277344 3.75.730469 4.46875-1.054687 11.652343-28.957031 42.042968-44.097656 73.847656-44.097656 28.765625.003906 49.382812 11.25 62.171875 27.734375zm0 0" fill="#d9e9ff"/><path d="m471.753906 431.671875h-242.402344c-4.195312 0-7.59375 3.402344-7.59375 7.597656 0 4.191407 3.398438 7.59375 7.59375 7.59375h242.402344c13.441406 0 24.378906 10.933594 24.378906 24.378907 0 13.4375-10.9375 24.375-24.378906 24.375h-41.972656c-4.195312 0-7.59375 3.402343-7.59375 7.59375 0 4.195312 3.398438 7.59375 7.59375 7.59375h41.972656c21.816406 0 39.566406-17.75 39.566406-39.5625 0-21.820313-17.75-39.570313-39.566406-39.570313zm0 0"/><path d="m289.5625 307.855469c0-4.195313-3.398438-7.597657-7.59375-7.597657h-242.402344c-13.441406 0-24.378906-10.933593-24.378906-24.375 0-13.441406 10.9375-24.378906 24.378906-24.378906h41.972656c4.195313 0 7.59375-3.398437 7.59375-7.59375 0-4.195312-3.398437-7.59375-7.59375-7.59375h-41.972656c-21.816406 0-39.566406 17.75-39.566406 39.566406 0 21.816407 17.75 39.566407 39.566406 39.566407h242.402344c4.195312 0 7.59375-3.402344 7.59375-7.59375zm0 0"/><path d="m230.253906 395.421875c0-4.195313-3.402344-7.597656-7.597656-7.597656h-151.886719c-4.195312 0-7.59375 3.402343-7.59375 7.597656 0 4.191406 3.398438 7.59375 7.59375 7.59375h151.886719c4.195312 0 7.597656-3.402344 7.597656-7.59375zm0 0"/><path d="m253.035156 387.824219c-4.195312 0-7.59375 3.402343-7.59375 7.597656 0 4.191406 3.398438 7.59375 7.59375 7.59375h76.496094c4.195312 0 7.59375-3.402344 7.59375-7.59375 0-4.195313-3.398438-7.597656-7.59375-7.597656zm0 0"/><path d="m398.621094 350.175781c0-4.191406-3.398438-7.59375-7.59375-7.59375h-162.015625c-4.191407 0-7.59375 3.402344-7.59375 7.59375 0 4.195313 3.402343 7.597657 7.59375 7.597657h162.015625c4.195312 0 7.59375-3.402344 7.59375-7.597657zm0 0"/><path d="m132.265625 342.582031c-4.195313 0-7.59375 3.402344-7.59375 7.59375 0 4.195313 3.398437 7.597657 7.59375 7.597657h66.371094c4.195312 0 7.59375-3.402344 7.59375-7.597657 0-4.191406-3.398438-7.59375-7.59375-7.59375zm0 0"/><path d="m66.441406 170.679688h119.597656c-3.652343 8.152343-5.101562 16.839843-4.527343 25.386718h-31.15625c-22.398438 0-40.625 18.226563-40.625 40.636719 0 22.398437 18.226562 40.625 40.625 40.625h193.109375c32.746094 0 59.449218-14.582031 75.207031-41.042969 2.144531-3.601562.960937-8.261718-2.644531-10.40625-3.605469-2.148437-8.261719-.964844-10.410156 2.640625-12.898438 21.679688-34.972657 33.617188-62.152344 33.617188h-193.109375c-14.023438 0-25.4375-11.410157-25.4375-25.433594 0-14.035156 11.414062-25.449219 25.4375-25.449219h39.90625c4.878906 0 8.476562-4.523437 7.410156-9.253906-8.988281-39.699219 39.765625-65.261719 67.664063-36.726562 3.980468 4.089843 10.867187 2.488281 12.644531-2.914063 20.1875-61.347656 138.503906-60.566406 138.503906 25.890625 0 4.828125-.4375 9.699219-1.308594 14.460938-.75 4.128906 1.996094 8.078124 6.117188 8.828124 4.140625.757813 8.078125-1.984374 8.828125-6.117187 4.476562-24.484375-1.003906-48.300781-12.867188-66.039063h25.050782c38.425781 0 69.695312-31.269531 69.695312-69.6875 0-38.425781-31.269531-69.695312-69.695312-69.695312-23.980469 0-46.003907 12.3125-58.679688 32.097656-30.972656-25.074218-77.460938-1.867187-76.300781 37.566406h-51.386719c-19.160156 0-34.753906 15.546876-34.851562 34.683594h-27.542969v-.515625c0-37.269531-43.234375-57.703125-71.933594-34.9375-12.03125-18.449219-32.6875-29.890625-55.167969-29.890625-36.300781 0-65.839844 29.539063-65.839844 65.839844s29.539063 65.835938 65.839844 65.835938zm189.496094-85.824219h59.933594c4.929687 0 8.46875-4.566407 7.414062-9.253907-4.492187-20.070312 10.851563-38.683593 30.902344-38.683593 9.953125 0 19.140625 4.546875 25.203125 12.484375 3.507813 4.597656 10.671875 3.71875 12.992187-1.566406 8.6875-19.828126 28.292969-32.648438 49.921876-32.648438 30.050781 0 54.507812 24.457031 54.507812 54.507812 0 30.042969-24.457031 54.5-54.507812 54.5h-38.386719c-15.851563-13.824218-36.402344-19.847656-57.019531-19.847656h-110.617188c.09375-10.765625 8.871094-19.492187 19.65625-19.492187zm-189.496094-30.664063c20.109375 0 38.328125 11.910156 46.40625 30.339844 2.339844 5.304688 9.492188 6.144531 12.992188 1.558594 16.890625-22.121094 52.511718-10.210938 52.511718 17.738281 0 6.457031-2.402343 8.898437.761719 12.859375 1.4375 1.804688 3.625 2.847656 5.933594 2.847656h107.941406c-10.785156 7.179688-19.453125 16.6875-25.222656 27.988282-23.105469-15.992188-53.476563-11.09375-71.539063 7.96875h-129.785156c-27.925781 0-50.648437-22.722657-50.648437-50.648438 0-27.929688 22.722656-50.652344 50.648437-50.652344zm0 0"/></svg>