<svg height="511pt" viewBox="0 -1 511.99996 511" width="511pt" xmlns="http://www.w3.org/2000/svg"><path d="m442.660156 8.109375c-24.625-.195313-45.957031 13.941406-56.195312 34.558594-.601563 1.214843-2.226563 1.40625-3.128906.390625-7.203126-8.09375-17.691407-13.199219-29.378907-13.199219-21.722656 0-39.328125 17.609375-39.328125 39.328125 0 2.195312.1875 4.351562.539063 6.449219.191406 1.15625-.691407 2.210937-1.863281 2.210937h-57.140626c-14.871093 0-27.4375 11.65625-27.847656 26.519532-.421875 15.421874 11.953125 28.058593 27.28125 28.058593h186.5625c33.984375 0 61.601563-27.273437 62.152344-61.128906.554688-34.320313-27.324219-62.914063-61.652344-63.1875zm0 0" fill="#81b8fd"/><path d="m442.15625 132.429688h-186.558594c-15.074218 0-27.285156-12.226563-27.285156-27.289063 0-4.378906 1.03125-8.511719 2.867188-12.183594 1.246093.183594 2.535156.273438 3.832031.273438h186.558593c34.332032 0 62.164063-27.824219 62.164063-62.15625 0-2.503907-.152344-4.976563-.445313-7.410157 42.585938 37.597657 16.261719 108.765626-41.132812 108.765626zm0 0" fill="#62a6fd"/><path d="m63.113281 47.214844c24.015625-1.121094 45.011719 12.292968 54.964844 32.195312.59375 1.1875 2.195313 1.433594 3.082031.445313 6.753906-7.546875 16.5625-12.300781 27.488282-12.300781 20.375 0 36.886718 16.515624 36.886718 36.886718 0 2.019532-.167968 4.003906-.480468 5.933594-.1875 1.148438.699218 2.191406 1.863281 2.191406h159.152343c14.351563 0 26.441407 11.742188 26.171876 26.09375-.265626 13.90625-11.621094 25.101563-25.59375 25.101563h-280.738282c-33.113281 0-59.785156-27.609375-58.242187-61.066407 1.375-29.851562 25.59375-54.085937 55.445312-55.480468zm0 0" fill="#a0cafe"/><path d="m372.246094 138.164062c0 14.140626-11.464844 25.597657-25.59375 25.597657h-280.746094c-32.191406 0-58.304688-26.101563-58.304688-58.304688 0-30.097656 22.808594-54.859375 52.070313-57.972656-4.105469 7.988281-6.425781 17.039063-6.425781 26.640625 0 32.191406 26.101562 58.304688 58.304687 58.304688h260.035157c.4375 1.84375.660156 3.757812.660156 5.734374zm0 0" fill="#81b8fd"/><path d="m345.808594 112.570312c-31.832032 0-62.261719 15.15625-73.921875 44.140626-.71875 1.789062-3.019531 2.332031-4.46875 1.0625-32.648438-28.542969-85.21875-.660157-78.207031 43.273437.28125 1.746094-1.035157 3.335937-2.800782 3.335937h-35.847656c-18.542969 0-34.070312 15.171876-33.714844 33.710938.34375 17.964844 15.015625 32.421875 33.0625 32.421875h193.300782c103.773437 0 110.460937-157.945313 2.597656-157.945313zm0 0" fill="#2583fa"/><path d="m408.046875 140.335938c-9.863281-4.226563-21.4375-6.640626-34.757813-6.640626-31.828124 0-62.257812 15.152344-73.914062 44.144532-.71875 1.785156-3.019531 2.332031-4.46875 1.054687-32.648438-28.546875-85.226562-.660156-78.210938 43.28125.28125 1.742188-1.035156 3.335938-2.796874 3.335938h-35.855469c-18.539063 0-34.066407 15.164062-33.710938 33.703125.070313 3.910156.832031 7.660156 2.15625 11.128906-16.4375-1.691406-29.3125-15.429688-29.636719-32.253906-.355468-18.539063 15.164063-33.714844 33.714844-33.714844h35.839844c1.773438 0 3.082031-1.582031 2.808594-3.332031-7.015625-43.933594 45.550781-71.816407 78.203125-43.273438 1.449219 1.277344 3.75.730469 4.46875-1.054687 11.667969-28.988282 42.085937-44.144532 73.925781-44.144532 28.796875 0 49.433594 11.261719 62.234375 27.765626zm0 0" fill="#0671f9"/><path d="m504.019531 37.988281c-1.945312-3.71875-6.539062-5.160156-10.257812-3.214843-3.722657 1.949218-5.160157 6.539062-3.214844 10.257812 18.910156 36.183594-7.496094 79.796875-48.390625 79.796875h-38.425781c-15.867188-13.839844-36.441407-19.867187-57.078125-19.867187h-110.730469c.09375-10.777344 8.878906-19.515626 19.675781-19.515626h59.996094c2.3125 0 4.5-1.042968 5.941406-2.847656 3.207032-4.019531.699219-6.585937.699219-13.410156 0-30.273438 38.582031-43.265625 56.945313-19.226562 3.511718 4.597656 10.683593 3.71875 13.003906-1.574219 13.800781-31.496094 52.820312-42.355469 80.816406-23.128907 3.46875 2.382813 8.191406 1.5 10.574219-1.957031 2.382812-3.464843 1.5-8.199219-1.96875-10.570312-32.492188-22.335938-77.019531-13.136719-98.1875 19.90625-30.839844-24.96875-77.546875-2.078125-76.378907 37.605469h-51.441406c-19.179687 0-34.789062 15.558593-34.890625 34.71875h-27.570312c0-38.386719-43.554688-58.058594-72.007813-35.488282-12.042968-18.46875-32.71875-29.921875-55.222656-29.921875-36.339844 0-65.90625 29.566407-65.90625 65.90625 0 36.335938 29.566406 65.90625 65.90625 65.90625h21.824219c4.195312 0 7.601562-3.40625 7.601562-7.601562 0-4.199219-3.40625-7.605469-7.601562-7.605469h-21.824219c-27.957031 0-50.703125-22.746094-50.703125-50.699219 0-27.957031 22.746094-50.703125 50.703125-50.703125 20.132812 0 38.367188 11.921875 46.453125 30.367188 2.339844 5.3125 9.503906 6.152344 13.007813 1.5625 18.769531-24.585938 58.742187-6.730469 51.847656 24.214844-1.058594 4.691406 2.484375 9.265624 7.417968 9.265624h108.054688c-10.796875 7.1875-19.472656 16.703126-25.25 28.015626-23.128906-16.007813-53.53125-11.105469-71.613281 7.976562h-77.683594c-4.199219 0-7.605469 3.40625-7.605469 7.605469 0 4.195312 3.40625 7.601562 7.605469 7.601562h67.484375c-3.65625 8.15625-5.105469 16.855469-4.53125 25.410157h-31.1875c-22.421875 0-40.667969 18.246093-40.667969 40.675781 0 22.421875 18.246094 40.667969 40.667969 40.667969h193.308594c32.78125 0 59.511718-14.59375 75.285156-41.082032 2.148438-3.609375.960938-8.269531-2.648438-10.421875-3.605468-2.148437-8.269531-.960937-10.417968 2.648438-12.914063 21.699219-35.011719 33.652343-62.21875 33.652343h-193.308594c-14.039062 0-25.460938-11.425781-25.460938-25.464843 0-14.046875 11.421876-25.472657 25.460938-25.472657h39.945312c4.886719 0 8.488282-4.527343 7.421876-9.261718-9.035157-39.898438 39.886718-65.246094 67.730468-36.765625 3.984375 4.09375 10.878906 2.488281 12.660156-2.917969 20.210938-61.417969 138.644532-60.585938 138.644532 25.917969 0 4.835937-.433594 9.710937-1.308594 14.472656-.75 4.136719 2 8.089844 6.125 8.839844 4.132812.761719 8.085938-1.984375 8.835938-6.121094 4.484374-24.511719-1-48.351563-12.882813-66.109375h25.078125c52.238281 0 86.082031-55.699219 61.863281-102.042969zm0 0"/><path d="m35.023438 192.144531c-4.199219 0-7.601563 3.40625-7.601563 7.601563v25.84375c0 4.195312 3.402344 7.601562 7.601563 7.601562 4.199218 0 7.601562-3.40625 7.601562-7.601562v-25.84375c0-4.195313-3.402344-7.601563-7.601562-7.601563zm0 0"/><path d="m35.023438 269.800781c-4.199219 0-7.601563 3.402344-7.601563 7.601563v25.839844c0 4.199218 3.402344 7.605468 7.601563 7.605468 4.199218 0 7.601562-3.40625 7.601562-7.605468v-25.839844c0-4.199219-3.402344-7.601563-7.601562-7.601563zm0 0"/><path d="m35.023438 347.457031c-4.199219 0-7.601563 3.402344-7.601563 7.601563v25.839844c0 4.199218 3.402344 7.601562 7.601563 7.601562 4.199218 0 7.601562-3.402344 7.601562-7.601562v-25.839844c0-4.199219-3.402344-7.601563-7.601562-7.601563zm0 0"/><path d="m35.023438 425.113281c-4.199219 0-7.601563 3.402344-7.601563 7.601563v25.839844c0 4.199218 3.402344 7.601562 7.601563 7.601562 4.199218 0 7.601562-3.402344 7.601562-7.601562v-25.839844c0-4.199219-3.402344-7.601563-7.601562-7.601563zm0 0"/><path d="m83.003906 192.144531c-4.199218 0-7.601562 3.40625-7.601562 7.601563v25.84375c0 4.195312 3.402344 7.601562 7.601562 7.601562 4.199219 0 7.601563-3.40625 7.601563-7.601562v-25.84375c0-4.195313-3.402344-7.601563-7.601563-7.601563zm0 0"/><path d="m83.003906 269.800781c-4.199218 0-7.601562 3.402344-7.601562 7.601563v25.839844c0 4.199218 3.402344 7.605468 7.601562 7.605468 4.199219 0 7.601563-3.40625 7.601563-7.605468v-25.839844c0-4.199219-3.402344-7.601563-7.601563-7.601563zm0 0"/><path d="m83.003906 347.457031c-4.199218 0-7.601562 3.402344-7.601562 7.601563v25.839844c0 4.199218 3.402344 7.601562 7.601562 7.601562 4.199219 0 7.601563-3.402344 7.601563-7.601562v-25.839844c0-4.199219-3.402344-7.601563-7.601563-7.601563zm0 0"/><path d="m83.003906 425.113281c-4.199218 0-7.601562 3.402344-7.601562 7.601563v25.839844c0 4.199218 3.402344 7.601562 7.601562 7.601562 4.199219 0 7.601563-3.402344 7.601563-7.601562v-25.839844c0-4.199219-3.402344-7.601563-7.601563-7.601563zm0 0"/><path d="m174.417969 299.929688c-4.199219 0-7.601563 3.402343-7.601563 7.601562v27.625c0 4.199219 3.402344 7.601562 7.601563 7.601562s7.601562-3.402343 7.601562-7.601562v-27.625c0-4.199219-3.402343-7.601562-7.601562-7.601562zm0 0"/><path d="m174.417969 382.949219c-4.199219 0-7.601563 3.402343-7.601563 7.601562v27.625c0 4.199219 3.402344 7.601563 7.601563 7.601563s7.601562-3.402344 7.601562-7.601563v-27.625c0-4.199219-3.402343-7.601562-7.601562-7.601562zm0 0"/><path d="m174.417969 465.96875c-4.199219 0-7.601563 3.402344-7.601563 7.601562v27.625c0 4.199219 3.402344 7.601563 7.601563 7.601563s7.601562-3.402344 7.601562-7.601563v-27.625c0-4.199218-3.402343-7.601562-7.601562-7.601562zm0 0"/><path d="m222.398438 299.929688c-4.199219 0-7.605469 3.402343-7.605469 7.601562v27.625c0 4.199219 3.40625 7.601562 7.605469 7.601562 4.199218 0 7.601562-3.402343 7.601562-7.601562v-27.625c0-4.199219-3.402344-7.601562-7.601562-7.601562zm0 0"/><path d="m222.398438 382.949219c-4.199219 0-7.605469 3.402343-7.605469 7.601562v27.625c0 4.199219 3.40625 7.601563 7.605469 7.601563 4.199218 0 7.601562-3.402344 7.601562-7.601563v-27.625c0-4.199219-3.402344-7.601562-7.601562-7.601562zm0 0"/><path d="m222.398438 465.96875c-4.199219 0-7.605469 3.402344-7.605469 7.601562v27.625c0 4.199219 3.40625 7.601563 7.605469 7.601563 4.199218 0 7.601562-3.402344 7.601562-7.601563v-27.625c0-4.199218-3.402344-7.601562-7.601562-7.601562zm0 0"/><path d="m270.375 299.929688c-4.199219 0-7.601562 3.402343-7.601562 7.601562v27.625c0 4.199219 3.402343 7.601562 7.601562 7.601562s7.605469-3.402343 7.605469-7.601562v-27.625c0-4.199219-3.40625-7.601562-7.605469-7.601562zm0 0"/><path d="m270.375 382.949219c-4.199219 0-7.601562 3.402343-7.601562 7.601562v27.625c0 4.199219 3.402343 7.601563 7.601562 7.601563s7.605469-3.402344 7.605469-7.601563v-27.625c0-4.199219-3.40625-7.601562-7.605469-7.601562zm0 0"/><path d="m270.375 465.96875c-4.199219 0-7.601562 3.402344-7.601562 7.601562v27.625c0 4.199219 3.402343 7.601563 7.601562 7.601563s7.605469-3.402344 7.605469-7.601563v-27.625c0-4.199218-3.40625-7.601562-7.605469-7.601562zm0 0"/><path d="m318.355469 299.929688c-4.199219 0-7.601563 3.402343-7.601563 7.601562v27.625c0 4.199219 3.402344 7.601562 7.601563 7.601562s7.601562-3.402343 7.601562-7.601562v-27.625c0-4.199219-3.402343-7.601562-7.601562-7.601562zm0 0"/><path d="m318.355469 382.949219c-4.199219 0-7.601563 3.402343-7.601563 7.601562v27.625c0 4.199219 3.402344 7.601563 7.601563 7.601563s7.601562-3.402344 7.601562-7.601563v-27.625c0-4.199219-3.402343-7.601562-7.601562-7.601562zm0 0"/><path d="m318.355469 465.96875c-4.199219 0-7.601563 3.402344-7.601563 7.601562v27.625c0 4.199219 3.402344 7.601563 7.601563 7.601563s7.601562-3.402344 7.601562-7.601563v-27.625c0-4.199218-3.402343-7.601562-7.601562-7.601562zm0 0"/><path d="m366.332031 299.929688c-4.199219 0-7.601562 3.402343-7.601562 7.601562v27.625c0 4.199219 3.402343 7.601562 7.601562 7.601562s7.601563-3.402343 7.601563-7.601562v-27.625c0-4.199219-3.402344-7.601562-7.601563-7.601562zm0 0"/><path d="m366.332031 382.949219c-4.199219 0-7.601562 3.402343-7.601562 7.601562v27.625c0 4.199219 3.402343 7.601563 7.601562 7.601563s7.601563-3.402344 7.601563-7.601563v-27.625c0-4.199219-3.402344-7.601562-7.601563-7.601562zm0 0"/><path d="m366.332031 465.96875c-4.199219 0-7.601562 3.402344-7.601562 7.601562v27.625c0 4.199219 3.402343 7.601563 7.601562 7.601563s7.601563-3.402344 7.601563-7.601563v-27.625c0-4.199218-3.402344-7.601562-7.601563-7.601562zm0 0"/><path d="m472.914062 161.664062c-4.199218 0-7.601562 3.40625-7.601562 7.601563v30.402344c0 4.199219 3.402344 7.601562 7.601562 7.601562 4.199219 0 7.601563-3.402343 7.601563-7.601562v-30.402344c0-4.195313-3.402344-7.601563-7.601563-7.601563zm0 0"/><path d="m472.914062 253.027344c-4.199218 0-7.601562 3.402344-7.601562 7.601562v30.402344c0 4.199219 3.402344 7.601562 7.601562 7.601562 4.199219 0 7.601563-3.402343 7.601563-7.601562v-30.402344c0-4.199218-3.402344-7.601562-7.601563-7.601562zm0 0"/><path d="m472.914062 344.390625c-4.199218 0-7.601562 3.402344-7.601562 7.601563v30.402343c0 4.195313 3.402344 7.601563 7.601562 7.601563 4.199219 0 7.601563-3.40625 7.601563-7.601563v-30.402343c0-4.199219-3.402344-7.601563-7.601563-7.601563zm0 0"/><path d="m472.914062 435.753906c-4.199218 0-7.601562 3.402344-7.601562 7.601563v30.402343c0 4.199219 3.402344 7.601563 7.601562 7.601563 4.199219 0 7.601563-3.402344 7.601563-7.601563v-30.402343c0-4.199219-3.402344-7.601563-7.601563-7.601563zm0 0"/></svg>