<svg height="512pt" viewBox="-1 0 512 512.00065" width="512pt" xmlns="http://www.w3.org/2000/svg"><path d="m441.757812 7.59375c-24.574218-.191406-45.867187 13.910156-56.082031 34.488281-.601562 1.210938-2.222656 1.402344-3.121093.390625-7.1875-8.078125-17.660157-13.171875-29.320313-13.171875-21.675781 0-39.246094 17.570313-39.246094 39.246094 0 2.191406.1875 4.34375.535157 6.4375.191406 1.152344-.6875 2.203125-1.859376 2.203125h-57.023437c-14.839844 0-27.382813 11.636719-27.789063 26.46875-.421874 15.390625 11.929688 28 27.222657 28h186.183593c33.914063 0 61.472657-27.21875 62.023438-61.003906.558594-34.253906-27.265625-62.789063-61.523438-63.058594zm0 0" fill="#a0cafe"/><path d="m441.253906 131.660156h-186.179687c-15.039063 0-27.230469-12.199218-27.230469-27.234375 0-4.367187 1.03125-8.496093 2.863281-12.15625 1.246094.179688 2.527344.273438 3.824219.273438h186.175781c34.261719 0 62.039063-27.769531 62.039063-62.03125 0-2.496094-.148438-4.964844-.441406-7.394531 42.496093 37.519531 16.226562 108.542968-41.050782 108.542968zm0 0" fill="#81b8fd"/><path d="m62.984375 46.617188c23.964844-1.117188 44.917969 12.273437 54.851563 32.132812.59375 1.183594 2.191406 1.429688 3.074218.441406 6.742188-7.53125 16.53125-12.273437 27.4375-12.273437 20.328125 0 36.808594 16.480469 36.808594 36.8125 0 2.015625-.167969 3.992187-.480469 5.921875-.1875 1.144531.699219 2.183594 1.859375 2.183594h158.828125c14.324219 0 26.390625 11.71875 26.117188 26.039062-.261719 13.882812-11.597657 25.050781-25.539063 25.050781h-280.164062c-33.050782 0-59.664063-27.550781-58.125-60.941406 1.375-29.789063 25.542968-53.972656 55.332031-55.367187zm0 0" fill="#c0dbff"/><path d="m371.484375 137.382812c0 14.113282-11.4375 25.542969-25.539063 25.542969h-280.171874c-32.128907 0-58.1875-26.046875-58.1875-58.183593 0-30.035157 22.761718-54.746094 51.964843-57.851563-4.097656 7.96875-6.414062 17.003906-6.414062 26.582031 0 32.128906 26.046875 58.1875 58.1875 58.1875h259.503906c.4375 1.839844.65625 3.75.65625 5.722656zm0 0" fill="#a0cafe"/><path d="m345.101562 111.84375c-31.765624 0-62.132812 15.121094-73.769531 44.046875-.714843 1.785156-3.011719 2.328125-4.457031 1.0625-32.585938-28.488281-85.046875-.660156-78.046875 43.183594.277344 1.742187-1.035156 3.328125-2.796875 3.328125h-35.777344c-18.5 0-33.996094 15.144531-33.644531 33.640625.34375 17.929687 14.984375 32.359375 32.996094 32.359375h192.90625c103.5625 0 110.234375-157.621094 2.589843-157.621094zm0 0" fill="#e6f1ff"/><path d="m407.214844 139.550781c-9.84375-4.21875-21.394532-6.628906-34.6875-6.628906-31.761719 0-62.128906 15.125-73.761719 44.054687-.71875 1.78125-3.015625 2.328126-4.460937 1.050782-32.582032-28.484375-85.050782-.65625-78.050782 43.195312.28125 1.738282-1.035156 3.328125-2.792968 3.328125h-35.78125c-18.5 0-33.996094 15.132813-33.644532 33.632813.074219 3.90625.832032 7.648437 2.15625 11.109375-16.40625-1.691407-29.253906-15.398438-29.578125-32.1875-.355469-18.503907 15.132813-33.644531 33.644531-33.644531h35.769532c1.769531 0 3.074218-1.578126 2.800781-3.328126-7-43.84375 45.460937-71.671874 78.042969-43.183593 1.445312 1.273437 3.742187.726562 4.460937-1.054688 11.644531-28.929687 42-44.050781 73.773438-44.050781 28.738281 0 49.332031 11.238281 62.109375 27.707031zm0 0" fill="#d9e9ff"/><path d="m229.320312 488.582031 19.933594-49.4375c4.285156-10.625-3.539062-22.214843-14.996094-22.214843h-66.8125c-12.890624 0-20.597656-14.351563-13.476562-25.101563l102.96875-155.4375c4.710938-7.113281 12.675781-11.390625 21.207031-11.390625 20.339844 0 32.453125 22.683594 21.144531 39.585938l-60.53125 90.46875h104.0625c13.992188 0 21.378907 16.566406 12.03125 26.976562l-106.417968 118.464844c-8.554688 9.519531-23.898438-.046875-19.113282-11.914063zm0 0" fill="#fdc202"/><path d="m287.535156 439.144531-13.027344 32.316407-26.078124 29.035156c-8.546876 9.515625-23.894532-.050782-19.109376-11.917969l19.929688-49.433594c4.289062-10.621093-3.53125-22.214843-14.992188-22.214843h38.289063c11.449219 0 19.277344 11.59375 14.988281 22.214843zm0 0" fill="#f0a70a"/><path d="m297.296875 233.675781c-.746094.847657-1.433594 1.757813-2.070313 2.71875l-102.96875 155.4375c-7.121093 10.742188.585938 25.097657 13.472657 25.097657h-38.285157c-12.886718 0-20.597656-14.355469-13.476562-25.097657l102.96875-155.4375c4.714844-7.121093 12.675781-11.398437 21.210938-11.398437 7.941406 0 14.628906 3.460937 19.148437 8.679687zm0 0" fill="#f0a70a"/><path d="m502.988281 37.410156c-1.941406-3.710937-6.523437-5.148437-10.234375-3.203125-3.714844 1.941407-5.152344 6.523438-3.207031 10.234375 18.871094 36.109375-7.480469 79.628906-48.292969 79.628906h-38.347656c-13.652344-11.898437-33.089844-19.824218-56.960938-19.824218h-110.503906c.089844-10.753906 8.859375-19.472656 19.632813-19.472656h59.875c4.921875 0 8.460937-4.5625 7.40625-9.246094-4.480469-20.023438 10.816406-38.640625 30.882812-38.640625 9.933594 0 19.109375 4.539062 25.167969 12.472656 3.511719 4.597656 10.667969 3.703125 12.976562-1.570313 13.773438-31.429687 52.714844-42.269531 80.652344-23.082031 3.460938 2.375 8.171875 1.496094 10.550782-1.964843 2.367187-3.449219 1.496093-8.171876-1.960938-10.539063-32.429688-22.285156-76.863281-13.105469-97.992188 19.867187-30.9375-25.046874-77.378906-1.863281-76.21875 37.53125h-51.339843c-19.136719 0-34.714844 15.527344-34.816407 34.644532h-27.515624c0-38.304688-43.464844-57.9375-71.859376-35.414063-12.019531-18.433593-32.652343-29.863281-55.109374-29.863281-36.265626 0-65.773438 29.507812-65.773438 65.773438 0 36.261718 29.507812 65.769531 65.773438 65.769531h21.777343c4.1875 0 7.585938-3.398438 7.585938-7.585938s-3.398438-7.585937-7.585938-7.585937h-21.777343c-27.898438 0-50.601563-22.699219-50.601563-50.597656 0-27.898438 22.703125-50.597657 50.601563-50.597657 20.089843 0 38.285156 11.894531 46.359374 30.304688 2.34375 5.324219 9.496094 6.117187 12.976563 1.558593 5.585937-7.3125 14.0625-11.503906 23.238281-11.503906 18.460938 0 32.636719 17.113282 28.503906 35.667969-1.054687 4.683594 2.480469 9.246094 7.40625 9.246094h107.832032c-10.570313 7.046875-19.253906 16.363281-25.199219 27.960937-23.082031-15.976562-53.421875-11.082031-71.464844 7.960938h-77.527343c-4.1875 0-7.585938 3.398437-7.585938 7.585937s3.398438 7.585938 7.585938 7.585938h67.347656c-3.640625 8.125-5.097656 16.804687-4.519532 25.359375h-31.125c-22.378906 0-40.585937 18.210937-40.585937 40.597656 0 22.375 18.207031 40.582031 40.585937 40.582031h71.304688l-73.269531 110.59375c-10.441407 15.773438.886719 36.871094 19.808593 36.871094h66.8125c6.105469 0 10.230469 6.15625 7.960938 11.796875l-19.9375 49.433594c-7.933594 19.707031 17.589844 35.628906 31.792969 19.828125l106.417969-118.476563c13.753906-15.285156 2.875-39.632812-17.671876-39.632812h-89.859374l47.121093-70.414063h42.421875c32.714844 0 59.398438-14.566406 75.140625-41 2.144531-3.601562.960938-8.253906-2.640625-10.398437-3.601562-2.144532-8.253906-.960938-10.398437 2.640625-12.886719 21.65625-34.941407 33.585937-62.101563 33.585937h-33.339844c7.738282-20.527344-7.082031-44.46875-31.015624-44.46875-11.105469 0-21.402344 5.53125-27.535157 14.789063l-19.664062 29.679687h-81.347657c-14.011718 0-25.410156-11.402344-25.410156-25.410156 0-14.023438 11.398438-25.421875 25.410156-25.421875h39.863282c4.875 0 8.46875-4.519531 7.40625-9.246094-9.007813-39.78125 39.917968-65.117187 67.59375-36.691406 3.964844 4.078125 10.851562 2.496094 12.632812-2.910156 20.191406-61.355469 138.359375-60.429688 138.359375 25.863281 0 4.828125-.433593 9.691406-1.304687 14.457031-.746094 4.117188 1.996094 8.0625 6.113281 8.808594 4.125.75 8.070313-1.980469 8.820313-6.109375 4.46875-24.460938-1.003907-48.253906-12.859376-65.972656h25.027344c52.132813 0 85.902344-55.582032 61.734375-101.835938zm-239.730469 203.171875c3.320313-5.003906 8.882813-8 14.890626-8 13.101562 0 23.855468 14.359375 13.828124 29.296875-13.738281 20.550782-5.761718 8.617188-59.519531 88.957032-3.367187 5.027343.226563 11.804687 6.300781 11.804687h104.0625c7.425782 0 11.351563 8.796875 6.382813 14.320313l-106.417969 118.464843c-2.902344 3.25-8.054687.035157-6.433594-4.003906h.011719l19.925781-49.4375c6.3125-15.664063-5.28125-32.640625-22.03125-32.640625h-66.8125c-6.839843 0-10.949218-7.609375-7.152343-13.324219 11.839843-17.871093 96.074219-145.03125 102.964843-155.4375zm0 0"/><path d="m469.511719 332.535156c-23.707031 0-23.097657.476563-23.988281-1.308594-.929688-1.871093-2.3125.878907 33.660156-46.539062 2.53125-3.339844 1.878906-8.097656-1.460938-10.628906-3.335937-2.53125-8.09375-1.878906-10.628906 1.457031l-33.421875 44.0625c-8.757813 11.542969-.515625 28.128906 13.96875 28.128906h21.875c1.839844 0 2.984375 2.007813 2.007813 3.59375l-50.375 81.957031c-2.195313 3.570313-1.078126 8.242188 2.488281 10.4375 3.574219 2.191407 8.242187 1.078126 10.4375-2.492187l50.375-81.957031c7.183593-11.683594-1.210938-26.710938-14.9375-26.710938zm0 0"/><path d="m72.703125 253.972656c-23.707031 0-23.101563.476563-23.988281-1.3125-.929688-1.871094-2.3125.882813 33.660156-46.535156 2.53125-3.339844 1.878906-8.097656-1.460938-10.632812-3.335937-2.53125-8.09375-1.878907-10.628906 1.460937l-33.425781 44.0625c-8.753906 11.539063-.511719 28.128906 13.96875 28.128906 23.714844 0 23.007813-.445312 23.933594 1.207031 1.003906 1.792969 3.792969-3.863281-50.425781 84.34375-2.195313 3.570313-1.078126 8.238282 2.488281 10.433594 3.566406 2.195313 8.242187 1.082032 10.4375-2.488281l50.378906-81.957031c7.183594-11.6875-1.214844-26.710938-14.9375-26.710938zm0 0"/></svg>