<svg height="511pt" viewBox="-87 0 511 511.99798" width="511pt" xmlns="http://www.w3.org/2000/svg"><path d="m161.5625 10.421875c-49.078125 45.101563-320.742188 283.925781 2.628906 436.949219 2.933594 1.390625 6.328125 1.390625 9.257813 0 323.375-153.023438 51.710937-391.847656 2.632812-436.949219-4.109375-3.777344-10.414062-3.777344-14.519531 0zm0 0" fill="#24d3b5"/><path d="m171.546875 435.398438c5.222656 2.832031 5.042969 10.410156-.324219 12.949218-.042968.023438-.085937.042969-.132812.066406-2.925782 1.386719-3.96875.34375-6.894532-1.039062-323.371093-153.023438-51.710937-391.851562-2.640624-436.957031 4.109374-3.773438 10.421874-3.773438 14.53125 0 2.800781 2.582031 6.332031 5.789062 10.441406 9.574219-65.734375 60.699218-281.035156 271.226562-14.980469 415.40625zm0 0" fill="#20b7a1"/><path d="m81.308594 387.007812c-43.507813-36.773437-65.570313-79.175781-65.570313-126.03125 0-106.875 111.050781-208.460937 147.546875-241.84375 3.644532-3.332031 4.003906-3.957031 5.535156-3.957031 1.542969 0 1.957032.683594 5.539063 3.957031 19.460937 17.804688 65.046875 59.5 100.109375 111.292969 2.347656 3.46875 7.070312 4.378907 10.539062 2.03125 3.46875-2.351562 4.378907-7.070312 2.027344-10.539062-36.066406-53.277344-82.574218-95.820313-102.433594-113.984375-3.722656-3.40625-7.742187-7.933594-15.78125-7.933594-8.035156 0-12.0625 4.535156-15.78125 7.933594-203.65625 186.300781-173.660156 312.792968-81.527343 390.667968 3.195312 2.703126 7.984375 2.304688 10.691406-.898437 2.707031-3.199219 2.304687-7.988281-.894531-10.695313zm0 0"/><path d="m303.398438 148.210938c-2.066407-3.644532-6.699219-4.925782-10.34375-2.859376-3.644532 2.066407-4.929688 6.695313-2.863282 10.339844 71.523438 126.25 17.132813 217.878906-113.78125 281.832032v-59.703126c23.84375-2.53125 44.757813-22.027343 44.757813-51.820312 0-4.1875-3.398438-7.585938-7.589844-7.585938-4.1875 0-7.585937 3.398438-7.585937 7.585938 0 20.84375-13.574219 34.066406-29.582032 36.527344v-90.628906c23.84375-2.53125 44.757813-22.03125 44.757813-51.820313 0-4.191406-3.398438-7.589844-7.589844-7.589844-4.1875 0-7.585937 3.398438-7.585937 7.589844 0 20.839844-13.574219 34.0625-29.582032 36.523437v-79.152343c23.84375-2.53125 44.757813-22.027344 44.757813-51.820313 0-4.191406-3.398438-7.585937-7.589844-7.585937-4.1875 0-7.585937 3.394531-7.585937 7.585937 0 20.84375-13.574219 34.0625-29.582032 36.523438v-82.363282c0-4.191406-3.398437-7.589843-7.589844-7.589843-4.191406 0-7.585937 3.398437-7.585937 7.589843v136.714844c-16.042969-2.011718-30.542969-15.027344-30.542969-36.644531 0-4.191406-3.398437-7.589844-7.589844-7.589844-4.1875 0-7.585937 3.398438-7.585937 7.589844 0 29.996094 21.320313 49.785156 45.71875 51.902344v79.191406c-16.042969-2.011719-30.542969-15.03125-30.542969-36.648437 0-4.191407-3.398437-7.589844-7.589844-7.589844-4.1875 0-7.585937 3.398437-7.585937 7.589844 0 30 21.320313 49.785156 45.71875 51.90625v111.3125c-20.996094-10.257813-39.945313-21.199219-56.394531-32.570313-3.449219-2.386719-8.175782-1.523437-10.558594 1.921875-2.382812 3.449219-1.519531 8.175781 1.925781 10.558594 20.957031 14.492187 47.542969 29.015625 65.023438 36.914062v50.0625c0 4.191406 3.398437 7.585938 7.589843 7.585938 4.191407 0 7.589844-3.394532 7.589844-7.585938v-50.0625c.09375-.042968.191406-.074218.285156-.117187 143.144532-67.738281 204.085938-169.425781 126.703126-306.019531zm0 0"/></svg>