<svg height="511pt" viewBox="0 -6 511.99971 511" width="511pt" xmlns="http://www.w3.org/2000/svg"><path d="m324.65625 491.484375h61.683594c7.476562 0 13.648437-5.851563 14.03125-13.320313 2.273437-44.757812 16.3125-191.226562 102.917968-267.898437 2.667969-2.367187.421876-6.722656-3.058593-5.945313-43.441407 9.714844-180.875 61.441407-175.574219 287.164063zm0 0" fill="#24d3b5"/><path d="m503.289062 210.269531c-3.175781 2.8125-6.25 5.714844-9.234374 8.699219-57.136719 27.503906-138.335938 98.023438-134.238282 272.511719h-35.15625c-5.304687-225.71875 132.125-277.445313 175.574219-287.160157 3.476563-.78125 5.726563 3.578126 3.054687 5.949219zm0 0" fill="#20b7a1"/><path d="m222.164062 491.484375s-93.128906-321.789063 80.390626-482.507813c2.535156-2.34375 6.503906.089844 5.6875 3.492188-13.589844 56.699219-70.4375 322.804688 2.730468 479.015625zm0 0" fill="#24d3b5"/><path d="m308.246094 12.472656c-2.101563 8.742188-5.226563 22.472656-8.742188 40.011719-120.363281 168.875-42.179687 438.996094-42.179687 438.996094h-35.160157s-93.128906-321.785157 80.394532-482.503907c2.53125-2.347656 6.5.089844 5.6875 3.496094zm0 0" fill="#20b7a1"/><path d="m256.160156 491.484375h81.941406s.359376-237.214844 114.59375-349.292969c2.496094-2.453125.164063-6.640625-3.242187-5.824218-44.679687 10.710937-199.152344 71.398437-193.292969 355.117187zm0 0" fill="#24d3b5"/><path d="m452.699219 142.191406c-3.183594 3.125-6.269531 6.339844-9.273438 9.644532-62.332031 31.480468-156.707031 116.726562-152.109375 339.644531h-35.15625c-5.859375-283.714844 148.609375-344.40625 193.292969-355.117188 3.40625-.8125 5.738281 3.375 3.246094 5.828125zm0 0" fill="#20b7a1"/><path d="m255.835938 491.484375h-81.941407s-.363281-237.214844-114.59375-349.292969c-2.496093-2.453125-.164062-6.640625 3.238281-5.824218 44.683594 10.710937 199.15625 71.398437 193.296876 355.117187zm0 0" fill="#24d3b5"/><path d="m209.054688 491.480469h-35.15625s-.363282-237.210938-114.601563-349.289063c-2.5-2.453125-.160156-6.640625 3.246094-5.828125 9.574219 2.292969 24.179687 6.882813 41.1875 15.472657 104.984375 115.449218 105.324219 339.644531 105.324219 339.644531zm0 0" fill="#20b7a1"/><path d="m187.339844 491.484375h-61.683594c-7.480469 0-13.652344-5.851563-14.03125-13.320313-2.277344-44.757812-16.316406-191.226562-102.917969-267.898437-2.671875-2.367187-.425781-6.722656 3.058594-5.945313 43.441406 9.714844 180.875 61.441407 175.574219 287.164063zm0 0" fill="#24d3b5"/><path d="m160.816406 491.480469h-35.15625c-7.484375 0-13.652344-5.84375-14.035156-13.320313-2.269531-44.75-16.3125-191.222656-102.914062-267.890625-2.675782-2.371093-.421876-6.730469 3.050781-5.949219 9.855469 2.203126 24.5625 6.570313 41.339843 14.648438 78.382813 78.566406 91.492188 216.078125 93.683594 259.191406.378906 7.476563 6.546875 13.320313 14.03125 13.320313zm0 0" fill="#20b7a1"/><path d="m498.585938 196.96875c-19.007813 4.25-68.902344 19.40625-111.605469 66.632812 16.082031-42.445312 38.847656-84.503906 70.992187-116.035156 7.925782-7.773437.558594-21.117187-10.277344-18.523437-63.617187 15.234375-129.148437 67.027343-165.789062 154.910156.128906-51.753906 4.871094-108.390625 14.082031-168.382813.632813-4.117187-2.179687-7.964843-6.296875-8.589843-4.109375-.632813-7.957031 2.191406-8.589844 6.300781-10.5 68.316406-16.679687 141.898438-13.371093 211.203125-4.8125 16.695313-8.730469 34.296875-11.730469 52.769531-7.871094-48.230468-22.746094-95.722656-48.421875-137.550781 8.972656-91.09375 39.21875-163.402344 90.238281-215.605469-3.152344 14.0625-7.421875 34.445313-11.78125 59.265625-.722656 4.101563 2.007813 8.007813 6.105469 8.730469 4.101563.714844 8.007813-2.019531 8.730469-6.117188 5.988281-34.042968 11.785156-59.570312 14.695312-71.753906 2.589844-10.734375-10.210937-18.109375-18.128906-10.769531-61.421875 56.882813-91.71875 134.808594-102.707031 217.09375-36.355469-49.808594-85.742188-80.804687-130.441407-91.503906-10.8125-2.59375-18.207031 10.738281-10.265624 18.523437 32.136718 31.53125 54.898437 73.582032 70.980468 116.023438-6.96875-7.714844-14.433594-14.917969-22.378906-21.566406-3.195312-2.671876-7.945312-2.25-10.617188.941406-2.675781 3.1875-2.25 7.9375.941407 10.609375 67.324219 56.394531 87.511719 142.179687 86.984375 230.371093-4.328125 0-47.265625 0-54.273438 0-3.476562 0-6.332031-2.699218-6.511718-6.164062-4.519532-88.769531-31.015626-197.273438-93.601563-261.828125 11.863281 3.890625 27.3125 10.269531 43.867187 20.574219 3.535157 2.199218 8.175782 1.117187 10.375-2.410156 2.203126-3.535157 1.125-8.175782-2.410156-10.378907-30.921875-19.246093-61.96875-27.039062-66.429687-27.039062-9.996094 0-14.8125 12.496093-7.234375 19.203125 84.5625 74.871094 98.214844 219.957031 100.386718 262.640625.582032 11.480469 10.054688 20.472656 21.558594 20.472656h260.679688c11.5 0 20.972656-8.992187 21.554687-20.472656 2.171875-42.683594 15.824219-187.769531 100.386719-262.640625 8.371094-7.410156 1.515625-21.425782-9.695312-18.933594zm-250.160157 286.976562c-18.746093 0-34.121093 0-53.433593 0 .738281-62.324218-9.941407-127.007812-40.964844-180.464843-15.597656-55.296875-40.171875-112.472657-78.859375-155.585938 89.539062 30.582031 175.625 129.976563 173.257812 336.050781zm15.148438 0c-2.371094-205.867187 83.558593-305.414062 173.253906-336.050781-74.296875 82.792969-102.875 228.335938-106.113281 336.050781-8.035156 0-59.644532 0-67.140625 0zm129.273437-6.164062c-.179687 3.464844-3.035156 6.164062-6.507812 6.164062h-40.546875c1.640625-53.851562 10.535156-118.730468 26.230469-174.628906 35.300781-59.589844 85.546874-83.878906 114.417968-93.351562-62.582031 64.546875-89.082031 173.191406-93.59375 261.816406zm0 0"/></svg>