<svg height="511pt" viewBox="-1 1 511 511.99937" width="511pt" xmlns="http://www.w3.org/2000/svg"><path d="m447.363281 162.90625h-189.296875c-2.738281 0-4.40625-3.011719-2.960937-5.335938l62.472656-99.765624 29.492187-47.105469c2.609376-4.164063 8.667969-4.164063 11.277344 0l30.230469 48.277343 61.734375 98.59375c1.457031 2.324219-.210938 5.335938-2.949219 5.335938zm0 0" fill="#24d3b5"/><path d="m290.46875 157.570312c-1.445312 2.324219.222656 5.335938 2.960938 5.335938h-35.363282c-2.738281 0-4.40625-3.011719-2.960937-5.335938l62.472656-99.765624 29.492187-47.105469c2.609376-4.164063 8.667969-4.164063 11.277344 0l12.042969 19.238281-17.449219 27.867188zm0 0" fill="#20b7a1"/><path d="m388.578125 58.976562-4.03125 3.878907-11.527344 10.601562c-1.507812 1.371094-3.507812 1.371094-5.011719 0l-11.539062-10.601562c-1.507812-1.382813-3.507812-1.382813-5.011719 0l-11.53125 10.601562c-1.503906 1.371094-3.503906 1.371094-5.011719 0l-14.042968-12.90625s-1.242188-1.027343-3.292969-2.746093l29.492187-47.105469c2.609376-4.164063 8.667969-4.164063 11.277344 0zm0 0" fill="#beeedd"/><path d="m370.390625 29.9375-17.449219 27.867188-5.4375 8.6875-7.578125 6.964843c-1.503906 1.371094-3.503906 1.371094-5.011719 0l-14.042968-12.90625s-1.242188-1.027343-3.292969-2.746093l29.492187-47.105469c2.609376-4.164063 8.667969-4.164063 11.277344 0zm0 0" fill="#93e2c6"/><path d="m370.390625 29.9375-17.449219 27.867188-5.4375 8.6875-7.578125 6.964843c-1.503906 1.371094-3.503906 1.371094-5.011719 0l-14.042968-12.90625s-1.242188-1.027343-3.292969-2.746093l29.492187-47.105469c2.609376-4.164063 8.667969-4.164063 11.277344 0zm0 0" fill="#93e2c6"/><path d="m252.90625 162.90625h-189.296875c-2.738281 0-4.40625-3.011719-2.960937-5.335938l62.472656-99.765624 29.496094-47.105469c2.605468-4.164063 8.667968-4.164063 11.273437 0l30.230469 48.277343 61.738281 98.59375c1.453125 2.324219-.214844 5.335938-2.953125 5.335938zm0 0" fill="#24d3b5"/><path d="m96.011719 157.570312c-1.445313 2.324219.222656 5.335938 2.960937 5.335938h-35.363281c-2.738281 0-4.40625-3.011719-2.960937-5.335938l62.472656-99.765624 29.496094-47.105469c2.605468-4.164063 8.667968-4.164063 11.273437 0l12.042969 19.238281-17.449219 27.867188zm0 0" fill="#20b7a1"/><path d="m194.121094 58.976562-4.03125 3.878907-11.527344 10.601562c-1.503906 1.371094-3.507812 1.371094-5.011719 0l-11.539062-10.601562c-1.503907-1.382813-3.503907-1.382813-5.011719 0l-11.527344 10.601562c-1.507812 1.371094-3.507812 1.371094-5.011718 0l-14.046876-12.90625s-1.242187-1.027343-3.292968-2.746093l29.496094-47.105469c2.605468-4.164063 8.667968-4.164063 11.273437 0zm0 0" fill="#beeedd"/><path d="m175.933594 29.9375-17.449219 27.867188-5.433594 8.6875-7.578125 6.964843c-1.507812 1.371094-3.507812 1.371094-5.011718 0l-14.046876-12.90625s-1.242187-1.027343-3.292968-2.746093l29.496094-47.105469c2.605468-4.164063 8.667968-4.164063 11.273437 0zm0 0" fill="#93e2c6"/><path d="m175.933594 29.9375-17.449219 27.867188-5.433594 8.6875-7.578125 6.964843c-1.507812 1.371094-3.507812 1.371094-5.011718 0l-14.046876-12.90625s-1.242187-1.027343-3.292968-2.746093l29.496094-47.105469c2.605468-4.164063 8.667968-4.164063 11.273437 0zm0 0" fill="#93e2c6"/><path d="m22.40625 148.59375v345.378906c0 5.769532 4.675781 10.449219 10.449219 10.449219h445.261719c5.769531 0 10.445312-4.675781 10.445312-10.449219v-345.378906zm0 0" fill="#c97e67"/><path d="m8.078125 148.59375c0 7.902344 6.410156 14.3125 14.316406 14.3125h466.179688c7.90625 0 14.316406-6.410156 14.316406-14.3125 0-7.90625-6.410156-14.316406-14.316406-14.316406h-466.179688c-7.90625 0-14.316406 6.410156-14.316406 14.316406zm0 0" fill="#199a8e"/><path d="m402.457031 329.859375-25.332031 22.871094c-42.050781 37.972656-41.464844 103.210937 1.253906 140.460937l12.882813 11.230469h-268.613281l-12.882813-11.230469c-42.71875-37.25-43.304687-102.488281-1.25-140.460937l25.328125-22.871094c39.71875-35.875 41.75-96.664063 4.496094-134.996094l-31.039063-31.957031h268.613281l31.039063 31.957031c37.253906 38.332031 35.222656 99.125-4.496094 134.996094zm0 0" fill="#c0694e"/><path d="m362.609375 329.859375-25.332031 22.871094c-42.054688 37.972656-41.46875 103.210937 1.253906 140.460937l12.882812 11.230469h-188.914062l-12.882812-11.230469c-42.722657-37.25-43.308594-102.488281-1.253907-140.460937l25.332031-22.871094c39.71875-35.875 41.746094-96.664063 4.496094-134.996094l-31.042968-31.957031h188.917968l31.039063 31.957031c37.253906 38.332031 35.222656 99.125-4.496094 134.996094zm0 0" fill="#81b8fd"/><path d="m210.519531 194.863281-31.039062-31.957031h-32.332031l31.039062 31.957031c37.253906 38.335938 35.222656 99.121094-4.496094 135l-25.328125 22.867188c-42.054687 37.96875-41.46875 103.210937 1.25 140.464843l12.882813 11.226563h32.332031l-12.878906-11.226563c-42.722657-37.253906-43.308594-102.496093-1.253907-140.464843l25.328126-22.867188c39.71875-35.878906 41.75-96.664062 4.496093-135zm0 0" fill="#62a6fd"/><path d="m362.605469 329.863281-25.328125 22.867188c-42.054688 37.96875-41.46875 103.210937 1.25 140.464843l12.882812 11.226563h-33.339844l-12.882812-11.226563c-42.722656-37.253906-43.308594-102.496093-1.253906-140.464843l25.328125-22.867188c39.722656-35.878906 41.75-96.664062 4.5-135l-31.042969-31.957031h33.34375l31.039062 31.957031c37.253907 38.335938 35.222657 99.121094-4.496093 135zm0 0" fill="#62a6fd"/><path d="m488.574219 126.703125h-48.652344l-14.519531-23.199219c-2.222656-3.546875-6.898438-4.617187-10.445313-2.402344-3.546875 2.222657-4.617187 6.898438-2.394531 10.445313l9.484375 15.15625h-138.664063l35.894532-57.324219 10.511718 9.652344c4.421876 4.0625 10.839844 4.0625 15.261719 0l8.914063-8.1875c9.164062 8.417969 11.113281 11.234375 16.542968 11.234375 5.425782 0 7.371094-2.804687 16.550782-11.238281l9.40625 15.023437c2.222656 3.546875 6.902344 4.617188 10.449218 2.394531 3.546876-2.222656 4.625-6.898437 2.402344-10.445312l-44.546875-71.132812c-5.574219-8.914063-18.550781-8.898438-24.117187 0l-75.15625 120.023437h-20.023438l-75.15625-120.023437c-5.566406-8.902344-18.523437-8.90625-24.117187 0l-75.152344 120.023437h-48.652344c-12.074219 0-21.894531 9.820313-21.894531 21.886719 0 9.414062 5.972656 17.457031 14.328125 20.539062v324.84375c0 9.941406 8.085937 18.027344 18.023437 18.027344h445.265626c9.9375 0 18.023437-8.085938 18.023437-18.027344v-324.84375c8.355469-3.082031 14.328125-11.125 14.328125-20.539062 0-12.066406-9.820312-21.886719-21.894531-21.886719zm-135.859375-110.730469c.007812.015625 26.15625 41.785156 26.164062 41.800782l-8.371094 7.6875-8.914062-8.1875c-4.421875-4.0625-10.839844-4.0625-15.261719 0l-8.914062 8.1875-9.964844-9.152344zm-194.460938 0 26.167969 41.800782-8.367187 7.6875-8.914063-8.1875c-4.425781-4.0625-10.84375-4.0625-15.261719 0l-8.914062 8.1875-9.96875-9.15625zm-33.433594 53.402344 10.511719 9.65625c4.421875 4.0625 10.839844 4.0625 15.261719 0l8.914062-8.1875c9.167969 8.417969 11.117188 11.234375 16.546876 11.234375 5.367187 0 7.246093-2.695313 16.550781-11.242187.003906.003906 34.980469 55.863281 34.980469 55.867187h-138.667969zm356.164063 424.597656c0 1.582032-1.289063 2.871094-2.867187 2.871094h-123.867188c-11.023438-9.613281-40.566406-31.144531-40.566406-74.445312 0-24.605469 10.183594-47.347657 28.675781-64.039063 26.601563-24.023437 48.039063-39.105469 56.417969-75.550781.941406-4.082032-1.605469-8.152344-5.6875-9.082032-4.070313-.9375-8.144532 1.605469-9.082032 5.679688-3.972656 17.265625-13.125 32.765625-26.472656 44.832031l-25.339844 22.875c-44.316406 40.023438-45.070312 108.875-.941406 149.730469-4.339844 0-151.191406 0-165.917968 0-11.023438-9.613281-40.566407-31.144531-40.566407-74.445312 0-12.097657 2.496094-23.828126 7.394531-34.839844 1.699219-3.828125-.019531-8.304688-3.839843-10.003906-3.816407-1.707032-8.304688.011718-10 3.839843-17.652344 39.617188-7.9375 85.851563 24.015625 115.449219h-109.488282c-1.582031 0-2.867187-1.289062-2.867187-2.871094v-323.488281h113.953125l28.816406 29.664063c34.507813 35.503906 32.121094 91.34375-4.144531 124.089843-27.4375 24.773438-28.078125 25.171875-32.402344 29.886719-4.457031 4.886719-.9375 12.699219 5.585938 12.699219 4.566406 0 5.203125-2.667969 11.652343-8.464844l25.328126-22.875c42.492187-38.375 45.464843-104.117187 4.851562-145.902344l-18.550781-19.097656h167.785156l28.808594 29.664063c13.851562 14.246093 22.1875 32.082031 24.105469 51.59375.4375 4.320312 4.382812 7.257812 8.289062 6.789062 4.171875-.40625 7.210938-4.125 6.796875-8.285156-3.914063-39.726563-25.921875-58.195313-46.871094-79.761719h126.996094zm7.589844-338.644531c-3.285157 0-459.464844 0-466.179688 0-3.71875 0-6.738281-3.019531-6.738281-6.738281 0-3.710938 3.019531-6.730469 6.738281-6.730469h466.179688c3.71875 0 6.738281 3.019531 6.738281 6.730469 0 3.71875-3.019531 6.738281-6.738281 6.738281zm0 0"/><path d="m234.882812 364.953125c-4.1875 0-7.578124 3.394531-7.578124 7.578125 0 4.839844-3.941407 8.78125-8.78125 8.78125-4.84375 0-8.785157-3.9375-8.785157-8.78125 0-4.183594-3.390625-7.578125-7.578125-7.578125-4.183594 0-7.578125 3.394531-7.578125 7.578125 0 4.839844-3.9375 8.78125-8.78125 8.78125-4.839843 0-8.78125-3.9375-8.78125-8.78125 0-4.183594-3.390625-7.578125-7.578125-7.578125-14.765625 0-7.144531 31.515625 16.359375 31.515625 6.324219 0 12.078125-2.460938 16.359375-6.476562 15.195313 14.246093 40.300782 3.484374 40.300782-17.460938 0-4.183594-3.394532-7.578125-7.578126-7.578125zm0 0"/><path d="m334.558594 267.484375c-4.183594 0-7.578125 3.390625-7.578125 7.578125 0 4.839844-3.9375 8.78125-8.78125 8.78125s-8.78125-3.941406-8.78125-8.78125c0-4.1875-3.394531-7.578125-7.578125-7.578125-4.1875 0-7.578125 3.390625-7.578125 7.578125 0 4.839844-3.941407 8.78125-8.78125 8.78125-4.84375 0-8.78125-3.941406-8.78125-8.78125 0-4.1875-3.394531-7.578125-7.578125-7.578125-14.78125 0-7.117188 31.511719 16.359375 31.511719 6.320312 0 12.078125-2.460938 16.359375-6.476563 4.28125 4.015625 10.039062 6.476563 16.359375 6.476563 23.535156 0 31.109375-31.511719 16.359375-31.511719zm0 0"/></svg>