<svg height="511pt" viewBox="0 -12 511.99996 511" width="511pt" xmlns="http://www.w3.org/2000/svg"><path d="m99.558594 261.679688c0-86.210938 69.890625-156.101563 156.101562-156.101563 86.207032 0 156.097656 69.890625 156.097656 156.101563v81.007812h-312.199218zm0 0" fill="#fdc202"/><path d="m273.398438 106.574219c-77.859376 8.808593-138.363282 74.894531-138.363282 155.105469v81.007812h-35.476562v-81.007812c0-86.210938 69.890625-156.101563 156.101562-156.101563 6 0 11.917969.335937 17.738282.996094zm0 0" fill="#f0a70a"/><path d="m442.660156 218.394531c-24.625-.195312-45.957031 13.9375-56.195312 34.554688-.601563 1.214843-2.226563 1.40625-3.128906.390625-7.203126-8.09375-17.691407-13.195313-29.378907-13.195313-21.722656 0-39.328125 17.605469-39.328125 39.324219 0 2.199219.1875 4.351562.539063 6.449219.191406 1.160156-.691407 2.210937-1.863281 2.210937h-57.140626c-14.871093 0-27.4375 11.660156-27.847656 26.523438-.421875 15.421875 11.953125 28.054687 27.28125 28.054687h186.5625c33.984375 0 61.601563-27.273437 62.152344-61.125.554688-34.324219-27.324219-62.917969-61.652344-63.1875zm0 0" fill="#a0cafe"/><path d="m504.324219 280.554688c0 34.324218-27.835938 62.15625-62.167969 62.15625h-186.558594c-15.074218 0-27.285156-12.222657-27.285156-27.285157 0-4.378906 1.03125-8.515625 2.867188-12.183593 1.246093.179687 2.535156.273437 3.832031.273437h186.558593c34.332032 0 62.164063-27.824219 62.164063-62.15625 0-2.503906-.152344-4.976563-.445313-7.410156 12.894532 11.382812 21.035157 28.046875 21.035157 46.605469zm0 0" fill="#81b8fd"/><path d="m63.113281 257.496094c24.015625-1.121094 45.011719 12.296875 54.964844 32.199218.59375 1.1875 2.195313 1.433594 3.082031.441407 6.753906-7.546875 16.5625-12.300781 27.488282-12.300781 20.375 0 36.886718 16.515624 36.886718 36.886718 0 2.023438-.167968 4.003906-.480468 5.9375-.1875 1.148438.699218 2.1875 1.863281 2.1875h159.152343c14.351563 0 26.441407 11.746094 26.171876 26.09375-.265626 13.910156-11.621094 25.101563-25.59375 25.101563h-280.738282c-33.113281 0-59.785156-27.609375-58.242187-61.066407 1.375-29.847656 25.59375-54.082031 55.445312-55.480468zm0 0" fill="#c0dbff"/><path d="m372.246094 348.449219c0 14.140625-11.464844 25.59375-25.59375 25.59375h-280.746094c-32.191406 0-58.304688-26.101563-58.304688-58.304688 0-30.09375 22.808594-54.855469 52.070313-57.96875-4.105469 7.988281-6.425781 17.039063-6.425781 26.636719 0 32.195312 26.101562 58.304688 58.304687 58.304688h260.035157c.4375 1.84375.660156 3.761718.660156 5.738281zm0 0" fill="#a0cafe"/><path d="m345.808594 322.855469c-31.832032 0-62.261719 15.152343-73.921875 44.136719-.71875 1.789062-3.019531 2.332031-4.46875 1.0625-32.648438-28.542969-85.21875-.65625-78.207031 43.273437.28125 1.746094-1.035157 3.335937-2.800782 3.335937h-35.847656c-18.542969 0-34.070312 15.175782-33.714844 33.710938.34375 17.964844 15.015625 32.421875 33.0625 32.421875h193.300782c103.773437 0 110.460937-157.941406 2.597656-157.941406zm0 0" fill="#e6f1ff"/><path d="m408.046875 350.617188c-9.863281-4.226563-21.4375-6.640626-34.757813-6.640626-31.828124 0-62.257812 15.15625-73.914062 44.144532-.71875 1.785156-3.019531 2.332031-4.46875 1.054687-32.648438-28.542969-85.226562-.660156-78.210938 43.28125.28125 1.746094-1.035156 3.335938-2.796874 3.335938h-35.855469c-18.539063 0-34.066407 15.164062-33.710938 33.703125.070313 3.914062.832031 7.664062 2.15625 11.128906-16.4375-1.691406-29.3125-15.425781-29.636719-32.253906-.355468-18.539063 15.164063-33.710938 33.714844-33.710938h35.839844c1.773438 0 3.082031-1.582031 2.808594-3.335937-7.015625-43.929688 45.550781-71.816407 78.203125-43.273438 1.449219 1.277344 3.75.730469 4.46875-1.050781 11.667969-28.992188 42.085937-44.144531 73.925781-44.144531 28.796875 0 49.433594 11.261719 62.234375 27.761719zm0 0" fill="#d9e9ff"/><path d="m504.019531 248.246094c-1.945312-3.71875-6.539062-5.15625-10.257812-3.210938-3.722657 1.945313-5.160157 6.539063-3.214844 10.257813 18.910156 36.183593-7.496094 79.792969-48.390625 79.792969-8.246094 0-13.535156 0-16.808594 0-3.519531 0-4.710937 0-4.722656 0-3.277344 0-8.578125 0-16.84375 0-13.972656-12.128907-33.695312-19.867188-57.128906-19.867188h-110.730469c.09375-10.773438 8.878906-19.511719 19.675781-19.511719h59.996094c4.933594 0 8.476562-4.570312 7.421875-9.265625-4.496094-20.089844 10.863281-38.71875 30.933594-38.71875 9.964843 0 19.160156 4.550782 25.230469 12.496094 3.511718 4.601562 10.683593 3.722656 13.003906-1.570312 13.753906-31.386719 52.742187-42.414063 80.816406-23.132813 3.46875 2.382813 8.191406 1.5 10.574219-1.957031 2.371093-3.464844 1.5-8.199219-1.96875-10.570313-20.597657-14.15625-46.691407-15.882812-68.457031-5.898437-5.933594-20.921875-15.988282-40.628906-29.691407-57.71875-2.625-3.273438-7.410156-3.800782-10.683593-1.175782-3.273438 2.625-3.800782 7.410157-1.175782 10.683594 13.5 16.847656 22.96875 35.914063 28.085938 56.320313-6.34375 4.863281-11.867188 10.835937-16.265625 17.695312-30.847657-24.96875-77.511719-2.054687-76.378907 37.605469h-51.441406c-19.179687 0-34.789062 15.5625-34.890625 34.71875h-27.570312c0-38.382812-43.554688-58.058594-72.007813-35.488281-3.851562-5.898438-8.574218-11.089844-13.96875-15.40625 0-88.449219 69.59375-151.144531 148.5-151.144531 35.039063 0 69.058594 12.4375 95.777344 35.011718 3.210938 2.71875 8.007812 2.3125 10.714844-.902344 2.703125-3.203124 2.300781-7.996093-.902344-10.714843-29.46875-24.882813-66.960938-38.597657-105.589844-38.597657-88.105468 0-160.175781 69.960938-163.570312 157.253907-43.691406-18.871094-92.089844 13.394531-92.089844 60.484375 0 36.339844 29.566406 65.90625 65.90625 65.90625h21.824219c4.195312 0 7.601562-3.40625 7.601562-7.601563 0-4.195312-3.40625-7.601562-7.601562-7.601562h-21.824219c-27.957031 0-50.703125-22.746094-50.703125-50.703125 0-53.910156 74.867187-71.078125 97.15625-20.332032 2.339844 5.3125 9.503906 6.152344 13.007813 1.558594 18.777343-24.59375 58.738281-6.722656 51.847656 24.21875-1.058594 4.691406 2.484375 9.261719 7.417968 9.261719h108.054688c-10.382812 6.875-19.367188 16.453125-25.242188 27.996094-23.253906-16.195313-53.417968-10.972657-71.601562 8h-77.703125c-4.199219 0-7.605469 3.40625-7.605469 7.601562 0 4.195313 3.40625 7.601563 7.605469 7.601563h67.457031c-3.476562 7.796875-5.058594 16.453125-4.492187 25.414062h-31.199219c-22.421875 0-40.667969 18.242188-40.667969 40.675782 0 22.421874 18.246094 40.667968 40.667969 40.667968h193.308594c80.148437 0 108.1875-87.085937 73.976562-138.089844h24.964844c52.238281 0 86.082031-55.695312 61.863281-102.042968zm-160.804687 224.925781h-193.308594c-14.039062 0-25.460938-11.421875-25.460938-25.460937 0-14.050782 11.421876-25.472657 25.460938-25.472657h39.945312c4.875 0 8.488282-4.519531 7.421876-9.265625-8.980469-40.019531 40.082031-65.140625 67.730468-36.765625 3.984375 4.09375 10.878906 2.492188 12.660156-2.917969 20.253907-61.550781 138.644532-60.402343 138.644532 25.917969 0 36.753907-25.105469 73.964844-73.09375 73.964844zm0 0"/><path d="m255.660156 50.84375c4.199219 0 7.601563-3.40625 7.601563-7.601562v-35.140626c0-4.199218-3.402344-7.601562-7.601563-7.601562-4.203125 0-7.605468 3.402344-7.605468 7.601562v35.140626c0 4.195312 3.402343 7.601562 7.605468 7.601562zm0 0"/><path d="m163.253906 68.453125c1.125 3.089844 4.039063 5.007813 7.148438 5.007813 5.257812 0 8.949218-5.242188 7.140625-10.207032l-12.015625-33.019531c-1.4375-3.945313-5.800782-5.980469-9.746094-4.542969s-5.980469 5.796875-4.542969 9.742188zm0 0"/><path d="m93.734375 120.460938c1.503906 1.792968 3.660156 2.71875 5.828125 2.71875 6.398438 0 9.988281-7.527344 5.820312-12.492188l-22.585937-26.914062c-2.699219-3.21875-7.496094-3.636719-10.710937-.9375-3.214844 2.699218-3.636719 7.492187-.9375 10.710937zm0 0"/><path d="m20.734375 173.222656c33.265625 19.207032 31.453125 18.589844 34.226563 18.589844 7.730468 0 10.542968-10.296875 3.808593-14.1875l-30.429687-17.566406c-3.640625-2.101563-8.289063-.855469-10.386719 2.78125-2.097656 3.636718-.851563 8.285156 2.78125 10.382812zm0 0"/><path d="m340.917969 73.460938c3.105469 0 6.019531-1.917969 7.144531-5.007813l12.015625-33.019531c1.4375-3.945313-.597656-8.304688-4.542969-9.742188-3.949218-1.4375-8.308594.597656-9.742187 4.542969l-12.019531 33.019531c-1.804688 4.960938 1.882812 10.207032 7.144531 10.207032zm0 0"/><path d="m411.753906 123.179688c2.171875 0 4.324219-.925782 5.828125-2.71875l22.585938-26.917969c2.699219-3.214844 2.28125-8.011719-.9375-10.707031-3.214844-2.699219-8.011719-2.28125-10.710938.933593l-22.585937 26.917969c-4.164063 4.964844-.578125 12.492188 5.820312 12.492188zm0 0"/><path d="m460.148438 190.792969 30.429687-17.570313c3.636719-2.097656 4.882813-6.746094 2.785156-10.382812-2.097656-3.636719-6.75-4.882813-10.386719-2.78125l-30.429687 17.566406c-3.636719 2.101562-4.882813 6.75-2.78125 10.386719 2.097656 3.636719 6.75 4.878906 10.382813 2.78125zm0 0"/></svg>