<svg height="512pt" viewBox="0 0 512 512" width="512pt" xmlns="http://www.w3.org/2000/svg"><path d="m293.773438 177.230469 85.574218 17.015625c9.542969 1.898437 15.132813 13.179687 9.683594 19.542968l-71.6875 83.660157c-5.320312 6.210937-16.988281 2.757812-20.609375-6.101563l-32.351563-79.128906c-1.578124-3.859375-1.128906-7.835938 1.191407-10.542969l18.460937-21.546875c2.214844-2.585937 5.855469-3.667968 9.738282-2.898437zm0 0" fill="#f87b67"/><path d="m158.289062 150.796875-49.507812-43.261719s22.039062 87.710938 47.0625 118.144532c3.289062 4 10.128906 1.714843 11.289062-3.785157zm0 0" fill="#e5554e"/><path d="m265.105469 11.867188c-3.800781-3.066407-8.636719-4.542969-13.5-4.121094l-90.277344 21.671875 102.125 114.675781 58.582031-18.996094c3.753906-.371094 6.605469-3.527344 6.628906-7.300781.265626-45.972656-46.121093-91.855469-63.558593-105.929687zm0 0" fill="#f87b67"/><path d="m297.789062 191.460938c0 7.402343-2.613281 14.582031-7.464843 20.25-7.15625 8.355468-18.203125 12.292968-29.039063 10.347656-8.847656-1.578125-17.554687-3.136719-24.683594-6.207032-25.808593-11.117187-49.726562-26.203124-71.160156-44.367187l-28.96875-24.554687c-14.175781-12.765626-27.996094-26.164063-39.691406-39.394532-35.945312-40.695312-51.800781-79.859375 3.929688-94.664062-.101563 0 29.210937-8.542969 66.683593.730468 4.566407 1.125 9.246094 2.519532 14.011719 4.222657 77.710938 27.78125 109.292969 87.96875 116.269531 170.996093.070313.878907.113281 1.761719.113281 2.640626zm0 0" fill="#fa9084"/><path d="m297.777344 191.996094c-.121094 7.210937-2.722656 14.1875-7.453125 19.714844-7.15625 8.355468-18.203125 12.292968-29.039063 10.347656-8.847656-1.578125-17.554687-3.136719-24.683594-6.207032-25.808593-11.117187-49.726562-26.203124-71.160156-44.367187l-28.96875-24.554687c-14.175781-12.765626-27.996094-26.164063-39.691406-39.394532-6.738281-7.617187-13.09375-15.546875-18.703125-23.988281 0-.011719 0-.011719-.007813-.011719-2.769531-4.1875-5.542968-8.875-7.707031-13.382812l-.007812-.011719c-11.175781-22.722656-7.773438-41.085937 15.441406-51.984375-.0625 17.367188 13.382813 38.609375 32.550781 60.308594 4.203125 4.757812 8.6875 9.546875 13.355469 14.304687 8.324219 8.484375 17.261719 16.921875 26.335937 25.089844l28.96875 24.554687c21.433594 18.164063 45.351563 33.25 71.160157 44.371094 7.128906 3.066406 15.835937 4.625 24.683593 6.207032 5.074219.910156 10.1875.523437 14.925782-.996094zm0 0" fill="#f87b67"/><path d="m131.703125 92.769531c-8.679687 5.996094-19.429687 11.007813-32.757813 14.328125 0 0-.777343.164063-2.164062.4375-6.804688-7.6875-13.140625-15.609375-18.703125-23.988281 0-.011719 0-.011719-.007813-.011719-2.777343-4.214844-5.507812-8.796875-7.707031-13.382812l-.011719-.011719c-1.515624-3.160156-2.695312-5.960937-3.722656-9.132813-2.421875-7.394531-3.414062-15.136718-1.074218-22.589843 2.570312-8.058594 8.980468-14.976563 20.238281-20.261719v-.007812c4.265625-1.996094 9.214843-3.757813 14.914062-5.277344-.097656 0 29.214844-8.542969 66.6875.730468 0 0 5.445313 50.746094-35.691406 79.167969zm0 0" fill="#fcc1b8"/><path d="m118.347656 78.464844c-19.167968-21.699219-32.613281-42.941406-32.554687-60.308594 0 0 0 0-.007813 0-6.589844 3.132812-12.875 7.363281-16.890625 13.386719-2.558593 3.9375-4.109375 7.945312-4.546875 12.960937-1.882812 21.144532 18.328125 47.089844 32.433594 63.03125 10.914062-2.152344 24.273438-7.410156 34.921875-14.765625-4.667969-4.757812-9.152344-9.546875-13.355469-14.304687zm0 0" fill="#fbb3a8"/><path d="m149.976562 230.503906c7.367188 8.957032 22.125 4.640625 24.585938-7.042968.386719-1.835938.523438.464843-5.003906-38.824219 11.699218 9.097656 23.359375 17.050781 36.625 24.5625 3.644531 2.066406 8.28125.78125 10.347656-2.863281 2.066406-3.65625.789062-8.28125-2.863281-10.347657-15.136719-8.578125-29.71875-18.773437-43.316407-30.304687-37.519531-31.796875-32.457031-27.023438-59.597656-54.160156 40.699219-13.859376 62.761719-47.167969 64.390625-87.808594 69.773438 22.714844 102.589844 74.796875 112.75 145.988281.585938 4.128906 2.296875 17.636719 2.296875 21.75 0 8.367187-4.390625 16.015625-11.378906 20.167969-8.265625 4.988281-15.503906 3.160156-22.023438 1.902344-6.195312-1.171876-11.949218-2.46875-16.746093-4.464844-3.867188-1.597656-8.3125.234375-9.921875 4.101562-1.613282 3.867188.222656 8.3125 4.089844 9.921875 9.175781 3.8125 25.28125 6.574219 29.242187 6.914063l26.253906 64.226562c5.765625 14.078125 24.285157 18.828125 33.402344 8.171875l71.6875-83.664062c9.410156-10.980469 1.074219-28.9375-13.964844-31.9375l-77.367187-15.378907c-1.425782-11.015624-3.320313-21.4375-5.6875-31.277343l25.828125-7.585938c6.675781-1.027343 12.460937-6.4375 12.65625-15.15625 0-10.226562-2.09375-21.039062-6.238281-32.125-1.457032-3.929687-5.832032-5.933593-9.757813-4.46875-3.941406 1.46875-5.933594 5.84375-4.464844 9.773438 4.234375 11.386719 5.558594 21.988281 5.261719 26.992187-1.007812.128906.40625-.21875-27.285156 7.917969-14.644532-47.878906-42.003906-80.40625-79.25-101.089844l38.222656-9.113281c2.753906-.121094 5.457031.78125 7.582031 2.492188 11.332031 9.144531 29.222657 27.023437 42.355469 47.292968 1.449219 2.25 3.886719 3.464844 6.378906 3.464844 5.976563 0 9.648438-6.65625 6.367188-11.726562-18.183594-28.078126-41.136719-47.285157-45.5625-50.847657-6.429688-5.1875-15.425782-6.75-20.027344-5.597656l-57.175781 13.636719c-2.835938-1.152344-5.742188-2.257813-8.699219-3.320313-40.003906-14.300781-77.179688-7.894531-85.195312-5.105469l-.007813-.039062c-34.832031 9.246094-42.140625 27.835938-42.140625 41.796875 0 28.710937 30.410156 62.1875 50.832031 82.609375.261719 1.789062 16.519531 68.941406 42.519531 100.566406zm2.214844-60.296875 6.589844 46.855469c-13.171875-18.121094-23.59375-46.65625-29.859375-66.726562 3.296875 3.007812-.367187-.160157 23.269531 19.871093zm151.144532 79.617188c1.457031 2.265625 3.898437 3.492187 6.398437 3.492187 5.957031 0 9.644531-6.621094 6.390625-11.695312l-17.84375-27.78125c1.488281-2.109375 2.765625-4.355469 3.789062-6.703125 34.242188 15.15625 32.492188 14.648437 34.679688 14.648437 8.140625 0 10.578125-11.210937 3.078125-14.539062l-34.457031-15.257813c.035156-.671875 0-2.640625-.203125-4.75l72.699219 14.460938c4.367187.867187 6.570312 5.785156 5.394531 7.148437-77.347657 90.273438-71.515625 84.496094-73.941407 84.097656-1.984374-.324218-4.476562-1.832031-5.558593-4.472656l-24.675781-60.347656c2.773437-.933594 5.4375-2.175781 7.9375-3.714844zm-231.523438-202.496094c0-28.386719 53.019531-34.867187 88.230469-27.601563-.027344 36.925782-19.472657 68.1875-60.53125 79.371094-18.414063-21.445312-27.699219-38.777344-27.699219-51.769531zm0 0"/><path d="m131.785156 29.199219c-5.84375-5.003907-14.636718-4.328125-19.644531 1.515625s-4.328125 14.640625 1.515625 19.648437c5.839844 5.003907 14.636719 4.328125 19.644531-1.515625 5.007813-5.84375 4.328125-14.640625-1.515625-19.648437zm0 0"/><path d="m7.597656 390.542969c20.34375 0 21.460938 23.96875 49.671875 23.96875 28.203125 0 29.335938-23.96875 49.6875-23.96875 20.222657 0 21.535157 23.96875 49.671875 23.96875 28.269532 0 29.316406-23.96875 49.6875-23.96875 20.339844 0 21.464844 23.96875 49.671875 23.96875 28.203125 0 29.335938-23.96875 49.6875-23.96875 20.335938 0 21.464844 23.96875 49.671875 23.96875 28.089844 0 29.476563-23.96875 49.683594-23.96875 20.347656 0 21.480469 23.96875 49.6875 23.96875 28.269531 0 29.3125-23.96875 49.683594-23.96875 4.195312 0 7.59375-3.398438 7.59375-7.59375 0-4.191407-3.398438-7.59375-7.59375-7.59375-28.210938 0-29.332032 23.96875-49.683594 23.96875-20.332031 0-21.476562-23.96875-49.6875-23.96875-28.109375 0-29.441406 23.96875-49.683594 23.96875-20.34375 0-21.460937-23.96875-49.671875-23.96875-28.269531 0-29.316406 23.96875-49.6875 23.96875-20.339843 0-21.460937-23.96875-49.671875-23.96875-28.210937 0-29.332031 23.96875-49.6875 23.96875-20.199218 0-21.609375-23.96875-49.671875-23.96875-28.269531 0-29.316406 23.96875-49.6875 23.96875-20.335937 0-21.464843-23.96875-49.671875-23.96875-4.195312 0-7.59374975 3.402343-7.59374975 7.59375 0 4.195312 3.39843775 7.59375 7.59374975 7.59375zm0 0"/><path d="m7.59375 438.984375c20.34375 0 21.464844 23.96875 49.679688 23.96875 28.175781 0 29.359374-23.96875 49.679687-23.96875 20.34375 0 21.464844 23.96875 49.679687 23.96875 28.234376 0 29.324219-23.96875 49.679688-23.96875 20.347656 0 21.460938 23.96875 49.679688 23.96875 28.175781 0 29.355468-23.96875 49.675781-23.96875 20.34375 0 21.472656 23.96875 49.683593 23.96875 28.238282 0 29.324219-23.96875 49.679688-23.96875 20.34375 0 21.472656 23.96875 49.6875 23.96875 28.234375 0 29.328125-23.96875 49.683594-23.96875 4.195312 0 7.59375-3.402344 7.59375-7.59375 0-4.195313-3.398438-7.59375-7.59375-7.59375-28.234375 0-29.328125 23.964844-49.683594 23.964844-20.347656 0-21.472656-23.964844-49.6875-23.964844-28.238281 0-29.324219 23.964844-49.679688 23.964844-20.339843 0-21.472656-23.964844-49.683593-23.964844-28.171875 0-29.355469 23.964844-49.675781 23.964844-20.34375 0-21.464844-23.964844-49.679688-23.964844-28.234375 0-29.324219 23.964844-49.679688 23.964844-20.34375 0-21.464843-23.964844-49.679687-23.964844-28.175781 0-29.355469 23.964844-49.679687 23.964844-20.34375 0-21.464844-23.964844-49.679688-23.964844-4.195312 0-7.59375 3.398437-7.59375 7.59375 0 4.191406 3.398438 7.59375 7.59375 7.59375zm0 0"/><path d="m504.40625 472.234375c-28.238281 0-29.328125 23.96875-49.6875 23.96875-20.34375 0-21.472656-23.96875-49.6875-23.96875-28.234375 0-29.320312 23.96875-49.679688 23.96875-20.339843 0-21.472656-23.96875-49.679687-23.96875-28.175781 0-29.355469 23.96875-49.679687 23.96875-20.34375 0-21.460938-23.96875-49.675782-23.96875-28.238281 0-29.328125 23.96875-49.683594 23.96875-20.34375 0-21.464843-23.96875-49.675781-23.96875-28.175781 0-29.359375 23.96875-49.679687 23.96875-20.347656 0-21.464844-23.96875-49.679688-23.96875-4.195312 0-7.59374975 3.402344-7.59374975 7.59375 0 4.195313 3.39843775 7.59375 7.59374975 7.59375 20.34375 0 21.460938 23.96875 49.679688 23.96875 28.175781 0 29.355468-23.96875 49.679687-23.96875 20.34375 0 21.464844 23.96875 49.675781 23.96875 28.238282 0 29.328126-23.96875 49.683594-23.96875 20.34375 0 21.457032 23.96875 49.675782 23.96875 28.175781 0 29.359374-23.96875 49.679687-23.96875 20.34375 0 21.46875 23.96875 49.679687 23.96875 28.238282 0 29.324219-23.96875 49.679688-23.96875 20.347656 0 21.472656 23.96875 49.6875 23.96875 28.234375 0 29.328125-23.96875 49.6875-23.96875 4.195312 0 7.59375-3.398437 7.59375-7.59375 0-4.191406-3.398438-7.59375-7.59375-7.59375zm0 0"/><path d="m427.402344 317.632812c3.796875 0 7.078125-2.847656 7.53125-6.710937.0625-.550781 1.769531-13.410156 19.34375-13.410156 4.195312 0 7.59375-3.398438 7.59375-7.59375 0-4.191407-3.398438-7.59375-7.59375-7.59375-24.75 0-33.34375 17.550781-34.429688 26.832031-.523437 4.503906 2.992188 8.476562 7.554688 8.476562zm0 0"/><path d="m29.710938 312.308594c.550781.035156 13.480468 1.070312 14.394531 18.621094.21875 4.1875 3.792969 7.40625 7.980469 7.1875s7.40625-3.789063 7.1875-7.976563c-1.289063-24.71875-19.261719-32.386719-28.585938-32.988281-4.519531-.289063-8.308594 3.421875-8.070312 7.984375.195312 3.792969 3.210937 6.921875 7.09375 7.171875zm0 0"/><path d="m247.730469 333.195312c-.527344.15625-13.03125 3.613282-19.902344-12.5625-1.636719-3.863281-6.09375-5.660156-9.957031-4.023437-3.859375 1.640625-5.660156 6.097656-4.023438 9.960937 8.132813 19.144532 25.144532 25.011719 38.15625 21.199219 4.023438-1.179687 6.328125-5.398437 5.148438-9.421875-1.175782-4.023437-5.398438-6.328125-9.421875-5.152344zm0 0"/><path d="m485.542969 256.472656c.609375-.335937 14.960937-8.511718 19.167969-28.539062.863281-4.101563-1.765626-8.128906-5.867188-8.992188-4.101562-.863281-8.132812 1.765625-8.996094 5.871094-2.707031 12.890625-11.25 18.125-11.746094 18.417969-3.617187 2.054687-4.910156 6.644531-2.886718 10.289062 2.039062 3.667969 6.660156 4.988281 10.328125 2.953125zm0 0"/><path d="m51.183594 193.722656c12.222656 4.910156 15.890625 14.234375 16.09375 14.773438 2.609375 7.339844 13.289062 6.394531 14.636718-1.230469.9375-5.308594-7.753906-20.679687-25.070312-27.636719-3.890625-1.5625-8.3125.324219-9.875 4.21875-1.566406 3.886719.320312 8.3125 4.214844 9.875zm0 0"/><path d="m167.414062 285.015625c-2.710937 12.894531-11.257812 18.128906-11.746093 18.417969-6.777344 3.851562-3.988281 14.199218 3.757812 14.199218 5.390625 0 19.011719-11.230468 22.851563-29.496093.863281-4.101563-1.765625-8.128907-5.871094-8.992188-4.101562-.859375-8.132812 1.765625-8.992188 5.871094zm0 0"/></svg>