<svg height="512pt" viewBox="-29 0 512 512.00137" width="512pt" xmlns="http://www.w3.org/2000/svg"><path d="m376.933594 420.273438c-2.335938 3.722656-4.804688 7.332031-7.371094 10.820312-19.480469 26.464844-45.164062 46.144531-74.089844 58.382812-52.210937 22.09375-115.367187 20.132813-168.449218-11.246093l-.007813-.011719c-17.171875-10.140625-32.636719-22.976562-45.722656-38.011719-.019531-.011719-.027344-.03125-.027344-.042969-12.277344-14.097656-22.460937-30.125-30.027344-47.660156-5.875-13.632812-10.164062-28.175781-12.621093-43.433594-24.148438-150.367187 91.199218-291.554687 135.683593-339.578124 4.179688-4.5 11.570313-.304688 9.851563 5.589843-18.292969 62.730469-46.519532 186.480469-5.339844 244.703125 5.054688 7.136719 16.332031 3.121094 15.59375-5.59375-6.308594-74.035156 35.304688-134.347656 68.625-143.5-7.027344 65.558594 9.808594 133.265625 35.144531 175.214844 5.308594 8.796875 18.898438 2.457031 15.480469-7.230469-16.363281-46.441406-5.9375-92.472656 11.710938-191.296875.941406-5.277344 7.9375-6.59375 10.699218-1.992187 88.851563 147.679687 86.203125 262.984375 40.867188 334.886719zm0 0" fill="#e5554e"/><path d="m376.933594 420.273438c-2.335938 3.722656-4.804688 7.332031-7.371094 10.820312-19.480469 26.464844-45.164062 46.144531-74.089844 58.382812-52.210937 22.09375-115.367187 20.132813-168.449218-11.246093l-.007813-.011719c-17.171875-10.140625-32.636719-22.976562-45.722656-38.011719-.019531-.011719-.027344-.03125-.027344-.042969-12.277344-14.097656-22.460937-30.125-30.027344-47.660156-2.738281-16.878906-3.203125-34.222656-1.394531-51.816406 4.761719-46.328125 24.289062-83.695312 35.507812-101.847656 6.371094-10.304688 17.363282-16.433594 29.40625-16.433594 17.726563 0 32.554688 13.289062 34.476563 30.90625 4.265625 39.285156 17.078125 44.746094 42.601563 55.628906 8.851562 3.773438 18.871093 8.039063 28.703124 14.117188 18.363282 11.347656 31.46875 29.488281 37.871094 49.90625 26.210938-16.441406 48.027344-32.167969 55.410156-59.625 4.035157-15.085938 17.785157-25.644532 33.429688-25.644532 16.675781 0 31.007812 11.902344 34.0625 28.296876 6.945312 37.164062 5.339844 72.375-4.378906 104.28125zm0 0" fill="#f76c57"/><path d="m295.472656 489.476562c-52.210937 22.101563-115.367187 20.136719-168.449218-11.246093l-.007813-.011719c-84.554687-92.308594-35.476563-191.675781-15.859375-223.441406 2.15625-3.480469 7.476562-2.246094 7.917969 1.832031 8.050781 74.175781 51.609375 71.3125 85.515625 92.257813 24.523437 15.148437 34.304687 49.339843 23.574218 75.703124-.839843 2.074219 1.597657 3.914063 3.347657 2.519532 38.691406-30.519532 96.121093-48.308594 111.605469-105.871094 1.179687-4.417969 7.53125-4.167969 8.371093.332031 12.015625 64.277344-4.621093 124.722657-56.015625 167.925781zm0 0" fill="#fdc202"/><path d="m295.472656 489.476562c-16.644531 7.046876-34.414062 11.640626-52.59375 13.621094-22.976562 2.507813-46.652344.828125-69.628906-5.390625-15.886719-4.289062-31.441406-10.738281-46.226562-19.476562l-.007813-.011719c-84.554687-92.308594-35.476563-191.675781-15.859375-223.441406 2.15625-3.480469 7.476562-2.246094 7.917969 1.832031 8.050781 74.175781 51.609375 71.3125 85.515625 92.257813 24.523437 15.148437 34.304687 49.339843 23.574218 75.703124-.839843 2.074219 1.597657 3.914063 3.347657 2.519532 38.691406-30.519532 96.121093-48.308594 111.605469-105.871094 1.179687-4.417969 7.53125-4.167969 8.371093.332031 12.015625 64.277344-4.621093 124.722657-56.015625 167.925781zm0 0" fill="#fdc202"/><path d="m312.414062 419.445312c-9.605468 20.6875-15.003906 25.847657-69.535156 83.652344-22.976562 2.507813-46.652344.828125-69.628906-5.390625-9.101562-13.722656-17.585938-30.105469-26.890625-43.363281-29.675781-33.992188-42.378906-73.246094-34.6875-118.097656.597656-3.429688 4.835937-4.710938 7.222656-2.175782 22.648438 24.070313 51.742188 29.511719 69.757813 40.605469 11.316406 6.996094 16.757812 25.320313 11.40625 38.457031-12.53125 30.960938 24.238281 58.320313 50.273437 37.753907 15.429688-12.171875 35.953125-23.035157 55.871094-36.671875 3.53125-2.425782 8.019531 1.335937 6.210937 5.230468zm0 0" fill="#fed22b"/><path d="m398.476562 230.371094c-4.089843.902344-6.675781 4.949218-5.769531 9.039062 17.972657 81.371094 5.464844 164.578125-57.46875 216.800782 26.515625-40.597657 32.652344-88.191407 23.703125-136.054688-2.324218-12.429688-19.886718-13.082031-23.15625-.910156-13.027344 48.453125-59.332031 67.472656-96.433594 92.757812 3.8125-26.5-7.507812-55.21875-30.78125-69.589844-8.410156-5.195312-17.210937-8.945312-26.296874-12.8125-3.855469-1.644531-8.308594.148438-9.953126 4.003907-1.640624 3.851562.148438 8.308593 4.003907 9.949219 8.371093 3.574218 16.597656 7.019531 24.277343 11.765624 20.859376 12.882813 30.085938 42.9375 20.53125 66.40625-3.765624 9.289063 7.257813 17.496094 15.082032 11.320313 35.066406-27.671875 88.96875-46.113281 109.863281-96.960937 7.621094 61.296874-13.367187 111.414062-54.0625 146.359374-51.105469 21.621094-110.613281 18.558594-159.558594-9.511718-56.296875-61.589844-58.160156-136.875-19.636719-205.996094 4.742188 29.074219 16.054688 48.960938 35.207032 62.140625 3.449218 2.375 8.171875 1.503906 10.546875-1.945313 2.375-3.449218 1.503906-8.171874-1.945313-10.546874-11.78125-8.109376-25.839844-22.347657-30.007812-60.796876-1.21875-11.21875-15.984375-14.59375-21.910156-4.992187-35.542969 57.535156-45.890626 127.257813-14.300782 188.597656-93.550781-101.546875-41.945312-279.3125 84.382813-419.195312-11.234375 39.792969-23.832031 95.257812-24.746094 146.339843-.074219 4.1875 3.261719 7.644532 7.449219 7.71875 4.230468.0625 7.644531-3.261718 7.71875-7.449218.941406-52.582032 14.777344-110.378906 26.21875-149.605469 3.996094-13.703125-13.183594-23.128906-22.695313-12.863281-144.5 155.972656-194.445312 358.808594-71.734375 461.90625 132.644532 111.4375 364.324219 13.457031 310.511719-230.105469-.902344-4.089844-4.949219-6.679687-9.039063-5.769531zm0 0"/><path d="m186.851562 255c0 .769531-1.199218 1.308594-1.84375.402344-10.09375-14.273438-16.414062-34.167969-18.773437-59.136719-.398437-4.167969-4.105469-7.222656-8.265625-6.835937-4.171875.394531-7.230469 4.097656-6.835938 8.265624 2.613282 27.640626 9.847657 50 21.492188 66.464844 9.511719 13.453125 30.707031 5.710938 29.335938-10.617187-5.222657-61.285157 24.28125-113.582031 52.445312-130.78125-3.820312 62.050781 12.074219 125.339843 37.269531 167.066406 9.921875 16.425781 35.660157 4.804687 29.136719-13.679687-15.359375-43.574219-5.894531-87.472657 11.1875-182.785157 23.878906 40.304688 41.75 79.738281 53.144531 117.285157 1.21875 4.007812 5.453125 6.269531 9.460938 5.054687 4.007812-1.214844 6.273437-5.453125 5.058593-9.460937-12.144531-40.003907-31.351562-81.980469-57.09375-124.765626-6.390624-10.625-22.507812-7.535156-24.671874 4.570313-14.726563 82.46875-30.03125 149.714844-11.277344 195.667969 0 10.253906-46.621094-71.5625-36.050782-170.214844.570313-5.3125-4.398437-9.539062-9.546874-8.121094-38.402344 10.546875-81.191407 76.679688-74.171876 151.621094zm0 0"/><path d="m453.550781 164.214844c-10.921875-21.394532-28.105469-24.605469-28.832031-24.734375-4.121094-.71875-8.050781 2.046875-8.769531 6.171875-.71875 4.128906 2.042969 8.054687 6.171875 8.773437.101562.019531 10.523437 2.199219 17.917968 16.683594 1.902344 3.730469 6.472657 5.210937 10.203126 3.308594 3.730468-1.90625 5.210937-6.476563 3.308593-10.203125zm0 0"/><path d="m33.96875 149.464844c3.550781-2.042969 4.703125-6.660156 2.820312-10.292969-6.785156-13.085937-17.976562-20.3125-25.699218-23.953125-9.5625-4.503906-16.304688 10.148438-5.707032 14.421875.4375.089844 10.726563 2.382813 18.035157 16.703125 1.96875 3.851562 6.761719 5.300781 10.550781 3.121094zm0 0"/><path d="m426.582031 54.113281c.863281-4.101562-1.761719-8.121093-5.863281-8.984375-4.09375-.859375-8.121094 1.765625-8.980469 5.863282-3.503906 16.671874-14.644531 23.378906-15.222656 23.71875-3.621094 2.046874-4.917969 6.636718-2.894531 10.28125 6.996094 12.597656 28.210937-8.261719 32.960937-30.878907zm0 0"/><path d="m55.074219 93.300781c4.1875-.0625 7.53125-3.511719 7.46875-7.699219-.261719-17.027343 9.113281-26.023437 9.613281-26.488281 3.078125-2.796875 3.332031-7.558593.554688-10.667969-2.792969-3.125-7.585938-3.394531-10.710938-.601562-.613281.546875-15 13.691406-14.625 37.992188.0625 4.140624 3.449219 7.519531 7.699219 7.464843zm0 0"/></svg>