<svg height="511pt" viewBox="0 0 511.99955 511" width="511pt" xmlns="http://www.w3.org/2000/svg"><g fill="#fdc202"><path d="m256.707031 156.597656 12.445313 25.21875c.746094 1.515625 2.195312 2.570313 3.867187 2.8125l27.832031 4.042969c4.214844.613281 5.898438 5.792969 2.847657 8.765625l-20.136719 19.632812c-1.214844 1.179688-1.765625 2.878907-1.480469 4.546876l4.753907 27.71875c.71875 4.199218-3.6875 7.398437-7.457032 5.417968l-24.890625-13.085937c-1.496093-.789063-3.285156-.789063-4.78125 0l-24.894531 13.085937c-3.769531 1.980469-8.175781-1.21875-7.457031-5.417968l4.753906-27.71875c.289063-1.667969-.265625-3.367188-1.476563-4.546876l-20.136718-19.632812c-3.050782-2.972656-1.367188-8.152344 2.847656-8.765625l27.832031-4.042969c1.671875-.242187 3.121094-1.296875 3.867188-2.8125l12.445312-25.21875c1.886719-3.816406 7.332031-3.816406 9.21875 0zm0 0"/><path d="m112.570312 79.964844 12.445313 25.21875c.746094 1.515625 2.195313 2.570312 3.867187 2.8125l27.828126 4.042968c4.214843.613282 5.898437 5.792969 2.851562 8.765626l-20.140625 19.628906c-1.210937 1.183594-1.761719 2.882812-1.476563 4.550781l4.753907 27.71875c.71875 4.195313-3.6875 7.398437-7.457031 5.417969l-24.890626-13.085938c-1.496093-.789062-3.285156-.789062-4.785156 0l-24.890625 13.085938c-3.769531 1.980468-8.175781-1.222656-7.457031-5.417969l4.753906-27.71875c.285156-1.667969-.265625-3.367187-1.476562-4.550781l-20.136719-19.628906c-3.050781-2.972657-1.367187-8.152344 2.847656-8.765626l27.828125-4.042968c1.675782-.246094 3.121094-1.296875 3.871094-2.8125l12.445312-25.21875c1.886719-3.820313 7.332032-3.820313 9.21875 0zm0 0"/><path d="m420.984375 10.960938 12.445313 25.21875c.746093 1.515624 2.195312 2.570312 3.867187 2.8125l27.832031 4.042968c4.214844.613282 5.898438 5.792969 2.847656 8.765625l-20.136718 19.632813c-1.214844 1.179687-1.765625 2.878906-1.480469 4.546875l4.753906 27.71875c.71875 4.199219-3.6875 7.398437-7.457031 5.417969l-24.890625-13.085938c-1.496094-.789062-3.285156-.789062-4.78125 0l-24.894531 13.085938c-3.769532 1.980468-8.175782-1.21875-7.457032-5.417969l4.753907-27.71875c.289062-1.667969-.265625-3.367188-1.476563-4.546875l-20.136718-19.632813c-3.050782-2.972656-1.367188-8.152343 2.847656-8.765625l27.828125-4.042968c1.675781-.242188 3.121093-1.296876 3.871093-2.8125l12.445313-25.21875c1.886719-3.816407 7.332031-3.816407 9.21875 0zm0 0"/></g><path d="m442.660156 241.425781c-24.625-.195312-45.957031 13.9375-56.195312 34.554688-.601563 1.214843-2.226563 1.410156-3.128906.394531-7.203126-8.09375-17.691407-13.199219-29.378907-13.199219-21.722656 0-39.328125 17.609375-39.328125 39.324219 0 2.199219.1875 4.355469.539063 6.453125.191406 1.15625-.691407 2.207031-1.863281 2.207031h-57.140626c-14.871093 0-27.4375 11.660156-27.847656 26.523438-.421875 15.421875 11.953125 28.058594 27.28125 28.058594h186.5625c33.984375 0 61.601563-27.273438 62.152344-61.128907.554688-34.324219-27.324219-62.917969-61.652344-63.1875zm0 0" fill="#a0cafe"/><path d="m504.324219 303.589844c0 34.320312-27.835938 62.15625-62.167969 62.15625h-186.558594c-15.074218 0-27.285156-12.226563-27.285156-27.289063 0-4.378906 1.03125-8.515625 2.867188-12.183593 1.246093.183593 2.535156.273437 3.832031.273437h186.558593c34.332032 0 62.164063-27.824219 62.164063-62.15625 0-2.503906-.152344-4.976563-.445313-7.410156 12.894532 11.382812 21.035157 28.046875 21.035157 46.609375zm0 0" fill="#81b8fd"/><path d="m63.113281 280.53125c24.015625-1.125 45.011719 12.292969 54.964844 32.195312.59375 1.1875 2.195313 1.433594 3.082031.445313 6.753906-7.550781 16.5625-12.300781 27.488282-12.300781 20.375 0 36.886718 16.511718 36.886718 36.886718 0 2.019532-.167968 4-.480468 5.933594-.1875 1.148438.699218 2.191406 1.863281 2.191406h159.152343c14.351563 0 26.441407 11.742188 26.171876 26.089844-.265626 13.910156-11.621094 25.105469-25.59375 25.105469h-280.738282c-33.113281 0-59.785156-27.609375-58.242187-61.066406 1.375-29.851563 25.59375-54.085938 55.445312-55.480469zm0 0" fill="#c0dbff"/><path d="m372.246094 371.480469c0 14.140625-11.464844 25.59375-25.59375 25.59375h-280.746094c-32.191406 0-58.304688-26.101563-58.304688-58.304688 0-30.09375 22.808594-54.855469 52.070313-57.96875-4.105469 7.988281-6.425781 17.039063-6.425781 26.640625 0 32.191406 26.101562 58.304688 58.304687 58.304688h260.035157c.4375 1.84375.660156 3.757812.660156 5.734375zm0 0" fill="#a0cafe"/><path d="m345.808594 345.886719c-31.832032 0-62.261719 15.152343-73.921875 44.136719-.71875 1.789062-3.019531 2.332031-4.46875 1.066406-32.648438-28.546875-85.21875-.660156-78.207031 43.269531.28125 1.746094-1.035157 3.335937-2.800782 3.335937h-35.847656c-18.542969 0-34.070312 15.175782-33.714844 33.710938.34375 17.964844 15.015625 32.421875 33.0625 32.421875h193.300782c103.773437 0 110.460937-157.941406 2.597656-157.941406zm0 0" fill="#e6f1ff"/><path d="m408.046875 373.648438c-9.863281-4.226563-21.4375-6.636719-34.757813-6.636719-31.828124 0-62.257812 15.152343-73.914062 44.140625-.71875 1.785156-3.019531 2.332031-4.46875 1.054687-32.648438-28.542969-85.226562-.65625-78.210938 43.28125.28125 1.746094-1.035156 3.335938-2.796874 3.335938h-35.855469c-18.539063 0-34.066407 15.164062-33.710938 33.703125.070313 3.914062.832031 7.664062 2.15625 11.128906-16.4375-1.691406-29.3125-15.425781-29.636719-32.253906-.355468-18.539063 15.164063-33.710938 33.714844-33.710938h35.839844c1.773438 0 3.082031-1.582031 2.808594-3.335937-7.015625-43.929688 45.550781-71.816407 78.203125-43.273438 1.449219 1.277344 3.75.730469 4.46875-1.050781 11.667969-28.992188 42.085937-44.144531 73.925781-44.144531 28.796875 0 49.433594 11.261719 62.234375 27.761719zm0 0" fill="#d9e9ff"/><path d="m267.304688 178.066406-1.855469 3.753906c-.75 1.507813-2.1875 2.5625-3.859375 2.804688l-27.835938 4.046875c-4.21875.617187-5.898437 5.796875-2.847656 8.765625l20.140625 19.625c1.207031 1.1875 1.761719 2.890625 1.46875 4.550781l-3.496094 20.414063-24.207031 12.722656c-3.769531 1.984375-8.179688-1.21875-7.460938-5.414062l4.753907-27.722657c.296875-1.660156-.261719-3.363281-1.46875-4.550781l-20.140625-19.625c-3.050782-2.96875-1.367188-8.148438 2.847656-8.765625l27.835938-4.046875c1.671874-.242188 3.113281-1.296875 3.863281-2.804688l12.445312-25.222656c1.886719-3.820312 7.328125-3.820312 9.214844 0zm0 0" fill="#f0a70a"/><path d="m123.167969 101.4375-1.855469 3.75c-.75 1.511719-2.191406 2.566406-3.863281 2.808594l-27.832031 4.042968c-4.21875.609376-5.902344 5.789063-2.851563 8.769532l20.140625 19.625c1.207031 1.183594 1.765625 2.878906 1.480469 4.550781l-3.496094 20.402344-24.214844 12.730469c-3.769531 1.976562-8.171875-1.214844-7.449219-5.421876l4.753907-27.710937c.28125-1.671875-.277344-3.367187-1.480469-4.550781l-20.140625-19.625c-3.050781-2.980469-1.371094-8.160156 2.847656-8.769532l27.832031-4.042968c1.675782-.242188 3.113282-1.296875 3.863282-2.808594l12.449218-25.21875c1.882813-3.820312 7.335938-3.820312 9.210938 0zm0 0" fill="#f0a70a"/><path d="m431.585938 32.429688-1.855469 3.75c-.75 1.519531-2.199219 2.566406-3.871094 2.808593l-27.824219 4.042969c-4.21875.617188-5.902344 5.796875-2.851562 8.769531l20.140625 19.632813c1.207031 1.175781 1.765625 2.878906 1.472656 4.542968l-3.5 20.414063-24.203125 12.71875c-3.769531 1.988281-8.179688-1.214844-7.460938-5.410156l4.753907-27.722657c.292969-1.664062-.261719-3.367187-1.46875-4.542968l-20.140625-19.632813c-3.050782-2.972656-1.371094-8.152343 2.847656-8.769531l27.824219-4.042969c1.671875-.242187 3.121093-1.289062 3.871093-2.808593l12.449219-25.21875c1.882813-3.820313 7.328125-3.820313 9.210938 0zm0 0" fill="#f0a70a"/><path d="m504.019531 271.320312c-1.945312-3.71875-6.539062-5.15625-10.257812-3.210937-3.722657 1.945313-5.160157 6.539063-3.214844 10.257813 18.910156 36.183593-7.496094 79.792968-48.390625 79.792968h-38.375c-15.523438-13.476562-36.359375-19.828125-55.488281-19.828125-1.066407-.058593 6.144531-.039062-112.371094-.039062.09375-10.773438 8.878906-19.511719 19.675781-19.511719h59.996094c10.582031 0 6.640625-13 6.640625-16.257812 0-30.273438 38.582031-43.265626 56.945313-19.230469 3.511718 4.601562 10.683593 3.722656 13.003906-1.570313 13.800781-31.496094 52.820312-42.359375 80.816406-23.132812 3.46875 2.382812 8.191406 1.5 10.574219-1.957032 2.371093-3.464843 1.5-8.199218-1.96875-10.570312-32.492188-22.332031-77.019531-13.132812-98.1875 19.90625-8.253907-6.679688-18.539063-10.378906-29.46875-10.378906-26.53125 0-47.648438 22.121094-46.910157 47.984375h-51.441406c-19.179687 0-34.789062 15.5625-34.890625 34.71875h-27.570312c0-38.382813-43.554688-58.058594-72.007813-35.488281-12.042968-18.46875-32.71875-29.921876-55.222656-29.921876-36.339844 0-65.90625 29.566407-65.90625 65.90625 0 36.339844 29.566406 65.90625 65.90625 65.90625h21.824219c4.195312 0 7.601562-3.40625 7.601562-7.601562s-3.40625-7.601562-7.601562-7.601562h-21.824219c-27.957031 0-50.703125-22.746094-50.703125-50.703126 0-27.957031 22.746094-50.703124 50.703125-50.703124 20.132812 0 38.367188 11.921874 46.453125 30.371093 2.328125 5.285157 9.480469 6.179688 13.007813 1.558594 18.777343-24.59375 58.738281-6.722656 51.847656 24.21875-1.058594 4.691406 2.484375 9.261719 7.417968 9.261719h108.054688c-10.625 7.035156-19.476562 16.675781-25.242188 27.996094-23.636718-16.433594-53.726562-10.652344-71.601562 8h-77.703125c-4.199219 0-7.605469 3.40625-7.605469 7.601562s3.40625 7.601562 7.605469 7.601562h67.457031c-3.476562 7.796876-5.058594 16.453126-4.492187 25.414063h-31.199219c-22.421875 0-40.667969 18.242187-40.667969 40.675781 0 22.421875 18.246094 40.667969 40.667969 40.667969h193.308594c80.152344 0 108.1875-87.089844 73.976562-138.089844h24.964844c52.238281 0 86.078125-55.695312 61.863281-102.042969zm-160.804687 224.925782h-193.308594c-14.039062 0-25.460938-11.421875-25.460938-25.460938 0-14.050781 11.421876-25.472656 25.460938-25.472656h39.945312c4.875 0 8.488282-4.519531 7.421876-9.265625-9.019532-40.1875 40.21875-65 67.730468-36.761719 3.960938 4.070313 10.871094 2.507813 12.660156-2.921875 20.28125-61.636719 138.644532-60.375 138.644532 25.917969 0 36.753906-25.105469 73.964844-73.09375 73.964844zm0 0"/><path d="m214.398438 221.609375c-4.929688 28.742187-4.71875 27.101563-4.71875 28.628906 0 7.011719 5.714843 12.714844 12.742187 12.714844 4.117187 0 3.898437-.402344 29.675781-13.957031l23.75 12.484375c9.324219 4.894531 20.265625-2.996094 18.484375-13.433594l-4.535156-26.441406 19.207031-18.726563c7.46875-7.277344 3.527344-20.191406-7.0625-21.730468l-26.546875-3.859376-11.871093-24.054687c-4.671876-9.464844-18.175782-9.464844-22.851563 0l-11.875 24.054687-26.546875 3.859376c-10.589844 1.539062-14.527344 14.453124-7.0625 21.730468zm17.871093-29.457031c4.148438-.605469 7.738281-3.210938 9.589844-6.96875l10.238281-20.746094 10.238282 20.742188c1.855468 3.761718 5.441406 6.367187 9.59375 6.972656l22.890624 3.324218-16.5625 16.148438c-2.867187 2.792969-4.398437 6.980469-3.664062 11.277344l3.90625 22.796875-20.476562-10.765625c-3.640626-1.910156-8.207032-1.914063-11.855469.003906l-20.472657 10.761719 3.910157-22.800781c.722656-4.210938-.742188-8.425782-3.664063-11.273438l-16.5625-16.148438zm0 0"/><path d="m51.050781 126.25 19.210938 18.722656c-4.910157 28.644532-4.722657 27.09375-4.722657 28.632813 0 7.011719 5.71875 12.714843 12.746094 12.714843 4.117188 0 3.894532-.402343 29.671875-13.957031 25.714844 13.519531 25.546875 13.957031 29.679688 13.957031 7.027343 0 12.742187-5.703124 12.742187-12.714843 0-1.519531.207032.109375-4.722656-28.632813l19.210938-18.722656c7.46875-7.277344 3.53125-20.195312-7.0625-21.734375l-26.546876-3.859375-11.875-24.054688c-4.667968-9.464843-18.179687-9.464843-22.847656 0l-11.871094 24.054688-26.550781 3.859375c-10.589843 1.539063-14.527343 14.453125-7.0625 21.734375zm37.078125-10.730469c4.148438-.601562 7.734375-3.207031 9.59375-6.96875l10.238282-20.742187 10.238281 20.742187c1.855469 3.761719 5.441406 6.367188 9.59375 6.96875l22.890625 3.324219-16.5625 16.144531c-2.871094 2.800781-4.398438 6.988281-3.667969 11.28125l3.910156 22.796875c-22.257812-11.703125-22.304687-12.226562-26.402343-12.226562-4.117188 0-4.210938.5625-26.402344 12.226562l3.910156-22.800781c.722656-4.226563-.753906-8.4375-3.664062-11.273437l-16.566407-16.148438zm0 0"/><path d="m378.679688 75.972656c-4.941407 28.792969-4.726563 27.125-4.726563 28.628906 0 7.011719 5.71875 12.71875 12.746094 12.71875 4.109375 0 3.867187-.390624 29.675781-13.960937 25.75 13.539063 25.546875 13.960937 29.675781 13.960937 7.808594 0 13.910157-7.015624 12.554688-14.90625l-4.53125-26.441406 19.207031-18.722656c7.46875-7.28125 3.53125-20.195312-7.0625-21.734375l-26.546875-3.859375-11.871094-24.058594c-4.671875-9.464844-18.179687-9.460937-22.851562 0l-11.871094 24.058594-26.550781 3.855469c-10.585938 1.539062-14.527344 14.453125-7.058594 21.734375zm17.867187-29.457031c4.148437-.605469 7.734375-3.210937 9.589844-6.96875l10.238281-20.746094 10.238281 20.742188c1.855469 3.761719 5.441407 6.367187 9.59375 6.972656l22.890625 3.324219-16.5625 16.144531c-2.871094 2.800781-4.398437 6.988281-3.664062 11.277344l3.90625 22.800781c-22.316406-11.734375-22.332032-12.226562-26.402344-12.226562-4.101562 0-4.226562.566406-26.402344 12.226562 4.246094-24.753906 4.09375-23.457031 4.09375-24.949219 0-3.417969-1.402344-6.746093-3.847656-9.125l-16.5625-16.148437zm0 0"/><path d="m226.9375 48.324219c0 7.324219-5.9375 13.261719-13.261719 13.261719s-13.261719-5.9375-13.261719-13.261719 5.9375-13.261719 13.261719-13.261719 13.261719 5.9375 13.261719 13.261719zm0 0"/><path d="m134.484375 241.445312c0 7.320313-5.9375 13.257813-13.261719 13.257813-7.324218 0-13.261718-5.9375-13.261718-13.257813 0-7.324218 5.9375-13.261718 13.261718-13.261718 7.324219 0 13.261719 5.9375 13.261719 13.261718zm0 0"/><path d="m494.523438 175.578125c0 7.324219-5.9375 13.261719-13.261719 13.261719-7.320313 0-13.257813-5.9375-13.257813-13.261719s5.9375-13.261719 13.257813-13.261719c7.324219 0 13.261719 5.9375 13.261719 13.261719zm0 0"/><path d="m53.089844 42.578125c0 7.324219-5.9375 13.261719-13.261719 13.261719s-13.261719-5.9375-13.261719-13.261719 5.9375-13.257813 13.261719-13.257813 13.261719 5.933594 13.261719 13.257813zm0 0"/><path d="m325.484375 127.910156c0 7.324219-5.9375 13.261719-13.261719 13.261719-7.324218 0-13.261718-5.9375-13.261718-13.261719 0-7.324218 5.9375-13.261718 13.261718-13.261718 7.324219 0 13.261719 5.9375 13.261719 13.261718zm0 0"/></svg>