<svg height="511pt" viewBox="1 0 511.99899 511" width="511pt" xmlns="http://www.w3.org/2000/svg"><g fill="#a0cafe"><path d="m504.449219 242.949219c0 14.242187-11.546875 25.785156-25.785157 25.785156-14.242187 0-25.785156-11.542969-25.785156-25.785156 0-14.238281 11.542969-25.785157 25.785156-25.785157 14.238282 0 25.785157 11.546876 25.785157 25.785157zm0 0"/><path d="m377.378906 380.507812c0 14.238282-11.546875 25.785157-25.785156 25.785157-14.242188 0-25.785156-11.546875-25.785156-25.785157 0-14.242187 11.542968-25.785156 25.785156-25.785156 14.238281 0 25.785156 11.542969 25.785156 25.785156zm0 0"/><path d="m59.121094 211.535156c0 14.242188-11.542969 25.785156-25.785156 25.785156-14.242188 0-25.785157-11.542968-25.785157-25.785156 0-14.238281 11.542969-25.785156 25.785157-25.785156 14.242187 0 25.785156 11.546875 25.785156 25.785156zm0 0"/><path d="m95.539062 432.074219c0 14.242187-11.542968 25.785156-25.785156 25.785156-14.238281 0-25.785156-11.542969-25.785156-25.785156 0-14.238281 11.546875-25.785157 25.785156-25.785157 14.242188 0 25.785156 11.546876 25.785156 25.785157zm0 0"/><path d="m235.15625 341.78125c0 14.242188-11.542969 25.785156-25.785156 25.785156-14.242188 0-25.785156-11.542968-25.785156-25.785156s11.542968-25.785156 25.785156-25.785156c14.242187 0 25.785156 11.542968 25.785156 25.785156zm0 0"/><path d="m322.339844 477.703125c0 14.242187-11.542969 25.785156-25.785156 25.785156-14.242188 0-25.785157-11.542969-25.785157-25.785156 0-14.238281 11.542969-25.785156 25.785157-25.785156 14.242187 0 25.785156 11.546875 25.785156 25.785156zm0 0"/><path d="m478.664062 432.074219c0 14.242187-11.546874 25.785156-25.785156 25.785156-14.242187 0-25.785156-11.542969-25.785156-25.785156 0-14.238281 11.542969-25.785157 25.785156-25.785157 14.238282 0 25.785156 11.546876 25.785156 25.785157zm0 0"/><path d="m441.921875 8.058594c-24.464844-.191406-45.65625 13.847656-55.824219 34.328125-.601562 1.207031-2.214844 1.398437-3.113281.390625-7.152344-8.042969-17.574219-13.109375-29.1875-13.109375-21.574219 0-39.0625 17.488281-39.0625 39.0625 0 2.1875.183594 4.324219.53125 6.410156.191406 1.148437-.683594 2.195313-1.851563 2.195313h-56.761718c-14.773438 0-27.257813 11.582031-27.664063 26.347656-.421875 15.320312 11.875 27.871094 27.097657 27.871094h185.335937c33.761719 0 61.195313-27.09375 61.742187-60.722657.554688-34.097656-27.140624-62.503906-61.242187-62.773437zm0 0"/></g><path d="m503.175781 69.8125c0 34.09375-27.652343 61.746094-61.757812 61.746094h-185.328125c-14.976563 0-27.109375-12.144532-27.109375-27.105469 0-4.351563 1.027343-8.460937 2.851562-12.105469 1.238281.179688 2.515625.273438 3.804688.273438h185.332031c34.105469 0 61.757812-27.644532 61.757812-61.75 0-2.484375-.152343-4.941406-.445312-7.359375 12.808594 11.308593 20.894531 27.863281 20.894531 46.300781zm0 0" fill="#81b8fd"/><path d="m64.871094 46.90625c23.855468-1.117188 44.714844 12.214844 54.601562 31.984375.589844 1.179687 2.183594 1.421875 3.0625.441406 6.707032-7.5 16.453125-12.222656 27.308594-12.222656 20.238281 0 36.644531 16.40625 36.644531 36.644531 0 2.007813-.167969 3.976563-.480469 5.898438-.1875 1.140625.695313 2.175781 1.851563 2.175781h158.105469c14.257812 0 26.269531 11.664063 26 25.917969-.261719 13.820312-11.546875 24.9375-25.425782 24.9375h-278.886718c-32.898438 0-59.394532-27.425782-57.859375-60.664063 1.363281-29.652343 25.425781-53.726562 55.078125-55.113281zm0 0" fill="#c0dbff"/><path d="m371.96875 137.257812c0 14.046876-11.386719 25.425782-25.425781 25.425782h-278.898438c-31.980469 0-57.917969-25.929688-57.917969-57.921875 0-29.894531 22.65625-54.496094 51.726563-57.585938-4.078125 7.933594-6.382813 16.925781-6.382813 26.460938 0 31.984375 25.925782 57.921875 57.917969 57.921875h258.328125c.429688 1.832031.652344 3.734375.652344 5.699218zm0 0" fill="#a0cafe"/><path d="m345.703125 111.832031c-31.621094 0-61.847656 15.054688-73.433594 43.847657-.714843 1.777343-2.996093 2.316406-4.4375 1.058593-32.4375-28.359375-84.660156-.65625-77.691406 42.988281.277344 1.730469-1.03125 3.3125-2.785156 3.3125h-35.613281c-18.417969 0-33.84375 15.074219-33.488282 33.488282.339844 17.847656 14.914063 32.207031 32.839844 32.207031h192.03125c103.089844 0 109.734375-156.902344 2.578125-156.902344zm0 0" fill="#e6f1ff"/><path d="m407.535156 139.414062c-9.796875-4.199218-21.296875-6.597656-34.527344-6.597656-31.621093 0-61.847656 15.054688-73.429687 43.855469-.714844 1.769531-3 2.316406-4.441406 1.046875-32.433594-28.355469-84.664063-.65625-77.695313 42.996094.28125 1.730468-1.027344 3.3125-2.78125 3.3125h-35.613281c-18.417969 0-33.84375 15.066406-33.492187 33.480468.070312 3.886719.824218 7.613282 2.144531 11.058594-16.332031-1.683594-29.121094-15.328125-29.445313-32.042968-.351562-18.417969 15.066406-33.492188 33.492188-33.492188h35.605468c1.761719 0 3.0625-1.570312 2.789063-3.3125-6.964844-43.640625 45.253906-71.34375 77.6875-42.984375 1.441406 1.265625 3.726563.722656 4.441406-1.050781 11.589844-28.796875 41.808594-43.851563 73.4375-43.851563 28.609375 0 49.109375 11.1875 61.828125 27.582031zm0 0" fill="#d9e9ff"/><path d="m487.546875 267.15625c-2.769531 1.027344-5.757813 1.582031-8.878906 1.582031-14.25 0-25.789063-11.550781-25.789063-25.789062s11.539063-25.789063 25.789063-25.789063c3.121093 0 6.109375.554688 8.878906 1.582032-9.867187 3.613281-16.894531 13.089843-16.894531 24.207031 0 11.117187 7.027344 20.589843 16.894531 24.207031zm0 0" fill="#81b8fd"/><path d="m360.480469 404.707031c-2.769531 1.027344-5.761719 1.582031-8.890625 1.582031-14.238282 0-25.78125-11.542968-25.78125-25.78125 0-14.246093 11.542968-25.785156 25.78125-25.785156 3.128906 0 6.121094.550782 8.890625 1.570313-9.859375 3.625-16.898438 13.089843-16.898438 24.214843 0 11.117188 7.039063 20.59375 16.898438 24.199219zm0 0" fill="#81b8fd"/><path d="m42.21875 235.738281c-2.769531 1.027344-5.757812 1.582031-8.878906 1.582031-14.238282 0-25.789063-11.539062-25.789063-25.789062 0-14.238281 11.550781-25.777344 25.789063-25.777344 3.121094 0 6.109375.554688 8.878906 1.570313-9.867188 3.613281-16.894531 13.089843-16.894531 24.207031 0 11.128906 7.027343 20.59375 16.894531 24.207031zm0 0" fill="#81b8fd"/><path d="m78.640625 456.28125c-2.777344 1.027344-5.769531 1.582031-8.890625 1.582031-14.238281 0-25.777344-11.550781-25.777344-25.789062s11.539063-25.785157 25.777344-25.785157c3.121094 0 6.113281.550782 8.890625 1.578126-9.867187 3.617187-16.894531 13.09375-16.894531 24.207031 0 11.117187 7.027344 20.59375 16.894531 24.207031zm0 0" fill="#81b8fd"/><path d="m218.257812 365.988281c-2.769531 1.027344-5.761718 1.582031-8.882812 1.582031-14.25 0-25.789062-11.550781-25.789062-25.789062s11.539062-25.789062 25.789062-25.789062c3.121094 0 6.113281.554687 8.882812 1.582031-9.859374 3.613281-16.898437 13.089843-16.898437 24.207031s7.039063 20.59375 16.898437 24.207031zm0 0" fill="#81b8fd"/><path d="m305.4375 501.917969c-2.765625 1.019531-5.757812 1.570312-8.878906 1.570312-14.25 0-25.789063-11.539062-25.789063-25.785156 0-14.242187 11.539063-25.78125 25.789063-25.78125 3.121094 0 6.113281.554687 8.878906 1.582031-9.855469 3.605469-16.894531 13.082032-16.894531 24.199219 0 11.125 7.039062 20.589844 16.894531 24.214844zm0 0" fill="#81b8fd"/><path d="m461.769531 456.28125c-2.769531 1.027344-5.769531 1.582031-8.890625 1.582031-14.238281 0-25.789062-11.550781-25.789062-25.789062s11.550781-25.785157 25.789062-25.785157c3.121094 0 6.121094.550782 8.890625 1.578126-9.867187 3.617187-16.90625 13.09375-16.90625 24.207031 0 11.117187 7.039063 20.59375 16.90625 24.207031zm0 0" fill="#81b8fd"/><path d="m416.617188 139.109375h24.800781c51.894531 0 85.511719-55.332031 61.457031-101.371094-1.933594-3.695312-6.496094-5.125-10.191406-3.191406-3.695313 1.933594-5.125 6.496094-3.191406 10.191406 18.785156 35.941407-7.445313 79.269531-48.074219 79.269531h-38.121094c-13.878906-12.050781-33.472656-19.738281-56.753906-19.738281h-110c.082031-10.695312 8.820312-19.382812 19.546875-19.382812h59.601562c2.292969 0 4.46875-1.039063 5.898438-2.832031 3.195312-4.003907.695312-6.507813.695312-13.320313 0-30.074219 38.328125-42.980469 56.570313-19.101563 3.488281 4.566407 10.605469 3.699219 12.921875-1.5625 13.710937-31.289062 52.472656-42.078124 80.285156-22.976562 3.441406 2.367188 8.132812 1.488281 10.5-1.945312 2.367188-3.441407 1.492188-8.144532-1.953125-10.5-32.269531-22.183594-76.507813-13.054688-97.542969 19.773437-30.644531-24.804687-77-2.042969-75.875 37.359375h-51.101562c-19.054688 0-34.570313 15.457031-34.660156 34.488281h-27.390626c0-38.121093-43.242187-57.667969-71.535156-35.261719-11.960937-18.339843-32.503906-29.71875-54.859375-29.71875-36.097656 0-65.472656 29.375-65.472656 65.472657 0 36.101562 29.375 65.472656 65.472656 65.472656h21.679688c4.171875 0 7.554687-3.382813 7.554687-7.550781 0-4.167969-3.382812-7.550782-7.554687-7.550782h-21.679688c-27.769531 0-50.367187-22.597656-50.367187-50.371093 0-27.769531 22.597656-50.367188 50.367187-50.367188 20 0 38.113281 11.84375 46.148438 30.167969 2.316406 5.261719 9.425781 6.128906 12.921875 1.550781 18.65625-24.433593 58.351562-6.679687 51.503906 24.058594-1.046875 4.660156 2.46875 9.203125 7.371094 9.203125h107.34375c-10.554688 6.988281-19.347656 16.566406-25.074219 27.8125-23.542969-16.367188-53.433594-10.523438-71.132813 7.945312h-77.191406c-4.167968 0-7.554687 3.382813-7.554687 7.550782 0 4.167968 3.386719 7.550781 7.554687 7.550781h67.011719c-3.453125 7.746094-5.023437 16.34375-4.460937 25.246094h-30.992188c-22.273438 0-40.402344 18.125-40.402344 40.410156 0 22.273437 18.128906 40.398437 40.402344 40.398437h192.035156c79.199219 0 107.753906-86.101562 73.488282-137.179687zm-73.488282 122.074219h-192.035156c-13.949219 0-25.296875-11.347656-25.296875-25.292969 0-13.957031 11.347656-25.304687 25.296875-25.304687h39.683594c4.84375 0 8.429687-4.492188 7.371094-9.203126-8.941407-39.84375 39.910156-64.613281 67.285156-36.523437 3.957031 4.066406 10.808594 2.472656 12.574218-2.902344 20.109376-61.105469 137.734376-60.191406 137.734376 25.75 0 36.511719-24.941407 73.476563-72.613282 73.476563zm0 0"/><path d="m478.664062 209.613281c-18.382812 0-33.339843 14.957031-33.339843 33.335938 0 18.382812 14.957031 33.335937 33.339843 33.335937 18.378907 0 33.335938-14.953125 33.335938-33.335937 0-18.378907-14.957031-33.335938-33.335938-33.335938zm0 51.570313c-10.054687 0-18.234374-8.179688-18.234374-18.234375 0-10.054688 8.179687-18.230469 18.234374-18.230469 10.050782 0 18.230469 8.179688 18.230469 18.230469 0 10.054687-8.175781 18.234375-18.230469 18.234375zm0 0"/><path d="m351.59375 347.167969c-18.382812 0-33.339844 14.957031-33.339844 33.335937 0 18.382813 14.957032 33.339844 33.339844 33.339844 18.378906 0 33.335938-14.957031 33.335938-33.339844 0-18.378906-14.957032-33.335937-33.335938-33.335937zm0 51.570312c-10.054688 0-18.234375-8.179687-18.234375-18.230469 0-10.054687 8.179687-18.234374 18.234375-18.234374 10.050781 0 18.230469 8.179687 18.230469 18.234374 0 10.050782-8.179688 18.230469-18.230469 18.230469zm0 0"/><path d="m66.675781 211.535156c0-18.378906-14.957031-33.335937-33.339843-33.335937-18.378907 0-33.335938 14.957031-33.335938 33.335937 0 18.382813 14.957031 33.339844 33.335938 33.339844 18.382812 0 33.339843-14.957031 33.339843-33.339844zm-33.339843 18.234375c-10.054688 0-18.230469-8.179687-18.230469-18.234375 0-10.050781 8.175781-18.230468 18.230469-18.230468 10.054687 0 18.234374 8.179687 18.234374 18.230468 0 10.054688-8.179687 18.234375-18.234374 18.234375zm0 0"/><path d="m69.753906 398.738281c-18.382812 0-33.335937 14.957031-33.335937 33.335938 0 18.382812 14.957031 33.339843 33.335937 33.339843 18.382813 0 33.335938-14.957031 33.335938-33.339843 0-18.378907-14.953125-33.335938-33.335938-33.335938zm0 51.570313c-10.054687 0-18.230468-8.179688-18.230468-18.230469 0-10.054687 8.175781-18.234375 18.230468-18.234375 10.054688 0 18.234375 8.179688 18.234375 18.234375 0 10.050781-8.179687 18.230469-18.234375 18.230469zm0 0"/><path d="m209.371094 308.445312c-18.382813 0-33.335938 14.953126-33.335938 33.335938s14.953125 33.335938 33.335938 33.335938c18.382812 0 33.335937-14.953126 33.335937-33.335938s-14.953125-33.335938-33.335937-33.335938zm0 51.570313c-10.054688 0-18.230469-8.179687-18.230469-18.234375s8.175781-18.230469 18.230469-18.230469c10.054687 0 18.234375 8.179688 18.234375 18.230469 0 10.054688-8.179688 18.234375-18.234375 18.234375zm0 0"/><path d="m296.554688 444.367188c-18.382813 0-33.335938 14.957031-33.335938 33.335937 0 18.382813 14.953125 33.335937 33.335938 33.335937 18.382812 0 33.335937-14.953124 33.335937-33.335937 0-18.378906-14.953125-33.335937-33.335937-33.335937zm0 51.570312c-10.054688 0-18.230469-8.179688-18.230469-18.230469 0-10.054687 8.175781-18.234375 18.230469-18.234375 10.054687 0 18.230468 8.179688 18.230468 18.234375 0 10.050781-8.175781 18.230469-18.230468 18.230469zm0 0"/><path d="m452.878906 398.738281c-18.382812 0-33.335937 14.957031-33.335937 33.335938 0 18.382812 14.953125 33.339843 33.335937 33.339843 18.378906 0 33.335938-14.957031 33.335938-33.339843 0-18.378907-14.953125-33.335938-33.335938-33.335938zm0 51.570313c-10.054687 0-18.234375-8.179688-18.234375-18.230469 0-10.054687 8.179688-18.234375 18.234375-18.234375 10.054688 0 18.230469 8.179688 18.230469 18.234375 0 10.050781-8.175781 18.230469-18.230469 18.230469zm0 0"/></svg>