<svg height="511pt" viewBox="0 0 511.99987 511" width="511pt" xmlns="http://www.w3.org/2000/svg"><path d="m223.1875 504.582031h-22.769531c-4.496094 0-8.140625-3.648437-8.140625-8.140625v-268.3125h39.050781v268.3125c0 4.492188-3.644531 8.140625-8.140625 8.140625zm0 0" fill="#ae583e"/><path d="m389.734375 272.75c-8.921875 45.253906-48.8125 79.378906-96.679687 79.378906-54.429688 0-98.554688-44.125-98.554688-98.554687 0-38.328125 21.882812-71.550781 53.832031-87.847657-1.226562 6.199219-1.871093 12.617188-1.871093 19.175782 0 54.425781 44.128906 98.554687 98.554687 98.554687 16.105469 0 31.296875-3.863281 44.71875-10.707031zm0 0" fill="#199a8e"/><path d="m252.496094 316.378906c-1.386719 29.523438-25.304688 53.464844-54.828125 54.871094-20.53125.980469-38.847657-8.78125-49.824219-24.148438-.589844-.828124-1.660156-1.140624-2.605469-.742187-7.710937 3.238281-16.171875 5.042969-25.058593 5.042969-31.425782 0-57.613282-22.371094-63.546876-52.050782-.210937-1.097656-1.265624-1.824218-2.367187-1.664062-1.910156.273438-3.855469.414062-5.835937.414062-22.582032 0-40.882813-18.300781-40.882813-40.875 0-16.738281 10.058594-31.113281 24.453125-37.433593.929688-.40625 1.433594-1.425781 1.203125-2.40625-.707031-3.015625-1.085937-6.144531-1.085937-9.371094 0-16.464844 9.734374-30.65625 23.757812-37.136719 6.039062-2.785156 12.882812-4.148437 20.078125-3.644531 19.84375 1.398437 35.984375 17.226563 37.753906 37.039063.574219 6.410156-.34375 12.546874-2.429687 18.117187 2.90625-.40625 5.878906-.628906 8.902344-.628906 25.640624 0 47.796874 14.890625 58.3125 36.492187 5.191406-1.53125 10.671874-2.363281 16.347656-2.363281 27.871094 0 51.113281 19.746094 56.523437 46.003906.964844 4.652344 1.363281 9.496094 1.132813 14.484375zm0 0" fill="#24d3b5"/><path d="m251.363281 301.894531c-1.359375 1.664063-2.820312 3.273438-4.375 4.828125-25.65625 25.660156-67.265625 25.660156-92.925781 0-2.890625-2.890625-5.4375-5.984375-7.675781-9.230468-.953125-1.386719-2.792969-1.820313-4.277344-1.015626-19.789063 10.777344-45.066406 7.808594-61.804687-8.929687-15.640626-15.632813-19.265626-38.726563-10.894532-57.824219.699219-1.59375.082032-3.449218-1.457031-4.234375-12.191406-6.269531-20.390625-19.222656-19.726563-34.023437.355469-7.703125 3.15625-14.828125 7.648438-20.585938 6.039062-2.785156 12.882812-4.144531 20.078125-3.640625 19.84375 1.394531 35.988281 17.222657 37.757813 37.035157.574218 6.410156-.347657 12.546874-2.433594 18.117187 2.910156-.40625 5.878906-.625 8.902344-.625 25.640624 0 47.800781 14.886719 58.3125 36.488281 5.191406-1.53125 10.671874-2.359375 16.347656-2.359375 27.867187-.003906 51.113281 19.742188 56.523437 46zm0 0" fill="#20b7a1"/><path d="m310.871094 167.132812c0-17.570312-12.464844-32.222656-29.03125-35.613281-1.242188-.253906-2.238282-1.199219-2.519532-2.433593-3.257812-14.3125-10.558593-27.886719-21.917968-38.898438-30.074219-29.140625-78.367188-29.390625-108.71875-.539062-11.894532 11.304687-19.445313 25.386718-22.664063 40.222656-.414062 1.917968-2.375 3.042968-4.242187 2.433594-4.140625-1.355469-8.601563-1.992188-13.25-1.746094-18.515625.980468-33.527344 16.101562-34.363282 34.625-.664062 14.804687 7.53125 27.757812 19.726563 34.027344 1.535156.789062 2.152344 2.648437 1.457031 4.234374-8.371094 19.101563-4.746094 42.191407 10.890625 57.828126 16.738281 16.738281 42.019531 19.707031 61.804688 8.929687 1.484375-.808594 3.324219-.375 4.285156 1.015625 2.230469 3.25 4.78125 6.34375 7.667969 9.226562 25.660156 25.664063 67.269531 25.664063 92.929687 0 20.25-20.25 24.503907-50.421874 12.792969-74.859374-.828125-1.734376-.03125-3.800782 1.765625-4.488282 13.671875-5.222656 23.386719-18.457031 23.386719-33.964844zm0 0" fill="#a9e8d1"/><path d="m218.21875 69.695312c-14.085938 2.792969-27.527344 9.441407-38.585938 19.953126-11.894531 11.300781-19.441406 25.386718-22.660156 40.222656-.425781 1.917968-2.378906 3.042968-4.246094 2.433594-4.136718-1.355469-8.601562-1.992188-13.253906-1.742188-18.515625.972656-33.527344 16.101562-34.359375 34.625-.671875 14.800781 7.523438 27.753906 19.726563 34.019531 1.539062.796875 2.148437 2.65625 1.457031 4.238281-8.371094 19.097657-4.746094 42.191407 10.886719 57.832032 6.1875 6.191406 13.554687 10.503906 21.378906 12.925781-17.878906 5.542969-38.160156 1.238281-52.324219-12.925781-15.632812-15.640625-19.257812-38.734375-10.886719-57.832032.691407-1.582031.082032-3.441406-1.457031-4.238281-12.203125-6.265625-20.398437-19.21875-19.726562-34.019531.832031-18.523438 15.84375-33.652344 34.359375-34.625 4.652344-.25 9.117187.386719 13.253906 1.742188 1.863281.609374 3.820312-.515626 4.242188-2.433594 3.21875-14.835938 10.769531-28.921875 22.660156-40.222656 19.082031-18.140626 45.253906-24.773438 69.535156-19.953126zm0 0" fill="#93e2c6"/><path d="m483.335938 288.207031c-1.585938 2.527344-3.261719 4.980469-5.003907 7.347657-13.226562 17.96875-30.664062 31.328124-50.300781 39.636718-35.449219 15.003906-78.328125 13.671875-114.367188-7.632812l-.007812-.007813c-11.660156-6.886719-22.15625-15.601562-31.042969-25.808593-.011719-.007813-.019531-.023438-.019531-.027344-8.335938-9.574219-15.25-20.453125-20.386719-32.359375-3.988281-9.257813-6.898437-19.128907-8.566406-29.492188-16.394531-102.089843 61.917969-197.945312 92.121094-230.550781 2.835937-3.058594 7.851562-.207031 6.6875 3.796875-12.421875 42.589844-31.585938 126.609375-3.625 166.136719 3.433593 4.847656 11.085937 2.121094 10.585937-3.796875-4.285156-50.265625 23.96875-91.214844 46.59375-97.429688-4.773437 44.511719 6.660156 90.480469 23.859375 118.960938 3.605469 5.972656 12.832031 1.667969 10.511719-4.910157-11.109375-31.527343-4.03125-62.78125 7.949219-129.878906.640625-3.582031 5.390625-4.476562 7.265625-1.351562 60.324218 100.265625 58.527344 178.550781 27.746094 227.367187zm0 0" fill="#e5554e"/><path d="m483.335938 288.207031c-1.585938 2.527344-3.261719 4.980469-5.003907 7.347657-13.226562 17.96875-30.664062 31.328124-50.300781 39.636718-35.449219 15.003906-78.328125 13.671875-114.367188-7.632812l-.007812-.007813c-11.660156-6.886719-22.15625-15.601562-31.042969-25.808593-.011719-.007813-.019531-.023438-.019531-.027344-8.335938-9.574219-15.25-20.453125-20.386719-32.359375-1.859375-11.460938-2.175781-23.234375-.945312-35.183594 3.230469-31.453125 16.492187-56.820313 24.105469-69.148437 4.328124-6.996094 11.789062-11.15625 19.964843-11.15625 12.039063 0 22.105469 9.023437 23.40625 20.984374 2.898438 26.671876 11.597657 30.378907 28.929688 37.769532 6.007812 2.558594 12.8125 5.457031 19.484375 9.582031 12.46875 7.703125 21.367187 20.023437 25.714844 33.886719 17.796874-11.164063 32.605468-21.839844 37.617187-40.484375 2.742187-10.242188 12.078125-17.410157 22.699219-17.410157 11.324218 0 21.054687 8.082032 23.125 19.210938 4.71875 25.234375 3.625 49.140625-2.972656 70.800781zm0 0" fill="#f76c57"/><path d="m428.03125 335.191406c-35.449219 15.007813-78.328125 13.671875-114.367188-7.632812l-.007812-.007813c-57.40625-62.671875-24.085938-130.140625-10.765625-151.703125 1.460937-2.363281 5.074219-1.527344 5.375 1.242188 5.464844 50.359375 35.039063 48.417968 58.058594 62.636718 16.652343 10.285157 23.289062 33.5 16.003906 51.398438-.566406 1.410156 1.085937 2.660156 2.273437 1.710938 26.269532-20.722657 65.261719-32.800782 75.773438-71.878907.804688-3 5.113281-2.832031 5.6875.222657 8.15625 43.644531-3.140625 84.679687-38.03125 114.011718zm0 0" fill="#fdc202"/><path d="m428.03125 335.191406c-11.300781 4.785156-23.367188 7.902344-35.710938 9.25-15.601562 1.703125-31.671874.5625-47.273437-3.660156-10.785156-2.910156-21.34375-7.292969-31.382813-13.222656l-.007812-.007813c-57.40625-62.671875-24.085938-130.140625-10.765625-151.703125 1.460937-2.363281 5.074219-1.527344 5.375 1.242188 5.464844 50.359375 35.039063 48.417968 58.058594 62.636718 16.652343 10.285157 23.289062 33.5 16.003906 51.398438-.566406 1.410156 1.085937 2.660156 2.273437 1.710938 26.269532-20.722657 65.261719-32.800782 75.773438-71.878907.804688-3 5.113281-2.832031 5.6875.222657 8.15625 43.644531-3.140625 84.679687-38.03125 114.011718zm0 0" fill="#fdc202"/><path d="m439.53125 287.644531c-6.519531 14.046875-10.1875 17.550781-47.210938 56.796875-15.601562 1.703125-31.671874.5625-47.273437-3.660156-6.179687-9.316406-11.941406-20.441406-18.257813-29.441406-20.148437-23.078125-28.773437-49.730469-23.550781-80.179688.40625-2.328125 3.28125-3.199218 4.902344-1.476562 15.378906 16.339844 35.132813 20.035156 47.363281 27.566406 7.683594 4.75 11.378906 17.191406 7.746094 26.109375-8.511719 21.019531 16.457031 39.597656 34.128906 25.632813 10.480469-8.265626 24.410156-15.640626 37.9375-24.894532 2.394532-1.648437 5.441406.90625 4.214844 3.546875zm0 0" fill="#fed22b"/><path d="m503.648438 460.039062c0 .664063-.019532 1.316407-.050782 1.96875-1.074218 23.695313-20.613281 42.578126-44.566406 42.578126h-174.035156c-6.167969 0-11.742188-2.496094-15.777344-6.539063-4.042969-4.035156-6.539062-9.617187-6.539062-15.777344 0-12.324219 9.992187-22.3125 22.316406-22.3125h97.644531c2.082031 0 3.84375-1.488281 4.214844-3.53125 2.769531-15.101562 15.976562-26.539062 31.875-26.539062 4.433593 0 8.660156.882812 12.503906 2.503906 1.597656.664063 3.421875.261719 4.65625-.945313 7.183594-7.03125 17.023437-11.367187 27.878906-11.367187 21.84375 0 39.878907 17.648437 39.878907 39.960937zm0 0" fill="#20b7a1"/><path d="m365.832031 459.957031c.007813.523438.007813 1.066407 0 1.597657-.464843 23.84375-19.929687 43.03125-43.886719 43.03125h-36.949218c-6.167969 0-11.742188-2.496094-15.777344-6.539063-4.042969-4.035156-6.539062-9.617187-6.539062-15.777344 0-12.324219 9.992187-22.3125 22.316406-22.3125zm0 0" fill="#199a8e"/><path d="m8.367188 469.34375c0-17.394531 14.101562-31.5 31.5-31.5 8.328124 0 15.894531 3.238281 21.527343 8.515625 1.3125 1.234375 3.234375 1.554687 4.917969.910156 2.832031-1.082031 5.90625-1.675781 9.121094-1.675781 12.246094 0 22.476562 8.605469 24.992187 20.097656.472657 2.15625 2.441407 3.652344 4.648438 3.652344h16.5625c9.730469 0 17.617187 7.886719 17.617187 17.617188 0 9.730468-7.886718 17.621093-17.617187 17.621093h-78.03125c-18.917969 0-34.347657-14.910156-35.195313-33.617187-.027344-.515625-.039062-1.035156-.039062-1.554688 0-.023437-.003906-.042968-.003906-.066406zm0 0" fill="#24d3b5"/><path d="m276.96875 420.136719c-11.304688-.632813-21.648438 3.453125-29.265625 10.457031-1.851563 1.703125-4.488281 2.15625-6.847656 1.277344-18.144531-6.757813-38.410157 4.164062-42.761719 22.980468-.6875 2.980469-3.320312 5.109376-6.378906 5.109376h-7.742188c-12.097656 0-22.402344 9.40625-22.832031 21.496093-.449219 12.691407 9.707031 23.125 22.296875 23.125h87.242188c23.949218 0 43.417968-19.183593 43.878906-43.019531.425781-21.761719-15.863282-40.210938-37.589844-41.425781zm0 0" fill="#24d3b5"/><path d="m314.5625 461.554688c-.464844 23.84375-19.929688 43.03125-43.882812 43.03125h-87.234376c-12.597656 0-22.757812-10.433594-22.304687-23.128907.128906-3.691406 1.1875-7.125 2.925781-10.121093 3.925782 3.429687 9.054688 5.511718 14.679688 5.511718h87.242187c21.722657 0 39.75-15.785156 43.261719-36.5 3.523438 6.25 5.464844 13.523438 5.3125 21.207032zm0 0" fill="#20b7a1"/><path d="m139.257812 486.960938c0 4.867187-1.972656 9.273437-5.160156 12.464843-3.191406 3.1875-7.597656 5.160157-12.464844 5.160157h-78.03125c-18.914062 0-34.347656-14.910157-35.191406-33.621094-.03125-.515625-.039062-1.039063-.039062-1.5625v-.058594c0-9.660156 4.34375-18.300781 11.1875-24.074219 1.4375 18.136719 16.609375 32.402344 35.109375 32.402344h78.03125c1.257812 0 2.484375-.128906 3.660156-.378906 1.832031 2.773437 2.898437 6.09375 2.898437 9.667969zm0 0" fill="#20b7a1"/><path d="m170.277344 227.894531c16.398437 16.605469 44.707031 4.871094 44.707031-18.347656 0-4.167969-3.375-7.546875-7.542969-7.546875-4.167968 0-7.546875 3.378906-7.546875 7.546875 0 6.085937-4.949219 11.035156-11.035156 11.035156s-11.035156-4.949219-11.035156-11.035156c0-4.167969-3.378907-7.546875-7.546875-7.546875-4.167969 0-7.546875 3.378906-7.546875 7.546875 0 6.085937-4.949219 11.035156-11.035157 11.035156-6.085937 0-11.035156-4.949219-11.035156-11.035156 0-4.167969-3.378906-7.546875-7.546875-7.546875-15.175781 0-6.738281 33.671875 18.582031 33.671875 7.261719 0 13.84375-2.976563 18.582032-7.777344zm0 0"/><path d="m131.609375 325.867188c4.828125 0 9.273437-1.695313 12.761719-4.523438 3.492187 2.828125 7.933594 4.523438 12.765625 4.523438 20.460937 0 26.742187-27.851563 12.761719-27.851563-4.167969 0-7.542969 3.375-7.542969 7.542969 0 2.878906-2.34375 5.21875-5.21875 5.21875-2.878907 0-5.21875-2.339844-5.21875-5.21875 0-4.167969-3.378907-7.542969-7.546875-7.542969-4.167969 0-7.546875 3.375-7.546875 7.542969 0 2.878906-2.339844 5.21875-5.214844 5.21875-2.878906 0-5.21875-2.339844-5.21875-5.21875 0-4.167969-3.378906-7.542969-7.546875-7.542969-14.003906 0-7.671875 27.851563 12.765625 27.851563zm0 0"/><path d="m121.632812 461.796875h-14.417968c-5.132813-17.332031-23.875-28-42.003906-22.140625-25.867188-22.148438-66.164063-2.449219-64.335938 31.648438 1.035156 22.886718 19.808594 40.824218 42.726562 40.824218h78.03125c13.882813 0 25.171876-11.296875 25.171876-25.167968 0-13.875-11.289063-25.164063-25.171876-25.164063zm0 35.242187h-78.03125c-15.222656 0-27.6875-12.238281-27.6875-27.785156.082032-20.898437 25.144532-31.628906 40.3125-17.386718 3.382813 3.160156 8.390626 4.125 12.777344 2.445312 10.515625-3.96875 21.761719 2.515625 24.046875 12.988281 1.214844 5.554688 6.277344 9.589844 12.019531 9.589844h16.5625c5.5625 0 10.078126 4.515625 10.078126 10.070313 0 5.550781-4.515626 10.078124-10.078126 10.078124zm0 0"/><path d="m432.121094 424.644531c-22.015625-7.835937-46.304688 4.886719-52.105469 27.765625h-58.59375c-6.378906-37.714844-50.949219-52.371094-78.378906-27.777344-1.371094-.492187-2.757813-.902343-4.164063-1.226562v-61.769531c3.761719-3.460938 7.132813-7.367188 10.019532-11.601563 29.488281 13.566406 64.003906 12.847656 93.070312-2.332031 112.605469 31.785156 243.550781-85.84375 120.25-290.730469-5.460938-9.089844-19.289062-6.496094-21.15625 3.921875-4.09375 22.894531-5.476562 30.3125-7.304688 40.898438-.703124 4.105469 2.054688 8.007812 6.160157 8.722656 4.113281.703125 8.015625-2.054687 8.722656-6.167969 1.898437-11.074218 3.964844-22.304687 5.5625-31.238281 28.378906 49.398437 42.757813 95.484375 42.757813 137.085937 0 38.492188-12.632813 68.535157-32.011719 89.761719 11.070312-23.554687 14.175781-50.847656 8.695312-80.144531-2.035156-10.894531-17.5-11.539062-20.390625-.800781-8.117187 30.191406-35.21875 42.480469-60.351562 58.847656.671875-17.550781-7.777344-35.480469-22.441406-44.535156-24.761719-15.292969-49.550782-11.28125-54.515626-57.03125-1.070312-9.871094-14.074218-12.84375-19.292968-4.390625-20.773438 33.625-29.789063 75.375-16.90625 113.722656-51.9375-77.222656.609375-188.902344 61.496094-259.679688-11.972657 45.472657-25.542969 119.394532 1.601562 157.679688 7.585938 10.722656 24.304688 5.195312 24.304688-7.605469 0-.0625-.453126-5.832031-.453126-10.753906 0-34.339844 15.785157-62.296875 30.988282-74.257813-1.3125 37.289063 7.421875 79.316407 25.882812 109.890626 7.09375 11.742187 24.890625 6.347656 24.890625-6.75 0-7.972657-9.539062-16.40625-4.296875-60.34375.503906-4.132813-2.441406-7.898438-6.585937-8.390626-4.125-.503906-7.898438 2.457032-8.390625 6.589844-1.890625 15.730469-2.761719 31.820313.179687 47.4375-12.566406-27.777344-19.457031-65.394531-15.683593-100.597656.261718-2.472656-.714844-4.929688-2.617188-6.546875-12.429688-10.589844-61.464844 30.261719-59.398438 96.882813-20.21875-38.285157-3.941406-112.265626 8.199219-153.9375 3.488281-11.65625-11.269531-19.855469-19.464843-11.027344-16.257813 17.554687-44.617188 51.339844-66.371094 94.105468-41.128906-60.621093-135.070313-45.089843-154.316406 25.65625-24.851563-5.367187-48.65625 11.777344-52.578126 36.007813-26.164062 3.164063-45.917968 27.285156-42.082031 54.867187-15.351562 8.472657-25.050781 24.667969-25.050781 42.417969 0 27.894531 23.550781 49.648438 50.371094 48.390625 5.324218 19.445313 18.84375 36.195313 36.914062 45.441406 3.710938 1.890626 8.257813.433594 10.160156-3.277343 1.890626-3.714844.421876-8.261719-3.289062-10.164063-15.460938-7.90625-26.71875-22.765625-30.109375-39.738281-.90625-4.496094-4.890625-7.757813-9.480469-7.757813-.320312 0-3.753906.445313-6.136718.445313-18.378907 0-33.339844-14.949219-33.339844-33.339844 0-13.222656 7.828125-25.203125 19.949218-30.535156 4.320313-1.898437 6.5625-6.597656 5.515626-11.035156-4.480469-18.90625 8.160156-37.328125 26.8125-40.503907 2.261718 11.859376 9.3125 22.28125 19.65625 28.8125-1.902344 5.210938-3.058594 10.644532-3.449219 16.21875-.292969 4.152344 2.84375 7.765626 7 8.058594 4.164062.289063 7.765625-2.839844 8.058593-7.003906.363282-5.121094 1.578126-10.089844 3.632813-14.769531 2.246094-5.082031.285156-11.296875-4.921875-13.972657-6.75-3.460937-11.707031-9.308593-14.082031-16.207031-6.347657-18.246093 7.003906-37.210937 25.671875-38.199219 7.671875-.410156 10.152344 1.917969 13.886718 1.917969 5.058594 0 9.503907-3.589843 10.582032-8.550781 14.105468-65.019531 102.992187-76.292969 132.808594-16.738281-3.773438 8.554687-7.210938 17.414062-10.207032 26.503906-5.007812-3.238281-11.636718.363281-11.636718 6.335937 0 4.027344-3.277344 7.304688-7.304688 7.304688s-7.304688-3.277344-7.304688-7.304688c0-4.167968-3.378906-7.546874-7.546874-7.546874-4.164063 0-7.542969 3.378906-7.542969 7.546874 0 4.027344-3.277344 7.304688-7.304688 7.304688-4.027343 0-7.304687-3.277344-7.304687-7.304688 0-4.167968-3.378906-7.546874-7.542969-7.546874-4.167969 0-7.546875 3.378906-7.546875 7.546874 0 19.3125 22.898438 29.484376 37.246094 16.75 7.511718 6.667969 18.46875 7.496094 26.867187 2.132813-8.320312 38.144531-7.46875 80.476563 10.855469 115.128906-25.464844 18.167969-62.527344 12.761719-81.382812-14.628906-1.855469-2.75-5.160157-4.6875-8.914063-4.6875-6.15625 0-10.84375 6.742187-26.539063 6.742187-16.964843 0-31.5-9.445312-38.964843-22.898437-2.03125-3.644531-6.628907-4.949219-10.269531-2.929687-3.640626 2.035156-4.941407 6.632812-2.917969 10.273437 15.421875 27.609375 49.222656 38.160156 77.367187 25.082031 17.597656 23.011719 47.300782 33.71875 75.984375 26.546875 1.335938 7.691407.910157 16.082031-1.78125 24.117188-12.765625 38.835937-64.546875 47.144531-88.519531 13.539062-2.640625-3.703125-7.503906-5.070312-11.671875-3.320312-7.480469 3.148437-14.839844 4.457031-22.554687 4.457031-4.136719 0-7.515626 3.339844-7.546876 7.496094-.019531 4.164062 3.332032 7.566406 7.496094 7.597656 8.4375 0 16.402344-1.230469 24.546875-4.117188 10.191407 12.484376 24.667969 20.746094 40.464844 23.230469v74.296875c-18.015625 0-30.59375 13.699219-31.128906 28.773438-.601563 16.953125 12.917969 30.945312 29.839843 30.945312h275.589844c28.550782 0 52.160156-22.949218 52.160156-52.171875 0-41.03125-48.78125-62.53125-79.074218-35.3125zm-128.980469-233.445312c9.671875 41.863281 39.578125 42.726562 59.390625 54.960937 13.054688 8.0625 18.996094 27.359375 12.984375 42.136719-3.480469 8.546875 6.683594 16.199219 13.9375 10.476563 21.980469-17.34375 55.078125-29.359376 71.542969-58.933594 2.265625 35.5-10.144532 65.820312-36.390625 88.5-33.558594 14.105468-72.851563 12.347656-105.609375-6.316406-45.296875-49.863282-30.1875-102.335938-15.855469-130.824219zm-44.484375 108.683593c3.148438-1.539062 6.1875-3.308593 9.09375-5.300781 13.609375 19.914063 32.246094 35.472657 53.632812 45.484375-21.035156 6.925782-44.566406 5.976563-65.492187-3.421875 4.675781-12.175781 5.292969-25.140625 2.765625-36.761719zm-58.835938 78.84375c8.53125-.640624 16.632813-2.976562 23.964844-6.667968v50.714844c-8.925781 1.332031-17.546875 5.753906-23.964844 12.925781zm70.859376 118.3125c-16.738282 0-70.246094 0-87.234376 0-8.332031 0-15.074218-6.886718-14.761718-15.3125.28125-7.847656 7.132812-14.222656 15.292968-14.222656h7.738282c6.523437 0 12.214844-4.429687 13.730468-10.957031 2.90625-12.515625 15.976563-22.941406 33.433594-17.386719 4.886719 1.570313 10.179688.445313 13.933594-3.015625 22.667969-20.816406 59.820312-1.101562 53.558594 31.359375-3.21875 16.75-18.105469 29.535156-35.691406 29.535156zm188.351562 0h-151.964844c8.058594-8.066406 13.128906-18.378906 14.597656-29.535156h60.976563c5.714844 0 10.613281-4.085937 11.640625-9.71875 2.871094-15.671875 19.496094-24.507812 34.035156-18.441406 4.367188 1.839844 9.417969.855469 12.847656-2.503906 20.320313-19.882813 54.875-5.523438 54.941407 23.035156 0 20.800781-16.707031 37.164062-37.074219 37.164062zm0 0"/></svg>