<svg height="512pt" viewBox="-1 0 512 512.00014" width="512pt" xmlns="http://www.w3.org/2000/svg"><path d="m304.605469 232.875-.007813 271.570312h-245.957031c-5.175781 0-9.367187-4.195312-9.359375-9.359374v-262.210938l127.664062-117.613281zm0 0" fill="#faa598"/><path d="m213.882812 149.292969-121.820312 112.21875c-4.78125 4.40625-7.5 10.609375-7.5 17.109375v225.820312h-25.917969c-5.183593 0-9.375-4.183594-9.367187-9.355468v-262.210938l127.667968-117.613281zm0 0" fill="#fa9084"/><path d="m227.761719 328.082031.007812 176.363281h-101.652343v-176.371093c.007812-4.058594 3.292968-7.34375 7.347656-7.351563l86.945312.007813c4.058594-.007813 7.351563 3.285156 7.351563 7.351562zm0 0" fill="#c97e67"/><path d="m304.601562 335.578125h-46.6875c-2.589843 0-4.6875-2.097656-4.6875-4.6875v-20.171875c0-2.589844 2.097657-4.6875 4.6875-4.6875h46.6875zm0 0" fill="#e5554e"/><path d="m49.277344 400.21875h30.914062v24.863281c0 2.585938-2.097656 4.6875-4.6875 4.6875h-26.226562zm0 0" fill="#e5554e"/><path d="m49.277344 370.671875h46.691406c2.589844 0 4.6875 2.101563 4.6875 4.691406v20.171875c0 2.585938-2.097656 4.6875-4.6875 4.6875h-46.691406zm0 0" fill="#f76c57"/><path d="m166.488281 96.34375-153.449219 153.449219c-7.257812 7.257812-7.257812 19.019531 0 26.277343 7.253907 7.257813 19.019532 7.257813 26.273438 0l137.628906-137.625 141.902344 141.902344c7.257812 7.257813 19.019531 7.257813 26.277344 0 7.257812-7.253906 7.257812-19.019531 0-26.277344l-157.726563-157.726562c-5.738281-5.734375-15.148437-5.757812-20.90625 0zm0 0" fill="#c97e67"/><path d="m482.269531 288.296875c-1.589843 2.53125-3.269531 4.988281-5.015625 7.359375-13.25 18.003906-30.726562 31.394531-50.402344 39.71875-35.523437 15.03125-78.488281 13.699219-114.601562-7.652344l-.007812-.003906c-11.679688-6.902344-22.199219-15.632812-31.101563-25.863281-.015625-.007813-.023437-.019531-.023437-.027344-8.351563-9.589844-15.277344-20.496094-20.425782-32.425781-3.996094-9.273438-6.914062-19.167969-8.585937-29.550782-16.429688-102.296874 62.042969-198.351562 92.308593-231.023437 2.839844-3.0625 7.871094-.207031 6.699219 3.804687-12.445312 42.679688-31.648437 126.867188-3.632812 166.476563 3.441406 4.859375 11.113281 2.128906 10.609375-3.804687-4.292969-50.367188 24.019531-91.398438 46.6875-97.625-4.78125 44.601562 6.675781 90.664062 23.910156 119.203124 3.613281 5.984376 12.859375 1.667969 10.535156-4.921874-11.132812-31.59375-4.039062-62.910157 7.964844-130.140626.640625-3.59375 5.402344-4.488281 7.28125-1.355468 60.445312 100.46875 58.644531 178.914062 27.800781 227.832031zm0 0" fill="#e5554e"/><path d="m482.269531 288.296875c-1.589843 2.53125-3.269531 4.988281-5.015625 7.359375-13.25 18.003906-30.726562 31.394531-50.402344 39.71875-35.523437 15.03125-78.488281 13.699219-114.601562-7.652344l-.007812-.003906c-11.679688-6.902344-22.199219-15.632812-31.101563-25.863281-.015625-.007813-.023437-.019531-.023437-.027344-8.351563-9.589844-15.277344-20.496094-20.425782-32.425781-1.863281-11.480469-2.179687-23.28125-.949218-35.253906 3.238281-31.515626 16.527343-56.9375 24.15625-69.289063 4.335937-7.011719 11.8125-11.179687 20.007812-11.179687 12.058594 0 22.144531 9.039062 23.453125 21.023437 2.902344 26.730469 11.621094 30.445313 28.984375 37.847656 6.019531 2.566407 12.839844 5.472657 19.527344 9.605469 12.492187 7.71875 21.410156 20.0625 25.765625 33.953125 17.832031-11.1875 32.675781-21.886719 37.695312-40.566406 2.746094-10.261719 12.101563-17.445313 22.746094-17.445313 11.34375 0 21.09375 8.097656 23.171875 19.25 4.722656 25.285156 3.628906 49.242188-2.980469 70.949219zm0 0" fill="#f76c57"/><path d="m426.851562 335.375c-35.523437 15.035156-78.488281 13.699219-114.601562-7.648438l-.007812-.007812c-57.523438-62.800781-24.132813-130.40625-10.785157-152.015625 1.464844-2.367187 5.082031-1.527344 5.386719 1.246094 5.476562 50.464843 35.109375 48.519531 58.175781 62.765625 16.683594 10.308594 23.335938 33.570312 16.039063 51.503906-.570313 1.410156 1.085937 2.664062 2.277344 1.714844 26.320312-20.765625 65.394531-32.867188 75.925781-72.027344.804687-3.007812 5.125-2.835938 5.699219.226562 8.171874 43.730469-3.144532 84.851563-38.109376 114.242188zm0 0" fill="#fdc202"/><path d="m426.851562 335.375c-11.324218 4.796875-23.414062 7.917969-35.785156 9.269531-15.628906 1.707031-31.734375.5625-47.367187-3.667969-10.808594-2.917968-21.390625-7.308593-31.449219-13.25l-.007812-.007812c-57.523438-62.800781-24.132813-130.40625-10.785157-152.015625 1.464844-2.367187 5.082031-1.527344 5.386719 1.246094 5.476562 50.464843 35.109375 48.519531 58.175781 62.765625 16.683594 10.308594 23.335938 33.570312 16.039063 51.503906-.570313 1.410156 1.085937 2.664062 2.277344 1.714844 26.320312-20.765625 65.394531-32.867188 75.925781-72.027344.804687-3.007812 5.125-2.835938 5.699219.226562 8.171874 43.730469-3.144532 84.851563-38.109376 114.242188zm0 0" fill="#fdc202"/><path d="m438.375 287.730469c-6.535156 14.078125-10.207031 17.585937-47.308594 56.914062-15.632812 1.707031-31.738281.5625-47.367187-3.667969-6.191407-9.335937-11.964844-20.480468-18.296875-29.5-20.1875-23.125-28.832032-49.832031-23.597656-80.347656.40625-2.332031 3.289062-3.203125 4.914062-1.476562 15.40625 16.375 35.199219 20.074218 47.457031 27.621094 7.699219 4.761718 11.402344 17.226562 7.761719 26.164062-8.527344 21.0625 16.488281 39.679688 34.199219 25.683594 10.5-8.28125 24.460937-15.671875 38.011719-24.945313 2.402343-1.652343 5.457031.90625 4.226562 3.554688zm0 0" fill="#fed22b"/><path d="m168.679688 320.722656c-4.023438.050782-7.269532 3.316406-7.277344 7.347656v176.367188h-35.285156v-176.367188c.011718-4.050781 3.296874-7.339843 7.347656-7.347656zm0 0" fill="#c0694e"/><path d="m156.554688 429.269531c4.175781 0 7.5625-3.382812 7.5625-7.558593v-21.492188c0-4.175781-3.386719-7.558594-7.5625-7.558594-4.175782 0-7.558594 3.382813-7.558594 7.558594v21.492188c0 4.175781 3.382812 7.558593 7.558594 7.558593zm0 0"/><path d="m461.109375 56.589844c-5.472656-9.109375-19.328125-6.511719-21.199219 3.929687-4.105468 22.941407-5.488281 30.375-7.320312 40.980469-.703125 4.113281 2.058594 8.023438 6.171875 8.738281 4.121093.707031 8.035156-2.054687 8.738281-6.179687 1.90625-11.097656 3.976562-22.347656 5.578125-31.300782 28.4375 49.5 42.84375 95.679688 42.84375 137.363282 0 38.570312-12.660156 68.675781-32.074219 89.949218 11.089844-23.605468 14.199219-50.953124 8.710938-80.3125-2.039063-10.914062-17.539063-11.558593-20.433594-.800781-8.132812 30.253907-35.289062 42.570313-60.472656 58.96875.671875-17.585937-7.792969-35.550781-22.488282-44.628906-24.8125-15.324219-49.652343-11.300781-54.625-57.144531-1.074218-9.894532-14.105468-12.871094-19.335937-4.398438-20.859375 33.769532-29.828125 75.605469-16.933594 113.972656-23.9375-35.566406-24.828125-81.753906-14.273437-123.46875 14.707031-58.328124 51.625-108.554687 75.890625-136.757812-11.960938 45.417969-25.636719 119.46875 1.601562 158 7.925781 11.199219 25.613281 4.566406 24.304688-8.824219-.273438-3.171875-.402344-6.390625-.402344-9.574219 0-34.40625 15.816406-62.421874 31.050781-74.410156-1.316406 37.367188 7.4375 79.476563 25.9375 110.117188 8.253906 13.664062 29.539063 3.824218 24.144532-11.34375-6.449219-18.316406-5.84375-36.3125-3.507813-55.886719.503906-4.144531-2.449219-7.914063-6.605469-8.410156-4.140625-.503907-7.902344 2.460937-8.40625 6.605469-1.894531 15.761718-2.765625 31.882812.179688 47.53125-10.503906-23.214844-16.761719-52.824219-16.761719-80.839844 0-20.277344 3.027344-22.601563-1.574219-26.523438-12.449218-10.605468-61.59375 30.277344-59.519531 97.082032-20.222656-38.324219-3.984375-112.386719 8.21875-154.25 3.492187-11.679688-11.296875-19.894532-19.507813-11.050782-22.429687 24.226563-67.867187 79.296875-87.34375 146.226563l-58.953124-58.953125c-8.714844-8.691406-22.867188-8.71875-31.605469 0l-153.441407 153.453125c-16.542968 16.542969-4.578124 44.628906 18.476563 44.628906 5.675781 0 11.070313-1.796875 15.546875-5.121094v211.128907c0 9.324218 7.589844 16.914062 16.925781 16.914062h12.460938c4.171875 0 7.558593-3.378906 7.558593-7.5625 0-4.171875-3.386718-7.558594-7.558593-7.558594h-12.460938c-1 0-1.804687-.808594-1.804687-1.792968v-57.757813h23.347656c4.183594 0 7.558594-3.386719 7.558594-7.558594v-21.988281h12.90625c4.183594 0 7.558594-3.386719 7.558594-7.558594v-29.550781c0-4.171875-3.375-7.558594-7.558594-7.558594h-43.8125v-93.875l63.964844-63.964843c2.953124-2.953126 2.953124-7.742188 0-10.695313-2.953126-2.953125-7.742188-2.953125-10.695313 0-6.734375 6.730469-59.894531 59.894531-68.390625 68.390625-7.886719 7.882812-9.84375 10.988281-15.546875 10.988281-9.664063 0-14.785156-11.792969-7.792969-18.824219 67.15625-67.152343 43.648438-43.648437 153.457032-153.441406 2.800781-2.804687 7.414062-2.796875 10.210937 0l65.335937 65.335938c-1.917968 8.859375-3.316406 17.882812-4.125 27.046875l-60.96875-60.980469c-2.953124-2.953125-7.742187-2.953125-10.695312 0l-40.09375 40.101562c-2.953125 2.953126-2.953125 7.742188 0 10.6875 2.953125 2.953126 7.730469 2.953126 10.6875 0l34.746094-34.75 65.589844 65.585938c.527343 31.234375 7.941406 58.710938 26.410156 83.753906h-15.707032c-4.183593 0-7.558593 3.378906-7.558593 7.5625v29.546875c0 4.171875 3.375 7.558594 7.558593 7.558594h43.8125v153.738281h-61.714843v-168.796875c0-8.238281-6.652344-14.910156-14.910157-14.910156l-86.957031-.011719c-8.207031.019532-14.890625 6.695313-14.902343 14.910156v168.808594h-17.207032c-4.175781 0-7.5625 3.386719-7.5625 7.558594 0 4.183594 3.386719 7.5625 7.5625 7.5625h203.253906c4.171876 0 7.5625-3.378906 7.5625-7.5625v-168.148438c114.46875 62.867188 284.140626-55.050781 148.945313-279.699218zm-404.269531 321.644531h36.25v14.425781c-13.578125 0-22.730469 0-36.25 0zm0 29.546875h15.785156v14.425781h-15.785156zm163.363281 89.097656h-86.523437v-168.597656l86.523437.011719zm76.839844-168.859375h-36.253907v-14.425781h21.132813c4.652344 4.636719 9.65625 8.988281 15.121094 13.003906zm126.375.488281c-33.964844 14.277344-73.355469 12.179688-105.804688-6.308593-45.414062-49.972657-30.269531-102.5625-15.90625-131.109375 9.691407 41.945312 39.660157 42.8125 59.511719 55.074218 13.078125 8.078126 19.035156 27.414063 13.007812 42.222657-3.484374 8.5625 6.699219 16.230469 13.96875 10.496093 22.023438-17.382812 55.191407-29.417968 71.6875-59.054687 2.273438 35.574219-10.164062 65.953125-36.464843 88.679687zm0 0"/></svg>