<svg height="512pt" viewBox="0 0 512 512.00167" width="512pt" xmlns="http://www.w3.org/2000/svg"><path d="m269.375 498.648438c-8.148438 4.429687-18.34375 1.417968-22.773438-6.730469l-105.535156-194.082031 29.5-16.042969 105.535156 194.085937c4.433594 8.144532 1.417969 18.339844-6.726562 22.769532zm0 0" fill="#ae583e"/><path d="m282.515625 334.308594s15.5625-72.113282-104.671875-60.503906l49.914062 99.398437s40.269532 5.398437 54.757813-38.894531" fill="#199a8e"/><path d="m222.078125 339.847656c10.921875 22.84375 2.578125 50.613282-19.136719 63.644532-15.097656 9.0625-32.882812 9.121093-47.398437 1.972656-.78125-.386719-1.714844-.1875-2.269531.496094-4.507813 5.570312-10.164063 10.359374-16.871094 13.964843-23.71875 12.738281-52.554688 6.472657-69.066406-13.527343-.601563-.742188-1.691407-.863282-2.460938-.292969-1.332031.980469-2.742188 1.875-4.238281 2.679687-17.042969 9.152344-38.277344 2.757813-47.429688-14.28125-6.785156-12.632812-5.019531-27.5625 3.28125-38.171875.535157-.683593.503907-1.652343-.066406-2.300781-1.757813-1.992188-3.3125-4.199219-4.621094-6.632812-6.671875-12.425782-5.078125-27.085938 2.878907-37.664063 3.429687-4.550781 8.042968-8.351563 13.679687-10.890625 15.542969-6.988281 34.144531-1.585938 43.511719 12.652344 3.035156 4.605468 4.828125 9.609375 5.507812 14.660156 2.03125-1.488281 4.1875-2.859375 6.46875-4.085938 19.355469-10.394531 42.113282-8.136718 58.808594 3.90625 3.296875-3.261718 7.097656-6.109374 11.382812-8.410156 21.035157-11.300781 46.585938-5.820312 61.316407 11.804688 2.609375 3.121094 4.875 6.617187 6.722656 10.476562zm0 0" fill="#24d3b5"/><path d="m215.351562 329.375c-.351562 1.804688-.800781 3.613281-1.34375 5.417969-8.964843 29.769531-40.375 46.636719-70.144531 37.671875-3.351562-1.007813-6.53125-2.3125-9.535156-3.855469-1.28125-.660156-2.847656-.242187-3.640625.96875-10.566406 16.15625-30.851562 24.164063-50.269531 18.316406-18.144531-5.457031-30.246094-21.421875-31.667969-39.230469-.117188-1.484374-1.335938-2.636718-2.816406-2.609374-11.746094.214843-23.183594-6.242188-28.683594-17.683594-2.855469-5.953125-3.628906-12.46875-2.570312-18.636719 3.425781-4.550781 8.039062-8.351563 13.675781-10.890625 15.542969-6.988281 34.148437-1.585938 43.515625 12.652344 3.03125 4.605468 4.824218 9.609375 5.507812 14.660156 2.03125-1.488281 4.183594-2.859375 6.46875-4.085938 19.351563-10.394531 42.113282-8.136718 58.804688 3.90625 3.300781-3.261718 7.097656-6.109374 11.382812-8.410156 21.039063-11.300781 46.589844-5.820312 61.316406 11.808594zm0 0" fill="#20b7a1"/><path d="m205.632812 203.527344c-7.121093-13.261719-22.472656-19.269532-36.351562-15.109375-1.039062.3125-2.175781 0-2.886719-.820313-8.261719-9.480468-19.277343-16.765625-32.316406-20.472656-34.511719-9.804688-71.066406 9.585938-82.28125 43.667969-4.390625 13.355469-4.382813 27.046875-.796875 39.546875.464844 1.617187-.558594 3.265625-2.214844 3.558594-3.675781.65625-7.300781 1.984374-10.707031 4.054687-13.582031 8.246094-18.78125 25.75-11.902344 40.066406 5.5 11.445313 16.9375 17.902344 28.683594 17.6875 1.484375-.027343 2.699219 1.125 2.816406 2.605469 1.425781 17.8125 13.523438 33.773438 31.664063 39.234375 19.421875 5.847656 39.710937-2.160156 50.273437-18.316406.792969-1.210938 2.359375-1.632813 3.644531-.96875 3 1.542969 6.179688 2.847656 9.527344 3.855469 29.777344 8.964843 61.179688-7.902344 70.148438-37.675782 7.074218-23.496094-1.949219-47.996094-20.695313-61.691406-1.332031-.972656-1.566406-2.855469-.488281-4.105469 8.203125-9.484375 10.171875-23.410156 3.882812-35.117187zm0 0" fill="#a9e8d1"/><path d="m96.195312 167.542969c-9.5 7.820312-16.949218 18.285156-21.035156 30.707031-4.394531 13.347656-4.386718 27.042969-.800781 39.542969.460937 1.621093-.558594 3.261719-2.214844 3.558593-3.671875.65625-7.300781 1.984376-10.710937 4.058594-13.582032 8.238282-18.78125 25.746094-11.898438 40.0625 5.496094 11.445313 16.933594 17.898438 28.683594 17.683594 1.484375-.023438 2.699219 1.132812 2.820312 2.605469 1.421876 17.8125 13.519532 33.773437 31.660157 39.242187 7.179687 2.164063 14.488281 2.433594 21.378906 1.089844-11.246094 11.433594-28.300781 16.40625-44.738281 11.457031-18.140625-5.46875-30.238282-21.429687-31.660156-39.242187-.121094-1.472656-1.335938-2.628906-2.820313-2.605469-11.75.214844-23.1875-6.238281-28.679687-17.683594-6.882813-14.316406-1.683594-31.824219 11.894531-40.0625 3.410156-2.074219 7.039062-3.402343 10.710937-4.058593 1.65625-.296876 2.675782-1.9375 2.21875-3.558594-3.585937-12.5-3.597656-26.195313.796875-39.546875 7.046875-21.429688 24.113281-37.042969 44.394531-43.25zm0 0" fill="#93e2c6"/><path d="m499.605469 50.164062c-10.800781 7.273438-21.230469 15.789063-31 25.238282-3.625 3.496094-7.164063 7.121094-10.585938 10.859375-33.769531 36.769531-57.519531 84.296875-57.964843 127.457031-.0625 5.859375.300781 11.628906 1.128906 17.277344 2.769531 18.875 10.679687 36.445312 24.976562 51.296875 17.8125 18.5 28.199219 38.152343 33.242188 57.953125v.011718c1.808594 7.144532 2.929687 14.285157 3.457031 21.417969 4.089844 55.5625-28.078125 109.605469-50.800781 140.328125-3.839844 5.183594-12.003906 1.304688-10.417969-4.96875 35.039063-138.269531-164.628906-154.636718-199.75-223.230468-2.34375-4.597657-3.960937-9.425782-4.707031-14.546876-2.121094-14.347656 2.515625-30.9375 16.539062-50.941406 22.886719-32.625 20.5-60.816406 8.488282-83.335937-2.40625-4.535157-5.222657-8.851563-8.296876-12.914063-13.929687-18.449218-33.257812-31.976562-46.070312-39.644531-6.710938-4.023437-7.4375-13.539063-1.375-18.5 108.410156-88.6875 367.640625-27.015625 333.136719-3.757813zm0 0" fill="#d9e9ff"/><path d="m109.828125 109.640625s-43.761719 42.699219-51.929687-44.554687c-.207032-2.242188 1.515624-4.199219 3.761718-4.269532 17.035156-.535156 79.777344.601563 48.167969 48.824219zm0 0" fill="#24d3b5"/><path d="m453.515625 195.535156s-41.089844-45.277344 46.402344-50.277344c2.246093-.128906 4.140625 1.664063 4.128906 3.910157-.082031 17.042969-3.488281 79.707031-50.53125 46.367187zm0 0" fill="#24d3b5"/><path d="m440.621094 455.972656c-9.125 18.085938-19.582032 33.886719-28.5625 46.03125-3.839844 5.183594-12.003906 1.304688-10.417969-4.96875 35.039063-138.269531-164.628906-154.636718-199.75-223.230468-2.34375-4.597657-3.960937-9.425782-4.707031-14.546876-2.121094-14.347656 2.515625-30.9375 16.539062-50.941406 22.886719-32.625 20.5-60.816406 8.488282-83.335937-2.40625-4.535157-5.222657-8.851563-8.296876-12.914063-13.929687-18.449218-33.257812-31.976562-46.070312-39.644531-6.710938-4.023437-7.4375-13.539063-1.375-18.5 46.445312-38 120.566406-48.394531 187.410156-46.03125-56.425781 2.089844-113.683594 14.648437-152.046875 46.03125-6.0625 4.960937-5.335937 14.476563 1.375 18.5 12.808594 7.667969 32.136719 21.195313 46.070313 39.644531 3.070312 4.0625 5.890625 8.378906 8.296875 12.914063 12.011719 22.519531 14.394531 50.710937-8.488281 83.335937-14.023438 20.003906-18.660157 36.59375-16.539063 50.941406.746094 5.121094 2.363281 9.949219 4.707031 14.546876 31.292969 61.128906 193.253906 80.78125 203.367188 182.167968zm0 0" fill="#cde2ff"/><path d="m118.152344 90.960938c-.957032 5.265624-3.585938 11.4375-8.324219 18.683593 0 0-43.757813 42.695313-51.933594-44.558593-.199219-2.242188 1.515625-4.191407 3.769531-4.261719 2.808594-.09375 6.859376-.132813 11.539063.078125 9.609375 49.398437 34.714844 37.40625 44.949219 30.058594zm0 0" fill="#20b7a1"/><path d="m482.296875 202.890625c.535156.371094 1.0625.734375 1.574219 1.089844-7.230469 2.738281-17.054688.988281-30.359375-8.445313 0 0-41.082031-45.277344 46.40625-50.277344 2.242187-.132812 4.140625 1.667969 4.132812 3.910157-.011719 1.75-.050781 3.972656-.171875 6.527343-53.972656 11.507813-21.582031 47.195313-21.582031 47.195313zm0 0" fill="#20b7a1"/><path d="m129.105469 248.6875c4.152343-2.261719 7.316406-5.839844 9.0625-10.0625 4.457031.820312 9.304687.070312 13.378906-2.140625 18.058594-9.824219 10.160156-37.324219-2.121094-30.625-3.679687 1.992187-5.042969 6.597656-3.042969 10.273437 1.886719 3.414063-.613281 7.671876-4.546874 7.671876-1.839844 0-3.621094-.96875-4.578126-2.710938-2-3.675781-6.597656-5.039062-10.273437-3.039062-3.667969 1.996093-5.039063 6.597656-3.042969 10.273437 1.40625 2.578125.382813 5.707031-2.070312 7.042969-2.566406 1.402344-5.695313.402344-7.042969-2.082032-2-3.675781-6.605469-5.039062-10.273437-3.039062-12.457032 6.773438 6.664062 28.171875 24.550781 18.4375zm0 0"/><path d="m125.085938 308.046875c19.90625 4.949219 36.261718-16.082031 26.460937-34.097656-1.992187-3.679688-6.597656-5.035157-10.277344-3.03125-3.675781 1.988281-5.03125 6.597656-3.039062 10.273437.6875 1.242188 1.03125 2.597656 1.03125 4 0 8.703125-11.667969 11.632813-15.785157 4.023438-2-3.679688-6.605468-5.03125-10.285156-3.03125-3.667968 1.988281-5.03125 6.597656-3.03125 10.273437.679688 1.242188 1.023438 2.597657 1.023438 4.003907 0 8.753906-11.675782 11.570312-15.78125 4.019531-2.003906-3.679688-6.597656-5.042969-10.277344-3.03125-3.675781 1.992187-5.042969 6.597656-3.042969 10.277343 9.859375 18.105469 36.339844 15.644532 43.003907-3.679687zm0 0"/><path d="m152.347656 358.863281c-3.675781 2-5.035156 6.601563-3.035156 10.277344 2.148438 3.953125-3.839844 7.160156-5.96875 3.246094-2-3.679688-6.601562-5.035157-10.277344-3.039063-3.675781 2-5.035156 6.601563-3.039062 10.277344 2.15625 3.964844-3.84375 7.15625-5.96875 3.246094-1.996094-3.675782-6.597656-5.039063-10.277344-3.039063-9.566406 5.203125-.242188 19.96875 13.273438 19.96875 7.019531 0 13.65625-4.023437 16.777343-10.652343 14.976563 2.03125 26.0625-13.878907 18.792969-27.25-2-3.675782-6.601562-5.035157-10.277344-3.035157zm0 0"/><path d="m503.835938 56.449219c5.640624-3.800781 6.476562-8.507813 6.476562-10.984375 0-9.253906-10.34375-15.308594-18.125-19.046875-40.898438-19.679688-152.613281-37.714844-243-17.667969-4.09375.898438-6.667969 4.949219-5.757812 9.03125.898437 4.09375 4.949218 6.667969 9.03125 5.757812 98.808593-21.890624 219.871093 3.871094 241.355468 21.390626-10.628906 7.300781-20.90625 15.78125-30.589844 25.148437-6.796874-6.265625-20.40625-14.226563-47.59375-19.945313-4.09375-.859374-8.117187 1.757813-8.976562 5.855469-.863281 4.09375 1.757812 8.113281 5.851562 8.972657 25.078126 5.277343 35.796876 12.054687 40.148438 15.960937-11.070312 12.03125-21.144531 25.195313-29.726562 39.046875-18.914063 30.484375-29.351563 61.613281-30.375 90.347656-13.441407-6.125-39.605469-15.878906-69.230469-15.4375-4.1875.0625-7.527344 3.503906-7.46875 7.6875.0625 4.28125 3.652343 7.574219 7.6875 7.46875 33.449219-.5 62.953125 13.945313 69.578125 17.4375 2.402344 23.332032 11.632812 43.503906 27.585937 60.074219 14.792969 15.371094 24.925781 32.429687 30.324219 50.96875-16.226562-10.203125-39.179688-15.585937-68.308594-15.972656-4.222656-.050781-7.625 3.289062-7.679687 7.472656-.054688 4.1875 3.292969 7.625 7.476562 7.679687 58.949219.785157 71.730469 23.480469 72.851563 25.746094 2.859375 44.464844-19.109375 90.996094-44.558594 127.308594 16.855469-85.914062-51.648438-124.773438-124.789062-163.152344 0-.011718-.011719-.011718-.019532-.011718-35.761718-18.820313-66.28125-35.414063-77.347656-57.195313 9.148438-4.523437 39.476562-17.808594 81.179688-18.535156 4.183593-.074219 7.515624-3.523438 7.445312-7.707031-.074219-4.183594-3.488281-7.480469-7.710938-7.445313-41.816406.726563-72.609374 12.949219-85.171874 18.886719-1.191407-15.054688 6.890624-30.597656 15.527343-42.921875 20.335938-28.996094 25.460938-60.269531 9.09375-91.140625 15.464844-6.925782 55.765625-21.292969 107.734375-11.851563 4.113282.75 8.0625-1.980469 8.8125-6.101562.746094-4.117188-1.984375-8.058594-6.101562-8.808594-58.585938-10.644531-102.757813 6.273437-118.640625 13.796875-14.417969-19.558594-34.59375-33.960938-49.082031-42.636719-2.246094-1.34375-2.453126-4.511719-.476563-6.132812 14.1875-11.609375 31.96875-21.136719 52.84375-28.332031 3.960937-1.363282 6.0625-5.667969 4.699219-9.628907-1.367188-3.960937-5.679688-6.0625-9.628906-4.699219-22.582032 7.769532-41.929688 18.179688-57.511719 30.929688-10.011719 8.191406-9.058594 24.058594 2.285156 30.867188 48.457031 29.019531 77.117187 70.679687 47.496094 119.050781-8.589844-14.257813-25.480469-21.472657-41.625-17.914063-39.671875-41.566406-108.574219-24.410156-125.761719 28.753906-4.152344 12.851563-4.789062 26.371094-1.878906 39.402344-21.015625 6.8125-31.363282 29.441406-24.925782 49.113282-18.796874 13.835937-22.777343 40.539062-9.273437 59.207031-7.9609375 12.933593-8.507813 29.269531-1.152344 42.808593 11.128907 20.449219 37.035157 28.847657 58.703125 16.710938 25.011719 25.457031 66.949219 25.289062 91.628906-1.464844 12.6875 5.011719 26.570313 5.304688 39.300782.980469l43.476562 79.960937c10.328125 18.980469 38.652344 16.066407 44.777344-4.738281 1.851562-6.234375 1.152344-12.820312-1.957031-18.539062 0-.003907-49.640625-91.296875-49.640625-91.296875 22.488281-.488282 42.730468-12.476563 53.375-35.992188 52.53125 29.550782 129.757812 63.742188 107.796875 150.203125-3.628907 14.515625 15.195312 23.039063 23.84375 11.335938 55.128906-74.507813 78.050781-162.386719 13.488281-229.480469-58.5-60.730469-.804688-171.371094 72.210938-220.582031zm-453.992188 205.433593c6.015625-1.089843 9.84375-7.167968 8.113281-13.152343-3.375-11.539063-3.191406-23.734375.535157-35.242188 13.878906-42.949219 70.898437-56.511719 101.984374-21.199219 2.679688 3.042969 6.921876 4.234376 10.800782 3.050782 13.164062-4.054688 27.402344 4.203125 30.121094 18.085937-20.679688 34.957031-15.011719 63.6875 14.769531 88.941407-8.839844 29.375-42.425781 43.410156-69.007813 29.492187-4.707031-2.390625-10.503906-.917969-13.445312 3.628906-19.117188 29.539063-65.40625 18.425781-68.433594-17.09375-.316406-3.601562-2.382812-6.566406-5.234375-8.183593 0-.011719-.007813-.011719-.007813-.011719-5.046874-2.878907-10.921874.671875-19.933593-5.972657-16.710938-12.210937-10.484375-38.582031 9.738281-42.34375zm150.1875 135.410157c-12.023438 7.328125-27.144531 8.292969-40.3125 1.886719-4-1.9375-8.726562-.878907-11.496094 2.589843-19.074218 23.828125-55.21875 23.898438-74.515625.765625-3.214843-3.847656-8.847656-4.480468-12.832031-1.503906-6.6875 5.03125-15.621094 6.914062-24.316406 4.355469-18.597656-5.507813-25.851563-28.015625-13.976563-43.347657 2.769531-3.574218 2.597657-8.617187-.421875-12-10.566406-11.851562-8.839844-29.65625 2.6875-39.375 6.535156 7.496094 15.820313 12.296876 25.855469 13.207032 7.460937 45.234375 65.546875 59.449218 93.335937 23.246094 22.253907 9.675781 48.789063 5.890624 67.816407-10.902344 15.136719 20.34375 8.589843 48.699218-11.824219 61.078125zm69.414062 82.203125c1.179688 2.160156 1.445313 4.65625.746094 7.011718-2.257812 7.777344-13 9.03125-16.933594 1.785157l-43.191406-79.433594c5.425782-3.636719 10.042969-8.132813 13.789063-13.195313zm-34.363281-113.746094c.976563-16.367188-3.8125-30.011719-13.015625-41.0625 2.710938-3.921875 4.984375-8.152344 6.761719-12.660156 13.070313 9.074218 28.347656 17.457031 44.226563 25.863281-9.933594 22.753906-28.273438 27.191406-37.972657 27.859375zm0 0"/><path d="m319.015625 253.40625c12.015625 1.492188 24.097656 4.066406 35.90625 7.65625 4.011719 1.214844 8.238281-1.050781 9.453125-5.050781 1.214844-4.003907-1.042969-8.234375-5.046875-9.449219-12.636719-3.839844-25.574219-6.597656-38.449219-8.195312-4.140625-.515626-7.9375 2.433593-8.453125 6.589843-.515625 4.152344 2.433594 7.933594 6.589844 8.449219zm0 0"/><path d="m384.160156 60.503906c3.816406 0 7.101563-2.875 7.523438-6.757812.449218-4.160156-2.554688-7.898438-6.714844-8.351563-7.417969-.804687-15.378906-1.460937-23.660156-1.945312-4.195313-.253907-7.765625 2.941406-8.007813 7.117187-.246093 4.179688 2.941407 7.765625 7.121094 8.011719 12.191406.714844 23.738281 1.925781 23.738281 1.925781zm0 0"/><path d="m87.246094 127.660156c11.773437 0 22.097656-7.625 26.109375-11.019531 14.355469 4.421875 31.539062 1.222656 43.695312-5.273437 3.691407-1.972657 5.085938-6.5625 3.113281-10.253907-1.96875-3.691406-6.5625-5.085937-10.253906-3.113281-4.714844 2.539062-16.882812 6.863281-27.835937 5.15625 11.464843-25.414062.039062-51.839844-60.648438-49.910156-6.609375.207031-11.683593 5.960937-11.070312 12.546875 2.496093 26.675781 10.105469 61.867187 36.890625 61.867187zm22.429687-46.78125c2.464844 4.394532 1.179688 10.308594-1.367187 15.96875-1.726563-1.496094-3.320313-3.230468-4.765625-5.230468-2.453125-3.390626-7.191407-4.148438-10.582031-1.699219-3.390626 2.453125-4.152344 7.1875-1.703126 10.582031 2.300782 3.183594 4.804688 5.84375 7.445313 8.089844-4.242187 2.636718-10.09375 5.144531-15.160156 3.265625-5.089844-1.890625-13.976563-10.101563-17.695313-43.53125 12.464844-.070313 37.78125 1.769531 43.828125 12.554687zm0 0"/><path d="m499.488281 137.691406c-34.949219 1.996094-54.992187 10.433594-61.277343 25.792969-6.136719 14.996094 4.144531 30.191406 8.1875 35.332031-5.617188 16.140625-1.136719 33.996094 3.679687 43.851563 1.3125 2.683593 4 4.242187 6.800781 4.242187 5.566406 0 9.25-5.839844 6.824219-10.878906-.40625-.84375-6.828125-14.53125-4.15625-28.015625 25.058594 12.425781 51.785156 1.796875 52.078125-58.808594.03125-6.628906-5.554688-11.886719-12.136719-11.515625zm-17.230469 58.734375c-4.480468 2.308594-10.347656.804688-15.914062-1.945312 1.511719-1.628907 3.296875-3.164063 5.402344-4.574219 3.480468-2.328125 4.414062-7.035156 2.085937-10.511719-2.328125-3.476562-7.035156-4.410156-10.511719-2.082031-3.257812 2.179688-6.019531 4.578125-8.359374 7.128906-2.46875-4.324218-4.757813-10.246094-2.722657-15.21875 2.058594-5.027344 10.566407-13.632812 44.15625-16.140625-.574219 17.742188-4.515625 38.398438-14.136719 43.34375zm0 0"/></svg>