<svg height="511pt" viewBox="0 -3 511.99966 511" width="511pt" xmlns="http://www.w3.org/2000/svg"><g fill="#a0cafe"><path d="m165.644531 241.199219c-49.734375 71.605469.109375 171.683593 88.828125 171.683593 92.367188 0 138.75-97.554687 94.285156-167.847656l-76.816406-121.4375c-5.570312-8.804687-18.3125-9.078125-24.257812-.523437zm0 0"/><path d="m406.324219 308.8125c-.621094-21.160156 3.8125-67.601562 47.953125-107.285156 15.882812-14.28125 41.21875-7.46875 47.847656 12.832031l.078125.234375c5.179687 15.863281-3.746094 32.46875-19.726563 37.265625-20.089843 6.03125-46.71875 21.265625-69.535156 58.71875-1.847656 3.027344-6.511718 1.777344-6.617187-1.765625zm0 0"/><path d="m94.3125 256.066406c-4.351562-14.183594-17.742188-44.011718-55.96875-60.417968-13.753906-5.902344-29.035156 4.316406-28.867188 19.285156v.171875c.132813 11.691406 9.792969 20.707031 21.480469 20.296875 14.6875-.519532 35.789063 3.597656 59.359375 23.324218 1.90625 1.59375 4.722656-.285156 3.996094-2.660156zm0 0"/><path d="m185.261719 122.910156c.621093-21.160156-3.8125-67.601562-47.953125-107.285156-15.882813-14.28125-41.21875-7.46875-47.847656 12.832031l-.078126.234375c-5.179687 15.863282 3.746094 32.46875 19.726563 37.269532 20.085937 6.027343 46.71875 21.261718 69.535156 58.714843 1.847657 3.027344 6.511719 1.777344 6.617188-1.765625zm0 0"/></g><path d="m303.171875 402.570312c-14.234375 6.558594-30.578125 10.3125-48.699219 10.3125-88.722656 0-138.558594-100.074218-88.824218-171.683593l82.035156-118.125c5.945312-8.550781 18.683594-8.277344 24.253906.523437l5.320312 8.398438-68.773437 99.019531c-49.734375 71.609375.109375 171.6875 88.824219 171.6875 1.976562 0 3.929687-.042969 5.863281-.132813zm0 0" fill="#81b8fd"/><path d="m503.664062 224.242188c-10.695312-9.46875-27.636718-10.464844-39.402343.113281-28.542969 25.660156-40.488281 54.144531-45.191407 76.796875-2.066406 2.972656-4.121093 6.113281-6.136718 9.425781-1.839844 3.023437-6.503906 1.773437-6.605469-1.761719-.625-21.160156 3.808594-67.601562 47.953125-107.296875 15.882812-14.269531 41.214844-7.460937 47.839844 12.84375l.082031.230469c1.046875 3.222656 1.519531 6.464844 1.460937 9.648438zm0 0" fill="#81b8fd"/><path d="m90.320312 258.722656c-23.570312-19.71875-44.679687-23.839844-59.363281-23.324218-11.683593.410156-21.351562-8.601563-21.484375-20.296876v-.171874c-.070312-6.285157 2.589844-11.734376 6.71875-15.5.703125 11.148437 10.121094 19.589843 21.441406 19.1875 11.59375-.414063 27.183594 2.0625 44.832032 12.839843 6.445312 9.550781 9.980468 18.523438 11.84375 24.605469.734375 2.378906-2.085938 4.261719-3.988282 2.660156zm0 0" fill="#81b8fd"/><path d="m185.257812 122.914062c-.101562 3.542969-4.761718 4.792969-6.617187 1.761719-22.8125-37.457031-49.441406-52.6875-69.527344-58.71875-15.984375-4.796875-24.90625-21.402343-19.730469-37.265625l.082032-.234375c1.652344-5.054687 4.460937-9.273437 8.007812-12.539062 1.410156 11.191406 9.316406 20.96875 20.96875 24.464843 18.339844 5.511719 42.121094 18.675782 63.484375 49.414063 3.082031 13.496094 3.566407 25.117187 3.332031 33.117187zm0 0" fill="#81b8fd"/><path d="m270.582031 490.730469c-54.414062.964843-118.578125-3.425781-170.476562-17.179688-96.328125-25.519531-96.550781-72.921875-69.9375-99.453125 2.953125-2.945312 2.960937-7.726562.015625-10.679687-2.945313-2.957031-7.730469-2.960938-10.683594-.019531-28.921875 28.835937-27.847656 72.390624 17.980469 101.097656 56.210937 35.222656 166.601562 42.53125 233.371093 41.339844 4.171876-.074219 7.492188-3.515626 7.417969-7.6875-.074219-4.203126-3.566406-7.507813-7.6875-7.417969zm0 0"/><path d="m490.773438 361.964844c-3.027344-2.875-7.804688-2.75-10.679688.273437-2.875 3.023438-2.75 7.804688.273438 10.679688 10.765624 10.230469 16.226562 21.667969 16.226562 33.996093 0 62.886719-133.019531 79.21875-196.097656 82.722657-4.167969.230469-7.355469 3.796875-7.125 7.960937.230468 4.160156 3.785156 7.355469 7.960937 7.125 230.902344-12.835937 231.398438-102.890625 189.441407-142.757812zm0 0"/><path d="m115.683594 355.050781c3.960937-1.304687 6.113281-5.574219 4.808594-9.539062-1.304688-3.960938-5.578126-6.113281-9.539063-4.808594-39.886719 13.148437-60.96875 30.835937-60.96875 51.148437 0 13.464844 9.195313 25.734376 27.328125 36.464844 3.585938 2.121094 8.222656.9375 10.347656-2.65625 2.125-3.585937.9375-8.222656-2.652344-10.34375-9.085937-5.378906-19.914062-13.8125-19.914062-23.464844 0-12.601562 18.910156-26.359374 50.589844-36.800781zm0 0"/><path d="m396.636719 355.242188c31.316406 10.410156 50.015625 24.097656 50.015625 36.613281 0 12.949219-19.75 26.976562-52.832032 37.527343-79.886718 25.480469-209.28125 23.636719-282.648437-2.261718-3.933594-1.386719-8.246094.671875-9.636719 4.605468-1.386718 3.933594.675782 8.25 4.609375 9.636719 121.402344 42.863281 355.617188 18.351563 355.617188-49.507812 0-20.203125-20.871094-37.824219-60.359375-50.949219-3.957032-1.316406-8.234375.824219-9.550782 4.785156-1.316406 3.957032.824219 8.234375 4.785157 9.550782zm0 0"/><path d="m190.496094 192.175781-31.058594 44.714844c-33.25 47.878906-25.226562 108.96875 11.050781 147.613281 47.472657 50.5625 127.527344 45.394532 170.703125-.023437 35.519532-37.367188 43.699219-96.449219 13.949219-143.480469l-76.816406-121.4375c-8.511719-13.453125-27.882813-13.699219-36.84375-.792969l-33.75 48.589844c-2.378907 3.425781-1.53125 8.132813 1.898437 10.511719 3.425782 2.378906 8.132813 1.53125 10.511719-1.894532l33.746094-48.589843c2.882812-4.148438 9.007812-3.953125 11.667969.25l76.820312 121.441406c41.5625 65.707031-2.570312 156.253906-87.902344 156.253906-84.472656 0-128.066406-94.398437-82.625-159.820312l31.058594-44.71875c2.378906-3.425781 1.53125-8.132813-1.898438-10.511719-3.425781-2.382812-8.132812-1.53125-10.511718 1.894531zm0 0"/><path d="m419.945312 314.507812c22.070313-36.234374 47.667969-50.132812 65.253907-55.410156 19.546875-5.871094 31.4375-26.351562 24.660156-47.082031-8.320313-25.480469-40.140625-34.035156-60.078125-16.105469-45.582031 40.980469-51.175781 88.464844-50.453125 113.125.320313 11.054688 14.875 14.894532 20.617187 5.472656zm39.9375-107.363281c11.65625-10.484375 30.566407-5.921875 35.691407 9.792969 3.875 11.863281-2.828125 24.121094-14.71875 27.6875-18.03125 5.414062-43.316407 18.5625-66.050781 50.273438 1.949218-23.425782 11.390624-57.46875 45.078124-87.753907zm0 0"/><path d="m31.222656 242.949219c12.46875-.441407 31.992188 2.945312 54.246094 21.570312 7.652344 6.40625 18.992188-1.117187 16.0625-10.667969-5.183594-16.902343-19.894531-47.84375-60.207031-65.144531-18.535157-7.957031-39.640625 5.570313-39.402344 26.480469.183594 16.042969 13.488281 28.347656 29.300781 27.761719zm4.144532-40.359375c23.921874 10.269531 37.339843 25.992187 44.816406 39.492187-15.015625-9.238281-32.019532-14.851562-49.496094-14.230469-7.238281.253907-13.566406-5.097656-13.660156-13.003906-.105469-9.523437 9.574218-16.011718 18.339844-12.257812zm0 0"/><path d="m106.9375 73.195312c17.589844 5.277344 43.1875 19.175782 65.257812 55.410157 5.726563 9.402343 20.292969 5.59375 20.617188-5.476563.722656-24.65625-4.871094-72.144531-50.453125-113.121094-19.753906-17.753906-51.683594-9.703124-60.15625 16.339844-6.472656 19.8125 4.574219 40.792969 24.734375 46.847656zm-10.296875-42.394531c4.949219-15.152343 23.765625-20.214843 35.617187-9.558593 33.6875 30.285156 43.128907 64.328124 45.074219 87.75-22.734375-31.710938-48.015625-44.855469-66.050781-50.269532-11.554688-3.46875-18.722656-15.378906-14.640625-27.921875zm0 0"/></svg>