<svg height="511pt" viewBox="0 0 511.99885 511" width="511pt" xmlns="http://www.w3.org/2000/svg"><path d="m391.679688 360.855469s-243.339844 138.34375-384.082032 135.761719v-130.425782c0-3.808594 2.835938-7.027344 6.621094-7.480468 22.621094-2.707032 98.722656.027343 159.300781-60.105469 3.625-3.59375 9.558594-3.269531 12.757813.707031 13.660156 16.992188 51.367187 46.164062 133.410156 57.320312 15.664062 2.136719 32.9375 3.617188 51.976562 4.222657zm0 0" fill="#fed22b"/><path d="m391.679688 360.855469s-243.339844 138.34375-384.082032 135.761719v-56.144532c7.542969-8.539062 18.195313-14.308594 30.3125-15.492187 62.65625-6.117188 183.765625-23.167969 281.777344-68.347657 15.664062 2.136719 32.9375 3.617188 51.976562 4.222657zm0 0" fill="#fdc202"/><path d="m501.242188 359.207031c-21.289063-15.195312-39.683594-39.046875-48.917969-52.171875-3.199219-4.542968-9.835938-4.929687-13.472657-.726562-90.015624 104.085937-299.574218 135.261718-389.285156 144.019531-23.816406 2.324219-41.96875 22.355469-41.96875 46.285156 0 4.160157 3.375 7.535157 7.535156 7.535157h481.734376c4.164062 0 7.539062-3.375 7.539062-7.535157v-131.277343c0-2.4375-1.179688-4.714844-3.164062-6.128907zm0 0" fill="#f0a70a"/><path d="m271.953125 91.1875c0 23.113281-18.738281 41.855469-41.855469 41.855469-23.117187 0-41.859375-18.742188-41.859375-41.855469 0-23.117188 18.742188-41.859375 41.859375-41.859375 23.117188 0 41.855469 18.742187 41.855469 41.859375zm0 0" fill="#fdc202"/><path d="m243.808594 130.75c-4.292969 1.488281-8.910156 2.296875-13.707032 2.296875-23.117187 0-41.859374-18.742187-41.859374-41.859375 0-23.113281 18.742187-41.855469 41.859374-41.855469 4.796876 0 9.414063.808594 13.707032 2.296875-16.382813 5.671875-28.148438 21.242188-28.148438 39.558594s11.765625 33.890625 28.148438 39.5625zm0 0" fill="#f0a70a"/><path d="m468.492188 327.988281c-.457032.34375-.871094.75-1.265626 1.195313-90.015624 104.089844-299.578124 135.265625-389.277343 144.023437-18.492188 1.800781-33.558594 14.265625-39.378907 30.941407h-23.441406c-2.074218 0-3.957031-.839844-5.324218-2.207032-1.367188-1.355468-2.207032-3.238281-2.207032-5.324218 0-23.9375 18.152344-43.964844 41.96875-46.292969 89.710938-8.757813 299.273438-39.933594 389.289063-144.011719 3.632812-4.203125 10.273437-3.820312 13.464843.726562 3.910157 5.550782 9.445313 13.023438 16.171876 20.949219zm0 0" fill="#e38803"/><path d="m505.65625 353.023438c-20.429688-14.578126-38.292969-37.808594-47.121094-50.355469-3.03125-4.308594-7.988281-6.882813-13.261718-6.882813-15.289063 0-12.160157 15.429688-62.644532 49.179688v-34.332032c20.015625-2.558593 35.542969-19.691406 35.542969-40.390624 0-4.195313-3.398437-7.59375-7.59375-7.59375s-7.59375 3.398437-7.59375 7.59375c0 12.308593-8.75 22.609374-20.355469 25.011718v-87.460937c22.304688-2.6875 39.558594-19.765625 39.558594-40.375v-20.558594c0-4.195313-3.398438-7.59375-7.59375-7.59375s-7.59375 3.398437-7.59375 7.59375v20.558594c0 12.332031-10.480469 22.65625-24.371094 25.046875v-26.949219c0-4.195313-3.398437-7.59375-7.59375-7.59375-4.191406 0-7.59375 3.398437-7.59375 7.59375v75.921875c-17.714844-3.539062-31.105468-19.210938-31.105468-37.949219v-2.90625c0-4.195312-3.402344-7.59375-7.597657-7.59375-4.191406 0-7.59375 3.398438-7.59375 7.59375v2.90625c0 27.136719 20.167969 49.640625 46.296875 53.34375v96.273438c-122.746094-4.871094-165.113281-45.949219-175.242187-58.550781-6.023438-7.488282-17.195313-8.121094-24.023438-1.339844-27.078125 26.878906-57.414062 40.707031-84.410156 48.074218v-93.851562c26.34375-3.707031 46.679687-26.382812 46.679687-53.734375v-2.933594c0-4.195312-3.398437-7.59375-7.59375-7.59375-4.191406 0-7.59375 3.398438-7.59375 7.59375v2.933594c0 18.953125-13.5625 34.796875-31.492187 38.339844v-106.582031c0-4.191407-3.402344-7.59375-7.59375-7.59375-4.195313 0-7.59375 3.402343-7.59375 7.59375v64.792968c-14.074219-2.390625-24.703125-12.839844-24.703125-25.332031v-20.726563c0-4.195312-3.398438-7.59375-7.59375-7.59375-4.191406 0-7.59375 3.398438-7.59375 7.59375v20.726563c0 20.773437 17.402344 37.976563 39.890625 40.660156v60.101563c-11.769531-2.398438-20.652344-12.832032-20.652344-25.296875 0-4.195313-3.398437-7.59375-7.59375-7.59375-4.195312 0-7.59375 3.398437-7.59375 7.59375 0 20.859375 15.660157 38.117187 35.839844 40.667969v63.820312c-24.640625 4.957031-44.835937 5.054688-55.257813 6.296875-7.59375.910156-13.31640575 7.367187-13.31640575 15.023437v20.902344c0 4.195313 3.39843775 7.59375 7.59374975 7.59375 4.191406 0 7.59375-3.398437 7.59375-7.59375l-.066406-20.84375c23.273438-2.78125 100.949219.078125 163.75-62.257812.433594-.429688 1.109375-.390625 1.484375.074218 6.863281 8.535157 23.417969 24.972657 57.238281 39.183594 29.628906 12.445313 65.632813 20.386719 107.273438 23.710938-63.34375 32.347656-139.328125 51.546875-201.882813 62.789062-4.128906.742188-6.875 4.691406-6.132812 8.820313.742187 4.128906 4.691406 6.867187 8.816406 6.128906 100.855469-18.125 231.972656-56.007813 298.925781-133.425781.390625-.449219 1.144532-.402344 1.515625.128906 9.386719 13.339844 28.457031 38.09375 50.699219 53.929688l.054688 131.222656h-181.796876c-4.195312 0-7.59375 3.398437-7.59375 7.59375 0 4.195312 3.398438 7.59375 7.59375 7.59375h181.796876c8.34375 0 15.132812-6.789063 15.132812-15.132813v-131.277343c0-4.875-2.371094-9.476563-6.34375-12.3125zm0 0"/><path d="m284.691406 496.554688-269.5.058593c0-20.125 15.09375-36.773437 35.113282-38.726562 21.570312-2.105469 43.5-4.851563 65.179687-8.167969 4.144531-.632812 6.992187-4.507812 6.359375-8.652344-.632812-4.144531-4.5-7-8.652344-6.359375-21.410156 3.269531-43.066406 5.984375-64.359375 8.0625-13.289062 1.296875-25.011719 7.257813-33.640625 16.171875v-41.46875c0-4.195312-3.398437-7.59375-7.59375-7.59375-4.195312 0-7.59374975 3.398438-7.59374975 7.59375 0 .605469-.02343745 79.3125.03906255 79.917969.4101562 7.980469 7.0117192 14.351563 15.0937502 14.351563h269.558593c4.191407 0 7.59375-3.398438 7.59375-7.59375 0-4.195313-3.402343-7.59375-7.597656-7.59375zm0 0"/><path d="m230.097656 140.636719c27.265625 0 49.449219-22.183594 49.449219-49.449219 0-27.269531-22.183594-49.453125-49.449219-49.453125-27.269531 0-49.453125 22.183594-49.453125 49.453125 0 27.265625 22.183594 49.449219 49.453125 49.449219zm0-83.714844c18.890625 0 34.261719 15.371094 34.261719 34.265625 0 18.890625-15.371094 34.261719-34.261719 34.261719-18.894531 0-34.265625-15.371094-34.265625-34.261719 0-18.894531 15.371094-34.265625 34.265625-34.265625zm0 0"/><path d="m230.097656 28.746094c4.191406 0 7.59375-3.398438 7.59375-7.59375v-13.058594c0-4.195312-3.402344-7.59375-7.59375-7.59375-4.195312 0-7.59375 3.398438-7.59375 7.59375v13.058594c0 4.195312 3.398438 7.59375 7.59375 7.59375zm0 0"/><path d="m188.503906 34.332031c1.40625 2.433594 3.957032 3.796875 6.582032 3.796875 5.789062 0 9.503906-6.308594 6.570312-11.390625l-6.53125-11.308593c-2.09375-3.632813-6.738281-4.875-10.371094-2.78125-3.632812 2.097656-4.878906 6.742187-2.78125 10.375zm0 0"/><path d="m154.339844 56.214844c12.242187 7.066406 12.476562 7.546875 15.097656 7.546875 7.738281 0 10.519531-10.292969 3.804688-14.167969l-11.308594-6.53125c-3.632813-2.09375-8.273438-.851562-10.371094 2.78125-2.097656 3.628906-.855469 8.273438 2.777344 10.371094zm0 0"/><path d="m147.003906 98.78125h13.058594c4.195312 0 7.59375-3.402344 7.59375-7.59375 0-4.195312-3.398438-7.597656-7.59375-7.597656h-13.058594c-4.191406 0-7.59375 3.402344-7.59375 7.597656 0 4.191406 3.402344 7.59375 7.59375 7.59375zm0 0"/><path d="m165.648438 119.625-11.308594 6.53125c-6.710938 3.875-3.9375 14.167969 3.804687 14.167969 2.621094 0 2.847657-.472657 15.097657-7.546875 3.632812-2.097656 4.875-6.742188 2.777343-10.371094-2.09375-3.632812-6.742187-4.875-10.371093-2.78125zm0 0"/><path d="m188.503906 148.039062-6.53125 11.308594c-2.929687 5.078125.773438 11.390625 6.570313 11.390625 2.625 0 5.175781-1.359375 6.582031-3.796875l6.53125-11.308594c2.097656-3.632812.851562-8.277343-2.78125-10.371093-3.632812-2.097657-8.277344-.855469-10.371094 2.777343zm0 0"/><path d="m222.503906 161.21875v13.058594c0 4.195312 3.398438 7.59375 7.59375 7.59375 4.191406 0 7.59375-3.398438 7.59375-7.59375v-13.058594c0-4.195312-3.402344-7.59375-7.59375-7.59375-4.195312 0-7.59375 3.398438-7.59375 7.59375zm0 0"/><path d="m261.316406 145.261719c-3.632812 2.09375-4.875 6.738281-2.777344 10.371093l6.527344 11.308594c2.097656 3.632813 6.738282 4.875 10.371094 2.777344 3.632812-2.09375 4.878906-6.738281 2.78125-10.371094l-6.527344-11.308594c-2.097656-3.632812-6.742187-4.875-10.375-2.777343zm0 0"/><path d="m286.949219 132.777344 11.308593 6.53125c3.632813 2.09375 8.277344.851562 10.375-2.78125 2.097657-3.632813.851563-8.277344-2.78125-10.371094l-11.308593-6.53125c-3.632813-2.09375-8.273438-.855469-10.371094 2.78125-2.097656 3.628906-.855469 8.273438 2.777344 10.371094zm0 0"/><path d="m292.535156 91.1875c0 4.191406 3.402344 7.59375 7.59375 7.59375h13.058594c4.195312 0 7.59375-3.402344 7.59375-7.59375 0-4.195312-3.398438-7.597656-7.59375-7.597656h-13.058594c-4.191406 0-7.59375 3.402344-7.59375 7.597656zm0 0"/><path d="m290.753906 63.761719c2.625 0 2.855469-.476563 15.101563-7.546875 3.628906-2.097656 4.875-6.742188 2.777343-10.371094-2.097656-3.632812-6.742187-4.875-10.371093-2.78125l-11.308594 6.53125c-6.714844 3.875-3.9375 14.167969 3.800781 14.167969zm0 0"/><path d="m261.316406 37.109375c3.632813 2.097656 8.277344.855469 10.375-2.777344l6.527344-11.308593c2.097656-3.632813.851562-8.277344-2.78125-10.375-3.632812-2.09375-8.277344-.851563-10.371094 2.78125l-6.527344 11.308593c-2.101562 3.628907-.855468 8.273438 2.777344 10.371094zm0 0"/></svg>