<svg height="512pt" viewBox="0 -110 512.00265 512" width="512pt" xmlns="http://www.w3.org/2000/svg"><path d="m465.429688 206.851562h-68.066407c-7.734375-16.019531-23.074219-27.679687-41.34375-30.269531-2.210937-.316406-3.804687-2.308593-3.632812-4.535156.148437-1.851563.226562-3.726563.226562-5.617187 0-18.128907-6.519531-34.734376-17.332031-47.609376-1.011719-1.207031-1.273438-2.886718-.664062-4.339843 4.238281-10.105469 6.402343-21.296875 5.90625-33.054688-1.703126-40.667969-35.332032-73.292969-76.03125-73.820312-23.433594-.300781-44.488282 9.859375-58.828126 26.09375-1.761718 2-4.882812 1.917969-6.554687-.15625-10.820313-13.410157-27.382813-21.988281-45.953125-21.988281-32.601562 0-59.027344 26.429687-59.027344 59.027343v.074219c.003906 3.070312-3.039062 5.171875-5.898437 4.042969-7.167969-2.835938-15.027344-4.308594-23.257813-4.097657-30.667968.796876-55.914062 25.449219-57.390625 56.09375-1.421875 29.613282 18.988281 54.71875 46.527344 60.621094 1.820313.390625 3.203125 1.886719 3.382813 3.738282 4.808593 48.945312 46.0625 87.191406 96.269531 87.191406 34.800781 0 65.292969-18.378906 82.339843-45.949219 1.210938-1.957031 3.742188-2.660156 5.734376-1.519531 10.820312 6.1875 23.339843 9.730468 36.691406 9.730468 4.023437 0 7.964844-.328124 11.808594-.949218 2.226562-.359375 4.390624 1.003906 4.894531 3.199218 5.519531 23.949219 26.835937 41.851563 52.386719 42.164063v.019531h117.808593c21.566407 0 39.046875-17.480468 39.046875-39.046875 0-21.5625-17.480468-39.042969-39.042968-39.042969zm0 0" fill="#d1ced3"/><path d="m123.363281 74.699219c2.847657 1.125 5.898438-.972657 5.890625-4.042969v-.070312c0-26.484376 17.433594-48.882813 41.449219-56.371094-5.542969-1.726563-11.433594-2.660156-17.542969-2.660156-32.609375 0-59.03125 26.425781-59.03125 59.03125v.070312c0 .140625-.011718.269531-.019531.410156 1.964844-.25 3.960937-.410156 5.988281-.460937 8.230469-.21875 16.089844 1.253906 23.265625 4.09375zm0 0" fill="#c2bdc5"/><path d="m92.621094 191.058594c-.179688-1.859375-1.5625-3.355469-3.378906-3.746094-27.539063-5.898438-47.953126-31-46.527344-60.617188 1.203125-25.117187 18.386718-46.214843 41.425781-53.4375-6.03125-1.886718-12.472656-2.832031-19.167969-2.652343-30.667968.792969-55.910156 25.441406-57.382812 56.089843-1.425782 29.617188 18.988281 54.71875 46.523437 60.617188 1.816407.390625 3.203125 1.886719 3.382813 3.746094 4.808594 48.941406 46.054687 87.191406 96.265625 87.191406 5.992187 0 11.863281-.542969 17.5625-1.597656-41.980469-7.695313-74.464844-42.5-78.703125-85.59375zm0 0" fill="#c2bdc5"/><path d="m456.652344 277.414062c-125.5 0-106.382813.003907-108.9375-.015624-21.714844-.269532-40.28125-15.207032-45.148438-36.328126-1.230468-5.355468-5.964844-9.09375-11.515625-9.09375-2.792969 0-23.113281 5.054688-45.480469-7.738281-5.644531-3.21875-12.621093-1.152343-15.867187 4.097657-16.414063 26.539062-44.800781 42.382812-75.9375 42.382812-46.109375 0-84.277344-34.566406-88.78125-80.402344-.5-5.113281-4.238281-9.273437-9.296875-10.359375-37.164062-7.964843-53.691406-53.171875-28.757812-83.148437 2.65625-3.195313 2.21875-7.941406-.976563-10.601563-3.195313-2.65625-7.941406-2.222656-10.597656.976563-31.425781 37.78125-12.0625 95.136718 34.90625 106.960937 6.292969 51.914063 50.480469 91.628907 103.503906 91.628907 35.375 0 67.710937-17.492188 87.101563-46.953126 14.558593 7.589844 31.347656 10.640626 47.789062 8.582032 7.378906 26.171875 30.917969 44.472656 58.347656 45.039062.492188.039063 109.152344.023438 109.648438.023438 4.160156 0 7.527344-3.367188 7.527344-7.527344 0-4.15625-3.371094-7.523438-7.527344-7.523438zm0 0"/><path d="m465.429688 199.324219h-63.546876c-9.003906-15.488281-24.210937-26.316407-41.808593-29.695313.78125-19.054687-5.285157-38.480468-17.757813-54.101562 3.851563-9.832032 5.804688-20.183594 5.804688-30.804688 0-75.167968-92.421875-113.855468-145.570313-58.738281-39.195312-43.457031-111.90625-18.414063-115.800781 40.199219-14.078125-4.492188-29.757812-4.253906-44.1875 1.367187-3.875 1.511719-5.792969 5.875-4.285156 9.746094 1.511718 3.875 5.875 5.792969 9.746094 4.28125 12.3125-4.792969 25.761718-4.496094 37.441406.121094 7.820312 3.09375 16.191406-2.695313 16.191406-11.117188 0-48.484375 61.230469-69.945312 91.597656-32.308593 4.644532 5.746093 13.25 5.851562 18.054688.410156 42.34375-47.949219 121.757812-17.820313 121.757812 46.039062 0 9.285156-1.8125 18.320313-5.390625 26.855469-1.738281 4.15625-.90625 8.808594 1.84375 12.082031 11.191407 13.328125 16.722657 30.640625 15.367188 47.789063-.488281 6.21875 4.011719 11.71875 10.078125 12.585937 15.480468 2.195313 28.796875 11.949219 35.621094 26.089844 1.257812 2.601562 3.890624 4.253906 6.78125 4.253906h68.0625c31.75 0 43.480468 41.945313 16.367187 58.460938-3.550781 2.160156-4.675781 6.792968-2.511719 10.34375 2.164063 3.550781 6.796875 4.671875 10.34375 2.511718 14.011719-8.535156 22.375-23.410156 22.375-39.796874-.003906-25.679688-20.894531-46.574219-46.574218-46.574219zm0 0"/><path d="m146.113281 92.089844c10.0625 0 15.445313 4.917968 16 14.609375.144531 3.492187 2.976563 5.417969 7.976563 5.417969 5.054687 0 7.976562-1.351563 7.976562-8.261719 0-15.566407-13.066406-26.027344-32.515625-26.027344-20.21875 0-31.8125 11.644531-31.8125 31.953125v41.039062c0 20.308594 11.542969 31.953126 31.671875 31.953126 19.53125 0 32.65625-10.796876 32.65625-26.875 0-6.875-3.105468-8.257813-8.117187-8.257813-4.921875 0-7.558594 1.820313-7.832031 5.394531-.683594 7.488282-2.515626 15.480469-15.722657 15.480469-11.238281 0-16.703125-5.789063-16.703125-17.691406v-41.042969c0-11.738281 5.527344-17.691406 16.421875-17.691406zm0 0"/><path d="m254.363281 150.820312v-41.039062c0-20.605469-11.449219-31.953125-32.234375-31.953125-20.695312 0-32.09375 11.347656-32.09375 31.953125v41.039062c0 20.605469 11.398438 31.953126 32.09375 31.953126 20.785156 0 32.234375-11.34375 32.234375-31.953126zm-48.375 0v-41.039062c0-11.738281 5.429688-17.691406 16.140625-17.691406 10.652344 0 16.28125 6.117187 16.28125 17.691406v41.039062c0 11.578126-5.628906 17.695313-16.28125 17.695313-10.710937 0-16.140625-5.953125-16.140625-17.695313zm0 0"/><path d="m286.785156 174.785156c-21.277344 15.542969-19.082031 18.199219-19.082031 34.324219 0 3.433594 4.261719 5.539063 7.316406 5.539063h39.414063c2.953125 0 5.542968-3.46875 5.542968-7.421876 0-3.90625-2.539062-7.203124-5.542968-7.203124h-29.777344c0-4.488282.28125-6.042969 12.414062-14.453126 10.105469-7.011718 22.683594-15.738281 22.683594-30.382812 0-15.25-13.292968-23.476562-25.804687-23.476562-12.023438 0-24.804688 7.492187-24.804688 21.375 0 5.808593 2.53125 8.753906 7.535157 8.753906 5.539062 0 8.53125-3.257813 8.53125-6.320313 0-7.886719 6.1875-8.738281 8.851562-8.738281 7.335938 0 9.292969 5.5625 9.292969 8.851562 0 7.046876-8.046875 12.925782-16.570313 19.152344zm0 0"/></svg>