<svg height="511pt" viewBox="0 0 511.99893 511" width="511pt" xmlns="http://www.w3.org/2000/svg"><path d="m421.085938 99.414062c-13.269532-18.710937-39.191407-23.121093-57.898438-9.851562-18.710938 13.269531-23.121094 39.191406-9.851562 57.898438 13.269531 18.707031 39.191406 23.117187 57.898437 9.851562 18.707031-13.269531 23.117187-39.191406 9.851563-57.898438zm0 0" fill="#fed22b"/><path d="m404.773438 161.042969c-17.84375 8.371093-39.640626 3.046875-51.445313-13.589844-13.269531-18.714844-8.859375-44.632813 9.84375-57.902344 12.628906-8.953125 28.519531-9.855469 41.609375-3.75-2.21875 1.027344-4.378906 2.28125-6.449219 3.75-18.703125 13.269531-23.113281 39.1875-9.84375 57.902344 4.320313 6.085937 9.976563 10.65625 16.285157 13.589844zm0 0" fill="#fdc202"/><path d="m45.648438 317.726562c11.238281 2.785157 71.734374 19.199219 69.785156-40.789062-.019532-.542969-.296875-1.023438-.757813-1.3125-50.976562-31.679688-67.007812 28.914062-70.21875 40.042969-.269531.929687.25 1.824219 1.191407 2.058593zm0 0" fill="#ff956a"/><path d="m104.609375 270.34375c3.191406 1.351562 6.550781 3.09375 10.066406 5.28125.460938.289062.738281.765625.757813 1.3125 1.945312 59.988281-58.542969 43.574219-69.785156 40.785156-.941407-.230468-1.457032-1.121094-1.1875-2.054687.703124-2.449219 2.035156-7.296875 4.21875-13.03125 19.554687 3.136719 51.570312 3.15625 55.929687-32.292969zm0 0" fill="#ff7c48"/><path d="m194.125 315.667969c-3.210938-11.128907-19.242188-71.722657-70.21875-40.042969-.460938.289062-.742188.769531-.757812 1.3125-1.949219 59.988281 58.542968 43.574219 69.785156 40.789062.941406-.234374 1.460937-1.128906 1.191406-2.058593zm0 0" fill="#ff956a"/><path d="m123.609375 288.296875c-.429687-3.441406-.597656-7.222656-.460937-11.359375.019531-.546875.292968-1.023438.757812-1.3125 50.976562-31.679688 67.007812 28.914062 70.214844 40.042969.269531.933593-.246094 1.820312-1.1875 2.054687-2.476563.617188-7.335938 1.886719-13.398438 2.863282-7.058594-18.503907-23.046875-46.238282-55.925781-32.289063zm0 0" fill="#ff7c48"/><path d="m44.457031 232.003906c3.210938 11.128906 19.242188 71.722656 70.21875 40.042969.460938-.289063.742188-.769531.757813-1.3125 1.949218-59.988281-58.546875-43.574219-69.785156-40.789063-.941407.234376-1.460938 1.125-1.191407 2.058594zm0 0" fill="#ff956a"/><path d="m114.972656 259.375c.429688 3.441406.59375 7.21875.460938 11.359375-.019532.542969-.296875 1.019531-.757813 1.3125-50.976562 31.679687-67.007812-28.914063-70.214843-40.042969-.269532-.933594.242187-1.824218 1.1875-2.058594 2.472656-.613281 7.335937-1.882812 13.398437-2.859374 7.054687 18.503906 23.046875 46.238281 55.925781 32.289062zm0 0" fill="#ff7c48"/><path d="m192.933594 229.945312c-11.242188-2.785156-71.734375-19.199218-69.785156 40.789063.019531.542969.296874 1.023437.757812 1.3125 50.976562 31.679687 67.007812-28.914063 70.21875-40.042969.269531-.933594-.25-1.824218-1.191406-2.058594zm0 0" fill="#ff956a"/><path d="m133.972656 277.324219c-3.195312-1.347657-6.550781-3.09375-10.066406-5.277344-.460938-.289063-.738281-.769531-.757812-1.3125-1.945313-59.988281 58.542968-43.574219 69.785156-40.789063.941406.234376 1.457031 1.125 1.1875 2.058594-.703125 2.449219-2.035156 7.292969-4.21875 13.03125-19.554688-3.136718-51.570313-3.15625-55.929688 32.289063zm0 0" fill="#ff7c48"/><path d="m120.851562 504.078125h37.140626s.164062-107.523437 51.941406-158.324219c1.132812-1.113281.074218-3.011718-1.46875-2.640625-20.253906 4.855469-90.269532 32.363281-87.613282 160.964844zm0 0" fill="#24d3b5"/><path d="m120.0625 504.078125h-37.140625s-.164063-107.523437-51.941406-158.324219c-1.132813-1.113281-.074219-3.011718 1.46875-2.640625 20.25 4.855469 90.269531 32.363281 87.613281 160.964844zm0 0" fill="#24d3b5"/><path d="m209.933594 345.753906c-3.875 3.800782-7.457032 7.914063-10.773438 12.28125-26.671875 18.945313-57.628906 59.722656-55.851562 146.039063h-23.011719c-2.652344-128.601563 67.914063-156.105469 88.167969-160.957031 1.542968-.375 2.601562 1.527343 1.46875 2.636718zm0 0" fill="#20b7a1"/><path d="m105.382812 504.074219h-22.460937s-.160156-107.519531-51.945313-158.320313c-1.128906-1.109375-.070312-3.007812 1.46875-2.636718 6.664063 1.597656 18.703126 5.640624 31.765626 14.921874 41.039062 53.996094 41.171874 146.035157 41.171874 146.035157zm0 0" fill="#20b7a1"/><path d="m118.101562 188.113281c-8.03125 8.34375-52.496093 52.523438.433594 80.832031.476563.253907 1.035156.253907 1.511719 0 52.925781-28.308593 8.464844-72.488281.433594-80.832031-.675781-.699219-1.707031-.699219-2.378907 0zm0 0" fill="#ff956a"/><path d="m129.65625 262.867188c-2.765625 2.089843-5.957031 4.125-9.609375 6.074218-.480469.257813-1.03125.257813-1.511719 0-52.925781-28.304687-8.464844-72.484375-.433594-80.828125.675782-.699219 1.703126-.699219 2.375 0 1.773438 1.835938 5.304688 5.410157 9.179688 10.171875-12.496094 15.363282-28.519531 43.082032 0 64.582032zm0 0" fill="#ff7c48"/><path d="m120.480469 359.558594c8.03125-8.34375 52.492187-52.523438-.433594-80.832032-.476563-.253906-1.035156-.253906-1.511719 0-52.929687 28.308594-8.464844 72.488282-.433594 80.832032.671876.699218 1.703126.699218 2.378907 0zm0 0" fill="#ff956a"/><path d="m108.925781 284.804688c2.765625-2.09375 5.957031-4.125 9.609375-6.078126.480469-.253906 1.03125-.253906 1.511719 0 52.925781 28.308594 8.464844 72.488282.429687 80.828126-.671874.699218-1.699218.699218-2.375 0-1.769531-1.832032-5.300781-5.40625-9.175781-10.167969 12.496094-15.367188 28.519531-43.082031 0-64.582031zm0 0" fill="#ff7c48"/><path d="m140.023438 273.835938c0 11.449218-9.28125 20.730468-20.734376 20.730468-11.449218 0-20.730468-9.28125-20.730468-20.730468 0-11.449219 9.28125-20.734376 20.730468-20.734376 11.453126 0 20.734376 9.285157 20.734376 20.734376zm0 0" fill="#f76937"/><path d="m151.898438 504.078125h27.957031c3.390625 0 6.1875-2.652344 6.359375-6.039063 1.035156-20.289062 7.398437-86.675781 46.652344-121.429687 1.210937-1.074219.191406-3.046875-1.386719-2.695313-19.691407 4.40625-81.984375 27.851563-79.582031 130.164063zm0 0" fill="#24d3b5"/><path d="m89.015625 504.078125h-27.960937c-3.386719 0-6.183594-2.652344-6.359376-6.039063-1.03125-20.289062-7.394531-86.675781-46.648437-121.429687-1.210937-1.074219-.191406-3.046875 1.386719-2.695313 19.691406 4.40625 81.984375 27.851563 79.582031 130.164063zm0 0" fill="#24d3b5"/><path d="m232.867188 376.609375c-4.152344 3.679687-7.933594 7.703125-11.378907 11.996094-23.4375 16.464843-48.679687 49.644531-47.132812 115.46875h-22.460938c-2.398437-102.308594 59.894531-125.757813 79.585938-130.160157 1.578125-.351562 2.597656 1.625 1.386719 2.695313zm0 0" fill="#20b7a1"/><path d="m83.519531 504.074219h-22.464843c-3.386719 0-6.183594-2.648438-6.359376-6.03125-1.03125-20.292969-7.390624-86.683594-46.648437-121.433594-1.210937-1.070313-.191406-3.046875 1.386719-2.695313 7.023437 1.566407 19.457031 5.558594 32.453125 14.691407 29.164062 36.277343 34.347656 91.289062 35.273437 109.4375.171875 3.378906 2.96875 6.03125 6.359375 6.03125zm0 0" fill="#20b7a1"/><path d="m367.535156 95.699219c18.109375-12.847657 43.324219-5.113281 51.335938 15.351562 1.519531 3.875 5.890625 5.78125 9.765625 4.265625 3.875-1.519531 5.785156-5.886718 4.265625-9.761718-1.449219-3.707032-3.363282-7.242188-5.683594-10.515626-9.1875-12.949218-24.160156-20.679687-40.054688-20.679687-39.511718 0-63.074218 44.902344-39.980468 77.449219 22.902344 32.292968 72.558594 25.332031 86.058594-11.429688 1.4375-3.90625-.566407-8.234375-4.472657-9.671875s-8.234375.570313-9.667969 4.476563c-4.878906 13.277344-17.597656 22.238281-31.867187 22.238281-32.980469 0-46.703125-42.574219-19.699219-61.722656zm0 0"/><path d="m387.199219 61.476562c4.164062 0 7.535156-3.375 7.535156-7.535156v-45.90625c0-4.164062-3.371094-7.535156-7.535156-7.535156-4.160157 0-7.535157 3.371094-7.535157 7.535156v45.90625c0 4.160156 3.375 7.535156 7.535157 7.535156zm0 0"/><path d="m345.933594 67.015625c1.394531 2.417969 3.929687 3.769531 6.53125 3.769531 5.746094 0 9.429687-6.257812 6.519531-11.300781l-20.914063-36.222656c-2.078124-3.601563-6.6875-4.835938-10.289062-2.757813-3.605469 2.082032-4.839844 6.691406-2.757812 10.292969zm0 0"/><path d="m256.316406 64.488281c73.125 33.597657 68.363282 31.730469 70.707032 31.730469 8.039062 0 10.480468-11.011719 3.148437-14.382812l-67.566406-31.042969c-3.78125-1.734375-8.253907-.078125-9.992188 3.703125-1.734375 3.78125-.078125 8.253906 3.703125 9.992187zm0 0"/><path d="m221.285156 130.957031h96.433594c4.160156 0 7.53125-3.371093 7.53125-7.53125 0-4.164062-3.371094-7.535156-7.53125-7.535156h-96.433594c-4.160156 0-7.53125 3.371094-7.53125 7.535156 0 4.160157 3.371094 7.53125 7.53125 7.53125zm0 0"/><path d="m333.699219 154.664062c-1.9375-3.6875-6.488281-5.101562-10.175781-3.171874l-61.367188 32.226562c-6.957031 3.65625-4.308594 14.203125 3.503906 14.203125 2.636719 0-1.90625 1.972656 64.863282-33.089844 3.6875-1.929687 5.105468-6.488281 3.175781-10.167969zm0 0"/><path d="m235.472656 197.730469-17.691406 9.28125c-3.683594 1.941406-5.101562 6.492187-3.164062 10.175781 1.898437 3.625 6.414062 5.136719 10.167968 3.175781l17.691406-9.292969c3.683594-1.9375 5.101563-6.488281 3.171876-10.175781-1.9375-3.6875-6.488282-5.101562-10.175782-3.164062zm0 0"/><path d="m356.226562 177.074219c-3.609374-2.082031-8.214843-.847657-10.292968 2.757812l-41.824219 72.4375c-2.078125 3.605469-.84375 8.214844 2.757813 10.292969 3.609374 2.082031 8.214843.84375 10.292968-2.757812l41.824219-72.441407c2.078125-3.601562.84375-8.207031-2.757813-10.289062zm0 0"/><path d="m387.203125 185.375c-4.171875 0-7.535156 3.363281-7.535156 7.535156v112.507813c0 4.160156 3.363281 7.535156 7.535156 7.535156 4.15625 0 7.53125-3.375 7.53125-7.535156v-112.507813c0-4.171875-3.375-7.535156-7.53125-7.535156zm0 0"/><path d="m387.203125 328.023438c-4.171875 0-7.535156 3.363281-7.535156 7.53125v13.28125c0 4.160156 3.363281 7.535156 7.535156 7.535156 4.15625 0 7.53125-3.375 7.53125-7.535156v-13.28125c0-4.167969-3.375-7.53125-7.53125-7.53125zm0 0"/><path d="m428.699219 180.261719c-1.84375-3.730469-6.359375-5.261719-10.089844-3.417969-3.734375 1.839844-5.265625 6.359375-3.421875 10.089844l27.714844 56.152344c1.3125 2.660156 3.984375 4.203124 6.761718 4.203124 5.539063 0 9.230469-5.84375 6.753907-10.871093zm0 0"/><path d="m500.722656 180.265625-49.582031-28.625c-3.605469-2.078125-8.210937-.847656-10.292969 2.757813-2.078125 3.601562-.84375 8.210937 2.757813 10.292968 53.84375 31.082032 50.519531 29.636719 53.34375 29.636719 7.679687 0 10.4375-10.214844 3.773437-14.0625zm0 0"/><path d="m496.957031 115.890625h-40.273437c-4.164063 0-7.535156 3.371094-7.535156 7.535156 0 4.160157 3.371093 7.53125 7.535156 7.53125h40.273437c4.160157 0 7.535157-3.371093 7.535157-7.53125 0-4.164062-3.375-7.535156-7.535157-7.535156zm0 0"/><path d="m510.554688 42.683594c-2.449219-3.363282-7.160157-4.101563-10.523438-1.65625l-57.09375 41.566406c-5.902344 4.296875-2.800781 13.625 4.441406 13.625 3.390625 0-.558594 2.1875 61.519532-43.007812 3.363281-2.449219 4.105468-7.160157 1.65625-10.527344zm0 0"/><path d="m421.933594 70.785156c2.605468 0 5.136718-1.351562 6.53125-3.769531l18.628906-32.261719c2.078125-3.601562.84375-8.210937-2.757812-10.289062-3.605469-2.082032-8.214844-.847656-10.292969 2.757812l-18.625 32.261719c-2.914063 5.042969.773437 11.300781 6.515625 11.300781zm0 0"/><path d="m229.835938 366.515625c-6.960938 1.558594-22.390626 6.117187-38.273438 18.171875 6.261719-12.554688 14.023438-24.15625 23.648438-33.601562 6.566406-6.429688.480468-17.488282-8.5-15.339844-31.40625 7.535156-63.207032 33.539062-79.871094 77.230468v-49.183593c5.382812-5.574219 18.292968-19.164063 23.769531-35.761719 14.472656 2.984375 30.003906.550781 44.148437-3.03125 4.542969-1.125 8.316407-5.683594 6.398438-12.21875-5.261719-18.390625-12.035156-30.769531-19.316406-38.964844 9.824218-11.042968 15.398437-25.652344 19.539062-39.769531 1.289063-4.484375-.707031-9.957031-7.375-11.644531-17.097656-4.277344-31.601562-5.214844-43.375-2.800782-4.796875-14.566406-14.847656-26.523437-24.703125-36.75-3.253906-3.378906-9.011719-4.394531-13.78125.554688-5.15625 5.332031-18.546875 19.175781-24.152343 36.152344-14.414063-2.96875-29.960938-.554688-44.140626 3.035156-4.375 1.078125-8.328124 5.4375-6.40625 12.207031 5.261719 18.402344 12.054688 30.796875 19.335938 38.996094-13.097656 14.742187-19.910156 39.417969-19.910156 42.320313 0 3.894531 2.269531 7.6875 7.734375 9.070312 13.882812 3.472656 29.21875 5.765625 43.398437 2.84375 5.476563 16.585938 18.375 30.179688 23.769532 35.761719v43.398437c-17.007813-39.855468-47.394532-64.214844-77.535157-71.445312-8.980469-2.148438-15.074219 8.917968-8.496093 15.339844 9.613281 9.433593 17.367187 21.027343 23.617187 33.582031-15.871094-12.035157-31.28125-16.59375-38.246094-18.152344-9.171875-2.019531-15.023437 9.484375-8.023437 15.691406 37.128906 32.871094 43.15625 97.230469 44.117187 116.167969.375 7.402344 6.472657 13.191406 13.882813 13.191406h118.769531c7.40625 0 13.503906-5.789062 13.882813-13.191406.964843-18.9375 6.992187-83.296875 44.121093-116.167969 6.992188-6.199219 1.152344-17.710937-8.027343-15.691406zm-44.710938-54.707031c-10.003906 2.203125-21.945312 3.566406-31.984375 1.375 0-9.296875-3.023437-17.683594-9.082031-25.121094 9.371094 1.546875 18.484375-.121094 26.277344-4.671875 5.777343 6.296875 10.710937 15.789063 14.789062 28.417969zm-31.984375-77.382813c8.355469-1.855469 19.046875-1.394531 31.972656 1.378907-6.28125 19.441406-17.351562 39.980468-37.550781 37.5-.078125-4.914063-1.414062-9.515626-3.714844-13.511719 5.476563-6.160157 9.292969-15.429688 9.292969-25.367188zm-33.835937-36.613281c13.609374 15.074219 25.941406 34.953125 13.753906 51.300781-4.046875-2.269531-8.699219-3.566406-13.640625-3.585937-.03125-.089844-.070313-.179688-.113281-.269532-.039063.089844-.070313.179688-.097657.269532-4.953125.019531-9.613281 1.316406-13.652343 3.585937-12.167969-16.316406.105468-36.199219 13.75-51.300781zm11.351562 82.714844c-6.964844 11.609375-24.550781 6.519531-24.550781-6.730469 0-13.199219 17.570312-18.367187 24.550781-6.730469 2.449219 3.917969 2.476562 9.496094 0 13.460938zm-45.183594 32.65625c-10.035156 2.183594-21.929687.839844-31.984375-1.375 4.078125-12.636719 9.019531-22.128906 14.796875-28.429688 7.589844 4.414063 16.332032 6.230469 26.277344 4.683594-5.839844 7.15625-9.089844 15.480469-9.089844 25.121094zm5.574219-39.839844c-20.359375 2.359375-31.292969-18.148438-37.558594-37.570312 10.050781-2.191407 21.925781-3.554688 31.984375-1.367188 0 9.65625 3.628906 19.011719 9.292969 25.386719-2.3125 4.007812-3.648437 8.628906-3.71875 13.550781zm-28.851563 223.152344c-1.035156-18.34375-6.246093-69.464844-32.398437-106.683594 37.894531 21.253906 51.453125 63.085938 51.777344 106.683594-8.339844 0-11.046875 0-19.378907 0zm34.449219 0c-.234375-31.300782-6.5-57.773438-18.714843-79.078125-5.726563-20.132813-14.046876-40.816407-26.160157-58.476563 46.546875 26.464844 60.792969 83.550782 60.867188 137.554688zm8.910157-198.019532c3.921874 2.214844 8.664062 3.570313 13.628906 3.585938.042968.101562.082031.203125.121094.292969.042968-.089844.070312-.191407.113281-.292969 4.957031-.015625 9.699219-1.359375 13.640625-3.585938 12.164062 16.285157-.121094 36.222657-13.753906 51.304688-13.65625-15.109375-25.921876-34.980469-13.75-51.304688zm22.753906 198.019532c.0625-53.871094 14.269531-111.085938 60.875-137.554688-12.105469 17.660156-20.421875 38.324219-26.140625 58.445313-12.222657 21.308593-18.503907 47.796875-18.734375 79.109375zm50.445312 0c-15.835937 0-12.3125 0-19.386718 0 .339843-43.382813 13.644531-85.320313 51.785156-106.683594-26.148438 37.21875-31.371094 88.339844-32.398438 106.683594zm0 0"/></svg>