<svg height="511pt" viewBox="0 0 511.99982 511" width="511pt" xmlns="http://www.w3.org/2000/svg"><path d="m137.941406 408.710938c-9.4375 4.84375-15.777344 14.867187-15.261718 26.320312.65625 14.480469 12.484374 26.21875 26.964843 26.777344 16.027344.617187 29.210938-12.195313 29.210938-28.082032 0-10.90625-6.214844-20.359374-15.292969-25.015624-1.132812-.578126-.886719-2.242188.359375-2.480469 32.136719-6.171875 56.394531-34.496094 56.257813-68.464844-.152344-37.660156-30.75-68.589844-68.40625-69.132813-38.8125-.554687-70.445313 30.738282-70.445313 69.421876 0 33.839843 24.210937 62.023437 56.261719 68.175781 1.25.238281 1.484375 1.902343.351562 2.480469zm0 0" fill="#544f56"/><path d="m158.007812 435.027344c-.421874-9.347656 3.734376-17.746094 10.410157-23.144532-1.496094-1.222656-3.128907-2.28125-4.855469-3.171874-1.132812-.585938-.890625-2.242188.363281-2.484376 1.511719-.292968 3.015625-.632812 4.5-1.019531-29.796875-7.800781-51.761719-34.914062-51.761719-67.15625 0-32.222656 21.945313-59.316406 51.703126-67.140625-5.320313-1.410156-10.871094-2.199218-16.597657-2.28125-38.800781-.554687-70.4375 30.738282-70.4375 69.421875 0 33.847657 24.207031 62.03125 56.257813 68.175781 1.25.242188 1.480468 1.910157.351562 2.484376-9.4375 4.847656-15.777344 14.871093-15.261718 26.316406.65625 14.484375 12.484374 26.226562 26.960937 26.78125 7.136719.273437 13.707031-2.109375 18.804687-6.257813-6.054687-4.898437-10.0625-12.265625-10.4375-20.523437zm0 0" fill="#444145"/><path d="m504.4375.5c-6.457031 0-415.855469 0-421 0-4.183594 0-7.574219 3.386719-7.574219 7.570312 0 3.789063 2.789063 6.917969 6.421875 7.476563 22.109375 11.191406 38.46875 26.585937 48.617188 45.796875 1.949218 3.699219 6.53125 5.113281 10.226562 3.160156 3.699219-1.953125 5.113282-6.535156 3.160156-10.230468-7.917968-14.996094-19.035156-27.921876-33.191406-38.632813h46.152344c21.476562 30.347656 30.6875 61.554687 34.617188 83.792969l-34.457032 34.457031c1.890625-16.292969 1.429688-33.179687-2.125-49.332031-.898437-4.082032-4.941406-6.664063-9.023437-5.765625-4.082031.898437-6.664063 4.9375-5.765625 9.019531 8.066406 36.632812-3.164063 66.234375-2.941406 69.601562v104.769532c-20.03125 3.429687-37.582032 14.613281-49.40625 31.046875-19.183594-8.753907-18.460938-8.101563-18.9375-9.488281l-21.554688-62.375c-1.363281-3.953126-5.671875-6.050782-9.625-4.683594-3.953125 1.363281-6.050781 5.675781-4.683594 9.625l21.550782 62.378906c1.570312 4.535156 4.972656 8.28125 9.339843 10.277344l16.300781 7.4375c-4.617187 10.226562-6.964843 21.371094-6.753906 33.039062h-14.085937l-20.265625-47.613281c-2.355469-5.535156-7.765625-9.109375-13.78125-9.109375h-18.082032c-4.179687 0-7.570312 3.386719-7.570312 7.570312 0 4.183594 3.390625 7.570313 7.570312 7.570313h17.976563l20.265625 47.613281c2.355469 5.53125 7.765625 9.109375 13.777344 9.109375h15.972656c1.464844 6.652344 3.792969 13.011719 6.875 18.9375h-25.21875c-5.929688 0-11.492188 3.167969-14.511719 8.269531l-31.277343 52.804688c-4.015626 6.789062-2.753907 15.347656 2.769531 20.703125 25.015625 24.261719 24.328125 24.585937 28.417969 24.585937 6.742187 0 10.167968-8.253906 5.273437-13.003906l-23.148437-22.453125c-.578126-.558593-.6875-1.433593-.285157-2.117187l31.277344-52.800782c.707031-1.199218-1.292969-.847656 37.015625-.847656 2.472656 2.839844 5.15625 5.492188 8.023438 7.949219l-29.488282 21.15625c-4.402344 3.160156-7.03125 8.285156-7.03125 13.703125v40.847656c0 5.394532 2.609375 10.503906 6.984375 13.667969 37.335938 27 35.289063 26.171875 38.632813 26.171875 7.292968 0 10.402344-9.402344 4.445312-13.707031l-34.207031-24.734375c-.445313-.324219-.714844-.847656-.714844-1.398438v-40.84375c0-.554687.269531-1.078125.71875-1.402344l33.914063-24.335937c3.164062 1.71875 6.464844 3.238281 9.894531 4.507813-12.523437 14.355468-11.859375 36.3125 2.785156 49.742187-8.820312 8.507813-10.425781 22.199219-3.546875 32.550781 3.429688 5.167969 4.992188 8.917969 9.988282 8.917969 5.988281 0 9.652343-6.710937 6.300781-11.761719-3.800781-5.71875-5.417969-7.425781-5.417969-11.292968 0-5.488282 3.535156-7.835938 6.59375-10.484376 6.695312 2.007813 13.800781 1.945313 20.292969.027344 3.117187 2.699219 6.558593 5.015625 6.558593 10.457032 0 3.863281-1.617187 5.574218-5.417968 11.292968-3.359375 5.0625.332031 11.761719 6.300781 11.761719 5.050781 0 6.628906-3.859375 9.988281-8.917969 6.832032-10.285156 5.328125-23.953125-3.507812-32.511718 14.828125-13.589844 15.070312-35.773438 2.785156-49.792969 3.417969-1.269531 6.707031-2.78125 9.863281-4.492188l33.90625 24.328125c.449219.324219.71875.847656.71875 1.402344v40.847656c0 .550782-.265625 1.074219-.714843 1.394532l-34.207032 24.738281c-5.957031 4.304687-2.851562 13.703125 4.441406 13.703125 3.34375 0 1.269532.851562 38.636719-26.167969 4.371094-3.164063 6.984375-8.273437 6.984375-13.667969v-40.847656c0-5.421875-2.628906-10.542969-7.035156-13.703125l-29.46875-21.148437c2.871094-2.453126 5.558594-5.113282 8.035156-7.957032 38.460938 0 36.277344-.355468 36.992188.847656l31.273437 52.804688c.410157.691406.289063 1.558594-.28125 2.117188l-23.152343 22.449218c-3 2.914063-3.074219 7.703125-.164063 10.707032 2.910156 3 7.703125 3.074218 10.707031.164062l23.148438-22.449219c5.511718-5.347656 6.800781-13.90625 2.769531-20.707031l-31.273437-52.804688c-3.023438-5.101562-8.585938-8.269531-14.511719-8.269531h-25.207031c3.078124-5.925781 5.402343-12.28125 6.863281-18.9375h15.96875c6.015625 0 11.421875-3.578125 13.78125-9.109375l20.265625-47.613281h17.972656c4.183594 0 7.570312-3.386719 7.570312-7.570313 0-4.183593-3.386718-7.570312-7.570312-7.570312h-18.082031c-6.011719 0-11.421875 3.574219-13.777344 9.109375l-20.269531 47.613281h-14.082032c.210938-11.839844-2.269531-22.921875-6.859374-32.992187l16.40625-7.484375c4.367187-1.996094 7.769531-5.738282 9.335937-10.277344l21.554687-62.375c1.363282-3.953125-.734374-8.265625-4.683593-9.628906-3.953125-1.367188-8.261719.730468-9.628907 4.683594-23.238281 67.25-21.46875 63.183593-22.867187 63.824218l-17.757813 8.101563c-13.667968-18.964844-35.699218-31.574219-60.527343-32.195313v-99.078125c36.789062-11.148437 70.207031-5.007812 99.390625 18.296875 23.175781 18.507813 34.976562 41.441406 35.085937 41.660156 3.300781 6.558594 13.128907 5.019532 14.234375-2.265624 18.070313-35.703126 46.566406-55.980469 84.734375-60.253907 29.472657-3.304687 54.035157 4.570313 54.269531 4.648438 6.960938 2.292969 12.820313-5.710938 8.476563-11.652344-10.171875-31.03125-8.6875-61.492187 8.394531-89.792969 2.160156-3.582031 1.007813-8.234375-2.570312-10.394531-3.582032-2.160156-8.234375-1.011719-10.394532 2.570313-14.167968 23.472656-19.578124 49.515624-15.738281 77.171874l-32.636719-32.640624c6.269532-36.644532 21.824219-65.226563 34.769532-83.730469h48.730468c-4.875 3.863281-10.1875 8.515625-15.5 13.96875-2.914062 2.996093-2.851562 7.792969.144532 10.707031 3 2.917969 7.792968 2.851562 10.707031-.144531 16.292969-16.738281 32.894531-25.261719 33.050781-25.339844 7.089844-3.570313 4.539063-14.328125-3.410156-14.328125zm-300.101562 306.847656c21.226562 36.707032-.324219 83.476563-41.847657 91.445313-3.730469.71875-6.597656 3.726562-7.132812 7.480469-.539063 3.753906 1.371093 7.441406 4.75 9.175781 12.601562 6.460937 15.003906 23.335937 4.882812 33.074219-12.796875 12.3125-33.960937 3.507812-34.742187-13.832032-.363282-8.027344 4.015625-15.578125 11.152344-19.242187 7.523437-3.859375 5.902343-15.066407-2.382813-16.65625-28.722656-5.515625-50.117187-30.820313-50.117187-60.738281 0-34.167969 27.773437-62.269532 62.765624-61.851563 24.445313.351563 38.710938 12.023437 52.671876 31.144531zm71.324218-291.707031-31.160156 31.160156c-2.988281-10.710937-6.734375-21.128906-11.210938-31.160156zm-100.191406 0h41.09375c6.707031 13.773437 11.902344 28.402344 15.488281 43.609375l-27.324219 27.324219c-4.566406-20.351563-13.160156-45.621094-29.257812-70.933594zm110.898438 177.925781c-28.746094-36.296875-69.113282-57.355468-116.375-50.839844l32.644531-32.648437c36.644531 6.269531 65.226562 21.824219 83.730469 34.769531zm0-66.90625c-17.621094-11.15625-41.566407-22.949218-70.84375-29.464844l29.058593-29.058593c14.476563 4.996093 28.496094 11.667969 41.785157 19.882812zm0-56.246094c-9.6875-5.460937-19.703126-10.175781-29.960938-14.105468l29.960938-29.960938zm69.914062-54.773437c-5.460938 9.6875-10.175781 19.703125-14.105469 29.960937l-29.960937-29.960937zm-54.773438 10.707031 31.160157 31.160156c-10.710938 2.988282-21.128907 6.734376-31.160157 11.210938zm118.242188 118.242188c-46.835938-5.4375-89.886719 8.925781-118.242188 46.339844v-46.164063c8.367188-5.921875 17.265626-11.246094 26.503907-15.839844 3.742187-1.863281 5.265625-6.410156 3.40625-10.152343-1.863281-3.742188-6.40625-5.269532-10.152344-3.40625-6.777344 3.371093-13.382813 7.113281-19.757813 11.167968v-41.089844c13.773438-6.703124 28.402344-11.898437 43.609376-15.488281l27.320312 27.320313c-7.503906 1.679687-14.933594 3.738281-22.210938 6.15625-9.410156 3.128906-4.816406 17.554687 4.777344 14.367187 9.875-3.28125 20.050782-5.851562 30.296875-7.660156zm-36.6875-58.101563-29.058594-29.058593c4.996094-14.480469 11.667969-28.5 19.882813-41.789063h38.640625c-11.15625 17.621094-22.949219 41.5625-29.464844 70.847656zm0 0"/></svg>