<svg height="512pt" viewBox="-19 0 512 512.00039" width="512pt" xmlns="http://www.w3.org/2000/svg"><path d="m422.59375 504.453125h-370.175781c-2.042969 0-4.042969-.132813-5.988281-.382813-31.085938-4.035156-49.148438-39.085937-32.5625-67.195312 37.324218-63.238281 85.246093-77.539062 85.246093-77.539062h276.785157s47.925781 14.300781 85.25 77.539062c3.097656 5.246094 4.992187 10.75 5.796874 16.234375 3.855469 25.730469-15.78125 51.34375-44.351562 51.34375zm0 0" fill="#c2bdc5"/><path d="m466.945312 453.109375c-28.1875-24.765625-64.929687-38.835937-103.472656-38.835937h-176.785156c-83.71875 0-134.121094 64.457031-140.257812 89.796874-31.085938-4.035156-49.148438-39.085937-32.5625-67.195312 37.324218-63.238281 85.246093-77.539062 85.246093-77.539062h276.785157s47.925781 14.300781 85.25 77.539062c3.097656 5.246094 4.992187 10.75 5.796874 16.234375zm0 0" fill="#b3adb6"/><path d="m329.34375 89.972656c22.984375-10.085937 35.921875-24.570312 42.972656-39.371094 14.335938-30.105468-23.457031-57.457031-47.597656-34.441406-24.175781 23.054688-25.433594 51.589844-25.433594 51.589844v6.03125l23.761719 17.527344zm0 0" fill="#655e67"/><path d="m145.671875 89.972656c-22.984375-10.085937-35.925781-24.570312-42.972656-39.371094-14.335938-30.105468 23.453125-57.457031 47.59375-34.441406 24.179687 23.054688 25.4375 51.589844 25.4375 51.589844v6.03125l-23.761719 17.527344zm0 0" fill="#655e67"/><path d="m364.652344 335.960938h-254.289063v-158.984376c0-65.5625 53.148438-118.714843 118.714844-118.714843h16.859375c65.566406 0 118.714844 53.152343 118.714844 118.714843zm0 0" fill="#c2bdc5"/><path d="m255.117188 58.609375c-61.277344 4.691406-109.53125 55.894531-109.53125 118.367187v158.984376h-35.222657v-158.984376c0-65.5625 53.148438-118.710937 118.710938-118.710937h16.867187c3.089844 0 6.148438.121094 9.175782.34375zm0 0" fill="#b3adb6"/><path d="m170.792969 413.820312h-.019531c-16.09375 0-29.140626-13.046874-29.140626-29.140624v-32.054688h58.304688v32.054688c-.003906 16.09375-13.050781 29.140624-29.144531 29.140624zm0 0" fill="#fff5f4"/><path d="m304.242188 413.820312h-.023438c-16.09375 0-29.140625-13.046874-29.140625-29.140624v-32.054688h58.304687v32.054688c0 16.09375-13.046874 29.140624-29.140624 29.140624zm0 0" fill="#fff5f4"/><path d="m456.265625 307.269531c0 38.613281-31.304687 69.910157-69.917969 69.910157h-297.679687c-19.300781 0-36.792969-7.828126-49.441407-20.480469-12.652343-12.648438-20.480468-30.117188-20.480468-49.429688 0-38.613281 31.308594-69.921875 69.921875-69.921875h32.917969c4.808593 0 8.984374-3.179687 10.386718-7.78125 2.203125-7.183594 6.640625-13.394531 12.507813-17.800781 5.875-4.40625 13.164062-7.023437 21.074219-7.023437 10.042968 0 19.089843 4.207031 25.480468 10.957031 3.691406 3.886719 6.5 8.617187 8.109375 13.867187 1.398438 4.601563 5.574219 7.78125 10.386719 7.78125h52.933594c4.808594 0 8.984375-3.179687 10.386718-7.78125 2.203126-7.183594 6.640626-13.394531 12.515626-17.800781 5.867187-4.40625 13.164062-7.023437 21.074218-7.023437 15.808594 0 29.183594 10.457031 33.582032 24.824218 1.398437 4.601563 5.574218 7.78125 10.386718 7.78125h35.9375c19.300782 0 36.789063 7.828125 49.441406 20.480469 12.648438 12.65625 20.476563 30.128906 20.476563 49.441406zm0 0" fill="#d1ced3"/><path d="m456.265625 307.269531c0 38.613281-31.304687 69.910157-69.917969 69.910157h-282.726562c-7.867188-3.511719-14.972656-8.433594-20.992188-14.441407-12.648437-12.648437-20.480468-30.121093-20.480468-49.433593 0-38.613282 31.308593-69.917969 69.921874-69.917969h32.917969c4.8125 0 8.988281-3.179688 10.386719-7.78125 2.203125-7.183594 6.640625-13.394531 12.519531-17.800781 1.003907-.753907 2.050781-1.460938 3.140625-2.105469 3.691406 3.886719 6.5 8.617187 8.109375 13.867187 1.398438 4.601563 5.574219 7.78125 10.386719 7.78125h52.933594c4.808594 0 8.984375-3.179687 10.386718-7.78125 2.203126-7.183594 6.640626-13.394531 12.515626-17.800781 5.867187-4.40625 13.164062-7.023437 21.074218-7.023437 15.808594 0 29.183594 10.457031 33.582032 24.824218 1.398437 4.601563 5.574218 7.78125 10.386718 7.78125h35.9375c19.300782 0 36.789063 7.828125 49.441406 20.480469 12.648438 12.65625 20.476563 30.128906 20.476563 49.441406zm0 0" fill="#e1dee2"/><path d="m209.402344 152.359375c0-8.441406-6.851563-15.289063-15.300782-15.289063-8.453124 0-15.300781 6.847657-15.300781 15.289063 0 8.445313 6.847657 15.289063 15.300781 15.289063 8.449219 0 15.300782-6.84375 15.300782-15.289063zm0 0"/><path d="m296.214844 152.359375c0-8.441406-6.851563-15.289063-15.300782-15.289063-8.453124 0-15.304687 6.847657-15.304687 15.289063 0 8.445313 6.851563 15.289063 15.304687 15.289063 8.449219 0 15.300782-6.84375 15.300782-15.289063zm0 0"/><path d="m467.648438 433.042969c-15.265626-25.875-32.242188-43.878907-47.265626-56.207031 25.699219-12.617188 43.433594-39.066407 43.433594-69.566407 0-42.71875-34.75-77.46875-77.46875-77.46875h-14.152344v-52.824219c0-30.105468-10.097656-58.363281-31.972656-83.882812 17.949219-9.511719 31.019532-22.679688 38.90625-39.246094 17.90625-37.605468-29.445312-71.917968-59.617187-43.148437-18.496094 17.632812-24.691407 38.128906-26.753907 49.019531-15.042968-6.019531-30.808593-9-46.816406-9-19.535156 0-38.167968-1.1875-63.683594 9.019531-2.058593-10.886719-8.25-31.394531-26.753906-49.039062-30.164062-28.757813-77.53125 5.527343-59.617187 43.148437 7.878906 16.546875 20.925781 29.707032 38.84375 39.214844-8.472657 9.683594-15.386719 19.882812-21.066407 32.640625-1.699218 3.804687.019532 8.261719 3.824219 9.960937 3.804688 1.691407 8.273438-.019531 9.964844-3.832031 17.851563-40.105469 57.734375-66.015625 101.621094-66.015625h16.867187c61.296875 0 111.160156 49.863282 111.160156 111.160156v52.824219h-6.691406c-1.449218 0-2.726562-.976562-3.171875-2.4375-12.28125-40.136719-69.316406-40.15625-81.605469 0-.441406 1.460938-1.71875 2.4375-3.167968 2.4375h-52.933594c-1.449219 0-2.726562-.976562-3.171875-2.4375-12.28125-40.132812-69.316406-40.15625-81.605469 0-.902344 2.988281-3.710937 2.4375-6.839844 2.4375 0-57.03125-.433593-59.363281 1.46875-70.96875.671876-4.105469-2.113281-7.992187-6.230468-8.664062-4.117188-.675781-7.992188 2.113281-8.664063 6.226562-2.152343 13-1.671875 16.707031-1.671875 73.40625h-14.148437c-42.71875 0-77.46875 34.75-77.46875 77.46875 0 30.511719 17.742187 56.96875 43.453125 69.578125-11.3125 9.289063-23.71875 21.777344-35.695313 38.414063-2.433593 3.378906-1.660156 8.097656 1.722657 10.535156 3.378906 2.433594 8.101562 1.660156 10.535156-1.722656 13.808594-19.179688 28.277344-32.371094 40.464844-41.230469 10.738281 2.433594 13.582031 1.882812 62.40625 1.882812.027343 20.164063 16.421874 36.640626 36.710937 36.640626 20.207031 0 36.648437-16.433594 36.679687-36.640626h60.058594c.03125 20.207032 16.476563 36.640626 36.683594 36.640626h.019531c20.21875 0 36.660157-16.433594 36.691407-36.640626 48.859374 0 51.625.546876 62.363281-1.871093 15.425781 11.210937 34.546875 29.375 51.355469 57.855469 4.027343 6.839843 5.765624 14.289062 5.101562 22.070312-.363281 4.15625 2.707031 7.816406 6.851562 8.179688 4.214844.367187 7.824219-2.761719 8.183594-6.863282.960938-11.011718-1.648437-21.761718-7.136718-31.054687zm-321.578126-351.195313c-17.222656-8.125-29.519531-19.714844-36.554687-34.492187-10.738281-22.546875 17.480469-42.980469 35.570313-25.734375 18.40625 17.550781 22.214843 38.867187 22.945312 44.847656-7.839844 4.335938-15.203125 9.496094-21.960938 15.378906zm160.902344-15.371094c.679688-5.902343 4.355469-27.117187 22.957032-44.855468 18.074218-17.238282 46.3125 3.175781 35.570312 25.734375-7.042969 14.792969-19.355469 26.386719-36.601562 34.511719-7.503907-6.542969-14.101563-10.917969-21.925782-15.390626zm-136.195312 339.796876c-11.898438 0-21.566406-9.660157-21.597656-21.546876h43.203124c-.03125 11.851563-9.660156 21.546876-21.605468 21.546876zm133.441406 0c-11.886719 0-21.558594-9.660157-21.585938-21.546876h43.203126c-.03125 11.835938-9.644532 21.546876-21.617188 21.546876zm82.128906-36.640626c-323.25 0-303.328125 1.550782-317.546875-3.242187-24.683593-8.3125-42.507812-31.679687-42.507812-59.121094 0-34.398437 27.976562-62.375 62.375-62.375h32.917969c8.128906 0 15.207031-5.273437 17.601562-13.113281 7.941406-25.933594 44.796875-25.941406 52.742188 0 2.394531 7.839844 9.46875 13.113281 17.601562 13.113281h52.933594c8.132812 0 15.207031-5.273437 17.601562-13.113281 7.941406-25.929688 44.796875-25.941406 52.742188 0 2.394531 7.839844 9.46875 13.113281 17.601562 13.113281h35.9375c34.394532 0 62.371094 27.976563 62.371094 62.375 0 34.351563-27.9375 62.363281-62.371094 62.363281zm0 0"/><path d="m449.625 485.300781c-7.023438 7.476563-16.625 11.605469-27.03125 11.605469h-370.175781c-26.492188 0-42.976563-26.160156-35.402344-48.878906 1.328125-3.957032-.804687-8.234375-4.75-9.5625-3.957031-1.328125-8.230469.804687-9.558594 4.761718-11.269531 33.671876 14.078125 68.773438 49.710938 68.773438h370.175781c14.613281 0 28.128906-5.816406 38.03125-16.363281 2.847656-3.039063 2.707031-7.808594-.332031-10.667969-3.039063-2.847656-7.820313-2.707031-10.667969.332031zm0 0"/><path d="m180.953125 241.6875c0-7.90625-6.414063-14.3125-14.324219-14.3125-7.914062 0-14.328125 6.40625-14.328125 14.3125s6.414063 14.3125 14.328125 14.3125c7.910156 0 14.324219-6.40625 14.324219-14.3125zm0 0"/><path d="m322.710938 241.6875c0-7.90625-6.410157-14.3125-14.324219-14.3125-7.910157 0-14.324219 6.40625-14.324219 14.3125s6.414062 14.3125 14.324219 14.3125c7.914062 0 14.324219-6.40625 14.324219-14.3125zm0 0"/></svg>