<svg height="512pt" viewBox="0 -18 512.00055 512" width="512pt" xmlns="http://www.w3.org/2000/svg"><path d="m239.078125 125.941406c0-65.441406-51.828125-118.488281-115.765625-118.488281-63.933594 0-115.761719 53.046875-115.761719 118.488281 0 24.132813 7.050781 46.582032 19.160157 65.304688 7.726562 11.945312 12.171874 25.675781 13.683593 39.824218 2.769531 25.882813 15.449219 48.488282 36.929688 60.890626 40.070312 23.136718 95.582031 2 123.992187-47.203126 9.269532-16.054687 14.503906-33.109374 15.964844-49.609374 13.710938-19.472657 21.796875-43.371094 21.796875-69.207032zm0 0" fill="#c2bdc5"/><path d="m239.078125 125.941406c0 25.839844-8.082031 49.738282-21.796875 69.203125-1.457031 16.5-6.695312 33.5625-15.964844 49.609375-21.9375 38.015625-60.066406 59.269532-94.753906 56.300782-23.382812-25.132813-37.691406-58.824219-37.691406-95.867188 0-77.726562 63.007812-140.738281 140.738281-140.738281 4.394531 0 8.726563.203125 13.019531.59375 10.449219 17.796875 16.449219 38.628906 16.449219 60.898437zm0 0" fill="#a49ca7"/><path d="m239.078125 125.941406c0 25.839844-8.082031 49.738282-21.796875 69.203125-1.457031 16.5-6.695312 33.5625-15.964844 49.609375-21.9375 38.015625-60.066406 59.269532-94.753906 56.300782-23.382812-25.132813-37.691406-58.824219-37.691406-95.867188 0-77.726562 63.007812-140.738281 140.738281-140.738281 4.394531 0 8.726563.203125 13.019531.59375 10.449219 17.796875 16.449219 38.628906 16.449219 60.898437zm0 0" fill="#b3adb6"/><path d="m272.925781 125.941406c0-65.441406 51.828125-118.488281 115.761719-118.488281 63.9375 0 115.765625 53.046875 115.765625 118.488281 0 24.132813-7.054687 46.582032-19.164063 65.304688-7.722656 11.945312-12.167968 25.675781-13.679687 39.824218-2.769531 25.882813-15.453125 48.488282-36.929687 60.890626-40.070313 23.136718-95.585938 2-123.996094-47.203126-9.265625-16.054687-14.5-33.109374-15.960938-49.609374-13.714844-19.472657-21.796875-43.371094-21.796875-69.207032zm0 0" fill="#c2bdc5"/><path d="m272.921875 125.941406c0 25.839844 8.085937 49.738282 21.800781 69.203125 1.457032 16.5 6.695313 33.5625 15.964844 49.609375 21.9375 38.015625 60.0625 59.269532 94.75 56.300782 23.386719-25.132813 37.695312-58.824219 37.695312-95.867188 0-77.726562-63.011718-140.738281-140.738281-140.738281-4.394531 0-8.730469.203125-13.023437.59375-10.445313 17.796875-16.449219 38.628906-16.449219 60.898437zm0 0" fill="#b3adb6"/><path d="m453.285156 389.332031c-32.925781-73.363281-75.195312-89.953125-75.195312-89.953125-10.824219 0-234.195313 0-244.179688 0 0 0-42.269531 16.589844-75.195312 89.953125-15.542969 34.636719 3.421875 78.378907 34.011718 78.378907h326.546876c30.589843 0 49.558593-43.742188 34.011718-78.378907zm0 0" fill="#a49ca7"/><path d="m107.289062 384.464844c-14.5 32.296875-1.8125 71.757812 22.820313 83.25h-37.378906c-30.597657 0-49.558594-43.746094-34.015625-78.382813 32.929687-73.363281 75.195312-89.953125 75.195312-89.953125h34.386719c-16.832031 13.78125-40.558594 39.511719-61.007813 85.085938zm0 0" fill="#8e8391"/><path d="m396.746094 221c0 77.730469-63.015625 140.742188-140.746094 140.742188s-140.742188-63.011719-140.742188-140.742188 63.011719-140.746094 140.742188-140.746094 140.746094 63.015625 140.746094 140.746094zm0 0" fill="#e1dee2"/><path d="m273.59375 360.65625c-5.757812.714844-11.632812 1.085938-17.59375 1.085938-77.730469 0-140.738281-63.007813-140.738281-140.746094 0-77.730469 63.007812-140.742188 140.738281-140.742188 5.960938 0 11.835938.375 17.59375 1.085938-69.421875 8.65625-123.144531 67.886718-123.144531 139.65625 0 71.777344 53.722656 131.003906 123.144531 139.660156zm0 0" fill="#d1ced3"/><path d="m341.730469 420.316406c-.058594-5.273437-3.71875-9.816406-8.859375-11.007812-16.09375-3.734375-31.265625-17.132813-31.265625-33.09375v-155.214844h-89.667969v92.714844c-2.519531 104.027344 31.035156 127.050781 118.097656 129.859375 6.507813.210937 11.890625-5.042969 11.820313-11.554688zm0 0" fill="#e1dee2"/><path d="m509.007812 98.253906c-.894531-4.074218-4.917968-6.648437-8.980468-5.753906-4.070313.894531-6.644532 4.90625-5.75 8.980469 6.238281 28.4375 1.550781 59.601562-15.324219 85.671875-8.023437 12.40625-13.160156 27.316406-14.847656 43.113281-4.535157 42.449219-37.292969 69.71875-78.273438 62.324219 47.003907-84.84375.414063-192.179688-94.269531-215.5625 39.292969-81.667969 152.402344-82.847656 193.261719-2.089844 1.882812 3.710938 6.417969 5.195312 10.136719 3.328125 3.710937-1.882813 5.199218-6.425781 3.316406-10.136719-47.375-93.65625-179.492188-89.863281-221.976563 5.972656-13.113281-1.808593-26.90625-1.898437-40.589843.019532-42.550782-96.011719-174.671876-99.527344-221.988282-5.992188-1.878906 3.710938-.390625 8.253906 3.320313 10.136719 3.71875 1.878906 8.253906.390625 10.132812-3.328125 41.007813-81.042969 154.171875-79.257812 193.28125 2.128906-43.25 10.738282-80.3125 40.691406-99.34375 82.253906-1.738281 3.792969-.070312 8.265626 3.710938 10.003907 3.789062 1.730469 8.261719.070312 10.003906-3.71875 26.269531-57.386719 89.714844-88.628907 151.074219-74.421875 97.289062 22.394531 135.921875 140.261718 71.808594 215.734375-13.113282 15.503906-29.703126 27.980469-48.5625 36.226562v-122.140625c0-4.171875-3.378907-7.539062-7.542969-7.539062-4.171875 0-7.539063 3.367187-7.539063 7.539062v155.207032c0 20.671874 19.113282 36.265624 37.097656 40.4375 1.761719.414062 3.007813 1.953124 3.027344 3.75l.121094 11.703124c.03125 2.167969-1.726562 3.964844-4.03125 3.933594-66.941406-2.15625-98.703125-15.496094-108.003906-70.613281-3.757813-22.285156-2.804688-31.566406-2.804688-144.417969 0-4.171875-3.378906-7.539062-7.539062-7.539062-4.164063 0-7.542969 3.367187-7.542969 7.539062 0 119.144532-.316406 110.480469.421875 122.972656-58.175781-24.296874-92.917969-87.128906-78.984375-151.355468.875-4.070313-1.710937-8.082032-5.78125-8.96875-4.0625-.882813-8.082031 1.710937-8.957031 5.773437-7.3125 33.628907-3.007813 70.515625 15.082031 103.164063-41.234375 7.4375-73.769531-20.140625-78.273437-62.324219-1.691407-15.796875-6.828126-30.707031-14.851563-43.113281-16.859375-26.050782-21.566406-57.214844-15.320313-85.671875.894532-4.074219-1.679687-8.085938-5.753906-8.980469-4.070312-.894531-8.082031 1.679688-8.976562 5.753906-7.121094 32.464844-1.628906 67.679688 17.382812 97.09375 6.757813 10.433594 11.082032 23.0625 12.519532 36.527344 4.65625 43.539062 34.734374 73.746094 73.625 76.761719-32.082032 27.59375-53.210938 71.316406-57.609376 85.320312-1.246093 3.972657.964844 8.203125 4.945313 9.453125 3.972656 1.234375 8.203125-.976562 9.441406-4.949218 7.710938-24.316407 38.933594-74.921876 72-91.433594 17.492188 24.484375 42.238281 43.445312 71.070313 53.722656 9.328125 71.589844 50.632812 88.015625 123.417968 90.367188 11.90625 0 19.722657-9.105469 19.605469-19.183594l-.121093-11.695313c-.101563-8.777343-6.144532-16.285156-14.699219-18.277343-12.496094-2.894532-25.425781-13.320313-25.425781-25.75v-16.769532c27.324218-10.527344 50.773437-28.925781 67.542968-52.402344 7.339844 3.648438 41.988282 23.578126 69.714844 85.378907 13.457031 29.957031-2.480469 67.757812-27.136719 67.757812h-326.539062c-16.933594 0-28.566407-17.765625-31.308594-35.3125-.644531-4.109375-4.496094-6.925781-8.617187-6.28125-4.113282.640625-6.929688 4.503907-6.285157 8.613281 4.433594 28.292969 23.425781 48.0625 46.210938 48.0625h326.539062c36.476563 0 58.613281-49.550781 40.890625-89.011718-18.035156-40.1875-38.878906-64.015625-54.683594-77.609375 38.902344-3.019531 68.972657-33.234375 73.628907-76.761719 1.4375-13.464844 5.757812-26.09375 12.515625-36.527344 18.996094-29.394531 24.511718-64.605468 17.386718-97.09375zm0 0"/><path d="m227.921875 154.394531c0-8.433593-6.84375-15.273437-15.289063-15.273437-8.441406 0-15.285156 6.839844-15.285156 15.273437 0 8.4375 6.84375 15.277344 15.285156 15.277344 8.445313 0 15.289063-6.839844 15.289063-15.277344zm0 0"/><path d="m314.652344 154.394531c0-8.433593-6.84375-15.273437-15.285156-15.273437-8.445313 0-15.289063 6.839844-15.289063 15.273437 0 8.4375 6.84375 15.277344 15.289063 15.277344 8.441406 0 15.285156-6.839844 15.285156-15.277344zm0 0"/><path d="m239.957031 231.554688h33.847657c4.164062 0 7.539062-3.375 7.539062-7.539063s-3.375-7.539063-7.539062-7.539063h-33.847657c-4.164062 0-7.539062 3.375-7.539062 7.539063s3.375 7.539063 7.539062 7.539063zm0 0"/><path d="m239.957031 300.433594h33.847657c4.164062 0 7.539062-3.375 7.539062-7.539063 0-4.164062-3.375-7.539062-7.539062-7.539062h-33.847657c-4.164062 0-7.539062 3.375-7.539062 7.539062 0 4.164063 3.375 7.539063 7.539062 7.539063zm0 0"/><path d="m273.804688 354.234375h-33.851563c-7.300781 0-10.308594 9.398437-4.414063 13.640625 2.65625 1.945312 1.484376 1.441406 38.265626 1.441406 4.15625 0 7.542968-3.386718 7.542968-7.542968 0-4.160157-3.378906-7.539063-7.542968-7.539063zm0 0"/></svg>