<svg height="512pt" viewBox="0 -1 512.00011 512" width="512pt" xmlns="http://www.w3.org/2000/svg"><path d="m434.382812 247.824219h-66.976562c-33.457031 0-60.570312-27.113281-60.570312-60.570313v-152.710937c0-14.898438-12.074219-26.972657-26.972657-26.972657h-47.839843l-36.183594 96.742188 36.183594 82.941406c0 33.457032 27.117187 60.570313 60.570312 60.570313h66.96875c33.453125 0 60.566406 27.113281 60.566406 60.566406l-18.550781 81.136719 18.550781 73.484375h74.820313v-154.621094c0-33.453125-27.125-60.566406-60.566407-60.566406zm0 0" fill="#62a6fd"/><path d="m327.925781 247.824219h-35.332031c-33.453125 0-60.570312-27.113281-60.570312-60.570313v-179.683594h35.332031v179.683594c0 33.457032 27.113281 60.570313 60.570312 60.570313zm0 0" fill="#4394fb"/><path d="m284.75 247.824219h-66.976562c-33.457032 0-60.570313-27.113281-60.570313-60.570313l21.089844-74.53125-21.089844-105.152344h-74.8125l-26.871094 105.152344 26.871094 74.53125c0 33.453125 27.117187 60.570313 60.570313 60.570313h66.96875c33.453124 0 60.566406 27.113281 60.566406 60.566406l-17.394532 47.027344 17.394532 107.59375h74.820312l17.757813-107.59375-17.757813-47.027344c0-33.453125-27.125-60.566406-60.566406-60.566406zm0 0" fill="#fed22b"/><path d="m178.292969 247.824219h-35.332031c-33.453126 0-60.570313-27.113281-60.570313-60.570313v-179.683594h35.332031v179.683594c0 33.457032 27.113282 60.570313 60.570313 60.570313zm0 0" fill="#fdc202"/><path d="m270.496094 308.390625v154.621094h-74.8125v-154.621094c0-33.453125-27.113282-60.566406-60.566406-60.566406h-66.976563c-33.445313 0-60.570313-27.113281-60.570313-60.570313v-152.710937c0-14.898438 12.082032-26.972657 26.984376-26.972657h47.835937v179.683594c0 33.457032 27.117187 60.570313 60.570313 60.570313h66.96875c33.453124 0 60.566406 27.113281 60.566406 60.566406zm0 0" fill="#f76c57"/><path d="m359.5625 247.824219h-66.96875c-33.453125 0-60.570312-27.113281-60.570312-60.570313v-179.683594h-74.820313v179.683594c0 33.457032 27.113281 60.570313 60.570313 60.570313h66.976562c33.441406 0 60.566406 27.113281 60.566406 60.566406v154.621094h74.8125v-154.621094c0-33.453125-27.113281-60.566406-60.566406-60.566406zm0 0" fill="#24d3b5"/><path d="m103.46875 247.824219h-35.328125c-33.445313 0-60.570313-27.113281-60.570313-60.570313v-152.710937c0-14.898438 12.082032-26.972657 26.984376-26.972657h35.332031c-14.902344 0-26.984375 12.074219-26.984375 26.972657v152.710937c0 33.457032 27.125 60.570313 60.566406 60.570313zm0 0" fill="#e5554e"/><path d="m253.101562 247.824219h-35.328124c-33.457032 0-60.570313-27.113281-60.570313-60.570313v-179.683594h35.332031v179.683594c0 33.457032 27.113282 60.570313 60.566406 60.570313zm0 0" fill="#20b7a1"/><path d="m231.015625 308.390625v154.621094h-35.332031v-154.621094c0-33.453125-27.113282-60.566406-60.566406-60.566406h35.332031c33.453125 0 60.566406 27.113281 60.566406 60.566406zm0 0" fill="#e5554e"/><path d="m305.828125 308.390625v154.621094h-35.332031v-154.621094c0-33.453125-27.113282-60.566406-60.566406-60.566406h35.328124c33.457032 0 60.570313 27.113281 60.570313 60.566406zm0 0" fill="#fdc202"/><path d="m380.648438 308.390625v154.621094h-35.332032v-154.621094c0-33.453125-27.125-60.566406-60.566406-60.566406h35.332031c33.441407 0 60.566407 27.113281 60.566407 60.566406zm0 0" fill="#20b7a1"/><path d="m455.460938 308.390625v154.621094h-35.332032v-154.621094c0-33.453125-27.113281-60.566406-60.566406-60.566406h35.328125c33.457031 0 60.570313 27.113281 60.570313 60.566406zm0 0" fill="#4394fb"/><path d="m432.8125 354.039062c-27.386719-1.027343-51.625 12.746094-65.375 33.953126-3.058594 4.71875-9.472656 5.785156-13.871094 2.285156-8.042968-6.402344-18.226562-10.226563-29.304687-10.226563-26.023438 0-47.117188 21.09375-47.117188 47.117188 0 .25 0 .5.003907.746093.085937 5.292969-4.152344 9.632813-9.445313 9.632813h-60.648437c-18.335938 0-33.691407 15.007813-33.339844 33.335937.339844 17.765626 14.847656 32.0625 32.691406 32.0625h223.546875c41.734375 0 75.449219-34.328124 74.457031-76.289062-.925781-39.101562-32.515625-71.15625-71.597656-72.617188zm0 0" fill="#e6f1ff"/><path d="m501.449219 449.351562c-8.789063-30.019531-36.117188-52.410156-68.640625-53.632812-27.386719-1.027344-51.625 12.75-65.375 33.949219-3.058594 4.722656-9.46875 5.785156-13.867188 2.292969-8.046875-6.402344-18.222656-10.226563-29.304687-10.226563-26.027344 0-47.125 21.085937-47.125 47.109375 0 .253906.011719.507812.011719.75.082031 5.289062-4.148438 9.628906-9.4375 9.628906h-60.660157c-10.234375 0-19.554687 4.683594-25.722656 12.023438-4.632813-5.53125-7.46875-12.617188-7.609375-20.363282-.351562-18.328124 15-33.332031 33.332031-33.332031h60.660157c5.289062 0 9.519531-4.339843 9.4375-9.640625 0-.242187-.011719-.492187-.011719-.734375 0-26.023437 21.097656-47.121093 47.125-47.121093 11.082031 0 21.257812 3.824218 29.304687 10.222656 4.398438 3.503906 10.808594 2.433594 13.867188-2.28125 13.75-21.207032 37.988281-34.988282 65.375-33.957032 39.085937 1.464844 70.671875 33.515626 71.601562 72.621094.191406 7.894532-.859375 15.515625-2.960937 22.691406zm0 0" fill="#d9e9ff"/><path d="m502.519531 390.207031v-81.816406c0-37.570313-30.566406-68.136719-68.136719-68.136719h-66.976562c-29.226562 0-53-23.773437-53-53v-66.542968c0-4.179688-3.390625-7.570313-7.570312-7.570313-4.179688 0-7.570313 3.390625-7.570313 7.570313v66.542968c0 21.382813 9.902344 40.5 25.359375 53h-32.03125c-29.226562 0-52.996094-23.773437-52.996094-53v-172.113281h40.265625c10.699219 0 19.402344 8.703125 19.402344 19.402344v55.886719c0 4.1875 3.390625 7.570312 7.570313 7.570312 4.179687 0 7.570312-3.382812 7.570312-7.570312v-55.886719c0-19.046875-15.492188-34.542969-34.542969-34.542969h-245.308593c-19.050782 0-34.554688 15.496094-34.554688 34.542969v92.519531c0 4.179688 3.390625 7.570312 7.570312 7.570312 4.191407 0 7.570313-3.390624 7.570313-7.570312v-92.519531c0-10.699219 8.714844-19.402344 19.414063-19.402344h40.265624v172.113281c0 21.382813 9.902344 40.5 25.359376 53h-32.039063c-29.226563 0-53-23.773437-53-53v-29.910156c0-4.1875-3.378906-7.570312-7.570313-7.570312-4.179687 0-7.570312 3.382812-7.570312 7.570312v29.910156c0 37.574219 30.566406 68.140625 68.140625 68.140625h66.976563c29.222656 0 52.996093 23.773438 52.996093 52.996094v125.992187c-13.03125 6.671876-21.976562 20.238282-21.976562 35.867188 0 22.195312 18.070312 40.265625 40.269531 40.265625 244.5625 0 232.175781 1.496094 249.164062-4.078125 3.976563-1.3125 6.136719-5.582031 4.835938-9.558594-1.300781-3.976562-5.582031-6.136718-9.558594-4.835937-13.9375 4.589843-1.769531 3.332031-244.441406 3.332031-13.851562 0-25.125-11.277344-25.125-25.125 0-13.949219 11.375-25.125 25.125-25.125h71.894531c4.867188 0 8.449219-4.53125 7.386719-9.238281-9.167969-40.824219 44.027344-66.65625 70.015625-32.695313 3.480469 4.558594 10.617187 3.75 12.953125-1.554687 21.722656-49.542969 90.574219-54.421875 118.722656-7.472657 16.582032 27.660157 10.917969 63.179688-13.113281 84.433594-3.128906 2.765625-3.421875 7.550782-.644531 10.679688 2.765625 3.140625 7.550781 3.421875 10.679687.65625 28.460938-25.179688 35.808594-66.539063 18.21875-99.726563zm-337.746093-375.066406h59.679687v172.113281c0 21.382813 9.902344 40.492188 25.359375 53h-32.039062c-29.226563 0-53-23.773437-53-53zm-21.8125 225.113281c-29.226563 0-52.996094-23.773437-52.996094-53v-172.113281h59.667968v172.113281c0 21.382813 9.902344 40.492188 25.359376 53zm119.964843 189.726563c-61.332031 0-57.449219-.050781-59.671875.121093v-121.710937c0-21.378906-9.902344-40.488281-25.355468-52.996094h32.03125c29.222656 0 52.996093 23.773438 52.996093 52.996094zm74.820313-55.832031c-22.773438-5.773438-46.882813 3.621093-59.679688 23.792968v-89.550781c0-21.378906-9.902344-40.5-25.355468-52.996094h32.039062c29.222656 0 52.996094 23.773438 52.996094 52.996094zm74.8125-25.875c-21.804688 4.734374-40.894532 18.210937-52.625 37.421874-2.21875-1.917968-4.570313-3.644531-7.046875-5.167968v-72.136719c0-21.378906-9.902344-40.5-25.355469-52.996094h32.03125c29.222656 0 52.996094 23.773438 52.996094 52.996094zm74.820312 21.65625c-15.59375-15.320313-36.855468-24.097657-59.679687-23.480469v-38.058594c0-21.378906-9.902344-40.488281-25.355469-52.996094h32.039062c29.214844 0 52.996094 23.773438 52.996094 52.996094zm0 0"/></svg>