<svg height="511pt" viewBox="-38 0 511 511.99999" width="511pt" xmlns="http://www.w3.org/2000/svg"><path d="m82.65625 151.171875c-41.214844 0-74.625 33.410156-74.625 74.625v128.453125c0 77.667969 59.324219 141.476562 135.128906 148.59375 7.582032.710938 14.121094-5.285156 14.121094-12.894531v-264.152344c0-41.214844-33.410156-74.625-74.625-74.625zm0 0" fill="#954c35"/><path d="m354.296875 151.171875c41.214844 0 74.628906 33.410156 74.628906 74.625v128.453125c0 77.667969-59.324219 141.476562-135.132812 148.59375-7.578125.710938-14.121094-5.285156-14.121094-12.894531v-264.152344c0-41.214844 33.410156-74.625 74.625-74.625zm0 0" fill="#954c35"/><path d="m218.476562 149.707031 143.777344 2.949219v180.820312c0 34.933594-15.121094 68.152344-41.464844 91.089844l-83.785156 72.960938c-10.621094 9.25-26.433594 9.25-37.050781 0l-83.785156-72.960938c-26.34375-22.9375-41.464844-56.160156-41.464844-91.089844v-180.820312zm0 0" fill="#c0694e"/><path d="m235.097656 497.527344c.3125.273437.632813.53125.953125.792968-10.59375 8.445313-25.789062 8.1875-36.101562-.792968l-83.78125-72.957032c-26.34375-22.9375-41.464844-56.164062-41.464844-91.09375v-180.820312l35.148437-.722656v181.542968c0 34.929688 15.121094 68.15625 41.464844 91.09375zm0 0" fill="#ae583e"/><path d="m389.226562 160.210938c0-.003907 0-.003907 0-.003907l.003907.003907v-145.253907c0-4.101562-3.324219-7.425781-7.425781-7.425781-25.960938 0-47.003907 21.046875-47.003907 47.003906v26.945313c-37.183593-15.902344-80.429687-4.777344-105.496093 27.375-5.492188 7.050781-16.160157 7.050781-21.65625 0-25.066407-32.152344-68.308594-43.277344-105.492188-27.375v-26.945313c0-25.960937-21.042969-47.003906-47.003906-47.003906-4.101563 0-7.425782 3.324219-7.425782 7.425781v145.253907c-1.972656 50.914062 38.875 92.96875 89.363282 92.96875 28.582031 0 54.074218-13.480469 70.457031-34.410157 5.589844-7.144531 16.273437-7.144531 21.863281 0 16.382813 20.929688 41.871094 34.410157 70.453125 34.410157 50.488281 0 91.339844-42.054688 89.363281-92.96875zm0 0" fill="#c97e67"/><g fill="#fed22b"><path d="m190.640625 163.746094c0 29.574218-23.976563 53.546875-53.550781 53.546875-29.574219 0-53.550782-23.972657-53.550782-53.546875 0-29.574219 23.976563-53.550782 53.550782-53.550782 29.574218 0 53.550781 23.976563 53.550781 53.550782zm0 0"/><path d="m353.414062 163.746094c0 29.574218-23.976562 53.546875-53.550781 53.546875s-53.546875-23.972657-53.546875-53.546875c0-29.574219 23.972656-53.550782 53.546875-53.550782s53.550781 23.976563 53.550781 53.550782zm0 0"/><path d="m224.554688 196.625 17.089843 33.511719c.824219 1.621093.96875 3.5.402344 5.226562l-14.089844 42.957031c-3.003906 9.15625-15.957031 9.15625-18.960937 0l-14.089844-42.957031c-.566406-1.726562-.421875-3.605469.40625-5.226562l17.085938-33.511719c2.53125-4.964844 9.625-4.964844 12.15625 0zm0 0"/></g><path d="m154.667969 214.347656c-5.503907 1.90625-11.417969 2.949219-17.574219 2.949219-29.574219 0-53.554688-23.980469-53.554688-53.554687 0-29.574219 23.980469-53.542969 53.554688-53.542969 6.15625 0 12.070312 1.042969 17.574219 2.949219-20.945313 7.273437-35.980469 27.175781-35.980469 50.59375 0 23.417968 15.035156 43.324218 35.980469 50.605468zm0 0" fill="#fdc202"/><path d="m317.433594 214.347656c-5.503906 1.90625-11.417969 2.949219-17.574219 2.949219-29.574219 0-53.542969-23.980469-53.542969-53.554687 0-29.574219 23.96875-53.542969 53.542969-53.542969 6.15625 0 12.070313 1.042969 17.574219 2.949219-20.949219 7.273437-35.972656 27.175781-35.972656 50.59375 0 23.417968 15.023437 43.324218 35.972656 50.605468zm0 0" fill="#fdc202"/><path d="m436.453125 225.792969c0-29.773438-15.921875-55.890625-39.691406-70.296875v-140.539063c0-8.246093-6.710938-14.957031-14.957031-14.957031-30.074219 0-54.539063 24.464844-54.539063 54.535156v16.238282c-36.96875-10.988282-78.46875.832031-103.898437 33.449218-2.488282 3.183594-7.289063 3.191406-9.78125 0-25.421876-32.605468-66.910157-44.441406-103.898438-33.449218v-16.238282c0-30.070312-24.464844-54.535156-54.535156-54.535156-8.246094 0-14.957032 6.710938-14.957032 14.957031v140.539063c-23.773437 14.40625-39.695312 40.523437-39.695312 70.296875v128.460937c0 81.335938 62.074219 148.601563 141.957031 156.089844 5.609375.53125 11.351563-1.316406 15.65625-5.242188 8.128907-7.398437 6.699219-15.738281 6.699219-28.191406l30.195312 26.300782c12.238282 10.652343 30.164063 11.75 43.585938 2.59375 3.433594-2.339844 4.316406-7.03125 1.976562-10.464844-2.339843-3.445313-7.03125-4.328125-10.464843-1.980469-7.785157 5.308594-18.148438 4.628906-25.207031-1.503906-73.34375-63.863281-44.371094-38.636719-83.789063-72.96875-24.707031-21.511719-38.875-52.640625-38.875-85.410157v-89.738281c12.691406 8.71875 27.625 14.503907 43.875 16.351563 4.117187.460937 7.863281-2.5 8.324219-6.640625.472656-4.125-2.5-7.863281-6.628906-8.324219-47.960938-5.433594-80.339844-50.773438-71.058594-97.296875 13.710937-68.9375 101.902344-89.570313 144.960937-34.347656 8.507813 10.929687 25.027344 10.925781 33.539063.011719 43.394531-55.695313 131.425781-33.726563 144.960937 34.335937 10.0625 50.421875-28.765625 97.820313-80.347656 97.820313-18.839844 0-36.671875-6.355469-51.023437-17.855469-.347657-.890625.699218 1.242187-17.574219-34.585938-5.316407-10.4375-20.253907-10.433593-25.566407 0-18.371093 36.015625-17.25 33.742188-17.546874 34.515625-9.617188 7.683594-20.875 13.164063-32.925782 15.898438-4.046875.921875-6.597656 4.960937-5.675781 9.015625.925781 4.058593 4.953125 6.589843 9.007813 5.675781 11.257812-2.550781 21.941406-7.132812 31.542968-13.429688l11.738282 35.78125c5.273437 16.085938 28.019531 16.050782 33.28125 0l11.71875-35.730468c32.363281 21.246094 75.179687 21.269531 107.886718-1.273438v89.816406c0 32.769532-14.171875 63.898438-38.886718 85.410157-61.699219 53.738281-19.425782 16.929687-63.585938 55.382812-3.144531 2.730469-3.464844 7.492188-.734375 10.625 2.746094 3.152344 7.527344 3.441407 10.625.734375l10.003906-8.707031v13.023437c0 11.929688 10.214844 21.519532 22.351563 20.398438 63.71875-5.96875 116.222656-50.003906 134.769531-109.03125 1.253906-3.964844-.953125-8.195312-4.921875-9.449219-3.964844-1.246093-8.195312.964844-9.449219 4.929688-17.132812 54.53125-64.945312 93.214843-121.804687 98.554687-3.191406.300782-5.882813-2.238281-5.882813-5.402344v-26.148437l38.53125-33.550781c27.988281-24.375 44.046875-59.640625 44.046875-96.769532v-102.609374c14.609375-15.226563 24.320313-35.191407 26.550782-57.324219 15.273437 12.3125 25.054687 31.164062 25.054687 52.25 0 140.960937.269531 133.164062-.742187 143.035156-.421876 4.136719 2.589843 7.839844 6.726562 8.261719 4.535156.351562 7.867188-2.867188 8.265625-6.726563 1.109375-10.855469.8125-4.09375.8125-144.570312zm-369.28125 5.171875v102.511718c0 37.128907 16.054687 72.394532 44.042969 96.769532l38.535156 33.550781c0 28.179687.589844 28.011719-1.78125 30.167969-.652344.601562-2.058594 1.574218-4.105469 1.382812-73.148437-6.867187-128.300781-67.523437-128.300781-141.09375v-128.460937c0-21.085938 9.792969-39.945313 25.066406-52.25 2.210938 22.113281 11.859375 42.160156 26.542969 57.421875zm27.453125-154.3125c-16.125 7.929687-29.757812 20.222656-39.367188 35.300781v-96.890625c21.71875.058594 39.367188 17.742188 39.367188 39.472656zm287.074219 35.300781c-9.609375-15.074219-23.246094-27.371094-39.371094-35.300781v-22.117188c0-21.726562 17.652344-39.414062 39.371094-39.472656zm-163.222657 165.699219c-2.5 0-1.078124 1.894531-16.316406-44.355469 16.019532-31.414063 13.195313-25.878906 16.316406-32.015625 3.121094 6.132812.304688.609375 16.320313 32.015625-15.082031 45.496094-13.671875 44.355469-16.320313 44.355469zm0 0"/><path d="m198.171875 163.746094c0-33.679688-27.402344-61.082032-61.082031-61.082032-33.679688 0-61.082032 27.402344-61.082032 61.082032 0 33.679687 27.402344 61.082031 61.082032 61.082031 33.679687 0 61.082031-27.402344 61.082031-61.082031zm-61.082031 46.015625c-25.375 0-46.019532-20.644531-46.019532-46.015625 0-25.375 20.644532-46.015625 46.019532-46.015625s46.019531 20.640625 46.019531 46.015625c0 25.371094-20.644531 46.015625-46.019531 46.015625zm0 0"/><path d="m151.128906 163.746094c0 7.753906-6.285156 14.039062-14.039062 14.039062s-14.039063-6.285156-14.039063-14.039062 6.285157-14.039063 14.039063-14.039063 14.039062 6.285157 14.039062 14.039063zm0 0"/><path d="m299.863281 224.828125c33.679688 0 61.082031-27.402344 61.082031-61.082031 0-33.679688-27.402343-61.082032-61.082031-61.082032-33.679687 0-61.082031 27.402344-61.082031 61.082032 0 33.679687 27.402344 61.082031 61.082031 61.082031zm0-107.101563c25.375 0 46.019531 20.644532 46.019531 46.019532 0 25.371094-20.644531 46.015625-46.019531 46.015625s-46.015625-20.644531-46.015625-46.015625c0-25.375 20.640625-46.019532 46.015625-46.019532zm0 0"/><path d="m313.902344 163.746094c0 7.753906-6.285156 14.039062-14.039063 14.039062-7.753906 0-14.039062-6.285156-14.039062-14.039062s6.285156-14.039063 14.039062-14.039063c7.753907 0 14.039063 6.285157 14.039063 14.039063zm0 0"/><path d="m239.671875 368.101562c0-4.160156-3.371094-7.53125-7.53125-7.53125-16.382813 0-5.597656 40.507813 25.445313 40.507813 31.0625 0 41.820312-40.507813 25.445312-40.507813-4.160156 0-7.53125 3.371094-7.53125 7.53125 0 9.875-8.039062 17.914063-17.914062 17.914063s-17.914063-8.039063-17.914063-17.914063zm0 0"/><path d="m179.367188 401.078125c31.0625 0 41.824218-40.507813 25.445312-40.507813-4.160156 0-7.53125 3.371094-7.53125 7.53125 0 9.875-8.035156 17.914063-17.914062 17.914063-9.875 0-17.910157-8.039063-17.910157-17.914063 0-4.160156-3.375-7.53125-7.535156-7.53125-16.382813 0-5.597656 40.507813 25.445313 40.507813zm0 0"/><path d="m296.695312 338.925781c31.0625 0 41.824219-40.507812 25.445313-40.507812-4.160156 0-7.53125 3.371093-7.53125 7.53125 0 9.878906-8.039063 17.914062-17.914063 17.914062s-17.910156-8.035156-17.910156-17.914062c0-4.160157-3.375-7.53125-7.535156-7.53125-16.382812 0-5.597656 40.507812 25.445312 40.507812zm0 0"/><path d="m243.921875 298.417969c-4.160156 0-7.53125 3.371093-7.53125 7.53125 0 9.878906-8.035156 17.914062-17.914063 17.914062-9.875 0-17.910156-8.035156-17.910156-17.914062 0-4.160157-3.375-7.53125-7.53125-7.53125-4.160156 0-7.535156 3.371093-7.535156 7.53125 0 18.183593 14.796875 32.976562 32.976562 32.976562 31.0625 0 41.820313-40.507812 25.445313-40.507812zm0 0"/><path d="m218.476562 458.261719c31.0625 0 41.824219-40.507813 25.445313-40.507813-4.160156 0-7.53125 3.371094-7.53125 7.53125 0 9.878906-8.035156 17.914063-17.914063 17.914063-9.875 0-17.910156-8.035157-17.910156-17.914063 0-4.160156-3.375-7.53125-7.53125-7.53125-16.386718 0-5.601562 40.507813 25.441406 40.507813zm0 0"/><path d="m122.347656 305.949219c0-4.160157-3.375-7.53125-7.535156-7.53125-16.382812 0-5.597656 40.507812 25.445312 40.507812 31.0625 0 41.824219-40.507812 25.445313-40.507812-4.160156 0-7.53125 3.371093-7.53125 7.53125 0 9.878906-8.035156 17.914062-17.914063 17.914062-9.875 0-17.910156-8.035156-17.910156-17.914062zm0 0"/></svg>