<svg height="512pt" viewBox="0 -1 512 512" width="512pt" xmlns="http://www.w3.org/2000/svg"><g fill="#f0a70a"><path d="m256 462.929688v30.550781c0 5.503906 4.460938 9.964843 9.964844 9.964843h137.25c6.453125 0 11.203125-6.042968 9.683594-12.316406l-48.453126-199.519531h-109.480468zm0 0"/><path d="m175.726562 49.773438h21.695313v123.773437h-21.695313zm0 0"/><path d="m216.277344 37.246094c0 16.40625-13.300782 29.707031-29.707032 29.707031s-29.707031-13.300781-29.707031-29.707031 13.300781-29.707032 29.707031-29.707032 29.707032 13.300782 29.707032 29.707032zm0 0"/><path d="m314.578125 49.773438h21.695313v123.773437h-21.695313zm0 0"/><path d="m355.136719 37.246094c0 16.40625-13.300781 29.707031-29.707031 29.707031s-29.707032-13.300781-29.707032-29.707031 13.300782-29.707032 29.707032-29.707032 29.707031 13.300782 29.707031 29.707032zm0 0"/><path d="m282.0625 111.660156h212.238281c5.613281 0 10.160157 4.550782 10.160157 10.160156 0 40.785157-33.0625 73.847657-73.847657 73.847657h-148.550781zm0 0"/><path d="m229.9375 111.660156h-212.238281c-5.613281 0-10.160157 4.550782-10.160157 10.160156 0 40.785157 33.0625 73.847657 73.847657 73.847657h148.550781zm0 0"/></g><path d="m385.75 221.226562-36.210938 119.625-2.332031 7.710938-17.980469 59.390625c-11.957031 33.125-41.832031 54.976563-75.15625 54.976563-34 0-64.328124-22.738282-75.800781-56.828126l-15.878906-56.3125-2-7.097656-34.753906-123.203125c-17.679688-52.523437 18.886719-107.828125 71.277343-107.828125h118.164063c53.132813 0 89.746094 56.753906 70.671875 109.566406zm0 0" fill="#fed22b"/><path d="m271.675781 460.855469c-39.578125 9.421875-79.667969-13.9375-93.40625-54.753907l-15.878906-56.3125-2-7.097656-34.753906-123.203125c-17.679688-52.523437 18.886719-107.828125 71.277343-107.828125h35.195313c-52.390625 0-88.957031 55.304688-71.277344 107.828125l34.753907 123.203125 2 7.097656 15.878906 56.3125c9.441406 28.066407 31.675781 48.441407 58.210937 54.753907zm0 0" fill="#fdc202"/><path d="m349.539062 340.851562-2.332031 7.710938-17.980469 59.390625c-11.957031 33.125-41.832031 54.976563-75.15625 54.976563-34 0-64.328124-22.738282-75.800781-56.828126l-15.878906-56.3125-2-7.097656c25.25-22.96875 58.785156-36.964844 95.609375-36.964844 35.820312 0 68.539062 13.253907 93.539062 35.125zm0 0" fill="#ffe5a0"/><path d="m271.675781 460.855469c-.007812 0-.019531.011719-.027343.011719-.695313.160156-1.390626.320312-2.09375.460937-1.003907.335937-9.007813 1.578125-13.867188 1.578125-35.484375.675781-66.007812-22.894531-77.417969-56.804688l-15.878906-56.3125-2-7.097656c8.847656-8.046875 18.710937-14.992187 29.382813-20.613281l5.8125 20.613281 2 7.097656 15.878906 56.3125c9.441406 28.066407 31.675781 48.441407 58.210937 54.753907zm0 0" fill="#ffdd81"/><path d="m271.675781 460.855469c-.007812 0-.019531.011719-.027343.011719-.695313.160156-1.390626.320312-2.09375.460937-1.003907.335937-9.007813 1.578125-13.867188 1.578125-35.484375.675781-66.007812-22.894531-77.417969-56.804688l-15.878906-56.3125-2-7.097656c8.847656-8.046875 18.710937-14.992187 29.382813-20.613281l5.8125 20.613281 2 7.097656 15.878906 56.3125c9.441406 28.066407 31.675781 48.441407 58.210937 54.753907zm0 0" fill="#ffdd81"/><path d="m207.996094 220.472656c0-10.375-8.417969-18.789062-18.804688-18.789062-10.386718 0-18.804687 8.414062-18.804687 18.789062 0 10.378906 8.417969 18.789063 18.804687 18.789063 10.386719 0 18.804688-8.410157 18.804688-18.789063zm0 0"/><path d="m341.613281 220.472656c0-10.375-8.417969-18.789062-18.804687-18.789062-10.382813 0-18.804688 8.414062-18.804688 18.789062 0 10.378906 8.421875 18.789063 18.804688 18.789063 10.386718 0 18.804687-8.410157 18.804687-18.789063zm0 0"/><path d="m218.871094 376.183594c-4.167969 0-7.542969 3.375-7.542969 7.539062v23.488282c0 4.167968 3.375 7.542968 7.542969 7.542968 4.164062 0 7.539062-3.375 7.539062-7.542968v-23.488282c0-4.164062-3.375-7.539062-7.539062-7.539062zm0 0"/><path d="m293.128906 414.753906c4.167969 0 7.542969-3.375 7.542969-7.542968v-23.488282c0-4.164062-3.375-7.539062-7.542969-7.539062-4.164062 0-7.539062 3.375-7.539062 7.539062v23.488282c0 4.167968 3.375 7.542968 7.539062 7.542968zm0 0"/><path d="m494.300781 104.117188h-150.484375v-34.480469c11.253906-6.417969 18.855469-18.535157 18.855469-32.390625 0-20.535156-16.703125-37.246094-37.246094-37.246094-20.535156 0-37.246093 16.710938-37.246093 37.246094 0 13.855468 7.609374 25.972656 18.863281 32.390625v34.480469c-10.703125 0-85.097657 0-102.085938 0v-34.480469c11.253907-6.417969 18.863281-18.535157 18.863281-32.390625 0-20.535156-16.710937-37.246094-37.246093-37.246094-20.542969 0-37.246094 16.710938-37.246094 37.246094 0 13.855468 7.601563 25.972656 18.855469 32.390625v34.480469h-150.484375c-9.765625 0-17.699219 7.945312-17.699219 17.707031 0 44.871093 36.511719 81.382812 81.382812 81.382812h32.871094c1.105469 9.160157 1.105469 7.628907 16.734375 63.007813 1.125 4.015625 5.289063 6.335937 9.300781 5.210937 4.011719-1.125 6.34375-5.300781 5.207032-9.300781-.097656-.351562-12.59375-44.695312-12.710938-45.039062-12.269531-36.570313 3.984375-75.445313 35.398438-91.085938 18.144531-9.09375 20.347656-6.796875 146.894531-6.796875 47.6875 0 80.996094 51.332031 63.582031 99.460937-.109375.28125-33.011718 108.996094-33.097656 109.285157-53.785156-40.207031-127.925781-39.648438-181.078125 1.476562l-10.792969-38.269531c-1.136718-4.003906-5.296875-6.335938-9.308594-5.210938-4.003906 1.128907-6.335937 5.300782-5.210937 9.300782 31.246094 110.800781 30.492187 111.613281 35.992187 123.355468 13.601563 29.042969 41.191407 49.484376 73.292969 51.660157v23.21875c0 9.652343 7.851563 17.503906 17.503907 17.503906h137.253906c9.652344 0 17.507812-7.84375 17.507812-17.484375 0-2.945312.730469.910156-14.648437-62.414062-.980469-4.046876-5.066407-6.53125-9.105469-5.550782-4.050781.984375-6.535156 5.0625-5.550781 9.109375l14.148437 58.261719c.363282 1.496094-.738281 2.996094-2.355468 2.996094h-137.25c-1.332032 0-2.417969-1.085938-2.417969-2.421875v-23.554688c37.1875-4.21875 64.644531-32.949219 72.902343-59.789062l27.199219-89.859375 20.65625 85.054687c.835938 3.449219 3.921875 5.761719 7.324219 5.761719 4.894531 0 8.484375-4.585938 7.332031-9.320312l-26.699219-109.945313c24.789063-81.898437 24.257813-78.433594 25.488282-88.621094h25.167968c4.164063 0 7.542969-3.367187 7.542969-7.539062 0-4.164063-3.378906-7.542969-7.542969-7.542969h-24.59375c-1.238281-28.660156-15.496093-53.789062-36.652343-68.921875h132.632812c1.449219 0 2.617188 1.175781 2.617188 2.625 0 29.140625-18.664063 54.570313-46.4375 63.28125-3.984375 1.246094-6.195313 5.46875-4.949219 9.449219 1.246094 3.972656 5.480469 6.1875 9.453125 4.9375 34.109375-10.6875 57.015625-41.910156 57.015625-77.667969 0-9.765625-7.933594-17.710937-17.699219-17.710937zm-380.621093 84.007812h-32.296876c-36.554687 0-66.300781-29.746094-66.300781-66.300781 0-1.445313 1.167969-2.621094 2.617188-2.621094h132.632812c-21.164062 15.132813-35.425781 40.261719-36.652343 68.921875zm76.195312-84.007812h-6.609375v-29.773438c2.136719.195312 4.398437.203125 6.609375 0zm-21.683594-54.503907c-9.875-14.601562.628906-34.53125 18.382813-34.53125 12.21875 0 22.164062 9.945313 22.164062 22.164063 0 21.625-28.289062 30.589844-40.546875 12.367187zm160.542969 54.503907h-6.609375v-29.773438c2.210938.203125 4.472656.195312 6.609375 0zm-21.679687-54.480469c-9.890626-14.625.625-34.554688 18.371093-34.554688 12.226563 0 22.164063 9.945313 22.164063 22.164063 0 21.652344-28.253906 30.558594-40.535156 12.390625zm15.011718 355.933593c-8.351562 22.96875-26.488281 40.109376-48.027344 46.769532-37.195312 11.496094-75.703124-10.539063-88.558593-48.46875l-16.542969-58.652344c49.667969-42.171875 122.03125-42.40625 171.945312-1.804688zm0 0"/></svg>