<svg height="512pt" viewBox="0 -44 512 512" width="512pt" xmlns="http://www.w3.org/2000/svg"><path d="m375.03125 243.898438c0 28.15625-9.78125 54.027343-26.132812 74.410156-18.609376-3.726563-20.746094-23.347656-43.222657-23.347656-24.847656 0-24.847656 23.964843-49.6875 23.964843-24.835937 0-24.835937-23.964843-49.671875-23.964843-22.480468 0-24.617187 19.621093-43.226562 23.347656-16.339844-20.382813-26.121094-46.253906-26.121094-74.410156 0-65.742188 53.289062-119.042969 119.03125-119.042969s119.03125 53.300781 119.03125 119.042969zm0 0" fill="#fa9084"/><path d="m172.40625 253.507812c0 18.539063 3.574219 36.246094 10.074219 52.457032-5.375 5.164062-10.511719 10.5625-19.390625 12.34375-16.339844-20.382813-26.121094-46.253906-26.121094-74.410156 0-65.519532 52.933594-118.6875 118.371094-119.03125-48.914063 22.183593-82.933594 71.433593-82.933594 128.640624zm0 0" fill="#f87b67"/><path d="m7.597656 302.554688c20.339844 0 21.464844 23.964843 49.671875 23.964843 28.25 0 29.3125-23.964843 49.6875-23.964843 20.492188 0 21.386719 23.964843 49.671875 23.964843 27.949219 0 29.769532-23.964843 49.6875-23.964843 20.335938 0 21.46875 23.964843 49.671875 23.964843 28.25 0 29.3125-23.964843 49.6875-23.964843 20.410157 0 21.371094 23.964843 49.671875 23.964843 28.074219 0 29.515625-23.964843 49.683594-23.964843 20.347656 0 21.480469 23.964843 49.6875 23.964843 28.269531 0 29.3125-23.964843 49.683594-23.964843 4.195312 0 7.59375-3.398438 7.59375-7.59375 0-4.195313-3.398438-7.59375-7.59375-7.59375-28.261719 0-29.304688 23.964843-49.683594 23.964843-20.335938 0-21.476562-23.964843-49.6875-23.964843-23.453125 0-29.296875 17.359374-40.84375 22.3125 15.875-26.144532 21.898438-57.382813 16.507812-87.929688-.730468-4.128906-4.671874-6.890625-8.800781-6.15625-4.128906.730469-6.886719 4.667969-6.15625 8.796875 5.089844 28.863281-1.023437 59.632813-19.640625 85.089844-11.148437-5.097657-17.339844-22.113281-40.421875-22.113281-28.265625 0-29.320312 23.964843-49.6875 23.964843-20.339843 0-21.464843-23.964843-49.671875-23.964843-23.082031 0-29.28125 17.019531-40.421875 22.113281-6.128906-8.40625-11.03125-17.578125-14.597656-27.335938-1.4375-3.9375-5.800781-5.964843-9.738281-4.523437-3.941406 1.4375-5.964844 5.796875-4.527344 9.738281 2.851562 7.792969 6.460938 15.253906 10.765625 22.316406-11.523437-4.941406-17.414063-22.308593-40.84375-22.308593-28.261719 0-29.316406 23.964843-49.683594 23.964843-20.335937 0-21.46875-23.964843-49.671875-23.964843-4.195312 0-7.59374975 3.398437-7.59374975 7.59375 0 4.195312 3.39843775 7.59375 7.59374975 7.59375zm0 0"/><path d="m7.59375 350.992188c20.339844 0 21.472656 23.96875 49.679688 23.96875 28.175781 0 29.359374-23.96875 49.679687-23.96875 20.34375 0 21.46875 23.96875 49.679687 23.96875 28.175782 0 29.359376-23.96875 49.679688-23.96875 20.339844 0 21.472656 23.96875 49.679688 23.96875 28.238281 0 29.320312-23.96875 49.675781-23.96875 20.347656 0 21.472656 23.96875 49.683593 23.96875 28.175782 0 29.359376-23.96875 49.679688-23.96875 20.34375 0 21.472656 23.96875 49.6875 23.96875 28.234375 0 29.328125-23.96875 49.683594-23.96875 4.195312 0 7.59375-3.398438 7.59375-7.59375 0-4.195313-3.398438-7.59375-7.59375-7.59375-28.234375 0-29.328125 23.96875-49.683594 23.96875-20.347656 0-21.476562-23.96875-49.6875-23.96875-28.238281 0-29.324219 23.96875-49.679688 23.96875-20.347656 0-21.464843-23.96875-49.683593-23.96875-28.238281 0-29.320313 23.96875-49.675781 23.96875-20.34375 0-21.46875-23.96875-49.679688-23.96875-28.234375 0-29.324219 23.96875-49.679688 23.96875-20.34375 0-21.46875-23.96875-49.679687-23.96875-28.238281 0-29.324219 23.96875-49.679687 23.96875-20.34375 0-21.464844-23.96875-49.679688-23.96875-4.195312 0-7.59375 3.398437-7.59375 7.59375 0 4.195312 3.398438 7.59375 7.59375 7.59375zm0 0"/><path d="m504.40625 384.246094c-28.234375 0-29.328125 23.96875-49.6875 23.96875-20.34375 0-21.476562-23.96875-49.6875-23.96875-28.175781 0-29.355469 23.96875-49.679688 23.96875-20.339843 0-21.472656-23.96875-49.679687-23.96875-28.238281 0-29.320313 23.96875-49.679687 23.96875-20.339844 0-21.464844-23.96875-49.675782-23.96875-28.179687 0-29.359375 23.96875-49.683594 23.96875-20.339843 0-21.46875-23.96875-49.675781-23.96875-28.242187 0-29.324219 23.96875-49.679687 23.96875-20.34375 0-21.472656-23.96875-49.679688-23.96875-4.195312 0-7.59374975 3.398437-7.59374975 7.59375 0 4.195312 3.39843775 7.59375 7.59374975 7.59375 20.34375 0 21.460938 23.96875 49.679688 23.96875 28.175781 0 29.355468-23.96875 49.679687-23.96875 20.339844 0 21.464844 23.96875 49.675781 23.96875 28.238282 0 29.328126-23.96875 49.683594-23.96875 20.34375 0 21.460938 23.96875 49.675782 23.96875 28.238281 0 29.324218-23.96875 49.679687-23.96875 20.34375 0 21.46875 23.96875 49.679687 23.96875 28.238282 0 29.324219-23.96875 49.679688-23.96875 20.347656 0 21.472656 23.96875 49.6875 23.96875 28.234375 0 29.328125-23.96875 49.6875-23.96875 4.195312 0 7.59375-3.398438 7.59375-7.59375 0-4.195313-3.398438-7.59375-7.59375-7.59375zm0 0"/><path d="m256 52.320312c4.195312 0 7.59375-3.398437 7.59375-7.59375v-37.132812c0-4.195312-3.398438-7.59375-7.59375-7.59375s-7.59375 3.398438-7.59375 7.59375v37.132812c0 4.195313 3.398438 7.59375 7.59375 7.59375zm0 0"/><path d="m149.839844 75.207031c1.40625 2.4375 3.957031 3.800781 6.582031 3.800781 5.792969 0 9.503906-6.3125 6.570313-11.394531l-18.566407-32.15625c-2.097656-3.632812-6.742187-4.875-10.375-2.78125-3.628906 2.097657-4.875 6.742188-2.777343 10.375zm0 0"/><path d="m47.558594 132.320312 32.160156 18.570313c3.632812 2.09375 8.277344.851563 10.371094-2.78125 2.097656-3.632813.855468-8.277344-2.777344-10.371094l-32.160156-18.570312c-3.632813-2.09375-8.277344-.851563-10.371094 2.78125-2.097656 3.628906-.855469 8.273437 2.777344 10.371093zm0 0"/><path d="m19.699219 251.488281h37.132812c4.195313 0 7.59375-3.398437 7.59375-7.59375 0-4.195312-3.398437-7.59375-7.59375-7.59375h-37.132812c-4.195313 0-7.59375 3.398438-7.59375 7.59375 0 4.195313 3.398437 7.59375 7.59375 7.59375zm0 0"/><path d="m447.574219 243.894531c0 4.195313 3.398437 7.59375 7.59375 7.59375h37.132812c4.195313 0 7.59375-3.398437 7.59375-7.59375 0-4.195312-3.398437-7.59375-7.59375-7.59375h-37.132812c-4.195313 0-7.59375 3.398438-7.59375 7.59375zm0 0"/><path d="m428.492188 151.90625c2.789062 0 .878906.660156 35.949218-19.585938 3.628906-2.097656 4.875-6.742187 2.777344-10.371093-2.097656-3.636719-6.742188-4.875-10.371094-2.78125l-32.160156 18.566406c-6.710938 3.875-3.933594 14.171875 3.804688 14.171875zm0 0"/><path d="m351.789062 77.988281c3.632813 2.097657 8.277344.851563 10.371094-2.78125l18.566406-32.15625c2.097657-3.632812.851563-8.277343-2.777343-10.375-3.632813-2.097656-8.277344-.855469-10.375 2.78125l-18.566407 32.15625c-2.097656 3.632813-.851562 8.277344 2.78125 10.375zm0 0"/><path d="m138.210938 262.765625c4.175781-.394531 7.238281-4.097656 6.847656-8.273437-6.191406-65.777344 45.667968-122.042969 110.941406-122.042969 43.378906 0 83.132812 25.472656 101.28125 64.894531 1.753906 3.808594 6.265625 5.476562 10.074219 3.722656 3.808593-1.753906 5.476562-6.265625 3.722656-10.074218-20.621094-44.789063-65.789063-73.730469-115.078125-73.730469-74.226562 0-133.097656 64.007812-126.0625 138.65625.390625 4.15625 4.078125 7.238281 8.273438 6.847656zm0 0"/></svg>