<svg height="511pt" viewBox="0 -11 511.99696 511" width="511pt" xmlns="http://www.w3.org/2000/svg"><path d="m480.585938 251.402344c-6.703126 33.585937-21.953126 64.09375-43.40625 89.121094-4.902344 5.734374-10.136719 11.171874-15.65625 16.304687-4.445313 4.121094-9.070313 8.039063-13.878907 11.734375-.839843-.089844-1.703125-.140625-2.613281-.140625-20.515625 0-21.375 23.964844-49.683594 23.964844-28.210937 0-29.335937-23.964844-49.675781-23.964844-9.355469 0-13.648437 4.128906-19.570313 9.851563-6.523437 6.285156-14.632812 14.113281-30.113281 14.113281-28.210937 0-29.332031-23.964844-49.675781-23.964844-9.882812 0-15.21875 5.636719-21.324219 11.449219-4.402343-2.742188-8.695312-5.660156-12.867187-8.746094-15.230469-11.230469-28.796875-24.625-40.257813-39.710938-25.414062-33.457031-40.503906-75.222656-40.503906-120.351562v-90.75l31.796875 1.863281 31.679688-1.863281c0 49.097656 39.800781 92.441406 88.890624 92.441406h204.914063c20.410156 0 35.945313 18.621094 31.945313 38.648438zm0 0" fill="#766d78"/><path d="m437.175781 340.523438c-1.457031 1.703124-2.933593 3.375-4.453125 5.023437-3.574218 3.910156-7.320312 7.664063-11.199218 11.28125-.007813 0-.007813 0-.007813 0-4.4375 4.121094-9.0625 8.039063-13.875 11.734375-.839844-.089844-1.699219-.140625-2.609375-.140625-20.515625 0-21.375 23.964844-49.6875 23.964844-28.207031 0-29.332031-23.964844-49.671875-23.964844-9.355469 0-13.648437 4.128906-19.574219 9.851563-6.519531 6.285156-14.628906 14.113281-30.109375 14.113281-28.210937 0-29.335937-23.964844-49.675781-23.964844-9.882812 0-15.21875 5.636719-21.324219 11.449219-4.40625-2.742188-8.699219-5.660156-12.871093-8.746094-5.707032-4.214844-11.1875-8.730469-16.410157-13.527344-8.699219-7.988281-16.675781-16.757812-23.847656-26.183594 37.789063-19.460937 88.707031-31.390624 144.722656-31.390624 64.285157 0 121.867188 15.707031 160.59375 40.5zm0 0" fill="#ebe0da"/><path d="m201.097656 368.996094c-6.742187 1.589844-11.175781 6.179687-16.109375 10.875-4.402343-2.742188-8.695312-5.660156-12.867187-8.746094-15.230469-11.230469-28.796875-24.625-40.257813-39.710938-25.414062-33.457031-40.503906-75.222656-40.503906-120.351562v-90.75l31.796875 1.863281v88.886719c0 45.128906 15.085938 86.894531 40.5 120.351562 10.75 14.152344 23.347656 26.808594 37.441406 37.582032zm0 0" fill="#655e67"/><path d="m123.15625 122.175781s-12.609375-82.15625-84.230469-93.195312c-4.125-.636719-7.910156 2.417969-8.0625 6.59375-.886719 24.570312 3.410157 100.542969 92.292969 86.601562zm0 0" fill="#655e67"/><path d="m123.15625 122.175781s12.609375-82.15625 84.230469-93.195312c4.128906-.636719 7.914062 2.417969 8.0625 6.59375.890625 24.570312-3.410157 100.542969-92.292969 86.601562zm0 0" fill="#766d78"/><path d="m421.523438 337.246094c-.007813 0-.007813 0-.007813 0-4.335937-2.167969-9.609375-3.597656-16.484375-3.597656-28.128906 0-29.433594 23.96875-49.6875 23.96875-20.339844 0-21.464844-23.96875-49.671875-23.96875-15.492187 0-23.601563 7.839843-30.125 14.125-5.921875 5.710937-10.203125 9.84375-19.558594 9.84375-20.34375 0-21.46875-23.96875-49.675781-23.96875-13.78125 0-21.085938 5.703124-27.324219 11.539062-1.132812 1.066406-2.914062 1-3.960937-.152344-6.914063-7.59375-13.023438-15.339844-18.976563-24.355468-8.546875 3.25-16.625 6.84375-24.191406 10.734374 13.703125 18.035157 31.898437 35.230469 53.128906 48.457032 5.515625-5.234375 11.328125-11.449219 21.324219-11.449219 20.339844 0 21.464844 23.964844 49.675781 23.964844 15.480469 0 23.589844-7.828125 30.109375-14.113281 5.925782-5.722657 10.21875-9.851563 19.574219-9.851563 20.339844 0 21.464844 23.964844 49.671875 23.964844 28.3125 0 29.171875-23.964844 49.6875-23.964844.910156 0 1.769531.050781 2.609375.140625 4.8125-3.695312 9.4375-7.613281 13.875-11.734375h.007813c3.878906-3.617187 7.625-7.371094 11.199218-11.28125-3.21875-3.035156-6.703125-6.066406-11.199218-8.300781zm0 0" fill="#d8cecc"/><path d="m7.59375 368.421875c20.335938 0 21.464844 23.964844 49.675781 23.964844 28.195313 0 29.332031-23.964844 49.683594-23.964844 20.324219 0 21.464844 23.964844 49.675781 23.964844 28.230469 0 29.273438-23.964844 49.683594-23.964844 20.335938 0 21.460938 23.964844 49.675781 23.964844 28.195313 0 29.328125-23.964844 49.683594-23.964844 18.71875 0 20.421875 19.449219 42.566406 23.355469h.007813c24.007812 4.339844 34.8125-12.285156 42.78125-18.539063 3.179687-2.5 7.078125-4.816406 14.003906-4.816406 20.226562 0 21.5625 23.964844 49.683594 23.964844 28.210937 0 29.34375-23.964844 49.683594-23.964844 4.191406 0 7.59375-3.402344 7.59375-7.59375 0-4.195313-3.402344-7.59375-7.59375-7.59375-28.199219 0-29.332032 23.964844-49.683594 23.964844-13.167969 0-16.6875-8.519531-26.609375-16.128907 31.199219-29.570312 51.816406-67.539062 59.929687-108.179687 4.960938-24.789063-14.207031-47.730469-39.394531-47.730469h-163.816406c-4.191407 0-7.59375 3.394532-7.59375 7.59375 0 4.191406 3.402343 7.59375 7.59375 7.59375h163.816406c13.777344 0 24.976563 11.089844 24.976563 24.71875 0 8.65625-9.128907 49.292969-38.078126 85.535156-80.105468-47.390624-213.394531-51.023437-301.320312-8.816406-22.566406-31.753906-34.726562-69.003906-35.246094-108.128906-.046875-4.019531-3.261718-7.492188-7.695312-7.492188-4.191406.050782-7.542969 3.503907-7.492188 7.695313.890625 67.347656 33.960938 125.546875 81.550782 161.738281-2.429688 1.023438-5.214844 1.601563-8.707032 1.601563-20.09375 0-21.554687-23.964844-49.675781-23.964844-28.210937 0-29.34375 23.964844-49.683594 23.964844-20.261719 0-21.515625-23.964844-49.675781-23.964844-4.191406 0-7.59375 3.398437-7.59375 7.59375 0 4.191406 3.402344 7.59375 7.59375 7.59375zm136.105469-34.335937c82.9375-38.296876 206.960937-34.578126 281.703125 8.191406-4.371094 4.695312-10.488282 10.40625-12.128906 11.773437-10.648438-2.238281-22.027344-.320312-31.640626 7.261719-9.664062 7.570312-13.28125 15.886719-26.285156 15.886719-20.261718 0-21.515625-23.964844-49.675781-23.964844-28.210937 0-29.34375 23.964844-49.683594 23.964844-20.261719 0-21.515625-23.964844-49.675781-23.964844-14.296875 0-22.304688 6.671875-28.582031 12.644531-12.101563-8.800781-23.625-19.355468-34.03125-31.792968zm0 0"/><path d="m7.59375 416.859375c20.335938 0 21.464844 23.964844 49.675781 23.964844 28.269531 0 29.296875-23.964844 49.683594-23.964844 20.335937 0 21.464844 23.964844 49.675781 23.964844 28.269532 0 29.296875-23.964844 49.683594-23.964844 20.335938 0 21.460938 23.964844 49.675781 23.964844 28.269531 0 29.296875-23.964844 49.683594-23.964844 20.335937 0 21.460937 23.964844 49.671875 23.964844 28.273438 0 29.300781-23.964844 49.6875-23.964844 20.355469 0 21.464844 23.964844 49.683594 23.964844 28.269531 0 29.300781-23.964844 49.683594-23.964844 4.203124 0 7.59375-3.402344 7.59375-7.59375s-3.390626-7.59375-7.59375-7.59375c-28.195313 0-29.339844 23.964844-49.683594 23.964844-20.355469 0-21.46875-23.964844-49.683594-23.964844-28.273438 0-29.300781 23.964844-49.6875 23.964844-20.160156 0-21.625-23.964844-49.671875-23.964844-28.175781 0-29.378906 23.964844-49.683594 23.964844-9.347656 0-13.640625-4.128907-19.5625-9.851563-1.015625-.972656-7.222656-7.011718-10.1875-8.492187-7.410156-4.75-14.601562-5.296875-14.601562-5.296875-17.148438-2.183594-26.691407 5.34375-35.4375 13.789062-5.933594 5.722656-10.214844 9.851563-19.570313 9.851563-20.339844 0-21.464844-23.964844-49.675781-23.964844-28.269531 0-29.296875 23.964844-49.683594 23.964844-20.335937 0-21.464843-23.964844-49.675781-23.964844-4.203125 0-7.59375 3.402344-7.59375 7.59375s3.394531 7.59375 7.59375 7.59375zm0 0"/><path d="m504.402344 450.113281c-28.238282 0-29.324219 23.96875-49.683594 23.96875-20.351562 0-21.46875-23.96875-49.6875-23.96875-28.238281 0-29.324219 23.96875-49.679688 23.96875-20.339843 0-21.472656-23.96875-49.679687-23.96875-28.175781 0-29.359375 23.96875-49.679687 23.96875-20.34375 0-21.46875-23.96875-49.679688-23.96875-28.175781 0-29.359375 23.96875-49.679688 23.96875-20.34375 0-21.46875-23.96875-49.679687-23.96875-28.238281 0-29.324219 23.96875-49.679687 23.96875-20.339844 0-21.472657-23.96875-49.679688-23.96875-4.195312 0-7.59375 3.398438-7.59375 7.59375 0 4.195313 3.398438 7.59375 7.59375 7.59375 20.34375 0 21.464844 23.96875 49.679688 23.96875 28.175781 0 29.359374-23.96875 49.679687-23.96875 20.34375 0 21.46875 23.96875 49.679687 23.96875 28.234376 0 29.324219-23.96875 49.679688-23.96875 20.34375 0 21.464844 23.96875 49.679688 23.96875 28.238281 0 29.320312-23.96875 49.679687-23.96875 20.339844 0 21.472656 23.96875 49.679687 23.96875 28.234376 0 29.324219-23.96875 49.679688-23.96875 20.351562 0 21.46875 23.96875 49.6875 23.96875 28.234375 0 29.328125-23.96875 49.683594-23.96875 4.195312 0 7.59375-3.398437 7.59375-7.59375 0-4.195312-3.398438-7.59375-7.59375-7.59375zm0 0"/><path d="m83.765625 129.738281v53.644531c0 4.191407 3.402344 7.59375 7.59375 7.59375 4.195313 0 7.59375-3.402343 7.59375-7.59375v-51.914062h48.59375c3.878906 49.65625 45.53125 88.878906 96.179687 88.878906h10.722657c4.191406 0 7.59375-3.402344 7.59375-7.59375 0-4.199218-3.402344-7.59375-7.59375-7.59375h-10.722657c-42.859374 0-78.085937-33.339844-81.09375-75.441406 14.09375-2.746094 25.960938-8.75 35.46875-17.984375 30.863282-29.9375 24.644532-82.367187 24.359376-84.585937-.503907-4.019532-4.078126-6.933594-8.128907-6.609376-44.5 3.523438-75.234375 32.582032-91.175781 74.0625-15.875-41.296874-46.507812-70.523437-91.167969-74.0625-4.03125-.316406-7.625 2.589844-8.132812 6.609376-.28125 2.21875-6.5 54.648437 24.363281 84.585937 9.527344 9.253906 21.414062 15.269531 35.546875 18.003906zm124.105469-93.140625c.40625 14.324219-1.144532 45.652344-20.390625 64.285156-12.609375 12.210938-31.136719 17.171876-55.132813 14.820313 5.050782-19.550781 23.117188-70.519531 75.523438-79.105469zm-169.425782-.011718c40.535157 6.539062 65.4375 39.769531 75.535157 79.117187-24.007813 2.351563-42.535157-2.609375-55.140625-14.820313-19.257813-18.640624-20.808594-49.980468-20.394532-64.296874zm0 0"/><path d="m420.371094 262.386719c0 9.527343-7.722656 17.25-17.246094 17.25-9.527344 0-17.25-7.722657-17.25-17.25 0-9.527344 7.722656-17.25 17.25-17.25 9.523438 0 17.246094 7.722656 17.246094 17.25zm0 0"/><path d="m345.625 58.148438c4.195312 0 7.59375-3.402344 7.59375-7.597657v-19.199219c0-8.636718 7.027344-15.664062 15.667969-15.664062s15.667969 7.027344 15.667969 15.664062v146.855469c0 4.195313 3.398437 7.59375 7.59375 7.59375 4.195312 0 7.59375-3.398437 7.59375-7.59375v-146.855469c0-17.011718-13.84375-30.851562-30.855469-30.851562s-30.855469 13.839844-30.855469 30.851562v19.199219c0 4.195313 3.398438 7.597657 7.59375 7.597657zm0 0"/><path d="m427.183594 185.800781c4.195312 0 7.59375-3.398437 7.59375-7.59375v-99.050781c0-8.640625 7.027344-15.667969 15.667968-15.667969 8.636719 0 15.664063 7.027344 15.664063 15.667969v19.199219c0 4.195312 3.398437 7.59375 7.59375 7.59375s7.59375-3.398438 7.59375-7.59375v-19.199219c0-17.015625-13.839844-30.855469-30.851563-30.855469-17.015624 0-30.855468 13.839844-30.855468 30.855469v99.050781c0 4.195313 3.398437 7.59375 7.59375 7.59375zm0 0"/></svg>