<svg id="Capa_1" enable-background="new 0 0 512 512" height="512" viewBox="0 0 512 512" width="512" xmlns="http://www.w3.org/2000/svg"><g><g><path d="m387.823 455.564h-263.644l10-94.645h243.644z" fill="#a29cde"/><path d="m200.754 388.448c0-9.394.832-18.593 2.426-27.528h-69.002l-10 94.645h91.746c-9.722-20.325-15.17-43.084-15.17-67.117z" fill="#827cd2"/></g><g><circle cx="256.001" cy="192.399" fill="#a4e7ff" r="184.899"/><path d="m185.543 196.004c0-76.641 37.081-144.615 94.273-186.981-7.797-1.003-15.745-1.523-23.815-1.523-102.117 0-184.899 82.782-184.899 184.899s82.782 184.899 184.899 184.899c5.267 0 10.479-.232 15.635-.664-52.521-42.638-86.093-107.709-86.093-180.63z" fill="#5ad6ff"/></g><g><path d="m391.978 504.5h-271.955c-16.97 0-30.726-13.757-30.726-30.726 0-16.97 13.757-30.726 30.726-30.726h271.955c16.97 0 30.726 13.757 30.726 30.726 0 16.969-13.756 30.726-30.726 30.726z" fill="#736acc"/><path d="m210.605 443.047h-90.582c-16.97 0-30.726 13.757-30.726 30.726 0 16.97 13.757 30.726 30.726 30.726h132.63c-18.579-16.633-33.139-37.66-42.048-61.452z" fill="#5149bf"/></g><g><path d="m360.275 377.298h-208.548c-16.97 0-30.726-13.757-30.726-30.726 0-16.97 13.757-30.726 30.726-30.726h208.548c16.97 0 30.726 13.757 30.726 30.726 0 16.969-13.757 30.726-30.726 30.726z" fill="#736acc"/><path d="m218.691 315.845h-66.964c-16.97 0-30.726 13.757-30.726 30.726 0 16.97 13.757 30.726 30.726 30.726h49.428c1.562-22.073 7.726-42.872 17.536-61.452z" fill="#5149bf"/></g><path d="m196.079 181.993c.008 15.41-15.674 27.911-35.025 27.921s-35.045-12.475-35.053-27.885c-.008-15.411 15.673-27.911 35.025-27.921 19.351-.01 35.045 12.474 35.053 27.885z" fill="#ffa1ac"/><path d="m315.923 181.933c.008 15.41 15.702 27.895 35.053 27.885s35.033-12.51 35.025-27.92c-.008-15.411-15.702-27.896-35.053-27.886s-35.033 12.51-35.025 27.921z" fill="#ffa1ac"/><path d="m290.341 169.331c-.011-21.227-15.389-23.213-34.358-23.204-18.969.01-34.345 2.012-34.335 23.238.011 21.226 15.397 38.425 34.366 38.416s34.337-17.224 34.327-38.45z" fill="#3e4f61"/><g fill="#fbf198"><path d="m431.891 30.274 6.746 5.928c2.703 2.375 6.031 3.926 9.589 4.467l8.878 1.351c14.706 2.238 21.123 19.85 11.305 31.025l-5.928 6.746c-2.375 2.703-3.926 6.031-4.467 9.589l-1.351 8.878c-2.238 14.706-19.85 21.123-31.025 11.305l-6.746-5.928c-2.703-2.375-6.031-3.926-9.589-4.467l-8.878-1.351c-14.706-2.238-21.123-19.85-11.305-31.025l5.928-6.746c2.375-2.703 3.926-6.031 4.467-9.589l1.351-8.878c2.239-14.707 19.851-21.124 31.025-11.305z"/><path d="m56.05 221.35 8.944-.803c3.584-.322 7.001-1.665 9.846-3.87l7.098-5.502c11.757-9.114 28.941-1.627 30.272 13.189l.803 8.944c.322 3.584 1.665 7.001 3.87 9.846l5.502 7.098c9.114 11.757 1.627 28.941-13.189 30.272l-8.944.803c-3.584.322-7.001 1.665-9.846 3.87l-7.098 5.502c-11.757 9.114-28.941 1.627-30.272-13.189l-.803-8.944c-.322-3.584-1.665-7.001-3.87-9.846l-5.502-7.098c-9.114-11.757-1.627-28.941 13.189-30.272z"/></g></g><g><path d="m255.997 215.282h.02c23.074-.012 41.835-20.627 41.823-45.955-.016-30.721-27.245-30.721-41.862-30.7-14.625.007-41.846.021-41.831 30.742.006 12.112 4.262 23.536 11.983 32.168 7.931 8.864 18.536 13.745 29.867 13.745zm-.01-61.655h.11c21.485 0 26.738 3.094 26.744 15.708.009 17.057-12.027 30.939-26.831 30.947-.004 0-.008 0-.012 0-7.005 0-13.642-3.105-18.687-8.745-5.26-5.88-8.159-13.755-8.163-22.175-.006-12.635 5.261-15.723 26.839-15.735z"/><path d="m164.771 159.145c4.142-.002 7.499-3.362 7.496-7.504-.001-2.451.952-4.756 2.685-6.491 1.733-1.734 4.037-2.69 6.488-2.691h.004c5.059 0 9.176 4.114 9.178 9.173.002 4.141 3.359 7.496 7.5 7.496h.004c4.142-.002 7.498-3.362 7.496-7.504-.007-13.328-10.851-24.166-24.178-24.166-.003 0-.008 0-.012 0-6.458.003-12.528 2.521-17.093 7.09s-7.076 10.642-7.073 17.1c.002 4.141 3.359 7.496 7.5 7.496.002.001.004.001.005.001z"/><path d="m313.852 159.07c4.142-.002 7.499-3.362 7.496-7.504-.001-2.452.952-4.757 2.685-6.491 1.732-1.734 4.037-2.69 6.488-2.691h.005c5.058 0 9.175 4.114 9.178 9.173.002 4.141 3.359 7.496 7.5 7.496h.004c4.142-.002 7.498-3.362 7.496-7.504-.007-13.328-10.852-24.166-24.177-24.166-.004 0-.009 0-.013 0-6.458.003-12.528 2.521-17.093 7.09s-7.076 10.642-7.073 17.1c.002 4.141 3.359 7.496 7.5 7.496.001.001.003.001.004.001z"/><path d="m479 51.613c-3.345-9.18-11.108-15.538-20.767-17.008l-8.878-1.352c-2.144-.327-4.138-1.255-5.767-2.687l-6.746-5.928c-7.34-6.449-17.204-8.301-26.382-4.957-9.18 3.345-15.538 11.108-17.008 20.767l-1.352 8.878c-.278 1.83-1.019 3.535-2.113 5.012-16.497-16.038-35.489-28.852-56.575-38.129-24.445-10.755-50.49-16.209-77.411-16.209-39.823 0-78.034 12.061-110.503 34.877-3.389 2.381-4.206 7.06-1.824 10.448 2.381 3.389 7.06 4.207 10.448 1.824 29.93-21.032 65.159-32.149 101.879-32.149 47.15 0 91.099 18.074 124.47 51.015-3.925 6.682-4.687 14.674-1.942 22.208 3.345 9.18 11.108 15.538 20.767 17.008l8.878 1.352c1.365.208 2.656.685 3.844 1.355 13.983 25.799 21.383 54.956 21.383 84.462 0 46.715-17.773 90.334-50.176 123.614-6.567-4.93-14.604-7.664-22.954-7.664h-208.54c-8.397 0-16.377 2.694-22.963 7.662-8.262-8.508-15.611-17.803-22.004-27.741l3.102-.279c9.731-.874 17.87-6.743 21.773-15.7 3.902-8.957 2.659-18.915-3.327-26.636l-5.502-7.098c-1.329-1.713-2.133-3.761-2.328-5.921l-.803-8.944c-.874-9.731-6.743-17.871-15.7-21.773-8.328-3.628-17.518-2.802-24.975 2.142-.259-3.882-.403-7.775-.403-11.662 0-46.333 17.75-90.169 49.982-123.435 2.882-2.975 2.808-7.723-.167-10.605-2.975-2.883-7.723-2.807-10.605.167-34.958 36.079-54.21 83.622-54.21 133.873 0 6.883.372 13.797 1.099 20.629-.126.016-.25.036-.377.047l-8.944.803c-9.731.874-17.871 6.743-21.773 15.7s-2.659 18.915 3.328 26.637l5.501 7.097c1.329 1.714 2.133 3.762 2.328 5.922l.804 8.944c.874 9.731 6.743 17.87 15.7 21.773 3.448 1.502 7.044 2.242 10.605 2.242 5.688 0 11.283-1.888 16.031-5.569l4.267-3.308c7.56 12.249 16.468 23.613 26.588 33.916-3.418 5.823-5.256 12.489-5.256 19.336 0 10.551 4.232 20.38 11.739 27.568l-6.491 61.442c-20.489.676-36.951 17.544-36.951 38.194 0 21.078 17.148 38.226 38.226 38.226h189.511c4.142 0 7.5-3.358 7.5-7.5s-3.358-7.5-7.5-7.5h-189.513c-12.807 0-23.226-10.419-23.226-23.226s10.419-23.227 23.226-23.227h271.955c12.807 0 23.226 10.419 23.226 23.227s-10.419 23.227-23.226 23.227h-47.444c-4.142 0-7.5 3.358-7.5 7.5s3.358 7.5 7.5 7.5h47.444c21.078 0 38.226-17.148 38.226-38.226 0-20.651-16.462-37.518-36.951-38.194l-6.494-61.467c.179-.172.369-.334.545-.509 7.22-7.22 11.197-16.821 11.197-27.034 0-6.849-1.84-13.517-5.259-19.341 16.494-16.772 29.629-36.147 39.068-57.693 10.677-24.37 16.09-50.322 16.09-77.136 0-24.299-4.643-48.377-13.518-70.815 1.01.121 2.025.204 3.048.204 3.044 0 6.129-.538 9.139-1.635 9.18-3.345 15.538-11.108 17.008-20.767l1.352-8.878c.327-2.144 1.255-4.138 2.687-5.767l5.928-6.747c6.449-7.34 8.302-17.202 4.956-26.382zm-339.59 331.17c3.92 1.332 8.064 2.017 12.321 2.017h208.54c4.257 0 8.401-.686 12.321-2.018l5.575 52.766h-244.332zm12.321-59.433h208.54c6.71 0 13.092 2.902 17.513 7.965 3.687 4.219 5.717 9.637 5.717 15.255 0 6.206-2.416 12.04-6.803 16.427-.736.735-1.529 1.429-2.358 2.062-4.062 3.102-8.927 4.741-14.069 4.741h-208.54c-5.14 0-10.005-1.639-14.066-4.739-.001-.001-.002-.001-.002-.002-5.822-4.446-9.162-11.185-9.162-18.489 0-5.618 2.031-11.036 5.733-15.273.323-.372.682-.756 1.07-1.144 4.387-4.387 10.221-6.803 16.427-6.803zm-65.92-44.082-7.098 5.502c-3.321 2.574-7.604 3.109-11.455 1.431-3.852-1.678-6.375-5.179-6.751-9.364l-.804-8.943c-.451-5.022-2.322-9.784-5.412-13.771l-5.501-7.097c-2.574-3.321-3.109-7.603-1.431-11.455s5.179-6.376 9.363-6.752l8.945-.803c5.022-.451 9.784-2.323 13.77-5.413l7.097-5.501c3.321-2.575 7.605-3.108 11.455-1.431 3.852 1.678 6.376 5.179 6.752 9.363l.803 8.945c.452 5.023 2.323 9.785 5.412 13.769l5.502 7.098c2.574 3.32 3.109 7.603 1.431 11.455s-5.179 6.376-9.364 6.752l-8.943.804c-5.024.45-9.785 2.321-13.771 5.411zm376.965-211.174-5.928 6.746c-3.329 3.788-5.489 8.425-6.248 13.411l-1.352 8.878c-.632 4.154-3.367 7.492-7.314 8.931-3.948 1.439-8.189.642-11.345-2.131l-6.746-5.928c-3.788-3.329-8.425-5.489-13.411-6.248l-8.878-1.352c-4.153-.632-7.492-3.367-8.931-7.314-1.438-3.948-.642-8.189 2.131-11.346l5.928-6.746c3.329-3.788 5.489-8.425 6.248-13.411l1.352-8.878c.632-4.153 3.367-7.492 7.314-8.931 1.295-.472 2.622-.703 3.931-.703 2.683 0 5.294.971 7.415 2.834l6.746 5.928c3.788 3.329 8.425 5.489 13.411 6.248l8.878 1.352c4.153.632 7.492 3.366 8.931 7.314 1.438 3.949.641 8.19-2.132 11.346z"/></g></svg>