<svg id="Capa_1" enable-background="new 0 0 512.041 512.041" height="512" viewBox="0 0 512.041 512.041" width="512" xmlns="http://www.w3.org/2000/svg"><g><g><path d="m267.816 263.848c-41.651-72.142-43.434-156.356-12.193-227.143 6.859-15.542-6.933-32.363-23.524-28.712-23.545 5.182-46.721 13.866-68.806 26.248-123.256 69.108-165.222 227.654-92.326 348.707 70.437 116.969 221.902 156.413 340.649 87.854 22.856-13.196 42.85-29.444 59.769-47.931 11.538-12.607 4.037-33.049-12.953-34.891-76.925-8.338-148.965-51.99-190.616-124.132z" fill="#fff8e6"/><path d="m165.209 324.103c-60.939-101.196-41.591-228.581 38.397-308.026-13.721 4.784-27.211 10.818-40.314 18.165-123.256 69.107-165.221 227.653-92.325 348.706 70.437 116.969 221.902 156.413 340.649 87.854 19.165-11.065 36.31-24.283 51.324-39.16-110.221 38.545-235.549-4.278-297.731-107.539z" fill="#fce3a0"/></g><g fill="#ffa1ac"><ellipse cx="154.225" cy="405.36" rx="32.343" ry="25.757"/><ellipse cx="329.538" cy="405.36" rx="32.344" ry="25.757"/></g></g><g><path d="m80.745 108.713c3.321 2.478 8.02 1.793 10.496-1.528 20.37-27.312 45.846-49.653 75.719-66.402 20.99-11.769 43.448-20.337 66.75-25.465 4.98-1.094 9.897.622 13.149 4.594 3.245 3.965 3.956 9.11 1.902 13.764-16.089 36.456-23.651 76.716-21.869 116.428 1.842 41.044 13.748 81.673 34.428 117.493 19.354 33.522 45.195 61.59 76.806 83.425 1.302.899 2.786 1.33 4.256 1.33 2.381 0 4.723-1.131 6.178-3.238 2.354-3.408 1.5-8.08-1.908-10.434-29.768-20.562-54.106-47.001-72.341-78.583-38.711-67.051-43.133-149.43-11.827-220.365 4.318-9.783 2.778-21.019-4.017-29.321-6.803-8.312-17.522-12.045-27.981-9.743-24.743 5.446-48.583 14.54-70.861 27.031-31.719 17.784-58.772 41.51-80.408 70.518-2.477 3.321-1.793 8.02 1.528 10.496z"/><path d="m482.572 398.604c-3.774-10.001-12.715-16.929-23.332-18.08-29.093-3.154-57.103-11.391-83.25-24.483-3.701-1.853-8.21-.355-10.063 3.349-1.854 3.704-.355 8.209 3.349 10.064 27.749 13.894 57.474 22.636 88.349 25.983 5.04.546 9.12 3.71 10.914 8.463 1.836 4.864.832 10.063-2.687 13.907-16.766 18.32-36.274 33.964-57.985 46.5-37.937 21.903-79.608 32.312-120.867 32.309-82.959-.007-164.188-42.113-209.608-117.537-44.503-73.904-46.234-167.127-4.519-243.291 1.99-3.633.658-8.191-2.975-10.181-3.632-1.988-8.191-.657-10.181 2.975-21.39 39.052-32.487 83.216-32.092 127.717.408 45.956 13.173 91.088 36.917 130.518 35.116 58.314 90.786 99.827 156.755 116.892 21.553 5.575 43.407 8.333 65.129 8.332 44.852-.001 89.128-11.758 128.94-34.744 23.04-13.302 43.749-29.911 61.552-49.363 7.303-7.981 9.47-19.22 5.654-29.33z"/><path d="m165.575 367.343v13.222c0 4.142 3.358 7.5 7.5 7.5s7.5-3.358 7.5-7.5v-13.222c0-4.142-3.358-7.5-7.5-7.5s-7.5 3.358-7.5 7.5z"/><path d="m303.189 367.343v13.222c0 4.142 3.357 7.5 7.5 7.5s7.5-3.358 7.5-7.5v-13.222c0-4.142-3.357-7.5-7.5-7.5s-7.5 3.358-7.5 7.5z"/><path d="m254.368 375.244c-3.152 3.617-7.703 5.692-12.486 5.692s-9.334-2.075-12.486-5.692c-2.722-3.123-7.458-3.447-10.582-.727-3.123 2.722-3.448 7.459-.727 10.582 6.002 6.887 14.675 10.837 23.795 10.837 9.121 0 17.793-3.95 23.795-10.837 2.722-3.123 2.396-7.86-.727-10.582-3.125-2.721-7.861-2.396-10.582.727z"/></g></svg>