<svg id="Capa_1" enable-background="new 0 0 512 512" height="512" viewBox="0 0 512 512" width="512" xmlns="http://www.w3.org/2000/svg"><g><g><circle cx="256" cy="256" fill="#f6ca56" r="248.5"/><path d="m138.844 224.091c0-78.856 24.962-151.882 67.415-211.607-113.406 23.04-198.759 123.309-198.759 243.516 0 137.243 111.257 248.5 248.5 248.5 4.49 0 8.951-.126 13.383-.361-79.81-67.076-130.539-167.636-130.539-280.048z" fill="#f1b70b"/></g><g><path d="m256 256c-55.227 0-100-44.765-100-100 0-54.793 44.072-99.3 98.704-99.992-109.859.692-198.704 89.972-198.704 199.992 0 110.028 88.845 199.3 198.704 199.992.435.008.861.008 1.296.008s.861 0 1.296-.008c54.632-.692 98.704-45.191 98.704-99.992 0-55.227-44.773-100-100-100z" fill="#736acc"/><path d="m138.844 224.091c0-53.028 11.294-103.417 31.598-148.9-67.65 32.068-114.442 100.971-114.442 180.809 0 97.821 70.227 179.231 163.01 196.578-50.16-62.593-80.166-142.035-80.166-228.487z" fill="#5149bf"/></g><path d="m257.296 56.008c-.435-.008-.861-.008-1.296-.008s-.861 0-1.296.008c-54.632.692-98.704 45.199-98.704 99.992 0 55.235 44.773 100 100 100s100 44.773 100 100c0 54.801-44.072 99.3-98.704 99.992 109.867-.692 198.704-89.964 198.704-199.992 0-110.02-88.837-199.3-198.704-199.992z" fill="#fff8e6"/><path d="m255.999 116.004c22.096 0 40.005 17.909 40.005 39.995 0 22.096-17.909 40.005-40.005 40.005-22.087 0-39.995-17.909-39.995-40.005 0-22.086 17.909-39.995 39.995-39.995z" fill="#736acc"/><path d="m296.004 355.999c0 22.096-17.909 40.005-40.005 40.005-22.087 0-39.995-17.909-39.995-40.005 0-22.087 17.909-39.995 39.995-39.995 22.096 0 40.005 17.909 40.005 39.995z" fill="#fff8e6"/></g><g><path d="m208.504 156c0 26.194 21.307 47.504 47.495 47.504 26.194 0 47.505-21.311 47.505-47.504 0-26.189-21.311-47.496-47.505-47.496-26.188 0-47.495 21.307-47.495 47.496zm80 0c0 17.923-14.582 32.504-32.505 32.504-17.918 0-32.495-14.582-32.495-32.504 0-17.918 14.577-32.496 32.495-32.496 17.923 0 32.505 14.578 32.505 32.496z"/><path d="m255.999 403.504c26.194 0 47.505-21.311 47.505-47.504 0-26.189-21.311-47.496-47.505-47.496-26.188 0-47.495 21.307-47.495 47.496 0 26.193 21.307 47.504 47.495 47.504zm0-80c17.923 0 32.505 14.578 32.505 32.496 0 17.923-14.582 32.504-32.505 32.504-17.918 0-32.495-14.582-32.495-32.504 0-17.918 14.577-32.496 32.495-32.496z"/><path d="m441.331 331.702c3.893 1.423 8.196-.581 9.618-4.47 8.328-22.788 12.551-46.753 12.551-71.232 0-55.19-21.427-107.141-60.333-146.281-62.906-63.285-162.885-79.235-242.211-38.282-19.241 9.934-36.858 22.927-52.121 38.281-38.907 39.142-60.335 91.092-60.335 146.282 0 55.193 21.428 107.145 60.336 146.285 20.392 20.514 44.981 36.749 71.953 47.225 27.847 10.815 57.997 15.412 87.807 13.606 31.507-1.909 62.55-11.081 89.984-26.705 26.538-15.113 49.628-36.135 67.21-61.102 3.543-5.031 6.863-10.22 9.944-15.546 2.074-3.585.849-8.173-2.736-10.248s-8.173-.849-10.248 2.737c-21.271 36.769-53.961 64.955-92.051 81.058.597-.576 1.186-1.16 1.771-1.751 20.01-20.25 31.03-47.084 31.03-75.558 0-59.276-48.225-107.5-107.5-107.5-51.005 0-92.5-41.495-92.5-92.5 0-2.361.09-4.702.267-7.02 2.042-26.782 16.157-51.755 37.79-67.614 35-25.658 83.594-20.073 122.005-5.585 34.985 13.196 65.761 36.721 87.839 66.881 23.972 32.748 37.099 72.745 37.099 113.337 0 22.717-3.916 44.95-11.639 66.083-1.422 3.89.579 8.197 4.47 9.619zm-185.331-68.202c51.005 0 92.5 41.495 92.5 92.5 0 2.361-.09 4.702-.267 7.02-1.906 24.998-14.324 48.493-33.659 64.403-23.325 19.192-52.22 23.196-81.385 19.725-24.371-2.901-48.108-10.552-69.603-22.395-21.021-11.581-39.829-27.1-55.227-45.507-15.493-18.519-27.489-39.924-35.109-62.839-6.467-19.447-9.75-39.914-9.75-60.407 0-79.5 48.738-148.134 117.9-177.403-.63.608-1.253 1.223-1.87 1.848-3.752 3.797-7.188 7.826-10.294 12.053-13.461 18.318-20.736 40.369-20.736 63.502 0 59.276 48.225 107.5 107.5 107.5z"/><path d="m437.02 74.98c-48.352-48.351-112.64-74.98-181.02-74.98-60.357 0-118.962 21.407-165.018 60.276-3.166 2.671-3.566 7.403-.895 10.569s7.403 3.565 10.568.894c43.356-36.589 98.524-56.739 155.345-56.739 132.888 0 241 108.112 241 241s-108.112 241-241 241-241-108.112-241-241c0-59.361 21.771-116.396 61.305-160.599 2.762-3.088 2.497-7.829-.59-10.59-3.09-2.762-7.83-2.496-10.591.59-41.996 46.957-65.124 107.544-65.124 170.599 0 68.38 26.629 132.667 74.98 181.02 48.352 48.351 112.64 74.98 181.02 74.98s132.668-26.629 181.02-74.98c48.351-48.353 74.98-112.64 74.98-181.02s-26.629-132.667-74.98-181.02z"/></g></svg>