<svg id="Capa_1" enable-background="new 0 0 512.032 512.032" height="512" viewBox="0 0 512.032 512.032" width="512" xmlns="http://www.w3.org/2000/svg"><g><g><path d="m217.359 16.1-108.644 78.935c-13.575 9.862-20.511 26.475-17.981 43.062l50.082 328.334c3.342 21.913 22.186 38.1 44.353 38.1h117.124c22.166 0 41.01-16.188 44.353-38.1l50.082-328.334c2.53-16.587-4.407-33.2-17.981-43.062l-108.645-78.935c-15.725-11.425-37.018-11.425-52.743 0z" fill="#8ce09f"/><path d="m188.059 221.775c0-79.271 25.332-152.624 68.335-212.414-13.089-3.849-27.547-1.608-39.035 6.739l-108.644 78.935c-13.575 9.862-20.511 26.475-17.981 43.062l50.082 328.334c3.342 21.913 22.187 38.1 44.353 38.1h117.124c5.827 0 11.42-1.128 16.567-3.176-79.942-66.805-130.801-167.251-130.801-279.58z" fill="#00c755"/></g><ellipse cx="174.336" cy="111.771" fill="#ffa1ac" rx="25.605" ry="20.391"/><ellipse cx="313.125" cy="111.771" fill="#ffa1ac" rx="25.605" ry="20.391"/><path d="m120.732 293.841 8.589-1.121c12.097-1.579 21.158 10.84 15.96 21.878l-3.69 7.837c-1.257 2.67-1.723 5.645-1.341 8.572l1.121 8.589c1.579 12.097-10.84 21.158-21.878 15.96l-7.837-3.69c-2.67-1.257-5.645-1.723-8.572-1.341l-8.589 1.121c-12.097 1.579-21.158-10.84-15.96-21.878l3.69-7.837c1.257-2.67 1.723-5.645 1.341-8.572l-1.121-8.589c-1.579-12.097 10.84-21.158 21.878-15.96l7.837 3.69c2.67 1.258 5.645 1.723 8.572 1.341z" fill="#5ad6ff"/><path d="m425.95 203.008 5.505 6.688c7.754 9.419 2.029 23.686-10.085 25.133l-8.601 1.027c-2.931.35-5.7 1.533-7.978 3.409l-6.688 5.505c-9.419 7.754-23.686 2.029-25.133-10.085l-1.027-8.601c-.35-2.931-1.533-5.7-3.409-7.978l-5.505-6.688c-7.754-9.419-2.029-23.686 10.085-25.133l8.601-1.027c2.931-.35 5.7-1.533 7.978-3.409l6.688-5.505c9.419-7.754 23.686-2.029 25.133 10.085l1.027 8.601c.35 2.93 1.533 5.699 3.409 7.978z" fill="#a4e7ff"/></g><g><path d="m196.758 92.142v-10.467c0-4.142-3.358-7.5-7.5-7.5s-7.5 3.358-7.5 7.5v10.467c0 4.142 3.358 7.5 7.5 7.5s7.5-3.358 7.5-7.5z"/><path d="m305.703 92.142v-10.467c0-4.142-3.358-7.5-7.5-7.5s-7.5 3.358-7.5 7.5v10.467c0 4.142 3.358 7.5 7.5 7.5s7.5-3.358 7.5-7.5z"/><path d="m243.731 105.873c7.672 0 14.968-3.322 20.016-9.115 2.721-3.123 2.396-7.86-.727-10.582s-7.86-2.396-10.582.727c-2.199 2.523-5.372 3.97-8.707 3.97-3.334 0-6.508-1.447-8.708-3.97-2.721-3.123-7.46-3.448-10.582-.726-3.123 2.721-3.448 7.459-.726 10.582 5.049 5.792 12.344 9.114 20.016 9.114z"/><path d="m437.246 204.929-5.505-6.688c-.966-1.174-1.572-2.592-1.752-4.101l-1.027-8.601c-1.01-8.454-6.33-15.394-14.231-18.564-4.836-1.941-9.946-2.185-14.692-.848l4.102-26.896c1.406-9.227.316-18.687-3.15-27.352-3.667-9.179-9.834-17.103-17.836-22.916l-108.64-78.93c-18.413-13.379-43.154-13.378-61.567 0l-33.619 24.426c-3.351 2.435-4.094 7.125-1.659 10.476 2.435 3.352 7.125 4.095 10.476 1.66l33.62-24.426c13.139-9.546 30.793-9.547 43.933 0l108.638 78.931c3.876 2.815 7.129 6.336 9.649 10.349l-140.251 73.404-140.255-73.401c2.519-4.013 5.771-7.536 9.643-10.353l46.698-33.928c3.351-2.435 4.094-7.125 1.66-10.476s-7.125-4.093-10.476-1.66l-46.701 33.93c-7.996 5.816-14.159 13.739-17.819 22.902-3.478 8.665-4.572 18.126-3.164 27.364l21.623 141.769c-7.022-2.359-14.59-1.22-20.712 3.245-6.878 5.018-10.327 13.054-9.224 21.496l1.119 8.586c.197 1.515-.04 3.037-.688 4.41l-3.689 7.838c-3.626 7.699-2.8 16.399 2.211 23.275 5.015 6.882 13.054 10.335 21.512 9.237l8.577-1.128c1.504-.196 3.027.045 4.411.698l7.839 3.689c.371.175.751.325 1.128.479l15.972 104.737c3.929 25.768 25.699 44.47 51.765 44.47h117.13c26.066 0 47.836-18.702 51.764-44.469l8.296-54.385c.625-4.095-2.188-7.92-6.283-8.545-4.091-.624-7.921 2.188-8.545 6.283l-8.297 54.385c-2.802 18.386-18.336 31.73-36.936 31.73h-51.064v-299.171l138.044-72.249c.581 3.75.612 7.581.036 11.359l-6.125 40.164c-.745.342-1.537.578-2.361.676l-8.601 1.027c-8.454 1.01-15.394 6.331-18.564 14.232s-1.833 16.542 3.578 23.115l5.505 6.688c.966 1.174 1.572 2.591 1.752 4.101l1.027 8.601c.639 5.353 3.012 10.096 6.669 13.662l-19.386 127.08c-.625 4.095 2.188 7.92 6.283 8.545.383.059.764.087 1.14.087 3.643 0 6.839-2.659 7.405-6.37l18.739-122.844c.673.06 1.347.097 2.018.097 5.184 0 10.258-1.795 14.479-5.27l6.688-5.505c1.174-.966 2.592-1.572 4.101-1.752l8.602-1.027c8.454-1.01 15.394-6.331 18.564-14.232s1.833-16.543-3.577-23.116zm-312.154 144.557c-.001 0-.002 0-.004 0s-.004-.001-.007-.001c-.813-.105-1.618-.344-2.393-.709l-7.833-3.687c-3.977-1.876-8.379-2.569-12.749-2.003l-8.577 1.128c-4.225.546-6.613-2.055-7.447-3.198-.832-1.142-2.571-4.21-.762-8.05l3.686-7.833c1.872-3.966 2.562-8.371 1.995-12.741l-1.12-8.592c-.55-4.211 2.048-6.604 3.19-7.437 1.144-.833 4.216-2.576 8.058-.767l7.869 3.704c1.08.503 2.167.91 3.235 1.222.022.007.042.018.064.024.014.004.029.007.043.011.005.001.01.004.016.005.01.003.02.004.029.007 3.04.88 6.177 1.121 9.319.708l8.592-1.121c4.198-.549 6.592 2.046 7.426 3.188.835 1.144 2.582 4.219.777 8.058l-3.688 7.826c-1.884 3.991-2.573 8.408-1.995 12.752l1.12 8.58c.441 3.375-1.203 5.587-2.222 6.605-1.764 1.767-4.241 2.632-6.622 2.321zm60.073 147.546c-18.599 0-34.133-13.345-36.936-31.731l-15.518-101.76c3.576-1.094 6.9-3.057 9.607-5.762 5.056-5.052 7.423-12.035 6.493-19.157l-1.122-8.599c-.199-1.496.039-3.014.689-4.393l3.693-7.836c3.623-7.707 2.787-16.414-2.234-23.292-5.019-6.873-13.052-10.32-21.483-9.216l-7.436.97-22.768-149.284c-.576-3.78-.545-7.61.038-11.359l138.043 72.243v299.176zm241.737-274.574c-.527 1.312-2.207 4.42-6.422 4.923l-8.602 1.027c-4.363.521-8.463 2.273-11.855 5.066l-6.688 5.505c-3.277 2.697-6.685 1.764-7.997 1.238-1.312-.527-4.419-2.207-4.923-6.422l-1.027-8.6c-.521-4.363-2.272-8.463-5.065-11.856l-5.505-6.688c-2.698-3.277-1.765-6.684-1.238-7.996.526-1.312 2.207-4.42 6.422-4.923l8.601-1.027c4.363-.521 8.463-2.273 11.855-5.066l6.688-5.505c1.719-1.415 3.472-1.831 4.941-1.831 1.333 0 2.431.342 3.056.593 1.312.527 4.419 2.207 4.922 6.422l1.027 8.601c.521 4.363 2.273 8.462 5.066 11.855l5.505 6.688c2.699 3.278 1.766 6.684 1.239 7.996z"/></g></svg>