<svg id="Capa_1" enable-background="new 0 0 512.014 512.014" height="512" viewBox="0 0 512.014 512.014" width="512" xmlns="http://www.w3.org/2000/svg"><g><path d="m269.115 106.773c18.967-7.491 29.98-30.845 24.596-53.266-.12-.499-.246-.998-.379-1.497-4.195-16.561-15.564-32.806-32.827-43.218-2.824-1.704-6.171-1.704-8.996 0-17.263 10.412-28.632 26.657-32.827 43.218-.133.499-.259.998-.379 1.497-5.384 22.422 5.629 45.775 24.596 53.266l13.108 5.177z" fill="#fbf198"/><path d="m256.007 57.87c-15.337 0-28.988 7.187-37.795 18.368 3.202 13.85 12.228 25.615 24.687 30.536l13.108 5.177 13.108-5.177c12.459-4.921 21.485-16.686 24.687-30.536-8.807-11.181-22.458-18.368-37.795-18.368z" fill="#f6ca56"/><path d="m435.187 504.514c22.844 0 41.641-18.359 41.748-41.203.001-.145.001-.29.001-.435 0-78.333-98.913-141.834-220.929-141.834s-220.929 63.501-220.929 141.834c0 .145 0 .29.001.435.107 22.844 18.903 41.203 41.748 41.203z" fill="#8ce09f"/><path d="m198.075 325.98c-93.912 16.341-162.997 71.435-162.997 136.897 0 .145 0 .29.001.435.107 22.844 18.903 41.203 41.748 41.203h205.282c-46.34-46.911-77.14-109.202-84.034-178.535z" fill="#00c755"/><path d="m396.121 365.571c-5.99-4.535-8.095-12.509-5.123-19.409 7.669-17.804 11.921-37.425 11.921-58.042 0-81.137-65.774-137.34-146.911-137.34s-146.911 56.203-146.911 137.34c0 20.617 4.252 40.238 11.921 58.042 2.972 6.9.866 14.874-5.123 19.409-9.317 7.054-15.337 18.234-15.337 30.822 0 21.34 17.299 38.639 38.639 38.639h22.813c15.662 0 30.482 6.969 40.564 18.954 11.635 13.83 31.226 22.91 53.434 22.91s41.8-9.08 53.435-22.91c10.082-11.985 24.902-18.954 40.564-18.954h22.813c21.34 0 38.639-17.299 38.639-38.639-.001-12.588-6.021-23.768-15.338-30.822z" fill="#fff8e6"/><path d="m196.6 296.307c0-52.315 13.577-101.452 37.371-144.111-70.683 9.177-124.876 62.277-124.876 135.924 0 20.617 4.252 40.238 11.921 58.042 2.972 6.9.866 14.874-5.123 19.409-9.317 7.054-15.337 18.234-15.337 30.822 0 21.34 17.299 38.639 38.639 38.639h22.813c15.662 0 30.482 6.969 40.564 18.954 11.635 13.83 31.226 22.91 53.434 22.91.657 0 1.304-.034 1.957-.05-38.47-49.987-61.363-112.585-61.363-180.539z" fill="#fce3a0"/><path d="m298.771 102.295-64.339 5.844c-21.883 1.988-39.11 18.816-42.123 40.005-.571 4.016-2.346 7.744-4.938 10.865-5.378 6.476-8.615 14.793-8.615 23.869v36.295c0 12.92 10.474 23.394 23.394 23.394 12.92 0 23.394-10.474 23.394-23.394v-19.667c0-11.335 7.52-21.293 18.422-24.395 11.105-3.16 22.988 1.111 29.54 10.617l11.301 16.395c4.959 7.195 13.139 11.491 21.877 11.491 14.675 0 26.571-11.896 26.571-26.571v-53.252c.002-18.596-15.964-33.178-34.484-31.496z" fill="#a29cde"/><path d="m266.464 105.23-32.032 2.91c-21.883 1.988-39.11 18.816-42.123 40.005-.571 4.016-2.346 7.744-4.938 10.865-5.378 6.476-8.615 14.793-8.615 23.869v36.295c0 12.695 10.113 23.021 22.722 23.377 9.481-51.721 32.394-98.738 64.986-137.321z" fill="#827cd2"/><path d="m247.42 382.189-4.157 7.2c-3.817 6.611.954 14.874 8.587 14.874h8.314c7.633 0 12.404-8.263 8.587-14.874l-4.157-7.2c-3.816-6.611-13.358-6.611-17.174 0z" fill="#a29cde"/><circle cx="193.618" cy="335.98" fill="#a29cde" r="37.916"/><path d="m196.62 298.193c-.991-.078-1.99-.129-3.002-.129-20.94 0-37.916 16.976-37.916 37.916s16.976 37.916 37.916 37.916c4.449 0 8.716-.773 12.682-2.181-6.168-23.495-9.521-48.128-9.68-73.522z" fill="#827cd2"/><circle cx="318.396" cy="335.98" fill="#a29cde" r="37.916"/></g><g><path d="m256.007 369.731c-6.296 0-11.935 3.255-15.082 8.708l-4.157 7.201c-3.148 5.453-3.148 11.963 0 17.416 3.148 5.452 8.786 8.708 15.082 8.708h8.314c6.296 0 11.934-3.255 15.082-8.708s3.148-11.963 0-17.416l-4.157-7.201c-3.147-5.453-8.786-8.708-15.082-8.708zm6.249 25.824c-.261.451-.879 1.208-2.092 1.208h-8.314c-1.213 0-1.831-.757-2.092-1.208s-.606-1.365 0-2.416l4.157-7.201c.606-1.051 1.571-1.208 2.092-1.208s1.485.157 2.092 1.208l4.157 7.201c.606 1.051.261 1.965 0 2.416z"/><path d="m459.142 394.273c-14.545-18.451-35.231-34.946-60.077-47.979 7.529-18.479 11.352-38.031 11.352-58.171 0-25.312-6.406-50.608-19.267-72.471-12.142-20.64-29.818-37.811-50.394-49.979v-31.883c0-10.965-4.644-21.495-12.74-28.89-8.097-7.395-19.009-11.068-29.925-10.075 0 0-4.254.386-4.254.386 1.268-.115 3.76-6.857 4.304-8.146 4.671-11.054 5.678-23.586 2.872-35.252-.135-.578-.278-1.146-.433-1.713-4.943-19.438-18.135-36.83-36.198-47.726-5.242-3.167-11.504-3.167-16.744-.003-18.095 10.909-31.299 28.331-36.229 47.793 0 0-.401 1.591-.401 1.591-4.393 17.503.372 37.472 12.829 50.748-20.427 5.738-35.875 22.931-38.954 44.584-.357 2.508-1.492 4.973-3.283 7.129-2.261 2.724-4.169 5.699-5.716 8.843-19.98 10.887-37.091 26.081-49.58 44.094-2.36 3.404-1.515 8.077 1.89 10.437 1.304.904 2.792 1.337 4.267 1.337 2.376 0 4.714-1.126 6.17-3.227 8.625-12.439 19.745-23.384 32.626-32.228v35.701c0 17.035 13.859 30.894 30.895 30.894s30.894-13.859 30.894-30.895v-19.667c0-7.943 5.336-15.008 12.976-17.182 8.019-2.28 16.581.797 21.312 7.66l11.3 16.395c6.359 9.227 16.847 14.735 28.054 14.735 18.786 0 34.07-15.284 34.07-34.071v-3.558c11.392 7.821 21.38 17.279 29.514 27.969l-28.748 8.049c-1.133.317-2.176.896-3.043 1.691l-34.944 32.007c-3.055 2.798-3.263 7.542-.465 10.597 1.479 1.615 3.502 2.434 5.532 2.434 1.81 0 3.624-.651 5.063-1.969l27.977-25.625 13.359 23.769c1.376 2.449 3.923 3.827 6.545 3.827 1.244 0 2.506-.31 3.668-.963 3.61-2.029 4.893-6.602 2.863-10.212l-13.312-23.686 24.219-6.781c10.899 19.005 16.431 40.348 16.431 63.533 0 19.12-3.805 37.649-11.313 55.086-.795 1.855-1.347 3.77-1.629 5.618-1.415 8.68 2.076 17.386 9.121 22.731 3.748 2.832 6.864 6.551 9.001 10.736 2.229 4.4 3.36 9.144 3.36 14.1 0 17.171-13.97 31.14-31.141 31.14h-22.81c-17.857 0-34.735 7.88-46.311 21.623-.758.901-1.561 1.769-2.39 2.618v-18.411c0-4.142-3.357-7.5-7.5-7.5s-7.5 3.358-7.5 7.5v29.167c-6.874 3.396-14.633 5.618-22.8 6.467v-35.634c0-4.142-3.357-7.5-7.5-7.5s-7.5 3.358-7.5 7.5v35.634c-8.167-.85-15.925-3.071-22.8-6.468v-29.166c0-4.142-3.357-7.5-7.5-7.5s-7.5 3.358-7.5 7.5v18.41c-.83-.85-1.635-1.719-2.394-2.622-11.571-13.739-28.449-21.619-46.307-21.619h-22.81c-8.323 0-16.141-3.239-22.017-9.123-5.884-5.883-9.124-13.703-9.124-22.017 0-9.841 4.507-18.894 12.373-24.845 7.033-5.335 10.524-14.042 9.121-22.648-.294-1.922-.846-3.836-1.646-5.704-7.504-17.424-11.309-35.954-11.309-55.074 0-15.05 2.393-29.547 7.111-43.088 1.363-3.911-.702-8.187-4.614-9.55-3.911-1.362-8.188.703-9.55 4.615-5.273 15.132-7.947 31.29-7.947 48.024 0 20.144 3.824 39.7 11.353 58.171-24.846 13.032-45.533 29.528-60.077 47.978-16.548 20.991-25.295 44.713-25.295 68.601v.476c.129 26.833 22.222 48.664 49.25 48.664h251.31c4.143 0 7.5-3.358 7.5-7.5s-3.357-7.5-7.5-7.5h-251.306c-18.797 0-34.161-15.134-34.25-33.7v-.44c0-34.591 20.862-67.125 58.109-91.937-4.935 7.432-7.63 16.206-7.63 25.457 0 12.321 4.801 23.907 13.514 32.62 8.706 8.718 20.293 13.52 32.627 13.52h22.81c13.423 0 26.119 5.935 34.83 16.277 13.471 16.019 35.591 25.583 59.17 25.583s45.699-9.563 59.166-25.578c8.715-10.347 21.411-16.282 34.834-16.282h22.81c25.442 0 46.141-20.698 46.141-46.14 0-7.333-1.676-14.358-4.99-20.9-.808-1.582-1.71-3.115-2.696-4.595 37.282 24.817 58.166 57.366 58.166 91.975v.404c-.089 18.603-15.453 33.736-34.25 33.736h-68.484c-4.143 0-7.5 3.358-7.5 7.5s3.357 7.5 7.5 7.5h68.484c27.028 0 49.121-21.831 49.25-48.7v-.44c-.001-23.888-8.748-47.61-25.296-68.601zm-214.098-294.628c-.254-.156-.503-.317-.781-.444-7.836-3.596-14.197-10.966-17.467-20.258-.1-.279-.196-.562-.291-.851 7.662-8.129 18.224-12.725 29.498-12.725 11.278 0 21.839 4.595 29.499 12.722-.098.298-.2.596-.306.893-2.595 7.38-7.209 13.651-12.993 17.66-.269.186-.516.392-.753.605zm-19.142-45.805c2.271-9.117 7.028-17.695 13.085-24.765 4.677-5.459 10.244-10.15 16.4-13.859.442-.267.803-.265 1.245.001 9.436 5.692 17.496 13.693 23.067 23.216 3.831 6.548 6.644 13.997 7.556 21.555-9.098-6.21-19.903-9.621-31.25-9.621-11.339 0-22.138 3.408-31.234 9.612.245-2.066.627-4.116 1.131-6.139zm99.855 133.203c0 10.516-8.555 19.071-19.07 19.071-6.273 0-12.144-3.083-15.703-8.248l-11.301-16.395c-8.383-12.163-23.563-17.616-37.768-13.575-14.055 3.999-23.87 16.997-23.87 31.609v19.667c0 8.764-7.13 15.895-15.895 15.895-8.764 0-15.894-7.13-15.894-15.894v-36.295c0-6.957 2.445-13.732 6.884-19.078 3.565-4.293 5.846-9.342 6.594-14.601 2.576-18.12 17.123-31.933 35.376-33.591l64.339-5.844c6.84-.619 13.386 1.586 18.451 6.212 5.066 4.627 7.856 10.953 7.856 17.814v53.253z"/><path d="m193.618 290.564c-25.042 0-45.416 20.374-45.416 45.416s20.374 45.416 45.416 45.416 45.416-20.374 45.416-45.416-20.374-45.416-45.416-45.416zm0 75.832c-16.771 0-30.416-13.645-30.416-30.416s13.645-30.416 30.416-30.416 30.416 13.645 30.416 30.416-13.644 30.416-30.416 30.416z"/><path d="m318.396 381.396c25.042 0 45.416-20.374 45.416-45.416s-20.374-45.416-45.416-45.416-45.416 20.374-45.416 45.416 20.374 45.416 45.416 45.416zm0-75.832c16.771 0 30.416 13.645 30.416 30.416s-13.645 30.416-30.416 30.416-30.416-13.645-30.416-30.416 13.644-30.416 30.416-30.416z"/></g></svg>