<svg id="Capa_1" enable-background="new 0 0 512 512" height="512" viewBox="0 0 512 512" width="512" xmlns="http://www.w3.org/2000/svg"><g><path d="m256 7.5c-137.243 0-248.5 111.257-248.5 248.5s111.257 248.5 248.5 248.5 248.5-111.257 248.5-248.5-111.257-248.5-248.5-248.5zm179.326 249.564c0 34.479-9.752 66.719-26.632 94.123l-116.626-116.627v-153.721c81.692 17.01 143.258 89.561 143.258 176.225zm-216.742 176.225c-24.181-5.035-46.593-14.941-66.172-28.634l66.172-66.172zm73.484-94.806 66.172 66.172c-19.579 13.694-41.991 23.599-66.172 28.634zm-73.484-257.644v153.721l-116.626 116.627c-16.879-27.403-26.632-59.644-26.632-94.123 0-86.664 61.567-159.215 143.258-176.225z" fill="#8ce09f"/><path d="m181.293 421.103c-10.161-4.605-19.827-10.116-28.881-16.448l16.255-16.255c-9.176-27.161-15.613-55.583-18.984-84.938l-47.725 47.725c-16.879-27.403-26.632-59.644-26.632-94.123 0-72.292 42.845-134.756 104.471-163.361 12.844-30.227 29.176-58.612 48.488-84.656-124.196 13.785-220.785 119.081-220.785 246.953 0 128.059 96.87 233.478 221.328 247.015-18.805-25.244-34.804-52.702-47.535-81.912z" fill="#00c755"/></g><g><path d="m420.792 431.854c-44.811 42.01-103.335 65.146-164.792 65.146-132.888 0-241-108.112-241-241 0-61.498 23.163-120.051 65.221-164.874 2.834-3.021 2.683-7.767-.337-10.601-3.02-2.833-7.766-2.683-10.601.337-44.678 47.614-69.283 109.812-69.283 175.138 0 68.38 26.629 132.667 74.98 181.02 48.353 48.351 112.64 74.98 181.02 74.98 65.282 0 127.45-24.577 175.051-69.202 3.022-2.833 3.175-7.58.342-10.601-2.833-3.023-7.58-3.176-10.601-.343z"/><path d="m437.02 74.98c-48.353-48.351-112.64-74.98-181.02-74.98-29.604 0-58.621 5.011-86.246 14.894-26.697 9.551-51.501 23.423-73.723 41.23-3.232 2.59-3.753 7.311-1.163 10.542 2.589 3.231 7.311 3.753 10.542 1.163 43.13-34.561 95.202-52.829 150.59-52.829 132.888 0 241 108.112 241 241 0 55.559-18.37 107.758-53.123 150.956-2.596 3.227-2.085 7.948 1.143 10.545 1.386 1.115 3.046 1.657 4.697 1.657 2.193 0 4.366-.958 5.848-2.799 17.903-22.253 31.851-47.107 41.456-73.873 9.939-27.697 14.979-56.795 14.979-86.486 0-68.38-26.629-132.667-74.98-181.02z"/><path d="m284.605 433.984c.289 3.758 3.689 6.859 7.457 6.807 25.365-4.611 49.026-15.164 70.3-29.858 3.909-2.442 4.529-8.389 1.191-11.576l-66.18-66.18c-2.145-2.145-5.372-2.786-8.173-1.626-2.803 1.161-4.63 3.896-4.63 6.929v94.797c0 .235.013.471.035.707zm61.853-30.51c-14.599 9.138-30.308 15.948-46.888 20.336v-67.224z"/><path d="m226.023 79.944c-.404-4.253-4.824-7.42-8.982-6.455-41.53 8.649-79.358 31.58-106.515 64.57-27.533 33.448-42.697 75.709-42.697 119 0 34.691 9.594 68.601 27.744 98.063 2.367 4.056 8.447 4.764 11.689 1.37l116.62-116.63c1.406-1.407 2.196-3.314 2.196-5.303v-153.711c.003-.299-.018-.601-.055-.904zm-122.444 259.019c-13.586-25.083-20.749-53.196-20.749-81.903 0-78.188 53.405-146.867 128.25-166.74v141.134z"/><path d="m144.914 404.948c.064 2.317 1.298 4.531 3.189 5.859 20.895 14.6 44.087 24.646 68.931 29.822 4.493 1.067 9.167-2.733 9.047-7.35v-94.799c0-3.034-1.827-5.768-4.63-6.929-2.8-1.16-6.028-.519-8.173 1.626l-66.18 66.18c-1.452 1.464-2.287 3.526-2.184 5.591zm66.166 18.859c-16.578-4.393-32.287-11.203-46.886-20.335l46.886-46.886z"/><path d="m286.767 239.863 116.63 116.63c3.242 3.395 9.322 2.685 11.689-1.37 18.15-29.462 27.744-63.372 27.744-98.063 0-43.289-15.167-85.551-42.707-119.001-27.157-32.986-64.98-55.915-106.502-64.566-4.5-1.07-9.169 2.726-9.052 7.348v153.719c.001 1.989.791 3.897 2.198 5.303zm141.063 17.197c0 28.707-7.163 56.82-20.749 81.904l-107.511-107.51v-141.134c74.851 19.876 128.26 88.555 128.26 166.74z"/></g></svg>