<svg id="Capa_1" enable-background="new 0 0 511.955 511.955" height="512" viewBox="0 0 511.955 511.955" width="512" xmlns="http://www.w3.org/2000/svg"><g><g><path d="m137.491 465.337c-38.227-22.355-68.518-52.645-90.872-90.872 24.172-39.317 55.917-71.062 95.234-95.234 38.227 22.355 68.517 52.645 90.872 90.872-24.172 39.317-55.917 71.062-95.234 95.234z" fill="#d97c41"/><path d="m100.572 383.434 78.108-78.108c-11.332-9.642-23.592-18.356-36.827-26.095-39.317 24.172-71.062 55.917-95.234 95.234 8.98 15.356 19.263 29.408 30.804 42.203 5.522-12.039 13.235-23.32 23.149-33.234z" fill="#af602d"/></g><g><path d="m263.312 365.131 170.187-170.187c38.947-38.947 63.595-88.784 68.194-137.884l2.653-28.328c1.223-13.053-8.069-22.344-21.122-21.122l-28.328 2.653c-49.1 4.599-98.937 29.247-137.884 68.194l-170.187 170.187z" fill="#a4e7ff"/><path d="m412.023 71.984c25.009-25.009 58.701-36.037 91.372-33.095l.951-10.156c1.223-13.053-8.069-22.344-21.122-21.122l-28.328 2.653c-49.1 4.599-98.937 29.247-137.884 68.194l-179.166 179.165 44.268 44.268z" fill="#5ad6ff"/></g><g><path d="m241.173 410.41c-52.388-40.304-99.323-87.239-139.627-139.627-11.181-14.52-8.55-34.433 5.145-43.891 13.713-9.475 32.515-6.051 42.661 7.112 37.121 48.25 80.35 91.479 128.6 128.6 13.164 10.146 16.587 28.948 7.112 42.661-9.457 13.696-29.371 16.326-43.891 5.145z" fill="#fbf198"/><path d="m153.051 330.955 42.662-42.662c-16.342-17.287-31.826-35.397-46.361-54.29-10.146-13.163-28.948-16.587-42.661-7.112-13.696 9.458-16.327 29.372-5.145 43.891 16.126 20.962 33.331 41.033 51.505 60.173z" fill="#f9d171"/></g><g><path d="m59.134 487.554-34.732-34.732c-22.576-22.576-22.576-59.178 0-81.754l.78-.78c9.125-9.125 23.92-9.125 33.045 0l83.442 83.442c9.125 9.125 9.125 23.92 0 33.045l-.78.78c-22.576 22.575-59.179 22.575-81.755-.001z" fill="#fbf198"/><path d="m87.287 399.348-29.061-29.061c-9.125-9.125-23.92-9.125-33.045 0l-.78.78c-22.576 22.576-22.576 59.178 0 81.754l34.732 34.732c3.836 3.836 8.083 7.003 12.59 9.535-9.664-32.664-4.474-68.787 15.564-97.74z" fill="#f9d171"/></g></g><g><path d="m504.445 7.511c-5.563-5.564-13.356-8.182-21.922-7.364l-28.331 2.65c-50.566 4.737-102.5 30.38-142.484 70.354l-21.369 21.369c-2.929 2.929-2.929 7.678 0 10.606 2.93 2.929 7.678 2.929 10.607 0l21.368-21.368c37.554-37.544 86.131-61.61 133.275-66.027l28.341-2.651c.818-.078 1.608-.08 2.378-.039l-164.236 164.236c-2.929 2.929-2.929 7.678 0 10.606 1.465 1.464 3.385 2.197 5.304 2.197s3.839-.732 5.304-2.197l164.234-164.234c.04.772.038 1.565-.04 2.387l-2.648 28.328c-4.418 47.146-28.484 95.725-66.027 133.277l-157.608 157.607c-7.562-6.079-15.068-12.368-22.375-18.776l-27.063-27.063 35.876-35.875c2.929-2.929 2.929-7.678 0-10.606-2.93-2.929-7.678-2.929-10.607 0l-35.88 35.88-27.074-27.082c-6.401-7.3-12.696-14.796-18.77-22.352l111.499-111.498c2.929-2.929 2.929-7.678 0-10.606-2.93-2.929-7.678-2.929-10.607 0l-110.236 110.236c-.021-.028-.042-.054-.064-.082-7.447-9.655-19.133-15.419-31.259-15.419-7.774 0-15.245 2.324-21.602 6.718-8.062 5.567-13.357 14.104-14.911 24.039-1.661 10.619 1.284 21.772 8.082 30.6 4.585 5.951 9.198 11.765 13.769 17.362-23.139 18.185-43.352 39.704-60.206 64.124-2.411-.596-4.911-.904-7.459-.904-8.245 0-15.996 3.21-21.826 9.041l-.78.78c-25.464 25.464-25.464 66.897 0 92.361l34.732 34.732c12.733 12.733 29.454 19.098 46.18 19.098 16.722 0 33.45-6.367 46.181-19.098l.78-.78c5.83-5.83 9.041-13.581 9.041-21.826 0-2.548-.308-5.048-.904-7.459 24.419-16.854 45.939-37.067 64.124-60.207 5.6 4.573 11.413 9.186 17.364 13.771 7.149 5.505 15.913 8.538 24.675 8.538 12.119 0 23.319-5.746 29.959-15.364 11.672-16.879 7.852-40.101-8.712-52.875-.023-.018-.045-.035-.067-.052l156.355-156.355c39.973-39.983 65.616-91.916 70.354-142.485l2.648-28.319c.815-8.583-1.8-16.372-7.363-21.934zm-368.079 473.96-.78.78c-9.809 9.809-22.689 14.712-35.574 14.711-12.881-.001-25.767-4.905-35.574-14.711l-34.732-34.732c-19.615-19.615-19.615-51.532 0-71.148l.78-.78c3.093-3.093 7.156-4.64 11.219-4.64s8.126 1.546 11.219 4.64l83.442 83.442c6.186 6.186 6.186 16.251 0 22.438zm142.523-80.467c-3.899 5.65-10.32 8.89-17.617 8.89-5.549 0-10.917-1.875-15.522-5.421-7.96-6.132-15.674-12.314-22.938-18.382-7.706-6.418-15.39-13.083-22.837-19.808-3.075-2.776-7.816-2.534-10.593.54-2.776 3.074-2.534 7.817.54 10.593 5.82 5.256 11.782 10.472 17.783 15.567-16.963 21.653-37.01 40.61-59.731 56.494-.325-.356-.658-.708-1.001-1.051l-83.443-83.442c-.344-.344-.695-.676-1.051-1.002 15.885-22.724 34.845-42.77 56.5-59.735 14.343 16.894 29.536 33.313 45.252 48.874 1.462 1.448 3.37 2.17 5.277 2.17 1.932 0 3.863-.742 5.33-2.223 2.914-2.943 2.891-7.692-.053-10.606-17.079-16.911-33.538-34.85-48.926-53.326-6.06-7.255-12.242-14.969-18.374-22.928-4.298-5.583-6.174-12.555-5.146-19.129.912-5.831 3.971-10.807 8.618-14.016 3.842-2.656 8.363-4.06 13.075-4.06 7.509 0 14.754 3.582 19.371 9.566 1.83 2.384 3.635 4.695 5.365 6.871.001.001.002.002.002.003.006.008.013.016.019.023.001.002.003.004.004.005 0 0 0 0 .001.001 7.542 9.575 15.469 19.105 23.561 28.326.107.122.218.241.333.356l32.55 32.56c.076.076.153.15.232.222l32.329 32.329c.116.116.24.22.362.327l-.006.007c9.232 8.102 18.773 16.037 28.328 23.562 2.193 1.746 4.516 3.559 6.889 5.38 10.227 7.889 12.651 22.145 5.517 32.463z"/><path d="m254.304 178.167-6.618 6.618c-2.929 2.929-2.929 7.678 0 10.606 1.464 1.464 3.384 2.197 5.303 2.197s3.839-.732 5.303-2.197l6.618-6.618c2.929-2.929 2.929-7.678 0-10.606-2.929-2.929-7.677-2.929-10.606 0z"/><path d="m327.171 264.27 6.618-6.618c2.93-2.929 2.93-7.678.001-10.607-2.929-2.928-7.678-2.929-10.606 0l-6.618 6.618c-2.93 2.929-2.93 7.678-.001 10.607 1.465 1.464 3.384 2.197 5.304 2.197 1.918-.001 3.838-.733 5.302-2.197z"/><path d="m271.063 214.737c-.485 7.083 2.11 14.02 7.122 19.033 4.614 4.614 10.858 7.181 17.348 7.18.561 0 1.123-.019 1.687-.058 4.132-.283 7.252-3.863 6.969-7.996s-3.866-7.253-7.996-6.969c-2.756.191-5.454-.818-7.399-2.764-1.946-1.946-2.954-4.644-2.765-7.4.283-4.132-2.837-7.712-6.969-7.996-4.13-.288-7.713 2.837-7.997 6.97z"/></g></svg>