<svg id="Capa_1" enable-background="new 0 0 512 512" height="512" viewBox="0 0 512 512" width="512" xmlns="http://www.w3.org/2000/svg"><g><g><path d="m382.919 153.911v-87.599c0-.077-.062-.139-.139-.139h-253.56c-.077 0-.139.062-.139.139v87.599c0 41.821 20.228 78.915 51.433 102.037 4.473 3.314 4.473 10.002 0 13.317-31.205 23.122-51.433 60.217-51.433 102.037v87.598c0 .077.062.139.139.139h253.56c.077 0 .139-.062.139-.139v-87.599c0-41.821-20.228-78.915-51.433-102.037-4.473-3.314-4.473-10.002 0-13.317 31.205-23.122 51.433-60.216 51.433-102.036z" fill="#a4e7ff"/><path d="m213.234 224.356c0-56.469 12.368-110.048 34.534-158.183h-118.548c-.077 0-.139.062-.139.139v87.599c0 41.821 20.228 78.915 51.433 102.037 4.473 3.314 4.473 10.002 0 13.317-31.205 23.122-51.433 60.217-51.433 102.037v87.598c0 .077.062.139.139.139h165.507c-51.027-64.515-81.493-146.04-81.493-234.683z" fill="#5ad6ff"/></g><g><path d="m129.081 441.066h253.838v-24.931l-47.866-56.179c-36.818-43.212-121.287-43.212-158.105 0l-47.867 56.179z" fill="#f9d171"/><path d="m228.357 330.62c-20.21 4.603-38.665 14.379-51.409 29.336l-47.866 56.179v24.931h152.273c-23.281-33.293-41.341-70.504-52.998-110.446z" fill="#f1b70b"/></g><g><path d="m288.378 244.543c0-3.996 2.341-7.59 5.954-9.3 30.464-14.415 51.587-45.453 51.587-81.333v-5.855c0-10.421-9.156-18.469-19.491-17.133l-73.103 9.451c-18.04 2.332-36.359 1.19-53.969-3.364l-15.408-3.985c-9.047-2.34-17.868 4.49-17.868 13.834v5.905c0 36.053 20.967 67.633 51.483 82.32 3.683 1.773 6.066 5.452 6.058 9.54v.041 18.569 18.528c0 9.81 7.628 18.186 17.433 18.513 10.251.342 18.669-7.866 18.669-18.04 0-4.279 3.779-7.606 8.014-6.991 1.266.184 2.574.235 3.914.139 9.516-.686 16.728-8.927 16.728-18.467v-12.372z" fill="#f9d171"/><path d="m213.234 224.356c0-28.644 3.188-56.543 9.216-83.368-7.777-.69-15.501-2.016-23.094-3.979l-15.408-3.985c-9.047-2.34-17.867 4.49-17.867 13.834v5.905c0 34.359 19.051 64.644 47.254 80.127-.063-2.837-.101-5.681-.101-8.534z" fill="#f1b70b"/></g><g><path d="m382.048 504.5h-252.096c-17.517 0-31.717-14.2-31.717-31.717 0-17.517 14.2-31.717 31.717-31.717h252.096c17.517 0 31.717 14.2 31.717 31.717 0 17.517-14.2 31.717-31.717 31.717z" fill="#736acc"/><path d="m281.354 441.066h-151.402c-17.517 0-31.717 14.2-31.717 31.717 0 17.517 14.2 31.717 31.717 31.717h207.199c-20.862-18.979-39.591-40.259-55.797-63.434z" fill="#5149bf"/></g><g><path d="m382.048 70.934h-252.096c-17.517 0-31.717-14.2-31.717-31.717 0-17.517 14.2-31.717 31.717-31.717h252.096c17.517 0 31.717 14.2 31.717 31.717 0 17.517-14.2 31.717-31.717 31.717z" fill="#736acc"/><path d="m281.457 7.5h-151.505c-17.517 0-31.717 14.2-31.717 31.717 0 17.517 14.2 31.717 31.717 31.717h115.663c9.927-22.37 21.958-43.598 35.842-63.434z" fill="#5149bf"/></g></g><g><path d="m216.122 244.562c-.001.034-.001.067-.001.101v37.097c0 13.887 11.073 25.555 24.684 26.009.295.01.589.015.882.015 6.665 0 12.938-2.532 17.747-7.183 4.901-4.741 7.654-11.066 7.784-17.862 1.64.2 3.311.241 4.972.123 13.283-.958 23.688-12.355 23.688-25.948v-12.371c0-1.069.637-2.035 1.662-2.52 33.945-16.063 55.879-50.649 55.879-88.112v-5.855c.323-14.512-13.595-26.762-27.952-24.571 0 0-73.103 9.45-73.103 9.45-22.283 3.362-45.104-.931-66.537-7.174-13.285-3.827-27.629 7.27-27.246 21.097v5.904c0 37.818 21.876 72.784 55.73 89.078 1.103.532 1.793 1.572 1.811 2.722zm-42.542-91.799v-5.905c-.109-4.307 4.342-7.768 8.49-6.573 23.331 6.816 47.977 11.119 72.217 7.526 0 .001 73.103-9.45 73.103-9.45 5.662-.876 11.176 3.963 11.028 9.695v5.855c0 31.694-18.564 60.958-47.294 74.553-6.225 2.945-10.247 9.256-10.247 16.079v12.371c0 5.766-4.29 10.592-9.765 10.986-.777.057-1.548.029-2.299-.08-4.153-.606-8.367.629-11.551 3.384-3.203 2.772-5.041 6.792-5.041 11.028 0 2.885-1.143 5.58-3.217 7.586-2.074 2.005-4.828 3.049-7.701 2.959-5.615-.188-10.184-5.13-10.184-11.018v-37.017c.001-.036.001-.072.001-.108.012-6.889-4.033-13.291-10.306-16.311-28.693-13.809-47.234-43.469-47.234-75.56z"/><path d="m202 381.284c-4.143 0-7.5 3.358-7.5 7.5v10.376c0 4.142 3.357 7.5 7.5 7.5s7.5-3.358 7.5-7.5v-10.376c0-4.142-3.357-7.5-7.5-7.5z"/><path d="m310 381.284c-4.143 0-7.5 3.358-7.5 7.5v10.376c0 4.142 3.357 7.5 7.5 7.5s7.5-3.358 7.5-7.5v-10.376c0-4.142-3.357-7.5-7.5-7.5z"/><path d="m275.165 393.197c-3.123-2.722-7.86-2.396-10.582.726-2.167 2.487-5.296 3.914-8.583 3.914s-6.415-1.426-8.582-3.913c-2.72-3.123-7.459-3.449-10.581-.728-3.123 2.721-3.449 7.458-.728 10.582 5.016 5.757 12.266 9.059 19.891 9.059 7.624 0 14.874-3.302 19.892-9.058 2.721-3.123 2.396-7.861-.727-10.582z"/><path d="m390.42 434.475v-63.175c0-21.351-5.134-42.604-14.848-61.463-9.393-18.237-23.092-34.352-39.626-46.61-.078-.058-.316-.234-.316-.622s.238-.564.326-.629c34.104-25.272 54.464-65.67 54.464-108.066v-76.385c17.614-3.847 30.845-19.558 30.845-38.308 0-21.624-17.593-39.217-39.217-39.217h-170.144c-4.143 0-7.5 3.358-7.5 7.5s3.357 7.5 7.5 7.5h170.144c13.354 0 24.217 10.864 24.217 24.217s-10.863 24.217-24.217 24.217h-252.096c-13.354 0-24.217-10.864-24.217-24.217s10.863-24.217 24.217-24.217h46.813c4.143 0 7.5-3.358 7.5-7.5s-3.357-7.5-7.5-7.5h-46.813c-21.624 0-39.217 17.593-39.217 39.217 0 18.75 13.231 34.461 30.845 38.308v76.385c0 42.396 20.36 82.794 54.474 108.073.078.058.316.234.316.622s-.238.564-.327.63c-16.523 12.25-30.223 28.365-39.615 46.602-9.714 18.859-14.848 40.112-14.848 61.463v63.175c-17.614 3.847-30.845 19.558-30.845 38.308 0 21.624 17.593 39.217 39.217 39.217h172.199c4.143 0 7.5-3.358 7.5-7.5s-3.357-7.5-7.5-7.5h-172.199c-13.354 0-24.217-10.864-24.217-24.217s10.863-24.217 24.217-24.217h252.096c13.354 0 24.217 10.864 24.217 24.217s-10.863 24.217-24.217 24.217h-44.896c-4.143 0-7.5 3.358-7.5 7.5s3.357 7.5 7.5 7.5h44.896c21.624 0 39.217-17.593 39.217-39.217 0-18.751-13.231-34.461-30.845-38.308zm-15.001-.909h-238.838v-14.669l46.075-54.077c15.885-18.643 43.303-29.773 73.344-29.773s57.459 11.13 73.344 29.773l46.075 54.077zm-190.453-158.274c4.07-3.006 6.404-7.631 6.404-12.688s-2.334-9.681-6.396-12.681c-30.303-22.456-48.395-58.349-48.395-96.014v-75.475h238.84v75.476c0 37.666-18.092 73.559-48.386 96.007-4.07 3.006-6.404 7.631-6.404 12.688s2.334 9.681 6.394 12.68c30.305 22.466 48.396 58.36 48.396 96.015v24.469l-34.658-40.677c-18.697-21.944-50.384-35.044-84.762-35.044s-66.064 13.101-84.762 35.044l-34.658 40.677v-24.469c.001-37.655 18.093-73.549 48.387-96.008z"/></g></svg>