<svg id="Capa_1" enable-background="new 0 0 512.036 512.036" height="512" viewBox="0 0 512.036 512.036" width="512" xmlns="http://www.w3.org/2000/svg"><g><path d="m496.675 392.063-190.518-329.986c-22.284-38.597-77.994-38.597-100.278 0l-190.518 329.986c-22.284 38.597 5.571 86.844 50.139 86.844h381.036c44.568 0 72.423-48.246 50.139-86.844zm-232.601-255.441 44.009 76.226c3.58 6.201-.895 13.953-8.056 13.953h-88.019c-7.161 0-11.636-7.752-8.056-13.953l44.009-76.226c3.582-6.201 12.533-6.201 16.113 0zm-163.113 254.614 45.706-79.166c3.935-6.815 11.207-11.014 19.077-11.014h180.548c7.87 0 15.142 4.199 19.077 11.014l45.706 79.166c3.58 6.201-.895 13.953-8.056 13.953h-294.002c-7.161 0-11.636-7.752-8.056-13.953z" fill="#d97c41"/><path d="m200.717 405.189h-91.7c-7.161 0-11.636-7.752-8.056-13.953l45.706-79.166c3.935-6.815 11.207-11.014 19.077-11.014h19.833c-.041-2.387-.069-4.777-.069-7.174 0-97.348 33.747-186.811 90.173-257.34-24.855-8.858-54.85-.365-69.802 25.534l-190.518 329.987c-22.284 38.597 5.571 86.844 50.139 86.844h163.77c-11.766-23.386-21.371-48.046-28.553-73.718z" fill="#af602d"/></g><g><path d="m345.947 471.407h-280.447c-18.219 0-34.534-9.42-43.644-25.197-9.11-15.778-9.11-34.618 0-50.396l137.275-237.767c2.071-3.587.842-8.174-2.745-10.245-3.587-2.07-8.174-.843-10.245 2.745l-137.275 237.767c-11.821 20.475-11.821 44.921 0 65.396 11.821 20.474 32.993 32.697 56.634 32.697h280.447c4.142 0 7.5-3.357 7.5-7.5s-3.358-7.5-7.5-7.5z"/><path d="m212.009 234.302h88.019c6.074 0 11.514-3.141 14.551-8.401s3.037-11.541 0-16.802l-44.009-76.227c-3.038-5.261-8.477-8.401-14.552-8.4-6.074 0-11.514 3.141-14.55 8.4l-44.009 76.227c-3.037 5.26-3.038 11.541 0 16.802s8.475 8.401 14.55 8.401zm-1.561-17.703 44.009-76.227c.43-.744 1.086-.9 1.561-.9s1.131.156 1.561.9l44.009 76.227c.43.745.237 1.391 0 1.802-.238.411-.701.901-1.561.901h-88.019c-.86 0-1.323-.49-1.561-.901s-.429-1.057.001-1.802z"/><path d="m140.172 308.321-45.707 79.165c-3.037 5.261-3.037 11.542 0 16.802 3.037 5.261 8.477 8.401 14.551 8.401h294.002c6.074 0 11.514-3.141 14.551-8.401s3.037-11.542 0-16.802l-45.706-79.165c-5.258-9.107-15.057-14.765-25.572-14.765h-180.547c-10.515 0-20.313 5.657-25.572 14.765zm218.702 7.5 45.706 79.165c.43.745.237 1.391 0 1.802s-.701.901-1.561.901h-294.002c-.86 0-1.323-.49-1.561-.901s-.43-1.058 0-1.802l45.707-79.165c2.587-4.48 7.408-7.265 12.582-7.265h180.548c5.173 0 9.993 2.784 12.581 7.265z"/><path d="m503.17 388.314-190.518-329.987c-11.821-20.475-32.993-32.697-56.634-32.697s-44.813 12.223-56.634 32.697l-35.238 61.034c-2.071 3.587-.842 8.174 2.745 10.245 3.586 2.069 8.174.842 10.245-2.745l35.238-61.034c9.109-15.778 25.425-25.197 43.644-25.197s34.535 9.419 43.644 25.197l190.518 329.987c9.109 15.777 9.109 34.617 0 50.396-9.109 15.777-25.425 25.197-43.644 25.197h-65.589c-4.142 0-7.5 3.357-7.5 7.5s3.358 7.5 7.5 7.5h65.589c23.642 0 44.813-12.224 56.634-32.697 11.821-20.475 11.821-44.922 0-65.396z"/></g></svg>