<svg id="Capa_1" enable-background="new 0 0 512.013 512.013" height="512" viewBox="0 0 512.013 512.013" width="512" xmlns="http://www.w3.org/2000/svg"><g><g><path d="m344.566 435.343h-177.119v-242.894l177.119-40.036z" fill="#a29cde"/><path d="m239.543 278.518c0-37.179 6.118-72.929 17.401-106.299l-89.496 20.229v242.894h111.454c-25.105-46.696-39.359-100.093-39.359-156.824z" fill="#827cd2"/></g><path d="m269.739 117.532c21.023-8.303 33.23-34.188 27.262-59.04-.133-.553-.273-1.107-.42-1.66-4.65-18.356-17.251-36.362-36.386-47.902-3.131-1.888-6.84-1.888-9.971 0-19.135 11.541-31.736 29.547-36.385 47.903-.147.553-.287 1.106-.42 1.66-5.968 24.852 6.239 50.737 27.262 59.04l14.529 5.738z" fill="#fbf198"/><path d="m255.21 63.327c-17 0-32.13 7.966-41.892 20.359 3.549 15.351 13.553 28.391 27.363 33.846l14.529 5.738 14.529-5.738c13.809-5.454 23.814-18.495 27.363-33.846-9.763-12.392-24.892-20.359-41.892-20.359z" fill="#f6ca56"/><g><path d="m315.027 109.764-89.997 8.175c-30.609 2.78-54.707 26.319-58.921 55.958-.799 5.618-3.282 10.832-6.907 15.198-7.523 9.059-12.05 20.692-12.05 33.388v50.769c0 18.073 14.651 32.724 32.724 32.724 18.073 0 32.724-14.651 32.724-32.724v-27.51c0-15.855 10.519-29.785 25.769-34.124 15.533-4.42 32.155 1.554 41.32 14.851l15.807 22.933c6.937 10.064 18.379 16.074 30.602 16.074 20.527 0 37.167-16.64 37.167-37.167v-74.489c.001-26.011-22.333-46.409-48.238-44.056z" fill="#fff8e6"/><path d="m283.981 112.584-58.951 5.355c-30.609 2.78-54.706 26.319-58.921 55.958-.799 5.618-3.282 10.832-6.907 15.198-7.523 9.059-12.05 20.692-12.05 33.388v50.769c0 18.073 14.651 32.724 32.724 32.724 18.073 0 32.724-14.651 32.724-32.724v-27.51c0-15.855 10.519-29.785 25.769-34.124 2.723-.775 5.479-1.223 8.223-1.376 7.3-34.88 20.073-67.746 37.389-97.658z" fill="#fce3a0"/></g><g><path d="m336.575 504.513h-161.136c-22.181 0-40.163-17.981-40.163-40.163v-.071c0-22.181 17.981-40.163 40.163-40.163h161.136c22.181 0 40.163 17.981 40.163 40.163v.071c-.001 22.182-17.982 40.163-40.163 40.163z" fill="#736acc"/><path d="m273.144 424.116h-97.706c-22.181 0-40.163 17.981-40.163 40.163v.071c0 22.181 17.982 40.163 40.163 40.163h153.042c-22.17-23.803-40.883-50.864-55.336-80.397z" fill="#5149bf"/></g></g><g><path d="m352.067 419.215v-61.793c0-4.143-3.358-7.5-7.5-7.5s-7.5 3.357-7.5 7.5v59.207c-.165-.002-.327-.013-.492-.013h-161.136c-.165 0-.328.011-.492.013v-103.466c1.617.199 3.26.313 4.93.313 22.179 0 40.224-18.044 40.224-40.224v-27.511c0-12.44 8.356-23.506 20.322-26.91 12.447-3.544 25.747 1.237 33.092 11.895l15.808 22.932c8.337 12.097 22.085 19.318 36.777 19.318 3.783 0 7.457-.477 10.968-1.367v50.812c0 4.143 3.358 7.5 7.5 7.5s7.5-3.357 7.5-7.5v-57.804c11.31-8.112 18.7-21.36 18.7-36.309v-74.488c0-14.5-6.141-28.425-16.848-38.203s-25.125-14.63-39.57-13.322c0 0-17.642 1.603-17.643 1.603.328-.03 1.257-2.081 1.442-2.407.495-.873.969-1.758 1.419-2.655.884-1.76 1.706-3.568 2.387-5.417 4.466-12.137 5.309-25.395 2.026-37.932-.049-.188-.102-.374-.15-.562-5.425-21.339-19.914-40.44-39.756-52.411-5.549-3.349-12.174-3.351-17.719-.002-19.874 11.982-34.375 31.111-39.785 52.471l-.445 1.76c-1.335 5.555-1.886 11.297-1.659 17.005.227 5.712 1.212 11.376 2.984 16.812.154.474.318.944.483 1.414 2.547 7.239 6.403 13.751 11.216 19.171-31.41 5.099-55.928 29.796-60.464 61.699-.577 4.056-2.393 8.019-5.251 11.462-8.886 10.701-13.78 24.261-13.78 38.18v50.77c0 14.93 8.183 27.977 20.293 34.917v111.046c-18.697 6.449-32.17 24.22-32.17 45.135 0 26.281 21.381 47.663 47.663 47.663h94.929c4.142 0 7.5-3.357 7.5-7.5s-3.358-7.5-7.5-7.5h-94.929c-18.01 0-32.663-14.652-32.663-32.734 0-18.011 14.652-32.663 32.663-32.663h161.136c18.01 0 32.663 14.652 32.663 32.734 0 18.011-14.652 32.663-32.663 32.663h-31.207c-4.142 0-7.5 3.357-7.5 7.5s3.358 7.5 7.5 7.5h31.207c26.281 0 47.663-21.382 47.663-47.734-.003-20.862-13.477-38.622-32.173-45.068zm-111.908-310.181c-8.102-4.32-14.634-12.252-18.09-22.076-.166-.463-.325-.937-.479-1.424 8.672-9.393 20.731-14.712 33.616-14.712 12.889 0 24.948 5.318 33.617 14.71-.156.49-.32.977-.493 1.463-2.703 7.692-7.358 14.317-13.204 18.862zm-19.052-50.359c4.45-17.57 16.475-33.36 32.996-43.32.745-.452 1.47-.45 2.219.001 16.512 9.961 28.534 25.75 32.983 43.319.772 2.805 1.274 5.743 1.503 8.656-10.236-7.425-22.597-11.507-35.602-11.507-13.012 0-25.381 4.093-35.623 11.53.193-2.379.556-4.739 1.111-7.045zm-66.454 163.808c0-10.427 3.665-20.583 10.32-28.598 4.633-5.579 7.594-12.126 8.562-18.933 3.8-26.726 25.255-47.1 52.174-49.544l89.997-8.175c10.401-.954 20.383 2.413 28.097 9.459 7.715 7.046 11.963 16.68 11.963 27.127v74.488c0 16.359-13.309 29.668-29.667 29.668-9.758 0-18.889-4.796-24.426-12.831l-15.808-22.933c-10.998-15.955-30.91-23.112-49.549-17.809-18.379 5.229-31.216 22.229-31.216 41.338v27.511c0 13.908-11.315 25.224-25.224 25.224s-25.224-11.315-25.224-25.224v-50.768z"/><path d="m201.535 342.302c-4.142 0-7.5 3.357-7.5 7.5v10.468c0 4.143 3.358 7.5 7.5 7.5s7.5-3.357 7.5-7.5v-10.468c0-4.142-3.358-7.5-7.5-7.5z"/><path d="m302.979 349.802v10.468c0 4.143 3.358 7.5 7.5 7.5s7.5-3.357 7.5-7.5v-10.468c0-4.143-3.358-7.5-7.5-7.5s-7.5 3.358-7.5 7.5z"/><path d="m264.714 355.031c-2.199 2.522-5.373 3.97-8.708 3.97s-6.509-1.447-8.708-3.97c-2.721-3.122-7.46-3.447-10.582-.727-3.123 2.722-3.448 7.459-.726 10.582 5.048 5.792 12.343 9.114 20.015 9.114s14.967-3.322 20.015-9.114c2.722-3.123 2.396-7.86-.726-10.582-3.121-2.72-7.858-2.395-10.58.727z"/></g></svg>