<svg id="Capa_1" enable-background="new 0 0 512 512" height="512" viewBox="0 0 512 512" width="512" xmlns="http://www.w3.org/2000/svg"><g><g><path d="m414.269 117.866c-13.019 0-24.224 9.351-26.377 22.19-10.601 63.217-65.709 111.542-131.891 111.542-66.183 0-121.291-48.325-131.892-111.542-2.153-12.839-13.359-22.19-26.377-22.19-16.491 0-29.152 14.778-26.439 31.044 13.157 78.859 75.594 141.037 154.582 153.811v58.566h-35.146c-16.638 0-30.125 13.487-30.125 30.125 0 16.638 13.488 30.125 30.125 30.125h35.146v52.838c0 16.638 13.488 30.125 30.125 30.125 16.638 0 30.125-13.487 30.125-30.125v-52.838h35.146c16.638 0 30.125-13.488 30.125-30.125 0-16.638-13.488-30.125-30.125-30.125h-35.146v-58.566c78.988-12.774 141.425-74.951 154.582-153.811 2.714-16.266-9.948-31.044-26.438-31.044z" fill="#00c5fd"/><path d="m241.58 250.819c-59.632-6.423-107.65-52.2-117.471-110.763-2.153-12.839-13.359-22.19-26.377-22.19-16.491 0-29.152 14.778-26.439 31.044 13.157 78.859 75.594 141.037 154.582 153.811v58.566h-35.146c-16.638 0-30.125 13.487-30.125 30.125 0 16.638 13.488 30.125 30.125 30.125h35.146v52.838c0 16.638 13.488 30.125 30.125 30.125 16.638 0 30.125-13.488 30.125-30.125v-52.838h12.533c-30.638-50.819-50.684-108.742-57.078-170.718z" fill="#00adfc"/></g><g><path d="m256 7.5c-54.207 0-98.15 43.943-98.15 98.15s43.944 98.15 98.15 98.15 98.15-43.943 98.15-98.15-43.943-98.15-98.15-98.15zm0 142.763c-24.6 0-44.614-20.013-44.614-44.614s20.014-44.613 44.614-44.613 44.614 20.013 44.614 44.614-20.014 44.613-44.614 44.613z" fill="#00c5fd"/><path d="m243.579 148.49c-18.573-5.394-32.192-22.551-32.192-42.841 0-24.6 20.013-44.614 44.614-44.614 3.325 0 6.562.377 9.682 1.07 6.374-16.984 13.829-33.437 22.283-49.278-10.022-3.449-20.774-5.327-31.966-5.327-54.207 0-98.15 43.943-98.15 98.15 0 48.548 35.25 88.858 81.551 96.745.233-18.278 1.653-36.27 4.178-53.905z" fill="#00adfc"/></g></g><g><path d="m308.114 105.649c0-28.735-23.378-52.113-52.113-52.113-28.736 0-52.114 23.378-52.114 52.113s23.378 52.113 52.114 52.113c28.735.001 52.113-23.377 52.113-52.113zm-89.228 0c0-20.464 16.649-37.113 37.114-37.113 20.464 0 37.113 16.649 37.113 37.113s-16.649 37.114-37.113 37.114-37.114-16.65-37.114-37.114z"/><path d="m256 211.3c58.255 0 105.649-47.395 105.649-105.65.001-58.255-47.394-105.65-105.649-105.65-22.845 0-44.591 7.174-62.887 20.747-3.327 2.468-4.023 7.165-1.555 10.492 2.468 3.325 7.164 4.022 10.492 1.555 15.692-11.641 34.348-17.794 53.95-17.794 49.984 0 90.649 40.665 90.649 90.649s-40.664 90.651-90.649 90.651-90.65-40.666-90.65-90.65c0-17.573 5.033-34.615 14.554-49.284 2.255-3.474 1.267-8.119-2.208-10.374-3.473-2.253-8.119-1.268-10.375 2.208-11.103 17.105-16.972 36.972-16.972 57.45.001 58.255 47.396 105.65 105.651 105.65z"/><path d="m440.477 122.516c-6.54-7.722-16.093-12.15-26.208-12.15-16.807 0-31.01 11.965-33.773 28.45-10.23 61.005-62.588 105.283-124.495 105.283s-114.265-44.278-124.495-105.283c-2.765-16.485-16.968-28.45-33.774-28.45-10.115 0-19.668 4.429-26.208 12.15-6.498 7.671-9.278 17.741-7.628 27.629 6.717 40.257 25.635 76.831 54.711 105.769 27.562 27.431 61.942 45.701 99.769 53.087v44.787h-27.646c-20.747 0-37.625 16.879-37.625 37.625s16.878 37.625 37.625 37.625h27.646v45.338c-.001 20.745 16.878 37.624 37.624 37.624s37.625-16.879 37.625-37.625v-45.338h27.646c20.746 0 37.625-16.879 37.625-37.625s-16.879-37.625-37.625-37.625h-27.646v-44.79c31.894-6.252 61.839-20.493 86.952-41.41 3.183-2.65 3.614-7.38.963-10.562-2.651-3.185-7.382-3.614-10.562-.963-24.698 20.571-54.454 34.146-86.05 39.255-3.633.588-6.303 3.725-6.303 7.404v58.566c0 4.143 3.357 7.5 7.5 7.5h35.146c12.476 0 22.625 10.149 22.625 22.625s-10.149 22.625-22.625 22.625h-35.146c-4.143 0-7.5 3.357-7.5 7.5v52.838c0 12.476-10.149 22.625-22.625 22.625s-22.625-10.149-22.625-22.625v-52.838c0-4.143-3.358-7.5-7.5-7.5h-35.146c-12.476 0-22.625-10.149-22.625-22.625s10.149-22.625 22.625-22.625h35.146c4.142 0 7.5-3.357 7.5-7.5v-58.566c0-3.68-2.67-6.816-6.303-7.404-76.071-12.302-135.701-71.635-148.381-147.641-.923-5.529.637-11.166 4.279-15.466 3.685-4.35 9.065-6.845 14.762-6.845 9.45 0 17.432 6.7 18.98 15.931 5.457 32.537 22.37 62.347 47.626 83.938 25.544 21.838 58.097 33.864 91.663 33.864s66.119-12.026 91.662-33.864c25.256-21.591 42.17-51.401 47.626-83.938 1.548-9.23 9.53-15.931 18.98-15.931 5.697 0 11.077 2.495 14.762 6.846 3.642 4.299 5.201 9.937 4.279 15.465-5.17 30.982-18.518 60.219-38.6 84.548-2.637 3.194-2.185 7.922 1.01 10.559 3.192 2.635 7.92 2.186 10.559-1.01 21.76-26.361 36.224-58.046 41.826-91.628 1.649-9.888-1.131-19.957-7.628-27.629z"/></g></svg>