<svg id="Capa_1" enable-background="new 0 0 512 512" height="512" viewBox="0 0 512 512" width="512" xmlns="http://www.w3.org/2000/svg"><g><g><circle cx="256" cy="256" fill="#00c5fd" r="248.5"/><path d="m149.054 245.069c0-92.244 36.631-175.921 96.12-237.32-132.217 5.669-237.674 114.637-237.674 248.251 0 137.243 111.257 248.5 248.5 248.5 4.141 0 8.257-.106 12.348-.307-73.016-62.561-119.294-155.433-119.294-259.124z" fill="#00adfc"/></g><g><circle cx="255.326" cy="257.064" fill="#a4e7ff" r="198.5"/><path d="m149.054 245.069c0-65.437 18.44-126.56 50.386-178.484-82.328 24.196-142.614 100.424-142.614 190.479 0 97.117 70.109 178.158 162.371 195.195-43.987-57.439-70.143-129.255-70.143-207.19z" fill="#5ad6ff"/></g><g><path d="m342.227 240.292c-8.617 9.945-24.047 9.945-32.664 0l-23.293-26.883c-3.791-4.375-10.578-4.375-14.369 0l-23.292 26.883c-8.617 9.945-24.046 9.946-32.664.001l-23.299-26.888c-3.791-4.374-10.578-4.374-14.368 0l-25.01 26.418c-7.816 9.02-21.464 9.995-30.483 2.18-9.02-7.816-9.996-21.464-2.18-30.484l48.525-53.556c8.617-9.944 24.046-9.944 32.663 0l23.298 26.886c3.791 4.375 10.578 4.374 14.369 0l23.293-26.884c8.617-9.946 24.047-9.946 32.665 0l23.293 26.883c3.791 4.375 10.578 4.375 14.369 0l24.303-25.713c7.815-9.02 21.463-9.997 30.484-2.182 9.02 7.815 9.997 21.463 2.182 30.483z" fill="#00c5fd"/><path d="m157.089 171.253-36.484 40.266c-7.816 9.02-6.84 22.668 2.18 30.484 7.568 6.558 18.383 6.903 26.289 1.523.11-24.808 2.876-48.985 8.015-72.273z" fill="#00adfc"/></g><g><path d="m342.227 356.164c-8.617 9.945-24.047 9.945-32.664 0l-23.293-26.883c-3.791-4.375-10.578-4.375-14.369 0l-23.292 26.883c-8.617 9.945-24.046 9.946-32.664.001l-23.299-26.888c-3.791-4.374-10.578-4.374-14.368 0l-25.01 26.418c-7.816 9.02-21.464 9.995-30.483 2.18-9.02-7.816-9.996-21.464-2.18-30.483l48.525-53.556c8.617-9.944 24.046-9.944 32.663 0l23.298 26.886c3.791 4.375 10.578 4.374 14.369 0l23.293-26.884c8.617-9.946 24.047-9.946 32.665 0l23.293 26.883c3.791 4.375 10.578 4.375 14.369 0l24.303-25.713c7.815-9.02 21.463-9.997 30.484-2.182 9.02 7.815 9.997 21.463 2.182 30.483z" fill="#00c5fd"/><path d="m152.335 292.372-31.73 35.02c-7.816 9.02-6.84 22.668 2.18 30.483 9.02 7.816 22.667 6.84 30.483-2.18l10.543-11.137c-5.139-16.878-8.996-34.311-11.476-52.186z" fill="#00adfc"/></g></g><g><path d="m402.751 171.207c-.555-7.756-4.097-14.832-9.974-19.923-12.087-10.472-30.419-9.201-40.948 2.807l-24.201 25.604c-.074.079-.147.159-.218.241-.496.572-1.098.692-1.516.693-.418 0-1.021-.121-1.516-.692l-23.293-26.884c-5.533-6.385-13.551-10.048-22-10.048s-16.468 3.663-22.001 10.048l-23.293 26.884c-.496.572-1.098.692-1.516.692s-1.02-.12-1.516-.692l-23.298-26.886c-5.532-6.385-13.551-10.046-21.999-10.047-8.418 0-16.412 3.637-21.942 9.981l-48.473 53.498c-.037.041-.074.082-.11.124-10.512 12.13-9.194 30.551 2.936 41.063 12.086 10.473 30.416 9.206 40.946-2.802l24.905-26.308c.075-.08.149-.162.221-.245.496-.572 1.098-.692 1.516-.692s1.021.12 1.516.692l23.3 26.888c5.533 6.385 13.552 10.047 22.001 10.046 8.449 0 16.467-3.663 21.999-10.048l23.292-26.883c.496-.572 1.098-.692 1.516-.692s1.021.12 1.516.692l23.293 26.883c5.533 6.386 13.552 10.048 22.001 10.048 8.426 0 16.424-3.643 21.956-9.997l47.759-52.788c.036-.04.072-.08.107-.121 5.091-5.873 7.59-13.381 7.034-21.136zm-18.325 11.263-47.76 52.79c-.036.04-.072.08-.107.121-2.682 3.095-6.568 4.871-10.664 4.871s-7.982-1.775-10.665-4.871l-23.292-26.883c-3.232-3.73-7.917-5.87-12.853-5.87s-9.621 2.14-12.853 5.87l-23.292 26.882c-2.681 3.095-6.568 4.87-10.663 4.87s-7.982-1.775-10.665-4.87l-23.299-26.888c-3.232-3.73-7.917-5.869-12.852-5.869-4.873 0-9.5 2.085-12.728 5.727l-24.913 26.316c-.075.08-.149.162-.221.245-5.095 5.879-14.024 6.519-19.904 1.423-2.848-2.468-4.565-5.898-4.834-9.657-.267-3.735.927-7.351 3.363-10.191l48.463-53.488c.037-.041.074-.082.11-.124 2.682-3.095 6.569-4.87 10.664-4.87s7.981 1.775 10.663 4.87l23.298 26.886c3.232 3.73 7.917 5.869 12.853 5.869s9.621-2.14 12.853-5.87l23.293-26.884c2.682-3.095 6.569-4.87 10.664-4.87s7.982 1.775 10.664 4.87l23.293 26.884c3.232 3.73 7.917 5.87 12.853 5.87 4.874 0 9.503-2.087 12.731-5.732l24.207-25.611c.074-.079.147-.159.218-.241 2.468-2.849 5.897-4.565 9.657-4.834 3.757-.274 7.399.942 10.248 3.41 2.848 2.468 4.565 5.897 4.834 9.656.267 3.736-.927 7.353-3.364 10.193z"/><path d="m392.778 267.156c-12.089-10.473-30.419-9.2-40.949 2.808l-24.2 25.604c-.074.079-.147.159-.218.241-.496.572-1.098.692-1.516.692s-1.021-.12-1.516-.692l-23.293-26.884c-5.533-6.386-13.552-10.048-22.001-10.048s-16.468 3.663-22 10.048l-23.293 26.884c-.496.572-1.098.692-1.516.692s-1.02-.12-1.516-.692l-23.298-26.886c-5.532-6.385-13.551-10.046-21.999-10.046-8.418 0-16.411 3.636-21.941 9.979l-48.474 53.499c-.037.041-.074.083-.11.124-10.512 12.131-9.194 30.552 2.936 41.063 12.087 10.473 30.417 9.204 40.947-2.803l24.904-26.307c.075-.08.149-.162.221-.245.496-.572 1.098-.692 1.516-.692s1.02.12 1.516.692l23.3 26.888c5.533 6.385 13.552 10.047 22.001 10.046 8.449 0 16.467-3.663 21.999-10.048l23.292-26.883c.496-.572 1.098-.692 1.516-.692s1.021.12 1.516.692l23.293 26.883c5.533 6.386 13.552 10.048 22.001 10.048 8.425 0 16.424-3.643 21.955-9.996l47.759-52.788c.036-.04.072-.08.107-.121 10.51-12.129 9.192-30.549-2.939-41.06zm-8.351 31.186-47.761 52.791c-.036.04-.072.08-.107.121-2.682 3.095-6.568 4.87-10.664 4.87s-7.983-1.775-10.665-4.871l-23.292-26.883c-3.232-3.73-7.917-5.87-12.853-5.87s-9.621 2.14-12.853 5.87l-23.292 26.883c-2.681 3.095-6.568 4.87-10.663 4.871-4.095 0-7.982-1.775-10.665-4.87l-23.299-26.888c-3.232-3.73-7.917-5.869-12.852-5.869-4.872 0-9.5 2.085-12.727 5.726l-24.913 26.317c-.075.08-.149.162-.221.245-5.095 5.88-14.025 6.518-19.904 1.423-5.861-5.079-6.514-13.968-1.472-19.848l48.463-53.488c.037-.041.074-.082.11-.124 2.682-3.095 6.569-4.87 10.664-4.87s7.981 1.775 10.663 4.87l23.298 26.886c3.232 3.73 7.917 5.869 12.853 5.869s9.621-2.14 12.853-5.87l23.293-26.884c2.682-3.095 6.568-4.871 10.664-4.871s7.983 1.775 10.665 4.871l23.293 26.884c3.233 3.73 7.917 5.87 12.854 5.869 4.874 0 9.503-2.087 12.73-5.731l24.207-25.611c.074-.079.147-.159.218-.241 5.096-5.881 14.023-6.519 19.904-1.425 5.861 5.077 6.514 13.967 1.471 19.848z"/><path d="m437.02 74.98c-48.353-48.351-112.64-74.98-181.02-74.98-60.357 0-118.961 21.407-165.019 60.276-3.165 2.671-3.566 7.403-.894 10.569 2.671 3.165 7.402 3.566 10.569.894 43.355-36.589 98.523-56.739 155.344-56.739 132.888 0 241 108.112 241 241s-108.112 241-241 241-241-108.112-241-241c0-59.361 21.772-116.396 61.305-160.599 2.761-3.087 2.497-7.829-.59-10.59s-7.829-2.498-10.59.59c-41.997 46.957-65.125 107.543-65.125 170.599 0 68.38 26.629 132.667 74.98 181.02 48.353 48.351 112.64 74.98 181.02 74.98s132.667-26.629 181.02-74.98c48.351-48.353 74.98-112.64 74.98-181.02s-26.629-132.667-74.98-181.02z"/><path d="m406.135 386.214c3.243 2.577 7.961 2.037 10.538-1.206 29.212-36.764 44.653-81.007 44.653-127.944 0-113.589-92.411-206-206-206s-206 92.411-206 206 92.411 206 206 206c50.065 0 98.362-18.25 135.992-51.387 3.109-2.738 3.41-7.477.672-10.585-2.738-3.109-7.477-3.409-10.585-.672-34.89 30.724-79.666 47.645-126.079 47.645-105.318 0-191-85.682-191-191s85.682-191 191-191 191 85.682 191 191c0 43.514-14.315 84.529-41.397 118.612-2.576 3.242-2.036 7.96 1.206 10.537z"/></g></svg>