<svg id="Capa_1" enable-background="new 0 0 512 512" height="512" viewBox="0 0 512 512" width="512" xmlns="http://www.w3.org/2000/svg"><g><path d="m395.733 246.758h-41.258c-3.721 0-6.737-3.016-6.737-6.737v-124.992c0-18.678-15.142-33.82-33.82-33.82-18.678 0-33.82 15.142-33.82 33.82v125.247c0 3.579-2.902 6.481-6.481 6.481h-72.825c-4.147 0-7.197-3.834-6.323-7.887 16.405-76.014-1.944-157.329-52.066-218.983-13.011-16.004-37.275-16.562-51.171-1.32-11.237 12.325-11.889 31.056-1.369 43.998 43.249 53.209 54.491 126.219 30.225 189.683-9.243 6.037-15.355 16.466-15.355 28.329 0 18.678 15.142 33.82 33.82 33.82h134.358c3.969 0 7.186 3.217 7.186 7.186v149.097c0 18.678 15.142 33.82 33.82 33.82 18.678 0 33.82-15.142 33.82-33.82v-149.096c0-3.969 3.217-7.186 7.186-7.186h40.809c18.678 0 33.82-15.142 33.82-33.82.001-18.679-15.141-33.82-33.819-33.82z" fill="#8ce09f"/><path d="m211.867 293.864c0-15.968 1.051-31.691 3.075-47.107h-14.15c-4.147 0-7.198-3.834-6.323-7.888 16.405-76.014-1.944-157.329-52.066-218.983-13.011-16.004-37.275-16.562-51.171-1.32-11.237 12.325-11.889 31.056-1.369 43.998 43.249 53.209 54.491 126.219 30.225 189.683-9.243 6.037-15.355 16.466-15.355 28.329 0 18.678 15.142 33.82 33.82 33.82h73.899c-.384-6.794-.585-13.639-.585-20.532z" fill="#00c755"/></g><g><path d="m347.738 409.307c-4.143 0-7.5 3.357-7.5 7.5v53.872c0 14.513-11.808 26.32-26.32 26.32s-26.32-11.808-26.32-26.32v-149.095c0-8.098-6.588-14.686-14.686-14.686h-134.359c-14.513 0-26.32-11.808-26.32-26.32 0-8.917 4.47-17.16 11.957-22.05 1.323-.864 2.339-2.124 2.903-3.601 25.415-66.467 13.38-141.988-31.409-197.092-8.089-9.952-7.62-24.661 1.091-34.216 5.188-5.689 12.579-8.819 20.28-8.609 7.622.216 14.74 3.718 19.529 9.608 47.725 58.706 66.624 138.208 50.554 212.669-.9 4.172.117 8.466 2.792 11.78 2.662 3.298 6.621 5.189 10.861 5.189h72.825c7.709 0 13.98-6.271 13.98-13.98v-52.854c0-4.143-3.357-7.5-7.5-7.5s-7.5 3.357-7.5 7.5v51.834h-70.542c8.074-38.283 7.605-78.704-1.369-116.976-9.182-39.158-27.323-76.202-52.463-107.126-7.546-9.281-18.751-14.8-30.743-15.14-12.107-.334-23.657 4.58-31.788 13.5-13.672 14.995-14.38 38.116-1.647 53.782 40.94 50.368 52.286 119.187 29.84 180.14-10.472 7.791-16.65 19.998-16.65 33.142 0 22.784 18.536 41.32 41.32 41.32h134.044v148.781c0 22.784 18.536 41.32 41.32 41.32s41.32-18.536 41.32-41.32v-53.872c0-4.142-3.357-7.5-7.5-7.5z"/><path d="m395.733 239.257h-40.495v-124.228c0-22.783-18.536-41.319-41.32-41.319s-41.32 18.536-41.32 41.319v37.395c0 4.143 3.357 7.5 7.5 7.5s7.5-3.357 7.5-7.5v-37.395c0-14.513 11.808-26.319 26.32-26.319s26.32 11.807 26.32 26.319v124.992c0 7.85 6.387 14.236 14.237 14.236h41.258c14.513 0 26.32 11.808 26.32 26.32s-11.808 26.32-26.32 26.32h-40.809c-8.099 0-14.687 6.588-14.687 14.686v60.224c0 4.143 3.357 7.5 7.5 7.5s7.5-3.357 7.5-7.5v-59.909h40.495c22.784 0 41.32-18.536 41.32-41.32s-18.535-41.321-41.319-41.321z"/></g></svg>