<svg id="Capa_1" enable-background="new 0 0 512.017 512.017" height="512" viewBox="0 0 512.017 512.017" width="512" xmlns="http://www.w3.org/2000/svg"><g><path d="m413.082 66.124c10.418-9.775 13.323-25.171 7.445-38.192-.093-.206-.186-.412-.279-.618-9.489-21.016-36.802-26.448-53.665-10.721-19.716 18.388-32.551 41.625-38.523 66.328h-39.54v-6.683c0-17.955-14.556-32.511-32.511-32.511-17.955 0-32.511 14.556-32.511 32.511v6.683h-39.54c-5.971-24.703-18.806-47.939-38.523-66.328-16.863-15.726-44.176-10.294-53.665 10.722-.093.206-.186.412-.279.618-5.879 13.02-2.973 28.417 7.445 38.192 28.17 26.43 28.17 72.658 0 99.088-10.418 9.775-13.323 25.171-7.445 38.191.093.206.186.412.279.618 9.489 21.016 36.802 26.448 53.665 10.721 19.842-18.505 32.713-41.921 38.634-66.799h39.429v167.66c-37.718 13.378-64.733 49.366-64.733 91.669 0 53.707 43.538 97.244 97.244 97.244s97.244-43.538 97.244-97.244c0-42.304-27.016-78.292-64.733-91.669v-167.66h39.429c5.921 24.878 18.793 48.294 38.634 66.799 16.863 15.727 44.176 10.295 53.665-10.721.093-.206.186-.412.279-.618 5.879-13.02 2.973-28.417-7.445-38.191-28.17-26.431-28.17-72.658 0-99.089zm-157.073 379.358c-21.069 0-38.21-17.14-38.21-38.209s17.141-38.21 38.21-38.21c21.068 0 38.209 17.141 38.209 38.21s-17.141 38.209-38.209 38.209z" fill="#736acc"/><g fill="#5149bf"><path d="m269.845 442.878c-4.294 1.674-8.957 2.604-13.836 2.604-21.069 0-38.21-17.14-38.21-38.209 0-11.934 5.503-22.604 14.101-29.616-8.424-18.112-15.574-36.936-21.335-56.358-30.806 16.316-51.801 48.687-51.801 85.974 0 53.707 43.538 97.244 97.244 97.244 19.227 0 37.149-5.582 52.238-15.21-13.887-14.507-26.729-30.022-38.401-46.429z"/><path d="m197.284 147.944c3-22.287 7.777-44.009 14.183-65.022h-27.51c-5.971-24.703-18.806-47.939-38.523-66.328-16.862-15.727-44.175-10.295-53.664 10.721-.093.206-.186.412-.279.618-5.879 13.02-2.973 28.417 7.445 38.191 28.17 26.43 28.17 72.658 0 99.088-10.418 9.775-13.323 25.172-7.445 38.192.093.206.186.412.279.618 9.489 21.016 36.802 26.448 53.665 10.721 19.842-18.505 32.713-41.921 38.634-66.799z"/></g></g><g><path d="m210.299 407.273c0 25.204 20.505 45.709 45.709 45.709s45.709-20.505 45.709-45.709-20.505-45.709-45.709-45.709-45.709 20.505-45.709 45.709zm45.709-30.709c16.933 0 30.709 13.776 30.709 30.709s-13.776 30.709-30.709 30.709-30.709-13.776-30.709-30.709 13.776-30.709 30.709-30.709z"/><path d="m319.091 471.106c-16.907 16.709-39.31 25.911-63.083 25.911-49.485 0-89.745-40.259-89.745-89.744 0-37.929 24.008-71.928 59.741-84.602 2.993-1.062 4.993-3.893 4.993-7.068v-57.467c0-4.143-3.358-7.5-7.5-7.5s-7.5 3.357-7.5 7.5v52.314c-38.933 16.095-64.733 54.348-64.733 96.822 0 57.756 46.988 104.744 104.745 104.744 27.746 0 53.894-10.74 73.627-30.243 2.946-2.911 2.974-7.66.062-10.606s-7.66-2.975-10.607-.061z"/><path d="m418.214 159.743c-11.922-11.186-18.759-27.25-18.759-44.075 0-16.824 6.837-32.889 18.759-44.073 12.711-11.928 16.388-30.714 9.14-46.767l-.271-.599c-5.522-12.23-16.233-20.759-29.388-23.398-13.182-2.646-26.387 1.1-36.228 10.278-18.645 17.389-32.113 39.526-39.186 64.312h-26.27c-.437-21.686-18.214-39.193-40.003-39.193s-39.566 17.508-40.003 39.193h-26.27c-7.073-24.786-20.542-46.924-39.186-64.313-9.841-9.177-23.047-12.925-36.228-10.277-13.155 2.64-23.866 11.168-29.385 23.392l-.282.624c-7.239 16.034-3.562 34.82 9.148 46.748 11.922 11.185 18.759 27.249 18.759 44.073 0 16.825-6.837 32.89-18.759 44.075-12.711 11.927-16.388 30.713-9.146 46.754l.277.611c5.522 12.23 16.233 20.759 29.388 23.398 13.183 2.647 26.387-1.1 36.228-10.279 18.77-17.505 32.283-39.803 39.318-64.783h26.129v67.692c0 4.143 3.358 7.5 7.5 7.5s7.5-3.357 7.5-7.5v-75.192c0-4.143-3.358-7.5-7.5-7.5h-39.428c-3.473 0-6.492 2.385-7.296 5.764-5.814 24.429-18.42 46.231-36.453 63.051-6.262 5.839-14.663 8.225-23.046 6.542-8.356-1.678-15.16-7.096-18.671-14.871l-.277-.611c-4.6-10.188-2.293-22.099 5.741-29.636 14.932-14.011 23.496-34.062 23.496-55.015s-8.564-41.003-23.496-55.013c-8.034-7.538-10.341-19.448-5.75-29.618l.288-.636c3.508-7.769 10.312-13.187 18.668-14.864 8.383-1.682 16.784.702 23.046 6.541 17.918 16.712 30.487 38.36 36.348 62.605.814 3.367 3.827 5.738 7.29 5.738h39.54c4.142 0 7.5-3.357 7.5-7.5v-6.683c0-13.791 11.22-25.011 25.011-25.011s25.011 11.22 25.011 25.011v6.683c0 4.143 3.358 7.5 7.5 7.5h39.54c3.463 0 6.476-2.371 7.29-5.738 5.861-24.245 18.43-45.894 36.348-62.604 6.262-5.841 14.663-8.224 23.046-6.542 8.356 1.678 15.16 7.096 18.671 14.871l.277.61c4.6 10.188 2.292 22.099-5.741 29.637-14.932 14.01-23.496 34.061-23.496 55.013s8.563 41.004 23.496 55.015c8.034 7.537 10.341 19.447 5.744 29.629l-.282.625c-3.508 7.769-10.312 13.187-18.668 14.864-8.384 1.682-16.784-.702-23.046-6.542-18.033-16.819-30.639-38.622-36.453-63.051-.804-3.379-3.823-5.764-7.296-5.764h-39.428c-4.142 0-7.5 3.357-7.5 7.5v167.659c0 3.176 2 6.007 4.993 7.068 35.733 12.674 59.741 46.673 59.741 84.602 0 12.93-2.688 25.404-7.991 37.077-1.713 3.771-.044 8.217 3.727 9.93 1.006.457 2.06.674 3.098.674 2.851 0 5.577-1.635 6.833-4.4 6.193-13.634 9.334-28.195 9.334-43.28 0-42.475-25.801-80.728-64.733-96.822v-155.008h26.129c7.035 24.98 20.549 47.278 39.318 64.783 9.84 9.179 23.047 12.927 36.228 10.279 13.154-2.64 23.866-11.168 29.385-23.392l.282-.625c7.238-16.033 3.561-34.819-9.15-46.746z"/></g></svg>