<svg id="Capa_1" enable-background="new 0 0 511.942 511.942" height="512" viewBox="0 0 511.942 511.942" width="512" xmlns="http://www.w3.org/2000/svg"><g><g><path d="m467.956 178.582c-3.58-3.58-7.393-6.782-11.387-9.619 2.474-1.991 4.867-4.129 7.164-6.426 34.511-34.511 34.511-90.464 0-124.974-34.511-34.511-90.463-34.511-124.974 0-2.296 2.296-4.435 4.69-6.426 7.164-2.837-3.993-6.04-7.807-9.619-11.387-34.511-34.511-90.463-34.511-124.974 0-27.364 27.364-33.026 68.206-16.996 101.153l-10.388 10.388c-29.111 29.111-29.111 76.308 0 105.418l12.449 12.449-157.333 157.332c-9.85 9.85-9.85 25.821 0 35.671l22.643 22.643c10.006 10.006 26.229 10.007 36.236.003.158-.157.414-.161.572-.003l17.13 17.13c11.911 11.911 31.222 11.911 43.133 0s11.911-31.223 0-43.134l-11.038-11.038c-3.521-3.521-3.521-9.23 0-12.751l15.153-15.153c3.364-3.364 8.818-3.364 12.182 0l6.257 6.257c9.783 9.783 25.644 9.783 35.427 0s9.783-25.644 0-35.427l-8.344-8.344c-2.211-2.211-2.211-5.797 0-8.008l46.58-46.58 9.594 9.594c29.111 29.111 76.308 29.111 105.418 0l10.388-10.388c32.947 16.03 73.79 10.368 101.153-16.996 34.511-34.511 34.511-90.464 0-124.974zm-233.751-110.722c13.602-13.602 35.655-13.602 49.257 0s13.602 35.655 0 49.257-35.655 13.602-49.257 0-13.602-35.655 0-49.257zm148.201 1.773c13.602-13.602 35.655-13.602 49.257 0s13.602 35.655 0 49.257-35.655 13.602-49.257 0-13.602-35.655 0-49.257zm51.03 197.458c-13.602 13.602-35.655 13.602-49.257 0s-13.602-35.655 0-49.257 35.655-13.602 49.257 0 13.602 35.655 0 49.257z" fill="#fbf198"/><path d="m194.822 375.934c-2.211-2.211-2.211-5.797 0-8.008l28.8-28.8c-3.163-20.147-4.811-40.797-4.811-61.833 0-53.642 10.684-104.788 30.03-151.433-5.357-1.599-10.406-4.512-14.636-8.743-13.602-13.602-13.602-35.655 0-49.257 12.636-12.636 32.563-13.526 46.235-2.683 9.276-14.572 19.479-28.495 30.527-41.687-34.479-24.243-82.4-20.976-113.226 9.85-27.364 27.364-33.026 68.206-16.996 101.153l-10.388 10.388c-29.111 29.111-29.111 76.308 0 105.418l12.449 12.449-157.334 157.332c-9.85 9.85-9.85 25.821 0 35.671l22.643 22.643c10.006 10.006 26.229 10.007 36.236.003.158-.157.414-.161.572-.003l17.13 17.13c11.911 11.911 31.222 11.911 43.133 0s11.911-31.223 0-43.134l-11.038-11.038c-3.521-3.521-3.521-9.23 0-12.751l15.153-15.153c3.364-3.364 8.818-3.364 12.182 0l6.257 6.257c9.783 9.783 25.644 9.783 35.427 0s9.783-25.644 0-35.427z" fill="#f9d171"/><ellipse cx="203.437" cy="176.881" fill="#ffa1ac" rx="25.136" ry="31.564" transform="matrix(.707 -.707 .707 .707 -65.489 195.66)"/></g><ellipse cx="324.415" cy="297.859" fill="#ffa1ac" rx="25.136" ry="31.564" transform="matrix(.707 -.707 .707 .707 -115.6 316.635)"/></g><g><path d="m436.966 124.193c16.504-16.505 16.504-43.359 0-59.864-16.507-16.505-43.359-16.503-59.864 0-16.504 16.505-16.504 43.36 0 59.865 8.253 8.252 19.093 12.378 29.932 12.378 10.84 0 21.68-4.126 29.932-12.379zm-49.256-49.257c5.161-5.162 12.024-8.005 19.325-8.005 7.3 0 14.163 2.843 19.324 8.005 10.656 10.655 10.656 27.994 0 38.65-10.653 10.654-27.994 10.656-38.649 0-10.657-10.656-10.657-27.994 0-38.65z"/><path d="m378.876 272.395c7.995 7.994 18.625 12.397 29.932 12.397s21.937-4.403 29.931-12.398c16.505-16.504 16.506-43.358.001-59.864-16.504-16.502-43.358-16.503-59.864.001-16.504 16.504-16.504 43.359 0 59.864-.001 0 0 0 0 0zm10.605-49.258c10.657-10.658 27.996-10.655 38.651-.001 10.656 10.657 10.655 27.995-.001 38.651-5.161 5.162-12.024 8.005-19.324 8.005s-14.163-2.843-19.326-8.005h.001c-10.654-10.656-10.655-27.995-.001-38.65z"/><path d="m501.302 238.33c-.116-4.067-3.449-7.286-7.493-7.286-.072 0-.145.001-.218.003-4.14.118-7.401 3.57-7.283 7.711.641 22.474-7.762 43.603-23.66 59.495-24.374 24.375-61.574 30.627-92.567 15.559-2.875-1.397-6.32-.819-8.58 1.439l-10.393 10.383c-26.135 26.134-68.67 26.135-94.813.001-4.124-4.125-9.728-12.608-16.283-11.589-5.108.794-10.447 8.531-14.095 12.178-5.176 5.176-10.353 10.353-15.529 15.529-6.957 6.957-13.913 13.913-20.87 20.87-5.131 5.132-5.132 13.483 0 18.618l8.346 8.345c3.313 3.307 5.138 7.714 5.138 12.411 0 4.69-1.824 9.095-5.144 12.406-3.313 3.314-7.72 5.139-12.406 5.139-4.688 0-9.094-1.824-12.407-5.139l-6.26-6.259c-3.041-3.042-7.087-4.718-11.394-4.718-4.305 0-8.352 1.676-11.394 4.717l-15.149 15.149c-3.127 3.128-4.848 7.281-4.844 11.695.003 4.409 1.727 8.554 4.842 11.659l11.036 11.047c4.34 4.333 6.729 10.108 6.729 16.263s-2.39 11.93-6.734 16.267c-8.966 8.967-23.555 8.967-32.522 0l-17.13-17.13c-1.494-1.493-3.479-2.316-5.589-2.316s-4.095.823-5.586 2.314c-7.068 7.061-18.569 7.061-25.634.004l-22.642-22.652c-6.91-6.909-6.91-18.153 0-25.062l43.209-43.209c2.929-2.93 2.929-7.678 0-10.607-2.93-2.928-7.678-2.928-10.607 0l-43.209 43.209c-12.757 12.758-12.757 33.518 0 46.274l22.645 22.654c11.191 11.182 28.464 12.675 41.281 4.472l12.655 12.656c7.409 7.408 17.14 11.112 26.87 11.111 9.729 0 19.458-3.703 26.862-11.107 7.179-7.167 11.132-16.712 11.132-26.878s-3.953-19.711-11.125-26.871l-11.04-11.051c-.365-.364-.442-.776-.442-1.059 0-.285.077-.703.451-1.076l15.149-15.149c.267-.268.575-.324.786-.324.212 0 .52.057.787.324l6.26 6.259c6.146 6.147 14.319 9.532 23.014 9.532 8.693 0 16.866-3.385 23.008-9.526 6.153-6.141 9.542-14.315 9.542-23.019 0-8.709-3.389-16.888-9.536-23.023l-7.042-7.042 39.978-39.978 4.287 4.288c15.999 15.992 37.006 23.985 58.018 23.985 21.006 0 42.018-7.996 58.006-23.984l6.726-6.72c11.917 4.989 24.479 7.423 36.958 7.422 24.898-.002 49.463-9.689 67.858-28.085 18.845-18.838 28.806-43.887 28.047-70.529z"/><path d="m288.764 122.42c7.996-7.995 12.399-18.625 12.399-29.932s-4.403-21.937-12.398-29.933c-16.506-16.504-43.358-16.505-59.864.001-16.504 16.505-16.504 43.359 0 59.863 7.996 7.995 18.626 12.398 29.933 12.398 11.306.002 21.936-4.401 29.93-12.397zm-49.256-49.256c5.327-5.328 12.326-7.992 19.325-7.992 6.998 0 13.997 2.664 19.324 7.992 5.163 5.162 8.006 12.025 8.006 19.325s-2.843 14.163-8.006 19.325c-5.161 5.162-12.024 8.005-19.324 8.005s-14.163-2.843-19.325-8.006c-10.656-10.655-10.656-27.993 0-38.649z"/><path d="m237.374 158.352-9.123 9.124c-2.929 2.929-2.929 7.678.001 10.606 1.464 1.464 3.384 2.196 5.303 2.196s3.839-.732 5.304-2.197l9.123-9.124c2.929-2.929 2.929-7.678-.001-10.606-2.929-2.928-7.678-2.929-10.607.001z"/><path d="m332.337 253.314-9.124 9.124c-2.929 2.93-2.929 7.678 0 10.607 1.465 1.464 3.385 2.196 5.304 2.196s3.839-.732 5.304-2.196l9.124-9.124c2.929-2.93 2.929-7.678 0-10.607-2.931-2.928-7.679-2.928-10.608 0z"/><path d="m292.209 240.063c.708 0 1.418-.024 2.129-.073 4.133-.283 7.253-3.863 6.97-7.995-.283-4.133-3.878-7.238-7.995-6.97-4.617.323-9.142-1.372-12.404-4.637-3.265-3.264-4.954-7.784-4.637-12.403.284-4.133-2.836-7.713-6.968-7.997-4.142-.262-7.713 2.836-7.997 6.968-.614 8.947 2.664 17.709 8.994 24.04 5.827 5.826 13.712 9.067 21.908 9.067z"/><path d="m93.575 359.473c1.919 0 3.839-.732 5.304-2.196l89.227-89.227c2.929-2.93 2.929-7.678 0-10.607l-12.45-12.45c-26.136-26.135-26.136-68.668-.003-94.811l10.391-10.38c2.264-2.261 2.843-5.71 1.443-8.587-15.076-30.989-8.823-68.192 15.56-92.575 31.529-31.532 82.833-31.53 114.362 0 3.188 3.188 6.154 6.699 8.813 10.436 1.362 1.912 3.54 3.077 5.887 3.147 2.382.074 4.591-.963 6.063-2.791 1.878-2.33 3.856-4.534 5.894-6.562 15.273-15.274 35.581-23.687 57.181-23.687 21.601 0 41.908 8.412 57.183 23.687 15.273 15.273 23.686 35.581 23.686 57.182 0 21.6-8.412 41.907-23.698 57.193-1.992 2.001-4.139 3.929-6.563 5.893-1.824 1.477-2.852 3.722-2.776 6.066.074 2.346 1.242 4.521 3.156 5.879 3.677 2.607 7.181 5.57 10.417 8.807 6.855 6.854 12.358 14.752 16.358 23.477 1.727 3.766 6.176 5.422 9.942 3.692 3.766-1.726 5.419-6.178 3.692-9.942-4.744-10.352-11.268-19.716-19.387-27.834-1.614-1.613-3.286-3.171-5.006-4.664.264-.259.525-.518.785-.778 18.107-18.107 28.079-42.182 28.079-67.788 0-25.607-9.972-49.682-28.079-67.788-18.107-18.108-42.182-28.08-67.789-28.08-25.606 0-49.681 9.972-67.776 28.068-.264.263-.526.527-.789.795-1.501-1.733-3.06-3.408-4.665-5.015-37.379-37.378-98.198-37.376-135.577 0-27.624 27.625-35.617 69.13-20.666 104.823l-6.726 6.718c-31.981 31.994-31.981 84.043.001 116.026l7.146 7.146-83.923 83.923c-2.929 2.93-2.929 7.678 0 10.607 1.464 1.465 3.384 2.197 5.303 2.197z"/></g></svg>