<svg id="Capa_1" enable-background="new 0 0 512 512" height="512" viewBox="0 0 512 512" width="512" xmlns="http://www.w3.org/2000/svg"><g><g><path d="m406.3 366.54-59.834-184.744c-5.115-15.793-16.792-28.093-31.426-34.299-3.337-1.415-5.452-4.752-5.452-8.377v-61.194h-107.283v61.195c0 3.625-2.115 6.962-5.452 8.377-14.634 6.205-26.312 18.506-31.426 34.299l-59.834 184.743c-3.633 11.216-3.633 23.293 0 34.51l20.957 64.706c7.481 23.099 28.995 38.745 53.275 38.745h152.244c24.28 0 45.794-15.646 53.275-38.745l20.957-64.706c3.632-11.217 3.632-23.294-.001-34.51z" fill="#a4e7ff"/><path d="m222.396 220.06c0-50.273 9.814-98.253 27.624-142.134h-47.716v61.195c0 3.625-2.115 6.962-5.452 8.377-14.634 6.205-26.312 18.506-31.427 34.299l-59.834 184.743c-3.633 11.216-3.633 23.293 0 34.51l20.957 64.706c7.481 23.099 28.995 38.745 53.275 38.745h152.244c5.696 0 11.237-.871 16.483-2.488-77.42-69.247-126.154-169.907-126.154-281.953z" fill="#5ad6ff"/></g><g><path d="m288.416 312.912c-7.733-5.198-15.687-9.757-23.764-13.748-62.389-30.834-137.617 1.169-159.06 67.375-3.633 11.216-3.633 23.293 0 34.51l20.957 64.706c7.481 23.099 28.995 38.745 53.275 38.745h152.244c24.28 0 45.794-15.646 53.275-38.745l20.957-64.706c3.633-11.216 3.633-23.293 0-34.509l-.137-.424c-6.952-21.466-27.589-35.204-50.118-33.962-21.483 1.184-44.555-3.732-67.629-19.242z" fill="#8ce09f"/><path d="m228.533 288.245c-52.663-6.667-105.531 24.538-122.941 78.294-3.633 11.216-3.633 23.293 0 34.51l20.957 64.706c7.481 23.099 28.995 38.745 53.275 38.745h152.244c5.696 0 11.237-.871 16.483-2.488-61.335-54.859-104.661-129.433-120.018-213.767z" fill="#00c755"/></g><g><path d="m293.807 95.17h-75.721c-16.109 0-29.168-13.059-29.168-29.168v-29.334c0-16.109 13.059-29.168 29.168-29.168h75.721c16.109 0 29.168 13.059 29.168 29.168v29.335c0 16.109-13.059 29.167-29.168 29.167z" fill="#d97c41"/><path d="m287.751 7.5h-69.666c-16.109 0-29.168 13.059-29.168 29.168v29.334c0 16.109 13.059 29.168 29.168 29.168h25.424c10.951-31.307 25.903-60.734 44.242-87.67z" fill="#af602d"/></g><g fill="#fff"><ellipse cx="174.384" cy="427.507" rx="30.095" ry="23.966"/><ellipse cx="337.508" cy="427.507" rx="30.095" ry="23.966"/></g></g><g><path d="m415.439 395.009c3.703-23.095-7.058-46.363-14.113-68.15-5.277-16.294-10.554-32.589-15.831-48.883-1.276-3.94-5.505-6.102-9.445-4.824-3.94 1.275-6.101 5.505-4.824 9.445l16.007 49.427c-9.355-5.286-20.263-7.994-31.601-7.359-22.257 1.225-43.46-4.821-63.032-17.978-7.746-5.207-16.031-10-24.624-14.247-1.497-.74-3.01-1.437-4.529-2.111v-68.968l78.312-29.754 18.453 56.981c1.027 3.173 3.969 5.191 7.133 5.191.766 0 1.545-.118 2.312-.367 3.94-1.275 6.101-5.505 4.824-9.445l-20.881-64.479c-5.68-17.531-18.67-31.708-35.623-38.888-.533-.228-.892-.822-.892-1.48v-44.808c8.17-6.731 13.389-16.922 13.389-28.309v-29.335c.001-20.219-16.448-36.668-36.667-36.668h-75.721c-20.219 0-36.668 16.449-36.668 36.668v29.335c0 11.387 5.218 21.578 13.389 28.309v44.808c0 .658-.358 1.253-.875 1.474-16.981 7.191-29.973 21.37-35.64 38.896-17.982 55.523-35.738 111.039-54.281 166.288-6.131 18.268-11.656 38.738-5.553 57.582 0 0 13.823 42.68 13.823 42.681 4.052 12.512 6.785 25.563 14.196 36.649 11.969 17.905 31.667 29.31 53.349 29.31h152.242c26.914 0 52.055-18.132 60.414-43.939l8.656-26.733s12.296-37.968 12.296-37.968c.901-2.78 1.558-5.564 2.005-8.351zm-219.021-358.341c0-11.947 9.72-21.668 21.668-21.668h75.721c11.948 0 21.668 9.721 21.668 21.668v29.335c0 11.948-9.72 21.668-21.668 21.668h-75.721c-11.948 0-21.668-9.72-21.668-21.668zm3.38 117.731c6.08-2.593 10.009-8.59 10.009-15.279v-37.403c2.663.617 5.432.954 8.279.954h75.721c2.848 0 5.617-.337 8.279-.954v37.403c0 6.689 3.929 12.687 10.025 15.286 10.752 4.553 19.401 12.788 24.517 23.104l-80.682 30.653-80.685-30.655c5.112-10.311 13.764-18.547 24.537-23.109zm-29.664 37.208 78.313 29.754v63.46c-26.632-7.828-55.371-6.335-81.394 4.645-13.568 5.725-25.807 13.779-36.27 23.648zm93.312 305.393v-40.172c0-4.143-3.357-7.5-7.5-7.5s-7.5 3.357-7.5 7.5v40.172s-68.611 0-68.62 0c-25.909 0-41.9-19.264-48.954-42.238-5.053-16.454-10.611-32.77-15.913-49.146-.743-2.294-1.485-4.588-2.229-6.883-12.89-39.811 26.574-81.278 60.154-95.447 13.275-5.602 27.355-8.39 41.409-8.39 11.558 0 23.096 1.897 34.153 5.656v45.822c0 4.143 3.357 7.5 7.5 7.5s7.5-3.357 7.5-7.5v-39.397c7.238 3.683 14.23 7.752 20.786 12.159 22.339 15.016 46.657 21.917 72.224 20.505 26.705-1.475 46.792 21.59 44.745 47.625-1.036 13.175-6.799 26.166-10.85 38.677-2.454 7.58-4.845 15.186-7.364 22.744-4.307 12.921-6.977 24.959-17.388 34.739-9.012 8.468-21.16 13.574-33.532 13.574z"/><path d="m191.923 384.634c-4.143 0-7.5 3.357-7.5 7.5v12.303c0 4.143 3.357 7.5 7.5 7.5s7.5-3.357 7.5-7.5v-12.303c0-4.143-3.357-7.5-7.5-7.5z"/><path d="m319.969 384.634c-4.143 0-7.5 3.357-7.5 7.5v12.303c0 4.143 3.357 7.5 7.5 7.5s7.5-3.357 7.5-7.5v-12.303c0-4.143-3.358-7.5-7.5-7.5z"/><path d="m277.753 398.416c-3.125-2.721-7.861-2.396-10.582.727-2.834 3.252-6.925 5.117-11.225 5.117s-8.391-1.865-11.225-5.117c-2.723-3.122-7.46-3.447-10.582-.727-3.122 2.722-3.448 7.459-.727 10.582 5.684 6.521 13.896 10.262 22.533 10.262s16.85-3.74 22.533-10.262c2.723-3.123 2.397-7.86-.725-10.582z"/></g></svg>