<svg id="Capa_1" enable-background="new 0 0 512 512" height="512" viewBox="0 0 512 512" width="512" xmlns="http://www.w3.org/2000/svg"><g><path d="m133.367 31.183 5.188 3.408c1.97 1.295 4.271 1.997 6.628 2.024l6.207.071c9.745.111 15.514 10.952 10.163 19.097l-3.408 5.188c-1.295 1.97-1.997 4.271-2.024 6.628l-.071 6.207c-.111 9.745-10.952 15.514-19.097 10.163l-5.188-3.408c-1.97-1.295-4.271-1.997-6.628-2.024l-6.207-.071c-9.745-.111-15.514-10.952-10.163-19.097l3.408-5.188c1.295-1.97 1.997-4.271 2.024-6.628l.071-6.207c.112-9.745 10.952-15.514 19.097-10.163z" fill="#fbf198"/><g><path d="m443.448 492.356h-374.886c-33.721 0-61.057-27.336-61.057-61.057v-172.6c0-33.721 27.336-61.057 61.057-61.057h374.886c33.721 0 61.057 27.336 61.057 61.057v172.599c0 33.721-27.336 61.058-61.057 61.058z" fill="#827cd2"/><path d="m153.672 264.4c0-22.941 2.571-45.28 7.414-66.757h-92.524c-33.721 0-61.057 27.336-61.057 61.057v172.599c0 33.721 27.336 61.057 61.057 61.057h188.928c-63.609-55.4-103.818-136.98-103.818-227.956z" fill="#736acc"/></g><g><path d="m335.696 285.019h-287.44v103.109c0 19.42 15.743 35.163 35.163 35.163h252.277z" fill="#f9d171"/><path d="m154.386 285.019h-106.13v103.109c0 19.42 15.743 35.163 35.163 35.163h115.373c-25.196-40.676-41.002-87.771-44.406-138.272z" fill="#f1b70b"/></g><path d="m428.331 423.291h-172.456v-138.272h207.619v103.109c0 19.42-15.743 35.163-35.163 35.163z" fill="#fce3a0"/><path d="m381.18 150.514h-65.127c-33.15 0-60.023 26.873-60.023 60.023v145.311c0 .058 0 .116.001.174.06 7.845 8.282 13.037 15.477 9.91 17.148-7.452 42.601-12.175 71.02-12.175 35.89 0 67.056 7.531 82.728 18.582 5.367 3.784 11.706 5.948 18.273 5.948h.059c11.166 0 20.217-9.051 20.217-20.217v-124.932c-.001-45.632-36.993-82.624-82.625-82.624z" fill="#fff8e6"/><g><path d="m130.807 150.514h65.127c33.15 0 60.023 26.873 60.023 60.023v145.311c0 .058 0 .116-.001.174-.06 7.845-8.282 13.037-15.477 9.91-17.148-7.452-42.601-12.175-71.02-12.175-35.89 0-67.055 7.531-82.728 18.582-5.367 3.784-11.706 5.948-18.273 5.948h-.058c-11.166 0-20.217-9.051-20.217-20.217v-124.932c0-45.632 36.992-82.624 82.624-82.624z" fill="#fce3a0"/><path d="m153.672 264.4c0-40.294 7.906-78.735 22.22-113.886h-45.084c-45.632 0-82.624 36.992-82.624 82.624v124.931c0 11.166 9.051 20.217 20.217 20.217h.059c6.567 0 12.906-2.164 18.273-5.948 15.33-10.808 45.484-18.245 80.381-18.566-8.735-28.245-13.442-58.258-13.442-89.372z" fill="#f9d171"/></g><g><path d="m323.705 161.316c-3.53-20.934-16.889-37.739-34.479-47.63-8.36-4.701-13.398-13.683-13.398-23.274v-40.137h-46.74v40.137c0 9.591-5.038 18.573-13.398 23.274-17.59 9.891-30.95 26.696-34.479 47.63-5.788 33.911 25.971 67.507 71.248 67.493 45.275.015 77.034-33.581 71.246-67.493z" fill="#a4e7ff"/><path d="m236.501 139.058c0-33.778 12.084-64.731 32.159-88.783h-39.573v40.137c0 9.591-5.038 18.573-13.398 23.274-17.59 9.891-30.95 26.696-34.479 47.63-5.788 33.911 25.971 67.507 71.248 67.493 5.487.002 10.77-.499 15.817-1.426-19.847-23.985-31.774-54.762-31.774-88.325z" fill="#5ad6ff"/></g><path d="m267.145 60.928h-29.376c-11.4 0-20.642-9.242-20.642-20.642 0-11.4 9.242-20.642 20.642-20.642h29.376c11.4 0 20.642 9.242 20.642 20.642 0 11.4-9.242 20.642-20.642 20.642z" fill="#e4996d"/><circle cx="349.443" cy="86.012" fill="#ff89ca" r="15.453"/><g><path d="m252.457 153.686c-13.33-10.001-28.824-13.846-43.62-14.594-13.386-.677-25.312 8.782-27.588 21.99-.013.078-.027.156-.04.234-5.788 33.911 25.971 67.507 71.248 67.493 45.277.015 77.036-33.582 71.248-67.493-.007-.042-.014-.084-.021-.127-1.039-6.087-7.645-9.497-13.274-6.957-18.686 8.43-40.513 12.539-57.953-.546z" fill="#ff89ca"/><path d="m236.63 144.845c-9.073-3.615-18.569-5.286-27.793-5.753-13.386-.677-25.312 8.782-27.588 21.99-.013.078-.027.156-.04.234-5.788 33.911 25.971 67.507 71.248 67.493 5.487.002 10.77-.499 15.817-1.426-18.699-22.599-30.358-51.23-31.644-82.538z" fill="#ff5fb7"/></g><circle cx="126.181" cy="154.519" fill="#ff89ca" r="15.453"/><circle cx="383.475" cy="145.799" fill="#ff89ca" r="19.929"/><g fill="#ffa1ac"><ellipse cx="176.448" cy="307.044" rx="29.355" ry="23.377"/><ellipse cx="335.561" cy="307.044" rx="29.355" ry="23.377"/></g></g><g><path d="m118.845 85.964 6.205.07c.926.011 1.824.285 2.597.794l5.188 3.408c3.294 2.164 7.085 3.257 10.887 3.257 3.193 0 6.394-.771 9.315-2.325 6.401-3.407 10.428-10.027 10.511-17.277l.071-6.207c.011-.925.285-1.822.792-2.596l3.408-5.188c3.981-6.06 4.339-13.801.933-20.202-3.407-6.401-10.027-10.43-17.278-10.512l-6.205-.07c-.926-.011-1.824-.285-2.597-.794l-5.188-3.408c-6.06-3.981-13.801-4.338-20.203-.932-6.401 3.406-10.429 10.027-10.512 17.277l-.071 6.207c-.011.925-.285 1.822-.792 2.596l-3.408 5.188c-3.981 6.06-4.339 13.801-.933 20.202 3.408 6.402 10.028 10.43 17.28 10.512zm-3.81-22.478 3.409-5.188c2.086-3.176 3.211-6.862 3.255-10.66l.071-6.206c.029-2.584 1.8-3.803 2.56-4.207.433-.23 1.269-.586 2.308-.586.784 0 1.683.202 2.611.812l5.187 3.407c3.175 2.086 6.861 3.212 10.662 3.257l6.206.07c2.583.029 3.803 1.8 4.207 2.56s1.191 2.76-.227 4.919l-3.409 5.188c-2.086 3.176-3.211 6.862-3.255 10.66l-.071 6.206c-.029 2.584-1.8 3.803-2.56 4.207s-2.761 1.191-4.919-.227l-5.187-3.407c-3.175-2.086-6.861-3.212-10.662-3.257l-6.206-.07c-2.583-.029-3.802-1.8-4.207-2.56-.404-.758-1.191-2.758.227-4.918z"/><path d="m349.443 108.965c12.656 0 22.953-10.297 22.953-22.953s-10.297-22.953-22.953-22.953-22.953 10.296-22.953 22.953 10.297 22.953 22.953 22.953zm0-30.906c4.385 0 7.953 3.567 7.953 7.953s-3.568 7.953-7.953 7.953-7.953-3.567-7.953-7.953 3.568-7.953 7.953-7.953z"/><path d="m465.277 193.696c-.769-.258-1.575-.39-2.387-.39h-.01c-.279 0-.553.018-.823.047-10.277-20.893-28.472-37.444-51.249-45.351.058-.728.096-1.462.096-2.204 0-15.124-12.305-27.429-27.429-27.429-14.185 0-25.889 10.824-27.288 24.646h-30.21c-2.65-6.022-6.124-11.698-10.391-16.917-.074-.091-.149-.179-.227-.265-6.17-7.486-13.722-13.771-22.453-18.686-5.907-3.321-9.576-9.733-9.576-16.733v-27.127c7.225-5.099 11.957-13.505 11.957-23 0-15.518-12.625-28.143-28.142-28.143h-29.376c-15.518 0-28.142 12.625-28.142 28.143 0 9.499 4.735 17.906 11.963 23.005v27.125c0 7-3.669 13.412-9.574 16.732-8.664 4.868-16.193 11.12-22.38 18.583-4.401 5.311-7.975 11.113-10.691 17.285h-32.903c-.921-1.588-2.031-3.079-3.335-4.432-4.815-4.994-11.558-7.521-18.488-6.94-9.049.763-16.661 7.008-19.636 15.263-24.405 7.387-43.906 24.483-54.679 46.416-1.017-.099-2.07.004-3.102.351-27.994 9.361-46.802 35.492-46.802 65.021v172.6c0 37.805 30.756 68.561 68.56 68.561h285.958c4.142 0 7.5-3.357 7.5-7.5s-3.358-7.5-7.5-7.5h-285.958c-29.533 0-53.56-24.027-53.56-53.561v-172.6c0-20.033 11.082-38.057 28.317-47.246-1.718 6.974-2.637 14.239-2.637 21.687l.08 154.989c0 23.522 19.137 42.66 42.66 42.66h46.403c4.142 0 7.5-3.357 7.5-7.5s-3.358-7.5-7.5-7.5h-46.403c-15.252 0-27.66-12.408-27.66-27.66v-5.349c3.803 1.929 8.118 3.009 12.7 3.009 7.994 0 15.807-2.532 22.592-7.321 14.825-10.453 45.602-17.208 78.408-17.208 26.348 0 51.144 4.213 68.034 11.56 3.529 1.532 7.373 1.906 11.036 1.172v41.797h-78.65c-4.142 0-7.5 3.357-7.5 7.5s3.358 7.5 7.5 7.5c0 0 246.731-.087 268.519-1.158.623-.031 1.24-.14 1.837-.323 16.257-5.002 28-18.839 29.262-34.46 1.209-10.95 1.803-161.708 1.803-161.708 0-7.451-.924-14.727-2.656-21.714 17.255 9.181 28.355 27.228 28.355 47.273v172.61c0 29.527-24.022 53.55-53.55 53.55h-55.69c-4.142 0-7.5 3.357-7.5 7.5s3.358 7.5 7.5 7.5h55.69c37.798 0 68.55-30.751 68.55-68.55v-172.61c0-29.497-18.776-55.618-46.723-65zm-81.802-60.326c6.854 0 12.429 5.575 12.429 12.429s-5.576 12.429-12.429 12.429-12.429-5.575-12.429-12.429 5.576-12.429 12.429-12.429zm-66.648 37.467c-.143 6.303-2.083 12.685-4.938 18.208-11.342 22.332-35.782 31.33-56.232 32.157h-.001c-24.288.971-46.845-8.986-58.925-26.006-.055-.083-.112-.165-.17-.246-7.158-9.963-10.052-22.491-7.741-33.515.009-.042.017-.083.025-.125.476-2.484 1.119-4.912 1.899-7.256 3.767-4.701 11.036-7.788 17.721-7.468 15.664.783 28.952 5.19 39.495 13.1 9.353 7.015 20.434 10.328 32.947 9.847.024-.001.048-.002.072-.003 9.967-.386 20.905-3.23 32.508-8.454 1.364-.484 2.411.049 2.785 1.292.479 2.789.7 5.637.555 8.469zm-79.058-143.693h29.376c7.247 0 13.142 5.896 13.142 13.143 0 7.246-5.896 13.142-13.142 13.142h-29.376c-7.247 0-13.142-5.896-13.142-13.142-.001-7.248 5.895-13.143 13.142-13.143zm-18.403 93.08c10.624-5.973 17.224-17.395 17.224-29.808v-22.018c.391.016.783.03 1.179.03h29.376c.397 0 .792-.014 1.185-.03v22.018c0 12.413 6.6 23.835 17.221 29.807 7.195 4.049 13.389 9.22 18.41 15.368.068.083.138.165.209.245 2.643 3.266 4.902 6.745 6.757 10.402-1.222.252-2.428.634-3.596 1.159-9.814 4.418-18.854 6.821-26.871 7.142-.025.001-.051.002-.077.003-9.136.359-16.792-1.882-23.423-6.854-12.978-9.736-29.042-15.146-47.739-16.081-1.595-.082-3.194-.04-4.786.093 4.333-4.473 9.33-8.329 14.931-11.476zm-93.889 26.368c.23-.02.459-.029.688-.029 2.17 0 4.232.867 5.743 2.434.982 1.019 2.569 3.225 2.166 6.557v.001c-.43 3.549-3.442 6.503-7.008 6.872-4.013.422-7.732-2.209-8.632-6.117-.153-.657-.22-1.301-.205-1.967.089-4.012 3.273-7.416 7.248-7.751zm122.983 209.377c-.012 1.538-.985 2.399-1.564 2.776-.5.325-1.834 1.006-3.424.313-18.704-8.136-45.68-12.802-74.012-12.802-36.245 0-69.602 7.645-87.055 19.951-4.243 2.995-9.065 4.578-14.005 4.578-6.472 0-11.982-4.991-12.64-11.377l-.08-126.272c0-31.81 19.809-59.705 49.064-70.467 3.365 8.852 11.926 14.8 21.478 14.8.789 0 1.586-.041 2.387-.124 10.3-1.066 18.701-9.147 20.246-19.329h25.358c-.027.135-.06.269-.086.404-3.172 15.225.525 31.662 10.149 45.137.024.035.048.07.073.104l-.001.002c13.845 19.669 37.423 31.505 64.113 32.527v19.105c0 4.143 3.358 7.5 7.5 7.5s7.5-3.357 7.5-7.5v-19.675c13.443-1.55 26.042-5.878 36.781-12.702 13.91-8.838 23.927-21.47 28.971-36.53l.037-.111c2.714-8.547 3.336-17.708 1.802-26.478-.003-.017-.007-.033-.01-.049-.001-.008-.002-.017-.004-.025-.002-.009-.005-.018-.006-.027-.098-.563-.216-1.122-.328-1.682h28.224c4.502 9.007 13.811 15.211 24.547 15.211 9.041 0 17.072-4.399 22.071-11.167 30.148 10.306 50.753 38.758 50.753 71.076 0 0-.448 127.353-.448 128.241-1.474 5.487-6.525 9.409-12.322 9.409-4.888 0-9.708-1.582-13.95-4.581-17.46-12.305-50.816-19.948-87.05-19.948-28.331 0-55.307 4.666-74.002 12.798-1.605.696-2.938.015-3.437-.309-.578-.377-1.549-1.237-1.561-2.72v-.18c0-.33-.029-.652-.07-.971v-30.649c0-4.143-3.358-7.5-7.5-7.5s-7.5 3.357-7.5 7.5v31.743zm206.092 37.593c-.717 9.324-7.859 17.719-17.881 21.133-36.043 1.732-151.145.591-173.141.839v-41.532c3.641.713 7.459.336 10.972-1.187 16.885-7.345 41.681-11.558 68.028-11.558 32.797 0 63.575 6.755 78.4 17.203 6.779 4.793 14.594 7.326 22.66 7.326 4.185 0 8.199-.968 11.816-2.688-.189 3.376-.448 6.768-.83 10.21-.01.085-.017.169-.024.254z"/><path d="m193.556 265.04c-4.142 0-7.5 3.357-7.5 7.5v12c0 4.143 3.358 7.5 7.5 7.5s7.5-3.357 7.5-7.5v-12c0-4.143-3.358-7.5-7.5-7.5z"/><path d="m318.454 292.04c4.142 0 7.5-3.357 7.5-7.5v-12c0-4.143-3.358-7.5-7.5-7.5s-7.5 3.357-7.5 7.5v12c0 4.143 3.358 7.5 7.5 7.5z"/><path d="m278.124 289.111c2.721-3.123 2.396-7.86-.727-10.582-3.123-2.721-7.86-2.396-10.582.727-2.729 3.132-6.669 4.928-10.81 4.928s-8.081-1.796-10.81-4.928c-2.722-3.122-7.459-3.447-10.582-.727-3.123 2.722-3.448 7.459-.727 10.582 5.579 6.401 13.641 10.072 22.119 10.072s16.54-3.67 22.119-10.072z"/></g></svg>