<svg id="Capa_1" enable-background="new 0 0 511.998 511.998" height="512" viewBox="0 0 511.998 511.998" width="512" xmlns="http://www.w3.org/2000/svg"><g><path d="m113.753 504.382c-12.331 1.26-23.348-7.714-24.608-20.045l-6.201-100.648 44.654-4.563 6.201 100.648c1.26 12.33-7.715 23.348-20.046 24.608z" fill="#d97c41"/><g><path d="m248.477 182.529c-5.401 3.523 28.564 40.187 23.556 44.001-25.346 19.301-45.731 42.105-61.877 66.225-5.936 8.867-55.453 17.913-60.28 27.028-4.826 9.115 35.038 18.299 31.249 27.443-21.025 47.078-28.208 93.069-53.406 98.089-12.226 2.029-28.31-7.049-44.027-28.574-15.522-21.287-30.675-55.021-36.51-96.842-3.205-22.557-3.673-47.489-.284-73.32.869-6.627 32.893 11.578 34.289 4.859 1.469-7.071-27.66-39.071-25.565-46.188 2.472-8.397 5.395-16.807 8.805-25.181 15.511-38.648 41.477-76.536 77.14-106.793 3.882-3.294 14.051 39.598 18.162 36.494 5.359-4.046 4.74-54.019 10.484-57.709 34.167-20.864 66.744-33.066 96.782-39.284 6.361-1.317 7.04 46.328 13.164 45.523 12.657-1.664 30.357-50.984 41.885-50.798 38.155.617 69.691 10.144 91.725 20.447 49.721 25.024 55.981 53.594 53.131 78.189-4.34 25.044-21.646 42.66-52.031 54.89-26.19 11.603-62.174 19.173-106.134 42.425-6.842 3.617-53.04-25.374-60.258-20.924z" fill="#fff8e6"/><path d="m133.916 284.113c0-109.054 50.077-206.408 128.485-270.335-28.758 6.485-59.756 18.475-92.191 38.281-5.744 3.689-5.125 53.662-10.484 57.709-4.111 3.104-14.279-39.788-18.162-36.494-35.663 30.258-61.628 68.145-77.14 106.793-3.41 8.374-6.333 16.784-8.805 25.181-2.095 7.118 27.034 39.117 25.565 46.188-1.396 6.72-33.419-11.485-34.289-4.859-3.389 25.831-2.92 50.764.284 73.321 5.835 41.821 20.989 75.555 36.51 96.842 15.717 21.524 31.801 30.603 44.027 28.574 13.216-2.633 21.476-16.539 29.377-35.958-14.966-38.87-23.177-81.097-23.177-125.243z" fill="#fce3a0"/></g></g><path d="m417.138 21.248c-.065-.032-.13-.064-.195-.095-19.826-9.271-52.364-20.465-94.781-21.151-10.135-.191-17.592 12.417-27.071 28.346-3.086 5.185-8.035 13.501-11.972 18.501-.731-3.813-1.431-8.525-1.974-12.181-2.423-16.311-3.81-24.306-8.812-27.799-2.036-1.423-4.474-1.934-6.861-1.438-33.419 6.918-66.785 20.452-99.17 40.228-.048.03-.097.061-.145.091-5.519 3.545-6.754 11.975-8.876 35.159-.158 1.729-.333 3.638-.522 5.604-5.077-14.135-7.35-19.227-12.604-20.637-2.599-.698-5.381-.069-7.442 1.68-34.931 29.635-62.334 67.575-79.234 109.683-3.429 8.42-6.475 17.132-9.053 25.892-2.003 6.806 3.165 14.62 14.1 30.248 1.975 2.822 4.42 6.316 6.531 9.528-1.077-.366-2.102-.723-2.991-1.032-10.36-3.604-17.204-5.986-22.416-2.769-2.307 1.423-3.833 3.791-4.188 6.497-3.191 24.32-3.217 48.758-.077 72.633.54 4.107 4.3 6.996 8.414 6.458 4.107-.54 6.998-4.307 6.458-8.413-2.712-20.621-2.926-41.697-.641-62.736 2.466.739 5.403 1.761 7.522 2.497 11.198 3.896 17.783 5.957 22.927 3.041 2.334-1.322 3.92-3.496 4.465-6.12 1.317-6.339-3.523-13.62-13.714-28.185-3.971-5.674-10.466-14.957-11.672-18.517 2.366-7.907 5.132-15.764 8.242-23.399 14.967-37.293 38.618-71.112 68.665-98.29 1.146 2.957 2.383 6.423 3.362 9.165 5.732 16.062 7.993 21.701 13.479 23.343 2.548.764 5.229.279 7.354-1.325 4.863-3.673 5.932-11.188 7.972-33.479.762-8.319 1.885-20.592 3.253-24.637 28.884-17.46 58.495-29.707 88.119-36.449 1.012 4.204 2.035 11.088 2.717 15.683.862 5.805 1.754 11.808 2.847 16.371.808 3.374 3.271 13.63 11.98 12.491 9.938-1.308 17.773-14.472 26.846-29.716 4.236-7.118 11.239-18.884 14.643-21.006 39.352.753 69.467 11.092 87.868 19.683 21.773 10.973 34.349 22.393 41.373 33.485-45.085-1.482-120.031 1.42-190.185 28.746-3.859 1.503-5.77 5.851-4.266 9.711 1.155 2.965 3.988 4.779 6.99 4.779.905 0 1.826-.165 2.721-.514 71.527-27.862 148.61-29.415 191.323-27.456 1.894 7.663 1.779 14.966 1.024 21.615-3.886 21.979-18.955 37.556-47.406 49.008-.079.031-.159.065-.237.1-9.192 4.073-19.598 7.621-31.646 11.729-20.385 6.95-45.684 15.577-73.745 30.286-4.103-.724-15.455-6.051-23.126-9.649-21.332-10.01-31.891-14.631-38.771-10.39-.054.033-.107.067-.16.102-2.009 1.311-3.365 3.355-3.819 5.759-1.082 5.723 2.862 11.936 13.568 26.949 3.159 4.432 7.565 10.61 9.733 14.419-22.857 18.027-42.974 39.896-59.842 65.062-2.705 2.714-17.202 7.475-25.89 10.328-19.801 6.503-31.184 10.522-34.883 17.509-1.373 2.593-1.646 5.56-.77 8.354 2.114 6.735 10.169 10.884 19.496 15.687 3.402 1.752 8.688 4.474 11.184 6.388-5.702 13.055-10.444 26.09-14.657 37.672-9.896 27.204-18.446 50.709-32.127 53.562-4.074.637-9.752-.728-16.402-5.123-20.733-149.53 21.649-253.081 126.021-307.791 3.669-1.923 5.084-6.456 3.161-10.125-1.923-3.668-6.456-5.084-10.125-3.16-50.095 26.259-87.227 63.828-110.366 111.664-25.245 52.189-33.901 117.029-25.819 192.978-1.023-1.286-2.053-2.633-3.091-4.055-12.025-16.492-22.249-38.697-28.788-62.525-1.096-3.995-5.223-6.347-9.217-5.248-3.994 1.096-6.344 5.223-5.248 9.217 7.007 25.537 18.063 49.471 31.135 67.398.037.051.075.101.113.152l3.912 63.485c.006.101.015.201.025.302 1.573 15.393 14.611 26.896 29.767 26.896 1.014 0 2.038-.052 3.067-.157 7.957-.812 15.12-4.677 20.17-10.88 5.015-6.159 7.35-13.893 6.584-21.792l-1.878-30.547c15.094-9.372 23.288-31.863 33.203-59.121 4.615-12.688 9.388-25.808 15.376-39.217.028-.062.055-.125.081-.188 1.305-3.149 2.218-9.376-6.332-15.691-3.55-2.623-8.294-5.065-12.881-7.428-2.775-1.429-6.807-3.505-9.547-5.258 5.516-2.792 16.411-6.37 23.517-8.704 18.671-6.132 29.436-9.902 33.577-16.089 16.852-25.173 37.102-46.851 60.189-64.43 6.973-5.31 1.633-14.317-.377-17.708-2.528-4.265-6.255-9.49-9.857-14.543-1.537-2.156-3.369-4.724-5.096-7.233 5.246 2.2 11.254 5.019 15.692 7.102 21.255 9.974 29.233 13.177 35.3 9.968 27.496-14.544 51.557-22.748 72.784-29.986 11.822-4.031 22.991-7.84 32.763-12.16 33.287-13.429 51.771-33.227 56.501-60.519.024-.139.044-.277.061-.417 4.253-36.724-13.925-63.972-57.21-85.756zm-294.083 470.243c-2.52 3.095-6.093 5.022-10.062 5.428-8.159.829-15.469-5.081-16.373-13.206l-2.738-44.438c10.263 9.007 20.733 13.815 30.435 13.815.108 0 .214-.012.322-.013l1.67 27.152c.006.102.015.202.025.303.406 3.972-.759 7.864-3.279 10.959z"/></svg>