<svg id="Capa_1" enable-background="new 0 0 512 512" height="512" viewBox="0 0 512 512" width="512" xmlns="http://www.w3.org/2000/svg"><g><circle cx="118.027" cy="319.052" fill="#af602d" r="97.129"/><circle cx="393.973" cy="319.052" fill="#d97c41" r="97.129"/><path d="m352.809 504.5c20.641 0 37.632-17.534 37.717-39.35.001-.139.001-.279.001-.418 0-65.89-60.229-119.304-134.526-119.304s-134.526 53.414-134.526 119.304c0 .139 0 .279.001.418.085 21.816 17.075 39.35 37.717 39.35z" fill="#a4e7ff"/><path d="m228.792 469.392c0-41.996-23.951-78.397-58.937-96.291-29.565 21.885-48.381 54.807-48.381 91.63 0 .139 0 .279.001.418.085 21.816 17.075 39.35 37.717 39.35h63.767c3.778-11.007 5.833-22.817 5.833-35.107z" fill="#5149bf"/><path d="m283.208 469.392c0 12.29 2.056 24.099 5.834 35.108h63.766c20.641 0 37.632-17.534 37.716-39.35.001-.139.001-.279.001-.418 0-36.823-18.816-69.746-48.381-91.63-34.985 17.894-58.936 54.294-58.936 96.29z" fill="#736acc"/><circle cx="93.306" cy="262.033" fill="#fed2a4" r="44.804"/><circle cx="418.694" cy="262.033" fill="#ffbd86" r="44.804"/><g><circle cx="256" cy="251.867" fill="#fed2a4" r="162.931"/><path d="m167.188 196.049c0-30.898 4.736-60.689 13.51-88.694-52.076 27.192-87.629 81.696-87.629 144.512 0 89.985 72.947 162.931 162.931 162.931 2.497 0 4.978-.065 7.448-.176-59.157-54.174-96.26-132.038-96.26-218.573z" fill="#ffbd86"/></g><g><path d="m419.488 236.493c6.049-17.611 9.34-36.503 9.34-56.166 0-95.449-77.378-172.827-172.828-172.827s-172.828 77.378-172.828 172.828c0 19.663 3.291 38.555 9.34 56.166l163.488-75.582z" fill="#736acc"/><path d="m167.188 196.049c0-70.972 24.964-136.106 66.573-187.128-84.945 10.912-150.589 83.492-150.589 171.407 0 19.663 3.291 38.555 9.34 56.166l74.751-34.558c-.039-1.96-.075-3.919-.075-5.887z" fill="#5149bf"/></g><circle cx="85.714" cy="319.052" fill="#5ad6ff" r="30.161"/><circle cx="426.286" cy="319.052" fill="#a4e7ff" r="30.161"/><g><path d="m409.363 245.778c-85.726-81.393-221-81.393-306.726 0-8.291 7.872-21.202 8.154-29.778.594-.111-.098-.223-.196-.334-.294-9.708-8.558-9.978-23.598-.598-32.514 102.859-97.777 265.286-97.777 368.145 0 9.38 8.916 9.11 23.956-.598 32.514-.111.098-.223.196-.334.294-8.575 7.56-21.486 7.278-29.777-.594z" fill="#a4e7ff"/><path d="m167.188 196.049c0-14.176 1.018-28.113 2.943-41.758-35.677 12.033-69.293 31.79-98.204 59.272-9.38 8.916-9.11 23.956.598 32.514.111.098.222.196.334.294 8.576 7.561 21.487 7.278 29.778-.594 19.392-18.412 41.324-32.644 64.64-42.726-.054-2.327-.089-4.661-.089-7.002z" fill="#5ad6ff"/></g><path d="m267.149 39.731h-22.299c-2.817 0-5.371 1.654-6.524 4.223l-12.57 28.019c-.835 1.862-.835 3.992 0 5.854l12.57 28.019c1.153 2.57 3.707 4.223 6.524 4.223h22.299c2.817 0 5.371-1.654 6.524-4.223l12.57-28.019c.835-1.862.835-3.992 0-5.854l-12.57-28.019c-1.153-2.57-3.707-4.223-6.524-4.223z" fill="#a4e7ff"/><ellipse cx="171.551" cy="285.638" fill="#ffa1ac" rx="31.16" ry="24.814"/><ellipse cx="340.449" cy="285.479" fill="#ffa1ac" rx="31.16" ry="24.814"/><ellipse cx="255.989" cy="274.034" fill="#3e4f61" rx="13.94" ry="15.987"/></g><g><path d="m244.851 117.568h22.299c5.761 0 11.008-3.396 13.366-8.653l12.57-28.02c1.709-3.81 1.71-8.181 0-11.993l-12.57-28.02c-2.359-5.256-7.606-8.652-13.366-8.652h-22.299c-5.76 0-11.007 3.396-13.366 8.653l-12.571 28.021c-1.709 3.811-1.708 8.182.001 11.992l12.57 28.019c2.358 5.257 7.605 8.653 13.366 8.653zm.226-70.338h21.846l12.413 27.669-12.413 27.669h-21.846l-12.413-27.669z"/><path d="m393.97 423.68c57.693 0 104.63-46.937 104.63-104.63 0-27.846-10.746-53.908-30.296-73.615-2.857-8.563-7.851-16.164-14.573-22.226-1.255-5.728-4.202-11-8.498-15.089-3.268-3.101-6.586-6.101-9.897-8.955.649-6.224.995-12.537.995-18.834-.001-99.435-80.896-180.331-180.331-180.331-31.46 0-62.433 8.225-89.569 23.785-3.594 2.06-4.836 6.644-2.775 10.236 2.062 3.595 6.646 4.837 10.236 2.775 24.87-14.259 53.262-21.796 82.108-21.796 91.163 0 165.33 74.167 165.33 165.33 0 2.467-.075 4.936-.187 7.401-3.969-2.988-8.011-5.866-12.102-8.608-.047-.033-.089-.072-.136-.104-48.647-32.59-107.905-48.897-166.845-45.936-55.46 2.792-107.447 21.626-151.226 54.649-.109-2.465-.164-4.936-.164-7.402 0-47.35 20.361-92.51 55.862-123.899 3.104-2.744 3.395-7.484.651-10.587-2.745-3.104-7.483-3.395-10.587-.65-38.719 34.235-60.926 83.491-60.926 135.136 0 6.297.346 12.61.995 18.834-3.315 2.856-6.633 5.857-9.906 8.963-4.296 4.089-7.243 9.37-8.493 15.085-6.722 6.062-11.715 13.664-14.57 22.223-19.55 19.707-30.296 45.769-30.296 73.615 0 57.693 46.937 104.63 104.627 104.63h.038c1.217 0 2.436-.03 3.654-.074-5.181 13.425-7.897 27.579-7.749 41.576.106 25.815 20.392 46.818 45.22 46.818h193.62c24.828 0 45.114-21.003 45.221-46.771.149-14.024-2.567-28.194-7.749-41.627 1.217.045 2.435.077 3.651.077h.037zm50.235-171.777c.087-.076.174-.151.262-.229 2.676-2.368 4.879-5.194 6.528-8.304 1.483 2.559 2.666 5.297 3.508 8.181.993 3.387 1.497 6.912 1.497 10.479 0 9.402-3.49 18.281-9.712 25.103-5.942-3.736-12.843-5.744-19.998-5.744-.823 0-1.639.035-2.453.087 1.283-7.307 2.09-14.712 2.415-22.163 6.517-.367 12.812-2.883 17.845-7.316.032-.026.076-.065.108-.094zm-37.144 55.151c2.417-3.868 5.893-6.885 10.067-8.731 2.884-1.282 5.966-1.933 9.162-1.933 5.741 0 11.207 2.145 15.404 6.053 4.679 4.332 7.256 10.23 7.256 16.607 0 12.495-10.165 22.66-22.66 22.66-9.101 0-17.289-5.41-20.862-13.785-1.199-2.81-1.808-5.795-1.808-8.875 0-4.255 1.189-8.401 3.441-11.996zm-334.395-79.116c.369-3.398 1.943-6.575 4.426-8.938 4.052-3.844 8.182-7.525 12.274-10.943.002-.002.004-.004.006-.006 0 0 .001-.001.002-.001 87.834-73.541 215.655-80.407 310.939-16.73.024.018.052.03.076.047.057.041.11.086.169.126 7.593 5.082 15.018 10.653 22.075 16.564 4.093 3.418 8.223 7.1 12.266 10.936 2.491 2.371 4.065 5.548 4.438 8.983.242 2.136-.005 4.336-.716 6.364-.023.067-.046.135-.067.203-.814 2.274-2.176 4.263-4.046 5.912-.029.026-.071.062-.102.09-.085.073-.169.146-.254.223-3.639 3.188-8.609 4.35-13.307 3.111-2.363-.625-4.546-1.845-6.322-3.537-6.677-6.341-13.788-12.329-21.147-17.807-2.827-2.097-5.646-4.096-8.375-5.938-9.902-6.697-20.413-12.658-31.239-17.719-3.755-1.753-8.217-.134-9.971 3.619-1.753 3.753-.133 8.217 3.619 9.971 10.115 4.727 19.936 10.297 29.191 16.558 2.551 1.723 5.189 3.593 7.829 5.551 6.869 5.113 13.52 10.713 19.754 16.633 2.127 2.028 4.556 3.715 7.178 5.025-.282 10.193-1.562 20.305-3.8 30.165-5.373 3.075-9.907 7.398-13.219 12.7-3.745 5.978-5.725 12.877-5.725 19.951 0 3.804.563 7.527 1.672 11.111-10.481 17.912-24.718 33.871-41.349 46.299-53.438 40.942-132.452 40.932-185.884.002-16.634-12.43-30.871-28.389-41.352-46.301 1.11-3.584 1.673-7.307 1.673-11.111 0-7.074-1.979-13.974-5.72-19.943-3.318-5.311-7.855-9.637-13.224-12.708-2.237-9.859-3.517-19.97-3.8-30.163 2.62-1.309 5.046-2.994 7.167-5.016 6.245-5.93 12.896-11.529 19.753-16.635 2.651-1.966 5.29-3.836 7.846-5.562 52.867-35.758 118.601-46.11 180.341-28.407 3.979 1.143 8.135-1.16 9.276-5.142 1.143-3.981-1.16-8.135-5.142-9.276-31.935-9.159-66.214-11.328-99.122-6.275-33.936 5.21-65.479 17.55-93.753 36.673-2.733 1.846-5.553 3.845-8.392 5.95-7.348 5.469-14.459 11.457-21.146 17.808-1.766 1.683-3.948 2.902-6.308 3.526-4.698 1.241-9.672.078-13.311-3.11-.085-.076-.172-.151-.267-.232-.029-.027-.06-.054-.089-.08-1.91-1.685-3.29-3.73-4.113-6.115-.707-2.032-.954-4.233-.708-6.406zm56.073 237.152c-.444-9.943 2.054-20.83 4.656-29.101 2.65-8.424 6.434-16.463 10.974-24.029.983-1.638 13.458-20.751 14.948-19.725 14.02 9.662 29.474 17.198 45.713 22.312 10.646 16.318 16.261 35.225 16.261 54.844 0 9.409-1.288 18.673-3.834 27.609 0 0-58.25 0-58.266 0-12.145 0-21.855-7.608-27.187-18.078-2.074-4.07-3.042-8.832-3.265-13.832zm96.236-45.615c20.346 3.765 41.755 3.761 62.1-.01-7.45 15.487-11.365 32.452-11.365 49.925 0 9.372 1.126 18.619 3.335 27.61h-46.113c2.213-8.993 3.358-18.236 3.358-27.609 0-17.463-3.881-34.433-11.315-49.916zm65.735 49.915c0-19.633 5.636-38.543 16.296-54.868 16.217-5.085 31.621-12.585 45.639-22.266 12.834 13.226 22.34 30.117 27.212 47.914 3.224 11.778 5.574 28.552-.191 39.893-5.054 9.943-15.651 16.937-26.856 16.937h-58.266c-2.546-8.937-3.834-18.2-3.834-27.61zm-220.39-166.961c4.183-3.895 9.648-6.039 15.39-6.039 3.196 0 6.278.65 9.177 1.939 4.16 1.84 7.636 4.856 10.058 8.732 2.247 3.588 3.436 7.733 3.436 11.988 0 3.08-.608 6.065-1.809 8.877-3.572 8.373-11.761 13.783-20.861 13.783-12.495 0-22.66-10.165-22.66-22.66-.001-6.376 2.576-12.275 7.269-16.62zm-12.821-50.885c.842-2.882 2.027-5.619 3.508-8.178 1.65 3.115 3.853 5.942 6.527 8.308.087.078.176.155.273.239.032.028.063.058.096.085 5.036 4.436 11.333 6.952 17.855 7.317.323 7.45 1.122 14.856 2.402 22.162-.812-.052-1.628-.087-2.45-.087-7.158 0-14.062 2.009-19.999 5.742-6.222-6.822-9.711-15.7-9.711-25.102 0-3.567.504-7.092 1.499-10.486zm60.563 157.136h-.032c-49.422 0-89.63-40.208-89.63-89.63 0-17.047 4.708-33.308 13.504-47.363 1.796 9.65 6.265 18.56 12.953 25.795-4.382 6.275-6.807 13.814-6.807 21.569 0 20.766 16.895 37.66 37.66 37.66 10.612 0 20.465-4.44 27.456-11.888 9.364 14.331 20.936 27.341 34.108 38.288-7.127 7.558-13.247 15.958-18.227 24.896-3.635.445-7.315.673-10.985.673zm246.664-25.571c13.17-10.945 24.752-23.948 34.118-38.278 6.991 7.443 16.84 11.879 27.447 11.879 20.766 0 37.66-16.895 37.66-37.66 0-7.76-2.429-15.303-6.81-21.576 6.686-7.231 11.155-16.137 12.953-25.782 8.794 14.055 13.506 30.312 13.506 47.358 0 49.422-40.208 89.63-89.633 89.63h-.032c-3.666 0-7.344-.228-10.979-.675-4.98-8.94-11.102-17.339-18.23-24.896z"/><path d="m205.453 248.746c-3.123-2.719-7.861-2.389-10.581.735-1.312 1.508-3.205 2.373-5.195 2.375-.002 0-.005 0-.008 0-1.984 0-3.875-.861-5.188-2.364-2.723-3.119-7.461-3.439-10.582-.717-3.12 2.724-3.441 7.462-.717 10.582 4.161 4.767 10.169 7.499 16.485 7.499h.024c6.325-.006 12.338-2.75 16.496-7.529 2.72-3.125 2.391-7.862-.734-10.581z"/><path d="m322.252 251.731c-1.987 0-3.879-.861-5.191-2.364-2.724-3.119-7.461-3.44-10.582-.717-3.12 2.724-3.441 7.462-.717 10.582 4.161 4.767 10.171 7.499 16.49 7.499h.02c6.326-.006 12.339-2.75 16.496-7.53 2.718-3.125 2.388-7.862-.737-10.581-3.122-2.717-7.861-2.389-10.581.737-1.311 1.507-3.203 2.372-5.191 2.374-.003 0-.005 0-.007 0z"/><path d="m255.994 250.55c-.008 0-.017 0-.024 0-5.367 0-10.499 2.178-14.449 6.133-4.438 4.442-6.978 10.775-6.971 17.376.008 6.082 2.12 11.845 5.947 16.226 4.019 4.6 9.661 7.235 15.485 7.235h.027c11.825-.015 21.435-10.561 21.42-23.508-.007-6.084-2.119-11.847-5.949-16.229-4.019-4.597-9.666-7.233-15.486-7.233zm-.005 31.97c-.002 0-.004 0-.007 0-2.045 0-3.502-1.318-4.189-2.104-1.423-1.628-2.24-3.952-2.243-6.373-.003-2.649.938-5.112 2.584-6.759.789-.791 2.096-1.733 3.846-1.733h.006c2.054 0 3.514 1.319 4.201 2.106 1.423 1.627 2.24 3.949 2.243 6.371.005 4.598-2.944 8.487-6.441 8.492z"/></g></svg>