<svg id="Capa_1" enable-background="new 0 0 512 512" height="512" viewBox="0 0 512 512" width="512" xmlns="http://www.w3.org/2000/svg"><g><g><circle cx="256" cy="256" fill="#736acc" r="248.5"/><path d="m150.326 223.722c0-81.247 28.423-155.845 75.845-214.434-123.176 14.738-218.671 119.566-218.671 246.712 0 137.243 111.257 248.5 248.5 248.5 12.799 0 25.372-.97 37.651-2.836-86.752-61.844-143.325-163.285-143.325-277.942z" fill="#5149bf"/></g><g><circle cx="255.326" cy="257.064" fill="#a29cde" r="198.5"/><path d="m150.326 223.722c0-54.944 13.01-106.843 36.087-152.815-75.584 28.071-129.587 100.923-129.587 186.157 0 104.553 81.254 190.479 183.931 197.963-56.126-60.796-90.431-142.038-90.431-231.305z" fill="#827cd2"/></g><g><path d="m358.374 329.496c-8.928-2.379-17.921-4.431-26.958-6.176v-134.64c9.037-1.745 18.029-3.797 26.958-6.176 14.484-3.859 22.608-19.257 17.753-33.438-.057-.165-.113-.331-.17-.496-4.392-12.829-17.948-20.195-31.051-16.704-58.249 15.522-119.563 15.522-177.812 0-13.103-3.492-26.659 3.875-31.051 16.704-.057.165-.113.331-.17.496-4.855 14.181 3.269 29.579 17.753 33.438 8.928 2.379 17.921 4.43 26.958 6.176v134.64c-9.037 1.745-18.029 3.797-26.958 6.176-14.484 3.859-22.608 19.257-17.753 33.438.057.165.113.33.17.496 4.392 12.829 17.948 20.195 31.051 16.704 58.249-15.522 119.563-15.522 177.812 0 13.103 3.492 26.659-3.875 31.051-16.704.057-.165.113-.33.17-.496 4.855-14.181-3.269-29.579-17.753-33.438zm-125.227-12.732v-121.528c15.223.876 30.484.876 45.707 0v121.529c-15.224-.877-30.484-.877-45.707-.001z" fill="#736acc"/><g fill="#5149bf"><path d="m152.839 182.272c2.119-17.487 5.55-34.569 10.213-51.137-11.749-1.182-23.067 5.925-27.008 17.436-.057.165-.113.331-.17.496-4.767 13.92 2.978 29.005 16.965 33.205z"/><path d="m166.068 326.408c-4.159.963-8.308 1.987-12.441 3.088-14.484 3.859-22.608 19.257-17.753 33.438.057.165.113.33.17.496 4.392 12.829 17.948 20.195 31.051 16.704 6.264-1.669 12.564-3.147 18.891-4.458-7.861-15.77-14.545-32.227-19.918-49.268z"/></g></g></g><g><path d="m151.696 322.249c-8.871 2.363-16.444 8.375-20.778 16.494-4.357 8.164-5.138 17.867-2.139 26.626l.168.49c4.715 13.774 17.702 22.633 31.618 22.632 2.802 0 5.643-.359 8.46-1.11 56.9-15.162 117.052-15.162 173.949 0 16.811 4.479 34.413-4.974 40.076-21.516l.172-.5c2.997-8.754 2.217-18.457-2.141-26.621-4.333-8.119-11.906-14.131-20.777-16.494-6.989-1.862-14.16-3.562-21.389-5.071v-122.356c7.229-1.509 14.399-3.209 21.389-5.071 8.871-2.363 16.444-8.375 20.777-16.494 4.357-8.164 5.138-17.867 2.139-26.626l-.168-.491c-5.666-16.546-23.273-26.002-40.077-21.521-56.899 15.163-117.05 15.163-173.95 0-16.808-4.479-34.412 4.974-40.076 21.516l-.172.501c-2.997 8.754-2.217 18.457 2.141 26.621 4.334 8.119 11.907 14.131 20.778 16.494 6.989 1.862 14.159 3.562 21.388 5.071v122.354c-7.229 1.51-14.399 3.21-21.388 5.072zm30.31-140.933c-8.941-1.727-17.839-3.766-26.449-6.059-4.938-1.316-8.989-4.534-11.406-9.063-2.442-4.574-2.862-9.794-1.185-14.694l.172-.5c2.603-7.602 9.75-12.493 17.399-12.493 1.532 0 3.086.197 4.625.607 59.426 15.835 122.247 15.835 181.675 0 9.222-2.456 18.899 2.761 22.025 11.891l.168.491c1.68 4.904 1.26 10.125-1.182 14.699-2.417 4.529-6.468 7.747-11.406 9.063-8.61 2.293-17.51 4.332-26.45 6.059-3.528.682-6.077 3.77-6.077 7.364v134.64c0 3.594 2.549 6.682 6.077 7.364 8.94 1.727 17.84 3.766 26.45 6.059 4.938 1.316 8.989 4.535 11.406 9.063 2.441 4.574 2.861 9.794 1.184 14.694l-.172.5c-3.124 9.125-12.797 14.344-22.024 11.886-59.425-15.834-122.247-15.835-181.674 0-9.227 2.459-18.901-2.762-22.026-11.891l-.168-.49c-1.679-4.905-1.259-10.125 1.183-14.699 2.417-4.529 6.468-7.747 11.406-9.063 8.61-2.293 17.508-4.332 26.449-6.059 3.528-.682 6.078-3.77 6.078-7.364v-134.641c0-3.594-2.549-6.682-6.078-7.364z"/><path d="m233.577 324.252c14.878-.856 29.966-.856 44.846 0 .144.008.287.012.431.012 1.909 0 3.753-.729 5.148-2.046 1.501-1.417 2.352-3.39 2.352-5.454v-121.528c0-2.064-.851-4.037-2.352-5.454-1.5-1.417-3.512-2.155-5.579-2.034-14.879.857-29.967.857-44.846 0-2.066-.118-4.079.617-5.58 2.034s-2.351 3.39-2.351 5.454v121.528c0 2.064.851 4.037 2.351 5.454 1.502 1.417 3.518 2.15 5.58 2.034zm7.069-121.151c10.215.386 20.489.386 30.707 0v105.798c-5.108-.193-10.23-.289-15.354-.289s-10.246.096-15.354.289v-105.798z"/><path d="m437.02 74.98c-48.352-48.351-112.64-74.98-181.02-74.98-60.357 0-118.961 21.407-165.019 60.276-3.165 2.671-3.566 7.403-.894 10.569 2.671 3.165 7.403 3.566 10.569.894 43.355-36.589 98.523-56.739 155.344-56.739 132.888 0 241 108.112 241 241s-108.112 241-241 241-241-108.112-241-241c0-59.361 21.772-116.396 61.305-160.599 2.761-3.087 2.497-7.829-.59-10.59-3.086-2.761-7.829-2.498-10.59.59-41.997 46.957-65.125 107.543-65.125 170.599 0 68.38 26.629 132.667 74.98 181.02 48.353 48.351 112.64 74.98 181.02 74.98s132.668-26.629 181.02-74.98c48.351-48.353 74.98-112.64 74.98-181.02s-26.629-132.667-74.98-181.02z"/><path d="m406.136 386.214c3.244 2.577 7.962 2.037 10.538-1.207 29.212-36.764 44.652-81.006 44.652-127.944 0-113.589-92.411-206-206-206s-206 92.411-206 206 92.411 206 206 206c50.064 0 98.361-18.25 135.992-51.387 3.109-2.737 3.41-7.477.673-10.585s-7.478-3.41-10.585-.672c-34.892 30.724-79.667 47.645-126.08 47.645-105.318 0-191-85.682-191-191s85.682-191 191-191c105.317 0 191 85.682 191 191 0 43.514-14.314 84.529-41.396 118.613-2.577 3.242-2.037 7.961 1.206 10.537z"/></g></svg>