<svg id="Capa_1" enable-background="new 0 0 512.007 512.007" height="512" viewBox="0 0 512.007 512.007" width="512" xmlns="http://www.w3.org/2000/svg"><g><circle cx="446.742" cy="68.214" fill="#d97c41" r="33.996"/><circle cx="65.264" cy="68.214" fill="#af602d" r="33.996"/><circle cx="446.742" cy="443.794" fill="#d97c41" r="33.996"/><circle cx="65.264" cy="443.794" fill="#af602d" r="33.996"/><g><path d="m400.422 221.055c.207-5.085-2.16-9.958-6.34-13.15-8.472-6.47-8.472-18.704-.001-25.174l3.79-2.894c3.587-2.739 5.833-6.739 6.274-11.085 2.606-25.657 6.356-51.313 11.262-76.97 1.617-8.456-3.978-16.637-12.79-18.655-97.753-22.388-195.505-22.388-293.258 0-8.811 2.018-14.408 10.197-12.791 18.653 13.66 71.418 18.395 142.835 14.233 214.253-.242 4.144 1.871 8.093 5.565 10.322l9.949 6.005c4.047 2.443 4.679 7.805 1.3 11.034l-14.96 14.295c-3.827 3.657-6.216 8.436-6.842 13.553-2.407 19.659-5.483 39.317-9.241 58.976-1.617 8.456 3.97 16.646 12.781 18.664 98.998 22.674 197.996 22.386 296.995-.863 6.736-1.582 10.986-7.891 9.723-14.361-13.188-67.536-18.398-135.069-15.649-202.603z" fill="#fff8e6"/><path d="m170.387 221.384c0-57.558 11.206-112.496 31.547-162.761-30.858 2.605-61.716 7.436-92.575 14.503-8.811 2.018-14.408 10.197-12.791 18.653 13.66 71.418 18.395 142.835 14.233 214.253-.242 4.144 1.871 8.093 5.565 10.322l9.949 6.005c4.047 2.443 4.679 7.805 1.3 11.034l-14.96 14.295c-3.827 3.657-6.216 8.436-6.842 13.553-2.407 19.659-5.483 39.317-9.241 58.976-1.617 8.456 3.97 16.646 12.781 18.664 43.156 9.884 86.311 15.401 129.467 16.559-43.316-67.54-68.433-147.865-68.433-234.056z" fill="#fce3a0"/></g><path d="m402.617 73.126c-97.753-22.387-195.505-22.388-293.258 0-8.811 2.018-14.408 10.197-12.791 18.653 4.204 21.98 7.555 43.96 10.069 65.94 3.908 1.065 8.075 1.454 12.307 1.045 91.372-8.821 182.744-8.821 274.116 0 4.223.408 8.381.021 12.281-1.039 2.514-21.981 5.862-43.962 10.064-65.944 1.619-8.456-3.976-16.637-12.788-18.655z" fill="#fce3a0"/><g><path d="m86.558 111.55c-14.073-28.891-14.073-57.781 0-86.672 5.626-11.549 18.677-18.538 32.387-17.214 91.372 8.821 182.744 8.821 274.116 0 13.71-1.323 26.761 5.665 32.387 17.214 14.073 28.891 14.073 57.781 0 86.672-5.626 11.549-18.677 18.538-32.387 17.214-91.372-8.821-182.744-8.821-274.116 0-13.709 1.323-26.761-5.666-32.387-17.214z" fill="#fbf198"/><path d="m223.091 13.891c-34.715-.805-69.431-2.875-104.146-6.227-13.71-1.323-26.761 5.666-32.387 17.214-14.073 28.891-14.073 57.781 0 86.672 5.626 11.549 18.677 18.538 32.387 17.214 20.793-2.007 41.587-3.534 62.38-4.628 8.928-39.014 23.111-76.024 41.766-110.245z" fill="#f9d171"/></g><g><path d="m86.558 487.13c-14.073-28.891-14.073-57.781 0-86.672 5.626-11.549 18.677-18.538 32.387-17.214 91.372 8.821 182.744 8.821 274.116 0 13.71-1.323 26.761 5.665 32.387 17.214 14.073 28.891 14.073 57.781 0 86.672-5.626 11.549-18.677 18.538-32.387 17.214-91.372-8.821-182.744-8.821-274.116 0-13.709 1.323-26.761-5.666-32.387-17.214z" fill="#fbf198"/><path d="m203.892 388.899c-28.315-1.039-56.631-2.922-84.946-5.655-13.71-1.323-26.761 5.666-32.387 17.214-14.073 28.89-14.073 57.781 0 86.672 5.626 11.549 18.677 18.538 32.387 17.214 50.269-4.853 100.537-7.02 150.806-6.533-26.979-32.635-49.271-69.283-65.86-108.912z" fill="#f9d171"/></g><path d="m256.003 216.135c-30.731 0-59.533 14.976-77.184 40.131l-14.697 20.945c-3.702 5.277-3.702 12.307 0 17.584l14.697 20.945c17.651 25.156 46.454 40.131 77.184 40.131 30.731 0 59.533-14.976 77.184-40.131l14.697-20.945c3.702-5.277 3.702-12.307 0-17.584l-14.697-20.945c-17.65-25.155-46.453-40.131-77.184-40.131z" fill="#a4e7ff"/><path d="m172.584 265.153-8.462 12.059c-3.702 5.277-3.702 12.307 0 17.584l14.697 20.945c.867 1.236 1.768 2.439 2.688 3.625-4.079-17.683-7.077-35.777-8.923-54.213z" fill="#5ad6ff"/><circle cx="256.003" cy="286.004" fill="#736acc" r="33.5"/></g><g><path d="m446.744 402.294c-3.902 0-7.782.569-11.508 1.649-.938-2.259-1.946-4.515-3.044-6.769-3.443-7.068-9.048-12.734-15.846-16.488-2.465-16.839-4.458-33.865-5.918-50.676-.358-4.126-3.997-7.18-8.121-6.822-4.127.358-7.182 3.994-6.823 8.121 1.282 14.753 2.985 29.664 5.032 44.48-2.68-.264-5.416-.277-8.175-.009-90.467 8.732-182.208 8.732-272.675 0-2.765-.269-5.508-.255-8.193.01.636-4.591 1.235-9.149 1.784-13.63.421-3.42 2.046-6.636 4.577-9.053l14.96-14.291c3.298-3.15 4.908-7.524 4.417-11.999-.495-4.518-3.052-8.483-7.024-10.887l-9.945-5.996c-1.302-.787-2.031-2.083-1.951-3.464 3.291-56.509.969-113.726-6.839-170.257 2.693.268 5.442.284 8.214.015 90.467-8.732 182.208-8.732 272.675 0 1.359.132 2.711.196 4.055.196 1.383 0 2.752-.092 4.11-.226-1.469 10.63-2.754 21.283-3.824 31.798-.234 2.311-1.43 4.398-3.366 5.881l-3.776 2.89c-5.914 4.505-9.306 11.269-9.306 18.557 0 7.268 3.388 14.024 9.3 18.542 2.234 1.705 3.503 4.276 3.396 6.883-1.009 24.836-.947 50.016.187 74.838.184 4.021 3.501 7.158 7.486 7.158.115 0 .231-.003.348-.008 4.138-.188 7.339-3.696 7.15-7.834-1.113-24.395-1.175-49.138-.184-73.54.31-7.489-3.161-14.749-9.28-19.418-2.195-1.678-3.404-4.029-3.404-6.621 0-2.604 1.206-4.956 3.408-6.634l3.791-2.9c5.183-3.968 8.526-9.901 9.173-16.276 1.286-12.633 2.892-25.47 4.755-38.223 6.787-3.753 12.393-9.397 15.831-16.456 1.097-2.252 2.104-4.506 3.041-6.762 3.729 1.075 7.61 1.642 11.511 1.642 22.883 0 41.5-18.617 41.5-41.5s-18.617-41.5-41.5-41.5c-3.902 0-7.784.562-11.511 1.642-.937-2.256-1.945-4.51-3.041-6.762-7.023-14.42-23.038-23.029-39.85-21.395-60.066 5.798-120.98 7.774-181.049 5.873-4.132-.128-7.602 3.118-7.733 7.259-.131 4.14 3.119 7.603 7.259 7.733 60.708 1.921 122.265-.075 182.965-5.936 10.613-1.018 20.627 4.214 24.923 13.033 13.129 26.951 13.129 53.152 0 80.104-4.296 8.818-14.316 14.048-24.923 13.033-91.423-8.828-184.134-8.828-275.558 0-10.609 1.025-20.627-4.214-24.923-13.033-13.129-26.951-13.129-53.152 0-80.104 4.296-8.819 14.307-14.063 24.923-13.033 19.031 1.838 38.346 3.313 57.408 4.388 4.125.229 7.677-2.932 7.91-7.066.233-4.136-2.931-7.677-7.066-7.91-18.864-1.063-37.978-2.523-56.811-4.341-16.816-1.641-32.827 6.975-39.85 21.395-1.098 2.254-2.106 4.511-3.044 6.769-3.727-1.079-7.607-1.649-11.508-1.649-22.883 0-41.5 18.617-41.5 41.5s18.617 41.5 41.5 41.5c3.901 0 7.782-.569 11.51-1.645.938 2.257 1.945 4.512 3.043 6.765 3.435 7.052 9.025 12.708 15.804 16.461 8.466 57.827 11.067 116.446 7.696 174.306-.402 6.933 3.112 13.513 9.174 17.176l9.428 5.686-14.446 13.8c-5.027 4.804-8.26 11.221-9.103 18.07-.817 6.668-1.743 13.507-2.748 20.375-6.78 3.754-12.37 9.412-15.805 16.466-1.097 2.253-2.105 4.508-3.043 6.765-3.727-1.079-7.608-1.645-11.51-1.645-22.883 0-41.5 18.617-41.5 41.5s18.617 41.5 41.5 41.5c3.901 0 7.78-.573 11.507-1.652.938 2.26 1.947 4.517 3.046 6.772 7.025 14.418 23.037 23.031 39.85 21.395 90.467-8.732 182.208-8.732 272.675 0 1.359.132 2.711.196 4.055.196 15.286-.001 29.339-8.336 35.795-21.591 1.097-2.252 2.105-4.507 3.042-6.763 3.727 1.08 7.609 1.643 11.511 1.643 22.883 0 41.5-18.617 41.5-41.5s-18.618-41.501-41.501-41.501zm0-360.58c14.612 0 26.5 11.888 26.5 26.5s-11.888 26.5-26.5 26.5c-2.288 0-4.514-.294-6.667-.856 4.545-17.074 4.545-34.221-.002-51.296 2.153-.56 4.381-.848 6.669-.848zm-381.481 53c-14.612 0-26.5-11.888-26.5-26.5s11.888-26.5 26.5-26.5c2.288 0 4.515.289 6.669.848-4.547 17.077-4.547 34.226 0 51.303-2.154.56-4.381.849-6.669.849zm0 375.58c-14.612 0-26.5-11.888-26.5-26.5s11.888-26.5 26.5-26.5c2.288 0 4.515.289 6.669.848-4.547 17.076-4.547 34.224-.001 51.301-2.153.56-4.38.851-6.668.851zm353.443 13.552c-4.296 8.819-14.316 14.053-24.923 13.033-45.712-4.413-91.745-6.619-137.779-6.619s-92.067 2.206-137.779 6.619c-10.609 1.019-20.627-4.214-24.923-13.033-13.129-26.951-13.129-53.152 0-80.104 4.296-8.819 14.307-14.059 24.923-13.033 91.424 8.826 184.134 8.826 275.558 0 10.613-1.024 20.627 4.214 24.923 13.033 13.129 26.951 13.129 53.153 0 80.104zm28.038-13.552c-2.288 0-4.515-.289-6.669-.848 4.547-17.077 4.547-34.226 0-51.303 2.154-.559 4.381-.848 6.669-.848 14.612 0 26.5 11.888 26.5 26.5s-11.888 26.499-26.5 26.499z"/><path d="m172.68 251.959-14.697 20.945c-5.498 7.835-5.498 18.364 0 26.199l14.697 20.945c19.035 27.128 50.184 43.323 83.324 43.323s64.289-16.195 83.324-43.323l14.697-20.945c5.498-7.835 5.498-18.364 0-26.199l-14.697-20.945c-19.035-27.128-50.184-43.323-83.324-43.323s-64.289 16.195-83.324 43.323zm83.323-28.323c28.256 0 54.815 13.809 71.045 36.938l14.696 20.945c1.882 2.683 1.882 6.286 0 8.969l-14.697 20.945c-16.23 23.13-42.79 36.938-71.045 36.938s-54.815-13.809-71.045-36.938l-14.696-20.945c-1.882-2.683-1.882-6.286 0-8.969l14.697-20.945c16.231-23.13 42.79-36.938 71.045-36.938z"/><path d="m256.003 327.004c22.607 0 41-18.393 41-41s-18.393-41-41-41-41 18.393-41 41 18.393 41 41 41zm0-67c14.336 0 26 11.663 26 26s-11.664 26-26 26-26-11.663-26-26 11.664-26 26-26z"/><path d="m201.055 176.256v-12c0-4.143-3.358-7.5-7.5-7.5s-7.5 3.357-7.5 7.5v12c0 4.143 3.358 7.5 7.5 7.5s7.5-3.358 7.5-7.5z"/><path d="m325.952 176.256v-12c0-4.143-3.358-7.5-7.5-7.5s-7.5 3.357-7.5 7.5v12c0 4.143 3.358 7.5 7.5 7.5s7.5-3.358 7.5-7.5z"/><path d="m256.003 190.898c8.478 0 16.54-3.671 22.119-10.072 2.721-3.123 2.396-7.86-.727-10.582-3.124-2.721-7.861-2.396-10.582.727-2.729 3.132-6.669 4.928-10.81 4.928s-8.081-1.796-10.81-4.928c-2.722-3.122-7.459-3.447-10.582-.727-3.123 2.722-3.448 7.459-.727 10.582 5.579 6.401 13.641 10.072 22.119 10.072z"/></g></svg>