<svg id="Capa_1" enable-background="new 0 0 511.027 511.027" height="512" viewBox="0 0 511.027 511.027" width="512" xmlns="http://www.w3.org/2000/svg"><g><g><path d="m453.521 273.54c-12.576-4.161-25.681-7.535-39.232-10.021-1.165-.214-2.323-.387-3.473-.521-9.368-1.091-16.533-8.833-16.533-18.264v-15.375-100.396c0-25.547-20.71-46.257-46.257-46.257-25.547 0-46.257 20.71-46.257 46.257v-75.207c0-25.547-20.71-46.257-46.257-46.257-25.547 0-46.257 20.71-46.257 46.257v75.206c0-25.547-20.71-46.257-46.257-46.257-25.547 0-46.257 20.71-46.257 46.257v100.396 15.375c0 9.431-7.164 17.174-16.533 18.264-1.15.134-2.308.307-3.473.521-13.551 2.486-26.656 5.859-39.232 10.021-25.283 8.366-28.121 43.263-4.411 55.389 20.748 10.612 38.808 23.872 53.793 38.732 6.272 6.219 10.612 14.167 12.241 22.848 12.073 64.336 68.543 113.019 136.385 113.019 67.841 0 124.312-48.682 136.385-113.019 1.629-8.681 5.97-16.628 12.241-22.848 14.985-14.86 33.045-28.12 53.793-38.732 23.712-12.125 20.874-47.022-4.409-55.388z" fill="#ff89ca"/><path d="m166.755 192.847c0-36.831 5.42-72.394 15.499-105.942-5.864-2.689-12.381-4.199-19.254-4.199-25.547 0-46.257 20.71-46.257 46.257v100.396 15.375c0 9.432-7.164 17.174-16.533 18.265-1.15.134-2.308.307-3.473.521-13.551 2.486-26.656 5.86-39.232 10.021-25.283 8.366-28.121 43.263-4.411 55.389 20.748 10.612 38.808 23.872 53.793 38.732 6.272 6.219 10.612 14.167 12.241 22.848 12.073 64.336 68.543 113.019 136.385 113.019 22.03 0 42.858-5.138 61.359-14.274-91.032-66.92-150.117-174.762-150.117-296.408z" fill="#ff5fb7"/></g><g><path d="m255.514 275.645c-30.731 0-59.533 14.976-77.184 40.131l-14.697 20.945c-3.702 5.277-3.702 12.307 0 17.584l14.697 20.945c17.651 25.156 46.454 40.131 77.184 40.131 30.731 0 59.533-14.976 77.184-40.131l14.697-20.945c3.702-5.277 3.702-12.307 0-17.584l-14.697-20.945c-17.651-25.155-46.454-40.131-77.184-40.131z" fill="#fff8e6"/><path d="m184.957 307.398c-2.349 2.651-4.567 5.442-6.627 8.379l-14.697 20.945c-3.702 5.276-3.702 12.307 0 17.583l14.697 20.945c14.811 21.108 37.475 35.043 62.539 38.983-24.137-31.95-43.178-67.964-55.912-106.835z" fill="#fce3a0"/></g><circle cx="255.514" cy="345.513" fill="#736acc" r="33.5"/></g><g><path d="m481.586 299.361c-1.187-15.465-11.038-28.087-25.708-32.941-13.028-4.312-26.565-7.771-40.234-10.278-1.31-.24-2.643-.439-3.96-.593-5.644-.657-9.9-5.307-9.9-10.815v-115.771c0-29.642-24.115-53.757-53.757-53.757-15.211 0-28.968 6.352-38.757 16.541v-37.991c0-29.642-24.115-53.756-53.757-53.756s-53.757 24.114-53.757 53.756v37.991c-9.788-10.189-23.545-16.541-38.756-16.541-29.642 0-53.757 24.115-53.757 53.757v35.959c0 4.143 3.358 7.5 7.5 7.5s7.5-3.357 7.5-7.5v-35.959c0-21.37 17.386-38.757 38.757-38.757s38.757 17.387 38.757 38.757v105.458c0 4.143 3.358 7.5 7.5 7.5s7.5-3.357 7.5-7.5v-180.665c0-21.37 17.386-38.756 38.757-38.756 21.37 0 38.756 17.386 38.756 38.756v180.665c0 4.143 3.358 7.5 7.5 7.5s7.5-3.357 7.5-7.5v-105.458c0-21.37 17.386-38.757 38.757-38.757s38.757 17.387 38.757 38.757v115.771c0 13.122 9.959 24.177 23.166 25.715.993.115 1.998.266 2.986.447 12.992 2.384 25.854 5.669 38.229 9.765 10.546 3.49 14.903 12.542 15.464 19.849.555 7.232-2.335 16.742-12.113 21.742-20.879 10.68-39.605 24.166-55.658 40.085-7.479 7.417-12.435 16.681-14.332 26.79-3.303 17.603-10.073 34.078-20.123 48.968-2.317 3.433-1.412 8.095 2.021 10.412 1.287.868 2.745 1.284 4.189 1.284 2.409 0 4.774-1.158 6.224-3.306 11.201-16.597 18.749-34.964 22.432-54.593 1.333-7.104 4.843-13.642 10.151-18.905 14.955-14.829 32.425-27.405 51.927-37.38 13.663-6.989 21.418-20.877 20.239-36.246z"/><path d="m342.543 463.032c-24.007 21.277-54.915 32.995-87.03 32.995-63.132 0-117.39-44.959-129.013-106.901-1.897-10.109-6.853-19.374-14.332-26.79-16.052-15.918-34.778-29.404-55.659-40.085-9.777-5-12.667-14.51-12.112-21.742.561-7.308 4.917-16.358 15.464-19.849 12.375-4.096 25.237-7.381 38.229-9.765.989-.182 1.994-.332 2.986-.448 13.207-1.537 23.165-12.592 23.165-25.714v-44.812c0-4.143-3.358-7.5-7.5-7.5s-7.5 3.357-7.5 7.5v44.812c0 5.509-4.256 10.158-9.898 10.814-1.317.153-2.65.354-3.96.594-13.669 2.508-27.207 5.966-40.234 10.278-14.671 4.854-24.521 17.477-25.708 32.94-1.18 15.37 6.575 29.258 20.237 36.246 19.503 9.975 36.974 22.552 51.927 37.38 5.308 5.264 8.818 11.802 10.151 18.905 12.954 69.032 73.412 119.136 143.756 119.136 35.784 0 70.226-13.059 96.979-36.769 3.1-2.748 3.386-7.488.638-10.588-2.745-3.097-7.486-3.384-10.586-.637z"/><path d="m338.837 311.469c-19.036-27.128-50.185-43.324-83.324-43.324s-64.288 16.196-83.324 43.324l-14.697 20.945c-5.497 7.835-5.497 18.363 0 26.199l14.697 20.945c19.035 27.128 50.184 43.323 83.324 43.323s64.289-16.195 83.324-43.323l14.697-20.945c5.497-7.836 5.497-18.364 0-26.199zm2.419 38.529-14.697 20.945c-16.23 23.13-42.79 36.938-71.045 36.938s-54.815-13.809-71.045-36.938l-14.696-20.945c-1.882-2.683-1.882-6.287 0-8.969l14.697-20.945c16.231-23.13 42.79-36.939 71.045-36.939s54.814 13.81 71.045 36.939l14.696 20.945c1.881 2.682 1.881 6.286 0 8.969z"/><path d="m255.513 304.514c-22.607 0-41 18.393-41 41s18.393 41 41 41 41-18.393 41-41-18.392-41-41-41zm0 67c-14.336 0-26-11.663-26-26s11.664-26 26-26 26 11.663 26 26-11.663 26-26 26z"/><path d="m163.055 155.141c4.142 0 7.5-3.357 7.5-7.5v-19.693c0-4.143-3.358-7.5-7.5-7.5s-7.5 3.357-7.5 7.5v19.693c0 4.142 3.358 7.5 7.5 7.5z"/><path d="m155.555 198.325c0 4.143 3.358 7.5 7.5 7.5s7.5-3.357 7.5-7.5v-19.693c0-4.143-3.358-7.5-7.5-7.5s-7.5 3.357-7.5 7.5z"/><path d="m155.555 249.011c0 4.143 3.358 7.5 7.5 7.5s7.5-3.357 7.5-7.5v-19.693c0-4.143-3.358-7.5-7.5-7.5s-7.5 3.357-7.5 7.5z"/><path d="m348.551 155.141c4.142 0 7.5-3.357 7.5-7.5v-19.693c0-4.143-3.358-7.5-7.5-7.5s-7.5 3.357-7.5 7.5v19.693c0 4.142 3.358 7.5 7.5 7.5z"/><path d="m341.051 198.325c0 4.143 3.358 7.5 7.5 7.5s7.5-3.357 7.5-7.5v-19.693c0-4.143-3.358-7.5-7.5-7.5s-7.5 3.357-7.5 7.5z"/><path d="m341.051 249.011c0 4.143 3.358 7.5 7.5 7.5s7.5-3.357 7.5-7.5v-19.693c0-4.143-3.358-7.5-7.5-7.5s-7.5 3.357-7.5 7.5z"/><path d="m255.513 81.052c4.142 0 7.5-3.357 7.5-7.5v-19.694c0-4.143-3.358-7.5-7.5-7.5s-7.5 3.357-7.5 7.5v19.693c0 4.143 3.358 7.501 7.5 7.501z"/><path d="m248.013 124.236c0 4.143 3.358 7.5 7.5 7.5s7.5-3.357 7.5-7.5v-19.693c0-4.143-3.358-7.5-7.5-7.5s-7.5 3.357-7.5 7.5z"/><path d="m248.013 174.922c0 4.143 3.358 7.5 7.5 7.5s7.5-3.357 7.5-7.5v-19.693c0-4.143-3.358-7.5-7.5-7.5s-7.5 3.357-7.5 7.5z"/><path d="m255.513 462.302c8.541 0 16.662-3.699 22.283-10.148 2.721-3.123 2.396-7.86-.727-10.582s-7.861-2.396-10.582.727c-2.771 3.18-6.771 5.004-10.975 5.004-4.203 0-8.204-1.824-10.975-5.004-2.722-3.122-7.459-3.448-10.582-.727s-3.448 7.459-.727 10.582c5.623 6.449 13.745 10.148 22.285 10.148z"/></g></svg>