<svg id="Capa_1" enable-background="new 0 0 512.004 512.004" height="512" viewBox="0 0 512.004 512.004" width="512" xmlns="http://www.w3.org/2000/svg"><g><g><path d="m100.065 240.028-57.671-78.78c-13.886-18.969 1.374-45.4 24.745-42.859l97.061 10.555c11.718 1.274 22.912-5.189 27.668-15.974l39.39-89.335c9.484-21.51 40.005-21.51 49.489 0l39.39 89.335c4.756 10.786 15.95 17.248 27.668 15.974l97.061-10.555c23.371-2.541 38.631 23.89 24.745 42.859l-57.671 78.78c-6.963 9.511-6.963 22.437 0 31.948l57.671 78.78c13.886 18.969-1.374 45.4-24.745 42.859l-97.061-10.555c-11.718-1.274-22.912 5.189-27.668 15.974l-39.39 89.335c-9.484 21.51-40.005 21.51-49.489 0l-39.39-89.335c-4.756-10.786-15.95-17.248-27.668-15.974l-97.061 10.555c-23.371 2.541-38.631-23.89-24.745-42.859l57.671-78.78c6.962-9.511 6.962-22.437 0-31.948z" fill="#fbf198"/><path d="m196.194 252.502c0-88.422 30.566-169.702 81.701-233.862-11.668-16.348-37.958-14.692-46.638 4.994l-39.39 89.335c-4.756 10.786-15.95 17.248-27.668 15.974l-97.061-10.555c-23.371-2.541-38.631 23.89-24.745 42.859l57.671 78.78c6.963 9.511 6.963 22.437 0 31.948l-57.671 78.78c-13.886 18.969 1.374 45.4 24.745 42.859l97.061-10.554c11.718-1.274 22.912 5.188 27.668 15.974l39.39 89.334c9.339 21.181 39.06 21.49 49.024.957-52.569-64.61-84.087-147.034-84.087-236.823z" fill="#f9d171"/></g><g><path d="m274.405 98.286 68.825-50.383c21.853-15.998 52.304 1.583 49.377 28.508l-9.221 84.796c-1.468 13.501 5.978 26.397 18.403 31.876l78.046 34.412c24.781 10.927 24.781 46.088 0 57.015l-78.046 34.412c-12.426 5.479-19.871 18.375-18.403 31.876l9.221 84.796c2.928 26.925-27.523 44.505-49.377 28.508l-68.825-50.383c-10.958-8.022-25.849-8.022-36.807 0l-68.825 50.383c-21.853 15.998-52.304-1.583-49.377-28.508l9.221-84.796c1.468-13.501-5.978-26.397-18.403-31.876l-78.046-34.412c-24.781-10.927-24.781-46.088 0-57.015l78.046-34.412c12.426-5.479 19.871-18.375 18.403-31.876l-9.221-84.796c-2.928-26.925 27.523-44.505 49.377-28.508l68.825 50.383c10.958 8.022 25.85 8.022 36.807 0z" fill="#f6ca56"/><path d="m196.194 252.502c0-56.757 12.592-110.572 35.134-158.806l-62.555-45.793c-21.853-15.998-52.304 1.583-49.377 28.508l9.221 84.796c1.468 13.5-5.978 26.397-18.403 31.876l-78.046 34.412c-24.781 10.927-24.781 46.088 0 57.015l78.046 34.412c12.426 5.479 19.871 18.375 18.403 31.876l-9.221 84.796c-2.928 26.925 27.523 44.506 49.377 28.508l65.033-47.607c-24.092-49.552-37.612-105.193-37.612-163.993z" fill="#f1b70b"/></g><g><circle cx="256.002" cy="256.002" fill="#fbf198" r="160"/><path d="m196.194 252.502c0-54.98 11.817-107.2 33.048-154.26-75.624 12.735-133.24 78.514-133.24 157.76 0 80.469 59.407 147.053 136.753 158.313-23.434-49.001-36.561-103.873-36.561-161.813z" fill="#f9d171"/></g><path d="m203.751 264.368c.007 13.438-13.667 24.338-30.541 24.346-16.874.009-30.559-10.878-30.566-24.315-.007-13.438 13.667-24.338 30.541-24.347s30.559 10.878 30.566 24.316z" fill="#ffa1ac"/><path d="m308.253 264.315c.007 13.438 13.691 24.324 30.566 24.315 16.874-.008 30.548-10.909 30.541-24.346-.007-13.438-13.691-24.325-30.566-24.316-16.874.009-30.548 10.91-30.541 24.347z" fill="#ffa1ac"/><path d="m285.946 253.327c-.009-18.509-13.419-20.242-29.96-20.233-16.54.008-29.949 1.754-29.939 20.263.009 18.509 13.426 33.506 29.966 33.498 16.541-.008 29.942-15.019 29.933-33.528z" fill="#3e4f61"/></g><g><path d="m482.858 220.63-35.845-15.805 28.652-39.144c8.202-11.21 8.982-25.646 2.035-37.677-6.946-12.029-19.841-18.571-33.648-17.068l-48.231 5.242 4.237-38.954c1.683-15.458-5.637-29.889-19.101-37.662-13.462-7.771-29.614-6.894-42.154 2.289l-31.624 23.144-19.573-44.387c-5.603-12.712-17.713-20.608-31.604-20.608s-26.001 7.896-31.603 20.605l-19.574 44.389-31.622-23.143c-12.542-9.184-28.693-10.061-42.156-2.29-13.464 7.772-20.783 22.204-19.102 37.661l4.237 38.955-48.23-5.242c-13.806-1.501-26.702 5.039-33.649 17.068-6.947 12.03-6.167 26.467 2.036 37.678l28.65 39.143-35.844 15.806c-14.223 6.273-23.058 19.827-23.058 35.372s8.835 29.099 23.059 35.372l35.845 15.805-28.651 39.144c-8.203 11.21-8.982 25.646-2.036 37.677 6.289 10.89 17.45 17.281 29.753 17.28 1.287 0 2.588-.069 3.896-.212l48.23-5.242-4.237 38.954c-1.682 15.458 5.638 29.89 19.102 37.662 6.103 3.523 12.759 5.269 19.381 5.269 7.984 0 15.919-2.538 22.774-7.558l31.624-23.144 19.573 44.387c5.602 12.712 17.712 20.607 31.603 20.607s26.001-7.896 31.603-20.605l19.574-44.389 31.623 23.143c6.855 5.021 14.789 7.559 22.774 7.559 6.621 0 13.278-1.746 19.381-5.269 13.464-7.773 20.783-22.204 19.101-37.66l-4.237-38.957 48.231 5.243c1.309.143 2.608.212 3.896.212 12.302 0 23.464-6.392 29.752-17.28 6.947-12.03 6.167-26.467-2.036-37.678l-28.651-39.143 35.845-15.805c14.224-6.273 23.059-19.827 23.059-35.372s-8.836-29.099-23.06-35.372zm-37.185-94.782c7.929-.855 15.048 2.748 19.038 9.657 3.99 6.91 3.56 14.88-1.15 21.317l-30.6 41.806-23.802-10.495c-4.828-10.872-10.806-21.205-17.814-30.79l2.817-25.896zm-98.01-71.895c9.173-6.717 19.34-5.127 25.794-1.4 6.458 3.728 12.919 11.74 11.688 23.05l-7.14 65.643c-22.358-23.805-51.787-40.943-83.605-48.309l14.11-10.323c.038-.027.071-.059.108-.086zm-109.538-27.297c3.217-7.299 9.9-11.656 17.877-11.656s14.66 4.357 17.878 11.658l20.904 47.407-21.003 15.371c-11.707-1.246-23.831-1.242-35.54.014l-21.021-15.385zm-189.68 130.167c-4.711-6.438-5.142-14.408-1.151-21.317 3.99-6.91 11.11-10.522 19.038-9.658l51.512 5.599 2.817 25.896c-7.01 9.588-12.987 19.919-17.816 30.79l-23.801 10.495zm-27.358 99.179c0-7.456 3.707-17.059 14.111-21.647l60.375-26.622c-9.426 31.221-9.429 65.32 0 96.538l-60.374-26.622c-10.405-4.588-14.112-14.191-14.112-21.647zm45.245 130.154c-7.93.855-15.048-2.748-19.038-9.658-3.99-6.909-3.56-14.879 1.151-21.316l30.599-41.806 23.801 10.495c4.829 10.874 10.809 21.207 17.815 30.791l-2.817 25.896zm98.009 71.895c-9.172 6.716-19.339 5.127-25.794 1.4-6.458-3.728-12.919-11.74-11.689-23.049l7.14-65.644c22.334 23.818 51.805 40.936 83.609 48.309zm109.538 27.297c-3.217 7.299-9.9 11.656-17.877 11.656s-14.66-4.357-17.878-11.658l-20.904-47.407 21.026-15.388c11.698 1.261 23.818 1.26 35.513 0l21.026 15.388zm99.578-25.897c-6.454 3.728-16.619 5.316-25.795-1.401l-53.265-38.982c11.34-2.647 22.399-6.493 32.938-11.468 8.81-4.49 2.687-17.536-6.405-13.564-50.116 24.066-112.94 17.608-156.963-16.434-82.052-61.828-80.068-186.815 3.87-246.04 7.902-5.814-.455-17.806-8.686-12.228-9.084 6.448-17.539 13.807-25.153 21.912l-7.14-65.644c-1.23-11.308 5.231-19.32 11.689-23.048 6.456-3.729 16.621-5.315 25.795 1.401l53.265 38.982c-9.12 2.139-18.045 5.065-26.687 8.674-7.479 3.184-5.13 14.44 2.916 14.413 3.695-.265 7.015-2.573 10.569-3.553 5.64-2.068 11.429-3.705 17.271-5.089 71.184-17.02 146.934 21.722 174.886 89.359 23.344 53.947 11.656 120.479-28.879 163.101-6.03 6.465-12.614 12.404-19.647 17.761-5.754 4.093-2.432 13.701 4.532 13.48 3.89.044 6.687-3.443 9.644-5.571 5.571-4.578 10.845-9.51 15.795-14.753l7.14 65.645c1.229 11.307-5.232 19.32-11.69 23.047zm90.103-104.27c4.711 6.438 5.142 14.408 1.151 21.318-3.989 6.908-11.1 10.524-19.038 9.657l-51.513-5.599-2.816-25.896c7.011-9.59 12.988-19.921 17.814-30.791l23.802-10.495zm13.246-77.532-60.375 26.622c9.425-31.212 9.429-65.326 0-96.539l60.375 26.622c10.404 4.589 14.111 14.191 14.111 21.647s-3.707 17.06-14.111 21.648z"/><path d="m291.614 241.927c-2.681-7.769-9.648-12.908-17.614-14.738-5.14-1.274-11.047-1.598-17.893-1.598-12.231.012-37.543-.048-37.555 27.77 0 10.795 3.796 20.982 10.688 28.687 28.908 31.178 73.963-1.798 62.374-40.121zm-35.618 37.425c-13.358-.048-22.637-13.076-22.444-25.994-.005-9.725 3.088-12.754 22.434-12.766 6.759-.006 13.682.28 17.785 2.364 2.424 1.229 4.667 3.334 4.671 10.37.006 14.347-10.063 26.026-22.446 26.026z"/><path d="m190.994 215.855c-12.16-.002-22.052 9.895-22.046 22.054.261 9.893 14.752 9.883 15-.008.24-9.294 13.856-9.286 14.085-.006.25 9.886 14.758 9.885 15-.008.239-11.842-10.196-22.277-22.039-22.032z"/><path d="m320.989 215.79c-18.795-1.046-30.748 27.87-14.545 29.55 4.143 0 7.502-3.361 7.5-7.504-.001-1.881.73-3.65 2.06-4.981 4.144-4.454 12.241-1.106 12.025 4.975.25 9.886 14.758 9.885 15-.008.239-11.843-10.197-22.278-22.04-22.032z"/></g></svg>