<svg id="Capa_1" enable-background="new 0 0 512 512" height="512" viewBox="0 0 512 512" width="512" xmlns="http://www.w3.org/2000/svg"><g><path d="m220.63 249.516h-133.183c-26.363 0-47.735 21.372-47.735 47.735v35.639c0 12.599 10.214 22.813 22.813 22.813 10.852 0 19.649-8.797 19.649-19.649v-36.307c0-4.291 3.479-7.77 7.77-7.77h110.436z" fill="#5149bf"/><path d="m241.861 391.64h-133.183c-26.363 0-47.735 21.372-47.735 47.735v35.639c0 12.599 10.214 22.813 22.813 22.813 10.852 0 19.649-8.797 19.649-19.649v-36.307c0-4.291 3.479-7.77 7.77-7.77h110.436z" fill="#5149bf"/><g fill="#736acc"><path d="m291.37 249.516h133.183c26.363 0 47.735 21.372 47.735 47.735v35.639c0 12.599-10.214 22.813-22.813 22.813-10.852 0-19.649-8.797-19.649-19.649v-36.307c0-4.291-3.479-7.77-7.77-7.77h-110.436z"/><path d="m270.139 391.64h133.183c26.363 0 47.735 21.372 47.735 47.735v35.639c0 12.599-10.214 22.813-22.813 22.813-10.852 0-19.649-8.797-19.649-19.649v-36.307c0-4.291-3.479-7.77-7.77-7.77h-110.436z"/><path d="m233.65 221.427h133.183c26.363 0 47.735-21.372 47.735-47.735v-35.639c0-12.599-10.214-22.813-22.813-22.813-10.852 0-19.649 8.797-19.649 19.649v36.307c0 4.291-3.479 7.77-7.77 7.77h-110.436z"/></g><path d="m278.35 221.427h-133.183c-26.363 0-47.735-21.372-47.735-47.735v-35.639c0-12.599 10.214-22.813 22.813-22.813 10.852 0 19.649 8.797 19.649 19.649v36.307c0 4.291 3.479 7.77 7.77 7.77h110.436z" fill="#5149bf"/><g><path d="m379.68 38.151c-26.688 128.093-220.672 128.093-247.36 0-3.293-15.803 8.743-30.651 24.886-30.651 11.84 0 22.264 8.102 24.864 19.652 16.923 75.167 130.936 75.167 147.859 0 2.601-11.55 13.025-19.652 24.865-19.652 16.143 0 28.179 14.848 24.886 30.651z" fill="#736acc"/><path d="m248.247 83.161c-30.005-2.737-58.384-21.398-66.177-56.009-2.6-11.55-13.024-19.652-24.863-19.652-16.143 0-28.179 14.848-24.887 30.651 11.282 54.151 52.463 85.407 98.263 93.774 4.829-16.742 10.743-33.024 17.664-48.764z" fill="#5149bf"/></g><circle cx="256" cy="212.429" fill="#a29cde" r="100.846"/><path d="m215.277 240.7c0-44.529 7.436-87.321 21.124-127.208-46.314 9.124-81.247 49.948-81.247 98.937 0 43.34 27.341 80.29 65.714 94.553-3.672-21.546-5.591-43.69-5.591-66.282z" fill="#827cd2"/><g><path d="m267.919 213.625h-98.329c-27.21 0-49.268 22.058-49.268 49.268v113.794c0 70.589 57.223 127.812 127.812 127.812h15.732c1.357 0 2.707-.028 4.053-.07z" fill="#00c5fd"/><path d="m215.277 240.7c0-9.101.318-18.128.928-27.074h-46.615c-27.21 0-49.268 22.058-49.268 49.268v113.794c0 70.589 57.223 127.812 127.812 127.812 20.627.647 43.137-.778 61.731-8.536-58.953-68.561-94.588-157.75-94.588-255.264z" fill="#00adfc"/></g><g><path d="m256 504.5h7.87c49.94 0 93.19-28.64 114.21-70.4 6.57-13.03 10.97-27.35 12.74-42.46.57-4.91.86-9.89.86-14.95v-84.71-29.09c0-4.64-.64-9.12-1.84-13.37-3.3-11.74-10.85-21.71-20.88-28.14h-.01c-3.74-2.4-7.82-4.3-12.16-5.62-4.55-1.38-9.38-2.13-14.38-2.13h-86.41z" fill="#a4e7ff"/><path d="m268 504.426c14.3-.443 28.518-3.305 41.859-8.469-21.151-24.6-39.28-51.866-53.859-81.208v89.751c2.877-.011 9.215.042 12-.074z" fill="#00c5fd"/></g></g><g><path d="m424.55 242.02h-29.345c-2.354-5.96-5.695-11.451-9.864-16.265 21.511-7.597 36.729-28.048 36.729-52.064v-35.641c0-16.713-13.598-30.31-30.311-30.31-7.252 0-14.072 2.825-19.202 7.956-5.125 5.123-7.947 11.939-7.947 19.193v36.311c0 .148-.121.27-.271.27h-8.018c-7.322-17.931-19.328-33.547-34.692-45.252 34.299-17.49 57.319-47.762 65.391-86.533.464-2.218.699-4.5.699-6.784 0-18.142-14.772-32.9-32.93-32.9-15.317 0-28.851 10.726-32.178 25.504-4.362 19.384-16.527 34.764-34.254 43.307-20.017 9.646-44.868 9.62-64.854-.065-3.729-1.807-8.213-.248-10.02 3.479-1.807 3.728-.249 8.213 3.479 10.02 24.01 11.636 53.862 11.667 77.907.08 21.937-10.572 36.985-29.581 42.375-53.525 1.803-7.998 9.181-13.801 17.546-13.801 9.887 0 17.93 8.03 17.93 17.9 0 1.255-.128 2.505-.383 3.722-7.729 37.122-30.986 65.413-65.654 80.025-15.538-8.231-32.98-12.567-50.683-12.567s-35.146 4.336-50.683 12.567c-34.667-14.612-57.925-42.906-65.654-80.026-1.109-5.325.221-10.796 3.648-15.011 3.416-4.201 8.482-6.61 13.898-6.61 4.081 0 8.074 1.377 11.259 3.89 3.174 2.492 5.406 6.012 6.284 9.908 2.324 10.323 6.417 19.748 12.165 28.012 2.366 3.399 7.038 4.239 10.44 1.874 3.4-2.366 4.239-7.04 1.874-10.44-4.637-6.664-7.949-14.315-9.846-22.742-1.636-7.255-5.775-13.793-11.642-18.399-5.804-4.581-13.097-7.103-20.533-7.103-9.951 0-19.259 4.427-25.536 12.146-6.288 7.732-8.729 17.768-6.696 27.532 8.073 38.775 31.092 69.05 65.389 86.542-15.364 11.706-27.369 27.321-34.688 45.249h-8.018c-.149 0-.271-.121-.271-.27v-36.309c0-7.254-2.822-14.07-7.946-19.193-5.131-5.131-11.951-7.956-19.203-7.956-16.713 0-30.311 13.597-30.311 30.31v35.641c0 24.016 15.221 44.463 36.733 52.059-4.172 4.816-7.515 10.309-9.869 16.27h-29.344c-30.46 0-55.24 24.776-55.24 55.23v35.64c0 16.713 13.602 30.311 30.32 30.311 7.238 0 14.052-2.819 19.201-7.955 5.119-5.135 7.938-11.951 7.938-19.195v-36.3c0-.148.121-.27.271-.27h22.88v77.21c0 2.482.073 4.97.207 7.45h-4.348c-30.46 0-55.24 24.78-55.24 55.239v35.63c0 16.719 13.602 30.32 30.32 30.32 7.259 0 14.078-2.828 19.188-7.95 5.135-5.122 7.963-11.941 7.963-19.2v-36.31c0-.151.114-.271.26-.271h18.219c11.083 20.25 27.184 37.372 46.798 49.709 21.521 13.536 46.399 20.691 71.943 20.691h7.87 7.87c25.544 0 50.422-7.155 71.942-20.691 19.616-12.338 35.718-29.461 46.798-49.709h18.219c.146 0 .26.119.26.271v36.31c0 7.259 2.828 14.078 7.95 19.188 5.122 5.135 11.941 7.963 19.2 7.963 16.718 0 30.319-13.602 30.319-30.32v-35.63c0-30.46-24.78-55.24-55.239-55.24h-4.348c.134-2.48.207-4.968.207-7.449v-77.21h22.88c.149 0 .271.121.271.27v36.3c0 7.244 2.819 14.061 7.954 19.211 5.134 5.12 11.947 7.939 19.186 7.939 16.719 0 30.32-13.598 30.32-30.311v-35.64c.001-30.456-24.779-55.232-55.239-55.232zm-44.94-70.82v-36.31c0-3.246 1.262-6.295 3.554-8.586 2.297-2.298 5.35-3.563 8.596-3.563 8.442 0 15.311 6.868 15.311 15.31v35.641c0 20.866-15.762 38.052-36.269 40.042-2.094-1.212-4.261-2.292-6.492-3.225-.142-8.161-1.182-16.206-3.112-24.038h3.142c8.42-.001 15.27-6.851 15.27-15.271zm-170.29-39.632c.076-.041.152-.083.229-.126 14.062-8.088 30.125-12.362 46.451-12.362s32.389 4.274 46.451 12.362c.075.043.151.085.228.125 19.328 11.183 34.027 28.891 41.408 49.895 2.844 8.072 4.526 16.484 5.059 25.072-2.231-.265-4.479-.404-6.736-.404h-172.82c-2.257 0-4.505.139-6.736.404.534-8.589 2.216-17.001 5.062-25.078 7.378-20.998 22.076-38.705 41.404-49.888zm-104.39 42.122v-35.64c0-8.441 6.868-15.31 15.311-15.31 3.246 0 6.299 1.266 8.597 3.563 2.291 2.291 3.553 5.34 3.553 8.586v36.311c0 8.42 6.851 15.27 15.271 15.27h3.143c-1.93 7.833-2.97 15.877-3.112 24.037-2.23.933-4.396 2.012-6.491 3.225-20.509-1.989-36.272-19.175-36.272-40.042zm-14.99 110.79c-8.42 0-15.271 6.85-15.271 15.27v36.3c0 3.245-1.265 6.302-3.546 8.59-2.303 2.296-5.354 3.561-8.594 3.561-8.447 0-15.32-6.868-15.32-15.311v-35.64c0-22.184 18.052-40.23 40.24-40.23h25.671c-.2 1.944-.301 3.903-.301 5.87v21.591h-22.879zm21.23 142.12c-8.414 0-15.26 6.851-15.26 15.271v36.31c0 3.245-1.263 6.293-3.569 8.594-2.288 2.294-5.335 3.557-8.581 3.557-8.447 0-15.32-6.873-15.32-15.32v-35.63c0-22.188 18.052-40.239 40.24-40.239h5.993c1.577 9.43 4.139 18.614 7.655 27.459h-11.158zm152.7 70.4h-.37v-76.02-.001c0-4.143-3.357-7.5-7.5-7.5s-7.5 3.357-7.5 7.5v.001 76.02h-.37c-45.738 0-86.935-25.395-107.511-66.272-.001-.002-.003-.004-.004-.007-6.314-12.522-10.347-25.963-11.986-39.948-.537-4.63-.809-9.368-.809-14.082v-113.801c0-3.859.524-7.672 1.56-11.341 2.742-9.755 8.951-18.169 17.496-23.718.075-.045.149-.091.224-.139 3.198-2.052 6.662-3.652 10.287-4.756 3.954-1.198 8.06-1.807 12.203-1.807h78.91v164.851c0 4.143 3.357 7.5 7.5 7.5s7.5-3.357 7.5-7.5v-164.85h78.91c4.144 0 8.249.608 12.197 1.806 3.631 1.104 7.095 2.705 10.293 4.757.073.047.147.093.223.138 8.546 5.549 14.754 13.963 17.499 23.728 1.033 3.66 1.558 7.473 1.558 11.332v113.799c0 4.715-.272 9.454-.809 14.076-1.639 13.989-5.672 27.432-11.99 39.961-20.576 40.878-61.773 66.273-107.511 66.273zm179.69-57.62v35.63c0 8.447-6.872 15.32-15.319 15.32-3.246 0-6.293-1.263-8.594-3.569-2.294-2.288-3.557-5.335-3.557-8.581v-36.31c0-8.42-6.846-15.271-15.26-15.271h-11.16c3.517-8.843 6.073-18.028 7.651-27.46h5.999c22.189.001 40.24 18.052 40.24 40.241zm21.23-106.49c0 8.442-6.873 15.311-15.32 15.311-3.239 0-6.291-1.265-8.578-3.545-2.297-2.304-3.562-5.36-3.562-8.605v-36.3c0-8.42-6.851-15.27-15.271-15.27h-22.88v-21.591c0-1.967-.101-3.927-.301-5.87h25.671c22.188 0 40.24 18.047 40.24 40.23v35.64z"/><path d="m201 186.648c4.143 0 7.5-3.357 7.5-7.5v-10.568c0-4.143-3.357-7.5-7.5-7.5s-7.5 3.357-7.5 7.5v10.568c0 4.143 3.357 7.5 7.5 7.5z"/><path d="m311 186.648c4.143 0 7.5-3.357 7.5-7.5v-10.568c0-4.143-3.357-7.5-7.5-7.5s-7.5 3.357-7.5 7.5v10.568c0 4.143 3.357 7.5 7.5 7.5z"/><path d="m256 192.94c7.726 0 15.071-3.346 20.154-9.18 2.722-3.123 2.396-7.86-.728-10.581-3.122-2.722-7.86-2.397-10.581.728-2.233 2.563-5.458 4.033-8.846 4.033s-6.612-1.47-8.846-4.033c-2.721-3.124-7.459-3.448-10.581-.728-3.123 2.721-3.449 7.458-.728 10.581 5.085 5.835 12.43 9.18 20.156 9.18z"/></g></svg>