<svg id="Capa_1" enable-background="new 0 0 512.004 512.004" height="512" viewBox="0 0 512.004 512.004" width="512" xmlns="http://www.w3.org/2000/svg"><g><path d="m496.836 15.171c-10.225-10.225-26.802-10.225-37.026 0l-147.17 147.168c-10.224 10.224-10.225 26.802 0 37.026 10.225 10.225 26.802 10.225 37.026 0l147.17-147.167c10.224-10.225 10.224-26.802 0-37.027z" fill="#fbf198"/><g><circle cx="318.369" cy="193.637" fill="#f6ca56" r="56.238"/><path d="m321.444 181.616c12.467-12.466 29.329-17.848 45.597-16.161-2.4-4.139-5.363-8.041-8.906-11.584-21.962-21.963-57.571-21.963-79.533 0-21.963 21.962-21.963 57.571 0 79.533 9.496 9.496 21.543 14.877 33.935 16.162-12.475-21.517-9.512-49.531 8.907-67.95z" fill="#f1b70b"/></g><g><path d="m144.469 248.574h171.437v66.486h-171.437z" fill="#f6ca56" transform="matrix(.707 .707 -.707 .707 266.697 -80.225)"/><path d="m230.251 234.866-37.168-37.169-47.013 47.013 28.282 28.283c16.963-14.831 35.718-27.661 55.899-38.127z" fill="#f1b70b"/></g><g><path d="m301.18 330.366-119.541-119.542c-11.894-11.894-12.159-30.116-.567-39.02l32.851-25.235c9.874-7.585 24.986-5.661 35.117 4.471l111.925 111.926c10.132 10.132 12.055 25.243 4.471 35.117l-25.236 32.851c-8.904 11.591-27.126 11.326-39.02-.568z" fill="#fbf198"/><path d="m214.499 243.684c27.865-16.8 58.874-28.905 91.932-35.252l-57.391-57.392c-10.132-10.132-25.243-12.056-35.117-4.471l-32.851 25.235c-11.591 8.904-11.326 27.126.568 39.02z" fill="#f9d171"/></g><g><path d="m107.342 237.025-14.464 5.01c-19.868 6.882-35.029 23.17-40.472 43.48l-43.306 161.618c-9.073 33.859 21.91 64.843 55.77 55.77l161.618-43.305c20.31-5.442 36.598-20.603 43.481-40.471l5.01-14.464c7.944-22.935 2.092-48.392-15.071-65.555l-87.011-87.012c-17.163-17.162-42.621-23.015-65.555-15.071z" fill="#fbf198"/><path d="m77.84 485.433c0-89.694 41.869-169.603 107.12-221.271l-12.065-12.065c-17.162-17.163-42.62-23.016-65.555-15.071l-14.464 5.01c-19.868 6.882-35.03 23.17-40.472 43.48l-43.304 161.617c-9.073 33.859 21.911 64.843 55.77 55.77l13.315-3.568c-.224-4.606-.345-9.24-.345-13.902z" fill="#f9d171"/></g><g fill="#ffa1ac"><ellipse cx="94.067" cy="307.026" rx="23.045" ry="28.938" transform="matrix(.707 -.707 .707 .707 -189.548 156.44)"/><ellipse cx="94.067" cy="307.026" rx="23.045" ry="28.938" transform="matrix(.707 -.707 .707 .707 -189.548 156.44)"/><ellipse cx="204.978" cy="417.938" rx="23.045" ry="28.938" transform="matrix(.707 -.707 .707 .707 -235.489 267.35)"/></g><ellipse cx="162.043" cy="349.961" fill="#3e4f61" rx="17.189" ry="15.361" transform="matrix(.707 -.707 .707 .707 -199.999 217.083)"/></g><g><path d="m502.138 9.872c-6.359-6.365-14.817-9.871-23.815-9.871s-17.456 3.506-23.814 9.868l-121.684 121.683c-21.385-4.989-43.832 1.323-59.527 17.017-2.724 2.725-5.171 5.664-7.336 8.786l-11.618-11.619c-12.794-12.792-32.135-14.988-44.989-5.115l-32.853 25.235c-6.765 5.196-10.808 12.937-11.386 21.795-.491 7.522 1.57 15.083 5.753 21.657l-20.426 20.426c-14.574-4.828-30.63-4.967-45.557.204l-14.464 5.01c-22.246 7.706-39.167 25.884-45.261 48.626l-15.146 56.521c-1.072 4.001 1.302 8.113 5.303 9.186 4.002 1.076 8.114-1.302 9.186-5.303l15.146-56.521c4.805-17.93 18.144-32.26 35.683-38.335l14.464-5.01c20.079-6.959 42.769-1.741 57.796 13.287l87.012 87.014c15.028 15.027 20.243 37.714 13.287 57.796l-5.011 14.464c-6.075 17.538-20.406 30.877-38.335 35.682l-161.618 43.304c-13.278 3.559-27.015-.121-36.738-9.845s-13.404-23.458-9.846-36.74l19.011-70.947c1.072-4.001-1.302-8.113-5.303-9.186-4.002-1.073-8.114 1.302-9.186 5.303l-19.01 70.947c-4.963 18.521.169 37.672 13.727 51.229 10.155 10.155 23.446 15.583 37.262 15.582 4.629 0 9.318-.609 13.967-1.855l161.618-43.305c22.742-6.094 40.92-23.014 48.626-45.26l5.011-14.464c5.17-14.926 5.032-30.982.204-45.557l20.426-20.426c5.934 3.776 12.672 5.824 19.461 5.824.732 0 1.466-.023 2.198-.071 8.857-.579 16.598-4.623 21.793-11.387l25.235-32.851c9.877-12.856 7.678-32.197-5.114-44.99l-11.62-11.62c3.123-2.164 6.062-4.611 8.787-7.335 15.696-15.697 22.01-38.148 17.018-59.528l47.827-47.824c2.93-2.929 2.93-7.678.001-10.606s-7.678-2.93-10.606-.001l-43.006 43.004c-2.962-5.567-6.749-10.704-11.229-15.177-4.479-4.486-9.618-8.275-15.185-11.237l116.86-116.862c3.526-3.529 8.216-5.473 13.205-5.473 4.988 0 9.678 1.943 13.209 5.478 3.529 3.526 5.473 8.216 5.473 13.205 0 4.991-1.944 9.686-5.475 13.216l-48.688 48.684c-2.93 2.929-2.93 7.678-.001 10.606 2.93 2.929 7.679 2.93 10.606.001l48.688-48.685c6.363-6.364 9.868-14.824 9.868-23.822.002-8.999-3.504-17.457-9.864-23.812zm-236.927 323.934-87.011-87.013c-4.02-4.02-8.476-7.479-13.237-10.363l15.837-15.837 110.612 110.613-15.837 15.837c-2.885-4.762-6.344-9.218-10.364-13.237zm94.277-40.292-25.236 32.852c-2.527 3.29-6.39 5.263-10.875 5.556-5.983.401-12.144-2.108-16.895-6.858l-119.54-119.542c-4.749-4.749-7.249-10.905-6.858-16.893.293-4.486 2.266-8.349 5.556-10.876l32.853-25.235c6.904-5.306 17.759-3.66 25.244 3.827l111.924 111.925c7.487 7.486 9.132 18.338 3.827 25.244zm5.431-114.347c5.383 17.342.75 36.093-12.091 48.933-2.742 2.743-5.765 5.115-9.015 7.106l-67.014-67.014c1.992-3.25 4.364-6.273 7.106-9.015 12.84-12.841 31.589-17.475 48.94-12.089 7.49 2.316 14.398 6.495 19.987 12.093 5.59 5.58 9.769 12.488 12.087 19.986z"/><path d="m122.455 296.086 7.937-7.938c2.929-2.929 2.929-7.678-.001-10.606-2.928-2.928-7.677-2.929-10.606.001l-7.937 7.938c-2.929 2.929-2.929 7.678.001 10.606 1.464 1.464 3.384 2.196 5.303 2.196s3.838-.732 5.303-2.197z"/><path d="m178.208 366.127c9.625-9.626 10.205-24.709 1.292-33.624-8.914-8.912-23.997-8.332-33.623 1.293-9.625 9.626-10.205 24.709-1.292 33.624 4.232 4.231 9.854 6.323 15.623 6.323 6.382 0 12.944-2.561 18-7.616zm-21.724-21.724c2.146-2.146 4.87-3.261 7.384-3.261 1.911 0 3.702.644 5.025 1.967 3.064 3.065 2.485 8.633-1.293 12.41-3.777 3.778-9.346 4.357-12.409 1.294-3.064-3.065-2.485-8.632 1.293-12.41z"/><path d="m226.524 400.157 7.937-7.937c2.929-2.93 2.929-7.678 0-10.607-2.93-2.928-7.678-2.928-10.607 0l-7.937 7.937c-2.929 2.93-2.929 7.678 0 10.607 1.465 1.464 3.385 2.196 5.304 2.196s3.839-.732 5.303-2.196z"/><path d="m409.925 372.75c11.248 0 22.495-2.268 32.973-6.802 3.802-1.645 5.55-6.06 3.904-9.861-1.645-3.802-6.062-5.55-9.861-3.904-17.17 7.43-36.861 7.43-54.031 0-3.804-1.646-8.218.103-9.861 3.904-1.646 3.802.103 8.217 3.904 9.861 10.477 4.534 21.724 6.802 32.972 6.802z"/><path d="m365.342 402.53c-1.646 3.802.103 8.217 3.904 9.861 12.926 5.594 26.803 8.391 40.679 8.391s27.752-2.797 40.678-8.391c3.802-1.645 5.55-6.06 3.904-9.861-1.645-3.802-6.059-5.55-9.861-3.904-22.065 9.547-47.377 9.547-69.442 0-3.806-1.646-8.218.103-9.862 3.904z"/><path d="m456.94 445.068c-29.879 12.928-64.152 12.928-94.031 0-3.804-1.646-8.218.103-9.861 3.904-1.646 3.802.103 8.217 3.904 9.861 16.833 7.284 34.903 10.926 52.973 10.926s36.141-3.642 52.973-10.926c3.802-1.645 5.55-6.06 3.904-9.861-1.645-3.801-6.061-5.55-9.862-3.904z"/></g></svg>