<svg id="Capa_1" enable-background="new 0 0 512 512" height="512" viewBox="0 0 512 512" width="512" xmlns="http://www.w3.org/2000/svg"><g><circle cx="180.976" cy="48.414" fill="#00c755" r="32.601"/><circle cx="298.423" cy="29.193" fill="#8ce09f" r="21.693"/><circle cx="331.024" cy="131.357" fill="#00c755" r="32.601"/><circle cx="213.577" cy="148.634" fill="#8ce09f" r="39.756"/><path d="m416.852 466.919-.925.925c-10.563 10.563-27.688 10.563-38.251 0l-30.4-30.4c-10.563-10.563-10.563-27.688 0-38.251l.925-.925c10.563-10.563 27.688-10.563 38.251 0l30.4 30.4c10.562 10.563 10.562 27.688 0 38.251z" fill="#736acc"/><path d="m95.148 466.919.925.925c10.563 10.563 27.688 10.563 38.251 0l30.4-30.4c10.563-10.563 10.563-27.688 0-38.251l-.925-.925c-10.563-10.563-27.688-10.563-38.251 0l-30.4 30.4c-10.562 10.563-10.562 27.688 0 38.251z" fill="#5149bf"/><g><path d="m389.71 160.805h-267.42c-30.849 32.824-49.763 76.993-49.763 125.594 0 101.329 82.143 155.374 183.472 155.374s183.473-54.045 183.473-155.374c.001-48.601-18.913-92.77-49.762-125.594z" fill="#a4e7ff"/><path d="m171.158 277.58c0-42.562 11.435-82.45 31.386-116.775h-80.254c-30.849 32.824-49.763 76.993-49.763 125.594 0 95.396 72.808 148.875 165.885 154.812-41.575-42.04-67.254-99.834-67.254-163.631z" fill="#00c5fd"/></g><path d="m256.654 504.5h-1.309c-14.938 0-27.048-12.11-27.048-27.048v-42.992c0-14.938 12.11-27.048 27.048-27.048h1.309c14.938 0 27.048 12.11 27.048 27.048v42.992c0 14.938-12.11 27.048-27.048 27.048z" fill="#736acc"/><ellipse cx="169.964" cy="320.2" fill="#ffa1ac" rx="31.746" ry="25.281"/><ellipse cx="342.036" cy="320.2" fill="#ffa1ac" rx="31.746" ry="25.281"/><g><path d="m403.034 210.962h-294.068c-18.394 0-33.306-14.912-33.306-33.306 0-18.394 14.912-33.306 33.306-33.306h294.067c18.394 0 33.306 14.911 33.306 33.306 0 18.394-14.911 33.306-33.305 33.306z" fill="#736acc"/><path d="m213.06 144.35h-104.094c-18.394 0-33.306 14.911-33.306 33.306 0 18.394 14.911 33.306 33.306 33.306h71.885c7.179-24.069 18.143-46.503 32.209-66.612z" fill="#5149bf"/></g></g><g><path d="m180.976 88.515c22.111 0 40.101-17.989 40.101-40.101s-17.989-40.102-40.101-40.102-40.101 17.989-40.101 40.102c0 22.111 17.989 40.101 40.101 40.101zm0-65.203c13.84 0 25.101 11.261 25.101 25.102s-11.26 25.101-25.101 25.101-25.101-11.26-25.101-25.101 11.26-25.102 25.101-25.102z"/><path d="m298.423 58.387c16.097 0 29.193-13.096 29.193-29.193s-13.096-29.194-29.193-29.194c-16.098 0-29.194 13.096-29.194 29.193s13.096 29.194 29.194 29.194zm0-43.387c7.826 0 14.193 6.367 14.193 14.193s-6.367 14.193-14.193 14.193c-7.827 0-14.194-6.367-14.194-14.193s6.367-14.193 14.194-14.193z"/><path d="m430.192 208.077c8.367-7.478 13.647-18.343 13.647-30.421 0-22.501-18.305-40.807-40.806-40.807h-32.291c.249-1.807.382-3.638.382-5.489 0-22.111-17.989-40.101-40.1-40.101s-40.1 17.989-40.1 40.101c0 1.851.13 3.682.379 5.489h-31.952c-5.26-20.63-23.877-35.47-45.777-35.47-21.894 0-40.496 14.841-45.756 35.47h-58.853c-22.5 0-40.806 18.306-40.806 40.807 0 12.079 5.28 22.943 13.647 30.421-11.13 24.646-16.776 50.962-16.776 78.323 0 46.106 16.475 85.353 47.743 114.039l-22.927 22.928c-6.524 6.523-10.117 15.199-10.117 24.428s3.593 17.904 10.117 24.429l.92.92c6.529 6.528 15.206 10.124 24.432 10.124 9.228 0 17.903-3.597 24.424-10.124l30.4-30.399c1.908-1.908 3.56-3.995 4.952-6.239 14.341 4.934 29.701 8.466 45.822 10.542v30.405c0 19.05 15.498 34.548 34.548 34.548h1.309c19.05 0 34.548-15.498 34.548-34.548v-30.405c16.124-2.076 31.486-5.608 45.823-10.541 1.392 2.244 3.044 4.33 4.952 6.238l30.398 30.396c6.524 6.53 15.199 10.127 24.427 10.127 9.227 0 17.903-3.596 24.432-10.124l.92-.92c6.524-6.524 10.117-15.199 10.117-24.429 0-9.229-3.593-17.904-10.117-24.429l-22.932-22.932c11.44-10.5 20.984-22.489 28.419-35.74 2.027-3.612.742-8.184-2.87-10.211-3.613-2.026-8.185-.74-10.211 2.871-7.833 13.958-18.292 26.378-31.09 36.918-12.913 10.644-28.156 19.347-45.317 25.872-14.529 5.552-30.327 9.497-47.054 11.78-1.304-17.868-16.249-32.011-34.445-32.011h-1.309c-18.196 0-33.141 14.143-34.445 32.011-16.726-2.283-32.526-6.229-47.065-11.785-17.149-6.521-32.393-15.224-45.308-25.87-31.726-26.126-48.496-63.427-48.496-107.869 0-24.602 4.967-48.274 14.73-70.494 4.427 1.649 9.212 2.555 14.206 2.555h62.204c4.142 0 7.5-3.357 7.5-7.5s-3.358-7.5-7.5-7.5h-62.204c-14.229 0-25.806-11.576-25.806-25.806s11.576-25.807 25.806-25.807h294.067c14.229 0 25.806 11.577 25.806 25.807s-11.576 25.806-25.806 25.806h-189.972c-4.142 0-7.5 3.357-7.5 7.5s3.358 7.5 7.5 7.5h189.973c4.996 0 9.782-.906 14.21-2.557 9.763 22.22 14.727 45.894 14.727 70.495 0 14.129-1.689 27.671-5.02 40.25-1.061 4.004 1.326 8.109 5.33 9.17.644.171 1.289.252 1.925.252 3.32 0 6.355-2.222 7.245-5.582 3.663-13.832 5.52-28.666 5.52-44.09-.001-27.36-5.647-53.676-16.779-78.322zm-42.544 201.997 23.899 23.899c3.69 3.691 5.723 8.601 5.723 13.822 0 5.223-2.032 10.131-5.723 13.821l-.92.92c-3.696 3.696-8.606 5.731-13.826 5.731-5.218 0-10.125-2.034-13.818-5.731l-30.4-30.399c-.391-.391-.742-.808-1.095-1.224 13.23-5.707 25.347-12.684 36.16-20.839zm-151.85 24.386c0-10.778 8.769-19.547 19.548-19.547h1.309c10.779 0 19.548 8.769 19.548 19.547v42.992c0 10.778-8.769 19.548-19.548 19.548h-1.309c-10.779 0-19.548-8.77-19.548-19.548zm-106.784 28.079c-3.691 3.694-8.597 5.729-13.815 5.729-5.22 0-10.13-2.035-13.826-5.731l-.92-.92c-3.691-3.69-5.723-8.599-5.723-13.821s2.033-10.131 5.723-13.821l23.899-23.9c10.816 8.156 22.934 15.135 36.16 20.839-.353.416-.705.833-1.095 1.224zm176.911-331.179c0-13.841 11.26-25.101 25.1-25.101s25.1 11.26 25.1 25.101c0 1.868-.207 3.702-.606 5.489h-48.988c-.399-1.787-.606-3.621-.606-5.489zm-92.35-14.98c13.592 0 25.327 8.371 30.044 20.47h-60.071c4.717-12.097 16.44-20.47 30.027-20.47z"/><path d="m188.465 270.08c-12.467 0-22.61 10.143-22.61 22.61 0 4.143 3.358 7.5 7.5 7.5s7.5-3.357 7.5-7.5c0-4.196 3.414-7.61 7.61-7.61s7.61 3.414 7.61 7.61c0 4.143 3.358 7.5 7.5 7.5s7.5-3.357 7.5-7.5c0-12.467-10.142-22.61-22.61-22.61z"/><path d="m300.925 292.69c0 4.143 3.358 7.5 7.5 7.5s7.5-3.357 7.5-7.5c0-4.196 3.414-7.61 7.61-7.61s7.61 3.414 7.61 7.61c0 4.143 3.358 7.5 7.5 7.5s7.5-3.357 7.5-7.5c0-12.468-10.143-22.61-22.61-22.61s-22.61 10.143-22.61 22.61z"/><path d="m266.375 305.424c-2.62 3.006-6.401 4.729-10.375 4.729s-7.755-1.724-10.375-4.729c-2.721-3.124-7.459-3.447-10.582-.727-3.123 2.722-3.448 7.46-.726 10.582 5.469 6.275 13.372 9.874 21.682 9.874s16.213-3.599 21.682-9.874c2.722-3.122 2.396-7.86-.726-10.582-3.121-2.721-7.859-2.396-10.58.727z"/></g></svg>