<svg id="Capa_1" enable-background="new 0 0 512 512" height="512" viewBox="0 0 512 512" width="512" xmlns="http://www.w3.org/2000/svg"><g><g><path d="m473.581 217.902h-168.317c-6.167 0-11.166-4.999-11.166-11.166v-168.317c0-6.167-4.999-11.166-11.166-11.166h-53.866c-6.167 0-11.166 4.999-11.166 11.166v168.317c0 6.167-4.999 11.166-11.166 11.166h-168.315c-6.167 0-11.166 4.999-11.166 11.166v53.866c0 6.167 4.999 11.166 11.166 11.166h168.317c6.167 0 11.166 4.999 11.166 11.166v168.317c0 6.167 4.999 11.166 11.166 11.166h53.866c6.167 0 11.166-4.999 11.166-11.166v-168.319c0-6.167 4.999-11.166 11.166-11.166h168.317c6.167 0 11.166-4.999 11.166-11.166v-53.866c-.002-6.165-5.001-11.164-11.168-11.164z" fill="#fbf198"/><g fill="#f9d171"><path d="m224.601 28.188c-2.661 1.163-4.778 3.333-5.875 6.029 1.932-2.035 3.889-4.047 5.875-6.029z"/><path d="m217.901 458.446v15.135c0 6.167 4.999 11.166 11.166 11.166h16.856c-9.88-8.18-19.234-16.971-28.022-26.301z"/><path d="m133.92 246.774c0-9.738.473-19.365 1.354-28.873h-96.855c-6.167 0-11.166 4.999-11.166 11.166v53.866c0 6.167 4.999 11.166 11.166 11.166h99.108c-2.373-15.429-3.607-31.232-3.607-47.325z"/></g></g><g><path d="m256 7.5c-137.243 0-248.5 111.257-248.5 248.5s111.257 248.5 248.5 248.5 248.5-111.257 248.5-248.5-111.257-248.5-248.5-248.5zm0 427c-98.425 0-178.5-80.075-178.5-178.5s80.075-178.5 178.5-178.5 178.5 80.075 178.5 178.5-80.075 178.5-178.5 178.5z" fill="#a4e7ff"/><path d="m187.676 420.896c-64.62-26.875-110.176-90.662-110.176-164.896 0-67.945 38.164-127.139 94.177-157.289 19.176-35.029 44.944-65.93 75.636-91.043-133.218 4.579-239.813 113.999-239.813 248.332 0 137.243 111.257 248.5 248.5 248.5 5.312 0 10.58-.187 15.81-.515-33.097-22.036-61.696-50.286-84.134-83.089z" fill="#00c5fd"/></g></g><g><path d="m417.254 435.104c-44.303 39.915-101.571 61.896-161.254 61.896-132.888 0-241-108.112-241-241 0-72.187 31.968-139.97 87.705-185.97 3.195-2.636 3.647-7.363 1.011-10.558-2.636-3.197-7.363-3.646-10.558-1.011-59.203 48.86-93.158 120.86-93.158 197.539 0 68.379 26.629 132.666 74.981 181.019s112.64 74.981 181.019 74.981c63.397 0 124.231-23.351 171.295-65.751 3.077-2.772 3.324-7.515.552-10.593-2.775-3.078-7.517-3.323-10.593-.552z"/><path d="m437.019 74.981c-48.353-48.352-112.64-74.981-181.019-74.981-46.76 0-92.516 12.728-132.319 36.807-3.544 2.144-4.68 6.755-2.535 10.299 2.143 3.543 6.755 4.679 10.299 2.535 37.462-22.662 80.533-34.641 124.555-34.641 132.888 0 241 108.112 241 241 0 55.533-19.344 109.73-54.469 152.61-2.625 3.205-2.155 7.93 1.049 10.555 1.395 1.143 3.077 1.698 4.749 1.698 2.17 0 4.323-.938 5.806-2.747 37.315-45.554 57.865-103.128 57.865-162.116 0-68.379-26.629-132.666-74.981-181.019z"/><path d="m441.992 254.275c-.118-12.805-1.548-25.571-4.255-37.975-15.459-70.826-71.212-126.579-142.038-142.038-.002 0-.003 0-.005-.001-25.917-5.657-53.471-5.657-79.388 0-.002 0-.004 0-.005.001-70.826 15.46-126.579 71.213-142.038 142.04-2.828 12.96-4.263 26.316-4.263 39.698 0 13.334 1.426 26.643 4.235 39.561.006.033.013.066.02.098.003.013.005.026.008.04 15.459 70.826 71.212 126.579 142.039 142.038.012.002.023.005.035.007.035.008.07.015.106.022 12.916 2.808 26.224 4.234 39.557 4.234 13.382 0 26.738-1.435 39.699-4.263 70.826-15.459 126.579-71.212 142.038-142.039 2.828-12.96 4.263-26.316 4.263-39.698 0-.575-.003-1.15-.008-1.725zm-21.189-43.875h-115.543c-2.019 0-3.66-1.642-3.66-3.66v-115.543c57.748 15.989 103.215 61.456 119.203 119.203zm-210.403-119.203v115.543c0 2.019-1.642 3.66-3.66 3.66h-115.543c15.989-57.747 61.456-103.214 119.203-119.203zm-119.203 210.403h115.543c2.019 0 3.66 1.642 3.66 3.66v115.543c-57.748-15.989-103.215-61.456-119.203-119.203zm134.203 122.645v-118.985c0-10.289-8.371-18.66-18.66-18.66h-118.987c-1.819-10.049-2.753-20.313-2.753-30.6s.934-20.551 2.753-30.6h118.987c10.289 0 18.66-8.371 18.66-18.66v-119c20.094-3.639 41.105-3.639 61.199 0v119c0 10.289 8.371 18.66 18.66 18.66h118.987c3.666 20.175 3.666 41.024 0 61.199h-118.986c-10.289 0-18.66 8.371-18.66 18.66v118.985c-20.105 3.631-41.096 3.631-61.2.001zm76.2-3.442v-115.543c0-2.019 1.642-3.66 3.66-3.66h115.543c-15.988 57.749-61.455 103.215-119.203 119.203z"/></g></svg>