<svg id="Capa_1" enable-background="new 0 0 512 512" height="512" viewBox="0 0 512 512" width="512" xmlns="http://www.w3.org/2000/svg"><g><g><circle cx="256" cy="256" fill="#ff89ca" r="248.5"/><path d="m140.406 238.073c0-88.177 33.461-168.538 88.374-229.083-124.434 13.559-221.28 118.967-221.28 247.01 0 137.243 111.257 248.5 248.5 248.5 4.075 0 8.126-.105 12.153-.299-77.877-62.517-127.747-158.491-127.747-266.128z" fill="#ff5fb7"/></g><g><circle cx="255.326" cy="257.064" fill="#ffc9e7" r="198.5"/><path d="m140.406 238.073c0-60.291 15.663-116.915 43.11-166.063-74.063 28.839-126.69 100.912-126.69 185.053 0 95.808 68.229 175.979 158.649 194.48-46.955-58.442-75.069-132.667-75.069-213.47z" fill="#ff9ed4"/></g><g><path d="m395.326 264.674c0-40.662-27.641-64.621-61.738-64.621-5.958 0-11.713.748-17.164 2.172-.118-25.383-9.98-41.248-18.265-50.099-11.214-11.98-26.982-18.851-43.261-18.851-14.313 0-28.228 5.316-39.004 14.743-10.78-9.446-24.71-14.774-39.038-14.774-16.278 0-32.046 6.871-43.261 18.851-8.335 8.904-18.27 24.904-18.27 50.557v100.012c0 12.619 10.327 23.25 22.943 23.011 12.23-.232 22.073-10.218 22.073-22.504v-100.52c0-18.004 8.896-24.392 16.515-24.392 3.928 0 7.62 1.633 10.396 4.598 3.984 4.256 6.097 11.058 6.117 19.671 0 .052-.002.102-.002.154v99.984c0 12.344 9.712 22.795 22.054 23.038 11.86.233 21.681-8.708 22.846-20.208.079-.765.12-1.541.12-2.327v-100.518c0-.04-.001-.078-.001-.117.05-17.888 8.916-24.243 16.513-24.243 3.928 0 7.62 1.633 10.396 4.598 4.003 4.277 6.119 11.121 6.119 19.793v98.455c0 38.419 19.966 74.379 53.151 93.738.735.429 1.476.85 2.222 1.263 12.523 6.938 28.246.122 32.023-13.687.04-.144.079-.289.118-.433 2.688-9.824-1.618-20.265-10.516-25.219-.615-.342-1.224-.694-1.828-1.054-7.649-4.566-14.042-10.678-18.945-17.795 1.958.223 3.941.347 5.949.347 34.097.002 61.738-32.961 61.738-73.623zm-78.459 0c0-17.573 9.543-19.605 16.721-19.605 7.179 0 16.722 2.032 16.722 19.605 0 17.464-9.904 28.609-16.722 28.609-6.817-.001-16.721-11.145-16.721-28.609z" fill="#ff89ca"/><path d="m140.406 238.073c0-35.091 5.306-68.941 15.147-100.8-8.246 3.205-15.791 8.236-21.956 14.822-8.335 8.904-18.27 24.904-18.27 50.557v100.011c0 12.619 10.327 23.25 22.943 23.011 4.631-.088 8.918-1.576 12.46-4.057-6.732-26.735-10.324-54.719-10.324-83.544z" fill="#ff5fb7"/></g></g><g><path d="m333.588 237.569c-15.619 0-24.221 9.626-24.221 27.105 0 21.279 12.765 36.109 24.221 36.109 11.457 0 24.223-14.83 24.223-36.109 0-17.479-8.603-27.105-24.223-27.105zm0 48.198c-2.357-.563-9.221-7.604-9.221-21.093 0-12.105 4.688-12.105 9.221-12.105 4.534 0 9.223 0 9.223 12.105 0 13.491-6.865 20.53-9.223 21.093z"/><path d="m402.826 264.674c0-21.434-7.021-39.722-20.303-52.886-12.516-12.404-29.895-19.235-48.935-19.235-3.402 0-6.777.222-10.099.662-2.134-22.698-11.7-37.501-19.854-46.214-12.628-13.489-30.392-21.226-48.736-21.226-14.006 0-27.637 4.459-39 12.666-11.372-8.226-25.018-12.697-39.042-12.697-18.346 0-36.11 7.737-48.736 21.226-9.259 9.891-20.295 27.58-20.295 55.682v100.012c0 8.176 3.366 16.168 9.236 21.928 5.793 5.685 13.373 8.74 21.35 8.582 16.228-.308 29.43-13.767 29.43-30.002v-100.521c0-10.262 3.539-16.892 9.016-16.892 1.857 0 3.559.769 4.92 2.224 2.624 2.803 4.077 7.975 4.093 14.479-.001.048-.002.172-.002.22v99.984c0 16.519 13.191 30.217 29.406 30.537.196.004.392.006.587.006 15.265 0 28.327-11.733 29.868-26.951.105-1.026.158-2.065.158-3.089v-100.518l-.001-.096c.028-10.184 3.566-16.764 9.013-16.764 1.857 0 3.559.769 4.92 2.224 2.641 2.821 4.095 8.03 4.095 14.668v98.455c0 41.351 21.792 79.751 56.871 100.215.783.457 1.571.905 2.367 1.347 4.426 2.452 9.297 3.689 14.198 3.689 3.885 0 7.788-.777 11.501-2.343 8.496-3.581 14.762-10.729 17.197-19.631l.114-.417c3.62-13.233-2.179-27.112-14.1-33.75-.55-.306-1.095-.62-1.635-.942-2.231-1.332-4.346-2.813-6.34-4.439 33.215-5.943 58.738-39.641 58.738-80.193zm-69.237 66.125c-1.643 0-3.358-.101-5.101-.299-2.914-.334-5.767 1.072-7.279 3.593s-1.413 5.693.255 8.114c5.652 8.204 12.812 14.926 21.276 19.979.668.399 1.342.787 2.024 1.167 5.873 3.271 8.724 10.132 6.926 16.704l-.114.416c-1.208 4.416-4.324 7.97-8.55 9.751-4.131 1.741-8.724 1.505-12.604-.644-.697-.387-1.39-.78-2.078-1.182-30.49-17.787-49.431-51.223-49.431-87.26v-98.455c0-10.61-2.816-19.227-8.144-24.918-4.209-4.497-9.846-6.974-15.871-6.974-11.908 0-23.952 9.809-24.013 31.743l.001 100.636c0 .517-.027 1.043-.081 1.571-.78 7.704-7.435 13.638-15.237 13.465-8.106-.16-14.701-7.131-14.701-15.54v-99.916c.001-.054.002-.184.002-.238-.025-10.547-2.841-19.116-8.142-24.778-4.209-4.497-9.846-6.974-15.871-6.974-11.954 0-24.016 9.861-24.016 31.892v100.518c0 8.12-6.601 14.852-14.715 15.005-3.91.057-7.664-1.45-10.56-4.292-3.013-2.957-4.741-7.046-4.741-11.221v-100.011c0-23.205 8.835-37.514 16.246-45.432 9.801-10.471 23.573-16.477 37.785-16.477 12.481 0 24.59 4.587 34.096 12.916 2.825 2.477 7.05 2.479 9.881.004 9.5-8.311 21.598-12.888 34.065-12.888 14.211 0 27.983 6.006 37.785 16.477 7.35 7.852 16.133 22.034 16.24 45.009.011 2.317 1.093 4.5 2.93 5.912 1.839 1.413 4.227 1.896 6.467 1.31 4.896-1.28 10.033-1.929 15.268-1.929 32.441 0 54.237 22.955 54.237 57.121.002 36.461-24.329 66.125-54.235 66.125z"/><path d="m437.02 74.98c-48.352-48.351-112.64-74.98-181.02-74.98-60.357 0-118.962 21.407-165.018 60.276-3.166 2.671-3.566 7.403-.895 10.569s7.403 3.565 10.568.894c43.356-36.589 98.524-56.739 155.345-56.739 132.888 0 241 108.112 241 241s-108.112 241-241 241-241-108.112-241-241c0-59.361 21.771-116.396 61.305-160.599 2.762-3.088 2.497-7.829-.59-10.59-3.09-2.762-7.83-2.496-10.591.59-41.996 46.957-65.124 107.544-65.124 170.599 0 68.38 26.629 132.667 74.98 181.02 48.352 48.351 112.64 74.98 181.02 74.98s132.668-26.629 181.02-74.98c48.351-48.353 74.98-112.64 74.98-181.02s-26.629-132.667-74.98-181.02z"/><path d="m406.136 386.214c3.244 2.577 7.961 2.037 10.538-1.207 29.212-36.764 44.652-81.006 44.652-127.944 0-113.589-92.411-206-206-206s-206 92.411-206 206 92.411 206 206 206c50.064 0 98.361-18.25 135.992-51.387 3.109-2.737 3.41-7.477.673-10.585s-7.477-3.41-10.585-.672c-34.892 30.724-79.667 47.645-126.08 47.645-105.317 0-191-85.682-191-191s85.683-191 191-191 191 85.682 191 191c0 43.514-14.314 84.529-41.396 118.613-2.577 3.242-2.037 7.961 1.206 10.537z"/></g></svg>