<svg id="Capa_1" enable-background="new 0 0 512 512" height="512" viewBox="0 0 512 512" width="512" xmlns="http://www.w3.org/2000/svg"><g><ellipse cx="256" cy="410.444" fill="#f9475e" rx="40.89" ry="94.056"/><path d="m235.11 410.444c0-44.01 13.141-80.955 30.89-91.218-3.2-1.851-6.55-2.838-10-2.838-22.583 0-40.89 42.111-40.89 94.056 0 51.946 18.307 94.056 40.89 94.056 3.45 0 6.8-.988 10-2.838-17.749-10.263-30.89-47.208-30.89-91.218z" fill="#e92740"/><ellipse cx="425.907" cy="279.383" fill="#736acc" rx="40.89" ry="94.056"/><path d="m405.017 279.384c0-44.01 13.142-80.955 30.89-91.218-3.2-1.851-6.55-2.838-10-2.838-22.583 0-40.89 42.11-40.89 94.056s18.307 94.056 40.89 94.056c3.45 0 6.8-.988 10-2.838-17.749-10.263-30.89-47.209-30.89-91.218z" fill="#5149bf"/><ellipse cx="86.093" cy="279.383" fill="#a4e7ff" rx="40.89" ry="94.056"/><path d="m65.203 279.384c0-44.01 13.141-80.955 30.89-91.218-3.2-1.851-6.55-2.838-10-2.838-22.583 0-40.89 42.11-40.89 94.056s18.307 94.056 40.89 94.056c3.45 0 6.8-.988 10-2.838-17.749-10.263-30.89-47.209-30.89-91.218z" fill="#5ad6ff"/><g><circle cx="83.091" cy="177.407" fill="#ff89ca" r="23.958"/><circle cx="428.909" cy="177.407" fill="#ff9ed4" r="23.958"/></g><path d="m256 7.5c-93.837 0-169.907 76.07-169.907 169.907s76.07 169.907 169.907 169.907 169.907-76.07 169.907-169.907-76.07-169.907-169.907-169.907zm0 287.996c-65.115 0-118.089-52.974-118.089-118.089 0-65.114 52.974-118.088 118.089-118.088 65.114 0 118.088 52.974 118.088 118.088.001 65.115-52.974 118.089-118.088 118.089z" fill="#ffc9e7"/><path d="m198.814 280.694c-36.29-20.172-60.903-58.906-60.903-103.288 0-41.384 21.403-77.858 53.716-98.951 9.689-25.205 23.212-48.503 39.858-69.188-82.219 11.884-145.392 82.629-145.392 168.14 0 89.614 69.379 163.019 157.353 169.444-18.091-19.496-33.206-41.787-44.632-66.157z" fill="#ff9ed4"/><path d="m281.267 124.551c4.104 8.316 12.038 14.081 21.216 15.414 23.111 3.358 32.34 31.76 15.616 48.062-6.641 6.473-9.671 15.8-8.104 24.94 3.948 23.018-20.212 40.571-40.884 29.704-8.209-4.316-18.015-4.316-26.224 0-20.672 10.868-44.832-6.686-40.884-29.704 1.568-9.141-1.463-18.467-8.104-24.94-16.724-16.301-7.495-44.703 15.616-48.062 9.178-1.334 17.111-7.098 21.216-15.414 10.337-20.943 40.201-20.943 50.536 0z" fill="#fbf198"/></g><g><path d="m167.235 266.172c23.739 23.749 55.262 36.828 88.765 36.828s65.026-13.079 88.765-36.828c23.745-23.747 36.825-55.271 36.825-88.762 0-33.481-13.078-65.004-36.825-88.762-23.739-23.749-55.262-36.828-88.765-36.828s-65.026 13.079-88.764 36.826c-23.748 23.748-36.826 55.271-36.826 88.764 0 33.503 13.079 65.027 36.825 88.762zm5.484-161.435 29.348 29.348c-10.564 3.563-18.89 11.842-22.43 22.739-1.403 4.319-1.942 8.746-1.7 13.086h-32.271c1.618-24.188 11.038-46.884 27.053-65.173zm157.056 80.173h36.559c-1.617 24.189-11.038 46.885-27.053 65.173l-22.694-22.694c1.396-4.996 1.72-10.332.801-15.691-1.15-6.708 1.072-13.55 5.947-18.301 2.61-2.544 4.755-5.412 6.44-8.487zm-120.969 61.684c6.255 4.544 13.57 6.853 20.937 6.852 5.669 0 11.37-1.367 16.636-4.136.693-.364 1.402-.681 2.122-.962v39.396c-24.196-1.616-46.891-11.036-65.174-27.052l19.536-19.536c1.747 1.995 3.726 3.827 5.943 5.438zm54.694 1.753c.72.281 1.429.598 2.122.962 12.108 6.365 26.505 5.326 37.572-2.716 2.216-1.61 4.196-3.442 5.943-5.438l19.537 19.537c-18.281 16.015-40.978 25.436-65.174 27.052zm49.364-65.692c-8.41 8.198-12.246 20.004-10.261 31.579 1.36 7.933-1.715 15.493-8.226 20.224s-14.651 5.319-21.775 1.574c-10.396-5.465-22.809-5.465-33.205 0-7.123 3.747-15.263 3.158-21.775-1.574-6.511-4.73-9.586-12.291-8.227-20.223 1.986-11.576-1.85-23.382-10.26-31.58-5.764-5.617-7.72-13.541-5.232-21.195 2.487-7.655 8.727-12.916 16.691-14.073 11.622-1.688 21.665-8.984 26.863-19.517 3.562-7.218 10.493-11.526 18.542-11.526s14.98 4.309 18.542 11.526c5.198 10.532 15.241 17.829 26.863 19.517 7.965 1.157 14.204 6.418 16.691 14.073 2.489 7.654.533 15.578-5.231 21.195zm-18.701-54.015c-2.574-1.923-4.705-4.442-6.169-7.409-4.921-9.971-13.942-16.872-24.493-19.106v-35.048c24.197 1.616 46.893 11.037 65.174 27.052zm-45.663-26.515c-10.551 2.234-19.572 9.135-24.493 19.106-1.464 2.967-3.596 5.486-6.169 7.409l-34.512-34.512c18.281-16.015 40.978-25.436 65.174-27.052zm-66.275 82.785c1.685 3.075 3.83 5.943 6.44 8.487 4.875 4.751 7.098 11.593 5.946 18.302-.919 5.359-.595 10.694.802 15.69l-22.695 22.695c-16.015-18.281-25.435-40.978-27.052-65.174zm184.108-15h-32.271c.241-4.34-.297-8.767-1.7-13.086-3.54-10.897-11.867-19.175-22.43-22.739l29.347-29.347c16.016 18.295 25.437 40.991 27.054 65.172z"/><path d="m454.222 196.084c3.958-5.356 6.148-11.878 6.148-18.674 0-16.772-13.195-30.52-29.749-31.412-7.042-39.362-27.325-75.352-57.62-101.951-32.352-28.403-73.903-44.047-117.001-44.047-35.89 0-70.464 10.664-99.985 30.84-3.42 2.338-4.298 7.004-1.961 10.424 2.338 3.421 7.006 4.298 10.424 1.961 27.018-18.465 58.666-28.225 91.522-28.225 80.672 0 149.827 60.156 160.861 139.935 1.028 7.379 1.549 14.941 1.549 22.476 0 2.518-.058 5.071-.172 7.588-.229 5.008-.691 10.014-1.378 14.895-4.242 30.673-17.169 59.375-37.381 83.003-24.559 28.721-58.469 48.081-95.481 54.515-18.357 3.186-37.641 3.186-55.994 0-37.015-6.434-70.925-25.794-95.484-54.516-20.211-23.627-33.138-52.329-37.383-83.019-.684-4.864-1.146-9.87-1.375-14.876-.114-2.519-.172-5.072-.172-7.59 0-7.541.521-15.103 1.55-22.482 4.729-34.198 19.978-65.458 44.094-90.4 2.88-2.978 2.8-7.726-.179-10.604-2.979-2.881-7.727-2.801-10.604.179-24.721 25.567-40.911 57.219-47.082 91.898-16.549.897-29.738 14.642-29.738 31.411 0 6.799 2.193 13.324 6.146 18.676-12.486 18.524-20.077 49.567-20.077 83.291 0 26.131 4.475 50.813 12.6 69.502 8.987 20.673 21.698 32.059 35.79 32.059 23.04 0 41.629-30.971 46.89-75.737 23.248 22.364 52.228 38.064 83.626 45.206-5.822 17.218-8.995 38.145-8.995 60.031 0 26.13 4.475 50.812 12.6 69.501 8.986 20.672 21.697 32.058 35.789 32.058s26.803-11.386 35.79-32.059c8.125-18.688 12.6-43.371 12.6-69.501 0-21.884-3.166-42.817-8.987-60.033 31.395-7.142 60.372-22.842 83.618-45.204 5.261 44.766 23.849 75.737 46.89 75.737 19.567 0 35.97-21.589 43.879-57.75.885-4.047-1.679-8.044-5.725-8.93-4.052-.886-8.043 1.679-8.93 5.725-5.917 27.058-17.935 45.955-29.225 45.955-14.303 0-30.747-30.273-33.099-75.638 10.469-12.666 19.063-26.604 25.599-41.441v67.528c0 4.143 3.357 7.5 7.5 7.5s7.5-3.357 7.5-7.5v-107.847c3.211-.463 6.321-1.417 9.22-2.821 10.247 16.063 16.67 43.935 16.67 73.659 0 3.157-.07 6.328-.21 9.423-.187 4.139 3.017 7.644 7.154 7.83.115.006.229.008.344.008 3.986 0 7.306-3.14 7.486-7.162.149-3.319.226-6.717.226-10.099 0-33.725-7.592-64.769-20.078-83.296zm-374.89-34.684c-.476 5.308-.742 10.662-.742 16.01 0 2.742.063 5.524.188 8.271.118 2.584.298 5.167.528 7.733-2.542-.6-4.923-1.786-6.93-3.513-3.651-3.125-5.746-7.678-5.746-12.491 0-7.781 5.433-14.303 12.702-16.01zm6.758 204.54c-7.525 0-15.763-8.612-22.034-23.039-7.323-16.843-11.356-39.402-11.356-63.521 0-29.727 6.425-57.598 16.673-73.659 2.9 1.405 6.008 2.358 9.216 2.821v107.848c0 4.143 3.357 7.5 7.5 7.5s7.5-3.357 7.5-7.5v-67.53c6.536 14.84 15.131 28.777 25.599 41.443-2.351 45.364-18.795 75.637-33.098 75.637zm191.944 108.021c-6.271 14.427-14.509 23.039-22.034 23.039s-15.763-8.612-22.034-23.039c-7.322-16.844-11.355-39.402-11.355-63.521 0-21.219 3.152-41.299 8.919-57.314 5.612.773 11.283 1.287 16.971 1.525v91.768c0 4.143 3.357 7.5 7.5 7.5s7.5-3.357 7.5-7.5v-91.768c5.687-.238 11.359-.752 16.971-1.525 5.767 16.015 8.918 36.095 8.918 57.313 0 24.12-4.034 46.678-11.356 63.522zm167.336-296.551c0 4.813-2.095 9.366-5.766 12.507-1.993 1.717-4.37 2.899-6.91 3.498.23-2.568.41-5.151.528-7.736.124-2.745.188-5.527.188-8.27 0-5.346-.266-10.701-.742-16.01 7.269 1.708 12.702 8.23 12.702 16.011z"/></g></svg>