<svg id="Capa_1" enable-background="new 0 0 512 512" height="512" viewBox="0 0 512 512" width="512" xmlns="http://www.w3.org/2000/svg"><g><g><circle cx="256" cy="256" fill="#f6ca56" r="248.5"/><path d="m124.359 231.475c0-83.085 29.718-159.22 79.087-218.388-111.999 24.118-195.946 123.704-195.946 242.913 0 137.243 111.257 248.5 248.5 248.5 1.632 0 3.258-.031 4.882-.062-82.894-62.228-136.523-161.33-136.523-272.963z" fill="#f1b70b"/></g><g><ellipse cx="255.326" cy="257.064" fill="#fbf198" rx="198.475" ry="198.524" transform="matrix(.707 -.707 .707 .707 -106.988 255.835)"/><path d="m124.359 231.475c0-52.656 11.94-102.521 33.246-147.048-59.325 33.781-99.765 97.243-100.76 169.867-1.264 92.247 60.743 170.49 145.304 194.03-48.599-58.945-77.79-134.487-77.79-216.849z" fill="#f9d171"/></g><g><path d="m363.323 306.049c-1.306 2.982-1.664 6.283-1.089 9.488.55 3.063.713 6.258.434 9.535-1.498 17.589-15.784 31.691-33.391 32.961-21.159 1.526-38.865-15.257-38.865-36.099 0-12.422 6.291-23.398 15.854-29.916 13.662-9.312 24.727-21.947 31.359-37.092l.567-1.296c5.688-13.659 8.644-28.742 8.14-44.577-1.824-57.308-49.15-103.305-106.486-103.577-59.358-.281-107.571 47.75-107.571 107.051 0 20.092 5.537 38.882 15.164 54.949h.026c-19.662 9.034-33.102 29.285-32.086 52.566 1.234 28.276 24.112 51.248 52.383 52.588 31.661 1.501 57.802-23.725 57.802-55.056 0-21.708-12.554-40.478-30.794-49.465-16.431-13.198-26.914-33.511-26.716-56.217.331-37.866 30.652-69.142 68.491-70.589 40.567-1.551 74.066 30.994 74.066 71.223 0 23.076-11.026 43.615-28.084 56.657v.041c-15.144 12.678-24.75 31.753-24.639 53.075.193 36.959 30.115 67.466 67.065 68.333 38.708.909 70.372-30.197 70.372-68.699 0-4.184-.374-8.281-1.09-12.258-2.847-15.807-24.468-18.34-30.912-3.626zm-194.72-10.996c13.906-1.108 25.473 10.459 24.365 24.364-.872 10.943-9.737 19.808-20.68 20.68-13.906 1.108-25.472-10.459-24.364-24.364.872-10.943 9.736-19.808 20.679-20.68z" fill="#f6ca56"/><path d="m128.129 282.278c-8.476 10.142-13.377 23.372-12.749 37.765 1.021 23.403 16.875 43.158 38.335 50.037-12.261-27.537-20.986-56.994-25.586-87.802z" fill="#f1b70b"/></g></g><g><path d="m140.447 315.137c-.703 8.821 2.478 17.463 8.725 23.711 5.677 5.677 13.331 8.821 21.3 8.821.802 0 1.606-.032 2.412-.096 14.553-1.16 26.4-13.008 27.561-27.56.703-8.821-2.478-17.463-8.725-23.711-6.248-6.248-14.899-9.429-23.712-8.726-14.552 1.161-26.401 13.009-27.561 27.561zm14.953 1.192c.58-7.286 6.513-13.218 13.799-13.799 4.447-.351 8.777 1.243 11.913 4.38 3.137 3.136 4.732 7.478 4.379 11.913-.58 7.286-6.513 13.219-13.799 13.799-4.444.357-8.777-1.243-11.914-4.379-3.135-3.137-4.731-7.479-4.378-11.914z"/><path d="m277.973 263.226c-.274.21-.533.438-.773.683-17.165 14.625-26.927 35.881-26.81 58.43.104 19.839 7.879 38.631 21.895 52.915 14.02 14.287 32.662 22.412 52.494 22.877.618.015 1.233.021 1.85.021 20.028 0 38.872-7.663 53.234-21.691 14.809-14.465 22.964-33.83 22.964-54.527 0-4.562-.407-9.134-1.21-13.587-1.894-10.52-9.98-18.125-20.601-19.377-10.618-1.249-20.27 4.27-24.562 14.07-1.894 4.324-2.447 9.104-1.601 13.823.444 2.477.56 5.024.343 7.573-1.183 13.887-12.557 25.115-26.457 26.117-8.067.581-15.756-2.124-21.658-7.615-5.826-5.421-9.168-13.077-9.168-21.003 0-9.484 4.702-18.351 12.578-23.719 15.262-10.402 27.021-24.331 34.006-40.281l.567-1.296c.019-.042.036-.083.054-.125 6.306-15.145 9.237-31.193 8.712-47.698-.943-29.665-13.265-57.478-34.693-78.315-21.423-20.832-49.568-32.382-79.254-32.523-.188-.001-.371-.001-.559-.001-30.498 0-59.177 11.835-80.803 33.359-21.761 21.657-33.744 50.492-33.744 81.193 0 18.127 4.283 35.938 12.446 51.966-19.016 11.866-30.333 33.013-29.336 55.877 1.396 31.991 27.542 58.237 59.521 59.753 17.324.825 33.741-5.297 46.25-17.227 12.515-11.936 19.407-28.031 19.407-45.32 0-23.739-13.081-45.041-34.201-55.802-14.993-12.337-23.479-30.448-23.31-49.815.298-34.114 27.215-61.857 61.277-63.16 17.513-.669 34.082 5.651 46.699 17.796 12.627 12.153 19.581 28.466 19.581 45.932.001 20.003-9.162 38.482-25.138 50.697zm9.667 11.487c19.374-15.078 30.473-37.703 30.473-62.186 0-21.582-8.587-41.732-24.179-56.739-15.583-14.999-36.057-22.803-57.675-21.978-20.234.774-39.201 9.266-53.407 23.91-14.201 14.64-22.119 33.855-22.297 54.108-.211 24.246 10.548 46.892 29.52 62.13.427.343.89.638 1.382.88 16.413 8.087 26.609 24.463 26.609 42.737 0 13.148-5.242 25.388-14.76 34.465-9.512 9.071-22 13.718-35.187 13.099-24.311-1.152-44.185-21.104-45.246-45.423-.85-19.466 10.033-37.296 27.724-45.424 3.179-1.46 4.913-4.923 4.198-8.347-.2-.962-.582-1.849-1.104-2.629-9.104-15.32-13.915-32.874-13.915-50.789 0-26.681 10.415-51.74 29.325-70.562 18.91-18.821 43.999-29.149 70.71-28.989 52.921.25 97.344 43.458 99.025 96.315.456 14.33-2.081 28.256-7.542 41.394l-.539 1.231c-5.854 13.366-15.782 25.09-28.713 33.903-11.979 8.164-19.131 21.665-19.131 36.113 0 12.078 5.085 23.736 13.95 31.985 8.986 8.361 20.694 12.476 32.954 11.594 21.187-1.527 38.521-18.64 40.324-39.804.329-3.858.152-7.726-.524-11.497-.319-1.781-.12-3.562.576-5.153.001 0 .001-.001.001-.001 2.418-5.524 7.553-5.369 9.067-5.191 1.512.178 6.527 1.22 7.594 7.14.645 3.579.972 7.255.972 10.928 0 16.625-6.551 32.178-18.445 43.797-11.891 11.615-27.588 17.797-44.251 17.404-32.771-.77-59.569-28.078-59.74-60.874-.096-18.291 7.906-35.525 21.953-47.285.102-.084.201-.171.298-.262z"/><path d="m437.02 74.98c-48.352-48.351-112.64-74.98-181.02-74.98-60.357 0-118.962 21.407-165.018 60.276-3.166 2.671-3.566 7.403-.895 10.569s7.404 3.565 10.568.894c43.356-36.589 98.524-56.739 155.345-56.739 132.888 0 241 108.112 241 241s-108.112 241-241 241-241-108.112-241-241c0-59.361 21.771-116.396 61.305-160.599 2.762-3.088 2.497-7.829-.59-10.59-3.089-2.762-7.83-2.496-10.591.59-41.996 46.957-65.124 107.544-65.124 170.599 0 68.38 26.629 132.667 74.98 181.02 48.352 48.351 112.64 74.98 181.02 74.98s132.668-26.629 181.02-74.98c48.351-48.353 74.98-112.64 74.98-181.02s-26.629-132.667-74.98-181.02z"/><path d="m406.136 386.214c3.243 2.577 7.961 2.037 10.538-1.207 29.212-36.764 44.652-81.006 44.652-127.944 0-113.589-92.411-206-206-206s-206 92.411-206 206 92.411 206 206 206c50.064 0 98.361-18.25 135.992-51.387 3.109-2.737 3.41-7.477.673-10.585s-7.478-3.41-10.585-.672c-34.892 30.724-79.667 47.645-126.08 47.645-105.317 0-191-85.682-191-191s85.683-191 191-191 191 85.682 191 191c0 43.514-14.314 84.529-41.396 118.613-2.577 3.242-2.037 7.961 1.206 10.537z"/></g></svg>