<svg id="Capa_1" enable-background="new 0 0 512 512" height="512" viewBox="0 0 512 512" width="512" xmlns="http://www.w3.org/2000/svg"><g><g><circle cx="256" cy="256" fill="#f9475e" r="248.5"/><path d="m112.719 228.574c0-79.663 27.313-152.945 73.08-211.001-103.055 30.295-178.299 125.566-178.299 238.427 0 136.317 109.767 246.979 245.732 248.465-85.154-62.02-140.513-162.483-140.513-275.891z" fill="#e92740"/></g><g><circle cx="255.326" cy="257.064" fill="#ff8a98" r="198.5"/><path d="m112.719 228.574c0-47.019 9.516-91.816 26.723-132.571-50.003 36.079-82.616 94.83-82.616 161.061 0 86.456 55.565 160.167 132.854 187.33-48.096-58.795-76.961-133.934-76.961-215.82z" fill="#fd5c6f"/></g><path d="m366.215 342.801c-.615-.343-1.211-.717-1.828-1.054-45.486-24.908-32.016-122.673-30.16-153.521-.118-25.383-9.98-41.248-18.265-50.099-11.214-11.98-26.982-18.851-43.261-18.851-14.313 0-28.228 5.316-39.004 14.743-10.78-9.446-24.71-14.774-39.038-14.774-16.278 0-32.046 6.871-43.261 18.851-8.335 8.904-18.27 24.904-18.27 50.557v100.011c0 12.619 10.327 23.25 22.943 23.011 12.23-.232 22.073-10.218 22.073-22.504v-100.52c0-18.004 8.896-24.392 16.515-24.392 3.928 0 7.62 1.633 10.396 4.598 3.984 4.256 6.097 11.058 6.117 19.671 0 .052-.002.102-.002.154v99.984c0 12.344 9.712 22.795 22.054 23.038 11.86.233 21.681-8.708 22.846-20.208.079-.765.12-1.541.12-2.328v-100.517c0-.04-.001-.078-.001-.117.05-17.888 8.916-24.243 16.513-24.243 3.928 0 7.62 1.633 10.396 4.598 4.003 4.277 6.119 11.121 6.119 19.793v98.456c0 38.419 19.966 74.379 53.151 93.738.735.429 1.476.85 2.222 1.263 12.523 6.938 28.246.122 32.023-13.687.04-.144.079-.289.118-.433 2.688-9.823-1.618-20.264-10.516-25.218z" fill="#f9475e"/></g><g><path d="m338.587 387.354c.783.457 1.571.905 2.368 1.347 4.426 2.452 9.297 3.689 14.198 3.689 3.885 0 7.789-.777 11.502-2.343 8.495-3.581 14.762-10.73 17.192-19.614l.119-.434c3.62-13.233-2.179-27.112-14.102-33.751-.236-.131-.468-.269-.701-.406-.387-.229-.775-.456-1.173-.673-36.468-19.97-30.187-97.418-27.168-134.638.372-4.59.694-8.554.892-11.855.01-.162.014-.323.014-.485-.13-27.837-11.105-45.377-20.289-55.189-12.627-13.489-30.391-21.226-48.736-21.226-14.006 0-27.636 4.459-39 12.666-11.372-8.226-25.018-12.697-39.042-12.697-18.345 0-36.108 7.736-48.736 21.226-9.258 9.891-20.294 27.581-20.294 55.682v100.012c0 8.176 3.366 16.168 9.236 21.928 5.794 5.685 13.383 8.746 21.35 8.582 16.228-.308 29.431-13.767 29.431-30.002v-100.522c0-10.261 3.539-16.892 9.015-16.892 1.857 0 3.559.769 4.92 2.224 2.624 2.803 4.078 7.975 4.093 14.479-.001.048-.002.172-.002.22v99.984c0 16.519 13.192 30.217 29.407 30.537 15.52.329 28.894-11.533 30.455-26.94.105-1.026.159-2.067.159-3.094v-100.518l-.001-.132c.037-10.164 3.572-16.729 9.013-16.729 1.857 0 3.558.769 4.92 2.224 2.64 2.82 4.094 8.03 4.094 14.668v98.456c-.005 41.352 21.787 79.752 56.866 100.216zm-65.885-230.563c-11.908 0-23.952 9.809-24.013 31.743l.001 100.636c0 .517-.027 1.042-.082 1.571-.78 7.703-7.494 13.631-15.236 13.465-8.107-.16-14.702-7.131-14.702-15.54v-99.917c.001-.053.002-.184.002-.238-.024-10.547-2.84-19.116-8.142-24.779-4.208-4.497-9.845-6.973-15.872-6.973-11.954 0-24.015 9.861-24.015 31.892v100.519c0 8.12-6.601 14.852-14.715 15.005-3.933.07-7.664-1.45-10.56-4.291-3.013-2.957-4.741-7.047-4.741-11.221v-100.012c0-23.205 8.834-37.514 16.245-45.431 9.803-10.471 23.575-16.477 37.786-16.477 12.482 0 24.591 4.586 34.096 12.915 2.828 2.477 7.052 2.479 9.881.004 9.5-8.311 21.598-12.888 34.066-12.888 14.211 0 27.983 6.006 37.785 16.477 7.324 7.825 16.072 21.936 16.239 44.769-.19 3.101-.499 6.908-.855 11.297-3.273 40.367-10.086 124.365 34.911 149.005.258.142.512.292.766.442.338.199.676.397 1.019.588 5.874 3.271 8.724 10.133 6.931 16.687l-.119.434c-1.208 4.415-4.324 7.969-8.55 9.75-4.13 1.739-8.724 1.505-12.602-.643-.697-.387-1.391-.781-2.08-1.184-30.49-17.786-49.431-51.222-49.431-87.259v-98.456c0-10.611-2.816-19.228-8.144-24.918-4.207-4.495-9.843-6.972-15.869-6.972z"/><path d="m437.02 74.98c-48.353-48.351-112.64-74.98-181.02-74.98-60.357 0-118.961 21.407-165.019 60.276-3.165 2.671-3.566 7.403-.894 10.569 2.671 3.165 7.403 3.565 10.569.894 43.355-36.589 98.523-56.739 155.344-56.739 132.888 0 241 108.112 241 241s-108.112 241-241 241-241-108.112-241-241c0-59.361 21.772-116.396 61.305-160.599 2.761-3.087 2.497-7.829-.59-10.59s-7.829-2.498-10.59.59c-41.997 46.957-65.125 107.543-65.125 170.599 0 68.38 26.629 132.667 74.98 181.02 48.353 48.351 112.64 74.98 181.02 74.98s132.667-26.629 181.02-74.98c48.351-48.353 74.98-112.64 74.98-181.02s-26.629-132.667-74.98-181.02z"/><path d="m406.135 386.214c3.242 2.576 7.961 2.037 10.538-1.206 29.212-36.764 44.653-81.007 44.653-127.944 0-113.589-92.411-206-206-206s-206 92.411-206 206 92.411 206 206 206c50.065 0 98.362-18.25 135.992-51.387 3.109-2.738 3.41-7.477.672-10.585-2.738-3.109-7.477-3.409-10.585-.672-34.89 30.724-79.666 47.645-126.079 47.645-105.318 0-191-85.682-191-191s85.682-191 191-191 191 85.682 191 191c0 43.514-14.315 84.529-41.397 118.612-2.576 3.242-2.036 7.96 1.206 10.537z"/></g></svg>