<svg id="Capa_1" enable-background="new 0 0 512 512" height="512" viewBox="0 0 512 512" width="512" xmlns="http://www.w3.org/2000/svg"><g><g><circle cx="256" cy="256" fill="#736acc" r="248.5"/><path d="m132.826 236.663c0-86.883 32.501-166.164 85.986-226.391-119.601 17.948-211.312 121.125-211.312 245.728 0 137.243 111.257 248.5 248.5 248.5 2.203 0 4.398-.031 6.587-.088-79.035-62.471-129.761-159.183-129.761-267.749z" fill="#5149bf"/></g><g><circle cx="255.326" cy="257.064" fill="#a29cde" r="198.5"/><path d="m132.826 236.663c0-57.843 14.417-112.311 39.823-160.04-68.29 31.414-115.823 100.477-115.823 180.441 0 92.998 64.29 171.251 150.757 192.682-46.768-58.383-74.757-132.459-74.757-213.083z" fill="#827cd2"/></g><g><path d="m377.826 262.303v-99.978c0-15.332-12.429-27.761-27.761-27.761h-99.978c-16.518 0-29.909 13.391-29.909 29.909 0 16.518 13.391 29.909 29.909 29.909h20.949l-46.866 46.866-14.215-14.215c-12.971-12.971-34.001-12.971-46.972 0-12.971 12.971-12.971 34.001 0 46.972l14.215 14.215-34.644 34.644c-12.971 12.971-12.971 34.001 0 46.972s34.001 12.971 46.972 0l34.644-34.644 14.215 14.215c12.971 12.971 34.001 12.971 46.972 0 12.971-12.971 12.971-34.001 0-46.972l-14.215-14.215 46.866-46.866v20.949c0 16.518 13.391 29.909 29.909 29.909 16.518 0 29.909-13.391 29.909-29.909z" fill="#736acc"/><path d="m143.554 321.865-1 1c-12.971 12.971-12.971 34.001 0 46.972 5.994 5.994 13.708 9.211 21.553 9.666-8.492-18.392-15.415-37.656-20.553-57.638z" fill="#5149bf"/></g></g><g><path d="m321.465 288.755c7.065 7.066 16.46 10.957 26.452 10.957h.001c9.992 0 19.386-3.891 26.451-10.957s10.957-16.46 10.957-26.453v-99.978c0-19.443-15.818-35.261-35.262-35.261h-99.978c-20.628 0-37.409 16.782-37.409 37.409s16.781 37.409 37.409 37.409h2.843l-28.76 28.759-8.911-8.912c-15.875-15.875-41.704-15.873-57.579 0-15.874 15.875-15.874 41.704 0 57.578l8.912 8.912-29.34 29.341c-7.69 7.69-11.926 17.914-11.926 28.789s4.235 21.1 11.925 28.789c7.938 7.938 18.362 11.907 28.789 11.906 10.425 0 20.853-3.969 28.79-11.905l29.34-29.341 8.912 8.912c15.875 15.874 41.704 15.874 57.579 0 15.874-15.875 15.874-41.704 0-57.579l-8.912-8.912 28.759-28.759v2.842c.001 9.994 3.892 19.388 10.958 26.454zm-55.626-5.838c-2.929 2.929-2.929 7.678 0 10.606l14.215 14.215c10.026 10.026 10.026 26.34.001 36.365-10.028 10.026-26.34 10.026-36.366 0l-14.216-14.215c-2.928-2.93-7.677-2.929-10.606 0l-34.643 34.644c-10.026 10.026-26.338 10.027-36.366 0-4.856-4.856-7.531-11.313-7.531-18.182 0-6.868 2.675-13.326 7.532-18.183l34.644-34.644c2.929-2.929 2.929-7.678 0-10.606l-14.215-14.215c-10.026-10.026-10.026-26.339 0-36.365 5.013-5.014 11.597-7.52 18.183-7.52 6.584 0 13.17 2.507 18.182 7.52l14.215 14.215c1.407 1.407 3.314 2.197 5.304 2.197s3.896-.79 5.304-2.197l46.866-46.866c2.145-2.145 2.786-5.371 1.625-8.173-1.16-2.803-3.896-4.63-6.929-4.63h-20.949c-12.356 0-22.409-10.053-22.409-22.409s10.053-22.409 22.409-22.409h99.978c11.172 0 20.262 9.089 20.262 20.261v99.978c0 12.357-10.053 22.41-22.409 22.41s-22.409-10.053-22.409-22.409v-20.949c0-3.034-1.827-5.768-4.63-6.929-2.803-1.162-6.028-.518-8.174 1.626z"/><path d="m437.02 74.98c-48.352-48.351-112.64-74.98-181.02-74.98-60.357 0-118.962 21.407-165.018 60.276-3.166 2.671-3.566 7.403-.895 10.569s7.403 3.566 10.568.894c43.356-36.589 98.524-56.739 155.345-56.739 132.888 0 241 108.112 241 241s-108.112 241-241 241-241-108.112-241-241c0-59.361 21.771-116.396 61.305-160.599 2.762-3.088 2.497-7.829-.59-10.59-3.09-2.762-7.83-2.496-10.591.59-41.996 46.957-65.124 107.544-65.124 170.599 0 68.38 26.629 132.667 74.98 181.02 48.352 48.351 112.64 74.98 181.02 74.98s132.668-26.629 181.02-74.98c48.351-48.353 74.98-112.64 74.98-181.02s-26.629-132.667-74.98-181.02z"/><path d="m406.136 386.214c3.244 2.577 7.961 2.037 10.538-1.207 29.212-36.764 44.652-81.006 44.652-127.944 0-113.589-92.411-206-206-206s-206 92.411-206 206 92.411 206 206 206c50.064 0 98.361-18.25 135.992-51.387 3.109-2.737 3.41-7.477.673-10.585s-7.477-3.41-10.585-.672c-34.892 30.724-79.667 47.645-126.08 47.645-105.317 0-191-85.682-191-191s85.683-191 191-191 191 85.682 191 191c0 43.514-14.314 84.529-41.396 118.613-2.577 3.242-2.037 7.961 1.206 10.537z"/></g></svg>