<svg xmlns="http://www.w3.org/2000/svg" viewBox="0 0 512 512"><g id="Alchemy"><path d="M431,446.3136h-6.6394a21.9257,21.9257,0,0,1-21.3623-17.3377L377.1755,306.3136H387.25a13.125,13.125,0,0,0,0-26.25H361.0043c-.0428,0-.0855-.0011-.1282,0H124.75a13.125,13.125,0,0,0,0,26.25h10.0745L108.9932,428.98a21.9263,21.9263,0,0,1-21.3623,17.3334H81a13.125,13.125,0,1,0,0,26.25h6.6309a48.2907,48.2907,0,0,0,47.0483-38.1787L161.647,306.3136H350.353l26.9593,128.067a48.29,48.29,0,0,0,47.0483,38.183H431a13.125,13.125,0,0,0,0-26.25Z"/><path d="M210.0582,78.8136h91.875l4.0119-24.0753a13.1442,13.1442,0,0,0-12.9627-15.3019H219.009a13.14,13.14,0,0,0-12.9626,15.3029Z"/><path d="M242.8665,423.7731v35.6655a13.125,13.125,0,1,0,26.25,0V423.7731c-4.3195.43-8.6945.6655-13.125.6655S247.1859,424.2036,242.8665,423.7731Z"/><path d="M295.3707,195.8907V131.3136h13.1208a13.125,13.125,0,0,0,0-26.25h-105a13.125,13.125,0,1,0,0,26.25h13.1292V195.89a105.39,105.39,0,0,0-57.9644,57.9239H353.3352A105.3918,105.3918,0,0,0,295.3707,195.8907Z"/><path d="M182.9409,332.5636l-6.1865,29.3753a104.7372,104.7372,0,0,0,158.4827-.0022l-6.1866-29.3731Z"/></g></svg>