<svg id="Alien" xmlns="http://www.w3.org/2000/svg" viewBox="0 0 512 512"><path d="M256.0021,46a180.8081,180.8081,0,0,0-180.81,180.8073q0,4.8049.2563,9.549c5.2423,111.98,101.4283,188.6088,151.2195,220.9375a53.77,53.77,0,0,0,58.6652,0c49.7955-32.3265,145.9814-108.951,151.2195-220.9375q.25-4.7441.2563-9.549A180.8072,180.8072,0,0,0,256.0021,46ZM153.4161,313.6573c-24.8786-17.421-34.1754-47.0751-20.76-66.2339,13.4112-19.1577,44.4592-20.5655,69.3378-3.1434,24.8828,17.422,34.1754,47.075,20.7641,66.2338C209.3426,329.6715,178.2989,331.0793,153.4161,313.6573Zm133.2068,87.7114h-61.25a13.125,13.125,0,1,1,0-26.25h61.25a13.125,13.125,0,1,1,0,26.25Zm71.961-87.7114c-24.8785,17.422-55.9222,16.0142-69.3377-3.1435s-4.1187-48.8118,20.76-66.2338,55.9266-16.0143,69.3378,3.1434C392.7636,266.5822,383.4667,296.2363,358.5839,313.6573Z"/></svg>