<svg xmlns="http://www.w3.org/2000/svg" viewBox="0 0 512 512"><g id="Bermuda_triangle"><path d="M441.19,33.73a37.11,37.11,0,0,0-36.8243,33.5826l-25.246,6.74a34.7371,34.7371,0,0,1,.6921,12.7373l-2.1191,14.8158,33.4747-8.9369a37.4719,37.4719,0,0,0,8.797,8.7073L338.51,404.2683a36.8543,36.8543,0,0,0-11.6254,3.0217L253.36,334.0237V304.988a8.7733,8.7733,0,0,0-8.7756-8.7735H222.5167V272.6476a8.7381,8.7381,0,0,0-8.7372-8.7371h-8.7756a8.7381,8.7381,0,0,0-8.7372,8.7371v23.5669H178.5446V272.6476a8.7381,8.7381,0,0,0-8.7372-8.7371h-8.7757a8.738,8.738,0,0,0-8.7371,8.7371v23.5669H128.95a8.7759,8.7759,0,0,0-8.6688,7.4106l-8.2544,52.4893H87.6608a8.7488,8.7488,0,0,0-8.028,12.2236L99.175,413.4722a13.1449,13.1449,0,0,0,12.0655,7.9244H263.4127a8.7949,8.7949,0,0,0,8.7927-8.7938V389.8583l36.1451,36.0169a36.8124,36.8124,0,0,0-3.3326,15.2078,37.1877,37.1877,0,1,0,58.866-30.0845L445.45,107.673A37.0889,37.0889,0,0,0,441.19,33.73Z"/><path d="M133.2864,251.4349a34.876,34.876,0,0,1,23.7549-13.3878l-52.5684-52.3825a36.79,36.79,0,0,0,3.1616-11.9586L177.57,155.0353a26.797,26.797,0,0,0,16.2867,5.5681h34.5172l32.915,54.86a13.1538,13.1538,0,0,0,11.2836,6.3905h8.3313a8.7215,8.7215,0,0,0,8.72-8.7211V160.6034h17.9828l24.05,30.0728a13.1174,13.1174,0,0,0,10.2454,4.9272h1.8842a8.7366,8.7366,0,0,0,8.6773-9.7423l-5.9643-51.5077,7.3272-51.277a8.7377,8.7377,0,0,0-8.6517-9.973h-3.2727a13.1174,13.1174,0,0,0-10.2454,4.9272l-24.05,30.0728H289.6243V55.5746a8.7216,8.7216,0,0,0-8.72-8.7212h-8.3313a13.1536,13.1536,0,0,0-11.2836,6.3906l-32.915,54.8594H193.8571a26.5094,26.5094,0,0,0-26.344,22.4465L100.837,148.3532A37.1834,37.1834,0,1,0,85.7723,204.09Z"/></g></svg>