<svg xmlns="http://www.w3.org/2000/svg" viewBox="0 0 512 512"><g id="Deja_vu"><path d="M282.25,59.125c-98.54,0-180.4,72.7686-194.67,167.3907L55.28,194.22a13.1236,13.1236,0,0,0-18.56,18.56l52.5,52.5A13.1239,13.1239,0,0,0,111.625,256c0-94.0839,76.5454-170.625,170.625-170.625S452.875,161.9161,452.875,256,376.33,426.625,282.25,426.625a13.125,13.125,0,0,0,0,26.25c108.5547,0,196.875-88.316,196.875-196.875S390.8047,59.125,282.25,59.125Z"/><path d="M418.5714,262.5347a12.935,12.935,0,0,0,0-13.0694c-28.7366-48.6388-78.9892-80.9642-136.3214-80.9642-57.3364,0-107.5848,32.3254-136.3214,80.9642a12.935,12.935,0,0,0,0,13.0694c28.7366,48.6409,78.985,80.9664,136.3214,80.9664C339.5822,343.5011,389.8348,311.1756,418.5714,262.5347Zm-205.0226,7.1564a70.0517,70.0517,0,1,1,54.9823,55.0058A70.1155,70.1155,0,0,1,213.5488,269.6911Z"/><circle cx="282.25" cy="256.0011" r="35"/></g></svg>