<svg xmlns="http://www.w3.org/2000/svg" viewBox="0 0 512 512"><g id="Friday_13th"><path d="M116,126.9386a13.1257,13.1257,0,0,0,13.125-13.125v-61.25a13.125,13.125,0,0,0-26.25,0v61.25A13.1257,13.1257,0,0,0,116,126.9386Z"/><path d="M396,126.9386a13.1257,13.1257,0,0,0,13.125-13.125v-61.25a13.125,13.125,0,0,0-26.25,0v61.25A13.1257,13.1257,0,0,0,396,126.9386Z"/><path d="M452.9434,87.5614H435.375v26.2522a39.375,39.375,0,1,1-78.75,0V87.5614H155.375v26.2522a39.375,39.375,0,0,1-78.75,0V87.5614H59.0524A13.0541,13.0541,0,0,0,46,100.6159v358.891a13.0541,13.0541,0,0,0,13.0524,13.0545h393.891A13.0549,13.0549,0,0,0,466,459.5069V100.6159A13.055,13.055,0,0,0,452.9434,87.5614ZM296.8191,240.86a13.125,13.125,0,0,1,0-26.25,18.8907,18.8907,0,1,0-18.8928-18.8886,13.125,13.125,0,1,1-26.25,0,45.1386,45.1386,0,1,1,76.93,32.0136,45.13,45.13,0,1,1-76.93,32.0135,13.125,13.125,0,1,1,26.25,0A18.8886,18.8886,0,1,0,296.8191,240.86ZM191.9216,378.9283a13.125,13.125,0,0,1,0,26.25H150.4788v16.6284a13.125,13.125,0,0,1-26.25,0V347.9786a13.1256,13.1256,0,0,1,13.125-13.125h54.6875a13.125,13.125,0,1,1,0,26.25H150.4788v17.8247Zm-8.7585-74.0417a13.125,13.125,0,0,1,0-26.25h3.0163V192.6234a13.1242,13.1242,0,0,1-12.2961-22.0545l16.1414-16.1456a13.1238,13.1238,0,0,1,22.4047,9.28V278.6366h3.0249a13.125,13.125,0,0,1,0,26.25Zm115.16,107.64a13.1236,13.1236,0,1,1-18.56,18.56l-25.9082-25.9082h-6.3061v16.6284a13.125,13.125,0,0,1-26.25,0V347.9786a13.1256,13.1256,0,0,1,13.125-13.125h32.5818a35.0771,35.0771,0,0,1,18.5467,64.903Zm76.3232-3.8452a13.125,13.125,0,0,1,0,26.25h-43.22a13.125,13.125,0,0,1,0-26.25h8.4851V361.1036H331.426a13.125,13.125,0,0,1,0-26.25h43.22a13.125,13.125,0,0,1,0,26.25h-8.4851v47.5781Z"/><path d="M267.0059,361.1036H247.5491v17.8247h19.4568a8.9274,8.9274,0,0,0,8.9123-8.891,8.9053,8.9053,0,0,0-8.9123-8.9337Z"/></g></svg>