<svg xmlns="http://www.w3.org/2000/svg" viewBox="0 0 512 512"><g id="Horoscope_ball"><path d="M256.0427,52.5807a157.436,157.436,0,0,0-124.602,253.75h249.2a157.432,157.432,0,0,0-124.5978-253.75Zm105,170.625a13.1627,13.1627,0,0,1-13.125-13.125,91.7087,91.7087,0,0,0-26.9507-65.0119,13.041,13.041,0,0,1,0-18.5511,13.2,13.2,0,0,1,18.5468,0,117.7136,117.7136,0,0,1,34.6539,83.563A13.2212,13.2212,0,0,1,361.0427,223.2057Z"/><path d="M387.2543,332.5454h-262.5a26.25,26.25,0,0,0,0,52.5h262.5a26.25,26.25,0,1,0,0-52.5Z"/><path d="M399.0164,449.3054a69.7975,69.7975,0,0,1-19.5124-37.9747H132.4917a69.7974,69.7974,0,0,1-19.5123,37.9747L104.678,457.64a8.7588,8.7588,0,0,0,6.2036,14.9408H401.144a8.7585,8.7585,0,0,0,6.1951-14.9526Z"/><path d="M81,293.1693H76.625v-13.125a13.125,13.125,0,0,0-26.25,0v13.125H46a13.125,13.125,0,0,0,0,26.25h4.375v13.125a13.125,13.125,0,0,0,26.25,0v-13.125H81a13.125,13.125,0,0,0,0-26.25Z"/><path d="M466,74.4193h-8.75V52.5443a13.125,13.125,0,0,0-26.25,0v21.875h-8.75a13.125,13.125,0,0,0,0,26.25H431v21.875a13.125,13.125,0,0,0,26.25,0v-21.875H466a13.125,13.125,0,0,0,0-26.25Z"/></g></svg>