<svg xmlns="http://www.w3.org/2000/svg" viewBox="0 0 512 512"><g id="Horseshoe"><path d="M408.6807,138.74C369.3527,88.4339,313.7,59.5831,256.0085,59.5831c-58.5412,0-112.763,28.11-152.6806,79.1527C66.3625,186.017,46,248.1535,46,313.7048c0,45.8232,9.9805,89.9535,28.6,128.5252a18.0824,18.0824,0,0,0,23.7762,8.5524l61.4893-28.053a17.8815,17.8815,0,0,0,8.7884-24.06c-12.27-24.948-19.0423-54.5892-19.0423-84.9643,0-41.9139,12.8857-82.4254,35.3417-111.1449,19.8456-25.3827,45.0788-39.3643,71.0553-39.3643,25.9681,0,51.1969,13.9774,71.0425,39.3643,22.4561,28.72,35.3418,69.231,35.3418,111.1449,0,30.3751-6.7676,60.0163-19.0423,84.9643a17.885,17.885,0,0,0,8.7884,24.06l61.4893,28.053a18.0824,18.0824,0,0,0,23.7762-8.5524C456.0281,403.6583,466,359.528,466,313.7048,466,248.1535,445.646,186.017,408.6807,138.74ZM103.486,237.938a21.875,21.875,0,1,1-21.875,21.875A21.8768,21.8768,0,0,1,103.486,237.938Zm1.4953,158.1548a21.875,21.875,0,1,1,21.875-21.875A21.8741,21.8741,0,0,1,104.9813,396.0928Zm49.71-215.9227a21.875,21.875,0,1,1,21.875-21.875A21.8761,21.8761,0,0,1,154.6914,180.17ZM256,133.2371a21.875,21.875,0,1,1,21.875-21.875A21.8775,21.8775,0,0,1,256,133.2371ZM357.3129,180.17a21.875,21.875,0,1,1,21.875-21.875A21.8733,21.8733,0,0,1,357.3129,180.17Zm49.71,215.9227a21.875,21.875,0,1,1,21.875-21.875A21.8768,21.8768,0,0,1,407.0229,396.0928Zm1.4954-114.4048a21.875,21.875,0,1,1,21.875-21.875A21.8775,21.8775,0,0,1,408.5183,281.688Z"/></g></svg>