<svg xmlns="http://www.w3.org/2000/svg" viewBox="0 0 512 512"><g id="Magic_circle"><polygon points="293.892 137.874 256.004 72.249 218.112 137.874 293.892 137.874"/><polygon points="96.864 164.124 134.756 229.753 172.649 164.124 96.864 164.124"/><polygon points="172.649 347.874 134.756 282.244 96.864 347.874 172.649 347.874"/><path d="M445.1376,164.6516l-52.7393,91.3473,52.7393,91.3463a210.4139,210.4139,0,0,0,0-182.6936Z"/><polygon points="309.047 347.874 362.094 255.999 309.047 164.124 202.957 164.124 149.911 255.999 202.957 347.874 309.047 347.874"/><polygon points="339.356 164.124 377.244 229.752 415.136 164.124 339.356 164.124"/><polygon points="218.112 374.124 256.004 439.749 293.892 374.124 218.112 374.124"/><path d="M66.8624,164.6516a210.4139,210.4139,0,0,0,0,182.6936l52.7393-91.3463Z"/><path d="M82.3715,374.1239a209.7946,209.7946,0,0,0,158.1152,91.2448l-52.6794-91.2448Z"/><polygon points="377.244 282.245 339.356 347.874 415.136 347.874 377.244 282.245"/><path d="M271.5219,465.3677a209.7932,209.7932,0,0,0,158.1066-91.2438H324.2013Z"/><path d="M240.4867,46.6313A209.7926,209.7926,0,0,0,82.3715,137.8739H187.8073Z"/><path d="M429.6285,137.8739A209.7992,209.7992,0,0,0,271.5219,46.6313l52.6794,91.2426Z"/></g></svg>