<svg xmlns="http://www.w3.org/2000/svg" viewBox="0 0 512 512"><g id="Spellbook"><path d="M137.8729,47.7373a52.4718,52.4718,0,0,0-39.375,50.78v230.119a78.45,78.45,0,0,1,39.375-19.0028Z"/><path d="M151.0021,413.4834h249.375a13.125,13.125,0,0,0,0-26.25H151.0021a13.125,13.125,0,1,1,0-26.25h249.375a13.125,13.125,0,0,0,0-26.25H151.0021a52.5013,52.5013,0,0,0-52.5,52.5v26.25a52.5012,52.5012,0,0,0,52.5,52.5h249.375a13.125,13.125,0,0,0,0-26.25H151.0021a13.125,13.125,0,1,1,0-26.25Z"/><path d="M413.4936,295.3478V59.133a13.1152,13.1152,0,0,0-13.1165-13.1164H164.1229V308.4824H400.36A13.1337,13.1337,0,0,0,413.4936,295.3478Zm-57.3151-92.34A13.139,13.139,0,0,1,344.801,222.717H315.06l-14.8725,25.7565a13.1405,13.1405,0,0,1-22.7594,0L262.56,222.717H232.8155a13.139,13.139,0,0,1-11.3776-19.7089L236.31,177.2505l-14.8725-25.7576a13.1387,13.1387,0,0,1,11.3776-19.7088H262.56l14.8681-25.7576a13.1405,13.1405,0,0,1,22.7594,0L315.06,131.7841H344.801a13.1387,13.1387,0,0,1,11.3775,19.7088L341.31,177.2505Z"/></g></svg>