<svg xmlns="http://www.w3.org/2000/svg" viewBox="0 0 512 512"><g id="Talisman"><path d="M255.8419,252.9366a109.375,109.375,0,1,0,109.375,109.375A109.3764,109.3764,0,0,0,255.8419,252.9366Zm50.3552,118.6783-41.05,41.052a13.1556,13.1556,0,0,1-18.6065,0l-41.0541-41.052a13.1627,13.1627,0,0,1,0-18.6076l41.0541-41.0509a13.1556,13.1556,0,0,1,18.6065,0l41.05,41.0509A13.1549,13.1549,0,0,1,306.1971,371.6149Z"/><path d="M221.863,84.0388a21.8627,21.8627,0,1,0-21.8621-21.8622A21.8624,21.8624,0,0,0,221.863,84.0388Z"/><path d="M165.2615,122.0883a21.8628,21.8628,0,1,0-21.8622-21.8633A21.8628,21.8628,0,0,0,165.2615,122.0883Z"/><path d="M161.2454,163.3613a21.8622,21.8622,0,1,0-21.8622,21.8643A21.8624,21.8624,0,0,0,161.2454,163.3613Z"/><path d="M175.08,230.1612a21.8643,21.8643,0,1,0-21.8665,21.8633A21.8661,21.8661,0,0,0,175.08,230.1612Z"/><path d="M290.137,84.0388a21.8627,21.8627,0,1,0-21.8622-21.8622A21.8624,21.8624,0,0,0,290.137,84.0388Z"/><path d="M346.7385,122.0883a21.8628,21.8628,0,1,0-21.8622-21.8633A21.8627,21.8627,0,0,0,346.7385,122.0883Z"/><path d="M372.6168,141.4991a21.8633,21.8633,0,1,0,21.8622,21.8622A21.8624,21.8624,0,0,0,372.6168,141.4991Z"/><path d="M358.7869,208.299a21.8628,21.8628,0,1,0,21.8621,21.8622A21.8661,21.8661,0,0,0,358.7869,208.299Z"/></g></svg>