<svg xmlns="http://www.w3.org/2000/svg" viewBox="0 0 512 512"><g id="UFO"><path d="M352.25,207.875a96.25,96.25,0,0,0-192.5,0V221h192.5Z"/><path d="M140.7632,381.0378C174.537,393.3746,213.912,400.375,256,400.375c74.986,0,141.4868-22.4005,182.8741-56.875H73.1259C91.2368,358.6373,114.2483,371.412,140.7632,381.0378Z"/><path d="M376.6628,247.25H135.2474a231.8642,231.8642,0,0,0-68.3337,70H445.0863A233.2007,233.2007,0,0,0,376.6628,247.25ZM168.4615,304.1165a21.875,21.875,0,1,1,21.875-21.875A21.8748,21.8748,0,0,1,168.4615,304.1165Zm87.5,0a21.875,21.875,0,1,1,21.875-21.875A21.8748,21.8748,0,0,1,255.9615,304.1165Zm87.5,0a21.875,21.875,0,1,1,21.875-21.875A21.8748,21.8748,0,0,1,343.4615,304.1165Z"/></g></svg>