<svg id="Layer_1" enable-background="new 0 0 512 512" height="512" viewBox="0 0 512 512" width="512" xmlns="http://www.w3.org/2000/svg"><g><path d="m408 372.75h-35.354l-13.698-13.698c23.725-36.246-18.625-78.555-54.839-54.839l-24.35-24.35c10.549-15.038 8.497-37.241-4.8-50.054-13.587-13.587-34.689-15.18-50.047-4.792l-24.357-24.357c10.388-15.358 8.796-36.459-4.792-50.047-12.812-13.297-35.018-15.349-50.054-4.8l-23.131-23.131-30.479 30.479 11.314 101.823-25.382 25.382 11.545 11.545c-18.725 21.792-25.311 53.376-17.065 80.837h-72.511v15h408zm-64.45-53.138c7.702 7.703 9.184 19.297 4.465 28.508l-32.973-32.973c9.211-4.72 20.804-3.238 28.508 4.465zm-79.196-79.196c7.482 7.25 9.326 19.363 4.476 28.518l-32.983-32.983c9.211-4.719 20.805-3.237 28.507 4.465zm-96.521-86.372c18.209-.279 30.174 19.985 21.789 35.684l-32.983-32.983c3.422-1.762 7.235-2.701 11.194-2.701zm183.6 218.706h-24.042l-216.833-216.833 12.021-12.021zm-233.004-118.453-8.662-77.959 196.411 196.412h-69.297zm-18.202 48.266 62.47 62.47 10.606-10.606-74.059-74.059 12.021-12.021 104.403 104.403h-127.398c-8.672-24.053-4.111-50.484 11.957-70.187z"/><path d="m424 372.75h88v15h-88z"/><path d="m0 420.75h512v15h-512z"/><path d="m216.902 317.623h15v16h-15z" transform="matrix(.707 -.707 .707 .707 -164.524 254.049)"/><path d="m194.275 294.995h15v16h-15z" transform="matrix(.707 -.707 .707 .707 -155.153 231.429)"/><path d="m171.647 272.368h15v16h-15z" transform="matrix(.707 -.707 .707 .707 -145.78 208.801)"/><path d="m272 179.75h176c11.264.429 11.255 16.576 0 17h-128c-12.958 0-23.5 10.542-23.5 23.5v16h15v-16c0-4.687 3.813-8.5 8.5-8.5h128c31.141-1.185 31.117-45.826 0-47h-176c-11.264-.429-11.255-16.576 0-17h120c31.141-1.185 31.117-45.826 0-47h-48c-4.687 0-8.5-3.813-8.5-8.5v-16h-15v16c0 12.958 10.542 23.5 23.5 23.5h48c11.264.429 11.255 16.576 0 17h-120c-31.141 1.185-31.117 45.826 0 47z"/></g></svg>