<svg id="Layer_1" enable-background="new 0 0 512 512" height="512" viewBox="0 0 512 512" width="512" xmlns="http://www.w3.org/2000/svg"><g><path d="m439.5 424.53v-113h16v-47h-48v-32h-111v32h-113v-39.817c26.311 11.021 58.43 9.279 78.818-11.257 8.358-8.359 8.722-22.858 1.021-40.826-6.012-14.028-16.468-29.297-29.758-43.574l11.971-11.971c8.75 4.476 20.186 2.655 27.065-4.438 9.118-8.747 9.117-24.487.001-33.234 0 0 0 0-.001 0-19.257-18.416-48.959 2.984-37.671 27.066l-11.971 11.971c-14.277-13.29-29.546-23.747-43.574-29.759-17.968-7.701-32.467-7.338-40.826 1.022-25.162 24.125-21.972 67.827-2.074 96.132v78.686h-80v47h16v113h-72.501v15h512v-15h-72.5zm-128-176.999h81v17h-81zm-59.789-44.681c-3.565 3.567-12.881 2.74-24.312-2.159-12.361-5.297-25.969-14.625-38.874-26.58l34.443-34.443c27.154 29.301 35.398 56.526 28.743 63.182zm-1.721-112.83c3.163-3.298 8.856-3.298 12.02 0h.001c3.297 3.164 3.297 8.856-.001 12.02-3.164 3.298-8.856 3.298-12.02 0-3.298-3.163-3.298-8.856 0-12.02zm-93.725 8.106c4.519 0 10.508 1.473 17.227 4.352 12.361 5.298 25.969 14.625 38.874 26.58l-34.446 34.446c-11.955-12.904-21.283-26.512-26.58-38.874-5.695-14.114-7.661-26.654 4.925-26.504zm-20.136 28.879c12.421 33.405 52.593 73.744 85.362 87.473 1.196.513 2.373.981 3.537 1.422-39.064 6.758-85.583-31.938-89.128-73.144-.609-5.477-.515-10.756.229-15.751zm15.371 76.713c5.34 5.123 11.055 9.55 17 13.273v47.54h-17zm-64 107.812h80.5v-15h-96.5v-17h369v17h-256.5v15h240.5v113h-337z"/><path d="m104.5 391.53h143v-63h-143zm15-48h113v33h-113z"/><path d="m264.5 328.53v63h63.5v-15h-48.5v-33h113v33h-48.5v15h63.5v-63z"/><path d="m328 152.531h16v15h-16z"/><path d="m40 200.531h16v15h-16z"/><path d="m72 136.531h16v15h-16z"/><path d="m416 112.53h16v15h-16z"/><path d="m456 168.531h16v15h-16z"/></g></svg>