<svg id="Layer_1" enable-background="new 0 0 511 511" height="512" viewBox="0 0 511 511" width="512" xmlns="http://www.w3.org/2000/svg"><g><path d="m87 15h273v144.5h15v-159.5h-303v335h47.5v-15h-32.5z"/><path d="m343 176v-144h-239v271h32v208h303v-335zm-224 112v-241h209v129h-33.396c-2.521-24.071-17.035-44.619-37.44-55.557l11.897-11.897c15.106 7.873 34.249-3.926 33.939-21.046 0-12.958-10.542-23.5-23.5-23.5-17.118-.309-28.922 18.833-21.046 33.939l-16.491 16.491c-11.693-3.22-25.234-3.22-36.926 0l-16.491-16.491c7.873-15.106-3.925-34.249-21.046-33.939-12.958 0-23.5 10.542-23.5 23.5-.309 17.118 18.833 28.922 33.939 21.046l11.897 11.897c-20.406 10.938-34.919 31.486-37.44 55.557h-16.396v112zm143.277-112c-8.854-42.406-68.716-42.376-77.554 0h-17.21c10.041-64.921 101.958-64.874 111.974 0zm-15.456 0h-46.643c7.368-22.532 39.285-22.518 46.643 0zm24.179-88.5c0-4.687 3.813-8.5 8.5-8.5 11.261.428 11.258 16.574 0 17-4.687 0-8.5-3.813-8.5-8.5zm-103.5 8.5c-4.687 0-8.5-3.813-8.5-8.5.428-11.261 16.574-11.258 17 0 0 4.687-3.813 8.5-8.5 8.5zm256.5 400h-273v-305h273z"/><path d="m407 208h-239v271h239zm-164.394 135h89.787l17 17h-123.787zm5.102-15c8.932-43.73 70.669-43.7 79.585 0zm-32.708 47h145v17h-145zm99.194 32 20.118 57h-93.624l20.118-57zm77.806 57h-41.782l-20.118-57h44.9v-42.606l-32.099-32.099c-5.988-69.258-104.838-69.207-110.801 0l-32.1 32.099v42.606h44.9l-20.118 57h-41.782v-241h209z"/><path d="m247.691 248h16v15h-16z"/><path d="m279.691 248h16v15h-16z"/><path d="m311.5 248h16v15h-16z"/></g></svg>