<svg id="Layer_1" enable-background="new 0 0 510.63 510.63" height="512" viewBox="0 0 510.63 510.63" width="512" xmlns="http://www.w3.org/2000/svg"><g><path d="m406.815 175.63h-111v111.5h15v-96.5h81v113h-32v192h-17v-192h-64v-128h-111v64h-96v271h367v-207h-32zm-79 143v177h-49v-177zm-192 81h-49v-17h49zm0 15v17h-49v-17zm0-47h-49v-17h49zm0-32h-49v-17h49zm0-32h-49v-17h49zm-49 143h64v-175h-64v-17h81v72.5h15v-136.5h81v305h-81v-152.5h-15v152.5h-81zm337 49h-49v-177h49z"/><path d="m199.815 207.13h15v216h-15z"/><path d="m231.815 207.13h15v216h-15z"/><path d="m295.815 367.13h15v112h-15z"/><path d="m391.815 367.13h15v112h-15z"/><path d="m327.315 271.63h48v15h-48z"/><path d="m327.315 239.63h48v15h-48z"/><path d="m327.315 207.63h48v15h-48z"/><path d="m199.815 439.13h15v16h-15z"/><path d="m231.815 439.13h15v16h-15z"/><path d="m295.815 335.13h15v16h-15z"/><path d="m391.815 335.13h15v16h-15z"/><path d="m79.315 199.63h16v15h-16z"/><path d="m407.315 143.63h16v15h-16z"/><path d="m111.315 127.63h16v15h-16z"/><path d="m231.315 135.63h16v15h-16z"/><path d="m311.315 143.63h16v15h-16z"/><path d="m135.315 71.63h112v15h-112z"/><path d="m167.315 39.63h104v15h-104z"/><path d="m167.315 103.63h80v15h-80z"/><path d="m406.716 51.924c-5.988-69.258-104.838-69.207-110.801 0l-32.099 32.099v42.606h175v-42.605zm-10.507 10.706 17 17h-123.788l17-17zm-44.894-48c19.769 0 36.264 14.241 39.792 33h-79.585c3.529-18.759 20.024-33 39.793-33zm-72.5 97v-17h145v17z"/></g></svg>