<svg id="Layer_1" enable-background="new 0 0 511 511" height="512" viewBox="0 0 511 511" width="512" xmlns="http://www.w3.org/2000/svg"><g><path d="m439 32h-160v-32h-47v32h-160v239h160v104.5h15v-104.5h17v225h-17v-104.5h-15v119.5h47v-240h160zm-192-17h17v17h-17zm-160 241v-17h64.5v-15h-64.5v-97h32.5v-15h-32.5v-17h56.5v-15h-56.5v-33h337v33h-72.5v15h72.5v81h-32.5v15h32.5v17h-56.5v15h56.5v33z"/><path d="m323.31 96.196-11.619 9.487c21.666 25.333 21.364 66.656.074 91.474l-18.31-18.31c6.058-11.122 9.546-23.719 9.546-34.204.35-41.763-49.698-64.45-79.583-35.833l-13.574-13.574c25.291-21.7 67.511-21.527 92.78 1.165l9.755-11.395c-55.724-48.456-144.92-7.445-144.377 66.495-.002 48.247 39.25 87.499 87.498 87.499 72.993.54 114.336-86.694 67.81-142.804zm-67.81 14.804c17.92 0 32.5 15.092 32.5 33.643 0 20.24-16.068 47.357-32.5 47.357s-32.5-27.117-32.5-47.357c0-18.551 14.58-33.643 32.5-33.643zm-72.5 40.5c0-17.292 6.094-33.183 16.236-45.657l14.911 14.911c-24.114 40.787 29.144 119.781 70.693 70.693l16.317 16.317c-46.08 38.398-118.693 4.242-118.157-56.264z"/><path d="m231.5 144h16v15h-16z"/><path d="m263.5 144h16v15h-16z"/><path d="m159.5 80h16v15h-16z"/><path d="m335.5 208h16v15h-16z"/><path d="m167.5 224h16v15h-16z"/></g></svg>