<svg id="Layer_1" enable-background="new 0 0 512 512" height="512" viewBox="0 0 512 512" width="512" xmlns="http://www.w3.org/2000/svg"><g><path d="m150.135 385.81 9.486-11.619c-29.465-24.058-48.791-57.905-54.417-95.306l-14.833 2.231c6.182 41.093 27.406 78.275 59.764 104.694z"/><path d="m282.696 406.172 2.607 14.771c39.381-6.95 75.074-27.932 100.506-59.079l-11.619-9.486c-23.158 28.364-55.651 47.468-91.494 53.794z"/><path d="m361.864 126.19-9.486 11.619c28.363 23.158 47.469 55.651 53.795 91.494l14.771-2.607c-6.951-39.381-27.932-75.075-59.08-100.506z"/><path d="m225.492 106.551-2.984-14.7c-36.277 7.364-69.589 26.993-93.799 55.272l11.395 9.755c22.046-25.753 52.371-43.626 85.388-50.327z"/><path d="m373.215 232.711c-9.322-46.999-46.288-84.171-93.183-93.783 2.342-11.083 12.197-19.428 23.968-19.428h96v-15h-96c-19.337 0-35.463 13.972-38.839 32.348-5.658-.436-11.513-.461-17.183-.073 3.56-27.752 27.317-49.275 56.022-49.275h128v-15h-128c-37.669 0-68.607 29.288-71.289 66.285-46.999 9.322-84.171 46.288-93.783 93.183-11.083-2.342-19.428-12.197-19.428-23.968v-128h-15v128c0 19.337 13.972 35.462 32.348 38.839-.436 5.658-.461 11.513-.073 17.183-27.752-3.56-49.275-27.317-49.275-56.022v-96h-15v96c0 37.67 29.288 68.607 66.285 71.289 9.322 46.999 46.288 84.171 93.183 93.783-2.342 11.083-12.197 19.428-23.968 19.428h-96v15h96c19.337 0 35.463-13.972 38.839-32.348 5.658.436 11.513.461 17.183.073-3.56 27.752-27.317 49.275-56.022 49.275h-128v15h128c37.67 0 68.607-29.288 71.289-66.285 46.999-9.322 84.171-46.288 93.783-93.183 11.084 2.342 19.428 12.197 19.428 23.968v96h15v-96c0-19.337-13.972-35.462-32.348-38.839.436-5.658.461-11.513.073-17.183 27.753 3.56 49.275 27.317 49.275 56.022v128h15v-128c0-37.67-29.288-68.607-66.285-71.289zm-117.215 127.789c-57.622 0-104.5-46.878-104.5-104.5 5.253-138.443 203.767-138.405 209 .001 0 57.621-46.879 104.499-104.5 104.499z"/><path d="m392.5 416h15v16h-15z"/><path d="m80 392.5h16v15h-16z"/><path d="m256 168.5c-48.248 0-87.5 39.252-87.5 87.5 4.399 115.921 170.619 115.89 175-.001 0-48.247-39.252-87.499-87.5-87.499zm0 160c-39.977 0-72.5-32.523-72.5-72.5 3.645-96.049 141.37-96.023 145 .001 0 39.976-32.523 72.499-72.5 72.499z"/><path d="m256 200.5c-30.603 0-55.5 24.897-55.5 55.5 2.79 73.527 108.221 73.507 111-.001 0-30.602-24.897-55.499-55.5-55.499zm0 96c-22.332 0-40.5-18.168-40.5-40.5 2.036-53.655 78.972-53.64 81 .001 0 22.331-18.168 40.499-40.5 40.499z"/><path d="m256 232.5c-12.958 0-23.5 10.542-23.5 23.5 1.181 31.133 45.823 31.125 47 0 0-12.958-10.542-23.5-23.5-23.5zm0 32c-4.687 0-8.5-3.813-8.5-8.5.427-11.261 16.574-11.258 17 0 0 4.687-3.813 8.5-8.5 8.5z"/><path d="m72.5 80h15v16h-15z"/><path d="m416 104.5h16v15h-16z"/><path d="m248.5 64h15c0-13.509 10.99-24.5 24.5-24.5v-15c-13.51 0-24.5-10.991-24.5-24.5h-15c0 13.509-10.991 24.5-24.5 24.5v15c13.509 0 24.5 10.991 24.5 24.5zm7.5-40.884c2.471 3.412 5.472 6.413 8.884 8.884-3.412 2.471-6.413 5.472-8.884 8.884-2.471-3.412-5.472-6.413-8.884-8.884 3.412-2.471 6.413-5.472 8.884-8.884z"/><path d="m343.5 424h-15c0 13.509-10.99 24.5-24.5 24.5v15c13.51 0 24.5 10.991 24.5 24.5h15c0-13.509 10.99-24.5 24.5-24.5v-15c-13.51 0-24.5-10.991-24.5-24.5zm-7.5 40.884c-2.471-3.412-5.472-6.413-8.884-8.884 3.412-2.471 6.413-5.472 8.884-8.884 2.471 3.412 5.472 6.413 8.884 8.884-3.412 2.471-6.413 5.472-8.884 8.884z"/><path d="m155.466 448h-15c0 13.509-10.991 24.5-24.5 24.5v15c13.509 0 24.5 10.991 24.5 24.5h15c0-13.509 10.991-24.5 24.5-24.5v-15c-13.509 0-24.5-10.991-24.5-24.5zm-7.5 40.884c-2.471-3.412-5.472-6.413-8.884-8.884 3.412-2.471 6.413-5.472 8.884-8.884 2.471 3.412 5.472 6.413 8.884 8.884-3.411 2.471-6.412 5.472-8.884 8.884z"/></g></svg>