<svg id="Layer_1" enable-background="new 0 0 511.51 511.51" height="512" viewBox="0 0 511.51 511.51" width="512" xmlns="http://www.w3.org/2000/svg"><g><path d="m111.755 464.51h16v15h-16z"/><path d="m143.755 464.51h16v15h-16z"/><path d="m423.755 48.51h-96c-.051 0-.207 0-.354-.146-.146-.147-.146-.304-.146-.356l.065-47.987-15-.021-.065 47.985c-.187 8.341 7.16 15.698 15.5 15.525h96c.275 0 .5.224.5.5v96c0 .276-.225.5-.5.5h-16.5v-16h-32v-8.5c0-30.603-24.897-55.5-55.5-55.5h-128c-30.603 0-55.5 24.897-55.5 55.5v56.5h-32v16h-16.5c-.275 0-.5-.224-.5-.5v-112c0-.276.225-.5.5-.5h31.987c8.337.174 15.686-7.185 15.5-15.52l-.066-79.987-15 .013.066 79.992c0 .051 0 .208-.146.354s-.303.147-.354.147h-31.987c-8.547 0-15.5 6.953-15.5 15.5v112c0 8.547 6.953 15.5 15.5 15.5h16.5v16h32v112.5h15v-216c0-22.332 18.168-40.5 40.5-40.5h128c22.332 0 40.5 18.168 40.5 40.5v216h15v-160.5h32v-16h16.5c8.547 0 15.5-6.953 15.5-15.5v-96c0-8.546-6.953-15.499-15.5-15.499zm-304.5 176v-17h17v17zm273-48h-17v-17h17z"/><path d="m255.755 256.51c-21.78 0-39.5 17.72-39.5 39.5 1.986 52.33 77.022 52.316 79 0 0-21.78-17.72-39.5-39.5-39.5zm0 64c-13.51 0-24.5-10.991-24.5-24.5 1.231-32.458 47.773-32.449 49 0 0 13.51-10.99 24.5-24.5 24.5z"/><path d="m247.755 288.51h16v15h-16z"/><path d="m319.755 144.51h16v15h-16z"/><path d="m167.755 128.51h16v15h-16z"/><path d="m167.755 240.51h16v15h-16z"/><path d="m354.862 368.51-20.431-20.431c-4.627-4.627-7.176-10.779-7.176-17.324v-34.745c0-27.26-15.34-50.999-37.836-63.057l11.897-11.897c15.106 7.873 34.249-3.925 33.939-21.046 0-12.958-10.542-23.5-23.5-23.5-17.118-.309-28.922 18.833-21.046 33.939l-16.491 16.491c-11.693-3.22-25.234-3.22-36.926 0l-16.491-16.491c7.873-15.106-3.925-34.249-21.046-33.939-12.958 0-23.5 10.542-23.5 23.5-.309 17.118 18.833 28.922 33.939 21.046l11.897 11.897c-22.496 12.059-37.836 35.797-37.836 63.057v34.745c0 6.544-2.549 12.697-7.177 17.324l-20.43 20.431h-16l-68.394 68.394v74.606h367v-74.606l-68.394-68.394zm-43.107-177c4.687 0 8.5 3.813 8.5 8.5-.428 11.261-16.574 11.258-17 0 0-4.687 3.814-8.5 8.5-8.5zm-120.5 8.5c0-4.687 3.813-8.5 8.5-8.5 11.261.428 11.258 16.574 0 17-4.686 0-8.5-3.813-8.5-8.5zm-3.57 158.677c7.461-7.46 11.57-17.379 11.57-27.931v-34.746c2.849-74.871 110.178-74.814 113 0v34.745c0 10.552 4.109 20.471 11.569 27.931l9.824 9.824h-155.786zm-40.823 24.823h217.787l49 49h-315.787zm229.393 64v49h-33v-49zm-289 0h241v49h-241zm304 49v-49h33v49z"/><path d="m215.755 400.51h16v15h-16z"/><path d="m247.755 400.51h16v15h-16z"/><path d="m279.755 400.51h16v15h-16z"/></g></svg>