<svg id="Layer_1" enable-background="new 0 0 510.447 510.447" height="512" viewBox="0 0 510.447 510.447" width="512" xmlns="http://www.w3.org/2000/svg"><g><path d="m409.633 435.901-13.707 6.092 23.757 53.454h-60.959v-29.394l32-32v-115.106h-15v12.893l-17 17v-29.893h-15v29.893l-17-17v-12.893h-15v115.106l32 32v29.394h-81v-29.394l32-32v-115.106h-15v12.893l-17 17v-29.893h-15v29.893l-17-17v-12.893h-15v115.106l32 32v29.394h-81v-29.394l32-32v-115.106h-15v12.893l-17 17v-29.893h-15v29.893l-17-17v-12.893h-15v115.106l32 32v29.394h-60.96l23.757-53.454-13.707-6.092-33.131 74.546h375.081zm-50.91 8.939v-26.787l17-17v26.787zm17-91.786v26.786l-17 17v-26.786zm-32 17v26.786l-17-17v-26.786zm-17 57.786v-26.787l17 17v26.787zm-64 17v-26.787l17-17v26.787zm17-91.786v26.786l-17 17v-26.786zm-32 17v26.786l-17-17v-26.786zm-17 57.786v-26.787l17 17v26.787zm-64 17v-26.787l17-17v26.787zm17-91.786v26.786l-17 17v-26.786zm-32 17v26.786l-17-17v-26.786zm-17 57.786v-26.787l17 17v26.787z"/><path d="m143.223 254.447c19.216 0 35.262-13.795 38.777-32h13.683l-34.424 77.454 13.707 6.092 37.132-83.546h4.349c8.853 42.406 68.716 42.376 77.553 0h4.349l37.132 83.546 13.707-6.092-34.424-77.454h13.683c8.853 42.406 68.716 42.376 77.553 0h32.723v-43.104l-80-64v-35.896h-16.325c-11.822-105.968-162.567-105.89-174.35 0h-16.325v35.896l-80 64v43.104h32.723c3.515 18.205 19.562 32 38.777 32zm0-15c-10.894 0-20.146-7.148-23.321-17h46.643c-3.176 9.851-12.428 17-23.322 17zm112 0c-10.894 0-20.146-7.148-23.321-17h46.643c-3.176 9.851-12.428 17-23.322 17zm112 0c-10.894 0-20.146-7.148-23.321-17h46.643c-3.176 9.851-12.428 17-23.322 17zm42.62-64h-309.239l61.25-49h186.739zm-154.62-161c37.444 0 68.347 28.534 72.113 65h-144.225c3.765-36.466 34.668-65 72.112-65zm-88.5 80h177v17h-177zm-80 96h337v17h-337z"/><path d="m215.223 143.447h16v15h-16z"/><path d="m247.223 143.447h16v15h-16z"/><path d="m279.223 143.447h16v15h-16z"/></g></svg>