<svg id="Layer_1" enable-background="new 0 0 512 512" height="512" viewBox="0 0 512 512" width="512" xmlns="http://www.w3.org/2000/svg"><g><path d="m439.5 279.935c0-40.863-13.143-79.536-38.008-111.838-23.341-30.321-56.081-52.905-92.504-63.887l-13.592-33.981c-3.371-28.893-75.42-28.875-78.79-.01l-13.701 34.022c-30.364 9.164-57.936 26.156-79.931 49.299-22.003 23.152-37.537 51.566-45.125 82.377l-31.556 12.623c-28.896 3.373-28.874 75.435 0 78.791l37.022 14.81c8.203 22.797 20.689 43.471 37.146 61.493l11.076-10.115c-15.838-17.345-27.669-37.356-35.165-59.479l-1.109-3.273-31.744-12.699c10.514-13.902 10.512-46.362 0-60.261l24.569-9.828c3.008 3.333 8.411 16.849 8.411 39.958h15c0-24.009-5.492-48.195-17.586-54.119 15.914-56.232 59.828-100.295 116.605-116.168l3.558-.994 11.765-29.217c13.895 10.531 46.382 10.536 60.288.019l9.828 24.569c-3.333 3.008-16.848 8.41-39.958 8.41v15c22.598 0 45.354-4.866 52.891-15.523 104.61 32.772 149.989 165.665 86.05 255.372l-2.343 3.405 8.406 19.61c-1.516.282-3.076.682-4.679 1.216-16.559 5.515-34.673 24.04-37.959 41.424l-24.271-10.402c.231-4.484 5.968-17.861 22.309-34.201l-10.607-10.607c-16.754 16.754-29.841 37.41-25.989 50.195-58.794 24.697-130.645 12.022-177.389-31.528l-10.114 11.076c52.993 49.441 135.493 62.119 200.846 30.979l30.863 13.227c12.739 9.14 30.37.195 43.303-12.431 15.239-15.24 20.339-33.431 12.445-43.27l-10.138-23.65c19.558-29.856 29.877-64.476 29.877-100.394zm-391.5-16.5c2.185 0 8.5 8.424 8.5 24.5s-6.315 24.5-8.5 24.5-8.5-8.424-8.5-24.5 6.315-24.5 8.5-24.5zm208-183c-16.076 0-24.5-6.315-24.5-8.5s8.424-8.5 24.5-8.5 24.5 6.315 24.5 8.5-8.424 8.5-24.5 8.5zm140.706 356.206c-11.367 11.369-21.792 12.86-23.334 11.313-2.386-6.205 5.51-17.616 11.314-23.334 5.535-5.598 16.904-13.698 23.333-11.314 1.545 1.545.055 11.968-11.313 23.335z"/><path d="m192 224.435c-21.78 0-39.5 17.72-39.5 39.5 1.986 52.33 77.022 52.316 79 0 0-21.78-17.72-39.5-39.5-39.5zm0 64c-13.509 0-24.5-10.99-24.5-24.5 1.231-32.458 47.773-32.449 49 0 0 13.51-10.991 24.5-24.5 24.5z"/><path d="m200.5 359.935c0 12.958 10.542 23.5 23.5 23.5 31.133-1.181 31.125-45.823 0-47-12.958 0-23.5 10.542-23.5 23.5zm23.5-8.5c4.687 0 8.5 3.813 8.5 8.5-.428 11.261-16.574 11.258-17 0 0-4.686 3.813-8.5 8.5-8.5z"/><path d="m352 192.435c-17.369 0-31.5 14.131-31.5 31.5 1.584 41.732 61.423 41.72 63 0 0-17.369-14.131-31.5-31.5-31.5zm0 48c-9.098 0-16.5-7.402-16.5-16.5.83-21.859 32.173-21.853 33 0 0 9.098-7.402 16.5-16.5 16.5z"/><path d="m136 184.435h16v15h-16z"/><path d="m312 152.435h16v15h-16z"/><path d="m368 328.435h16v15h-16z"/><path d="m280 176.435h16v15h-16z"/><path d="m152 368.435h16v15h-16z"/><path d="m360 96.435h16v15h-16z"/><path d="m456 176.435h16v15h-16z"/><path d="m40 368.435h16v15h-16z"/><path d="m40 144.435h16v15h-16z"/><path d="m24 192.435h16v15h-16z"/><path d="m96 416.435h-72v15h50.097c-2.113 5.217-2.113 11.783 0 17h-74.097v15h96c31.141-1.185 31.117-45.826 0-47zm0 32c-4.687 0-8.5-3.813-8.5-8.5.428-11.261 16.574-11.258 17 0 0 4.687-3.813 8.5-8.5 8.5z"/><path d="m437.903 128.435c2.113-5.217 2.113-11.783 0-17h50.097v-15h-72c-31.141 1.185-31.117 45.826 0 47h96v-15zm-30.403-8.5c0-4.687 3.813-8.5 8.5-8.5 11.261.428 11.258 16.574 0 17-4.687 0-8.5-3.813-8.5-8.5z"/></g></svg>