<svg id="Layer_1" enable-background="new 0 0 510.013 510.013" height="512" viewBox="0 0 510.013 510.013" width="512" xmlns="http://www.w3.org/2000/svg"><g><path d="m207.013 183.506h-32v32h-17v-40.5h-15v40.5h-17v-24.5h-15v24.5h-18.235c-8.795-24.851-45.243-19.183-45.766 7.5.525 26.688 36.975 32.347 45.766 7.5h18.234v24.5h15v-24.5h17v40.5h15v-40.5h17v32h32v16h31.5v-15h-16.5v-81h16.5v-15h-31.5v16zm-136.5 48c-4.687 0-8.5-3.813-8.5-8.5.428-11.261 16.574-11.258 17 0 0 4.687-3.814 8.5-8.5 8.5zm119.5 16v-49h17v49z"/><path d="m510.013 223.006c0-11.721-8.625-21.463-19.862-23.217-9.081-26.542-32.92-45.288-60.801-47.946-3.381-18.371-19.503-32.337-38.837-32.337h-71.5v32h-64v143h28.393l32.001 32h22.034l-37.333 112h79.811l48.073-144.218c28.463-2.169 52.931-21.092 62.159-48.064 11.236-1.754 19.862-11.497 19.862-23.218zm-176-88.5h56.5c10.894 0 20.146 7.148 23.321 17h-79.821zm-12.394 177-17-17h43.487l-5.667 17zm47.489 112h-48.189l43-129h48.188zm53.405-144h-152.5v-113h152.5c22.426 0 42.356 13.17 51.401 33h-74.901v47h74.901c-9.045 19.83-28.975 33-51.401 33zm64-48h-72.5v-17h72.5c11.264.43 11.255 16.575 0 17z"/><path d="m326.513 215.506h16v15h-16z"/><path d="m294.513 215.506h16v15h-16z"/><path d="m358.513 215.506h16v15h-16z"/><path d="m14.013 223.006c0-75.267 61.233-136.5 136.5-136.5v-15c-200.76 7.641-200.607 295.431 0 303v-15c-75.267 0-136.5-61.233-136.5-136.5z"/></g></svg>