<svg id="Layer_1" enable-background="new 0 0 486.503 486.503" height="512" viewBox="0 0 486.503 486.503" width="512" xmlns="http://www.w3.org/2000/svg"><g><path d="m439.64 103.088c23.339-29.913-14.421-67.64-44.308-44.312-132.362-102.53-331.637-28.744-366.21 134.748l14.655 3.199c30.972-151.612 220.847-222.208 342.545-125.955-11.122 25.881 15.461 52.45 41.33 41.327 71.488 89.73 52.991 231.347-38.037 300.825-22.739-22.754-61.263-.487-52.629 30.763-120.215 51.659-267.468-25.995-293.209-154.159l-14.655 3.199c28.85 139.116 184.793 220.39 315.352 164.08 22.943 23.77 62.33.984 52.93-30.938 99.401-75.251 118.756-224.491 42.236-322.777zm-40.846-19.964c0-9.098 7.402-16.5 16.5-16.5 21.859.83 21.853 32.174 0 33-9.098 0-16.5-7.403-16.5-16.5zm-31.5 368.5c-9.098 0-16.5-7.402-16.5-16.5.83-21.859 32.173-21.853 33 0 0 9.097-7.401 16.5-16.5 16.5z"/><path d="m87.794 243.124c-1.147 136.492 159.792 216.905 268.021 133.996l-9.01-11.992c-159.285 110.909-333.101-100.855-193.441-235.423 22.776 22.07 60.546.048 52.327-30.829 120.721-41.939 237.495 77.836 192.575 197.432l14.058 5.232c49.773-132.604-81.084-264.565-214.063-215.942-23.041-24.157-62.867-.936-52.943 31.193-36.623 31.88-57.524 77.615-57.524 126.333zm87.5-152.5c9.098 0 16.5 7.402 16.5 16.5-.83 21.859-32.173 21.853-33 0 0-9.098 7.402-16.5 16.5-16.5z"/><path d="m215.294 235.624h16v15h-16z"/><path d="m247.294 235.624h16v15h-16z"/><path d="m279.294 235.624h16v15h-16z"/><path d="m255.294 139.624c-57.07 0-103.5 46.43-103.5 103.5 5.203 137.118 201.818 137.081 207-.001 0-57.07-46.429-103.499-103.5-103.499zm0 192c-48.799 0-88.5-39.701-88.5-88.5 4.449-117.246 172.569-117.214 177 .001 0 48.798-39.7 88.499-88.5 88.499z"/><path d="m62.794 243.124c0-17.369-14.131-31.5-31.5-31.5-41.732 1.584-41.72 61.423 0 63 17.37 0 31.5-14.131 31.5-31.5zm-48 0c0-9.098 7.402-16.5 16.5-16.5 21.859.83 21.853 32.173 0 33-9.098 0-16.5-7.403-16.5-16.5z"/><path d="m383.294 370.624c17.369 0 31.5-14.131 31.5-31.5-1.584-41.732-61.423-41.72-63 0 0 17.369 14.131 31.5 31.5 31.5zm0-48c9.098 0 16.5 7.402 16.5 16.5-.83 21.859-32.173 21.853-33 0 0-9.098 7.402-16.5 16.5-16.5z"/></g></svg>