<svg xmlns="http://www.w3.org/2000/svg" xmlns:xlink="http://www.w3.org/1999/xlink" viewBox="0 0 512 512"><defs><linearGradient id="linear-gradient" x1="481.4871" y1="436.0729" x2="509.6065" y2="484.7771" gradientTransform="translate(-48.8306 -193.6325) rotate(30)" gradientUnits="userSpaceOnUse"><stop offset="0" stop-color="#ffc550"/><stop offset="1" stop-color="#e29700"/></linearGradient><linearGradient id="linear-gradient-2" x1="464.408" y1="331.9118" x2="527.7793" y2="441.6742" gradientTransform="translate(-48.8306 -193.6325) rotate(30)" gradientUnits="userSpaceOnUse"><stop offset="0" stop-color="#8d3fa0"/><stop offset="1" stop-color="#651d77"/></linearGradient><linearGradient id="linear-gradient-3" x1="487.1506" y1="286.0671" x2="509.2128" y2="324.28" xlink:href="#linear-gradient"/><linearGradient id="linear-gradient-4" x1="535.216" y1="62.9169" x2="417.0098" y2="267.656" gradientTransform="translate(-48.8306 -193.6325) rotate(30)" gradientUnits="userSpaceOnUse"><stop offset="0" stop-color="#8d3fa0"/><stop offset="0.3466" stop-color="#8a3c9d"/><stop offset="0.6249" stop-color="#803493"/><stop offset="0.8786" stop-color="#702682"/><stop offset="1" stop-color="#651d77"/></linearGradient><linearGradient id="linear-gradient-5" x1="224.1274" y1="89.323" x2="337.5669" y2="285.806" gradientUnits="userSpaceOnUse"><stop offset="0" stop-color="#acce20"/><stop offset="1" stop-color="#7f9b0a"/></linearGradient></defs><g id="Broken_mirror"><path d="M180.6571,446.2019l-.7005,1.3833-.3535.7012c-1.5235,2.6388-4.5536,4.106-8.3585,4.4133-4.7908.38-10.8059-1.09-16.56-4.4119s-10.0346-7.7966-12.1009-12.1356c-1.6364-3.4488-1.8808-6.8066-.3573-9.4454l.3924-.6017.8687-1.3438c-4.4864,2.4685-18.4923,10.5559-22.43,17.3766-5.1322,8.8892,3.1874,23.3039,18.5869,32.1949s32.0429,8.8885,37.1751-.0007l.0048.0028C180.7667,467.5058,180.7629,451.3005,180.6571,446.2019Z" style="fill:url(#linear-gradient)"/><path d="M233.5961,341.663c-.1509.0181-.3017.0382-.4525.0513l-.0031-.0018c-4.2069.4693-9.6008-.78-14.7559-3.7567s-8.9344-7.0227-10.6314-10.9006l-.0031-.0018c-.1578-.3378-.2983-.6854-.43-1.0378L142.6185,426.1051l-.3923.6017c-1.5235,2.6388-1.2791,5.9966.3573,9.4454,2.0662,4.339,6.3465,8.8133,12.1008,12.1356s11.7695,4.7919,16.56,4.4119c3.8049-.3073,6.835-1.7745,8.3585-4.4133l.3535-.7012Z" style="fill:url(#linear-gradient-2)"/><path d="M238.7469,302.6872c-11.5539-6.6707-24.0424-6.6707-27.8937,0-3.9349,6.8154-6.41,17.2882-3.1031,24.3662l.0031.0018c1.697,3.8779,5.4763,7.9243,10.6314,10.9006s10.549,4.226,14.7559,3.7567l.0031.0018c7.7829-.6755,15.6153-8.055,19.55-14.87C256.5451,320.1732,250.3009,309.3578,238.7469,302.6872Z" style="fill:url(#linear-gradient-3)"/><path d="M362.8841,287.6c27.1469-49.2794,35.8193-113.4958,25.13-168.5695l0-.0011-.0009-.0044c-6.3094-31.2092-21.227-68.2-51.4476-82.9223a52.28,52.28,0,0,0-15.8226-4.6619c-4.5429-.7523-20.568-.3032-26.6141-.3488,20.6791.3271,40.4109,13.0514,55.1912,38.6517,32.84,56.8805,28.8038,155.7389-9.0109,220.8092-20.5286,35.325-46.7909,53.4215-71.7663,53.4923l-.0007.0085c3.4312-.0453,22.3251.0879,25.2638-.2582a56.536,56.536,0,0,0,12.4-2.5061C331.8588,332.7824,350.001,310.4184,362.8841,287.6Z" style="fill:#651d77"/><path d="M349.32,69.7435c32.84,56.8806,28.8039,155.739-9.0108,220.8093s-95.088,71.7111-127.928,14.83c-32.8376-56.8764-28.8043-155.73,9.0108-220.8009S316.4822,12.8671,349.32,69.7435Z" style="fill:url(#linear-gradient-4)"/><path d="M329.792,272.3394c-17.46,30.03-39.68,45.65-60.65,46.04-16.69.31-32.6-9.03-44.67-28.46-.54-.86-1.06-1.73-1.58-2.63-17.96-31.12-22.18-78.22-13.54-122.44,4.31-22.2,11.87-43.68,22.55-62.05a143.1332,143.1332,0,0,1,9.45-14.28c31.38-41.5,73.01-43.01,97.45-.68C365.792,134.5794,361.742,217.3494,329.792,272.3394Z" style="fill:url(#linear-gradient-5)"/><path d="M339.912,251.8494a174.9338,174.9338,0,0,1-10.12,20.49q-2.8653,4.9351-5.9,9.35l-104.05-153.57a177.114,177.114,0,0,1,12.06-25.32q1.6352-2.82,3.32-5.46Z" style="fill:#f5ff97"/><path d="M308.4921,299.9794a80.8671,80.8671,0,0,1-12.64,9.87l-88.79-131.03c.62-4.67,1.38-9.34,2.29-13.97q.8251-4.26,1.82-8.49Z" style="fill:#f5ff97"/><path d="M276.38,317.6517a43.6071,43.6071,0,0,1-12,.5578l13.5753-44.5248-2.0388-29.4913,7.0541,29.2491Z" style="fill:#5b6b00"/><path d="M314.5932,293.642l-8.599-31.6254,8.7466-11.7333-3.56-9.59.7828,9.1238-8.5556,8.5961-8.2485-4.5141-6.0086-15.8243,3.0474,18.3383,9.1648,5.0628,7.2679,38.3672Q311.6541,296.9668,314.5932,293.642Z" style="fill:#5b6b00"/><path d="M293.3816,211.5174l27.2519-38.5145-3.1881-19.9262,27.3173-53.1775a133.6383,133.6383,0,0,1,5.6653,16.5056l-25.2154,36.5277,1.57,24.0407Z" style="fill:#5b6b00"/><path d="M242.6126,86.8925l10.7037,30.8516,8.5027,3.8474,4.724,24.5959L265.2349,120.41l-8.94-6.0028-6.5938-35.7441Q246.0875,82.453,242.6126,86.8925Z" style="fill:#5b6b00"/><path d="M252.7509,184.2791l30.74-23.4722L274.5089,60.763a49.0387,49.0387,0,0,1,15.7644-3.9109l2.9537,108.3163-32.6692,22.35,3.1923,63.6683Z" style="fill:#5b6b00"/></g></svg>