<svg xmlns="http://www.w3.org/2000/svg" xmlns:xlink="http://www.w3.org/1999/xlink" viewBox="0 0 512 512"><defs><linearGradient id="linear-gradient" x1="84.1886" y1="125.8621" x2="385.6545" y2="427.3279" gradientUnits="userSpaceOnUse"><stop offset="0" stop-color="#8d3fa0"/><stop offset="1" stop-color="#651d77"/></linearGradient><linearGradient id="linear-gradient-2" x1="337.9229" y1="499.4183" x2="482.0811" y2="643.5765" gradientTransform="translate(-51.3744 -387.3367) rotate(15)" gradientUnits="userSpaceOnUse"><stop offset="0" stop-color="#acce20"/><stop offset="1" stop-color="#7f9b0a"/></linearGradient><linearGradient id="linear-gradient-3" x1="297.2459" y1="397.283" x2="345.0709" y2="445.108" gradientUnits="userSpaceOnUse"><stop offset="0" stop-color="#ffc550"/><stop offset="1" stop-color="#e29700"/></linearGradient><linearGradient id="linear-gradient-4" x1="67.4575" y1="298.6083" x2="102.1683" y2="333.319" xlink:href="#linear-gradient-3"/><linearGradient id="linear-gradient-5" x1="352.1899" y1="112.7109" x2="421.7818" y2="182.3028" xlink:href="#linear-gradient-3"/></defs><g id="Cursed_gem"><path d="M478.0765,283.0012c-14.2361-61.422-77.9241-70.724-94.6348-100.2861s7.69-97.4457-36.7955-131.122S257.9276,112.205,215.22,108.9723s-72.2643-49.497-120.0226,6.5013,9.9983,131.6786-35.15,173.5792S22.9594,422.4682,80.1947,455.1047c66.02,37.6452,118.8876-25.9514,152.3777-20.6336s116.7876,78.2357,129.9707-22.827C368.5941,365.2553,502.2641,387.3606,478.0765,283.0012Z" style="fill:url(#linear-gradient)"/><polygon points="231.687 368.333 165.89 385.962 188.892 414.105 275.808 390.818 231.687 368.333" style="fill:#cde82a"/><polygon points="310.747 260.424 275.808 390.818 297.496 350.703 323.946 251.991 310.747 260.424" style="fill:#cde82a"/><polygon points="258.137 269.621 231.687 368.333 275.808 390.818 310.747 260.424 258.137 269.621" style="fill:#718400"/><polygon points="227.598 155.648 161.793 173.277 135.343 271.989 165.89 385.962 231.687 368.333 258.137 269.621 227.598 155.648" style="fill:url(#linear-gradient-2)"/><polygon points="234.581 357.557 231.694 368.331 207.903 374.705 139.546 256.306 151.14 213.034 234.581 357.557" style="fill:#f5ff97"/><polygon points="255.458 279.644 249.657 301.293 173.879 170.042 189.723 165.788 255.458 279.644" style="fill:#f5ff97"/><polygon points="293.407 138.018 270.406 109.871 310.747 260.424 323.946 251.991 293.407 138.018" style="fill:#718400"/><polygon points="270.406 109.871 227.598 155.648 258.137 269.621 310.747 260.424 270.406 109.871" style="fill:#cde82a"/><polygon points="227.598 155.648 270.406 109.871 183.481 133.158 161.793 173.277 227.598 155.648" style="fill:#718400"/><path d="M354.0671,418.3273l-4.5882-2.211a36.1171,36.1171,0,0,1-18.2-20.0205l-7.1336-19.31a3.1839,3.1839,0,0,0-5.9732,0l-7.1336,19.31a36.1166,36.1166,0,0,1-18.2,20.0205l-4.5882,2.211a3.1838,3.1838,0,0,0,0,5.7364l4.5882,2.211a36.1166,36.1166,0,0,1,18.2,20.0205l7.1336,19.31a3.1839,3.1839,0,0,0,5.9732,0l7.1336-19.31a36.1171,36.1171,0,0,1,18.2-20.0205l4.5882-2.211A3.1839,3.1839,0,0,0,354.0671,418.3273Z" style="fill:url(#linear-gradient-3)"/><path d="M108.6975,313.8819l-3.33-1.6047a26.2128,26.2128,0,0,1-13.21-14.5306l-5.1775-14.0149a2.3108,2.3108,0,0,0-4.3352,0l-5.1775,14.0149a26.2132,26.2132,0,0,1-13.2095,14.5306l-3.33,1.6047a2.3108,2.3108,0,0,0,0,4.1635l3.33,1.6047a26.2132,26.2132,0,0,1,13.2095,14.5306l5.1775,14.0148a2.3108,2.3108,0,0,0,4.3352,0l5.1775-14.0148a26.2128,26.2128,0,0,1,13.21-14.5306l3.33-1.6047A2.3108,2.3108,0,0,0,108.6975,313.8819Z" style="fill:url(#linear-gradient-4)"/><path d="M434.8723,143.3332l-6.6764-3.2173a52.5555,52.5555,0,0,1-26.4838-29.1325l-10.38-28.0986a4.633,4.633,0,0,0-8.6918,0l-10.38,28.0986a52.5553,52.5553,0,0,1-26.4839,29.1325l-6.6764,3.2173a4.633,4.633,0,0,0,0,8.3473l6.6764,3.2173A52.5553,52.5553,0,0,1,372.26,184.03l10.38,28.0985a4.633,4.633,0,0,0,8.6918,0l10.38-28.0985a52.5555,52.5555,0,0,1,26.4838-29.1325l6.6764-3.2173A4.6329,4.6329,0,0,0,434.8723,143.3332Z" style="fill:url(#linear-gradient-5)"/></g></svg>