<svg xmlns="http://www.w3.org/2000/svg" xmlns:xlink="http://www.w3.org/1999/xlink" viewBox="0 0 512 512"><defs><linearGradient id="linear-gradient" x1="53.2609" y1="100.0404" x2="386.4518" y2="433.2312" gradientUnits="userSpaceOnUse"><stop offset="0" stop-color="#acce20"/><stop offset="1" stop-color="#7f9b0a"/></linearGradient><linearGradient id="linear-gradient-2" x1="687.3009" y1="350.7678" x2="747.6566" y2="350.7678" gradientTransform="matrix(-1, 0, 0, 1, 1115.4204, 0)" gradientUnits="userSpaceOnUse"><stop offset="0.5" stop-color="#8d3fa0"/><stop offset="1" stop-color="#651d77"/></linearGradient><linearGradient id="linear-gradient-3" x1="691.4093" y1="410.1699" x2="826.15" y2="332.3773" gradientTransform="matrix(-1, 0, 0, 1, 1115.4204, 0)" gradientUnits="userSpaceOnUse"><stop offset="0" stop-color="#8d3fa0"/><stop offset="0.8" stop-color="#651d77"/></linearGradient><linearGradient id="linear-gradient-4" x1="703.357" y1="92.4602" x2="703.357" y2="229.2108" gradientTransform="matrix(-1, 0, 0, 1, 1115.4204, 0)" gradientUnits="userSpaceOnUse"><stop offset="0.2" stop-color="#8d3fa0"/><stop offset="0.2971" stop-color="#823695"/><stop offset="0.5001" stop-color="#722884"/><stop offset="0.7227" stop-color="#68207a"/><stop offset="1" stop-color="#651d77"/></linearGradient><linearGradient id="linear-gradient-5" x1="686.2347" y1="125.1672" x2="811.1107" y2="250.0431" gradientTransform="matrix(-1, 0, 0, 1, 1115.4204, 0)" gradientUnits="userSpaceOnUse"><stop offset="0.6" stop-color="#8d3fa0"/><stop offset="0.6977" stop-color="#843897"/><stop offset="0.8566" stop-color="#6d237f"/><stop offset="0.9" stop-color="#651d77"/></linearGradient><linearGradient id="linear-gradient-6" x1="810.5065" y1="120.6598" x2="810.5065" y2="335.5195" xlink:href="#linear-gradient-4"/><linearGradient id="linear-gradient-7" x1="749.2754" y1="131.8493" x2="749.2754" y2="101.0543" gradientTransform="matrix(-1, 0, 0, 1, 1115.4204, 0)" gradientUnits="userSpaceOnUse"><stop offset="0.15" stop-color="#8d3fa0"/><stop offset="0.2729" stop-color="#853998"/><stop offset="0.7231" stop-color="#6e2480"/><stop offset="1" stop-color="#651d77"/></linearGradient><linearGradient id="linear-gradient-8" x1="718.723" y1="53.83" x2="779.8279" y2="89.109" gradientTransform="matrix(1, 0, 0, -1, -383.1305, 142.939)" gradientUnits="userSpaceOnUse"><stop offset="0.2" stop-color="#8d3fa0"/><stop offset="0.4773" stop-color="#8a3c9d"/><stop offset="0.6999" stop-color="#803493"/><stop offset="0.9029" stop-color="#702682"/><stop offset="1" stop-color="#651d77"/></linearGradient><linearGradient id="linear-gradient-9" x1="83.8805" y1="350.7678" x2="144.2362" y2="350.7678" gradientUnits="userSpaceOnUse"><stop offset="0.5" stop-color="#ffc550"/><stop offset="1" stop-color="#e29700"/></linearGradient><linearGradient id="linear-gradient-10" x1="87.989" y1="410.1699" x2="222.7296" y2="332.3773" gradientUnits="userSpaceOnUse"><stop offset="0" stop-color="#ffc550"/><stop offset="0.8" stop-color="#e29700"/></linearGradient><linearGradient id="linear-gradient-11" x1="99.9366" y1="92.4602" x2="99.9366" y2="229.2108" gradientUnits="userSpaceOnUse"><stop offset="0.2" stop-color="#ffc550"/><stop offset="0.3219" stop-color="#f5b636"/><stop offset="0.4668" stop-color="#eda81e"/><stop offset="0.6211" stop-color="#e79f0d"/><stop offset="0.7899" stop-color="#e39903"/><stop offset="1" stop-color="#e29700"/></linearGradient><linearGradient id="linear-gradient-12" x1="82.8144" y1="125.1672" x2="207.6903" y2="250.0431" gradientUnits="userSpaceOnUse"><stop offset="0.6" stop-color="#ffc550"/><stop offset="0.6597" stop-color="#fcc047"/><stop offset="0.7571" stop-color="#f3b22f"/><stop offset="0.8795" stop-color="#e59b07"/><stop offset="0.9" stop-color="#e29700"/></linearGradient><linearGradient id="linear-gradient-13" x1="207.0861" y1="120.6598" x2="207.0861" y2="335.5195" xlink:href="#linear-gradient-11"/><linearGradient id="linear-gradient-14" x1="145.8551" y1="131.8493" x2="145.8551" y2="101.0543" gradientUnits="userSpaceOnUse"><stop offset="0.15" stop-color="#ffc550"/><stop offset="0.2082" stop-color="#fcc149"/><stop offset="0.5548" stop-color="#eeaa21"/><stop offset="0.8307" stop-color="#e59c09"/><stop offset="1" stop-color="#e29700"/></linearGradient><linearGradient id="linear-gradient-15" x1="115.3026" y1="53.83" x2="176.4075" y2="89.109" gradientUnits="userSpaceOnUse"><stop offset="0.2" stop-color="#ffc550"/><stop offset="0.4101" stop-color="#fec34d"/><stop offset="0.5788" stop-color="#fabd43"/><stop offset="0.7332" stop-color="#f4b432"/><stop offset="0.8781" stop-color="#eca61a"/><stop offset="1" stop-color="#e29700"/></linearGradient></defs><g id="Doppelganger"><path d="M412.2569,194.8049C353.7884,176.2367,373.6713,83.5288,306.8631,53.37S233.0812,77.4415,195.9818,98.4942,78.9859,53.3981,53.2164,102.63,78.2623,202.65,75.7655,236.3782s-55.9175,69.16-42.6521,130.5379c22.5389,104.284,133.5633,27.593,158.7185,66.8112,54.8032,85.4405,98.8674-15.6277,126.7773-34.6434S421.1578,414.9017,464.64,352.9472C502.3365,299.2359,470.7253,213.3731,412.2569,194.8049Z" style="fill:url(#linear-gradient)"/><path d="M368.8847,433.0879a4.9837,4.9837,0,0,1,.0481-.8409c.5237-5.5307,5.5288-10.9847,5.5288-13.5841l0-.0026h0l-6.6978-174.0161h38.5226L399.5789,418.66h0l0,.0026v0c.001,5.8137,27.0443,19.4661,28.4715,30.5761a5.2327,5.2327,0,0,1,.0511.6638c.0027.0778.018.1569.018.2344l-.0017,0c-.0259,1.7857-1.0518,3.4112-3.42,4.7784-6.2794,3.6255-15.6988,1.8125-25.1185-1.8128s-18.84-9.0626-25.12-12.6861a14.5972,14.5972,0,0,1-4.7075-4.5328,6.1127,6.1127,0,0,1-.8606-2.7189l-.0108-.003C368.88,433.1371,368.8845,433.1125,368.8847,433.0879Z" style="fill:url(#linear-gradient-2)"/><path d="M327.1249,457.1966a4.9961,4.9961,0,0,1,.0482-.841c.5237-5.5306,5.5288-10.9846,5.5288-13.5841l0-.0026h0l-6.6978-174.0162h38.5225l-6.7075,174.0162h0l0,.0026c0,5.8134,27.0444,19.4661,28.4716,30.5764a5.1828,5.1828,0,0,1,.0511.6642c.0027.0777.018.1566.018.234l-.0017,0c-.0259,1.7856-1.0518,3.4111-3.42,4.7783-6.2794,3.6255-15.6988,1.8124-25.1184-1.8128s-18.84-9.0627-25.12-12.6861a14.5974,14.5974,0,0,1-4.7074-4.5328,6.1123,6.1123,0,0,1-.8606-2.7188l-.0108-.0031C327.1207,457.2457,327.1247,457.2212,327.1249,457.1966Z" style="fill:url(#linear-gradient-3)"/><path d="M422.6107,110.5837l36.3244,103.0769a11.6689,11.6689,0,0,1-6.8667,14.7886h0a11.6688,11.6688,0,0,1-14.9476-6.5133L395.9393,120.7015C387.7825,100.65,364.5254,106.46,364.5254,106.46c9.6064-5.5462,45.7923-30.76,58.0853,4.1238" style="fill:url(#linear-gradient-4)"/><path d="M328.1955,127.4347l45.9363-26.521a33.114,33.114,0,0,1,29.9626,0c3.834,2.2136,6.2055,5.2715,6.2055,8.6494l-4.0141,135.0811c0,3.0707-2.1559,5.8507-5.6413,7.8631l-41.76,24.11a30.1034,30.1034,0,0,1-27.2386,0c-3.4855-2.0123-5.6413-4.7923-5.6413-7.8631l-4.0141-132.67C321.99,132.7063,324.3614,129.6483,328.1955,127.4347Z" style="fill:url(#linear-gradient-5)"/><path d="M310.5178,155.0918,268.63,321.1933a11.5091,11.5091,0,0,0,8.16,13.9256h0a11.5092,11.5092,0,0,0,14.06-7.9262l47.4076-164.6111C344.5147,140.854,339.93,120.66,339.93,120.66c-11.7346,6.7749-23.4325,10.72-29.4123,34.432" style="fill:url(#linear-gradient-6)"/><path d="M381.7786,101.0543v21.7693c0,4.9848-6.9994,9.0257-15.6336,9.0257s-15.6337-4.0409-15.6337-9.0257V101.0543Z" style="fill:url(#linear-gradient-7)"/><rect x="336.0666" y="31" width="60.1567" height="80.939" rx="30.0783" transform="translate(732.2899 142.939) rotate(-180)" style="fill:url(#linear-gradient-8)"/><path d="M369.473,75.2456l.0011-.0007A2.95,2.95,0,0,1,373.8988,77.8l0,5.11a8.85,8.85,0,0,1-4.4256,7.6644h0a2.95,2.95,0,0,1-4.425-2.5545V82.91A8.85,8.85,0,0,1,369.473,75.2456Z" style="fill:#ffefdc"/><path d="M389.5879,63.6326l.0011-.0007a2.95,2.95,0,0,1,4.4248,2.5548l0,5.11a8.85,8.85,0,0,1-4.4256,7.6644h0a2.95,2.95,0,0,1-4.425-2.5545v-5.11A8.85,8.85,0,0,1,389.5879,63.6326Z" style="fill:#ffefdc"/><path d="M143.1153,433.0879a4.9837,4.9837,0,0,0-.0481-.8409c-.5237-5.5307-5.5288-10.9847-5.5288-13.5841l0-.0026h0l6.6978-174.0161H105.7136L112.4211,418.66h0l0,.0026v0c-.001,5.8137-27.0443,19.4661-28.4715,30.5761a5.2327,5.2327,0,0,0-.0511.6638c-.0027.0778-.018.1569-.018.2344l.0017,0c.0259,1.7857,1.0518,3.4112,3.42,4.7784,6.2794,3.6255,15.6988,1.8125,25.1185-1.8128s18.84-9.0626,25.12-12.6861a14.5972,14.5972,0,0,0,4.7075-4.5328,6.1127,6.1127,0,0,0,.8606-2.7189l.0108-.003C143.12,433.1371,143.1155,433.1125,143.1153,433.0879Z" style="fill:url(#linear-gradient-9)"/><path d="M184.8751,457.1966a4.9961,4.9961,0,0,0-.0482-.841c-.5237-5.5306-5.5288-10.9846-5.5288-13.5841l0-.0026h0l6.6978-174.0162H147.4734l6.7075,174.0162h0l0,.0026c0,5.8134-27.0444,19.4661-28.4716,30.5764a5.1828,5.1828,0,0,0-.0511.6642c-.0027.0777-.018.1566-.018.234l.0017,0c.0259,1.7856,1.0518,3.4111,3.42,4.7783,6.2794,3.6255,15.6988,1.8124,25.1184-1.8128s18.84-9.0627,25.12-12.6861a14.5974,14.5974,0,0,0,4.7074-4.5328,6.1123,6.1123,0,0,0,.8606-2.7188l.0108-.0031C184.8793,457.2457,184.8753,457.2212,184.8751,457.1966Z" style="fill:url(#linear-gradient-10)"/><path d="M89.3893,110.5837c12.293-34.8835,48.4789-9.67,58.0853-4.1238,0,0-23.2571-5.81-31.4139,14.2416L74.8792,221.9359a11.6688,11.6688,0,0,1-14.9476,6.5133h0a11.6689,11.6689,0,0,1-6.8667-14.7886L89.3893,110.5837" style="fill:url(#linear-gradient-11)"/><path d="M183.8045,127.4347l-45.9363-26.521a30.5129,30.5129,0,0,0-14.9813-3.5827,30.5129,30.5129,0,0,0-14.9813,3.5827c-3.834,2.2136-6.2055,5.2715-6.2055,8.6494l4.0141,135.0811c0,3.0707,2.1559,5.8507,5.6413,7.8631l41.7605,24.11a30.1034,30.1034,0,0,0,27.2386,0c3.4855-2.0123,5.6413-4.7923,5.6413-7.8631l4.0141-132.67C190.01,132.7063,187.6386,129.6483,183.8045,127.4347Z" style="fill:url(#linear-gradient-12)"/><path d="M201.4822,155.0917c-5.98-23.7122-17.6777-27.657-29.4123-34.4319,0,0-4.5846,20.1942,1.6729,41.9219L221.15,327.1927a11.5092,11.5092,0,0,0,14.06,7.9262h0a11.5093,11.5093,0,0,0,8.16-13.9257L201.4822,155.0917" style="fill:url(#linear-gradient-13)"/><path d="M130.2214,101.0543v21.7693c0,4.9848,6.9994,9.0257,15.6336,9.0257s15.6337-4.0409,15.6337-9.0257V101.0543Z" style="fill:url(#linear-gradient-14)"/><rect x="115.7767" y="31" width="60.1567" height="80.939" rx="30.0783" style="fill:url(#linear-gradient-15)"/><path d="M142.527,75.2456l-.0011-.0007A2.95,2.95,0,0,0,138.1012,77.8l0,5.11a8.85,8.85,0,0,0,4.4256,7.6644h0a2.95,2.95,0,0,0,4.425-2.5545V82.91A8.85,8.85,0,0,0,142.527,75.2456Z" style="fill:#45617f"/><path d="M122.4121,63.6326l-.0011-.0007a2.95,2.95,0,0,0-4.4248,2.5548l0,5.11a8.85,8.85,0,0,0,4.4256,7.6644h0a2.95,2.95,0,0,0,4.425-2.5545v-5.11A8.85,8.85,0,0,0,122.4121,63.6326Z" style="fill:#45617f"/></g></svg>