<svg xmlns="http://www.w3.org/2000/svg" xmlns:xlink="http://www.w3.org/1999/xlink" viewBox="0 0 512 512"><defs><linearGradient id="linear-gradient" x1="135.7008" y1="87.221" x2="364.8838" y2="484.1777" gradientUnits="userSpaceOnUse"><stop offset="0" stop-color="#8d3fa0"/><stop offset="0.3466" stop-color="#8a3c9d"/><stop offset="0.6249" stop-color="#803493"/><stop offset="0.8786" stop-color="#702682"/><stop offset="1" stop-color="#651d77"/></linearGradient><linearGradient id="linear-gradient-2" x1="178.8126" y1="9.5266" x2="321.7722" y2="257.1399" gradientUnits="userSpaceOnUse"><stop offset="0" stop-color="#acce20"/><stop offset="0.3166" stop-color="#a9cb1f"/><stop offset="0.5708" stop-color="#a0c11a"/><stop offset="0.8026" stop-color="#92b013"/><stop offset="1" stop-color="#7f9b0a"/></linearGradient><linearGradient id="linear-gradient-3" x1="304.8628" y1="118.8963" x2="327.2757" y2="157.7166" gradientUnits="userSpaceOnUse"><stop offset="0" stop-color="#ffc550"/><stop offset="1" stop-color="#e29700"/></linearGradient><linearGradient id="linear-gradient-4" x1="184.7558" y1="49.554" x2="207.1687" y2="88.3743" xlink:href="#linear-gradient-3"/></defs><g id="Friday_13th"><polygon points="370.388 229.072 370.388 481 381.802 474.41 381.802 222.482 370.388 229.072" style="fill:#651d77"/><polygon points="130.205 90.394 130.198 342.329 370.388 481 370.388 229.072 130.205 90.394" style="fill:url(#linear-gradient)"/><path d="M276.5437,281.4128c17.0479,9.8426,30.8679,33.78,30.8123,53.3691-.03,10.7459-4.2277,17.985-10.8323,20.7006,6.5676,10.32,10.71,22.3747,10.68,33.1206-.0556,19.5893-13.9659,27.5234-31.0138,17.6808s-30.8678-33.7868-30.8123-53.3761c.0135-4.7564,3.3788-6.6742,7.5181-4.2843a16.46,16.46,0,0,1,7.4693,12.9372c-.0286,10.0906,7.0923,22.4245,15.8737,27.4945s15.949.9855,15.9776-9.1051-7.0923-22.4244-15.8738-27.4944a16.46,16.46,0,0,1-7.4693-12.9374c.0135-4.7563,3.3788-6.6741,7.5181-4.2843,8.7816,5.07,15.949.9855,15.9776-9.1051s-7.0923-22.4244-15.8738-27.4944-15.9489-.9855-15.9776,9.105c-.0134,4.7564-3.3787,6.6742-7.518,4.2844a16.4591,16.4591,0,0,1-7.4693-12.9373C245.5855,279.4973,259.4959,271.57,276.5437,281.4128Z" style="fill:#ffefdc"/><path d="M217.14,247.116c.3986.2442.5642.3469.73.4637.1287.0813.2452.1768.3677.2687.1165.0814.233.17.3433.2547a14.821,14.821,0,0,1,1.1335,1.0214l.2572.2544c.1286.1378.2572.2826.3858.42a17.5872,17.5872,0,0,1,1.1751,1.4761c.11.1623.2264.3212.3365.4906.0734.1059.1406.2154.2079.3248.1883.2868.3628.59.5318.8928a16.601,16.601,0,0,1,1.7984,4.8285c.0241.141.06.289.0786.4265.06.4019.09.6591.1141.92.1056,1.4-.2813,98.6471-.2465,99.9406l9.37,5.41a16.4593,16.4593,0,0,1,7.4692,12.9372c-.0135,4.7564-3.3788,6.6813-7.5181,4.2915l-33.7277-19.4728a16.4718,16.4718,0,0,1-7.4693-12.9443c.0135-4.7564,3.3788-6.6742,7.5181-4.2844l9.37,5.41.2392-84.396-5.7379.35c-4.7815-.1632-8.2124-4.479-10.1826-9.2312-1.9994-5.3189-.6784-9.8073,2.9462-10.03.8481.0619,18.6321-1.4521,18.7549-.7824.0859.0214.1718.0428.2639.0747.35.1314.5461.2095.7424.2946C216.7168,246.8858,216.9253,246.9921,217.14,247.116Z" style="fill:#ffefdc"/><path d="M307.9613,216.1123a11.9755,11.9755,0,0,1,5.4339,9.4119c-.01,3.46-2.4585,4.8552-5.4694,3.1168l-6.813-3.9335L301,264.64l6.813,3.9335a11.9631,11.9631,0,0,1,5.4339,9.4048c-.01,3.46-2.4585,4.8553-5.4694,3.1169l-24.5293-14.162a11.9754,11.9754,0,0,1-5.4338-9.4118c.01-3.46,2.4583-4.8482,5.4693-3.11l6.8131,3.9335.1132-39.9326-6.8131-3.9335a11.9754,11.9754,0,0,1-5.4338-9.4118c.01-3.46,2.4583-4.8553,5.4694-3.1169Z" style="fill:#ffefdc"/><path d="M269.9383,249.2407c1.7889,3.8207,1.2688,7.4447-1.1593,8.1109a4.3122,4.3122,0,0,1-3.2414-.6434,11.5534,11.5534,0,0,1-4.3774-5.0611l-11.942-25.535-5.4272-3.1334-.0422,14.8752c-.01,3.46-2.4583,4.8552-5.4693,3.1168a11.9753,11.9753,0,0,1-5.4339-9.4118l.1487-52.4542c.01-3.46,2.4585-4.8552,5.4694-3.1169l13.626,7.867c10.5231,6.0755,19.05,20.8515,19.0156,32.9362-.0236,8.3008-4.0792,13.215-10.0258,13.5083Zm-17.9374-34.0641c4.5073,2.6022,8.1864.4986,8.201-4.6806s-3.64-11.51-8.1477-14.1125l-8.1744-4.72-.0533,18.793,8.1744,4.72" style="fill:#ffefdc"/><path d="M220.0667,165.3664a11.9752,11.9752,0,0,1,5.4339,9.4118c-.01,3.46-2.4584,4.8553-5.4694,3.1168l-21.8064-12.59-.0533,18.793,21.8064,12.59a11.9624,11.9624,0,0,1,5.4339,9.4048c-.01,3.46-2.4583,4.8552-5.4693,3.1168L198.136,196.62l-.0422,14.8752c-.01,3.46-2.4584,4.8552-5.4694,3.1168a11.9865,11.9865,0,0,1-5.4339-9.4118l.1487-52.4542c.01-3.46,2.4646-4.8517,5.4694-3.1169Z" style="fill:#ffefdc"/><polygon points="130.205 37.59 141.62 31 381.802 169.678 381.802 222.482 370.388 229.072 370.388 176.268 130.205 37.59" style="fill:#7f9b0a"/><polygon points="130.205 37.59 130.198 90.401 370.388 229.072 370.388 176.268 130.205 37.59" style="fill:url(#linear-gradient-2)"/><path d="M338.475,128.46a37.5661,37.5661,0,0,1-3.1435,14.3745l-9.4307-5.4274a25.805,25.805,0,0,0,1.827-8.9471c0-3.17-.86-5.5348-2.3106-6.3677-1.4241-.8329-3.9228-.4029-6.6632,1.1822a25.3183,25.3183,0,0,0-6.8246,6.0453,33.1025,33.1025,0,0,0-3.2509,4.7019,37.9834,37.9834,0,0,0-2.472,5.1855,26.35,26.35,0,0,0-1.8,8.92c0,3.17.86,5.5617,2.2837,6.3946,1.451.8329,3.9228.3762,6.6634-1.1822v-.0269c1.5046-.86,3.8959.5374,5.4005,3.1168a7.5673,7.5673,0,0,1,1.1015,3.7347,2.7351,2.7351,0,0,1-1.1015,2.4718,20.8993,20.8993,0,0,1-10.3443,3.0361,14.051,14.051,0,0,1-7.0932-1.8539c-4.8631-2.8211-7.6573-8.5171-7.6573-15.691a37.65,37.65,0,0,1,3.1435-14.3474,47.984,47.984,0,0,1,2.5525-5.1319,45.5157,45.5157,0,0,1,3.1435-4.7555,37.6064,37.6064,0,0,1,10.8817-9.9143c6.18-3.5735,12.5473-4.0035,17.41-1.2091C335.6808,115.5907,338.475,121.3136,338.475,128.46Z" style="fill:url(#linear-gradient-3)"/><path d="M218.375,59.1141a37.1242,37.1242,0,0,1-3.17,14.3745l-9.4038-5.4274a25.805,25.805,0,0,0,1.827-8.9471c0-3.1435-.86-5.5348-2.3106-6.3677s-3.9228-.376-6.6632,1.1822a26.7245,26.7245,0,0,0-6.8513,6.0453,33.1036,33.1036,0,0,0-3.2511,4.7019,34.9033,34.9033,0,0,0-2.445,5.1855,25.8061,25.8061,0,0,0-1.8271,8.9471c0,3.1435.86,5.5348,2.3108,6.3677a3.5675,3.5675,0,0,0,1.7463.4031,10.4187,10.4187,0,0,0,4.9438-1.5853c1.4777-.86,3.8959.5105,5.3736,3.09s1.4777,5.3467,0,6.2065A20.8988,20.8988,0,0,1,188.31,96.3264a13.9786,13.9786,0,0,1-7.093-1.8539c-4.8632-2.7944-7.6844-8.5171-7.6844-15.6641a37.23,37.23,0,0,1,3.1705-14.3743,47.9642,47.9642,0,0,1,2.5524-5.1319,45.5164,45.5164,0,0,1,3.1436-4.7555A37.2684,37.2684,0,0,1,193.28,44.6324c6.18-3.5735,12.5473-4.0035,17.41-1.2091C215.5808,46.2444,218.375,51.9673,218.375,59.1141Z" style="fill:url(#linear-gradient-4)"/></g></svg>