<svg xmlns="http://www.w3.org/2000/svg" xmlns:xlink="http://www.w3.org/1999/xlink" viewBox="0 0 512 512"><defs><linearGradient id="linear-gradient" x1="328.6286" y1="120.8037" x2="177.4263" y2="382.6937" gradientUnits="userSpaceOnUse"><stop offset="0" stop-color="#8d3fa0"/><stop offset="0.3466" stop-color="#8a3c9d"/><stop offset="0.6249" stop-color="#803493"/><stop offset="0.8786" stop-color="#702682"/><stop offset="1" stop-color="#651d77"/></linearGradient><linearGradient id="linear-gradient-2" x1="314.0726" y1="135.9338" x2="189.148" y2="352.3094" gradientUnits="userSpaceOnUse"><stop offset="0" stop-color="#ffc550"/><stop offset="1" stop-color="#e29700"/></linearGradient><linearGradient id="linear-gradient-3" x1="341.8982" y1="359.4149" x2="363.5052" y2="346.9401" gradientTransform="translate(223.8418 -129.034) rotate(30)" gradientUnits="userSpaceOnUse"><stop offset="0" stop-color="#4c677f"/><stop offset="0.0136" stop-color="#4b667e"/><stop offset="0.2987" stop-color="#3a556d"/><stop offset="0.6108" stop-color="#304b63"/><stop offset="1" stop-color="#2d4860"/></linearGradient><linearGradient id="linear-gradient-4" x1="333.958" y1="271.6529" x2="355.565" y2="259.1781" gradientTransform="translate(178.897 -136.8218) rotate(30)" xlink:href="#linear-gradient-3"/><linearGradient id="linear-gradient-5" x1="294.5776" y1="179.0587" x2="316.1845" y2="166.584" gradientTransform="translate(127.324 -129.5369) rotate(30)" xlink:href="#linear-gradient-3"/><linearGradient id="linear-gradient-6" x1="227.9646" y1="110.4546" x2="249.5716" y2="97.9798" gradientTransform="translate(84.0974 -105.4216) rotate(30)" xlink:href="#linear-gradient-3"/><linearGradient id="linear-gradient-7" x1="161.1424" y1="101.9086" x2="182.7494" y2="89.4338" gradientTransform="translate(70.872 -73.1554) rotate(30)" xlink:href="#linear-gradient-3"/><linearGradient id="linear-gradient-8" x1="121.3055" y1="148.7132" x2="142.9124" y2="136.2384" gradientTransform="translate(88.9371 -46.9663) rotate(30)" xlink:href="#linear-gradient-3"/><linearGradient id="linear-gradient-9" x1="112.8333" y1="226.9896" x2="134.4402" y2="214.5148" gradientTransform="translate(126.9403 -32.2432) rotate(30)" xlink:href="#linear-gradient-3"/></defs><g id="Horseshoe"><path d="M218.1726,326.8862a6.23,6.23,0,0,1-1.52,1.758,5.5209,5.5209,0,0,1-.634.44L180.47,349.74c3.8186-2.2191,4.6616-8.7395,1.7-15.966l-9.8131-23.9563c-12.3924-30.246-18.9056-61.8466-18.8191-91.3866.1008-35.5129,9.7554-63.0716,27.1912-77.5966a42.8872,42.8872,0,0,1,25.93-10.2814c-9.5032,13.0409-14.1647,29.9-16.2254,45.679-4.1716,34.4537,1.7076,69.6063,13.3219,102.1292,2.6225,7.4786,10.8794,27.1479,13.963,34.7563C219.4047,317.3974,220.5286,322.65,218.1726,326.8862Z" style="fill:#651d77"/><path d="M419.7422,335.8931C421.6737,241.2159,373.7409,127.4345,300.486,66.53c-26.881-21.92-61.3676-40.2823-97.0318-34.4292a72.36,72.36,0,0,0-18.183,5.6517c-3.8836,1.407-37.0791,21.4246-41.4567,23.7334,24.2232-14.3522,54.3086-11.6013,79.2492-.4969,35.7732,15.7912,64.4736,44.1557,87.65,75.1137,44.5524,60.5419,73.4385,140.0779,73.5464,215.5348-.1014,21.84-2.6063,43.8694-9.4855,64.6555-4.3618,13.1189-10.55,25.7143-19.1247,36.5971-1.9022,2.4618-2.2956,5.763-2.08,8.79l.8918,12.131a11.838,11.838,0,0,1-.0439,2.3065l-.0016.01a5.5936,5.5936,0,0,1-2.4544,4.2707l35.5456-20.6569a5.5781,5.5781,0,0,0,2.4546-4.2707l.0015-.01.0009-.0067c.3314-1.2573-.8172-12.8787-.8484-14.4309a16.4522,16.4522,0,0,1,.3612-5.101c.7006-3.1907,3.2661-5.4013,4.9765-8.0625a123.7017,123.7017,0,0,0,15.8652-32.219C416.6838,376.4182,419.3048,356.1,419.7422,335.8931Z" style="fill:#651d77"/><path d="M355.649,452.8924c-1.6211,2.0462-2.3488,5.13-2.0822,8.79l.8934,12.1259c.49,6.614-3.9555,8.8043-8.826,5.9944a16.4586,16.4586,0,0,1-4.6256-4.2148l-43.4814-56.2486c-5.5982-7.2481-7.2986-16.7225-3.797-21.1607l9.9211-12.5581c12.5221-15.8579,19.1939-39.85,19.2731-69.39.1009-35.5128-9.3663-74.1166-26.6581-108.6928-15.7858-31.5718-36.2693-55.7586-57.675-68.115-11.0451-6.3763-21.86-9.33-31.9321-8.8692a42.8872,42.8872,0,0,0-25.93,10.2814c-17.4358,14.525-27.09,42.0837-27.1912,77.5966-.0865,29.54,6.4267,61.1406,18.8191,91.3866l9.8131,23.9563c2.9612,7.2265,2.1182,13.7469-1.7,15.966a5.96,5.96,0,0,1-2.2047.7421L134.61,356.419a7.3636,7.3636,0,0,1-4.64-1.1239c-4.8633-2.81-9.28-10.1229-8.7611-16.1534l.9654-11.06a24.7838,24.7838,0,0,0-2.0246-11.16c-18.4084-44.908-28.063-91.2066-27.9477-133.9027.1513-51.6446,14.72-92.1721,41.0462-114.1109A73.1178,73.1178,0,0,1,179.677,51.6454c18.675-.3891,38.5605,5.4252,59.116,17.2917s40.4122,29,59.0152,50.91a353.0566,353.0566,0,0,1,46.1833,70.73c26.11,52.2138,40.4122,109.4133,40.2681,161.0579C384.1371,394.3383,374.2447,429.3468,355.649,452.8924Z" style="fill:url(#linear-gradient)"/><path d="M238.7275,92.4333c17.2319,9.9489,33.9167,24.3468,49.5855,42.7962a304.7465,304.7465,0,0,1,39.7749,61.005c23.1693,46.33,35.8568,97.329,35.7257,143.5959-.1086,38.3117-8.9242,69.6533-25.4974,90.634l-2.9409,3.7236c-.8931,1.1267-2.4242,1.1462-3.9881.2432a8.6865,8.6865,0,0,1-2.457-2.2277l-9.4018-12.168c-2.19-2.8314-2.8566-6.5361-1.4879-8.2713l2.941-3.7236c14.5523-18.4147,22.2932-46.0831,22.3894-80.0128.2367-83.4844-46.7353-178.6326-104.71-212.1043s-105.3317,7.2156-105.5683,90.7c-.0962,33.93,7.4626,70.4314,21.8586,105.5595l2.9149,7.1044c1.3545,3.3075.6689,6.2313-1.53,6.5291l-9.44,1.29a3.9573,3.9573,0,0,1-2.4627-.6127,10.1081,10.1081,0,0,1-3.9726-4.8393l-2.91-7.1018c-16.4-40.0178-25.01-81.42-24.901-119.7315.1312-46.2669,13.0659-82.4732,36.4217-101.9416a63.0832,63.0832,0,0,1,39.99-14.9525C204.7839,77.601,221.4957,82.4845,238.7275,92.4333Z" style="fill:url(#linear-gradient-2)"/><ellipse cx="352.7017" cy="353.1775" rx="12.4748" ry="21.6153" transform="translate(-129.3357 223.6677) rotate(-30)" style="fill:url(#linear-gradient-3)"/><ellipse cx="344.7615" cy="265.4155" rx="12.4748" ry="21.6153" transform="translate(-86.5185 207.9397) rotate(-30)" style="fill:url(#linear-gradient-4)"/><ellipse cx="305.3811" cy="172.8213" rx="12.4748" ry="21.6153" transform="translate(-45.4974 175.8442) rotate(-30)" style="fill:url(#linear-gradient-5)"/><ellipse cx="238.7681" cy="104.2172" rx="12.4748" ry="21.6153" transform="translate(-20.1197 133.3465) rotate(-30)" style="fill:url(#linear-gradient-6)"/><ellipse cx="171.9459" cy="95.6712" rx="12.4748" ry="21.6153" transform="translate(-24.7992 98.7905) rotate(-30)" style="fill:url(#linear-gradient-7)"/><ellipse cx="132.1089" cy="142.4758" rx="12.4748" ry="21.6153" transform="translate(-53.5387 85.1426) rotate(-30)" style="fill:url(#linear-gradient-8)"/><ellipse cx="123.6367" cy="220.7522" rx="12.4748" ry="21.6153" transform="translate(-93.8119 91.3936) rotate(-30)" style="fill:url(#linear-gradient-9)"/></g></svg>