<svg xmlns="http://www.w3.org/2000/svg" xmlns:xlink="http://www.w3.org/1999/xlink" viewBox="0 0 512 512"><defs><linearGradient id="linear-gradient" x1="177.1314" y1="170.7356" x2="334.8597" y2="443.9289" gradientUnits="userSpaceOnUse"><stop offset="0" stop-color="#acce20"/><stop offset="1" stop-color="#7f9b0a"/></linearGradient><linearGradient id="linear-gradient-2" x1="2647.266" y1="219.6122" x2="2612.0855" y2="280.5466" gradientTransform="matrix(-1, 0, 0, 1, 2684.6971, 0)" gradientUnits="userSpaceOnUse"><stop offset="0" stop-color="#8d3fa0"/><stop offset="1" stop-color="#651d77"/></linearGradient><linearGradient id="linear-gradient-3" x1="2630.2498" y1="171.3146" x2="2630.2498" y2="222.4793" gradientTransform="matrix(-1, 0, 0, 1, 2684.6971, 0)" gradientUnits="userSpaceOnUse"><stop offset="0" stop-color="#ffc550"/><stop offset="1" stop-color="#e29700"/></linearGradient><linearGradient id="linear-gradient-4" x1="2595.6684" y1="323.9921" x2="2554.4276" y2="395.4234" xlink:href="#linear-gradient-2"/><linearGradient id="linear-gradient-5" x1="2575.6221" y1="273.945" x2="2575.6221" y2="325.1097" xlink:href="#linear-gradient-3"/><linearGradient id="linear-gradient-6" x1="-83.6571" y1="369.4335" x2="-117.8806" y2="428.7104" gradientTransform="translate(410.7897)" xlink:href="#linear-gradient-2"/><linearGradient id="linear-gradient-7" x1="-100.1948" y1="321.4121" x2="-100.1948" y2="372.5768" gradientTransform="translate(410.7897)" xlink:href="#linear-gradient-3"/><linearGradient id="linear-gradient-8" x1="-219.5583" y1="276.3034" x2="-257.6095" y2="342.21" gradientTransform="translate(695.5509)" xlink:href="#linear-gradient-2"/><linearGradient id="linear-gradient-9" x1="-238.0099" y1="227.1771" x2="-238.0099" y2="278.3417" gradientTransform="translate(695.5509)" xlink:href="#linear-gradient-3"/><linearGradient id="linear-gradient-10" x1="2297.3768" y1="171.1034" x2="2264.9879" y2="227.2027" xlink:href="#linear-gradient-2"/><linearGradient id="linear-gradient-11" x1="2281.7564" y1="123.6116" x2="2281.7564" y2="174.7763" xlink:href="#linear-gradient-3"/><linearGradient id="linear-gradient-12" x1="2502.3933" y1="125.8374" x2="2463.0662" y2="193.9538" xlink:href="#linear-gradient-2"/><linearGradient id="linear-gradient-13" x1="2483.3038" y1="76.3427" x2="2483.3038" y2="127.5074" xlink:href="#linear-gradient-3"/></defs><g id="Magic_circle"><path d="M256.6193,435.6573c-59.8291,0-116.0528-13.437-158.314-37.8364-27.9141-16.1162-47.9526-36.2-57.9487-58.0806-9.6246-21.0664-9.793-43.3506-.4873-64.4448l.062-.1411.0708-.2652a3.9391,3.9391,0,0,1,.1489-.4892,3.3125,3.3125,0,0,1,.35-.61l.0928-.1353.07-.1484c9.98-21.3476,29.5547-40.9409,56.6084-56.6631,27.1968-15.8052,61.2461-27.2851,98.4663-33.1992l.14-.0269c.504-.1176.9375-.2089,1.4112-.2749.37-.0625.6728-.09.9756-.12.19-.018.3808-.0366.5713-.0586a382.3319,382.3319,0,0,1,56.5009-4.1626c59.8428,0,116.0782,13.44,158.3467,37.8433,27.9121,16.1147,47.9512,36.1982,57.9522,58.0791,9.6269,21.063,9.8027,43.3428.51,64.4311l-.0722.1636-.042.1734a2.2823,2.2823,0,0,1-.1494.4809l-.04.0781-.0332.0816a3.2189,3.2189,0,0,1-.3213.5425l-.0928.1357-.0693.1484c-9.9805,21.3472-29.5547,40.941-56.6084,56.6631-27.1982,15.8052-61.2471,27.2852-98.4668,33.1992l-.1387.0269c-.5078.1177-.9423.2095-1.4121.2749-.5166.0781-.98.1284-1.4062.1533l-.0908.0054-.09.0132A382.04,382.04,0,0,1,256.6193,435.6573ZM136.6959,396.42l6.5249,2.7339c33.1172,13.874,72.3281,21.208,113.3945,21.209h.0088c6.586,0,13.2461-.1968,19.7989-.585l6.6562-.3945L220.6827,383.358Zm216.9849-33.707-22.4043,49.02,4.0674-1.0532c21.582-5.5894,41.0009-13.3487,57.7158-23.0625,16.7842-9.7544,30.1933-21.1021,39.8545-33.7281l3.0263-3.9565ZM251.5743,378.5733l51.2246,29.5742,18.4454-40.3906Zm-122.3774,3.0381,69.6977-10.833-51.2231-29.5733ZM63.28,295.5923c-4.7964,28.0674,8.167,55.9371,36.502,78.4751l2,1.5909,22.0562-48.2134L63.7638,292.7608Zm119.6255-31.4765L155.857,323.3106l73.9029,42.668L329.0831,350.55,356.132,291.355l-73.9034-42.6679ZM361.546,345.5211l69.67-10.8164L379.9913,305.13Zm26.6045-58.3,60.0732,34.684.4844-2.8315c4.7969-28.0679-8.167-55.937-36.5019-78.4746l-2.001-1.5908ZM80.7994,279.9761l51.2246,29.5747L150.4689,269.16Zm232.2945-36.0888,51.2226,29.5732,18.4746-40.4062Zm-136.42-39.8858c-21.5761,5.5645-41.0044,13.3184-57.7456,23.0474-16.8115,9.7695-30.2119,21.124-39.83,33.7471l-3.0112,3.9521,82.22-12.7954,22.4322-49Zm14.0967,42.9224,69.67-10.8159-51.2246-29.5747Zm64.6016-52.6206c-6.5908,0-13.2549.1968-19.8067.5849l-6.6562.3946,62.3955,36.0249,83.9873-13.0615-6.5254-2.7339C335.6476,201.6373,296.4366,194.3033,255.3722,194.3033Z" style="fill:url(#linear-gradient)"/><path d="M54.4466,230.9244c10.11,0,18.305-4.7318,18.305-10.5688l0,2.2062v53.5261c0,5.837-8.1955,10.5687-18.3051,10.5687s-18.305-4.7317-18.305-10.5687V220.3567C36.1426,226.1931,44.3377,230.9244,54.4466,230.9244Z" style="fill:url(#linear-gradient-2)"/><path d="M54.4467,210.3569a30.443,30.443,0,0,0-14.9476,3.5748c-3.8254,2.2086-6.1915,5.26-6.1915,8.63v17.6445a5.5757,5.5757,0,0,0,4.5035,5.4716h0a3.7771,3.7771,0,0,0,4.5035-3.7066v-9.4043a2.5547,2.5547,0,0,1,3.2185-2.467l.0342.0092.1.0267a4.7015,4.7015,0,0,1,3.4853,4.5415v4.9077a5.2948,5.2948,0,0,0,5.2948,5.2948h0a5.2949,5.2949,0,0,0,5.2949-5.2948v-1.3139a5.947,5.947,0,0,1,4.2679-5.705l.0408-.012.08-.0236a2.8974,2.8974,0,0,1,3.7194,2.7784v11.5475a2.9218,2.9218,0,0,0,3.8679,2.7644h0a5.72,5.72,0,0,0,3.8678-5.4118V222.5619c0-3.37-2.366-6.4216-6.1914-8.63A30.4428,30.4428,0,0,0,54.4467,210.3569Z" style="fill:#651d77"/><path d="M38.9381,206.9547A54.6716,54.6716,0,0,1,51.23,172.86a4.1308,4.1308,0,0,1,6.427-.0194,54.7739,54.7739,0,0,1,12.2961,32.9915c.1828,8.5175-6.3766,16.3084-14.89,16.6358a15.5144,15.5144,0,0,1-16.126-15.5022Z" style="fill:url(#linear-gradient-3)"/><circle cx="54.4473" cy="206.9653" r="9" style="fill:#eefbff"/><path d="M109.0743,333.5547c10.11,0,18.305-4.7317,18.305-10.5687l0,2.2062v67.522c0,5.837-8.1954,10.5687-18.305,10.5687s-18.305-4.7317-18.305-10.5687V322.9871C90.77,328.8235,98.9655,333.5547,109.0743,333.5547Z" style="fill:url(#linear-gradient-4)"/><path d="M109.0744,312.9873a30.4426,30.4426,0,0,0-14.9475,3.5748c-3.8254,2.2086-6.1915,5.26-6.1915,8.63v15.4347a5.5756,5.5756,0,0,0,4.5035,5.4716h0a3.7771,3.7771,0,0,0,4.5034-3.7066v-3.5113a2.5547,2.5547,0,0,1,3.2185-2.467l.0343.0092.1.0268a4.7014,4.7014,0,0,1,3.4854,4.5414v2.6978a5.2948,5.2948,0,0,0,5.2948,5.2949h0a5.2949,5.2949,0,0,0,5.2948-5.2949v-4.997a5.9469,5.9469,0,0,1,4.268-5.705l.0407-.012.08-.0235a2.8974,2.8974,0,0,1,3.7195,2.7783v18.1771a2.9218,2.9218,0,0,0,3.8678,2.7644h0a5.72,5.72,0,0,0,3.8679-5.4118V325.1922c0-3.37-2.3661-6.4215-6.1915-8.63A30.4426,30.4426,0,0,0,109.0744,312.9873Z" style="fill:#651d77"/><path d="M93.5658,309.5851A54.671,54.671,0,0,1,105.8581,275.49a4.1307,4.1307,0,0,1,6.4269-.0194,54.7733,54.7733,0,0,1,12.2961,32.9915c.1829,8.5175-6.3765,16.3084-14.89,16.6358a15.5144,15.5144,0,0,1-16.126-15.5022Z" style="fill:url(#linear-gradient-5)"/><circle cx="109.0751" cy="309.5957" r="9" style="fill:#eefbff"/><path d="M310.5956,381.0219c-10.1095,0-18.305-4.7318-18.305-10.5688l0,2.2062v51.3162c0,5.837,8.1955,10.5688,18.305,10.5688s18.3051-4.7318,18.3051-10.5688V370.4542C328.9,376.2906,320.7045,381.0219,310.5956,381.0219Z" style="fill:url(#linear-gradient-6)"/><path d="M310.5955,360.4545a30.443,30.443,0,0,1,14.9476,3.5747c3.8254,2.2086,6.1915,5.26,6.1915,8.63v17.6445a5.5756,5.5756,0,0,1-4.5035,5.4716h0a3.7771,3.7771,0,0,1-4.5035-3.7066v-9.4043a2.5547,2.5547,0,0,0-3.2185-2.467l-.0342.0092-.1.0268a4.7014,4.7014,0,0,0-3.4853,4.5414v4.9077a5.2948,5.2948,0,0,1-5.2948,5.2948h0a5.2948,5.2948,0,0,1-5.2949-5.2948v-1.3139a5.947,5.947,0,0,0-4.2679-5.705l-.0408-.012-.08-.0235a2.8973,2.8973,0,0,0-3.7194,2.7783v11.5475a2.9218,2.9218,0,0,1-3.8679,2.7644h0a5.72,5.72,0,0,1-3.8678-5.4118V372.6594c0-3.37,2.366-6.4216,6.1914-8.63A30.4428,30.4428,0,0,1,310.5955,360.4545Z" style="fill:#651d77"/><path d="M326.1041,357.0522a54.6719,54.6719,0,0,0-12.2922-34.0951,4.1308,4.1308,0,0,0-6.427-.0194,54.7739,54.7739,0,0,0-12.2961,32.9915c-.1828,8.5175,6.3766,16.3084,14.89,16.6358a15.5144,15.5144,0,0,0,16.126-15.5021Z" style="fill:url(#linear-gradient-7)"/><circle cx="310.5949" cy="357.0628" r="9" style="fill:#eefbff"/><path d="M457.5418,286.7868c-10.11,0-18.305-4.7317-18.305-10.5687l0,2.2062V338.58c0,5.837,8.1954,10.5687,18.305,10.5687s18.305-4.7317,18.305-10.5687V276.2192C475.8457,282.0556,467.6506,286.7868,457.5418,286.7868Z" style="fill:url(#linear-gradient-8)"/><path d="M457.5417,266.2194a30.4426,30.4426,0,0,1,14.9475,3.5748c3.8254,2.2086,6.1915,5.26,6.1915,8.63v17.6446a5.5757,5.5757,0,0,1-4.5035,5.4716h0a3.7771,3.7771,0,0,1-4.5034-3.7067V288.43a2.5548,2.5548,0,0,0-3.2185-2.467l-.0343.0092-.1.0267a4.7015,4.7015,0,0,0-3.4854,4.5415v4.9077a5.2948,5.2948,0,0,1-5.2948,5.2948h0a5.2948,5.2948,0,0,1-5.2948-5.2948v-1.3139a5.9468,5.9468,0,0,0-4.268-5.705l-.0407-.012-.08-.0236a2.8975,2.8975,0,0,0-3.7195,2.7784v11.5475a2.9217,2.9217,0,0,1-3.8678,2.7643h0a5.72,5.72,0,0,1-3.8678-5.4118V278.4243c0-3.37,2.3661-6.4215,6.1915-8.63A30.4426,30.4426,0,0,1,457.5417,266.2194Z" style="fill:#651d77"/><path d="M473.05,262.8171a54.6707,54.6707,0,0,0-12.2922-34.095,4.1306,4.1306,0,0,0-6.4269-.0194,54.773,54.773,0,0,0-12.2961,32.9915c-.1829,8.5175,6.3765,16.3084,14.89,16.6358a15.5145,15.5145,0,0,0,16.1261-15.5022Z" style="fill:url(#linear-gradient-9)"/><circle cx="457.541" cy="262.8278" r="9" style="fill:#eefbff"/><path d="M402.94,183.2214c10.11,0,18.305-4.7318,18.305-10.5688l0,2.2062v47.0794c0,5.837-8.1955,10.5687-18.305,10.5687s-18.305-4.7317-18.305-10.5687V172.6537C384.6361,178.49,392.8311,183.2214,402.94,183.2214Z" style="fill:url(#linear-gradient-10)"/><path d="M402.94,162.6539a30.443,30.443,0,0,0-14.9476,3.5748c-3.8254,2.2086-6.1914,5.26-6.1914,8.63v17.6445a5.5755,5.5755,0,0,0,4.5034,5.4716h0a3.7771,3.7771,0,0,0,4.5035-3.7066v-9.4043a2.5547,2.5547,0,0,1,3.2185-2.467l.0343.0092.1.0268a4.7013,4.7013,0,0,1,3.4853,4.5414v4.9077a5.2948,5.2948,0,0,0,5.2948,5.2948h0a5.2948,5.2948,0,0,0,5.2948-5.2948v-1.3139a5.947,5.947,0,0,1,4.2679-5.705l.0408-.012.08-.0235a2.8973,2.8973,0,0,1,3.7194,2.7783v11.5475a2.9218,2.9218,0,0,0,3.8679,2.7644h0a5.72,5.72,0,0,0,3.8679-5.4118V174.8589c0-3.37-2.3661-6.4216-6.1915-8.63A30.4428,30.4428,0,0,0,402.94,162.6539Z" style="fill:#651d77"/><path d="M387.4315,159.2517a54.6719,54.6719,0,0,1,12.2922-34.0951,4.1308,4.1308,0,0,1,6.427-.0194,54.7739,54.7739,0,0,1,12.2961,32.9915c.1829,8.5175-6.3766,16.3084-14.89,16.6358a15.5144,15.5144,0,0,1-16.126-15.5021Z" style="fill:url(#linear-gradient-11)"/><circle cx="402.9407" cy="159.2623" r="9" style="fill:#eefbff"/><path d="M201.3926,135.9525c10.11,0,18.305-4.7318,18.305-10.5687l0,2.2061v63.1023c0,5.837-8.1955,10.5687-18.305,10.5687s-18.305-4.7317-18.305-10.5687V125.3849C183.0887,131.2212,191.2837,135.9525,201.3926,135.9525Z" style="fill:url(#linear-gradient-12)"/><path d="M201.3927,115.3851a30.4437,30.4437,0,0,0-14.9475,3.5747c-3.8254,2.2087-6.1915,5.26-6.1915,8.63v13.9614a5.5755,5.5755,0,0,0,4.5035,5.4716h0a3.7771,3.7771,0,0,0,4.5034-3.7066v-5.7212a2.5548,2.5548,0,0,1,3.2185-2.467l.0343.0093.1.0267a4.7014,4.7014,0,0,1,3.4853,4.5414v10.8007a5.2949,5.2949,0,0,0,5.2949,5.2949h0a5.2949,5.2949,0,0,0,5.2948-5.2949v-7.2069a5.947,5.947,0,0,1,4.2679-5.705l.0408-.012.08-.0235a2.8974,2.8974,0,0,1,3.7195,2.7783v6.3911a2.9218,2.9218,0,0,0,3.8678,2.7644h0a5.72,5.72,0,0,0,3.8679-5.4118V127.59c0-3.37-2.3661-6.4215-6.1915-8.63A30.4437,30.4437,0,0,0,201.3927,115.3851Z" style="fill:#651d77"/><path d="M185.8841,111.9828a54.6712,54.6712,0,0,1,12.2923-34.0951,4.1307,4.1307,0,0,1,6.4269-.0194A54.7733,54.7733,0,0,1,216.8994,110.86c.1829,8.5176-6.3766,16.3085-14.89,16.6358a15.5144,15.5144,0,0,1-16.126-15.5021Z" style="fill:url(#linear-gradient-13)"/><circle cx="201.3934" cy="111.9935" r="9" style="fill:#eefbff"/></g></svg>