<svg xmlns="http://www.w3.org/2000/svg" xmlns:xlink="http://www.w3.org/1999/xlink" viewBox="0 0 512 512"><defs><linearGradient id="linear-gradient" x1="1681.4086" y1="-664.5022" x2="1728.9673" y2="-616.9436" gradientTransform="matrix(-1, 0, 0, 1, 1813.1473, 922.1604)" gradientUnits="userSpaceOnUse"><stop offset="0.2" stop-color="#ffc550"/><stop offset="0.3593" stop-color="#fcc047"/><stop offset="0.6191" stop-color="#f3b22f"/><stop offset="0.9452" stop-color="#e59b07"/><stop offset="1" stop-color="#e29700"/></linearGradient><linearGradient id="linear-gradient-2" x1="1692.73" y1="-617.9049" x2="1717.6458" y2="-592.9891" gradientTransform="matrix(-0.5, 0.866, 0.866, 0.5, 1515.4356, -874.9372)" gradientUnits="userSpaceOnUse"><stop offset="0" stop-color="#ffc550"/><stop offset="0.0685" stop-color="#fcc149"/><stop offset="0.4762" stop-color="#eeaa21"/><stop offset="0.8009" stop-color="#e59c09"/><stop offset="1" stop-color="#e29700"/></linearGradient><linearGradient id="linear-gradient-3" x1="323.7497" y1="-596.5231" x2="323.7497" y2="-393.8111" gradientTransform="translate(529.7868 832.2567) rotate(-60)" gradientUnits="userSpaceOnUse"><stop offset="0.2" stop-color="#ffc550"/><stop offset="0.3219" stop-color="#f5b636"/><stop offset="0.4668" stop-color="#eda81e"/><stop offset="0.6211" stop-color="#e79f0d"/><stop offset="0.7899" stop-color="#e39903"/><stop offset="1" stop-color="#e29700"/></linearGradient><linearGradient id="linear-gradient-4" x1="1653.3375" y1="-565.7591" x2="1754.9015" y2="-507.1211" gradientTransform="matrix(-0.5, 0.866, 0.866, 0.5, 1515.4356, -874.9372)" gradientUnits="userSpaceOnUse"><stop offset="0.6" stop-color="#ffc550"/><stop offset="0.6498" stop-color="#fcc047"/><stop offset="0.731" stop-color="#f3b22f"/><stop offset="0.8329" stop-color="#e59b07"/><stop offset="0.85" stop-color="#e29700"/></linearGradient><linearGradient id="linear-gradient-5" x1="224.5354" y1="-621.8618" x2="224.5354" y2="-489.6526" xlink:href="#linear-gradient-3"/><linearGradient id="linear-gradient-6" x1="1649.5218" y1="-377.9404" x2="1703.7346" y2="-377.9404" gradientTransform="matrix(-0.5, 0.866, 0.866, 0.5, 1515.4356, -874.9372)" gradientUnits="userSpaceOnUse"><stop offset="0.6" stop-color="#ffc550"/><stop offset="1" stop-color="#e29700"/></linearGradient><linearGradient id="linear-gradient-7" x1="1687.0456" y1="-399.6031" x2="1741.2583" y2="-399.6031" gradientTransform="matrix(-0.5, 0.866, 0.866, 0.5, 1515.4356, -874.9372)" gradientUnits="userSpaceOnUse"><stop offset="0" stop-color="#ffc550"/><stop offset="0.1464" stop-color="#fdc24a"/><stop offset="0.338" stop-color="#f7b83a"/><stop offset="0.5537" stop-color="#eda91f"/><stop offset="0.75" stop-color="#e29700"/></linearGradient><linearGradient id="linear-gradient-8" x1="-532.3064" y1="290.1429" x2="-482.477" y2="376.4499" gradientTransform="matrix(-1, 0, 0, 1, -172.0663, 0)" gradientUnits="userSpaceOnUse"><stop offset="0" stop-color="#acce20"/><stop offset="1" stop-color="#7f9b0a"/></linearGradient><linearGradient id="linear-gradient-9" x1="-437.2985" y1="235.2917" x2="-387.4691" y2="321.5986" xlink:href="#linear-gradient-8"/><linearGradient id="linear-gradient-10" x1="-342.2906" y1="180.4404" x2="-292.4613" y2="266.7474" xlink:href="#linear-gradient-8"/></defs><g id="Out_of_body_experience"><rect x="80.9325" y="245.0737" width="54.0537" height="72.7275" rx="27.0268" transform="translate(-189.7523 234.2143) rotate(-60)" style="fill:url(#linear-gradient)"/><path d="M123.9578,290.6741c-3.8792,6.7189-3.8793,13.9811,0,16.2206l16.94,9.78,14.0476-24.3312-16.94-9.78C134.1261,280.324,127.8369,283.9553,123.9578,290.6741Z" style="fill:url(#linear-gradient-2)"/><path d="M198.7131,274.5245c-21.1386-6-29.4638,1.3305-40.0079,7.4182a84.0339,84.0339,0,0,0,33.3737,17.5326l159.2647,39.5135a10.1716,10.1716,0,0,0,12.28-7.2587h0a10.1717,10.1717,0,0,0-7.0527-12.399L198.7131,274.5245" style="fill:url(#linear-gradient-3)"/><path d="M117.7648,332.9117l1.0773-1.0145c-.1281-.063-.2628-.1088-.3873-.1806-2.6285-1.5176-3.9427-4.7369-3.9427-8.7149a29.7548,29.7548,0,0,1,13.4614-23.3159l41.2757-23.8307c3.4451-1.9891,6.89-2.4606,9.5187-.943a7.2006,7.2006,0,0,1,2.9645,3.4552l97.7812,60.4687h0l0,0c2.3895,1.38,3.5843,4.3063,3.5842,7.9226a27.0484,27.0484,0,0,1-12.2375,21.1961l-.0007,0-37.5227,21.664c-3.1319,1.8082-6.2638,2.2367-8.6533.8571l0,0Z" style="fill:url(#linear-gradient-4)"/><path d="M113.7181,341.7549c-21.6222-25.2382,14.2554-42.069,22.8872-47.0526,0,0-14.97,15.4876-3.0311,30.8436l66.56,85.6111a10.2416,10.2416,0,0,1-1.6089,14.22h0a10.2415,10.2415,0,0,1-14.2542-1.2705l-70.5527-82.3516" style="fill:url(#linear-gradient-5)"/><path d="M400.6286,441.7822l0,0L262.206,368.8136c-4.7793-2.7594-4.7793-11.707,0-19.9851s12.5281-12.7518,17.3075-9.9925l.0093.0065,132.39,83.3945,0,0,.0021.0009c1.8247,1.0535,9.18-23.7961,21.03-17.4478-1.3686-.68-3.0339-.5779-5.0721.5989-5.6424,3.2577-8.4633,11.4019-9.8744,20.3607s-1.4119,18.7321-1.4138,25.2471a13.1152,13.1152,0,0,0,1.4122,5.7,5.6449,5.6449,0,0,0,1.4962,1.7242c-8.9694-5.6246-12.19-12.7851-18.8627-16.6373Z" style="fill:url(#linear-gradient-6)"/><path d="M427.8711,457.5109c-5.6412,3.257-8.4628,1.6285-9.8741-.8142a13.1158,13.1158,0,0,1-1.4123-5.7c.002-6.5151.0029-16.2883,1.4139-25.2471s4.2321-17.1032,9.8744-20.3608,8.464,1.6284,9.8749,8.9577,1.4109,17.1019,1.41,23.6176a24.8105,24.8105,0,0,1-1.4125,7.3305A22.1545,22.1545,0,0,1,427.8711,457.5109Z" style="fill:#e29700"/><path d="M363.1064,463.4473l0,0L224.6837,390.4787c-4.7793-2.7593-4.7793-11.707,0-19.985s12.5282-12.7518,17.3075-9.9924l.0093.0065,132.39,83.3944v0l.002.001c1.8246,1.0534,9.18-23.7961,21.03-17.4478-1.3686-.68-3.034-.5779-5.0721.5989-5.6424,3.2575-8.4634,11.4018-9.8744,20.3607s-1.4119,18.7319-1.4139,25.2471a13.1147,13.1147,0,0,0,1.4123,5.7,5.6432,5.6432,0,0,0,1.4962,1.7241c-8.9694-5.6247-12.19-12.7852-18.8627-16.6374Z" style="fill:url(#linear-gradient-7)"/><path d="M390.3488,479.1761c-5.6412,3.2569-8.4628,1.6285-9.8741-.8142a13.116,13.116,0,0,1-1.4123-5.7c.002-6.5152.0029-16.2883,1.4139-25.2471s4.232-17.1032,9.8744-20.3608,8.464,1.6284,9.8748,8.9577,1.4109,17.1019,1.41,23.6175a24.8109,24.8109,0,0,1-1.4125,7.3306A22.155,22.155,0,0,1,390.3488,479.1761Z" style="fill:#e29700"/><path d="M122.3106,259.1254h0a4.3454,4.3454,0,0,0-4.3461,0l-6.521,3.7647a1.4488,1.4488,0,0,0,0,2.5094l.0005,0,.0008,0a4.3456,4.3456,0,0,0,4.3453,0l6.5207-3.7648a1.4488,1.4488,0,0,0,0-2.51Z" style="fill:#45617f"/><path d="M104.2367,269.5607h0a4.3454,4.3454,0,0,0-4.3461,0L93.37,273.325a1.4488,1.4488,0,0,0,0,2.51l.0005,0,.0008,0a4.3456,4.3456,0,0,0,4.3453,0l6.5208-3.7648a1.4488,1.4488,0,0,0,0-2.51Z" style="fill:#45617f"/><path d="M331.7485,273.6933c-.9-.52-1.8015-.526-2.3194.2034-3.9746,5.5671-11.95,16.7974-15.925,22.3747-1.0357,1.4587.2422,4.76,2.302,5.9489l9.0929,5.25a57.5861,57.5861,0,0,0,5.4755,12.3807c2.4385,4.4371,3.9034,7.1065,3.8915,11.294-.0119,4.1976-1.4871,5.17-3.9428,6.781-2.8708,1.8784-6.8016,4.4617-6.8272,13.4942-.0256,9.0223,3.8778,16.1288,6.7285,21.3206,2.4386,4.427,3.9034,7.0964,3.8915,11.294a11.3523,11.3523,0,0,0,5.3282,9.1778c2.6252,1.5157,5.2584.9969,5.3756-2.9979.0256-9.0325-3.8866-16.134-6.7373-21.3258-2.43-4.432-3.9034-7.1065-3.8915-11.2939.0119-4.1977,1.4959-5.1645,3.9427-6.7811,2.8708-1.8783,6.8105-4.4566,6.8361-13.4891-.0781-9.7913-4.08-16.4176-7.404-22.5413l9.9116,5.7224c2.06,1.1892,3.3522-.6278,2.3281-3.2757l-15.7463-40.66A5.7472,5.7472,0,0,0,331.7485,273.6933Z" style="fill:url(#linear-gradient-8)"/><path d="M236.7406,218.842c-.9-.52-1.8015-.526-2.3194.2034-3.9745,5.5671-11.95,16.7974-15.925,22.3747-1.0357,1.4587.2422,4.76,2.302,5.9489l9.0929,5.25A57.5839,57.5839,0,0,0,235.3666,265c2.4385,4.4371,3.9034,7.1065,3.8915,11.294-.0119,4.1976-1.4871,5.17-3.9428,6.781-2.8708,1.8784-6.8016,4.4617-6.8272,13.4942-.0256,9.0223,3.8778,16.1288,6.7285,21.3206,2.4386,4.427,3.9035,7.0964,3.8916,11.294a11.3518,11.3518,0,0,0,5.3281,9.1778c2.6253,1.5157,5.2584.9969,5.3757-2.9979.0256-9.0325-3.8866-16.1339-6.7374-21.3258-2.43-4.432-3.9034-7.1065-3.8915-11.2939.0119-4.1976,1.4959-5.1645,3.9427-6.7811,2.8708-1.8783,6.81-4.4566,6.8361-13.4891-.078-9.7913-4.08-16.4176-7.404-22.5413l9.9116,5.7224c2.06,1.1892,3.3522-.6278,2.3281-3.2757l-15.7463-40.66A5.7472,5.7472,0,0,0,236.7406,218.842Z" style="fill:url(#linear-gradient-9)"/><path d="M141.7327,163.9907c-.9-.52-1.8015-.526-2.3193.2034-3.9746,5.5672-11.95,16.7974-15.9251,22.3747-1.0357,1.4587.2423,4.76,2.302,5.9489l9.0929,5.25a57.5888,57.5888,0,0,0,5.4755,12.3807c2.4385,4.4372,3.9034,7.1065,3.8915,11.294-.0119,4.1976-1.4871,5.17-3.9428,6.781-2.8707,1.8784-6.8016,4.4618-6.8272,13.4942-.0256,9.0223,3.8778,16.1288,6.7285,21.3206,2.4386,4.4271,3.9035,7.0964,3.8916,11.294a11.3518,11.3518,0,0,0,5.3281,9.1778c2.6253,1.5157,5.2584.9969,5.3757-2.9979.0256-9.0325-3.8866-16.1339-6.7374-21.3258-2.43-4.432-3.9033-7.1064-3.8915-11.2939.0119-4.1976,1.4959-5.1645,3.9427-6.7811,2.8709-1.8783,6.8105-4.4566,6.8361-13.489-.078-9.7914-4.08-16.4177-7.404-22.5414l9.9116,5.7225c2.06,1.1892,3.3522-.6279,2.3281-3.2758l-15.7463-40.66A5.7472,5.7472,0,0,0,141.7327,163.9907Z" style="fill:url(#linear-gradient-10)"/><path d="M411.9149,203.5005l-.002-.0009,0,0L279.5245,120.1059l-.0106-.0074,0,0h0l0,0L231.8016,90.5929l119.5421,29.6583a10.1718,10.1718,0,0,0,5.2267-19.6578L198.7132,55.7869c-11.77-3.3409-19.5654-2.5466-25.9854-.1374a14.5465,14.5465,0,0,0-3.4786,1.468l-.4728.273c-3.4648,1.7385-6.6523,3.8406-10.0712,5.8146h0l-10.8876,6.286-4.75-2.742a27.01,27.01,0,0,0-13.5092-22.7867l-16.1721-9.337a27.027,27.027,0,0,0-36.9194,9.8925v0A27.0267,27.0267,0,0,0,86.36,81.4372l16.172,9.337a26.944,26.944,0,0,0,9.4262,3.3094c-6.0051,7.6829-8.091,17.4352,1.76,28.9337l70.5526,82.3516a10.2417,10.2417,0,0,0,14.2543,1.27h0a10.2415,10.2415,0,0,0,1.6089-14.22l-45.3283-58.3027,69.8638,37.6144.0144.01L363.1062,244.71l0,0,.0018.0014c6.6723,3.8522,9.8933,11.0127,18.8626,16.6374a5.6462,5.6462,0,0,1-1.4963-1.7241,13.1155,13.1155,0,0,1-1.4122-5.7c.002-6.5152.0029-16.2883,1.414-25.2472a45.4535,45.4535,0,0,1,4.201-14.0414l15.9512,8.4087v0l.002.0013c6.6723,3.8523,9.8933,11.0128,18.8628,16.6373a5.6432,5.6432,0,0,1-1.4962-1.7241,13.1132,13.1132,0,0,1-1.4125-5.7c.0021-6.515.003-16.2883,1.414-25.2471s4.2319-17.103,9.8745-20.3607c2.038-1.1768,3.7034-1.2786,5.0719-.5989C421.0955,179.7044,413.74,204.5539,411.9149,203.5005Zm-37.5223,21.6653-.002-.0011v0L261.971,154.35l3.9816-2.2988L382.01,213.23C377.9716,218.7726,375.3767,225.7339,374.3926,225.1658Z" style="fill:#8d3fa0"/><path d="M427.8711,238.7733c-5.6412,3.2569-8.4628,1.6285-9.8741-.8142a13.116,13.116,0,0,1-1.4123-5.7c.002-6.5152.0029-16.2883,1.4139-25.2471s4.2321-17.1032,9.8744-20.3608,8.464,1.6284,9.8749,8.9577,1.4109,17.1019,1.41,23.6175a24.8109,24.8109,0,0,1-1.4125,7.3306A22.1556,22.1556,0,0,1,427.8711,238.7733Z" style="fill:#7d288f"/><path d="M390.3488,260.4385c-5.6412,3.2569-8.4628,1.6285-9.8741-.8142a13.116,13.116,0,0,1-1.4123-5.7c.002-6.5152.0029-16.2883,1.4139-25.2471s4.232-17.1032,9.8744-20.3608,8.464,1.6284,9.8748,8.9577,1.4109,17.1019,1.41,23.6175a24.81,24.81,0,0,1-1.4125,7.3305A22.1548,22.1548,0,0,1,390.3488,260.4385Z" style="fill:#7d288f"/><path d="M123.3181,47.2439l.0011-.0007a2.8626,2.8626,0,0,0,0-4.9582l-4.2949-2.4795a8.5886,8.5886,0,0,0-8.5887,0h0a2.8627,2.8627,0,0,0,0,4.9584l4.2946,2.4795A8.5886,8.5886,0,0,0,123.3181,47.2439Z" style="fill:#ffefdc"/><path d="M105.2442,57.6792l.001-.0006a2.8627,2.8627,0,0,0,0-4.9583l-4.2949-2.48a8.5886,8.5886,0,0,0-8.5887.0005l0,0a2.8626,2.8626,0,0,0,0,4.9583l4.2946,2.48A8.5887,8.5887,0,0,0,105.2442,57.6792Z" style="fill:#ffefdc"/></g></svg>