<svg xmlns="http://www.w3.org/2000/svg" xmlns:xlink="http://www.w3.org/1999/xlink" viewBox="0 0 512 512"><defs><linearGradient id="linear-gradient" x1="156.5305" y1="141.944" x2="286.8563" y2="202.7159" gradientTransform="translate(-1.4635 -1.3607)" gradientUnits="userSpaceOnUse"><stop offset="0.5" stop-color="#8d3fa0"/><stop offset="0.5579" stop-color="#853998"/><stop offset="0.7697" stop-color="#6e2480"/><stop offset="0.9" stop-color="#651d77"/></linearGradient><linearGradient id="linear-gradient-2" x1="210.2899" y1="159.6897" x2="355.2818" y2="227.3006" xlink:href="#linear-gradient"/><linearGradient id="linear-gradient-3" x1="264.0507" y1="177.4323" x2="423.7104" y2="251.8829" xlink:href="#linear-gradient"/><linearGradient id="linear-gradient-4" x1="308.0432" y1="216.1287" x2="453.0304" y2="283.7373" xlink:href="#linear-gradient"/><linearGradient id="linear-gradient-5" x1="112.4965" y1="330.1587" x2="373.7215" y2="400.1538" gradientTransform="translate(-1.4635 -1.3607)" gradientUnits="userSpaceOnUse"><stop offset="0.15" stop-color="#8d3fa0"/><stop offset="0.2729" stop-color="#853998"/><stop offset="0.7231" stop-color="#6e2480"/><stop offset="1" stop-color="#651d77"/></linearGradient><linearGradient id="linear-gradient-6" x1="96.119" y1="248.2763" x2="268.3626" y2="248.2763" gradientUnits="userSpaceOnUse"><stop offset="0" stop-color="#acce20"/><stop offset="1" stop-color="#7f9b0a"/></linearGradient><linearGradient id="linear-gradient-7" x1="205.9342" y1="229.7682" x2="275.0857" y2="229.7682" gradientTransform="translate(-0.6684 2.4983)" xlink:href="#linear-gradient-6"/></defs><g id="Palmistry"><path d="M305.3068,123.7739a34.5574,34.5574,0,0,0-47.2063-12.6489L135.9061,181.6739l34.5574,59.8552L292.6579,170.98A34.5574,34.5574,0,0,0,305.3068,123.7739Z" style="fill:url(#linear-gradient)"/><path d="M378.6158,137.8858a34.5575,34.5575,0,0,0-47.2064-12.6488L184.782,209.8923l34.5574,59.8552,146.6275-84.6553A34.5574,34.5574,0,0,0,378.6158,137.8858Z" style="fill:url(#linear-gradient-2)"/><path d="M451.9294,151.9923a34.5575,34.5575,0,0,0-47.2063-12.6489L233.6578,238.1109l34.5574,59.8551,171.0653-98.7673A34.5575,34.5575,0,0,0,451.9294,151.9923Z" style="fill:url(#linear-gradient-3)"/><path d="M476.3644,194.3227a34.5574,34.5574,0,0,0-47.2062-12.6488c-.0139.008-.0262.0179-.04.0259L282.5354,266.3312l34.5575,59.8552L463.72,241.5291l-.0013-.0023A34.5573,34.5573,0,0,0,476.3644,194.3227Z" style="fill:url(#linear-gradient-4)"/><path d="M135.9061,181.6739C55.4767,228.11,31.0276,253.9023,31.0012,310.2929c0,.03-.0012.0582-.0012.0877v.0025l0,0c.0042,14.44,4.7761,31.6319,14.3162,48.1559,9.5435,16.53,22.0511,29.2613,34.5588,36.4838l.0008.0014c.0144.0082.03.015.0441.0233,1.15.663,2.2994,1.2638,3.4474,1.8323,48.8545,24.872,121.3925-5.8367,233.7255-70.6936l34.5578-19.9524Z" style="fill:#8d3fa0"/><path d="M343.9334,336.3917c-.016,0-.0315.0024-.0475.0024l-87.9921.0007.02-.0031a86.8212,86.8212,0,0,0-134.8666-44.9676l0,114.0865,222.89-.0016v-.0027a34.5573,34.5573,0,0,0-.0043-69.1146Z" style="fill:url(#linear-gradient-5)"/><path d="M148.2025,210.3008a15.007,15.007,0,0,0-15.0034.0021h0a4.999,4.999,0,0,0,.0012,8.6593l39.7235,22.9192A119.01,119.01,0,0,0,101.6872,265.32l-3.3987,2.5206a5.3657,5.3657,0,0,0,.5135,8.9566h0a12.2586,12.2586,0,0,0,13.1812-.5542,106.3925,106.3925,0,0,1,70.2773-18.97,95.899,95.899,0,0,1,39.3944,12.724L249.83,286.2538a14.994,14.994,0,0,0,14.9964-.0062h0a4.9991,4.9991,0,0,0-.0013-8.6594Z" style="fill:url(#linear-gradient-6)"/><path d="M222.8744,213.8221a15.0062,15.0062,0,0,0-15.0032.0019h0a4.9993,4.9993,0,0,0,.0011,8.66l48.92,28.2274a15.006,15.006,0,0,0,15.003-.0019h0a4.9993,4.9993,0,0,0-.0011-8.66Z" style="fill:url(#linear-gradient-7)"/></g></svg>