<svg xmlns="http://www.w3.org/2000/svg" xmlns:xlink="http://www.w3.org/1999/xlink" viewBox="0 0 512 512"><defs><linearGradient id="linear-gradient" x1="867.4797" y1="604.0307" x2="952.5966" y2="751.4573" gradientTransform="translate(-305.8273 -790.1315) rotate(25.426)" gradientUnits="userSpaceOnUse"><stop offset="0" stop-color="#acce20"/><stop offset="1" stop-color="#7f9b0a"/></linearGradient><linearGradient id="linear-gradient-2" x1="400.5795" y1="35.1989" x2="129.2271" y2="505.195" gradientUnits="userSpaceOnUse"><stop offset="0" stop-color="#8d3fa0"/><stop offset="0.3466" stop-color="#8a3c9d"/><stop offset="0.6249" stop-color="#803493"/><stop offset="0.8786" stop-color="#702682"/><stop offset="1" stop-color="#651d77"/></linearGradient><linearGradient id="linear-gradient-3" x1="349.2003" y1="74.8247" x2="398.2423" y2="159.7679" gradientUnits="userSpaceOnUse"><stop offset="0" stop-color="#8d3fa0"/><stop offset="0.1214" stop-color="#823695"/><stop offset="0.3751" stop-color="#722884"/><stop offset="0.6534" stop-color="#68207a"/><stop offset="1" stop-color="#651d77"/></linearGradient><linearGradient id="linear-gradient-4" x1="3408.0334" y1="-1696.0404" x2="3452.5351" y2="-1618.9613" gradientTransform="translate(2445.985 -2801.1584) rotate(150)" gradientUnits="userSpaceOnUse"><stop offset="0" stop-color="#ffc550"/><stop offset="1" stop-color="#e29700"/></linearGradient><linearGradient id="linear-gradient-5" x1="3257.7702" y1="-411.6046" x2="3294.1806" y2="-348.5398" gradientTransform="translate(1136.7426 -2941.7144) rotate(110)" xlink:href="#linear-gradient-4"/><linearGradient id="linear-gradient-6" x1="-255.9819" y1="-842.5719" x2="-211.4802" y2="-765.4928" gradientTransform="translate(750.5681 655.3997) rotate(-30)" xlink:href="#linear-gradient-4"/><linearGradient id="linear-gradient-7" x1="-97.6274" y1="-2112.9934" x2="-61.217" y2="-2049.9286" gradientTransform="translate(2059.8106 795.9557) rotate(-70)" xlink:href="#linear-gradient-4"/></defs><g id="Psychic"><path d="M303.0285,242.3034l-13.5431-21.2246,18.53-17.0442a7.9268,7.9268,0,0,0-2.47-13.2128l-23.4464-9.2037,4.993-24.671a7.9267,7.9267,0,0,0-9.7659-9.2436l-24.37,6.343L242.49,131.1428a7.9268,7.9268,0,0,0-13.3341-1.738l-15.98,19.4473-21.94-12.3728a7.9268,7.9268,0,0,0-11.8061,6.426l-1.52,25.1308-25.0105,2.8969a7.9268,7.9268,0,0,0-5.77,12.138l13.5432,21.2246L142.142,221.34a7.9267,7.9267,0,0,0,2.47,13.2127l23.4466,9.2039-4.9932,24.6709a7.9267,7.9267,0,0,0,9.7659,9.2436l24.37-6.343,10.4659,22.9037a7.9269,7.9269,0,0,0,13.3342,1.738l15.98-19.4473,21.94,12.3729a7.9268,7.9268,0,0,0,11.8061-6.426l1.52-25.1309,25.0105-2.8968A7.9268,7.9268,0,0,0,303.0285,242.3034Z" style="fill:url(#linear-gradient)"/><path d="M474.5429,95.4542v0a37.3853,37.3853,0,0,1-1.1107,7.669c-6.8946,24.9662-32.3175,44.9236-53.6091,58.2506a106.93,106.93,0,0,1-35.7158,14.6016,146.7854,146.7854,0,0,1-56.6718.9261c-6.6122-1.096-12.9942-3.66-19.766-2.7417a24.0673,24.0673,0,0,0-9.4866,2.8736c-15.2276,8.8619-46.9937,27.304-64.0521,37.1862a12.9666,12.9666,0,0,0-4.7428,4.7594L189.0572,289.112c-28.9616,52.2053-35.267,94.88-67.2148,148.7244-8.99,15.3485-28.4269,27.0733-46.2051,29.0574-8.5025.9317-19.01-.5963-23.5838-8.6974l7.994,13.8459c8.9036,14.7619,34.14,8.6566,47.961.369,9.1858-5.3043,17.1875-12.6322,21.83-20.7263,17.952-31.2983,26.9538-57.8079,35.8013-81.0793s15.8094-46.3026,29.6814-70.6438l43.01-74.7921a5.5063,5.5063,0,0,1,2.018-2.0264c12.5453-7.2631,38.1547-22.141,49.95-29a6.8227,6.8227,0,0,1,7.1816.1586c15.0782,9.9754,36.0665,16.0275,63.7593,16.0275,66.6277,0,113.3188-68.2654,113.3188-101.7708l-.048.0078.0014-.0187.0466.0109V95.4529Z" style="fill:#571967"/><path d="M457.9064,68.2971c-45.6667-22.88-118.929-1.46-166.03,25.4477-12.9687,7.5376-20.9114,16.8782-23.837,26.6323s-.8344,19.9218,6.2654,29.1123a6.6732,6.6732,0,0,1,1.3323,6.1765,10.1346,10.1346,0,0,1-4.93,5.5044c-11.2816,6.5273-36.304,21.0142-51.8937,30.0362a34.0785,34.0785,0,0,0-12.4646,12.4928l-49.1967,85.4126c-13.9173,24.2642-30.6829,45.7371-48.4454,68.9229S72.1843,406.12,54.2793,437.236c-4.657,8.0918-5.2134,15.5254-2.2271,20.9581,3.069,5.6083,9.4878,8.1691,15.6019,8.7665,13.0918,1.1076,26.4658-4.1318,37.3871-11.5862,7.04-4.8906,13.03-10.9611,16.802-17.5376q2.5245-4.4013,4.8416-8.6406c29.48-52.816,34.3064-89.7039,62.3719-140.0844,0,0,32.4065-56.3517,40.3328-70.1352a12.9524,12.9524,0,0,1,4.743-4.7567c17.049-9.8731,48.7432-28.2847,64.05-37.1861A24.069,24.069,0,0,1,307.67,174.16c6.7764-.9193,13.1526,1.6456,19.7661,2.7419a146.7913,146.7913,0,0,0,56.6718-.926,106.9239,106.9239,0,0,0,35.7154-14.6021c21.3059-13.3416,46.697-33.2606,53.6094-58.25C476.9851,89.2467,472.2461,76.4929,457.9064,68.2971Z" style="fill:url(#linear-gradient-2)"/><path d="M445.7068,75.3871c15.9544,9.2113,11.9492,24.7591,8.141,33.2015-7.437,16.4986-25.7645,33.8524-51.613,48.8739-26.8641,15.6117-70.7211,15.6119-97.7611,0s-27.1829-41.015-.3187-56.6268C338.9225,80.4544,407.2455,56.738,445.7068,75.3871Z" style="fill:url(#linear-gradient-3)"/><path d="M290.4175,370.6947l15.1865-8.768L323.0594,392.16a4.4126,4.4126,0,0,0,8.2338-2.2557l-.6089-54.3144a8.7053,8.7053,0,0,0-13.0575-7.4415L302.44,336.9165,284.985,306.6829a4.4126,4.4126,0,0,0-8.2338,2.2558l.6088,54.3144A8.7054,8.7054,0,0,0,290.4175,370.6947Z" style="fill:url(#linear-gradient-4)"/><path d="M376.105,287.176l4.9072-13.4823,26.8406,9.7692a3.61,3.61,0,0,0,3.9744-5.7441l-28.9465-33.7221A7.1226,7.1226,0,0,0,370.7831,246.2l-4.9072,13.4822-26.8407-9.7692a3.61,3.61,0,0,0-3.9743,5.7441l28.9465,33.7221A7.1226,7.1226,0,0,0,376.105,287.176Z" style="fill:url(#linear-gradient-5)"/><path d="M159.74,54.68l-15.1865,8.7679L127.0977,33.2142a4.4126,4.4126,0,0,0-8.2338,2.2558l.6089,54.3144A8.7054,8.7054,0,0,0,132.53,97.2259l15.1865-8.7679,17.4553,30.2335a4.4126,4.4126,0,0,0,8.2338-2.2558l-.6088-54.3144A8.7054,8.7054,0,0,0,159.74,54.68Z" style="fill:url(#linear-gradient-6)"/><path d="M74.0521,138.1985l-4.9072,13.4823-26.8406-9.7692a3.61,3.61,0,0,0-3.9744,5.7441l28.9465,33.7221a7.1226,7.1226,0,0,0,12.0976-2.2031l4.9072-13.4822,26.8407,9.7692a3.61,3.61,0,0,0,3.9743-5.7442L86.15,135.9954A7.1226,7.1226,0,0,0,74.0521,138.1985Z" style="fill:url(#linear-gradient-7)"/></g></svg>