<svg xmlns="http://www.w3.org/2000/svg" xmlns:xlink="http://www.w3.org/1999/xlink" viewBox="0 0 512 512"><defs><linearGradient id="linear-gradient" x1="162.4667" y1="286.4334" x2="121.5524" y2="357.2989" gradientUnits="userSpaceOnUse"><stop offset="0" stop-color="#8d3fa0"/><stop offset="1" stop-color="#651d77"/></linearGradient><linearGradient id="linear-gradient-2" x1="358.3054" y1="203.9066" x2="358.3054" y2="406.2298" gradientUnits="userSpaceOnUse"><stop offset="0" stop-color="#fff7ee"/><stop offset="1" stop-color="#eaceb0"/></linearGradient><linearGradient id="linear-gradient-3" x1="204.4291" y1="291.5771" x2="92.2298" y2="356.3554" xlink:href="#linear-gradient-2"/><linearGradient id="linear-gradient-4" x1="327.6069" y1="98.4573" x2="198.0978" y2="322.7737" xlink:href="#linear-gradient"/><linearGradient id="linear-gradient-5" x1="245.8065" y1="51.2345" x2="116.2994" y2="275.5473" gradientUnits="userSpaceOnUse"><stop offset="0" stop-color="#ffc550"/><stop offset="1" stop-color="#e29700"/></linearGradient><linearGradient id="linear-gradient-6" x1="259.8228" y1="148.1842" x2="324.7707" y2="260.6772" gradientUnits="userSpaceOnUse"><stop offset="0" stop-color="#acce20"/><stop offset="1" stop-color="#7f9b0a"/></linearGradient></defs><g id="Spellbook"><polygon points="235.586 328.669 235.611 423.139 480.975 281.453 480.975 187.005 235.586 328.669" style="fill:#651d77"/><path d="M235.586,328.6623c-7.4188-4.2892-151.2155-87.3251-163.5725-94.4477a27.0834,27.0834,0,0,0-27.2668,0c-22.3862,12.8867-13.0426,45.99-2.7078,64.5242a82.1107,82.1107,0,0,0,29.9382,29.938c11.7993,6.8009,156.79,90.507,163.6089,94.4477Z" style="fill:url(#linear-gradient)"/><path d="M71.9982,234.226l.001-.0188a27.082,27.082,0,0,0-27.2524.0073c-22.3863,12.8867-13.0428,45.99-2.708,64.5242a82.113,82.113,0,0,0,29.9382,29.938l.0212.0122Z" style="fill:#e29700"/><polygon points="235.611 345.571 235.636 406.23 481 264.545 481 203.907 235.611 345.571" style="fill:url(#linear-gradient-2)"/><path d="M235.6108,345.5853V406.23L79.2966,316.0133a67.3487,67.3487,0,0,1-24.558-24.5945C48.7671,281.0371,39.13,253.8941,52.03,246.9144a12.3279,12.3279,0,0,1,12.6639,0Z" style="fill:url(#linear-gradient-3)"/><path d="M480.9705,240.112v12.6631L235.6474,394.4132h-.0366l-.0364.0367L53.6407,289.4107a83.2612,83.2612,0,0,1-6.1486-16.2133L235.5744,381.7865l.0364-.0364h.0366Z" style="fill:#eaceb0"/><path d="M480.9705,215.6639v12.7l-245.36,141.6015-.0364.0367L45.6622,260.3878c.0366-4.2821.9516-8.0885,3.2207-10.8334l186.6915,107.784.0364-.0366Z" style="fill:#eaceb0"/><path d="M71.9983,234.226l143.1439,82.64,20.4438,11.8027L480.9752,187.0045,317.3764,92.5553a27.0135,27.0135,0,0,0-27.2688,0L44.73,234.2264A27.0142,27.0142,0,0,1,71.9983,234.226Z" style="fill:url(#linear-gradient-4)"/><path d="M290.1077,92.5558,44.73,234.2265a27.0139,27.0139,0,0,1,27.2688,0L317.3763,92.5553A27.0124,27.0124,0,0,0,290.1077,92.5558Z" style="fill:url(#linear-gradient-5)"/><path d="M292.5536,257.2712c-24.6359,0-47.7871-5.533-65.1891-15.58-11.4942-6.6362-19.7455-14.9062-23.8616-23.9159a31.5772,31.5772,0,0,1-.2006-26.5365l.0255-.0581.0292-.1092a1.6286,1.6286,0,0,1,.0613-.2014,1.3611,1.3611,0,0,1,.1442-.2511l.0382-.0557.0287-.0612c4.1093-8.79,12.17-16.8582,23.31-23.3322,11.1988-6.5081,25.2193-11.2352,40.5455-13.67l.0575-.0111c.2075-.0484.386-.086.5811-.1132.1524-.0257.277-.0372.4017-.0492.0784-.0075.1568-.0151.2352-.0242a157.4324,157.4324,0,0,1,23.2655-1.714c24.6415,0,47.7975,5.5342,65.2025,15.5827,11.4934,6.6356,19.7449,14.9054,23.863,23.9153a31.58,31.58,0,0,1,.21,26.5309l-.03.0673-.0173.0714a.9383.9383,0,0,1-.0615.198l-.0165.0322-.0137.0336a1.3246,1.3246,0,0,1-.1323.2234l-.0382.0559-.0285.0611c-4.11,8.79-12.17,16.8582-23.31,23.3322-11.1994,6.5081-25.22,11.2352-40.5457,13.67l-.0571.0111c-.2091.0484-.3881.0862-.5815.1132-.2127.0322-.4037.0529-.579.0631l-.0374.0022-.037.0055A157.3113,157.3113,0,0,1,292.5536,257.2712Zm-49.3809-16.157,2.6867,1.1258c13.6367,5.7129,29.7826,8.7328,46.6925,8.7332h.0037c2.7119,0,5.4543-.081,8.1525-.2409l2.7409-.1624-25.693-14.834Zm89.3479-13.88-9.2254,20.185,1.6748-.4337a94.392,94.392,0,0,0,23.7657-9.4965,55.4586,55.4586,0,0,0,16.4109-13.8882l1.2462-1.6292Zm-42.0444,6.531,21.0928,12.1778,7.5952-16.6317Zm-50.3914,1.251,28.6995-4.4607-21.0922-12.1774Zm-27.1427-35.42c-1.975,11.5573,3.3629,23.0332,15.03,32.3137l.8238.6551,9.082-19.8529-24.737-14.2819ZM262.2,186.6355,251.0626,211.01l30.4311,17.57,40.8983-6.3531,11.138-24.3747-30.4313-17.5694Zm73.5589,33.52,28.688-4.4538-21.0928-12.1778Zm10.955-24.0063,24.7364,14.2819.1994-1.166c1.9752-11.5575-3.3629-23.0332-15.03-32.3135l-.824-.655Zm-126.5582-2.9831,21.0928,12.178,7.595-16.6317Zm95.652-14.86L336.9,190.4833l7.6073-16.6381Zm-56.1737-16.4237a94.0605,94.0605,0,0,0-23.7779,9.49,55.167,55.167,0,0,0-16.4007,13.896l-1.24,1.6274,33.8557-5.2687,9.2369-20.1768Zm5.8046,17.6741,28.6881-4.4536-21.0928-12.178ZM292.04,157.8887c-2.714,0-5.458.081-8.1558.2409l-2.7409.1624,25.6926,14.834,34.5835-5.3783-2.6869-1.1257C325.0951,160.9086,308.9492,157.8887,292.04,157.8887Z" style="fill:url(#linear-gradient-6)"/></g></svg>