<svg id="UFO" xmlns="http://www.w3.org/2000/svg" xmlns:xlink="http://www.w3.org/1999/xlink" viewBox="0 0 512 512"><defs><linearGradient id="linear-gradient" x1="-422.0286" y1="-216.3737" x2="38.3038" y2="-216.3737" gradientTransform="translate(447.8624 496.5237)" gradientUnits="userSpaceOnUse"><stop offset="0" stop-color="#ffc550"/><stop offset="1" stop-color="#e29700"/></linearGradient><linearGradient id="linear-gradient-2" x1="-315.4744" y1="-354.3593" x2="-68.2398" y2="-107.1247" gradientTransform="translate(497.3265 439.4933) rotate(-15)" gradientUnits="userSpaceOnUse"><stop offset="0" stop-color="#8d3fa0"/><stop offset="0.3466" stop-color="#8a3c9d"/><stop offset="0.6249" stop-color="#803493"/><stop offset="0.8786" stop-color="#702682"/><stop offset="1" stop-color="#651d77"/></linearGradient><linearGradient id="linear-gradient-3" x1="-318.8793" y1="-300.687" x2="-64.8455" y2="-300.687" gradientTransform="translate(426.0405 499.3966)" xlink:href="#linear-gradient"/><linearGradient id="linear-gradient-4" x1="-263.4621" y1="-395.8414" x2="-120.2626" y2="-252.642" gradientTransform="translate(497.3265 439.4933) rotate(-15)" gradientUnits="userSpaceOnUse"><stop offset="0" stop-color="#acce20"/><stop offset="1" stop-color="#7f9b0a"/></linearGradient></defs><ellipse cx="275.4031" cy="352.5224" rx="131.789" ry="76.1046" transform="translate(-81.8554 83.2915) rotate(-15)" style="fill:#651d77"/><ellipse cx="256" cy="280.1501" rx="230.1662" ry="132.8865" transform="translate(-63.7852 75.8036) rotate(-15)" style="fill:url(#linear-gradient)"/><path d="M217.9976,138.254l-.0139.0038c-109.6912,29.3916-188.33,112.8876-168.7585,185.93,17.43,65.0511,122.8643,93.32,235.4933,63.1414S474.5213,279.9513,457.0909,214.9l.0206-.0056C437.54,141.8526,327.6887,108.8624,217.9976,138.254Z" style="fill:url(#linear-gradient-2)"/><ellipse cx="399.5968" cy="185.3406" rx="9.627" ry="16.6745" transform="translate(117.1484 523.352) rotate(-75)" style="fill:#ffefdc"/><ellipse cx="375.3294" cy="265.6855" rx="14.0999" ry="16.6745" transform="translate(-42.4261 457.8868) rotate(-59.9999)" style="fill:#ffefdc"/><circle cx="268.9425" cy="328.4108" r="16.6745" style="fill:#ffefdc"/><ellipse cx="145.4461" cy="327.2826" rx="16.6745" ry="14.0999" transform="translate(-210.7121 289.6019) rotate(-60.0001)" style="fill:#ffefdc"/><ellipse cx="84.0513" cy="269.8908" rx="16.6745" ry="9.627" transform="translate(-166.2235 138.4823) rotate(-45)" style="fill:#ffefdc"/><ellipse cx="234.1781" cy="198.7096" rx="127.0169" ry="73.3333" transform="translate(-43.4504 67.3806) rotate(-15)" style="fill:url(#linear-gradient-3)"/><path d="M339.5216,161.0827a111.4926,111.4926,0,1,0-215.3871,57.7128l.0412-.0111c9.2012,34.34,64.8582,49.2612,124.3123,33.3305s100.1937-56.6816,90.9924-91.0212Z" style="fill:url(#linear-gradient-4)"/><circle cx="265.2845" cy="121.4213" r="19.0944" style="fill:#f5ff97"/></svg>