<svg id="Layer_1" enable-background="new 0 0 512 512" height="512" viewBox="0 0 512 512" width="512" xmlns="http://www.w3.org/2000/svg"><g><path d="m424.109 137.954h-130.842v-130.454c0-4.142-3.358-7.5-7.5-7.5h-62.936c-4.142 0-7.5 3.358-7.5 7.5v130.454h-46.35c-9.697 0-9.697 15 0 15h53.85c4.142 0 7.5-3.358 7.5-7.5v-130.454h47.936v130.454c0 4.142 3.358 7.5 7.5 7.5h130.842v47.188h-130.842c-4.142 0-7.5 3.358-7.5 7.5v193.692c0 9.697 15 9.697 15 0v-186.192h130.842c4.142 0 7.5-3.358 7.5-7.5v-62.188c0-4.142-3.358-7.5-7.5-7.5z"/><path d="m285.767 438.833c-4.142 0-7.5 3.358-7.5 7.5v50.667h-47.936v-289.358c0-4.142-3.358-7.5-7.5-7.5h-127.44v-47.188h33.606c9.697 0 9.697-15 0-15h-41.106c-4.142 0-7.5 3.358-7.5 7.5v62.188c0 4.142 3.358 7.5 7.5 7.5h127.439v289.358c0 4.142 3.358 7.5 7.5 7.5h62.936c4.142 0 7.5-3.358 7.5-7.5v-58.167c.001-4.142-3.357-7.5-7.499-7.5z"/></g></svg>