<svg id="Layer_1" enable-background="new 0 0 512 512" height="512" viewBox="0 0 512 512" width="512" xmlns="http://www.w3.org/2000/svg"><g><path d="m438.099 76.079c-47.589-48.152-111.047-75.152-178.696-76.036-70.128 0-137.207 27.865-186.235 78.209-6.765 6.948 3.982 17.414 10.746 10.465 45.673-46.897 109.484-74.505 175.124-73.678 30.165.77 58.663 13.395 80.246 35.552 21.581 22.155 33.467 50.978 33.467 81.159 0 30.736-12.266 59.93-34.539 82.205-22.275 22.276-51.472 34.545-82.212 34.545-72.647 0-131.75 59.103-131.75 131.75 0 34.6 13.311 67.286 37.479 92.038 3.433 3.515 7.029 6.815 10.774 9.893-32.741-12.063-62.704-31.276-87.933-56.804-44.863-45.395-69.57-105.547-69.57-169.377 0-49.201 15.311-96.812 44.275-137.688 5.607-7.911-6.632-16.585-12.238-8.673-30.772 43.425-47.037 94.036-47.037 146.361 0 67.803 26.245 131.7 73.901 179.921 47.589 48.152 111.047 75.152 178.696 76.036 58.155 0 114.726-18.983 160.527-55.054 7.618-6-1.665-17.787-9.281-11.784-43.296 34.1-96.845 52.523-150.909 51.842-30.528-.786-59.105-13.268-80.472-35.152-21.417-21.933-33.211-50.897-33.211-81.558 0-64.376 52.374-116.75 116.75-116.75 34.747 0 67.711-13.829 92.818-38.939 25.105-25.108 38.932-58.069 38.932-92.811 0-34.113-13.396-66.653-37.722-91.625-3.737-3.836-7.66-7.416-11.745-10.735 33.211 12.034 63.608 31.393 89.146 57.234 44.863 45.393 69.57 105.545 69.57 169.375 0 59.669-22.745 117.256-64.045 162.153-6.526 7.093 4.413 17.359 11.039 10.155 43.855-47.673 68.006-108.867 68.006-172.308 0-67.803-26.245-131.7-73.901-179.921z"/><path d="m297.75 131.75c0-23.021-18.729-41.75-41.75-41.75s-41.75 18.729-41.75 41.75 18.729 41.75 41.75 41.75 41.75-18.729 41.75-41.75zm-68.5 0c0-14.75 12-26.75 26.75-26.75s26.75 12 26.75 26.75-12 26.75-26.75 26.75-26.75-12-26.75-26.75z"/><path d="m214.25 380.776c0 23.021 18.729 41.75 41.75 41.75s41.75-18.729 41.75-41.75-18.729-41.75-41.75-41.75-41.75 18.729-41.75 41.75zm68.5 0c0 14.75-12 26.75-26.75 26.75s-26.75-12-26.75-26.75 12-26.75 26.75-26.75 26.75 12 26.75 26.75z"/></g></svg>