<svg id="Layer_1" enable-background="new 0 0 512.093 512.093" height="512" viewBox="0 0 512.093 512.093" width="512" xmlns="http://www.w3.org/2000/svg"><g><path d="m150.227 128.073c-37.818 31.331-60.297 78.817-60.297 127.955 0 90.463 75.658 166.116 166.116 166.116 90.443 0 166.116-75.71 166.116-166.116 0-90.442-75.681-166.116-166.116-166.116-34.73 0-81.383 11.409-105.819 38.161zm76.997 26.738 5.633 27.019c-4.477 1.402-8.772 3.213-12.862 5.364l-15.14-23.117c-8.719-13.313-20.782-24.479-34.691-32.315 17.318-12.006 37.25-20.493 58.76-24.407-4.312 15.397-4.954 31.85-1.7 47.456zm55.981-47.461c21.13 3.828 41.086 12.115 58.748 24.396-13.919 7.836-25.991 19.008-34.716 32.329l-15.11 23.071c-4.127-2.168-8.436-3.953-12.887-5.338l5.629-26.998c3.3-15.826 2.707-32.031-1.664-47.46zm79.643 41.876c2.551 2.552 4.996 5.181 7.341 7.876-6.677 14.374-17.136 26.493-30.409 35.186l-23.088 15.121c-1.77-2.199-3.655-4.323-5.68-6.348-2.024-2.024-4.149-3.91-6.348-5.68l15.121-23.088c8.58-13.1 20.969-23.757 35.2-30.397 2.691 2.343 5.316 4.783 7.863 7.33zm41.883 79.683c-15.401-4.316-31.859-4.959-47.468-1.704l-26.998 5.629c-1.385-4.451-3.17-8.761-5.338-12.887l23.071-15.11c13.508-8.846 24.535-20.705 32.353-34.682 12.276 17.665 20.558 37.623 24.38 58.754zm-24.418 113.001c-7.836-13.909-19.001-25.971-32.315-34.691l-23.117-15.14c2.151-4.09 3.961-8.385 5.364-12.861l27.019 5.633c6.615 1.379 13.381 2.061 20.157 2.061 9.207 0 18.428-1.262 27.297-3.746-3.916 21.503-12.402 41.43-24.405 58.744zm-25.336 28.259c-4.341-2.022-8.521-4.414-12.472-7.144-7.978-5.513-16.505 6.828-8.527 12.34 2.565 1.772 5.216 3.417 7.933 4.942-17.315 12-37.241 20.482-58.744 24.395 4.313-15.398 4.955-31.852 1.701-47.457l-5.633-27.019c4.477-1.402 8.772-3.213 12.862-5.364l10.32 15.757c5.104 7.792 17.854-.117 12.548-8.219l-10.326-15.766c4.428-3.557 8.457-7.586 12.015-12.014l23.125 15.146c13.101 8.58 23.758 20.97 30.399 35.202-4.703 5.418-9.783 10.498-15.201 15.201zm52.186-114.141c0 3.604-.135 7.176-.385 10.717-14.776 5.388-31.099 6.623-46.453 3.421l-27.02-5.634c.306-2.795.474-5.63.474-8.504 0-2.863-.169-5.698-.472-8.505l27.018-5.633c15.357-3.202 31.681-1.968 46.459 3.423.248 3.55.379 7.122.379 10.715zm-116.841-52.552c.018.012.033.026.051.037.02.013.041.021.061.034 3.551 2.337 6.895 5.046 9.971 8.122 11.848 11.849 18.374 27.603 18.374 44.359 0 34.591-28.142 62.732-62.732 62.732-4.332 0-8.594-.445-12.741-1.296-.04-.009-.079-.023-.119-.031-.022-.005-.044-.006-.066-.01-7.625-1.589-14.849-4.583-21.364-8.853-.013-.009-.024-.019-.037-.027-.024-.016-.049-.027-.073-.043-3.547-2.335-6.886-5.041-9.959-8.114-3.06-3.061-5.758-6.386-8.087-9.917-.024-.038-.043-.078-.068-.115-.013-.021-.029-.039-.043-.059-6.616-10.103-10.176-21.909-10.176-34.267 0-34.591 28.142-62.732 62.732-62.732 12.362-.001 24.171 3.561 34.276 10.18zm-61.394 201.237c-21.145-3.825-41.115-12.115-58.789-24.404 13.919-7.837 25.991-19.008 34.716-32.329l15.11-23.071c4.127 2.168 8.436 3.953 12.887 5.338l-5.629 26.998c-3.254 15.609-2.611 32.067 1.705 47.468zm-79.683-41.884c-2.547-2.547-4.988-5.172-7.329-7.863 6.641-14.231 17.298-26.62 30.397-35.2l23.088-15.121c1.77 2.199 3.655 4.323 5.68 6.348 2.024 2.024 4.149 3.91 6.348 5.68l-15.121 23.088c-8.579 13.099-20.968 23.756-35.2 30.397-2.691-2.341-5.316-4.782-7.863-7.329zm-41.881-79.667c8.873 2.486 18.096 3.749 27.309 3.749 6.774 0 13.543-.682 20.157-2.061l26.998-5.629c1.385 4.451 3.17 8.761 5.338 12.887l-23.071 15.11c-13.321 8.724-24.492 20.796-32.329 34.716-12.287-17.668-20.575-37.633-24.402-58.772zm24.416-113.017c7.836 13.909 19.002 25.972 32.315 34.691l23.117 15.14c-2.151 4.09-3.961 8.385-5.364 12.862l-27.019-5.633c-15.604-3.253-32.059-2.612-47.457 1.701 3.915-21.509 12.402-41.442 24.408-58.761zm-26.85 85.883c0-3.604.135-7.176.385-10.717 14.778-5.388 31.101-6.622 46.453-3.42l27.02 5.634c-.306 2.795-.474 5.63-.474 8.504 0 2.863.169 5.698.472 8.505l-27.018 5.633c-15.357 3.202-31.681 1.968-46.459-3.423-.248-3.551-.379-7.124-.379-10.716zm87.378-83.733 15.146 23.125c-4.428 3.557-8.457 7.586-12.015 12.015l-23.125-15.146c-13.1-8.58-23.758-20.97-30.399-35.202 4.699-5.414 9.777-10.491 15.19-15.19 14.232 6.64 26.622 17.297 35.203 30.398zm53.023 234.47c-5.391-14.778-6.625-31.103-3.423-46.459l5.633-27.018c2.806.304 5.642.472 8.505.472 2.875 0 5.71-.169 8.504-.474l5.633 27.02c3.201 15.353 1.968 31.676-3.42 46.453-7.135.503-14.296.505-21.432.006zm21.45-301.473c5.465 14.906 6.648 30.898 3.404 46.458l-5.633 27.018c-2.806-.304-5.642-.472-8.505-.472-2.875 0-5.71.169-8.504.474l-5.634-27.02c-3.202-15.354-1.968-31.676 3.42-46.453 3.541-.249 7.114-.385 10.718-.385 3.598 0 7.177.131 10.734.38z"/><path d="m492.327 226.098c-.146-.066-.292-.127-.442-.183-11.126-4.201-22.587-2.483-31.262 3.861-4.622-36.476-18.852-70.751-41.453-99.841 6.532-1.027 12.809-4.044 17.832-9.067 12.626-12.626 12.626-33.17 0-45.796s-33.17-12.626-45.796 0c-5.023 5.023-8.041 11.3-9.067 17.832-29.098-22.608-63.383-36.839-99.87-41.457 1.611-2.116 2.908-4.388 3.89-6.815 6.401-16.956-.937-34.684-17.449-42.152-.146-.066-.293-.127-.442-.183-16.95-6.399-34.675.937-42.147 17.439-.066.146-.127.293-.184.442-4.208 11.137-2.487 22.608 3.869 31.287-12.085 1.544-23.999 4.148-35.628 7.813-9.248 2.915-4.739 17.225 4.509 14.307 18.874-5.948 38.298-8.645 58.028-8.784 50.747-.358 98.487 20.065 134.49 56.068 35.967 35.968 55.854 83.649 56.066 134.342-1.42 51.245-19.386 99.264-56.008 135.917-36.783 36.553-84.69 54.895-136.106 56.123-50.666-.23-98.319-20.114-134.27-56.065-35.972-35.972-55.858-83.66-56.066-134.358 1.916-70.255 37.201-134.49 99.78-168.713 8.508-4.652 1.31-17.815-7.197-13.16-9.705 5.307-18.867 11.327-27.446 17.965-1.025-6.537-4.043-12.819-9.069-17.845-12.626-12.626-33.17-12.626-45.796 0s-12.626 33.17 0 45.796c5.027 5.027 11.308 8.045 17.845 9.069-22.265 28.779-36.744 63.193-41.448 99.891-1.945-1.424-4.077-2.682-6.398-3.732-.146-.066-.293-.127-.442-.183-16.95-6.399-34.675.936-42.147 17.439-.066.146-.127.293-.184.442-6.405 16.953.928 34.683 17.435 42.157 10.056 4.507 22.942 2.727 31.714-3.691 4.62 36.482 18.85 70.762 41.455 99.857-6.532 1.027-12.809 4.044-17.832 9.067-12.626 12.626-12.626 33.17 0 45.796 12.466 12.466 33.33 12.466 45.796 0 5.023-5.023 8.041-11.3 9.067-17.832 29.1 22.609 63.387 36.84 99.876 41.458-1.415 1.936-2.666 4.056-3.71 6.363-.066.146-.127.293-.184.442-6.405 16.953.927 34.682 17.435 42.157 15.826 7.093 36.658-1.394 42.788-17.704 4.202-11.13 2.484-22.593-3.863-31.268 37.286-4.757 71.486-19.519 99.835-41.487 1.021 6.545 4.041 12.837 9.073 17.869 12.466 12.466 33.33 12.466 45.796 0 12.626-12.626 12.626-33.17 0-45.796-5.032-5.033-11.324-8.052-17.869-9.073 21.975-28.358 36.739-62.571 41.492-99.871 5.656 4.134 12.116 6.198 19.146 6.198 12.63 0 24.168-7.243 29.824-19.747.066-.145.127-.292.183-.442 6.402-16.956-.937-34.684-17.449-42.152zm-90.515-140.419c3.389-3.389 7.84-5.083 12.292-5.083s8.903 1.694 12.292 5.083c6.777 6.778 6.777 17.805 0 24.583-6.778 6.778-17.806 6.777-24.583 0-6.779-6.777-6.779-17.805-.001-24.583zm-161.926-59.974c4.192-8.997 13.533-12.863 22.86-9.458 9.002 4.191 12.869 13.533 9.463 22.862-4.05 8.698-13.857 12.753-22.868 9.461-8.999-4.193-12.862-13.537-9.455-22.865zm-154.187 84.559c-6.777-6.778-6.777-17.805 0-24.583 3.389-3.389 7.84-5.083 12.292-5.083s8.903 1.694 12.292 5.083c6.69 6.69 6.764 17.512.248 24.309-.184.183-.368.365-.551.548-6.799 6.488-17.599 6.406-24.281-.274zm-59.975 161.924c-8.998-4.195-12.862-13.539-9.456-22.866 4.193-8.996 13.534-12.861 22.86-9.458 8.695 4.049 12.752 13.854 9.463 22.864-4.192 9.004-13.536 12.872-22.867 9.46zm84.557 154.188c-6.777 6.777-17.806 6.777-24.583 0-6.777-6.778-6.777-17.805 0-24.583 6.699-6.699 17.885-6.698 24.583 0 6.778 6.778 6.778 17.806 0 24.583zm161.928 59.969c-4.193 9.004-13.539 12.87-22.869 9.46-8.998-4.195-12.863-13.538-9.455-22.865 4.05-8.691 13.853-12.746 22.86-9.458 9.002 4.191 12.87 13.534 9.464 22.863zm154.184-59.97c-6.777 6.777-17.806 6.777-24.583 0-6.778-6.778-6.778-17.806 0-24.583 6.699-6.699 17.885-6.697 24.583 0 6.778 6.778 6.778 17.805 0 24.583zm69.434-163.647c-4.193 9.004-13.539 12.872-22.869 9.46-8.693-4.052-12.745-13.857-9.455-22.866 4.193-8.996 13.534-12.861 22.86-9.458 9.002 4.192 12.869 13.534 9.464 22.864z"/><path d="m229.459 229.441c-7.112 7.113-11.028 16.555-11.027 26.586 0 10.032 3.916 19.474 11.028 26.587 7.113 7.112 16.555 11.028 26.586 11.027h.002c10.031 0 19.473-3.917 26.585-11.028 7.112-7.113 11.028-16.555 11.027-26.586 0-10.032-3.916-19.474-11.027-26.587-7.113-7.112-16.555-11.028-26.586-11.027-.001 0-.001 0-.002 0-10.031 0-19.473 3.917-26.586 11.028zm26.588 3.972c6.025 0 11.701 2.356 15.979 6.634 4.279 4.279 6.635 9.954 6.635 15.98 0 6.025-2.356 11.701-6.634 15.979-4.279 4.279-9.953 6.635-15.979 6.635h-.001c-6.025 0-11.701-2.356-15.979-6.634-4.279-4.279-6.635-9.954-6.635-15.98 0-6.025 2.356-11.701 6.634-15.979 4.279-4.279 9.953-6.635 15.979-6.635z"/></g></svg>