<svg id="Layer_1" enable-background="new 0 0 512 512" height="512" viewBox="0 0 512 512" width="512" xmlns="http://www.w3.org/2000/svg"><path d="m501.325 1.587c-2.377-1.854-5.633-2.105-8.267-.637-68.594 38.252-146.137 56.847-237.058 56.847-51.827 0-100.454-6.308-144.529-18.749-9.333-2.632-13.408 11.802-4.075 14.436 45.401 12.815 95.399 19.313 148.604 19.313 86.837 0 161.947-16.562 228.977-50.557l-15.426 57.307c-6.603 24.529-28.988 41.66-54.437 41.66h-313.174c-24.26 0-45.738-15.424-53.446-38.38l-20.12-59.92c13.11 6.574 26.636 12.53 40.396 17.785 9.059 3.461 14.41-10.554 5.351-14.013-19.031-7.268-37.596-15.924-55.178-25.729-5.866-3.272-12.901 2.571-10.763 8.938l26.094 77.712c4.583 13.65 13.01 25.196 23.838 33.606h-.525c-4.142 0-7.5 3.358-7.5 7.5v42.272c0 4.142 3.358 7.5 7.5 7.5h61.232v42.075h-61.232c-4.142 0-7.5 3.358-7.5 7.5v42.272c0 4.142 3.358 7.5 7.5 7.5h61.232v226.675c0 4.142 3.358 7.5 7.5 7.5h42.348c4.142 0 7.5-3.358 7.5-7.5v-226.674h159.668v226.674c0 4.142 3.357 7.5 7.5 7.5h42.348c4.143 0 7.5-3.358 7.5-7.5v-99.567c0-9.697-15-9.697-15 0v92.067h-27.348v-318.521h27.348v186.576c0 9.697 15 9.697 15 0v-87.229h61.232c4.143 0 7.5-3.358 7.5-7.5v-42.272c0-4.142-3.357-7.5-7.5-7.5h-61.232v-42.075h61.232c4.143 0 7.5-3.358 7.5-7.5v-42.272c0-2.928-1.681-5.457-4.127-6.692 12.518-9.334 21.984-22.728 26.248-38.568l19.918-73.997c.784-2.911-.252-6.009-2.629-7.863zm-54.41 233.967v27.272h-53.732v-27.272zm-381.828 27.272v-27.272h53.732v27.272zm96.08 234.174h-27.348v-318.521h27.348zm66.16-318.521v42.075h-51.161v-42.075zm42.348 42.075h-27.348v-42.075h27.348zm-93.508 42.272v-27.272h159.668v27.272zm159.668-42.272h-51.16v-42.075h51.16zm111.08-84.348v27.272c-127.276 0-254.552 0-381.828 0v-27.272z"/></svg>