<svg id="Layer_1" enable-background="new 0 0 512 512" height="512" viewBox="0 0 512 512" width="512" xmlns="http://www.w3.org/2000/svg"><g><path d="m405.162 173.223c0-4.142-3.357-7.5-7.5-7.5-19.729 0-37.408 8.903-49.193 22.882v-38.991c0-9.697-15-9.697-15 0v79.985 33.098c0 9.697 15 9.697 15 0v-33.098c0-24.417 18.115-44.71 41.693-48.31v182.339c0 73.542-60.184 133.372-134.162 133.372-71.418 0-130.453-55.486-134.162-126.319-.023-.449.1-.889 0-1.315v-201.02c0-11.408 9.352-20.688 20.846-20.688 10.682 0 19.532 7.881 20.706 18.369v96.67c0 9.697 15 9.697 15 0v-97.162-85.628c0-11.407 9.352-20.688 20.847-20.688s20.847 9.281 20.847 20.688v152.344c0 9.697 15 9.697 15 0v-152.343-44.22c0-11.408 9.352-20.688 20.847-20.688s20.847 9.281 20.847 20.688v44.219 152.344c0 9.697 15 9.697 15 0v-152.343c0-11.407 9.352-20.688 20.847-20.688 11.494 0 20.846 9.281 20.846 20.688v29.826c0 9.697 15 9.697 15 0v-29.827c0-19.678-16.08-35.688-35.846-35.688-7.77 0-14.969 2.473-20.847 6.671v-15.202c-.002-19.678-16.083-35.688-35.848-35.688s-35.847 16.01-35.847 35.688v15.202c-5.878-4.198-13.077-6.671-20.847-6.671-19.766 0-35.847 16.01-35.847 35.688v59.25c-5.856-4.11-13.007-6.5-20.706-6.5-19.766 0-35.846 16.01-35.846 35.688v177.835c0 31.181 2.674 60.362 18.197 88.608 26.001 47.314 77.042 77.212 130.966 77.212 82.248 0 149.162-66.559 149.162-148.371-.09-1.392 0-190.406 0-190.406z"/><path d="m170.841 408.186c-3.513 2.194-4.583 6.821-2.389 10.334 4.098 6.564 8.967 12.683 14.471 18.186 19.348 19.347 45.121 29.992 72.604 29.992h.259c27.565-.067 53.477-10.835 72.963-30.321 19.485-19.485 30.254-45.397 30.32-72.962.067-27.579-10.584-53.455-29.991-72.863-19.348-19.347-45.121-29.992-72.604-29.992-.086 0-.174 0-.259 0-27.565.067-53.477 10.835-72.963 30.321-23.187 23.187-33.871 55.125-29.315 87.626 1.347 9.604 16.2 7.521 14.855-2.082-3.897-27.796 5.239-55.11 25.067-74.938 16.662-16.662 38.819-25.87 62.392-25.927h.222c23.474 0 45.485 9.086 61.997 25.599 16.565 16.565 25.656 38.662 25.599 62.22-.057 23.572-9.265 45.73-25.928 62.392-16.662 16.662-38.819 25.87-62.392 25.928-.075 0-.146 0-.222 0-23.474 0-45.485-9.086-61.998-25.599-4.701-4.701-8.857-9.923-12.354-15.523-2.193-3.515-6.821-4.584-10.334-2.391z"/><path d="m190.424 356.129c-9.697 0-9.697 15 0 15h29.755c.961 4.499 2.771 8.69 5.251 12.407l-21.097 21.05c-6.865 6.851 3.731 17.465 10.596 10.618l21.211-21.164c3.715 2.383 7.886 4.124 12.36 5.049v29.971c0 9.697 15 9.697 15 0v-29.971c4.474-.925 8.645-2.666 12.36-5.049l21.211 21.164c6.865 6.846 17.461-3.767 10.596-10.618l-21.097-21.05c2.481-3.717 4.29-7.908 5.251-12.407h29.755c9.697 0 9.697-15 0-15h-29.755c-.961-4.499-2.77-8.69-5.251-12.407l21.097-21.05c6.864-6.85-3.729-17.466-10.596-10.618l-21.211 21.164c-3.715-2.383-7.886-4.124-12.36-5.049v-29.97c0-9.697-15-9.697-15 0v29.97c-4.474.925-8.645 2.666-12.36 5.049l-21.211-21.164c-6.867-6.848-17.459 3.768-10.596 10.618l21.097 21.05c-2.481 3.717-4.29 7.908-5.251 12.407zm50.527-7.516c7.833-7.854 21.119-8.339 29.363-.87 9.852 8.924 10.019 22.091 0 31.773-7.649 7.391-20.944 7.375-28.629 0-8.352-8.016-10.713-20.898-.734-30.903z"/></g></svg>