<svg id="Layer_1" enable-background="new 0 0 511.753 511.753" height="512" viewBox="0 0 511.753 511.753" width="512" xmlns="http://www.w3.org/2000/svg"><g><path d="m69.492 222.872c-.494 2.612.431 5.29 2.432 7.04l54.819 47.952-42.663 71.383c-2.938 4.912.715 11.348 6.438 11.348h81.017l13.717 76.928c.998 5.599 7.916 8.186 12.324 4.327l58.293-51.034 58.346 51.036c4.315 3.778 11.315 1.315 12.321-4.329l13.717-76.928h14.513c9.697 0 9.697-15 0-15h-20.794c-3.634 0-6.745 2.605-7.384 6.184l-12.489 70.043-53.294-46.618c-2.827-2.474-7.051-2.473-9.878.002l-53.239 46.609-12.487-70.037c-.639-3.578-3.75-6.184-7.384-6.184h-74.078l39.092-65.407c1.859-3.111 1.229-7.106-1.5-9.493l-49.931-43.675 61.289-21.989c3.442-1.235 5.492-4.775 4.851-8.376l-12.18-68.308 66.828 23.993c3.372 1.212 7.133-.134 8.972-3.211l34.637-57.954 34.699 57.986c1.839 3.074 5.595 4.419 8.969 3.208l66.963-24.026-12.189 68.362c-.642 3.601 1.407 7.139 4.85 8.375l61.106 21.938-49.828 43.623c-2.728 2.388-3.356 6.384-1.495 9.494l39.17 65.459h-13.337c-9.697 0-9.697 15 0 15h26.565c5.725 0 9.375-6.438 6.436-11.351l-42.749-71.439 54.708-47.895c4.229-3.703 2.885-10.803-2.406-12.702l-67.141-24.105 13.352-74.876c.995-5.579-4.584-10.288-9.917-8.376l-73.35 26.317-37.975-63.456c-2.838-4.743-10.031-4.751-12.873.003l-37.905 63.423-73.213-26.286c-5.333-1.916-10.912 2.798-9.918 8.375l13.342 74.824-67.332 24.157c-2.503.899-4.342 3.054-4.837 5.666z"/><path d="m510.401 210.011c-1.192-6.293-5.505-11.344-11.537-13.509l-82.76-29.713 16.488-92.47c2.348-13.172-11.004-24.521-23.676-19.978l-90.898 32.613-46.876-78.335c-6.878-11.496-23.863-11.49-30.735.008l-46.787 78.284-90.748-32.581c-12.582-4.515-26.043 6.71-23.678 19.976l5.446 30.546c1.703 9.545 16.469 6.915 14.768-2.633l-5.446-30.546c.038-2.548 1.319-3.623 3.843-3.225l96.554 34.666c3.373 1.211 7.134-.135 8.972-3.211l49.952-83.58c1.663-1.883 3.326-1.883 4.989-.001l50.041 83.626c1.84 3.074 5.595 4.42 8.969 3.208l96.701-34.695c2.525-.399 3.805.677 3.843 3.225l-17.6 98.706c-.642 3.601 1.407 7.139 4.85 8.375l88.721 31.853c2.178 1.276 2.489 2.906.932 4.89l-72.24 63.244c-2.727 2.388-3.356 6.384-1.495 9.494l55.79 93.235c.87 2.423.039 3.88-2.494 4.371h-106.2c-3.634 0-6.746 2.605-7.384 6.184l-18.268 102.451c-.941 2.409-2.533 2.964-4.774 1.667l-76.846-67.218c-2.827-2.475-7.051-2.473-9.878.002l-76.806 67.242c-2.242 1.299-3.833.743-4.774-1.666l-18.275-102.478c-.639-3.578-3.75-6.183-7.384-6.183h-106.171c-2.532-.491-3.363-1.947-2.494-4.369l55.679-93.16c1.859-3.111 1.229-7.106-1.5-9.493l-72.388-63.321c-1.559-1.985-1.249-3.615.932-4.891l88.942-31.912c3.442-1.236 5.492-4.775 4.851-8.376l-5.149-28.883c-1.701-9.547-16.469-6.914-14.768 2.633l4.038 22.646-82.98 29.772c-12.486 4.481-15.799 21.503-5.741 30.3l67.678 59.201-52.468 87.788c-6.931 11.597 1.768 27.064 15.369 27.064h99.887l17.173 96.294c2.378 13.338 19.15 19.312 29.423 10.318l71.867-62.918 71.905 62.897c10.187 8.911 27.024 3.107 29.418-10.324l17.165-96.268h99.919c13.506 0 22.357-15.389 15.365-27.073l-52.576-87.864 67.531-59.121c4.819-4.218 6.984-10.493 5.793-16.784z"/></g></svg>