<svg id="Layer_1" enable-background="new 0 0 512 512" height="512" viewBox="0 0 512 512" width="512" xmlns="http://www.w3.org/2000/svg"><g><path d="m277.455 241.88h183.059c5.013-.571 7.494-3.378 7.443-8.423-6.079-48.994-27.499-93.124-61.944-127.618-34.529-34.578-78.673-55.973-127.661-61.872-5.031-.035-7.83 2.447-8.396 7.446v182.967c-.001 4.142 3.357 7.5 7.499 7.5zm7.5-181.839c42.259 6.817 80.299 26.209 110.444 56.397 30.081 30.124 49.493 68.16 56.457 110.442h-166.901z"/><path d="m234.545 270.12h-183.059c-6.609 0-8.372 7.861-6.859 13.025 5.967 47.037 28.305 91.354 62.897 124.791 34.104 32.964 78.89 54.307 126.108 60.096 4.076.496 8.413-3.259 8.413-7.444v-182.968c0-4.142-3.357-7.5-7.5-7.5zm-7.5 181.81c-40.886-6.771-79.354-26.032-109.096-54.78-31.662-30.603-51.633-69.27-57.913-112.03h167.009z"/><path d="m277.455 393.634c-4.142 0-7.5 3.358-7.5 7.5v59.449c0 4.186 4.344 7.948 8.422 7.443 48.94-6.062 93.058-27.479 127.583-61.936 34.588-34.52 56.027-78.63 62-127.562.042-5.037-2.439-7.84-7.445-8.409h-183.06c-4.142 0-7.5 3.358-7.5 7.5v83.578c0 9.697 15 9.697 15 0v-76.077h166.917c-6.881 42.21-26.311 80.216-56.508 110.354-30.15 30.091-68.175 49.502-110.408 56.453v-50.792c-.001-4.143-3.359-7.501-7.501-7.501z"/><path d="m242.045 51.417c0-7.166-7.777-8.354-12.981-6.865-46.999 5.958-91.314 28.29-124.782 62.881-32.985 34.091-54.378 78.848-60.239 126.023-.051 5.046 2.429 7.854 7.443 8.425h183.06c4.142 0 7.5-3.358 7.5-7.5v-182.964zm-15 175.463h-166.889c6.834-40.849 26.14-79.287 54.906-109.018 30.625-31.653 69.272-51.617 111.983-57.896z"/><path d="m491.59 157.131c-39.911-92.951-133.982-157.13-235.59-157.131-60.418 0-119.119 21.548-165.288 60.676-7.397 6.27 2.3 17.713 9.698 11.443 43.463-36.833 98.719-57.119 155.59-57.119 129.984.002 241 111.012 241 241 0 132.887-108.112 240.999-241 241-129.985-.002-240.998-111.013-241-241 0-57.813 20.87-113.761 58.766-157.537 6.346-7.332-4.996-17.151-11.341-9.817-40.256 46.501-62.425 105.936-62.425 167.354.002 138.158 117.84 255.998 256 256 141.159-.001 256-114.842 256-256 0-34.064-6.867-67.328-20.41-98.869z"/></g></svg>