<svg id="Layer_1" enable-background="new 0 0 510.665 510.665" height="512" viewBox="0 0 510.665 510.665" width="512" xmlns="http://www.w3.org/2000/svg"><path d="m444.492 130.892c-20.861-34.508-50.446-62.575-85.556-81.164-12.109-6.414-23.869 11.714-12.204 19.865 42.524 29.715 67.912 78.304 67.912 129.975 0 39.129-14.724 76.713-41.459 105.826-24.828 27.036-57.918 44.512-93.901 49.76v-74.396c22.404-4.721 43.301-16.137 59.398-32.604 17.657-18.064 29.082-41.713 32.169-66.589 1.817-14.636.863-29.259-2.836-43.464-2.442-9.385-16.96-5.605-14.516 3.779 3.173 12.187 4.026 25.271 2.466 37.837-2.686 21.639-12.634 42.22-28.01 57.951-13.289 13.595-30.325 23.246-48.671 27.722v-20.792c15.308-4.733 29.083-14.004 39.25-26.545 11.625-14.34 18.026-32.385 18.026-50.811s-6.402-36.471-18.026-50.812c-10.166-12.541-23.941-21.812-39.25-26.546v-20.642c23.887 6.033 44.162 18.759 55.289 35.008 5.247 7.663 17.851-.479 12.376-8.475-13.73-20.05-38.722-35.457-67.665-41.953v-30.94c0-30.433-47.903-30.586-47.903 0v30.838c-24.72 5.184-47.252 18.358-63.984 37.58-18.357 21.089-28.466 48.059-28.466 75.941s10.109 54.852 28.466 75.94c16.732 19.223 39.264 32.396 63.984 37.581v74.41c-35.981-5.206-69.072-22.66-93.9-49.697-26.736-29.115-41.46-66.728-41.46-105.908 0-51.672 25.388-100.261 67.913-129.976 11.268-7.873.332-26.502-12.204-19.865-35.111 18.589-64.696 46.657-85.558 81.167-20.908 34.587-31.959 73.852-31.959 113.549 0 42.125 12.336 83.384 35.675 119.315 5.281 8.133 17.861-.039 12.579-8.171-21.755-33.493-33.254-71.926-33.254-111.145 0-59.703 27.244-117.015 71.921-155.681-25.607 30.822-40.113 69.931-40.113 110.806 0 42.948 16.128 84.164 45.412 116.054 29.224 31.824 68.915 51.519 111.762 55.456 4.926-.081 7.654-2.571 8.186-7.469v-340.725c0-11.144 17.903-11.144 17.903 0v340.718c.533 4.902 3.264 7.391 8.195 7.468 42.845-3.987 82.533-23.708 111.754-55.527 29.284-31.889 45.412-73.075 45.412-115.972 0-40.875-14.507-79.984-40.114-110.806 44.677 38.667 71.922 95.979 71.922 155.682 0 32.171-7.913 64.416-22.882 93.251-13.499 26.001-32.754 49.336-55.966 67.898-6.895-9.862-18.45-24.71-31.792-35.04-2.416-1.871-5.723-2.088-8.365-.552-13.269 7.725-31.943 13.911-51.234 16.972-7.034 1.116-8.563 10.889-2.207 14.101 22.506 11.372 36.444 34.217 47.743 54.737 5.276 9.585-10.141 18.7-15.534 8.891-11.302-20.555-22.99-41.811-47.219-49.295-5.65-.881-8.888 1.507-9.713 7.166v64.976c0 11.181-17.903 11.69-17.903 0v-64.92c-.829-5.668-4.073-8.055-9.731-7.161-22.552 7.027-34.25 25.634-47.199 49.229-5.192 9.458-21.05 1.16-15.703-8.585 12.156-22.147 26.444-44.161 48.495-55.186 6.333-3.167 4.911-12.88-2.065-14.097-21.59-3.767-38.281-9.263-51.027-16.804-2.646-1.565-5.979-1.357-8.41.525-13.572 10.507-25.25 25.607-32.182 35.595-8.147-6.438-15.876-13.537-23.046-21.174-6.637-7.069-17.573 3.197-10.936 10.267 9.614 10.24 20.169 19.58 31.373 27.761 4.165 2.425 7.746 1.751 10.745-2.021 4.467-6.998 15.758-23.58 29.442-35.456 9.515 5.028 20.418 9.054 33.346 12.288-11.16 9.065-23.989 23.947-38.884 51.085-14.431 26.298 27.326 49.756 42.002 23.02 9.281-16.911 17.249-30.157 28.78-37.579v53.21c0 30.798 47.903 30.848 47.903 0v-53.33c12.358 7.831 20.096 21.902 28.79 37.713 14.525 26.424 56.767 3.799 41.816-23.354-9.655-17.537-21.155-36.666-38.237-50.546 12.393-3.192 24.033-7.502 33.732-12.534 13.494 11.708 24.706 28.068 29.149 34.975 3.022 3.771 6.613 4.427 10.772 1.968 27.822-20.614 50.844-47.529 66.578-77.834 16.073-30.96 24.569-65.596 24.569-100.162 0-39.699-11.052-78.964-31.961-113.551zm-213.111 97.829c-10.705-4.166-20.291-11.102-27.597-20.114-9.466-11.677-14.679-26.368-14.679-41.365s5.213-29.688 14.679-41.366c7.305-9.012 16.892-15.947 27.597-20.114zm-52.67 4.613c-15.98-18.358-24.78-41.83-24.78-66.092s8.801-47.734 24.78-66.093c13.888-15.954 32.347-27.14 52.67-32.071v20.807c-15.308 4.734-29.083 14.005-39.25 26.546-11.624 14.34-18.026 32.385-18.026 50.811s6.402 36.471 18.026 50.811c10.166 12.541 23.941 21.812 39.249 26.545v20.807c-20.322-4.931-38.781-16.117-52.669-32.071zm128.17-107.458c9.466 11.677 14.679 26.368 14.679 41.366s-5.213 29.688-14.679 41.365c-7.305 9.012-16.892 15.948-27.597 20.114v-122.959c10.705 4.167 20.292 11.102 27.597 20.114z"/></svg>