<svg id="Layer_1" enable-background="new 0 0 512.001 512.001" height="512" viewBox="0 0 512.001 512.001" width="512" xmlns="http://www.w3.org/2000/svg"><g><path d="m493.767 217.094c10.065 0 18.4-8.472 18.23-18.537v-14.582c-.165-9.886-8.586-17.928-18.474-17.928h-34.423v-13.645h34.667c10.065 0 18.4-8.472 18.23-18.537v-14.582c-.165-9.886-8.586-17.928-18.474-17.928h-59.858c-14.122 0-25.611 11.489-25.611 25.612v103.508h-126.531v-126.528h103.536c14.123 0 25.612-11.49 25.612-25.612v-60.102c0-10.073-8.475-18.382-18.537-18.23h-14.58c-9.886.165-17.929 8.586-17.929 18.473v34.425h-13.655v-34.668c0-10.072-8.475-18.384-18.537-18.23h-14.583c-9.885.166-17.927 8.588-17.927 18.474v34.424h-13.4v-34.668c0-10.059-8.475-18.404-18.537-18.23h-14.581c-9.886.165-17.928 8.587-17.928 18.474v34.424h-13.399v-34.668c0-10.084-8.475-18.366-18.537-18.23h-14.582c-9.886.165-17.928 8.587-17.928 18.474v34.424h-13.655v-34.668c0-10.076-8.474-18.383-18.537-18.23h-14.582c-9.885.166-17.928 8.588-17.928 18.474v59.858c0 14.123 11.49 25.612 25.612 25.612h12.467c9.697 0 9.697-15 0-15h-12.467c-5.852 0-10.612-4.761-10.612-10.612v-59.858c0-1.753 1.426-3.447 3.179-3.476h14.581c1.999.159 3.094 1.237 3.287 3.232v42.079c0 4.185 3.404 7.589 7.589 7.589h28.478c4.185 0 7.589-3.404 7.589-7.589v-41.835c0-1.753 1.426-3.447 3.178-3.476h14.583c1.998.159 3.093 1.237 3.286 3.232v42.079c0 4.185 3.404 7.589 7.589 7.589h28.221c4.184 0 7.588-3.404 7.588-7.589v-41.835c0-1.753 1.427-3.447 3.179-3.476h14.582c1.998.159 3.094 1.237 3.286 3.232v42.079c0 4.185 3.404 7.589 7.589 7.589h28.222c4.186 0 7.59-3.404 7.59-7.589v-41.835c0-1.753 1.426-3.447 3.178-3.476h14.582c1.999.159 3.095 1.236 3.287 3.232v42.079c0 4.185 3.404 7.589 7.589 7.589h28.478c4.185 0 7.589-3.404 7.589-7.589v-41.836c0-1.752 1.426-3.446 3.179-3.475h14.58c1.999.159 3.095 1.236 3.287 3.232v60.103c0 5.852-4.761 10.612-10.612 10.612h-110.95c-4.185 0-7.589 3.404-7.589 7.589v141.352c0 4.185 3.404 7.589 7.589 7.589h141.353c4.186 0 7.59-3.404 7.59-7.589v-110.921c0-5.852 4.76-10.612 10.611-10.612h59.858c1.753 0 3.446 1.426 3.476 3.178v14.583c-.159 1.998-1.237 3.093-3.232 3.286h-42.078c-4.185 0-7.589 3.404-7.589 7.589v28.467c0 4.185 3.404 7.589 7.589 7.589h41.835c1.753 0 3.446 1.426 3.476 3.178v14.583c-.159 1.998-1.237 3.093-3.232 3.286h-42.078c-4.185 0-7.589 3.405-7.589 7.589v28.205c0 4.185 3.404 7.589 7.589 7.589h41.835c1.753 0 3.446 1.426 3.476 3.179v14.582c-.159 1.998-1.237 3.093-3.232 3.286h-42.078c-4.185 0-7.589 3.405-7.589 7.589v28.205c0 4.185 3.404 7.589 7.589 7.589h41.835c1.753 0 3.446 1.426 3.476 3.179v14.582c-.159 1.998-1.237 3.093-3.232 3.286h-42.078c-4.185 0-7.589 3.404-7.589 7.589v28.467c0 4.185 3.404 7.589 7.589 7.589h41.835c1.753 0 3.446 1.426 3.476 3.179v14.583c-.159 1.998-1.237 3.093-3.232 3.286h-60.102c-5.852 0-10.611-4.76-10.611-10.612v-110.92c0-4.185-3.404-7.589-7.59-7.589h-141.357c-4.185 0-7.589 3.405-7.589 7.589v51.593c0 9.697 15 9.697 15 0v-44.183h126.531v103.509c0 14.123 11.489 25.612 25.611 25.612h60.102c10.064 0 18.4-8.473 18.23-18.537v-14.582c-.165-9.886-8.586-17.929-18.474-17.929h-34.423v-13.645h34.667c10.065 0 18.4-8.472 18.23-18.537v-14.581c-.165-9.886-8.586-17.929-18.474-17.929h-34.423v-13.383h34.667c10.065 0 18.4-8.472 18.23-18.537v-14.581c-.165-9.886-8.586-17.929-18.474-17.929h-34.423v-13.383h34.667z"/><path d="m385.059 408.053h-103.536v-43.68c0-9.697-15-9.697-15 0v51.091c0 4.185 3.404 7.589 7.589 7.589h110.947c5.852 0 10.612 4.761 10.612 10.613v60.102c-.192 1.996-1.288 3.073-3.287 3.232l-14.58-.243c-1.753-.029-3.179-1.479-3.179-3.232v-41.836c0-4.185-3.404-7.589-7.589-7.589h-28.478c-4.185 0-7.589 3.404-7.589 7.589v41.835c0 1.753-1.426 3.203-3.179 3.232l-14.583.244c-1.998-.159-3.093-1.236-3.285-3.232v-42.079c0-4.185-3.405-7.589-7.59-7.589h-28.222c-4.185 0-7.589 3.404-7.589 7.589v41.835c0 1.753-1.426 3.203-3.179 3.232l-14.579.244c-1.998-.159-3.094-1.237-3.287-3.232v-42.079c0-4.185-3.404-7.589-7.588-7.589h-28.221c-4.185 0-7.589 3.404-7.589 7.589v41.835c0 1.753-1.426 3.203-3.179 3.232l-14.582.244c-1.998-.159-3.093-1.237-3.286-3.232v-42.079c0-4.185-3.404-7.589-7.589-7.589h-28.478c-4.185 0-7.589 3.404-7.589 7.589v41.835c0 1.753-1.426 3.203-3.179 3.232l-14.58.244c-1.999-.159-3.094-1.236-3.287-3.232v-60.102c0-5.852 4.761-10.613 10.612-10.613h110.946c4.184 0 7.588-3.404 7.588-7.589v-141.351c0-4.185-3.404-7.589-7.588-7.589h-141.351c-4.185 0-7.589 3.405-7.589 7.589v110.919c0 5.852-4.76 10.612-10.612 10.612h-59.859c-1.753 0-3.446-1.426-3.476-3.179v-14.581c.159-1.999 1.237-3.095 3.232-3.287h42.079c4.185 0 7.589-3.404 7.589-7.589v-28.467c0-4.185-3.404-7.589-7.589-7.589h-41.834c-1.753 0-3.447-1.426-3.476-3.179v-14.581c.159-1.999 1.237-3.094 3.232-3.287h42.079c4.185 0 7.589-3.404 7.589-7.589v-28.205c0-4.185-3.404-7.589-7.589-7.589h-41.835c-1.753 0-3.447-1.426-3.476-3.179v-14.581c.159-1.999 1.237-3.094 3.232-3.287h42.079c4.185 0 7.589-3.404 7.589-7.589v-28.205c0-4.185-3.404-7.589-7.589-7.589h-41.836c-1.753 0-3.446-1.426-3.476-3.179v-14.581c.159-1.999 1.237-3.095 3.232-3.287h42.079c4.185 0 7.589-3.404 7.589-7.589v-28.467c0-4.185-3.404-7.589-7.589-7.589h-41.834c-1.753 0-3.447-1.426-3.476-3.179v-14.581c.159-1.999 1.237-3.094 3.232-3.287h60.102c5.852 0 10.612 4.761 10.612 10.612v110.919c0 4.185 3.404 7.589 7.589 7.589h141.352c4.184 0 7.588-3.404 7.588-7.589v-141.348c0-4.185-3.404-7.589-7.588-7.589h-58.51c-9.697 0-9.697 15 0 15h51.099v126.529h-126.53v-103.507c0-14.123-11.49-25.612-25.612-25.612h-60.102c-10.066 0-18.398 8.473-18.23 18.537v14.581c.165 9.886 8.587 17.928 18.474 17.928h34.424v13.645h-34.668c-10.065 0-18.398 8.473-18.23 18.537v14.581c.165 9.886 8.586 17.928 18.474 17.928h34.424v13.383h-34.668c-10.066 0-18.398 8.473-18.23 18.537v14.581c.165 9.886 8.587 17.928 18.474 17.928h34.424v13.383h-34.668c-10.066 0-18.398 8.473-18.23 18.537v14.581c.165 9.886 8.587 17.928 18.474 17.928h34.424v13.645h-34.668c-10.065 0-18.398 8.473-18.23 18.537v14.581c.165 9.886 8.586 17.929 18.474 17.929h59.859c14.123 0 25.612-11.49 25.612-25.612v-103.509h126.53v126.53h-103.536c-14.123 0-25.612 11.49-25.612 25.613v60.102c0 10.062 8.473 18.404 18.537 18.23l14.581-.244c9.886-.165 17.928-8.343 17.928-18.23v-34.424h13.655v34.667c0 10.047 8.473 18.427 18.538 18.23l14.581-.244c9.886-.165 17.928-8.343 17.928-18.23v-34.423h13.399v34.668c0 10.094 8.476 18.352 18.537 18.23l14.581-.244c9.886-.165 17.929-8.343 17.929-18.23v-34.424h13.4v34.667c0 10.059 8.472 18.406 18.536 18.23l14.582-.244c9.886-.165 17.929-8.343 17.929-18.23v-34.423h13.655v34.425c0 9.887 8.043 18.065 17.929 18.23l14.58.243c9.82.138 18.537-8.378 18.537-18.23v-60.102c0-14.123-11.49-25.613-25.613-25.613z"/></g></svg>