<svg id="Layer_1" enable-background="new 0 0 512 512" height="512" viewBox="0 0 512 512" width="512" xmlns="http://www.w3.org/2000/svg"><path d="m450.558 292.77c29.91-37.616 46.433-80.806 49.11-128.37.544-9.684-14.433-10.52-14.977-.843-2.5 44.405-17.934 84.737-45.874 119.876-39.002 49.051-98.545 76.579-160.646 80.129 8.998-7.969 20.404-19.289 31.853-33.921 22.596-28.879 49.53-76.642 49.53-140.176 0-22.884-3.272-43.571-8.485-62.024 53.839-34.907 109.884-35.08 126.231-34.265 1.765 6.076 4.737 17.94 6.441 33.734 1.018 9.431 15.967 8.153 14.914-1.609-2.714-25.153-8.447-41.125-8.689-41.793-.967-2.659-3.348-4.548-6.157-4.884-1.844-.221-28.826-3.212-65.175 4.767-14.451-39.845-35.038-63.597-35.953-64.639-1.867-2.125-4.767-3.02-7.505-2.316-1.31.337-30.807 8.118-64.587 31.999-14.027-17.763-31.024-35.368-50.484-47.325-2.408-1.479-5.443-1.479-7.852 0-19.452 11.951-36.476 29.585-50.484 47.325-33.779-23.881-63.276-31.662-64.587-31.999-2.737-.704-5.638.19-7.505 2.316-.915 1.042-21.502 24.793-35.953 64.639-36.35-7.979-63.335-4.988-65.175-4.766-2.809.336-5.19 2.225-6.157 4.884-.41 1.129-10.053 28.103-10.076 67.429-.021 36.286 8.547 90.347 49.484 141.833 10.291 12.943 21.348 23.903 32.7 33.211-47.493 12.783-70.744 40.904-71.81 42.222-2.227 2.752-2.227 6.686 0 9.438.7.865 17.534 21.338 51.716 35.418 8.63 3.557 14.644-10.19 5.713-13.869-20.95-8.63-34.685-19.988-41.252-26.28 9.254-8.891 32.807-27.843 71.371-35.152 27.548 18.743 59.172 31.094 91.898 37.06-3.373 8.902-5.518 18.093-6.414 27.486-16.777 5.806-34.61 8.755-53.088 8.755-9.851 0-19.56-.786-28.856-2.337-9.566-1.591-12.031 13.2-2.468 14.796 10.11 1.686 20.649 2.541 31.324 2.541 18.246 0 35.94-2.647 52.749-7.862 1.289 25.154 11.049 48.756 28.434 68.57 14.055 16.019 28.118 23.953 28.71 24.282 2.434 1.266 4.868 1.266 7.303 0 .592-.33 14.655-8.263 28.71-24.282 17.307-19.726 27.056-43.205 28.415-68.234 16.618 4.991 34.317 7.525 52.768 7.525 77.074 0 118.073-46.255 119.78-48.224 2.445-2.819 2.445-7.008 0-9.827-1.124-1.296-25.578-28.96-71.917-41.807 11.447-9.354 22.598-20.385 32.972-33.431zm-76.177-260.419c5.887 7.678 19.338 26.963 29.635 54.739-18.153 5.214-37.927 13.266-57.682 25.588-7.429-20.67-17.134-38.085-26.839-52.169 23.917-16.837 45.744-25.137 54.886-28.158zm-118.201-15.796c55.312 39.335 88.374 105.356 88.374 172.912 0 47.395-15.48 91.304-46.012 130.508-17.222 22.112-34.647 36.404-42.368 42.223-7.659-5.762-24.852-19.849-42.024-41.798-21.142-27.022-46.344-71.672-46.344-130.933 0-67.584 33.018-133.546 88.374-172.912zm-118.189 15.791c9.13 3.005 30.883 11.262 54.873 28.162-9.705 14.083-19.409 31.499-26.839 52.169-19.754-12.322-39.528-20.374-57.681-25.588 10.273-27.684 23.761-47.045 29.647-54.743zm-20.067 292.681c-15.888-11.655-31.609-25.527-44.382-41.592-30.572-38.45-46.124-82.829-46.224-131.902-.057-27.853 5.165-49.404 7.754-58.367 16.346-.847 72.244-.733 126.219 34.276-5.213 18.453-8.485 39.14-8.485 62.024 0 63.535 26.935 111.297 49.53 140.176 9.562 12.221 20.235 23.631 31.853 33.921-40.959-2.34-82.877-14.044-116.265-38.536zm159.69 151.45c-8.334 9.589-16.779 15.978-21.435 19.144-4.659-3.168-13.103-9.556-21.435-19.144-16.266-18.716-24.513-40.255-24.513-64.019 0-12.17 2.396-24.028 7.123-35.327 24.975 3.041 52.689 3.04 77.651 0 4.727 11.299 7.12 23.158 7.12 35.327.002 23.763-8.245 45.302-24.511 64.019zm195.556-103.56c-12.472 11.303-47.939 38.143-103.446 38.143-18.704 0-36.522-2.813-53.048-8.35-.873-9.534-3.031-18.862-6.453-27.892 32.647-5.951 64.192-18.257 91.694-36.924 37.115 7.346 61.39 26.064 71.253 35.023z"/></svg>