<svg id="Layer_1" enable-background="new 0 0 514.23 514.23" height="512" viewBox="0 0 514.23 514.23" width="512" xmlns="http://www.w3.org/2000/svg"><g><path d="m512.693 404.679-50.618-227.355c-2.058-9.243-11.286-15.265-20.576-13.426l-20.483 4.058-21.638-10.189c-1.439-.678-3.112-.881-4.672-.567l-118.511 23.807c-7.709 1.548-14.359 5.746-19.08 11.525-4.721-5.779-11.371-9.976-19.08-11.525l-118.51-23.807c-1.559-.313-3.233-.11-4.672.567l-21.638 10.189-20.484-4.059c-9.29-1.841-18.518 4.184-20.576 13.427l-50.618 227.355c-2.115 9.502 4.154 19.144 13.698 21.062l55.155 11.081c9.207 1.849 12.308-12.827 2.954-14.706l-55.154-11.081c-1.537-.468-2.207-1.5-2.011-3.096l50.618-227.354c.307-1.381 1.632-2.247 3.02-1.973l9.793 1.94-46.927 210.774c-.896 4.037 1.793 8.169 5.844 8.983l217.051 43.604c1.006.21 2.069.21 3.076 0l217.05-43.604c4.049-.814 6.739-4.947 5.844-8.983l-29.422-132.154c-2.107-9.465-16.748-6.206-14.642 3.26l25.397 114.072-13.857-9.124-42.195-189.524 13.211 6.22 8.646 38.839c2.07 9.298 16.76 6.258 14.642-3.26l-8.706-39.103 9.793-1.94c1.386-.274 2.712.592 3.02 1.973l50.618 227.354c.197 1.596-.474 2.628-2.011 3.096-79.642 16-159.284 31.999-238.925 47.999-48.044-9.652-96.089-19.304-144.133-28.956-9.507-1.913-12.461 12.796-2.954 14.706l58.38 11.728-42.694 13.38c-27.785 8.708-14.318 51.906 13.526 43.181l117.528-36.832 117.528 36.832c27.78 8.709 41.363-34.457 13.525-43.181l-42.422-13.294 153.596-30.856c9.542-1.919 15.81-11.561 13.696-21.063zm-71.879-24.744 14.061 9.259-190.26 38.222v-12.084zm-367.398 0 176.199 35.397v12.084l-190.26-38.222zm176.199-166.434v186.531l-168.762-33.903 42.919-192.776 111.309 22.36c8.422 1.692 14.534 9.172 14.534 17.788zm-155.423-29.425 13.211-6.22-42.196 189.524-13.857 9.125zm170.423 215.956v-186.531c0-8.615 6.112-16.096 14.534-17.788l111.309-22.36 42.919 192.776zm-129.861 98.728c-9.399 2.947-13.958-11.606-4.555-14.554l68.774-21.553 31.076 6.243zm248.582-14.555c9.403 2.948 4.845 17.5-4.555 14.554l-95.023-29.779 31.075-6.243z"/><path d="m143.685 217.295 75.225 14.333c9.232 1.759 12.171-12.951 2.808-14.735l-75.225-14.333c-9.525-1.809-12.335 12.919-2.808 14.735z"/><path d="m135.373 260.211 83.537 15.917c9.232 1.759 12.171-12.951 2.808-14.735l-83.537-15.917c-9.525-1.809-12.334 12.919-2.808 14.735z"/><path d="m121.528 294.356c-.775 4.069 1.895 7.996 5.964 8.771l91.418 17.419c9.232 1.759 12.171-12.951 2.808-14.735l-91.418-17.419c-4.067-.773-7.996 1.894-8.772 5.964z"/><path d="m221.718 350.777-102.176-19.469c-9.526-1.809-12.334 12.92-2.808 14.735l102.176 19.469c9.232 1.759 12.171-12.951 2.808-14.735z"/><path d="m292.597 231.762c.465 0 .938-.043 1.412-.134l75.225-14.333c9.526-1.815 6.719-16.549-2.808-14.735l-75.225 14.333c-8.799 1.677-7.336 14.869 1.396 14.869z"/><path d="m292.597 276.262c.465 0 .938-.043 1.412-.134l83.536-15.917c9.526-1.815 6.718-16.552-2.808-14.735l-83.536 15.917c-8.799 1.677-7.335 14.869 1.396 14.869z"/><path d="m382.619 288.392-91.418 17.419c-9.386 1.789-6.284 16.468 2.808 14.735l91.418-17.419c9.526-1.815 6.718-16.555-2.808-14.735z"/><path d="m285.238 359.548c.709 3.721 5.06 6.671 8.771 5.964l102.176-19.469c9.525-1.815 6.719-16.557-2.808-14.735l-102.176 19.469c-4.068.775-6.738 4.702-5.963 8.771z"/><path d="m192.714 114.647v30.226c0 4.142 3.358 7.5 7.5 7.5h30.226l21.373 21.373c3.535 2.929 7.071 2.929 10.606 0l21.373-21.373h30.226c4.142 0 7.5-3.358 7.5-7.5v-30.226l21.373-21.373c2.929-3.535 2.929-7.071 0-10.606l-21.373-21.373v-30.226c0-4.142-3.358-7.5-7.5-7.5h-30.226l-21.374-21.372c-2.929-2.929-7.678-2.929-10.606 0l-21.373 21.373h-30.226c-4.142 0-7.5 3.358-7.5 7.5v30.226l-21.373 21.373c-2.929 3.535-2.929 7.071 0 10.606zm12.803-44.943c1.407-1.406 2.197-3.314 2.197-5.303v-25.832h25.832c1.989 0 3.897-.79 5.303-2.197l18.266-18.266 18.266 18.266c1.406 1.407 3.314 2.197 5.303 2.197h25.832v25.832c0 1.989.79 3.897 2.197 5.303l18.267 18.266-18.267 18.267c-1.407 1.406-2.197 3.314-2.197 5.303v25.832h-25.832c-1.989 0-3.897.79-5.303 2.197l-18.266 18.266-18.266-18.266c-1.406-1.407-3.314-2.197-5.303-2.197h-25.832v-25.832c0-1.989-.79-3.897-2.197-5.303l-18.267-18.267z"/><path d="m223.526 101.884v12.176c0 4.142 3.358 7.5 7.5 7.5h12.176l8.61 8.61c3.535 2.929 7.071 2.929 10.606 0l8.61-8.61h12.176c4.142 0 7.5-3.358 7.5-7.5v-12.176l8.61-8.61c2.929-3.535 2.929-7.071 0-10.606l-8.61-8.61v-12.177c0-4.142-3.358-7.5-7.5-7.5h-12.176l-8.61-8.61c-2.929-2.929-7.678-2.929-10.606 0l-8.61 8.61h-12.176c-4.142 0-7.5 3.358-7.5 7.5v12.176l-8.61 8.61c-2.929 3.535-2.929 7.071 0 10.606zm12.803-19.417c2.717-2.716 2.726-9.533 2.197-13.086 7.571 1.084 14.002-1.581 18.589-7.7 4.587 6.119 11.019 8.784 18.589 7.7-1.084 7.571 1.581 14.002 7.7 18.589-6.12 4.587-8.784 11.019-7.7 18.59-7.571-1.084-14.002 1.581-18.589 7.7-4.587-6.119-11.019-8.784-18.589-7.7 1.084-7.571-1.581-14.003-7.7-18.59z"/></g></svg>