<svg id="Layer_1" enable-background="new 0 0 512.875 512.875" height="512" viewBox="0 0 512.875 512.875" width="512" xmlns="http://www.w3.org/2000/svg"><g><path d="m423.623 410.572c-13.248 0-24.025 10.778-24.025 24.026v35.416c0 4.142 3.357 7.5 7.5 7.5h33.055c4.143 0 7.5-3.358 7.5-7.5v-35.416c-.001-13.249-10.778-24.026-24.03-24.026zm9.029 51.941h-18.055v-27.916c0-4.977 4.049-9.026 9.029-9.026 4.977 0 9.025 4.049 9.025 9.026v27.916z"/><path d="m86.729 410.572c-13.248 0-24.026 10.778-24.026 24.026v35.416c0 4.142 3.358 7.5 7.5 7.5h33.056c4.142 0 7.5-3.358 7.5-7.5v-35.416c-.001-13.249-10.778-24.026-24.03-24.026zm9.029 51.941h-18.055v-27.916c0-4.977 4.049-9.026 9.03-9.026 4.977 0 9.026 4.049 9.026 9.026v27.916z"/><path d="m505.375 497.442h-8.424v-106.324c18.679-6.787 19.359-34.058 1.014-41.721 3.395-8.111 5.117-16.639 5.117-25.438 0-35.862-26.729-48.848-44.416-57.44-9.333-4.176-18.213-10.661-24.145-19.066 5.983-3.679 9.993-10.266 9.993-17.789 0-8.873-5.571-16.453-13.391-19.475v-18.448c0-4.142-3.357-7.5-7.5-7.5s-7.5 3.358-7.5 7.5v18.448c-7.82 3.023-13.391 10.602-13.391 19.475 0 7.522 4.009 14.108 9.99 17.787-7.418 10.517-18.397 16.13-29.556 21.729 3.3-10.257 4.967-20.885 4.967-31.772 0-28.615-12.132-51.132-37.089-68.837-7.91-5.609-16.588 6.622-8.68 12.234 20.991 14.892 30.769 32.878 30.769 56.603 0 14.999-3.702 29.446-11.003 42.942-.403.745-1.151 1.208-1.952 1.208h-210.004c-.801 0-1.549-.463-1.952-1.208-7.301-13.496-11.002-27.943-11.002-42.942 0-44.514 35.783-61.509 64.536-75.165 21.025-9.988 40.479-22.752 53.412-42.57 10.815 16.677 27.998 30.483 52.263 42.015 8.439 4.009 15.174-9.397 6.439-13.548-21.553-10.243-36.665-22.204-45.963-36.398 5.262-3.797 8.706-9.965 8.706-16.935 0-3.121-.707-6.073-1.939-8.735 12.597-4.765 22.972-15.16 27.357-28.428 2.244-6.793-5.812-12.635-11.571-8.391-10.074 7.427-24.906 6.588-33.851-2.359-9.255-9.258-9.089-24.396.025-33.703 5.161-5.27.028-14.29-7.14-12.533-20.009 4.892-34.584 23.229-34.658 43.602-.043 11.974 4.58 23.215 13.018 31.653 3.084 3.084 6.545 5.653 10.276 7.675-2.076 3.245-3.297 7.088-3.297 11.218 0 6.63 3.114 12.536 7.946 16.365-11.445 17.558-28.865 28.693-47.458 37.521-29.109 13.826-73.1 34.72-73.1 88.715 0 10.887 1.667 21.515 4.967 31.772-11.159-5.599-22.139-11.213-29.559-21.727 5.983-3.679 9.994-10.266 9.994-17.789 0-8.873-5.571-16.453-13.391-19.475v-18.448c0-4.142-3.358-7.5-7.5-7.5s-7.5 3.358-7.5 7.5v18.448c-7.82 3.023-13.391 10.602-13.391 19.475 0 7.522 4.01 14.108 9.99 17.787-5.929 8.407-14.807 14.89-24.14 19.068-17.688 8.592-44.418 21.578-44.418 57.441 0 8.952 1.779 17.624 5.292 25.861-17.126 8.11-16.646 33.464.84 40.874v106.749h-5.03c-4.142 0-7.5 3.358-7.5 7.5s3.358 7.5 7.5 7.5h497c4.143 0 7.5-3.358 7.5-7.5s-3.358-7.501-7.5-7.501zm-249.652-396.746c-3.248 0-5.891-2.643-5.891-5.891s2.643-5.891 5.891-5.891 5.89 2.643 5.89 5.891-2.643 5.891-5.89 5.891zm-21.14-72.202c-.888 22.388 18.149 40.815 40.229 40.889-11.43 7.141-26.831 5.445-36.352-4.077-9.729-9.729-11.288-25.274-3.877-36.812zm-212.471 348.962c-9.552 0-9.552-14.78 0-14.78h110.253v14.78zm467.221-14.78c9.558 0 9.548 14.78 0 14.78h-111.343v-14.78zm-344.723-51.277c-4.075 0-7.39-3.315-7.39-7.39 0-3.592 2.578-6.591 5.981-7.252 1.006.161 2.035.11 3.024-.138h218.235c.817.174 1.657.207 2.485.106 3.505.576 6.19 3.618 6.19 7.284 0 4.075-3.315 7.39-7.39 7.39zm233.38 81.057h103.961v104.986h-103.961zm39.744-162.794c0-3.248 2.643-5.891 5.891-5.891s5.891 2.643 5.891 5.891c0 3.16-2.504 5.74-5.631 5.877-.083-.003-.164-.02-.248-.02-.089 0-.174.017-.262.021-3.132-.132-5.641-2.714-5.641-5.878zm-22.597 50.348 1.957-.953c13.141-6.417 21.454-14.534 26.53-21.19 5.076 6.656 13.39 14.774 26.53 21.19l1.957.952c16.86 8.191 35.971 17.476 35.971 43.949 0 8.264-1.969 16.238-5.854 23.718h-104.238v-24.936c6.104-4.003 10.146-10.902 10.146-18.731 0-6.509-2.793-12.376-7.242-16.471 4.689-2.866 9.638-5.291 14.243-7.528zm-314.297-50.348c0-3.248 2.643-5.891 5.891-5.891s5.891 2.643 5.891 5.891c0 3.16-2.504 5.74-5.631 5.878-.084-.003-.164-.02-.248-.02-.089 0-.174.017-.262.021-3.132-.133-5.641-2.715-5.641-5.879zm-22.595 50.347 1.956-.952c13.141-6.417 21.454-14.534 26.53-21.19 5.076 6.656 13.389 14.773 26.53 21.19l1.958.953c4.606 2.237 9.554 4.662 14.244 7.528-4.449 4.095-7.242 9.962-7.242 16.47 0 7.829 4.042 14.728 10.146 18.731v24.936h-104.239c-3.886-7.48-5.855-15.455-5.855-23.718-.001-26.472 19.11-35.757 35.972-43.948zm-29.841 112.447h103.961v30.372c0 9.697 15 9.697 15 0v-67.468c.002-.062.009-.122.009-.184s-.008-.122-.009-.184v-28.593h215.625v171.042h-54.843v-102.784c0-29.204-23.76-52.963-52.975-52.963-29.204 0-52.963 23.759-52.963 52.963v102.784h-54.843v-29.334c0-9.697-15-9.697-15 0v29.334h-103.962zm264.743 104.986h-75.938v-102.785c0-20.933 17.03-37.963 37.975-37.963 20.934 0 37.964 17.03 37.964 37.963v102.785z"/></g></svg>