<svg id="Layer_1" enable-background="new 0 0 512.564 512.564" height="512" viewBox="0 0 512.564 512.564" width="512" xmlns="http://www.w3.org/2000/svg"><g><path d="m406.397 390.045c-4.747-8.456-17.826-1.113-13.08 7.344 13.061 23.262 19.964 49.75 19.964 76.599v31.303c0 9.697 15 9.697 15 0v-31.303c0-29.415-7.567-58.442-21.884-83.943z"/><path d="m328.176 317.887v-16.466c30.456-21.269 51.075-55.686 53.559-94.954 15.638-2.385 27.658-15.925 27.658-32.219 0-16.203-11.886-29.677-27.396-32.173v-16.571c0-69.203-56.301-125.504-125.504-125.504h-.422c-26.533 0-51.902 8.186-73.363 23.673-7.864 5.674.914 17.838 8.777 12.164 18.89-13.632 41.224-20.837 64.586-20.837h.422c60.932 0 110.504 49.572 110.504 110.503v64.004c-10.08-6.113-16.867-20.382-16.867-31.921v-29.288c0-21.645-17.66-39.254-39.367-39.254h-108.961c-21.707 0-39.367 17.609-39.367 39.254v29.288c0 11.596-6.821 25.828-16.867 31.921v-64.004c0-22.887 6.938-44.845 20.063-63.501 5.58-7.931-6.688-16.562-12.268-8.631-14.913 21.196-22.795 46.139-22.795 72.132v16.571c-15.51 2.497-27.396 15.97-27.396 32.173 0 16.294 12.02 29.834 27.658 32.219 2.484 39.267 23.103 73.685 53.559 94.954v16.466c-60.977 27.974-100.105 88.703-100.105 156.102v31.303c0 9.697 15 9.697 15 0v-31.303c0-59.229 33.109-112.814 85.248-139.504.799 19.851 5.372 65.44 29.914 90.572 9.545 9.774 21.074 15.462 34.337 17.001v15.443h-14.583c-4.143 0-7.5 3.358-7.5 7.5s3.357 7.5 7.5 7.5h14.583v32c0 9.697 15 9.697 15 0v-32h14.583c4.143 0 7.5-3.358 7.5-7.5s-3.357-7.5-7.5-7.5h-14.583v-15.443c13.263-1.539 24.792-7.227 34.337-17.001 24.543-25.132 29.115-70.722 29.914-90.573 15.675 8.026 29.795 18.585 42.083 31.499 6.722 7.063 17.529-3.34 10.867-10.34-15.189-15.962-32.937-28.641-52.808-37.755zm-15 3.174s.118 8.208 0 11.525c-.58 4.934-3.848 9.298-8.507 11.393-6.823 3.07-13.856 5.457-21.054 7.163v-30.136c10.392-2.298 20.306-5.884 29.561-10.589zm-69.227 2.318c8.183.788 16.483.788 24.666 0v30.286c-8.238.864-16.428.864-24.666 0zm150.444-149.131c0 7.893-5.224 14.587-12.396 16.81v-33.619c7.172 2.221 12.396 8.916 12.396 16.809zm-276.221 0c0-7.892 5.224-14.587 12.396-16.809v33.619c-7.172-2.223-12.396-8.918-12.396-16.81zm27.64 31.471c19.109-5.571 31.623-29.171 31.623-48.132v-29.288c0-13.374 10.931-24.254 24.367-24.254h108.961c13.437 0 24.367 10.88 24.367 24.254v29.288c0 18.907 12.465 42.547 31.623 48.132-3.75 57.562-51.766 103.248-110.26 103.248h-.422c-58.493 0-106.509-45.686-110.259-103.248zm83.137 115.287v30.136c-7.198-1.706-14.23-4.093-21.054-7.163-6.706-3.016-8.425-9.147-8.507-15.851v-17.711c9.256 4.705 19.169 8.291 29.561 10.589zm58.439 93.57c-8.493 8.696-18.668 12.924-31.105 12.924-12.429 0-22.597-4.221-31.086-12.905-13.956-14.276-20.38-37.63-23.331-56.882 34.328 15.402 74.529 15.399 108.854-.009-2.941 19.231-9.36 42.564-23.332 56.872z"/><path d="m152.524 457.988c-4.143 0-7.5 3.358-7.5 7.5v39.804c0 9.697 15 9.697 15 0v-39.804c0-4.142-3.357-7.5-7.5-7.5z"/><path d="m360.04 457.988c-4.143 0-7.5 3.358-7.5 7.5v39.804c0 9.697 15 9.697 15 0v-39.804c0-4.142-3.357-7.5-7.5-7.5z"/></g></svg>