<svg id="Layer_1" enable-background="new 0 0 512.809 512.809" height="512" viewBox="0 0 512.809 512.809" width="512" xmlns="http://www.w3.org/2000/svg"><g><path d="m256.699 211.283c-22.947 0-43.555 15.349-50.114 37.326-.987 3.307.41 6.861 3.386 8.61 13.858 8.148 29.771 12.214 45.761 12.214 16.48 0 33.043-4.32 47.521-12.944 2.992-1.782 4.363-5.388 3.313-8.708-6.915-21.83-26.954-36.498-49.867-36.498zm-33.525 35.957c6.174-12.584 19.211-20.957 33.525-20.957 14.264 0 26.965 7.967 33.243 20.345-20.785 10.011-46.25 10.245-66.768.612z"/><path d="m447.072 128.167h-64.382v-90.667c0-20.678-16.822-37.5-37.5-37.5h-128.001c-9.697 0-9.697 15 0 15h128.001c12.406 0 22.5 10.093 22.5 22.5v90.667c-74 0-148 0-222 0v-90.667c0-12.407 10.094-22.5 22.5-22.5h9.668c9.697 0 9.697-15 0-15h-9.668c-20.678 0-37.5 16.822-37.5 37.5v90.667h-64.952c-9.697 0-9.697 15 0 15h60.34c-13.192 4.173-22.783 16.527-22.783 31.081 0 13.073 7.74 24.365 18.874 29.555-2.877 1.23-5.917 3.345-8.124 7.367-3.742 6.821-1.587 12.729-.299 16.26 1.396 3.83.985 4.581-2.996 5.461-3.67.811-9.812 2.168-13.553 8.989-3.742 6.822-1.588 12.73-.3 16.261 1.398 3.831.983 4.584-2.998 5.464-3.669.811-9.811 2.168-13.553 8.99-4.548 8.29 8.541 15.618 13.15 7.215.361-.659.471-.857 3.64-1.558 3.669-.811 9.811-2.168 13.553-8.99s1.588-12.73.3-16.261c-1.397-3.83-.984-4.584 2.997-5.463 3.669-.811 9.812-2.168 13.554-8.99 3.74-6.821 1.585-12.729.298-16.259-1.447-3.966-.486-4.684 3.39-5.547 2.203 35.757 11.363 66.149 27.345 90.501 4.024 6.133 8.459 11.838 13.268 17.129-24.532 13.838-45.35 33.503-60.585 57.384-17.565 27.533-26.85 59.426-26.85 92.232v31.303c0 9.697 15 9.697 15 0v-31.303c0-29.942 8.471-59.046 24.495-84.164 12.164-19.067 28.231-35.183 47.045-47.38l-14.093 42.126c-.844 2.52-.29 5.298 1.455 7.303l17.487 20.094-12.954 38.596c-.918 2.736-.186 5.756 1.885 7.767l53.845 52.292c6.959 6.753 17.406-4.004 10.451-10.761l-50.458-49.001 12.818-38.19c.847-2.521.294-5.303-1.453-7.31l-17.49-20.098 12.481-37.309 64.421 160.088c2.452 6.091 11.483 6.36 14.021.05l18.576-46.163c1.546-3.843-.315-8.211-4.158-9.758-3.841-1.543-8.211.315-9.758 4.158l-11.661 28.978-36.981-91.898 36.987-24.864 36.977 24.857-11.092 27.565c-1.546 3.843.315 8.211 4.158 9.758s8.212-.315 9.758-4.158l13.358-33.195c.001-.002.002-.004.003-.006l18.254-45.362 12.48 37.308-17.489 20.098c-1.747 2.006-2.3 4.788-1.453 7.31l12.818 38.19-50.458 49.001c-6.969 6.77 3.515 17.493 10.451 10.761l53.845-52.292c2.07-2.011 2.803-5.031 1.885-7.767l-12.954-38.596 17.486-20.095c1.745-2.004 2.299-4.783 1.455-7.303l-14.144-42.279c18.868 12.2 34.98 28.338 47.176 47.441 16.042 25.128 24.521 54.246 24.521 84.205v31.303c0 9.697 15 9.697 15 0v-31.303c0-32.825-9.294-64.733-26.878-92.277-15.241-23.872-36.057-43.527-60.586-57.357 20.409-22.33 37.485-56.223 40.649-107.571 4.1.906 4.656 1.53 3.205 5.505-1.288 3.53-3.443 9.439.299 16.259 3.741 6.822 9.884 8.179 13.553 8.99 3.981.879 4.394 1.633 2.997 5.463-1.288 3.531-3.442 9.439.299 16.26 3.742 6.822 9.884 8.179 13.554 8.99 3.169.701 3.278.899 3.64 1.558 4.524 8.246 17.803 1.266 13.15-7.215-3.742-6.821-9.884-8.179-13.553-8.99-3.981-.88-4.395-1.634-2.998-5.464 1.288-3.531 3.442-9.439-.3-16.261-3.741-6.821-9.883-8.178-13.553-8.989-3.98-.88-4.394-1.632-2.996-5.461 1.288-3.531 3.443-9.439-.299-16.26-2.183-3.98-5.183-6.093-8.032-7.329 11.18-5.171 18.96-16.488 18.96-29.594 0-14.554-9.591-26.908-22.783-31.081h60.34c9.699.006 9.699-14.994.002-14.994zm-108.983 15c-.386 25.103-2.493 50.801-13.858 73.478-14.891-22.32-40.142-36.156-67.531-36.156-27.593 0-52.919 13.959-67.768 36.492-11.513-23.331-13.735-49.656-14.185-73.814zm-207.399 14.271v33.619c-7.172-2.222-12.396-8.917-12.396-16.81 0-7.892 5.224-14.587 12.396-16.809zm70.71 191.255c3.763 2.277 7.656 4.395 11.688 6.336 7.226 4.198 14.911 7.256 22.803 9.207l-22.224 14.94zm75.756 15.752c10.44-2.466 20.501-6.855 29.603-13.165 1.527-.846 3.066-1.74 4.614-2.678l-12.303 30.574zm46.916-44.279c-17.156 15.834-40.419 31.933-67.879 31.646-26.913-.281-49.922-15.479-67.634-31.709-23.764-21.776-42.87-59.245-42.87-120.66v-.103-50.185-5.989h14.056c.544 30.335 3.723 64.102 23.128 93.312 3.193 4.807 10.807 4.178 13.126-1.161 10.512-24.195 34.338-39.829 60.7-39.829 26.127 0 49.868 15.446 60.482 39.35 2.347 5.286 9.821 5.952 13.063 1.162 19.331-28.536 22.375-61.238 22.844-92.834h14.03v5.989 50.185c.001 38.481-8.131 87.573-43.046 120.826zm70.443-145.918c0 7.893-5.224 14.587-12.396 16.81v-33.619c7.172 2.221 12.396 8.916 12.396 16.809z"/></g></svg>