<svg id="Layer_1" enable-background="new 0 0 512.564 512.564" height="512" viewBox="0 0 512.564 512.564" width="512" xmlns="http://www.w3.org/2000/svg"><g><path d="m409.667 396.155c-10.823-21.246-26.234-40.272-44.773-55.381-.063-.052-.127-.105-.191-.157 11.41-18.771 17.293-39.917 17.293-62.879v-71.316c15.51-2.496 27.396-15.971 27.396-32.174 0-12.733-7.344-23.777-18.015-29.138 2.725-4.091 4.317-8.998 4.317-14.272v-64.292c-.148-36.221-30.235-66.546-66.546-66.546h-105.911c-9.697 0-9.697 15 0 15h105.911c21.882 0 40.609 13.711 48.077 32.988-45.009-12.172-85.645-6.845-112.751.248-25.361 6.635-43.291 15.738-50.155 19.548-26.02-8.196-53.15-13.584-80.358-15.728 6.272-21.336 26.007-36.998 49.332-37.053 9.472-.022 9.229-15-.035-15-36.253.086-66.209 30.401-66.388 66.542v64.292c0 5.274 1.592 10.181 4.317 14.272-10.671 5.36-18.015 16.404-18.015 29.138 0 16.205 11.888 29.68 27.4 32.174l-.005 71.315c0 23.063 5.828 44.252 17.128 63.014-.022.019-.042.039-.064.058-18.441 15.039-33.783 33.944-44.591 55.065-12.447 24.324-18.758 50.605-18.758 78.114v31.303c0 9.697 15 9.697 15 0v-31.303c0-25.109 5.757-49.092 17.111-71.281 7.4-14.461 17.127-27.789 28.63-39.343v102.124 39.804c0 9.697 15 9.697 15 0v-39.804-107.707c10.204 11.891 22.49 21.921 35.758 30.203v117.308c0 9.697 15 9.697 15 0v-108.852c23.371 11.882 42.904 16.204 43.917 16.422 1.076.23 2.151.225 3.225-.013 1.012-.227 20.514-4.706 43.858-16.7v109.144c0 9.697 15 9.697 15 0v-117.672c13.255-8.331 25.541-18.385 35.758-30.284v62.33c0 9.697 15 9.697 15 0v-56.306c11.572 11.623 21.345 25.045 28.761 39.603 11.268 22.12 16.981 46.016 16.981 71.025v31.303c0 9.697 15 9.697 15 0v-31.303c.001-27.397-6.262-53.584-18.614-77.833zm-242.917-236.46c-.744-1.064-1.514-2.067-2.297-3.04h183.657c-7.725 9.598-12.982 22.37-12.982 34.788v53.288c0 13.374-10.931 24.254-24.367 24.254h-108.96c-13.436 0-24.367-10.88-24.367-24.254v-53.288c.001-10.31-3.993-22.178-10.684-31.748zm215.247 31.362v-33.619c7.172 2.222 12.396 8.917 12.396 16.809 0 7.893-5.224 14.588-12.396 16.81zm-1.351-126.453c.024.645.049 1.29.049 1.941v64.292c0 5.965-4.853 10.817-10.818 10.817h-39.609c-22.599-28.314-55.412-51.098-96.124-66.919 25.94-11.547 82.571-30.195 146.502-10.131zm-70.17 77.051h-167.789c-5.965 0-10.818-4.853-10.818-10.817v-63.872c26.812 2.101 122.009 13.747 178.607 74.689zm-179.909 49.402c-7.172-2.222-12.396-8.917-12.396-16.81 0-7.892 5.224-14.587 12.396-16.809zm181.084 182.033c-24.275 15.934-48.959 23.042-55.399 24.72-57.181-14.439-110.685-56.937-110.685-120.072v-78.398-39.825c10.078 6.111 16.868 20.393 16.868 31.928v53.288c0 21.645 17.66 39.254 39.367 39.254h108.96c21.707 0 39.367-17.609 39.367-39.254v-53.288c0-11.593 6.823-25.837 16.868-31.928v39.825 78.397c0 39.166-18.621 71.248-55.346 95.353z"/><path d="m360.04 450.167c-4.142 0-7.5 3.358-7.5 7.5v47.625c0 9.697 15 9.697 15 0v-47.625c0-4.143-3.358-7.5-7.5-7.5z"/></g></svg>