<svg id="Layer_1" enable-background="new 0 0 512 512" height="512" viewBox="0 0 512 512" width="512" xmlns="http://www.w3.org/2000/svg"><g><path d="m429.881 0c-100.365 0-200.825 0-301.139 0-40.872 0-74.123 33.251-74.123 74.124v38.21c0 9.697 15 9.697 15 0v-38.21c0-31.298 24.45-56.98 55.251-58.983v376.553c-22.052 2.671-39.199 21.491-39.199 44.252s17.147 41.581 39.199 44.252v16.662c-30.801-2.003-55.251-27.684-55.251-58.983v-286.156c0-9.697-15-9.697-15 0v286.156c0 40.872 33.251 74.124 74.124 74.124h301.139c15.163 0 27.5-12.336 27.5-27.5v-457c-.001-15.165-12.338-27.501-27.501-27.501zm-329.209 435.945c0-16.315 13.274-29.589 29.589-29.589h236.18c9.697 0 9.697-15 0-15h-226.571v-376.356h290.011c6.893 0 12.5 5.607 12.5 12.5v363.856h-36.041c-9.697 0-9.697 15 0 15h36.041v59.179h-312.12c-16.315 0-29.589-13.274-29.589-29.59zm329.209 61.055h-290.011v-16.465h302.511v3.965c0 6.893-5.607 12.5-12.5 12.5z"/><path d="m381.048 201.284v-48.682c0-4.142-3.357-7.5-7.5-7.5h-56.306v-56.128c0-4.142-3.357-7.5-7.5-7.5h-49.027c-4.142 0-7.5 3.358-7.5 7.5v56.127h-54.737c-4.142 0-7.5 3.358-7.5 7.5v48.682c0 4.142 3.358 7.5 7.5 7.5h54.737v129.417c0 4.142 3.358 7.5 7.5 7.5h49.027c4.143 0 7.5-3.358 7.5-7.5v-129.416h56.306c4.143 0 7.5-3.358 7.5-7.5zm-15-7.5h-56.306c-4.143 0-7.5 3.358-7.5 7.5v129.416h-34.027v-129.416c0-4.142-3.357-7.5-7.5-7.5h-54.737v-33.682h54.737c4.143 0 7.5-3.358 7.5-7.5v-56.128h34.027v56.127c0 4.142 3.357 7.5 7.5 7.5h56.306z"/></g></svg>