<svg id="Layer_1" enable-background="new 0 0 512 512" height="512" viewBox="0 0 512 512" width="512" xmlns="http://www.w3.org/2000/svg"><path d="m512 250.949c0-12.237-8.642-22.487-20.135-24.963-1.042-6.34-2.378-12.668-3.996-18.917 6.802-4.591 11.285-12.376 11.285-21.189 0-14.082-11.441-25.538-25.505-25.538-1.235 0-2.449.093-3.637.264-2.908-5.629-6.079-11.212-9.483-16.698 3.41-4.062 5.592-9.204 5.933-14.866.583-9.677-14.391-10.589-14.973-.901-.334 5.548-4.93 9.895-10.463 9.895-5.792 0-10.505-4.727-10.505-10.538s4.713-10.538 10.505-10.538c9.697 0 9.697-15 0-15-3.807 0-7.418.845-10.665 2.349-3.78-4.074-7.711-8.028-11.759-11.837 1.323-3.084 2.058-6.478 2.058-10.042 0-14.082-11.441-25.538-25.505-25.538-5.945 0-11.416 2.053-15.758 5.48-6.066-3.769-12.351-7.323-18.789-10.626.25-1.434.389-2.906.389-4.411 0-14.082-11.441-25.538-25.505-25.538-8.795 0-16.565 4.481-21.152 11.283-6.24-1.908-12.607-3.636-19.051-5.162-.774-13.391-11.895-24.048-25.459-24.048-10.828 0-20.096 6.795-23.79 16.348-6.517-.521-13.089-.852-19.66-1.002-2.817-11.034-12.827-19.216-24.712-19.216-12.757 0-23.355 9.426-25.215 21.688-6.472.797-12.889 1.779-19.199 2.937-4.286-8.084-12.779-13.605-22.54-13.605-14.063 0-25.505 11.456-25.505 25.538 0 .365.012.727.028 1.089-6.706 2.498-13.106 5.219-19.133 8.132-4.605-4.535-10.916-7.339-17.87-7.339-14.063 0-25.504 11.456-25.504 25.538 0 3.759.822 7.328 2.285 10.545-5.215 5.581-9.709 11.824-13.296 18.571-14.297-.596-26.577 11.199-26.577 25.51 0 11.298 7.368 20.9 17.543 24.257 1.571 12.219 5.778 23.837 12.337 34.102-8.841 14.64-7.6 33.968 3.743 47.281 6.076 7.131 14.32 11.858 23.326 13.561v21.93c-10.415 3.215-18.005 12.94-18.005 24.409s7.59 21.195 18.005 24.409v21.153h-15.077c-4.143 0-7.5 3.358-7.5 7.5v35.042h-36.014c-4.143 0-7.5 3.358-7.5 7.5v42.321c0 4.142 3.357 7.5 7.5 7.5h36.014v14.833c0 4.142 3.357 7.5 7.5 7.5s7.5-3.358 7.5-7.5v-22.332c0-4.142-3.357-7.5-7.5-7.5h-36.014v-27.321h36.014c4.143 0 7.5-3.358 7.5-7.5v-35.042h29.266v35.042c0 4.142 3.357 7.5 7.5 7.5h36.902v27.321h-36.903c-4.143 0-7.5 3.358-7.5 7.5v74.93h-29.265v-12.723c0-4.142-3.357-7.5-7.5-7.5s-7.5 3.358-7.5 7.5v20.223c0 4.142 3.357 7.5 7.5 7.5h44.266c4.143 0 7.5-3.358 7.5-7.5v-74.93h36.902c4.143 0 7.5-3.358 7.5-7.5v-42.321c0-4.142-3.357-7.5-7.5-7.5h-36.902v-35.042c0-4.142-3.357-7.5-7.5-7.5h-14.189v-21.153c10.415-3.215 18.005-12.94 18.005-24.409s-7.59-21.195-18.005-24.409v-21.93c9.006-1.703 17.25-6.43 23.326-13.562 9.606-11.275 11.969-26.867 7.098-40.27 6.625-2.727 13.051-4.697 19.219-5.88 3.459 10 12.954 17.203 24.103 17.203 7.82 0 14.825-3.545 19.508-9.111 3.641 2.61 7.08 5.768 10.278 9.442-4.566 4.617-7.392 10.963-7.392 17.958 0 13.949 11.228 25.314 25.109 25.528.726 4.2 1.358 8.725 1.909 13.628-9.871 3.527-16.957 12.978-16.957 24.058 0 12.216 8.612 22.45 20.075 24.95.216 4.848.444 9.759.712 14.677-9.474 3.731-16.202 12.976-16.202 23.771 0 12.656 9.243 23.185 21.324 25.189 1.091 6.018 2.348 11.642 3.797 16.965-6.761 4.598-11.211 12.357-11.211 21.139 0 14.082 11.441 25.538 25.505 25.538 2.74 0 5.379-.44 7.855-1.245 4.362 5.381 9.256 10.254 14.634 14.567-.472 1.94-.729 3.963-.729 6.046 0 14.082 11.441 25.538 25.505 25.538 8.473 0 15.99-4.163 20.631-10.549 7.289 1.485 14.771 2.243 22.361 2.243.568 0 1.138-.016 1.707-.025 4.265 8.151 12.793 13.729 22.604 13.729 13.554 0 24.667-10.642 25.456-24.019 6.98-2.87 13.902-6.321 20.681-10.316 4.143 2.913 9.183 4.63 14.619 4.63 14.063 0 25.505-11.456 25.505-25.538 0-3.236-.611-6.331-1.712-9.183 4.797-4.826 9.41-9.939 13.79-15.284 2.547.856 5.268 1.328 8.099 1.328 14.063 0 25.505-11.456 25.505-25.538 0-6.646-2.551-12.705-6.721-17.253 2.673-5.327 5.141-10.771 7.381-16.278 13.708-.409 24.736-11.695 24.736-25.518 0-8.889-4.562-16.727-11.461-21.303 1.089-6.545 1.876-13.148 2.354-19.73 10.364-3.245 17.908-12.948 17.908-24.382zm-15 0c0 5.811-4.713 10.538-10.505 10.538s-10.505-4.727-10.505-10.538 4.713-10.538 10.505-10.538 10.505 4.727 10.505 10.538zm-12.847-65.07c0 5.811-4.713 10.538-10.505 10.538s-10.505-4.727-10.505-10.538 4.713-10.538 10.505-10.538 10.505 4.728 10.505 10.538zm-78.494-103.449c0 5.811-4.713 10.538-10.505 10.538s-10.505-4.727-10.505-10.538 4.713-10.538 10.505-10.538 10.505 4.727 10.505 10.538zm-70.168-45.633c5.792 0 10.505 4.727 10.505 10.538s-4.713 10.538-10.505 10.538-10.505-4.728-10.505-10.538 4.713-10.538 10.505-10.538zm-65.661-17.927c5.792 0 10.505 4.727 10.505 10.538s-4.713 10.538-10.505 10.538-10.505-4.728-10.505-10.538 4.713-10.538 10.505-10.538zm-68.162-3.87c5.792 0 10.505 4.727 10.505 10.538s-4.713 10.538-10.505 10.538-10.505-4.727-10.505-10.538 4.713-10.538 10.505-10.538zm-66.954 11.02c5.792 0 10.505 4.727 10.505 10.538s-4.713 10.538-10.505 10.538-10.505-4.728-10.505-10.538 4.713-10.538 10.505-10.538zm-62.481 27.42c5.792 0 10.505 4.727 10.505 10.538s-4.713 10.538-10.505 10.538-10.504-4.727-10.504-10.538 4.712-10.538 10.504-10.538zm-37.587 54.626c5.792 0 10.505 4.727 10.505 10.538s-4.713 10.538-10.505 10.538-10.505-4.728-10.505-10.538 4.713-10.538 10.505-10.538zm38.945 186.616c-5.792 0-10.505-4.727-10.505-10.538s4.713-10.538 10.505-10.538 10.505 4.727 10.505 10.538-4.713 10.538-10.505 10.538zm19.408-80.166c-4.876 5.724-11.95 9.006-19.408 9.006s-14.532-3.283-19.408-9.006c-8.023-9.417-8.023-23.618 0-33.034 4.876-5.723 11.95-9.006 19.408-9.006s14.532 3.283 19.408 9.006c8.022 9.415 8.022 23.617 0 33.034zm61.837-34.219c-5.792 0-10.505-4.728-10.505-10.538s4.713-10.538 10.505-10.538 10.505 4.728 10.505 10.538-4.713 10.538-10.505 10.538zm37.393 33.289c0-5.811 4.713-10.538 10.505-10.538s10.505 4.727 10.505 10.538-4.713 10.538-10.505 10.538-10.505-4.728-10.505-10.538zm10.062 63.213c0-5.619 4.41-10.211 9.938-10.509.055.001.109.008.165.008.196 0 .395-.011.594-.027 5.703.104 10.313 4.783 10.313 10.528 0 5.811-4.712 10.538-10.504 10.538s-10.506-4.727-10.506-10.538zm4.585 63.398c0-5.811 4.713-10.538 10.505-10.538s10.505 4.727 10.505 10.538-4.713 10.538-10.505 10.538-10.505-4.727-10.505-10.538zm13.91 63.293c0-5.811 4.713-10.538 10.505-10.538s10.505 4.727 10.505 10.538-4.713 10.538-10.505 10.538-10.505-4.727-10.505-10.538zm57.771 55.444c-5.792 0-10.505-4.727-10.505-10.538s4.713-10.538 10.505-10.538 10.504 4.727 10.504 10.538-4.712 10.538-10.504 10.538zm25.487-9.893c.005-.215.016-.429.016-.645 0-14.082-11.441-25.538-25.504-25.538-6.518 0-12.47 2.464-16.983 6.506-3.67-3.098-7.054-6.523-10.14-10.237 3.356-4.325 5.362-9.749 5.362-15.638 0-14.064-11.413-25.508-25.453-25.536-1.232-4.575-2.312-9.416-3.265-14.582 8.733-4.058 14.808-12.917 14.808-23.174 0-12.134-8.499-22.312-19.848-24.897-.267-4.956-.495-9.919-.714-14.82 9.355-3.788 15.975-12.973 15.975-23.682 0-11.844-8.095-21.829-19.035-24.703-.682-6.261-1.494-11.966-2.451-17.23 6.88-4.579 11.425-12.406 11.425-21.28 0-15.687-14.654-27.93-30.082-25.118-5.032-6.384-11.076-12.009-17.925-16.407 1.32-14.709-10.593-27.841-25.396-27.841-11.701 0-21.58 7.934-24.571 18.709-8.543 1.42-17.434 4.11-26.554 8.039-7.701-8.582-18.612-13.494-30.12-13.494-8.725 0-17.106 2.826-24.009 7.928-3.835-6.889-6.442-14.428-7.707-22.312 10.553-3.129 18.277-12.919 18.277-24.487 0-8.308-3.984-15.699-10.138-20.366 2.513-4.392 5.606-8.655 9.001-12.428 3.857 2.35 8.383 3.705 13.219 3.705 14.063 0 25.505-11.456 25.505-25.538 0-1.709-.172-3.378-.493-4.993 5.36-2.566 11.049-4.973 17.007-7.199 4.653 6.253 12.093 10.31 20.462 10.31 13.118 0 23.95-9.969 25.348-22.737 6.107-1.118 12.321-2.061 18.59-2.826 4.111 8.593 12.882 14.543 23.016 14.543 11.026 0 20.438-7.043 23.99-16.872 6.461.14 12.926.462 19.332.978 2.622 11.308 12.76 19.764 24.839 19.764 9.291 0 17.435-5.002 21.894-12.456 6.181 1.461 12.286 3.116 18.265 4.945.054 14.036 11.472 25.438 25.502 25.438 7.171 0 13.655-2.983 18.293-7.769 5.84 2.997 11.544 6.21 17.057 9.612-.772 2.435-1.192 5.026-1.192 7.714 0 14.082 11.441 25.538 25.505 25.538 5.059 0 9.774-1.488 13.744-4.042 3.537 3.351 6.974 6.824 10.291 10.391-2.327 3.85-3.668 8.362-3.668 13.181 0 14.082 11.441 25.538 25.505 25.538 2.394 0 4.713-.339 6.917-.964 3.046 4.923 5.892 9.927 8.51 14.967-5.102 4.673-8.308 11.389-8.308 18.841 0 14.031 11.36 25.452 25.354 25.534 1.344 5.254 2.478 10.565 3.384 15.887-9.311 3.809-15.892 12.971-15.892 23.648 0 11.487 7.615 21.224 18.055 24.423-.404 5.158-1.011 10.328-1.818 15.465-13.849.251-25.039 11.601-25.039 25.526 0 9 4.678 16.922 11.724 21.472-1.788 4.295-3.724 8.544-5.795 12.719-1.871-.439-3.818-.679-5.82-.679-14.063 0-25.505 11.456-25.505 25.538 0 5.796 1.942 11.145 5.204 15.436-3.505 4.238-7.164 8.316-10.952 12.198-4.107-2.832-9.077-4.495-14.429-4.495-14.063 0-25.505 11.456-25.505 25.538 0 3.147.575 6.16 1.619 8.946-4.961 2.842-9.991 5.368-15.052 7.545-4.476-7.382-12.581-12.325-21.818-12.325-12.987 0-23.731 9.772-25.3 22.357-5.598-.052-11.116-.582-16.514-1.569zm41.814 15.291c-5.792 0-10.505-4.728-10.505-10.538s4.713-10.538 10.505-10.538 10.505 4.727 10.505 10.538-4.713 10.538-10.505 10.538zm60.756-29.705c-5.792 0-10.505-4.727-10.505-10.538s4.713-10.538 10.505-10.538 10.505 4.727 10.505 10.538-4.713 10.538-10.505 10.538zm45.682-48.677c-5.792 0-10.505-4.727-10.505-10.538s4.713-10.538 10.505-10.538 10.505 4.727 10.505 10.538-4.713 10.538-10.505 10.538zm25.396-59.05c-5.792 0-10.505-4.727-10.505-10.538s4.713-10.538 10.505-10.538 10.505 4.727 10.505 10.538-4.713 10.538-10.505 10.538z"/></svg>