<svg id="Layer_1" enable-background="new 0 0 512.564 512.564" height="512" viewBox="0 0 512.564 512.564" width="512" xmlns="http://www.w3.org/2000/svg"><path d="m428.281 353.733v-158.208c0-17.885-4.915-35.414-14.214-50.692l-43.18-70.943c-19.719-43.532-63.578-73.89-114.394-73.89h-.422c-50.815 0-94.673 30.356-114.393 73.886l-43.182 70.947c-9.298 15.278-14.213 32.807-14.213 50.692v158.208c0 15.636 7.796 30.201 20.381 38.99-13.126 24.464-20.381 52.246-20.381 81.265v31.303c0 9.697 15 9.697 15 0v-31.303c0-16.476 2.584-32.506 7.404-47.651 42.576 33.151 95.239 51.289 149.493 51.289h.098c54.3-.022 106.999-18.214 149.579-51.435 4.927 15.384 7.425 31.415 7.425 47.797v31.303c0 9.697 15 9.697 15 0v-31.303c0-21.778-4.024-43.002-11.961-63.083-.003-.009-.008-.017-.012-.026-2.464-6.233-5.277-12.286-8.426-18.145 12.592-8.79 20.398-23.368 20.398-39.001zm-115.104-34.266-56.895 52.172-56.895-52.172v-9.05c17.036 8.661 36.299 13.55 56.684 13.55h.422c20.385 0 39.647-4.889 56.684-13.55zm-56.684-10.5h-.422c-60.932 0-110.504-49.572-110.504-110.504v-21.533c30.233-28.001 69.421-43.389 110.715-43.389s80.481 15.388 110.715 43.389v21.532c0 60.933-49.572 110.505-110.504 110.505zm-.422-293.967h.422c56.339 0 102.961 42.382 109.67 96.936-42.768-33.662-98.364-45.967-152.057-32.912-9.423 2.291-5.878 16.876 3.543 14.575 53.514-13.008 109.099 1.474 149.348 38.747v24.81c-31.407-25.011-70.13-38.615-110.715-38.615s-79.308 13.604-110.715 38.615v-24.81c11.08-10.26 23.452-18.897 36.815-25.699 8.642-4.399 1.838-17.765-6.805-13.368-10.313 5.249-20.068 11.517-29.18 18.682 6.695-54.528 54.698-96.961 109.674-96.961zm-156.788 338.733v-158.208c0-15.133 4.159-29.966 12.026-42.894l19.354-31.798s-.096 51.794-.096 77.629c0 42.572 21.311 80.254 53.82 102.957v16.462c-.093.043-.184.088-.276.131-29.847 13.756-54.44 35.366-71.748 61.765-8.099-6.066-13.08-15.71-13.08-26.044zm313.998 0c0 10.34-4.997 19.999-13.113 26.066-5.241-7.973-11.156-15.525-17.727-22.604-6.6-7.104-17.591 3.097-10.994 10.205 12.114 13.049 21.804 27.842 28.855 44.038-40.574 33.029-91.502 51.167-144.031 51.188-.033 0-.059 0-.092 0-52.488 0-103.397-18.095-143.969-51.06 15.168-34.997 43.604-63.996 78.236-79.945l58.336 53.493v8.386h-10.5c-4.143 0-7.5 3.358-7.5 7.5s3.357 7.5 7.5 7.5h10.5v27.931c0 4.142 3.357 7.5 7.5 7.5s7.5-3.358 7.5-7.5v-27.931h10.5c4.143 0 7.5-3.358 7.5-7.5s-3.357-7.5-7.5-7.5h-10.5v-8.386l58.342-53.499c9.021 4.162 17.667 9.193 25.756 15.002 7.632 5.482 16.78-6.417 8.75-12.184-8.932-6.415-18.484-11.97-28.454-16.551v-16.462c32.509-22.703 53.82-60.385 53.82-102.957 0-25.835-.096-77.628-.096-77.628l19.353 31.796c7.868 12.928 12.027 27.761 12.027 42.894v158.208z"/></svg>