<svg id="Layer_1" enable-background="new 0 0 512 512" height="512" viewBox="0 0 512 512" width="512" xmlns="http://www.w3.org/2000/svg"><g><path d="m504.5 497h-4.429v-34.333c0-9.697-15-9.697-15 0v34.333h-16.783c0-51.507 0-103.014 0-154.521h16.783v77.8c0 9.697 15 9.697 15 0v-85.3c0-4.143-3.358-7.5-7.5-7.5h-30.51l-95.237-33.286-55.914-56.838v-91.399c0-4.143-3.358-7.5-7.5-7.5h-8.178l-31.732-84.236v-19.691h13.424c4.142 0 7.5-3.357 7.5-7.5s-3.358-7.5-7.5-7.5h-13.424v-12.029c0-4.143-3.358-7.5-7.5-7.5s-7.5 3.357-7.5 7.5v12.029h-13.424c-4.142 0-7.5 3.357-7.5 7.5s3.358 7.5 7.5 7.5h13.424v19.691l-31.733 84.235h-8.178c-4.142 0-7.5 3.357-7.5 7.5v91.274l-13.276 13.462c-6.809 6.904 3.869 17.435 10.68 10.533l57.5-58.307 99.507 101.153c0 63.432.002 128.845.098 192.93h-45.261v-62.539c0-29.572-24.753-54.337-54.337-54.337-29.576 0-54.337 24.756-54.337 54.337v62.539h-45.261c.095-64.1.098-129.523.098-192.97l10.41-10.781c6.735-6.977-4.054-17.394-10.791-10.42l-10.987 11.379-95.193 33.271h-30.51c-4.142 0-7.5 3.357-7.5 7.5v162.021h-4.429c-9.697 0-9.697 15 0 15h497c9.697 0 9.697-15 0-15zm-248.924-419.014c.141.008.281.021.424.021s.283-.013.424-.021l22.78 60.469h-46.408zm.494 106.744c-2.139 0-3.986.809-5.416 2.239l-34.565 35.049v-68.564h79.821v68.651l-34.564-35.136c-1.393-1.414-3.29-2.22-5.276-2.239zm197.218 155.572v25.48l-82.353-28.604-.231-25.739zm-82.786 12.605 82.786 28.755v115.338h-82.69c-.071-47.75-.091-96.23-.096-144.093zm-153.839 81.554c0-21.37 17.958-39.337 39.337-39.337 21.374 0 39.337 17.961 39.337 39.337v62.539h-78.674zm-157.951-52.799 82.786-28.756c-.005 47.863-.025 96.344-.096 144.094h-82.69zm82.353-44.485c-27.451 9.535-54.902 19.07-82.353 28.605v-25.48l82.584-28.863zm-114.136 5.302h16.783v154.521h-16.783z"/><path d="m256 357.545c26.274 0 47.649-21.375 47.649-47.649s-21.375-47.65-47.649-47.65-47.649 21.375-47.649 47.649 21.375 47.65 47.649 47.65zm0-80.299c18.003 0 32.649 14.646 32.649 32.649s-14.646 32.65-32.649 32.65-32.649-14.646-32.649-32.649 14.646-32.65 32.649-32.65z"/><path d="m113.667 396.081c-4.142 0-7.5 3.357-7.5 7.5v60.381c0 4.143 3.358 7.5 7.5 7.5s7.5-3.357 7.5-7.5v-60.381c0-4.143-3.358-7.5-7.5-7.5z"/><path d="m84.333 404.081c-4.142 0-7.5 3.357-7.5 7.5v52.381c0 4.143 3.358 7.5 7.5 7.5s7.5-3.357 7.5-7.5v-52.381c0-4.143-3.357-7.5-7.5-7.5z"/><path d="m426.667 404.081c-4.142 0-7.5 3.357-7.5 7.5v52.381c0 4.143 3.358 7.5 7.5 7.5s7.5-3.357 7.5-7.5v-52.381c0-4.143-3.358-7.5-7.5-7.5z"/><path d="m397.333 396.081c-4.142 0-7.5 3.357-7.5 7.5v60.381c0 4.143 3.358 7.5 7.5 7.5s7.5-3.357 7.5-7.5v-60.381c0-4.143-3.357-7.5-7.5-7.5z"/></g></svg>