<svg id="Layer_1" enable-background="new 0 0 512 512" height="512" viewBox="0 0 512 512" width="512" xmlns="http://www.w3.org/2000/svg"><g><path d="m504.5 497h-6.217v-103.199c21.342-7.84 15.393-40.482-7.172-40.482h-9.958v-82.313c18.365-7.609 14.646-35.915-5.179-38.356 3.271-5.055 5.179-11.07 5.179-17.526 0-21.927-15.98-40.181-36.907-43.758v-16.377c0-4.143-3.358-7.5-7.5-7.5s-7.5 3.357-7.5 7.5v16.376c-20.925 3.575-36.907 21.83-36.907 43.758 0 6.456 1.908 12.471 5.179 17.526-19.753 2.433-23.612 30.719-5.179 38.356v30.561c-6.569-13.584-15.115-26.037-25.253-36.998v-88.975c15.763-9.53 10.763-34.135-7.283-36.895-.19-11.372-1.038-22.607-4.533-33.955-9.299-30.189-32.47-54.993-61.982-66.349-9.626-3.704-19.674-5.891-29.787-6.608v-24.286c0-4.143-3.358-7.5-7.5-7.5s-7.5 3.357-7.5 7.5v24.303c-16.725 1.216-33.141 6.436-47.613 15.512-3.509 2.2-4.57 6.829-2.369 10.339 2.199 3.508 6.828 4.57 10.338 2.368 23.538-14.763 53.086-17.613 79.043-7.626 25.253 9.716 45.079 30.937 53.034 56.765 2.925 9.495 3.682 19.042 3.865 29.284h-177.706c.301-20.051 4.574-36.489 12.757-48.917 2.278-3.46 1.32-8.111-2.14-10.389-3.459-2.279-8.11-1.321-10.389 2.139-9.846 14.954-14.945 34.258-15.229 57.438-17.981 2.847-22.901 27.374-7.179 36.879v88.975c-10.138 10.961-18.685 23.414-25.253 36.998v-30.59c18.263-7.656 14.551-35.813-5.186-38.316 3.275-5.057 5.186-11.077 5.186-17.537 0-21.927-15.98-40.181-36.907-43.758v-16.377c0-4.143-3.358-7.5-7.5-7.5s-7.5 3.357-7.5 7.5v16.376c-20.925 3.575-36.907 21.83-36.907 43.759 0 6.451 1.905 12.463 5.172 17.515-19.839 2.37-23.71 30.806-5.172 38.396v82.284h-9.958c-22.548 0-28.539 32.633-7.172 40.482v103.198h-6.216c-9.697 0-9.697 15 0 15h416.303c9.697 0 9.697-15 0-15h-16.464v-101.903h75.944v101.903h-15.21c-9.697 0-9.697 15 0 15h36.427c9.697 0 9.697-15 0-15zm-97.161-143.681v-80.792h58.813v80.792zm-55.254-174.831v71.906c-26.152-21.544-59.634-34.499-96.085-34.499s-69.933 12.954-96.085 34.499v-71.906zm-96.085 52.408c70.484 0 128.647 53.759 135.635 122.424h-15.095c-6.94-60.787-58.572-107.426-120.54-107.426s-113.6 46.639-120.54 107.426h-15.095c6.988-68.666 65.151-122.424 135.635-122.424zm105.436 122.423h-210.872c6.844-52.43 51.71-92.426 105.436-92.426 53.726.001 98.591 39.997 105.436 92.426zm-241.775 15h272.678v11.777h-272.678zm317.088-182.599c16.213 0 29.404 13.19 29.404 29.404 0 9.572-7.788 17.359-17.359 17.359h-24.095c-9.572 0-17.359-7.787-17.359-17.359-.001-16.214 13.19-29.404 29.409-29.404zm-36.774 61.763h73.542c6.491 0 6.491 10.044 0 10.044h-73.542c-6.491 0-6.492-10.044 0-10.044zm-244.746-94.038h201.542c6.491 0 6.491 10.043 0 10.043h-201.542c-6.491 0-6.491-10.043 0-10.043zm-79.972 32.275c16.213 0 29.404 13.19 29.404 29.404 0 9.572-7.788 17.359-17.359 17.359h-24.095c-9.572 0-17.359-7.787-17.359-17.359 0-16.214 13.19-29.404 29.409-29.404zm-36.852 61.763h73.542c6.492 0 6.492 10.044 0 10.044h-73.542c-6.491 0-6.491-10.044 0-10.044zm7.443 25.044h58.813v80.792h-58.813zm-24.959 95.792h83.772v11.777h-83.772c-7.612.001-7.612-11.777 0-11.777zm7.828 26.778h75.944v101.903h-75.944zm128.483 101.903v-51.531c0-10.589 9.062-19.537 19.54-19.537 10.451 0 19.54 8.994 19.54 19.537v51.531zm79.26 0v-51.531c0-17.334 21.53-25.806 33.452-13.719 3.628 3.68 5.627 8.552 5.627 13.719v51.531zm79.26 0v-51.531c0-10.588 9.062-19.537 19.54-19.537 10.451 0 19.54 8.994 19.54 19.537v51.531zm54.08 0v-51.531c0-18.828-15.709-34.537-34.54-34.537s-34.54 15.709-34.54 34.537v51.531h-10.18v-51.531c0-18.828-15.708-34.537-34.54-34.537s-34.54 15.709-34.54 34.537v51.531h-10.18v-51.531c0-18.828-15.708-34.537-34.54-34.537-18.831 0-34.54 15.709-34.54 34.537v51.531h-22.539v-101.903h272.678v101.903zm37.539-128.681h83.772c7.613 0 7.613 11.777 0 11.777h-83.772z"/><path d="m436.746 286.479c-4.142 0-7.5 3.357-7.5 7.5v37.526c0 4.143 3.358 7.5 7.5 7.5s7.5-3.357 7.5-7.5v-37.526c0-4.142-3.358-7.5-7.5-7.5z"/><path d="m215 286.479c-4.142 0-7.5 3.357-7.5 7.5v37.526c0 4.143 3.358 7.5 7.5 7.5s7.5-3.357 7.5-7.5v-37.526c0-4.142-3.358-7.5-7.5-7.5z"/><path d="m256 286.479c-4.142 0-7.5 3.357-7.5 7.5v37.526c0 4.143 3.358 7.5 7.5 7.5s7.5-3.357 7.5-7.5v-37.526c0-4.142-3.358-7.5-7.5-7.5z"/><path d="m297 286.479c-4.142 0-7.5 3.357-7.5 7.5v37.526c0 4.143 3.358 7.5 7.5 7.5s7.5-3.357 7.5-7.5v-37.526c0-4.142-3.358-7.5-7.5-7.5z"/><path d="m75.176 286.479c-4.142 0-7.5 3.357-7.5 7.5v37.526c0 4.143 3.358 7.5 7.5 7.5s7.5-3.357 7.5-7.5v-37.526c0-4.142-3.358-7.5-7.5-7.5z"/><path d="m66 417.749c-4.142 0-7.5 3.357-7.5 7.5v44.33c0 4.143 3.358 7.5 7.5 7.5s7.5-3.357 7.5-7.5v-44.33c0-4.143-3.358-7.5-7.5-7.5z"/><path d="m444.333 417.749c-4.142 0-7.5 3.357-7.5 7.5v44.33c0 4.143 3.358 7.5 7.5 7.5s7.5-3.357 7.5-7.5v-44.33c0-4.143-3.357-7.5-7.5-7.5z"/><path d="m182 219.602c4.142 0 7.5-3.357 7.5-7.5v-16.884c0-4.143-3.358-7.5-7.5-7.5s-7.5 3.357-7.5 7.5v16.884c0 4.142 3.358 7.5 7.5 7.5z"/><path d="m223 210.603c4.142 0 7.5-3.357 7.5-7.5v-7.885c0-4.143-3.358-7.5-7.5-7.5s-7.5 3.357-7.5 7.5v7.885c0 4.142 3.358 7.5 7.5 7.5z"/><path d="m286 210.603c4.142 0 7.5-3.357 7.5-7.5v-7.885c0-4.143-3.358-7.5-7.5-7.5s-7.5 3.357-7.5 7.5v7.885c0 4.142 3.358 7.5 7.5 7.5z"/><path d="m327 219.602c4.142 0 7.5-3.357 7.5-7.5v-16.884c0-4.143-3.358-7.5-7.5-7.5s-7.5 3.357-7.5 7.5v16.884c0 4.142 3.358 7.5 7.5 7.5z"/></g></svg>