<svg id="Layer_1" enable-background="new 0 0 512 512" height="512" viewBox="0 0 512 512" width="512" xmlns="http://www.w3.org/2000/svg"><g><path d="m464.708 273.679-202.705-270.675c-4.002-4.005-8.004-4.005-12.006 0l-202.705 270.675c-12.138 16.207-16.088 37.514-10.568 56.994l45.706 161.324c3.337 11.777 14.216 20.003 26.458 20.003h223.527c9.697 0 9.697-15 0-15h-223.527c-5.564 0-10.51-3.739-12.026-9.093l-5.275-18.617h44.702c5.56-.783 7.967-3.957 7.223-9.521l-45.543-162.726c-1.647-5.88-9.564-7.361-13.226-2.475l-30.949 41.327-2.639-9.313c-4.253-15.009-1.209-31.425 8.143-43.912l196.702-262.658 196.702 262.659c9.352 12.487 12.396 28.903 8.143 43.913l-2.638 9.311-30.95-41.326c-3.66-4.887-11.581-3.405-13.226 2.475l-45.542 162.726c-.745 5.565 1.663 8.739 7.223 9.521h44.702l-5.274 18.616c-1.518 5.354-6.463 9.094-12.027 9.094h-31.05c-9.697 0-9.697 15 0 15h31.05c12.24 0 23.121-8.226 26.459-20.005l45.705-161.322c5.519-19.482 1.569-40.788-10.569-56.995zm-377.082 42.064 38.774 138.547h-39.063l-28.4-100.24zm297.974 138.547 38.774-138.547 28.689 38.306-28.399 100.24h-39.064z"/><path d="m185.74 172.217c-3.316-2.482-8.018-1.809-10.499 1.507l-58.213 77.733c-1.397 1.865-1.848 4.273-1.22 6.518l57.607 205.837c.906 3.239 3.859 5.479 7.223 5.479h150.723c3.363 0 6.316-2.239 7.223-5.479l57.607-205.837c.628-2.244.178-4.652-1.22-6.518l-132.968-177.556c-1.416-1.891-3.641-3.004-6.003-3.004s-4.587 1.113-6.003 3.004l-50.927 68.003c-5.814 7.762 6.193 16.753 12.006 8.992l44.924-59.987 124.75 166.581-55.078 196.8h-139.344l-55.078-196.8 55.997-74.774c2.483-3.316 1.809-8.017-1.507-10.499z"/><path d="m273.373 213.474h-36.113c-4.143 0-7.5 3.357-7.5 7.5v39.368h-38.345c-4.143 0-7.5 3.357-7.5 7.5v35.859c0 4.143 3.357 7.5 7.5 7.5h38.345v93.354c0 4.143 3.357 7.5 7.5 7.5h36.113c4.143 0 7.5-3.357 7.5-7.5v-93.354h39.5c4.143 0 7.5-3.357 7.5-7.5v-35.859c0-4.143-3.357-7.5-7.5-7.5h-39.5v-39.368c0-4.143-3.357-7.5-7.5-7.5zm39.5 61.868v20.859h-39.5c-4.143 0-7.5 3.357-7.5 7.5v93.354h-21.113v-93.354c0-4.143-3.357-7.5-7.5-7.5h-38.345v-20.859h38.345c4.143 0 7.5-3.357 7.5-7.5v-39.368h21.113v39.368c0 4.143 3.357 7.5 7.5 7.5z"/></g></svg>