<svg id="Layer_1" enable-background="new 0 0 511.773 511.773" height="512" viewBox="0 0 511.773 511.773" width="512" xmlns="http://www.w3.org/2000/svg"><path d="m432.366 77.823c-46.548-25.631-93.095-51.262-139.643-76.893-1.105-.595-2.361-.93-3.618-.93h-66.438c-1.257 0-2.513.335-3.618.93-46.548 25.631-93.095 51.262-139.643 76.894-18.266 10.057-29.613 29.261-29.613 50.116v49.803c0 9.697 15 9.697 15 0v-49.803c0-15.388 8.372-29.557 21.849-36.977l87.526-48.196v132.071c0 1.989.79 3.896 2.196 5.303l20.5 20.504c3.536 2.93 7.072 2.93 10.607 0l7.696-7.698v71.24h-150.374v-46.604c0-9.697-15-9.697-15 0l.021 286.917c0 9.697 15 9.697 15 0v-37.885h12.556v37.885c0 9.697 15 9.697 15 0v-37.885h12.556v37.885c0 9.697 15 9.697 15 0v-37.885h12.555v37.885c0 9.697 15 9.697 15 0v-37.885h12.556v37.885c0 9.697 15 9.697 15 0v-37.885h12.556v37.885c0 9.697 15 9.697 15 0v-37.885h12.556v37.885c0 9.697 15 9.697 15 0l.021-324.093h51.438l.041 324.093c0 9.697 15 9.697 15 0v-37.885h12.555v37.885c0 9.697 15 9.697 15 0v-37.885h12.556v37.885c0 9.697 15 9.697 15 0v-37.885h12.556v37.885c0 9.697 15 9.697 15 0v-37.885h12.556v37.885c0 9.697 15 9.697 15 0v-37.885h12.556v37.885c0 9.697 15 9.697 15 0v-37.885h12.556v37.885c0 9.697 15 9.697 15 0v-376.56c-.004-20.855-11.351-40.059-29.618-50.117zm-135.761 373.792v-23.938h150.375v23.938zm0-431.424 26 14.317v137.224l-13 13.003-13-13.002zm150.375 333.091h-55.42c-9.697 0-9.697 15 0 15h55.42v14.697h-150.375v-14.697h54.988c9.697 0 9.697-15 0-15h-54.988v-14.698h150.375zm0 59.396h-150.375v-14.698h150.375zm-150.375-89.094v-14.698h150.375v14.698zm150.375-29.698h-150.375v-14.697h150.375zm-21.849-202.922c13.477 7.42 21.849 21.589 21.849 36.977v136.248h-150.375v-71.24l7.696 7.698c3.536 2.93 7.072 2.93 10.607 0l20.5-20.504c1.406-1.406 2.196-3.313 2.196-5.303v-132.072zm-222.963 93.771-13-13.003v-137.224l26-14.317v151.542zm-137.375 266.88v-23.938h150.375v23.938zm150.375-38.937h-150.375v-14.698h150.375zm-150.375-29.699v-14.697h150.375v14.697zm150.375-29.697h-150.375v-14.698h150.375zm-150.375-29.698v-14.698h150.375v14.698zm150.375-44.396v14.697h-150.375v-14.697zm15-113.781v-150.407h51.438v150.407z"/></svg>