<svg id="Layer_1" enable-background="new 0 0 512 512" height="512" viewBox="0 0 512 512" width="512" xmlns="http://www.w3.org/2000/svg"><path d="m457.479 356.869c-36.889-26.53-83.248-38.352-128.291-38.383-50.192-.101-102.796 14.672-141.063 48.233-1.691-.216-3.391-.417-5.104-.597.86-34.558 6.429-68.365 11.33-92.001 17.263-10.444 29.227-29.604 26.418-50.195 14.948-7.503 28.575-17.819 40.554-30.809 28.622-31.038 46.309-76.345 51.183-131.058.913-2.893 1.422-5.951 1.422-9.112v-23.73c0-10.996-14.544-17.594-50.199-22.772-28.576-4.15-66.492-6.437-106.765-6.437s-78.189 2.284-106.765 6.434c-35.656 5.179-50.199 11.776-50.199 22.772v23.73c0 3.16.509 6.217 1.422 9.109 4.875 54.714 22.561 100.022 51.183 131.061 11.98 12.99 25.606 23.307 40.555 30.81-2.81 20.599 9.171 39.761 26.418 50.195 4.904 23.652 10.478 57.487 11.331 91.999-18.271 1.915-35.084 5.843-48.863 11.517-22.243 9.16-34.493 22.162-34.493 36.61 0 4.143 3.358 7.5 7.5 7.5h95.679c-3.112 9.866-4.719 20.072-4.719 30.472 0 9.39 4.539 17.939 13.49 25.412 26.074 21.77 84.291 29.541 116.672 32.236 17.166 1.428 34.947 2.129 52.651 2.129 34.938 0 69.567-2.729 98.512-7.98 9.542-1.733 6.861-16.495-2.678-14.76-42.39 7.691-97.434 9.808-147.241 5.663-52.097-4.336-91.572-14.834-108.303-28.802-5.453-4.553-8.103-9.099-8.103-13.898 0-26.913 12.743-51.759 34.177-71.695.343-.267.665-.559.958-.883 2.74-2.5 5.611-4.925 8.619-7.261 8.891 13.429 19.128 26.648 28.234 36.364 7.153 7.632 21.924 24.063 34.453 17.394 8.347-4.445 9.843-16.19 4.848-38.083-2.933-12.86-8.128-28.626-14.253-43.441 11.491-3.8 23.684-6.71 36.405-8.598 1.507 19.687 4.797 40.544 9.083 57.198 6.755 26.251 14.849 38.478 25.47 38.478 10.622 0 18.715-12.227 25.47-38.478 4.285-16.653 7.576-37.511 9.083-57.198 12.721 1.887 24.913 4.797 36.404 8.597-6.125 14.816-11.32 30.581-14.253 43.441-4.995 21.893-3.499 33.638 4.848 38.083 12.531 6.667 27.298-9.76 34.453-17.394 9.106-9.715 19.344-22.933 28.235-36.364 27.169 21.104 43.753 49.129 43.753 79.84 0 10.012-12.436 19.833-35.016 27.653-9.163 3.174-4.253 17.346 4.91 14.174 29.93-10.366 45.106-24.439 45.106-41.827 0-36.197-19.362-70.059-54.521-95.348zm-197.566 55.226c-7.152-3.19-25.355-21.713-42.846-48.289 8.319-5.273 17.333-9.94 26.928-13.941 5.296 12.731 9.852 26.155 12.768 37.718 3.768 14.946 3.589 21.776 3.15 24.512zm138.186.001c-.438-2.736-.619-9.566 3.15-24.514 2.916-11.563 7.472-24.986 12.768-37.718 9.594 4.001 18.608 8.668 26.929 13.941-17.492 26.577-35.695 45.101-42.847 48.291zm-339.144-391.712c27.009-3.469 61.816-5.379 98.009-5.379s70.999 1.91 98.009 5.379c24.312 3.123 35.652 6.631 40.743 8.83-5.091 2.198-16.432 5.707-40.744 8.829-27.009 3.469-61.816 5.379-98.008 5.379-36.193 0-71-1.91-98.009-5.379-24.312-3.122-35.652-6.631-40.744-8.829 5.092-2.199 16.432-5.708 40.744-8.83zm4.677 162.562c-22.814-24.74-38.114-59.725-44.786-102.005 10.695 4.34 23.767 5.63 35.099 7.322 9.32 1.382 11.606-13.434 2.215-14.836-11.565-1.726-21.841-3.702-29.717-5.716-6.738-1.721-11.443-7.794-11.443-14.766v-8.81c8.066 3.054 19.616 5.589 35.199 7.852 28.576 4.149 66.492 6.436 106.765 6.436s78.189-2.286 106.765-6.436c15.583-2.263 27.133-4.798 35.199-7.852v8.81c0 6.973-4.705 13.045-11.442 14.767-24.695 6.313-74.631 12.684-130.521 12.684-22.282 0-44.524-.976-66.111-2.899-9.657-.847-10.991 14.079-1.331 14.941 22.027 1.963 44.718 2.958 67.442 2.958 61.111 0 110.506-7.084 134.236-13.15 1.341-.343 2.628-.794 3.882-1.303-6.673 42.279-21.973 77.264-44.787 102.004-11.908 12.913-25.645 22.861-40.802 29.69-.248.097-.489.205-.721.325-15.875 7.027-33.293 10.646-51.808 10.646s-35.934-3.619-51.808-10.646c-.232-.12-.473-.229-.721-.325-15.159-6.83-28.896-16.778-40.804-29.691zm93.332 55.661c17.371 0 33.879-2.858 49.233-8.423-.001 13.451-8.606 25.335-21.675 32.369-18.151 8.482-36.934 8.544-55.101.009-13.078-7.033-21.69-18.922-21.691-32.378 15.355 5.565 31.863 8.423 49.234 8.423zm-20.651 42.775c13.364 3.832 27.94 3.831 41.302 0-4.393 23.1-8.745 52.985-9.569 83.643-3.668-.158-7.362-.247-11.081-.247-3.726 0-7.421.085-11.081.243-.819-30.623-5.175-60.525-9.571-83.639zm-71.019 125.364c3.869-5.427 11.682-10.801 22.463-15.24 18.364-7.563 42.942-11.728 69.207-11.728 5.898 0 11.732.218 17.463.639-7.231 8.291-13.151 17.112-17.678 26.328h-91.455zm275.566-20.946c-4.851 20.3-9.669 28.291-11.854 30.455-2.185-2.164-7.004-10.156-11.854-30.456-3.654-15.289-6.475-34.065-7.785-51.5.159-.013.319-.026.479-.039 1.279-.103 2.56-.196 3.842-.278.35-.022.7-.045 1.051-.066 1.229-.074 2.459-.136 3.691-.19.364-.016.727-.035 1.091-.049 1.291-.051 2.582-.089 3.874-.12.286-.007.569-.017.855-.023 3.17-.063 6.342-.063 9.512 0 .285.006.568.016.852.023 1.293.03 2.586.068 3.878.12.364.014.726.033 1.09.049 1.231.054 2.461.117 3.69.19.352.021.704.044 1.055.066 1.279.082 2.556.174 3.831.277.162.013.325.026.487.039-1.311 17.437-4.132 36.213-7.785 51.502z"/></svg>