<svg id="Layer_1" enable-background="new 0 0 512 512" height="512" viewBox="0 0 512 512" width="512" xmlns="http://www.w3.org/2000/svg"><g><path d="m488.45 360.87h-8.992v-209.74h8.992c12.985 0 23.55-10.564 23.55-23.57 0-12.984-10.564-23.549-23.55-23.549h-.86c-2.425-13.398-11.219-24.675-23.222-30.751 3.023-11.863 5.246-27.213 6.352-44.148 2.381-36.446-55.712-36.489-53.333-.001 1.106 16.936 3.329 32.286 6.352 44.149-12.003 6.076-20.797 17.353-23.222 30.751h-.86c-12.985 0-23.55 10.564-23.55 23.569 0 3.582.807 6.979 2.245 10.021h-244.707c1.439-3.048 2.248-6.451 2.248-10.042 0-12.984-10.564-23.549-23.55-23.549h-.86c-2.425-13.398-11.219-24.675-23.222-30.751 3.023-11.863 5.246-27.213 6.352-44.149 2.376-36.446-55.717-36.486-53.333 0 1.106 16.936 3.329 32.286 6.352 44.149-12.003 6.076-20.797 17.353-23.222 30.751h-.86c-12.986.001-23.55 10.565-23.55 23.57 0 12.985 10.564 23.55 23.55 23.55h8.992v26.624c0 9.697 15 9.697 15 0v-26.624h40.81v209.74h-40.81v-143.29c0-9.697-15-9.697-15 0v143.29h-8.992c-12.986 0-23.55 10.565-23.55 23.57 0 12.984 10.564 23.549 23.55 23.549h.86c2.425 13.398 11.219 24.675 23.222 30.751-3.023 11.863-5.246 27.213-6.352 44.148-2.381 36.446 55.712 36.489 53.333.001-1.106-16.936-3.329-32.286-6.352-44.149 12.003-6.076 20.797-17.353 23.222-30.751h.86c12.985 0 23.55-10.564 23.55-23.569 0-3.019-.577-5.903-1.616-8.558h243.449c-1.042 2.66-1.62 5.551-1.62 8.578 0 12.984 10.564 23.549 23.55 23.549h.86c2.425 13.398 11.219 24.675 23.222 30.751-3.023 11.863-5.246 27.213-6.352 44.149-2.376 36.446 55.717 36.486 53.333 0-1.106-16.936-3.329-32.286-6.352-44.149 12.003-6.076 20.797-17.353 23.222-30.751h.86c12.985 0 23.55-10.564 23.55-23.569.001-12.985-10.563-23.55-23.549-23.55zm-23.992-.009h-40.81v-30.541c0-9.697-15-9.697-15 0v30.542h-305.296v-208.26h305.297v137.756c0 9.697 15 9.697 15 0v-139.228h40.81v209.731zm-32.103-332.727c-1.042-15.978 24.442-15.976 23.396 0-1.027 15.733-3.029 29.866-5.728 40.694-3.98-.538-7.959-.538-11.939 0-2.699-10.828-4.702-24.961-5.729-40.694zm11.699 55.291c13.411 0 24.741 8.729 28.163 20.586h-56.327c3.423-11.858 14.753-20.586 28.164-20.586zm-44.398 35.586h88.794c4.715 0 8.55 3.835 8.55 8.569 0 4.715-3.835 8.55-8.55 8.55-29.598 0-59.196 0-88.794 0-4.715 0-8.55-3.835-8.55-8.57 0-4.714 3.835-8.549 8.55-8.549zm-343.407-90.878c-1.047-15.975 24.438-15.976 23.396.001-1.027 15.733-3.03 29.866-5.729 40.694-3.98-.538-7.959-.538-11.939 0-2.699-10.828-4.701-24.961-5.728-40.695zm11.697 55.292c13.411 0 24.741 8.729 28.164 20.586h-56.327c3.422-11.858 14.752-20.586 28.163-20.586zm-44.396 52.705c-4.715 0-8.55-3.835-8.55-8.57 0-4.714 3.835-8.549 8.55-8.549h88.794c4.715 0 8.55 3.835 8.55 8.569 0 4.715-3.835 8.55-8.55 8.55-24.101 0-88.794 0-88.794 0zm56.095 347.736c1.042 15.978-24.442 15.976-23.396 0 1.027-15.733 3.029-29.866 5.728-40.694 3.98.538 7.959.538 11.939 0 2.699 10.828 4.702 24.961 5.729 40.694zm-11.699-55.291c-13.411 0-24.741-8.729-28.163-20.586h56.327c-3.422 11.858-14.753 20.586-28.164 20.586zm44.398-35.586c-29.598 0-59.196 0-88.794 0-4.715 0-8.55-3.835-8.55-8.569 0-4.715 3.835-8.55 8.55-8.55h88.794c4.715 0 8.55 3.835 8.55 8.57 0 4.714-3.835 8.549-8.55 8.549zm343.407 90.878c1.047 15.975-24.438 15.976-23.396-.001 1.027-15.733 3.029-29.866 5.728-40.695 3.98.538 7.959.538 11.939 0 2.7 10.829 4.702 24.962 5.729 40.696zm-11.697-55.292c-13.411 0-24.741-8.729-28.164-20.586h56.327c-3.422 11.858-14.752 20.586-28.163 20.586zm44.396-35.586c-29.598 0-59.196 0-88.794 0-4.715 0-8.55-3.835-8.55-8.569 0-4.715 3.835-8.55 8.55-8.55h88.794c4.715 0 8.55 3.835 8.55 8.57 0 4.714-3.835 8.549-8.55 8.549z"/><path d="m374.951 182.563h-80.428c-4.143 0-7.5 3.357-7.5 7.5s3.357 7.5 7.5 7.5h80.428c4.143 0 7.5-3.357 7.5-7.5s-3.357-7.5-7.5-7.5z"/><path d="m374.951 216.178h-27.038c-4.143 0-7.5 3.357-7.5 7.5s3.357 7.5 7.5 7.5h27.038c4.143 0 7.5-3.357 7.5-7.5s-3.357-7.5-7.5-7.5z"/><path d="m374.951 249.793h-40.88c-4.143 0-7.5 3.357-7.5 7.5s3.357 7.5 7.5 7.5h40.88c4.143 0 7.5-3.357 7.5-7.5s-3.357-7.5-7.5-7.5z"/><path d="m374.951 283.407h-27.038c-4.143 0-7.5 3.357-7.5 7.5s3.357 7.5 7.5 7.5h27.038c4.143 0 7.5-3.357 7.5-7.5s-3.357-7.5-7.5-7.5z"/><path d="m374.951 317.022h-80.428c-4.143 0-7.5 3.357-7.5 7.5s3.357 7.5 7.5 7.5h80.428c4.143 0 7.5-3.357 7.5-7.5s-3.357-7.5-7.5-7.5z"/><path d="m217.477 317.022h-80.428c-4.143 0-7.5 3.357-7.5 7.5s3.357 7.5 7.5 7.5h80.428c4.143 0 7.5-3.357 7.5-7.5s-3.358-7.5-7.5-7.5z"/><path d="m137.049 298.407h27.038c4.143 0 7.5-3.357 7.5-7.5s-3.357-7.5-7.5-7.5h-27.038c-4.143 0-7.5 3.357-7.5 7.5s3.357 7.5 7.5 7.5z"/><path d="m137.049 264.793h40.88c4.143 0 7.5-3.357 7.5-7.5s-3.357-7.5-7.5-7.5h-40.88c-4.143 0-7.5 3.357-7.5 7.5s3.357 7.5 7.5 7.5z"/><path d="m137.049 231.178h27.038c4.143 0 7.5-3.357 7.5-7.5s-3.357-7.5-7.5-7.5h-27.038c-4.143 0-7.5 3.357-7.5 7.5s3.357 7.5 7.5 7.5z"/><path d="m137.049 197.563h80.428c4.143 0 7.5-3.357 7.5-7.5s-3.357-7.5-7.5-7.5h-80.428c-4.143 0-7.5 3.357-7.5 7.5s3.357 7.5 7.5 7.5z"/><path d="m321.029 293.978c1.34-2.32 1.34-5.18 0-7.5l-17.174-29.746 17.174-29.745c2.991-5.18-1.23-11.25-6.495-11.25h-34.348l-17.691-30.643c-2.838-4.914-10.153-4.914-12.99 0l-17.691 30.643h-34.348c-5.265 0-9.486 6.07-6.495 11.25l17.174 29.745-17.174 29.746c-2.991 5.18 1.23 11.25 6.495 11.25h34.348l17.691 30.643c2.838 4.914 10.153 4.914 12.99 0l17.691-30.643h34.348c2.68 0 5.155-1.43 6.495-3.75zm-32.329-33.497 12.844 22.246h-25.688c-2.68 0-5.155 1.43-6.495 3.75l-13.361 23.143-13.361-23.143c-1.34-2.32-3.815-3.75-6.495-3.75h-25.688l12.844-22.246c1.34-2.32 1.34-5.18 0-7.5l-12.844-22.245h25.688c2.68 0 5.155-1.43 6.495-3.75l13.361-23.142 13.361 23.143c1.34 2.32 3.815 3.75 6.495 3.75h25.688l-12.844 22.244c-1.34 2.321-1.34 5.18 0 7.5z"/></g></svg>