<svg id="Layer_1" enable-background="new 0 0 512 512" height="512" viewBox="0 0 512 512" width="512" xmlns="http://www.w3.org/2000/svg"><g><path d="m417.034 453.18h-1.651c8.087-8.561 13.061-20.092 13.061-32.77 0-26.341-21.43-47.771-47.77-47.771h-25.792c5.493-6.846 8.791-15.526 8.791-24.966v-67.228c0-36-18.099-69.557-47.725-89.468 7.09-11.069 11.22-24.206 11.22-38.299 0-11.735 0-23.469 0-35.204 0-22.61-10.473-43.417-28.314-56.847 1.705-4.843 2.59-9.975 2.59-15.129 0-25.089-20.411-45.5-45.5-45.5s-45.5 20.411-45.5 45.5c0 5.154.885 10.286 2.59 15.129-17.842 13.43-28.314 34.236-28.314 56.847v35.204c0 14.095 4.132 27.235 11.225 38.305-8.552 5.739-16.229 12.638-22.866 20.618-6.116 7.354 5.201 17.203 11.533 9.592 5.986-7.198 12.952-13.371 20.736-18.446 18.89 19.087 47.745 26.014 73.231 17.447-11.628 17.143-26.691 29.842-45.03 37.841-19.215 8.381-35.078 8.241-35.216 8.251-4.653.354-7.204 2.854-7.654 7.498v66.422c0 4.143 3.357 7.5 7.5 7.5h57.801c16.076 0 16.076 24.932 0 24.932h-67.798c-13.767 0-24.966-11.199-24.966-24.966v-67.227c0-8.785 1.226-17.474 3.642-25.825 2.695-9.315-11.712-13.485-14.408-4.17-2.81 9.708-4.233 19.8-4.233 29.995v67.227c0 9.44 3.297 18.12 8.791 24.966h-25.792c-26.34 0-47.77 21.43-47.77 47.771 0 12.678 4.974 24.209 13.061 32.77-38.613-.937-40.742 58.821-1.652 58.821h256.112c9.697 0 9.697-15 0-15h-256.112c-18.584 0-18.584-28.82 0-28.82h322.18c18.584 0 18.584 28.82 0 28.82h-26.256c-9.697 0-9.697 15 0 15h26.256c37.921 0 37.921-58.82-.001-58.82zm-217.314-335.704c0-19.575 9.949-37.441 26.614-47.792 3.353-2.082 4.518-6.407 2.665-9.893-2.358-4.436-3.555-9.244-3.555-14.291 0-16.817 13.683-30.5 30.5-30.5s30.5 13.683 30.5 30.5c0 5.047-1.196 9.855-3.555 14.291-1.853 3.485-.688 7.811 2.665 9.893 16.665 10.351 26.614 28.217 26.614 47.792v15.912c-9.938-2.768-17.249-11.9-17.249-22.708 0-4.143-3.357-7.5-7.5-7.5h-63.106c-4.143 0-7.5 3.357-7.5 7.5 0 10.751-7.236 19.844-17.094 22.664v-15.868zm0 35.204v-3.982c15.746-2.673 28.275-14.915 31.361-30.518h49.57c3.097 15.655 15.699 27.924 31.518 30.543v3.957c0 31.002-25.223 56.225-56.225 56.225s-56.224-25.223-56.224-56.225zm80.72 195.028h33.272c4.143 0 7.5-3.357 7.5-7.5v-66.422c0-4.143-3.357-7.5-7.5-7.5s-7.5 3.357-7.5 7.5v58.922h-50.233-50.301v-51.854c44.429-4.635 80.39-35.43 98.124-75.468.942-.856 1.856-1.743 2.751-2.648 26.121 17.05 42.121 46.303 42.121 77.709v67.228c0 13.767-11.199 24.966-24.966 24.966h-43.268c3.973-7.766 3.973-17.169 0-24.933zm-181.996 72.702c0-18.069 14.7-32.771 32.77-32.771h249.461c18.069 0 32.77 14.701 32.77 32.771s-14.7 32.77-32.77 32.77h-249.461c-18.069 0-32.77-14.701-32.77-32.77z"/><path d="m304.293 403.396c-26.66 26.658-70.037 26.658-96.697 0-6.857-6.857-17.462 3.749-10.606 10.607 16.254 16.253 37.604 24.38 58.955 24.38s42.701-8.127 58.955-24.38c6.855-6.858-3.75-17.464-10.607-10.607z"/></g></svg>