<svg id="Layer_1" enable-background="new 0 0 512 512" height="512" viewBox="0 0 512 512" width="512" xmlns="http://www.w3.org/2000/svg"><g><path d="m138 66.534c-4.142 0-7.5 3.357-7.5 7.5v17.047h-14.6c-4.142 0-7.5 3.357-7.5 7.5s3.358 7.5 7.5 7.5h14.6v37.84c0 4.143 3.358 7.5 7.5 7.5s7.5-3.357 7.5-7.5v-37.84h14.6c4.142 0 7.5-3.357 7.5-7.5s-3.358-7.5-7.5-7.5h-14.6v-17.047c0-4.142-3.358-7.5-7.5-7.5z"/><path d="m67.939 209c0 4.143 3.358 7.5 7.5 7.5h125.122c4.142 0 7.5-3.357 7.5-7.5s-3.358-7.5-7.5-7.5h-125.122c-4.142 0-7.5 3.357-7.5 7.5z"/><path d="m75.439 250.5h125.122c4.142 0 7.5-3.357 7.5-7.5s-3.358-7.5-7.5-7.5h-125.122c-4.142 0-7.5 3.357-7.5 7.5s3.358 7.5 7.5 7.5z"/><path d="m75.439 284.5h125.122c4.142 0 7.5-3.357 7.5-7.5s-3.358-7.5-7.5-7.5h-125.122c-4.142 0-7.5 3.357-7.5 7.5s3.358 7.5 7.5 7.5z"/><path d="m75.439 318.5h125.122c4.142 0 7.5-3.357 7.5-7.5s-3.358-7.5-7.5-7.5h-125.122c-4.142 0-7.5 3.357-7.5 7.5s3.358 7.5 7.5 7.5z"/><path d="m75.439 352.5h125.122c4.142 0 7.5-3.357 7.5-7.5s-3.358-7.5-7.5-7.5h-125.122c-4.142 0-7.5 3.357-7.5 7.5s3.358 7.5 7.5 7.5z"/><path d="m468.208 138.17c-7.084-6.621-17.327 4.337-10.243 10.959 24.807 23.187 39.035 55.944 39.035 89.871v35.323l-12.265-15.69c-1.421-1.818-3.601-2.881-5.909-2.881h-15.941l-12.674-14.165c-2.762-3.086-7.503-3.352-10.59-.588-3.087 2.762-3.35 7.503-.588 10.59l14.91 16.664c1.423 1.59 3.456 2.499 5.589 2.499h15.638l21.83 27.927v185.821c0 6.893-5.607 12.5-12.5 12.5h-221c-6.893 0-12.5-5.607-12.5-12.5v-245.5c0-12.48 1.874-24.529 5.346-35.887l11.497 13.167c1.424 1.632 3.484 2.567 5.649 2.567h12.381l8.334 10.739c6.119 7.884 17.681-1.683 11.85-9.197l-10.586-13.641c-1.42-1.83-3.607-2.901-5.925-2.901h-12.646l-14.476-16.578c19.573-42.047 62.223-71.269 111.576-71.269 18.545 0 36.368 4.025 52.975 11.964 8.75 4.18 15.219-9.351 6.47-13.533-18.643-8.912-38.643-13.431-59.445-13.431-38.286 0-72.975 15.676-98 40.941v-3.941c0-76.094-61.907-138-138-138s-138 61.906-138 138v171c0 9.697 15 9.697 15 0v-123.999l16.695-20.966h18.372c2.134 0 4.167-.909 5.589-2.499l16.99-18.989c2.762-3.087 2.499-7.828-.588-10.591-3.087-2.761-7.829-2.499-10.59.589l-14.754 16.49h-18.634c-2.284 0-4.444 1.041-5.867 2.828l-7.213 9.058v-22.921c0-67.822 55.178-123 123-123s123 55.178 123 123v21.879c-15.744 22.418-25 49.707-25 79.121v157h-208.5c-6.893 0-12.5-5.607-12.5-12.5v-34.5c0-9.697-15-9.697-15 0v34.5c0 15.163 12.336 27.5 27.5 27.5h208.5v73.5c0 15.163 12.336 27.5 27.5 27.5h221c15.164 0 27.5-12.337 27.5-27.5v-245.5c0-38.065-15.962-74.816-43.792-100.83z"/><path d="m374 167.534c-4.142 0-7.5 3.357-7.5 7.5v17.047h-14.6c-4.142 0-7.5 3.357-7.5 7.5s3.358 7.5 7.5 7.5h14.6v37.84c0 4.143 3.358 7.5 7.5 7.5s7.5-3.357 7.5-7.5v-37.84h14.6c4.142 0 7.5-3.357 7.5-7.5s-3.358-7.5-7.5-7.5h-14.6v-17.047c0-4.142-3.358-7.5-7.5-7.5z"/><path d="m436.561 302.5h-125.122c-4.142 0-7.5 3.357-7.5 7.5s3.358 7.5 7.5 7.5h125.122c4.142 0 7.5-3.357 7.5-7.5s-3.358-7.5-7.5-7.5z"/><path d="m436.561 336.5h-125.122c-4.142 0-7.5 3.357-7.5 7.5s3.358 7.5 7.5 7.5h125.122c4.142 0 7.5-3.357 7.5-7.5s-3.358-7.5-7.5-7.5z"/><path d="m436.561 370.5h-125.122c-4.142 0-7.5 3.357-7.5 7.5s3.358 7.5 7.5 7.5h125.122c4.142 0 7.5-3.357 7.5-7.5s-3.358-7.5-7.5-7.5z"/><path d="m436.561 404.5h-125.122c-4.142 0-7.5 3.357-7.5 7.5s3.358 7.5 7.5 7.5h125.122c4.142 0 7.5-3.357 7.5-7.5s-3.358-7.5-7.5-7.5z"/><path d="m436.561 438.5h-125.122c-4.142 0-7.5 3.357-7.5 7.5s3.358 7.5 7.5 7.5h125.122c4.142 0 7.5-3.357 7.5-7.5s-3.358-7.5-7.5-7.5z"/></g></svg>