<svg id="Layer_1" enable-background="new 0 0 511.807 511.807" height="512" viewBox="0 0 511.807 511.807" width="512" xmlns="http://www.w3.org/2000/svg"><g><path d="m475.101 143.522c-.713-1.938-17.928-47.662-57.521-65.188-6.598-2.921-13.753-4.995-21.359-6.237 17.139-30.496 17.403-62.92 17.403-64.708 0-7.697-10.681-10.267-14.18-3.41-23.128 45.304-84.063 46.669-100.346 46.669-29.242 0-52.854.011-86.539.011-16.486 0-77.072-1.385-100.195-46.68-3.5-6.856-14.18-4.287-14.18 3.41 0 1.788.264 34.212 17.403 64.708-7.607 1.242-14.761 3.317-21.358 6.237-39.594 17.526-56.809 63.25-57.522 65.188-1.397 3.796.467 8.016 4.214 9.539 22.172 9.005 49.024 11.764 72.281 6.18v59.526c0 24.999 9.107 49.077 25.645 67.799 14.114 15.977 21.887 36.527 21.887 57.866v50.384c.007 24.428 9.507 47.395 26.751 64.67.133.133.273.253.413.374 3.206 11.721 9.417 22.518 18.185 31.302 13.525 13.55 31.693 20.646 50.01 20.645 11.58-.001 23.221-2.838 33.778-8.675 8.487-4.691 1.229-17.82-7.257-13.127-21.435 11.849-48.539 7.967-65.915-9.44-9.734-9.751-15.495-22.627-16.222-36.257-.855-16.031 4.976-31.187 16.123-42.31 3.429 2.206 6.416 5.041 8.798 8.345-8.183 8.115-12.915 19.25-12.915 30.923 0 54.764 84.28 56.99 86.794 2.042.529-11.553-3.4-22.542-10.915-30.956 2.127-3.469 4.887-6.506 8.119-8.95 9.547 10.28 14.931 23.799 14.931 37.864 0 8.408-1.834 16.491-5.452 24.024-4.197 8.742 9.324 15.236 13.521 6.494 1.852-3.857 3.318-7.83 4.43-11.892 17.282-17.11 27.156-40.699 27.163-65.077 0-16.794 0-33.588 0-50.382 0-21.339 7.773-41.89 21.887-57.867 16.537-18.721 25.645-42.799 25.645-67.798v-59.526c23.238 5.582 50.131 2.818 72.281-6.181 3.747-1.523 5.611-5.743 4.214-9.539zm-80.377-108.771c-3.733 15.102-11.058 33.75-25.349 48.66-8.384-8.805-18.352-16.229-29.199-21.71 19.961-4.391 39.487-12.866 54.548-26.95zm-234.353 52.323c5.179 1.894 13.164 5.323 20.264 11.074 7.535 6.104 16.977-5.552 9.441-11.656-5.058-4.097-10.369-7.2-15.13-9.522 11.224-6.258 23.745-10.135 36.756-11.212h88.405c13.028 1.08 25.565 4.965 36.801 11.238-30.131 14.63-36.934 37.468-36.934 55.087 0 38.801-10.569 47.786-22.807 58.19-7.214 6.134-15.083 12.824-21.265 24.962-6.181-12.138-14.051-18.828-21.265-24.962-21.599-18.363-20.398-38.025-23.165-64.881-.993-9.642-15.916-8.112-14.921 1.537 2.436 23.662.921 47.242 18.51 65.743-19.911-9.297-35.292-17.679-35.292-49.311 0-19.901-10.314-36.146-29.285-46.531 3.06-3.519 6.369-6.774 9.887-9.756zm95.532 160.948c7.693 0 13.953 6.277 13.953 13.994 0 4.677-6.464 18.051-13.954 30.944-7.488-12.889-13.952-26.261-13.952-30.944.001-7.716 6.26-13.994 13.953-13.994zm59.072-115.938c0-20.852 12.276-35.969 36.485-44.989 3.509 2.976 6.81 6.224 9.86 9.736-18.97 10.386-29.285 26.63-29.285 46.531 0 31.632-15.381 40.014-35.292 49.311 10.004-10.521 18.232-25.876 18.232-60.589zm-144.086-70.544c-4.458-1.004-24.328 17.534-28.456 21.87-14.224-14.86-21.549-33.5-25.298-48.61 13.616 12.712 31.778 21.797 53.754 26.74zm-116.982 80.072c6.07-12.547 21.122-38.376 46.393-49.562 7.338-3.248 15.582-5.262 24.556-6.002 2.426 3.099 5.072 6.119 7.959 9.02-.048.069-.098.137-.15.203-10.191 14.401-16.525 30.863-18.652 48.206-23.192 7.068-48.078 1.677-60.106-1.865zm271.999 291.389c-1.552-13.069-6.75-25.446-14.958-35.739 1.611-.249 3.261-.379 4.941-.379 9.697 0 9.697-15 0-15-25.778 0-47.293 21.667-47.293 47.371 0 8.091 11.144 10.049 14.317 3.114 1.055 3.246 1.541 6.707 1.379 10.254-1.647 36.01-56.81 34.618-56.81-1.356 0-5.122 1.395-10.085 3.926-14.405.058.791.098 1.588.098 2.394 0 9.697 15 9.697 15 0 0-25.825-21.582-47.371-47.293-47.371-9.697 0-9.697 15 0 15 .598 0 1.191.019 1.781.052-8.366 10.316-13.584 22.712-15.12 35.976-6.601-11.467-10.138-24.507-10.141-38.097 0-.167 0-12.291.002-12.72.128-20.836 17.279-37.787 38.23-37.787h83.876c20.952 0 38.102 16.951 38.23 37.776.001.439.002 12.563.002 12.729-.003 13.684-3.543 26.729-10.167 38.188zm57.699-214.233c0 21.339-7.773 41.89-21.887 57.867-16.538 18.721-25.645 42.799-25.645 67.798v1.1c-9.695-9.989-23.261-16.225-38.232-16.225h-83.876c-14.971 0-28.537 6.236-38.232 16.222v-1.097c0-24.999-9.107-49.077-25.645-67.797-14.114-15.979-21.887-36.529-21.887-57.868v-62.17c0-16.938 4.6-33.239 13.335-47.519 15.409 7.743 23.235 19.245 23.235 34.284 0 42.491 24.663 53.948 46.422 64.057 14.121 6.56 27.549 12.804 34.948 27.304-11.175 4.021-19.191 14.736-19.191 27.294 0 4.005 1.207 11.545 11.639 30.713 5.429 9.975 10.774 18.334 10.999 18.685 2.902 4.53 9.728 4.53 12.63 0 .225-.351 5.57-8.71 10.999-18.685 10.432-19.168 11.639-26.708 11.639-30.713 0-12.558-8.016-23.273-19.191-27.294 7.399-14.5 20.827-20.744 34.948-27.304 21.759-10.108 46.422-21.565 46.422-64.057 0-15.039 7.827-26.541 23.235-34.284 8.735 14.28 13.335 30.581 13.335 47.519zm14.19-75.288c-2.127-17.344-8.461-33.808-18.653-48.209-.008-.011-.016-.02-.024-.03-.041-.058-.085-.115-.126-.173 2.887-2.901 5.533-5.921 7.959-9.02 8.972.74 17.217 2.753 24.556 6.002 25.178 11.145 40.288 37.027 46.384 49.579-12.008 3.558-36.833 8.954-60.096 1.851z"/><path d="m153.408 208.074c-4.142 0-7.5 3.357-7.5 7.5s3.358 7.5 7.5 7.5c12.546 0 22.752 10.233 22.752 22.812 0 4.143 3.358 7.5 7.5 7.5s7.5-3.357 7.5-7.5c.001-20.85-16.935-37.812-37.752-37.812z"/><path d="m358.398 208.074c-20.817 0-37.752 16.962-37.752 37.812 0 4.143 3.358 7.5 7.5 7.5s7.5-3.357 7.5-7.5c0-12.578 10.207-22.812 22.752-22.812 4.142 0 7.5-3.357 7.5-7.5s-3.357-7.5-7.5-7.5z"/></g></svg>