<svg id="Layer_1" enable-background="new 0 0 512 512" height="512" viewBox="0 0 512 512" width="512" xmlns="http://www.w3.org/2000/svg"><g><path d="m348.089 418.261c-.821-4.061-4.776-6.681-8.838-5.863-4.061.821-6.686 4.778-5.863 8.838l17.173 84.862c1.888 9.333 16.639 6.592 14.701-2.975z"/><path d="m188.858 332.79c-4.06-.817-8.017 1.804-8.838 5.863l-10.809 53.416c-1.872 9.241 12.751 12.616 14.701 2.975l10.809-53.416c.823-4.06-1.803-8.017-5.863-8.838z"/><path d="m168.508 433.36c-4.062-.82-8.017 1.804-8.838 5.863l-4.862 24.027c-1.872 9.242 12.75 12.618 14.701 2.975l4.862-24.027c.822-4.06-1.803-8.017-5.863-8.838z"/><path d="m504.503 332.64c-35.781-.013-202.332-.046-250.118-.068-9.43 0-9.436 14.996-.008 15 36.457.017 72.797.027 109.111.034l32.072 158.492c1.887 9.332 16.639 6.593 14.701-2.975l-31.47-155.514c6.184.001 89.925.018 125.705.031 9.43 0 9.435-14.995.007-15z"/><path d="m204.4 291.77c-4.402-16.927-.138-35.729 11.129-49.067 11.621-13.758 29.283-20.911 47.256-19.146 5.506-.202 8.223-3.058 8.152-8.567-.968-6.508.037-13.333 2.828-19.216 4.796-10.108 14.502-17.015 25.964-18.474 11.458-1.467 22.569 2.799 29.745 11.385 3.38 4.046 9.761 3.146 12.207-.986 3.343-5.642 9.088-9.486 15.763-10.549 6.66-1.056 13.293.808 18.209 5.123 5.065 4.444 13.193.167 12.395-6.525-1.619-13.57 2.025-27.649 9.999-38.628 13.786-18.983 38.972-27.166 61.247-19.903 22.21 7.244 37.715 28.625 37.706 51.993-.004 9.413 14.995 9.893 15 .006.011-29.78-19.75-57.027-48.055-66.259-6.958-2.27-14.139-3.349-21.274-3.34-2.054-17.242-9.355-33.664-20.901-46.729-6.423-7.266-17.661 2.667-11.24 9.934 9.498 10.747 15.514 24.245 17.232 38.419-16.474 3.583-31.626 12.986-41.852 27.065-7.601 10.465-12.061 22.706-13.047 35.437-13.215-4.371-28.445-.857-38.342 8.946-11.671-9.486-27.696-12.77-42.242-9.228-13.295-27.07-39.691-45.067-69.614-47.619.995-12.755-3.532-25.762-12.2-35.172 9.832-17.166 30.452-26.418 49.792-22.384 5.386 1.122 10.208-3.989 8.771-9.301-4.555-16.81 8.51-33.872 25.904-33.872 13.137 0 24.541 9.771 26.528 22.729 1.507 5.196 4.887 7.146 10.14 5.85 8.242-3.217 16.912-4.848 25.767-4.848 8.147 0 16.131 1.367 23.729 4.064 9.136 3.248 14.155-10.891 5.018-14.135-9.213-3.271-18.885-4.93-28.747-4.93-7.941 0-15.76 1.083-23.337 3.227-6.087-15.839-21.608-26.957-39.098-26.957-23.071 0-41.841 18.77-41.841 41.841.137 1.052-.648 1.169-2.354.351-21.371 0-41.072 11.179-52.168 29.038-6.651-3.657-14.282-5.743-22.393-5.743-2.162 0-4.313.149-6.442.446-6.876-28.988-32.785-49.938-63.364-49.938-17.527 0-34.057 6.953-46.253 19.273-5.618-2.688-11.769-4.089-18.093-4.089-23.171-.001-42.024 18.851-42.024 42.025 0 9.697 15 9.697 15 0 0-14.902 12.124-27.026 27.025-27.026 5.513 0 10.818 1.654 15.344 4.783 3.221 2.227 7.612 1.602 10.084-1.436 9.581-11.777 23.766-18.532 38.918-18.532 25.734 0 47.171 19.271 49.863 44.824 1.26 5.261 4.544 7.368 9.852 6.322 23.611-7.95 47.41 14.634 40.479 38.74-1.809 6.291 3.618 9.535 8.741 9.535 26.822 0 51.064 15.026 63.084 38.677-7.808 4.761-14.161 11.672-18.178 20.139-2.79 5.882-4.352 12.403-4.596 18.97-19.802.503-38.613 9.398-51.547 24.71-9.409 11.14-14.948 24.828-16.166 39.02h-33.292c-.001 0-.003 0-.005 0h-147.106c-9.697 0-9.697 15 0 15h137.965l-43.726 216.081c-1.872 9.242 12.75 12.617 14.701 2.975l44.328-219.056h27.464c.372 2.848.919 5.688 1.651 8.503 3.084 11.858 9.304 22.752 17.987 31.504 6.836 6.89 17.474-3.684 10.648-10.564-6.819-6.874-11.701-15.42-14.118-24.716z"/><path d="m108.171 333.07c0-4.143-3.357-7.5-7.5-7.5h-8v-8c0-4.143-3.357-7.5-7.5-7.5s-7.5 3.357-7.5 7.5v8h-8c-4.143 0-7.5 3.357-7.5 7.5s3.357 7.5 7.5 7.5h8v8c0 4.143 3.357 7.5 7.5 7.5s7.5-3.357 7.5-7.5v-8h8c4.142 0 7.5-3.357 7.5-7.5z"/><path d="m469.27 414.309h-8v-8c0-4.143-3.357-7.5-7.5-7.5s-7.5 3.357-7.5 7.5v8h-8c-4.143 0-7.5 3.357-7.5 7.5s3.357 7.5 7.5 7.5h8v8c0 4.143 3.357 7.5 7.5 7.5s7.5-3.357 7.5-7.5v-8h8c4.143 0 7.5-3.357 7.5-7.5s-3.358-7.5-7.5-7.5z"/><path d="m64.223 441.738h-8v-8c0-4.143-3.357-7.5-7.5-7.5s-7.5 3.357-7.5 7.5v8h-8c-4.143 0-7.5 3.357-7.5 7.5s3.357 7.5 7.5 7.5h8v8c0 4.143 3.357 7.5 7.5 7.5s7.5-3.357 7.5-7.5v-8h8c4.143 0 7.5-3.357 7.5-7.5s-3.358-7.5-7.5-7.5z"/></g></svg>