<svg id="Capa_1" enable-background="new 0 0 512 512" height="512" viewBox="0 0 512 512" width="512" xmlns="http://www.w3.org/2000/svg"><g><path d="m459.525 82.509c15.188-26.306 6.175-59.943-20.131-75.131-26.306-15.188-59.944-6.175-75.131 20.131l-71.875 124.491h127.017z"/><path d="m31 272h450v30h-450z"/><path d="m146 437h220c60.143 0 109.494-46.171 114.562-105h-449.124c5.068 58.829 54.419 105 114.562 105z"/><path d="m481 182h-450c-16.569 0-30 13.431-30 30s13.431 30 30 30h450c16.569 0 30-13.431 30-30s-13.431-30-30-30z"/><path d="m149.395 467c-5.439 8.928-8.395 19.265-8.395 30 0 8.284 6.716 15 15 15h200c8.284 0 15-6.716 15-15 0-10.735-2.957-21.072-8.396-30z"/></g></svg>