<svg id="Capa_1" enable-background="new 0 0 512 512" height="512" viewBox="0 0 512 512" width="512" xmlns="http://www.w3.org/2000/svg"><g><path d="m54.075 384.073c-1.921-2.521-3.075-5.659-3.075-9.073v-320c0-8.284 6.716-15 15-15h15v263.656c-.188 2.856-.294 5.735-.294 8.638 0 13.626 2.131 26.759 6.037 39.111z"/><path d="m19.787 460.787 80.234-80.234c5.256 8.487 11.525 16.43 18.761 23.665 7.235 7.236 15.178 13.505 23.665 18.761l-80.234 80.234c-11.716 11.716-30.711 11.716-42.426 0-11.716-11.716-11.716-30.71 0-42.426z"/><path d="m426 360c24.813 0 45-20.187 45-45v-275h15c8.284 0 15 6.716 15 15v320c0 8.284-6.716 15-15 15h-171.136c6.842-9.148 12.508-19.223 16.774-30z"/><path d="m210.706 182.294c17.821 0 34.815 3.607 50.294 10.126v-177.701c-18.842-9.656-39.673-14.719-61.056-14.719h-73.944c-8.284 0-15 6.716-15 15v213.974c23.866-28.512 59.702-46.68 99.706-46.68zm15.294-107.294c0 8.284-6.716 15-15 15h-50c-8.284 0-15-6.716-15-15s6.716-15 15-15h50c8.284 0 15 6.716 15 15zm-15 75h-50c-8.284 0-15-6.716-15-15s6.716-15 15-15h50c8.284 0 15 6.716 15 15s-6.716 15-15 15z"/><path d="m441 315v-300c0-8.284-6.716-15-15-15h-73.944c-21.383 0-42.214 5.063-61.056 14.719v195.404c14.555 11.464 26.608 25.967 35.2 42.542 1.124-7.172 7.312-12.665 14.8-12.665h50c8.284 0 15 6.716 15 15s-6.716 15-15 15h-50c-3.045 0-5.873-.913-8.239-2.472 5.137 13.963 7.944 29.043 7.944 44.766 0 6.006-.419 11.914-1.211 17.706h86.506c8.284 0 15-6.716 15-15zm-35-240c0 8.284-6.716 15-15 15h-50c-8.284 0-15-6.716-15-15s6.716-15 15-15h50c8.284 0 15 6.716 15 15zm0 60c0 8.284-6.716 15-15 15h-50c-8.284 0-15-6.716-15-15s6.716-15 15-15h50c8.284 0 15 6.716 15 15zm0 60c0 8.284-6.716 15-15 15h-50c-8.284 0-15-6.716-15-15s6.716-15 15-15h50c8.284 0 15 6.716 15 15z"/><ellipse cx="210.706" cy="312.294" rx="100" ry="100" transform="matrix(.707 -.707 .707 .707 -159.111 240.46)"/></g></svg>