<svg id="Capa_1" enable-background="new 0 0 512 512" height="512" viewBox="0 0 512 512" width="512" xmlns="http://www.w3.org/2000/svg"><g><circle cx="190" cy="422" r="15"/><path d="m90 287c-8.271 0-15 6.729-15 15v50c0 8.271 6.729 15 15 15s15-6.729 15-15v-50c0-8.271-6.729-15-15-15z"/><path d="m342.703 282.795-32.36 10.786-40.12 40.119c-25.384 25.384-66.539 25.384-91.923 0s-25.384-66.539 0-91.923l40.119-40.119 10.782-32.349c1.072-3.214 2.52-6.303 4.286-9.198-16.899-5.257-34.857-8.111-53.487-8.111-99.411 0-180 80.589-180 180s80.589 180 180 180 180-80.589 180-180c0-18.63-2.854-36.588-8.111-53.488-2.891 1.764-5.976 3.211-9.186 4.283zm-207.703 69.205c0 24.813-20.187 45-45 45s-45-20.187-45-45v-50c0-24.813 20.187-45 45-45s45 20.187 45 45zm0-130c0-8.284 6.716-15 15-15s15 6.716 15 15-6.716 15-15 15-15-6.716-15-15zm55 245c-24.813 0-45-20.187-45-45s20.187-45 45-45 45 20.187 45 45-20.187 45-45 45zm90-70c-8.284 0-15-6.716-15-15s6.716-15 15-15 15 6.716 15 15-6.716 15-15 15z"/><path d="m495.891 16.109c-21.479-21.479-56.302-21.479-77.781 0l-41.82 41.82-7.072-7.072c-5.858-5.858-15.355-5.858-21.213 0s-5.858 15.355 0 21.213l91.925 91.925c5.858 5.858 15.355 5.858 21.213 0s5.858-15.355 0-21.213l-7.072-7.072 41.82-41.82c21.479-21.478 21.479-56.302 0-77.781z"/><path d="m261.286 172.932c-1.646 1.646-2.887 3.654-3.624 5.863l-13.023 39.068-45.127 45.127c-13.668 13.668-13.668 35.829 0 49.498 13.668 13.668 35.829 13.668 49.498 0l45.127-45.127 39.068-13.023c2.209-.736 4.217-1.977 5.863-3.624l72.577-72.577-77.782-77.782z"/></g></svg>