<svg id="Capa_1" enable-background="new 0 0 512 512" height="512" viewBox="0 0 512 512" width="512" xmlns="http://www.w3.org/2000/svg"><g><path d="m195.246 68.032c5.858-5.858 5.858-15.355 0-21.213-5.857-5.858-15.355-5.858-21.213 0-29.242 29.242-76.824 29.242-106.066 0-5.857-5.858-15.355-5.858-21.213 0s-5.858 15.355 0 21.213c20.47 20.47 47.357 30.705 74.246 30.705s53.776-10.235 74.246-30.705z"/><path d="m121 38.794c12.016 0 23.316-4.684 31.819-13.188 5.858-5.858 5.858-15.355 0-21.213-5.857-5.857-15.355-5.857-21.213 0-2.838 2.837-6.604 4.4-10.606 4.4s-7.769-1.563-10.606-4.4c-5.857-5.858-15.355-5.857-21.213 0-5.858 5.858-5.858 15.355 0 21.213 8.502 8.504 19.803 13.188 31.819 13.188z"/><path d="m465.246 30.775c-40.939-40.939-107.553-40.939-148.492 0-5.858 5.858-5.858 15.355 0 21.213 5.857 5.858 15.355 5.858 21.213 0 29.242-29.242 76.824-29.242 106.066 0 5.857 5.858 15.355 5.858 21.213 0s5.858-15.355 0-21.213z"/><path d="m380.393 94.414c2.838-2.837 6.604-4.4 10.606-4.4s7.769 1.563 10.606 4.4c5.857 5.857 15.355 5.858 21.213 0s5.858-15.355 0-21.213c-8.503-8.504-19.804-13.188-31.819-13.188s-23.316 4.684-31.819 13.188c-5.858 5.858-5.858 15.355 0 21.213s15.356 5.858 21.213 0z"/><path d="m331 317c0 41.421-33.579 75-75 75s-75-33.579-75-75v-85h-120v85c0 107.695 87.304 195 195 195 107.695 0 195-87.304 195-195v-85h-120z"/><path d="m436 132h-90c-8.284 0-15 6.716-15 15v55h120v-55c0-8.285-6.716-15-15-15z"/><path d="m76 132c-8.284 0-15 6.716-15 15v55h120v-55c0-8.284-6.716-15-15-15z"/></g></svg>