<svg id="Capa_1" enable-background="new 0 0 512 512" height="512" viewBox="0 0 512 512" width="512" xmlns="http://www.w3.org/2000/svg"><g><path d="m391 160c-19.33 0-35 15.67-35 35v110c0 8.284-6.716 15-15 15-30.327 0-55 24.673-55 55 0 8.284-6.716 15-15 15s-15-6.716-15-15c0-41.751 30.261-76.569 70-83.675v-241.325c0-16.569-13.431-30-30-30-16.569 0-30 13.431-30 30v-20c0-16.569-13.431-30-30-30-16.569 0-30 13.431-30 30v20c0-16.569-13.431-30-30-30-16.569 0-30 13.431-30 30v40c0-16.569-13.431-30-30-30-16.569 0-30 13.431-30 30v220.969c0 42.085 13.638 83.409 38.545 117.225l-17.997 64.792c-2.656 9.557 4.532 19.014 14.452 19.014h260c9.92 0 17.108-9.457 14.453-19.015l-17.722-63.798c15.3-16.815 27.267-36.124 35.598-57.473 8.582-21.992 12.671-45.482 12.671-69.089v-107.625c0-19.33-15.67-35-35-35z"/></g></svg>