<svg id="Capa_1" enable-background="new 0 0 512 512" height="512" viewBox="0 0 512 512" width="512" xmlns="http://www.w3.org/2000/svg"><g><path d="m275.394 137.606c-2.813-2.813-4.394-6.628-4.394-10.606v-35h-30v35c0 3.978-1.581 7.793-4.394 10.606l-21.716 21.716c-2.509 2.509-3.891 5.845-3.891 9.394 0 7.325 5.959 13.284 13.284 13.284h63.432c7.325 0 13.284-5.959 13.284-13.284 0-3.548-1.382-6.884-3.891-9.394z"/><path d="m271 392h30v120h-30z"/><path d="m367 0h-222c-8.284 0-15 6.716-15 15v497h51v-135c0-8.284 6.716-15 15-15h120c8.284 0 15 6.716 15 15v135h51v-497c0-8.284-6.716-15-15-15zm-171 332c-8.284 0-15-6.716-15-15s6.716-15 15-15 15 6.716 15 15-6.716 15-15 15zm0-60c-8.284 0-15-6.716-15-15s6.716-15 15-15 15 6.716 15 15-6.716 15-15 15zm60 60c-8.284 0-15-6.716-15-15s6.716-15 15-15 15 6.716 15 15-6.716 15-15 15zm0-60c-8.284 0-15-6.716-15-15s6.716-15 15-15 15 6.716 15 15-6.716 15-15 15zm60 60c-8.284 0-15-6.716-15-15s6.716-15 15-15 15 6.716 15 15-6.716 15-15 15zm0-60c-8.284 0-15-6.716-15-15s6.716-15 15-15 15 6.716 15 15-6.716 15-15 15zm-28.284-60h-63.432c-23.867 0-43.284-19.417-43.284-43.284 0-11.562 4.502-22.431 12.678-30.606l17.322-17.323v-43.787c0-8.284 6.716-15 15-15h60c8.284 0 15 6.716 15 15v43.787l17.322 17.323c8.175 8.175 12.678 19.045 12.678 30.606 0 23.867-19.417 43.284-43.284 43.284z"/><path d="m211 392h30v120h-30z"/><path d="m0 97v400c0 8.284 6.716 15 15 15h85v-430h-85c-8.284 0-15 6.716-15 15zm50 45c8.284 0 15 6.716 15 15s-6.716 15-15 15-15-6.716-15-15 6.716-15 15-15zm0 60c8.284 0 15 6.716 15 15s-6.716 15-15 15-15-6.716-15-15 6.716-15 15-15zm0 60c8.284 0 15 6.716 15 15s-6.716 15-15 15-15-6.716-15-15 6.716-15 15-15zm0 60c8.284 0 15 6.716 15 15s-6.716 15-15 15-15-6.716-15-15 6.716-15 15-15zm0 60c8.284 0 15 6.716 15 15s-6.716 15-15 15-15-6.716-15-15 6.716-15 15-15z"/><path d="m497 82h-85v430h85c8.284 0 15-6.716 15-15v-400c0-8.284-6.716-15-15-15zm-35 330c-8.284 0-15-6.716-15-15s6.716-15 15-15 15 6.716 15 15-6.716 15-15 15zm0-60c-8.284 0-15-6.716-15-15s6.716-15 15-15 15 6.716 15 15-6.716 15-15 15zm0-60c-8.284 0-15-6.716-15-15s6.716-15 15-15 15 6.716 15 15-6.716 15-15 15zm0-60c-8.284 0-15-6.716-15-15s6.716-15 15-15 15 6.716 15 15-6.716 15-15 15zm0-60c-8.284 0-15-6.716-15-15s6.716-15 15-15 15 6.716 15 15-6.716 15-15 15z"/></g></svg>