<svg id="Capa_1" enable-background="new 0 0 512 512" height="512" viewBox="0 0 512 512" width="512" xmlns="http://www.w3.org/2000/svg"><g><path d="m296 0h-80c-8.284 0-15 6.716-15 15v80c0 8.284 6.716 15 15 15h80c8.284 0 15-6.716 15-15v-80c0-8.284-6.716-15-15-15z"/><path d="m296 140h-80c-8.284 0-15 6.716-15 15v80c0 8.284 6.716 15 15 15h80c8.284 0 15-6.716 15-15v-80c0-8.284-6.716-15-15-15z"/><circle cx="256" cy="347" r="37.5"/><path d="m278.5 482h-7.5v-69.201c-4.828 1.1-9.844 1.701-15 1.701s-10.172-.601-15-1.701v69.201h-7.5c-8.284 0-15 6.716-15 15s6.716 15 15 15h45c8.284 0 15-6.716 15-15s-6.716-15-15-15z"/><circle cx="37.5" cy="347" r="37.5"/><path d="m60 482h-7.5v-69.201c-4.828 1.1-9.844 1.701-15 1.701s-10.172-.601-15-1.701v69.201h-7.5c-8.284 0-15 6.716-15 15s6.716 15 15 15h45c8.284 0 15-6.716 15-15s-6.716-15-15-15z"/><circle cx="474.5" cy="347" r="37.5"/><path d="m497 482h-7.5v-69.201c-4.828 1.1-9.844 1.701-15 1.701s-10.172-.601-15-1.701v69.201h-7.5c-8.284 0-15 6.716-15 15s6.716 15 15 15h45c8.284 0 15-6.716 15-15s-6.716-15-15-15z"/><path d="m356 270h140c8.284 0 15-6.716 15-15v-240c0-8.284-6.716-15-15-15h-140c-8.284 0-15 6.716-15 15v240c0 8.284 6.716 15 15 15zm40-220h60c8.284 0 15 6.716 15 15s-6.716 15-15 15h-60c-8.284 0-15-6.716-15-15s6.716-15 15-15zm0 70h60c8.284 0 15 6.716 15 15s-6.716 15-15 15h-60c-8.284 0-15-6.716-15-15s6.716-15 15-15zm0 70h60c8.284 0 15 6.716 15 15s-6.716 15-15 15h-60c-8.284 0-15-6.716-15-15s6.716-15 15-15z"/><path d="m16 270h140c8.284 0 15-6.716 15-15v-240c0-8.284-6.716-15-15-15h-140c-8.284 0-15 6.716-15 15v240c0 8.284 6.716 15 15 15zm40-220h60c8.284 0 15 6.716 15 15s-6.716 15-15 15h-60c-8.284 0-15-6.716-15-15s6.716-15 15-15zm0 70h60c8.284 0 15 6.716 15 15s-6.716 15-15 15h-60c-8.284 0-15-6.716-15-15s6.716-15 15-15zm0 70h60c8.284 0 15 6.716 15 15s-6.716 15-15 15h-60c-8.284 0-15-6.716-15-15s6.716-15 15-15z"/><path d="m322.763 356.937c-1.525 10.287-5.377 19.824-11.006 28.057 16.553 7.851 34.765 12.006 53.493 12.006s36.94-4.155 53.493-12.006c-5.629-8.234-9.481-17.77-11.006-28.057-26.644 13.274-58.33 13.274-84.974 0z"/><path d="m104.263 356.937c-1.525 10.287-5.377 19.824-11.006 28.057 16.553 7.851 34.765 12.006 53.493 12.006s36.94-4.155 53.493-12.006c-5.629-8.234-9.481-17.77-11.006-28.057-26.644 13.274-58.33 13.274-84.974 0z"/></g></svg>