<svg id="Capa_1" enable-background="new 0 0 512 512" height="512" viewBox="0 0 512 512" width="512" xmlns="http://www.w3.org/2000/svg"><g><path d="m120 60h130c16.569 0 30-13.431 30-30s-13.431-30-30-30h-130c-16.569 0-30 13.431-30 30s13.431 30 30 30z"/><path d="m393.201 138.088c-11.716-11.716-30.711-11.716-42.426 0-11.716 11.716-11.716 30.711 0 42.426l70.711 70.711c11.716 11.716 30.711 11.716 42.426 0 11.716-11.716 11.716-30.711 0-42.426z"/><circle cx="477" cy="105" r="35"/><circle cx="385" cy="57" r="15"/><path d="m286.461 370.1c-24.949 5.851-50.749 11.9-101.459 11.9-50.711 0-76.51-6.05-101.46-11.9-22.221-5.211-43.299-10.15-82.677-10.984-.568 5.913-.865 11.878-.865 17.884 0 39.517 12.294 77.224 35.553 109.044 11.88 16.253 31.325 25.956 52.015 25.956h194.863c20.69 0 40.135-9.703 52.015-25.956 23.26-31.82 35.554-69.527 35.554-109.044 0-6.006-.3-11.971-.871-17.884-39.372.834-60.448 5.773-82.668 10.984zm-191.461 61.9c-8.284 0-15-6.716-15-15s6.716-15 15-15 15 6.716 15 15-6.716 15-15 15zm70 20c-8.284 0-15-6.716-15-15s6.716-15 15-15 15 6.716 15 15-6.716 15-15 15zm120-20c-8.284 0-15-6.716-15-15s6.716-15 15-15 15 6.716 15 15-6.716 15-15 15z"/><path d="m303.379 234.981c-15.74-13.108-33.618-23.558-53.076-30.912l-.303-.114v-113.955h-130v113.955l-.303.114c-34.801 13.151-64.554 36.203-86.042 66.662-12.648 17.928-21.859 37.686-27.418 58.516 39.609 1.204 62.222 6.502 84.154 11.645 24.36 5.713 47.369 11.108 94.61 11.108s70.25-5.396 94.61-11.108c21.928-5.142 44.539-10.439 84.137-11.644-1.861-6.982-4.119-13.848-6.797-20.56l39.784-39.785-63.64-63.64zm-68.379 67.019c-8.284 0-15-6.716-15-15s6.716-15 15-15 15 6.716 15 15-6.716 15-15 15z"/></g></svg>