<svg id="Capa_1" enable-background="new 0 0 512 512" height="512" viewBox="0 0 512 512" width="512" xmlns="http://www.w3.org/2000/svg"><g><path d="m346 452h-180c-19.33 0-35 15.67-35 35v10c0 8.284 6.716 15 15 15h220c8.284 0 15-6.716 15-15v-10c0-19.33-15.67-35-35-35z"/><path d="m187.223 390-11.707 32h160.968l-11.707-32z"/><path d="m467 0h-422c-24.813 0-45 20.187-45 45v225h512v-225c0-24.813-20.187-45-45-45zm-227.465 150.965-74.642 74.642c-5.858 5.858-15.355 5.858-21.213 0l-74.642-74.642c-25.344-25.344-25.344-66.582 0-91.927 23.223-23.223 59.791-25.167 85.248-5.83 25.457-19.337 62.025-17.394 85.248 5.83 25.345 25.345 25.345 66.583.001 91.927zm207.465 39.033h-20c-6.133 0-11.649-3.734-13.927-9.429l-6.801-17.001-25.565 57.522c-5.729 12.89-24.467 11.464-28.179-2.145l-18.683-68.506-13.058 30.468c-2.364 5.515-7.787 9.091-13.787 9.091h-20c-8.284 0-15-6.716-15-15s6.716-15 15-15h10.109l26.104-60.909c5.596-13.058 24.521-11.744 28.259 1.962l18.922 69.379 22.9-51.524c5.388-12.124 22.707-11.797 27.634.521l16.228 40.571h9.844c8.284 0 15 6.716 15 15 0 8.285-6.716 15-15 15z"/><path d="m168.822 80.252-3.928 3.928c-5.858 5.858-15.355 5.858-21.213 0l-3.928-3.928c-13.647-13.647-35.853-13.647-49.5 0s-13.647 35.853 0 49.5l64.035 64.035 64.035-64.035c13.647-13.647 13.647-35.853 0-49.5-13.648-13.647-35.854-13.647-49.501 0z"/><path d="m0 315c0 24.813 20.187 45 45 45h422c24.813 0 45-20.187 45-45v-15h-512z"/></g></svg>