<svg id="Capa_1" enable-background="new 0 0 512 512" height="512" viewBox="0 0 512 512" width="512" xmlns="http://www.w3.org/2000/svg"><g><path d="m361 195c0-6.609-.634-13.1-1.815-19.423-19.287 1.007-29.609 5.57-41.499 10.829-14.411 6.371-30.744 13.594-61.686 13.594s-47.275-7.223-61.686-13.595c-11.89-5.258-22.212-9.822-41.499-10.829-1.181 6.324-1.815 12.815-1.815 19.424 0 57.897 47.103 105 105 105s105-47.103 105-105z"/><path d="m301 60v-30h15c8.284 0 15-6.716 15-15s-6.716-15-15-15h-120c-8.284 0-15 6.716-15 15s6.716 15 15 15h15v30z"/><path d="m211 100.199-1.684.838c-20.363 10.135-36.345 26.079-46.39 45.268 19.742 2.153 32.275 7.689 43.521 12.663 13.387 5.92 24.948 11.032 49.553 11.032s36.166-5.112 49.552-11.032c11.247-4.973 23.779-10.51 43.521-12.663-10.045-19.19-26.026-35.133-46.39-45.268l-1.683-.838v-10.199h-90z"/><path d="m471 32.58v-17.58c0-8.284-6.716-15-15-15s-15 6.716-15 15v17.58c-17.459 6.192-30 22.865-30 42.42 0 24.813 20.187 45 45 45s45-20.187 45-45c0-19.555-12.541-36.228-30-42.42z"/><path d="m382.509 90c-.988-4.848-1.509-9.864-1.509-15 0-5.137.528-10.151 1.517-15h-81.517v30z"/><path d="m129.487 60c.989 4.848 1.513 9.864 1.513 15s-.521 10.152-1.509 15h81.509v-30z"/><path d="m441 148.491v308.509c0 13.785-11.215 25-25 25h-69.188l-9.915-29.743c-2.042-6.125-7.774-10.257-14.23-10.257h-133.334c-6.456 0-12.189 4.131-14.23 10.257l-9.915 29.743h-69.188c-13.785 0-25-11.215-25-25v-308.509c-4.848.988-9.864 1.509-15 1.509s-10.152-.521-15-1.509v308.509c0 30.327 24.673 55 55 55h320c30.327 0 55-24.673 55-55v-308.509c-4.848.988-9.864 1.509-15 1.509s-10.152-.521-15-1.509z"/><path d="m101 75c0-19.555-12.541-36.228-30-42.42v-17.58c0-8.284-6.716-15-15-15s-15 6.716-15 15v17.58c-17.459 6.192-30 22.865-30 42.42 0 24.813 20.187 45 45 45s45-20.187 45-45z"/><path d="m242.888 329.715-21.432 38.577c-8.32 14.975-5.743 31.892 3.558 43.708h61.972c9.301-11.816 11.878-28.733 3.558-43.708l-21.432-38.577c-5.715-10.287-20.509-10.287-26.224 0z"/></g></svg>