<svg id="Capa_1" enable-background="new 0 0 512 512" height="512" viewBox="0 0 512 512" width="512" xmlns="http://www.w3.org/2000/svg"><g><path d="m497 0h-482c-8.284 0-15 6.716-15 15v30c0 8.284 6.716 15 15 15h482c8.284 0 15-6.716 15-15v-30c0-8.284-6.716-15-15-15z"/><path d="m441 161.596c-19.073-19.483-45.646-31.596-75-31.596-28.989 0-55.271 11.81-74.291 30.87l-101.206 95.622c-4.24-37.362-36.026-66.492-74.503-66.492-16.871 0-32.456 5.603-45 15.041v-115.041h-30v175c0 41.355 33.645 75 75 75 20.451 0 39.008-8.237 52.552-21.557l92.532-87.43c-.05 1.324-.083 2.651-.083 3.987 0 52.804 39.184 96.623 90 103.924v-61.504c-17.459-6.192-30-22.865-30-42.42 0-24.813 20.187-45 45-45s45 20.187 45 45c0 19.555-12.541 36.228-30 42.42v61.504c50.816-7.301 90-51.12 90-103.924v-145h-30v71.596zm-325 118.404c-8.284 0-15-6.716-15-15s6.716-15 15-15 15 6.716 15 15-6.716 15-15 15z"/><path d="m351 338.924v60.867l-44.37 35.496c-3.558 2.847-5.63 7.156-5.63 11.713v50c0 8.284 6.716 15 15 15h100c8.284 0 15-6.716 15-15v-50c0-4.557-2.071-8.866-5.63-11.713l-44.37-35.496v-60.867c-4.901.704-9.907 1.076-15 1.076s-10.099-.372-15-1.076z"/><circle cx="366" cy="235" r="15"/></g></svg>