<svg id="Capa_1" enable-background="new 0 0 512 512" height="512" viewBox="0 0 512 512" width="512" xmlns="http://www.w3.org/2000/svg"><g><path d="m277.801 293.53c10.953-7.136 18.199-19.483 18.199-33.53v-14.476l-80 4.018v10.458c0 14.047 7.246 26.394 18.198 33.53l-91.345 166.247c-3.989 7.26-1.337 16.38 5.923 20.369 7.26 3.989 16.38 1.338 20.369-5.923l71.855-130.774v153.551c0 8.284 6.716 15 15 15s15-6.716 15-15v-153.55l71.854 130.774c3.989 7.26 13.109 9.912 20.37 5.923 7.26-3.989 9.912-13.109 5.923-20.369z"/><path d="m332.379 40.918c-19.036 3.357-31.747 21.51-28.391 40.546l22.574 128.025c3.357 19.036 21.51 31.747 40.546 28.391l24.62-4.341-34.73-196.962z"/><path d="m509.038 207.776-32.994-187.113c-2.397-13.597-15.364-22.677-28.961-20.279l-39.392 6.946c-13.597 2.398-22.677 15.364-20.279 28.961l32.993 187.114c2.398 13.597 15.364 22.677 28.961 20.279l39.392-6.946c13.598-2.398 22.677-15.364 20.28-28.962z"/><path d="m274.315 85.943-182.989 56.382 14.584 82.708 191.237-9.604z"/><path d="m62.128 149.496c-2.877-16.317-18.437-27.212-34.754-24.335-16.317 2.877-27.212 18.437-24.335 34.754l13.892 78.785c2.877 16.317 18.437 27.212 34.754 24.335 16.317-2.877 27.212-18.437 24.335-34.754z"/></g></svg>