<svg id="Capa_1" enable-background="new 0 0 512 512" height="512" viewBox="0 0 512 512" width="512" xmlns="http://www.w3.org/2000/svg"><g><g><path d="m360.292 49.409 54.443 27.221 51.456 154.367h31.623l-56.584-169.748c-1.258-3.774-3.964-6.894-7.522-8.673l-60-30c-7.409-3.705-16.419-.702-20.124 6.708-3.705 7.41-.702 16.42 6.708 20.125z"/><path d="m45.809 230.997 51.457-154.367 54.443-27.221c7.41-3.705 10.413-12.715 6.708-20.125-3.705-7.41-12.715-10.413-20.124-6.708l-60 30c-3.559 1.779-6.265 4.899-7.522 8.673l-56.584 169.748z"/></g><path d="m337.87 491.011c-10.811 0-21.371-3.202-30.567-9.39-12.418-8.355-20.732-21.067-23.409-35.794l-7.285-40.068c-1.812-9.966-10.479-17.199-20.608-17.199s-18.796 7.233-20.608 17.199l-7.285 40.068c-2.677 14.727-10.991 27.438-23.409 35.794s-27.326 11.268-41.978 8.2l-118.993-24.92c-25.338-5.306-43.728-27.946-43.728-53.832v-135.072c0-8.284 6.716-15 15-15h482c8.284 0 15 6.716 15 15v135.071c0 25.886-18.39 48.526-43.727 53.832l-118.992 24.92c-3.802.797-7.623 1.191-11.411 1.191z"/></g></svg>