<svg id="Capa_1" enable-background="new 0 0 512 512" height="512" viewBox="0 0 512 512" width="512" xmlns="http://www.w3.org/2000/svg"><g><path d="m21 297v180c0 19.33 15.67 35 35 35s35-15.67 35-35v-195h-55c-8.284 0-15 6.716-15 15z"/><path d="m476 0h-340c-8.284 0-15 6.716-15 15v462c0 12.881-3.782 24.888-10.271 35h315.271c35.841 0 65-29.159 65-65v-432c0-8.284-6.716-15-15-15zm-280 180h60c8.284 0 15 6.716 15 15s-6.716 15-15 15h-60c-8.284 0-15-6.716-15-15s6.716-15 15-15zm-15-45c0-8.284 6.716-15 15-15h60c8.284 0 15 6.716 15 15s-6.716 15-15 15h-60c-8.284 0-15-6.716-15-15zm75 285h-60c-8.284 0-15-6.716-15-15s6.716-15 15-15h60c8.284 0 15 6.716 15 15s-6.716 15-15 15zm0-60h-60c-8.284 0-15-6.716-15-15s6.716-15 15-15h60c8.284 0 15 6.716 15 15s-6.716 15-15 15zm40-60h-100c-8.284 0-15-6.716-15-15s6.716-15 15-15h100c8.284 0 15 6.716 15 15s-6.716 15-15 15zm0-210h-100c-8.284 0-15-6.716-15-15s6.716-15 15-15h100c8.284 0 15 6.716 15 15s-6.716 15-15 15zm90 360c-8.284 0-15-6.716-15-15s6.716-15 15-15 15 6.716 15 15-6.716 15-15 15zm36.593-94.804c-5.961 6.278-13.441 10.874-21.594 13.424v16.38c0 8.284-6.716 15-15 15s-15-6.716-15-15v-29.08c0-8.284 6.716-15 15-15 5.662 0 10.931-2.266 14.838-6.38 3.902-4.111 5.89-9.505 5.595-15.189-.552-10.634-9.338-19.131-20.002-19.346-10.388-.206-19.265 7.349-20.692 17.583-.131.937-.197 1.907-.197 2.873 0 8.284-6.716 15-15 15s-15-6.716-15-15c0-2.343.163-4.702.483-7.011 3.529-25.284 25.511-43.951 51.011-43.439 26.313.53 47.994 21.52 49.356 47.786.725 13.98-4.175 27.263-13.798 37.399zm-51.593-130.196c0-8.284 6.716-15 15-15s15 6.716 15 15-6.716 15-15 15-15-6.716-15-15zm51.593-79.804c-5.961 6.278-13.441 10.874-21.594 13.424v16.38c0 8.284-6.716 15-15 15s-15-6.716-15-15v-29.08c0-8.284 6.716-15 15-15 5.662 0 10.931-2.266 14.838-6.38 3.902-4.111 5.89-9.505 5.595-15.189-.552-10.634-9.338-19.131-20.002-19.346-10.388-.199-19.265 7.35-20.692 17.583-.131.937-.197 1.907-.197 2.873 0 8.284-6.716 15-15 15s-15-6.716-15-15c0-2.343.163-4.702.483-7.011 3.481-24.942 24.871-43.45 49.977-43.45.345 0 .688.003 1.033.01 26.313.53 47.994 21.52 49.356 47.786.726 13.981-4.174 27.264-13.797 37.4z"/></g></svg>