<svg id="Capa_1" enable-background="new 0 0 512 512" height="512" viewBox="0 0 512 512" width="512" xmlns="http://www.w3.org/2000/svg"><g><path d="m477.703 128c-20.052-34.73-65.135-49.691-121.582-45.414-24.52-51.023-60.018-82.586-100.121-82.586s-75.601 31.563-100.121 82.586c-56.447-4.277-101.53 10.684-121.582 45.414s-10.466 81.254 21.461 128c-31.927 46.746-41.513 93.27-21.461 128s65.135 49.691 121.582 45.414c24.52 51.023 60.018 82.586 100.121 82.586s75.601-31.563 100.121-82.586c56.447 4.277 101.53-10.684 121.582-45.414s10.466-81.254-21.461-128c31.927-46.746 41.512-93.27 21.461-128zm-25.981 15c12.234 21.189 6.777 52.951-14.875 87.77-14.48-16.923-31.763-33.595-51.475-49.463-3.887-25.005-9.684-48.308-17.099-69.31 40.98-1.341 71.215 9.814 83.449 31.003zm-114.35 253.94c-13.308-2.127-27.034-5.296-40.995-9.445 9.032-4.51 18.084-9.364 27.123-14.582s17.768-10.631 26.19-16.198c-3.387 14.165-7.506 27.637-12.318 40.225zm-28.872-50.007c-17.352 10.018-34.968 18.747-52.5 26.088-17.532-7.341-35.148-16.069-52.5-26.088-17.352-10.018-33.719-20.91-48.843-32.422-2.408-18.855-3.657-38.475-3.657-58.511s1.249-39.656 3.657-58.51c15.123-11.513 31.49-22.404 48.843-32.422 17.352-10.018 34.968-18.747 52.5-26.088 17.532 7.341 35.148 16.069 52.5 26.088 17.352 10.018 33.719 20.91 48.843 32.422 2.408 18.854 3.657 38.474 3.657 58.51s-1.249 39.656-3.657 58.51c-15.124 11.513-31.491 22.405-48.843 32.423zm-133.872 50.007c-4.812-12.589-8.931-26.06-12.318-40.225 8.422 5.567 17.151 10.98 26.19 16.198s18.091 10.072 27.123 14.582c-13.961 4.15-27.687 7.318-40.995 9.445zm-52.695-110.16c-10.574-10.016-20.181-20.319-28.677-30.78 8.496-10.462 18.103-20.764 28.677-30.78-.61 10.077-.933 20.343-.933 30.78s.323 20.703.933 30.78zm52.695-171.72c13.308 2.127 27.034 5.296 40.995 9.445-9.032 4.51-18.084 9.363-27.123 14.582s-17.768 10.631-26.19 16.198c3.387-14.165 7.506-27.637 12.318-40.225zm162.744 0c4.812 12.588 8.931 26.06 12.318 40.225-8.422-5.567-17.151-10.98-26.19-16.198s-18.091-10.072-27.123-14.582c13.961-4.15 27.687-7.318 40.995-9.445zm52.695 110.16c10.574 10.016 20.181 20.319 28.677 30.78-8.496 10.461-18.103 20.764-28.677 30.78.61-10.077.933-20.343.933-30.78s-.323-20.703-.933-30.78zm-134.067-195.22c24.467 0 49.246 20.607 68.574 56.767-21.896 4.079-44.975 10.71-68.574 19.847-23.599-9.137-46.678-15.768-68.574-19.847 19.328-36.16 44.107-56.767 68.574-56.767zm-195.722 113c12.234-21.189 42.469-32.344 83.449-31.003-7.415 21.002-13.212 44.305-17.099 69.31-19.712 15.869-36.994 32.541-51.475 49.463-21.651-34.819-27.108-66.581-14.875-87.77zm0 226c-12.234-21.189-6.777-52.951 14.875-87.77 14.48 16.923 31.763 33.594 51.475 49.463 3.887 25.005 9.684 48.308 17.099 69.31-40.98 1.341-71.215-9.814-83.449-31.003zm195.722 113c-24.467 0-49.246-20.607-68.574-56.767 21.896-4.079 44.975-10.71 68.574-19.847 23.599 9.136 46.678 15.768 68.574 19.847-19.328 36.16-44.107 56.767-68.574 56.767zm195.722-113c-12.234 21.189-42.469 32.344-83.448 31.003 7.415-21.002 13.212-44.305 17.099-69.31 19.712-15.869 36.994-32.541 51.475-49.463 21.65 34.819 27.107 66.581 14.874 87.77z"/><circle cx="256" cy="256" r="65"/></g></svg>