<svg id="Capa_1" enable-background="new 0 0 512 512" height="512" viewBox="0 0 512 512" width="512" xmlns="http://www.w3.org/2000/svg"><g><circle cx="356" cy="176" r="25"/><circle cx="196" cy="206" r="35"/><circle cx="386" cy="336" r="25"/><path d="m463 243.258c-5.218-4.903-8.07-11.932-7.826-19.284.243-7.317 3.535-14.104 9.031-18.621 39.431-32.404 55.884-71.226 44.012-103.846-9.258-25.438-34.002-42.822-69.674-48.948-32.672-5.613-71.425-1.145-109.121 12.577-6.228 2.266-12.416 4.787-18.396 7.494-23.31 10.557-51.314 3.181-66.589-17.543-27.19-36.887-70.782-57.408-116.587-54.877-33.68 1.856-65.419 16.489-89.37 41.204-23.939 24.701-37.589 56.88-38.436 90.608-1.391 55.358 30.516 105.438 81.288 127.585 1.145.5 1.457 1.32 1.541 1.765.115.608-.083.951-.446 1.314l-.247.247c-28.368 28.369-48.794 61.606-57.516 93.589-9.523 34.92-4.226 64.694 14.915 83.836 16.802 16.803 42.511 23.033 72.386 17.535 26.936-4.953 56.437-19.344 83.007-40.469l.354-.283c3.245-2.614 7.384-3.575 11.353-2.646 2.222.521 6.283 2.122 8.517 6.975 13.135 28.53 34.309 52.176 61.232 68.381 24.239 14.589 51.646 22.149 79.946 22.149 4.187 0 8.4-.166 12.62-.499 75.591-5.968 136.868-67.506 142.534-143.145 3.535-47.194-14.152-92.791-48.528-125.098zm-367-62.258c-8.284 0-15-6.716-15-15s6.716-15 15-15 15 6.716 15 15-6.716 15-15 15zm15-95c0-8.284 6.716-15 15-15s15 6.716 15 15-6.716 15-15 15-15-6.716-15-15zm25 275c-8.284 0-15-6.716-15-15s6.716-15 15-15 15 6.716 15 15-6.716 15-15 15zm60-90c-35.841 0-65-29.159-65-65s29.159-65 65-65 65 29.159 65 65-29.159 65-65 65zm90 120c-8.284 0-15-6.716-15-15s6.716-15 15-15 15 6.716 15 15-6.716 15-15 15zm10-120c-8.284 0-15-6.716-15-15s6.716-15 15-15 15 6.716 15 15-6.716 15-15 15zm5-95c0-30.327 24.673-55 55-55s55 24.673 55 55-24.673 55-55 55-55-24.673-55-55zm85 215c-30.327 0-55-24.673-55-55s24.673-55 55-55 55 24.673 55 55-24.673 55-55 55z"/></g></svg>