<svg id="Capa_1" enable-background="new 0 0 512 512" height="512" viewBox="0 0 512 512" width="512" xmlns="http://www.w3.org/2000/svg"><g><circle cx="316" cy="316" r="15"/><circle cx="256" cy="186" r="25"/><circle cx="196" cy="306" r="15"/><path d="m437.02 74.98c-48.353-48.351-112.64-74.98-181.02-74.98s-132.667 26.629-181.02 74.98c-48.351 48.353-74.98 112.64-74.98 181.02s26.629 132.667 74.98 181.02c48.353 48.351 112.64 74.98 181.02 74.98s132.667-26.629 181.02-74.98c48.351-48.353 74.98-112.64 74.98-181.02s-26.629-132.667-74.98-181.02zm-18.988 248.136c3.236 25.841-5.562 52.186-24.146 70.77-18.581 18.582-44.935 27.382-70.77 24.146-15.984 20.561-40.835 32.968-67.116 32.968s-51.132-12.408-67.116-32.968c-25.839 3.234-52.187-5.562-70.77-24.146-18.584-18.583-27.383-44.929-24.146-70.77-20.561-15.983-32.968-40.834-32.968-67.116 0-26.281 12.408-51.132 32.968-67.116-3.236-25.841 5.562-52.187 24.146-70.77 18.582-18.583 44.931-27.383 70.77-24.146 15.985-20.561 40.835-32.968 67.116-32.968s51.132 12.407 67.116 32.968c25.848-3.236 52.187 5.562 70.77 24.146 18.584 18.584 27.383 44.93 24.146 70.771 20.561 15.984 32.968 40.835 32.968 67.115 0 26.281-12.407 51.132-32.968 67.116z"/><path d="m393.862 208.655c-5.754-3.396-8.568-10.19-6.9-16.661 4.851-18.822-.625-39.003-14.289-52.667-13.665-13.664-33.848-19.143-52.667-14.289-6.473 1.672-13.265-1.147-16.661-6.901-9.879-16.739-28.021-27.137-47.345-27.137s-37.465 10.398-47.344 27.137c-3.396 5.755-10.191 8.572-16.661 6.901-18.822-4.851-39.002.625-52.667 14.289s-19.14 33.845-14.29 52.667c1.667 6.471-1.146 13.265-6.901 16.661-16.739 9.88-27.137 28.022-27.137 47.345 0 19.324 10.398 37.466 27.137 47.345 5.755 3.396 8.569 10.19 6.901 16.661-4.851 18.822.625 39.003 14.289 52.667 13.663 13.663 33.843 19.136 52.667 14.289 6.349-1.667 13.271 1.114 16.66 6.9 9.881 16.74 28.022 27.138 47.346 27.138s37.466-10.398 47.345-27.137c3.396-5.754 10.186-8.571 16.661-6.901 18.825 4.851 39.004-.626 52.667-14.289 13.664-13.665 19.14-33.846 14.289-52.667-1.668-6.471 1.146-13.265 6.901-16.661 16.739-9.879 27.137-28.021 27.137-47.345 0-19.323-10.398-37.465-27.138-47.345zm-252.862 7.345c0-8.284 6.716-15 15-15s15 6.716 15 15-6.716 15-15 15-15-6.716-15-15zm55 135c-24.813 0-45-20.187-45-45s20.187-45 45-45 45 20.187 45 45-20.187 45-45 45zm5-165c0-30.327 24.673-55 55-55s55 24.673 55 55-24.673 55-55 55-55-24.673-55-55zm115 175c-24.813 0-45-20.187-45-45s20.187-45 45-45 45 20.187 45 45-20.187 45-45 45zm30-120c-8.284 0-15-6.716-15-15s6.716-15 15-15 15 6.716 15 15-6.716 15-15 15z"/></g></svg>