<svg id="Capa_1" enable-background="new 0 0 512 512" height="512" viewBox="0 0 512 512" width="512" xmlns="http://www.w3.org/2000/svg"><g><path d="m302 165c0-24.033 18.938-43.726 42.674-44.94-31.882 1.241-62.442 27.585-78.115 44.868 13.607 14.982 44.039 43.725 78.088 45.011-23.723-1.229-42.647-20.915-42.647-44.939z"/><path d="m198.984 291.803-22.018 22.018c-12.333-4.388-26.634-1.651-36.506 8.222l-130.209 130.208c-13.668 13.668-13.668 35.829 0 49.497 13.668 13.668 35.829 13.668 49.497 0l130.208-130.208c9.872-9.872 12.61-24.173 8.222-36.506l22.018-22.018c-7.599-6.52-14.692-13.613-21.212-21.213z"/><path d="m347 0c-90.981 0-165 74.019-165 165s74.019 165 165 165 165-74.019 165-165-74.019-165-165-165zm112.022 173.971c-2.012 2.696-49.984 66.029-112.022 66.029s-110.01-63.333-112.022-66.029c-3.971-5.321-3.971-12.62 0-17.941 2.012-2.697 49.984-66.03 112.022-66.03s110.01 63.333 112.022 66.029c3.971 5.322 3.971 12.62 0 17.942z"/><circle cx="347" cy="165" r="15"/><path d="m349.352 120.062c23.724 1.227 42.648 20.914 42.648 44.938 0 24.033-18.938 43.726-42.674 44.94 31.882-1.241 62.441-27.585 78.115-44.867-13.616-14.991-44.045-43.726-78.089-45.011z"/></g></svg>