<svg id="Capa_1" enable-background="new 0 0 512 512" height="512" viewBox="0 0 512 512" width="512" xmlns="http://www.w3.org/2000/svg"><g><path d="m191 247.918c0 17.155 9.532 32.577 24.875 40.249l40.125 20.062 40.125-20.062c15.343-7.672 24.875-23.094 24.875-40.249v-7.918h-8.944c-21.077 0-40.997-7.994-56.056-21.999-15.059 14.005-34.979 21.999-56.056 21.999h-8.944z"/><path d="m472.143 407.878c-12.337-16.535-29.311-28.38-49.086-34.256l-67.333-20.005c34.697-29.094 55.276-72.191 55.276-118.617v-80c0-85.467-69.533-155-155-155s-155 69.533-155 155v80c0 46.426 20.579 89.523 55.276 118.617l-67.333 20.005c-19.775 5.876-36.749 17.722-49.086 34.256-12.336 16.535-18.857 36.18-18.857 56.81v32.312c0 8.284 6.716 15 15 15h65v-47c0-8.284 6.716-15 15-15s15 6.716 15 15v47h110v-177.729l-38.541-19.271c-25.573-12.787-41.459-38.491-41.459-67.082v-82.918c0-24.813 20.187-45 45-45h100c24.813 0 45 20.187 45 45v82.918c0 28.591-15.886 54.295-41.458 67.082l-38.542 19.271v177.729h110v-47c0-8.284 6.716-15 15-15s15 6.716 15 15v47h65c8.284 0 15-6.716 15-15v-32.312c0-20.63-6.521-40.275-18.857-56.81z"/><path d="m243.52 186.679c2.782-4.173 7.465-6.679 12.48-6.679s9.699 2.506 12.48 6.679c9.736 14.603 26.026 23.321 43.576 23.321h8.944v-45c0-8.271-6.729-15-15-15h-100c-8.271 0-15 6.729-15 15v45h8.944c17.55 0 33.84-8.718 43.576-23.321z"/></g></svg>