<svg id="Capa_1" enable-background="new 0 0 512 512" height="512" viewBox="0 0 512 512" width="512" xmlns="http://www.w3.org/2000/svg"><g><path d="m436.01 172h-35v-35c0-8.284-6.716-15-15-15h-213.833l42.729 159.468c6.388.344 13.373.532 21.104.532 41.159 0 61.185-5.34 82.385-10.994 20.872-5.566 42.423-11.308 82.615-11.945v-57.061h35c8.271 0 15 6.729 15 15v140c0 8.271-6.729 15-15 15h-35v-82.938c-36.175.609-55.014 5.633-74.885 10.932-22.136 5.902-45.025 12.006-90.115 12.006-4.546 0-8.855-.065-12.972-.182l26.335 98.286c2.144 8.002-2.604 16.227-10.606 18.371s-16.227-2.605-18.371-10.607l-29.039-108.375c-18.541-2.324-32.142-5.947-45.462-9.499-19.871-5.299-38.709-10.323-74.885-10.932v167.938c0 30.376 24.624 55 55 55h220c30.376 0 55-24.624 55-55v-55h35c24.813 0 45-20.187 45-45v-140c0-24.813-20.187-45-45-45zm-289.991 280c-8.284 0-15-6.716-15-15s6.716-15 15-15 15 6.716 15 15-6.715 15-15 15zm20-60c-8.284 0-15-6.716-15-15s6.716-15 15-15 15 6.716 15 15-6.715 15-15 15zm130 40c-8.284 0-15-6.716-15-15s6.716-15 15-15 15 6.716 15 15-6.715 15-15 15zm30-60c-8.284 0-15-6.716-15-15s6.716-15 15-15 15 6.716 15 15-6.715 15-15 15z"/><path d="m32.593 143.708 38.416 76.833v38.52c40.193.638 61.743 6.38 82.615 11.945 9.344 2.492 18.461 4.922 29.258 6.861l-41.763-155.867h-95.109c-11.151 0-18.403 11.735-13.417 21.708z"/><path d="m181.01 45c0-24.813-20.187-45-45-45s-45 20.187-45 45c0 23.632 18.315 43.054 41.494 44.85l8.615 32.15h31.058l-10.699-39.928c11.786-8.122 19.532-21.707 19.532-37.072z"/></g></svg>